<?xml version="1.0" encoding="utf-8" ?>
<svg xmlns="http://www.w3.org/2000/svg" xmlns:cc="http://creativecommons.org/ns" xmlns:dc="http://purl.org/dc/elements/1.1/" xmlns:ev="http://www.w3.org/2001/xml-events" xmlns:inkscape="http://www.inkscape.org/namespaces/inkscape" xmlns:rdf="http://www.w3.org/1999/02/22-rdf-syntax-ns" xmlns:sodipodi="http://sodipodi.sourceforge.net/DTD/sodipodi-0.dtd" xmlns:xlink="http://www.w3.org/1999/xlink" baseProfile="tiny" height="15.875cm" version="1.2" viewBox="0 0 432.0 600.0" width="11.43cm">
  <metadata>
    <rdf:RDF>
      <cc:Work>
        <dc:format>image/svg+xml</dc:format>
        <dc:source>vsk save -s 122 -c hex-grid/config/bubble-coasters-2.json /Users/tobin/src/fabian/plotting/fabian-plotting/hex-grid/sketch_hex_grid.py</dc:source>
        <dc:date>2023-11-04T10:32:59.251205</dc:date>
      </cc:Work>
    </rdf:RDF>
  </metadata>
  <defs/>
  <g fill="none" id="layer1" inkscape:groupmode="layer" inkscape:label="1" stroke="#000000" stroke-width="0.7559" style="display:inline">
    <polygon points="305.4093,213.8289 305.5657,214.266 305.6785,214.7163 305.7466,215.1754 305.7693,215.639 305.7466,216.1026 305.6785,216.5618 305.5657,217.0121 305.4093,217.4491 305.2108,217.8687 304.9722,218.2669 304.6957,218.6397 304.384,218.9836 304.04,219.2953 303.6672,219.5719 303.2691,219.8105 302.8495,220.0089 302.4124,220.1653 301.9621,220.2781 301.503,220.3462 301.0394,220.369 300.5758,220.3462 300.1166,220.2781 299.6663,220.1653 299.2293,220.0089 298.8097,219.8105 298.4115,219.5719 298.0387,219.2953 297.6948,218.9836 297.3831,218.6397 297.1065,218.2669 296.8679,217.8687 296.6694,217.4491 296.5131,217.0121 296.4003,216.5618 296.3322,216.1026 296.3094,215.639 296.3322,215.1754 296.4003,214.7163 296.5131,214.266 296.6694,213.8289 296.8679,213.4093 297.1065,213.0112 297.3831,212.6384 297.6948,212.2944 298.0387,211.9827 298.4115,211.7062 298.8097,211.4676 299.2293,211.2691 299.6663,211.1127 300.1166,210.9999 300.5758,210.9318 301.0394,210.9091 301.503,210.9318 301.9621,210.9999 302.4124,211.1127 302.8495,211.2691 303.2691,211.4676 303.6672,211.7062 304.04,211.9827 304.384,212.2944 304.6957,212.6384 304.9722,213.0112 305.2108,213.4093"/>
    <polygon points="290.6236,226.8244 291.0738,226.7117 291.5109,226.5553 291.9305,226.3568 292.3286,226.1182 292.7015,225.8417 293.0454,225.53 293.3571,225.186 293.6336,224.8132 293.8723,224.4151 294.0707,223.9954 294.2271,223.5584 294.3399,223.1081 294.408,222.649 294.4308,222.1854 294.408,221.7217 294.3399,221.2626 294.2271,220.8123 294.0707,220.3753 293.8723,219.9557 293.6336,219.5575 293.3571,219.1847 293.0454,218.8408 292.7015,218.529 292.3286,218.2525 291.9305,218.0139 291.5109,217.8154 291.0738,217.6591 290.6236,217.5463 290.1644,217.4782 289.7008,217.4554 289.2372,217.4782 288.778,217.5463 288.3277,217.6591 287.8907,217.8154 287.4711,218.0139 287.073,218.2525 286.7001,218.529 286.3562,218.8408 286.0445,219.1847 285.768,219.5575 285.5293,219.9557 285.3309,220.3753 285.1745,220.8123 285.0617,221.2626 284.9936,221.7217 284.9708,222.1854 284.9936,222.649 285.0617,223.1081 285.1745,223.5584 285.3309,223.9954 285.5293,224.4151 285.768,224.8132 286.0445,225.186 286.3562,225.53 286.7001,225.8417 287.073,226.1182 287.4711,226.3568 287.8907,226.5553 288.3277,226.7117 288.778,226.8244 289.2372,226.8926 289.7008,226.9153 290.1644,226.8926"/>
    <polygon points="292.3286,231.3452 291.9305,231.1066 291.5109,230.9081 291.0738,230.7517 290.6236,230.6389 290.1644,230.5708 289.7008,230.5481 289.2372,230.5708 288.778,230.6389 288.3277,230.7517 287.8907,230.9081 287.4711,231.1066 287.073,231.3452 286.7001,231.6217 286.3562,231.9334 286.0445,232.2774 285.768,232.6502 285.5293,233.0483 285.3309,233.4679 285.1745,233.905 285.0617,234.3553 284.9936,234.8144 284.9708,235.278 284.9936,235.7416 285.0617,236.2008 285.1745,236.6511 285.3309,237.0881 285.5293,237.5077 285.768,237.9059 286.0445,238.2787 286.3562,238.6226 286.7001,238.9343 287.073,239.2109 287.4711,239.4495 287.8907,239.648 288.3277,239.8043 288.778,239.9171 289.2372,239.9852 289.7008,240.008 290.1644,239.9852 290.6236,239.9171 291.0738,239.8043 291.5109,239.648 291.9305,239.4495 292.3286,239.2109 292.7015,238.9343 293.0454,238.6226 293.3571,238.2787 293.6336,237.9059 293.8723,237.5077 294.0707,237.0881 294.2271,236.6511 294.3399,236.2008 294.408,235.7416 294.4308,235.278 294.408,234.8144 294.3399,234.3553 294.2271,233.905 294.0707,233.4679 293.8723,233.0483 293.6336,232.6502 293.3571,232.2774 293.0454,231.9334 292.7015,231.6217"/>
    <polygon points="271.7536,235.278 271.7308,234.8144 271.6627,234.3553 271.5499,233.905 271.3935,233.4679 271.1951,233.0483 270.9565,232.6502 270.6799,232.2774 270.3682,231.9334 270.0243,231.6217 269.6515,231.3452 269.2533,231.1066 268.8337,230.9081 268.3967,230.7517 267.9464,230.6389 267.4872,230.5708 267.0236,230.5481 266.56,230.5708 266.1009,230.6389 265.6506,230.7517 265.2135,230.9081 264.7939,231.1066 264.3958,231.3452 264.023,231.6217 263.679,231.9334 263.3673,232.2774 263.0908,232.6502 262.8522,233.0483 262.6537,233.4679 262.4973,233.905 262.3845,234.3553 262.3164,234.8144 262.2936,235.278 262.3164,235.7416 262.3845,236.2008 262.4973,236.6511 262.6537,237.0881 262.8522,237.5077 263.0908,237.9059 263.3673,238.2787 263.679,238.6226 264.023,238.9343 264.3958,239.2109 264.7939,239.4495 265.2135,239.648 265.6506,239.8043 266.1009,239.9171 266.56,239.9852 267.0236,240.008 267.4872,239.9852 267.9464,239.9171 268.3967,239.8043 268.8337,239.648 269.2533,239.4495 269.6515,239.2109 270.0243,238.9343 270.3682,238.6226 270.6799,238.2787 270.9565,237.9059 271.1951,237.5077 271.3935,237.0881 271.5499,236.6511 271.6627,236.2008 271.7308,235.7416"/>
    <polygon points="280.1791,221.9038 279.5199,222.7926 278.7767,223.6126 277.9568,224.3557 277.0679,225.0149 276.1188,225.5838 275.1184,226.057 274.0765,226.4298 273.003,226.6987 271.9084,226.861 270.8031,226.9153 269.6979,226.861 268.6033,226.6987 267.5298,226.4298 266.4879,226.057 265.4875,225.5838 264.5384,225.0149 263.6495,224.3557 262.8296,223.6126 262.0864,222.7926 261.4272,221.9038 260.8583,220.9546 260.3852,219.9543 260.0124,218.9124 259.7435,217.8389 259.5811,216.7443 259.5268,215.639 259.5811,214.5338 259.7435,213.4391 260.0124,212.3657 260.3852,211.3238 260.8583,210.3234 261.4272,209.3742 262.0864,208.4854 262.8296,207.6655 263.6495,206.9223 264.5384,206.2631 265.4875,205.6942 266.4879,205.2211 267.5298,204.8483 268.6033,204.5794 269.6979,204.417 270.8031,204.3627 271.9084,204.417 273.003,204.5794 274.0765,204.8483 275.1184,205.2211 276.1188,205.6942 277.0679,206.2631 277.9568,206.9223 278.7767,207.6655 279.5199,208.4854 280.1791,209.3742 280.748,210.3234 281.2211,211.3238 281.5939,212.3657 281.8628,213.4391 282.0252,214.5338 282.0795,215.639 282.0252,216.7443 281.8628,217.8389 281.5939,218.9124 281.2211,219.9543 280.748,220.9546"/>
    <polygon points="284.9936,209.5563 284.9708,209.0927 284.9936,208.6291 285.0617,208.1699 285.1745,207.7197 285.3309,207.2826 285.5293,206.863 285.768,206.4649 286.0445,206.092 286.3562,205.7481 286.7001,205.4364 287.073,205.1599 287.4711,204.9212 287.8907,204.7228 288.3277,204.5664 288.778,204.4536 289.2372,204.3855 289.7008,204.3627 290.1644,204.3855 290.6236,204.4536 291.0738,204.5664 291.5109,204.7228 291.9305,204.9212 292.3286,205.1599 292.7015,205.4364 293.0454,205.7481 293.3571,206.092 293.6336,206.4649 293.8723,206.863 294.0707,207.2826 294.2271,207.7197 294.3399,208.1699 294.408,208.6291 294.4308,209.0927 294.408,209.5563 294.3399,210.0155 294.2271,210.4657 294.0707,210.9028 293.8723,211.3224 293.6336,211.7205 293.3571,212.0934 293.0454,212.4373 292.7015,212.749 292.3286,213.0255 291.9305,213.2642 291.5109,213.4626 291.0738,213.619 290.6236,213.7318 290.1644,213.7999 289.7008,213.8227 289.2372,213.7999 288.778,213.7318 288.3277,213.619 287.8907,213.4626 287.4711,213.2642 287.073,213.0255 286.7001,212.749 286.3562,212.4373 286.0445,212.0934 285.768,211.7205 285.5293,211.3224 285.3309,210.9028 285.1745,210.4657 285.0617,210.0155"/>
    <polygon points="283.0694,189.9173 283.0013,190.3765 282.8885,190.8267 282.7321,191.2638 282.5337,191.6834 282.295,192.0815 282.0185,192.4544 281.7068,192.7983 281.3629,193.11 280.99,193.3865 280.5919,193.6252 280.1723,193.8236 279.7352,193.98 279.285,194.0928 278.8258,194.1609 278.3622,194.1837 277.8986,194.1609 277.4394,194.0928 276.9892,193.98 276.5521,193.8236 276.1325,193.6252 275.7344,193.3865 275.3615,193.11 275.0176,192.7983 274.7059,192.4544 274.4294,192.0815 274.1907,191.6834 273.9923,191.2638 273.8359,190.8267 273.7231,190.3765 273.655,189.9173 273.6322,189.4537 273.655,188.9901 273.7231,188.5309 273.8359,188.0807 273.9923,187.6436 274.1907,187.224 274.4294,186.8259 274.7059,186.453 275.0176,186.1091 275.3615,185.7974 275.7344,185.5209 276.1325,185.2822 276.5521,185.0838 276.9892,184.9274 277.4394,184.8146 277.8986,184.7465 278.3622,184.7237 278.8258,184.7465 279.285,184.8146 279.7352,184.9274 280.1723,185.0838 280.5919,185.2822 280.99,185.5209 281.3629,185.7974 281.7068,186.1091 282.0185,186.453 282.295,186.8259 282.5337,187.224 282.7321,187.6436 282.8885,188.0807 283.0013,188.5309 283.0694,188.9901 283.0922,189.4537"/>
    <polygon points="262.3845,195.0773 262.3164,195.5364 262.2936,196.0 262.3164,196.4636 262.3845,196.9228 262.4973,197.3731 262.6537,197.8101 262.8522,198.2297 263.0908,198.6279 263.3673,199.0007 263.679,199.3446 264.023,199.6563 264.3958,199.9329 264.7939,200.1715 265.2135,200.3699 265.6506,200.5263 266.1009,200.6391 266.56,200.7072 267.0236,200.73 267.4872,200.7072 267.9464,200.6391 268.3967,200.5263 268.8337,200.3699 269.2533,200.1715 269.6515,199.9329 270.0243,199.6563 270.3682,199.3446 270.6799,199.0007 270.9565,198.6279 271.1951,198.2297 271.3935,197.8101 271.5499,197.3731 271.6627,196.9228 271.7308,196.4636 271.7536,196.0 271.7308,195.5364 271.6627,195.0773 271.5499,194.627 271.3935,194.1899 271.1951,193.7703 270.9565,193.3722 270.6799,192.9994 270.3682,192.6554 270.0243,192.3437 269.6515,192.0672 269.2533,191.8286 268.8337,191.6301 268.3967,191.4737 267.9464,191.3609 267.4872,191.2928 267.0236,191.2701 266.56,191.2928 266.1009,191.3609 265.6506,191.4737 265.2135,191.6301 264.7939,191.8286 264.3958,192.0672 264.023,192.3437 263.679,192.6554 263.3673,192.9994 263.0908,193.3722 262.8522,193.7703 262.6537,194.1899 262.4973,194.627"/>
    <polygon points="258.9167,199.273 258.5439,198.2311 258.0708,197.2307 257.5019,196.2816 256.8427,195.3927 256.0995,194.5728 255.2796,193.8297 254.3908,193.1705 253.4416,192.6015 252.4412,192.1284 251.3993,191.7556 250.3259,191.4867 249.2313,191.3243 248.126,191.2701 247.0207,191.3243 245.9261,191.4867 244.8526,191.7556 243.8107,192.1284 242.8104,192.6015 241.8612,193.1705 240.9724,193.8297 240.1524,194.5728 239.4093,195.3927 238.7501,196.2816 238.1812,197.2307 237.708,198.2311 237.3352,199.273 237.0663,200.3465 236.904,201.4411 236.8497,202.5464 236.904,203.6516 237.0663,204.7463 237.3352,205.8197 237.708,206.8616 238.1812,207.862 238.7501,208.8111 239.4093,209.7 240.1524,210.5199 240.9724,211.2631 241.8612,211.9223 242.8104,212.4912 243.8107,212.9643 244.8526,213.3371 245.9261,213.606 247.0207,213.7684 248.126,213.8227 249.2313,213.7684 250.3259,213.606 251.3993,213.3371 252.4412,212.9643 253.4416,212.4912 254.3908,211.9223 255.2796,211.2631 256.0995,210.5199 256.8427,209.7 257.5019,208.8111 258.0708,207.862 258.5439,206.8616 258.9167,205.8197 259.1856,204.7463 259.348,203.6516 259.4023,202.5464 259.348,201.4411 259.1856,200.3465"/>
    <polygon points="248.0028,185.908 247.6911,186.252 247.3471,186.5637 246.9743,186.8402 246.5762,187.0788 246.1565,187.2773 245.7195,187.4337 245.2692,187.5464 244.8101,187.6146 244.3465,187.6373 243.8828,187.6146 243.4237,187.5464 242.9734,187.4337 242.5364,187.2773 242.1168,187.0788 241.7186,186.8402 241.3458,186.5637 241.0019,186.252 240.6901,185.908 240.4136,185.5352 240.175,185.137 239.9765,184.7174 239.8202,184.2804 239.7074,183.8301 239.6393,183.371 239.6165,182.9074 239.6393,182.4437 239.7074,181.9846 239.8202,181.5343 239.9765,181.0973 240.175,180.6777 240.4136,180.2795 240.6901,179.9067 241.0019,179.5628 241.3458,179.251 241.7186,178.9745 242.1168,178.7359 242.5364,178.5374 242.9734,178.3811 243.4237,178.2683 243.8828,178.2002 244.3465,178.1774 244.8101,178.2002 245.2692,178.2683 245.7195,178.3811 246.1565,178.5374 246.5762,178.7359 246.9743,178.9745 247.3471,179.251 247.6911,179.5628 248.0028,179.9067 248.2793,180.2795 248.5179,180.6777 248.7164,181.0973 248.8728,181.5343 248.9855,181.9846 249.0537,182.4437 249.0764,182.9074 249.0537,183.371 248.9855,183.8301 248.8728,184.2804 248.7164,184.7174 248.5179,185.137 248.2793,185.5352"/>
    <polygon points="231.7136,198.8296 230.7644,199.3985 229.7641,199.8716 228.7222,200.2444 227.6487,200.5133 226.5541,200.6757 225.4488,200.73 224.3435,200.6757 223.2489,200.5133 222.1755,200.2444 221.1336,199.8716 220.1332,199.3985 219.184,198.8296 218.2952,198.1704 217.4753,197.4272 216.7321,196.6073 216.0729,195.7185 215.504,194.7693 215.0309,193.7689 214.6581,192.727 214.3892,191.6536 214.2268,190.559 214.1725,189.4537 214.2268,188.3484 214.3892,187.2538 214.6581,186.1804 215.0309,185.1384 215.504,184.1381 216.0729,183.1889 216.7321,182.3001 217.4753,181.4801 218.2952,180.737 219.184,180.0778 220.1332,179.5089 221.1336,179.0357 222.1755,178.6629 223.2489,178.3941 224.3435,178.2317 225.4488,178.1774 226.5541,178.2317 227.6487,178.3941 228.7222,178.6629 229.7641,179.0357 230.7644,179.5089 231.7136,180.0778 232.6024,180.737 233.4224,181.4801 234.1655,182.3001 234.8247,183.1889 235.3936,184.1381 235.8668,185.1384 236.2396,186.1804 236.5085,187.2538 236.6708,188.3484 236.7251,189.4537 236.6708,190.559 236.5085,191.6536 236.2396,192.727 235.8668,193.7689 235.3936,194.7693 234.8247,195.7185 234.1655,196.6073 233.4224,197.4272 232.6024,198.1704"/>
    <polygon points="213.8313,200.3465 213.9937,201.4411 214.048,202.5464 213.9937,203.6516 213.8313,204.7463 213.5624,205.8197 213.1896,206.8616 212.7165,207.862 212.1476,208.8111 211.4884,209.7 210.7452,210.5199 209.9253,211.2631 209.0364,211.9223 208.0873,212.4912 207.0869,212.9643 206.045,213.3371 204.9716,213.606 203.8769,213.7684 202.7717,213.8227 201.6664,213.7684 200.5718,213.606 199.4983,213.3371 198.4564,212.9643 197.456,212.4912 196.5069,211.9223 195.618,211.2631 194.7981,210.5199 194.055,209.7 193.3957,208.8111 192.8268,207.862 192.3537,206.8616 191.9809,205.8197 191.712,204.7463 191.5496,203.6516 191.4953,202.5464 191.5496,201.4411 191.712,200.3465 191.9809,199.273 192.3537,198.2311 192.8268,197.2307 193.3957,196.2816 194.055,195.3927 194.7981,194.5728 195.618,193.8297 196.5069,193.1705 197.456,192.6015 198.4564,192.1284 199.4983,191.7556 200.5718,191.4867 201.6664,191.3243 202.7717,191.2701 203.8769,191.3243 204.9716,191.4867 206.045,191.7556 207.0869,192.1284 208.0873,192.6015 209.0364,193.1705 209.9253,193.8297 210.7452,194.5728 211.4884,195.3927 212.1476,196.2816 212.7165,197.2307 213.1896,198.2311 213.5624,199.273"/>
    <polygon points="187.0111,234.7504 187.8167,232.4988 188.8392,230.3369 190.0686,228.2857 191.4932,226.3648 193.0992,224.5929 194.8712,222.9869 196.792,221.5623 198.8433,220.3328 201.0051,219.3104 203.2568,218.5047 205.5766,217.9236 207.9421,217.5727 210.3307,217.4554 212.7193,217.5727 215.0849,217.9236 217.4046,218.5047 219.6563,219.3104 221.8182,220.3328 223.8694,221.5623 225.7902,222.9869 227.5622,224.5929 229.1682,226.3648 230.5928,228.2857 231.8222,230.3369 232.8447,232.4988 233.6504,234.7504 234.2314,237.0702 234.5823,239.4358 234.6997,241.8244 234.5823,244.2129 234.2314,246.5785 233.6504,248.8983 232.8447,251.15 231.8222,253.3118 230.5928,255.363 229.1682,257.2839 227.5622,259.0558 225.7902,260.6618 223.8694,262.0864 221.8182,263.3159 219.6563,264.3384 217.4046,265.144 215.0849,265.7251 212.7193,266.076 210.3307,266.1933 207.9421,266.076 205.5766,265.7251 203.2568,265.144 201.0051,264.3384 198.8433,263.3159 196.792,262.0864 194.8712,260.6618 193.0992,259.0558 191.4932,257.2839 190.0686,255.363 188.8392,253.3118 187.8167,251.15 187.0111,248.8983 186.43,246.5785 186.0791,244.2129 185.9617,241.8244 186.0791,239.4358 186.43,237.0702"/>
    <polygon points="171.6078,222.649 171.585,222.1854 171.6078,221.7217 171.6759,221.2626 171.7887,220.8123 171.945,220.3753 172.1435,219.9557 172.3821,219.5575 172.6586,219.1847 172.9704,218.8408 173.3143,218.529 173.6871,218.2525 174.0853,218.0139 174.5049,217.8154 174.9419,217.6591 175.3922,217.5463 175.8513,217.4782 176.315,217.4554 176.7786,217.4782 177.2377,217.5463 177.688,217.6591 178.125,217.8154 178.5447,218.0139 178.9428,218.2525 179.3156,218.529 179.6596,218.8408 179.9713,219.1847 180.2478,219.5575 180.4864,219.9557 180.6849,220.3753 180.8413,220.8123 180.954,221.2626 181.0222,221.7217 181.0449,222.1854 181.0222,222.649 180.954,223.1081 180.8413,223.5584 180.6849,223.9954 180.4864,224.4151 180.2478,224.8132 179.9713,225.186 179.6596,225.53 179.3156,225.8417 178.9428,226.1182 178.5447,226.3568 178.125,226.5553 177.688,226.7117 177.2377,226.8244 176.7786,226.8926 176.315,226.9153 175.8513,226.8926 175.3922,226.8244 174.9419,226.7117 174.5049,226.5553 174.0853,226.3568 173.6871,226.1182 173.3143,225.8417 172.9704,225.53 172.6586,225.186 172.3821,224.8132 172.1435,224.4151 171.945,223.9954 171.7887,223.5584 171.6759,223.1081"/>
    <polygon points="156.3121,239.9537 155.2174,239.7913 154.144,239.5224 153.1021,239.1496 152.1017,238.6765 151.1525,238.1076 150.2637,237.4484 149.4438,236.7052 148.7006,235.8853 148.0414,234.9965 147.4725,234.0473 146.9994,233.0469 146.6266,232.005 146.3577,230.9316 146.1953,229.837 146.141,228.7317 146.1953,227.6264 146.3577,226.5318 146.6266,225.4584 146.9994,224.4164 147.4725,223.4161 148.0414,222.4669 148.7006,221.5781 149.4438,220.7581 150.2637,220.015 151.1525,219.3558 152.1017,218.7869 153.1021,218.3137 154.144,217.9409 155.2174,217.6721 156.3121,217.5097 157.4173,217.4554 158.5226,217.5097 159.6172,217.6721 160.6907,217.9409 161.7326,218.3137 162.7329,218.7869 163.6821,219.3558 164.5709,220.015 165.3909,220.7581 166.134,221.5781 166.7932,222.4669 167.3621,223.4161 167.8353,224.4164 168.2081,225.4584 168.477,226.5318 168.6393,227.6264 168.6936,228.7317 168.6393,229.837 168.477,230.9316 168.2081,232.005 167.8353,233.0469 167.3621,234.0473 166.7932,234.9965 166.134,235.8853 165.3909,236.7052 164.5709,237.4484 163.6821,238.1076 162.7329,238.6765 161.7326,239.1496 160.6907,239.5224 159.6172,239.7913 158.5226,239.9537 157.4173,240.008"/>
    <polygon points="144.1161,248.0891 144.685,247.14 145.1581,246.1396 145.5309,245.0977 145.7998,244.0243 145.9622,242.9296 146.0165,241.8244 145.9622,240.7191 145.7998,239.6245 145.5309,238.551 145.1581,237.5091 144.685,236.5087 144.1161,235.5596 143.4569,234.6707 142.7137,233.8508 141.8938,233.1077 141.0049,232.4485 140.0558,231.8795 139.0554,231.4064 138.0135,231.0336 136.9401,230.7647 135.8454,230.6024 134.7402,230.5481 133.6349,230.6024 132.5403,230.7647 131.4668,231.0336 130.4249,231.4064 129.4245,231.8795 128.4754,232.4485 127.5865,233.1077 126.7666,233.8508 126.0235,234.6707 125.3643,235.5596 124.7953,236.5087 124.3222,237.5091 123.9494,238.551 123.6805,239.6245 123.5181,240.7191 123.4639,241.8244 123.5181,242.9296 123.6805,244.0243 123.9494,245.0977 124.3222,246.1396 124.7953,247.14 125.3643,248.0891 126.0235,248.978 126.7666,249.7979 127.5865,250.5411 128.4754,251.2003 129.4245,251.7692 130.4249,252.2423 131.4668,252.6151 132.5403,252.884 133.6349,253.0464 134.7402,253.1007 135.8454,253.0464 136.9401,252.884 138.0135,252.6151 139.0554,252.2423 140.0558,251.7692 141.0049,251.2003 141.8938,250.5411 142.7137,249.7979 143.4569,248.978"/>
    <polygon points="117.3924,232.9032 117.812,233.1016 118.249,233.258 118.6993,233.3708 119.1584,233.4389 119.622,233.4617 120.0857,233.4389 120.5448,233.3708 120.9951,233.258 121.4321,233.1016 121.8517,232.9032 122.2499,232.6645 122.6227,232.388 122.9666,232.0763 123.2784,231.7324 123.5549,231.3595 123.7935,230.9614 123.992,230.5418 124.1483,230.1047 124.2611,229.6545 124.3292,229.1953 124.352,228.7317 124.3292,228.2681 124.2611,227.8089 124.1483,227.3587 123.992,226.9216 123.7935,226.502 123.5549,226.1039 123.2784,225.731 122.9666,225.3871 122.6227,225.0754 122.2499,224.7989 121.8517,224.5602 121.4321,224.3618 120.9951,224.2054 120.5448,224.0926 120.0857,224.0245 119.622,224.0017 119.1584,224.0245 118.6993,224.0926 118.249,224.2054 117.812,224.3618 117.3924,224.5602 116.9942,224.7989 116.6214,225.0754 116.2775,225.3871 115.9657,225.731 115.6892,226.1039 115.4506,226.502 115.2521,226.9216 115.0957,227.3587 114.983,227.8089 114.9149,228.2681 114.8921,228.7317 114.9149,229.1953 114.983,229.6545 115.0957,230.1047 115.2521,230.5418 115.4506,230.9614 115.6892,231.3595 115.9657,231.7324 116.2775,232.0763 116.6214,232.388 116.9942,232.6645"/>
    <polygon points="111.9398,277.5567 111.6281,277.9006 111.2841,278.2123 110.9113,278.4889 110.5132,278.7275 110.0935,278.926 109.6565,279.0823 109.2062,279.1951 108.7471,279.2632 108.2835,279.286 107.8198,279.2632 107.3607,279.1951 106.9104,279.0823 106.4734,278.926 106.0538,278.7275 105.6556,278.4889 105.2828,278.2123 104.9389,277.9006 104.6271,277.5567 104.3506,277.1839 104.112,276.7857 103.9135,276.3661 103.7572,275.9291 103.6444,275.4788 103.5763,275.0196 103.5535,274.556 103.5763,274.0924 103.6444,273.6333 103.7572,273.183 103.9135,272.7459 104.112,272.3263 104.3506,271.9282 104.6271,271.5554 104.9389,271.2114 105.2828,270.8997 105.6556,270.6232 106.0538,270.3846 106.4734,270.1861 106.9104,270.0297 107.3607,269.9169 107.8198,269.8488 108.2835,269.8261 108.7471,269.8488 109.2062,269.9169 109.6565,270.0297 110.0935,270.1861 110.5132,270.3846 110.9113,270.6232 111.2841,270.8997 111.6281,271.2114 111.9398,271.5554 112.2163,271.9282 112.4549,272.3263 112.6534,272.7459 112.8098,273.183 112.9226,273.6333 112.9907,274.0924 113.0134,274.556 112.9907,275.0196 112.9226,275.4788 112.8098,275.9291 112.6534,276.3661 112.4549,276.7857 112.2163,277.1839"/>
    <polygon points="121.4321,285.4723 120.9951,285.6287 120.5448,285.7414 120.0857,285.8096 119.622,285.8323 119.1584,285.8096 118.6993,285.7414 118.249,285.6287 117.812,285.4723 117.3924,285.2738 116.9942,285.0352 116.6214,284.7587 116.2775,284.447 115.9657,284.103 115.6892,283.7302 115.4506,283.3321 115.2521,282.9124 115.0957,282.4754 114.983,282.0251 114.9149,281.566 114.8921,281.1024 114.9149,280.6387 114.983,280.1796 115.0957,279.7293 115.2521,279.2923 115.4506,278.8727 115.6892,278.4745 115.9657,278.1017 116.2775,277.7578 116.6214,277.446 116.9942,277.1695 117.3924,276.9309 117.812,276.7324 118.249,276.5761 118.6993,276.4633 119.1584,276.3952 119.622,276.3724 120.0857,276.3952 120.5448,276.4633 120.9951,276.5761 121.4321,276.7324 121.8517,276.9309 122.2499,277.1695 122.6227,277.446 122.9666,277.7578 123.2784,278.1017 123.5549,278.4745 123.7935,278.8727 123.992,279.2923 124.1483,279.7293 124.2611,280.1796 124.3292,280.6387 124.352,281.1024 124.3292,281.566 124.2611,282.0251 124.1483,282.4754 123.992,282.9124 123.7935,283.3321 123.5549,283.7302 123.2784,284.103 122.9666,284.447 122.6227,284.7587 122.2499,285.0352 121.8517,285.2738"/>
    <polygon points="143.4569,301.3486 142.7137,302.1686 141.8938,302.9117 141.0049,303.5709 140.0558,304.1398 139.0554,304.613 138.0135,304.9858 136.9401,305.2547 135.8454,305.417 134.7402,305.4713 133.6349,305.417 132.5403,305.2547 131.4668,304.9858 130.4249,304.613 129.4245,304.1398 128.4754,303.5709 127.5865,302.9117 126.7666,302.1686 126.0235,301.3486 125.3643,300.4598 124.7953,299.5106 124.3222,298.5103 123.9494,297.4684 123.6805,296.3949 123.5181,295.3003 123.4639,294.195 123.5181,293.0898 123.6805,291.9951 123.9494,290.9217 124.3222,289.8798 124.7953,288.8794 125.3643,287.9302 126.0235,287.0414 126.7666,286.2215 127.5865,285.4783 128.4754,284.8191 129.4245,284.2502 130.4249,283.7771 131.4668,283.4043 132.5403,283.1354 133.6349,282.973 134.7402,282.9187 135.8454,282.973 136.9401,283.1354 138.0135,283.4043 139.0554,283.7771 140.0558,284.2502 141.0049,284.8191 141.8938,285.4783 142.7137,286.2215 143.4569,287.0414 144.1161,287.9302 144.685,288.8794 145.1581,289.8798 145.5309,290.9217 145.7998,291.9951 145.9622,293.0898 146.0165,294.195 145.9622,295.3003 145.7998,296.3949 145.5309,297.4684 145.1581,298.5103 144.685,299.5106 144.1161,300.4598"/>
    <polygon points="146.1953,308.393 146.141,307.2877 146.1953,306.1824 146.3577,305.0878 146.6266,304.0144 146.9994,302.9724 147.4725,301.9721 148.0414,301.0229 148.7006,300.1341 149.4438,299.3141 150.2637,298.571 151.1525,297.9118 152.1017,297.3429 153.1021,296.8697 154.144,296.4969 155.2174,296.2281 156.3121,296.0657 157.4173,296.0114 158.5226,296.0657 159.6172,296.2281 160.6907,296.4969 161.7326,296.8697 162.7329,297.3429 163.6821,297.9118 164.5709,298.571 165.3909,299.3141 166.134,300.1341 166.7932,301.0229 167.3621,301.9721 167.8353,302.9724 168.2081,304.0144 168.477,305.0878 168.6393,306.1824 168.6936,307.2877 168.6393,308.393 168.477,309.4876 168.2081,310.561 167.8353,311.603 167.3621,312.6033 166.7932,313.5525 166.134,314.4413 165.3909,315.2612 164.5709,316.0044 163.6821,316.6636 162.7329,317.2325 161.7326,317.7056 160.6907,318.0784 159.6172,318.3473 158.5226,318.5097 157.4173,318.564 156.3121,318.5097 155.2174,318.3473 154.144,318.0784 153.1021,317.7056 152.1017,317.2325 151.1525,316.6636 150.2637,316.0044 149.4438,315.2612 148.7006,314.4413 148.0414,313.5525 147.4725,312.6033 146.9994,311.603 146.6266,310.561 146.3577,309.4876"/>
    <polygon points="140.4891,316.0104 140.9262,315.8541 141.3764,315.7413 141.8356,315.6732 142.2992,315.6504 142.7628,315.6732 143.222,315.7413 143.6723,315.8541 144.1093,316.0104 144.5289,316.2089 144.927,316.4475 145.2999,316.724 145.6438,317.0358 145.9555,317.3797 146.232,317.7525 146.4707,318.1507 146.6691,318.5703 146.8255,319.0073 146.9383,319.4576 147.0064,319.9167 147.0292,320.3804 147.0064,320.844 146.9383,321.3031 146.8255,321.7534 146.6691,322.1904 146.4707,322.6101 146.232,323.0082 145.9555,323.381 145.6438,323.725 145.2999,324.0367 144.927,324.3132 144.5289,324.5518 144.1093,324.7503 143.6723,324.9067 143.222,325.0195 142.7628,325.0876 142.2992,325.1103 141.8356,325.0876 141.3764,325.0195 140.9262,324.9067 140.4891,324.7503 140.0695,324.5518 139.6714,324.3132 139.2985,324.0367 138.9546,323.725 138.6429,323.381 138.3664,323.0082 138.1277,322.6101 137.9293,322.1904 137.7729,321.7534 137.6601,321.3031 137.592,320.844 137.5692,320.3804 137.592,319.9167 137.6601,319.4576 137.7729,319.0073 137.9293,318.5703 138.1277,318.1507 138.3664,317.7525 138.6429,317.3797 138.9546,317.0358 139.2985,316.724 139.6714,316.4475 140.0695,316.2089"/>
    <polygon points="106.7474,297.3429 105.7982,297.9118 104.9094,298.571 104.0894,299.3141 103.3463,300.1341 102.6871,301.0229 102.1182,301.9721 101.645,302.9724 101.2722,304.0144 101.0034,305.0878 100.841,306.1824 100.7867,307.2877 100.841,308.393 101.0034,309.4876 101.2722,310.561 101.645,311.603 102.1182,312.6033 102.6871,313.5525 103.3463,314.4413 104.0894,315.2612 104.9094,316.0044 105.7982,316.6636 106.7474,317.2325 107.7477,317.7056 108.7897,318.0784 109.8631,318.3473 110.9577,318.5097 112.063,318.564 113.1683,318.5097 114.2629,318.3473 115.3363,318.0784 116.3782,317.7056 117.3786,317.2325 118.3278,316.6636 119.2166,316.0044 120.0365,315.2612 120.7797,314.4413 121.4389,313.5525 122.0078,312.6033 122.4809,311.603 122.8537,310.561 123.1226,309.4876 123.285,308.393 123.3393,307.2877 123.285,306.1824 123.1226,305.0878 122.8537,304.0144 122.4809,302.9724 122.0078,301.9721 121.4389,301.0229 120.7797,300.1341 120.0365,299.3141 119.2166,298.571 118.3278,297.9118 117.3786,297.3429 116.3782,296.8697 115.3363,296.4969 114.2629,296.2281 113.1683,296.0657 112.063,296.0114 110.9577,296.0657 109.8631,296.2281 108.7897,296.4969 107.7477,296.8697"/>
    <polygon points="96.0221,315.7413 95.5718,315.8541 95.1348,316.0104 94.7152,316.2089 94.317,316.4475 93.9442,316.724 93.6003,317.0358 93.2886,317.3797 93.0121,317.7525 92.7734,318.1507 92.575,318.5703 92.4186,319.0073 92.3058,319.4576 92.2377,319.9167 92.2149,320.3804 92.2377,320.844 92.3058,321.3031 92.4186,321.7534 92.575,322.1904 92.7734,322.6101 93.0121,323.0082 93.2886,323.381 93.6003,323.725 93.9442,324.0367 94.317,324.3132 94.7152,324.5518 95.1348,324.7503 95.5718,324.9067 96.0221,325.0195 96.4813,325.0876 96.9449,325.1103 97.4085,325.0876 97.8677,325.0195 98.3179,324.9067 98.755,324.7503 99.1746,324.5518 99.5727,324.3132 99.9455,324.0367 100.2895,323.725 100.6012,323.381 100.8777,323.0082 101.1163,322.6101 101.3148,322.1904 101.4712,321.7534 101.584,321.3031 101.6521,320.844 101.6749,320.3804 101.6521,319.9167 101.584,319.4576 101.4712,319.0073 101.3148,318.5703 101.1163,318.1507 100.8777,317.7525 100.6012,317.3797 100.2895,317.0358 99.9455,316.724 99.5727,316.4475 99.1746,316.2089 98.755,316.0104 98.3179,315.8541 97.8677,315.7413 97.4085,315.6732 96.9449,315.6504 96.4813,315.6732"/>
    <polygon points="95.5718,337.9993 96.0221,338.1121 96.4813,338.1802 96.9449,338.203 97.4085,338.1802 97.8677,338.1121 98.3179,337.9993 98.755,337.843 99.1746,337.6445 99.5727,337.4059 99.9455,337.1294 100.2895,336.8176 100.6012,336.4737 100.8777,336.1009 101.1163,335.7027 101.3148,335.2831 101.4712,334.8461 101.584,334.3958 101.6521,333.9367 101.6749,333.473 101.6521,333.0094 101.584,332.5503 101.4712,332.1 101.3148,331.663 101.1163,331.2433 100.8777,330.8452 100.6012,330.4724 100.2895,330.1284 99.9455,329.8167 99.5727,329.5402 99.1746,329.3016 98.755,329.1031 98.3179,328.9467 97.8677,328.8339 97.4085,328.7658 96.9449,328.7431 96.4813,328.7658 96.0221,328.8339 95.5718,328.9467 95.1348,329.1031 94.7152,329.3016 94.317,329.5402 93.9442,329.8167 93.6003,330.1284 93.2886,330.4724 93.0121,330.8452 92.7734,331.2433 92.575,331.663 92.4186,332.1 92.3058,332.5503 92.2377,333.0094 92.2149,333.473 92.2377,333.9367 92.3058,334.3958 92.4186,334.8461 92.575,335.2831 92.7734,335.7027 93.0121,336.1009 93.2886,336.4737 93.6003,336.8176 93.9442,337.1294 94.317,337.4059 94.7152,337.6445 95.1348,337.843"/>
    <polygon points="93.0121,343.9379 92.7734,344.336 92.575,344.7556 92.4186,345.1927 92.3058,345.6429 92.2377,346.1021 92.2149,346.5657 92.2377,347.0293 92.3058,347.4885 92.4186,347.9387 92.575,348.3758 92.7734,348.7954 93.0121,349.1935 93.2886,349.5664 93.6003,349.9103 93.9442,350.222 94.317,350.4985 94.7152,350.7372 95.1348,350.9356 95.5718,351.092 96.0221,351.2048 96.4813,351.2729 96.9449,351.2957 97.4085,351.2729 97.8677,351.2048 98.3179,351.092 98.755,350.9356 99.1746,350.7372 99.5727,350.4985 99.9455,350.222 100.2895,349.9103 100.6012,349.5664 100.8777,349.1935 101.1163,348.7954 101.3148,348.3758 101.4712,347.9387 101.584,347.4885 101.6521,347.0293 101.6749,346.5657 101.6521,346.1021 101.584,345.6429 101.4712,345.1927 101.3148,344.7556 101.1163,344.336 100.8777,343.9379 100.6012,343.565 100.2895,343.2211 99.9455,342.9094 99.5727,342.6329 99.1746,342.3942 98.755,342.1958 98.3179,342.0394 97.8677,341.9266 97.4085,341.8585 96.9449,341.8357 96.4813,341.8585 96.0221,341.9266 95.5718,342.0394 95.1348,342.1958 94.7152,342.3942 94.317,342.6329 93.9442,342.9094 93.6003,343.2211 93.2886,343.565"/>
    <polygon points="145.6438,336.8176 145.2999,337.1294 144.927,337.4059 144.5289,337.6445 144.1093,337.843 143.6723,337.9993 143.222,338.1121 142.7628,338.1802 142.2992,338.203 141.8356,338.1802 141.3764,338.1121 140.9262,337.9993 140.4891,337.843 140.0695,337.6445 139.6714,337.4059 139.2985,337.1294 138.9546,336.8176 138.6429,336.4737 138.3664,336.1009 138.1277,335.7027 137.9293,335.2831 137.7729,334.8461 137.6601,334.3958 137.592,333.9367 137.5692,333.473 137.592,333.0094 137.6601,332.5503 137.7729,332.1 137.9293,331.663 138.1277,331.2433 138.3664,330.8452 138.6429,330.4724 138.9546,330.1284 139.2985,329.8167 139.6714,329.5402 140.0695,329.3016 140.4891,329.1031 140.9262,328.9467 141.3764,328.8339 141.8356,328.7658 142.2992,328.7431 142.7628,328.7658 143.222,328.8339 143.6723,328.9467 144.1093,329.1031 144.5289,329.3016 144.927,329.5402 145.2999,329.8167 145.6438,330.1284 145.9555,330.4724 146.232,330.8452 146.4707,331.2433 146.6691,331.663 146.8255,332.1 146.9383,332.5503 147.0064,333.0094 147.0292,333.473 147.0064,333.9367 146.9383,334.3958 146.8255,334.8461 146.6691,335.2831 146.4707,335.7027 146.232,336.1009 145.9555,336.4737"/>
    <polygon points="150.6371,343.6757 150.2932,343.364 149.9815,343.02 149.705,342.6472 149.4663,342.2491 149.2679,341.8294 149.1115,341.3924 148.9987,340.9421 148.9306,340.483 148.9078,340.0194 148.9306,339.5557 148.9987,339.0966 149.1115,338.6463 149.2679,338.2093 149.4663,337.7897 149.705,337.3915 149.9815,337.0187 150.2932,336.6748 150.6371,336.363 151.01,336.0865 151.4081,335.8479 151.8277,335.6494 152.2648,335.4931 152.715,335.3803 153.1742,335.3122 153.6378,335.2894 154.1014,335.3122 154.5606,335.3803 155.0108,335.4931 155.4479,335.6494 155.8675,335.8479 156.2656,336.0865 156.6385,336.363 156.9824,336.6748 157.2941,337.0187 157.5706,337.3915 157.8093,337.7897 158.0077,338.2093 158.1641,338.6463 158.2769,339.0966 158.345,339.5557 158.3678,340.0194 158.345,340.483 158.2769,340.9421 158.1641,341.3924 158.0077,341.8294 157.8093,342.2491 157.5706,342.6472 157.2941,343.02 156.9824,343.364 156.6385,343.6757 156.2656,343.9522 155.8675,344.1908 155.4479,344.3893 155.0108,344.5457 154.5606,344.6585 154.1014,344.7266 153.6378,344.7493 153.1742,344.7266 152.715,344.6585 152.2648,344.5457 151.8277,344.3893 151.4081,344.1908 151.01,343.9522"/>
    <polygon points="191.712,331.2731 191.5496,332.3678 191.4953,333.473 191.5496,334.5783 191.712,335.6729 191.9809,336.7464 192.3537,337.7883 192.8268,338.7886 193.3957,339.7378 194.055,340.6266 194.7981,341.4466 195.618,342.1897 196.5069,342.8489 197.456,343.4178 198.4564,343.891 199.4983,344.2638 200.5718,344.5327 201.6664,344.695 202.7717,344.7493 203.8769,344.695 204.9716,344.5327 206.045,344.2638 207.0869,343.891 208.0873,343.4178 209.0364,342.8489 209.9253,342.1897 210.7452,341.4466 211.4884,340.6266 212.1476,339.7378 212.7165,338.7886 213.1896,337.7883 213.5624,336.7464 213.8313,335.6729 213.9937,334.5783 214.048,333.473 213.9937,332.3678 213.8313,331.2731 213.5624,330.1997 213.1896,329.1578 212.7165,328.1574 212.1476,327.2083 211.4884,326.3194 210.7452,325.4995 209.9253,324.7563 209.0364,324.0971 208.0873,323.5282 207.0869,323.0551 206.045,322.6823 204.9716,322.4134 203.8769,322.251 202.7717,322.1967 201.6664,322.251 200.5718,322.4134 199.4983,322.6823 198.4564,323.0551 197.456,323.5282 196.5069,324.0971 195.618,324.7563 194.7981,325.4995 194.055,326.3194 193.3957,327.2083 192.8268,328.1574 192.3537,329.1578 191.9809,330.1997"/>
    <polygon points="202.925,350.4842 202.6484,350.1114 202.3367,349.7674 201.9928,349.4557 201.62,349.1792 201.2218,348.9406 200.8022,348.7421 200.3652,348.5857 199.9149,348.4729 199.4557,348.4048 198.9921,348.3821 198.5285,348.4048 198.0694,348.4729 197.6191,348.5857 197.182,348.7421 196.7624,348.9406 196.3643,349.1792 195.9915,349.4557 195.6475,349.7674 195.3358,350.1114 195.0593,350.4842 194.8207,350.8823 194.6222,351.302 194.4658,351.739 194.353,352.1893 194.2849,352.6484 194.2622,353.112 194.2849,353.5757 194.353,354.0348 194.4658,354.4851 194.6222,354.9221 194.8207,355.3417 195.0593,355.7399 195.3358,356.1127 195.6475,356.4566 195.9915,356.7684 196.3643,357.0449 196.7624,357.2835 197.182,357.482 197.6191,357.6383 198.0694,357.7511 198.5285,357.8192 198.9921,357.842 199.4557,357.8192 199.9149,357.7511 200.3652,357.6383 200.8022,357.482 201.2218,357.2835 201.62,357.0449 201.9928,356.7684 202.3367,356.4566 202.6484,356.1127 202.925,355.7399 203.1636,355.3417 203.3621,354.9221 203.5184,354.4851 203.6312,354.0348 203.6993,353.5757 203.7221,353.112 203.6993,352.6484 203.6312,352.1893 203.5184,351.739 203.3621,351.302 203.1636,350.8823"/>
    <polygon points="232.0851,368.1119 231.6348,368.2247 231.1978,368.3811 230.7782,368.5796 230.38,368.8182 230.0072,369.0947 229.6633,369.4064 229.3516,369.7504 229.075,370.1232 228.8364,370.5213 228.6379,370.941 228.4816,371.378 228.3688,371.8283 228.3007,372.2874 228.2779,372.751 228.3007,373.2147 228.3688,373.6738 228.4816,374.1241 228.6379,374.5611 228.8364,374.9807 229.075,375.3789 229.3516,375.7517 229.6633,376.0956 230.0072,376.4074 230.38,376.6839 230.7782,376.9225 231.1978,377.121 231.6348,377.2773 232.0851,377.3901 232.5443,377.4582 233.0079,377.481 233.4715,377.4582 233.9306,377.3901 234.3809,377.2773 234.818,377.121 235.2376,376.9225 235.6357,376.6839 236.0085,376.4074 236.3525,376.0956 236.6642,375.7517 236.9407,375.3789 237.1793,374.9807 237.3778,374.5611 237.5342,374.1241 237.647,373.6738 237.7151,373.2147 237.7378,372.751 237.7151,372.2874 237.647,371.8283 237.5342,371.378 237.3778,370.941 237.1793,370.5213 236.9407,370.1232 236.6642,369.7504 236.3525,369.4064 236.0085,369.0947 235.6357,368.8182 235.2376,368.5796 234.818,368.3811 234.3809,368.2247 233.9306,368.1119 233.4715,368.0438 233.0079,368.0211 232.5443,368.0438"/>
    <polygon points="245.7195,383.8237 245.2692,383.9365 244.8101,384.0046 244.3465,384.0273 243.8828,384.0046 243.4237,383.9365 242.9734,383.8237 242.5364,383.6673 242.1168,383.4688 241.7186,383.2302 241.3458,382.9537 241.0019,382.642 240.6901,382.298 240.4136,381.9252 240.175,381.5271 239.9765,381.1075 239.8202,380.6704 239.7074,380.2201 239.6393,379.761 239.6165,379.2974 239.6393,378.8338 239.7074,378.3746 239.8202,377.9243 239.9765,377.4873 240.175,377.0677 240.4136,376.6695 240.6901,376.2967 241.0019,375.9528 241.3458,375.6411 241.7186,375.3645 242.1168,375.1259 242.5364,374.9274 242.9734,374.7711 243.4237,374.6583 243.8828,374.5902 244.3465,374.5674 244.8101,374.5902 245.2692,374.6583 245.7195,374.7711 246.1565,374.9274 246.5762,375.1259 246.9743,375.3645 247.3471,375.6411 247.6911,375.9528 248.0028,376.2967 248.2793,376.6695 248.5179,377.0677 248.7164,377.4873 248.8728,377.9243 248.9855,378.3746 249.0537,378.8338 249.0764,379.2974 249.0537,379.761 248.9855,380.2201 248.8728,380.6704 248.7164,381.1075 248.5179,381.5271 248.2793,381.9252 248.0028,382.298 247.6911,382.642 247.3471,382.9537 246.9743,383.2302 246.5762,383.4688 246.1565,383.6673"/>
    <polygon points="238.1812,354.3428 238.7501,353.3936 239.4093,352.5048 240.1524,351.6848 240.9724,350.9417 241.8612,350.2825 242.8104,349.7136 243.8107,349.2404 244.8526,348.8676 245.9261,348.5987 247.0207,348.4364 248.126,348.3821 249.2313,348.4364 250.3259,348.5987 251.3993,348.8676 252.4412,349.2404 253.4416,349.7136 254.3908,350.2825 255.2796,350.9417 256.0995,351.6848 256.8427,352.5048 257.5019,353.3936 258.0708,354.3428 258.5439,355.3431 258.9167,356.385 259.1856,357.4585 259.348,358.5531 259.4023,359.6584 259.348,360.7636 259.1856,361.8583 258.9167,362.9317 258.5439,363.9736 258.0708,364.974 257.5019,365.9231 256.8427,366.812 256.0995,367.6319 255.2796,368.3751 254.3908,369.0343 253.4416,369.6032 252.4412,370.0763 251.3993,370.4491 250.3259,370.718 249.2313,370.8804 248.126,370.9347 247.0207,370.8804 245.9261,370.718 244.8526,370.4491 243.8107,370.0763 242.8104,369.6032 241.8612,369.0343 240.9724,368.3751 240.1524,367.6319 239.4093,366.812 238.7501,365.9231 238.1812,364.974 237.708,363.9736 237.3352,362.9317 237.0663,361.8583 236.904,360.7636 236.8497,359.6584 236.904,358.5531 237.0663,357.4585 237.3352,356.385 237.708,355.3431"/>
    <polygon points="287.2155,342.8489 288.1647,343.4178 289.1651,343.891 290.207,344.2638 291.2804,344.5327 292.375,344.695 293.4803,344.7493 294.5856,344.695 295.6802,344.5327 296.7537,344.2638 297.7956,343.891 298.7959,343.4178 299.7451,342.8489 300.6339,342.1897 301.4539,341.4466 302.197,340.6266 302.8562,339.7378 303.4251,338.7886 303.8983,337.7883 304.2711,336.7464 304.54,335.6729 304.7023,334.5783 304.7566,333.473 304.7023,332.3678 304.54,331.2731 304.2711,330.1997 303.8983,329.1578 303.4251,328.1574 302.8562,327.2083 302.197,326.3194 301.4539,325.4995 300.6339,324.7563 299.7451,324.0971 298.7959,323.5282 297.7956,323.0551 296.7537,322.6823 295.6802,322.4134 294.5856,322.251 293.4803,322.1967 292.375,322.251 291.2804,322.4134 290.207,322.6823 289.1651,323.0551 288.1647,323.5282 287.2155,324.0971 286.3267,324.7563 285.5068,325.4995 284.7636,326.3194 284.1044,327.2083 283.5355,328.1574 283.0624,329.1578 282.6896,330.1997 282.4207,331.2731 282.2583,332.3678 282.204,333.473 282.2583,334.5783 282.4207,335.6729 282.6896,336.7464 283.0624,337.7883 283.5355,338.7886 284.1044,339.7378 284.7636,340.6266 285.5068,341.4466 286.3267,342.1897"/>
    <polygon points="317.1079,340.0194 317.0851,339.5557 317.017,339.0966 316.9043,338.6463 316.7479,338.2093 316.5494,337.7897 316.3108,337.3915 316.0343,337.0187 315.7225,336.6748 315.3786,336.363 315.0058,336.0865 314.6076,335.8479 314.188,335.6494 313.751,335.4931 313.3007,335.3803 312.8416,335.3122 312.378,335.2894 311.9143,335.3122 311.4552,335.3803 311.0049,335.4931 310.5679,335.6494 310.1483,335.8479 309.7501,336.0865 309.3773,336.363 309.0334,336.6748 308.7216,337.0187 308.4451,337.3915 308.2065,337.7897 308.008,338.2093 307.8517,338.6463 307.7389,339.0966 307.6708,339.5557 307.648,340.0194 307.6708,340.483 307.7389,340.9421 307.8517,341.3924 308.008,341.8294 308.2065,342.2491 308.4451,342.6472 308.7216,343.02 309.0334,343.364 309.3773,343.6757 309.7501,343.9522 310.1483,344.1908 310.5679,344.3893 311.0049,344.5457 311.4552,344.6585 311.9143,344.7266 312.378,344.7493 312.8416,344.7266 313.3007,344.6585 313.751,344.5457 314.188,344.3893 314.6076,344.1908 315.0058,343.9522 315.3786,343.6757 315.7225,343.364 316.0343,343.02 316.3108,342.6472 316.5494,342.2491 316.7479,341.8294 316.9043,341.3924 317.017,340.9421 317.0851,340.483"/>
    <polygon points="317.0851,327.3903 317.1079,326.9267 317.0851,326.4631 317.017,326.0039 316.9043,325.5537 316.7479,325.1166 316.5494,324.697 316.3108,324.2989 316.0343,323.926 315.7225,323.5821 315.3786,323.2704 315.0058,322.9939 314.6076,322.7552 314.188,322.5568 313.751,322.4004 313.3007,322.2876 312.8416,322.2195 312.378,322.1967 311.9143,322.2195 311.4552,322.2876 311.0049,322.4004 310.5679,322.5568 310.1483,322.7552 309.7501,322.9939 309.3773,323.2704 309.0334,323.5821 308.7216,323.926 308.4451,324.2989 308.2065,324.697 308.008,325.1166 307.8517,325.5537 307.7389,326.0039 307.6708,326.4631 307.648,326.9267 307.6708,327.3903 307.7389,327.8495 307.8517,328.2997 308.008,328.7368 308.2065,329.1564 308.4451,329.5545 308.7216,329.9274 309.0334,330.2713 309.3773,330.583 309.7501,330.8595 310.1483,331.0982 310.5679,331.2966 311.0049,331.453 311.4552,331.5658 311.9143,331.6339 312.378,331.6567 312.8416,331.6339 313.3007,331.5658 313.751,331.453 314.188,331.2966 314.6076,331.0982 315.0058,330.8595 315.3786,330.583 315.7225,330.2713 316.0343,329.9274 316.3108,329.5545 316.5494,329.1564 316.7479,328.7368 316.9043,328.2997 317.017,327.8495"/>
    <polygon points="309.3773,291.305 309.7501,291.5815 310.1483,291.8202 310.5679,292.0186 311.0049,292.175 311.4552,292.2878 311.9143,292.3559 312.378,292.3787 312.8416,292.3559 313.3007,292.2878 313.751,292.175 314.188,292.0186 314.6076,291.8202 315.0058,291.5815 315.3786,291.305 315.7225,290.9933 316.0343,290.6494 316.3108,290.2765 316.5494,289.8784 316.7479,289.4588 316.9043,289.0217 317.017,288.5715 317.0851,288.1123 317.1079,287.6487 317.0851,287.1851 317.017,286.7259 316.9043,286.2757 316.7479,285.8386 316.5494,285.419 316.3108,285.0209 316.0343,284.648 315.7225,284.3041 315.3786,283.9924 315.0058,283.7159 314.6076,283.4772 314.188,283.2788 313.751,283.1224 313.3007,283.0096 312.8416,282.9415 312.378,282.9187 311.9143,282.9415 311.4552,283.0096 311.0049,283.1224 310.5679,283.2788 310.1483,283.4772 309.7501,283.7159 309.3773,283.9924 309.0334,284.3041 308.7216,284.648 308.4451,285.0209 308.2065,285.419 308.008,285.8386 307.8517,286.2757 307.7389,286.7259 307.6708,287.1851 307.648,287.6487 307.6708,288.1123 307.7389,288.5715 307.8517,289.0217 308.008,289.4588 308.2065,289.8784 308.4451,290.2765 308.7216,290.6494 309.0334,290.9933"/>
    <polygon points="335.5187,279.2632 335.0551,279.286 334.5915,279.2632 334.1323,279.1951 333.6821,279.0823 333.245,278.926 332.8254,278.7275 332.4273,278.4889 332.0545,278.2123 331.7105,277.9006 331.3988,277.5567 331.1223,277.1839 330.8837,276.7857 330.6852,276.3661 330.5288,275.9291 330.416,275.4788 330.3479,275.0196 330.3251,274.556 330.3479,274.0924 330.416,273.6333 330.5288,273.183 330.6852,272.7459 330.8837,272.3263 331.1223,271.9282 331.3988,271.5554 331.7105,271.2114 332.0545,270.8997 332.4273,270.6232 332.8254,270.3846 333.245,270.1861 333.6821,270.0297 334.1323,269.9169 334.5915,269.8488 335.0551,269.8261 335.5187,269.8488 335.9779,269.9169 336.4282,270.0297 336.8652,270.1861 337.2848,270.3846 337.683,270.6232 338.0558,270.8997 338.3997,271.2114 338.7114,271.5554 338.9879,271.9282 339.2266,272.3263 339.425,272.7459 339.5814,273.183 339.6942,273.6333 339.7623,274.0924 339.7851,274.556 339.7623,275.0196 339.6942,275.4788 339.5814,275.9291 339.425,276.3661 339.2266,276.7857 338.9879,277.1839 338.7114,277.5567 338.3997,277.9006 338.0558,278.2123 337.683,278.4889 337.2848,278.7275 336.8652,278.926 336.4282,279.0823 335.9779,279.1951"/>
    <polygon points="331.1223,264.0912 330.8837,263.6931 330.6852,263.2734 330.5288,262.8364 330.416,262.3861 330.3479,261.927 330.3251,261.4634 330.3479,260.9997 330.416,260.5406 330.5288,260.0903 330.6852,259.6533 330.8837,259.2337 331.1223,258.8355 331.3988,258.4627 331.7105,258.1188 332.0545,257.807 332.4273,257.5305 332.8254,257.2919 333.245,257.0934 333.6821,256.9371 334.1323,256.8243 334.5915,256.7562 335.0551,256.7334 335.5187,256.7562 335.9779,256.8243 336.4282,256.9371 336.8652,257.0934 337.2848,257.2919 337.683,257.5305 338.0558,257.807 338.3997,258.1188 338.7114,258.4627 338.9879,258.8355 339.2266,259.2337 339.425,259.6533 339.5814,260.0903 339.6942,260.5406 339.7623,260.9997 339.7851,261.4634 339.7623,261.927 339.6942,262.3861 339.5814,262.8364 339.425,263.2734 339.2266,263.6931 338.9879,264.0912 338.7114,264.464 338.3997,264.808 338.0558,265.1197 337.683,265.3962 337.2848,265.6348 336.8652,265.8333 336.4282,265.9897 335.9779,266.1024 335.5187,266.1706 335.0551,266.1933 334.5915,266.1706 334.1323,266.1024 333.6821,265.9897 333.245,265.8333 332.8254,265.6348 332.4273,265.3962 332.0545,265.1197 331.7105,264.808 331.3988,264.464"/>
    <polygon points="310.8419,277.9545 309.8927,277.3856 309.0039,276.7264 308.1839,275.9832 307.4408,275.1633 306.7816,274.2745 306.2127,273.3253 305.7395,272.325 305.3667,271.283 305.0978,270.2096 304.9355,269.115 304.8812,268.0097 304.9355,266.9044 305.0978,265.8098 305.3667,264.7364 305.7395,263.6944 306.2127,262.6941 306.7816,261.7449 307.4408,260.8561 308.1839,260.0361 309.0039,259.293 309.8927,258.6338 310.8419,258.0649 311.8422,257.5917 312.8841,257.2189 313.9576,256.9501 315.0522,256.7877 316.1575,256.7334 317.2628,256.7877 318.3574,256.9501 319.4308,257.2189 320.4727,257.5917 321.4731,258.0649 322.4223,258.6338 323.3111,259.293 324.131,260.0361 324.8742,260.8561 325.5334,261.7449 326.1023,262.6941 326.5754,263.6944 326.9482,264.7364 327.2171,265.8098 327.3795,266.9044 327.4338,268.0097 327.3795,269.115 327.2171,270.2096 326.9482,271.283 326.5754,272.325 326.1023,273.3253 325.5334,274.2745 324.8742,275.1633 324.131,275.9832 323.3111,276.7264 322.4223,277.3856 321.4731,277.9545 320.4727,278.4276 319.4308,278.8004 318.3574,279.0693 317.2628,279.2317 316.1575,279.286 315.0522,279.2317 313.9576,279.0693 312.8841,278.8004 311.8422,278.4276"/>
    <polygon points="286.3267,272.3857 285.5068,273.1288 284.7636,273.9487 284.1044,274.8376 283.5355,275.7867 283.0624,276.7871 282.6896,277.829 282.4207,278.9025 282.2583,279.9971 282.204,281.1024 282.2583,282.2076 282.4207,283.3023 282.6896,284.3757 283.0624,285.4176 283.5355,286.418 284.1044,287.3671 284.7636,288.256 285.5068,289.0759 286.3267,289.8191 287.2155,290.4783 288.1647,291.0472 289.1651,291.5203 290.207,291.8931 291.2804,292.162 292.375,292.3244 293.4803,292.3787 294.5856,292.3244 295.6802,292.162 296.7537,291.8931 297.7956,291.5203 298.7959,291.0472 299.7451,290.4783 300.6339,289.8191 301.4539,289.0759 302.197,288.256 302.8562,287.3671 303.4251,286.418 303.8983,285.4176 304.2711,284.3757 304.54,283.3023 304.7023,282.2076 304.7566,281.1024 304.7023,279.9971 304.54,278.9025 304.2711,277.829 303.8983,276.7871 303.4251,275.7867 302.8562,274.8376 302.197,273.9487 301.4539,273.1288 300.6339,272.3857 299.7451,271.7265 298.7959,271.1575 297.7956,270.6844 296.7537,270.3116 295.6802,270.0427 294.5856,269.8804 293.4803,269.8261 292.375,269.8804 291.2804,270.0427 290.207,270.3116 289.1651,270.6844 288.1647,271.1575 287.2155,271.7265"/>
    <polygon points="282.6896,304.0144 282.4207,305.0878 282.2583,306.1824 282.204,307.2877 282.2583,308.393 282.4207,309.4876 282.6896,310.561 283.0624,311.603 283.5355,312.6033 284.1044,313.5525 284.7636,314.4413 285.5068,315.2612 286.3267,316.0044 287.2155,316.6636 288.1647,317.2325 289.1651,317.7056 290.207,318.0784 291.2804,318.3473 292.375,318.5097 293.4803,318.564 294.5856,318.5097 295.6802,318.3473 296.7537,318.0784 297.7956,317.7056 298.7959,317.2325 299.7451,316.6636 300.6339,316.0044 301.4539,315.2612 302.197,314.4413 302.8562,313.5525 303.4251,312.6033 303.8983,311.603 304.2711,310.561 304.54,309.4876 304.7023,308.393 304.7566,307.2877 304.7023,306.1824 304.54,305.0878 304.2711,304.0144 303.8983,302.9724 303.4251,301.9721 302.8562,301.0229 302.197,300.1341 301.4539,299.3141 300.6339,298.571 299.7451,297.9118 298.7959,297.3429 297.7956,296.8697 296.7537,296.4969 295.6802,296.2281 294.5856,296.0657 293.4803,296.0114 292.375,296.0657 291.2804,296.2281 290.207,296.4969 289.1651,296.8697 288.1647,297.3429 287.2155,297.9118 286.3267,298.571 285.5068,299.3141 284.7636,300.1341 284.1044,301.0229 283.5355,301.9721 283.0624,302.9724"/>
    <polygon points="267.1725,298.8888 265.0106,297.8664 262.759,297.0607 260.4392,296.4796 258.0736,296.1287 255.685,296.0114 253.2965,296.1287 250.9309,296.4796 248.6111,297.0607 246.3594,297.8664 244.1976,298.8888 242.1464,300.1183 240.2255,301.5429 238.4536,303.1489 236.8476,304.9209 235.423,306.8417 234.1935,308.8929 233.171,311.0548 232.3654,313.3064 231.7843,315.6262 231.4334,317.9918 231.3161,320.3804 231.4334,322.7689 231.7843,325.1345 232.3654,327.4543 233.171,329.706 234.1935,331.8678 235.423,333.919 236.8476,335.8399 238.4536,337.6118 240.2255,339.2178 242.1464,340.6424 244.1976,341.8719 246.3594,342.8944 248.6111,343.7 250.9309,344.2811 253.2965,344.632 255.685,344.7493 258.0736,344.632 260.4392,344.2811 262.759,343.7 265.0106,342.8944 267.1725,341.8719 269.2237,340.6424 271.1446,339.2178 272.9165,337.6118 274.5225,335.8399 275.9471,333.919 277.1766,331.8678 278.199,329.706 279.0047,327.4543 279.5858,325.1345 279.9367,322.7689 280.054,320.3804 279.9367,317.9918 279.5858,315.6262 279.0047,313.3064 278.199,311.0548 277.1766,308.8929 275.9471,306.8417 274.5225,304.9209 272.9165,303.1489 271.1446,301.5429 269.2237,300.1183"/>
    <polygon points="242.1464,288.2718 244.1976,289.5012 246.3594,290.5237 248.6111,291.3293 250.9309,291.9104 253.2965,292.2613 255.685,292.3787 258.0736,292.2613 260.4392,291.9104 262.759,291.3293 265.0106,290.5237 267.1725,289.5012 269.2237,288.2718 271.1446,286.8472 272.9165,285.2412 274.5225,283.4692 275.9471,281.5484 277.1766,279.4971 278.199,277.3353 279.0047,275.0836 279.5858,272.7638 279.9367,270.3983 280.054,268.0097 279.9367,265.6211 279.5858,263.2555 279.0047,260.9358 278.199,258.6841 277.1766,256.5222 275.9471,254.471 274.5225,252.5502 272.9165,250.7782 271.1446,249.1722 269.2237,247.7476 267.1725,246.5182 265.0106,245.4957 262.759,244.69 260.4392,244.109 258.0736,243.7581 255.685,243.6407 253.2965,243.7581 250.9309,244.109 248.6111,244.69 246.3594,245.4957 244.1976,246.5182 242.1464,247.7476 240.2255,249.1722 238.4536,250.7782 236.8476,252.5502 235.423,254.471 234.1935,256.5222 233.171,258.6841 232.3654,260.9358 231.7843,263.2555 231.4334,265.6211 231.3161,268.0097 231.4334,270.3983 231.7843,272.7638 232.3654,275.0836 233.171,277.3353 234.1935,279.4971 235.423,281.5484 236.8476,283.4692 238.4536,285.2412 240.2255,286.8472"/>
    <polygon points="217.4046,317.5147 219.6563,316.709 221.8182,315.6865 223.8694,314.4571 225.7902,313.0325 227.5622,311.4265 229.1682,309.6545 230.5928,307.7337 231.8222,305.6825 232.8447,303.5206 233.6504,301.269 234.2314,298.9492 234.5823,296.5836 234.6997,294.195 234.5823,291.8065 234.2314,289.4409 233.6504,287.1211 232.8447,284.8694 231.8222,282.7076 230.5928,280.6564 229.1682,278.7355 227.5622,276.9636 225.7902,275.3576 223.8694,273.933 221.8182,272.7035 219.6563,271.681 217.4046,270.8754 215.0849,270.2943 212.7193,269.9434 210.3307,269.8261 207.9421,269.9434 205.5766,270.2943 203.2568,270.8754 201.0051,271.681 198.8433,272.7035 196.792,273.933 194.8712,275.3576 193.0992,276.9636 191.4932,278.7355 190.0686,280.6564 188.8392,282.7076 187.8167,284.8694 187.0111,287.1211 186.43,289.4409 186.0791,291.8065 185.9617,294.195 186.0791,296.5836 186.43,298.9492 187.0111,301.269 187.8167,303.5206 188.8392,305.6825 190.0686,307.7337 191.4932,309.6545 193.0992,311.4265 194.8712,313.0325 196.792,314.4571 198.8433,315.6865 201.0051,316.709 203.2568,317.5147 205.5766,318.0958 207.9421,318.4467 210.3307,318.564 212.7193,318.4467 215.0849,318.0958"/>
    <polygon points="176.7786,309.1268 177.2377,309.1949 177.688,309.3077 178.125,309.4641 178.5447,309.6626 178.9428,309.9012 179.3156,310.1777 179.6596,310.4894 179.9713,310.8334 180.2478,311.2062 180.4864,311.6043 180.6849,312.0239 180.8413,312.461 180.954,312.9113 181.0222,313.3704 181.0449,313.834 181.0222,314.2976 180.954,314.7568 180.8413,315.2071 180.6849,315.6441 180.4864,316.0637 180.2478,316.4619 179.9713,316.8347 179.6596,317.1786 179.3156,317.4903 178.9428,317.7669 178.5447,318.0055 178.125,318.204 177.688,318.3603 177.2377,318.4731 176.7786,318.5412 176.315,318.564 175.8513,318.5412 175.3922,318.4731 174.9419,318.3603 174.5049,318.204 174.0853,318.0055 173.6871,317.7669 173.3143,317.4903 172.9704,317.1786 172.6586,316.8347 172.3821,316.4619 172.1435,316.0637 171.945,315.6441 171.7887,315.2071 171.6759,314.7568 171.6078,314.2976 171.585,313.834 171.6078,313.3704 171.6759,312.9113 171.7887,312.461 171.945,312.0239 172.1435,311.6043 172.3821,311.2062 172.6586,310.8334 172.9704,310.4894 173.3143,310.1777 173.6871,309.9012 174.0853,309.6626 174.5049,309.4641 174.9419,309.3077 175.3922,309.1949 175.8513,309.1268 176.315,309.1041"/>
    <polygon points="174.302,290.5237 172.0503,291.3293 169.7305,291.9104 167.365,292.2613 164.9764,292.3787 162.5878,292.2613 160.2222,291.9104 157.9024,291.3293 155.6508,290.5237 153.4889,289.5012 151.4377,288.2718 149.5169,286.8472 147.7449,285.2412 146.1389,283.4692 144.7143,281.5484 143.4849,279.4971 142.4624,277.3353 141.6567,275.0836 141.0756,272.7638 140.7247,270.3983 140.6074,268.0097 140.7247,265.6211 141.0756,263.2555 141.6567,260.9358 142.4624,258.6841 143.4849,256.5222 144.7143,254.471 146.1389,252.5502 147.7449,250.7782 149.5169,249.1722 151.4377,247.7476 153.4889,246.5182 155.6508,245.4957 157.9024,244.69 160.2222,244.109 162.5878,243.7581 164.9764,243.6407 167.365,243.7581 169.7305,244.109 172.0503,244.69 174.302,245.4957 176.4638,246.5182 178.5151,247.7476 180.4359,249.1722 182.2078,250.7782 183.8138,252.5502 185.2384,254.471 186.4679,256.5222 187.4904,258.6841 188.296,260.9358 188.8771,263.2555 189.228,265.6211 189.3454,268.0097 189.228,270.3983 188.8771,272.7638 188.296,275.0836 187.4904,277.3353 186.4679,279.4971 185.2384,281.5484 183.8138,283.4692 182.2078,285.2412 180.4359,286.8472 178.5151,288.2718 176.4638,289.5012"/>
  </g>
</svg>
