<?xml version="1.0" encoding="utf-8" ?>
<svg xmlns="http://www.w3.org/2000/svg" xmlns:cc="http://creativecommons.org/ns" xmlns:dc="http://purl.org/dc/elements/1.1/" xmlns:ev="http://www.w3.org/2001/xml-events" xmlns:inkscape="http://www.inkscape.org/namespaces/inkscape" xmlns:rdf="http://www.w3.org/1999/02/22-rdf-syntax-ns" xmlns:sodipodi="http://sodipodi.sourceforge.net/DTD/sodipodi-0.dtd" xmlns:xlink="http://www.w3.org/1999/xlink" baseProfile="tiny" height="15.875cm" version="1.2" viewBox="0 0 432.0 600.0" width="11.43cm">
  <metadata>
    <rdf:RDF>
      <cc:Work>
        <dc:format>image/svg+xml</dc:format>
        <dc:source>vsk save -s 129 -c hex-grid/config/bubble-coasters-2.json /Users/tobin/src/fabian/plotting/fabian-plotting/hex-grid/sketch_hex_grid.py</dc:source>
        <dc:date>2023-11-04T10:32:59.304968</dc:date>
      </cc:Work>
    </rdf:RDF>
  </metadata>
  <defs/>
  <g fill="none" id="layer1" inkscape:groupmode="layer" inkscape:label="1" stroke="#000000" stroke-width="0.7559" style="display:inline">
    <polygon points="251.4204,271.6903 253.6721,270.8847 255.8339,269.8622 257.8851,268.6328 259.806,267.2082 261.5779,265.6022 263.1839,263.8302 264.6085,261.9094 265.838,259.8581 266.8605,257.6963 267.6661,255.4446 268.2472,253.1248 268.5981,250.7593 268.7154,248.3707 268.5981,245.9821 268.2472,243.6165 267.6661,241.2968 266.8605,239.0451 265.838,236.8832 264.6085,234.832 263.1839,232.9112 261.5779,231.1392 259.806,229.5332 257.8851,228.1086 255.8339,226.8792 253.6721,225.8567 251.4204,225.051 249.1006,224.47 246.735,224.1191 244.3465,224.0017 241.9579,224.1191 239.5923,224.47 237.2725,225.051 235.0209,225.8567 232.859,226.8792 230.8078,228.1086 228.8869,229.5332 227.115,231.1392 225.509,232.9112 224.0844,234.832 222.8549,236.8832 221.8325,239.0451 221.0268,241.2968 220.4457,243.6165 220.0948,245.9821 219.9775,248.3707 220.0948,250.7593 220.4457,253.1248 221.0268,255.4446 221.8325,257.6963 222.8549,259.8581 224.0844,261.9094 225.509,263.8302 227.115,265.6022 228.8869,267.2082 230.8078,268.6328 232.859,269.8622 235.0209,270.8847 237.2725,271.6903 239.5923,272.2714 241.9579,272.6223 244.3465,272.7397 246.735,272.6223 249.1006,272.2714"/>
    <polygon points="273.8359,282.4754 273.9923,282.9124 274.1907,283.3321 274.4294,283.7302 274.7059,284.103 275.0176,284.447 275.3615,284.7587 275.7344,285.0352 276.1325,285.2738 276.5521,285.4723 276.9892,285.6287 277.4394,285.7414 277.8986,285.8096 278.3622,285.8323 278.8258,285.8096 279.285,285.7414 279.7352,285.6287 280.1723,285.4723 280.5919,285.2738 280.99,285.0352 281.3629,284.7587 281.7068,284.447 282.0185,284.103 282.295,283.7302 282.5337,283.3321 282.7321,282.9124 282.8885,282.4754 283.0013,282.0251 283.0694,281.566 283.0922,281.1024 283.0694,280.6387 283.0013,280.1796 282.8885,279.7293 282.7321,279.2923 282.5337,278.8727 282.295,278.4745 282.0185,278.1017 281.7068,277.7578 281.3629,277.446 280.99,277.1695 280.5919,276.9309 280.1723,276.7324 279.7352,276.5761 279.285,276.4633 278.8258,276.3952 278.3622,276.3724 277.8986,276.3952 277.4394,276.4633 276.9892,276.5761 276.5521,276.7324 276.1325,276.9309 275.7344,277.1695 275.3615,277.446 275.0176,277.7578 274.7059,278.1017 274.4294,278.4745 274.1907,278.8727 273.9923,279.2923 273.8359,279.7293 273.7231,280.1796 273.655,280.6387 273.6322,281.1024 273.655,281.566 273.7231,282.0251"/>
    <polygon points="285.4151,272.2541 286.457,271.8813 287.4573,271.4082 288.4065,270.8393 289.2953,270.1801 290.1153,269.4369 290.8584,268.617 291.5176,267.7281 292.0865,266.779 292.5597,265.7786 292.9325,264.7367 293.2014,263.6633 293.3637,262.5686 293.418,261.4634 293.3637,260.3581 293.2014,259.2635 292.9325,258.19 292.5597,257.1481 292.0865,256.1477 291.5176,255.1986 290.8584,254.3097 290.1153,253.4898 289.2953,252.7467 288.4065,252.0875 287.4573,251.5185 286.457,251.0454 285.4151,250.6726 284.3416,250.4037 283.247,250.2414 282.1417,250.1871 281.0365,250.2414 279.9418,250.4037 278.8684,250.6726 277.8265,251.0454 276.8261,251.5185 275.877,252.0875 274.9881,252.7467 274.1682,253.4898 273.425,254.3097 272.7658,255.1986 272.1969,256.1477 271.7238,257.1481 271.351,258.19 271.0821,259.2635 270.9197,260.3581 270.8654,261.4634 270.9197,262.5686 271.0821,263.6633 271.351,264.7367 271.7238,265.7786 272.1969,266.779 272.7658,267.7281 273.425,268.617 274.1682,269.4369 274.9881,270.1801 275.877,270.8393 276.8261,271.4082 277.8265,271.8813 278.8684,272.2541 279.9418,272.523 281.0365,272.6854 282.1417,272.7397 283.247,272.6854 284.3416,272.523"/>
    <polygon points="301.9621,272.6488 302.4124,272.536 302.8495,272.3796 303.2691,272.1812 303.6672,271.9425 304.04,271.666 304.384,271.3543 304.6957,271.0104 304.9722,270.6375 305.2108,270.2394 305.4093,269.8198 305.5657,269.3827 305.6785,268.9325 305.7466,268.4733 305.7693,268.0097 305.7466,267.5461 305.6785,267.0869 305.5657,266.6367 305.4093,266.1996 305.2108,265.78 304.9722,265.3819 304.6957,265.009 304.384,264.6651 304.04,264.3534 303.6672,264.0769 303.2691,263.8382 302.8495,263.6398 302.4124,263.4834 301.9621,263.3706 301.503,263.3025 301.0394,263.2797 300.5758,263.3025 300.1166,263.3706 299.6663,263.4834 299.2293,263.6398 298.8097,263.8382 298.4115,264.0769 298.0387,264.3534 297.6948,264.6651 297.3831,265.009 297.1065,265.3819 296.8679,265.78 296.6694,266.1996 296.5131,266.6367 296.4003,267.0869 296.3322,267.5461 296.3094,268.0097 296.3322,268.4733 296.4003,268.9325 296.5131,269.3827 296.6694,269.8198 296.8679,270.2394 297.1065,270.6375 297.3831,271.0104 297.6948,271.3543 298.0387,271.666 298.4115,271.9425 298.8097,272.1812 299.2293,272.3796 299.6663,272.536 300.1166,272.6488 300.5758,272.7169 301.0394,272.7397 301.503,272.7169"/>
    <polygon points="316.9043,260.0903 316.7479,259.6533 316.5494,259.2337 316.3108,258.8355 316.0343,258.4627 315.7225,258.1188 315.3786,257.807 315.0058,257.5305 314.6076,257.2919 314.188,257.0934 313.751,256.9371 313.3007,256.8243 312.8416,256.7562 312.378,256.7334 311.9143,256.7562 311.4552,256.8243 311.0049,256.9371 310.5679,257.0934 310.1483,257.2919 309.7501,257.5305 309.3773,257.807 309.0334,258.1188 308.7216,258.4627 308.4451,258.8355 308.2065,259.2337 308.008,259.6533 307.8517,260.0903 307.7389,260.5406 307.6708,260.9997 307.648,261.4634 307.6708,261.927 307.7389,262.3861 307.8517,262.8364 308.008,263.2734 308.2065,263.6931 308.4451,264.0912 308.7216,264.464 309.0334,264.808 309.3773,265.1197 309.7501,265.3962 310.1483,265.6348 310.5679,265.8333 311.0049,265.9897 311.4552,266.1024 311.9143,266.1706 312.378,266.1933 312.8416,266.1706 313.3007,266.1024 313.751,265.9897 314.188,265.8333 314.6076,265.6348 315.0058,265.3962 315.3786,265.1197 315.7225,264.808 316.0343,264.464 316.3108,264.0912 316.5494,263.6931 316.7479,263.2734 316.9043,262.8364 317.017,262.3861 317.0851,261.927 317.1079,261.4634 317.0851,260.9997 317.017,260.5406"/>
    <polygon points="316.5494,250.6004 316.7479,250.1808 316.9043,249.7437 317.017,249.2935 317.0851,248.8343 317.1079,248.3707 317.0851,247.9071 317.017,247.4479 316.9043,246.9977 316.7479,246.5606 316.5494,246.141 316.3108,245.7429 316.0343,245.37 315.7225,245.0261 315.3786,244.7144 315.0058,244.4379 314.6076,244.1992 314.188,244.0008 313.751,243.8444 313.3007,243.7316 312.8416,243.6635 312.378,243.6407 311.9143,243.6635 311.4552,243.7316 311.0049,243.8444 310.5679,244.0008 310.1483,244.1992 309.7501,244.4379 309.3773,244.7144 309.0334,245.0261 308.7216,245.37 308.4451,245.7429 308.2065,246.141 308.008,246.5606 307.8517,246.9977 307.7389,247.4479 307.6708,247.9071 307.648,248.3707 307.6708,248.8343 307.7389,249.2935 307.8517,249.7437 308.008,250.1808 308.2065,250.6004 308.4451,250.9985 308.7216,251.3714 309.0334,251.7153 309.3773,252.027 309.7501,252.3035 310.1483,252.5422 310.5679,252.7406 311.0049,252.897 311.4552,253.0098 311.9143,253.0779 312.378,253.1007 312.8416,253.0779 313.3007,253.0098 313.751,252.897 314.188,252.7406 314.6076,252.5422 315.0058,252.3035 315.3786,252.027 315.7225,251.7153 316.0343,251.3714 316.3108,250.9985"/>
    <polygon points="324.1802,237.1172 324.6393,237.1853 325.0896,237.2981 325.5266,237.4544 325.9462,237.6529 326.3444,237.8915 326.7172,238.168 327.0611,238.4798 327.3729,238.8237 327.6494,239.1965 327.888,239.5947 328.0865,240.0143 328.2428,240.4513 328.3556,240.9016 328.4237,241.3607 328.4465,241.8244 328.4237,242.288 328.3556,242.7471 328.2428,243.1974 328.0865,243.6344 327.888,244.0541 327.6494,244.4522 327.3729,244.825 327.0611,245.169 326.7172,245.4807 326.3444,245.7572 325.9462,245.9958 325.5266,246.1943 325.0896,246.3507 324.6393,246.4634 324.1802,246.5316 323.7165,246.5543 323.2529,246.5316 322.7938,246.4634 322.3435,246.3507 321.9065,246.1943 321.4868,245.9958 321.0887,245.7572 320.7159,245.4807 320.3719,245.169 320.0602,244.825 319.7837,244.4522 319.5451,244.0541 319.3466,243.6344 319.1902,243.1974 319.0774,242.7471 319.0093,242.288 318.9866,241.8244 319.0093,241.3607 319.0774,240.9016 319.1902,240.4513 319.3466,240.0143 319.5451,239.5947 319.7837,239.1965 320.0602,238.8237 320.3719,238.4798 320.7159,238.168 321.0887,237.8915 321.4868,237.6529 321.9065,237.4544 322.3435,237.2981 322.7938,237.1853 323.2529,237.1172 323.7165,237.0944"/>
    <polygon points="305.7466,241.3607 305.7693,241.8244 305.7466,242.288 305.6785,242.7471 305.5657,243.1974 305.4093,243.6344 305.2108,244.0541 304.9722,244.4522 304.6957,244.825 304.384,245.169 304.04,245.4807 303.6672,245.7572 303.2691,245.9958 302.8495,246.1943 302.4124,246.3507 301.9621,246.4634 301.503,246.5316 301.0394,246.5543 300.5758,246.5316 300.1166,246.4634 299.6663,246.3507 299.2293,246.1943 298.8097,245.9958 298.4115,245.7572 298.0387,245.4807 297.6948,245.169 297.3831,244.825 297.1065,244.4522 296.8679,244.0541 296.6694,243.6344 296.5131,243.1974 296.4003,242.7471 296.3322,242.288 296.3094,241.8244 296.3322,241.3607 296.4003,240.9016 296.5131,240.4513 296.6694,240.0143 296.8679,239.5947 297.1065,239.1965 297.3831,238.8237 297.6948,238.4798 298.0387,238.168 298.4115,237.8915 298.8097,237.6529 299.2293,237.4544 299.6663,237.2981 300.1166,237.1853 300.5758,237.1172 301.0394,237.0944 301.503,237.1172 301.9621,237.1853 302.4124,237.2981 302.8495,237.4544 303.2691,237.6529 303.6672,237.8915 304.04,238.168 304.384,238.4798 304.6957,238.8237 304.9722,239.1965 305.2108,239.5947 305.4093,240.0143 305.5657,240.4513 305.6785,240.9016"/>
    <polygon points="277.8265,224.8601 276.8261,225.3332 275.877,225.9021 274.9881,226.5613 274.1682,227.3045 273.425,228.1244 272.7658,229.0132 272.1969,229.9624 271.7238,230.9628 271.351,232.0047 271.0821,233.0781 270.9197,234.1728 270.8654,235.278 270.9197,236.3833 271.0821,237.4779 271.351,238.5514 271.7238,239.5933 272.1969,240.5936 272.7658,241.5428 273.425,242.4316 274.1682,243.2516 274.9881,243.9947 275.877,244.6539 276.8261,245.2228 277.8265,245.696 278.8684,246.0688 279.9418,246.3377 281.0365,246.5 282.1417,246.5543 283.247,246.5 284.3416,246.3377 285.4151,246.0688 286.457,245.696 287.4573,245.2228 288.4065,244.6539 289.2953,243.9947 290.1153,243.2516 290.8584,242.4316 291.5176,241.5428 292.0865,240.5936 292.5597,239.5933 292.9325,238.5514 293.2014,237.4779 293.3637,236.3833 293.418,235.278 293.3637,234.1728 293.2014,233.0781 292.9325,232.0047 292.5597,230.9628 292.0865,229.9624 291.5176,229.0132 290.8584,228.1244 290.1153,227.3045 289.2953,226.5613 288.4065,225.9021 287.4573,225.3332 286.457,224.8601 285.4151,224.4873 284.3416,224.2184 283.247,224.056 282.1417,224.0017 281.0365,224.056 279.9418,224.2184 278.8684,224.4873"/>
    <polygon points="278.3622,220.369 278.8258,220.3462 279.285,220.2781 279.7352,220.1653 280.1723,220.0089 280.5919,219.8105 280.99,219.5719 281.3629,219.2953 281.7068,218.9836 282.0185,218.6397 282.295,218.2669 282.5337,217.8687 282.7321,217.4491 282.8885,217.0121 283.0013,216.5618 283.0694,216.1026 283.0922,215.639 283.0694,215.1754 283.0013,214.7163 282.8885,214.266 282.7321,213.8289 282.5337,213.4093 282.295,213.0112 282.0185,212.6384 281.7068,212.2944 281.3629,211.9827 280.99,211.7062 280.5919,211.4676 280.1723,211.2691 279.7352,211.1127 279.285,210.9999 278.8258,210.9318 278.3622,210.9091 277.8986,210.9318 277.4394,210.9999 276.9892,211.1127 276.5521,211.2691 276.1325,211.4676 275.7344,211.7062 275.3615,211.9827 275.0176,212.2944 274.7059,212.6384 274.4294,213.0112 274.1907,213.4093 273.9923,213.8289 273.8359,214.266 273.7231,214.7163 273.655,215.1754 273.6322,215.639 273.655,216.1026 273.7231,216.5618 273.8359,217.0121 273.9923,217.4491 274.1907,217.8687 274.4294,218.2669 274.7059,218.6397 275.0176,218.9836 275.3615,219.2953 275.7344,219.5719 276.1325,219.8105 276.5521,220.0089 276.9892,220.1653 277.4394,220.2781 277.8986,220.3462"/>
    <polygon points="284.9708,209.0927 284.9936,209.5563 285.0617,210.0155 285.1745,210.4657 285.3309,210.9028 285.5293,211.3224 285.768,211.7205 286.0445,212.0934 286.3562,212.4373 286.7001,212.749 287.073,213.0255 287.4711,213.2642 287.8907,213.4626 288.3277,213.619 288.778,213.7318 289.2372,213.7999 289.7008,213.8227 290.1644,213.7999 290.6236,213.7318 291.0738,213.619 291.5109,213.4626 291.9305,213.2642 292.3286,213.0255 292.7015,212.749 293.0454,212.4373 293.3571,212.0934 293.6336,211.7205 293.8723,211.3224 294.0707,210.9028 294.2271,210.4657 294.3399,210.0155 294.408,209.5563 294.4308,209.0927 294.408,208.6291 294.3399,208.1699 294.2271,207.7197 294.0707,207.2826 293.8723,206.863 293.6336,206.4649 293.3571,206.092 293.0454,205.7481 292.7015,205.4364 292.3286,205.1599 291.9305,204.9212 291.5109,204.7228 291.0738,204.5664 290.6236,204.4536 290.1644,204.3855 289.7008,204.3627 289.2372,204.3855 288.778,204.4536 288.3277,204.5664 287.8907,204.7228 287.4711,204.9212 287.073,205.1599 286.7001,205.4364 286.3562,205.7481 286.0445,206.092 285.768,206.4649 285.5293,206.863 285.3309,207.2826 285.1745,207.7197 285.0617,208.1699 284.9936,208.6291"/>
    <polygon points="283.0013,203.4691 283.0694,203.01 283.0922,202.5464 283.0694,202.0827 283.0013,201.6236 282.8885,201.1733 282.7321,200.7363 282.5337,200.3167 282.295,199.9185 282.0185,199.5457 281.7068,199.2018 281.3629,198.89 280.99,198.6135 280.5919,198.3749 280.1723,198.1764 279.7352,198.0201 279.285,197.9073 278.8258,197.8392 278.3622,197.8164 277.8986,197.8392 277.4394,197.9073 276.9892,198.0201 276.5521,198.1764 276.1325,198.3749 275.7344,198.6135 275.3615,198.89 275.0176,199.2018 274.7059,199.5457 274.4294,199.9185 274.1907,200.3167 273.9923,200.7363 273.8359,201.1733 273.7231,201.6236 273.655,202.0827 273.6322,202.5464 273.655,203.01 273.7231,203.4691 273.8359,203.9194 273.9923,204.3564 274.1907,204.7761 274.4294,205.1742 274.7059,205.547 275.0176,205.891 275.3615,206.2027 275.7344,206.4792 276.1325,206.7178 276.5521,206.9163 276.9892,207.0727 277.4394,207.1854 277.8986,207.2536 278.3622,207.2763 278.8258,207.2536 279.285,207.1854 279.7352,207.0727 280.1723,206.9163 280.5919,206.7178 280.99,206.4792 281.3629,206.2027 281.7068,205.891 282.0185,205.547 282.295,205.1742 282.5337,204.7761 282.7321,204.3564 282.8885,203.9194"/>
    <polygon points="275.3615,193.11 275.7344,193.3865 276.1325,193.6252 276.5521,193.8236 276.9892,193.98 277.4394,194.0928 277.8986,194.1609 278.3622,194.1837 278.8258,194.1609 279.285,194.0928 279.7352,193.98 280.1723,193.8236 280.5919,193.6252 280.99,193.3865 281.3629,193.11 281.7068,192.7983 282.0185,192.4544 282.295,192.0815 282.5337,191.6834 282.7321,191.2638 282.8885,190.8267 283.0013,190.3765 283.0694,189.9173 283.0922,189.4537 283.0694,188.9901 283.0013,188.5309 282.8885,188.0807 282.7321,187.6436 282.5337,187.224 282.295,186.8259 282.0185,186.453 281.7068,186.1091 281.3629,185.7974 280.99,185.5209 280.5919,185.2822 280.1723,185.0838 279.7352,184.9274 279.285,184.8146 278.8258,184.7465 278.3622,184.7237 277.8986,184.7465 277.4394,184.8146 276.9892,184.9274 276.5521,185.0838 276.1325,185.2822 275.7344,185.5209 275.3615,185.7974 275.0176,186.1091 274.7059,186.453 274.4294,186.8259 274.1907,187.224 273.9923,187.6436 273.8359,188.0807 273.7231,188.5309 273.655,188.9901 273.6322,189.4537 273.655,189.9173 273.7231,190.3765 273.8359,190.8267 273.9923,191.2638 274.1907,191.6834 274.4294,192.0815 274.7059,192.4544 275.0176,192.7983"/>
    <polygon points="266.56,213.7999 267.0236,213.8227 267.4872,213.7999 267.9464,213.7318 268.3967,213.619 268.8337,213.4626 269.2533,213.2642 269.6515,213.0255 270.0243,212.749 270.3682,212.4373 270.6799,212.0934 270.9565,211.7205 271.1951,211.3224 271.3935,210.9028 271.5499,210.4657 271.6627,210.0155 271.7308,209.5563 271.7536,209.0927 271.7308,208.6291 271.6627,208.1699 271.5499,207.7197 271.3935,207.2826 271.1951,206.863 270.9565,206.4649 270.6799,206.092 270.3682,205.7481 270.0243,205.4364 269.6515,205.1599 269.2533,204.9212 268.8337,204.7228 268.3967,204.5664 267.9464,204.4536 267.4872,204.3855 267.0236,204.3627 266.56,204.3855 266.1009,204.4536 265.6506,204.5664 265.2135,204.7228 264.7939,204.9212 264.3958,205.1599 264.023,205.4364 263.679,205.7481 263.3673,206.092 263.0908,206.4649 262.8522,206.863 262.6537,207.2826 262.4973,207.7197 262.3845,208.1699 262.3164,208.6291 262.2936,209.0927 262.3164,209.5563 262.3845,210.0155 262.4973,210.4657 262.6537,210.9028 262.8522,211.3224 263.0908,211.7205 263.3673,212.0934 263.679,212.4373 264.023,212.749 264.3958,213.0255 264.7939,213.2642 265.2135,213.4626 265.6506,213.619 266.1009,213.7318"/>
    <polygon points="244.761,217.0662 245.5041,216.2463 246.1633,215.3575 246.7322,214.4083 247.2054,213.4079 247.5782,212.366 247.847,211.2926 248.0094,210.198 248.0637,209.0927 248.0094,207.9874 247.847,206.8928 247.5782,205.8194 247.2054,204.7774 246.7322,203.7771 246.1633,202.8279 245.5041,201.9391 244.761,201.1191 243.941,200.376 243.0522,199.7168 242.103,199.1479 241.1027,198.6747 240.0607,198.3019 238.9873,198.0331 237.8927,197.8707 236.7874,197.8164 235.6821,197.8707 234.5875,198.0331 233.5141,198.3019 232.4721,198.6747 231.4718,199.1479 230.5226,199.7168 229.6338,200.376 228.8138,201.1191 228.0707,201.9391 227.4115,202.8279 226.8426,203.7771 226.3695,204.7774 225.9966,205.8194 225.7278,206.8928 225.5654,207.9874 225.5111,209.0927 225.5654,210.198 225.7278,211.2926 225.9966,212.366 226.3695,213.4079 226.8426,214.4083 227.4115,215.3575 228.0707,216.2463 228.8138,217.0662 229.6338,217.8094 230.5226,218.4686 231.4718,219.0375 232.4721,219.5106 233.5141,219.8834 234.5875,220.1523 235.6821,220.3147 236.7874,220.369 237.8927,220.3147 238.9873,220.1523 240.0607,219.8834 241.1027,219.5106 242.103,219.0375 243.0522,218.4686 243.941,217.8094"/>
    <polygon points="236.0085,172.7047 236.3525,173.0164 236.6642,173.3604 236.9407,173.7332 237.1793,174.1313 237.3778,174.5509 237.5342,174.988 237.647,175.4383 237.7151,175.8974 237.7378,176.361 237.7151,176.8246 237.647,177.2838 237.5342,177.7341 237.3778,178.1711 237.1793,178.5907 236.9407,178.9889 236.6642,179.3617 236.3525,179.7056 236.0085,180.0173 235.6357,180.2939 235.2376,180.5325 234.818,180.7309 234.3809,180.8873 233.9306,181.0001 233.4715,181.0682 233.0079,181.091 232.5443,181.0682 232.0851,181.0001 231.6348,180.8873 231.1978,180.7309 230.7782,180.5325 230.38,180.2939 230.0072,180.0173 229.6633,179.7056 229.3516,179.3617 229.075,178.9889 228.8364,178.5907 228.6379,178.1711 228.4816,177.7341 228.3688,177.2838 228.3007,176.8246 228.2779,176.361 228.3007,175.8974 228.3688,175.4383 228.4816,174.988 228.6379,174.5509 228.8364,174.1313 229.075,173.7332 229.3516,173.3604 229.6633,173.0164 230.0072,172.7047 230.38,172.4282 230.7782,172.1896 231.1978,171.9911 231.6348,171.8347 232.0851,171.7219 232.5443,171.6538 233.0079,171.631 233.4715,171.6538 233.9306,171.7219 234.3809,171.8347 234.818,171.9911 235.2376,172.1896 235.6357,172.4282"/>
    <polygon points="228.6379,187.6436 228.8364,187.224 229.075,186.8259 229.3516,186.453 229.6633,186.1091 230.0072,185.7974 230.38,185.5209 230.7782,185.2822 231.1978,185.0838 231.6348,184.9274 232.0851,184.8146 232.5443,184.7465 233.0079,184.7237 233.4715,184.7465 233.9306,184.8146 234.3809,184.9274 234.818,185.0838 235.2376,185.2822 235.6357,185.5209 236.0085,185.7974 236.3525,186.1091 236.6642,186.453 236.9407,186.8259 237.1793,187.224 237.3778,187.6436 237.5342,188.0807 237.647,188.5309 237.7151,188.9901 237.7378,189.4537 237.7151,189.9173 237.647,190.3765 237.5342,190.8267 237.3778,191.2638 237.1793,191.6834 236.9407,192.0815 236.6642,192.4544 236.3525,192.7983 236.0085,193.11 235.6357,193.3865 235.2376,193.6252 234.818,193.8236 234.3809,193.98 233.9306,194.0928 233.4715,194.1609 233.0079,194.1837 232.5443,194.1609 232.0851,194.0928 231.6348,193.98 231.1978,193.8236 230.7782,193.6252 230.38,193.3865 230.0072,193.11 229.6633,192.7983 229.3516,192.4544 229.075,192.0815 228.8364,191.6834 228.6379,191.2638 228.4816,190.8267 228.3688,190.3765 228.3007,189.9173 228.2779,189.4537 228.3007,188.9901 228.3688,188.5309 228.4816,188.0807"/>
    <polygon points="203.1636,206.863 202.925,206.4649 202.6484,206.092 202.3367,205.7481 201.9928,205.4364 201.62,205.1599 201.2218,204.9212 200.8022,204.7228 200.3652,204.5664 199.9149,204.4536 199.4557,204.3855 198.9921,204.3627 198.5285,204.3855 198.0694,204.4536 197.6191,204.5664 197.182,204.7228 196.7624,204.9212 196.3643,205.1599 195.9915,205.4364 195.6475,205.7481 195.3358,206.092 195.0593,206.4649 194.8207,206.863 194.6222,207.2826 194.4658,207.7197 194.353,208.1699 194.2849,208.6291 194.2622,209.0927 194.2849,209.5563 194.353,210.0155 194.4658,210.4657 194.6222,210.9028 194.8207,211.3224 195.0593,211.7205 195.3358,212.0934 195.6475,212.4373 195.9915,212.749 196.3643,213.0255 196.7624,213.2642 197.182,213.4626 197.6191,213.619 198.0694,213.7318 198.5285,213.7999 198.9921,213.8227 199.4557,213.7999 199.9149,213.7318 200.3652,213.619 200.8022,213.4626 201.2218,213.2642 201.62,213.0255 201.9928,212.749 202.3367,212.4373 202.6484,212.0934 202.925,211.7205 203.1636,211.3224 203.3621,210.9028 203.5184,210.4657 203.6312,210.0155 203.6993,209.5563 203.7221,209.0927 203.6993,208.6291 203.6312,208.1699 203.5184,207.7197 203.3621,207.2826"/>
    <polygon points="207.8455,212.8095 206.9566,213.4687 206.1367,214.2118 205.3935,215.0317 204.7343,215.9206 204.1654,216.8697 203.6923,217.8701 203.3195,218.912 203.0506,219.9855 202.8882,221.0801 202.8339,222.1854 202.8882,223.2906 203.0506,224.3853 203.3195,225.4587 203.6923,226.5006 204.1654,227.501 204.7343,228.4501 205.3935,229.339 206.1367,230.1589 206.9566,230.9021 207.8455,231.5613 208.7946,232.1302 209.795,232.6033 210.8369,232.9761 211.9103,233.245 213.005,233.4074 214.1102,233.4617 215.2155,233.4074 216.3101,233.245 217.3836,232.9761 218.4255,232.6033 219.4259,232.1302 220.375,231.5613 221.2638,230.9021 222.0838,230.1589 222.8269,229.339 223.4861,228.4501 224.0551,227.501 224.5282,226.5006 224.901,225.4587 225.1699,224.3853 225.3322,223.2906 225.3865,222.1854 225.3322,221.0801 225.1699,219.9855 224.901,218.912 224.5282,217.8701 224.0551,216.8697 223.4861,215.9206 222.8269,215.0317 222.0838,214.2118 221.2638,213.4687 220.375,212.8095 219.4259,212.2405 218.4255,211.7674 217.3836,211.3946 216.3101,211.1257 215.2155,210.9634 214.1102,210.9091 213.005,210.9634 211.9103,211.1257 210.8369,211.3946 209.795,211.7674 208.7946,212.2405"/>
    <polygon points="201.9928,238.9343 202.3367,238.6226 202.6484,238.2787 202.925,237.9059 203.1636,237.5077 203.3621,237.0881 203.5184,236.6511 203.6312,236.2008 203.6993,235.7416 203.7221,235.278 203.6993,234.8144 203.6312,234.3553 203.5184,233.905 203.3621,233.4679 203.1636,233.0483 202.925,232.6502 202.6484,232.2774 202.3367,231.9334 201.9928,231.6217 201.62,231.3452 201.2218,231.1066 200.8022,230.9081 200.3652,230.7517 199.9149,230.6389 199.4557,230.5708 198.9921,230.5481 198.5285,230.5708 198.0694,230.6389 197.6191,230.7517 197.182,230.9081 196.7624,231.1066 196.3643,231.3452 195.9915,231.6217 195.6475,231.9334 195.3358,232.2774 195.0593,232.6502 194.8207,233.0483 194.6222,233.4679 194.4658,233.905 194.353,234.3553 194.2849,234.8144 194.2622,235.278 194.2849,235.7416 194.353,236.2008 194.4658,236.6511 194.6222,237.0881 194.8207,237.5077 195.0593,237.9059 195.3358,238.2787 195.6475,238.6226 195.9915,238.9343 196.3643,239.2109 196.7624,239.4495 197.182,239.648 197.6191,239.8043 198.0694,239.9171 198.5285,239.9852 198.9921,240.008 199.4557,239.9852 199.9149,239.9171 200.3652,239.8043 200.8022,239.648 201.2218,239.4495 201.62,239.2109"/>
    <polygon points="202.2238,258.19 201.851,257.1481 201.3779,256.1477 200.809,255.1986 200.1498,254.3097 199.4066,253.4898 198.5867,252.7467 197.6979,252.0875 196.7487,251.5185 195.7483,251.0454 194.7064,250.6726 193.633,250.4037 192.5383,250.2414 191.4331,250.1871 190.3278,250.2414 189.2332,250.4037 188.1597,250.6726 187.1178,251.0454 186.1175,251.5185 185.1683,252.0875 184.2795,252.7467 183.4595,253.4898 182.7164,254.3097 182.0572,255.1986 181.4883,256.1477 181.0151,257.1481 180.6423,258.19 180.3734,259.2635 180.2111,260.3581 180.1568,261.4634 180.2111,262.5686 180.3734,263.6633 180.6423,264.7367 181.0151,265.7786 181.4883,266.779 182.0572,267.7281 182.7164,268.617 183.4595,269.4369 184.2795,270.1801 185.1683,270.8393 186.1175,271.4082 187.1178,271.8813 188.1597,272.2541 189.2332,272.523 190.3278,272.6854 191.4331,272.7397 192.5383,272.6854 193.633,272.523 194.7064,272.2541 195.7483,271.8813 196.7487,271.4082 197.6979,270.8393 198.5867,270.1801 199.4066,269.4369 200.1498,268.617 200.809,267.7281 201.3779,266.779 201.851,265.7786 202.2238,264.7367 202.4927,263.6633 202.6551,262.5686 202.7094,261.4634 202.6551,260.3581 202.4927,259.2635"/>
    <polygon points="203.3621,285.8386 203.1636,285.419 202.925,285.0209 202.6484,284.648 202.3367,284.3041 201.9928,283.9924 201.62,283.7159 201.2218,283.4772 200.8022,283.2788 200.3652,283.1224 199.9149,283.0096 199.4557,282.9415 198.9921,282.9187 198.5285,282.9415 198.0694,283.0096 197.6191,283.1224 197.182,283.2788 196.7624,283.4772 196.3643,283.7159 195.9915,283.9924 195.6475,284.3041 195.3358,284.648 195.0593,285.0209 194.8207,285.419 194.6222,285.8386 194.4658,286.2757 194.353,286.7259 194.2849,287.1851 194.2622,287.6487 194.2849,288.1123 194.353,288.5715 194.4658,289.0217 194.6222,289.4588 194.8207,289.8784 195.0593,290.2765 195.3358,290.6494 195.6475,290.9933 195.9915,291.305 196.3643,291.5815 196.7624,291.8202 197.182,292.0186 197.6191,292.175 198.0694,292.2878 198.5285,292.3559 198.9921,292.3787 199.4557,292.3559 199.9149,292.2878 200.3652,292.175 200.8022,292.0186 201.2218,291.8202 201.62,291.5815 201.9928,291.305 202.3367,290.9933 202.6484,290.6494 202.925,290.2765 203.1636,289.8784 203.3621,289.4588 203.5184,289.0217 203.6312,288.5715 203.6993,288.1123 203.7221,287.6487 203.6993,287.1851 203.6312,286.7259 203.5184,286.2757"/>
    <polygon points="225.1699,276.7559 225.3322,275.6613 225.3865,274.556 225.3322,273.4508 225.1699,272.3561 224.901,271.2827 224.5282,270.2408 224.0551,269.2404 223.4861,268.2912 222.8269,267.4024 222.0838,266.5825 221.2638,265.8393 220.375,265.1801 219.4259,264.6112 218.4255,264.1381 217.3836,263.7653 216.3101,263.4964 215.2155,263.334 214.1102,263.2797 213.005,263.334 211.9103,263.4964 210.8369,263.7653 209.795,264.1381 208.7946,264.6112 207.8455,265.1801 206.9566,265.8393 206.1367,266.5825 205.3935,267.4024 204.7343,268.2912 204.1654,269.2404 203.6923,270.2408 203.3195,271.2827 203.0506,272.3561 202.8882,273.4508 202.8339,274.556 202.8882,275.6613 203.0506,276.7559 203.3195,277.8294 203.6923,278.8713 204.1654,279.8716 204.7343,280.8208 205.3935,281.7096 206.1367,282.5296 206.9566,283.2727 207.8455,283.9319 208.7946,284.5008 209.795,284.974 210.8369,285.3468 211.9103,285.6157 213.005,285.778 214.1102,285.8323 215.2155,285.778 216.3101,285.6157 217.3836,285.3468 218.4255,284.974 219.4259,284.5008 220.375,283.9319 221.2638,283.2727 222.0838,282.5296 222.8269,281.7096 223.4861,280.8208 224.0551,279.8716 224.5282,278.8713 224.901,277.8294"/>
    <polygon points="229.6338,296.3654 230.5226,297.0246 231.4718,297.5935 232.4721,298.0666 233.5141,298.4394 234.5875,298.7083 235.6821,298.8707 236.7874,298.925 237.8927,298.8707 238.9873,298.7083 240.0607,298.4394 241.1027,298.0666 242.103,297.5935 243.0522,297.0246 243.941,296.3654 244.761,295.6222 245.5041,294.8023 246.1633,293.9135 246.7322,292.9643 247.2054,291.964 247.5782,290.922 247.847,289.8486 248.0094,288.754 248.0637,287.6487 248.0094,286.5434 247.847,285.4488 247.5782,284.3754 247.2054,283.3334 246.7322,282.3331 246.1633,281.3839 245.5041,280.4951 244.761,279.6751 243.941,278.932 243.0522,278.2728 242.103,277.7039 241.1027,277.2307 240.0607,276.8579 238.9873,276.5891 237.8927,276.4267 236.7874,276.3724 235.6821,276.4267 234.5875,276.5891 233.5141,276.8579 232.4721,277.2307 231.4718,277.7039 230.5226,278.2728 229.6338,278.932 228.8138,279.6751 228.0707,280.4951 227.4115,281.3839 226.8426,282.3331 226.3695,283.3334 225.9966,284.3754 225.7278,285.4488 225.5654,286.5434 225.5111,287.6487 225.5654,288.754 225.7278,289.8486 225.9966,290.922 226.3695,291.964 226.8426,292.9643 227.4115,293.9135 228.0707,294.8023 228.8138,295.6222"/>
    <polygon points="235.2376,311.4592 235.6357,311.2205 236.0085,310.944 236.3525,310.6323 236.6642,310.2884 236.9407,309.9155 237.1793,309.5174 237.3778,309.0978 237.5342,308.6607 237.647,308.2105 237.7151,307.7513 237.7378,307.2877 237.7151,306.8241 237.647,306.3649 237.5342,305.9147 237.3778,305.4776 237.1793,305.058 236.9407,304.6599 236.6642,304.287 236.3525,303.9431 236.0085,303.6314 235.6357,303.3549 235.2376,303.1162 234.818,302.9178 234.3809,302.7614 233.9306,302.6486 233.4715,302.5805 233.0079,302.5577 232.5443,302.5805 232.0851,302.6486 231.6348,302.7614 231.1978,302.9178 230.7782,303.1162 230.38,303.3549 230.0072,303.6314 229.6633,303.9431 229.3516,304.287 229.075,304.6599 228.8364,305.058 228.6379,305.4776 228.4816,305.9147 228.3688,306.3649 228.3007,306.8241 228.2779,307.2877 228.3007,307.7513 228.3688,308.2105 228.4816,308.6607 228.6379,309.0978 228.8364,309.5174 229.075,309.9155 229.3516,310.2884 229.6633,310.6323 230.0072,310.944 230.38,311.2205 230.7782,311.4592 231.1978,311.6576 231.6348,311.814 232.0851,311.9268 232.5443,311.9949 233.0079,312.0177 233.4715,311.9949 233.9306,311.9268 234.3809,311.814 234.818,311.6576"/>
    <polygon points="179.5467,356.3854 179.8155,355.3119 179.9779,354.2173 180.0322,353.112 179.9779,352.0068 179.8155,350.9121 179.5467,349.8387 179.1739,348.7968 178.7007,347.7964 178.1318,346.8473 177.4726,345.9584 176.7295,345.1385 175.9095,344.3953 175.0207,343.7361 174.0715,343.1672 173.0712,342.6941 172.0292,342.3213 170.9558,342.0524 169.8612,341.89 168.7559,341.8357 167.6506,341.89 166.556,342.0524 165.4826,342.3213 164.4406,342.6941 163.4403,343.1672 162.4911,343.7361 161.6023,344.3953 160.7824,345.1385 160.0392,345.9584 159.38,346.8473 158.8111,347.7964 158.338,348.7968 157.9652,349.8387 157.6963,350.9121 157.5339,352.0068 157.4796,353.112 157.5339,354.2173 157.6963,355.3119 157.9652,356.3854 158.338,357.4273 158.8111,358.4276 159.38,359.3768 160.0392,360.2656 160.7824,361.0856 161.6023,361.8287 162.4911,362.4879 163.4403,363.0568 164.4406,363.53 165.4826,363.9028 166.556,364.1717 167.6506,364.334 168.7559,364.3883 169.8612,364.334 170.9558,364.1717 172.0292,363.9028 173.0712,363.53 174.0715,363.0568 175.0207,362.4879 175.9095,361.8287 176.7295,361.0856 177.4726,360.2656 178.1318,359.3768 178.7007,358.4276 179.1739,357.4273"/>
    <polygon points="159.38,385.5621 158.8111,384.613 158.338,383.6126 157.9652,382.5707 157.6963,381.4973 157.5339,380.4026 157.4796,379.2974 157.5339,378.1921 157.6963,377.0975 157.9652,376.024 158.338,374.9821 158.8111,373.9818 159.38,373.0326 160.0392,372.1438 160.7824,371.3238 161.6023,370.5807 162.4911,369.9215 163.4403,369.3526 164.4406,368.8794 165.4826,368.5066 166.556,368.2377 167.6506,368.0754 168.7559,368.0211 169.8612,368.0754 170.9558,368.2377 172.0292,368.5066 173.0712,368.8794 174.0715,369.3526 175.0207,369.9215 175.9095,370.5807 176.7295,371.3238 177.4726,372.1438 178.1318,373.0326 178.7007,373.9818 179.1739,374.9821 179.5467,376.024 179.8155,377.0975 179.9779,378.1921 180.0322,379.2974 179.9779,380.4026 179.8155,381.4973 179.5467,382.5707 179.1739,383.6126 178.7007,384.613 178.1318,385.5621 177.4726,386.451 176.7295,387.2709 175.9095,388.0141 175.0207,388.6733 174.0715,389.2422 173.0712,389.7153 172.0292,390.0881 170.9558,390.357 169.8612,390.5194 168.7559,390.5737 167.6506,390.5194 166.556,390.357 165.4826,390.0881 164.4406,389.7153 163.4403,389.2422 162.4911,388.6733 161.6023,388.0141 160.7824,387.2709 160.0392,386.451"/>
    <polygon points="155.0108,370.731 154.5606,370.8438 154.1014,370.9119 153.6378,370.9347 153.1742,370.9119 152.715,370.8438 152.2648,370.731 151.8277,370.5746 151.4081,370.3762 151.01,370.1375 150.6371,369.861 150.2932,369.5493 149.9815,369.2054 149.705,368.8325 149.4663,368.4344 149.2679,368.0148 149.1115,367.5777 148.9987,367.1275 148.9306,366.6683 148.9078,366.2047 148.9306,365.7411 148.9987,365.2819 149.1115,364.8317 149.2679,364.3946 149.4663,363.975 149.705,363.5769 149.9815,363.204 150.2932,362.8601 150.6371,362.5484 151.01,362.2719 151.4081,362.0332 151.8277,361.8348 152.2648,361.6784 152.715,361.5656 153.1742,361.4975 153.6378,361.4747 154.1014,361.4975 154.5606,361.5656 155.0108,361.6784 155.4479,361.8348 155.8675,362.0332 156.2656,362.2719 156.6385,362.5484 156.9824,362.8601 157.2941,363.204 157.5706,363.5769 157.8093,363.975 158.0077,364.3946 158.1641,364.8317 158.2769,365.2819 158.345,365.7411 158.3678,366.2047 158.345,366.6683 158.2769,367.1275 158.1641,367.5777 158.0077,368.0148 157.8093,368.4344 157.5706,368.8325 157.2941,369.2054 156.9824,369.5493 156.6385,369.861 156.2656,370.1375 155.8675,370.3762 155.4479,370.5746"/>
    <polygon points="169.8612,338.1487 168.7559,338.203 167.6506,338.1487 166.556,337.9863 165.4826,337.7175 164.4406,337.3446 163.4403,336.8715 162.4911,336.3026 161.6023,335.6434 160.7824,334.9003 160.0392,334.0803 159.38,333.1915 158.8111,332.2423 158.338,331.242 157.9652,330.2 157.6963,329.1266 157.5339,328.032 157.4796,326.9267 157.5339,325.8214 157.6963,324.7268 157.9652,323.6534 158.338,322.6114 158.8111,321.6111 159.38,320.6619 160.0392,319.7731 160.7824,318.9531 161.6023,318.21 162.4911,317.5508 163.4403,316.9819 164.4406,316.5087 165.4826,316.1359 166.556,315.8671 167.6506,315.7047 168.7559,315.6504 169.8612,315.7047 170.9558,315.8671 172.0292,316.1359 173.0712,316.5087 174.0715,316.9819 175.0207,317.5508 175.9095,318.21 176.7295,318.9531 177.4726,319.7731 178.1318,320.6619 178.7007,321.6111 179.1739,322.6114 179.5467,323.6534 179.8155,324.7268 179.9779,325.8214 180.0322,326.9267 179.9779,328.032 179.8155,329.1266 179.5467,330.2 179.1739,331.242 178.7007,332.2423 178.1318,333.1915 177.4726,334.0803 176.7295,334.9003 175.9095,335.6434 175.0207,336.3026 174.0715,336.8715 173.0712,337.3446 172.0292,337.7175 170.9558,337.9863"/>
    <polygon points="160.0392,293.5878 159.38,294.4766 158.8111,295.4257 158.338,296.4261 157.9652,297.468 157.6963,298.5415 157.5339,299.6361 157.4796,300.7414 157.5339,301.8466 157.6963,302.9413 157.9652,304.0147 158.338,305.0566 158.8111,306.057 159.38,307.0061 160.0392,307.895 160.7824,308.7149 161.6023,309.4581 162.4911,310.1173 163.4403,310.6862 164.4406,311.1593 165.4826,311.5321 166.556,311.801 167.6506,311.9634 168.7559,312.0177 169.8612,311.9634 170.9558,311.801 172.0292,311.5321 173.0712,311.1593 174.0715,310.6862 175.0207,310.1173 175.9095,309.4581 176.7295,308.7149 177.4726,307.895 178.1318,307.0061 178.7007,306.057 179.1739,305.0566 179.5467,304.0147 179.8155,302.9413 179.9779,301.8466 180.0322,300.7414 179.9779,299.6361 179.8155,298.5415 179.5467,297.468 179.1739,296.4261 178.7007,295.4257 178.1318,294.4766 177.4726,293.5878 176.7295,292.7678 175.9095,292.0247 175.0207,291.3655 174.0715,290.7965 173.0712,290.3234 172.0292,289.9506 170.9558,289.6817 169.8612,289.5194 168.7559,289.4651 167.6506,289.5194 166.556,289.6817 165.4826,289.9506 164.4406,290.3234 163.4403,290.7965 162.4911,291.3655 161.6023,292.0247 160.7824,292.7678"/>
    <polygon points="155.4479,292.0186 155.8675,291.8202 156.2656,291.5815 156.6385,291.305 156.9824,290.9933 157.2941,290.6494 157.5706,290.2765 157.8093,289.8784 158.0077,289.4588 158.1641,289.0217 158.2769,288.5715 158.345,288.1123 158.3678,287.6487 158.345,287.1851 158.2769,286.7259 158.1641,286.2757 158.0077,285.8386 157.8093,285.419 157.5706,285.0209 157.2941,284.648 156.9824,284.3041 156.6385,283.9924 156.2656,283.7159 155.8675,283.4772 155.4479,283.2788 155.0108,283.1224 154.5606,283.0096 154.1014,282.9415 153.6378,282.9187 153.1742,282.9415 152.715,283.0096 152.2648,283.1224 151.8277,283.2788 151.4081,283.4772 151.01,283.7159 150.6371,283.9924 150.2932,284.3041 149.9815,284.648 149.705,285.0209 149.4663,285.419 149.2679,285.8386 149.1115,286.2757 148.9987,286.7259 148.9306,287.1851 148.9078,287.6487 148.9306,288.1123 148.9987,288.5715 149.1115,289.0217 149.2679,289.4588 149.4663,289.8784 149.705,290.2765 149.9815,290.6494 150.2932,290.9933 150.6371,291.305 151.01,291.5815 151.4081,291.8202 151.8277,292.0186 152.2648,292.175 152.715,292.2878 153.1742,292.3559 153.6378,292.3787 154.1014,292.3559 154.5606,292.2878 155.0108,292.175"/>
    <polygon points="135.6678,274.0924 135.6906,274.556 135.6678,275.0196 135.5997,275.4788 135.4869,275.9291 135.3306,276.3661 135.1321,276.7857 134.8935,277.1839 134.6169,277.5567 134.3052,277.9006 133.9613,278.2123 133.5885,278.4889 133.1903,278.7275 132.7707,278.926 132.3337,279.0823 131.8834,279.1951 131.4242,279.2632 130.9606,279.286 130.497,279.2632 130.0379,279.1951 129.5876,279.0823 129.1505,278.926 128.7309,278.7275 128.3328,278.4889 127.96,278.2123 127.616,277.9006 127.3043,277.5567 127.0278,277.1839 126.7892,276.7857 126.5907,276.3661 126.4343,275.9291 126.3215,275.4788 126.2534,275.0196 126.2307,274.556 126.2534,274.0924 126.3215,273.6333 126.4343,273.183 126.5907,272.7459 126.7892,272.3263 127.0278,271.9282 127.3043,271.5554 127.616,271.2114 127.96,270.8997 128.3328,270.6232 128.7309,270.3846 129.1505,270.1861 129.5876,270.0297 130.0379,269.9169 130.497,269.8488 130.9606,269.8261 131.4242,269.8488 131.8834,269.9169 132.3337,270.0297 132.7707,270.1861 133.1903,270.3846 133.5885,270.6232 133.9613,270.8997 134.3052,271.2114 134.6169,271.5554 134.8935,271.9282 135.1321,272.3263 135.3306,272.7459 135.4869,273.183 135.5997,273.6333"/>
    <polygon points="142.8054,272.2541 141.7635,271.8813 140.7631,271.4082 139.814,270.8393 138.9251,270.1801 138.1052,269.4369 137.362,268.617 136.7028,267.7281 136.1339,266.779 135.6608,265.7786 135.288,264.7367 135.0191,263.6633 134.8567,262.5686 134.8024,261.4634 134.8567,260.3581 135.0191,259.2635 135.288,258.19 135.6608,257.1481 136.1339,256.1477 136.7028,255.1986 137.362,254.3097 138.1052,253.4898 138.9251,252.7467 139.814,252.0875 140.7631,251.5185 141.7635,251.0454 142.8054,250.6726 143.8788,250.4037 144.9735,250.2414 146.0787,250.1871 147.184,250.2414 148.2786,250.4037 149.3521,250.6726 150.394,251.0454 151.3944,251.5185 152.3435,252.0875 153.2324,252.7467 154.0523,253.4898 154.7954,254.3097 155.4546,255.1986 156.0236,256.1477 156.4967,257.1481 156.8695,258.19 157.1384,259.2635 157.3007,260.3581 157.355,261.4634 157.3007,262.5686 157.1384,263.6633 156.8695,264.7367 156.4967,265.7786 156.0236,266.779 155.4546,267.7281 154.7954,268.617 154.0523,269.4369 153.2324,270.1801 152.3435,270.8393 151.3944,271.4082 150.394,271.8813 149.3521,272.2541 148.2786,272.523 147.184,272.6854 146.0787,272.7397 144.9735,272.6854 143.8788,272.523"/>
    <polygon points="169.8612,263.334 170.9558,263.4964 172.0292,263.7653 173.0712,264.1381 174.0715,264.6112 175.0207,265.1801 175.9095,265.8393 176.7295,266.5825 177.4726,267.4024 178.1318,268.2912 178.7007,269.2404 179.1739,270.2408 179.5467,271.2827 179.8155,272.3561 179.9779,273.4508 180.0322,274.556 179.9779,275.6613 179.8155,276.7559 179.5467,277.8294 179.1739,278.8713 178.7007,279.8716 178.1318,280.8208 177.4726,281.7096 176.7295,282.5296 175.9095,283.2727 175.0207,283.9319 174.0715,284.5008 173.0712,284.974 172.0292,285.3468 170.9558,285.6157 169.8612,285.778 168.7559,285.8323 167.6506,285.778 166.556,285.6157 165.4826,285.3468 164.4406,284.974 163.4403,284.5008 162.4911,283.9319 161.6023,283.2727 160.7824,282.5296 160.0392,281.7096 159.38,280.8208 158.8111,279.8716 158.338,278.8713 157.9652,277.8294 157.6963,276.7559 157.5339,275.6613 157.4796,274.556 157.5339,273.4508 157.6963,272.3561 157.9652,271.2827 158.338,270.2408 158.8111,269.2404 159.38,268.2912 160.0392,267.4024 160.7824,266.5825 161.6023,265.8393 162.4911,265.1801 163.4403,264.6112 164.4406,264.1381 165.4826,263.7653 166.556,263.4964 167.6506,263.334 168.7559,263.2797"/>
    <polygon points="171.6759,247.4479 171.7887,246.9977 171.945,246.5606 172.1435,246.141 172.3821,245.7429 172.6586,245.37 172.9704,245.0261 173.3143,244.7144 173.6871,244.4379 174.0853,244.1992 174.5049,244.0008 174.9419,243.8444 175.3922,243.7316 175.8513,243.6635 176.315,243.6407 176.7786,243.6635 177.2377,243.7316 177.688,243.8444 178.125,244.0008 178.5447,244.1992 178.9428,244.4379 179.3156,244.7144 179.6596,245.0261 179.9713,245.37 180.2478,245.7429 180.4864,246.141 180.6849,246.5606 180.8413,246.9977 180.954,247.4479 181.0222,247.9071 181.0449,248.3707 181.0222,248.8343 180.954,249.2935 180.8413,249.7437 180.6849,250.1808 180.4864,250.6004 180.2478,250.9985 179.9713,251.3714 179.6596,251.7153 179.3156,252.027 178.9428,252.3035 178.5447,252.5422 178.125,252.7406 177.688,252.897 177.2377,253.0098 176.7786,253.0779 176.315,253.1007 175.8513,253.0779 175.3922,253.0098 174.9419,252.897 174.5049,252.7406 174.0853,252.5422 173.6871,252.3035 173.3143,252.027 172.9704,251.7153 172.6586,251.3714 172.3821,250.9985 172.1435,250.6004 171.945,250.1808 171.7887,249.7437 171.6759,249.2935 171.6078,248.8343 171.585,248.3707 171.6078,247.9071"/>
    <polygon points="145.9555,244.825 146.232,244.4522 146.4707,244.0541 146.6691,243.6344 146.8255,243.1974 146.9383,242.7471 147.0064,242.288 147.0292,241.8244 147.0064,241.3607 146.9383,240.9016 146.8255,240.4513 146.6691,240.0143 146.4707,239.5947 146.232,239.1965 145.9555,238.8237 145.6438,238.4798 145.2999,238.168 144.927,237.8915 144.5289,237.6529 144.1093,237.4544 143.6723,237.2981 143.222,237.1853 142.7628,237.1172 142.2992,237.0944 141.8356,237.1172 141.3764,237.1853 140.9262,237.2981 140.4891,237.4544 140.0695,237.6529 139.6714,237.8915 139.2985,238.168 138.9546,238.4798 138.6429,238.8237 138.3664,239.1965 138.1277,239.5947 137.9293,240.0143 137.7729,240.4513 137.6601,240.9016 137.592,241.3607 137.5692,241.8244 137.592,242.288 137.6601,242.7471 137.7729,243.1974 137.9293,243.6344 138.1277,244.0541 138.3664,244.4522 138.6429,244.825 138.9546,245.169 139.2985,245.4807 139.6714,245.7572 140.0695,245.9958 140.4891,246.1943 140.9262,246.3507 141.3764,246.4634 141.8356,246.5316 142.2992,246.5543 142.7628,246.5316 143.222,246.4634 143.6723,246.3507 144.1093,246.1943 144.5289,245.9958 144.927,245.7572 145.2999,245.4807 145.6438,245.169"/>
    <polygon points="117.1368,238.9948 116.248,239.654 115.428,240.3971 114.6849,241.2171 114.0257,242.1059 113.4568,243.0551 112.9836,244.0554 112.6108,245.0974 112.3419,246.1708 112.1796,247.2654 112.1253,248.3707 112.1796,249.476 112.3419,250.5706 112.6108,251.644 112.9836,252.6859 113.4568,253.6863 114.0257,254.6355 114.6849,255.5243 115.428,256.3442 116.248,257.0874 117.1368,257.7466 118.086,258.3155 119.0863,258.7886 120.1282,259.1614 121.2017,259.4303 122.2963,259.5927 123.4016,259.647 124.5068,259.5927 125.6015,259.4303 126.6749,259.1614 127.7168,258.7886 128.7172,258.3155 129.6664,257.7466 130.5552,257.0874 131.3751,256.3442 132.1183,255.5243 132.7775,254.6355 133.3464,253.6863 133.8195,252.6859 134.1923,251.644 134.4612,250.5706 134.6236,249.476 134.6779,248.3707 134.6236,247.2654 134.4612,246.1708 134.1923,245.0974 133.8195,244.0554 133.3464,243.0551 132.7775,242.1059 132.1183,241.2171 131.3751,240.3971 130.5552,239.654 129.6664,238.9948 128.7172,238.4259 127.7168,237.9527 126.6749,237.5799 125.6015,237.3111 124.5068,237.1487 123.4016,237.0944 122.2963,237.1487 121.2017,237.3111 120.1282,237.5799 119.0863,237.9527 118.086,238.4259"/>
    <polygon points="112.6534,233.4679 112.4549,233.0483 112.2163,232.6502 111.9398,232.2774 111.6281,231.9334 111.2841,231.6217 110.9113,231.3452 110.5132,231.1066 110.0935,230.9081 109.6565,230.7517 109.2062,230.6389 108.7471,230.5708 108.2835,230.5481 107.8198,230.5708 107.3607,230.6389 106.9104,230.7517 106.4734,230.9081 106.0538,231.1066 105.6556,231.3452 105.2828,231.6217 104.9389,231.9334 104.6271,232.2774 104.3506,232.6502 104.112,233.0483 103.9135,233.4679 103.7572,233.905 103.6444,234.3553 103.5763,234.8144 103.5535,235.278 103.5763,235.7416 103.6444,236.2008 103.7572,236.6511 103.9135,237.0881 104.112,237.5077 104.3506,237.9059 104.6271,238.2787 104.9389,238.6226 105.2828,238.9343 105.6556,239.2109 106.0538,239.4495 106.4734,239.648 106.9104,239.8043 107.3607,239.9171 107.8198,239.9852 108.2835,240.008 108.7471,239.9852 109.2062,239.9171 109.6565,239.8043 110.0935,239.648 110.5132,239.4495 110.9113,239.2109 111.2841,238.9343 111.6281,238.6226 111.9398,238.2787 112.2163,237.9059 112.4549,237.5077 112.6534,237.0881 112.8098,236.6511 112.9226,236.2008 112.9907,235.7416 113.0134,235.278 112.9907,234.8144 112.9226,234.3553 112.8098,233.905"/>
    <polygon points="115.6892,226.1039 115.4506,226.502 115.2521,226.9216 115.0957,227.3587 114.983,227.8089 114.9149,228.2681 114.8921,228.7317 114.9149,229.1953 114.983,229.6545 115.0957,230.1047 115.2521,230.5418 115.4506,230.9614 115.6892,231.3595 115.9657,231.7324 116.2775,232.0763 116.6214,232.388 116.9942,232.6645 117.3924,232.9032 117.812,233.1016 118.249,233.258 118.6993,233.3708 119.1584,233.4389 119.622,233.4617 120.0857,233.4389 120.5448,233.3708 120.9951,233.258 121.4321,233.1016 121.8517,232.9032 122.2499,232.6645 122.6227,232.388 122.9666,232.0763 123.2784,231.7324 123.5549,231.3595 123.7935,230.9614 123.992,230.5418 124.1483,230.1047 124.2611,229.6545 124.3292,229.1953 124.352,228.7317 124.3292,228.2681 124.2611,227.8089 124.1483,227.3587 123.992,226.9216 123.7935,226.502 123.5549,226.1039 123.2784,225.731 122.9666,225.3871 122.6227,225.0754 122.2499,224.7989 121.8517,224.5602 121.4321,224.3618 120.9951,224.2054 120.5448,224.0926 120.0857,224.0245 119.622,224.0017 119.1584,224.0245 118.6993,224.0926 118.249,224.2054 117.812,224.3618 117.3924,224.5602 116.9942,224.7989 116.6214,225.0754 116.2775,225.3871 115.9657,225.731"/>
    <polygon points="112.4549,224.4151 112.6534,223.9954 112.8098,223.5584 112.9226,223.1081 112.9907,222.649 113.0134,222.1854 112.9907,221.7217 112.9226,221.2626 112.8098,220.8123 112.6534,220.3753 112.4549,219.9557 112.2163,219.5575 111.9398,219.1847 111.6281,218.8408 111.2841,218.529 110.9113,218.2525 110.5132,218.0139 110.0935,217.8154 109.6565,217.6591 109.2062,217.5463 108.7471,217.4782 108.2835,217.4554 107.8198,217.4782 107.3607,217.5463 106.9104,217.6591 106.4734,217.8154 106.0538,218.0139 105.6556,218.2525 105.2828,218.529 104.9389,218.8408 104.6271,219.1847 104.3506,219.5575 104.112,219.9557 103.9135,220.3753 103.7572,220.8123 103.6444,221.2626 103.5763,221.7217 103.5535,222.1854 103.5763,222.649 103.6444,223.1081 103.7572,223.5584 103.9135,223.9954 104.112,224.4151 104.3506,224.8132 104.6271,225.186 104.9389,225.53 105.2828,225.8417 105.6556,226.1182 106.0538,226.3568 106.4734,226.5553 106.9104,226.7117 107.3607,226.8244 107.8198,226.8926 108.2835,226.9153 108.7471,226.8926 109.2062,226.8244 109.6565,226.7117 110.0935,226.5553 110.5132,226.3568 110.9113,226.1182 111.2841,225.8417 111.6281,225.53 111.9398,225.186 112.2163,224.8132"/>
  </g>
</svg>
