<?xml version="1.0" encoding="utf-8" ?>
<svg xmlns="http://www.w3.org/2000/svg" xmlns:cc="http://creativecommons.org/ns" xmlns:dc="http://purl.org/dc/elements/1.1/" xmlns:ev="http://www.w3.org/2001/xml-events" xmlns:inkscape="http://www.inkscape.org/namespaces/inkscape" xmlns:rdf="http://www.w3.org/1999/02/22-rdf-syntax-ns" xmlns:sodipodi="http://sodipodi.sourceforge.net/DTD/sodipodi-0.dtd" xmlns:xlink="http://www.w3.org/1999/xlink" baseProfile="tiny" height="15.875cm" version="1.2" viewBox="0 0 432.0 600.0" width="11.43cm">
  <metadata>
    <rdf:RDF>
      <cc:Work>
        <dc:format>image/svg+xml</dc:format>
        <dc:source>vsk save -s 240 -c hex-grid/config/bubble-coasters-2.json /Users/tobin/src/fabian/plotting/fabian-plotting/hex-grid/sketch_hex_grid.py</dc:source>
        <dc:date>2023-11-11T11:30:23.669926</dc:date>
      </cc:Work>
    </rdf:RDF>
  </metadata>
  <defs/>
  <g fill="none" id="layer1" inkscape:groupmode="layer" inkscape:label="1" stroke="#000000" stroke-width="0.7559" style="display:inline">
    <polygon points="204.7623,151.2785 205.5823,152.0216 206.3254,152.8416 206.9846,153.7304 207.5535,154.6796 208.0267,155.6799 208.3995,156.7218 208.6684,157.7953 208.8307,158.8899 208.885,159.9952 208.8307,161.1005 208.6684,162.1951 208.3995,163.2685 208.0267,164.3104 207.5535,165.3108 206.9846,166.26 206.3254,167.1488 205.5823,167.9687 204.7623,168.7119 203.8735,169.3711 202.9243,169.94 201.924,170.4131 200.8821,170.7859 199.8086,171.0548 198.714,171.2172 197.6087,171.2715 196.5035,171.2172 195.4088,171.0548 194.3354,170.7859 193.2935,170.4131 192.2931,169.94 191.3439,169.3711 190.4551,168.7119 189.6352,167.9687 188.892,167.1488 188.2328,166.26 187.6639,165.3108 187.1908,164.3104 186.818,163.2685 186.5491,162.1951 186.3867,161.1005 186.3324,159.9952 186.3867,158.8899 186.5491,157.7953 186.818,156.7218 187.1908,155.6799 187.6639,154.6796 188.2328,153.7304 188.892,152.8416 189.6352,152.0216 190.4551,151.2785 191.3439,150.6193 192.2931,150.0504 193.2935,149.5772 194.3354,149.2044 195.4088,148.9356 196.5035,148.7732 197.6087,148.7189 198.714,148.7732 199.8086,148.9356 200.8821,149.2044 201.924,149.5772 202.9243,150.0504 203.8735,150.6193"/>
    <polygon points="177.7606,146.9025 177.7834,146.4389 177.8515,145.9797 177.9643,145.5295 178.1207,145.0924 178.3191,144.6728 178.5578,144.2747 178.8343,143.9019 179.146,143.5579 179.4899,143.2462 179.8628,142.9697 180.2609,142.7311 180.6805,142.5326 181.1176,142.3762 181.5678,142.2634 182.027,142.1953 182.4906,142.1725 182.9542,142.1953 183.4134,142.2634 183.8637,142.3762 184.3007,142.5326 184.7203,142.7311 185.1184,142.9697 185.4913,143.2462 185.8352,143.5579 186.1469,143.9019 186.4234,144.2747 186.6621,144.6728 186.8605,145.0924 187.0169,145.5295 187.1297,145.9797 187.1978,146.4389 187.2206,146.9025 187.1978,147.3661 187.1297,147.8253 187.0169,148.2756 186.8605,148.7126 186.6621,149.1322 186.4234,149.5304 186.1469,149.9032 185.8352,150.2471 185.4913,150.5588 185.1184,150.8353 184.7203,151.074 184.3007,151.2724 183.8637,151.4288 183.4134,151.5416 182.9542,151.6097 182.4906,151.6325 182.027,151.6097 181.5678,151.5416 181.1176,151.4288 180.6805,151.2724 180.2609,151.074 179.8628,150.8353 179.4899,150.5588 179.146,150.2471 178.8343,149.9032 178.5578,149.5304 178.3191,149.1322 178.1207,148.7126 177.9643,148.2756 177.8515,147.8253 177.7834,147.3661"/>
    <polygon points="189.3029,138.9831 189.4593,138.5461 189.6577,138.1265 189.8964,137.7284 190.1729,137.3555 190.4846,137.0116 190.8285,136.6999 191.2014,136.4234 191.5995,136.1847 192.0191,135.9863 192.4562,135.8299 192.9064,135.7171 193.3656,135.649 193.8292,135.6262 194.2928,135.649 194.752,135.7171 195.2022,135.8299 195.6393,135.9863 196.0589,136.1847 196.457,136.4234 196.8299,136.6999 197.1738,137.0116 197.4855,137.3555 197.762,137.7284 198.0007,138.1265 198.1991,138.5461 198.3555,138.9831 198.4683,139.4334 198.5364,139.8926 198.5592,140.3562 198.5364,140.8198 198.4683,141.279 198.3555,141.7292 198.1991,142.1663 198.0007,142.5859 197.762,142.984 197.4855,143.3568 197.1738,143.7008 196.8299,144.0125 196.457,144.289 196.0589,144.5276 195.6393,144.7261 195.2022,144.8825 194.752,144.9953 194.2928,145.0634 193.8292,145.0862 193.3656,145.0634 192.9064,144.9953 192.4562,144.8825 192.0191,144.7261 191.5995,144.5276 191.2014,144.289 190.8285,144.0125 190.4846,143.7008 190.1729,143.3568 189.8964,142.984 189.6577,142.5859 189.4593,142.1663 189.3029,141.7292 189.1901,141.279 189.122,140.8198 189.0992,140.3562 189.122,139.8926 189.1901,139.4334"/>
    <polygon points="200.4606,133.3462 200.5287,132.8871 200.6415,132.4368 200.7979,131.9998 200.9963,131.5802 201.2349,131.182 201.5115,130.8092 201.8232,130.4653 202.1671,130.1535 202.5399,129.877 202.9381,129.6384 203.3577,129.4399 203.7947,129.2836 204.245,129.1708 204.7042,129.1027 205.1678,129.0799 205.6314,129.1027 206.0905,129.1708 206.5408,129.2836 206.9779,129.4399 207.3975,129.6384 207.7956,129.877 208.1684,130.1535 208.5124,130.4653 208.8241,130.8092 209.1006,131.182 209.3392,131.5802 209.5377,131.9998 209.6941,132.4368 209.8069,132.8871 209.875,133.3462 209.8978,133.8099 209.875,134.2735 209.8069,134.7326 209.6941,135.1829 209.5377,135.6199 209.3392,136.0395 209.1006,136.4377 208.8241,136.8105 208.5124,137.1544 208.1684,137.4662 207.7956,137.7427 207.3975,137.9813 206.9779,138.1798 206.5408,138.3362 206.0905,138.4489 205.6314,138.517 205.1678,138.5398 204.7042,138.517 204.245,138.4489 203.7947,138.3362 203.3577,138.1798 202.9381,137.9813 202.5399,137.7427 202.1671,137.4662 201.8232,137.1544 201.5115,136.8105 201.2349,136.4377 200.9963,136.0395 200.7979,135.6199 200.6415,135.1829 200.5287,134.7326 200.4606,134.2735 200.4378,133.8099"/>
    <polygon points="218.7361,123.0921 218.3164,122.8936 217.8794,122.7372 217.4291,122.6244 216.97,122.5563 216.5064,122.5335 216.0427,122.5563 215.5836,122.6244 215.1333,122.7372 214.6963,122.8936 214.2767,123.0921 213.8785,123.3307 213.5057,123.6072 213.1618,123.9189 212.85,124.2629 212.5735,124.6357 212.3349,125.0338 212.1364,125.4534 211.9801,125.8905 211.8673,126.3407 211.7992,126.7999 211.7764,127.2635 211.7992,127.7271 211.8673,128.1863 211.9801,128.6366 212.1364,129.0736 212.3349,129.4932 212.5735,129.8914 212.85,130.2642 213.1618,130.6081 213.5057,130.9198 213.8785,131.1963 214.2767,131.435 214.6963,131.6334 215.1333,131.7898 215.5836,131.9026 216.0427,131.9707 216.5064,131.9935 216.97,131.9707 217.4291,131.9026 217.8794,131.7898 218.3164,131.6334 218.7361,131.435 219.1342,131.1963 219.507,130.9198 219.851,130.6081 220.1627,130.2642 220.4392,129.8914 220.6778,129.4932 220.8763,129.0736 221.0327,128.6366 221.1454,128.1863 221.2136,127.7271 221.2363,127.2635 221.2136,126.7999 221.1454,126.3407 221.0327,125.8905 220.8763,125.4534 220.6778,125.0338 220.4392,124.6357 220.1627,124.2629 219.851,123.9189 219.507,123.6072 219.1342,123.3307"/>
    <polygon points="225.2171,116.7844 224.8443,117.0609 224.5003,117.3726 224.1886,117.7165 223.9121,118.0894 223.6735,118.4875 223.475,118.9071 223.3186,119.3441 223.2059,119.7944 223.1377,120.2536 223.115,120.7172 223.1377,121.1808 223.2059,121.64 223.3186,122.0902 223.475,122.5273 223.6735,122.9469 223.9121,123.345 224.1886,123.7178 224.5003,124.0618 224.8443,124.3735 225.2171,124.65 225.6152,124.8886 226.0349,125.0871 226.4719,125.2435 226.9222,125.3563 227.3813,125.4244 227.8449,125.4472 228.3086,125.4244 228.7677,125.3563 229.218,125.2435 229.655,125.0871 230.0746,124.8886 230.4728,124.65 230.8456,124.3735 231.1895,124.0618 231.5013,123.7178 231.7778,123.345 232.0164,122.9469 232.2149,122.5273 232.3712,122.0902 232.484,121.64 232.5521,121.1808 232.5749,120.7172 232.5521,120.2536 232.484,119.7944 232.3712,119.3441 232.2149,118.9071 232.0164,118.4875 231.7778,118.0894 231.5013,117.7165 231.1895,117.3726 230.8456,117.0609 230.4728,116.7844 230.0746,116.5457 229.655,116.3473 229.218,116.1909 228.7677,116.0781 228.3086,116.01 227.8449,115.9872 227.3813,116.01 226.9222,116.0781 226.4719,116.1909 226.0349,116.3473 225.6152,116.5457"/>
    <polygon points="225.6015,136.9577 226.5507,137.5266 227.4395,138.1858 228.2594,138.929 229.0026,139.7489 229.6618,140.6377 230.2307,141.5869 230.7038,142.5873 231.0766,143.6292 231.3455,144.7026 231.5079,145.7972 231.5622,146.9025 231.5079,148.0078 231.3455,149.1024 231.0766,150.1759 230.7038,151.2178 230.2307,152.2181 229.6618,153.1673 229.0026,154.0561 228.2594,154.8761 227.4395,155.6192 226.5507,156.2784 225.6015,156.8473 224.6011,157.3205 223.5592,157.6933 222.4858,157.9622 221.3912,158.1245 220.2859,158.1788 219.1806,158.1245 218.086,157.9622 217.0125,157.6933 215.9706,157.3205 214.9703,156.8473 214.0211,156.2784 213.1323,155.6192 212.3123,154.8761 211.5692,154.0561 210.91,153.1673 210.3411,152.2181 209.8679,151.2178 209.4951,150.1759 209.2263,149.1024 209.0639,148.0078 209.0096,146.9025 209.0639,145.7972 209.2263,144.7026 209.4951,143.6292 209.8679,142.5873 210.3411,141.5869 210.91,140.6377 211.5692,139.7489 212.3123,138.929 213.1323,138.1858 214.0211,137.5266 214.9703,136.9577 215.9706,136.4846 217.0125,136.1118 218.086,135.8429 219.1806,135.6805 220.2859,135.6262 221.3912,135.6805 222.4858,135.8429 223.5592,136.1118 224.6011,136.4846"/>
    <polygon points="264.8614,149.7925 265.2053,150.1043 265.517,150.4482 265.7935,150.821 266.0322,151.2192 266.2306,151.6388 266.387,152.0758 266.4998,152.5261 266.5679,152.9852 266.5907,153.4489 266.5679,153.9125 266.4998,154.3716 266.387,154.8219 266.2306,155.2589 266.0322,155.6785 265.7935,156.0767 265.517,156.4495 265.2053,156.7934 264.8614,157.1052 264.4885,157.3817 264.0904,157.6203 263.6708,157.8188 263.2337,157.9752 262.7835,158.0879 262.3243,158.1561 261.8607,158.1788 261.3971,158.1561 260.9379,158.0879 260.4877,157.9752 260.0506,157.8188 259.631,157.6203 259.2329,157.3817 258.86,157.1052 258.5161,156.7934 258.2044,156.4495 257.9279,156.0767 257.6892,155.6785 257.4908,155.2589 257.3344,154.8219 257.2216,154.3716 257.1535,153.9125 257.1307,153.4489 257.1535,152.9852 257.2216,152.5261 257.3344,152.0758 257.4908,151.6388 257.6892,151.2192 257.9279,150.821 258.2044,150.4482 258.5161,150.1043 258.86,149.7925 259.2329,149.516 259.631,149.2774 260.0506,149.0789 260.4877,148.9226 260.9379,148.8098 261.3971,148.7417 261.8607,148.7189 262.3243,148.7417 262.7835,148.8098 263.2337,148.9226 263.6708,149.0789 264.0904,149.2774 264.4885,149.516"/>
    <polygon points="295.471,194.8972 294.5822,195.5564 293.633,196.1253 292.6326,196.5985 291.5907,196.9713 290.5173,197.2402 289.4227,197.4025 288.3174,197.4568 287.2121,197.4025 286.1175,197.2402 285.044,196.9713 284.0021,196.5985 283.0018,196.1253 282.0526,195.5564 281.1638,194.8972 280.3438,194.1541 279.6007,193.3341 278.9415,192.4453 278.3726,191.4961 277.8994,190.4958 277.5266,189.4539 277.2577,188.3804 277.0954,187.2858 277.0411,186.1805 277.0954,185.0753 277.2577,183.9806 277.5266,182.9072 277.8994,181.8653 278.3726,180.8649 278.9415,179.9157 279.6007,179.0269 280.3438,178.207 281.1638,177.4638 282.0526,176.8046 283.0018,176.2357 284.0021,175.7626 285.044,175.3898 286.1175,175.1209 287.2121,174.9585 288.3174,174.9042 289.4227,174.9585 290.5173,175.1209 291.5907,175.3898 292.6326,175.7626 293.633,176.2357 294.5822,176.8046 295.471,177.4638 296.2909,178.207 297.0341,179.0269 297.6933,179.9157 298.2622,180.8649 298.7353,181.8653 299.1081,182.9072 299.377,183.9806 299.5394,185.0753 299.5937,186.1805 299.5394,187.2858 299.377,188.3804 299.1081,189.4539 298.7353,190.4958 298.2622,191.4961 297.6933,192.4453 297.0341,193.3341 296.2909,194.1541"/>
    <polygon points="287.8825,202.4749 288.1942,202.8189 288.4707,203.1917 288.7093,203.5898 288.9078,204.0094 289.0642,204.4465 289.1769,204.8968 289.2451,205.3559 289.2678,205.8195 289.2451,206.2831 289.1769,206.7423 289.0642,207.1926 288.9078,207.6296 288.7093,208.0492 288.4707,208.4474 288.1942,208.8202 287.8825,209.1641 287.5385,209.4758 287.1657,209.7524 286.7676,209.991 286.3479,210.1894 285.9109,210.3458 285.4606,210.4586 285.0015,210.5267 284.5379,210.5495 284.0742,210.5267 283.6151,210.4586 283.1648,210.3458 282.7278,210.1894 282.3082,209.991 281.91,209.7524 281.5372,209.4758 281.1933,209.1641 280.8815,208.8202 280.605,208.4474 280.3664,208.0492 280.1679,207.6296 280.0116,207.1926 279.8988,206.7423 279.8307,206.2831 279.8079,205.8195 279.8307,205.3559 279.8988,204.8968 280.0116,204.4465 280.1679,204.0094 280.3664,203.5898 280.605,203.1917 280.8815,202.8189 281.1933,202.4749 281.5372,202.1632 281.91,201.8867 282.3082,201.6481 282.7278,201.4496 283.1648,201.2932 283.6151,201.1804 284.0742,201.1123 284.5379,201.0896 285.0015,201.1123 285.4606,201.1804 285.9109,201.2932 286.3479,201.4496 286.7676,201.6481 287.1657,201.8867 287.5385,202.1632"/>
    <polygon points="256.9235,180.2415 257.6667,181.0614 258.4866,181.8046 259.3754,182.4638 260.3246,183.0327 261.325,183.5058 262.3669,183.8786 263.4403,184.1475 264.5349,184.3099 265.6402,184.3642 266.7455,184.3099 267.8401,184.1475 268.9136,183.8786 269.9555,183.5058 270.9558,183.0327 271.905,182.4638 272.7938,181.8046 273.6138,181.0614 274.3569,180.2415 275.0161,179.3526 275.585,178.4035 276.0582,177.4031 276.431,176.3612 276.6999,175.2878 276.8622,174.1931 276.9165,173.0879 276.8622,171.9826 276.6999,170.888 276.431,169.8145 276.0582,168.7726 275.585,167.7722 275.0161,166.8231 274.3569,165.9342 273.6138,165.1143 272.7938,164.3712 271.905,163.7119 270.9558,163.143 269.9555,162.6699 268.9136,162.2971 267.8401,162.0282 266.7455,161.8658 265.6402,161.8115 264.5349,161.8658 263.4403,162.0282 262.3669,162.2971 261.325,162.6699 260.3246,163.143 259.3754,163.7119 258.4866,164.3712 257.6667,165.1143 256.9235,165.9342 256.2643,166.8231 255.6954,167.7722 255.2223,168.7726 254.8495,169.8145 254.5806,170.888 254.4182,171.9826 254.3639,173.0879 254.4182,174.1931 254.5806,175.2878 254.8495,176.3612 255.2223,177.4031 255.6954,178.4035 256.2643,179.3526"/>
    <polygon points="248.107,199.7192 246.6824,201.64 245.0764,203.412 243.3045,205.018 241.3836,206.4426 239.3324,207.672 237.1705,208.6945 234.9189,209.5002 232.5991,210.0813 230.2335,210.4322 227.8449,210.5495 225.4564,210.4322 223.0908,210.0813 220.771,209.5002 218.5193,208.6945 216.3575,207.672 214.3063,206.4426 212.3854,205.018 210.6135,203.412 209.0075,201.64 207.5829,199.7192 206.3534,197.668 205.3309,195.5061 204.5253,193.2545 203.9442,190.9347 203.5933,188.5691 203.476,186.1805 203.5933,183.7919 203.9442,181.4264 204.5253,179.1066 205.3309,176.8549 206.3534,174.6931 207.5829,172.6418 209.0075,170.721 210.6135,168.9491 212.3854,167.3431 214.3063,165.9185 216.3575,164.689 218.5193,163.6665 220.771,162.8609 223.0908,162.2798 225.4564,161.9289 227.8449,161.8115 230.2335,161.9289 232.5991,162.2798 234.9189,162.8609 237.1705,163.6665 239.3324,164.689 241.3836,165.9185 243.3045,167.3431 245.0764,168.9491 246.6824,170.721 248.107,172.6418 249.3365,174.6931 250.3589,176.8549 251.1646,179.1066 251.7457,181.4264 252.0966,183.7919 252.2139,186.1805 252.0966,188.5691 251.7457,190.9347 251.1646,193.2545 250.3589,195.5061 249.3365,197.668"/>
    <polygon points="214.3063,258.8133 212.3854,257.3887 210.6135,255.7827 209.0075,254.0107 207.5829,252.0899 206.3534,250.0386 205.3309,247.8768 204.5253,245.6251 203.9442,243.3053 203.5933,240.9398 203.476,238.5512 203.5933,236.1626 203.9442,233.797 204.5253,231.4773 205.3309,229.2256 206.3534,227.0637 207.5829,225.0125 209.0075,223.0917 210.6135,221.3197 212.3854,219.7137 214.3063,218.2891 216.3575,217.0597 218.5193,216.0372 220.771,215.2315 223.0908,214.6505 225.4564,214.2996 227.8449,214.1822 230.2335,214.2996 232.5991,214.6505 234.9189,215.2315 237.1705,216.0372 239.3324,217.0597 241.3836,218.2891 243.3045,219.7137 245.0764,221.3197 246.6824,223.0917 248.107,225.0125 249.3365,227.0637 250.3589,229.2256 251.1646,231.4773 251.7457,233.797 252.0966,236.1626 252.2139,238.5512 252.0966,240.9398 251.7457,243.3053 251.1646,245.6251 250.3589,247.8768 249.3365,250.0386 248.107,252.0899 246.6824,254.0107 245.0764,255.7827 243.3045,257.3887 241.3836,258.8133 239.3324,260.0427 237.1705,261.0652 234.9189,261.8708 232.5991,262.4519 230.2335,262.8028 227.8449,262.9202 225.4564,262.8028 223.0908,262.4519 220.771,261.8708 218.5193,261.0652 216.3575,260.0427"/>
    <polygon points="216.3575,269.4303 218.5193,268.4079 220.771,267.6022 223.0908,267.0211 225.4564,266.6702 227.8449,266.5529 230.2335,266.6702 232.5991,267.0211 234.9189,267.6022 237.1705,268.4079 239.3324,269.4303 241.3836,270.6598 243.3045,272.0844 245.0764,273.6904 246.6824,275.4623 248.107,277.3832 249.3365,279.4344 250.3589,281.5963 251.1646,283.8479 251.7457,286.1677 252.0966,288.5333 252.2139,290.9219 252.0966,293.3104 251.7457,295.676 251.1646,297.9958 250.3589,300.2475 249.3365,302.4093 248.107,304.4605 246.6824,306.3814 245.0764,308.1533 243.3045,309.7593 241.3836,311.1839 239.3324,312.4134 237.1705,313.4359 234.9189,314.2415 232.5991,314.8226 230.2335,315.1735 227.8449,315.2908 225.4564,315.1735 223.0908,314.8226 220.771,314.2415 218.5193,313.4359 216.3575,312.4134 214.3063,311.1839 212.3854,309.7593 210.6135,308.1533 209.0075,306.3814 207.5829,304.4605 206.3534,302.4093 205.3309,300.2475 204.5253,297.9958 203.9442,295.676 203.5933,293.3104 203.476,290.9219 203.5933,288.5333 203.9442,286.1677 204.5253,283.8479 205.3309,281.5963 206.3534,279.4344 207.5829,277.3832 209.0075,275.4623 210.6135,273.6904 212.3854,272.0844 214.3063,270.6598"/>
    <polygon points="188.2328,258.4717 187.6639,259.4209 187.1908,260.4213 186.818,261.4632 186.5491,262.5366 186.3867,263.6313 186.3324,264.7365 186.3867,265.8418 186.5491,266.9364 186.818,268.0099 187.1908,269.0518 187.6639,270.0521 188.2328,271.0013 188.892,271.8901 189.6352,272.7101 190.4551,273.4532 191.3439,274.1124 192.2931,274.6813 193.2935,275.1545 194.3354,275.5273 195.4088,275.7962 196.5035,275.9585 197.6087,276.0128 198.714,275.9585 199.8086,275.7962 200.8821,275.5273 201.924,275.1545 202.9243,274.6813 203.8735,274.1124 204.7623,273.4532 205.5823,272.7101 206.3254,271.8901 206.9846,271.0013 207.5535,270.0521 208.0267,269.0518 208.3995,268.0099 208.6684,266.9364 208.8307,265.8418 208.885,264.7365 208.8307,263.6313 208.6684,262.5366 208.3995,261.4632 208.0267,260.4213 207.5535,259.4209 206.9846,258.4717 206.3254,257.5829 205.5823,256.763 204.7623,256.0198 203.8735,255.3606 202.9243,254.7917 201.924,254.3186 200.8821,253.9458 199.8086,253.6769 198.714,253.5145 197.6087,253.4602 196.5035,253.5145 195.4088,253.6769 194.3354,253.9458 193.2935,254.3186 192.2931,254.7917 191.3439,255.3606 190.4551,256.0198 189.6352,256.763 188.892,257.5829"/>
    <polygon points="177.7834,251.1802 177.7606,251.6439 177.7834,252.1075 177.8515,252.5666 177.9643,253.0169 178.1207,253.4539 178.3191,253.8736 178.5578,254.2717 178.8343,254.6445 179.146,254.9885 179.4899,255.3002 179.8628,255.5767 180.2609,255.8153 180.6805,256.0138 181.1176,256.1702 181.5678,256.2829 182.027,256.3511 182.4906,256.3738 182.9542,256.3511 183.4134,256.2829 183.8637,256.1702 184.3007,256.0138 184.7203,255.8153 185.1184,255.5767 185.4913,255.3002 185.8352,254.9885 186.1469,254.6445 186.4234,254.2717 186.6621,253.8736 186.8605,253.4539 187.0169,253.0169 187.1297,252.5666 187.1978,252.1075 187.2206,251.6439 187.1978,251.1802 187.1297,250.7211 187.0169,250.2708 186.8605,249.8338 186.6621,249.4142 186.4234,249.016 186.1469,248.6432 185.8352,248.2993 185.4913,247.9875 185.1184,247.711 184.7203,247.4724 184.3007,247.2739 183.8637,247.1176 183.4134,247.0048 182.9542,246.9367 182.4906,246.9139 182.027,246.9367 181.5678,247.0048 181.1176,247.1176 180.6805,247.2739 180.2609,247.4724 179.8628,247.711 179.4899,247.9875 179.146,248.2993 178.8343,248.6432 178.5578,249.016 178.3191,249.4142 178.1207,249.8338 177.9643,250.2708 177.8515,250.7211"/>
    <polygon points="186.8605,302.2044 187.0169,302.6415 187.1297,303.0918 187.1978,303.5509 187.2206,304.0145 187.1978,304.4781 187.1297,304.9373 187.0169,305.3876 186.8605,305.8246 186.6621,306.2442 186.4234,306.6424 186.1469,307.0152 185.8352,307.3591 185.4913,307.6708 185.1184,307.9474 184.7203,308.186 184.3007,308.3845 183.8637,308.5408 183.4134,308.6536 182.9542,308.7217 182.4906,308.7445 182.027,308.7217 181.5678,308.6536 181.1176,308.5408 180.6805,308.3845 180.2609,308.186 179.8628,307.9474 179.4899,307.6708 179.146,307.3591 178.8343,307.0152 178.5578,306.6424 178.3191,306.2442 178.1207,305.8246 177.9643,305.3876 177.8515,304.9373 177.7834,304.4781 177.7606,304.0145 177.7834,303.5509 177.8515,303.0918 177.9643,302.6415 178.1207,302.2044 178.3191,301.7848 178.5578,301.3867 178.8343,301.0139 179.146,300.6699 179.4899,300.3582 179.8628,300.0817 180.2609,299.8431 180.6805,299.6446 181.1176,299.4882 181.5678,299.3754 182.027,299.3073 182.4906,299.2846 182.9542,299.3073 183.4134,299.3754 183.8637,299.4882 184.3007,299.6446 184.7203,299.8431 185.1184,300.0817 185.4913,300.3582 185.8352,300.6699 186.1469,301.0139 186.4234,301.3867 186.6621,301.7848"/>
    <polygon points="168.1514,301.1245 167.8074,300.8128 167.4957,300.4689 167.2192,300.096 166.9806,299.6979 166.7821,299.2783 166.6257,298.8412 166.5129,298.391 166.4448,297.9318 166.4221,297.4682 166.4448,297.0046 166.5129,296.5454 166.6257,296.0952 166.7821,295.6581 166.9806,295.2385 167.2192,294.8404 167.4957,294.4675 167.8074,294.1236 168.1514,293.8119 168.5242,293.5354 168.9223,293.2967 169.3419,293.0983 169.779,292.9419 170.2293,292.8291 170.6884,292.761 171.152,292.7382 171.6156,292.761 172.0748,292.8291 172.5251,292.9419 172.9621,293.0983 173.3817,293.2967 173.7799,293.5354 174.1527,293.8119 174.4966,294.1236 174.8083,294.4675 175.0849,294.8404 175.3235,295.2385 175.522,295.6581 175.6783,296.0952 175.7911,296.5454 175.8592,297.0046 175.882,297.4682 175.8592,297.9318 175.7911,298.391 175.6783,298.8412 175.522,299.2783 175.3235,299.6979 175.0849,300.096 174.8083,300.4689 174.4966,300.8128 174.1527,301.1245 173.7799,301.401 173.3817,301.6397 172.9621,301.8381 172.5251,301.9945 172.0748,302.1073 171.6156,302.1754 171.152,302.1982 170.6884,302.1754 170.2293,302.1073 169.779,301.9945 169.3419,301.8381 168.9223,301.6397 168.5242,301.401"/>
    <polygon points="163.7463,314.4794 163.4698,314.1065 163.158,313.7626 162.8141,313.4509 162.4413,313.1744 162.0431,312.9357 161.6235,312.7373 161.1865,312.5809 160.7362,312.4681 160.2771,312.4 159.8134,312.3772 159.3498,312.4 158.8907,312.4681 158.4404,312.5809 158.0034,312.7373 157.5838,312.9357 157.1856,313.1744 156.8128,313.4509 156.4689,313.7626 156.1571,314.1065 155.8806,314.4794 155.642,314.8775 155.4435,315.2971 155.2871,315.7342 155.1744,316.1844 155.1063,316.6436 155.0835,317.1072 155.1063,317.5708 155.1744,318.03 155.2871,318.4802 155.4435,318.9173 155.642,319.3369 155.8806,319.735 156.1571,320.1079 156.4689,320.4518 156.8128,320.7635 157.1856,321.04 157.5838,321.2787 158.0034,321.4771 158.4404,321.6335 158.8907,321.7463 159.3498,321.8144 159.8134,321.8372 160.2771,321.8144 160.7362,321.7463 161.1865,321.6335 161.6235,321.4771 162.0431,321.2787 162.4413,321.04 162.8141,320.7635 163.158,320.4518 163.4698,320.1079 163.7463,319.735 163.9849,319.3369 164.1834,318.9173 164.3397,318.4802 164.4525,318.03 164.5206,317.5708 164.5434,317.1072 164.5206,316.6436 164.4525,316.1844 164.3397,315.7342 164.1834,315.2971 163.9849,314.8775"/>
    <polygon points="155.4435,302.2044 155.2871,302.6415 155.1744,303.0918 155.1063,303.5509 155.0835,304.0145 155.1063,304.4781 155.1744,304.9373 155.2871,305.3876 155.4435,305.8246 155.642,306.2442 155.8806,306.6424 156.1571,307.0152 156.4689,307.3591 156.8128,307.6708 157.1856,307.9474 157.5838,308.186 158.0034,308.3845 158.4404,308.5408 158.8907,308.6536 159.3498,308.7217 159.8134,308.7445 160.2771,308.7217 160.7362,308.6536 161.1865,308.5408 161.6235,308.3845 162.0431,308.186 162.4413,307.9474 162.8141,307.6708 163.158,307.3591 163.4698,307.0152 163.7463,306.6424 163.9849,306.2442 164.1834,305.8246 164.3397,305.3876 164.4525,304.9373 164.5206,304.4781 164.5434,304.0145 164.5206,303.5509 164.4525,303.0918 164.3397,302.6415 164.1834,302.2044 163.9849,301.7848 163.7463,301.3867 163.4698,301.0139 163.158,300.6699 162.8141,300.3582 162.4413,300.0817 162.0431,299.8431 161.6235,299.6446 161.1865,299.4882 160.7362,299.3754 160.2771,299.3073 159.8134,299.2846 159.3498,299.3073 158.8907,299.3754 158.4404,299.4882 158.0034,299.6446 157.5838,299.8431 157.1856,300.0817 156.8128,300.3582 156.4689,300.6699 156.1571,301.0139 155.8806,301.3867 155.642,301.7848"/>
    <polygon points="145.1303,307.2163 144.8185,307.5602 144.542,307.933 144.3034,308.3312 144.1049,308.7508 143.9486,309.1878 143.8358,309.6381 143.7677,310.0972 143.7449,310.5609 143.7677,311.0245 143.8358,311.4836 143.9486,311.9339 144.1049,312.3709 144.3034,312.7906 144.542,313.1887 144.8185,313.5615 145.1303,313.9055 145.4742,314.2172 145.847,314.4937 146.2452,314.7323 146.6648,314.9308 147.1018,315.0872 147.5521,315.2 148.0112,315.2681 148.4749,315.2908 148.9385,315.2681 149.3976,315.2 149.8479,315.0872 150.2849,314.9308 150.7046,314.7323 151.1027,314.4937 151.4755,314.2172 151.8195,313.9055 152.1312,313.5615 152.4077,313.1887 152.6463,312.7906 152.8448,312.3709 153.0012,311.9339 153.114,311.4836 153.1821,311.0245 153.2048,310.5609 153.1821,310.0972 153.114,309.6381 153.0012,309.1878 152.8448,308.7508 152.6463,308.3312 152.4077,307.933 152.1312,307.5602 151.8195,307.2163 151.4755,306.9045 151.1027,306.628 150.7046,306.3894 150.2849,306.1909 149.8479,306.0346 149.3976,305.9218 148.9385,305.8537 148.4749,305.8309 148.0112,305.8537 147.5521,305.9218 147.1018,306.0346 146.6648,306.1909 146.2452,306.3894 145.847,306.628 145.4742,306.9045"/>
    <polygon points="138.0591,308.6536 138.5093,308.5408 138.9464,308.3845 139.366,308.186 139.7641,307.9474 140.1369,307.6708 140.4809,307.3591 140.7926,307.0152 141.0691,306.6424 141.3077,306.2442 141.5062,305.8246 141.6626,305.3876 141.7754,304.9373 141.8435,304.4781 141.8663,304.0145 141.8435,303.5509 141.7754,303.0918 141.6626,302.6415 141.5062,302.2044 141.3077,301.7848 141.0691,301.3867 140.7926,301.0139 140.4809,300.6699 140.1369,300.3582 139.7641,300.0817 139.366,299.8431 138.9464,299.6446 138.5093,299.4882 138.0591,299.3754 137.5999,299.3073 137.1363,299.2846 136.6727,299.3073 136.2135,299.3754 135.7632,299.4882 135.3262,299.6446 134.9066,299.8431 134.5084,300.0817 134.1356,300.3582 133.7917,300.6699 133.48,301.0139 133.2035,301.3867 132.9648,301.7848 132.7664,302.2044 132.61,302.6415 132.4972,303.0918 132.4291,303.5509 132.4063,304.0145 132.4291,304.4781 132.4972,304.9373 132.61,305.3876 132.7664,305.8246 132.9648,306.2442 133.2035,306.6424 133.48,307.0152 133.7917,307.3591 134.1356,307.6708 134.5084,307.9474 134.9066,308.186 135.3262,308.3845 135.7632,308.5408 136.2135,308.6536 136.6727,308.7217 137.1363,308.7445 137.5999,308.7217"/>
    <polygon points="132.4972,316.1844 132.4291,316.6436 132.4063,317.1072 132.4291,317.5708 132.4972,318.03 132.61,318.4802 132.7664,318.9173 132.9648,319.3369 133.2035,319.735 133.48,320.1079 133.7917,320.4518 134.1356,320.7635 134.5084,321.04 134.9066,321.2787 135.3262,321.4771 135.7632,321.6335 136.2135,321.7463 136.6727,321.8144 137.1363,321.8372 137.5999,321.8144 138.0591,321.7463 138.5093,321.6335 138.9464,321.4771 139.366,321.2787 139.7641,321.04 140.1369,320.7635 140.4809,320.4518 140.7926,320.1079 141.0691,319.735 141.3077,319.3369 141.5062,318.9173 141.6626,318.4802 141.7754,318.03 141.8435,317.5708 141.8663,317.1072 141.8435,316.6436 141.7754,316.1844 141.6626,315.7342 141.5062,315.2971 141.3077,314.8775 141.0691,314.4794 140.7926,314.1065 140.4809,313.7626 140.1369,313.4509 139.7641,313.1744 139.366,312.9357 138.9464,312.7373 138.5093,312.5809 138.0591,312.4681 137.5999,312.4 137.1363,312.3772 136.6727,312.4 136.2135,312.4681 135.7632,312.5809 135.3262,312.7373 134.9066,312.9357 134.5084,313.1744 134.1356,313.4509 133.7917,313.7626 133.48,314.1065 133.2035,314.4794 132.9648,314.8775 132.7664,315.2971 132.61,315.7342"/>
    <polygon points="143.9486,325.0266 144.1049,325.4636 144.3034,325.8832 144.542,326.2814 144.8185,326.6542 145.1303,326.9981 145.4742,327.3098 145.847,327.5864 146.2452,327.825 146.6648,328.0235 147.1018,328.1798 147.5521,328.2926 148.0112,328.3607 148.4749,328.3835 148.9385,328.3607 149.3976,328.2926 149.8479,328.1798 150.2849,328.0235 150.7046,327.825 151.1027,327.5864 151.4755,327.3098 151.8195,326.9981 152.1312,326.6542 152.4077,326.2814 152.6463,325.8832 152.8448,325.4636 153.0012,325.0266 153.114,324.5763 153.1821,324.1172 153.2048,323.6535 153.1821,323.1899 153.114,322.7308 153.0012,322.2805 152.8448,321.8434 152.6463,321.4238 152.4077,321.0257 152.1312,320.6529 151.8195,320.3089 151.4755,319.9972 151.1027,319.7207 150.7046,319.4821 150.2849,319.2836 149.8479,319.1272 149.3976,319.0144 148.9385,318.9463 148.4749,318.9236 148.0112,318.9463 147.5521,319.0144 147.1018,319.1272 146.6648,319.2836 146.2452,319.4821 145.847,319.7207 145.4742,319.9972 145.1303,320.3089 144.8185,320.6529 144.542,321.0257 144.3034,321.4238 144.1049,321.8434 143.9486,322.2805 143.8358,322.7308 143.7677,323.1899 143.7449,323.6535 143.7677,324.1172 143.8358,324.5763"/>
    <polygon points="150.7046,332.5747 150.2849,332.3763 149.8479,332.2199 149.3976,332.1071 148.9385,332.039 148.4749,332.0162 148.0112,332.039 147.5521,332.1071 147.1018,332.2199 146.6648,332.3763 146.2452,332.5747 145.847,332.8134 145.4742,333.0899 145.1303,333.4016 144.8185,333.7455 144.542,334.1184 144.3034,334.5165 144.1049,334.9361 143.9486,335.3732 143.8358,335.8234 143.7677,336.2826 143.7449,336.7462 143.7677,337.2098 143.8358,337.669 143.9486,338.1192 144.1049,338.5563 144.3034,338.9759 144.542,339.374 144.8185,339.7469 145.1303,340.0908 145.4742,340.4025 145.847,340.679 146.2452,340.9177 146.6648,341.1161 147.1018,341.2725 147.5521,341.3853 148.0112,341.4534 148.4749,341.4762 148.9385,341.4534 149.3976,341.3853 149.8479,341.2725 150.2849,341.1161 150.7046,340.9177 151.1027,340.679 151.4755,340.4025 151.8195,340.0908 152.1312,339.7469 152.4077,339.374 152.6463,338.9759 152.8448,338.5563 153.0012,338.1192 153.114,337.669 153.1821,337.2098 153.2048,336.7462 153.1821,336.2826 153.114,335.8234 153.0012,335.3732 152.8448,334.9361 152.6463,334.5165 152.4077,334.1184 152.1312,333.7455 151.8195,333.4016 151.4755,333.0899 151.1027,332.8134"/>
    <polygon points="159.3498,334.9071 159.8134,334.9298 160.2771,334.9071 160.7362,334.839 161.1865,334.7262 161.6235,334.5698 162.0431,334.3713 162.4413,334.1327 162.8141,333.8562 163.158,333.5445 163.4698,333.2005 163.7463,332.8277 163.9849,332.4296 164.1834,332.0099 164.3397,331.5729 164.4525,331.1226 164.5206,330.6635 164.5434,330.1999 164.5206,329.7362 164.4525,329.2771 164.3397,328.8268 164.1834,328.3898 163.9849,327.9702 163.7463,327.572 163.4698,327.1992 163.158,326.8553 162.8141,326.5435 162.4413,326.267 162.0431,326.0284 161.6235,325.8299 161.1865,325.6736 160.7362,325.5608 160.2771,325.4927 159.8134,325.4699 159.3498,325.4927 158.8907,325.5608 158.4404,325.6736 158.0034,325.8299 157.5838,326.0284 157.1856,326.267 156.8128,326.5435 156.4689,326.8553 156.1571,327.1992 155.8806,327.572 155.642,327.9702 155.4435,328.3898 155.2871,328.8268 155.1744,329.2771 155.1063,329.7362 155.0835,330.1999 155.1063,330.6635 155.1744,331.1226 155.2871,331.5729 155.4435,332.0099 155.642,332.4296 155.8806,332.8277 156.1571,333.2005 156.4689,333.5445 156.8128,333.8562 157.1856,334.1327 157.5838,334.3713 158.0034,334.5698 158.4404,334.7262 158.8907,334.839"/>
    <polygon points="169.779,341.2725 170.2293,341.3853 170.6884,341.4534 171.152,341.4762 171.6156,341.4534 172.0748,341.3853 172.5251,341.2725 172.9621,341.1161 173.3817,340.9177 173.7799,340.679 174.1527,340.4025 174.4966,340.0908 174.8083,339.7469 175.0849,339.374 175.3235,338.9759 175.522,338.5563 175.6783,338.1192 175.7911,337.669 175.8592,337.2098 175.882,336.7462 175.8592,336.2826 175.7911,335.8234 175.6783,335.3732 175.522,334.9361 175.3235,334.5165 175.0849,334.1184 174.8083,333.7455 174.4966,333.4016 174.1527,333.0899 173.7799,332.8134 173.3817,332.5747 172.9621,332.3763 172.5251,332.2199 172.0748,332.1071 171.6156,332.039 171.152,332.0162 170.6884,332.039 170.2293,332.1071 169.779,332.2199 169.3419,332.3763 168.9223,332.5747 168.5242,332.8134 168.1514,333.0899 167.8074,333.4016 167.4957,333.7455 167.2192,334.1184 166.9806,334.5165 166.7821,334.9361 166.6257,335.3732 166.5129,335.8234 166.4448,336.2826 166.4221,336.7462 166.4448,337.2098 166.5129,337.669 166.6257,338.1192 166.7821,338.5563 166.9806,338.9759 167.2192,339.374 167.4957,339.7469 167.8074,340.0908 168.1514,340.4025 168.5242,340.679 168.9223,340.9177 169.3419,341.1161"/>
    <polygon points="171.6156,345.1317 171.152,345.1089 170.6884,345.1317 170.2293,345.1998 169.779,345.3126 169.3419,345.4689 168.9223,345.6674 168.5242,345.906 168.1514,346.1825 167.8074,346.4943 167.4957,346.8382 167.2192,347.211 166.9806,347.6092 166.7821,348.0288 166.6257,348.4658 166.5129,348.9161 166.4448,349.3752 166.4221,349.8389 166.4448,350.3025 166.5129,350.7616 166.6257,351.2119 166.7821,351.6489 166.9806,352.0686 167.2192,352.4667 167.4957,352.8395 167.8074,353.1835 168.1514,353.4952 168.5242,353.7717 168.9223,354.0103 169.3419,354.2088 169.779,354.3652 170.2293,354.478 170.6884,354.5461 171.152,354.5688 171.6156,354.5461 172.0748,354.478 172.5251,354.3652 172.9621,354.2088 173.3817,354.0103 173.7799,353.7717 174.1527,353.4952 174.4966,353.1835 174.8083,352.8395 175.0849,352.4667 175.3235,352.0686 175.522,351.6489 175.6783,351.2119 175.7911,350.7616 175.8592,350.3025 175.882,349.8389 175.8592,349.3752 175.7911,348.9161 175.6783,348.4658 175.522,348.0288 175.3235,347.6092 175.0849,347.211 174.8083,346.8382 174.4966,346.4943 174.1527,346.1825 173.7799,345.906 173.3817,345.6674 172.9621,345.4689 172.5251,345.3126 172.0748,345.1998"/>
    <polygon points="181.1176,338.7662 180.6805,338.9226 180.2609,339.1211 179.8628,339.3597 179.4899,339.6362 179.146,339.9479 178.8343,340.2919 178.5578,340.6647 178.3191,341.0628 178.1207,341.4825 177.9643,341.9195 177.8515,342.3698 177.7834,342.8289 177.7606,343.2925 177.7834,343.7562 177.8515,344.2153 177.9643,344.6656 178.1207,345.1026 178.3191,345.5222 178.5578,345.9204 178.8343,346.2932 179.146,346.6371 179.4899,346.9489 179.8628,347.2254 180.2609,347.464 180.6805,347.6625 181.1176,347.8188 181.5678,347.9316 182.027,347.9997 182.4906,348.0225 182.9542,347.9997 183.4134,347.9316 183.8637,347.8188 184.3007,347.6625 184.7203,347.464 185.1184,347.2254 185.4913,346.9489 185.8352,346.6371 186.1469,346.2932 186.4234,345.9204 186.6621,345.5222 186.8605,345.1026 187.0169,344.6656 187.1297,344.2153 187.1978,343.7562 187.2206,343.2925 187.1978,342.8289 187.1297,342.3698 187.0169,341.9195 186.8605,341.4825 186.6621,341.0628 186.4234,340.6647 186.1469,340.2919 185.8352,339.9479 185.4913,339.6362 185.1184,339.3597 184.7203,339.1211 184.3007,338.9226 183.8637,338.7662 183.4134,338.6534 182.9542,338.5853 182.4906,338.5626 182.027,338.5853 181.5678,338.6534"/>
    <polygon points="182.9542,334.9071 183.4134,334.839 183.8637,334.7262 184.3007,334.5698 184.7203,334.3713 185.1184,334.1327 185.4913,333.8562 185.8352,333.5445 186.1469,333.2005 186.4234,332.8277 186.6621,332.4296 186.8605,332.0099 187.0169,331.5729 187.1297,331.1226 187.1978,330.6635 187.2206,330.1999 187.1978,329.7362 187.1297,329.2771 187.0169,328.8268 186.8605,328.3898 186.6621,327.9702 186.4234,327.572 186.1469,327.1992 185.8352,326.8553 185.4913,326.5435 185.1184,326.267 184.7203,326.0284 184.3007,325.8299 183.8637,325.6736 183.4134,325.5608 182.9542,325.4927 182.4906,325.4699 182.027,325.4927 181.5678,325.5608 181.1176,325.6736 180.6805,325.8299 180.2609,326.0284 179.8628,326.267 179.4899,326.5435 179.146,326.8553 178.8343,327.1992 178.5578,327.572 178.3191,327.9702 178.1207,328.3898 177.9643,328.8268 177.8515,329.2771 177.7834,329.7362 177.7606,330.1999 177.7834,330.6635 177.8515,331.1226 177.9643,331.5729 178.1207,332.0099 178.3191,332.4296 178.5578,332.8277 178.8343,333.2005 179.146,333.5445 179.4899,333.8562 179.8628,334.1327 180.2609,334.3713 180.6805,334.5698 181.1176,334.7262 181.5678,334.839 182.027,334.9071 182.4906,334.9298"/>
    <polygon points="191.5995,340.9177 192.0191,341.1161 192.4562,341.2725 192.9064,341.3853 193.3656,341.4534 193.8292,341.4762 194.2928,341.4534 194.752,341.3853 195.2022,341.2725 195.6393,341.1161 196.0589,340.9177 196.457,340.679 196.8299,340.4025 197.1738,340.0908 197.4855,339.7469 197.762,339.374 198.0007,338.9759 198.1991,338.5563 198.3555,338.1192 198.4683,337.669 198.5364,337.2098 198.5592,336.7462 198.5364,336.2826 198.4683,335.8234 198.3555,335.3732 198.1991,334.9361 198.0007,334.5165 197.762,334.1184 197.4855,333.7455 197.1738,333.4016 196.8299,333.0899 196.457,332.8134 196.0589,332.5747 195.6393,332.3763 195.2022,332.2199 194.752,332.1071 194.2928,332.039 193.8292,332.0162 193.3656,332.039 192.9064,332.1071 192.4562,332.2199 192.0191,332.3763 191.5995,332.5747 191.2014,332.8134 190.8285,333.0899 190.4846,333.4016 190.1729,333.7455 189.8964,334.1184 189.6577,334.5165 189.4593,334.9361 189.3029,335.3732 189.1901,335.8234 189.122,336.2826 189.0992,336.7462 189.122,337.2098 189.1901,337.669 189.3029,338.1192 189.4593,338.5563 189.6577,338.9759 189.8964,339.374 190.1729,339.7469 190.4846,340.0908 190.8285,340.4025 191.2014,340.679"/>
    <polygon points="201.924,306.6892 200.8821,306.3164 199.8086,306.0476 198.714,305.8852 197.6087,305.8309 196.5035,305.8852 195.4088,306.0476 194.3354,306.3164 193.2935,306.6892 192.2931,307.1624 191.3439,307.7313 190.4551,308.3905 189.6352,309.1336 188.892,309.9536 188.2328,310.8424 187.6639,311.7916 187.1908,312.7919 186.818,313.8339 186.5491,314.9073 186.3867,316.0019 186.3324,317.1072 186.3867,318.2125 186.5491,319.3071 186.818,320.3805 187.1908,321.4225 187.6639,322.4228 188.2328,323.372 188.892,324.2608 189.6352,325.0808 190.4551,325.8239 191.3439,326.4831 192.2931,327.052 193.2935,327.5251 194.3354,327.898 195.4088,328.1668 196.5035,328.3292 197.6087,328.3835 198.714,328.3292 199.8086,328.1668 200.8821,327.898 201.924,327.5251 202.9243,327.052 203.8735,326.4831 204.7623,325.8239 205.5823,325.0808 206.3254,324.2608 206.9846,323.372 207.5535,322.4228 208.0267,321.4225 208.3995,320.3805 208.6684,319.3071 208.8307,318.2125 208.885,317.1072 208.8307,316.0019 208.6684,314.9073 208.3995,313.8339 208.0267,312.7919 207.5535,311.7916 206.9846,310.8424 206.3254,309.9536 205.5823,309.1336 204.7623,308.3905 203.8735,307.7313 202.9243,307.1624"/>
    <polygon points="260.3246,294.0697 261.325,293.5966 262.3669,293.2238 263.4403,292.9549 264.5349,292.7925 265.6402,292.7382 266.7455,292.7925 267.8401,292.9549 268.9136,293.2238 269.9555,293.5966 270.9558,294.0697 271.905,294.6386 272.7938,295.2978 273.6138,296.041 274.3569,296.8609 275.0161,297.7498 275.585,298.6989 276.0582,299.6993 276.431,300.7412 276.6999,301.8146 276.8622,302.9093 276.9165,304.0145 276.8622,305.1198 276.6999,306.2144 276.431,307.2879 276.0582,308.3298 275.585,309.3301 275.0161,310.2793 274.3569,311.1681 273.6138,311.9881 272.7938,312.7312 271.905,313.3904 270.9558,313.9593 269.9555,314.4325 268.9136,314.8053 267.8401,315.0742 266.7455,315.2365 265.6402,315.2908 264.5349,315.2365 263.4403,315.0742 262.3669,314.8053 261.325,314.4325 260.3246,313.9593 259.3754,313.3904 258.4866,312.7312 257.6667,311.9881 256.9235,311.1681 256.2643,310.2793 255.6954,309.3301 255.2223,308.3298 254.8495,307.2879 254.5806,306.2144 254.4182,305.1198 254.3639,304.0145 254.4182,302.9093 254.5806,301.8146 254.8495,300.7412 255.2223,299.6993 255.6954,298.6989 256.2643,297.7498 256.9235,296.8609 257.6667,296.041 258.4866,295.2978 259.3754,294.6386"/>
    <polygon points="282.5249,287.2505 280.2732,288.0562 277.9534,288.6373 275.5879,288.9882 273.1993,289.1055 270.8107,288.9882 268.4451,288.6373 266.1253,288.0562 263.8737,287.2505 261.7118,286.228 259.6606,284.9986 257.7398,283.574 255.9678,281.968 254.3618,280.196 252.9372,278.2752 251.7078,276.224 250.6853,274.0621 249.8796,271.8105 249.2985,269.4907 248.9476,267.1251 248.8303,264.7365 248.9476,262.348 249.2985,259.9824 249.8796,257.6626 250.6853,255.4109 251.7078,253.2491 252.9372,251.1979 254.3618,249.277 255.9678,247.5051 257.7398,245.8991 259.6606,244.4745 261.7118,243.245 263.8737,242.2225 266.1253,241.4169 268.4451,240.8358 270.8107,240.4849 273.1993,240.3676 275.5879,240.4849 277.9534,240.8358 280.2732,241.4169 282.5249,242.2225 284.6867,243.245 286.738,244.4745 288.6588,245.8991 290.4307,247.5051 292.0367,249.277 293.4613,251.1979 294.6908,253.2491 295.7133,255.4109 296.5189,257.6626 297.1,259.9824 297.4509,262.348 297.5682,264.7365 297.4509,267.1251 297.1,269.4907 296.5189,271.8105 295.7133,274.0621 294.6908,276.224 293.4613,278.2752 292.0367,280.196 290.4307,281.968 288.6588,283.574 286.738,284.9986 284.6867,286.228"/>
    <polygon points="287.1657,306.628 287.5385,306.9045 287.8825,307.2163 288.1942,307.5602 288.4707,307.933 288.7093,308.3312 288.9078,308.7508 289.0642,309.1878 289.1769,309.6381 289.2451,310.0972 289.2678,310.5609 289.2451,311.0245 289.1769,311.4836 289.0642,311.9339 288.9078,312.3709 288.7093,312.7906 288.4707,313.1887 288.1942,313.5615 287.8825,313.9055 287.5385,314.2172 287.1657,314.4937 286.7676,314.7323 286.3479,314.9308 285.9109,315.0872 285.4606,315.2 285.0015,315.2681 284.5379,315.2908 284.0742,315.2681 283.6151,315.2 283.1648,315.0872 282.7278,314.9308 282.3082,314.7323 281.91,314.4937 281.5372,314.2172 281.1933,313.9055 280.8815,313.5615 280.605,313.1887 280.3664,312.7906 280.1679,312.3709 280.0116,311.9339 279.8988,311.4836 279.8307,311.0245 279.8079,310.5609 279.8307,310.0972 279.8988,309.6381 280.0116,309.1878 280.1679,308.7508 280.3664,308.3312 280.605,307.933 280.8815,307.5602 281.1933,307.2163 281.5372,306.9045 281.91,306.628 282.3082,306.3894 282.7278,306.1909 283.1648,306.0346 283.6151,305.9218 284.0742,305.8537 284.5379,305.8309 285.0015,305.8537 285.4606,305.9218 285.9109,306.0346 286.3479,306.1909 286.7676,306.3894"/>
    <polygon points="266.7455,345.1632 267.8401,345.3256 268.9136,345.5944 269.9555,345.9673 270.9558,346.4404 271.905,347.0093 272.7938,347.6685 273.6138,348.4116 274.3569,349.2316 275.0161,350.1204 275.585,351.0696 276.0582,352.0699 276.431,353.1119 276.6999,354.1853 276.8622,355.2799 276.9165,356.3852 276.8622,357.4905 276.6999,358.5851 276.431,359.6585 276.0582,360.7005 275.585,361.7008 275.0161,362.65 274.3569,363.5388 273.6138,364.3588 272.7938,365.1019 271.905,365.7611 270.9558,366.33 269.9555,366.8031 268.9136,367.176 267.8401,367.4448 266.7455,367.6072 265.6402,367.6615 264.5349,367.6072 263.4403,367.4448 262.3669,367.176 261.325,366.8031 260.3246,366.33 259.3754,365.7611 258.4866,365.1019 257.6667,364.3588 256.9235,363.5388 256.2643,362.65 255.6954,361.7008 255.2223,360.7005 254.8495,359.6585 254.5806,358.5851 254.4182,357.4905 254.3639,356.3852 254.4182,355.2799 254.5806,354.1853 254.8495,353.1119 255.2223,352.0699 255.6954,351.0696 256.2643,350.1204 256.9235,349.2316 257.6667,348.4116 258.4866,347.6685 259.3754,347.0093 260.3246,346.4404 261.325,345.9673 262.3669,345.5944 263.4403,345.3256 264.5349,345.1632 265.6402,345.1089"/>
    <polygon points="287.8825,340.0908 287.5385,340.4025 287.1657,340.679 286.7676,340.9177 286.3479,341.1161 285.9109,341.2725 285.4606,341.3853 285.0015,341.4534 284.5379,341.4762 284.0742,341.4534 283.6151,341.3853 283.1648,341.2725 282.7278,341.1161 282.3082,340.9177 281.91,340.679 281.5372,340.4025 281.1933,340.0908 280.8815,339.7469 280.605,339.374 280.3664,338.9759 280.1679,338.5563 280.0116,338.1192 279.8988,337.669 279.8307,337.2098 279.8079,336.7462 279.8307,336.2826 279.8988,335.8234 280.0116,335.3732 280.1679,334.9361 280.3664,334.5165 280.605,334.1184 280.8815,333.7455 281.1933,333.4016 281.5372,333.0899 281.91,332.8134 282.3082,332.5747 282.7278,332.3763 283.1648,332.2199 283.6151,332.1071 284.0742,332.039 284.5379,332.0162 285.0015,332.039 285.4606,332.1071 285.9109,332.2199 286.3479,332.3763 286.7676,332.5747 287.1657,332.8134 287.5385,333.0899 287.8825,333.4016 288.1942,333.7455 288.4707,334.1184 288.7093,334.5165 288.9078,334.9361 289.0642,335.3732 289.1769,335.8234 289.2451,336.2826 289.2678,336.7462 289.2451,337.2098 289.1769,337.669 289.0642,338.1192 288.9078,338.5563 288.7093,338.9759 288.4707,339.374 288.1942,339.7469"/>
    <polygon points="289.2451,350.3025 289.1769,350.7616 289.0642,351.2119 288.9078,351.6489 288.7093,352.0686 288.4707,352.4667 288.1942,352.8395 287.8825,353.1835 287.5385,353.4952 287.1657,353.7717 286.7676,354.0103 286.3479,354.2088 285.9109,354.3652 285.4606,354.478 285.0015,354.5461 284.5379,354.5688 284.0742,354.5461 283.6151,354.478 283.1648,354.3652 282.7278,354.2088 282.3082,354.0103 281.91,353.7717 281.5372,353.4952 281.1933,353.1835 280.8815,352.8395 280.605,352.4667 280.3664,352.0686 280.1679,351.6489 280.0116,351.2119 279.8988,350.7616 279.8307,350.3025 279.8079,349.8389 279.8307,349.3752 279.8988,348.9161 280.0116,348.4658 280.1679,348.0288 280.3664,347.6092 280.605,347.211 280.8815,346.8382 281.1933,346.4943 281.5372,346.1825 281.91,345.906 282.3082,345.6674 282.7278,345.4689 283.1648,345.3126 283.6151,345.1998 284.0742,345.1317 284.5379,345.1089 285.0015,345.1317 285.4606,345.1998 285.9109,345.3126 286.3479,345.4689 286.7676,345.6674 287.1657,345.906 287.5385,346.1825 287.8825,346.4943 288.1942,346.8382 288.4707,347.211 288.7093,347.6092 288.9078,348.0288 289.0642,348.4658 289.1769,348.9161 289.2451,349.3752 289.2678,349.8389"/>
    <polygon points="288.7093,360.7018 288.9078,361.1215 289.0642,361.5585 289.1769,362.0088 289.2451,362.4679 289.2678,362.9315 289.2451,363.3952 289.1769,363.8543 289.0642,364.3046 288.9078,364.7416 288.7093,365.1612 288.4707,365.5594 288.1942,365.9322 287.8825,366.2761 287.5385,366.5879 287.1657,366.8644 286.7676,367.103 286.3479,367.3015 285.9109,367.4578 285.4606,367.5706 285.0015,367.6387 284.5379,367.6615 284.0742,367.6387 283.6151,367.5706 283.1648,367.4578 282.7278,367.3015 282.3082,367.103 281.91,366.8644 281.5372,366.5879 281.1933,366.2761 280.8815,365.9322 280.605,365.5594 280.3664,365.1612 280.1679,364.7416 280.0116,364.3046 279.8988,363.8543 279.8307,363.3952 279.8079,362.9315 279.8307,362.4679 279.8988,362.0088 280.0116,361.5585 280.1679,361.1215 280.3664,360.7018 280.605,360.3037 280.8815,359.9309 281.1933,359.5869 281.5372,359.2752 281.91,358.9987 282.3082,358.7601 282.7278,358.5616 283.1648,358.4052 283.6151,358.2924 284.0742,358.2243 284.5379,358.2016 285.0015,358.2243 285.4606,358.2924 285.9109,358.4052 286.3479,358.5616 286.7676,358.7601 287.1657,358.9987 287.5385,359.2752 287.8825,359.5869 288.1942,359.9309 288.4707,360.3037"/>
    <polygon points="259.2329,379.957 258.86,379.6805 258.5161,379.3688 258.2044,379.0249 257.9279,378.652 257.6892,378.2539 257.4908,377.8343 257.3344,377.3972 257.2216,376.947 257.1535,376.4878 257.1307,376.0242 257.1535,375.5606 257.2216,375.1014 257.3344,374.6512 257.4908,374.2141 257.6892,373.7945 257.9279,373.3964 258.2044,373.0235 258.5161,372.6796 258.86,372.3679 259.2329,372.0914 259.631,371.8527 260.0506,371.6543 260.4877,371.4979 260.9379,371.3851 261.3971,371.317 261.8607,371.2942 262.3243,371.317 262.7835,371.3851 263.2337,371.4979 263.6708,371.6543 264.0904,371.8527 264.4885,372.0914 264.8614,372.3679 265.2053,372.6796 265.517,373.0235 265.7935,373.3964 266.0322,373.7945 266.2306,374.2141 266.387,374.6512 266.4998,375.1014 266.5679,375.5606 266.5907,376.0242 266.5679,376.4878 266.4998,376.947 266.387,377.3972 266.2306,377.8343 266.0322,378.2539 265.7935,378.652 265.517,379.0249 265.2053,379.3688 264.8614,379.6805 264.4885,379.957 264.0904,380.1957 263.6708,380.3941 263.2337,380.5505 262.7835,380.6633 262.3243,380.7314 261.8607,380.7542 261.3971,380.7314 260.9379,380.6633 260.4877,380.5505 260.0506,380.3941 259.631,380.1957"/>
    <polygon points="230.2335,367.5442 232.5991,367.1933 234.9189,366.6122 237.1705,365.8065 239.3324,364.784 241.3836,363.5546 243.3045,362.13 245.0764,360.524 246.6824,358.752 248.107,356.8312 249.3365,354.78 250.3589,352.6181 251.1646,350.3665 251.7457,348.0467 252.0966,345.6811 252.2139,343.2925 252.0966,340.904 251.7457,338.5384 251.1646,336.2186 250.3589,333.9669 249.3365,331.8051 248.107,329.7539 246.6824,327.833 245.0764,326.0611 243.3045,324.4551 241.3836,323.0305 239.3324,321.801 237.1705,320.7785 234.9189,319.9729 232.5991,319.3918 230.2335,319.0409 227.8449,318.9236 225.4564,319.0409 223.0908,319.3918 220.771,319.9729 218.5193,320.7785 216.3575,321.801 214.3063,323.0305 212.3854,324.4551 210.6135,326.0611 209.0075,327.833 207.5829,329.7539 206.3534,331.8051 205.3309,333.9669 204.5253,336.2186 203.9442,338.5384 203.5933,340.904 203.476,343.2925 203.5933,345.6811 203.9442,348.0467 204.5253,350.3665 205.3309,352.6181 206.3534,354.78 207.5829,356.8312 209.0075,358.752 210.6135,360.524 212.3854,362.13 214.3063,363.5546 216.3575,364.784 218.5193,365.8065 220.771,366.6122 223.0908,367.1933 225.4564,367.5442 227.8449,367.6615"/>
    <polygon points="219.1806,393.7925 220.2859,393.8468 221.3912,393.7925 222.4858,393.6302 223.5592,393.3613 224.6011,392.9885 225.6015,392.5153 226.5507,391.9464 227.4395,391.2872 228.2594,390.5441 229.0026,389.7241 229.6618,388.8353 230.2307,387.8861 230.7038,386.8858 231.0766,385.8439 231.3455,384.7704 231.5079,383.6758 231.5622,382.5705 231.5079,381.4653 231.3455,380.3706 231.0766,379.2972 230.7038,378.2553 230.2307,377.2549 229.6618,376.3058 229.0026,375.4169 228.2594,374.597 227.4395,373.8538 226.5507,373.1946 225.6015,372.6257 224.6011,372.1526 223.5592,371.7798 222.4858,371.5109 221.3912,371.3485 220.2859,371.2942 219.1806,371.3485 218.086,371.5109 217.0125,371.7798 215.9706,372.1526 214.9703,372.6257 214.0211,373.1946 213.1323,373.8538 212.3123,374.597 211.5692,375.4169 210.91,376.3058 210.3411,377.2549 209.8679,378.2553 209.4951,379.2972 209.2263,380.3706 209.0639,381.4653 209.0096,382.5705 209.0639,383.6758 209.2263,384.7704 209.4951,385.8439 209.8679,386.8858 210.3411,387.8861 210.91,388.8353 211.5692,389.7241 212.3123,390.5441 213.1323,391.2872 214.0211,391.9464 214.9703,392.5153 215.9706,392.9885 217.0125,393.3613 218.086,393.6302"/>
    <polygon points="219.1806,397.5339 218.086,397.6962 217.0125,397.9651 215.9706,398.3379 214.9703,398.8111 214.0211,399.38 213.1323,400.0392 212.3123,400.7823 211.5692,401.6023 210.91,402.4911 210.3411,403.4403 209.8679,404.4406 209.4951,405.4825 209.2263,406.556 209.0639,407.6506 209.0096,408.7559 209.0639,409.8611 209.2263,410.9558 209.4951,412.0292 209.8679,413.0711 210.3411,414.0715 210.91,415.0207 211.5692,415.9095 212.3123,416.7294 213.1323,417.4726 214.0211,418.1318 214.9703,418.7007 215.9706,419.1738 217.0125,419.5466 218.086,419.8155 219.1806,419.9779 220.2859,420.0322 221.3912,419.9779 222.4858,419.8155 223.5592,419.5466 224.6011,419.1738 225.6015,418.7007 226.5507,418.1318 227.4395,417.4726 228.2594,416.7294 229.0026,415.9095 229.6618,415.0207 230.2307,414.0715 230.7038,413.0711 231.0766,412.0292 231.3455,410.9558 231.5079,409.8611 231.5622,408.7559 231.5079,407.6506 231.3455,406.556 231.0766,405.4825 230.7038,404.4406 230.2307,403.4403 229.6618,402.4911 229.0026,401.6023 228.2594,400.7823 227.4395,400.0392 226.5507,399.38 225.6015,398.8111 224.6011,398.3379 223.5592,397.9651 222.4858,397.6962 221.3912,397.5339 220.2859,397.4796"/>
    <polygon points="235.8094,413.1318 234.9895,413.875 234.2464,414.6949 233.5871,415.5838 233.0182,416.5329 232.5451,417.5333 232.1723,418.5752 231.9034,419.6486 231.741,420.7433 231.6867,421.8485 231.741,422.9538 231.9034,424.0484 232.1723,425.1219 232.5451,426.1638 233.0182,427.1642 233.5871,428.1133 234.2464,429.0022 234.9895,429.8221 235.8094,430.5652 236.6983,431.2244 237.6474,431.7934 238.6478,432.2665 239.6897,432.6393 240.7632,432.9082 241.8578,433.0705 242.9631,433.1248 244.0683,433.0705 245.163,432.9082 246.2364,432.6393 247.2783,432.2665 248.2787,431.7934 249.2278,431.2244 250.1167,430.5652 250.9366,429.8221 251.6798,429.0022 252.339,428.1133 252.9079,427.1642 253.381,426.1638 253.7538,425.1219 254.0227,424.0484 254.1851,422.9538 254.2394,421.8485 254.1851,420.7433 254.0227,419.6486 253.7538,418.5752 253.381,417.5333 252.9079,416.5329 252.339,415.5838 251.6798,414.6949 250.9366,413.875 250.1167,413.1318 249.2278,412.4726 248.2787,411.9037 247.2783,411.4306 246.2364,411.0578 245.163,410.7889 244.0683,410.6265 242.9631,410.5722 241.8578,410.6265 240.7632,410.7889 239.6897,411.0578 238.6478,411.4306 237.6474,411.9037 236.6983,412.4726"/>
    <polygon points="250.1167,404.3799 250.9366,403.6368 251.6798,402.8168 252.339,401.928 252.9079,400.9788 253.381,399.9785 253.7538,398.9365 254.0227,397.8631 254.1851,396.7685 254.2394,395.6632 254.1851,394.5579 254.0227,393.4633 253.7538,392.3899 253.381,391.3479 252.9079,390.3476 252.339,389.3984 251.6798,388.5096 250.9366,387.6897 250.1167,386.9465 249.2278,386.2873 248.2787,385.7184 247.2783,385.2453 246.2364,384.8725 245.163,384.6036 244.0683,384.4412 242.9631,384.3869 241.8578,384.4412 240.7632,384.6036 239.6897,384.8725 238.6478,385.2453 237.6474,385.7184 236.6983,386.2873 235.8094,386.9465 234.9895,387.6897 234.2464,388.5096 233.5871,389.3984 233.0182,390.3476 232.5451,391.3479 232.1723,392.3899 231.9034,393.4633 231.741,394.5579 231.6867,395.6632 231.741,396.7685 231.9034,397.8631 232.1723,398.9365 232.5451,399.9785 233.0182,400.9788 233.5871,401.928 234.2464,402.8168 234.9895,403.6368 235.8094,404.3799 236.6983,405.0391 237.6474,405.608 238.6478,406.0812 239.6897,406.454 240.7632,406.7228 241.8578,406.8852 242.9631,406.9395 244.0683,406.8852 245.163,406.7228 246.2364,406.454 247.2783,406.0812 248.2787,405.608 249.2278,405.0391"/>
    <polygon points="265.2053,385.7723 265.517,386.1162 265.7935,386.489 266.0322,386.8872 266.2306,387.3068 266.387,387.7438 266.4998,388.1941 266.5679,388.6533 266.5907,389.1169 266.5679,389.5805 266.4998,390.0396 266.387,390.4899 266.2306,390.927 266.0322,391.3466 265.7935,391.7447 265.517,392.1175 265.2053,392.4615 264.8614,392.7732 264.4885,393.0497 264.0904,393.2883 263.6708,393.4868 263.2337,393.6432 262.7835,393.756 262.3243,393.8241 261.8607,393.8468 261.3971,393.8241 260.9379,393.756 260.4877,393.6432 260.0506,393.4868 259.631,393.2883 259.2329,393.0497 258.86,392.7732 258.5161,392.4615 258.2044,392.1175 257.9279,391.7447 257.6892,391.3466 257.4908,390.927 257.3344,390.4899 257.2216,390.0396 257.1535,389.5805 257.1307,389.1169 257.1535,388.6533 257.2216,388.1941 257.3344,387.7438 257.4908,387.3068 257.6892,386.8872 257.9279,386.489 258.2044,386.1162 258.5161,385.7723 258.86,385.4606 259.2329,385.184 259.631,384.9454 260.0506,384.7469 260.4877,384.5906 260.9379,384.4778 261.3971,384.4097 261.8607,384.3869 262.3243,384.4097 262.7835,384.4778 263.2337,384.5906 263.6708,384.7469 264.0904,384.9454 264.4885,385.184 264.8614,385.4606"/>
    <polygon points="258.2044,405.2102 257.9279,404.8374 257.6892,404.4392 257.4908,404.0196 257.3344,403.5826 257.2216,403.1323 257.1535,402.6732 257.1307,402.2095 257.1535,401.7459 257.2216,401.2868 257.3344,400.8365 257.4908,400.3995 257.6892,399.9798 257.9279,399.5817 258.2044,399.2089 258.5161,398.8649 258.86,398.5532 259.2329,398.2767 259.631,398.0381 260.0506,397.8396 260.4877,397.6832 260.9379,397.5704 261.3971,397.5023 261.8607,397.4796 262.3243,397.5023 262.7835,397.5704 263.2337,397.6832 263.6708,397.8396 264.0904,398.0381 264.4885,398.2767 264.8614,398.5532 265.2053,398.8649 265.517,399.2089 265.7935,399.5817 266.0322,399.9798 266.2306,400.3995 266.387,400.8365 266.4998,401.2868 266.5679,401.7459 266.5907,402.2095 266.5679,402.6732 266.4998,403.1323 266.387,403.5826 266.2306,404.0196 266.0322,404.4392 265.7935,404.8374 265.517,405.2102 265.2053,405.5541 264.8614,405.8659 264.4885,406.1424 264.0904,406.381 263.6708,406.5795 263.2337,406.7358 262.7835,406.8486 262.3243,406.9167 261.8607,406.9395 261.3971,406.9167 260.9379,406.8486 260.4877,406.7358 260.0506,406.5795 259.631,406.381 259.2329,406.1424 258.86,405.8659 258.5161,405.5541"/>
    <polygon points="265.7935,431.0227 266.0322,430.6246 266.2306,430.205 266.387,429.7679 266.4998,429.3176 266.5679,428.8585 266.5907,428.3949 266.5679,427.9313 266.4998,427.4721 266.387,427.0218 266.2306,426.5848 266.0322,426.1652 265.7935,425.767 265.517,425.3942 265.2053,425.0503 264.8614,424.7386 264.4885,424.462 264.0904,424.2234 263.6708,424.0249 263.2337,423.8686 262.7835,423.7558 262.3243,423.6877 261.8607,423.6649 261.3971,423.6877 260.9379,423.7558 260.4877,423.8686 260.0506,424.0249 259.631,424.2234 259.2329,424.462 258.86,424.7386 258.5161,425.0503 258.2044,425.3942 257.9279,425.767 257.6892,426.1652 257.4908,426.5848 257.3344,427.0218 257.2216,427.4721 257.1535,427.9313 257.1307,428.3949 257.1535,428.8585 257.2216,429.3176 257.3344,429.7679 257.4908,430.205 257.6892,430.6246 257.9279,431.0227 258.2044,431.3955 258.5161,431.7395 258.86,432.0512 259.2329,432.3277 259.631,432.5663 260.0506,432.7648 260.4877,432.9212 260.9379,433.034 261.3971,433.1021 261.8607,433.1248 262.3243,433.1021 262.7835,433.034 263.2337,432.9212 263.6708,432.7648 264.0904,432.5663 264.4885,432.3277 264.8614,432.0512 265.2053,431.7395 265.517,431.3955"/>
    <polygon points="270.1986,438.5975 270.5714,438.874 270.9696,439.1127 271.3892,439.3111 271.8262,439.4675 272.2765,439.5803 272.7357,439.6484 273.1993,439.6712 273.6629,439.6484 274.122,439.5803 274.5723,439.4675 275.0094,439.3111 275.429,439.1127 275.8271,438.874 276.1999,438.5975 276.5439,438.2858 276.8556,437.9419 277.1321,437.569 277.3707,437.1709 277.5692,436.7513 277.7256,436.3142 277.8384,435.864 277.9065,435.4048 277.9292,434.9412 277.9065,434.4776 277.8384,434.0184 277.7256,433.5682 277.5692,433.1311 277.3707,432.7115 277.1321,432.3134 276.8556,431.9405 276.5439,431.5966 276.1999,431.2849 275.8271,431.0084 275.429,430.7697 275.0094,430.5713 274.5723,430.4149 274.122,430.3021 273.6629,430.234 273.1993,430.2112 272.7357,430.234 272.2765,430.3021 271.8262,430.4149 271.3892,430.5713 270.9696,430.7697 270.5714,431.0084 270.1986,431.2849 269.8547,431.5966 269.543,431.9405 269.2664,432.3134 269.0278,432.7115 268.8293,433.1311 268.673,433.5682 268.5602,434.0184 268.4921,434.4776 268.4693,434.9412 268.4921,435.4048 268.5602,435.864 268.673,436.3142 268.8293,436.7513 269.0278,437.1709 269.2664,437.569 269.543,437.9419 269.8547,438.2858"/>
    <polygon points="266.5679,441.0239 266.4998,440.5648 266.387,440.1145 266.2306,439.6775 266.0322,439.2578 265.7935,438.8597 265.517,438.4869 265.2053,438.1429 264.8614,437.8312 264.4885,437.5547 264.0904,437.3161 263.6708,437.1176 263.2337,436.9612 262.7835,436.8485 262.3243,436.7803 261.8607,436.7576 261.3971,436.7803 260.9379,436.8485 260.4877,436.9612 260.0506,437.1176 259.631,437.3161 259.2329,437.5547 258.86,437.8312 258.5161,438.1429 258.2044,438.4869 257.9279,438.8597 257.6892,439.2578 257.4908,439.6775 257.3344,440.1145 257.2216,440.5648 257.1535,441.0239 257.1307,441.4875 257.1535,441.9512 257.2216,442.4103 257.3344,442.8606 257.4908,443.2976 257.6892,443.7172 257.9279,444.1154 258.2044,444.4882 258.5161,444.8321 258.86,445.1439 259.2329,445.4204 259.631,445.659 260.0506,445.8575 260.4877,446.0138 260.9379,446.1266 261.3971,446.1947 261.8607,446.2175 262.3243,446.1947 262.7835,446.1266 263.2337,446.0138 263.6708,445.8575 264.0904,445.659 264.4885,445.4204 264.8614,445.1439 265.2053,444.8321 265.517,444.4882 265.7935,444.1154 266.0322,443.7172 266.2306,443.2976 266.387,442.8606 266.4998,442.4103 266.5679,441.9512 266.5907,441.4875"/>
    <polygon points="235.5272,444.4882 235.8389,444.8321 236.1829,445.1439 236.5557,445.4204 236.9538,445.659 237.3734,445.8575 237.8105,446.0138 238.2608,446.1266 238.7199,446.1947 239.1835,446.2175 239.6471,446.1947 240.1063,446.1266 240.5566,446.0138 240.9936,445.8575 241.4132,445.659 241.8114,445.4204 242.1842,445.1439 242.5281,444.8321 242.8398,444.4882 243.1164,444.1154 243.355,443.7172 243.5535,443.2976 243.7098,442.8606 243.8226,442.4103 243.8907,441.9512 243.9135,441.4875 243.8907,441.0239 243.8226,440.5648 243.7098,440.1145 243.5535,439.6775 243.355,439.2578 243.1164,438.8597 242.8398,438.4869 242.5281,438.1429 242.1842,437.8312 241.8114,437.5547 241.4132,437.3161 240.9936,437.1176 240.5566,436.9612 240.1063,436.8485 239.6471,436.7803 239.1835,436.7576 238.7199,436.7803 238.2608,436.8485 237.8105,436.9612 237.3734,437.1176 236.9538,437.3161 236.5557,437.5547 236.1829,437.8312 235.8389,438.1429 235.5272,438.4869 235.2507,438.8597 235.0121,439.2578 234.8136,439.6775 234.6572,440.1145 234.5444,440.5648 234.4763,441.0239 234.4536,441.4875 234.4763,441.9512 234.5444,442.4103 234.6572,442.8606 234.8136,443.2976 235.0121,443.7172 235.2507,444.1154"/>
    <polygon points="213.1618,425.0503 212.85,425.3942 212.5735,425.767 212.3349,426.1652 212.1364,426.5848 211.9801,427.0218 211.8673,427.4721 211.7992,427.9313 211.7764,428.3949 211.7992,428.8585 211.8673,429.3176 211.9801,429.7679 212.1364,430.205 212.3349,430.6246 212.5735,431.0227 212.85,431.3955 213.1618,431.7395 213.5057,432.0512 213.8785,432.3277 214.2767,432.5663 214.6963,432.7648 215.1333,432.9212 215.5836,433.034 216.0427,433.1021 216.5064,433.1248 216.97,433.1021 217.4291,433.034 217.8794,432.9212 218.3164,432.7648 218.7361,432.5663 219.1342,432.3277 219.507,432.0512 219.851,431.7395 220.1627,431.3955 220.4392,431.0227 220.6778,430.6246 220.8763,430.205 221.0327,429.7679 221.1454,429.3176 221.2136,428.8585 221.2363,428.3949 221.2136,427.9313 221.1454,427.4721 221.0327,427.0218 220.8763,426.5848 220.6778,426.1652 220.4392,425.767 220.1627,425.3942 219.851,425.0503 219.507,424.7386 219.1342,424.462 218.7361,424.2234 218.3164,424.0249 217.8794,423.8686 217.4291,423.7558 216.97,423.6877 216.5064,423.6649 216.0427,423.6877 215.5836,423.7558 215.1333,423.8686 214.6963,424.0249 214.2767,424.2234 213.8785,424.462 213.5057,424.7386"/>
  </g>
</svg>
