<?xml version="1.0" encoding="utf-8" ?>
<svg xmlns="http://www.w3.org/2000/svg" xmlns:cc="http://creativecommons.org/ns" xmlns:dc="http://purl.org/dc/elements/1.1/" xmlns:ev="http://www.w3.org/2001/xml-events" xmlns:inkscape="http://www.inkscape.org/namespaces/inkscape" xmlns:rdf="http://www.w3.org/1999/02/22-rdf-syntax-ns" xmlns:sodipodi="http://sodipodi.sourceforge.net/DTD/sodipodi-0.dtd" xmlns:xlink="http://www.w3.org/1999/xlink" baseProfile="tiny" height="15.875cm" version="1.2" viewBox="0 0 432.0 600.0" width="11.43cm">
  <metadata>
    <rdf:RDF>
      <cc:Work>
        <dc:format>image/svg+xml</dc:format>
        <dc:source>vsk save -s 113 -c hex-grid/config/bubble-coasters-2.json /Users/tobin/src/fabian/plotting/fabian-plotting/hex-grid/sketch_hex_grid.py</dc:source>
        <dc:date>2023-11-04T10:32:59.242893</dc:date>
      </cc:Work>
    </rdf:RDF>
  </metadata>
  <defs/>
  <g fill="none" id="layer1" inkscape:groupmode="layer" inkscape:label="1" stroke="#000000" stroke-width="0.7559" style="display:inline">
    <polygon points="208.3177,120.9897 208.5942,121.3625 208.8329,121.7607 209.0313,122.1803 209.1877,122.6173 209.3005,123.0676 209.3686,123.5267 209.3914,123.9904 209.3686,124.454 209.3005,124.9131 209.1877,125.3634 209.0313,125.8004 208.8329,126.22 208.5942,126.6182 208.3177,126.991 208.006,127.3349 207.6621,127.6467 207.2892,127.9232 206.8911,128.1618 206.4715,128.3603 206.0345,128.5167 205.5842,128.6294 205.125,128.6975 204.6614,128.7203 204.1978,128.6975 203.7386,128.6294 203.2884,128.5167 202.8513,128.3603 202.4317,128.1618 202.0336,127.9232 201.6608,127.6467 201.3168,127.3349 201.0051,126.991 200.7286,126.6182 200.49,126.22 200.2915,125.8004 200.1351,125.3634 200.0223,124.9131 199.9542,124.454 199.9314,123.9904 199.9542,123.5267 200.0223,123.0676 200.1351,122.6173 200.2915,122.1803 200.49,121.7607 200.7286,121.3625 201.0051,120.9897 201.3168,120.6458 201.6608,120.334 202.0336,120.0575 202.4317,119.8189 202.8513,119.6204 203.2884,119.4641 203.7386,119.3513 204.1978,119.2832 204.6614,119.2604 205.125,119.2832 205.5842,119.3513 206.0345,119.4641 206.4715,119.6204 206.8911,119.8189 207.2892,120.0575 207.6621,120.334 208.006,120.6458"/>
    <polygon points="197.6502,146.9027 197.3813,145.8293 197.2189,144.7346 197.1646,143.6294 197.2189,142.5241 197.3813,141.4295 197.6502,140.356 198.023,139.3141 198.4961,138.3137 199.065,137.3646 199.7242,136.4757 200.4674,135.6558 201.2873,134.9127 202.1762,134.2534 203.1253,133.6845 204.1257,133.2114 205.1676,132.8386 206.241,132.5697 207.3357,132.4073 208.4409,132.353 209.5462,132.4073 210.6408,132.5697 211.7143,132.8386 212.7562,133.2114 213.7566,133.6845 214.7057,134.2534 215.5946,134.9127 216.4145,135.6558 217.1576,136.4757 217.8169,137.3646 218.3858,138.3137 218.8589,139.3141 219.2317,140.356 219.5006,141.4295 219.663,142.5241 219.7173,143.6294 219.663,144.7346 219.5006,145.8293 219.2317,146.9027 218.8589,147.9446 218.3858,148.945 217.8169,149.8941 217.1576,150.783 216.4145,151.6029 215.5946,152.3461 214.7057,153.0053 213.7566,153.5742 212.7562,154.0473 211.7143,154.4201 210.6408,154.689 209.5462,154.8514 208.4409,154.9057 207.3357,154.8514 206.241,154.689 205.1676,154.4201 204.1257,154.0473 203.1253,153.5742 202.1762,153.0053 201.2873,152.3461 200.4674,151.6029 199.7242,150.783 199.065,149.8941 198.4961,148.945 198.023,147.9446"/>
    <polygon points="177.0471,163.8756 177.7902,164.6956 178.6102,165.4387 179.499,166.0979 180.4482,166.6668 181.4485,167.14 182.4904,167.5128 183.5639,167.7817 184.6585,167.944 185.7638,167.9983 186.8691,167.944 187.9637,167.7817 189.0371,167.5128 190.079,167.14 191.0794,166.6668 192.0286,166.0979 192.9174,165.4387 193.7373,164.6956 194.4805,163.8756 195.1397,162.9868 195.7086,162.0376 196.1817,161.0373 196.5545,159.9954 196.8234,158.9219 196.9858,157.8273 197.0401,156.722 196.9858,155.6167 196.8234,154.5221 196.5545,153.4487 196.1817,152.4068 195.7086,151.4064 195.1397,150.4572 194.4805,149.5684 193.7373,148.7485 192.9174,148.0053 192.0286,147.3461 191.0794,146.7772 190.079,146.3041 189.0371,145.9313 187.9637,145.6624 186.8691,145.5 185.7638,145.4457 184.6585,145.5 183.5639,145.6624 182.4904,145.9313 181.4485,146.3041 180.4482,146.7772 179.499,147.3461 178.6102,148.0053 177.7902,148.7485 177.0471,149.5684 176.3879,150.4572 175.819,151.4064 175.3458,152.4068 174.973,153.4487 174.7041,154.5221 174.5418,155.6167 174.4875,156.722 174.5418,157.8273 174.7041,158.9219 174.973,159.9954 175.3458,161.0373 175.819,162.0376 176.3879,162.9868"/>
    <polygon points="164.0143,150.6393 164.0371,150.1757 164.0143,149.7121 163.9462,149.2529 163.8334,148.8026 163.677,148.3656 163.4786,147.946 163.2399,147.5479 162.9634,147.175 162.6517,146.8311 162.3077,146.5194 161.9349,146.2429 161.5368,146.0042 161.1172,145.8058 160.6801,145.6494 160.2299,145.5366 159.7707,145.4685 159.3071,145.4457 158.8435,145.4685 158.3843,145.5366 157.934,145.6494 157.497,145.8058 157.0774,146.0042 156.6793,146.2429 156.3064,146.5194 155.9625,146.8311 155.6508,147.175 155.3743,147.5479 155.1356,147.946 154.9372,148.3656 154.7808,148.8026 154.668,149.2529 154.5999,149.7121 154.5771,150.1757 154.5999,150.6393 154.668,151.0985 154.7808,151.5487 154.9372,151.9858 155.1356,152.4054 155.3743,152.8035 155.6508,153.1763 155.9625,153.5203 156.3064,153.832 156.6793,154.1085 157.0774,154.3472 157.497,154.5456 157.934,154.702 158.3843,154.8148 158.8435,154.8829 159.3071,154.9057 159.7707,154.8829 160.2299,154.8148 160.6801,154.702 161.1172,154.5456 161.5368,154.3472 161.9349,154.1085 162.3077,153.832 162.6517,153.5203 162.9634,153.1763 163.2399,152.8035 163.4786,152.4054 163.677,151.9858 163.8334,151.5487 163.9462,151.0985"/>
    <polygon points="175.3529,144.093 175.3756,143.6294 175.3529,143.1657 175.2848,142.7066 175.172,142.2563 175.0156,141.8193 174.8171,141.3997 174.5785,141.0015 174.302,140.6287 173.9903,140.2848 173.6463,139.973 173.2735,139.6965 172.8754,139.4579 172.4558,139.2594 172.0187,139.1031 171.5684,138.9903 171.1093,138.9222 170.6457,138.8994 170.1821,138.9222 169.7229,138.9903 169.2726,139.1031 168.8356,139.2594 168.416,139.4579 168.0178,139.6965 167.645,139.973 167.3011,140.2848 166.9894,140.6287 166.7128,141.0015 166.4742,141.3997 166.2757,141.8193 166.1194,142.2563 166.0066,142.7066 165.9385,143.1657 165.9157,143.6294 165.9385,144.093 166.0066,144.5521 166.1194,145.0024 166.2757,145.4394 166.4742,145.859 166.7128,146.2572 166.9894,146.63 167.3011,146.9739 167.645,147.2857 168.0178,147.5622 168.416,147.8008 168.8356,147.9993 169.2726,148.1557 169.7229,148.2684 170.1821,148.3365 170.6457,148.3593 171.1093,148.3365 171.5684,148.2684 172.0187,148.1557 172.4558,147.9993 172.8754,147.8008 173.2735,147.5622 173.6463,147.2857 173.9903,146.9739 174.302,146.63 174.5785,146.2572 174.8171,145.859 175.0156,145.4394 175.172,145.0024 175.2848,144.5521"/>
    <polygon points="177.8128,134.8533 177.6143,135.2729 177.458,135.71 177.3452,136.1602 177.2771,136.6194 177.2543,137.083 177.2771,137.5466 177.3452,138.0058 177.458,138.4561 177.6143,138.8931 177.8128,139.3127 178.0514,139.7109 178.3279,140.0837 178.6397,140.4276 178.9836,140.7393 179.3564,141.0158 179.7546,141.2545 180.1742,141.4529 180.6112,141.6093 181.0615,141.7221 181.5206,141.7902 181.9843,141.813 182.4479,141.7902 182.907,141.7221 183.3573,141.6093 183.7943,141.4529 184.2139,141.2545 184.6121,141.0158 184.9849,140.7393 185.3288,140.4276 185.6406,140.0837 185.9171,139.7109 186.1557,139.3127 186.3542,138.8931 186.5106,138.4561 186.6233,138.0058 186.6914,137.5466 186.7142,137.083 186.6914,136.6194 186.6233,136.1602 186.5106,135.71 186.3542,135.2729 186.1557,134.8533 185.9171,134.4552 185.6406,134.0824 185.3288,133.7384 184.9849,133.4267 184.6121,133.1502 184.2139,132.9116 183.7943,132.7131 183.3573,132.5567 182.907,132.4439 182.4479,132.3758 181.9843,132.353 181.5206,132.3758 181.0615,132.4439 180.6112,132.5567 180.1742,132.7131 179.7546,132.9116 179.3564,133.1502 178.9836,133.4267 178.6397,133.7384 178.3279,134.0824 178.0514,134.4552"/>
    <polygon points="164.0143,137.5466 164.0371,137.083 164.0143,136.6194 163.9462,136.1602 163.8334,135.71 163.677,135.2729 163.4786,134.8533 163.2399,134.4552 162.9634,134.0824 162.6517,133.7384 162.3077,133.4267 161.9349,133.1502 161.5368,132.9116 161.1172,132.7131 160.6801,132.5567 160.2299,132.4439 159.7707,132.3758 159.3071,132.353 158.8435,132.3758 158.3843,132.4439 157.934,132.5567 157.497,132.7131 157.0774,132.9116 156.6793,133.1502 156.3064,133.4267 155.9625,133.7384 155.6508,134.0824 155.3743,134.4552 155.1356,134.8533 154.9372,135.2729 154.7808,135.71 154.668,136.1602 154.5999,136.6194 154.5771,137.083 154.5999,137.5466 154.668,138.0058 154.7808,138.4561 154.9372,138.8931 155.1356,139.3127 155.3743,139.7109 155.6508,140.0837 155.9625,140.4276 156.3064,140.7393 156.6793,141.0158 157.0774,141.2545 157.497,141.4529 157.934,141.6093 158.3843,141.7221 158.8435,141.7902 159.3071,141.813 159.7707,141.7902 160.2299,141.7221 160.6801,141.6093 161.1172,141.4529 161.5368,141.2545 161.9349,141.0158 162.3077,140.7393 162.6517,140.4276 162.9634,140.0837 163.2399,139.7109 163.4786,139.3127 163.677,138.8931 163.8334,138.4561 163.9462,138.0058"/>
    <polygon points="143.3294,144.5521 143.4422,145.0024 143.5986,145.4394 143.797,145.859 144.0357,146.2572 144.3122,146.63 144.6239,146.9739 144.9678,147.2857 145.3407,147.5622 145.7388,147.8008 146.1584,147.9993 146.5955,148.1557 147.0457,148.2684 147.5049,148.3365 147.9685,148.3593 148.4321,148.3365 148.8913,148.2684 149.3415,148.1557 149.7786,147.9993 150.1982,147.8008 150.5963,147.5622 150.9692,147.2857 151.3131,146.9739 151.6248,146.63 151.9013,146.2572 152.14,145.859 152.3384,145.4394 152.4948,145.0024 152.6076,144.5521 152.6757,144.093 152.6985,143.6294 152.6757,143.1657 152.6076,142.7066 152.4948,142.2563 152.3384,141.8193 152.14,141.3997 151.9013,141.0015 151.6248,140.6287 151.3131,140.2848 150.9692,139.973 150.5963,139.6965 150.1982,139.4579 149.7786,139.2594 149.3415,139.1031 148.8913,138.9903 148.4321,138.9222 147.9685,138.8994 147.5049,138.9222 147.0457,138.9903 146.5955,139.1031 146.1584,139.2594 145.7388,139.4579 145.3407,139.6965 144.9678,139.973 144.6239,140.2848 144.3122,140.6287 144.0357,141.0015 143.797,141.3997 143.5986,141.8193 143.4422,142.2563 143.3294,142.7066 143.2613,143.1657 143.2385,143.6294 143.2613,144.093"/>
    <polygon points="155.9625,166.613 156.3064,166.9247 156.6793,167.2012 157.0774,167.4398 157.497,167.6383 157.934,167.7947 158.3843,167.9074 158.8435,167.9756 159.3071,167.9983 159.7707,167.9756 160.2299,167.9074 160.6801,167.7947 161.1172,167.6383 161.5368,167.4398 161.9349,167.2012 162.3077,166.9247 162.6517,166.613 162.9634,166.269 163.2399,165.8962 163.4786,165.498 163.677,165.0784 163.8334,164.6414 163.9462,164.1911 164.0143,163.732 164.0371,163.2684 164.0143,162.8047 163.9462,162.3456 163.8334,161.8953 163.677,161.4583 163.4786,161.0387 163.2399,160.6405 162.9634,160.2677 162.6517,159.9238 162.3077,159.612 161.9349,159.3355 161.5368,159.0969 161.1172,158.8984 160.6801,158.7421 160.2299,158.6293 159.7707,158.5612 159.3071,158.5384 158.8435,158.5612 158.3843,158.6293 157.934,158.7421 157.497,158.8984 157.0774,159.0969 156.6793,159.3355 156.3064,159.612 155.9625,159.9238 155.6508,160.2677 155.3743,160.6405 155.1356,161.0387 154.9372,161.4583 154.7808,161.8953 154.668,162.3456 154.5999,162.8047 154.5771,163.2684 154.5999,163.732 154.668,164.1911 154.7808,164.6414 154.9372,165.0784 155.1356,165.498 155.3743,165.8962 155.6508,166.269"/>
    <polygon points="166.9894,166.814 167.3011,166.4701 167.645,166.1584 168.0178,165.8819 168.416,165.6432 168.8356,165.4448 169.2726,165.2884 169.7229,165.1756 170.1821,165.1075 170.6457,165.0847 171.1093,165.1075 171.5684,165.1756 172.0187,165.2884 172.4558,165.4448 172.8754,165.6432 173.2735,165.8819 173.6463,166.1584 173.9903,166.4701 174.302,166.814 174.5785,167.1869 174.8171,167.585 175.0156,168.0046 175.172,168.4416 175.2848,168.8919 175.3529,169.3511 175.3756,169.8147 175.3529,170.2783 175.2848,170.7375 175.172,171.1877 175.0156,171.6248 174.8171,172.0444 174.5785,172.4425 174.302,172.8154 173.9903,173.1593 173.6463,173.471 173.2735,173.7475 172.8754,173.9862 172.4558,174.1846 172.0187,174.341 171.5684,174.4538 171.1093,174.5219 170.6457,174.5447 170.1821,174.5219 169.7229,174.4538 169.2726,174.341 168.8356,174.1846 168.416,173.9862 168.0178,173.7475 167.645,173.471 167.3011,173.1593 166.9894,172.8154 166.7128,172.4425 166.4742,172.0444 166.2757,171.6248 166.1194,171.1877 166.0066,170.7375 165.9385,170.2783 165.9157,169.8147 165.9385,169.3511 166.0066,168.8919 166.1194,168.4416 166.2757,168.0046 166.4742,167.585 166.7128,167.1869"/>
    <polygon points="170.6457,191.2701 171.1093,191.2928 171.5684,191.3609 172.0187,191.4737 172.4558,191.6301 172.8754,191.8286 173.2735,192.0672 173.6463,192.3437 173.9903,192.6554 174.302,192.9994 174.5785,193.3722 174.8171,193.7703 175.0156,194.1899 175.172,194.627 175.2848,195.0773 175.3529,195.5364 175.3756,196.0 175.3529,196.4636 175.2848,196.9228 175.172,197.3731 175.0156,197.8101 174.8171,198.2297 174.5785,198.6279 174.302,199.0007 173.9903,199.3446 173.6463,199.6563 173.2735,199.9329 172.8754,200.1715 172.4558,200.3699 172.0187,200.5263 171.5684,200.6391 171.1093,200.7072 170.6457,200.73 170.1821,200.7072 169.7229,200.6391 169.2726,200.5263 168.8356,200.3699 168.416,200.1715 168.0178,199.9329 167.645,199.6563 167.3011,199.3446 166.9894,199.0007 166.7128,198.6279 166.4742,198.2297 166.2757,197.8101 166.1194,197.3731 166.0066,196.9228 165.9385,196.4636 165.9157,196.0 165.9385,195.5364 166.0066,195.0773 166.1194,194.627 166.2757,194.1899 166.4742,193.7703 166.7128,193.3722 166.9894,192.9994 167.3011,192.6554 167.645,192.3437 168.0178,192.0672 168.416,191.8286 168.8356,191.6301 169.2726,191.4737 169.7229,191.3609 170.1821,191.2928"/>
    <polygon points="180.4482,199.1479 179.499,199.7168 178.6102,200.376 177.7902,201.1191 177.0471,201.9391 176.3879,202.8279 175.819,203.7771 175.3458,204.7774 174.973,205.8194 174.7041,206.8928 174.5418,207.9874 174.4875,209.0927 174.5418,210.198 174.7041,211.2926 174.973,212.366 175.3458,213.4079 175.819,214.4083 176.3879,215.3575 177.0471,216.2463 177.7902,217.0662 178.6102,217.8094 179.499,218.4686 180.4482,219.0375 181.4485,219.5106 182.4904,219.8834 183.5639,220.1523 184.6585,220.3147 185.7638,220.369 186.8691,220.3147 187.9637,220.1523 189.0371,219.8834 190.079,219.5106 191.0794,219.0375 192.0286,218.4686 192.9174,217.8094 193.7373,217.0662 194.4805,216.2463 195.1397,215.3575 195.7086,214.4083 196.1817,213.4079 196.5545,212.366 196.8234,211.2926 196.9858,210.198 197.0401,209.0927 196.9858,207.9874 196.8234,206.8928 196.5545,205.8194 196.1817,204.7774 195.7086,203.7771 195.1397,202.8279 194.4805,201.9391 193.7373,201.1191 192.9174,200.376 192.0286,199.7168 191.0794,199.1479 190.079,198.6747 189.0371,198.3019 187.9637,198.0331 186.8691,197.8707 185.7638,197.8164 184.6585,197.8707 183.5639,198.0331 182.4904,198.3019 181.4485,198.6747"/>
    <polygon points="186.7142,189.4537 186.6914,188.9901 186.6233,188.5309 186.5106,188.0807 186.3542,187.6436 186.1557,187.224 185.9171,186.8259 185.6406,186.453 185.3288,186.1091 184.9849,185.7974 184.6121,185.5209 184.2139,185.2822 183.7943,185.0838 183.3573,184.9274 182.907,184.8146 182.4479,184.7465 181.9843,184.7237 181.5206,184.7465 181.0615,184.8146 180.6112,184.9274 180.1742,185.0838 179.7546,185.2822 179.3564,185.5209 178.9836,185.7974 178.6397,186.1091 178.3279,186.453 178.0514,186.8259 177.8128,187.224 177.6143,187.6436 177.458,188.0807 177.3452,188.5309 177.2771,188.9901 177.2543,189.4537 177.2771,189.9173 177.3452,190.3765 177.458,190.8267 177.6143,191.2638 177.8128,191.6834 178.0514,192.0815 178.3279,192.4544 178.6397,192.7983 178.9836,193.11 179.3564,193.3865 179.7546,193.6252 180.1742,193.8236 180.6112,193.98 181.0615,194.0928 181.5206,194.1609 181.9843,194.1837 182.4479,194.1609 182.907,194.0928 183.3573,193.98 183.7943,193.8236 184.2139,193.6252 184.6121,193.3865 184.9849,193.11 185.3288,192.7983 185.6406,192.4544 185.9171,192.0815 186.1557,191.6834 186.3542,191.2638 186.5106,190.8267 186.6233,190.3765 186.6914,189.9173"/>
    <polygon points="191.631,182.9074 191.7484,185.2959 192.0993,187.6615 192.6803,189.9813 193.486,192.233 194.5085,194.3948 195.7379,196.446 197.1625,198.3669 198.7685,200.1388 200.5405,201.7448 202.4613,203.1694 204.5125,204.3989 206.6744,205.4214 208.9261,206.227 211.2458,206.8081 213.6114,207.159 216.0,207.2763 218.3886,207.159 220.7542,206.8081 223.0739,206.227 225.3256,205.4214 227.4875,204.3989 229.5387,203.1694 231.4595,201.7448 233.2315,200.1388 234.8375,198.3669 236.2621,196.446 237.4915,194.3948 238.514,192.233 239.3197,189.9813 239.9007,187.6615 240.2516,185.2959 240.369,182.9074 240.2516,180.5188 239.9007,178.1532 239.3197,175.8334 238.514,173.5818 237.4915,171.4199 236.2621,169.3687 234.8375,167.4478 233.2315,165.6759 231.4595,164.0699 229.5387,162.6453 227.4875,161.4158 225.3256,160.3934 223.0739,159.5877 220.7542,159.0066 218.3886,158.6557 216.0,158.5384 213.6114,158.6557 211.2458,159.0066 208.9261,159.5877 206.6744,160.3934 204.5125,161.4158 202.4613,162.6453 200.5405,164.0699 198.7685,165.6759 197.1625,167.4478 195.7379,169.3687 194.5085,171.4199 193.486,173.5818 192.6803,175.8334 192.0993,178.1532 191.7484,180.5188"/>
    <polygon points="254.9005,184.778 255.9952,184.9404 257.0686,185.2093 258.1105,185.5821 259.1109,186.0552 260.0601,186.6241 260.9489,187.2833 261.7688,188.0265 262.512,188.8464 263.1712,189.7352 263.7401,190.6844 264.2132,191.6848 264.586,192.7267 264.8549,193.8001 265.0173,194.8948 265.0716,196.0 265.0173,197.1053 264.8549,198.1999 264.586,199.2734 264.2132,200.3153 263.7401,201.3156 263.1712,202.2648 262.512,203.1536 261.7688,203.9736 260.9489,204.7167 260.0601,205.3759 259.1109,205.9448 258.1105,206.418 257.0686,206.7908 255.9952,207.0597 254.9005,207.222 253.7953,207.2763 252.69,207.222 251.5954,207.0597 250.5219,206.7908 249.48,206.418 248.4797,205.9448 247.5305,205.3759 246.6417,204.7167 245.8217,203.9736 245.0786,203.1536 244.4194,202.2648 243.8505,201.3156 243.3773,200.3153 243.0045,199.2734 242.7356,198.1999 242.5733,197.1053 242.519,196.0 242.5733,194.8948 242.7356,193.8001 243.0045,192.7267 243.3773,191.6848 243.8505,190.6844 244.4194,189.7352 245.0786,188.8464 245.8217,188.0265 246.6417,187.2833 247.5305,186.6241 248.4797,186.0552 249.48,185.5821 250.5219,185.2093 251.5954,184.9404 252.69,184.778 253.7953,184.7237"/>
    <polygon points="233.2315,218.0466 231.4595,216.4406 229.5387,215.016 227.4875,213.7865 225.3256,212.764 223.0739,211.9584 220.7542,211.3773 218.3886,211.0264 216.0,210.9091 213.6114,211.0264 211.2458,211.3773 208.9261,211.9584 206.6744,212.764 204.5125,213.7865 202.4613,215.016 200.5405,216.4406 198.7685,218.0466 197.1625,219.8185 195.7379,221.7393 194.5085,223.7906 193.486,225.9524 192.6803,228.2041 192.0993,230.5239 191.7484,232.8894 191.631,235.278 191.7484,237.6666 192.0993,240.0322 192.6803,242.352 193.486,244.6036 194.5085,246.7655 195.7379,248.8167 197.1625,250.7375 198.7685,252.5095 200.5405,254.1155 202.4613,255.5401 204.5125,256.7695 206.6744,257.792 208.9261,258.5977 211.2458,259.1788 213.6114,259.5297 216.0,259.647 218.3886,259.5297 220.7542,259.1788 223.0739,258.5977 225.3256,257.792 227.4875,256.7695 229.5387,255.5401 231.4595,254.1155 233.2315,252.5095 234.8375,250.7375 236.2621,248.8167 237.4915,246.7655 238.514,244.6036 239.3197,242.352 239.9007,240.0322 240.2516,237.6666 240.369,235.278 240.2516,232.8894 239.9007,230.5239 239.3197,228.2041 238.514,225.9524 237.4915,223.7906 236.2621,221.7393 234.8375,219.8185"/>
    <polygon points="264.2132,226.5006 264.586,225.4587 264.8549,224.3853 265.0173,223.2906 265.0716,222.1854 265.0173,221.0801 264.8549,219.9855 264.586,218.912 264.2132,217.8701 263.7401,216.8697 263.1712,215.9206 262.512,215.0317 261.7688,214.2118 260.9489,213.4687 260.0601,212.8095 259.1109,212.2405 258.1105,211.7674 257.0686,211.3946 255.9952,211.1257 254.9005,210.9634 253.7953,210.9091 252.69,210.9634 251.5954,211.1257 250.5219,211.3946 249.48,211.7674 248.4797,212.2405 247.5305,212.8095 246.6417,213.4687 245.8217,214.2118 245.0786,215.0317 244.4194,215.9206 243.8505,216.8697 243.3773,217.8701 243.0045,218.912 242.7356,219.9855 242.5733,221.0801 242.519,222.1854 242.5733,223.2906 242.7356,224.3853 243.0045,225.4587 243.3773,226.5006 243.8505,227.501 244.4194,228.4501 245.0786,229.339 245.8217,230.1589 246.6417,230.9021 247.5305,231.5613 248.4797,232.1302 249.48,232.6033 250.5219,232.9761 251.5954,233.245 252.69,233.4074 253.7953,233.4617 254.9005,233.4074 255.9952,233.245 257.0686,232.9761 258.1105,232.6033 259.1109,232.1302 260.0601,231.5613 260.9489,230.9021 261.7688,230.1589 262.512,229.339 263.1712,228.4501 263.7401,227.501"/>
    <polygon points="276.8644,217.8687 277.0628,217.4491 277.2192,217.0121 277.332,216.5618 277.4001,216.1026 277.4229,215.639 277.4001,215.1754 277.332,214.7163 277.2192,214.266 277.0628,213.8289 276.8644,213.4093 276.6257,213.0112 276.3492,212.6384 276.0375,212.2944 275.6936,211.9827 275.3207,211.7062 274.9226,211.4676 274.503,211.2691 274.066,211.1127 273.6157,210.9999 273.1565,210.9318 272.6929,210.9091 272.2293,210.9318 271.7701,210.9999 271.3199,211.1127 270.8828,211.2691 270.4632,211.4676 270.0651,211.7062 269.6923,211.9827 269.3483,212.2944 269.0366,212.6384 268.7601,213.0112 268.5214,213.4093 268.323,213.8289 268.1666,214.266 268.0538,214.7163 267.9857,215.1754 267.9629,215.639 267.9857,216.1026 268.0538,216.5618 268.1666,217.0121 268.323,217.4491 268.5214,217.8687 268.7601,218.2669 269.0366,218.6397 269.3483,218.9836 269.6923,219.2953 270.0651,219.5719 270.4632,219.8105 270.8828,220.0089 271.3199,220.1653 271.7701,220.2781 272.2293,220.3462 272.6929,220.369 273.1565,220.3462 273.6157,220.2781 274.066,220.1653 274.503,220.0089 274.9226,219.8105 275.3207,219.5719 275.6936,219.2953 276.0375,218.9836 276.3492,218.6397 276.6257,218.2669"/>
    <polygon points="282.7372,225.9021 281.7881,225.3332 280.7877,224.8601 279.7458,224.4873 278.6723,224.2184 277.5777,224.056 276.4724,224.0017 275.3672,224.056 274.2725,224.2184 273.1991,224.4873 272.1572,224.8601 271.1568,225.3332 270.2077,225.9021 269.3188,226.5613 268.4989,227.3045 267.7557,228.1244 267.0965,229.0132 266.5276,229.9624 266.0545,230.9628 265.6817,232.0047 265.4128,233.0781 265.2504,234.1728 265.1961,235.278 265.2504,236.3833 265.4128,237.4779 265.6817,238.5514 266.0545,239.5933 266.5276,240.5936 267.0965,241.5428 267.7557,242.4316 268.4989,243.2516 269.3188,243.9947 270.2077,244.6539 271.1568,245.2228 272.1572,245.696 273.1991,246.0688 274.2725,246.3377 275.3672,246.5 276.4724,246.5543 277.5777,246.5 278.6723,246.3377 279.7458,246.0688 280.7877,245.696 281.7881,245.2228 282.7372,244.6539 283.6261,243.9947 284.446,243.2516 285.1891,242.4316 285.8483,241.5428 286.4173,240.5936 286.8904,239.5933 287.2632,238.5514 287.5321,237.4779 287.6944,236.3833 287.7487,235.278 287.6944,234.1728 287.5321,233.0781 287.2632,232.0047 286.8904,230.9628 286.4173,229.9624 285.8483,229.0132 285.1891,228.1244 284.446,227.3045 283.6261,226.5613"/>
    <polygon points="291.1986,239.5947 291.0002,240.0143 290.8438,240.4513 290.731,240.9016 290.6629,241.3607 290.6401,241.8244 290.6629,242.288 290.731,242.7471 290.8438,243.1974 291.0002,243.6344 291.1986,244.0541 291.4373,244.4522 291.7138,244.825 292.0255,245.169 292.3694,245.4807 292.7422,245.7572 293.1404,245.9958 293.56,246.1943 293.997,246.3507 294.4473,246.4634 294.9065,246.5316 295.3701,246.5543 295.8337,246.5316 296.2929,246.4634 296.7431,246.3507 297.1802,246.1943 297.5998,245.9958 297.9979,245.7572 298.3707,245.4807 298.7147,245.169 299.0264,244.825 299.3029,244.4522 299.5415,244.0541 299.74,243.6344 299.8964,243.1974 300.0092,242.7471 300.0773,242.288 300.1001,241.8244 300.0773,241.3607 300.0092,240.9016 299.8964,240.4513 299.74,240.0143 299.5415,239.5947 299.3029,239.1965 299.0264,238.8237 298.7147,238.4798 298.3707,238.168 297.9979,237.8915 297.5998,237.6529 297.1802,237.4544 296.7431,237.2981 296.2929,237.1853 295.8337,237.1172 295.3701,237.0944 294.9065,237.1172 294.4473,237.1853 293.997,237.2981 293.56,237.4544 293.1404,237.6529 292.7422,237.8915 292.3694,238.168 292.0255,238.4798 291.7138,238.8237 291.4373,239.1965"/>
    <polygon points="300.1001,254.917 300.0773,254.4534 300.0092,253.9943 299.8964,253.544 299.74,253.1069 299.5415,252.6873 299.3029,252.2892 299.0264,251.9164 298.7147,251.5724 298.3707,251.2607 297.9979,250.9842 297.5998,250.7456 297.1802,250.5471 296.7431,250.3907 296.2929,250.2779 295.8337,250.2098 295.3701,250.1871 294.9065,250.2098 294.4473,250.2779 293.997,250.3907 293.56,250.5471 293.1404,250.7456 292.7422,250.9842 292.3694,251.2607 292.0255,251.5724 291.7138,251.9164 291.4373,252.2892 291.1986,252.6873 291.0002,253.1069 290.8438,253.544 290.731,253.9943 290.6629,254.4534 290.6401,254.917 290.6629,255.3806 290.731,255.8398 290.8438,256.2901 291.0002,256.7271 291.1986,257.1467 291.4373,257.5449 291.7138,257.9177 292.0255,258.2616 292.3694,258.5733 292.7422,258.8499 293.1404,259.0885 293.56,259.287 293.997,259.4433 294.4473,259.5561 294.9065,259.6242 295.3701,259.647 295.8337,259.6242 296.2929,259.5561 296.7431,259.4433 297.1802,259.287 297.5998,259.0885 297.9979,258.8499 298.3707,258.5733 298.7147,258.2616 299.0264,257.9177 299.3029,257.5449 299.5415,257.1467 299.74,256.7271 299.8964,256.2901 300.0092,255.8398 300.0773,255.3806"/>
    <polygon points="308.9384,257.2919 308.5187,257.0934 308.0817,256.9371 307.6314,256.8243 307.1723,256.7562 306.7087,256.7334 306.245,256.7562 305.7859,256.8243 305.3356,256.9371 304.8986,257.0934 304.479,257.2919 304.0808,257.5305 303.708,257.807 303.3641,258.1188 303.0523,258.4627 302.7758,258.8355 302.5372,259.2337 302.3387,259.6533 302.1824,260.0903 302.0696,260.5406 302.0015,260.9997 301.9787,261.4634 302.0015,261.927 302.0696,262.3861 302.1824,262.8364 302.3387,263.2734 302.5372,263.6931 302.7758,264.0912 303.0523,264.464 303.3641,264.808 303.708,265.1197 304.0808,265.3962 304.479,265.6348 304.8986,265.8333 305.3356,265.9897 305.7859,266.1024 306.245,266.1706 306.7087,266.1933 307.1723,266.1706 307.6314,266.1024 308.0817,265.9897 308.5187,265.8333 308.9384,265.6348 309.3365,265.3962 309.7093,265.1197 310.0533,264.808 310.365,264.464 310.6415,264.0912 310.8801,263.6931 311.0786,263.2734 311.235,262.8364 311.3477,262.3861 311.4159,261.927 311.4386,261.4634 311.4159,260.9997 311.3477,260.5406 311.235,260.0903 311.0786,259.6533 310.8801,259.2337 310.6415,258.8355 310.365,258.4627 310.0533,258.1188 309.7093,257.807 309.3365,257.5305"/>
    <polygon points="298.7147,271.3543 299.0264,271.0104 299.3029,270.6375 299.5415,270.2394 299.74,269.8198 299.8964,269.3827 300.0092,268.9325 300.0773,268.4733 300.1001,268.0097 300.0773,267.5461 300.0092,267.0869 299.8964,266.6367 299.74,266.1996 299.5415,265.78 299.3029,265.3819 299.0264,265.009 298.7147,264.6651 298.3707,264.3534 297.9979,264.0769 297.5998,263.8382 297.1802,263.6398 296.7431,263.4834 296.2929,263.3706 295.8337,263.3025 295.3701,263.2797 294.9065,263.3025 294.4473,263.3706 293.997,263.4834 293.56,263.6398 293.1404,263.8382 292.7422,264.0769 292.3694,264.3534 292.0255,264.6651 291.7138,265.009 291.4373,265.3819 291.1986,265.78 291.0002,266.1996 290.8438,266.6367 290.731,267.0869 290.6629,267.5461 290.6401,268.0097 290.6629,268.4733 290.731,268.9325 290.8438,269.3827 291.0002,269.8198 291.1986,270.2394 291.4373,270.6375 291.7138,271.0104 292.0255,271.3543 292.3694,271.666 292.7422,271.9425 293.1404,272.1812 293.56,272.3796 293.997,272.536 294.4473,272.6488 294.9065,272.7169 295.3701,272.7397 295.8337,272.7169 296.2929,272.6488 296.7431,272.536 297.1802,272.3796 297.5998,272.1812 297.9979,271.9425 298.3707,271.666"/>
    <polygon points="300.1001,281.1024 300.0773,280.6387 300.0092,280.1796 299.8964,279.7293 299.74,279.2923 299.5415,278.8727 299.3029,278.4745 299.0264,278.1017 298.7147,277.7578 298.3707,277.446 297.9979,277.1695 297.5998,276.9309 297.1802,276.7324 296.7431,276.5761 296.2929,276.4633 295.8337,276.3952 295.3701,276.3724 294.9065,276.3952 294.4473,276.4633 293.997,276.5761 293.56,276.7324 293.1404,276.9309 292.7422,277.1695 292.3694,277.446 292.0255,277.7578 291.7138,278.1017 291.4373,278.4745 291.1986,278.8727 291.0002,279.2923 290.8438,279.7293 290.731,280.1796 290.6629,280.6387 290.6401,281.1024 290.6629,281.566 290.731,282.0251 290.8438,282.4754 291.0002,282.9124 291.1986,283.3321 291.4373,283.7302 291.7138,284.103 292.0255,284.447 292.3694,284.7587 292.7422,285.0352 293.1404,285.2738 293.56,285.4723 293.997,285.6287 294.4473,285.7414 294.9065,285.8096 295.3701,285.8323 295.8337,285.8096 296.2929,285.7414 296.7431,285.6287 297.1802,285.4723 297.5998,285.2738 297.9979,285.0352 298.3707,284.7587 298.7147,284.447 299.0264,284.103 299.3029,283.7302 299.5415,283.3321 299.74,282.9124 299.8964,282.4754 300.0092,282.0251 300.0773,281.566"/>
    <polygon points="308.5187,292.0186 308.9384,291.8202 309.3365,291.5815 309.7093,291.305 310.0533,290.9933 310.365,290.6494 310.6415,290.2765 310.8801,289.8784 311.0786,289.4588 311.235,289.0217 311.3477,288.5715 311.4159,288.1123 311.4386,287.6487 311.4159,287.1851 311.3477,286.7259 311.235,286.2757 311.0786,285.8386 310.8801,285.419 310.6415,285.0209 310.365,284.648 310.0533,284.3041 309.7093,283.9924 309.3365,283.7159 308.9384,283.4772 308.5187,283.2788 308.0817,283.1224 307.6314,283.0096 307.1723,282.9415 306.7087,282.9187 306.245,282.9415 305.7859,283.0096 305.3356,283.1224 304.8986,283.2788 304.479,283.4772 304.0808,283.7159 303.708,283.9924 303.3641,284.3041 303.0523,284.648 302.7758,285.0209 302.5372,285.419 302.3387,285.8386 302.1824,286.2757 302.0696,286.7259 302.0015,287.1851 301.9787,287.6487 302.0015,288.1123 302.0696,288.5715 302.1824,289.0217 302.3387,289.4588 302.5372,289.8784 302.7758,290.2765 303.0523,290.6494 303.3641,290.9933 303.708,291.305 304.0808,291.5815 304.479,291.8202 304.8986,292.0186 305.3356,292.175 305.7859,292.2878 306.245,292.3559 306.7087,292.3787 307.1723,292.3559 307.6314,292.2878 308.0817,292.175"/>
    <polygon points="276.8644,278.8727 276.6257,278.4745 276.3492,278.1017 276.0375,277.7578 275.6936,277.446 275.3207,277.1695 274.9226,276.9309 274.503,276.7324 274.066,276.5761 273.6157,276.4633 273.1565,276.3952 272.6929,276.3724 272.2293,276.3952 271.7701,276.4633 271.3199,276.5761 270.8828,276.7324 270.4632,276.9309 270.0651,277.1695 269.6923,277.446 269.3483,277.7578 269.0366,278.1017 268.7601,278.4745 268.5214,278.8727 268.323,279.2923 268.1666,279.7293 268.0538,280.1796 267.9857,280.6387 267.9629,281.1024 267.9857,281.566 268.0538,282.0251 268.1666,282.4754 268.323,282.9124 268.5214,283.3321 268.7601,283.7302 269.0366,284.103 269.3483,284.447 269.6923,284.7587 270.0651,285.0352 270.4632,285.2738 270.8828,285.4723 271.3199,285.6287 271.7701,285.7414 272.2293,285.8096 272.6929,285.8323 273.1565,285.8096 273.6157,285.7414 274.066,285.6287 274.503,285.4723 274.9226,285.2738 275.3207,285.0352 275.6936,284.7587 276.0375,284.447 276.3492,284.103 276.6257,283.7302 276.8644,283.3321 277.0628,282.9124 277.2192,282.4754 277.332,282.0251 277.4001,281.566 277.4229,281.1024 277.4001,280.6387 277.332,280.1796 277.2192,279.7293 277.0628,279.2923"/>
    <polygon points="271.7701,298.8341 272.2293,298.9022 272.6929,298.925 273.1565,298.9022 273.6157,298.8341 274.066,298.7213 274.503,298.565 274.9226,298.3665 275.3207,298.1279 275.6936,297.8513 276.0375,297.5396 276.3492,297.1957 276.6257,296.8229 276.8644,296.4247 277.0628,296.0051 277.2192,295.5681 277.332,295.1178 277.4001,294.6586 277.4229,294.195 277.4001,293.7314 277.332,293.2723 277.2192,292.822 277.0628,292.3849 276.8644,291.9653 276.6257,291.5672 276.3492,291.1944 276.0375,290.8504 275.6936,290.5387 275.3207,290.2622 274.9226,290.0236 274.503,289.8251 274.066,289.6687 273.6157,289.5559 273.1565,289.4878 272.6929,289.4651 272.2293,289.4878 271.7701,289.5559 271.3199,289.6687 270.8828,289.8251 270.4632,290.0236 270.0651,290.2622 269.6923,290.5387 269.3483,290.8504 269.0366,291.1944 268.7601,291.5672 268.5214,291.9653 268.323,292.3849 268.1666,292.822 268.0538,293.2723 267.9857,293.7314 267.9629,294.195 267.9857,294.6586 268.0538,295.1178 268.1666,295.5681 268.323,296.0051 268.5214,296.4247 268.7601,296.8229 269.0366,297.1957 269.3483,297.5396 269.6923,297.8513 270.0651,298.1279 270.4632,298.3665 270.8828,298.565 271.3199,298.7213"/>
    <polygon points="256.9844,298.9313 256.828,299.3683 256.7152,299.8186 256.6471,300.2777 256.6244,300.7414 256.6471,301.205 256.7152,301.6641 256.828,302.1144 256.9844,302.5514 257.1829,302.9711 257.4215,303.3692 257.698,303.742 258.0097,304.086 258.3537,304.3977 258.7265,304.6742 259.1246,304.9128 259.5442,305.1113 259.9813,305.2677 260.4316,305.3805 260.8907,305.4486 261.3543,305.4713 261.8179,305.4486 262.2771,305.3805 262.7274,305.2677 263.1644,305.1113 263.584,304.9128 263.9822,304.6742 264.355,304.3977 264.6989,304.086 265.0106,303.742 265.2872,303.3692 265.5258,302.9711 265.7243,302.5514 265.8806,302.1144 265.9934,301.6641 266.0615,301.205 266.0843,300.7414 266.0615,300.2777 265.9934,299.8186 265.8806,299.3683 265.7243,298.9313 265.5258,298.5117 265.2872,298.1135 265.0106,297.7407 264.6989,297.3968 264.355,297.085 263.9822,296.8085 263.584,296.5699 263.1644,296.3714 262.7274,296.2151 262.2771,296.1023 261.8179,296.0342 261.3543,296.0114 260.8907,296.0342 260.4316,296.1023 259.9813,296.2151 259.5442,296.3714 259.1246,296.5699 258.7265,296.8085 258.3537,297.085 258.0097,297.3968 257.698,297.7407 257.4215,298.1135 257.1829,298.5117"/>
    <polygon points="256.7152,286.7259 256.6471,287.1851 256.6244,287.6487 256.6471,288.1123 256.7152,288.5715 256.828,289.0217 256.9844,289.4588 257.1829,289.8784 257.4215,290.2765 257.698,290.6494 258.0097,290.9933 258.3537,291.305 258.7265,291.5815 259.1246,291.8202 259.5442,292.0186 259.9813,292.175 260.4316,292.2878 260.8907,292.3559 261.3543,292.3787 261.8179,292.3559 262.2771,292.2878 262.7274,292.175 263.1644,292.0186 263.584,291.8202 263.9822,291.5815 264.355,291.305 264.6989,290.9933 265.0106,290.6494 265.2872,290.2765 265.5258,289.8784 265.7243,289.4588 265.8806,289.0217 265.9934,288.5715 266.0615,288.1123 266.0843,287.6487 266.0615,287.1851 265.9934,286.7259 265.8806,286.2757 265.7243,285.8386 265.5258,285.419 265.2872,285.0209 265.0106,284.648 264.6989,284.3041 264.355,283.9924 263.9822,283.7159 263.584,283.4772 263.1644,283.2788 262.7274,283.1224 262.2771,283.0096 261.8179,282.9415 261.3543,282.9187 260.8907,282.9415 260.4316,283.0096 259.9813,283.1224 259.5442,283.2788 259.1246,283.4772 258.7265,283.7159 258.3537,283.9924 258.0097,284.3041 257.698,284.648 257.4215,285.0209 257.1829,285.419 256.9844,285.8386 256.828,286.2757"/>
    <polygon points="265.4128,259.2635 265.6817,258.19 266.0545,257.1481 266.5276,256.1477 267.0965,255.1986 267.7557,254.3097 268.4989,253.4898 269.3188,252.7467 270.2077,252.0875 271.1568,251.5185 272.1572,251.0454 273.1991,250.6726 274.2725,250.4037 275.3672,250.2414 276.4724,250.1871 277.5777,250.2414 278.6723,250.4037 279.7458,250.6726 280.7877,251.0454 281.7881,251.5185 282.7372,252.0875 283.6261,252.7467 284.446,253.4898 285.1891,254.3097 285.8483,255.1986 286.4173,256.1477 286.8904,257.1481 287.2632,258.19 287.5321,259.2635 287.6944,260.3581 287.7487,261.4634 287.6944,262.5686 287.5321,263.6633 287.2632,264.7367 286.8904,265.7786 286.4173,266.779 285.8483,267.7281 285.1891,268.617 284.446,269.4369 283.6261,270.1801 282.7372,270.8393 281.7881,271.4082 280.7877,271.8813 279.7458,272.2541 278.6723,272.523 277.5777,272.6854 276.4724,272.7397 275.3672,272.6854 274.2725,272.523 273.1991,272.2541 272.1572,271.8813 271.1568,271.4082 270.2077,270.8393 269.3188,270.1801 268.4989,269.4369 267.7557,268.617 267.0965,267.7281 266.5276,266.779 266.0545,265.7786 265.6817,264.7367 265.4128,263.6633 265.2504,262.5686 265.1961,261.4634 265.2504,260.3581"/>
    <polygon points="255.9952,259.4303 254.9005,259.5927 253.7953,259.647 252.69,259.5927 251.5954,259.4303 250.5219,259.1614 249.48,258.7886 248.4797,258.3155 247.5305,257.7466 246.6417,257.0874 245.8217,256.3442 245.0786,255.5243 244.4194,254.6355 243.8505,253.6863 243.3773,252.6859 243.0045,251.644 242.7356,250.5706 242.5733,249.476 242.519,248.3707 242.5733,247.2654 242.7356,246.1708 243.0045,245.0974 243.3773,244.0554 243.8505,243.0551 244.4194,242.1059 245.0786,241.2171 245.8217,240.3971 246.6417,239.654 247.5305,238.9948 248.4797,238.4259 249.48,237.9527 250.5219,237.5799 251.5954,237.3111 252.69,237.1487 253.7953,237.0944 254.9005,237.1487 255.9952,237.3111 257.0686,237.5799 258.1105,237.9527 259.1109,238.4259 260.0601,238.9948 260.9489,239.654 261.7688,240.3971 262.512,241.2171 263.1712,242.1059 263.7401,243.0551 264.2132,244.0554 264.586,245.0974 264.8549,246.1708 265.0173,247.2654 265.0716,248.3707 265.0173,249.476 264.8549,250.5706 264.586,251.644 264.2132,252.6859 263.7401,253.6863 263.1712,254.6355 262.512,255.5243 261.7688,256.3442 260.9489,257.0874 260.0601,257.7466 259.1109,258.3155 258.1105,258.7886 257.0686,259.1614"/>
    <polygon points="245.3767,267.0869 245.4894,266.6367 245.6458,266.1996 245.8443,265.78 246.0829,265.3819 246.3594,265.009 246.6712,264.6651 247.0151,264.3534 247.3879,264.0769 247.7861,263.8382 248.2057,263.6398 248.6427,263.4834 249.093,263.3706 249.5521,263.3025 250.0157,263.2797 250.4794,263.3025 250.9385,263.3706 251.3888,263.4834 251.8258,263.6398 252.2454,263.8382 252.6436,264.0769 253.0164,264.3534 253.3603,264.6651 253.6721,265.009 253.9486,265.3819 254.1872,265.78 254.3857,266.1996 254.542,266.6367 254.6548,267.0869 254.7229,267.5461 254.7457,268.0097 254.7229,268.4733 254.6548,268.9325 254.542,269.3827 254.3857,269.8198 254.1872,270.2394 253.9486,270.6375 253.6721,271.0104 253.3603,271.3543 253.0164,271.666 252.6436,271.9425 252.2454,272.1812 251.8258,272.3796 251.3888,272.536 250.9385,272.6488 250.4794,272.7169 250.0157,272.7397 249.5521,272.7169 249.093,272.6488 248.6427,272.536 248.2057,272.3796 247.7861,272.1812 247.3879,271.9425 247.0151,271.666 246.6712,271.3543 246.3594,271.0104 246.0829,270.6375 245.8443,270.2394 245.6458,269.8198 245.4894,269.3827 245.3767,268.9325 245.3086,268.4733 245.2858,268.0097 245.3086,267.5461"/>
    <polygon points="249.093,276.4633 249.5521,276.3952 250.0157,276.3724 250.4794,276.3952 250.9385,276.4633 251.3888,276.5761 251.8258,276.7324 252.2454,276.9309 252.6436,277.1695 253.0164,277.446 253.3603,277.7578 253.6721,278.1017 253.9486,278.4745 254.1872,278.8727 254.3857,279.2923 254.542,279.7293 254.6548,280.1796 254.7229,280.6387 254.7457,281.1024 254.7229,281.566 254.6548,282.0251 254.542,282.4754 254.3857,282.9124 254.1872,283.3321 253.9486,283.7302 253.6721,284.103 253.3603,284.447 253.0164,284.7587 252.6436,285.0352 252.2454,285.2738 251.8258,285.4723 251.3888,285.6287 250.9385,285.7414 250.4794,285.8096 250.0157,285.8323 249.5521,285.8096 249.093,285.7414 248.6427,285.6287 248.2057,285.4723 247.7861,285.2738 247.3879,285.0352 247.0151,284.7587 246.6712,284.447 246.3594,284.103 246.0829,283.7302 245.8443,283.3321 245.6458,282.9124 245.4894,282.4754 245.3767,282.0251 245.3086,281.566 245.2858,281.1024 245.3086,280.6387 245.3767,280.1796 245.4894,279.7293 245.6458,279.2923 245.8443,278.8727 246.0829,278.4745 246.3594,278.1017 246.6712,277.7578 247.0151,277.446 247.3879,277.1695 247.7861,276.9309 248.2057,276.7324 248.6427,276.5761"/>
    <polygon points="227.3386,285.8323 227.8022,285.8096 228.2614,285.7414 228.7116,285.6287 229.1487,285.4723 229.5683,285.2738 229.9664,285.0352 230.3392,284.7587 230.6832,284.447 230.9949,284.103 231.2714,283.7302 231.51,283.3321 231.7085,282.9124 231.8649,282.4754 231.9777,282.0251 232.0458,281.566 232.0686,281.1024 232.0458,280.6387 231.9777,280.1796 231.8649,279.7293 231.7085,279.2923 231.51,278.8727 231.2714,278.4745 230.9949,278.1017 230.6832,277.7578 230.3392,277.446 229.9664,277.1695 229.5683,276.9309 229.1487,276.7324 228.7116,276.5761 228.2614,276.4633 227.8022,276.3952 227.3386,276.3724 226.875,276.3952 226.4158,276.4633 225.9655,276.5761 225.5285,276.7324 225.1089,276.9309 224.7108,277.1695 224.3379,277.446 223.994,277.7578 223.6823,278.1017 223.4058,278.4745 223.1671,278.8727 222.9687,279.2923 222.8123,279.7293 222.6995,280.1796 222.6314,280.6387 222.6086,281.1024 222.6314,281.566 222.6995,282.0251 222.8123,282.4754 222.9687,282.9124 223.1671,283.3321 223.4058,283.7302 223.6823,284.103 223.994,284.447 224.3379,284.7587 224.7108,285.0352 225.1089,285.2738 225.5285,285.4723 225.9655,285.6287 226.4158,285.7414 226.875,285.8096"/>
    <polygon points="223.4058,309.9155 223.1671,309.5174 222.9687,309.0978 222.8123,308.6607 222.6995,308.2105 222.6314,307.7513 222.6086,307.2877 222.6314,306.8241 222.6995,306.3649 222.8123,305.9147 222.9687,305.4776 223.1671,305.058 223.4058,304.6599 223.6823,304.287 223.994,303.9431 224.3379,303.6314 224.7108,303.3549 225.1089,303.1162 225.5285,302.9178 225.9655,302.7614 226.4158,302.6486 226.875,302.5805 227.3386,302.5577 227.8022,302.5805 228.2614,302.6486 228.7116,302.7614 229.1487,302.9178 229.5683,303.1162 229.9664,303.3549 230.3392,303.6314 230.6832,303.9431 230.9949,304.287 231.2714,304.6599 231.51,305.058 231.7085,305.4776 231.8649,305.9147 231.9777,306.3649 232.0458,306.8241 232.0686,307.2877 232.0458,307.7513 231.9777,308.2105 231.8649,308.6607 231.7085,309.0978 231.51,309.5174 231.2714,309.9155 230.9949,310.2884 230.6832,310.6323 230.3392,310.944 229.9664,311.2205 229.5683,311.4592 229.1487,311.6576 228.7116,311.814 228.2614,311.9268 227.8022,311.9949 227.3386,312.0177 226.875,311.9949 226.4158,311.9268 225.9655,311.814 225.5285,311.6576 225.1089,311.4592 224.7108,311.2205 224.3379,310.944 223.994,310.6323 223.6823,310.2884"/>
    <polygon points="198.7685,357.2508 200.5405,358.8568 202.4613,360.2814 204.5125,361.5109 206.6744,362.5334 208.9261,363.339 211.2458,363.9201 213.6114,364.271 216.0,364.3883 218.3886,364.271 220.7542,363.9201 223.0739,363.339 225.3256,362.5334 227.4875,361.5109 229.5387,360.2814 231.4595,358.8568 233.2315,357.2508 234.8375,355.4789 236.2621,353.558 237.4915,351.5068 238.514,349.345 239.3197,347.0933 239.9007,344.7735 240.2516,342.4079 240.369,340.0194 240.2516,337.6308 239.9007,335.2652 239.3197,332.9454 238.514,330.6938 237.4915,328.5319 236.2621,326.4807 234.8375,324.5599 233.2315,322.7879 231.4595,321.1819 229.5387,319.7573 227.4875,318.5278 225.3256,317.5054 223.0739,316.6997 220.7542,316.1186 218.3886,315.7677 216.0,315.6504 213.6114,315.7677 211.2458,316.1186 208.9261,316.6997 206.6744,317.5054 204.5125,318.5278 202.4613,319.7573 200.5405,321.1819 198.7685,322.7879 197.1625,324.5599 195.7379,326.4807 194.5085,328.5319 193.486,330.6938 192.6803,332.9454 192.0993,335.2652 191.7484,337.6308 191.631,340.0194 191.7484,342.4079 192.0993,344.7735 192.6803,347.0933 193.486,349.345 194.5085,351.5068 195.7379,353.558 197.1625,355.4789"/>
    <polygon points="203.1253,369.3526 202.1762,369.9215 201.2873,370.5807 200.4674,371.3238 199.7242,372.1438 199.065,373.0326 198.4961,373.9818 198.023,374.9821 197.6502,376.024 197.3813,377.0975 197.2189,378.1921 197.1646,379.2974 197.2189,380.4026 197.3813,381.4973 197.6502,382.5707 198.023,383.6126 198.4961,384.613 199.065,385.5621 199.7242,386.451 200.4674,387.2709 201.2873,388.0141 202.1762,388.6733 203.1253,389.2422 204.1257,389.7153 205.1676,390.0881 206.241,390.357 207.3357,390.5194 208.4409,390.5737 209.5462,390.5194 210.6408,390.357 211.7143,390.0881 212.7562,389.7153 213.7566,389.2422 214.7057,388.6733 215.5946,388.0141 216.4145,387.2709 217.1576,386.451 217.8169,385.5621 218.3858,384.613 218.8589,383.6126 219.2317,382.5707 219.5006,381.4973 219.663,380.4026 219.7173,379.2974 219.663,378.1921 219.5006,377.0975 219.2317,376.024 218.8589,374.9821 218.3858,373.9818 217.8169,373.0326 217.1576,372.1438 216.4145,371.3238 215.5946,370.5807 214.7057,369.9215 213.7566,369.3526 212.7562,368.8794 211.7143,368.5066 210.6408,368.2377 209.5462,368.0754 208.4409,368.0211 207.3357,368.0754 206.241,368.2377 205.1676,368.5066 204.1257,368.8794"/>
    <polygon points="222.9687,384.0336 222.8123,384.4707 222.6995,384.9209 222.6314,385.3801 222.6086,385.8437 222.6314,386.3073 222.6995,386.7665 222.8123,387.2167 222.9687,387.6538 223.1671,388.0734 223.4058,388.4715 223.6823,388.8444 223.994,389.1883 224.3379,389.5 224.7108,389.7765 225.1089,390.0152 225.5285,390.2136 225.9655,390.37 226.4158,390.4828 226.875,390.5509 227.3386,390.5737 227.8022,390.5509 228.2614,390.4828 228.7116,390.37 229.1487,390.2136 229.5683,390.0152 229.9664,389.7765 230.3392,389.5 230.6832,389.1883 230.9949,388.8444 231.2714,388.4715 231.51,388.0734 231.7085,387.6538 231.8649,387.2167 231.9777,386.7665 232.0458,386.3073 232.0686,385.8437 232.0458,385.3801 231.9777,384.9209 231.8649,384.4707 231.7085,384.0336 231.51,383.614 231.2714,383.2159 230.9949,382.843 230.6832,382.4991 230.3392,382.1874 229.9664,381.9109 229.5683,381.6722 229.1487,381.4738 228.7116,381.3174 228.2614,381.2046 227.8022,381.1365 227.3386,381.1137 226.875,381.1365 226.4158,381.2046 225.9655,381.3174 225.5285,381.4738 225.1089,381.6722 224.7108,381.9109 224.3379,382.1874 223.994,382.4991 223.6823,382.843 223.4058,383.2159 223.1671,383.614"/>
    <polygon points="242.0218,402.1381 242.3335,402.482 242.61,402.8549 242.8486,403.253 243.0471,403.6726 243.2035,404.1097 243.3163,404.5599 243.3844,405.0191 243.4071,405.4827 243.3844,405.9463 243.3163,406.4055 243.2035,406.8557 243.0471,407.2928 242.8486,407.7124 242.61,408.1105 242.3335,408.4834 242.0218,408.8273 241.6778,409.139 241.305,409.4155 240.9069,409.6542 240.4872,409.8526 240.0502,410.009 239.5999,410.1218 239.1408,410.1899 238.6772,410.2127 238.2135,410.1899 237.7544,410.1218 237.3041,410.009 236.8671,409.8526 236.4475,409.6542 236.0493,409.4155 235.6765,409.139 235.3326,408.8273 235.0208,408.4834 234.7443,408.1105 234.5057,407.7124 234.3072,407.2928 234.1509,406.8557 234.0381,406.4055 233.97,405.9463 233.9472,405.4827 233.97,405.0191 234.0381,404.5599 234.1509,404.1097 234.3072,403.6726 234.5057,403.253 234.7443,402.8549 235.0208,402.482 235.3326,402.1381 235.6765,401.8264 236.0493,401.5499 236.4475,401.3112 236.8671,401.1128 237.3041,400.9564 237.7544,400.8436 238.2135,400.7755 238.6772,400.7527 239.1408,400.7755 239.5999,400.8436 240.0502,400.9564 240.4872,401.1128 240.9069,401.3112 241.305,401.5499 241.6778,401.8264"/>
    <polygon points="229.5683,416.2005 229.1487,416.399 228.7116,416.5553 228.2614,416.6681 227.8022,416.7362 227.3386,416.759 226.875,416.7362 226.4158,416.6681 225.9655,416.5553 225.5285,416.399 225.1089,416.2005 224.7108,415.9619 224.3379,415.6854 223.994,415.3736 223.6823,415.0297 223.4058,414.6569 223.1671,414.2587 222.9687,413.8391 222.8123,413.4021 222.6995,412.9518 222.6314,412.4927 222.6086,412.029 222.6314,411.5654 222.6995,411.1063 222.8123,410.656 222.9687,410.219 223.1671,409.7993 223.4058,409.4012 223.6823,409.0284 223.994,408.6844 224.3379,408.3727 224.7108,408.0962 225.1089,407.8576 225.5285,407.6591 225.9655,407.5027 226.4158,407.3899 226.875,407.3218 227.3386,407.2991 227.8022,407.3218 228.2614,407.3899 228.7116,407.5027 229.1487,407.6591 229.5683,407.8576 229.9664,408.0962 230.3392,408.3727 230.6832,408.6844 230.9949,409.0284 231.2714,409.4012 231.51,409.7993 231.7085,410.219 231.8649,410.656 231.9777,411.1063 232.0458,411.5654 232.0686,412.029 232.0458,412.4927 231.9777,412.9518 231.8649,413.4021 231.7085,413.8391 231.51,414.2587 231.2714,414.6569 230.9949,415.0297 230.6832,415.3736 230.3392,415.6854 229.9664,415.9619"/>
    <polygon points="223.994,402.281 223.6823,401.937 223.4058,401.5642 223.1671,401.1661 222.9687,400.7465 222.8123,400.3094 222.6995,399.8591 222.6314,399.4 222.6086,398.9364 222.6314,398.4728 222.6995,398.0136 222.8123,397.5633 222.9687,397.1263 223.1671,396.7067 223.4058,396.3085 223.6823,395.9357 223.994,395.5918 224.3379,395.2801 224.7108,395.0035 225.1089,394.7649 225.5285,394.5664 225.9655,394.4101 226.4158,394.2973 226.875,394.2292 227.3386,394.2064 227.8022,394.2292 228.2614,394.2973 228.7116,394.4101 229.1487,394.5664 229.5683,394.7649 229.9664,395.0035 230.3392,395.2801 230.6832,395.5918 230.9949,395.9357 231.2714,396.3085 231.51,396.7067 231.7085,397.1263 231.8649,397.5633 231.9777,398.0136 232.0458,398.4728 232.0686,398.9364 232.0458,399.4 231.9777,399.8591 231.8649,400.3094 231.7085,400.7465 231.51,401.1661 231.2714,401.5642 230.9949,401.937 230.6832,402.281 230.3392,402.5927 229.9664,402.8692 229.5683,403.1078 229.1487,403.3063 228.7116,403.4627 228.2614,403.5755 227.8022,403.6436 227.3386,403.6663 226.875,403.6436 226.4158,403.5755 225.9655,403.4627 225.5285,403.3063 225.1089,403.1078 224.7108,402.8692 224.3379,402.5927"/>
    <polygon points="202.1762,414.8586 203.1253,415.4275 204.1257,415.9007 205.1676,416.2735 206.241,416.5423 207.3357,416.7047 208.4409,416.759 209.5462,416.7047 210.6408,416.5423 211.7143,416.2735 212.7562,415.9007 213.7566,415.4275 214.7057,414.8586 215.5946,414.1994 216.4145,413.4563 217.1576,412.6363 217.8169,411.7475 218.3858,410.7983 218.8589,409.798 219.2317,408.756 219.5006,407.6826 219.663,406.588 219.7173,405.4827 219.663,404.3774 219.5006,403.2828 219.2317,402.2094 218.8589,401.1674 218.3858,400.1671 217.8169,399.2179 217.1576,398.3291 216.4145,397.5092 215.5946,396.766 214.7057,396.1068 213.7566,395.5379 212.7562,395.0648 211.7143,394.692 210.6408,394.4231 209.5462,394.2607 208.4409,394.2064 207.3357,394.2607 206.241,394.4231 205.1676,394.692 204.1257,395.0648 203.1253,395.5379 202.1762,396.1068 201.2873,396.766 200.4674,397.5092 199.7242,398.3291 199.065,399.2179 198.4961,400.1671 198.023,401.1674 197.6502,402.2094 197.3813,403.2828 197.2189,404.3774 197.1646,405.4827 197.2189,406.588 197.3813,407.6826 197.6502,408.756 198.023,409.798 198.4961,410.7983 199.065,411.7475 199.7242,412.6363 200.4674,413.4563 201.2873,414.1994"/>
    <polygon points="200.7286,422.4939 200.49,422.892 200.2915,423.3116 200.1351,423.7487 200.0223,424.1989 199.9542,424.6581 199.9314,425.1217 199.9542,425.5853 200.0223,426.0445 200.1351,426.4947 200.2915,426.9318 200.49,427.3514 200.7286,427.7495 201.0051,428.1224 201.3168,428.4663 201.6608,428.778 202.0336,429.0545 202.4317,429.2932 202.8513,429.4916 203.2884,429.648 203.7386,429.7608 204.1978,429.8289 204.6614,429.8517 205.125,429.8289 205.5842,429.7608 206.0345,429.648 206.4715,429.4916 206.8911,429.2932 207.2892,429.0545 207.6621,428.778 208.006,428.4663 208.3177,428.1224 208.5942,427.7495 208.8329,427.3514 209.0313,426.9318 209.1877,426.4947 209.3005,426.0445 209.3686,425.5853 209.3914,425.1217 209.3686,424.6581 209.3005,424.1989 209.1877,423.7487 209.0313,423.3116 208.8329,422.892 208.5942,422.4939 208.3177,422.121 208.006,421.7771 207.6621,421.4654 207.2892,421.1889 206.8911,420.9502 206.4715,420.7518 206.0345,420.5954 205.5842,420.4826 205.125,420.4145 204.6614,420.3917 204.1978,420.4145 203.7386,420.4826 203.2884,420.5954 202.8513,420.7518 202.4317,420.9502 202.0336,421.1889 201.6608,421.4654 201.3168,421.7771 201.0051,422.121"/>
    <polygon points="204.1978,433.5072 203.7386,433.5753 203.2884,433.6881 202.8513,433.8444 202.4317,434.0429 202.0336,434.2815 201.6608,434.5581 201.3168,434.8698 201.0051,435.2137 200.7286,435.5865 200.49,435.9847 200.2915,436.4043 200.1351,436.8413 200.0223,437.2916 199.9542,437.7508 199.9314,438.2144 199.9542,438.678 200.0223,439.1371 200.1351,439.5874 200.2915,440.0245 200.49,440.4441 200.7286,440.8422 201.0051,441.215 201.3168,441.559 201.6608,441.8707 202.0336,442.1472 202.4317,442.3858 202.8513,442.5843 203.2884,442.7407 203.7386,442.8535 204.1978,442.9216 204.6614,442.9443 205.125,442.9216 205.5842,442.8535 206.0345,442.7407 206.4715,442.5843 206.8911,442.3858 207.2892,442.1472 207.6621,441.8707 208.006,441.559 208.3177,441.215 208.5942,440.8422 208.8329,440.4441 209.0313,440.0245 209.1877,439.5874 209.3005,439.1371 209.3686,438.678 209.3914,438.2144 209.3686,437.7508 209.3005,437.2916 209.1877,436.8413 209.0313,436.4043 208.8329,435.9847 208.5942,435.5865 208.3177,435.2137 208.006,434.8698 207.6621,434.5581 207.2892,434.2815 206.8911,434.0429 206.4715,433.8444 206.0345,433.6881 205.5842,433.5753 205.125,433.5072 204.6614,433.4844"/>
    <polygon points="188.7965,419.9484 188.9529,420.3855 189.1514,420.8051 189.39,421.2032 189.6665,421.576 189.9782,421.92 190.3222,422.2317 190.695,422.5082 191.0931,422.7468 191.5128,422.9453 191.9498,423.1017 192.4001,423.2145 192.8592,423.2826 193.3228,423.3053 193.7865,423.2826 194.2456,423.2145 194.6959,423.1017 195.1329,422.9453 195.5525,422.7468 195.9507,422.5082 196.3235,422.2317 196.6674,421.92 196.9792,421.576 197.2557,421.2032 197.4943,420.8051 197.6928,420.3855 197.8491,419.9484 197.9619,419.4981 198.03,419.039 198.0528,418.5754 198.03,418.1118 197.9619,417.6526 197.8491,417.2023 197.6928,416.7653 197.4943,416.3457 197.2557,415.9475 196.9792,415.5747 196.6674,415.2308 196.3235,414.9191 195.9507,414.6425 195.5525,414.4039 195.1329,414.2054 194.6959,414.0491 194.2456,413.9363 193.7865,413.8682 193.3228,413.8454 192.8592,413.8682 192.4001,413.9363 191.9498,414.0491 191.5128,414.2054 191.0931,414.4039 190.695,414.6425 190.3222,414.9191 189.9782,415.2308 189.6665,415.5747 189.39,415.9475 189.1514,416.3457 188.9529,416.7653 188.7965,417.2023 188.6837,417.6526 188.6156,418.1118 188.5929,418.5754 188.6156,419.039 188.6837,419.4981"/>
    <polygon points="185.6406,409.0284 185.3288,408.6844 184.9849,408.3727 184.6121,408.0962 184.2139,407.8576 183.7943,407.6591 183.3573,407.5027 182.907,407.3899 182.4479,407.3218 181.9843,407.2991 181.5206,407.3218 181.0615,407.3899 180.6112,407.5027 180.1742,407.6591 179.7546,407.8576 179.3564,408.0962 178.9836,408.3727 178.6397,408.6844 178.3279,409.0284 178.0514,409.4012 177.8128,409.7993 177.6143,410.219 177.458,410.656 177.3452,411.1063 177.2771,411.5654 177.2543,412.029 177.2771,412.4927 177.3452,412.9518 177.458,413.4021 177.6143,413.8391 177.8128,414.2587 178.0514,414.6569 178.3279,415.0297 178.6397,415.3736 178.9836,415.6854 179.3564,415.9619 179.7546,416.2005 180.1742,416.399 180.6112,416.5553 181.0615,416.6681 181.5206,416.7362 181.9843,416.759 182.4479,416.7362 182.907,416.6681 183.3573,416.5553 183.7943,416.399 184.2139,416.2005 184.6121,415.9619 184.9849,415.6854 185.3288,415.3736 185.6406,415.0297 185.9171,414.6569 186.1557,414.2587 186.3542,413.8391 186.5106,413.4021 186.6233,412.9518 186.6914,412.4927 186.7142,412.029 186.6914,411.5654 186.6233,411.1063 186.5106,410.656 186.3542,410.219 186.1557,409.7993 185.9171,409.4012"/>
    <polygon points="165.2865,416.5423 166.36,416.2735 167.4019,415.9007 168.4022,415.4275 169.3514,414.8586 170.2402,414.1994 171.0602,413.4563 171.8033,412.6363 172.4625,411.7475 173.0314,410.7983 173.5046,409.798 173.8774,408.756 174.1462,407.6826 174.3086,406.588 174.3629,405.4827 174.3086,404.3774 174.1462,403.2828 173.8774,402.2094 173.5046,401.1674 173.0314,400.1671 172.4625,399.2179 171.8033,398.3291 171.0602,397.5092 170.2402,396.766 169.3514,396.1068 168.4022,395.5379 167.4019,395.0648 166.36,394.692 165.2865,394.4231 164.1919,394.2607 163.0866,394.2064 161.9813,394.2607 160.8867,394.4231 159.8133,394.692 158.7714,395.0648 157.771,395.5379 156.8218,396.1068 155.933,396.766 155.1131,397.5092 154.3699,398.3291 153.7107,399.2179 153.1418,400.1671 152.6687,401.1674 152.2959,402.2094 152.027,403.2828 151.8646,404.3774 151.8103,405.4827 151.8646,406.588 152.027,407.6826 152.2959,408.756 152.6687,409.798 153.1418,410.7983 153.7107,411.7475 154.3699,412.6363 155.1131,413.4563 155.933,414.1994 156.8218,414.8586 157.771,415.4275 158.7714,415.9007 159.8133,416.2735 160.8867,416.5423 161.9813,416.7047 163.0866,416.759 164.1919,416.7047"/>
    <polygon points="156.6793,421.1889 156.3064,421.4654 155.9625,421.7771 155.6508,422.121 155.3743,422.4939 155.1356,422.892 154.9372,423.3116 154.7808,423.7487 154.668,424.1989 154.5999,424.6581 154.5771,425.1217 154.5999,425.5853 154.668,426.0445 154.7808,426.4947 154.9372,426.9318 155.1356,427.3514 155.3743,427.7495 155.6508,428.1224 155.9625,428.4663 156.3064,428.778 156.6793,429.0545 157.0774,429.2932 157.497,429.4916 157.934,429.648 158.3843,429.7608 158.8435,429.8289 159.3071,429.8517 159.7707,429.8289 160.2299,429.7608 160.6801,429.648 161.1172,429.4916 161.5368,429.2932 161.9349,429.0545 162.3077,428.778 162.6517,428.4663 162.9634,428.1224 163.2399,427.7495 163.4786,427.3514 163.677,426.9318 163.8334,426.4947 163.9462,426.0445 164.0143,425.5853 164.0371,425.1217 164.0143,424.6581 163.9462,424.1989 163.8334,423.7487 163.677,423.3116 163.4786,422.892 163.2399,422.4939 162.9634,422.121 162.6517,421.7771 162.3077,421.4654 161.9349,421.1889 161.5368,420.9502 161.1172,420.7518 160.6801,420.5954 160.2299,420.4826 159.7707,420.4145 159.3071,420.3917 158.8435,420.4145 158.3843,420.4826 157.934,420.5954 157.497,420.7518 157.0774,420.9502"/>
    <polygon points="140.8014,414.2587 140.9998,413.8391 141.1562,413.4021 141.269,412.9518 141.3371,412.4927 141.3599,412.029 141.3371,411.5654 141.269,411.1063 141.1562,410.656 140.9998,410.219 140.8014,409.7993 140.5627,409.4012 140.2862,409.0284 139.9745,408.6844 139.6306,408.3727 139.2578,408.0962 138.8596,407.8576 138.44,407.6591 138.003,407.5027 137.5527,407.3899 137.0935,407.3218 136.6299,407.2991 136.1663,407.3218 135.7071,407.3899 135.2569,407.5027 134.8198,407.6591 134.4002,407.8576 134.0021,408.0962 133.6293,408.3727 133.2853,408.6844 132.9736,409.0284 132.6971,409.4012 132.4585,409.7993 132.26,410.219 132.1036,410.656 131.9908,411.1063 131.9227,411.5654 131.8999,412.029 131.9227,412.4927 131.9908,412.9518 132.1036,413.4021 132.26,413.8391 132.4585,414.2587 132.6971,414.6569 132.9736,415.0297 133.2853,415.3736 133.6293,415.6854 134.0021,415.9619 134.4002,416.2005 134.8198,416.399 135.2569,416.5553 135.7071,416.6681 136.1663,416.7362 136.6299,416.759 137.0935,416.7362 137.5527,416.6681 138.003,416.5553 138.44,416.399 138.8596,416.2005 139.2578,415.9619 139.6306,415.6854 139.9745,415.3736 140.2862,415.0297 140.5627,414.6569"/>
    <polygon points="123.0616,414.4039 122.6635,414.6425 122.2907,414.9191 121.9467,415.2308 121.635,415.5747 121.3585,415.9475 121.1199,416.3457 120.9214,416.7653 120.765,417.2023 120.6523,417.6526 120.5841,418.1118 120.5614,418.5754 120.5841,419.039 120.6523,419.4981 120.765,419.9484 120.9214,420.3855 121.1199,420.8051 121.3585,421.2032 121.635,421.576 121.9467,421.92 122.2907,422.2317 122.6635,422.5082 123.0616,422.7468 123.4813,422.9453 123.9183,423.1017 124.3686,423.2145 124.8277,423.2826 125.2913,423.3053 125.755,423.2826 126.2141,423.2145 126.6644,423.1017 127.1014,422.9453 127.521,422.7468 127.9192,422.5082 128.292,422.2317 128.6359,421.92 128.9477,421.576 129.2242,421.2032 129.4628,420.8051 129.6613,420.3855 129.8176,419.9484 129.9304,419.4981 129.9985,419.039 130.0213,418.5754 129.9985,418.1118 129.9304,417.6526 129.8176,417.2023 129.6613,416.7653 129.4628,416.3457 129.2242,415.9475 128.9477,415.5747 128.6359,415.2308 128.292,414.9191 127.9192,414.6425 127.521,414.4039 127.1014,414.2054 126.6644,414.0491 126.2141,413.9363 125.755,413.8682 125.2913,413.8454 124.8277,413.8682 124.3686,413.9363 123.9183,414.0491 123.4813,414.2054"/>
    <polygon points="121.635,402.482 121.3585,402.8549 121.1199,403.253 120.9214,403.6726 120.765,404.1097 120.6523,404.5599 120.5841,405.0191 120.5614,405.4827 120.5841,405.9463 120.6523,406.4055 120.765,406.8557 120.9214,407.2928 121.1199,407.7124 121.3585,408.1105 121.635,408.4834 121.9467,408.8273 122.2907,409.139 122.6635,409.4155 123.0616,409.6542 123.4813,409.8526 123.9183,410.009 124.3686,410.1218 124.8277,410.1899 125.2913,410.2127 125.755,410.1899 126.2141,410.1218 126.6644,410.009 127.1014,409.8526 127.521,409.6542 127.9192,409.4155 128.292,409.139 128.6359,408.8273 128.9477,408.4834 129.2242,408.1105 129.4628,407.7124 129.6613,407.2928 129.8176,406.8557 129.9304,406.4055 129.9985,405.9463 130.0213,405.4827 129.9985,405.0191 129.9304,404.5599 129.8176,404.1097 129.6613,403.6726 129.4628,403.253 129.2242,402.8549 128.9477,402.482 128.6359,402.1381 128.292,401.8264 127.9192,401.5499 127.521,401.3112 127.1014,401.1128 126.6644,400.9564 126.2141,400.8436 125.755,400.7755 125.2913,400.7527 124.8277,400.7755 124.3686,400.8436 123.9183,400.9564 123.4813,401.1128 123.0616,401.3112 122.6635,401.5499 122.2907,401.8264 121.9467,402.1381"/>
    <polygon points="121.635,382.298 121.9467,382.642 122.2907,382.9537 122.6635,383.2302 123.0616,383.4688 123.4813,383.6673 123.9183,383.8237 124.3686,383.9365 124.8277,384.0046 125.2913,384.0273 125.755,384.0046 126.2141,383.9365 126.6644,383.8237 127.1014,383.6673 127.521,383.4688 127.9192,383.2302 128.292,382.9537 128.6359,382.642 128.9477,382.298 129.2242,381.9252 129.4628,381.5271 129.6613,381.1075 129.8176,380.6704 129.9304,380.2201 129.9985,379.761 130.0213,379.2974 129.9985,378.8338 129.9304,378.3746 129.8176,377.9243 129.6613,377.4873 129.4628,377.0677 129.2242,376.6695 128.9477,376.2967 128.6359,375.9528 128.292,375.6411 127.9192,375.3645 127.521,375.1259 127.1014,374.9274 126.6644,374.7711 126.2141,374.6583 125.755,374.5902 125.2913,374.5674 124.8277,374.5902 124.3686,374.6583 123.9183,374.7711 123.4813,374.9274 123.0616,375.1259 122.6635,375.3645 122.2907,375.6411 121.9467,375.9528 121.635,376.2967 121.3585,376.6695 121.1199,377.0677 120.9214,377.4873 120.765,377.9243 120.6523,378.3746 120.5841,378.8338 120.5614,379.2974 120.5841,379.761 120.6523,380.2201 120.765,380.6704 120.9214,381.1075 121.1199,381.5271 121.3585,381.9252"/>
    <polygon points="138.2096,381.3304 137.1361,381.5993 136.0942,381.9721 135.0938,382.4452 134.1447,383.0141 133.2558,383.6733 132.4359,384.4165 131.6927,385.2364 131.0335,386.1253 130.4646,387.0744 129.9915,388.0748 129.6187,389.1167 129.3498,390.1901 129.1874,391.2848 129.1331,392.39 129.1874,393.4953 129.3498,394.5899 129.6187,395.6634 129.9915,396.7053 130.4646,397.7057 131.0335,398.6548 131.6927,399.5436 132.4359,400.3636 133.2558,401.1067 134.1447,401.7659 135.0938,402.3349 136.0942,402.808 137.1361,403.1808 138.2096,403.4497 139.3042,403.612 140.4094,403.6663 141.5147,403.612 142.6093,403.4497 143.6828,403.1808 144.7247,402.808 145.7251,402.3349 146.6742,401.7659 147.5631,401.1067 148.383,400.3636 149.1262,399.5436 149.7854,398.6548 150.3543,397.7057 150.8274,396.7053 151.2002,395.6634 151.4691,394.5899 151.6315,393.4953 151.6858,392.39 151.6315,391.2848 151.4691,390.1901 151.2002,389.1167 150.8274,388.0748 150.3543,387.0744 149.7854,386.1253 149.1262,385.2364 148.383,384.4165 147.5631,383.6733 146.6742,383.0141 145.7251,382.4452 144.7247,381.9721 143.6828,381.5993 142.6093,381.3304 141.5147,381.168 140.4094,381.1137 139.3042,381.168"/>
    <polygon points="150.3836,352.666 149.1542,354.7172 148.1317,356.8791 147.326,359.1308 146.7449,361.4506 146.394,363.8161 146.2767,366.2047 146.394,368.5933 146.7449,370.9589 147.326,373.2786 148.1317,375.5303 149.1542,377.6922 150.3836,379.7434 151.8082,381.6642 153.4142,383.4362 155.1862,385.0422 157.107,386.4668 159.1582,387.6962 161.3201,388.7187 163.5717,389.5244 165.8915,390.1054 168.2571,390.4563 170.6457,390.5737 173.0342,390.4563 175.3998,390.1054 177.7196,389.5244 179.9713,388.7187 182.1331,387.6962 184.1843,386.4668 186.1052,385.0422 187.8771,383.4362 189.4831,381.6642 190.9077,379.7434 192.1372,377.6922 193.1597,375.5303 193.9653,373.2786 194.5464,370.9589 194.8973,368.5933 195.0146,366.2047 194.8973,363.8161 194.5464,361.4506 193.9653,359.1308 193.1597,356.8791 192.1372,354.7172 190.9077,352.666 189.4831,350.7452 187.8771,348.9732 186.1052,347.3672 184.1843,345.9426 182.1331,344.7132 179.9713,343.6907 177.7196,342.885 175.3998,342.304 173.0342,341.9531 170.6457,341.8357 168.2571,341.9531 165.8915,342.304 163.5717,342.885 161.3201,343.6907 159.1582,344.7132 157.107,345.9426 155.1862,347.3672 153.4142,348.9732 151.8082,350.7452"/>
    <polygon points="193.9653,306.7601 194.5464,309.0799 194.8973,311.4455 195.0146,313.834 194.8973,316.2226 194.5464,318.5882 193.9653,320.908 193.1597,323.1596 192.1372,325.3215 190.9077,327.3727 189.4831,329.2935 187.8771,331.0655 186.1052,332.6715 184.1843,334.0961 182.1331,335.3255 179.9713,336.348 177.7196,337.1537 175.3998,337.7348 173.0342,338.0857 170.6457,338.203 168.2571,338.0857 165.8915,337.7348 163.5717,337.1537 161.3201,336.348 159.1582,335.3255 157.107,334.0961 155.1862,332.6715 153.4142,331.0655 151.8082,329.2935 150.3836,327.3727 149.1542,325.3215 148.1317,323.1596 147.326,320.908 146.7449,318.5882 146.394,316.2226 146.2767,313.834 146.394,311.4455 146.7449,309.0799 147.326,306.7601 148.1317,304.5084 149.1542,302.3466 150.3836,300.2954 151.8082,298.3745 153.4142,296.6026 155.1862,294.9966 157.107,293.572 159.1582,292.3425 161.3201,291.32 163.5717,290.5144 165.8915,289.9333 168.2571,289.5824 170.6457,289.4651 173.0342,289.5824 175.3998,289.9333 177.7196,290.5144 179.9713,291.32 182.1331,292.3425 184.1843,293.572 186.1052,294.9966 187.8771,296.6026 189.4831,298.3745 190.9077,300.2954 192.1372,302.3466 193.1597,304.5084"/>
    <polygon points="196.3235,291.305 195.9507,291.5815 195.5525,291.8202 195.1329,292.0186 194.6959,292.175 194.2456,292.2878 193.7865,292.3559 193.3228,292.3787 192.8592,292.3559 192.4001,292.2878 191.9498,292.175 191.5128,292.0186 191.0931,291.8202 190.695,291.5815 190.3222,291.305 189.9782,290.9933 189.6665,290.6494 189.39,290.2765 189.1514,289.8784 188.9529,289.4588 188.7965,289.0217 188.6837,288.5715 188.6156,288.1123 188.5929,287.6487 188.6156,287.1851 188.6837,286.7259 188.7965,286.2757 188.9529,285.8386 189.1514,285.419 189.39,285.0209 189.6665,284.648 189.9782,284.3041 190.3222,283.9924 190.695,283.7159 191.0931,283.4772 191.5128,283.2788 191.9498,283.1224 192.4001,283.0096 192.8592,282.9415 193.3228,282.9187 193.7865,282.9415 194.2456,283.0096 194.6959,283.1224 195.1329,283.2788 195.5525,283.4772 195.9507,283.7159 196.3235,283.9924 196.6674,284.3041 196.9792,284.648 197.2557,285.0209 197.4943,285.419 197.6928,285.8386 197.8491,286.2757 197.9619,286.7259 198.03,287.1851 198.0528,287.6487 198.03,288.1123 197.9619,288.5715 197.8491,289.0217 197.6928,289.4588 197.4943,289.8784 197.2557,290.2765 196.9792,290.6494 196.6674,290.9933"/>
    <polygon points="206.241,289.6817 207.3357,289.5194 208.4409,289.4651 209.5462,289.5194 210.6408,289.6817 211.7143,289.9506 212.7562,290.3234 213.7566,290.7965 214.7057,291.3655 215.5946,292.0247 216.4145,292.7678 217.1576,293.5878 217.8169,294.4766 218.3858,295.4257 218.8589,296.4261 219.2317,297.468 219.5006,298.5415 219.663,299.6361 219.7173,300.7414 219.663,301.8466 219.5006,302.9413 219.2317,304.0147 218.8589,305.0566 218.3858,306.057 217.8169,307.0061 217.1576,307.895 216.4145,308.7149 215.5946,309.4581 214.7057,310.1173 213.7566,310.6862 212.7562,311.1593 211.7143,311.5321 210.6408,311.801 209.5462,311.9634 208.4409,312.0177 207.3357,311.9634 206.241,311.801 205.1676,311.5321 204.1257,311.1593 203.1253,310.6862 202.1762,310.1173 201.2873,309.4581 200.4674,308.7149 199.7242,307.895 199.065,307.0061 198.4961,306.057 198.023,305.0566 197.6502,304.0147 197.3813,302.9413 197.2189,301.8466 197.1646,300.7414 197.2189,299.6361 197.3813,298.5415 197.6502,297.468 198.023,296.4261 198.4961,295.4257 199.065,294.4766 199.7242,293.5878 200.4674,292.7678 201.2873,292.0247 202.1762,291.3655 203.1253,290.7965 204.1257,290.3234 205.1676,289.9506"/>
    <polygon points="204.1257,264.1381 203.1253,264.6112 202.1762,265.1801 201.2873,265.8393 200.4674,266.5825 199.7242,267.4024 199.065,268.2912 198.4961,269.2404 198.023,270.2408 197.6502,271.2827 197.3813,272.3561 197.2189,273.4508 197.1646,274.556 197.2189,275.6613 197.3813,276.7559 197.6502,277.8294 198.023,278.8713 198.4961,279.8716 199.065,280.8208 199.7242,281.7096 200.4674,282.5296 201.2873,283.2727 202.1762,283.9319 203.1253,284.5008 204.1257,284.974 205.1676,285.3468 206.241,285.6157 207.3357,285.778 208.4409,285.8323 209.5462,285.778 210.6408,285.6157 211.7143,285.3468 212.7562,284.974 213.7566,284.5008 214.7057,283.9319 215.5946,283.2727 216.4145,282.5296 217.1576,281.7096 217.8169,280.8208 218.3858,279.8716 218.8589,278.8713 219.2317,277.8294 219.5006,276.7559 219.663,275.6613 219.7173,274.556 219.663,273.4508 219.5006,272.3561 219.2317,271.2827 218.8589,270.2408 218.3858,269.2404 217.8169,268.2912 217.1576,267.4024 216.4145,266.5825 215.5946,265.8393 214.7057,265.1801 213.7566,264.6112 212.7562,264.1381 211.7143,263.7653 210.6408,263.4964 209.5462,263.334 208.4409,263.2797 207.3357,263.334 206.241,263.4964 205.1676,263.7653"/>
    <polygon points="165.9157,222.1854 165.9385,222.649 166.0066,223.1081 166.1194,223.5584 166.2757,223.9954 166.4742,224.4151 166.7128,224.8132 166.9894,225.186 167.3011,225.53 167.645,225.8417 168.0178,226.1182 168.416,226.3568 168.8356,226.5553 169.2726,226.7117 169.7229,226.8244 170.1821,226.8926 170.6457,226.9153 171.1093,226.8926 171.5684,226.8244 172.0187,226.7117 172.4558,226.5553 172.8754,226.3568 173.2735,226.1182 173.6463,225.8417 173.9903,225.53 174.302,225.186 174.5785,224.8132 174.8171,224.4151 175.0156,223.9954 175.172,223.5584 175.2848,223.1081 175.3529,222.649 175.3756,222.1854 175.3529,221.7217 175.2848,221.2626 175.172,220.8123 175.0156,220.3753 174.8171,219.9557 174.5785,219.5575 174.302,219.1847 173.9903,218.8408 173.6463,218.529 173.2735,218.2525 172.8754,218.0139 172.4558,217.8154 172.0187,217.6591 171.5684,217.5463 171.1093,217.4782 170.6457,217.4554 170.1821,217.4782 169.7229,217.5463 169.2726,217.6591 168.8356,217.8154 168.416,218.0139 168.0178,218.2525 167.645,218.529 167.3011,218.8408 166.9894,219.1847 166.7128,219.5575 166.4742,219.9557 166.2757,220.3753 166.1194,220.8123 166.0066,221.2626 165.9385,221.7217"/>
    <polygon points="156.3064,225.0754 155.9625,225.3871 155.6508,225.731 155.3743,226.1039 155.1356,226.502 154.9372,226.9216 154.7808,227.3587 154.668,227.8089 154.5999,228.2681 154.5771,228.7317 154.5999,229.1953 154.668,229.6545 154.7808,230.1047 154.9372,230.5418 155.1356,230.9614 155.3743,231.3595 155.6508,231.7324 155.9625,232.0763 156.3064,232.388 156.6793,232.6645 157.0774,232.9032 157.497,233.1016 157.934,233.258 158.3843,233.3708 158.8435,233.4389 159.3071,233.4617 159.7707,233.4389 160.2299,233.3708 160.6801,233.258 161.1172,233.1016 161.5368,232.9032 161.9349,232.6645 162.3077,232.388 162.6517,232.0763 162.9634,231.7324 163.2399,231.3595 163.4786,230.9614 163.677,230.5418 163.8334,230.1047 163.9462,229.6545 164.0143,229.1953 164.0371,228.7317 164.0143,228.2681 163.9462,227.8089 163.8334,227.3587 163.677,226.9216 163.4786,226.502 163.2399,226.1039 162.9634,225.731 162.6517,225.3871 162.3077,225.0754 161.9349,224.7989 161.5368,224.5602 161.1172,224.3618 160.6801,224.2054 160.2299,224.0926 159.7707,224.0245 159.3071,224.0017 158.8435,224.0245 158.3843,224.0926 157.934,224.2054 157.497,224.3618 157.0774,224.5602 156.6793,224.7989"/>
    <polygon points="140.4094,224.0017 139.3042,224.056 138.2096,224.2184 137.1361,224.4873 136.0942,224.8601 135.0938,225.3332 134.1447,225.9021 133.2558,226.5613 132.4359,227.3045 131.6927,228.1244 131.0335,229.0132 130.4646,229.9624 129.9915,230.9628 129.6187,232.0047 129.3498,233.0781 129.1874,234.1728 129.1331,235.278 129.1874,236.3833 129.3498,237.4779 129.6187,238.5514 129.9915,239.5933 130.4646,240.5936 131.0335,241.5428 131.6927,242.4316 132.4359,243.2516 133.2558,243.9947 134.1447,244.6539 135.0938,245.2228 136.0942,245.696 137.1361,246.0688 138.2096,246.3377 139.3042,246.5 140.4094,246.5543 141.5147,246.5 142.6093,246.3377 143.6828,246.0688 144.7247,245.696 145.7251,245.2228 146.6742,244.6539 147.5631,243.9947 148.383,243.2516 149.1262,242.4316 149.7854,241.5428 150.3543,240.5936 150.8274,239.5933 151.2002,238.5514 151.4691,237.4779 151.6315,236.3833 151.6858,235.278 151.6315,234.1728 151.4691,233.0781 151.2002,232.0047 150.8274,230.9628 150.3543,229.9624 149.7854,229.0132 149.1262,228.1244 148.383,227.3045 147.5631,226.5613 146.6742,225.9021 145.7251,225.3332 144.7247,224.8601 143.6828,224.4873 142.6093,224.2184 141.5147,224.056"/>
    <polygon points="136.6299,220.369 137.0935,220.3462 137.5527,220.2781 138.003,220.1653 138.44,220.0089 138.8596,219.8105 139.2578,219.5719 139.6306,219.2953 139.9745,218.9836 140.2862,218.6397 140.5627,218.2669 140.8014,217.8687 140.9998,217.4491 141.1562,217.0121 141.269,216.5618 141.3371,216.1026 141.3599,215.639 141.3371,215.1754 141.269,214.7163 141.1562,214.266 140.9998,213.8289 140.8014,213.4093 140.5627,213.0112 140.2862,212.6384 139.9745,212.2944 139.6306,211.9827 139.2578,211.7062 138.8596,211.4676 138.44,211.2691 138.003,211.1127 137.5527,210.9999 137.0935,210.9318 136.6299,210.9091 136.1663,210.9318 135.7071,210.9999 135.2569,211.1127 134.8198,211.2691 134.4002,211.4676 134.0021,211.7062 133.6293,211.9827 133.2853,212.2944 132.9736,212.6384 132.6971,213.0112 132.4585,213.4093 132.26,213.8289 132.1036,214.266 131.9908,214.7163 131.9227,215.1754 131.8999,215.639 131.9227,216.1026 131.9908,216.5618 132.1036,217.0121 132.26,217.4491 132.4585,217.8687 132.6971,218.2669 132.9736,218.6397 133.2853,218.9836 133.6293,219.2953 134.0021,219.5719 134.4002,219.8105 134.8198,220.0089 135.2569,220.1653 135.7071,220.2781 136.1663,220.3462"/>
    <polygon points="126.6644,226.7117 127.1014,226.5553 127.521,226.3568 127.9192,226.1182 128.292,225.8417 128.6359,225.53 128.9477,225.186 129.2242,224.8132 129.4628,224.4151 129.6613,223.9954 129.8176,223.5584 129.9304,223.1081 129.9985,222.649 130.0213,222.1854 129.9985,221.7217 129.9304,221.2626 129.8176,220.8123 129.6613,220.3753 129.4628,219.9557 129.2242,219.5575 128.9477,219.1847 128.6359,218.8408 128.292,218.529 127.9192,218.2525 127.521,218.0139 127.1014,217.8154 126.6644,217.6591 126.2141,217.5463 125.755,217.4782 125.2913,217.4554 124.8277,217.4782 124.3686,217.5463 123.9183,217.6591 123.4813,217.8154 123.0616,218.0139 122.6635,218.2525 122.2907,218.529 121.9467,218.8408 121.635,219.1847 121.3585,219.5575 121.1199,219.9557 120.9214,220.3753 120.765,220.8123 120.6523,221.2626 120.5841,221.7217 120.5614,222.1854 120.5841,222.649 120.6523,223.1081 120.765,223.5584 120.9214,223.9954 121.1199,224.4151 121.3585,224.8132 121.635,225.186 121.9467,225.53 122.2907,225.8417 122.6635,226.1182 123.0616,226.3568 123.4813,226.5553 123.9183,226.7117 124.3686,226.8244 124.8277,226.8926 125.2913,226.9153 125.755,226.8926 126.2141,226.8244"/>
    <polygon points="149.1542,249.9759 148.1317,252.1378 147.326,254.3894 146.7449,256.7092 146.394,259.0748 146.2767,261.4634 146.394,263.8519 146.7449,266.2175 147.326,268.5373 148.1317,270.789 149.1542,272.9508 150.3836,275.002 151.8082,276.9229 153.4142,278.6948 155.1862,280.3008 157.107,281.7254 159.1582,282.9549 161.3201,283.9774 163.5717,284.783 165.8915,285.3641 168.2571,285.715 170.6457,285.8323 173.0342,285.715 175.3998,285.3641 177.7196,284.783 179.9713,283.9774 182.1331,282.9549 184.1843,281.7254 186.1052,280.3008 187.8771,278.6948 189.4831,276.9229 190.9077,275.002 192.1372,272.9508 193.1597,270.789 193.9653,268.5373 194.5464,266.2175 194.8973,263.8519 195.0146,261.4634 194.8973,259.0748 194.5464,256.7092 193.9653,254.3894 193.1597,252.1378 192.1372,249.9759 190.9077,247.9247 189.4831,246.0038 187.8771,244.2319 186.1052,242.6259 184.1843,241.2013 182.1331,239.9718 179.9713,238.9494 177.7196,238.1437 175.3998,237.5626 173.0342,237.2117 170.6457,237.0944 168.2571,237.2117 165.8915,237.5626 163.5717,238.1437 161.3201,238.9494 159.1582,239.9718 157.107,241.2013 155.1862,242.6259 153.4142,244.2319 151.8082,246.0038 150.3836,247.9247"/>
  </g>
</svg>
