<?xml version="1.0" encoding="utf-8" ?>
<svg xmlns="http://www.w3.org/2000/svg" xmlns:cc="http://creativecommons.org/ns" xmlns:dc="http://purl.org/dc/elements/1.1/" xmlns:ev="http://www.w3.org/2001/xml-events" xmlns:inkscape="http://www.inkscape.org/namespaces/inkscape" xmlns:rdf="http://www.w3.org/1999/02/22-rdf-syntax-ns" xmlns:sodipodi="http://sodipodi.sourceforge.net/DTD/sodipodi-0.dtd" xmlns:xlink="http://www.w3.org/1999/xlink" baseProfile="tiny" height="15.875cm" version="1.2" viewBox="0 0 432.0 600.0" width="11.43cm">
  <metadata>
    <rdf:RDF>
      <cc:Work>
        <dc:format>image/svg+xml</dc:format>
        <dc:source>vsk save -s 196 -c hex-grid/config/bubble-coasters-2.json /Users/tobin/src/fabian/plotting/fabian-plotting/hex-grid/sketch_hex_grid.py</dc:source>
        <dc:date>2023-11-04T10:32:59.905125</dc:date>
      </cc:Work>
    </rdf:RDF>
  </metadata>
  <defs/>
  <g fill="none" id="layer1" inkscape:groupmode="layer" inkscape:label="1" stroke="#000000" stroke-width="0.7559" style="display:inline">
    <polygon points="155.3743,332.8277 155.1356,332.4296 154.9372,332.0099 154.7808,331.5729 154.668,331.1226 154.5999,330.6635 154.5771,330.1999 154.5999,329.7362 154.668,329.2771 154.7808,328.8268 154.9372,328.3898 155.1356,327.9702 155.3743,327.572 155.6508,327.1992 155.9625,326.8553 156.3064,326.5435 156.6793,326.267 157.0774,326.0284 157.497,325.8299 157.934,325.6736 158.3843,325.5608 158.8435,325.4927 159.3071,325.4699 159.7707,325.4927 160.2299,325.5608 160.6801,325.6736 161.1172,325.8299 161.5368,326.0284 161.9349,326.267 162.3077,326.5435 162.6517,326.8553 162.9634,327.1992 163.2399,327.572 163.4786,327.9702 163.677,328.3898 163.8334,328.8268 163.9462,329.2771 164.0143,329.7362 164.0371,330.1999 164.0143,330.6635 163.9462,331.1226 163.8334,331.5729 163.677,332.0099 163.4786,332.4296 163.2399,332.8277 162.9634,333.2005 162.6517,333.5445 162.3077,333.8562 161.9349,334.1327 161.5368,334.3713 161.1172,334.5698 160.6801,334.7262 160.2299,334.839 159.7707,334.9071 159.3071,334.9298 158.8435,334.9071 158.3843,334.839 157.934,334.7262 157.497,334.5698 157.0774,334.3713 156.6793,334.1327 156.3064,333.8562 155.9625,333.5445 155.6508,333.2005"/>
    <polygon points="171.5684,332.1071 172.0187,332.2199 172.4558,332.3763 172.8754,332.5747 173.2735,332.8134 173.6463,333.0899 173.9903,333.4016 174.302,333.7455 174.5785,334.1184 174.8171,334.5165 175.0156,334.9361 175.172,335.3732 175.2848,335.8234 175.3529,336.2826 175.3756,336.7462 175.3529,337.2098 175.2848,337.669 175.172,338.1192 175.0156,338.5563 174.8171,338.9759 174.5785,339.374 174.302,339.7469 173.9903,340.0908 173.6463,340.4025 173.2735,340.679 172.8754,340.9177 172.4558,341.1161 172.0187,341.2725 171.5684,341.3853 171.1093,341.4534 170.6457,341.4762 170.1821,341.4534 169.7229,341.3853 169.2726,341.2725 168.8356,341.1161 168.416,340.9177 168.0178,340.679 167.645,340.4025 167.3011,340.0908 166.9894,339.7469 166.7128,339.374 166.4742,338.9759 166.2757,338.5563 166.1194,338.1192 166.0066,337.669 165.9385,337.2098 165.9157,336.7462 165.9385,336.2826 166.0066,335.8234 166.1194,335.3732 166.2757,334.9361 166.4742,334.5165 166.7128,334.1184 166.9894,333.7455 167.3011,333.4016 167.645,333.0899 168.0178,332.8134 168.416,332.5747 168.8356,332.3763 169.2726,332.2199 169.7229,332.1071 170.1821,332.039 170.6457,332.0162 171.1093,332.039"/>
    <polygon points="190.079,313.2356 191.0794,313.7087 192.0286,314.2776 192.9174,314.9368 193.7373,315.68 194.4805,316.4999 195.1397,317.3888 195.7086,318.3379 196.1817,319.3383 196.5545,320.3802 196.8234,321.4536 196.9858,322.5483 197.0401,323.6535 196.9858,324.7588 196.8234,325.8534 196.5545,326.9269 196.1817,327.9688 195.7086,328.9691 195.1397,329.9183 194.4805,330.8071 193.7373,331.6271 192.9174,332.3702 192.0286,333.0294 191.0794,333.5983 190.079,334.0715 189.0371,334.4443 187.9637,334.7132 186.8691,334.8755 185.7638,334.9298 184.6585,334.8755 183.5639,334.7132 182.4904,334.4443 181.4485,334.0715 180.4482,333.5983 179.499,333.0294 178.6102,332.3702 177.7902,331.6271 177.0471,330.8071 176.3879,329.9183 175.819,328.9691 175.3458,327.9688 174.973,326.9269 174.7041,325.8534 174.5418,324.7588 174.4875,323.6535 174.5418,322.5483 174.7041,321.4536 174.973,320.3802 175.3458,319.3383 175.819,318.3379 176.3879,317.3888 177.0471,316.4999 177.7902,315.68 178.6102,314.9368 179.499,314.2776 180.4482,313.7087 181.4485,313.2356 182.4904,312.8628 183.5639,312.5939 184.6585,312.4315 185.7638,312.3772 186.8691,312.4315 187.9637,312.5939 189.0371,312.8628"/>
    <polygon points="197.2189,309.4556 197.3813,308.361 197.6502,307.2875 198.023,306.2456 198.4961,305.2453 199.065,304.2961 199.7242,303.4073 200.4674,302.5873 201.2873,301.8442 202.1762,301.185 203.1253,300.616 204.1257,300.1429 205.1676,299.7701 206.241,299.5012 207.3357,299.3389 208.4409,299.2846 209.5462,299.3389 210.6408,299.5012 211.7143,299.7701 212.7562,300.1429 213.7566,300.616 214.7057,301.185 215.5946,301.8442 216.4145,302.5873 217.1576,303.4073 217.8169,304.2961 218.3858,305.2453 218.8589,306.2456 219.2317,307.2875 219.5006,308.361 219.663,309.4556 219.7173,310.5609 219.663,311.6661 219.5006,312.7608 219.2317,313.8342 218.8589,314.8761 218.3858,315.8765 217.8169,316.8256 217.1576,317.7145 216.4145,318.5344 215.5946,319.2776 214.7057,319.9368 213.7566,320.5057 212.7562,320.9788 211.7143,321.3516 210.6408,321.6205 209.5462,321.7829 208.4409,321.8372 207.3357,321.7829 206.241,321.6205 205.1676,321.3516 204.1257,320.9788 203.1253,320.5057 202.1762,319.9368 201.2873,319.2776 200.4674,318.5344 199.7242,317.7145 199.065,316.8256 198.4961,315.8765 198.023,314.8761 197.6502,313.8342 197.3813,312.7608 197.2189,311.6661 197.1646,310.5609"/>
    <polygon points="174.1462,308.361 173.8774,307.2875 173.5046,306.2456 173.0314,305.2453 172.4625,304.2961 171.8033,303.4073 171.0602,302.5873 170.2402,301.8442 169.3514,301.185 168.4022,300.616 167.4019,300.1429 166.36,299.7701 165.2865,299.5012 164.1919,299.3389 163.0866,299.2846 161.9813,299.3389 160.8867,299.5012 159.8133,299.7701 158.7714,300.1429 157.771,300.616 156.8218,301.185 155.933,301.8442 155.1131,302.5873 154.3699,303.4073 153.7107,304.2961 153.1418,305.2453 152.6687,306.2456 152.2959,307.2875 152.027,308.361 151.8646,309.4556 151.8103,310.5609 151.8646,311.6661 152.027,312.7608 152.2959,313.8342 152.6687,314.8761 153.1418,315.8765 153.7107,316.8256 154.3699,317.7145 155.1131,318.5344 155.933,319.2776 156.8218,319.9368 157.771,320.5057 158.7714,320.9788 159.8133,321.3516 160.8867,321.6205 161.9813,321.7829 163.0866,321.8372 164.1919,321.7829 165.2865,321.6205 166.36,321.3516 167.4019,320.9788 168.4022,320.5057 169.3514,319.9368 170.2402,319.2776 171.0602,318.5344 171.8033,317.7145 172.4625,316.8256 173.0314,315.8765 173.5046,314.8761 173.8774,313.8342 174.1462,312.7608 174.3086,311.6661 174.3629,310.5609 174.3086,309.4556"/>
    <polygon points="169.2726,288.9018 168.8356,288.7455 168.416,288.547 168.0178,288.3084 167.645,288.0318 167.3011,287.7201 166.9894,287.3762 166.7128,287.0034 166.4742,286.6052 166.2757,286.1856 166.1194,285.7486 166.0066,285.2983 165.9385,284.8391 165.9157,284.3755 165.9385,283.9119 166.0066,283.4528 166.1194,283.0025 166.2757,282.5654 166.4742,282.1458 166.7128,281.7477 166.9894,281.3749 167.3011,281.0309 167.645,280.7192 168.0178,280.4427 168.416,280.2041 168.8356,280.0056 169.2726,279.8492 169.7229,279.7364 170.1821,279.6683 170.6457,279.6456 171.1093,279.6683 171.5684,279.7364 172.0187,279.8492 172.4558,280.0056 172.8754,280.2041 173.2735,280.4427 173.6463,280.7192 173.9903,281.0309 174.302,281.3749 174.5785,281.7477 174.8171,282.1458 175.0156,282.5654 175.172,283.0025 175.2848,283.4528 175.3529,283.9119 175.3756,284.3755 175.3529,284.8391 175.2848,285.2983 175.172,285.7486 175.0156,286.1856 174.8171,286.6052 174.5785,287.0034 174.302,287.3762 173.9903,287.7201 173.6463,288.0318 173.2735,288.3084 172.8754,288.547 172.4558,288.7455 172.0187,288.9018 171.5684,289.0146 171.1093,289.0827 170.6457,289.1055 170.1821,289.0827 169.7229,289.0146"/>
    <polygon points="163.4786,293.1516 163.2399,293.5497 162.9634,293.9225 162.6517,294.2665 162.3077,294.5782 161.9349,294.8547 161.5368,295.0933 161.1172,295.2918 160.6801,295.4482 160.2299,295.561 159.7707,295.6291 159.3071,295.6518 158.8435,295.6291 158.3843,295.561 157.934,295.4482 157.497,295.2918 157.0774,295.0933 156.6793,294.8547 156.3064,294.5782 155.9625,294.2665 155.6508,293.9225 155.3743,293.5497 155.1356,293.1516 154.9372,292.7319 154.7808,292.2949 154.668,291.8446 154.5999,291.3855 154.5771,290.9219 154.5999,290.4582 154.668,289.9991 154.7808,289.5488 154.9372,289.1118 155.1356,288.6922 155.3743,288.294 155.6508,287.9212 155.9625,287.5773 156.3064,287.2655 156.6793,286.989 157.0774,286.7504 157.497,286.5519 157.934,286.3956 158.3843,286.2828 158.8435,286.2147 159.3071,286.1919 159.7707,286.2147 160.2299,286.2828 160.6801,286.3956 161.1172,286.5519 161.5368,286.7504 161.9349,286.989 162.3077,287.2655 162.6517,287.5773 162.9634,287.9212 163.2399,288.294 163.4786,288.6922 163.677,289.1118 163.8334,289.5488 163.9462,289.9991 164.0143,290.4582 164.0371,290.9219 164.0143,291.3855 163.9462,291.8446 163.8334,292.2949 163.677,292.7319"/>
    <polygon points="133.2558,288.7515 134.1447,288.0923 135.0938,287.5234 136.0942,287.0502 137.1361,286.6774 138.2096,286.4086 139.3042,286.2462 140.4094,286.1919 141.5147,286.2462 142.6093,286.4086 143.6828,286.6774 144.7247,287.0502 145.7251,287.5234 146.6742,288.0923 147.5631,288.7515 148.383,289.4946 149.1262,290.3146 149.7854,291.2034 150.3543,292.1526 150.8274,293.1529 151.2002,294.1949 151.4691,295.2683 151.6315,296.3629 151.6858,297.4682 151.6315,298.5735 151.4691,299.6681 151.2002,300.7415 150.8274,301.7835 150.3543,302.7838 149.7854,303.733 149.1262,304.6218 148.383,305.4417 147.5631,306.1849 146.6742,306.8441 145.7251,307.413 144.7247,307.8861 143.6828,308.2589 142.6093,308.5278 141.5147,308.6902 140.4094,308.7445 139.3042,308.6902 138.2096,308.5278 137.1361,308.2589 136.0942,307.8861 135.0938,307.413 134.1447,306.8441 133.2558,306.1849 132.4359,305.4417 131.6927,304.6218 131.0335,303.733 130.4646,302.7838 129.9915,301.7835 129.6187,300.7415 129.3498,299.6681 129.1874,298.5735 129.1331,297.4682 129.1874,296.3629 129.3498,295.2683 129.6187,294.1949 129.9915,293.1529 130.4646,292.1526 131.0335,291.2034 131.6927,290.3146 132.4359,289.4946"/>
    <polygon points="129.9304,283.4528 129.9985,283.9119 130.0213,284.3755 129.9985,284.8391 129.9304,285.2983 129.8176,285.7486 129.6613,286.1856 129.4628,286.6052 129.2242,287.0034 128.9477,287.3762 128.6359,287.7201 128.292,288.0318 127.9192,288.3084 127.521,288.547 127.1014,288.7455 126.6644,288.9018 126.2141,289.0146 125.755,289.0827 125.2913,289.1055 124.8277,289.0827 124.3686,289.0146 123.9183,288.9018 123.4813,288.7455 123.0616,288.547 122.6635,288.3084 122.2907,288.0318 121.9467,287.7201 121.635,287.3762 121.3585,287.0034 121.1199,286.6052 120.9214,286.1856 120.765,285.7486 120.6523,285.2983 120.5841,284.8391 120.5614,284.3755 120.5841,283.9119 120.6523,283.4528 120.765,283.0025 120.9214,282.5654 121.1199,282.1458 121.3585,281.7477 121.635,281.3749 121.9467,281.0309 122.2907,280.7192 122.6635,280.4427 123.0616,280.2041 123.4813,280.0056 123.9183,279.8492 124.3686,279.7364 124.8277,279.6683 125.2913,279.6456 125.755,279.6683 126.2141,279.7364 126.6644,279.8492 127.1014,280.0056 127.521,280.2041 127.9192,280.4427 128.292,280.7192 128.6359,281.0309 128.9477,281.3749 129.2242,281.7477 129.4628,282.1458 129.6613,282.5654 129.8176,283.0025"/>
    <polygon points="118.1242,266.9662 117.8856,267.3644 117.6091,267.7372 117.2974,268.0811 116.9534,268.3928 116.5806,268.6694 116.1824,268.908 115.7628,269.1065 115.3258,269.2628 114.8755,269.3756 114.4164,269.4437 113.9528,269.4665 113.4891,269.4437 113.03,269.3756 112.5797,269.2628 112.1427,269.1065 111.7231,268.908 111.3249,268.6694 110.9521,268.3928 110.6082,268.0811 110.2964,267.7372 110.0199,267.3644 109.7813,266.9662 109.5828,266.5466 109.4265,266.1096 109.3137,265.6593 109.2456,265.2001 109.2228,264.7365 109.2456,264.2729 109.3137,263.8138 109.4265,263.3635 109.5828,262.9264 109.7813,262.5068 110.0199,262.1087 110.2964,261.7359 110.6082,261.3919 110.9521,261.0802 111.3249,260.8037 111.7231,260.5651 112.1427,260.3666 112.5797,260.2102 113.03,260.0974 113.4891,260.0293 113.9528,260.0066 114.4164,260.0293 114.8755,260.0974 115.3258,260.2102 115.7628,260.3666 116.1824,260.5651 116.5806,260.8037 116.9534,261.0802 117.2974,261.3919 117.6091,261.7359 117.8856,262.1087 118.1242,262.5068 118.3227,262.9264 118.4791,263.3635 118.5918,263.8138 118.66,264.2729 118.6827,264.7365 118.66,265.2001 118.5918,265.6593 118.4791,266.1096 118.3227,266.5466"/>
    <polygon points="126.6644,266.7566 127.1014,266.9129 127.521,267.1114 127.9192,267.35 128.292,267.6265 128.6359,267.9383 128.9477,268.2822 129.2242,268.655 129.4628,269.0532 129.6613,269.4728 129.8176,269.9098 129.9304,270.3601 129.9985,270.8192 130.0213,271.2829 129.9985,271.7465 129.9304,272.2056 129.8176,272.6559 129.6613,273.0929 129.4628,273.5126 129.2242,273.9107 128.9477,274.2835 128.6359,274.6275 128.292,274.9392 127.9192,275.2157 127.521,275.4543 127.1014,275.6528 126.6644,275.8092 126.2141,275.9219 125.755,275.9901 125.2913,276.0128 124.8277,275.9901 124.3686,275.9219 123.9183,275.8092 123.4813,275.6528 123.0616,275.4543 122.6635,275.2157 122.2907,274.9392 121.9467,274.6275 121.635,274.2835 121.3585,273.9107 121.1199,273.5126 120.9214,273.0929 120.765,272.6559 120.6523,272.2056 120.5841,271.7465 120.5614,271.2829 120.5841,270.8192 120.6523,270.3601 120.765,269.9098 120.9214,269.4728 121.1199,269.0532 121.3585,268.655 121.635,268.2822 121.9467,267.9383 122.2907,267.6265 122.6635,267.35 123.0616,267.1114 123.4813,266.9129 123.9183,266.7566 124.3686,266.6438 124.8277,266.5757 125.2913,266.5529 125.755,266.5757 126.2141,266.6438"/>
    <polygon points="134.4002,273.6577 134.8198,273.4593 135.2569,273.3029 135.7071,273.1901 136.1663,273.122 136.6299,273.0992 137.0935,273.122 137.5527,273.1901 138.003,273.3029 138.44,273.4593 138.8596,273.6577 139.2578,273.8964 139.6306,274.1729 139.9745,274.4846 140.2862,274.8285 140.5627,275.2014 140.8014,275.5995 140.9998,276.0191 141.1562,276.4562 141.269,276.9064 141.3371,277.3656 141.3599,277.8292 141.3371,278.2928 141.269,278.752 141.1562,279.2022 140.9998,279.6393 140.8014,280.0589 140.5627,280.457 140.2862,280.8299 139.9745,281.1738 139.6306,281.4855 139.2578,281.762 138.8596,282.0007 138.44,282.1991 138.003,282.3555 137.5527,282.4683 137.0935,282.5364 136.6299,282.5592 136.1663,282.5364 135.7071,282.4683 135.2569,282.3555 134.8198,282.1991 134.4002,282.0007 134.0021,281.762 133.6293,281.4855 133.2853,281.1738 132.9736,280.8299 132.6971,280.457 132.4585,280.0589 132.26,279.6393 132.1036,279.2022 131.9908,278.752 131.9227,278.2928 131.8999,277.8292 131.9227,277.3656 131.9908,276.9064 132.1036,276.4562 132.26,276.0191 132.4585,275.5995 132.6971,275.2014 132.9736,274.8285 133.2853,274.4846 133.6293,274.1729 134.0021,273.8964"/>
    <polygon points="150.1982,267.1114 150.5963,267.35 150.9692,267.6265 151.3131,267.9383 151.6248,268.2822 151.9013,268.655 152.14,269.0532 152.3384,269.4728 152.4948,269.9098 152.6076,270.3601 152.6757,270.8192 152.6985,271.2829 152.6757,271.7465 152.6076,272.2056 152.4948,272.6559 152.3384,273.0929 152.14,273.5126 151.9013,273.9107 151.6248,274.2835 151.3131,274.6275 150.9692,274.9392 150.5963,275.2157 150.1982,275.4543 149.7786,275.6528 149.3415,275.8092 148.8913,275.9219 148.4321,275.9901 147.9685,276.0128 147.5049,275.9901 147.0457,275.9219 146.5955,275.8092 146.1584,275.6528 145.7388,275.4543 145.3407,275.2157 144.9678,274.9392 144.6239,274.6275 144.3122,274.2835 144.0357,273.9107 143.797,273.5126 143.5986,273.0929 143.4422,272.6559 143.3294,272.2056 143.2613,271.7465 143.2385,271.2829 143.2613,270.8192 143.3294,270.3601 143.4422,269.9098 143.5986,269.4728 143.797,269.0532 144.0357,268.655 144.3122,268.2822 144.6239,267.9383 144.9678,267.6265 145.3407,267.35 145.7388,267.1114 146.1584,266.9129 146.5955,266.7566 147.0457,266.6438 147.5049,266.5757 147.9685,266.5529 148.4321,266.5757 148.8913,266.6438 149.3415,266.7566 149.7786,266.9129"/>
    <polygon points="144.9678,248.7538 145.3407,249.0304 145.7388,249.269 146.1584,249.4675 146.5955,249.6238 147.0457,249.7366 147.5049,249.8047 147.9685,249.8275 148.4321,249.8047 148.8913,249.7366 149.3415,249.6238 149.7786,249.4675 150.1982,249.269 150.5963,249.0304 150.9692,248.7538 151.3131,248.4421 151.6248,248.0982 151.9013,247.7254 152.14,247.3272 152.3384,246.9076 152.4948,246.4706 152.6076,246.0203 152.6757,245.5611 152.6985,245.0975 152.6757,244.6339 152.6076,244.1748 152.4948,243.7245 152.3384,243.2874 152.14,242.8678 151.9013,242.4697 151.6248,242.0969 151.3131,241.7529 150.9692,241.4412 150.5963,241.1647 150.1982,240.9261 149.7786,240.7276 149.3415,240.5712 148.8913,240.4584 148.4321,240.3903 147.9685,240.3676 147.5049,240.3903 147.0457,240.4584 146.5955,240.5712 146.1584,240.7276 145.7388,240.9261 145.3407,241.1647 144.9678,241.4412 144.6239,241.7529 144.3122,242.0969 144.0357,242.4697 143.797,242.8678 143.5986,243.2874 143.4422,243.7245 143.3294,244.1748 143.2613,244.6339 143.2385,245.0975 143.2613,245.5611 143.3294,246.0203 143.4422,246.4706 143.5986,246.9076 143.797,247.3272 144.0357,247.7254 144.3122,248.0982 144.6239,248.4421"/>
    <polygon points="137.0935,243.2584 137.5527,243.1903 138.003,243.0775 138.44,242.9211 138.8596,242.7227 139.2578,242.484 139.6306,242.2075 139.9745,241.8958 140.2862,241.5519 140.5627,241.179 140.8014,240.7809 140.9998,240.3613 141.1562,239.9242 141.269,239.474 141.3371,239.0148 141.3599,238.5512 141.3371,238.0876 141.269,237.6284 141.1562,237.1782 140.9998,236.7411 140.8014,236.3215 140.5627,235.9234 140.2862,235.5505 139.9745,235.2066 139.6306,234.8949 139.2578,234.6184 138.8596,234.3797 138.44,234.1813 138.003,234.0249 137.5527,233.9121 137.0935,233.844 136.6299,233.8212 136.1663,233.844 135.7071,233.9121 135.2569,234.0249 134.8198,234.1813 134.4002,234.3797 134.0021,234.6184 133.6293,234.8949 133.2853,235.2066 132.9736,235.5505 132.6971,235.9234 132.4585,236.3215 132.26,236.7411 132.1036,237.1782 131.9908,237.6284 131.9227,238.0876 131.8999,238.5512 131.9227,239.0148 131.9908,239.474 132.1036,239.9242 132.26,240.3613 132.4585,240.7809 132.6971,241.179 132.9736,241.5519 133.2853,241.8958 133.6293,242.2075 134.0021,242.484 134.4002,242.7227 134.8198,242.9211 135.2569,243.0775 135.7071,243.1903 136.1663,243.2584 136.6299,243.2812"/>
    <polygon points="143.5986,230.1948 143.4422,230.6318 143.3294,231.0821 143.2613,231.5412 143.2385,232.0049 143.2613,232.4685 143.3294,232.9276 143.4422,233.3779 143.5986,233.8149 143.797,234.2346 144.0357,234.6327 144.3122,235.0055 144.6239,235.3495 144.9678,235.6612 145.3407,235.9377 145.7388,236.1763 146.1584,236.3748 146.5955,236.5312 147.0457,236.6439 147.5049,236.7121 147.9685,236.7348 148.4321,236.7121 148.8913,236.6439 149.3415,236.5312 149.7786,236.3748 150.1982,236.1763 150.5963,235.9377 150.9692,235.6612 151.3131,235.3495 151.6248,235.0055 151.9013,234.6327 152.14,234.2346 152.3384,233.8149 152.4948,233.3779 152.6076,232.9276 152.6757,232.4685 152.6985,232.0049 152.6757,231.5412 152.6076,231.0821 152.4948,230.6318 152.3384,230.1948 152.14,229.7752 151.9013,229.377 151.6248,229.0042 151.3131,228.6603 150.9692,228.3485 150.5963,228.072 150.1982,227.8334 149.7786,227.6349 149.3415,227.4786 148.8913,227.3658 148.4321,227.2977 147.9685,227.2749 147.5049,227.2977 147.0457,227.3658 146.5955,227.4786 146.1584,227.6349 145.7388,227.8334 145.3407,228.072 144.9678,228.3485 144.6239,228.6603 144.3122,229.0042 144.0357,229.377 143.797,229.7752"/>
    <polygon points="160.6801,220.9322 160.2299,220.8194 159.7707,220.7513 159.3071,220.7286 158.8435,220.7513 158.3843,220.8194 157.934,220.9322 157.497,221.0886 157.0774,221.2871 156.6793,221.5257 156.3064,221.8022 155.9625,222.1139 155.6508,222.4579 155.3743,222.8307 155.1356,223.2288 154.9372,223.6484 154.7808,224.0855 154.668,224.5358 154.5999,224.9949 154.5771,225.4585 154.5999,225.9221 154.668,226.3813 154.7808,226.8316 154.9372,227.2686 155.1356,227.6882 155.3743,228.0864 155.6508,228.4592 155.9625,228.8031 156.3064,229.1148 156.6793,229.3914 157.0774,229.63 157.497,229.8285 157.934,229.9848 158.3843,230.0976 158.8435,230.1657 159.3071,230.1885 159.7707,230.1657 160.2299,230.0976 160.6801,229.9848 161.1172,229.8285 161.5368,229.63 161.9349,229.3914 162.3077,229.1148 162.6517,228.8031 162.9634,228.4592 163.2399,228.0864 163.4786,227.6882 163.677,227.2686 163.8334,226.8316 163.9462,226.3813 164.0143,225.9221 164.0371,225.4585 164.0143,224.9949 163.9462,224.5358 163.8334,224.0855 163.677,223.6484 163.4786,223.2288 163.2399,222.8307 162.9634,222.4579 162.6517,222.1139 162.3077,221.8022 161.9349,221.5257 161.5368,221.2871 161.1172,221.0886"/>
    <polygon points="173.9903,235.3495 174.302,235.0055 174.5785,234.6327 174.8171,234.2346 175.0156,233.8149 175.172,233.3779 175.2848,232.9276 175.3529,232.4685 175.3756,232.0049 175.3529,231.5412 175.2848,231.0821 175.172,230.6318 175.0156,230.1948 174.8171,229.7752 174.5785,229.377 174.302,229.0042 173.9903,228.6603 173.6463,228.3485 173.2735,228.072 172.8754,227.8334 172.4558,227.6349 172.0187,227.4786 171.5684,227.3658 171.1093,227.2977 170.6457,227.2749 170.1821,227.2977 169.7229,227.3658 169.2726,227.4786 168.8356,227.6349 168.416,227.8334 168.0178,228.072 167.645,228.3485 167.3011,228.6603 166.9894,229.0042 166.7128,229.377 166.4742,229.7752 166.2757,230.1948 166.1194,230.6318 166.0066,231.0821 165.9385,231.5412 165.9157,232.0049 165.9385,232.4685 166.0066,232.9276 166.1194,233.3779 166.2757,233.8149 166.4742,234.2346 166.7128,234.6327 166.9894,235.0055 167.3011,235.3495 167.645,235.6612 168.0178,235.9377 168.416,236.1763 168.8356,236.3748 169.2726,236.5312 169.7229,236.6439 170.1821,236.7121 170.6457,236.7348 171.1093,236.7121 171.5684,236.6439 172.0187,236.5312 172.4558,236.3748 172.8754,236.1763 173.2735,235.9377 173.6463,235.6612"/>
    <polygon points="184.2139,234.3797 183.7943,234.1813 183.3573,234.0249 182.907,233.9121 182.4479,233.844 181.9843,233.8212 181.5206,233.844 181.0615,233.9121 180.6112,234.0249 180.1742,234.1813 179.7546,234.3797 179.3564,234.6184 178.9836,234.8949 178.6397,235.2066 178.3279,235.5505 178.0514,235.9234 177.8128,236.3215 177.6143,236.7411 177.458,237.1782 177.3452,237.6284 177.2771,238.0876 177.2543,238.5512 177.2771,239.0148 177.3452,239.474 177.458,239.9242 177.6143,240.3613 177.8128,240.7809 178.0514,241.179 178.3279,241.5519 178.6397,241.8958 178.9836,242.2075 179.3564,242.484 179.7546,242.7227 180.1742,242.9211 180.6112,243.0775 181.0615,243.1903 181.5206,243.2584 181.9843,243.2812 182.4479,243.2584 182.907,243.1903 183.3573,243.0775 183.7943,242.9211 184.2139,242.7227 184.6121,242.484 184.9849,242.2075 185.3288,241.8958 185.6406,241.5519 185.9171,241.179 186.1557,240.7809 186.3542,240.3613 186.5106,239.9242 186.6233,239.474 186.6914,239.0148 186.7142,238.5512 186.6914,238.0876 186.6233,237.6284 186.5106,237.1782 186.3542,236.7411 186.1557,236.3215 185.9171,235.9234 185.6406,235.5505 185.3288,235.2066 184.9849,234.8949 184.6121,234.6184"/>
    <polygon points="184.2139,229.63 184.6121,229.3914 184.9849,229.1148 185.3288,228.8031 185.6406,228.4592 185.9171,228.0864 186.1557,227.6882 186.3542,227.2686 186.5106,226.8316 186.6233,226.3813 186.6914,225.9221 186.7142,225.4585 186.6914,224.9949 186.6233,224.5358 186.5106,224.0855 186.3542,223.6484 186.1557,223.2288 185.9171,222.8307 185.6406,222.4579 185.3288,222.1139 184.9849,221.8022 184.6121,221.5257 184.2139,221.2871 183.7943,221.0886 183.3573,220.9322 182.907,220.8194 182.4479,220.7513 181.9843,220.7286 181.5206,220.7513 181.0615,220.8194 180.6112,220.9322 180.1742,221.0886 179.7546,221.2871 179.3564,221.5257 178.9836,221.8022 178.6397,222.1139 178.3279,222.4579 178.0514,222.8307 177.8128,223.2288 177.6143,223.6484 177.458,224.0855 177.3452,224.5358 177.2771,224.9949 177.2543,225.4585 177.2771,225.9221 177.3452,226.3813 177.458,226.8316 177.6143,227.2686 177.8128,227.6882 178.0514,228.0864 178.3279,228.4592 178.6397,228.8031 178.9836,229.1148 179.3564,229.3914 179.7546,229.63 180.1742,229.8285 180.6112,229.9848 181.0615,230.0976 181.5206,230.1657 181.9843,230.1885 182.4479,230.1657 182.907,230.0976 183.3573,229.9848 183.7943,229.8285"/>
    <polygon points="189.9782,228.6603 189.6665,229.0042 189.39,229.377 189.1514,229.7752 188.9529,230.1948 188.7965,230.6318 188.6837,231.0821 188.6156,231.5412 188.5929,232.0049 188.6156,232.4685 188.6837,232.9276 188.7965,233.3779 188.9529,233.8149 189.1514,234.2346 189.39,234.6327 189.6665,235.0055 189.9782,235.3495 190.3222,235.6612 190.695,235.9377 191.0931,236.1763 191.5128,236.3748 191.9498,236.5312 192.4001,236.6439 192.8592,236.7121 193.3228,236.7348 193.7865,236.7121 194.2456,236.6439 194.6959,236.5312 195.1329,236.3748 195.5525,236.1763 195.9507,235.9377 196.3235,235.6612 196.6674,235.3495 196.9792,235.0055 197.2557,234.6327 197.4943,234.2346 197.6928,233.8149 197.8491,233.3779 197.9619,232.9276 198.03,232.4685 198.0528,232.0049 198.03,231.5412 197.9619,231.0821 197.8491,230.6318 197.6928,230.1948 197.4943,229.7752 197.2557,229.377 196.9792,229.0042 196.6674,228.6603 196.3235,228.3485 195.9507,228.072 195.5525,227.8334 195.1329,227.6349 194.6959,227.4786 194.2456,227.3658 193.7865,227.2977 193.3228,227.2749 192.8592,227.2977 192.4001,227.3658 191.9498,227.4786 191.5128,227.6349 191.0931,227.8334 190.695,228.072 190.3222,228.3485"/>
    <polygon points="191.0931,240.9261 190.695,241.1647 190.3222,241.4412 189.9782,241.7529 189.6665,242.0969 189.39,242.4697 189.1514,242.8678 188.9529,243.2874 188.7965,243.7245 188.6837,244.1748 188.6156,244.6339 188.5929,245.0975 188.6156,245.5611 188.6837,246.0203 188.7965,246.4706 188.9529,246.9076 189.1514,247.3272 189.39,247.7254 189.6665,248.0982 189.9782,248.4421 190.3222,248.7538 190.695,249.0304 191.0931,249.269 191.5128,249.4675 191.9498,249.6238 192.4001,249.7366 192.8592,249.8047 193.3228,249.8275 193.7865,249.8047 194.2456,249.7366 194.6959,249.6238 195.1329,249.4675 195.5525,249.269 195.9507,249.0304 196.3235,248.7538 196.6674,248.4421 196.9792,248.0982 197.2557,247.7254 197.4943,247.3272 197.6928,246.9076 197.8491,246.4706 197.9619,246.0203 198.03,245.5611 198.0528,245.0975 198.03,244.6339 197.9619,244.1748 197.8491,243.7245 197.6928,243.2874 197.4943,242.8678 197.2557,242.4697 196.9792,242.0969 196.6674,241.7529 196.3235,241.4412 195.9507,241.1647 195.5525,240.9261 195.1329,240.7276 194.6959,240.5712 194.2456,240.4584 193.7865,240.3903 193.3228,240.3676 192.8592,240.3903 192.4001,240.4584 191.9498,240.5712 191.5128,240.7276"/>
    <polygon points="167.4019,247.7722 166.36,247.3994 165.2865,247.1306 164.1919,246.9682 163.0866,246.9139 161.9813,246.9682 160.8867,247.1306 159.8133,247.3994 158.7714,247.7722 157.771,248.2454 156.8218,248.8143 155.933,249.4735 155.1131,250.2166 154.3699,251.0366 153.7107,251.9254 153.1418,252.8746 152.6687,253.8749 152.2959,254.9169 152.027,255.9903 151.8646,257.0849 151.8103,258.1902 151.8646,259.2955 152.027,260.3901 152.2959,261.4635 152.6687,262.5054 153.1418,263.5058 153.7107,264.455 154.3699,265.3438 155.1131,266.1637 155.933,266.9069 156.8218,267.5661 157.771,268.135 158.7714,268.6081 159.8133,268.9809 160.8867,269.2498 161.9813,269.4122 163.0866,269.4665 164.1919,269.4122 165.2865,269.2498 166.36,268.9809 167.4019,268.6081 168.4022,268.135 169.3514,267.5661 170.2402,266.9069 171.0602,266.1637 171.8033,265.3438 172.4625,264.455 173.0314,263.5058 173.5046,262.5054 173.8774,261.4635 174.1462,260.3901 174.3086,259.2955 174.3629,258.1902 174.3086,257.0849 174.1462,255.9903 173.8774,254.9169 173.5046,253.8749 173.0314,252.8746 172.4625,251.9254 171.8033,251.0366 171.0602,250.2166 170.2402,249.4735 169.3514,248.8143 168.4022,248.2454"/>
    <polygon points="193.7373,289.4946 194.4805,290.3146 195.1397,291.2034 195.7086,292.1526 196.1817,293.1529 196.5545,294.1949 196.8234,295.2683 196.9858,296.3629 197.0401,297.4682 196.9858,298.5735 196.8234,299.6681 196.5545,300.7415 196.1817,301.7835 195.7086,302.7838 195.1397,303.733 194.4805,304.6218 193.7373,305.4417 192.9174,306.1849 192.0286,306.8441 191.0794,307.413 190.079,307.8861 189.0371,308.2589 187.9637,308.5278 186.8691,308.6902 185.7638,308.7445 184.6585,308.6902 183.5639,308.5278 182.4904,308.2589 181.4485,307.8861 180.4482,307.413 179.499,306.8441 178.6102,306.1849 177.7902,305.4417 177.0471,304.6218 176.3879,303.733 175.819,302.7838 175.3458,301.7835 174.973,300.7415 174.7041,299.6681 174.5418,298.5735 174.4875,297.4682 174.5418,296.3629 174.7041,295.2683 174.973,294.1949 175.3458,293.1529 175.819,292.1526 176.3879,291.2034 177.0471,290.3146 177.7902,289.4946 178.6102,288.7515 179.499,288.0923 180.4482,287.5234 181.4485,287.0502 182.4904,286.6774 183.5639,286.4086 184.6585,286.2462 185.7638,286.1919 186.8691,286.2462 187.9637,286.4086 189.0371,286.6774 190.079,287.0502 191.0794,287.5234 192.0286,288.0923 192.9174,288.7515"/>
    <polygon points="195.1397,277.5476 194.4805,278.4365 193.7373,279.2564 192.9174,279.9996 192.0286,280.6588 191.0794,281.2277 190.079,281.7008 189.0371,282.0736 187.9637,282.3425 186.8691,282.5049 185.7638,282.5592 184.6585,282.5049 183.5639,282.3425 182.4904,282.0736 181.4485,281.7008 180.4482,281.2277 179.499,280.6588 178.6102,279.9996 177.7902,279.2564 177.0471,278.4365 176.3879,277.5476 175.819,276.5985 175.3458,275.5981 174.973,274.5562 174.7041,273.4828 174.5418,272.3881 174.4875,271.2829 174.5418,270.1776 174.7041,269.083 174.973,268.0095 175.3458,266.9676 175.819,265.9672 176.3879,265.0181 177.0471,264.1292 177.7902,263.3093 178.6102,262.5662 179.499,261.907 180.4482,261.338 181.4485,260.8649 182.4904,260.4921 183.5639,260.2232 184.6585,260.0609 185.7638,260.0066 186.8691,260.0609 187.9637,260.2232 189.0371,260.4921 190.079,260.8649 191.0794,261.338 192.0286,261.907 192.9174,262.5662 193.7373,263.3093 194.4805,264.1292 195.1397,265.0181 195.7086,265.9672 196.1817,266.9676 196.5545,268.0095 196.8234,269.083 196.9858,270.1776 197.0401,271.2829 196.9858,272.3881 196.8234,273.4828 196.5545,274.5562 196.1817,275.5981 195.7086,276.5985"/>
    <polygon points="197.3813,260.3901 197.2189,259.2955 197.1646,258.1902 197.2189,257.0849 197.3813,255.9903 197.6502,254.9169 198.023,253.8749 198.4961,252.8746 199.065,251.9254 199.7242,251.0366 200.4674,250.2166 201.2873,249.4735 202.1762,248.8143 203.1253,248.2454 204.1257,247.7722 205.1676,247.3994 206.241,247.1306 207.3357,246.9682 208.4409,246.9139 209.5462,246.9682 210.6408,247.1306 211.7143,247.3994 212.7562,247.7722 213.7566,248.2454 214.7057,248.8143 215.5946,249.4735 216.4145,250.2166 217.1576,251.0366 217.8169,251.9254 218.3858,252.8746 218.8589,253.8749 219.2317,254.9169 219.5006,255.9903 219.663,257.0849 219.7173,258.1902 219.663,259.2955 219.5006,260.3901 219.2317,261.4635 218.8589,262.5054 218.3858,263.5058 217.8169,264.455 217.1576,265.3438 216.4145,266.1637 215.5946,266.9069 214.7057,267.5661 213.7566,268.135 212.7562,268.6081 211.7143,268.9809 210.6408,269.2498 209.5462,269.4122 208.4409,269.4665 207.3357,269.4122 206.241,269.2498 205.1676,268.9809 204.1257,268.6081 203.1253,268.135 202.1762,267.5661 201.2873,266.9069 200.4674,266.1637 199.7242,265.3438 199.065,264.455 198.4961,263.5058 198.023,262.5054 197.6502,261.4635"/>
    <polygon points="221.1733,250.4131 220.7002,249.4128 220.3274,248.3709 220.0585,247.2974 219.8961,246.2028 219.8418,245.0975 219.8961,243.9923 220.0585,242.8976 220.3274,241.8242 220.7002,240.7823 221.1733,239.7819 221.7422,238.8327 222.4014,237.9439 223.1446,237.124 223.9645,236.3808 224.8533,235.7216 225.8025,235.1527 226.8029,234.6796 227.8448,234.3068 228.9182,234.0379 230.0128,233.8755 231.1181,233.8212 232.2234,233.8755 233.318,234.0379 234.3914,234.3068 235.4334,234.6796 236.4337,235.1527 237.3829,235.7216 238.2717,236.3808 239.0917,237.124 239.8348,237.9439 240.494,238.8327 241.0629,239.7819 241.5361,240.7823 241.9089,241.8242 242.1777,242.8976 242.3401,243.9923 242.3944,245.0975 242.3401,246.2028 242.1777,247.2974 241.9089,248.3709 241.5361,249.4128 241.0629,250.4131 240.494,251.3623 239.8348,252.2511 239.0917,253.0711 238.2717,253.8142 237.3829,254.4734 236.4337,255.0423 235.4334,255.5155 234.3914,255.8883 233.318,256.1572 232.2234,256.3195 231.1181,256.3738 230.0128,256.3195 228.9182,256.1572 227.8448,255.8883 226.8029,255.5155 225.8025,255.0423 224.8533,254.4734 223.9645,253.8142 223.1446,253.0711 222.4014,252.2511 221.7422,251.3623"/>
    <polygon points="220.5263,233.3779 220.3699,233.8149 220.1715,234.2346 219.9328,234.6327 219.6563,235.0055 219.3446,235.3495 219.0007,235.6612 218.6278,235.9377 218.2297,236.1763 217.8101,236.3748 217.373,236.5312 216.9228,236.6439 216.4636,236.7121 216.0,236.7348 215.5364,236.7121 215.0772,236.6439 214.627,236.5312 214.1899,236.3748 213.7703,236.1763 213.3722,235.9377 212.9993,235.6612 212.6554,235.3495 212.3437,235.0055 212.0672,234.6327 211.8285,234.2346 211.6301,233.8149 211.4737,233.3779 211.3609,232.9276 211.2928,232.4685 211.27,232.0049 211.2928,231.5412 211.3609,231.0821 211.4737,230.6318 211.6301,230.1948 211.8285,229.7752 212.0672,229.377 212.3437,229.0042 212.6554,228.6603 212.9993,228.3485 213.3722,228.072 213.7703,227.8334 214.1899,227.6349 214.627,227.4786 215.0772,227.3658 215.5364,227.2977 216.0,227.2749 216.4636,227.2977 216.9228,227.3658 217.373,227.4786 217.8101,227.6349 218.2297,227.8334 218.6278,228.072 219.0007,228.3485 219.3446,228.6603 219.6563,229.0042 219.9328,229.377 220.1715,229.7752 220.3699,230.1948 220.5263,230.6318 220.6391,231.0821 220.7072,231.5412 220.73,232.0049 220.7072,232.4685 220.6391,232.9276"/>
    <polygon points="229.1487,221.0886 229.5683,221.2871 229.9664,221.5257 230.3392,221.8022 230.6832,222.1139 230.9949,222.4579 231.2714,222.8307 231.51,223.2288 231.7085,223.6484 231.8649,224.0855 231.9777,224.5358 232.0458,224.9949 232.0686,225.4585 232.0458,225.9221 231.9777,226.3813 231.8649,226.8316 231.7085,227.2686 231.51,227.6882 231.2714,228.0864 230.9949,228.4592 230.6832,228.8031 230.3392,229.1148 229.9664,229.3914 229.5683,229.63 229.1487,229.8285 228.7116,229.9848 228.2614,230.0976 227.8022,230.1657 227.3386,230.1885 226.875,230.1657 226.4158,230.0976 225.9655,229.9848 225.5285,229.8285 225.1089,229.63 224.7108,229.3914 224.3379,229.1148 223.994,228.8031 223.6823,228.4592 223.4058,228.0864 223.1671,227.6882 222.9687,227.2686 222.8123,226.8316 222.6995,226.3813 222.6314,225.9221 222.6086,225.4585 222.6314,224.9949 222.6995,224.5358 222.8123,224.0855 222.9687,223.6484 223.1671,223.2288 223.4058,222.8307 223.6823,222.4579 223.994,222.1139 224.3379,221.8022 224.7108,221.5257 225.1089,221.2871 225.5285,221.0886 225.9655,220.9322 226.4158,220.8194 226.875,220.7513 227.3386,220.7286 227.8022,220.7513 228.2614,220.8194 228.7116,220.9322"/>
    <polygon points="241.6778,215.2559 242.0218,215.5676 242.3335,215.9115 242.61,216.2844 242.8486,216.6825 243.0471,217.1021 243.2035,217.5392 243.3163,217.9894 243.3844,218.4486 243.4071,218.9122 243.3844,219.3758 243.3163,219.835 243.2035,220.2852 243.0471,220.7223 242.8486,221.1419 242.61,221.54 242.3335,221.9129 242.0218,222.2568 241.6778,222.5685 241.305,222.845 240.9069,223.0837 240.4872,223.2821 240.0502,223.4385 239.5999,223.5513 239.1408,223.6194 238.6772,223.6422 238.2135,223.6194 237.7544,223.5513 237.3041,223.4385 236.8671,223.2821 236.4475,223.0837 236.0493,222.845 235.6765,222.5685 235.3326,222.2568 235.0208,221.9129 234.7443,221.54 234.5057,221.1419 234.3072,220.7223 234.1509,220.2852 234.0381,219.835 233.97,219.3758 233.9472,218.9122 233.97,218.4486 234.0381,217.9894 234.1509,217.5392 234.3072,217.1021 234.5057,216.6825 234.7443,216.2844 235.0208,215.9115 235.3326,215.5676 235.6765,215.2559 236.0493,214.9794 236.4475,214.7407 236.8671,214.5423 237.3041,214.3859 237.7544,214.2731 238.2135,214.205 238.6772,214.1822 239.1408,214.205 239.5999,214.2731 240.0502,214.3859 240.4872,214.5423 240.9069,214.7407 241.305,214.9794"/>
    <polygon points="264.6989,248.4421 264.355,248.7538 263.9822,249.0304 263.584,249.269 263.1644,249.4675 262.7274,249.6238 262.2771,249.7366 261.8179,249.8047 261.3543,249.8275 260.8907,249.8047 260.4316,249.7366 259.9813,249.6238 259.5442,249.4675 259.1246,249.269 258.7265,249.0304 258.3537,248.7538 258.0097,248.4421 257.698,248.0982 257.4215,247.7254 257.1829,247.3272 256.9844,246.9076 256.828,246.4706 256.7152,246.0203 256.6471,245.5611 256.6244,245.0975 256.6471,244.6339 256.7152,244.1748 256.828,243.7245 256.9844,243.2874 257.1829,242.8678 257.4215,242.4697 257.698,242.0969 258.0097,241.7529 258.3537,241.4412 258.7265,241.1647 259.1246,240.9261 259.5442,240.7276 259.9813,240.5712 260.4316,240.4584 260.8907,240.3903 261.3543,240.3676 261.8179,240.3903 262.2771,240.4584 262.7274,240.5712 263.1644,240.7276 263.584,240.9261 263.9822,241.1647 264.355,241.4412 264.6989,241.7529 265.0106,242.0969 265.2872,242.4697 265.5258,242.8678 265.7243,243.2874 265.8806,243.7245 265.9934,244.1748 266.0615,244.6339 266.0843,245.0975 266.0615,245.5611 265.9934,246.0203 265.8806,246.4706 265.7243,246.9076 265.5258,247.3272 265.2872,247.7254 265.0106,248.0982"/>
    <polygon points="270.0651,247.711 270.4632,247.4724 270.8828,247.2739 271.3199,247.1176 271.7701,247.0048 272.2293,246.9367 272.6929,246.9139 273.1565,246.9367 273.6157,247.0048 274.066,247.1176 274.503,247.2739 274.9226,247.4724 275.3207,247.711 275.6936,247.9875 276.0375,248.2993 276.3492,248.6432 276.6257,249.016 276.8644,249.4142 277.0628,249.8338 277.2192,250.2708 277.332,250.7211 277.4001,251.1802 277.4229,251.6439 277.4001,252.1075 277.332,252.5666 277.2192,253.0169 277.0628,253.4539 276.8644,253.8736 276.6257,254.2717 276.3492,254.6445 276.0375,254.9885 275.6936,255.3002 275.3207,255.5767 274.9226,255.8153 274.503,256.0138 274.066,256.1702 273.6157,256.2829 273.1565,256.3511 272.6929,256.3738 272.2293,256.3511 271.7701,256.2829 271.3199,256.1702 270.8828,256.0138 270.4632,255.8153 270.0651,255.5767 269.6923,255.3002 269.3483,254.9885 269.0366,254.6445 268.7601,254.2717 268.5214,253.8736 268.323,253.4539 268.1666,253.0169 268.0538,252.5666 267.9857,252.1075 267.9629,251.6439 267.9857,251.1802 268.0538,250.7211 268.1666,250.2708 268.323,249.8338 268.5214,249.4142 268.7601,249.016 269.0366,248.6432 269.3483,248.2993 269.6923,247.9875"/>
    <polygon points="287.0322,248.7538 286.6593,249.0304 286.2612,249.269 285.8416,249.4675 285.4045,249.6238 284.9543,249.7366 284.4951,249.8047 284.0315,249.8275 283.5679,249.8047 283.1087,249.7366 282.6585,249.6238 282.2214,249.4675 281.8018,249.269 281.4037,249.0304 281.0308,248.7538 280.6869,248.4421 280.3752,248.0982 280.0987,247.7254 279.86,247.3272 279.6616,246.9076 279.5052,246.4706 279.3924,246.0203 279.3243,245.5611 279.3015,245.0975 279.3243,244.6339 279.3924,244.1748 279.5052,243.7245 279.6616,243.2874 279.86,242.8678 280.0987,242.4697 280.3752,242.0969 280.6869,241.7529 281.0308,241.4412 281.4037,241.1647 281.8018,240.9261 282.2214,240.7276 282.6585,240.5712 283.1087,240.4584 283.5679,240.3903 284.0315,240.3676 284.4951,240.3903 284.9543,240.4584 285.4045,240.5712 285.8416,240.7276 286.2612,240.9261 286.6593,241.1647 287.0322,241.4412 287.3761,241.7529 287.6878,242.0969 287.9643,242.4697 288.203,242.8678 288.4014,243.2874 288.5578,243.7245 288.6706,244.1748 288.7387,244.6339 288.7615,245.0975 288.7387,245.5611 288.6706,246.0203 288.5578,246.4706 288.4014,246.9076 288.203,247.3272 287.9643,247.7254 287.6878,248.0982 287.3761,248.4421"/>
    <polygon points="287.5321,269.083 287.6944,270.1776 287.7487,271.2829 287.6944,272.3881 287.5321,273.4828 287.2632,274.5562 286.8904,275.5981 286.4173,276.5985 285.8483,277.5476 285.1891,278.4365 284.446,279.2564 283.6261,279.9996 282.7372,280.6588 281.7881,281.2277 280.7877,281.7008 279.7458,282.0736 278.6723,282.3425 277.5777,282.5049 276.4724,282.5592 275.3672,282.5049 274.2725,282.3425 273.1991,282.0736 272.1572,281.7008 271.1568,281.2277 270.2077,280.6588 269.3188,279.9996 268.4989,279.2564 267.7557,278.4365 267.0965,277.5476 266.5276,276.5985 266.0545,275.5981 265.6817,274.5562 265.4128,273.4828 265.2504,272.3881 265.1961,271.2829 265.2504,270.1776 265.4128,269.083 265.6817,268.0095 266.0545,266.9676 266.5276,265.9672 267.0965,265.0181 267.7557,264.1292 268.4989,263.3093 269.3188,262.5662 270.2077,261.907 271.1568,261.338 272.1572,260.8649 273.1991,260.4921 274.2725,260.2232 275.3672,260.0609 276.4724,260.0066 277.5777,260.0609 278.6723,260.2232 279.7458,260.4921 280.7877,260.8649 281.7881,261.338 282.7372,261.907 283.6261,262.5662 284.446,263.3093 285.1891,264.1292 285.8483,265.0181 286.4173,265.9672 286.8904,266.9676 287.2632,268.0095"/>
    <polygon points="300.0773,264.2729 300.1001,264.7365 300.0773,265.2001 300.0092,265.6593 299.8964,266.1096 299.74,266.5466 299.5415,266.9662 299.3029,267.3644 299.0264,267.7372 298.7147,268.0811 298.3707,268.3928 297.9979,268.6694 297.5998,268.908 297.1802,269.1065 296.7431,269.2628 296.2929,269.3756 295.8337,269.4437 295.3701,269.4665 294.9065,269.4437 294.4473,269.3756 293.997,269.2628 293.56,269.1065 293.1404,268.908 292.7422,268.6694 292.3694,268.3928 292.0255,268.0811 291.7138,267.7372 291.4373,267.3644 291.1986,266.9662 291.0002,266.5466 290.8438,266.1096 290.731,265.6593 290.6629,265.2001 290.6401,264.7365 290.6629,264.2729 290.731,263.8138 290.8438,263.3635 291.0002,262.9264 291.1986,262.5068 291.4373,262.1087 291.7138,261.7359 292.0255,261.3919 292.3694,261.0802 292.7422,260.8037 293.1404,260.5651 293.56,260.3666 293.997,260.2102 294.4473,260.0974 294.9065,260.0293 295.3701,260.0066 295.8337,260.0293 296.2929,260.0974 296.7431,260.2102 297.1802,260.3666 297.5998,260.5651 297.9979,260.8037 298.3707,261.0802 298.7147,261.3919 299.0264,261.7359 299.3029,262.1087 299.5415,262.5068 299.74,262.9264 299.8964,263.3635 300.0092,263.8138"/>
    <polygon points="321.0479,281.4855 320.6751,281.762 320.2769,282.0007 319.8573,282.1991 319.4203,282.3555 318.97,282.4683 318.5109,282.5364 318.0472,282.5592 317.5836,282.5364 317.1245,282.4683 316.6742,282.3555 316.2372,282.1991 315.8176,282.0007 315.4194,281.762 315.0466,281.4855 314.7026,281.1738 314.3909,280.8299 314.1144,280.457 313.8758,280.0589 313.6773,279.6393 313.5209,279.2022 313.4082,278.752 313.34,278.2928 313.3173,277.8292 313.34,277.3656 313.4082,276.9064 313.5209,276.4562 313.6773,276.0191 313.8758,275.5995 314.1144,275.2014 314.3909,274.8285 314.7026,274.4846 315.0466,274.1729 315.4194,273.8964 315.8176,273.6577 316.2372,273.4593 316.6742,273.3029 317.1245,273.1901 317.5836,273.122 318.0472,273.0992 318.5109,273.122 318.97,273.1901 319.4203,273.3029 319.8573,273.4593 320.2769,273.6577 320.6751,273.8964 321.0479,274.1729 321.3918,274.4846 321.7036,274.8285 321.9801,275.2014 322.2187,275.5995 322.4172,276.0191 322.5735,276.4562 322.6863,276.9064 322.7544,277.3656 322.7772,277.8292 322.7544,278.2928 322.6863,278.752 322.5735,279.2022 322.4172,279.6393 322.2187,280.0589 321.9801,280.457 321.7036,280.8299 321.3918,281.1738"/>
    <polygon points="303.4649,294.7935 302.4229,295.1663 301.3495,295.4352 300.2549,295.5975 299.1496,295.6518 298.0443,295.5975 296.9497,295.4352 295.8763,295.1663 294.8344,294.7935 293.834,294.3203 292.8848,293.7514 291.996,293.0922 291.1761,292.3491 290.4329,291.5291 289.7737,290.6403 289.2048,289.6911 288.7317,288.6908 288.3589,287.6489 288.09,286.5754 287.9276,285.4808 287.8733,284.3755 287.9276,283.2703 288.09,282.1756 288.3589,281.1022 288.7317,280.0603 289.2048,279.0599 289.7737,278.1107 290.4329,277.2219 291.1761,276.402 291.996,275.6588 292.8848,274.9996 293.834,274.4307 294.8344,273.9576 295.8763,273.5848 296.9497,273.3159 298.0443,273.1535 299.1496,273.0992 300.2549,273.1535 301.3495,273.3159 302.4229,273.5848 303.4649,273.9576 304.4652,274.4307 305.4144,274.9996 306.3032,275.6588 307.1232,276.402 307.8663,277.2219 308.5255,278.1107 309.0944,279.0599 309.5676,280.0603 309.9404,281.1022 310.2092,282.1756 310.3716,283.2703 310.4259,284.3755 310.3716,285.4808 310.2092,286.5754 309.9404,287.6489 309.5676,288.6908 309.0944,289.6911 308.5255,290.6403 307.8663,291.5291 307.1232,292.3491 306.3032,293.0922 305.4144,293.7514 304.4652,294.3203"/>
    <polygon points="297.5998,299.8431 297.9979,300.0817 298.3707,300.3582 298.7147,300.6699 299.0264,301.0139 299.3029,301.3867 299.5415,301.7848 299.74,302.2044 299.8964,302.6415 300.0092,303.0918 300.0773,303.5509 300.1001,304.0145 300.0773,304.4781 300.0092,304.9373 299.8964,305.3876 299.74,305.8246 299.5415,306.2442 299.3029,306.6424 299.0264,307.0152 298.7147,307.3591 298.3707,307.6708 297.9979,307.9474 297.5998,308.186 297.1802,308.3845 296.7431,308.5408 296.2929,308.6536 295.8337,308.7217 295.3701,308.7445 294.9065,308.7217 294.4473,308.6536 293.997,308.5408 293.56,308.3845 293.1404,308.186 292.7422,307.9474 292.3694,307.6708 292.0255,307.3591 291.7138,307.0152 291.4373,306.6424 291.1986,306.2442 291.0002,305.8246 290.8438,305.3876 290.731,304.9373 290.6629,304.4781 290.6401,304.0145 290.6629,303.5509 290.731,303.0918 290.8438,302.6415 291.0002,302.2044 291.1986,301.7848 291.4373,301.3867 291.7138,301.0139 292.0255,300.6699 292.3694,300.3582 292.7422,300.0817 293.1404,299.8431 293.56,299.6446 293.997,299.4882 294.4473,299.3754 294.9065,299.3073 295.3701,299.2846 295.8337,299.3073 296.2929,299.3754 296.7431,299.4882 297.1802,299.6446"/>
    <polygon points="306.7087,318.9236 306.245,318.9463 305.7859,319.0144 305.3356,319.1272 304.8986,319.2836 304.479,319.4821 304.0808,319.7207 303.708,319.9972 303.3641,320.3089 303.0523,320.6529 302.7758,321.0257 302.5372,321.4238 302.3387,321.8434 302.1824,322.2805 302.0696,322.7308 302.0015,323.1899 301.9787,323.6535 302.0015,324.1172 302.0696,324.5763 302.1824,325.0266 302.3387,325.4636 302.5372,325.8832 302.7758,326.2814 303.0523,326.6542 303.3641,326.9981 303.708,327.3098 304.0808,327.5864 304.479,327.825 304.8986,328.0235 305.3356,328.1798 305.7859,328.2926 306.245,328.3607 306.7087,328.3835 307.1723,328.3607 307.6314,328.2926 308.0817,328.1798 308.5187,328.0235 308.9384,327.825 309.3365,327.5864 309.7093,327.3098 310.0533,326.9981 310.365,326.6542 310.6415,326.2814 310.8801,325.8832 311.0786,325.4636 311.235,325.0266 311.3477,324.5763 311.4159,324.1172 311.4386,323.6535 311.4159,323.1899 311.3477,322.7308 311.235,322.2805 311.0786,321.8434 310.8801,321.4238 310.6415,321.0257 310.365,320.6529 310.0533,320.3089 309.7093,319.9972 309.3365,319.7207 308.9384,319.4821 308.5187,319.2836 308.0817,319.1272 307.6314,319.0144 307.1723,318.9463"/>
    <polygon points="313.8758,345.5222 313.6773,345.1026 313.5209,344.6656 313.4082,344.2153 313.34,343.7562 313.3173,343.2925 313.34,342.8289 313.4082,342.3698 313.5209,341.9195 313.6773,341.4825 313.8758,341.0628 314.1144,340.6647 314.3909,340.2919 314.7026,339.9479 315.0466,339.6362 315.4194,339.3597 315.8176,339.1211 316.2372,338.9226 316.6742,338.7662 317.1245,338.6534 317.5836,338.5853 318.0472,338.5626 318.5109,338.5853 318.97,338.6534 319.4203,338.7662 319.8573,338.9226 320.2769,339.1211 320.6751,339.3597 321.0479,339.6362 321.3918,339.9479 321.7036,340.2919 321.9801,340.6647 322.2187,341.0628 322.4172,341.4825 322.5735,341.9195 322.6863,342.3698 322.7544,342.8289 322.7772,343.2925 322.7544,343.7562 322.6863,344.2153 322.5735,344.6656 322.4172,345.1026 322.2187,345.5222 321.9801,345.9204 321.7036,346.2932 321.3918,346.6371 321.0479,346.9489 320.6751,347.2254 320.2769,347.464 319.8573,347.6625 319.4203,347.8188 318.97,347.9316 318.5109,347.9997 318.0472,348.0225 317.5836,347.9997 317.1245,347.9316 316.6742,347.8188 316.2372,347.6625 315.8176,347.464 315.4194,347.2254 315.0466,346.9489 314.7026,346.6371 314.3909,346.2932 314.1144,345.9204"/>
    <polygon points="302.5372,334.5165 302.7758,334.1184 303.0523,333.7455 303.3641,333.4016 303.708,333.0899 304.0808,332.8134 304.479,332.5747 304.8986,332.3763 305.3356,332.2199 305.7859,332.1071 306.245,332.039 306.7087,332.0162 307.1723,332.039 307.6314,332.1071 308.0817,332.2199 308.5187,332.3763 308.9384,332.5747 309.3365,332.8134 309.7093,333.0899 310.0533,333.4016 310.365,333.7455 310.6415,334.1184 310.8801,334.5165 311.0786,334.9361 311.235,335.3732 311.3477,335.8234 311.4159,336.2826 311.4386,336.7462 311.4159,337.2098 311.3477,337.669 311.235,338.1192 311.0786,338.5563 310.8801,338.9759 310.6415,339.374 310.365,339.7469 310.0533,340.0908 309.7093,340.4025 309.3365,340.679 308.9384,340.9177 308.5187,341.1161 308.0817,341.2725 307.6314,341.3853 307.1723,341.4534 306.7087,341.4762 306.245,341.4534 305.7859,341.3853 305.3356,341.2725 304.8986,341.1161 304.479,340.9177 304.0808,340.679 303.708,340.4025 303.3641,340.0908 303.0523,339.7469 302.7758,339.374 302.5372,338.9759 302.3387,338.5563 302.1824,338.1192 302.0696,337.669 302.0015,337.2098 301.9787,336.7462 302.0015,336.2826 302.0696,335.8234 302.1824,335.3732 302.3387,334.9361"/>
    <polygon points="290.8438,315.7342 291.0002,315.2971 291.1986,314.8775 291.4373,314.4794 291.7138,314.1065 292.0255,313.7626 292.3694,313.4509 292.7422,313.1744 293.1404,312.9357 293.56,312.7373 293.997,312.5809 294.4473,312.4681 294.9065,312.4 295.3701,312.3772 295.8337,312.4 296.2929,312.4681 296.7431,312.5809 297.1802,312.7373 297.5998,312.9357 297.9979,313.1744 298.3707,313.4509 298.7147,313.7626 299.0264,314.1065 299.3029,314.4794 299.5415,314.8775 299.74,315.2971 299.8964,315.7342 300.0092,316.1844 300.0773,316.6436 300.1001,317.1072 300.0773,317.5708 300.0092,318.03 299.8964,318.4802 299.74,318.9173 299.5415,319.3369 299.3029,319.735 299.0264,320.1079 298.7147,320.4518 298.3707,320.7635 297.9979,321.04 297.5998,321.2787 297.1802,321.4771 296.7431,321.6335 296.2929,321.7463 295.8337,321.8144 295.3701,321.8372 294.9065,321.8144 294.4473,321.7463 293.997,321.6335 293.56,321.4771 293.1404,321.2787 292.7422,321.04 292.3694,320.7635 292.0255,320.4518 291.7138,320.1079 291.4373,319.735 291.1986,319.3369 291.0002,318.9173 290.8438,318.4802 290.731,318.03 290.6629,317.5708 290.6401,317.1072 290.6629,316.6436 290.731,316.1844"/>
    <polygon points="274.2725,308.5278 273.1991,308.2589 272.1572,307.8861 271.1568,307.413 270.2077,306.8441 269.3188,306.1849 268.4989,305.4417 267.7557,304.6218 267.0965,303.733 266.5276,302.7838 266.0545,301.7835 265.6817,300.7415 265.4128,299.6681 265.2504,298.5735 265.1961,297.4682 265.2504,296.3629 265.4128,295.2683 265.6817,294.1949 266.0545,293.1529 266.5276,292.1526 267.0965,291.2034 267.7557,290.3146 268.4989,289.4946 269.3188,288.7515 270.2077,288.0923 271.1568,287.5234 272.1572,287.0502 273.1991,286.6774 274.2725,286.4086 275.3672,286.2462 276.4724,286.1919 277.5777,286.2462 278.6723,286.4086 279.7458,286.6774 280.7877,287.0502 281.7881,287.5234 282.7372,288.0923 283.6261,288.7515 284.446,289.4946 285.1891,290.3146 285.8483,291.2034 286.4173,292.1526 286.8904,293.1529 287.2632,294.1949 287.5321,295.2683 287.6944,296.3629 287.7487,297.4682 287.6944,298.5735 287.5321,299.6681 287.2632,300.7415 286.8904,301.7835 286.4173,302.7838 285.8483,303.733 285.1891,304.6218 284.446,305.4417 283.6261,306.1849 282.7372,306.8441 281.7881,307.413 280.7877,307.8861 279.7458,308.2589 278.6723,308.5278 277.5777,308.6902 276.4724,308.7445 275.3672,308.6902"/>
    <polygon points="268.0538,316.1844 268.1666,315.7342 268.323,315.2971 268.5214,314.8775 268.7601,314.4794 269.0366,314.1065 269.3483,313.7626 269.6923,313.4509 270.0651,313.1744 270.4632,312.9357 270.8828,312.7373 271.3199,312.5809 271.7701,312.4681 272.2293,312.4 272.6929,312.3772 273.1565,312.4 273.6157,312.4681 274.066,312.5809 274.503,312.7373 274.9226,312.9357 275.3207,313.1744 275.6936,313.4509 276.0375,313.7626 276.3492,314.1065 276.6257,314.4794 276.8644,314.8775 277.0628,315.2971 277.2192,315.7342 277.332,316.1844 277.4001,316.6436 277.4229,317.1072 277.4001,317.5708 277.332,318.03 277.2192,318.4802 277.0628,318.9173 276.8644,319.3369 276.6257,319.735 276.3492,320.1079 276.0375,320.4518 275.6936,320.7635 275.3207,321.04 274.9226,321.2787 274.503,321.4771 274.066,321.6335 273.6157,321.7463 273.1565,321.8144 272.6929,321.8372 272.2293,321.8144 271.7701,321.7463 271.3199,321.6335 270.8828,321.4771 270.4632,321.2787 270.0651,321.04 269.6923,320.7635 269.3483,320.4518 269.0366,320.1079 268.7601,319.735 268.5214,319.3369 268.323,318.9173 268.1666,318.4802 268.0538,318.03 267.9857,317.5708 267.9629,317.1072 267.9857,316.6436"/>
    <polygon points="255.9086,301.607 254.1367,303.213 252.2158,304.6376 250.1646,305.867 248.0028,306.8895 245.7511,307.6952 243.4313,308.2763 241.0657,308.6272 238.6772,308.7445 236.2886,308.6272 233.923,308.2763 231.6032,307.6952 229.3516,306.8895 227.1897,305.867 225.1385,304.6376 223.2177,303.213 221.4457,301.607 219.8397,299.835 218.4151,297.9142 217.1856,295.863 216.1632,293.7011 215.3575,291.4495 214.7764,289.1297 214.4255,286.7641 214.3082,284.3755 214.4255,281.987 214.7764,279.6214 215.3575,277.3016 216.1632,275.0499 217.1856,272.8881 218.4151,270.8369 219.8397,268.916 221.4457,267.1441 223.2177,265.5381 225.1385,264.1135 227.1897,262.884 229.3516,261.8615 231.6032,261.0559 233.923,260.4748 236.2886,260.1239 238.6772,260.0066 241.0657,260.1239 243.4313,260.4748 245.7511,261.0559 248.0028,261.8615 250.1646,262.884 252.2158,264.1135 254.1367,265.5381 255.9086,267.1441 257.5146,268.916 258.9392,270.8369 260.1687,272.8881 261.1912,275.0499 261.9968,277.3016 262.5779,279.6214 262.9288,281.987 263.0461,284.3755 262.9288,286.7641 262.5779,289.1297 261.9968,291.4495 261.1912,293.7011 260.1687,295.863 258.9392,297.9142 257.5146,299.835"/>
    <polygon points="254.542,331.5729 254.3857,332.0099 254.1872,332.4296 253.9486,332.8277 253.6721,333.2005 253.3603,333.5445 253.0164,333.8562 252.6436,334.1327 252.2454,334.3713 251.8258,334.5698 251.3888,334.7262 250.9385,334.839 250.4794,334.9071 250.0157,334.9298 249.5521,334.9071 249.093,334.839 248.6427,334.7262 248.2057,334.5698 247.7861,334.3713 247.3879,334.1327 247.0151,333.8562 246.6712,333.5445 246.3594,333.2005 246.0829,332.8277 245.8443,332.4296 245.6458,332.0099 245.4894,331.5729 245.3767,331.1226 245.3086,330.6635 245.2858,330.1999 245.3086,329.7362 245.3767,329.2771 245.4894,328.8268 245.6458,328.3898 245.8443,327.9702 246.0829,327.572 246.3594,327.1992 246.6712,326.8553 247.0151,326.5435 247.3879,326.267 247.7861,326.0284 248.2057,325.8299 248.6427,325.6736 249.093,325.5608 249.5521,325.4927 250.0157,325.4699 250.4794,325.4927 250.9385,325.5608 251.3888,325.6736 251.8258,325.8299 252.2454,326.0284 252.6436,326.267 253.0164,326.5435 253.3603,326.8553 253.6721,327.1992 253.9486,327.572 254.1872,327.9702 254.3857,328.3898 254.542,328.8268 254.6548,329.2771 254.7229,329.7362 254.7457,330.1999 254.7229,330.6635 254.6548,331.1226"/>
    <polygon points="224.7108,347.2254 225.1089,347.464 225.5285,347.6625 225.9655,347.8188 226.4158,347.9316 226.875,347.9997 227.3386,348.0225 227.8022,347.9997 228.2614,347.9316 228.7116,347.8188 229.1487,347.6625 229.5683,347.464 229.9664,347.2254 230.3392,346.9489 230.6832,346.6371 230.9949,346.2932 231.2714,345.9204 231.51,345.5222 231.7085,345.1026 231.8649,344.6656 231.9777,344.2153 232.0458,343.7562 232.0686,343.2925 232.0458,342.8289 231.9777,342.3698 231.8649,341.9195 231.7085,341.4825 231.51,341.0628 231.2714,340.6647 230.9949,340.2919 230.6832,339.9479 230.3392,339.6362 229.9664,339.3597 229.5683,339.1211 229.1487,338.9226 228.7116,338.7662 228.2614,338.6534 227.8022,338.5853 227.3386,338.5626 226.875,338.5853 226.4158,338.6534 225.9655,338.7662 225.5285,338.9226 225.1089,339.1211 224.7108,339.3597 224.3379,339.6362 223.994,339.9479 223.6823,340.2919 223.4058,340.6647 223.1671,341.0628 222.9687,341.4825 222.8123,341.9195 222.6995,342.3698 222.6314,342.8289 222.6086,343.2925 222.6314,343.7562 222.6995,344.2153 222.8123,344.6656 222.9687,345.1026 223.1671,345.5222 223.4058,345.9204 223.6823,346.2932 223.994,346.6371 224.3379,346.9489"/>
    <polygon points="224.8533,314.2776 223.9645,314.9368 223.1446,315.68 222.4014,316.4999 221.7422,317.3888 221.1733,318.3379 220.7002,319.3383 220.3274,320.3802 220.0585,321.4536 219.8961,322.5483 219.8418,323.6535 219.8961,324.7588 220.0585,325.8534 220.3274,326.9269 220.7002,327.9688 221.1733,328.9691 221.7422,329.9183 222.4014,330.8071 223.1446,331.6271 223.9645,332.3702 224.8533,333.0294 225.8025,333.5983 226.8029,334.0715 227.8448,334.4443 228.9182,334.7132 230.0128,334.8755 231.1181,334.9298 232.2234,334.8755 233.318,334.7132 234.3914,334.4443 235.4334,334.0715 236.4337,333.5983 237.3829,333.0294 238.2717,332.3702 239.0917,331.6271 239.8348,330.8071 240.494,329.9183 241.0629,328.9691 241.5361,327.9688 241.9089,326.9269 242.1777,325.8534 242.3401,324.7588 242.3944,323.6535 242.3401,322.5483 242.1777,321.4536 241.9089,320.3802 241.5361,319.3383 241.0629,318.3379 240.494,317.3888 239.8348,316.4999 239.0917,315.68 238.2717,314.9368 237.3829,314.2776 236.4337,313.7087 235.4334,313.2356 234.3914,312.8628 233.318,312.5939 232.2234,312.4315 231.1181,312.3772 230.0128,312.4315 228.9182,312.5939 227.8448,312.8628 226.8029,313.2356 225.8025,313.7087"/>
  </g>
</svg>
