<?xml version="1.0" encoding="utf-8" ?>
<svg xmlns="http://www.w3.org/2000/svg" xmlns:cc="http://creativecommons.org/ns" xmlns:dc="http://purl.org/dc/elements/1.1/" xmlns:ev="http://www.w3.org/2001/xml-events" xmlns:inkscape="http://www.inkscape.org/namespaces/inkscape" xmlns:rdf="http://www.w3.org/1999/02/22-rdf-syntax-ns" xmlns:sodipodi="http://sodipodi.sourceforge.net/DTD/sodipodi-0.dtd" xmlns:xlink="http://www.w3.org/1999/xlink" baseProfile="tiny" height="15.875cm" version="1.2" viewBox="0 0 432.0 600.0" width="11.43cm">
  <metadata>
    <rdf:RDF>
      <cc:Work>
        <dc:format>image/svg+xml</dc:format>
        <dc:source>vsk save -s 200 -c hex-grid/config/bubble-coasters-2.json /Users/tobin/src/fabian/plotting/fabian-plotting/hex-grid/sketch_hex_grid.py</dc:source>
        <dc:date>2023-11-11T11:30:23.399600</dc:date>
      </cc:Work>
    </rdf:RDF>
  </metadata>
  <defs/>
  <g fill="none" id="layer1" inkscape:groupmode="layer" inkscape:label="1" stroke="#000000" stroke-width="0.7559" style="display:inline">
    <polygon points="183.3573,230.7517 183.7943,230.9081 184.2139,231.1066 184.6121,231.3452 184.9849,231.6217 185.3288,231.9334 185.6406,232.2774 185.9171,232.6502 186.1557,233.0483 186.3542,233.4679 186.5106,233.905 186.6233,234.3553 186.6914,234.8144 186.7142,235.278 186.6914,235.7416 186.6233,236.2008 186.5106,236.6511 186.3542,237.0881 186.1557,237.5077 185.9171,237.9059 185.6406,238.2787 185.3288,238.6226 184.9849,238.9343 184.6121,239.2109 184.2139,239.4495 183.7943,239.648 183.3573,239.8043 182.907,239.9171 182.4479,239.9852 181.9843,240.008 181.5206,239.9852 181.0615,239.9171 180.6112,239.8043 180.1742,239.648 179.7546,239.4495 179.3564,239.2109 178.9836,238.9343 178.6397,238.6226 178.3279,238.2787 178.0514,237.9059 177.8128,237.5077 177.6143,237.0881 177.458,236.6511 177.3452,236.2008 177.2771,235.7416 177.2543,235.278 177.2771,234.8144 177.3452,234.3553 177.458,233.905 177.6143,233.4679 177.8128,233.0483 178.0514,232.6502 178.3279,232.2774 178.6397,231.9334 178.9836,231.6217 179.3564,231.3452 179.7546,231.1066 180.1742,230.9081 180.6112,230.7517 181.0615,230.6389 181.5206,230.5708 181.9843,230.5481 182.4479,230.5708 182.907,230.6389"/>
    <polygon points="173.2735,211.7062 173.6463,211.9827 173.9903,212.2944 174.302,212.6384 174.5785,213.0112 174.8171,213.4093 175.0156,213.8289 175.172,214.266 175.2848,214.7163 175.3529,215.1754 175.3756,215.639 175.3529,216.1026 175.2848,216.5618 175.172,217.0121 175.0156,217.4491 174.8171,217.8687 174.5785,218.2669 174.302,218.6397 173.9903,218.9836 173.6463,219.2953 173.2735,219.5719 172.8754,219.8105 172.4558,220.0089 172.0187,220.1653 171.5684,220.2781 171.1093,220.3462 170.6457,220.369 170.1821,220.3462 169.7229,220.2781 169.2726,220.1653 168.8356,220.0089 168.416,219.8105 168.0178,219.5719 167.645,219.2953 167.3011,218.9836 166.9894,218.6397 166.7128,218.2669 166.4742,217.8687 166.2757,217.4491 166.1194,217.0121 166.0066,216.5618 165.9385,216.1026 165.9157,215.639 165.9385,215.1754 166.0066,214.7163 166.1194,214.266 166.2757,213.8289 166.4742,213.4093 166.7128,213.0112 166.9894,212.6384 167.3011,212.2944 167.645,211.9827 168.0178,211.7062 168.416,211.4676 168.8356,211.2691 169.2726,211.1127 169.7229,210.9999 170.1821,210.9318 170.6457,210.9091 171.1093,210.9318 171.5684,210.9999 172.0187,211.1127 172.4558,211.2691 172.8754,211.4676"/>
    <polygon points="163.8334,220.8123 163.9462,221.2626 164.0143,221.7217 164.0371,222.1854 164.0143,222.649 163.9462,223.1081 163.8334,223.5584 163.677,223.9954 163.4786,224.4151 163.2399,224.8132 162.9634,225.186 162.6517,225.53 162.3077,225.8417 161.9349,226.1182 161.5368,226.3568 161.1172,226.5553 160.6801,226.7117 160.2299,226.8244 159.7707,226.8926 159.3071,226.9153 158.8435,226.8926 158.3843,226.8244 157.934,226.7117 157.497,226.5553 157.0774,226.3568 156.6793,226.1182 156.3064,225.8417 155.9625,225.53 155.6508,225.186 155.3743,224.8132 155.1356,224.4151 154.9372,223.9954 154.7808,223.5584 154.668,223.1081 154.5999,222.649 154.5771,222.1854 154.5999,221.7217 154.668,221.2626 154.7808,220.8123 154.9372,220.3753 155.1356,219.9557 155.3743,219.5575 155.6508,219.1847 155.9625,218.8408 156.3064,218.529 156.6793,218.2525 157.0774,218.0139 157.497,217.8154 157.934,217.6591 158.3843,217.5463 158.8435,217.4782 159.3071,217.4554 159.7707,217.4782 160.2299,217.5463 160.6801,217.6591 161.1172,217.8154 161.5368,218.0139 161.9349,218.2525 162.3077,218.529 162.6517,218.8408 162.9634,219.1847 163.2399,219.5575 163.4786,219.9557 163.677,220.3753"/>
    <polygon points="159.7707,213.7999 159.3071,213.8227 158.8435,213.7999 158.3843,213.7318 157.934,213.619 157.497,213.4626 157.0774,213.2642 156.6793,213.0255 156.3064,212.749 155.9625,212.4373 155.6508,212.0934 155.3743,211.7205 155.1356,211.3224 154.9372,210.9028 154.7808,210.4657 154.668,210.0155 154.5999,209.5563 154.5771,209.0927 154.5999,208.6291 154.668,208.1699 154.7808,207.7197 154.9372,207.2826 155.1356,206.863 155.3743,206.4649 155.6508,206.092 155.9625,205.7481 156.3064,205.4364 156.6793,205.1599 157.0774,204.9212 157.497,204.7228 157.934,204.5664 158.3843,204.4536 158.8435,204.3855 159.3071,204.3627 159.7707,204.3855 160.2299,204.4536 160.6801,204.5664 161.1172,204.7228 161.5368,204.9212 161.9349,205.1599 162.3077,205.4364 162.6517,205.7481 162.9634,206.092 163.2399,206.4649 163.4786,206.863 163.677,207.2826 163.8334,207.7197 163.9462,208.1699 164.0143,208.6291 164.0371,209.0927 164.0143,209.5563 163.9462,210.0155 163.8334,210.4657 163.677,210.9028 163.4786,211.3224 163.2399,211.7205 162.9634,212.0934 162.6517,212.4373 162.3077,212.749 161.9349,213.0255 161.5368,213.2642 161.1172,213.4626 160.6801,213.619 160.2299,213.7318"/>
    <polygon points="146.5955,224.2054 147.0457,224.0926 147.5049,224.0245 147.9685,224.0017 148.4321,224.0245 148.8913,224.0926 149.3415,224.2054 149.7786,224.3618 150.1982,224.5602 150.5963,224.7989 150.9692,225.0754 151.3131,225.3871 151.6248,225.731 151.9013,226.1039 152.14,226.502 152.3384,226.9216 152.4948,227.3587 152.6076,227.8089 152.6757,228.2681 152.6985,228.7317 152.6757,229.1953 152.6076,229.6545 152.4948,230.1047 152.3384,230.5418 152.14,230.9614 151.9013,231.3595 151.6248,231.7324 151.3131,232.0763 150.9692,232.388 150.5963,232.6645 150.1982,232.9032 149.7786,233.1016 149.3415,233.258 148.8913,233.3708 148.4321,233.4389 147.9685,233.4617 147.5049,233.4389 147.0457,233.3708 146.5955,233.258 146.1584,233.1016 145.7388,232.9032 145.3407,232.6645 144.9678,232.388 144.6239,232.0763 144.3122,231.7324 144.0357,231.3595 143.797,230.9614 143.5986,230.5418 143.4422,230.1047 143.3294,229.6545 143.2613,229.1953 143.2385,228.7317 143.2613,228.2681 143.3294,227.8089 143.4422,227.3587 143.5986,226.9216 143.797,226.502 144.0357,226.1039 144.3122,225.731 144.6239,225.3871 144.9678,225.0754 145.3407,224.7989 145.7388,224.5602 146.1584,224.3618"/>
    <polygon points="141.1562,233.905 141.269,234.3553 141.3371,234.8144 141.3599,235.278 141.3371,235.7416 141.269,236.2008 141.1562,236.6511 140.9998,237.0881 140.8014,237.5077 140.5627,237.9059 140.2862,238.2787 139.9745,238.6226 139.6306,238.9343 139.2578,239.2109 138.8596,239.4495 138.44,239.648 138.003,239.8043 137.5527,239.9171 137.0935,239.9852 136.6299,240.008 136.1663,239.9852 135.7071,239.9171 135.2569,239.8043 134.8198,239.648 134.4002,239.4495 134.0021,239.2109 133.6293,238.9343 133.2853,238.6226 132.9736,238.2787 132.6971,237.9059 132.4585,237.5077 132.26,237.0881 132.1036,236.6511 131.9908,236.2008 131.9227,235.7416 131.8999,235.278 131.9227,234.8144 131.9908,234.3553 132.1036,233.905 132.26,233.4679 132.4585,233.0483 132.6971,232.6502 132.9736,232.2774 133.2853,231.9334 133.6293,231.6217 134.0021,231.3452 134.4002,231.1066 134.8198,230.9081 135.2569,230.7517 135.7071,230.6389 136.1663,230.5708 136.6299,230.5481 137.0935,230.5708 137.5527,230.6389 138.003,230.7517 138.44,230.9081 138.8596,231.1066 139.2578,231.3452 139.6306,231.6217 139.9745,231.9334 140.2862,232.2774 140.5627,232.6502 140.8014,233.0483 140.9998,233.4679"/>
    <polygon points="139.9745,245.0261 140.2862,245.37 140.5627,245.7429 140.8014,246.141 140.9998,246.5606 141.1562,246.9977 141.269,247.4479 141.3371,247.9071 141.3599,248.3707 141.3371,248.8343 141.269,249.2935 141.1562,249.7437 140.9998,250.1808 140.8014,250.6004 140.5627,250.9985 140.2862,251.3714 139.9745,251.7153 139.6306,252.027 139.2578,252.3035 138.8596,252.5422 138.44,252.7406 138.003,252.897 137.5527,253.0098 137.0935,253.0779 136.6299,253.1007 136.1663,253.0779 135.7071,253.0098 135.2569,252.897 134.8198,252.7406 134.4002,252.5422 134.0021,252.3035 133.6293,252.027 133.2853,251.7153 132.9736,251.3714 132.6971,250.9985 132.4585,250.6004 132.26,250.1808 132.1036,249.7437 131.9908,249.2935 131.9227,248.8343 131.8999,248.3707 131.9227,247.9071 131.9908,247.4479 132.1036,246.9977 132.26,246.5606 132.4585,246.141 132.6971,245.7429 132.9736,245.37 133.2853,245.0261 133.6293,244.7144 134.0021,244.4379 134.4002,244.1992 134.8198,244.0008 135.2569,243.8444 135.7071,243.7316 136.1663,243.6635 136.6299,243.6407 137.0935,243.6635 137.5527,243.7316 138.003,243.8444 138.44,244.0008 138.8596,244.1992 139.2578,244.4379 139.6306,244.7144"/>
    <polygon points="151.6248,257.9177 151.9013,257.5449 152.14,257.1467 152.3384,256.7271 152.4948,256.2901 152.6076,255.8398 152.6757,255.3806 152.6985,254.917 152.6757,254.4534 152.6076,253.9943 152.4948,253.544 152.3384,253.1069 152.14,252.6873 151.9013,252.2892 151.6248,251.9164 151.3131,251.5724 150.9692,251.2607 150.5963,250.9842 150.1982,250.7456 149.7786,250.5471 149.3415,250.3907 148.8913,250.2779 148.4321,250.2098 147.9685,250.1871 147.5049,250.2098 147.0457,250.2779 146.5955,250.3907 146.1584,250.5471 145.7388,250.7456 145.3407,250.9842 144.9678,251.2607 144.6239,251.5724 144.3122,251.9164 144.0357,252.2892 143.797,252.6873 143.5986,253.1069 143.4422,253.544 143.3294,253.9943 143.2613,254.4534 143.2385,254.917 143.2613,255.3806 143.3294,255.8398 143.4422,256.2901 143.5986,256.7271 143.797,257.1467 144.0357,257.5449 144.3122,257.9177 144.6239,258.2616 144.9678,258.5733 145.3407,258.8499 145.7388,259.0885 146.1584,259.287 146.5955,259.4433 147.0457,259.5561 147.5049,259.6242 147.9685,259.647 148.4321,259.6242 148.8913,259.5561 149.3415,259.4433 149.7786,259.287 150.1982,259.0885 150.5963,258.8499 150.9692,258.5733 151.3131,258.2616"/>
    <polygon points="161.9349,244.4379 161.5368,244.1992 161.1172,244.0008 160.6801,243.8444 160.2299,243.7316 159.7707,243.6635 159.3071,243.6407 158.8435,243.6635 158.3843,243.7316 157.934,243.8444 157.497,244.0008 157.0774,244.1992 156.6793,244.4379 156.3064,244.7144 155.9625,245.0261 155.6508,245.37 155.3743,245.7429 155.1356,246.141 154.9372,246.5606 154.7808,246.9977 154.668,247.4479 154.5999,247.9071 154.5771,248.3707 154.5999,248.8343 154.668,249.2935 154.7808,249.7437 154.9372,250.1808 155.1356,250.6004 155.3743,250.9985 155.6508,251.3714 155.9625,251.7153 156.3064,252.027 156.6793,252.3035 157.0774,252.5422 157.497,252.7406 157.934,252.897 158.3843,253.0098 158.8435,253.0779 159.3071,253.1007 159.7707,253.0779 160.2299,253.0098 160.6801,252.897 161.1172,252.7406 161.5368,252.5422 161.9349,252.3035 162.3077,252.027 162.6517,251.7153 162.9634,251.3714 163.2399,250.9985 163.4786,250.6004 163.677,250.1808 163.8334,249.7437 163.9462,249.2935 164.0143,248.8343 164.0371,248.3707 164.0143,247.9071 163.9462,247.4479 163.8334,246.9977 163.677,246.5606 163.4786,246.141 163.2399,245.7429 162.9634,245.37 162.6517,245.0261 162.3077,244.7144"/>
    <polygon points="174.5418,256.0223 174.7041,257.1169 174.973,258.1904 175.3458,259.2323 175.819,260.2326 176.3879,261.1818 177.0471,262.0706 177.7902,262.8906 178.6102,263.6337 179.499,264.2929 180.4482,264.8618 181.4485,265.335 182.4904,265.7078 183.5639,265.9767 184.6585,266.139 185.7638,266.1933 186.8691,266.139 187.9637,265.9767 189.0371,265.7078 190.079,265.335 191.0794,264.8618 192.0286,264.2929 192.9174,263.6337 193.7373,262.8906 194.4805,262.0706 195.1397,261.1818 195.7086,260.2326 196.1817,259.2323 196.5545,258.1904 196.8234,257.1169 196.9858,256.0223 197.0401,254.917 196.9858,253.8118 196.8234,252.7171 196.5545,251.6437 196.1817,250.6018 195.7086,249.6014 195.1397,248.6522 194.4805,247.7634 193.7373,246.9435 192.9174,246.2003 192.0286,245.5411 191.0794,244.9722 190.079,244.4991 189.0371,244.1263 187.9637,243.8574 186.8691,243.695 185.7638,243.6407 184.6585,243.695 183.5639,243.8574 182.4904,244.1263 181.4485,244.4991 180.4482,244.9722 179.499,245.5411 178.6102,246.2003 177.7902,246.9435 177.0471,247.7634 176.3879,248.6522 175.819,249.6014 175.3458,250.6018 174.973,251.6437 174.7041,252.7171 174.5418,253.8118 174.4875,254.917"/>
    <polygon points="169.3514,277.3856 170.2402,276.7264 171.0602,275.9832 171.8033,275.1633 172.4625,274.2745 173.0314,273.3253 173.5046,272.325 173.8774,271.283 174.1462,270.2096 174.3086,269.115 174.3629,268.0097 174.3086,266.9044 174.1462,265.8098 173.8774,264.7364 173.5046,263.6944 173.0314,262.6941 172.4625,261.7449 171.8033,260.8561 171.0602,260.0361 170.2402,259.293 169.3514,258.6338 168.4022,258.0649 167.4019,257.5917 166.36,257.2189 165.2865,256.9501 164.1919,256.7877 163.0866,256.7334 161.9813,256.7877 160.8867,256.9501 159.8133,257.2189 158.7714,257.5917 157.771,258.0649 156.8218,258.6338 155.933,259.293 155.1131,260.0361 154.3699,260.8561 153.7107,261.7449 153.1418,262.6941 152.6687,263.6944 152.2959,264.7364 152.027,265.8098 151.8646,266.9044 151.8103,268.0097 151.8646,269.115 152.027,270.2096 152.2959,271.283 152.6687,272.325 153.1418,273.3253 153.7107,274.2745 154.3699,275.1633 155.1131,275.9832 155.933,276.7264 156.8218,277.3856 157.771,277.9545 158.7714,278.4276 159.8133,278.8004 160.8867,279.0693 161.9813,279.2317 163.0866,279.286 164.1919,279.2317 165.2865,279.0693 166.36,278.8004 167.4019,278.4276 168.4022,277.9545"/>
    <polygon points="144.9678,277.446 145.3407,277.1695 145.7388,276.9309 146.1584,276.7324 146.5955,276.5761 147.0457,276.4633 147.5049,276.3952 147.9685,276.3724 148.4321,276.3952 148.8913,276.4633 149.3415,276.5761 149.7786,276.7324 150.1982,276.9309 150.5963,277.1695 150.9692,277.446 151.3131,277.7578 151.6248,278.1017 151.9013,278.4745 152.14,278.8727 152.3384,279.2923 152.4948,279.7293 152.6076,280.1796 152.6757,280.6387 152.6985,281.1024 152.6757,281.566 152.6076,282.0251 152.4948,282.4754 152.3384,282.9124 152.14,283.3321 151.9013,283.7302 151.6248,284.103 151.3131,284.447 150.9692,284.7587 150.5963,285.0352 150.1982,285.2738 149.7786,285.4723 149.3415,285.6287 148.8913,285.7414 148.4321,285.8096 147.9685,285.8323 147.5049,285.8096 147.0457,285.7414 146.5955,285.6287 146.1584,285.4723 145.7388,285.2738 145.3407,285.0352 144.9678,284.7587 144.6239,284.447 144.3122,284.103 144.0357,283.7302 143.797,283.3321 143.5986,282.9124 143.4422,282.4754 143.3294,282.0251 143.2613,281.566 143.2385,281.1024 143.2613,280.6387 143.3294,280.1796 143.4422,279.7293 143.5986,279.2923 143.797,278.8727 144.0357,278.4745 144.3122,278.1017 144.6239,277.7578"/>
    <polygon points="155.933,311.6637 156.8218,311.0045 157.771,310.4356 158.7714,309.9624 159.8133,309.5896 160.8867,309.3207 161.9813,309.1584 163.0866,309.1041 164.1919,309.1584 165.2865,309.3207 166.36,309.5896 167.4019,309.9624 168.4022,310.4356 169.3514,311.0045 170.2402,311.6637 171.0602,312.4068 171.8033,313.2268 172.4625,314.1156 173.0314,315.0648 173.5046,316.0651 173.8774,317.107 174.1462,318.1805 174.3086,319.2751 174.3629,320.3804 174.3086,321.4856 174.1462,322.5803 173.8774,323.6537 173.5046,324.6956 173.0314,325.696 172.4625,326.6451 171.8033,327.534 171.0602,328.3539 170.2402,329.0971 169.3514,329.7563 168.4022,330.3252 167.4019,330.7983 166.36,331.1711 165.2865,331.44 164.1919,331.6024 163.0866,331.6567 161.9813,331.6024 160.8867,331.44 159.8133,331.1711 158.7714,330.7983 157.771,330.3252 156.8218,329.7563 155.933,329.0971 155.1131,328.3539 154.3699,327.534 153.7107,326.6451 153.1418,325.696 152.6687,324.6956 152.2959,323.6537 152.027,322.5803 151.8646,321.4856 151.8103,320.3804 151.8646,319.2751 152.027,318.1805 152.2959,317.107 152.6687,316.0651 153.1418,315.0648 153.7107,314.1156 154.3699,313.2268 155.1131,312.4068"/>
    <polygon points="144.3122,310.2884 144.0357,309.9155 143.797,309.5174 143.5986,309.0978 143.4422,308.6607 143.3294,308.2105 143.2613,307.7513 143.2385,307.2877 143.2613,306.8241 143.3294,306.3649 143.4422,305.9147 143.5986,305.4776 143.797,305.058 144.0357,304.6599 144.3122,304.287 144.6239,303.9431 144.9678,303.6314 145.3407,303.3549 145.7388,303.1162 146.1584,302.9178 146.5955,302.7614 147.0457,302.6486 147.5049,302.5805 147.9685,302.5577 148.4321,302.5805 148.8913,302.6486 149.3415,302.7614 149.7786,302.9178 150.1982,303.1162 150.5963,303.3549 150.9692,303.6314 151.3131,303.9431 151.6248,304.287 151.9013,304.6599 152.14,305.058 152.3384,305.4776 152.4948,305.9147 152.6076,306.3649 152.6757,306.8241 152.6985,307.2877 152.6757,307.7513 152.6076,308.2105 152.4948,308.6607 152.3384,309.0978 152.14,309.5174 151.9013,309.9155 151.6248,310.2884 151.3131,310.6323 150.9692,310.944 150.5963,311.2205 150.1982,311.4592 149.7786,311.6576 149.3415,311.814 148.8913,311.9268 148.4321,311.9949 147.9685,312.0177 147.5049,311.9949 147.0457,311.9268 146.5955,311.814 146.1584,311.6576 145.7388,311.4592 145.3407,311.2205 144.9678,310.944 144.6239,310.6323"/>
    <polygon points="124.8277,341.8585 125.2913,341.8357 125.755,341.8585 126.2141,341.9266 126.6644,342.0394 127.1014,342.1958 127.521,342.3942 127.9192,342.6329 128.292,342.9094 128.6359,343.2211 128.9477,343.565 129.2242,343.9379 129.4628,344.336 129.6613,344.7556 129.8176,345.1927 129.9304,345.6429 129.9985,346.1021 130.0213,346.5657 129.9985,347.0293 129.9304,347.4885 129.8176,347.9387 129.6613,348.3758 129.4628,348.7954 129.2242,349.1935 128.9477,349.5664 128.6359,349.9103 128.292,350.222 127.9192,350.4985 127.521,350.7372 127.1014,350.9356 126.6644,351.092 126.2141,351.2048 125.755,351.2729 125.2913,351.2957 124.8277,351.2729 124.3686,351.2048 123.9183,351.092 123.4813,350.9356 123.0616,350.7372 122.6635,350.4985 122.2907,350.222 121.9467,349.9103 121.635,349.5664 121.3585,349.1935 121.1199,348.7954 120.9214,348.3758 120.765,347.9387 120.6523,347.4885 120.5841,347.0293 120.5614,346.5657 120.5841,346.1021 120.6523,345.6429 120.765,345.1927 120.9214,344.7556 121.1199,344.336 121.3585,343.9379 121.635,343.565 121.9467,343.2211 122.2907,342.9094 122.6635,342.6329 123.0616,342.3942 123.4813,342.1958 123.9183,342.0394 124.3686,341.9266"/>
    <polygon points="137.1361,344.2638 136.0942,343.891 135.0938,343.4178 134.1447,342.8489 133.2558,342.1897 132.4359,341.4466 131.6927,340.6266 131.0335,339.7378 130.4646,338.7886 129.9915,337.7883 129.6187,336.7464 129.3498,335.6729 129.1874,334.5783 129.1331,333.473 129.1874,332.3678 129.3498,331.2731 129.6187,330.1997 129.9915,329.1578 130.4646,328.1574 131.0335,327.2083 131.6927,326.3194 132.4359,325.4995 133.2558,324.7563 134.1447,324.0971 135.0938,323.5282 136.0942,323.0551 137.1361,322.6823 138.2096,322.4134 139.3042,322.251 140.4094,322.1967 141.5147,322.251 142.6093,322.4134 143.6828,322.6823 144.7247,323.0551 145.7251,323.5282 146.6742,324.0971 147.5631,324.7563 148.383,325.4995 149.1262,326.3194 149.7854,327.2083 150.3543,328.1574 150.8274,329.1578 151.2002,330.1997 151.4691,331.2731 151.6315,332.3678 151.6858,333.473 151.6315,334.5783 151.4691,335.6729 151.2002,336.7464 150.8274,337.7883 150.3543,338.7886 149.7854,339.7378 149.1262,340.6266 148.383,341.4466 147.5631,342.1897 146.6742,342.8489 145.7251,343.4178 144.7247,343.891 143.6828,344.2638 142.6093,344.5327 141.5147,344.695 140.4094,344.7493 139.3042,344.695 138.2096,344.5327"/>
    <polygon points="166.4742,344.336 166.7128,343.9379 166.9894,343.565 167.3011,343.2211 167.645,342.9094 168.0178,342.6329 168.416,342.3942 168.8356,342.1958 169.2726,342.0394 169.7229,341.9266 170.1821,341.8585 170.6457,341.8357 171.1093,341.8585 171.5684,341.9266 172.0187,342.0394 172.4558,342.1958 172.8754,342.3942 173.2735,342.6329 173.6463,342.9094 173.9903,343.2211 174.302,343.565 174.5785,343.9379 174.8171,344.336 175.0156,344.7556 175.172,345.1927 175.2848,345.6429 175.3529,346.1021 175.3756,346.5657 175.3529,347.0293 175.2848,347.4885 175.172,347.9387 175.0156,348.3758 174.8171,348.7954 174.5785,349.1935 174.302,349.5664 173.9903,349.9103 173.6463,350.222 173.2735,350.4985 172.8754,350.7372 172.4558,350.9356 172.0187,351.092 171.5684,351.2048 171.1093,351.2729 170.6457,351.2957 170.1821,351.2729 169.7229,351.2048 169.2726,351.092 168.8356,350.9356 168.416,350.7372 168.0178,350.4985 167.645,350.222 167.3011,349.9103 166.9894,349.5664 166.7128,349.1935 166.4742,348.7954 166.2757,348.3758 166.1194,347.9387 166.0066,347.4885 165.9385,347.0293 165.9157,346.5657 165.9385,346.1021 166.0066,345.6429 166.1194,345.1927 166.2757,344.7556"/>
    <polygon points="180.6112,357.6383 180.1742,357.482 179.7546,357.2835 179.3564,357.0449 178.9836,356.7684 178.6397,356.4566 178.3279,356.1127 178.0514,355.7399 177.8128,355.3417 177.6143,354.9221 177.458,354.4851 177.3452,354.0348 177.2771,353.5757 177.2543,353.112 177.2771,352.6484 177.3452,352.1893 177.458,351.739 177.6143,351.302 177.8128,350.8823 178.0514,350.4842 178.3279,350.1114 178.6397,349.7674 178.9836,349.4557 179.3564,349.1792 179.7546,348.9406 180.1742,348.7421 180.6112,348.5857 181.0615,348.4729 181.5206,348.4048 181.9843,348.3821 182.4479,348.4048 182.907,348.4729 183.3573,348.5857 183.7943,348.7421 184.2139,348.9406 184.6121,349.1792 184.9849,349.4557 185.3288,349.7674 185.6406,350.1114 185.9171,350.4842 186.1557,350.8823 186.3542,351.302 186.5106,351.739 186.6233,352.1893 186.6914,352.6484 186.7142,353.112 186.6914,353.5757 186.6233,354.0348 186.5106,354.4851 186.3542,354.9221 186.1557,355.3417 185.9171,355.7399 185.6406,356.1127 185.3288,356.4566 184.9849,356.7684 184.6121,357.0449 184.2139,357.2835 183.7943,357.482 183.3573,357.6383 182.907,357.7511 182.4479,357.8192 181.9843,357.842 181.5206,357.8192 181.0615,357.7511"/>
    <polygon points="194.4805,340.6266 193.7373,341.4466 192.9174,342.1897 192.0286,342.8489 191.0794,343.4178 190.079,343.891 189.0371,344.2638 187.9637,344.5327 186.8691,344.695 185.7638,344.7493 184.6585,344.695 183.5639,344.5327 182.4904,344.2638 181.4485,343.891 180.4482,343.4178 179.499,342.8489 178.6102,342.1897 177.7902,341.4466 177.0471,340.6266 176.3879,339.7378 175.819,338.7886 175.3458,337.7883 174.973,336.7464 174.7041,335.6729 174.5418,334.5783 174.4875,333.473 174.5418,332.3678 174.7041,331.2731 174.973,330.1997 175.3458,329.1578 175.819,328.1574 176.3879,327.2083 177.0471,326.3194 177.7902,325.4995 178.6102,324.7563 179.499,324.0971 180.4482,323.5282 181.4485,323.0551 182.4904,322.6823 183.5639,322.4134 184.6585,322.251 185.7638,322.1967 186.8691,322.251 187.9637,322.4134 189.0371,322.6823 190.079,323.0551 191.0794,323.5282 192.0286,324.0971 192.9174,324.7563 193.7373,325.4995 194.4805,326.3194 195.1397,327.2083 195.7086,328.1574 196.1817,329.1578 196.5545,330.1997 196.8234,331.2731 196.9858,332.3678 197.0401,333.473 196.9858,334.5783 196.8234,335.6729 196.5545,336.7464 196.1817,337.7883 195.7086,338.7886 195.1397,339.7378"/>
    <polygon points="222.6995,327.8495 222.6314,327.3903 222.6086,326.9267 222.6314,326.4631 222.6995,326.0039 222.8123,325.5537 222.9687,325.1166 223.1671,324.697 223.4058,324.2989 223.6823,323.926 223.994,323.5821 224.3379,323.2704 224.7108,322.9939 225.1089,322.7552 225.5285,322.5568 225.9655,322.4004 226.4158,322.2876 226.875,322.2195 227.3386,322.1967 227.8022,322.2195 228.2614,322.2876 228.7116,322.4004 229.1487,322.5568 229.5683,322.7552 229.9664,322.9939 230.3392,323.2704 230.6832,323.5821 230.9949,323.926 231.2714,324.2989 231.51,324.697 231.7085,325.1166 231.8649,325.5537 231.9777,326.0039 232.0458,326.4631 232.0686,326.9267 232.0458,327.3903 231.9777,327.8495 231.8649,328.2997 231.7085,328.7368 231.51,329.1564 231.2714,329.5545 230.9949,329.9274 230.6832,330.2713 230.3392,330.583 229.9664,330.8595 229.5683,331.0982 229.1487,331.2966 228.7116,331.453 228.2614,331.5658 227.8022,331.6339 227.3386,331.6567 226.875,331.6339 226.4158,331.5658 225.9655,331.453 225.5285,331.2966 225.1089,331.0982 224.7108,330.8595 224.3379,330.583 223.994,330.2713 223.6823,329.9274 223.4058,329.5545 223.1671,329.1564 222.9687,328.7368 222.8123,328.2997"/>
    <polygon points="219.8961,308.393 219.8418,307.2877 219.8961,306.1824 220.0585,305.0878 220.3274,304.0144 220.7002,302.9724 221.1733,301.9721 221.7422,301.0229 222.4014,300.1341 223.1446,299.3141 223.9645,298.571 224.8533,297.9118 225.8025,297.3429 226.8029,296.8697 227.8448,296.4969 228.9182,296.2281 230.0128,296.0657 231.1181,296.0114 232.2234,296.0657 233.318,296.2281 234.3914,296.4969 235.4334,296.8697 236.4337,297.3429 237.3829,297.9118 238.2717,298.571 239.0917,299.3141 239.8348,300.1341 240.494,301.0229 241.0629,301.9721 241.5361,302.9724 241.9089,304.0144 242.1777,305.0878 242.3401,306.1824 242.3944,307.2877 242.3401,308.393 242.1777,309.4876 241.9089,310.561 241.5361,311.603 241.0629,312.6033 240.494,313.5525 239.8348,314.4413 239.0917,315.2612 238.2717,316.0044 237.3829,316.6636 236.4337,317.2325 235.4334,317.7056 234.3914,318.0784 233.318,318.3473 232.2234,318.5097 231.1181,318.564 230.0128,318.5097 228.9182,318.3473 227.8448,318.0784 226.8029,317.7056 225.8025,317.2325 224.8533,316.6636 223.9645,316.0044 223.1446,315.2612 222.4014,314.4413 221.7422,313.5525 221.1733,312.6033 220.7002,311.603 220.3274,310.561 220.0585,309.4876"/>
    <polygon points="217.2236,289.4409 217.5745,291.8065 217.6918,294.195 217.5745,296.5836 217.2236,298.9492 216.6425,301.269 215.8368,303.5206 214.8144,305.6825 213.5849,307.7337 212.1603,309.6545 210.5543,311.4265 208.7823,313.0325 206.8615,314.4571 204.8103,315.6865 202.6484,316.709 200.3968,317.5147 198.077,318.0958 195.7114,318.4467 193.3228,318.564 190.9343,318.4467 188.5687,318.0958 186.2489,317.5147 183.9972,316.709 181.8354,315.6865 179.7842,314.4571 177.8633,313.0325 176.0914,311.4265 174.4854,309.6545 173.0608,307.7337 171.8313,305.6825 170.8088,303.5206 170.0032,301.269 169.4221,298.9492 169.0712,296.5836 168.9539,294.195 169.0712,291.8065 169.4221,289.4409 170.0032,287.1211 170.8088,284.8694 171.8313,282.7076 173.0608,280.6564 174.4854,278.7355 176.0914,276.9636 177.8633,275.3576 179.7842,273.933 181.8354,272.7035 183.9972,271.681 186.2489,270.8754 188.5687,270.2943 190.9343,269.9434 193.3228,269.8261 195.7114,269.9434 198.077,270.2943 200.3968,270.8754 202.6484,271.681 204.8103,272.7035 206.8615,273.933 208.7823,275.3576 210.5543,276.9636 212.1603,278.7355 213.5849,280.6564 214.8144,282.7076 215.8368,284.8694 216.6425,287.1211"/>
    <polygon points="224.3379,265.1197 224.7108,265.3962 225.1089,265.6348 225.5285,265.8333 225.9655,265.9897 226.4158,266.1024 226.875,266.1706 227.3386,266.1933 227.8022,266.1706 228.2614,266.1024 228.7116,265.9897 229.1487,265.8333 229.5683,265.6348 229.9664,265.3962 230.3392,265.1197 230.6832,264.808 230.9949,264.464 231.2714,264.0912 231.51,263.6931 231.7085,263.2734 231.8649,262.8364 231.9777,262.3861 232.0458,261.927 232.0686,261.4634 232.0458,260.9997 231.9777,260.5406 231.8649,260.0903 231.7085,259.6533 231.51,259.2337 231.2714,258.8355 230.9949,258.4627 230.6832,258.1188 230.3392,257.807 229.9664,257.5305 229.5683,257.2919 229.1487,257.0934 228.7116,256.9371 228.2614,256.8243 227.8022,256.7562 227.3386,256.7334 226.875,256.7562 226.4158,256.8243 225.9655,256.9371 225.5285,257.0934 225.1089,257.2919 224.7108,257.5305 224.3379,257.807 223.994,258.1188 223.6823,258.4627 223.4058,258.8355 223.1671,259.2337 222.9687,259.6533 222.8123,260.0903 222.6995,260.5406 222.6314,260.9997 222.6086,261.4634 222.6314,261.927 222.6995,262.3861 222.8123,262.8364 222.9687,263.2734 223.1671,263.6931 223.4058,264.0912 223.6823,264.464 223.994,264.808"/>
    <polygon points="235.0208,251.9164 234.7443,252.2892 234.5057,252.6873 234.3072,253.1069 234.1509,253.544 234.0381,253.9943 233.97,254.4534 233.9472,254.917 233.97,255.3806 234.0381,255.8398 234.1509,256.2901 234.3072,256.7271 234.5057,257.1467 234.7443,257.5449 235.0208,257.9177 235.3326,258.2616 235.6765,258.5733 236.0493,258.8499 236.4475,259.0885 236.8671,259.287 237.3041,259.4433 237.7544,259.5561 238.2135,259.6242 238.6772,259.647 239.1408,259.6242 239.5999,259.5561 240.0502,259.4433 240.4872,259.287 240.9069,259.0885 241.305,258.8499 241.6778,258.5733 242.0218,258.2616 242.3335,257.9177 242.61,257.5449 242.8486,257.1467 243.0471,256.7271 243.2035,256.2901 243.3163,255.8398 243.3844,255.3806 243.4071,254.917 243.3844,254.4534 243.3163,253.9943 243.2035,253.544 243.0471,253.1069 242.8486,252.6873 242.61,252.2892 242.3335,251.9164 242.0218,251.5724 241.6778,251.2607 241.305,250.9842 240.9069,250.7456 240.4872,250.5471 240.0502,250.3907 239.5999,250.2779 239.1408,250.2098 238.6772,250.1871 238.2135,250.2098 237.7544,250.2779 237.3041,250.3907 236.8671,250.5471 236.4475,250.7456 236.0493,250.9842 235.6765,251.2607 235.3326,251.5724"/>
    <polygon points="250.0157,253.1007 250.4794,253.0779 250.9385,253.0098 251.3888,252.897 251.8258,252.7406 252.2454,252.5422 252.6436,252.3035 253.0164,252.027 253.3603,251.7153 253.6721,251.3714 253.9486,250.9985 254.1872,250.6004 254.3857,250.1808 254.542,249.7437 254.6548,249.2935 254.7229,248.8343 254.7457,248.3707 254.7229,247.9071 254.6548,247.4479 254.542,246.9977 254.3857,246.5606 254.1872,246.141 253.9486,245.7429 253.6721,245.37 253.3603,245.0261 253.0164,244.7144 252.6436,244.4379 252.2454,244.1992 251.8258,244.0008 251.3888,243.8444 250.9385,243.7316 250.4794,243.6635 250.0157,243.6407 249.5521,243.6635 249.093,243.7316 248.6427,243.8444 248.2057,244.0008 247.7861,244.1992 247.3879,244.4379 247.0151,244.7144 246.6712,245.0261 246.3594,245.37 246.0829,245.7429 245.8443,246.141 245.6458,246.5606 245.4894,246.9977 245.3767,247.4479 245.3086,247.9071 245.2858,248.3707 245.3086,248.8343 245.3767,249.2935 245.4894,249.7437 245.6458,250.1808 245.8443,250.6004 246.0829,250.9985 246.3594,251.3714 246.6712,251.7153 247.0151,252.027 247.3879,252.3035 247.7861,252.5422 248.2057,252.7406 248.6427,252.897 249.093,253.0098 249.5521,253.0779"/>
    <polygon points="269.6923,238.9343 269.3483,238.6226 269.0366,238.2787 268.7601,237.9059 268.5214,237.5077 268.323,237.0881 268.1666,236.6511 268.0538,236.2008 267.9857,235.7416 267.9629,235.278 267.9857,234.8144 268.0538,234.3553 268.1666,233.905 268.323,233.4679 268.5214,233.0483 268.7601,232.6502 269.0366,232.2774 269.3483,231.9334 269.6923,231.6217 270.0651,231.3452 270.4632,231.1066 270.8828,230.9081 271.3199,230.7517 271.7701,230.6389 272.2293,230.5708 272.6929,230.5481 273.1565,230.5708 273.6157,230.6389 274.066,230.7517 274.503,230.9081 274.9226,231.1066 275.3207,231.3452 275.6936,231.6217 276.0375,231.9334 276.3492,232.2774 276.6257,232.6502 276.8644,233.0483 277.0628,233.4679 277.2192,233.905 277.332,234.3553 277.4001,234.8144 277.4229,235.278 277.4001,235.7416 277.332,236.2008 277.2192,236.6511 277.0628,237.0881 276.8644,237.5077 276.6257,237.9059 276.3492,238.2787 276.0375,238.6226 275.6936,238.9343 275.3207,239.2109 274.9226,239.4495 274.503,239.648 274.066,239.8043 273.6157,239.9171 273.1565,239.9852 272.6929,240.008 272.2293,239.9852 271.7701,239.9171 271.3199,239.8043 270.8828,239.648 270.4632,239.4495 270.0651,239.2109"/>
    <polygon points="280.6869,232.0763 280.3752,231.7324 280.0987,231.3595 279.86,230.9614 279.6616,230.5418 279.5052,230.1047 279.3924,229.6545 279.3243,229.1953 279.3015,228.7317 279.3243,228.2681 279.3924,227.8089 279.5052,227.3587 279.6616,226.9216 279.86,226.502 280.0987,226.1039 280.3752,225.731 280.6869,225.3871 281.0308,225.0754 281.4037,224.7989 281.8018,224.5602 282.2214,224.3618 282.6585,224.2054 283.1087,224.0926 283.5679,224.0245 284.0315,224.0017 284.4951,224.0245 284.9543,224.0926 285.4045,224.2054 285.8416,224.3618 286.2612,224.5602 286.6593,224.7989 287.0322,225.0754 287.3761,225.3871 287.6878,225.731 287.9643,226.1039 288.203,226.502 288.4014,226.9216 288.5578,227.3587 288.6706,227.8089 288.7387,228.2681 288.7615,228.7317 288.7387,229.1953 288.6706,229.6545 288.5578,230.1047 288.4014,230.5418 288.203,230.9614 287.9643,231.3595 287.6878,231.7324 287.3761,232.0763 287.0322,232.388 286.6593,232.6645 286.2612,232.9032 285.8416,233.1016 285.4045,233.258 284.9543,233.3708 284.4951,233.4389 284.0315,233.4617 283.5679,233.4389 283.1087,233.3708 282.6585,233.258 282.2214,233.1016 281.8018,232.9032 281.4037,232.6645 281.0308,232.388"/>
    <polygon points="291.0002,250.1808 291.1986,250.6004 291.4373,250.9985 291.7138,251.3714 292.0255,251.7153 292.3694,252.027 292.7422,252.3035 293.1404,252.5422 293.56,252.7406 293.997,252.897 294.4473,253.0098 294.9065,253.0779 295.3701,253.1007 295.8337,253.0779 296.2929,253.0098 296.7431,252.897 297.1802,252.7406 297.5998,252.5422 297.9979,252.3035 298.3707,252.027 298.7147,251.7153 299.0264,251.3714 299.3029,250.9985 299.5415,250.6004 299.74,250.1808 299.8964,249.7437 300.0092,249.2935 300.0773,248.8343 300.1001,248.3707 300.0773,247.9071 300.0092,247.4479 299.8964,246.9977 299.74,246.5606 299.5415,246.141 299.3029,245.7429 299.0264,245.37 298.7147,245.0261 298.3707,244.7144 297.9979,244.4379 297.5998,244.1992 297.1802,244.0008 296.7431,243.8444 296.2929,243.7316 295.8337,243.6635 295.3701,243.6407 294.9065,243.6635 294.4473,243.7316 293.997,243.8444 293.56,244.0008 293.1404,244.1992 292.7422,244.4379 292.3694,244.7144 292.0255,245.0261 291.7138,245.37 291.4373,245.7429 291.1986,246.141 291.0002,246.5606 290.8438,246.9977 290.731,247.4479 290.6629,247.9071 290.6401,248.3707 290.6629,248.8343 290.731,249.2935 290.8438,249.7437"/>
    <polygon points="287.7487,254.917 287.6944,253.8118 287.5321,252.7171 287.2632,251.6437 286.8904,250.6018 286.4173,249.6014 285.8483,248.6522 285.1891,247.7634 284.446,246.9435 283.6261,246.2003 282.7372,245.5411 281.7881,244.9722 280.7877,244.4991 279.7458,244.1263 278.6723,243.8574 277.5777,243.695 276.4724,243.6407 275.3672,243.695 274.2725,243.8574 273.1991,244.1263 272.1572,244.4991 271.1568,244.9722 270.2077,245.5411 269.3188,246.2003 268.4989,246.9435 267.7557,247.7634 267.0965,248.6522 266.5276,249.6014 266.0545,250.6018 265.6817,251.6437 265.4128,252.7171 265.2504,253.8118 265.1961,254.917 265.2504,256.0223 265.4128,257.1169 265.6817,258.1904 266.0545,259.2323 266.5276,260.2326 267.0965,261.1818 267.7557,262.0706 268.4989,262.8906 269.3188,263.6337 270.2077,264.2929 271.1568,264.8618 272.1572,265.335 273.1991,265.7078 274.2725,265.9767 275.3672,266.139 276.4724,266.1933 277.5777,266.139 278.6723,265.9767 279.7458,265.7078 280.7877,265.335 281.7881,264.8618 282.7372,264.2929 283.6261,263.6337 284.446,262.8906 285.1891,262.0706 285.8483,261.1818 286.4173,260.2326 286.8904,259.2323 287.2632,258.1904 287.5321,257.1169 287.6944,256.0223"/>
    <polygon points="302.3387,253.1069 302.5372,252.6873 302.7758,252.2892 303.0523,251.9164 303.3641,251.5724 303.708,251.2607 304.0808,250.9842 304.479,250.7456 304.8986,250.5471 305.3356,250.3907 305.7859,250.2779 306.245,250.2098 306.7087,250.1871 307.1723,250.2098 307.6314,250.2779 308.0817,250.3907 308.5187,250.5471 308.9384,250.7456 309.3365,250.9842 309.7093,251.2607 310.0533,251.5724 310.365,251.9164 310.6415,252.2892 310.8801,252.6873 311.0786,253.1069 311.235,253.544 311.3477,253.9943 311.4159,254.4534 311.4386,254.917 311.4159,255.3806 311.3477,255.8398 311.235,256.2901 311.0786,256.7271 310.8801,257.1467 310.6415,257.5449 310.365,257.9177 310.0533,258.2616 309.7093,258.5733 309.3365,258.8499 308.9384,259.0885 308.5187,259.287 308.0817,259.4433 307.6314,259.5561 307.1723,259.6242 306.7087,259.647 306.245,259.6242 305.7859,259.5561 305.3356,259.4433 304.8986,259.287 304.479,259.0885 304.0808,258.8499 303.708,258.5733 303.3641,258.2616 303.0523,257.9177 302.7758,257.5449 302.5372,257.1467 302.3387,256.7271 302.1824,256.2901 302.0696,255.8398 302.0015,255.3806 301.9787,254.917 302.0015,254.4534 302.0696,253.9943 302.1824,253.544"/>
    <polygon points="305.7859,263.3706 306.245,263.3025 306.7087,263.2797 307.1723,263.3025 307.6314,263.3706 308.0817,263.4834 308.5187,263.6398 308.9384,263.8382 309.3365,264.0769 309.7093,264.3534 310.0533,264.6651 310.365,265.009 310.6415,265.3819 310.8801,265.78 311.0786,266.1996 311.235,266.6367 311.3477,267.0869 311.4159,267.5461 311.4386,268.0097 311.4159,268.4733 311.3477,268.9325 311.235,269.3827 311.0786,269.8198 310.8801,270.2394 310.6415,270.6375 310.365,271.0104 310.0533,271.3543 309.7093,271.666 309.3365,271.9425 308.9384,272.1812 308.5187,272.3796 308.0817,272.536 307.6314,272.6488 307.1723,272.7169 306.7087,272.7397 306.245,272.7169 305.7859,272.6488 305.3356,272.536 304.8986,272.3796 304.479,272.1812 304.0808,271.9425 303.708,271.666 303.3641,271.3543 303.0523,271.0104 302.7758,270.6375 302.5372,270.2394 302.3387,269.8198 302.1824,269.3827 302.0696,268.9325 302.0015,268.4733 301.9787,268.0097 302.0015,267.5461 302.0696,267.0869 302.1824,266.6367 302.3387,266.1996 302.5372,265.78 302.7758,265.3819 303.0523,265.009 303.3641,264.6651 303.708,264.3534 304.0808,264.0769 304.479,263.8382 304.8986,263.6398 305.3356,263.4834"/>
    <polygon points="299.0264,264.464 298.7147,264.808 298.3707,265.1197 297.9979,265.3962 297.5998,265.6348 297.1802,265.8333 296.7431,265.9897 296.2929,266.1024 295.8337,266.1706 295.3701,266.1933 294.9065,266.1706 294.4473,266.1024 293.997,265.9897 293.56,265.8333 293.1404,265.6348 292.7422,265.3962 292.3694,265.1197 292.0255,264.808 291.7138,264.464 291.4373,264.0912 291.1986,263.6931 291.0002,263.2734 290.8438,262.8364 290.731,262.3861 290.6629,261.927 290.6401,261.4634 290.6629,260.9997 290.731,260.5406 290.8438,260.0903 291.0002,259.6533 291.1986,259.2337 291.4373,258.8355 291.7138,258.4627 292.0255,258.1188 292.3694,257.807 292.7422,257.5305 293.1404,257.2919 293.56,257.0934 293.997,256.9371 294.4473,256.8243 294.9065,256.7562 295.3701,256.7334 295.8337,256.7562 296.2929,256.8243 296.7431,256.9371 297.1802,257.0934 297.5998,257.2919 297.9979,257.5305 298.3707,257.807 298.7147,258.1188 299.0264,258.4627 299.3029,258.8355 299.5415,259.2337 299.74,259.6533 299.8964,260.0903 300.0092,260.5406 300.0773,260.9997 300.1001,261.4634 300.0773,261.927 300.0092,262.3861 299.8964,262.8364 299.74,263.2734 299.5415,263.6931 299.3029,264.0912"/>
    <polygon points="303.3641,277.7578 303.708,277.446 304.0808,277.1695 304.479,276.9309 304.8986,276.7324 305.3356,276.5761 305.7859,276.4633 306.245,276.3952 306.7087,276.3724 307.1723,276.3952 307.6314,276.4633 308.0817,276.5761 308.5187,276.7324 308.9384,276.9309 309.3365,277.1695 309.7093,277.446 310.0533,277.7578 310.365,278.1017 310.6415,278.4745 310.8801,278.8727 311.0786,279.2923 311.235,279.7293 311.3477,280.1796 311.4159,280.6387 311.4386,281.1024 311.4159,281.566 311.3477,282.0251 311.235,282.4754 311.0786,282.9124 310.8801,283.3321 310.6415,283.7302 310.365,284.103 310.0533,284.447 309.7093,284.7587 309.3365,285.0352 308.9384,285.2738 308.5187,285.4723 308.0817,285.6287 307.6314,285.7414 307.1723,285.8096 306.7087,285.8323 306.245,285.8096 305.7859,285.7414 305.3356,285.6287 304.8986,285.4723 304.479,285.2738 304.0808,285.0352 303.708,284.7587 303.3641,284.447 303.0523,284.103 302.7758,283.7302 302.5372,283.3321 302.3387,282.9124 302.1824,282.4754 302.0696,282.0251 302.0015,281.566 301.9787,281.1024 302.0015,280.6387 302.0696,280.1796 302.1824,279.7293 302.3387,279.2923 302.5372,278.8727 302.7758,278.4745 303.0523,278.1017"/>
    <polygon points="293.56,283.2788 293.997,283.1224 294.4473,283.0096 294.9065,282.9415 295.3701,282.9187 295.8337,282.9415 296.2929,283.0096 296.7431,283.1224 297.1802,283.2788 297.5998,283.4772 297.9979,283.7159 298.3707,283.9924 298.7147,284.3041 299.0264,284.648 299.3029,285.0209 299.5415,285.419 299.74,285.8386 299.8964,286.2757 300.0092,286.7259 300.0773,287.1851 300.1001,287.6487 300.0773,288.1123 300.0092,288.5715 299.8964,289.0217 299.74,289.4588 299.5415,289.8784 299.3029,290.2765 299.0264,290.6494 298.7147,290.9933 298.3707,291.305 297.9979,291.5815 297.5998,291.8202 297.1802,292.0186 296.7431,292.175 296.2929,292.2878 295.8337,292.3559 295.3701,292.3787 294.9065,292.3559 294.4473,292.2878 293.997,292.175 293.56,292.0186 293.1404,291.8202 292.7422,291.5815 292.3694,291.305 292.0255,290.9933 291.7138,290.6494 291.4373,290.2765 291.1986,289.8784 291.0002,289.4588 290.8438,289.0217 290.731,288.5715 290.6629,288.1123 290.6401,287.6487 290.6629,287.1851 290.731,286.7259 290.8438,286.2757 291.0002,285.8386 291.1986,285.419 291.4373,285.0209 291.7138,284.648 292.0255,284.3041 292.3694,283.9924 292.7422,283.7159 293.1404,283.4772"/>
    <polygon points="285.4045,285.6287 284.9543,285.7414 284.4951,285.8096 284.0315,285.8323 283.5679,285.8096 283.1087,285.7414 282.6585,285.6287 282.2214,285.4723 281.8018,285.2738 281.4037,285.0352 281.0308,284.7587 280.6869,284.447 280.3752,284.103 280.0987,283.7302 279.86,283.3321 279.6616,282.9124 279.5052,282.4754 279.3924,282.0251 279.3243,281.566 279.3015,281.1024 279.3243,280.6387 279.3924,280.1796 279.5052,279.7293 279.6616,279.2923 279.86,278.8727 280.0987,278.4745 280.3752,278.1017 280.6869,277.7578 281.0308,277.446 281.4037,277.1695 281.8018,276.9309 282.2214,276.7324 282.6585,276.5761 283.1087,276.4633 283.5679,276.3952 284.0315,276.3724 284.4951,276.3952 284.9543,276.4633 285.4045,276.5761 285.8416,276.7324 286.2612,276.9309 286.6593,277.1695 287.0322,277.446 287.3761,277.7578 287.6878,278.1017 287.9643,278.4745 288.203,278.8727 288.4014,279.2923 288.5578,279.7293 288.6706,280.1796 288.7387,280.6387 288.7615,281.1024 288.7387,281.566 288.6706,282.0251 288.5578,282.4754 288.4014,282.9124 288.203,283.3321 287.9643,283.7302 287.6878,284.103 287.3761,284.447 287.0322,284.7587 286.6593,285.0352 286.2612,285.2738 285.8416,285.4723"/>
    <polygon points="269.0366,271.5554 269.3483,271.2114 269.6923,270.8997 270.0651,270.6232 270.4632,270.3846 270.8828,270.1861 271.3199,270.0297 271.7701,269.9169 272.2293,269.8488 272.6929,269.8261 273.1565,269.8488 273.6157,269.9169 274.066,270.0297 274.503,270.1861 274.9226,270.3846 275.3207,270.6232 275.6936,270.8997 276.0375,271.2114 276.3492,271.5554 276.6257,271.9282 276.8644,272.3263 277.0628,272.7459 277.2192,273.183 277.332,273.6333 277.4001,274.0924 277.4229,274.556 277.4001,275.0196 277.332,275.4788 277.2192,275.9291 277.0628,276.3661 276.8644,276.7857 276.6257,277.1839 276.3492,277.5567 276.0375,277.9006 275.6936,278.2123 275.3207,278.4889 274.9226,278.7275 274.503,278.926 274.066,279.0823 273.6157,279.1951 273.1565,279.2632 272.6929,279.286 272.2293,279.2632 271.7701,279.1951 271.3199,279.0823 270.8828,278.926 270.4632,278.7275 270.0651,278.4889 269.6923,278.2123 269.3483,277.9006 269.0366,277.5567 268.7601,277.1839 268.5214,276.7857 268.323,276.3661 268.1666,275.9291 268.0538,275.4788 267.9857,275.0196 267.9629,274.556 267.9857,274.0924 268.0538,273.6333 268.1666,273.183 268.323,272.7459 268.5214,272.3263 268.7601,271.9282"/>
    <polygon points="260.9489,259.293 261.7688,260.0361 262.512,260.8561 263.1712,261.7449 263.7401,262.6941 264.2132,263.6944 264.586,264.7364 264.8549,265.8098 265.0173,266.9044 265.0716,268.0097 265.0173,269.115 264.8549,270.2096 264.586,271.283 264.2132,272.325 263.7401,273.3253 263.1712,274.2745 262.512,275.1633 261.7688,275.9832 260.9489,276.7264 260.0601,277.3856 259.1109,277.9545 258.1105,278.4276 257.0686,278.8004 255.9952,279.0693 254.9005,279.2317 253.7953,279.286 252.69,279.2317 251.5954,279.0693 250.5219,278.8004 249.48,278.4276 248.4797,277.9545 247.5305,277.3856 246.6417,276.7264 245.8217,275.9832 245.0786,275.1633 244.4194,274.2745 243.8505,273.3253 243.3773,272.325 243.0045,271.283 242.7356,270.2096 242.5733,269.115 242.519,268.0097 242.5733,266.9044 242.7356,265.8098 243.0045,264.7364 243.3773,263.6944 243.8505,262.6941 244.4194,261.7449 245.0786,260.8561 245.8217,260.0361 246.6417,259.293 247.5305,258.6338 248.4797,258.0649 249.48,257.5917 250.5219,257.2189 251.5954,256.9501 252.69,256.7877 253.7953,256.7334 254.9005,256.7877 255.9952,256.9501 257.0686,257.2189 258.1105,257.5917 259.1109,258.0649 260.0601,258.6338"/>
    <polygon points="242.3401,282.2076 242.3944,281.1024 242.3401,279.9971 242.1777,278.9025 241.9089,277.829 241.5361,276.7871 241.0629,275.7867 240.494,274.8376 239.8348,273.9487 239.0917,273.1288 238.2717,272.3857 237.3829,271.7265 236.4337,271.1575 235.4334,270.6844 234.3914,270.3116 233.318,270.0427 232.2234,269.8804 231.1181,269.8261 230.0128,269.8804 228.9182,270.0427 227.8448,270.3116 226.8029,270.6844 225.8025,271.1575 224.8533,271.7265 223.9645,272.3857 223.1446,273.1288 222.4014,273.9487 221.7422,274.8376 221.1733,275.7867 220.7002,276.7871 220.3274,277.829 220.0585,278.9025 219.8961,279.9971 219.8418,281.1024 219.8961,282.2076 220.0585,283.3023 220.3274,284.3757 220.7002,285.4176 221.1733,286.418 221.7422,287.3671 222.4014,288.256 223.1446,289.0759 223.9645,289.8191 224.8533,290.4783 225.8025,291.0472 226.8029,291.5203 227.8448,291.8931 228.9182,292.162 230.0128,292.3244 231.1181,292.3787 232.2234,292.3244 233.318,292.162 234.3914,291.8931 235.4334,291.5203 236.4337,291.0472 237.3829,290.4783 238.2717,289.8191 239.0917,289.0759 239.8348,288.256 240.494,287.3671 241.0629,286.418 241.5361,285.4176 241.9089,284.3757 242.1777,283.3023"/>
    <polygon points="252.6436,291.5815 253.0164,291.305 253.3603,290.9933 253.6721,290.6494 253.9486,290.2765 254.1872,289.8784 254.3857,289.4588 254.542,289.0217 254.6548,288.5715 254.7229,288.1123 254.7457,287.6487 254.7229,287.1851 254.6548,286.7259 254.542,286.2757 254.3857,285.8386 254.1872,285.419 253.9486,285.0209 253.6721,284.648 253.3603,284.3041 253.0164,283.9924 252.6436,283.7159 252.2454,283.4772 251.8258,283.2788 251.3888,283.1224 250.9385,283.0096 250.4794,282.9415 250.0157,282.9187 249.5521,282.9415 249.093,283.0096 248.6427,283.1224 248.2057,283.2788 247.7861,283.4772 247.3879,283.7159 247.0151,283.9924 246.6712,284.3041 246.3594,284.648 246.0829,285.0209 245.8443,285.419 245.6458,285.8386 245.4894,286.2757 245.3767,286.7259 245.3086,287.1851 245.2858,287.6487 245.3086,288.1123 245.3767,288.5715 245.4894,289.0217 245.6458,289.4588 245.8443,289.8784 246.0829,290.2765 246.3594,290.6494 246.6712,290.9933 247.0151,291.305 247.3879,291.5815 247.7861,291.8202 248.2057,292.0186 248.6427,292.175 249.093,292.2878 249.5521,292.3559 250.0157,292.3787 250.4794,292.3559 250.9385,292.2878 251.3888,292.175 251.8258,292.0186 252.2454,291.8202"/>
    <polygon points="254.542,312.461 254.3857,312.0239 254.1872,311.6043 253.9486,311.2062 253.6721,310.8334 253.3603,310.4894 253.0164,310.1777 252.6436,309.9012 252.2454,309.6626 251.8258,309.4641 251.3888,309.3077 250.9385,309.1949 250.4794,309.1268 250.0157,309.1041 249.5521,309.1268 249.093,309.1949 248.6427,309.3077 248.2057,309.4641 247.7861,309.6626 247.3879,309.9012 247.0151,310.1777 246.6712,310.4894 246.3594,310.8334 246.0829,311.2062 245.8443,311.6043 245.6458,312.0239 245.4894,312.461 245.3767,312.9113 245.3086,313.3704 245.2858,313.834 245.3086,314.2976 245.3767,314.7568 245.4894,315.2071 245.6458,315.6441 245.8443,316.0637 246.0829,316.4619 246.3594,316.8347 246.6712,317.1786 247.0151,317.4903 247.3879,317.7669 247.7861,318.0055 248.2057,318.204 248.6427,318.3603 249.093,318.4731 249.5521,318.5412 250.0157,318.564 250.4794,318.5412 250.9385,318.4731 251.3888,318.3603 251.8258,318.204 252.2454,318.0055 252.6436,317.7669 253.0164,317.4903 253.3603,317.1786 253.6721,316.8347 253.9486,316.4619 254.1872,316.0637 254.3857,315.6441 254.542,315.2071 254.6548,314.7568 254.7229,314.2976 254.7457,313.834 254.7229,313.3704 254.6548,312.9113"/>
  </g>
</svg>
