<?xml version="1.0" encoding="utf-8" ?>
<svg xmlns="http://www.w3.org/2000/svg" xmlns:cc="http://creativecommons.org/ns" xmlns:dc="http://purl.org/dc/elements/1.1/" xmlns:ev="http://www.w3.org/2001/xml-events" xmlns:inkscape="http://www.inkscape.org/namespaces/inkscape" xmlns:rdf="http://www.w3.org/1999/02/22-rdf-syntax-ns" xmlns:sodipodi="http://sodipodi.sourceforge.net/DTD/sodipodi-0.dtd" xmlns:xlink="http://www.w3.org/1999/xlink" baseProfile="tiny" height="15.875cm" version="1.2" viewBox="0 0 432.0 600.0" width="11.43cm">
  <metadata>
    <rdf:RDF>
      <cc:Work>
        <dc:format>image/svg+xml</dc:format>
        <dc:source>vsk save -s 276 -c hex-grid/config/bubble-coasters-2.json /Users/tobin/src/fabian/plotting/fabian-plotting/hex-grid/sketch_hex_grid.py</dc:source>
        <dc:date>2023-11-11T11:30:24.032518</dc:date>
      </cc:Work>
    </rdf:RDF>
  </metadata>
  <defs/>
  <g fill="none" id="layer1" inkscape:groupmode="layer" inkscape:label="1" stroke="#000000" stroke-width="0.7559" style="display:inline">
    <polygon points="283.0922,218.9122 283.0694,219.3758 283.0013,219.835 282.8885,220.2852 282.7321,220.7223 282.5337,221.1419 282.295,221.54 282.0185,221.9129 281.7068,222.2568 281.3629,222.5685 280.99,222.845 280.5919,223.0837 280.1723,223.2821 279.7352,223.4385 279.285,223.5513 278.8258,223.6194 278.3622,223.6422 277.8986,223.6194 277.4394,223.5513 276.9892,223.4385 276.5521,223.2821 276.1325,223.0837 275.7344,222.845 275.3615,222.5685 275.0176,222.2568 274.7059,221.9129 274.4294,221.54 274.1907,221.1419 273.9923,220.7223 273.8359,220.2852 273.7231,219.835 273.655,219.3758 273.6322,218.9122 273.655,218.4486 273.7231,217.9894 273.8359,217.5392 273.9923,217.1021 274.1907,216.6825 274.4294,216.2844 274.7059,215.9115 275.0176,215.5676 275.3615,215.2559 275.7344,214.9794 276.1325,214.7407 276.5521,214.5423 276.9892,214.3859 277.4394,214.2731 277.8986,214.205 278.3622,214.1822 278.8258,214.205 279.285,214.2731 279.7352,214.3859 280.1723,214.5423 280.5919,214.7407 280.99,214.9794 281.3629,215.2559 281.7068,215.5676 282.0185,215.9115 282.295,216.2844 282.5337,216.6825 282.7321,217.1021 282.8885,217.5392 283.0013,217.9894 283.0694,218.4486"/>
    <polygon points="275.0176,202.4749 275.3615,202.1632 275.7344,201.8867 276.1325,201.6481 276.5521,201.4496 276.9892,201.2932 277.4394,201.1804 277.8986,201.1123 278.3622,201.0896 278.8258,201.1123 279.285,201.1804 279.7352,201.2932 280.1723,201.4496 280.5919,201.6481 280.99,201.8867 281.3629,202.1632 281.7068,202.4749 282.0185,202.8189 282.295,203.1917 282.5337,203.5898 282.7321,204.0094 282.8885,204.4465 283.0013,204.8968 283.0694,205.3559 283.0922,205.8195 283.0694,206.2831 283.0013,206.7423 282.8885,207.1926 282.7321,207.6296 282.5337,208.0492 282.295,208.4474 282.0185,208.8202 281.7068,209.1641 281.3629,209.4758 280.99,209.7524 280.5919,209.991 280.1723,210.1894 279.7352,210.3458 279.285,210.4586 278.8258,210.5267 278.3622,210.5495 277.8986,210.5267 277.4394,210.4586 276.9892,210.3458 276.5521,210.1894 276.1325,209.991 275.7344,209.7524 275.3615,209.4758 275.0176,209.1641 274.7059,208.8202 274.4294,208.4474 274.1907,208.0492 273.9923,207.6296 273.8359,207.1926 273.7231,206.7423 273.655,206.2831 273.6322,205.8195 273.655,205.3559 273.7231,204.8968 273.8359,204.4465 273.9923,204.0094 274.1907,203.5898 274.4294,203.1917 274.7059,202.8189"/>
    <polygon points="235.2376,175.4627 235.6357,175.7014 236.0085,175.9779 236.3525,176.2896 236.6642,176.6335 236.9407,177.0064 237.1793,177.4045 237.3778,177.8241 237.5342,178.2612 237.647,178.7114 237.7151,179.1706 237.7378,179.6342 237.7151,180.0978 237.647,180.557 237.5342,181.0072 237.3778,181.4443 237.1793,181.8639 236.9407,182.262 236.6642,182.6349 236.3525,182.9788 236.0085,183.2905 235.6357,183.567 235.2376,183.8057 234.818,184.0041 234.3809,184.1605 233.9306,184.2733 233.4715,184.3414 233.0079,184.3642 232.5443,184.3414 232.0851,184.2733 231.6348,184.1605 231.1978,184.0041 230.7782,183.8057 230.38,183.567 230.0072,183.2905 229.6633,182.9788 229.3516,182.6349 229.075,182.262 228.8364,181.8639 228.6379,181.4443 228.4816,181.0072 228.3688,180.557 228.3007,180.0978 228.2779,179.6342 228.3007,179.1706 228.3688,178.7114 228.4816,178.2612 228.6379,177.8241 228.8364,177.4045 229.075,177.0064 229.3516,176.6335 229.6633,176.2896 230.0072,175.9779 230.38,175.7014 230.7782,175.4627 231.1978,175.2643 231.6348,175.1079 232.0851,174.9951 232.5443,174.927 233.0079,174.9042 233.4715,174.927 233.9306,174.9951 234.3809,175.1079 234.818,175.2643"/>
    <polygon points="232.0851,197.3659 231.6348,197.2532 231.1978,197.0968 230.7782,196.8983 230.38,196.6597 230.0072,196.3832 229.6633,196.0715 229.3516,195.7275 229.075,195.3547 228.8364,194.9566 228.6379,194.5369 228.4816,194.0999 228.3688,193.6496 228.3007,193.1905 228.2779,192.7269 228.3007,192.2632 228.3688,191.8041 228.4816,191.3538 228.6379,190.9168 228.8364,190.4972 229.075,190.099 229.3516,189.7262 229.6633,189.3823 230.0072,189.0705 230.38,188.794 230.7782,188.5554 231.1978,188.3569 231.6348,188.2006 232.0851,188.0878 232.5443,188.0197 233.0079,187.9969 233.4715,188.0197 233.9306,188.0878 234.3809,188.2006 234.818,188.3569 235.2376,188.5554 235.6357,188.794 236.0085,189.0705 236.3525,189.3823 236.6642,189.7262 236.9407,190.099 237.1793,190.4972 237.3778,190.9168 237.5342,191.3538 237.647,191.8041 237.7151,192.2632 237.7378,192.7269 237.7151,193.1905 237.647,193.6496 237.5342,194.0999 237.3778,194.5369 237.1793,194.9566 236.9407,195.3547 236.6642,195.7275 236.3525,196.0715 236.0085,196.3832 235.6357,196.6597 235.2376,196.8983 234.818,197.0968 234.3809,197.2532 233.9306,197.3659 233.4715,197.4341 233.0079,197.4568 232.5443,197.4341"/>
    <polygon points="229.075,203.1917 229.3516,202.8189 229.6633,202.4749 230.0072,202.1632 230.38,201.8867 230.7782,201.6481 231.1978,201.4496 231.6348,201.2932 232.0851,201.1804 232.5443,201.1123 233.0079,201.0896 233.4715,201.1123 233.9306,201.1804 234.3809,201.2932 234.818,201.4496 235.2376,201.6481 235.6357,201.8867 236.0085,202.1632 236.3525,202.4749 236.6642,202.8189 236.9407,203.1917 237.1793,203.5898 237.3778,204.0094 237.5342,204.4465 237.647,204.8968 237.7151,205.3559 237.7378,205.8195 237.7151,206.2831 237.647,206.7423 237.5342,207.1926 237.3778,207.6296 237.1793,208.0492 236.9407,208.4474 236.6642,208.8202 236.3525,209.1641 236.0085,209.4758 235.6357,209.7524 235.2376,209.991 234.818,210.1894 234.3809,210.3458 233.9306,210.4586 233.4715,210.5267 233.0079,210.5495 232.5443,210.5267 232.0851,210.4586 231.6348,210.3458 231.1978,210.1894 230.7782,209.991 230.38,209.7524 230.0072,209.4758 229.6633,209.1641 229.3516,208.8202 229.075,208.4474 228.8364,208.0492 228.6379,207.6296 228.4816,207.1926 228.3688,206.7423 228.3007,206.2831 228.2779,205.8195 228.3007,205.3559 228.3688,204.8968 228.4816,204.4465 228.6379,204.0094 228.8364,203.5898"/>
    <polygon points="237.3778,220.7223 237.1793,221.1419 236.9407,221.54 236.6642,221.9129 236.3525,222.2568 236.0085,222.5685 235.6357,222.845 235.2376,223.0837 234.818,223.2821 234.3809,223.4385 233.9306,223.5513 233.4715,223.6194 233.0079,223.6422 232.5443,223.6194 232.0851,223.5513 231.6348,223.4385 231.1978,223.2821 230.7782,223.0837 230.38,222.845 230.0072,222.5685 229.6633,222.2568 229.3516,221.9129 229.075,221.54 228.8364,221.1419 228.6379,220.7223 228.4816,220.2852 228.3688,219.835 228.3007,219.3758 228.2779,218.9122 228.3007,218.4486 228.3688,217.9894 228.4816,217.5392 228.6379,217.1021 228.8364,216.6825 229.075,216.2844 229.3516,215.9115 229.6633,215.5676 230.0072,215.2559 230.38,214.9794 230.7782,214.7407 231.1978,214.5423 231.6348,214.3859 232.0851,214.2731 232.5443,214.205 233.0079,214.1822 233.4715,214.205 233.9306,214.2731 234.3809,214.3859 234.818,214.5423 235.2376,214.7407 235.6357,214.9794 236.0085,215.2559 236.3525,215.5676 236.6642,215.9115 236.9407,216.2844 237.1793,216.6825 237.3778,217.1021 237.5342,217.5392 237.647,217.9894 237.7151,218.4486 237.7378,218.9122 237.7151,219.3758 237.647,219.835 237.5342,220.2852"/>
    <polygon points="247.2054,242.8664 246.7322,243.8668 246.1633,244.816 245.5041,245.7048 244.761,246.5247 243.941,247.2679 243.0522,247.9271 242.103,248.496 241.1027,248.9691 240.0607,249.3419 238.9873,249.6108 237.8927,249.7732 236.7874,249.8275 235.6821,249.7732 234.5875,249.6108 233.5141,249.3419 232.4721,248.9691 231.4718,248.496 230.5226,247.9271 229.6338,247.2679 228.8138,246.5247 228.0707,245.7048 227.4115,244.816 226.8426,243.8668 226.3695,242.8664 225.9966,241.8245 225.7278,240.7511 225.5654,239.6565 225.5111,238.5512 225.5654,237.4459 225.7278,236.3513 225.9966,235.2779 226.3695,234.2359 226.8426,233.2356 227.4115,232.2864 228.0707,231.3976 228.8138,230.5776 229.6338,229.8345 230.5226,229.1753 231.4718,228.6064 232.4721,228.1332 233.5141,227.7604 234.5875,227.4916 235.6821,227.3292 236.7874,227.2749 237.8927,227.3292 238.9873,227.4916 240.0607,227.7604 241.1027,228.1332 242.103,228.6064 243.0522,229.1753 243.941,229.8345 244.761,230.5776 245.5041,231.3976 246.1633,232.2864 246.7322,233.2356 247.2054,234.2359 247.5782,235.2779 247.847,236.3513 248.0094,237.4459 248.0637,238.5512 248.0094,239.6565 247.847,240.7511 247.5782,241.8245"/>
    <polygon points="261.6645,236.5182 260.5698,236.6805 259.4646,236.7348 258.3593,236.6805 257.2647,236.5182 256.1912,236.2493 255.1493,235.8765 254.149,235.4033 253.1998,234.8344 252.311,234.1752 251.491,233.4321 250.7479,232.6121 250.0887,231.7233 249.5198,230.7741 249.0466,229.7738 248.6738,228.7319 248.4049,227.6584 248.2426,226.5638 248.1883,225.4585 248.2426,224.3533 248.4049,223.2586 248.6738,222.1852 249.0466,221.1433 249.5198,220.1429 250.0887,219.1937 250.7479,218.3049 251.491,217.485 252.311,216.7418 253.1998,216.0826 254.149,215.5137 255.1493,215.0406 256.1912,214.6678 257.2647,214.3989 258.3593,214.2365 259.4646,214.1822 260.5698,214.2365 261.6645,214.3989 262.7379,214.6678 263.7798,215.0406 264.7802,215.5137 265.7293,216.0826 266.6182,216.7418 267.4381,217.485 268.1813,218.3049 268.8405,219.1937 269.4094,220.1429 269.8825,221.1433 270.2553,222.1852 270.5242,223.2586 270.6866,224.3533 270.7409,225.4585 270.6866,226.5638 270.5242,227.6584 270.2553,228.7319 269.8825,229.7738 269.4094,230.7741 268.8405,231.7233 268.1813,232.6121 267.4381,233.4321 266.6182,234.1752 265.7293,234.8344 264.7802,235.4033 263.7798,235.8765 262.7379,236.2493"/>
    <polygon points="261.5779,260.5977 259.806,258.9917 257.8851,257.5671 255.8339,256.3377 253.6721,255.3152 251.4204,254.5095 249.1006,253.9285 246.735,253.5776 244.3465,253.4602 241.9579,253.5776 239.5923,253.9285 237.2725,254.5095 235.0209,255.3152 232.859,256.3377 230.8078,257.5671 228.8869,258.9917 227.115,260.5977 225.509,262.3697 224.0844,264.2905 222.8549,266.3417 221.8325,268.5036 221.0268,270.7553 220.4457,273.075 220.0948,275.4406 219.9775,277.8292 220.0948,280.2178 220.4457,282.5833 221.0268,284.9031 221.8325,287.1548 222.8549,289.3167 224.0844,291.3679 225.509,293.2887 227.115,295.0607 228.8869,296.6667 230.8078,298.0913 232.859,299.3207 235.0209,300.3432 237.2725,301.1488 239.5923,301.7299 241.9579,302.0808 244.3465,302.1982 246.735,302.0808 249.1006,301.7299 251.4204,301.1488 253.6721,300.3432 255.8339,299.3207 257.8851,298.0913 259.806,296.6667 261.5779,295.0607 263.1839,293.2887 264.6085,291.3679 265.838,289.3167 266.8605,287.1548 267.6661,284.9031 268.2472,282.5833 268.5981,280.2178 268.7154,277.8292 268.5981,275.4406 268.2472,273.075 267.6661,270.7553 266.8605,268.5036 265.838,266.3417 264.6085,264.2905 263.1839,262.3697"/>
    <polygon points="272.1969,259.4209 271.7238,260.4213 271.351,261.4632 271.0821,262.5366 270.9197,263.6313 270.8654,264.7365 270.9197,265.8418 271.0821,266.9364 271.351,268.0099 271.7238,269.0518 272.1969,270.0521 272.7658,271.0013 273.425,271.8901 274.1682,272.7101 274.9881,273.4532 275.877,274.1124 276.8261,274.6813 277.8265,275.1545 278.8684,275.5273 279.9418,275.7962 281.0365,275.9585 282.1417,276.0128 283.247,275.9585 284.3416,275.7962 285.4151,275.5273 286.457,275.1545 287.4573,274.6813 288.4065,274.1124 289.2953,273.4532 290.1153,272.7101 290.8584,271.8901 291.5176,271.0013 292.0865,270.0521 292.5597,269.0518 292.9325,268.0099 293.2014,266.9364 293.3637,265.8418 293.418,264.7365 293.3637,263.6313 293.2014,262.5366 292.9325,261.4632 292.5597,260.4213 292.0865,259.4209 291.5176,258.4717 290.8584,257.5829 290.1153,256.763 289.2953,256.0198 288.4065,255.3606 287.4573,254.7917 286.457,254.3186 285.4151,253.9458 284.3416,253.6769 283.247,253.5145 282.1417,253.4602 281.0365,253.5145 279.9418,253.6769 278.8684,253.9458 277.8265,254.3186 276.8261,254.7917 275.877,255.3606 274.9881,256.0198 274.1682,256.763 273.425,257.5829 272.7658,258.4717"/>
    <polygon points="276.9892,240.5712 276.5521,240.7276 276.1325,240.9261 275.7344,241.1647 275.3615,241.4412 275.0176,241.7529 274.7059,242.0969 274.4294,242.4697 274.1907,242.8678 273.9923,243.2874 273.8359,243.7245 273.7231,244.1748 273.655,244.6339 273.6322,245.0975 273.655,245.5611 273.7231,246.0203 273.8359,246.4706 273.9923,246.9076 274.1907,247.3272 274.4294,247.7254 274.7059,248.0982 275.0176,248.4421 275.3615,248.7538 275.7344,249.0304 276.1325,249.269 276.5521,249.4675 276.9892,249.6238 277.4394,249.7366 277.8986,249.8047 278.3622,249.8275 278.8258,249.8047 279.285,249.7366 279.7352,249.6238 280.1723,249.4675 280.5919,249.269 280.99,249.0304 281.3629,248.7538 281.7068,248.4421 282.0185,248.0982 282.295,247.7254 282.5337,247.3272 282.7321,246.9076 282.8885,246.4706 283.0013,246.0203 283.0694,245.5611 283.0922,245.0975 283.0694,244.6339 283.0013,244.1748 282.8885,243.7245 282.7321,243.2874 282.5337,242.8678 282.295,242.4697 282.0185,242.0969 281.7068,241.7529 281.3629,241.4412 280.99,241.1647 280.5919,240.9261 280.1723,240.7276 279.7352,240.5712 279.285,240.4584 278.8258,240.3903 278.3622,240.3676 277.8986,240.3903 277.4394,240.4584"/>
    <polygon points="304.9722,260.818 305.2108,260.4199 305.4093,260.0003 305.5657,259.5632 305.6785,259.113 305.7466,258.6538 305.7693,258.1902 305.7466,257.7266 305.6785,257.2674 305.5657,256.8172 305.4093,256.3801 305.2108,255.9605 304.9722,255.5624 304.6957,255.1895 304.384,254.8456 304.04,254.5339 303.6672,254.2574 303.2691,254.0187 302.8495,253.8203 302.4124,253.6639 301.9621,253.5511 301.503,253.483 301.0394,253.4602 300.5758,253.483 300.1166,253.5511 299.6663,253.6639 299.2293,253.8203 298.8097,254.0187 298.4115,254.2574 298.0387,254.5339 297.6948,254.8456 297.3831,255.1895 297.1065,255.5624 296.8679,255.9605 296.6694,256.3801 296.5131,256.8172 296.4003,257.2674 296.3322,257.7266 296.3094,258.1902 296.3322,258.6538 296.4003,259.113 296.5131,259.5632 296.6694,260.0003 296.8679,260.4199 297.1065,260.818 297.3831,261.1909 297.6948,261.5348 298.0387,261.8465 298.4115,262.123 298.8097,262.3617 299.2293,262.5601 299.6663,262.7165 300.1166,262.8293 300.5758,262.8974 301.0394,262.9202 301.503,262.8974 301.9621,262.8293 302.4124,262.7165 302.8495,262.5601 303.2691,262.3617 303.6672,262.123 304.04,261.8465 304.384,261.5348 304.6957,261.1909"/>
    <polygon points="302.4124,266.7566 301.9621,266.6438 301.503,266.5757 301.0394,266.5529 300.5758,266.5757 300.1166,266.6438 299.6663,266.7566 299.2293,266.9129 298.8097,267.1114 298.4115,267.35 298.0387,267.6265 297.6948,267.9383 297.3831,268.2822 297.1065,268.655 296.8679,269.0532 296.6694,269.4728 296.5131,269.9098 296.4003,270.3601 296.3322,270.8192 296.3094,271.2829 296.3322,271.7465 296.4003,272.2056 296.5131,272.6559 296.6694,273.0929 296.8679,273.5126 297.1065,273.9107 297.3831,274.2835 297.6948,274.6275 298.0387,274.9392 298.4115,275.2157 298.8097,275.4543 299.2293,275.6528 299.6663,275.8092 300.1166,275.9219 300.5758,275.9901 301.0394,276.0128 301.503,275.9901 301.9621,275.9219 302.4124,275.8092 302.8495,275.6528 303.2691,275.4543 303.6672,275.2157 304.04,274.9392 304.384,274.6275 304.6957,274.2835 304.9722,273.9107 305.2108,273.5126 305.4093,273.0929 305.5657,272.6559 305.6785,272.2056 305.7466,271.7465 305.7693,271.2829 305.7466,270.8192 305.6785,270.3601 305.5657,269.9098 305.4093,269.4728 305.2108,269.0532 304.9722,268.655 304.6957,268.2822 304.384,267.9383 304.04,267.6265 303.6672,267.35 303.2691,267.1114 302.8495,266.9129"/>
    <polygon points="290.8584,283.7682 290.1153,282.9483 289.2953,282.2052 288.4065,281.546 287.4573,280.977 286.457,280.5039 285.4151,280.1311 284.3416,279.8622 283.247,279.6999 282.1417,279.6456 281.0365,279.6999 279.9418,279.8622 278.8684,280.1311 277.8265,280.5039 276.8261,280.977 275.877,281.546 274.9881,282.2052 274.1682,282.9483 273.425,283.7682 272.7658,284.6571 272.1969,285.6062 271.7238,286.6066 271.351,287.6485 271.0821,288.722 270.9197,289.8166 270.8654,290.9219 270.9197,292.0271 271.0821,293.1218 271.351,294.1952 271.7238,295.2371 272.1969,296.2375 272.7658,297.1866 273.425,298.0755 274.1682,298.8954 274.9881,299.6386 275.877,300.2978 276.8261,300.8667 277.8265,301.3398 278.8684,301.7126 279.9418,301.9815 281.0365,302.1439 282.1417,302.1982 283.247,302.1439 284.3416,301.9815 285.4151,301.7126 286.457,301.3398 287.4573,300.8667 288.4065,300.2978 289.2953,299.6386 290.1153,298.8954 290.8584,298.0755 291.5176,297.1866 292.0865,296.2375 292.5597,295.2371 292.9325,294.1952 293.2014,293.1218 293.3637,292.0271 293.418,290.9219 293.3637,289.8166 293.2014,288.722 292.9325,287.6485 292.5597,286.6066 292.0865,285.6062 291.5176,284.6571"/>
    <polygon points="299.2293,301.8381 299.6663,301.9945 300.1166,302.1073 300.5758,302.1754 301.0394,302.1982 301.503,302.1754 301.9621,302.1073 302.4124,301.9945 302.8495,301.8381 303.2691,301.6397 303.6672,301.401 304.04,301.1245 304.384,300.8128 304.6957,300.4689 304.9722,300.096 305.2108,299.6979 305.4093,299.2783 305.5657,298.8412 305.6785,298.391 305.7466,297.9318 305.7693,297.4682 305.7466,297.0046 305.6785,296.5454 305.5657,296.0952 305.4093,295.6581 305.2108,295.2385 304.9722,294.8404 304.6957,294.4675 304.384,294.1236 304.04,293.8119 303.6672,293.5354 303.2691,293.2967 302.8495,293.0983 302.4124,292.9419 301.9621,292.8291 301.503,292.761 301.0394,292.7382 300.5758,292.761 300.1166,292.8291 299.6663,292.9419 299.2293,293.0983 298.8097,293.2967 298.4115,293.5354 298.0387,293.8119 297.6948,294.1236 297.3831,294.4675 297.1065,294.8404 296.8679,295.2385 296.6694,295.6581 296.5131,296.0952 296.4003,296.5454 296.3322,297.0046 296.3094,297.4682 296.3322,297.9318 296.4003,298.391 296.5131,298.8412 296.6694,299.2783 296.8679,299.6979 297.1065,300.096 297.3831,300.4689 297.6948,300.8128 298.0387,301.1245 298.4115,301.401 298.8097,301.6397"/>
    <polygon points="304.384,307.2163 304.04,306.9045 303.6672,306.628 303.2691,306.3894 302.8495,306.1909 302.4124,306.0346 301.9621,305.9218 301.503,305.8537 301.0394,305.8309 300.5758,305.8537 300.1166,305.9218 299.6663,306.0346 299.2293,306.1909 298.8097,306.3894 298.4115,306.628 298.0387,306.9045 297.6948,307.2163 297.3831,307.5602 297.1065,307.933 296.8679,308.3312 296.6694,308.7508 296.5131,309.1878 296.4003,309.6381 296.3322,310.0972 296.3094,310.5609 296.3322,311.0245 296.4003,311.4836 296.5131,311.9339 296.6694,312.3709 296.8679,312.7906 297.1065,313.1887 297.3831,313.5615 297.6948,313.9055 298.0387,314.2172 298.4115,314.4937 298.8097,314.7323 299.2293,314.9308 299.6663,315.0872 300.1166,315.2 300.5758,315.2681 301.0394,315.2908 301.503,315.2681 301.9621,315.2 302.4124,315.0872 302.8495,314.9308 303.2691,314.7323 303.6672,314.4937 304.04,314.2172 304.384,313.9055 304.6957,313.5615 304.9722,313.1887 305.2108,312.7906 305.4093,312.3709 305.5657,311.9339 305.6785,311.4836 305.7466,311.0245 305.7693,310.5609 305.7466,310.0972 305.6785,309.6381 305.5657,309.1878 305.4093,308.7508 305.2108,308.3312 304.9722,307.933 304.6957,307.5602"/>
    <polygon points="250.9778,323.1899 250.9551,323.6535 250.9778,324.1172 251.046,324.5763 251.1587,325.0266 251.3151,325.4636 251.5136,325.8832 251.7522,326.2814 252.0287,326.6542 252.3404,326.9981 252.6844,327.3098 253.0572,327.5864 253.4553,327.825 253.875,328.0235 254.312,328.1798 254.7623,328.2926 255.2214,328.3607 255.685,328.3835 256.1487,328.3607 256.6078,328.2926 257.0581,328.1798 257.4951,328.0235 257.9147,327.825 258.3129,327.5864 258.6857,327.3098 259.0296,326.9981 259.3414,326.6542 259.6179,326.2814 259.8565,325.8832 260.055,325.4636 260.2113,325.0266 260.3241,324.5763 260.3922,324.1172 260.415,323.6535 260.3922,323.1899 260.3241,322.7308 260.2113,322.2805 260.055,321.8434 259.8565,321.4238 259.6179,321.0257 259.3414,320.6529 259.0296,320.3089 258.6857,319.9972 258.3129,319.7207 257.9147,319.4821 257.4951,319.2836 257.0581,319.1272 256.6078,319.0144 256.1487,318.9463 255.685,318.9236 255.2214,318.9463 254.7623,319.0144 254.312,319.1272 253.875,319.2836 253.4553,319.4821 253.0572,319.7207 252.6844,319.9972 252.3404,320.3089 252.0287,320.6529 251.7522,321.0257 251.5136,321.4238 251.3151,321.8434 251.1587,322.2805 251.046,322.7308"/>
    <polygon points="235.6821,328.3292 236.7874,328.3835 237.8927,328.3292 238.9873,328.1668 240.0607,327.898 241.1027,327.5251 242.103,327.052 243.0522,326.4831 243.941,325.8239 244.761,325.0808 245.5041,324.2608 246.1633,323.372 246.7322,322.4228 247.2054,321.4225 247.5782,320.3805 247.847,319.3071 248.0094,318.2125 248.0637,317.1072 248.0094,316.0019 247.847,314.9073 247.5782,313.8339 247.2054,312.7919 246.7322,311.7916 246.1633,310.8424 245.5041,309.9536 244.761,309.1336 243.941,308.3905 243.0522,307.7313 242.103,307.1624 241.1027,306.6892 240.0607,306.3164 238.9873,306.0476 237.8927,305.8852 236.7874,305.8309 235.6821,305.8852 234.5875,306.0476 233.5141,306.3164 232.4721,306.6892 231.4718,307.1624 230.5226,307.7313 229.6338,308.3905 228.8138,309.1336 228.0707,309.9536 227.4115,310.8424 226.8426,311.7916 226.3695,312.7919 225.9966,313.8339 225.7278,314.9073 225.5654,316.0019 225.5111,317.1072 225.5654,318.2125 225.7278,319.3071 225.9966,320.3805 226.3695,321.4225 226.8426,322.4228 227.4115,323.372 228.0707,324.2608 228.8138,325.0808 229.6338,325.8239 230.5226,326.4831 231.4718,327.052 232.4721,327.5251 233.5141,327.898 234.5875,328.1668"/>
    <polygon points="234.818,332.3763 234.3809,332.2199 233.9306,332.1071 233.4715,332.039 233.0079,332.0162 232.5443,332.039 232.0851,332.1071 231.6348,332.2199 231.1978,332.3763 230.7782,332.5747 230.38,332.8134 230.0072,333.0899 229.6633,333.4016 229.3516,333.7455 229.075,334.1184 228.8364,334.5165 228.6379,334.9361 228.4816,335.3732 228.3688,335.8234 228.3007,336.2826 228.2779,336.7462 228.3007,337.2098 228.3688,337.669 228.4816,338.1192 228.6379,338.5563 228.8364,338.9759 229.075,339.374 229.3516,339.7469 229.6633,340.0908 230.0072,340.4025 230.38,340.679 230.7782,340.9177 231.1978,341.1161 231.6348,341.2725 232.0851,341.3853 232.5443,341.4534 233.0079,341.4762 233.4715,341.4534 233.9306,341.3853 234.3809,341.2725 234.818,341.1161 235.2376,340.9177 235.6357,340.679 236.0085,340.4025 236.3525,340.0908 236.6642,339.7469 236.9407,339.374 237.1793,338.9759 237.3778,338.5563 237.5342,338.1192 237.647,337.669 237.7151,337.2098 237.7378,336.7462 237.7151,336.2826 237.647,335.8234 237.5342,335.3732 237.3778,334.9361 237.1793,334.5165 236.9407,334.1184 236.6642,333.7455 236.3525,333.4016 236.0085,333.0899 235.6357,332.8134 235.2376,332.5747"/>
    <polygon points="225.6021,345.9204 225.8408,345.5222 226.0392,345.1026 226.1956,344.6656 226.3084,344.2153 226.3765,343.7562 226.3993,343.2925 226.3765,342.8289 226.3084,342.3698 226.1956,341.9195 226.0392,341.4825 225.8408,341.0628 225.6021,340.6647 225.3256,340.2919 225.0139,339.9479 224.67,339.6362 224.2971,339.3597 223.899,339.1211 223.4794,338.9226 223.0423,338.7662 222.5921,338.6534 222.1329,338.5853 221.6693,338.5626 221.2057,338.5853 220.7465,338.6534 220.2963,338.7662 219.8592,338.9226 219.4396,339.1211 219.0415,339.3597 218.6686,339.6362 218.3247,339.9479 218.013,340.2919 217.7365,340.6647 217.4978,341.0628 217.2994,341.4825 217.143,341.9195 217.0302,342.3698 216.9621,342.8289 216.9393,343.2925 216.9621,343.7562 217.0302,344.2153 217.143,344.6656 217.2994,345.1026 217.4978,345.5222 217.7365,345.9204 218.013,346.2932 218.3247,346.6371 218.6686,346.9489 219.0415,347.2254 219.4396,347.464 219.8592,347.6625 220.2963,347.8188 220.7465,347.9316 221.2057,347.9997 221.6693,348.0225 222.1329,347.9997 222.5921,347.9316 223.0423,347.8188 223.4794,347.6625 223.899,347.464 224.2971,347.2254 224.67,346.9489 225.0139,346.6371 225.3256,346.2932"/>
    <polygon points="213.6753,346.4943 213.3314,346.1825 212.9585,345.906 212.5604,345.6674 212.1408,345.4689 211.7037,345.3126 211.2535,345.1998 210.7943,345.1317 210.3307,345.1089 209.8671,345.1317 209.4079,345.1998 208.9577,345.3126 208.5206,345.4689 208.101,345.6674 207.7029,345.906 207.33,346.1825 206.9861,346.4943 206.6744,346.8382 206.3979,347.211 206.1592,347.6092 205.9608,348.0288 205.8044,348.4658 205.6916,348.9161 205.6235,349.3752 205.6007,349.8389 205.6235,350.3025 205.6916,350.7616 205.8044,351.2119 205.9608,351.6489 206.1592,352.0686 206.3979,352.4667 206.6744,352.8395 206.9861,353.1835 207.33,353.4952 207.7029,353.7717 208.101,354.0103 208.5206,354.2088 208.9577,354.3652 209.4079,354.478 209.8671,354.5461 210.3307,354.5688 210.7943,354.5461 211.2535,354.478 211.7037,354.3652 212.1408,354.2088 212.5604,354.0103 212.9585,353.7717 213.3314,353.4952 213.6753,353.1835 213.987,352.8395 214.2635,352.4667 214.5022,352.0686 214.7006,351.6489 214.857,351.2119 214.9698,350.7616 215.0379,350.3025 215.0607,349.8389 215.0379,349.3752 214.9698,348.9161 214.857,348.4658 214.7006,348.0288 214.5022,347.6092 214.2635,347.211 213.987,346.8382"/>
    <polygon points="201.851,347.6078 202.2238,346.5659 202.4927,345.4924 202.6551,344.3978 202.7094,343.2925 202.6551,342.1873 202.4927,341.0926 202.2238,340.0192 201.851,338.9773 201.3779,337.9769 200.809,337.0278 200.1498,336.1389 199.4066,335.319 198.5867,334.5758 197.6979,333.9166 196.7487,333.3477 195.7483,332.8746 194.7064,332.5018 193.633,332.2329 192.5383,332.0705 191.4331,332.0162 190.3278,332.0705 189.2332,332.2329 188.1597,332.5018 187.1178,332.8746 186.1175,333.3477 185.1683,333.9166 184.2795,334.5758 183.4595,335.319 182.7164,336.1389 182.0572,337.0278 181.4883,337.9769 181.0151,338.9773 180.6423,340.0192 180.3734,341.0926 180.2111,342.1873 180.1568,343.2925 180.2111,344.3978 180.3734,345.4924 180.6423,346.5659 181.0151,347.6078 181.4883,348.6081 182.0572,349.5573 182.7164,350.4461 183.4595,351.2661 184.2795,352.0092 185.1683,352.6684 186.1175,353.2373 187.1178,353.7105 188.1597,354.0833 189.2332,354.3522 190.3278,354.5145 191.4331,354.5688 192.5383,354.5145 193.633,354.3522 194.7064,354.0833 195.7483,353.7105 196.7487,353.2373 197.6979,352.6684 198.5867,352.0092 199.4066,351.2661 200.1498,350.4461 200.809,349.5573 201.3779,348.6081"/>
    <polygon points="192.0235,374.2141 192.1798,374.6512 192.2926,375.1014 192.3607,375.5606 192.3835,376.0242 192.3607,376.4878 192.2926,376.947 192.1798,377.3972 192.0235,377.8343 191.825,378.2539 191.5864,378.652 191.3099,379.0249 190.9981,379.3688 190.6542,379.6805 190.2814,379.957 189.8832,380.1957 189.4636,380.3941 189.0266,380.5505 188.5763,380.6633 188.1172,380.7314 187.6535,380.7542 187.1899,380.7314 186.7308,380.6633 186.2805,380.5505 185.8435,380.3941 185.4238,380.1957 185.0257,379.957 184.6529,379.6805 184.3089,379.3688 183.9972,379.0249 183.7207,378.652 183.4821,378.2539 183.2836,377.8343 183.1272,377.3972 183.0145,376.947 182.9463,376.4878 182.9236,376.0242 182.9463,375.5606 183.0145,375.1014 183.1272,374.6512 183.2836,374.2141 183.4821,373.7945 183.7207,373.3964 183.9972,373.0235 184.3089,372.6796 184.6529,372.3679 185.0257,372.0914 185.4238,371.8527 185.8435,371.6543 186.2805,371.4979 186.7308,371.3851 187.1899,371.317 187.6535,371.2942 188.1172,371.317 188.5763,371.3851 189.0266,371.4979 189.4636,371.6543 189.8832,371.8527 190.2814,372.0914 190.6542,372.3679 190.9981,372.6796 191.3099,373.0235 191.5864,373.3964 191.825,373.7945"/>
    <polygon points="173.3143,386.2269 172.9704,385.9151 172.6586,385.5712 172.3821,385.1984 172.1435,384.8002 171.945,384.3806 171.7887,383.9436 171.6759,383.4933 171.6078,383.0342 171.585,382.5705 171.6078,382.1069 171.6759,381.6478 171.7887,381.1975 171.945,380.7605 172.1435,380.3408 172.3821,379.9427 172.6586,379.5699 172.9704,379.2259 173.3143,378.9142 173.6871,378.6377 174.0853,378.3991 174.5049,378.2006 174.9419,378.0442 175.3922,377.9314 175.8513,377.8633 176.315,377.8406 176.7786,377.8633 177.2377,377.9314 177.688,378.0442 178.125,378.2006 178.5447,378.3991 178.9428,378.6377 179.3156,378.9142 179.6596,379.2259 179.9713,379.5699 180.2478,379.9427 180.4864,380.3408 180.6849,380.7605 180.8413,381.1975 180.954,381.6478 181.0222,382.1069 181.0449,382.5705 181.0222,383.0342 180.954,383.4933 180.8413,383.9436 180.6849,384.3806 180.4864,384.8002 180.2478,385.1984 179.9713,385.5712 179.6596,385.9151 179.3156,386.2269 178.9428,386.5034 178.5447,386.742 178.125,386.9405 177.688,387.0968 177.2377,387.2096 176.7786,387.2777 176.315,387.3005 175.8513,387.2777 175.3922,387.2096 174.9419,387.0968 174.5049,386.9405 174.0853,386.742 173.6871,386.5034"/>
    <polygon points="162.3485,372.0914 162.7467,371.8527 163.1663,371.6543 163.6033,371.4979 164.0536,371.3851 164.5128,371.317 164.9764,371.2942 165.44,371.317 165.8991,371.3851 166.3494,371.4979 166.7865,371.6543 167.2061,371.8527 167.6042,372.0914 167.977,372.3679 168.321,372.6796 168.6327,373.0235 168.9092,373.3964 169.1478,373.7945 169.3463,374.2141 169.5027,374.6512 169.6155,375.1014 169.6836,375.5606 169.7064,376.0242 169.6836,376.4878 169.6155,376.947 169.5027,377.3972 169.3463,377.8343 169.1478,378.2539 168.9092,378.652 168.6327,379.0249 168.321,379.3688 167.977,379.6805 167.6042,379.957 167.2061,380.1957 166.7865,380.3941 166.3494,380.5505 165.8991,380.6633 165.44,380.7314 164.9764,380.7542 164.5128,380.7314 164.0536,380.6633 163.6033,380.5505 163.1663,380.3941 162.7467,380.1957 162.3485,379.957 161.9757,379.6805 161.6318,379.3688 161.3201,379.0249 161.0435,378.652 160.8049,378.2539 160.6065,377.8343 160.4501,377.3972 160.3373,376.947 160.2692,376.4878 160.2464,376.0242 160.2692,375.5606 160.3373,375.1014 160.4501,374.6512 160.6065,374.2141 160.8049,373.7945 161.0435,373.3964 161.3201,373.0235 161.6318,372.6796 161.9757,372.3679"/>
    <polygon points="172.1435,367.2482 172.3821,366.85 172.6586,366.4772 172.9704,366.1333 173.3143,365.8215 173.6871,365.545 174.0853,365.3064 174.5049,365.1079 174.9419,364.9516 175.3922,364.8388 175.8513,364.7707 176.315,364.7479 176.7786,364.7707 177.2377,364.8388 177.688,364.9516 178.125,365.1079 178.5447,365.3064 178.9428,365.545 179.3156,365.8215 179.6596,366.1333 179.9713,366.4772 180.2478,366.85 180.4864,367.2482 180.6849,367.6678 180.8413,368.1048 180.954,368.5551 181.0222,369.0142 181.0449,369.4779 181.0222,369.9415 180.954,370.4006 180.8413,370.8509 180.6849,371.288 180.4864,371.7076 180.2478,372.1057 179.9713,372.4785 179.6596,372.8225 179.3156,373.1342 178.9428,373.4107 178.5447,373.6493 178.125,373.8478 177.688,374.0042 177.2377,374.117 176.7786,374.1851 176.315,374.2078 175.8513,374.1851 175.3922,374.117 174.9419,374.0042 174.5049,373.8478 174.0853,373.6493 173.6871,373.4107 173.3143,373.1342 172.9704,372.8225 172.6586,372.4785 172.3821,372.1057 172.1435,371.7076 171.945,371.288 171.7887,370.8509 171.6759,370.4006 171.6078,369.9415 171.585,369.4779 171.6078,369.0142 171.6759,368.5551 171.7887,368.1048 171.945,367.6678"/>
    <polygon points="183.0145,362.0088 183.1272,361.5585 183.2836,361.1215 183.4821,360.7018 183.7207,360.3037 183.9972,359.9309 184.3089,359.5869 184.6529,359.2752 185.0257,358.9987 185.4238,358.7601 185.8435,358.5616 186.2805,358.4052 186.7308,358.2924 187.1899,358.2243 187.6535,358.2016 188.1172,358.2243 188.5763,358.2924 189.0266,358.4052 189.4636,358.5616 189.8832,358.7601 190.2814,358.9987 190.6542,359.2752 190.9981,359.5869 191.3099,359.9309 191.5864,360.3037 191.825,360.7018 192.0235,361.1215 192.1798,361.5585 192.2926,362.0088 192.3607,362.4679 192.3835,362.9315 192.3607,363.3952 192.2926,363.8543 192.1798,364.3046 192.0235,364.7416 191.825,365.1612 191.5864,365.5594 191.3099,365.9322 190.9981,366.2761 190.6542,366.5879 190.2814,366.8644 189.8832,367.103 189.4636,367.3015 189.0266,367.4578 188.5763,367.5706 188.1172,367.6387 187.6535,367.6615 187.1899,367.6387 186.7308,367.5706 186.2805,367.4578 185.8435,367.3015 185.4238,367.103 185.0257,366.8644 184.6529,366.5879 184.3089,366.2761 183.9972,365.9322 183.7207,365.5594 183.4821,365.1612 183.2836,364.7416 183.1272,364.3046 183.0145,363.8543 182.9463,363.3952 182.9236,362.9315 182.9463,362.4679"/>
    <polygon points="180.8413,355.0122 180.954,355.4624 181.0222,355.9216 181.0449,356.3852 181.0222,356.8488 180.954,357.308 180.8413,357.7582 180.6849,358.1953 180.4864,358.6149 180.2478,359.013 179.9713,359.3859 179.6596,359.7298 179.3156,360.0415 178.9428,360.318 178.5447,360.5567 178.125,360.7551 177.688,360.9115 177.2377,361.0243 176.7786,361.0924 176.315,361.1152 175.8513,361.0924 175.3922,361.0243 174.9419,360.9115 174.5049,360.7551 174.0853,360.5567 173.6871,360.318 173.3143,360.0415 172.9704,359.7298 172.6586,359.3859 172.3821,359.013 172.1435,358.6149 171.945,358.1953 171.7887,357.7582 171.6759,357.308 171.6078,356.8488 171.585,356.3852 171.6078,355.9216 171.6759,355.4624 171.7887,355.0122 171.945,354.5751 172.1435,354.1555 172.3821,353.7574 172.6586,353.3845 172.9704,353.0406 173.3143,352.7289 173.6871,352.4524 174.0853,352.2137 174.5049,352.0153 174.9419,351.8589 175.3922,351.7461 175.8513,351.678 176.315,351.6552 176.7786,351.678 177.2377,351.7461 177.688,351.8589 178.125,352.0153 178.5447,352.2137 178.9428,352.4524 179.3156,352.7289 179.6596,353.0406 179.9713,353.3845 180.2478,353.7574 180.4864,354.1555 180.6849,354.5751"/>
    <polygon points="170.9558,341.2595 172.0292,340.9906 173.0712,340.6178 174.0715,340.1447 175.0207,339.5758 175.9095,338.9166 176.7295,338.1734 177.4726,337.3535 178.1318,336.4646 178.7007,335.5155 179.1739,334.5151 179.5467,333.4732 179.8155,332.3998 179.9779,331.3051 180.0322,330.1999 179.9779,329.0946 179.8155,328.0 179.5467,326.9265 179.1739,325.8846 178.7007,324.8843 178.1318,323.9351 177.4726,323.0463 176.7295,322.2263 175.9095,321.4832 175.0207,320.824 174.0715,320.2551 173.0712,319.7819 172.0292,319.4091 170.9558,319.1402 169.8612,318.9779 168.7559,318.9236 167.6506,318.9779 166.556,319.1402 165.4826,319.4091 164.4406,319.7819 163.4403,320.2551 162.4911,320.824 161.6023,321.4832 160.7824,322.2263 160.0392,323.0463 159.38,323.9351 158.8111,324.8843 158.338,325.8846 157.9652,326.9265 157.6963,328.0 157.5339,329.0946 157.4796,330.1999 157.5339,331.3051 157.6963,332.3998 157.9652,333.4732 158.338,334.5151 158.8111,335.5155 159.38,336.4646 160.0392,337.3535 160.7824,338.1734 161.6023,338.9166 162.4911,339.5758 163.4403,340.1447 164.4406,340.6178 165.4826,340.9906 166.556,341.2595 167.6506,341.4219 168.7559,341.4762 169.8612,341.4219"/>
    <polygon points="162.7467,345.6674 162.3485,345.906 161.9757,346.1825 161.6318,346.4943 161.3201,346.8382 161.0435,347.211 160.8049,347.6092 160.6065,348.0288 160.4501,348.4658 160.3373,348.9161 160.2692,349.3752 160.2464,349.8389 160.2692,350.3025 160.3373,350.7616 160.4501,351.2119 160.6065,351.6489 160.8049,352.0686 161.0435,352.4667 161.3201,352.8395 161.6318,353.1835 161.9757,353.4952 162.3485,353.7717 162.7467,354.0103 163.1663,354.2088 163.6033,354.3652 164.0536,354.478 164.5128,354.5461 164.9764,354.5688 165.44,354.5461 165.8991,354.478 166.3494,354.3652 166.7865,354.2088 167.2061,354.0103 167.6042,353.7717 167.977,353.4952 168.321,353.1835 168.6327,352.8395 168.9092,352.4667 169.1478,352.0686 169.3463,351.6489 169.5027,351.2119 169.6155,350.7616 169.6836,350.3025 169.7064,349.8389 169.6836,349.3752 169.6155,348.9161 169.5027,348.4658 169.3463,348.0288 169.1478,347.6092 168.9092,347.211 168.6327,346.8382 168.321,346.4943 167.977,346.1825 167.6042,345.906 167.2061,345.6674 166.7865,345.4689 166.3494,345.3126 165.8991,345.1998 165.44,345.1317 164.9764,345.1089 164.5128,345.1317 164.0536,345.1998 163.6033,345.3126 163.1663,345.4689"/>
    <polygon points="135.3306,332.0099 135.4869,331.5729 135.5997,331.1226 135.6678,330.6635 135.6906,330.1999 135.6678,329.7362 135.5997,329.2771 135.4869,328.8268 135.3306,328.3898 135.1321,327.9702 134.8935,327.572 134.6169,327.1992 134.3052,326.8553 133.9613,326.5435 133.5885,326.267 133.1903,326.0284 132.7707,325.8299 132.3337,325.6736 131.8834,325.5608 131.4242,325.4927 130.9606,325.4699 130.497,325.4927 130.0379,325.5608 129.5876,325.6736 129.1505,325.8299 128.7309,326.0284 128.3328,326.267 127.96,326.5435 127.616,326.8553 127.3043,327.1992 127.0278,327.572 126.7892,327.9702 126.5907,328.3898 126.4343,328.8268 126.3215,329.2771 126.2534,329.7362 126.2307,330.1999 126.2534,330.6635 126.3215,331.1226 126.4343,331.5729 126.5907,332.0099 126.7892,332.4296 127.0278,332.8277 127.3043,333.2005 127.616,333.5445 127.96,333.8562 128.3328,334.1327 128.7309,334.3713 129.1505,334.5698 129.5876,334.7262 130.0379,334.839 130.497,334.9071 130.9606,334.9298 131.4242,334.9071 131.8834,334.839 132.3337,334.7262 132.7707,334.5698 133.1903,334.3713 133.5885,334.1327 133.9613,333.8562 134.3052,333.5445 134.6169,333.2005 134.8935,332.8277 135.1321,332.4296"/>
    <polygon points="141.8356,318.9463 141.3764,319.0144 140.9262,319.1272 140.4891,319.2836 140.0695,319.4821 139.6714,319.7207 139.2985,319.9972 138.9546,320.3089 138.6429,320.6529 138.3664,321.0257 138.1277,321.4238 137.9293,321.8434 137.7729,322.2805 137.6601,322.7308 137.592,323.1899 137.5692,323.6535 137.592,324.1172 137.6601,324.5763 137.7729,325.0266 137.9293,325.4636 138.1277,325.8832 138.3664,326.2814 138.6429,326.6542 138.9546,326.9981 139.2985,327.3098 139.6714,327.5864 140.0695,327.825 140.4891,328.0235 140.9262,328.1798 141.3764,328.2926 141.8356,328.3607 142.2992,328.3835 142.7628,328.3607 143.222,328.2926 143.6723,328.1798 144.1093,328.0235 144.5289,327.825 144.927,327.5864 145.2999,327.3098 145.6438,326.9981 145.9555,326.6542 146.232,326.2814 146.4707,325.8832 146.6691,325.4636 146.8255,325.0266 146.9383,324.5763 147.0064,324.1172 147.0292,323.6535 147.0064,323.1899 146.9383,322.7308 146.8255,322.2805 146.6691,321.8434 146.4707,321.4238 146.232,321.0257 145.9555,320.6529 145.6438,320.3089 145.2999,319.9972 144.927,319.7207 144.5289,319.4821 144.1093,319.2836 143.6723,319.1272 143.222,319.0144 142.7628,318.9463 142.2992,318.9236"/>
    <polygon points="148.9987,316.1844 148.9306,316.6436 148.9078,317.1072 148.9306,317.5708 148.9987,318.03 149.1115,318.4802 149.2679,318.9173 149.4663,319.3369 149.705,319.735 149.9815,320.1079 150.2932,320.4518 150.6371,320.7635 151.01,321.04 151.4081,321.2787 151.8277,321.4771 152.2648,321.6335 152.715,321.7463 153.1742,321.8144 153.6378,321.8372 154.1014,321.8144 154.5606,321.7463 155.0108,321.6335 155.4479,321.4771 155.8675,321.2787 156.2656,321.04 156.6385,320.7635 156.9824,320.4518 157.2941,320.1079 157.5706,319.735 157.8093,319.3369 158.0077,318.9173 158.1641,318.4802 158.2769,318.03 158.345,317.5708 158.3678,317.1072 158.345,316.6436 158.2769,316.1844 158.1641,315.7342 158.0077,315.2971 157.8093,314.8775 157.5706,314.4794 157.2941,314.1065 156.9824,313.7626 156.6385,313.4509 156.2656,313.1744 155.8675,312.9357 155.4479,312.7373 155.0108,312.5809 154.5606,312.4681 154.1014,312.4 153.6378,312.3772 153.1742,312.4 152.715,312.4681 152.2648,312.5809 151.8277,312.7373 151.4081,312.9357 151.01,313.1744 150.6371,313.4509 150.2932,313.7626 149.9815,314.1065 149.705,314.4794 149.4663,314.8775 149.2679,315.2971 149.1115,315.7342"/>
    <polygon points="218.6686,326.5435 219.0415,326.267 219.4396,326.0284 219.8592,325.8299 220.2963,325.6736 220.7465,325.5608 221.2057,325.4927 221.6693,325.4699 222.1329,325.4927 222.5921,325.5608 223.0423,325.6736 223.4794,325.8299 223.899,326.0284 224.2971,326.267 224.67,326.5435 225.0139,326.8553 225.3256,327.1992 225.6021,327.572 225.8408,327.9702 226.0392,328.3898 226.1956,328.8268 226.3084,329.2771 226.3765,329.7362 226.3993,330.1999 226.3765,330.6635 226.3084,331.1226 226.1956,331.5729 226.0392,332.0099 225.8408,332.4296 225.6021,332.8277 225.3256,333.2005 225.0139,333.5445 224.67,333.8562 224.2971,334.1327 223.899,334.3713 223.4794,334.5698 223.0423,334.7262 222.5921,334.839 222.1329,334.9071 221.6693,334.9298 221.2057,334.9071 220.7465,334.839 220.2963,334.7262 219.8592,334.5698 219.4396,334.3713 219.0415,334.1327 218.6686,333.8562 218.3247,333.5445 218.013,333.2005 217.7365,332.8277 217.4978,332.4296 217.2994,332.0099 217.143,331.5729 217.0302,331.1226 216.9621,330.6635 216.9393,330.1999 216.9621,329.7362 217.0302,329.2771 217.143,328.8268 217.2994,328.3898 217.4978,327.9702 217.7365,327.572 218.013,327.1992 218.3247,326.8553"/>
    <polygon points="222.3118,296.9406 222.8929,299.2604 223.2438,301.626 223.3611,304.0145 223.2438,306.4031 222.8929,308.7687 222.3118,311.0885 221.5061,313.3401 220.4836,315.502 219.2542,317.5532 217.8296,319.474 216.2236,321.246 214.4516,322.852 212.5308,324.2766 210.4796,325.506 208.3177,326.5285 206.0661,327.3342 203.7463,327.9153 201.3807,328.2662 198.9921,328.3835 196.6035,328.2662 194.238,327.9153 191.9182,327.3342 189.6665,326.5285 187.5047,325.506 185.4534,324.2766 183.5326,322.852 181.7607,321.246 180.1547,319.474 178.7301,317.5532 177.5006,315.502 176.4781,313.3401 175.6725,311.0885 175.0914,308.7687 174.7405,306.4031 174.6232,304.0145 174.7405,301.626 175.0914,299.2604 175.6725,296.9406 176.4781,294.6889 177.5006,292.5271 178.7301,290.4759 180.1547,288.555 181.7607,286.7831 183.5326,285.1771 185.4534,283.7525 187.5047,282.523 189.6665,281.5005 191.9182,280.6949 194.238,280.1138 196.6035,279.7629 198.9921,279.6456 201.3807,279.7629 203.7463,280.1138 206.0661,280.6949 208.3177,281.5005 210.4796,282.523 212.5308,283.7525 214.4516,285.1771 216.2236,286.7831 217.8296,288.555 219.2542,290.4759 220.4836,292.5271 221.5061,294.6889"/>
    <polygon points="224.5282,255.9591 224.0551,256.9595 223.4861,257.9086 222.8269,258.7975 222.0838,259.6174 221.2638,260.3606 220.375,261.0198 219.4259,261.5887 218.4255,262.0618 217.3836,262.4346 216.3101,262.7035 215.2155,262.8659 214.1102,262.9202 213.005,262.8659 211.9103,262.7035 210.8369,262.4346 209.795,262.0618 208.7946,261.5887 207.8455,261.0198 206.9566,260.3606 206.1367,259.6174 205.3935,258.7975 204.7343,257.9086 204.1654,256.9595 203.6923,255.9591 203.3195,254.9172 203.0506,253.8438 202.8882,252.7491 202.8339,251.6439 202.8882,250.5386 203.0506,249.444 203.3195,248.3705 203.6923,247.3286 204.1654,246.3282 204.7343,245.3791 205.3935,244.4902 206.1367,243.6703 206.9566,242.9272 207.8455,242.268 208.7946,241.699 209.795,241.2259 210.8369,240.8531 211.9103,240.5842 213.005,240.4219 214.1102,240.3676 215.2155,240.4219 216.3101,240.5842 217.3836,240.8531 218.4255,241.2259 219.4259,241.699 220.375,242.268 221.2638,242.9272 222.0838,243.6703 222.8269,244.4902 223.4861,245.3791 224.0551,246.3282 224.5282,247.3286 224.901,248.3705 225.1699,249.444 225.3322,250.5386 225.3865,251.6439 225.3322,252.7491 225.1699,253.8438 224.901,254.9172"/>
    <polygon points="205.6235,232.4685 205.6007,232.0049 205.6235,231.5412 205.6916,231.0821 205.8044,230.6318 205.9608,230.1948 206.1592,229.7752 206.3979,229.377 206.6744,229.0042 206.9861,228.6603 207.33,228.3485 207.7029,228.072 208.101,227.8334 208.5206,227.6349 208.9577,227.4786 209.4079,227.3658 209.8671,227.2977 210.3307,227.2749 210.7943,227.2977 211.2535,227.3658 211.7037,227.4786 212.1408,227.6349 212.5604,227.8334 212.9585,228.072 213.3314,228.3485 213.6753,228.6603 213.987,229.0042 214.2635,229.377 214.5022,229.7752 214.7006,230.1948 214.857,230.6318 214.9698,231.0821 215.0379,231.5412 215.0607,232.0049 215.0379,232.4685 214.9698,232.9276 214.857,233.3779 214.7006,233.8149 214.5022,234.2346 214.2635,234.6327 213.987,235.0055 213.6753,235.3495 213.3314,235.6612 212.9585,235.9377 212.5604,236.1763 212.1408,236.3748 211.7037,236.5312 211.2535,236.6439 210.7943,236.7121 210.3307,236.7348 209.8671,236.7121 209.4079,236.6439 208.9577,236.5312 208.5206,236.3748 208.101,236.1763 207.7029,235.9377 207.33,235.6612 206.9861,235.3495 206.6744,235.0055 206.3979,234.6327 206.1592,234.2346 205.9608,233.8149 205.8044,233.3779 205.6916,232.9276"/>
    <polygon points="196.7624,242.7227 196.3643,242.484 195.9915,242.2075 195.6475,241.8958 195.3358,241.5519 195.0593,241.179 194.8207,240.7809 194.6222,240.3613 194.4658,239.9242 194.353,239.474 194.2849,239.0148 194.2622,238.5512 194.2849,238.0876 194.353,237.6284 194.4658,237.1782 194.6222,236.7411 194.8207,236.3215 195.0593,235.9234 195.3358,235.5505 195.6475,235.2066 195.9915,234.8949 196.3643,234.6184 196.7624,234.3797 197.182,234.1813 197.6191,234.0249 198.0694,233.9121 198.5285,233.844 198.9921,233.8212 199.4557,233.844 199.9149,233.9121 200.3652,234.0249 200.8022,234.1813 201.2218,234.3797 201.62,234.6184 201.9928,234.8949 202.3367,235.2066 202.6484,235.5505 202.925,235.9234 203.1636,236.3215 203.3621,236.7411 203.5184,237.1782 203.6312,237.6284 203.6993,238.0876 203.7221,238.5512 203.6993,239.0148 203.6312,239.474 203.5184,239.9242 203.3621,240.3613 203.1636,240.7809 202.925,241.179 202.6484,241.5519 202.3367,241.8958 201.9928,242.2075 201.62,242.484 201.2218,242.7227 200.8022,242.9211 200.3652,243.0775 199.9149,243.1903 199.4557,243.2584 198.9921,243.2812 198.5285,243.2584 198.0694,243.1903 197.6191,243.0775 197.182,242.9211"/>
    <polygon points="185.8435,249.4675 185.4238,249.269 185.0257,249.0304 184.6529,248.7538 184.3089,248.4421 183.9972,248.0982 183.7207,247.7254 183.4821,247.3272 183.2836,246.9076 183.1272,246.4706 183.0145,246.0203 182.9463,245.5611 182.9236,245.0975 182.9463,244.6339 183.0145,244.1748 183.1272,243.7245 183.2836,243.2874 183.4821,242.8678 183.7207,242.4697 183.9972,242.0969 184.3089,241.7529 184.6529,241.4412 185.0257,241.1647 185.4238,240.9261 185.8435,240.7276 186.2805,240.5712 186.7308,240.4584 187.1899,240.3903 187.6535,240.3676 188.1172,240.3903 188.5763,240.4584 189.0266,240.5712 189.4636,240.7276 189.8832,240.9261 190.2814,241.1647 190.6542,241.4412 190.9981,241.7529 191.3099,242.0969 191.5864,242.4697 191.825,242.8678 192.0235,243.2874 192.1798,243.7245 192.2926,244.1748 192.3607,244.6339 192.3835,245.0975 192.3607,245.5611 192.2926,246.0203 192.1798,246.4706 192.0235,246.9076 191.825,247.3272 191.5864,247.7254 191.3099,248.0982 190.9981,248.4421 190.6542,248.7538 190.2814,249.0304 189.8832,249.269 189.4636,249.4675 189.0266,249.6238 188.5763,249.7366 188.1172,249.8047 187.6535,249.8275 187.1899,249.8047 186.7308,249.7366 186.2805,249.6238"/>
    <polygon points="179.3156,242.2075 178.9428,242.484 178.5447,242.7227 178.125,242.9211 177.688,243.0775 177.2377,243.1903 176.7786,243.2584 176.315,243.2812 175.8513,243.2584 175.3922,243.1903 174.9419,243.0775 174.5049,242.9211 174.0853,242.7227 173.6871,242.484 173.3143,242.2075 172.9704,241.8958 172.6586,241.5519 172.3821,241.179 172.1435,240.7809 171.945,240.3613 171.7887,239.9242 171.6759,239.474 171.6078,239.0148 171.585,238.5512 171.6078,238.0876 171.6759,237.6284 171.7887,237.1782 171.945,236.7411 172.1435,236.3215 172.3821,235.9234 172.6586,235.5505 172.9704,235.2066 173.3143,234.8949 173.6871,234.6184 174.0853,234.3797 174.5049,234.1813 174.9419,234.0249 175.3922,233.9121 175.8513,233.844 176.315,233.8212 176.7786,233.844 177.2377,233.9121 177.688,234.0249 178.125,234.1813 178.5447,234.3797 178.9428,234.6184 179.3156,234.8949 179.6596,235.2066 179.9713,235.5505 180.2478,235.9234 180.4864,236.3215 180.6849,236.7411 180.8413,237.1782 180.954,237.6284 181.0222,238.0876 181.0449,238.5512 181.0222,239.0148 180.954,239.474 180.8413,239.9242 180.6849,240.3613 180.4864,240.7809 180.2478,241.179 179.9713,241.5519 179.6596,241.8958"/>
    <polygon points="177.2377,247.0048 177.688,247.1176 178.125,247.2739 178.5447,247.4724 178.9428,247.711 179.3156,247.9875 179.6596,248.2993 179.9713,248.6432 180.2478,249.016 180.4864,249.4142 180.6849,249.8338 180.8413,250.2708 180.954,250.7211 181.0222,251.1802 181.0449,251.6439 181.0222,252.1075 180.954,252.5666 180.8413,253.0169 180.6849,253.4539 180.4864,253.8736 180.2478,254.2717 179.9713,254.6445 179.6596,254.9885 179.3156,255.3002 178.9428,255.5767 178.5447,255.8153 178.125,256.0138 177.688,256.1702 177.2377,256.2829 176.7786,256.3511 176.315,256.3738 175.8513,256.3511 175.3922,256.2829 174.9419,256.1702 174.5049,256.0138 174.0853,255.8153 173.6871,255.5767 173.3143,255.3002 172.9704,254.9885 172.6586,254.6445 172.3821,254.2717 172.1435,253.8736 171.945,253.4539 171.7887,253.0169 171.6759,252.5666 171.6078,252.1075 171.585,251.6439 171.6078,251.1802 171.6759,250.7211 171.7887,250.2708 171.945,249.8338 172.1435,249.4142 172.3821,249.016 172.6586,248.6432 172.9704,248.2993 173.3143,247.9875 173.6871,247.711 174.0853,247.4724 174.5049,247.2739 174.9419,247.1176 175.3922,247.0048 175.8513,246.9367 176.315,246.9139 176.7786,246.9367"/>
    <polygon points="169.6155,257.2674 169.6836,257.7266 169.7064,258.1902 169.6836,258.6538 169.6155,259.113 169.5027,259.5632 169.3463,260.0003 169.1478,260.4199 168.9092,260.818 168.6327,261.1909 168.321,261.5348 167.977,261.8465 167.6042,262.123 167.2061,262.3617 166.7865,262.5601 166.3494,262.7165 165.8991,262.8293 165.44,262.8974 164.9764,262.9202 164.5128,262.8974 164.0536,262.8293 163.6033,262.7165 163.1663,262.5601 162.7467,262.3617 162.3485,262.123 161.9757,261.8465 161.6318,261.5348 161.3201,261.1909 161.0435,260.818 160.8049,260.4199 160.6065,260.0003 160.4501,259.5632 160.3373,259.113 160.2692,258.6538 160.2464,258.1902 160.2692,257.7266 160.3373,257.2674 160.4501,256.8172 160.6065,256.3801 160.8049,255.9605 161.0435,255.5624 161.3201,255.1895 161.6318,254.8456 161.9757,254.5339 162.3485,254.2574 162.7467,254.0187 163.1663,253.8203 163.6033,253.6639 164.0536,253.5511 164.5128,253.483 164.9764,253.4602 165.44,253.483 165.8991,253.5511 166.3494,253.6639 166.7865,253.8203 167.2061,254.0187 167.6042,254.2574 167.977,254.5339 168.321,254.8456 168.6327,255.1895 168.9092,255.5624 169.1478,255.9605 169.3463,256.3801 169.5027,256.8172"/>
    <polygon points="179.1739,282.1445 178.7007,283.1448 178.1318,284.094 177.4726,284.9828 176.7295,285.8027 175.9095,286.5459 175.0207,287.2051 174.0715,287.774 173.0712,288.2471 172.0292,288.6199 170.9558,288.8888 169.8612,289.0512 168.7559,289.1055 167.6506,289.0512 166.556,288.8888 165.4826,288.6199 164.4406,288.2471 163.4403,287.774 162.4911,287.2051 161.6023,286.5459 160.7824,285.8027 160.0392,284.9828 159.38,284.094 158.8111,283.1448 158.338,282.1445 157.9652,281.1025 157.6963,280.0291 157.5339,278.9345 157.4796,277.8292 157.5339,276.7239 157.6963,275.6293 157.9652,274.5559 158.338,273.5139 158.8111,272.5136 159.38,271.5644 160.0392,270.6756 160.7824,269.8556 161.6023,269.1125 162.4911,268.4533 163.4403,267.8844 164.4406,267.4112 165.4826,267.0384 166.556,266.7696 167.6506,266.6072 168.7559,266.5529 169.8612,266.6072 170.9558,266.7696 172.0292,267.0384 173.0712,267.4112 174.0715,267.8844 175.0207,268.4533 175.9095,269.1125 176.7295,269.8556 177.4726,270.6756 178.1318,271.5644 178.7007,272.5136 179.1739,273.5139 179.5467,274.5559 179.8155,275.6293 179.9779,276.7239 180.0322,277.8292 179.9779,278.9345 179.8155,280.0291 179.5467,281.1025"/>
    <polygon points="138.9546,248.4421 139.2985,248.7538 139.6714,249.0304 140.0695,249.269 140.4891,249.4675 140.9262,249.6238 141.3764,249.7366 141.8356,249.8047 142.2992,249.8275 142.7628,249.8047 143.222,249.7366 143.6723,249.6238 144.1093,249.4675 144.5289,249.269 144.927,249.0304 145.2999,248.7538 145.6438,248.4421 145.9555,248.0982 146.232,247.7254 146.4707,247.3272 146.6691,246.9076 146.8255,246.4706 146.9383,246.0203 147.0064,245.5611 147.0292,245.0975 147.0064,244.6339 146.9383,244.1748 146.8255,243.7245 146.6691,243.2874 146.4707,242.8678 146.232,242.4697 145.9555,242.0969 145.6438,241.7529 145.2999,241.4412 144.927,241.1647 144.5289,240.9261 144.1093,240.7276 143.6723,240.5712 143.222,240.4584 142.7628,240.3903 142.2992,240.3676 141.8356,240.3903 141.3764,240.4584 140.9262,240.5712 140.4891,240.7276 140.0695,240.9261 139.6714,241.1647 139.2985,241.4412 138.9546,241.7529 138.6429,242.0969 138.3664,242.4697 138.1277,242.8678 137.9293,243.2874 137.7729,243.7245 137.6601,244.1748 137.592,244.6339 137.5692,245.0975 137.592,245.5611 137.6601,246.0203 137.7729,246.4706 137.9293,246.9076 138.1277,247.3272 138.3664,247.7254 138.6429,248.0982"/>
    <polygon points="151.01,234.6184 150.6371,234.8949 150.2932,235.2066 149.9815,235.5505 149.705,235.9234 149.4663,236.3215 149.2679,236.7411 149.1115,237.1782 148.9987,237.6284 148.9306,238.0876 148.9078,238.5512 148.9306,239.0148 148.9987,239.474 149.1115,239.9242 149.2679,240.3613 149.4663,240.7809 149.705,241.179 149.9815,241.5519 150.2932,241.8958 150.6371,242.2075 151.01,242.484 151.4081,242.7227 151.8277,242.9211 152.2648,243.0775 152.715,243.1903 153.1742,243.2584 153.6378,243.2812 154.1014,243.2584 154.5606,243.1903 155.0108,243.0775 155.4479,242.9211 155.8675,242.7227 156.2656,242.484 156.6385,242.2075 156.9824,241.8958 157.2941,241.5519 157.5706,241.179 157.8093,240.7809 158.0077,240.3613 158.1641,239.9242 158.2769,239.474 158.345,239.0148 158.3678,238.5512 158.345,238.0876 158.2769,237.6284 158.1641,237.1782 158.0077,236.7411 157.8093,236.3215 157.5706,235.9234 157.2941,235.5505 156.9824,235.2066 156.6385,234.8949 156.2656,234.6184 155.8675,234.3797 155.4479,234.1813 155.0108,234.0249 154.5606,233.9121 154.1014,233.844 153.6378,233.8212 153.1742,233.844 152.715,233.9121 152.2648,234.0249 151.8277,234.1813 151.4081,234.3797"/>
    <polygon points="166.3494,227.4786 165.8991,227.3658 165.44,227.2977 164.9764,227.2749 164.5128,227.2977 164.0536,227.3658 163.6033,227.4786 163.1663,227.6349 162.7467,227.8334 162.3485,228.072 161.9757,228.3485 161.6318,228.6603 161.3201,229.0042 161.0435,229.377 160.8049,229.7752 160.6065,230.1948 160.4501,230.6318 160.3373,231.0821 160.2692,231.5412 160.2464,232.0049 160.2692,232.4685 160.3373,232.9276 160.4501,233.3779 160.6065,233.8149 160.8049,234.2346 161.0435,234.6327 161.3201,235.0055 161.6318,235.3495 161.9757,235.6612 162.3485,235.9377 162.7467,236.1763 163.1663,236.3748 163.6033,236.5312 164.0536,236.6439 164.5128,236.7121 164.9764,236.7348 165.44,236.7121 165.8991,236.6439 166.3494,236.5312 166.7865,236.3748 167.2061,236.1763 167.6042,235.9377 167.977,235.6612 168.321,235.3495 168.6327,235.0055 168.9092,234.6327 169.1478,234.2346 169.3463,233.8149 169.5027,233.3779 169.6155,232.9276 169.6836,232.4685 169.7064,232.0049 169.6836,231.5412 169.6155,231.0821 169.5027,230.6318 169.3463,230.1948 169.1478,229.7752 168.9092,229.377 168.6327,229.0042 168.321,228.6603 167.977,228.3485 167.6042,228.072 167.2061,227.8334 166.7865,227.6349"/>
    <polygon points="160.3373,217.9894 160.2692,218.4486 160.2464,218.9122 160.2692,219.3758 160.3373,219.835 160.4501,220.2852 160.6065,220.7223 160.8049,221.1419 161.0435,221.54 161.3201,221.9129 161.6318,222.2568 161.9757,222.5685 162.3485,222.845 162.7467,223.0837 163.1663,223.2821 163.6033,223.4385 164.0536,223.5513 164.5128,223.6194 164.9764,223.6422 165.44,223.6194 165.8991,223.5513 166.3494,223.4385 166.7865,223.2821 167.2061,223.0837 167.6042,222.845 167.977,222.5685 168.321,222.2568 168.6327,221.9129 168.9092,221.54 169.1478,221.1419 169.3463,220.7223 169.5027,220.2852 169.6155,219.835 169.6836,219.3758 169.7064,218.9122 169.6836,218.4486 169.6155,217.9894 169.5027,217.5392 169.3463,217.1021 169.1478,216.6825 168.9092,216.2844 168.6327,215.9115 168.321,215.5676 167.977,215.2559 167.6042,214.9794 167.2061,214.7407 166.7865,214.5423 166.3494,214.3859 165.8991,214.2731 165.44,214.205 164.9764,214.1822 164.5128,214.205 164.0536,214.2731 163.6033,214.3859 163.1663,214.5423 162.7467,214.7407 162.3485,214.9794 161.9757,215.2559 161.6318,215.5676 161.3201,215.9115 161.0435,216.2844 160.8049,216.6825 160.6065,217.1021 160.4501,217.5392"/>
  </g>
</svg>
