<?xml version="1.0" encoding="utf-8" ?>
<svg xmlns="http://www.w3.org/2000/svg" xmlns:cc="http://creativecommons.org/ns" xmlns:dc="http://purl.org/dc/elements/1.1/" xmlns:ev="http://www.w3.org/2001/xml-events" xmlns:inkscape="http://www.inkscape.org/namespaces/inkscape" xmlns:rdf="http://www.w3.org/1999/02/22-rdf-syntax-ns" xmlns:sodipodi="http://sodipodi.sourceforge.net/DTD/sodipodi-0.dtd" xmlns:xlink="http://www.w3.org/1999/xlink" baseProfile="tiny" height="15.875cm" version="1.2" viewBox="0 0 432.0 600.0" width="11.43cm">
  <metadata>
    <rdf:RDF>
      <cc:Work>
        <dc:format>image/svg+xml</dc:format>
        <dc:source>vsk save -s 190 -c hex-grid/config/bubble-coasters-2.json /Users/tobin/src/fabian/plotting/fabian-plotting/hex-grid/sketch_hex_grid.py</dc:source>
        <dc:date>2023-11-04T10:32:59.831683</dc:date>
      </cc:Work>
    </rdf:RDF>
  </metadata>
  <defs/>
  <g fill="none" id="layer1" inkscape:groupmode="layer" inkscape:label="1" stroke="#000000" stroke-width="0.7559" style="display:inline">
    <polygon points="179.3156,244.7144 179.6596,245.0261 179.9713,245.37 180.2478,245.7429 180.4864,246.141 180.6849,246.5606 180.8413,246.9977 180.954,247.4479 181.0222,247.9071 181.0449,248.3707 181.0222,248.8343 180.954,249.2935 180.8413,249.7437 180.6849,250.1808 180.4864,250.6004 180.2478,250.9985 179.9713,251.3714 179.6596,251.7153 179.3156,252.027 178.9428,252.3035 178.5447,252.5422 178.125,252.7406 177.688,252.897 177.2377,253.0098 176.7786,253.0779 176.315,253.1007 175.8513,253.0779 175.3922,253.0098 174.9419,252.897 174.5049,252.7406 174.0853,252.5422 173.6871,252.3035 173.3143,252.027 172.9704,251.7153 172.6586,251.3714 172.3821,250.9985 172.1435,250.6004 171.945,250.1808 171.7887,249.7437 171.6759,249.2935 171.6078,248.8343 171.585,248.3707 171.6078,247.9071 171.6759,247.4479 171.7887,246.9977 171.945,246.5606 172.1435,246.141 172.3821,245.7429 172.6586,245.37 172.9704,245.0261 173.3143,244.7144 173.6871,244.4379 174.0853,244.1992 174.5049,244.0008 174.9419,243.8444 175.3922,243.7316 175.8513,243.6635 176.315,243.6407 176.7786,243.6635 177.2377,243.7316 177.688,243.8444 178.125,244.0008 178.5447,244.1992 178.9428,244.4379"/>
    <polygon points="160.8049,244.0541 160.6065,243.6344 160.4501,243.1974 160.3373,242.7471 160.2692,242.288 160.2464,241.8244 160.2692,241.3607 160.3373,240.9016 160.4501,240.4513 160.6065,240.0143 160.8049,239.5947 161.0435,239.1965 161.3201,238.8237 161.6318,238.4798 161.9757,238.168 162.3485,237.8915 162.7467,237.6529 163.1663,237.4544 163.6033,237.2981 164.0536,237.1853 164.5128,237.1172 164.9764,237.0944 165.44,237.1172 165.8991,237.1853 166.3494,237.2981 166.7865,237.4544 167.2061,237.6529 167.6042,237.8915 167.977,238.168 168.321,238.4798 168.6327,238.8237 168.9092,239.1965 169.1478,239.5947 169.3463,240.0143 169.5027,240.4513 169.6155,240.9016 169.6836,241.3607 169.7064,241.8244 169.6836,242.288 169.6155,242.7471 169.5027,243.1974 169.3463,243.6344 169.1478,244.0541 168.9092,244.4522 168.6327,244.825 168.321,245.169 167.977,245.4807 167.6042,245.7572 167.2061,245.9958 166.7865,246.1943 166.3494,246.3507 165.8991,246.4634 165.44,246.5316 164.9764,246.5543 164.5128,246.5316 164.0536,246.4634 163.6033,246.3507 163.1663,246.1943 162.7467,245.9958 162.3485,245.7572 161.9757,245.4807 161.6318,245.169 161.3201,244.825 161.0435,244.4522"/>
    <polygon points="168.321,258.2616 167.977,258.5733 167.6042,258.8499 167.2061,259.0885 166.7865,259.287 166.3494,259.4433 165.8991,259.5561 165.44,259.6242 164.9764,259.647 164.5128,259.6242 164.0536,259.5561 163.6033,259.4433 163.1663,259.287 162.7467,259.0885 162.3485,258.8499 161.9757,258.5733 161.6318,258.2616 161.3201,257.9177 161.0435,257.5449 160.8049,257.1467 160.6065,256.7271 160.4501,256.2901 160.3373,255.8398 160.2692,255.3806 160.2464,254.917 160.2692,254.4534 160.3373,253.9943 160.4501,253.544 160.6065,253.1069 160.8049,252.6873 161.0435,252.2892 161.3201,251.9164 161.6318,251.5724 161.9757,251.2607 162.3485,250.9842 162.7467,250.7456 163.1663,250.5471 163.6033,250.3907 164.0536,250.2779 164.5128,250.2098 164.9764,250.1871 165.44,250.2098 165.8991,250.2779 166.3494,250.3907 166.7865,250.5471 167.2061,250.7456 167.6042,250.9842 167.977,251.2607 168.321,251.5724 168.6327,251.9164 168.9092,252.2892 169.1478,252.6873 169.3463,253.1069 169.5027,253.544 169.6155,253.9943 169.6836,254.4534 169.7064,254.917 169.6836,255.3806 169.6155,255.8398 169.5027,256.2901 169.3463,256.7271 169.1478,257.1467 168.9092,257.5449 168.6327,257.9177"/>
    <polygon points="180.1568,261.4634 180.2111,260.3581 180.3734,259.2635 180.6423,258.19 181.0151,257.1481 181.4883,256.1477 182.0572,255.1986 182.7164,254.3097 183.4595,253.4898 184.2795,252.7467 185.1683,252.0875 186.1175,251.5185 187.1178,251.0454 188.1597,250.6726 189.2332,250.4037 190.3278,250.2414 191.4331,250.1871 192.5383,250.2414 193.633,250.4037 194.7064,250.6726 195.7483,251.0454 196.7487,251.5185 197.6979,252.0875 198.5867,252.7467 199.4066,253.4898 200.1498,254.3097 200.809,255.1986 201.3779,256.1477 201.851,257.1481 202.2238,258.19 202.4927,259.2635 202.6551,260.3581 202.7094,261.4634 202.6551,262.5686 202.4927,263.6633 202.2238,264.7367 201.851,265.7786 201.3779,266.779 200.809,267.7281 200.1498,268.617 199.4066,269.4369 198.5867,270.1801 197.6979,270.8393 196.7487,271.4082 195.7483,271.8813 194.7064,272.2541 193.633,272.523 192.5383,272.6854 191.4331,272.7397 190.3278,272.6854 189.2332,272.523 188.1597,272.2541 187.1178,271.8813 186.1175,271.4082 185.1683,270.8393 184.2795,270.1801 183.4595,269.4369 182.7164,268.617 182.0572,267.7281 181.4883,266.779 181.0151,265.7786 180.6423,264.7367 180.3734,263.6633 180.2111,262.5686"/>
    <polygon points="208.1306,267.3866 210.1818,266.1572 212.3437,265.1347 214.5954,264.329 216.9151,263.748 219.2807,263.3971 221.6693,263.2797 224.0579,263.3971 226.4234,263.748 228.7432,264.329 230.9949,265.1347 233.1567,266.1572 235.208,267.3866 237.1288,268.8112 238.9008,270.4172 240.5068,272.1892 241.9314,274.11 243.1608,276.1612 244.1833,278.3231 244.9889,280.5748 245.57,282.8945 245.9209,285.2601 246.0383,287.6487 245.9209,290.0373 245.57,292.4028 244.9889,294.7226 244.1833,296.9743 243.1608,299.1362 241.9314,301.1874 240.5068,303.1082 238.9008,304.8802 237.1288,306.4862 235.208,307.9108 233.1567,309.1402 230.9949,310.1627 228.7432,310.9684 226.4234,311.5494 224.0579,311.9003 221.6693,312.0177 219.2807,311.9003 216.9151,311.5494 214.5954,310.9684 212.3437,310.1627 210.1818,309.1402 208.1306,307.9108 206.2098,306.4862 204.4378,304.8802 202.8318,303.1082 201.4072,301.1874 200.1778,299.1362 199.1553,296.9743 198.3496,294.7226 197.7686,292.4028 197.4177,290.0373 197.3003,287.6487 197.4177,285.2601 197.7686,282.8945 198.3496,280.5748 199.1553,278.3231 200.1778,276.1612 201.4072,274.11 202.8318,272.1892 204.4378,270.4172 206.2098,268.8112"/>
    <polygon points="223.4861,242.1059 222.8269,241.2171 222.0838,240.3971 221.2638,239.654 220.375,238.9948 219.4259,238.4259 218.4255,237.9527 217.3836,237.5799 216.3101,237.3111 215.2155,237.1487 214.1102,237.0944 213.005,237.1487 211.9103,237.3111 210.8369,237.5799 209.795,237.9527 208.7946,238.4259 207.8455,238.9948 206.9566,239.654 206.1367,240.3971 205.3935,241.2171 204.7343,242.1059 204.1654,243.0551 203.6923,244.0554 203.3195,245.0974 203.0506,246.1708 202.8882,247.2654 202.8339,248.3707 202.8882,249.476 203.0506,250.5706 203.3195,251.644 203.6923,252.6859 204.1654,253.6863 204.7343,254.6355 205.3935,255.5243 206.1367,256.3442 206.9566,257.0874 207.8455,257.7466 208.7946,258.3155 209.795,258.7886 210.8369,259.1614 211.9103,259.4303 213.005,259.5927 214.1102,259.647 215.2155,259.5927 216.3101,259.4303 217.3836,259.1614 218.4255,258.7886 219.4259,258.3155 220.375,257.7466 221.2638,257.0874 222.0838,256.3442 222.8269,255.5243 223.4861,254.6355 224.0551,253.6863 224.5282,252.6859 224.901,251.644 225.1699,250.5706 225.3322,249.476 225.3865,248.3707 225.3322,247.2654 225.1699,246.1708 224.901,245.0974 224.5282,244.0554 224.0551,243.0551"/>
    <polygon points="205.6007,228.7317 205.6235,229.1953 205.6916,229.6545 205.8044,230.1047 205.9608,230.5418 206.1592,230.9614 206.3979,231.3595 206.6744,231.7324 206.9861,232.0763 207.33,232.388 207.7029,232.6645 208.101,232.9032 208.5206,233.1016 208.9577,233.258 209.4079,233.3708 209.8671,233.4389 210.3307,233.4617 210.7943,233.4389 211.2535,233.3708 211.7037,233.258 212.1408,233.1016 212.5604,232.9032 212.9585,232.6645 213.3314,232.388 213.6753,232.0763 213.987,231.7324 214.2635,231.3595 214.5022,230.9614 214.7006,230.5418 214.857,230.1047 214.9698,229.6545 215.0379,229.1953 215.0607,228.7317 215.0379,228.2681 214.9698,227.8089 214.857,227.3587 214.7006,226.9216 214.5022,226.502 214.2635,226.1039 213.987,225.731 213.6753,225.3871 213.3314,225.0754 212.9585,224.7989 212.5604,224.5602 212.1408,224.3618 211.7037,224.2054 211.2535,224.0926 210.7943,224.0245 210.3307,224.0017 209.8671,224.0245 209.4079,224.0926 208.9577,224.2054 208.5206,224.3618 208.101,224.5602 207.7029,224.7989 207.33,225.0754 206.9861,225.3871 206.6744,225.731 206.3979,226.1039 206.1592,226.502 205.9608,226.9216 205.8044,227.3587 205.6916,227.8089 205.6235,228.2681"/>
    <polygon points="217.0302,223.1081 217.143,223.5584 217.2994,223.9954 217.4978,224.4151 217.7365,224.8132 218.013,225.186 218.3247,225.53 218.6686,225.8417 219.0415,226.1182 219.4396,226.3568 219.8592,226.5553 220.2963,226.7117 220.7465,226.8244 221.2057,226.8926 221.6693,226.9153 222.1329,226.8926 222.5921,226.8244 223.0423,226.7117 223.4794,226.5553 223.899,226.3568 224.2971,226.1182 224.67,225.8417 225.0139,225.53 225.3256,225.186 225.6021,224.8132 225.8408,224.4151 226.0392,223.9954 226.1956,223.5584 226.3084,223.1081 226.3765,222.649 226.3993,222.1854 226.3765,221.7217 226.3084,221.2626 226.1956,220.8123 226.0392,220.3753 225.8408,219.9557 225.6021,219.5575 225.3256,219.1847 225.0139,218.8408 224.67,218.529 224.2971,218.2525 223.899,218.0139 223.4794,217.8154 223.0423,217.6591 222.5921,217.5463 222.1329,217.4782 221.6693,217.4554 221.2057,217.4782 220.7465,217.5463 220.2963,217.6591 219.8592,217.8154 219.4396,218.0139 219.0415,218.2525 218.6686,218.529 218.3247,218.8408 218.013,219.1847 217.7365,219.5575 217.4978,219.9557 217.2994,220.3753 217.143,220.8123 217.0302,221.2626 216.9621,221.7217 216.9393,222.1854 216.9621,222.649"/>
    <polygon points="230.0072,219.2953 229.6633,218.9836 229.3516,218.6397 229.075,218.2669 228.8364,217.8687 228.6379,217.4491 228.4816,217.0121 228.3688,216.5618 228.3007,216.1026 228.2779,215.639 228.3007,215.1754 228.3688,214.7163 228.4816,214.266 228.6379,213.8289 228.8364,213.4093 229.075,213.0112 229.3516,212.6384 229.6633,212.2944 230.0072,211.9827 230.38,211.7062 230.7782,211.4676 231.1978,211.2691 231.6348,211.1127 232.0851,210.9999 232.5443,210.9318 233.0079,210.9091 233.4715,210.9318 233.9306,210.9999 234.3809,211.1127 234.818,211.2691 235.2376,211.4676 235.6357,211.7062 236.0085,211.9827 236.3525,212.2944 236.6642,212.6384 236.9407,213.0112 237.1793,213.4093 237.3778,213.8289 237.5342,214.266 237.647,214.7163 237.7151,215.1754 237.7378,215.639 237.7151,216.1026 237.647,216.5618 237.5342,217.0121 237.3778,217.4491 237.1793,217.8687 236.9407,218.2669 236.6642,218.6397 236.3525,218.9836 236.0085,219.2953 235.6357,219.5719 235.2376,219.8105 234.818,220.0089 234.3809,220.1653 233.9306,220.2781 233.4715,220.3462 233.0079,220.369 232.5443,220.3462 232.0851,220.2781 231.6348,220.1653 231.1978,220.0089 230.7782,219.8105 230.38,219.5719"/>
    <polygon points="228.3007,229.1953 228.2779,228.7317 228.3007,228.2681 228.3688,227.8089 228.4816,227.3587 228.6379,226.9216 228.8364,226.502 229.075,226.1039 229.3516,225.731 229.6633,225.3871 230.0072,225.0754 230.38,224.7989 230.7782,224.5602 231.1978,224.3618 231.6348,224.2054 232.0851,224.0926 232.5443,224.0245 233.0079,224.0017 233.4715,224.0245 233.9306,224.0926 234.3809,224.2054 234.818,224.3618 235.2376,224.5602 235.6357,224.7989 236.0085,225.0754 236.3525,225.3871 236.6642,225.731 236.9407,226.1039 237.1793,226.502 237.3778,226.9216 237.5342,227.3587 237.647,227.8089 237.7151,228.2681 237.7378,228.7317 237.7151,229.1953 237.647,229.6545 237.5342,230.1047 237.3778,230.5418 237.1793,230.9614 236.9407,231.3595 236.6642,231.7324 236.3525,232.0763 236.0085,232.388 235.6357,232.6645 235.2376,232.9032 234.818,233.1016 234.3809,233.258 233.9306,233.3708 233.4715,233.4389 233.0079,233.4617 232.5443,233.4389 232.0851,233.3708 231.6348,233.258 231.1978,233.1016 230.7782,232.9032 230.38,232.6645 230.0072,232.388 229.6633,232.0763 229.3516,231.7324 229.075,231.3595 228.8364,230.9614 228.6379,230.5418 228.4816,230.1047 228.3688,229.6545"/>
    <polygon points="242.9734,230.7517 242.5364,230.9081 242.1168,231.1066 241.7186,231.3452 241.3458,231.6217 241.0019,231.9334 240.6901,232.2774 240.4136,232.6502 240.175,233.0483 239.9765,233.4679 239.8202,233.905 239.7074,234.3553 239.6393,234.8144 239.6165,235.278 239.6393,235.7416 239.7074,236.2008 239.8202,236.6511 239.9765,237.0881 240.175,237.5077 240.4136,237.9059 240.6901,238.2787 241.0019,238.6226 241.3458,238.9343 241.7186,239.2109 242.1168,239.4495 242.5364,239.648 242.9734,239.8043 243.4237,239.9171 243.8828,239.9852 244.3465,240.008 244.8101,239.9852 245.2692,239.9171 245.7195,239.8043 246.1565,239.648 246.5762,239.4495 246.9743,239.2109 247.3471,238.9343 247.6911,238.6226 248.0028,238.2787 248.2793,237.9059 248.5179,237.5077 248.7164,237.0881 248.8728,236.6511 248.9855,236.2008 249.0537,235.7416 249.0764,235.278 249.0537,234.8144 248.9855,234.3553 248.8728,233.905 248.7164,233.4679 248.5179,233.0483 248.2793,232.6502 248.0028,232.2774 247.6911,231.9334 247.3471,231.6217 246.9743,231.3452 246.5762,231.1066 246.1565,230.9081 245.7195,230.7517 245.2692,230.6389 244.8101,230.5708 244.3465,230.5481 243.8828,230.5708 243.4237,230.6389"/>
    <polygon points="248.8728,220.8123 248.7164,220.3753 248.5179,219.9557 248.2793,219.5575 248.0028,219.1847 247.6911,218.8408 247.3471,218.529 246.9743,218.2525 246.5762,218.0139 246.1565,217.8154 245.7195,217.6591 245.2692,217.5463 244.8101,217.4782 244.3465,217.4554 243.8828,217.4782 243.4237,217.5463 242.9734,217.6591 242.5364,217.8154 242.1168,218.0139 241.7186,218.2525 241.3458,218.529 241.0019,218.8408 240.6901,219.1847 240.4136,219.5575 240.175,219.9557 239.9765,220.3753 239.8202,220.8123 239.7074,221.2626 239.6393,221.7217 239.6165,222.1854 239.6393,222.649 239.7074,223.1081 239.8202,223.5584 239.9765,223.9954 240.175,224.4151 240.4136,224.8132 240.6901,225.186 241.0019,225.53 241.3458,225.8417 241.7186,226.1182 242.1168,226.3568 242.5364,226.5553 242.9734,226.7117 243.4237,226.8244 243.8828,226.8926 244.3465,226.9153 244.8101,226.8926 245.2692,226.8244 245.7195,226.7117 246.1565,226.5553 246.5762,226.3568 246.9743,226.1182 247.3471,225.8417 247.6911,225.53 248.0028,225.186 248.2793,224.8132 248.5179,224.4151 248.7164,223.9954 248.8728,223.5584 248.9855,223.1081 249.0537,222.649 249.0764,222.1854 249.0537,221.7217 248.9855,221.2626"/>
    <polygon points="268.1813,267.4024 267.4381,266.5825 266.6182,265.8393 265.7293,265.1801 264.7802,264.6112 263.7798,264.1381 262.7379,263.7653 261.6645,263.4964 260.5698,263.334 259.4646,263.2797 258.3593,263.334 257.2647,263.4964 256.1912,263.7653 255.1493,264.1381 254.149,264.6112 253.1998,265.1801 252.311,265.8393 251.491,266.5825 250.7479,267.4024 250.0887,268.2912 249.5198,269.2404 249.0466,270.2408 248.6738,271.2827 248.4049,272.3561 248.2426,273.4508 248.1883,274.556 248.2426,275.6613 248.4049,276.7559 248.6738,277.8294 249.0466,278.8713 249.5198,279.8716 250.0887,280.8208 250.7479,281.7096 251.491,282.5296 252.311,283.2727 253.1998,283.9319 254.149,284.5008 255.1493,284.974 256.1912,285.3468 257.2647,285.6157 258.3593,285.778 259.4646,285.8323 260.5698,285.778 261.6645,285.6157 262.7379,285.3468 263.7798,284.974 264.7802,284.5008 265.7293,283.9319 266.6182,283.2727 267.4381,282.5296 268.1813,281.7096 268.8405,280.8208 269.4094,279.8716 269.8825,278.8713 270.2553,277.8294 270.5242,276.7559 270.6866,275.6613 270.7409,274.556 270.6866,273.4508 270.5242,272.3561 270.2553,271.2827 269.8825,270.2408 269.4094,269.2404 268.8405,268.2912"/>
    <polygon points="275.7344,264.0769 275.3615,264.3534 275.0176,264.6651 274.7059,265.009 274.4294,265.3819 274.1907,265.78 273.9923,266.1996 273.8359,266.6367 273.7231,267.0869 273.655,267.5461 273.6322,268.0097 273.655,268.4733 273.7231,268.9325 273.8359,269.3827 273.9923,269.8198 274.1907,270.2394 274.4294,270.6375 274.7059,271.0104 275.0176,271.3543 275.3615,271.666 275.7344,271.9425 276.1325,272.1812 276.5521,272.3796 276.9892,272.536 277.4394,272.6488 277.8986,272.7169 278.3622,272.7397 278.8258,272.7169 279.285,272.6488 279.7352,272.536 280.1723,272.3796 280.5919,272.1812 280.99,271.9425 281.3629,271.666 281.7068,271.3543 282.0185,271.0104 282.295,270.6375 282.5337,270.2394 282.7321,269.8198 282.8885,269.3827 283.0013,268.9325 283.0694,268.4733 283.0922,268.0097 283.0694,267.5461 283.0013,267.0869 282.8885,266.6367 282.7321,266.1996 282.5337,265.78 282.295,265.3819 282.0185,265.009 281.7068,264.6651 281.3629,264.3534 280.99,264.0769 280.5919,263.8382 280.1723,263.6398 279.7352,263.4834 279.285,263.3706 278.8258,263.3025 278.3622,263.2797 277.8986,263.3025 277.4394,263.3706 276.9892,263.4834 276.5521,263.6398 276.1325,263.8382"/>
    <polygon points="285.5293,272.3263 285.3309,272.7459 285.1745,273.183 285.0617,273.6333 284.9936,274.0924 284.9708,274.556 284.9936,275.0196 285.0617,275.4788 285.1745,275.9291 285.3309,276.3661 285.5293,276.7857 285.768,277.1839 286.0445,277.5567 286.3562,277.9006 286.7001,278.2123 287.073,278.4889 287.4711,278.7275 287.8907,278.926 288.3277,279.0823 288.778,279.1951 289.2372,279.2632 289.7008,279.286 290.1644,279.2632 290.6236,279.1951 291.0738,279.0823 291.5109,278.926 291.9305,278.7275 292.3286,278.4889 292.7015,278.2123 293.0454,277.9006 293.3571,277.5567 293.6336,277.1839 293.8723,276.7857 294.0707,276.3661 294.2271,275.9291 294.3399,275.4788 294.408,275.0196 294.4308,274.556 294.408,274.0924 294.3399,273.6333 294.2271,273.183 294.0707,272.7459 293.8723,272.3263 293.6336,271.9282 293.3571,271.5554 293.0454,271.2114 292.7015,270.8997 292.3286,270.6232 291.9305,270.3846 291.5109,270.1861 291.0738,270.0297 290.6236,269.9169 290.1644,269.8488 289.7008,269.8261 289.2372,269.8488 288.778,269.9169 288.3277,270.0297 287.8907,270.1861 287.4711,270.3846 287.073,270.6232 286.7001,270.8997 286.3562,271.2114 286.0445,271.5554 285.768,271.9282"/>
    <polygon points="273.9923,282.9124 274.1907,283.3321 274.4294,283.7302 274.7059,284.103 275.0176,284.447 275.3615,284.7587 275.7344,285.0352 276.1325,285.2738 276.5521,285.4723 276.9892,285.6287 277.4394,285.7414 277.8986,285.8096 278.3622,285.8323 278.8258,285.8096 279.285,285.7414 279.7352,285.6287 280.1723,285.4723 280.5919,285.2738 280.99,285.0352 281.3629,284.7587 281.7068,284.447 282.0185,284.103 282.295,283.7302 282.5337,283.3321 282.7321,282.9124 282.8885,282.4754 283.0013,282.0251 283.0694,281.566 283.0922,281.1024 283.0694,280.6387 283.0013,280.1796 282.8885,279.7293 282.7321,279.2923 282.5337,278.8727 282.295,278.4745 282.0185,278.1017 281.7068,277.7578 281.3629,277.446 280.99,277.1695 280.5919,276.9309 280.1723,276.7324 279.7352,276.5761 279.285,276.4633 278.8258,276.3952 278.3622,276.3724 277.8986,276.3952 277.4394,276.4633 276.9892,276.5761 276.5521,276.7324 276.1325,276.9309 275.7344,277.1695 275.3615,277.446 275.0176,277.7578 274.7059,278.1017 274.4294,278.4745 274.1907,278.8727 273.9923,279.2923 273.8359,279.7293 273.7231,280.1796 273.655,280.6387 273.6322,281.1024 273.655,281.566 273.7231,282.0251 273.8359,282.4754"/>
    <polygon points="270.2553,304.0147 270.5242,302.9413 270.6866,301.8466 270.7409,300.7414 270.6866,299.6361 270.5242,298.5415 270.2553,297.468 269.8825,296.4261 269.4094,295.4257 268.8405,294.4766 268.1813,293.5878 267.4381,292.7678 266.6182,292.0247 265.7293,291.3655 264.7802,290.7965 263.7798,290.3234 262.7379,289.9506 261.6645,289.6817 260.5698,289.5194 259.4646,289.4651 258.3593,289.5194 257.2647,289.6817 256.1912,289.9506 255.1493,290.3234 254.149,290.7965 253.1998,291.3655 252.311,292.0247 251.491,292.7678 250.7479,293.5878 250.0887,294.4766 249.5198,295.4257 249.0466,296.4261 248.6738,297.468 248.4049,298.5415 248.2426,299.6361 248.1883,300.7414 248.2426,301.8466 248.4049,302.9413 248.6738,304.0147 249.0466,305.0566 249.5198,306.057 250.0887,307.0061 250.7479,307.895 251.491,308.7149 252.311,309.4581 253.1998,310.1173 254.149,310.6862 255.1493,311.1593 256.1912,311.5321 257.2647,311.801 258.3593,311.9634 259.4646,312.0177 260.5698,311.9634 261.6645,311.801 262.7379,311.5321 263.7798,311.1593 264.7802,310.6862 265.7293,310.1173 266.6182,309.4581 267.4381,308.7149 268.1813,307.895 268.8405,307.0061 269.4094,306.057 269.8825,305.0566"/>
    <polygon points="252.0287,323.381 252.3404,323.725 252.6844,324.0367 253.0572,324.3132 253.4553,324.5518 253.875,324.7503 254.312,324.9067 254.7623,325.0195 255.2214,325.0876 255.685,325.1103 256.1487,325.0876 256.6078,325.0195 257.0581,324.9067 257.4951,324.7503 257.9147,324.5518 258.3129,324.3132 258.6857,324.0367 259.0296,323.725 259.3414,323.381 259.6179,323.0082 259.8565,322.6101 260.055,322.1904 260.2113,321.7534 260.3241,321.3031 260.3922,320.844 260.415,320.3804 260.3922,319.9167 260.3241,319.4576 260.2113,319.0073 260.055,318.5703 259.8565,318.1507 259.6179,317.7525 259.3414,317.3797 259.0296,317.0358 258.6857,316.724 258.3129,316.4475 257.9147,316.2089 257.4951,316.0104 257.0581,315.8541 256.6078,315.7413 256.1487,315.6732 255.685,315.6504 255.2214,315.6732 254.7623,315.7413 254.312,315.8541 253.875,316.0104 253.4553,316.2089 253.0572,316.4475 252.6844,316.724 252.3404,317.0358 252.0287,317.3797 251.7522,317.7525 251.5136,318.1507 251.3151,318.5703 251.1587,319.0073 251.046,319.4576 250.9778,319.9167 250.9551,320.3804 250.9778,320.844 251.046,321.3031 251.1587,321.7534 251.3151,322.1904 251.5136,322.6101 251.7522,323.0082"/>
    <polygon points="229.075,336.1009 229.3516,336.4737 229.6633,336.8176 230.0072,337.1294 230.38,337.4059 230.7782,337.6445 231.1978,337.843 231.6348,337.9993 232.0851,338.1121 232.5443,338.1802 233.0079,338.203 233.4715,338.1802 233.9306,338.1121 234.3809,337.9993 234.818,337.843 235.2376,337.6445 235.6357,337.4059 236.0085,337.1294 236.3525,336.8176 236.6642,336.4737 236.9407,336.1009 237.1793,335.7027 237.3778,335.2831 237.5342,334.8461 237.647,334.3958 237.7151,333.9367 237.7378,333.473 237.7151,333.0094 237.647,332.5503 237.5342,332.1 237.3778,331.663 237.1793,331.2433 236.9407,330.8452 236.6642,330.4724 236.3525,330.1284 236.0085,329.8167 235.6357,329.5402 235.2376,329.3016 234.818,329.1031 234.3809,328.9467 233.9306,328.8339 233.4715,328.7658 233.0079,328.7431 232.5443,328.7658 232.0851,328.8339 231.6348,328.9467 231.1978,329.1031 230.7782,329.3016 230.38,329.5402 230.0072,329.8167 229.6633,330.1284 229.3516,330.4724 229.075,330.8452 228.8364,331.2433 228.6379,331.663 228.4816,332.1 228.3688,332.5503 228.3007,333.0094 228.2779,333.473 228.3007,333.9367 228.3688,334.3958 228.4816,334.8461 228.6379,335.2831 228.8364,335.7027"/>
    <polygon points="210.7943,341.8585 210.3307,341.8357 209.8671,341.8585 209.4079,341.9266 208.9577,342.0394 208.5206,342.1958 208.101,342.3942 207.7029,342.6329 207.33,342.9094 206.9861,343.2211 206.6744,343.565 206.3979,343.9379 206.1592,344.336 205.9608,344.7556 205.8044,345.1927 205.6916,345.6429 205.6235,346.1021 205.6007,346.5657 205.6235,347.0293 205.6916,347.4885 205.8044,347.9387 205.9608,348.3758 206.1592,348.7954 206.3979,349.1935 206.6744,349.5664 206.9861,349.9103 207.33,350.222 207.7029,350.4985 208.101,350.7372 208.5206,350.9356 208.9577,351.092 209.4079,351.2048 209.8671,351.2729 210.3307,351.2957 210.7943,351.2729 211.2535,351.2048 211.7037,351.092 212.1408,350.9356 212.5604,350.7372 212.9585,350.4985 213.3314,350.222 213.6753,349.9103 213.987,349.5664 214.2635,349.1935 214.5022,348.7954 214.7006,348.3758 214.857,347.9387 214.9698,347.4885 215.0379,347.0293 215.0607,346.5657 215.0379,346.1021 214.9698,345.6429 214.857,345.1927 214.7006,344.7556 214.5022,344.336 214.2635,343.9379 213.987,343.565 213.6753,343.2211 213.3314,342.9094 212.9585,342.6329 212.5604,342.3942 212.1408,342.1958 211.7037,342.0394 211.2535,341.9266"/>
    <polygon points="204.7343,333.1915 205.3935,334.0803 206.1367,334.9003 206.9566,335.6434 207.8455,336.3026 208.7946,336.8715 209.795,337.3446 210.8369,337.7175 211.9103,337.9863 213.005,338.1487 214.1102,338.203 215.2155,338.1487 216.3101,337.9863 217.3836,337.7175 218.4255,337.3446 219.4259,336.8715 220.375,336.3026 221.2638,335.6434 222.0838,334.9003 222.8269,334.0803 223.4861,333.1915 224.0551,332.2423 224.5282,331.242 224.901,330.2 225.1699,329.1266 225.3322,328.032 225.3865,326.9267 225.3322,325.8214 225.1699,324.7268 224.901,323.6534 224.5282,322.6114 224.0551,321.6111 223.4861,320.6619 222.8269,319.7731 222.0838,318.9531 221.2638,318.21 220.375,317.5508 219.4259,316.9819 218.4255,316.5087 217.3836,316.1359 216.3101,315.8671 215.2155,315.7047 214.1102,315.6504 213.005,315.7047 211.9103,315.8671 210.8369,316.1359 209.795,316.5087 208.7946,316.9819 207.8455,317.5508 206.9566,318.21 206.1367,318.9531 205.3935,319.7731 204.7343,320.6619 204.1654,321.6111 203.6923,322.6114 203.3195,323.6534 203.0506,324.7268 202.8882,325.8214 202.8339,326.9267 202.8882,328.032 203.0506,329.1266 203.3195,330.2 203.6923,331.242 204.1654,332.2423"/>
    <polygon points="192.2926,332.5503 192.1798,332.1 192.0235,331.663 191.825,331.2433 191.5864,330.8452 191.3099,330.4724 190.9981,330.1284 190.6542,329.8167 190.2814,329.5402 189.8832,329.3016 189.4636,329.1031 189.0266,328.9467 188.5763,328.8339 188.1172,328.7658 187.6535,328.7431 187.1899,328.7658 186.7308,328.8339 186.2805,328.9467 185.8435,329.1031 185.4238,329.3016 185.0257,329.5402 184.6529,329.8167 184.3089,330.1284 183.9972,330.4724 183.7207,330.8452 183.4821,331.2433 183.2836,331.663 183.1272,332.1 183.0145,332.5503 182.9463,333.0094 182.9236,333.473 182.9463,333.9367 183.0145,334.3958 183.1272,334.8461 183.2836,335.2831 183.4821,335.7027 183.7207,336.1009 183.9972,336.4737 184.3089,336.8176 184.6529,337.1294 185.0257,337.4059 185.4238,337.6445 185.8435,337.843 186.2805,337.9993 186.7308,338.1121 187.1899,338.1802 187.6535,338.203 188.1172,338.1802 188.5763,338.1121 189.0266,337.9993 189.4636,337.843 189.8832,337.6445 190.2814,337.4059 190.6542,337.1294 190.9981,336.8176 191.3099,336.4737 191.5864,336.1009 191.825,335.7027 192.0235,335.2831 192.1798,334.8461 192.2926,334.3958 192.3607,333.9367 192.3835,333.473 192.3607,333.0094"/>
    <polygon points="190.3278,325.056 191.4331,325.1103 192.5383,325.056 193.633,324.8937 194.7064,324.6248 195.7483,324.252 196.7487,323.7788 197.6979,323.2099 198.5867,322.5507 199.4066,321.8076 200.1498,320.9876 200.809,320.0988 201.3779,319.1496 201.851,318.1493 202.2238,317.1074 202.4927,316.0339 202.6551,314.9393 202.7094,313.834 202.6551,312.7288 202.4927,311.6341 202.2238,310.5607 201.851,309.5188 201.3779,308.5184 200.809,307.5693 200.1498,306.6804 199.4066,305.8605 198.5867,305.1173 197.6979,304.4581 196.7487,303.8892 195.7483,303.4161 194.7064,303.0433 193.633,302.7744 192.5383,302.612 191.4331,302.5577 190.3278,302.612 189.2332,302.7744 188.1597,303.0433 187.1178,303.4161 186.1175,303.8892 185.1683,304.4581 184.2795,305.1173 183.4595,305.8605 182.7164,306.6804 182.0572,307.5693 181.4883,308.5184 181.0151,309.5188 180.6423,310.5607 180.3734,311.6341 180.2111,312.7288 180.1568,313.834 180.2111,314.9393 180.3734,316.0339 180.6423,317.1074 181.0151,318.1493 181.4883,319.1496 182.0572,320.0988 182.7164,320.9876 183.4595,321.8076 184.2795,322.5507 185.1683,323.2099 186.1175,323.7788 187.1178,324.252 188.1597,324.6248 189.2332,324.8937"/>
    <polygon points="179.6596,323.5821 179.3156,323.2704 178.9428,322.9939 178.5447,322.7552 178.125,322.5568 177.688,322.4004 177.2377,322.2876 176.7786,322.2195 176.315,322.1967 175.8513,322.2195 175.3922,322.2876 174.9419,322.4004 174.5049,322.5568 174.0853,322.7552 173.6871,322.9939 173.3143,323.2704 172.9704,323.5821 172.6586,323.926 172.3821,324.2989 172.1435,324.697 171.945,325.1166 171.7887,325.5537 171.6759,326.0039 171.6078,326.4631 171.585,326.9267 171.6078,327.3903 171.6759,327.8495 171.7887,328.2997 171.945,328.7368 172.1435,329.1564 172.3821,329.5545 172.6586,329.9274 172.9704,330.2713 173.3143,330.583 173.6871,330.8595 174.0853,331.0982 174.5049,331.2966 174.9419,331.453 175.3922,331.5658 175.8513,331.6339 176.315,331.6567 176.7786,331.6339 177.2377,331.5658 177.688,331.453 178.125,331.2966 178.5447,331.0982 178.9428,330.8595 179.3156,330.583 179.6596,330.2713 179.9713,329.9274 180.2478,329.5545 180.4864,329.1564 180.6849,328.7368 180.8413,328.2997 180.954,327.8495 181.0222,327.3903 181.0449,326.9267 181.0222,326.4631 180.954,326.0039 180.8413,325.5537 180.6849,325.1166 180.4864,324.697 180.2478,324.2989 179.9713,323.926"/>
    <polygon points="162.7467,324.5518 163.1663,324.7503 163.6033,324.9067 164.0536,325.0195 164.5128,325.0876 164.9764,325.1103 165.44,325.0876 165.8991,325.0195 166.3494,324.9067 166.7865,324.7503 167.2061,324.5518 167.6042,324.3132 167.977,324.0367 168.321,323.725 168.6327,323.381 168.9092,323.0082 169.1478,322.6101 169.3463,322.1904 169.5027,321.7534 169.6155,321.3031 169.6836,320.844 169.7064,320.3804 169.6836,319.9167 169.6155,319.4576 169.5027,319.0073 169.3463,318.5703 169.1478,318.1507 168.9092,317.7525 168.6327,317.3797 168.321,317.0358 167.977,316.724 167.6042,316.4475 167.2061,316.2089 166.7865,316.0104 166.3494,315.8541 165.8991,315.7413 165.44,315.6732 164.9764,315.6504 164.5128,315.6732 164.0536,315.7413 163.6033,315.8541 163.1663,316.0104 162.7467,316.2089 162.3485,316.4475 161.9757,316.724 161.6318,317.0358 161.3201,317.3797 161.0435,317.7525 160.8049,318.1507 160.6065,318.5703 160.4501,319.0073 160.3373,319.4576 160.2692,319.9167 160.2464,320.3804 160.2692,320.844 160.3373,321.3031 160.4501,321.7534 160.6065,322.1904 160.8049,322.6101 161.0435,323.0082 161.3201,323.381 161.6318,323.725 161.9757,324.0367 162.3485,324.3132"/>
    <polygon points="163.6033,337.9993 164.0536,338.1121 164.5128,338.1802 164.9764,338.203 165.44,338.1802 165.8991,338.1121 166.3494,337.9993 166.7865,337.843 167.2061,337.6445 167.6042,337.4059 167.977,337.1294 168.321,336.8176 168.6327,336.4737 168.9092,336.1009 169.1478,335.7027 169.3463,335.2831 169.5027,334.8461 169.6155,334.3958 169.6836,333.9367 169.7064,333.473 169.6836,333.0094 169.6155,332.5503 169.5027,332.1 169.3463,331.663 169.1478,331.2433 168.9092,330.8452 168.6327,330.4724 168.321,330.1284 167.977,329.8167 167.6042,329.5402 167.2061,329.3016 166.7865,329.1031 166.3494,328.9467 165.8991,328.8339 165.44,328.7658 164.9764,328.7431 164.5128,328.7658 164.0536,328.8339 163.6033,328.9467 163.1663,329.1031 162.7467,329.3016 162.3485,329.5402 161.9757,329.8167 161.6318,330.1284 161.3201,330.4724 161.0435,330.8452 160.8049,331.2433 160.6065,331.663 160.4501,332.1 160.3373,332.5503 160.2692,333.0094 160.2464,333.473 160.2692,333.9367 160.3373,334.3958 160.4501,334.8461 160.6065,335.2831 160.8049,335.7027 161.0435,336.1009 161.3201,336.4737 161.6318,336.8176 161.9757,337.1294 162.3485,337.4059 162.7467,337.6445 163.1663,337.843"/>
    <polygon points="139.2985,350.222 138.9546,349.9103 138.6429,349.5664 138.3664,349.1935 138.1277,348.7954 137.9293,348.3758 137.7729,347.9387 137.6601,347.4885 137.592,347.0293 137.5692,346.5657 137.592,346.1021 137.6601,345.6429 137.7729,345.1927 137.9293,344.7556 138.1277,344.336 138.3664,343.9379 138.6429,343.565 138.9546,343.2211 139.2985,342.9094 139.6714,342.6329 140.0695,342.3942 140.4891,342.1958 140.9262,342.0394 141.3764,341.9266 141.8356,341.8585 142.2992,341.8357 142.7628,341.8585 143.222,341.9266 143.6723,342.0394 144.1093,342.1958 144.5289,342.3942 144.927,342.6329 145.2999,342.9094 145.6438,343.2211 145.9555,343.565 146.232,343.9379 146.4707,344.336 146.6691,344.7556 146.8255,345.1927 146.9383,345.6429 147.0064,346.1021 147.0292,346.5657 147.0064,347.0293 146.9383,347.4885 146.8255,347.9387 146.6691,348.3758 146.4707,348.7954 146.232,349.1935 145.9555,349.5664 145.6438,349.9103 145.2999,350.222 144.927,350.4985 144.5289,350.7372 144.1093,350.9356 143.6723,351.092 143.222,351.2048 142.7628,351.2729 142.2992,351.2957 141.8356,351.2729 141.3764,351.2048 140.9262,351.092 140.4891,350.9356 140.0695,350.7372 139.6714,350.4985"/>
    <polygon points="151.01,336.0865 151.4081,335.8479 151.8277,335.6494 152.2648,335.4931 152.715,335.3803 153.1742,335.3122 153.6378,335.2894 154.1014,335.3122 154.5606,335.3803 155.0108,335.4931 155.4479,335.6494 155.8675,335.8479 156.2656,336.0865 156.6385,336.363 156.9824,336.6748 157.2941,337.0187 157.5706,337.3915 157.8093,337.7897 158.0077,338.2093 158.1641,338.6463 158.2769,339.0966 158.345,339.5557 158.3678,340.0194 158.345,340.483 158.2769,340.9421 158.1641,341.3924 158.0077,341.8294 157.8093,342.2491 157.5706,342.6472 157.2941,343.02 156.9824,343.364 156.6385,343.6757 156.2656,343.9522 155.8675,344.1908 155.4479,344.3893 155.0108,344.5457 154.5606,344.6585 154.1014,344.7266 153.6378,344.7493 153.1742,344.7266 152.715,344.6585 152.2648,344.5457 151.8277,344.3893 151.4081,344.1908 151.01,343.9522 150.6371,343.6757 150.2932,343.364 149.9815,343.02 149.705,342.6472 149.4663,342.2491 149.2679,341.8294 149.1115,341.3924 148.9987,340.9421 148.9306,340.483 148.9078,340.0194 148.9306,339.5557 148.9987,339.0966 149.1115,338.6463 149.2679,338.2093 149.4663,337.7897 149.705,337.3915 149.9815,337.0187 150.2932,336.6748 150.6371,336.363"/>
    <polygon points="160.8049,305.058 160.6065,305.4776 160.4501,305.9147 160.3373,306.3649 160.2692,306.8241 160.2464,307.2877 160.2692,307.7513 160.3373,308.2105 160.4501,308.6607 160.6065,309.0978 160.8049,309.5174 161.0435,309.9155 161.3201,310.2884 161.6318,310.6323 161.9757,310.944 162.3485,311.2205 162.7467,311.4592 163.1663,311.6576 163.6033,311.814 164.0536,311.9268 164.5128,311.9949 164.9764,312.0177 165.44,311.9949 165.8991,311.9268 166.3494,311.814 166.7865,311.6576 167.2061,311.4592 167.6042,311.2205 167.977,310.944 168.321,310.6323 168.6327,310.2884 168.9092,309.9155 169.1478,309.5174 169.3463,309.0978 169.5027,308.6607 169.6155,308.2105 169.6836,307.7513 169.7064,307.2877 169.6836,306.8241 169.6155,306.3649 169.5027,305.9147 169.3463,305.4776 169.1478,305.058 168.9092,304.6599 168.6327,304.287 168.321,303.9431 167.977,303.6314 167.6042,303.3549 167.2061,303.1162 166.7865,302.9178 166.3494,302.7614 165.8991,302.6486 165.44,302.5805 164.9764,302.5577 164.5128,302.5805 164.0536,302.6486 163.6033,302.7614 163.1663,302.9178 162.7467,303.1162 162.3485,303.3549 161.9757,303.6314 161.6318,303.9431 161.3201,304.287 161.0435,304.6599"/>
    <polygon points="171.6078,300.2777 171.585,300.7414 171.6078,301.205 171.6759,301.6641 171.7887,302.1144 171.945,302.5514 172.1435,302.9711 172.3821,303.3692 172.6586,303.742 172.9704,304.086 173.3143,304.3977 173.6871,304.6742 174.0853,304.9128 174.5049,305.1113 174.9419,305.2677 175.3922,305.3805 175.8513,305.4486 176.315,305.4713 176.7786,305.4486 177.2377,305.3805 177.688,305.2677 178.125,305.1113 178.5447,304.9128 178.9428,304.6742 179.3156,304.3977 179.6596,304.086 179.9713,303.742 180.2478,303.3692 180.4864,302.9711 180.6849,302.5514 180.8413,302.1144 180.954,301.6641 181.0222,301.205 181.0449,300.7414 181.0222,300.2777 180.954,299.8186 180.8413,299.3683 180.6849,298.9313 180.4864,298.5117 180.2478,298.1135 179.9713,297.7407 179.6596,297.3968 179.3156,297.085 178.9428,296.8085 178.5447,296.5699 178.125,296.3714 177.688,296.2151 177.2377,296.1023 176.7786,296.0342 176.315,296.0114 175.8513,296.0342 175.3922,296.1023 174.9419,296.2151 174.5049,296.3714 174.0853,296.5699 173.6871,296.8085 173.3143,297.085 172.9704,297.3968 172.6586,297.7407 172.3821,298.1135 172.1435,298.5117 171.945,298.9313 171.7887,299.3683 171.6759,299.8186"/>
    <polygon points="151.01,270.6232 150.6371,270.8997 150.2932,271.2114 149.9815,271.5554 149.705,271.9282 149.4663,272.3263 149.2679,272.7459 149.1115,273.183 148.9987,273.6333 148.9306,274.0924 148.9078,274.556 148.9306,275.0196 148.9987,275.4788 149.1115,275.9291 149.2679,276.3661 149.4663,276.7857 149.705,277.1839 149.9815,277.5567 150.2932,277.9006 150.6371,278.2123 151.01,278.4889 151.4081,278.7275 151.8277,278.926 152.2648,279.0823 152.715,279.1951 153.1742,279.2632 153.6378,279.286 154.1014,279.2632 154.5606,279.1951 155.0108,279.0823 155.4479,278.926 155.8675,278.7275 156.2656,278.4889 156.6385,278.2123 156.9824,277.9006 157.2941,277.5567 157.5706,277.1839 157.8093,276.7857 158.0077,276.3661 158.1641,275.9291 158.2769,275.4788 158.345,275.0196 158.3678,274.556 158.345,274.0924 158.2769,273.6333 158.1641,273.183 158.0077,272.7459 157.8093,272.3263 157.5706,271.9282 157.2941,271.5554 156.9824,271.2114 156.6385,270.8997 156.2656,270.6232 155.8675,270.3846 155.4479,270.1861 155.0108,270.0297 154.5606,269.9169 154.1014,269.8488 153.6378,269.8261 153.1742,269.8488 152.715,269.9169 152.2648,270.0297 151.8277,270.1861 151.4081,270.3846"/>
    <polygon points="148.9078,261.4634 148.9306,261.927 148.9987,262.3861 149.1115,262.8364 149.2679,263.2734 149.4663,263.6931 149.705,264.0912 149.9815,264.464 150.2932,264.808 150.6371,265.1197 151.01,265.3962 151.4081,265.6348 151.8277,265.8333 152.2648,265.9897 152.715,266.1024 153.1742,266.1706 153.6378,266.1933 154.1014,266.1706 154.5606,266.1024 155.0108,265.9897 155.4479,265.8333 155.8675,265.6348 156.2656,265.3962 156.6385,265.1197 156.9824,264.808 157.2941,264.464 157.5706,264.0912 157.8093,263.6931 158.0077,263.2734 158.1641,262.8364 158.2769,262.3861 158.345,261.927 158.3678,261.4634 158.345,260.9997 158.2769,260.5406 158.1641,260.0903 158.0077,259.6533 157.8093,259.2337 157.5706,258.8355 157.2941,258.4627 156.9824,258.1188 156.6385,257.807 156.2656,257.5305 155.8675,257.2919 155.4479,257.0934 155.0108,256.9371 154.5606,256.8243 154.1014,256.7562 153.6378,256.7334 153.1742,256.7562 152.715,256.8243 152.2648,256.9371 151.8277,257.0934 151.4081,257.2919 151.01,257.5305 150.6371,257.807 150.2932,258.1188 149.9815,258.4627 149.705,258.8355 149.4663,259.2337 149.2679,259.6533 149.1115,260.0903 148.9987,260.5406 148.9306,260.9997"/>
  </g>
</svg>
