<?xml version="1.0" encoding="utf-8" ?>
<svg xmlns="http://www.w3.org/2000/svg" xmlns:cc="http://creativecommons.org/ns" xmlns:dc="http://purl.org/dc/elements/1.1/" xmlns:ev="http://www.w3.org/2001/xml-events" xmlns:inkscape="http://www.inkscape.org/namespaces/inkscape" xmlns:rdf="http://www.w3.org/1999/02/22-rdf-syntax-ns" xmlns:sodipodi="http://sodipodi.sourceforge.net/DTD/sodipodi-0.dtd" xmlns:xlink="http://www.w3.org/1999/xlink" baseProfile="tiny" height="15.875cm" version="1.2" viewBox="0 0 432.0 600.0" width="11.43cm">
  <metadata>
    <rdf:RDF>
      <cc:Work>
        <dc:format>image/svg+xml</dc:format>
        <dc:source>vsk save -s 142 -c hex-grid/config/bubble-coasters-2.json /Users/tobin/src/fabian/plotting/fabian-plotting/hex-grid/sketch_hex_grid.py</dc:source>
        <dc:date>2023-11-04T10:32:59.492274</dc:date>
      </cc:Work>
    </rdf:RDF>
  </metadata>
  <defs/>
  <g fill="none" id="layer1" inkscape:groupmode="layer" inkscape:label="1" stroke="#000000" stroke-width="0.7559" style="display:inline">
    <polygon points="338.9879,296.8229 338.7114,297.1957 338.3997,297.5396 338.0558,297.8513 337.683,298.1279 337.2848,298.3665 336.8652,298.565 336.4282,298.7213 335.9779,298.8341 335.5187,298.9022 335.0551,298.925 334.5915,298.9022 334.1323,298.8341 333.6821,298.7213 333.245,298.565 332.8254,298.3665 332.4273,298.1279 332.0545,297.8513 331.7105,297.5396 331.3988,297.1957 331.1223,296.8229 330.8837,296.4247 330.6852,296.0051 330.5288,295.5681 330.416,295.1178 330.3479,294.6586 330.3251,294.195 330.3479,293.7314 330.416,293.2723 330.5288,292.822 330.6852,292.3849 330.8837,291.9653 331.1223,291.5672 331.3988,291.1944 331.7105,290.8504 332.0545,290.5387 332.4273,290.2622 332.8254,290.0236 333.245,289.8251 333.6821,289.6687 334.1323,289.5559 334.5915,289.4878 335.0551,289.4651 335.5187,289.4878 335.9779,289.5559 336.4282,289.6687 336.8652,289.8251 337.2848,290.0236 337.683,290.2622 338.0558,290.5387 338.3997,290.8504 338.7114,291.1944 338.9879,291.5672 339.2266,291.9653 339.425,292.3849 339.5814,292.822 339.6942,293.2723 339.7623,293.7314 339.7851,294.195 339.7623,294.6586 339.6942,295.1178 339.5814,295.5681 339.425,296.0051 339.2266,296.4247"/>
    <polygon points="341.7546,301.6641 341.6865,301.205 341.6637,300.7414 341.6865,300.2777 341.7546,299.8186 341.8674,299.3683 342.0238,298.9313 342.2222,298.5117 342.4609,298.1135 342.7374,297.7407 343.0491,297.3968 343.393,297.085 343.7659,296.8085 344.164,296.5699 344.5836,296.3714 345.0207,296.2151 345.4709,296.1023 345.9301,296.0342 346.3937,296.0114 346.8573,296.0342 347.3165,296.1023 347.7667,296.2151 348.2038,296.3714 348.6234,296.5699 349.0215,296.8085 349.3944,297.085 349.7383,297.3968 350.05,297.7407 350.3265,298.1135 350.5652,298.5117 350.7636,298.9313 350.92,299.3683 351.0328,299.8186 351.1009,300.2777 351.1237,300.7414 351.1009,301.205 351.0328,301.6641 350.92,302.1144 350.7636,302.5514 350.5652,302.9711 350.3265,303.3692 350.05,303.742 349.7383,304.086 349.3944,304.3977 349.0215,304.6742 348.6234,304.9128 348.2038,305.1113 347.7667,305.2677 347.3165,305.3805 346.8573,305.4486 346.3937,305.4713 345.9301,305.4486 345.4709,305.3805 345.0207,305.2677 344.5836,305.1113 344.164,304.9128 343.7659,304.6742 343.393,304.3977 343.0491,304.086 342.7374,303.742 342.4609,303.3692 342.2222,302.9711 342.0238,302.5514 341.8674,302.1144"/>
    <polygon points="350.05,316.8347 349.7383,317.1786 349.3944,317.4903 349.0215,317.7669 348.6234,318.0055 348.2038,318.204 347.7667,318.3603 347.3165,318.4731 346.8573,318.5412 346.3937,318.564 345.9301,318.5412 345.4709,318.4731 345.0207,318.3603 344.5836,318.204 344.164,318.0055 343.7659,317.7669 343.393,317.4903 343.0491,317.1786 342.7374,316.8347 342.4609,316.4619 342.2222,316.0637 342.0238,315.6441 341.8674,315.2071 341.7546,314.7568 341.6865,314.2976 341.6637,313.834 341.6865,313.3704 341.7546,312.9113 341.8674,312.461 342.0238,312.0239 342.2222,311.6043 342.4609,311.2062 342.7374,310.8334 343.0491,310.4894 343.393,310.1777 343.7659,309.9012 344.164,309.6626 344.5836,309.4641 345.0207,309.3077 345.4709,309.1949 345.9301,309.1268 346.3937,309.1041 346.8573,309.1268 347.3165,309.1949 347.7667,309.3077 348.2038,309.4641 348.6234,309.6626 349.0215,309.9012 349.3944,310.1777 349.7383,310.4894 350.05,310.8334 350.3265,311.2062 350.5652,311.6043 350.7636,312.0239 350.92,312.461 351.0328,312.9113 351.1009,313.3704 351.1237,313.834 351.1009,314.2976 351.0328,314.7568 350.92,315.2071 350.7636,315.6441 350.5652,316.0637 350.3265,316.4619"/>
    <polygon points="342.2222,329.1564 342.4609,329.5545 342.7374,329.9274 343.0491,330.2713 343.393,330.583 343.7659,330.8595 344.164,331.0982 344.5836,331.2966 345.0207,331.453 345.4709,331.5658 345.9301,331.6339 346.3937,331.6567 346.8573,331.6339 347.3165,331.5658 347.7667,331.453 348.2038,331.2966 348.6234,331.0982 349.0215,330.8595 349.3944,330.583 349.7383,330.2713 350.05,329.9274 350.3265,329.5545 350.5652,329.1564 350.7636,328.7368 350.92,328.2997 351.0328,327.8495 351.1009,327.3903 351.1237,326.9267 351.1009,326.4631 351.0328,326.0039 350.92,325.5537 350.7636,325.1166 350.5652,324.697 350.3265,324.2989 350.05,323.926 349.7383,323.5821 349.3944,323.2704 349.0215,322.9939 348.6234,322.7552 348.2038,322.5568 347.7667,322.4004 347.3165,322.2876 346.8573,322.2195 346.3937,322.1967 345.9301,322.2195 345.4709,322.2876 345.0207,322.4004 344.5836,322.5568 344.164,322.7552 343.7659,322.9939 343.393,323.2704 343.0491,323.5821 342.7374,323.926 342.4609,324.2989 342.2222,324.697 342.0238,325.1166 341.8674,325.5537 341.7546,326.0039 341.6865,326.4631 341.6637,326.9267 341.6865,327.3903 341.7546,327.8495 341.8674,328.2997 342.0238,328.7368"/>
    <polygon points="335.9779,341.9266 335.5187,341.8585 335.0551,341.8357 334.5915,341.8585 334.1323,341.9266 333.6821,342.0394 333.245,342.1958 332.8254,342.3942 332.4273,342.6329 332.0545,342.9094 331.7105,343.2211 331.3988,343.565 331.1223,343.9379 330.8837,344.336 330.6852,344.7556 330.5288,345.1927 330.416,345.6429 330.3479,346.1021 330.3251,346.5657 330.3479,347.0293 330.416,347.4885 330.5288,347.9387 330.6852,348.3758 330.8837,348.7954 331.1223,349.1935 331.3988,349.5664 331.7105,349.9103 332.0545,350.222 332.4273,350.4985 332.8254,350.7372 333.245,350.9356 333.6821,351.092 334.1323,351.2048 334.5915,351.2729 335.0551,351.2957 335.5187,351.2729 335.9779,351.2048 336.4282,351.092 336.8652,350.9356 337.2848,350.7372 337.683,350.4985 338.0558,350.222 338.3997,349.9103 338.7114,349.5664 338.9879,349.1935 339.2266,348.7954 339.425,348.3758 339.5814,347.9387 339.6942,347.4885 339.7623,347.0293 339.7851,346.5657 339.7623,346.1021 339.6942,345.6429 339.5814,345.1927 339.425,344.7556 339.2266,344.336 338.9879,343.9379 338.7114,343.565 338.3997,343.2211 338.0558,342.9094 337.683,342.6329 337.2848,342.3942 336.8652,342.1958 336.4282,342.0394"/>
    <polygon points="341.7546,352.1893 341.6865,352.6484 341.6637,353.112 341.6865,353.5757 341.7546,354.0348 341.8674,354.4851 342.0238,354.9221 342.2222,355.3417 342.4609,355.7399 342.7374,356.1127 343.0491,356.4566 343.393,356.7684 343.7659,357.0449 344.164,357.2835 344.5836,357.482 345.0207,357.6383 345.4709,357.7511 345.9301,357.8192 346.3937,357.842 346.8573,357.8192 347.3165,357.7511 347.7667,357.6383 348.2038,357.482 348.6234,357.2835 349.0215,357.0449 349.3944,356.7684 349.7383,356.4566 350.05,356.1127 350.3265,355.7399 350.5652,355.3417 350.7636,354.9221 350.92,354.4851 351.0328,354.0348 351.1009,353.5757 351.1237,353.112 351.1009,352.6484 351.0328,352.1893 350.92,351.739 350.7636,351.302 350.5652,350.8823 350.3265,350.4842 350.05,350.1114 349.7383,349.7674 349.3944,349.4557 349.0215,349.1792 348.6234,348.9406 348.2038,348.7421 347.7667,348.5857 347.3165,348.4729 346.8573,348.4048 346.3937,348.3821 345.9301,348.4048 345.4709,348.4729 345.0207,348.5857 344.5836,348.7421 344.164,348.9406 343.7659,349.1792 343.393,349.4557 343.0491,349.7674 342.7374,350.1114 342.4609,350.4842 342.2222,350.8823 342.0238,351.302 341.8674,351.739"/>
    <polygon points="354.076,362.659 354.3877,363.003 354.7316,363.3147 355.1045,363.5912 355.5026,363.8298 355.9222,364.0283 356.3592,364.1847 356.8095,364.2975 357.2687,364.3656 357.7323,364.3883 358.1959,364.3656 358.6551,364.2975 359.1053,364.1847 359.5424,364.0283 359.962,363.8298 360.3601,363.5912 360.7329,363.3147 361.0769,363.003 361.3886,362.659 361.6651,362.2862 361.9037,361.8881 362.1022,361.4684 362.2586,361.0314 362.3714,360.5811 362.4395,360.122 362.4623,359.6584 362.4395,359.1947 362.3714,358.7356 362.2586,358.2853 362.1022,357.8483 361.9037,357.4287 361.6651,357.0305 361.3886,356.6577 361.0769,356.3138 360.7329,356.002 360.3601,355.7255 359.962,355.4869 359.5424,355.2884 359.1053,355.1321 358.6551,355.0193 358.1959,354.9512 357.7323,354.9284 357.2687,354.9512 356.8095,355.0193 356.3592,355.1321 355.9222,355.2884 355.5026,355.4869 355.1045,355.7255 354.7316,356.002 354.3877,356.3138 354.076,356.6577 353.7995,357.0305 353.5608,357.4287 353.3624,357.8483 353.206,358.2853 353.0932,358.7356 353.0251,359.1947 353.0023,359.6584 353.0251,360.122 353.0932,360.5811 353.206,361.0314 353.3624,361.4684 353.5608,361.8881 353.7995,362.2862"/>
    <polygon points="351.1009,366.6683 351.1237,366.2047 351.1009,365.7411 351.0328,365.2819 350.92,364.8317 350.7636,364.3946 350.5652,363.975 350.3265,363.5769 350.05,363.204 349.7383,362.8601 349.3944,362.5484 349.0215,362.2719 348.6234,362.0332 348.2038,361.8348 347.7667,361.6784 347.3165,361.5656 346.8573,361.4975 346.3937,361.4747 345.9301,361.4975 345.4709,361.5656 345.0207,361.6784 344.5836,361.8348 344.164,362.0332 343.7659,362.2719 343.393,362.5484 343.0491,362.8601 342.7374,363.204 342.4609,363.5769 342.2222,363.975 342.0238,364.3946 341.8674,364.8317 341.7546,365.2819 341.6865,365.7411 341.6637,366.2047 341.6865,366.6683 341.7546,367.1275 341.8674,367.5777 342.0238,368.0148 342.2222,368.4344 342.4609,368.8325 342.7374,369.2054 343.0491,369.5493 343.393,369.861 343.7659,370.1375 344.164,370.3762 344.5836,370.5746 345.0207,370.731 345.4709,370.8438 345.9301,370.9119 346.3937,370.9347 346.8573,370.9119 347.3165,370.8438 347.7667,370.731 348.2038,370.5746 348.6234,370.3762 349.0215,370.1375 349.3944,369.861 349.7383,369.5493 350.05,369.2054 350.3265,368.8325 350.5652,368.4344 350.7636,368.0148 350.92,367.5777 351.0328,367.1275"/>
    <polygon points="312.378,354.9284 311.9143,354.9512 311.4552,355.0193 311.0049,355.1321 310.5679,355.2884 310.1483,355.4869 309.7501,355.7255 309.3773,356.002 309.0334,356.3138 308.7216,356.6577 308.4451,357.0305 308.2065,357.4287 308.008,357.8483 307.8517,358.2853 307.7389,358.7356 307.6708,359.1947 307.648,359.6584 307.6708,360.122 307.7389,360.5811 307.8517,361.0314 308.008,361.4684 308.2065,361.8881 308.4451,362.2862 308.7216,362.659 309.0334,363.003 309.3773,363.3147 309.7501,363.5912 310.1483,363.8298 310.5679,364.0283 311.0049,364.1847 311.4552,364.2975 311.9143,364.3656 312.378,364.3883 312.8416,364.3656 313.3007,364.2975 313.751,364.1847 314.188,364.0283 314.6076,363.8298 315.0058,363.5912 315.3786,363.3147 315.7225,363.003 316.0343,362.659 316.3108,362.2862 316.5494,361.8881 316.7479,361.4684 316.9043,361.0314 317.017,360.5811 317.0851,360.122 317.1079,359.6584 317.0851,359.1947 317.017,358.7356 316.9043,358.2853 316.7479,357.8483 316.5494,357.4287 316.3108,357.0305 316.0343,356.6577 315.7225,356.3138 315.3786,356.002 315.0058,355.7255 314.6076,355.4869 314.188,355.2884 313.751,355.1321 313.3007,355.0193 312.8416,354.9512"/>
    <polygon points="311.9143,341.8585 311.4552,341.9266 311.0049,342.0394 310.5679,342.1958 310.1483,342.3942 309.7501,342.6329 309.3773,342.9094 309.0334,343.2211 308.7216,343.565 308.4451,343.9379 308.2065,344.336 308.008,344.7556 307.8517,345.1927 307.7389,345.6429 307.6708,346.1021 307.648,346.5657 307.6708,347.0293 307.7389,347.4885 307.8517,347.9387 308.008,348.3758 308.2065,348.7954 308.4451,349.1935 308.7216,349.5664 309.0334,349.9103 309.3773,350.222 309.7501,350.4985 310.1483,350.7372 310.5679,350.9356 311.0049,351.092 311.4552,351.2048 311.9143,351.2729 312.378,351.2957 312.8416,351.2729 313.3007,351.2048 313.751,351.092 314.188,350.9356 314.6076,350.7372 315.0058,350.4985 315.3786,350.222 315.7225,349.9103 316.0343,349.5664 316.3108,349.1935 316.5494,348.7954 316.7479,348.3758 316.9043,347.9387 317.017,347.4885 317.0851,347.0293 317.1079,346.5657 317.0851,346.1021 317.017,345.6429 316.9043,345.1927 316.7479,344.7556 316.5494,344.336 316.3108,343.9379 316.0343,343.565 315.7225,343.2211 315.3786,342.9094 315.0058,342.6329 314.6076,342.3942 314.188,342.1958 313.751,342.0394 313.3007,341.9266 312.8416,341.8585 312.378,341.8357"/>
    <polygon points="325.5334,333.1915 326.1023,332.2423 326.5754,331.242 326.9482,330.2 327.2171,329.1266 327.3795,328.032 327.4338,326.9267 327.3795,325.8214 327.2171,324.7268 326.9482,323.6534 326.5754,322.6114 326.1023,321.6111 325.5334,320.6619 324.8742,319.7731 324.131,318.9531 323.3111,318.21 322.4223,317.5508 321.4731,316.9819 320.4727,316.5087 319.4308,316.1359 318.3574,315.8671 317.2628,315.7047 316.1575,315.6504 315.0522,315.7047 313.9576,315.8671 312.8841,316.1359 311.8422,316.5087 310.8419,316.9819 309.8927,317.5508 309.0039,318.21 308.1839,318.9531 307.4408,319.7731 306.7816,320.6619 306.2127,321.6111 305.7395,322.6114 305.3667,323.6534 305.0978,324.7268 304.9355,325.8214 304.8812,326.9267 304.9355,328.032 305.0978,329.1266 305.3667,330.2 305.7395,331.242 306.2127,332.2423 306.7816,333.1915 307.4408,334.0803 308.1839,334.9003 309.0039,335.6434 309.8927,336.3026 310.8419,336.8715 311.8422,337.3446 312.8841,337.7175 313.9576,337.9863 315.0522,338.1487 316.1575,338.203 317.2628,338.1487 318.3574,337.9863 319.4308,337.7175 320.4727,337.3446 321.4731,336.8715 322.4223,336.3026 323.3111,335.6434 324.131,334.9003 324.8742,334.0803"/>
    <polygon points="334.1323,328.8339 334.5915,328.7658 335.0551,328.7431 335.5187,328.7658 335.9779,328.8339 336.4282,328.9467 336.8652,329.1031 337.2848,329.3016 337.683,329.5402 338.0558,329.8167 338.3997,330.1284 338.7114,330.4724 338.9879,330.8452 339.2266,331.2433 339.425,331.663 339.5814,332.1 339.6942,332.5503 339.7623,333.0094 339.7851,333.473 339.7623,333.9367 339.6942,334.3958 339.5814,334.8461 339.425,335.2831 339.2266,335.7027 338.9879,336.1009 338.7114,336.4737 338.3997,336.8176 338.0558,337.1294 337.683,337.4059 337.2848,337.6445 336.8652,337.843 336.4282,337.9993 335.9779,338.1121 335.5187,338.1802 335.0551,338.203 334.5915,338.1802 334.1323,338.1121 333.6821,337.9993 333.245,337.843 332.8254,337.6445 332.4273,337.4059 332.0545,337.1294 331.7105,336.8176 331.3988,336.4737 331.1223,336.1009 330.8837,335.7027 330.6852,335.2831 330.5288,334.8461 330.416,334.3958 330.3479,333.9367 330.3251,333.473 330.3479,333.0094 330.416,332.5503 330.5288,332.1 330.6852,331.663 330.8837,331.2433 331.1223,330.8452 331.3988,330.4724 331.7105,330.1284 332.0545,329.8167 332.4273,329.5402 332.8254,329.3016 333.245,329.1031 333.6821,328.9467"/>
    <polygon points="332.4273,316.4475 332.8254,316.2089 333.245,316.0104 333.6821,315.8541 334.1323,315.7413 334.5915,315.6732 335.0551,315.6504 335.5187,315.6732 335.9779,315.7413 336.4282,315.8541 336.8652,316.0104 337.2848,316.2089 337.683,316.4475 338.0558,316.724 338.3997,317.0358 338.7114,317.3797 338.9879,317.7525 339.2266,318.1507 339.425,318.5703 339.5814,319.0073 339.6942,319.4576 339.7623,319.9167 339.7851,320.3804 339.7623,320.844 339.6942,321.3031 339.5814,321.7534 339.425,322.1904 339.2266,322.6101 338.9879,323.0082 338.7114,323.381 338.3997,323.725 338.0558,324.0367 337.683,324.3132 337.2848,324.5518 336.8652,324.7503 336.4282,324.9067 335.9779,325.0195 335.5187,325.0876 335.0551,325.1103 334.5915,325.0876 334.1323,325.0195 333.6821,324.9067 333.245,324.7503 332.8254,324.5518 332.4273,324.3132 332.0545,324.0367 331.7105,323.725 331.3988,323.381 331.1223,323.0082 330.8837,322.6101 330.6852,322.1904 330.5288,321.7534 330.416,321.3031 330.3479,320.844 330.3251,320.3804 330.3479,319.9167 330.416,319.4576 330.5288,319.0073 330.6852,318.5703 330.8837,318.1507 331.1223,317.7525 331.3988,317.3797 331.7105,317.0358 332.0545,316.724"/>
    <polygon points="307.4408,307.895 306.7816,307.0061 306.2127,306.057 305.7395,305.0566 305.3667,304.0147 305.0978,302.9413 304.9355,301.8466 304.8812,300.7414 304.9355,299.6361 305.0978,298.5415 305.3667,297.468 305.7395,296.4261 306.2127,295.4257 306.7816,294.4766 307.4408,293.5878 308.1839,292.7678 309.0039,292.0247 309.8927,291.3655 310.8419,290.7965 311.8422,290.3234 312.8841,289.9506 313.9576,289.6817 315.0522,289.5194 316.1575,289.4651 317.2628,289.5194 318.3574,289.6817 319.4308,289.9506 320.4727,290.3234 321.4731,290.7965 322.4223,291.3655 323.3111,292.0247 324.131,292.7678 324.8742,293.5878 325.5334,294.4766 326.1023,295.4257 326.5754,296.4261 326.9482,297.468 327.2171,298.5415 327.3795,299.6361 327.4338,300.7414 327.3795,301.8466 327.2171,302.9413 326.9482,304.0147 326.5754,305.0566 326.1023,306.057 325.5334,307.0061 324.8742,307.895 324.131,308.7149 323.3111,309.4581 322.4223,310.1173 321.4731,310.6862 320.4727,311.1593 319.4308,311.5321 318.3574,311.801 317.2628,311.9634 316.1575,312.0177 315.0522,311.9634 313.9576,311.801 312.8841,311.5321 311.8422,311.1593 310.8419,310.6862 309.8927,310.1173 309.0039,309.4581 308.1839,308.7149"/>
    <polygon points="283.1164,337.7348 285.4361,337.1537 287.6878,336.348 289.8497,335.3255 291.9009,334.0961 293.8217,332.6715 295.5937,331.0655 297.1997,329.2935 298.6243,327.3727 299.8537,325.3215 300.8762,323.1596 301.6819,320.908 302.2629,318.5882 302.6138,316.2226 302.7312,313.834 302.6138,311.4455 302.2629,309.0799 301.6819,306.7601 300.8762,304.5084 299.8537,302.3466 298.6243,300.2954 297.1997,298.3745 295.5937,296.6026 293.8217,294.9966 291.9009,293.572 289.8497,292.3425 287.6878,291.32 285.4361,290.5144 283.1164,289.9333 280.7508,289.5824 278.3622,289.4651 275.9736,289.5824 273.6081,289.9333 271.2883,290.5144 269.0366,291.32 266.8747,292.3425 264.8235,293.572 262.9027,294.9966 261.1307,296.6026 259.5247,298.3745 258.1001,300.2954 256.8707,302.3466 255.8482,304.5084 255.0426,306.7601 254.4615,309.0799 254.1106,311.4455 253.9932,313.834 254.1106,316.2226 254.4615,318.5882 255.0426,320.908 255.8482,323.1596 256.8707,325.3215 258.1001,327.3727 259.5247,329.2935 261.1307,331.0655 262.9027,332.6715 264.8235,334.0961 266.8747,335.3255 269.0366,336.348 271.2883,337.1537 273.6081,337.7348 275.9736,338.0857 278.3622,338.203 280.7508,338.0857"/>
    <polygon points="286.7001,356.002 286.3562,356.3138 286.0445,356.6577 285.768,357.0305 285.5293,357.4287 285.3309,357.8483 285.1745,358.2853 285.0617,358.7356 284.9936,359.1947 284.9708,359.6584 284.9936,360.122 285.0617,360.5811 285.1745,361.0314 285.3309,361.4684 285.5293,361.8881 285.768,362.2862 286.0445,362.659 286.3562,363.003 286.7001,363.3147 287.073,363.5912 287.4711,363.8298 287.8907,364.0283 288.3277,364.1847 288.778,364.2975 289.2372,364.3656 289.7008,364.3883 290.1644,364.3656 290.6236,364.2975 291.0738,364.1847 291.5109,364.0283 291.9305,363.8298 292.3286,363.5912 292.7015,363.3147 293.0454,363.003 293.3571,362.659 293.6336,362.2862 293.8723,361.8881 294.0707,361.4684 294.2271,361.0314 294.3399,360.5811 294.408,360.122 294.4308,359.6584 294.408,359.1947 294.3399,358.7356 294.2271,358.2853 294.0707,357.8483 293.8723,357.4287 293.6336,357.0305 293.3571,356.6577 293.0454,356.3138 292.7015,356.002 292.3286,355.7255 291.9305,355.4869 291.5109,355.2884 291.0738,355.1321 290.6236,355.0193 290.1644,354.9512 289.7008,354.9284 289.2372,354.9512 288.778,355.0193 288.3277,355.1321 287.8907,355.2884 287.4711,355.4869 287.073,355.7255"/>
    <polygon points="266.4879,363.53 267.5298,363.9028 268.6033,364.1717 269.6979,364.334 270.8031,364.3883 271.9084,364.334 273.003,364.1717 274.0765,363.9028 275.1184,363.53 276.1188,363.0568 277.0679,362.4879 277.9568,361.8287 278.7767,361.0856 279.5199,360.2656 280.1791,359.3768 280.748,358.4276 281.2211,357.4273 281.5939,356.3854 281.8628,355.3119 282.0252,354.2173 282.0795,353.112 282.0252,352.0068 281.8628,350.9121 281.5939,349.8387 281.2211,348.7968 280.748,347.7964 280.1791,346.8473 279.5199,345.9584 278.7767,345.1385 277.9568,344.3953 277.0679,343.7361 276.1188,343.1672 275.1184,342.6941 274.0765,342.3213 273.003,342.0524 271.9084,341.89 270.8031,341.8357 269.6979,341.89 268.6033,342.0524 267.5298,342.3213 266.4879,342.6941 265.4875,343.1672 264.5384,343.7361 263.6495,344.3953 262.8296,345.1385 262.0864,345.9584 261.4272,346.8473 260.8583,347.7964 260.3852,348.7968 260.0124,349.8387 259.7435,350.9121 259.5811,352.0068 259.5268,353.112 259.5811,354.2173 259.7435,355.3119 260.0124,356.3854 260.3852,357.4273 260.8583,358.4276 261.4272,359.3768 262.0864,360.2656 262.8296,361.0856 263.6495,361.8287 264.5384,362.4879 265.4875,363.0568"/>
    <polygon points="258.6857,369.861 259.0296,369.5493 259.3414,369.2054 259.6179,368.8325 259.8565,368.4344 260.055,368.0148 260.2113,367.5777 260.3241,367.1275 260.3922,366.6683 260.415,366.2047 260.3922,365.7411 260.3241,365.2819 260.2113,364.8317 260.055,364.3946 259.8565,363.975 259.6179,363.5769 259.3414,363.204 259.0296,362.8601 258.6857,362.5484 258.3129,362.2719 257.9147,362.0332 257.4951,361.8348 257.0581,361.6784 256.6078,361.5656 256.1487,361.4975 255.685,361.4747 255.2214,361.4975 254.7623,361.5656 254.312,361.6784 253.875,361.8348 253.4553,362.0332 253.0572,362.2719 252.6844,362.5484 252.3404,362.8601 252.0287,363.204 251.7522,363.5769 251.5136,363.975 251.3151,364.3946 251.1587,364.8317 251.046,365.2819 250.9778,365.7411 250.9551,366.2047 250.9778,366.6683 251.046,367.1275 251.1587,367.5777 251.3151,368.0148 251.5136,368.4344 251.7522,368.8325 252.0287,369.2054 252.3404,369.5493 252.6844,369.861 253.0572,370.1375 253.4553,370.3762 253.875,370.5746 254.312,370.731 254.7623,370.8438 255.2214,370.9119 255.685,370.9347 256.1487,370.9119 256.6078,370.8438 257.0581,370.731 257.4951,370.5746 257.9147,370.3762 258.3129,370.1375"/>
    <polygon points="267.4872,377.4582 267.9464,377.3901 268.3967,377.2773 268.8337,377.121 269.2533,376.9225 269.6515,376.6839 270.0243,376.4074 270.3682,376.0956 270.6799,375.7517 270.9565,375.3789 271.1951,374.9807 271.3935,374.5611 271.5499,374.1241 271.6627,373.6738 271.7308,373.2147 271.7536,372.751 271.7308,372.2874 271.6627,371.8283 271.5499,371.378 271.3935,370.941 271.1951,370.5213 270.9565,370.1232 270.6799,369.7504 270.3682,369.4064 270.0243,369.0947 269.6515,368.8182 269.2533,368.5796 268.8337,368.3811 268.3967,368.2247 267.9464,368.1119 267.4872,368.0438 267.0236,368.0211 266.56,368.0438 266.1009,368.1119 265.6506,368.2247 265.2135,368.3811 264.7939,368.5796 264.3958,368.8182 264.023,369.0947 263.679,369.4064 263.3673,369.7504 263.0908,370.1232 262.8522,370.5213 262.6537,370.941 262.4973,371.378 262.3845,371.8283 262.3164,372.2874 262.2936,372.751 262.3164,373.2147 262.3845,373.6738 262.4973,374.1241 262.6537,374.5611 262.8522,374.9807 263.0908,375.3789 263.3673,375.7517 263.679,376.0956 264.023,376.4074 264.3958,376.6839 264.7939,376.9225 265.2135,377.121 265.6506,377.2773 266.1009,377.3901 266.56,377.4582 267.0236,377.481"/>
    <polygon points="264.3958,389.7765 264.7939,390.0152 265.2135,390.2136 265.6506,390.37 266.1009,390.4828 266.56,390.5509 267.0236,390.5737 267.4872,390.5509 267.9464,390.4828 268.3967,390.37 268.8337,390.2136 269.2533,390.0152 269.6515,389.7765 270.0243,389.5 270.3682,389.1883 270.6799,388.8444 270.9565,388.4715 271.1951,388.0734 271.3935,387.6538 271.5499,387.2167 271.6627,386.7665 271.7308,386.3073 271.7536,385.8437 271.7308,385.3801 271.6627,384.9209 271.5499,384.4707 271.3935,384.0336 271.1951,383.614 270.9565,383.2159 270.6799,382.843 270.3682,382.4991 270.0243,382.1874 269.6515,381.9109 269.2533,381.6722 268.8337,381.4738 268.3967,381.3174 267.9464,381.2046 267.4872,381.1365 267.0236,381.1137 266.56,381.1365 266.1009,381.2046 265.6506,381.3174 265.2135,381.4738 264.7939,381.6722 264.3958,381.9109 264.023,382.1874 263.679,382.4991 263.3673,382.843 263.0908,383.2159 262.8522,383.614 262.6537,384.0336 262.4973,384.4707 262.3845,384.9209 262.3164,385.3801 262.2936,385.8437 262.3164,386.3073 262.3845,386.7665 262.4973,387.2167 262.6537,387.6538 262.8522,388.0734 263.0908,388.4715 263.3673,388.8444 263.679,389.1883 264.023,389.5"/>
    <polygon points="251.7522,381.9252 252.0287,382.298 252.3404,382.642 252.6844,382.9537 253.0572,383.2302 253.4553,383.4688 253.875,383.6673 254.312,383.8237 254.7623,383.9365 255.2214,384.0046 255.685,384.0273 256.1487,384.0046 256.6078,383.9365 257.0581,383.8237 257.4951,383.6673 257.9147,383.4688 258.3129,383.2302 258.6857,382.9537 259.0296,382.642 259.3414,382.298 259.6179,381.9252 259.8565,381.5271 260.055,381.1075 260.2113,380.6704 260.3241,380.2201 260.3922,379.761 260.415,379.2974 260.3922,378.8338 260.3241,378.3746 260.2113,377.9243 260.055,377.4873 259.8565,377.0677 259.6179,376.6695 259.3414,376.2967 259.0296,375.9528 258.6857,375.6411 258.3129,375.3645 257.9147,375.1259 257.4951,374.9274 257.0581,374.7711 256.6078,374.6583 256.1487,374.5902 255.685,374.5674 255.2214,374.5902 254.7623,374.6583 254.312,374.7711 253.875,374.9274 253.4553,375.1259 253.0572,375.3645 252.6844,375.6411 252.3404,375.9528 252.0287,376.2967 251.7522,376.6695 251.5136,377.0677 251.3151,377.4873 251.1587,377.9243 251.046,378.3746 250.9778,378.8338 250.9551,379.2974 250.9778,379.761 251.046,380.2201 251.1587,380.6704 251.3151,381.1075 251.5136,381.5271"/>
    <polygon points="243.8828,390.5509 244.3465,390.5737 244.8101,390.5509 245.2692,390.4828 245.7195,390.37 246.1565,390.2136 246.5762,390.0152 246.9743,389.7765 247.3471,389.5 247.6911,389.1883 248.0028,388.8444 248.2793,388.4715 248.5179,388.0734 248.7164,387.6538 248.8728,387.2167 248.9855,386.7665 249.0537,386.3073 249.0764,385.8437 249.0537,385.3801 248.9855,384.9209 248.8728,384.4707 248.7164,384.0336 248.5179,383.614 248.2793,383.2159 248.0028,382.843 247.6911,382.4991 247.3471,382.1874 246.9743,381.9109 246.5762,381.6722 246.1565,381.4738 245.7195,381.3174 245.2692,381.2046 244.8101,381.1365 244.3465,381.1137 243.8828,381.1365 243.4237,381.2046 242.9734,381.3174 242.5364,381.4738 242.1168,381.6722 241.7186,381.9109 241.3458,382.1874 241.0019,382.4991 240.6901,382.843 240.4136,383.2159 240.175,383.614 239.9765,384.0336 239.8202,384.4707 239.7074,384.9209 239.6393,385.3801 239.6165,385.8437 239.6393,386.3073 239.7074,386.7665 239.8202,387.2167 239.9765,387.6538 240.175,388.0734 240.4136,388.4715 240.6901,388.8444 241.0019,389.1883 241.3458,389.5 241.7186,389.7765 242.1168,390.0152 242.5364,390.2136 242.9734,390.37 243.4237,390.4828"/>
    <polygon points="237.5342,404.1097 237.3778,403.6726 237.1793,403.253 236.9407,402.8549 236.6642,402.482 236.3525,402.1381 236.0085,401.8264 235.6357,401.5499 235.2376,401.3112 234.818,401.1128 234.3809,400.9564 233.9306,400.8436 233.4715,400.7755 233.0079,400.7527 232.5443,400.7755 232.0851,400.8436 231.6348,400.9564 231.1978,401.1128 230.7782,401.3112 230.38,401.5499 230.0072,401.8264 229.6633,402.1381 229.3516,402.482 229.075,402.8549 228.8364,403.253 228.6379,403.6726 228.4816,404.1097 228.3688,404.5599 228.3007,405.0191 228.2779,405.4827 228.3007,405.9463 228.3688,406.4055 228.4816,406.8557 228.6379,407.2928 228.8364,407.7124 229.075,408.1105 229.3516,408.4834 229.6633,408.8273 230.0072,409.139 230.38,409.4155 230.7782,409.6542 231.1978,409.8526 231.6348,410.009 232.0851,410.1218 232.5443,410.1899 233.0079,410.2127 233.4715,410.1899 233.9306,410.1218 234.3809,410.009 234.818,409.8526 235.2376,409.6542 235.6357,409.4155 236.0085,409.139 236.3525,408.8273 236.6642,408.4834 236.9407,408.1105 237.1793,407.7124 237.3778,407.2928 237.5342,406.8557 237.647,406.4055 237.7151,405.9463 237.7378,405.4827 237.7151,405.0191 237.647,404.5599"/>
    <polygon points="221.2057,403.6436 221.6693,403.6663 222.1329,403.6436 222.5921,403.5755 223.0423,403.4627 223.4794,403.3063 223.899,403.1078 224.2971,402.8692 224.67,402.5927 225.0139,402.281 225.3256,401.937 225.6021,401.5642 225.8408,401.1661 226.0392,400.7465 226.1956,400.3094 226.3084,399.8591 226.3765,399.4 226.3993,398.9364 226.3765,398.4728 226.3084,398.0136 226.1956,397.5633 226.0392,397.1263 225.8408,396.7067 225.6021,396.3085 225.3256,395.9357 225.0139,395.5918 224.67,395.2801 224.2971,395.0035 223.899,394.7649 223.4794,394.5664 223.0423,394.4101 222.5921,394.2973 222.1329,394.2292 221.6693,394.2064 221.2057,394.2292 220.7465,394.2973 220.2963,394.4101 219.8592,394.5664 219.4396,394.7649 219.0415,395.0035 218.6686,395.2801 218.3247,395.5918 218.013,395.9357 217.7365,396.3085 217.4978,396.7067 217.2994,397.1263 217.143,397.5633 217.0302,398.0136 216.9621,398.4728 216.9393,398.9364 216.9621,399.4 217.0302,399.8591 217.143,400.3094 217.2994,400.7465 217.4978,401.1661 217.7365,401.5642 218.013,401.937 218.3247,402.281 218.6686,402.5927 219.0415,402.8692 219.4396,403.1078 219.8592,403.3063 220.2963,403.4627 220.7465,403.5755"/>
    <polygon points="205.9608,407.2928 206.1592,407.7124 206.3979,408.1105 206.6744,408.4834 206.9861,408.8273 207.33,409.139 207.7029,409.4155 208.101,409.6542 208.5206,409.8526 208.9577,410.009 209.4079,410.1218 209.8671,410.1899 210.3307,410.2127 210.7943,410.1899 211.2535,410.1218 211.7037,410.009 212.1408,409.8526 212.5604,409.6542 212.9585,409.4155 213.3314,409.139 213.6753,408.8273 213.987,408.4834 214.2635,408.1105 214.5022,407.7124 214.7006,407.2928 214.857,406.8557 214.9698,406.4055 215.0379,405.9463 215.0607,405.4827 215.0379,405.0191 214.9698,404.5599 214.857,404.1097 214.7006,403.6726 214.5022,403.253 214.2635,402.8549 213.987,402.482 213.6753,402.1381 213.3314,401.8264 212.9585,401.5499 212.5604,401.3112 212.1408,401.1128 211.7037,400.9564 211.2535,400.8436 210.7943,400.7755 210.3307,400.7527 209.8671,400.7755 209.4079,400.8436 208.9577,400.9564 208.5206,401.1128 208.101,401.3112 207.7029,401.5499 207.33,401.8264 206.9861,402.1381 206.6744,402.482 206.3979,402.8549 206.1592,403.253 205.9608,403.6726 205.8044,404.1097 205.6916,404.5599 205.6235,405.0191 205.6007,405.4827 205.6235,405.9463 205.6916,406.4055 205.8044,406.8557"/>
    <polygon points="203.6993,411.5654 203.6312,411.1063 203.5184,410.656 203.3621,410.219 203.1636,409.7993 202.925,409.4012 202.6484,409.0284 202.3367,408.6844 201.9928,408.3727 201.62,408.0962 201.2218,407.8576 200.8022,407.6591 200.3652,407.5027 199.9149,407.3899 199.4557,407.3218 198.9921,407.2991 198.5285,407.3218 198.0694,407.3899 197.6191,407.5027 197.182,407.6591 196.7624,407.8576 196.3643,408.0962 195.9915,408.3727 195.6475,408.6844 195.3358,409.0284 195.0593,409.4012 194.8207,409.7993 194.6222,410.219 194.4658,410.656 194.353,411.1063 194.2849,411.5654 194.2622,412.029 194.2849,412.4927 194.353,412.9518 194.4658,413.4021 194.6222,413.8391 194.8207,414.2587 195.0593,414.6569 195.3358,415.0297 195.6475,415.3736 195.9915,415.6854 196.3643,415.9619 196.7624,416.2005 197.182,416.399 197.6191,416.5553 198.0694,416.6681 198.5285,416.7362 198.9921,416.759 199.4557,416.7362 199.9149,416.6681 200.3652,416.5553 200.8022,416.399 201.2218,416.2005 201.62,415.9619 201.9928,415.6854 202.3367,415.3736 202.6484,415.0297 202.925,414.6569 203.1636,414.2587 203.3621,413.8391 203.5184,413.4021 203.6312,412.9518 203.6993,412.4927 203.7221,412.029"/>
    <polygon points="206.1592,416.3457 205.9608,416.7653 205.8044,417.2023 205.6916,417.6526 205.6235,418.1118 205.6007,418.5754 205.6235,419.039 205.6916,419.4981 205.8044,419.9484 205.9608,420.3855 206.1592,420.8051 206.3979,421.2032 206.6744,421.576 206.9861,421.92 207.33,422.2317 207.7029,422.5082 208.101,422.7468 208.5206,422.9453 208.9577,423.1017 209.4079,423.2145 209.8671,423.2826 210.3307,423.3053 210.7943,423.2826 211.2535,423.2145 211.7037,423.1017 212.1408,422.9453 212.5604,422.7468 212.9585,422.5082 213.3314,422.2317 213.6753,421.92 213.987,421.576 214.2635,421.2032 214.5022,420.8051 214.7006,420.3855 214.857,419.9484 214.9698,419.4981 215.0379,419.039 215.0607,418.5754 215.0379,418.1118 214.9698,417.6526 214.857,417.2023 214.7006,416.7653 214.5022,416.3457 214.2635,415.9475 213.987,415.5747 213.6753,415.2308 213.3314,414.9191 212.9585,414.6425 212.5604,414.4039 212.1408,414.2054 211.7037,414.0491 211.2535,413.9363 210.7943,413.8682 210.3307,413.8454 209.8671,413.8682 209.4079,413.9363 208.9577,414.0491 208.5206,414.2054 208.101,414.4039 207.7029,414.6425 207.33,414.9191 206.9861,415.2308 206.6744,415.5747 206.3979,415.9475"/>
    <polygon points="203.1636,422.892 202.925,422.4939 202.6484,422.121 202.3367,421.7771 201.9928,421.4654 201.62,421.1889 201.2218,420.9502 200.8022,420.7518 200.3652,420.5954 199.9149,420.4826 199.4557,420.4145 198.9921,420.3917 198.5285,420.4145 198.0694,420.4826 197.6191,420.5954 197.182,420.7518 196.7624,420.9502 196.3643,421.1889 195.9915,421.4654 195.6475,421.7771 195.3358,422.121 195.0593,422.4939 194.8207,422.892 194.6222,423.3116 194.4658,423.7487 194.353,424.1989 194.2849,424.6581 194.2622,425.1217 194.2849,425.5853 194.353,426.0445 194.4658,426.4947 194.6222,426.9318 194.8207,427.3514 195.0593,427.7495 195.3358,428.1224 195.6475,428.4663 195.9915,428.778 196.3643,429.0545 196.7624,429.2932 197.182,429.4916 197.6191,429.648 198.0694,429.7608 198.5285,429.8289 198.9921,429.8517 199.4557,429.8289 199.9149,429.7608 200.3652,429.648 200.8022,429.4916 201.2218,429.2932 201.62,429.0545 201.9928,428.778 202.3367,428.4663 202.6484,428.1224 202.925,427.7495 203.1636,427.3514 203.3621,426.9318 203.5184,426.4947 203.6312,426.0445 203.6993,425.5853 203.7221,425.1217 203.6993,424.6581 203.6312,424.1989 203.5184,423.7487 203.3621,423.3116"/>
    <polygon points="185.4101,415.4275 186.3593,414.8586 187.2481,414.1994 188.068,413.4563 188.8112,412.6363 189.4704,411.7475 190.0393,410.7983 190.5124,409.798 190.8852,408.756 191.1541,407.6826 191.3165,406.588 191.3708,405.4827 191.3165,404.3774 191.1541,403.2828 190.8852,402.2094 190.5124,401.1674 190.0393,400.1671 189.4704,399.2179 188.8112,398.3291 188.068,397.5092 187.2481,396.766 186.3593,396.1068 185.4101,395.5379 184.4097,395.0648 183.3678,394.692 182.2944,394.4231 181.1998,394.2607 180.0945,394.2064 178.9892,394.2607 177.8946,394.4231 176.8211,394.692 175.7792,395.0648 174.7789,395.5379 173.8297,396.1068 172.9409,396.766 172.1209,397.5092 171.3778,398.3291 170.7186,399.2179 170.1497,400.1671 169.6765,401.1674 169.3037,402.2094 169.0349,403.2828 168.8725,404.3774 168.8182,405.4827 168.8725,406.588 169.0349,407.6826 169.3037,408.756 169.6765,409.798 170.1497,410.7983 170.7186,411.7475 171.3778,412.6363 172.1209,413.4563 172.9409,414.1994 173.8297,414.8586 174.7789,415.4275 175.7792,415.9007 176.8211,416.2735 177.8946,416.5423 178.9892,416.7047 180.0945,416.759 181.1998,416.7047 182.2944,416.5423 183.3678,416.2735 184.4097,415.9007"/>
    <polygon points="179.6596,421.7771 179.3156,421.4654 178.9428,421.1889 178.5447,420.9502 178.125,420.7518 177.688,420.5954 177.2377,420.4826 176.7786,420.4145 176.315,420.3917 175.8513,420.4145 175.3922,420.4826 174.9419,420.5954 174.5049,420.7518 174.0853,420.9502 173.6871,421.1889 173.3143,421.4654 172.9704,421.7771 172.6586,422.121 172.3821,422.4939 172.1435,422.892 171.945,423.3116 171.7887,423.7487 171.6759,424.1989 171.6078,424.6581 171.585,425.1217 171.6078,425.5853 171.6759,426.0445 171.7887,426.4947 171.945,426.9318 172.1435,427.3514 172.3821,427.7495 172.6586,428.1224 172.9704,428.4663 173.3143,428.778 173.6871,429.0545 174.0853,429.2932 174.5049,429.4916 174.9419,429.648 175.3922,429.7608 175.8513,429.8289 176.315,429.8517 176.7786,429.8289 177.2377,429.7608 177.688,429.648 178.125,429.4916 178.5447,429.2932 178.9428,429.0545 179.3156,428.778 179.6596,428.4663 179.9713,428.1224 180.2478,427.7495 180.4864,427.3514 180.6849,426.9318 180.8413,426.4947 180.954,426.0445 181.0222,425.5853 181.0449,425.1217 181.0222,424.6581 180.954,424.1989 180.8413,423.7487 180.6849,423.3116 180.4864,422.892 180.2478,422.4939 179.9713,422.121"/>
    <polygon points="155.8675,434.0429 155.4479,433.8444 155.0108,433.6881 154.5606,433.5753 154.1014,433.5072 153.6378,433.4844 153.1742,433.5072 152.715,433.5753 152.2648,433.6881 151.8277,433.8444 151.4081,434.0429 151.01,434.2815 150.6371,434.5581 150.2932,434.8698 149.9815,435.2137 149.705,435.5865 149.4663,435.9847 149.2679,436.4043 149.1115,436.8413 148.9987,437.2916 148.9306,437.7508 148.9078,438.2144 148.9306,438.678 148.9987,439.1371 149.1115,439.5874 149.2679,440.0245 149.4663,440.4441 149.705,440.8422 149.9815,441.215 150.2932,441.559 150.6371,441.8707 151.01,442.1472 151.4081,442.3858 151.8277,442.5843 152.2648,442.7407 152.715,442.8535 153.1742,442.9216 153.6378,442.9443 154.1014,442.9216 154.5606,442.8535 155.0108,442.7407 155.4479,442.5843 155.8675,442.3858 156.2656,442.1472 156.6385,441.8707 156.9824,441.559 157.2941,441.215 157.5706,440.8422 157.8093,440.4441 158.0077,440.0245 158.1641,439.5874 158.2769,439.1371 158.345,438.678 158.3678,438.2144 158.345,437.7508 158.2769,437.2916 158.1641,436.8413 158.0077,436.4043 157.8093,435.9847 157.5706,435.5865 157.2941,435.2137 156.9824,434.8698 156.6385,434.5581 156.2656,434.2815"/>
    <polygon points="145.7998,433.8679 145.9622,432.7733 146.0165,431.668 145.9622,430.5628 145.7998,429.4681 145.5309,428.3947 145.1581,427.3528 144.685,426.3524 144.1161,425.4033 143.4569,424.5144 142.7137,423.6945 141.8938,422.9513 141.0049,422.2921 140.0558,421.7232 139.0554,421.2501 138.0135,420.8773 136.9401,420.6084 135.8454,420.446 134.7402,420.3917 133.6349,420.446 132.5403,420.6084 131.4668,420.8773 130.4249,421.2501 129.4245,421.7232 128.4754,422.2921 127.5865,422.9513 126.7666,423.6945 126.0235,424.5144 125.3643,425.4033 124.7953,426.3524 124.3222,427.3528 123.9494,428.3947 123.6805,429.4681 123.5181,430.5628 123.4639,431.668 123.5181,432.7733 123.6805,433.8679 123.9494,434.9414 124.3222,435.9833 124.7953,436.9837 125.3643,437.9328 126.0235,438.8217 126.7666,439.6416 127.5865,440.3847 128.4754,441.0439 129.4245,441.6129 130.4249,442.086 131.4668,442.4588 132.5403,442.7277 133.6349,442.89 134.7402,442.9443 135.8454,442.89 136.9401,442.7277 138.0135,442.4588 139.0554,442.086 140.0558,441.6129 141.0049,441.0439 141.8938,440.3847 142.7137,439.6416 143.4569,438.8217 144.1161,437.9328 144.685,436.9837 145.1581,435.9833 145.5309,434.9414"/>
    <polygon points="135.1321,449.0773 134.8935,448.6792 134.6169,448.3064 134.3052,447.9624 133.9613,447.6507 133.5885,447.3742 133.1903,447.1356 132.7707,446.9371 132.3337,446.7807 131.8834,446.668 131.4242,446.5998 130.9606,446.5771 130.497,446.5998 130.0379,446.668 129.5876,446.7807 129.1505,446.9371 128.7309,447.1356 128.3328,447.3742 127.96,447.6507 127.616,447.9624 127.3043,448.3064 127.0278,448.6792 126.7892,449.0773 126.5907,449.497 126.4343,449.934 126.3215,450.3843 126.2534,450.8434 126.2307,451.307 126.2534,451.7707 126.3215,452.2298 126.4343,452.6801 126.5907,453.1171 126.7892,453.5367 127.0278,453.9349 127.3043,454.3077 127.616,454.6516 127.96,454.9634 128.3328,455.2399 128.7309,455.4785 129.1505,455.677 129.5876,455.8333 130.0379,455.9461 130.497,456.0142 130.9606,456.037 131.4242,456.0142 131.8834,455.9461 132.3337,455.8333 132.7707,455.677 133.1903,455.4785 133.5885,455.2399 133.9613,454.9634 134.3052,454.6516 134.6169,454.3077 134.8935,453.9349 135.1321,453.5367 135.3306,453.1171 135.4869,452.6801 135.5997,452.2298 135.6678,451.7707 135.6906,451.307 135.6678,450.8434 135.5997,450.3843 135.4869,449.934 135.3306,449.497"/>
    <polygon points="123.2784,415.5747 122.9666,415.2308 122.6227,414.9191 122.2499,414.6425 121.8517,414.4039 121.4321,414.2054 120.9951,414.0491 120.5448,413.9363 120.0857,413.8682 119.622,413.8454 119.1584,413.8682 118.6993,413.9363 118.249,414.0491 117.812,414.2054 117.3924,414.4039 116.9942,414.6425 116.6214,414.9191 116.2775,415.2308 115.9657,415.5747 115.6892,415.9475 115.4506,416.3457 115.2521,416.7653 115.0957,417.2023 114.983,417.6526 114.9149,418.1118 114.8921,418.5754 114.9149,419.039 114.983,419.4981 115.0957,419.9484 115.2521,420.3855 115.4506,420.8051 115.6892,421.2032 115.9657,421.576 116.2775,421.92 116.6214,422.2317 116.9942,422.5082 117.3924,422.7468 117.812,422.9453 118.249,423.1017 118.6993,423.2145 119.1584,423.2826 119.622,423.3053 120.0857,423.2826 120.5448,423.2145 120.9951,423.1017 121.4321,422.9453 121.8517,422.7468 122.2499,422.5082 122.6227,422.2317 122.9666,421.92 123.2784,421.576 123.5549,421.2032 123.7935,420.8051 123.992,420.3855 124.1483,419.9484 124.2611,419.4981 124.3292,419.039 124.352,418.5754 124.3292,418.1118 124.2611,417.6526 124.1483,417.2023 123.992,416.7653 123.7935,416.3457 123.5549,415.9475"/>
    <polygon points="123.6805,407.6826 123.9494,408.756 124.3222,409.798 124.7953,410.7983 125.3643,411.7475 126.0235,412.6363 126.7666,413.4563 127.5865,414.1994 128.4754,414.8586 129.4245,415.4275 130.4249,415.9007 131.4668,416.2735 132.5403,416.5423 133.6349,416.7047 134.7402,416.759 135.8454,416.7047 136.9401,416.5423 138.0135,416.2735 139.0554,415.9007 140.0558,415.4275 141.0049,414.8586 141.8938,414.1994 142.7137,413.4563 143.4569,412.6363 144.1161,411.7475 144.685,410.7983 145.1581,409.798 145.5309,408.756 145.7998,407.6826 145.9622,406.588 146.0165,405.4827 145.9622,404.3774 145.7998,403.2828 145.5309,402.2094 145.1581,401.1674 144.685,400.1671 144.1161,399.2179 143.4569,398.3291 142.7137,397.5092 141.8938,396.766 141.0049,396.1068 140.0558,395.5379 139.0554,395.0648 138.0135,394.692 136.9401,394.4231 135.8454,394.2607 134.7402,394.2064 133.6349,394.2607 132.5403,394.4231 131.4668,394.692 130.4249,395.0648 129.4245,395.5379 128.4754,396.1068 127.5865,396.766 126.7666,397.5092 126.0235,398.3291 125.3643,399.2179 124.7953,400.1671 124.3222,401.1674 123.9494,402.2094 123.6805,403.2828 123.5181,404.3774 123.4639,405.4827 123.5181,406.588"/>
    <polygon points="103.5763,386.3073 103.6444,386.7665 103.7572,387.2167 103.9135,387.6538 104.112,388.0734 104.3506,388.4715 104.6271,388.8444 104.9389,389.1883 105.2828,389.5 105.6556,389.7765 106.0538,390.0152 106.4734,390.2136 106.9104,390.37 107.3607,390.4828 107.8198,390.5509 108.2835,390.5737 108.7471,390.5509 109.2062,390.4828 109.6565,390.37 110.0935,390.2136 110.5132,390.0152 110.9113,389.7765 111.2841,389.5 111.6281,389.1883 111.9398,388.8444 112.2163,388.4715 112.4549,388.0734 112.6534,387.6538 112.8098,387.2167 112.9226,386.7665 112.9907,386.3073 113.0134,385.8437 112.9907,385.3801 112.9226,384.9209 112.8098,384.4707 112.6534,384.0336 112.4549,383.614 112.2163,383.2159 111.9398,382.843 111.6281,382.4991 111.2841,382.1874 110.9113,381.9109 110.5132,381.6722 110.0935,381.4738 109.6565,381.3174 109.2062,381.2046 108.7471,381.1365 108.2835,381.1137 107.8198,381.1365 107.3607,381.2046 106.9104,381.3174 106.4734,381.4738 106.0538,381.6722 105.6556,381.9109 105.2828,382.1874 104.9389,382.4991 104.6271,382.843 104.3506,383.2159 104.112,383.614 103.9135,384.0336 103.7572,384.4707 103.6444,384.9209 103.5763,385.3801 103.5535,385.8437"/>
    <polygon points="98.3179,387.8637 97.8677,387.7509 97.4085,387.6828 96.9449,387.6601 96.4813,387.6828 96.0221,387.7509 95.5718,387.8637 95.1348,388.0201 94.7152,388.2186 94.317,388.4572 93.9442,388.7337 93.6003,389.0454 93.2886,389.3894 93.0121,389.7622 92.7734,390.1603 92.575,390.58 92.4186,391.017 92.3058,391.4673 92.2377,391.9264 92.2149,392.39 92.2377,392.8537 92.3058,393.3128 92.4186,393.7631 92.575,394.2001 92.7734,394.6197 93.0121,395.0179 93.2886,395.3907 93.6003,395.7346 93.9442,396.0464 94.317,396.3229 94.7152,396.5615 95.1348,396.76 95.5718,396.9163 96.0221,397.0291 96.4813,397.0972 96.9449,397.12 97.4085,397.0972 97.8677,397.0291 98.3179,396.9163 98.755,396.76 99.1746,396.5615 99.5727,396.3229 99.9455,396.0464 100.2895,395.7346 100.6012,395.3907 100.8777,395.0179 101.1163,394.6197 101.3148,394.2001 101.4712,393.7631 101.584,393.3128 101.6521,392.8537 101.6749,392.39 101.6521,391.9264 101.584,391.4673 101.4712,391.017 101.3148,390.58 101.1163,390.1603 100.8777,389.7622 100.6012,389.3894 100.2895,389.0454 99.9455,388.7337 99.5727,388.4572 99.1746,388.2186 98.755,388.0201"/>
    <polygon points="88.2341,395.0035 88.607,395.2801 88.9509,395.5918 89.2626,395.9357 89.5391,396.3085 89.7778,396.7067 89.9762,397.1263 90.1326,397.5633 90.2454,398.0136 90.3135,398.4728 90.3363,398.9364 90.3135,399.4 90.2454,399.8591 90.1326,400.3094 89.9762,400.7465 89.7778,401.1661 89.5391,401.5642 89.2626,401.937 88.9509,402.281 88.607,402.5927 88.2341,402.8692 87.836,403.1078 87.4164,403.3063 86.9793,403.4627 86.5291,403.5755 86.0699,403.6436 85.6063,403.6663 85.1427,403.6436 84.6835,403.5755 84.2333,403.4627 83.7962,403.3063 83.3766,403.1078 82.9785,402.8692 82.6056,402.5927 82.2617,402.281 81.95,401.937 81.6735,401.5642 81.4348,401.1661 81.2364,400.7465 81.08,400.3094 80.9672,399.8591 80.8991,399.4 80.8763,398.9364 80.8991,398.4728 80.9672,398.0136 81.08,397.5633 81.2364,397.1263 81.4348,396.7067 81.6735,396.3085 81.95,395.9357 82.2617,395.5918 82.6056,395.2801 82.9785,395.0035 83.3766,394.7649 83.7962,394.5664 84.2333,394.4101 84.6835,394.2973 85.1427,394.2292 85.6063,394.2064 86.0699,394.2292 86.5291,394.2973 86.9793,394.4101 87.4164,394.5664 87.836,394.7649"/>
    <polygon points="78.794,380.6704 78.6376,381.1075 78.4392,381.5271 78.2005,381.9252 77.924,382.298 77.6123,382.642 77.2684,382.9537 76.8955,383.2302 76.4974,383.4688 76.0778,383.6673 75.6408,383.8237 75.1905,383.9365 74.7313,384.0046 74.2677,384.0273 73.8041,384.0046 73.3449,383.9365 72.8947,383.8237 72.4576,383.6673 72.038,383.4688 71.6399,383.2302 71.2671,382.9537 70.9231,382.642 70.6114,382.298 70.3349,381.9252 70.0963,381.5271 69.8978,381.1075 69.7414,380.6704 69.6286,380.2201 69.5605,379.761 69.5377,379.2974 69.5605,378.8338 69.6286,378.3746 69.7414,377.9243 69.8978,377.4873 70.0963,377.0677 70.3349,376.6695 70.6114,376.2967 70.9231,375.9528 71.2671,375.6411 71.6399,375.3645 72.038,375.1259 72.4576,374.9274 72.8947,374.7711 73.3449,374.6583 73.8041,374.5902 74.2677,374.5674 74.7313,374.5902 75.1905,374.6583 75.6408,374.7711 76.0778,374.9274 76.4974,375.1259 76.8955,375.3645 77.2684,375.6411 77.6123,375.9528 77.924,376.2967 78.2005,376.6695 78.4392,377.0677 78.6376,377.4873 78.794,377.9243 78.9068,378.3746 78.9749,378.8338 78.9977,379.2974 78.9749,379.761 78.9068,380.2201"/>
    <polygon points="90.1326,384.4707 89.9762,384.0336 89.7778,383.614 89.5391,383.2159 89.2626,382.843 88.9509,382.4991 88.607,382.1874 88.2341,381.9109 87.836,381.6722 87.4164,381.4738 86.9793,381.3174 86.5291,381.2046 86.0699,381.1365 85.6063,381.1137 85.1427,381.1365 84.6835,381.2046 84.2333,381.3174 83.7962,381.4738 83.3766,381.6722 82.9785,381.9109 82.6056,382.1874 82.2617,382.4991 81.95,382.843 81.6735,383.2159 81.4348,383.614 81.2364,384.0336 81.08,384.4707 80.9672,384.9209 80.8991,385.3801 80.8763,385.8437 80.8991,386.3073 80.9672,386.7665 81.08,387.2167 81.2364,387.6538 81.4348,388.0734 81.6735,388.4715 81.95,388.8444 82.2617,389.1883 82.6056,389.5 82.9785,389.7765 83.3766,390.0152 83.7962,390.2136 84.2333,390.37 84.6835,390.4828 85.1427,390.5509 85.6063,390.5737 86.0699,390.5509 86.5291,390.4828 86.9793,390.37 87.4164,390.2136 87.836,390.0152 88.2341,389.7765 88.607,389.5 88.9509,389.1883 89.2626,388.8444 89.5391,388.4715 89.7778,388.0734 89.9762,387.6538 90.1326,387.2167 90.2454,386.7665 90.3135,386.3073 90.3363,385.8437 90.3135,385.3801 90.2454,384.9209"/>
    <polygon points="101.1163,377.0677 100.8777,376.6695 100.6012,376.2967 100.2895,375.9528 99.9455,375.6411 99.5727,375.3645 99.1746,375.1259 98.755,374.9274 98.3179,374.7711 97.8677,374.6583 97.4085,374.5902 96.9449,374.5674 96.4813,374.5902 96.0221,374.6583 95.5718,374.7711 95.1348,374.9274 94.7152,375.1259 94.317,375.3645 93.9442,375.6411 93.6003,375.9528 93.2886,376.2967 93.0121,376.6695 92.7734,377.0677 92.575,377.4873 92.4186,377.9243 92.3058,378.3746 92.2377,378.8338 92.2149,379.2974 92.2377,379.761 92.3058,380.2201 92.4186,380.6704 92.575,381.1075 92.7734,381.5271 93.0121,381.9252 93.2886,382.298 93.6003,382.642 93.9442,382.9537 94.317,383.2302 94.7152,383.4688 95.1348,383.6673 95.5718,383.8237 96.0221,383.9365 96.4813,384.0046 96.9449,384.0273 97.4085,384.0046 97.8677,383.9365 98.3179,383.8237 98.755,383.6673 99.1746,383.4688 99.5727,383.2302 99.9455,382.9537 100.2895,382.642 100.6012,382.298 100.8777,381.9252 101.1163,381.5271 101.3148,381.1075 101.4712,380.6704 101.584,380.2201 101.6521,379.761 101.6749,379.2974 101.6521,378.8338 101.584,378.3746 101.4712,377.9243 101.3148,377.4873"/>
    <polygon points="120.7797,373.3583 121.4389,372.4695 122.0078,371.5203 122.4809,370.52 122.8537,369.478 123.1226,368.4046 123.285,367.31 123.3393,366.2047 123.285,365.0994 123.1226,364.0048 122.8537,362.9314 122.4809,361.8894 122.0078,360.8891 121.4389,359.9399 120.7797,359.0511 120.0365,358.2311 119.2166,357.488 118.3278,356.8288 117.3786,356.2599 116.3782,355.7868 115.3363,355.4139 114.2629,355.1451 113.1683,354.9827 112.063,354.9284 110.9577,354.9827 109.8631,355.1451 108.7897,355.4139 107.7477,355.7868 106.7474,356.2599 105.7982,356.8288 104.9094,357.488 104.0894,358.2311 103.3463,359.0511 102.6871,359.9399 102.1182,360.8891 101.645,361.8894 101.2722,362.9314 101.0034,364.0048 100.841,365.0994 100.7867,366.2047 100.841,367.31 101.0034,368.4046 101.2722,369.478 101.645,370.52 102.1182,371.5203 102.6871,372.4695 103.3463,373.3583 104.0894,374.1783 104.9094,374.9214 105.7982,375.5806 106.7474,376.1495 107.7477,376.6226 108.7897,376.9955 109.8631,377.2643 110.9577,377.4267 112.063,377.481 113.1683,377.4267 114.2629,377.2643 115.3363,376.9955 116.3782,376.6226 117.3786,376.1495 118.3278,375.5806 119.2166,374.9214 120.0365,374.1783"/>
    <polygon points="125.0677,357.2508 126.8397,358.8568 128.7605,360.2814 130.8118,361.5109 132.9736,362.5334 135.2253,363.339 137.5451,363.9201 139.9106,364.271 142.2992,364.3883 144.6878,364.271 147.0534,363.9201 149.3732,363.339 151.6248,362.5334 153.7867,361.5109 155.8379,360.2814 157.7587,358.8568 159.5307,357.2508 161.1367,355.4789 162.5613,353.558 163.7907,351.5068 164.8132,349.345 165.6189,347.0933 166.1999,344.7735 166.5508,342.4079 166.6682,340.0194 166.5508,337.6308 166.1999,335.2652 165.6189,332.9454 164.8132,330.6938 163.7907,328.5319 162.5613,326.4807 161.1367,324.5599 159.5307,322.7879 157.7587,321.1819 155.8379,319.7573 153.7867,318.5278 151.6248,317.5054 149.3732,316.6997 147.0534,316.1186 144.6878,315.7677 142.2992,315.6504 139.9106,315.7677 137.5451,316.1186 135.2253,316.6997 132.9736,317.5054 130.8118,318.5278 128.7605,319.7573 126.8397,321.1819 125.0677,322.7879 123.4617,324.5599 122.0372,326.4807 120.8077,328.5319 119.7852,330.6938 118.9796,332.9454 118.3985,335.2652 118.0476,337.6308 117.9302,340.0194 118.0476,342.4079 118.3985,344.7735 118.9796,347.0933 119.7852,349.345 120.8077,351.5068 122.0372,353.558 123.4617,355.4789"/>
    <polygon points="141.0049,369.9215 140.0558,369.3526 139.0554,368.8794 138.0135,368.5066 136.9401,368.2377 135.8454,368.0754 134.7402,368.0211 133.6349,368.0754 132.5403,368.2377 131.4668,368.5066 130.4249,368.8794 129.4245,369.3526 128.4754,369.9215 127.5865,370.5807 126.7666,371.3238 126.0235,372.1438 125.3643,373.0326 124.7953,373.9818 124.3222,374.9821 123.9494,376.024 123.6805,377.0975 123.5181,378.1921 123.4639,379.2974 123.5181,380.4026 123.6805,381.4973 123.9494,382.5707 124.3222,383.6126 124.7953,384.613 125.3643,385.5621 126.0235,386.451 126.7666,387.2709 127.5865,388.0141 128.4754,388.6733 129.4245,389.2422 130.4249,389.7153 131.4668,390.0881 132.5403,390.357 133.6349,390.5194 134.7402,390.5737 135.8454,390.5194 136.9401,390.357 138.0135,390.0881 139.0554,389.7153 140.0558,389.2422 141.0049,388.6733 141.8938,388.0141 142.7137,387.2709 143.4569,386.451 144.1161,385.5621 144.685,384.613 145.1581,383.6126 145.5309,382.5707 145.7998,381.4973 145.9622,380.4026 146.0165,379.2974 145.9622,378.1921 145.7998,377.0975 145.5309,376.024 145.1581,374.9821 144.685,373.9818 144.1161,373.0326 143.4569,372.1438 142.7137,371.3238 141.8938,370.5807"/>
    <polygon points="155.4479,407.6591 155.8675,407.8576 156.2656,408.0962 156.6385,408.3727 156.9824,408.6844 157.2941,409.0284 157.5706,409.4012 157.8093,409.7993 158.0077,410.219 158.1641,410.656 158.2769,411.1063 158.345,411.5654 158.3678,412.029 158.345,412.4927 158.2769,412.9518 158.1641,413.4021 158.0077,413.8391 157.8093,414.2587 157.5706,414.6569 157.2941,415.0297 156.9824,415.3736 156.6385,415.6854 156.2656,415.9619 155.8675,416.2005 155.4479,416.399 155.0108,416.5553 154.5606,416.6681 154.1014,416.7362 153.6378,416.759 153.1742,416.7362 152.715,416.6681 152.2648,416.5553 151.8277,416.399 151.4081,416.2005 151.01,415.9619 150.6371,415.6854 150.2932,415.3736 149.9815,415.0297 149.705,414.6569 149.4663,414.2587 149.2679,413.8391 149.1115,413.4021 148.9987,412.9518 148.9306,412.4927 148.9078,412.029 148.9306,411.5654 148.9987,411.1063 149.1115,410.656 149.2679,410.219 149.4663,409.7993 149.705,409.4012 149.9815,409.0284 150.2932,408.6844 150.6371,408.3727 151.01,408.0962 151.4081,407.8576 151.8277,407.6591 152.2648,407.5027 152.715,407.3899 153.1742,407.3218 153.6378,407.2991 154.1014,407.3218 154.5606,407.3899 155.0108,407.5027"/>
    <polygon points="168.2081,395.6634 167.8353,396.7053 167.3621,397.7057 166.7932,398.6548 166.134,399.5436 165.3909,400.3636 164.5709,401.1067 163.6821,401.7659 162.7329,402.3349 161.7326,402.808 160.6907,403.1808 159.6172,403.4497 158.5226,403.612 157.4173,403.6663 156.3121,403.612 155.2174,403.4497 154.144,403.1808 153.1021,402.808 152.1017,402.3349 151.1525,401.7659 150.2637,401.1067 149.4438,400.3636 148.7006,399.5436 148.0414,398.6548 147.4725,397.7057 146.9994,396.7053 146.6266,395.6634 146.3577,394.5899 146.1953,393.4953 146.141,392.39 146.1953,391.2848 146.3577,390.1901 146.6266,389.1167 146.9994,388.0748 147.4725,387.0744 148.0414,386.1253 148.7006,385.2364 149.4438,384.4165 150.2637,383.6733 151.1525,383.0141 152.1017,382.4452 153.1021,381.9721 154.144,381.5993 155.2174,381.3304 156.3121,381.168 157.4173,381.1137 158.5226,381.168 159.6172,381.3304 160.6907,381.5993 161.7326,381.9721 162.7329,382.4452 163.6821,383.0141 164.5709,383.6733 165.3909,384.4165 166.134,385.2364 166.7932,386.1253 167.3621,387.0744 167.8353,388.0748 168.2081,389.1167 168.477,390.1901 168.6393,391.2848 168.6936,392.39 168.6393,393.4953 168.477,394.5899"/>
    <polygon points="197.456,356.2599 196.5069,356.8288 195.618,357.488 194.7981,358.2311 194.055,359.0511 193.3957,359.9399 192.8268,360.8891 192.3537,361.8894 191.9809,362.9314 191.712,364.0048 191.5496,365.0994 191.4953,366.2047 191.5496,367.31 191.712,368.4046 191.9809,369.478 192.3537,370.52 192.8268,371.5203 193.3957,372.4695 194.055,373.3583 194.7981,374.1783 195.618,374.9214 196.5069,375.5806 197.456,376.1495 198.4564,376.6226 199.4983,376.9955 200.5718,377.2643 201.6664,377.4267 202.7717,377.481 203.8769,377.4267 204.9716,377.2643 206.045,376.9955 207.0869,376.6226 208.0873,376.1495 209.0364,375.5806 209.9253,374.9214 210.7452,374.1783 211.4884,373.3583 212.1476,372.4695 212.7165,371.5203 213.1896,370.52 213.5624,369.478 213.8313,368.4046 213.9937,367.31 214.048,366.2047 213.9937,365.0994 213.8313,364.0048 213.5624,362.9314 213.1896,361.8894 212.7165,360.8891 212.1476,359.9399 211.4884,359.0511 210.7452,358.2311 209.9253,357.488 209.0364,356.8288 208.0873,356.2599 207.0869,355.7868 206.045,355.4139 204.9716,355.1451 203.8769,354.9827 202.7717,354.9284 201.6664,354.9827 200.5718,355.1451 199.4983,355.4139 198.4564,355.7868"/>
    <polygon points="219.4692,360.2814 221.5204,361.5109 223.6823,362.5334 225.9339,363.339 228.2537,363.9201 230.6193,364.271 233.0079,364.3883 235.3965,364.271 237.762,363.9201 240.0818,363.339 242.3335,362.5334 244.4953,361.5109 246.5466,360.2814 248.4674,358.8568 250.2393,357.2508 251.8453,355.4789 253.2699,353.558 254.4994,351.5068 255.5219,349.345 256.3275,347.0933 256.9086,344.7735 257.2595,342.4079 257.3768,340.0194 257.2595,337.6308 256.9086,335.2652 256.3275,332.9454 255.5219,330.6938 254.4994,328.5319 253.2699,326.4807 251.8453,324.5599 250.2393,322.7879 248.4674,321.1819 246.5466,319.7573 244.4953,318.5278 242.3335,317.5054 240.0818,316.6997 237.762,316.1186 235.3965,315.7677 233.0079,315.6504 230.6193,315.7677 228.2537,316.1186 225.9339,316.6997 223.6823,317.5054 221.5204,318.5278 219.4692,319.7573 217.5484,321.1819 215.7764,322.7879 214.1704,324.5599 212.7458,326.4807 211.5164,328.5319 210.4939,330.6938 209.6882,332.9454 209.1071,335.2652 208.7562,337.6308 208.6389,340.0194 208.7562,342.4079 209.1071,344.7735 209.6882,347.0933 210.4939,349.345 211.5164,351.5068 212.7458,353.558 214.1704,355.4789 215.7764,357.2508 217.5484,358.8568"/>
    <polygon points="231.7136,369.9215 230.7644,369.3526 229.7641,368.8794 228.7222,368.5066 227.6487,368.2377 226.5541,368.0754 225.4488,368.0211 224.3435,368.0754 223.2489,368.2377 222.1755,368.5066 221.1336,368.8794 220.1332,369.3526 219.184,369.9215 218.2952,370.5807 217.4753,371.3238 216.7321,372.1438 216.0729,373.0326 215.504,373.9818 215.0309,374.9821 214.6581,376.024 214.3892,377.0975 214.2268,378.1921 214.1725,379.2974 214.2268,380.4026 214.3892,381.4973 214.6581,382.5707 215.0309,383.6126 215.504,384.613 216.0729,385.5621 216.7321,386.451 217.4753,387.2709 218.2952,388.0141 219.184,388.6733 220.1332,389.2422 221.1336,389.7153 222.1755,390.0881 223.2489,390.357 224.3435,390.5194 225.4488,390.5737 226.5541,390.5194 227.6487,390.357 228.7222,390.0881 229.7641,389.7153 230.7644,389.2422 231.7136,388.6733 232.6024,388.0141 233.4224,387.2709 234.1655,386.451 234.8247,385.5621 235.3936,384.613 235.8668,383.6126 236.2396,382.5707 236.5085,381.4973 236.6708,380.4026 236.7251,379.2974 236.6708,378.1921 236.5085,377.0975 236.2396,376.024 235.8668,374.9821 235.3936,373.9818 234.8247,373.0326 234.1655,372.1438 233.4224,371.3238 232.6024,370.5807"/>
    <polygon points="211.9052,311.4455 211.5543,309.0799 210.9732,306.7601 210.1675,304.5084 209.1451,302.3466 207.9156,300.2954 206.491,298.3745 204.885,296.6026 203.1131,294.9966 201.1922,293.572 199.141,292.3425 196.9791,291.32 194.7275,290.5144 192.4077,289.9333 190.0421,289.5824 187.6535,289.4651 185.265,289.5824 182.8994,289.9333 180.5796,290.5144 178.3279,291.32 176.1661,292.3425 174.1149,293.572 172.194,294.9966 170.4221,296.6026 168.8161,298.3745 167.3915,300.2954 166.162,302.3466 165.1395,304.5084 164.3339,306.7601 163.7528,309.0799 163.4019,311.4455 163.2846,313.834 163.4019,316.2226 163.7528,318.5882 164.3339,320.908 165.1395,323.1596 166.162,325.3215 167.3915,327.3727 168.8161,329.2935 170.4221,331.0655 172.194,332.6715 174.1149,334.0961 176.1661,335.3255 178.3279,336.348 180.5796,337.1537 182.8994,337.7348 185.265,338.0857 187.6535,338.203 190.0421,338.0857 192.4077,337.7348 194.7275,337.1537 196.9791,336.348 199.141,335.3255 201.1922,334.0961 203.1131,332.6715 204.885,331.0655 206.491,329.2935 207.9156,327.3727 209.1451,325.3215 210.1675,323.1596 210.9732,320.908 211.5543,318.5882 211.9052,316.2226 212.0225,313.834"/>
    <polygon points="237.3778,302.5514 237.5342,302.1144 237.647,301.6641 237.7151,301.205 237.7378,300.7414 237.7151,300.2777 237.647,299.8186 237.5342,299.3683 237.3778,298.9313 237.1793,298.5117 236.9407,298.1135 236.6642,297.7407 236.3525,297.3968 236.0085,297.085 235.6357,296.8085 235.2376,296.5699 234.818,296.3714 234.3809,296.2151 233.9306,296.1023 233.4715,296.0342 233.0079,296.0114 232.5443,296.0342 232.0851,296.1023 231.6348,296.2151 231.1978,296.3714 230.7782,296.5699 230.38,296.8085 230.0072,297.085 229.6633,297.3968 229.3516,297.7407 229.075,298.1135 228.8364,298.5117 228.6379,298.9313 228.4816,299.3683 228.3688,299.8186 228.3007,300.2777 228.2779,300.7414 228.3007,301.205 228.3688,301.6641 228.4816,302.1144 228.6379,302.5514 228.8364,302.9711 229.075,303.3692 229.3516,303.742 229.6633,304.086 230.0072,304.3977 230.38,304.6742 230.7782,304.9128 231.1978,305.1113 231.6348,305.2677 232.0851,305.3805 232.5443,305.4486 233.0079,305.4713 233.4715,305.4486 233.9306,305.3805 234.3809,305.2677 234.818,305.1113 235.2376,304.9128 235.6357,304.6742 236.0085,304.3977 236.3525,304.086 236.6642,303.742 236.9407,303.3692 237.1793,302.9711"/>
    <polygon points="259.4023,287.6487 259.348,288.754 259.1856,289.8486 258.9167,290.922 258.5439,291.964 258.0708,292.9643 257.5019,293.9135 256.8427,294.8023 256.0995,295.6222 255.2796,296.3654 254.3908,297.0246 253.4416,297.5935 252.4412,298.0666 251.3993,298.4394 250.3259,298.7083 249.2313,298.8707 248.126,298.925 247.0207,298.8707 245.9261,298.7083 244.8526,298.4394 243.8107,298.0666 242.8104,297.5935 241.8612,297.0246 240.9724,296.3654 240.1524,295.6222 239.4093,294.8023 238.7501,293.9135 238.1812,292.9643 237.708,291.964 237.3352,290.922 237.0663,289.8486 236.904,288.754 236.8497,287.6487 236.904,286.5434 237.0663,285.4488 237.3352,284.3754 237.708,283.3334 238.1812,282.3331 238.7501,281.3839 239.4093,280.4951 240.1524,279.6751 240.9724,278.932 241.8612,278.2728 242.8104,277.7039 243.8107,277.2307 244.8526,276.8579 245.9261,276.5891 247.0207,276.4267 248.126,276.3724 249.2313,276.4267 250.3259,276.5891 251.3993,276.8579 252.4412,277.2307 253.4416,277.7039 254.3908,278.2728 255.2796,278.932 256.0995,279.6751 256.8427,280.4951 257.5019,281.3839 258.0708,282.3331 258.5439,283.3334 258.9167,284.3754 259.1856,285.4488 259.348,286.5434"/>
    <polygon points="262.0864,267.4024 261.4272,268.2912 260.8583,269.2404 260.3852,270.2408 260.0124,271.2827 259.7435,272.3561 259.5811,273.4508 259.5268,274.556 259.5811,275.6613 259.7435,276.7559 260.0124,277.8294 260.3852,278.8713 260.8583,279.8716 261.4272,280.8208 262.0864,281.7096 262.8296,282.5296 263.6495,283.2727 264.5384,283.9319 265.4875,284.5008 266.4879,284.974 267.5298,285.3468 268.6033,285.6157 269.6979,285.778 270.8031,285.8323 271.9084,285.778 273.003,285.6157 274.0765,285.3468 275.1184,284.974 276.1188,284.5008 277.0679,283.9319 277.9568,283.2727 278.7767,282.5296 279.5199,281.7096 280.1791,280.8208 280.748,279.8716 281.2211,278.8713 281.5939,277.8294 281.8628,276.7559 282.0252,275.6613 282.0795,274.556 282.0252,273.4508 281.8628,272.3561 281.5939,271.2827 281.2211,270.2408 280.748,269.2404 280.1791,268.2912 279.5199,267.4024 278.7767,266.5825 277.9568,265.8393 277.0679,265.1801 276.1188,264.6112 275.1184,264.1381 274.0765,263.7653 273.003,263.4964 271.9084,263.334 270.8031,263.2797 269.6979,263.334 268.6033,263.4964 267.5298,263.7653 266.4879,264.1381 265.4875,264.6112 264.5384,265.1801 263.6495,265.8393 262.8296,266.5825"/>
    <polygon points="231.1978,278.926 231.6348,279.0823 232.0851,279.1951 232.5443,279.2632 233.0079,279.286 233.4715,279.2632 233.9306,279.1951 234.3809,279.0823 234.818,278.926 235.2376,278.7275 235.6357,278.4889 236.0085,278.2123 236.3525,277.9006 236.6642,277.5567 236.9407,277.1839 237.1793,276.7857 237.3778,276.3661 237.5342,275.9291 237.647,275.4788 237.7151,275.0196 237.7378,274.556 237.7151,274.0924 237.647,273.6333 237.5342,273.183 237.3778,272.7459 237.1793,272.3263 236.9407,271.9282 236.6642,271.5554 236.3525,271.2114 236.0085,270.8997 235.6357,270.6232 235.2376,270.3846 234.818,270.1861 234.3809,270.0297 233.9306,269.9169 233.4715,269.8488 233.0079,269.8261 232.5443,269.8488 232.0851,269.9169 231.6348,270.0297 231.1978,270.1861 230.7782,270.3846 230.38,270.6232 230.0072,270.8997 229.6633,271.2114 229.3516,271.5554 229.075,271.9282 228.8364,272.3263 228.6379,272.7459 228.4816,273.183 228.3688,273.6333 228.3007,274.0924 228.2779,274.556 228.3007,275.0196 228.3688,275.4788 228.4816,275.9291 228.6379,276.3661 228.8364,276.7857 229.075,277.1839 229.3516,277.5567 229.6633,277.9006 230.0072,278.2123 230.38,278.4889 230.7782,278.7275"/>
    <polygon points="239.6165,268.0097 239.6393,268.4733 239.7074,268.9325 239.8202,269.3827 239.9765,269.8198 240.175,270.2394 240.4136,270.6375 240.6901,271.0104 241.0019,271.3543 241.3458,271.666 241.7186,271.9425 242.1168,272.1812 242.5364,272.3796 242.9734,272.536 243.4237,272.6488 243.8828,272.7169 244.3465,272.7397 244.8101,272.7169 245.2692,272.6488 245.7195,272.536 246.1565,272.3796 246.5762,272.1812 246.9743,271.9425 247.3471,271.666 247.6911,271.3543 248.0028,271.0104 248.2793,270.6375 248.5179,270.2394 248.7164,269.8198 248.8728,269.3827 248.9855,268.9325 249.0537,268.4733 249.0764,268.0097 249.0537,267.5461 248.9855,267.0869 248.8728,266.6367 248.7164,266.1996 248.5179,265.78 248.2793,265.3819 248.0028,265.009 247.6911,264.6651 247.3471,264.3534 246.9743,264.0769 246.5762,263.8382 246.1565,263.6398 245.7195,263.4834 245.2692,263.3706 244.8101,263.3025 244.3465,263.2797 243.8828,263.3025 243.4237,263.3706 242.9734,263.4834 242.5364,263.6398 242.1168,263.8382 241.7186,264.0769 241.3458,264.3534 241.0019,264.6651 240.6901,265.009 240.4136,265.3819 240.175,265.78 239.9765,266.1996 239.8202,266.6367 239.7074,267.0869 239.6393,267.5461"/>
    <polygon points="239.6165,254.917 239.6393,255.3806 239.7074,255.8398 239.8202,256.2901 239.9765,256.7271 240.175,257.1467 240.4136,257.5449 240.6901,257.9177 241.0019,258.2616 241.3458,258.5733 241.7186,258.8499 242.1168,259.0885 242.5364,259.287 242.9734,259.4433 243.4237,259.5561 243.8828,259.6242 244.3465,259.647 244.8101,259.6242 245.2692,259.5561 245.7195,259.4433 246.1565,259.287 246.5762,259.0885 246.9743,258.8499 247.3471,258.5733 247.6911,258.2616 248.0028,257.9177 248.2793,257.5449 248.5179,257.1467 248.7164,256.7271 248.8728,256.2901 248.9855,255.8398 249.0537,255.3806 249.0764,254.917 249.0537,254.4534 248.9855,253.9943 248.8728,253.544 248.7164,253.1069 248.5179,252.6873 248.2793,252.2892 248.0028,251.9164 247.6911,251.5724 247.3471,251.2607 246.9743,250.9842 246.5762,250.7456 246.1565,250.5471 245.7195,250.3907 245.2692,250.2779 244.8101,250.2098 244.3465,250.1871 243.8828,250.2098 243.4237,250.2779 242.9734,250.3907 242.5364,250.5471 242.1168,250.7456 241.7186,250.9842 241.3458,251.2607 241.0019,251.5724 240.6901,251.9164 240.4136,252.2892 240.175,252.6873 239.9765,253.1069 239.8202,253.544 239.7074,253.9943 239.6393,254.4534"/>
    <polygon points="271.3935,253.1069 271.1951,252.6873 270.9565,252.2892 270.6799,251.9164 270.3682,251.5724 270.0243,251.2607 269.6515,250.9842 269.2533,250.7456 268.8337,250.5471 268.3967,250.3907 267.9464,250.2779 267.4872,250.2098 267.0236,250.1871 266.56,250.2098 266.1009,250.2779 265.6506,250.3907 265.2135,250.5471 264.7939,250.7456 264.3958,250.9842 264.023,251.2607 263.679,251.5724 263.3673,251.9164 263.0908,252.2892 262.8522,252.6873 262.6537,253.1069 262.4973,253.544 262.3845,253.9943 262.3164,254.4534 262.2936,254.917 262.3164,255.3806 262.3845,255.8398 262.4973,256.2901 262.6537,256.7271 262.8522,257.1467 263.0908,257.5449 263.3673,257.9177 263.679,258.2616 264.023,258.5733 264.3958,258.8499 264.7939,259.0885 265.2135,259.287 265.6506,259.4433 266.1009,259.5561 266.56,259.6242 267.0236,259.647 267.4872,259.6242 267.9464,259.5561 268.3967,259.4433 268.8337,259.287 269.2533,259.0885 269.6515,258.8499 270.0243,258.5733 270.3682,258.2616 270.6799,257.9177 270.9565,257.5449 271.1951,257.1467 271.3935,256.7271 271.5499,256.2901 271.6627,255.8398 271.7308,255.3806 271.7536,254.917 271.7308,254.4534 271.6627,253.9943 271.5499,253.544"/>
    <polygon points="283.0694,247.9071 283.0013,247.4479 282.8885,246.9977 282.7321,246.5606 282.5337,246.141 282.295,245.7429 282.0185,245.37 281.7068,245.0261 281.3629,244.7144 280.99,244.4379 280.5919,244.1992 280.1723,244.0008 279.7352,243.8444 279.285,243.7316 278.8258,243.6635 278.3622,243.6407 277.8986,243.6635 277.4394,243.7316 276.9892,243.8444 276.5521,244.0008 276.1325,244.1992 275.7344,244.4379 275.3615,244.7144 275.0176,245.0261 274.7059,245.37 274.4294,245.7429 274.1907,246.141 273.9923,246.5606 273.8359,246.9977 273.7231,247.4479 273.655,247.9071 273.6322,248.3707 273.655,248.8343 273.7231,249.2935 273.8359,249.7437 273.9923,250.1808 274.1907,250.6004 274.4294,250.9985 274.7059,251.3714 275.0176,251.7153 275.3615,252.027 275.7344,252.3035 276.1325,252.5422 276.5521,252.7406 276.9892,252.897 277.4394,253.0098 277.8986,253.0779 278.3622,253.1007 278.8258,253.0779 279.285,253.0098 279.7352,252.897 280.1723,252.7406 280.5919,252.5422 280.99,252.3035 281.3629,252.027 281.7068,251.7153 282.0185,251.3714 282.295,250.9985 282.5337,250.6004 282.7321,250.1808 282.8885,249.7437 283.0013,249.2935 283.0694,248.8343 283.0922,248.3707"/>
    <polygon points="232.6024,152.3461 231.7136,153.0053 230.7644,153.5742 229.7641,154.0473 228.7222,154.4201 227.6487,154.689 226.5541,154.8514 225.4488,154.9057 224.3435,154.8514 223.2489,154.689 222.1755,154.4201 221.1336,154.0473 220.1332,153.5742 219.184,153.0053 218.2952,152.3461 217.4753,151.6029 216.7321,150.783 216.0729,149.8941 215.504,148.945 215.0309,147.9446 214.6581,146.9027 214.3892,145.8293 214.2268,144.7346 214.1725,143.6294 214.2268,142.5241 214.3892,141.4295 214.6581,140.356 215.0309,139.3141 215.504,138.3137 216.0729,137.3646 216.7321,136.4757 217.4753,135.6558 218.2952,134.9127 219.184,134.2534 220.1332,133.6845 221.1336,133.2114 222.1755,132.8386 223.2489,132.5697 224.3435,132.4073 225.4488,132.353 226.5541,132.4073 227.6487,132.5697 228.7222,132.8386 229.7641,133.2114 230.7644,133.6845 231.7136,134.2534 232.6024,134.9127 233.4224,135.6558 234.1655,136.4757 234.8247,137.3646 235.3936,138.3137 235.8668,139.3141 236.2396,140.356 236.5085,141.4295 236.6708,142.5241 236.7251,143.6294 236.6708,144.7346 236.5085,145.8293 236.2396,146.9027 235.8668,147.9446 235.3936,148.945 234.8247,149.8941 234.1655,150.783 233.4224,151.6029"/>
    <polygon points="241.0019,133.7384 241.3458,133.4267 241.7186,133.1502 242.1168,132.9116 242.5364,132.7131 242.9734,132.5567 243.4237,132.4439 243.8828,132.3758 244.3465,132.353 244.8101,132.3758 245.2692,132.4439 245.7195,132.5567 246.1565,132.7131 246.5762,132.9116 246.9743,133.1502 247.3471,133.4267 247.6911,133.7384 248.0028,134.0824 248.2793,134.4552 248.5179,134.8533 248.7164,135.2729 248.8728,135.71 248.9855,136.1602 249.0537,136.6194 249.0764,137.083 249.0537,137.5466 248.9855,138.0058 248.8728,138.4561 248.7164,138.8931 248.5179,139.3127 248.2793,139.7109 248.0028,140.0837 247.6911,140.4276 247.3471,140.7393 246.9743,141.0158 246.5762,141.2545 246.1565,141.4529 245.7195,141.6093 245.2692,141.7221 244.8101,141.7902 244.3465,141.813 243.8828,141.7902 243.4237,141.7221 242.9734,141.6093 242.5364,141.4529 242.1168,141.2545 241.7186,141.0158 241.3458,140.7393 241.0019,140.4276 240.6901,140.0837 240.4136,139.7109 240.175,139.3127 239.9765,138.8931 239.8202,138.4561 239.7074,138.0058 239.6393,137.5466 239.6165,137.083 239.6393,136.6194 239.7074,136.1602 239.8202,135.71 239.9765,135.2729 240.175,134.8533 240.4136,134.4552 240.6901,134.0824"/>
    <polygon points="220.2963,119.4641 220.7465,119.3513 221.2057,119.2832 221.6693,119.2604 222.1329,119.2832 222.5921,119.3513 223.0423,119.4641 223.4794,119.6204 223.899,119.8189 224.2971,120.0575 224.67,120.334 225.0139,120.6458 225.3256,120.9897 225.6021,121.3625 225.8408,121.7607 226.0392,122.1803 226.1956,122.6173 226.3084,123.0676 226.3765,123.5267 226.3993,123.9904 226.3765,124.454 226.3084,124.9131 226.1956,125.3634 226.0392,125.8004 225.8408,126.22 225.6021,126.6182 225.3256,126.991 225.0139,127.3349 224.67,127.6467 224.2971,127.9232 223.899,128.1618 223.4794,128.3603 223.0423,128.5167 222.5921,128.6294 222.1329,128.6975 221.6693,128.7203 221.2057,128.6975 220.7465,128.6294 220.2963,128.5167 219.8592,128.3603 219.4396,128.1618 219.0415,127.9232 218.6686,127.6467 218.3247,127.3349 218.013,126.991 217.7365,126.6182 217.4978,126.22 217.2994,125.8004 217.143,125.3634 217.0302,124.9131 216.9621,124.454 216.9393,123.9904 216.9621,123.5267 217.0302,123.0676 217.143,122.6173 217.2994,122.1803 217.4978,121.7607 217.7365,121.3625 218.013,120.9897 218.3247,120.6458 218.6686,120.334 219.0415,120.0575 219.4396,119.8189 219.8592,119.6204"/>
    <polygon points="192.4077,132.8213 194.7275,133.4024 196.9791,134.208 199.141,135.2305 201.1922,136.46 203.1131,137.8845 204.885,139.4906 206.491,141.2625 207.9156,143.1833 209.1451,145.2346 210.1675,147.3964 210.9732,149.6481 211.5543,151.9679 211.9052,154.3334 212.0225,156.722 211.9052,159.1106 211.5543,161.4762 210.9732,163.796 210.1675,166.0476 209.1451,168.2095 207.9156,170.2607 206.491,172.1815 204.885,173.9535 203.1131,175.5595 201.1922,176.9841 199.141,178.2135 196.9791,179.236 194.7275,180.0417 192.4077,180.6228 190.0421,180.9737 187.6535,181.091 185.265,180.9737 182.8994,180.6228 180.5796,180.0417 178.3279,179.236 176.1661,178.2135 174.1149,176.9841 172.194,175.5595 170.4221,173.9535 168.8161,172.1815 167.3915,170.2607 166.162,168.2095 165.1395,166.0476 164.3339,163.796 163.7528,161.4762 163.4019,159.1106 163.2846,156.722 163.4019,154.3334 163.7528,151.9679 164.3339,149.6481 165.1395,147.3964 166.162,145.2346 167.3915,143.1833 168.8161,141.2625 170.4221,139.4906 172.194,137.8845 174.1149,136.46 176.1661,135.2305 178.3279,134.208 180.5796,133.4024 182.8994,132.8213 185.265,132.4704 187.6535,132.353 190.0421,132.4704"/>
    <polygon points="149.2679,109.0876 149.4663,108.668 149.705,108.2699 149.9815,107.897 150.2932,107.5531 150.6371,107.2414 151.01,106.9649 151.4081,106.7262 151.8277,106.5278 152.2648,106.3714 152.715,106.2586 153.1742,106.1905 153.6378,106.1677 154.1014,106.1905 154.5606,106.2586 155.0108,106.3714 155.4479,106.5278 155.8675,106.7262 156.2656,106.9649 156.6385,107.2414 156.9824,107.5531 157.2941,107.897 157.5706,108.2699 157.8093,108.668 158.0077,109.0876 158.1641,109.5246 158.2769,109.9749 158.345,110.4341 158.3678,110.8977 158.345,111.3613 158.2769,111.8205 158.1641,112.2707 158.0077,112.7078 157.8093,113.1274 157.5706,113.5255 157.2941,113.8983 156.9824,114.2423 156.6385,114.554 156.2656,114.8305 155.8675,115.0691 155.4479,115.2676 155.0108,115.424 154.5606,115.5368 154.1014,115.6049 153.6378,115.6277 153.1742,115.6049 152.715,115.5368 152.2648,115.424 151.8277,115.2676 151.4081,115.0691 151.01,114.8305 150.6371,114.554 150.2932,114.2423 149.9815,113.8983 149.705,113.5255 149.4663,113.1274 149.2679,112.7078 149.1115,112.2707 148.9987,111.8205 148.9306,111.3613 148.9078,110.8977 148.9306,110.4341 148.9987,109.9749 149.1115,109.5246"/>
    <polygon points="142.7137,109.4705 143.4569,110.2904 144.1161,111.1792 144.685,112.1284 145.1581,113.1288 145.5309,114.1707 145.7998,115.2441 145.9622,116.3387 146.0165,117.444 145.9622,118.5493 145.7998,119.6439 145.5309,120.7174 145.1581,121.7593 144.685,122.7596 144.1161,123.7088 143.4569,124.5976 142.7137,125.4176 141.8938,126.1607 141.0049,126.8199 140.0558,127.3888 139.0554,127.862 138.0135,128.2348 136.9401,128.5037 135.8454,128.666 134.7402,128.7203 133.6349,128.666 132.5403,128.5037 131.4668,128.2348 130.4249,127.862 129.4245,127.3888 128.4754,126.8199 127.5865,126.1607 126.7666,125.4176 126.0235,124.5976 125.3643,123.7088 124.7953,122.7596 124.3222,121.7593 123.9494,120.7174 123.6805,119.6439 123.5181,118.5493 123.4639,117.444 123.5181,116.3387 123.6805,115.2441 123.9494,114.1707 124.3222,113.1288 124.7953,112.1284 125.3643,111.1792 126.0235,110.2904 126.7666,109.4705 127.5865,108.7273 128.4754,108.0681 129.4245,107.4992 130.4249,107.0261 131.4668,106.6533 132.5403,106.3844 133.6349,106.222 134.7402,106.1677 135.8454,106.222 136.9401,106.3844 138.0135,106.6533 139.0554,107.0261 140.0558,107.4992 141.0049,108.0681 141.8938,108.7273"/>
    <polygon points="146.6266,127.2633 146.9994,126.2214 147.4725,125.2211 148.0414,124.2719 148.7006,123.3831 149.4438,122.5631 150.2637,121.82 151.1525,121.1608 152.1017,120.5919 153.1021,120.1187 154.144,119.7459 155.2174,119.4771 156.3121,119.3147 157.4173,119.2604 158.5226,119.3147 159.6172,119.4771 160.6907,119.7459 161.7326,120.1187 162.7329,120.5919 163.6821,121.1608 164.5709,121.82 165.3909,122.5631 166.134,123.3831 166.7932,124.2719 167.3621,125.2211 167.8353,126.2214 168.2081,127.2633 168.477,128.3368 168.6393,129.4314 168.6936,130.5367 168.6393,131.642 168.477,132.7366 168.2081,133.81 167.8353,134.8519 167.3621,135.8523 166.7932,136.8015 166.134,137.6903 165.3909,138.5102 164.5709,139.2534 163.6821,139.9126 162.7329,140.4815 161.7326,140.9546 160.6907,141.3274 159.6172,141.5963 158.5226,141.7587 157.4173,141.813 156.3121,141.7587 155.2174,141.5963 154.144,141.3274 153.1021,140.9546 152.1017,140.4815 151.1525,139.9126 150.2637,139.2534 149.4438,138.5102 148.7006,137.6903 148.0414,136.8015 147.4725,135.8523 146.9994,134.8519 146.6266,133.81 146.3577,132.7366 146.1953,131.642 146.141,130.5367 146.1953,129.4314 146.3577,128.3368"/>
    <polygon points="134.7402,132.353 133.6349,132.4073 132.5403,132.5697 131.4668,132.8386 130.4249,133.2114 129.4245,133.6845 128.4754,134.2534 127.5865,134.9127 126.7666,135.6558 126.0235,136.4757 125.3643,137.3646 124.7953,138.3137 124.3222,139.3141 123.9494,140.356 123.6805,141.4295 123.5181,142.5241 123.4639,143.6294 123.5181,144.7346 123.6805,145.8293 123.9494,146.9027 124.3222,147.9446 124.7953,148.945 125.3643,149.8941 126.0235,150.783 126.7666,151.6029 127.5865,152.3461 128.4754,153.0053 129.4245,153.5742 130.4249,154.0473 131.4668,154.4201 132.5403,154.689 133.6349,154.8514 134.7402,154.9057 135.8454,154.8514 136.9401,154.689 138.0135,154.4201 139.0554,154.0473 140.0558,153.5742 141.0049,153.0053 141.8938,152.3461 142.7137,151.6029 143.4569,150.783 144.1161,149.8941 144.685,148.945 145.1581,147.9446 145.5309,146.9027 145.7998,145.8293 145.9622,144.7346 146.0165,143.6294 145.9622,142.5241 145.7998,141.4295 145.5309,140.356 145.1581,139.3141 144.685,138.3137 144.1161,137.3646 143.4569,136.4757 142.7137,135.6558 141.8938,134.9127 141.0049,134.2534 140.0558,133.6845 139.0554,133.2114 138.0135,132.8386 136.9401,132.5697 135.8454,132.4073"/>
    <polygon points="121.8517,134.7081 121.4321,134.9066 120.9951,135.063 120.5448,135.1758 120.0857,135.2439 119.622,135.2667 119.1584,135.2439 118.6993,135.1758 118.249,135.063 117.812,134.9066 117.3924,134.7081 116.9942,134.4695 116.6214,134.193 116.2775,133.8813 115.9657,133.5373 115.6892,133.1645 115.4506,132.7664 115.2521,132.3468 115.0957,131.9097 114.983,131.4595 114.9149,131.0003 114.8921,130.5367 114.9149,130.0731 114.983,129.6139 115.0957,129.1636 115.2521,128.7266 115.4506,128.307 115.6892,127.9089 115.9657,127.536 116.2775,127.1921 116.6214,126.8804 116.9942,126.6039 117.3924,126.3652 117.812,126.1668 118.249,126.0104 118.6993,125.8976 119.1584,125.8295 119.622,125.8067 120.0857,125.8295 120.5448,125.8976 120.9951,126.0104 121.4321,126.1668 121.8517,126.3652 122.2499,126.6039 122.6227,126.8804 122.9666,127.1921 123.2784,127.536 123.5549,127.9089 123.7935,128.307 123.992,128.7266 124.1483,129.1636 124.2611,129.6139 124.3292,130.0731 124.352,130.5367 124.3292,131.0003 124.2611,131.4595 124.1483,131.9097 123.992,132.3468 123.7935,132.7664 123.5549,133.1645 123.2784,133.5373 122.9666,133.8813 122.6227,134.193 122.2499,134.4695"/>
    <polygon points="139.9106,158.6557 142.2992,158.5384 144.6878,158.6557 147.0534,159.0066 149.3732,159.5877 151.6248,160.3934 153.7867,161.4158 155.8379,162.6453 157.7587,164.0699 159.5307,165.6759 161.1367,167.4478 162.5613,169.3687 163.7907,171.4199 164.8132,173.5818 165.6189,175.8334 166.1999,178.1532 166.5508,180.5188 166.6682,182.9074 166.5508,185.2959 166.1999,187.6615 165.6189,189.9813 164.8132,192.233 163.7907,194.3948 162.5613,196.446 161.1367,198.3669 159.5307,200.1388 157.7587,201.7448 155.8379,203.1694 153.7867,204.3989 151.6248,205.4214 149.3732,206.227 147.0534,206.8081 144.6878,207.159 142.2992,207.2763 139.9106,207.159 137.5451,206.8081 135.2253,206.227 132.9736,205.4214 130.8118,204.3989 128.7605,203.1694 126.8397,201.7448 125.0677,200.1388 123.4617,198.3669 122.0372,196.446 120.8077,194.3948 119.7852,192.233 118.9796,189.9813 118.3985,187.6615 118.0476,185.2959 117.9302,182.9074 118.0476,180.5188 118.3985,178.1532 118.9796,175.8334 119.7852,173.5818 120.8077,171.4199 122.0372,169.3687 123.4617,167.4478 125.0677,165.6759 126.8397,164.0699 128.7605,162.6453 130.8118,161.4158 132.9736,160.3934 135.2253,159.5877 137.5451,159.0066"/>
    <polygon points="117.3924,204.9212 117.812,204.7228 118.249,204.5664 118.6993,204.4536 119.1584,204.3855 119.622,204.3627 120.0857,204.3855 120.5448,204.4536 120.9951,204.5664 121.4321,204.7228 121.8517,204.9212 122.2499,205.1599 122.6227,205.4364 122.9666,205.7481 123.2784,206.092 123.5549,206.4649 123.7935,206.863 123.992,207.2826 124.1483,207.7197 124.2611,208.1699 124.3292,208.6291 124.352,209.0927 124.3292,209.5563 124.2611,210.0155 124.1483,210.4657 123.992,210.9028 123.7935,211.3224 123.5549,211.7205 123.2784,212.0934 122.9666,212.4373 122.6227,212.749 122.2499,213.0255 121.8517,213.2642 121.4321,213.4626 120.9951,213.619 120.5448,213.7318 120.0857,213.7999 119.622,213.8227 119.1584,213.7999 118.6993,213.7318 118.249,213.619 117.812,213.4626 117.3924,213.2642 116.9942,213.0255 116.6214,212.749 116.2775,212.4373 115.9657,212.0934 115.6892,211.7205 115.4506,211.3224 115.2521,210.9028 115.0957,210.4657 114.983,210.0155 114.9149,209.5563 114.8921,209.0927 114.9149,208.6291 114.983,208.1699 115.0957,207.7197 115.2521,207.2826 115.4506,206.863 115.6892,206.4649 115.9657,206.092 116.2775,205.7481 116.6214,205.4364 116.9942,205.1599"/>
    <polygon points="106.4734,211.2691 106.9104,211.1127 107.3607,210.9999 107.8198,210.9318 108.2835,210.9091 108.7471,210.9318 109.2062,210.9999 109.6565,211.1127 110.0935,211.2691 110.5132,211.4676 110.9113,211.7062 111.2841,211.9827 111.6281,212.2944 111.9398,212.6384 112.2163,213.0112 112.4549,213.4093 112.6534,213.8289 112.8098,214.266 112.9226,214.7163 112.9907,215.1754 113.0134,215.639 112.9907,216.1026 112.9226,216.5618 112.8098,217.0121 112.6534,217.4491 112.4549,217.8687 112.2163,218.2669 111.9398,218.6397 111.6281,218.9836 111.2841,219.2953 110.9113,219.5719 110.5132,219.8105 110.0935,220.0089 109.6565,220.1653 109.2062,220.2781 108.7471,220.3462 108.2835,220.369 107.8198,220.3462 107.3607,220.2781 106.9104,220.1653 106.4734,220.0089 106.0538,219.8105 105.6556,219.5719 105.2828,219.2953 104.9389,218.9836 104.6271,218.6397 104.3506,218.2669 104.112,217.8687 103.9135,217.4491 103.7572,217.0121 103.6444,216.5618 103.5763,216.1026 103.5535,215.639 103.5763,215.1754 103.6444,214.7163 103.7572,214.266 103.9135,213.8289 104.112,213.4093 104.3506,213.0112 104.6271,212.6384 104.9389,212.2944 105.2828,211.9827 105.6556,211.7062 106.0538,211.4676"/>
    <polygon points="120.0857,239.9852 119.622,240.008 119.1584,239.9852 118.6993,239.9171 118.249,239.8043 117.812,239.648 117.3924,239.4495 116.9942,239.2109 116.6214,238.9343 116.2775,238.6226 115.9657,238.2787 115.6892,237.9059 115.4506,237.5077 115.2521,237.0881 115.0957,236.6511 114.983,236.2008 114.9149,235.7416 114.8921,235.278 114.9149,234.8144 114.983,234.3553 115.0957,233.905 115.2521,233.4679 115.4506,233.0483 115.6892,232.6502 115.9657,232.2774 116.2775,231.9334 116.6214,231.6217 116.9942,231.3452 117.3924,231.1066 117.812,230.9081 118.249,230.7517 118.6993,230.6389 119.1584,230.5708 119.622,230.5481 120.0857,230.5708 120.5448,230.6389 120.9951,230.7517 121.4321,230.9081 121.8517,231.1066 122.2499,231.3452 122.6227,231.6217 122.9666,231.9334 123.2784,232.2774 123.5549,232.6502 123.7935,233.0483 123.992,233.4679 124.1483,233.905 124.2611,234.3553 124.3292,234.8144 124.352,235.278 124.3292,235.7416 124.2611,236.2008 124.1483,236.6511 123.992,237.0881 123.7935,237.5077 123.5549,237.9059 123.2784,238.2787 122.9666,238.6226 122.6227,238.9343 122.2499,239.2109 121.8517,239.4495 121.4321,239.648 120.9951,239.8043 120.5448,239.9171"/>
    <polygon points="122.6227,252.027 122.2499,252.3035 121.8517,252.5422 121.4321,252.7406 120.9951,252.897 120.5448,253.0098 120.0857,253.0779 119.622,253.1007 119.1584,253.0779 118.6993,253.0098 118.249,252.897 117.812,252.7406 117.3924,252.5422 116.9942,252.3035 116.6214,252.027 116.2775,251.7153 115.9657,251.3714 115.6892,250.9985 115.4506,250.6004 115.2521,250.1808 115.0957,249.7437 114.983,249.2935 114.9149,248.8343 114.8921,248.3707 114.9149,247.9071 114.983,247.4479 115.0957,246.9977 115.2521,246.5606 115.4506,246.141 115.6892,245.7429 115.9657,245.37 116.2775,245.0261 116.6214,244.7144 116.9942,244.4379 117.3924,244.1992 117.812,244.0008 118.249,243.8444 118.6993,243.7316 119.1584,243.6635 119.622,243.6407 120.0857,243.6635 120.5448,243.7316 120.9951,243.8444 121.4321,244.0008 121.8517,244.1992 122.2499,244.4379 122.6227,244.7144 122.9666,245.0261 123.2784,245.37 123.5549,245.7429 123.7935,246.141 123.992,246.5606 124.1483,246.9977 124.2611,247.4479 124.3292,247.9071 124.352,248.3707 124.3292,248.8343 124.2611,249.2935 124.1483,249.7437 123.992,250.1808 123.7935,250.6004 123.5549,250.9985 123.2784,251.3714 122.9666,251.7153"/>
    <polygon points="139.6714,244.4379 140.0695,244.1992 140.4891,244.0008 140.9262,243.8444 141.3764,243.7316 141.8356,243.6635 142.2992,243.6407 142.7628,243.6635 143.222,243.7316 143.6723,243.8444 144.1093,244.0008 144.5289,244.1992 144.927,244.4379 145.2999,244.7144 145.6438,245.0261 145.9555,245.37 146.232,245.7429 146.4707,246.141 146.6691,246.5606 146.8255,246.9977 146.9383,247.4479 147.0064,247.9071 147.0292,248.3707 147.0064,248.8343 146.9383,249.2935 146.8255,249.7437 146.6691,250.1808 146.4707,250.6004 146.232,250.9985 145.9555,251.3714 145.6438,251.7153 145.2999,252.027 144.927,252.3035 144.5289,252.5422 144.1093,252.7406 143.6723,252.897 143.222,253.0098 142.7628,253.0779 142.2992,253.1007 141.8356,253.0779 141.3764,253.0098 140.9262,252.897 140.4891,252.7406 140.0695,252.5422 139.6714,252.3035 139.2985,252.027 138.9546,251.7153 138.6429,251.3714 138.3664,250.9985 138.1277,250.6004 137.9293,250.1808 137.7729,249.7437 137.6601,249.2935 137.592,248.8343 137.5692,248.3707 137.592,247.9071 137.6601,247.4479 137.7729,246.9977 137.9293,246.5606 138.1277,246.141 138.3664,245.7429 138.6429,245.37 138.9546,245.0261 139.2985,244.7144"/>
    <polygon points="144.1161,215.9206 144.685,216.8697 145.1581,217.8701 145.5309,218.912 145.7998,219.9855 145.9622,221.0801 146.0165,222.1854 145.9622,223.2906 145.7998,224.3853 145.5309,225.4587 145.1581,226.5006 144.685,227.501 144.1161,228.4501 143.4569,229.339 142.7137,230.1589 141.8938,230.9021 141.0049,231.5613 140.0558,232.1302 139.0554,232.6033 138.0135,232.9761 136.9401,233.245 135.8454,233.4074 134.7402,233.4617 133.6349,233.4074 132.5403,233.245 131.4668,232.9761 130.4249,232.6033 129.4245,232.1302 128.4754,231.5613 127.5865,230.9021 126.7666,230.1589 126.0235,229.339 125.3643,228.4501 124.7953,227.501 124.3222,226.5006 123.9494,225.4587 123.6805,224.3853 123.5181,223.2906 123.4639,222.1854 123.5181,221.0801 123.6805,219.9855 123.9494,218.912 124.3222,217.8701 124.7953,216.8697 125.3643,215.9206 126.0235,215.0317 126.7666,214.2118 127.5865,213.4687 128.4754,212.8095 129.4245,212.2405 130.4249,211.7674 131.4668,211.3946 132.5403,211.1257 133.6349,210.9634 134.7402,210.9091 135.8454,210.9634 136.9401,211.1257 138.0135,211.3946 139.0554,211.7674 140.0558,212.2405 141.0049,212.8095 141.8938,213.4687 142.7137,214.2118 143.4569,215.0317"/>
    <polygon points="154.144,224.4873 155.2174,224.2184 156.3121,224.056 157.4173,224.0017 158.5226,224.056 159.6172,224.2184 160.6907,224.4873 161.7326,224.8601 162.7329,225.3332 163.6821,225.9021 164.5709,226.5613 165.3909,227.3045 166.134,228.1244 166.7932,229.0132 167.3621,229.9624 167.8353,230.9628 168.2081,232.0047 168.477,233.0781 168.6393,234.1728 168.6936,235.278 168.6393,236.3833 168.477,237.4779 168.2081,238.5514 167.8353,239.5933 167.3621,240.5936 166.7932,241.5428 166.134,242.4316 165.3909,243.2516 164.5709,243.9947 163.6821,244.6539 162.7329,245.2228 161.7326,245.696 160.6907,246.0688 159.6172,246.3377 158.5226,246.5 157.4173,246.5543 156.3121,246.5 155.2174,246.3377 154.144,246.0688 153.1021,245.696 152.1017,245.2228 151.1525,244.6539 150.2637,243.9947 149.4438,243.2516 148.7006,242.4316 148.0414,241.5428 147.4725,240.5936 146.9994,239.5933 146.6266,238.5514 146.3577,237.4779 146.1953,236.3833 146.141,235.278 146.1953,234.1728 146.3577,233.0781 146.6266,232.0047 146.9994,230.9628 147.4725,229.9624 148.0414,229.0132 148.7006,228.1244 149.4438,227.3045 150.2637,226.5613 151.1525,225.9021 152.1017,225.3332 153.1021,224.8601"/>
    <polygon points="163.7528,213.8468 163.4019,211.4813 163.2846,209.0927 163.4019,206.7041 163.7528,204.3385 164.3339,202.0188 165.1395,199.7671 166.162,197.6052 167.3915,195.554 168.8161,193.6332 170.4221,191.8612 172.194,190.2552 174.1149,188.8306 176.1661,187.6012 178.3279,186.5787 180.5796,185.773 182.8994,185.192 185.265,184.8411 187.6535,184.7237 190.0421,184.8411 192.4077,185.192 194.7275,185.773 196.9791,186.5787 199.141,187.6012 201.1922,188.8306 203.1131,190.2552 204.885,191.8612 206.491,193.6332 207.9156,195.554 209.1451,197.6052 210.1675,199.7671 210.9732,202.0188 211.5543,204.3385 211.9052,206.7041 212.0225,209.0927 211.9052,211.4813 211.5543,213.8468 210.9732,216.1666 210.1675,218.4183 209.1451,220.5801 207.9156,222.6314 206.491,224.5522 204.885,226.3242 203.1131,227.9302 201.1922,229.3548 199.141,230.5842 196.9791,231.6067 194.7275,232.4123 192.4077,232.9934 190.0421,233.3443 187.6535,233.4617 185.265,233.3443 182.8994,232.9934 180.5796,232.4123 178.3279,231.6067 176.1661,230.5842 174.1149,229.3548 172.194,227.9302 170.4221,226.3242 168.8161,224.5522 167.3915,222.6314 166.162,220.5801 165.1395,218.4183 164.3339,216.1666"/>
    <polygon points="204.885,244.2319 206.491,246.0038 207.9156,247.9247 209.1451,249.9759 210.1675,252.1378 210.9732,254.3894 211.5543,256.7092 211.9052,259.0748 212.0225,261.4634 211.9052,263.8519 211.5543,266.2175 210.9732,268.5373 210.1675,270.789 209.1451,272.9508 207.9156,275.002 206.491,276.9229 204.885,278.6948 203.1131,280.3008 201.1922,281.7254 199.141,282.9549 196.9791,283.9774 194.7275,284.783 192.4077,285.3641 190.0421,285.715 187.6535,285.8323 185.265,285.715 182.8994,285.3641 180.5796,284.783 178.3279,283.9774 176.1661,282.9549 174.1149,281.7254 172.194,280.3008 170.4221,278.6948 168.8161,276.9229 167.3915,275.002 166.162,272.9508 165.1395,270.789 164.3339,268.5373 163.7528,266.2175 163.4019,263.8519 163.2846,261.4634 163.4019,259.0748 163.7528,256.7092 164.3339,254.3894 165.1395,252.1378 166.162,249.9759 167.3915,247.9247 168.8161,246.0038 170.4221,244.2319 172.194,242.6259 174.1149,241.2013 176.1661,239.9718 178.3279,238.9494 180.5796,238.1437 182.8994,237.5626 185.265,237.2117 187.6535,237.0944 190.0421,237.2117 192.4077,237.5626 194.7275,238.1437 196.9791,238.9494 199.141,239.9718 201.1922,241.2013 203.1131,242.6259"/>
    <polygon points="116.3782,303.4161 115.3363,303.0433 114.2629,302.7744 113.1683,302.612 112.063,302.5577 110.9577,302.612 109.8631,302.7744 108.7897,303.0433 107.7477,303.4161 106.7474,303.8892 105.7982,304.4581 104.9094,305.1173 104.0894,305.8605 103.3463,306.6804 102.6871,307.5693 102.1182,308.5184 101.645,309.5188 101.2722,310.5607 101.0034,311.6341 100.841,312.7288 100.7867,313.834 100.841,314.9393 101.0034,316.0339 101.2722,317.1074 101.645,318.1493 102.1182,319.1496 102.6871,320.0988 103.3463,320.9876 104.0894,321.8076 104.9094,322.5507 105.7982,323.2099 106.7474,323.7788 107.7477,324.252 108.7897,324.6248 109.8631,324.8937 110.9577,325.056 112.063,325.1103 113.1683,325.056 114.2629,324.8937 115.3363,324.6248 116.3782,324.252 117.3786,323.7788 118.3278,323.2099 119.2166,322.5507 120.0365,321.8076 120.7797,320.9876 121.4389,320.0988 122.0078,319.1496 122.4809,318.1493 122.8537,317.1074 123.1226,316.0339 123.285,314.9393 123.3393,313.834 123.285,312.7288 123.1226,311.6341 122.8537,310.5607 122.4809,309.5188 122.0078,308.5184 121.4389,307.5693 120.7797,306.6804 120.0365,305.8605 119.2166,305.1173 118.3278,304.4581 117.3786,303.8892"/>
    <polygon points="96.0221,296.1023 95.5718,296.2151 95.1348,296.3714 94.7152,296.5699 94.317,296.8085 93.9442,297.085 93.6003,297.3968 93.2886,297.7407 93.0121,298.1135 92.7734,298.5117 92.575,298.9313 92.4186,299.3683 92.3058,299.8186 92.2377,300.2777 92.2149,300.7414 92.2377,301.205 92.3058,301.6641 92.4186,302.1144 92.575,302.5514 92.7734,302.9711 93.0121,303.3692 93.2886,303.742 93.6003,304.086 93.9442,304.3977 94.317,304.6742 94.7152,304.9128 95.1348,305.1113 95.5718,305.2677 96.0221,305.3805 96.4813,305.4486 96.9449,305.4713 97.4085,305.4486 97.8677,305.3805 98.3179,305.2677 98.755,305.1113 99.1746,304.9128 99.5727,304.6742 99.9455,304.3977 100.2895,304.086 100.6012,303.742 100.8777,303.3692 101.1163,302.9711 101.3148,302.5514 101.4712,302.1144 101.584,301.6641 101.6521,301.205 101.6749,300.7414 101.6521,300.2777 101.584,299.8186 101.4712,299.3683 101.3148,298.9313 101.1163,298.5117 100.8777,298.1135 100.6012,297.7407 100.2895,297.3968 99.9455,297.085 99.5727,296.8085 99.1746,296.5699 98.755,296.3714 98.3179,296.2151 97.8677,296.1023 97.4085,296.0342 96.9449,296.0114 96.4813,296.0342"/>
  </g>
</svg>
