<?xml version="1.0" encoding="utf-8" ?>
<svg xmlns="http://www.w3.org/2000/svg" xmlns:cc="http://creativecommons.org/ns" xmlns:dc="http://purl.org/dc/elements/1.1/" xmlns:ev="http://www.w3.org/2001/xml-events" xmlns:inkscape="http://www.inkscape.org/namespaces/inkscape" xmlns:rdf="http://www.w3.org/1999/02/22-rdf-syntax-ns" xmlns:sodipodi="http://sodipodi.sourceforge.net/DTD/sodipodi-0.dtd" xmlns:xlink="http://www.w3.org/1999/xlink" baseProfile="tiny" height="15.875cm" version="1.2" viewBox="0 0 432.0 600.0" width="11.43cm">
  <metadata>
    <rdf:RDF>
      <cc:Work>
        <dc:format>image/svg+xml</dc:format>
        <dc:source>vsk save -s 257 -c hex-grid/config/bubble-coasters-2.json /Users/tobin/src/fabian/plotting/fabian-plotting/hex-grid/sketch_hex_grid.py</dc:source>
        <dc:date>2023-11-11T11:30:23.930615</dc:date>
      </cc:Work>
    </rdf:RDF>
  </metadata>
  <defs/>
  <g fill="none" id="layer1" inkscape:groupmode="layer" inkscape:label="1" stroke="#000000" stroke-width="0.7559" style="display:inline">
    <polygon points="57.2702,279.0823 56.8332,278.926 56.4136,278.7275 56.0154,278.4889 55.6426,278.2123 55.2986,277.9006 54.9869,277.5567 54.7104,277.1839 54.4718,276.7857 54.2733,276.3661 54.1169,275.9291 54.0042,275.4788 53.936,275.0196 53.9133,274.556 53.936,274.0924 54.0042,273.6333 54.1169,273.183 54.2733,272.7459 54.4718,272.3263 54.7104,271.9282 54.9869,271.5554 55.2986,271.2114 55.6426,270.8997 56.0154,270.6232 56.4136,270.3846 56.8332,270.1861 57.2702,270.0297 57.7205,269.9169 58.1796,269.8488 58.6432,269.8261 59.1069,269.8488 59.566,269.9169 60.0163,270.0297 60.4533,270.1861 60.8729,270.3846 61.2711,270.6232 61.6439,270.8997 61.9878,271.2114 62.2996,271.5554 62.5761,271.9282 62.8147,272.3263 63.0132,272.7459 63.1695,273.183 63.2823,273.6333 63.3504,274.0924 63.3732,274.556 63.3504,275.0196 63.2823,275.4788 63.1695,275.9291 63.0132,276.3661 62.8147,276.7857 62.5761,277.1839 62.2996,277.5567 61.9878,277.9006 61.6439,278.2123 61.2711,278.4889 60.8729,278.7275 60.4533,278.926 60.0163,279.0823 59.566,279.1951 59.1069,279.2632 58.6432,279.286 58.1796,279.2632 57.7205,279.1951"/>
    <polygon points="62.5393,262.5686 62.485,261.4634 62.5393,260.3581 62.7017,259.2635 62.9706,258.19 63.3434,257.1481 63.8165,256.1477 64.3854,255.1986 65.0447,254.3097 65.7878,253.4898 66.6077,252.7467 67.4966,252.0875 68.4457,251.5185 69.4461,251.0454 70.488,250.6726 71.5615,250.4037 72.6561,250.2414 73.7614,250.1871 74.8666,250.2414 75.9613,250.4037 77.0347,250.6726 78.0766,251.0454 79.077,251.5185 80.0261,252.0875 80.915,252.7467 81.7349,253.4898 82.4781,254.3097 83.1373,255.1986 83.7062,256.1477 84.1793,257.1481 84.5521,258.19 84.821,259.2635 84.9834,260.3581 85.0377,261.4634 84.9834,262.5686 84.821,263.6633 84.5521,264.7367 84.1793,265.7786 83.7062,266.779 83.1373,267.7281 82.4781,268.617 81.7349,269.4369 80.915,270.1801 80.0261,270.8393 79.077,271.4082 78.0766,271.8813 77.0347,272.2541 75.9613,272.523 74.8666,272.6854 73.7614,272.7397 72.6561,272.6854 71.5615,272.523 70.488,272.2541 69.4461,271.8813 68.4457,271.4082 67.4966,270.8393 66.6077,270.1801 65.7878,269.4369 65.0447,268.617 64.3854,267.7281 63.8165,266.779 63.3434,265.7786 62.9706,264.7367 62.7017,263.6633"/>
    <polygon points="61.029,253.6863 60.4601,254.6355 59.8009,255.5243 59.0577,256.3442 58.2378,257.0874 57.349,257.7466 56.3998,258.3155 55.3994,258.7886 54.3575,259.1614 53.2841,259.4303 52.1895,259.5927 51.0842,259.647 49.9789,259.5927 48.8843,259.4303 47.8109,259.1614 46.7689,258.7886 45.7686,258.3155 44.8194,257.7466 43.9306,257.0874 43.1106,256.3442 42.3675,255.5243 41.7083,254.6355 41.1394,253.6863 40.6662,252.6859 40.2934,251.644 40.0246,250.5706 39.8622,249.476 39.8079,248.3707 39.8622,247.2654 40.0246,246.1708 40.2934,245.0974 40.6662,244.0554 41.1394,243.0551 41.7083,242.1059 42.3675,241.2171 43.1106,240.3971 43.9306,239.654 44.8194,238.9948 45.7686,238.4259 46.7689,237.9527 47.8109,237.5799 48.8843,237.3111 49.9789,237.1487 51.0842,237.0944 52.1895,237.1487 53.2841,237.3111 54.3575,237.5799 55.3994,237.9527 56.3998,238.4259 57.349,238.9948 58.2378,239.654 59.0577,240.3971 59.8009,241.2171 60.4601,242.1059 61.029,243.0551 61.5021,244.0554 61.8749,245.0974 62.1438,246.1708 62.3062,247.2654 62.3605,248.3707 62.3062,249.476 62.1438,250.5706 61.8749,251.644 61.5021,252.6859"/>
    <polygon points="55.3994,211.7674 56.3998,212.2405 57.349,212.8095 58.2378,213.4687 59.0577,214.2118 59.8009,215.0317 60.4601,215.9206 61.029,216.8697 61.5021,217.8701 61.8749,218.912 62.1438,219.9855 62.3062,221.0801 62.3605,222.1854 62.3062,223.2906 62.1438,224.3853 61.8749,225.4587 61.5021,226.5006 61.029,227.501 60.4601,228.4501 59.8009,229.339 59.0577,230.1589 58.2378,230.9021 57.349,231.5613 56.3998,232.1302 55.3994,232.6033 54.3575,232.9761 53.2841,233.245 52.1895,233.4074 51.0842,233.4617 49.9789,233.4074 48.8843,233.245 47.8109,232.9761 46.7689,232.6033 45.7686,232.1302 44.8194,231.5613 43.9306,230.9021 43.1106,230.1589 42.3675,229.339 41.7083,228.4501 41.1394,227.501 40.6662,226.5006 40.2934,225.4587 40.0246,224.3853 39.8622,223.2906 39.8079,222.1854 39.8622,221.0801 40.0246,219.9855 40.2934,218.912 40.6662,217.8701 41.1394,216.8697 41.7083,215.9206 42.3675,215.0317 43.1106,214.2118 43.9306,213.4687 44.8194,212.8095 45.7686,212.2405 46.7689,211.7674 47.8109,211.3946 48.8843,211.1257 49.9789,210.9634 51.0842,210.9091 52.1895,210.9634 53.2841,211.1257 54.3575,211.3946"/>
    <polygon points="71.3549,211.1127 71.7919,211.2691 72.2115,211.4676 72.6097,211.7062 72.9825,211.9827 73.3264,212.2944 73.6381,212.6384 73.9147,213.0112 74.1533,213.4093 74.3518,213.8289 74.5081,214.266 74.6209,214.7163 74.689,215.1754 74.7118,215.639 74.689,216.1026 74.6209,216.5618 74.5081,217.0121 74.3518,217.4491 74.1533,217.8687 73.9147,218.2669 73.6381,218.6397 73.3264,218.9836 72.9825,219.2953 72.6097,219.5719 72.2115,219.8105 71.7919,220.0089 71.3549,220.1653 70.9046,220.2781 70.4454,220.3462 69.9818,220.369 69.5182,220.3462 69.0591,220.2781 68.6088,220.1653 68.1717,220.0089 67.7521,219.8105 67.354,219.5719 66.9812,219.2953 66.6372,218.9836 66.3255,218.6397 66.049,218.2669 65.8104,217.8687 65.6119,217.4491 65.4555,217.0121 65.3427,216.5618 65.2746,216.1026 65.2519,215.639 65.2746,215.1754 65.3427,214.7163 65.4555,214.266 65.6119,213.8289 65.8104,213.4093 66.049,213.0112 66.3255,212.6384 66.6372,212.2944 66.9812,211.9827 67.354,211.7062 67.7521,211.4676 68.1717,211.2691 68.6088,211.1127 69.0591,210.9999 69.5182,210.9318 69.9818,210.9091 70.4454,210.9318 70.9046,210.9999"/>
    <polygon points="115.7998,194.1609 115.3362,194.1837 114.8725,194.1609 114.4134,194.0928 113.9631,193.98 113.5261,193.8236 113.1065,193.6252 112.7083,193.3865 112.3355,193.11 111.9916,192.7983 111.6798,192.4544 111.4033,192.0815 111.1647,191.6834 110.9662,191.2638 110.8099,190.8267 110.6971,190.3765 110.629,189.9173 110.6062,189.4537 110.629,188.9901 110.6971,188.5309 110.8099,188.0807 110.9662,187.6436 111.1647,187.224 111.4033,186.8259 111.6798,186.453 111.9916,186.1091 112.3355,185.7974 112.7083,185.5209 113.1065,185.2822 113.5261,185.0838 113.9631,184.9274 114.4134,184.8146 114.8725,184.7465 115.3362,184.7237 115.7998,184.7465 116.2589,184.8146 116.7092,184.9274 117.1462,185.0838 117.5659,185.2822 117.964,185.5209 118.3368,185.7974 118.6808,186.1091 118.9925,186.453 119.269,186.8259 119.5076,187.224 119.7061,187.6436 119.8625,188.0807 119.9752,188.5309 120.0434,188.9901 120.0661,189.4537 120.0434,189.9173 119.9752,190.3765 119.8625,190.8267 119.7061,191.2638 119.5076,191.6834 119.269,192.0815 118.9925,192.4544 118.6808,192.7983 118.3368,193.11 117.964,193.3865 117.5659,193.6252 117.1462,193.8236 116.7092,193.98 116.2589,194.0928"/>
    <polygon points="113.1065,198.3749 113.5261,198.1764 113.9631,198.0201 114.4134,197.9073 114.8725,197.8392 115.3362,197.8164 115.7998,197.8392 116.2589,197.9073 116.7092,198.0201 117.1462,198.1764 117.5659,198.3749 117.964,198.6135 118.3368,198.89 118.6808,199.2018 118.9925,199.5457 119.269,199.9185 119.5076,200.3167 119.7061,200.7363 119.8625,201.1733 119.9752,201.6236 120.0434,202.0827 120.0661,202.5464 120.0434,203.01 119.9752,203.4691 119.8625,203.9194 119.7061,204.3564 119.5076,204.7761 119.269,205.1742 118.9925,205.547 118.6808,205.891 118.3368,206.2027 117.964,206.4792 117.5659,206.7178 117.1462,206.9163 116.7092,207.0727 116.2589,207.1854 115.7998,207.2536 115.3362,207.2763 114.8725,207.2536 114.4134,207.1854 113.9631,207.0727 113.5261,206.9163 113.1065,206.7178 112.7083,206.4792 112.3355,206.2027 111.9916,205.891 111.6798,205.547 111.4033,205.1742 111.1647,204.7761 110.9662,204.3564 110.8099,203.9194 110.6971,203.4691 110.629,203.01 110.6062,202.5464 110.629,202.0827 110.6971,201.6236 110.8099,201.1733 110.9662,200.7363 111.1647,200.3167 111.4033,199.9185 111.6798,199.5457 111.9916,199.2018 112.3355,198.89 112.7083,198.6135"/>
    <polygon points="116.2589,220.2781 115.7998,220.3462 115.3362,220.369 114.8725,220.3462 114.4134,220.2781 113.9631,220.1653 113.5261,220.0089 113.1065,219.8105 112.7083,219.5719 112.3355,219.2953 111.9916,218.9836 111.6798,218.6397 111.4033,218.2669 111.1647,217.8687 110.9662,217.4491 110.8099,217.0121 110.6971,216.5618 110.629,216.1026 110.6062,215.639 110.629,215.1754 110.6971,214.7163 110.8099,214.266 110.9662,213.8289 111.1647,213.4093 111.4033,213.0112 111.6798,212.6384 111.9916,212.2944 112.3355,211.9827 112.7083,211.7062 113.1065,211.4676 113.5261,211.2691 113.9631,211.1127 114.4134,210.9999 114.8725,210.9318 115.3362,210.9091 115.7998,210.9318 116.2589,210.9999 116.7092,211.1127 117.1462,211.2691 117.5659,211.4676 117.964,211.7062 118.3368,211.9827 118.6808,212.2944 118.9925,212.6384 119.269,213.0112 119.5076,213.4093 119.7061,213.8289 119.8625,214.266 119.9752,214.7163 120.0434,215.1754 120.0661,215.639 120.0434,216.1026 119.9752,216.5618 119.8625,217.0121 119.7061,217.4491 119.5076,217.8687 119.269,218.2669 118.9925,218.6397 118.6808,218.9836 118.3368,219.2953 117.964,219.5719 117.5659,219.8105 117.1462,220.0089 116.7092,220.1653"/>
    <polygon points="108.6977,230.9628 109.1709,229.9624 109.7398,229.0132 110.399,228.1244 111.1421,227.3045 111.9621,226.5613 112.8509,225.9021 113.8001,225.3332 114.8004,224.8601 115.8423,224.4873 116.9158,224.2184 118.0104,224.056 119.1157,224.0017 120.221,224.056 121.3156,224.2184 122.389,224.4873 123.4309,224.8601 124.4313,225.3332 125.3805,225.9021 126.2693,226.5613 127.0892,227.3045 127.8324,228.1244 128.4916,229.0132 129.0605,229.9624 129.5336,230.9628 129.9064,232.0047 130.1753,233.0781 130.3377,234.1728 130.392,235.278 130.3377,236.3833 130.1753,237.4779 129.9064,238.5514 129.5336,239.5933 129.0605,240.5936 128.4916,241.5428 127.8324,242.4316 127.0892,243.2516 126.2693,243.9947 125.3805,244.6539 124.4313,245.2228 123.4309,245.696 122.389,246.0688 121.3156,246.3377 120.221,246.5 119.1157,246.5543 118.0104,246.5 116.9158,246.3377 115.8423,246.0688 114.8004,245.696 113.8001,245.2228 112.8509,244.6539 111.9621,243.9947 111.1421,243.2516 110.399,242.4316 109.7398,241.5428 109.1709,240.5936 108.6977,239.5933 108.3249,238.5514 108.0561,237.4779 107.8937,236.3833 107.8394,235.278 107.8937,234.1728 108.0561,233.0781 108.3249,232.0047"/>
    <polygon points="84.821,237.4779 84.5521,238.5514 84.1793,239.5933 83.7062,240.5936 83.1373,241.5428 82.4781,242.4316 81.7349,243.2516 80.915,243.9947 80.0261,244.6539 79.077,245.2228 78.0766,245.696 77.0347,246.0688 75.9613,246.3377 74.8666,246.5 73.7614,246.5543 72.6561,246.5 71.5615,246.3377 70.488,246.0688 69.4461,245.696 68.4457,245.2228 67.4966,244.6539 66.6077,243.9947 65.7878,243.2516 65.0447,242.4316 64.3854,241.5428 63.8165,240.5936 63.3434,239.5933 62.9706,238.5514 62.7017,237.4779 62.5393,236.3833 62.485,235.278 62.5393,234.1728 62.7017,233.0781 62.9706,232.0047 63.3434,230.9628 63.8165,229.9624 64.3854,229.0132 65.0447,228.1244 65.7878,227.3045 66.6077,226.5613 67.4966,225.9021 68.4457,225.3332 69.4461,224.8601 70.488,224.4873 71.5615,224.2184 72.6561,224.056 73.7614,224.0017 74.8666,224.056 75.9613,224.2184 77.0347,224.4873 78.0766,224.8601 79.077,225.3332 80.0261,225.9021 80.915,226.5613 81.7349,227.3045 82.4781,228.1244 83.1373,229.0132 83.7062,229.9624 84.1793,230.9628 84.5521,232.0047 84.821,233.0781 84.9834,234.1728 85.0377,235.278 84.9834,236.3833"/>
    <polygon points="92.1233,258.7886 91.1229,258.3155 90.1737,257.7466 89.2849,257.0874 88.465,256.3442 87.7218,255.5243 87.0626,254.6355 86.4937,253.6863 86.0206,252.6859 85.6478,251.644 85.3789,250.5706 85.2165,249.476 85.1622,248.3707 85.2165,247.2654 85.3789,246.1708 85.6478,245.0974 86.0206,244.0554 86.4937,243.0551 87.0626,242.1059 87.7218,241.2171 88.465,240.3971 89.2849,239.654 90.1737,238.9948 91.1229,238.4259 92.1233,237.9527 93.1652,237.5799 94.2386,237.3111 95.3332,237.1487 96.4385,237.0944 97.5438,237.1487 98.6384,237.3111 99.7119,237.5799 100.7538,237.9527 101.7541,238.4259 102.7033,238.9948 103.5921,239.654 104.4121,240.3971 105.1552,241.2171 105.8144,242.1059 106.3833,243.0551 106.8565,244.0554 107.2293,245.0974 107.4982,246.1708 107.6605,247.2654 107.7148,248.3707 107.6605,249.476 107.4982,250.5706 107.2293,251.644 106.8565,252.6859 106.3833,253.6863 105.8144,254.6355 105.1552,255.5243 104.4121,256.3442 103.5921,257.0874 102.7033,257.7466 101.7541,258.3155 100.7538,258.7886 99.7119,259.1614 98.6384,259.4303 97.5438,259.5927 96.4385,259.647 95.3332,259.5927 94.2386,259.4303 93.1652,259.1614"/>
    <polygon points="116.2589,272.6488 116.7092,272.536 117.1462,272.3796 117.5659,272.1812 117.964,271.9425 118.3368,271.666 118.6808,271.3543 118.9925,271.0104 119.269,270.6375 119.5076,270.2394 119.7061,269.8198 119.8625,269.3827 119.9752,268.9325 120.0434,268.4733 120.0661,268.0097 120.0434,267.5461 119.9752,267.0869 119.8625,266.6367 119.7061,266.1996 119.5076,265.78 119.269,265.3819 118.9925,265.009 118.6808,264.6651 118.3368,264.3534 117.964,264.0769 117.5659,263.8382 117.1462,263.6398 116.7092,263.4834 116.2589,263.3706 115.7998,263.3025 115.3362,263.2797 114.8725,263.3025 114.4134,263.3706 113.9631,263.4834 113.5261,263.6398 113.1065,263.8382 112.7083,264.0769 112.3355,264.3534 111.9916,264.6651 111.6798,265.009 111.4033,265.3819 111.1647,265.78 110.9662,266.1996 110.8099,266.6367 110.6971,267.0869 110.629,267.5461 110.6062,268.0097 110.629,268.4733 110.6971,268.9325 110.8099,269.3827 110.9662,269.8198 111.1647,270.2394 111.4033,270.6375 111.6798,271.0104 111.9916,271.3543 112.3355,271.666 112.7083,271.9425 113.1065,272.1812 113.5261,272.3796 113.9631,272.536 114.4134,272.6488 114.8725,272.7169 115.3362,272.7397 115.7998,272.7169"/>
    <polygon points="102.1875,278.926 102.6245,279.0823 103.0748,279.1951 103.534,279.2632 103.9976,279.286 104.4612,279.2632 104.9203,279.1951 105.3706,279.0823 105.8077,278.926 106.2273,278.7275 106.6254,278.4889 106.9982,278.2123 107.3422,277.9006 107.6539,277.5567 107.9304,277.1839 108.169,276.7857 108.3675,276.3661 108.5239,275.9291 108.6367,275.4788 108.7048,275.0196 108.7275,274.556 108.7048,274.0924 108.6367,273.6333 108.5239,273.183 108.3675,272.7459 108.169,272.3263 107.9304,271.9282 107.6539,271.5554 107.3422,271.2114 106.9982,270.8997 106.6254,270.6232 106.2273,270.3846 105.8077,270.1861 105.3706,270.0297 104.9203,269.9169 104.4612,269.8488 103.9976,269.8261 103.534,269.8488 103.0748,269.9169 102.6245,270.0297 102.1875,270.1861 101.7679,270.3846 101.3697,270.6232 100.9969,270.8997 100.653,271.2114 100.3413,271.5554 100.0647,271.9282 99.8261,272.3263 99.6277,272.7459 99.4713,273.183 99.3585,273.6333 99.2904,274.0924 99.2676,274.556 99.2904,275.0196 99.3585,275.4788 99.4713,275.9291 99.6277,276.3661 99.8261,276.7857 100.0647,277.1839 100.3413,277.5567 100.653,277.9006 100.9969,278.2123 101.3697,278.4889 101.7679,278.7275"/>
    <polygon points="108.6977,291.964 109.1709,292.9643 109.7398,293.9135 110.399,294.8023 111.1421,295.6222 111.9621,296.3654 112.8509,297.0246 113.8001,297.5935 114.8004,298.0666 115.8423,298.4394 116.9158,298.7083 118.0104,298.8707 119.1157,298.925 120.221,298.8707 121.3156,298.7083 122.389,298.4394 123.4309,298.0666 124.4313,297.5935 125.3805,297.0246 126.2693,296.3654 127.0892,295.6222 127.8324,294.8023 128.4916,293.9135 129.0605,292.9643 129.5336,291.964 129.9064,290.922 130.1753,289.8486 130.3377,288.754 130.392,287.6487 130.3377,286.5434 130.1753,285.4488 129.9064,284.3754 129.5336,283.3334 129.0605,282.3331 128.4916,281.3839 127.8324,280.4951 127.0892,279.6751 126.2693,278.932 125.3805,278.2728 124.4313,277.7039 123.4309,277.2307 122.389,276.8579 121.3156,276.5891 120.221,276.4267 119.1157,276.3724 118.0104,276.4267 116.9158,276.5891 115.8423,276.8579 114.8004,277.2307 113.8001,277.7039 112.8509,278.2728 111.9621,278.932 111.1421,279.6751 110.399,280.4951 109.7398,281.3839 109.1709,282.3331 108.6977,283.3334 108.3249,284.3754 108.0561,285.4488 107.8937,286.5434 107.8394,287.6487 107.8937,288.754 108.0561,289.8486 108.3249,290.922"/>
    <polygon points="100.3413,310.8334 100.0647,311.2062 99.8261,311.6043 99.6277,312.0239 99.4713,312.461 99.3585,312.9113 99.2904,313.3704 99.2676,313.834 99.2904,314.2976 99.3585,314.7568 99.4713,315.2071 99.6277,315.6441 99.8261,316.0637 100.0647,316.4619 100.3413,316.8347 100.653,317.1786 100.9969,317.4903 101.3697,317.7669 101.7679,318.0055 102.1875,318.204 102.6245,318.3603 103.0748,318.4731 103.534,318.5412 103.9976,318.564 104.4612,318.5412 104.9203,318.4731 105.3706,318.3603 105.8077,318.204 106.2273,318.0055 106.6254,317.7669 106.9982,317.4903 107.3422,317.1786 107.6539,316.8347 107.9304,316.4619 108.169,316.0637 108.3675,315.6441 108.5239,315.2071 108.6367,314.7568 108.7048,314.2976 108.7275,313.834 108.7048,313.3704 108.6367,312.9113 108.5239,312.461 108.3675,312.0239 108.169,311.6043 107.9304,311.2062 107.6539,310.8334 107.3422,310.4894 106.9982,310.1777 106.6254,309.9012 106.2273,309.6626 105.8077,309.4641 105.3706,309.3077 104.9203,309.1949 104.4612,309.1268 103.9976,309.1041 103.534,309.1268 103.0748,309.1949 102.6245,309.3077 102.1875,309.4641 101.7679,309.6626 101.3697,309.9012 100.9969,310.1777 100.653,310.4894"/>
    <polygon points="118.9925,310.2884 119.269,309.9155 119.5076,309.5174 119.7061,309.0978 119.8625,308.6607 119.9752,308.2105 120.0434,307.7513 120.0661,307.2877 120.0434,306.8241 119.9752,306.3649 119.8625,305.9147 119.7061,305.4776 119.5076,305.058 119.269,304.6599 118.9925,304.287 118.6808,303.9431 118.3368,303.6314 117.964,303.3549 117.5659,303.1162 117.1462,302.9178 116.7092,302.7614 116.2589,302.6486 115.7998,302.5805 115.3362,302.5577 114.8725,302.5805 114.4134,302.6486 113.9631,302.7614 113.5261,302.9178 113.1065,303.1162 112.7083,303.3549 112.3355,303.6314 111.9916,303.9431 111.6798,304.287 111.4033,304.6599 111.1647,305.058 110.9662,305.4776 110.8099,305.9147 110.6971,306.3649 110.629,306.8241 110.6062,307.2877 110.629,307.7513 110.6971,308.2105 110.8099,308.6607 110.9662,309.0978 111.1647,309.5174 111.4033,309.9155 111.6798,310.2884 111.9916,310.6323 112.3355,310.944 112.7083,311.2205 113.1065,311.4592 113.5261,311.6576 113.9631,311.814 114.4134,311.9268 114.8725,311.9949 115.3362,312.0177 115.7998,311.9949 116.2589,311.9268 116.7092,311.814 117.1462,311.6576 117.5659,311.4592 117.964,311.2205 118.3368,310.944 118.6808,310.6323"/>
    <polygon points="124.8647,309.4641 124.445,309.6626 124.0469,309.9012 123.6741,310.1777 123.3301,310.4894 123.0184,310.8334 122.7419,311.2062 122.5033,311.6043 122.3048,312.0239 122.1484,312.461 122.0357,312.9113 121.9675,313.3704 121.9448,313.834 121.9675,314.2976 122.0357,314.7568 122.1484,315.2071 122.3048,315.6441 122.5033,316.0637 122.7419,316.4619 123.0184,316.8347 123.3301,317.1786 123.6741,317.4903 124.0469,317.7669 124.445,318.0055 124.8647,318.204 125.3017,318.3603 125.752,318.4731 126.2111,318.5412 126.6747,318.564 127.1384,318.5412 127.5975,318.4731 128.0478,318.3603 128.4848,318.204 128.9044,318.0055 129.3026,317.7669 129.6754,317.4903 130.0193,317.1786 130.3311,316.8347 130.6076,316.4619 130.8462,316.0637 131.0447,315.6441 131.201,315.2071 131.3138,314.7568 131.3819,314.2976 131.4047,313.834 131.3819,313.3704 131.3138,312.9113 131.201,312.461 131.0447,312.0239 130.8462,311.6043 130.6076,311.2062 130.3311,310.8334 130.0193,310.4894 129.6754,310.1777 129.3026,309.9012 128.9044,309.6626 128.4848,309.4641 128.0478,309.3077 127.5975,309.1949 127.1384,309.1268 126.6747,309.1041 126.2111,309.1268 125.752,309.1949 125.3017,309.3077"/>
    <polygon points="130.7332,302.9413 130.5708,301.8466 130.5165,300.7414 130.5708,299.6361 130.7332,298.5415 131.0021,297.468 131.3749,296.4261 131.848,295.4257 132.4169,294.4766 133.0761,293.5878 133.8193,292.7678 134.6392,292.0247 135.5281,291.3655 136.4772,290.7965 137.4776,290.3234 138.5195,289.9506 139.593,289.6817 140.6876,289.5194 141.7929,289.4651 142.8981,289.5194 143.9928,289.6817 145.0662,289.9506 146.1081,290.3234 147.1085,290.7965 148.0576,291.3655 148.9465,292.0247 149.7664,292.7678 150.5096,293.5878 151.1688,294.4766 151.7377,295.4257 152.2108,296.4261 152.5836,297.468 152.8525,298.5415 153.0149,299.6361 153.0692,300.7414 153.0149,301.8466 152.8525,302.9413 152.5836,304.0147 152.2108,305.0566 151.7377,306.057 151.1688,307.0061 150.5096,307.895 149.7664,308.7149 148.9465,309.4581 148.0576,310.1173 147.1085,310.6862 146.1081,311.1593 145.0662,311.5321 143.9928,311.801 142.8981,311.9634 141.7929,312.0177 140.6876,311.9634 139.593,311.801 138.5195,311.5321 137.4776,311.1593 136.4772,310.6862 135.5281,310.1173 134.6392,309.4581 133.8193,308.7149 133.0761,307.895 132.4169,307.0061 131.848,306.057 131.3749,305.0566 131.0021,304.0147"/>
    <polygon points="149.5151,265.2304 150.5376,263.0686 151.767,261.0174 153.1916,259.0965 154.7976,257.3246 156.5696,255.7186 158.4904,254.294 160.5416,253.0645 162.7035,252.042 164.9551,251.2364 167.2749,250.6553 169.6405,250.3044 172.0291,250.1871 174.4176,250.3044 176.7832,250.6553 179.103,251.2364 181.3547,252.042 183.5165,253.0645 185.5677,254.294 187.4886,255.7186 189.2605,257.3246 190.8665,259.0965 192.2911,261.0174 193.5206,263.0686 194.5431,265.2304 195.3487,267.4821 195.9298,269.8019 196.2807,272.1675 196.398,274.556 196.2807,276.9446 195.9298,279.3102 195.3487,281.63 194.5431,283.8816 193.5206,286.0435 192.2911,288.0947 190.8665,290.0155 189.2605,291.7875 187.4886,293.3935 185.5677,294.8181 183.5165,296.0475 181.3547,297.07 179.103,297.8757 176.7832,298.4568 174.4176,298.8077 172.0291,298.925 169.6405,298.8077 167.2749,298.4568 164.9551,297.8757 162.7035,297.07 160.5416,296.0475 158.4904,294.8181 156.5696,293.3935 154.7976,291.7875 153.1916,290.0155 151.767,288.0947 150.5376,286.0435 149.5151,283.8816 148.7094,281.63 148.1283,279.3102 147.7774,276.9446 147.6601,274.556 147.7774,272.1675 148.1283,269.8019 148.7094,267.4821"/>
    <polygon points="136.4772,258.3155 135.5281,257.7466 134.6392,257.0874 133.8193,256.3442 133.0761,255.5243 132.4169,254.6355 131.848,253.6863 131.3749,252.6859 131.0021,251.644 130.7332,250.5706 130.5708,249.476 130.5165,248.3707 130.5708,247.2654 130.7332,246.1708 131.0021,245.0974 131.3749,244.0554 131.848,243.0551 132.4169,242.1059 133.0761,241.2171 133.8193,240.3971 134.6392,239.654 135.5281,238.9948 136.4772,238.4259 137.4776,237.9527 138.5195,237.5799 139.593,237.3111 140.6876,237.1487 141.7929,237.0944 142.8981,237.1487 143.9928,237.3111 145.0662,237.5799 146.1081,237.9527 147.1085,238.4259 148.0576,238.9948 148.9465,239.654 149.7664,240.3971 150.5096,241.2171 151.1688,242.1059 151.7377,243.0551 152.2108,244.0554 152.5836,245.0974 152.8525,246.1708 153.0149,247.2654 153.0692,248.3707 153.0149,249.476 152.8525,250.5706 152.5836,251.644 152.2108,252.6859 151.7377,253.6863 151.1688,254.6355 150.5096,255.5243 149.7664,256.3442 148.9465,257.0874 148.0576,257.7466 147.1085,258.3155 146.1081,258.7886 145.0662,259.1614 143.9928,259.4303 142.8981,259.5927 141.7929,259.647 140.6876,259.5927 139.593,259.4303 138.5195,259.1614 137.4776,258.7886"/>
    <polygon points="153.4104,233.0781 153.6793,232.0047 154.0521,230.9628 154.5252,229.9624 155.0941,229.0132 155.7533,228.1244 156.4965,227.3045 157.3164,226.5613 158.2052,225.9021 159.1544,225.3332 160.1548,224.8601 161.1967,224.4873 162.2701,224.2184 163.3647,224.056 164.47,224.0017 165.5753,224.056 166.6699,224.2184 167.7434,224.4873 168.7853,224.8601 169.7856,225.3332 170.7348,225.9021 171.6236,226.5613 172.4436,227.3045 173.1867,228.1244 173.8459,229.0132 174.4148,229.9624 174.888,230.9628 175.2608,232.0047 175.5297,233.0781 175.692,234.1728 175.7463,235.278 175.692,236.3833 175.5297,237.4779 175.2608,238.5514 174.888,239.5933 174.4148,240.5936 173.8459,241.5428 173.1867,242.4316 172.4436,243.2516 171.6236,243.9947 170.7348,244.6539 169.7856,245.2228 168.7853,245.696 167.7434,246.0688 166.6699,246.3377 165.5753,246.5 164.47,246.5543 163.3647,246.5 162.2701,246.3377 161.1967,246.0688 160.1548,245.696 159.1544,245.2228 158.2052,244.6539 157.3164,243.9947 156.4965,243.2516 155.7533,242.4316 155.0941,241.5428 154.5252,240.5936 154.0521,239.5933 153.6793,238.5514 153.4104,237.4779 153.248,236.3833 153.1937,235.278 153.248,234.1728"/>
    <polygon points="159.3175,220.1653 158.8804,220.0089 158.4608,219.8105 158.0627,219.5719 157.6898,219.2953 157.3459,218.9836 157.0342,218.6397 156.7577,218.2669 156.519,217.8687 156.3206,217.4491 156.1642,217.0121 156.0514,216.5618 155.9833,216.1026 155.9605,215.639 155.9833,215.1754 156.0514,214.7163 156.1642,214.266 156.3206,213.8289 156.519,213.4093 156.7577,213.0112 157.0342,212.6384 157.3459,212.2944 157.6898,211.9827 158.0627,211.7062 158.4608,211.4676 158.8804,211.2691 159.3175,211.1127 159.7677,210.9999 160.2269,210.9318 160.6905,210.9091 161.1541,210.9318 161.6133,210.9999 162.0635,211.1127 162.5006,211.2691 162.9202,211.4676 163.3183,211.7062 163.6912,211.9827 164.0351,212.2944 164.3468,212.6384 164.6233,213.0112 164.862,213.4093 165.0604,213.8289 165.2168,214.266 165.3296,214.7163 165.3977,215.1754 165.4205,215.639 165.3977,216.1026 165.3296,216.5618 165.2168,217.0121 165.0604,217.4491 164.862,217.8687 164.6233,218.2669 164.3468,218.6397 164.0351,218.9836 163.6912,219.2953 163.3183,219.5719 162.9202,219.8105 162.5006,220.0089 162.0635,220.1653 161.6133,220.2781 161.1541,220.3462 160.6905,220.369 160.2269,220.3462 159.7677,220.2781"/>
    <polygon points="175.8709,222.1854 175.9252,221.0801 176.0875,219.9855 176.3564,218.912 176.7292,217.8701 177.2024,216.8697 177.7713,215.9206 178.4305,215.0317 179.1736,214.2118 179.9936,213.4687 180.8824,212.8095 181.8316,212.2405 182.8319,211.7674 183.8738,211.3946 184.9473,211.1257 186.0419,210.9634 187.1472,210.9091 188.2525,210.9634 189.3471,211.1257 190.4205,211.3946 191.4624,211.7674 192.4628,212.2405 193.412,212.8095 194.3008,213.4687 195.1207,214.2118 195.8639,215.0317 196.5231,215.9206 197.092,216.8697 197.5651,217.8701 197.9379,218.912 198.2068,219.9855 198.3692,221.0801 198.4235,222.1854 198.3692,223.2906 198.2068,224.3853 197.9379,225.4587 197.5651,226.5006 197.092,227.501 196.5231,228.4501 195.8639,229.339 195.1207,230.1589 194.3008,230.9021 193.412,231.5613 192.4628,232.1302 191.4624,232.6033 190.4205,232.9761 189.3471,233.245 188.2525,233.4074 187.1472,233.4617 186.0419,233.4074 184.9473,233.245 183.8738,232.9761 182.8319,232.6033 181.8316,232.1302 180.8824,231.5613 179.9936,230.9021 179.1736,230.1589 178.4305,229.339 177.7713,228.4501 177.2024,227.501 176.7292,226.5006 176.3564,225.4587 176.0875,224.3853 175.9252,223.2906"/>
    <polygon points="172.0291,213.8227 171.5655,213.7999 171.1063,213.7318 170.656,213.619 170.219,213.4626 169.7994,213.2642 169.4012,213.0255 169.0284,212.749 168.6845,212.4373 168.3728,212.0934 168.0962,211.7205 167.8576,211.3224 167.6591,210.9028 167.5028,210.4657 167.39,210.0155 167.3219,209.5563 167.2991,209.0927 167.3219,208.6291 167.39,208.1699 167.5028,207.7197 167.6591,207.2826 167.8576,206.863 168.0962,206.4649 168.3728,206.092 168.6845,205.7481 169.0284,205.4364 169.4012,205.1599 169.7994,204.9212 170.219,204.7228 170.656,204.5664 171.1063,204.4536 171.5655,204.3855 172.0291,204.3627 172.4927,204.3855 172.9518,204.4536 173.4021,204.5664 173.8392,204.7228 174.2588,204.9212 174.6569,205.1599 175.0297,205.4364 175.3737,205.7481 175.6854,206.092 175.9619,206.4649 176.2005,206.863 176.399,207.2826 176.5554,207.7197 176.6682,208.1699 176.7363,208.6291 176.759,209.0927 176.7363,209.5563 176.6682,210.0155 176.5554,210.4657 176.399,210.9028 176.2005,211.3224 175.9619,211.7205 175.6854,212.0934 175.3737,212.4373 175.0297,212.749 174.6569,213.0255 174.2588,213.2642 173.8392,213.4626 173.4021,213.619 172.9518,213.7318 172.4927,213.7999"/>
    <polygon points="170.656,200.5263 170.219,200.3699 169.7994,200.1715 169.4012,199.9329 169.0284,199.6563 168.6845,199.3446 168.3728,199.0007 168.0962,198.6279 167.8576,198.2297 167.6591,197.8101 167.5028,197.3731 167.39,196.9228 167.3219,196.4636 167.2991,196.0 167.3219,195.5364 167.39,195.0773 167.5028,194.627 167.6591,194.1899 167.8576,193.7703 168.0962,193.3722 168.3728,192.9994 168.6845,192.6554 169.0284,192.3437 169.4012,192.0672 169.7994,191.8286 170.219,191.6301 170.656,191.4737 171.1063,191.3609 171.5655,191.2928 172.0291,191.2701 172.4927,191.2928 172.9518,191.3609 173.4021,191.4737 173.8392,191.6301 174.2588,191.8286 174.6569,192.0672 175.0297,192.3437 175.3737,192.6554 175.6854,192.9994 175.9619,193.3722 176.2005,193.7703 176.399,194.1899 176.5554,194.627 176.6682,195.0773 176.7363,195.5364 176.759,196.0 176.7363,196.4636 176.6682,196.9228 176.5554,197.3731 176.399,197.8101 176.2005,198.2297 175.9619,198.6279 175.6854,199.0007 175.3737,199.3446 175.0297,199.6563 174.6569,199.9329 174.2588,200.1715 173.8392,200.3699 173.4021,200.5263 172.9518,200.6391 172.4927,200.7072 172.0291,200.73 171.5655,200.7072 171.1063,200.6391"/>
    <polygon points="182.4449,197.9073 182.904,197.8392 183.3677,197.8164 183.8313,197.8392 184.2904,197.9073 184.7407,198.0201 185.1777,198.1764 185.5973,198.3749 185.9955,198.6135 186.3683,198.89 186.7123,199.2018 187.024,199.5457 187.3005,199.9185 187.5391,200.3167 187.7376,200.7363 187.894,201.1733 188.0067,201.6236 188.0749,202.0827 188.0976,202.5464 188.0749,203.01 188.0067,203.4691 187.894,203.9194 187.7376,204.3564 187.5391,204.7761 187.3005,205.1742 187.024,205.547 186.7123,205.891 186.3683,206.2027 185.9955,206.4792 185.5973,206.7178 185.1777,206.9163 184.7407,207.0727 184.2904,207.1854 183.8313,207.2536 183.3677,207.2763 182.904,207.2536 182.4449,207.1854 181.9946,207.0727 181.5576,206.9163 181.138,206.7178 180.7398,206.4792 180.367,206.2027 180.0231,205.891 179.7113,205.547 179.4348,205.1742 179.1962,204.7761 178.9977,204.3564 178.8414,203.9194 178.7286,203.4691 178.6605,203.01 178.6377,202.5464 178.6605,202.0827 178.7286,201.6236 178.8414,201.1733 178.9977,200.7363 179.1962,200.3167 179.4348,199.9185 179.7113,199.5457 180.0231,199.2018 180.367,198.89 180.7398,198.6135 181.138,198.3749 181.5576,198.1764 181.9946,198.0201"/>
    <polygon points="185.9955,193.3865 185.5973,193.6252 185.1777,193.8236 184.7407,193.98 184.2904,194.0928 183.8313,194.1609 183.3677,194.1837 182.904,194.1609 182.4449,194.0928 181.9946,193.98 181.5576,193.8236 181.138,193.6252 180.7398,193.3865 180.367,193.11 180.0231,192.7983 179.7113,192.4544 179.4348,192.0815 179.1962,191.6834 178.9977,191.2638 178.8414,190.8267 178.7286,190.3765 178.6605,189.9173 178.6377,189.4537 178.6605,188.9901 178.7286,188.5309 178.8414,188.0807 178.9977,187.6436 179.1962,187.224 179.4348,186.8259 179.7113,186.453 180.0231,186.1091 180.367,185.7974 180.7398,185.5209 181.138,185.2822 181.5576,185.0838 181.9946,184.9274 182.4449,184.8146 182.904,184.7465 183.3677,184.7237 183.8313,184.7465 184.2904,184.8146 184.7407,184.9274 185.1777,185.0838 185.5973,185.2822 185.9955,185.5209 186.3683,185.7974 186.7123,186.1091 187.024,186.453 187.3005,186.8259 187.5391,187.224 187.7376,187.6436 187.894,188.0807 188.0067,188.5309 188.0749,188.9901 188.0976,189.4537 188.0749,189.9173 188.0067,190.3765 187.894,190.8267 187.7376,191.2638 187.5391,191.6834 187.3005,192.0815 187.024,192.4544 186.7123,192.7983 186.3683,193.11"/>
    <polygon points="258.0986,181.9846 258.2114,181.5343 258.3678,181.0973 258.5663,180.6777 258.8049,180.2795 259.0814,179.9067 259.3931,179.5628 259.7371,179.251 260.1099,178.9745 260.508,178.7359 260.9277,178.5374 261.3647,178.3811 261.815,178.2683 262.2741,178.2002 262.7377,178.1774 263.2014,178.2002 263.6605,178.2683 264.1108,178.3811 264.5478,178.5374 264.9674,178.7359 265.3656,178.9745 265.7384,179.251 266.0823,179.5628 266.3941,179.9067 266.6706,180.2795 266.9092,180.6777 267.1077,181.0973 267.264,181.5343 267.3768,181.9846 267.4449,182.4437 267.4677,182.9074 267.4449,183.371 267.3768,183.8301 267.264,184.2804 267.1077,184.7174 266.9092,185.137 266.6706,185.5352 266.3941,185.908 266.0823,186.252 265.7384,186.5637 265.3656,186.8402 264.9674,187.0788 264.5478,187.2773 264.1108,187.4337 263.6605,187.5464 263.2014,187.6146 262.7377,187.6373 262.2741,187.6146 261.815,187.5464 261.3647,187.4337 260.9277,187.2773 260.508,187.0788 260.1099,186.8402 259.7371,186.5637 259.3931,186.252 259.0814,185.908 258.8049,185.5352 258.5663,185.137 258.3678,184.7174 258.2114,184.2804 258.0986,183.8301 258.0305,183.371 258.0078,182.9074 258.0305,182.4437"/>
    <polygon points="264.9674,165.6432 265.3656,165.8819 265.7384,166.1584 266.0823,166.4701 266.3941,166.814 266.6706,167.1869 266.9092,167.585 267.1077,168.0046 267.264,168.4416 267.3768,168.8919 267.4449,169.3511 267.4677,169.8147 267.4449,170.2783 267.3768,170.7375 267.264,171.1877 267.1077,171.6248 266.9092,172.0444 266.6706,172.4425 266.3941,172.8154 266.0823,173.1593 265.7384,173.471 265.3656,173.7475 264.9674,173.9862 264.5478,174.1846 264.1108,174.341 263.6605,174.4538 263.2014,174.5219 262.7377,174.5447 262.2741,174.5219 261.815,174.4538 261.3647,174.341 260.9277,174.1846 260.508,173.9862 260.1099,173.7475 259.7371,173.471 259.3931,173.1593 259.0814,172.8154 258.8049,172.4425 258.5663,172.0444 258.3678,171.6248 258.2114,171.1877 258.0986,170.7375 258.0305,170.2783 258.0078,169.8147 258.0305,169.3511 258.0986,168.8919 258.2114,168.4416 258.3678,168.0046 258.5663,167.585 258.8049,167.1869 259.0814,166.814 259.3931,166.4701 259.7371,166.1584 260.1099,165.8819 260.508,165.6432 260.9277,165.4448 261.3647,165.2884 261.815,165.1756 262.2741,165.1075 262.7377,165.0847 263.2014,165.1075 263.6605,165.1756 264.1108,165.2884 264.5478,165.4448"/>
    <polygon points="269.3691,175.8974 269.4372,175.4383 269.55,174.988 269.7064,174.5509 269.9049,174.1313 270.1435,173.7332 270.42,173.3604 270.7317,173.0164 271.0757,172.7047 271.4485,172.4282 271.8466,172.1896 272.2662,171.9911 272.7033,171.8347 273.1535,171.7219 273.6127,171.6538 274.0763,171.631 274.5399,171.6538 274.9991,171.7219 275.4494,171.8347 275.8864,171.9911 276.306,172.1896 276.7041,172.4282 277.077,172.7047 277.4209,173.0164 277.7326,173.3604 278.0091,173.7332 278.2478,174.1313 278.4462,174.5509 278.6026,174.988 278.7154,175.4383 278.7835,175.8974 278.8063,176.361 278.7835,176.8246 278.7154,177.2838 278.6026,177.7341 278.4462,178.1711 278.2478,178.5907 278.0091,178.9889 277.7326,179.3617 277.4209,179.7056 277.077,180.0173 276.7041,180.2939 276.306,180.5325 275.8864,180.7309 275.4494,180.8873 274.9991,181.0001 274.5399,181.0682 274.0763,181.091 273.6127,181.0682 273.1535,181.0001 272.7033,180.8873 272.2662,180.7309 271.8466,180.5325 271.4485,180.2939 271.0757,180.0173 270.7317,179.7056 270.42,179.3617 270.1435,178.9889 269.9049,178.5907 269.7064,178.1711 269.55,177.7341 269.4372,177.2838 269.3691,176.8246 269.3463,176.361"/>
    <polygon points="274.5825,185.2093 275.6559,184.9404 276.7506,184.778 277.8558,184.7237 278.9611,184.778 280.0557,184.9404 281.1292,185.2093 282.1711,185.5821 283.1715,186.0552 284.1206,186.6241 285.0095,187.2833 285.8294,188.0265 286.5725,188.8464 287.2318,189.7352 287.8007,190.6844 288.2738,191.6848 288.6466,192.7267 288.9155,193.8001 289.0779,194.8948 289.1322,196.0 289.0779,197.1053 288.9155,198.1999 288.6466,199.2734 288.2738,200.3153 287.8007,201.3156 287.2318,202.2648 286.5725,203.1536 285.8294,203.9736 285.0095,204.7167 284.1206,205.3759 283.1715,205.9448 282.1711,206.418 281.1292,206.7908 280.0557,207.0597 278.9611,207.222 277.8558,207.2763 276.7506,207.222 275.6559,207.0597 274.5825,206.7908 273.5406,206.418 272.5402,205.9448 271.5911,205.3759 270.7022,204.7167 269.8823,203.9736 269.1391,203.1536 268.4799,202.2648 267.911,201.3156 267.4379,200.3153 267.0651,199.2734 266.7962,198.1999 266.6338,197.1053 266.5795,196.0 266.6338,194.8948 266.7962,193.8001 267.0651,192.7267 267.4379,191.6848 267.911,190.6844 268.4799,189.7352 269.1391,188.8464 269.8823,188.0265 270.7022,187.2833 271.5911,186.6241 272.5402,186.0552 273.5406,185.5821"/>
    <polygon points="301.3926,188.5309 301.2798,188.0807 301.1234,187.6436 300.9249,187.224 300.6863,186.8259 300.4098,186.453 300.0981,186.1091 299.7541,185.7974 299.3813,185.5209 298.9832,185.2822 298.5636,185.0838 298.1265,184.9274 297.6763,184.8146 297.2171,184.7465 296.7535,184.7237 296.2899,184.7465 295.8307,184.8146 295.3804,184.9274 294.9434,185.0838 294.5238,185.2822 294.1256,185.5209 293.7528,185.7974 293.4089,186.1091 293.0972,186.453 292.8207,186.8259 292.582,187.224 292.3836,187.6436 292.2272,188.0807 292.1144,188.5309 292.0463,188.9901 292.0235,189.4537 292.0463,189.9173 292.1144,190.3765 292.2272,190.8267 292.3836,191.2638 292.582,191.6834 292.8207,192.0815 293.0972,192.4544 293.4089,192.7983 293.7528,193.11 294.1256,193.3865 294.5238,193.6252 294.9434,193.8236 295.3804,193.98 295.8307,194.0928 296.2899,194.1609 296.7535,194.1837 297.2171,194.1609 297.6763,194.0928 298.1265,193.98 298.5636,193.8236 298.9832,193.6252 299.3813,193.3865 299.7541,193.11 300.0981,192.7983 300.4098,192.4544 300.6863,192.0815 300.9249,191.6834 301.1234,191.2638 301.2798,190.8267 301.3926,190.3765 301.4607,189.9173 301.4835,189.4537 301.4607,188.9901"/>
    <polygon points="311.0927,186.5637 311.4367,186.252 311.7484,185.908 312.0249,185.5352 312.2635,185.137 312.462,184.7174 312.6184,184.2804 312.7312,183.8301 312.7993,183.371 312.822,182.9074 312.7993,182.4437 312.7312,181.9846 312.6184,181.5343 312.462,181.0973 312.2635,180.6777 312.0249,180.2795 311.7484,179.9067 311.4367,179.5628 311.0927,179.251 310.7199,178.9745 310.3218,178.7359 309.9021,178.5374 309.4651,178.3811 309.0148,178.2683 308.5557,178.2002 308.0921,178.1774 307.6284,178.2002 307.1693,178.2683 306.719,178.3811 306.282,178.5374 305.8624,178.7359 305.4642,178.9745 305.0914,179.251 304.7475,179.5628 304.4357,179.9067 304.1592,180.2795 303.9206,180.6777 303.7221,181.0973 303.5658,181.5343 303.453,181.9846 303.3849,182.4437 303.3621,182.9074 303.3849,183.371 303.453,183.8301 303.5658,184.2804 303.7221,184.7174 303.9206,185.137 304.1592,185.5352 304.4357,185.908 304.7475,186.252 305.0914,186.5637 305.4642,186.8402 305.8624,187.0788 306.282,187.2773 306.719,187.4337 307.1693,187.5464 307.6284,187.6146 308.0921,187.6373 308.5557,187.6146 309.0148,187.5464 309.4651,187.4337 309.9021,187.2773 310.3218,187.0788 310.7199,186.8402"/>
    <polygon points="301.3926,203.4691 301.2798,203.9194 301.1234,204.3564 300.9249,204.7761 300.6863,205.1742 300.4098,205.547 300.0981,205.891 299.7541,206.2027 299.3813,206.4792 298.9832,206.7178 298.5636,206.9163 298.1265,207.0727 297.6763,207.1854 297.2171,207.2536 296.7535,207.2763 296.2899,207.2536 295.8307,207.1854 295.3804,207.0727 294.9434,206.9163 294.5238,206.7178 294.1256,206.4792 293.7528,206.2027 293.4089,205.891 293.0972,205.547 292.8207,205.1742 292.582,204.7761 292.3836,204.3564 292.2272,203.9194 292.1144,203.4691 292.0463,203.01 292.0235,202.5464 292.0463,202.0827 292.1144,201.6236 292.2272,201.1733 292.3836,200.7363 292.582,200.3167 292.8207,199.9185 293.0972,199.5457 293.4089,199.2018 293.7528,198.89 294.1256,198.6135 294.5238,198.3749 294.9434,198.1764 295.3804,198.0201 295.8307,197.9073 296.2899,197.8392 296.7535,197.8164 297.2171,197.8392 297.6763,197.9073 298.1265,198.0201 298.5636,198.1764 298.9832,198.3749 299.3813,198.6135 299.7541,198.89 300.0981,199.2018 300.4098,199.5457 300.6863,199.9185 300.9249,200.3167 301.1234,200.7363 301.2798,201.1733 301.3926,201.6236 301.4607,202.0827 301.4835,202.5464 301.4607,203.01"/>
    <polygon points="292.1144,214.7163 292.2272,214.266 292.3836,213.8289 292.582,213.4093 292.8207,213.0112 293.0972,212.6384 293.4089,212.2944 293.7528,211.9827 294.1256,211.7062 294.5238,211.4676 294.9434,211.2691 295.3804,211.1127 295.8307,210.9999 296.2899,210.9318 296.7535,210.9091 297.2171,210.9318 297.6763,210.9999 298.1265,211.1127 298.5636,211.2691 298.9832,211.4676 299.3813,211.7062 299.7541,211.9827 300.0981,212.2944 300.4098,212.6384 300.6863,213.0112 300.9249,213.4093 301.1234,213.8289 301.2798,214.266 301.3926,214.7163 301.4607,215.1754 301.4835,215.639 301.4607,216.1026 301.3926,216.5618 301.2798,217.0121 301.1234,217.4491 300.9249,217.8687 300.6863,218.2669 300.4098,218.6397 300.0981,218.9836 299.7541,219.2953 299.3813,219.5719 298.9832,219.8105 298.5636,220.0089 298.1265,220.1653 297.6763,220.2781 297.2171,220.3462 296.7535,220.369 296.2899,220.3462 295.8307,220.2781 295.3804,220.1653 294.9434,220.0089 294.5238,219.8105 294.1256,219.5719 293.7528,219.2953 293.4089,218.9836 293.0972,218.6397 292.8207,218.2669 292.582,217.8687 292.3836,217.4491 292.2272,217.0121 292.1144,216.5618 292.0463,216.1026 292.0235,215.639 292.0463,215.1754"/>
    <polygon points="266.5795,222.1854 266.6338,221.0801 266.7962,219.9855 267.0651,218.912 267.4379,217.8701 267.911,216.8697 268.4799,215.9206 269.1391,215.0317 269.8823,214.2118 270.7022,213.4687 271.5911,212.8095 272.5402,212.2405 273.5406,211.7674 274.5825,211.3946 275.6559,211.1257 276.7506,210.9634 277.8558,210.9091 278.9611,210.9634 280.0557,211.1257 281.1292,211.3946 282.1711,211.7674 283.1715,212.2405 284.1206,212.8095 285.0095,213.4687 285.8294,214.2118 286.5725,215.0317 287.2318,215.9206 287.8007,216.8697 288.2738,217.8701 288.6466,218.912 288.9155,219.9855 289.0779,221.0801 289.1322,222.1854 289.0779,223.2906 288.9155,224.3853 288.6466,225.4587 288.2738,226.5006 287.8007,227.501 287.2318,228.4501 286.5725,229.339 285.8294,230.1589 285.0095,230.9021 284.1206,231.5613 283.1715,232.1302 282.1711,232.6033 281.1292,232.9761 280.0557,233.245 278.9611,233.4074 277.8558,233.4617 276.7506,233.4074 275.6559,233.245 274.5825,232.9761 273.5406,232.6033 272.5402,232.1302 271.5911,231.5613 270.7022,230.9021 269.8823,230.1589 269.1391,229.339 268.4799,228.4501 267.911,227.501 267.4379,226.5006 267.0651,225.4587 266.7962,224.3853 266.6338,223.2906"/>
    <polygon points="245.2339,229.9624 245.8028,229.0132 246.462,228.1244 247.2051,227.3045 248.0251,226.5613 248.9139,225.9021 249.8631,225.3332 250.8634,224.8601 251.9053,224.4873 252.9788,224.2184 254.0734,224.056 255.1787,224.0017 256.2839,224.056 257.3786,224.2184 258.452,224.4873 259.4939,224.8601 260.4943,225.3332 261.4435,225.9021 262.3323,226.5613 263.1522,227.3045 263.8954,228.1244 264.5546,229.0132 265.1235,229.9624 265.5966,230.9628 265.9694,232.0047 266.2383,233.0781 266.4007,234.1728 266.455,235.278 266.4007,236.3833 266.2383,237.4779 265.9694,238.5514 265.5966,239.5933 265.1235,240.5936 264.5546,241.5428 263.8954,242.4316 263.1522,243.2516 262.3323,243.9947 261.4435,244.6539 260.4943,245.2228 259.4939,245.696 258.452,246.0688 257.3786,246.3377 256.2839,246.5 255.1787,246.5543 254.0734,246.5 252.9788,246.3377 251.9053,246.0688 250.8634,245.696 249.8631,245.2228 248.9139,244.6539 248.0251,243.9947 247.2051,243.2516 246.462,242.4316 245.8028,241.5428 245.2339,240.5936 244.7607,239.5933 244.3879,238.5514 244.119,237.4779 243.9567,236.3833 243.9024,235.278 243.9567,234.1728 244.119,233.0781 244.3879,232.0047 244.7607,230.9628"/>
    <polygon points="242.2903,226.3568 241.8707,226.5553 241.4336,226.7117 240.9833,226.8244 240.5242,226.8926 240.0606,226.9153 239.597,226.8926 239.1378,226.8244 238.6875,226.7117 238.2505,226.5553 237.8309,226.3568 237.4327,226.1182 237.0599,225.8417 236.716,225.53 236.4043,225.186 236.1277,224.8132 235.8891,224.4151 235.6906,223.9954 235.5343,223.5584 235.4215,223.1081 235.3534,222.649 235.3306,222.1854 235.3534,221.7217 235.4215,221.2626 235.5343,220.8123 235.6906,220.3753 235.8891,219.9557 236.1277,219.5575 236.4043,219.1847 236.716,218.8408 237.0599,218.529 237.4327,218.2525 237.8309,218.0139 238.2505,217.8154 238.6875,217.6591 239.1378,217.5463 239.597,217.4782 240.0606,217.4554 240.5242,217.4782 240.9833,217.5463 241.4336,217.6591 241.8707,217.8154 242.2903,218.0139 242.6884,218.2525 243.0612,218.529 243.4052,218.8408 243.7169,219.1847 243.9934,219.5575 244.232,219.9557 244.4305,220.3753 244.5869,220.8123 244.6997,221.2626 244.7678,221.7217 244.7905,222.1854 244.7678,222.649 244.6997,223.1081 244.5869,223.5584 244.4305,223.9954 244.232,224.4151 243.9934,224.8132 243.7169,225.186 243.4052,225.53 243.0612,225.8417 242.6884,226.1182"/>
    <polygon points="246.692,215.1754 246.7601,214.7163 246.8728,214.266 247.0292,213.8289 247.2277,213.4093 247.4663,213.0112 247.7428,212.6384 248.0546,212.2944 248.3985,211.9827 248.7713,211.7062 249.1695,211.4676 249.5891,211.2691 250.0261,211.1127 250.4764,210.9999 250.9355,210.9318 251.3992,210.9091 251.8628,210.9318 252.3219,210.9999 252.7722,211.1127 253.2092,211.2691 253.6288,211.4676 254.027,211.7062 254.3998,211.9827 254.7437,212.2944 255.0555,212.6384 255.332,213.0112 255.5706,213.4093 255.7691,213.8289 255.9255,214.266 256.0382,214.7163 256.1063,215.1754 256.1291,215.639 256.1063,216.1026 256.0382,216.5618 255.9255,217.0121 255.7691,217.4491 255.5706,217.8687 255.332,218.2669 255.0555,218.6397 254.7437,218.9836 254.3998,219.2953 254.027,219.5719 253.6288,219.8105 253.2092,220.0089 252.7722,220.1653 252.3219,220.2781 251.8628,220.3462 251.3992,220.369 250.9355,220.3462 250.4764,220.2781 250.0261,220.1653 249.5891,220.0089 249.1695,219.8105 248.7713,219.5719 248.3985,219.2953 248.0546,218.9836 247.7428,218.6397 247.4663,218.2669 247.2277,217.8687 247.0292,217.4491 246.8728,217.0121 246.7601,216.5618 246.692,216.1026 246.6692,215.639"/>
    <polygon points="247.4663,205.1742 247.2277,204.7761 247.0292,204.3564 246.8728,203.9194 246.7601,203.4691 246.692,203.01 246.6692,202.5464 246.692,202.0827 246.7601,201.6236 246.8728,201.1733 247.0292,200.7363 247.2277,200.3167 247.4663,199.9185 247.7428,199.5457 248.0546,199.2018 248.3985,198.89 248.7713,198.6135 249.1695,198.3749 249.5891,198.1764 250.0261,198.0201 250.4764,197.9073 250.9355,197.8392 251.3992,197.8164 251.8628,197.8392 252.3219,197.9073 252.7722,198.0201 253.2092,198.1764 253.6288,198.3749 254.027,198.6135 254.3998,198.89 254.7437,199.2018 255.0555,199.5457 255.332,199.9185 255.5706,200.3167 255.7691,200.7363 255.9255,201.1733 256.0382,201.6236 256.1063,202.0827 256.1291,202.5464 256.1063,203.01 256.0382,203.4691 255.9255,203.9194 255.7691,204.3564 255.5706,204.7761 255.332,205.1742 255.0555,205.547 254.7437,205.891 254.3998,206.2027 254.027,206.4792 253.6288,206.7178 253.2092,206.9163 252.7722,207.0727 252.3219,207.1854 251.8628,207.2536 251.3992,207.2763 250.9355,207.2536 250.4764,207.1854 250.0261,207.0727 249.5891,206.9163 249.1695,206.7178 248.7713,206.4792 248.3985,206.2027 248.0546,205.891 247.7428,205.547"/>
    <polygon points="217.847,204.3855 218.3062,204.4536 218.7564,204.5664 219.1935,204.7228 219.6131,204.9212 220.0112,205.1599 220.3841,205.4364 220.728,205.7481 221.0397,206.092 221.3162,206.4649 221.5549,206.863 221.7533,207.2826 221.9097,207.7197 222.0225,208.1699 222.0906,208.6291 222.1134,209.0927 222.0906,209.5563 222.0225,210.0155 221.9097,210.4657 221.7533,210.9028 221.5549,211.3224 221.3162,211.7205 221.0397,212.0934 220.728,212.4373 220.3841,212.749 220.0112,213.0255 219.6131,213.2642 219.1935,213.4626 218.7564,213.619 218.3062,213.7318 217.847,213.7999 217.3834,213.8227 216.9198,213.7999 216.4606,213.7318 216.0104,213.619 215.5733,213.4626 215.1537,213.2642 214.7556,213.0255 214.3827,212.749 214.0388,212.4373 213.7271,212.0934 213.4506,211.7205 213.2119,211.3224 213.0135,210.9028 212.8571,210.4657 212.7443,210.0155 212.6762,209.5563 212.6534,209.0927 212.6762,208.6291 212.7443,208.1699 212.8571,207.7197 213.0135,207.2826 213.2119,206.863 213.4506,206.4649 213.7271,206.092 214.0388,205.7481 214.3827,205.4364 214.7556,205.1599 215.1537,204.9212 215.5733,204.7228 216.0104,204.5664 216.4606,204.4536 216.9198,204.3855 217.3834,204.3627"/>
    <polygon points="219.1935,217.8154 219.6131,218.0139 220.0112,218.2525 220.3841,218.529 220.728,218.8408 221.0397,219.1847 221.3162,219.5575 221.5549,219.9557 221.7533,220.3753 221.9097,220.8123 222.0225,221.2626 222.0906,221.7217 222.1134,222.1854 222.0906,222.649 222.0225,223.1081 221.9097,223.5584 221.7533,223.9954 221.5549,224.4151 221.3162,224.8132 221.0397,225.186 220.728,225.53 220.3841,225.8417 220.0112,226.1182 219.6131,226.3568 219.1935,226.5553 218.7564,226.7117 218.3062,226.8244 217.847,226.8926 217.3834,226.9153 216.9198,226.8926 216.4606,226.8244 216.0104,226.7117 215.5733,226.5553 215.1537,226.3568 214.7556,226.1182 214.3827,225.8417 214.0388,225.53 213.7271,225.186 213.4506,224.8132 213.2119,224.4151 213.0135,223.9954 212.8571,223.5584 212.7443,223.1081 212.6762,222.649 212.6534,222.1854 212.6762,221.7217 212.7443,221.2626 212.8571,220.8123 213.0135,220.3753 213.2119,219.9557 213.4506,219.5575 213.7271,219.1847 214.0388,218.8408 214.3827,218.529 214.7556,218.2525 215.1537,218.0139 215.5733,217.8154 216.0104,217.6591 216.4606,217.5463 216.9198,217.4782 217.3834,217.4554 217.847,217.4782 218.3062,217.5463 218.7564,217.6591"/>
    <polygon points="201.3376,216.1026 201.3148,215.639 201.3376,215.1754 201.4057,214.7163 201.5185,214.266 201.6749,213.8289 201.8734,213.4093 202.112,213.0112 202.3885,212.6384 202.7002,212.2944 203.0442,211.9827 203.417,211.7062 203.8151,211.4676 204.2347,211.2691 204.6718,211.1127 205.122,210.9999 205.5812,210.9318 206.0448,210.9091 206.5084,210.9318 206.9676,210.9999 207.4179,211.1127 207.8549,211.2691 208.2745,211.4676 208.6727,211.7062 209.0455,211.9827 209.3894,212.2944 209.7011,212.6384 209.9776,213.0112 210.2163,213.4093 210.4147,213.8289 210.5711,214.266 210.6839,214.7163 210.752,215.1754 210.7748,215.639 210.752,216.1026 210.6839,216.5618 210.5711,217.0121 210.4147,217.4491 210.2163,217.8687 209.9776,218.2669 209.7011,218.6397 209.3894,218.9836 209.0455,219.2953 208.6727,219.5719 208.2745,219.8105 207.8549,220.0089 207.4179,220.1653 206.9676,220.2781 206.5084,220.3462 206.0448,220.369 205.5812,220.3462 205.122,220.2781 204.6718,220.1653 204.2347,220.0089 203.8151,219.8105 203.417,219.5719 203.0442,219.2953 202.7002,218.9836 202.3885,218.6397 202.112,218.2669 201.8734,217.8687 201.6749,217.4491 201.5185,217.0121 201.4057,216.5618"/>
    <polygon points="201.3376,229.1953 201.3148,228.7317 201.3376,228.2681 201.4057,227.8089 201.5185,227.3587 201.6749,226.9216 201.8734,226.502 202.112,226.1039 202.3885,225.731 202.7002,225.3871 203.0442,225.0754 203.417,224.7989 203.8151,224.5602 204.2347,224.3618 204.6718,224.2054 205.122,224.0926 205.5812,224.0245 206.0448,224.0017 206.5084,224.0245 206.9676,224.0926 207.4179,224.2054 207.8549,224.3618 208.2745,224.5602 208.6727,224.7989 209.0455,225.0754 209.3894,225.3871 209.7011,225.731 209.9776,226.1039 210.2163,226.502 210.4147,226.9216 210.5711,227.3587 210.6839,227.8089 210.752,228.2681 210.7748,228.7317 210.752,229.1953 210.6839,229.6545 210.5711,230.1047 210.4147,230.5418 210.2163,230.9614 209.9776,231.3595 209.7011,231.7324 209.3894,232.0763 209.0455,232.388 208.6727,232.6645 208.2745,232.9032 207.8549,233.1016 207.4179,233.258 206.9676,233.3708 206.5084,233.4389 206.0448,233.4617 205.5812,233.4389 205.122,233.3708 204.6718,233.258 204.2347,233.1016 203.8151,232.9032 203.417,232.6645 203.0442,232.388 202.7002,232.0763 202.3885,231.7324 202.112,231.3595 201.8734,230.9614 201.6749,230.5418 201.5185,230.1047 201.4057,229.6545"/>
    <polygon points="220.3841,257.807 220.728,258.1188 221.0397,258.4627 221.3162,258.8355 221.5549,259.2337 221.7533,259.6533 221.9097,260.0903 222.0225,260.5406 222.0906,260.9997 222.1134,261.4634 222.0906,261.927 222.0225,262.3861 221.9097,262.8364 221.7533,263.2734 221.5549,263.6931 221.3162,264.0912 221.0397,264.464 220.728,264.808 220.3841,265.1197 220.0112,265.3962 219.6131,265.6348 219.1935,265.8333 218.7564,265.9897 218.3062,266.1024 217.847,266.1706 217.3834,266.1933 216.9198,266.1706 216.4606,266.1024 216.0104,265.9897 215.5733,265.8333 215.1537,265.6348 214.7556,265.3962 214.3827,265.1197 214.0388,264.808 213.7271,264.464 213.4506,264.0912 213.2119,263.6931 213.0135,263.2734 212.8571,262.8364 212.7443,262.3861 212.6762,261.927 212.6534,261.4634 212.6762,260.9997 212.7443,260.5406 212.8571,260.0903 213.0135,259.6533 213.2119,259.2337 213.4506,258.8355 213.7271,258.4627 214.0388,258.1188 214.3827,257.807 214.7556,257.5305 215.1537,257.2919 215.5733,257.0934 216.0104,256.9371 216.4606,256.8243 216.9198,256.7562 217.3834,256.7334 217.847,256.7562 218.3062,256.8243 218.7564,256.9371 219.1935,257.0934 219.6131,257.2919 220.0112,257.5305"/>
    <polygon points="238.7663,257.7466 237.8171,258.3155 236.8168,258.7886 235.7749,259.1614 234.7014,259.4303 233.6068,259.5927 232.5015,259.647 231.3962,259.5927 230.3016,259.4303 229.2282,259.1614 228.1863,258.7886 227.1859,258.3155 226.2367,257.7466 225.3479,257.0874 224.528,256.3442 223.7848,255.5243 223.1256,254.6355 222.5567,253.6863 222.0836,252.6859 221.7108,251.644 221.4419,250.5706 221.2795,249.476 221.2252,248.3707 221.2795,247.2654 221.4419,246.1708 221.7108,245.0974 222.0836,244.0554 222.5567,243.0551 223.1256,242.1059 223.7848,241.2171 224.528,240.3971 225.3479,239.654 226.2367,238.9948 227.1859,238.4259 228.1863,237.9527 229.2282,237.5799 230.3016,237.3111 231.3962,237.1487 232.5015,237.0944 233.6068,237.1487 234.7014,237.3111 235.7749,237.5799 236.8168,237.9527 237.8171,238.4259 238.7663,238.9948 239.6551,239.654 240.4751,240.3971 241.2182,241.2171 241.8774,242.1059 242.4463,243.0551 242.9195,244.0554 243.2923,245.0974 243.5611,246.1708 243.7235,247.2654 243.7778,248.3707 243.7235,249.476 243.5611,250.5706 243.2923,251.644 242.9195,252.6859 242.4463,253.6863 241.8774,254.6355 241.2182,255.5243 240.4751,256.3442 239.6551,257.0874"/>
    <polygon points="239.4181,281.63 238.837,279.3102 238.4861,276.9446 238.3688,274.556 238.4861,272.1675 238.837,269.8019 239.4181,267.4821 240.2237,265.2304 241.2462,263.0686 242.4757,261.0174 243.9003,259.0965 245.5063,257.3246 247.2782,255.7186 249.1991,254.294 251.2503,253.0645 253.4121,252.042 255.6638,251.2364 257.9836,250.6553 260.3492,250.3044 262.7377,250.1871 265.1263,250.3044 267.4919,250.6553 269.8117,251.2364 272.0633,252.042 274.2252,253.0645 276.2764,254.294 278.1972,255.7186 279.9692,257.3246 281.5752,259.0965 282.9998,261.0174 284.2293,263.0686 285.2517,265.2304 286.0574,267.4821 286.6385,269.8019 286.9894,272.1675 287.1067,274.556 286.9894,276.9446 286.6385,279.3102 286.0574,281.63 285.2517,283.8816 284.2293,286.0435 282.9998,288.0947 281.5752,290.0155 279.9692,291.7875 278.1972,293.3935 276.2764,294.8181 274.2252,296.0475 272.0633,297.07 269.8117,297.8757 267.4919,298.4568 265.1263,298.8077 262.7377,298.925 260.3492,298.8077 257.9836,298.4568 255.6638,297.8757 253.4121,297.07 251.2503,296.0475 249.1991,294.8181 247.2782,293.3935 245.5063,291.7875 243.9003,290.0155 242.4757,288.0947 241.2462,286.0435 240.2237,283.8816"/>
    <polygon points="244.119,311.6341 243.9567,312.7288 243.9024,313.834 243.9567,314.9393 244.119,316.0339 244.3879,317.1074 244.7607,318.1493 245.2339,319.1496 245.8028,320.0988 246.462,320.9876 247.2051,321.8076 248.0251,322.5507 248.9139,323.2099 249.8631,323.7788 250.8634,324.252 251.9053,324.6248 252.9788,324.8937 254.0734,325.056 255.1787,325.1103 256.2839,325.056 257.3786,324.8937 258.452,324.6248 259.4939,324.252 260.4943,323.7788 261.4435,323.2099 262.3323,322.5507 263.1522,321.8076 263.8954,320.9876 264.5546,320.0988 265.1235,319.1496 265.5966,318.1493 265.9694,317.1074 266.2383,316.0339 266.4007,314.9393 266.455,313.834 266.4007,312.7288 266.2383,311.6341 265.9694,310.5607 265.5966,309.5188 265.1235,308.5184 264.5546,307.5693 263.8954,306.6804 263.1522,305.8605 262.3323,305.1173 261.4435,304.4581 260.4943,303.8892 259.4939,303.4161 258.452,303.0433 257.3786,302.7744 256.2839,302.612 255.1787,302.5577 254.0734,302.612 252.9788,302.7744 251.9053,303.0433 250.8634,303.4161 249.8631,303.8892 248.9139,304.4581 248.0251,305.1173 247.2051,305.8605 246.462,306.6804 245.8028,307.5693 245.2339,308.5184 244.7607,309.5188 244.3879,310.5607"/>
    <polygon points="205.8959,322.2329 208.0578,323.2554 210.3095,324.061 212.6293,324.6421 214.9948,324.993 217.3834,325.1103 219.772,324.993 222.1376,324.6421 224.4573,324.061 226.709,323.2554 228.8709,322.2329 230.9221,321.0034 232.8429,319.5788 234.6149,317.9728 236.2209,316.2009 237.6455,314.28 238.8749,312.2288 239.8974,310.067 240.7031,307.8153 241.2841,305.4955 241.635,303.1299 241.7524,300.7414 241.635,298.3528 241.2841,295.9872 240.7031,293.6674 239.8974,291.4158 238.8749,289.2539 237.6455,287.2027 236.2209,285.2819 234.6149,283.5099 232.8429,281.9039 230.9221,280.4793 228.8709,279.2498 226.709,278.2274 224.4573,277.4217 222.1376,276.8406 219.772,276.4897 217.3834,276.3724 214.9948,276.4897 212.6293,276.8406 210.3095,277.4217 208.0578,278.2274 205.8959,279.2498 203.8447,280.4793 201.9239,281.9039 200.1519,283.5099 198.5459,285.2819 197.1213,287.2027 195.8919,289.2539 194.8694,291.4158 194.0637,293.6674 193.4827,295.9872 193.1318,298.3528 193.0144,300.7414 193.1318,303.1299 193.4827,305.4955 194.0637,307.8153 194.8694,310.067 195.8919,312.2288 197.1213,314.28 198.5459,316.2009 200.1519,317.9728 201.9239,319.5788 203.8447,321.0034"/>
    <polygon points="147.7774,329.3153 148.1283,331.6808 148.7094,334.0006 149.5151,336.2523 150.5376,338.4142 151.767,340.4654 153.1916,342.3862 154.7976,344.1582 156.5696,345.7642 158.4904,347.1888 160.5416,348.4182 162.7035,349.4407 164.9551,350.2464 167.2749,350.8274 169.6405,351.1783 172.0291,351.2957 174.4176,351.1783 176.7832,350.8274 179.103,350.2464 181.3547,349.4407 183.5165,348.4182 185.5677,347.1888 187.4886,345.7642 189.2605,344.1582 190.8665,342.3862 192.2911,340.4654 193.5206,338.4142 194.5431,336.2523 195.3487,334.0006 195.9298,331.6808 196.2807,329.3153 196.398,326.9267 196.2807,324.5381 195.9298,322.1725 195.3487,319.8528 194.5431,317.6011 193.5206,315.4392 192.2911,313.388 190.8665,311.4672 189.2605,309.6952 187.4886,308.0892 185.5677,306.6646 183.5165,305.4352 181.3547,304.4127 179.103,303.607 176.7832,303.026 174.4176,302.6751 172.0291,302.5577 169.6405,302.6751 167.2749,303.026 164.9551,303.607 162.7035,304.4127 160.5416,305.4352 158.4904,306.6646 156.5696,308.0892 154.7976,309.6952 153.1916,311.4672 151.767,313.388 150.5376,315.4392 149.5151,317.6011 148.7094,319.8528 148.1283,322.1725 147.7774,324.5381 147.6601,326.9267"/>
    <polygon points="127.1384,322.2195 126.6747,322.1967 126.2111,322.2195 125.752,322.2876 125.3017,322.4004 124.8647,322.5568 124.445,322.7552 124.0469,322.9939 123.6741,323.2704 123.3301,323.5821 123.0184,323.926 122.7419,324.2989 122.5033,324.697 122.3048,325.1166 122.1484,325.5537 122.0357,326.0039 121.9675,326.4631 121.9448,326.9267 121.9675,327.3903 122.0357,327.8495 122.1484,328.2997 122.3048,328.7368 122.5033,329.1564 122.7419,329.5545 123.0184,329.9274 123.3301,330.2713 123.6741,330.583 124.0469,330.8595 124.445,331.0982 124.8647,331.2966 125.3017,331.453 125.752,331.5658 126.2111,331.6339 126.6747,331.6567 127.1384,331.6339 127.5975,331.5658 128.0478,331.453 128.4848,331.2966 128.9044,331.0982 129.3026,330.8595 129.6754,330.583 130.0193,330.2713 130.3311,329.9274 130.6076,329.5545 130.8462,329.1564 131.0447,328.7368 131.201,328.2997 131.3138,327.8495 131.3819,327.3903 131.4047,326.9267 131.3819,326.4631 131.3138,326.0039 131.201,325.5537 131.0447,325.1166 130.8462,324.697 130.6076,324.2989 130.3311,323.926 130.0193,323.5821 129.6754,323.2704 129.3026,322.9939 128.9044,322.7552 128.4848,322.5568 128.0478,322.4004 127.5975,322.2876"/>
    <polygon points="115.7998,325.0876 116.2589,325.0195 116.7092,324.9067 117.1462,324.7503 117.5659,324.5518 117.964,324.3132 118.3368,324.0367 118.6808,323.725 118.9925,323.381 119.269,323.0082 119.5076,322.6101 119.7061,322.1904 119.8625,321.7534 119.9752,321.3031 120.0434,320.844 120.0661,320.3804 120.0434,319.9167 119.9752,319.4576 119.8625,319.0073 119.7061,318.5703 119.5076,318.1507 119.269,317.7525 118.9925,317.3797 118.6808,317.0358 118.3368,316.724 117.964,316.4475 117.5659,316.2089 117.1462,316.0104 116.7092,315.8541 116.2589,315.7413 115.7998,315.6732 115.3362,315.6504 114.8725,315.6732 114.4134,315.7413 113.9631,315.8541 113.5261,316.0104 113.1065,316.2089 112.7083,316.4475 112.3355,316.724 111.9916,317.0358 111.6798,317.3797 111.4033,317.7525 111.1647,318.1507 110.9662,318.5703 110.8099,319.0073 110.6971,319.4576 110.629,319.9167 110.6062,320.3804 110.629,320.844 110.6971,321.3031 110.8099,321.7534 110.9662,322.1904 111.1647,322.6101 111.4033,323.0082 111.6798,323.381 111.9916,323.725 112.3355,324.0367 112.7083,324.3132 113.1065,324.5518 113.5261,324.7503 113.9631,324.9067 114.4134,325.0195 114.8725,325.0876 115.3362,325.1103"/>
    <polygon points="110.6971,332.5503 110.629,333.0094 110.6062,333.473 110.629,333.9367 110.6971,334.3958 110.8099,334.8461 110.9662,335.2831 111.1647,335.7027 111.4033,336.1009 111.6798,336.4737 111.9916,336.8176 112.3355,337.1294 112.7083,337.4059 113.1065,337.6445 113.5261,337.843 113.9631,337.9993 114.4134,338.1121 114.8725,338.1802 115.3362,338.203 115.7998,338.1802 116.2589,338.1121 116.7092,337.9993 117.1462,337.843 117.5659,337.6445 117.964,337.4059 118.3368,337.1294 118.6808,336.8176 118.9925,336.4737 119.269,336.1009 119.5076,335.7027 119.7061,335.2831 119.8625,334.8461 119.9752,334.3958 120.0434,333.9367 120.0661,333.473 120.0434,333.0094 119.9752,332.5503 119.8625,332.1 119.7061,331.663 119.5076,331.2433 119.269,330.8452 118.9925,330.4724 118.6808,330.1284 118.3368,329.8167 117.964,329.5402 117.5659,329.3016 117.1462,329.1031 116.7092,328.9467 116.2589,328.8339 115.7998,328.7658 115.3362,328.7431 114.8725,328.7658 114.4134,328.8339 113.9631,328.9467 113.5261,329.1031 113.1065,329.3016 112.7083,329.5402 112.3355,329.8167 111.9916,330.1284 111.6798,330.4724 111.4033,330.8452 111.1647,331.2433 110.9662,331.663 110.8099,332.1"/>
    <polygon points="108.7048,339.5557 108.6367,339.0966 108.5239,338.6463 108.3675,338.2093 108.169,337.7897 107.9304,337.3915 107.6539,337.0187 107.3422,336.6748 106.9982,336.363 106.6254,336.0865 106.2273,335.8479 105.8077,335.6494 105.3706,335.4931 104.9203,335.3803 104.4612,335.3122 103.9976,335.2894 103.534,335.3122 103.0748,335.3803 102.6245,335.4931 102.1875,335.6494 101.7679,335.8479 101.3697,336.0865 100.9969,336.363 100.653,336.6748 100.3413,337.0187 100.0647,337.3915 99.8261,337.7897 99.6277,338.2093 99.4713,338.6463 99.3585,339.0966 99.2904,339.5557 99.2676,340.0194 99.2904,340.483 99.3585,340.9421 99.4713,341.3924 99.6277,341.8294 99.8261,342.2491 100.0647,342.6472 100.3413,343.02 100.653,343.364 100.9969,343.6757 101.3697,343.9522 101.7679,344.1908 102.1875,344.3893 102.6245,344.5457 103.0748,344.6585 103.534,344.7266 103.9976,344.7493 104.4612,344.7266 104.9203,344.6585 105.3706,344.5457 105.8077,344.3893 106.2273,344.1908 106.6254,343.9522 106.9982,343.6757 107.3422,343.364 107.6539,343.02 107.9304,342.6472 108.169,342.2491 108.3675,341.8294 108.5239,341.3924 108.6367,340.9421 108.7048,340.483 108.7275,340.0194"/>
    <polygon points="124.445,362.0332 124.0469,362.2719 123.6741,362.5484 123.3301,362.8601 123.0184,363.204 122.7419,363.5769 122.5033,363.975 122.3048,364.3946 122.1484,364.8317 122.0357,365.2819 121.9675,365.7411 121.9448,366.2047 121.9675,366.6683 122.0357,367.1275 122.1484,367.5777 122.3048,368.0148 122.5033,368.4344 122.7419,368.8325 123.0184,369.2054 123.3301,369.5493 123.6741,369.861 124.0469,370.1375 124.445,370.3762 124.8647,370.5746 125.3017,370.731 125.752,370.8438 126.2111,370.9119 126.6747,370.9347 127.1384,370.9119 127.5975,370.8438 128.0478,370.731 128.4848,370.5746 128.9044,370.3762 129.3026,370.1375 129.6754,369.861 130.0193,369.5493 130.3311,369.2054 130.6076,368.8325 130.8462,368.4344 131.0447,368.0148 131.201,367.5777 131.3138,367.1275 131.3819,366.6683 131.4047,366.2047 131.3819,365.7411 131.3138,365.2819 131.201,364.8317 131.0447,364.3946 130.8462,363.975 130.6076,363.5769 130.3311,363.204 130.0193,362.8601 129.6754,362.5484 129.3026,362.2719 128.9044,362.0332 128.4848,361.8348 128.0478,361.6784 127.5975,361.5656 127.1384,361.4975 126.6747,361.4747 126.2111,361.4975 125.752,361.5656 125.3017,361.6784 124.8647,361.8348"/>
    <polygon points="147.1085,363.0568 148.0576,362.4879 148.9465,361.8287 149.7664,361.0856 150.5096,360.2656 151.1688,359.3768 151.7377,358.4276 152.2108,357.4273 152.5836,356.3854 152.8525,355.3119 153.0149,354.2173 153.0692,353.112 153.0149,352.0068 152.8525,350.9121 152.5836,349.8387 152.2108,348.7968 151.7377,347.7964 151.1688,346.8473 150.5096,345.9584 149.7664,345.1385 148.9465,344.3953 148.0576,343.7361 147.1085,343.1672 146.1081,342.6941 145.0662,342.3213 143.9928,342.0524 142.8981,341.89 141.7929,341.8357 140.6876,341.89 139.593,342.0524 138.5195,342.3213 137.4776,342.6941 136.4772,343.1672 135.5281,343.7361 134.6392,344.3953 133.8193,345.1385 133.0761,345.9584 132.4169,346.8473 131.848,347.7964 131.3749,348.7968 131.0021,349.8387 130.7332,350.9121 130.5708,352.0068 130.5165,353.112 130.5708,354.2173 130.7332,355.3119 131.0021,356.3854 131.3749,357.4273 131.848,358.4276 132.4169,359.3768 133.0761,360.2656 133.8193,361.0856 134.6392,361.8287 135.5281,362.4879 136.4772,363.0568 137.4776,363.53 138.5195,363.9028 139.593,364.1717 140.6876,364.334 141.7929,364.3883 142.8981,364.334 143.9928,364.1717 145.0662,363.9028 146.1081,363.53"/>
    <polygon points="153.7218,381.1075 153.5234,381.5271 153.2847,381.9252 153.0082,382.298 152.6965,382.642 152.3526,382.9537 151.9797,383.2302 151.5816,383.4688 151.162,383.6673 150.7249,383.8237 150.2747,383.9365 149.8155,384.0046 149.3519,384.0273 148.8883,384.0046 148.4291,383.9365 147.9789,383.8237 147.5418,383.6673 147.1222,383.4688 146.7241,383.2302 146.3512,382.9537 146.0073,382.642 145.6956,382.298 145.4191,381.9252 145.1804,381.5271 144.982,381.1075 144.8256,380.6704 144.7128,380.2201 144.6447,379.761 144.6219,379.2974 144.6447,378.8338 144.7128,378.3746 144.8256,377.9243 144.982,377.4873 145.1804,377.0677 145.4191,376.6695 145.6956,376.2967 146.0073,375.9528 146.3512,375.6411 146.7241,375.3645 147.1222,375.1259 147.5418,374.9274 147.9789,374.7711 148.4291,374.6583 148.8883,374.5902 149.3519,374.5674 149.8155,374.5902 150.2747,374.6583 150.7249,374.7711 151.162,374.9274 151.5816,375.1259 151.9797,375.3645 152.3526,375.6411 152.6965,375.9528 153.0082,376.2967 153.2847,376.6695 153.5234,377.0677 153.7218,377.4873 153.8782,377.9243 153.991,378.3746 154.0591,378.8338 154.0819,379.2974 154.0591,379.761 153.991,380.2201 153.8782,380.6704"/>
    <polygon points="158.0627,381.9109 158.4608,381.6722 158.8804,381.4738 159.3175,381.3174 159.7677,381.2046 160.2269,381.1365 160.6905,381.1137 161.1541,381.1365 161.6133,381.2046 162.0635,381.3174 162.5006,381.4738 162.9202,381.6722 163.3183,381.9109 163.6912,382.1874 164.0351,382.4991 164.3468,382.843 164.6233,383.2159 164.862,383.614 165.0604,384.0336 165.2168,384.4707 165.3296,384.9209 165.3977,385.3801 165.4205,385.8437 165.3977,386.3073 165.3296,386.7665 165.2168,387.2167 165.0604,387.6538 164.862,388.0734 164.6233,388.4715 164.3468,388.8444 164.0351,389.1883 163.6912,389.5 163.3183,389.7765 162.9202,390.0152 162.5006,390.2136 162.0635,390.37 161.6133,390.4828 161.1541,390.5509 160.6905,390.5737 160.2269,390.5509 159.7677,390.4828 159.3175,390.37 158.8804,390.2136 158.4608,390.0152 158.0627,389.7765 157.6898,389.5 157.3459,389.1883 157.0342,388.8444 156.7577,388.4715 156.519,388.0734 156.3206,387.6538 156.1642,387.2167 156.0514,386.7665 155.9833,386.3073 155.9605,385.8437 155.9833,385.3801 156.0514,384.9209 156.1642,384.4707 156.3206,384.0336 156.519,383.614 156.7577,383.2159 157.0342,382.843 157.3459,382.4991 157.6898,382.1874"/>
    <polygon points="160.1548,376.6226 159.1544,376.1495 158.2052,375.5806 157.3164,374.9214 156.4965,374.1783 155.7533,373.3583 155.0941,372.4695 154.5252,371.5203 154.0521,370.52 153.6793,369.478 153.4104,368.4046 153.248,367.31 153.1937,366.2047 153.248,365.0994 153.4104,364.0048 153.6793,362.9314 154.0521,361.8894 154.5252,360.8891 155.0941,359.9399 155.7533,359.0511 156.4965,358.2311 157.3164,357.488 158.2052,356.8288 159.1544,356.2599 160.1548,355.7868 161.1967,355.4139 162.2701,355.1451 163.3647,354.9827 164.47,354.9284 165.5753,354.9827 166.6699,355.1451 167.7434,355.4139 168.7853,355.7868 169.7856,356.2599 170.7348,356.8288 171.6236,357.488 172.4436,358.2311 173.1867,359.0511 173.8459,359.9399 174.4148,360.8891 174.888,361.8894 175.2608,362.9314 175.5297,364.0048 175.692,365.0994 175.7463,366.2047 175.692,367.31 175.5297,368.4046 175.2608,369.478 174.888,370.52 174.4148,371.5203 173.8459,372.4695 173.1867,373.3583 172.4436,374.1783 171.6236,374.9214 170.7348,375.5806 169.7856,376.1495 168.7853,376.6226 167.7434,376.9955 166.6699,377.2643 165.5753,377.4267 164.47,377.481 163.3647,377.4267 162.2701,377.2643 161.1967,376.9955"/>
    <polygon points="195.8639,372.1438 195.1207,371.3238 194.3008,370.5807 193.412,369.9215 192.4628,369.3526 191.4624,368.8794 190.4205,368.5066 189.3471,368.2377 188.2525,368.0754 187.1472,368.0211 186.0419,368.0754 184.9473,368.2377 183.8738,368.5066 182.8319,368.8794 181.8316,369.3526 180.8824,369.9215 179.9936,370.5807 179.1736,371.3238 178.4305,372.1438 177.7713,373.0326 177.2024,373.9818 176.7292,374.9821 176.3564,376.024 176.0875,377.0975 175.9252,378.1921 175.8709,379.2974 175.9252,380.4026 176.0875,381.4973 176.3564,382.5707 176.7292,383.6126 177.2024,384.613 177.7713,385.5621 178.4305,386.451 179.1736,387.2709 179.9936,388.0141 180.8824,388.6733 181.8316,389.2422 182.8319,389.7153 183.8738,390.0881 184.9473,390.357 186.0419,390.5194 187.1472,390.5737 188.2525,390.5194 189.3471,390.357 190.4205,390.0881 191.4624,389.7153 192.4628,389.2422 193.412,388.6733 194.3008,388.0141 195.1207,387.2709 195.8639,386.451 196.5231,385.5621 197.092,384.613 197.5651,383.6126 197.9379,382.5707 198.2068,381.4973 198.3692,380.4026 198.4235,379.2974 198.3692,378.1921 198.2068,377.0975 197.9379,376.024 197.5651,374.9821 197.092,373.9818 196.5231,373.0326"/>
    <polygon points="208.6727,376.6839 209.0455,376.4074 209.3894,376.0956 209.7011,375.7517 209.9776,375.3789 210.2163,374.9807 210.4147,374.5611 210.5711,374.1241 210.6839,373.6738 210.752,373.2147 210.7748,372.751 210.752,372.2874 210.6839,371.8283 210.5711,371.378 210.4147,370.941 210.2163,370.5213 209.9776,370.1232 209.7011,369.7504 209.3894,369.4064 209.0455,369.0947 208.6727,368.8182 208.2745,368.5796 207.8549,368.3811 207.4179,368.2247 206.9676,368.1119 206.5084,368.0438 206.0448,368.0211 205.5812,368.0438 205.122,368.1119 204.6718,368.2247 204.2347,368.3811 203.8151,368.5796 203.417,368.8182 203.0442,369.0947 202.7002,369.4064 202.3885,369.7504 202.112,370.1232 201.8734,370.5213 201.6749,370.941 201.5185,371.378 201.4057,371.8283 201.3376,372.2874 201.3148,372.751 201.3376,373.2147 201.4057,373.6738 201.5185,374.1241 201.6749,374.5611 201.8734,374.9807 202.112,375.3789 202.3885,375.7517 202.7002,376.0956 203.0442,376.4074 203.417,376.6839 203.8151,376.9225 204.2347,377.121 204.6718,377.2773 205.122,377.3901 205.5812,377.4582 206.0448,377.481 206.5084,377.4582 206.9676,377.3901 207.4179,377.2773 207.8549,377.121 208.2745,376.9225"/>
    <polygon points="208.2745,381.6722 207.8549,381.4738 207.4179,381.3174 206.9676,381.2046 206.5084,381.1365 206.0448,381.1137 205.5812,381.1365 205.122,381.2046 204.6718,381.3174 204.2347,381.4738 203.8151,381.6722 203.417,381.9109 203.0442,382.1874 202.7002,382.4991 202.3885,382.843 202.112,383.2159 201.8734,383.614 201.6749,384.0336 201.5185,384.4707 201.4057,384.9209 201.3376,385.3801 201.3148,385.8437 201.3376,386.3073 201.4057,386.7665 201.5185,387.2167 201.6749,387.6538 201.8734,388.0734 202.112,388.4715 202.3885,388.8444 202.7002,389.1883 203.0442,389.5 203.417,389.7765 203.8151,390.0152 204.2347,390.2136 204.6718,390.37 205.122,390.4828 205.5812,390.5509 206.0448,390.5737 206.5084,390.5509 206.9676,390.4828 207.4179,390.37 207.8549,390.2136 208.2745,390.0152 208.6727,389.7765 209.0455,389.5 209.3894,389.1883 209.7011,388.8444 209.9776,388.4715 210.2163,388.0734 210.4147,387.6538 210.5711,387.2167 210.6839,386.7665 210.752,386.3073 210.7748,385.8437 210.752,385.3801 210.6839,384.9209 210.5711,384.4707 210.4147,384.0336 210.2163,383.614 209.9776,383.2159 209.7011,382.843 209.3894,382.4991 209.0455,382.1874 208.6727,381.9109"/>
    <polygon points="221.0397,395.3907 221.3162,395.0179 221.5549,394.6197 221.7533,394.2001 221.9097,393.7631 222.0225,393.3128 222.0906,392.8537 222.1134,392.39 222.0906,391.9264 222.0225,391.4673 221.9097,391.017 221.7533,390.58 221.5549,390.1603 221.3162,389.7622 221.0397,389.3894 220.728,389.0454 220.3841,388.7337 220.0112,388.4572 219.6131,388.2186 219.1935,388.0201 218.7564,387.8637 218.3062,387.7509 217.847,387.6828 217.3834,387.6601 216.9198,387.6828 216.4606,387.7509 216.0104,387.8637 215.5733,388.0201 215.1537,388.2186 214.7556,388.4572 214.3827,388.7337 214.0388,389.0454 213.7271,389.3894 213.4506,389.7622 213.2119,390.1603 213.0135,390.58 212.8571,391.017 212.7443,391.4673 212.6762,391.9264 212.6534,392.39 212.6762,392.8537 212.7443,393.3128 212.8571,393.7631 213.0135,394.2001 213.2119,394.6197 213.4506,395.0179 213.7271,395.3907 214.0388,395.7346 214.3827,396.0464 214.7556,396.3229 215.1537,396.5615 215.5733,396.76 216.0104,396.9163 216.4606,397.0291 216.9198,397.0972 217.3834,397.12 217.847,397.0972 218.3062,397.0291 218.7564,396.9163 219.1935,396.76 219.6131,396.5615 220.0112,396.3229 220.3841,396.0464 220.728,395.7346"/>
    <polygon points="252.7722,328.9467 252.3219,328.8339 251.8628,328.7658 251.3992,328.7431 250.9355,328.7658 250.4764,328.8339 250.0261,328.9467 249.5891,329.1031 249.1695,329.3016 248.7713,329.5402 248.3985,329.8167 248.0546,330.1284 247.7428,330.4724 247.4663,330.8452 247.2277,331.2433 247.0292,331.663 246.8728,332.1 246.7601,332.5503 246.692,333.0094 246.6692,333.473 246.692,333.9367 246.7601,334.3958 246.8728,334.8461 247.0292,335.2831 247.2277,335.7027 247.4663,336.1009 247.7428,336.4737 248.0546,336.8176 248.3985,337.1294 248.7713,337.4059 249.1695,337.6445 249.5891,337.843 250.0261,337.9993 250.4764,338.1121 250.9355,338.1802 251.3992,338.203 251.8628,338.1802 252.3219,338.1121 252.7722,337.9993 253.2092,337.843 253.6288,337.6445 254.027,337.4059 254.3998,337.1294 254.7437,336.8176 255.0555,336.4737 255.332,336.1009 255.5706,335.7027 255.7691,335.2831 255.9255,334.8461 256.0382,334.3958 256.1063,333.9367 256.1291,333.473 256.1063,333.0094 256.0382,332.5503 255.9255,332.1 255.7691,331.663 255.5706,331.2433 255.332,330.8452 255.0555,330.4724 254.7437,330.1284 254.3998,329.8167 254.027,329.5402 253.6288,329.3016 253.2092,329.1031"/>
    <polygon points="269.3463,320.3804 269.3691,320.844 269.4372,321.3031 269.55,321.7534 269.7064,322.1904 269.9049,322.6101 270.1435,323.0082 270.42,323.381 270.7317,323.725 271.0757,324.0367 271.4485,324.3132 271.8466,324.5518 272.2662,324.7503 272.7033,324.9067 273.1535,325.0195 273.6127,325.0876 274.0763,325.1103 274.5399,325.0876 274.9991,325.0195 275.4494,324.9067 275.8864,324.7503 276.306,324.5518 276.7041,324.3132 277.077,324.0367 277.4209,323.725 277.7326,323.381 278.0091,323.0082 278.2478,322.6101 278.4462,322.1904 278.6026,321.7534 278.7154,321.3031 278.7835,320.844 278.8063,320.3804 278.7835,319.9167 278.7154,319.4576 278.6026,319.0073 278.4462,318.5703 278.2478,318.1507 278.0091,317.7525 277.7326,317.3797 277.4209,317.0358 277.077,316.724 276.7041,316.4475 276.306,316.2089 275.8864,316.0104 275.4494,315.8541 274.9991,315.7413 274.5399,315.6732 274.0763,315.6504 273.6127,315.6732 273.1535,315.7413 272.7033,315.8541 272.2662,316.0104 271.8466,316.2089 271.4485,316.4475 271.0757,316.724 270.7317,317.0358 270.42,317.3797 270.1435,317.7525 269.9049,318.1507 269.7064,318.5703 269.55,319.0073 269.4372,319.4576 269.3691,319.9167"/>
    <polygon points="284.7724,307.8153 285.5781,310.067 286.6005,312.2288 287.83,314.28 289.2546,316.2009 290.8606,317.9728 292.6326,319.5788 294.5534,321.0034 296.6046,322.2329 298.7665,323.2554 301.0181,324.061 303.3379,324.6421 305.7035,324.993 308.0921,325.1103 310.4806,324.993 312.8462,324.6421 315.166,324.061 317.4177,323.2554 319.5795,322.2329 321.6307,321.0034 323.5516,319.5788 325.3235,317.9728 326.9295,316.2009 328.3541,314.28 329.5836,312.2288 330.6061,310.067 331.4117,307.8153 331.9928,305.4955 332.3437,303.1299 332.461,300.7414 332.3437,298.3528 331.9928,295.9872 331.4117,293.6674 330.6061,291.4158 329.5836,289.2539 328.3541,287.2027 326.9295,285.2819 325.3235,283.5099 323.5516,281.9039 321.6307,280.4793 319.5795,279.2498 317.4177,278.2274 315.166,277.4217 312.8462,276.8406 310.4806,276.4897 308.0921,276.3724 305.7035,276.4897 303.3379,276.8406 301.0181,277.4217 298.7665,278.2274 296.6046,279.2498 294.5534,280.4793 292.6326,281.9039 290.8606,283.5099 289.2546,285.2819 287.83,287.2027 286.6005,289.2539 285.5781,291.4158 284.7724,293.6674 284.1913,295.9872 283.8404,298.3528 283.7231,300.7414 283.8404,303.1299 284.1913,305.4955"/>
    <polygon points="289.7423,264.7367 290.1151,265.7786 290.5882,266.779 291.1571,267.7281 291.8163,268.617 292.5595,269.4369 293.3794,270.1801 294.2682,270.8393 295.2174,271.4082 296.2178,271.8813 297.2597,272.2541 298.3331,272.523 299.4277,272.6854 300.533,272.7397 301.6383,272.6854 302.7329,272.523 303.8063,272.2541 304.8483,271.8813 305.8486,271.4082 306.7978,270.8393 307.6866,270.1801 308.5066,269.4369 309.2497,268.617 309.9089,267.7281 310.4778,266.779 310.951,265.7786 311.3238,264.7367 311.5926,263.6633 311.755,262.5686 311.8093,261.4634 311.755,260.3581 311.5926,259.2635 311.3238,258.19 310.951,257.1481 310.4778,256.1477 309.9089,255.1986 309.2497,254.3097 308.5066,253.4898 307.6866,252.7467 306.7978,252.0875 305.8486,251.5185 304.8483,251.0454 303.8063,250.6726 302.7329,250.4037 301.6383,250.2414 300.533,250.1871 299.4277,250.2414 298.3331,250.4037 297.2597,250.6726 296.2178,251.0454 295.2174,251.5185 294.2682,252.0875 293.3794,252.7467 292.5595,253.4898 291.8163,254.3097 291.1571,255.1986 290.5882,256.1477 290.1151,257.1481 289.7423,258.19 289.4734,259.2635 289.311,260.3581 289.2567,261.4634 289.311,262.5686 289.4734,263.6633"/>
    <polygon points="323.6021,270.2394 323.8006,269.8198 323.9569,269.3827 324.0697,268.9325 324.1378,268.4733 324.1606,268.0097 324.1378,267.5461 324.0697,267.0869 323.9569,266.6367 323.8006,266.1996 323.6021,265.78 323.3635,265.3819 323.087,265.009 322.7752,264.6651 322.4313,264.3534 322.0585,264.0769 321.6603,263.8382 321.2407,263.6398 320.8037,263.4834 320.3534,263.3706 319.8943,263.3025 319.4306,263.2797 318.967,263.3025 318.5079,263.3706 318.0576,263.4834 317.6206,263.6398 317.201,263.8382 316.8028,264.0769 316.43,264.3534 316.0861,264.6651 315.7743,265.009 315.4978,265.3819 315.2592,265.78 315.0607,266.1996 314.9043,266.6367 314.7916,267.0869 314.7235,267.5461 314.7007,268.0097 314.7235,268.4733 314.7916,268.9325 314.9043,269.3827 315.0607,269.8198 315.2592,270.2394 315.4978,270.6375 315.7743,271.0104 316.0861,271.3543 316.43,271.666 316.8028,271.9425 317.201,272.1812 317.6206,272.3796 318.0576,272.536 318.5079,272.6488 318.967,272.7169 319.4306,272.7397 319.8943,272.7169 320.3534,272.6488 320.8037,272.536 321.2407,272.3796 321.6603,272.1812 322.0585,271.9425 322.4313,271.666 322.7752,271.3543 323.087,271.0104 323.3635,270.6375"/>
    <polygon points="378.3533,278.7275 378.7514,278.4889 379.1242,278.2123 379.4682,277.9006 379.7799,277.5567 380.0564,277.1839 380.295,276.7857 380.4935,276.3661 380.6499,275.9291 380.7626,275.4788 380.8308,275.0196 380.8535,274.556 380.8308,274.0924 380.7626,273.6333 380.6499,273.183 380.4935,272.7459 380.295,272.3263 380.0564,271.9282 379.7799,271.5554 379.4682,271.2114 379.1242,270.8997 378.7514,270.6232 378.3533,270.3846 377.9336,270.1861 377.4966,270.0297 377.0463,269.9169 376.5872,269.8488 376.1236,269.8261 375.6599,269.8488 375.2008,269.9169 374.7505,270.0297 374.3135,270.1861 373.8939,270.3846 373.4957,270.6232 373.1229,270.8997 372.779,271.2114 372.4672,271.5554 372.1907,271.9282 371.9521,272.3263 371.7536,272.7459 371.5973,273.183 371.4845,273.6333 371.4164,274.0924 371.3936,274.556 371.4164,275.0196 371.4845,275.4788 371.5973,275.9291 371.7536,276.3661 371.9521,276.7857 372.1907,277.1839 372.4672,277.5567 372.779,277.9006 373.1229,278.2123 373.4957,278.4889 373.8939,278.7275 374.3135,278.926 374.7505,279.0823 375.2008,279.1951 375.6599,279.2632 376.1236,279.286 376.5872,279.2632 377.0463,279.1951 377.4966,279.0823 377.9336,278.926"/>
    <polygon points="378.7514,283.7159 378.3533,283.4772 377.9336,283.2788 377.4966,283.1224 377.0463,283.0096 376.5872,282.9415 376.1236,282.9187 375.6599,282.9415 375.2008,283.0096 374.7505,283.1224 374.3135,283.2788 373.8939,283.4772 373.4957,283.7159 373.1229,283.9924 372.779,284.3041 372.4672,284.648 372.1907,285.0209 371.9521,285.419 371.7536,285.8386 371.5973,286.2757 371.4845,286.7259 371.4164,287.1851 371.3936,287.6487 371.4164,288.1123 371.4845,288.5715 371.5973,289.0217 371.7536,289.4588 371.9521,289.8784 372.1907,290.2765 372.4672,290.6494 372.779,290.9933 373.1229,291.305 373.4957,291.5815 373.8939,291.8202 374.3135,292.0186 374.7505,292.175 375.2008,292.2878 375.6599,292.3559 376.1236,292.3787 376.5872,292.3559 377.0463,292.2878 377.4966,292.175 377.9336,292.0186 378.3533,291.8202 378.7514,291.5815 379.1242,291.305 379.4682,290.9933 379.7799,290.6494 380.0564,290.2765 380.295,289.8784 380.4935,289.4588 380.6499,289.0217 380.7626,288.5715 380.8308,288.1123 380.8535,287.6487 380.8308,287.1851 380.7626,286.7259 380.6499,286.2757 380.4935,285.8386 380.295,285.419 380.0564,285.0209 379.7799,284.648 379.4682,284.3041 379.1242,283.9924"/>
    <polygon points="390.09,290.2622 389.6918,290.0236 389.2722,289.8251 388.8352,289.6687 388.3849,289.5559 387.9258,289.4878 387.4621,289.4651 386.9985,289.4878 386.5394,289.5559 386.0891,289.6687 385.6521,289.8251 385.2324,290.0236 384.8343,290.2622 384.4615,290.5387 384.1175,290.8504 383.8058,291.1944 383.5293,291.5672 383.2907,291.9653 383.0922,292.3849 382.9358,292.822 382.8231,293.2723 382.7549,293.7314 382.7322,294.195 382.7549,294.6586 382.8231,295.1178 382.9358,295.5681 383.0922,296.0051 383.2907,296.4247 383.5293,296.8229 383.8058,297.1957 384.1175,297.5396 384.4615,297.8513 384.8343,298.1279 385.2324,298.3665 385.6521,298.565 386.0891,298.7213 386.5394,298.8341 386.9985,298.9022 387.4621,298.925 387.9258,298.9022 388.3849,298.8341 388.8352,298.7213 389.2722,298.565 389.6918,298.3665 390.09,298.1279 390.4628,297.8513 390.8067,297.5396 391.1185,297.1957 391.395,296.8229 391.6336,296.4247 391.8321,296.0051 391.9884,295.5681 392.1012,295.1178 392.1693,294.6586 392.1921,294.195 392.1693,293.7314 392.1012,293.2723 391.9884,292.822 391.8321,292.3849 391.6336,291.9653 391.395,291.5672 391.1185,291.1944 390.8067,290.8504 390.4628,290.5387"/>
    <polygon points="379.7799,297.7407 379.4682,297.3968 379.1242,297.085 378.7514,296.8085 378.3533,296.5699 377.9336,296.3714 377.4966,296.2151 377.0463,296.1023 376.5872,296.0342 376.1236,296.0114 375.6599,296.0342 375.2008,296.1023 374.7505,296.2151 374.3135,296.3714 373.8939,296.5699 373.4957,296.8085 373.1229,297.085 372.779,297.3968 372.4672,297.7407 372.1907,298.1135 371.9521,298.5117 371.7536,298.9313 371.5973,299.3683 371.4845,299.8186 371.4164,300.2777 371.3936,300.7414 371.4164,301.205 371.4845,301.6641 371.5973,302.1144 371.7536,302.5514 371.9521,302.9711 372.1907,303.3692 372.4672,303.742 372.779,304.086 373.1229,304.3977 373.4957,304.6742 373.8939,304.9128 374.3135,305.1113 374.7505,305.2677 375.2008,305.3805 375.6599,305.4486 376.1236,305.4713 376.5872,305.4486 377.0463,305.3805 377.4966,305.2677 377.9336,305.1113 378.3533,304.9128 378.7514,304.6742 379.1242,304.3977 379.4682,304.086 379.7799,303.742 380.0564,303.3692 380.295,302.9711 380.4935,302.5514 380.6499,302.1144 380.7626,301.6641 380.8308,301.205 380.8535,300.7414 380.8308,300.2777 380.7626,299.8186 380.6499,299.3683 380.4935,298.9313 380.295,298.5117 380.0564,298.1135"/>
    <polygon points="368.7178,304.6599 368.4413,304.287 368.1296,303.9431 367.7856,303.6314 367.4128,303.3549 367.0147,303.1162 366.5951,302.9178 366.158,302.7614 365.7077,302.6486 365.2486,302.5805 364.785,302.5577 364.3214,302.5805 363.8622,302.6486 363.4119,302.7614 362.9749,302.9178 362.5553,303.1162 362.1571,303.3549 361.7843,303.6314 361.4404,303.9431 361.1287,304.287 360.8521,304.6599 360.6135,305.058 360.4151,305.4776 360.2587,305.9147 360.1459,306.3649 360.0778,306.8241 360.055,307.2877 360.0778,307.7513 360.1459,308.2105 360.2587,308.6607 360.4151,309.0978 360.6135,309.5174 360.8521,309.9155 361.1287,310.2884 361.4404,310.6323 361.7843,310.944 362.1571,311.2205 362.5553,311.4592 362.9749,311.6576 363.4119,311.814 363.8622,311.9268 364.3214,311.9949 364.785,312.0177 365.2486,311.9949 365.7077,311.9268 366.158,311.814 366.5951,311.6576 367.0147,311.4592 367.4128,311.2205 367.7856,310.944 368.1296,310.6323 368.4413,310.2884 368.7178,309.9155 368.9564,309.5174 369.1549,309.0978 369.3113,308.6607 369.4241,308.2105 369.4922,307.7513 369.515,307.2877 369.4922,306.8241 369.4241,306.3649 369.3113,305.9147 369.1549,305.4776 368.9564,305.058"/>
    <polygon points="369.1549,318.5703 368.9564,318.1507 368.7178,317.7525 368.4413,317.3797 368.1296,317.0358 367.7856,316.724 367.4128,316.4475 367.0147,316.2089 366.5951,316.0104 366.158,315.8541 365.7077,315.7413 365.2486,315.6732 364.785,315.6504 364.3214,315.6732 363.8622,315.7413 363.4119,315.8541 362.9749,316.0104 362.5553,316.2089 362.1571,316.4475 361.7843,316.724 361.4404,317.0358 361.1287,317.3797 360.8521,317.7525 360.6135,318.1507 360.4151,318.5703 360.2587,319.0073 360.1459,319.4576 360.0778,319.9167 360.055,320.3804 360.0778,320.844 360.1459,321.3031 360.2587,321.7534 360.4151,322.1904 360.6135,322.6101 360.8521,323.0082 361.1287,323.381 361.4404,323.725 361.7843,324.0367 362.1571,324.3132 362.5553,324.5518 362.9749,324.7503 363.4119,324.9067 363.8622,325.0195 364.3214,325.0876 364.785,325.1103 365.2486,325.0876 365.7077,325.0195 366.158,324.9067 366.5951,324.7503 367.0147,324.5518 367.4128,324.3132 367.7856,324.0367 368.1296,323.725 368.4413,323.381 368.7178,323.0082 368.9564,322.6101 369.1549,322.1904 369.3113,321.7534 369.4241,321.3031 369.4922,320.844 369.515,320.3804 369.4922,319.9167 369.4241,319.4576 369.3113,319.0073"/>
    <polygon points="382.8231,321.3031 382.7549,320.844 382.7322,320.3804 382.7549,319.9167 382.8231,319.4576 382.9358,319.0073 383.0922,318.5703 383.2907,318.1507 383.5293,317.7525 383.8058,317.3797 384.1175,317.0358 384.4615,316.724 384.8343,316.4475 385.2324,316.2089 385.6521,316.0104 386.0891,315.8541 386.5394,315.7413 386.9985,315.6732 387.4621,315.6504 387.9258,315.6732 388.3849,315.7413 388.8352,315.8541 389.2722,316.0104 389.6918,316.2089 390.09,316.4475 390.4628,316.724 390.8067,317.0358 391.1185,317.3797 391.395,317.7525 391.6336,318.1507 391.8321,318.5703 391.9884,319.0073 392.1012,319.4576 392.1693,319.9167 392.1921,320.3804 392.1693,320.844 392.1012,321.3031 391.9884,321.7534 391.8321,322.1904 391.6336,322.6101 391.395,323.0082 391.1185,323.381 390.8067,323.725 390.4628,324.0367 390.09,324.3132 389.6918,324.5518 389.2722,324.7503 388.8352,324.9067 388.3849,325.0195 387.9258,325.0876 387.4621,325.1103 386.9985,325.0876 386.5394,325.0195 386.0891,324.9067 385.6521,324.7503 385.2324,324.5518 384.8343,324.3132 384.4615,324.0367 384.1175,323.725 383.8058,323.381 383.5293,323.0082 383.2907,322.6101 383.0922,322.1904 382.9358,321.7534"/>
    <polygon points="372.779,323.5821 373.1229,323.2704 373.4957,322.9939 373.8939,322.7552 374.3135,322.5568 374.7505,322.4004 375.2008,322.2876 375.6599,322.2195 376.1236,322.1967 376.5872,322.2195 377.0463,322.2876 377.4966,322.4004 377.9336,322.5568 378.3533,322.7552 378.7514,322.9939 379.1242,323.2704 379.4682,323.5821 379.7799,323.926 380.0564,324.2989 380.295,324.697 380.4935,325.1166 380.6499,325.5537 380.7626,326.0039 380.8308,326.4631 380.8535,326.9267 380.8308,327.3903 380.7626,327.8495 380.6499,328.2997 380.4935,328.7368 380.295,329.1564 380.0564,329.5545 379.7799,329.9274 379.4682,330.2713 379.1242,330.583 378.7514,330.8595 378.3533,331.0982 377.9336,331.2966 377.4966,331.453 377.0463,331.5658 376.5872,331.6339 376.1236,331.6567 375.6599,331.6339 375.2008,331.5658 374.7505,331.453 374.3135,331.2966 373.8939,331.0982 373.4957,330.8595 373.1229,330.583 372.779,330.2713 372.4672,329.9274 372.1907,329.5545 371.9521,329.1564 371.7536,328.7368 371.5973,328.2997 371.4845,327.8495 371.4164,327.3903 371.3936,326.9267 371.4164,326.4631 371.4845,326.0039 371.5973,325.5537 371.7536,325.1166 371.9521,324.697 372.1907,324.2989 372.4672,323.926"/>
    <polygon points="357.8163,338.2093 357.6179,337.7897 357.3792,337.3915 357.1027,337.0187 356.791,336.6748 356.4471,336.363 356.0742,336.0865 355.6761,335.8479 355.2565,335.6494 354.8194,335.4931 354.3692,335.3803 353.91,335.3122 353.4464,335.2894 352.9828,335.3122 352.5236,335.3803 352.0734,335.4931 351.6363,335.6494 351.2167,335.8479 350.8186,336.0865 350.4457,336.363 350.1018,336.6748 349.7901,337.0187 349.5136,337.3915 349.2749,337.7897 349.0765,338.2093 348.9201,338.6463 348.8073,339.0966 348.7392,339.5557 348.7164,340.0194 348.7392,340.483 348.8073,340.9421 348.9201,341.3924 349.0765,341.8294 349.2749,342.2491 349.5136,342.6472 349.7901,343.02 350.1018,343.364 350.4457,343.6757 350.8186,343.9522 351.2167,344.1908 351.6363,344.3893 352.0734,344.5457 352.5236,344.6585 352.9828,344.7266 353.4464,344.7493 353.91,344.7266 354.3692,344.6585 354.8194,344.5457 355.2565,344.3893 355.6761,344.1908 356.0742,343.9522 356.4471,343.6757 356.791,343.364 357.1027,343.02 357.3792,342.6472 357.6179,342.2491 357.8163,341.8294 357.9727,341.3924 358.0855,340.9421 358.1536,340.483 358.1764,340.0194 358.1536,339.5557 358.0855,339.0966 357.9727,338.6463"/>
    <polygon points="345.7641,336.4737 346.0406,336.1009 346.2793,335.7027 346.4777,335.2831 346.6341,334.8461 346.7469,334.3958 346.815,333.9367 346.8378,333.473 346.815,333.0094 346.7469,332.5503 346.6341,332.1 346.4777,331.663 346.2793,331.2433 346.0406,330.8452 345.7641,330.4724 345.4524,330.1284 345.1085,329.8167 344.7356,329.5402 344.3375,329.3016 343.9179,329.1031 343.4809,328.9467 343.0306,328.8339 342.5714,328.7658 342.1078,328.7431 341.6442,328.7658 341.185,328.8339 340.7348,328.9467 340.2977,329.1031 339.8781,329.3016 339.48,329.5402 339.1071,329.8167 338.7632,330.1284 338.4515,330.4724 338.175,330.8452 337.9363,331.2433 337.7379,331.663 337.5815,332.1 337.4687,332.5503 337.4006,333.0094 337.3778,333.473 337.4006,333.9367 337.4687,334.3958 337.5815,334.8461 337.7379,335.2831 337.9363,335.7027 338.175,336.1009 338.4515,336.4737 338.7632,336.8176 339.1071,337.1294 339.48,337.4059 339.8781,337.6445 340.2977,337.843 340.7348,337.9993 341.185,338.1121 341.6442,338.1802 342.1078,338.203 342.5714,338.1802 343.0306,338.1121 343.4809,337.9993 343.9179,337.843 344.3375,337.6445 344.7356,337.4059 345.1085,337.1294 345.4524,336.8176"/>
    <polygon points="340.5717,323.7788 341.5721,324.252 342.614,324.6248 343.6874,324.8937 344.7821,325.056 345.8873,325.1103 346.9926,325.056 348.0872,324.8937 349.1607,324.6248 350.2026,324.252 351.203,323.7788 352.1521,323.2099 353.041,322.5507 353.8609,321.8076 354.604,320.9876 355.2632,320.0988 355.8322,319.1496 356.3053,318.1493 356.6781,317.1074 356.947,316.0339 357.1093,314.9393 357.1636,313.834 357.1093,312.7288 356.947,311.6341 356.6781,310.5607 356.3053,309.5188 355.8322,308.5184 355.2632,307.5693 354.604,306.6804 353.8609,305.8605 353.041,305.1173 352.1521,304.4581 351.203,303.8892 350.2026,303.4161 349.1607,303.0433 348.0872,302.7744 346.9926,302.612 345.8873,302.5577 344.7821,302.612 343.6874,302.7744 342.614,303.0433 341.5721,303.4161 340.5717,303.8892 339.6226,304.4581 338.7337,305.1173 337.9138,305.8605 337.1706,306.6804 336.5114,307.5693 335.9425,308.5184 335.4694,309.5188 335.0966,310.5607 334.8277,311.6341 334.6653,312.7288 334.611,313.834 334.6653,314.9393 334.8277,316.0339 335.0966,317.1074 335.4694,318.1493 335.9425,319.1496 336.5114,320.0988 337.1706,320.9876 337.9138,321.8076 338.7337,322.5507 339.6226,323.2099"/>
    <polygon points="309.2497,347.173 309.9089,346.2841 310.4778,345.335 310.951,344.3346 311.3238,343.2927 311.5926,342.2193 311.755,341.1246 311.8093,340.0194 311.755,338.9141 311.5926,337.8195 311.3238,336.746 310.951,335.7041 310.4778,334.7038 309.9089,333.7546 309.2497,332.8658 308.5066,332.0458 307.6866,331.3027 306.7978,330.6435 305.8486,330.0746 304.8483,329.6014 303.8063,329.2286 302.7329,328.9597 301.6383,328.7974 300.533,328.7431 299.4277,328.7974 298.3331,328.9597 297.2597,329.2286 296.2178,329.6014 295.2174,330.0746 294.2682,330.6435 293.3794,331.3027 292.5595,332.0458 291.8163,332.8658 291.1571,333.7546 290.5882,334.7038 290.1151,335.7041 289.7423,336.746 289.4734,337.8195 289.311,338.9141 289.2567,340.0194 289.311,341.1246 289.4734,342.2193 289.7423,343.2927 290.1151,344.3346 290.5882,345.335 291.1571,346.2841 291.8163,347.173 292.5595,347.9929 293.3794,348.7361 294.2682,349.3953 295.2174,349.9642 296.2178,350.4373 297.2597,350.8101 298.3331,351.079 299.4277,351.2414 300.533,351.2957 301.6383,351.2414 302.7329,351.079 303.8063,350.8101 304.8483,350.4373 305.8486,349.9642 306.7978,349.3953 307.6866,348.7361 308.5066,347.9929"/>
    <polygon points="292.3836,361.4684 292.582,361.8881 292.8207,362.2862 293.0972,362.659 293.4089,363.003 293.7528,363.3147 294.1256,363.5912 294.5238,363.8298 294.9434,364.0283 295.3804,364.1847 295.8307,364.2975 296.2899,364.3656 296.7535,364.3883 297.2171,364.3656 297.6763,364.2975 298.1265,364.1847 298.5636,364.0283 298.9832,363.8298 299.3813,363.5912 299.7541,363.3147 300.0981,363.003 300.4098,362.659 300.6863,362.2862 300.9249,361.8881 301.1234,361.4684 301.2798,361.0314 301.3926,360.5811 301.4607,360.122 301.4835,359.6584 301.4607,359.1947 301.3926,358.7356 301.2798,358.2853 301.1234,357.8483 300.9249,357.4287 300.6863,357.0305 300.4098,356.6577 300.0981,356.3138 299.7541,356.002 299.3813,355.7255 298.9832,355.4869 298.5636,355.2884 298.1265,355.1321 297.6763,355.0193 297.2171,354.9512 296.7535,354.9284 296.2899,354.9512 295.8307,355.0193 295.3804,355.1321 294.9434,355.2884 294.5238,355.4869 294.1256,355.7255 293.7528,356.002 293.4089,356.3138 293.0972,356.6577 292.8207,357.0305 292.582,357.4287 292.3836,357.8483 292.2272,358.2853 292.1144,358.7356 292.0463,359.1947 292.0235,359.6584 292.0463,360.122 292.1144,360.5811 292.2272,361.0314"/>
  </g>
</svg>
