<?xml version="1.0" encoding="utf-8" ?>
<svg xmlns="http://www.w3.org/2000/svg" xmlns:cc="http://creativecommons.org/ns" xmlns:dc="http://purl.org/dc/elements/1.1/" xmlns:ev="http://www.w3.org/2001/xml-events" xmlns:inkscape="http://www.inkscape.org/namespaces/inkscape" xmlns:rdf="http://www.w3.org/1999/02/22-rdf-syntax-ns" xmlns:sodipodi="http://sodipodi.sourceforge.net/DTD/sodipodi-0.dtd" xmlns:xlink="http://www.w3.org/1999/xlink" baseProfile="tiny" height="15.875cm" version="1.2" viewBox="0 0 432.0 600.0" width="11.43cm">
  <metadata>
    <rdf:RDF>
      <cc:Work>
        <dc:format>image/svg+xml</dc:format>
        <dc:source>vsk save -s 186 -c hex-grid/config/bubble-coasters-2.json /Users/tobin/src/fabian/plotting/fabian-plotting/hex-grid/sketch_hex_grid.py</dc:source>
        <dc:date>2023-11-04T10:32:59.875473</dc:date>
      </cc:Work>
    </rdf:RDF>
  </metadata>
  <defs/>
  <g fill="none" id="layer1" inkscape:groupmode="layer" inkscape:label="1" stroke="#000000" stroke-width="0.7559" style="display:inline">
    <polygon points="246.0829,427.7495 245.8443,427.3514 245.6458,426.9318 245.4894,426.4947 245.3767,426.0445 245.3086,425.5853 245.2858,425.1217 245.3086,424.6581 245.3767,424.1989 245.4894,423.7487 245.6458,423.3116 245.8443,422.892 246.0829,422.4939 246.3594,422.121 246.6712,421.7771 247.0151,421.4654 247.3879,421.1889 247.7861,420.9502 248.2057,420.7518 248.6427,420.5954 249.093,420.4826 249.5521,420.4145 250.0157,420.3917 250.4794,420.4145 250.9385,420.4826 251.3888,420.5954 251.8258,420.7518 252.2454,420.9502 252.6436,421.1889 253.0164,421.4654 253.3603,421.7771 253.6721,422.121 253.9486,422.4939 254.1872,422.892 254.3857,423.3116 254.542,423.7487 254.6548,424.1989 254.7229,424.6581 254.7457,425.1217 254.7229,425.5853 254.6548,426.0445 254.542,426.4947 254.3857,426.9318 254.1872,427.3514 253.9486,427.7495 253.6721,428.1224 253.3603,428.4663 253.0164,428.778 252.6436,429.0545 252.2454,429.2932 251.8258,429.4916 251.3888,429.648 250.9385,429.7608 250.4794,429.8289 250.0157,429.8517 249.5521,429.8289 249.093,429.7608 248.6427,429.648 248.2057,429.4916 247.7861,429.2932 247.3879,429.0545 247.0151,428.778 246.6712,428.4663 246.3594,428.1224"/>
    <polygon points="251.3888,407.5027 251.8258,407.6591 252.2454,407.8576 252.6436,408.0962 253.0164,408.3727 253.3603,408.6844 253.6721,409.0284 253.9486,409.4012 254.1872,409.7993 254.3857,410.219 254.542,410.656 254.6548,411.1063 254.7229,411.5654 254.7457,412.029 254.7229,412.4927 254.6548,412.9518 254.542,413.4021 254.3857,413.8391 254.1872,414.2587 253.9486,414.6569 253.6721,415.0297 253.3603,415.3736 253.0164,415.6854 252.6436,415.9619 252.2454,416.2005 251.8258,416.399 251.3888,416.5553 250.9385,416.6681 250.4794,416.7362 250.0157,416.759 249.5521,416.7362 249.093,416.6681 248.6427,416.5553 248.2057,416.399 247.7861,416.2005 247.3879,415.9619 247.0151,415.6854 246.6712,415.3736 246.3594,415.0297 246.0829,414.6569 245.8443,414.2587 245.6458,413.8391 245.4894,413.4021 245.3767,412.9518 245.3086,412.4927 245.2858,412.029 245.3086,411.5654 245.3767,411.1063 245.4894,410.656 245.6458,410.219 245.8443,409.7993 246.0829,409.4012 246.3594,409.0284 246.6712,408.6844 247.0151,408.3727 247.3879,408.0962 247.7861,407.8576 248.2057,407.6591 248.6427,407.5027 249.093,407.3899 249.5521,407.3218 250.0157,407.2991 250.4794,407.3218 250.9385,407.3899"/>
    <polygon points="288.5578,406.8557 288.4014,407.2928 288.203,407.7124 287.9643,408.1105 287.6878,408.4834 287.3761,408.8273 287.0322,409.139 286.6593,409.4155 286.2612,409.6542 285.8416,409.8526 285.4045,410.009 284.9543,410.1218 284.4951,410.1899 284.0315,410.2127 283.5679,410.1899 283.1087,410.1218 282.6585,410.009 282.2214,409.8526 281.8018,409.6542 281.4037,409.4155 281.0308,409.139 280.6869,408.8273 280.3752,408.4834 280.0987,408.1105 279.86,407.7124 279.6616,407.2928 279.5052,406.8557 279.3924,406.4055 279.3243,405.9463 279.3015,405.4827 279.3243,405.0191 279.3924,404.5599 279.5052,404.1097 279.6616,403.6726 279.86,403.253 280.0987,402.8549 280.3752,402.482 280.6869,402.1381 281.0308,401.8264 281.4037,401.5499 281.8018,401.3112 282.2214,401.1128 282.6585,400.9564 283.1087,400.8436 283.5679,400.7755 284.0315,400.7527 284.4951,400.7755 284.9543,400.8436 285.4045,400.9564 285.8416,401.1128 286.2612,401.3112 286.6593,401.5499 287.0322,401.8264 287.3761,402.1381 287.6878,402.482 287.9643,402.8549 288.203,403.253 288.4014,403.6726 288.5578,404.1097 288.6706,404.5599 288.7387,405.0191 288.7615,405.4827 288.7387,405.9463 288.6706,406.4055"/>
    <polygon points="276.6257,396.3085 276.8644,396.7067 277.0628,397.1263 277.2192,397.5633 277.332,398.0136 277.4001,398.4728 277.4229,398.9364 277.4001,399.4 277.332,399.8591 277.2192,400.3094 277.0628,400.7465 276.8644,401.1661 276.6257,401.5642 276.3492,401.937 276.0375,402.281 275.6936,402.5927 275.3207,402.8692 274.9226,403.1078 274.503,403.3063 274.066,403.4627 273.6157,403.5755 273.1565,403.6436 272.6929,403.6663 272.2293,403.6436 271.7701,403.5755 271.3199,403.4627 270.8828,403.3063 270.4632,403.1078 270.0651,402.8692 269.6923,402.5927 269.3483,402.281 269.0366,401.937 268.7601,401.5642 268.5214,401.1661 268.323,400.7465 268.1666,400.3094 268.0538,399.8591 267.9857,399.4 267.9629,398.9364 267.9857,398.4728 268.0538,398.0136 268.1666,397.5633 268.323,397.1263 268.5214,396.7067 268.7601,396.3085 269.0366,395.9357 269.3483,395.5918 269.6923,395.2801 270.0651,395.0035 270.4632,394.7649 270.8828,394.5664 271.3199,394.4101 271.7701,394.2973 272.2293,394.2292 272.6929,394.2064 273.1565,394.2292 273.6157,394.2973 274.066,394.4101 274.503,394.5664 274.9226,394.7649 275.3207,395.0035 275.6936,395.2801 276.0375,395.5918 276.3492,395.9357"/>
    <polygon points="261.7688,384.4165 262.512,385.2364 263.1712,386.1253 263.7401,387.0744 264.2132,388.0748 264.586,389.1167 264.8549,390.1901 265.0173,391.2848 265.0716,392.39 265.0173,393.4953 264.8549,394.5899 264.586,395.6634 264.2132,396.7053 263.7401,397.7057 263.1712,398.6548 262.512,399.5436 261.7688,400.3636 260.9489,401.1067 260.0601,401.7659 259.1109,402.3349 258.1105,402.808 257.0686,403.1808 255.9952,403.4497 254.9005,403.612 253.7953,403.6663 252.69,403.612 251.5954,403.4497 250.5219,403.1808 249.48,402.808 248.4797,402.3349 247.5305,401.7659 246.6417,401.1067 245.8217,400.3636 245.0786,399.5436 244.4194,398.6548 243.8505,397.7057 243.3773,396.7053 243.0045,395.6634 242.7356,394.5899 242.5733,393.4953 242.519,392.39 242.5733,391.2848 242.7356,390.1901 243.0045,389.1167 243.3773,388.0748 243.8505,387.0744 244.4194,386.1253 245.0786,385.2364 245.8217,384.4165 246.6417,383.6733 247.5305,383.0141 248.4797,382.4452 249.48,381.9721 250.5219,381.5993 251.5954,381.3304 252.69,381.168 253.7953,381.1137 254.9005,381.168 255.9952,381.3304 257.0686,381.5993 258.1105,381.9721 259.1109,382.4452 260.0601,383.0141 260.9489,383.6733"/>
    <polygon points="270.0651,376.6839 269.6923,376.4074 269.3483,376.0956 269.0366,375.7517 268.7601,375.3789 268.5214,374.9807 268.323,374.5611 268.1666,374.1241 268.0538,373.6738 267.9857,373.2147 267.9629,372.751 267.9857,372.2874 268.0538,371.8283 268.1666,371.378 268.323,370.941 268.5214,370.5213 268.7601,370.1232 269.0366,369.7504 269.3483,369.4064 269.6923,369.0947 270.0651,368.8182 270.4632,368.5796 270.8828,368.3811 271.3199,368.2247 271.7701,368.1119 272.2293,368.0438 272.6929,368.0211 273.1565,368.0438 273.6157,368.1119 274.066,368.2247 274.503,368.3811 274.9226,368.5796 275.3207,368.8182 275.6936,369.0947 276.0375,369.4064 276.3492,369.7504 276.6257,370.1232 276.8644,370.5213 277.0628,370.941 277.2192,371.378 277.332,371.8283 277.4001,372.2874 277.4229,372.751 277.4001,373.2147 277.332,373.6738 277.2192,374.1241 277.0628,374.5611 276.8644,374.9807 276.6257,375.3789 276.3492,375.7517 276.0375,376.0956 275.6936,376.4074 275.3207,376.6839 274.9226,376.9225 274.503,377.121 274.066,377.2773 273.6157,377.3901 273.1565,377.4582 272.6929,377.481 272.2293,377.4582 271.7701,377.3901 271.3199,377.2773 270.8828,377.121 270.4632,376.9225"/>
    <polygon points="271.7701,364.2975 271.3199,364.1847 270.8828,364.0283 270.4632,363.8298 270.0651,363.5912 269.6923,363.3147 269.3483,363.003 269.0366,362.659 268.7601,362.2862 268.5214,361.8881 268.323,361.4684 268.1666,361.0314 268.0538,360.5811 267.9857,360.122 267.9629,359.6584 267.9857,359.1947 268.0538,358.7356 268.1666,358.2853 268.323,357.8483 268.5214,357.4287 268.7601,357.0305 269.0366,356.6577 269.3483,356.3138 269.6923,356.002 270.0651,355.7255 270.4632,355.4869 270.8828,355.2884 271.3199,355.1321 271.7701,355.0193 272.2293,354.9512 272.6929,354.9284 273.1565,354.9512 273.6157,355.0193 274.066,355.1321 274.503,355.2884 274.9226,355.4869 275.3207,355.7255 275.6936,356.002 276.0375,356.3138 276.3492,356.6577 276.6257,357.0305 276.8644,357.4287 277.0628,357.8483 277.2192,358.2853 277.332,358.7356 277.4001,359.1947 277.4229,359.6584 277.4001,360.122 277.332,360.5811 277.2192,361.0314 277.0628,361.4684 276.8644,361.8881 276.6257,362.2862 276.3492,362.659 276.0375,363.003 275.6936,363.3147 275.3207,363.5912 274.9226,363.8298 274.503,364.0283 274.066,364.1847 273.6157,364.2975 273.1565,364.3656 272.6929,364.3883 272.2293,364.3656"/>
    <polygon points="332.0137,304.6742 332.3865,304.3977 332.7304,304.086 333.0421,303.742 333.3187,303.3692 333.5573,302.9711 333.7558,302.5514 333.9121,302.1144 334.0249,301.6641 334.093,301.205 334.1158,300.7414 334.093,300.2777 334.0249,299.8186 333.9121,299.3683 333.7558,298.9313 333.5573,298.5117 333.3187,298.1135 333.0421,297.7407 332.7304,297.3968 332.3865,297.085 332.0137,296.8085 331.6155,296.5699 331.1959,296.3714 330.7589,296.2151 330.3086,296.1023 329.8494,296.0342 329.3858,296.0114 328.9222,296.0342 328.4631,296.1023 328.0128,296.2151 327.5757,296.3714 327.1561,296.5699 326.758,296.8085 326.3852,297.085 326.0412,297.3968 325.7295,297.7407 325.453,298.1135 325.2144,298.5117 325.0159,298.9313 324.8595,299.3683 324.7467,299.8186 324.6786,300.2777 324.6559,300.7414 324.6786,301.205 324.7467,301.6641 324.8595,302.1144 325.0159,302.5514 325.2144,302.9711 325.453,303.3692 325.7295,303.742 326.0412,304.086 326.3852,304.3977 326.758,304.6742 327.1561,304.9128 327.5757,305.1113 328.0128,305.2677 328.4631,305.3805 328.9222,305.4486 329.3858,305.4713 329.8494,305.4486 330.3086,305.3805 330.7589,305.2677 331.1959,305.1113 331.6155,304.9128"/>
    <polygon points="341.188,298.9022 341.6472,298.8341 342.0974,298.7213 342.5345,298.565 342.9541,298.3665 343.3522,298.1279 343.7251,297.8513 344.069,297.5396 344.3807,297.1957 344.6572,296.8229 344.8959,296.4247 345.0943,296.0051 345.2507,295.5681 345.3635,295.1178 345.4316,294.6586 345.4544,294.195 345.4316,293.7314 345.3635,293.2723 345.2507,292.822 345.0943,292.3849 344.8959,291.9653 344.6572,291.5672 344.3807,291.1944 344.069,290.8504 343.7251,290.5387 343.3522,290.2622 342.9541,290.0236 342.5345,289.8251 342.0974,289.6687 341.6472,289.5559 341.188,289.4878 340.7244,289.4651 340.2608,289.4878 339.8016,289.5559 339.3514,289.6687 338.9143,289.8251 338.4947,290.0236 338.0966,290.2622 337.7237,290.5387 337.3798,290.8504 337.0681,291.1944 336.7916,291.5672 336.5529,291.9653 336.3545,292.3849 336.1981,292.822 336.0853,293.2723 336.0172,293.7314 335.9944,294.195 336.0172,294.6586 336.0853,295.1178 336.1981,295.5681 336.3545,296.0051 336.5529,296.4247 336.7916,296.8229 337.0681,297.1957 337.3798,297.5396 337.7237,297.8513 338.0966,298.1279 338.4947,298.3665 338.9143,298.565 339.3514,298.7213 339.8016,298.8341 340.2608,298.9022 340.7244,298.925"/>
    <polygon points="353.8731,283.2788 353.436,283.1224 352.9858,283.0096 352.5266,282.9415 352.063,282.9187 351.5994,282.9415 351.1402,283.0096 350.69,283.1224 350.2529,283.2788 349.8333,283.4772 349.4352,283.7159 349.0623,283.9924 348.7184,284.3041 348.4067,284.648 348.1302,285.0209 347.8915,285.419 347.6931,285.8386 347.5367,286.2757 347.4239,286.7259 347.3558,287.1851 347.333,287.6487 347.3558,288.1123 347.4239,288.5715 347.5367,289.0217 347.6931,289.4588 347.8915,289.8784 348.1302,290.2765 348.4067,290.6494 348.7184,290.9933 349.0623,291.305 349.4352,291.5815 349.8333,291.8202 350.2529,292.0186 350.69,292.175 351.1402,292.2878 351.5994,292.3559 352.063,292.3787 352.5266,292.3559 352.9858,292.2878 353.436,292.175 353.8731,292.0186 354.2927,291.8202 354.6908,291.5815 355.0637,291.305 355.4076,290.9933 355.7193,290.6494 355.9958,290.2765 356.2345,289.8784 356.4329,289.4588 356.5893,289.0217 356.7021,288.5715 356.7702,288.1123 356.793,287.6487 356.7702,287.1851 356.7021,286.7259 356.5893,286.2757 356.4329,285.8386 356.2345,285.419 355.9958,285.0209 355.7193,284.648 355.4076,284.3041 355.0637,283.9924 354.6908,283.7159 354.2927,283.4772"/>
    <polygon points="362.938,276.3952 362.4788,276.4633 362.0285,276.5761 361.5915,276.7324 361.1719,276.9309 360.7737,277.1695 360.4009,277.446 360.057,277.7578 359.7453,278.1017 359.4687,278.4745 359.2301,278.8727 359.0316,279.2923 358.8753,279.7293 358.7625,280.1796 358.6944,280.6387 358.6716,281.1024 358.6944,281.566 358.7625,282.0251 358.8753,282.4754 359.0316,282.9124 359.2301,283.3321 359.4687,283.7302 359.7453,284.103 360.057,284.447 360.4009,284.7587 360.7737,285.0352 361.1719,285.2738 361.5915,285.4723 362.0285,285.6287 362.4788,285.7414 362.938,285.8096 363.4016,285.8323 363.8652,285.8096 364.3243,285.7414 364.7746,285.6287 365.2117,285.4723 365.6313,285.2738 366.0294,285.0352 366.4022,284.7587 366.7462,284.447 367.0579,284.103 367.3344,283.7302 367.573,283.3321 367.7715,282.9124 367.9279,282.4754 368.0407,282.0251 368.1088,281.566 368.1315,281.1024 368.1088,280.6387 368.0407,280.1796 367.9279,279.7293 367.7715,279.2923 367.573,278.8727 367.3344,278.4745 367.0579,278.1017 366.7462,277.7578 366.4022,277.446 366.0294,277.1695 365.6313,276.9309 365.2117,276.7324 364.7746,276.5761 364.3243,276.4633 363.8652,276.3952 363.4016,276.3724"/>
    <polygon points="318.0472,289.4651 318.5109,289.4878 318.97,289.5559 319.4203,289.6687 319.8573,289.8251 320.2769,290.0236 320.6751,290.2622 321.0479,290.5387 321.3918,290.8504 321.7036,291.1944 321.9801,291.5672 322.2187,291.9653 322.4172,292.3849 322.5735,292.822 322.6863,293.2723 322.7544,293.7314 322.7772,294.195 322.7544,294.6586 322.6863,295.1178 322.5735,295.5681 322.4172,296.0051 322.2187,296.4247 321.9801,296.8229 321.7036,297.1957 321.3918,297.5396 321.0479,297.8513 320.6751,298.1279 320.2769,298.3665 319.8573,298.565 319.4203,298.7213 318.97,298.8341 318.5109,298.9022 318.0472,298.925 317.5836,298.9022 317.1245,298.8341 316.6742,298.7213 316.2372,298.565 315.8176,298.3665 315.4194,298.1279 315.0466,297.8513 314.7026,297.5396 314.3909,297.1957 314.1144,296.8229 313.8758,296.4247 313.6773,296.0051 313.5209,295.5681 313.4082,295.1178 313.34,294.6586 313.3173,294.195 313.34,293.7314 313.4082,293.2723 313.5209,292.822 313.6773,292.3849 313.8758,291.9653 314.1144,291.5672 314.3909,291.1944 314.7026,290.8504 315.0466,290.5387 315.4194,290.2622 315.8176,290.0236 316.2372,289.8251 316.6742,289.6687 317.1245,289.5559 317.5836,289.4878"/>
    <polygon points="310.2092,289.8486 309.9404,290.922 309.5676,291.964 309.0944,292.9643 308.5255,293.9135 307.8663,294.8023 307.1232,295.6222 306.3032,296.3654 305.4144,297.0246 304.4652,297.5935 303.4649,298.0666 302.4229,298.4394 301.3495,298.7083 300.2549,298.8707 299.1496,298.925 298.0443,298.8707 296.9497,298.7083 295.8763,298.4394 294.8344,298.0666 293.834,297.5935 292.8848,297.0246 291.996,296.3654 291.1761,295.6222 290.4329,294.8023 289.7737,293.9135 289.2048,292.9643 288.7317,291.964 288.3589,290.922 288.09,289.8486 287.9276,288.754 287.8733,287.6487 287.9276,286.5434 288.09,285.4488 288.3589,284.3754 288.7317,283.3334 289.2048,282.3331 289.7737,281.3839 290.4329,280.4951 291.1761,279.6751 291.996,278.932 292.8848,278.2728 293.834,277.7039 294.8344,277.2307 295.8763,276.8579 296.9497,276.5891 298.0443,276.4267 299.1496,276.3724 300.2549,276.4267 301.3495,276.5891 302.4229,276.8579 303.4649,277.2307 304.4652,277.7039 305.4144,278.2728 306.3032,278.932 307.1232,279.6751 307.8663,280.4951 308.5255,281.3839 309.0944,282.3331 309.5676,283.3334 309.9404,284.3754 310.2092,285.4488 310.3716,286.5434 310.4259,287.6487 310.3716,288.754"/>
    <polygon points="294.4473,272.6488 293.997,272.536 293.56,272.3796 293.1404,272.1812 292.7422,271.9425 292.3694,271.666 292.0255,271.3543 291.7138,271.0104 291.4373,270.6375 291.1986,270.2394 291.0002,269.8198 290.8438,269.3827 290.731,268.9325 290.6629,268.4733 290.6401,268.0097 290.6629,267.5461 290.731,267.0869 290.8438,266.6367 291.0002,266.1996 291.1986,265.78 291.4373,265.3819 291.7138,265.009 292.0255,264.6651 292.3694,264.3534 292.7422,264.0769 293.1404,263.8382 293.56,263.6398 293.997,263.4834 294.4473,263.3706 294.9065,263.3025 295.3701,263.2797 295.8337,263.3025 296.2929,263.3706 296.7431,263.4834 297.1802,263.6398 297.5998,263.8382 297.9979,264.0769 298.3707,264.3534 298.7147,264.6651 299.0264,265.009 299.3029,265.3819 299.5415,265.78 299.74,266.1996 299.8964,266.6367 300.0092,267.0869 300.0773,267.5461 300.1001,268.0097 300.0773,268.4733 300.0092,268.9325 299.8964,269.3827 299.74,269.8198 299.5415,270.2394 299.3029,270.6375 299.0264,271.0104 298.7147,271.3543 298.3707,271.666 297.9979,271.9425 297.5998,272.1812 297.1802,272.3796 296.7431,272.536 296.2929,272.6488 295.8337,272.7169 295.3701,272.7397 294.9065,272.7169"/>
    <polygon points="288.7387,274.0924 288.7615,274.556 288.7387,275.0196 288.6706,275.4788 288.5578,275.9291 288.4014,276.3661 288.203,276.7857 287.9643,277.1839 287.6878,277.5567 287.3761,277.9006 287.0322,278.2123 286.6593,278.4889 286.2612,278.7275 285.8416,278.926 285.4045,279.0823 284.9543,279.1951 284.4951,279.2632 284.0315,279.286 283.5679,279.2632 283.1087,279.1951 282.6585,279.0823 282.2214,278.926 281.8018,278.7275 281.4037,278.4889 281.0308,278.2123 280.6869,277.9006 280.3752,277.5567 280.0987,277.1839 279.86,276.7857 279.6616,276.3661 279.5052,275.9291 279.3924,275.4788 279.3243,275.0196 279.3015,274.556 279.3243,274.0924 279.3924,273.6333 279.5052,273.183 279.6616,272.7459 279.86,272.3263 280.0987,271.9282 280.3752,271.5554 280.6869,271.2114 281.0308,270.8997 281.4037,270.6232 281.8018,270.3846 282.2214,270.1861 282.6585,270.0297 283.1087,269.9169 283.5679,269.8488 284.0315,269.8261 284.4951,269.8488 284.9543,269.9169 285.4045,270.0297 285.8416,270.1861 286.2612,270.3846 286.6593,270.6232 287.0322,270.8997 287.3761,271.2114 287.6878,271.5554 287.9643,271.9282 288.203,272.3263 288.4014,272.7459 288.5578,273.183 288.6706,273.6333"/>
    <polygon points="267.9629,268.0097 267.9857,267.5461 268.0538,267.0869 268.1666,266.6367 268.323,266.1996 268.5214,265.78 268.7601,265.3819 269.0366,265.009 269.3483,264.6651 269.6923,264.3534 270.0651,264.0769 270.4632,263.8382 270.8828,263.6398 271.3199,263.4834 271.7701,263.3706 272.2293,263.3025 272.6929,263.2797 273.1565,263.3025 273.6157,263.3706 274.066,263.4834 274.503,263.6398 274.9226,263.8382 275.3207,264.0769 275.6936,264.3534 276.0375,264.6651 276.3492,265.009 276.6257,265.3819 276.8644,265.78 277.0628,266.1996 277.2192,266.6367 277.332,267.0869 277.4001,267.5461 277.4229,268.0097 277.4001,268.4733 277.332,268.9325 277.2192,269.3827 277.0628,269.8198 276.8644,270.2394 276.6257,270.6375 276.3492,271.0104 276.0375,271.3543 275.6936,271.666 275.3207,271.9425 274.9226,272.1812 274.503,272.3796 274.066,272.536 273.6157,272.6488 273.1565,272.7169 272.6929,272.7397 272.2293,272.7169 271.7701,272.6488 271.3199,272.536 270.8828,272.3796 270.4632,272.1812 270.0651,271.9425 269.6923,271.666 269.3483,271.3543 269.0366,271.0104 268.7601,270.6375 268.5214,270.2394 268.323,269.8198 268.1666,269.3827 268.0538,268.9325 267.9857,268.4733"/>
    <polygon points="220.7542,298.4568 223.0739,297.8757 225.3256,297.07 227.4875,296.0475 229.5387,294.8181 231.4595,293.3935 233.2315,291.7875 234.8375,290.0155 236.2621,288.0947 237.4915,286.0435 238.514,283.8816 239.3197,281.63 239.9007,279.3102 240.2516,276.9446 240.369,274.556 240.2516,272.1675 239.9007,269.8019 239.3197,267.4821 238.514,265.2304 237.4915,263.0686 236.2621,261.0174 234.8375,259.0965 233.2315,257.3246 231.4595,255.7186 229.5387,254.294 227.4875,253.0645 225.3256,252.042 223.0739,251.2364 220.7542,250.6553 218.3886,250.3044 216.0,250.1871 213.6114,250.3044 211.2458,250.6553 208.9261,251.2364 206.6744,252.042 204.5125,253.0645 202.4613,254.294 200.5405,255.7186 198.7685,257.3246 197.1625,259.0965 195.7379,261.0174 194.5085,263.0686 193.486,265.2304 192.6803,267.4821 192.0993,269.8019 191.7484,272.1675 191.631,274.556 191.7484,276.9446 192.0993,279.3102 192.6803,281.63 193.486,283.8816 194.5085,286.0435 195.7379,288.0947 197.1625,290.0155 198.7685,291.7875 200.5405,293.3935 202.4613,294.8181 204.5125,296.0475 206.6744,297.07 208.9261,297.8757 211.2458,298.4568 213.6114,298.8077 216.0,298.925 218.3886,298.8077"/>
    <polygon points="219.2317,317.1074 219.5006,316.0339 219.663,314.9393 219.7173,313.834 219.663,312.7288 219.5006,311.6341 219.2317,310.5607 218.8589,309.5188 218.3858,308.5184 217.8169,307.5693 217.1576,306.6804 216.4145,305.8605 215.5946,305.1173 214.7057,304.4581 213.7566,303.8892 212.7562,303.4161 211.7143,303.0433 210.6408,302.7744 209.5462,302.612 208.4409,302.5577 207.3357,302.612 206.241,302.7744 205.1676,303.0433 204.1257,303.4161 203.1253,303.8892 202.1762,304.4581 201.2873,305.1173 200.4674,305.8605 199.7242,306.6804 199.065,307.5693 198.4961,308.5184 198.023,309.5188 197.6502,310.5607 197.3813,311.6341 197.2189,312.7288 197.1646,313.834 197.2189,314.9393 197.3813,316.0339 197.6502,317.1074 198.023,318.1493 198.4961,319.1496 199.065,320.0988 199.7242,320.9876 200.4674,321.8076 201.2873,322.5507 202.1762,323.2099 203.1253,323.7788 204.1257,324.252 205.1676,324.6248 206.241,324.8937 207.3357,325.056 208.4409,325.1103 209.5462,325.056 210.6408,324.8937 211.7143,324.6248 212.7562,324.252 213.7566,323.7788 214.7057,323.2099 215.5946,322.5507 216.4145,321.8076 217.1576,320.9876 217.8169,320.0988 218.3858,319.1496 218.8589,318.1493"/>
    <polygon points="244.1229,317.9728 245.8948,319.5788 247.8157,321.0034 249.8669,322.2329 252.0287,323.2554 254.2804,324.061 256.6002,324.6421 258.9658,324.993 261.3543,325.1103 263.7429,324.993 266.1085,324.6421 268.4283,324.061 270.6799,323.2554 272.8418,322.2329 274.893,321.0034 276.8138,319.5788 278.5858,317.9728 280.1918,316.2009 281.6164,314.28 282.8458,312.2288 283.8683,310.067 284.674,307.8153 285.2551,305.4955 285.606,303.1299 285.7233,300.7414 285.606,298.3528 285.2551,295.9872 284.674,293.6674 283.8683,291.4158 282.8458,289.2539 281.6164,287.2027 280.1918,285.2819 278.5858,283.5099 276.8138,281.9039 274.893,280.4793 272.8418,279.2498 270.6799,278.2274 268.4283,277.4217 266.1085,276.8406 263.7429,276.4897 261.3543,276.3724 258.9658,276.4897 256.6002,276.8406 254.2804,277.4217 252.0287,278.2274 249.8669,279.2498 247.8157,280.4793 245.8948,281.9039 244.1229,283.5099 242.5169,285.2819 241.0923,287.2027 239.8628,289.2539 238.8403,291.4158 238.0347,293.6674 237.4536,295.9872 237.1027,298.3528 236.9854,300.7414 237.1027,303.1299 237.4536,305.4955 238.0347,307.8153 238.8403,310.067 239.8628,312.2288 241.0923,314.28 242.5169,316.2009"/>
    <polygon points="241.9089,330.2 242.1777,329.1266 242.3401,328.032 242.3944,326.9267 242.3401,325.8214 242.1777,324.7268 241.9089,323.6534 241.5361,322.6114 241.0629,321.6111 240.494,320.6619 239.8348,319.7731 239.0917,318.9531 238.2717,318.21 237.3829,317.5508 236.4337,316.9819 235.4334,316.5087 234.3914,316.1359 233.318,315.8671 232.2234,315.7047 231.1181,315.6504 230.0128,315.7047 228.9182,315.8671 227.8448,316.1359 226.8029,316.5087 225.8025,316.9819 224.8533,317.5508 223.9645,318.21 223.1446,318.9531 222.4014,319.7731 221.7422,320.6619 221.1733,321.6111 220.7002,322.6114 220.3274,323.6534 220.0585,324.7268 219.8961,325.8214 219.8418,326.9267 219.8961,328.032 220.0585,329.1266 220.3274,330.2 220.7002,331.242 221.1733,332.2423 221.7422,333.1915 222.4014,334.0803 223.1446,334.9003 223.9645,335.6434 224.8533,336.3026 225.8025,336.8715 226.8029,337.3446 227.8448,337.7175 228.9182,337.9863 230.0128,338.1487 231.1181,338.203 232.2234,338.1487 233.318,337.9863 234.3914,337.7175 235.4334,337.3446 236.4337,336.8715 237.3829,336.3026 238.2717,335.6434 239.0917,334.9003 239.8348,334.0803 240.494,333.1915 241.0629,332.2423 241.5361,331.242"/>
    <polygon points="247.0151,337.1294 247.3879,337.4059 247.7861,337.6445 248.2057,337.843 248.6427,337.9993 249.093,338.1121 249.5521,338.1802 250.0157,338.203 250.4794,338.1802 250.9385,338.1121 251.3888,337.9993 251.8258,337.843 252.2454,337.6445 252.6436,337.4059 253.0164,337.1294 253.3603,336.8176 253.6721,336.4737 253.9486,336.1009 254.1872,335.7027 254.3857,335.2831 254.542,334.8461 254.6548,334.3958 254.7229,333.9367 254.7457,333.473 254.7229,333.0094 254.6548,332.5503 254.542,332.1 254.3857,331.663 254.1872,331.2433 253.9486,330.8452 253.6721,330.4724 253.3603,330.1284 253.0164,329.8167 252.6436,329.5402 252.2454,329.3016 251.8258,329.1031 251.3888,328.9467 250.9385,328.8339 250.4794,328.7658 250.0157,328.7431 249.5521,328.7658 249.093,328.8339 248.6427,328.9467 248.2057,329.1031 247.7861,329.3016 247.3879,329.5402 247.0151,329.8167 246.6712,330.1284 246.3594,330.4724 246.0829,330.8452 245.8443,331.2433 245.6458,331.663 245.4894,332.1 245.3767,332.5503 245.3086,333.0094 245.2858,333.473 245.3086,333.9367 245.3767,334.3958 245.4894,334.8461 245.6458,335.2831 245.8443,335.7027 246.0829,336.1009 246.3594,336.4737 246.6712,336.8176"/>
    <polygon points="242.1777,355.3119 242.3401,354.2173 242.3944,353.112 242.3401,352.0068 242.1777,350.9121 241.9089,349.8387 241.5361,348.7968 241.0629,347.7964 240.494,346.8473 239.8348,345.9584 239.0917,345.1385 238.2717,344.3953 237.3829,343.7361 236.4337,343.1672 235.4334,342.6941 234.3914,342.3213 233.318,342.0524 232.2234,341.89 231.1181,341.8357 230.0128,341.89 228.9182,342.0524 227.8448,342.3213 226.8029,342.6941 225.8025,343.1672 224.8533,343.7361 223.9645,344.3953 223.1446,345.1385 222.4014,345.9584 221.7422,346.8473 221.1733,347.7964 220.7002,348.7968 220.3274,349.8387 220.0585,350.9121 219.8961,352.0068 219.8418,353.112 219.8961,354.2173 220.0585,355.3119 220.3274,356.3854 220.7002,357.4273 221.1733,358.4276 221.7422,359.3768 222.4014,360.2656 223.1446,361.0856 223.9645,361.8287 224.8533,362.4879 225.8025,363.0568 226.8029,363.53 227.8448,363.9028 228.9182,364.1717 230.0128,364.334 231.1181,364.3883 232.2234,364.334 233.318,364.1717 234.3914,363.9028 235.4334,363.53 236.4337,363.0568 237.3829,362.4879 238.2717,361.8287 239.0917,361.0856 239.8348,360.2656 240.494,359.3768 241.0629,358.4276 241.5361,357.4273 241.9089,356.3854"/>
    <polygon points="242.5733,365.0994 242.519,366.2047 242.5733,367.31 242.7356,368.4046 243.0045,369.478 243.3773,370.52 243.8505,371.5203 244.4194,372.4695 245.0786,373.3583 245.8217,374.1783 246.6417,374.9214 247.5305,375.5806 248.4797,376.1495 249.48,376.6226 250.5219,376.9955 251.5954,377.2643 252.69,377.4267 253.7953,377.481 254.9005,377.4267 255.9952,377.2643 257.0686,376.9955 258.1105,376.6226 259.1109,376.1495 260.0601,375.5806 260.9489,374.9214 261.7688,374.1783 262.512,373.3583 263.1712,372.4695 263.7401,371.5203 264.2132,370.52 264.586,369.478 264.8549,368.4046 265.0173,367.31 265.0716,366.2047 265.0173,365.0994 264.8549,364.0048 264.586,362.9314 264.2132,361.8894 263.7401,360.8891 263.1712,359.9399 262.512,359.0511 261.7688,358.2311 260.9489,357.488 260.0601,356.8288 259.1109,356.2599 258.1105,355.7868 257.0686,355.4139 255.9952,355.1451 254.9005,354.9827 253.7953,354.9284 252.69,354.9827 251.5954,355.1451 250.5219,355.4139 249.48,355.7868 248.4797,356.2599 247.5305,356.8288 246.6417,357.488 245.8217,358.2311 245.0786,359.0511 244.4194,359.9399 243.8505,360.8891 243.3773,361.8894 243.0045,362.9314 242.7356,364.0048"/>
    <polygon points="231.9777,371.8283 231.8649,371.378 231.7085,370.941 231.51,370.5213 231.2714,370.1232 230.9949,369.7504 230.6832,369.4064 230.3392,369.0947 229.9664,368.8182 229.5683,368.5796 229.1487,368.3811 228.7116,368.2247 228.2614,368.1119 227.8022,368.0438 227.3386,368.0211 226.875,368.0438 226.4158,368.1119 225.9655,368.2247 225.5285,368.3811 225.1089,368.5796 224.7108,368.8182 224.3379,369.0947 223.994,369.4064 223.6823,369.7504 223.4058,370.1232 223.1671,370.5213 222.9687,370.941 222.8123,371.378 222.6995,371.8283 222.6314,372.2874 222.6086,372.751 222.6314,373.2147 222.6995,373.6738 222.8123,374.1241 222.9687,374.5611 223.1671,374.9807 223.4058,375.3789 223.6823,375.7517 223.994,376.0956 224.3379,376.4074 224.7108,376.6839 225.1089,376.9225 225.5285,377.121 225.9655,377.2773 226.4158,377.3901 226.875,377.4582 227.3386,377.481 227.8022,377.4582 228.2614,377.3901 228.7116,377.2773 229.1487,377.121 229.5683,376.9225 229.9664,376.6839 230.3392,376.4074 230.6832,376.0956 230.9949,375.7517 231.2714,375.3789 231.51,374.9807 231.7085,374.5611 231.8649,374.1241 231.9777,373.6738 232.0458,373.2147 232.0686,372.751 232.0458,372.2874"/>
    <polygon points="213.3722,362.2719 212.9993,362.5484 212.6554,362.8601 212.3437,363.204 212.0672,363.5769 211.8285,363.975 211.6301,364.3946 211.4737,364.8317 211.3609,365.2819 211.2928,365.7411 211.27,366.2047 211.2928,366.6683 211.3609,367.1275 211.4737,367.5777 211.6301,368.0148 211.8285,368.4344 212.0672,368.8325 212.3437,369.2054 212.6554,369.5493 212.9993,369.861 213.3722,370.1375 213.7703,370.3762 214.1899,370.5746 214.627,370.731 215.0772,370.8438 215.5364,370.9119 216.0,370.9347 216.4636,370.9119 216.9228,370.8438 217.373,370.731 217.8101,370.5746 218.2297,370.3762 218.6278,370.1375 219.0007,369.861 219.3446,369.5493 219.6563,369.2054 219.9328,368.8325 220.1715,368.4344 220.3699,368.0148 220.5263,367.5777 220.6391,367.1275 220.7072,366.6683 220.73,366.2047 220.7072,365.7411 220.6391,365.2819 220.5263,364.8317 220.3699,364.3946 220.1715,363.975 219.9328,363.5769 219.6563,363.204 219.3446,362.8601 219.0007,362.5484 218.6278,362.2719 218.2297,362.0332 217.8101,361.8348 217.373,361.6784 216.9228,361.5656 216.4636,361.4975 216.0,361.4747 215.5364,361.4975 215.0772,361.5656 214.627,361.6784 214.1899,361.8348 213.7703,362.0332"/>
    <polygon points="209.3005,358.7356 209.1877,358.2853 209.0313,357.8483 208.8329,357.4287 208.5942,357.0305 208.3177,356.6577 208.006,356.3138 207.6621,356.002 207.2892,355.7255 206.8911,355.4869 206.4715,355.2884 206.0345,355.1321 205.5842,355.0193 205.125,354.9512 204.6614,354.9284 204.1978,354.9512 203.7386,355.0193 203.2884,355.1321 202.8513,355.2884 202.4317,355.4869 202.0336,355.7255 201.6608,356.002 201.3168,356.3138 201.0051,356.6577 200.7286,357.0305 200.49,357.4287 200.2915,357.8483 200.1351,358.2853 200.0223,358.7356 199.9542,359.1947 199.9314,359.6584 199.9542,360.122 200.0223,360.5811 200.1351,361.0314 200.2915,361.4684 200.49,361.8881 200.7286,362.2862 201.0051,362.659 201.3168,363.003 201.6608,363.3147 202.0336,363.5912 202.4317,363.8298 202.8513,364.0283 203.2884,364.1847 203.7386,364.2975 204.1978,364.3656 204.6614,364.3883 205.125,364.3656 205.5842,364.2975 206.0345,364.1847 206.4715,364.0283 206.8911,363.8298 207.2892,363.5912 207.6621,363.3147 208.006,363.003 208.3177,362.659 208.5942,362.2862 208.8329,361.8881 209.0313,361.4684 209.1877,361.0314 209.3005,360.5811 209.3686,360.122 209.3914,359.6584 209.3686,359.1947"/>
    <polygon points="183.7943,368.3811 183.3573,368.2247 182.907,368.1119 182.4479,368.0438 181.9843,368.0211 181.5206,368.0438 181.0615,368.1119 180.6112,368.2247 180.1742,368.3811 179.7546,368.5796 179.3564,368.8182 178.9836,369.0947 178.6397,369.4064 178.3279,369.7504 178.0514,370.1232 177.8128,370.5213 177.6143,370.941 177.458,371.378 177.3452,371.8283 177.2771,372.2874 177.2543,372.751 177.2771,373.2147 177.3452,373.6738 177.458,374.1241 177.6143,374.5611 177.8128,374.9807 178.0514,375.3789 178.3279,375.7517 178.6397,376.0956 178.9836,376.4074 179.3564,376.6839 179.7546,376.9225 180.1742,377.121 180.6112,377.2773 181.0615,377.3901 181.5206,377.4582 181.9843,377.481 182.4479,377.4582 182.907,377.3901 183.3573,377.2773 183.7943,377.121 184.2139,376.9225 184.6121,376.6839 184.9849,376.4074 185.3288,376.0956 185.6406,375.7517 185.9171,375.3789 186.1557,374.9807 186.3542,374.5611 186.5106,374.1241 186.6233,373.6738 186.6914,373.2147 186.7142,372.751 186.6914,372.2874 186.6233,371.8283 186.5106,371.378 186.3542,370.941 186.1557,370.5213 185.9171,370.1232 185.6406,369.7504 185.3288,369.4064 184.9849,369.0947 184.6121,368.8182 184.2139,368.5796"/>
    <polygon points="160.6801,390.37 160.2299,390.4828 159.7707,390.5509 159.3071,390.5737 158.8435,390.5509 158.3843,390.4828 157.934,390.37 157.497,390.2136 157.0774,390.0152 156.6793,389.7765 156.3064,389.5 155.9625,389.1883 155.6508,388.8444 155.3743,388.4715 155.1356,388.0734 154.9372,387.6538 154.7808,387.2167 154.668,386.7665 154.5999,386.3073 154.5771,385.8437 154.5999,385.3801 154.668,384.9209 154.7808,384.4707 154.9372,384.0336 155.1356,383.614 155.3743,383.2159 155.6508,382.843 155.9625,382.4991 156.3064,382.1874 156.6793,381.9109 157.0774,381.6722 157.497,381.4738 157.934,381.3174 158.3843,381.2046 158.8435,381.1365 159.3071,381.1137 159.7707,381.1365 160.2299,381.2046 160.6801,381.3174 161.1172,381.4738 161.5368,381.6722 161.9349,381.9109 162.3077,382.1874 162.6517,382.4991 162.9634,382.843 163.2399,383.2159 163.4786,383.614 163.677,384.0336 163.8334,384.4707 163.9462,384.9209 164.0143,385.3801 164.0371,385.8437 164.0143,386.3073 163.9462,386.7665 163.8334,387.2167 163.677,387.6538 163.4786,388.0734 163.2399,388.4715 162.9634,388.8444 162.6517,389.1883 162.3077,389.5 161.9349,389.7765 161.5368,390.0152 161.1172,390.2136"/>
    <polygon points="152.14,381.5271 151.9013,381.9252 151.6248,382.298 151.3131,382.642 150.9692,382.9537 150.5963,383.2302 150.1982,383.4688 149.7786,383.6673 149.3415,383.8237 148.8913,383.9365 148.4321,384.0046 147.9685,384.0273 147.5049,384.0046 147.0457,383.9365 146.5955,383.8237 146.1584,383.6673 145.7388,383.4688 145.3407,383.2302 144.9678,382.9537 144.6239,382.642 144.3122,382.298 144.0357,381.9252 143.797,381.5271 143.5986,381.1075 143.4422,380.6704 143.3294,380.2201 143.2613,379.761 143.2385,379.2974 143.2613,378.8338 143.3294,378.3746 143.4422,377.9243 143.5986,377.4873 143.797,377.0677 144.0357,376.6695 144.3122,376.2967 144.6239,375.9528 144.9678,375.6411 145.3407,375.3645 145.7388,375.1259 146.1584,374.9274 146.5955,374.7711 147.0457,374.6583 147.5049,374.5902 147.9685,374.5674 148.4321,374.5902 148.8913,374.6583 149.3415,374.7711 149.7786,374.9274 150.1982,375.1259 150.5963,375.3645 150.9692,375.6411 151.3131,375.9528 151.6248,376.2967 151.9013,376.6695 152.14,377.0677 152.3384,377.4873 152.4948,377.9243 152.6076,378.3746 152.6757,378.8338 152.6985,379.2974 152.6757,379.761 152.6076,380.2201 152.4948,380.6704 152.3384,381.1075"/>
    <polygon points="151.8646,365.0994 152.027,364.0048 152.2959,362.9314 152.6687,361.8894 153.1418,360.8891 153.7107,359.9399 154.3699,359.0511 155.1131,358.2311 155.933,357.488 156.8218,356.8288 157.771,356.2599 158.7714,355.7868 159.8133,355.4139 160.8867,355.1451 161.9813,354.9827 163.0866,354.9284 164.1919,354.9827 165.2865,355.1451 166.36,355.4139 167.4019,355.7868 168.4022,356.2599 169.3514,356.8288 170.2402,357.488 171.0602,358.2311 171.8033,359.0511 172.4625,359.9399 173.0314,360.8891 173.5046,361.8894 173.8774,362.9314 174.1462,364.0048 174.3086,365.0994 174.3629,366.2047 174.3086,367.31 174.1462,368.4046 173.8774,369.478 173.5046,370.52 173.0314,371.5203 172.4625,372.4695 171.8033,373.3583 171.0602,374.1783 170.2402,374.9214 169.3514,375.5806 168.4022,376.1495 167.4019,376.6226 166.36,376.9955 165.2865,377.2643 164.1919,377.4267 163.0866,377.481 161.9813,377.4267 160.8867,377.2643 159.8133,376.9955 158.7714,376.6226 157.771,376.1495 156.8218,375.5806 155.933,374.9214 155.1131,374.1783 154.3699,373.3583 153.7107,372.4695 153.1418,371.5203 152.6687,370.52 152.2959,369.478 152.027,368.4046 151.8646,367.31 151.8103,366.2047"/>
    <polygon points="129.4628,363.975 129.6613,364.3946 129.8176,364.8317 129.9304,365.2819 129.9985,365.7411 130.0213,366.2047 129.9985,366.6683 129.9304,367.1275 129.8176,367.5777 129.6613,368.0148 129.4628,368.4344 129.2242,368.8325 128.9477,369.2054 128.6359,369.5493 128.292,369.861 127.9192,370.1375 127.521,370.3762 127.1014,370.5746 126.6644,370.731 126.2141,370.8438 125.755,370.9119 125.2913,370.9347 124.8277,370.9119 124.3686,370.8438 123.9183,370.731 123.4813,370.5746 123.0616,370.3762 122.6635,370.1375 122.2907,369.861 121.9467,369.5493 121.635,369.2054 121.3585,368.8325 121.1199,368.4344 120.9214,368.0148 120.765,367.5777 120.6523,367.1275 120.5841,366.6683 120.5614,366.2047 120.5841,365.7411 120.6523,365.2819 120.765,364.8317 120.9214,364.3946 121.1199,363.975 121.3585,363.5769 121.635,363.204 121.9467,362.8601 122.2907,362.5484 122.6635,362.2719 123.0616,362.0332 123.4813,361.8348 123.9183,361.6784 124.3686,361.5656 124.8277,361.4975 125.2913,361.4747 125.755,361.4975 126.2141,361.5656 126.6644,361.6784 127.1014,361.8348 127.521,362.0332 127.9192,362.2719 128.292,362.5484 128.6359,362.8601 128.9477,363.204 129.2242,363.5769"/>
    <polygon points="111.7231,342.3942 112.1427,342.1958 112.5797,342.0394 113.03,341.9266 113.4891,341.8585 113.9528,341.8357 114.4164,341.8585 114.8755,341.9266 115.3258,342.0394 115.7628,342.1958 116.1824,342.3942 116.5806,342.6329 116.9534,342.9094 117.2974,343.2211 117.6091,343.565 117.8856,343.9379 118.1242,344.336 118.3227,344.7556 118.4791,345.1927 118.5918,345.6429 118.66,346.1021 118.6827,346.5657 118.66,347.0293 118.5918,347.4885 118.4791,347.9387 118.3227,348.3758 118.1242,348.7954 117.8856,349.1935 117.6091,349.5664 117.2974,349.9103 116.9534,350.222 116.5806,350.4985 116.1824,350.7372 115.7628,350.9356 115.3258,351.092 114.8755,351.2048 114.4164,351.2729 113.9528,351.2957 113.4891,351.2729 113.03,351.2048 112.5797,351.092 112.1427,350.9356 111.7231,350.7372 111.3249,350.4985 110.9521,350.222 110.6082,349.9103 110.2964,349.5664 110.0199,349.1935 109.7813,348.7954 109.5828,348.3758 109.4265,347.9387 109.3137,347.4885 109.2456,347.0293 109.2228,346.5657 109.2456,346.1021 109.3137,345.6429 109.4265,345.1927 109.5828,344.7556 109.7813,344.336 110.0199,343.9379 110.2964,343.565 110.6082,343.2211 110.9521,342.9094 111.3249,342.6329"/>
    <polygon points="113.4891,338.1802 113.03,338.1121 112.5797,337.9993 112.1427,337.843 111.7231,337.6445 111.3249,337.4059 110.9521,337.1294 110.6082,336.8176 110.2964,336.4737 110.0199,336.1009 109.7813,335.7027 109.5828,335.2831 109.4265,334.8461 109.3137,334.3958 109.2456,333.9367 109.2228,333.473 109.2456,333.0094 109.3137,332.5503 109.4265,332.1 109.5828,331.663 109.7813,331.2433 110.0199,330.8452 110.2964,330.4724 110.6082,330.1284 110.9521,329.8167 111.3249,329.5402 111.7231,329.3016 112.1427,329.1031 112.5797,328.9467 113.03,328.8339 113.4891,328.7658 113.9528,328.7431 114.4164,328.7658 114.8755,328.8339 115.3258,328.9467 115.7628,329.1031 116.1824,329.3016 116.5806,329.5402 116.9534,329.8167 117.2974,330.1284 117.6091,330.4724 117.8856,330.8452 118.1242,331.2433 118.3227,331.663 118.4791,332.1 118.5918,332.5503 118.66,333.0094 118.6827,333.473 118.66,333.9367 118.5918,334.3958 118.4791,334.8461 118.3227,335.2831 118.1242,335.7027 117.8856,336.1009 117.6091,336.4737 117.2974,336.8176 116.9534,337.1294 116.5806,337.4059 116.1824,337.6445 115.7628,337.843 115.3258,337.9993 114.8755,338.1121 114.4164,338.1802 113.9528,338.203"/>
    <polygon points="127.1014,335.6494 127.521,335.8479 127.9192,336.0865 128.292,336.363 128.6359,336.6748 128.9477,337.0187 129.2242,337.3915 129.4628,337.7897 129.6613,338.2093 129.8176,338.6463 129.9304,339.0966 129.9985,339.5557 130.0213,340.0194 129.9985,340.483 129.9304,340.9421 129.8176,341.3924 129.6613,341.8294 129.4628,342.2491 129.2242,342.6472 128.9477,343.02 128.6359,343.364 128.292,343.6757 127.9192,343.9522 127.521,344.1908 127.1014,344.3893 126.6644,344.5457 126.2141,344.6585 125.755,344.7266 125.2913,344.7493 124.8277,344.7266 124.3686,344.6585 123.9183,344.5457 123.4813,344.3893 123.0616,344.1908 122.6635,343.9522 122.2907,343.6757 121.9467,343.364 121.635,343.02 121.3585,342.6472 121.1199,342.2491 120.9214,341.8294 120.765,341.3924 120.6523,340.9421 120.5841,340.483 120.5614,340.0194 120.5841,339.5557 120.6523,339.0966 120.765,338.6463 120.9214,338.2093 121.1199,337.7897 121.3585,337.3915 121.635,337.0187 121.9467,336.6748 122.2907,336.363 122.6635,336.0865 123.0616,335.8479 123.4813,335.6494 123.9183,335.4931 124.3686,335.3803 124.8277,335.3122 125.2913,335.2894 125.755,335.3122 126.2141,335.3803 126.6644,335.4931"/>
    <polygon points="124.8277,348.4048 125.2913,348.3821 125.755,348.4048 126.2141,348.4729 126.6644,348.5857 127.1014,348.7421 127.521,348.9406 127.9192,349.1792 128.292,349.4557 128.6359,349.7674 128.9477,350.1114 129.2242,350.4842 129.4628,350.8823 129.6613,351.302 129.8176,351.739 129.9304,352.1893 129.9985,352.6484 130.0213,353.112 129.9985,353.5757 129.9304,354.0348 129.8176,354.4851 129.6613,354.9221 129.4628,355.3417 129.2242,355.7399 128.9477,356.1127 128.6359,356.4566 128.292,356.7684 127.9192,357.0449 127.521,357.2835 127.1014,357.482 126.6644,357.6383 126.2141,357.7511 125.755,357.8192 125.2913,357.842 124.8277,357.8192 124.3686,357.7511 123.9183,357.6383 123.4813,357.482 123.0616,357.2835 122.6635,357.0449 122.2907,356.7684 121.9467,356.4566 121.635,356.1127 121.3585,355.7399 121.1199,355.3417 120.9214,354.9221 120.765,354.4851 120.6523,354.0348 120.5841,353.5757 120.5614,353.112 120.5841,352.6484 120.6523,352.1893 120.765,351.739 120.9214,351.302 121.1199,350.8823 121.3585,350.4842 121.635,350.1114 121.9467,349.7674 122.2907,349.4557 122.6635,349.1792 123.0616,348.9406 123.4813,348.7421 123.9183,348.5857 124.3686,348.4729"/>
    <polygon points="135.2569,351.092 134.8198,350.9356 134.4002,350.7372 134.0021,350.4985 133.6293,350.222 133.2853,349.9103 132.9736,349.5664 132.6971,349.1935 132.4585,348.7954 132.26,348.3758 132.1036,347.9387 131.9908,347.4885 131.9227,347.0293 131.8999,346.5657 131.9227,346.1021 131.9908,345.6429 132.1036,345.1927 132.26,344.7556 132.4585,344.336 132.6971,343.9379 132.9736,343.565 133.2853,343.2211 133.6293,342.9094 134.0021,342.6329 134.4002,342.3942 134.8198,342.1958 135.2569,342.0394 135.7071,341.9266 136.1663,341.8585 136.6299,341.8357 137.0935,341.8585 137.5527,341.9266 138.003,342.0394 138.44,342.1958 138.8596,342.3942 139.2578,342.6329 139.6306,342.9094 139.9745,343.2211 140.2862,343.565 140.5627,343.9379 140.8014,344.336 140.9998,344.7556 141.1562,345.1927 141.269,345.6429 141.3371,346.1021 141.3599,346.5657 141.3371,347.0293 141.269,347.4885 141.1562,347.9387 140.9998,348.3758 140.8014,348.7954 140.5627,349.1935 140.2862,349.5664 139.9745,349.9103 139.6306,350.222 139.2578,350.4985 138.8596,350.7372 138.44,350.9356 138.003,351.092 137.5527,351.2048 137.0935,351.2729 136.6299,351.2957 136.1663,351.2729 135.7071,351.2048"/>
    <polygon points="139.6306,356.002 139.9745,356.3138 140.2862,356.6577 140.5627,357.0305 140.8014,357.4287 140.9998,357.8483 141.1562,358.2853 141.269,358.7356 141.3371,359.1947 141.3599,359.6584 141.3371,360.122 141.269,360.5811 141.1562,361.0314 140.9998,361.4684 140.8014,361.8881 140.5627,362.2862 140.2862,362.659 139.9745,363.003 139.6306,363.3147 139.2578,363.5912 138.8596,363.8298 138.44,364.0283 138.003,364.1847 137.5527,364.2975 137.0935,364.3656 136.6299,364.3883 136.1663,364.3656 135.7071,364.2975 135.2569,364.1847 134.8198,364.0283 134.4002,363.8298 134.0021,363.5912 133.6293,363.3147 133.2853,363.003 132.9736,362.659 132.6971,362.2862 132.4585,361.8881 132.26,361.4684 132.1036,361.0314 131.9908,360.5811 131.9227,360.122 131.8999,359.6584 131.9227,359.1947 131.9908,358.7356 132.1036,358.2853 132.26,357.8483 132.4585,357.4287 132.6971,357.0305 132.9736,356.6577 133.2853,356.3138 133.6293,356.002 134.0021,355.7255 134.4002,355.4869 134.8198,355.2884 135.2569,355.1321 135.7071,355.0193 136.1663,354.9512 136.6299,354.9284 137.0935,354.9512 137.5527,355.0193 138.003,355.1321 138.44,355.2884 138.8596,355.4869 139.2578,355.7255"/>
    <polygon points="146.1584,348.7421 146.5955,348.5857 147.0457,348.4729 147.5049,348.4048 147.9685,348.3821 148.4321,348.4048 148.8913,348.4729 149.3415,348.5857 149.7786,348.7421 150.1982,348.9406 150.5963,349.1792 150.9692,349.4557 151.3131,349.7674 151.6248,350.1114 151.9013,350.4842 152.14,350.8823 152.3384,351.302 152.4948,351.739 152.6076,352.1893 152.6757,352.6484 152.6985,353.112 152.6757,353.5757 152.6076,354.0348 152.4948,354.4851 152.3384,354.9221 152.14,355.3417 151.9013,355.7399 151.6248,356.1127 151.3131,356.4566 150.9692,356.7684 150.5963,357.0449 150.1982,357.2835 149.7786,357.482 149.3415,357.6383 148.8913,357.7511 148.4321,357.8192 147.9685,357.842 147.5049,357.8192 147.0457,357.7511 146.5955,357.6383 146.1584,357.482 145.7388,357.2835 145.3407,357.0449 144.9678,356.7684 144.6239,356.4566 144.3122,356.1127 144.0357,355.7399 143.797,355.3417 143.5986,354.9221 143.4422,354.4851 143.3294,354.0348 143.2613,353.5757 143.2385,353.112 143.2613,352.6484 143.3294,352.1893 143.4422,351.739 143.5986,351.302 143.797,350.8823 144.0357,350.4842 144.3122,350.1114 144.6239,349.7674 144.9678,349.4557 145.3407,349.1792 145.7388,348.9406"/>
    <polygon points="155.1131,347.9929 154.3699,347.173 153.7107,346.2841 153.1418,345.335 152.6687,344.3346 152.2959,343.2927 152.027,342.2193 151.8646,341.1246 151.8103,340.0194 151.8646,338.9141 152.027,337.8195 152.2959,336.746 152.6687,335.7041 153.1418,334.7038 153.7107,333.7546 154.3699,332.8658 155.1131,332.0458 155.933,331.3027 156.8218,330.6435 157.771,330.0746 158.7714,329.6014 159.8133,329.2286 160.8867,328.9597 161.9813,328.7974 163.0866,328.7431 164.1919,328.7974 165.2865,328.9597 166.36,329.2286 167.4019,329.6014 168.4022,330.0746 169.3514,330.6435 170.2402,331.3027 171.0602,332.0458 171.8033,332.8658 172.4625,333.7546 173.0314,334.7038 173.5046,335.7041 173.8774,336.746 174.1462,337.8195 174.3086,338.9141 174.3629,340.0194 174.3086,341.1246 174.1462,342.2193 173.8774,343.2927 173.5046,344.3346 173.0314,345.335 172.4625,346.2841 171.8033,347.173 171.0602,347.9929 170.2402,348.7361 169.3514,349.3953 168.4022,349.9642 167.4019,350.4373 166.36,350.8101 165.2865,351.079 164.1919,351.2414 163.0866,351.2957 161.9813,351.2414 160.8867,351.079 159.8133,350.8101 158.7714,350.4373 157.771,349.9642 156.8218,349.3953 155.933,348.7361"/>
    <polygon points="177.0471,345.9584 177.7902,345.1385 178.6102,344.3953 179.499,343.7361 180.4482,343.1672 181.4485,342.6941 182.4904,342.3213 183.5639,342.0524 184.6585,341.89 185.7638,341.8357 186.8691,341.89 187.9637,342.0524 189.0371,342.3213 190.079,342.6941 191.0794,343.1672 192.0286,343.7361 192.9174,344.3953 193.7373,345.1385 194.4805,345.9584 195.1397,346.8473 195.7086,347.7964 196.1817,348.7968 196.5545,349.8387 196.8234,350.9121 196.9858,352.0068 197.0401,353.112 196.9858,354.2173 196.8234,355.3119 196.5545,356.3854 196.1817,357.4273 195.7086,358.4276 195.1397,359.3768 194.4805,360.2656 193.7373,361.0856 192.9174,361.8287 192.0286,362.4879 191.0794,363.0568 190.079,363.53 189.0371,363.9028 187.9637,364.1717 186.8691,364.334 185.7638,364.3883 184.6585,364.334 183.5639,364.1717 182.4904,363.9028 181.4485,363.53 180.4482,363.0568 179.499,362.4879 178.6102,361.8287 177.7902,361.0856 177.0471,360.2656 176.3879,359.3768 175.819,358.4276 175.3458,357.4273 174.973,356.3854 174.7041,355.3119 174.5418,354.2173 174.4875,353.112 174.5418,352.0068 174.7041,350.9121 174.973,349.8387 175.3458,348.7968 175.819,347.7964 176.3879,346.8473"/>
    <polygon points="195.1397,333.1915 195.7086,332.2423 196.1817,331.242 196.5545,330.2 196.8234,329.1266 196.9858,328.032 197.0401,326.9267 196.9858,325.8214 196.8234,324.7268 196.5545,323.6534 196.1817,322.6114 195.7086,321.6111 195.1397,320.6619 194.4805,319.7731 193.7373,318.9531 192.9174,318.21 192.0286,317.5508 191.0794,316.9819 190.079,316.5087 189.0371,316.1359 187.9637,315.8671 186.8691,315.7047 185.7638,315.6504 184.6585,315.7047 183.5639,315.8671 182.4904,316.1359 181.4485,316.5087 180.4482,316.9819 179.499,317.5508 178.6102,318.21 177.7902,318.9531 177.0471,319.7731 176.3879,320.6619 175.819,321.6111 175.3458,322.6114 174.973,323.6534 174.7041,324.7268 174.5418,325.8214 174.4875,326.9267 174.5418,328.032 174.7041,329.1266 174.973,330.2 175.3458,331.242 175.819,332.2423 176.3879,333.1915 177.0471,334.0803 177.7902,334.9003 178.6102,335.6434 179.499,336.3026 180.4482,336.8715 181.4485,337.3446 182.4904,337.7175 183.5639,337.9863 184.6585,338.1487 185.7638,338.203 186.8691,338.1487 187.9637,337.9863 189.0371,337.7175 190.079,337.3446 191.0794,336.8715 192.0286,336.3026 192.9174,335.6434 193.7373,334.9003 194.4805,334.0803"/>
    <polygon points="172.8754,309.6626 172.4558,309.4641 172.0187,309.3077 171.5684,309.1949 171.1093,309.1268 170.6457,309.1041 170.1821,309.1268 169.7229,309.1949 169.2726,309.3077 168.8356,309.4641 168.416,309.6626 168.0178,309.9012 167.645,310.1777 167.3011,310.4894 166.9894,310.8334 166.7128,311.2062 166.4742,311.6043 166.2757,312.0239 166.1194,312.461 166.0066,312.9113 165.9385,313.3704 165.9157,313.834 165.9385,314.2976 166.0066,314.7568 166.1194,315.2071 166.2757,315.6441 166.4742,316.0637 166.7128,316.4619 166.9894,316.8347 167.3011,317.1786 167.645,317.4903 168.0178,317.7669 168.416,318.0055 168.8356,318.204 169.2726,318.3603 169.7229,318.4731 170.1821,318.5412 170.6457,318.564 171.1093,318.5412 171.5684,318.4731 172.0187,318.3603 172.4558,318.204 172.8754,318.0055 173.2735,317.7669 173.6463,317.4903 173.9903,317.1786 174.302,316.8347 174.5785,316.4619 174.8171,316.0637 175.0156,315.6441 175.172,315.2071 175.2848,314.7568 175.3529,314.2976 175.3756,313.834 175.3529,313.3704 175.2848,312.9113 175.172,312.461 175.0156,312.0239 174.8171,311.6043 174.5785,311.2062 174.302,310.8334 173.9903,310.4894 173.6463,310.1777 173.2735,309.9012"/>
    <polygon points="103.0778,305.4486 102.6142,305.4713 102.1506,305.4486 101.6914,305.3805 101.2411,305.2677 100.8041,305.1113 100.3845,304.9128 99.9863,304.6742 99.6135,304.3977 99.2696,304.086 98.9579,303.742 98.6813,303.3692 98.4427,302.9711 98.2442,302.5514 98.0879,302.1144 97.9751,301.6641 97.907,301.205 97.8842,300.7414 97.907,300.2777 97.9751,299.8186 98.0879,299.3683 98.2442,298.9313 98.4427,298.5117 98.6813,298.1135 98.9579,297.7407 99.2696,297.3968 99.6135,297.085 99.9863,296.8085 100.3845,296.5699 100.8041,296.3714 101.2411,296.2151 101.6914,296.1023 102.1506,296.0342 102.6142,296.0114 103.0778,296.0342 103.5369,296.1023 103.9872,296.2151 104.4243,296.3714 104.8439,296.5699 105.242,296.8085 105.6148,297.085 105.9588,297.3968 106.2705,297.7407 106.547,298.1135 106.7856,298.5117 106.9841,298.9313 107.1405,299.3683 107.2533,299.8186 107.3214,300.2777 107.3441,300.7414 107.3214,301.205 107.2533,301.6641 107.1405,302.1144 106.9841,302.5514 106.7856,302.9711 106.547,303.3692 106.2705,303.742 105.9588,304.086 105.6148,304.3977 105.242,304.6742 104.8439,304.9128 104.4243,305.1113 103.9872,305.2677 103.5369,305.3805"/>
    <polygon points="89.0459,290.0236 89.4655,289.8251 89.9026,289.6687 90.3528,289.5559 90.812,289.4878 91.2756,289.4651 91.7392,289.4878 92.1984,289.5559 92.6486,289.6687 93.0857,289.8251 93.5053,290.0236 93.9034,290.2622 94.2763,290.5387 94.6202,290.8504 94.9319,291.1944 95.2084,291.5672 95.4471,291.9653 95.6455,292.3849 95.8019,292.822 95.9147,293.2723 95.9828,293.7314 96.0056,294.195 95.9828,294.6586 95.9147,295.1178 95.8019,295.5681 95.6455,296.0051 95.4471,296.4247 95.2084,296.8229 94.9319,297.1957 94.6202,297.5396 94.2763,297.8513 93.9034,298.1279 93.5053,298.3665 93.0857,298.565 92.6486,298.7213 92.1984,298.8341 91.7392,298.9022 91.2756,298.925 90.812,298.9022 90.3528,298.8341 89.9026,298.7213 89.4655,298.565 89.0459,298.3665 88.6478,298.1279 88.2749,297.8513 87.931,297.5396 87.6193,297.1957 87.3428,296.8229 87.1041,296.4247 86.9057,296.0051 86.7493,295.5681 86.6365,295.1178 86.5684,294.6586 86.5456,294.195 86.5684,293.7314 86.6365,293.2723 86.7493,292.822 86.9057,292.3849 87.1041,291.9653 87.3428,291.5672 87.6193,291.1944 87.931,290.8504 88.2749,290.5387 88.6478,290.2622"/>
    <polygon points="64.2285,296.0051 64.0721,295.5681 63.9593,295.1178 63.8912,294.6586 63.8685,294.195 63.8912,293.7314 63.9593,293.2723 64.0721,292.822 64.2285,292.3849 64.427,291.9653 64.6656,291.5672 64.9421,291.1944 65.2538,290.8504 65.5978,290.5387 65.9706,290.2622 66.3687,290.0236 66.7883,289.8251 67.2254,289.6687 67.6757,289.5559 68.1348,289.4878 68.5984,289.4651 69.062,289.4878 69.5212,289.5559 69.9715,289.6687 70.4085,289.8251 70.8281,290.0236 71.2263,290.2622 71.5991,290.5387 71.943,290.8504 72.2547,291.1944 72.5313,291.5672 72.7699,291.9653 72.9684,292.3849 73.1247,292.822 73.2375,293.2723 73.3056,293.7314 73.3284,294.195 73.3056,294.6586 73.2375,295.1178 73.1247,295.5681 72.9684,296.0051 72.7699,296.4247 72.5313,296.8229 72.2547,297.1957 71.943,297.5396 71.5991,297.8513 71.2263,298.1279 70.8281,298.3665 70.4085,298.565 69.9715,298.7213 69.5212,298.8341 69.062,298.9022 68.5984,298.925 68.1348,298.9022 67.6757,298.8341 67.2254,298.7213 66.7883,298.565 66.3687,298.3665 65.9706,298.1279 65.5978,297.8513 65.2538,297.5396 64.9421,297.1957 64.6656,296.8229 64.427,296.4247"/>
    <polygon points="75.207,287.6487 75.2298,287.1851 75.2979,286.7259 75.4107,286.2757 75.5671,285.8386 75.7655,285.419 76.0042,285.0209 76.2807,284.648 76.5924,284.3041 76.9363,283.9924 77.3092,283.7159 77.7073,283.4772 78.1269,283.2788 78.564,283.1224 79.0142,283.0096 79.4734,282.9415 79.937,282.9187 80.4006,282.9415 80.8598,283.0096 81.31,283.1224 81.7471,283.2788 82.1667,283.4772 82.5648,283.7159 82.9377,283.9924 83.2816,284.3041 83.5933,284.648 83.8698,285.0209 84.1085,285.419 84.3069,285.8386 84.4633,286.2757 84.5761,286.7259 84.6442,287.1851 84.667,287.6487 84.6442,288.1123 84.5761,288.5715 84.4633,289.0217 84.3069,289.4588 84.1085,289.8784 83.8698,290.2765 83.5933,290.6494 83.2816,290.9933 82.9377,291.305 82.5648,291.5815 82.1667,291.8202 81.7471,292.0186 81.31,292.175 80.8598,292.2878 80.4006,292.3559 79.937,292.3787 79.4734,292.3559 79.0142,292.2878 78.564,292.175 78.1269,292.0186 77.7073,291.8202 77.3092,291.5815 76.9363,291.305 76.5924,290.9933 76.2807,290.6494 76.0042,290.2765 75.7655,289.8784 75.5671,289.4588 75.4107,289.0217 75.2979,288.5715 75.2298,288.1123"/>
    <polygon points="83.7788,274.556 83.8331,273.4508 83.9955,272.3561 84.2644,271.2827 84.6372,270.2408 85.1103,269.2404 85.6792,268.2912 86.3384,267.4024 87.0816,266.5825 87.9015,265.8393 88.7903,265.1801 89.7395,264.6112 90.7399,264.1381 91.7818,263.7653 92.8552,263.4964 93.9498,263.334 95.0551,263.2797 96.1604,263.334 97.255,263.4964 98.3285,263.7653 99.3704,264.1381 100.3707,264.6112 101.3199,265.1801 102.2087,265.8393 103.0287,266.5825 103.7718,267.4024 104.431,268.2912 104.9999,269.2404 105.4731,270.2408 105.8459,271.2827 106.1148,272.3561 106.2771,273.4508 106.3314,274.556 106.2771,275.6613 106.1148,276.7559 105.8459,277.8294 105.4731,278.8713 104.9999,279.8716 104.431,280.8208 103.7718,281.7096 103.0287,282.5296 102.2087,283.2727 101.3199,283.9319 100.3707,284.5008 99.3704,284.974 98.3285,285.3468 97.255,285.6157 96.1604,285.778 95.0551,285.8323 93.9498,285.778 92.8552,285.6157 91.7818,285.3468 90.7399,284.974 89.7395,284.5008 88.7903,283.9319 87.9015,283.2727 87.0816,282.5296 86.3384,281.7096 85.6792,280.8208 85.1103,279.8716 84.6372,278.8713 84.2644,277.8294 83.9955,276.7559 83.8331,275.6613"/>
    <polygon points="75.2979,260.5406 75.4107,260.0903 75.5671,259.6533 75.7655,259.2337 76.0042,258.8355 76.2807,258.4627 76.5924,258.1188 76.9363,257.807 77.3092,257.5305 77.7073,257.2919 78.1269,257.0934 78.564,256.9371 79.0142,256.8243 79.4734,256.7562 79.937,256.7334 80.4006,256.7562 80.8598,256.8243 81.31,256.9371 81.7471,257.0934 82.1667,257.2919 82.5648,257.5305 82.9377,257.807 83.2816,258.1188 83.5933,258.4627 83.8698,258.8355 84.1085,259.2337 84.3069,259.6533 84.4633,260.0903 84.5761,260.5406 84.6442,260.9997 84.667,261.4634 84.6442,261.927 84.5761,262.3861 84.4633,262.8364 84.3069,263.2734 84.1085,263.6931 83.8698,264.0912 83.5933,264.464 83.2816,264.808 82.9377,265.1197 82.5648,265.3962 82.1667,265.6348 81.7471,265.8333 81.31,265.9897 80.8598,266.1024 80.4006,266.1706 79.937,266.1933 79.4734,266.1706 79.0142,266.1024 78.564,265.9897 78.1269,265.8333 77.7073,265.6348 77.3092,265.3962 76.9363,265.1197 76.5924,264.808 76.2807,264.464 76.0042,264.0912 75.7655,263.6931 75.5671,263.2734 75.4107,262.8364 75.2979,262.3861 75.2298,261.927 75.207,261.4634 75.2298,260.9997"/>
    <polygon points="98.0879,249.7437 97.9751,249.2935 97.907,248.8343 97.8842,248.3707 97.907,247.9071 97.9751,247.4479 98.0879,246.9977 98.2442,246.5606 98.4427,246.141 98.6813,245.7429 98.9579,245.37 99.2696,245.0261 99.6135,244.7144 99.9863,244.4379 100.3845,244.1992 100.8041,244.0008 101.2411,243.8444 101.6914,243.7316 102.1506,243.6635 102.6142,243.6407 103.0778,243.6635 103.5369,243.7316 103.9872,243.8444 104.4243,244.0008 104.8439,244.1992 105.242,244.4379 105.6148,244.7144 105.9588,245.0261 106.2705,245.37 106.547,245.7429 106.7856,246.141 106.9841,246.5606 107.1405,246.9977 107.2533,247.4479 107.3214,247.9071 107.3441,248.3707 107.3214,248.8343 107.2533,249.2935 107.1405,249.7437 106.9841,250.1808 106.7856,250.6004 106.547,250.9985 106.2705,251.3714 105.9588,251.7153 105.6148,252.027 105.242,252.3035 104.8439,252.5422 104.4243,252.7406 103.9872,252.897 103.5369,253.0098 103.0778,253.0779 102.6142,253.1007 102.1506,253.0779 101.6914,253.0098 101.2411,252.897 100.8041,252.7406 100.3845,252.5422 99.9863,252.3035 99.6135,252.027 99.2696,251.7153 98.9579,251.3714 98.6813,250.9985 98.4427,250.6004 98.2442,250.1808"/>
    <polygon points="128.9543,260.3581 129.0086,261.4634 128.9543,262.5686 128.7919,263.6633 128.523,264.7367 128.1502,265.7786 127.6771,266.779 127.1082,267.7281 126.449,268.617 125.7058,269.4369 124.8859,270.1801 123.9971,270.8393 123.0479,271.4082 122.0475,271.8813 121.0056,272.2541 119.9322,272.523 118.8376,272.6854 117.7323,272.7397 116.627,272.6854 115.5324,272.523 114.4589,272.2541 113.417,271.8813 112.4167,271.4082 111.4675,270.8393 110.5787,270.1801 109.7587,269.4369 109.0156,268.617 108.3564,267.7281 107.7875,266.779 107.3143,265.7786 106.9415,264.7367 106.6726,263.6633 106.5103,262.5686 106.456,261.4634 106.5103,260.3581 106.6726,259.2635 106.9415,258.19 107.3143,257.1481 107.7875,256.1477 108.3564,255.1986 109.0156,254.3097 109.7587,253.4898 110.5787,252.7467 111.4675,252.0875 112.4167,251.5185 113.417,251.0454 114.4589,250.6726 115.5324,250.4037 116.627,250.2414 117.7323,250.1871 118.8376,250.2414 119.9322,250.4037 121.0056,250.6726 122.0475,251.0454 123.0479,251.5185 123.9971,252.0875 124.8859,252.7467 125.7058,253.4898 126.449,254.3097 127.1082,255.1986 127.6771,256.1477 128.1502,257.1481 128.523,258.19 128.7919,259.2635"/>
    <polygon points="140.4094,285.8323 139.3042,285.778 138.2096,285.6157 137.1361,285.3468 136.0942,284.974 135.0938,284.5008 134.1447,283.9319 133.2558,283.2727 132.4359,282.5296 131.6927,281.7096 131.0335,280.8208 130.4646,279.8716 129.9915,278.8713 129.6187,277.8294 129.3498,276.7559 129.1874,275.6613 129.1331,274.556 129.1874,273.4508 129.3498,272.3561 129.6187,271.2827 129.9915,270.2408 130.4646,269.2404 131.0335,268.2912 131.6927,267.4024 132.4359,266.5825 133.2558,265.8393 134.1447,265.1801 135.0938,264.6112 136.0942,264.1381 137.1361,263.7653 138.2096,263.4964 139.3042,263.334 140.4094,263.2797 141.5147,263.334 142.6093,263.4964 143.6828,263.7653 144.7247,264.1381 145.7251,264.6112 146.6742,265.1801 147.5631,265.8393 148.383,266.5825 149.1262,267.4024 149.7854,268.2912 150.3543,269.2404 150.8274,270.2408 151.2002,271.2827 151.4691,272.3561 151.6315,273.4508 151.6858,274.556 151.6315,275.6613 151.4691,276.7559 151.2002,277.8294 150.8274,278.8713 150.3543,279.8716 149.7854,280.8208 149.1262,281.7096 148.383,282.5296 147.5631,283.2727 146.6742,283.9319 145.7251,284.5008 144.7247,284.974 143.6828,285.3468 142.6093,285.6157 141.5147,285.778"/>
    <polygon points="161.1172,285.4723 160.6801,285.6287 160.2299,285.7414 159.7707,285.8096 159.3071,285.8323 158.8435,285.8096 158.3843,285.7414 157.934,285.6287 157.497,285.4723 157.0774,285.2738 156.6793,285.0352 156.3064,284.7587 155.9625,284.447 155.6508,284.103 155.3743,283.7302 155.1356,283.3321 154.9372,282.9124 154.7808,282.4754 154.668,282.0251 154.5999,281.566 154.5771,281.1024 154.5999,280.6387 154.668,280.1796 154.7808,279.7293 154.9372,279.2923 155.1356,278.8727 155.3743,278.4745 155.6508,278.1017 155.9625,277.7578 156.3064,277.446 156.6793,277.1695 157.0774,276.9309 157.497,276.7324 157.934,276.5761 158.3843,276.4633 158.8435,276.3952 159.3071,276.3724 159.7707,276.3952 160.2299,276.4633 160.6801,276.5761 161.1172,276.7324 161.5368,276.9309 161.9349,277.1695 162.3077,277.446 162.6517,277.7578 162.9634,278.1017 163.2399,278.4745 163.4786,278.8727 163.677,279.2923 163.8334,279.7293 163.9462,280.1796 164.0143,280.6387 164.0371,281.1024 164.0143,281.566 163.9462,282.0251 163.8334,282.4754 163.677,282.9124 163.4786,283.3321 163.2399,283.7302 162.9634,284.103 162.6517,284.447 162.3077,284.7587 161.9349,285.0352 161.5368,285.2738"/>
    <polygon points="173.2735,283.7159 173.6463,283.9924 173.9903,284.3041 174.302,284.648 174.5785,285.0209 174.8171,285.419 175.0156,285.8386 175.172,286.2757 175.2848,286.7259 175.3529,287.1851 175.3756,287.6487 175.3529,288.1123 175.2848,288.5715 175.172,289.0217 175.0156,289.4588 174.8171,289.8784 174.5785,290.2765 174.302,290.6494 173.9903,290.9933 173.6463,291.305 173.2735,291.5815 172.8754,291.8202 172.4558,292.0186 172.0187,292.175 171.5684,292.2878 171.1093,292.3559 170.6457,292.3787 170.1821,292.3559 169.7229,292.2878 169.2726,292.175 168.8356,292.0186 168.416,291.8202 168.0178,291.5815 167.645,291.305 167.3011,290.9933 166.9894,290.6494 166.7128,290.2765 166.4742,289.8784 166.2757,289.4588 166.1194,289.0217 166.0066,288.5715 165.9385,288.1123 165.9157,287.6487 165.9385,287.1851 166.0066,286.7259 166.1194,286.2757 166.2757,285.8386 166.4742,285.419 166.7128,285.0209 166.9894,284.648 167.3011,284.3041 167.645,283.9924 168.0178,283.7159 168.416,283.4772 168.8356,283.2788 169.2726,283.1224 169.7229,283.0096 170.1821,282.9415 170.6457,282.9187 171.1093,282.9415 171.5684,283.0096 172.0187,283.1224 172.4558,283.2788 172.8754,283.4772"/>
    <polygon points="192.0286,291.3655 192.9174,292.0247 193.7373,292.7678 194.4805,293.5878 195.1397,294.4766 195.7086,295.4257 196.1817,296.4261 196.5545,297.468 196.8234,298.5415 196.9858,299.6361 197.0401,300.7414 196.9858,301.8466 196.8234,302.9413 196.5545,304.0147 196.1817,305.0566 195.7086,306.057 195.1397,307.0061 194.4805,307.895 193.7373,308.7149 192.9174,309.4581 192.0286,310.1173 191.0794,310.6862 190.079,311.1593 189.0371,311.5321 187.9637,311.801 186.8691,311.9634 185.7638,312.0177 184.6585,311.9634 183.5639,311.801 182.4904,311.5321 181.4485,311.1593 180.4482,310.6862 179.499,310.1173 178.6102,309.4581 177.7902,308.7149 177.0471,307.895 176.3879,307.0061 175.819,306.057 175.3458,305.0566 174.973,304.0147 174.7041,302.9413 174.5418,301.8466 174.4875,300.7414 174.5418,299.6361 174.7041,298.5415 174.973,297.468 175.3458,296.4261 175.819,295.4257 176.3879,294.4766 177.0471,293.5878 177.7902,292.7678 178.6102,292.0247 179.499,291.3655 180.4482,290.7965 181.4485,290.3234 182.4904,289.9506 183.5639,289.6817 184.6585,289.5194 185.7638,289.4651 186.8691,289.5194 187.9637,289.6817 189.0371,289.9506 190.079,290.3234 191.0794,290.7965"/>
    <polygon points="173.5046,257.1481 173.0314,256.1477 172.4625,255.1986 171.8033,254.3097 171.0602,253.4898 170.2402,252.7467 169.3514,252.0875 168.4022,251.5185 167.4019,251.0454 166.36,250.6726 165.2865,250.4037 164.1919,250.2414 163.0866,250.1871 161.9813,250.2414 160.8867,250.4037 159.8133,250.6726 158.7714,251.0454 157.771,251.5185 156.8218,252.0875 155.933,252.7467 155.1131,253.4898 154.3699,254.3097 153.7107,255.1986 153.1418,256.1477 152.6687,257.1481 152.2959,258.19 152.027,259.2635 151.8646,260.3581 151.8103,261.4634 151.8646,262.5686 152.027,263.6633 152.2959,264.7367 152.6687,265.7786 153.1418,266.779 153.7107,267.7281 154.3699,268.617 155.1131,269.4369 155.933,270.1801 156.8218,270.8393 157.771,271.4082 158.7714,271.8813 159.8133,272.2541 160.8867,272.523 161.9813,272.6854 163.0866,272.7397 164.1919,272.6854 165.2865,272.523 166.36,272.2541 167.4019,271.8813 168.4022,271.4082 169.3514,270.8393 170.2402,270.1801 171.0602,269.4369 171.8033,268.617 172.4625,267.7281 173.0314,266.779 173.5046,265.7786 173.8774,264.7367 174.1462,263.6633 174.3086,262.5686 174.3629,261.4634 174.3086,260.3581 174.1462,259.2635 173.8774,258.19"/>
    <polygon points="176.3879,242.1059 175.819,243.0551 175.3458,244.0554 174.973,245.0974 174.7041,246.1708 174.5418,247.2654 174.4875,248.3707 174.5418,249.476 174.7041,250.5706 174.973,251.644 175.3458,252.6859 175.819,253.6863 176.3879,254.6355 177.0471,255.5243 177.7902,256.3442 178.6102,257.0874 179.499,257.7466 180.4482,258.3155 181.4485,258.7886 182.4904,259.1614 183.5639,259.4303 184.6585,259.5927 185.7638,259.647 186.8691,259.5927 187.9637,259.4303 189.0371,259.1614 190.079,258.7886 191.0794,258.3155 192.0286,257.7466 192.9174,257.0874 193.7373,256.3442 194.4805,255.5243 195.1397,254.6355 195.7086,253.6863 196.1817,252.6859 196.5545,251.644 196.8234,250.5706 196.9858,249.476 197.0401,248.3707 196.9858,247.2654 196.8234,246.1708 196.5545,245.0974 196.1817,244.0554 195.7086,243.0551 195.1397,242.1059 194.4805,241.2171 193.7373,240.3971 192.9174,239.654 192.0286,238.9948 191.0794,238.4259 190.079,237.9527 189.0371,237.5799 187.9637,237.3111 186.8691,237.1487 185.7638,237.0944 184.6585,237.1487 183.5639,237.3111 182.4904,237.5799 181.4485,237.9527 180.4482,238.4259 179.499,238.9948 178.6102,239.654 177.7902,240.3971 177.0471,241.2171"/>
    <polygon points="175.2848,236.2008 175.3529,235.7416 175.3756,235.278 175.3529,234.8144 175.2848,234.3553 175.172,233.905 175.0156,233.4679 174.8171,233.0483 174.5785,232.6502 174.302,232.2774 173.9903,231.9334 173.6463,231.6217 173.2735,231.3452 172.8754,231.1066 172.4558,230.9081 172.0187,230.7517 171.5684,230.6389 171.1093,230.5708 170.6457,230.5481 170.1821,230.5708 169.7229,230.6389 169.2726,230.7517 168.8356,230.9081 168.416,231.1066 168.0178,231.3452 167.645,231.6217 167.3011,231.9334 166.9894,232.2774 166.7128,232.6502 166.4742,233.0483 166.2757,233.4679 166.1194,233.905 166.0066,234.3553 165.9385,234.8144 165.9157,235.278 165.9385,235.7416 166.0066,236.2008 166.1194,236.6511 166.2757,237.0881 166.4742,237.5077 166.7128,237.9059 166.9894,238.2787 167.3011,238.6226 167.645,238.9343 168.0178,239.2109 168.416,239.4495 168.8356,239.648 169.2726,239.8043 169.7229,239.9171 170.1821,239.9852 170.6457,240.008 171.1093,239.9852 171.5684,239.9171 172.0187,239.8043 172.4558,239.648 172.8754,239.4495 173.2735,239.2109 173.6463,238.9343 173.9903,238.6226 174.302,238.2787 174.5785,237.9059 174.8171,237.5077 175.0156,237.0881 175.172,236.6511"/>
    <polygon points="252.69,250.2414 251.5954,250.4037 250.5219,250.6726 249.48,251.0454 248.4797,251.5185 247.5305,252.0875 246.6417,252.7467 245.8217,253.4898 245.0786,254.3097 244.4194,255.1986 243.8505,256.1477 243.3773,257.1481 243.0045,258.19 242.7356,259.2635 242.5733,260.3581 242.519,261.4634 242.5733,262.5686 242.7356,263.6633 243.0045,264.7367 243.3773,265.7786 243.8505,266.779 244.4194,267.7281 245.0786,268.617 245.8217,269.4369 246.6417,270.1801 247.5305,270.8393 248.4797,271.4082 249.48,271.8813 250.5219,272.2541 251.5954,272.523 252.69,272.6854 253.7953,272.7397 254.9005,272.6854 255.9952,272.523 257.0686,272.2541 258.1105,271.8813 259.1109,271.4082 260.0601,270.8393 260.9489,270.1801 261.7688,269.4369 262.512,268.617 263.1712,267.7281 263.7401,266.779 264.2132,265.7786 264.586,264.7367 264.8549,263.6633 265.0173,262.5686 265.0716,261.4634 265.0173,260.3581 264.8549,259.2635 264.586,258.19 264.2132,257.1481 263.7401,256.1477 263.1712,255.1986 262.512,254.3097 261.7688,253.4898 260.9489,252.7467 260.0601,252.0875 259.1109,251.5185 258.1105,251.0454 257.0686,250.6726 255.9952,250.4037 254.9005,250.2414 253.7953,250.1871"/>
    <polygon points="238.514,231.511 239.3197,229.2593 239.9007,226.9395 240.2516,224.5739 240.369,222.1854 240.2516,219.7968 239.9007,217.4312 239.3197,215.1114 238.514,212.8598 237.4915,210.6979 236.2621,208.6467 234.8375,206.7258 233.2315,204.9539 231.4595,203.3479 229.5387,201.9233 227.4875,200.6938 225.3256,199.6714 223.0739,198.8657 220.7542,198.2846 218.3886,197.9337 216.0,197.8164 213.6114,197.9337 211.2458,198.2846 208.9261,198.8657 206.6744,199.6714 204.5125,200.6938 202.4613,201.9233 200.5405,203.3479 198.7685,204.9539 197.1625,206.7258 195.7379,208.6467 194.5085,210.6979 193.486,212.8598 192.6803,215.1114 192.0993,217.4312 191.7484,219.7968 191.631,222.1854 191.7484,224.5739 192.0993,226.9395 192.6803,229.2593 193.486,231.511 194.5085,233.6728 195.7379,235.724 197.1625,237.6449 198.7685,239.4168 200.5405,241.0228 202.4613,242.4474 204.5125,243.6769 206.6744,244.6994 208.9261,245.505 211.2458,246.0861 213.6114,246.437 216.0,246.5543 218.3886,246.437 220.7542,246.0861 223.0739,245.505 225.3256,244.6994 227.4875,243.6769 229.5387,242.4474 231.4595,241.0228 233.2315,239.4168 234.8375,237.6449 236.2621,235.724 237.4915,233.6728"/>
    <polygon points="219.7173,182.9074 219.663,181.8021 219.5006,180.7075 219.2317,179.634 218.8589,178.5921 218.3858,177.5917 217.8169,176.6426 217.1576,175.7537 216.4145,174.9338 215.5946,174.1907 214.7057,173.5314 213.7566,172.9625 212.7562,172.4894 211.7143,172.1166 210.6408,171.8477 209.5462,171.6853 208.4409,171.631 207.3357,171.6853 206.241,171.8477 205.1676,172.1166 204.1257,172.4894 203.1253,172.9625 202.1762,173.5314 201.2873,174.1907 200.4674,174.9338 199.7242,175.7537 199.065,176.6426 198.4961,177.5917 198.023,178.5921 197.6502,179.634 197.3813,180.7075 197.2189,181.8021 197.1646,182.9074 197.2189,184.0126 197.3813,185.1073 197.6502,186.1807 198.023,187.2226 198.4961,188.223 199.065,189.1721 199.7242,190.061 200.4674,190.8809 201.2873,191.6241 202.1762,192.2833 203.1253,192.8522 204.1257,193.3253 205.1676,193.6981 206.241,193.967 207.3357,194.1294 208.4409,194.1837 209.5462,194.1294 210.6408,193.967 211.7143,193.6981 212.7562,193.3253 213.7566,192.8522 214.7057,192.2833 215.5946,191.6241 216.4145,190.8809 217.1576,190.061 217.8169,189.1721 218.3858,188.223 218.8589,187.2226 219.2317,186.1807 219.5006,185.1073 219.663,184.0126"/>
    <polygon points="242.1777,172.0146 242.3401,170.92 242.3944,169.8147 242.3401,168.7094 242.1777,167.6148 241.9089,166.5413 241.5361,165.4994 241.0629,164.4991 240.494,163.5499 239.8348,162.6611 239.0917,161.8411 238.2717,161.098 237.3829,160.4388 236.4337,159.8699 235.4334,159.3967 234.3914,159.0239 233.318,158.7551 232.2234,158.5927 231.1181,158.5384 230.0128,158.5927 228.9182,158.7551 227.8448,159.0239 226.8029,159.3967 225.8025,159.8699 224.8533,160.4388 223.9645,161.098 223.1446,161.8411 222.4014,162.6611 221.7422,163.5499 221.1733,164.4991 220.7002,165.4994 220.3274,166.5413 220.0585,167.6148 219.8961,168.7094 219.8418,169.8147 219.8961,170.92 220.0585,172.0146 220.3274,173.088 220.7002,174.1299 221.1733,175.1303 221.7422,176.0795 222.4014,176.9683 223.1446,177.7882 223.9645,178.5314 224.8533,179.1906 225.8025,179.7595 226.8029,180.2326 227.8448,180.6054 228.9182,180.8743 230.0128,181.0367 231.1181,181.091 232.2234,181.0367 233.318,180.8743 234.3914,180.6054 235.4334,180.2326 236.4337,179.7595 237.3829,179.1906 238.2717,178.5314 239.0917,177.7882 239.8348,176.9683 240.494,176.0795 241.0629,175.1303 241.5361,174.1299 241.9089,173.088"/>
    <polygon points="252.6436,172.4282 252.2454,172.1896 251.8258,171.9911 251.3888,171.8347 250.9385,171.7219 250.4794,171.6538 250.0157,171.631 249.5521,171.6538 249.093,171.7219 248.6427,171.8347 248.2057,171.9911 247.7861,172.1896 247.3879,172.4282 247.0151,172.7047 246.6712,173.0164 246.3594,173.3604 246.0829,173.7332 245.8443,174.1313 245.6458,174.5509 245.4894,174.988 245.3767,175.4383 245.3086,175.8974 245.2858,176.361 245.3086,176.8246 245.3767,177.2838 245.4894,177.7341 245.6458,178.1711 245.8443,178.5907 246.0829,178.9889 246.3594,179.3617 246.6712,179.7056 247.0151,180.0173 247.3879,180.2939 247.7861,180.5325 248.2057,180.7309 248.6427,180.8873 249.093,181.0001 249.5521,181.0682 250.0157,181.091 250.4794,181.0682 250.9385,181.0001 251.3888,180.8873 251.8258,180.7309 252.2454,180.5325 252.6436,180.2939 253.0164,180.0173 253.3603,179.7056 253.6721,179.3617 253.9486,178.9889 254.1872,178.5907 254.3857,178.1711 254.542,177.7341 254.6548,177.2838 254.7229,176.8246 254.7457,176.361 254.7229,175.8974 254.6548,175.4383 254.542,174.988 254.3857,174.5509 254.1872,174.1313 253.9486,173.7332 253.6721,173.3604 253.3603,173.0164 253.0164,172.7047"/>
    <polygon points="253.0164,166.9247 253.3603,166.613 253.6721,166.269 253.9486,165.8962 254.1872,165.498 254.3857,165.0784 254.542,164.6414 254.6548,164.1911 254.7229,163.732 254.7457,163.2684 254.7229,162.8047 254.6548,162.3456 254.542,161.8953 254.3857,161.4583 254.1872,161.0387 253.9486,160.6405 253.6721,160.2677 253.3603,159.9238 253.0164,159.612 252.6436,159.3355 252.2454,159.0969 251.8258,158.8984 251.3888,158.7421 250.9385,158.6293 250.4794,158.5612 250.0157,158.5384 249.5521,158.5612 249.093,158.6293 248.6427,158.7421 248.2057,158.8984 247.7861,159.0969 247.3879,159.3355 247.0151,159.612 246.6712,159.9238 246.3594,160.2677 246.0829,160.6405 245.8443,161.0387 245.6458,161.4583 245.4894,161.8953 245.3767,162.3456 245.3086,162.8047 245.2858,163.2684 245.3086,163.732 245.3767,164.1911 245.4894,164.6414 245.6458,165.0784 245.8443,165.498 246.0829,165.8962 246.3594,166.269 246.6712,166.613 247.0151,166.9247 247.3879,167.2012 247.7861,167.4398 248.2057,167.6383 248.6427,167.7947 249.093,167.9074 249.5521,167.9756 250.0157,167.9983 250.4794,167.9756 250.9385,167.9074 251.3888,167.7947 251.8258,167.6383 252.2454,167.4398 252.6436,167.2012"/>
    <polygon points="248.2057,154.5456 248.6427,154.702 249.093,154.8148 249.5521,154.8829 250.0157,154.9057 250.4794,154.8829 250.9385,154.8148 251.3888,154.702 251.8258,154.5456 252.2454,154.3472 252.6436,154.1085 253.0164,153.832 253.3603,153.5203 253.6721,153.1763 253.9486,152.8035 254.1872,152.4054 254.3857,151.9858 254.542,151.5487 254.6548,151.0985 254.7229,150.6393 254.7457,150.1757 254.7229,149.7121 254.6548,149.2529 254.542,148.8026 254.3857,148.3656 254.1872,147.946 253.9486,147.5479 253.6721,147.175 253.3603,146.8311 253.0164,146.5194 252.6436,146.2429 252.2454,146.0042 251.8258,145.8058 251.3888,145.6494 250.9385,145.5366 250.4794,145.4685 250.0157,145.4457 249.5521,145.4685 249.093,145.5366 248.6427,145.6494 248.2057,145.8058 247.7861,146.0042 247.3879,146.2429 247.0151,146.5194 246.6712,146.8311 246.3594,147.175 246.0829,147.5479 245.8443,147.946 245.6458,148.3656 245.4894,148.8026 245.3767,149.2529 245.3086,149.7121 245.2858,150.1757 245.3086,150.6393 245.3767,151.0985 245.4894,151.5487 245.6458,151.9858 245.8443,152.4054 246.0829,152.8035 246.3594,153.1763 246.6712,153.5203 247.0151,153.832 247.3879,154.1085 247.7861,154.3472"/>
    <polygon points="228.7116,145.6494 228.2614,145.5366 227.8022,145.4685 227.3386,145.4457 226.875,145.4685 226.4158,145.5366 225.9655,145.6494 225.5285,145.8058 225.1089,146.0042 224.7108,146.2429 224.3379,146.5194 223.994,146.8311 223.6823,147.175 223.4058,147.5479 223.1671,147.946 222.9687,148.3656 222.8123,148.8026 222.6995,149.2529 222.6314,149.7121 222.6086,150.1757 222.6314,150.6393 222.6995,151.0985 222.8123,151.5487 222.9687,151.9858 223.1671,152.4054 223.4058,152.8035 223.6823,153.1763 223.994,153.5203 224.3379,153.832 224.7108,154.1085 225.1089,154.3472 225.5285,154.5456 225.9655,154.702 226.4158,154.8148 226.875,154.8829 227.3386,154.9057 227.8022,154.8829 228.2614,154.8148 228.7116,154.702 229.1487,154.5456 229.5683,154.3472 229.9664,154.1085 230.3392,153.832 230.6832,153.5203 230.9949,153.1763 231.2714,152.8035 231.51,152.4054 231.7085,151.9858 231.8649,151.5487 231.9777,151.0985 232.0458,150.6393 232.0686,150.1757 232.0458,149.7121 231.9777,149.2529 231.8649,148.8026 231.7085,148.3656 231.51,147.946 231.2714,147.5479 230.9949,147.175 230.6832,146.8311 230.3392,146.5194 229.9664,146.2429 229.5683,146.0042 229.1487,145.8058"/>
    <polygon points="214.7057,147.3461 213.7566,146.7772 212.7562,146.3041 211.7143,145.9313 210.6408,145.6624 209.5462,145.5 208.4409,145.4457 207.3357,145.5 206.241,145.6624 205.1676,145.9313 204.1257,146.3041 203.1253,146.7772 202.1762,147.3461 201.2873,148.0053 200.4674,148.7485 199.7242,149.5684 199.065,150.4572 198.4961,151.4064 198.023,152.4068 197.6502,153.4487 197.3813,154.5221 197.2189,155.6167 197.1646,156.722 197.2189,157.8273 197.3813,158.9219 197.6502,159.9954 198.023,161.0373 198.4961,162.0376 199.065,162.9868 199.7242,163.8756 200.4674,164.6956 201.2873,165.4387 202.1762,166.0979 203.1253,166.6668 204.1257,167.14 205.1676,167.5128 206.241,167.7817 207.3357,167.944 208.4409,167.9983 209.5462,167.944 210.6408,167.7817 211.7143,167.5128 212.7562,167.14 213.7566,166.6668 214.7057,166.0979 215.5946,165.4387 216.4145,164.6956 217.1576,163.8756 217.8169,162.9868 218.3858,162.0376 218.8589,161.0373 219.2317,159.9954 219.5006,158.9219 219.663,157.8273 219.7173,156.722 219.663,155.6167 219.5006,154.5221 219.2317,153.4487 218.8589,152.4068 218.3858,151.4064 217.8169,150.4572 217.1576,149.5684 216.4145,148.7485 215.5946,148.0053"/>
    <polygon points="199.9542,136.6194 199.9314,137.083 199.9542,137.5466 200.0223,138.0058 200.1351,138.4561 200.2915,138.8931 200.49,139.3127 200.7286,139.7109 201.0051,140.0837 201.3168,140.4276 201.6608,140.7393 202.0336,141.0158 202.4317,141.2545 202.8513,141.4529 203.2884,141.6093 203.7386,141.7221 204.1978,141.7902 204.6614,141.813 205.125,141.7902 205.5842,141.7221 206.0345,141.6093 206.4715,141.4529 206.8911,141.2545 207.2892,141.0158 207.6621,140.7393 208.006,140.4276 208.3177,140.0837 208.5942,139.7109 208.8329,139.3127 209.0313,138.8931 209.1877,138.4561 209.3005,138.0058 209.3686,137.5466 209.3914,137.083 209.3686,136.6194 209.3005,136.1602 209.1877,135.71 209.0313,135.2729 208.8329,134.8533 208.5942,134.4552 208.3177,134.0824 208.006,133.7384 207.6621,133.4267 207.2892,133.1502 206.8911,132.9116 206.4715,132.7131 206.0345,132.5567 205.5842,132.4439 205.125,132.3758 204.6614,132.353 204.1978,132.3758 203.7386,132.4439 203.2884,132.5567 202.8513,132.7131 202.4317,132.9116 202.0336,133.1502 201.6608,133.4267 201.3168,133.7384 201.0051,134.0824 200.7286,134.4552 200.49,134.8533 200.2915,135.2729 200.1351,135.71 200.0223,136.1602"/>
  </g>
</svg>
