<?xml version="1.0" encoding="utf-8" ?>
<svg xmlns="http://www.w3.org/2000/svg" xmlns:cc="http://creativecommons.org/ns" xmlns:dc="http://purl.org/dc/elements/1.1/" xmlns:ev="http://www.w3.org/2001/xml-events" xmlns:inkscape="http://www.inkscape.org/namespaces/inkscape" xmlns:rdf="http://www.w3.org/1999/02/22-rdf-syntax-ns" xmlns:sodipodi="http://sodipodi.sourceforge.net/DTD/sodipodi-0.dtd" xmlns:xlink="http://www.w3.org/1999/xlink" baseProfile="tiny" height="15.875cm" version="1.2" viewBox="0 0 432.0 600.0" width="11.43cm">
  <metadata>
    <rdf:RDF>
      <cc:Work>
        <dc:format>image/svg+xml</dc:format>
        <dc:source>vsk save -s 234 -c hex-grid/config/bubble-coasters-2.json /Users/tobin/src/fabian/plotting/fabian-plotting/hex-grid/sketch_hex_grid.py</dc:source>
        <dc:date>2023-11-11T11:30:23.622871</dc:date>
      </cc:Work>
    </rdf:RDF>
  </metadata>
  <defs/>
  <g fill="none" id="layer1" inkscape:groupmode="layer" inkscape:label="1" stroke="#000000" stroke-width="0.7559" style="display:inline">
    <polygon points="284.1804,296.0475 286.2316,294.8181 288.1524,293.3935 289.9244,291.7875 291.5304,290.0155 292.955,288.0947 294.1844,286.0435 295.2069,283.8816 296.0126,281.63 296.5936,279.3102 296.9445,276.9446 297.0619,274.556 296.9445,272.1675 296.5936,269.8019 296.0126,267.4821 295.2069,265.2304 294.1844,263.0686 292.955,261.0174 291.5304,259.0965 289.9244,257.3246 288.1524,255.7186 286.2316,254.294 284.1804,253.0645 282.0185,252.042 279.7669,251.2364 277.4471,250.6553 275.0815,250.3044 272.6929,250.1871 270.3043,250.3044 267.9388,250.6553 265.619,251.2364 263.3673,252.042 261.2055,253.0645 259.1542,254.294 257.2334,255.7186 255.4614,257.3246 253.8554,259.0965 252.4309,261.0174 251.2014,263.0686 250.1789,265.2304 249.3733,267.4821 248.7922,269.8019 248.4413,272.1675 248.3239,274.556 248.4413,276.9446 248.7922,279.3102 249.3733,281.63 250.1789,283.8816 251.2014,286.0435 252.4309,288.0947 253.8554,290.0155 255.4614,291.7875 257.2334,293.3935 259.1542,294.8181 261.2055,296.0475 263.3673,297.07 265.619,297.8757 267.9388,298.4568 270.3043,298.8077 272.6929,298.925 275.0815,298.8077 277.4471,298.4568 279.7669,297.8757 282.0185,297.07"/>
    <polygon points="276.3559,312.7288 276.1935,311.6341 275.9246,310.5607 275.5518,309.5188 275.0787,308.5184 274.5098,307.5693 273.8506,306.6804 273.1074,305.8605 272.2875,305.1173 271.3986,304.4581 270.4495,303.8892 269.4491,303.4161 268.4072,303.0433 267.3338,302.7744 266.2391,302.612 265.1339,302.5577 264.0286,302.612 262.934,302.7744 261.8605,303.0433 260.8186,303.4161 259.8182,303.8892 258.8691,304.4581 257.9802,305.1173 257.1603,305.8605 256.4172,306.6804 255.758,307.5693 255.189,308.5184 254.7159,309.5188 254.3431,310.5607 254.0742,311.6341 253.9119,312.7288 253.8576,313.834 253.9119,314.9393 254.0742,316.0339 254.3431,317.1074 254.7159,318.1493 255.189,319.1496 255.758,320.0988 256.4172,320.9876 257.1603,321.8076 257.9802,322.5507 258.8691,323.2099 259.8182,323.7788 260.8186,324.252 261.8605,324.6248 262.934,324.8937 264.0286,325.056 265.1339,325.1103 266.2391,325.056 267.3338,324.8937 268.4072,324.6248 269.4491,324.252 270.4495,323.7788 271.3986,323.2099 272.2875,322.5507 273.1074,321.8076 273.8506,320.9876 274.5098,320.0988 275.0787,319.1496 275.5518,318.1493 275.9246,317.1074 276.1935,316.0339 276.3559,314.9393 276.4102,313.834"/>
    <polygon points="268.4072,329.2286 267.3338,328.9597 266.2391,328.7974 265.1339,328.7431 264.0286,328.7974 262.934,328.9597 261.8605,329.2286 260.8186,329.6014 259.8182,330.0746 258.8691,330.6435 257.9802,331.3027 257.1603,332.0458 256.4172,332.8658 255.758,333.7546 255.189,334.7038 254.7159,335.7041 254.3431,336.746 254.0742,337.8195 253.9119,338.9141 253.8576,340.0194 253.9119,341.1246 254.0742,342.2193 254.3431,343.2927 254.7159,344.3346 255.189,345.335 255.758,346.2841 256.4172,347.173 257.1603,347.9929 257.9802,348.7361 258.8691,349.3953 259.8182,349.9642 260.8186,350.4373 261.8605,350.8101 262.934,351.079 264.0286,351.2414 265.1339,351.2957 266.2391,351.2414 267.3338,351.079 268.4072,350.8101 269.4491,350.4373 270.4495,349.9642 271.3986,349.3953 272.2875,348.7361 273.1074,347.9929 273.8506,347.173 274.5098,346.2841 275.0787,345.335 275.5518,344.3346 275.9246,343.2927 276.1935,342.2193 276.3559,341.1246 276.4102,340.0194 276.3559,338.9141 276.1935,337.8195 275.9246,336.746 275.5518,335.7041 275.0787,334.7038 274.5098,333.7546 273.8506,332.8658 273.1074,332.0458 272.2875,331.3027 271.3986,330.6435 270.4495,330.0746 269.4491,329.6014"/>
    <polygon points="288.5578,347.9387 288.4014,348.3758 288.203,348.7954 287.9643,349.1935 287.6878,349.5664 287.3761,349.9103 287.0322,350.222 286.6593,350.4985 286.2612,350.7372 285.8416,350.9356 285.4045,351.092 284.9543,351.2048 284.4951,351.2729 284.0315,351.2957 283.5679,351.2729 283.1087,351.2048 282.6585,351.092 282.2214,350.9356 281.8018,350.7372 281.4037,350.4985 281.0308,350.222 280.6869,349.9103 280.3752,349.5664 280.0987,349.1935 279.86,348.7954 279.6616,348.3758 279.5052,347.9387 279.3924,347.4885 279.3243,347.0293 279.3015,346.5657 279.3243,346.1021 279.3924,345.6429 279.5052,345.1927 279.6616,344.7556 279.86,344.336 280.0987,343.9379 280.3752,343.565 280.6869,343.2211 281.0308,342.9094 281.4037,342.6329 281.8018,342.3942 282.2214,342.1958 282.6585,342.0394 283.1087,341.9266 283.5679,341.8585 284.0315,341.8357 284.4951,341.8585 284.9543,341.9266 285.4045,342.0394 285.8416,342.1958 286.2612,342.3942 286.6593,342.6329 287.0322,342.9094 287.3761,343.2211 287.6878,343.565 287.9643,343.9379 288.203,344.336 288.4014,344.7556 288.5578,345.1927 288.6706,345.6429 288.7387,346.1021 288.7615,346.5657 288.7387,347.0293 288.6706,347.4885"/>
    <polygon points="288.7387,373.2147 288.6706,373.6738 288.5578,374.1241 288.4014,374.5611 288.203,374.9807 287.9643,375.3789 287.6878,375.7517 287.3761,376.0956 287.0322,376.4074 286.6593,376.6839 286.2612,376.9225 285.8416,377.121 285.4045,377.2773 284.9543,377.3901 284.4951,377.4582 284.0315,377.481 283.5679,377.4582 283.1087,377.3901 282.6585,377.2773 282.2214,377.121 281.8018,376.9225 281.4037,376.6839 281.0308,376.4074 280.6869,376.0956 280.3752,375.7517 280.0987,375.3789 279.86,374.9807 279.6616,374.5611 279.5052,374.1241 279.3924,373.6738 279.3243,373.2147 279.3015,372.751 279.3243,372.2874 279.3924,371.8283 279.5052,371.378 279.6616,370.941 279.86,370.5213 280.0987,370.1232 280.3752,369.7504 280.6869,369.4064 281.0308,369.0947 281.4037,368.8182 281.8018,368.5796 282.2214,368.3811 282.6585,368.2247 283.1087,368.1119 283.5679,368.0438 284.0315,368.0211 284.4951,368.0438 284.9543,368.1119 285.4045,368.2247 285.8416,368.3811 286.2612,368.5796 286.6593,368.8182 287.0322,369.0947 287.3761,369.4064 287.6878,369.7504 287.9643,370.1232 288.203,370.5213 288.4014,370.941 288.5578,371.378 288.6706,371.8283 288.7387,372.2874 288.7615,372.751"/>
    <polygon points="279.86,388.0734 280.0987,388.4715 280.3752,388.8444 280.6869,389.1883 281.0308,389.5 281.4037,389.7765 281.8018,390.0152 282.2214,390.2136 282.6585,390.37 283.1087,390.4828 283.5679,390.5509 284.0315,390.5737 284.4951,390.5509 284.9543,390.4828 285.4045,390.37 285.8416,390.2136 286.2612,390.0152 286.6593,389.7765 287.0322,389.5 287.3761,389.1883 287.6878,388.8444 287.9643,388.4715 288.203,388.0734 288.4014,387.6538 288.5578,387.2167 288.6706,386.7665 288.7387,386.3073 288.7615,385.8437 288.7387,385.3801 288.6706,384.9209 288.5578,384.4707 288.4014,384.0336 288.203,383.614 287.9643,383.2159 287.6878,382.843 287.3761,382.4991 287.0322,382.1874 286.6593,381.9109 286.2612,381.6722 285.8416,381.4738 285.4045,381.3174 284.9543,381.2046 284.4951,381.1365 284.0315,381.1137 283.5679,381.1365 283.1087,381.2046 282.6585,381.3174 282.2214,381.4738 281.8018,381.6722 281.4037,381.9109 281.0308,382.1874 280.6869,382.4991 280.3752,382.843 280.0987,383.2159 279.86,383.614 279.6616,384.0336 279.5052,384.4707 279.3924,384.9209 279.3243,385.3801 279.3015,385.8437 279.3243,386.3073 279.3924,386.7665 279.5052,387.2167 279.6616,387.6538"/>
    <polygon points="281.8018,403.1078 282.2214,403.3063 282.6585,403.4627 283.1087,403.5755 283.5679,403.6436 284.0315,403.6663 284.4951,403.6436 284.9543,403.5755 285.4045,403.4627 285.8416,403.3063 286.2612,403.1078 286.6593,402.8692 287.0322,402.5927 287.3761,402.281 287.6878,401.937 287.9643,401.5642 288.203,401.1661 288.4014,400.7465 288.5578,400.3094 288.6706,399.8591 288.7387,399.4 288.7615,398.9364 288.7387,398.4728 288.6706,398.0136 288.5578,397.5633 288.4014,397.1263 288.203,396.7067 287.9643,396.3085 287.6878,395.9357 287.3761,395.5918 287.0322,395.2801 286.6593,395.0035 286.2612,394.7649 285.8416,394.5664 285.4045,394.4101 284.9543,394.2973 284.4951,394.2292 284.0315,394.2064 283.5679,394.2292 283.1087,394.2973 282.6585,394.4101 282.2214,394.5664 281.8018,394.7649 281.4037,395.0035 281.0308,395.2801 280.6869,395.5918 280.3752,395.9357 280.0987,396.3085 279.86,396.7067 279.6616,397.1263 279.5052,397.5633 279.3924,398.0136 279.3243,398.4728 279.3015,398.9364 279.3243,399.4 279.3924,399.8591 279.5052,400.3094 279.6616,400.7465 279.86,401.1661 280.0987,401.5642 280.3752,401.937 280.6869,402.281 281.0308,402.5927 281.4037,402.8692"/>
    <polygon points="258.3537,382.1874 258.7265,381.9109 259.1246,381.6722 259.5442,381.4738 259.9813,381.3174 260.4316,381.2046 260.8907,381.1365 261.3543,381.1137 261.8179,381.1365 262.2771,381.2046 262.7274,381.3174 263.1644,381.4738 263.584,381.6722 263.9822,381.9109 264.355,382.1874 264.6989,382.4991 265.0106,382.843 265.2872,383.2159 265.5258,383.614 265.7243,384.0336 265.8806,384.4707 265.9934,384.9209 266.0615,385.3801 266.0843,385.8437 266.0615,386.3073 265.9934,386.7665 265.8806,387.2167 265.7243,387.6538 265.5258,388.0734 265.2872,388.4715 265.0106,388.8444 264.6989,389.1883 264.355,389.5 263.9822,389.7765 263.584,390.0152 263.1644,390.2136 262.7274,390.37 262.2771,390.4828 261.8179,390.5509 261.3543,390.5737 260.8907,390.5509 260.4316,390.4828 259.9813,390.37 259.5442,390.2136 259.1246,390.0152 258.7265,389.7765 258.3537,389.5 258.0097,389.1883 257.698,388.8444 257.4215,388.4715 257.1829,388.0734 256.9844,387.6538 256.828,387.2167 256.7152,386.7665 256.6471,386.3073 256.6244,385.8437 256.6471,385.3801 256.7152,384.9209 256.828,384.4707 256.9844,384.0336 257.1829,383.614 257.4215,383.2159 257.698,382.843 258.0097,382.4991"/>
    <polygon points="257.9802,357.488 258.8691,356.8288 259.8182,356.2599 260.8186,355.7868 261.8605,355.4139 262.934,355.1451 264.0286,354.9827 265.1339,354.9284 266.2391,354.9827 267.3338,355.1451 268.4072,355.4139 269.4491,355.7868 270.4495,356.2599 271.3986,356.8288 272.2875,357.488 273.1074,358.2311 273.8506,359.0511 274.5098,359.9399 275.0787,360.8891 275.5518,361.8894 275.9246,362.9314 276.1935,364.0048 276.3559,365.0994 276.4102,366.2047 276.3559,367.31 276.1935,368.4046 275.9246,369.478 275.5518,370.52 275.0787,371.5203 274.5098,372.4695 273.8506,373.3583 273.1074,374.1783 272.2875,374.9214 271.3986,375.5806 270.4495,376.1495 269.4491,376.6226 268.4072,376.9955 267.3338,377.2643 266.2391,377.4267 265.1339,377.481 264.0286,377.4267 262.934,377.2643 261.8605,376.9955 260.8186,376.6226 259.8182,376.1495 258.8691,375.5806 257.9802,374.9214 257.1603,374.1783 256.4172,373.3583 255.758,372.4695 255.189,371.5203 254.7159,370.52 254.3431,369.478 254.0742,368.4046 253.9119,367.31 253.8576,366.2047 253.9119,365.0994 254.0742,364.0048 254.3431,362.9314 254.7159,361.8894 255.189,360.8891 255.758,359.9399 256.4172,359.0511 257.1603,358.2311"/>
    <polygon points="245.73,337.7175 246.7719,337.3446 247.7723,336.8715 248.7215,336.3026 249.6103,335.6434 250.4302,334.9003 251.1734,334.0803 251.8326,333.1915 252.4015,332.2423 252.8746,331.242 253.2474,330.2 253.5163,329.1266 253.6787,328.032 253.733,326.9267 253.6787,325.8214 253.5163,324.7268 253.2474,323.6534 252.8746,322.6114 252.4015,321.6111 251.8326,320.6619 251.1734,319.7731 250.4302,318.9531 249.6103,318.21 248.7215,317.5508 247.7723,316.9819 246.7719,316.5087 245.73,316.1359 244.6566,315.8671 243.562,315.7047 242.4567,315.6504 241.3514,315.7047 240.2568,315.8671 239.1834,316.1359 238.1414,316.5087 237.1411,316.9819 236.1919,317.5508 235.3031,318.21 234.4831,318.9531 233.74,319.7731 233.0808,320.6619 232.5119,321.6111 232.0387,322.6114 231.6659,323.6534 231.3971,324.7268 231.2347,325.8214 231.1804,326.9267 231.2347,328.032 231.3971,329.1266 231.6659,330.2 232.0387,331.242 232.5119,332.2423 233.0808,333.1915 233.74,334.0803 234.4831,334.9003 235.3031,335.6434 236.1919,336.3026 237.1411,336.8715 238.1414,337.3446 239.1834,337.7175 240.2568,337.9863 241.3514,338.1487 242.4567,338.203 243.562,338.1487 244.6566,337.9863"/>
    <polygon points="222.6995,339.0966 222.6314,339.5557 222.6086,340.0194 222.6314,340.483 222.6995,340.9421 222.8123,341.3924 222.9687,341.8294 223.1671,342.2491 223.4058,342.6472 223.6823,343.02 223.994,343.364 224.3379,343.6757 224.7108,343.9522 225.1089,344.1908 225.5285,344.3893 225.9655,344.5457 226.4158,344.6585 226.875,344.7266 227.3386,344.7493 227.8022,344.7266 228.2614,344.6585 228.7116,344.5457 229.1487,344.3893 229.5683,344.1908 229.9664,343.9522 230.3392,343.6757 230.6832,343.364 230.9949,343.02 231.2714,342.6472 231.51,342.2491 231.7085,341.8294 231.8649,341.3924 231.9777,340.9421 232.0458,340.483 232.0686,340.0194 232.0458,339.5557 231.9777,339.0966 231.8649,338.6463 231.7085,338.2093 231.51,337.7897 231.2714,337.3915 230.9949,337.0187 230.6832,336.6748 230.3392,336.363 229.9664,336.0865 229.5683,335.8479 229.1487,335.6494 228.7116,335.4931 228.2614,335.3803 227.8022,335.3122 227.3386,335.2894 226.875,335.3122 226.4158,335.3803 225.9655,335.4931 225.5285,335.6494 225.1089,335.8479 224.7108,336.0865 224.3379,336.363 223.994,336.6748 223.6823,337.0187 223.4058,337.3915 223.1671,337.7897 222.9687,338.2093 222.8123,338.6463"/>
    <polygon points="228.7116,318.3603 229.1487,318.204 229.5683,318.0055 229.9664,317.7669 230.3392,317.4903 230.6832,317.1786 230.9949,316.8347 231.2714,316.4619 231.51,316.0637 231.7085,315.6441 231.8649,315.2071 231.9777,314.7568 232.0458,314.2976 232.0686,313.834 232.0458,313.3704 231.9777,312.9113 231.8649,312.461 231.7085,312.0239 231.51,311.6043 231.2714,311.2062 230.9949,310.8334 230.6832,310.4894 230.3392,310.1777 229.9664,309.9012 229.5683,309.6626 229.1487,309.4641 228.7116,309.3077 228.2614,309.1949 227.8022,309.1268 227.3386,309.1041 226.875,309.1268 226.4158,309.1949 225.9655,309.3077 225.5285,309.4641 225.1089,309.6626 224.7108,309.9012 224.3379,310.1777 223.994,310.4894 223.6823,310.8334 223.4058,311.2062 223.1671,311.6043 222.9687,312.0239 222.8123,312.461 222.6995,312.9113 222.6314,313.3704 222.6086,313.834 222.6314,314.2976 222.6995,314.7568 222.8123,315.2071 222.9687,315.6441 223.1671,316.0637 223.4058,316.4619 223.6823,316.8347 223.994,317.1786 224.3379,317.4903 224.7108,317.7669 225.1089,318.0055 225.5285,318.204 225.9655,318.3603 226.4158,318.4731 226.875,318.5412 227.3386,318.564 227.8022,318.5412 228.2614,318.4731"/>
    <polygon points="237.7544,289.5559 237.3041,289.6687 236.8671,289.8251 236.4475,290.0236 236.0493,290.2622 235.6765,290.5387 235.3326,290.8504 235.0208,291.1944 234.7443,291.5672 234.5057,291.9653 234.3072,292.3849 234.1509,292.822 234.0381,293.2723 233.97,293.7314 233.9472,294.195 233.97,294.6586 234.0381,295.1178 234.1509,295.5681 234.3072,296.0051 234.5057,296.4247 234.7443,296.8229 235.0208,297.1957 235.3326,297.5396 235.6765,297.8513 236.0493,298.1279 236.4475,298.3665 236.8671,298.565 237.3041,298.7213 237.7544,298.8341 238.2135,298.9022 238.6772,298.925 239.1408,298.9022 239.5999,298.8341 240.0502,298.7213 240.4872,298.565 240.9069,298.3665 241.305,298.1279 241.6778,297.8513 242.0218,297.5396 242.3335,297.1957 242.61,296.8229 242.8486,296.4247 243.0471,296.0051 243.2035,295.5681 243.3163,295.1178 243.3844,294.6586 243.4071,294.195 243.3844,293.7314 243.3163,293.2723 243.2035,292.822 243.0471,292.3849 242.8486,291.9653 242.61,291.5672 242.3335,291.1944 242.0218,290.8504 241.6778,290.5387 241.305,290.2622 240.9069,290.0236 240.4872,289.8251 240.0502,289.6687 239.5999,289.5559 239.1408,289.4878 238.6772,289.4651 238.2135,289.4878"/>
    <polygon points="209.3616,283.3334 208.9888,284.3754 208.7199,285.4488 208.5575,286.5434 208.5032,287.6487 208.5575,288.754 208.7199,289.8486 208.9888,290.922 209.3616,291.964 209.8347,292.9643 210.4036,293.9135 211.0628,294.8023 211.806,295.6222 212.6259,296.3654 213.5147,297.0246 214.4639,297.5935 215.4643,298.0666 216.5062,298.4394 217.5796,298.7083 218.6743,298.8707 219.7795,298.925 220.8848,298.8707 221.9794,298.7083 223.0529,298.4394 224.0948,298.0666 225.0951,297.5935 226.0443,297.0246 226.9331,296.3654 227.7531,295.6222 228.4962,294.8023 229.1554,293.9135 229.7243,292.9643 230.1975,291.964 230.5703,290.922 230.8392,289.8486 231.0015,288.754 231.0558,287.6487 231.0015,286.5434 230.8392,285.4488 230.5703,284.3754 230.1975,283.3334 229.7243,282.3331 229.1554,281.3839 228.4962,280.4951 227.7531,279.6751 226.9331,278.932 226.0443,278.2728 225.0951,277.7039 224.0948,277.2307 223.0529,276.8579 221.9794,276.5891 220.8848,276.4267 219.7795,276.3724 218.6743,276.4267 217.5796,276.5891 216.5062,276.8579 215.4643,277.2307 214.4639,277.7039 213.5147,278.2728 212.6259,278.932 211.806,279.6751 211.0628,280.4951 210.4036,281.3839 209.8347,282.3331"/>
    <polygon points="209.1877,302.1144 209.3005,301.6641 209.3686,301.205 209.3914,300.7414 209.3686,300.2777 209.3005,299.8186 209.1877,299.3683 209.0313,298.9313 208.8329,298.5117 208.5942,298.1135 208.3177,297.7407 208.006,297.3968 207.6621,297.085 207.2892,296.8085 206.8911,296.5699 206.4715,296.3714 206.0345,296.2151 205.5842,296.1023 205.125,296.0342 204.6614,296.0114 204.1978,296.0342 203.7386,296.1023 203.2884,296.2151 202.8513,296.3714 202.4317,296.5699 202.0336,296.8085 201.6608,297.085 201.3168,297.3968 201.0051,297.7407 200.7286,298.1135 200.49,298.5117 200.2915,298.9313 200.1351,299.3683 200.0223,299.8186 199.9542,300.2777 199.9314,300.7414 199.9542,301.205 200.0223,301.6641 200.1351,302.1144 200.2915,302.5514 200.49,302.9711 200.7286,303.3692 201.0051,303.742 201.3168,304.086 201.6608,304.3977 202.0336,304.6742 202.4317,304.9128 202.8513,305.1113 203.2884,305.2677 203.7386,305.3805 204.1978,305.4486 204.6614,305.4713 205.125,305.4486 205.5842,305.3805 206.0345,305.2677 206.4715,305.1113 206.8911,304.9128 207.2892,304.6742 207.6621,304.3977 208.006,304.086 208.3177,303.742 208.5942,303.3692 208.8329,302.9711 209.0313,302.5514"/>
    <polygon points="164.7528,291.7875 163.1468,290.0155 161.7222,288.0947 160.4927,286.0435 159.4703,283.8816 158.6646,281.63 158.0835,279.3102 157.7326,276.9446 157.6153,274.556 157.7326,272.1675 158.0835,269.8019 158.6646,267.4821 159.4703,265.2304 160.4927,263.0686 161.7222,261.0174 163.1468,259.0965 164.7528,257.3246 166.5247,255.7186 168.4456,254.294 170.4968,253.0645 172.6586,252.042 174.9103,251.2364 177.2301,250.6553 179.5957,250.3044 181.9843,250.1871 184.3728,250.3044 186.7384,250.6553 189.0582,251.2364 191.3099,252.042 193.4717,253.0645 195.5229,254.294 197.4438,255.7186 199.2157,257.3246 200.8217,259.0965 202.2463,261.0174 203.4758,263.0686 204.4982,265.2304 205.3039,267.4821 205.885,269.8019 206.2359,272.1675 206.3532,274.556 206.2359,276.9446 205.885,279.3102 205.3039,281.63 204.4982,283.8816 203.4758,286.0435 202.2463,288.0947 200.8217,290.0155 199.2157,291.7875 197.4438,293.3935 195.5229,294.8181 193.4717,296.0475 191.3099,297.07 189.0582,297.8757 186.7384,298.4568 184.3728,298.8077 181.9843,298.925 179.5957,298.8077 177.2301,298.4568 174.9103,297.8757 172.6586,297.07 170.4968,296.0475 168.4456,294.8181 166.5247,293.3935"/>
    <polygon points="157.0636,290.7965 158.0128,291.3655 158.9016,292.0247 159.7216,292.7678 160.4647,293.5878 161.1239,294.4766 161.6928,295.4257 162.166,296.4261 162.5388,297.468 162.8077,298.5415 162.97,299.6361 163.0243,300.7414 162.97,301.8466 162.8077,302.9413 162.5388,304.0147 162.166,305.0566 161.6928,306.057 161.1239,307.0061 160.4647,307.895 159.7216,308.7149 158.9016,309.4581 158.0128,310.1173 157.0636,310.6862 156.0633,311.1593 155.0214,311.5321 153.9479,311.801 152.8533,311.9634 151.748,312.0177 150.6428,311.9634 149.5481,311.801 148.4747,311.5321 147.4328,311.1593 146.4324,310.6862 145.4833,310.1173 144.5944,309.4581 143.7745,308.7149 143.0313,307.895 142.3721,307.0061 141.8032,306.057 141.3301,305.0566 140.9573,304.0147 140.6884,302.9413 140.526,301.8466 140.4717,300.7414 140.526,299.6361 140.6884,298.5415 140.9573,297.468 141.3301,296.4261 141.8032,295.4257 142.3721,294.4766 143.0313,293.5878 143.7745,292.7678 144.5944,292.0247 145.4833,291.3655 146.4324,290.7965 147.4328,290.3234 148.4747,289.9506 149.5481,289.6817 150.6428,289.5194 151.748,289.4651 152.8533,289.5194 153.9479,289.6817 155.0214,289.9506 156.0633,290.3234"/>
    <polygon points="151.3131,323.725 150.9692,324.0367 150.5963,324.3132 150.1982,324.5518 149.7786,324.7503 149.3415,324.9067 148.8913,325.0195 148.4321,325.0876 147.9685,325.1103 147.5049,325.0876 147.0457,325.0195 146.5955,324.9067 146.1584,324.7503 145.7388,324.5518 145.3407,324.3132 144.9678,324.0367 144.6239,323.725 144.3122,323.381 144.0357,323.0082 143.797,322.6101 143.5986,322.1904 143.4422,321.7534 143.3294,321.3031 143.2613,320.844 143.2385,320.3804 143.2613,319.9167 143.3294,319.4576 143.4422,319.0073 143.5986,318.5703 143.797,318.1507 144.0357,317.7525 144.3122,317.3797 144.6239,317.0358 144.9678,316.724 145.3407,316.4475 145.7388,316.2089 146.1584,316.0104 146.5955,315.8541 147.0457,315.7413 147.5049,315.6732 147.9685,315.6504 148.4321,315.6732 148.8913,315.7413 149.3415,315.8541 149.7786,316.0104 150.1982,316.2089 150.5963,316.4475 150.9692,316.724 151.3131,317.0358 151.6248,317.3797 151.9013,317.7525 152.14,318.1507 152.3384,318.5703 152.4948,319.0073 152.6076,319.4576 152.6757,319.9167 152.6985,320.3804 152.6757,320.844 152.6076,321.3031 152.4948,321.7534 152.3384,322.1904 152.14,322.6101 151.9013,323.0082 151.6248,323.381"/>
    <polygon points="140.5627,311.2062 140.8014,311.6043 140.9998,312.0239 141.1562,312.461 141.269,312.9113 141.3371,313.3704 141.3599,313.834 141.3371,314.2976 141.269,314.7568 141.1562,315.2071 140.9998,315.6441 140.8014,316.0637 140.5627,316.4619 140.2862,316.8347 139.9745,317.1786 139.6306,317.4903 139.2578,317.7669 138.8596,318.0055 138.44,318.204 138.003,318.3603 137.5527,318.4731 137.0935,318.5412 136.6299,318.564 136.1663,318.5412 135.7071,318.4731 135.2569,318.3603 134.8198,318.204 134.4002,318.0055 134.0021,317.7669 133.6293,317.4903 133.2853,317.1786 132.9736,316.8347 132.6971,316.4619 132.4585,316.0637 132.26,315.6441 132.1036,315.2071 131.9908,314.7568 131.9227,314.2976 131.8999,313.834 131.9227,313.3704 131.9908,312.9113 132.1036,312.461 132.26,312.0239 132.4585,311.6043 132.6971,311.2062 132.9736,310.8334 133.2853,310.4894 133.6293,310.1777 134.0021,309.9012 134.4002,309.6626 134.8198,309.4641 135.2569,309.3077 135.7071,309.1949 136.1663,309.1268 136.6299,309.1041 137.0935,309.1268 137.5527,309.1949 138.003,309.3077 138.44,309.4641 138.8596,309.6626 139.2578,309.9012 139.6306,310.1777 139.9745,310.4894 140.2862,310.8334"/>
    <polygon points="117.8489,286.5434 117.7946,287.6487 117.8489,288.754 118.0112,289.8486 118.2801,290.922 118.6529,291.964 119.1261,292.9643 119.695,293.9135 120.3542,294.8023 121.0973,295.6222 121.9173,296.3654 122.8061,297.0246 123.7553,297.5935 124.7556,298.0666 125.7975,298.4394 126.871,298.7083 127.9656,298.8707 129.0709,298.925 130.1761,298.8707 131.2708,298.7083 132.3442,298.4394 133.3861,298.0666 134.3865,297.5935 135.3356,297.0246 136.2245,296.3654 137.0444,295.6222 137.7876,294.8023 138.4468,293.9135 139.0157,292.9643 139.4888,291.964 139.8616,290.922 140.1305,289.8486 140.2929,288.754 140.3472,287.6487 140.2929,286.5434 140.1305,285.4488 139.8616,284.3754 139.4888,283.3334 139.0157,282.3331 138.4468,281.3839 137.7876,280.4951 137.0444,279.6751 136.2245,278.932 135.3356,278.2728 134.3865,277.7039 133.3861,277.2307 132.3442,276.8579 131.2708,276.5891 130.1761,276.4267 129.0709,276.3724 127.9656,276.4267 126.871,276.5891 125.7975,276.8579 124.7556,277.2307 123.7553,277.7039 122.8061,278.2728 121.9173,278.932 121.0973,279.6751 120.3542,280.4951 119.695,281.3839 119.1261,282.3331 118.6529,283.3334 118.2801,284.3754 118.0112,285.4488"/>
    <polygon points="110.6082,297.3968 110.2964,297.7407 110.0199,298.1135 109.7813,298.5117 109.5828,298.9313 109.4265,299.3683 109.3137,299.8186 109.2456,300.2777 109.2228,300.7414 109.2456,301.205 109.3137,301.6641 109.4265,302.1144 109.5828,302.5514 109.7813,302.9711 110.0199,303.3692 110.2964,303.742 110.6082,304.086 110.9521,304.3977 111.3249,304.6742 111.7231,304.9128 112.1427,305.1113 112.5797,305.2677 113.03,305.3805 113.4891,305.4486 113.9528,305.4713 114.4164,305.4486 114.8755,305.3805 115.3258,305.2677 115.7628,305.1113 116.1824,304.9128 116.5806,304.6742 116.9534,304.3977 117.2974,304.086 117.6091,303.742 117.8856,303.3692 118.1242,302.9711 118.3227,302.5514 118.4791,302.1144 118.5918,301.6641 118.66,301.205 118.6827,300.7414 118.66,300.2777 118.5918,299.8186 118.4791,299.3683 118.3227,298.9313 118.1242,298.5117 117.8856,298.1135 117.6091,297.7407 117.2974,297.3968 116.9534,297.085 116.5806,296.8085 116.1824,296.5699 115.7628,296.3714 115.3258,296.2151 114.8755,296.1023 114.4164,296.0342 113.9528,296.0114 113.4891,296.0342 113.03,296.1023 112.5797,296.2151 112.1427,296.3714 111.7231,296.5699 111.3249,296.8085 110.9521,297.085"/>
    <polygon points="94.6202,297.3968 94.2763,297.085 93.9034,296.8085 93.5053,296.5699 93.0857,296.3714 92.6486,296.2151 92.1984,296.1023 91.7392,296.0342 91.2756,296.0114 90.812,296.0342 90.3528,296.1023 89.9026,296.2151 89.4655,296.3714 89.0459,296.5699 88.6478,296.8085 88.2749,297.085 87.931,297.3968 87.6193,297.7407 87.3428,298.1135 87.1041,298.5117 86.9057,298.9313 86.7493,299.3683 86.6365,299.8186 86.5684,300.2777 86.5456,300.7414 86.5684,301.205 86.6365,301.6641 86.7493,302.1144 86.9057,302.5514 87.1041,302.9711 87.3428,303.3692 87.6193,303.742 87.931,304.086 88.2749,304.3977 88.6478,304.6742 89.0459,304.9128 89.4655,305.1113 89.9026,305.2677 90.3528,305.3805 90.812,305.4486 91.2756,305.4713 91.7392,305.4486 92.1984,305.3805 92.6486,305.2677 93.0857,305.1113 93.5053,304.9128 93.9034,304.6742 94.2763,304.3977 94.6202,304.086 94.9319,303.742 95.2084,303.3692 95.4471,302.9711 95.6455,302.5514 95.8019,302.1144 95.9147,301.6641 95.9828,301.205 96.0056,300.7414 95.9828,300.2777 95.9147,299.8186 95.8019,299.3683 95.6455,298.9313 95.4471,298.5117 95.2084,298.1135 94.9319,297.7407"/>
    <polygon points="92.6486,292.175 93.0857,292.0186 93.5053,291.8202 93.9034,291.5815 94.2763,291.305 94.6202,290.9933 94.9319,290.6494 95.2084,290.2765 95.4471,289.8784 95.6455,289.4588 95.8019,289.0217 95.9147,288.5715 95.9828,288.1123 96.0056,287.6487 95.9828,287.1851 95.9147,286.7259 95.8019,286.2757 95.6455,285.8386 95.4471,285.419 95.2084,285.0209 94.9319,284.648 94.6202,284.3041 94.2763,283.9924 93.9034,283.7159 93.5053,283.4772 93.0857,283.2788 92.6486,283.1224 92.1984,283.0096 91.7392,282.9415 91.2756,282.9187 90.812,282.9415 90.3528,283.0096 89.9026,283.1224 89.4655,283.2788 89.0459,283.4772 88.6478,283.7159 88.2749,283.9924 87.931,284.3041 87.6193,284.648 87.3428,285.0209 87.1041,285.419 86.9057,285.8386 86.7493,286.2757 86.6365,286.7259 86.5684,287.1851 86.5456,287.6487 86.5684,288.1123 86.6365,288.5715 86.7493,289.0217 86.9057,289.4588 87.1041,289.8784 87.3428,290.2765 87.6193,290.6494 87.931,290.9933 88.2749,291.305 88.6478,291.5815 89.0459,291.8202 89.4655,292.0186 89.9026,292.175 90.3528,292.2878 90.812,292.3559 91.2756,292.3787 91.7392,292.3559 92.1984,292.2878"/>
    <polygon points="97.0178,268.2912 96.4489,269.2404 95.9758,270.2408 95.6029,271.2827 95.3341,272.3561 95.1717,273.4508 95.1174,274.556 95.1717,275.6613 95.3341,276.7559 95.6029,277.8294 95.9758,278.8713 96.4489,279.8716 97.0178,280.8208 97.677,281.7096 98.4201,282.5296 99.2401,283.2727 100.1289,283.9319 101.0781,284.5008 102.0784,284.974 103.1204,285.3468 104.1938,285.6157 105.2884,285.778 106.3937,285.8323 107.499,285.778 108.5936,285.6157 109.667,285.3468 110.709,284.974 111.7093,284.5008 112.6585,283.9319 113.5473,283.2727 114.3673,282.5296 115.1104,281.7096 115.7696,280.8208 116.3385,279.8716 116.8116,278.8713 117.1845,277.8294 117.4533,276.7559 117.6157,275.6613 117.67,274.556 117.6157,273.4508 117.4533,272.3561 117.1845,271.2827 116.8116,270.2408 116.3385,269.2404 115.7696,268.2912 115.1104,267.4024 114.3673,266.5825 113.5473,265.8393 112.6585,265.1801 111.7093,264.6112 110.709,264.1381 109.667,263.7653 108.5936,263.4964 107.499,263.334 106.3937,263.2797 105.2884,263.334 104.1938,263.4964 103.1204,263.7653 102.0784,264.1381 101.0781,264.6112 100.1289,265.1801 99.2401,265.8393 98.4201,266.5825 97.677,267.4024"/>
    <polygon points="140.2929,260.3581 140.3472,261.4634 140.2929,262.5686 140.1305,263.6633 139.8616,264.7367 139.4888,265.7786 139.0157,266.779 138.4468,267.7281 137.7876,268.617 137.0444,269.4369 136.2245,270.1801 135.3356,270.8393 134.3865,271.4082 133.3861,271.8813 132.3442,272.2541 131.2708,272.523 130.1761,272.6854 129.0709,272.7397 127.9656,272.6854 126.871,272.523 125.7975,272.2541 124.7556,271.8813 123.7553,271.4082 122.8061,270.8393 121.9173,270.1801 121.0973,269.4369 120.3542,268.617 119.695,267.7281 119.1261,266.779 118.6529,265.7786 118.2801,264.7367 118.0112,263.6633 117.8489,262.5686 117.7946,261.4634 117.8489,260.3581 118.0112,259.2635 118.2801,258.19 118.6529,257.1481 119.1261,256.1477 119.695,255.1986 120.3542,254.3097 121.0973,253.4898 121.9173,252.7467 122.8061,252.0875 123.7553,251.5185 124.7556,251.0454 125.7975,250.6726 126.871,250.4037 127.9656,250.2414 129.0709,250.1871 130.1761,250.2414 131.2708,250.4037 132.3442,250.6726 133.3861,251.0454 134.3865,251.5185 135.3356,252.0875 136.2245,252.7467 137.0444,253.4898 137.7876,254.3097 138.4468,255.1986 139.0157,256.1477 139.4888,257.1481 139.8616,258.19 140.1305,259.2635"/>
    <polygon points="117.8856,245.7429 118.1242,246.141 118.3227,246.5606 118.4791,246.9977 118.5918,247.4479 118.66,247.9071 118.6827,248.3707 118.66,248.8343 118.5918,249.2935 118.4791,249.7437 118.3227,250.1808 118.1242,250.6004 117.8856,250.9985 117.6091,251.3714 117.2974,251.7153 116.9534,252.027 116.5806,252.3035 116.1824,252.5422 115.7628,252.7406 115.3258,252.897 114.8755,253.0098 114.4164,253.0779 113.9528,253.1007 113.4891,253.0779 113.03,253.0098 112.5797,252.897 112.1427,252.7406 111.7231,252.5422 111.3249,252.3035 110.9521,252.027 110.6082,251.7153 110.2964,251.3714 110.0199,250.9985 109.7813,250.6004 109.5828,250.1808 109.4265,249.7437 109.3137,249.2935 109.2456,248.8343 109.2228,248.3707 109.2456,247.9071 109.3137,247.4479 109.4265,246.9977 109.5828,246.5606 109.7813,246.141 110.0199,245.7429 110.2964,245.37 110.6082,245.0261 110.9521,244.7144 111.3249,244.4379 111.7231,244.1992 112.1427,244.0008 112.5797,243.8444 113.03,243.7316 113.4891,243.6635 113.9528,243.6407 114.4164,243.6635 114.8755,243.7316 115.3258,243.8444 115.7628,244.0008 116.1824,244.1992 116.5806,244.4379 116.9534,244.7144 117.2974,245.0261 117.6091,245.37"/>
    <polygon points="121.635,244.825 121.3585,244.4522 121.1199,244.0541 120.9214,243.6344 120.765,243.1974 120.6523,242.7471 120.5841,242.288 120.5614,241.8244 120.5841,241.3607 120.6523,240.9016 120.765,240.4513 120.9214,240.0143 121.1199,239.5947 121.3585,239.1965 121.635,238.8237 121.9467,238.4798 122.2907,238.168 122.6635,237.8915 123.0616,237.6529 123.4813,237.4544 123.9183,237.2981 124.3686,237.1853 124.8277,237.1172 125.2913,237.0944 125.755,237.1172 126.2141,237.1853 126.6644,237.2981 127.1014,237.4544 127.521,237.6529 127.9192,237.8915 128.292,238.168 128.6359,238.4798 128.9477,238.8237 129.2242,239.1965 129.4628,239.5947 129.6613,240.0143 129.8176,240.4513 129.9304,240.9016 129.9985,241.3607 130.0213,241.8244 129.9985,242.288 129.9304,242.7471 129.8176,243.1974 129.6613,243.6344 129.4628,244.0541 129.2242,244.4522 128.9477,244.825 128.6359,245.169 128.292,245.4807 127.9192,245.7572 127.521,245.9958 127.1014,246.1943 126.6644,246.3507 126.2141,246.4634 125.755,246.5316 125.2913,246.5543 124.8277,246.5316 124.3686,246.4634 123.9183,246.3507 123.4813,246.1943 123.0616,245.9958 122.6635,245.7572 122.2907,245.4807 121.9467,245.169"/>
    <polygon points="135.2569,230.7517 134.8198,230.9081 134.4002,231.1066 134.0021,231.3452 133.6293,231.6217 133.2853,231.9334 132.9736,232.2774 132.6971,232.6502 132.4585,233.0483 132.26,233.4679 132.1036,233.905 131.9908,234.3553 131.9227,234.8144 131.8999,235.278 131.9227,235.7416 131.9908,236.2008 132.1036,236.6511 132.26,237.0881 132.4585,237.5077 132.6971,237.9059 132.9736,238.2787 133.2853,238.6226 133.6293,238.9343 134.0021,239.2109 134.4002,239.4495 134.8198,239.648 135.2569,239.8043 135.7071,239.9171 136.1663,239.9852 136.6299,240.008 137.0935,239.9852 137.5527,239.9171 138.003,239.8043 138.44,239.648 138.8596,239.4495 139.2578,239.2109 139.6306,238.9343 139.9745,238.6226 140.2862,238.2787 140.5627,237.9059 140.8014,237.5077 140.9998,237.0881 141.1562,236.6511 141.269,236.2008 141.3371,235.7416 141.3599,235.278 141.3371,234.8144 141.269,234.3553 141.1562,233.905 140.9998,233.4679 140.8014,233.0483 140.5627,232.6502 140.2862,232.2774 139.9745,231.9334 139.6306,231.6217 139.2578,231.3452 138.8596,231.1066 138.44,230.9081 138.003,230.7517 137.5527,230.6389 137.0935,230.5708 136.6299,230.5481 136.1663,230.5708 135.7071,230.6389"/>
    <polygon points="134.4002,226.3568 134.8198,226.5553 135.2569,226.7117 135.7071,226.8244 136.1663,226.8926 136.6299,226.9153 137.0935,226.8926 137.5527,226.8244 138.003,226.7117 138.44,226.5553 138.8596,226.3568 139.2578,226.1182 139.6306,225.8417 139.9745,225.53 140.2862,225.186 140.5627,224.8132 140.8014,224.4151 140.9998,223.9954 141.1562,223.5584 141.269,223.1081 141.3371,222.649 141.3599,222.1854 141.3371,221.7217 141.269,221.2626 141.1562,220.8123 140.9998,220.3753 140.8014,219.9557 140.5627,219.5575 140.2862,219.1847 139.9745,218.8408 139.6306,218.529 139.2578,218.2525 138.8596,218.0139 138.44,217.8154 138.003,217.6591 137.5527,217.5463 137.0935,217.4782 136.6299,217.4554 136.1663,217.4782 135.7071,217.5463 135.2569,217.6591 134.8198,217.8154 134.4002,218.0139 134.0021,218.2525 133.6293,218.529 133.2853,218.8408 132.9736,219.1847 132.6971,219.5575 132.4585,219.9557 132.26,220.3753 132.1036,220.8123 131.9908,221.2626 131.9227,221.7217 131.8999,222.1854 131.9227,222.649 131.9908,223.1081 132.1036,223.5584 132.26,223.9954 132.4585,224.4151 132.6971,224.8132 132.9736,225.186 133.2853,225.53 133.6293,225.8417 134.0021,226.1182"/>
    <polygon points="152.8533,237.1487 153.9479,237.3111 155.0214,237.5799 156.0633,237.9527 157.0636,238.4259 158.0128,238.9948 158.9016,239.654 159.7216,240.3971 160.4647,241.2171 161.1239,242.1059 161.6928,243.0551 162.166,244.0554 162.5388,245.0974 162.8077,246.1708 162.97,247.2654 163.0243,248.3707 162.97,249.476 162.8077,250.5706 162.5388,251.644 162.166,252.6859 161.6928,253.6863 161.1239,254.6355 160.4647,255.5243 159.7216,256.3442 158.9016,257.0874 158.0128,257.7466 157.0636,258.3155 156.0633,258.7886 155.0214,259.1614 153.9479,259.4303 152.8533,259.5927 151.748,259.647 150.6428,259.5927 149.5481,259.4303 148.4747,259.1614 147.4328,258.7886 146.4324,258.3155 145.4833,257.7466 144.5944,257.0874 143.7745,256.3442 143.0313,255.5243 142.3721,254.6355 141.8032,253.6863 141.3301,252.6859 140.9573,251.644 140.6884,250.5706 140.526,249.476 140.4717,248.3707 140.526,247.2654 140.6884,246.1708 140.9573,245.0974 141.3301,244.0554 141.8032,243.0551 142.3721,242.1059 143.0313,241.2171 143.7745,240.3971 144.5944,239.654 145.4833,238.9948 146.4324,238.4259 147.4328,237.9527 148.4747,237.5799 149.5481,237.3111 150.6428,237.1487 151.748,237.0944"/>
    <polygon points="164.4804,240.5936 164.0072,239.5933 163.6344,238.5514 163.3656,237.4779 163.2032,236.3833 163.1489,235.278 163.2032,234.1728 163.3656,233.0781 163.6344,232.0047 164.0072,230.9628 164.4804,229.9624 165.0493,229.0132 165.7085,228.1244 166.4516,227.3045 167.2716,226.5613 168.1604,225.9021 169.1096,225.3332 170.1099,224.8601 171.1519,224.4873 172.2253,224.2184 173.3199,224.056 174.4252,224.0017 175.5305,224.056 176.6251,224.2184 177.6985,224.4873 178.7405,224.8601 179.7408,225.3332 180.69,225.9021 181.5788,226.5613 182.3987,227.3045 183.1419,228.1244 183.8011,229.0132 184.37,229.9624 184.8431,230.9628 185.2159,232.0047 185.4848,233.0781 185.6472,234.1728 185.7015,235.278 185.6472,236.3833 185.4848,237.4779 185.2159,238.5514 184.8431,239.5933 184.37,240.5936 183.8011,241.5428 183.1419,242.4316 182.3987,243.2516 181.5788,243.9947 180.69,244.6539 179.7408,245.2228 178.7405,245.696 177.6985,246.0688 176.6251,246.3377 175.5305,246.5 174.4252,246.5543 173.3199,246.5 172.2253,246.3377 171.1519,246.0688 170.1099,245.696 169.1096,245.2228 168.1604,244.6539 167.2716,243.9947 166.4516,243.2516 165.7085,242.4316 165.0493,241.5428"/>
    <polygon points="185.3288,205.7481 185.6406,206.092 185.9171,206.4649 186.1557,206.863 186.3542,207.2826 186.5106,207.7197 186.6233,208.1699 186.6914,208.6291 186.7142,209.0927 186.6914,209.5563 186.6233,210.0155 186.5106,210.4657 186.3542,210.9028 186.1557,211.3224 185.9171,211.7205 185.6406,212.0934 185.3288,212.4373 184.9849,212.749 184.6121,213.0255 184.2139,213.2642 183.7943,213.4626 183.3573,213.619 182.907,213.7318 182.4479,213.7999 181.9843,213.8227 181.5206,213.7999 181.0615,213.7318 180.6112,213.619 180.1742,213.4626 179.7546,213.2642 179.3564,213.0255 178.9836,212.749 178.6397,212.4373 178.3279,212.0934 178.0514,211.7205 177.8128,211.3224 177.6143,210.9028 177.458,210.4657 177.3452,210.0155 177.2771,209.5563 177.2543,209.0927 177.2771,208.6291 177.3452,208.1699 177.458,207.7197 177.6143,207.2826 177.8128,206.863 178.0514,206.4649 178.3279,206.092 178.6397,205.7481 178.9836,205.4364 179.3564,205.1599 179.7546,204.9212 180.1742,204.7228 180.6112,204.5664 181.0615,204.4536 181.5206,204.3855 181.9843,204.3627 182.4479,204.3855 182.907,204.4536 183.3573,204.5664 183.7943,204.7228 184.2139,204.9212 184.6121,205.1599 184.9849,205.4364"/>
    <polygon points="188.6837,201.6236 188.7965,201.1733 188.9529,200.7363 189.1514,200.3167 189.39,199.9185 189.6665,199.5457 189.9782,199.2018 190.3222,198.89 190.695,198.6135 191.0931,198.3749 191.5128,198.1764 191.9498,198.0201 192.4001,197.9073 192.8592,197.8392 193.3228,197.8164 193.7865,197.8392 194.2456,197.9073 194.6959,198.0201 195.1329,198.1764 195.5525,198.3749 195.9507,198.6135 196.3235,198.89 196.6674,199.2018 196.9792,199.5457 197.2557,199.9185 197.4943,200.3167 197.6928,200.7363 197.8491,201.1733 197.9619,201.6236 198.03,202.0827 198.0528,202.5464 198.03,203.01 197.9619,203.4691 197.8491,203.9194 197.6928,204.3564 197.4943,204.7761 197.2557,205.1742 196.9792,205.547 196.6674,205.891 196.3235,206.2027 195.9507,206.4792 195.5525,206.7178 195.1329,206.9163 194.6959,207.0727 194.2456,207.1854 193.7865,207.2536 193.3228,207.2763 192.8592,207.2536 192.4001,207.1854 191.9498,207.0727 191.5128,206.9163 191.0931,206.7178 190.695,206.4792 190.3222,206.2027 189.9782,205.891 189.6665,205.547 189.39,205.1742 189.1514,204.7761 188.9529,204.3564 188.7965,203.9194 188.6837,203.4691 188.6156,203.01 188.5929,202.5464 188.6156,202.0827"/>
    <polygon points="208.3244,223.2906 208.162,224.3853 207.8931,225.4587 207.5203,226.5006 207.0472,227.501 206.4783,228.4501 205.8191,229.339 205.0759,230.1589 204.256,230.9021 203.3671,231.5613 202.418,232.1302 201.4176,232.6033 200.3757,232.9761 199.3023,233.245 198.2076,233.4074 197.1024,233.4617 195.9971,233.4074 194.9025,233.245 193.829,232.9761 192.7871,232.6033 191.7867,232.1302 190.8376,231.5613 189.9487,230.9021 189.1288,230.1589 188.3857,229.339 187.7265,228.4501 187.1575,227.501 186.6844,226.5006 186.3116,225.4587 186.0427,224.3853 185.8804,223.2906 185.8261,222.1854 185.8804,221.0801 186.0427,219.9855 186.3116,218.912 186.6844,217.8701 187.1575,216.8697 187.7265,215.9206 188.3857,215.0317 189.1288,214.2118 189.9487,213.4687 190.8376,212.8095 191.7867,212.2405 192.7871,211.7674 193.829,211.3946 194.9025,211.1257 195.9971,210.9634 197.1024,210.9091 198.2076,210.9634 199.3023,211.1257 200.3757,211.3946 201.4176,211.7674 202.418,212.2405 203.3671,212.8095 204.256,213.4687 205.0759,214.2118 205.8191,215.0317 206.4783,215.9206 207.0472,216.8697 207.5203,217.8701 207.8931,218.912 208.162,219.9855 208.3244,221.0801 208.3787,222.1854"/>
    <polygon points="218.013,225.8567 220.2646,225.051 222.5844,224.47 224.95,224.1191 227.3386,224.0017 229.7272,224.1191 232.0927,224.47 234.4125,225.051 236.6642,225.8567 238.826,226.8792 240.8773,228.1086 242.7981,229.5332 244.57,231.1392 246.1761,232.9112 247.6006,234.832 248.8301,236.8832 249.8526,239.0451 250.6582,241.2968 251.2393,243.6165 251.5902,245.9821 251.7076,248.3707 251.5902,250.7593 251.2393,253.1248 250.6582,255.4446 249.8526,257.6963 248.8301,259.8581 247.6006,261.9094 246.1761,263.8302 244.57,265.6022 242.7981,267.2082 240.8773,268.6328 238.826,269.8622 236.6642,270.8847 234.4125,271.6903 232.0927,272.2714 229.7272,272.6223 227.3386,272.7397 224.95,272.6223 222.5844,272.2714 220.2646,271.6903 218.013,270.8847 215.8511,269.8622 213.7999,268.6328 211.8791,267.2082 210.1071,265.6022 208.5011,263.8302 207.0765,261.9094 205.8471,259.8581 204.8246,257.6963 204.0189,255.4446 203.4379,253.1248 203.087,250.7593 202.9696,248.3707 203.087,245.9821 203.4379,243.6165 204.0189,241.2968 204.8246,239.0451 205.8471,236.8832 207.0765,234.832 208.5011,232.9112 210.1071,231.1392 211.8791,229.5332 213.7999,228.1086 215.8511,226.8792"/>
    <polygon points="208.5942,198.6279 208.8329,198.2297 209.0313,197.8101 209.1877,197.3731 209.3005,196.9228 209.3686,196.4636 209.3914,196.0 209.3686,195.5364 209.3005,195.0773 209.1877,194.627 209.0313,194.1899 208.8329,193.7703 208.5942,193.3722 208.3177,192.9994 208.006,192.6554 207.6621,192.3437 207.2892,192.0672 206.8911,191.8286 206.4715,191.6301 206.0345,191.4737 205.5842,191.3609 205.125,191.2928 204.6614,191.2701 204.1978,191.2928 203.7386,191.3609 203.2884,191.4737 202.8513,191.6301 202.4317,191.8286 202.0336,192.0672 201.6608,192.3437 201.3168,192.6554 201.0051,192.9994 200.7286,193.3722 200.49,193.7703 200.2915,194.1899 200.1351,194.627 200.0223,195.0773 199.9542,195.5364 199.9314,196.0 199.9542,196.4636 200.0223,196.9228 200.1351,197.3731 200.2915,197.8101 200.49,198.2297 200.7286,198.6279 201.0051,199.0007 201.3168,199.3446 201.6608,199.6563 202.0336,199.9329 202.4317,200.1715 202.8513,200.3699 203.2884,200.5263 203.7386,200.6391 204.1978,200.7072 204.6614,200.73 205.125,200.7072 205.5842,200.6391 206.0345,200.5263 206.4715,200.3699 206.8911,200.1715 207.2892,199.9329 207.6621,199.6563 208.006,199.3446 208.3177,199.0007"/>
    <polygon points="197.2557,192.0815 197.4943,191.6834 197.6928,191.2638 197.8491,190.8267 197.9619,190.3765 198.03,189.9173 198.0528,189.4537 198.03,188.9901 197.9619,188.5309 197.8491,188.0807 197.6928,187.6436 197.4943,187.224 197.2557,186.8259 196.9792,186.453 196.6674,186.1091 196.3235,185.7974 195.9507,185.5209 195.5525,185.2822 195.1329,185.0838 194.6959,184.9274 194.2456,184.8146 193.7865,184.7465 193.3228,184.7237 192.8592,184.7465 192.4001,184.8146 191.9498,184.9274 191.5128,185.0838 191.0931,185.2822 190.695,185.5209 190.3222,185.7974 189.9782,186.1091 189.6665,186.453 189.39,186.8259 189.1514,187.224 188.9529,187.6436 188.7965,188.0807 188.6837,188.5309 188.6156,188.9901 188.5929,189.4537 188.6156,189.9173 188.6837,190.3765 188.7965,190.8267 188.9529,191.2638 189.1514,191.6834 189.39,192.0815 189.6665,192.4544 189.9782,192.7983 190.3222,193.11 190.695,193.3865 191.0931,193.6252 191.5128,193.8236 191.9498,193.98 192.4001,194.0928 192.8592,194.1609 193.3228,194.1837 193.7865,194.1609 194.2456,194.0928 194.6959,193.98 195.1329,193.8236 195.5525,193.6252 195.9507,193.3865 196.3235,193.11 196.6674,192.7983 196.9792,192.4544"/>
    <polygon points="208.8329,172.0444 208.5942,172.4425 208.3177,172.8154 208.006,173.1593 207.6621,173.471 207.2892,173.7475 206.8911,173.9862 206.4715,174.1846 206.0345,174.341 205.5842,174.4538 205.125,174.5219 204.6614,174.5447 204.1978,174.5219 203.7386,174.4538 203.2884,174.341 202.8513,174.1846 202.4317,173.9862 202.0336,173.7475 201.6608,173.471 201.3168,173.1593 201.0051,172.8154 200.7286,172.4425 200.49,172.0444 200.2915,171.6248 200.1351,171.1877 200.0223,170.7375 199.9542,170.2783 199.9314,169.8147 199.9542,169.3511 200.0223,168.8919 200.1351,168.4416 200.2915,168.0046 200.49,167.585 200.7286,167.1869 201.0051,166.814 201.3168,166.4701 201.6608,166.1584 202.0336,165.8819 202.4317,165.6432 202.8513,165.4448 203.2884,165.2884 203.7386,165.1756 204.1978,165.1075 204.6614,165.0847 205.125,165.1075 205.5842,165.1756 206.0345,165.2884 206.4715,165.4448 206.8911,165.6432 207.2892,165.8819 207.6621,166.1584 208.006,166.4701 208.3177,166.814 208.5942,167.1869 208.8329,167.585 209.0313,168.0046 209.1877,168.4416 209.3005,168.8919 209.3686,169.3511 209.3914,169.8147 209.3686,170.2783 209.3005,170.7375 209.1877,171.1877 209.0313,171.6248"/>
    <polygon points="216.4636,167.9756 216.0,167.9983 215.5364,167.9756 215.0772,167.9074 214.627,167.7947 214.1899,167.6383 213.7703,167.4398 213.3722,167.2012 212.9993,166.9247 212.6554,166.613 212.3437,166.269 212.0672,165.8962 211.8285,165.498 211.6301,165.0784 211.4737,164.6414 211.3609,164.1911 211.2928,163.732 211.27,163.2684 211.2928,162.8047 211.3609,162.3456 211.4737,161.8953 211.6301,161.4583 211.8285,161.0387 212.0672,160.6405 212.3437,160.2677 212.6554,159.9238 212.9993,159.612 213.3722,159.3355 213.7703,159.0969 214.1899,158.8984 214.627,158.7421 215.0772,158.6293 215.5364,158.5612 216.0,158.5384 216.4636,158.5612 216.9228,158.6293 217.373,158.7421 217.8101,158.8984 218.2297,159.0969 218.6278,159.3355 219.0007,159.612 219.3446,159.9238 219.6563,160.2677 219.9328,160.6405 220.1715,161.0387 220.3699,161.4583 220.5263,161.8953 220.6391,162.3456 220.7072,162.8047 220.73,163.2684 220.7072,163.732 220.6391,164.1911 220.5263,164.6414 220.3699,165.0784 220.1715,165.498 219.9328,165.8962 219.6563,166.269 219.3446,166.613 219.0007,166.9247 218.6278,167.2012 218.2297,167.4398 217.8101,167.6383 217.373,167.7947 216.9228,167.9074"/>
    <polygon points="224.0948,193.3253 223.0529,193.6981 221.9794,193.967 220.8848,194.1294 219.7795,194.1837 218.6743,194.1294 217.5796,193.967 216.5062,193.6981 215.4643,193.3253 214.4639,192.8522 213.5147,192.2833 212.6259,191.6241 211.806,190.8809 211.0628,190.061 210.4036,189.1721 209.8347,188.223 209.3616,187.2226 208.9888,186.1807 208.7199,185.1073 208.5575,184.0126 208.5032,182.9074 208.5575,181.8021 208.7199,180.7075 208.9888,179.634 209.3616,178.5921 209.8347,177.5917 210.4036,176.6426 211.0628,175.7537 211.806,174.9338 212.6259,174.1907 213.5147,173.5314 214.4639,172.9625 215.4643,172.4894 216.5062,172.1166 217.5796,171.8477 218.6743,171.6853 219.7795,171.631 220.8848,171.6853 221.9794,171.8477 223.0529,172.1166 224.0948,172.4894 225.0951,172.9625 226.0443,173.5314 226.9331,174.1907 227.7531,174.9338 228.4962,175.7537 229.1554,176.6426 229.7243,177.5917 230.1975,178.5921 230.5703,179.634 230.8392,180.7075 231.0015,181.8021 231.0558,182.9074 231.0015,184.0126 230.8392,185.1073 230.5703,186.1807 230.1975,187.2226 229.7243,188.223 229.1554,189.1721 228.4962,190.061 227.7531,190.8809 226.9331,191.6241 226.0443,192.2833 225.0951,192.8522"/>
    <polygon points="223.0529,198.3019 224.0948,198.6747 225.0951,199.1479 226.0443,199.7168 226.9331,200.376 227.7531,201.1191 228.4962,201.9391 229.1554,202.8279 229.7243,203.7771 230.1975,204.7774 230.5703,205.8194 230.8392,206.8928 231.0015,207.9874 231.0558,209.0927 231.0015,210.198 230.8392,211.2926 230.5703,212.366 230.1975,213.4079 229.7243,214.4083 229.1554,215.3575 228.4962,216.2463 227.7531,217.0662 226.9331,217.8094 226.0443,218.4686 225.0951,219.0375 224.0948,219.5106 223.0529,219.8834 221.9794,220.1523 220.8848,220.3147 219.7795,220.369 218.6743,220.3147 217.5796,220.1523 216.5062,219.8834 215.4643,219.5106 214.4639,219.0375 213.5147,218.4686 212.6259,217.8094 211.806,217.0662 211.0628,216.2463 210.4036,215.3575 209.8347,214.4083 209.3616,213.4079 208.9888,212.366 208.7199,211.2926 208.5575,210.198 208.5032,209.0927 208.5575,207.9874 208.7199,206.8928 208.9888,205.8194 209.3616,204.7774 209.8347,203.7771 210.4036,202.8279 211.0628,201.9391 211.806,201.1191 212.6259,200.376 213.5147,199.7168 214.4639,199.1479 215.4643,198.6747 216.5062,198.3019 217.5796,198.0331 218.6743,197.8707 219.7795,197.8164 220.8848,197.8707 221.9794,198.0331"/>
    <polygon points="244.6566,184.9404 243.562,184.778 242.4567,184.7237 241.3514,184.778 240.2568,184.9404 239.1834,185.2093 238.1414,185.5821 237.1411,186.0552 236.1919,186.6241 235.3031,187.2833 234.4831,188.0265 233.74,188.8464 233.0808,189.7352 232.5119,190.6844 232.0387,191.6848 231.6659,192.7267 231.3971,193.8001 231.2347,194.8948 231.1804,196.0 231.2347,197.1053 231.3971,198.1999 231.6659,199.2734 232.0387,200.3153 232.5119,201.3156 233.0808,202.2648 233.74,203.1536 234.4831,203.9736 235.3031,204.7167 236.1919,205.3759 237.1411,205.9448 238.1414,206.418 239.1834,206.7908 240.2568,207.0597 241.3514,207.222 242.4567,207.2763 243.562,207.222 244.6566,207.0597 245.73,206.7908 246.7719,206.418 247.7723,205.9448 248.7215,205.3759 249.6103,204.7167 250.4302,203.9736 251.1734,203.1536 251.8326,202.2648 252.4015,201.3156 252.8746,200.3153 253.2474,199.2734 253.5163,198.1999 253.6787,197.1053 253.733,196.0 253.6787,194.8948 253.5163,193.8001 253.2474,192.7267 252.8746,191.6848 252.4015,190.6844 251.8326,189.7352 251.1734,188.8464 250.4302,188.0265 249.6103,187.2833 248.7215,186.6241 247.7723,186.0552 246.7719,185.5821 245.73,185.2093"/>
    <polygon points="262.7274,184.9274 262.2771,184.8146 261.8179,184.7465 261.3543,184.7237 260.8907,184.7465 260.4316,184.8146 259.9813,184.9274 259.5442,185.0838 259.1246,185.2822 258.7265,185.5209 258.3537,185.7974 258.0097,186.1091 257.698,186.453 257.4215,186.8259 257.1829,187.224 256.9844,187.6436 256.828,188.0807 256.7152,188.5309 256.6471,188.9901 256.6244,189.4537 256.6471,189.9173 256.7152,190.3765 256.828,190.8267 256.9844,191.2638 257.1829,191.6834 257.4215,192.0815 257.698,192.4544 258.0097,192.7983 258.3537,193.11 258.7265,193.3865 259.1246,193.6252 259.5442,193.8236 259.9813,193.98 260.4316,194.0928 260.8907,194.1609 261.3543,194.1837 261.8179,194.1609 262.2771,194.0928 262.7274,193.98 263.1644,193.8236 263.584,193.6252 263.9822,193.3865 264.355,193.11 264.6989,192.7983 265.0106,192.4544 265.2872,192.0815 265.5258,191.6834 265.7243,191.2638 265.8806,190.8267 265.9934,190.3765 266.0615,189.9173 266.0843,189.4537 266.0615,188.9901 265.9934,188.5309 265.8806,188.0807 265.7243,187.6436 265.5258,187.224 265.2872,186.8259 265.0106,186.453 264.6989,186.1091 264.355,185.7974 263.9822,185.5209 263.584,185.2822 263.1644,185.0838"/>
    <polygon points="263.584,198.3749 263.1644,198.1764 262.7274,198.0201 262.2771,197.9073 261.8179,197.8392 261.3543,197.8164 260.8907,197.8392 260.4316,197.9073 259.9813,198.0201 259.5442,198.1764 259.1246,198.3749 258.7265,198.6135 258.3537,198.89 258.0097,199.2018 257.698,199.5457 257.4215,199.9185 257.1829,200.3167 256.9844,200.7363 256.828,201.1733 256.7152,201.6236 256.6471,202.0827 256.6244,202.5464 256.6471,203.01 256.7152,203.4691 256.828,203.9194 256.9844,204.3564 257.1829,204.7761 257.4215,205.1742 257.698,205.547 258.0097,205.891 258.3537,206.2027 258.7265,206.4792 259.1246,206.7178 259.5442,206.9163 259.9813,207.0727 260.4316,207.1854 260.8907,207.2536 261.3543,207.2763 261.8179,207.2536 262.2771,207.1854 262.7274,207.0727 263.1644,206.9163 263.584,206.7178 263.9822,206.4792 264.355,206.2027 264.6989,205.891 265.0106,205.547 265.2872,205.1742 265.5258,204.7761 265.7243,204.3564 265.8806,203.9194 265.9934,203.4691 266.0615,203.01 266.0843,202.5464 266.0615,202.0827 265.9934,201.6236 265.8806,201.1733 265.7243,200.7363 265.5258,200.3167 265.2872,199.9185 265.0106,199.5457 264.6989,199.2018 264.355,198.89 263.9822,198.6135"/>
    <polygon points="262.7274,211.1127 262.2771,210.9999 261.8179,210.9318 261.3543,210.9091 260.8907,210.9318 260.4316,210.9999 259.9813,211.1127 259.5442,211.2691 259.1246,211.4676 258.7265,211.7062 258.3537,211.9827 258.0097,212.2944 257.698,212.6384 257.4215,213.0112 257.1829,213.4093 256.9844,213.8289 256.828,214.266 256.7152,214.7163 256.6471,215.1754 256.6244,215.639 256.6471,216.1026 256.7152,216.5618 256.828,217.0121 256.9844,217.4491 257.1829,217.8687 257.4215,218.2669 257.698,218.6397 258.0097,218.9836 258.3537,219.2953 258.7265,219.5719 259.1246,219.8105 259.5442,220.0089 259.9813,220.1653 260.4316,220.2781 260.8907,220.3462 261.3543,220.369 261.8179,220.3462 262.2771,220.2781 262.7274,220.1653 263.1644,220.0089 263.584,219.8105 263.9822,219.5719 264.355,219.2953 264.6989,218.9836 265.0106,218.6397 265.2872,218.2669 265.5258,217.8687 265.7243,217.4491 265.8806,217.0121 265.9934,216.5618 266.0615,216.1026 266.0843,215.639 266.0615,215.1754 265.9934,214.7163 265.8806,214.266 265.7243,213.8289 265.5258,213.4093 265.2872,213.0112 265.0106,212.6384 264.6989,212.2944 264.355,211.9827 263.9822,211.7062 263.584,211.4676 263.1644,211.2691"/>
    <polygon points="281.0308,232.388 280.6869,232.0763 280.3752,231.7324 280.0987,231.3595 279.86,230.9614 279.6616,230.5418 279.5052,230.1047 279.3924,229.6545 279.3243,229.1953 279.3015,228.7317 279.3243,228.2681 279.3924,227.8089 279.5052,227.3587 279.6616,226.9216 279.86,226.502 280.0987,226.1039 280.3752,225.731 280.6869,225.3871 281.0308,225.0754 281.4037,224.7989 281.8018,224.5602 282.2214,224.3618 282.6585,224.2054 283.1087,224.0926 283.5679,224.0245 284.0315,224.0017 284.4951,224.0245 284.9543,224.0926 285.4045,224.2054 285.8416,224.3618 286.2612,224.5602 286.6593,224.7989 287.0322,225.0754 287.3761,225.3871 287.6878,225.731 287.9643,226.1039 288.203,226.502 288.4014,226.9216 288.5578,227.3587 288.6706,227.8089 288.7387,228.2681 288.7615,228.7317 288.7387,229.1953 288.6706,229.6545 288.5578,230.1047 288.4014,230.5418 288.203,230.9614 287.9643,231.3595 287.6878,231.7324 287.3761,232.0763 287.0322,232.388 286.6593,232.6645 286.2612,232.9032 285.8416,233.1016 285.4045,233.258 284.9543,233.3708 284.4951,233.4389 284.0315,233.4617 283.5679,233.4389 283.1087,233.3708 282.6585,233.258 282.2214,233.1016 281.8018,232.9032 281.4037,232.6645"/>
    <polygon points="264.0286,246.5 262.934,246.3377 261.8605,246.0688 260.8186,245.696 259.8182,245.2228 258.8691,244.6539 257.9802,243.9947 257.1603,243.2516 256.4172,242.4316 255.758,241.5428 255.189,240.5936 254.7159,239.5933 254.3431,238.5514 254.0742,237.4779 253.9119,236.3833 253.8576,235.278 253.9119,234.1728 254.0742,233.0781 254.3431,232.0047 254.7159,230.9628 255.189,229.9624 255.758,229.0132 256.4172,228.1244 257.1603,227.3045 257.9802,226.5613 258.8691,225.9021 259.8182,225.3332 260.8186,224.8601 261.8605,224.4873 262.934,224.2184 264.0286,224.056 265.1339,224.0017 266.2391,224.056 267.3338,224.2184 268.4072,224.4873 269.4491,224.8601 270.4495,225.3332 271.3986,225.9021 272.2875,226.5613 273.1074,227.3045 273.8506,228.1244 274.5098,229.0132 275.0787,229.9624 275.5518,230.9628 275.9246,232.0047 276.1935,233.0781 276.3559,234.1728 276.4102,235.278 276.3559,236.3833 276.1935,237.4779 275.9246,238.5514 275.5518,239.5933 275.0787,240.5936 274.5098,241.5428 273.8506,242.4316 273.1074,243.2516 272.2875,243.9947 271.3986,244.6539 270.4495,245.2228 269.4491,245.696 268.4072,246.0688 267.3338,246.3377 266.2391,246.5 265.1339,246.5543"/>
    <polygon points="281.0308,245.4807 281.4037,245.7572 281.8018,245.9958 282.2214,246.1943 282.6585,246.3507 283.1087,246.4634 283.5679,246.5316 284.0315,246.5543 284.4951,246.5316 284.9543,246.4634 285.4045,246.3507 285.8416,246.1943 286.2612,245.9958 286.6593,245.7572 287.0322,245.4807 287.3761,245.169 287.6878,244.825 287.9643,244.4522 288.203,244.0541 288.4014,243.6344 288.5578,243.1974 288.6706,242.7471 288.7387,242.288 288.7615,241.8244 288.7387,241.3607 288.6706,240.9016 288.5578,240.4513 288.4014,240.0143 288.203,239.5947 287.9643,239.1965 287.6878,238.8237 287.3761,238.4798 287.0322,238.168 286.6593,237.8915 286.2612,237.6529 285.8416,237.4544 285.4045,237.2981 284.9543,237.1853 284.4951,237.1172 284.0315,237.0944 283.5679,237.1172 283.1087,237.1853 282.6585,237.2981 282.2214,237.4544 281.8018,237.6529 281.4037,237.8915 281.0308,238.168 280.6869,238.4798 280.3752,238.8237 280.0987,239.1965 279.86,239.5947 279.6616,240.0143 279.5052,240.4513 279.3924,240.9016 279.3243,241.3607 279.3015,241.8244 279.3243,242.288 279.3924,242.7471 279.5052,243.1974 279.6616,243.6344 279.86,244.0541 280.0987,244.4522 280.3752,244.825 280.6869,245.169"/>
    <polygon points="291.1986,246.141 291.0002,246.5606 290.8438,246.9977 290.731,247.4479 290.6629,247.9071 290.6401,248.3707 290.6629,248.8343 290.731,249.2935 290.8438,249.7437 291.0002,250.1808 291.1986,250.6004 291.4373,250.9985 291.7138,251.3714 292.0255,251.7153 292.3694,252.027 292.7422,252.3035 293.1404,252.5422 293.56,252.7406 293.997,252.897 294.4473,253.0098 294.9065,253.0779 295.3701,253.1007 295.8337,253.0779 296.2929,253.0098 296.7431,252.897 297.1802,252.7406 297.5998,252.5422 297.9979,252.3035 298.3707,252.027 298.7147,251.7153 299.0264,251.3714 299.3029,250.9985 299.5415,250.6004 299.74,250.1808 299.8964,249.7437 300.0092,249.2935 300.0773,248.8343 300.1001,248.3707 300.0773,247.9071 300.0092,247.4479 299.8964,246.9977 299.74,246.5606 299.5415,246.141 299.3029,245.7429 299.0264,245.37 298.7147,245.0261 298.3707,244.7144 297.9979,244.4379 297.5998,244.1992 297.1802,244.0008 296.7431,243.8444 296.2929,243.7316 295.8337,243.6635 295.3701,243.6407 294.9065,243.6635 294.4473,243.7316 293.997,243.8444 293.56,244.0008 293.1404,244.1992 292.7422,244.4379 292.3694,244.7144 292.0255,245.0261 291.7138,245.37 291.4373,245.7429"/>
    <polygon points="294.4473,230.6389 293.997,230.7517 293.56,230.9081 293.1404,231.1066 292.7422,231.3452 292.3694,231.6217 292.0255,231.9334 291.7138,232.2774 291.4373,232.6502 291.1986,233.0483 291.0002,233.4679 290.8438,233.905 290.731,234.3553 290.6629,234.8144 290.6401,235.278 290.6629,235.7416 290.731,236.2008 290.8438,236.6511 291.0002,237.0881 291.1986,237.5077 291.4373,237.9059 291.7138,238.2787 292.0255,238.6226 292.3694,238.9343 292.7422,239.2109 293.1404,239.4495 293.56,239.648 293.997,239.8043 294.4473,239.9171 294.9065,239.9852 295.3701,240.008 295.8337,239.9852 296.2929,239.9171 296.7431,239.8043 297.1802,239.648 297.5998,239.4495 297.9979,239.2109 298.3707,238.9343 298.7147,238.6226 299.0264,238.2787 299.3029,237.9059 299.5415,237.5077 299.74,237.0881 299.8964,236.6511 300.0092,236.2008 300.0773,235.7416 300.1001,235.278 300.0773,234.8144 300.0092,234.3553 299.8964,233.905 299.74,233.4679 299.5415,233.0483 299.3029,232.6502 299.0264,232.2774 298.7147,231.9334 298.3707,231.6217 297.9979,231.3452 297.5998,231.1066 297.1802,230.9081 296.7431,230.7517 296.2929,230.6389 295.8337,230.5708 295.3701,230.5481 294.9065,230.5708"/>
    <polygon points="317.6418,252.7467 316.753,252.0875 315.8038,251.5185 314.8034,251.0454 313.7615,250.6726 312.6881,250.4037 311.5935,250.2414 310.4882,250.1871 309.3829,250.2414 308.2883,250.4037 307.2149,250.6726 306.1729,251.0454 305.1726,251.5185 304.2234,252.0875 303.3346,252.7467 302.5146,253.4898 301.7715,254.3097 301.1123,255.1986 300.5434,256.1477 300.0702,257.1481 299.6974,258.19 299.4286,259.2635 299.2662,260.3581 299.2119,261.4634 299.2662,262.5686 299.4286,263.6633 299.6974,264.7367 300.0702,265.7786 300.5434,266.779 301.1123,267.7281 301.7715,268.617 302.5146,269.4369 303.3346,270.1801 304.2234,270.8393 305.1726,271.4082 306.1729,271.8813 307.2149,272.2541 308.2883,272.523 309.3829,272.6854 310.4882,272.7397 311.5935,272.6854 312.6881,272.523 313.7615,272.2541 314.8034,271.8813 315.8038,271.4082 316.753,270.8393 317.6418,270.1801 318.4617,269.4369 319.2049,268.617 319.8641,267.7281 320.433,266.779 320.9061,265.7786 321.2789,264.7367 321.5478,263.6633 321.7102,262.5686 321.7645,261.4634 321.7102,260.3581 321.5478,259.2635 321.2789,258.19 320.9061,257.1481 320.433,256.1477 319.8641,255.1986 319.2049,254.3097 318.4617,253.4898"/>
    <polygon points="331.6155,250.7456 331.1959,250.5471 330.7589,250.3907 330.3086,250.2779 329.8494,250.2098 329.3858,250.1871 328.9222,250.2098 328.4631,250.2779 328.0128,250.3907 327.5757,250.5471 327.1561,250.7456 326.758,250.9842 326.3852,251.2607 326.0412,251.5724 325.7295,251.9164 325.453,252.2892 325.2144,252.6873 325.0159,253.1069 324.8595,253.544 324.7467,253.9943 324.6786,254.4534 324.6559,254.917 324.6786,255.3806 324.7467,255.8398 324.8595,256.2901 325.0159,256.7271 325.2144,257.1467 325.453,257.5449 325.7295,257.9177 326.0412,258.2616 326.3852,258.5733 326.758,258.8499 327.1561,259.0885 327.5757,259.287 328.0128,259.4433 328.4631,259.5561 328.9222,259.6242 329.3858,259.647 329.8494,259.6242 330.3086,259.5561 330.7589,259.4433 331.1959,259.287 331.6155,259.0885 332.0137,258.8499 332.3865,258.5733 332.7304,258.2616 333.0421,257.9177 333.3187,257.5449 333.5573,257.1467 333.7558,256.7271 333.9121,256.2901 334.0249,255.8398 334.093,255.3806 334.1158,254.917 334.093,254.4534 334.0249,253.9943 333.9121,253.544 333.7558,253.1069 333.5573,252.6873 333.3187,252.2892 333.0421,251.9164 332.7304,251.5724 332.3865,251.2607 332.0137,250.9842"/>
    <polygon points="336.3545,246.5606 336.1981,246.9977 336.0853,247.4479 336.0172,247.9071 335.9944,248.3707 336.0172,248.8343 336.0853,249.2935 336.1981,249.7437 336.3545,250.1808 336.5529,250.6004 336.7916,250.9985 337.0681,251.3714 337.3798,251.7153 337.7237,252.027 338.0966,252.3035 338.4947,252.5422 338.9143,252.7406 339.3514,252.897 339.8016,253.0098 340.2608,253.0779 340.7244,253.1007 341.188,253.0779 341.6472,253.0098 342.0974,252.897 342.5345,252.7406 342.9541,252.5422 343.3522,252.3035 343.7251,252.027 344.069,251.7153 344.3807,251.3714 344.6572,250.9985 344.8959,250.6004 345.0943,250.1808 345.2507,249.7437 345.3635,249.2935 345.4316,248.8343 345.4544,248.3707 345.4316,247.9071 345.3635,247.4479 345.2507,246.9977 345.0943,246.5606 344.8959,246.141 344.6572,245.7429 344.3807,245.37 344.069,245.0261 343.7251,244.7144 343.3522,244.4379 342.9541,244.1992 342.5345,244.0008 342.0974,243.8444 341.6472,243.7316 341.188,243.6635 340.7244,243.6407 340.2608,243.6635 339.8016,243.7316 339.3514,243.8444 338.9143,244.0008 338.4947,244.1992 338.0966,244.4379 337.7237,244.7144 337.3798,245.0261 337.0681,245.37 336.7916,245.7429 336.5529,246.141"/>
    <polygon points="333.5573,270.2394 333.7558,269.8198 333.9121,269.3827 334.0249,268.9325 334.093,268.4733 334.1158,268.0097 334.093,267.5461 334.0249,267.0869 333.9121,266.6367 333.7558,266.1996 333.5573,265.78 333.3187,265.3819 333.0421,265.009 332.7304,264.6651 332.3865,264.3534 332.0137,264.0769 331.6155,263.8382 331.1959,263.6398 330.7589,263.4834 330.3086,263.3706 329.8494,263.3025 329.3858,263.2797 328.9222,263.3025 328.4631,263.3706 328.0128,263.4834 327.5757,263.6398 327.1561,263.8382 326.758,264.0769 326.3852,264.3534 326.0412,264.6651 325.7295,265.009 325.453,265.3819 325.2144,265.78 325.0159,266.1996 324.8595,266.6367 324.7467,267.0869 324.6786,267.5461 324.6559,268.0097 324.6786,268.4733 324.7467,268.9325 324.8595,269.3827 325.0159,269.8198 325.2144,270.2394 325.453,270.6375 325.7295,271.0104 326.0412,271.3543 326.3852,271.666 326.758,271.9425 327.1561,272.1812 327.5757,272.3796 328.0128,272.536 328.4631,272.6488 328.9222,272.7169 329.3858,272.7397 329.8494,272.7169 330.3086,272.6488 330.7589,272.536 331.1959,272.3796 331.6155,272.1812 332.0137,271.9425 332.3865,271.666 332.7304,271.3543 333.0421,271.0104 333.3187,270.6375"/>
  </g>
</svg>
