<?xml version="1.0" encoding="utf-8" ?>
<svg xmlns="http://www.w3.org/2000/svg" xmlns:cc="http://creativecommons.org/ns" xmlns:dc="http://purl.org/dc/elements/1.1/" xmlns:ev="http://www.w3.org/2001/xml-events" xmlns:inkscape="http://www.inkscape.org/namespaces/inkscape" xmlns:rdf="http://www.w3.org/1999/02/22-rdf-syntax-ns" xmlns:sodipodi="http://sodipodi.sourceforge.net/DTD/sodipodi-0.dtd" xmlns:xlink="http://www.w3.org/1999/xlink" baseProfile="tiny" height="15.875cm" version="1.2" viewBox="0 0 432.0 600.0" width="11.43cm">
  <metadata>
    <rdf:RDF>
      <cc:Work>
        <dc:format>image/svg+xml</dc:format>
        <dc:source>vsk save -s 289 -c hex-grid/config/bubble-coasters-2.json /Users/tobin/src/fabian/plotting/fabian-plotting/hex-grid/sketch_hex_grid.py</dc:source>
        <dc:date>2023-11-11T11:30:24.177033</dc:date>
      </cc:Work>
    </rdf:RDF>
  </metadata>
  <defs/>
  <g fill="none" id="layer1" inkscape:groupmode="layer" inkscape:label="1" stroke="#000000" stroke-width="0.7559" style="display:inline">
    <polygon points="176.7786,453.1462 177.2377,453.2143 177.688,453.3271 178.125,453.4834 178.5447,453.6819 178.9428,453.9205 179.3156,454.1971 179.6596,454.5088 179.9713,454.8527 180.2478,455.2255 180.4864,455.6237 180.6849,456.0433 180.8413,456.4803 180.954,456.9306 181.0222,457.3898 181.0449,457.8534 181.0222,458.317 180.954,458.7761 180.8413,459.2264 180.6849,459.6635 180.4864,460.0831 180.2478,460.4812 179.9713,460.854 179.6596,461.198 179.3156,461.5097 178.9428,461.7862 178.5447,462.0248 178.125,462.2233 177.688,462.3797 177.2377,462.4925 176.7786,462.5606 176.315,462.5833 175.8513,462.5606 175.3922,462.4925 174.9419,462.3797 174.5049,462.2233 174.0853,462.0248 173.6871,461.7862 173.3143,461.5097 172.9704,461.198 172.6586,460.854 172.3821,460.4812 172.1435,460.0831 171.945,459.6635 171.7887,459.2264 171.6759,458.7761 171.6078,458.317 171.585,457.8534 171.6078,457.3898 171.6759,456.9306 171.7887,456.4803 171.945,456.0433 172.1435,455.6237 172.3821,455.2255 172.6586,454.8527 172.9704,454.5088 173.3143,454.1971 173.6871,453.9205 174.0853,453.6819 174.5049,453.4834 174.9419,453.3271 175.3922,453.2143 175.8513,453.1462 176.315,453.1234"/>
    <polygon points="173.8297,447.5903 172.9409,446.9311 172.1209,446.1879 171.3778,445.368 170.7186,444.4792 170.1497,443.53 169.6765,442.5296 169.3037,441.4877 169.0349,440.4143 168.8725,439.3196 168.8182,438.2144 168.8725,437.1091 169.0349,436.0145 169.3037,434.941 169.6765,433.8991 170.1497,432.8988 170.7186,431.9496 171.3778,431.0608 172.1209,430.2408 172.9409,429.4977 173.8297,428.8385 174.7789,428.2696 175.7792,427.7964 176.8211,427.4236 177.8946,427.1547 178.9892,426.9924 180.0945,426.9381 181.1998,426.9924 182.2944,427.1547 183.3678,427.4236 184.4097,427.7964 185.4101,428.2696 186.3593,428.8385 187.2481,429.4977 188.068,430.2408 188.8112,431.0608 189.4704,431.9496 190.0393,432.8988 190.5124,433.8991 190.8852,434.941 191.1541,436.0145 191.3165,437.1091 191.3708,438.2144 191.3165,439.3196 191.1541,440.4143 190.8852,441.4877 190.5124,442.5296 190.0393,443.53 189.4704,444.4792 188.8112,445.368 188.068,446.1879 187.2481,446.9311 186.3593,447.5903 185.4101,448.1592 184.4097,448.6323 183.3678,449.0051 182.2944,449.274 181.1998,449.4364 180.0945,449.4907 178.9892,449.4364 177.8946,449.274 176.8211,449.0051 175.7792,448.6323 174.7789,448.1592"/>
    <polygon points="155.2174,436.1813 154.144,435.9125 153.1021,435.5397 152.1017,435.0665 151.1525,434.4976 150.2637,433.8384 149.4438,433.0953 148.7006,432.2753 148.0414,431.3865 147.4725,430.4373 146.9994,429.437 146.6266,428.395 146.3577,427.3216 146.1953,426.227 146.141,425.1217 146.1953,424.0164 146.3577,422.9218 146.6266,421.8484 146.9994,420.8064 147.4725,419.8061 148.0414,418.8569 148.7006,417.9681 149.4438,417.1482 150.2637,416.405 151.1525,415.7458 152.1017,415.1769 153.1021,414.7038 154.144,414.331 155.2174,414.0621 156.3121,413.8997 157.4173,413.8454 158.5226,413.8997 159.6172,414.0621 160.6907,414.331 161.7326,414.7038 162.7329,415.1769 163.6821,415.7458 164.5709,416.405 165.3909,417.1482 166.134,417.9681 166.7932,418.8569 167.3621,419.8061 167.8353,420.8064 168.2081,421.8484 168.477,422.9218 168.6393,424.0164 168.6936,425.1217 168.6393,426.227 168.477,427.3216 168.2081,428.395 167.8353,429.437 167.3621,430.4373 166.7932,431.3865 166.134,432.2753 165.3909,433.0953 164.5709,433.8384 163.6821,434.4976 162.7329,435.0665 161.7326,435.5397 160.6907,435.9125 159.6172,436.1813 158.5226,436.3437 157.4173,436.398 156.3121,436.3437"/>
    <polygon points="138.0135,427.4236 139.0554,427.7964 140.0558,428.2696 141.0049,428.8385 141.8938,429.4977 142.7137,430.2408 143.4569,431.0608 144.1161,431.9496 144.685,432.8988 145.1581,433.8991 145.5309,434.941 145.7998,436.0145 145.9622,437.1091 146.0165,438.2144 145.9622,439.3196 145.7998,440.4143 145.5309,441.4877 145.1581,442.5296 144.685,443.53 144.1161,444.4792 143.4569,445.368 142.7137,446.1879 141.8938,446.9311 141.0049,447.5903 140.0558,448.1592 139.0554,448.6323 138.0135,449.0051 136.9401,449.274 135.8454,449.4364 134.7402,449.4907 133.6349,449.4364 132.5403,449.274 131.4668,449.0051 130.4249,448.6323 129.4245,448.1592 128.4754,447.5903 127.5865,446.9311 126.7666,446.1879 126.0235,445.368 125.3643,444.4792 124.7953,443.53 124.3222,442.5296 123.9494,441.4877 123.6805,440.4143 123.5181,439.3196 123.4639,438.2144 123.5181,437.1091 123.6805,436.0145 123.9494,434.941 124.3222,433.8991 124.7953,432.8988 125.3643,431.9496 126.0235,431.0608 126.7666,430.2408 127.5865,429.4977 128.4754,428.8385 129.4245,428.2696 130.4249,427.7964 131.4668,427.4236 132.5403,427.1547 133.6349,426.9924 134.7402,426.9381 135.8454,426.9924 136.9401,427.1547"/>
    <polygon points="116.6214,447.6507 116.9942,447.3742 117.3924,447.1356 117.812,446.9371 118.249,446.7807 118.6993,446.668 119.1584,446.5998 119.622,446.5771 120.0857,446.5998 120.5448,446.668 120.9951,446.7807 121.4321,446.9371 121.8517,447.1356 122.2499,447.3742 122.6227,447.6507 122.9666,447.9624 123.2784,448.3064 123.5549,448.6792 123.7935,449.0773 123.992,449.497 124.1483,449.934 124.2611,450.3843 124.3292,450.8434 124.352,451.307 124.3292,451.7707 124.2611,452.2298 124.1483,452.6801 123.992,453.1171 123.7935,453.5367 123.5549,453.9349 123.2784,454.3077 122.9666,454.6516 122.6227,454.9634 122.2499,455.2399 121.8517,455.4785 121.4321,455.677 120.9951,455.8333 120.5448,455.9461 120.0857,456.0142 119.622,456.037 119.1584,456.0142 118.6993,455.9461 118.249,455.8333 117.812,455.677 117.3924,455.4785 116.9942,455.2399 116.6214,454.9634 116.2775,454.6516 115.9657,454.3077 115.6892,453.9349 115.4506,453.5367 115.2521,453.1171 115.0957,452.6801 114.983,452.2298 114.9149,451.7707 114.8921,451.307 114.9149,450.8434 114.983,450.3843 115.0957,449.934 115.2521,449.497 115.4506,449.0773 115.6892,448.6792 115.9657,448.3064 116.2775,447.9624"/>
    <polygon points="114.9149,425.5853 114.8921,425.1217 114.9149,424.6581 114.983,424.1989 115.0957,423.7487 115.2521,423.3116 115.4506,422.892 115.6892,422.4939 115.9657,422.121 116.2775,421.7771 116.6214,421.4654 116.9942,421.1889 117.3924,420.9502 117.812,420.7518 118.249,420.5954 118.6993,420.4826 119.1584,420.4145 119.622,420.3917 120.0857,420.4145 120.5448,420.4826 120.9951,420.5954 121.4321,420.7518 121.8517,420.9502 122.2499,421.1889 122.6227,421.4654 122.9666,421.7771 123.2784,422.121 123.5549,422.4939 123.7935,422.892 123.992,423.3116 124.1483,423.7487 124.2611,424.1989 124.3292,424.6581 124.352,425.1217 124.3292,425.5853 124.2611,426.0445 124.1483,426.4947 123.992,426.9318 123.7935,427.3514 123.5549,427.7495 123.2784,428.1224 122.9666,428.4663 122.6227,428.778 122.2499,429.0545 121.8517,429.2932 121.4321,429.4916 120.9951,429.648 120.5448,429.7608 120.0857,429.8289 119.622,429.8517 119.1584,429.8289 118.6993,429.7608 118.249,429.648 117.812,429.4916 117.3924,429.2932 116.9942,429.0545 116.6214,428.778 116.2775,428.4663 115.9657,428.1224 115.6892,427.7495 115.4506,427.3514 115.2521,426.9318 115.0957,426.4947 114.983,426.0445"/>
    <polygon points="112.9907,418.1118 113.0134,418.5754 112.9907,419.039 112.9226,419.4981 112.8098,419.9484 112.6534,420.3855 112.4549,420.8051 112.2163,421.2032 111.9398,421.576 111.6281,421.92 111.2841,422.2317 110.9113,422.5082 110.5132,422.7468 110.0935,422.9453 109.6565,423.1017 109.2062,423.2145 108.7471,423.2826 108.2835,423.3053 107.8198,423.2826 107.3607,423.2145 106.9104,423.1017 106.4734,422.9453 106.0538,422.7468 105.6556,422.5082 105.2828,422.2317 104.9389,421.92 104.6271,421.576 104.3506,421.2032 104.112,420.8051 103.9135,420.3855 103.7572,419.9484 103.6444,419.4981 103.5763,419.039 103.5535,418.5754 103.5763,418.1118 103.6444,417.6526 103.7572,417.2023 103.9135,416.7653 104.112,416.3457 104.3506,415.9475 104.6271,415.5747 104.9389,415.2308 105.2828,414.9191 105.6556,414.6425 106.0538,414.4039 106.4734,414.2054 106.9104,414.0491 107.3607,413.9363 107.8198,413.8682 108.2835,413.8454 108.7471,413.8682 109.2062,413.9363 109.6565,414.0491 110.0935,414.2054 110.5132,414.4039 110.9113,414.6425 111.2841,414.9191 111.6281,415.2308 111.9398,415.5747 112.2163,415.9475 112.4549,416.3457 112.6534,416.7653 112.8098,417.2023 112.9226,417.6526"/>
    <polygon points="99.1746,303.1162 98.755,302.9178 98.3179,302.7614 97.8677,302.6486 97.4085,302.5805 96.9449,302.5577 96.4813,302.5805 96.0221,302.6486 95.5718,302.7614 95.1348,302.9178 94.7152,303.1162 94.317,303.3549 93.9442,303.6314 93.6003,303.9431 93.2886,304.287 93.0121,304.6599 92.7734,305.058 92.575,305.4776 92.4186,305.9147 92.3058,306.3649 92.2377,306.8241 92.2149,307.2877 92.2377,307.7513 92.3058,308.2105 92.4186,308.6607 92.575,309.0978 92.7734,309.5174 93.0121,309.9155 93.2886,310.2884 93.6003,310.6323 93.9442,310.944 94.317,311.2205 94.7152,311.4592 95.1348,311.6576 95.5718,311.814 96.0221,311.9268 96.4813,311.9949 96.9449,312.0177 97.4085,311.9949 97.8677,311.9268 98.3179,311.814 98.755,311.6576 99.1746,311.4592 99.5727,311.2205 99.9455,310.944 100.2895,310.6323 100.6012,310.2884 100.8777,309.9155 101.1163,309.5174 101.3148,309.0978 101.4712,308.6607 101.584,308.2105 101.6521,307.7513 101.6749,307.2877 101.6521,306.8241 101.584,306.3649 101.4712,305.9147 101.3148,305.4776 101.1163,305.058 100.8777,304.6599 100.6012,304.287 100.2895,303.9431 99.9455,303.6314 99.5727,303.3549"/>
    <polygon points="81.95,297.7407 81.6735,298.1135 81.4348,298.5117 81.2364,298.9313 81.08,299.3683 80.9672,299.8186 80.8991,300.2777 80.8763,300.7414 80.8991,301.205 80.9672,301.6641 81.08,302.1144 81.2364,302.5514 81.4348,302.9711 81.6735,303.3692 81.95,303.742 82.2617,304.086 82.6056,304.3977 82.9785,304.6742 83.3766,304.9128 83.7962,305.1113 84.2333,305.2677 84.6835,305.3805 85.1427,305.4486 85.6063,305.4713 86.0699,305.4486 86.5291,305.3805 86.9793,305.2677 87.4164,305.1113 87.836,304.9128 88.2341,304.6742 88.607,304.3977 88.9509,304.086 89.2626,303.742 89.5391,303.3692 89.7778,302.9711 89.9762,302.5514 90.1326,302.1144 90.2454,301.6641 90.3135,301.205 90.3363,300.7414 90.3135,300.2777 90.2454,299.8186 90.1326,299.3683 89.9762,298.9313 89.7778,298.5117 89.5391,298.1135 89.2626,297.7407 88.9509,297.3968 88.607,297.085 88.2341,296.8085 87.836,296.5699 87.4164,296.3714 86.9793,296.2151 86.5291,296.1023 86.0699,296.0342 85.6063,296.0114 85.1427,296.0342 84.6835,296.1023 84.2333,296.2151 83.7962,296.3714 83.3766,296.5699 82.9785,296.8085 82.6056,297.085 82.2617,297.3968"/>
    <polygon points="104.9094,285.4783 105.7982,284.8191 106.7474,284.2502 107.7477,283.7771 108.7897,283.4043 109.8631,283.1354 110.9577,282.973 112.063,282.9187 113.1683,282.973 114.2629,283.1354 115.3363,283.4043 116.3782,283.7771 117.3786,284.2502 118.3278,284.8191 119.2166,285.4783 120.0365,286.2215 120.7797,287.0414 121.4389,287.9302 122.0078,288.8794 122.4809,289.8798 122.8537,290.9217 123.1226,291.9951 123.285,293.0898 123.3393,294.195 123.285,295.3003 123.1226,296.3949 122.8537,297.4684 122.4809,298.5103 122.0078,299.5106 121.4389,300.4598 120.7797,301.3486 120.0365,302.1686 119.2166,302.9117 118.3278,303.5709 117.3786,304.1398 116.3782,304.613 115.3363,304.9858 114.2629,305.2547 113.1683,305.417 112.063,305.4713 110.9577,305.417 109.8631,305.2547 108.7897,304.9858 107.7477,304.613 106.7474,304.1398 105.7982,303.5709 104.9094,302.9117 104.0894,302.1686 103.3463,301.3486 102.6871,300.4598 102.1182,299.5106 101.645,298.5103 101.2722,297.4684 101.0034,296.3949 100.841,295.3003 100.7867,294.195 100.841,293.0898 101.0034,291.9951 101.2722,290.9217 101.645,289.8798 102.1182,288.8794 102.6871,287.9302 103.3463,287.0414 104.0894,286.2215"/>
    <polygon points="99.1746,276.9309 99.5727,277.1695 99.9455,277.446 100.2895,277.7578 100.6012,278.1017 100.8777,278.4745 101.1163,278.8727 101.3148,279.2923 101.4712,279.7293 101.584,280.1796 101.6521,280.6387 101.6749,281.1024 101.6521,281.566 101.584,282.0251 101.4712,282.4754 101.3148,282.9124 101.1163,283.3321 100.8777,283.7302 100.6012,284.103 100.2895,284.447 99.9455,284.7587 99.5727,285.0352 99.1746,285.2738 98.755,285.4723 98.3179,285.6287 97.8677,285.7414 97.4085,285.8096 96.9449,285.8323 96.4813,285.8096 96.0221,285.7414 95.5718,285.6287 95.1348,285.4723 94.7152,285.2738 94.317,285.0352 93.9442,284.7587 93.6003,284.447 93.2886,284.103 93.0121,283.7302 92.7734,283.3321 92.575,282.9124 92.4186,282.4754 92.3058,282.0251 92.2377,281.566 92.2149,281.1024 92.2377,280.6387 92.3058,280.1796 92.4186,279.7293 92.575,279.2923 92.7734,278.8727 93.0121,278.4745 93.2886,278.1017 93.6003,277.7578 93.9442,277.446 94.317,277.1695 94.7152,276.9309 95.1348,276.7324 95.5718,276.5761 96.0221,276.4633 96.4813,276.3952 96.9449,276.3724 97.4085,276.3952 97.8677,276.4633 98.3179,276.5761 98.755,276.7324"/>
    <polygon points="115.6892,218.2669 115.4506,217.8687 115.2521,217.4491 115.0957,217.0121 114.983,216.5618 114.9149,216.1026 114.8921,215.639 114.9149,215.1754 114.983,214.7163 115.0957,214.266 115.2521,213.8289 115.4506,213.4093 115.6892,213.0112 115.9657,212.6384 116.2775,212.2944 116.6214,211.9827 116.9942,211.7062 117.3924,211.4676 117.812,211.2691 118.249,211.1127 118.6993,210.9999 119.1584,210.9318 119.622,210.9091 120.0857,210.9318 120.5448,210.9999 120.9951,211.1127 121.4321,211.2691 121.8517,211.4676 122.2499,211.7062 122.6227,211.9827 122.9666,212.2944 123.2784,212.6384 123.5549,213.0112 123.7935,213.4093 123.992,213.8289 124.1483,214.266 124.2611,214.7163 124.3292,215.1754 124.352,215.639 124.3292,216.1026 124.2611,216.5618 124.1483,217.0121 123.992,217.4491 123.7935,217.8687 123.5549,218.2669 123.2784,218.6397 122.9666,218.9836 122.6227,219.2953 122.2499,219.5719 121.8517,219.8105 121.4321,220.0089 120.9951,220.1653 120.5448,220.2781 120.0857,220.3462 119.622,220.369 119.1584,220.3462 118.6993,220.2781 118.249,220.1653 117.812,220.0089 117.3924,219.8105 116.9942,219.5719 116.6214,219.2953 116.2775,218.9836 115.9657,218.6397"/>
    <polygon points="139.0554,218.3137 138.0135,217.9409 136.9401,217.6721 135.8454,217.5097 134.7402,217.4554 133.6349,217.5097 132.5403,217.6721 131.4668,217.9409 130.4249,218.3137 129.4245,218.7869 128.4754,219.3558 127.5865,220.015 126.7666,220.7581 126.0235,221.5781 125.3643,222.4669 124.7953,223.4161 124.3222,224.4164 123.9494,225.4584 123.6805,226.5318 123.5181,227.6264 123.4639,228.7317 123.5181,229.837 123.6805,230.9316 123.9494,232.005 124.3222,233.0469 124.7953,234.0473 125.3643,234.9965 126.0235,235.8853 126.7666,236.7052 127.5865,237.4484 128.4754,238.1076 129.4245,238.6765 130.4249,239.1496 131.4668,239.5224 132.5403,239.7913 133.6349,239.9537 134.7402,240.008 135.8454,239.9537 136.9401,239.7913 138.0135,239.5224 139.0554,239.1496 140.0558,238.6765 141.0049,238.1076 141.8938,237.4484 142.7137,236.7052 143.4569,235.8853 144.1161,234.9965 144.685,234.0473 145.1581,233.0469 145.5309,232.005 145.7998,230.9316 145.9622,229.837 146.0165,228.7317 145.9622,227.6264 145.7998,226.5318 145.5309,225.4584 145.1581,224.4164 144.685,223.4161 144.1161,222.4669 143.4569,221.5781 142.7137,220.7581 141.8938,220.015 141.0049,219.3558 140.0558,218.7869"/>
    <polygon points="133.5885,213.0255 133.9613,212.749 134.3052,212.4373 134.6169,212.0934 134.8935,211.7205 135.1321,211.3224 135.3306,210.9028 135.4869,210.4657 135.5997,210.0155 135.6678,209.5563 135.6906,209.0927 135.6678,208.6291 135.5997,208.1699 135.4869,207.7197 135.3306,207.2826 135.1321,206.863 134.8935,206.4649 134.6169,206.092 134.3052,205.7481 133.9613,205.4364 133.5885,205.1599 133.1903,204.9212 132.7707,204.7228 132.3337,204.5664 131.8834,204.4536 131.4242,204.3855 130.9606,204.3627 130.497,204.3855 130.0379,204.4536 129.5876,204.5664 129.1505,204.7228 128.7309,204.9212 128.3328,205.1599 127.96,205.4364 127.616,205.7481 127.3043,206.092 127.0278,206.4649 126.7892,206.863 126.5907,207.2826 126.4343,207.7197 126.3215,208.1699 126.2534,208.6291 126.2307,209.0927 126.2534,209.5563 126.3215,210.0155 126.4343,210.4657 126.5907,210.9028 126.7892,211.3224 127.0278,211.7205 127.3043,212.0934 127.616,212.4373 127.96,212.749 128.3328,213.0255 128.7309,213.2642 129.1505,213.4626 129.5876,213.619 130.0379,213.7318 130.497,213.7999 130.9606,213.8227 131.4242,213.7999 131.8834,213.7318 132.3337,213.619 132.7707,213.4626 133.1903,213.2642"/>
    <polygon points="123.7935,204.7761 123.992,204.3564 124.1483,203.9194 124.2611,203.4691 124.3292,203.01 124.352,202.5464 124.3292,202.0827 124.2611,201.6236 124.1483,201.1733 123.992,200.7363 123.7935,200.3167 123.5549,199.9185 123.2784,199.5457 122.9666,199.2018 122.6227,198.89 122.2499,198.6135 121.8517,198.3749 121.4321,198.1764 120.9951,198.0201 120.5448,197.9073 120.0857,197.8392 119.622,197.8164 119.1584,197.8392 118.6993,197.9073 118.249,198.0201 117.812,198.1764 117.3924,198.3749 116.9942,198.6135 116.6214,198.89 116.2775,199.2018 115.9657,199.5457 115.6892,199.9185 115.4506,200.3167 115.2521,200.7363 115.0957,201.1733 114.983,201.6236 114.9149,202.0827 114.8921,202.5464 114.9149,203.01 114.983,203.4691 115.0957,203.9194 115.2521,204.3564 115.4506,204.7761 115.6892,205.1742 115.9657,205.547 116.2775,205.891 116.6214,206.2027 116.9942,206.4792 117.3924,206.7178 117.812,206.9163 118.249,207.0727 118.6993,207.1854 119.1584,207.2536 119.622,207.2763 120.0857,207.2536 120.5448,207.1854 120.9951,207.0727 121.4321,206.9163 121.8517,206.7178 122.2499,206.4792 122.6227,206.2027 122.9666,205.891 123.2784,205.547 123.5549,205.1742"/>
    <polygon points="134.3052,199.3446 134.6169,199.0007 134.8935,198.6279 135.1321,198.2297 135.3306,197.8101 135.4869,197.3731 135.5997,196.9228 135.6678,196.4636 135.6906,196.0 135.6678,195.5364 135.5997,195.0773 135.4869,194.627 135.3306,194.1899 135.1321,193.7703 134.8935,193.3722 134.6169,192.9994 134.3052,192.6554 133.9613,192.3437 133.5885,192.0672 133.1903,191.8286 132.7707,191.6301 132.3337,191.4737 131.8834,191.3609 131.4242,191.2928 130.9606,191.2701 130.497,191.2928 130.0379,191.3609 129.5876,191.4737 129.1505,191.6301 128.7309,191.8286 128.3328,192.0672 127.96,192.3437 127.616,192.6554 127.3043,192.9994 127.0278,193.3722 126.7892,193.7703 126.5907,194.1899 126.4343,194.627 126.3215,195.0773 126.2534,195.5364 126.2307,196.0 126.2534,196.4636 126.3215,196.9228 126.4343,197.3731 126.5907,197.8101 126.7892,198.2297 127.0278,198.6279 127.3043,199.0007 127.616,199.3446 127.96,199.6563 128.3328,199.9329 128.7309,200.1715 129.1505,200.3699 129.5876,200.5263 130.0379,200.6391 130.497,200.7072 130.9606,200.73 131.4242,200.7072 131.8834,200.6391 132.3337,200.5263 132.7707,200.3699 133.1903,200.1715 133.5885,199.9329 133.9613,199.6563"/>
    <polygon points="123.4617,147.8088 125.0677,146.0369 126.8397,144.4309 128.7605,143.0063 130.8118,141.7768 132.9736,140.7544 135.2253,139.9487 137.5451,139.3676 139.9106,139.0167 142.2992,138.8994 144.6878,139.0167 147.0534,139.3676 149.3732,139.9487 151.6248,140.7544 153.7867,141.7768 155.8379,143.0063 157.7587,144.4309 159.5307,146.0369 161.1367,147.8088 162.5613,149.7297 163.7907,151.7809 164.8132,153.9428 165.6189,156.1944 166.1999,158.5142 166.5508,160.8798 166.6682,163.2684 166.5508,165.6569 166.1999,168.0225 165.6189,170.3423 164.8132,172.594 163.7907,174.7558 162.5613,176.807 161.1367,178.7279 159.5307,180.4998 157.7587,182.1058 155.8379,183.5304 153.7867,184.7599 151.6248,185.7824 149.3732,186.588 147.0534,187.1691 144.6878,187.52 142.2992,187.6373 139.9106,187.52 137.5451,187.1691 135.2253,186.588 132.9736,185.7824 130.8118,184.7599 128.7605,183.5304 126.8397,182.1058 125.0677,180.4998 123.4617,178.7279 122.0372,176.807 120.8077,174.7558 119.7852,172.594 118.9796,170.3423 118.3985,168.0225 118.0476,165.6569 117.9302,163.2684 118.0476,160.8798 118.3985,158.5142 118.9796,156.1944 119.7852,153.9428 120.8077,151.7809 122.0372,149.7297"/>
    <polygon points="127.616,107.6959 127.3043,107.352 127.0278,106.9792 126.7892,106.581 126.5907,106.1614 126.4343,105.7244 126.3215,105.2741 126.2534,104.815 126.2307,104.3514 126.2534,103.8877 126.3215,103.4286 126.4343,102.9783 126.5907,102.5413 126.7892,102.1217 127.0278,101.7235 127.3043,101.3507 127.616,101.0068 127.96,100.695 128.3328,100.4185 128.7309,100.1799 129.1505,99.9814 129.5876,99.825 130.0379,99.7123 130.497,99.6442 130.9606,99.6214 131.4242,99.6442 131.8834,99.7123 132.3337,99.825 132.7707,99.9814 133.1903,100.1799 133.5885,100.4185 133.9613,100.695 134.3052,101.0068 134.6169,101.3507 134.8935,101.7235 135.1321,102.1217 135.3306,102.5413 135.4869,102.9783 135.5997,103.4286 135.6678,103.8877 135.6906,104.3514 135.6678,104.815 135.5997,105.2741 135.4869,105.7244 135.3306,106.1614 135.1321,106.581 134.8935,106.9792 134.6169,107.352 134.3052,107.6959 133.9613,108.0077 133.5885,108.2842 133.1903,108.5228 132.7707,108.7213 132.3337,108.8777 131.8834,108.9904 131.4242,109.0585 130.9606,109.0813 130.497,109.0585 130.0379,108.9904 129.5876,108.8777 129.1505,108.7213 128.7309,108.5228 128.3328,108.2842 127.96,108.0077"/>
    <polygon points="139.0554,113.5724 140.0558,114.0455 141.0049,114.6144 141.8938,115.2736 142.7137,116.0168 143.4569,116.8367 144.1161,117.7256 144.685,118.6747 145.1581,119.6751 145.5309,120.717 145.7998,121.7905 145.9622,122.8851 146.0165,123.9904 145.9622,125.0956 145.7998,126.1903 145.5309,127.2637 145.1581,128.3056 144.685,129.306 144.1161,130.2551 143.4569,131.144 142.7137,131.9639 141.8938,132.7071 141.0049,133.3663 140.0558,133.9352 139.0554,134.4083 138.0135,134.7811 136.9401,135.05 135.8454,135.2124 134.7402,135.2667 133.6349,135.2124 132.5403,135.05 131.4668,134.7811 130.4249,134.4083 129.4245,133.9352 128.4754,133.3663 127.5865,132.7071 126.7666,131.9639 126.0235,131.144 125.3643,130.2551 124.7953,129.306 124.3222,128.3056 123.9494,127.2637 123.6805,126.1903 123.5181,125.0956 123.4639,123.9904 123.5181,122.8851 123.6805,121.7905 123.9494,120.717 124.3222,119.6751 124.7953,118.6747 125.3643,117.7256 126.0235,116.8367 126.7666,116.0168 127.5865,115.2736 128.4754,114.6144 129.4245,114.0455 130.4249,113.5724 131.4668,113.1996 132.5403,112.9307 133.6349,112.7683 134.7402,112.714 135.8454,112.7683 136.9401,112.9307 138.0135,113.1996"/>
    <polygon points="160.8049,126.22 161.0435,126.6182 161.3201,126.991 161.6318,127.3349 161.9757,127.6467 162.3485,127.9232 162.7467,128.1618 163.1663,128.3603 163.6033,128.5167 164.0536,128.6294 164.5128,128.6975 164.9764,128.7203 165.44,128.6975 165.8991,128.6294 166.3494,128.5167 166.7865,128.3603 167.2061,128.1618 167.6042,127.9232 167.977,127.6467 168.321,127.3349 168.6327,126.991 168.9092,126.6182 169.1478,126.22 169.3463,125.8004 169.5027,125.3634 169.6155,124.9131 169.6836,124.454 169.7064,123.9904 169.6836,123.5267 169.6155,123.0676 169.5027,122.6173 169.3463,122.1803 169.1478,121.7607 168.9092,121.3625 168.6327,120.9897 168.321,120.6458 167.977,120.334 167.6042,120.0575 167.2061,119.8189 166.7865,119.6204 166.3494,119.4641 165.8991,119.3513 165.44,119.2832 164.9764,119.2604 164.5128,119.2832 164.0536,119.3513 163.6033,119.4641 163.1663,119.6204 162.7467,119.8189 162.3485,120.0575 161.9757,120.334 161.6318,120.6458 161.3201,120.9897 161.0435,121.3625 160.8049,121.7607 160.6065,122.1803 160.4501,122.6173 160.3373,123.0676 160.2692,123.5267 160.2464,123.9904 160.2692,124.454 160.3373,124.9131 160.4501,125.3634 160.6065,125.8004"/>
    <polygon points="160.2692,137.5466 160.3373,138.0058 160.4501,138.4561 160.6065,138.8931 160.8049,139.3127 161.0435,139.7109 161.3201,140.0837 161.6318,140.4276 161.9757,140.7393 162.3485,141.0158 162.7467,141.2545 163.1663,141.4529 163.6033,141.6093 164.0536,141.7221 164.5128,141.7902 164.9764,141.813 165.44,141.7902 165.8991,141.7221 166.3494,141.6093 166.7865,141.4529 167.2061,141.2545 167.6042,141.0158 167.977,140.7393 168.321,140.4276 168.6327,140.0837 168.9092,139.7109 169.1478,139.3127 169.3463,138.8931 169.5027,138.4561 169.6155,138.0058 169.6836,137.5466 169.7064,137.083 169.6836,136.6194 169.6155,136.1602 169.5027,135.71 169.3463,135.2729 169.1478,134.8533 168.9092,134.4552 168.6327,134.0824 168.321,133.7384 167.977,133.4267 167.6042,133.1502 167.2061,132.9116 166.7865,132.7131 166.3494,132.5567 165.8991,132.4439 165.44,132.3758 164.9764,132.353 164.5128,132.3758 164.0536,132.4439 163.6033,132.5567 163.1663,132.7131 162.7467,132.9116 162.3485,133.1502 161.9757,133.4267 161.6318,133.7384 161.3201,134.0824 161.0435,134.4552 160.8049,134.8533 160.6065,135.2729 160.4501,135.71 160.3373,136.1602 160.2692,136.6194 160.2464,137.083"/>
    <polygon points="180.4864,119.6737 180.2478,120.0719 179.9713,120.4447 179.6596,120.7886 179.3156,121.1003 178.9428,121.3768 178.5447,121.6155 178.125,121.8139 177.688,121.9703 177.2377,122.0831 176.7786,122.1512 176.315,122.174 175.8513,122.1512 175.3922,122.0831 174.9419,121.9703 174.5049,121.8139 174.0853,121.6155 173.6871,121.3768 173.3143,121.1003 172.9704,120.7886 172.6586,120.4447 172.3821,120.0719 172.1435,119.6737 171.945,119.2541 171.7887,118.8171 171.6759,118.3668 171.6078,117.9076 171.585,117.444 171.6078,116.9804 171.6759,116.5212 171.7887,116.071 171.945,115.6339 172.1435,115.2143 172.3821,114.8162 172.6586,114.4434 172.9704,114.0994 173.3143,113.7877 173.6871,113.5112 174.0853,113.2726 174.5049,113.0741 174.9419,112.9177 175.3922,112.8049 175.8513,112.7368 176.315,112.714 176.7786,112.7368 177.2377,112.8049 177.688,112.9177 178.125,113.0741 178.5447,113.2726 178.9428,113.5112 179.3156,113.7877 179.6596,114.0994 179.9713,114.4434 180.2478,114.8162 180.4864,115.2143 180.6849,115.6339 180.8413,116.071 180.954,116.5212 181.0222,116.9804 181.0449,117.444 181.0222,117.9076 180.954,118.3668 180.8413,118.8171 180.6849,119.2541"/>
    <polygon points="180.2478,133.1645 179.9713,133.5373 179.6596,133.8813 179.3156,134.193 178.9428,134.4695 178.5447,134.7081 178.125,134.9066 177.688,135.063 177.2377,135.1758 176.7786,135.2439 176.315,135.2667 175.8513,135.2439 175.3922,135.1758 174.9419,135.063 174.5049,134.9066 174.0853,134.7081 173.6871,134.4695 173.3143,134.193 172.9704,133.8813 172.6586,133.5373 172.3821,133.1645 172.1435,132.7664 171.945,132.3468 171.7887,131.9097 171.6759,131.4595 171.6078,131.0003 171.585,130.5367 171.6078,130.0731 171.6759,129.6139 171.7887,129.1636 171.945,128.7266 172.1435,128.307 172.3821,127.9089 172.6586,127.536 172.9704,127.1921 173.3143,126.8804 173.6871,126.6039 174.0853,126.3652 174.5049,126.1668 174.9419,126.0104 175.3922,125.8976 175.8513,125.8295 176.315,125.8067 176.7786,125.8295 177.2377,125.8976 177.688,126.0104 178.125,126.1668 178.5447,126.3652 178.9428,126.6039 179.3156,126.8804 179.6596,127.1921 179.9713,127.536 180.2478,127.9089 180.4864,128.307 180.6849,128.7266 180.8413,129.1636 180.954,129.6139 181.0222,130.0731 181.0449,130.5367 181.0222,131.0003 180.954,131.4595 180.8413,131.9097 180.6849,132.3468 180.4864,132.7664"/>
    <polygon points="188.068,142.2021 188.8112,143.0221 189.4704,143.9109 190.0393,144.8601 190.5124,145.8604 190.8852,146.9023 191.1541,147.9758 191.3165,149.0704 191.3708,150.1757 191.3165,151.281 191.1541,152.3756 190.8852,153.449 190.5124,154.4909 190.0393,155.4913 189.4704,156.4405 188.8112,157.3293 188.068,158.1492 187.2481,158.8924 186.3593,159.5516 185.4101,160.1205 184.4097,160.5936 183.3678,160.9664 182.2944,161.2353 181.1998,161.3977 180.0945,161.452 178.9892,161.3977 177.8946,161.2353 176.8211,160.9664 175.7792,160.5936 174.7789,160.1205 173.8297,159.5516 172.9409,158.8924 172.1209,158.1492 171.3778,157.3293 170.7186,156.4405 170.1497,155.4913 169.6765,154.4909 169.3037,153.449 169.0349,152.3756 168.8725,151.281 168.8182,150.1757 168.8725,149.0704 169.0349,147.9758 169.3037,146.9023 169.6765,145.8604 170.1497,144.8601 170.7186,143.9109 171.3778,143.0221 172.1209,142.2021 172.9409,141.459 173.8297,140.7998 174.7789,140.2309 175.7792,139.7577 176.8211,139.3849 177.8946,139.1161 178.9892,138.9537 180.0945,138.8994 181.1998,138.9537 182.2944,139.1161 183.3678,139.3849 184.4097,139.7577 185.4101,140.2309 186.3593,140.7998 187.2481,141.459"/>
    <polygon points="206.3979,139.7109 206.1592,139.3127 205.9608,138.8931 205.8044,138.4561 205.6916,138.0058 205.6235,137.5466 205.6007,137.083 205.6235,136.6194 205.6916,136.1602 205.8044,135.71 205.9608,135.2729 206.1592,134.8533 206.3979,134.4552 206.6744,134.0824 206.9861,133.7384 207.33,133.4267 207.7029,133.1502 208.101,132.9116 208.5206,132.7131 208.9577,132.5567 209.4079,132.4439 209.8671,132.3758 210.3307,132.353 210.7943,132.3758 211.2535,132.4439 211.7037,132.5567 212.1408,132.7131 212.5604,132.9116 212.9585,133.1502 213.3314,133.4267 213.6753,133.7384 213.987,134.0824 214.2635,134.4552 214.5022,134.8533 214.7006,135.2729 214.857,135.71 214.9698,136.1602 215.0379,136.6194 215.0607,137.083 215.0379,137.5466 214.9698,138.0058 214.857,138.4561 214.7006,138.8931 214.5022,139.3127 214.2635,139.7109 213.987,140.0837 213.6753,140.4276 213.3314,140.7393 212.9585,141.0158 212.5604,141.2545 212.1408,141.4529 211.7037,141.6093 211.2535,141.7221 210.7943,141.7902 210.3307,141.813 209.8671,141.7902 209.4079,141.7221 208.9577,141.6093 208.5206,141.4529 208.101,141.2545 207.7029,141.0158 207.33,140.7393 206.9861,140.4276 206.6744,140.0837"/>
    <polygon points="216.9621,144.093 216.9393,143.6294 216.9621,143.1657 217.0302,142.7066 217.143,142.2563 217.2994,141.8193 217.4978,141.3997 217.7365,141.0015 218.013,140.6287 218.3247,140.2848 218.6686,139.973 219.0415,139.6965 219.4396,139.4579 219.8592,139.2594 220.2963,139.1031 220.7465,138.9903 221.2057,138.9222 221.6693,138.8994 222.1329,138.9222 222.5921,138.9903 223.0423,139.1031 223.4794,139.2594 223.899,139.4579 224.2971,139.6965 224.67,139.973 225.0139,140.2848 225.3256,140.6287 225.6021,141.0015 225.8408,141.3997 226.0392,141.8193 226.1956,142.2563 226.3084,142.7066 226.3765,143.1657 226.3993,143.6294 226.3765,144.093 226.3084,144.5521 226.1956,145.0024 226.0392,145.4394 225.8408,145.859 225.6021,146.2572 225.3256,146.63 225.0139,146.9739 224.67,147.2857 224.2971,147.5622 223.899,147.8008 223.4794,147.9993 223.0423,148.1557 222.5921,148.2684 222.1329,148.3365 221.6693,148.3593 221.2057,148.3365 220.7465,148.2684 220.2963,148.1557 219.8592,147.9993 219.4396,147.8008 219.0415,147.5622 218.6686,147.2857 218.3247,146.9739 218.013,146.63 217.7365,146.2572 217.4978,145.859 217.2994,145.4394 217.143,145.0024 217.0302,144.5521"/>
    <polygon points="213.6753,153.5203 213.3314,153.832 212.9585,154.1085 212.5604,154.3472 212.1408,154.5456 211.7037,154.702 211.2535,154.8148 210.7943,154.8829 210.3307,154.9057 209.8671,154.8829 209.4079,154.8148 208.9577,154.702 208.5206,154.5456 208.101,154.3472 207.7029,154.1085 207.33,153.832 206.9861,153.5203 206.6744,153.1763 206.3979,152.8035 206.1592,152.4054 205.9608,151.9858 205.8044,151.5487 205.6916,151.0985 205.6235,150.6393 205.6007,150.1757 205.6235,149.7121 205.6916,149.2529 205.8044,148.8026 205.9608,148.3656 206.1592,147.946 206.3979,147.5479 206.6744,147.175 206.9861,146.8311 207.33,146.5194 207.7029,146.2429 208.101,146.0042 208.5206,145.8058 208.9577,145.6494 209.4079,145.5366 209.8671,145.4685 210.3307,145.4457 210.7943,145.4685 211.2535,145.5366 211.7037,145.6494 212.1408,145.8058 212.5604,146.0042 212.9585,146.2429 213.3314,146.5194 213.6753,146.8311 213.987,147.175 214.2635,147.5479 214.5022,147.946 214.7006,148.3656 214.857,148.8026 214.9698,149.2529 215.0379,149.7121 215.0607,150.1757 215.0379,150.6393 214.9698,151.0985 214.857,151.5487 214.7006,151.9858 214.5022,152.4054 214.2635,152.8035 213.987,153.1763"/>
    <polygon points="223.899,152.5506 224.2971,152.7892 224.67,153.0657 225.0139,153.3774 225.3256,153.7214 225.6021,154.0942 225.8408,154.4923 226.0392,154.9119 226.1956,155.349 226.3084,155.7992 226.3765,156.2584 226.3993,156.722 226.3765,157.1856 226.3084,157.6448 226.1956,158.0951 226.0392,158.5321 225.8408,158.9517 225.6021,159.3499 225.3256,159.7227 225.0139,160.0666 224.67,160.3783 224.2971,160.6548 223.899,160.8935 223.4794,161.0919 223.0423,161.2483 222.5921,161.3611 222.1329,161.4292 221.6693,161.452 221.2057,161.4292 220.7465,161.3611 220.2963,161.2483 219.8592,161.0919 219.4396,160.8935 219.0415,160.6548 218.6686,160.3783 218.3247,160.0666 218.013,159.7227 217.7365,159.3499 217.4978,158.9517 217.2994,158.5321 217.143,158.0951 217.0302,157.6448 216.9621,157.1856 216.9393,156.722 216.9621,156.2584 217.0302,155.7992 217.143,155.349 217.2994,154.9119 217.4978,154.4923 217.7365,154.0942 218.013,153.7214 218.3247,153.3774 218.6686,153.0657 219.0415,152.7892 219.4396,152.5506 219.8592,152.3521 220.2963,152.1957 220.7465,152.0829 221.2057,152.0148 221.6693,151.992 222.1329,152.0148 222.5921,152.0829 223.0423,152.1957 223.4794,152.3521"/>
    <polygon points="239.8202,155.349 239.9765,154.9119 240.175,154.4923 240.4136,154.0942 240.6901,153.7214 241.0019,153.3774 241.3458,153.0657 241.7186,152.7892 242.1168,152.5506 242.5364,152.3521 242.9734,152.1957 243.4237,152.0829 243.8828,152.0148 244.3465,151.992 244.8101,152.0148 245.2692,152.0829 245.7195,152.1957 246.1565,152.3521 246.5762,152.5506 246.9743,152.7892 247.3471,153.0657 247.6911,153.3774 248.0028,153.7214 248.2793,154.0942 248.5179,154.4923 248.7164,154.9119 248.8728,155.349 248.9855,155.7992 249.0537,156.2584 249.0764,156.722 249.0537,157.1856 248.9855,157.6448 248.8728,158.0951 248.7164,158.5321 248.5179,158.9517 248.2793,159.3499 248.0028,159.7227 247.6911,160.0666 247.3471,160.3783 246.9743,160.6548 246.5762,160.8935 246.1565,161.0919 245.7195,161.2483 245.2692,161.3611 244.8101,161.4292 244.3465,161.452 243.8828,161.4292 243.4237,161.3611 242.9734,161.2483 242.5364,161.0919 242.1168,160.8935 241.7186,160.6548 241.3458,160.3783 241.0019,160.0666 240.6901,159.7227 240.4136,159.3499 240.175,158.9517 239.9765,158.5321 239.8202,158.0951 239.7074,157.6448 239.6393,157.1856 239.6165,156.722 239.6393,156.2584 239.7074,155.7992"/>
    <polygon points="246.5762,165.6432 246.9743,165.8819 247.3471,166.1584 247.6911,166.4701 248.0028,166.814 248.2793,167.1869 248.5179,167.585 248.7164,168.0046 248.8728,168.4416 248.9855,168.8919 249.0537,169.3511 249.0764,169.8147 249.0537,170.2783 248.9855,170.7375 248.8728,171.1877 248.7164,171.6248 248.5179,172.0444 248.2793,172.4425 248.0028,172.8154 247.6911,173.1593 247.3471,173.471 246.9743,173.7475 246.5762,173.9862 246.1565,174.1846 245.7195,174.341 245.2692,174.4538 244.8101,174.5219 244.3465,174.5447 243.8828,174.5219 243.4237,174.4538 242.9734,174.341 242.5364,174.1846 242.1168,173.9862 241.7186,173.7475 241.3458,173.471 241.0019,173.1593 240.6901,172.8154 240.4136,172.4425 240.175,172.0444 239.9765,171.6248 239.8202,171.1877 239.7074,170.7375 239.6393,170.2783 239.6165,169.8147 239.6393,169.3511 239.7074,168.8919 239.8202,168.4416 239.9765,168.0046 240.175,167.585 240.4136,167.1869 240.6901,166.814 241.0019,166.4701 241.3458,166.1584 241.7186,165.8819 242.1168,165.6432 242.5364,165.4448 242.9734,165.2884 243.4237,165.1756 243.8828,165.1075 244.3465,165.0847 244.8101,165.1075 245.2692,165.1756 245.7195,165.2884 246.1565,165.4448"/>
    <polygon points="235.8668,180.6763 235.3936,181.6766 234.8247,182.6258 234.1655,183.5146 233.4224,184.3346 232.6024,185.0777 231.7136,185.7369 230.7644,186.3058 229.7641,186.779 228.7222,187.1518 227.6487,187.4207 226.5541,187.583 225.4488,187.6373 224.3435,187.583 223.2489,187.4207 222.1755,187.1518 221.1336,186.779 220.1332,186.3058 219.184,185.7369 218.2952,185.0777 217.4753,184.3346 216.7321,183.5146 216.0729,182.6258 215.504,181.6766 215.0309,180.6763 214.6581,179.6344 214.3892,178.5609 214.2268,177.4663 214.1725,176.361 214.2268,175.2558 214.3892,174.1611 214.6581,173.0877 215.0309,172.0458 215.504,171.0454 216.0729,170.0962 216.7321,169.2074 217.4753,168.3875 218.2952,167.6443 219.184,166.9851 220.1332,166.4162 221.1336,165.9431 222.1755,165.5703 223.2489,165.3014 224.3435,165.139 225.4488,165.0847 226.5541,165.139 227.6487,165.3014 228.7222,165.5703 229.7641,165.9431 230.7644,166.4162 231.7136,166.9851 232.6024,167.6443 233.4224,168.3875 234.1655,169.2074 234.8247,170.0962 235.3936,171.0454 235.8668,172.0458 236.2396,173.0877 236.5085,174.1611 236.6708,175.2558 236.7251,176.361 236.6708,177.4663 236.5085,178.5609 236.2396,179.6344"/>
    <polygon points="201.1922,169.1916 203.1131,170.6162 204.885,172.2222 206.491,173.9942 207.9156,175.915 209.1451,177.9662 210.1675,180.1281 210.9732,182.3797 211.5543,184.6995 211.9052,187.0651 212.0225,189.4537 211.9052,191.8423 211.5543,194.2078 210.9732,196.5276 210.1675,198.7793 209.1451,200.9411 207.9156,202.9924 206.491,204.9132 204.885,206.6852 203.1131,208.2912 201.1922,209.7158 199.141,210.9452 196.9791,211.9677 194.7275,212.7733 192.4077,213.3544 190.0421,213.7053 187.6535,213.8227 185.265,213.7053 182.8994,213.3544 180.5796,212.7733 178.3279,211.9677 176.1661,210.9452 174.1149,209.7158 172.194,208.2912 170.4221,206.6852 168.8161,204.9132 167.3915,202.9924 166.162,200.9411 165.1395,198.7793 164.3339,196.5276 163.7528,194.2078 163.4019,191.8423 163.2846,189.4537 163.4019,187.0651 163.7528,184.6995 164.3339,182.3797 165.1395,180.1281 166.162,177.9662 167.3915,175.915 168.8161,173.9942 170.4221,172.2222 172.194,170.6162 174.1149,169.1916 176.1661,167.9622 178.3279,166.9397 180.5796,166.134 182.8994,165.553 185.265,165.2021 187.6535,165.0847 190.0421,165.2021 192.4077,165.553 194.7275,166.134 196.9791,166.9397 199.141,167.9622"/>
    <polygon points="185.265,217.5727 187.6535,217.4554 190.0421,217.5727 192.4077,217.9236 194.7275,218.5047 196.9791,219.3104 199.141,220.3328 201.1922,221.5623 203.1131,222.9869 204.885,224.5929 206.491,226.3648 207.9156,228.2857 209.1451,230.3369 210.1675,232.4988 210.9732,234.7504 211.5543,237.0702 211.9052,239.4358 212.0225,241.8244 211.9052,244.2129 211.5543,246.5785 210.9732,248.8983 210.1675,251.15 209.1451,253.3118 207.9156,255.363 206.491,257.2839 204.885,259.0558 203.1131,260.6618 201.1922,262.0864 199.141,263.3159 196.9791,264.3384 194.7275,265.144 192.4077,265.7251 190.0421,266.076 187.6535,266.1933 185.265,266.076 182.8994,265.7251 180.5796,265.144 178.3279,264.3384 176.1661,263.3159 174.1149,262.0864 172.194,260.6618 170.4221,259.0558 168.8161,257.2839 167.3915,255.363 166.162,253.3118 165.1395,251.15 164.3339,248.8983 163.7528,246.5785 163.4019,244.2129 163.2846,241.8244 163.4019,239.4358 163.7528,237.0702 164.3339,234.7504 165.1395,232.4988 166.162,230.3369 167.3915,228.2857 168.8161,226.3648 170.4221,224.5929 172.194,222.9869 174.1149,221.5623 176.1661,220.3328 178.3279,219.3104 180.5796,218.5047 182.8994,217.9236"/>
    <polygon points="217.4978,263.6931 217.7365,264.0912 218.013,264.464 218.3247,264.808 218.6686,265.1197 219.0415,265.3962 219.4396,265.6348 219.8592,265.8333 220.2963,265.9897 220.7465,266.1024 221.2057,266.1706 221.6693,266.1933 222.1329,266.1706 222.5921,266.1024 223.0423,265.9897 223.4794,265.8333 223.899,265.6348 224.2971,265.3962 224.67,265.1197 225.0139,264.808 225.3256,264.464 225.6021,264.0912 225.8408,263.6931 226.0392,263.2734 226.1956,262.8364 226.3084,262.3861 226.3765,261.927 226.3993,261.4634 226.3765,260.9997 226.3084,260.5406 226.1956,260.0903 226.0392,259.6533 225.8408,259.2337 225.6021,258.8355 225.3256,258.4627 225.0139,258.1188 224.67,257.807 224.2971,257.5305 223.899,257.2919 223.4794,257.0934 223.0423,256.9371 222.5921,256.8243 222.1329,256.7562 221.6693,256.7334 221.2057,256.7562 220.7465,256.8243 220.2963,256.9371 219.8592,257.0934 219.4396,257.2919 219.0415,257.5305 218.6686,257.807 218.3247,258.1188 218.013,258.4627 217.7365,258.8355 217.4978,259.2337 217.2994,259.6533 217.143,260.0903 217.0302,260.5406 216.9621,260.9997 216.9393,261.4634 216.9621,261.927 217.0302,262.3861 217.143,262.8364 217.2994,263.2734"/>
    <polygon points="232.5443,259.6242 233.0079,259.647 233.4715,259.6242 233.9306,259.5561 234.3809,259.4433 234.818,259.287 235.2376,259.0885 235.6357,258.8499 236.0085,258.5733 236.3525,258.2616 236.6642,257.9177 236.9407,257.5449 237.1793,257.1467 237.3778,256.7271 237.5342,256.2901 237.647,255.8398 237.7151,255.3806 237.7378,254.917 237.7151,254.4534 237.647,253.9943 237.5342,253.544 237.3778,253.1069 237.1793,252.6873 236.9407,252.2892 236.6642,251.9164 236.3525,251.5724 236.0085,251.2607 235.6357,250.9842 235.2376,250.7456 234.818,250.5471 234.3809,250.3907 233.9306,250.2779 233.4715,250.2098 233.0079,250.1871 232.5443,250.2098 232.0851,250.2779 231.6348,250.3907 231.1978,250.5471 230.7782,250.7456 230.38,250.9842 230.0072,251.2607 229.6633,251.5724 229.3516,251.9164 229.075,252.2892 228.8364,252.6873 228.6379,253.1069 228.4816,253.544 228.3688,253.9943 228.3007,254.4534 228.2779,254.917 228.3007,255.3806 228.3688,255.8398 228.4816,256.2901 228.6379,256.7271 228.8364,257.1467 229.075,257.5449 229.3516,257.9177 229.6633,258.2616 230.0072,258.5733 230.38,258.8499 230.7782,259.0885 231.1978,259.287 231.6348,259.4433 232.0851,259.5561"/>
    <polygon points="249.0537,274.0924 248.9855,273.6333 248.8728,273.183 248.7164,272.7459 248.5179,272.3263 248.2793,271.9282 248.0028,271.5554 247.6911,271.2114 247.3471,270.8997 246.9743,270.6232 246.5762,270.3846 246.1565,270.1861 245.7195,270.0297 245.2692,269.9169 244.8101,269.8488 244.3465,269.8261 243.8828,269.8488 243.4237,269.9169 242.9734,270.0297 242.5364,270.1861 242.1168,270.3846 241.7186,270.6232 241.3458,270.8997 241.0019,271.2114 240.6901,271.5554 240.4136,271.9282 240.175,272.3263 239.9765,272.7459 239.8202,273.183 239.7074,273.6333 239.6393,274.0924 239.6165,274.556 239.6393,275.0196 239.7074,275.4788 239.8202,275.9291 239.9765,276.3661 240.175,276.7857 240.4136,277.1839 240.6901,277.5567 241.0019,277.9006 241.3458,278.2123 241.7186,278.4889 242.1168,278.7275 242.5364,278.926 242.9734,279.0823 243.4237,279.1951 243.8828,279.2632 244.3465,279.286 244.8101,279.2632 245.2692,279.1951 245.7195,279.0823 246.1565,278.926 246.5762,278.7275 246.9743,278.4889 247.3471,278.2123 247.6911,277.9006 248.0028,277.5567 248.2793,277.1839 248.5179,276.7857 248.7164,276.3661 248.8728,275.9291 248.9855,275.4788 249.0537,275.0196 249.0764,274.556"/>
    <polygon points="244.3465,282.9187 243.8828,282.9415 243.4237,283.0096 242.9734,283.1224 242.5364,283.2788 242.1168,283.4772 241.7186,283.7159 241.3458,283.9924 241.0019,284.3041 240.6901,284.648 240.4136,285.0209 240.175,285.419 239.9765,285.8386 239.8202,286.2757 239.7074,286.7259 239.6393,287.1851 239.6165,287.6487 239.6393,288.1123 239.7074,288.5715 239.8202,289.0217 239.9765,289.4588 240.175,289.8784 240.4136,290.2765 240.6901,290.6494 241.0019,290.9933 241.3458,291.305 241.7186,291.5815 242.1168,291.8202 242.5364,292.0186 242.9734,292.175 243.4237,292.2878 243.8828,292.3559 244.3465,292.3787 244.8101,292.3559 245.2692,292.2878 245.7195,292.175 246.1565,292.0186 246.5762,291.8202 246.9743,291.5815 247.3471,291.305 247.6911,290.9933 248.0028,290.6494 248.2793,290.2765 248.5179,289.8784 248.7164,289.4588 248.8728,289.0217 248.9855,288.5715 249.0537,288.1123 249.0764,287.6487 249.0537,287.1851 248.9855,286.7259 248.8728,286.2757 248.7164,285.8386 248.5179,285.419 248.2793,285.0209 248.0028,284.648 247.6911,284.3041 247.3471,283.9924 246.9743,283.7159 246.5762,283.4772 246.1565,283.2788 245.7195,283.1224 245.2692,283.0096 244.8101,282.9415"/>
    <polygon points="222.1755,291.8931 223.2489,292.162 224.3435,292.3244 225.4488,292.3787 226.5541,292.3244 227.6487,292.162 228.7222,291.8931 229.7641,291.5203 230.7644,291.0472 231.7136,290.4783 232.6024,289.8191 233.4224,289.0759 234.1655,288.256 234.8247,287.3671 235.3936,286.418 235.8668,285.4176 236.2396,284.3757 236.5085,283.3023 236.6708,282.2076 236.7251,281.1024 236.6708,279.9971 236.5085,278.9025 236.2396,277.829 235.8668,276.7871 235.3936,275.7867 234.8247,274.8376 234.1655,273.9487 233.4224,273.1288 232.6024,272.3857 231.7136,271.7265 230.7644,271.1575 229.7641,270.6844 228.7222,270.3116 227.6487,270.0427 226.5541,269.8804 225.4488,269.8261 224.3435,269.8804 223.2489,270.0427 222.1755,270.3116 221.1336,270.6844 220.1332,271.1575 219.184,271.7265 218.2952,272.3857 217.4753,273.1288 216.7321,273.9487 216.0729,274.8376 215.504,275.7867 215.0309,276.7871 214.6581,277.829 214.3892,278.9025 214.2268,279.9971 214.1725,281.1024 214.2268,282.2076 214.3892,283.3023 214.6581,284.3757 215.0309,285.4176 215.504,286.418 216.0729,287.3671 216.7321,288.256 217.4753,289.0759 218.2952,289.8191 219.184,290.4783 220.1332,291.0472 221.1336,291.5203"/>
    <polygon points="168.8161,278.7355 170.4221,276.9636 172.194,275.3576 174.1149,273.933 176.1661,272.7035 178.3279,271.681 180.5796,270.8754 182.8994,270.2943 185.265,269.9434 187.6535,269.8261 190.0421,269.9434 192.4077,270.2943 194.7275,270.8754 196.9791,271.681 199.141,272.7035 201.1922,273.933 203.1131,275.3576 204.885,276.9636 206.491,278.7355 207.9156,280.6564 209.1451,282.7076 210.1675,284.8694 210.9732,287.1211 211.5543,289.4409 211.9052,291.8065 212.0225,294.195 211.9052,296.5836 211.5543,298.9492 210.9732,301.269 210.1675,303.5206 209.1451,305.6825 207.9156,307.7337 206.491,309.6545 204.885,311.4265 203.1131,313.0325 201.1922,314.4571 199.141,315.6865 196.9791,316.709 194.7275,317.5147 192.4077,318.0958 190.0421,318.4467 187.6535,318.564 185.265,318.4467 182.8994,318.0958 180.5796,317.5147 178.3279,316.709 176.1661,315.6865 174.1149,314.4571 172.194,313.0325 170.4221,311.4265 168.8161,309.6545 167.3915,307.7337 166.162,305.6825 165.1395,303.5206 164.3339,301.269 163.7528,298.9492 163.4019,296.5836 163.2846,294.195 163.4019,291.8065 163.7528,289.4409 164.3339,287.1211 165.1395,284.8694 166.162,282.7076 167.3915,280.6564"/>
    <polygon points="149.3732,291.3293 147.0534,291.9104 144.6878,292.2613 142.2992,292.3787 139.9106,292.2613 137.5451,291.9104 135.2253,291.3293 132.9736,290.5237 130.8118,289.5012 128.7605,288.2718 126.8397,286.8472 125.0677,285.2412 123.4617,283.4692 122.0372,281.5484 120.8077,279.4971 119.7852,277.3353 118.9796,275.0836 118.3985,272.7638 118.0476,270.3983 117.9302,268.0097 118.0476,265.6211 118.3985,263.2555 118.9796,260.9358 119.7852,258.6841 120.8077,256.5222 122.0372,254.471 123.4617,252.5502 125.0677,250.7782 126.8397,249.1722 128.7605,247.7476 130.8118,246.5182 132.9736,245.4957 135.2253,244.69 137.5451,244.109 139.9106,243.7581 142.2992,243.6407 144.6878,243.7581 147.0534,244.109 149.3732,244.69 151.6248,245.4957 153.7867,246.5182 155.8379,247.7476 157.7587,249.1722 159.5307,250.7782 161.1367,252.5502 162.5613,254.471 163.7907,256.5222 164.8132,258.6841 165.6189,260.9358 166.1999,263.2555 166.5508,265.6211 166.6682,268.0097 166.5508,270.3983 166.1999,272.7638 165.6189,275.0836 164.8132,277.3353 163.7907,279.4971 162.5613,281.5484 161.1367,283.4692 159.5307,285.2412 157.7587,286.8472 155.8379,288.2718 153.7867,289.5012 151.6248,290.5237"/>
    <polygon points="149.3732,343.7 147.0534,344.2811 144.6878,344.632 142.2992,344.7493 139.9106,344.632 137.5451,344.2811 135.2253,343.7 132.9736,342.8944 130.8118,341.8719 128.7605,340.6424 126.8397,339.2178 125.0677,337.6118 123.4617,335.8399 122.0372,333.919 120.8077,331.8678 119.7852,329.706 118.9796,327.4543 118.3985,325.1345 118.0476,322.7689 117.9302,320.3804 118.0476,317.9918 118.3985,315.6262 118.9796,313.3064 119.7852,311.0548 120.8077,308.8929 122.0372,306.8417 123.4617,304.9209 125.0677,303.1489 126.8397,301.5429 128.7605,300.1183 130.8118,298.8888 132.9736,297.8664 135.2253,297.0607 137.5451,296.4796 139.9106,296.1287 142.2992,296.0114 144.6878,296.1287 147.0534,296.4796 149.3732,297.0607 151.6248,297.8664 153.7867,298.8888 155.8379,300.1183 157.7587,301.5429 159.5307,303.1489 161.1367,304.9209 162.5613,306.8417 163.7907,308.8929 164.8132,311.0548 165.6189,313.3064 166.1999,315.6262 166.5508,317.9918 166.6682,320.3804 166.5508,322.7689 166.1999,325.1345 165.6189,327.4543 164.8132,329.706 163.7907,331.8678 162.5613,333.919 161.1367,335.8399 159.5307,337.6118 157.7587,339.2178 155.8379,340.6424 153.7867,341.8719 151.6248,342.8944"/>
    <polygon points="145.2999,356.002 145.6438,356.3138 145.9555,356.6577 146.232,357.0305 146.4707,357.4287 146.6691,357.8483 146.8255,358.2853 146.9383,358.7356 147.0064,359.1947 147.0292,359.6584 147.0064,360.122 146.9383,360.5811 146.8255,361.0314 146.6691,361.4684 146.4707,361.8881 146.232,362.2862 145.9555,362.659 145.6438,363.003 145.2999,363.3147 144.927,363.5912 144.5289,363.8298 144.1093,364.0283 143.6723,364.1847 143.222,364.2975 142.7628,364.3656 142.2992,364.3883 141.8356,364.3656 141.3764,364.2975 140.9262,364.1847 140.4891,364.0283 140.0695,363.8298 139.6714,363.5912 139.2985,363.3147 138.9546,363.003 138.6429,362.659 138.3664,362.2862 138.1277,361.8881 137.9293,361.4684 137.7729,361.0314 137.6601,360.5811 137.592,360.122 137.5692,359.6584 137.592,359.1947 137.6601,358.7356 137.7729,358.2853 137.9293,357.8483 138.1277,357.4287 138.3664,357.0305 138.6429,356.6577 138.9546,356.3138 139.2985,356.002 139.6714,355.7255 140.0695,355.4869 140.4891,355.2884 140.9262,355.1321 141.3764,355.0193 141.8356,354.9512 142.2992,354.9284 142.7628,354.9512 143.222,355.0193 143.6723,355.1321 144.1093,355.2884 144.5289,355.4869 144.927,355.7255"/>
    <polygon points="144.1093,381.4738 144.5289,381.6722 144.927,381.9109 145.2999,382.1874 145.6438,382.4991 145.9555,382.843 146.232,383.2159 146.4707,383.614 146.6691,384.0336 146.8255,384.4707 146.9383,384.9209 147.0064,385.3801 147.0292,385.8437 147.0064,386.3073 146.9383,386.7665 146.8255,387.2167 146.6691,387.6538 146.4707,388.0734 146.232,388.4715 145.9555,388.8444 145.6438,389.1883 145.2999,389.5 144.927,389.7765 144.5289,390.0152 144.1093,390.2136 143.6723,390.37 143.222,390.4828 142.7628,390.5509 142.2992,390.5737 141.8356,390.5509 141.3764,390.4828 140.9262,390.37 140.4891,390.2136 140.0695,390.0152 139.6714,389.7765 139.2985,389.5 138.9546,389.1883 138.6429,388.8444 138.3664,388.4715 138.1277,388.0734 137.9293,387.6538 137.7729,387.2167 137.6601,386.7665 137.592,386.3073 137.5692,385.8437 137.592,385.3801 137.6601,384.9209 137.7729,384.4707 137.9293,384.0336 138.1277,383.614 138.3664,383.2159 138.6429,382.843 138.9546,382.4991 139.2985,382.1874 139.6714,381.9109 140.0695,381.6722 140.4891,381.4738 140.9262,381.3174 141.3764,381.2046 141.8356,381.1365 142.2992,381.1137 142.7628,381.1365 143.222,381.2046 143.6723,381.3174"/>
    <polygon points="148.9306,391.9264 148.9987,391.4673 149.1115,391.017 149.2679,390.58 149.4663,390.1603 149.705,389.7622 149.9815,389.3894 150.2932,389.0454 150.6371,388.7337 151.01,388.4572 151.4081,388.2186 151.8277,388.0201 152.2648,387.8637 152.715,387.7509 153.1742,387.6828 153.6378,387.6601 154.1014,387.6828 154.5606,387.7509 155.0108,387.8637 155.4479,388.0201 155.8675,388.2186 156.2656,388.4572 156.6385,388.7337 156.9824,389.0454 157.2941,389.3894 157.5706,389.7622 157.8093,390.1603 158.0077,390.58 158.1641,391.017 158.2769,391.4673 158.345,391.9264 158.3678,392.39 158.345,392.8537 158.2769,393.3128 158.1641,393.7631 158.0077,394.2001 157.8093,394.6197 157.5706,395.0179 157.2941,395.3907 156.9824,395.7346 156.6385,396.0464 156.2656,396.3229 155.8675,396.5615 155.4479,396.76 155.0108,396.9163 154.5606,397.0291 154.1014,397.0972 153.6378,397.12 153.1742,397.0972 152.715,397.0291 152.2648,396.9163 151.8277,396.76 151.4081,396.5615 151.01,396.3229 150.6371,396.0464 150.2932,395.7346 149.9815,395.3907 149.705,395.0179 149.4663,394.6197 149.2679,394.2001 149.1115,393.7631 148.9987,393.3128 148.9306,392.8537 148.9078,392.39"/>
    <polygon points="151.1525,382.1269 152.1017,382.6958 153.1021,383.169 154.144,383.5418 155.2174,383.8107 156.3121,383.973 157.4173,384.0273 158.5226,383.973 159.6172,383.8107 160.6907,383.5418 161.7326,383.169 162.7329,382.6958 163.6821,382.1269 164.5709,381.4677 165.3909,380.7246 166.134,379.9046 166.7932,379.0158 167.3621,378.0666 167.8353,377.0663 168.2081,376.0244 168.477,374.9509 168.6393,373.8563 168.6936,372.751 168.6393,371.6458 168.477,370.5511 168.2081,369.4777 167.8353,368.4358 167.3621,367.4354 166.7932,366.4863 166.134,365.5974 165.3909,364.7775 164.5709,364.0343 163.6821,363.3751 162.7329,362.8062 161.7326,362.3331 160.6907,361.9603 159.6172,361.6914 158.5226,361.529 157.4173,361.4747 156.3121,361.529 155.2174,361.6914 154.144,361.9603 153.1021,362.3331 152.1017,362.8062 151.1525,363.3751 150.2637,364.0343 149.4438,364.7775 148.7006,365.5974 148.0414,366.4863 147.4725,367.4354 146.9994,368.4358 146.6266,369.4777 146.3577,370.5511 146.1953,371.6458 146.141,372.751 146.1953,373.8563 146.3577,374.9509 146.6266,376.0244 146.9994,377.0663 147.4725,378.0666 148.0414,379.0158 148.7006,379.9046 149.4438,380.7246 150.2637,381.4677"/>
    <polygon points="170.4221,381.7049 172.194,380.0989 174.1149,378.6743 176.1661,377.4449 178.3279,376.4224 180.5796,375.6167 182.8994,375.0356 185.265,374.6847 187.6535,374.5674 190.0421,374.6847 192.4077,375.0356 194.7275,375.6167 196.9791,376.4224 199.141,377.4449 201.1922,378.6743 203.1131,380.0989 204.885,381.7049 206.491,383.4769 207.9156,385.3977 209.1451,387.4489 210.1675,389.6108 210.9732,391.8624 211.5543,394.1822 211.9052,396.5478 212.0225,398.9364 211.9052,401.3249 211.5543,403.6905 210.9732,406.0103 210.1675,408.262 209.1451,410.4238 207.9156,412.475 206.491,414.3959 204.885,416.1678 203.1131,417.7738 201.1922,419.1984 199.141,420.4279 196.9791,421.4504 194.7275,422.256 192.4077,422.8371 190.0421,423.188 187.6535,423.3053 185.265,423.188 182.8994,422.8371 180.5796,422.256 178.3279,421.4504 176.1661,420.4279 174.1149,419.1984 172.194,417.7738 170.4221,416.1678 168.8161,414.3959 167.3915,412.475 166.162,410.4238 165.1395,408.262 164.3339,406.0103 163.7528,403.6905 163.4019,401.3249 163.2846,398.9364 163.4019,396.5478 163.7528,394.1822 164.3339,391.8624 165.1395,389.6108 166.162,387.4489 167.3915,385.3977 168.8161,383.4769"/>
    <polygon points="204.885,363.7972 206.491,362.0252 207.9156,360.1044 209.1451,358.0532 210.1675,355.8913 210.9732,353.6396 211.5543,351.3199 211.9052,348.9543 212.0225,346.5657 211.9052,344.1771 211.5543,341.8115 210.9732,339.4918 210.1675,337.2401 209.1451,335.0782 207.9156,333.027 206.491,331.1062 204.885,329.3342 203.1131,327.7282 201.1922,326.3036 199.141,325.0742 196.9791,324.0517 194.7275,323.246 192.4077,322.665 190.0421,322.3141 187.6535,322.1967 185.265,322.3141 182.8994,322.665 180.5796,323.246 178.3279,324.0517 176.1661,325.0742 174.1149,326.3036 172.194,327.7282 170.4221,329.3342 168.8161,331.1062 167.3915,333.027 166.162,335.0782 165.1395,337.2401 164.3339,339.4918 163.7528,341.8115 163.4019,344.1771 163.2846,346.5657 163.4019,348.9543 163.7528,351.3199 164.3339,353.6396 165.1395,355.8913 166.162,358.0532 167.3915,360.1044 168.8161,362.0252 170.4221,363.7972 172.194,365.4032 174.1149,366.8278 176.1661,368.0572 178.3279,369.0797 180.5796,369.8854 182.8994,370.4664 185.265,370.8173 187.6535,370.9347 190.0421,370.8173 192.4077,370.4664 194.7275,369.8854 196.9791,369.0797 199.141,368.0572 201.1922,366.8278 203.1131,365.4032"/>
    <polygon points="235.3965,348.4994 233.0079,348.3821 230.6193,348.4994 228.2537,348.8503 225.9339,349.4314 223.6823,350.237 221.5204,351.2595 219.4692,352.489 217.5484,353.9136 215.7764,355.5196 214.1704,357.2915 212.7458,359.2124 211.5164,361.2636 210.4939,363.4254 209.6882,365.6771 209.1071,367.9969 208.7562,370.3625 208.6389,372.751 208.7562,375.1396 209.1071,377.5052 209.6882,379.825 210.4939,382.0766 211.5164,384.2385 212.7458,386.2897 214.1704,388.2105 215.7764,389.9825 217.5484,391.5885 219.4692,393.0131 221.5204,394.2426 223.6823,395.265 225.9339,396.0707 228.2537,396.6518 230.6193,397.0027 233.0079,397.12 235.3965,397.0027 237.762,396.6518 240.0818,396.0707 242.3335,395.265 244.4953,394.2426 246.5466,393.0131 248.4674,391.5885 250.2393,389.9825 251.8453,388.2105 253.2699,386.2897 254.4994,384.2385 255.5219,382.0766 256.3275,379.825 256.9086,377.5052 257.2595,375.1396 257.3768,372.751 257.2595,370.3625 256.9086,367.9969 256.3275,365.6771 255.5219,363.4254 254.4994,361.2636 253.2699,359.2124 251.8453,357.2915 250.2393,355.5196 248.4674,353.9136 246.5466,352.489 244.4953,351.2595 242.3335,350.237 240.0818,349.4314 237.762,348.8503"/>
    <polygon points="263.6495,350.9417 262.8296,351.6848 262.0864,352.5048 261.4272,353.3936 260.8583,354.3428 260.3852,355.3431 260.0124,356.385 259.7435,357.4585 259.5811,358.5531 259.5268,359.6584 259.5811,360.7636 259.7435,361.8583 260.0124,362.9317 260.3852,363.9736 260.8583,364.974 261.4272,365.9231 262.0864,366.812 262.8296,367.6319 263.6495,368.3751 264.5384,369.0343 265.4875,369.6032 266.4879,370.0763 267.5298,370.4491 268.6033,370.718 269.6979,370.8804 270.8031,370.9347 271.9084,370.8804 273.003,370.718 274.0765,370.4491 275.1184,370.0763 276.1188,369.6032 277.0679,369.0343 277.9568,368.3751 278.7767,367.6319 279.5199,366.812 280.1791,365.9231 280.748,364.974 281.2211,363.9736 281.5939,362.9317 281.8628,361.8583 282.0252,360.7636 282.0795,359.6584 282.0252,358.5531 281.8628,357.4585 281.5939,356.385 281.2211,355.3431 280.748,354.3428 280.1791,353.3936 279.5199,352.5048 278.7767,351.6848 277.9568,350.9417 277.0679,350.2825 276.1188,349.7136 275.1184,349.2404 274.0765,348.8676 273.003,348.5987 271.9084,348.4364 270.8031,348.3821 269.6979,348.4364 268.6033,348.5987 267.5298,348.8676 266.4879,349.2404 265.4875,349.7136 264.5384,350.2825"/>
    <polygon points="255.5219,311.0548 254.4994,308.8929 253.2699,306.8417 251.8453,304.9209 250.2393,303.1489 248.4674,301.5429 246.5466,300.1183 244.4953,298.8888 242.3335,297.8664 240.0818,297.0607 237.762,296.4796 235.3965,296.1287 233.0079,296.0114 230.6193,296.1287 228.2537,296.4796 225.9339,297.0607 223.6823,297.8664 221.5204,298.8888 219.4692,300.1183 217.5484,301.5429 215.7764,303.1489 214.1704,304.9209 212.7458,306.8417 211.5164,308.8929 210.4939,311.0548 209.6882,313.3064 209.1071,315.6262 208.7562,317.9918 208.6389,320.3804 208.7562,322.7689 209.1071,325.1345 209.6882,327.4543 210.4939,329.706 211.5164,331.8678 212.7458,333.919 214.1704,335.8399 215.7764,337.6118 217.5484,339.2178 219.4692,340.6424 221.5204,341.8719 223.6823,342.8944 225.9339,343.7 228.2537,344.2811 230.6193,344.632 233.0079,344.7493 235.3965,344.632 237.762,344.2811 240.0818,343.7 242.3335,342.8944 244.4953,341.8719 246.5466,340.6424 248.4674,339.2178 250.2393,337.6118 251.8453,335.8399 253.2699,333.919 254.4994,331.8678 255.5219,329.706 256.3275,327.4543 256.9086,325.1345 257.2595,322.7689 257.3768,320.3804 257.2595,317.9918 256.9086,315.6262 256.3275,313.3064"/>
    <polygon points="259.7435,309.4876 260.0124,310.561 260.3852,311.603 260.8583,312.6033 261.4272,313.5525 262.0864,314.4413 262.8296,315.2612 263.6495,316.0044 264.5384,316.6636 265.4875,317.2325 266.4879,317.7056 267.5298,318.0784 268.6033,318.3473 269.6979,318.5097 270.8031,318.564 271.9084,318.5097 273.003,318.3473 274.0765,318.0784 275.1184,317.7056 276.1188,317.2325 277.0679,316.6636 277.9568,316.0044 278.7767,315.2612 279.5199,314.4413 280.1791,313.5525 280.748,312.6033 281.2211,311.603 281.5939,310.561 281.8628,309.4876 282.0252,308.393 282.0795,307.2877 282.0252,306.1824 281.8628,305.0878 281.5939,304.0144 281.2211,302.9724 280.748,301.9721 280.1791,301.0229 279.5199,300.1341 278.7767,299.3141 277.9568,298.571 277.0679,297.9118 276.1188,297.3429 275.1184,296.8697 274.0765,296.4969 273.003,296.2281 271.9084,296.0657 270.8031,296.0114 269.6979,296.0657 268.6033,296.2281 267.5298,296.4969 266.4879,296.8697 265.4875,297.3429 264.5384,297.9118 263.6495,298.571 262.8296,299.3141 262.0864,300.1341 261.4272,301.0229 260.8583,301.9721 260.3852,302.9724 260.0124,304.0144 259.7435,305.0878 259.5811,306.1824 259.5268,307.2877 259.5811,308.393"/>
    <polygon points="271.6627,288.5715 271.7308,288.1123 271.7536,287.6487 271.7308,287.1851 271.6627,286.7259 271.5499,286.2757 271.3935,285.8386 271.1951,285.419 270.9565,285.0209 270.6799,284.648 270.3682,284.3041 270.0243,283.9924 269.6515,283.7159 269.2533,283.4772 268.8337,283.2788 268.3967,283.1224 267.9464,283.0096 267.4872,282.9415 267.0236,282.9187 266.56,282.9415 266.1009,283.0096 265.6506,283.1224 265.2135,283.2788 264.7939,283.4772 264.3958,283.7159 264.023,283.9924 263.679,284.3041 263.3673,284.648 263.0908,285.0209 262.8522,285.419 262.6537,285.8386 262.4973,286.2757 262.3845,286.7259 262.3164,287.1851 262.2936,287.6487 262.3164,288.1123 262.3845,288.5715 262.4973,289.0217 262.6537,289.4588 262.8522,289.8784 263.0908,290.2765 263.3673,290.6494 263.679,290.9933 264.023,291.305 264.3958,291.5815 264.7939,291.8202 265.2135,292.0186 265.6506,292.175 266.1009,292.2878 266.56,292.3559 267.0236,292.3787 267.4872,292.3559 267.9464,292.2878 268.3967,292.175 268.8337,292.0186 269.2533,291.8202 269.6515,291.5815 270.0243,291.305 270.3682,290.9933 270.6799,290.6494 270.9565,290.2765 271.1951,289.8784 271.3935,289.4588 271.5499,289.0217"/>
    <polygon points="282.5337,283.3321 282.7321,282.9124 282.8885,282.4754 283.0013,282.0251 283.0694,281.566 283.0922,281.1024 283.0694,280.6387 283.0013,280.1796 282.8885,279.7293 282.7321,279.2923 282.5337,278.8727 282.295,278.4745 282.0185,278.1017 281.7068,277.7578 281.3629,277.446 280.99,277.1695 280.5919,276.9309 280.1723,276.7324 279.7352,276.5761 279.285,276.4633 278.8258,276.3952 278.3622,276.3724 277.8986,276.3952 277.4394,276.4633 276.9892,276.5761 276.5521,276.7324 276.1325,276.9309 275.7344,277.1695 275.3615,277.446 275.0176,277.7578 274.7059,278.1017 274.4294,278.4745 274.1907,278.8727 273.9923,279.2923 273.8359,279.7293 273.7231,280.1796 273.655,280.6387 273.6322,281.1024 273.655,281.566 273.7231,282.0251 273.8359,282.4754 273.9923,282.9124 274.1907,283.3321 274.4294,283.7302 274.7059,284.103 275.0176,284.447 275.3615,284.7587 275.7344,285.0352 276.1325,285.2738 276.5521,285.4723 276.9892,285.6287 277.4394,285.7414 277.8986,285.8096 278.3622,285.8323 278.8258,285.8096 279.285,285.7414 279.7352,285.6287 280.1723,285.4723 280.5919,285.2738 280.99,285.0352 281.3629,284.7587 281.7068,284.447 282.0185,284.103 282.295,283.7302"/>
    <polygon points="287.8907,270.1861 287.4711,270.3846 287.073,270.6232 286.7001,270.8997 286.3562,271.2114 286.0445,271.5554 285.768,271.9282 285.5293,272.3263 285.3309,272.7459 285.1745,273.183 285.0617,273.6333 284.9936,274.0924 284.9708,274.556 284.9936,275.0196 285.0617,275.4788 285.1745,275.9291 285.3309,276.3661 285.5293,276.7857 285.768,277.1839 286.0445,277.5567 286.3562,277.9006 286.7001,278.2123 287.073,278.4889 287.4711,278.7275 287.8907,278.926 288.3277,279.0823 288.778,279.1951 289.2372,279.2632 289.7008,279.286 290.1644,279.2632 290.6236,279.1951 291.0738,279.0823 291.5109,278.926 291.9305,278.7275 292.3286,278.4889 292.7015,278.2123 293.0454,277.9006 293.3571,277.5567 293.6336,277.1839 293.8723,276.7857 294.0707,276.3661 294.2271,275.9291 294.3399,275.4788 294.408,275.0196 294.4308,274.556 294.408,274.0924 294.3399,273.6333 294.2271,273.183 294.0707,272.7459 293.8723,272.3263 293.6336,271.9282 293.3571,271.5554 293.0454,271.2114 292.7015,270.8997 292.3286,270.6232 291.9305,270.3846 291.5109,270.1861 291.0738,270.0297 290.6236,269.9169 290.1644,269.8488 289.7008,269.8261 289.2372,269.8488 288.778,269.9169 288.3277,270.0297"/>
    <polygon points="309.3773,283.9924 309.7501,283.7159 310.1483,283.4772 310.5679,283.2788 311.0049,283.1224 311.4552,283.0096 311.9143,282.9415 312.378,282.9187 312.8416,282.9415 313.3007,283.0096 313.751,283.1224 314.188,283.2788 314.6076,283.4772 315.0058,283.7159 315.3786,283.9924 315.7225,284.3041 316.0343,284.648 316.3108,285.0209 316.5494,285.419 316.7479,285.8386 316.9043,286.2757 317.017,286.7259 317.0851,287.1851 317.1079,287.6487 317.0851,288.1123 317.017,288.5715 316.9043,289.0217 316.7479,289.4588 316.5494,289.8784 316.3108,290.2765 316.0343,290.6494 315.7225,290.9933 315.3786,291.305 315.0058,291.5815 314.6076,291.8202 314.188,292.0186 313.751,292.175 313.3007,292.2878 312.8416,292.3559 312.378,292.3787 311.9143,292.3559 311.4552,292.2878 311.0049,292.175 310.5679,292.0186 310.1483,291.8202 309.7501,291.5815 309.3773,291.305 309.0334,290.9933 308.7216,290.6494 308.4451,290.2765 308.2065,289.8784 308.008,289.4588 307.8517,289.0217 307.7389,288.5715 307.6708,288.1123 307.648,287.6487 307.6708,287.1851 307.7389,286.7259 307.8517,286.2757 308.008,285.8386 308.2065,285.419 308.4451,285.0209 308.7216,284.648 309.0334,284.3041"/>
    <polygon points="286.3267,302.9117 287.2155,303.5709 288.1647,304.1398 289.1651,304.613 290.207,304.9858 291.2804,305.2547 292.375,305.417 293.4803,305.4713 294.5856,305.417 295.6802,305.2547 296.7537,304.9858 297.7956,304.613 298.7959,304.1398 299.7451,303.5709 300.6339,302.9117 301.4539,302.1686 302.197,301.3486 302.8562,300.4598 303.4251,299.5106 303.8983,298.5103 304.2711,297.4684 304.54,296.3949 304.7023,295.3003 304.7566,294.195 304.7023,293.0898 304.54,291.9951 304.2711,290.9217 303.8983,289.8798 303.4251,288.8794 302.8562,287.9302 302.197,287.0414 301.4539,286.2215 300.6339,285.4783 299.7451,284.8191 298.7959,284.2502 297.7956,283.7771 296.7537,283.4043 295.6802,283.1354 294.5856,282.973 293.4803,282.9187 292.375,282.973 291.2804,283.1354 290.207,283.4043 289.1651,283.7771 288.1647,284.2502 287.2155,284.8191 286.3267,285.4783 285.5068,286.2215 284.7636,287.0414 284.1044,287.9302 283.5355,288.8794 283.0624,289.8798 282.6896,290.9217 282.4207,291.9951 282.2583,293.0898 282.204,294.195 282.2583,295.3003 282.4207,296.3949 282.6896,297.4684 283.0624,298.5103 283.5355,299.5106 284.1044,300.4598 284.7636,301.3486 285.5068,302.1686"/>
    <polygon points="293.3571,316.8347 293.6336,316.4619 293.8723,316.0637 294.0707,315.6441 294.2271,315.2071 294.3399,314.7568 294.408,314.2976 294.4308,313.834 294.408,313.3704 294.3399,312.9113 294.2271,312.461 294.0707,312.0239 293.8723,311.6043 293.6336,311.2062 293.3571,310.8334 293.0454,310.4894 292.7015,310.1777 292.3286,309.9012 291.9305,309.6626 291.5109,309.4641 291.0738,309.3077 290.6236,309.1949 290.1644,309.1268 289.7008,309.1041 289.2372,309.1268 288.778,309.1949 288.3277,309.3077 287.8907,309.4641 287.4711,309.6626 287.073,309.9012 286.7001,310.1777 286.3562,310.4894 286.0445,310.8334 285.768,311.2062 285.5293,311.6043 285.3309,312.0239 285.1745,312.461 285.0617,312.9113 284.9936,313.3704 284.9708,313.834 284.9936,314.2976 285.0617,314.7568 285.1745,315.2071 285.3309,315.6441 285.5293,316.0637 285.768,316.4619 286.0445,316.8347 286.3562,317.1786 286.7001,317.4903 287.073,317.7669 287.4711,318.0055 287.8907,318.204 288.3277,318.3603 288.778,318.4731 289.2372,318.5412 289.7008,318.564 290.1644,318.5412 290.6236,318.4731 291.0738,318.3603 291.5109,318.204 291.9305,318.0055 292.3286,317.7669 292.7015,317.4903 293.0454,317.1786"/>
    <polygon points="305.5657,319.0073 305.4093,318.5703 305.2108,318.1507 304.9722,317.7525 304.6957,317.3797 304.384,317.0358 304.04,316.724 303.6672,316.4475 303.2691,316.2089 302.8495,316.0104 302.4124,315.8541 301.9621,315.7413 301.503,315.6732 301.0394,315.6504 300.5758,315.6732 300.1166,315.7413 299.6663,315.8541 299.2293,316.0104 298.8097,316.2089 298.4115,316.4475 298.0387,316.724 297.6948,317.0358 297.3831,317.3797 297.1065,317.7525 296.8679,318.1507 296.6694,318.5703 296.5131,319.0073 296.4003,319.4576 296.3322,319.9167 296.3094,320.3804 296.3322,320.844 296.4003,321.3031 296.5131,321.7534 296.6694,322.1904 296.8679,322.6101 297.1065,323.0082 297.3831,323.381 297.6948,323.725 298.0387,324.0367 298.4115,324.3132 298.8097,324.5518 299.2293,324.7503 299.6663,324.9067 300.1166,325.0195 300.5758,325.0876 301.0394,325.1103 301.503,325.0876 301.9621,325.0195 302.4124,324.9067 302.8495,324.7503 303.2691,324.5518 303.6672,324.3132 304.04,324.0367 304.384,323.725 304.6957,323.381 304.9722,323.0082 305.2108,322.6101 305.4093,322.1904 305.5657,321.7534 305.6785,321.3031 305.7466,320.844 305.7693,320.3804 305.7466,319.9167 305.6785,319.4576"/>
    <polygon points="312.378,322.1967 311.9143,322.2195 311.4552,322.2876 311.0049,322.4004 310.5679,322.5568 310.1483,322.7552 309.7501,322.9939 309.3773,323.2704 309.0334,323.5821 308.7216,323.926 308.4451,324.2989 308.2065,324.697 308.008,325.1166 307.8517,325.5537 307.7389,326.0039 307.6708,326.4631 307.648,326.9267 307.6708,327.3903 307.7389,327.8495 307.8517,328.2997 308.008,328.7368 308.2065,329.1564 308.4451,329.5545 308.7216,329.9274 309.0334,330.2713 309.3773,330.583 309.7501,330.8595 310.1483,331.0982 310.5679,331.2966 311.0049,331.453 311.4552,331.5658 311.9143,331.6339 312.378,331.6567 312.8416,331.6339 313.3007,331.5658 313.751,331.453 314.188,331.2966 314.6076,331.0982 315.0058,330.8595 315.3786,330.583 315.7225,330.2713 316.0343,329.9274 316.3108,329.5545 316.5494,329.1564 316.7479,328.7368 316.9043,328.2997 317.017,327.8495 317.0851,327.3903 317.1079,326.9267 317.0851,326.4631 317.017,326.0039 316.9043,325.5537 316.7479,325.1166 316.5494,324.697 316.3108,324.2989 316.0343,323.926 315.7225,323.5821 315.3786,323.2704 315.0058,322.9939 314.6076,322.7552 314.188,322.5568 313.751,322.4004 313.3007,322.2876 312.8416,322.2195"/>
    <polygon points="336.4282,322.4004 335.9779,322.2876 335.5187,322.2195 335.0551,322.1967 334.5915,322.2195 334.1323,322.2876 333.6821,322.4004 333.245,322.5568 332.8254,322.7552 332.4273,322.9939 332.0545,323.2704 331.7105,323.5821 331.3988,323.926 331.1223,324.2989 330.8837,324.697 330.6852,325.1166 330.5288,325.5537 330.416,326.0039 330.3479,326.4631 330.3251,326.9267 330.3479,327.3903 330.416,327.8495 330.5288,328.2997 330.6852,328.7368 330.8837,329.1564 331.1223,329.5545 331.3988,329.9274 331.7105,330.2713 332.0545,330.583 332.4273,330.8595 332.8254,331.0982 333.245,331.2966 333.6821,331.453 334.1323,331.5658 334.5915,331.6339 335.0551,331.6567 335.5187,331.6339 335.9779,331.5658 336.4282,331.453 336.8652,331.2966 337.2848,331.0982 337.683,330.8595 338.0558,330.583 338.3997,330.2713 338.7114,329.9274 338.9879,329.5545 339.2266,329.1564 339.425,328.7368 339.5814,328.2997 339.6942,327.8495 339.7623,327.3903 339.7851,326.9267 339.7623,326.4631 339.6942,326.0039 339.5814,325.5537 339.425,325.1166 339.2266,324.697 338.9879,324.2989 338.7114,323.926 338.3997,323.5821 338.0558,323.2704 337.683,322.9939 337.2848,322.7552 336.8652,322.5568"/>
    <polygon points="319.0774,334.3958 319.1902,334.8461 319.3466,335.2831 319.5451,335.7027 319.7837,336.1009 320.0602,336.4737 320.3719,336.8176 320.7159,337.1294 321.0887,337.4059 321.4868,337.6445 321.9065,337.843 322.3435,337.9993 322.7938,338.1121 323.2529,338.1802 323.7165,338.203 324.1802,338.1802 324.6393,338.1121 325.0896,337.9993 325.5266,337.843 325.9462,337.6445 326.3444,337.4059 326.7172,337.1294 327.0611,336.8176 327.3729,336.4737 327.6494,336.1009 327.888,335.7027 328.0865,335.2831 328.2428,334.8461 328.3556,334.3958 328.4237,333.9367 328.4465,333.473 328.4237,333.0094 328.3556,332.5503 328.2428,332.1 328.0865,331.663 327.888,331.2433 327.6494,330.8452 327.3729,330.4724 327.0611,330.1284 326.7172,329.8167 326.3444,329.5402 325.9462,329.3016 325.5266,329.1031 325.0896,328.9467 324.6393,328.8339 324.1802,328.7658 323.7165,328.7431 323.2529,328.7658 322.7938,328.8339 322.3435,328.9467 321.9065,329.1031 321.4868,329.3016 321.0887,329.5402 320.7159,329.8167 320.3719,330.1284 320.0602,330.4724 319.7837,330.8452 319.5451,331.2433 319.3466,331.663 319.1902,332.1 319.0774,332.5503 319.0093,333.0094 318.9866,333.473 319.0093,333.9367"/>
    <polygon points="315.7225,343.364 316.0343,343.02 316.3108,342.6472 316.5494,342.2491 316.7479,341.8294 316.9043,341.3924 317.017,340.9421 317.0851,340.483 317.1079,340.0194 317.0851,339.5557 317.017,339.0966 316.9043,338.6463 316.7479,338.2093 316.5494,337.7897 316.3108,337.3915 316.0343,337.0187 315.7225,336.6748 315.3786,336.363 315.0058,336.0865 314.6076,335.8479 314.188,335.6494 313.751,335.4931 313.3007,335.3803 312.8416,335.3122 312.378,335.2894 311.9143,335.3122 311.4552,335.3803 311.0049,335.4931 310.5679,335.6494 310.1483,335.8479 309.7501,336.0865 309.3773,336.363 309.0334,336.6748 308.7216,337.0187 308.4451,337.3915 308.2065,337.7897 308.008,338.2093 307.8517,338.6463 307.7389,339.0966 307.6708,339.5557 307.648,340.0194 307.6708,340.483 307.7389,340.9421 307.8517,341.3924 308.008,341.8294 308.2065,342.2491 308.4451,342.6472 308.7216,343.02 309.0334,343.364 309.3773,343.6757 309.7501,343.9522 310.1483,344.1908 310.5679,344.3893 311.0049,344.5457 311.4552,344.6585 311.9143,344.7266 312.378,344.7493 312.8416,344.7266 313.3007,344.6585 313.751,344.5457 314.188,344.3893 314.6076,344.1908 315.0058,343.9522 315.3786,343.6757"/>
    <polygon points="330.6852,351.302 330.8837,350.8823 331.1223,350.4842 331.3988,350.1114 331.7105,349.7674 332.0545,349.4557 332.4273,349.1792 332.8254,348.9406 333.245,348.7421 333.6821,348.5857 334.1323,348.4729 334.5915,348.4048 335.0551,348.3821 335.5187,348.4048 335.9779,348.4729 336.4282,348.5857 336.8652,348.7421 337.2848,348.9406 337.683,349.1792 338.0558,349.4557 338.3997,349.7674 338.7114,350.1114 338.9879,350.4842 339.2266,350.8823 339.425,351.302 339.5814,351.739 339.6942,352.1893 339.7623,352.6484 339.7851,353.112 339.7623,353.5757 339.6942,354.0348 339.5814,354.4851 339.425,354.9221 339.2266,355.3417 338.9879,355.7399 338.7114,356.1127 338.3997,356.4566 338.0558,356.7684 337.683,357.0449 337.2848,357.2835 336.8652,357.482 336.4282,357.6383 335.9779,357.7511 335.5187,357.8192 335.0551,357.842 334.5915,357.8192 334.1323,357.7511 333.6821,357.6383 333.245,357.482 332.8254,357.2835 332.4273,357.0449 332.0545,356.7684 331.7105,356.4566 331.3988,356.1127 331.1223,355.7399 330.8837,355.3417 330.6852,354.9221 330.5288,354.4851 330.416,354.0348 330.3479,353.5757 330.3251,353.112 330.3479,352.6484 330.416,352.1893 330.5288,351.739"/>
    <polygon points="331.3988,343.02 331.1223,342.6472 330.8837,342.2491 330.6852,341.8294 330.5288,341.3924 330.416,340.9421 330.3479,340.483 330.3251,340.0194 330.3479,339.5557 330.416,339.0966 330.5288,338.6463 330.6852,338.2093 330.8837,337.7897 331.1223,337.3915 331.3988,337.0187 331.7105,336.6748 332.0545,336.363 332.4273,336.0865 332.8254,335.8479 333.245,335.6494 333.6821,335.4931 334.1323,335.3803 334.5915,335.3122 335.0551,335.2894 335.5187,335.3122 335.9779,335.3803 336.4282,335.4931 336.8652,335.6494 337.2848,335.8479 337.683,336.0865 338.0558,336.363 338.3997,336.6748 338.7114,337.0187 338.9879,337.3915 339.2266,337.7897 339.425,338.2093 339.5814,338.6463 339.6942,339.0966 339.7623,339.5557 339.7851,340.0194 339.7623,340.483 339.6942,340.9421 339.5814,341.3924 339.425,341.8294 339.2266,342.2491 338.9879,342.6472 338.7114,343.02 338.3997,343.364 338.0558,343.6757 337.683,343.9522 337.2848,344.1908 336.8652,344.3893 336.4282,344.5457 335.9779,344.6585 335.5187,344.7266 335.0551,344.7493 334.5915,344.7266 334.1323,344.6585 333.6821,344.5457 333.245,344.3893 332.8254,344.1908 332.4273,343.9522 332.0545,343.6757 331.7105,343.364"/>
    <polygon points="348.6234,342.3942 348.2038,342.1958 347.7667,342.0394 347.3165,341.9266 346.8573,341.8585 346.3937,341.8357 345.9301,341.8585 345.4709,341.9266 345.0207,342.0394 344.5836,342.1958 344.164,342.3942 343.7659,342.6329 343.393,342.9094 343.0491,343.2211 342.7374,343.565 342.4609,343.9379 342.2222,344.336 342.0238,344.7556 341.8674,345.1927 341.7546,345.6429 341.6865,346.1021 341.6637,346.5657 341.6865,347.0293 341.7546,347.4885 341.8674,347.9387 342.0238,348.3758 342.2222,348.7954 342.4609,349.1935 342.7374,349.5664 343.0491,349.9103 343.393,350.222 343.7659,350.4985 344.164,350.7372 344.5836,350.9356 345.0207,351.092 345.4709,351.2048 345.9301,351.2729 346.3937,351.2957 346.8573,351.2729 347.3165,351.2048 347.7667,351.092 348.2038,350.9356 348.6234,350.7372 349.0215,350.4985 349.3944,350.222 349.7383,349.9103 350.05,349.5664 350.3265,349.1935 350.5652,348.7954 350.7636,348.3758 350.92,347.9387 351.0328,347.4885 351.1009,347.0293 351.1237,346.5657 351.1009,346.1021 351.0328,345.6429 350.92,345.1927 350.7636,344.7556 350.5652,344.336 350.3265,343.9379 350.05,343.565 349.7383,343.2211 349.3944,342.9094 349.0215,342.6329"/>
    <polygon points="350.3265,357.0305 350.05,356.6577 349.7383,356.3138 349.3944,356.002 349.0215,355.7255 348.6234,355.4869 348.2038,355.2884 347.7667,355.1321 347.3165,355.0193 346.8573,354.9512 346.3937,354.9284 345.9301,354.9512 345.4709,355.0193 345.0207,355.1321 344.5836,355.2884 344.164,355.4869 343.7659,355.7255 343.393,356.002 343.0491,356.3138 342.7374,356.6577 342.4609,357.0305 342.2222,357.4287 342.0238,357.8483 341.8674,358.2853 341.7546,358.7356 341.6865,359.1947 341.6637,359.6584 341.6865,360.122 341.7546,360.5811 341.8674,361.0314 342.0238,361.4684 342.2222,361.8881 342.4609,362.2862 342.7374,362.659 343.0491,363.003 343.393,363.3147 343.7659,363.5912 344.164,363.8298 344.5836,364.0283 345.0207,364.1847 345.4709,364.2975 345.9301,364.3656 346.3937,364.3883 346.8573,364.3656 347.3165,364.2975 347.7667,364.1847 348.2038,364.0283 348.6234,363.8298 349.0215,363.5912 349.3944,363.3147 349.7383,363.003 350.05,362.659 350.3265,362.2862 350.5652,361.8881 350.7636,361.4684 350.92,361.0314 351.0328,360.5811 351.1009,360.122 351.1237,359.6584 351.1009,359.1947 351.0328,358.7356 350.92,358.2853 350.7636,357.8483 350.5652,357.4287"/>
    <polygon points="333.6821,374.7711 333.245,374.9274 332.8254,375.1259 332.4273,375.3645 332.0545,375.6411 331.7105,375.9528 331.3988,376.2967 331.1223,376.6695 330.8837,377.0677 330.6852,377.4873 330.5288,377.9243 330.416,378.3746 330.3479,378.8338 330.3251,379.2974 330.3479,379.761 330.416,380.2201 330.5288,380.6704 330.6852,381.1075 330.8837,381.5271 331.1223,381.9252 331.3988,382.298 331.7105,382.642 332.0545,382.9537 332.4273,383.2302 332.8254,383.4688 333.245,383.6673 333.6821,383.8237 334.1323,383.9365 334.5915,384.0046 335.0551,384.0273 335.5187,384.0046 335.9779,383.9365 336.4282,383.8237 336.8652,383.6673 337.2848,383.4688 337.683,383.2302 338.0558,382.9537 338.3997,382.642 338.7114,382.298 338.9879,381.9252 339.2266,381.5271 339.425,381.1075 339.5814,380.6704 339.6942,380.2201 339.7623,379.761 339.7851,379.2974 339.7623,378.8338 339.6942,378.3746 339.5814,377.9243 339.425,377.4873 339.2266,377.0677 338.9879,376.6695 338.7114,376.2967 338.3997,375.9528 338.0558,375.6411 337.683,375.3645 337.2848,375.1259 336.8652,374.9274 336.4282,374.7711 335.9779,374.6583 335.5187,374.5902 335.0551,374.5674 334.5915,374.5902 334.1323,374.6583"/>
    <polygon points="316.1575,370.9347 317.2628,370.8804 318.3574,370.718 319.4308,370.4491 320.4727,370.0763 321.4731,369.6032 322.4223,369.0343 323.3111,368.3751 324.131,367.6319 324.8742,366.812 325.5334,365.9231 326.1023,364.974 326.5754,363.9736 326.9482,362.9317 327.2171,361.8583 327.3795,360.7636 327.4338,359.6584 327.3795,358.5531 327.2171,357.4585 326.9482,356.385 326.5754,355.3431 326.1023,354.3428 325.5334,353.3936 324.8742,352.5048 324.131,351.6848 323.3111,350.9417 322.4223,350.2825 321.4731,349.7136 320.4727,349.2404 319.4308,348.8676 318.3574,348.5987 317.2628,348.4364 316.1575,348.3821 315.0522,348.4364 313.9576,348.5987 312.8841,348.8676 311.8422,349.2404 310.8419,349.7136 309.8927,350.2825 309.0039,350.9417 308.1839,351.6848 307.4408,352.5048 306.7816,353.3936 306.2127,354.3428 305.7395,355.3431 305.3667,356.385 305.0978,357.4585 304.9355,358.5531 304.8812,359.6584 304.9355,360.7636 305.0978,361.8583 305.3667,362.9317 305.7395,363.9736 306.2127,364.974 306.7816,365.9231 307.4408,366.812 308.1839,367.6319 309.0039,368.3751 309.8927,369.0343 310.8419,369.6032 311.8422,370.0763 312.8841,370.4491 313.9576,370.718 315.0522,370.8804"/>
    <polygon points="298.6243,385.3977 299.8537,387.4489 300.8762,389.6108 301.6819,391.8624 302.2629,394.1822 302.6138,396.5478 302.7312,398.9364 302.6138,401.3249 302.2629,403.6905 301.6819,406.0103 300.8762,408.262 299.8537,410.4238 298.6243,412.475 297.1997,414.3959 295.5937,416.1678 293.8217,417.7738 291.9009,419.1984 289.8497,420.4279 287.6878,421.4504 285.4361,422.256 283.1164,422.8371 280.7508,423.188 278.3622,423.3053 275.9736,423.188 273.6081,422.8371 271.2883,422.256 269.0366,421.4504 266.8747,420.4279 264.8235,419.1984 262.9027,417.7738 261.1307,416.1678 259.5247,414.3959 258.1001,412.475 256.8707,410.4238 255.8482,408.262 255.0426,406.0103 254.4615,403.6905 254.1106,401.3249 253.9932,398.9364 254.1106,396.5478 254.4615,394.1822 255.0426,391.8624 255.8482,389.6108 256.8707,387.4489 258.1001,385.3977 259.5247,383.4769 261.1307,381.7049 262.9027,380.0989 264.8235,378.6743 266.8747,377.4449 269.0366,376.4224 271.2883,375.6167 273.6081,375.0356 275.9736,374.6847 278.3622,374.5674 280.7508,374.6847 283.1164,375.0356 285.4361,375.6167 287.6878,376.4224 289.8497,377.4449 291.9009,378.6743 293.8217,380.0989 295.5937,381.7049 297.1997,383.4769"/>
    <polygon points="305.7395,390.159 305.3667,389.117 305.0978,388.0436 304.9355,386.949 304.8812,385.8437 304.9355,384.7384 305.0978,383.6438 305.3667,382.5704 305.7395,381.5284 306.2127,380.5281 306.7816,379.5789 307.4408,378.6901 308.1839,377.8701 309.0039,377.127 309.8927,376.4678 310.8419,375.8989 311.8422,375.4258 312.8841,375.0529 313.9576,374.7841 315.0522,374.6217 316.1575,374.5674 317.2628,374.6217 318.3574,374.7841 319.4308,375.0529 320.4727,375.4258 321.4731,375.8989 322.4223,376.4678 323.3111,377.127 324.131,377.8701 324.8742,378.6901 325.5334,379.5789 326.1023,380.5281 326.5754,381.5284 326.9482,382.5704 327.2171,383.6438 327.3795,384.7384 327.4338,385.8437 327.3795,386.949 327.2171,388.0436 326.9482,389.117 326.5754,390.159 326.1023,391.1593 325.5334,392.1085 324.8742,392.9973 324.131,393.8173 323.3111,394.5604 322.4223,395.2196 321.4731,395.7885 320.4727,396.2617 319.4308,396.6345 318.3574,396.9033 317.2628,397.0657 316.1575,397.12 315.0522,397.0657 313.9576,396.9033 312.8841,396.6345 311.8422,396.2617 310.8419,395.7885 309.8927,395.2196 309.0039,394.5604 308.1839,393.8173 307.4408,392.9973 306.7816,392.1085 306.2127,391.1593"/>
    <polygon points="320.4727,401.6111 319.4308,401.2383 318.3574,400.9694 317.2628,400.807 316.1575,400.7527 315.0522,400.807 313.9576,400.9694 312.8841,401.2383 311.8422,401.6111 310.8419,402.0842 309.8927,402.6531 309.0039,403.3123 308.1839,404.0555 307.4408,404.8754 306.7816,405.7643 306.2127,406.7134 305.7395,407.7138 305.3667,408.7557 305.0978,409.8291 304.9355,410.9238 304.8812,412.029 304.9355,413.1343 305.0978,414.2289 305.3667,415.3024 305.7395,416.3443 306.2127,417.3447 306.7816,418.2938 307.4408,419.1827 308.1839,420.0026 309.0039,420.7457 309.8927,421.4049 310.8419,421.9739 311.8422,422.447 312.8841,422.8198 313.9576,423.0887 315.0522,423.251 316.1575,423.3053 317.2628,423.251 318.3574,423.0887 319.4308,422.8198 320.4727,422.447 321.4731,421.9739 322.4223,421.4049 323.3111,420.7457 324.131,420.0026 324.8742,419.1827 325.5334,418.2938 326.1023,417.3447 326.5754,416.3443 326.9482,415.3024 327.2171,414.2289 327.3795,413.1343 327.4338,412.029 327.3795,410.9238 327.2171,409.8291 326.9482,408.7557 326.5754,407.7138 326.1023,406.7134 325.5334,405.7643 324.8742,404.8754 324.131,404.0555 323.3111,403.3123 322.4223,402.6531 321.4731,402.0842"/>
    <polygon points="307.8517,430.295 307.7389,430.7453 307.6708,431.2044 307.648,431.668 307.6708,432.1317 307.7389,432.5908 307.8517,433.0411 308.008,433.4781 308.2065,433.8977 308.4451,434.2959 308.7216,434.6687 309.0334,435.0126 309.3773,435.3244 309.7501,435.6009 310.1483,435.8395 310.5679,436.038 311.0049,436.1943 311.4552,436.3071 311.9143,436.3752 312.378,436.398 312.8416,436.3752 313.3007,436.3071 313.751,436.1943 314.188,436.038 314.6076,435.8395 315.0058,435.6009 315.3786,435.3244 315.7225,435.0126 316.0343,434.6687 316.3108,434.2959 316.5494,433.8977 316.7479,433.4781 316.9043,433.0411 317.017,432.5908 317.0851,432.1317 317.1079,431.668 317.0851,431.2044 317.017,430.7453 316.9043,430.295 316.7479,429.858 316.5494,429.4383 316.3108,429.0402 316.0343,428.6674 315.7225,428.3234 315.3786,428.0117 315.0058,427.7352 314.6076,427.4966 314.188,427.2981 313.751,427.1417 313.3007,427.029 312.8416,426.9608 312.378,426.9381 311.9143,426.9608 311.4552,427.029 311.0049,427.1417 310.5679,427.2981 310.1483,427.4966 309.7501,427.7352 309.3773,428.0117 309.0334,428.3234 308.7216,428.6674 308.4451,429.0402 308.2065,429.4383 308.008,429.858"/>
    <polygon points="300.1166,433.5753 299.6663,433.6881 299.2293,433.8444 298.8097,434.0429 298.4115,434.2815 298.0387,434.5581 297.6948,434.8698 297.3831,435.2137 297.1065,435.5865 296.8679,435.9847 296.6694,436.4043 296.5131,436.8413 296.4003,437.2916 296.3322,437.7508 296.3094,438.2144 296.3322,438.678 296.4003,439.1371 296.5131,439.5874 296.6694,440.0245 296.8679,440.4441 297.1065,440.8422 297.3831,441.215 297.6948,441.559 298.0387,441.8707 298.4115,442.1472 298.8097,442.3858 299.2293,442.5843 299.6663,442.7407 300.1166,442.8535 300.5758,442.9216 301.0394,442.9443 301.503,442.9216 301.9621,442.8535 302.4124,442.7407 302.8495,442.5843 303.2691,442.3858 303.6672,442.1472 304.04,441.8707 304.384,441.559 304.6957,441.215 304.9722,440.8422 305.2108,440.4441 305.4093,440.0245 305.5657,439.5874 305.6785,439.1371 305.7466,438.678 305.7693,438.2144 305.7466,437.7508 305.6785,437.2916 305.5657,436.8413 305.4093,436.4043 305.2108,435.9847 304.9722,435.5865 304.6957,435.2137 304.384,434.8698 304.04,434.5581 303.6672,434.2815 303.2691,434.0429 302.8495,433.8444 302.4124,433.6881 301.9621,433.5753 301.503,433.5072 301.0394,433.4844 300.5758,433.5072"/>
    <polygon points="278.7767,446.1879 279.5199,445.368 280.1791,444.4792 280.748,443.53 281.2211,442.5296 281.5939,441.4877 281.8628,440.4143 282.0252,439.3196 282.0795,438.2144 282.0252,437.1091 281.8628,436.0145 281.5939,434.941 281.2211,433.8991 280.748,432.8988 280.1791,431.9496 279.5199,431.0608 278.7767,430.2408 277.9568,429.4977 277.0679,428.8385 276.1188,428.2696 275.1184,427.7964 274.0765,427.4236 273.003,427.1547 271.9084,426.9924 270.8031,426.9381 269.6979,426.9924 268.6033,427.1547 267.5298,427.4236 266.4879,427.7964 265.4875,428.2696 264.5384,428.8385 263.6495,429.4977 262.8296,430.2408 262.0864,431.0608 261.4272,431.9496 260.8583,432.8988 260.3852,433.8991 260.0124,434.941 259.7435,436.0145 259.5811,437.1091 259.5268,438.2144 259.5811,439.3196 259.7435,440.4143 260.0124,441.4877 260.3852,442.5296 260.8583,443.53 261.4272,444.4792 262.0864,445.368 262.8296,446.1879 263.6495,446.9311 264.5384,447.5903 265.4875,448.1592 266.4879,448.6323 267.5298,449.0051 268.6033,449.274 269.6979,449.4364 270.8031,449.4907 271.9084,449.4364 273.003,449.274 274.0765,449.0051 275.1184,448.6323 276.1188,448.1592 277.0679,447.5903 277.9568,446.9311"/>
    <polygon points="248.7164,407.2928 248.5179,407.7124 248.2793,408.1105 248.0028,408.4834 247.6911,408.8273 247.3471,409.139 246.9743,409.4155 246.5762,409.6542 246.1565,409.8526 245.7195,410.009 245.2692,410.1218 244.8101,410.1899 244.3465,410.2127 243.8828,410.1899 243.4237,410.1218 242.9734,410.009 242.5364,409.8526 242.1168,409.6542 241.7186,409.4155 241.3458,409.139 241.0019,408.8273 240.6901,408.4834 240.4136,408.1105 240.175,407.7124 239.9765,407.2928 239.8202,406.8557 239.7074,406.4055 239.6393,405.9463 239.6165,405.4827 239.6393,405.0191 239.7074,404.5599 239.8202,404.1097 239.9765,403.6726 240.175,403.253 240.4136,402.8549 240.6901,402.482 241.0019,402.1381 241.3458,401.8264 241.7186,401.5499 242.1168,401.3112 242.5364,401.1128 242.9734,400.9564 243.4237,400.8436 243.8828,400.7755 244.3465,400.7527 244.8101,400.7755 245.2692,400.8436 245.7195,400.9564 246.1565,401.1128 246.5762,401.3112 246.9743,401.5499 247.3471,401.8264 247.6911,402.1381 248.0028,402.482 248.2793,402.8549 248.5179,403.253 248.7164,403.6726 248.8728,404.1097 248.9855,404.5599 249.0537,405.0191 249.0764,405.4827 249.0537,405.9463 248.9855,406.4055 248.8728,406.8557"/>
    <polygon points="241.3458,414.9191 241.0019,415.2308 240.6901,415.5747 240.4136,415.9475 240.175,416.3457 239.9765,416.7653 239.8202,417.2023 239.7074,417.6526 239.6393,418.1118 239.6165,418.5754 239.6393,419.039 239.7074,419.4981 239.8202,419.9484 239.9765,420.3855 240.175,420.8051 240.4136,421.2032 240.6901,421.576 241.0019,421.92 241.3458,422.2317 241.7186,422.5082 242.1168,422.7468 242.5364,422.9453 242.9734,423.1017 243.4237,423.2145 243.8828,423.2826 244.3465,423.3053 244.8101,423.2826 245.2692,423.2145 245.7195,423.1017 246.1565,422.9453 246.5762,422.7468 246.9743,422.5082 247.3471,422.2317 247.6911,421.92 248.0028,421.576 248.2793,421.2032 248.5179,420.8051 248.7164,420.3855 248.8728,419.9484 248.9855,419.4981 249.0537,419.039 249.0764,418.5754 249.0537,418.1118 248.9855,417.6526 248.8728,417.2023 248.7164,416.7653 248.5179,416.3457 248.2793,415.9475 248.0028,415.5747 247.6911,415.2308 247.3471,414.9191 246.9743,414.6425 246.5762,414.4039 246.1565,414.2054 245.7195,414.0491 245.2692,413.9363 244.8101,413.8682 244.3465,413.8454 243.8828,413.8682 243.4237,413.9363 242.9734,414.0491 242.5364,414.2054 242.1168,414.4039 241.7186,414.6425"/>
    <polygon points="234.1655,419.1827 234.8247,418.2938 235.3936,417.3447 235.8668,416.3443 236.2396,415.3024 236.5085,414.2289 236.6708,413.1343 236.7251,412.029 236.6708,410.9238 236.5085,409.8291 236.2396,408.7557 235.8668,407.7138 235.3936,406.7134 234.8247,405.7643 234.1655,404.8754 233.4224,404.0555 232.6024,403.3123 231.7136,402.6531 230.7644,402.0842 229.7641,401.6111 228.7222,401.2383 227.6487,400.9694 226.5541,400.807 225.4488,400.7527 224.3435,400.807 223.2489,400.9694 222.1755,401.2383 221.1336,401.6111 220.1332,402.0842 219.184,402.6531 218.2952,403.3123 217.4753,404.0555 216.7321,404.8754 216.0729,405.7643 215.504,406.7134 215.0309,407.7138 214.6581,408.7557 214.3892,409.8291 214.2268,410.9238 214.1725,412.029 214.2268,413.1343 214.3892,414.2289 214.6581,415.3024 215.0309,416.3443 215.504,417.3447 216.0729,418.2938 216.7321,419.1827 217.4753,420.0026 218.2952,420.7457 219.184,421.4049 220.1332,421.9739 221.1336,422.447 222.1755,422.8198 223.2489,423.0887 224.3435,423.251 225.4488,423.3053 226.5541,423.251 227.6487,423.0887 228.7222,422.8198 229.7641,422.447 230.7644,421.9739 231.7136,421.4049 232.6024,420.7457 233.4224,420.0026"/>
  </g>
</svg>
