<?xml version="1.0" encoding="utf-8" ?>
<svg xmlns="http://www.w3.org/2000/svg" xmlns:cc="http://creativecommons.org/ns" xmlns:dc="http://purl.org/dc/elements/1.1/" xmlns:ev="http://www.w3.org/2001/xml-events" xmlns:inkscape="http://www.inkscape.org/namespaces/inkscape" xmlns:rdf="http://www.w3.org/1999/02/22-rdf-syntax-ns" xmlns:sodipodi="http://sodipodi.sourceforge.net/DTD/sodipodi-0.dtd" xmlns:xlink="http://www.w3.org/1999/xlink" baseProfile="tiny" height="15.875cm" version="1.2" viewBox="0 0 432.0 600.0" width="11.43cm">
  <metadata>
    <rdf:RDF>
      <cc:Work>
        <dc:format>image/svg+xml</dc:format>
        <dc:source>vsk save -s 256 -c hex-grid/config/bubble-coasters-2.json /Users/tobin/src/fabian/plotting/fabian-plotting/hex-grid/sketch_hex_grid.py</dc:source>
        <dc:date>2023-11-11T11:30:23.839252</dc:date>
      </cc:Work>
    </rdf:RDF>
  </metadata>
  <defs/>
  <g fill="none" id="layer1" inkscape:groupmode="layer" inkscape:label="1" stroke="#000000" stroke-width="0.7559" style="display:inline">
    <polygon points="146.3577,312.7608 146.1953,311.6661 146.141,310.5609 146.1953,309.4556 146.3577,308.361 146.6266,307.2875 146.9994,306.2456 147.4725,305.2453 148.0414,304.2961 148.7006,303.4073 149.4438,302.5873 150.2637,301.8442 151.1525,301.185 152.1017,300.616 153.1021,300.1429 154.144,299.7701 155.2174,299.5012 156.3121,299.3389 157.4173,299.2846 158.5226,299.3389 159.6172,299.5012 160.6907,299.7701 161.7326,300.1429 162.7329,300.616 163.6821,301.185 164.5709,301.8442 165.3909,302.5873 166.134,303.4073 166.7932,304.2961 167.3621,305.2453 167.8353,306.2456 168.2081,307.2875 168.477,308.361 168.6393,309.4556 168.6936,310.5609 168.6393,311.6661 168.477,312.7608 168.2081,313.8342 167.8353,314.8761 167.3621,315.8765 166.7932,316.8256 166.134,317.7145 165.3909,318.5344 164.5709,319.2776 163.6821,319.9368 162.7329,320.5057 161.7326,320.9788 160.6907,321.3516 159.6172,321.6205 158.5226,321.7829 157.4173,321.8372 156.3121,321.7829 155.2174,321.6205 154.144,321.3516 153.1021,320.9788 152.1017,320.5057 151.1525,319.9368 150.2637,319.2776 149.4438,318.5344 148.7006,317.7145 148.0414,316.8256 147.4725,315.8765 146.9994,314.8761 146.6266,313.8342"/>
    <polygon points="140.0558,287.5234 139.0554,287.0502 138.0135,286.6774 136.9401,286.4086 135.8454,286.2462 134.7402,286.1919 133.6349,286.2462 132.5403,286.4086 131.4668,286.6774 130.4249,287.0502 129.4245,287.5234 128.4754,288.0923 127.5865,288.7515 126.7666,289.4946 126.0235,290.3146 125.3643,291.2034 124.7953,292.1526 124.3222,293.1529 123.9494,294.1949 123.6805,295.2683 123.5181,296.3629 123.4639,297.4682 123.5181,298.5735 123.6805,299.6681 123.9494,300.7415 124.3222,301.7835 124.7953,302.7838 125.3643,303.733 126.0235,304.6218 126.7666,305.4417 127.5865,306.1849 128.4754,306.8441 129.4245,307.413 130.4249,307.8861 131.4668,308.2589 132.5403,308.5278 133.6349,308.6902 134.7402,308.7445 135.8454,308.6902 136.9401,308.5278 138.0135,308.2589 139.0554,307.8861 140.0558,307.413 141.0049,306.8441 141.8938,306.1849 142.7137,305.4417 143.4569,304.6218 144.1161,303.733 144.685,302.7838 145.1581,301.7835 145.5309,300.7415 145.7998,299.6681 145.9622,298.5735 146.0165,297.4682 145.9622,296.3629 145.7998,295.2683 145.5309,294.1949 145.1581,293.1529 144.685,292.1526 144.1161,291.2034 143.4569,290.3146 142.7137,289.4946 141.8938,288.7515 141.0049,288.0923"/>
    <polygon points="143.6723,275.8092 144.1093,275.6528 144.5289,275.4543 144.927,275.2157 145.2999,274.9392 145.6438,274.6275 145.9555,274.2835 146.232,273.9107 146.4707,273.5126 146.6691,273.0929 146.8255,272.6559 146.9383,272.2056 147.0064,271.7465 147.0292,271.2829 147.0064,270.8192 146.9383,270.3601 146.8255,269.9098 146.6691,269.4728 146.4707,269.0532 146.232,268.655 145.9555,268.2822 145.6438,267.9383 145.2999,267.6265 144.927,267.35 144.5289,267.1114 144.1093,266.9129 143.6723,266.7566 143.222,266.6438 142.7628,266.5757 142.2992,266.5529 141.8356,266.5757 141.3764,266.6438 140.9262,266.7566 140.4891,266.9129 140.0695,267.1114 139.6714,267.35 139.2985,267.6265 138.9546,267.9383 138.6429,268.2822 138.3664,268.655 138.1277,269.0532 137.9293,269.4728 137.7729,269.9098 137.6601,270.3601 137.592,270.8192 137.5692,271.2829 137.592,271.7465 137.6601,272.2056 137.7729,272.6559 137.9293,273.0929 138.1277,273.5126 138.3664,273.9107 138.6429,274.2835 138.9546,274.6275 139.2985,274.9392 139.6714,275.2157 140.0695,275.4543 140.4891,275.6528 140.9262,275.8092 141.3764,275.9219 141.8356,275.9901 142.2992,276.0128 142.7628,275.9901 143.222,275.9219"/>
    <polygon points="101.584,296.5454 101.6521,297.0046 101.6749,297.4682 101.6521,297.9318 101.584,298.391 101.4712,298.8412 101.3148,299.2783 101.1163,299.6979 100.8777,300.096 100.6012,300.4689 100.2895,300.8128 99.9455,301.1245 99.5727,301.401 99.1746,301.6397 98.755,301.8381 98.3179,301.9945 97.8677,302.1073 97.4085,302.1754 96.9449,302.1982 96.4813,302.1754 96.0221,302.1073 95.5718,301.9945 95.1348,301.8381 94.7152,301.6397 94.317,301.401 93.9442,301.1245 93.6003,300.8128 93.2886,300.4689 93.0121,300.096 92.7734,299.6979 92.575,299.2783 92.4186,298.8412 92.3058,298.391 92.2377,297.9318 92.2149,297.4682 92.2377,297.0046 92.3058,296.5454 92.4186,296.0952 92.575,295.6581 92.7734,295.2385 93.0121,294.8404 93.2886,294.4675 93.6003,294.1236 93.9442,293.8119 94.317,293.5354 94.7152,293.2967 95.1348,293.0983 95.5718,292.9419 96.0221,292.8291 96.4813,292.761 96.9449,292.7382 97.4085,292.761 97.8677,292.8291 98.3179,292.9419 98.755,293.0983 99.1746,293.2967 99.5727,293.5354 99.9455,293.8119 100.2895,294.1236 100.6012,294.4675 100.8777,294.8404 101.1163,295.2385 101.3148,295.6581 101.4712,296.0952"/>
    <polygon points="102.6871,304.2961 103.3463,303.4073 104.0894,302.5873 104.9094,301.8442 105.7982,301.185 106.7474,300.616 107.7477,300.1429 108.7897,299.7701 109.8631,299.5012 110.9577,299.3389 112.063,299.2846 113.1683,299.3389 114.2629,299.5012 115.3363,299.7701 116.3782,300.1429 117.3786,300.616 118.3278,301.185 119.2166,301.8442 120.0365,302.5873 120.7797,303.4073 121.4389,304.2961 122.0078,305.2453 122.4809,306.2456 122.8537,307.2875 123.1226,308.361 123.285,309.4556 123.3393,310.5609 123.285,311.6661 123.1226,312.7608 122.8537,313.8342 122.4809,314.8761 122.0078,315.8765 121.4389,316.8256 120.7797,317.7145 120.0365,318.5344 119.2166,319.2776 118.3278,319.9368 117.3786,320.5057 116.3782,320.9788 115.3363,321.3516 114.2629,321.6205 113.1683,321.7829 112.063,321.8372 110.9577,321.7829 109.8631,321.6205 108.7897,321.3516 107.7477,320.9788 106.7474,320.5057 105.7982,319.9368 104.9094,319.2776 104.0894,318.5344 103.3463,317.7145 102.6871,316.8256 102.1182,315.8765 101.645,314.8761 101.2722,313.8342 101.0034,312.7608 100.841,311.6661 100.7867,310.5609 100.841,309.4556 101.0034,308.361 101.2722,307.2875 101.645,306.2456 102.1182,305.2453"/>
    <polygon points="102.6871,330.4814 103.3463,329.5926 104.0894,328.7726 104.9094,328.0295 105.7982,327.3703 106.7474,326.8014 107.7477,326.3283 108.7897,325.9554 109.8631,325.6866 110.9577,325.5242 112.063,325.4699 113.1683,325.5242 114.2629,325.6866 115.3363,325.9554 116.3782,326.3283 117.3786,326.8014 118.3278,327.3703 119.2166,328.0295 120.0365,328.7726 120.7797,329.5926 121.4389,330.4814 122.0078,331.4306 122.4809,332.4309 122.8537,333.4729 123.1226,334.5463 123.285,335.6409 123.3393,336.7462 123.285,337.8515 123.1226,338.9461 122.8537,340.0195 122.4809,341.0615 122.0078,342.0618 121.4389,343.011 120.7797,343.8998 120.0365,344.7198 119.2166,345.4629 118.3278,346.1221 117.3786,346.691 116.3782,347.1641 115.3363,347.537 114.2629,347.8058 113.1683,347.9682 112.063,348.0225 110.9577,347.9682 109.8631,347.8058 108.7897,347.537 107.7477,347.1641 106.7474,346.691 105.7982,346.1221 104.9094,345.4629 104.0894,344.7198 103.3463,343.8998 102.6871,343.011 102.1182,342.0618 101.645,341.0615 101.2722,340.0195 101.0034,338.9461 100.841,337.8515 100.7867,336.7462 100.841,335.6409 101.0034,334.5463 101.2722,333.4729 101.645,332.4309 102.1182,331.4306"/>
    <polygon points="127.0278,340.6647 127.3043,340.2919 127.616,339.9479 127.96,339.6362 128.3328,339.3597 128.7309,339.1211 129.1505,338.9226 129.5876,338.7662 130.0379,338.6534 130.497,338.5853 130.9606,338.5626 131.4242,338.5853 131.8834,338.6534 132.3337,338.7662 132.7707,338.9226 133.1903,339.1211 133.5885,339.3597 133.9613,339.6362 134.3052,339.9479 134.6169,340.2919 134.8935,340.6647 135.1321,341.0628 135.3306,341.4825 135.4869,341.9195 135.5997,342.3698 135.6678,342.8289 135.6906,343.2925 135.6678,343.7562 135.5997,344.2153 135.4869,344.6656 135.3306,345.1026 135.1321,345.5222 134.8935,345.9204 134.6169,346.2932 134.3052,346.6371 133.9613,346.9489 133.5885,347.2254 133.1903,347.464 132.7707,347.6625 132.3337,347.8188 131.8834,347.9316 131.4242,347.9997 130.9606,348.0225 130.497,347.9997 130.0379,347.9316 129.5876,347.8188 129.1505,347.6625 128.7309,347.464 128.3328,347.2254 127.96,346.9489 127.616,346.6371 127.3043,346.2932 127.0278,345.9204 126.7892,345.5222 126.5907,345.1026 126.4343,344.6656 126.3215,344.2153 126.2534,343.7562 126.2307,343.2925 126.2534,342.8289 126.3215,342.3698 126.4343,341.9195 126.5907,341.4825 126.7892,341.0628"/>
    <polygon points="141.8938,332.3702 141.0049,333.0294 140.0558,333.5983 139.0554,334.0715 138.0135,334.4443 136.9401,334.7132 135.8454,334.8755 134.7402,334.9298 133.6349,334.8755 132.5403,334.7132 131.4668,334.4443 130.4249,334.0715 129.4245,333.5983 128.4754,333.0294 127.5865,332.3702 126.7666,331.6271 126.0235,330.8071 125.3643,329.9183 124.7953,328.9691 124.3222,327.9688 123.9494,326.9269 123.6805,325.8534 123.5181,324.7588 123.4639,323.6535 123.5181,322.5483 123.6805,321.4536 123.9494,320.3802 124.3222,319.3383 124.7953,318.3379 125.3643,317.3888 126.0235,316.4999 126.7666,315.68 127.5865,314.9368 128.4754,314.2776 129.4245,313.7087 130.4249,313.2356 131.4668,312.8628 132.5403,312.5939 133.6349,312.4315 134.7402,312.3772 135.8454,312.4315 136.9401,312.5939 138.0135,312.8628 139.0554,313.2356 140.0558,313.7087 141.0049,314.2776 141.8938,314.9368 142.7137,315.68 143.4569,316.4999 144.1161,317.3888 144.685,318.3379 145.1581,319.3383 145.5309,320.3802 145.7998,321.4536 145.9622,322.5483 146.0165,323.6535 145.9622,324.7588 145.7998,325.8534 145.5309,326.9269 145.1581,327.9688 144.685,328.9691 144.1161,329.9183 143.4569,330.8071 142.7137,331.6271"/>
    <polygon points="149.4663,327.9702 149.705,327.572 149.9815,327.1992 150.2932,326.8553 150.6371,326.5435 151.01,326.267 151.4081,326.0284 151.8277,325.8299 152.2648,325.6736 152.715,325.5608 153.1742,325.4927 153.6378,325.4699 154.1014,325.4927 154.5606,325.5608 155.0108,325.6736 155.4479,325.8299 155.8675,326.0284 156.2656,326.267 156.6385,326.5435 156.9824,326.8553 157.2941,327.1992 157.5706,327.572 157.8093,327.9702 158.0077,328.3898 158.1641,328.8268 158.2769,329.2771 158.345,329.7362 158.3678,330.1999 158.345,330.6635 158.2769,331.1226 158.1641,331.5729 158.0077,332.0099 157.8093,332.4296 157.5706,332.8277 157.2941,333.2005 156.9824,333.5445 156.6385,333.8562 156.2656,334.1327 155.8675,334.3713 155.4479,334.5698 155.0108,334.7262 154.5606,334.839 154.1014,334.9071 153.6378,334.9298 153.1742,334.9071 152.715,334.839 152.2648,334.7262 151.8277,334.5698 151.4081,334.3713 151.01,334.1327 150.6371,333.8562 150.2932,333.5445 149.9815,333.2005 149.705,332.8277 149.4663,332.4296 149.2679,332.0099 149.1115,331.5729 148.9987,331.1226 148.9306,330.6635 148.9078,330.1999 148.9306,329.7362 148.9987,329.2771 149.1115,328.8268 149.2679,328.3898"/>
    <polygon points="158.345,342.8289 158.3678,343.2925 158.345,343.7562 158.2769,344.2153 158.1641,344.6656 158.0077,345.1026 157.8093,345.5222 157.5706,345.9204 157.2941,346.2932 156.9824,346.6371 156.6385,346.9489 156.2656,347.2254 155.8675,347.464 155.4479,347.6625 155.0108,347.8188 154.5606,347.9316 154.1014,347.9997 153.6378,348.0225 153.1742,347.9997 152.715,347.9316 152.2648,347.8188 151.8277,347.6625 151.4081,347.464 151.01,347.2254 150.6371,346.9489 150.2932,346.6371 149.9815,346.2932 149.705,345.9204 149.4663,345.5222 149.2679,345.1026 149.1115,344.6656 148.9987,344.2153 148.9306,343.7562 148.9078,343.2925 148.9306,342.8289 148.9987,342.3698 149.1115,341.9195 149.2679,341.4825 149.4663,341.0628 149.705,340.6647 149.9815,340.2919 150.2932,339.9479 150.6371,339.6362 151.01,339.3597 151.4081,339.1211 151.8277,338.9226 152.2648,338.7662 152.715,338.6534 153.1742,338.5853 153.6378,338.5626 154.1014,338.5853 154.5606,338.6534 155.0108,338.7662 155.4479,338.9226 155.8675,339.1211 156.2656,339.3597 156.6385,339.6362 156.9824,339.9479 157.2941,340.2919 157.5706,340.6647 157.8093,341.0628 158.0077,341.4825 158.1641,341.9195 158.2769,342.3698"/>
    <polygon points="161.6318,353.1835 161.3201,352.8395 161.0435,352.4667 160.8049,352.0686 160.6065,351.6489 160.4501,351.2119 160.3373,350.7616 160.2692,350.3025 160.2464,349.8389 160.2692,349.3752 160.3373,348.9161 160.4501,348.4658 160.6065,348.0288 160.8049,347.6092 161.0435,347.211 161.3201,346.8382 161.6318,346.4943 161.9757,346.1825 162.3485,345.906 162.7467,345.6674 163.1663,345.4689 163.6033,345.3126 164.0536,345.1998 164.5128,345.1317 164.9764,345.1089 165.44,345.1317 165.8991,345.1998 166.3494,345.3126 166.7865,345.4689 167.2061,345.6674 167.6042,345.906 167.977,346.1825 168.321,346.4943 168.6327,346.8382 168.9092,347.211 169.1478,347.6092 169.3463,348.0288 169.5027,348.4658 169.6155,348.9161 169.6836,349.3752 169.7064,349.8389 169.6836,350.3025 169.6155,350.7616 169.5027,351.2119 169.3463,351.6489 169.1478,352.0686 168.9092,352.4667 168.6327,352.8395 168.321,353.1835 167.977,353.4952 167.6042,353.7717 167.2061,354.0103 166.7865,354.2088 166.3494,354.3652 165.8991,354.478 165.44,354.5461 164.9764,354.5688 164.5128,354.5461 164.0536,354.478 163.6033,354.3652 163.1663,354.2088 162.7467,354.0103 162.3485,353.7717 161.9757,353.4952"/>
    <polygon points="163.1663,367.3015 162.7467,367.103 162.3485,366.8644 161.9757,366.5879 161.6318,366.2761 161.3201,365.9322 161.0435,365.5594 160.8049,365.1612 160.6065,364.7416 160.4501,364.3046 160.3373,363.8543 160.2692,363.3952 160.2464,362.9315 160.2692,362.4679 160.3373,362.0088 160.4501,361.5585 160.6065,361.1215 160.8049,360.7018 161.0435,360.3037 161.3201,359.9309 161.6318,359.5869 161.9757,359.2752 162.3485,358.9987 162.7467,358.7601 163.1663,358.5616 163.6033,358.4052 164.0536,358.2924 164.5128,358.2243 164.9764,358.2016 165.44,358.2243 165.8991,358.2924 166.3494,358.4052 166.7865,358.5616 167.2061,358.7601 167.6042,358.9987 167.977,359.2752 168.321,359.5869 168.6327,359.9309 168.9092,360.3037 169.1478,360.7018 169.3463,361.1215 169.5027,361.5585 169.6155,362.0088 169.6836,362.4679 169.7064,362.9315 169.6836,363.3952 169.6155,363.8543 169.5027,364.3046 169.3463,364.7416 169.1478,365.1612 168.9092,365.5594 168.6327,365.9322 168.321,366.2761 167.977,366.5879 167.6042,366.8644 167.2061,367.103 166.7865,367.3015 166.3494,367.4578 165.8991,367.5706 165.44,367.6387 164.9764,367.6615 164.5128,367.6387 164.0536,367.5706 163.6033,367.4578"/>
    <polygon points="171.945,354.5751 172.1435,354.1555 172.3821,353.7574 172.6586,353.3845 172.9704,353.0406 173.3143,352.7289 173.6871,352.4524 174.0853,352.2137 174.5049,352.0153 174.9419,351.8589 175.3922,351.7461 175.8513,351.678 176.315,351.6552 176.7786,351.678 177.2377,351.7461 177.688,351.8589 178.125,352.0153 178.5447,352.2137 178.9428,352.4524 179.3156,352.7289 179.6596,353.0406 179.9713,353.3845 180.2478,353.7574 180.4864,354.1555 180.6849,354.5751 180.8413,355.0122 180.954,355.4624 181.0222,355.9216 181.0449,356.3852 181.0222,356.8488 180.954,357.308 180.8413,357.7582 180.6849,358.1953 180.4864,358.6149 180.2478,359.013 179.9713,359.3859 179.6596,359.7298 179.3156,360.0415 178.9428,360.318 178.5447,360.5567 178.125,360.7551 177.688,360.9115 177.2377,361.0243 176.7786,361.0924 176.315,361.1152 175.8513,361.0924 175.3922,361.0243 174.9419,360.9115 174.5049,360.7551 174.0853,360.5567 173.6871,360.318 173.3143,360.0415 172.9704,359.7298 172.6586,359.3859 172.3821,359.013 172.1435,358.6149 171.945,358.1953 171.7887,357.7582 171.6759,357.308 171.6078,356.8488 171.585,356.3852 171.6078,355.9216 171.6759,355.4624 171.7887,355.0122"/>
    <polygon points="179.9713,346.2932 179.6596,346.6371 179.3156,346.9489 178.9428,347.2254 178.5447,347.464 178.125,347.6625 177.688,347.8188 177.2377,347.9316 176.7786,347.9997 176.315,348.0225 175.8513,347.9997 175.3922,347.9316 174.9419,347.8188 174.5049,347.6625 174.0853,347.464 173.6871,347.2254 173.3143,346.9489 172.9704,346.6371 172.6586,346.2932 172.3821,345.9204 172.1435,345.5222 171.945,345.1026 171.7887,344.6656 171.6759,344.2153 171.6078,343.7562 171.585,343.2925 171.6078,342.8289 171.6759,342.3698 171.7887,341.9195 171.945,341.4825 172.1435,341.0628 172.3821,340.6647 172.6586,340.2919 172.9704,339.9479 173.3143,339.6362 173.6871,339.3597 174.0853,339.1211 174.5049,338.9226 174.9419,338.7662 175.3922,338.6534 175.8513,338.5853 176.315,338.5626 176.7786,338.5853 177.2377,338.6534 177.688,338.7662 178.125,338.9226 178.5447,339.1211 178.9428,339.3597 179.3156,339.6362 179.6596,339.9479 179.9713,340.2919 180.2478,340.6647 180.4864,341.0628 180.6849,341.4825 180.8413,341.9195 180.954,342.3698 181.0222,342.8289 181.0449,343.2925 181.0222,343.7562 180.954,344.2153 180.8413,344.6656 180.6849,345.1026 180.4864,345.5222 180.2478,345.9204"/>
    <polygon points="190.0393,318.3379 190.5124,319.3383 190.8852,320.3802 191.1541,321.4536 191.3165,322.5483 191.3708,323.6535 191.3165,324.7588 191.1541,325.8534 190.8852,326.9269 190.5124,327.9688 190.0393,328.9691 189.4704,329.9183 188.8112,330.8071 188.068,331.6271 187.2481,332.3702 186.3593,333.0294 185.4101,333.5983 184.4097,334.0715 183.3678,334.4443 182.2944,334.7132 181.1998,334.8755 180.0945,334.9298 178.9892,334.8755 177.8946,334.7132 176.8211,334.4443 175.7792,334.0715 174.7789,333.5983 173.8297,333.0294 172.9409,332.3702 172.1209,331.6271 171.3778,330.8071 170.7186,329.9183 170.1497,328.9691 169.6765,327.9688 169.3037,326.9269 169.0349,325.8534 168.8725,324.7588 168.8182,323.6535 168.8725,322.5483 169.0349,321.4536 169.3037,320.3802 169.6765,319.3383 170.1497,318.3379 170.7186,317.3888 171.3778,316.4999 172.1209,315.68 172.9409,314.9368 173.8297,314.2776 174.7789,313.7087 175.7792,313.2356 176.8211,312.8628 177.8946,312.5939 178.9892,312.4315 180.0945,312.3772 181.1998,312.4315 182.2944,312.5939 183.3678,312.8628 184.4097,313.2356 185.4101,313.7087 186.3593,314.2776 187.2481,314.9368 188.068,315.68 188.8112,316.4999 189.4704,317.3888"/>
    <polygon points="203.6312,331.1226 203.5184,331.5729 203.3621,332.0099 203.1636,332.4296 202.925,332.8277 202.6484,333.2005 202.3367,333.5445 201.9928,333.8562 201.62,334.1327 201.2218,334.3713 200.8022,334.5698 200.3652,334.7262 199.9149,334.839 199.4557,334.9071 198.9921,334.9298 198.5285,334.9071 198.0694,334.839 197.6191,334.7262 197.182,334.5698 196.7624,334.3713 196.3643,334.1327 195.9915,333.8562 195.6475,333.5445 195.3358,333.2005 195.0593,332.8277 194.8207,332.4296 194.6222,332.0099 194.4658,331.5729 194.353,331.1226 194.2849,330.6635 194.2622,330.1999 194.2849,329.7362 194.353,329.2771 194.4658,328.8268 194.6222,328.3898 194.8207,327.9702 195.0593,327.572 195.3358,327.1992 195.6475,326.8553 195.9915,326.5435 196.3643,326.267 196.7624,326.0284 197.182,325.8299 197.6191,325.6736 198.0694,325.5608 198.5285,325.4927 198.9921,325.4699 199.4557,325.4927 199.9149,325.5608 200.3652,325.6736 200.8022,325.8299 201.2218,326.0284 201.62,326.267 201.9928,326.5435 202.3367,326.8553 202.6484,327.1992 202.925,327.572 203.1636,327.9702 203.3621,328.3898 203.5184,328.8268 203.6312,329.2771 203.6993,329.7362 203.7221,330.1999 203.6993,330.6635"/>
    <polygon points="269.2533,347.464 269.6515,347.2254 270.0243,346.9489 270.3682,346.6371 270.6799,346.2932 270.9565,345.9204 271.1951,345.5222 271.3935,345.1026 271.5499,344.6656 271.6627,344.2153 271.7308,343.7562 271.7536,343.2925 271.7308,342.8289 271.6627,342.3698 271.5499,341.9195 271.3935,341.4825 271.1951,341.0628 270.9565,340.6647 270.6799,340.2919 270.3682,339.9479 270.0243,339.6362 269.6515,339.3597 269.2533,339.1211 268.8337,338.9226 268.3967,338.7662 267.9464,338.6534 267.4872,338.5853 267.0236,338.5626 266.56,338.5853 266.1009,338.6534 265.6506,338.7662 265.2135,338.9226 264.7939,339.1211 264.3958,339.3597 264.023,339.6362 263.679,339.9479 263.3673,340.2919 263.0908,340.6647 262.8522,341.0628 262.6537,341.4825 262.4973,341.9195 262.3845,342.3698 262.3164,342.8289 262.2936,343.2925 262.3164,343.7562 262.3845,344.2153 262.4973,344.6656 262.6537,345.1026 262.8522,345.5222 263.0908,345.9204 263.3673,346.2932 263.679,346.6371 264.023,346.9489 264.3958,347.2254 264.7939,347.464 265.2135,347.6625 265.6506,347.8188 266.1009,347.9316 266.56,347.9997 267.0236,348.0225 267.4872,347.9997 267.9464,347.9316 268.3967,347.8188 268.8337,347.6625"/>
    <polygon points="279.5199,330.8071 280.1791,329.9183 280.748,328.9691 281.2211,327.9688 281.5939,326.9269 281.8628,325.8534 282.0252,324.7588 282.0795,323.6535 282.0252,322.5483 281.8628,321.4536 281.5939,320.3802 281.2211,319.3383 280.748,318.3379 280.1791,317.3888 279.5199,316.4999 278.7767,315.68 277.9568,314.9368 277.0679,314.2776 276.1188,313.7087 275.1184,313.2356 274.0765,312.8628 273.003,312.5939 271.9084,312.4315 270.8031,312.3772 269.6979,312.4315 268.6033,312.5939 267.5298,312.8628 266.4879,313.2356 265.4875,313.7087 264.5384,314.2776 263.6495,314.9368 262.8296,315.68 262.0864,316.4999 261.4272,317.3888 260.8583,318.3379 260.3852,319.3383 260.0124,320.3802 259.7435,321.4536 259.5811,322.5483 259.5268,323.6535 259.5811,324.7588 259.7435,325.8534 260.0124,326.9269 260.3852,327.9688 260.8583,328.9691 261.4272,329.9183 262.0864,330.8071 262.8296,331.6271 263.6495,332.3702 264.5384,333.0294 265.4875,333.5983 266.4879,334.0715 267.5298,334.4443 268.6033,334.7132 269.6979,334.8755 270.8031,334.9298 271.9084,334.8755 273.003,334.7132 274.0765,334.4443 275.1184,334.0715 276.1188,333.5983 277.0679,333.0294 277.9568,332.3702 278.7767,331.6271"/>
    <polygon points="308.4451,353.7574 308.2065,354.1555 308.008,354.5751 307.8517,355.0122 307.7389,355.4624 307.6708,355.9216 307.648,356.3852 307.6708,356.8488 307.7389,357.308 307.8517,357.7582 308.008,358.1953 308.2065,358.6149 308.4451,359.013 308.7216,359.3859 309.0334,359.7298 309.3773,360.0415 309.7501,360.318 310.1483,360.5567 310.5679,360.7551 311.0049,360.9115 311.4552,361.0243 311.9143,361.0924 312.378,361.1152 312.8416,361.0924 313.3007,361.0243 313.751,360.9115 314.188,360.7551 314.6076,360.5567 315.0058,360.318 315.3786,360.0415 315.7225,359.7298 316.0343,359.3859 316.3108,359.013 316.5494,358.6149 316.7479,358.1953 316.9043,357.7582 317.017,357.308 317.0851,356.8488 317.1079,356.3852 317.0851,355.9216 317.017,355.4624 316.9043,355.0122 316.7479,354.5751 316.5494,354.1555 316.3108,353.7574 316.0343,353.3845 315.7225,353.0406 315.3786,352.7289 315.0058,352.4524 314.6076,352.2137 314.188,352.0153 313.751,351.8589 313.3007,351.7461 312.8416,351.678 312.378,351.6552 311.9143,351.678 311.4552,351.7461 311.0049,351.8589 310.5679,352.0153 310.1483,352.2137 309.7501,352.4524 309.3773,352.7289 309.0334,353.0406 308.7216,353.3845"/>
    <polygon points="317.0851,343.7562 317.1079,343.2925 317.0851,342.8289 317.017,342.3698 316.9043,341.9195 316.7479,341.4825 316.5494,341.0628 316.3108,340.6647 316.0343,340.2919 315.7225,339.9479 315.3786,339.6362 315.0058,339.3597 314.6076,339.1211 314.188,338.9226 313.751,338.7662 313.3007,338.6534 312.8416,338.5853 312.378,338.5626 311.9143,338.5853 311.4552,338.6534 311.0049,338.7662 310.5679,338.9226 310.1483,339.1211 309.7501,339.3597 309.3773,339.6362 309.0334,339.9479 308.7216,340.2919 308.4451,340.6647 308.2065,341.0628 308.008,341.4825 307.8517,341.9195 307.7389,342.3698 307.6708,342.8289 307.648,343.2925 307.6708,343.7562 307.7389,344.2153 307.8517,344.6656 308.008,345.1026 308.2065,345.5222 308.4451,345.9204 308.7216,346.2932 309.0334,346.6371 309.3773,346.9489 309.7501,347.2254 310.1483,347.464 310.5679,347.6625 311.0049,347.8188 311.4552,347.9316 311.9143,347.9997 312.378,348.0225 312.8416,347.9997 313.3007,347.9316 313.751,347.8188 314.188,347.6625 314.6076,347.464 315.0058,347.2254 315.3786,346.9489 315.7225,346.6371 316.0343,346.2932 316.3108,345.9204 316.5494,345.5222 316.7479,345.1026 316.9043,344.6656 317.017,344.2153"/>
    <polygon points="339.425,345.1026 339.2266,345.5222 338.9879,345.9204 338.7114,346.2932 338.3997,346.6371 338.0558,346.9489 337.683,347.2254 337.2848,347.464 336.8652,347.6625 336.4282,347.8188 335.9779,347.9316 335.5187,347.9997 335.0551,348.0225 334.5915,347.9997 334.1323,347.9316 333.6821,347.8188 333.245,347.6625 332.8254,347.464 332.4273,347.2254 332.0545,346.9489 331.7105,346.6371 331.3988,346.2932 331.1223,345.9204 330.8837,345.5222 330.6852,345.1026 330.5288,344.6656 330.416,344.2153 330.3479,343.7562 330.3251,343.2925 330.3479,342.8289 330.416,342.3698 330.5288,341.9195 330.6852,341.4825 330.8837,341.0628 331.1223,340.6647 331.3988,340.2919 331.7105,339.9479 332.0545,339.6362 332.4273,339.3597 332.8254,339.1211 333.245,338.9226 333.6821,338.7662 334.1323,338.6534 334.5915,338.5853 335.0551,338.5626 335.5187,338.5853 335.9779,338.6534 336.4282,338.7662 336.8652,338.9226 337.2848,339.1211 337.683,339.3597 338.0558,339.6362 338.3997,339.9479 338.7114,340.2919 338.9879,340.6647 339.2266,341.0628 339.425,341.4825 339.5814,341.9195 339.6942,342.3698 339.7623,342.8289 339.7851,343.2925 339.7623,343.7562 339.6942,344.2153 339.5814,344.6656"/>
    <polygon points="321.4868,332.5747 321.9065,332.3763 322.3435,332.2199 322.7938,332.1071 323.2529,332.039 323.7165,332.0162 324.1802,332.039 324.6393,332.1071 325.0896,332.2199 325.5266,332.3763 325.9462,332.5747 326.3444,332.8134 326.7172,333.0899 327.0611,333.4016 327.3729,333.7455 327.6494,334.1184 327.888,334.5165 328.0865,334.9361 328.2428,335.3732 328.3556,335.8234 328.4237,336.2826 328.4465,336.7462 328.4237,337.2098 328.3556,337.669 328.2428,338.1192 328.0865,338.5563 327.888,338.9759 327.6494,339.374 327.3729,339.7469 327.0611,340.0908 326.7172,340.4025 326.3444,340.679 325.9462,340.9177 325.5266,341.1161 325.0896,341.2725 324.6393,341.3853 324.1802,341.4534 323.7165,341.4762 323.2529,341.4534 322.7938,341.3853 322.3435,341.2725 321.9065,341.1161 321.4868,340.9177 321.0887,340.679 320.7159,340.4025 320.3719,340.0908 320.0602,339.7469 319.7837,339.374 319.5451,338.9759 319.3466,338.5563 319.1902,338.1192 319.0774,337.669 319.0093,337.2098 318.9866,336.7462 319.0093,336.2826 319.0774,335.8234 319.1902,335.3732 319.3466,334.9361 319.5451,334.5165 319.7837,334.1184 320.0602,333.7455 320.3719,333.4016 320.7159,333.0899 321.0887,332.8134"/>
    <polygon points="307.8517,331.5729 307.7389,331.1226 307.6708,330.6635 307.648,330.1999 307.6708,329.7362 307.7389,329.2771 307.8517,328.8268 308.008,328.3898 308.2065,327.9702 308.4451,327.572 308.7216,327.1992 309.0334,326.8553 309.3773,326.5435 309.7501,326.267 310.1483,326.0284 310.5679,325.8299 311.0049,325.6736 311.4552,325.5608 311.9143,325.4927 312.378,325.4699 312.8416,325.4927 313.3007,325.5608 313.751,325.6736 314.188,325.8299 314.6076,326.0284 315.0058,326.267 315.3786,326.5435 315.7225,326.8553 316.0343,327.1992 316.3108,327.572 316.5494,327.9702 316.7479,328.3898 316.9043,328.8268 317.017,329.2771 317.0851,329.7362 317.1079,330.1999 317.0851,330.6635 317.017,331.1226 316.9043,331.5729 316.7479,332.0099 316.5494,332.4296 316.3108,332.8277 316.0343,333.2005 315.7225,333.5445 315.3786,333.8562 315.0058,334.1327 314.6076,334.3713 314.188,334.5698 313.751,334.7262 313.3007,334.839 312.8416,334.9071 312.378,334.9298 311.9143,334.9071 311.4552,334.839 311.0049,334.7262 310.5679,334.5698 310.1483,334.3713 309.7501,334.1327 309.3773,333.8562 309.0334,333.5445 308.7216,333.2005 308.4451,332.8277 308.2065,332.4296 308.008,332.0099"/>
    <polygon points="304.7023,335.6409 304.7566,336.7462 304.7023,337.8515 304.54,338.9461 304.2711,340.0195 303.8983,341.0615 303.4251,342.0618 302.8562,343.011 302.197,343.8998 301.4539,344.7198 300.6339,345.4629 299.7451,346.1221 298.7959,346.691 297.7956,347.1641 296.7537,347.537 295.6802,347.8058 294.5856,347.9682 293.4803,348.0225 292.375,347.9682 291.2804,347.8058 290.207,347.537 289.1651,347.1641 288.1647,346.691 287.2155,346.1221 286.3267,345.4629 285.5068,344.7198 284.7636,343.8998 284.1044,343.011 283.5355,342.0618 283.0624,341.0615 282.6896,340.0195 282.4207,338.9461 282.2583,337.8515 282.204,336.7462 282.2583,335.6409 282.4207,334.5463 282.6896,333.4729 283.0624,332.4309 283.5355,331.4306 284.1044,330.4814 284.7636,329.5926 285.5068,328.7726 286.3267,328.0295 287.2155,327.3703 288.1647,326.8014 289.1651,326.3283 290.207,325.9554 291.2804,325.6866 292.375,325.5242 293.4803,325.4699 294.5856,325.5242 295.6802,325.6866 296.7537,325.9554 297.7956,326.3283 298.7959,326.8014 299.7451,327.3703 300.6339,328.0295 301.4539,328.7726 302.197,329.5926 302.8562,330.4814 303.4251,331.4306 303.8983,332.4309 304.2711,333.4729 304.54,334.5463"/>
    <polygon points="285.768,314.4794 286.0445,314.1065 286.3562,313.7626 286.7001,313.4509 287.073,313.1744 287.4711,312.9357 287.8907,312.7373 288.3277,312.5809 288.778,312.4681 289.2372,312.4 289.7008,312.3772 290.1644,312.4 290.6236,312.4681 291.0738,312.5809 291.5109,312.7373 291.9305,312.9357 292.3286,313.1744 292.7015,313.4509 293.0454,313.7626 293.3571,314.1065 293.6336,314.4794 293.8723,314.8775 294.0707,315.2971 294.2271,315.7342 294.3399,316.1844 294.408,316.6436 294.4308,317.1072 294.408,317.5708 294.3399,318.03 294.2271,318.4802 294.0707,318.9173 293.8723,319.3369 293.6336,319.735 293.3571,320.1079 293.0454,320.4518 292.7015,320.7635 292.3286,321.04 291.9305,321.2787 291.5109,321.4771 291.0738,321.6335 290.6236,321.7463 290.1644,321.8144 289.7008,321.8372 289.2372,321.8144 288.778,321.7463 288.3277,321.6335 287.8907,321.4771 287.4711,321.2787 287.073,321.04 286.7001,320.7635 286.3562,320.4518 286.0445,320.1079 285.768,319.735 285.5293,319.3369 285.3309,318.9173 285.1745,318.4802 285.0617,318.03 284.9936,317.5708 284.9708,317.1072 284.9936,316.6436 285.0617,316.1844 285.1745,315.7342 285.3309,315.2971 285.5293,314.8775"/>
    <polygon points="256.3275,303.4869 256.9086,305.8067 257.2595,308.1723 257.3768,310.5609 257.2595,312.9494 256.9086,315.315 256.3275,317.6348 255.5219,319.8865 254.4994,322.0483 253.2699,324.0995 251.8453,326.0204 250.2393,327.7923 248.4674,329.3983 246.5466,330.8229 244.4953,332.0524 242.3335,333.0749 240.0818,333.8805 237.762,334.4616 235.3965,334.8125 233.0079,334.9298 230.6193,334.8125 228.2537,334.4616 225.9339,333.8805 223.6823,333.0749 221.5204,332.0524 219.4692,330.8229 217.5484,329.3983 215.7764,327.7923 214.1704,326.0204 212.7458,324.0995 211.5164,322.0483 210.4939,319.8865 209.6882,317.6348 209.1071,315.315 208.7562,312.9494 208.6389,310.5609 208.7562,308.1723 209.1071,305.8067 209.6882,303.4869 210.4939,301.2353 211.5164,299.0734 212.7458,297.0222 214.1704,295.1014 215.7764,293.3294 217.5484,291.7234 219.4692,290.2988 221.5204,289.0693 223.6823,288.0469 225.9339,287.2412 228.2537,286.6601 230.6193,286.3092 233.0079,286.1919 235.3965,286.3092 237.762,286.6601 240.0818,287.2412 242.3335,288.0469 244.4953,289.0693 246.5466,290.2988 248.4674,291.7234 250.2393,293.3294 251.8453,295.1014 253.2699,297.0222 254.4994,299.0734 255.5219,301.2353"/>
    <polygon points="282.0252,270.1776 282.0795,271.2829 282.0252,272.3881 281.8628,273.4828 281.5939,274.5562 281.2211,275.5981 280.748,276.5985 280.1791,277.5476 279.5199,278.4365 278.7767,279.2564 277.9568,279.9996 277.0679,280.6588 276.1188,281.2277 275.1184,281.7008 274.0765,282.0736 273.003,282.3425 271.9084,282.5049 270.8031,282.5592 269.6979,282.5049 268.6033,282.3425 267.5298,282.0736 266.4879,281.7008 265.4875,281.2277 264.5384,280.6588 263.6495,279.9996 262.8296,279.2564 262.0864,278.4365 261.4272,277.5476 260.8583,276.5985 260.3852,275.5981 260.0124,274.5562 259.7435,273.4828 259.5811,272.3881 259.5268,271.2829 259.5811,270.1776 259.7435,269.083 260.0124,268.0095 260.3852,266.9676 260.8583,265.9672 261.4272,265.0181 262.0864,264.1292 262.8296,263.3093 263.6495,262.5662 264.5384,261.907 265.4875,261.338 266.4879,260.8649 267.5298,260.4921 268.6033,260.2232 269.6979,260.0609 270.8031,260.0066 271.9084,260.0609 273.003,260.2232 274.0765,260.4921 275.1184,260.8649 276.1188,261.338 277.0679,261.907 277.9568,262.5662 278.7767,263.3093 279.5199,264.1292 280.1791,265.0181 280.748,265.9672 281.2211,266.9676 281.5939,268.0095 281.8628,269.083"/>
    <polygon points="287.4711,268.908 287.073,268.6694 286.7001,268.3928 286.3562,268.0811 286.0445,267.7372 285.768,267.3644 285.5293,266.9662 285.3309,266.5466 285.1745,266.1096 285.0617,265.6593 284.9936,265.2001 284.9708,264.7365 284.9936,264.2729 285.0617,263.8138 285.1745,263.3635 285.3309,262.9264 285.5293,262.5068 285.768,262.1087 286.0445,261.7359 286.3562,261.3919 286.7001,261.0802 287.073,260.8037 287.4711,260.5651 287.8907,260.3666 288.3277,260.2102 288.778,260.0974 289.2372,260.0293 289.7008,260.0066 290.1644,260.0293 290.6236,260.0974 291.0738,260.2102 291.5109,260.3666 291.9305,260.5651 292.3286,260.8037 292.7015,261.0802 293.0454,261.3919 293.3571,261.7359 293.6336,262.1087 293.8723,262.5068 294.0707,262.9264 294.2271,263.3635 294.3399,263.8138 294.408,264.2729 294.4308,264.7365 294.408,265.2001 294.3399,265.6593 294.2271,266.1096 294.0707,266.5466 293.8723,266.9662 293.6336,267.3644 293.3571,267.7372 293.0454,268.0811 292.7015,268.3928 292.3286,268.6694 291.9305,268.908 291.5109,269.1065 291.0738,269.2628 290.6236,269.3756 290.1644,269.4437 289.7008,269.4665 289.2372,269.4437 288.778,269.3756 288.3277,269.2628 287.8907,269.1065"/>
    <polygon points="307.7389,226.3813 307.6708,225.9221 307.648,225.4585 307.6708,224.9949 307.7389,224.5358 307.8517,224.0855 308.008,223.6484 308.2065,223.2288 308.4451,222.8307 308.7216,222.4579 309.0334,222.1139 309.3773,221.8022 309.7501,221.5257 310.1483,221.2871 310.5679,221.0886 311.0049,220.9322 311.4552,220.8194 311.9143,220.7513 312.378,220.7286 312.8416,220.7513 313.3007,220.8194 313.751,220.9322 314.188,221.0886 314.6076,221.2871 315.0058,221.5257 315.3786,221.8022 315.7225,222.1139 316.0343,222.4579 316.3108,222.8307 316.5494,223.2288 316.7479,223.6484 316.9043,224.0855 317.017,224.5358 317.0851,224.9949 317.1079,225.4585 317.0851,225.9221 317.017,226.3813 316.9043,226.8316 316.7479,227.2686 316.5494,227.6882 316.3108,228.0864 316.0343,228.4592 315.7225,228.8031 315.3786,229.1148 315.0058,229.3914 314.6076,229.63 314.188,229.8285 313.751,229.9848 313.3007,230.0976 312.8416,230.1657 312.378,230.1885 311.9143,230.1657 311.4552,230.0976 311.0049,229.9848 310.5679,229.8285 310.1483,229.63 309.7501,229.3914 309.3773,229.1148 309.0334,228.8031 308.7216,228.4592 308.4451,228.0864 308.2065,227.6882 308.008,227.2686 307.8517,226.8316"/>
    <polygon points="286.7001,216.0222 286.3562,215.7105 286.0445,215.3665 285.768,214.9937 285.5293,214.5956 285.3309,214.1759 285.1745,213.7389 285.0617,213.2886 284.9936,212.8295 284.9708,212.3659 284.9936,211.9022 285.0617,211.4431 285.1745,210.9928 285.3309,210.5558 285.5293,210.1362 285.768,209.738 286.0445,209.3652 286.3562,209.0213 286.7001,208.7095 287.073,208.433 287.4711,208.1944 287.8907,207.9959 288.3277,207.8396 288.778,207.7268 289.2372,207.6587 289.7008,207.6359 290.1644,207.6587 290.6236,207.7268 291.0738,207.8396 291.5109,207.9959 291.9305,208.1944 292.3286,208.433 292.7015,208.7095 293.0454,209.0213 293.3571,209.3652 293.6336,209.738 293.8723,210.1362 294.0707,210.5558 294.2271,210.9928 294.3399,211.4431 294.408,211.9022 294.4308,212.3659 294.408,212.8295 294.3399,213.2886 294.2271,213.7389 294.0707,214.1759 293.8723,214.5956 293.6336,214.9937 293.3571,215.3665 293.0454,215.7105 292.7015,216.0222 292.3286,216.2987 291.9305,216.5373 291.5109,216.7358 291.0738,216.8922 290.6236,217.0049 290.1644,217.0731 289.7008,217.0958 289.2372,217.0731 288.778,217.0049 288.3277,216.8922 287.8907,216.7358 287.4711,216.5373 287.073,216.2987"/>
    <polygon points="286.3267,223.2882 287.2155,222.629 288.1647,222.06 289.1651,221.5869 290.207,221.2141 291.2804,220.9452 292.375,220.7829 293.4803,220.7286 294.5856,220.7829 295.6802,220.9452 296.7537,221.2141 297.7956,221.5869 298.7959,222.06 299.7451,222.629 300.6339,223.2882 301.4539,224.0313 302.197,224.8512 302.8562,225.7401 303.4251,226.6892 303.8983,227.6896 304.2711,228.7315 304.54,229.805 304.7023,230.8996 304.7566,232.0049 304.7023,233.1101 304.54,234.2048 304.2711,235.2782 303.8983,236.3201 303.4251,237.3205 302.8562,238.2696 302.197,239.1585 301.4539,239.9784 300.6339,240.7216 299.7451,241.3808 298.7959,241.9497 297.7956,242.4228 296.7537,242.7956 295.6802,243.0645 294.5856,243.2269 293.4803,243.2812 292.375,243.2269 291.2804,243.0645 290.207,242.7956 289.1651,242.4228 288.1647,241.9497 287.2155,241.3808 286.3267,240.7216 285.5068,239.9784 284.7636,239.1585 284.1044,238.2696 283.5355,237.3205 283.0624,236.3201 282.6896,235.2782 282.4207,234.2048 282.2583,233.1101 282.204,232.0049 282.2583,230.8996 282.4207,229.805 282.6896,228.7315 283.0624,227.6896 283.5355,226.6892 284.1044,225.7401 284.7636,224.8512 285.5068,224.0313"/>
    <polygon points="270.8031,233.8212 271.9084,233.8755 273.003,234.0379 274.0765,234.3068 275.1184,234.6796 276.1188,235.1527 277.0679,235.7216 277.9568,236.3808 278.7767,237.124 279.5199,237.9439 280.1791,238.8327 280.748,239.7819 281.2211,240.7823 281.5939,241.8242 281.8628,242.8976 282.0252,243.9923 282.0795,245.0975 282.0252,246.2028 281.8628,247.2974 281.5939,248.3709 281.2211,249.4128 280.748,250.4131 280.1791,251.3623 279.5199,252.2511 278.7767,253.0711 277.9568,253.8142 277.0679,254.4734 276.1188,255.0423 275.1184,255.5155 274.0765,255.8883 273.003,256.1572 271.9084,256.3195 270.8031,256.3738 269.6979,256.3195 268.6033,256.1572 267.5298,255.8883 266.4879,255.5155 265.4875,255.0423 264.5384,254.4734 263.6495,253.8142 262.8296,253.0711 262.0864,252.2511 261.4272,251.3623 260.8583,250.4131 260.3852,249.4128 260.0124,248.3709 259.7435,247.2974 259.5811,246.2028 259.5268,245.0975 259.5811,243.9923 259.7435,242.8976 260.0124,241.8242 260.3852,240.7823 260.8583,239.7819 261.4272,238.8327 262.0864,237.9439 262.8296,237.124 263.6495,236.3808 264.5384,235.7216 265.4875,235.1527 266.4879,234.6796 267.5298,234.3068 268.6033,234.0379 269.6979,233.8755"/>
    <polygon points="251.8453,242.7307 253.2699,244.6515 254.4994,246.7027 255.5219,248.8646 256.3275,251.1163 256.9086,253.436 257.2595,255.8016 257.3768,258.1902 257.2595,260.5788 256.9086,262.9443 256.3275,265.2641 255.5219,267.5158 254.4994,269.6776 253.2699,271.7289 251.8453,273.6497 250.2393,275.4217 248.4674,277.0277 246.5466,278.4523 244.4953,279.6817 242.3335,280.7042 240.0818,281.5098 237.762,282.0909 235.3965,282.4418 233.0079,282.5592 230.6193,282.4418 228.2537,282.0909 225.9339,281.5098 223.6823,280.7042 221.5204,279.6817 219.4692,278.4523 217.5484,277.0277 215.7764,275.4217 214.1704,273.6497 212.7458,271.7289 211.5164,269.6776 210.4939,267.5158 209.6882,265.2641 209.1071,262.9443 208.7562,260.5788 208.6389,258.1902 208.7562,255.8016 209.1071,253.436 209.6882,251.1163 210.4939,248.8646 211.5164,246.7027 212.7458,244.6515 214.1704,242.7307 215.7764,240.9587 217.5484,239.3527 219.4692,237.9281 221.5204,236.6987 223.6823,235.6762 225.9339,234.8705 228.2537,234.2895 230.6193,233.9386 233.0079,233.8212 235.3965,233.9386 237.762,234.2895 240.0818,234.8705 242.3335,235.6762 244.4953,236.6987 246.5466,237.9281 248.4674,239.3527 250.2393,240.9587"/>
    <polygon points="262.3164,225.9221 262.2936,225.4585 262.3164,224.9949 262.3845,224.5358 262.4973,224.0855 262.6537,223.6484 262.8522,223.2288 263.0908,222.8307 263.3673,222.4579 263.679,222.1139 264.023,221.8022 264.3958,221.5257 264.7939,221.2871 265.2135,221.0886 265.6506,220.9322 266.1009,220.8194 266.56,220.7513 267.0236,220.7286 267.4872,220.7513 267.9464,220.8194 268.3967,220.9322 268.8337,221.0886 269.2533,221.2871 269.6515,221.5257 270.0243,221.8022 270.3682,222.1139 270.6799,222.4579 270.9565,222.8307 271.1951,223.2288 271.3935,223.6484 271.5499,224.0855 271.6627,224.5358 271.7308,224.9949 271.7536,225.4585 271.7308,225.9221 271.6627,226.3813 271.5499,226.8316 271.3935,227.2686 271.1951,227.6882 270.9565,228.0864 270.6799,228.4592 270.3682,228.8031 270.0243,229.1148 269.6515,229.3914 269.2533,229.63 268.8337,229.8285 268.3967,229.9848 267.9464,230.0976 267.4872,230.1657 267.0236,230.1885 266.56,230.1657 266.1009,230.0976 265.6506,229.9848 265.2135,229.8285 264.7939,229.63 264.3958,229.3914 264.023,229.1148 263.679,228.8031 263.3673,228.4592 263.0908,228.0864 262.8522,227.6882 262.6537,227.2686 262.4973,226.8316 262.3845,226.3813"/>
    <polygon points="260.3922,218.4486 260.415,218.9122 260.3922,219.3758 260.3241,219.835 260.2113,220.2852 260.055,220.7223 259.8565,221.1419 259.6179,221.54 259.3414,221.9129 259.0296,222.2568 258.6857,222.5685 258.3129,222.845 257.9147,223.0837 257.4951,223.2821 257.0581,223.4385 256.6078,223.5513 256.1487,223.6194 255.685,223.6422 255.2214,223.6194 254.7623,223.5513 254.312,223.4385 253.875,223.2821 253.4553,223.0837 253.0572,222.845 252.6844,222.5685 252.3404,222.2568 252.0287,221.9129 251.7522,221.54 251.5136,221.1419 251.3151,220.7223 251.1587,220.2852 251.046,219.835 250.9778,219.3758 250.9551,218.9122 250.9778,218.4486 251.046,217.9894 251.1587,217.5392 251.3151,217.1021 251.5136,216.6825 251.7522,216.2844 252.0287,215.9115 252.3404,215.5676 252.6844,215.2559 253.0572,214.9794 253.4553,214.7407 253.875,214.5423 254.312,214.3859 254.7623,214.2731 255.2214,214.205 255.685,214.1822 256.1487,214.205 256.6078,214.2731 257.0581,214.3859 257.4951,214.5423 257.9147,214.7407 258.3129,214.9794 258.6857,215.2559 259.0296,215.5676 259.3414,215.9115 259.6179,216.2844 259.8565,216.6825 260.055,217.1021 260.2113,217.5392 260.3241,217.9894"/>
    <polygon points="241.0019,209.0213 241.3458,208.7095 241.7186,208.433 242.1168,208.1944 242.5364,207.9959 242.9734,207.8396 243.4237,207.7268 243.8828,207.6587 244.3465,207.6359 244.8101,207.6587 245.2692,207.7268 245.7195,207.8396 246.1565,207.9959 246.5762,208.1944 246.9743,208.433 247.3471,208.7095 247.6911,209.0213 248.0028,209.3652 248.2793,209.738 248.5179,210.1362 248.7164,210.5558 248.8728,210.9928 248.9855,211.4431 249.0537,211.9022 249.0764,212.3659 249.0537,212.8295 248.9855,213.2886 248.8728,213.7389 248.7164,214.1759 248.5179,214.5956 248.2793,214.9937 248.0028,215.3665 247.6911,215.7105 247.3471,216.0222 246.9743,216.2987 246.5762,216.5373 246.1565,216.7358 245.7195,216.8922 245.2692,217.0049 244.8101,217.0731 244.3465,217.0958 243.8828,217.0731 243.4237,217.0049 242.9734,216.8922 242.5364,216.7358 242.1168,216.5373 241.7186,216.2987 241.3458,216.0222 241.0019,215.7105 240.6901,215.3665 240.4136,214.9937 240.175,214.5956 239.9765,214.1759 239.8202,213.7389 239.7074,213.2886 239.6393,212.8295 239.6165,212.3659 239.6393,211.9022 239.7074,211.4431 239.8202,210.9928 239.9765,210.5558 240.175,210.1362 240.4136,209.738 240.6901,209.3652"/>
    <polygon points="223.2489,207.8526 222.1755,208.1214 221.1336,208.4942 220.1332,208.9674 219.184,209.5363 218.2952,210.1955 217.4753,210.9386 216.7321,211.7586 216.0729,212.6474 215.504,213.5966 215.0309,214.5969 214.6581,215.6389 214.3892,216.7123 214.2268,217.8069 214.1725,218.9122 214.2268,220.0175 214.3892,221.1121 214.6581,222.1855 215.0309,223.2274 215.504,224.2278 216.0729,225.177 216.7321,226.0658 217.4753,226.8857 218.2952,227.6289 219.184,228.2881 220.1332,228.857 221.1336,229.3301 222.1755,229.7029 223.2489,229.9718 224.3435,230.1342 225.4488,230.1885 226.5541,230.1342 227.6487,229.9718 228.7222,229.7029 229.7641,229.3301 230.7644,228.857 231.7136,228.2881 232.6024,227.6289 233.4224,226.8857 234.1655,226.0658 234.8247,225.177 235.3936,224.2278 235.8668,223.2274 236.2396,222.1855 236.5085,221.1121 236.6708,220.0175 236.7251,218.9122 236.6708,217.8069 236.5085,216.7123 236.2396,215.6389 235.8668,214.5969 235.3936,213.5966 234.8247,212.6474 234.1655,211.7586 233.4224,210.9386 232.6024,210.1955 231.7136,209.5363 230.7644,208.9674 229.7641,208.4942 228.7222,208.1214 227.6487,207.8526 226.5541,207.6902 225.4488,207.6359 224.3435,207.6902"/>
    <polygon points="223.4794,194.9033 223.0423,194.7469 222.5921,194.6341 222.1329,194.566 221.6693,194.5432 221.2057,194.566 220.7465,194.6341 220.2963,194.7469 219.8592,194.9033 219.4396,195.1017 219.0415,195.3404 218.6686,195.6169 218.3247,195.9286 218.013,196.2725 217.7365,196.6454 217.4978,197.0435 217.2994,197.4631 217.143,197.9002 217.0302,198.3504 216.9621,198.8096 216.9393,199.2732 216.9621,199.7368 217.0302,200.196 217.143,200.6462 217.2994,201.0833 217.4978,201.5029 217.7365,201.901 218.013,202.2739 218.3247,202.6178 218.6686,202.9295 219.0415,203.206 219.4396,203.4447 219.8592,203.6431 220.2963,203.7995 220.7465,203.9123 221.2057,203.9804 221.6693,204.0032 222.1329,203.9804 222.5921,203.9123 223.0423,203.7995 223.4794,203.6431 223.899,203.4447 224.2971,203.206 224.67,202.9295 225.0139,202.6178 225.3256,202.2739 225.6021,201.901 225.8408,201.5029 226.0392,201.0833 226.1956,200.6462 226.3084,200.196 226.3765,199.7368 226.3993,199.2732 226.3765,198.8096 226.3084,198.3504 226.1956,197.9002 226.0392,197.4631 225.8408,197.0435 225.6021,196.6454 225.3256,196.2725 225.0139,195.9286 224.67,195.6169 224.2971,195.3404 223.899,195.1017"/>
    <polygon points="207.33,202.1632 207.7029,201.8867 208.101,201.6481 208.5206,201.4496 208.9577,201.2932 209.4079,201.1804 209.8671,201.1123 210.3307,201.0896 210.7943,201.1123 211.2535,201.1804 211.7037,201.2932 212.1408,201.4496 212.5604,201.6481 212.9585,201.8867 213.3314,202.1632 213.6753,202.4749 213.987,202.8189 214.2635,203.1917 214.5022,203.5898 214.7006,204.0094 214.857,204.4465 214.9698,204.8968 215.0379,205.3559 215.0607,205.8195 215.0379,206.2831 214.9698,206.7423 214.857,207.1926 214.7006,207.6296 214.5022,208.0492 214.2635,208.4474 213.987,208.8202 213.6753,209.1641 213.3314,209.4758 212.9585,209.7524 212.5604,209.991 212.1408,210.1894 211.7037,210.3458 211.2535,210.4586 210.7943,210.5267 210.3307,210.5495 209.8671,210.5267 209.4079,210.4586 208.9577,210.3458 208.5206,210.1894 208.101,209.991 207.7029,209.7524 207.33,209.4758 206.9861,209.1641 206.6744,208.8202 206.3979,208.4474 206.1592,208.0492 205.9608,207.6296 205.8044,207.1926 205.6916,206.7423 205.6235,206.2831 205.6007,205.8195 205.6235,205.3559 205.6916,204.8968 205.8044,204.4465 205.9608,204.0094 206.1592,203.5898 206.3979,203.1917 206.6744,202.8189 206.9861,202.4749"/>
    <polygon points="200.8022,216.7358 201.2218,216.5373 201.62,216.2987 201.9928,216.0222 202.3367,215.7105 202.6484,215.3665 202.925,214.9937 203.1636,214.5956 203.3621,214.1759 203.5184,213.7389 203.6312,213.2886 203.6993,212.8295 203.7221,212.3659 203.6993,211.9022 203.6312,211.4431 203.5184,210.9928 203.3621,210.5558 203.1636,210.1362 202.925,209.738 202.6484,209.3652 202.3367,209.0213 201.9928,208.7095 201.62,208.433 201.2218,208.1944 200.8022,207.9959 200.3652,207.8396 199.9149,207.7268 199.4557,207.6587 198.9921,207.6359 198.5285,207.6587 198.0694,207.7268 197.6191,207.8396 197.182,207.9959 196.7624,208.1944 196.3643,208.433 195.9915,208.7095 195.6475,209.0213 195.3358,209.3652 195.0593,209.738 194.8207,210.1362 194.6222,210.5558 194.4658,210.9928 194.353,211.4431 194.2849,211.9022 194.2622,212.3659 194.2849,212.8295 194.353,213.2886 194.4658,213.7389 194.6222,214.1759 194.8207,214.5956 195.0593,214.9937 195.3358,215.3665 195.6475,215.7105 195.9915,216.0222 196.3643,216.2987 196.7624,216.5373 197.182,216.7358 197.6191,216.8922 198.0694,217.0049 198.5285,217.0731 198.9921,217.0958 199.4557,217.0731 199.9149,217.0049 200.3652,216.8922"/>
    <polygon points="186.7308,223.5513 187.1899,223.6194 187.6535,223.6422 188.1172,223.6194 188.5763,223.5513 189.0266,223.4385 189.4636,223.2821 189.8832,223.0837 190.2814,222.845 190.6542,222.5685 190.9981,222.2568 191.3099,221.9129 191.5864,221.54 191.825,221.1419 192.0235,220.7223 192.1798,220.2852 192.2926,219.835 192.3607,219.3758 192.3835,218.9122 192.3607,218.4486 192.2926,217.9894 192.1798,217.5392 192.0235,217.1021 191.825,216.6825 191.5864,216.2844 191.3099,215.9115 190.9981,215.5676 190.6542,215.2559 190.2814,214.9794 189.8832,214.7407 189.4636,214.5423 189.0266,214.3859 188.5763,214.2731 188.1172,214.205 187.6535,214.1822 187.1899,214.205 186.7308,214.2731 186.2805,214.3859 185.8435,214.5423 185.4238,214.7407 185.0257,214.9794 184.6529,215.2559 184.3089,215.5676 183.9972,215.9115 183.7207,216.2844 183.4821,216.6825 183.2836,217.1021 183.1272,217.5392 183.0145,217.9894 182.9463,218.4486 182.9236,218.9122 182.9463,219.3758 183.0145,219.835 183.1272,220.2852 183.2836,220.7223 183.4821,221.1419 183.7207,221.54 183.9972,221.9129 184.3089,222.2568 184.6529,222.5685 185.0257,222.845 185.4238,223.0837 185.8435,223.2821 186.2805,223.4385"/>
    <polygon points="179.9713,228.4592 180.2478,228.0864 180.4864,227.6882 180.6849,227.2686 180.8413,226.8316 180.954,226.3813 181.0222,225.9221 181.0449,225.4585 181.0222,224.9949 180.954,224.5358 180.8413,224.0855 180.6849,223.6484 180.4864,223.2288 180.2478,222.8307 179.9713,222.4579 179.6596,222.1139 179.3156,221.8022 178.9428,221.5257 178.5447,221.2871 178.125,221.0886 177.688,220.9322 177.2377,220.8194 176.7786,220.7513 176.315,220.7286 175.8513,220.7513 175.3922,220.8194 174.9419,220.9322 174.5049,221.0886 174.0853,221.2871 173.6871,221.5257 173.3143,221.8022 172.9704,222.1139 172.6586,222.4579 172.3821,222.8307 172.1435,223.2288 171.945,223.6484 171.7887,224.0855 171.6759,224.5358 171.6078,224.9949 171.585,225.4585 171.6078,225.9221 171.6759,226.3813 171.7887,226.8316 171.945,227.2686 172.1435,227.6882 172.3821,228.0864 172.6586,228.4592 172.9704,228.8031 173.3143,229.1148 173.6871,229.3914 174.0853,229.63 174.5049,229.8285 174.9419,229.9848 175.3922,230.0976 175.8513,230.1657 176.315,230.1885 176.7786,230.1657 177.2377,230.0976 177.688,229.9848 178.125,229.8285 178.5447,229.63 178.9428,229.3914 179.3156,229.1148 179.6596,228.8031"/>
    <polygon points="214.5022,229.7752 214.7006,230.1948 214.857,230.6318 214.9698,231.0821 215.0379,231.5412 215.0607,232.0049 215.0379,232.4685 214.9698,232.9276 214.857,233.3779 214.7006,233.8149 214.5022,234.2346 214.2635,234.6327 213.987,235.0055 213.6753,235.3495 213.3314,235.6612 212.9585,235.9377 212.5604,236.1763 212.1408,236.3748 211.7037,236.5312 211.2535,236.6439 210.7943,236.7121 210.3307,236.7348 209.8671,236.7121 209.4079,236.6439 208.9577,236.5312 208.5206,236.3748 208.101,236.1763 207.7029,235.9377 207.33,235.6612 206.9861,235.3495 206.6744,235.0055 206.3979,234.6327 206.1592,234.2346 205.9608,233.8149 205.8044,233.3779 205.6916,232.9276 205.6235,232.4685 205.6007,232.0049 205.6235,231.5412 205.6916,231.0821 205.8044,230.6318 205.9608,230.1948 206.1592,229.7752 206.3979,229.377 206.6744,229.0042 206.9861,228.6603 207.33,228.3485 207.7029,228.072 208.101,227.8334 208.5206,227.6349 208.9577,227.4786 209.4079,227.3658 209.8671,227.2977 210.3307,227.2749 210.7943,227.2977 211.2535,227.3658 211.7037,227.4786 212.1408,227.6349 212.5604,227.8334 212.9585,228.072 213.3314,228.3485 213.6753,228.6603 213.987,229.0042 214.2635,229.377"/>
    <polygon points="203.5184,237.1782 203.6312,237.6284 203.6993,238.0876 203.7221,238.5512 203.6993,239.0148 203.6312,239.474 203.5184,239.9242 203.3621,240.3613 203.1636,240.7809 202.925,241.179 202.6484,241.5519 202.3367,241.8958 201.9928,242.2075 201.62,242.484 201.2218,242.7227 200.8022,242.9211 200.3652,243.0775 199.9149,243.1903 199.4557,243.2584 198.9921,243.2812 198.5285,243.2584 198.0694,243.1903 197.6191,243.0775 197.182,242.9211 196.7624,242.7227 196.3643,242.484 195.9915,242.2075 195.6475,241.8958 195.3358,241.5519 195.0593,241.179 194.8207,240.7809 194.6222,240.3613 194.4658,239.9242 194.353,239.474 194.2849,239.0148 194.2622,238.5512 194.2849,238.0876 194.353,237.6284 194.4658,237.1782 194.6222,236.7411 194.8207,236.3215 195.0593,235.9234 195.3358,235.5505 195.6475,235.2066 195.9915,234.8949 196.3643,234.6184 196.7624,234.3797 197.182,234.1813 197.6191,234.0249 198.0694,233.9121 198.5285,233.844 198.9921,233.8212 199.4557,233.844 199.9149,233.9121 200.3652,234.0249 200.8022,234.1813 201.2218,234.3797 201.62,234.6184 201.9928,234.8949 202.3367,235.2066 202.6484,235.5505 202.925,235.9234 203.1636,236.3215 203.3621,236.7411"/>
    <polygon points="185.4101,255.0423 184.4097,255.5155 183.3678,255.8883 182.2944,256.1572 181.1998,256.3195 180.0945,256.3738 178.9892,256.3195 177.8946,256.1572 176.8211,255.8883 175.7792,255.5155 174.7789,255.0423 173.8297,254.4734 172.9409,253.8142 172.1209,253.0711 171.3778,252.2511 170.7186,251.3623 170.1497,250.4131 169.6765,249.4128 169.3037,248.3709 169.0349,247.2974 168.8725,246.2028 168.8182,245.0975 168.8725,243.9923 169.0349,242.8976 169.3037,241.8242 169.6765,240.7823 170.1497,239.7819 170.7186,238.8327 171.3778,237.9439 172.1209,237.124 172.9409,236.3808 173.8297,235.7216 174.7789,235.1527 175.7792,234.6796 176.8211,234.3068 177.8946,234.0379 178.9892,233.8755 180.0945,233.8212 181.1998,233.8755 182.2944,234.0379 183.3678,234.3068 184.4097,234.6796 185.4101,235.1527 186.3593,235.7216 187.2481,236.3808 188.068,237.124 188.8112,237.9439 189.4704,238.8327 190.0393,239.7819 190.5124,240.7823 190.8852,241.8242 191.1541,242.8976 191.3165,243.9923 191.3708,245.0975 191.3165,246.2028 191.1541,247.2974 190.8852,248.3709 190.5124,249.4128 190.0393,250.4131 189.4704,251.3623 188.8112,252.2511 188.068,253.0711 187.2481,253.8142 186.3593,254.4734"/>
    <polygon points="176.1661,262.884 174.1149,264.1135 172.194,265.5381 170.4221,267.1441 168.8161,268.916 167.3915,270.8369 166.162,272.8881 165.1395,275.0499 164.3339,277.3016 163.7528,279.6214 163.4019,281.987 163.2846,284.3755 163.4019,286.7641 163.7528,289.1297 164.3339,291.4495 165.1395,293.7011 166.162,295.863 167.3915,297.9142 168.8161,299.835 170.4221,301.607 172.194,303.213 174.1149,304.6376 176.1661,305.867 178.3279,306.8895 180.5796,307.6952 182.8994,308.2763 185.265,308.6272 187.6535,308.7445 190.0421,308.6272 192.4077,308.2763 194.7275,307.6952 196.9791,306.8895 199.141,305.867 201.1922,304.6376 203.1131,303.213 204.885,301.607 206.491,299.835 207.9156,297.9142 209.1451,295.863 210.1675,293.7011 210.9732,291.4495 211.5543,289.1297 211.9052,286.7641 212.0225,284.3755 211.9052,281.987 211.5543,279.6214 210.9732,277.3016 210.1675,275.0499 209.1451,272.8881 207.9156,270.8369 206.491,268.916 204.885,267.1441 203.1131,265.5381 201.1922,264.1135 199.141,262.884 196.9791,261.8615 194.7275,261.0559 192.4077,260.4748 190.0421,260.1239 187.6535,260.0066 185.265,260.1239 182.8994,260.4748 180.5796,261.0559 178.3279,261.8615"/>
    <polygon points="168.2081,254.9169 167.8353,253.8749 167.3621,252.8746 166.7932,251.9254 166.134,251.0366 165.3909,250.2166 164.5709,249.4735 163.6821,248.8143 162.7329,248.2454 161.7326,247.7722 160.6907,247.3994 159.6172,247.1306 158.5226,246.9682 157.4173,246.9139 156.3121,246.9682 155.2174,247.1306 154.144,247.3994 153.1021,247.7722 152.1017,248.2454 151.1525,248.8143 150.2637,249.4735 149.4438,250.2166 148.7006,251.0366 148.0414,251.9254 147.4725,252.8746 146.9994,253.8749 146.6266,254.9169 146.3577,255.9903 146.1953,257.0849 146.141,258.1902 146.1953,259.2955 146.3577,260.3901 146.6266,261.4635 146.9994,262.5054 147.4725,263.5058 148.0414,264.455 148.7006,265.3438 149.4438,266.1637 150.2637,266.9069 151.1525,267.5661 152.1017,268.135 153.1021,268.6081 154.144,268.9809 155.2174,269.2498 156.3121,269.4122 157.4173,269.4665 158.5226,269.4122 159.6172,269.2498 160.6907,268.9809 161.7326,268.6081 162.7329,268.135 163.6821,267.5661 164.5709,266.9069 165.3909,266.1637 166.134,265.3438 166.7932,264.455 167.3621,263.5058 167.8353,262.5054 168.2081,261.4635 168.477,260.3901 168.6393,259.2955 168.6936,258.1902 168.6393,257.0849 168.477,255.9903"/>
    <polygon points="141.8938,236.3808 141.0049,235.7216 140.0558,235.1527 139.0554,234.6796 138.0135,234.3068 136.9401,234.0379 135.8454,233.8755 134.7402,233.8212 133.6349,233.8755 132.5403,234.0379 131.4668,234.3068 130.4249,234.6796 129.4245,235.1527 128.4754,235.7216 127.5865,236.3808 126.7666,237.124 126.0235,237.9439 125.3643,238.8327 124.7953,239.7819 124.3222,240.7823 123.9494,241.8242 123.6805,242.8976 123.5181,243.9923 123.4639,245.0975 123.5181,246.2028 123.6805,247.2974 123.9494,248.3709 124.3222,249.4128 124.7953,250.4131 125.3643,251.3623 126.0235,252.2511 126.7666,253.0711 127.5865,253.8142 128.4754,254.4734 129.4245,255.0423 130.4249,255.5155 131.4668,255.8883 132.5403,256.1572 133.6349,256.3195 134.7402,256.3738 135.8454,256.3195 136.9401,256.1572 138.0135,255.8883 139.0554,255.5155 140.0558,255.0423 141.0049,254.4734 141.8938,253.8142 142.7137,253.0711 143.4569,252.2511 144.1161,251.3623 144.685,250.4131 145.1581,249.4128 145.5309,248.3709 145.7998,247.2974 145.9622,246.2028 146.0165,245.0975 145.9622,243.9923 145.7998,242.8976 145.5309,241.8242 145.1581,240.7823 144.685,239.7819 144.1161,238.8327 143.4569,237.9439 142.7137,237.124"/>
    <polygon points="121.4321,227.6349 120.9951,227.4786 120.5448,227.3658 120.0857,227.2977 119.622,227.2749 119.1584,227.2977 118.6993,227.3658 118.249,227.4786 117.812,227.6349 117.3924,227.8334 116.9942,228.072 116.6214,228.3485 116.2775,228.6603 115.9657,229.0042 115.6892,229.377 115.4506,229.7752 115.2521,230.1948 115.0957,230.6318 114.983,231.0821 114.9149,231.5412 114.8921,232.0049 114.9149,232.4685 114.983,232.9276 115.0957,233.3779 115.2521,233.8149 115.4506,234.2346 115.6892,234.6327 115.9657,235.0055 116.2775,235.3495 116.6214,235.6612 116.9942,235.9377 117.3924,236.1763 117.812,236.3748 118.249,236.5312 118.6993,236.6439 119.1584,236.7121 119.622,236.7348 120.0857,236.7121 120.5448,236.6439 120.9951,236.5312 121.4321,236.3748 121.8517,236.1763 122.2499,235.9377 122.6227,235.6612 122.9666,235.3495 123.2784,235.0055 123.5549,234.6327 123.7935,234.2346 123.992,233.8149 124.1483,233.3779 124.2611,232.9276 124.3292,232.4685 124.352,232.0049 124.3292,231.5412 124.2611,231.0821 124.1483,230.6318 123.992,230.1948 123.7935,229.7752 123.5549,229.377 123.2784,229.0042 122.9666,228.6603 122.6227,228.3485 122.2499,228.072 121.8517,227.8334"/>
  </g>
</svg>
