<?xml version="1.0" encoding="utf-8" ?>
<svg xmlns="http://www.w3.org/2000/svg" xmlns:cc="http://creativecommons.org/ns" xmlns:dc="http://purl.org/dc/elements/1.1/" xmlns:ev="http://www.w3.org/2001/xml-events" xmlns:inkscape="http://www.inkscape.org/namespaces/inkscape" xmlns:rdf="http://www.w3.org/1999/02/22-rdf-syntax-ns" xmlns:sodipodi="http://sodipodi.sourceforge.net/DTD/sodipodi-0.dtd" xmlns:xlink="http://www.w3.org/1999/xlink" baseProfile="tiny" height="15.875cm" version="1.2" viewBox="0 0 432.0 600.0" width="11.43cm">
  <metadata>
    <rdf:RDF>
      <cc:Work>
        <dc:format>image/svg+xml</dc:format>
        <dc:source>vsk save -s 271 -c hex-grid/config/bubble-coasters-2.json /Users/tobin/src/fabian/plotting/fabian-plotting/hex-grid/sketch_hex_grid.py</dc:source>
        <dc:date>2023-11-11T11:30:23.972630</dc:date>
      </cc:Work>
    </rdf:RDF>
  </metadata>
  <defs/>
  <g fill="none" id="layer1" inkscape:groupmode="layer" inkscape:label="1" stroke="#000000" stroke-width="0.7559" style="display:inline">
    <polygon points="196.7487,349.7136 197.6979,350.2825 198.5867,350.9417 199.4066,351.6848 200.1498,352.5048 200.809,353.3936 201.3779,354.3428 201.851,355.3431 202.2238,356.385 202.4927,357.4585 202.6551,358.5531 202.7094,359.6584 202.6551,360.7636 202.4927,361.8583 202.2238,362.9317 201.851,363.9736 201.3779,364.974 200.809,365.9231 200.1498,366.812 199.4066,367.6319 198.5867,368.3751 197.6979,369.0343 196.7487,369.6032 195.7483,370.0763 194.7064,370.4491 193.633,370.718 192.5383,370.8804 191.4331,370.9347 190.3278,370.8804 189.2332,370.718 188.1597,370.4491 187.1178,370.0763 186.1175,369.6032 185.1683,369.0343 184.2795,368.3751 183.4595,367.6319 182.7164,366.812 182.0572,365.9231 181.4883,364.974 181.0151,363.9736 180.6423,362.9317 180.3734,361.8583 180.2111,360.7636 180.1568,359.6584 180.2111,358.5531 180.3734,357.4585 180.6423,356.385 181.0151,355.3431 181.4883,354.3428 182.0572,353.3936 182.7164,352.5048 183.4595,351.6848 184.2795,350.9417 185.1683,350.2825 186.1175,349.7136 187.1178,349.2404 188.1597,348.8676 189.2332,348.5987 190.3278,348.4364 191.4331,348.3821 192.5383,348.4364 193.633,348.5987 194.7064,348.8676 195.7483,349.2404"/>
    <polygon points="210.8369,335.7749 209.795,336.1478 208.7946,336.6209 207.8455,337.1898 206.9566,337.849 206.1367,338.5921 205.3935,339.4121 204.7343,340.3009 204.1654,341.2501 203.6923,342.2504 203.3195,343.2924 203.0506,344.3658 202.8882,345.4604 202.8339,346.5657 202.8882,347.671 203.0506,348.7656 203.3195,349.839 203.6923,350.881 204.1654,351.8813 204.7343,352.8305 205.3935,353.7193 206.1367,354.5393 206.9566,355.2824 207.8455,355.9416 208.7946,356.5105 209.795,356.9836 210.8369,357.3565 211.9103,357.6253 213.005,357.7877 214.1102,357.842 215.2155,357.7877 216.3101,357.6253 217.3836,357.3565 218.4255,356.9836 219.4259,356.5105 220.375,355.9416 221.2638,355.2824 222.0838,354.5393 222.8269,353.7193 223.4861,352.8305 224.0551,351.8813 224.5282,350.881 224.901,349.839 225.1699,348.7656 225.3322,347.671 225.3865,346.5657 225.3322,345.4604 225.1699,344.3658 224.901,343.2924 224.5282,342.2504 224.0551,341.2501 223.4861,340.3009 222.8269,339.4121 222.0838,338.5921 221.2638,337.849 220.375,337.1898 219.4259,336.6209 218.4255,336.1478 217.3836,335.7749 216.3101,335.5061 215.2155,335.3437 214.1102,335.2894 213.005,335.3437 211.9103,335.5061"/>
    <polygon points="205.3935,327.534 206.1367,328.3539 206.9566,329.0971 207.8455,329.7563 208.7946,330.3252 209.795,330.7983 210.8369,331.1711 211.9103,331.44 213.005,331.6024 214.1102,331.6567 215.2155,331.6024 216.3101,331.44 217.3836,331.1711 218.4255,330.7983 219.4259,330.3252 220.375,329.7563 221.2638,329.0971 222.0838,328.3539 222.8269,327.534 223.4861,326.6451 224.0551,325.696 224.5282,324.6956 224.901,323.6537 225.1699,322.5803 225.3322,321.4856 225.3865,320.3804 225.3322,319.2751 225.1699,318.1805 224.901,317.107 224.5282,316.0651 224.0551,315.0648 223.4861,314.1156 222.8269,313.2268 222.0838,312.4068 221.2638,311.6637 220.375,311.0045 219.4259,310.4356 218.4255,309.9624 217.3836,309.5896 216.3101,309.3207 215.2155,309.1584 214.1102,309.1041 213.005,309.1584 211.9103,309.3207 210.8369,309.5896 209.795,309.9624 208.7946,310.4356 207.8455,311.0045 206.9566,311.6637 206.1367,312.4068 205.3935,313.2268 204.7343,314.1156 204.1654,315.0648 203.6923,316.0651 203.3195,317.107 203.0506,318.1805 202.8882,319.2751 202.8339,320.3804 202.8882,321.4856 203.0506,322.5803 203.3195,323.6537 203.6923,324.6956 204.1654,325.696 204.7343,326.6451"/>
    <polygon points="169.241,283.968 166.9894,284.7737 164.8275,285.7962 162.7763,287.0256 160.8554,288.4502 159.0835,290.0562 157.4775,291.8282 156.0529,293.749 154.8234,295.8002 153.801,297.9621 152.9953,300.2138 152.4142,302.5335 152.0633,304.8991 151.946,307.2877 152.0633,309.6763 152.4142,312.0418 152.9953,314.3616 153.801,316.6133 154.8234,318.7752 156.0529,320.8264 157.4775,322.7472 159.0835,324.5192 160.8554,326.1252 162.7763,327.5498 164.8275,328.7792 166.9894,329.8017 169.241,330.6074 171.5608,331.1884 173.9264,331.5393 176.315,331.6567 178.7035,331.5393 181.0691,331.1884 183.3889,330.6074 185.6406,329.8017 187.8024,328.7792 189.8536,327.5498 191.7745,326.1252 193.5464,324.5192 195.1524,322.7472 196.577,320.8264 197.8065,318.7752 198.829,316.6133 199.6346,314.3616 200.2157,312.0418 200.5666,309.6763 200.6839,307.2877 200.5666,304.8991 200.2157,302.5335 199.6346,300.2138 198.829,297.9621 197.8065,295.8002 196.577,293.749 195.1524,291.8282 193.5464,290.0562 191.7745,288.4502 189.8536,287.0256 187.8024,285.7962 185.6406,284.7737 183.3889,283.968 181.0691,283.387 178.7035,283.0361 176.315,282.9187 173.9264,283.0361 171.5608,283.387"/>
    <polygon points="179.9779,266.9044 179.8155,265.8098 179.5467,264.7364 179.1739,263.6944 178.7007,262.6941 178.1318,261.7449 177.4726,260.8561 176.7295,260.0361 175.9095,259.293 175.0207,258.6338 174.0715,258.0649 173.0712,257.5917 172.0292,257.2189 170.9558,256.9501 169.8612,256.7877 168.7559,256.7334 167.6506,256.7877 166.556,256.9501 165.4826,257.2189 164.4406,257.5917 163.4403,258.0649 162.4911,258.6338 161.6023,259.293 160.7824,260.0361 160.0392,260.8561 159.38,261.7449 158.8111,262.6941 158.338,263.6944 157.9652,264.7364 157.6963,265.8098 157.5339,266.9044 157.4796,268.0097 157.5339,269.115 157.6963,270.2096 157.9652,271.283 158.338,272.325 158.8111,273.3253 159.38,274.2745 160.0392,275.1633 160.7824,275.9832 161.6023,276.7264 162.4911,277.3856 163.4403,277.9545 164.4406,278.4276 165.4826,278.8004 166.556,279.0693 167.6506,279.2317 168.7559,279.286 169.8612,279.2317 170.9558,279.0693 172.0292,278.8004 173.0712,278.4276 174.0715,277.9545 175.0207,277.3856 175.9095,276.7264 176.7295,275.9832 177.4726,275.1633 178.1318,274.2745 178.7007,273.3253 179.1739,272.325 179.5467,271.283 179.8155,270.2096 179.9779,269.115 180.0322,268.0097"/>
    <polygon points="168.6327,245.37 168.321,245.0261 167.977,244.7144 167.6042,244.4379 167.2061,244.1992 166.7865,244.0008 166.3494,243.8444 165.8991,243.7316 165.44,243.6635 164.9764,243.6407 164.5128,243.6635 164.0536,243.7316 163.6033,243.8444 163.1663,244.0008 162.7467,244.1992 162.3485,244.4379 161.9757,244.7144 161.6318,245.0261 161.3201,245.37 161.0435,245.7429 160.8049,246.141 160.6065,246.5606 160.4501,246.9977 160.3373,247.4479 160.2692,247.9071 160.2464,248.3707 160.2692,248.8343 160.3373,249.2935 160.4501,249.7437 160.6065,250.1808 160.8049,250.6004 161.0435,250.9985 161.3201,251.3714 161.6318,251.7153 161.9757,252.027 162.3485,252.3035 162.7467,252.5422 163.1663,252.7406 163.6033,252.897 164.0536,253.0098 164.5128,253.0779 164.9764,253.1007 165.44,253.0779 165.8991,253.0098 166.3494,252.897 166.7865,252.7406 167.2061,252.5422 167.6042,252.3035 167.977,252.027 168.321,251.7153 168.6327,251.3714 168.9092,250.9985 169.1478,250.6004 169.3463,250.1808 169.5027,249.7437 169.6155,249.2935 169.6836,248.8343 169.7064,248.3707 169.6836,247.9071 169.6155,247.4479 169.5027,246.9977 169.3463,246.5606 169.1478,246.141 168.9092,245.7429"/>
    <polygon points="150.2932,245.169 150.6371,245.4807 151.01,245.7572 151.4081,245.9958 151.8277,246.1943 152.2648,246.3507 152.715,246.4634 153.1742,246.5316 153.6378,246.5543 154.1014,246.5316 154.5606,246.4634 155.0108,246.3507 155.4479,246.1943 155.8675,245.9958 156.2656,245.7572 156.6385,245.4807 156.9824,245.169 157.2941,244.825 157.5706,244.4522 157.8093,244.0541 158.0077,243.6344 158.1641,243.1974 158.2769,242.7471 158.345,242.288 158.3678,241.8244 158.345,241.3607 158.2769,240.9016 158.1641,240.4513 158.0077,240.0143 157.8093,239.5947 157.5706,239.1965 157.2941,238.8237 156.9824,238.4798 156.6385,238.168 156.2656,237.8915 155.8675,237.6529 155.4479,237.4544 155.0108,237.2981 154.5606,237.1853 154.1014,237.1172 153.6378,237.0944 153.1742,237.1172 152.715,237.1853 152.2648,237.2981 151.8277,237.4544 151.4081,237.6529 151.01,237.8915 150.6371,238.168 150.2932,238.4798 149.9815,238.8237 149.705,239.1965 149.4663,239.5947 149.2679,240.0143 149.1115,240.4513 148.9987,240.9016 148.9306,241.3607 148.9078,241.8244 148.9306,242.288 148.9987,242.7471 149.1115,243.1974 149.2679,243.6344 149.4663,244.0541 149.705,244.4522 149.9815,244.825"/>
    <polygon points="137.6601,260.5406 137.592,260.9997 137.5692,261.4634 137.592,261.927 137.6601,262.3861 137.7729,262.8364 137.9293,263.2734 138.1277,263.6931 138.3664,264.0912 138.6429,264.464 138.9546,264.808 139.2985,265.1197 139.6714,265.3962 140.0695,265.6348 140.4891,265.8333 140.9262,265.9897 141.3764,266.1024 141.8356,266.1706 142.2992,266.1933 142.7628,266.1706 143.222,266.1024 143.6723,265.9897 144.1093,265.8333 144.5289,265.6348 144.927,265.3962 145.2999,265.1197 145.6438,264.808 145.9555,264.464 146.232,264.0912 146.4707,263.6931 146.6691,263.2734 146.8255,262.8364 146.9383,262.3861 147.0064,261.927 147.0292,261.4634 147.0064,260.9997 146.9383,260.5406 146.8255,260.0903 146.6691,259.6533 146.4707,259.2337 146.232,258.8355 145.9555,258.4627 145.6438,258.1188 145.2999,257.807 144.927,257.5305 144.5289,257.2919 144.1093,257.0934 143.6723,256.9371 143.222,256.8243 142.7628,256.7562 142.2992,256.7334 141.8356,256.7562 141.3764,256.8243 140.9262,256.9371 140.4891,257.0934 140.0695,257.2919 139.6714,257.5305 139.2985,257.807 138.9546,258.1188 138.6429,258.4627 138.3664,258.8355 138.1277,259.2337 137.9293,259.6533 137.7729,260.0903"/>
    <polygon points="135.6678,268.4733 135.6906,268.0097 135.6678,267.5461 135.5997,267.0869 135.4869,266.6367 135.3306,266.1996 135.1321,265.78 134.8935,265.3819 134.6169,265.009 134.3052,264.6651 133.9613,264.3534 133.5885,264.0769 133.1903,263.8382 132.7707,263.6398 132.3337,263.4834 131.8834,263.3706 131.4242,263.3025 130.9606,263.2797 130.497,263.3025 130.0379,263.3706 129.5876,263.4834 129.1505,263.6398 128.7309,263.8382 128.3328,264.0769 127.96,264.3534 127.616,264.6651 127.3043,265.009 127.0278,265.3819 126.7892,265.78 126.5907,266.1996 126.4343,266.6367 126.3215,267.0869 126.2534,267.5461 126.2307,268.0097 126.2534,268.4733 126.3215,268.9325 126.4343,269.3827 126.5907,269.8198 126.7892,270.2394 127.0278,270.6375 127.3043,271.0104 127.616,271.3543 127.96,271.666 128.3328,271.9425 128.7309,272.1812 129.1505,272.3796 129.5876,272.536 130.0379,272.6488 130.497,272.7169 130.9606,272.7397 131.4242,272.7169 131.8834,272.6488 132.3337,272.536 132.7707,272.3796 133.1903,272.1812 133.5885,271.9425 133.9613,271.666 134.3052,271.3543 134.6169,271.0104 134.8935,270.6375 135.1321,270.2394 135.3306,269.8198 135.4869,269.3827 135.5997,268.9325"/>
    <polygon points="150.394,291.5203 151.3944,291.0472 152.3435,290.4783 153.2324,289.8191 154.0523,289.0759 154.7954,288.256 155.4546,287.3671 156.0236,286.418 156.4967,285.4176 156.8695,284.3757 157.1384,283.3023 157.3007,282.2076 157.355,281.1024 157.3007,279.9971 157.1384,278.9025 156.8695,277.829 156.4967,276.7871 156.0236,275.7867 155.4546,274.8376 154.7954,273.9487 154.0523,273.1288 153.2324,272.3857 152.3435,271.7265 151.3944,271.1575 150.394,270.6844 149.3521,270.3116 148.2786,270.0427 147.184,269.8804 146.0787,269.8261 144.9735,269.8804 143.8788,270.0427 142.8054,270.3116 141.7635,270.6844 140.7631,271.1575 139.814,271.7265 138.9251,272.3857 138.1052,273.1288 137.362,273.9487 136.7028,274.8376 136.1339,275.7867 135.6608,276.7871 135.288,277.829 135.0191,278.9025 134.8567,279.9971 134.8024,281.1024 134.8567,282.2076 135.0191,283.3023 135.288,284.3757 135.6608,285.4176 136.1339,286.418 136.7028,287.3671 137.362,288.256 138.1052,289.0759 138.9251,289.8191 139.814,290.4783 140.7631,291.0472 141.7635,291.5203 142.8054,291.8931 143.8788,292.162 144.9735,292.3244 146.0787,292.3787 147.184,292.3244 148.2786,292.162 149.3521,291.8931"/>
    <polygon points="149.3521,322.6823 148.2786,322.4134 147.184,322.251 146.0787,322.1967 144.9735,322.251 143.8788,322.4134 142.8054,322.6823 141.7635,323.0551 140.7631,323.5282 139.814,324.0971 138.9251,324.7563 138.1052,325.4995 137.362,326.3194 136.7028,327.2083 136.1339,328.1574 135.6608,329.1578 135.288,330.1997 135.0191,331.2731 134.8567,332.3678 134.8024,333.473 134.8567,334.5783 135.0191,335.6729 135.288,336.7464 135.6608,337.7883 136.1339,338.7886 136.7028,339.7378 137.362,340.6266 138.1052,341.4466 138.9251,342.1897 139.814,342.8489 140.7631,343.4178 141.7635,343.891 142.8054,344.2638 143.8788,344.5327 144.9735,344.695 146.0787,344.7493 147.184,344.695 148.2786,344.5327 149.3521,344.2638 150.394,343.891 151.3944,343.4178 152.3435,342.8489 153.2324,342.1897 154.0523,341.4466 154.7954,340.6266 155.4546,339.7378 156.0236,338.7886 156.4967,337.7883 156.8695,336.7464 157.1384,335.6729 157.3007,334.5783 157.355,333.473 157.3007,332.3678 157.1384,331.2731 156.8695,330.1997 156.4967,329.1578 156.0236,328.1574 155.4546,327.2083 154.7954,326.3194 154.0523,325.4995 153.2324,324.7563 152.3435,324.0971 151.3944,323.5282 150.394,323.0551"/>
    <polygon points="162.4911,337.1898 161.6023,337.849 160.7824,338.5921 160.0392,339.4121 159.38,340.3009 158.8111,341.2501 158.338,342.2504 157.9652,343.2924 157.6963,344.3658 157.5339,345.4604 157.4796,346.5657 157.5339,347.671 157.6963,348.7656 157.9652,349.839 158.338,350.881 158.8111,351.8813 159.38,352.8305 160.0392,353.7193 160.7824,354.5393 161.6023,355.2824 162.4911,355.9416 163.4403,356.5105 164.4406,356.9836 165.4826,357.3565 166.556,357.6253 167.6506,357.7877 168.7559,357.842 169.8612,357.7877 170.9558,357.6253 172.0292,357.3565 173.0712,356.9836 174.0715,356.5105 175.0207,355.9416 175.9095,355.2824 176.7295,354.5393 177.4726,353.7193 178.1318,352.8305 178.7007,351.8813 179.1739,350.881 179.5467,349.839 179.8155,348.7656 179.9779,347.671 180.0322,346.5657 179.9779,345.4604 179.8155,344.3658 179.5467,343.2924 179.1739,342.2504 178.7007,341.2501 178.1318,340.3009 177.4726,339.4121 176.7295,338.5921 175.9095,337.849 175.0207,337.1898 174.0715,336.6209 173.0712,336.1478 172.0292,335.7749 170.9558,335.5061 169.8612,335.3437 168.7559,335.2894 167.6506,335.3437 166.556,335.5061 165.4826,335.7749 164.4406,336.1478 163.4403,336.6209"/>
    <polygon points="152.715,364.2975 152.2648,364.1847 151.8277,364.0283 151.4081,363.8298 151.01,363.5912 150.6371,363.3147 150.2932,363.003 149.9815,362.659 149.705,362.2862 149.4663,361.8881 149.2679,361.4684 149.1115,361.0314 148.9987,360.5811 148.9306,360.122 148.9078,359.6584 148.9306,359.1947 148.9987,358.7356 149.1115,358.2853 149.2679,357.8483 149.4663,357.4287 149.705,357.0305 149.9815,356.6577 150.2932,356.3138 150.6371,356.002 151.01,355.7255 151.4081,355.4869 151.8277,355.2884 152.2648,355.1321 152.715,355.0193 153.1742,354.9512 153.6378,354.9284 154.1014,354.9512 154.5606,355.0193 155.0108,355.1321 155.4479,355.2884 155.8675,355.4869 156.2656,355.7255 156.6385,356.002 156.9824,356.3138 157.2941,356.6577 157.5706,357.0305 157.8093,357.4287 158.0077,357.8483 158.1641,358.2853 158.2769,358.7356 158.345,359.1947 158.3678,359.6584 158.345,360.122 158.2769,360.5811 158.1641,361.0314 158.0077,361.4684 157.8093,361.8881 157.5706,362.2862 157.2941,362.659 156.9824,363.003 156.6385,363.3147 156.2656,363.5912 155.8675,363.8298 155.4479,364.0283 155.0108,364.1847 154.5606,364.2975 154.1014,364.3656 153.6378,364.3883 153.1742,364.3656"/>
    <polygon points="145.9555,356.1127 145.6438,356.4566 145.2999,356.7684 144.927,357.0449 144.5289,357.2835 144.1093,357.482 143.6723,357.6383 143.222,357.7511 142.7628,357.8192 142.2992,357.842 141.8356,357.8192 141.3764,357.7511 140.9262,357.6383 140.4891,357.482 140.0695,357.2835 139.6714,357.0449 139.2985,356.7684 138.9546,356.4566 138.6429,356.1127 138.3664,355.7399 138.1277,355.3417 137.9293,354.9221 137.7729,354.4851 137.6601,354.0348 137.592,353.5757 137.5692,353.112 137.592,352.6484 137.6601,352.1893 137.7729,351.739 137.9293,351.302 138.1277,350.8823 138.3664,350.4842 138.6429,350.1114 138.9546,349.7674 139.2985,349.4557 139.6714,349.1792 140.0695,348.9406 140.4891,348.7421 140.9262,348.5857 141.3764,348.4729 141.8356,348.4048 142.2992,348.3821 142.7628,348.4048 143.222,348.4729 143.6723,348.5857 144.1093,348.7421 144.5289,348.9406 144.927,349.1792 145.2999,349.4557 145.6438,349.7674 145.9555,350.1114 146.232,350.4842 146.4707,350.8823 146.6691,351.302 146.8255,351.739 146.9383,352.1893 147.0064,352.6484 147.0292,353.112 147.0064,353.5757 146.9383,354.0348 146.8255,354.4851 146.6691,354.9221 146.4707,355.3417 146.232,355.7399"/>
    <polygon points="130.497,351.2729 130.9606,351.2957 131.4242,351.2729 131.8834,351.2048 132.3337,351.092 132.7707,350.9356 133.1903,350.7372 133.5885,350.4985 133.9613,350.222 134.3052,349.9103 134.6169,349.5664 134.8935,349.1935 135.1321,348.7954 135.3306,348.3758 135.4869,347.9387 135.5997,347.4885 135.6678,347.0293 135.6906,346.5657 135.6678,346.1021 135.5997,345.6429 135.4869,345.1927 135.3306,344.7556 135.1321,344.336 134.8935,343.9379 134.6169,343.565 134.3052,343.2211 133.9613,342.9094 133.5885,342.6329 133.1903,342.3942 132.7707,342.1958 132.3337,342.0394 131.8834,341.9266 131.4242,341.8585 130.9606,341.8357 130.497,341.8585 130.0379,341.9266 129.5876,342.0394 129.1505,342.1958 128.7309,342.3942 128.3328,342.6329 127.96,342.9094 127.616,343.2211 127.3043,343.565 127.0278,343.9379 126.7892,344.336 126.5907,344.7556 126.4343,345.1927 126.3215,345.6429 126.2534,346.1021 126.2307,346.5657 126.2534,347.0293 126.3215,347.4885 126.4343,347.9387 126.5907,348.3758 126.7892,348.7954 127.0278,349.1935 127.3043,349.5664 127.616,349.9103 127.96,350.222 128.3328,350.4985 128.7309,350.7372 129.1505,350.9356 129.5876,351.092 130.0379,351.2048"/>
    <polygon points="133.1903,363.8298 132.7707,364.0283 132.3337,364.1847 131.8834,364.2975 131.4242,364.3656 130.9606,364.3883 130.497,364.3656 130.0379,364.2975 129.5876,364.1847 129.1505,364.0283 128.7309,363.8298 128.3328,363.5912 127.96,363.3147 127.616,363.003 127.3043,362.659 127.0278,362.2862 126.7892,361.8881 126.5907,361.4684 126.4343,361.0314 126.3215,360.5811 126.2534,360.122 126.2307,359.6584 126.2534,359.1947 126.3215,358.7356 126.4343,358.2853 126.5907,357.8483 126.7892,357.4287 127.0278,357.0305 127.3043,356.6577 127.616,356.3138 127.96,356.002 128.3328,355.7255 128.7309,355.4869 129.1505,355.2884 129.5876,355.1321 130.0379,355.0193 130.497,354.9512 130.9606,354.9284 131.4242,354.9512 131.8834,355.0193 132.3337,355.1321 132.7707,355.2884 133.1903,355.4869 133.5885,355.7255 133.9613,356.002 134.3052,356.3138 134.6169,356.6577 134.8935,357.0305 135.1321,357.4287 135.3306,357.8483 135.4869,358.2853 135.5997,358.7356 135.6678,359.1947 135.6906,359.6584 135.6678,360.122 135.5997,360.5811 135.4869,361.0314 135.3306,361.4684 135.1321,361.8881 134.8935,362.2862 134.6169,362.659 134.3052,363.003 133.9613,363.3147 133.5885,363.5912"/>
    <polygon points="137.5692,366.2047 137.592,365.7411 137.6601,365.2819 137.7729,364.8317 137.9293,364.3946 138.1277,363.975 138.3664,363.5769 138.6429,363.204 138.9546,362.8601 139.2985,362.5484 139.6714,362.2719 140.0695,362.0332 140.4891,361.8348 140.9262,361.6784 141.3764,361.5656 141.8356,361.4975 142.2992,361.4747 142.7628,361.4975 143.222,361.5656 143.6723,361.6784 144.1093,361.8348 144.5289,362.0332 144.927,362.2719 145.2999,362.5484 145.6438,362.8601 145.9555,363.204 146.232,363.5769 146.4707,363.975 146.6691,364.3946 146.8255,364.8317 146.9383,365.2819 147.0064,365.7411 147.0292,366.2047 147.0064,366.6683 146.9383,367.1275 146.8255,367.5777 146.6691,368.0148 146.4707,368.4344 146.232,368.8325 145.9555,369.2054 145.6438,369.5493 145.2999,369.861 144.927,370.1375 144.5289,370.3762 144.1093,370.5746 143.6723,370.731 143.222,370.8438 142.7628,370.9119 142.2992,370.9347 141.8356,370.9119 141.3764,370.8438 140.9262,370.731 140.4891,370.5746 140.0695,370.3762 139.6714,370.1375 139.2985,369.861 138.9546,369.5493 138.6429,369.2054 138.3664,368.8325 138.1277,368.4344 137.9293,368.0148 137.7729,367.5777 137.6601,367.1275 137.592,366.6683"/>
    <polygon points="126.2307,372.751 126.2534,373.2147 126.3215,373.6738 126.4343,374.1241 126.5907,374.5611 126.7892,374.9807 127.0278,375.3789 127.3043,375.7517 127.616,376.0956 127.96,376.4074 128.3328,376.6839 128.7309,376.9225 129.1505,377.121 129.5876,377.2773 130.0379,377.3901 130.497,377.4582 130.9606,377.481 131.4242,377.4582 131.8834,377.3901 132.3337,377.2773 132.7707,377.121 133.1903,376.9225 133.5885,376.6839 133.9613,376.4074 134.3052,376.0956 134.6169,375.7517 134.8935,375.3789 135.1321,374.9807 135.3306,374.5611 135.4869,374.1241 135.5997,373.6738 135.6678,373.2147 135.6906,372.751 135.6678,372.2874 135.5997,371.8283 135.4869,371.378 135.3306,370.941 135.1321,370.5213 134.8935,370.1232 134.6169,369.7504 134.3052,369.4064 133.9613,369.0947 133.5885,368.8182 133.1903,368.5796 132.7707,368.3811 132.3337,368.2247 131.8834,368.1119 131.4242,368.0438 130.9606,368.0211 130.497,368.0438 130.0379,368.1119 129.5876,368.2247 129.1505,368.3811 128.7309,368.5796 128.3328,368.8182 127.96,369.0947 127.616,369.4064 127.3043,369.7504 127.0278,370.1232 126.7892,370.5213 126.5907,370.941 126.4343,371.378 126.3215,371.8283 126.2534,372.2874"/>
    <polygon points="145.6438,382.642 145.9555,382.298 146.232,381.9252 146.4707,381.5271 146.6691,381.1075 146.8255,380.6704 146.9383,380.2201 147.0064,379.761 147.0292,379.2974 147.0064,378.8338 146.9383,378.3746 146.8255,377.9243 146.6691,377.4873 146.4707,377.0677 146.232,376.6695 145.9555,376.2967 145.6438,375.9528 145.2999,375.6411 144.927,375.3645 144.5289,375.1259 144.1093,374.9274 143.6723,374.7711 143.222,374.6583 142.7628,374.5902 142.2992,374.5674 141.8356,374.5902 141.3764,374.6583 140.9262,374.7711 140.4891,374.9274 140.0695,375.1259 139.6714,375.3645 139.2985,375.6411 138.9546,375.9528 138.6429,376.2967 138.3664,376.6695 138.1277,377.0677 137.9293,377.4873 137.7729,377.9243 137.6601,378.3746 137.592,378.8338 137.5692,379.2974 137.592,379.761 137.6601,380.2201 137.7729,380.6704 137.9293,381.1075 138.1277,381.5271 138.3664,381.9252 138.6429,382.298 138.9546,382.642 139.2985,382.9537 139.6714,383.2302 140.0695,383.4688 140.4891,383.6673 140.9262,383.8237 141.3764,383.9365 141.8356,384.0046 142.2992,384.0273 142.7628,384.0046 143.222,383.9365 143.6723,383.8237 144.1093,383.6673 144.5289,383.4688 144.927,383.2302 145.2999,382.9537"/>
    <polygon points="168.7559,384.0273 169.8612,383.973 170.9558,383.8107 172.0292,383.5418 173.0712,383.169 174.0715,382.6958 175.0207,382.1269 175.9095,381.4677 176.7295,380.7246 177.4726,379.9046 178.1318,379.0158 178.7007,378.0666 179.1739,377.0663 179.5467,376.0244 179.8155,374.9509 179.9779,373.8563 180.0322,372.751 179.9779,371.6458 179.8155,370.5511 179.5467,369.4777 179.1739,368.4358 178.7007,367.4354 178.1318,366.4863 177.4726,365.5974 176.7295,364.7775 175.9095,364.0343 175.0207,363.3751 174.0715,362.8062 173.0712,362.3331 172.0292,361.9603 170.9558,361.6914 169.8612,361.529 168.7559,361.4747 167.6506,361.529 166.556,361.6914 165.4826,361.9603 164.4406,362.3331 163.4403,362.8062 162.4911,363.3751 161.6023,364.0343 160.7824,364.7775 160.0392,365.5974 159.38,366.4863 158.8111,367.4354 158.338,368.4358 157.9652,369.4777 157.6963,370.5511 157.5339,371.6458 157.4796,372.751 157.5339,373.8563 157.6963,374.9509 157.9652,376.0244 158.338,377.0663 158.8111,378.0666 159.38,379.0158 160.0392,379.9046 160.7824,380.7246 161.6023,381.4677 162.4911,382.1269 163.4403,382.6958 164.4406,383.169 165.4826,383.5418 166.556,383.8107 167.6506,383.973"/>
    <polygon points="189.4636,383.6673 189.8832,383.4688 190.2814,383.2302 190.6542,382.9537 190.9981,382.642 191.3099,382.298 191.5864,381.9252 191.825,381.5271 192.0235,381.1075 192.1798,380.6704 192.2926,380.2201 192.3607,379.761 192.3835,379.2974 192.3607,378.8338 192.2926,378.3746 192.1798,377.9243 192.0235,377.4873 191.825,377.0677 191.5864,376.6695 191.3099,376.2967 190.9981,375.9528 190.6542,375.6411 190.2814,375.3645 189.8832,375.1259 189.4636,374.9274 189.0266,374.7711 188.5763,374.6583 188.1172,374.5902 187.6535,374.5674 187.1899,374.5902 186.7308,374.6583 186.2805,374.7711 185.8435,374.9274 185.4238,375.1259 185.0257,375.3645 184.6529,375.6411 184.3089,375.9528 183.9972,376.2967 183.7207,376.6695 183.4821,377.0677 183.2836,377.4873 183.1272,377.9243 183.0145,378.3746 182.9463,378.8338 182.9236,379.2974 182.9463,379.761 183.0145,380.2201 183.1272,380.6704 183.2836,381.1075 183.4821,381.5271 183.7207,381.9252 183.9972,382.298 184.3089,382.642 184.6529,382.9537 185.0257,383.2302 185.4238,383.4688 185.8435,383.6673 186.2805,383.8237 186.7308,383.9365 187.1899,384.0046 187.6535,384.0273 188.1172,384.0046 188.5763,383.9365 189.0266,383.8237"/>
    <polygon points="204.1654,378.0666 203.6923,377.0663 203.3195,376.0244 203.0506,374.9509 202.8882,373.8563 202.8339,372.751 202.8882,371.6458 203.0506,370.5511 203.3195,369.4777 203.6923,368.4358 204.1654,367.4354 204.7343,366.4863 205.3935,365.5974 206.1367,364.7775 206.9566,364.0343 207.8455,363.3751 208.7946,362.8062 209.795,362.3331 210.8369,361.9603 211.9103,361.6914 213.005,361.529 214.1102,361.4747 215.2155,361.529 216.3101,361.6914 217.3836,361.9603 218.4255,362.3331 219.4259,362.8062 220.375,363.3751 221.2638,364.0343 222.0838,364.7775 222.8269,365.5974 223.4861,366.4863 224.0551,367.4354 224.5282,368.4358 224.901,369.4777 225.1699,370.5511 225.3322,371.6458 225.3865,372.751 225.3322,373.8563 225.1699,374.9509 224.901,376.0244 224.5282,377.0663 224.0551,378.0666 223.4861,379.0158 222.8269,379.9046 222.0838,380.7246 221.2638,381.4677 220.375,382.1269 219.4259,382.6958 218.4255,383.169 217.3836,383.5418 216.3101,383.8107 215.2155,383.973 214.1102,384.0273 213.005,383.973 211.9103,383.8107 210.8369,383.5418 209.795,383.169 208.7946,382.6958 207.8455,382.1269 206.9566,381.4677 206.1367,380.7246 205.3935,379.9046 204.7343,379.0158"/>
    <polygon points="203.7221,385.8437 203.6993,386.3073 203.6312,386.7665 203.5184,387.2167 203.3621,387.6538 203.1636,388.0734 202.925,388.4715 202.6484,388.8444 202.3367,389.1883 201.9928,389.5 201.62,389.7765 201.2218,390.0152 200.8022,390.2136 200.3652,390.37 199.9149,390.4828 199.4557,390.5509 198.9921,390.5737 198.5285,390.5509 198.0694,390.4828 197.6191,390.37 197.182,390.2136 196.7624,390.0152 196.3643,389.7765 195.9915,389.5 195.6475,389.1883 195.3358,388.8444 195.0593,388.4715 194.8207,388.0734 194.6222,387.6538 194.4658,387.2167 194.353,386.7665 194.2849,386.3073 194.2622,385.8437 194.2849,385.3801 194.353,384.9209 194.4658,384.4707 194.6222,384.0336 194.8207,383.614 195.0593,383.2159 195.3358,382.843 195.6475,382.4991 195.9915,382.1874 196.3643,381.9109 196.7624,381.6722 197.182,381.4738 197.6191,381.3174 198.0694,381.2046 198.5285,381.1365 198.9921,381.1137 199.4557,381.1365 199.9149,381.2046 200.3652,381.3174 200.8022,381.4738 201.2218,381.6722 201.62,381.9109 201.9928,382.1874 202.3367,382.4991 202.6484,382.843 202.925,383.2159 203.1636,383.614 203.3621,384.0336 203.5184,384.4707 203.6312,384.9209 203.6993,385.3801"/>
    <polygon points="213.6753,389.0454 213.3314,388.7337 212.9585,388.4572 212.5604,388.2186 212.1408,388.0201 211.7037,387.8637 211.2535,387.7509 210.7943,387.6828 210.3307,387.6601 209.8671,387.6828 209.4079,387.7509 208.9577,387.8637 208.5206,388.0201 208.101,388.2186 207.7029,388.4572 207.33,388.7337 206.9861,389.0454 206.6744,389.3894 206.3979,389.7622 206.1592,390.1603 205.9608,390.58 205.8044,391.017 205.6916,391.4673 205.6235,391.9264 205.6007,392.39 205.6235,392.8537 205.6916,393.3128 205.8044,393.7631 205.9608,394.2001 206.1592,394.6197 206.3979,395.0179 206.6744,395.3907 206.9861,395.7346 207.33,396.0464 207.7029,396.3229 208.101,396.5615 208.5206,396.76 208.9577,396.9163 209.4079,397.0291 209.8671,397.0972 210.3307,397.12 210.7943,397.0972 211.2535,397.0291 211.7037,396.9163 212.1408,396.76 212.5604,396.5615 212.9585,396.3229 213.3314,396.0464 213.6753,395.7346 213.987,395.3907 214.2635,395.0179 214.5022,394.6197 214.7006,394.2001 214.857,393.7631 214.9698,393.3128 215.0379,392.8537 215.0607,392.39 215.0379,391.9264 214.9698,391.4673 214.857,391.017 214.7006,390.58 214.5022,390.1603 214.2635,389.7622 213.987,389.3894"/>
    <polygon points="212.9585,409.4155 213.3314,409.139 213.6753,408.8273 213.987,408.4834 214.2635,408.1105 214.5022,407.7124 214.7006,407.2928 214.857,406.8557 214.9698,406.4055 215.0379,405.9463 215.0607,405.4827 215.0379,405.0191 214.9698,404.5599 214.857,404.1097 214.7006,403.6726 214.5022,403.253 214.2635,402.8549 213.987,402.482 213.6753,402.1381 213.3314,401.8264 212.9585,401.5499 212.5604,401.3112 212.1408,401.1128 211.7037,400.9564 211.2535,400.8436 210.7943,400.7755 210.3307,400.7527 209.8671,400.7755 209.4079,400.8436 208.9577,400.9564 208.5206,401.1128 208.101,401.3112 207.7029,401.5499 207.33,401.8264 206.9861,402.1381 206.6744,402.482 206.3979,402.8549 206.1592,403.253 205.9608,403.6726 205.8044,404.1097 205.6916,404.5599 205.6235,405.0191 205.6007,405.4827 205.6235,405.9463 205.6916,406.4055 205.8044,406.8557 205.9608,407.2928 206.1592,407.7124 206.3979,408.1105 206.6744,408.4834 206.9861,408.8273 207.33,409.139 207.7029,409.4155 208.101,409.6542 208.5206,409.8526 208.9577,410.009 209.4079,410.1218 209.8671,410.1899 210.3307,410.2127 210.7943,410.1899 211.2535,410.1218 211.7037,410.009 212.1408,409.8526 212.5604,409.6542"/>
    <polygon points="206.1592,420.8051 206.3979,421.2032 206.6744,421.576 206.9861,421.92 207.33,422.2317 207.7029,422.5082 208.101,422.7468 208.5206,422.9453 208.9577,423.1017 209.4079,423.2145 209.8671,423.2826 210.3307,423.3053 210.7943,423.2826 211.2535,423.2145 211.7037,423.1017 212.1408,422.9453 212.5604,422.7468 212.9585,422.5082 213.3314,422.2317 213.6753,421.92 213.987,421.576 214.2635,421.2032 214.5022,420.8051 214.7006,420.3855 214.857,419.9484 214.9698,419.4981 215.0379,419.039 215.0607,418.5754 215.0379,418.1118 214.9698,417.6526 214.857,417.2023 214.7006,416.7653 214.5022,416.3457 214.2635,415.9475 213.987,415.5747 213.6753,415.2308 213.3314,414.9191 212.9585,414.6425 212.5604,414.4039 212.1408,414.2054 211.7037,414.0491 211.2535,413.9363 210.7943,413.8682 210.3307,413.8454 209.8671,413.8682 209.4079,413.9363 208.9577,414.0491 208.5206,414.2054 208.101,414.4039 207.7029,414.6425 207.33,414.9191 206.9861,415.2308 206.6744,415.5747 206.3979,415.9475 206.1592,416.3457 205.9608,416.7653 205.8044,417.2023 205.6916,417.6526 205.6235,418.1118 205.6007,418.5754 205.6235,419.039 205.6916,419.4981 205.8044,419.9484 205.9608,420.3855"/>
    <polygon points="253.4553,409.6542 253.875,409.8526 254.312,410.009 254.7623,410.1218 255.2214,410.1899 255.685,410.2127 256.1487,410.1899 256.6078,410.1218 257.0581,410.009 257.4951,409.8526 257.9147,409.6542 258.3129,409.4155 258.6857,409.139 259.0296,408.8273 259.3414,408.4834 259.6179,408.1105 259.8565,407.7124 260.055,407.2928 260.2113,406.8557 260.3241,406.4055 260.3922,405.9463 260.415,405.4827 260.3922,405.0191 260.3241,404.5599 260.2113,404.1097 260.055,403.6726 259.8565,403.253 259.6179,402.8549 259.3414,402.482 259.0296,402.1381 258.6857,401.8264 258.3129,401.5499 257.9147,401.3112 257.4951,401.1128 257.0581,400.9564 256.6078,400.8436 256.1487,400.7755 255.685,400.7527 255.2214,400.7755 254.7623,400.8436 254.312,400.9564 253.875,401.1128 253.4553,401.3112 253.0572,401.5499 252.6844,401.8264 252.3404,402.1381 252.0287,402.482 251.7522,402.8549 251.5136,403.253 251.3151,403.6726 251.1587,404.1097 251.046,404.5599 250.9778,405.0191 250.9551,405.4827 250.9778,405.9463 251.046,406.4055 251.1587,406.8557 251.3151,407.2928 251.5136,407.7124 251.7522,408.1105 252.0287,408.4834 252.3404,408.8273 252.6844,409.139 253.0572,409.4155"/>
    <polygon points="252.6844,396.0464 253.0572,396.3229 253.4553,396.5615 253.875,396.76 254.312,396.9163 254.7623,397.0291 255.2214,397.0972 255.685,397.12 256.1487,397.0972 256.6078,397.0291 257.0581,396.9163 257.4951,396.76 257.9147,396.5615 258.3129,396.3229 258.6857,396.0464 259.0296,395.7346 259.3414,395.3907 259.6179,395.0179 259.8565,394.6197 260.055,394.2001 260.2113,393.7631 260.3241,393.3128 260.3922,392.8537 260.415,392.39 260.3922,391.9264 260.3241,391.4673 260.2113,391.017 260.055,390.58 259.8565,390.1603 259.6179,389.7622 259.3414,389.3894 259.0296,389.0454 258.6857,388.7337 258.3129,388.4572 257.9147,388.2186 257.4951,388.0201 257.0581,387.8637 256.6078,387.7509 256.1487,387.6828 255.685,387.6601 255.2214,387.6828 254.7623,387.7509 254.312,387.8637 253.875,388.0201 253.4553,388.2186 253.0572,388.4572 252.6844,388.7337 252.3404,389.0454 252.0287,389.3894 251.7522,389.7622 251.5136,390.1603 251.3151,390.58 251.1587,391.017 251.046,391.4673 250.9778,391.9264 250.9551,392.39 250.9778,392.8537 251.046,393.3128 251.1587,393.7631 251.3151,394.2001 251.5136,394.6197 251.7522,395.0179 252.0287,395.3907 252.3404,395.7346"/>
    <polygon points="232.4721,375.4258 231.4718,375.8989 230.5226,376.4678 229.6338,377.127 228.8138,377.8701 228.0707,378.6901 227.4115,379.5789 226.8426,380.5281 226.3695,381.5284 225.9966,382.5704 225.7278,383.6438 225.5654,384.7384 225.5111,385.8437 225.5654,386.949 225.7278,388.0436 225.9966,389.117 226.3695,390.159 226.8426,391.1593 227.4115,392.1085 228.0707,392.9973 228.8138,393.8173 229.6338,394.5604 230.5226,395.2196 231.4718,395.7885 232.4721,396.2617 233.5141,396.6345 234.5875,396.9033 235.6821,397.0657 236.7874,397.12 237.8927,397.0657 238.9873,396.9033 240.0607,396.6345 241.1027,396.2617 242.103,395.7885 243.0522,395.2196 243.941,394.5604 244.761,393.8173 245.5041,392.9973 246.1633,392.1085 246.7322,391.1593 247.2054,390.159 247.5782,389.117 247.847,388.0436 248.0094,386.949 248.0637,385.8437 248.0094,384.7384 247.847,383.6438 247.5782,382.5704 247.2054,381.5284 246.7322,380.5281 246.1633,379.5789 245.5041,378.6901 244.761,377.8701 243.941,377.127 243.0522,376.4678 242.103,375.8989 241.1027,375.4258 240.0607,375.0529 238.9873,374.7841 237.8927,374.6217 236.7874,374.5674 235.6821,374.6217 234.5875,374.7841 233.5141,375.0529"/>
    <polygon points="237.1793,350.8823 236.9407,350.4842 236.6642,350.1114 236.3525,349.7674 236.0085,349.4557 235.6357,349.1792 235.2376,348.9406 234.818,348.7421 234.3809,348.5857 233.9306,348.4729 233.4715,348.4048 233.0079,348.3821 232.5443,348.4048 232.0851,348.4729 231.6348,348.5857 231.1978,348.7421 230.7782,348.9406 230.38,349.1792 230.0072,349.4557 229.6633,349.7674 229.3516,350.1114 229.075,350.4842 228.8364,350.8823 228.6379,351.302 228.4816,351.739 228.3688,352.1893 228.3007,352.6484 228.2779,353.112 228.3007,353.5757 228.3688,354.0348 228.4816,354.4851 228.6379,354.9221 228.8364,355.3417 229.075,355.7399 229.3516,356.1127 229.6633,356.4566 230.0072,356.7684 230.38,357.0449 230.7782,357.2835 231.1978,357.482 231.6348,357.6383 232.0851,357.7511 232.5443,357.8192 233.0079,357.842 233.4715,357.8192 233.9306,357.7511 234.3809,357.6383 234.818,357.482 235.2376,357.2835 235.6357,357.0449 236.0085,356.7684 236.3525,356.4566 236.6642,356.1127 236.9407,355.7399 237.1793,355.3417 237.3778,354.9221 237.5342,354.4851 237.647,354.0348 237.7151,353.5757 237.7378,353.112 237.7151,352.6484 237.647,352.1893 237.5342,351.739 237.3778,351.302"/>
    <polygon points="247.6911,336.8176 248.0028,336.4737 248.2793,336.1009 248.5179,335.7027 248.7164,335.2831 248.8728,334.8461 248.9855,334.3958 249.0537,333.9367 249.0764,333.473 249.0537,333.0094 248.9855,332.5503 248.8728,332.1 248.7164,331.663 248.5179,331.2433 248.2793,330.8452 248.0028,330.4724 247.6911,330.1284 247.3471,329.8167 246.9743,329.5402 246.5762,329.3016 246.1565,329.1031 245.7195,328.9467 245.2692,328.8339 244.8101,328.7658 244.3465,328.7431 243.8828,328.7658 243.4237,328.8339 242.9734,328.9467 242.5364,329.1031 242.1168,329.3016 241.7186,329.5402 241.3458,329.8167 241.0019,330.1284 240.6901,330.4724 240.4136,330.8452 240.175,331.2433 239.9765,331.663 239.8202,332.1 239.7074,332.5503 239.6393,333.0094 239.6165,333.473 239.6393,333.9367 239.7074,334.3958 239.8202,334.8461 239.9765,335.2831 240.175,335.7027 240.4136,336.1009 240.6901,336.4737 241.0019,336.8176 241.3458,337.1294 241.7186,337.4059 242.1168,337.6445 242.5364,337.843 242.9734,337.9993 243.4237,338.1121 243.8828,338.1802 244.3465,338.203 244.8101,338.1802 245.2692,338.1121 245.7195,337.9993 246.1565,337.843 246.5762,337.6445 246.9743,337.4059 247.3471,337.1294"/>
    <polygon points="237.7151,326.4631 237.647,326.0039 237.5342,325.5537 237.3778,325.1166 237.1793,324.697 236.9407,324.2989 236.6642,323.926 236.3525,323.5821 236.0085,323.2704 235.6357,322.9939 235.2376,322.7552 234.818,322.5568 234.3809,322.4004 233.9306,322.2876 233.4715,322.2195 233.0079,322.1967 232.5443,322.2195 232.0851,322.2876 231.6348,322.4004 231.1978,322.5568 230.7782,322.7552 230.38,322.9939 230.0072,323.2704 229.6633,323.5821 229.3516,323.926 229.075,324.2989 228.8364,324.697 228.6379,325.1166 228.4816,325.5537 228.3688,326.0039 228.3007,326.4631 228.2779,326.9267 228.3007,327.3903 228.3688,327.8495 228.4816,328.2997 228.6379,328.7368 228.8364,329.1564 229.075,329.5545 229.3516,329.9274 229.6633,330.2713 230.0072,330.583 230.38,330.8595 230.7782,331.0982 231.1978,331.2966 231.6348,331.453 232.0851,331.5658 232.5443,331.6339 233.0079,331.6567 233.4715,331.6339 233.9306,331.5658 234.3809,331.453 234.818,331.2966 235.2376,331.0982 235.6357,330.8595 236.0085,330.583 236.3525,330.2713 236.6642,329.9274 236.9407,329.5545 237.1793,329.1564 237.3778,328.7368 237.5342,328.2997 237.647,327.8495 237.7151,327.3903 237.7378,326.9267"/>
    <polygon points="245.9209,278.7138 245.57,276.3482 244.9889,274.0284 244.1833,271.7768 243.1608,269.6149 241.9314,267.5637 240.5068,265.6428 238.9008,263.8709 237.1288,262.2649 235.208,260.8403 233.1567,259.6108 230.9949,258.5884 228.7432,257.7827 226.4234,257.2016 224.0579,256.8507 221.6693,256.7334 219.2807,256.8507 216.9151,257.2016 214.5954,257.7827 212.3437,258.5884 210.1818,259.6108 208.1306,260.8403 206.2098,262.2649 204.4378,263.8709 202.8318,265.6428 201.4072,267.5637 200.1778,269.6149 199.1553,271.7768 198.3496,274.0284 197.7686,276.3482 197.4177,278.7138 197.3003,281.1024 197.4177,283.4909 197.7686,285.8565 198.3496,288.1763 199.1553,290.428 200.1778,292.5898 201.4072,294.641 202.8318,296.5619 204.4378,298.3338 206.2098,299.9398 208.1306,301.3644 210.1818,302.5939 212.3437,303.6164 214.5954,304.422 216.9151,305.0031 219.2807,305.354 221.6693,305.4713 224.0579,305.354 226.4234,305.0031 228.7432,304.422 230.9949,303.6164 233.1567,302.5939 235.208,301.3644 237.1288,299.9398 238.9008,298.3338 240.5068,296.5619 241.9314,294.641 243.1608,292.5898 244.1833,290.428 244.9889,288.1763 245.57,285.8565 245.9209,283.4909 246.0383,281.1024"/>
    <polygon points="256.1912,257.2189 255.1493,257.5917 254.149,258.0649 253.1998,258.6338 252.311,259.293 251.491,260.0361 250.7479,260.8561 250.0887,261.7449 249.5198,262.6941 249.0466,263.6944 248.6738,264.7364 248.4049,265.8098 248.2426,266.9044 248.1883,268.0097 248.2426,269.115 248.4049,270.2096 248.6738,271.283 249.0466,272.325 249.5198,273.3253 250.0887,274.2745 250.7479,275.1633 251.491,275.9832 252.311,276.7264 253.1998,277.3856 254.149,277.9545 255.1493,278.4276 256.1912,278.8004 257.2647,279.0693 258.3593,279.2317 259.4646,279.286 260.5698,279.2317 261.6645,279.0693 262.7379,278.8004 263.7798,278.4276 264.7802,277.9545 265.7293,277.3856 266.6182,276.7264 267.4381,275.9832 268.1813,275.1633 268.8405,274.2745 269.4094,273.3253 269.8825,272.325 270.2553,271.283 270.5242,270.2096 270.6866,269.115 270.7409,268.0097 270.6866,266.9044 270.5242,265.8098 270.2553,264.7364 269.8825,263.6944 269.4094,262.6941 268.8405,261.7449 268.1813,260.8561 267.4381,260.0361 266.6182,259.293 265.7293,258.6338 264.7802,258.0649 263.7798,257.5917 262.7379,257.2189 261.6645,256.9501 260.5698,256.7877 259.4646,256.7334 258.3593,256.7877 257.2647,256.9501"/>
    <polygon points="280.99,257.5305 280.5919,257.2919 280.1723,257.0934 279.7352,256.9371 279.285,256.8243 278.8258,256.7562 278.3622,256.7334 277.8986,256.7562 277.4394,256.8243 276.9892,256.9371 276.5521,257.0934 276.1325,257.2919 275.7344,257.5305 275.3615,257.807 275.0176,258.1188 274.7059,258.4627 274.4294,258.8355 274.1907,259.2337 273.9923,259.6533 273.8359,260.0903 273.7231,260.5406 273.655,260.9997 273.6322,261.4634 273.655,261.927 273.7231,262.3861 273.8359,262.8364 273.9923,263.2734 274.1907,263.6931 274.4294,264.0912 274.7059,264.464 275.0176,264.808 275.3615,265.1197 275.7344,265.3962 276.1325,265.6348 276.5521,265.8333 276.9892,265.9897 277.4394,266.1024 277.8986,266.1706 278.3622,266.1933 278.8258,266.1706 279.285,266.1024 279.7352,265.9897 280.1723,265.8333 280.5919,265.6348 280.99,265.3962 281.3629,265.1197 281.7068,264.808 282.0185,264.464 282.295,264.0912 282.5337,263.6931 282.7321,263.2734 282.8885,262.8364 283.0013,262.3861 283.0694,261.927 283.0922,261.4634 283.0694,260.9997 283.0013,260.5406 282.8885,260.0903 282.7321,259.6533 282.5337,259.2337 282.295,258.8355 282.0185,258.4627 281.7068,258.1188 281.3629,257.807"/>
    <polygon points="275.7344,226.1182 276.1325,226.3568 276.5521,226.5553 276.9892,226.7117 277.4394,226.8244 277.8986,226.8926 278.3622,226.9153 278.8258,226.8926 279.285,226.8244 279.7352,226.7117 280.1723,226.5553 280.5919,226.3568 280.99,226.1182 281.3629,225.8417 281.7068,225.53 282.0185,225.186 282.295,224.8132 282.5337,224.4151 282.7321,223.9954 282.8885,223.5584 283.0013,223.1081 283.0694,222.649 283.0922,222.1854 283.0694,221.7217 283.0013,221.2626 282.8885,220.8123 282.7321,220.3753 282.5337,219.9557 282.295,219.5575 282.0185,219.1847 281.7068,218.8408 281.3629,218.529 280.99,218.2525 280.5919,218.0139 280.1723,217.8154 279.7352,217.6591 279.285,217.5463 278.8258,217.4782 278.3622,217.4554 277.8986,217.4782 277.4394,217.5463 276.9892,217.6591 276.5521,217.8154 276.1325,218.0139 275.7344,218.2525 275.3615,218.529 275.0176,218.8408 274.7059,219.1847 274.4294,219.5575 274.1907,219.9557 273.9923,220.3753 273.8359,220.8123 273.7231,221.2626 273.655,221.7217 273.6322,222.1854 273.655,222.649 273.7231,223.1081 273.8359,223.5584 273.9923,223.9954 274.1907,224.4151 274.4294,224.8132 274.7059,225.186 275.0176,225.53 275.3615,225.8417"/>
    <polygon points="305.6785,195.0773 305.7466,195.5364 305.7693,196.0 305.7466,196.4636 305.6785,196.9228 305.5657,197.3731 305.4093,197.8101 305.2108,198.2297 304.9722,198.6279 304.6957,199.0007 304.384,199.3446 304.04,199.6563 303.6672,199.9329 303.2691,200.1715 302.8495,200.3699 302.4124,200.5263 301.9621,200.6391 301.503,200.7072 301.0394,200.73 300.5758,200.7072 300.1166,200.6391 299.6663,200.5263 299.2293,200.3699 298.8097,200.1715 298.4115,199.9329 298.0387,199.6563 297.6948,199.3446 297.3831,199.0007 297.1065,198.6279 296.8679,198.2297 296.6694,197.8101 296.5131,197.3731 296.4003,196.9228 296.3322,196.4636 296.3094,196.0 296.3322,195.5364 296.4003,195.0773 296.5131,194.627 296.6694,194.1899 296.8679,193.7703 297.1065,193.3722 297.3831,192.9994 297.6948,192.6554 298.0387,192.3437 298.4115,192.0672 298.8097,191.8286 299.2293,191.6301 299.6663,191.4737 300.1166,191.3609 300.5758,191.2928 301.0394,191.2701 301.503,191.2928 301.9621,191.3609 302.4124,191.4737 302.8495,191.6301 303.2691,191.8286 303.6672,192.0672 304.04,192.3437 304.384,192.6554 304.6957,192.9994 304.9722,193.3722 305.2108,193.7703 305.4093,194.1899 305.5657,194.627"/>
    <polygon points="270.9197,201.4411 271.0821,200.3465 271.351,199.273 271.7238,198.2311 272.1969,197.2307 272.7658,196.2816 273.425,195.3927 274.1682,194.5728 274.9881,193.8297 275.877,193.1705 276.8261,192.6015 277.8265,192.1284 278.8684,191.7556 279.9418,191.4867 281.0365,191.3243 282.1417,191.2701 283.247,191.3243 284.3416,191.4867 285.4151,191.7556 286.457,192.1284 287.4573,192.6015 288.4065,193.1705 289.2953,193.8297 290.1153,194.5728 290.8584,195.3927 291.5176,196.2816 292.0865,197.2307 292.5597,198.2311 292.9325,199.273 293.2014,200.3465 293.3637,201.4411 293.418,202.5464 293.3637,203.6516 293.2014,204.7463 292.9325,205.8197 292.5597,206.8616 292.0865,207.862 291.5176,208.8111 290.8584,209.7 290.1153,210.5199 289.2953,211.2631 288.4065,211.9223 287.4573,212.4912 286.457,212.9643 285.4151,213.3371 284.3416,213.606 283.247,213.7684 282.1417,213.8227 281.0365,213.7684 279.9418,213.606 278.8684,213.3371 277.8265,212.9643 276.8261,212.4912 275.877,211.9223 274.9881,211.2631 274.1682,210.5199 273.425,209.7 272.7658,208.8111 272.1969,207.862 271.7238,206.8616 271.351,205.8197 271.0821,204.7463 270.9197,203.6516 270.8654,202.5464"/>
    <polygon points="265.7293,206.2631 266.6182,206.9223 267.4381,207.6655 268.1813,208.4854 268.8405,209.3742 269.4094,210.3234 269.8825,211.3238 270.2553,212.3657 270.5242,213.4391 270.6866,214.5338 270.7409,215.639 270.6866,216.7443 270.5242,217.8389 270.2553,218.9124 269.8825,219.9543 269.4094,220.9546 268.8405,221.9038 268.1813,222.7926 267.4381,223.6126 266.6182,224.3557 265.7293,225.0149 264.7802,225.5838 263.7798,226.057 262.7379,226.4298 261.6645,226.6987 260.5698,226.861 259.4646,226.9153 258.3593,226.861 257.2647,226.6987 256.1912,226.4298 255.1493,226.057 254.149,225.5838 253.1998,225.0149 252.311,224.3557 251.491,223.6126 250.7479,222.7926 250.0887,221.9038 249.5198,220.9546 249.0466,219.9543 248.6738,218.9124 248.4049,217.8389 248.2426,216.7443 248.1883,215.639 248.2426,214.5338 248.4049,213.4391 248.6738,212.3657 249.0466,211.3238 249.5198,210.3234 250.0887,209.3742 250.7479,208.4854 251.491,207.6655 252.311,206.9223 253.1998,206.2631 254.149,205.6942 255.1493,205.2211 256.1912,204.8483 257.2647,204.5794 258.3593,204.417 259.4646,204.3627 260.5698,204.417 261.6645,204.5794 262.7379,204.8483 263.7798,205.2211 264.7802,205.6942"/>
    <polygon points="228.8364,185.137 229.075,185.5352 229.3516,185.908 229.6633,186.252 230.0072,186.5637 230.38,186.8402 230.7782,187.0788 231.1978,187.2773 231.6348,187.4337 232.0851,187.5464 232.5443,187.6146 233.0079,187.6373 233.4715,187.6146 233.9306,187.5464 234.3809,187.4337 234.818,187.2773 235.2376,187.0788 235.6357,186.8402 236.0085,186.5637 236.3525,186.252 236.6642,185.908 236.9407,185.5352 237.1793,185.137 237.3778,184.7174 237.5342,184.2804 237.647,183.8301 237.7151,183.371 237.7378,182.9074 237.7151,182.4437 237.647,181.9846 237.5342,181.5343 237.3778,181.0973 237.1793,180.6777 236.9407,180.2795 236.6642,179.9067 236.3525,179.5628 236.0085,179.251 235.6357,178.9745 235.2376,178.7359 234.818,178.5374 234.3809,178.3811 233.9306,178.2683 233.4715,178.2002 233.0079,178.1774 232.5443,178.2002 232.0851,178.2683 231.6348,178.3811 231.1978,178.5374 230.7782,178.7359 230.38,178.9745 230.0072,179.251 229.6633,179.5628 229.3516,179.9067 229.075,180.2795 228.8364,180.6777 228.6379,181.0973 228.4816,181.5343 228.3688,181.9846 228.3007,182.4437 228.2779,182.9074 228.3007,183.371 228.3688,183.8301 228.4816,184.2804 228.6379,184.7174"/>
    <polygon points="222.0838,181.4801 221.2638,180.737 220.375,180.0778 219.4259,179.5089 218.4255,179.0357 217.3836,178.6629 216.3101,178.3941 215.2155,178.2317 214.1102,178.1774 213.005,178.2317 211.9103,178.3941 210.8369,178.6629 209.795,179.0357 208.7946,179.5089 207.8455,180.0778 206.9566,180.737 206.1367,181.4801 205.3935,182.3001 204.7343,183.1889 204.1654,184.1381 203.6923,185.1384 203.3195,186.1804 203.0506,187.2538 202.8882,188.3484 202.8339,189.4537 202.8882,190.559 203.0506,191.6536 203.3195,192.727 203.6923,193.7689 204.1654,194.7693 204.7343,195.7185 205.3935,196.6073 206.1367,197.4272 206.9566,198.1704 207.8455,198.8296 208.7946,199.3985 209.795,199.8716 210.8369,200.2444 211.9103,200.5133 213.005,200.6757 214.1102,200.73 215.2155,200.6757 216.3101,200.5133 217.3836,200.2444 218.4255,199.8716 219.4259,199.3985 220.375,198.8296 221.2638,198.1704 222.0838,197.4272 222.8269,196.6073 223.4861,195.7185 224.0551,194.7693 224.5282,193.7689 224.901,192.727 225.1699,191.6536 225.3322,190.559 225.3865,189.4537 225.3322,188.3484 225.1699,187.2538 224.901,186.1804 224.5282,185.1384 224.0551,184.1381 223.4861,183.1889 222.8269,182.3001"/>
    <polygon points="213.987,166.814 213.6753,166.4701 213.3314,166.1584 212.9585,165.8819 212.5604,165.6432 212.1408,165.4448 211.7037,165.2884 211.2535,165.1756 210.7943,165.1075 210.3307,165.0847 209.8671,165.1075 209.4079,165.1756 208.9577,165.2884 208.5206,165.4448 208.101,165.6432 207.7029,165.8819 207.33,166.1584 206.9861,166.4701 206.6744,166.814 206.3979,167.1869 206.1592,167.585 205.9608,168.0046 205.8044,168.4416 205.6916,168.8919 205.6235,169.3511 205.6007,169.8147 205.6235,170.2783 205.6916,170.7375 205.8044,171.1877 205.9608,171.6248 206.1592,172.0444 206.3979,172.4425 206.6744,172.8154 206.9861,173.1593 207.33,173.471 207.7029,173.7475 208.101,173.9862 208.5206,174.1846 208.9577,174.341 209.4079,174.4538 209.8671,174.5219 210.3307,174.5447 210.7943,174.5219 211.2535,174.4538 211.7037,174.341 212.1408,174.1846 212.5604,173.9862 212.9585,173.7475 213.3314,173.471 213.6753,173.1593 213.987,172.8154 214.2635,172.4425 214.5022,172.0444 214.7006,171.6248 214.857,171.1877 214.9698,170.7375 215.0379,170.2783 215.0607,169.8147 215.0379,169.3511 214.9698,168.8919 214.857,168.4416 214.7006,168.0046 214.5022,167.585 214.2635,167.1869"/>
    <polygon points="237.3778,154.9119 237.5342,155.349 237.647,155.7992 237.7151,156.2584 237.7378,156.722 237.7151,157.1856 237.647,157.6448 237.5342,158.0951 237.3778,158.5321 237.1793,158.9517 236.9407,159.3499 236.6642,159.7227 236.3525,160.0666 236.0085,160.3783 235.6357,160.6548 235.2376,160.8935 234.818,161.0919 234.3809,161.2483 233.9306,161.3611 233.4715,161.4292 233.0079,161.452 232.5443,161.4292 232.0851,161.3611 231.6348,161.2483 231.1978,161.0919 230.7782,160.8935 230.38,160.6548 230.0072,160.3783 229.6633,160.0666 229.3516,159.7227 229.075,159.3499 228.8364,158.9517 228.6379,158.5321 228.4816,158.0951 228.3688,157.6448 228.3007,157.1856 228.2779,156.722 228.3007,156.2584 228.3688,155.7992 228.4816,155.349 228.6379,154.9119 228.8364,154.4923 229.075,154.0942 229.3516,153.7214 229.6633,153.3774 230.0072,153.0657 230.38,152.7892 230.7782,152.5506 231.1978,152.3521 231.6348,152.1957 232.0851,152.0829 232.5443,152.0148 233.0079,151.992 233.4715,152.0148 233.9306,152.0829 234.3809,152.1957 234.818,152.3521 235.2376,152.5506 235.6357,152.7892 236.0085,153.0657 236.3525,153.3774 236.6642,153.7214 236.9407,154.0942 237.1793,154.4923"/>
    <polygon points="228.6379,145.4394 228.4816,145.0024 228.3688,144.5521 228.3007,144.093 228.2779,143.6294 228.3007,143.1657 228.3688,142.7066 228.4816,142.2563 228.6379,141.8193 228.8364,141.3997 229.075,141.0015 229.3516,140.6287 229.6633,140.2848 230.0072,139.973 230.38,139.6965 230.7782,139.4579 231.1978,139.2594 231.6348,139.1031 232.0851,138.9903 232.5443,138.9222 233.0079,138.8994 233.4715,138.9222 233.9306,138.9903 234.3809,139.1031 234.818,139.2594 235.2376,139.4579 235.6357,139.6965 236.0085,139.973 236.3525,140.2848 236.6642,140.6287 236.9407,141.0015 237.1793,141.3997 237.3778,141.8193 237.5342,142.2563 237.647,142.7066 237.7151,143.1657 237.7378,143.6294 237.7151,144.093 237.647,144.5521 237.5342,145.0024 237.3778,145.4394 237.1793,145.859 236.9407,146.2572 236.6642,146.63 236.3525,146.9739 236.0085,147.2857 235.6357,147.5622 235.2376,147.8008 234.818,147.9993 234.3809,148.1557 233.9306,148.2684 233.4715,148.3365 233.0079,148.3593 232.5443,148.3365 232.0851,148.2684 231.6348,148.1557 231.1978,147.9993 230.7782,147.8008 230.38,147.5622 230.0072,147.2857 229.6633,146.9739 229.3516,146.63 229.075,146.2572 228.8364,145.859"/>
    <polygon points="209.4079,138.9903 208.9577,139.1031 208.5206,139.2594 208.101,139.4579 207.7029,139.6965 207.33,139.973 206.9861,140.2848 206.6744,140.6287 206.3979,141.0015 206.1592,141.3997 205.9608,141.8193 205.8044,142.2563 205.6916,142.7066 205.6235,143.1657 205.6007,143.6294 205.6235,144.093 205.6916,144.5521 205.8044,145.0024 205.9608,145.4394 206.1592,145.859 206.3979,146.2572 206.6744,146.63 206.9861,146.9739 207.33,147.2857 207.7029,147.5622 208.101,147.8008 208.5206,147.9993 208.9577,148.1557 209.4079,148.2684 209.8671,148.3365 210.3307,148.3593 210.7943,148.3365 211.2535,148.2684 211.7037,148.1557 212.1408,147.9993 212.5604,147.8008 212.9585,147.5622 213.3314,147.2857 213.6753,146.9739 213.987,146.63 214.2635,146.2572 214.5022,145.859 214.7006,145.4394 214.857,145.0024 214.9698,144.5521 215.0379,144.093 215.0607,143.6294 215.0379,143.1657 214.9698,142.7066 214.857,142.2563 214.7006,141.8193 214.5022,141.3997 214.2635,141.0015 213.987,140.6287 213.6753,140.2848 213.3314,139.973 212.9585,139.6965 212.5604,139.4579 212.1408,139.2594 211.7037,139.1031 211.2535,138.9903 210.7943,138.9222 210.3307,138.8994 209.8671,138.9222"/>
    <polygon points="217.143,148.8026 217.0302,149.2529 216.9621,149.7121 216.9393,150.1757 216.9621,150.6393 217.0302,151.0985 217.143,151.5487 217.2994,151.9858 217.4978,152.4054 217.7365,152.8035 218.013,153.1763 218.3247,153.5203 218.6686,153.832 219.0415,154.1085 219.4396,154.3472 219.8592,154.5456 220.2963,154.702 220.7465,154.8148 221.2057,154.8829 221.6693,154.9057 222.1329,154.8829 222.5921,154.8148 223.0423,154.702 223.4794,154.5456 223.899,154.3472 224.2971,154.1085 224.67,153.832 225.0139,153.5203 225.3256,153.1763 225.6021,152.8035 225.8408,152.4054 226.0392,151.9858 226.1956,151.5487 226.3084,151.0985 226.3765,150.6393 226.3993,150.1757 226.3765,149.7121 226.3084,149.2529 226.1956,148.8026 226.0392,148.3656 225.8408,147.946 225.6021,147.5479 225.3256,147.175 225.0139,146.8311 224.67,146.5194 224.2971,146.2429 223.899,146.0042 223.4794,145.8058 223.0423,145.6494 222.5921,145.5366 222.1329,145.4685 221.6693,145.4457 221.2057,145.4685 220.7465,145.5366 220.2963,145.6494 219.8592,145.8058 219.4396,146.0042 219.0415,146.2429 218.6686,146.5194 218.3247,146.8311 218.013,147.175 217.7365,147.5479 217.4978,147.946 217.2994,148.3656"/>
    <polygon points="213.3314,153.0657 212.9585,152.7892 212.5604,152.5506 212.1408,152.3521 211.7037,152.1957 211.2535,152.0829 210.7943,152.0148 210.3307,151.992 209.8671,152.0148 209.4079,152.0829 208.9577,152.1957 208.5206,152.3521 208.101,152.5506 207.7029,152.7892 207.33,153.0657 206.9861,153.3774 206.6744,153.7214 206.3979,154.0942 206.1592,154.4923 205.9608,154.9119 205.8044,155.349 205.6916,155.7992 205.6235,156.2584 205.6007,156.722 205.6235,157.1856 205.6916,157.6448 205.8044,158.0951 205.9608,158.5321 206.1592,158.9517 206.3979,159.3499 206.6744,159.7227 206.9861,160.0666 207.33,160.3783 207.7029,160.6548 208.101,160.8935 208.5206,161.0919 208.9577,161.2483 209.4079,161.3611 209.8671,161.4292 210.3307,161.452 210.7943,161.4292 211.2535,161.3611 211.7037,161.2483 212.1408,161.0919 212.5604,160.8935 212.9585,160.6548 213.3314,160.3783 213.6753,160.0666 213.987,159.7227 214.2635,159.3499 214.5022,158.9517 214.7006,158.5321 214.857,158.0951 214.9698,157.6448 215.0379,157.1856 215.0607,156.722 215.0379,156.2584 214.9698,155.7992 214.857,155.349 214.7006,154.9119 214.5022,154.4923 214.2635,154.0942 213.987,153.7214 213.6753,153.3774"/>
    <polygon points="196.3643,172.4282 195.9915,172.7047 195.6475,173.0164 195.3358,173.3604 195.0593,173.7332 194.8207,174.1313 194.6222,174.5509 194.4658,174.988 194.353,175.4383 194.2849,175.8974 194.2622,176.361 194.2849,176.8246 194.353,177.2838 194.4658,177.7341 194.6222,178.1711 194.8207,178.5907 195.0593,178.9889 195.3358,179.3617 195.6475,179.7056 195.9915,180.0173 196.3643,180.2939 196.7624,180.5325 197.182,180.7309 197.6191,180.8873 198.0694,181.0001 198.5285,181.0682 198.9921,181.091 199.4557,181.0682 199.9149,181.0001 200.3652,180.8873 200.8022,180.7309 201.2218,180.5325 201.62,180.2939 201.9928,180.0173 202.3367,179.7056 202.6484,179.3617 202.925,178.9889 203.1636,178.5907 203.3621,178.1711 203.5184,177.7341 203.6312,177.2838 203.6993,176.8246 203.7221,176.361 203.6993,175.8974 203.6312,175.4383 203.5184,174.988 203.3621,174.5509 203.1636,174.1313 202.925,173.7332 202.6484,173.3604 202.3367,173.0164 201.9928,172.7047 201.62,172.4282 201.2218,172.1896 200.8022,171.9911 200.3652,171.8347 199.9149,171.7219 199.4557,171.6538 198.9921,171.631 198.5285,171.6538 198.0694,171.7219 197.6191,171.8347 197.182,171.9911 196.7624,172.1896"/>
    <polygon points="190.6542,173.471 190.9981,173.1593 191.3099,172.8154 191.5864,172.4425 191.825,172.0444 192.0235,171.6248 192.1798,171.1877 192.2926,170.7375 192.3607,170.2783 192.3835,169.8147 192.3607,169.3511 192.2926,168.8919 192.1798,168.4416 192.0235,168.0046 191.825,167.585 191.5864,167.1869 191.3099,166.814 190.9981,166.4701 190.6542,166.1584 190.2814,165.8819 189.8832,165.6432 189.4636,165.4448 189.0266,165.2884 188.5763,165.1756 188.1172,165.1075 187.6535,165.0847 187.1899,165.1075 186.7308,165.1756 186.2805,165.2884 185.8435,165.4448 185.4238,165.6432 185.0257,165.8819 184.6529,166.1584 184.3089,166.4701 183.9972,166.814 183.7207,167.1869 183.4821,167.585 183.2836,168.0046 183.1272,168.4416 183.0145,168.8919 182.9463,169.3511 182.9236,169.8147 182.9463,170.2783 183.0145,170.7375 183.1272,171.1877 183.2836,171.6248 183.4821,172.0444 183.7207,172.4425 183.9972,172.8154 184.3089,173.1593 184.6529,173.471 185.0257,173.7475 185.4238,173.9862 185.8435,174.1846 186.2805,174.341 186.7308,174.4538 187.1899,174.5219 187.6535,174.5447 188.1172,174.5219 188.5763,174.4538 189.0266,174.341 189.4636,174.1846 189.8832,173.9862 190.2814,173.7475"/>
    <polygon points="212.3437,206.2177 210.1818,207.2402 208.1306,208.4696 206.2098,209.8942 204.4378,211.5002 202.8318,213.2722 201.4072,215.193 200.1778,217.2442 199.1553,219.4061 198.3496,221.6578 197.7686,223.9775 197.4177,226.3431 197.3003,228.7317 197.4177,231.1203 197.7686,233.4858 198.3496,235.8056 199.1553,238.0573 200.1778,240.2191 201.4072,242.2704 202.8318,244.1912 204.4378,245.9632 206.2098,247.5692 208.1306,248.9938 210.1818,250.2232 212.3437,251.2457 214.5954,252.0513 216.9151,252.6324 219.2807,252.9833 221.6693,253.1007 224.0579,252.9833 226.4234,252.6324 228.7432,252.0513 230.9949,251.2457 233.1567,250.2232 235.208,248.9938 237.1288,247.5692 238.9008,245.9632 240.5068,244.1912 241.9314,242.2704 243.1608,240.2191 244.1833,238.0573 244.9889,235.8056 245.57,233.4858 245.9209,231.1203 246.0383,228.7317 245.9209,226.3431 245.57,223.9775 244.9889,221.6578 244.1833,219.4061 243.1608,217.2442 241.9314,215.193 240.5068,213.2722 238.9008,211.5002 237.1288,209.8942 235.208,208.4696 233.1567,207.2402 230.9949,206.2177 228.7432,205.412 226.4234,204.831 224.0579,204.4801 221.6693,204.3627 219.2807,204.4801 216.9151,204.831 214.5954,205.412"/>
  </g>
</svg>
