<?xml version="1.0" encoding="utf-8" ?>
<svg xmlns="http://www.w3.org/2000/svg" xmlns:cc="http://creativecommons.org/ns" xmlns:dc="http://purl.org/dc/elements/1.1/" xmlns:ev="http://www.w3.org/2001/xml-events" xmlns:inkscape="http://www.inkscape.org/namespaces/inkscape" xmlns:rdf="http://www.w3.org/1999/02/22-rdf-syntax-ns" xmlns:sodipodi="http://sodipodi.sourceforge.net/DTD/sodipodi-0.dtd" xmlns:xlink="http://www.w3.org/1999/xlink" baseProfile="tiny" height="15.875cm" version="1.2" viewBox="0 0 432.0 600.0" width="11.43cm">
  <metadata>
    <rdf:RDF>
      <cc:Work>
        <dc:format>image/svg+xml</dc:format>
        <dc:source>vsk save -s 215 -c hex-grid/config/bubble-coasters-2.json /Users/tobin/src/fabian/plotting/fabian-plotting/hex-grid/sketch_hex_grid.py</dc:source>
        <dc:date>2023-11-11T11:30:23.475818</dc:date>
      </cc:Work>
    </rdf:RDF>
  </metadata>
  <defs/>
  <g fill="none" id="layer1" inkscape:groupmode="layer" inkscape:label="1" stroke="#000000" stroke-width="0.7559" style="display:inline">
    <polygon points="295.3701,328.3835 294.9065,328.3607 294.4473,328.2926 293.997,328.1798 293.56,328.0235 293.1404,327.825 292.7422,327.5864 292.3694,327.3098 292.0255,326.9981 291.7138,326.6542 291.4373,326.2814 291.1986,325.8832 291.0002,325.4636 290.8438,325.0266 290.731,324.5763 290.6629,324.1172 290.6401,323.6535 290.6629,323.1899 290.731,322.7308 290.8438,322.2805 291.0002,321.8434 291.1986,321.4238 291.4373,321.0257 291.7138,320.6529 292.0255,320.3089 292.3694,319.9972 292.7422,319.7207 293.1404,319.4821 293.56,319.2836 293.997,319.1272 294.4473,319.0144 294.9065,318.9463 295.3701,318.9236 295.8337,318.9463 296.2929,319.0144 296.7431,319.1272 297.1802,319.2836 297.5998,319.4821 297.9979,319.7207 298.3707,319.9972 298.7147,320.3089 299.0264,320.6529 299.3029,321.0257 299.5415,321.4238 299.74,321.8434 299.8964,322.2805 300.0092,322.7308 300.0773,323.1899 300.1001,323.6535 300.0773,324.1172 300.0092,324.5763 299.8964,325.0266 299.74,325.4636 299.5415,325.8832 299.3029,326.2814 299.0264,326.6542 298.7147,326.9981 298.3707,327.3098 297.9979,327.5864 297.5998,327.825 297.1802,328.0235 296.7431,328.1798 296.2929,328.2926 295.8337,328.3607"/>
    <polygon points="302.7758,314.4794 303.0523,314.1065 303.3641,313.7626 303.708,313.4509 304.0808,313.1744 304.479,312.9357 304.8986,312.7373 305.3356,312.5809 305.7859,312.4681 306.245,312.4 306.7087,312.3772 307.1723,312.4 307.6314,312.4681 308.0817,312.5809 308.5187,312.7373 308.9384,312.9357 309.3365,313.1744 309.7093,313.4509 310.0533,313.7626 310.365,314.1065 310.6415,314.4794 310.8801,314.8775 311.0786,315.2971 311.235,315.7342 311.3477,316.1844 311.4159,316.6436 311.4386,317.1072 311.4159,317.5708 311.3477,318.03 311.235,318.4802 311.0786,318.9173 310.8801,319.3369 310.6415,319.735 310.365,320.1079 310.0533,320.4518 309.7093,320.7635 309.3365,321.04 308.9384,321.2787 308.5187,321.4771 308.0817,321.6335 307.6314,321.7463 307.1723,321.8144 306.7087,321.8372 306.245,321.8144 305.7859,321.7463 305.3356,321.6335 304.8986,321.4771 304.479,321.2787 304.0808,321.04 303.708,320.7635 303.3641,320.4518 303.0523,320.1079 302.7758,319.735 302.5372,319.3369 302.3387,318.9173 302.1824,318.4802 302.0696,318.03 302.0015,317.5708 301.9787,317.1072 302.0015,316.6436 302.0696,316.1844 302.1824,315.7342 302.3387,315.2971 302.5372,314.8775"/>
    <polygon points="291.0002,308.7508 291.1986,308.3312 291.4373,307.933 291.7138,307.5602 292.0255,307.2163 292.3694,306.9045 292.7422,306.628 293.1404,306.3894 293.56,306.1909 293.997,306.0346 294.4473,305.9218 294.9065,305.8537 295.3701,305.8309 295.8337,305.8537 296.2929,305.9218 296.7431,306.0346 297.1802,306.1909 297.5998,306.3894 297.9979,306.628 298.3707,306.9045 298.7147,307.2163 299.0264,307.5602 299.3029,307.933 299.5415,308.3312 299.74,308.7508 299.8964,309.1878 300.0092,309.6381 300.0773,310.0972 300.1001,310.5609 300.0773,311.0245 300.0092,311.4836 299.8964,311.9339 299.74,312.3709 299.5415,312.7906 299.3029,313.1887 299.0264,313.5615 298.7147,313.9055 298.3707,314.2172 297.9979,314.4937 297.5998,314.7323 297.1802,314.9308 296.7431,315.0872 296.2929,315.2 295.8337,315.2681 295.3701,315.2908 294.9065,315.2681 294.4473,315.2 293.997,315.0872 293.56,314.9308 293.1404,314.7323 292.7422,314.4937 292.3694,314.2172 292.0255,313.9055 291.7138,313.5615 291.4373,313.1887 291.1986,312.7906 291.0002,312.3709 290.8438,311.9339 290.731,311.4836 290.6629,311.0245 290.6401,310.5609 290.6629,310.0972 290.731,309.6381 290.8438,309.1878"/>
    <polygon points="273.1991,306.3164 274.2725,306.0476 275.3672,305.8852 276.4724,305.8309 277.5777,305.8852 278.6723,306.0476 279.7458,306.3164 280.7877,306.6892 281.7881,307.1624 282.7372,307.7313 283.6261,308.3905 284.446,309.1336 285.1891,309.9536 285.8483,310.8424 286.4173,311.7916 286.8904,312.7919 287.2632,313.8339 287.5321,314.9073 287.6944,316.0019 287.7487,317.1072 287.6944,318.2125 287.5321,319.3071 287.2632,320.3805 286.8904,321.4225 286.4173,322.4228 285.8483,323.372 285.1891,324.2608 284.446,325.0808 283.6261,325.8239 282.7372,326.4831 281.7881,327.052 280.7877,327.5251 279.7458,327.898 278.6723,328.1668 277.5777,328.3292 276.4724,328.3835 275.3672,328.3292 274.2725,328.1668 273.1991,327.898 272.1572,327.5251 271.1568,327.052 270.2077,326.4831 269.3188,325.8239 268.4989,325.0808 267.7557,324.2608 267.0965,323.372 266.5276,322.4228 266.0545,321.4225 265.6817,320.3805 265.4128,319.3071 265.2504,318.2125 265.1961,317.1072 265.2504,316.0019 265.4128,314.9073 265.6817,313.8339 266.0545,312.7919 266.5276,311.7916 267.0965,310.8424 267.7557,309.9536 268.4989,309.1336 269.3188,308.3905 270.2077,307.7313 271.1568,307.1624 272.1572,306.6892"/>
    <polygon points="276.3492,294.4675 276.6257,294.8404 276.8644,295.2385 277.0628,295.6581 277.2192,296.0952 277.332,296.5454 277.4001,297.0046 277.4229,297.4682 277.4001,297.9318 277.332,298.391 277.2192,298.8412 277.0628,299.2783 276.8644,299.6979 276.6257,300.096 276.3492,300.4689 276.0375,300.8128 275.6936,301.1245 275.3207,301.401 274.9226,301.6397 274.503,301.8381 274.066,301.9945 273.6157,302.1073 273.1565,302.1754 272.6929,302.1982 272.2293,302.1754 271.7701,302.1073 271.3199,301.9945 270.8828,301.8381 270.4632,301.6397 270.0651,301.401 269.6923,301.1245 269.3483,300.8128 269.0366,300.4689 268.7601,300.096 268.5214,299.6979 268.323,299.2783 268.1666,298.8412 268.0538,298.391 267.9857,297.9318 267.9629,297.4682 267.9857,297.0046 268.0538,296.5454 268.1666,296.0952 268.323,295.6581 268.5214,295.2385 268.7601,294.8404 269.0366,294.4675 269.3483,294.1236 269.6923,293.8119 270.0651,293.5354 270.4632,293.2967 270.8828,293.0983 271.3199,292.9419 271.7701,292.8291 272.2293,292.761 272.6929,292.7382 273.1565,292.761 273.6157,292.8291 274.066,292.9419 274.503,293.0983 274.9226,293.2967 275.3207,293.5354 275.6936,293.8119 276.0375,294.1236"/>
    <polygon points="275.3207,280.4427 274.9226,280.2041 274.503,280.0056 274.066,279.8492 273.6157,279.7364 273.1565,279.6683 272.6929,279.6456 272.2293,279.6683 271.7701,279.7364 271.3199,279.8492 270.8828,280.0056 270.4632,280.2041 270.0651,280.4427 269.6923,280.7192 269.3483,281.0309 269.0366,281.3749 268.7601,281.7477 268.5214,282.1458 268.323,282.5654 268.1666,283.0025 268.0538,283.4528 267.9857,283.9119 267.9629,284.3755 267.9857,284.8391 268.0538,285.2983 268.1666,285.7486 268.323,286.1856 268.5214,286.6052 268.7601,287.0034 269.0366,287.3762 269.3483,287.7201 269.6923,288.0318 270.0651,288.3084 270.4632,288.547 270.8828,288.7455 271.3199,288.9018 271.7701,289.0146 272.2293,289.0827 272.6929,289.1055 273.1565,289.0827 273.6157,289.0146 274.066,288.9018 274.503,288.7455 274.9226,288.547 275.3207,288.3084 275.6936,288.0318 276.0375,287.7201 276.3492,287.3762 276.6257,287.0034 276.8644,286.6052 277.0628,286.1856 277.2192,285.7486 277.332,285.2983 277.4001,284.8391 277.4229,284.3755 277.4001,283.9119 277.332,283.4528 277.2192,283.0025 277.0628,282.5654 276.8644,282.1458 276.6257,281.7477 276.3492,281.3749 276.0375,281.0309 275.6936,280.7192"/>
    <polygon points="277.0628,273.0929 277.2192,272.6559 277.332,272.2056 277.4001,271.7465 277.4229,271.2829 277.4001,270.8192 277.332,270.3601 277.2192,269.9098 277.0628,269.4728 276.8644,269.0532 276.6257,268.655 276.3492,268.2822 276.0375,267.9383 275.6936,267.6265 275.3207,267.35 274.9226,267.1114 274.503,266.9129 274.066,266.7566 273.6157,266.6438 273.1565,266.5757 272.6929,266.5529 272.2293,266.5757 271.7701,266.6438 271.3199,266.7566 270.8828,266.9129 270.4632,267.1114 270.0651,267.35 269.6923,267.6265 269.3483,267.9383 269.0366,268.2822 268.7601,268.655 268.5214,269.0532 268.323,269.4728 268.1666,269.9098 268.0538,270.3601 267.9857,270.8192 267.9629,271.2829 267.9857,271.7465 268.0538,272.2056 268.1666,272.6559 268.323,273.0929 268.5214,273.5126 268.7601,273.9107 269.0366,274.2835 269.3483,274.6275 269.6923,274.9392 270.0651,275.2157 270.4632,275.4543 270.8828,275.6528 271.3199,275.8092 271.7701,275.9219 272.2293,275.9901 272.6929,276.0128 273.1565,275.9901 273.6157,275.9219 274.066,275.8092 274.503,275.6528 274.9226,275.4543 275.3207,275.2157 275.6936,274.9392 276.0375,274.6275 276.3492,274.2835 276.6257,273.9107 276.8644,273.5126"/>
    <polygon points="255.9952,288.8888 254.9005,289.0512 253.7953,289.1055 252.69,289.0512 251.5954,288.8888 250.5219,288.6199 249.48,288.2471 248.4797,287.774 247.5305,287.2051 246.6417,286.5459 245.8217,285.8027 245.0786,284.9828 244.4194,284.094 243.8505,283.1448 243.3773,282.1445 243.0045,281.1025 242.7356,280.0291 242.5733,278.9345 242.519,277.8292 242.5733,276.7239 242.7356,275.6293 243.0045,274.5559 243.3773,273.5139 243.8505,272.5136 244.4194,271.5644 245.0786,270.6756 245.8217,269.8556 246.6417,269.1125 247.5305,268.4533 248.4797,267.8844 249.48,267.4112 250.5219,267.0384 251.5954,266.7696 252.69,266.6072 253.7953,266.5529 254.9005,266.6072 255.9952,266.7696 257.0686,267.0384 258.1105,267.4112 259.1109,267.8844 260.0601,268.4533 260.9489,269.1125 261.7688,269.8556 262.512,270.6756 263.1712,271.5644 263.7401,272.5136 264.2132,273.5139 264.586,274.5559 264.8549,275.6293 265.0173,276.7239 265.0716,277.8292 265.0173,278.9345 264.8549,280.0291 264.586,281.1025 264.2132,282.1445 263.7401,283.1448 263.1712,284.094 262.512,284.9828 261.7688,285.8027 260.9489,286.5459 260.0601,287.2051 259.1109,287.774 258.1105,288.2471 257.0686,288.6199"/>
    <polygon points="242.519,304.0145 242.5733,302.9093 242.7356,301.8146 243.0045,300.7412 243.3773,299.6993 243.8505,298.6989 244.4194,297.7498 245.0786,296.8609 245.8217,296.041 246.6417,295.2978 247.5305,294.6386 248.4797,294.0697 249.48,293.5966 250.5219,293.2238 251.5954,292.9549 252.69,292.7925 253.7953,292.7382 254.9005,292.7925 255.9952,292.9549 257.0686,293.2238 258.1105,293.5966 259.1109,294.0697 260.0601,294.6386 260.9489,295.2978 261.7688,296.041 262.512,296.8609 263.1712,297.7498 263.7401,298.6989 264.2132,299.6993 264.586,300.7412 264.8549,301.8146 265.0173,302.9093 265.0716,304.0145 265.0173,305.1198 264.8549,306.2144 264.586,307.2879 264.2132,308.3298 263.7401,309.3301 263.1712,310.2793 262.512,311.1681 261.7688,311.9881 260.9489,312.7312 260.0601,313.3904 259.1109,313.9593 258.1105,314.4325 257.0686,314.8053 255.9952,315.0742 254.9005,315.2365 253.7953,315.2908 252.69,315.2365 251.5954,315.0742 250.5219,314.8053 249.48,314.4325 248.4797,313.9593 247.5305,313.3904 246.6417,312.7312 245.8217,311.9881 245.0786,311.1681 244.4194,310.2793 243.8505,309.3301 243.3773,308.3298 243.0045,307.2879 242.7356,306.2144 242.5733,305.1198"/>
    <polygon points="247.5305,320.824 248.4797,320.2551 249.48,319.7819 250.5219,319.4091 251.5954,319.1402 252.69,318.9779 253.7953,318.9236 254.9005,318.9779 255.9952,319.1402 257.0686,319.4091 258.1105,319.7819 259.1109,320.2551 260.0601,320.824 260.9489,321.4832 261.7688,322.2263 262.512,323.0463 263.1712,323.9351 263.7401,324.8843 264.2132,325.8846 264.586,326.9265 264.8549,328.0 265.0173,329.0946 265.0716,330.1999 265.0173,331.3051 264.8549,332.3998 264.586,333.4732 264.2132,334.5151 263.7401,335.5155 263.1712,336.4646 262.512,337.3535 261.7688,338.1734 260.9489,338.9166 260.0601,339.5758 259.1109,340.1447 258.1105,340.6178 257.0686,340.9906 255.9952,341.2595 254.9005,341.4219 253.7953,341.4762 252.69,341.4219 251.5954,341.2595 250.5219,340.9906 249.48,340.6178 248.4797,340.1447 247.5305,339.5758 246.6417,338.9166 245.8217,338.1734 245.0786,337.3535 244.4194,336.4646 243.8505,335.5155 243.3773,334.5151 243.0045,333.4732 242.7356,332.3998 242.5733,331.3051 242.519,330.1999 242.5733,329.0946 242.7356,328.0 243.0045,326.9265 243.3773,325.8846 243.8505,324.8843 244.4194,323.9351 245.0786,323.0463 245.8217,322.2263 246.6417,321.4832"/>
    <polygon points="253.9486,360.3037 254.1872,360.7018 254.3857,361.1215 254.542,361.5585 254.6548,362.0088 254.7229,362.4679 254.7457,362.9315 254.7229,363.3952 254.6548,363.8543 254.542,364.3046 254.3857,364.7416 254.1872,365.1612 253.9486,365.5594 253.6721,365.9322 253.3603,366.2761 253.0164,366.5879 252.6436,366.8644 252.2454,367.103 251.8258,367.3015 251.3888,367.4578 250.9385,367.5706 250.4794,367.6387 250.0157,367.6615 249.5521,367.6387 249.093,367.5706 248.6427,367.4578 248.2057,367.3015 247.7861,367.103 247.3879,366.8644 247.0151,366.5879 246.6712,366.2761 246.3594,365.9322 246.0829,365.5594 245.8443,365.1612 245.6458,364.7416 245.4894,364.3046 245.3767,363.8543 245.3086,363.3952 245.2858,362.9315 245.3086,362.4679 245.3767,362.0088 245.4894,361.5585 245.6458,361.1215 245.8443,360.7018 246.0829,360.3037 246.3594,359.9309 246.6712,359.5869 247.0151,359.2752 247.3879,358.9987 247.7861,358.7601 248.2057,358.5616 248.6427,358.4052 249.093,358.2924 249.5521,358.2243 250.0157,358.2016 250.4794,358.2243 250.9385,358.2924 251.3888,358.4052 251.8258,358.5616 252.2454,358.7601 252.6436,358.9987 253.0164,359.2752 253.3603,359.5869 253.6721,359.9309"/>
    <polygon points="245.6458,351.6489 245.4894,351.2119 245.3767,350.7616 245.3086,350.3025 245.2858,349.8389 245.3086,349.3752 245.3767,348.9161 245.4894,348.4658 245.6458,348.0288 245.8443,347.6092 246.0829,347.211 246.3594,346.8382 246.6712,346.4943 247.0151,346.1825 247.3879,345.906 247.7861,345.6674 248.2057,345.4689 248.6427,345.3126 249.093,345.1998 249.5521,345.1317 250.0157,345.1089 250.4794,345.1317 250.9385,345.1998 251.3888,345.3126 251.8258,345.4689 252.2454,345.6674 252.6436,345.906 253.0164,346.1825 253.3603,346.4943 253.6721,346.8382 253.9486,347.211 254.1872,347.6092 254.3857,348.0288 254.542,348.4658 254.6548,348.9161 254.7229,349.3752 254.7457,349.8389 254.7229,350.3025 254.6548,350.7616 254.542,351.2119 254.3857,351.6489 254.1872,352.0686 253.9486,352.4667 253.6721,352.8395 253.3603,353.1835 253.0164,353.4952 252.6436,353.7717 252.2454,354.0103 251.8258,354.2088 251.3888,354.3652 250.9385,354.478 250.4794,354.5461 250.0157,354.5688 249.5521,354.5461 249.093,354.478 248.6427,354.3652 248.2057,354.2088 247.7861,354.0103 247.3879,353.7717 247.0151,353.4952 246.6712,353.1835 246.3594,352.8395 246.0829,352.4667 245.8443,352.0686"/>
    <polygon points="234.7443,340.6647 235.0208,340.2919 235.3326,339.9479 235.6765,339.6362 236.0493,339.3597 236.4475,339.1211 236.8671,338.9226 237.3041,338.7662 237.7544,338.6534 238.2135,338.5853 238.6772,338.5626 239.1408,338.5853 239.5999,338.6534 240.0502,338.7662 240.4872,338.9226 240.9069,339.1211 241.305,339.3597 241.6778,339.6362 242.0218,339.9479 242.3335,340.2919 242.61,340.6647 242.8486,341.0628 243.0471,341.4825 243.2035,341.9195 243.3163,342.3698 243.3844,342.8289 243.4071,343.2925 243.3844,343.7562 243.3163,344.2153 243.2035,344.6656 243.0471,345.1026 242.8486,345.5222 242.61,345.9204 242.3335,346.2932 242.0218,346.6371 241.6778,346.9489 241.305,347.2254 240.9069,347.464 240.4872,347.6625 240.0502,347.8188 239.5999,347.9316 239.1408,347.9997 238.6772,348.0225 238.2135,347.9997 237.7544,347.9316 237.3041,347.8188 236.8671,347.6625 236.4475,347.464 236.0493,347.2254 235.6765,346.9489 235.3326,346.6371 235.0208,346.2932 234.7443,345.9204 234.5057,345.5222 234.3072,345.1026 234.1509,344.6656 234.0381,344.2153 233.97,343.7562 233.9472,343.2925 233.97,342.8289 234.0381,342.3698 234.1509,341.9195 234.3072,341.4825 234.5057,341.0628"/>
    <polygon points="231.2714,339.374 230.9949,339.7469 230.6832,340.0908 230.3392,340.4025 229.9664,340.679 229.5683,340.9177 229.1487,341.1161 228.7116,341.2725 228.2614,341.3853 227.8022,341.4534 227.3386,341.4762 226.875,341.4534 226.4158,341.3853 225.9655,341.2725 225.5285,341.1161 225.1089,340.9177 224.7108,340.679 224.3379,340.4025 223.994,340.0908 223.6823,339.7469 223.4058,339.374 223.1671,338.9759 222.9687,338.5563 222.8123,338.1192 222.6995,337.669 222.6314,337.2098 222.6086,336.7462 222.6314,336.2826 222.6995,335.8234 222.8123,335.3732 222.9687,334.9361 223.1671,334.5165 223.4058,334.1184 223.6823,333.7455 223.994,333.4016 224.3379,333.0899 224.7108,332.8134 225.1089,332.5747 225.5285,332.3763 225.9655,332.2199 226.4158,332.1071 226.875,332.039 227.3386,332.0162 227.8022,332.039 228.2614,332.1071 228.7116,332.2199 229.1487,332.3763 229.5683,332.5747 229.9664,332.8134 230.3392,333.0899 230.6832,333.4016 230.9949,333.7455 231.2714,334.1184 231.51,334.5165 231.7085,334.9361 231.8649,335.3732 231.9777,335.8234 232.0458,336.2826 232.0686,336.7462 232.0458,337.2098 231.9777,337.669 231.8649,338.1192 231.7085,338.5563 231.51,338.9759"/>
    <polygon points="222.6086,323.6535 222.6314,323.1899 222.6995,322.7308 222.8123,322.2805 222.9687,321.8434 223.1671,321.4238 223.4058,321.0257 223.6823,320.6529 223.994,320.3089 224.3379,319.9972 224.7108,319.7207 225.1089,319.4821 225.5285,319.2836 225.9655,319.1272 226.4158,319.0144 226.875,318.9463 227.3386,318.9236 227.8022,318.9463 228.2614,319.0144 228.7116,319.1272 229.1487,319.2836 229.5683,319.4821 229.9664,319.7207 230.3392,319.9972 230.6832,320.3089 230.9949,320.6529 231.2714,321.0257 231.51,321.4238 231.7085,321.8434 231.8649,322.2805 231.9777,322.7308 232.0458,323.1899 232.0686,323.6535 232.0458,324.1172 231.9777,324.5763 231.8649,325.0266 231.7085,325.4636 231.51,325.8832 231.2714,326.2814 230.9949,326.6542 230.6832,326.9981 230.3392,327.3098 229.9664,327.5864 229.5683,327.825 229.1487,328.0235 228.7116,328.1798 228.2614,328.2926 227.8022,328.3607 227.3386,328.3835 226.875,328.3607 226.4158,328.2926 225.9655,328.1798 225.5285,328.0235 225.1089,327.825 224.7108,327.5864 224.3379,327.3098 223.994,326.9981 223.6823,326.6542 223.4058,326.2814 223.1671,325.8832 222.9687,325.4636 222.8123,325.0266 222.6995,324.5763 222.6314,324.1172"/>
    <polygon points="223.0739,314.2415 220.7542,314.8226 218.3886,315.1735 216.0,315.2908 213.6114,315.1735 211.2458,314.8226 208.9261,314.2415 206.6744,313.4359 204.5125,312.4134 202.4613,311.1839 200.5405,309.7593 198.7685,308.1533 197.1625,306.3814 195.7379,304.4605 194.5085,302.4093 193.486,300.2475 192.6803,297.9958 192.0993,295.676 191.7484,293.3104 191.631,290.9219 191.7484,288.5333 192.0993,286.1677 192.6803,283.8479 193.486,281.5963 194.5085,279.4344 195.7379,277.3832 197.1625,275.4623 198.7685,273.6904 200.5405,272.0844 202.4613,270.6598 204.5125,269.4303 206.6744,268.4079 208.9261,267.6022 211.2458,267.0211 213.6114,266.6702 216.0,266.5529 218.3886,266.6702 220.7542,267.0211 223.0739,267.6022 225.3256,268.4079 227.4875,269.4303 229.5387,270.6598 231.4595,272.0844 233.2315,273.6904 234.8375,275.4623 236.2621,277.3832 237.4915,279.4344 238.514,281.5963 239.3197,283.8479 239.9007,286.1677 240.2516,288.5333 240.369,290.9219 240.2516,293.3104 239.9007,295.676 239.3197,297.9958 238.514,300.2475 237.4915,302.4093 236.2621,304.4605 234.8375,306.3814 233.2315,308.1533 231.4595,309.7593 229.5387,311.1839 227.4875,312.4134 225.3256,313.4359"/>
    <polygon points="205.125,345.1317 205.5842,345.1998 206.0345,345.3126 206.4715,345.4689 206.8911,345.6674 207.2892,345.906 207.6621,346.1825 208.006,346.4943 208.3177,346.8382 208.5942,347.211 208.8329,347.6092 209.0313,348.0288 209.1877,348.4658 209.3005,348.9161 209.3686,349.3752 209.3914,349.8389 209.3686,350.3025 209.3005,350.7616 209.1877,351.2119 209.0313,351.6489 208.8329,352.0686 208.5942,352.4667 208.3177,352.8395 208.006,353.1835 207.6621,353.4952 207.2892,353.7717 206.8911,354.0103 206.4715,354.2088 206.0345,354.3652 205.5842,354.478 205.125,354.5461 204.6614,354.5688 204.1978,354.5461 203.7386,354.478 203.2884,354.3652 202.8513,354.2088 202.4317,354.0103 202.0336,353.7717 201.6608,353.4952 201.3168,353.1835 201.0051,352.8395 200.7286,352.4667 200.49,352.0686 200.2915,351.6489 200.1351,351.2119 200.0223,350.7616 199.9542,350.3025 199.9314,349.8389 199.9542,349.3752 200.0223,348.9161 200.1351,348.4658 200.2915,348.0288 200.49,347.6092 200.7286,347.211 201.0051,346.8382 201.3168,346.4943 201.6608,346.1825 202.0336,345.906 202.4317,345.6674 202.8513,345.4689 203.2884,345.3126 203.7386,345.1998 204.1978,345.1317 204.6614,345.1089"/>
    <polygon points="202.1762,339.5758 201.2873,338.9166 200.4674,338.1734 199.7242,337.3535 199.065,336.4646 198.4961,335.5155 198.023,334.5151 197.6502,333.4732 197.3813,332.3998 197.2189,331.3051 197.1646,330.1999 197.2189,329.0946 197.3813,328.0 197.6502,326.9265 198.023,325.8846 198.4961,324.8843 199.065,323.9351 199.7242,323.0463 200.4674,322.2263 201.2873,321.4832 202.1762,320.824 203.1253,320.2551 204.1257,319.7819 205.1676,319.4091 206.241,319.1402 207.3357,318.9779 208.4409,318.9236 209.5462,318.9779 210.6408,319.1402 211.7143,319.4091 212.7562,319.7819 213.7566,320.2551 214.7057,320.824 215.5946,321.4832 216.4145,322.2263 217.1576,323.0463 217.8169,323.9351 218.3858,324.8843 218.8589,325.8846 219.2317,326.9265 219.5006,328.0 219.663,329.0946 219.7173,330.1999 219.663,331.3051 219.5006,332.3998 219.2317,333.4732 218.8589,334.5151 218.3858,335.5155 217.8169,336.4646 217.1576,337.3535 216.4145,338.1734 215.5946,338.9166 214.7057,339.5758 213.7566,340.1447 212.7562,340.6178 211.7143,340.9906 210.6408,341.2595 209.5462,341.4219 208.4409,341.4762 207.3357,341.4219 206.241,341.2595 205.1676,340.9906 204.1257,340.6178 203.1253,340.1447"/>
    <polygon points="189.0371,327.898 187.9637,328.1668 186.8691,328.3292 185.7638,328.3835 184.6585,328.3292 183.5639,328.1668 182.4904,327.898 181.4485,327.5251 180.4482,327.052 179.499,326.4831 178.6102,325.8239 177.7902,325.0808 177.0471,324.2608 176.3879,323.372 175.819,322.4228 175.3458,321.4225 174.973,320.3805 174.7041,319.3071 174.5418,318.2125 174.4875,317.1072 174.5418,316.0019 174.7041,314.9073 174.973,313.8339 175.3458,312.7919 175.819,311.7916 176.3879,310.8424 177.0471,309.9536 177.7902,309.1336 178.6102,308.3905 179.499,307.7313 180.4482,307.1624 181.4485,306.6892 182.4904,306.3164 183.5639,306.0476 184.6585,305.8852 185.7638,305.8309 186.8691,305.8852 187.9637,306.0476 189.0371,306.3164 190.079,306.6892 191.0794,307.1624 192.0286,307.7313 192.9174,308.3905 193.7373,309.1336 194.4805,309.9536 195.1397,310.8424 195.7086,311.7916 196.1817,312.7919 196.5545,313.8339 196.8234,314.9073 196.9858,316.0019 197.0401,317.1072 196.9858,318.2125 196.8234,319.3071 196.5545,320.3805 196.1817,321.4225 195.7086,322.4228 195.1397,323.372 194.4805,324.2608 193.7373,325.0808 192.9174,325.8239 192.0286,326.4831 191.0794,327.052 190.079,327.5251"/>
    <polygon points="169.2726,325.6736 169.7229,325.5608 170.1821,325.4927 170.6457,325.4699 171.1093,325.4927 171.5684,325.5608 172.0187,325.6736 172.4558,325.8299 172.8754,326.0284 173.2735,326.267 173.6463,326.5435 173.9903,326.8553 174.302,327.1992 174.5785,327.572 174.8171,327.9702 175.0156,328.3898 175.172,328.8268 175.2848,329.2771 175.3529,329.7362 175.3756,330.1999 175.3529,330.6635 175.2848,331.1226 175.172,331.5729 175.0156,332.0099 174.8171,332.4296 174.5785,332.8277 174.302,333.2005 173.9903,333.5445 173.6463,333.8562 173.2735,334.1327 172.8754,334.3713 172.4558,334.5698 172.0187,334.7262 171.5684,334.839 171.1093,334.9071 170.6457,334.9298 170.1821,334.9071 169.7229,334.839 169.2726,334.7262 168.8356,334.5698 168.416,334.3713 168.0178,334.1327 167.645,333.8562 167.3011,333.5445 166.9894,333.2005 166.7128,332.8277 166.4742,332.4296 166.2757,332.0099 166.1194,331.5729 166.0066,331.1226 165.9385,330.6635 165.9157,330.1999 165.9385,329.7362 166.0066,329.2771 166.1194,328.8268 166.2757,328.3898 166.4742,327.9702 166.7128,327.572 166.9894,327.1992 167.3011,326.8553 167.645,326.5435 168.0178,326.267 168.416,326.0284 168.8356,325.8299"/>
    <polygon points="164.0143,323.1899 164.0371,323.6535 164.0143,324.1172 163.9462,324.5763 163.8334,325.0266 163.677,325.4636 163.4786,325.8832 163.2399,326.2814 162.9634,326.6542 162.6517,326.9981 162.3077,327.3098 161.9349,327.5864 161.5368,327.825 161.1172,328.0235 160.6801,328.1798 160.2299,328.2926 159.7707,328.3607 159.3071,328.3835 158.8435,328.3607 158.3843,328.2926 157.934,328.1798 157.497,328.0235 157.0774,327.825 156.6793,327.5864 156.3064,327.3098 155.9625,326.9981 155.6508,326.6542 155.3743,326.2814 155.1356,325.8832 154.9372,325.4636 154.7808,325.0266 154.668,324.5763 154.5999,324.1172 154.5771,323.6535 154.5999,323.1899 154.668,322.7308 154.7808,322.2805 154.9372,321.8434 155.1356,321.4238 155.3743,321.0257 155.6508,320.6529 155.9625,320.3089 156.3064,319.9972 156.6793,319.7207 157.0774,319.4821 157.497,319.2836 157.934,319.1272 158.3843,319.0144 158.8435,318.9463 159.3071,318.9236 159.7707,318.9463 160.2299,319.0144 160.6801,319.1272 161.1172,319.2836 161.5368,319.4821 161.9349,319.7207 162.3077,319.9972 162.6517,320.3089 162.9634,320.6529 163.2399,321.0257 163.4786,321.4238 163.677,321.8434 163.8334,322.2805 163.9462,322.7308"/>
    <polygon points="151.6248,320.1079 151.3131,320.4518 150.9692,320.7635 150.5963,321.04 150.1982,321.2787 149.7786,321.4771 149.3415,321.6335 148.8913,321.7463 148.4321,321.8144 147.9685,321.8372 147.5049,321.8144 147.0457,321.7463 146.5955,321.6335 146.1584,321.4771 145.7388,321.2787 145.3407,321.04 144.9678,320.7635 144.6239,320.4518 144.3122,320.1079 144.0357,319.735 143.797,319.3369 143.5986,318.9173 143.4422,318.4802 143.3294,318.03 143.2613,317.5708 143.2385,317.1072 143.2613,316.6436 143.3294,316.1844 143.4422,315.7342 143.5986,315.2971 143.797,314.8775 144.0357,314.4794 144.3122,314.1065 144.6239,313.7626 144.9678,313.4509 145.3407,313.1744 145.7388,312.9357 146.1584,312.7373 146.5955,312.5809 147.0457,312.4681 147.5049,312.4 147.9685,312.3772 148.4321,312.4 148.8913,312.4681 149.3415,312.5809 149.7786,312.7373 150.1982,312.9357 150.5963,313.1744 150.9692,313.4509 151.3131,313.7626 151.6248,314.1065 151.9013,314.4794 152.14,314.8775 152.3384,315.2971 152.4948,315.7342 152.6076,316.1844 152.6757,316.6436 152.6985,317.1072 152.6757,317.5708 152.6076,318.03 152.4948,318.4802 152.3384,318.9173 152.14,319.3369 151.9013,319.735"/>
    <polygon points="121.635,261.7359 121.9467,261.3919 122.2907,261.0802 122.6635,260.8037 123.0616,260.5651 123.4813,260.3666 123.9183,260.2102 124.3686,260.0974 124.8277,260.0293 125.2913,260.0066 125.755,260.0293 126.2141,260.0974 126.6644,260.2102 127.1014,260.3666 127.521,260.5651 127.9192,260.8037 128.292,261.0802 128.6359,261.3919 128.9477,261.7359 129.2242,262.1087 129.4628,262.5068 129.6613,262.9264 129.8176,263.3635 129.9304,263.8138 129.9985,264.2729 130.0213,264.7365 129.9985,265.2001 129.9304,265.6593 129.8176,266.1096 129.6613,266.5466 129.4628,266.9662 129.2242,267.3644 128.9477,267.7372 128.6359,268.0811 128.292,268.3928 127.9192,268.6694 127.521,268.908 127.1014,269.1065 126.6644,269.2628 126.2141,269.3756 125.755,269.4437 125.2913,269.4665 124.8277,269.4437 124.3686,269.3756 123.9183,269.2628 123.4813,269.1065 123.0616,268.908 122.6635,268.6694 122.2907,268.3928 121.9467,268.0811 121.635,267.7372 121.3585,267.3644 121.1199,266.9662 120.9214,266.5466 120.765,266.1096 120.6523,265.6593 120.5841,265.2001 120.5614,264.7365 120.5841,264.2729 120.6523,263.8138 120.765,263.3635 120.9214,262.9264 121.1199,262.5068 121.3585,262.1087"/>
    <polygon points="131.9908,259.113 131.9227,258.6538 131.8999,258.1902 131.9227,257.7266 131.9908,257.2674 132.1036,256.8172 132.26,256.3801 132.4585,255.9605 132.6971,255.5624 132.9736,255.1895 133.2853,254.8456 133.6293,254.5339 134.0021,254.2574 134.4002,254.0187 134.8198,253.8203 135.2569,253.6639 135.7071,253.5511 136.1663,253.483 136.6299,253.4602 137.0935,253.483 137.5527,253.5511 138.003,253.6639 138.44,253.8203 138.8596,254.0187 139.2578,254.2574 139.6306,254.5339 139.9745,254.8456 140.2862,255.1895 140.5627,255.5624 140.8014,255.9605 140.9998,256.3801 141.1562,256.8172 141.269,257.2674 141.3371,257.7266 141.3599,258.1902 141.3371,258.6538 141.269,259.113 141.1562,259.5632 140.9998,260.0003 140.8014,260.4199 140.5627,260.818 140.2862,261.1909 139.9745,261.5348 139.6306,261.8465 139.2578,262.123 138.8596,262.3617 138.44,262.5601 138.003,262.7165 137.5527,262.8293 137.0935,262.8974 136.6299,262.9202 136.1663,262.8974 135.7071,262.8293 135.2569,262.7165 134.8198,262.5601 134.4002,262.3617 134.0021,262.123 133.6293,261.8465 133.2853,261.5348 132.9736,261.1909 132.6971,260.818 132.4585,260.4199 132.26,260.0003 132.1036,259.5632"/>
    <polygon points="143.3294,250.7211 143.4422,250.2708 143.5986,249.8338 143.797,249.4142 144.0357,249.016 144.3122,248.6432 144.6239,248.2993 144.9678,247.9875 145.3407,247.711 145.7388,247.4724 146.1584,247.2739 146.5955,247.1176 147.0457,247.0048 147.5049,246.9367 147.9685,246.9139 148.4321,246.9367 148.8913,247.0048 149.3415,247.1176 149.7786,247.2739 150.1982,247.4724 150.5963,247.711 150.9692,247.9875 151.3131,248.2993 151.6248,248.6432 151.9013,249.016 152.14,249.4142 152.3384,249.8338 152.4948,250.2708 152.6076,250.7211 152.6757,251.1802 152.6985,251.6439 152.6757,252.1075 152.6076,252.5666 152.4948,253.0169 152.3384,253.4539 152.14,253.8736 151.9013,254.2717 151.6248,254.6445 151.3131,254.9885 150.9692,255.3002 150.5963,255.5767 150.1982,255.8153 149.7786,256.0138 149.3415,256.1702 148.8913,256.2829 148.4321,256.3511 147.9685,256.3738 147.5049,256.3511 147.0457,256.2829 146.5955,256.1702 146.1584,256.0138 145.7388,255.8153 145.3407,255.5767 144.9678,255.3002 144.6239,254.9885 144.3122,254.6445 144.0357,254.2717 143.797,253.8736 143.5986,253.4539 143.4422,253.0169 143.3294,252.5666 143.2613,252.1075 143.2385,251.6439 143.2613,251.1802"/>
    <polygon points="163.9462,257.2674 163.8334,256.8172 163.677,256.3801 163.4786,255.9605 163.2399,255.5624 162.9634,255.1895 162.6517,254.8456 162.3077,254.5339 161.9349,254.2574 161.5368,254.0187 161.1172,253.8203 160.6801,253.6639 160.2299,253.5511 159.7707,253.483 159.3071,253.4602 158.8435,253.483 158.3843,253.5511 157.934,253.6639 157.497,253.8203 157.0774,254.0187 156.6793,254.2574 156.3064,254.5339 155.9625,254.8456 155.6508,255.1895 155.3743,255.5624 155.1356,255.9605 154.9372,256.3801 154.7808,256.8172 154.668,257.2674 154.5999,257.7266 154.5771,258.1902 154.5999,258.6538 154.668,259.113 154.7808,259.5632 154.9372,260.0003 155.1356,260.4199 155.3743,260.818 155.6508,261.1909 155.9625,261.5348 156.3064,261.8465 156.6793,262.123 157.0774,262.3617 157.497,262.5601 157.934,262.7165 158.3843,262.8293 158.8435,262.8974 159.3071,262.9202 159.7707,262.8974 160.2299,262.8293 160.6801,262.7165 161.1172,262.5601 161.5368,262.3617 161.9349,262.123 162.3077,261.8465 162.6517,261.5348 162.9634,261.1909 163.2399,260.818 163.4786,260.4199 163.677,260.0003 163.8334,259.5632 163.9462,259.113 164.0143,258.6538 164.0371,258.1902 164.0143,257.7266"/>
    <polygon points="161.9349,275.2157 162.3077,274.9392 162.6517,274.6275 162.9634,274.2835 163.2399,273.9107 163.4786,273.5126 163.677,273.0929 163.8334,272.6559 163.9462,272.2056 164.0143,271.7465 164.0371,271.2829 164.0143,270.8192 163.9462,270.3601 163.8334,269.9098 163.677,269.4728 163.4786,269.0532 163.2399,268.655 162.9634,268.2822 162.6517,267.9383 162.3077,267.6265 161.9349,267.35 161.5368,267.1114 161.1172,266.9129 160.6801,266.7566 160.2299,266.6438 159.7707,266.5757 159.3071,266.5529 158.8435,266.5757 158.3843,266.6438 157.934,266.7566 157.497,266.9129 157.0774,267.1114 156.6793,267.35 156.3064,267.6265 155.9625,267.9383 155.6508,268.2822 155.3743,268.655 155.1356,269.0532 154.9372,269.4728 154.7808,269.9098 154.668,270.3601 154.5999,270.8192 154.5771,271.2829 154.5999,271.7465 154.668,272.2056 154.7808,272.6559 154.9372,273.0929 155.1356,273.5126 155.3743,273.9107 155.6508,274.2835 155.9625,274.6275 156.3064,274.9392 156.6793,275.2157 157.0774,275.4543 157.497,275.6528 157.934,275.8092 158.3843,275.9219 158.8435,275.9901 159.3071,276.0128 159.7707,275.9901 160.2299,275.9219 160.6801,275.8092 161.1172,275.6528 161.5368,275.4543"/>
    <polygon points="174.5418,263.6313 174.7041,262.5366 174.973,261.4632 175.3458,260.4213 175.819,259.4209 176.3879,258.4717 177.0471,257.5829 177.7902,256.763 178.6102,256.0198 179.499,255.3606 180.4482,254.7917 181.4485,254.3186 182.4904,253.9458 183.5639,253.6769 184.6585,253.5145 185.7638,253.4602 186.8691,253.5145 187.9637,253.6769 189.0371,253.9458 190.079,254.3186 191.0794,254.7917 192.0286,255.3606 192.9174,256.0198 193.7373,256.763 194.4805,257.5829 195.1397,258.4717 195.7086,259.4209 196.1817,260.4213 196.5545,261.4632 196.8234,262.5366 196.9858,263.6313 197.0401,264.7365 196.9858,265.8418 196.8234,266.9364 196.5545,268.0099 196.1817,269.0518 195.7086,270.0521 195.1397,271.0013 194.4805,271.8901 193.7373,272.7101 192.9174,273.4532 192.0286,274.1124 191.0794,274.6813 190.079,275.1545 189.0371,275.5273 187.9637,275.7962 186.8691,275.9585 185.7638,276.0128 184.6585,275.9585 183.5639,275.7962 182.4904,275.5273 181.4485,275.1545 180.4482,274.6813 179.499,274.1124 178.6102,273.4532 177.7902,272.7101 177.0471,271.8901 176.3879,271.0013 175.819,270.0521 175.3458,269.0518 174.973,268.0099 174.7041,266.9364 174.5418,265.8418 174.4875,264.7365"/>
    <polygon points="174.8171,253.8736 174.5785,254.2717 174.302,254.6445 173.9903,254.9885 173.6463,255.3002 173.2735,255.5767 172.8754,255.8153 172.4558,256.0138 172.0187,256.1702 171.5684,256.2829 171.1093,256.3511 170.6457,256.3738 170.1821,256.3511 169.7229,256.2829 169.2726,256.1702 168.8356,256.0138 168.416,255.8153 168.0178,255.5767 167.645,255.3002 167.3011,254.9885 166.9894,254.6445 166.7128,254.2717 166.4742,253.8736 166.2757,253.4539 166.1194,253.0169 166.0066,252.5666 165.9385,252.1075 165.9157,251.6439 165.9385,251.1802 166.0066,250.7211 166.1194,250.2708 166.2757,249.8338 166.4742,249.4142 166.7128,249.016 166.9894,248.6432 167.3011,248.2993 167.645,247.9875 168.0178,247.711 168.416,247.4724 168.8356,247.2739 169.2726,247.1176 169.7229,247.0048 170.1821,246.9367 170.6457,246.9139 171.1093,246.9367 171.5684,247.0048 172.0187,247.1176 172.4558,247.2739 172.8754,247.4724 173.2735,247.711 173.6463,247.9875 173.9903,248.2993 174.302,248.6432 174.5785,249.016 174.8171,249.4142 175.0156,249.8338 175.172,250.2708 175.2848,250.7211 175.3529,251.1802 175.3756,251.6439 175.3529,252.1075 175.2848,252.5666 175.172,253.0169 175.0156,253.4539"/>
    <polygon points="193.3228,243.2812 193.7865,243.2584 194.2456,243.1903 194.6959,243.0775 195.1329,242.9211 195.5525,242.7227 195.9507,242.484 196.3235,242.2075 196.6674,241.8958 196.9792,241.5519 197.2557,241.179 197.4943,240.7809 197.6928,240.3613 197.8491,239.9242 197.9619,239.474 198.03,239.0148 198.0528,238.5512 198.03,238.0876 197.9619,237.6284 197.8491,237.1782 197.6928,236.7411 197.4943,236.3215 197.2557,235.9234 196.9792,235.5505 196.6674,235.2066 196.3235,234.8949 195.9507,234.6184 195.5525,234.3797 195.1329,234.1813 194.6959,234.0249 194.2456,233.9121 193.7865,233.844 193.3228,233.8212 192.8592,233.844 192.4001,233.9121 191.9498,234.0249 191.5128,234.1813 191.0931,234.3797 190.695,234.6184 190.3222,234.8949 189.9782,235.2066 189.6665,235.5505 189.39,235.9234 189.1514,236.3215 188.9529,236.7411 188.7965,237.1782 188.6837,237.6284 188.6156,238.0876 188.5929,238.5512 188.6156,239.0148 188.6837,239.474 188.7965,239.9242 188.9529,240.3613 189.1514,240.7809 189.39,241.179 189.6665,241.5519 189.9782,241.8958 190.3222,242.2075 190.695,242.484 191.0931,242.7227 191.5128,242.9211 191.9498,243.0775 192.4001,243.1903 192.8592,243.2584"/>
    <polygon points="185.9171,242.4697 185.6406,242.0969 185.3288,241.7529 184.9849,241.4412 184.6121,241.1647 184.2139,240.9261 183.7943,240.7276 183.3573,240.5712 182.907,240.4584 182.4479,240.3903 181.9843,240.3676 181.5206,240.3903 181.0615,240.4584 180.6112,240.5712 180.1742,240.7276 179.7546,240.9261 179.3564,241.1647 178.9836,241.4412 178.6397,241.7529 178.3279,242.0969 178.0514,242.4697 177.8128,242.8678 177.6143,243.2874 177.458,243.7245 177.3452,244.1748 177.2771,244.6339 177.2543,245.0975 177.2771,245.5611 177.3452,246.0203 177.458,246.4706 177.6143,246.9076 177.8128,247.3272 178.0514,247.7254 178.3279,248.0982 178.6397,248.4421 178.9836,248.7538 179.3564,249.0304 179.7546,249.269 180.1742,249.4675 180.6112,249.6238 181.0615,249.7366 181.5206,249.8047 181.9843,249.8275 182.4479,249.8047 182.907,249.7366 183.3573,249.6238 183.7943,249.4675 184.2139,249.269 184.6121,249.0304 184.9849,248.7538 185.3288,248.4421 185.6406,248.0982 185.9171,247.7254 186.1557,247.3272 186.3542,246.9076 186.5106,246.4706 186.6233,246.0203 186.6914,245.5611 186.7142,245.0975 186.6914,244.6339 186.6233,244.1748 186.5106,243.7245 186.3542,243.2874 186.1557,242.8678"/>
    <polygon points="177.3452,231.0821 177.2771,231.5412 177.2543,232.0049 177.2771,232.4685 177.3452,232.9276 177.458,233.3779 177.6143,233.8149 177.8128,234.2346 178.0514,234.6327 178.3279,235.0055 178.6397,235.3495 178.9836,235.6612 179.3564,235.9377 179.7546,236.1763 180.1742,236.3748 180.6112,236.5312 181.0615,236.6439 181.5206,236.7121 181.9843,236.7348 182.4479,236.7121 182.907,236.6439 183.3573,236.5312 183.7943,236.3748 184.2139,236.1763 184.6121,235.9377 184.9849,235.6612 185.3288,235.3495 185.6406,235.0055 185.9171,234.6327 186.1557,234.2346 186.3542,233.8149 186.5106,233.3779 186.6233,232.9276 186.6914,232.4685 186.7142,232.0049 186.6914,231.5412 186.6233,231.0821 186.5106,230.6318 186.3542,230.1948 186.1557,229.7752 185.9171,229.377 185.6406,229.0042 185.3288,228.6603 184.9849,228.3485 184.6121,228.072 184.2139,227.8334 183.7943,227.6349 183.3573,227.4786 182.907,227.3658 182.4479,227.2977 181.9843,227.2749 181.5206,227.2977 181.0615,227.3658 180.6112,227.4786 180.1742,227.6349 179.7546,227.8334 179.3564,228.072 178.9836,228.3485 178.6397,228.6603 178.3279,229.0042 178.0514,229.377 177.8128,229.7752 177.6143,230.1948 177.458,230.6318"/>
    <polygon points="178.3279,215.9115 178.0514,216.2844 177.8128,216.6825 177.6143,217.1021 177.458,217.5392 177.3452,217.9894 177.2771,218.4486 177.2543,218.9122 177.2771,219.3758 177.3452,219.835 177.458,220.2852 177.6143,220.7223 177.8128,221.1419 178.0514,221.54 178.3279,221.9129 178.6397,222.2568 178.9836,222.5685 179.3564,222.845 179.7546,223.0837 180.1742,223.2821 180.6112,223.4385 181.0615,223.5513 181.5206,223.6194 181.9843,223.6422 182.4479,223.6194 182.907,223.5513 183.3573,223.4385 183.7943,223.2821 184.2139,223.0837 184.6121,222.845 184.9849,222.5685 185.3288,222.2568 185.6406,221.9129 185.9171,221.54 186.1557,221.1419 186.3542,220.7223 186.5106,220.2852 186.6233,219.835 186.6914,219.3758 186.7142,218.9122 186.6914,218.4486 186.6233,217.9894 186.5106,217.5392 186.3542,217.1021 186.1557,216.6825 185.9171,216.2844 185.6406,215.9115 185.3288,215.5676 184.9849,215.2559 184.6121,214.9794 184.2139,214.7407 183.7943,214.5423 183.3573,214.3859 182.907,214.2731 182.4479,214.205 181.9843,214.1822 181.5206,214.205 181.0615,214.2731 180.6112,214.3859 180.1742,214.5423 179.7546,214.7407 179.3564,214.9794 178.9836,215.2559 178.6397,215.5676"/>
    <polygon points="190.3222,208.7095 189.9782,209.0213 189.6665,209.3652 189.39,209.738 189.1514,210.1362 188.9529,210.5558 188.7965,210.9928 188.6837,211.4431 188.6156,211.9022 188.5929,212.3659 188.6156,212.8295 188.6837,213.2886 188.7965,213.7389 188.9529,214.1759 189.1514,214.5956 189.39,214.9937 189.6665,215.3665 189.9782,215.7105 190.3222,216.0222 190.695,216.2987 191.0931,216.5373 191.5128,216.7358 191.9498,216.8922 192.4001,217.0049 192.8592,217.0731 193.3228,217.0958 193.7865,217.0731 194.2456,217.0049 194.6959,216.8922 195.1329,216.7358 195.5525,216.5373 195.9507,216.2987 196.3235,216.0222 196.6674,215.7105 196.9792,215.3665 197.2557,214.9937 197.4943,214.5956 197.6928,214.1759 197.8491,213.7389 197.9619,213.2886 198.03,212.8295 198.0528,212.3659 198.03,211.9022 197.9619,211.4431 197.8491,210.9928 197.6928,210.5558 197.4943,210.1362 197.2557,209.738 196.9792,209.3652 196.6674,209.0213 196.3235,208.7095 195.9507,208.433 195.5525,208.1944 195.1329,207.9959 194.6959,207.8396 194.2456,207.7268 193.7865,207.6587 193.3228,207.6359 192.8592,207.6587 192.4001,207.7268 191.9498,207.8396 191.5128,207.9959 191.0931,208.1944 190.695,208.433"/>
    <polygon points="188.6156,199.7368 188.6837,200.196 188.7965,200.6462 188.9529,201.0833 189.1514,201.5029 189.39,201.901 189.6665,202.2739 189.9782,202.6178 190.3222,202.9295 190.695,203.206 191.0931,203.4447 191.5128,203.6431 191.9498,203.7995 192.4001,203.9123 192.8592,203.9804 193.3228,204.0032 193.7865,203.9804 194.2456,203.9123 194.6959,203.7995 195.1329,203.6431 195.5525,203.4447 195.9507,203.206 196.3235,202.9295 196.6674,202.6178 196.9792,202.2739 197.2557,201.901 197.4943,201.5029 197.6928,201.0833 197.8491,200.6462 197.9619,200.196 198.03,199.7368 198.0528,199.2732 198.03,198.8096 197.9619,198.3504 197.8491,197.9002 197.6928,197.4631 197.4943,197.0435 197.2557,196.6454 196.9792,196.2725 196.6674,195.9286 196.3235,195.6169 195.9507,195.3404 195.5525,195.1017 195.1329,194.9033 194.6959,194.7469 194.2456,194.6341 193.7865,194.566 193.3228,194.5432 192.8592,194.566 192.4001,194.6341 191.9498,194.7469 191.5128,194.9033 191.0931,195.1017 190.695,195.3404 190.3222,195.6169 189.9782,195.9286 189.6665,196.2725 189.39,196.6454 189.1514,197.0435 188.9529,197.4631 188.7965,197.9002 188.6837,198.3504 188.6156,198.8096 188.5929,199.2732"/>
    <polygon points="206.0345,201.2932 205.5842,201.1804 205.125,201.1123 204.6614,201.0896 204.1978,201.1123 203.7386,201.1804 203.2884,201.2932 202.8513,201.4496 202.4317,201.6481 202.0336,201.8867 201.6608,202.1632 201.3168,202.4749 201.0051,202.8189 200.7286,203.1917 200.49,203.5898 200.2915,204.0094 200.1351,204.4465 200.0223,204.8968 199.9542,205.3559 199.9314,205.8195 199.9542,206.2831 200.0223,206.7423 200.1351,207.1926 200.2915,207.6296 200.49,208.0492 200.7286,208.4474 201.0051,208.8202 201.3168,209.1641 201.6608,209.4758 202.0336,209.7524 202.4317,209.991 202.8513,210.1894 203.2884,210.3458 203.7386,210.4586 204.1978,210.5267 204.6614,210.5495 205.125,210.5267 205.5842,210.4586 206.0345,210.3458 206.4715,210.1894 206.8911,209.991 207.2892,209.7524 207.6621,209.4758 208.006,209.1641 208.3177,208.8202 208.5942,208.4474 208.8329,208.0492 209.0313,207.6296 209.1877,207.1926 209.3005,206.7423 209.3686,206.2831 209.3914,205.8195 209.3686,205.3559 209.3005,204.8968 209.1877,204.4465 209.0313,204.0094 208.8329,203.5898 208.5942,203.1917 208.3177,202.8189 208.006,202.4749 207.6621,202.1632 207.2892,201.8867 206.8911,201.6481 206.4715,201.4496"/>
    <polygon points="200.4674,233.4321 201.2873,234.1752 202.1762,234.8344 203.1253,235.4033 204.1257,235.8765 205.1676,236.2493 206.241,236.5182 207.3357,236.6805 208.4409,236.7348 209.5462,236.6805 210.6408,236.5182 211.7143,236.2493 212.7562,235.8765 213.7566,235.4033 214.7057,234.8344 215.5946,234.1752 216.4145,233.4321 217.1576,232.6121 217.8169,231.7233 218.3858,230.7741 218.8589,229.7738 219.2317,228.7319 219.5006,227.6584 219.663,226.5638 219.7173,225.4585 219.663,224.3533 219.5006,223.2586 219.2317,222.1852 218.8589,221.1433 218.3858,220.1429 217.8169,219.1937 217.1576,218.3049 216.4145,217.485 215.5946,216.7418 214.7057,216.0826 213.7566,215.5137 212.7562,215.0406 211.7143,214.6678 210.6408,214.3989 209.5462,214.2365 208.4409,214.1822 207.3357,214.2365 206.241,214.3989 205.1676,214.6678 204.1257,215.0406 203.1253,215.5137 202.1762,216.0826 201.2873,216.7418 200.4674,217.485 199.7242,218.3049 199.065,219.1937 198.4961,220.1429 198.023,221.1433 197.6502,222.1852 197.3813,223.2586 197.2189,224.3533 197.1646,225.4585 197.2189,226.5638 197.3813,227.6584 197.6502,228.7319 198.023,229.7738 198.4961,230.7741 199.065,231.7233 199.7242,232.6121"/>
    <polygon points="217.1576,258.7975 216.4145,259.6174 215.5946,260.3606 214.7057,261.0198 213.7566,261.5887 212.7562,262.0618 211.7143,262.4346 210.6408,262.7035 209.5462,262.8659 208.4409,262.9202 207.3357,262.8659 206.241,262.7035 205.1676,262.4346 204.1257,262.0618 203.1253,261.5887 202.1762,261.0198 201.2873,260.3606 200.4674,259.6174 199.7242,258.7975 199.065,257.9086 198.4961,256.9595 198.023,255.9591 197.6502,254.9172 197.3813,253.8438 197.2189,252.7491 197.1646,251.6439 197.2189,250.5386 197.3813,249.444 197.6502,248.3705 198.023,247.3286 198.4961,246.3282 199.065,245.3791 199.7242,244.4902 200.4674,243.6703 201.2873,242.9272 202.1762,242.268 203.1253,241.699 204.1257,241.2259 205.1676,240.8531 206.241,240.5842 207.3357,240.4219 208.4409,240.3676 209.5462,240.4219 210.6408,240.5842 211.7143,240.8531 212.7562,241.2259 213.7566,241.699 214.7057,242.268 215.5946,242.9272 216.4145,243.6703 217.1576,244.4902 217.8169,245.3791 218.3858,246.3282 218.8589,247.3286 219.2317,248.3705 219.5006,249.444 219.663,250.5386 219.7173,251.6439 219.663,252.7491 219.5006,253.8438 219.2317,254.9172 218.8589,255.9591 218.3858,256.9595 217.8169,257.9086"/>
    <polygon points="231.9777,246.0203 231.8649,246.4706 231.7085,246.9076 231.51,247.3272 231.2714,247.7254 230.9949,248.0982 230.6832,248.4421 230.3392,248.7538 229.9664,249.0304 229.5683,249.269 229.1487,249.4675 228.7116,249.6238 228.2614,249.7366 227.8022,249.8047 227.3386,249.8275 226.875,249.8047 226.4158,249.7366 225.9655,249.6238 225.5285,249.4675 225.1089,249.269 224.7108,249.0304 224.3379,248.7538 223.994,248.4421 223.6823,248.0982 223.4058,247.7254 223.1671,247.3272 222.9687,246.9076 222.8123,246.4706 222.6995,246.0203 222.6314,245.5611 222.6086,245.0975 222.6314,244.6339 222.6995,244.1748 222.8123,243.7245 222.9687,243.2874 223.1671,242.8678 223.4058,242.4697 223.6823,242.0969 223.994,241.7529 224.3379,241.4412 224.7108,241.1647 225.1089,240.9261 225.5285,240.7276 225.9655,240.5712 226.4158,240.4584 226.875,240.3903 227.3386,240.3676 227.8022,240.3903 228.2614,240.4584 228.7116,240.5712 229.1487,240.7276 229.5683,240.9261 229.9664,241.1647 230.3392,241.4412 230.6832,241.7529 230.9949,242.0969 231.2714,242.4697 231.51,242.8678 231.7085,243.2874 231.8649,243.7245 231.9777,244.1748 232.0458,244.6339 232.0686,245.0975 232.0458,245.5611"/>
    <polygon points="243.4071,238.5512 243.3844,239.0148 243.3163,239.474 243.2035,239.9242 243.0471,240.3613 242.8486,240.7809 242.61,241.179 242.3335,241.5519 242.0218,241.8958 241.6778,242.2075 241.305,242.484 240.9069,242.7227 240.4872,242.9211 240.0502,243.0775 239.5999,243.1903 239.1408,243.2584 238.6772,243.2812 238.2135,243.2584 237.7544,243.1903 237.3041,243.0775 236.8671,242.9211 236.4475,242.7227 236.0493,242.484 235.6765,242.2075 235.3326,241.8958 235.0208,241.5519 234.7443,241.179 234.5057,240.7809 234.3072,240.3613 234.1509,239.9242 234.0381,239.474 233.97,239.0148 233.9472,238.5512 233.97,238.0876 234.0381,237.6284 234.1509,237.1782 234.3072,236.7411 234.5057,236.3215 234.7443,235.9234 235.0208,235.5505 235.3326,235.2066 235.6765,234.8949 236.0493,234.6184 236.4475,234.3797 236.8671,234.1813 237.3041,234.0249 237.7544,233.9121 238.2135,233.844 238.6772,233.8212 239.1408,233.844 239.5999,233.9121 240.0502,234.0249 240.4872,234.1813 240.9069,234.3797 241.305,234.6184 241.6778,234.8949 242.0218,235.2066 242.3335,235.5505 242.61,235.9234 242.8486,236.3215 243.0471,236.7411 243.2035,237.1782 243.3163,237.6284 243.3844,238.0876"/>
    <polygon points="253.3603,248.4421 253.0164,248.7538 252.6436,249.0304 252.2454,249.269 251.8258,249.4675 251.3888,249.6238 250.9385,249.7366 250.4794,249.8047 250.0157,249.8275 249.5521,249.8047 249.093,249.7366 248.6427,249.6238 248.2057,249.4675 247.7861,249.269 247.3879,249.0304 247.0151,248.7538 246.6712,248.4421 246.3594,248.0982 246.0829,247.7254 245.8443,247.3272 245.6458,246.9076 245.4894,246.4706 245.3767,246.0203 245.3086,245.5611 245.2858,245.0975 245.3086,244.6339 245.3767,244.1748 245.4894,243.7245 245.6458,243.2874 245.8443,242.8678 246.0829,242.4697 246.3594,242.0969 246.6712,241.7529 247.0151,241.4412 247.3879,241.1647 247.7861,240.9261 248.2057,240.7276 248.6427,240.5712 249.093,240.4584 249.5521,240.3903 250.0157,240.3676 250.4794,240.3903 250.9385,240.4584 251.3888,240.5712 251.8258,240.7276 252.2454,240.9261 252.6436,241.1647 253.0164,241.4412 253.3603,241.7529 253.6721,242.0969 253.9486,242.4697 254.1872,242.8678 254.3857,243.2874 254.542,243.7245 254.6548,244.1748 254.7229,244.6339 254.7457,245.0975 254.7229,245.5611 254.6548,246.0203 254.542,246.4706 254.3857,246.9076 254.1872,247.3272 253.9486,247.7254 253.6721,248.0982"/>
    <polygon points="248.6427,262.7165 248.2057,262.5601 247.7861,262.3617 247.3879,262.123 247.0151,261.8465 246.6712,261.5348 246.3594,261.1909 246.0829,260.818 245.8443,260.4199 245.6458,260.0003 245.4894,259.5632 245.3767,259.113 245.3086,258.6538 245.2858,258.1902 245.3086,257.7266 245.3767,257.2674 245.4894,256.8172 245.6458,256.3801 245.8443,255.9605 246.0829,255.5624 246.3594,255.1895 246.6712,254.8456 247.0151,254.5339 247.3879,254.2574 247.7861,254.0187 248.2057,253.8203 248.6427,253.6639 249.093,253.5511 249.5521,253.483 250.0157,253.4602 250.4794,253.483 250.9385,253.5511 251.3888,253.6639 251.8258,253.8203 252.2454,254.0187 252.6436,254.2574 253.0164,254.5339 253.3603,254.8456 253.6721,255.1895 253.9486,255.5624 254.1872,255.9605 254.3857,256.3801 254.542,256.8172 254.6548,257.2674 254.7229,257.7266 254.7457,258.1902 254.7229,258.6538 254.6548,259.113 254.542,259.5632 254.3857,260.0003 254.1872,260.4199 253.9486,260.818 253.6721,261.1909 253.3603,261.5348 253.0164,261.8465 252.6436,262.123 252.2454,262.3617 251.8258,262.5601 251.3888,262.7165 250.9385,262.8293 250.4794,262.8974 250.0157,262.9202 249.5521,262.8974 249.093,262.8293"/>
  </g>
</svg>
