<?xml version="1.0" encoding="utf-8" ?>
<svg xmlns="http://www.w3.org/2000/svg" xmlns:cc="http://creativecommons.org/ns" xmlns:dc="http://purl.org/dc/elements/1.1/" xmlns:ev="http://www.w3.org/2001/xml-events" xmlns:inkscape="http://www.inkscape.org/namespaces/inkscape" xmlns:rdf="http://www.w3.org/1999/02/22-rdf-syntax-ns" xmlns:sodipodi="http://sodipodi.sourceforge.net/DTD/sodipodi-0.dtd" xmlns:xlink="http://www.w3.org/1999/xlink" baseProfile="tiny" height="15.875cm" version="1.2" viewBox="0 0 432.0 600.0" width="11.43cm">
  <metadata>
    <rdf:RDF>
      <cc:Work>
        <dc:format>image/svg+xml</dc:format>
        <dc:source>vsk save -s 105 -c hex-grid/config/bubble-coasters-2.json /Users/tobin/src/fabian/plotting/fabian-plotting/hex-grid/sketch_hex_grid.py</dc:source>
        <dc:date>2023-11-04T10:32:59.124784</dc:date>
      </cc:Work>
    </rdf:RDF>
  </metadata>
  <defs/>
  <g fill="none" id="layer1" inkscape:groupmode="layer" inkscape:label="1" stroke="#000000" stroke-width="0.7559" style="display:inline">
    <polygon points="233.0079,394.2064 233.4715,394.2292 233.9306,394.2973 234.3809,394.4101 234.818,394.5664 235.2376,394.7649 235.6357,395.0035 236.0085,395.2801 236.3525,395.5918 236.6642,395.9357 236.9407,396.3085 237.1793,396.7067 237.3778,397.1263 237.5342,397.5633 237.647,398.0136 237.7151,398.4728 237.7378,398.9364 237.7151,399.4 237.647,399.8591 237.5342,400.3094 237.3778,400.7465 237.1793,401.1661 236.9407,401.5642 236.6642,401.937 236.3525,402.281 236.0085,402.5927 235.6357,402.8692 235.2376,403.1078 234.818,403.3063 234.3809,403.4627 233.9306,403.5755 233.4715,403.6436 233.0079,403.6663 232.5443,403.6436 232.0851,403.5755 231.6348,403.4627 231.1978,403.3063 230.7782,403.1078 230.38,402.8692 230.0072,402.5927 229.6633,402.281 229.3516,401.937 229.075,401.5642 228.8364,401.1661 228.6379,400.7465 228.4816,400.3094 228.3688,399.8591 228.3007,399.4 228.2779,398.9364 228.3007,398.4728 228.3688,398.0136 228.4816,397.5633 228.6379,397.1263 228.8364,396.7067 229.075,396.3085 229.3516,395.9357 229.6633,395.5918 230.0072,395.2801 230.38,395.0035 230.7782,394.7649 231.1978,394.5664 231.6348,394.4101 232.0851,394.2973 232.5443,394.2292"/>
    <polygon points="237.5342,413.4021 237.3778,413.8391 237.1793,414.2587 236.9407,414.6569 236.6642,415.0297 236.3525,415.3736 236.0085,415.6854 235.6357,415.9619 235.2376,416.2005 234.818,416.399 234.3809,416.5553 233.9306,416.6681 233.4715,416.7362 233.0079,416.759 232.5443,416.7362 232.0851,416.6681 231.6348,416.5553 231.1978,416.399 230.7782,416.2005 230.38,415.9619 230.0072,415.6854 229.6633,415.3736 229.3516,415.0297 229.075,414.6569 228.8364,414.2587 228.6379,413.8391 228.4816,413.4021 228.3688,412.9518 228.3007,412.4927 228.2779,412.029 228.3007,411.5654 228.3688,411.1063 228.4816,410.656 228.6379,410.219 228.8364,409.7993 229.075,409.4012 229.3516,409.0284 229.6633,408.6844 230.0072,408.3727 230.38,408.0962 230.7782,407.8576 231.1978,407.6591 231.6348,407.5027 232.0851,407.3899 232.5443,407.3218 233.0079,407.2991 233.4715,407.3218 233.9306,407.3899 234.3809,407.5027 234.818,407.6591 235.2376,407.8576 235.6357,408.0962 236.0085,408.3727 236.3525,408.6844 236.6642,409.0284 236.9407,409.4012 237.1793,409.7993 237.3778,410.219 237.5342,410.656 237.647,411.1063 237.7151,411.5654 237.7378,412.029 237.7151,412.4927 237.647,412.9518"/>
    <polygon points="202.925,434.2959 203.1636,433.8977 203.3621,433.4781 203.5184,433.0411 203.6312,432.5908 203.6993,432.1317 203.7221,431.668 203.6993,431.2044 203.6312,430.7453 203.5184,430.295 203.3621,429.858 203.1636,429.4383 202.925,429.0402 202.6484,428.6674 202.3367,428.3234 201.9928,428.0117 201.62,427.7352 201.2218,427.4966 200.8022,427.2981 200.3652,427.1417 199.9149,427.029 199.4557,426.9608 198.9921,426.9381 198.5285,426.9608 198.0694,427.029 197.6191,427.1417 197.182,427.2981 196.7624,427.4966 196.3643,427.7352 195.9915,428.0117 195.6475,428.3234 195.3358,428.6674 195.0593,429.0402 194.8207,429.4383 194.6222,429.858 194.4658,430.295 194.353,430.7453 194.2849,431.2044 194.2622,431.668 194.2849,432.1317 194.353,432.5908 194.4658,433.0411 194.6222,433.4781 194.8207,433.8977 195.0593,434.2959 195.3358,434.6687 195.6475,435.0126 195.9915,435.3244 196.3643,435.6009 196.7624,435.8395 197.182,436.038 197.6191,436.1943 198.0694,436.3071 198.5285,436.3752 198.9921,436.398 199.4557,436.3752 199.9149,436.3071 200.3652,436.1943 200.8022,436.038 201.2218,435.8395 201.62,435.6009 201.9928,435.3244 202.3367,435.0126 202.6484,434.6687"/>
    <polygon points="186.7308,469.0388 186.2805,468.926 185.8435,468.7696 185.4238,468.5712 185.0257,468.3325 184.6529,468.056 184.3089,467.7443 183.9972,467.4004 183.7207,467.0275 183.4821,466.6294 183.2836,466.2098 183.1272,465.7727 183.0145,465.3225 182.9463,464.8633 182.9236,464.3997 182.9463,463.9361 183.0145,463.4769 183.1272,463.0267 183.2836,462.5896 183.4821,462.17 183.7207,461.7719 183.9972,461.399 184.3089,461.0551 184.6529,460.7434 185.0257,460.4669 185.4238,460.2282 185.8435,460.0298 186.2805,459.8734 186.7308,459.7606 187.1899,459.6925 187.6535,459.6697 188.1172,459.6925 188.5763,459.7606 189.0266,459.8734 189.4636,460.0298 189.8832,460.2282 190.2814,460.4669 190.6542,460.7434 190.9981,461.0551 191.3099,461.399 191.5864,461.7719 191.825,462.17 192.0235,462.5896 192.1798,463.0267 192.2926,463.4769 192.3607,463.9361 192.3835,464.3997 192.3607,464.8633 192.2926,465.3225 192.1798,465.7727 192.0235,466.2098 191.825,466.6294 191.5864,467.0275 191.3099,467.4004 190.9981,467.7443 190.6542,468.056 190.2814,468.3325 189.8832,468.5712 189.4636,468.7696 189.0266,468.926 188.5763,469.0388 188.1172,469.1069 187.6535,469.1297 187.1899,469.1069"/>
    <polygon points="185.0257,455.2399 184.6529,454.9634 184.3089,454.6516 183.9972,454.3077 183.7207,453.9349 183.4821,453.5367 183.2836,453.1171 183.1272,452.6801 183.0145,452.2298 182.9463,451.7707 182.9236,451.307 182.9463,450.8434 183.0145,450.3843 183.1272,449.934 183.2836,449.497 183.4821,449.0773 183.7207,448.6792 183.9972,448.3064 184.3089,447.9624 184.6529,447.6507 185.0257,447.3742 185.4238,447.1356 185.8435,446.9371 186.2805,446.7807 186.7308,446.668 187.1899,446.5998 187.6535,446.5771 188.1172,446.5998 188.5763,446.668 189.0266,446.7807 189.4636,446.9371 189.8832,447.1356 190.2814,447.3742 190.6542,447.6507 190.9981,447.9624 191.3099,448.3064 191.5864,448.6792 191.825,449.0773 192.0235,449.497 192.1798,449.934 192.2926,450.3843 192.3607,450.8434 192.3835,451.307 192.3607,451.7707 192.2926,452.2298 192.1798,452.6801 192.0235,453.1171 191.825,453.5367 191.5864,453.9349 191.3099,454.3077 190.9981,454.6516 190.6542,454.9634 190.2814,455.2399 189.8832,455.4785 189.4636,455.677 189.0266,455.8333 188.5763,455.9461 188.1172,456.0142 187.6535,456.037 187.1899,456.0142 186.7308,455.9461 186.2805,455.8333 185.8435,455.677 185.4238,455.4785"/>
    <polygon points="191.825,440.4441 191.5864,440.8422 191.3099,441.215 190.9981,441.559 190.6542,441.8707 190.2814,442.1472 189.8832,442.3858 189.4636,442.5843 189.0266,442.7407 188.5763,442.8535 188.1172,442.9216 187.6535,442.9443 187.1899,442.9216 186.7308,442.8535 186.2805,442.7407 185.8435,442.5843 185.4238,442.3858 185.0257,442.1472 184.6529,441.8707 184.3089,441.559 183.9972,441.215 183.7207,440.8422 183.4821,440.4441 183.2836,440.0245 183.1272,439.5874 183.0145,439.1371 182.9463,438.678 182.9236,438.2144 182.9463,437.7508 183.0145,437.2916 183.1272,436.8413 183.2836,436.4043 183.4821,435.9847 183.7207,435.5865 183.9972,435.2137 184.3089,434.8698 184.6529,434.5581 185.0257,434.2815 185.4238,434.0429 185.8435,433.8444 186.2805,433.6881 186.7308,433.5753 187.1899,433.5072 187.6535,433.4844 188.1172,433.5072 188.5763,433.5753 189.0266,433.6881 189.4636,433.8444 189.8832,434.0429 190.2814,434.2815 190.6542,434.5581 190.9981,434.8698 191.3099,435.2137 191.5864,435.5865 191.825,435.9847 192.0235,436.4043 192.1798,436.8413 192.2926,437.2916 192.3607,437.7508 192.3835,438.2144 192.3607,438.678 192.2926,439.1371 192.1798,439.5874 192.0235,440.0245"/>
    <polygon points="191.825,422.892 192.0235,423.3116 192.1798,423.7487 192.2926,424.1989 192.3607,424.6581 192.3835,425.1217 192.3607,425.5853 192.2926,426.0445 192.1798,426.4947 192.0235,426.9318 191.825,427.3514 191.5864,427.7495 191.3099,428.1224 190.9981,428.4663 190.6542,428.778 190.2814,429.0545 189.8832,429.2932 189.4636,429.4916 189.0266,429.648 188.5763,429.7608 188.1172,429.8289 187.6535,429.8517 187.1899,429.8289 186.7308,429.7608 186.2805,429.648 185.8435,429.4916 185.4238,429.2932 185.0257,429.0545 184.6529,428.778 184.3089,428.4663 183.9972,428.1224 183.7207,427.7495 183.4821,427.3514 183.2836,426.9318 183.1272,426.4947 183.0145,426.0445 182.9463,425.5853 182.9236,425.1217 182.9463,424.6581 183.0145,424.1989 183.1272,423.7487 183.2836,423.3116 183.4821,422.892 183.7207,422.4939 183.9972,422.121 184.3089,421.7771 184.6529,421.4654 185.0257,421.1889 185.4238,420.9502 185.8435,420.7518 186.2805,420.5954 186.7308,420.4826 187.1899,420.4145 187.6535,420.3917 188.1172,420.4145 188.5763,420.4826 189.0266,420.5954 189.4636,420.7518 189.8832,420.9502 190.2814,421.1889 190.6542,421.4654 190.9981,421.7771 191.3099,422.121 191.5864,422.4939"/>
    <polygon points="178.125,427.2981 178.5447,427.4966 178.9428,427.7352 179.3156,428.0117 179.6596,428.3234 179.9713,428.6674 180.2478,429.0402 180.4864,429.4383 180.6849,429.858 180.8413,430.295 180.954,430.7453 181.0222,431.2044 181.0449,431.668 181.0222,432.1317 180.954,432.5908 180.8413,433.0411 180.6849,433.4781 180.4864,433.8977 180.2478,434.2959 179.9713,434.6687 179.6596,435.0126 179.3156,435.3244 178.9428,435.6009 178.5447,435.8395 178.125,436.038 177.688,436.1943 177.2377,436.3071 176.7786,436.3752 176.315,436.398 175.8513,436.3752 175.3922,436.3071 174.9419,436.1943 174.5049,436.038 174.0853,435.8395 173.6871,435.6009 173.3143,435.3244 172.9704,435.0126 172.6586,434.6687 172.3821,434.2959 172.1435,433.8977 171.945,433.4781 171.7887,433.0411 171.6759,432.5908 171.6078,432.1317 171.585,431.668 171.6078,431.2044 171.6759,430.7453 171.7887,430.295 171.945,429.858 172.1435,429.4383 172.3821,429.0402 172.6586,428.6674 172.9704,428.3234 173.3143,428.0117 173.6871,427.7352 174.0853,427.4966 174.5049,427.2981 174.9419,427.1417 175.3922,427.029 175.8513,426.9608 176.315,426.9381 176.7786,426.9608 177.2377,427.029 177.688,427.1417"/>
    <polygon points="176.315,413.8454 175.8513,413.8682 175.3922,413.9363 174.9419,414.0491 174.5049,414.2054 174.0853,414.4039 173.6871,414.6425 173.3143,414.9191 172.9704,415.2308 172.6586,415.5747 172.3821,415.9475 172.1435,416.3457 171.945,416.7653 171.7887,417.2023 171.6759,417.6526 171.6078,418.1118 171.585,418.5754 171.6078,419.039 171.6759,419.4981 171.7887,419.9484 171.945,420.3855 172.1435,420.8051 172.3821,421.2032 172.6586,421.576 172.9704,421.92 173.3143,422.2317 173.6871,422.5082 174.0853,422.7468 174.5049,422.9453 174.9419,423.1017 175.3922,423.2145 175.8513,423.2826 176.315,423.3053 176.7786,423.2826 177.2377,423.2145 177.688,423.1017 178.125,422.9453 178.5447,422.7468 178.9428,422.5082 179.3156,422.2317 179.6596,421.92 179.9713,421.576 180.2478,421.2032 180.4864,420.8051 180.6849,420.3855 180.8413,419.9484 180.954,419.4981 181.0222,419.039 181.0449,418.5754 181.0222,418.1118 180.954,417.6526 180.8413,417.2023 180.6849,416.7653 180.4864,416.3457 180.2478,415.9475 179.9713,415.5747 179.6596,415.2308 179.3156,414.9191 178.9428,414.6425 178.5447,414.4039 178.125,414.2054 177.688,414.0491 177.2377,413.9363 176.7786,413.8682"/>
    <polygon points="169.6836,411.5654 169.6155,411.1063 169.5027,410.656 169.3463,410.219 169.1478,409.7993 168.9092,409.4012 168.6327,409.0284 168.321,408.6844 167.977,408.3727 167.6042,408.0962 167.2061,407.8576 166.7865,407.6591 166.3494,407.5027 165.8991,407.3899 165.44,407.3218 164.9764,407.2991 164.5128,407.3218 164.0536,407.3899 163.6033,407.5027 163.1663,407.6591 162.7467,407.8576 162.3485,408.0962 161.9757,408.3727 161.6318,408.6844 161.3201,409.0284 161.0435,409.4012 160.8049,409.7993 160.6065,410.219 160.4501,410.656 160.3373,411.1063 160.2692,411.5654 160.2464,412.029 160.2692,412.4927 160.3373,412.9518 160.4501,413.4021 160.6065,413.8391 160.8049,414.2587 161.0435,414.6569 161.3201,415.0297 161.6318,415.3736 161.9757,415.6854 162.3485,415.9619 162.7467,416.2005 163.1663,416.399 163.6033,416.5553 164.0536,416.6681 164.5128,416.7362 164.9764,416.759 165.44,416.7362 165.8991,416.6681 166.3494,416.5553 166.7865,416.399 167.2061,416.2005 167.6042,415.9619 167.977,415.6854 168.321,415.3736 168.6327,415.0297 168.9092,414.6569 169.1478,414.2587 169.3463,413.8391 169.5027,413.4021 169.6155,412.9518 169.6836,412.4927 169.7064,412.029"/>
    <polygon points="176.315,400.7527 175.8513,400.7755 175.3922,400.8436 174.9419,400.9564 174.5049,401.1128 174.0853,401.3112 173.6871,401.5499 173.3143,401.8264 172.9704,402.1381 172.6586,402.482 172.3821,402.8549 172.1435,403.253 171.945,403.6726 171.7887,404.1097 171.6759,404.5599 171.6078,405.0191 171.585,405.4827 171.6078,405.9463 171.6759,406.4055 171.7887,406.8557 171.945,407.2928 172.1435,407.7124 172.3821,408.1105 172.6586,408.4834 172.9704,408.8273 173.3143,409.139 173.6871,409.4155 174.0853,409.6542 174.5049,409.8526 174.9419,410.009 175.3922,410.1218 175.8513,410.1899 176.315,410.2127 176.7786,410.1899 177.2377,410.1218 177.688,410.009 178.125,409.8526 178.5447,409.6542 178.9428,409.4155 179.3156,409.139 179.6596,408.8273 179.9713,408.4834 180.2478,408.1105 180.4864,407.7124 180.6849,407.2928 180.8413,406.8557 180.954,406.4055 181.0222,405.9463 181.0449,405.4827 181.0222,405.0191 180.954,404.5599 180.8413,404.1097 180.6849,403.6726 180.4864,403.253 180.2478,402.8549 179.9713,402.482 179.6596,402.1381 179.3156,401.8264 178.9428,401.5499 178.5447,401.3112 178.125,401.1128 177.688,400.9564 177.2377,400.8436 176.7786,400.7755"/>
    <polygon points="189.8832,407.8576 190.2814,408.0962 190.6542,408.3727 190.9981,408.6844 191.3099,409.0284 191.5864,409.4012 191.825,409.7993 192.0235,410.219 192.1798,410.656 192.2926,411.1063 192.3607,411.5654 192.3835,412.029 192.3607,412.4927 192.2926,412.9518 192.1798,413.4021 192.0235,413.8391 191.825,414.2587 191.5864,414.6569 191.3099,415.0297 190.9981,415.3736 190.6542,415.6854 190.2814,415.9619 189.8832,416.2005 189.4636,416.399 189.0266,416.5553 188.5763,416.6681 188.1172,416.7362 187.6535,416.759 187.1899,416.7362 186.7308,416.6681 186.2805,416.5553 185.8435,416.399 185.4238,416.2005 185.0257,415.9619 184.6529,415.6854 184.3089,415.3736 183.9972,415.0297 183.7207,414.6569 183.4821,414.2587 183.2836,413.8391 183.1272,413.4021 183.0145,412.9518 182.9463,412.4927 182.9236,412.029 182.9463,411.5654 183.0145,411.1063 183.1272,410.656 183.2836,410.219 183.4821,409.7993 183.7207,409.4012 183.9972,409.0284 184.3089,408.6844 184.6529,408.3727 185.0257,408.0962 185.4238,407.8576 185.8435,407.6591 186.2805,407.5027 186.7308,407.3899 187.1899,407.3218 187.6535,407.2991 188.1172,407.3218 188.5763,407.3899 189.0266,407.5027 189.4636,407.6591"/>
    <polygon points="202.8882,406.588 202.8339,405.4827 202.8882,404.3774 203.0506,403.2828 203.3195,402.2094 203.6923,401.1674 204.1654,400.1671 204.7343,399.2179 205.3935,398.3291 206.1367,397.5092 206.9566,396.766 207.8455,396.1068 208.7946,395.5379 209.795,395.0648 210.8369,394.692 211.9103,394.4231 213.005,394.2607 214.1102,394.2064 215.2155,394.2607 216.3101,394.4231 217.3836,394.692 218.4255,395.0648 219.4259,395.5379 220.375,396.1068 221.2638,396.766 222.0838,397.5092 222.8269,398.3291 223.4861,399.2179 224.0551,400.1671 224.5282,401.1674 224.901,402.2094 225.1699,403.2828 225.3322,404.3774 225.3865,405.4827 225.3322,406.588 225.1699,407.6826 224.901,408.756 224.5282,409.798 224.0551,410.7983 223.4861,411.7475 222.8269,412.6363 222.0838,413.4563 221.2638,414.1994 220.375,414.8586 219.4259,415.4275 218.4255,415.9007 217.3836,416.2735 216.3101,416.5423 215.2155,416.7047 214.1102,416.759 213.005,416.7047 211.9103,416.5423 210.8369,416.2735 209.795,415.9007 208.7946,415.4275 207.8455,414.8586 206.9566,414.1994 206.1367,413.4563 205.3935,412.6363 204.7343,411.7475 204.1654,410.7983 203.6923,409.798 203.3195,408.756 203.0506,407.6826"/>
    <polygon points="200.809,386.1253 201.3779,387.0744 201.851,388.0748 202.2238,389.1167 202.4927,390.1901 202.6551,391.2848 202.7094,392.39 202.6551,393.4953 202.4927,394.5899 202.2238,395.6634 201.851,396.7053 201.3779,397.7057 200.809,398.6548 200.1498,399.5436 199.4066,400.3636 198.5867,401.1067 197.6979,401.7659 196.7487,402.3349 195.7483,402.808 194.7064,403.1808 193.633,403.4497 192.5383,403.612 191.4331,403.6663 190.3278,403.612 189.2332,403.4497 188.1597,403.1808 187.1178,402.808 186.1175,402.3349 185.1683,401.7659 184.2795,401.1067 183.4595,400.3636 182.7164,399.5436 182.0572,398.6548 181.4883,397.7057 181.0151,396.7053 180.6423,395.6634 180.3734,394.5899 180.2111,393.4953 180.1568,392.39 180.2111,391.2848 180.3734,390.1901 180.6423,389.1167 181.0151,388.0748 181.4883,387.0744 182.0572,386.1253 182.7164,385.2364 183.4595,384.4165 184.2795,383.6733 185.1683,383.0141 186.1175,382.4452 187.1178,381.9721 188.1597,381.5993 189.2332,381.3304 190.3278,381.168 191.4331,381.1137 192.5383,381.168 193.633,381.3304 194.7064,381.5993 195.7483,381.9721 196.7487,382.4452 197.6979,383.0141 198.5867,383.6733 199.4066,384.4165 200.1498,385.2364"/>
    <polygon points="206.0661,376.4317 203.7463,377.0128 201.3807,377.3637 198.9921,377.481 196.6035,377.3637 194.238,377.0128 191.9182,376.4317 189.6665,375.626 187.5047,374.6035 185.4534,373.3741 183.5326,371.9495 181.7607,370.3435 180.1547,368.5715 178.7301,366.6507 177.5006,364.5995 176.4781,362.4376 175.6725,360.186 175.0914,357.8662 174.7405,355.5006 174.6232,353.112 174.7405,350.7235 175.0914,348.3579 175.6725,346.0381 176.4781,343.7864 177.5006,341.6246 178.7301,339.5734 180.1547,337.6525 181.7607,335.8806 183.5326,334.2746 185.4534,332.85 187.5047,331.6205 189.6665,330.598 191.9182,329.7924 194.238,329.2113 196.6035,328.8604 198.9921,328.7431 201.3807,328.8604 203.7463,329.2113 206.0661,329.7924 208.3177,330.598 210.4796,331.6205 212.5308,332.85 214.4516,334.2746 216.2236,335.8806 217.8296,337.6525 219.2542,339.5734 220.4836,341.6246 221.5061,343.7864 222.3118,346.0381 222.8929,348.3579 223.2438,350.7235 223.3611,353.112 223.2438,355.5006 222.8929,357.8662 222.3118,360.186 221.5061,362.4376 220.4836,364.5995 219.2542,366.6507 217.8296,368.5715 216.2236,370.3435 214.4516,371.9495 212.5308,373.3741 210.4796,374.6035 208.3177,375.626"/>
    <polygon points="222.8549,338.4142 221.8325,336.2523 221.0268,334.0006 220.4457,331.6808 220.0948,329.3153 219.9775,326.9267 220.0948,324.5381 220.4457,322.1725 221.0268,319.8528 221.8325,317.6011 222.8549,315.4392 224.0844,313.388 225.509,311.4672 227.115,309.6952 228.8869,308.0892 230.8078,306.6646 232.859,305.4352 235.0209,304.4127 237.2725,303.607 239.5923,303.026 241.9579,302.6751 244.3465,302.5577 246.735,302.6751 249.1006,303.026 251.4204,303.607 253.6721,304.4127 255.8339,305.4352 257.8851,306.6646 259.806,308.0892 261.5779,309.6952 263.1839,311.4672 264.6085,313.388 265.838,315.4392 266.8605,317.6011 267.6661,319.8528 268.2472,322.1725 268.5981,324.5381 268.7154,326.9267 268.5981,329.3153 268.2472,331.6808 267.6661,334.0006 266.8605,336.2523 265.838,338.4142 264.6085,340.4654 263.1839,342.3862 261.5779,344.1582 259.806,345.7642 257.8851,347.1888 255.8339,348.4182 253.6721,349.4407 251.4204,350.2464 249.1006,350.8274 246.735,351.1783 244.3465,351.2957 241.9579,351.1783 239.5923,350.8274 237.2725,350.2464 235.0209,349.4407 232.859,348.4182 230.8078,347.1888 228.8869,345.7642 227.115,344.1582 225.509,342.3862 224.0844,340.4654"/>
    <polygon points="280.1723,329.1031 280.5919,329.3016 280.99,329.5402 281.3629,329.8167 281.7068,330.1284 282.0185,330.4724 282.295,330.8452 282.5337,331.2433 282.7321,331.663 282.8885,332.1 283.0013,332.5503 283.0694,333.0094 283.0922,333.473 283.0694,333.9367 283.0013,334.3958 282.8885,334.8461 282.7321,335.2831 282.5337,335.7027 282.295,336.1009 282.0185,336.4737 281.7068,336.8176 281.3629,337.1294 280.99,337.4059 280.5919,337.6445 280.1723,337.843 279.7352,337.9993 279.285,338.1121 278.8258,338.1802 278.3622,338.203 277.8986,338.1802 277.4394,338.1121 276.9892,337.9993 276.5521,337.843 276.1325,337.6445 275.7344,337.4059 275.3615,337.1294 275.0176,336.8176 274.7059,336.4737 274.4294,336.1009 274.1907,335.7027 273.9923,335.2831 273.8359,334.8461 273.7231,334.3958 273.655,333.9367 273.6322,333.473 273.655,333.0094 273.7231,332.5503 273.8359,332.1 273.9923,331.663 274.1907,331.2433 274.4294,330.8452 274.7059,330.4724 275.0176,330.1284 275.3615,329.8167 275.7344,329.5402 276.1325,329.3016 276.5521,329.1031 276.9892,328.9467 277.4394,328.8339 277.8986,328.7658 278.3622,328.7431 278.8258,328.7658 279.285,328.8339 279.7352,328.9467"/>
    <polygon points="275.877,323.2099 274.9881,322.5507 274.1682,321.8076 273.425,320.9876 272.7658,320.0988 272.1969,319.1496 271.7238,318.1493 271.351,317.1074 271.0821,316.0339 270.9197,314.9393 270.8654,313.834 270.9197,312.7288 271.0821,311.6341 271.351,310.5607 271.7238,309.5188 272.1969,308.5184 272.7658,307.5693 273.425,306.6804 274.1682,305.8605 274.9881,305.1173 275.877,304.4581 276.8261,303.8892 277.8265,303.4161 278.8684,303.0433 279.9418,302.7744 281.0365,302.612 282.1417,302.5577 283.247,302.612 284.3416,302.7744 285.4151,303.0433 286.457,303.4161 287.4573,303.8892 288.4065,304.4581 289.2953,305.1173 290.1153,305.8605 290.8584,306.6804 291.5176,307.5693 292.0865,308.5184 292.5597,309.5188 292.9325,310.5607 293.2014,311.6341 293.3637,312.7288 293.418,313.834 293.3637,314.9393 293.2014,316.0339 292.9325,317.1074 292.5597,318.1493 292.0865,319.1496 291.5176,320.0988 290.8584,320.9876 290.1153,321.8076 289.2953,322.5507 288.4065,323.2099 287.4573,323.7788 286.457,324.252 285.4151,324.6248 284.3416,324.8937 283.247,325.056 282.1417,325.1103 281.0365,325.056 279.9418,324.8937 278.8684,324.6248 277.8265,324.252 276.8261,323.7788"/>
    <polygon points="278.8684,298.4394 279.9418,298.7083 281.0365,298.8707 282.1417,298.925 283.247,298.8707 284.3416,298.7083 285.4151,298.4394 286.457,298.0666 287.4573,297.5935 288.4065,297.0246 289.2953,296.3654 290.1153,295.6222 290.8584,294.8023 291.5176,293.9135 292.0865,292.9643 292.5597,291.964 292.9325,290.922 293.2014,289.8486 293.3637,288.754 293.418,287.6487 293.3637,286.5434 293.2014,285.4488 292.9325,284.3754 292.5597,283.3334 292.0865,282.3331 291.5176,281.3839 290.8584,280.4951 290.1153,279.6751 289.2953,278.932 288.4065,278.2728 287.4573,277.7039 286.457,277.2307 285.4151,276.8579 284.3416,276.5891 283.247,276.4267 282.1417,276.3724 281.0365,276.4267 279.9418,276.5891 278.8684,276.8579 277.8265,277.2307 276.8261,277.7039 275.877,278.2728 274.9881,278.932 274.1682,279.6751 273.425,280.4951 272.7658,281.3839 272.1969,282.3331 271.7238,283.3334 271.351,284.3754 271.0821,285.4488 270.9197,286.5434 270.8654,287.6487 270.9197,288.754 271.0821,289.8486 271.351,290.922 271.7238,291.964 272.1969,292.9643 272.7658,293.9135 273.425,294.8023 274.1682,295.6222 274.9881,296.3654 275.877,297.0246 276.8261,297.5935 277.8265,298.0666"/>
    <polygon points="268.2472,279.3102 268.5981,276.9446 268.7154,274.556 268.5981,272.1675 268.2472,269.8019 267.6661,267.4821 266.8605,265.2304 265.838,263.0686 264.6085,261.0174 263.1839,259.0965 261.5779,257.3246 259.806,255.7186 257.8851,254.294 255.8339,253.0645 253.6721,252.042 251.4204,251.2364 249.1006,250.6553 246.735,250.3044 244.3465,250.1871 241.9579,250.3044 239.5923,250.6553 237.2725,251.2364 235.0209,252.042 232.859,253.0645 230.8078,254.294 228.8869,255.7186 227.115,257.3246 225.509,259.0965 224.0844,261.0174 222.8549,263.0686 221.8325,265.2304 221.0268,267.4821 220.4457,269.8019 220.0948,272.1675 219.9775,274.556 220.0948,276.9446 220.4457,279.3102 221.0268,281.63 221.8325,283.8816 222.8549,286.0435 224.0844,288.0947 225.509,290.0155 227.115,291.7875 228.8869,293.3935 230.8078,294.8181 232.859,296.0475 235.0209,297.07 237.2725,297.8757 239.5923,298.4568 241.9579,298.8077 244.3465,298.925 246.735,298.8077 249.1006,298.4568 251.4204,297.8757 253.6721,297.07 255.8339,296.0475 257.8851,294.8181 259.806,293.3935 261.5779,291.7875 263.1839,290.0155 264.6085,288.0947 265.838,286.0435 266.8605,283.8816 267.6661,281.63"/>
    <polygon points="301.0394,298.925 300.5758,298.9022 300.1166,298.8341 299.6663,298.7213 299.2293,298.565 298.8097,298.3665 298.4115,298.1279 298.0387,297.8513 297.6948,297.5396 297.3831,297.1957 297.1065,296.8229 296.8679,296.4247 296.6694,296.0051 296.5131,295.5681 296.4003,295.1178 296.3322,294.6586 296.3094,294.195 296.3322,293.7314 296.4003,293.2723 296.5131,292.822 296.6694,292.3849 296.8679,291.9653 297.1065,291.5672 297.3831,291.1944 297.6948,290.8504 298.0387,290.5387 298.4115,290.2622 298.8097,290.0236 299.2293,289.8251 299.6663,289.6687 300.1166,289.5559 300.5758,289.4878 301.0394,289.4651 301.503,289.4878 301.9621,289.5559 302.4124,289.6687 302.8495,289.8251 303.2691,290.0236 303.6672,290.2622 304.04,290.5387 304.384,290.8504 304.6957,291.1944 304.9722,291.5672 305.2108,291.9653 305.4093,292.3849 305.5657,292.822 305.6785,293.2723 305.7466,293.7314 305.7693,294.195 305.7466,294.6586 305.6785,295.1178 305.5657,295.5681 305.4093,296.0051 305.2108,296.4247 304.9722,296.8229 304.6957,297.1957 304.384,297.5396 304.04,297.8513 303.6672,298.1279 303.2691,298.3665 302.8495,298.565 302.4124,298.7213 301.9621,298.8341 301.503,298.9022"/>
    <polygon points="305.6785,268.9325 305.5657,269.3827 305.4093,269.8198 305.2108,270.2394 304.9722,270.6375 304.6957,271.0104 304.384,271.3543 304.04,271.666 303.6672,271.9425 303.2691,272.1812 302.8495,272.3796 302.4124,272.536 301.9621,272.6488 301.503,272.7169 301.0394,272.7397 300.5758,272.7169 300.1166,272.6488 299.6663,272.536 299.2293,272.3796 298.8097,272.1812 298.4115,271.9425 298.0387,271.666 297.6948,271.3543 297.3831,271.0104 297.1065,270.6375 296.8679,270.2394 296.6694,269.8198 296.5131,269.3827 296.4003,268.9325 296.3322,268.4733 296.3094,268.0097 296.3322,267.5461 296.4003,267.0869 296.5131,266.6367 296.6694,266.1996 296.8679,265.78 297.1065,265.3819 297.3831,265.009 297.6948,264.6651 298.0387,264.3534 298.4115,264.0769 298.8097,263.8382 299.2293,263.6398 299.6663,263.4834 300.1166,263.3706 300.5758,263.3025 301.0394,263.2797 301.503,263.3025 301.9621,263.3706 302.4124,263.4834 302.8495,263.6398 303.2691,263.8382 303.6672,264.0769 304.04,264.3534 304.384,264.6651 304.6957,265.009 304.9722,265.3819 305.2108,265.78 305.4093,266.1996 305.5657,266.6367 305.6785,267.0869 305.7466,267.5461 305.7693,268.0097 305.7466,268.4733"/>
    <polygon points="339.5814,236.6511 339.425,237.0881 339.2266,237.5077 338.9879,237.9059 338.7114,238.2787 338.3997,238.6226 338.0558,238.9343 337.683,239.2109 337.2848,239.4495 336.8652,239.648 336.4282,239.8043 335.9779,239.9171 335.5187,239.9852 335.0551,240.008 334.5915,239.9852 334.1323,239.9171 333.6821,239.8043 333.245,239.648 332.8254,239.4495 332.4273,239.2109 332.0545,238.9343 331.7105,238.6226 331.3988,238.2787 331.1223,237.9059 330.8837,237.5077 330.6852,237.0881 330.5288,236.6511 330.416,236.2008 330.3479,235.7416 330.3251,235.278 330.3479,234.8144 330.416,234.3553 330.5288,233.905 330.6852,233.4679 330.8837,233.0483 331.1223,232.6502 331.3988,232.2774 331.7105,231.9334 332.0545,231.6217 332.4273,231.3452 332.8254,231.1066 333.245,230.9081 333.6821,230.7517 334.1323,230.6389 334.5915,230.5708 335.0551,230.5481 335.5187,230.5708 335.9779,230.6389 336.4282,230.7517 336.8652,230.9081 337.2848,231.1066 337.683,231.3452 338.0558,231.6217 338.3997,231.9334 338.7114,232.2774 338.9879,232.6502 339.2266,233.0483 339.425,233.4679 339.5814,233.905 339.6942,234.3553 339.7623,234.8144 339.7851,235.278 339.7623,235.7416 339.6942,236.2008"/>
    <polygon points="325.0896,224.2054 324.6393,224.0926 324.1802,224.0245 323.7165,224.0017 323.2529,224.0245 322.7938,224.0926 322.3435,224.2054 321.9065,224.3618 321.4868,224.5602 321.0887,224.7989 320.7159,225.0754 320.3719,225.3871 320.0602,225.731 319.7837,226.1039 319.5451,226.502 319.3466,226.9216 319.1902,227.3587 319.0774,227.8089 319.0093,228.2681 318.9866,228.7317 319.0093,229.1953 319.0774,229.6545 319.1902,230.1047 319.3466,230.5418 319.5451,230.9614 319.7837,231.3595 320.0602,231.7324 320.3719,232.0763 320.7159,232.388 321.0887,232.6645 321.4868,232.9032 321.9065,233.1016 322.3435,233.258 322.7938,233.3708 323.2529,233.4389 323.7165,233.4617 324.1802,233.4389 324.6393,233.3708 325.0896,233.258 325.5266,233.1016 325.9462,232.9032 326.3444,232.6645 326.7172,232.388 327.0611,232.0763 327.3729,231.7324 327.6494,231.3595 327.888,230.9614 328.0865,230.5418 328.2428,230.1047 328.3556,229.6545 328.4237,229.1953 328.4465,228.7317 328.4237,228.2681 328.3556,227.8089 328.2428,227.3587 328.0865,226.9216 327.888,226.502 327.6494,226.1039 327.3729,225.731 327.0611,225.3871 326.7172,225.0754 326.3444,224.7989 325.9462,224.5602 325.5266,224.3618"/>
    <polygon points="317.5512,214.4083 318.1202,215.3575 318.7794,216.2463 319.5225,217.0662 320.3424,217.8094 321.2313,218.4686 322.1804,219.0375 323.1808,219.5106 324.2227,219.8834 325.2962,220.1523 326.3908,220.3147 327.4961,220.369 328.6013,220.3147 329.696,220.1523 330.7694,219.8834 331.8113,219.5106 332.8117,219.0375 333.7608,218.4686 334.6497,217.8094 335.4696,217.0662 336.2128,216.2463 336.872,215.3575 337.4409,214.4083 337.914,213.4079 338.2868,212.366 338.5557,211.2926 338.7181,210.198 338.7724,209.0927 338.7181,207.9874 338.5557,206.8928 338.2868,205.8194 337.914,204.7774 337.4409,203.7771 336.872,202.8279 336.2128,201.9391 335.4696,201.1191 334.6497,200.376 333.7608,199.7168 332.8117,199.1479 331.8113,198.6747 330.7694,198.3019 329.696,198.0331 328.6013,197.8707 327.4961,197.8164 326.3908,197.8707 325.2962,198.0331 324.2227,198.3019 323.1808,198.6747 322.1804,199.1479 321.2313,199.7168 320.3424,200.376 319.5225,201.1191 318.7794,201.9391 318.1202,202.8279 317.5512,203.7771 317.0781,204.7774 316.7053,205.8194 316.4364,206.8928 316.2741,207.9874 316.2198,209.0927 316.2741,210.198 316.4364,211.2926 316.7053,212.366 317.0781,213.4079"/>
    <polygon points="346.3937,210.9091 346.8573,210.9318 347.3165,210.9999 347.7667,211.1127 348.2038,211.2691 348.6234,211.4676 349.0215,211.7062 349.3944,211.9827 349.7383,212.2944 350.05,212.6384 350.3265,213.0112 350.5652,213.4093 350.7636,213.8289 350.92,214.266 351.0328,214.7163 351.1009,215.1754 351.1237,215.639 351.1009,216.1026 351.0328,216.5618 350.92,217.0121 350.7636,217.4491 350.5652,217.8687 350.3265,218.2669 350.05,218.6397 349.7383,218.9836 349.3944,219.2953 349.0215,219.5719 348.6234,219.8105 348.2038,220.0089 347.7667,220.1653 347.3165,220.2781 346.8573,220.3462 346.3937,220.369 345.9301,220.3462 345.4709,220.2781 345.0207,220.1653 344.5836,220.0089 344.164,219.8105 343.7659,219.5719 343.393,219.2953 343.0491,218.9836 342.7374,218.6397 342.4609,218.2669 342.2222,217.8687 342.0238,217.4491 341.8674,217.0121 341.7546,216.5618 341.6865,216.1026 341.6637,215.639 341.6865,215.1754 341.7546,214.7163 341.8674,214.266 342.0238,213.8289 342.2222,213.4093 342.4609,213.0112 342.7374,212.6384 343.0491,212.2944 343.393,211.9827 343.7659,211.7062 344.164,211.4676 344.5836,211.2691 345.0207,211.1127 345.4709,210.9999 345.9301,210.9318"/>
    <polygon points="346.3937,197.8164 346.8573,197.8392 347.3165,197.9073 347.7667,198.0201 348.2038,198.1764 348.6234,198.3749 349.0215,198.6135 349.3944,198.89 349.7383,199.2018 350.05,199.5457 350.3265,199.9185 350.5652,200.3167 350.7636,200.7363 350.92,201.1733 351.0328,201.6236 351.1009,202.0827 351.1237,202.5464 351.1009,203.01 351.0328,203.4691 350.92,203.9194 350.7636,204.3564 350.5652,204.7761 350.3265,205.1742 350.05,205.547 349.7383,205.891 349.3944,206.2027 349.0215,206.4792 348.6234,206.7178 348.2038,206.9163 347.7667,207.0727 347.3165,207.1854 346.8573,207.2536 346.3937,207.2763 345.9301,207.2536 345.4709,207.1854 345.0207,207.0727 344.5836,206.9163 344.164,206.7178 343.7659,206.4792 343.393,206.2027 343.0491,205.891 342.7374,205.547 342.4609,205.1742 342.2222,204.7761 342.0238,204.3564 341.8674,203.9194 341.7546,203.4691 341.6865,203.01 341.6637,202.5464 341.6865,202.0827 341.7546,201.6236 341.8674,201.1733 342.0238,200.7363 342.2222,200.3167 342.4609,199.9185 342.7374,199.5457 343.0491,199.2018 343.393,198.89 343.7659,198.6135 344.164,198.3749 344.5836,198.1764 345.0207,198.0201 345.4709,197.9073 345.9301,197.8392"/>
    <polygon points="349.7383,186.1091 350.05,186.453 350.3265,186.8259 350.5652,187.224 350.7636,187.6436 350.92,188.0807 351.0328,188.5309 351.1009,188.9901 351.1237,189.4537 351.1009,189.9173 351.0328,190.3765 350.92,190.8267 350.7636,191.2638 350.5652,191.6834 350.3265,192.0815 350.05,192.4544 349.7383,192.7983 349.3944,193.11 349.0215,193.3865 348.6234,193.6252 348.2038,193.8236 347.7667,193.98 347.3165,194.0928 346.8573,194.1609 346.3937,194.1837 345.9301,194.1609 345.4709,194.0928 345.0207,193.98 344.5836,193.8236 344.164,193.6252 343.7659,193.3865 343.393,193.11 343.0491,192.7983 342.7374,192.4544 342.4609,192.0815 342.2222,191.6834 342.0238,191.2638 341.8674,190.8267 341.7546,190.3765 341.6865,189.9173 341.6637,189.4537 341.6865,188.9901 341.7546,188.5309 341.8674,188.0807 342.0238,187.6436 342.2222,187.224 342.4609,186.8259 342.7374,186.453 343.0491,186.1091 343.393,185.7974 343.7659,185.5209 344.164,185.2822 344.5836,185.0838 345.0207,184.9274 345.4709,184.8146 345.9301,184.7465 346.3937,184.7237 346.8573,184.7465 347.3165,184.8146 347.7667,184.9274 348.2038,185.0838 348.6234,185.2822 349.0215,185.5209 349.3944,185.7974"/>
    <polygon points="345.9301,181.0682 345.4709,181.0001 345.0207,180.8873 344.5836,180.7309 344.164,180.5325 343.7659,180.2939 343.393,180.0173 343.0491,179.7056 342.7374,179.3617 342.4609,178.9889 342.2222,178.5907 342.0238,178.1711 341.8674,177.7341 341.7546,177.2838 341.6865,176.8246 341.6637,176.361 341.6865,175.8974 341.7546,175.4383 341.8674,174.988 342.0238,174.5509 342.2222,174.1313 342.4609,173.7332 342.7374,173.3604 343.0491,173.0164 343.393,172.7047 343.7659,172.4282 344.164,172.1896 344.5836,171.9911 345.0207,171.8347 345.4709,171.7219 345.9301,171.6538 346.3937,171.631 346.8573,171.6538 347.3165,171.7219 347.7667,171.8347 348.2038,171.9911 348.6234,172.1896 349.0215,172.4282 349.3944,172.7047 349.7383,173.0164 350.05,173.3604 350.3265,173.7332 350.5652,174.1313 350.7636,174.5509 350.92,174.988 351.0328,175.4383 351.1009,175.8974 351.1237,176.361 351.1009,176.8246 351.0328,177.2838 350.92,177.7341 350.7636,178.1711 350.5652,178.5907 350.3265,178.9889 350.05,179.3617 349.7383,179.7056 349.3944,180.0173 349.0215,180.2939 348.6234,180.5325 348.2038,180.7309 347.7667,180.8873 347.3165,181.0001 346.8573,181.0682 346.3937,181.091"/>
    <polygon points="332.8117,172.9625 333.7608,173.5314 334.6497,174.1907 335.4696,174.9338 336.2128,175.7537 336.872,176.6426 337.4409,177.5917 337.914,178.5921 338.2868,179.634 338.5557,180.7075 338.7181,181.8021 338.7724,182.9074 338.7181,184.0126 338.5557,185.1073 338.2868,186.1807 337.914,187.2226 337.4409,188.223 336.872,189.1721 336.2128,190.061 335.4696,190.8809 334.6497,191.6241 333.7608,192.2833 332.8117,192.8522 331.8113,193.3253 330.7694,193.6981 329.696,193.967 328.6013,194.1294 327.4961,194.1837 326.3908,194.1294 325.2962,193.967 324.2227,193.6981 323.1808,193.3253 322.1804,192.8522 321.2313,192.2833 320.3424,191.6241 319.5225,190.8809 318.7794,190.061 318.1202,189.1721 317.5512,188.223 317.0781,187.2226 316.7053,186.1807 316.4364,185.1073 316.2741,184.0126 316.2198,182.9074 316.2741,181.8021 316.4364,180.7075 316.7053,179.634 317.0781,178.5921 317.5512,177.5917 318.1202,176.6426 318.7794,175.7537 319.5225,174.9338 320.3424,174.1907 321.2313,173.5314 322.1804,172.9625 323.1808,172.4894 324.2227,172.1166 325.2962,171.8477 326.3908,171.6853 327.4961,171.631 328.6013,171.6853 329.696,171.8477 330.7694,172.1166 331.8113,172.4894"/>
    <polygon points="322.7938,158.6293 323.2529,158.5612 323.7165,158.5384 324.1802,158.5612 324.6393,158.6293 325.0896,158.7421 325.5266,158.8984 325.9462,159.0969 326.3444,159.3355 326.7172,159.612 327.0611,159.9238 327.3729,160.2677 327.6494,160.6405 327.888,161.0387 328.0865,161.4583 328.2428,161.8953 328.3556,162.3456 328.4237,162.8047 328.4465,163.2684 328.4237,163.732 328.3556,164.1911 328.2428,164.6414 328.0865,165.0784 327.888,165.498 327.6494,165.8962 327.3729,166.269 327.0611,166.613 326.7172,166.9247 326.3444,167.2012 325.9462,167.4398 325.5266,167.6383 325.0896,167.7947 324.6393,167.9074 324.1802,167.9756 323.7165,167.9983 323.2529,167.9756 322.7938,167.9074 322.3435,167.7947 321.9065,167.6383 321.4868,167.4398 321.0887,167.2012 320.7159,166.9247 320.3719,166.613 320.0602,166.269 319.7837,165.8962 319.5451,165.498 319.3466,165.0784 319.1902,164.6414 319.0774,164.1911 319.0093,163.732 318.9866,163.2684 319.0093,162.8047 319.0774,162.3456 319.1902,161.8953 319.3466,161.4583 319.5451,161.0387 319.7837,160.6405 320.0602,160.2677 320.3719,159.9238 320.7159,159.612 321.0887,159.3355 321.4868,159.0969 321.9065,158.8984 322.3435,158.7421"/>
    <polygon points="296.5131,148.8026 296.6694,148.3656 296.8679,147.946 297.1065,147.5479 297.3831,147.175 297.6948,146.8311 298.0387,146.5194 298.4115,146.2429 298.8097,146.0042 299.2293,145.8058 299.6663,145.6494 300.1166,145.5366 300.5758,145.4685 301.0394,145.4457 301.503,145.4685 301.9621,145.5366 302.4124,145.6494 302.8495,145.8058 303.2691,146.0042 303.6672,146.2429 304.04,146.5194 304.384,146.8311 304.6957,147.175 304.9722,147.5479 305.2108,147.946 305.4093,148.3656 305.5657,148.8026 305.6785,149.2529 305.7466,149.7121 305.7693,150.1757 305.7466,150.6393 305.6785,151.0985 305.5657,151.5487 305.4093,151.9858 305.2108,152.4054 304.9722,152.8035 304.6957,153.1763 304.384,153.5203 304.04,153.832 303.6672,154.1085 303.2691,154.3472 302.8495,154.5456 302.4124,154.702 301.9621,154.8148 301.503,154.8829 301.0394,154.9057 300.5758,154.8829 300.1166,154.8148 299.6663,154.702 299.2293,154.5456 298.8097,154.3472 298.4115,154.1085 298.0387,153.832 297.6948,153.5203 297.3831,153.1763 297.1065,152.8035 296.8679,152.4054 296.6694,151.9858 296.5131,151.5487 296.4003,151.0985 296.3322,150.6393 296.3094,150.1757 296.3322,149.7121 296.4003,149.2529"/>
    <polygon points="272.7658,162.9868 272.1969,162.0376 271.7238,161.0373 271.351,159.9954 271.0821,158.9219 270.9197,157.8273 270.8654,156.722 270.9197,155.6167 271.0821,154.5221 271.351,153.4487 271.7238,152.4068 272.1969,151.4064 272.7658,150.4572 273.425,149.5684 274.1682,148.7485 274.9881,148.0053 275.877,147.3461 276.8261,146.7772 277.8265,146.3041 278.8684,145.9313 279.9418,145.6624 281.0365,145.5 282.1417,145.4457 283.247,145.5 284.3416,145.6624 285.4151,145.9313 286.457,146.3041 287.4573,146.7772 288.4065,147.3461 289.2953,148.0053 290.1153,148.7485 290.8584,149.5684 291.5176,150.4572 292.0865,151.4064 292.5597,152.4068 292.9325,153.4487 293.2014,154.5221 293.3637,155.6167 293.418,156.722 293.3637,157.8273 293.2014,158.9219 292.9325,159.9954 292.5597,161.0373 292.0865,162.0376 291.5176,162.9868 290.8584,163.8756 290.1153,164.6956 289.2953,165.4387 288.4065,166.0979 287.4573,166.6668 286.457,167.14 285.4151,167.5128 284.3416,167.7817 283.247,167.944 282.1417,167.9983 281.0365,167.944 279.9418,167.7817 278.8684,167.5128 277.8265,167.14 276.8261,166.6668 275.877,166.0979 274.9881,165.4387 274.1682,164.6956 273.425,163.8756"/>
    <polygon points="268.5981,167.4261 268.7154,169.8147 268.5981,172.2033 268.2472,174.5688 267.6661,176.8886 266.8605,179.1403 265.838,181.3021 264.6085,183.3534 263.1839,185.2742 261.5779,187.0462 259.806,188.6522 257.8851,190.0767 255.8339,191.3062 253.6721,192.3287 251.4204,193.1343 249.1006,193.7154 246.735,194.0663 244.3465,194.1837 241.9579,194.0663 239.5923,193.7154 237.2725,193.1343 235.0209,192.3287 232.859,191.3062 230.8078,190.0767 228.8869,188.6522 227.115,187.0462 225.509,185.2742 224.0844,183.3534 222.8549,181.3021 221.8325,179.1403 221.0268,176.8886 220.4457,174.5688 220.0948,172.2033 219.9775,169.8147 220.0948,167.4261 220.4457,165.0605 221.0268,162.7407 221.8325,160.4891 222.8549,158.3272 224.0844,156.276 225.509,154.3552 227.115,152.5832 228.8869,150.9772 230.8078,149.5526 232.859,148.3232 235.0209,147.3007 237.2725,146.495 239.5923,145.914 241.9579,145.5631 244.3465,145.4457 246.735,145.5631 249.1006,145.914 251.4204,146.495 253.6721,147.3007 255.8339,148.3232 257.8851,149.5526 259.806,150.9772 261.5779,152.5832 263.1839,154.3552 264.6085,156.276 265.838,158.3272 266.8605,160.4891 267.6661,162.7407 268.2472,165.0605"/>
    <polygon points="266.3811,203.074 265.8001,200.7542 265.4492,198.3886 265.3318,196.0 265.4492,193.6114 265.8001,191.2459 266.3811,188.9261 267.1868,186.6744 268.2093,184.5126 269.4387,182.4613 270.8633,180.5405 272.4693,178.7686 274.2413,177.1626 276.1621,175.738 278.2133,174.5085 280.3752,173.486 282.6268,172.6804 284.9466,172.0993 287.3122,171.7484 289.7008,171.631 292.0894,171.7484 294.4549,172.0993 296.7747,172.6804 299.0264,173.486 301.1882,174.5085 303.2395,175.738 305.1603,177.1626 306.9323,178.7686 308.5383,180.5405 309.9628,182.4613 311.1923,184.5126 312.2148,186.6744 313.0204,188.9261 313.6015,191.2459 313.9524,193.6114 314.0698,196.0 313.9524,198.3886 313.6015,200.7542 313.0204,203.074 312.2148,205.3256 311.1923,207.4875 309.9628,209.5387 308.5383,211.4595 306.9323,213.2315 305.1603,214.8375 303.2395,216.2621 301.1882,217.4915 299.0264,218.514 296.7747,219.3197 294.4549,219.9008 292.0894,220.2517 289.7008,220.369 287.3122,220.2517 284.9466,219.9008 282.6268,219.3197 280.3752,218.514 278.2133,217.4915 276.1621,216.2621 274.2413,214.8375 272.4693,213.2315 270.8633,211.4595 269.4387,209.5387 268.2093,207.4875 267.1868,205.3256"/>
    <polygon points="279.285,224.0926 279.7352,224.2054 280.1723,224.3618 280.5919,224.5602 280.99,224.7989 281.3629,225.0754 281.7068,225.3871 282.0185,225.731 282.295,226.1039 282.5337,226.502 282.7321,226.9216 282.8885,227.3587 283.0013,227.8089 283.0694,228.2681 283.0922,228.7317 283.0694,229.1953 283.0013,229.6545 282.8885,230.1047 282.7321,230.5418 282.5337,230.9614 282.295,231.3595 282.0185,231.7324 281.7068,232.0763 281.3629,232.388 280.99,232.6645 280.5919,232.9032 280.1723,233.1016 279.7352,233.258 279.285,233.3708 278.8258,233.4389 278.3622,233.4617 277.8986,233.4389 277.4394,233.3708 276.9892,233.258 276.5521,233.1016 276.1325,232.9032 275.7344,232.6645 275.3615,232.388 275.0176,232.0763 274.7059,231.7324 274.4294,231.3595 274.1907,230.9614 273.9923,230.5418 273.8359,230.1047 273.7231,229.6545 273.655,229.1953 273.6322,228.7317 273.655,228.2681 273.7231,227.8089 273.8359,227.3587 273.9923,226.9216 274.1907,226.502 274.4294,226.1039 274.7059,225.731 275.0176,225.3871 275.3615,225.0754 275.7344,224.7989 276.1325,224.5602 276.5521,224.3618 276.9892,224.2054 277.4394,224.0926 277.8986,224.0245 278.3622,224.0017 278.8258,224.0245"/>
    <polygon points="279.7352,246.3507 279.285,246.4634 278.8258,246.5316 278.3622,246.5543 277.8986,246.5316 277.4394,246.4634 276.9892,246.3507 276.5521,246.1943 276.1325,245.9958 275.7344,245.7572 275.3615,245.4807 275.0176,245.169 274.7059,244.825 274.4294,244.4522 274.1907,244.0541 273.9923,243.6344 273.8359,243.1974 273.7231,242.7471 273.655,242.288 273.6322,241.8244 273.655,241.3607 273.7231,240.9016 273.8359,240.4513 273.9923,240.0143 274.1907,239.5947 274.4294,239.1965 274.7059,238.8237 275.0176,238.4798 275.3615,238.168 275.7344,237.8915 276.1325,237.6529 276.5521,237.4544 276.9892,237.2981 277.4394,237.1853 277.8986,237.1172 278.3622,237.0944 278.8258,237.1172 279.285,237.1853 279.7352,237.2981 280.1723,237.4544 280.5919,237.6529 280.99,237.8915 281.3629,238.168 281.7068,238.4798 282.0185,238.8237 282.295,239.1965 282.5337,239.5947 282.7321,240.0143 282.8885,240.4513 283.0013,240.9016 283.0694,241.3607 283.0922,241.8244 283.0694,242.288 283.0013,242.7471 282.8885,243.1974 282.7321,243.6344 282.5337,244.0541 282.295,244.4522 282.0185,244.825 281.7068,245.169 281.3629,245.4807 280.99,245.7572 280.5919,245.9958 280.1723,246.1943"/>
    <polygon points="271.351,258.19 271.7238,257.1481 272.1969,256.1477 272.7658,255.1986 273.425,254.3097 274.1682,253.4898 274.9881,252.7467 275.877,252.0875 276.8261,251.5185 277.8265,251.0454 278.8684,250.6726 279.9418,250.4037 281.0365,250.2414 282.1417,250.1871 283.247,250.2414 284.3416,250.4037 285.4151,250.6726 286.457,251.0454 287.4573,251.5185 288.4065,252.0875 289.2953,252.7467 290.1153,253.4898 290.8584,254.3097 291.5176,255.1986 292.0865,256.1477 292.5597,257.1481 292.9325,258.19 293.2014,259.2635 293.3637,260.3581 293.418,261.4634 293.3637,262.5686 293.2014,263.6633 292.9325,264.7367 292.5597,265.7786 292.0865,266.779 291.5176,267.7281 290.8584,268.617 290.1153,269.4369 289.2953,270.1801 288.4065,270.8393 287.4573,271.4082 286.457,271.8813 285.4151,272.2541 284.3416,272.523 283.247,272.6854 282.1417,272.7397 281.0365,272.6854 279.9418,272.523 278.8684,272.2541 277.8265,271.8813 276.8261,271.4082 275.877,270.8393 274.9881,270.1801 274.1682,269.4369 273.425,268.617 272.7658,267.7281 272.1969,266.779 271.7238,265.7786 271.351,264.7367 271.0821,263.6633 270.9197,262.5686 270.8654,261.4634 270.9197,260.3581 271.0821,259.2635"/>
    <polygon points="222.8929,243.6165 223.2438,245.9821 223.3611,248.3707 223.2438,250.7593 222.8929,253.1248 222.3118,255.4446 221.5061,257.6963 220.4836,259.8581 219.2542,261.9094 217.8296,263.8302 216.2236,265.6022 214.4516,267.2082 212.5308,268.6328 210.4796,269.8622 208.3177,270.8847 206.0661,271.6903 203.7463,272.2714 201.3807,272.6223 198.9921,272.7397 196.6035,272.6223 194.238,272.2714 191.9182,271.6903 189.6665,270.8847 187.5047,269.8622 185.4534,268.6328 183.5326,267.2082 181.7607,265.6022 180.1547,263.8302 178.7301,261.9094 177.5006,259.8581 176.4781,257.6963 175.6725,255.4446 175.0914,253.1248 174.7405,250.7593 174.6232,248.3707 174.7405,245.9821 175.0914,243.6165 175.6725,241.2968 176.4781,239.0451 177.5006,236.8832 178.7301,234.832 180.1547,232.9112 181.7607,231.1392 183.5326,229.5332 185.4534,228.1086 187.5047,226.8792 189.6665,225.8567 191.9182,225.051 194.238,224.47 196.6035,224.1191 198.9921,224.0017 201.3807,224.1191 203.7463,224.47 206.0661,225.051 208.3177,225.8567 210.4796,226.8792 212.5308,228.1086 214.4516,229.5332 216.2236,231.1392 217.8296,232.9112 219.2542,234.832 220.4836,236.8832 221.5061,239.0451 222.3118,241.2968"/>
    <polygon points="212.5308,280.4793 214.4516,281.9039 216.2236,283.5099 217.8296,285.2819 219.2542,287.2027 220.4836,289.2539 221.5061,291.4158 222.3118,293.6674 222.8929,295.9872 223.2438,298.3528 223.3611,300.7414 223.2438,303.1299 222.8929,305.4955 222.3118,307.8153 221.5061,310.067 220.4836,312.2288 219.2542,314.28 217.8296,316.2009 216.2236,317.9728 214.4516,319.5788 212.5308,321.0034 210.4796,322.2329 208.3177,323.2554 206.0661,324.061 203.7463,324.6421 201.3807,324.993 198.9921,325.1103 196.6035,324.993 194.238,324.6421 191.9182,324.061 189.6665,323.2554 187.5047,322.2329 185.4534,321.0034 183.5326,319.5788 181.7607,317.9728 180.1547,316.2009 178.7301,314.28 177.5006,312.2288 176.4781,310.067 175.6725,307.8153 175.0914,305.4955 174.7405,303.1299 174.6232,300.7414 174.7405,298.3528 175.0914,295.9872 175.6725,293.6674 176.4781,291.4158 177.5006,289.2539 178.7301,287.2027 180.1547,285.2819 181.7607,283.5099 183.5326,281.9039 185.4534,280.4793 187.5047,279.2498 189.6665,278.2274 191.9182,277.4217 194.238,276.8406 196.6035,276.4897 198.9921,276.3724 201.3807,276.4897 203.7463,276.8406 206.0661,277.4217 208.3177,278.2274 210.4796,279.2498"/>
    <polygon points="177.4726,319.7731 176.7295,318.9531 175.9095,318.21 175.0207,317.5508 174.0715,316.9819 173.0712,316.5087 172.0292,316.1359 170.9558,315.8671 169.8612,315.7047 168.7559,315.6504 167.6506,315.7047 166.556,315.8671 165.4826,316.1359 164.4406,316.5087 163.4403,316.9819 162.4911,317.5508 161.6023,318.21 160.7824,318.9531 160.0392,319.7731 159.38,320.6619 158.8111,321.6111 158.338,322.6114 157.9652,323.6534 157.6963,324.7268 157.5339,325.8214 157.4796,326.9267 157.5339,328.032 157.6963,329.1266 157.9652,330.2 158.338,331.242 158.8111,332.2423 159.38,333.1915 160.0392,334.0803 160.7824,334.9003 161.6023,335.6434 162.4911,336.3026 163.4403,336.8715 164.4406,337.3446 165.4826,337.7175 166.556,337.9863 167.6506,338.1487 168.7559,338.203 169.8612,338.1487 170.9558,337.9863 172.0292,337.7175 173.0712,337.3446 174.0715,336.8715 175.0207,336.3026 175.9095,335.6434 176.7295,334.9003 177.4726,334.0803 178.1318,333.1915 178.7007,332.2423 179.1739,331.242 179.5467,330.2 179.8155,329.1266 179.9779,328.032 180.0322,326.9267 179.9779,325.8214 179.8155,324.7268 179.5467,323.6534 179.1739,322.6114 178.7007,321.6111 178.1318,320.6619"/>
    <polygon points="172.0292,263.7653 173.0712,264.1381 174.0715,264.6112 175.0207,265.1801 175.9095,265.8393 176.7295,266.5825 177.4726,267.4024 178.1318,268.2912 178.7007,269.2404 179.1739,270.2408 179.5467,271.2827 179.8155,272.3561 179.9779,273.4508 180.0322,274.556 179.9779,275.6613 179.8155,276.7559 179.5467,277.8294 179.1739,278.8713 178.7007,279.8716 178.1318,280.8208 177.4726,281.7096 176.7295,282.5296 175.9095,283.2727 175.0207,283.9319 174.0715,284.5008 173.0712,284.974 172.0292,285.3468 170.9558,285.6157 169.8612,285.778 168.7559,285.8323 167.6506,285.778 166.556,285.6157 165.4826,285.3468 164.4406,284.974 163.4403,284.5008 162.4911,283.9319 161.6023,283.2727 160.7824,282.5296 160.0392,281.7096 159.38,280.8208 158.8111,279.8716 158.338,278.8713 157.9652,277.8294 157.6963,276.7559 157.5339,275.6613 157.4796,274.556 157.5339,273.4508 157.6963,272.3561 157.9652,271.2827 158.338,270.2408 158.8111,269.2404 159.38,268.2912 160.0392,267.4024 160.7824,266.5825 161.6023,265.8393 162.4911,265.1801 163.4403,264.6112 164.4406,264.1381 165.4826,263.7653 166.556,263.4964 167.6506,263.334 168.7559,263.2797 169.8612,263.334 170.9558,263.4964"/>
    <polygon points="153.1742,266.1706 152.715,266.1024 152.2648,265.9897 151.8277,265.8333 151.4081,265.6348 151.01,265.3962 150.6371,265.1197 150.2932,264.808 149.9815,264.464 149.705,264.0912 149.4663,263.6931 149.2679,263.2734 149.1115,262.8364 148.9987,262.3861 148.9306,261.927 148.9078,261.4634 148.9306,260.9997 148.9987,260.5406 149.1115,260.0903 149.2679,259.6533 149.4663,259.2337 149.705,258.8355 149.9815,258.4627 150.2932,258.1188 150.6371,257.807 151.01,257.5305 151.4081,257.2919 151.8277,257.0934 152.2648,256.9371 152.715,256.8243 153.1742,256.7562 153.6378,256.7334 154.1014,256.7562 154.5606,256.8243 155.0108,256.9371 155.4479,257.0934 155.8675,257.2919 156.2656,257.5305 156.6385,257.807 156.9824,258.1188 157.2941,258.4627 157.5706,258.8355 157.8093,259.2337 158.0077,259.6533 158.1641,260.0903 158.2769,260.5406 158.345,260.9997 158.3678,261.4634 158.345,261.927 158.2769,262.3861 158.1641,262.8364 158.0077,263.2734 157.8093,263.6931 157.5706,264.0912 157.2941,264.464 156.9824,264.808 156.6385,265.1197 156.2656,265.3962 155.8675,265.6348 155.4479,265.8333 155.0108,265.9897 154.5606,266.1024 154.1014,266.1706 153.6378,266.1933"/>
    <polygon points="122.2963,237.1487 121.2017,237.3111 120.1282,237.5799 119.0863,237.9527 118.086,238.4259 117.1368,238.9948 116.248,239.654 115.428,240.3971 114.6849,241.2171 114.0257,242.1059 113.4568,243.0551 112.9836,244.0554 112.6108,245.0974 112.3419,246.1708 112.1796,247.2654 112.1253,248.3707 112.1796,249.476 112.3419,250.5706 112.6108,251.644 112.9836,252.6859 113.4568,253.6863 114.0257,254.6355 114.6849,255.5243 115.428,256.3442 116.248,257.0874 117.1368,257.7466 118.086,258.3155 119.0863,258.7886 120.1282,259.1614 121.2017,259.4303 122.2963,259.5927 123.4016,259.647 124.5068,259.5927 125.6015,259.4303 126.6749,259.1614 127.7168,258.7886 128.7172,258.3155 129.6664,257.7466 130.5552,257.0874 131.3751,256.3442 132.1183,255.5243 132.7775,254.6355 133.3464,253.6863 133.8195,252.6859 134.1923,251.644 134.4612,250.5706 134.6236,249.476 134.6779,248.3707 134.6236,247.2654 134.4612,246.1708 134.1923,245.0974 133.8195,244.0554 133.3464,243.0551 132.7775,242.1059 132.1183,241.2171 131.3751,240.3971 130.5552,239.654 129.6664,238.9948 128.7172,238.4259 127.7168,237.9527 126.6749,237.5799 125.6015,237.3111 124.5068,237.1487 123.4016,237.0944"/>
    <polygon points="132.1183,203.1536 132.7775,202.2648 133.3464,201.3156 133.8195,200.3153 134.1923,199.2734 134.4612,198.1999 134.6236,197.1053 134.6779,196.0 134.6236,194.8948 134.4612,193.8001 134.1923,192.7267 133.8195,191.6848 133.3464,190.6844 132.7775,189.7352 132.1183,188.8464 131.3751,188.0265 130.5552,187.2833 129.6664,186.6241 128.7172,186.0552 127.7168,185.5821 126.6749,185.2093 125.6015,184.9404 124.5068,184.778 123.4016,184.7237 122.2963,184.778 121.2017,184.9404 120.1282,185.2093 119.0863,185.5821 118.086,186.0552 117.1368,186.6241 116.248,187.2833 115.428,188.0265 114.6849,188.8464 114.0257,189.7352 113.4568,190.6844 112.9836,191.6848 112.6108,192.7267 112.3419,193.8001 112.1796,194.8948 112.1253,196.0 112.1796,197.1053 112.3419,198.1999 112.6108,199.2734 112.9836,200.3153 113.4568,201.3156 114.0257,202.2648 114.6849,203.1536 115.428,203.9736 116.248,204.7167 117.1368,205.3759 118.086,205.9448 119.0863,206.418 120.1282,206.7908 121.2017,207.0597 122.2963,207.222 123.4016,207.2763 124.5068,207.222 125.6015,207.0597 126.6749,206.7908 127.7168,206.418 128.7172,205.9448 129.6664,205.3759 130.5552,204.7167 131.3751,203.9736"/>
    <polygon points="136.7028,189.1721 137.362,190.061 138.1052,190.8809 138.9251,191.6241 139.814,192.2833 140.7631,192.8522 141.7635,193.3253 142.8054,193.6981 143.8788,193.967 144.9735,194.1294 146.0787,194.1837 147.184,194.1294 148.2786,193.967 149.3521,193.6981 150.394,193.3253 151.3944,192.8522 152.3435,192.2833 153.2324,191.6241 154.0523,190.8809 154.7954,190.061 155.4546,189.1721 156.0236,188.223 156.4967,187.2226 156.8695,186.1807 157.1384,185.1073 157.3007,184.0126 157.355,182.9074 157.3007,181.8021 157.1384,180.7075 156.8695,179.634 156.4967,178.5921 156.0236,177.5917 155.4546,176.6426 154.7954,175.7537 154.0523,174.9338 153.2324,174.1907 152.3435,173.5314 151.3944,172.9625 150.394,172.4894 149.3521,172.1166 148.2786,171.8477 147.184,171.6853 146.0787,171.631 144.9735,171.6853 143.8788,171.8477 142.8054,172.1166 141.7635,172.4894 140.7631,172.9625 139.814,173.5314 138.9251,174.1907 138.1052,174.9338 137.362,175.7537 136.7028,176.6426 136.1339,177.5917 135.6608,178.5921 135.288,179.634 135.0191,180.7075 134.8567,181.8021 134.8024,182.9074 134.8567,184.0126 135.0191,185.1073 135.288,186.1807 135.6608,187.2226 136.1339,188.223"/>
    <polygon points="158.3919,198.2846 160.7117,198.8657 162.9634,199.6714 165.1253,200.6938 167.1765,201.9233 169.0973,203.3479 170.8693,204.9539 172.4753,206.7258 173.8999,208.6467 175.1293,210.6979 176.1518,212.8598 176.9574,215.1114 177.5385,217.4312 177.8894,219.7968 178.0068,222.1854 177.8894,224.5739 177.5385,226.9395 176.9574,229.2593 176.1518,231.511 175.1293,233.6728 173.8999,235.724 172.4753,237.6449 170.8693,239.4168 169.0973,241.0228 167.1765,242.4474 165.1253,243.6769 162.9634,244.6994 160.7117,245.505 158.3919,246.0861 156.0264,246.437 153.6378,246.5543 151.2492,246.437 148.8836,246.0861 146.5639,245.505 144.3122,244.6994 142.1503,243.6769 140.0991,242.4474 138.1783,241.0228 136.4063,239.4168 134.8003,237.6449 133.3757,235.724 132.1463,233.6728 131.1238,231.511 130.3181,229.2593 129.7371,226.9395 129.3862,224.5739 129.2688,222.1854 129.3862,219.7968 129.7371,217.4312 130.3181,215.1114 131.1238,212.8598 132.1463,210.6979 133.3757,208.6467 134.8003,206.7258 136.4063,204.9539 138.1783,203.3479 140.0991,201.9233 142.1503,200.6938 144.3122,199.6714 146.5639,198.8657 148.8836,198.2846 151.2492,197.9337 153.6378,197.8164 156.0264,197.9337"/>
    <polygon points="191.9182,172.6804 194.238,172.0993 196.6035,171.7484 198.9921,171.631 201.3807,171.7484 203.7463,172.0993 206.0661,172.6804 208.3177,173.486 210.4796,174.5085 212.5308,175.738 214.4516,177.1626 216.2236,178.7686 217.8296,180.5405 219.2542,182.4613 220.4836,184.5126 221.5061,186.6744 222.3118,188.9261 222.8929,191.2459 223.2438,193.6114 223.3611,196.0 223.2438,198.3886 222.8929,200.7542 222.3118,203.074 221.5061,205.3256 220.4836,207.4875 219.2542,209.5387 217.8296,211.4595 216.2236,213.2315 214.4516,214.8375 212.5308,216.2621 210.4796,217.4915 208.3177,218.514 206.0661,219.3197 203.7463,219.9008 201.3807,220.2517 198.9921,220.369 196.6035,220.2517 194.238,219.9008 191.9182,219.3197 189.6665,218.514 187.5047,217.4915 185.4534,216.2621 183.5326,214.8375 181.7607,213.2315 180.1547,211.4595 178.7301,209.5387 177.5006,207.4875 176.4781,205.3256 175.6725,203.074 175.0914,200.7542 174.7405,198.3886 174.6232,196.0 174.7405,193.6114 175.0914,191.2459 175.6725,188.9261 176.4781,186.6744 177.5006,184.5126 178.7301,182.4613 180.1547,180.5405 181.7607,178.7686 183.5326,177.1626 185.4534,175.738 187.5047,174.5085 189.6665,173.486"/>
    <polygon points="186.1175,166.6668 185.1683,166.0979 184.2795,165.4387 183.4595,164.6956 182.7164,163.8756 182.0572,162.9868 181.4883,162.0376 181.0151,161.0373 180.6423,159.9954 180.3734,158.9219 180.2111,157.8273 180.1568,156.722 180.2111,155.6167 180.3734,154.5221 180.6423,153.4487 181.0151,152.4068 181.4883,151.4064 182.0572,150.4572 182.7164,149.5684 183.4595,148.7485 184.2795,148.0053 185.1683,147.3461 186.1175,146.7772 187.1178,146.3041 188.1597,145.9313 189.2332,145.6624 190.3278,145.5 191.4331,145.4457 192.5383,145.5 193.633,145.6624 194.7064,145.9313 195.7483,146.3041 196.7487,146.7772 197.6979,147.3461 198.5867,148.0053 199.4066,148.7485 200.1498,149.5684 200.809,150.4572 201.3779,151.4064 201.851,152.4068 202.2238,153.4487 202.4927,154.5221 202.6551,155.6167 202.7094,156.722 202.6551,157.8273 202.4927,158.9219 202.2238,159.9954 201.851,161.0373 201.3779,162.0376 200.809,162.9868 200.1498,163.8756 199.4066,164.6956 198.5867,165.4387 197.6979,166.0979 196.7487,166.6668 195.7483,167.14 194.7064,167.5128 193.633,167.7817 192.5383,167.944 191.4331,167.9983 190.3278,167.944 189.2332,167.7817 188.1597,167.5128 187.1178,167.14"/>
    <polygon points="211.2535,145.5366 211.7037,145.6494 212.1408,145.8058 212.5604,146.0042 212.9585,146.2429 213.3314,146.5194 213.6753,146.8311 213.987,147.175 214.2635,147.5479 214.5022,147.946 214.7006,148.3656 214.857,148.8026 214.9698,149.2529 215.0379,149.7121 215.0607,150.1757 215.0379,150.6393 214.9698,151.0985 214.857,151.5487 214.7006,151.9858 214.5022,152.4054 214.2635,152.8035 213.987,153.1763 213.6753,153.5203 213.3314,153.832 212.9585,154.1085 212.5604,154.3472 212.1408,154.5456 211.7037,154.702 211.2535,154.8148 210.7943,154.8829 210.3307,154.9057 209.8671,154.8829 209.4079,154.8148 208.9577,154.702 208.5206,154.5456 208.101,154.3472 207.7029,154.1085 207.33,153.832 206.9861,153.5203 206.6744,153.1763 206.3979,152.8035 206.1592,152.4054 205.9608,151.9858 205.8044,151.5487 205.6916,151.0985 205.6235,150.6393 205.6007,150.1757 205.6235,149.7121 205.6916,149.2529 205.8044,148.8026 205.9608,148.3656 206.1592,147.946 206.3979,147.5479 206.6744,147.175 206.9861,146.8311 207.33,146.5194 207.7029,146.2429 208.101,146.0042 208.5206,145.8058 208.9577,145.6494 209.4079,145.5366 209.8671,145.4685 210.3307,145.4457 210.7943,145.4685"/>
    <polygon points="243.0522,121.1608 242.103,120.5919 241.1027,120.1187 240.0607,119.7459 238.9873,119.4771 237.8927,119.3147 236.7874,119.2604 235.6821,119.3147 234.5875,119.4771 233.5141,119.7459 232.4721,120.1187 231.4718,120.5919 230.5226,121.1608 229.6338,121.82 228.8138,122.5631 228.0707,123.3831 227.4115,124.2719 226.8426,125.2211 226.3695,126.2214 225.9966,127.2633 225.7278,128.3368 225.5654,129.4314 225.5111,130.5367 225.5654,131.642 225.7278,132.7366 225.9966,133.81 226.3695,134.8519 226.8426,135.8523 227.4115,136.8015 228.0707,137.6903 228.8138,138.5102 229.6338,139.2534 230.5226,139.9126 231.4718,140.4815 232.4721,140.9546 233.5141,141.3274 234.5875,141.5963 235.6821,141.7587 236.7874,141.813 237.8927,141.7587 238.9873,141.5963 240.0607,141.3274 241.1027,140.9546 242.103,140.4815 243.0522,139.9126 243.941,139.2534 244.761,138.5102 245.5041,137.6903 246.1633,136.8015 246.7322,135.8523 247.2054,134.8519 247.5782,133.81 247.847,132.7366 248.0094,131.642 248.0637,130.5367 248.0094,129.4314 247.847,128.3368 247.5782,127.2633 247.2054,126.2214 246.7322,125.2211 246.1633,124.2719 245.5041,123.3831 244.761,122.5631 243.941,121.82"/>
    <polygon points="251.5136,100.0347 251.3151,99.6151 251.1587,99.1781 251.046,98.7278 250.9778,98.2686 250.9551,97.805 250.9778,97.3414 251.046,96.8822 251.1587,96.432 251.3151,95.9949 251.5136,95.5753 251.7522,95.1772 252.0287,94.8044 252.3404,94.4604 252.6844,94.1487 253.0572,93.8722 253.4553,93.6336 253.875,93.4351 254.312,93.2787 254.7623,93.1659 255.2214,93.0978 255.685,93.075 256.1487,93.0978 256.6078,93.1659 257.0581,93.2787 257.4951,93.4351 257.9147,93.6336 258.3129,93.8722 258.6857,94.1487 259.0296,94.4604 259.3414,94.8044 259.6179,95.1772 259.8565,95.5753 260.055,95.9949 260.2113,96.432 260.3241,96.8822 260.3922,97.3414 260.415,97.805 260.3922,98.2686 260.3241,98.7278 260.2113,99.1781 260.055,99.6151 259.8565,100.0347 259.6179,100.4328 259.3414,100.8057 259.0296,101.1496 258.6857,101.4613 258.3129,101.7378 257.9147,101.9765 257.4951,102.1749 257.0581,102.3313 256.6078,102.4441 256.1487,102.5122 255.685,102.535 255.2214,102.5122 254.7623,102.4441 254.312,102.3313 253.875,102.1749 253.4553,101.9765 253.0572,101.7378 252.6844,101.4613 252.3404,101.1496 252.0287,100.8057 251.7522,100.4328"/>
    <polygon points="240.6901,101.3507 241.0019,101.0068 241.3458,100.695 241.7186,100.4185 242.1168,100.1799 242.5364,99.9814 242.9734,99.825 243.4237,99.7123 243.8828,99.6442 244.3465,99.6214 244.8101,99.6442 245.2692,99.7123 245.7195,99.825 246.1565,99.9814 246.5762,100.1799 246.9743,100.4185 247.3471,100.695 247.6911,101.0068 248.0028,101.3507 248.2793,101.7235 248.5179,102.1217 248.7164,102.5413 248.8728,102.9783 248.9855,103.4286 249.0537,103.8877 249.0764,104.3514 249.0537,104.815 248.9855,105.2741 248.8728,105.7244 248.7164,106.1614 248.5179,106.581 248.2793,106.9792 248.0028,107.352 247.6911,107.6959 247.3471,108.0077 246.9743,108.2842 246.5762,108.5228 246.1565,108.7213 245.7195,108.8777 245.2692,108.9904 244.8101,109.0585 244.3465,109.0813 243.8828,109.0585 243.4237,108.9904 242.9734,108.8777 242.5364,108.7213 242.1168,108.5228 241.7186,108.2842 241.3458,108.0077 241.0019,107.6959 240.6901,107.352 240.4136,106.9792 240.175,106.581 239.9765,106.1614 239.8202,105.7244 239.7074,105.2741 239.6393,104.815 239.6165,104.3514 239.6393,103.8877 239.7074,103.4286 239.8202,102.9783 239.9765,102.5413 240.175,102.1217 240.4136,101.7235"/>
    <polygon points="237.7151,110.4341 237.7378,110.8977 237.7151,111.3613 237.647,111.8205 237.5342,112.2707 237.3778,112.7078 237.1793,113.1274 236.9407,113.5255 236.6642,113.8983 236.3525,114.2423 236.0085,114.554 235.6357,114.8305 235.2376,115.0691 234.818,115.2676 234.3809,115.424 233.9306,115.5368 233.4715,115.6049 233.0079,115.6277 232.5443,115.6049 232.0851,115.5368 231.6348,115.424 231.1978,115.2676 230.7782,115.0691 230.38,114.8305 230.0072,114.554 229.6633,114.2423 229.3516,113.8983 229.075,113.5255 228.8364,113.1274 228.6379,112.7078 228.4816,112.2707 228.3688,111.8205 228.3007,111.3613 228.2779,110.8977 228.3007,110.4341 228.3688,109.9749 228.4816,109.5246 228.6379,109.0876 228.8364,108.668 229.075,108.2699 229.3516,107.897 229.6633,107.5531 230.0072,107.2414 230.38,106.9649 230.7782,106.7262 231.1978,106.5278 231.6348,106.3714 232.0851,106.2586 232.5443,106.1905 233.0079,106.1677 233.4715,106.1905 233.9306,106.2586 234.3809,106.3714 234.818,106.5278 235.2376,106.7262 235.6357,106.9649 236.0085,107.2414 236.3525,107.5531 236.6642,107.897 236.9407,108.2699 237.1793,108.668 237.3778,109.0876 237.5342,109.5246 237.647,109.9749"/>
    <polygon points="189.4636,132.7131 189.8832,132.9116 190.2814,133.1502 190.6542,133.4267 190.9981,133.7384 191.3099,134.0824 191.5864,134.4552 191.825,134.8533 192.0235,135.2729 192.1798,135.71 192.2926,136.1602 192.3607,136.6194 192.3835,137.083 192.3607,137.5466 192.2926,138.0058 192.1798,138.4561 192.0235,138.8931 191.825,139.3127 191.5864,139.7109 191.3099,140.0837 190.9981,140.4276 190.6542,140.7393 190.2814,141.0158 189.8832,141.2545 189.4636,141.4529 189.0266,141.6093 188.5763,141.7221 188.1172,141.7902 187.6535,141.813 187.1899,141.7902 186.7308,141.7221 186.2805,141.6093 185.8435,141.4529 185.4238,141.2545 185.0257,141.0158 184.6529,140.7393 184.3089,140.4276 183.9972,140.0837 183.7207,139.7109 183.4821,139.3127 183.2836,138.8931 183.1272,138.4561 183.0145,138.0058 182.9463,137.5466 182.9236,137.083 182.9463,136.6194 183.0145,136.1602 183.1272,135.71 183.2836,135.2729 183.4821,134.8533 183.7207,134.4552 183.9972,134.0824 184.3089,133.7384 184.6529,133.4267 185.0257,133.1502 185.4238,132.9116 185.8435,132.7131 186.2805,132.5567 186.7308,132.4439 187.1899,132.3758 187.6535,132.353 188.1172,132.3758 188.5763,132.4439 189.0266,132.5567"/>
    <polygon points="180.2478,127.9089 180.4864,128.307 180.6849,128.7266 180.8413,129.1636 180.954,129.6139 181.0222,130.0731 181.0449,130.5367 181.0222,131.0003 180.954,131.4595 180.8413,131.9097 180.6849,132.3468 180.4864,132.7664 180.2478,133.1645 179.9713,133.5373 179.6596,133.8813 179.3156,134.193 178.9428,134.4695 178.5447,134.7081 178.125,134.9066 177.688,135.063 177.2377,135.1758 176.7786,135.2439 176.315,135.2667 175.8513,135.2439 175.3922,135.1758 174.9419,135.063 174.5049,134.9066 174.0853,134.7081 173.6871,134.4695 173.3143,134.193 172.9704,133.8813 172.6586,133.5373 172.3821,133.1645 172.1435,132.7664 171.945,132.3468 171.7887,131.9097 171.6759,131.4595 171.6078,131.0003 171.585,130.5367 171.6078,130.0731 171.6759,129.6139 171.7887,129.1636 171.945,128.7266 172.1435,128.307 172.3821,127.9089 172.6586,127.536 172.9704,127.1921 173.3143,126.8804 173.6871,126.6039 174.0853,126.3652 174.5049,126.1668 174.9419,126.0104 175.3922,125.8976 175.8513,125.8295 176.315,125.8067 176.7786,125.8295 177.2377,125.8976 177.688,126.0104 178.125,126.1668 178.5447,126.3652 178.9428,126.6039 179.3156,126.8804 179.6596,127.1921 179.9713,127.536"/>
    <polygon points="174.9419,112.9177 174.5049,113.0741 174.0853,113.2726 173.6871,113.5112 173.3143,113.7877 172.9704,114.0994 172.6586,114.4434 172.3821,114.8162 172.1435,115.2143 171.945,115.6339 171.7887,116.071 171.6759,116.5212 171.6078,116.9804 171.585,117.444 171.6078,117.9076 171.6759,118.3668 171.7887,118.8171 171.945,119.2541 172.1435,119.6737 172.3821,120.0719 172.6586,120.4447 172.9704,120.7886 173.3143,121.1003 173.6871,121.3768 174.0853,121.6155 174.5049,121.8139 174.9419,121.9703 175.3922,122.0831 175.8513,122.1512 176.315,122.174 176.7786,122.1512 177.2377,122.0831 177.688,121.9703 178.125,121.8139 178.5447,121.6155 178.9428,121.3768 179.3156,121.1003 179.6596,120.7886 179.9713,120.4447 180.2478,120.0719 180.4864,119.6737 180.6849,119.2541 180.8413,118.8171 180.954,118.3668 181.0222,117.9076 181.0449,117.444 181.0222,116.9804 180.954,116.5212 180.8413,116.071 180.6849,115.6339 180.4864,115.2143 180.2478,114.8162 179.9713,114.4434 179.6596,114.0994 179.3156,113.7877 178.9428,113.5112 178.5447,113.2726 178.125,113.0741 177.688,112.9177 177.2377,112.8049 176.7786,112.7368 176.315,112.714 175.8513,112.7368 175.3922,112.8049"/>
    <polygon points="171.6078,104.815 171.585,104.3514 171.6078,103.8877 171.6759,103.4286 171.7887,102.9783 171.945,102.5413 172.1435,102.1217 172.3821,101.7235 172.6586,101.3507 172.9704,101.0068 173.3143,100.695 173.6871,100.4185 174.0853,100.1799 174.5049,99.9814 174.9419,99.825 175.3922,99.7123 175.8513,99.6442 176.315,99.6214 176.7786,99.6442 177.2377,99.7123 177.688,99.825 178.125,99.9814 178.5447,100.1799 178.9428,100.4185 179.3156,100.695 179.6596,101.0068 179.9713,101.3507 180.2478,101.7235 180.4864,102.1217 180.6849,102.5413 180.8413,102.9783 180.954,103.4286 181.0222,103.8877 181.0449,104.3514 181.0222,104.815 180.954,105.2741 180.8413,105.7244 180.6849,106.1614 180.4864,106.581 180.2478,106.9792 179.9713,107.352 179.6596,107.6959 179.3156,108.0077 178.9428,108.2842 178.5447,108.5228 178.125,108.7213 177.688,108.8777 177.2377,108.9904 176.7786,109.0585 176.315,109.0813 175.8513,109.0585 175.3922,108.9904 174.9419,108.8777 174.5049,108.7213 174.0853,108.5228 173.6871,108.2842 173.3143,108.0077 172.9704,107.6959 172.6586,107.352 172.3821,106.9792 172.1435,106.581 171.945,106.1614 171.7887,105.7244 171.6759,105.2741"/>
    <polygon points="169.6836,111.3613 169.6155,111.8205 169.5027,112.2707 169.3463,112.7078 169.1478,113.1274 168.9092,113.5255 168.6327,113.8983 168.321,114.2423 167.977,114.554 167.6042,114.8305 167.2061,115.0691 166.7865,115.2676 166.3494,115.424 165.8991,115.5368 165.44,115.6049 164.9764,115.6277 164.5128,115.6049 164.0536,115.5368 163.6033,115.424 163.1663,115.2676 162.7467,115.0691 162.3485,114.8305 161.9757,114.554 161.6318,114.2423 161.3201,113.8983 161.0435,113.5255 160.8049,113.1274 160.6065,112.7078 160.4501,112.2707 160.3373,111.8205 160.2692,111.3613 160.2464,110.8977 160.2692,110.4341 160.3373,109.9749 160.4501,109.5246 160.6065,109.0876 160.8049,108.668 161.0435,108.2699 161.3201,107.897 161.6318,107.5531 161.9757,107.2414 162.3485,106.9649 162.7467,106.7262 163.1663,106.5278 163.6033,106.3714 164.0536,106.2586 164.5128,106.1905 164.9764,106.1677 165.44,106.1905 165.8991,106.2586 166.3494,106.3714 166.7865,106.5278 167.2061,106.7262 167.6042,106.9649 167.977,107.2414 168.321,107.5531 168.6327,107.897 168.9092,108.2699 169.1478,108.668 169.3463,109.0876 169.5027,109.5246 169.6155,109.9749 169.6836,110.4341 169.7064,110.8977"/>
    <polygon points="163.6033,128.5167 163.1663,128.3603 162.7467,128.1618 162.3485,127.9232 161.9757,127.6467 161.6318,127.3349 161.3201,126.991 161.0435,126.6182 160.8049,126.22 160.6065,125.8004 160.4501,125.3634 160.3373,124.9131 160.2692,124.454 160.2464,123.9904 160.2692,123.5267 160.3373,123.0676 160.4501,122.6173 160.6065,122.1803 160.8049,121.7607 161.0435,121.3625 161.3201,120.9897 161.6318,120.6458 161.9757,120.334 162.3485,120.0575 162.7467,119.8189 163.1663,119.6204 163.6033,119.4641 164.0536,119.3513 164.5128,119.2832 164.9764,119.2604 165.44,119.2832 165.8991,119.3513 166.3494,119.4641 166.7865,119.6204 167.2061,119.8189 167.6042,120.0575 167.977,120.334 168.321,120.6458 168.6327,120.9897 168.9092,121.3625 169.1478,121.7607 169.3463,122.1803 169.5027,122.6173 169.6155,123.0676 169.6836,123.5267 169.7064,123.9904 169.6836,124.454 169.6155,124.9131 169.5027,125.3634 169.3463,125.8004 169.1478,126.22 168.9092,126.6182 168.6327,126.991 168.321,127.3349 167.977,127.6467 167.6042,127.9232 167.2061,128.1618 166.7865,128.3603 166.3494,128.5167 165.8991,128.6294 165.44,128.6975 164.9764,128.7203 164.5128,128.6975 164.0536,128.6294"/>
    <polygon points="148.9306,130.0731 148.9987,129.6139 149.1115,129.1636 149.2679,128.7266 149.4663,128.307 149.705,127.9089 149.9815,127.536 150.2932,127.1921 150.6371,126.8804 151.01,126.6039 151.4081,126.3652 151.8277,126.1668 152.2648,126.0104 152.715,125.8976 153.1742,125.8295 153.6378,125.8067 154.1014,125.8295 154.5606,125.8976 155.0108,126.0104 155.4479,126.1668 155.8675,126.3652 156.2656,126.6039 156.6385,126.8804 156.9824,127.1921 157.2941,127.536 157.5706,127.9089 157.8093,128.307 158.0077,128.7266 158.1641,129.1636 158.2769,129.6139 158.345,130.0731 158.3678,130.5367 158.345,131.0003 158.2769,131.4595 158.1641,131.9097 158.0077,132.3468 157.8093,132.7664 157.5706,133.1645 157.2941,133.5373 156.9824,133.8813 156.6385,134.193 156.2656,134.4695 155.8675,134.7081 155.4479,134.9066 155.0108,135.063 154.5606,135.1758 154.1014,135.2439 153.6378,135.2667 153.1742,135.2439 152.715,135.1758 152.2648,135.063 151.8277,134.9066 151.4081,134.7081 151.01,134.4695 150.6371,134.193 150.2932,133.8813 149.9815,133.5373 149.705,133.1645 149.4663,132.7664 149.2679,132.3468 149.1115,131.9097 148.9987,131.4595 148.9306,131.0003 148.9078,130.5367"/>
    <polygon points="145.2999,153.832 145.6438,153.5203 145.9555,153.1763 146.232,152.8035 146.4707,152.4054 146.6691,151.9858 146.8255,151.5487 146.9383,151.0985 147.0064,150.6393 147.0292,150.1757 147.0064,149.7121 146.9383,149.2529 146.8255,148.8026 146.6691,148.3656 146.4707,147.946 146.232,147.5479 145.9555,147.175 145.6438,146.8311 145.2999,146.5194 144.927,146.2429 144.5289,146.0042 144.1093,145.8058 143.6723,145.6494 143.222,145.5366 142.7628,145.4685 142.2992,145.4457 141.8356,145.4685 141.3764,145.5366 140.9262,145.6494 140.4891,145.8058 140.0695,146.0042 139.6714,146.2429 139.2985,146.5194 138.9546,146.8311 138.6429,147.175 138.3664,147.5479 138.1277,147.946 137.9293,148.3656 137.7729,148.8026 137.6601,149.2529 137.592,149.7121 137.5692,150.1757 137.592,150.6393 137.6601,151.0985 137.7729,151.5487 137.9293,151.9858 138.1277,152.4054 138.3664,152.8035 138.6429,153.1763 138.9546,153.5203 139.2985,153.832 139.6714,154.1085 140.0695,154.3472 140.4891,154.5456 140.9262,154.702 141.3764,154.8148 141.8356,154.8829 142.2992,154.9057 142.7628,154.8829 143.222,154.8148 143.6723,154.702 144.1093,154.5456 144.5289,154.3472 144.927,154.1085"/>
    <polygon points="138.3664,160.6405 138.1277,161.0387 137.9293,161.4583 137.7729,161.8953 137.6601,162.3456 137.592,162.8047 137.5692,163.2684 137.592,163.732 137.6601,164.1911 137.7729,164.6414 137.9293,165.0784 138.1277,165.498 138.3664,165.8962 138.6429,166.269 138.9546,166.613 139.2985,166.9247 139.6714,167.2012 140.0695,167.4398 140.4891,167.6383 140.9262,167.7947 141.3764,167.9074 141.8356,167.9756 142.2992,167.9983 142.7628,167.9756 143.222,167.9074 143.6723,167.7947 144.1093,167.6383 144.5289,167.4398 144.927,167.2012 145.2999,166.9247 145.6438,166.613 145.9555,166.269 146.232,165.8962 146.4707,165.498 146.6691,165.0784 146.8255,164.6414 146.9383,164.1911 147.0064,163.732 147.0292,163.2684 147.0064,162.8047 146.9383,162.3456 146.8255,161.8953 146.6691,161.4583 146.4707,161.0387 146.232,160.6405 145.9555,160.2677 145.6438,159.9238 145.2999,159.612 144.927,159.3355 144.5289,159.0969 144.1093,158.8984 143.6723,158.7421 143.222,158.6293 142.7628,158.5612 142.2992,158.5384 141.8356,158.5612 141.3764,158.6293 140.9262,158.7421 140.4891,158.8984 140.0695,159.0969 139.6714,159.3355 139.2985,159.612 138.9546,159.9238 138.6429,160.2677"/>
    <polygon points="126.3215,155.7992 126.4343,155.349 126.5907,154.9119 126.7892,154.4923 127.0278,154.0942 127.3043,153.7214 127.616,153.3774 127.96,153.0657 128.3328,152.7892 128.7309,152.5506 129.1505,152.3521 129.5876,152.1957 130.0379,152.0829 130.497,152.0148 130.9606,151.992 131.4242,152.0148 131.8834,152.0829 132.3337,152.1957 132.7707,152.3521 133.1903,152.5506 133.5885,152.7892 133.9613,153.0657 134.3052,153.3774 134.6169,153.7214 134.8935,154.0942 135.1321,154.4923 135.3306,154.9119 135.4869,155.349 135.5997,155.7992 135.6678,156.2584 135.6906,156.722 135.6678,157.1856 135.5997,157.6448 135.4869,158.0951 135.3306,158.5321 135.1321,158.9517 134.8935,159.3499 134.6169,159.7227 134.3052,160.0666 133.9613,160.3783 133.5885,160.6548 133.1903,160.8935 132.7707,161.0919 132.3337,161.2483 131.8834,161.3611 131.4242,161.4292 130.9606,161.452 130.497,161.4292 130.0379,161.3611 129.5876,161.2483 129.1505,161.0919 128.7309,160.8935 128.3328,160.6548 127.96,160.3783 127.616,160.0666 127.3043,159.7227 127.0278,159.3499 126.7892,158.9517 126.5907,158.5321 126.4343,158.0951 126.3215,157.6448 126.2534,157.1856 126.2307,156.722 126.2534,156.2584"/>
    <polygon points="135.3306,171.6248 135.1321,172.0444 134.8935,172.4425 134.6169,172.8154 134.3052,173.1593 133.9613,173.471 133.5885,173.7475 133.1903,173.9862 132.7707,174.1846 132.3337,174.341 131.8834,174.4538 131.4242,174.5219 130.9606,174.5447 130.497,174.5219 130.0379,174.4538 129.5876,174.341 129.1505,174.1846 128.7309,173.9862 128.3328,173.7475 127.96,173.471 127.616,173.1593 127.3043,172.8154 127.0278,172.4425 126.7892,172.0444 126.5907,171.6248 126.4343,171.1877 126.3215,170.7375 126.2534,170.2783 126.2307,169.8147 126.2534,169.3511 126.3215,168.8919 126.4343,168.4416 126.5907,168.0046 126.7892,167.585 127.0278,167.1869 127.3043,166.814 127.616,166.4701 127.96,166.1584 128.3328,165.8819 128.7309,165.6432 129.1505,165.4448 129.5876,165.2884 130.0379,165.1756 130.497,165.1075 130.9606,165.0847 131.4242,165.1075 131.8834,165.1756 132.3337,165.2884 132.7707,165.4448 133.1903,165.6432 133.5885,165.8819 133.9613,166.1584 134.3052,166.4701 134.6169,166.814 134.8935,167.1869 135.1321,167.585 135.3306,168.0046 135.4869,168.4416 135.5997,168.8919 135.6678,169.3511 135.6906,169.8147 135.6678,170.2783 135.5997,170.7375 135.4869,171.1877"/>
    <polygon points="108.698,190.8809 109.4411,190.061 110.1003,189.1721 110.6692,188.223 111.1424,187.2226 111.5152,186.1807 111.784,185.1073 111.9464,184.0126 112.0007,182.9074 111.9464,181.8021 111.784,180.7075 111.5152,179.634 111.1424,178.5921 110.6692,177.5917 110.1003,176.6426 109.4411,175.7537 108.698,174.9338 107.878,174.1907 106.9892,173.5314 106.04,172.9625 105.0397,172.4894 103.9977,172.1166 102.9243,171.8477 101.8297,171.6853 100.7244,171.631 99.6191,171.6853 98.5245,171.8477 97.4511,172.1166 96.4092,172.4894 95.4088,172.9625 94.4596,173.5314 93.5708,174.1907 92.7509,174.9338 92.0077,175.7537 91.3485,176.6426 90.7796,177.5917 90.3065,178.5921 89.9337,179.634 89.6648,180.7075 89.5024,181.8021 89.4481,182.9074 89.5024,184.0126 89.6648,185.1073 89.9337,186.1807 90.3065,187.2226 90.7796,188.223 91.3485,189.1721 92.0077,190.061 92.7509,190.8809 93.5708,191.6241 94.4596,192.2833 95.4088,192.8522 96.4092,193.3253 97.4511,193.6981 98.5245,193.967 99.6191,194.1294 100.7244,194.1837 101.8297,194.1294 102.9243,193.967 103.9977,193.6981 105.0397,193.3253 106.04,192.8522 106.9892,192.2833 107.878,191.6241"/>
    <polygon points="92.4186,161.8953 92.575,161.4583 92.7734,161.0387 93.0121,160.6405 93.2886,160.2677 93.6003,159.9238 93.9442,159.612 94.317,159.3355 94.7152,159.0969 95.1348,158.8984 95.5718,158.7421 96.0221,158.6293 96.4813,158.5612 96.9449,158.5384 97.4085,158.5612 97.8677,158.6293 98.3179,158.7421 98.755,158.8984 99.1746,159.0969 99.5727,159.3355 99.9455,159.612 100.2895,159.9238 100.6012,160.2677 100.8777,160.6405 101.1163,161.0387 101.3148,161.4583 101.4712,161.8953 101.584,162.3456 101.6521,162.8047 101.6749,163.2684 101.6521,163.732 101.584,164.1911 101.4712,164.6414 101.3148,165.0784 101.1163,165.498 100.8777,165.8962 100.6012,166.269 100.2895,166.613 99.9455,166.9247 99.5727,167.2012 99.1746,167.4398 98.755,167.6383 98.3179,167.7947 97.8677,167.9074 97.4085,167.9756 96.9449,167.9983 96.4813,167.9756 96.0221,167.9074 95.5718,167.7947 95.1348,167.6383 94.7152,167.4398 94.317,167.2012 93.9442,166.9247 93.6003,166.613 93.2886,166.269 93.0121,165.8962 92.7734,165.498 92.575,165.0784 92.4186,164.6414 92.3058,164.1911 92.2377,163.732 92.2149,163.2684 92.2377,162.8047 92.3058,162.3456"/>
    <polygon points="88.2341,173.7475 87.836,173.9862 87.4164,174.1846 86.9793,174.341 86.5291,174.4538 86.0699,174.5219 85.6063,174.5447 85.1427,174.5219 84.6835,174.4538 84.2333,174.341 83.7962,174.1846 83.3766,173.9862 82.9785,173.7475 82.6056,173.471 82.2617,173.1593 81.95,172.8154 81.6735,172.4425 81.4348,172.0444 81.2364,171.6248 81.08,171.1877 80.9672,170.7375 80.8991,170.2783 80.8763,169.8147 80.8991,169.3511 80.9672,168.8919 81.08,168.4416 81.2364,168.0046 81.4348,167.585 81.6735,167.1869 81.95,166.814 82.2617,166.4701 82.6056,166.1584 82.9785,165.8819 83.3766,165.6432 83.7962,165.4448 84.2333,165.2884 84.6835,165.1756 85.1427,165.1075 85.6063,165.0847 86.0699,165.1075 86.5291,165.1756 86.9793,165.2884 87.4164,165.4448 87.836,165.6432 88.2341,165.8819 88.607,166.1584 88.9509,166.4701 89.2626,166.814 89.5391,167.1869 89.7778,167.585 89.9762,168.0046 90.1326,168.4416 90.2454,168.8919 90.3135,169.3511 90.3363,169.8147 90.3135,170.2783 90.2454,170.7375 90.1326,171.1877 89.9762,171.6248 89.7778,172.0444 89.5391,172.4425 89.2626,172.8154 88.9509,173.1593 88.607,173.471"/>
    <polygon points="82.9785,199.9329 83.3766,200.1715 83.7962,200.3699 84.2333,200.5263 84.6835,200.6391 85.1427,200.7072 85.6063,200.73 86.0699,200.7072 86.5291,200.6391 86.9793,200.5263 87.4164,200.3699 87.836,200.1715 88.2341,199.9329 88.607,199.6563 88.9509,199.3446 89.2626,199.0007 89.5391,198.6279 89.7778,198.2297 89.9762,197.8101 90.1326,197.3731 90.2454,196.9228 90.3135,196.4636 90.3363,196.0 90.3135,195.5364 90.2454,195.0773 90.1326,194.627 89.9762,194.1899 89.7778,193.7703 89.5391,193.3722 89.2626,192.9994 88.9509,192.6554 88.607,192.3437 88.2341,192.0672 87.836,191.8286 87.4164,191.6301 86.9793,191.4737 86.5291,191.3609 86.0699,191.2928 85.6063,191.2701 85.1427,191.2928 84.6835,191.3609 84.2333,191.4737 83.7962,191.6301 83.3766,191.8286 82.9785,192.0672 82.6056,192.3437 82.2617,192.6554 81.95,192.9994 81.6735,193.3722 81.4348,193.7703 81.2364,194.1899 81.08,194.627 80.9672,195.0773 80.8991,195.5364 80.8763,196.0 80.8991,196.4636 80.9672,196.9228 81.08,197.3731 81.2364,197.8101 81.4348,198.2297 81.6735,198.6279 81.95,199.0007 82.2617,199.3446 82.6056,199.6563"/>
    <polygon points="90.3363,248.3707 90.3135,248.8343 90.2454,249.2935 90.1326,249.7437 89.9762,250.1808 89.7778,250.6004 89.5391,250.9985 89.2626,251.3714 88.9509,251.7153 88.607,252.027 88.2341,252.3035 87.836,252.5422 87.4164,252.7406 86.9793,252.897 86.5291,253.0098 86.0699,253.0779 85.6063,253.1007 85.1427,253.0779 84.6835,253.0098 84.2333,252.897 83.7962,252.7406 83.3766,252.5422 82.9785,252.3035 82.6056,252.027 82.2617,251.7153 81.95,251.3714 81.6735,250.9985 81.4348,250.6004 81.2364,250.1808 81.08,249.7437 80.9672,249.2935 80.8991,248.8343 80.8763,248.3707 80.8991,247.9071 80.9672,247.4479 81.08,246.9977 81.2364,246.5606 81.4348,246.141 81.6735,245.7429 81.95,245.37 82.2617,245.0261 82.6056,244.7144 82.9785,244.4379 83.3766,244.1992 83.7962,244.0008 84.2333,243.8444 84.6835,243.7316 85.1427,243.6635 85.6063,243.6407 86.0699,243.6635 86.5291,243.7316 86.9793,243.8444 87.4164,244.0008 87.836,244.1992 88.2341,244.4379 88.607,244.7144 88.9509,245.0261 89.2626,245.37 89.5391,245.7429 89.7778,246.141 89.9762,246.5606 90.1326,246.9977 90.2454,247.4479 90.3135,247.9071"/>
    <polygon points="80.8991,275.0196 80.8763,274.556 80.8991,274.0924 80.9672,273.6333 81.08,273.183 81.2364,272.7459 81.4348,272.3263 81.6735,271.9282 81.95,271.5554 82.2617,271.2114 82.6056,270.8997 82.9785,270.6232 83.3766,270.3846 83.7962,270.1861 84.2333,270.0297 84.6835,269.9169 85.1427,269.8488 85.6063,269.8261 86.0699,269.8488 86.5291,269.9169 86.9793,270.0297 87.4164,270.1861 87.836,270.3846 88.2341,270.6232 88.607,270.8997 88.9509,271.2114 89.2626,271.5554 89.5391,271.9282 89.7778,272.3263 89.9762,272.7459 90.1326,273.183 90.2454,273.6333 90.3135,274.0924 90.3363,274.556 90.3135,275.0196 90.2454,275.4788 90.1326,275.9291 89.9762,276.3661 89.7778,276.7857 89.5391,277.1839 89.2626,277.5567 88.9509,277.9006 88.607,278.2123 88.2341,278.4889 87.836,278.7275 87.4164,278.926 86.9793,279.0823 86.5291,279.1951 86.0699,279.2632 85.6063,279.286 85.1427,279.2632 84.6835,279.1951 84.2333,279.0823 83.7962,278.926 83.3766,278.7275 82.9785,278.4889 82.6056,278.2123 82.2617,277.9006 81.95,277.5567 81.6735,277.1839 81.4348,276.7857 81.2364,276.3661 81.08,275.9291 80.9672,275.4788"/>
    <polygon points="99.5727,277.1695 99.1746,276.9309 98.755,276.7324 98.3179,276.5761 97.8677,276.4633 97.4085,276.3952 96.9449,276.3724 96.4813,276.3952 96.0221,276.4633 95.5718,276.5761 95.1348,276.7324 94.7152,276.9309 94.317,277.1695 93.9442,277.446 93.6003,277.7578 93.2886,278.1017 93.0121,278.4745 92.7734,278.8727 92.575,279.2923 92.4186,279.7293 92.3058,280.1796 92.2377,280.6387 92.2149,281.1024 92.2377,281.566 92.3058,282.0251 92.4186,282.4754 92.575,282.9124 92.7734,283.3321 93.0121,283.7302 93.2886,284.103 93.6003,284.447 93.9442,284.7587 94.317,285.0352 94.7152,285.2738 95.1348,285.4723 95.5718,285.6287 96.0221,285.7414 96.4813,285.8096 96.9449,285.8323 97.4085,285.8096 97.8677,285.7414 98.3179,285.6287 98.755,285.4723 99.1746,285.2738 99.5727,285.0352 99.9455,284.7587 100.2895,284.447 100.6012,284.103 100.8777,283.7302 101.1163,283.3321 101.3148,282.9124 101.4712,282.4754 101.584,282.0251 101.6521,281.566 101.6749,281.1024 101.6521,280.6387 101.584,280.1796 101.4712,279.7293 101.3148,279.2923 101.1163,278.8727 100.8777,278.4745 100.6012,278.1017 100.2895,277.7578 99.9455,277.446"/>
    <polygon points="107.878,270.1801 108.698,269.4369 109.4411,268.617 110.1003,267.7281 110.6692,266.779 111.1424,265.7786 111.5152,264.7367 111.784,263.6633 111.9464,262.5686 112.0007,261.4634 111.9464,260.3581 111.784,259.2635 111.5152,258.19 111.1424,257.1481 110.6692,256.1477 110.1003,255.1986 109.4411,254.3097 108.698,253.4898 107.878,252.7467 106.9892,252.0875 106.04,251.5185 105.0397,251.0454 103.9977,250.6726 102.9243,250.4037 101.8297,250.2414 100.7244,250.1871 99.6191,250.2414 98.5245,250.4037 97.4511,250.6726 96.4092,251.0454 95.4088,251.5185 94.4596,252.0875 93.5708,252.7467 92.7509,253.4898 92.0077,254.3097 91.3485,255.1986 90.7796,256.1477 90.3065,257.1481 89.9337,258.19 89.6648,259.2635 89.5024,260.3581 89.4481,261.4634 89.5024,262.5686 89.6648,263.6633 89.9337,264.7367 90.3065,265.7786 90.7796,266.779 91.3485,267.7281 92.0077,268.617 92.7509,269.4369 93.5708,270.1801 94.4596,270.8393 95.4088,271.4082 96.4092,271.8813 97.4511,272.2541 98.5245,272.523 99.6191,272.6854 100.7244,272.7397 101.8297,272.6854 102.9243,272.523 103.9977,272.2541 105.0397,271.8813 106.04,271.4082 106.9892,270.8393"/>
    <polygon points="135.1321,324.697 135.3306,325.1166 135.4869,325.5537 135.5997,326.0039 135.6678,326.4631 135.6906,326.9267 135.6678,327.3903 135.5997,327.8495 135.4869,328.2997 135.3306,328.7368 135.1321,329.1564 134.8935,329.5545 134.6169,329.9274 134.3052,330.2713 133.9613,330.583 133.5885,330.8595 133.1903,331.0982 132.7707,331.2966 132.3337,331.453 131.8834,331.5658 131.4242,331.6339 130.9606,331.6567 130.497,331.6339 130.0379,331.5658 129.5876,331.453 129.1505,331.2966 128.7309,331.0982 128.3328,330.8595 127.96,330.583 127.616,330.2713 127.3043,329.9274 127.0278,329.5545 126.7892,329.1564 126.5907,328.7368 126.4343,328.2997 126.3215,327.8495 126.2534,327.3903 126.2307,326.9267 126.2534,326.4631 126.3215,326.0039 126.4343,325.5537 126.5907,325.1166 126.7892,324.697 127.0278,324.2989 127.3043,323.926 127.616,323.5821 127.96,323.2704 128.3328,322.9939 128.7309,322.7552 129.1505,322.5568 129.5876,322.4004 130.0379,322.2876 130.497,322.2195 130.9606,322.1967 131.4242,322.2195 131.8834,322.2876 132.3337,322.4004 132.7707,322.5568 133.1903,322.7552 133.5885,322.9939 133.9613,323.2704 134.3052,323.5821 134.6169,323.926 134.8935,324.2989"/>
    <polygon points="138.1052,332.0458 138.9251,331.3027 139.814,330.6435 140.7631,330.0746 141.7635,329.6014 142.8054,329.2286 143.8788,328.9597 144.9735,328.7974 146.0787,328.7431 147.184,328.7974 148.2786,328.9597 149.3521,329.2286 150.394,329.6014 151.3944,330.0746 152.3435,330.6435 153.2324,331.3027 154.0523,332.0458 154.7954,332.8658 155.4546,333.7546 156.0236,334.7038 156.4967,335.7041 156.8695,336.746 157.1384,337.8195 157.3007,338.9141 157.355,340.0194 157.3007,341.1246 157.1384,342.2193 156.8695,343.2927 156.4967,344.3346 156.0236,345.335 155.4546,346.2841 154.7954,347.173 154.0523,347.9929 153.2324,348.7361 152.3435,349.3953 151.3944,349.9642 150.394,350.4373 149.3521,350.8101 148.2786,351.079 147.184,351.2414 146.0787,351.2957 144.9735,351.2414 143.8788,351.079 142.8054,350.8101 141.7635,350.4373 140.7631,349.9642 139.814,349.3953 138.9251,348.7361 138.1052,347.9929 137.362,347.173 136.7028,346.2841 136.1339,345.335 135.6608,344.3346 135.288,343.2927 135.0191,342.2193 134.8567,341.1246 134.8024,340.0194 134.8567,338.9141 135.0191,337.8195 135.288,336.746 135.6608,335.7041 136.1339,334.7038 136.7028,333.7546 137.362,332.8658"/>
    <polygon points="135.4869,351.739 135.3306,351.302 135.1321,350.8823 134.8935,350.4842 134.6169,350.1114 134.3052,349.7674 133.9613,349.4557 133.5885,349.1792 133.1903,348.9406 132.7707,348.7421 132.3337,348.5857 131.8834,348.4729 131.4242,348.4048 130.9606,348.3821 130.497,348.4048 130.0379,348.4729 129.5876,348.5857 129.1505,348.7421 128.7309,348.9406 128.3328,349.1792 127.96,349.4557 127.616,349.7674 127.3043,350.1114 127.0278,350.4842 126.7892,350.8823 126.5907,351.302 126.4343,351.739 126.3215,352.1893 126.2534,352.6484 126.2307,353.112 126.2534,353.5757 126.3215,354.0348 126.4343,354.4851 126.5907,354.9221 126.7892,355.3417 127.0278,355.7399 127.3043,356.1127 127.616,356.4566 127.96,356.7684 128.3328,357.0449 128.7309,357.2835 129.1505,357.482 129.5876,357.6383 130.0379,357.7511 130.497,357.8192 130.9606,357.842 131.4242,357.8192 131.8834,357.7511 132.3337,357.6383 132.7707,357.482 133.1903,357.2835 133.5885,357.0449 133.9613,356.7684 134.3052,356.4566 134.6169,356.1127 134.8935,355.7399 135.1321,355.3417 135.3306,354.9221 135.4869,354.4851 135.5997,354.0348 135.6678,353.5757 135.6906,353.112 135.6678,352.6484 135.5997,352.1893"/>
    <polygon points="127.0278,363.5769 126.7892,363.975 126.5907,364.3946 126.4343,364.8317 126.3215,365.2819 126.2534,365.7411 126.2307,366.2047 126.2534,366.6683 126.3215,367.1275 126.4343,367.5777 126.5907,368.0148 126.7892,368.4344 127.0278,368.8325 127.3043,369.2054 127.616,369.5493 127.96,369.861 128.3328,370.1375 128.7309,370.3762 129.1505,370.5746 129.5876,370.731 130.0379,370.8438 130.497,370.9119 130.9606,370.9347 131.4242,370.9119 131.8834,370.8438 132.3337,370.731 132.7707,370.5746 133.1903,370.3762 133.5885,370.1375 133.9613,369.861 134.3052,369.5493 134.6169,369.2054 134.8935,368.8325 135.1321,368.4344 135.3306,368.0148 135.4869,367.5777 135.5997,367.1275 135.6678,366.6683 135.6906,366.2047 135.6678,365.7411 135.5997,365.2819 135.4869,364.8317 135.3306,364.3946 135.1321,363.975 134.8935,363.5769 134.6169,363.204 134.3052,362.8601 133.9613,362.5484 133.5885,362.2719 133.1903,362.0332 132.7707,361.8348 132.3337,361.6784 131.8834,361.5656 131.4242,361.4975 130.9606,361.4747 130.497,361.4975 130.0379,361.5656 129.5876,361.6784 129.1505,361.8348 128.7309,362.0332 128.3328,362.2719 127.96,362.5484 127.616,362.8601 127.3043,363.204"/>
  </g>
</svg>
