<?xml version="1.0" encoding="utf-8" ?>
<svg xmlns="http://www.w3.org/2000/svg" xmlns:cc="http://creativecommons.org/ns" xmlns:dc="http://purl.org/dc/elements/1.1/" xmlns:ev="http://www.w3.org/2001/xml-events" xmlns:inkscape="http://www.inkscape.org/namespaces/inkscape" xmlns:rdf="http://www.w3.org/1999/02/22-rdf-syntax-ns" xmlns:sodipodi="http://sodipodi.sourceforge.net/DTD/sodipodi-0.dtd" xmlns:xlink="http://www.w3.org/1999/xlink" baseProfile="tiny" height="15.875cm" version="1.2" viewBox="0 0 432.0 600.0" width="11.43cm">
  <metadata>
    <rdf:RDF>
      <cc:Work>
        <dc:format>image/svg+xml</dc:format>
        <dc:source>vsk save -s 123 -c hex-grid/config/bubble-coasters-2.json /Users/tobin/src/fabian/plotting/fabian-plotting/hex-grid/sketch_hex_grid.py</dc:source>
        <dc:date>2023-11-04T10:32:59.269704</dc:date>
      </cc:Work>
    </rdf:RDF>
  </metadata>
  <defs/>
  <g fill="none" id="layer1" inkscape:groupmode="layer" inkscape:label="1" stroke="#000000" stroke-width="0.7559" style="display:inline">
    <polygon points="315.0058,258.8499 314.6076,259.0885 314.188,259.287 313.751,259.4433 313.3007,259.5561 312.8416,259.6242 312.378,259.647 311.9143,259.6242 311.4552,259.5561 311.0049,259.4433 310.5679,259.287 310.1483,259.0885 309.7501,258.8499 309.3773,258.5733 309.0334,258.2616 308.7216,257.9177 308.4451,257.5449 308.2065,257.1467 308.008,256.7271 307.8517,256.2901 307.7389,255.8398 307.6708,255.3806 307.648,254.917 307.6708,254.4534 307.7389,253.9943 307.8517,253.544 308.008,253.1069 308.2065,252.6873 308.4451,252.2892 308.7216,251.9164 309.0334,251.5724 309.3773,251.2607 309.7501,250.9842 310.1483,250.7456 310.5679,250.5471 311.0049,250.3907 311.4552,250.2779 311.9143,250.2098 312.378,250.1871 312.8416,250.2098 313.3007,250.2779 313.751,250.3907 314.188,250.5471 314.6076,250.7456 315.0058,250.9842 315.3786,251.2607 315.7225,251.5724 316.0343,251.9164 316.3108,252.2892 316.5494,252.6873 316.7479,253.1069 316.9043,253.544 317.017,253.9943 317.0851,254.4534 317.1079,254.917 317.0851,255.3806 317.017,255.8398 316.9043,256.2901 316.7479,256.7271 316.5494,257.1467 316.3108,257.5449 316.0343,257.9177 315.7225,258.2616 315.3786,258.5733"/>
    <polygon points="297.1065,250.9985 296.8679,250.6004 296.6694,250.1808 296.5131,249.7437 296.4003,249.2935 296.3322,248.8343 296.3094,248.3707 296.3322,247.9071 296.4003,247.4479 296.5131,246.9977 296.6694,246.5606 296.8679,246.141 297.1065,245.7429 297.3831,245.37 297.6948,245.0261 298.0387,244.7144 298.4115,244.4379 298.8097,244.1992 299.2293,244.0008 299.6663,243.8444 300.1166,243.7316 300.5758,243.6635 301.0394,243.6407 301.503,243.6635 301.9621,243.7316 302.4124,243.8444 302.8495,244.0008 303.2691,244.1992 303.6672,244.4379 304.04,244.7144 304.384,245.0261 304.6957,245.37 304.9722,245.7429 305.2108,246.141 305.4093,246.5606 305.5657,246.9977 305.6785,247.4479 305.7466,247.9071 305.7693,248.3707 305.7466,248.8343 305.6785,249.2935 305.5657,249.7437 305.4093,250.1808 305.2108,250.6004 304.9722,250.9985 304.6957,251.3714 304.384,251.7153 304.04,252.027 303.6672,252.3035 303.2691,252.5422 302.8495,252.7406 302.4124,252.897 301.9621,253.0098 301.503,253.0779 301.0394,253.1007 300.5758,253.0779 300.1166,253.0098 299.6663,252.897 299.2293,252.7406 298.8097,252.5422 298.4115,252.3035 298.0387,252.027 297.6948,251.7153 297.3831,251.3714"/>
    <polygon points="293.6336,231.3595 293.3571,231.7324 293.0454,232.0763 292.7015,232.388 292.3286,232.6645 291.9305,232.9032 291.5109,233.1016 291.0738,233.258 290.6236,233.3708 290.1644,233.4389 289.7008,233.4617 289.2372,233.4389 288.778,233.3708 288.3277,233.258 287.8907,233.1016 287.4711,232.9032 287.073,232.6645 286.7001,232.388 286.3562,232.0763 286.0445,231.7324 285.768,231.3595 285.5293,230.9614 285.3309,230.5418 285.1745,230.1047 285.0617,229.6545 284.9936,229.1953 284.9708,228.7317 284.9936,228.2681 285.0617,227.8089 285.1745,227.3587 285.3309,226.9216 285.5293,226.502 285.768,226.1039 286.0445,225.731 286.3562,225.3871 286.7001,225.0754 287.073,224.7989 287.4711,224.5602 287.8907,224.3618 288.3277,224.2054 288.778,224.0926 289.2372,224.0245 289.7008,224.0017 290.1644,224.0245 290.6236,224.0926 291.0738,224.2054 291.5109,224.3618 291.9305,224.5602 292.3286,224.7989 292.7015,225.0754 293.0454,225.3871 293.3571,225.731 293.6336,226.1039 293.8723,226.502 294.0707,226.9216 294.2271,227.3587 294.3399,227.8089 294.408,228.2681 294.4308,228.7317 294.408,229.1953 294.3399,229.6545 294.2271,230.1047 294.0707,230.5418 293.8723,230.9614"/>
    <polygon points="286.3562,238.4798 286.7001,238.168 287.073,237.8915 287.4711,237.6529 287.8907,237.4544 288.3277,237.2981 288.778,237.1853 289.2372,237.1172 289.7008,237.0944 290.1644,237.1172 290.6236,237.1853 291.0738,237.2981 291.5109,237.4544 291.9305,237.6529 292.3286,237.8915 292.7015,238.168 293.0454,238.4798 293.3571,238.8237 293.6336,239.1965 293.8723,239.5947 294.0707,240.0143 294.2271,240.4513 294.3399,240.9016 294.408,241.3607 294.4308,241.8244 294.408,242.288 294.3399,242.7471 294.2271,243.1974 294.0707,243.6344 293.8723,244.0541 293.6336,244.4522 293.3571,244.825 293.0454,245.169 292.7015,245.4807 292.3286,245.7572 291.9305,245.9958 291.5109,246.1943 291.0738,246.3507 290.6236,246.4634 290.1644,246.5316 289.7008,246.5543 289.2372,246.5316 288.778,246.4634 288.3277,246.3507 287.8907,246.1943 287.4711,245.9958 287.073,245.7572 286.7001,245.4807 286.3562,245.169 286.0445,244.825 285.768,244.4522 285.5293,244.0541 285.3309,243.6344 285.1745,243.1974 285.0617,242.7471 284.9936,242.288 284.9708,241.8244 284.9936,241.3607 285.0617,240.9016 285.1745,240.4513 285.3309,240.0143 285.5293,239.5947 285.768,239.1965 286.0445,238.8237"/>
    <polygon points="261.4272,229.0132 262.0864,228.1244 262.8296,227.3045 263.6495,226.5613 264.5384,225.9021 265.4875,225.3332 266.4879,224.8601 267.5298,224.4873 268.6033,224.2184 269.6979,224.056 270.8031,224.0017 271.9084,224.056 273.003,224.2184 274.0765,224.4873 275.1184,224.8601 276.1188,225.3332 277.0679,225.9021 277.9568,226.5613 278.7767,227.3045 279.5199,228.1244 280.1791,229.0132 280.748,229.9624 281.2211,230.9628 281.5939,232.0047 281.8628,233.0781 282.0252,234.1728 282.0795,235.278 282.0252,236.3833 281.8628,237.4779 281.5939,238.5514 281.2211,239.5933 280.748,240.5936 280.1791,241.5428 279.5199,242.4316 278.7767,243.2516 277.9568,243.9947 277.0679,244.6539 276.1188,245.2228 275.1184,245.696 274.0765,246.0688 273.003,246.3377 271.9084,246.5 270.8031,246.5543 269.6979,246.5 268.6033,246.3377 267.5298,246.0688 266.4879,245.696 265.4875,245.2228 264.5384,244.6539 263.6495,243.9947 262.8296,243.2516 262.0864,242.4316 261.4272,241.5428 260.8583,240.5936 260.3852,239.5933 260.0124,238.5514 259.7435,237.4779 259.5811,236.3833 259.5268,235.278 259.5811,234.1728 259.7435,233.0781 260.0124,232.0047 260.3852,230.9628 260.8583,229.9624"/>
    <polygon points="238.1812,216.8697 238.7501,215.9206 239.4093,215.0317 240.1524,214.2118 240.9724,213.4687 241.8612,212.8095 242.8104,212.2405 243.8107,211.7674 244.8526,211.3946 245.9261,211.1257 247.0207,210.9634 248.126,210.9091 249.2313,210.9634 250.3259,211.1257 251.3993,211.3946 252.4412,211.7674 253.4416,212.2405 254.3908,212.8095 255.2796,213.4687 256.0995,214.2118 256.8427,215.0317 257.5019,215.9206 258.0708,216.8697 258.5439,217.8701 258.9167,218.912 259.1856,219.9855 259.348,221.0801 259.4023,222.1854 259.348,223.2906 259.1856,224.3853 258.9167,225.4587 258.5439,226.5006 258.0708,227.501 257.5019,228.4501 256.8427,229.339 256.0995,230.1589 255.2796,230.9021 254.3908,231.5613 253.4416,232.1302 252.4412,232.6033 251.3993,232.9761 250.3259,233.245 249.2313,233.4074 248.126,233.4617 247.0207,233.4074 245.9261,233.245 244.8526,232.9761 243.8107,232.6033 242.8104,232.1302 241.8612,231.5613 240.9724,230.9021 240.1524,230.1589 239.4093,229.339 238.7501,228.4501 238.1812,227.501 237.708,226.5006 237.3352,225.4587 237.0663,224.3853 236.904,223.2906 236.8497,222.1854 236.904,221.0801 237.0663,219.9855 237.3352,218.912 237.708,217.8701"/>
    <polygon points="249.0764,254.917 249.0537,255.3806 248.9855,255.8398 248.8728,256.2901 248.7164,256.7271 248.5179,257.1467 248.2793,257.5449 248.0028,257.9177 247.6911,258.2616 247.3471,258.5733 246.9743,258.8499 246.5762,259.0885 246.1565,259.287 245.7195,259.4433 245.2692,259.5561 244.8101,259.6242 244.3465,259.647 243.8828,259.6242 243.4237,259.5561 242.9734,259.4433 242.5364,259.287 242.1168,259.0885 241.7186,258.8499 241.3458,258.5733 241.0019,258.2616 240.6901,257.9177 240.4136,257.5449 240.175,257.1467 239.9765,256.7271 239.8202,256.2901 239.7074,255.8398 239.6393,255.3806 239.6165,254.917 239.6393,254.4534 239.7074,253.9943 239.8202,253.544 239.9765,253.1069 240.175,252.6873 240.4136,252.2892 240.6901,251.9164 241.0019,251.5724 241.3458,251.2607 241.7186,250.9842 242.1168,250.7456 242.5364,250.5471 242.9734,250.3907 243.4237,250.2779 243.8828,250.2098 244.3465,250.1871 244.8101,250.2098 245.2692,250.2779 245.7195,250.3907 246.1565,250.5471 246.5762,250.7456 246.9743,250.9842 247.3471,251.2607 247.6911,251.5724 248.0028,251.9164 248.2793,252.2892 248.5179,252.6873 248.7164,253.1069 248.8728,253.544 248.9855,253.9943 249.0537,254.4534"/>
    <polygon points="253.4416,284.5008 252.4412,284.974 251.3993,285.3468 250.3259,285.6157 249.2313,285.778 248.126,285.8323 247.0207,285.778 245.9261,285.6157 244.8526,285.3468 243.8107,284.974 242.8104,284.5008 241.8612,283.9319 240.9724,283.2727 240.1524,282.5296 239.4093,281.7096 238.7501,280.8208 238.1812,279.8716 237.708,278.8713 237.3352,277.8294 237.0663,276.7559 236.904,275.6613 236.8497,274.556 236.904,273.4508 237.0663,272.3561 237.3352,271.2827 237.708,270.2408 238.1812,269.2404 238.7501,268.2912 239.4093,267.4024 240.1524,266.5825 240.9724,265.8393 241.8612,265.1801 242.8104,264.6112 243.8107,264.1381 244.8526,263.7653 245.9261,263.4964 247.0207,263.334 248.126,263.2797 249.2313,263.334 250.3259,263.4964 251.3993,263.7653 252.4412,264.1381 253.4416,264.6112 254.3908,265.1801 255.2796,265.8393 256.0995,266.5825 256.8427,267.4024 257.5019,268.2912 258.0708,269.2404 258.5439,270.2408 258.9167,271.2827 259.1856,272.3561 259.348,273.4508 259.4023,274.556 259.348,275.6613 259.1856,276.7559 258.9167,277.8294 258.5439,278.8713 258.0708,279.8716 257.5019,280.8208 256.8427,281.7096 256.0995,282.5296 255.2796,283.2727 254.3908,283.9319"/>
    <polygon points="265.2135,285.4723 264.7939,285.2738 264.3958,285.0352 264.023,284.7587 263.679,284.447 263.3673,284.103 263.0908,283.7302 262.8522,283.3321 262.6537,282.9124 262.4973,282.4754 262.3845,282.0251 262.3164,281.566 262.2936,281.1024 262.3164,280.6387 262.3845,280.1796 262.4973,279.7293 262.6537,279.2923 262.8522,278.8727 263.0908,278.4745 263.3673,278.1017 263.679,277.7578 264.023,277.446 264.3958,277.1695 264.7939,276.9309 265.2135,276.7324 265.6506,276.5761 266.1009,276.4633 266.56,276.3952 267.0236,276.3724 267.4872,276.3952 267.9464,276.4633 268.3967,276.5761 268.8337,276.7324 269.2533,276.9309 269.6515,277.1695 270.0243,277.446 270.3682,277.7578 270.6799,278.1017 270.9565,278.4745 271.1951,278.8727 271.3935,279.2923 271.5499,279.7293 271.6627,280.1796 271.7308,280.6387 271.7536,281.1024 271.7308,281.566 271.6627,282.0251 271.5499,282.4754 271.3935,282.9124 271.1951,283.3321 270.9565,283.7302 270.6799,284.103 270.3682,284.447 270.0243,284.7587 269.6515,285.0352 269.2533,285.2738 268.8337,285.4723 268.3967,285.6287 267.9464,285.7414 267.4872,285.8096 267.0236,285.8323 266.56,285.8096 266.1009,285.7414 265.6506,285.6287"/>
    <polygon points="263.679,297.5396 263.3673,297.1957 263.0908,296.8229 262.8522,296.4247 262.6537,296.0051 262.4973,295.5681 262.3845,295.1178 262.3164,294.6586 262.2936,294.195 262.3164,293.7314 262.3845,293.2723 262.4973,292.822 262.6537,292.3849 262.8522,291.9653 263.0908,291.5672 263.3673,291.1944 263.679,290.8504 264.023,290.5387 264.3958,290.2622 264.7939,290.0236 265.2135,289.8251 265.6506,289.6687 266.1009,289.5559 266.56,289.4878 267.0236,289.4651 267.4872,289.4878 267.9464,289.5559 268.3967,289.6687 268.8337,289.8251 269.2533,290.0236 269.6515,290.2622 270.0243,290.5387 270.3682,290.8504 270.6799,291.1944 270.9565,291.5672 271.1951,291.9653 271.3935,292.3849 271.5499,292.822 271.6627,293.2723 271.7308,293.7314 271.7536,294.195 271.7308,294.6586 271.6627,295.1178 271.5499,295.5681 271.3935,296.0051 271.1951,296.4247 270.9565,296.8229 270.6799,297.1957 270.3682,297.5396 270.0243,297.8513 269.6515,298.1279 269.2533,298.3665 268.8337,298.565 268.3967,298.7213 267.9464,298.8341 267.4872,298.9022 267.0236,298.925 266.56,298.9022 266.1009,298.8341 265.6506,298.7213 265.2135,298.565 264.7939,298.3665 264.3958,298.1279 264.023,297.8513"/>
    <polygon points="267.4872,302.5805 267.9464,302.6486 268.3967,302.7614 268.8337,302.9178 269.2533,303.1162 269.6515,303.3549 270.0243,303.6314 270.3682,303.9431 270.6799,304.287 270.9565,304.6599 271.1951,305.058 271.3935,305.4776 271.5499,305.9147 271.6627,306.3649 271.7308,306.8241 271.7536,307.2877 271.7308,307.7513 271.6627,308.2105 271.5499,308.6607 271.3935,309.0978 271.1951,309.5174 270.9565,309.9155 270.6799,310.2884 270.3682,310.6323 270.0243,310.944 269.6515,311.2205 269.2533,311.4592 268.8337,311.6576 268.3967,311.814 267.9464,311.9268 267.4872,311.9949 267.0236,312.0177 266.56,311.9949 266.1009,311.9268 265.6506,311.814 265.2135,311.6576 264.7939,311.4592 264.3958,311.2205 264.023,310.944 263.679,310.6323 263.3673,310.2884 263.0908,309.9155 262.8522,309.5174 262.6537,309.0978 262.4973,308.6607 262.3845,308.2105 262.3164,307.7513 262.2936,307.2877 262.3164,306.8241 262.3845,306.3649 262.4973,305.9147 262.6537,305.4776 262.8522,305.058 263.0908,304.6599 263.3673,304.287 263.679,303.9431 264.023,303.6314 264.3958,303.3549 264.7939,303.1162 265.2135,302.9178 265.6506,302.7614 266.1009,302.6486 266.56,302.5805 267.0236,302.5577"/>
    <polygon points="280.5919,291.8202 280.99,291.5815 281.3629,291.305 281.7068,290.9933 282.0185,290.6494 282.295,290.2765 282.5337,289.8784 282.7321,289.4588 282.8885,289.0217 283.0013,288.5715 283.0694,288.1123 283.0922,287.6487 283.0694,287.1851 283.0013,286.7259 282.8885,286.2757 282.7321,285.8386 282.5337,285.419 282.295,285.0209 282.0185,284.648 281.7068,284.3041 281.3629,283.9924 280.99,283.7159 280.5919,283.4772 280.1723,283.2788 279.7352,283.1224 279.285,283.0096 278.8258,282.9415 278.3622,282.9187 277.8986,282.9415 277.4394,283.0096 276.9892,283.1224 276.5521,283.2788 276.1325,283.4772 275.7344,283.7159 275.3615,283.9924 275.0176,284.3041 274.7059,284.648 274.4294,285.0209 274.1907,285.419 273.9923,285.8386 273.8359,286.2757 273.7231,286.7259 273.655,287.1851 273.6322,287.6487 273.655,288.1123 273.7231,288.5715 273.8359,289.0217 273.9923,289.4588 274.1907,289.8784 274.4294,290.2765 274.7059,290.6494 275.0176,290.9933 275.3615,291.305 275.7344,291.5815 276.1325,291.8202 276.5521,292.0186 276.9892,292.175 277.4394,292.2878 277.8986,292.3559 278.3622,292.3787 278.8258,292.3559 279.285,292.2878 279.7352,292.175 280.1723,292.0186"/>
    <polygon points="283.0694,301.205 283.0922,300.7414 283.0694,300.2777 283.0013,299.8186 282.8885,299.3683 282.7321,298.9313 282.5337,298.5117 282.295,298.1135 282.0185,297.7407 281.7068,297.3968 281.3629,297.085 280.99,296.8085 280.5919,296.5699 280.1723,296.3714 279.7352,296.2151 279.285,296.1023 278.8258,296.0342 278.3622,296.0114 277.8986,296.0342 277.4394,296.1023 276.9892,296.2151 276.5521,296.3714 276.1325,296.5699 275.7344,296.8085 275.3615,297.085 275.0176,297.3968 274.7059,297.7407 274.4294,298.1135 274.1907,298.5117 273.9923,298.9313 273.8359,299.3683 273.7231,299.8186 273.655,300.2777 273.6322,300.7414 273.655,301.205 273.7231,301.6641 273.8359,302.1144 273.9923,302.5514 274.1907,302.9711 274.4294,303.3692 274.7059,303.742 275.0176,304.086 275.3615,304.3977 275.7344,304.6742 276.1325,304.9128 276.5521,305.1113 276.9892,305.2677 277.4394,305.3805 277.8986,305.4486 278.3622,305.4713 278.8258,305.4486 279.285,305.3805 279.7352,305.2677 280.1723,305.1113 280.5919,304.9128 280.99,304.6742 281.3629,304.3977 281.7068,304.086 282.0185,303.742 282.295,303.3692 282.5337,302.9711 282.7321,302.5514 282.8885,302.1144 283.0013,301.6641"/>
    <polygon points="280.99,309.9012 280.5919,309.6626 280.1723,309.4641 279.7352,309.3077 279.285,309.1949 278.8258,309.1268 278.3622,309.1041 277.8986,309.1268 277.4394,309.1949 276.9892,309.3077 276.5521,309.4641 276.1325,309.6626 275.7344,309.9012 275.3615,310.1777 275.0176,310.4894 274.7059,310.8334 274.4294,311.2062 274.1907,311.6043 273.9923,312.0239 273.8359,312.461 273.7231,312.9113 273.655,313.3704 273.6322,313.834 273.655,314.2976 273.7231,314.7568 273.8359,315.2071 273.9923,315.6441 274.1907,316.0637 274.4294,316.4619 274.7059,316.8347 275.0176,317.1786 275.3615,317.4903 275.7344,317.7669 276.1325,318.0055 276.5521,318.204 276.9892,318.3603 277.4394,318.4731 277.8986,318.5412 278.3622,318.564 278.8258,318.5412 279.285,318.4731 279.7352,318.3603 280.1723,318.204 280.5919,318.0055 280.99,317.7669 281.3629,317.4903 281.7068,317.1786 282.0185,316.8347 282.295,316.4619 282.5337,316.0637 282.7321,315.6441 282.8885,315.2071 283.0013,314.7568 283.0694,314.2976 283.0922,313.834 283.0694,313.3704 283.0013,312.9113 282.8885,312.461 282.7321,312.0239 282.5337,311.6043 282.295,311.2062 282.0185,310.8334 281.7068,310.4894 281.3629,310.1777"/>
    <polygon points="265.2135,316.0104 265.6506,315.8541 266.1009,315.7413 266.56,315.6732 267.0236,315.6504 267.4872,315.6732 267.9464,315.7413 268.3967,315.8541 268.8337,316.0104 269.2533,316.2089 269.6515,316.4475 270.0243,316.724 270.3682,317.0358 270.6799,317.3797 270.9565,317.7525 271.1951,318.1507 271.3935,318.5703 271.5499,319.0073 271.6627,319.4576 271.7308,319.9167 271.7536,320.3804 271.7308,320.844 271.6627,321.3031 271.5499,321.7534 271.3935,322.1904 271.1951,322.6101 270.9565,323.0082 270.6799,323.381 270.3682,323.725 270.0243,324.0367 269.6515,324.3132 269.2533,324.5518 268.8337,324.7503 268.3967,324.9067 267.9464,325.0195 267.4872,325.0876 267.0236,325.1103 266.56,325.0876 266.1009,325.0195 265.6506,324.9067 265.2135,324.7503 264.7939,324.5518 264.3958,324.3132 264.023,324.0367 263.679,323.725 263.3673,323.381 263.0908,323.0082 262.8522,322.6101 262.6537,322.1904 262.4973,321.7534 262.3845,321.3031 262.3164,320.844 262.2936,320.3804 262.3164,319.9167 262.3845,319.4576 262.4973,319.0073 262.6537,318.5703 262.8522,318.1507 263.0908,317.7525 263.3673,317.3797 263.679,317.0358 264.023,316.724 264.3958,316.4475 264.7939,316.2089"/>
    <polygon points="248.2793,317.7525 248.5179,318.1507 248.7164,318.5703 248.8728,319.0073 248.9855,319.4576 249.0537,319.9167 249.0764,320.3804 249.0537,320.844 248.9855,321.3031 248.8728,321.7534 248.7164,322.1904 248.5179,322.6101 248.2793,323.0082 248.0028,323.381 247.6911,323.725 247.3471,324.0367 246.9743,324.3132 246.5762,324.5518 246.1565,324.7503 245.7195,324.9067 245.2692,325.0195 244.8101,325.0876 244.3465,325.1103 243.8828,325.0876 243.4237,325.0195 242.9734,324.9067 242.5364,324.7503 242.1168,324.5518 241.7186,324.3132 241.3458,324.0367 241.0019,323.725 240.6901,323.381 240.4136,323.0082 240.175,322.6101 239.9765,322.1904 239.8202,321.7534 239.7074,321.3031 239.6393,320.844 239.6165,320.3804 239.6393,319.9167 239.7074,319.4576 239.8202,319.0073 239.9765,318.5703 240.175,318.1507 240.4136,317.7525 240.6901,317.3797 241.0019,317.0358 241.3458,316.724 241.7186,316.4475 242.1168,316.2089 242.5364,316.0104 242.9734,315.8541 243.4237,315.7413 243.8828,315.6732 244.3465,315.6504 244.8101,315.6732 245.2692,315.7413 245.7195,315.8541 246.1565,316.0104 246.5762,316.2089 246.9743,316.4475 247.3471,316.724 247.6911,317.0358 248.0028,317.3797"/>
    <polygon points="247.0207,311.9634 245.9261,311.801 244.8526,311.5321 243.8107,311.1593 242.8104,310.6862 241.8612,310.1173 240.9724,309.4581 240.1524,308.7149 239.4093,307.895 238.7501,307.0061 238.1812,306.057 237.708,305.0566 237.3352,304.0147 237.0663,302.9413 236.904,301.8466 236.8497,300.7414 236.904,299.6361 237.0663,298.5415 237.3352,297.468 237.708,296.4261 238.1812,295.4257 238.7501,294.4766 239.4093,293.5878 240.1524,292.7678 240.9724,292.0247 241.8612,291.3655 242.8104,290.7965 243.8107,290.3234 244.8526,289.9506 245.9261,289.6817 247.0207,289.5194 248.126,289.4651 249.2313,289.5194 250.3259,289.6817 251.3993,289.9506 252.4412,290.3234 253.4416,290.7965 254.3908,291.3655 255.2796,292.0247 256.0995,292.7678 256.8427,293.5878 257.5019,294.4766 258.0708,295.4257 258.5439,296.4261 258.9167,297.468 259.1856,298.5415 259.348,299.6361 259.4023,300.7414 259.348,301.8466 259.1856,302.9413 258.9167,304.0147 258.5439,305.0566 258.0708,306.057 257.5019,307.0061 256.8427,307.895 256.0995,308.7149 255.2796,309.4581 254.3908,310.1173 253.4416,310.6862 252.4412,311.1593 251.3993,311.5321 250.3259,311.801 249.2313,311.9634 248.126,312.0177"/>
    <polygon points="205.5766,311.5494 207.9421,311.9003 210.3307,312.0177 212.7193,311.9003 215.0849,311.5494 217.4046,310.9684 219.6563,310.1627 221.8182,309.1402 223.8694,307.9108 225.7902,306.4862 227.5622,304.8802 229.1682,303.1082 230.5928,301.1874 231.8222,299.1362 232.8447,296.9743 233.6504,294.7226 234.2314,292.4028 234.5823,290.0373 234.6997,287.6487 234.5823,285.2601 234.2314,282.8945 233.6504,280.5748 232.8447,278.3231 231.8222,276.1612 230.5928,274.11 229.1682,272.1892 227.5622,270.4172 225.7902,268.8112 223.8694,267.3866 221.8182,266.1572 219.6563,265.1347 217.4046,264.329 215.0849,263.748 212.7193,263.3971 210.3307,263.2797 207.9421,263.3971 205.5766,263.748 203.2568,264.329 201.0051,265.1347 198.8433,266.1572 196.792,267.3866 194.8712,268.8112 193.0992,270.4172 191.4932,272.1892 190.0686,274.11 188.8392,276.1612 187.8167,278.3231 187.0111,280.5748 186.43,282.8945 186.0791,285.2601 185.9617,287.6487 186.0791,290.0373 186.43,292.4028 187.0111,294.7226 187.8167,296.9743 188.8392,299.1362 190.0686,301.1874 191.4932,303.1082 193.0992,304.8802 194.8712,306.4862 196.792,307.9108 198.8433,309.1402 201.0051,310.1627 203.2568,310.9684"/>
    <polygon points="203.8769,315.7047 202.7717,315.6504 201.6664,315.7047 200.5718,315.8671 199.4983,316.1359 198.4564,316.5087 197.456,316.9819 196.5069,317.5508 195.618,318.21 194.7981,318.9531 194.055,319.7731 193.3957,320.6619 192.8268,321.6111 192.3537,322.6114 191.9809,323.6534 191.712,324.7268 191.5496,325.8214 191.4953,326.9267 191.5496,328.032 191.712,329.1266 191.9809,330.2 192.3537,331.242 192.8268,332.2423 193.3957,333.1915 194.055,334.0803 194.7981,334.9003 195.618,335.6434 196.5069,336.3026 197.456,336.8715 198.4564,337.3446 199.4983,337.7175 200.5718,337.9863 201.6664,338.1487 202.7717,338.203 203.8769,338.1487 204.9716,337.9863 206.045,337.7175 207.0869,337.3446 208.0873,336.8715 209.0364,336.3026 209.9253,335.6434 210.7452,334.9003 211.4884,334.0803 212.1476,333.1915 212.7165,332.2423 213.1896,331.242 213.5624,330.2 213.8313,329.1266 213.9937,328.032 214.048,326.9267 213.9937,325.8214 213.8313,324.7268 213.5624,323.6534 213.1896,322.6114 212.7165,321.6111 212.1476,320.6619 211.4884,319.7731 210.7452,318.9531 209.9253,318.21 209.0364,317.5508 208.0873,316.9819 207.0869,316.5087 206.045,316.1359 204.9716,315.8671"/>
    <polygon points="208.0873,343.1672 207.0869,342.6941 206.045,342.3213 204.9716,342.0524 203.8769,341.89 202.7717,341.8357 201.6664,341.89 200.5718,342.0524 199.4983,342.3213 198.4564,342.6941 197.456,343.1672 196.5069,343.7361 195.618,344.3953 194.7981,345.1385 194.055,345.9584 193.3957,346.8473 192.8268,347.7964 192.3537,348.7968 191.9809,349.8387 191.712,350.9121 191.5496,352.0068 191.4953,353.112 191.5496,354.2173 191.712,355.3119 191.9809,356.3854 192.3537,357.4273 192.8268,358.4276 193.3957,359.3768 194.055,360.2656 194.7981,361.0856 195.618,361.8287 196.5069,362.4879 197.456,363.0568 198.4564,363.53 199.4983,363.9028 200.5718,364.1717 201.6664,364.334 202.7717,364.3883 203.8769,364.334 204.9716,364.1717 206.045,363.9028 207.0869,363.53 208.0873,363.0568 209.0364,362.4879 209.9253,361.8287 210.7452,361.0856 211.4884,360.2656 212.1476,359.3768 212.7165,358.4276 213.1896,357.4273 213.5624,356.3854 213.8313,355.3119 213.9937,354.2173 214.048,353.112 213.9937,352.0068 213.8313,350.9121 213.5624,349.8387 213.1896,348.7968 212.7165,347.7964 212.1476,346.8473 211.4884,345.9584 210.7452,345.1385 209.9253,344.3953 209.0364,343.7361"/>
    <polygon points="220.7465,338.1121 221.2057,338.1802 221.6693,338.203 222.1329,338.1802 222.5921,338.1121 223.0423,337.9993 223.4794,337.843 223.899,337.6445 224.2971,337.4059 224.67,337.1294 225.0139,336.8176 225.3256,336.4737 225.6021,336.1009 225.8408,335.7027 226.0392,335.2831 226.1956,334.8461 226.3084,334.3958 226.3765,333.9367 226.3993,333.473 226.3765,333.0094 226.3084,332.5503 226.1956,332.1 226.0392,331.663 225.8408,331.2433 225.6021,330.8452 225.3256,330.4724 225.0139,330.1284 224.67,329.8167 224.2971,329.5402 223.899,329.3016 223.4794,329.1031 223.0423,328.9467 222.5921,328.8339 222.1329,328.7658 221.6693,328.7431 221.2057,328.7658 220.7465,328.8339 220.2963,328.9467 219.8592,329.1031 219.4396,329.3016 219.0415,329.5402 218.6686,329.8167 218.3247,330.1284 218.013,330.4724 217.7365,330.8452 217.4978,331.2433 217.2994,331.663 217.143,332.1 217.0302,332.5503 216.9621,333.0094 216.9393,333.473 216.9621,333.9367 217.0302,334.3958 217.143,334.8461 217.2994,335.2831 217.4978,335.7027 217.7365,336.1009 218.013,336.4737 218.3247,336.8176 218.6686,337.1294 219.0415,337.4059 219.4396,337.6445 219.8592,337.843 220.2963,337.9993"/>
    <polygon points="220.7465,351.2048 221.2057,351.2729 221.6693,351.2957 222.1329,351.2729 222.5921,351.2048 223.0423,351.092 223.4794,350.9356 223.899,350.7372 224.2971,350.4985 224.67,350.222 225.0139,349.9103 225.3256,349.5664 225.6021,349.1935 225.8408,348.7954 226.0392,348.3758 226.1956,347.9387 226.3084,347.4885 226.3765,347.0293 226.3993,346.5657 226.3765,346.1021 226.3084,345.6429 226.1956,345.1927 226.0392,344.7556 225.8408,344.336 225.6021,343.9379 225.3256,343.565 225.0139,343.2211 224.67,342.9094 224.2971,342.6329 223.899,342.3942 223.4794,342.1958 223.0423,342.0394 222.5921,341.9266 222.1329,341.8585 221.6693,341.8357 221.2057,341.8585 220.7465,341.9266 220.2963,342.0394 219.8592,342.1958 219.4396,342.3942 219.0415,342.6329 218.6686,342.9094 218.3247,343.2211 218.013,343.565 217.7365,343.9379 217.4978,344.336 217.2994,344.7556 217.143,345.1927 217.0302,345.6429 216.9621,346.1021 216.9393,346.5657 216.9621,347.0293 217.0302,347.4885 217.143,347.9387 217.2994,348.3758 217.4978,348.7954 217.7365,349.1935 218.013,349.5664 218.3247,349.9103 218.6686,350.222 219.0415,350.4985 219.4396,350.7372 219.8592,350.9356 220.2963,351.092"/>
    <polygon points="244.3465,368.0211 243.8828,368.0438 243.4237,368.1119 242.9734,368.2247 242.5364,368.3811 242.1168,368.5796 241.7186,368.8182 241.3458,369.0947 241.0019,369.4064 240.6901,369.7504 240.4136,370.1232 240.175,370.5213 239.9765,370.941 239.8202,371.378 239.7074,371.8283 239.6393,372.2874 239.6165,372.751 239.6393,373.2147 239.7074,373.6738 239.8202,374.1241 239.9765,374.5611 240.175,374.9807 240.4136,375.3789 240.6901,375.7517 241.0019,376.0956 241.3458,376.4074 241.7186,376.6839 242.1168,376.9225 242.5364,377.121 242.9734,377.2773 243.4237,377.3901 243.8828,377.4582 244.3465,377.481 244.8101,377.4582 245.2692,377.3901 245.7195,377.2773 246.1565,377.121 246.5762,376.9225 246.9743,376.6839 247.3471,376.4074 247.6911,376.0956 248.0028,375.7517 248.2793,375.3789 248.5179,374.9807 248.7164,374.5611 248.8728,374.1241 248.9855,373.6738 249.0537,373.2147 249.0764,372.751 249.0537,372.2874 248.9855,371.8283 248.8728,371.378 248.7164,370.941 248.5179,370.5213 248.2793,370.1232 248.0028,369.7504 247.6911,369.4064 247.3471,369.0947 246.9743,368.8182 246.5762,368.5796 246.1565,368.3811 245.7195,368.2247 245.2692,368.1119 244.8101,368.0438"/>
    <polygon points="259.0296,375.9528 258.6857,375.6411 258.3129,375.3645 257.9147,375.1259 257.4951,374.9274 257.0581,374.7711 256.6078,374.6583 256.1487,374.5902 255.685,374.5674 255.2214,374.5902 254.7623,374.6583 254.312,374.7711 253.875,374.9274 253.4553,375.1259 253.0572,375.3645 252.6844,375.6411 252.3404,375.9528 252.0287,376.2967 251.7522,376.6695 251.5136,377.0677 251.3151,377.4873 251.1587,377.9243 251.046,378.3746 250.9778,378.8338 250.9551,379.2974 250.9778,379.761 251.046,380.2201 251.1587,380.6704 251.3151,381.1075 251.5136,381.5271 251.7522,381.9252 252.0287,382.298 252.3404,382.642 252.6844,382.9537 253.0572,383.2302 253.4553,383.4688 253.875,383.6673 254.312,383.8237 254.7623,383.9365 255.2214,384.0046 255.685,384.0273 256.1487,384.0046 256.6078,383.9365 257.0581,383.8237 257.4951,383.6673 257.9147,383.4688 258.3129,383.2302 258.6857,382.9537 259.0296,382.642 259.3414,382.298 259.6179,381.9252 259.8565,381.5271 260.055,381.1075 260.2113,380.6704 260.3241,380.2201 260.3922,379.761 260.415,379.2974 260.3922,378.8338 260.3241,378.3746 260.2113,377.9243 260.055,377.4873 259.8565,377.0677 259.6179,376.6695 259.3414,376.2967"/>
    <polygon points="217.4978,383.614 217.2994,384.0336 217.143,384.4707 217.0302,384.9209 216.9621,385.3801 216.9393,385.8437 216.9621,386.3073 217.0302,386.7665 217.143,387.2167 217.2994,387.6538 217.4978,388.0734 217.7365,388.4715 218.013,388.8444 218.3247,389.1883 218.6686,389.5 219.0415,389.7765 219.4396,390.0152 219.8592,390.2136 220.2963,390.37 220.7465,390.4828 221.2057,390.5509 221.6693,390.5737 222.1329,390.5509 222.5921,390.4828 223.0423,390.37 223.4794,390.2136 223.899,390.0152 224.2971,389.7765 224.67,389.5 225.0139,389.1883 225.3256,388.8444 225.6021,388.4715 225.8408,388.0734 226.0392,387.6538 226.1956,387.2167 226.3084,386.7665 226.3765,386.3073 226.3993,385.8437 226.3765,385.3801 226.3084,384.9209 226.1956,384.4707 226.0392,384.0336 225.8408,383.614 225.6021,383.2159 225.3256,382.843 225.0139,382.4991 224.67,382.1874 224.2971,381.9109 223.899,381.6722 223.4794,381.4738 223.0423,381.3174 222.5921,381.2046 222.1329,381.1365 221.6693,381.1137 221.2057,381.1365 220.7465,381.2046 220.2963,381.3174 219.8592,381.4738 219.4396,381.6722 219.0415,381.9109 218.6686,382.1874 218.3247,382.4991 218.013,382.843 217.7365,383.2159"/>
    <polygon points="214.6581,369.478 215.0309,370.52 215.504,371.5203 216.0729,372.4695 216.7321,373.3583 217.4753,374.1783 218.2952,374.9214 219.184,375.5806 220.1332,376.1495 221.1336,376.6226 222.1755,376.9955 223.2489,377.2643 224.3435,377.4267 225.4488,377.481 226.5541,377.4267 227.6487,377.2643 228.7222,376.9955 229.7641,376.6226 230.7644,376.1495 231.7136,375.5806 232.6024,374.9214 233.4224,374.1783 234.1655,373.3583 234.8247,372.4695 235.3936,371.5203 235.8668,370.52 236.2396,369.478 236.5085,368.4046 236.6708,367.31 236.7251,366.2047 236.6708,365.0994 236.5085,364.0048 236.2396,362.9314 235.8668,361.8894 235.3936,360.8891 234.8247,359.9399 234.1655,359.0511 233.4224,358.2311 232.6024,357.488 231.7136,356.8288 230.7644,356.2599 229.7641,355.7868 228.7222,355.4139 227.6487,355.1451 226.5541,354.9827 225.4488,354.9284 224.3435,354.9827 223.2489,355.1451 222.1755,355.4139 221.1336,355.7868 220.1332,356.2599 219.184,356.8288 218.2952,357.488 217.4753,358.2311 216.7321,359.0511 216.0729,359.9399 215.504,360.8891 215.0309,361.8894 214.6581,362.9314 214.3892,364.0048 214.2268,365.0994 214.1725,366.2047 214.2268,367.31 214.3892,368.4046"/>
    <polygon points="203.6993,373.2147 203.7221,372.751 203.6993,372.2874 203.6312,371.8283 203.5184,371.378 203.3621,370.941 203.1636,370.5213 202.925,370.1232 202.6484,369.7504 202.3367,369.4064 201.9928,369.0947 201.62,368.8182 201.2218,368.5796 200.8022,368.3811 200.3652,368.2247 199.9149,368.1119 199.4557,368.0438 198.9921,368.0211 198.5285,368.0438 198.0694,368.1119 197.6191,368.2247 197.182,368.3811 196.7624,368.5796 196.3643,368.8182 195.9915,369.0947 195.6475,369.4064 195.3358,369.7504 195.0593,370.1232 194.8207,370.5213 194.6222,370.941 194.4658,371.378 194.353,371.8283 194.2849,372.2874 194.2622,372.751 194.2849,373.2147 194.353,373.6738 194.4658,374.1241 194.6222,374.5611 194.8207,374.9807 195.0593,375.3789 195.3358,375.7517 195.6475,376.0956 195.9915,376.4074 196.3643,376.6839 196.7624,376.9225 197.182,377.121 197.6191,377.2773 198.0694,377.3901 198.5285,377.4582 198.9921,377.481 199.4557,377.4582 199.9149,377.3901 200.3652,377.2773 200.8022,377.121 201.2218,376.9225 201.62,376.6839 201.9928,376.4074 202.3367,376.0956 202.6484,375.7517 202.925,375.3789 203.1636,374.9807 203.3621,374.5611 203.5184,374.1241 203.6312,373.6738"/>
    <polygon points="185.8435,374.9274 186.2805,374.7711 186.7308,374.6583 187.1899,374.5902 187.6535,374.5674 188.1172,374.5902 188.5763,374.6583 189.0266,374.7711 189.4636,374.9274 189.8832,375.1259 190.2814,375.3645 190.6542,375.6411 190.9981,375.9528 191.3099,376.2967 191.5864,376.6695 191.825,377.0677 192.0235,377.4873 192.1798,377.9243 192.2926,378.3746 192.3607,378.8338 192.3835,379.2974 192.3607,379.761 192.2926,380.2201 192.1798,380.6704 192.0235,381.1075 191.825,381.5271 191.5864,381.9252 191.3099,382.298 190.9981,382.642 190.6542,382.9537 190.2814,383.2302 189.8832,383.4688 189.4636,383.6673 189.0266,383.8237 188.5763,383.9365 188.1172,384.0046 187.6535,384.0273 187.1899,384.0046 186.7308,383.9365 186.2805,383.8237 185.8435,383.6673 185.4238,383.4688 185.0257,383.2302 184.6529,382.9537 184.3089,382.642 183.9972,382.298 183.7207,381.9252 183.4821,381.5271 183.2836,381.1075 183.1272,380.6704 183.0145,380.2201 182.9463,379.761 182.9236,379.2974 182.9463,378.8338 183.0145,378.3746 183.1272,377.9243 183.2836,377.4873 183.4821,377.0677 183.7207,376.6695 183.9972,376.2967 184.3089,375.9528 184.6529,375.6411 185.0257,375.3645 185.4238,375.1259"/>
    <polygon points="191.3099,369.2054 190.9981,369.5493 190.6542,369.861 190.2814,370.1375 189.8832,370.3762 189.4636,370.5746 189.0266,370.731 188.5763,370.8438 188.1172,370.9119 187.6535,370.9347 187.1899,370.9119 186.7308,370.8438 186.2805,370.731 185.8435,370.5746 185.4238,370.3762 185.0257,370.1375 184.6529,369.861 184.3089,369.5493 183.9972,369.2054 183.7207,368.8325 183.4821,368.4344 183.2836,368.0148 183.1272,367.5777 183.0145,367.1275 182.9463,366.6683 182.9236,366.2047 182.9463,365.7411 183.0145,365.2819 183.1272,364.8317 183.2836,364.3946 183.4821,363.975 183.7207,363.5769 183.9972,363.204 184.3089,362.8601 184.6529,362.5484 185.0257,362.2719 185.4238,362.0332 185.8435,361.8348 186.2805,361.6784 186.7308,361.5656 187.1899,361.4975 187.6535,361.4747 188.1172,361.4975 188.5763,361.5656 189.0266,361.6784 189.4636,361.8348 189.8832,362.0332 190.2814,362.2719 190.6542,362.5484 190.9981,362.8601 191.3099,363.204 191.5864,363.5769 191.825,363.975 192.0235,364.3946 192.1798,364.8317 192.2926,365.2819 192.3607,365.7411 192.3835,366.2047 192.3607,366.6683 192.2926,367.1275 192.1798,367.5777 192.0235,368.0148 191.825,368.4344 191.5864,368.8325"/>
    <polygon points="190.5124,344.3346 190.0393,345.335 189.4704,346.2841 188.8112,347.173 188.068,347.9929 187.2481,348.7361 186.3593,349.3953 185.4101,349.9642 184.4097,350.4373 183.3678,350.8101 182.2944,351.079 181.1998,351.2414 180.0945,351.2957 178.9892,351.2414 177.8946,351.079 176.8211,350.8101 175.7792,350.4373 174.7789,349.9642 173.8297,349.3953 172.9409,348.7361 172.1209,347.9929 171.3778,347.173 170.7186,346.2841 170.1497,345.335 169.6765,344.3346 169.3037,343.2927 169.0349,342.2193 168.8725,341.1246 168.8182,340.0194 168.8725,338.9141 169.0349,337.8195 169.3037,336.746 169.6765,335.7041 170.1497,334.7038 170.7186,333.7546 171.3778,332.8658 172.1209,332.0458 172.9409,331.3027 173.8297,330.6435 174.7789,330.0746 175.7792,329.6014 176.8211,329.2286 177.8946,328.9597 178.9892,328.7974 180.0945,328.7431 181.1998,328.7974 182.2944,328.9597 183.3678,329.2286 184.4097,329.6014 185.4101,330.0746 186.3593,330.6435 187.2481,331.3027 188.068,332.0458 188.8112,332.8658 189.4704,333.7546 190.0393,334.7038 190.5124,335.7041 190.8852,336.746 191.1541,337.8195 191.3165,338.9141 191.3708,340.0194 191.3165,341.1246 191.1541,342.2193 190.8852,343.2927"/>
    <polygon points="174.0853,355.4869 174.5049,355.2884 174.9419,355.1321 175.3922,355.0193 175.8513,354.9512 176.315,354.9284 176.7786,354.9512 177.2377,355.0193 177.688,355.1321 178.125,355.2884 178.5447,355.4869 178.9428,355.7255 179.3156,356.002 179.6596,356.3138 179.9713,356.6577 180.2478,357.0305 180.4864,357.4287 180.6849,357.8483 180.8413,358.2853 180.954,358.7356 181.0222,359.1947 181.0449,359.6584 181.0222,360.122 180.954,360.5811 180.8413,361.0314 180.6849,361.4684 180.4864,361.8881 180.2478,362.2862 179.9713,362.659 179.6596,363.003 179.3156,363.3147 178.9428,363.5912 178.5447,363.8298 178.125,364.0283 177.688,364.1847 177.2377,364.2975 176.7786,364.3656 176.315,364.3883 175.8513,364.3656 175.3922,364.2975 174.9419,364.1847 174.5049,364.0283 174.0853,363.8298 173.6871,363.5912 173.3143,363.3147 172.9704,363.003 172.6586,362.659 172.3821,362.2862 172.1435,361.8881 171.945,361.4684 171.7887,361.0314 171.6759,360.5811 171.6078,360.122 171.585,359.6584 171.6078,359.1947 171.6759,358.7356 171.7887,358.2853 171.945,357.8483 172.1435,357.4287 172.3821,357.0305 172.6586,356.6577 172.9704,356.3138 173.3143,356.002 173.6871,355.7255"/>
    <polygon points="144.5289,357.2835 144.1093,357.482 143.6723,357.6383 143.222,357.7511 142.7628,357.8192 142.2992,357.842 141.8356,357.8192 141.3764,357.7511 140.9262,357.6383 140.4891,357.482 140.0695,357.2835 139.6714,357.0449 139.2985,356.7684 138.9546,356.4566 138.6429,356.1127 138.3664,355.7399 138.1277,355.3417 137.9293,354.9221 137.7729,354.4851 137.6601,354.0348 137.592,353.5757 137.5692,353.112 137.592,352.6484 137.6601,352.1893 137.7729,351.739 137.9293,351.302 138.1277,350.8823 138.3664,350.4842 138.6429,350.1114 138.9546,349.7674 139.2985,349.4557 139.6714,349.1792 140.0695,348.9406 140.4891,348.7421 140.9262,348.5857 141.3764,348.4729 141.8356,348.4048 142.2992,348.3821 142.7628,348.4048 143.222,348.4729 143.6723,348.5857 144.1093,348.7421 144.5289,348.9406 144.927,349.1792 145.2999,349.4557 145.6438,349.7674 145.9555,350.1114 146.232,350.4842 146.4707,350.8823 146.6691,351.302 146.8255,351.739 146.9383,352.1893 147.0064,352.6484 147.0292,353.112 147.0064,353.5757 146.9383,354.0348 146.8255,354.4851 146.6691,354.9221 146.4707,355.3417 146.232,355.7399 145.9555,356.1127 145.6438,356.4566 145.2999,356.7684 144.927,357.0449"/>
    <polygon points="145.2999,336.363 145.6438,336.6748 145.9555,337.0187 146.232,337.3915 146.4707,337.7897 146.6691,338.2093 146.8255,338.6463 146.9383,339.0966 147.0064,339.5557 147.0292,340.0194 147.0064,340.483 146.9383,340.9421 146.8255,341.3924 146.6691,341.8294 146.4707,342.2491 146.232,342.6472 145.9555,343.02 145.6438,343.364 145.2999,343.6757 144.927,343.9522 144.5289,344.1908 144.1093,344.3893 143.6723,344.5457 143.222,344.6585 142.7628,344.7266 142.2992,344.7493 141.8356,344.7266 141.3764,344.6585 140.9262,344.5457 140.4891,344.3893 140.0695,344.1908 139.6714,343.9522 139.2985,343.6757 138.9546,343.364 138.6429,343.02 138.3664,342.6472 138.1277,342.2491 137.9293,341.8294 137.7729,341.3924 137.6601,340.9421 137.592,340.483 137.5692,340.0194 137.592,339.5557 137.6601,339.0966 137.7729,338.6463 137.9293,338.2093 138.1277,337.7897 138.3664,337.3915 138.6429,337.0187 138.9546,336.6748 139.2985,336.363 139.6714,336.0865 140.0695,335.8479 140.4891,335.6494 140.9262,335.4931 141.3764,335.3803 141.8356,335.3122 142.2992,335.2894 142.7628,335.3122 143.222,335.3803 143.6723,335.4931 144.1093,335.6494 144.5289,335.8479 144.927,336.0865"/>
    <polygon points="168.2081,323.6534 168.477,324.7268 168.6393,325.8214 168.6936,326.9267 168.6393,328.032 168.477,329.1266 168.2081,330.2 167.8353,331.242 167.3621,332.2423 166.7932,333.1915 166.134,334.0803 165.3909,334.9003 164.5709,335.6434 163.6821,336.3026 162.7329,336.8715 161.7326,337.3446 160.6907,337.7175 159.6172,337.9863 158.5226,338.1487 157.4173,338.203 156.3121,338.1487 155.2174,337.9863 154.144,337.7175 153.1021,337.3446 152.1017,336.8715 151.1525,336.3026 150.2637,335.6434 149.4438,334.9003 148.7006,334.0803 148.0414,333.1915 147.4725,332.2423 146.9994,331.242 146.6266,330.2 146.3577,329.1266 146.1953,328.032 146.141,326.9267 146.1953,325.8214 146.3577,324.7268 146.6266,323.6534 146.9994,322.6114 147.4725,321.6111 148.0414,320.6619 148.7006,319.7731 149.4438,318.9531 150.2637,318.21 151.1525,317.5508 152.1017,316.9819 153.1021,316.5087 154.144,316.1359 155.2174,315.8671 156.3121,315.7047 157.4173,315.6504 158.5226,315.7047 159.6172,315.8671 160.6907,316.1359 161.7326,316.5087 162.7329,316.9819 163.6821,317.5508 164.5709,318.21 165.3909,318.9531 166.134,319.7731 166.7932,320.6619 167.3621,321.6111 167.8353,322.6114"/>
    <polygon points="175.7792,324.252 174.7789,323.7788 173.8297,323.2099 172.9409,322.5507 172.1209,321.8076 171.3778,320.9876 170.7186,320.0988 170.1497,319.1496 169.6765,318.1493 169.3037,317.1074 169.0349,316.0339 168.8725,314.9393 168.8182,313.834 168.8725,312.7288 169.0349,311.6341 169.3037,310.5607 169.6765,309.5188 170.1497,308.5184 170.7186,307.5693 171.3778,306.6804 172.1209,305.8605 172.9409,305.1173 173.8297,304.4581 174.7789,303.8892 175.7792,303.4161 176.8211,303.0433 177.8946,302.7744 178.9892,302.612 180.0945,302.5577 181.1998,302.612 182.2944,302.7744 183.3678,303.0433 184.4097,303.4161 185.4101,303.8892 186.3593,304.4581 187.2481,305.1173 188.068,305.8605 188.8112,306.6804 189.4704,307.5693 190.0393,308.5184 190.5124,309.5188 190.8852,310.5607 191.1541,311.6341 191.3165,312.7288 191.3708,313.834 191.3165,314.9393 191.1541,316.0339 190.8852,317.1074 190.5124,318.1493 190.0393,319.1496 189.4704,320.0988 188.8112,320.9876 188.068,321.8076 187.2481,322.5507 186.3593,323.2099 185.4101,323.7788 184.4097,324.252 183.3678,324.6248 182.2944,324.8937 181.1998,325.056 180.0945,325.1103 178.9892,325.056 177.8946,324.8937 176.8211,324.6248"/>
    <polygon points="161.3201,297.7407 161.0435,298.1135 160.8049,298.5117 160.6065,298.9313 160.4501,299.3683 160.3373,299.8186 160.2692,300.2777 160.2464,300.7414 160.2692,301.205 160.3373,301.6641 160.4501,302.1144 160.6065,302.5514 160.8049,302.9711 161.0435,303.3692 161.3201,303.742 161.6318,304.086 161.9757,304.3977 162.3485,304.6742 162.7467,304.9128 163.1663,305.1113 163.6033,305.2677 164.0536,305.3805 164.5128,305.4486 164.9764,305.4713 165.44,305.4486 165.8991,305.3805 166.3494,305.2677 166.7865,305.1113 167.2061,304.9128 167.6042,304.6742 167.977,304.3977 168.321,304.086 168.6327,303.742 168.9092,303.3692 169.1478,302.9711 169.3463,302.5514 169.5027,302.1144 169.6155,301.6641 169.6836,301.205 169.7064,300.7414 169.6836,300.2777 169.6155,299.8186 169.5027,299.3683 169.3463,298.9313 169.1478,298.5117 168.9092,298.1135 168.6327,297.7407 168.321,297.3968 167.977,297.085 167.6042,296.8085 167.2061,296.5699 166.7865,296.3714 166.3494,296.2151 165.8991,296.1023 165.44,296.0342 164.9764,296.0114 164.5128,296.0342 164.0536,296.1023 163.6033,296.2151 163.1663,296.3714 162.7467,296.5699 162.3485,296.8085 161.9757,297.085 161.6318,297.3968"/>
    <polygon points="191.3708,261.4634 191.3165,260.3581 191.1541,259.2635 190.8852,258.19 190.5124,257.1481 190.0393,256.1477 189.4704,255.1986 188.8112,254.3097 188.068,253.4898 187.2481,252.7467 186.3593,252.0875 185.4101,251.5185 184.4097,251.0454 183.3678,250.6726 182.2944,250.4037 181.1998,250.2414 180.0945,250.1871 178.9892,250.2414 177.8946,250.4037 176.8211,250.6726 175.7792,251.0454 174.7789,251.5185 173.8297,252.0875 172.9409,252.7467 172.1209,253.4898 171.3778,254.3097 170.7186,255.1986 170.1497,256.1477 169.6765,257.1481 169.3037,258.19 169.0349,259.2635 168.8725,260.3581 168.8182,261.4634 168.8725,262.5686 169.0349,263.6633 169.3037,264.7367 169.6765,265.7786 170.1497,266.779 170.7186,267.7281 171.3778,268.617 172.1209,269.4369 172.9409,270.1801 173.8297,270.8393 174.7789,271.4082 175.7792,271.8813 176.8211,272.2541 177.8946,272.523 178.9892,272.6854 180.0945,272.7397 181.1998,272.6854 182.2944,272.523 183.3678,272.2541 184.4097,271.8813 185.4101,271.4082 186.3593,270.8393 187.2481,270.1801 188.068,269.4369 188.8112,268.617 189.4704,267.7281 190.0393,266.779 190.5124,265.7786 190.8852,264.7367 191.1541,263.6633 191.3165,262.5686"/>
    <polygon points="187.8167,244.6036 188.8392,246.7655 190.0686,248.8167 191.4932,250.7375 193.0992,252.5095 194.8712,254.1155 196.792,255.5401 198.8433,256.7695 201.0051,257.792 203.2568,258.5977 205.5766,259.1788 207.9421,259.5297 210.3307,259.647 212.7193,259.5297 215.0849,259.1788 217.4046,258.5977 219.6563,257.792 221.8182,256.7695 223.8694,255.5401 225.7902,254.1155 227.5622,252.5095 229.1682,250.7375 230.5928,248.8167 231.8222,246.7655 232.8447,244.6036 233.6504,242.352 234.2314,240.0322 234.5823,237.6666 234.6997,235.278 234.5823,232.8894 234.2314,230.5239 233.6504,228.2041 232.8447,225.9524 231.8222,223.7906 230.5928,221.7393 229.1682,219.8185 227.5622,218.0466 225.7902,216.4406 223.8694,215.016 221.8182,213.7865 219.6563,212.764 217.4046,211.9584 215.0849,211.3773 212.7193,211.0264 210.3307,210.9091 207.9421,211.0264 205.5766,211.3773 203.2568,211.9584 201.0051,212.764 198.8433,213.7865 196.792,215.016 194.8712,216.4406 193.0992,218.0466 191.4932,219.8185 190.0686,221.7393 188.8392,223.7906 187.8167,225.9524 187.0111,228.2041 186.43,230.5239 186.0791,232.8894 185.9617,235.278 186.0791,237.6666 186.43,240.0322 187.0111,242.352"/>
    <polygon points="180.6849,240.0143 180.4864,239.5947 180.2478,239.1965 179.9713,238.8237 179.6596,238.4798 179.3156,238.168 178.9428,237.8915 178.5447,237.6529 178.125,237.4544 177.688,237.2981 177.2377,237.1853 176.7786,237.1172 176.315,237.0944 175.8513,237.1172 175.3922,237.1853 174.9419,237.2981 174.5049,237.4544 174.0853,237.6529 173.6871,237.8915 173.3143,238.168 172.9704,238.4798 172.6586,238.8237 172.3821,239.1965 172.1435,239.5947 171.945,240.0143 171.7887,240.4513 171.6759,240.9016 171.6078,241.3607 171.585,241.8244 171.6078,242.288 171.6759,242.7471 171.7887,243.1974 171.945,243.6344 172.1435,244.0541 172.3821,244.4522 172.6586,244.825 172.9704,245.169 173.3143,245.4807 173.6871,245.7572 174.0853,245.9958 174.5049,246.1943 174.9419,246.3507 175.3922,246.4634 175.8513,246.5316 176.315,246.5543 176.7786,246.5316 177.2377,246.4634 177.688,246.3507 178.125,246.1943 178.5447,245.9958 178.9428,245.7572 179.3156,245.4807 179.6596,245.169 179.9713,244.825 180.2478,244.4522 180.4864,244.0541 180.6849,243.6344 180.8413,243.1974 180.954,242.7471 181.0222,242.288 181.0449,241.8244 181.0222,241.3607 180.954,240.9016 180.8413,240.4513"/>
    <polygon points="166.3494,217.6591 165.8991,217.5463 165.44,217.4782 164.9764,217.4554 164.5128,217.4782 164.0536,217.5463 163.6033,217.6591 163.1663,217.8154 162.7467,218.0139 162.3485,218.2525 161.9757,218.529 161.6318,218.8408 161.3201,219.1847 161.0435,219.5575 160.8049,219.9557 160.6065,220.3753 160.4501,220.8123 160.3373,221.2626 160.2692,221.7217 160.2464,222.1854 160.2692,222.649 160.3373,223.1081 160.4501,223.5584 160.6065,223.9954 160.8049,224.4151 161.0435,224.8132 161.3201,225.186 161.6318,225.53 161.9757,225.8417 162.3485,226.1182 162.7467,226.3568 163.1663,226.5553 163.6033,226.7117 164.0536,226.8244 164.5128,226.8926 164.9764,226.9153 165.44,226.8926 165.8991,226.8244 166.3494,226.7117 166.7865,226.5553 167.2061,226.3568 167.6042,226.1182 167.977,225.8417 168.321,225.53 168.6327,225.186 168.9092,224.8132 169.1478,224.4151 169.3463,223.9954 169.5027,223.5584 169.6155,223.1081 169.6836,222.649 169.7064,222.1854 169.6836,221.7217 169.6155,221.2626 169.5027,220.8123 169.3463,220.3753 169.1478,219.9557 168.9092,219.5575 168.6327,219.1847 168.321,218.8408 167.977,218.529 167.6042,218.2525 167.2061,218.0139 166.7865,217.8154"/>
    <polygon points="169.3463,197.8101 169.5027,197.3731 169.6155,196.9228 169.6836,196.4636 169.7064,196.0 169.6836,195.5364 169.6155,195.0773 169.5027,194.627 169.3463,194.1899 169.1478,193.7703 168.9092,193.3722 168.6327,192.9994 168.321,192.6554 167.977,192.3437 167.6042,192.0672 167.2061,191.8286 166.7865,191.6301 166.3494,191.4737 165.8991,191.3609 165.44,191.2928 164.9764,191.2701 164.5128,191.2928 164.0536,191.3609 163.6033,191.4737 163.1663,191.6301 162.7467,191.8286 162.3485,192.0672 161.9757,192.3437 161.6318,192.6554 161.3201,192.9994 161.0435,193.3722 160.8049,193.7703 160.6065,194.1899 160.4501,194.627 160.3373,195.0773 160.2692,195.5364 160.2464,196.0 160.2692,196.4636 160.3373,196.9228 160.4501,197.3731 160.6065,197.8101 160.8049,198.2297 161.0435,198.6279 161.3201,199.0007 161.6318,199.3446 161.9757,199.6563 162.3485,199.9329 162.7467,200.1715 163.1663,200.3699 163.6033,200.5263 164.0536,200.6391 164.5128,200.7072 164.9764,200.73 165.44,200.7072 165.8991,200.6391 166.3494,200.5263 166.7865,200.3699 167.2061,200.1715 167.6042,199.9329 167.977,199.6563 168.321,199.3446 168.6327,199.0007 168.9092,198.6279 169.1478,198.2297"/>
    <polygon points="152.2648,193.98 152.715,194.0928 153.1742,194.1609 153.6378,194.1837 154.1014,194.1609 154.5606,194.0928 155.0108,193.98 155.4479,193.8236 155.8675,193.6252 156.2656,193.3865 156.6385,193.11 156.9824,192.7983 157.2941,192.4544 157.5706,192.0815 157.8093,191.6834 158.0077,191.2638 158.1641,190.8267 158.2769,190.3765 158.345,189.9173 158.3678,189.4537 158.345,188.9901 158.2769,188.5309 158.1641,188.0807 158.0077,187.6436 157.8093,187.224 157.5706,186.8259 157.2941,186.453 156.9824,186.1091 156.6385,185.7974 156.2656,185.5209 155.8675,185.2822 155.4479,185.0838 155.0108,184.9274 154.5606,184.8146 154.1014,184.7465 153.6378,184.7237 153.1742,184.7465 152.715,184.8146 152.2648,184.9274 151.8277,185.0838 151.4081,185.2822 151.01,185.5209 150.6371,185.7974 150.2932,186.1091 149.9815,186.453 149.705,186.8259 149.4663,187.224 149.2679,187.6436 149.1115,188.0807 148.9987,188.5309 148.9306,188.9901 148.9078,189.4537 148.9306,189.9173 148.9987,190.3765 149.1115,190.8267 149.2679,191.2638 149.4663,191.6834 149.705,192.0815 149.9815,192.4544 150.2932,192.7983 150.6371,193.11 151.01,193.3865 151.4081,193.6252 151.8277,193.8236"/>
    <polygon points="122.2499,178.9745 122.6227,179.251 122.9666,179.5628 123.2784,179.9067 123.5549,180.2795 123.7935,180.6777 123.992,181.0973 124.1483,181.5343 124.2611,181.9846 124.3292,182.4437 124.352,182.9074 124.3292,183.371 124.2611,183.8301 124.1483,184.2804 123.992,184.7174 123.7935,185.137 123.5549,185.5352 123.2784,185.908 122.9666,186.252 122.6227,186.5637 122.2499,186.8402 121.8517,187.0788 121.4321,187.2773 120.9951,187.4337 120.5448,187.5464 120.0857,187.6146 119.622,187.6373 119.1584,187.6146 118.6993,187.5464 118.249,187.4337 117.812,187.2773 117.3924,187.0788 116.9942,186.8402 116.6214,186.5637 116.2775,186.252 115.9657,185.908 115.6892,185.5352 115.4506,185.137 115.2521,184.7174 115.0957,184.2804 114.983,183.8301 114.9149,183.371 114.8921,182.9074 114.9149,182.4437 114.983,181.9846 115.0957,181.5343 115.2521,181.0973 115.4506,180.6777 115.6892,180.2795 115.9657,179.9067 116.2775,179.5628 116.6214,179.251 116.9942,178.9745 117.3924,178.7359 117.812,178.5374 118.249,178.3811 118.6993,178.2683 119.1584,178.2002 119.622,178.1774 120.0857,178.2002 120.5448,178.2683 120.9951,178.3811 121.4321,178.5374 121.8517,178.7359"/>
    <polygon points="128.7309,172.1896 129.1505,171.9911 129.5876,171.8347 130.0379,171.7219 130.497,171.6538 130.9606,171.631 131.4242,171.6538 131.8834,171.7219 132.3337,171.8347 132.7707,171.9911 133.1903,172.1896 133.5885,172.4282 133.9613,172.7047 134.3052,173.0164 134.6169,173.3604 134.8935,173.7332 135.1321,174.1313 135.3306,174.5509 135.4869,174.988 135.5997,175.4383 135.6678,175.8974 135.6906,176.361 135.6678,176.8246 135.5997,177.2838 135.4869,177.7341 135.3306,178.1711 135.1321,178.5907 134.8935,178.9889 134.6169,179.3617 134.3052,179.7056 133.9613,180.0173 133.5885,180.2939 133.1903,180.5325 132.7707,180.7309 132.3337,180.8873 131.8834,181.0001 131.4242,181.0682 130.9606,181.091 130.497,181.0682 130.0379,181.0001 129.5876,180.8873 129.1505,180.7309 128.7309,180.5325 128.3328,180.2939 127.96,180.0173 127.616,179.7056 127.3043,179.3617 127.0278,178.9889 126.7892,178.5907 126.5907,178.1711 126.4343,177.7341 126.3215,177.2838 126.2534,176.8246 126.2307,176.361 126.2534,175.8974 126.3215,175.4383 126.4343,174.988 126.5907,174.5509 126.7892,174.1313 127.0278,173.7332 127.3043,173.3604 127.616,173.0164 127.96,172.7047 128.3328,172.4282"/>
    <polygon points="145.2999,179.251 145.6438,179.5628 145.9555,179.9067 146.232,180.2795 146.4707,180.6777 146.6691,181.0973 146.8255,181.5343 146.9383,181.9846 147.0064,182.4437 147.0292,182.9074 147.0064,183.371 146.9383,183.8301 146.8255,184.2804 146.6691,184.7174 146.4707,185.137 146.232,185.5352 145.9555,185.908 145.6438,186.252 145.2999,186.5637 144.927,186.8402 144.5289,187.0788 144.1093,187.2773 143.6723,187.4337 143.222,187.5464 142.7628,187.6146 142.2992,187.6373 141.8356,187.6146 141.3764,187.5464 140.9262,187.4337 140.4891,187.2773 140.0695,187.0788 139.6714,186.8402 139.2985,186.5637 138.9546,186.252 138.6429,185.908 138.3664,185.5352 138.1277,185.137 137.9293,184.7174 137.7729,184.2804 137.6601,183.8301 137.592,183.371 137.5692,182.9074 137.592,182.4437 137.6601,181.9846 137.7729,181.5343 137.9293,181.0973 138.1277,180.6777 138.3664,180.2795 138.6429,179.9067 138.9546,179.5628 139.2985,179.251 139.6714,178.9745 140.0695,178.7359 140.4891,178.5374 140.9262,178.3811 141.3764,178.2683 141.8356,178.2002 142.2992,178.1774 142.7628,178.2002 143.222,178.2683 143.6723,178.3811 144.1093,178.5374 144.5289,178.7359 144.927,178.9745"/>
    <polygon points="151.01,180.2939 150.6371,180.0173 150.2932,179.7056 149.9815,179.3617 149.705,178.9889 149.4663,178.5907 149.2679,178.1711 149.1115,177.7341 148.9987,177.2838 148.9306,176.8246 148.9078,176.361 148.9306,175.8974 148.9987,175.4383 149.1115,174.988 149.2679,174.5509 149.4663,174.1313 149.705,173.7332 149.9815,173.3604 150.2932,173.0164 150.6371,172.7047 151.01,172.4282 151.4081,172.1896 151.8277,171.9911 152.2648,171.8347 152.715,171.7219 153.1742,171.6538 153.6378,171.631 154.1014,171.6538 154.5606,171.7219 155.0108,171.8347 155.4479,171.9911 155.8675,172.1896 156.2656,172.4282 156.6385,172.7047 156.9824,173.0164 157.2941,173.3604 157.5706,173.7332 157.8093,174.1313 158.0077,174.5509 158.1641,174.988 158.2769,175.4383 158.345,175.8974 158.3678,176.361 158.345,176.8246 158.2769,177.2838 158.1641,177.7341 158.0077,178.1711 157.8093,178.5907 157.5706,178.9889 157.2941,179.3617 156.9824,179.7056 156.6385,180.0173 156.2656,180.2939 155.8675,180.5325 155.4479,180.7309 155.0108,180.8873 154.5606,181.0001 154.1014,181.0682 153.6378,181.091 153.1742,181.0682 152.715,181.0001 152.2648,180.8873 151.8277,180.7309 151.4081,180.5325"/>
    <polygon points="178.9428,180.2939 179.3156,180.0173 179.6596,179.7056 179.9713,179.3617 180.2478,178.9889 180.4864,178.5907 180.6849,178.1711 180.8413,177.7341 180.954,177.2838 181.0222,176.8246 181.0449,176.361 181.0222,175.8974 180.954,175.4383 180.8413,174.988 180.6849,174.5509 180.4864,174.1313 180.2478,173.7332 179.9713,173.3604 179.6596,173.0164 179.3156,172.7047 178.9428,172.4282 178.5447,172.1896 178.125,171.9911 177.688,171.8347 177.2377,171.7219 176.7786,171.6538 176.315,171.631 175.8513,171.6538 175.3922,171.7219 174.9419,171.8347 174.5049,171.9911 174.0853,172.1896 173.6871,172.4282 173.3143,172.7047 172.9704,173.0164 172.6586,173.3604 172.3821,173.7332 172.1435,174.1313 171.945,174.5509 171.7887,174.988 171.6759,175.4383 171.6078,175.8974 171.585,176.361 171.6078,176.8246 171.6759,177.2838 171.7887,177.7341 171.945,178.1711 172.1435,178.5907 172.3821,178.9889 172.6586,179.3617 172.9704,179.7056 173.3143,180.0173 173.6871,180.2939 174.0853,180.5325 174.5049,180.7309 174.9419,180.8873 175.3922,181.0001 175.8513,181.0682 176.315,181.091 176.7786,181.0682 177.2377,181.0001 177.688,180.8873 178.125,180.7309 178.5447,180.5325"/>
    <polygon points="183.4821,180.6777 183.2836,181.0973 183.1272,181.5343 183.0145,181.9846 182.9463,182.4437 182.9236,182.9074 182.9463,183.371 183.0145,183.8301 183.1272,184.2804 183.2836,184.7174 183.4821,185.137 183.7207,185.5352 183.9972,185.908 184.3089,186.252 184.6529,186.5637 185.0257,186.8402 185.4238,187.0788 185.8435,187.2773 186.2805,187.4337 186.7308,187.5464 187.1899,187.6146 187.6535,187.6373 188.1172,187.6146 188.5763,187.5464 189.0266,187.4337 189.4636,187.2773 189.8832,187.0788 190.2814,186.8402 190.6542,186.5637 190.9981,186.252 191.3099,185.908 191.5864,185.5352 191.825,185.137 192.0235,184.7174 192.1798,184.2804 192.2926,183.8301 192.3607,183.371 192.3835,182.9074 192.3607,182.4437 192.2926,181.9846 192.1798,181.5343 192.0235,181.0973 191.825,180.6777 191.5864,180.2795 191.3099,179.9067 190.9981,179.5628 190.6542,179.251 190.2814,178.9745 189.8832,178.7359 189.4636,178.5374 189.0266,178.3811 188.5763,178.2683 188.1172,178.2002 187.6535,178.1774 187.1899,178.2002 186.7308,178.2683 186.2805,178.3811 185.8435,178.5374 185.4238,178.7359 185.0257,178.9745 184.6529,179.251 184.3089,179.5628 183.9972,179.9067 183.7207,180.2795"/>
    <polygon points="195.6475,173.0164 195.9915,172.7047 196.3643,172.4282 196.7624,172.1896 197.182,171.9911 197.6191,171.8347 198.0694,171.7219 198.5285,171.6538 198.9921,171.631 199.4557,171.6538 199.9149,171.7219 200.3652,171.8347 200.8022,171.9911 201.2218,172.1896 201.62,172.4282 201.9928,172.7047 202.3367,173.0164 202.6484,173.3604 202.925,173.7332 203.1636,174.1313 203.3621,174.5509 203.5184,174.988 203.6312,175.4383 203.6993,175.8974 203.7221,176.361 203.6993,176.8246 203.6312,177.2838 203.5184,177.7341 203.3621,178.1711 203.1636,178.5907 202.925,178.9889 202.6484,179.3617 202.3367,179.7056 201.9928,180.0173 201.62,180.2939 201.2218,180.5325 200.8022,180.7309 200.3652,180.8873 199.9149,181.0001 199.4557,181.0682 198.9921,181.091 198.5285,181.0682 198.0694,181.0001 197.6191,180.8873 197.182,180.7309 196.7624,180.5325 196.3643,180.2939 195.9915,180.0173 195.6475,179.7056 195.3358,179.3617 195.0593,178.9889 194.8207,178.5907 194.6222,178.1711 194.4658,177.7341 194.353,177.2838 194.2849,176.8246 194.2622,176.361 194.2849,175.8974 194.353,175.4383 194.4658,174.988 194.6222,174.5509 194.8207,174.1313 195.0593,173.7332 195.3358,173.3604"/>
    <polygon points="194.055,188.8464 194.7981,188.0265 195.618,187.2833 196.5069,186.6241 197.456,186.0552 198.4564,185.5821 199.4983,185.2093 200.5718,184.9404 201.6664,184.778 202.7717,184.7237 203.8769,184.778 204.9716,184.9404 206.045,185.2093 207.0869,185.5821 208.0873,186.0552 209.0364,186.6241 209.9253,187.2833 210.7452,188.0265 211.4884,188.8464 212.1476,189.7352 212.7165,190.6844 213.1896,191.6848 213.5624,192.7267 213.8313,193.8001 213.9937,194.8948 214.048,196.0 213.9937,197.1053 213.8313,198.1999 213.5624,199.2734 213.1896,200.3153 212.7165,201.3156 212.1476,202.2648 211.4884,203.1536 210.7452,203.9736 209.9253,204.7167 209.0364,205.3759 208.0873,205.9448 207.0869,206.418 206.045,206.7908 204.9716,207.0597 203.8769,207.222 202.7717,207.2763 201.6664,207.222 200.5718,207.0597 199.4983,206.7908 198.4564,206.418 197.456,205.9448 196.5069,205.3759 195.618,204.7167 194.7981,203.9736 194.055,203.1536 193.3957,202.2648 192.8268,201.3156 192.3537,200.3153 191.9809,199.2734 191.712,198.1999 191.5496,197.1053 191.4953,196.0 191.5496,194.8948 191.712,193.8001 191.9809,192.7267 192.3537,191.6848 192.8268,190.6844 193.3957,189.7352"/>
    <polygon points="191.1541,206.8928 190.8852,205.8194 190.5124,204.7774 190.0393,203.7771 189.4704,202.8279 188.8112,201.9391 188.068,201.1191 187.2481,200.376 186.3593,199.7168 185.4101,199.1479 184.4097,198.6747 183.3678,198.3019 182.2944,198.0331 181.1998,197.8707 180.0945,197.8164 178.9892,197.8707 177.8946,198.0331 176.8211,198.3019 175.7792,198.6747 174.7789,199.1479 173.8297,199.7168 172.9409,200.376 172.1209,201.1191 171.3778,201.9391 170.7186,202.8279 170.1497,203.7771 169.6765,204.7774 169.3037,205.8194 169.0349,206.8928 168.8725,207.9874 168.8182,209.0927 168.8725,210.198 169.0349,211.2926 169.3037,212.366 169.6765,213.4079 170.1497,214.4083 170.7186,215.3575 171.3778,216.2463 172.1209,217.0662 172.9409,217.8094 173.8297,218.4686 174.7789,219.0375 175.7792,219.5106 176.8211,219.8834 177.8946,220.1523 178.9892,220.3147 180.0945,220.369 181.1998,220.3147 182.2944,220.1523 183.3678,219.8834 184.4097,219.5106 185.4101,219.0375 186.3593,218.4686 187.2481,217.8094 188.068,217.0662 188.8112,216.2463 189.4704,215.3575 190.0393,214.4083 190.5124,213.4079 190.8852,212.366 191.1541,211.2926 191.3165,210.198 191.3708,209.0927 191.3165,207.9874"/>
  </g>
</svg>
