<?xml version="1.0" encoding="utf-8" ?>
<svg xmlns="http://www.w3.org/2000/svg" xmlns:cc="http://creativecommons.org/ns" xmlns:dc="http://purl.org/dc/elements/1.1/" xmlns:ev="http://www.w3.org/2001/xml-events" xmlns:inkscape="http://www.inkscape.org/namespaces/inkscape" xmlns:rdf="http://www.w3.org/1999/02/22-rdf-syntax-ns" xmlns:sodipodi="http://sodipodi.sourceforge.net/DTD/sodipodi-0.dtd" xmlns:xlink="http://www.w3.org/1999/xlink" baseProfile="tiny" height="15.875cm" version="1.2" viewBox="0 0 432.0 600.0" width="11.43cm">
  <metadata>
    <rdf:RDF>
      <cc:Work>
        <dc:format>image/svg+xml</dc:format>
        <dc:source>vsk save -s 269 -c hex-grid/config/bubble-coasters-2.json /Users/tobin/src/fabian/plotting/fabian-plotting/hex-grid/sketch_hex_grid.py</dc:source>
        <dc:date>2023-11-11T11:30:23.909266</dc:date>
      </cc:Work>
    </rdf:RDF>
  </metadata>
  <defs/>
  <g fill="none" id="layer1" inkscape:groupmode="layer" inkscape:label="1" stroke="#000000" stroke-width="0.7559" style="display:inline">
    <polygon points="164.9764,374.5674 165.44,374.5902 165.8991,374.6583 166.3494,374.7711 166.7865,374.9274 167.2061,375.1259 167.6042,375.3645 167.977,375.6411 168.321,375.9528 168.6327,376.2967 168.9092,376.6695 169.1478,377.0677 169.3463,377.4873 169.5027,377.9243 169.6155,378.3746 169.6836,378.8338 169.7064,379.2974 169.6836,379.761 169.6155,380.2201 169.5027,380.6704 169.3463,381.1075 169.1478,381.5271 168.9092,381.9252 168.6327,382.298 168.321,382.642 167.977,382.9537 167.6042,383.2302 167.2061,383.4688 166.7865,383.6673 166.3494,383.8237 165.8991,383.9365 165.44,384.0046 164.9764,384.0273 164.5128,384.0046 164.0536,383.9365 163.6033,383.8237 163.1663,383.6673 162.7467,383.4688 162.3485,383.2302 161.9757,382.9537 161.6318,382.642 161.3201,382.298 161.0435,381.9252 160.8049,381.5271 160.6065,381.1075 160.4501,380.6704 160.3373,380.2201 160.2692,379.761 160.2464,379.2974 160.2692,378.8338 160.3373,378.3746 160.4501,377.9243 160.6065,377.4873 160.8049,377.0677 161.0435,376.6695 161.3201,376.2967 161.6318,375.9528 161.9757,375.6411 162.3485,375.3645 162.7467,375.1259 163.1663,374.9274 163.6033,374.7711 164.0536,374.6583 164.5128,374.5902"/>
    <polygon points="165.44,370.9119 164.9764,370.9347 164.5128,370.9119 164.0536,370.8438 163.6033,370.731 163.1663,370.5746 162.7467,370.3762 162.3485,370.1375 161.9757,369.861 161.6318,369.5493 161.3201,369.2054 161.0435,368.8325 160.8049,368.4344 160.6065,368.0148 160.4501,367.5777 160.3373,367.1275 160.2692,366.6683 160.2464,366.2047 160.2692,365.7411 160.3373,365.2819 160.4501,364.8317 160.6065,364.3946 160.8049,363.975 161.0435,363.5769 161.3201,363.204 161.6318,362.8601 161.9757,362.5484 162.3485,362.2719 162.7467,362.0332 163.1663,361.8348 163.6033,361.6784 164.0536,361.5656 164.5128,361.4975 164.9764,361.4747 165.44,361.4975 165.8991,361.5656 166.3494,361.6784 166.7865,361.8348 167.2061,362.0332 167.6042,362.2719 167.977,362.5484 168.321,362.8601 168.6327,363.204 168.9092,363.5769 169.1478,363.975 169.3463,364.3946 169.5027,364.8317 169.6155,365.2819 169.6836,365.7411 169.7064,366.2047 169.6836,366.6683 169.6155,367.1275 169.5027,367.5777 169.3463,368.0148 169.1478,368.4344 168.9092,368.8325 168.6327,369.2054 168.321,369.5493 167.977,369.861 167.6042,370.1375 167.2061,370.3762 166.7865,370.5746 166.3494,370.731 165.8991,370.8438"/>
    <polygon points="179.9713,362.659 180.2478,362.2862 180.4864,361.8881 180.6849,361.4684 180.8413,361.0314 180.954,360.5811 181.0222,360.122 181.0449,359.6584 181.0222,359.1947 180.954,358.7356 180.8413,358.2853 180.6849,357.8483 180.4864,357.4287 180.2478,357.0305 179.9713,356.6577 179.6596,356.3138 179.3156,356.002 178.9428,355.7255 178.5447,355.4869 178.125,355.2884 177.688,355.1321 177.2377,355.0193 176.7786,354.9512 176.315,354.9284 175.8513,354.9512 175.3922,355.0193 174.9419,355.1321 174.5049,355.2884 174.0853,355.4869 173.6871,355.7255 173.3143,356.002 172.9704,356.3138 172.6586,356.6577 172.3821,357.0305 172.1435,357.4287 171.945,357.8483 171.7887,358.2853 171.6759,358.7356 171.6078,359.1947 171.585,359.6584 171.6078,360.122 171.6759,360.5811 171.7887,361.0314 171.945,361.4684 172.1435,361.8881 172.3821,362.2862 172.6586,362.659 172.9704,363.003 173.3143,363.3147 173.6871,363.5912 174.0853,363.8298 174.5049,364.0283 174.9419,364.1847 175.3922,364.2975 175.8513,364.3656 176.315,364.3883 176.7786,364.3656 177.2377,364.2975 177.688,364.1847 178.125,364.0283 178.5447,363.8298 178.9428,363.5912 179.3156,363.3147 179.6596,363.003"/>
    <polygon points="164.0536,357.7511 164.5128,357.8192 164.9764,357.842 165.44,357.8192 165.8991,357.7511 166.3494,357.6383 166.7865,357.482 167.2061,357.2835 167.6042,357.0449 167.977,356.7684 168.321,356.4566 168.6327,356.1127 168.9092,355.7399 169.1478,355.3417 169.3463,354.9221 169.5027,354.4851 169.6155,354.0348 169.6836,353.5757 169.7064,353.112 169.6836,352.6484 169.6155,352.1893 169.5027,351.739 169.3463,351.302 169.1478,350.8823 168.9092,350.4842 168.6327,350.1114 168.321,349.7674 167.977,349.4557 167.6042,349.1792 167.2061,348.9406 166.7865,348.7421 166.3494,348.5857 165.8991,348.4729 165.44,348.4048 164.9764,348.3821 164.5128,348.4048 164.0536,348.4729 163.6033,348.5857 163.1663,348.7421 162.7467,348.9406 162.3485,349.1792 161.9757,349.4557 161.6318,349.7674 161.3201,350.1114 161.0435,350.4842 160.8049,350.8823 160.6065,351.302 160.4501,351.739 160.3373,352.1893 160.2692,352.6484 160.2464,353.112 160.2692,353.5757 160.3373,354.0348 160.4501,354.4851 160.6065,354.9221 160.8049,355.3417 161.0435,355.7399 161.3201,356.1127 161.6318,356.4566 161.9757,356.7684 162.3485,357.0449 162.7467,357.2835 163.1663,357.482 163.6033,357.6383"/>
    <polygon points="154.1014,354.9512 153.6378,354.9284 153.1742,354.9512 152.715,355.0193 152.2648,355.1321 151.8277,355.2884 151.4081,355.4869 151.01,355.7255 150.6371,356.002 150.2932,356.3138 149.9815,356.6577 149.705,357.0305 149.4663,357.4287 149.2679,357.8483 149.1115,358.2853 148.9987,358.7356 148.9306,359.1947 148.9078,359.6584 148.9306,360.122 148.9987,360.5811 149.1115,361.0314 149.2679,361.4684 149.4663,361.8881 149.705,362.2862 149.9815,362.659 150.2932,363.003 150.6371,363.3147 151.01,363.5912 151.4081,363.8298 151.8277,364.0283 152.2648,364.1847 152.715,364.2975 153.1742,364.3656 153.6378,364.3883 154.1014,364.3656 154.5606,364.2975 155.0108,364.1847 155.4479,364.0283 155.8675,363.8298 156.2656,363.5912 156.6385,363.3147 156.9824,363.003 157.2941,362.659 157.5706,362.2862 157.8093,361.8881 158.0077,361.4684 158.1641,361.0314 158.2769,360.5811 158.345,360.122 158.3678,359.6584 158.345,359.1947 158.2769,358.7356 158.1641,358.2853 158.0077,357.8483 157.8093,357.4287 157.5706,357.0305 157.2941,356.6577 156.9824,356.3138 156.6385,356.002 156.2656,355.7255 155.8675,355.4869 155.4479,355.2884 155.0108,355.1321 154.5606,355.0193"/>
    <polygon points="152.715,351.2048 153.1742,351.2729 153.6378,351.2957 154.1014,351.2729 154.5606,351.2048 155.0108,351.092 155.4479,350.9356 155.8675,350.7372 156.2656,350.4985 156.6385,350.222 156.9824,349.9103 157.2941,349.5664 157.5706,349.1935 157.8093,348.7954 158.0077,348.3758 158.1641,347.9387 158.2769,347.4885 158.345,347.0293 158.3678,346.5657 158.345,346.1021 158.2769,345.6429 158.1641,345.1927 158.0077,344.7556 157.8093,344.336 157.5706,343.9379 157.2941,343.565 156.9824,343.2211 156.6385,342.9094 156.2656,342.6329 155.8675,342.3942 155.4479,342.1958 155.0108,342.0394 154.5606,341.9266 154.1014,341.8585 153.6378,341.8357 153.1742,341.8585 152.715,341.9266 152.2648,342.0394 151.8277,342.1958 151.4081,342.3942 151.01,342.6329 150.6371,342.9094 150.2932,343.2211 149.9815,343.565 149.705,343.9379 149.4663,344.336 149.2679,344.7556 149.1115,345.1927 148.9987,345.6429 148.9306,346.1021 148.9078,346.5657 148.9306,347.0293 148.9987,347.4885 149.1115,347.9387 149.2679,348.3758 149.4663,348.7954 149.705,349.1935 149.9815,349.5664 150.2932,349.9103 150.6371,350.222 151.01,350.4985 151.4081,350.7372 151.8277,350.9356 152.2648,351.092"/>
    <polygon points="147.0292,353.112 147.0064,352.6484 146.9383,352.1893 146.8255,351.739 146.6691,351.302 146.4707,350.8823 146.232,350.4842 145.9555,350.1114 145.6438,349.7674 145.2999,349.4557 144.927,349.1792 144.5289,348.9406 144.1093,348.7421 143.6723,348.5857 143.222,348.4729 142.7628,348.4048 142.2992,348.3821 141.8356,348.4048 141.3764,348.4729 140.9262,348.5857 140.4891,348.7421 140.0695,348.9406 139.6714,349.1792 139.2985,349.4557 138.9546,349.7674 138.6429,350.1114 138.3664,350.4842 138.1277,350.8823 137.9293,351.302 137.7729,351.739 137.6601,352.1893 137.592,352.6484 137.5692,353.112 137.592,353.5757 137.6601,354.0348 137.7729,354.4851 137.9293,354.9221 138.1277,355.3417 138.3664,355.7399 138.6429,356.1127 138.9546,356.4566 139.2985,356.7684 139.6714,357.0449 140.0695,357.2835 140.4891,357.482 140.9262,357.6383 141.3764,357.7511 141.8356,357.8192 142.2992,357.842 142.7628,357.8192 143.222,357.7511 143.6723,357.6383 144.1093,357.482 144.5289,357.2835 144.927,357.0449 145.2999,356.7684 145.6438,356.4566 145.9555,356.1127 146.232,355.7399 146.4707,355.3417 146.6691,354.9221 146.8255,354.4851 146.9383,354.0348 147.0064,353.5757"/>
    <polygon points="141.3764,335.3803 140.9262,335.4931 140.4891,335.6494 140.0695,335.8479 139.6714,336.0865 139.2985,336.363 138.9546,336.6748 138.6429,337.0187 138.3664,337.3915 138.1277,337.7897 137.9293,338.2093 137.7729,338.6463 137.6601,339.0966 137.592,339.5557 137.5692,340.0194 137.592,340.483 137.6601,340.9421 137.7729,341.3924 137.9293,341.8294 138.1277,342.2491 138.3664,342.6472 138.6429,343.02 138.9546,343.364 139.2985,343.6757 139.6714,343.9522 140.0695,344.1908 140.4891,344.3893 140.9262,344.5457 141.3764,344.6585 141.8356,344.7266 142.2992,344.7493 142.7628,344.7266 143.222,344.6585 143.6723,344.5457 144.1093,344.3893 144.5289,344.1908 144.927,343.9522 145.2999,343.6757 145.6438,343.364 145.9555,343.02 146.232,342.6472 146.4707,342.2491 146.6691,341.8294 146.8255,341.3924 146.9383,340.9421 147.0064,340.483 147.0292,340.0194 147.0064,339.5557 146.9383,339.0966 146.8255,338.6463 146.6691,338.2093 146.4707,337.7897 146.232,337.3915 145.9555,337.0187 145.6438,336.6748 145.2999,336.363 144.927,336.0865 144.5289,335.8479 144.1093,335.6494 143.6723,335.4931 143.222,335.3803 142.7628,335.3122 142.2992,335.2894 141.8356,335.3122"/>
    <polygon points="176.8211,329.2286 177.8946,328.9597 178.9892,328.7974 180.0945,328.7431 181.1998,328.7974 182.2944,328.9597 183.3678,329.2286 184.4097,329.6014 185.4101,330.0746 186.3593,330.6435 187.2481,331.3027 188.068,332.0458 188.8112,332.8658 189.4704,333.7546 190.0393,334.7038 190.5124,335.7041 190.8852,336.746 191.1541,337.8195 191.3165,338.9141 191.3708,340.0194 191.3165,341.1246 191.1541,342.2193 190.8852,343.2927 190.5124,344.3346 190.0393,345.335 189.4704,346.2841 188.8112,347.173 188.068,347.9929 187.2481,348.7361 186.3593,349.3953 185.4101,349.9642 184.4097,350.4373 183.3678,350.8101 182.2944,351.079 181.1998,351.2414 180.0945,351.2957 178.9892,351.2414 177.8946,351.079 176.8211,350.8101 175.7792,350.4373 174.7789,349.9642 173.8297,349.3953 172.9409,348.7361 172.1209,347.9929 171.3778,347.173 170.7186,346.2841 170.1497,345.335 169.6765,344.3346 169.3037,343.2927 169.0349,342.2193 168.8725,341.1246 168.8182,340.0194 168.8725,338.9141 169.0349,337.8195 169.3037,336.746 169.6765,335.7041 170.1497,334.7038 170.7186,333.7546 171.3778,332.8658 172.1209,332.0458 172.9409,331.3027 173.8297,330.6435 174.7789,330.0746 175.7792,329.6014"/>
    <polygon points="168.2081,323.6534 168.477,324.7268 168.6393,325.8214 168.6936,326.9267 168.6393,328.032 168.477,329.1266 168.2081,330.2 167.8353,331.242 167.3621,332.2423 166.7932,333.1915 166.134,334.0803 165.3909,334.9003 164.5709,335.6434 163.6821,336.3026 162.7329,336.8715 161.7326,337.3446 160.6907,337.7175 159.6172,337.9863 158.5226,338.1487 157.4173,338.203 156.3121,338.1487 155.2174,337.9863 154.144,337.7175 153.1021,337.3446 152.1017,336.8715 151.1525,336.3026 150.2637,335.6434 149.4438,334.9003 148.7006,334.0803 148.0414,333.1915 147.4725,332.2423 146.9994,331.242 146.6266,330.2 146.3577,329.1266 146.1953,328.032 146.141,326.9267 146.1953,325.8214 146.3577,324.7268 146.6266,323.6534 146.9994,322.6114 147.4725,321.6111 148.0414,320.6619 148.7006,319.7731 149.4438,318.9531 150.2637,318.21 151.1525,317.5508 152.1017,316.9819 153.1021,316.5087 154.144,316.1359 155.2174,315.8671 156.3121,315.7047 157.4173,315.6504 158.5226,315.7047 159.6172,315.8671 160.6907,316.1359 161.7326,316.5087 162.7329,316.9819 163.6821,317.5508 164.5709,318.21 165.3909,318.9531 166.134,319.7731 166.7932,320.6619 167.3621,321.6111 167.8353,322.6114"/>
    <polygon points="132.3337,285.6287 132.7707,285.4723 133.1903,285.2738 133.5885,285.0352 133.9613,284.7587 134.3052,284.447 134.6169,284.103 134.8935,283.7302 135.1321,283.3321 135.3306,282.9124 135.4869,282.4754 135.5997,282.0251 135.6678,281.566 135.6906,281.1024 135.6678,280.6387 135.5997,280.1796 135.4869,279.7293 135.3306,279.2923 135.1321,278.8727 134.8935,278.4745 134.6169,278.1017 134.3052,277.7578 133.9613,277.446 133.5885,277.1695 133.1903,276.9309 132.7707,276.7324 132.3337,276.5761 131.8834,276.4633 131.4242,276.3952 130.9606,276.3724 130.497,276.3952 130.0379,276.4633 129.5876,276.5761 129.1505,276.7324 128.7309,276.9309 128.3328,277.1695 127.96,277.446 127.616,277.7578 127.3043,278.1017 127.0278,278.4745 126.7892,278.8727 126.5907,279.2923 126.4343,279.7293 126.3215,280.1796 126.2534,280.6387 126.2307,281.1024 126.2534,281.566 126.3215,282.0251 126.4343,282.4754 126.5907,282.9124 126.7892,283.3321 127.0278,283.7302 127.3043,284.103 127.616,284.447 127.96,284.7587 128.3328,285.0352 128.7309,285.2738 129.1505,285.4723 129.5876,285.6287 130.0379,285.7414 130.497,285.8096 130.9606,285.8323 131.4242,285.8096 131.8834,285.7414"/>
    <polygon points="126.3215,268.9325 126.4343,269.3827 126.5907,269.8198 126.7892,270.2394 127.0278,270.6375 127.3043,271.0104 127.616,271.3543 127.96,271.666 128.3328,271.9425 128.7309,272.1812 129.1505,272.3796 129.5876,272.536 130.0379,272.6488 130.497,272.7169 130.9606,272.7397 131.4242,272.7169 131.8834,272.6488 132.3337,272.536 132.7707,272.3796 133.1903,272.1812 133.5885,271.9425 133.9613,271.666 134.3052,271.3543 134.6169,271.0104 134.8935,270.6375 135.1321,270.2394 135.3306,269.8198 135.4869,269.3827 135.5997,268.9325 135.6678,268.4733 135.6906,268.0097 135.6678,267.5461 135.5997,267.0869 135.4869,266.6367 135.3306,266.1996 135.1321,265.78 134.8935,265.3819 134.6169,265.009 134.3052,264.6651 133.9613,264.3534 133.5885,264.0769 133.1903,263.8382 132.7707,263.6398 132.3337,263.4834 131.8834,263.3706 131.4242,263.3025 130.9606,263.2797 130.497,263.3025 130.0379,263.3706 129.5876,263.4834 129.1505,263.6398 128.7309,263.8382 128.3328,264.0769 127.96,264.3534 127.616,264.6651 127.3043,265.009 127.0278,265.3819 126.7892,265.78 126.5907,266.1996 126.4343,266.6367 126.3215,267.0869 126.2534,267.5461 126.2307,268.0097 126.2534,268.4733"/>
    <polygon points="164.5709,283.2727 163.6821,283.9319 162.7329,284.5008 161.7326,284.974 160.6907,285.3468 159.6172,285.6157 158.5226,285.778 157.4173,285.8323 156.3121,285.778 155.2174,285.6157 154.144,285.3468 153.1021,284.974 152.1017,284.5008 151.1525,283.9319 150.2637,283.2727 149.4438,282.5296 148.7006,281.7096 148.0414,280.8208 147.4725,279.8716 146.9994,278.8713 146.6266,277.8294 146.3577,276.7559 146.1953,275.6613 146.141,274.556 146.1953,273.4508 146.3577,272.3561 146.6266,271.2827 146.9994,270.2408 147.4725,269.2404 148.0414,268.2912 148.7006,267.4024 149.4438,266.5825 150.2637,265.8393 151.1525,265.1801 152.1017,264.6112 153.1021,264.1381 154.144,263.7653 155.2174,263.4964 156.3121,263.334 157.4173,263.2797 158.5226,263.334 159.6172,263.4964 160.6907,263.7653 161.7326,264.1381 162.7329,264.6112 163.6821,265.1801 164.5709,265.8393 165.3909,266.5825 166.134,267.4024 166.7932,268.2912 167.3621,269.2404 167.8353,270.2408 168.2081,271.2827 168.477,272.3561 168.6393,273.4508 168.6936,274.556 168.6393,275.6613 168.477,276.7559 168.2081,277.8294 167.8353,278.8713 167.3621,279.8716 166.7932,280.8208 166.134,281.7096 165.3909,282.5296"/>
    <polygon points="170.4221,283.5099 172.194,281.9039 174.1149,280.4793 176.1661,279.2498 178.3279,278.2274 180.5796,277.4217 182.8994,276.8406 185.265,276.4897 187.6535,276.3724 190.0421,276.4897 192.4077,276.8406 194.7275,277.4217 196.9791,278.2274 199.141,279.2498 201.1922,280.4793 203.1131,281.9039 204.885,283.5099 206.491,285.2819 207.9156,287.2027 209.1451,289.2539 210.1675,291.4158 210.9732,293.6674 211.5543,295.9872 211.9052,298.3528 212.0225,300.7414 211.9052,303.1299 211.5543,305.4955 210.9732,307.8153 210.1675,310.067 209.1451,312.2288 207.9156,314.28 206.491,316.2009 204.885,317.9728 203.1131,319.5788 201.1922,321.0034 199.141,322.2329 196.9791,323.2554 194.7275,324.061 192.4077,324.6421 190.0421,324.993 187.6535,325.1103 185.265,324.993 182.8994,324.6421 180.5796,324.061 178.3279,323.2554 176.1661,322.2329 174.1149,321.0034 172.194,319.5788 170.4221,317.9728 168.8161,316.2009 167.3915,314.28 166.162,312.2288 165.1395,310.067 164.3339,307.8153 163.7528,305.4955 163.4019,303.1299 163.2846,300.7414 163.4019,298.3528 163.7528,295.9872 164.3339,293.6674 165.1395,291.4158 166.162,289.2539 167.3915,287.2027 168.8161,285.2819"/>
    <polygon points="169.3037,264.7367 169.6765,265.7786 170.1497,266.779 170.7186,267.7281 171.3778,268.617 172.1209,269.4369 172.9409,270.1801 173.8297,270.8393 174.7789,271.4082 175.7792,271.8813 176.8211,272.2541 177.8946,272.523 178.9892,272.6854 180.0945,272.7397 181.1998,272.6854 182.2944,272.523 183.3678,272.2541 184.4097,271.8813 185.4101,271.4082 186.3593,270.8393 187.2481,270.1801 188.068,269.4369 188.8112,268.617 189.4704,267.7281 190.0393,266.779 190.5124,265.7786 190.8852,264.7367 191.1541,263.6633 191.3165,262.5686 191.3708,261.4634 191.3165,260.3581 191.1541,259.2635 190.8852,258.19 190.5124,257.1481 190.0393,256.1477 189.4704,255.1986 188.8112,254.3097 188.068,253.4898 187.2481,252.7467 186.3593,252.0875 185.4101,251.5185 184.4097,251.0454 183.3678,250.6726 182.2944,250.4037 181.1998,250.2414 180.0945,250.1871 178.9892,250.2414 177.8946,250.4037 176.8211,250.6726 175.7792,251.0454 174.7789,251.5185 173.8297,252.0875 172.9409,252.7467 172.1209,253.4898 171.3778,254.3097 170.7186,255.1986 170.1497,256.1477 169.6765,257.1481 169.3037,258.19 169.0349,259.2635 168.8725,260.3581 168.8182,261.4634 168.8725,262.5686 169.0349,263.6633"/>
    <polygon points="155.4479,259.287 155.8675,259.0885 156.2656,258.8499 156.6385,258.5733 156.9824,258.2616 157.2941,257.9177 157.5706,257.5449 157.8093,257.1467 158.0077,256.7271 158.1641,256.2901 158.2769,255.8398 158.345,255.3806 158.3678,254.917 158.345,254.4534 158.2769,253.9943 158.1641,253.544 158.0077,253.1069 157.8093,252.6873 157.5706,252.2892 157.2941,251.9164 156.9824,251.5724 156.6385,251.2607 156.2656,250.9842 155.8675,250.7456 155.4479,250.5471 155.0108,250.3907 154.5606,250.2779 154.1014,250.2098 153.6378,250.1871 153.1742,250.2098 152.715,250.2779 152.2648,250.3907 151.8277,250.5471 151.4081,250.7456 151.01,250.9842 150.6371,251.2607 150.2932,251.5724 149.9815,251.9164 149.705,252.2892 149.4663,252.6873 149.2679,253.1069 149.1115,253.544 148.9987,253.9943 148.9306,254.4534 148.9078,254.917 148.9306,255.3806 148.9987,255.8398 149.1115,256.2901 149.2679,256.7271 149.4663,257.1467 149.705,257.5449 149.9815,257.9177 150.2932,258.2616 150.6371,258.5733 151.01,258.8499 151.4081,259.0885 151.8277,259.287 152.2648,259.4433 152.715,259.5561 153.1742,259.6242 153.6378,259.647 154.1014,259.6242 154.5606,259.5561 155.0108,259.4433"/>
    <polygon points="144.5289,257.2919 144.1093,257.0934 143.6723,256.9371 143.222,256.8243 142.7628,256.7562 142.2992,256.7334 141.8356,256.7562 141.3764,256.8243 140.9262,256.9371 140.4891,257.0934 140.0695,257.2919 139.6714,257.5305 139.2985,257.807 138.9546,258.1188 138.6429,258.4627 138.3664,258.8355 138.1277,259.2337 137.9293,259.6533 137.7729,260.0903 137.6601,260.5406 137.592,260.9997 137.5692,261.4634 137.592,261.927 137.6601,262.3861 137.7729,262.8364 137.9293,263.2734 138.1277,263.6931 138.3664,264.0912 138.6429,264.464 138.9546,264.808 139.2985,265.1197 139.6714,265.3962 140.0695,265.6348 140.4891,265.8333 140.9262,265.9897 141.3764,266.1024 141.8356,266.1706 142.2992,266.1933 142.7628,266.1706 143.222,266.1024 143.6723,265.9897 144.1093,265.8333 144.5289,265.6348 144.927,265.3962 145.2999,265.1197 145.6438,264.808 145.9555,264.464 146.232,264.0912 146.4707,263.6931 146.6691,263.2734 146.8255,262.8364 146.9383,262.3861 147.0064,261.927 147.0292,261.4634 147.0064,260.9997 146.9383,260.5406 146.8255,260.0903 146.6691,259.6533 146.4707,259.2337 146.232,258.8355 145.9555,258.4627 145.6438,258.1188 145.2999,257.807 144.927,257.5305"/>
    <polygon points="143.222,243.7316 142.7628,243.6635 142.2992,243.6407 141.8356,243.6635 141.3764,243.7316 140.9262,243.8444 140.4891,244.0008 140.0695,244.1992 139.6714,244.4379 139.2985,244.7144 138.9546,245.0261 138.6429,245.37 138.3664,245.7429 138.1277,246.141 137.9293,246.5606 137.7729,246.9977 137.6601,247.4479 137.592,247.9071 137.5692,248.3707 137.592,248.8343 137.6601,249.2935 137.7729,249.7437 137.9293,250.1808 138.1277,250.6004 138.3664,250.9985 138.6429,251.3714 138.9546,251.7153 139.2985,252.027 139.6714,252.3035 140.0695,252.5422 140.4891,252.7406 140.9262,252.897 141.3764,253.0098 141.8356,253.0779 142.2992,253.1007 142.7628,253.0779 143.222,253.0098 143.6723,252.897 144.1093,252.7406 144.5289,252.5422 144.927,252.3035 145.2999,252.027 145.6438,251.7153 145.9555,251.3714 146.232,250.9985 146.4707,250.6004 146.6691,250.1808 146.8255,249.7437 146.9383,249.2935 147.0064,248.8343 147.0292,248.3707 147.0064,247.9071 146.9383,247.4479 146.8255,246.9977 146.6691,246.5606 146.4707,246.141 146.232,245.7429 145.9555,245.37 145.6438,245.0261 145.2999,244.7144 144.927,244.4379 144.5289,244.1992 144.1093,244.0008 143.6723,243.8444"/>
    <polygon points="138.3664,232.6502 138.1277,233.0483 137.9293,233.4679 137.7729,233.905 137.6601,234.3553 137.592,234.8144 137.5692,235.278 137.592,235.7416 137.6601,236.2008 137.7729,236.6511 137.9293,237.0881 138.1277,237.5077 138.3664,237.9059 138.6429,238.2787 138.9546,238.6226 139.2985,238.9343 139.6714,239.2109 140.0695,239.4495 140.4891,239.648 140.9262,239.8043 141.3764,239.9171 141.8356,239.9852 142.2992,240.008 142.7628,239.9852 143.222,239.9171 143.6723,239.8043 144.1093,239.648 144.5289,239.4495 144.927,239.2109 145.2999,238.9343 145.6438,238.6226 145.9555,238.2787 146.232,237.9059 146.4707,237.5077 146.6691,237.0881 146.8255,236.6511 146.9383,236.2008 147.0064,235.7416 147.0292,235.278 147.0064,234.8144 146.9383,234.3553 146.8255,233.905 146.6691,233.4679 146.4707,233.0483 146.232,232.6502 145.9555,232.2774 145.6438,231.9334 145.2999,231.6217 144.927,231.3452 144.5289,231.1066 144.1093,230.9081 143.6723,230.7517 143.222,230.6389 142.7628,230.5708 142.2992,230.5481 141.8356,230.5708 141.3764,230.6389 140.9262,230.7517 140.4891,230.9081 140.0695,231.1066 139.6714,231.3452 139.2985,231.6217 138.9546,231.9334 138.6429,232.2774"/>
    <polygon points="149.9815,244.825 149.705,244.4522 149.4663,244.0541 149.2679,243.6344 149.1115,243.1974 148.9987,242.7471 148.9306,242.288 148.9078,241.8244 148.9306,241.3607 148.9987,240.9016 149.1115,240.4513 149.2679,240.0143 149.4663,239.5947 149.705,239.1965 149.9815,238.8237 150.2932,238.4798 150.6371,238.168 151.01,237.8915 151.4081,237.6529 151.8277,237.4544 152.2648,237.2981 152.715,237.1853 153.1742,237.1172 153.6378,237.0944 154.1014,237.1172 154.5606,237.1853 155.0108,237.2981 155.4479,237.4544 155.8675,237.6529 156.2656,237.8915 156.6385,238.168 156.9824,238.4798 157.2941,238.8237 157.5706,239.1965 157.8093,239.5947 158.0077,240.0143 158.1641,240.4513 158.2769,240.9016 158.345,241.3607 158.3678,241.8244 158.345,242.288 158.2769,242.7471 158.1641,243.1974 158.0077,243.6344 157.8093,244.0541 157.5706,244.4522 157.2941,244.825 156.9824,245.169 156.6385,245.4807 156.2656,245.7572 155.8675,245.9958 155.4479,246.1943 155.0108,246.3507 154.5606,246.4634 154.1014,246.5316 153.6378,246.5543 153.1742,246.5316 152.715,246.4634 152.2648,246.3507 151.8277,246.1943 151.4081,245.9958 151.01,245.7572 150.6371,245.4807 150.2932,245.169"/>
    <polygon points="169.1478,246.141 168.9092,245.7429 168.6327,245.37 168.321,245.0261 167.977,244.7144 167.6042,244.4379 167.2061,244.1992 166.7865,244.0008 166.3494,243.8444 165.8991,243.7316 165.44,243.6635 164.9764,243.6407 164.5128,243.6635 164.0536,243.7316 163.6033,243.8444 163.1663,244.0008 162.7467,244.1992 162.3485,244.4379 161.9757,244.7144 161.6318,245.0261 161.3201,245.37 161.0435,245.7429 160.8049,246.141 160.6065,246.5606 160.4501,246.9977 160.3373,247.4479 160.2692,247.9071 160.2464,248.3707 160.2692,248.8343 160.3373,249.2935 160.4501,249.7437 160.6065,250.1808 160.8049,250.6004 161.0435,250.9985 161.3201,251.3714 161.6318,251.7153 161.9757,252.027 162.3485,252.3035 162.7467,252.5422 163.1663,252.7406 163.6033,252.897 164.0536,253.0098 164.5128,253.0779 164.9764,253.1007 165.44,253.0779 165.8991,253.0098 166.3494,252.897 166.7865,252.7406 167.2061,252.5422 167.6042,252.3035 167.977,252.027 168.321,251.7153 168.6327,251.3714 168.9092,250.9985 169.1478,250.6004 169.3463,250.1808 169.5027,249.7437 169.6155,249.2935 169.6836,248.8343 169.7064,248.3707 169.6836,247.9071 169.6155,247.4479 169.5027,246.9977 169.3463,246.5606"/>
    <polygon points="180.2478,239.1965 179.9713,238.8237 179.6596,238.4798 179.3156,238.168 178.9428,237.8915 178.5447,237.6529 178.125,237.4544 177.688,237.2981 177.2377,237.1853 176.7786,237.1172 176.315,237.0944 175.8513,237.1172 175.3922,237.1853 174.9419,237.2981 174.5049,237.4544 174.0853,237.6529 173.6871,237.8915 173.3143,238.168 172.9704,238.4798 172.6586,238.8237 172.3821,239.1965 172.1435,239.5947 171.945,240.0143 171.7887,240.4513 171.6759,240.9016 171.6078,241.3607 171.585,241.8244 171.6078,242.288 171.6759,242.7471 171.7887,243.1974 171.945,243.6344 172.1435,244.0541 172.3821,244.4522 172.6586,244.825 172.9704,245.169 173.3143,245.4807 173.6871,245.7572 174.0853,245.9958 174.5049,246.1943 174.9419,246.3507 175.3922,246.4634 175.8513,246.5316 176.315,246.5543 176.7786,246.5316 177.2377,246.4634 177.688,246.3507 178.125,246.1943 178.5447,245.9958 178.9428,245.7572 179.3156,245.4807 179.6596,245.169 179.9713,244.825 180.2478,244.4522 180.4864,244.0541 180.6849,243.6344 180.8413,243.1974 180.954,242.7471 181.0222,242.288 181.0449,241.8244 181.0222,241.3607 180.954,240.9016 180.8413,240.4513 180.6849,240.0143 180.4864,239.5947"/>
    <polygon points="208.101,191.8286 207.7029,192.0672 207.33,192.3437 206.9861,192.6554 206.6744,192.9994 206.3979,193.3722 206.1592,193.7703 205.9608,194.1899 205.8044,194.627 205.6916,195.0773 205.6235,195.5364 205.6007,196.0 205.6235,196.4636 205.6916,196.9228 205.8044,197.3731 205.9608,197.8101 206.1592,198.2297 206.3979,198.6279 206.6744,199.0007 206.9861,199.3446 207.33,199.6563 207.7029,199.9329 208.101,200.1715 208.5206,200.3699 208.9577,200.5263 209.4079,200.6391 209.8671,200.7072 210.3307,200.73 210.7943,200.7072 211.2535,200.6391 211.7037,200.5263 212.1408,200.3699 212.5604,200.1715 212.9585,199.9329 213.3314,199.6563 213.6753,199.3446 213.987,199.0007 214.2635,198.6279 214.5022,198.2297 214.7006,197.8101 214.857,197.3731 214.9698,196.9228 215.0379,196.4636 215.0607,196.0 215.0379,195.5364 214.9698,195.0773 214.857,194.627 214.7006,194.1899 214.5022,193.7703 214.2635,193.3722 213.987,192.9994 213.6753,192.6554 213.3314,192.3437 212.9585,192.0672 212.5604,191.8286 212.1408,191.6301 211.7037,191.4737 211.2535,191.3609 210.7943,191.2928 210.3307,191.2701 209.8671,191.2928 209.4079,191.3609 208.9577,191.4737 208.5206,191.6301"/>
    <polygon points="208.5206,187.2773 208.9577,187.4337 209.4079,187.5464 209.8671,187.6146 210.3307,187.6373 210.7943,187.6146 211.2535,187.5464 211.7037,187.4337 212.1408,187.2773 212.5604,187.0788 212.9585,186.8402 213.3314,186.5637 213.6753,186.252 213.987,185.908 214.2635,185.5352 214.5022,185.137 214.7006,184.7174 214.857,184.2804 214.9698,183.8301 215.0379,183.371 215.0607,182.9074 215.0379,182.4437 214.9698,181.9846 214.857,181.5343 214.7006,181.0973 214.5022,180.6777 214.2635,180.2795 213.987,179.9067 213.6753,179.5628 213.3314,179.251 212.9585,178.9745 212.5604,178.7359 212.1408,178.5374 211.7037,178.3811 211.2535,178.2683 210.7943,178.2002 210.3307,178.1774 209.8671,178.2002 209.4079,178.2683 208.9577,178.3811 208.5206,178.5374 208.101,178.7359 207.7029,178.9745 207.33,179.251 206.9861,179.5628 206.6744,179.9067 206.3979,180.2795 206.1592,180.6777 205.9608,181.0973 205.8044,181.5343 205.6916,181.9846 205.6235,182.4437 205.6007,182.9074 205.6235,183.371 205.6916,183.8301 205.8044,184.2804 205.9608,184.7174 206.1592,185.137 206.3979,185.5352 206.6744,185.908 206.9861,186.252 207.33,186.5637 207.7029,186.8402 208.101,187.0788"/>
    <polygon points="221.2057,194.1609 220.7465,194.0928 220.2963,193.98 219.8592,193.8236 219.4396,193.6252 219.0415,193.3865 218.6686,193.11 218.3247,192.7983 218.013,192.4544 217.7365,192.0815 217.4978,191.6834 217.2994,191.2638 217.143,190.8267 217.0302,190.3765 216.9621,189.9173 216.9393,189.4537 216.9621,188.9901 217.0302,188.5309 217.143,188.0807 217.2994,187.6436 217.4978,187.224 217.7365,186.8259 218.013,186.453 218.3247,186.1091 218.6686,185.7974 219.0415,185.5209 219.4396,185.2822 219.8592,185.0838 220.2963,184.9274 220.7465,184.8146 221.2057,184.7465 221.6693,184.7237 222.1329,184.7465 222.5921,184.8146 223.0423,184.9274 223.4794,185.0838 223.899,185.2822 224.2971,185.5209 224.67,185.7974 225.0139,186.1091 225.3256,186.453 225.6021,186.8259 225.8408,187.224 226.0392,187.6436 226.1956,188.0807 226.3084,188.5309 226.3765,188.9901 226.3993,189.4537 226.3765,189.9173 226.3084,190.3765 226.1956,190.8267 226.0392,191.2638 225.8408,191.6834 225.6021,192.0815 225.3256,192.4544 225.0139,192.7983 224.67,193.11 224.2971,193.3865 223.899,193.6252 223.4794,193.8236 223.0423,193.98 222.5921,194.0928 222.1329,194.1609 221.6693,194.1837"/>
    <polygon points="216.0729,202.8279 216.7321,201.9391 217.4753,201.1191 218.2952,200.376 219.184,199.7168 220.1332,199.1479 221.1336,198.6747 222.1755,198.3019 223.2489,198.0331 224.3435,197.8707 225.4488,197.8164 226.5541,197.8707 227.6487,198.0331 228.7222,198.3019 229.7641,198.6747 230.7644,199.1479 231.7136,199.7168 232.6024,200.376 233.4224,201.1191 234.1655,201.9391 234.8247,202.8279 235.3936,203.7771 235.8668,204.7774 236.2396,205.8194 236.5085,206.8928 236.6708,207.9874 236.7251,209.0927 236.6708,210.198 236.5085,211.2926 236.2396,212.366 235.8668,213.4079 235.3936,214.4083 234.8247,215.3575 234.1655,216.2463 233.4224,217.0662 232.6024,217.8094 231.7136,218.4686 230.7644,219.0375 229.7641,219.5106 228.7222,219.8834 227.6487,220.1523 226.5541,220.3147 225.4488,220.369 224.3435,220.3147 223.2489,220.1523 222.1755,219.8834 221.1336,219.5106 220.1332,219.0375 219.184,218.4686 218.2952,217.8094 217.4753,217.0662 216.7321,216.2463 216.0729,215.3575 215.504,214.4083 215.0309,213.4079 214.6581,212.366 214.3892,211.2926 214.2268,210.198 214.1725,209.0927 214.2268,207.9874 214.3892,206.8928 214.6581,205.8194 215.0309,204.7774 215.504,203.7771"/>
    <polygon points="241.7186,219.5719 242.1168,219.8105 242.5364,220.0089 242.9734,220.1653 243.4237,220.2781 243.8828,220.3462 244.3465,220.369 244.8101,220.3462 245.2692,220.2781 245.7195,220.1653 246.1565,220.0089 246.5762,219.8105 246.9743,219.5719 247.3471,219.2953 247.6911,218.9836 248.0028,218.6397 248.2793,218.2669 248.5179,217.8687 248.7164,217.4491 248.8728,217.0121 248.9855,216.5618 249.0537,216.1026 249.0764,215.639 249.0537,215.1754 248.9855,214.7163 248.8728,214.266 248.7164,213.8289 248.5179,213.4093 248.2793,213.0112 248.0028,212.6384 247.6911,212.2944 247.3471,211.9827 246.9743,211.7062 246.5762,211.4676 246.1565,211.2691 245.7195,211.1127 245.2692,210.9999 244.8101,210.9318 244.3465,210.9091 243.8828,210.9318 243.4237,210.9999 242.9734,211.1127 242.5364,211.2691 242.1168,211.4676 241.7186,211.7062 241.3458,211.9827 241.0019,212.2944 240.6901,212.6384 240.4136,213.0112 240.175,213.4093 239.9765,213.8289 239.8202,214.266 239.7074,214.7163 239.6393,215.1754 239.6165,215.639 239.6393,216.1026 239.7074,216.5618 239.8202,217.0121 239.9765,217.4491 240.175,217.8687 240.4136,218.2669 240.6901,218.6397 241.0019,218.9836 241.3458,219.2953"/>
    <polygon points="243.4237,224.0926 242.9734,224.2054 242.5364,224.3618 242.1168,224.5602 241.7186,224.7989 241.3458,225.0754 241.0019,225.3871 240.6901,225.731 240.4136,226.1039 240.175,226.502 239.9765,226.9216 239.8202,227.3587 239.7074,227.8089 239.6393,228.2681 239.6165,228.7317 239.6393,229.1953 239.7074,229.6545 239.8202,230.1047 239.9765,230.5418 240.175,230.9614 240.4136,231.3595 240.6901,231.7324 241.0019,232.0763 241.3458,232.388 241.7186,232.6645 242.1168,232.9032 242.5364,233.1016 242.9734,233.258 243.4237,233.3708 243.8828,233.4389 244.3465,233.4617 244.8101,233.4389 245.2692,233.3708 245.7195,233.258 246.1565,233.1016 246.5762,232.9032 246.9743,232.6645 247.3471,232.388 247.6911,232.0763 248.0028,231.7324 248.2793,231.3595 248.5179,230.9614 248.7164,230.5418 248.8728,230.1047 248.9855,229.6545 249.0537,229.1953 249.0764,228.7317 249.0537,228.2681 248.9855,227.8089 248.8728,227.3587 248.7164,226.9216 248.5179,226.502 248.2793,226.1039 248.0028,225.731 247.6911,225.3871 247.3471,225.0754 246.9743,224.7989 246.5762,224.5602 246.1565,224.3618 245.7195,224.2054 245.2692,224.0926 244.8101,224.0245 244.3465,224.0017 243.8828,224.0245"/>
    <polygon points="236.5085,237.4779 236.6708,236.3833 236.7251,235.278 236.6708,234.1728 236.5085,233.0781 236.2396,232.0047 235.8668,230.9628 235.3936,229.9624 234.8247,229.0132 234.1655,228.1244 233.4224,227.3045 232.6024,226.5613 231.7136,225.9021 230.7644,225.3332 229.7641,224.8601 228.7222,224.4873 227.6487,224.2184 226.5541,224.056 225.4488,224.0017 224.3435,224.056 223.2489,224.2184 222.1755,224.4873 221.1336,224.8601 220.1332,225.3332 219.184,225.9021 218.2952,226.5613 217.4753,227.3045 216.7321,228.1244 216.0729,229.0132 215.504,229.9624 215.0309,230.9628 214.6581,232.0047 214.3892,233.0781 214.2268,234.1728 214.1725,235.278 214.2268,236.3833 214.3892,237.4779 214.6581,238.5514 215.0309,239.5933 215.504,240.5936 216.0729,241.5428 216.7321,242.4316 217.4753,243.2516 218.2952,243.9947 219.184,244.6539 220.1332,245.2228 221.1336,245.696 222.1755,246.0688 223.2489,246.3377 224.3435,246.5 225.4488,246.5543 226.5541,246.5 227.6487,246.3377 228.7222,246.0688 229.7641,245.696 230.7644,245.2228 231.7136,244.6539 232.6024,243.9947 233.4224,243.2516 234.1655,242.4316 234.8247,241.5428 235.3936,240.5936 235.8668,239.5933 236.2396,238.5514"/>
    <polygon points="255.5219,265.2304 254.4994,263.0686 253.2699,261.0174 251.8453,259.0965 250.2393,257.3246 248.4674,255.7186 246.5466,254.294 244.4953,253.0645 242.3335,252.042 240.0818,251.2364 237.762,250.6553 235.3965,250.3044 233.0079,250.1871 230.6193,250.3044 228.2537,250.6553 225.9339,251.2364 223.6823,252.042 221.5204,253.0645 219.4692,254.294 217.5484,255.7186 215.7764,257.3246 214.1704,259.0965 212.7458,261.0174 211.5164,263.0686 210.4939,265.2304 209.6882,267.4821 209.1071,269.8019 208.7562,272.1675 208.6389,274.556 208.7562,276.9446 209.1071,279.3102 209.6882,281.63 210.4939,283.8816 211.5164,286.0435 212.7458,288.0947 214.1704,290.0155 215.7764,291.7875 217.5484,293.3935 219.4692,294.8181 221.5204,296.0475 223.6823,297.07 225.9339,297.8757 228.2537,298.4568 230.6193,298.8077 233.0079,298.925 235.3965,298.8077 237.762,298.4568 240.0818,297.8757 242.3335,297.07 244.4953,296.0475 246.5466,294.8181 248.4674,293.3935 250.2393,291.7875 251.8453,290.0155 253.2699,288.0947 254.4994,286.0435 255.5219,283.8816 256.3275,281.63 256.9086,279.3102 257.2595,276.9446 257.3768,274.556 257.2595,272.1675 256.9086,269.8019 256.3275,267.4821"/>
    <polygon points="265.4875,277.7039 264.5384,278.2728 263.6495,278.932 262.8296,279.6751 262.0864,280.4951 261.4272,281.3839 260.8583,282.3331 260.3852,283.3334 260.0124,284.3754 259.7435,285.4488 259.5811,286.5434 259.5268,287.6487 259.5811,288.754 259.7435,289.8486 260.0124,290.922 260.3852,291.964 260.8583,292.9643 261.4272,293.9135 262.0864,294.8023 262.8296,295.6222 263.6495,296.3654 264.5384,297.0246 265.4875,297.5935 266.4879,298.0666 267.5298,298.4394 268.6033,298.7083 269.6979,298.8707 270.8031,298.925 271.9084,298.8707 273.003,298.7083 274.0765,298.4394 275.1184,298.0666 276.1188,297.5935 277.0679,297.0246 277.9568,296.3654 278.7767,295.6222 279.5199,294.8023 280.1791,293.9135 280.748,292.9643 281.2211,291.964 281.5939,290.922 281.8628,289.8486 282.0252,288.754 282.0795,287.6487 282.0252,286.5434 281.8628,285.4488 281.5939,284.3754 281.2211,283.3334 280.748,282.3331 280.1791,281.3839 279.5199,280.4951 278.7767,279.6751 277.9568,278.932 277.0679,278.2728 276.1188,277.7039 275.1184,277.2307 274.0765,276.8579 273.003,276.5891 271.9084,276.4267 270.8031,276.3724 269.6979,276.4267 268.6033,276.5891 267.5298,276.8579 266.4879,277.2307"/>
    <polygon points="290.6236,298.8341 291.0738,298.7213 291.5109,298.565 291.9305,298.3665 292.3286,298.1279 292.7015,297.8513 293.0454,297.5396 293.3571,297.1957 293.6336,296.8229 293.8723,296.4247 294.0707,296.0051 294.2271,295.5681 294.3399,295.1178 294.408,294.6586 294.4308,294.195 294.408,293.7314 294.3399,293.2723 294.2271,292.822 294.0707,292.3849 293.8723,291.9653 293.6336,291.5672 293.3571,291.1944 293.0454,290.8504 292.7015,290.5387 292.3286,290.2622 291.9305,290.0236 291.5109,289.8251 291.0738,289.6687 290.6236,289.5559 290.1644,289.4878 289.7008,289.4651 289.2372,289.4878 288.778,289.5559 288.3277,289.6687 287.8907,289.8251 287.4711,290.0236 287.073,290.2622 286.7001,290.5387 286.3562,290.8504 286.0445,291.1944 285.768,291.5672 285.5293,291.9653 285.3309,292.3849 285.1745,292.822 285.0617,293.2723 284.9936,293.7314 284.9708,294.195 284.9936,294.6586 285.0617,295.1178 285.1745,295.5681 285.3309,296.0051 285.5293,296.4247 285.768,296.8229 286.0445,297.1957 286.3562,297.5396 286.7001,297.8513 287.073,298.1279 287.4711,298.3665 287.8907,298.565 288.3277,298.7213 288.778,298.8341 289.2372,298.9022 289.7008,298.925 290.1644,298.9022"/>
    <polygon points="285.3309,309.0978 285.5293,309.5174 285.768,309.9155 286.0445,310.2884 286.3562,310.6323 286.7001,310.944 287.073,311.2205 287.4711,311.4592 287.8907,311.6576 288.3277,311.814 288.778,311.9268 289.2372,311.9949 289.7008,312.0177 290.1644,311.9949 290.6236,311.9268 291.0738,311.814 291.5109,311.6576 291.9305,311.4592 292.3286,311.2205 292.7015,310.944 293.0454,310.6323 293.3571,310.2884 293.6336,309.9155 293.8723,309.5174 294.0707,309.0978 294.2271,308.6607 294.3399,308.2105 294.408,307.7513 294.4308,307.2877 294.408,306.8241 294.3399,306.3649 294.2271,305.9147 294.0707,305.4776 293.8723,305.058 293.6336,304.6599 293.3571,304.287 293.0454,303.9431 292.7015,303.6314 292.3286,303.3549 291.9305,303.1162 291.5109,302.9178 291.0738,302.7614 290.6236,302.6486 290.1644,302.5805 289.7008,302.5577 289.2372,302.5805 288.778,302.6486 288.3277,302.7614 287.8907,302.9178 287.4711,303.1162 287.073,303.3549 286.7001,303.6314 286.3562,303.9431 286.0445,304.287 285.768,304.6599 285.5293,305.058 285.3309,305.4776 285.1745,305.9147 285.0617,306.3649 284.9936,306.8241 284.9708,307.2877 284.9936,307.7513 285.0617,308.2105 285.1745,308.6607"/>
    <polygon points="299.7451,336.3026 298.7959,336.8715 297.7956,337.3446 296.7537,337.7175 295.6802,337.9863 294.5856,338.1487 293.4803,338.203 292.375,338.1487 291.2804,337.9863 290.207,337.7175 289.1651,337.3446 288.1647,336.8715 287.2155,336.3026 286.3267,335.6434 285.5068,334.9003 284.7636,334.0803 284.1044,333.1915 283.5355,332.2423 283.0624,331.242 282.6896,330.2 282.4207,329.1266 282.2583,328.032 282.204,326.9267 282.2583,325.8214 282.4207,324.7268 282.6896,323.6534 283.0624,322.6114 283.5355,321.6111 284.1044,320.6619 284.7636,319.7731 285.5068,318.9531 286.3267,318.21 287.2155,317.5508 288.1647,316.9819 289.1651,316.5087 290.207,316.1359 291.2804,315.8671 292.375,315.7047 293.4803,315.6504 294.5856,315.7047 295.6802,315.8671 296.7537,316.1359 297.7956,316.5087 298.7959,316.9819 299.7451,317.5508 300.6339,318.21 301.4539,318.9531 302.197,319.7731 302.8562,320.6619 303.4251,321.6111 303.8983,322.6114 304.2711,323.6534 304.54,324.7268 304.7023,325.8214 304.7566,326.9267 304.7023,328.032 304.54,329.1266 304.2711,330.2 303.8983,331.242 303.4251,332.2423 302.8562,333.1915 302.197,334.0803 301.4539,334.9003 300.6339,335.6434"/>
    <polygon points="299.2293,348.7421 299.6663,348.5857 300.1166,348.4729 300.5758,348.4048 301.0394,348.3821 301.503,348.4048 301.9621,348.4729 302.4124,348.5857 302.8495,348.7421 303.2691,348.9406 303.6672,349.1792 304.04,349.4557 304.384,349.7674 304.6957,350.1114 304.9722,350.4842 305.2108,350.8823 305.4093,351.302 305.5657,351.739 305.6785,352.1893 305.7466,352.6484 305.7693,353.112 305.7466,353.5757 305.6785,354.0348 305.5657,354.4851 305.4093,354.9221 305.2108,355.3417 304.9722,355.7399 304.6957,356.1127 304.384,356.4566 304.04,356.7684 303.6672,357.0449 303.2691,357.2835 302.8495,357.482 302.4124,357.6383 301.9621,357.7511 301.503,357.8192 301.0394,357.842 300.5758,357.8192 300.1166,357.7511 299.6663,357.6383 299.2293,357.482 298.8097,357.2835 298.4115,357.0449 298.0387,356.7684 297.6948,356.4566 297.3831,356.1127 297.1065,355.7399 296.8679,355.3417 296.6694,354.9221 296.5131,354.4851 296.4003,354.0348 296.3322,353.5757 296.3094,353.112 296.3322,352.6484 296.4003,352.1893 296.5131,351.739 296.6694,351.302 296.8679,350.8823 297.1065,350.4842 297.3831,350.1114 297.6948,349.7674 298.0387,349.4557 298.4115,349.1792 298.8097,348.9406"/>
    <polygon points="294.0707,348.3758 293.8723,348.7954 293.6336,349.1935 293.3571,349.5664 293.0454,349.9103 292.7015,350.222 292.3286,350.4985 291.9305,350.7372 291.5109,350.9356 291.0738,351.092 290.6236,351.2048 290.1644,351.2729 289.7008,351.2957 289.2372,351.2729 288.778,351.2048 288.3277,351.092 287.8907,350.9356 287.4711,350.7372 287.073,350.4985 286.7001,350.222 286.3562,349.9103 286.0445,349.5664 285.768,349.1935 285.5293,348.7954 285.3309,348.3758 285.1745,347.9387 285.0617,347.4885 284.9936,347.0293 284.9708,346.5657 284.9936,346.1021 285.0617,345.6429 285.1745,345.1927 285.3309,344.7556 285.5293,344.336 285.768,343.9379 286.0445,343.565 286.3562,343.2211 286.7001,342.9094 287.073,342.6329 287.4711,342.3942 287.8907,342.1958 288.3277,342.0394 288.778,341.9266 289.2372,341.8585 289.7008,341.8357 290.1644,341.8585 290.6236,341.9266 291.0738,342.0394 291.5109,342.1958 291.9305,342.3942 292.3286,342.6329 292.7015,342.9094 293.0454,343.2211 293.3571,343.565 293.6336,343.9379 293.8723,344.336 294.0707,344.7556 294.2271,345.1927 294.3399,345.6429 294.408,346.1021 294.4308,346.5657 294.408,347.0293 294.3399,347.4885 294.2271,347.9387"/>
    <polygon points="270.8031,328.7431 269.6979,328.7974 268.6033,328.9597 267.5298,329.2286 266.4879,329.6014 265.4875,330.0746 264.5384,330.6435 263.6495,331.3027 262.8296,332.0458 262.0864,332.8658 261.4272,333.7546 260.8583,334.7038 260.3852,335.7041 260.0124,336.746 259.7435,337.8195 259.5811,338.9141 259.5268,340.0194 259.5811,341.1246 259.7435,342.2193 260.0124,343.2927 260.3852,344.3346 260.8583,345.335 261.4272,346.2841 262.0864,347.173 262.8296,347.9929 263.6495,348.7361 264.5384,349.3953 265.4875,349.9642 266.4879,350.4373 267.5298,350.8101 268.6033,351.079 269.6979,351.2414 270.8031,351.2957 271.9084,351.2414 273.003,351.079 274.0765,350.8101 275.1184,350.4373 276.1188,349.9642 277.0679,349.3953 277.9568,348.7361 278.7767,347.9929 279.5199,347.173 280.1791,346.2841 280.748,345.335 281.2211,344.3346 281.5939,343.2927 281.8628,342.2193 282.0252,341.1246 282.0795,340.0194 282.0252,338.9141 281.8628,337.8195 281.5939,336.746 281.2211,335.7041 280.748,334.7038 280.1791,333.7546 279.5199,332.8658 278.7767,332.0458 277.9568,331.3027 277.0679,330.6435 276.1188,330.0746 275.1184,329.6014 274.0765,329.2286 273.003,328.9597 271.9084,328.7974"/>
    <polygon points="263.6495,322.5507 264.5384,323.2099 265.4875,323.7788 266.4879,324.252 267.5298,324.6248 268.6033,324.8937 269.6979,325.056 270.8031,325.1103 271.9084,325.056 273.003,324.8937 274.0765,324.6248 275.1184,324.252 276.1188,323.7788 277.0679,323.2099 277.9568,322.5507 278.7767,321.8076 279.5199,320.9876 280.1791,320.0988 280.748,319.1496 281.2211,318.1493 281.5939,317.1074 281.8628,316.0339 282.0252,314.9393 282.0795,313.834 282.0252,312.7288 281.8628,311.6341 281.5939,310.5607 281.2211,309.5188 280.748,308.5184 280.1791,307.5693 279.5199,306.6804 278.7767,305.8605 277.9568,305.1173 277.0679,304.4581 276.1188,303.8892 275.1184,303.4161 274.0765,303.0433 273.003,302.7744 271.9084,302.612 270.8031,302.5577 269.6979,302.612 268.6033,302.7744 267.5298,303.0433 266.4879,303.4161 265.4875,303.8892 264.5384,304.4581 263.6495,305.1173 262.8296,305.8605 262.0864,306.6804 261.4272,307.5693 260.8583,308.5184 260.3852,309.5188 260.0124,310.5607 259.7435,311.6341 259.5811,312.7288 259.5268,313.834 259.5811,314.9393 259.7435,316.0339 260.0124,317.1074 260.3852,318.1493 260.8583,319.1496 261.4272,320.0988 262.0864,320.9876 262.8296,321.8076"/>
    <polygon points="257.2595,329.3153 257.3768,326.9267 257.2595,324.5381 256.9086,322.1725 256.3275,319.8528 255.5219,317.6011 254.4994,315.4392 253.2699,313.388 251.8453,311.4672 250.2393,309.6952 248.4674,308.0892 246.5466,306.6646 244.4953,305.4352 242.3335,304.4127 240.0818,303.607 237.762,303.026 235.3965,302.6751 233.0079,302.5577 230.6193,302.6751 228.2537,303.026 225.9339,303.607 223.6823,304.4127 221.5204,305.4352 219.4692,306.6646 217.5484,308.0892 215.7764,309.6952 214.1704,311.4672 212.7458,313.388 211.5164,315.4392 210.4939,317.6011 209.6882,319.8528 209.1071,322.1725 208.7562,324.5381 208.6389,326.9267 208.7562,329.3153 209.1071,331.6808 209.6882,334.0006 210.4939,336.2523 211.5164,338.4142 212.7458,340.4654 214.1704,342.3862 215.7764,344.1582 217.5484,345.7642 219.4692,347.1888 221.5204,348.4182 223.6823,349.4407 225.9339,350.2464 228.2537,350.8274 230.6193,351.1783 233.0079,351.2957 235.3965,351.1783 237.762,350.8274 240.0818,350.2464 242.3335,349.4407 244.4953,348.4182 246.5466,347.1888 248.4674,345.7642 250.2393,344.1582 251.8453,342.3862 253.2699,340.4654 254.4994,338.4142 255.5219,336.2523 256.3275,334.0006 256.9086,331.6808"/>
    <polygon points="265.2135,364.0283 265.6506,364.1847 266.1009,364.2975 266.56,364.3656 267.0236,364.3883 267.4872,364.3656 267.9464,364.2975 268.3967,364.1847 268.8337,364.0283 269.2533,363.8298 269.6515,363.5912 270.0243,363.3147 270.3682,363.003 270.6799,362.659 270.9565,362.2862 271.1951,361.8881 271.3935,361.4684 271.5499,361.0314 271.6627,360.5811 271.7308,360.122 271.7536,359.6584 271.7308,359.1947 271.6627,358.7356 271.5499,358.2853 271.3935,357.8483 271.1951,357.4287 270.9565,357.0305 270.6799,356.6577 270.3682,356.3138 270.0243,356.002 269.6515,355.7255 269.2533,355.4869 268.8337,355.2884 268.3967,355.1321 267.9464,355.0193 267.4872,354.9512 267.0236,354.9284 266.56,354.9512 266.1009,355.0193 265.6506,355.1321 265.2135,355.2884 264.7939,355.4869 264.3958,355.7255 264.023,356.002 263.679,356.3138 263.3673,356.6577 263.0908,357.0305 262.8522,357.4287 262.6537,357.8483 262.4973,358.2853 262.3845,358.7356 262.3164,359.1947 262.2936,359.6584 262.3164,360.122 262.3845,360.5811 262.4973,361.0314 262.6537,361.4684 262.8522,361.8881 263.0908,362.2862 263.3673,362.659 263.679,363.003 264.023,363.3147 264.3958,363.5912 264.7939,363.8298"/>
    <polygon points="263.3673,375.7517 263.679,376.0956 264.023,376.4074 264.3958,376.6839 264.7939,376.9225 265.2135,377.121 265.6506,377.2773 266.1009,377.3901 266.56,377.4582 267.0236,377.481 267.4872,377.4582 267.9464,377.3901 268.3967,377.2773 268.8337,377.121 269.2533,376.9225 269.6515,376.6839 270.0243,376.4074 270.3682,376.0956 270.6799,375.7517 270.9565,375.3789 271.1951,374.9807 271.3935,374.5611 271.5499,374.1241 271.6627,373.6738 271.7308,373.2147 271.7536,372.751 271.7308,372.2874 271.6627,371.8283 271.5499,371.378 271.3935,370.941 271.1951,370.5213 270.9565,370.1232 270.6799,369.7504 270.3682,369.4064 270.0243,369.0947 269.6515,368.8182 269.2533,368.5796 268.8337,368.3811 268.3967,368.2247 267.9464,368.1119 267.4872,368.0438 267.0236,368.0211 266.56,368.0438 266.1009,368.1119 265.6506,368.2247 265.2135,368.3811 264.7939,368.5796 264.3958,368.8182 264.023,369.0947 263.679,369.4064 263.3673,369.7504 263.0908,370.1232 262.8522,370.5213 262.6537,370.941 262.4973,371.378 262.3845,371.8283 262.3164,372.2874 262.2936,372.751 262.3164,373.2147 262.3845,373.6738 262.4973,374.1241 262.6537,374.5611 262.8522,374.9807 263.0908,375.3789"/>
  </g>
</svg>
