<?xml version="1.0" encoding="utf-8" ?>
<svg xmlns="http://www.w3.org/2000/svg" xmlns:cc="http://creativecommons.org/ns" xmlns:dc="http://purl.org/dc/elements/1.1/" xmlns:ev="http://www.w3.org/2001/xml-events" xmlns:inkscape="http://www.inkscape.org/namespaces/inkscape" xmlns:rdf="http://www.w3.org/1999/02/22-rdf-syntax-ns" xmlns:sodipodi="http://sodipodi.sourceforge.net/DTD/sodipodi-0.dtd" xmlns:xlink="http://www.w3.org/1999/xlink" baseProfile="tiny" height="15.875cm" version="1.2" viewBox="0 0 432.0 600.0" width="11.43cm">
  <metadata>
    <rdf:RDF>
      <cc:Work>
        <dc:format>image/svg+xml</dc:format>
        <dc:source>vsk save -s 249 -c hex-grid/config/bubble-coasters-2.json /Users/tobin/src/fabian/plotting/fabian-plotting/hex-grid/sketch_hex_grid.py</dc:source>
        <dc:date>2023-11-11T11:30:23.751443</dc:date>
      </cc:Work>
    </rdf:RDF>
  </metadata>
  <defs/>
  <g fill="none" id="layer1" inkscape:groupmode="layer" inkscape:label="1" stroke="#000000" stroke-width="0.7559" style="display:inline">
    <polygon points="223.2438,298.3528 223.3611,300.7414 223.2438,303.1299 222.8929,305.4955 222.3118,307.8153 221.5061,310.067 220.4836,312.2288 219.2542,314.28 217.8296,316.2009 216.2236,317.9728 214.4516,319.5788 212.5308,321.0034 210.4796,322.2329 208.3177,323.2554 206.0661,324.061 203.7463,324.6421 201.3807,324.993 198.9921,325.1103 196.6035,324.993 194.238,324.6421 191.9182,324.061 189.6665,323.2554 187.5047,322.2329 185.4534,321.0034 183.5326,319.5788 181.7607,317.9728 180.1547,316.2009 178.7301,314.28 177.5006,312.2288 176.4781,310.067 175.6725,307.8153 175.0914,305.4955 174.7405,303.1299 174.6232,300.7414 174.7405,298.3528 175.0914,295.9872 175.6725,293.6674 176.4781,291.4158 177.5006,289.2539 178.7301,287.2027 180.1547,285.2819 181.7607,283.5099 183.5326,281.9039 185.4534,280.4793 187.5047,279.2498 189.6665,278.2274 191.9182,277.4217 194.238,276.8406 196.6035,276.4897 198.9921,276.3724 201.3807,276.4897 203.7463,276.8406 206.0661,277.4217 208.3177,278.2274 210.4796,279.2498 212.5308,280.4793 214.4516,281.9039 216.2236,283.5099 217.8296,285.2819 219.2542,287.2027 220.4836,289.2539 221.5061,291.4158 222.3118,293.6674 222.8929,295.9872"/>
    <polygon points="202.2238,336.746 202.4927,337.8195 202.6551,338.9141 202.7094,340.0194 202.6551,341.1246 202.4927,342.2193 202.2238,343.2927 201.851,344.3346 201.3779,345.335 200.809,346.2841 200.1498,347.173 199.4066,347.9929 198.5867,348.7361 197.6979,349.3953 196.7487,349.9642 195.7483,350.4373 194.7064,350.8101 193.633,351.079 192.5383,351.2414 191.4331,351.2957 190.3278,351.2414 189.2332,351.079 188.1597,350.8101 187.1178,350.4373 186.1175,349.9642 185.1683,349.3953 184.2795,348.7361 183.4595,347.9929 182.7164,347.173 182.0572,346.2841 181.4883,345.335 181.0151,344.3346 180.6423,343.2927 180.3734,342.2193 180.2111,341.1246 180.1568,340.0194 180.2111,338.9141 180.3734,337.8195 180.6423,336.746 181.0151,335.7041 181.4883,334.7038 182.0572,333.7546 182.7164,332.8658 183.4595,332.0458 184.2795,331.3027 185.1683,330.6435 186.1175,330.0746 187.1178,329.6014 188.1597,329.2286 189.2332,328.9597 190.3278,328.7974 191.4331,328.7431 192.5383,328.7974 193.633,328.9597 194.7064,329.2286 195.7483,329.6014 196.7487,330.0746 197.6979,330.6435 198.5867,331.3027 199.4066,332.0458 200.1498,332.8658 200.809,333.7546 201.3779,334.7038 201.851,335.7041"/>
    <polygon points="167.6042,342.6329 167.2061,342.3942 166.7865,342.1958 166.3494,342.0394 165.8991,341.9266 165.44,341.8585 164.9764,341.8357 164.5128,341.8585 164.0536,341.9266 163.6033,342.0394 163.1663,342.1958 162.7467,342.3942 162.3485,342.6329 161.9757,342.9094 161.6318,343.2211 161.3201,343.565 161.0435,343.9379 160.8049,344.336 160.6065,344.7556 160.4501,345.1927 160.3373,345.6429 160.2692,346.1021 160.2464,346.5657 160.2692,347.0293 160.3373,347.4885 160.4501,347.9387 160.6065,348.3758 160.8049,348.7954 161.0435,349.1935 161.3201,349.5664 161.6318,349.9103 161.9757,350.222 162.3485,350.4985 162.7467,350.7372 163.1663,350.9356 163.6033,351.092 164.0536,351.2048 164.5128,351.2729 164.9764,351.2957 165.44,351.2729 165.8991,351.2048 166.3494,351.092 166.7865,350.9356 167.2061,350.7372 167.6042,350.4985 167.977,350.222 168.321,349.9103 168.6327,349.5664 168.9092,349.1935 169.1478,348.7954 169.3463,348.3758 169.5027,347.9387 169.6155,347.4885 169.6836,347.0293 169.7064,346.5657 169.6836,346.1021 169.6155,345.6429 169.5027,345.1927 169.3463,344.7556 169.1478,344.336 168.9092,343.9379 168.6327,343.565 168.321,343.2211 167.977,342.9094"/>
    <polygon points="160.2464,359.6584 160.2692,360.122 160.3373,360.5811 160.4501,361.0314 160.6065,361.4684 160.8049,361.8881 161.0435,362.2862 161.3201,362.659 161.6318,363.003 161.9757,363.3147 162.3485,363.5912 162.7467,363.8298 163.1663,364.0283 163.6033,364.1847 164.0536,364.2975 164.5128,364.3656 164.9764,364.3883 165.44,364.3656 165.8991,364.2975 166.3494,364.1847 166.7865,364.0283 167.2061,363.8298 167.6042,363.5912 167.977,363.3147 168.321,363.003 168.6327,362.659 168.9092,362.2862 169.1478,361.8881 169.3463,361.4684 169.5027,361.0314 169.6155,360.5811 169.6836,360.122 169.7064,359.6584 169.6836,359.1947 169.6155,358.7356 169.5027,358.2853 169.3463,357.8483 169.1478,357.4287 168.9092,357.0305 168.6327,356.6577 168.321,356.3138 167.977,356.002 167.6042,355.7255 167.2061,355.4869 166.7865,355.2884 166.3494,355.1321 165.8991,355.0193 165.44,354.9512 164.9764,354.9284 164.5128,354.9512 164.0536,355.0193 163.6033,355.1321 163.1663,355.2884 162.7467,355.4869 162.3485,355.7255 161.9757,356.002 161.6318,356.3138 161.3201,356.6577 161.0435,357.0305 160.8049,357.4287 160.6065,357.8483 160.4501,358.2853 160.3373,358.7356 160.2692,359.1947"/>
    <polygon points="160.2692,372.2874 160.2464,372.751 160.2692,373.2147 160.3373,373.6738 160.4501,374.1241 160.6065,374.5611 160.8049,374.9807 161.0435,375.3789 161.3201,375.7517 161.6318,376.0956 161.9757,376.4074 162.3485,376.6839 162.7467,376.9225 163.1663,377.121 163.6033,377.2773 164.0536,377.3901 164.5128,377.4582 164.9764,377.481 165.44,377.4582 165.8991,377.3901 166.3494,377.2773 166.7865,377.121 167.2061,376.9225 167.6042,376.6839 167.977,376.4074 168.321,376.0956 168.6327,375.7517 168.9092,375.3789 169.1478,374.9807 169.3463,374.5611 169.5027,374.1241 169.6155,373.6738 169.6836,373.2147 169.7064,372.751 169.6836,372.2874 169.6155,371.8283 169.5027,371.378 169.3463,370.941 169.1478,370.5213 168.9092,370.1232 168.6327,369.7504 168.321,369.4064 167.977,369.0947 167.6042,368.8182 167.2061,368.5796 166.7865,368.3811 166.3494,368.2247 165.8991,368.1119 165.44,368.0438 164.9764,368.0211 164.5128,368.0438 164.0536,368.1119 163.6033,368.2247 163.1663,368.3811 162.7467,368.5796 162.3485,368.8182 161.9757,369.0947 161.6318,369.4064 161.3201,369.7504 161.0435,370.1232 160.8049,370.5213 160.6065,370.941 160.4501,371.378 160.3373,371.8283"/>
    <polygon points="149.9815,343.02 149.705,342.6472 149.4663,342.2491 149.2679,341.8294 149.1115,341.3924 148.9987,340.9421 148.9306,340.483 148.9078,340.0194 148.9306,339.5557 148.9987,339.0966 149.1115,338.6463 149.2679,338.2093 149.4663,337.7897 149.705,337.3915 149.9815,337.0187 150.2932,336.6748 150.6371,336.363 151.01,336.0865 151.4081,335.8479 151.8277,335.6494 152.2648,335.4931 152.715,335.3803 153.1742,335.3122 153.6378,335.2894 154.1014,335.3122 154.5606,335.3803 155.0108,335.4931 155.4479,335.6494 155.8675,335.8479 156.2656,336.0865 156.6385,336.363 156.9824,336.6748 157.2941,337.0187 157.5706,337.3915 157.8093,337.7897 158.0077,338.2093 158.1641,338.6463 158.2769,339.0966 158.345,339.5557 158.3678,340.0194 158.345,340.483 158.2769,340.9421 158.1641,341.3924 158.0077,341.8294 157.8093,342.2491 157.5706,342.6472 157.2941,343.02 156.9824,343.364 156.6385,343.6757 156.2656,343.9522 155.8675,344.1908 155.4479,344.3893 155.0108,344.5457 154.5606,344.6585 154.1014,344.7266 153.6378,344.7493 153.1742,344.7266 152.715,344.6585 152.2648,344.5457 151.8277,344.3893 151.4081,344.1908 151.01,343.9522 150.6371,343.6757 150.2932,343.364"/>
    <polygon points="157.4796,326.9267 157.5339,328.032 157.6963,329.1266 157.9652,330.2 158.338,331.242 158.8111,332.2423 159.38,333.1915 160.0392,334.0803 160.7824,334.9003 161.6023,335.6434 162.4911,336.3026 163.4403,336.8715 164.4406,337.3446 165.4826,337.7175 166.556,337.9863 167.6506,338.1487 168.7559,338.203 169.8612,338.1487 170.9558,337.9863 172.0292,337.7175 173.0712,337.3446 174.0715,336.8715 175.0207,336.3026 175.9095,335.6434 176.7295,334.9003 177.4726,334.0803 178.1318,333.1915 178.7007,332.2423 179.1739,331.242 179.5467,330.2 179.8155,329.1266 179.9779,328.032 180.0322,326.9267 179.9779,325.8214 179.8155,324.7268 179.5467,323.6534 179.1739,322.6114 178.7007,321.6111 178.1318,320.6619 177.4726,319.7731 176.7295,318.9531 175.9095,318.21 175.0207,317.5508 174.0715,316.9819 173.0712,316.5087 172.0292,316.1359 170.9558,315.8671 169.8612,315.7047 168.7559,315.6504 167.6506,315.7047 166.556,315.8671 165.4826,316.1359 164.4406,316.5087 163.4403,316.9819 162.4911,317.5508 161.6023,318.21 160.7824,318.9531 160.0392,319.7731 159.38,320.6619 158.8111,321.6111 158.338,322.6114 157.9652,323.6534 157.6963,324.7268 157.5339,325.8214"/>
    <polygon points="145.2999,324.0367 145.6438,323.725 145.9555,323.381 146.232,323.0082 146.4707,322.6101 146.6691,322.1904 146.8255,321.7534 146.9383,321.3031 147.0064,320.844 147.0292,320.3804 147.0064,319.9167 146.9383,319.4576 146.8255,319.0073 146.6691,318.5703 146.4707,318.1507 146.232,317.7525 145.9555,317.3797 145.6438,317.0358 145.2999,316.724 144.927,316.4475 144.5289,316.2089 144.1093,316.0104 143.6723,315.8541 143.222,315.7413 142.7628,315.6732 142.2992,315.6504 141.8356,315.6732 141.3764,315.7413 140.9262,315.8541 140.4891,316.0104 140.0695,316.2089 139.6714,316.4475 139.2985,316.724 138.9546,317.0358 138.6429,317.3797 138.3664,317.7525 138.1277,318.1507 137.9293,318.5703 137.7729,319.0073 137.6601,319.4576 137.592,319.9167 137.5692,320.3804 137.592,320.844 137.6601,321.3031 137.7729,321.7534 137.9293,322.1904 138.1277,322.6101 138.3664,323.0082 138.6429,323.381 138.9546,323.725 139.2985,324.0367 139.6714,324.3132 140.0695,324.5518 140.4891,324.7503 140.9262,324.9067 141.3764,325.0195 141.8356,325.0876 142.2992,325.1103 142.7628,325.0876 143.222,325.0195 143.6723,324.9067 144.1093,324.7503 144.5289,324.5518 144.927,324.3132"/>
    <polygon points="153.1742,318.5412 152.715,318.4731 152.2648,318.3603 151.8277,318.204 151.4081,318.0055 151.01,317.7669 150.6371,317.4903 150.2932,317.1786 149.9815,316.8347 149.705,316.4619 149.4663,316.0637 149.2679,315.6441 149.1115,315.2071 148.9987,314.7568 148.9306,314.2976 148.9078,313.834 148.9306,313.3704 148.9987,312.9113 149.1115,312.461 149.2679,312.0239 149.4663,311.6043 149.705,311.2062 149.9815,310.8334 150.2932,310.4894 150.6371,310.1777 151.01,309.9012 151.4081,309.6626 151.8277,309.4641 152.2648,309.3077 152.715,309.1949 153.1742,309.1268 153.6378,309.1041 154.1014,309.1268 154.5606,309.1949 155.0108,309.3077 155.4479,309.4641 155.8675,309.6626 156.2656,309.9012 156.6385,310.1777 156.9824,310.4894 157.2941,310.8334 157.5706,311.2062 157.8093,311.6043 158.0077,312.0239 158.1641,312.461 158.2769,312.9113 158.345,313.3704 158.3678,313.834 158.345,314.2976 158.2769,314.7568 158.1641,315.2071 158.0077,315.6441 157.8093,316.0637 157.5706,316.4619 157.2941,316.8347 156.9824,317.1786 156.6385,317.4903 156.2656,317.7669 155.8675,318.0055 155.4479,318.204 155.0108,318.3603 154.5606,318.4731 154.1014,318.5412 153.6378,318.564"/>
    <polygon points="157.6963,272.3561 157.9652,271.2827 158.338,270.2408 158.8111,269.2404 159.38,268.2912 160.0392,267.4024 160.7824,266.5825 161.6023,265.8393 162.4911,265.1801 163.4403,264.6112 164.4406,264.1381 165.4826,263.7653 166.556,263.4964 167.6506,263.334 168.7559,263.2797 169.8612,263.334 170.9558,263.4964 172.0292,263.7653 173.0712,264.1381 174.0715,264.6112 175.0207,265.1801 175.9095,265.8393 176.7295,266.5825 177.4726,267.4024 178.1318,268.2912 178.7007,269.2404 179.1739,270.2408 179.5467,271.2827 179.8155,272.3561 179.9779,273.4508 180.0322,274.556 179.9779,275.6613 179.8155,276.7559 179.5467,277.8294 179.1739,278.8713 178.7007,279.8716 178.1318,280.8208 177.4726,281.7096 176.7295,282.5296 175.9095,283.2727 175.0207,283.9319 174.0715,284.5008 173.0712,284.974 172.0292,285.3468 170.9558,285.6157 169.8612,285.778 168.7559,285.8323 167.6506,285.778 166.556,285.6157 165.4826,285.3468 164.4406,284.974 163.4403,284.5008 162.4911,283.9319 161.6023,283.2727 160.7824,282.5296 160.0392,281.7096 159.38,280.8208 158.8111,279.8716 158.338,278.8713 157.9652,277.8294 157.6963,276.7559 157.5339,275.6613 157.4796,274.556 157.5339,273.4508"/>
    <polygon points="133.1903,270.3846 133.5885,270.6232 133.9613,270.8997 134.3052,271.2114 134.6169,271.5554 134.8935,271.9282 135.1321,272.3263 135.3306,272.7459 135.4869,273.183 135.5997,273.6333 135.6678,274.0924 135.6906,274.556 135.6678,275.0196 135.5997,275.4788 135.4869,275.9291 135.3306,276.3661 135.1321,276.7857 134.8935,277.1839 134.6169,277.5567 134.3052,277.9006 133.9613,278.2123 133.5885,278.4889 133.1903,278.7275 132.7707,278.926 132.3337,279.0823 131.8834,279.1951 131.4242,279.2632 130.9606,279.286 130.497,279.2632 130.0379,279.1951 129.5876,279.0823 129.1505,278.926 128.7309,278.7275 128.3328,278.4889 127.96,278.2123 127.616,277.9006 127.3043,277.5567 127.0278,277.1839 126.7892,276.7857 126.5907,276.3661 126.4343,275.9291 126.3215,275.4788 126.2534,275.0196 126.2307,274.556 126.2534,274.0924 126.3215,273.6333 126.4343,273.183 126.5907,272.7459 126.7892,272.3263 127.0278,271.9282 127.3043,271.5554 127.616,271.2114 127.96,270.8997 128.3328,270.6232 128.7309,270.3846 129.1505,270.1861 129.5876,270.0297 130.0379,269.9169 130.497,269.8488 130.9606,269.8261 131.4242,269.8488 131.8834,269.9169 132.3337,270.0297 132.7707,270.1861"/>
    <polygon points="124.3292,280.6387 124.352,281.1024 124.3292,281.566 124.2611,282.0251 124.1483,282.4754 123.992,282.9124 123.7935,283.3321 123.5549,283.7302 123.2784,284.103 122.9666,284.447 122.6227,284.7587 122.2499,285.0352 121.8517,285.2738 121.4321,285.4723 120.9951,285.6287 120.5448,285.7414 120.0857,285.8096 119.622,285.8323 119.1584,285.8096 118.6993,285.7414 118.249,285.6287 117.812,285.4723 117.3924,285.2738 116.9942,285.0352 116.6214,284.7587 116.2775,284.447 115.9657,284.103 115.6892,283.7302 115.4506,283.3321 115.2521,282.9124 115.0957,282.4754 114.983,282.0251 114.9149,281.566 114.8921,281.1024 114.9149,280.6387 114.983,280.1796 115.0957,279.7293 115.2521,279.2923 115.4506,278.8727 115.6892,278.4745 115.9657,278.1017 116.2775,277.7578 116.6214,277.446 116.9942,277.1695 117.3924,276.9309 117.812,276.7324 118.249,276.5761 118.6993,276.4633 119.1584,276.3952 119.622,276.3724 120.0857,276.3952 120.5448,276.4633 120.9951,276.5761 121.4321,276.7324 121.8517,276.9309 122.2499,277.1695 122.6227,277.446 122.9666,277.7578 123.2784,278.1017 123.5549,278.4745 123.7935,278.8727 123.992,279.2923 124.1483,279.7293 124.2611,280.1796"/>
    <polygon points="110.0935,270.1861 110.5132,270.3846 110.9113,270.6232 111.2841,270.8997 111.6281,271.2114 111.9398,271.5554 112.2163,271.9282 112.4549,272.3263 112.6534,272.7459 112.8098,273.183 112.9226,273.6333 112.9907,274.0924 113.0134,274.556 112.9907,275.0196 112.9226,275.4788 112.8098,275.9291 112.6534,276.3661 112.4549,276.7857 112.2163,277.1839 111.9398,277.5567 111.6281,277.9006 111.2841,278.2123 110.9113,278.4889 110.5132,278.7275 110.0935,278.926 109.6565,279.0823 109.2062,279.1951 108.7471,279.2632 108.2835,279.286 107.8198,279.2632 107.3607,279.1951 106.9104,279.0823 106.4734,278.926 106.0538,278.7275 105.6556,278.4889 105.2828,278.2123 104.9389,277.9006 104.6271,277.5567 104.3506,277.1839 104.112,276.7857 103.9135,276.3661 103.7572,275.9291 103.6444,275.4788 103.5763,275.0196 103.5535,274.556 103.5763,274.0924 103.6444,273.6333 103.7572,273.183 103.9135,272.7459 104.112,272.3263 104.3506,271.9282 104.6271,271.5554 104.9389,271.2114 105.2828,270.8997 105.6556,270.6232 106.0538,270.3846 106.4734,270.1861 106.9104,270.0297 107.3607,269.9169 107.8198,269.8488 108.2835,269.8261 108.7471,269.8488 109.2062,269.9169 109.6565,270.0297"/>
    <polygon points="116.9942,264.0769 117.3924,263.8382 117.812,263.6398 118.249,263.4834 118.6993,263.3706 119.1584,263.3025 119.622,263.2797 120.0857,263.3025 120.5448,263.3706 120.9951,263.4834 121.4321,263.6398 121.8517,263.8382 122.2499,264.0769 122.6227,264.3534 122.9666,264.6651 123.2784,265.009 123.5549,265.3819 123.7935,265.78 123.992,266.1996 124.1483,266.6367 124.2611,267.0869 124.3292,267.5461 124.352,268.0097 124.3292,268.4733 124.2611,268.9325 124.1483,269.3827 123.992,269.8198 123.7935,270.2394 123.5549,270.6375 123.2784,271.0104 122.9666,271.3543 122.6227,271.666 122.2499,271.9425 121.8517,272.1812 121.4321,272.3796 120.9951,272.536 120.5448,272.6488 120.0857,272.7169 119.622,272.7397 119.1584,272.7169 118.6993,272.6488 118.249,272.536 117.812,272.3796 117.3924,272.1812 116.9942,271.9425 116.6214,271.666 116.2775,271.3543 115.9657,271.0104 115.6892,270.6375 115.4506,270.2394 115.2521,269.8198 115.0957,269.3827 114.983,268.9325 114.9149,268.4733 114.8921,268.0097 114.9149,267.5461 114.983,267.0869 115.0957,266.6367 115.2521,266.1996 115.4506,265.78 115.6892,265.3819 115.9657,265.009 116.2775,264.6651 116.6214,264.3534"/>
    <polygon points="120.5448,250.2779 120.9951,250.3907 121.4321,250.5471 121.8517,250.7456 122.2499,250.9842 122.6227,251.2607 122.9666,251.5724 123.2784,251.9164 123.5549,252.2892 123.7935,252.6873 123.992,253.1069 124.1483,253.544 124.2611,253.9943 124.3292,254.4534 124.352,254.917 124.3292,255.3806 124.2611,255.8398 124.1483,256.2901 123.992,256.7271 123.7935,257.1467 123.5549,257.5449 123.2784,257.9177 122.9666,258.2616 122.6227,258.5733 122.2499,258.8499 121.8517,259.0885 121.4321,259.287 120.9951,259.4433 120.5448,259.5561 120.0857,259.6242 119.622,259.647 119.1584,259.6242 118.6993,259.5561 118.249,259.4433 117.812,259.287 117.3924,259.0885 116.9942,258.8499 116.6214,258.5733 116.2775,258.2616 115.9657,257.9177 115.6892,257.5449 115.4506,257.1467 115.2521,256.7271 115.0957,256.2901 114.983,255.8398 114.9149,255.3806 114.8921,254.917 114.9149,254.4534 114.983,253.9943 115.0957,253.544 115.2521,253.1069 115.4506,252.6873 115.6892,252.2892 115.9657,251.9164 116.2775,251.5724 116.6214,251.2607 116.9942,250.9842 117.3924,250.7456 117.812,250.5471 118.249,250.3907 118.6993,250.2779 119.1584,250.2098 119.622,250.1871 120.0857,250.2098"/>
    <polygon points="128.7309,244.1992 129.1505,244.0008 129.5876,243.8444 130.0379,243.7316 130.497,243.6635 130.9606,243.6407 131.4242,243.6635 131.8834,243.7316 132.3337,243.8444 132.7707,244.0008 133.1903,244.1992 133.5885,244.4379 133.9613,244.7144 134.3052,245.0261 134.6169,245.37 134.8935,245.7429 135.1321,246.141 135.3306,246.5606 135.4869,246.9977 135.5997,247.4479 135.6678,247.9071 135.6906,248.3707 135.6678,248.8343 135.5997,249.2935 135.4869,249.7437 135.3306,250.1808 135.1321,250.6004 134.8935,250.9985 134.6169,251.3714 134.3052,251.7153 133.9613,252.027 133.5885,252.3035 133.1903,252.5422 132.7707,252.7406 132.3337,252.897 131.8834,253.0098 131.4242,253.0779 130.9606,253.1007 130.497,253.0779 130.0379,253.0098 129.5876,252.897 129.1505,252.7406 128.7309,252.5422 128.3328,252.3035 127.96,252.027 127.616,251.7153 127.3043,251.3714 127.0278,250.9985 126.7892,250.6004 126.5907,250.1808 126.4343,249.7437 126.3215,249.2935 126.2534,248.8343 126.2307,248.3707 126.2534,247.9071 126.3215,247.4479 126.4343,246.9977 126.5907,246.5606 126.7892,246.141 127.0278,245.7429 127.3043,245.37 127.616,245.0261 127.96,244.7144 128.3328,244.4379"/>
    <polygon points="126.2307,222.1854 126.2534,221.7217 126.3215,221.2626 126.4343,220.8123 126.5907,220.3753 126.7892,219.9557 127.0278,219.5575 127.3043,219.1847 127.616,218.8408 127.96,218.529 128.3328,218.2525 128.7309,218.0139 129.1505,217.8154 129.5876,217.6591 130.0379,217.5463 130.497,217.4782 130.9606,217.4554 131.4242,217.4782 131.8834,217.5463 132.3337,217.6591 132.7707,217.8154 133.1903,218.0139 133.5885,218.2525 133.9613,218.529 134.3052,218.8408 134.6169,219.1847 134.8935,219.5575 135.1321,219.9557 135.3306,220.3753 135.4869,220.8123 135.5997,221.2626 135.6678,221.7217 135.6906,222.1854 135.6678,222.649 135.5997,223.1081 135.4869,223.5584 135.3306,223.9954 135.1321,224.4151 134.8935,224.8132 134.6169,225.186 134.3052,225.53 133.9613,225.8417 133.5885,226.1182 133.1903,226.3568 132.7707,226.5553 132.3337,226.7117 131.8834,226.8244 131.4242,226.8926 130.9606,226.9153 130.497,226.8926 130.0379,226.8244 129.5876,226.7117 129.1505,226.5553 128.7309,226.3568 128.3328,226.1182 127.96,225.8417 127.616,225.53 127.3043,225.186 127.0278,224.8132 126.7892,224.4151 126.5907,223.9954 126.4343,223.5584 126.3215,223.1081 126.2534,222.649"/>
    <polygon points="137.592,229.1953 137.5692,228.7317 137.592,228.2681 137.6601,227.8089 137.7729,227.3587 137.9293,226.9216 138.1277,226.502 138.3664,226.1039 138.6429,225.731 138.9546,225.3871 139.2985,225.0754 139.6714,224.7989 140.0695,224.5602 140.4891,224.3618 140.9262,224.2054 141.3764,224.0926 141.8356,224.0245 142.2992,224.0017 142.7628,224.0245 143.222,224.0926 143.6723,224.2054 144.1093,224.3618 144.5289,224.5602 144.927,224.7989 145.2999,225.0754 145.6438,225.3871 145.9555,225.731 146.232,226.1039 146.4707,226.502 146.6691,226.9216 146.8255,227.3587 146.9383,227.8089 147.0064,228.2681 147.0292,228.7317 147.0064,229.1953 146.9383,229.6545 146.8255,230.1047 146.6691,230.5418 146.4707,230.9614 146.232,231.3595 145.9555,231.7324 145.6438,232.0763 145.2999,232.388 144.927,232.6645 144.5289,232.9032 144.1093,233.1016 143.6723,233.258 143.222,233.3708 142.7628,233.4389 142.2992,233.4617 141.8356,233.4389 141.3764,233.3708 140.9262,233.258 140.4891,233.1016 140.0695,232.9032 139.6714,232.6645 139.2985,232.388 138.9546,232.0763 138.6429,231.7324 138.3664,231.3595 138.1277,230.9614 137.9293,230.5418 137.7729,230.1047 137.6601,229.6545"/>
    <polygon points="135.5997,236.2008 135.4869,236.6511 135.3306,237.0881 135.1321,237.5077 134.8935,237.9059 134.6169,238.2787 134.3052,238.6226 133.9613,238.9343 133.5885,239.2109 133.1903,239.4495 132.7707,239.648 132.3337,239.8043 131.8834,239.9171 131.4242,239.9852 130.9606,240.008 130.497,239.9852 130.0379,239.9171 129.5876,239.8043 129.1505,239.648 128.7309,239.4495 128.3328,239.2109 127.96,238.9343 127.616,238.6226 127.3043,238.2787 127.0278,237.9059 126.7892,237.5077 126.5907,237.0881 126.4343,236.6511 126.3215,236.2008 126.2534,235.7416 126.2307,235.278 126.2534,234.8144 126.3215,234.3553 126.4343,233.905 126.5907,233.4679 126.7892,233.0483 127.0278,232.6502 127.3043,232.2774 127.616,231.9334 127.96,231.6217 128.3328,231.3452 128.7309,231.1066 129.1505,230.9081 129.5876,230.7517 130.0379,230.6389 130.497,230.5708 130.9606,230.5481 131.4242,230.5708 131.8834,230.6389 132.3337,230.7517 132.7707,230.9081 133.1903,231.1066 133.5885,231.3452 133.9613,231.6217 134.3052,231.9334 134.6169,232.2774 134.8935,232.6502 135.1321,233.0483 135.3306,233.4679 135.4869,233.905 135.5997,234.3553 135.6678,234.8144 135.6906,235.278 135.6678,235.7416"/>
    <polygon points="139.2985,238.168 139.6714,237.8915 140.0695,237.6529 140.4891,237.4544 140.9262,237.2981 141.3764,237.1853 141.8356,237.1172 142.2992,237.0944 142.7628,237.1172 143.222,237.1853 143.6723,237.2981 144.1093,237.4544 144.5289,237.6529 144.927,237.8915 145.2999,238.168 145.6438,238.4798 145.9555,238.8237 146.232,239.1965 146.4707,239.5947 146.6691,240.0143 146.8255,240.4513 146.9383,240.9016 147.0064,241.3607 147.0292,241.8244 147.0064,242.288 146.9383,242.7471 146.8255,243.1974 146.6691,243.6344 146.4707,244.0541 146.232,244.4522 145.9555,244.825 145.6438,245.169 145.2999,245.4807 144.927,245.7572 144.5289,245.9958 144.1093,246.1943 143.6723,246.3507 143.222,246.4634 142.7628,246.5316 142.2992,246.5543 141.8356,246.5316 141.3764,246.4634 140.9262,246.3507 140.4891,246.1943 140.0695,245.9958 139.6714,245.7572 139.2985,245.4807 138.9546,245.169 138.6429,244.825 138.3664,244.4522 138.1277,244.0541 137.9293,243.6344 137.7729,243.1974 137.6601,242.7471 137.592,242.288 137.5692,241.8244 137.592,241.3607 137.6601,240.9016 137.7729,240.4513 137.9293,240.0143 138.1277,239.5947 138.3664,239.1965 138.6429,238.8237 138.9546,238.4798"/>
    <polygon points="144.9735,250.2414 146.0787,250.1871 147.184,250.2414 148.2786,250.4037 149.3521,250.6726 150.394,251.0454 151.3944,251.5185 152.3435,252.0875 153.2324,252.7467 154.0523,253.4898 154.7954,254.3097 155.4546,255.1986 156.0236,256.1477 156.4967,257.1481 156.8695,258.19 157.1384,259.2635 157.3007,260.3581 157.355,261.4634 157.3007,262.5686 157.1384,263.6633 156.8695,264.7367 156.4967,265.7786 156.0236,266.779 155.4546,267.7281 154.7954,268.617 154.0523,269.4369 153.2324,270.1801 152.3435,270.8393 151.3944,271.4082 150.394,271.8813 149.3521,272.2541 148.2786,272.523 147.184,272.6854 146.0787,272.7397 144.9735,272.6854 143.8788,272.523 142.8054,272.2541 141.7635,271.8813 140.7631,271.4082 139.814,270.8393 138.9251,270.1801 138.1052,269.4369 137.362,268.617 136.7028,267.7281 136.1339,266.779 135.6608,265.7786 135.288,264.7367 135.0191,263.6633 134.8567,262.5686 134.8024,261.4634 134.8567,260.3581 135.0191,259.2635 135.288,258.19 135.6608,257.1481 136.1339,256.1477 136.7028,255.1986 137.362,254.3097 138.1052,253.4898 138.9251,252.7467 139.814,252.0875 140.7631,251.5185 141.7635,251.0454 142.8054,250.6726 143.8788,250.4037"/>
    <polygon points="164.5128,250.2098 164.9764,250.1871 165.44,250.2098 165.8991,250.2779 166.3494,250.3907 166.7865,250.5471 167.2061,250.7456 167.6042,250.9842 167.977,251.2607 168.321,251.5724 168.6327,251.9164 168.9092,252.2892 169.1478,252.6873 169.3463,253.1069 169.5027,253.544 169.6155,253.9943 169.6836,254.4534 169.7064,254.917 169.6836,255.3806 169.6155,255.8398 169.5027,256.2901 169.3463,256.7271 169.1478,257.1467 168.9092,257.5449 168.6327,257.9177 168.321,258.2616 167.977,258.5733 167.6042,258.8499 167.2061,259.0885 166.7865,259.287 166.3494,259.4433 165.8991,259.5561 165.44,259.6242 164.9764,259.647 164.5128,259.6242 164.0536,259.5561 163.6033,259.4433 163.1663,259.287 162.7467,259.0885 162.3485,258.8499 161.9757,258.5733 161.6318,258.2616 161.3201,257.9177 161.0435,257.5449 160.8049,257.1467 160.6065,256.7271 160.4501,256.2901 160.3373,255.8398 160.2692,255.3806 160.2464,254.917 160.2692,254.4534 160.3373,253.9943 160.4501,253.544 160.6065,253.1069 160.8049,252.6873 161.0435,252.2892 161.3201,251.9164 161.6318,251.5724 161.9757,251.2607 162.3485,250.9842 162.7467,250.7456 163.1663,250.5471 163.6033,250.3907 164.0536,250.2779"/>
    <polygon points="172.3821,250.9985 172.1435,250.6004 171.945,250.1808 171.7887,249.7437 171.6759,249.2935 171.6078,248.8343 171.585,248.3707 171.6078,247.9071 171.6759,247.4479 171.7887,246.9977 171.945,246.5606 172.1435,246.141 172.3821,245.7429 172.6586,245.37 172.9704,245.0261 173.3143,244.7144 173.6871,244.4379 174.0853,244.1992 174.5049,244.0008 174.9419,243.8444 175.3922,243.7316 175.8513,243.6635 176.315,243.6407 176.7786,243.6635 177.2377,243.7316 177.688,243.8444 178.125,244.0008 178.5447,244.1992 178.9428,244.4379 179.3156,244.7144 179.6596,245.0261 179.9713,245.37 180.2478,245.7429 180.4864,246.141 180.6849,246.5606 180.8413,246.9977 180.954,247.4479 181.0222,247.9071 181.0449,248.3707 181.0222,248.8343 180.954,249.2935 180.8413,249.7437 180.6849,250.1808 180.4864,250.6004 180.2478,250.9985 179.9713,251.3714 179.6596,251.7153 179.3156,252.027 178.9428,252.3035 178.5447,252.5422 178.125,252.7406 177.688,252.897 177.2377,253.0098 176.7786,253.0779 176.315,253.1007 175.8513,253.0779 175.3922,253.0098 174.9419,252.897 174.5049,252.7406 174.0853,252.5422 173.6871,252.3035 173.3143,252.027 172.9704,251.7153 172.6586,251.3714"/>
    <polygon points="188.1172,237.1172 188.5763,237.1853 189.0266,237.2981 189.4636,237.4544 189.8832,237.6529 190.2814,237.8915 190.6542,238.168 190.9981,238.4798 191.3099,238.8237 191.5864,239.1965 191.825,239.5947 192.0235,240.0143 192.1798,240.4513 192.2926,240.9016 192.3607,241.3607 192.3835,241.8244 192.3607,242.288 192.2926,242.7471 192.1798,243.1974 192.0235,243.6344 191.825,244.0541 191.5864,244.4522 191.3099,244.825 190.9981,245.169 190.6542,245.4807 190.2814,245.7572 189.8832,245.9958 189.4636,246.1943 189.0266,246.3507 188.5763,246.4634 188.1172,246.5316 187.6535,246.5543 187.1899,246.5316 186.7308,246.4634 186.2805,246.3507 185.8435,246.1943 185.4238,245.9958 185.0257,245.7572 184.6529,245.4807 184.3089,245.169 183.9972,244.825 183.7207,244.4522 183.4821,244.0541 183.2836,243.6344 183.1272,243.1974 183.0145,242.7471 182.9463,242.288 182.9236,241.8244 182.9463,241.3607 183.0145,240.9016 183.1272,240.4513 183.2836,240.0143 183.4821,239.5947 183.7207,239.1965 183.9972,238.8237 184.3089,238.4798 184.6529,238.168 185.0257,237.8915 185.4238,237.6529 185.8435,237.4544 186.2805,237.2981 186.7308,237.1853 187.1899,237.1172 187.6535,237.0944"/>
    <polygon points="196.7487,251.5185 197.6979,252.0875 198.5867,252.7467 199.4066,253.4898 200.1498,254.3097 200.809,255.1986 201.3779,256.1477 201.851,257.1481 202.2238,258.19 202.4927,259.2635 202.6551,260.3581 202.7094,261.4634 202.6551,262.5686 202.4927,263.6633 202.2238,264.7367 201.851,265.7786 201.3779,266.779 200.809,267.7281 200.1498,268.617 199.4066,269.4369 198.5867,270.1801 197.6979,270.8393 196.7487,271.4082 195.7483,271.8813 194.7064,272.2541 193.633,272.523 192.5383,272.6854 191.4331,272.7397 190.3278,272.6854 189.2332,272.523 188.1597,272.2541 187.1178,271.8813 186.1175,271.4082 185.1683,270.8393 184.2795,270.1801 183.4595,269.4369 182.7164,268.617 182.0572,267.7281 181.4883,266.779 181.0151,265.7786 180.6423,264.7367 180.3734,263.6633 180.2111,262.5686 180.1568,261.4634 180.2111,260.3581 180.3734,259.2635 180.6423,258.19 181.0151,257.1481 181.4883,256.1477 182.0572,255.1986 182.7164,254.3097 183.4595,253.4898 184.2795,252.7467 185.1683,252.0875 186.1175,251.5185 187.1178,251.0454 188.1597,250.6726 189.2332,250.4037 190.3278,250.2414 191.4331,250.1871 192.5383,250.2414 193.633,250.4037 194.7064,250.6726 195.7483,251.0454"/>
    <polygon points="209.4079,259.5561 208.9577,259.4433 208.5206,259.287 208.101,259.0885 207.7029,258.8499 207.33,258.5733 206.9861,258.2616 206.6744,257.9177 206.3979,257.5449 206.1592,257.1467 205.9608,256.7271 205.8044,256.2901 205.6916,255.8398 205.6235,255.3806 205.6007,254.917 205.6235,254.4534 205.6916,253.9943 205.8044,253.544 205.9608,253.1069 206.1592,252.6873 206.3979,252.2892 206.6744,251.9164 206.9861,251.5724 207.33,251.2607 207.7029,250.9842 208.101,250.7456 208.5206,250.5471 208.9577,250.3907 209.4079,250.2779 209.8671,250.2098 210.3307,250.1871 210.7943,250.2098 211.2535,250.2779 211.7037,250.3907 212.1408,250.5471 212.5604,250.7456 212.9585,250.9842 213.3314,251.2607 213.6753,251.5724 213.987,251.9164 214.2635,252.2892 214.5022,252.6873 214.7006,253.1069 214.857,253.544 214.9698,253.9943 215.0379,254.4534 215.0607,254.917 215.0379,255.3806 214.9698,255.8398 214.857,256.2901 214.7006,256.7271 214.5022,257.1467 214.2635,257.5449 213.987,257.9177 213.6753,258.2616 213.3314,258.5733 212.9585,258.8499 212.5604,259.0885 212.1408,259.287 211.7037,259.4433 211.2535,259.5561 210.7943,259.6242 210.3307,259.647 209.8671,259.6242"/>
    <polygon points="230.8078,254.294 232.859,253.0645 235.0209,252.042 237.2725,251.2364 239.5923,250.6553 241.9579,250.3044 244.3465,250.1871 246.735,250.3044 249.1006,250.6553 251.4204,251.2364 253.6721,252.042 255.8339,253.0645 257.8851,254.294 259.806,255.7186 261.5779,257.3246 263.1839,259.0965 264.6085,261.0174 265.838,263.0686 266.8605,265.2304 267.6661,267.4821 268.2472,269.8019 268.5981,272.1675 268.7154,274.556 268.5981,276.9446 268.2472,279.3102 267.6661,281.63 266.8605,283.8816 265.838,286.0435 264.6085,288.0947 263.1839,290.0155 261.5779,291.7875 259.806,293.3935 257.8851,294.8181 255.8339,296.0475 253.6721,297.07 251.4204,297.8757 249.1006,298.4568 246.735,298.8077 244.3465,298.925 241.9579,298.8077 239.5923,298.4568 237.2725,297.8757 235.0209,297.07 232.859,296.0475 230.8078,294.8181 228.8869,293.3935 227.115,291.7875 225.509,290.0155 224.0844,288.0947 222.8549,286.0435 221.8325,283.8816 221.0268,281.63 220.4457,279.3102 220.0948,276.9446 219.9775,274.556 220.0948,272.1675 220.4457,269.8019 221.0268,267.4821 221.8325,265.2304 222.8549,263.0686 224.0844,261.0174 225.509,259.0965 227.115,257.3246 228.8869,255.7186"/>
    <polygon points="225.6021,245.7429 225.8408,246.141 226.0392,246.5606 226.1956,246.9977 226.3084,247.4479 226.3765,247.9071 226.3993,248.3707 226.3765,248.8343 226.3084,249.2935 226.1956,249.7437 226.0392,250.1808 225.8408,250.6004 225.6021,250.9985 225.3256,251.3714 225.0139,251.7153 224.67,252.027 224.2971,252.3035 223.899,252.5422 223.4794,252.7406 223.0423,252.897 222.5921,253.0098 222.1329,253.0779 221.6693,253.1007 221.2057,253.0779 220.7465,253.0098 220.2963,252.897 219.8592,252.7406 219.4396,252.5422 219.0415,252.3035 218.6686,252.027 218.3247,251.7153 218.013,251.3714 217.7365,250.9985 217.4978,250.6004 217.2994,250.1808 217.143,249.7437 217.0302,249.2935 216.9621,248.8343 216.9393,248.3707 216.9621,247.9071 217.0302,247.4479 217.143,246.9977 217.2994,246.5606 217.4978,246.141 217.7365,245.7429 218.013,245.37 218.3247,245.0261 218.6686,244.7144 219.0415,244.4379 219.4396,244.1992 219.8592,244.0008 220.2963,243.8444 220.7465,243.7316 221.2057,243.6635 221.6693,243.6407 222.1329,243.6635 222.5921,243.7316 223.0423,243.8444 223.4794,244.0008 223.899,244.1992 224.2971,244.4379 224.67,244.7144 225.0139,245.0261 225.3256,245.37"/>
    <polygon points="240.0607,224.4873 238.9873,224.2184 237.8927,224.056 236.7874,224.0017 235.6821,224.056 234.5875,224.2184 233.5141,224.4873 232.4721,224.8601 231.4718,225.3332 230.5226,225.9021 229.6338,226.5613 228.8138,227.3045 228.0707,228.1244 227.4115,229.0132 226.8426,229.9624 226.3695,230.9628 225.9966,232.0047 225.7278,233.0781 225.5654,234.1728 225.5111,235.278 225.5654,236.3833 225.7278,237.4779 225.9966,238.5514 226.3695,239.5933 226.8426,240.5936 227.4115,241.5428 228.0707,242.4316 228.8138,243.2516 229.6338,243.9947 230.5226,244.6539 231.4718,245.2228 232.4721,245.696 233.5141,246.0688 234.5875,246.3377 235.6821,246.5 236.7874,246.5543 237.8927,246.5 238.9873,246.3377 240.0607,246.0688 241.1027,245.696 242.103,245.2228 243.0522,244.6539 243.941,243.9947 244.761,243.2516 245.5041,242.4316 246.1633,241.5428 246.7322,240.5936 247.2054,239.5933 247.5782,238.5514 247.847,237.4779 248.0094,236.3833 248.0637,235.278 248.0094,234.1728 247.847,233.0781 247.5782,232.0047 247.2054,230.9628 246.7322,229.9624 246.1633,229.0132 245.5041,228.1244 244.761,227.3045 243.941,226.5613 243.0522,225.9021 242.103,225.3332 241.1027,224.8601"/>
    <polygon points="232.0851,220.2781 232.5443,220.3462 233.0079,220.369 233.4715,220.3462 233.9306,220.2781 234.3809,220.1653 234.818,220.0089 235.2376,219.8105 235.6357,219.5719 236.0085,219.2953 236.3525,218.9836 236.6642,218.6397 236.9407,218.2669 237.1793,217.8687 237.3778,217.4491 237.5342,217.0121 237.647,216.5618 237.7151,216.1026 237.7378,215.639 237.7151,215.1754 237.647,214.7163 237.5342,214.266 237.3778,213.8289 237.1793,213.4093 236.9407,213.0112 236.6642,212.6384 236.3525,212.2944 236.0085,211.9827 235.6357,211.7062 235.2376,211.4676 234.818,211.2691 234.3809,211.1127 233.9306,210.9999 233.4715,210.9318 233.0079,210.9091 232.5443,210.9318 232.0851,210.9999 231.6348,211.1127 231.1978,211.2691 230.7782,211.4676 230.38,211.7062 230.0072,211.9827 229.6633,212.2944 229.3516,212.6384 229.075,213.0112 228.8364,213.4093 228.6379,213.8289 228.4816,214.266 228.3688,214.7163 228.3007,215.1754 228.2779,215.639 228.3007,216.1026 228.3688,216.5618 228.4816,217.0121 228.6379,217.4491 228.8364,217.8687 229.075,218.2669 229.3516,218.6397 229.6633,218.9836 230.0072,219.2953 230.38,219.5719 230.7782,219.8105 231.1978,220.0089 231.6348,220.1653"/>
    <polygon points="228.2779,202.5464 228.3007,203.01 228.3688,203.4691 228.4816,203.9194 228.6379,204.3564 228.8364,204.7761 229.075,205.1742 229.3516,205.547 229.6633,205.891 230.0072,206.2027 230.38,206.4792 230.7782,206.7178 231.1978,206.9163 231.6348,207.0727 232.0851,207.1854 232.5443,207.2536 233.0079,207.2763 233.4715,207.2536 233.9306,207.1854 234.3809,207.0727 234.818,206.9163 235.2376,206.7178 235.6357,206.4792 236.0085,206.2027 236.3525,205.891 236.6642,205.547 236.9407,205.1742 237.1793,204.7761 237.3778,204.3564 237.5342,203.9194 237.647,203.4691 237.7151,203.01 237.7378,202.5464 237.7151,202.0827 237.647,201.6236 237.5342,201.1733 237.3778,200.7363 237.1793,200.3167 236.9407,199.9185 236.6642,199.5457 236.3525,199.2018 236.0085,198.89 235.6357,198.6135 235.2376,198.3749 234.818,198.1764 234.3809,198.0201 233.9306,197.9073 233.4715,197.8392 233.0079,197.8164 232.5443,197.8392 232.0851,197.9073 231.6348,198.0201 231.1978,198.1764 230.7782,198.3749 230.38,198.6135 230.0072,198.89 229.6633,199.2018 229.3516,199.5457 229.075,199.9185 228.8364,200.3167 228.6379,200.7363 228.4816,201.1733 228.3688,201.6236 228.3007,202.0827"/>
    <polygon points="231.6348,180.8873 231.1978,180.7309 230.7782,180.5325 230.38,180.2939 230.0072,180.0173 229.6633,179.7056 229.3516,179.3617 229.075,178.9889 228.8364,178.5907 228.6379,178.1711 228.4816,177.7341 228.3688,177.2838 228.3007,176.8246 228.2779,176.361 228.3007,175.8974 228.3688,175.4383 228.4816,174.988 228.6379,174.5509 228.8364,174.1313 229.075,173.7332 229.3516,173.3604 229.6633,173.0164 230.0072,172.7047 230.38,172.4282 230.7782,172.1896 231.1978,171.9911 231.6348,171.8347 232.0851,171.7219 232.5443,171.6538 233.0079,171.631 233.4715,171.6538 233.9306,171.7219 234.3809,171.8347 234.818,171.9911 235.2376,172.1896 235.6357,172.4282 236.0085,172.7047 236.3525,173.0164 236.6642,173.3604 236.9407,173.7332 237.1793,174.1313 237.3778,174.5509 237.5342,174.988 237.647,175.4383 237.7151,175.8974 237.7378,176.361 237.7151,176.8246 237.647,177.2838 237.5342,177.7341 237.3778,178.1711 237.1793,178.5907 236.9407,178.9889 236.6642,179.3617 236.3525,179.7056 236.0085,180.0173 235.6357,180.2939 235.2376,180.5325 234.818,180.7309 234.3809,180.8873 233.9306,181.0001 233.4715,181.0682 233.0079,181.091 232.5443,181.0682 232.0851,181.0001"/>
    <polygon points="237.5342,188.0807 237.647,188.5309 237.7151,188.9901 237.7378,189.4537 237.7151,189.9173 237.647,190.3765 237.5342,190.8267 237.3778,191.2638 237.1793,191.6834 236.9407,192.0815 236.6642,192.4544 236.3525,192.7983 236.0085,193.11 235.6357,193.3865 235.2376,193.6252 234.818,193.8236 234.3809,193.98 233.9306,194.0928 233.4715,194.1609 233.0079,194.1837 232.5443,194.1609 232.0851,194.0928 231.6348,193.98 231.1978,193.8236 230.7782,193.6252 230.38,193.3865 230.0072,193.11 229.6633,192.7983 229.3516,192.4544 229.075,192.0815 228.8364,191.6834 228.6379,191.2638 228.4816,190.8267 228.3688,190.3765 228.3007,189.9173 228.2779,189.4537 228.3007,188.9901 228.3688,188.5309 228.4816,188.0807 228.6379,187.6436 228.8364,187.224 229.075,186.8259 229.3516,186.453 229.6633,186.1091 230.0072,185.7974 230.38,185.5209 230.7782,185.2822 231.1978,185.0838 231.6348,184.9274 232.0851,184.8146 232.5443,184.7465 233.0079,184.7237 233.4715,184.7465 233.9306,184.8146 234.3809,184.9274 234.818,185.0838 235.2376,185.2822 235.6357,185.5209 236.0085,185.7974 236.3525,186.1091 236.6642,186.453 236.9407,186.8259 237.1793,187.224 237.3778,187.6436"/>
    <polygon points="296.4003,227.8089 296.3322,228.2681 296.3094,228.7317 296.3322,229.1953 296.4003,229.6545 296.5131,230.1047 296.6694,230.5418 296.8679,230.9614 297.1065,231.3595 297.3831,231.7324 297.6948,232.0763 298.0387,232.388 298.4115,232.6645 298.8097,232.9032 299.2293,233.1016 299.6663,233.258 300.1166,233.3708 300.5758,233.4389 301.0394,233.4617 301.503,233.4389 301.9621,233.3708 302.4124,233.258 302.8495,233.1016 303.2691,232.9032 303.6672,232.6645 304.04,232.388 304.384,232.0763 304.6957,231.7324 304.9722,231.3595 305.2108,230.9614 305.4093,230.5418 305.5657,230.1047 305.6785,229.6545 305.7466,229.1953 305.7693,228.7317 305.7466,228.2681 305.6785,227.8089 305.5657,227.3587 305.4093,226.9216 305.2108,226.502 304.9722,226.1039 304.6957,225.731 304.384,225.3871 304.04,225.0754 303.6672,224.7989 303.2691,224.5602 302.8495,224.3618 302.4124,224.2054 301.9621,224.0926 301.503,224.0245 301.0394,224.0017 300.5758,224.0245 300.1166,224.0926 299.6663,224.2054 299.2293,224.3618 298.8097,224.5602 298.4115,224.7989 298.0387,225.0754 297.6948,225.3871 297.3831,225.731 297.1065,226.1039 296.8679,226.502 296.6694,226.9216 296.5131,227.3587"/>
    <polygon points="316.9043,233.905 316.7479,233.4679 316.5494,233.0483 316.3108,232.6502 316.0343,232.2774 315.7225,231.9334 315.3786,231.6217 315.0058,231.3452 314.6076,231.1066 314.188,230.9081 313.751,230.7517 313.3007,230.6389 312.8416,230.5708 312.378,230.5481 311.9143,230.5708 311.4552,230.6389 311.0049,230.7517 310.5679,230.9081 310.1483,231.1066 309.7501,231.3452 309.3773,231.6217 309.0334,231.9334 308.7216,232.2774 308.4451,232.6502 308.2065,233.0483 308.008,233.4679 307.8517,233.905 307.7389,234.3553 307.6708,234.8144 307.648,235.278 307.6708,235.7416 307.7389,236.2008 307.8517,236.6511 308.008,237.0881 308.2065,237.5077 308.4451,237.9059 308.7216,238.2787 309.0334,238.6226 309.3773,238.9343 309.7501,239.2109 310.1483,239.4495 310.5679,239.648 311.0049,239.8043 311.4552,239.9171 311.9143,239.9852 312.378,240.008 312.8416,239.9852 313.3007,239.9171 313.751,239.8043 314.188,239.648 314.6076,239.4495 315.0058,239.2109 315.3786,238.9343 315.7225,238.6226 316.0343,238.2787 316.3108,237.9059 316.5494,237.5077 316.7479,237.0881 316.9043,236.6511 317.017,236.2008 317.0851,235.7416 317.1079,235.278 317.0851,234.8144 317.017,234.3553"/>
    <polygon points="303.2691,250.7456 302.8495,250.5471 302.4124,250.3907 301.9621,250.2779 301.503,250.2098 301.0394,250.1871 300.5758,250.2098 300.1166,250.2779 299.6663,250.3907 299.2293,250.5471 298.8097,250.7456 298.4115,250.9842 298.0387,251.2607 297.6948,251.5724 297.3831,251.9164 297.1065,252.2892 296.8679,252.6873 296.6694,253.1069 296.5131,253.544 296.4003,253.9943 296.3322,254.4534 296.3094,254.917 296.3322,255.3806 296.4003,255.8398 296.5131,256.2901 296.6694,256.7271 296.8679,257.1467 297.1065,257.5449 297.3831,257.9177 297.6948,258.2616 298.0387,258.5733 298.4115,258.8499 298.8097,259.0885 299.2293,259.287 299.6663,259.4433 300.1166,259.5561 300.5758,259.6242 301.0394,259.647 301.503,259.6242 301.9621,259.5561 302.4124,259.4433 302.8495,259.287 303.2691,259.0885 303.6672,258.8499 304.04,258.5733 304.384,258.2616 304.6957,257.9177 304.9722,257.5449 305.2108,257.1467 305.4093,256.7271 305.5657,256.2901 305.6785,255.8398 305.7466,255.3806 305.7693,254.917 305.7466,254.4534 305.6785,253.9943 305.5657,253.544 305.4093,253.1069 305.2108,252.6873 304.9722,252.2892 304.6957,251.9164 304.384,251.5724 304.04,251.2607 303.6672,250.9842"/>
    <polygon points="287.4573,251.5185 286.457,251.0454 285.4151,250.6726 284.3416,250.4037 283.247,250.2414 282.1417,250.1871 281.0365,250.2414 279.9418,250.4037 278.8684,250.6726 277.8265,251.0454 276.8261,251.5185 275.877,252.0875 274.9881,252.7467 274.1682,253.4898 273.425,254.3097 272.7658,255.1986 272.1969,256.1477 271.7238,257.1481 271.351,258.19 271.0821,259.2635 270.9197,260.3581 270.8654,261.4634 270.9197,262.5686 271.0821,263.6633 271.351,264.7367 271.7238,265.7786 272.1969,266.779 272.7658,267.7281 273.425,268.617 274.1682,269.4369 274.9881,270.1801 275.877,270.8393 276.8261,271.4082 277.8265,271.8813 278.8684,272.2541 279.9418,272.523 281.0365,272.6854 282.1417,272.7397 283.247,272.6854 284.3416,272.523 285.4151,272.2541 286.457,271.8813 287.4573,271.4082 288.4065,270.8393 289.2953,270.1801 290.1153,269.4369 290.8584,268.617 291.5176,267.7281 292.0865,266.779 292.5597,265.7786 292.9325,264.7367 293.2014,263.6633 293.3637,262.5686 293.418,261.4634 293.3637,260.3581 293.2014,259.2635 292.9325,258.19 292.5597,257.1481 292.0865,256.1477 291.5176,255.1986 290.8584,254.3097 290.1153,253.4898 289.2953,252.7467 288.4065,252.0875"/>
    <polygon points="276.8261,245.2228 277.8265,245.696 278.8684,246.0688 279.9418,246.3377 281.0365,246.5 282.1417,246.5543 283.247,246.5 284.3416,246.3377 285.4151,246.0688 286.457,245.696 287.4573,245.2228 288.4065,244.6539 289.2953,243.9947 290.1153,243.2516 290.8584,242.4316 291.5176,241.5428 292.0865,240.5936 292.5597,239.5933 292.9325,238.5514 293.2014,237.4779 293.3637,236.3833 293.418,235.278 293.3637,234.1728 293.2014,233.0781 292.9325,232.0047 292.5597,230.9628 292.0865,229.9624 291.5176,229.0132 290.8584,228.1244 290.1153,227.3045 289.2953,226.5613 288.4065,225.9021 287.4573,225.3332 286.457,224.8601 285.4151,224.4873 284.3416,224.2184 283.247,224.056 282.1417,224.0017 281.0365,224.056 279.9418,224.2184 278.8684,224.4873 277.8265,224.8601 276.8261,225.3332 275.877,225.9021 274.9881,226.5613 274.1682,227.3045 273.425,228.1244 272.7658,229.0132 272.1969,229.9624 271.7238,230.9628 271.351,232.0047 271.0821,233.0781 270.9197,234.1728 270.8654,235.278 270.9197,236.3833 271.0821,237.4779 271.351,238.5514 271.7238,239.5933 272.1969,240.5936 272.7658,241.5428 273.425,242.4316 274.1682,243.2516 274.9881,243.9947 275.877,244.6539"/>
    <polygon points="272.1969,292.9643 271.7238,291.964 271.351,290.922 271.0821,289.8486 270.9197,288.754 270.8654,287.6487 270.9197,286.5434 271.0821,285.4488 271.351,284.3754 271.7238,283.3334 272.1969,282.3331 272.7658,281.3839 273.425,280.4951 274.1682,279.6751 274.9881,278.932 275.877,278.2728 276.8261,277.7039 277.8265,277.2307 278.8684,276.8579 279.9418,276.5891 281.0365,276.4267 282.1417,276.3724 283.247,276.4267 284.3416,276.5891 285.4151,276.8579 286.457,277.2307 287.4573,277.7039 288.4065,278.2728 289.2953,278.932 290.1153,279.6751 290.8584,280.4951 291.5176,281.3839 292.0865,282.3331 292.5597,283.3334 292.9325,284.3754 293.2014,285.4488 293.3637,286.5434 293.418,287.6487 293.3637,288.754 293.2014,289.8486 292.9325,290.922 292.5597,291.964 292.0865,292.9643 291.5176,293.9135 290.8584,294.8023 290.1153,295.6222 289.2953,296.3654 288.4065,297.0246 287.4573,297.5935 286.457,298.0666 285.4151,298.4394 284.3416,298.7083 283.247,298.8707 282.1417,298.925 281.0365,298.8707 279.9418,298.7083 278.8684,298.4394 277.8265,298.0666 276.8261,297.5935 275.877,297.0246 274.9881,296.3654 274.1682,295.6222 273.425,294.8023 272.7658,293.9135"/>
    <polygon points="285.4151,303.0433 286.457,303.4161 287.4573,303.8892 288.4065,304.4581 289.2953,305.1173 290.1153,305.8605 290.8584,306.6804 291.5176,307.5693 292.0865,308.5184 292.5597,309.5188 292.9325,310.5607 293.2014,311.6341 293.3637,312.7288 293.418,313.834 293.3637,314.9393 293.2014,316.0339 292.9325,317.1074 292.5597,318.1493 292.0865,319.1496 291.5176,320.0988 290.8584,320.9876 290.1153,321.8076 289.2953,322.5507 288.4065,323.2099 287.4573,323.7788 286.457,324.252 285.4151,324.6248 284.3416,324.8937 283.247,325.056 282.1417,325.1103 281.0365,325.056 279.9418,324.8937 278.8684,324.6248 277.8265,324.252 276.8261,323.7788 275.877,323.2099 274.9881,322.5507 274.1682,321.8076 273.425,320.9876 272.7658,320.0988 272.1969,319.1496 271.7238,318.1493 271.351,317.1074 271.0821,316.0339 270.9197,314.9393 270.8654,313.834 270.9197,312.7288 271.0821,311.6341 271.351,310.5607 271.7238,309.5188 272.1969,308.5184 272.7658,307.5693 273.425,306.6804 274.1682,305.8605 274.9881,305.1173 275.877,304.4581 276.8261,303.8892 277.8265,303.4161 278.8684,303.0433 279.9418,302.7744 281.0365,302.612 282.1417,302.5577 283.247,302.612 284.3416,302.7744"/>
    <polygon points="271.0821,342.2193 270.9197,341.1246 270.8654,340.0194 270.9197,338.9141 271.0821,337.8195 271.351,336.746 271.7238,335.7041 272.1969,334.7038 272.7658,333.7546 273.425,332.8658 274.1682,332.0458 274.9881,331.3027 275.877,330.6435 276.8261,330.0746 277.8265,329.6014 278.8684,329.2286 279.9418,328.9597 281.0365,328.7974 282.1417,328.7431 283.247,328.7974 284.3416,328.9597 285.4151,329.2286 286.457,329.6014 287.4573,330.0746 288.4065,330.6435 289.2953,331.3027 290.1153,332.0458 290.8584,332.8658 291.5176,333.7546 292.0865,334.7038 292.5597,335.7041 292.9325,336.746 293.2014,337.8195 293.3637,338.9141 293.418,340.0194 293.3637,341.1246 293.2014,342.2193 292.9325,343.2927 292.5597,344.3346 292.0865,345.335 291.5176,346.2841 290.8584,347.173 290.1153,347.9929 289.2953,348.7361 288.4065,349.3953 287.4573,349.9642 286.457,350.4373 285.4151,350.8101 284.3416,351.079 283.247,351.2414 282.1417,351.2957 281.0365,351.2414 279.9418,351.079 278.8684,350.8101 277.8265,350.4373 276.8261,349.9642 275.877,349.3953 274.9881,348.7361 274.1682,347.9929 273.425,347.173 272.7658,346.2841 272.1969,345.335 271.7238,344.3346 271.351,343.2927"/>
    <polygon points="261.5779,344.1582 259.806,345.7642 257.8851,347.1888 255.8339,348.4182 253.6721,349.4407 251.4204,350.2464 249.1006,350.8274 246.735,351.1783 244.3465,351.2957 241.9579,351.1783 239.5923,350.8274 237.2725,350.2464 235.0209,349.4407 232.859,348.4182 230.8078,347.1888 228.8869,345.7642 227.115,344.1582 225.509,342.3862 224.0844,340.4654 222.8549,338.4142 221.8325,336.2523 221.0268,334.0006 220.4457,331.6808 220.0948,329.3153 219.9775,326.9267 220.0948,324.5381 220.4457,322.1725 221.0268,319.8528 221.8325,317.6011 222.8549,315.4392 224.0844,313.388 225.509,311.4672 227.115,309.6952 228.8869,308.0892 230.8078,306.6646 232.859,305.4352 235.0209,304.4127 237.2725,303.607 239.5923,303.026 241.9579,302.6751 244.3465,302.5577 246.735,302.6751 249.1006,303.026 251.4204,303.607 253.6721,304.4127 255.8339,305.4352 257.8851,306.6646 259.806,308.0892 261.5779,309.6952 263.1839,311.4672 264.6085,313.388 265.838,315.4392 266.8605,317.6011 267.6661,319.8528 268.2472,322.1725 268.5981,324.5381 268.7154,326.9267 268.5981,329.3153 268.2472,331.6808 267.6661,334.0006 266.8605,336.2523 265.838,338.4142 264.6085,340.4654 263.1839,342.3862"/>
    <polygon points="243.941,374.9214 243.0522,375.5806 242.103,376.1495 241.1027,376.6226 240.0607,376.9955 238.9873,377.2643 237.8927,377.4267 236.7874,377.481 235.6821,377.4267 234.5875,377.2643 233.5141,376.9955 232.4721,376.6226 231.4718,376.1495 230.5226,375.5806 229.6338,374.9214 228.8138,374.1783 228.0707,373.3583 227.4115,372.4695 226.8426,371.5203 226.3695,370.52 225.9966,369.478 225.7278,368.4046 225.5654,367.31 225.5111,366.2047 225.5654,365.0994 225.7278,364.0048 225.9966,362.9314 226.3695,361.8894 226.8426,360.8891 227.4115,359.9399 228.0707,359.0511 228.8138,358.2311 229.6338,357.488 230.5226,356.8288 231.4718,356.2599 232.4721,355.7868 233.5141,355.4139 234.5875,355.1451 235.6821,354.9827 236.7874,354.9284 237.8927,354.9827 238.9873,355.1451 240.0607,355.4139 241.1027,355.7868 242.103,356.2599 243.0522,356.8288 243.941,357.488 244.761,358.2311 245.5041,359.0511 246.1633,359.9399 246.7322,360.8891 247.2054,361.8894 247.5782,362.9314 247.847,364.0048 248.0094,365.0994 248.0637,366.2047 248.0094,367.31 247.847,368.4046 247.5782,369.478 247.2054,370.52 246.7322,371.5203 246.1633,372.4695 245.5041,373.3583 244.761,374.1783"/>
    <polygon points="218.3247,382.642 218.6686,382.9537 219.0415,383.2302 219.4396,383.4688 219.8592,383.6673 220.2963,383.8237 220.7465,383.9365 221.2057,384.0046 221.6693,384.0273 222.1329,384.0046 222.5921,383.9365 223.0423,383.8237 223.4794,383.6673 223.899,383.4688 224.2971,383.2302 224.67,382.9537 225.0139,382.642 225.3256,382.298 225.6021,381.9252 225.8408,381.5271 226.0392,381.1075 226.1956,380.6704 226.3084,380.2201 226.3765,379.761 226.3993,379.2974 226.3765,378.8338 226.3084,378.3746 226.1956,377.9243 226.0392,377.4873 225.8408,377.0677 225.6021,376.6695 225.3256,376.2967 225.0139,375.9528 224.67,375.6411 224.2971,375.3645 223.899,375.1259 223.4794,374.9274 223.0423,374.7711 222.5921,374.6583 222.1329,374.5902 221.6693,374.5674 221.2057,374.5902 220.7465,374.6583 220.2963,374.7711 219.8592,374.9274 219.4396,375.1259 219.0415,375.3645 218.6686,375.6411 218.3247,375.9528 218.013,376.2967 217.7365,376.6695 217.4978,377.0677 217.2994,377.4873 217.143,377.9243 217.0302,378.3746 216.9621,378.8338 216.9393,379.2974 216.9621,379.761 217.0302,380.2201 217.143,380.6704 217.2994,381.1075 217.4978,381.5271 217.7365,381.9252 218.013,382.298"/>
    <polygon points="236.0085,389.5 236.3525,389.1883 236.6642,388.8444 236.9407,388.4715 237.1793,388.0734 237.3778,387.6538 237.5342,387.2167 237.647,386.7665 237.7151,386.3073 237.7378,385.8437 237.7151,385.3801 237.647,384.9209 237.5342,384.4707 237.3778,384.0336 237.1793,383.614 236.9407,383.2159 236.6642,382.843 236.3525,382.4991 236.0085,382.1874 235.6357,381.9109 235.2376,381.6722 234.818,381.4738 234.3809,381.3174 233.9306,381.2046 233.4715,381.1365 233.0079,381.1137 232.5443,381.1365 232.0851,381.2046 231.6348,381.3174 231.1978,381.4738 230.7782,381.6722 230.38,381.9109 230.0072,382.1874 229.6633,382.4991 229.3516,382.843 229.075,383.2159 228.8364,383.614 228.6379,384.0336 228.4816,384.4707 228.3688,384.9209 228.3007,385.3801 228.2779,385.8437 228.3007,386.3073 228.3688,386.7665 228.4816,387.2167 228.6379,387.6538 228.8364,388.0734 229.075,388.4715 229.3516,388.8444 229.6633,389.1883 230.0072,389.5 230.38,389.7765 230.7782,390.0152 231.1978,390.2136 231.6348,390.37 232.0851,390.4828 232.5443,390.5509 233.0079,390.5737 233.4715,390.5509 233.9306,390.4828 234.3809,390.37 234.818,390.2136 235.2376,390.0152 235.6357,389.7765"/>
    <polygon points="262.7379,390.0881 263.7798,389.7153 264.7802,389.2422 265.7293,388.6733 266.6182,388.0141 267.4381,387.2709 268.1813,386.451 268.8405,385.5621 269.4094,384.613 269.8825,383.6126 270.2553,382.5707 270.5242,381.4973 270.6866,380.4026 270.7409,379.2974 270.6866,378.1921 270.5242,377.0975 270.2553,376.024 269.8825,374.9821 269.4094,373.9818 268.8405,373.0326 268.1813,372.1438 267.4381,371.3238 266.6182,370.5807 265.7293,369.9215 264.7802,369.3526 263.7798,368.8794 262.7379,368.5066 261.6645,368.2377 260.5698,368.0754 259.4646,368.0211 258.3593,368.0754 257.2647,368.2377 256.1912,368.5066 255.1493,368.8794 254.149,369.3526 253.1998,369.9215 252.311,370.5807 251.491,371.3238 250.7479,372.1438 250.0887,373.0326 249.5198,373.9818 249.0466,374.9821 248.6738,376.024 248.4049,377.0975 248.2426,378.1921 248.1883,379.2974 248.2426,380.4026 248.4049,381.4973 248.6738,382.5707 249.0466,383.6126 249.5198,384.613 250.0887,385.5621 250.7479,386.451 251.491,387.2709 252.311,388.0141 253.1998,388.6733 254.149,389.2422 255.1493,389.7153 256.1912,390.0881 257.2647,390.357 258.3593,390.5194 259.4646,390.5737 260.5698,390.5194 261.6645,390.357"/>
    <polygon points="283.0013,386.7665 283.0694,386.3073 283.0922,385.8437 283.0694,385.3801 283.0013,384.9209 282.8885,384.4707 282.7321,384.0336 282.5337,383.614 282.295,383.2159 282.0185,382.843 281.7068,382.4991 281.3629,382.1874 280.99,381.9109 280.5919,381.6722 280.1723,381.4738 279.7352,381.3174 279.285,381.2046 278.8258,381.1365 278.3622,381.1137 277.8986,381.1365 277.4394,381.2046 276.9892,381.3174 276.5521,381.4738 276.1325,381.6722 275.7344,381.9109 275.3615,382.1874 275.0176,382.4991 274.7059,382.843 274.4294,383.2159 274.1907,383.614 273.9923,384.0336 273.8359,384.4707 273.7231,384.9209 273.655,385.3801 273.6322,385.8437 273.655,386.3073 273.7231,386.7665 273.8359,387.2167 273.9923,387.6538 274.1907,388.0734 274.4294,388.4715 274.7059,388.8444 275.0176,389.1883 275.3615,389.5 275.7344,389.7765 276.1325,390.0152 276.5521,390.2136 276.9892,390.37 277.4394,390.4828 277.8986,390.5509 278.3622,390.5737 278.8258,390.5509 279.285,390.4828 279.7352,390.37 280.1723,390.2136 280.5919,390.0152 280.99,389.7765 281.3629,389.5 281.7068,389.1883 282.0185,388.8444 282.295,388.4715 282.5337,388.0734 282.7321,387.6538 282.8885,387.2167"/>
    <polygon points="280.5919,363.8298 280.99,363.5912 281.3629,363.3147 281.7068,363.003 282.0185,362.659 282.295,362.2862 282.5337,361.8881 282.7321,361.4684 282.8885,361.0314 283.0013,360.5811 283.0694,360.122 283.0922,359.6584 283.0694,359.1947 283.0013,358.7356 282.8885,358.2853 282.7321,357.8483 282.5337,357.4287 282.295,357.0305 282.0185,356.6577 281.7068,356.3138 281.3629,356.002 280.99,355.7255 280.5919,355.4869 280.1723,355.2884 279.7352,355.1321 279.285,355.0193 278.8258,354.9512 278.3622,354.9284 277.8986,354.9512 277.4394,355.0193 276.9892,355.1321 276.5521,355.2884 276.1325,355.4869 275.7344,355.7255 275.3615,356.002 275.0176,356.3138 274.7059,356.6577 274.4294,357.0305 274.1907,357.4287 273.9923,357.8483 273.8359,358.2853 273.7231,358.7356 273.655,359.1947 273.6322,359.6584 273.655,360.122 273.7231,360.5811 273.8359,361.0314 273.9923,361.4684 274.1907,361.8881 274.4294,362.2862 274.7059,362.659 275.0176,363.003 275.3615,363.3147 275.7344,363.5912 276.1325,363.8298 276.5521,364.0283 276.9892,364.1847 277.4394,364.2975 277.8986,364.3656 278.3622,364.3883 278.8258,364.3656 279.285,364.2975 279.7352,364.1847 280.1723,364.0283"/>
    <polygon points="296.6694,348.3758 296.8679,348.7954 297.1065,349.1935 297.3831,349.5664 297.6948,349.9103 298.0387,350.222 298.4115,350.4985 298.8097,350.7372 299.2293,350.9356 299.6663,351.092 300.1166,351.2048 300.5758,351.2729 301.0394,351.2957 301.503,351.2729 301.9621,351.2048 302.4124,351.092 302.8495,350.9356 303.2691,350.7372 303.6672,350.4985 304.04,350.222 304.384,349.9103 304.6957,349.5664 304.9722,349.1935 305.2108,348.7954 305.4093,348.3758 305.5657,347.9387 305.6785,347.4885 305.7466,347.0293 305.7693,346.5657 305.7466,346.1021 305.6785,345.6429 305.5657,345.1927 305.4093,344.7556 305.2108,344.336 304.9722,343.9379 304.6957,343.565 304.384,343.2211 304.04,342.9094 303.6672,342.6329 303.2691,342.3942 302.8495,342.1958 302.4124,342.0394 301.9621,341.9266 301.503,341.8585 301.0394,341.8357 300.5758,341.8585 300.1166,341.9266 299.6663,342.0394 299.2293,342.1958 298.8097,342.3942 298.4115,342.6329 298.0387,342.9094 297.6948,343.2211 297.3831,343.565 297.1065,343.9379 296.8679,344.336 296.6694,344.7556 296.5131,345.1927 296.4003,345.6429 296.3322,346.1021 296.3094,346.5657 296.3322,347.0293 296.4003,347.4885 296.5131,347.9387"/>
    <polygon points="308.0922,337.7175 309.1342,337.3446 310.1345,336.8715 311.0837,336.3026 311.9725,335.6434 312.7925,334.9003 313.5356,334.0803 314.1948,333.1915 314.7637,332.2423 315.2368,331.242 315.6097,330.2 315.8785,329.1266 316.0409,328.032 316.0952,326.9267 316.0409,325.8214 315.8785,324.7268 315.6097,323.6534 315.2368,322.6114 314.7637,321.6111 314.1948,320.6619 313.5356,319.7731 312.7925,318.9531 311.9725,318.21 311.0837,317.5508 310.1345,316.9819 309.1342,316.5087 308.0922,316.1359 307.0188,315.8671 305.9242,315.7047 304.8189,315.6504 303.7136,315.7047 302.619,315.8671 301.5456,316.1359 300.5036,316.5087 299.5033,316.9819 298.5541,317.5508 297.6653,318.21 296.8453,318.9531 296.1022,319.7731 295.443,320.6619 294.8741,321.6111 294.4009,322.6114 294.0281,323.6534 293.7593,324.7268 293.5969,325.8214 293.5426,326.9267 293.5969,328.032 293.7593,329.1266 294.0281,330.2 294.4009,331.242 294.8741,332.2423 295.443,333.1915 296.1022,334.0803 296.8453,334.9003 297.6653,335.6434 298.5541,336.3026 299.5033,336.8715 300.5036,337.3446 301.5456,337.7175 302.619,337.9863 303.7136,338.1487 304.8189,338.203 305.9242,338.1487 307.0188,337.9863"/>
    <polygon points="325.5266,337.843 325.9462,337.6445 326.3444,337.4059 326.7172,337.1294 327.0611,336.8176 327.3729,336.4737 327.6494,336.1009 327.888,335.7027 328.0865,335.2831 328.2428,334.8461 328.3556,334.3958 328.4237,333.9367 328.4465,333.473 328.4237,333.0094 328.3556,332.5503 328.2428,332.1 328.0865,331.663 327.888,331.2433 327.6494,330.8452 327.3729,330.4724 327.0611,330.1284 326.7172,329.8167 326.3444,329.5402 325.9462,329.3016 325.5266,329.1031 325.0896,328.9467 324.6393,328.8339 324.1802,328.7658 323.7165,328.7431 323.2529,328.7658 322.7938,328.8339 322.3435,328.9467 321.9065,329.1031 321.4868,329.3016 321.0887,329.5402 320.7159,329.8167 320.3719,330.1284 320.0602,330.4724 319.7837,330.8452 319.5451,331.2433 319.3466,331.663 319.1902,332.1 319.0774,332.5503 319.0093,333.0094 318.9866,333.473 319.0093,333.9367 319.0774,334.3958 319.1902,334.8461 319.3466,335.2831 319.5451,335.7027 319.7837,336.1009 320.0602,336.4737 320.3719,336.8176 320.7159,337.1294 321.0887,337.4059 321.4868,337.6445 321.9065,337.843 322.3435,337.9993 322.7938,338.1121 323.2529,338.1802 323.7165,338.203 324.1802,338.1802 324.6393,338.1121 325.0896,337.9993"/>
  </g>
</svg>
