<?xml version="1.0" encoding="utf-8" ?>
<svg xmlns="http://www.w3.org/2000/svg" xmlns:cc="http://creativecommons.org/ns" xmlns:dc="http://purl.org/dc/elements/1.1/" xmlns:ev="http://www.w3.org/2001/xml-events" xmlns:inkscape="http://www.inkscape.org/namespaces/inkscape" xmlns:rdf="http://www.w3.org/1999/02/22-rdf-syntax-ns" xmlns:sodipodi="http://sodipodi.sourceforge.net/DTD/sodipodi-0.dtd" xmlns:xlink="http://www.w3.org/1999/xlink" baseProfile="tiny" height="15.875cm" version="1.2" viewBox="0 0 432.0 600.0" width="11.43cm">
  <metadata>
    <rdf:RDF>
      <cc:Work>
        <dc:format>image/svg+xml</dc:format>
        <dc:source>vsk save -s 192 -c hex-grid/config/bubble-coasters-2.json /Users/tobin/src/fabian/plotting/fabian-plotting/hex-grid/sketch_hex_grid.py</dc:source>
        <dc:date>2023-11-04T10:32:59.840940</dc:date>
      </cc:Work>
    </rdf:RDF>
  </metadata>
  <defs/>
  <g fill="none" id="layer1" inkscape:groupmode="layer" inkscape:label="1" stroke="#000000" stroke-width="0.7559" style="display:inline">
    <polygon points="295.8337,341.4534 295.3701,341.4762 294.9065,341.4534 294.4473,341.3853 293.997,341.2725 293.56,341.1161 293.1404,340.9177 292.7422,340.679 292.3694,340.4025 292.0255,340.0908 291.7138,339.7469 291.4373,339.374 291.1986,338.9759 291.0002,338.5563 290.8438,338.1192 290.731,337.669 290.6629,337.2098 290.6401,336.7462 290.6629,336.2826 290.731,335.8234 290.8438,335.3732 291.0002,334.9361 291.1986,334.5165 291.4373,334.1184 291.7138,333.7455 292.0255,333.4016 292.3694,333.0899 292.7422,332.8134 293.1404,332.5747 293.56,332.3763 293.997,332.2199 294.4473,332.1071 294.9065,332.039 295.3701,332.0162 295.8337,332.039 296.2929,332.1071 296.7431,332.2199 297.1802,332.3763 297.5998,332.5747 297.9979,332.8134 298.3707,333.0899 298.7147,333.4016 299.0264,333.7455 299.3029,334.1184 299.5415,334.5165 299.74,334.9361 299.8964,335.3732 300.0092,335.8234 300.0773,336.2826 300.1001,336.7462 300.0773,337.2098 300.0092,337.669 299.8964,338.1192 299.74,338.5563 299.5415,338.9759 299.3029,339.374 299.0264,339.7469 298.7147,340.0908 298.3707,340.4025 297.9979,340.679 297.5998,340.9177 297.1802,341.1161 296.7431,341.2725 296.2929,341.3853"/>
    <polygon points="303.708,333.8562 303.3641,333.5445 303.0523,333.2005 302.7758,332.8277 302.5372,332.4296 302.3387,332.0099 302.1824,331.5729 302.0696,331.1226 302.0015,330.6635 301.9787,330.1999 302.0015,329.7362 302.0696,329.2771 302.1824,328.8268 302.3387,328.3898 302.5372,327.9702 302.7758,327.572 303.0523,327.1992 303.3641,326.8553 303.708,326.5435 304.0808,326.267 304.479,326.0284 304.8986,325.8299 305.3356,325.6736 305.7859,325.5608 306.245,325.4927 306.7087,325.4699 307.1723,325.4927 307.6314,325.5608 308.0817,325.6736 308.5187,325.8299 308.9384,326.0284 309.3365,326.267 309.7093,326.5435 310.0533,326.8553 310.365,327.1992 310.6415,327.572 310.8801,327.9702 311.0786,328.3898 311.235,328.8268 311.3477,329.2771 311.4159,329.7362 311.4386,330.1999 311.4159,330.6635 311.3477,331.1226 311.235,331.5729 311.0786,332.0099 310.8801,332.4296 310.6415,332.8277 310.365,333.2005 310.0533,333.5445 309.7093,333.8562 309.3365,334.1327 308.9384,334.3713 308.5187,334.5698 308.0817,334.7262 307.6314,334.839 307.1723,334.9071 306.7087,334.9298 306.245,334.9071 305.7859,334.839 305.3356,334.7262 304.8986,334.5698 304.479,334.3713 304.0808,334.1327"/>
    <polygon points="290.6629,324.1172 290.6401,323.6535 290.6629,323.1899 290.731,322.7308 290.8438,322.2805 291.0002,321.8434 291.1986,321.4238 291.4373,321.0257 291.7138,320.6529 292.0255,320.3089 292.3694,319.9972 292.7422,319.7207 293.1404,319.4821 293.56,319.2836 293.997,319.1272 294.4473,319.0144 294.9065,318.9463 295.3701,318.9236 295.8337,318.9463 296.2929,319.0144 296.7431,319.1272 297.1802,319.2836 297.5998,319.4821 297.9979,319.7207 298.3707,319.9972 298.7147,320.3089 299.0264,320.6529 299.3029,321.0257 299.5415,321.4238 299.74,321.8434 299.8964,322.2805 300.0092,322.7308 300.0773,323.1899 300.1001,323.6535 300.0773,324.1172 300.0092,324.5763 299.8964,325.0266 299.74,325.4636 299.5415,325.8832 299.3029,326.2814 299.0264,326.6542 298.7147,326.9981 298.3707,327.3098 297.9979,327.5864 297.5998,327.825 297.1802,328.0235 296.7431,328.1798 296.2929,328.2926 295.8337,328.3607 295.3701,328.3835 294.9065,328.3607 294.4473,328.2926 293.997,328.1798 293.56,328.0235 293.1404,327.825 292.7422,327.5864 292.3694,327.3098 292.0255,326.9981 291.7138,326.6542 291.4373,326.2814 291.1986,325.8832 291.0002,325.4636 290.8438,325.0266 290.731,324.5763"/>
    <polygon points="279.3924,329.2771 279.5052,328.8268 279.6616,328.3898 279.86,327.9702 280.0987,327.572 280.3752,327.1992 280.6869,326.8553 281.0308,326.5435 281.4037,326.267 281.8018,326.0284 282.2214,325.8299 282.6585,325.6736 283.1087,325.5608 283.5679,325.4927 284.0315,325.4699 284.4951,325.4927 284.9543,325.5608 285.4045,325.6736 285.8416,325.8299 286.2612,326.0284 286.6593,326.267 287.0322,326.5435 287.3761,326.8553 287.6878,327.1992 287.9643,327.572 288.203,327.9702 288.4014,328.3898 288.5578,328.8268 288.6706,329.2771 288.7387,329.7362 288.7615,330.1999 288.7387,330.6635 288.6706,331.1226 288.5578,331.5729 288.4014,332.0099 288.203,332.4296 287.9643,332.8277 287.6878,333.2005 287.3761,333.5445 287.0322,333.8562 286.6593,334.1327 286.2612,334.3713 285.8416,334.5698 285.4045,334.7262 284.9543,334.839 284.4951,334.9071 284.0315,334.9298 283.5679,334.9071 283.1087,334.839 282.6585,334.7262 282.2214,334.5698 281.8018,334.3713 281.4037,334.1327 281.0308,333.8562 280.6869,333.5445 280.3752,333.2005 280.0987,332.8277 279.86,332.4296 279.6616,332.0099 279.5052,331.5729 279.3924,331.1226 279.3243,330.6635 279.3015,330.1999 279.3243,329.7362"/>
    <polygon points="275.5518,327.9688 275.0787,328.9691 274.5098,329.9183 273.8506,330.8071 273.1074,331.6271 272.2875,332.3702 271.3986,333.0294 270.4495,333.5983 269.4491,334.0715 268.4072,334.4443 267.3338,334.7132 266.2391,334.8755 265.1339,334.9298 264.0286,334.8755 262.934,334.7132 261.8605,334.4443 260.8186,334.0715 259.8182,333.5983 258.8691,333.0294 257.9802,332.3702 257.1603,331.6271 256.4172,330.8071 255.758,329.9183 255.189,328.9691 254.7159,327.9688 254.3431,326.9269 254.0742,325.8534 253.9119,324.7588 253.8576,323.6535 253.9119,322.5483 254.0742,321.4536 254.3431,320.3802 254.7159,319.3383 255.189,318.3379 255.758,317.3888 256.4172,316.4999 257.1603,315.68 257.9802,314.9368 258.8691,314.2776 259.8182,313.7087 260.8186,313.2356 261.8605,312.8628 262.934,312.5939 264.0286,312.4315 265.1339,312.3772 266.2391,312.4315 267.3338,312.5939 268.4072,312.8628 269.4491,313.2356 270.4495,313.7087 271.3986,314.2776 272.2875,314.9368 273.1074,315.68 273.8506,316.4999 274.5098,317.3888 275.0787,318.3379 275.5518,319.3383 275.9246,320.3802 276.1935,321.4536 276.3559,322.5483 276.4102,323.6535 276.3559,324.7588 276.1935,325.8534 275.9246,326.9269"/>
    <polygon points="269.0366,346.8382 269.3483,346.4943 269.6923,346.1825 270.0651,345.906 270.4632,345.6674 270.8828,345.4689 271.3199,345.3126 271.7701,345.1998 272.2293,345.1317 272.6929,345.1089 273.1565,345.1317 273.6157,345.1998 274.066,345.3126 274.503,345.4689 274.9226,345.6674 275.3207,345.906 275.6936,346.1825 276.0375,346.4943 276.3492,346.8382 276.6257,347.211 276.8644,347.6092 277.0628,348.0288 277.2192,348.4658 277.332,348.9161 277.4001,349.3752 277.4229,349.8389 277.4001,350.3025 277.332,350.7616 277.2192,351.2119 277.0628,351.6489 276.8644,352.0686 276.6257,352.4667 276.3492,352.8395 276.0375,353.1835 275.6936,353.4952 275.3207,353.7717 274.9226,354.0103 274.503,354.2088 274.066,354.3652 273.6157,354.478 273.1565,354.5461 272.6929,354.5688 272.2293,354.5461 271.7701,354.478 271.3199,354.3652 270.8828,354.2088 270.4632,354.0103 270.0651,353.7717 269.6923,353.4952 269.3483,353.1835 269.0366,352.8395 268.7601,352.4667 268.5214,352.0686 268.323,351.6489 268.1666,351.2119 268.0538,350.7616 267.9857,350.3025 267.9629,349.8389 267.9857,349.3752 268.0538,348.9161 268.1666,348.4658 268.323,348.0288 268.5214,347.6092 268.7601,347.211"/>
    <polygon points="257.4215,345.9204 257.1829,345.5222 256.9844,345.1026 256.828,344.6656 256.7152,344.2153 256.6471,343.7562 256.6244,343.2925 256.6471,342.8289 256.7152,342.3698 256.828,341.9195 256.9844,341.4825 257.1829,341.0628 257.4215,340.6647 257.698,340.2919 258.0097,339.9479 258.3537,339.6362 258.7265,339.3597 259.1246,339.1211 259.5442,338.9226 259.9813,338.7662 260.4316,338.6534 260.8907,338.5853 261.3543,338.5626 261.8179,338.5853 262.2771,338.6534 262.7274,338.7662 263.1644,338.9226 263.584,339.1211 263.9822,339.3597 264.355,339.6362 264.6989,339.9479 265.0106,340.2919 265.2872,340.6647 265.5258,341.0628 265.7243,341.4825 265.8806,341.9195 265.9934,342.3698 266.0615,342.8289 266.0843,343.2925 266.0615,343.7562 265.9934,344.2153 265.8806,344.6656 265.7243,345.1026 265.5258,345.5222 265.2872,345.9204 265.0106,346.2932 264.6989,346.6371 264.355,346.9489 263.9822,347.2254 263.584,347.464 263.1644,347.6625 262.7274,347.8188 262.2771,347.9316 261.8179,347.9997 261.3543,348.0225 260.8907,347.9997 260.4316,347.9316 259.9813,347.8188 259.5442,347.6625 259.1246,347.464 258.7265,347.2254 258.3537,346.9489 258.0097,346.6371 257.698,346.2932"/>
    <polygon points="248.8301,322.0483 247.6006,324.0995 246.1761,326.0204 244.57,327.7923 242.7981,329.3983 240.8773,330.8229 238.826,332.0524 236.6642,333.0749 234.4125,333.8805 232.0927,334.4616 229.7272,334.8125 227.3386,334.9298 224.95,334.8125 222.5844,334.4616 220.2646,333.8805 218.013,333.0749 215.8511,332.0524 213.7999,330.8229 211.8791,329.3983 210.1071,327.7923 208.5011,326.0204 207.0765,324.0995 205.8471,322.0483 204.8246,319.8865 204.0189,317.6348 203.4379,315.315 203.087,312.9494 202.9696,310.5609 203.087,308.1723 203.4379,305.8067 204.0189,303.4869 204.8246,301.2353 205.8471,299.0734 207.0765,297.0222 208.5011,295.1014 210.1071,293.3294 211.8791,291.7234 213.7999,290.2988 215.8511,289.0693 218.013,288.0469 220.2646,287.2412 222.5844,286.6601 224.95,286.3092 227.3386,286.1919 229.7272,286.3092 232.0927,286.6601 234.4125,287.2412 236.6642,288.0469 238.826,289.0693 240.8773,290.2988 242.7981,291.7234 244.57,293.3294 246.1761,295.1014 247.6006,297.0222 248.8301,299.0734 249.8526,301.2353 250.6582,303.4869 251.2393,305.8067 251.5902,308.1723 251.7076,310.5609 251.5902,312.9494 251.2393,315.315 250.6582,317.6348 249.8526,319.8865"/>
    <polygon points="188.9529,328.3898 188.7965,328.8268 188.6837,329.2771 188.6156,329.7362 188.5929,330.1999 188.6156,330.6635 188.6837,331.1226 188.7965,331.5729 188.9529,332.0099 189.1514,332.4296 189.39,332.8277 189.6665,333.2005 189.9782,333.5445 190.3222,333.8562 190.695,334.1327 191.0931,334.3713 191.5128,334.5698 191.9498,334.7262 192.4001,334.839 192.8592,334.9071 193.3228,334.9298 193.7865,334.9071 194.2456,334.839 194.6959,334.7262 195.1329,334.5698 195.5525,334.3713 195.9507,334.1327 196.3235,333.8562 196.6674,333.5445 196.9792,333.2005 197.2557,332.8277 197.4943,332.4296 197.6928,332.0099 197.8491,331.5729 197.9619,331.1226 198.03,330.6635 198.0528,330.1999 198.03,329.7362 197.9619,329.2771 197.8491,328.8268 197.6928,328.3898 197.4943,327.9702 197.2557,327.572 196.9792,327.1992 196.6674,326.8553 196.3235,326.5435 195.9507,326.267 195.5525,326.0284 195.1329,325.8299 194.6959,325.6736 194.2456,325.5608 193.7865,325.4927 193.3228,325.4699 192.8592,325.4927 192.4001,325.5608 191.9498,325.6736 191.5128,325.8299 191.0931,326.0284 190.695,326.267 190.3222,326.5435 189.9782,326.8553 189.6665,327.1992 189.39,327.572 189.1514,327.9702"/>
    <polygon points="181.5788,332.3702 182.3987,331.6271 183.1419,330.8071 183.8011,329.9183 184.37,328.9691 184.8431,327.9688 185.2159,326.9269 185.4848,325.8534 185.6472,324.7588 185.7015,323.6535 185.6472,322.5483 185.4848,321.4536 185.2159,320.3802 184.8431,319.3383 184.37,318.3379 183.8011,317.3888 183.1419,316.4999 182.3987,315.68 181.5788,314.9368 180.69,314.2776 179.7408,313.7087 178.7405,313.2356 177.6985,312.8628 176.6251,312.5939 175.5305,312.4315 174.4252,312.3772 173.3199,312.4315 172.2253,312.5939 171.1519,312.8628 170.1099,313.2356 169.1096,313.7087 168.1604,314.2776 167.2716,314.9368 166.4516,315.68 165.7085,316.4999 165.0493,317.3888 164.4804,318.3379 164.0072,319.3383 163.6344,320.3802 163.3656,321.4536 163.2032,322.5483 163.1489,323.6535 163.2032,324.7588 163.3656,325.8534 163.6344,326.9269 164.0072,327.9688 164.4804,328.9691 165.0493,329.9183 165.7085,330.8071 166.4516,331.6271 167.2716,332.3702 168.1604,333.0294 169.1096,333.5983 170.1099,334.0715 171.1519,334.4443 172.2253,334.7132 173.3199,334.8755 174.4252,334.9298 175.5305,334.8755 176.6251,334.7132 177.6985,334.4443 178.7405,334.0715 179.7408,333.5983 180.69,333.0294"/>
    <polygon points="159.7216,318.5344 160.4647,317.7145 161.1239,316.8256 161.6928,315.8765 162.166,314.8761 162.5388,313.8342 162.8077,312.7608 162.97,311.6661 163.0243,310.5609 162.97,309.4556 162.8077,308.361 162.5388,307.2875 162.166,306.2456 161.6928,305.2453 161.1239,304.2961 160.4647,303.4073 159.7216,302.5873 158.9016,301.8442 158.0128,301.185 157.0636,300.616 156.0633,300.1429 155.0214,299.7701 153.9479,299.5012 152.8533,299.3389 151.748,299.2846 150.6428,299.3389 149.5481,299.5012 148.4747,299.7701 147.4328,300.1429 146.4324,300.616 145.4833,301.185 144.5944,301.8442 143.7745,302.5873 143.0313,303.4073 142.3721,304.2961 141.8032,305.2453 141.3301,306.2456 140.9573,307.2875 140.6884,308.361 140.526,309.4556 140.4717,310.5609 140.526,311.6661 140.6884,312.7608 140.9573,313.8342 141.3301,314.8761 141.8032,315.8765 142.3721,316.8256 143.0313,317.7145 143.7745,318.5344 144.5944,319.2776 145.4833,319.9368 146.4324,320.5057 147.4328,320.9788 148.4747,321.3516 149.5481,321.6205 150.6428,321.7829 151.748,321.8372 152.8533,321.7829 153.9479,321.6205 155.0214,321.3516 156.0633,320.9788 157.0636,320.5057 158.0128,319.9368 158.9016,319.2776"/>
    <polygon points="154.7808,335.3732 154.668,335.8234 154.5999,336.2826 154.5771,336.7462 154.5999,337.2098 154.668,337.669 154.7808,338.1192 154.9372,338.5563 155.1356,338.9759 155.3743,339.374 155.6508,339.7469 155.9625,340.0908 156.3064,340.4025 156.6793,340.679 157.0774,340.9177 157.497,341.1161 157.934,341.2725 158.3843,341.3853 158.8435,341.4534 159.3071,341.4762 159.7707,341.4534 160.2299,341.3853 160.6801,341.2725 161.1172,341.1161 161.5368,340.9177 161.9349,340.679 162.3077,340.4025 162.6517,340.0908 162.9634,339.7469 163.2399,339.374 163.4786,338.9759 163.677,338.5563 163.8334,338.1192 163.9462,337.669 164.0143,337.2098 164.0371,336.7462 164.0143,336.2826 163.9462,335.8234 163.8334,335.3732 163.677,334.9361 163.4786,334.5165 163.2399,334.1184 162.9634,333.7455 162.6517,333.4016 162.3077,333.0899 161.9349,332.8134 161.5368,332.5747 161.1172,332.3763 160.6801,332.2199 160.2299,332.1071 159.7707,332.039 159.3071,332.0162 158.8435,332.039 158.3843,332.1071 157.934,332.2199 157.497,332.3763 157.0774,332.5747 156.6793,332.8134 156.3064,333.0899 155.9625,333.4016 155.6508,333.7455 155.3743,334.1184 155.1356,334.5165 154.9372,334.9361"/>
    <polygon points="131.9227,323.1899 131.8999,323.6535 131.9227,324.1172 131.9908,324.5763 132.1036,325.0266 132.26,325.4636 132.4585,325.8832 132.6971,326.2814 132.9736,326.6542 133.2853,326.9981 133.6293,327.3098 134.0021,327.5864 134.4002,327.825 134.8198,328.0235 135.2569,328.1798 135.7071,328.2926 136.1663,328.3607 136.6299,328.3835 137.0935,328.3607 137.5527,328.2926 138.003,328.1798 138.44,328.0235 138.8596,327.825 139.2578,327.5864 139.6306,327.3098 139.9745,326.9981 140.2862,326.6542 140.5627,326.2814 140.8014,325.8832 140.9998,325.4636 141.1562,325.0266 141.269,324.5763 141.3371,324.1172 141.3599,323.6535 141.3371,323.1899 141.269,322.7308 141.1562,322.2805 140.9998,321.8434 140.8014,321.4238 140.5627,321.0257 140.2862,320.6529 139.9745,320.3089 139.6306,319.9972 139.2578,319.7207 138.8596,319.4821 138.44,319.2836 138.003,319.1272 137.5527,319.0144 137.0935,318.9463 136.6299,318.9236 136.1663,318.9463 135.7071,319.0144 135.2569,319.1272 134.8198,319.2836 134.4002,319.4821 134.0021,319.7207 133.6293,319.9972 133.2853,320.3089 132.9736,320.6529 132.6971,321.0257 132.4585,321.4238 132.26,321.8434 132.1036,322.2805 131.9908,322.7308"/>
    <polygon points="137.0935,302.1754 137.5527,302.1073 138.003,301.9945 138.44,301.8381 138.8596,301.6397 139.2578,301.401 139.6306,301.1245 139.9745,300.8128 140.2862,300.4689 140.5627,300.096 140.8014,299.6979 140.9998,299.2783 141.1562,298.8412 141.269,298.391 141.3371,297.9318 141.3599,297.4682 141.3371,297.0046 141.269,296.5454 141.1562,296.0952 140.9998,295.6581 140.8014,295.2385 140.5627,294.8404 140.2862,294.4675 139.9745,294.1236 139.6306,293.8119 139.2578,293.5354 138.8596,293.2967 138.44,293.0983 138.003,292.9419 137.5527,292.8291 137.0935,292.761 136.6299,292.7382 136.1663,292.761 135.7071,292.8291 135.2569,292.9419 134.8198,293.0983 134.4002,293.2967 134.0021,293.5354 133.6293,293.8119 133.2853,294.1236 132.9736,294.4675 132.6971,294.8404 132.4585,295.2385 132.26,295.6581 132.1036,296.0952 131.9908,296.5454 131.9227,297.0046 131.8999,297.4682 131.9227,297.9318 131.9908,298.391 132.1036,298.8412 132.26,299.2783 132.4585,299.6979 132.6971,300.096 132.9736,300.4689 133.2853,300.8128 133.6293,301.1245 134.0021,301.401 134.4002,301.6397 134.8198,301.8381 135.2569,301.9945 135.7071,302.1073 136.1663,302.1754 136.6299,302.1982"/>
    <polygon points="120.6523,276.9064 120.765,276.4562 120.9214,276.0191 121.1199,275.5995 121.3585,275.2014 121.635,274.8285 121.9467,274.4846 122.2907,274.1729 122.6635,273.8964 123.0616,273.6577 123.4813,273.4593 123.9183,273.3029 124.3686,273.1901 124.8277,273.122 125.2913,273.0992 125.755,273.122 126.2141,273.1901 126.6644,273.3029 127.1014,273.4593 127.521,273.6577 127.9192,273.8964 128.292,274.1729 128.6359,274.4846 128.9477,274.8285 129.2242,275.2014 129.4628,275.5995 129.6613,276.0191 129.8176,276.4562 129.9304,276.9064 129.9985,277.3656 130.0213,277.8292 129.9985,278.2928 129.9304,278.752 129.8176,279.2022 129.6613,279.6393 129.4628,280.0589 129.2242,280.457 128.9477,280.8299 128.6359,281.1738 128.292,281.4855 127.9192,281.762 127.521,282.0007 127.1014,282.1991 126.6644,282.3555 126.2141,282.4683 125.755,282.5364 125.2913,282.5592 124.8277,282.5364 124.3686,282.4683 123.9183,282.3555 123.4813,282.1991 123.0616,282.0007 122.6635,281.762 122.2907,281.4855 121.9467,281.1738 121.635,280.8299 121.3585,280.457 121.1199,280.0589 120.9214,279.6393 120.765,279.2022 120.6523,278.752 120.5841,278.2928 120.5614,277.8292 120.5841,277.3656"/>
    <polygon points="138.003,275.8092 137.5527,275.9219 137.0935,275.9901 136.6299,276.0128 136.1663,275.9901 135.7071,275.9219 135.2569,275.8092 134.8198,275.6528 134.4002,275.4543 134.0021,275.2157 133.6293,274.9392 133.2853,274.6275 132.9736,274.2835 132.6971,273.9107 132.4585,273.5126 132.26,273.0929 132.1036,272.6559 131.9908,272.2056 131.9227,271.7465 131.8999,271.2829 131.9227,270.8192 131.9908,270.3601 132.1036,269.9098 132.26,269.4728 132.4585,269.0532 132.6971,268.655 132.9736,268.2822 133.2853,267.9383 133.6293,267.6265 134.0021,267.35 134.4002,267.1114 134.8198,266.9129 135.2569,266.7566 135.7071,266.6438 136.1663,266.5757 136.6299,266.5529 137.0935,266.5757 137.5527,266.6438 138.003,266.7566 138.44,266.9129 138.8596,267.1114 139.2578,267.35 139.6306,267.6265 139.9745,267.9383 140.2862,268.2822 140.5627,268.655 140.8014,269.0532 140.9998,269.4728 141.1562,269.9098 141.269,270.3601 141.3371,270.8192 141.3599,271.2829 141.3371,271.7465 141.269,272.2056 141.1562,272.6559 140.9998,273.0929 140.8014,273.5126 140.5627,273.9107 140.2862,274.2835 139.9745,274.6275 139.6306,274.9392 139.2578,275.2157 138.8596,275.4543 138.44,275.6528"/>
    <polygon points="146.4324,248.2454 145.4833,248.8143 144.5944,249.4735 143.7745,250.2166 143.0313,251.0366 142.3721,251.9254 141.8032,252.8746 141.3301,253.8749 140.9573,254.9169 140.6884,255.9903 140.526,257.0849 140.4717,258.1902 140.526,259.2955 140.6884,260.3901 140.9573,261.4635 141.3301,262.5054 141.8032,263.5058 142.3721,264.455 143.0313,265.3438 143.7745,266.1637 144.5944,266.9069 145.4833,267.5661 146.4324,268.135 147.4328,268.6081 148.4747,268.9809 149.5481,269.2498 150.6428,269.4122 151.748,269.4665 152.8533,269.4122 153.9479,269.2498 155.0214,268.9809 156.0633,268.6081 157.0636,268.135 158.0128,267.5661 158.9016,266.9069 159.7216,266.1637 160.4647,265.3438 161.1239,264.455 161.6928,263.5058 162.166,262.5054 162.5388,261.4635 162.8077,260.3901 162.97,259.2955 163.0243,258.1902 162.97,257.0849 162.8077,255.9903 162.5388,254.9169 162.166,253.8749 161.6928,252.8746 161.1239,251.9254 160.4647,251.0366 159.7216,250.2166 158.9016,249.4735 158.0128,248.8143 157.0636,248.2454 156.0633,247.7722 155.0214,247.3994 153.9479,247.1306 152.8533,246.9682 151.748,246.9139 150.6428,246.9682 149.5481,247.1306 148.4747,247.3994 147.4328,247.7722"/>
    <polygon points="166.7128,222.8307 166.4742,223.2288 166.2757,223.6484 166.1194,224.0855 166.0066,224.5358 165.9385,224.9949 165.9157,225.4585 165.9385,225.9221 166.0066,226.3813 166.1194,226.8316 166.2757,227.2686 166.4742,227.6882 166.7128,228.0864 166.9894,228.4592 167.3011,228.8031 167.645,229.1148 168.0178,229.3914 168.416,229.63 168.8356,229.8285 169.2726,229.9848 169.7229,230.0976 170.1821,230.1657 170.6457,230.1885 171.1093,230.1657 171.5684,230.0976 172.0187,229.9848 172.4558,229.8285 172.8754,229.63 173.2735,229.3914 173.6463,229.1148 173.9903,228.8031 174.302,228.4592 174.5785,228.0864 174.8171,227.6882 175.0156,227.2686 175.172,226.8316 175.2848,226.3813 175.3529,225.9221 175.3756,225.4585 175.3529,224.9949 175.2848,224.5358 175.172,224.0855 175.0156,223.6484 174.8171,223.2288 174.5785,222.8307 174.302,222.4579 173.9903,222.1139 173.6463,221.8022 173.2735,221.5257 172.8754,221.2871 172.4558,221.0886 172.0187,220.9322 171.5684,220.8194 171.1093,220.7513 170.6457,220.7286 170.1821,220.7513 169.7229,220.8194 169.2726,220.9322 168.8356,221.0886 168.416,221.2871 168.0178,221.5257 167.645,221.8022 167.3011,222.1139 166.9894,222.4579"/>
    <polygon points="178.9836,222.5685 178.6397,222.2568 178.3279,221.9129 178.0514,221.54 177.8128,221.1419 177.6143,220.7223 177.458,220.2852 177.3452,219.835 177.2771,219.3758 177.2543,218.9122 177.2771,218.4486 177.3452,217.9894 177.458,217.5392 177.6143,217.1021 177.8128,216.6825 178.0514,216.2844 178.3279,215.9115 178.6397,215.5676 178.9836,215.2559 179.3564,214.9794 179.7546,214.7407 180.1742,214.5423 180.6112,214.3859 181.0615,214.2731 181.5206,214.205 181.9843,214.1822 182.4479,214.205 182.907,214.2731 183.3573,214.3859 183.7943,214.5423 184.2139,214.7407 184.6121,214.9794 184.9849,215.2559 185.3288,215.5676 185.6406,215.9115 185.9171,216.2844 186.1557,216.6825 186.3542,217.1021 186.5106,217.5392 186.6233,217.9894 186.6914,218.4486 186.7142,218.9122 186.6914,219.3758 186.6233,219.835 186.5106,220.2852 186.3542,220.7223 186.1557,221.1419 185.9171,221.54 185.6406,221.9129 185.3288,222.2568 184.9849,222.5685 184.6121,222.845 184.2139,223.0837 183.7943,223.2821 183.3573,223.4385 182.907,223.5513 182.4479,223.6194 181.9843,223.6422 181.5206,223.6194 181.0615,223.5513 180.6112,223.4385 180.1742,223.2821 179.7546,223.0837 179.3564,222.845"/>
    <polygon points="189.39,214.9937 189.6665,215.3665 189.9782,215.7105 190.3222,216.0222 190.695,216.2987 191.0931,216.5373 191.5128,216.7358 191.9498,216.8922 192.4001,217.0049 192.8592,217.0731 193.3228,217.0958 193.7865,217.0731 194.2456,217.0049 194.6959,216.8922 195.1329,216.7358 195.5525,216.5373 195.9507,216.2987 196.3235,216.0222 196.6674,215.7105 196.9792,215.3665 197.2557,214.9937 197.4943,214.5956 197.6928,214.1759 197.8491,213.7389 197.9619,213.2886 198.03,212.8295 198.0528,212.3659 198.03,211.9022 197.9619,211.4431 197.8491,210.9928 197.6928,210.5558 197.4943,210.1362 197.2557,209.738 196.9792,209.3652 196.6674,209.0213 196.3235,208.7095 195.9507,208.433 195.5525,208.1944 195.1329,207.9959 194.6959,207.8396 194.2456,207.7268 193.7865,207.6587 193.3228,207.6359 192.8592,207.6587 192.4001,207.7268 191.9498,207.8396 191.5128,207.9959 191.0931,208.1944 190.695,208.433 190.3222,208.7095 189.9782,209.0213 189.6665,209.3652 189.39,209.738 189.1514,210.1362 188.9529,210.5558 188.7965,210.9928 188.6837,211.4431 188.6156,211.9022 188.5929,212.3659 188.6156,212.8295 188.6837,213.2886 188.7965,213.7389 188.9529,214.1759 189.1514,214.5956"/>
    <polygon points="178.7405,234.6796 177.6985,234.3068 176.6251,234.0379 175.5305,233.8755 174.4252,233.8212 173.3199,233.8755 172.2253,234.0379 171.1519,234.3068 170.1099,234.6796 169.1096,235.1527 168.1604,235.7216 167.2716,236.3808 166.4516,237.124 165.7085,237.9439 165.0493,238.8327 164.4804,239.7819 164.0072,240.7823 163.6344,241.8242 163.3656,242.8976 163.2032,243.9923 163.1489,245.0975 163.2032,246.2028 163.3656,247.2974 163.6344,248.3709 164.0072,249.4128 164.4804,250.4131 165.0493,251.3623 165.7085,252.2511 166.4516,253.0711 167.2716,253.8142 168.1604,254.4734 169.1096,255.0423 170.1099,255.5155 171.1519,255.8883 172.2253,256.1572 173.3199,256.3195 174.4252,256.3738 175.5305,256.3195 176.6251,256.1572 177.6985,255.8883 178.7405,255.5155 179.7408,255.0423 180.69,254.4734 181.5788,253.8142 182.3987,253.0711 183.1419,252.2511 183.8011,251.3623 184.37,250.4131 184.8431,249.4128 185.2159,248.3709 185.4848,247.2974 185.6472,246.2028 185.7015,245.0975 185.6472,243.9923 185.4848,242.8976 185.2159,241.8242 184.8431,240.7823 184.37,239.7819 183.8011,238.8327 183.1419,237.9439 182.3987,237.124 181.5788,236.3808 180.69,235.7216 179.7408,235.1527"/>
    <polygon points="197.4438,265.5381 195.5229,264.1135 193.4717,262.884 191.3099,261.8615 189.0582,261.0559 186.7384,260.4748 184.3728,260.1239 181.9843,260.0066 179.5957,260.1239 177.2301,260.4748 174.9103,261.0559 172.6586,261.8615 170.4968,262.884 168.4456,264.1135 166.5247,265.5381 164.7528,267.1441 163.1468,268.916 161.7222,270.8369 160.4927,272.8881 159.4703,275.0499 158.6646,277.3016 158.0835,279.6214 157.7326,281.987 157.6153,284.3755 157.7326,286.7641 158.0835,289.1297 158.6646,291.4495 159.4703,293.7011 160.4927,295.863 161.7222,297.9142 163.1468,299.835 164.7528,301.607 166.5247,303.213 168.4456,304.6376 170.4968,305.867 172.6586,306.8895 174.9103,307.6952 177.2301,308.2763 179.5957,308.6272 181.9843,308.7445 184.3728,308.6272 186.7384,308.2763 189.0582,307.6952 191.3099,306.8895 193.4717,305.867 195.5229,304.6376 197.4438,303.213 199.2157,301.607 200.8217,299.835 202.2463,297.9142 203.4758,295.863 204.4982,293.7011 205.3039,291.4495 205.885,289.1297 206.2359,286.7641 206.3532,284.3755 206.2359,281.987 205.885,279.6214 205.3039,277.3016 204.4982,275.0499 203.4758,272.8881 202.2463,270.8369 200.8217,268.916 199.2157,267.1441"/>
    <polygon points="212.6259,279.9996 213.5147,280.6588 214.4639,281.2277 215.4643,281.7008 216.5062,282.0736 217.5796,282.3425 218.6743,282.5049 219.7795,282.5592 220.8848,282.5049 221.9794,282.3425 223.0529,282.0736 224.0948,281.7008 225.0951,281.2277 226.0443,280.6588 226.9331,279.9996 227.7531,279.2564 228.4962,278.4365 229.1554,277.5476 229.7243,276.5985 230.1975,275.5981 230.5703,274.5562 230.8392,273.4828 231.0015,272.3881 231.0558,271.2829 231.0015,270.1776 230.8392,269.083 230.5703,268.0095 230.1975,266.9676 229.7243,265.9672 229.1554,265.0181 228.4962,264.1292 227.7531,263.3093 226.9331,262.5662 226.0443,261.907 225.0951,261.338 224.0948,260.8649 223.0529,260.4921 221.9794,260.2232 220.8848,260.0609 219.7795,260.0066 218.6743,260.0609 217.5796,260.2232 216.5062,260.4921 215.4643,260.8649 214.4639,261.338 213.5147,261.907 212.6259,262.5662 211.806,263.3093 211.0628,264.1292 210.4036,265.0181 209.8347,265.9672 209.3616,266.9676 208.9888,268.0095 208.7199,269.083 208.5575,270.1776 208.5032,271.2829 208.5575,272.3881 208.7199,273.4828 208.9888,274.5562 209.3616,275.5981 209.8347,276.5985 210.4036,277.5476 211.0628,278.4365 211.806,279.2564"/>
    <polygon points="239.1408,269.4437 239.5999,269.3756 240.0502,269.2628 240.4872,269.1065 240.9069,268.908 241.305,268.6694 241.6778,268.3928 242.0218,268.0811 242.3335,267.7372 242.61,267.3644 242.8486,266.9662 243.0471,266.5466 243.2035,266.1096 243.3163,265.6593 243.3844,265.2001 243.4071,264.7365 243.3844,264.2729 243.3163,263.8138 243.2035,263.3635 243.0471,262.9264 242.8486,262.5068 242.61,262.1087 242.3335,261.7359 242.0218,261.3919 241.6778,261.0802 241.305,260.8037 240.9069,260.5651 240.4872,260.3666 240.0502,260.2102 239.5999,260.0974 239.1408,260.0293 238.6772,260.0066 238.2135,260.0293 237.7544,260.0974 237.3041,260.2102 236.8671,260.3666 236.4475,260.5651 236.0493,260.8037 235.6765,261.0802 235.3326,261.3919 235.0208,261.7359 234.7443,262.1087 234.5057,262.5068 234.3072,262.9264 234.1509,263.3635 234.0381,263.8138 233.97,264.2729 233.9472,264.7365 233.97,265.2001 234.0381,265.6593 234.1509,266.1096 234.3072,266.5466 234.5057,266.9662 234.7443,267.3644 235.0208,267.7372 235.3326,268.0811 235.6765,268.3928 236.0493,268.6694 236.4475,268.908 236.8671,269.1065 237.3041,269.2628 237.7544,269.3756 238.2135,269.4437 238.6772,269.4665"/>
    <polygon points="249.5521,253.483 249.093,253.5511 248.6427,253.6639 248.2057,253.8203 247.7861,254.0187 247.3879,254.2574 247.0151,254.5339 246.6712,254.8456 246.3594,255.1895 246.0829,255.5624 245.8443,255.9605 245.6458,256.3801 245.4894,256.8172 245.3767,257.2674 245.3086,257.7266 245.2858,258.1902 245.3086,258.6538 245.3767,259.113 245.4894,259.5632 245.6458,260.0003 245.8443,260.4199 246.0829,260.818 246.3594,261.1909 246.6712,261.5348 247.0151,261.8465 247.3879,262.123 247.7861,262.3617 248.2057,262.5601 248.6427,262.7165 249.093,262.8293 249.5521,262.8974 250.0157,262.9202 250.4794,262.8974 250.9385,262.8293 251.3888,262.7165 251.8258,262.5601 252.2454,262.3617 252.6436,262.123 253.0164,261.8465 253.3603,261.5348 253.6721,261.1909 253.9486,260.818 254.1872,260.4199 254.3857,260.0003 254.542,259.5632 254.6548,259.113 254.7229,258.6538 254.7457,258.1902 254.7229,257.7266 254.6548,257.2674 254.542,256.8172 254.3857,256.3801 254.1872,255.9605 253.9486,255.5624 253.6721,255.1895 253.3603,254.8456 253.0164,254.5339 252.6436,254.2574 252.2454,254.0187 251.8258,253.8203 251.3888,253.6639 250.9385,253.5511 250.4794,253.483 250.0157,253.4602"/>
  </g>
</svg>
