<?xml version="1.0" encoding="utf-8" ?>
<svg xmlns="http://www.w3.org/2000/svg" xmlns:cc="http://creativecommons.org/ns" xmlns:dc="http://purl.org/dc/elements/1.1/" xmlns:ev="http://www.w3.org/2001/xml-events" xmlns:inkscape="http://www.inkscape.org/namespaces/inkscape" xmlns:rdf="http://www.w3.org/1999/02/22-rdf-syntax-ns" xmlns:sodipodi="http://sodipodi.sourceforge.net/DTD/sodipodi-0.dtd" xmlns:xlink="http://www.w3.org/1999/xlink" baseProfile="tiny" height="15.875cm" version="1.2" viewBox="0 0 432.0 600.0" width="11.43cm">
  <metadata>
    <rdf:RDF>
      <cc:Work>
        <dc:format>image/svg+xml</dc:format>
        <dc:source>vsk save -s 282 -c hex-grid/config/bubble-coasters-2.json /Users/tobin/src/fabian/plotting/fabian-plotting/hex-grid/sketch_hex_grid.py</dc:source>
        <dc:date>2023-11-11T11:30:24.041945</dc:date>
      </cc:Work>
    </rdf:RDF>
  </metadata>
  <defs/>
  <g fill="none" id="layer1" inkscape:groupmode="layer" inkscape:label="1" stroke="#000000" stroke-width="0.7559" style="display:inline">
    <polygon points="165.44,380.7314 164.9764,380.7542 164.5128,380.7314 164.0536,380.6633 163.6033,380.5505 163.1663,380.3941 162.7467,380.1957 162.3485,379.957 161.9757,379.6805 161.6318,379.3688 161.3201,379.0249 161.0435,378.652 160.8049,378.2539 160.6065,377.8343 160.4501,377.3972 160.3373,376.947 160.2692,376.4878 160.2464,376.0242 160.2692,375.5606 160.3373,375.1014 160.4501,374.6512 160.6065,374.2141 160.8049,373.7945 161.0435,373.3964 161.3201,373.0235 161.6318,372.6796 161.9757,372.3679 162.3485,372.0914 162.7467,371.8527 163.1663,371.6543 163.6033,371.4979 164.0536,371.3851 164.5128,371.317 164.9764,371.2942 165.44,371.317 165.8991,371.3851 166.3494,371.4979 166.7865,371.6543 167.2061,371.8527 167.6042,372.0914 167.977,372.3679 168.321,372.6796 168.6327,373.0235 168.9092,373.3964 169.1478,373.7945 169.3463,374.2141 169.5027,374.6512 169.6155,375.1014 169.6836,375.5606 169.7064,376.0242 169.6836,376.4878 169.6155,376.947 169.5027,377.3972 169.3463,377.8343 169.1478,378.2539 168.9092,378.652 168.6327,379.0249 168.321,379.3688 167.977,379.6805 167.6042,379.957 167.2061,380.1957 166.7865,380.3941 166.3494,380.5505 165.8991,380.6633"/>
    <polygon points="192.3607,363.3952 192.3835,362.9315 192.3607,362.4679 192.2926,362.0088 192.1798,361.5585 192.0235,361.1215 191.825,360.7018 191.5864,360.3037 191.3099,359.9309 190.9981,359.5869 190.6542,359.2752 190.2814,358.9987 189.8832,358.7601 189.4636,358.5616 189.0266,358.4052 188.5763,358.2924 188.1172,358.2243 187.6535,358.2016 187.1899,358.2243 186.7308,358.2924 186.2805,358.4052 185.8435,358.5616 185.4238,358.7601 185.0257,358.9987 184.6529,359.2752 184.3089,359.5869 183.9972,359.9309 183.7207,360.3037 183.4821,360.7018 183.2836,361.1215 183.1272,361.5585 183.0145,362.0088 182.9463,362.4679 182.9236,362.9315 182.9463,363.3952 183.0145,363.8543 183.1272,364.3046 183.2836,364.7416 183.4821,365.1612 183.7207,365.5594 183.9972,365.9322 184.3089,366.2761 184.6529,366.5879 185.0257,366.8644 185.4238,367.103 185.8435,367.3015 186.2805,367.4578 186.7308,367.5706 187.1899,367.6387 187.6535,367.6615 188.1172,367.6387 188.5763,367.5706 189.0266,367.4578 189.4636,367.3015 189.8832,367.103 190.2814,366.8644 190.6542,366.5879 190.9981,366.2761 191.3099,365.9322 191.5864,365.5594 191.825,365.1612 192.0235,364.7416 192.1798,364.3046 192.2926,363.8543"/>
    <polygon points="222.5921,361.0243 223.0423,360.9115 223.4794,360.7551 223.899,360.5567 224.2971,360.318 224.67,360.0415 225.0139,359.7298 225.3256,359.3859 225.6021,359.013 225.8408,358.6149 226.0392,358.1953 226.1956,357.7582 226.3084,357.308 226.3765,356.8488 226.3993,356.3852 226.3765,355.9216 226.3084,355.4624 226.1956,355.0122 226.0392,354.5751 225.8408,354.1555 225.6021,353.7574 225.3256,353.3845 225.0139,353.0406 224.67,352.7289 224.2971,352.4524 223.899,352.2137 223.4794,352.0153 223.0423,351.8589 222.5921,351.7461 222.1329,351.678 221.6693,351.6552 221.2057,351.678 220.7465,351.7461 220.2963,351.8589 219.8592,352.0153 219.4396,352.2137 219.0415,352.4524 218.6686,352.7289 218.3247,353.0406 218.013,353.3845 217.7365,353.7574 217.4978,354.1555 217.2994,354.5751 217.143,355.0122 217.0302,355.4624 216.9621,355.9216 216.9393,356.3852 216.9621,356.8488 217.0302,357.308 217.143,357.7582 217.2994,358.1953 217.4978,358.6149 217.7365,359.013 218.013,359.3859 218.3247,359.7298 218.6686,360.0415 219.0415,360.318 219.4396,360.5567 219.8592,360.7551 220.2963,360.9115 220.7465,361.0243 221.2057,361.0924 221.6693,361.1152 222.1329,361.0924"/>
    <polygon points="230.38,340.679 230.7782,340.9177 231.1978,341.1161 231.6348,341.2725 232.0851,341.3853 232.5443,341.4534 233.0079,341.4762 233.4715,341.4534 233.9306,341.3853 234.3809,341.2725 234.818,341.1161 235.2376,340.9177 235.6357,340.679 236.0085,340.4025 236.3525,340.0908 236.6642,339.7469 236.9407,339.374 237.1793,338.9759 237.3778,338.5563 237.5342,338.1192 237.647,337.669 237.7151,337.2098 237.7378,336.7462 237.7151,336.2826 237.647,335.8234 237.5342,335.3732 237.3778,334.9361 237.1793,334.5165 236.9407,334.1184 236.6642,333.7455 236.3525,333.4016 236.0085,333.0899 235.6357,332.8134 235.2376,332.5747 234.818,332.3763 234.3809,332.2199 233.9306,332.1071 233.4715,332.039 233.0079,332.0162 232.5443,332.039 232.0851,332.1071 231.6348,332.2199 231.1978,332.3763 230.7782,332.5747 230.38,332.8134 230.0072,333.0899 229.6633,333.4016 229.3516,333.7455 229.075,334.1184 228.8364,334.5165 228.6379,334.9361 228.4816,335.3732 228.3688,335.8234 228.3007,336.2826 228.2779,336.7462 228.3007,337.2098 228.3688,337.669 228.4816,338.1192 228.6379,338.5563 228.8364,338.9759 229.075,339.374 229.3516,339.7469 229.6633,340.0908 230.0072,340.4025"/>
    <polygon points="205.9608,348.0288 206.1592,347.6092 206.3979,347.211 206.6744,346.8382 206.9861,346.4943 207.33,346.1825 207.7029,345.906 208.101,345.6674 208.5206,345.4689 208.9577,345.3126 209.4079,345.1998 209.8671,345.1317 210.3307,345.1089 210.7943,345.1317 211.2535,345.1998 211.7037,345.3126 212.1408,345.4689 212.5604,345.6674 212.9585,345.906 213.3314,346.1825 213.6753,346.4943 213.987,346.8382 214.2635,347.211 214.5022,347.6092 214.7006,348.0288 214.857,348.4658 214.9698,348.9161 215.0379,349.3752 215.0607,349.8389 215.0379,350.3025 214.9698,350.7616 214.857,351.2119 214.7006,351.6489 214.5022,352.0686 214.2635,352.4667 213.987,352.8395 213.6753,353.1835 213.3314,353.4952 212.9585,353.7717 212.5604,354.0103 212.1408,354.2088 211.7037,354.3652 211.2535,354.478 210.7943,354.5461 210.3307,354.5688 209.8671,354.5461 209.4079,354.478 208.9577,354.3652 208.5206,354.2088 208.101,354.0103 207.7029,353.7717 207.33,353.4952 206.9861,353.1835 206.6744,352.8395 206.3979,352.4667 206.1592,352.0686 205.9608,351.6489 205.8044,351.2119 205.6916,350.7616 205.6235,350.3025 205.6007,349.8389 205.6235,349.3752 205.6916,348.9161 205.8044,348.4658"/>
    <polygon points="178.7007,351.0696 179.1739,352.0699 179.5467,353.1119 179.8155,354.1853 179.9779,355.2799 180.0322,356.3852 179.9779,357.4905 179.8155,358.5851 179.5467,359.6585 179.1739,360.7005 178.7007,361.7008 178.1318,362.65 177.4726,363.5388 176.7295,364.3588 175.9095,365.1019 175.0207,365.7611 174.0715,366.33 173.0712,366.8031 172.0292,367.176 170.9558,367.4448 169.8612,367.6072 168.7559,367.6615 167.6506,367.6072 166.556,367.4448 165.4826,367.176 164.4406,366.8031 163.4403,366.33 162.4911,365.7611 161.6023,365.1019 160.7824,364.3588 160.0392,363.5388 159.38,362.65 158.8111,361.7008 158.338,360.7005 157.9652,359.6585 157.6963,358.5851 157.5339,357.4905 157.4796,356.3852 157.5339,355.2799 157.6963,354.1853 157.9652,353.1119 158.338,352.0699 158.8111,351.0696 159.38,350.1204 160.0392,349.2316 160.7824,348.4116 161.6023,347.6685 162.4911,347.0093 163.4403,346.4404 164.4406,345.9673 165.4826,345.5944 166.556,345.3256 167.6506,345.1632 168.7559,345.1089 169.8612,345.1632 170.9558,345.3256 172.0292,345.5944 173.0712,345.9673 174.0715,346.4404 175.0207,347.0093 175.9095,347.6685 176.7295,348.4116 177.4726,349.2316 178.1318,350.1204"/>
    <polygon points="180.6423,340.0192 181.0151,338.9773 181.4883,337.9769 182.0572,337.0278 182.7164,336.1389 183.4595,335.319 184.2795,334.5758 185.1683,333.9166 186.1175,333.3477 187.1178,332.8746 188.1597,332.5018 189.2332,332.2329 190.3278,332.0705 191.4331,332.0162 192.5383,332.0705 193.633,332.2329 194.7064,332.5018 195.7483,332.8746 196.7487,333.3477 197.6979,333.9166 198.5867,334.5758 199.4066,335.319 200.1498,336.1389 200.809,337.0278 201.3779,337.9769 201.851,338.9773 202.2238,340.0192 202.4927,341.0926 202.6551,342.1873 202.7094,343.2925 202.6551,344.3978 202.4927,345.4924 202.2238,346.5659 201.851,347.6078 201.3779,348.6081 200.809,349.5573 200.1498,350.4461 199.4066,351.2661 198.5867,352.0092 197.6979,352.6684 196.7487,353.2373 195.7483,353.7105 194.7064,354.0833 193.633,354.3522 192.5383,354.5145 191.4331,354.5688 190.3278,354.5145 189.2332,354.3522 188.1597,354.0833 187.1178,353.7105 186.1175,353.2373 185.1683,352.6684 184.2795,352.0092 183.4595,351.2661 182.7164,350.4461 182.0572,349.5573 181.4883,348.6081 181.0151,347.6078 180.6423,346.5659 180.3734,345.4924 180.2111,344.3978 180.1568,343.2925 180.2111,342.1873 180.3734,341.0926"/>
    <polygon points="173.0712,340.6178 172.0292,340.9906 170.9558,341.2595 169.8612,341.4219 168.7559,341.4762 167.6506,341.4219 166.556,341.2595 165.4826,340.9906 164.4406,340.6178 163.4403,340.1447 162.4911,339.5758 161.6023,338.9166 160.7824,338.1734 160.0392,337.3535 159.38,336.4646 158.8111,335.5155 158.338,334.5151 157.9652,333.4732 157.6963,332.3998 157.5339,331.3051 157.4796,330.1999 157.5339,329.0946 157.6963,328.0 157.9652,326.9265 158.338,325.8846 158.8111,324.8843 159.38,323.9351 160.0392,323.0463 160.7824,322.2263 161.6023,321.4832 162.4911,320.824 163.4403,320.2551 164.4406,319.7819 165.4826,319.4091 166.556,319.1402 167.6506,318.9779 168.7559,318.9236 169.8612,318.9779 170.9558,319.1402 172.0292,319.4091 173.0712,319.7819 174.0715,320.2551 175.0207,320.824 175.9095,321.4832 176.7295,322.2263 177.4726,323.0463 178.1318,323.9351 178.7007,324.8843 179.1739,325.8846 179.5467,326.9265 179.8155,328.0 179.9779,329.0946 180.0322,330.1999 179.9779,331.3051 179.8155,332.3998 179.5467,333.4732 179.1739,334.5151 178.7007,335.5155 178.1318,336.4646 177.4726,337.3535 176.7295,338.1734 175.9095,338.9166 175.0207,339.5758 174.0715,340.1447"/>
    <polygon points="151.8277,347.6625 151.4081,347.464 151.01,347.2254 150.6371,346.9489 150.2932,346.6371 149.9815,346.2932 149.705,345.9204 149.4663,345.5222 149.2679,345.1026 149.1115,344.6656 148.9987,344.2153 148.9306,343.7562 148.9078,343.2925 148.9306,342.8289 148.9987,342.3698 149.1115,341.9195 149.2679,341.4825 149.4663,341.0628 149.705,340.6647 149.9815,340.2919 150.2932,339.9479 150.6371,339.6362 151.01,339.3597 151.4081,339.1211 151.8277,338.9226 152.2648,338.7662 152.715,338.6534 153.1742,338.5853 153.6378,338.5626 154.1014,338.5853 154.5606,338.6534 155.0108,338.7662 155.4479,338.9226 155.8675,339.1211 156.2656,339.3597 156.6385,339.6362 156.9824,339.9479 157.2941,340.2919 157.5706,340.6647 157.8093,341.0628 158.0077,341.4825 158.1641,341.9195 158.2769,342.3698 158.345,342.8289 158.3678,343.2925 158.345,343.7562 158.2769,344.2153 158.1641,344.6656 158.0077,345.1026 157.8093,345.5222 157.5706,345.9204 157.2941,346.2932 156.9824,346.6371 156.6385,346.9489 156.2656,347.2254 155.8675,347.464 155.4479,347.6625 155.0108,347.8188 154.5606,347.9316 154.1014,347.9997 153.6378,348.0225 153.1742,347.9997 152.715,347.9316 152.2648,347.8188"/>
    <polygon points="148.9987,318.03 148.9306,317.5708 148.9078,317.1072 148.9306,316.6436 148.9987,316.1844 149.1115,315.7342 149.2679,315.2971 149.4663,314.8775 149.705,314.4794 149.9815,314.1065 150.2932,313.7626 150.6371,313.4509 151.01,313.1744 151.4081,312.9357 151.8277,312.7373 152.2648,312.5809 152.715,312.4681 153.1742,312.4 153.6378,312.3772 154.1014,312.4 154.5606,312.4681 155.0108,312.5809 155.4479,312.7373 155.8675,312.9357 156.2656,313.1744 156.6385,313.4509 156.9824,313.7626 157.2941,314.1065 157.5706,314.4794 157.8093,314.8775 158.0077,315.2971 158.1641,315.7342 158.2769,316.1844 158.345,316.6436 158.3678,317.1072 158.345,317.5708 158.2769,318.03 158.1641,318.4802 158.0077,318.9173 157.8093,319.3369 157.5706,319.735 157.2941,320.1079 156.9824,320.4518 156.6385,320.7635 156.2656,321.04 155.8675,321.2787 155.4479,321.4771 155.0108,321.6335 154.5606,321.7463 154.1014,321.8144 153.6378,321.8372 153.1742,321.8144 152.715,321.7463 152.2648,321.6335 151.8277,321.4771 151.4081,321.2787 151.01,321.04 150.6371,320.7635 150.2932,320.4518 149.9815,320.1079 149.705,319.735 149.4663,319.3369 149.2679,318.9173 149.1115,318.4802"/>
    <polygon points="157.2941,287.9212 156.9824,287.5773 156.6385,287.2655 156.2656,286.989 155.8675,286.7504 155.4479,286.5519 155.0108,286.3956 154.5606,286.2828 154.1014,286.2147 153.6378,286.1919 153.1742,286.2147 152.715,286.2828 152.2648,286.3956 151.8277,286.5519 151.4081,286.7504 151.01,286.989 150.6371,287.2655 150.2932,287.5773 149.9815,287.9212 149.705,288.294 149.4663,288.6922 149.2679,289.1118 149.1115,289.5488 148.9987,289.9991 148.9306,290.4582 148.9078,290.9219 148.9306,291.3855 148.9987,291.8446 149.1115,292.2949 149.2679,292.7319 149.4663,293.1516 149.705,293.5497 149.9815,293.9225 150.2932,294.2665 150.6371,294.5782 151.01,294.8547 151.4081,295.0933 151.8277,295.2918 152.2648,295.4482 152.715,295.561 153.1742,295.6291 153.6378,295.6518 154.1014,295.6291 154.5606,295.561 155.0108,295.4482 155.4479,295.2918 155.8675,295.0933 156.2656,294.8547 156.6385,294.5782 156.9824,294.2665 157.2941,293.9225 157.5706,293.5497 157.8093,293.1516 158.0077,292.7319 158.1641,292.2949 158.2769,291.8446 158.345,291.3855 158.3678,290.9219 158.345,290.4582 158.2769,289.9991 158.1641,289.5488 158.0077,289.1118 157.8093,288.6922 157.5706,288.294"/>
    <polygon points="137.9293,282.5654 137.7729,283.0025 137.6601,283.4528 137.592,283.9119 137.5692,284.3755 137.592,284.8391 137.6601,285.2983 137.7729,285.7486 137.9293,286.1856 138.1277,286.6052 138.3664,287.0034 138.6429,287.3762 138.9546,287.7201 139.2985,288.0318 139.6714,288.3084 140.0695,288.547 140.4891,288.7455 140.9262,288.9018 141.3764,289.0146 141.8356,289.0827 142.2992,289.1055 142.7628,289.0827 143.222,289.0146 143.6723,288.9018 144.1093,288.7455 144.5289,288.547 144.927,288.3084 145.2999,288.0318 145.6438,287.7201 145.9555,287.3762 146.232,287.0034 146.4707,286.6052 146.6691,286.1856 146.8255,285.7486 146.9383,285.2983 147.0064,284.8391 147.0292,284.3755 147.0064,283.9119 146.9383,283.4528 146.8255,283.0025 146.6691,282.5654 146.4707,282.1458 146.232,281.7477 145.9555,281.3749 145.6438,281.0309 145.2999,280.7192 144.927,280.4427 144.5289,280.2041 144.1093,280.0056 143.6723,279.8492 143.222,279.7364 142.7628,279.6683 142.2992,279.6456 141.8356,279.6683 141.3764,279.7364 140.9262,279.8492 140.4891,280.0056 140.0695,280.2041 139.6714,280.4427 139.2985,280.7192 138.9546,281.0309 138.6429,281.3749 138.3664,281.7477 138.1277,282.1458"/>
    <polygon points="127.0278,280.457 127.3043,280.8299 127.616,281.1738 127.96,281.4855 128.3328,281.762 128.7309,282.0007 129.1505,282.1991 129.5876,282.3555 130.0379,282.4683 130.497,282.5364 130.9606,282.5592 131.4242,282.5364 131.8834,282.4683 132.3337,282.3555 132.7707,282.1991 133.1903,282.0007 133.5885,281.762 133.9613,281.4855 134.3052,281.1738 134.6169,280.8299 134.8935,280.457 135.1321,280.0589 135.3306,279.6393 135.4869,279.2022 135.5997,278.752 135.6678,278.2928 135.6906,277.8292 135.6678,277.3656 135.5997,276.9064 135.4869,276.4562 135.3306,276.0191 135.1321,275.5995 134.8935,275.2014 134.6169,274.8285 134.3052,274.4846 133.9613,274.1729 133.5885,273.8964 133.1903,273.6577 132.7707,273.4593 132.3337,273.3029 131.8834,273.1901 131.4242,273.122 130.9606,273.0992 130.497,273.122 130.0379,273.1901 129.5876,273.3029 129.1505,273.4593 128.7309,273.6577 128.3328,273.8964 127.96,274.1729 127.616,274.4846 127.3043,274.8285 127.0278,275.2014 126.7892,275.5995 126.5907,276.0191 126.4343,276.4562 126.3215,276.9064 126.2534,277.3656 126.2307,277.8292 126.2534,278.2928 126.3215,278.752 126.4343,279.2022 126.5907,279.6393 126.7892,280.0589"/>
    <polygon points="124.3292,283.9119 124.2611,283.4528 124.1483,283.0025 123.992,282.5654 123.7935,282.1458 123.5549,281.7477 123.2784,281.3749 122.9666,281.0309 122.6227,280.7192 122.2499,280.4427 121.8517,280.2041 121.4321,280.0056 120.9951,279.8492 120.5448,279.7364 120.0857,279.6683 119.622,279.6456 119.1584,279.6683 118.6993,279.7364 118.249,279.8492 117.812,280.0056 117.3924,280.2041 116.9942,280.4427 116.6214,280.7192 116.2775,281.0309 115.9657,281.3749 115.6892,281.7477 115.4506,282.1458 115.2521,282.5654 115.0957,283.0025 114.983,283.4528 114.9149,283.9119 114.8921,284.3755 114.9149,284.8391 114.983,285.2983 115.0957,285.7486 115.2521,286.1856 115.4506,286.6052 115.6892,287.0034 115.9657,287.3762 116.2775,287.7201 116.6214,288.0318 116.9942,288.3084 117.3924,288.547 117.812,288.7455 118.249,288.9018 118.6993,289.0146 119.1584,289.0827 119.622,289.1055 120.0857,289.0827 120.5448,289.0146 120.9951,288.9018 121.4321,288.7455 121.8517,288.547 122.2499,288.3084 122.6227,288.0318 122.9666,287.7201 123.2784,287.3762 123.5549,287.0034 123.7935,286.6052 123.992,286.1856 124.1483,285.7486 124.2611,285.2983 124.3292,284.8391 124.352,284.3755"/>
    <polygon points="120.9951,266.7566 120.5448,266.6438 120.0857,266.5757 119.622,266.5529 119.1584,266.5757 118.6993,266.6438 118.249,266.7566 117.812,266.9129 117.3924,267.1114 116.9942,267.35 116.6214,267.6265 116.2775,267.9383 115.9657,268.2822 115.6892,268.655 115.4506,269.0532 115.2521,269.4728 115.0957,269.9098 114.983,270.3601 114.9149,270.8192 114.8921,271.2829 114.9149,271.7465 114.983,272.2056 115.0957,272.6559 115.2521,273.0929 115.4506,273.5126 115.6892,273.9107 115.9657,274.2835 116.2775,274.6275 116.6214,274.9392 116.9942,275.2157 117.3924,275.4543 117.812,275.6528 118.249,275.8092 118.6993,275.9219 119.1584,275.9901 119.622,276.0128 120.0857,275.9901 120.5448,275.9219 120.9951,275.8092 121.4321,275.6528 121.8517,275.4543 122.2499,275.2157 122.6227,274.9392 122.9666,274.6275 123.2784,274.2835 123.5549,273.9107 123.7935,273.5126 123.992,273.0929 124.1483,272.6559 124.2611,272.2056 124.3292,271.7465 124.352,271.2829 124.3292,270.8192 124.2611,270.3601 124.1483,269.9098 123.992,269.4728 123.7935,269.0532 123.5549,268.655 123.2784,268.2822 122.9666,267.9383 122.6227,267.6265 122.2499,267.35 121.8517,267.1114 121.4321,266.9129"/>
    <polygon points="135.5997,252.5666 135.6678,252.1075 135.6906,251.6439 135.6678,251.1802 135.5997,250.7211 135.4869,250.2708 135.3306,249.8338 135.1321,249.4142 134.8935,249.016 134.6169,248.6432 134.3052,248.2993 133.9613,247.9875 133.5885,247.711 133.1903,247.4724 132.7707,247.2739 132.3337,247.1176 131.8834,247.0048 131.4242,246.9367 130.9606,246.9139 130.497,246.9367 130.0379,247.0048 129.5876,247.1176 129.1505,247.2739 128.7309,247.4724 128.3328,247.711 127.96,247.9875 127.616,248.2993 127.3043,248.6432 127.0278,249.016 126.7892,249.4142 126.5907,249.8338 126.4343,250.2708 126.3215,250.7211 126.2534,251.1802 126.2307,251.6439 126.2534,252.1075 126.3215,252.5666 126.4343,253.0169 126.5907,253.4539 126.7892,253.8736 127.0278,254.2717 127.3043,254.6445 127.616,254.9885 127.96,255.3002 128.3328,255.5767 128.7309,255.8153 129.1505,256.0138 129.5876,256.1702 130.0379,256.2829 130.497,256.3511 130.9606,256.3738 131.4242,256.3511 131.8834,256.2829 132.3337,256.1702 132.7707,256.0138 133.1903,255.8153 133.5885,255.5767 133.9613,255.3002 134.3052,254.9885 134.6169,254.6445 134.8935,254.2717 135.1321,253.8736 135.3306,253.4539 135.4869,253.0169"/>
    <polygon points="141.8356,240.3903 141.3764,240.4584 140.9262,240.5712 140.4891,240.7276 140.0695,240.9261 139.6714,241.1647 139.2985,241.4412 138.9546,241.7529 138.6429,242.0969 138.3664,242.4697 138.1277,242.8678 137.9293,243.2874 137.7729,243.7245 137.6601,244.1748 137.592,244.6339 137.5692,245.0975 137.592,245.5611 137.6601,246.0203 137.7729,246.4706 137.9293,246.9076 138.1277,247.3272 138.3664,247.7254 138.6429,248.0982 138.9546,248.4421 139.2985,248.7538 139.6714,249.0304 140.0695,249.269 140.4891,249.4675 140.9262,249.6238 141.3764,249.7366 141.8356,249.8047 142.2992,249.8275 142.7628,249.8047 143.222,249.7366 143.6723,249.6238 144.1093,249.4675 144.5289,249.269 144.927,249.0304 145.2999,248.7538 145.6438,248.4421 145.9555,248.0982 146.232,247.7254 146.4707,247.3272 146.6691,246.9076 146.8255,246.4706 146.9383,246.0203 147.0064,245.5611 147.0292,245.0975 147.0064,244.6339 146.9383,244.1748 146.8255,243.7245 146.6691,243.2874 146.4707,242.8678 146.232,242.4697 145.9555,242.0969 145.6438,241.7529 145.2999,241.4412 144.927,241.1647 144.5289,240.9261 144.1093,240.7276 143.6723,240.5712 143.222,240.4584 142.7628,240.3903 142.2992,240.3676"/>
    <polygon points="156.0236,259.4209 155.4546,258.4717 154.7954,257.5829 154.0523,256.763 153.2324,256.0198 152.3435,255.3606 151.3944,254.7917 150.394,254.3186 149.3521,253.9458 148.2786,253.6769 147.184,253.5145 146.0787,253.4602 144.9735,253.5145 143.8788,253.6769 142.8054,253.9458 141.7635,254.3186 140.7631,254.7917 139.814,255.3606 138.9251,256.0198 138.1052,256.763 137.362,257.5829 136.7028,258.4717 136.1339,259.4209 135.6608,260.4213 135.288,261.4632 135.0191,262.5366 134.8567,263.6313 134.8024,264.7365 134.8567,265.8418 135.0191,266.9364 135.288,268.0099 135.6608,269.0518 136.1339,270.0521 136.7028,271.0013 137.362,271.8901 138.1052,272.7101 138.9251,273.4532 139.814,274.1124 140.7631,274.6813 141.7635,275.1545 142.8054,275.5273 143.8788,275.7962 144.9735,275.9585 146.0787,276.0128 147.184,275.9585 148.2786,275.7962 149.3521,275.5273 150.394,275.1545 151.3944,274.6813 152.3435,274.1124 153.2324,273.4532 154.0523,272.7101 154.7954,271.8901 155.4546,271.0013 156.0236,270.0521 156.4967,269.0518 156.8695,268.0099 157.1384,266.9364 157.3007,265.8418 157.355,264.7365 157.3007,263.6313 157.1384,262.5366 156.8695,261.4632 156.4967,260.4213"/>
    <polygon points="158.338,273.5139 157.9652,274.5559 157.6963,275.6293 157.5339,276.7239 157.4796,277.8292 157.5339,278.9345 157.6963,280.0291 157.9652,281.1025 158.338,282.1445 158.8111,283.1448 159.38,284.094 160.0392,284.9828 160.7824,285.8027 161.6023,286.5459 162.4911,287.2051 163.4403,287.774 164.4406,288.2471 165.4826,288.6199 166.556,288.8888 167.6506,289.0512 168.7559,289.1055 169.8612,289.0512 170.9558,288.8888 172.0292,288.6199 173.0712,288.2471 174.0715,287.774 175.0207,287.2051 175.9095,286.5459 176.7295,285.8027 177.4726,284.9828 178.1318,284.094 178.7007,283.1448 179.1739,282.1445 179.5467,281.1025 179.8155,280.0291 179.9779,278.9345 180.0322,277.8292 179.9779,276.7239 179.8155,275.6293 179.5467,274.5559 179.1739,273.5139 178.7007,272.5136 178.1318,271.5644 177.4726,270.6756 176.7295,269.8556 175.9095,269.1125 175.0207,268.4533 174.0715,267.8844 173.0712,267.4112 172.0292,267.0384 170.9558,266.7696 169.8612,266.6072 168.7559,266.5529 167.6506,266.6072 166.556,266.7696 165.4826,267.0384 164.4406,267.4112 163.4403,267.8844 162.4911,268.4533 161.6023,269.1125 160.7824,269.8556 160.0392,270.6756 159.38,271.5644 158.8111,272.5136"/>
    <polygon points="166.3494,240.5712 166.7865,240.7276 167.2061,240.9261 167.6042,241.1647 167.977,241.4412 168.321,241.7529 168.6327,242.0969 168.9092,242.4697 169.1478,242.8678 169.3463,243.2874 169.5027,243.7245 169.6155,244.1748 169.6836,244.6339 169.7064,245.0975 169.6836,245.5611 169.6155,246.0203 169.5027,246.4706 169.3463,246.9076 169.1478,247.3272 168.9092,247.7254 168.6327,248.0982 168.321,248.4421 167.977,248.7538 167.6042,249.0304 167.2061,249.269 166.7865,249.4675 166.3494,249.6238 165.8991,249.7366 165.44,249.8047 164.9764,249.8275 164.5128,249.8047 164.0536,249.7366 163.6033,249.6238 163.1663,249.4675 162.7467,249.269 162.3485,249.0304 161.9757,248.7538 161.6318,248.4421 161.3201,248.0982 161.0435,247.7254 160.8049,247.3272 160.6065,246.9076 160.4501,246.4706 160.3373,246.0203 160.2692,245.5611 160.2464,245.0975 160.2692,244.6339 160.3373,244.1748 160.4501,243.7245 160.6065,243.2874 160.8049,242.8678 161.0435,242.4697 161.3201,242.0969 161.6318,241.7529 161.9757,241.4412 162.3485,241.1647 162.7467,240.9261 163.1663,240.7276 163.6033,240.5712 164.0536,240.4584 164.5128,240.3903 164.9764,240.3676 165.44,240.3903 165.8991,240.4584"/>
    <polygon points="171.6759,213.2886 171.7887,213.7389 171.945,214.1759 172.1435,214.5956 172.3821,214.9937 172.6586,215.3665 172.9704,215.7105 173.3143,216.0222 173.6871,216.2987 174.0853,216.5373 174.5049,216.7358 174.9419,216.8922 175.3922,217.0049 175.8513,217.0731 176.315,217.0958 176.7786,217.0731 177.2377,217.0049 177.688,216.8922 178.125,216.7358 178.5447,216.5373 178.9428,216.2987 179.3156,216.0222 179.6596,215.7105 179.9713,215.3665 180.2478,214.9937 180.4864,214.5956 180.6849,214.1759 180.8413,213.7389 180.954,213.2886 181.0222,212.8295 181.0449,212.3659 181.0222,211.9022 180.954,211.4431 180.8413,210.9928 180.6849,210.5558 180.4864,210.1362 180.2478,209.738 179.9713,209.3652 179.6596,209.0213 179.3156,208.7095 178.9428,208.433 178.5447,208.1944 178.125,207.9959 177.688,207.8396 177.2377,207.7268 176.7786,207.6587 176.315,207.6359 175.8513,207.6587 175.3922,207.7268 174.9419,207.8396 174.5049,207.9959 174.0853,208.1944 173.6871,208.433 173.3143,208.7095 172.9704,209.0213 172.6586,209.3652 172.3821,209.738 172.1435,210.1362 171.945,210.5558 171.7887,210.9928 171.6759,211.4431 171.6078,211.9022 171.585,212.3659 171.6078,212.8295"/>
    <polygon points="172.6586,202.2739 172.9704,202.6178 173.3143,202.9295 173.6871,203.206 174.0853,203.4447 174.5049,203.6431 174.9419,203.7995 175.3922,203.9123 175.8513,203.9804 176.315,204.0032 176.7786,203.9804 177.2377,203.9123 177.688,203.7995 178.125,203.6431 178.5447,203.4447 178.9428,203.206 179.3156,202.9295 179.6596,202.6178 179.9713,202.2739 180.2478,201.901 180.4864,201.5029 180.6849,201.0833 180.8413,200.6462 180.954,200.196 181.0222,199.7368 181.0449,199.2732 181.0222,198.8096 180.954,198.3504 180.8413,197.9002 180.6849,197.4631 180.4864,197.0435 180.2478,196.6454 179.9713,196.2725 179.6596,195.9286 179.3156,195.6169 178.9428,195.3404 178.5447,195.1017 178.125,194.9033 177.688,194.7469 177.2377,194.6341 176.7786,194.566 176.315,194.5432 175.8513,194.566 175.3922,194.6341 174.9419,194.7469 174.5049,194.9033 174.0853,195.1017 173.6871,195.3404 173.3143,195.6169 172.9704,195.9286 172.6586,196.2725 172.3821,196.6454 172.1435,197.0435 171.945,197.4631 171.7887,197.9002 171.6759,198.3504 171.6078,198.8096 171.585,199.2732 171.6078,199.7368 171.6759,200.196 171.7887,200.6462 171.945,201.0833 172.1435,201.5029 172.3821,201.901"/>
    <polygon points="174.9419,190.7068 175.3922,190.8196 175.8513,190.8877 176.315,190.9105 176.7786,190.8877 177.2377,190.8196 177.688,190.7068 178.125,190.5504 178.5447,190.352 178.9428,190.1134 179.3156,189.8368 179.6596,189.5251 179.9713,189.1812 180.2478,188.8084 180.4864,188.4102 180.6849,187.9906 180.8413,187.5536 180.954,187.1033 181.0222,186.6441 181.0449,186.1805 181.0222,185.7169 180.954,185.2578 180.8413,184.8075 180.6849,184.3704 180.4864,183.9508 180.2478,183.5527 179.9713,183.1799 179.6596,182.8359 179.3156,182.5242 178.9428,182.2477 178.5447,182.0091 178.125,181.8106 177.688,181.6542 177.2377,181.5414 176.7786,181.4733 176.315,181.4506 175.8513,181.4733 175.3922,181.5414 174.9419,181.6542 174.5049,181.8106 174.0853,182.0091 173.6871,182.2477 173.3143,182.5242 172.9704,182.8359 172.6586,183.1799 172.3821,183.5527 172.1435,183.9508 171.945,184.3704 171.7887,184.8075 171.6759,185.2578 171.6078,185.7169 171.585,186.1805 171.6078,186.6441 171.6759,187.1033 171.7887,187.5536 171.945,187.9906 172.1435,188.4102 172.3821,188.8084 172.6586,189.1812 172.9704,189.5251 173.3143,189.8368 173.6871,190.1134 174.0853,190.352 174.5049,190.5504"/>
    <polygon points="179.6596,222.1139 179.9713,222.4579 180.2478,222.8307 180.4864,223.2288 180.6849,223.6484 180.8413,224.0855 180.954,224.5358 181.0222,224.9949 181.0449,225.4585 181.0222,225.9221 180.954,226.3813 180.8413,226.8316 180.6849,227.2686 180.4864,227.6882 180.2478,228.0864 179.9713,228.4592 179.6596,228.8031 179.3156,229.1148 178.9428,229.3914 178.5447,229.63 178.125,229.8285 177.688,229.9848 177.2377,230.0976 176.7786,230.1657 176.315,230.1885 175.8513,230.1657 175.3922,230.0976 174.9419,229.9848 174.5049,229.8285 174.0853,229.63 173.6871,229.3914 173.3143,229.1148 172.9704,228.8031 172.6586,228.4592 172.3821,228.0864 172.1435,227.6882 171.945,227.2686 171.7887,226.8316 171.6759,226.3813 171.6078,225.9221 171.585,225.4585 171.6078,224.9949 171.6759,224.5358 171.7887,224.0855 171.945,223.6484 172.1435,223.2288 172.3821,222.8307 172.6586,222.4579 172.9704,222.1139 173.3143,221.8022 173.6871,221.5257 174.0853,221.2871 174.5049,221.0886 174.9419,220.9322 175.3922,220.8194 175.8513,220.7513 176.315,220.7286 176.7786,220.7513 177.2377,220.8194 177.688,220.9322 178.125,221.0886 178.5447,221.2871 178.9428,221.5257 179.3156,221.8022"/>
    <polygon points="178.5447,234.3797 178.9428,234.6184 179.3156,234.8949 179.6596,235.2066 179.9713,235.5505 180.2478,235.9234 180.4864,236.3215 180.6849,236.7411 180.8413,237.1782 180.954,237.6284 181.0222,238.0876 181.0449,238.5512 181.0222,239.0148 180.954,239.474 180.8413,239.9242 180.6849,240.3613 180.4864,240.7809 180.2478,241.179 179.9713,241.5519 179.6596,241.8958 179.3156,242.2075 178.9428,242.484 178.5447,242.7227 178.125,242.9211 177.688,243.0775 177.2377,243.1903 176.7786,243.2584 176.315,243.2812 175.8513,243.2584 175.3922,243.1903 174.9419,243.0775 174.5049,242.9211 174.0853,242.7227 173.6871,242.484 173.3143,242.2075 172.9704,241.8958 172.6586,241.5519 172.3821,241.179 172.1435,240.7809 171.945,240.3613 171.7887,239.9242 171.6759,239.474 171.6078,239.0148 171.585,238.5512 171.6078,238.0876 171.6759,237.6284 171.7887,237.1782 171.945,236.7411 172.1435,236.3215 172.3821,235.9234 172.6586,235.5505 172.9704,235.2066 173.3143,234.8949 173.6871,234.6184 174.0853,234.3797 174.5049,234.1813 174.9419,234.0249 175.3922,233.9121 175.8513,233.844 176.315,233.8212 176.7786,233.844 177.2377,233.9121 177.688,234.0249 178.125,234.1813"/>
    <polygon points="189.8832,249.269 189.4636,249.4675 189.0266,249.6238 188.5763,249.7366 188.1172,249.8047 187.6535,249.8275 187.1899,249.8047 186.7308,249.7366 186.2805,249.6238 185.8435,249.4675 185.4238,249.269 185.0257,249.0304 184.6529,248.7538 184.3089,248.4421 183.9972,248.0982 183.7207,247.7254 183.4821,247.3272 183.2836,246.9076 183.1272,246.4706 183.0145,246.0203 182.9463,245.5611 182.9236,245.0975 182.9463,244.6339 183.0145,244.1748 183.1272,243.7245 183.2836,243.2874 183.4821,242.8678 183.7207,242.4697 183.9972,242.0969 184.3089,241.7529 184.6529,241.4412 185.0257,241.1647 185.4238,240.9261 185.8435,240.7276 186.2805,240.5712 186.7308,240.4584 187.1899,240.3903 187.6535,240.3676 188.1172,240.3903 188.5763,240.4584 189.0266,240.5712 189.4636,240.7276 189.8832,240.9261 190.2814,241.1647 190.6542,241.4412 190.9981,241.7529 191.3099,242.0969 191.5864,242.4697 191.825,242.8678 192.0235,243.2874 192.1798,243.7245 192.2926,244.1748 192.3607,244.6339 192.3835,245.0975 192.3607,245.5611 192.2926,246.0203 192.1798,246.4706 192.0235,246.9076 191.825,247.3272 191.5864,247.7254 191.3099,248.0982 190.9981,248.4421 190.6542,248.7538 190.2814,249.0304"/>
    <polygon points="197.6979,255.3606 198.5867,256.0198 199.4066,256.763 200.1498,257.5829 200.809,258.4717 201.3779,259.4209 201.851,260.4213 202.2238,261.4632 202.4927,262.5366 202.6551,263.6313 202.7094,264.7365 202.6551,265.8418 202.4927,266.9364 202.2238,268.0099 201.851,269.0518 201.3779,270.0521 200.809,271.0013 200.1498,271.8901 199.4066,272.7101 198.5867,273.4532 197.6979,274.1124 196.7487,274.6813 195.7483,275.1545 194.7064,275.5273 193.633,275.7962 192.5383,275.9585 191.4331,276.0128 190.3278,275.9585 189.2332,275.7962 188.1597,275.5273 187.1178,275.1545 186.1175,274.6813 185.1683,274.1124 184.2795,273.4532 183.4595,272.7101 182.7164,271.8901 182.0572,271.0013 181.4883,270.0521 181.0151,269.0518 180.6423,268.0099 180.3734,266.9364 180.2111,265.8418 180.1568,264.7365 180.2111,263.6313 180.3734,262.5366 180.6423,261.4632 181.0151,260.4213 181.4883,259.4209 182.0572,258.4717 182.7164,257.5829 183.4595,256.763 184.2795,256.0198 185.1683,255.3606 186.1175,254.7917 187.1178,254.3186 188.1597,253.9458 189.2332,253.6769 190.3278,253.5145 191.4331,253.4602 192.5383,253.5145 193.633,253.6769 194.7064,253.9458 195.7483,254.3186 196.7487,254.7917"/>
    <polygon points="206.1592,255.9605 206.3979,255.5624 206.6744,255.1895 206.9861,254.8456 207.33,254.5339 207.7029,254.2574 208.101,254.0187 208.5206,253.8203 208.9577,253.6639 209.4079,253.5511 209.8671,253.483 210.3307,253.4602 210.7943,253.483 211.2535,253.5511 211.7037,253.6639 212.1408,253.8203 212.5604,254.0187 212.9585,254.2574 213.3314,254.5339 213.6753,254.8456 213.987,255.1895 214.2635,255.5624 214.5022,255.9605 214.7006,256.3801 214.857,256.8172 214.9698,257.2674 215.0379,257.7266 215.0607,258.1902 215.0379,258.6538 214.9698,259.113 214.857,259.5632 214.7006,260.0003 214.5022,260.4199 214.2635,260.818 213.987,261.1909 213.6753,261.5348 213.3314,261.8465 212.9585,262.123 212.5604,262.3617 212.1408,262.5601 211.7037,262.7165 211.2535,262.8293 210.7943,262.8974 210.3307,262.9202 209.8671,262.8974 209.4079,262.8293 208.9577,262.7165 208.5206,262.5601 208.101,262.3617 207.7029,262.123 207.33,261.8465 206.9861,261.5348 206.6744,261.1909 206.3979,260.818 206.1592,260.4199 205.9608,260.0003 205.8044,259.5632 205.6916,259.113 205.6235,258.6538 205.6007,258.1902 205.6235,257.7266 205.6916,257.2674 205.8044,256.8172 205.9608,256.3801"/>
    <polygon points="212.9585,249.0304 213.3314,248.7538 213.6753,248.4421 213.987,248.0982 214.2635,247.7254 214.5022,247.3272 214.7006,246.9076 214.857,246.4706 214.9698,246.0203 215.0379,245.5611 215.0607,245.0975 215.0379,244.6339 214.9698,244.1748 214.857,243.7245 214.7006,243.2874 214.5022,242.8678 214.2635,242.4697 213.987,242.0969 213.6753,241.7529 213.3314,241.4412 212.9585,241.1647 212.5604,240.9261 212.1408,240.7276 211.7037,240.5712 211.2535,240.4584 210.7943,240.3903 210.3307,240.3676 209.8671,240.3903 209.4079,240.4584 208.9577,240.5712 208.5206,240.7276 208.101,240.9261 207.7029,241.1647 207.33,241.4412 206.9861,241.7529 206.6744,242.0969 206.3979,242.4697 206.1592,242.8678 205.9608,243.2874 205.8044,243.7245 205.6916,244.1748 205.6235,244.6339 205.6007,245.0975 205.6235,245.5611 205.6916,246.0203 205.8044,246.4706 205.9608,246.9076 206.1592,247.3272 206.3979,247.7254 206.6744,248.0982 206.9861,248.4421 207.33,248.7538 207.7029,249.0304 208.101,249.269 208.5206,249.4675 208.9577,249.6238 209.4079,249.7366 209.8671,249.8047 210.3307,249.8275 210.7943,249.8047 211.2535,249.7366 211.7037,249.6238 212.1408,249.4675 212.5604,249.269"/>
    <polygon points="226.0392,253.4539 226.1956,253.0169 226.3084,252.5666 226.3765,252.1075 226.3993,251.6439 226.3765,251.1802 226.3084,250.7211 226.1956,250.2708 226.0392,249.8338 225.8408,249.4142 225.6021,249.016 225.3256,248.6432 225.0139,248.2993 224.67,247.9875 224.2971,247.711 223.899,247.4724 223.4794,247.2739 223.0423,247.1176 222.5921,247.0048 222.1329,246.9367 221.6693,246.9139 221.2057,246.9367 220.7465,247.0048 220.2963,247.1176 219.8592,247.2739 219.4396,247.4724 219.0415,247.711 218.6686,247.9875 218.3247,248.2993 218.013,248.6432 217.7365,249.016 217.4978,249.4142 217.2994,249.8338 217.143,250.2708 217.0302,250.7211 216.9621,251.1802 216.9393,251.6439 216.9621,252.1075 217.0302,252.5666 217.143,253.0169 217.2994,253.4539 217.4978,253.8736 217.7365,254.2717 218.013,254.6445 218.3247,254.9885 218.6686,255.3002 219.0415,255.5767 219.4396,255.8153 219.8592,256.0138 220.2963,256.1702 220.7465,256.2829 221.2057,256.3511 221.6693,256.3738 222.1329,256.3511 222.5921,256.2829 223.0423,256.1702 223.4794,256.0138 223.899,255.8153 224.2971,255.5767 224.67,255.3002 225.0139,254.9885 225.3256,254.6445 225.6021,254.2717 225.8408,253.8736"/>
    <polygon points="233.4715,240.3903 233.9306,240.4584 234.3809,240.5712 234.818,240.7276 235.2376,240.9261 235.6357,241.1647 236.0085,241.4412 236.3525,241.7529 236.6642,242.0969 236.9407,242.4697 237.1793,242.8678 237.3778,243.2874 237.5342,243.7245 237.647,244.1748 237.7151,244.6339 237.7378,245.0975 237.7151,245.5611 237.647,246.0203 237.5342,246.4706 237.3778,246.9076 237.1793,247.3272 236.9407,247.7254 236.6642,248.0982 236.3525,248.4421 236.0085,248.7538 235.6357,249.0304 235.2376,249.269 234.818,249.4675 234.3809,249.6238 233.9306,249.7366 233.4715,249.8047 233.0079,249.8275 232.5443,249.8047 232.0851,249.7366 231.6348,249.6238 231.1978,249.4675 230.7782,249.269 230.38,249.0304 230.0072,248.7538 229.6633,248.4421 229.3516,248.0982 229.075,247.7254 228.8364,247.3272 228.6379,246.9076 228.4816,246.4706 228.3688,246.0203 228.3007,245.5611 228.2779,245.0975 228.3007,244.6339 228.3688,244.1748 228.4816,243.7245 228.6379,243.2874 228.8364,242.8678 229.075,242.4697 229.3516,242.0969 229.6633,241.7529 230.0072,241.4412 230.38,241.1647 230.7782,240.9261 231.1978,240.7276 231.6348,240.5712 232.0851,240.4584 232.5443,240.3903 233.0079,240.3676"/>
    <polygon points="250.0887,271.5644 250.7479,270.6756 251.491,269.8556 252.311,269.1125 253.1998,268.4533 254.149,267.8844 255.1493,267.4112 256.1912,267.0384 257.2647,266.7696 258.3593,266.6072 259.4646,266.5529 260.5698,266.6072 261.6645,266.7696 262.7379,267.0384 263.7798,267.4112 264.7802,267.8844 265.7293,268.4533 266.6182,269.1125 267.4381,269.8556 268.1813,270.6756 268.8405,271.5644 269.4094,272.5136 269.8825,273.5139 270.2553,274.5559 270.5242,275.6293 270.6866,276.7239 270.7409,277.8292 270.6866,278.9345 270.5242,280.0291 270.2553,281.1025 269.8825,282.1445 269.4094,283.1448 268.8405,284.094 268.1813,284.9828 267.4381,285.8027 266.6182,286.5459 265.7293,287.2051 264.7802,287.774 263.7798,288.2471 262.7379,288.6199 261.6645,288.8888 260.5698,289.0512 259.4646,289.1055 258.3593,289.0512 257.2647,288.8888 256.1912,288.6199 255.1493,288.2471 254.149,287.774 253.1998,287.2051 252.311,286.5459 251.491,285.8027 250.7479,284.9828 250.0887,284.094 249.5198,283.1448 249.0466,282.1445 248.6738,281.1025 248.4049,280.0291 248.2426,278.9345 248.1883,277.8292 248.2426,276.7239 248.4049,275.6293 248.6738,274.5559 249.0466,273.5139 249.5198,272.5136"/>
    <polygon points="255.2214,262.8974 254.7623,262.8293 254.312,262.7165 253.875,262.5601 253.4553,262.3617 253.0572,262.123 252.6844,261.8465 252.3404,261.5348 252.0287,261.1909 251.7522,260.818 251.5136,260.4199 251.3151,260.0003 251.1587,259.5632 251.046,259.113 250.9778,258.6538 250.9551,258.1902 250.9778,257.7266 251.046,257.2674 251.1587,256.8172 251.3151,256.3801 251.5136,255.9605 251.7522,255.5624 252.0287,255.1895 252.3404,254.8456 252.6844,254.5339 253.0572,254.2574 253.4553,254.0187 253.875,253.8203 254.312,253.6639 254.7623,253.5511 255.2214,253.483 255.685,253.4602 256.1487,253.483 256.6078,253.5511 257.0581,253.6639 257.4951,253.8203 257.9147,254.0187 258.3129,254.2574 258.6857,254.5339 259.0296,254.8456 259.3414,255.1895 259.6179,255.5624 259.8565,255.9605 260.055,256.3801 260.2113,256.8172 260.3241,257.2674 260.3922,257.7266 260.415,258.1902 260.3922,258.6538 260.3241,259.113 260.2113,259.5632 260.055,260.0003 259.8565,260.4199 259.6179,260.818 259.3414,261.1909 259.0296,261.5348 258.6857,261.8465 258.3129,262.123 257.9147,262.3617 257.4951,262.5601 257.0581,262.7165 256.6078,262.8293 256.1487,262.8974 255.685,262.9202"/>
    <polygon points="265.2135,256.0138 264.7939,255.8153 264.3958,255.5767 264.023,255.3002 263.679,254.9885 263.3673,254.6445 263.0908,254.2717 262.8522,253.8736 262.6537,253.4539 262.4973,253.0169 262.3845,252.5666 262.3164,252.1075 262.2936,251.6439 262.3164,251.1802 262.3845,250.7211 262.4973,250.2708 262.6537,249.8338 262.8522,249.4142 263.0908,249.016 263.3673,248.6432 263.679,248.2993 264.023,247.9875 264.3958,247.711 264.7939,247.4724 265.2135,247.2739 265.6506,247.1176 266.1009,247.0048 266.56,246.9367 267.0236,246.9139 267.4872,246.9367 267.9464,247.0048 268.3967,247.1176 268.8337,247.2739 269.2533,247.4724 269.6515,247.711 270.0243,247.9875 270.3682,248.2993 270.6799,248.6432 270.9565,249.016 271.1951,249.4142 271.3935,249.8338 271.5499,250.2708 271.6627,250.7211 271.7308,251.1802 271.7536,251.6439 271.7308,252.1075 271.6627,252.5666 271.5499,253.0169 271.3935,253.4539 271.1951,253.8736 270.9565,254.2717 270.6799,254.6445 270.3682,254.9885 270.0243,255.3002 269.6515,255.5767 269.2533,255.8153 268.8337,256.0138 268.3967,256.1702 267.9464,256.2829 267.4872,256.3511 267.0236,256.3738 266.56,256.3511 266.1009,256.2829 265.6506,256.1702"/>
    <polygon points="275.0176,254.8456 274.7059,255.1895 274.4294,255.5624 274.1907,255.9605 273.9923,256.3801 273.8359,256.8172 273.7231,257.2674 273.655,257.7266 273.6322,258.1902 273.655,258.6538 273.7231,259.113 273.8359,259.5632 273.9923,260.0003 274.1907,260.4199 274.4294,260.818 274.7059,261.1909 275.0176,261.5348 275.3615,261.8465 275.7344,262.123 276.1325,262.3617 276.5521,262.5601 276.9892,262.7165 277.4394,262.8293 277.8986,262.8974 278.3622,262.9202 278.8258,262.8974 279.285,262.8293 279.7352,262.7165 280.1723,262.5601 280.5919,262.3617 280.99,262.123 281.3629,261.8465 281.7068,261.5348 282.0185,261.1909 282.295,260.818 282.5337,260.4199 282.7321,260.0003 282.8885,259.5632 283.0013,259.113 283.0694,258.6538 283.0922,258.1902 283.0694,257.7266 283.0013,257.2674 282.8885,256.8172 282.7321,256.3801 282.5337,255.9605 282.295,255.5624 282.0185,255.1895 281.7068,254.8456 281.3629,254.5339 280.99,254.2574 280.5919,254.0187 280.1723,253.8203 279.7352,253.6639 279.285,253.5511 278.8258,253.483 278.3622,253.4602 277.8986,253.483 277.4394,253.5511 276.9892,253.6639 276.5521,253.8203 276.1325,254.0187 275.7344,254.2574 275.3615,254.5339"/>
    <polygon points="276.9892,249.6238 277.4394,249.7366 277.8986,249.8047 278.3622,249.8275 278.8258,249.8047 279.285,249.7366 279.7352,249.6238 280.1723,249.4675 280.5919,249.269 280.99,249.0304 281.3629,248.7538 281.7068,248.4421 282.0185,248.0982 282.295,247.7254 282.5337,247.3272 282.7321,246.9076 282.8885,246.4706 283.0013,246.0203 283.0694,245.5611 283.0922,245.0975 283.0694,244.6339 283.0013,244.1748 282.8885,243.7245 282.7321,243.2874 282.5337,242.8678 282.295,242.4697 282.0185,242.0969 281.7068,241.7529 281.3629,241.4412 280.99,241.1647 280.5919,240.9261 280.1723,240.7276 279.7352,240.5712 279.285,240.4584 278.8258,240.3903 278.3622,240.3676 277.8986,240.3903 277.4394,240.4584 276.9892,240.5712 276.5521,240.7276 276.1325,240.9261 275.7344,241.1647 275.3615,241.4412 275.0176,241.7529 274.7059,242.0969 274.4294,242.4697 274.1907,242.8678 273.9923,243.2874 273.8359,243.7245 273.7231,244.1748 273.655,244.6339 273.6322,245.0975 273.655,245.5611 273.7231,246.0203 273.8359,246.4706 273.9923,246.9076 274.1907,247.3272 274.4294,247.7254 274.7059,248.0982 275.0176,248.4421 275.3615,248.7538 275.7344,249.0304 276.1325,249.269 276.5521,249.4675"/>
    <polygon points="278.8258,236.7121 279.285,236.6439 279.7352,236.5312 280.1723,236.3748 280.5919,236.1763 280.99,235.9377 281.3629,235.6612 281.7068,235.3495 282.0185,235.0055 282.295,234.6327 282.5337,234.2346 282.7321,233.8149 282.8885,233.3779 283.0013,232.9276 283.0694,232.4685 283.0922,232.0049 283.0694,231.5412 283.0013,231.0821 282.8885,230.6318 282.7321,230.1948 282.5337,229.7752 282.295,229.377 282.0185,229.0042 281.7068,228.6603 281.3629,228.3485 280.99,228.072 280.5919,227.8334 280.1723,227.6349 279.7352,227.4786 279.285,227.3658 278.8258,227.2977 278.3622,227.2749 277.8986,227.2977 277.4394,227.3658 276.9892,227.4786 276.5521,227.6349 276.1325,227.8334 275.7344,228.072 275.3615,228.3485 275.0176,228.6603 274.7059,229.0042 274.4294,229.377 274.1907,229.7752 273.9923,230.1948 273.8359,230.6318 273.7231,231.0821 273.655,231.5412 273.6322,232.0049 273.655,232.4685 273.7231,232.9276 273.8359,233.3779 273.9923,233.8149 274.1907,234.2346 274.4294,234.6327 274.7059,235.0055 275.0176,235.3495 275.3615,235.6612 275.7344,235.9377 276.1325,236.1763 276.5521,236.3748 276.9892,236.5312 277.4394,236.6439 277.8986,236.7121 278.3622,236.7348"/>
    <polygon points="291.5109,234.1813 291.0738,234.0249 290.6236,233.9121 290.1644,233.844 289.7008,233.8212 289.2372,233.844 288.778,233.9121 288.3277,234.0249 287.8907,234.1813 287.4711,234.3797 287.073,234.6184 286.7001,234.8949 286.3562,235.2066 286.0445,235.5505 285.768,235.9234 285.5293,236.3215 285.3309,236.7411 285.1745,237.1782 285.0617,237.6284 284.9936,238.0876 284.9708,238.5512 284.9936,239.0148 285.0617,239.474 285.1745,239.9242 285.3309,240.3613 285.5293,240.7809 285.768,241.179 286.0445,241.5519 286.3562,241.8958 286.7001,242.2075 287.073,242.484 287.4711,242.7227 287.8907,242.9211 288.3277,243.0775 288.778,243.1903 289.2372,243.2584 289.7008,243.2812 290.1644,243.2584 290.6236,243.1903 291.0738,243.0775 291.5109,242.9211 291.9305,242.7227 292.3286,242.484 292.7015,242.2075 293.0454,241.8958 293.3571,241.5519 293.6336,241.179 293.8723,240.7809 294.0707,240.3613 294.2271,239.9242 294.3399,239.474 294.408,239.0148 294.4308,238.5512 294.408,238.0876 294.3399,237.6284 294.2271,237.1782 294.0707,236.7411 293.8723,236.3215 293.6336,235.9234 293.3571,235.5505 293.0454,235.2066 292.7015,234.8949 292.3286,234.6184 291.9305,234.3797"/>
    <polygon points="285.5293,266.9662 285.3309,266.5466 285.1745,266.1096 285.0617,265.6593 284.9936,265.2001 284.9708,264.7365 284.9936,264.2729 285.0617,263.8138 285.1745,263.3635 285.3309,262.9264 285.5293,262.5068 285.768,262.1087 286.0445,261.7359 286.3562,261.3919 286.7001,261.0802 287.073,260.8037 287.4711,260.5651 287.8907,260.3666 288.3277,260.2102 288.778,260.0974 289.2372,260.0293 289.7008,260.0066 290.1644,260.0293 290.6236,260.0974 291.0738,260.2102 291.5109,260.3666 291.9305,260.5651 292.3286,260.8037 292.7015,261.0802 293.0454,261.3919 293.3571,261.7359 293.6336,262.1087 293.8723,262.5068 294.0707,262.9264 294.2271,263.3635 294.3399,263.8138 294.408,264.2729 294.4308,264.7365 294.408,265.2001 294.3399,265.6593 294.2271,266.1096 294.0707,266.5466 293.8723,266.9662 293.6336,267.3644 293.3571,267.7372 293.0454,268.0811 292.7015,268.3928 292.3286,268.6694 291.9305,268.908 291.5109,269.1065 291.0738,269.2628 290.6236,269.3756 290.1644,269.4437 289.7008,269.4665 289.2372,269.4437 288.778,269.3756 288.3277,269.2628 287.8907,269.1065 287.4711,268.908 287.073,268.6694 286.7001,268.3928 286.3562,268.0811 286.0445,267.7372 285.768,267.3644"/>
    <polygon points="301.503,279.6683 301.9621,279.7364 302.4124,279.8492 302.8495,280.0056 303.2691,280.2041 303.6672,280.4427 304.04,280.7192 304.384,281.0309 304.6957,281.3749 304.9722,281.7477 305.2108,282.1458 305.4093,282.5654 305.5657,283.0025 305.6785,283.4528 305.7466,283.9119 305.7693,284.3755 305.7466,284.8391 305.6785,285.2983 305.5657,285.7486 305.4093,286.1856 305.2108,286.6052 304.9722,287.0034 304.6957,287.3762 304.384,287.7201 304.04,288.0318 303.6672,288.3084 303.2691,288.547 302.8495,288.7455 302.4124,288.9018 301.9621,289.0146 301.503,289.0827 301.0394,289.1055 300.5758,289.0827 300.1166,289.0146 299.6663,288.9018 299.2293,288.7455 298.8097,288.547 298.4115,288.3084 298.0387,288.0318 297.6948,287.7201 297.3831,287.3762 297.1065,287.0034 296.8679,286.6052 296.6694,286.1856 296.5131,285.7486 296.4003,285.2983 296.3322,284.8391 296.3094,284.3755 296.3322,283.9119 296.4003,283.4528 296.5131,283.0025 296.6694,282.5654 296.8679,282.1458 297.1065,281.7477 297.3831,281.3749 297.6948,281.0309 298.0387,280.7192 298.4115,280.4427 298.8097,280.2041 299.2293,280.0056 299.6663,279.8492 300.1166,279.7364 300.5758,279.6683 301.0394,279.6456"/>
    <polygon points="297.6948,294.1236 298.0387,293.8119 298.4115,293.5354 298.8097,293.2967 299.2293,293.0983 299.6663,292.9419 300.1166,292.8291 300.5758,292.761 301.0394,292.7382 301.503,292.761 301.9621,292.8291 302.4124,292.9419 302.8495,293.0983 303.2691,293.2967 303.6672,293.5354 304.04,293.8119 304.384,294.1236 304.6957,294.4675 304.9722,294.8404 305.2108,295.2385 305.4093,295.6581 305.5657,296.0952 305.6785,296.5454 305.7466,297.0046 305.7693,297.4682 305.7466,297.9318 305.6785,298.391 305.5657,298.8412 305.4093,299.2783 305.2108,299.6979 304.9722,300.096 304.6957,300.4689 304.384,300.8128 304.04,301.1245 303.6672,301.401 303.2691,301.6397 302.8495,301.8381 302.4124,301.9945 301.9621,302.1073 301.503,302.1754 301.0394,302.1982 300.5758,302.1754 300.1166,302.1073 299.6663,301.9945 299.2293,301.8381 298.8097,301.6397 298.4115,301.401 298.0387,301.1245 297.6948,300.8128 297.3831,300.4689 297.1065,300.096 296.8679,299.6979 296.6694,299.2783 296.5131,298.8412 296.4003,298.391 296.3322,297.9318 296.3094,297.4682 296.3322,297.0046 296.4003,296.5454 296.5131,296.0952 296.6694,295.6581 296.8679,295.2385 297.1065,294.8404 297.3831,294.4675"/>
    <polygon points="314.188,308.3845 314.6076,308.186 315.0058,307.9474 315.3786,307.6708 315.7225,307.3591 316.0343,307.0152 316.3108,306.6424 316.5494,306.2442 316.7479,305.8246 316.9043,305.3876 317.017,304.9373 317.0851,304.4781 317.1079,304.0145 317.0851,303.5509 317.017,303.0918 316.9043,302.6415 316.7479,302.2044 316.5494,301.7848 316.3108,301.3867 316.0343,301.0139 315.7225,300.6699 315.3786,300.3582 315.0058,300.0817 314.6076,299.8431 314.188,299.6446 313.751,299.4882 313.3007,299.3754 312.8416,299.3073 312.378,299.2846 311.9143,299.3073 311.4552,299.3754 311.0049,299.4882 310.5679,299.6446 310.1483,299.8431 309.7501,300.0817 309.3773,300.3582 309.0334,300.6699 308.7216,301.0139 308.4451,301.3867 308.2065,301.7848 308.008,302.2044 307.8517,302.6415 307.7389,303.0918 307.6708,303.5509 307.648,304.0145 307.6708,304.4781 307.7389,304.9373 307.8517,305.3876 308.008,305.8246 308.2065,306.2442 308.4451,306.6424 308.7216,307.0152 309.0334,307.3591 309.3773,307.6708 309.7501,307.9474 310.1483,308.186 310.5679,308.3845 311.0049,308.5408 311.4552,308.6536 311.9143,308.7217 312.378,308.7445 312.8416,308.7217 313.3007,308.6536 313.751,308.5408"/>
    <polygon points="289.2953,299.6386 290.1153,298.8954 290.8584,298.0755 291.5176,297.1866 292.0865,296.2375 292.5597,295.2371 292.9325,294.1952 293.2014,293.1218 293.3637,292.0271 293.418,290.9219 293.3637,289.8166 293.2014,288.722 292.9325,287.6485 292.5597,286.6066 292.0865,285.6062 291.5176,284.6571 290.8584,283.7682 290.1153,282.9483 289.2953,282.2052 288.4065,281.546 287.4573,280.977 286.457,280.5039 285.4151,280.1311 284.3416,279.8622 283.247,279.6999 282.1417,279.6456 281.0365,279.6999 279.9418,279.8622 278.8684,280.1311 277.8265,280.5039 276.8261,280.977 275.877,281.546 274.9881,282.2052 274.1682,282.9483 273.425,283.7682 272.7658,284.6571 272.1969,285.6062 271.7238,286.6066 271.351,287.6485 271.0821,288.722 270.9197,289.8166 270.8654,290.9219 270.9197,292.0271 271.0821,293.1218 271.351,294.1952 271.7238,295.2371 272.1969,296.2375 272.7658,297.1866 273.425,298.0755 274.1682,298.8954 274.9881,299.6386 275.877,300.2978 276.8261,300.8667 277.8265,301.3398 278.8684,301.7126 279.9418,301.9815 281.0365,302.1439 282.1417,302.1982 283.247,302.1439 284.3416,301.9815 285.4151,301.7126 286.457,301.3398 287.4573,300.8667 288.4065,300.2978"/>
    <polygon points="275.0176,313.9055 275.3615,314.2172 275.7344,314.4937 276.1325,314.7323 276.5521,314.9308 276.9892,315.0872 277.4394,315.2 277.8986,315.2681 278.3622,315.2908 278.8258,315.2681 279.285,315.2 279.7352,315.0872 280.1723,314.9308 280.5919,314.7323 280.99,314.4937 281.3629,314.2172 281.7068,313.9055 282.0185,313.5615 282.295,313.1887 282.5337,312.7906 282.7321,312.3709 282.8885,311.9339 283.0013,311.4836 283.0694,311.0245 283.0922,310.5609 283.0694,310.0972 283.0013,309.6381 282.8885,309.1878 282.7321,308.7508 282.5337,308.3312 282.295,307.933 282.0185,307.5602 281.7068,307.2163 281.3629,306.9045 280.99,306.628 280.5919,306.3894 280.1723,306.1909 279.7352,306.0346 279.285,305.9218 278.8258,305.8537 278.3622,305.8309 277.8986,305.8537 277.4394,305.9218 276.9892,306.0346 276.5521,306.1909 276.1325,306.3894 275.7344,306.628 275.3615,306.9045 275.0176,307.2163 274.7059,307.5602 274.4294,307.933 274.1907,308.3312 273.9923,308.7508 273.8359,309.1878 273.7231,309.6381 273.655,310.0972 273.6322,310.5609 273.655,311.0245 273.7231,311.4836 273.8359,311.9339 273.9923,312.3709 274.1907,312.7906 274.4294,313.1887 274.7059,313.5615"/>
    <polygon points="259.0296,307.2163 259.3414,307.5602 259.6179,307.933 259.8565,308.3312 260.055,308.7508 260.2113,309.1878 260.3241,309.6381 260.3922,310.0972 260.415,310.5609 260.3922,311.0245 260.3241,311.4836 260.2113,311.9339 260.055,312.3709 259.8565,312.7906 259.6179,313.1887 259.3414,313.5615 259.0296,313.9055 258.6857,314.2172 258.3129,314.4937 257.9147,314.7323 257.4951,314.9308 257.0581,315.0872 256.6078,315.2 256.1487,315.2681 255.685,315.2908 255.2214,315.2681 254.7623,315.2 254.312,315.0872 253.875,314.9308 253.4553,314.7323 253.0572,314.4937 252.6844,314.2172 252.3404,313.9055 252.0287,313.5615 251.7522,313.1887 251.5136,312.7906 251.3151,312.3709 251.1587,311.9339 251.046,311.4836 250.9778,311.0245 250.9551,310.5609 250.9778,310.0972 251.046,309.6381 251.1587,309.1878 251.3151,308.7508 251.5136,308.3312 251.7522,307.933 252.0287,307.5602 252.3404,307.2163 252.6844,306.9045 253.0572,306.628 253.4553,306.3894 253.875,306.1909 254.312,306.0346 254.7623,305.9218 255.2214,305.8537 255.685,305.8309 256.1487,305.8537 256.6078,305.9218 257.0581,306.0346 257.4951,306.1909 257.9147,306.3894 258.3129,306.628 258.6857,306.9045"/>
    <polygon points="263.3673,314.1065 263.679,313.7626 264.023,313.4509 264.3958,313.1744 264.7939,312.9357 265.2135,312.7373 265.6506,312.5809 266.1009,312.4681 266.56,312.4 267.0236,312.3772 267.4872,312.4 267.9464,312.4681 268.3967,312.5809 268.8337,312.7373 269.2533,312.9357 269.6515,313.1744 270.0243,313.4509 270.3682,313.7626 270.6799,314.1065 270.9565,314.4794 271.1951,314.8775 271.3935,315.2971 271.5499,315.7342 271.6627,316.1844 271.7308,316.6436 271.7536,317.1072 271.7308,317.5708 271.6627,318.03 271.5499,318.4802 271.3935,318.9173 271.1951,319.3369 270.9565,319.735 270.6799,320.1079 270.3682,320.4518 270.0243,320.7635 269.6515,321.04 269.2533,321.2787 268.8337,321.4771 268.3967,321.6335 267.9464,321.7463 267.4872,321.8144 267.0236,321.8372 266.56,321.8144 266.1009,321.7463 265.6506,321.6335 265.2135,321.4771 264.7939,321.2787 264.3958,321.04 264.023,320.7635 263.679,320.4518 263.3673,320.1079 263.0908,319.735 262.8522,319.3369 262.6537,318.9173 262.4973,318.4802 262.3845,318.03 262.3164,317.5708 262.2936,317.1072 262.3164,316.6436 262.3845,316.1844 262.4973,315.7342 262.6537,315.2971 262.8522,314.8775 263.0908,314.4794"/>
    <polygon points="260.2113,325.0266 260.055,325.4636 259.8565,325.8832 259.6179,326.2814 259.3414,326.6542 259.0296,326.9981 258.6857,327.3098 258.3129,327.5864 257.9147,327.825 257.4951,328.0235 257.0581,328.1798 256.6078,328.2926 256.1487,328.3607 255.685,328.3835 255.2214,328.3607 254.7623,328.2926 254.312,328.1798 253.875,328.0235 253.4553,327.825 253.0572,327.5864 252.6844,327.3098 252.3404,326.9981 252.0287,326.6542 251.7522,326.2814 251.5136,325.8832 251.3151,325.4636 251.1587,325.0266 251.046,324.5763 250.9778,324.1172 250.9551,323.6535 250.9778,323.1899 251.046,322.7308 251.1587,322.2805 251.3151,321.8434 251.5136,321.4238 251.7522,321.0257 252.0287,320.6529 252.3404,320.3089 252.6844,319.9972 253.0572,319.7207 253.4553,319.4821 253.875,319.2836 254.312,319.1272 254.7623,319.0144 255.2214,318.9463 255.685,318.9236 256.1487,318.9463 256.6078,319.0144 257.0581,319.1272 257.4951,319.2836 257.9147,319.4821 258.3129,319.7207 258.6857,319.9972 259.0296,320.3089 259.3414,320.6529 259.6179,321.0257 259.8565,321.4238 260.055,321.8434 260.2113,322.2805 260.3241,322.7308 260.3922,323.1899 260.415,323.6535 260.3922,324.1172 260.3241,324.5763"/>
    <polygon points="247.847,319.3071 247.5782,320.3805 247.2054,321.4225 246.7322,322.4228 246.1633,323.372 245.5041,324.2608 244.761,325.0808 243.941,325.8239 243.0522,326.4831 242.103,327.052 241.1027,327.5251 240.0607,327.898 238.9873,328.1668 237.8927,328.3292 236.7874,328.3835 235.6821,328.3292 234.5875,328.1668 233.5141,327.898 232.4721,327.5251 231.4718,327.052 230.5226,326.4831 229.6338,325.8239 228.8138,325.0808 228.0707,324.2608 227.4115,323.372 226.8426,322.4228 226.3695,321.4225 225.9966,320.3805 225.7278,319.3071 225.5654,318.2125 225.5111,317.1072 225.5654,316.0019 225.7278,314.9073 225.9966,313.8339 226.3695,312.7919 226.8426,311.7916 227.4115,310.8424 228.0707,309.9536 228.8138,309.1336 229.6338,308.3905 230.5226,307.7313 231.4718,307.1624 232.4721,306.6892 233.5141,306.3164 234.5875,306.0476 235.6821,305.8852 236.7874,305.8309 237.8927,305.8852 238.9873,306.0476 240.0607,306.3164 241.1027,306.6892 242.103,307.1624 243.0522,307.7313 243.941,308.3905 244.761,309.1336 245.5041,309.9536 246.1633,310.8424 246.7322,311.7916 247.2054,312.7919 247.5782,313.8339 247.847,314.9073 248.0094,316.0019 248.0637,317.1072 248.0094,318.2125"/>
    <polygon points="234.5875,301.9815 233.5141,301.7126 232.4721,301.3398 231.4718,300.8667 230.5226,300.2978 229.6338,299.6386 228.8138,298.8954 228.0707,298.0755 227.4115,297.1866 226.8426,296.2375 226.3695,295.2371 225.9966,294.1952 225.7278,293.1218 225.5654,292.0271 225.5111,290.9219 225.5654,289.8166 225.7278,288.722 225.9966,287.6485 226.3695,286.6066 226.8426,285.6062 227.4115,284.6571 228.0707,283.7682 228.8138,282.9483 229.6338,282.2052 230.5226,281.546 231.4718,280.977 232.4721,280.5039 233.5141,280.1311 234.5875,279.8622 235.6821,279.6999 236.7874,279.6456 237.8927,279.6999 238.9873,279.8622 240.0607,280.1311 241.1027,280.5039 242.103,280.977 243.0522,281.546 243.941,282.2052 244.761,282.9483 245.5041,283.7682 246.1633,284.6571 246.7322,285.6062 247.2054,286.6066 247.5782,287.6485 247.847,288.722 248.0094,289.8166 248.0637,290.9219 248.0094,292.0271 247.847,293.1218 247.5782,294.1952 247.2054,295.2371 246.7322,296.2375 246.1633,297.1866 245.5041,298.0755 244.761,298.8954 243.941,299.6386 243.0522,300.2978 242.103,300.8667 241.1027,301.3398 240.0607,301.7126 238.9873,301.9815 237.8927,302.1439 236.7874,302.1982 235.6821,302.1439"/>
    <polygon points="221.5061,313.3401 220.4836,315.502 219.2542,317.5532 217.8296,319.474 216.2236,321.246 214.4516,322.852 212.5308,324.2766 210.4796,325.506 208.3177,326.5285 206.0661,327.3342 203.7463,327.9153 201.3807,328.2662 198.9921,328.3835 196.6035,328.2662 194.238,327.9153 191.9182,327.3342 189.6665,326.5285 187.5047,325.506 185.4534,324.2766 183.5326,322.852 181.7607,321.246 180.1547,319.474 178.7301,317.5532 177.5006,315.502 176.4781,313.3401 175.6725,311.0885 175.0914,308.7687 174.7405,306.4031 174.6232,304.0145 174.7405,301.626 175.0914,299.2604 175.6725,296.9406 176.4781,294.6889 177.5006,292.5271 178.7301,290.4759 180.1547,288.555 181.7607,286.7831 183.5326,285.1771 185.4534,283.7525 187.5047,282.523 189.6665,281.5005 191.9182,280.6949 194.238,280.1138 196.6035,279.7629 198.9921,279.6456 201.3807,279.7629 203.7463,280.1138 206.0661,280.6949 208.3177,281.5005 210.4796,282.523 212.5308,283.7525 214.4516,285.1771 216.2236,286.7831 217.8296,288.555 219.2542,290.4759 220.4836,292.5271 221.5061,294.6889 222.3118,296.9406 222.8929,299.2604 223.2438,301.626 223.3611,304.0145 223.2438,306.4031 222.8929,308.7687 222.3118,311.0885"/>
  </g>
</svg>
