<?xml version="1.0" encoding="utf-8" ?>
<svg xmlns="http://www.w3.org/2000/svg" xmlns:cc="http://creativecommons.org/ns" xmlns:dc="http://purl.org/dc/elements/1.1/" xmlns:ev="http://www.w3.org/2001/xml-events" xmlns:inkscape="http://www.inkscape.org/namespaces/inkscape" xmlns:rdf="http://www.w3.org/1999/02/22-rdf-syntax-ns" xmlns:sodipodi="http://sodipodi.sourceforge.net/DTD/sodipodi-0.dtd" xmlns:xlink="http://www.w3.org/1999/xlink" baseProfile="tiny" height="15.875cm" version="1.2" viewBox="0 0 432.0 600.0" width="11.43cm">
  <metadata>
    <rdf:RDF>
      <cc:Work>
        <dc:format>image/svg+xml</dc:format>
        <dc:source>vsk save -s 197 -c hex-grid/config/bubble-coasters-2.json /Users/tobin/src/fabian/plotting/fabian-plotting/hex-grid/sketch_hex_grid.py</dc:source>
        <dc:date>2023-11-04T10:32:59.933427</dc:date>
      </cc:Work>
    </rdf:RDF>
  </metadata>
  <defs/>
  <g fill="none" id="layer1" inkscape:groupmode="layer" inkscape:label="1" stroke="#000000" stroke-width="0.7559" style="display:inline">
    <polygon points="195.3358,192.4544 195.0593,192.0815 194.8207,191.6834 194.6222,191.2638 194.4658,190.8267 194.353,190.3765 194.2849,189.9173 194.2622,189.4537 194.2849,188.9901 194.353,188.5309 194.4658,188.0807 194.6222,187.6436 194.8207,187.224 195.0593,186.8259 195.3358,186.453 195.6475,186.1091 195.9915,185.7974 196.3643,185.5209 196.7624,185.2822 197.182,185.0838 197.6191,184.9274 198.0694,184.8146 198.5285,184.7465 198.9921,184.7237 199.4557,184.7465 199.9149,184.8146 200.3652,184.9274 200.8022,185.0838 201.2218,185.2822 201.62,185.5209 201.9928,185.7974 202.3367,186.1091 202.6484,186.453 202.925,186.8259 203.1636,187.224 203.3621,187.6436 203.5184,188.0807 203.6312,188.5309 203.6993,188.9901 203.7221,189.4537 203.6993,189.9173 203.6312,190.3765 203.5184,190.8267 203.3621,191.2638 203.1636,191.6834 202.925,192.0815 202.6484,192.4544 202.3367,192.7983 201.9928,193.11 201.62,193.3865 201.2218,193.6252 200.8022,193.8236 200.3652,193.98 199.9149,194.0928 199.4557,194.1609 198.9921,194.1837 198.5285,194.1609 198.0694,194.0928 197.6191,193.98 197.182,193.8236 196.7624,193.6252 196.3643,193.3865 195.9915,193.11 195.6475,192.7983"/>
    <polygon points="189.8832,191.8286 190.2814,192.0672 190.6542,192.3437 190.9981,192.6554 191.3099,192.9994 191.5864,193.3722 191.825,193.7703 192.0235,194.1899 192.1798,194.627 192.2926,195.0773 192.3607,195.5364 192.3835,196.0 192.3607,196.4636 192.2926,196.9228 192.1798,197.3731 192.0235,197.8101 191.825,198.2297 191.5864,198.6279 191.3099,199.0007 190.9981,199.3446 190.6542,199.6563 190.2814,199.9329 189.8832,200.1715 189.4636,200.3699 189.0266,200.5263 188.5763,200.6391 188.1172,200.7072 187.6535,200.73 187.1899,200.7072 186.7308,200.6391 186.2805,200.5263 185.8435,200.3699 185.4238,200.1715 185.0257,199.9329 184.6529,199.6563 184.3089,199.3446 183.9972,199.0007 183.7207,198.6279 183.4821,198.2297 183.2836,197.8101 183.1272,197.3731 183.0145,196.9228 182.9463,196.4636 182.9236,196.0 182.9463,195.5364 183.0145,195.0773 183.1272,194.627 183.2836,194.1899 183.4821,193.7703 183.7207,193.3722 183.9972,192.9994 184.3089,192.6554 184.6529,192.3437 185.0257,192.0672 185.4238,191.8286 185.8435,191.6301 186.2805,191.4737 186.7308,191.3609 187.1899,191.2928 187.6535,191.2701 188.1172,191.2928 188.5763,191.3609 189.0266,191.4737 189.4636,191.6301"/>
    <polygon points="178.1318,196.2816 178.7007,197.2307 179.1739,198.2311 179.5467,199.273 179.8155,200.3465 179.9779,201.4411 180.0322,202.5464 179.9779,203.6516 179.8155,204.7463 179.5467,205.8197 179.1739,206.8616 178.7007,207.862 178.1318,208.8111 177.4726,209.7 176.7295,210.5199 175.9095,211.2631 175.0207,211.9223 174.0715,212.4912 173.0712,212.9643 172.0292,213.3371 170.9558,213.606 169.8612,213.7684 168.7559,213.8227 167.6506,213.7684 166.556,213.606 165.4826,213.3371 164.4406,212.9643 163.4403,212.4912 162.4911,211.9223 161.6023,211.2631 160.7824,210.5199 160.0392,209.7 159.38,208.8111 158.8111,207.862 158.338,206.8616 157.9652,205.8197 157.6963,204.7463 157.5339,203.6516 157.4796,202.5464 157.5339,201.4411 157.6963,200.3465 157.9652,199.273 158.338,198.2311 158.8111,197.2307 159.38,196.2816 160.0392,195.3927 160.7824,194.5728 161.6023,193.8297 162.4911,193.1705 163.4403,192.6015 164.4406,192.1284 165.4826,191.7556 166.556,191.4867 167.6506,191.3243 168.7559,191.2701 169.8612,191.3243 170.9558,191.4867 172.0292,191.7556 173.0712,192.1284 174.0715,192.6015 175.0207,193.1705 175.9095,193.8297 176.7295,194.5728 177.4726,195.3927"/>
    <polygon points="157.2941,192.4544 156.9824,192.7983 156.6385,193.11 156.2656,193.3865 155.8675,193.6252 155.4479,193.8236 155.0108,193.98 154.5606,194.0928 154.1014,194.1609 153.6378,194.1837 153.1742,194.1609 152.715,194.0928 152.2648,193.98 151.8277,193.8236 151.4081,193.6252 151.01,193.3865 150.6371,193.11 150.2932,192.7983 149.9815,192.4544 149.705,192.0815 149.4663,191.6834 149.2679,191.2638 149.1115,190.8267 148.9987,190.3765 148.9306,189.9173 148.9078,189.4537 148.9306,188.9901 148.9987,188.5309 149.1115,188.0807 149.2679,187.6436 149.4663,187.224 149.705,186.8259 149.9815,186.453 150.2932,186.1091 150.6371,185.7974 151.01,185.5209 151.4081,185.2822 151.8277,185.0838 152.2648,184.9274 152.715,184.8146 153.1742,184.7465 153.6378,184.7237 154.1014,184.7465 154.5606,184.8146 155.0108,184.9274 155.4479,185.0838 155.8675,185.2822 156.2656,185.5209 156.6385,185.7974 156.9824,186.1091 157.2941,186.453 157.5706,186.8259 157.8093,187.224 158.0077,187.6436 158.1641,188.0807 158.2769,188.5309 158.345,188.9901 158.3678,189.4537 158.345,189.9173 158.2769,190.3765 158.1641,190.8267 158.0077,191.2638 157.8093,191.6834 157.5706,192.0815"/>
    <polygon points="141.8356,187.6146 141.3764,187.5464 140.9262,187.4337 140.4891,187.2773 140.0695,187.0788 139.6714,186.8402 139.2985,186.5637 138.9546,186.252 138.6429,185.908 138.3664,185.5352 138.1277,185.137 137.9293,184.7174 137.7729,184.2804 137.6601,183.8301 137.592,183.371 137.5692,182.9074 137.592,182.4437 137.6601,181.9846 137.7729,181.5343 137.9293,181.0973 138.1277,180.6777 138.3664,180.2795 138.6429,179.9067 138.9546,179.5628 139.2985,179.251 139.6714,178.9745 140.0695,178.7359 140.4891,178.5374 140.9262,178.3811 141.3764,178.2683 141.8356,178.2002 142.2992,178.1774 142.7628,178.2002 143.222,178.2683 143.6723,178.3811 144.1093,178.5374 144.5289,178.7359 144.927,178.9745 145.2999,179.251 145.6438,179.5628 145.9555,179.9067 146.232,180.2795 146.4707,180.6777 146.6691,181.0973 146.8255,181.5343 146.9383,181.9846 147.0064,182.4437 147.0292,182.9074 147.0064,183.371 146.9383,183.8301 146.8255,184.2804 146.6691,184.7174 146.4707,185.137 146.232,185.5352 145.9555,185.908 145.6438,186.252 145.2999,186.5637 144.927,186.8402 144.5289,187.0788 144.1093,187.2773 143.6723,187.4337 143.222,187.5464 142.7628,187.6146 142.2992,187.6373"/>
    <polygon points="133.5885,172.4282 133.1903,172.1896 132.7707,171.9911 132.3337,171.8347 131.8834,171.7219 131.4242,171.6538 130.9606,171.631 130.497,171.6538 130.0379,171.7219 129.5876,171.8347 129.1505,171.9911 128.7309,172.1896 128.3328,172.4282 127.96,172.7047 127.616,173.0164 127.3043,173.3604 127.0278,173.7332 126.7892,174.1313 126.5907,174.5509 126.4343,174.988 126.3215,175.4383 126.2534,175.8974 126.2307,176.361 126.2534,176.8246 126.3215,177.2838 126.4343,177.7341 126.5907,178.1711 126.7892,178.5907 127.0278,178.9889 127.3043,179.3617 127.616,179.7056 127.96,180.0173 128.3328,180.2939 128.7309,180.5325 129.1505,180.7309 129.5876,180.8873 130.0379,181.0001 130.497,181.0682 130.9606,181.091 131.4242,181.0682 131.8834,181.0001 132.3337,180.8873 132.7707,180.7309 133.1903,180.5325 133.5885,180.2939 133.9613,180.0173 134.3052,179.7056 134.6169,179.3617 134.8935,178.9889 135.1321,178.5907 135.3306,178.1711 135.4869,177.7341 135.5997,177.2838 135.6678,176.8246 135.6906,176.361 135.6678,175.8974 135.5997,175.4383 135.4869,174.988 135.3306,174.5509 135.1321,174.1313 134.8935,173.7332 134.6169,173.3604 134.3052,173.0164 133.9613,172.7047"/>
    <polygon points="122.6227,173.471 122.9666,173.1593 123.2784,172.8154 123.5549,172.4425 123.7935,172.0444 123.992,171.6248 124.1483,171.1877 124.2611,170.7375 124.3292,170.2783 124.352,169.8147 124.3292,169.3511 124.2611,168.8919 124.1483,168.4416 123.992,168.0046 123.7935,167.585 123.5549,167.1869 123.2784,166.814 122.9666,166.4701 122.6227,166.1584 122.2499,165.8819 121.8517,165.6432 121.4321,165.4448 120.9951,165.2884 120.5448,165.1756 120.0857,165.1075 119.622,165.0847 119.1584,165.1075 118.6993,165.1756 118.249,165.2884 117.812,165.4448 117.3924,165.6432 116.9942,165.8819 116.6214,166.1584 116.2775,166.4701 115.9657,166.814 115.6892,167.1869 115.4506,167.585 115.2521,168.0046 115.0957,168.4416 114.983,168.8919 114.9149,169.3511 114.8921,169.8147 114.9149,170.2783 114.983,170.7375 115.0957,171.1877 115.2521,171.6248 115.4506,172.0444 115.6892,172.4425 115.9657,172.8154 116.2775,173.1593 116.6214,173.471 116.9942,173.7475 117.3924,173.9862 117.812,174.1846 118.249,174.341 118.6993,174.4538 119.1584,174.5219 119.622,174.5447 120.0857,174.5219 120.5448,174.4538 120.9951,174.341 121.4321,174.1846 121.8517,173.9862 122.2499,173.7475"/>
    <polygon points="111.2841,185.7974 110.9113,185.5209 110.5132,185.2822 110.0935,185.0838 109.6565,184.9274 109.2062,184.8146 108.7471,184.7465 108.2835,184.7237 107.8198,184.7465 107.3607,184.8146 106.9104,184.9274 106.4734,185.0838 106.0538,185.2822 105.6556,185.5209 105.2828,185.7974 104.9389,186.1091 104.6271,186.453 104.3506,186.8259 104.112,187.224 103.9135,187.6436 103.7572,188.0807 103.6444,188.5309 103.5763,188.9901 103.5535,189.4537 103.5763,189.9173 103.6444,190.3765 103.7572,190.8267 103.9135,191.2638 104.112,191.6834 104.3506,192.0815 104.6271,192.4544 104.9389,192.7983 105.2828,193.11 105.6556,193.3865 106.0538,193.6252 106.4734,193.8236 106.9104,193.98 107.3607,194.0928 107.8198,194.1609 108.2835,194.1837 108.7471,194.1609 109.2062,194.0928 109.6565,193.98 110.0935,193.8236 110.5132,193.6252 110.9113,193.3865 111.2841,193.11 111.6281,192.7983 111.9398,192.4544 112.2163,192.0815 112.4549,191.6834 112.6534,191.2638 112.8098,190.8267 112.9226,190.3765 112.9907,189.9173 113.0134,189.4537 112.9907,188.9901 112.9226,188.5309 112.8098,188.0807 112.6534,187.6436 112.4549,187.224 112.2163,186.8259 111.9398,186.453 111.6281,186.1091"/>
    <polygon points="123.992,184.7174 124.1483,184.2804 124.2611,183.8301 124.3292,183.371 124.352,182.9074 124.3292,182.4437 124.2611,181.9846 124.1483,181.5343 123.992,181.0973 123.7935,180.6777 123.5549,180.2795 123.2784,179.9067 122.9666,179.5628 122.6227,179.251 122.2499,178.9745 121.8517,178.7359 121.4321,178.5374 120.9951,178.3811 120.5448,178.2683 120.0857,178.2002 119.622,178.1774 119.1584,178.2002 118.6993,178.2683 118.249,178.3811 117.812,178.5374 117.3924,178.7359 116.9942,178.9745 116.6214,179.251 116.2775,179.5628 115.9657,179.9067 115.6892,180.2795 115.4506,180.6777 115.2521,181.0973 115.0957,181.5343 114.983,181.9846 114.9149,182.4437 114.8921,182.9074 114.9149,183.371 114.983,183.8301 115.0957,184.2804 115.2521,184.7174 115.4506,185.137 115.6892,185.5352 115.9657,185.908 116.2775,186.252 116.6214,186.5637 116.9942,186.8402 117.3924,187.0788 117.812,187.2773 118.249,187.4337 118.6993,187.5464 119.1584,187.6146 119.622,187.6373 120.0857,187.6146 120.5448,187.5464 120.9951,187.4337 121.4321,187.2773 121.8517,187.0788 122.2499,186.8402 122.6227,186.5637 122.9666,186.252 123.2784,185.908 123.5549,185.5352 123.7935,185.137"/>
    <polygon points="131.8834,184.8146 131.4242,184.7465 130.9606,184.7237 130.497,184.7465 130.0379,184.8146 129.5876,184.9274 129.1505,185.0838 128.7309,185.2822 128.3328,185.5209 127.96,185.7974 127.616,186.1091 127.3043,186.453 127.0278,186.8259 126.7892,187.224 126.5907,187.6436 126.4343,188.0807 126.3215,188.5309 126.2534,188.9901 126.2307,189.4537 126.2534,189.9173 126.3215,190.3765 126.4343,190.8267 126.5907,191.2638 126.7892,191.6834 127.0278,192.0815 127.3043,192.4544 127.616,192.7983 127.96,193.11 128.3328,193.3865 128.7309,193.6252 129.1505,193.8236 129.5876,193.98 130.0379,194.0928 130.497,194.1609 130.9606,194.1837 131.4242,194.1609 131.8834,194.0928 132.3337,193.98 132.7707,193.8236 133.1903,193.6252 133.5885,193.3865 133.9613,193.11 134.3052,192.7983 134.6169,192.4544 134.8935,192.0815 135.1321,191.6834 135.3306,191.2638 135.4869,190.8267 135.5997,190.3765 135.6678,189.9173 135.6906,189.4537 135.6678,188.9901 135.5997,188.5309 135.4869,188.0807 135.3306,187.6436 135.1321,187.224 134.8935,186.8259 134.6169,186.453 134.3052,186.1091 133.9613,185.7974 133.5885,185.5209 133.1903,185.2822 132.7707,185.0838 132.3337,184.9274"/>
    <polygon points="138.1277,193.7703 137.9293,194.1899 137.7729,194.627 137.6601,195.0773 137.592,195.5364 137.5692,196.0 137.592,196.4636 137.6601,196.9228 137.7729,197.3731 137.9293,197.8101 138.1277,198.2297 138.3664,198.6279 138.6429,199.0007 138.9546,199.3446 139.2985,199.6563 139.6714,199.9329 140.0695,200.1715 140.4891,200.3699 140.9262,200.5263 141.3764,200.6391 141.8356,200.7072 142.2992,200.73 142.7628,200.7072 143.222,200.6391 143.6723,200.5263 144.1093,200.3699 144.5289,200.1715 144.927,199.9329 145.2999,199.6563 145.6438,199.3446 145.9555,199.0007 146.232,198.6279 146.4707,198.2297 146.6691,197.8101 146.8255,197.3731 146.9383,196.9228 147.0064,196.4636 147.0292,196.0 147.0064,195.5364 146.9383,195.0773 146.8255,194.627 146.6691,194.1899 146.4707,193.7703 146.232,193.3722 145.9555,192.9994 145.6438,192.6554 145.2999,192.3437 144.927,192.0672 144.5289,191.8286 144.1093,191.6301 143.6723,191.4737 143.222,191.3609 142.7628,191.2928 142.2992,191.2701 141.8356,191.2928 141.3764,191.3609 140.9262,191.4737 140.4891,191.6301 140.0695,191.8286 139.6714,192.0672 139.2985,192.3437 138.9546,192.6554 138.6429,192.9994 138.3664,193.3722"/>
    <polygon points="128.7309,198.3749 128.3328,198.6135 127.96,198.89 127.616,199.2018 127.3043,199.5457 127.0278,199.9185 126.7892,200.3167 126.5907,200.7363 126.4343,201.1733 126.3215,201.6236 126.2534,202.0827 126.2307,202.5464 126.2534,203.01 126.3215,203.4691 126.4343,203.9194 126.5907,204.3564 126.7892,204.7761 127.0278,205.1742 127.3043,205.547 127.616,205.891 127.96,206.2027 128.3328,206.4792 128.7309,206.7178 129.1505,206.9163 129.5876,207.0727 130.0379,207.1854 130.497,207.2536 130.9606,207.2763 131.4242,207.2536 131.8834,207.1854 132.3337,207.0727 132.7707,206.9163 133.1903,206.7178 133.5885,206.4792 133.9613,206.2027 134.3052,205.891 134.6169,205.547 134.8935,205.1742 135.1321,204.7761 135.3306,204.3564 135.4869,203.9194 135.5997,203.4691 135.6678,203.01 135.6906,202.5464 135.6678,202.0827 135.5997,201.6236 135.4869,201.1733 135.3306,200.7363 135.1321,200.3167 134.8935,199.9185 134.6169,199.5457 134.3052,199.2018 133.9613,198.89 133.5885,198.6135 133.1903,198.3749 132.7707,198.1764 132.3337,198.0201 131.8834,197.9073 131.4242,197.8392 130.9606,197.8164 130.497,197.8392 130.0379,197.9073 129.5876,198.0201 129.1505,198.1764"/>
    <polygon points="124.1483,197.3731 124.2611,196.9228 124.3292,196.4636 124.352,196.0 124.3292,195.5364 124.2611,195.0773 124.1483,194.627 123.992,194.1899 123.7935,193.7703 123.5549,193.3722 123.2784,192.9994 122.9666,192.6554 122.6227,192.3437 122.2499,192.0672 121.8517,191.8286 121.4321,191.6301 120.9951,191.4737 120.5448,191.3609 120.0857,191.2928 119.622,191.2701 119.1584,191.2928 118.6993,191.3609 118.249,191.4737 117.812,191.6301 117.3924,191.8286 116.9942,192.0672 116.6214,192.3437 116.2775,192.6554 115.9657,192.9994 115.6892,193.3722 115.4506,193.7703 115.2521,194.1899 115.0957,194.627 114.983,195.0773 114.9149,195.5364 114.8921,196.0 114.9149,196.4636 114.983,196.9228 115.0957,197.3731 115.2521,197.8101 115.4506,198.2297 115.6892,198.6279 115.9657,199.0007 116.2775,199.3446 116.6214,199.6563 116.9942,199.9329 117.3924,200.1715 117.812,200.3699 118.249,200.5263 118.6993,200.6391 119.1584,200.7072 119.622,200.73 120.0857,200.7072 120.5448,200.6391 120.9951,200.5263 121.4321,200.3699 121.8517,200.1715 122.2499,199.9329 122.6227,199.6563 122.9666,199.3446 123.2784,199.0007 123.5549,198.6279 123.7935,198.2297 123.992,197.8101"/>
    <polygon points="135.0191,213.4391 134.8567,214.5338 134.8024,215.639 134.8567,216.7443 135.0191,217.8389 135.288,218.9124 135.6608,219.9543 136.1339,220.9546 136.7028,221.9038 137.362,222.7926 138.1052,223.6126 138.9251,224.3557 139.814,225.0149 140.7631,225.5838 141.7635,226.057 142.8054,226.4298 143.8788,226.6987 144.9735,226.861 146.0787,226.9153 147.184,226.861 148.2786,226.6987 149.3521,226.4298 150.394,226.057 151.3944,225.5838 152.3435,225.0149 153.2324,224.3557 154.0523,223.6126 154.7954,222.7926 155.4546,221.9038 156.0236,220.9546 156.4967,219.9543 156.8695,218.9124 157.1384,217.8389 157.3007,216.7443 157.355,215.639 157.3007,214.5338 157.1384,213.4391 156.8695,212.3657 156.4967,211.3238 156.0236,210.3234 155.4546,209.3742 154.7954,208.4854 154.0523,207.6655 153.2324,206.9223 152.3435,206.2631 151.3944,205.6942 150.394,205.2211 149.3521,204.8483 148.2786,204.5794 147.184,204.417 146.0787,204.3627 144.9735,204.417 143.8788,204.5794 142.8054,204.8483 141.7635,205.2211 140.7631,205.6942 139.814,206.2631 138.9251,206.9223 138.1052,207.6655 137.362,208.4854 136.7028,209.3742 136.1339,210.3234 135.6608,211.3238 135.288,212.3657"/>
    <polygon points="81.08,227.3587 81.2364,226.9216 81.4348,226.502 81.6735,226.1039 81.95,225.731 82.2617,225.3871 82.6056,225.0754 82.9785,224.7989 83.3766,224.5602 83.7962,224.3618 84.2333,224.2054 84.6835,224.0926 85.1427,224.0245 85.6063,224.0017 86.0699,224.0245 86.5291,224.0926 86.9793,224.2054 87.4164,224.3618 87.836,224.5602 88.2341,224.7989 88.607,225.0754 88.9509,225.3871 89.2626,225.731 89.5391,226.1039 89.7778,226.502 89.9762,226.9216 90.1326,227.3587 90.2454,227.8089 90.3135,228.2681 90.3363,228.7317 90.3135,229.1953 90.2454,229.6545 90.1326,230.1047 89.9762,230.5418 89.7778,230.9614 89.5391,231.3595 89.2626,231.7324 88.9509,232.0763 88.607,232.388 88.2341,232.6645 87.836,232.9032 87.4164,233.1016 86.9793,233.258 86.5291,233.3708 86.0699,233.4389 85.6063,233.4617 85.1427,233.4389 84.6835,233.3708 84.2333,233.258 83.7962,233.1016 83.3766,232.9032 82.9785,232.6645 82.6056,232.388 82.2617,232.0763 81.95,231.7324 81.6735,231.3595 81.4348,230.9614 81.2364,230.5418 81.08,230.1047 80.9672,229.6545 80.8991,229.1953 80.8763,228.7317 80.8991,228.2681 80.9672,227.8089"/>
    <polygon points="96.4813,230.5708 96.9449,230.5481 97.4085,230.5708 97.8677,230.6389 98.3179,230.7517 98.755,230.9081 99.1746,231.1066 99.5727,231.3452 99.9455,231.6217 100.2895,231.9334 100.6012,232.2774 100.8777,232.6502 101.1163,233.0483 101.3148,233.4679 101.4712,233.905 101.584,234.3553 101.6521,234.8144 101.6749,235.278 101.6521,235.7416 101.584,236.2008 101.4712,236.6511 101.3148,237.0881 101.1163,237.5077 100.8777,237.9059 100.6012,238.2787 100.2895,238.6226 99.9455,238.9343 99.5727,239.2109 99.1746,239.4495 98.755,239.648 98.3179,239.8043 97.8677,239.9171 97.4085,239.9852 96.9449,240.008 96.4813,239.9852 96.0221,239.9171 95.5718,239.8043 95.1348,239.648 94.7152,239.4495 94.317,239.2109 93.9442,238.9343 93.6003,238.6226 93.2886,238.2787 93.0121,237.9059 92.7734,237.5077 92.575,237.0881 92.4186,236.6511 92.3058,236.2008 92.2377,235.7416 92.2149,235.278 92.2377,234.8144 92.3058,234.3553 92.4186,233.905 92.575,233.4679 92.7734,233.0483 93.0121,232.6502 93.2886,232.2774 93.6003,231.9334 93.9442,231.6217 94.317,231.3452 94.7152,231.1066 95.1348,230.9081 95.5718,230.7517 96.0221,230.6389"/>
    <polygon points="107.8198,237.1172 108.2835,237.0944 108.7471,237.1172 109.2062,237.1853 109.6565,237.2981 110.0935,237.4544 110.5132,237.6529 110.9113,237.8915 111.2841,238.168 111.6281,238.4798 111.9398,238.8237 112.2163,239.1965 112.4549,239.5947 112.6534,240.0143 112.8098,240.4513 112.9226,240.9016 112.9907,241.3607 113.0134,241.8244 112.9907,242.288 112.9226,242.7471 112.8098,243.1974 112.6534,243.6344 112.4549,244.0541 112.2163,244.4522 111.9398,244.825 111.6281,245.169 111.2841,245.4807 110.9113,245.7572 110.5132,245.9958 110.0935,246.1943 109.6565,246.3507 109.2062,246.4634 108.7471,246.5316 108.2835,246.5543 107.8198,246.5316 107.3607,246.4634 106.9104,246.3507 106.4734,246.1943 106.0538,245.9958 105.6556,245.7572 105.2828,245.4807 104.9389,245.169 104.6271,244.825 104.3506,244.4522 104.112,244.0541 103.9135,243.6344 103.7572,243.1974 103.6444,242.7471 103.5763,242.288 103.5535,241.8244 103.5763,241.3607 103.6444,240.9016 103.7572,240.4513 103.9135,240.0143 104.112,239.5947 104.3506,239.1965 104.6271,238.8237 104.9389,238.4798 105.2828,238.168 105.6556,237.8915 106.0538,237.6529 106.4734,237.4544 106.9104,237.2981 107.3607,237.1853"/>
    <polygon points="133.3464,260.2326 132.7775,261.1818 132.1183,262.0706 131.3751,262.8906 130.5552,263.6337 129.6664,264.2929 128.7172,264.8618 127.7168,265.335 126.6749,265.7078 125.6015,265.9767 124.5068,266.139 123.4016,266.1933 122.2963,266.139 121.2017,265.9767 120.1282,265.7078 119.0863,265.335 118.086,264.8618 117.1368,264.2929 116.248,263.6337 115.428,262.8906 114.6849,262.0706 114.0257,261.1818 113.4568,260.2326 112.9836,259.2323 112.6108,258.1904 112.3419,257.1169 112.1796,256.0223 112.1253,254.917 112.1796,253.8118 112.3419,252.7171 112.6108,251.6437 112.9836,250.6018 113.4568,249.6014 114.0257,248.6522 114.6849,247.7634 115.428,246.9435 116.248,246.2003 117.1368,245.5411 118.086,244.9722 119.0863,244.4991 120.1282,244.1263 121.2017,243.8574 122.2963,243.695 123.4016,243.6407 124.5068,243.695 125.6015,243.8574 126.6749,244.1263 127.7168,244.4991 128.7172,244.9722 129.6664,245.5411 130.5552,246.2003 131.3751,246.9435 132.1183,247.7634 132.7775,248.6522 133.3464,249.6014 133.8195,250.6018 134.1923,251.6437 134.4612,252.7171 134.6236,253.8118 134.6779,254.917 134.6236,256.0223 134.4612,257.1169 134.1923,258.1904 133.8195,259.2323"/>
    <polygon points="134.8024,268.0097 134.8567,266.9044 135.0191,265.8098 135.288,264.7364 135.6608,263.6944 136.1339,262.6941 136.7028,261.7449 137.362,260.8561 138.1052,260.0361 138.9251,259.293 139.814,258.6338 140.7631,258.0649 141.7635,257.5917 142.8054,257.2189 143.8788,256.9501 144.9735,256.7877 146.0787,256.7334 147.184,256.7877 148.2786,256.9501 149.3521,257.2189 150.394,257.5917 151.3944,258.0649 152.3435,258.6338 153.2324,259.293 154.0523,260.0361 154.7954,260.8561 155.4546,261.7449 156.0236,262.6941 156.4967,263.6944 156.8695,264.7364 157.1384,265.8098 157.3007,266.9044 157.355,268.0097 157.3007,269.115 157.1384,270.2096 156.8695,271.283 156.4967,272.325 156.0236,273.3253 155.4546,274.2745 154.7954,275.1633 154.0523,275.9832 153.2324,276.7264 152.3435,277.3856 151.3944,277.9545 150.394,278.4276 149.3521,278.8004 148.2786,279.0693 147.184,279.2317 146.0787,279.286 144.9735,279.2317 143.8788,279.0693 142.8054,278.8004 141.7635,278.4276 140.7631,277.9545 139.814,277.3856 138.9251,276.7264 138.1052,275.9832 137.362,275.1633 136.7028,274.2745 136.1339,273.3253 135.6608,272.325 135.288,271.283 135.0191,270.2096 134.8567,269.115"/>
    <polygon points="169.241,265.144 166.9894,264.3384 164.8275,263.3159 162.7763,262.0864 160.8554,260.6618 159.0835,259.0558 157.4775,257.2839 156.0529,255.363 154.8234,253.3118 153.801,251.15 152.9953,248.8983 152.4142,246.5785 152.0633,244.2129 151.946,241.8244 152.0633,239.4358 152.4142,237.0702 152.9953,234.7504 153.801,232.4988 154.8234,230.3369 156.0529,228.2857 157.4775,226.3648 159.0835,224.5929 160.8554,222.9869 162.7763,221.5623 164.8275,220.3328 166.9894,219.3104 169.241,218.5047 171.5608,217.9236 173.9264,217.5727 176.315,217.4554 178.7035,217.5727 181.0691,217.9236 183.3889,218.5047 185.6406,219.3104 187.8024,220.3328 189.8536,221.5623 191.7745,222.9869 193.5464,224.5929 195.1524,226.3648 196.577,228.2857 197.8065,230.3369 198.829,232.4988 199.6346,234.7504 200.2157,237.0702 200.5666,239.4358 200.6839,241.8244 200.5666,244.2129 200.2157,246.5785 199.6346,248.8983 198.829,251.15 197.8065,253.3118 196.577,255.363 195.1524,257.2839 193.5464,259.0558 191.7745,260.6618 189.8536,262.0864 187.8024,263.3159 185.6406,264.3384 183.3889,265.144 181.0691,265.7251 178.7035,266.076 176.315,266.1933 173.9264,266.076 171.5608,265.7251"/>
    <polygon points="200.5666,291.8065 200.6839,294.195 200.5666,296.5836 200.2157,298.9492 199.6346,301.269 198.829,303.5206 197.8065,305.6825 196.577,307.7337 195.1524,309.6545 193.5464,311.4265 191.7745,313.0325 189.8536,314.4571 187.8024,315.6865 185.6406,316.709 183.3889,317.5147 181.0691,318.0958 178.7035,318.4467 176.315,318.564 173.9264,318.4467 171.5608,318.0958 169.241,317.5147 166.9894,316.709 164.8275,315.6865 162.7763,314.4571 160.8554,313.0325 159.0835,311.4265 157.4775,309.6545 156.0529,307.7337 154.8234,305.6825 153.801,303.5206 152.9953,301.269 152.4142,298.9492 152.0633,296.5836 151.946,294.195 152.0633,291.8065 152.4142,289.4409 152.9953,287.1211 153.801,284.8694 154.8234,282.7076 156.0529,280.6564 157.4775,278.7355 159.0835,276.9636 160.8554,275.3576 162.7763,273.933 164.8275,272.7035 166.9894,271.681 169.241,270.8754 171.5608,270.2943 173.9264,269.9434 176.315,269.8261 178.7035,269.9434 181.0691,270.2943 183.3889,270.8754 185.6406,271.681 187.8024,272.7035 189.8536,273.933 191.7745,275.3576 193.5464,276.9636 195.1524,278.7355 196.577,280.6564 197.8065,282.7076 198.829,284.8694 199.6346,287.1211 200.2157,289.4409"/>
    <polygon points="221.2638,272.3857 222.0838,273.1288 222.8269,273.9487 223.4861,274.8376 224.0551,275.7867 224.5282,276.7871 224.901,277.829 225.1699,278.9025 225.3322,279.9971 225.3865,281.1024 225.3322,282.2076 225.1699,283.3023 224.901,284.3757 224.5282,285.4176 224.0551,286.418 223.4861,287.3671 222.8269,288.256 222.0838,289.0759 221.2638,289.8191 220.375,290.4783 219.4259,291.0472 218.4255,291.5203 217.3836,291.8931 216.3101,292.162 215.2155,292.3244 214.1102,292.3787 213.005,292.3244 211.9103,292.162 210.8369,291.8931 209.795,291.5203 208.7946,291.0472 207.8455,290.4783 206.9566,289.8191 206.1367,289.0759 205.3935,288.256 204.7343,287.3671 204.1654,286.418 203.6923,285.4176 203.3195,284.3757 203.0506,283.3023 202.8882,282.2076 202.8339,281.1024 202.8882,279.9971 203.0506,278.9025 203.3195,277.829 203.6923,276.7871 204.1654,275.7867 204.7343,274.8376 205.3935,273.9487 206.1367,273.1288 206.9566,272.3857 207.8455,271.7265 208.7946,271.1575 209.795,270.6844 210.8369,270.3116 211.9103,270.0427 213.005,269.8804 214.1102,269.8261 215.2155,269.8804 216.3101,270.0427 217.3836,270.3116 218.4255,270.6844 219.4259,271.1575 220.375,271.7265"/>
    <polygon points="224.0551,260.2326 223.4861,261.1818 222.8269,262.0706 222.0838,262.8906 221.2638,263.6337 220.375,264.2929 219.4259,264.8618 218.4255,265.335 217.3836,265.7078 216.3101,265.9767 215.2155,266.139 214.1102,266.1933 213.005,266.139 211.9103,265.9767 210.8369,265.7078 209.795,265.335 208.7946,264.8618 207.8455,264.2929 206.9566,263.6337 206.1367,262.8906 205.3935,262.0706 204.7343,261.1818 204.1654,260.2326 203.6923,259.2323 203.3195,258.1904 203.0506,257.1169 202.8882,256.0223 202.8339,254.917 202.8882,253.8118 203.0506,252.7171 203.3195,251.6437 203.6923,250.6018 204.1654,249.6014 204.7343,248.6522 205.3935,247.7634 206.1367,246.9435 206.9566,246.2003 207.8455,245.5411 208.7946,244.9722 209.795,244.4991 210.8369,244.1263 211.9103,243.8574 213.005,243.695 214.1102,243.6407 215.2155,243.695 216.3101,243.8574 217.3836,244.1263 218.4255,244.4991 219.4259,244.9722 220.375,245.5411 221.2638,246.2003 222.0838,246.9435 222.8269,247.7634 223.4861,248.6522 224.0551,249.6014 224.5282,250.6018 224.901,251.6437 225.1699,252.7171 225.3322,253.8118 225.3865,254.917 225.3322,256.0223 225.1699,257.1169 224.901,258.1904 224.5282,259.2323"/>
    <polygon points="236.0085,252.027 235.6357,252.3035 235.2376,252.5422 234.818,252.7406 234.3809,252.897 233.9306,253.0098 233.4715,253.0779 233.0079,253.1007 232.5443,253.0779 232.0851,253.0098 231.6348,252.897 231.1978,252.7406 230.7782,252.5422 230.38,252.3035 230.0072,252.027 229.6633,251.7153 229.3516,251.3714 229.075,250.9985 228.8364,250.6004 228.6379,250.1808 228.4816,249.7437 228.3688,249.2935 228.3007,248.8343 228.2779,248.3707 228.3007,247.9071 228.3688,247.4479 228.4816,246.9977 228.6379,246.5606 228.8364,246.141 229.075,245.7429 229.3516,245.37 229.6633,245.0261 230.0072,244.7144 230.38,244.4379 230.7782,244.1992 231.1978,244.0008 231.6348,243.8444 232.0851,243.7316 232.5443,243.6635 233.0079,243.6407 233.4715,243.6635 233.9306,243.7316 234.3809,243.8444 234.818,244.0008 235.2376,244.1992 235.6357,244.4379 236.0085,244.7144 236.3525,245.0261 236.6642,245.37 236.9407,245.7429 237.1793,246.141 237.3778,246.5606 237.5342,246.9977 237.647,247.4479 237.7151,247.9071 237.7378,248.3707 237.7151,248.8343 237.647,249.2935 237.5342,249.7437 237.3778,250.1808 237.1793,250.6004 236.9407,250.9985 236.6642,251.3714 236.3525,251.7153"/>
    <polygon points="236.9407,232.6502 237.1793,233.0483 237.3778,233.4679 237.5342,233.905 237.647,234.3553 237.7151,234.8144 237.7378,235.278 237.7151,235.7416 237.647,236.2008 237.5342,236.6511 237.3778,237.0881 237.1793,237.5077 236.9407,237.9059 236.6642,238.2787 236.3525,238.6226 236.0085,238.9343 235.6357,239.2109 235.2376,239.4495 234.818,239.648 234.3809,239.8043 233.9306,239.9171 233.4715,239.9852 233.0079,240.008 232.5443,239.9852 232.0851,239.9171 231.6348,239.8043 231.1978,239.648 230.7782,239.4495 230.38,239.2109 230.0072,238.9343 229.6633,238.6226 229.3516,238.2787 229.075,237.9059 228.8364,237.5077 228.6379,237.0881 228.4816,236.6511 228.3688,236.2008 228.3007,235.7416 228.2779,235.278 228.3007,234.8144 228.3688,234.3553 228.4816,233.905 228.6379,233.4679 228.8364,233.0483 229.075,232.6502 229.3516,232.2774 229.6633,231.9334 230.0072,231.6217 230.38,231.3452 230.7782,231.1066 231.1978,230.9081 231.6348,230.7517 232.0851,230.6389 232.5443,230.5708 233.0079,230.5481 233.4715,230.5708 233.9306,230.6389 234.3809,230.7517 234.818,230.9081 235.2376,231.1066 235.6357,231.3452 236.0085,231.6217 236.3525,231.9334 236.6642,232.2774"/>
    <polygon points="229.3516,225.186 229.075,224.8132 228.8364,224.4151 228.6379,223.9954 228.4816,223.5584 228.3688,223.1081 228.3007,222.649 228.2779,222.1854 228.3007,221.7217 228.3688,221.2626 228.4816,220.8123 228.6379,220.3753 228.8364,219.9557 229.075,219.5575 229.3516,219.1847 229.6633,218.8408 230.0072,218.529 230.38,218.2525 230.7782,218.0139 231.1978,217.8154 231.6348,217.6591 232.0851,217.5463 232.5443,217.4782 233.0079,217.4554 233.4715,217.4782 233.9306,217.5463 234.3809,217.6591 234.818,217.8154 235.2376,218.0139 235.6357,218.2525 236.0085,218.529 236.3525,218.8408 236.6642,219.1847 236.9407,219.5575 237.1793,219.9557 237.3778,220.3753 237.5342,220.8123 237.647,221.2626 237.7151,221.7217 237.7378,222.1854 237.7151,222.649 237.647,223.1081 237.5342,223.5584 237.3778,223.9954 237.1793,224.4151 236.9407,224.8132 236.6642,225.186 236.3525,225.53 236.0085,225.8417 235.6357,226.1182 235.2376,226.3568 234.818,226.5553 234.3809,226.7117 233.9306,226.8244 233.4715,226.8926 233.0079,226.9153 232.5443,226.8926 232.0851,226.8244 231.6348,226.7117 231.1978,226.5553 230.7782,226.3568 230.38,226.1182 230.0072,225.8417 229.6633,225.53"/>
    <polygon points="203.6923,224.4164 204.1654,223.4161 204.7343,222.4669 205.3935,221.5781 206.1367,220.7581 206.9566,220.015 207.8455,219.3558 208.7946,218.7869 209.795,218.3137 210.8369,217.9409 211.9103,217.6721 213.005,217.5097 214.1102,217.4554 215.2155,217.5097 216.3101,217.6721 217.3836,217.9409 218.4255,218.3137 219.4259,218.7869 220.375,219.3558 221.2638,220.015 222.0838,220.7581 222.8269,221.5781 223.4861,222.4669 224.0551,223.4161 224.5282,224.4164 224.901,225.4584 225.1699,226.5318 225.3322,227.6264 225.3865,228.7317 225.3322,229.837 225.1699,230.9316 224.901,232.005 224.5282,233.0469 224.0551,234.0473 223.4861,234.9965 222.8269,235.8853 222.0838,236.7052 221.2638,237.4484 220.375,238.1076 219.4259,238.6765 218.4255,239.1496 217.3836,239.5224 216.3101,239.7913 215.2155,239.9537 214.1102,240.008 213.005,239.9537 211.9103,239.7913 210.8369,239.5224 209.795,239.1496 208.7946,238.6765 207.8455,238.1076 206.9566,237.4484 206.1367,236.7052 205.3935,235.8853 204.7343,234.9965 204.1654,234.0473 203.6923,233.0469 203.3195,232.005 203.0506,230.9316 202.8882,229.837 202.8339,228.7317 202.8882,227.6264 203.0506,226.5318 203.3195,225.4584"/>
    <polygon points="242.5364,211.2691 242.9734,211.1127 243.4237,210.9999 243.8828,210.9318 244.3465,210.9091 244.8101,210.9318 245.2692,210.9999 245.7195,211.1127 246.1565,211.2691 246.5762,211.4676 246.9743,211.7062 247.3471,211.9827 247.6911,212.2944 248.0028,212.6384 248.2793,213.0112 248.5179,213.4093 248.7164,213.8289 248.8728,214.266 248.9855,214.7163 249.0537,215.1754 249.0764,215.639 249.0537,216.1026 248.9855,216.5618 248.8728,217.0121 248.7164,217.4491 248.5179,217.8687 248.2793,218.2669 248.0028,218.6397 247.6911,218.9836 247.3471,219.2953 246.9743,219.5719 246.5762,219.8105 246.1565,220.0089 245.7195,220.1653 245.2692,220.2781 244.8101,220.3462 244.3465,220.369 243.8828,220.3462 243.4237,220.2781 242.9734,220.1653 242.5364,220.0089 242.1168,219.8105 241.7186,219.5719 241.3458,219.2953 241.0019,218.9836 240.6901,218.6397 240.4136,218.2669 240.175,217.8687 239.9765,217.4491 239.8202,217.0121 239.7074,216.5618 239.6393,216.1026 239.6165,215.639 239.6393,215.1754 239.7074,214.7163 239.8202,214.266 239.9765,213.8289 240.175,213.4093 240.4136,213.0112 240.6901,212.6384 241.0019,212.2944 241.3458,211.9827 241.7186,211.7062 242.1168,211.4676"/>
    <polygon points="248.5179,226.502 248.2793,226.1039 248.0028,225.731 247.6911,225.3871 247.3471,225.0754 246.9743,224.7989 246.5762,224.5602 246.1565,224.3618 245.7195,224.2054 245.2692,224.0926 244.8101,224.0245 244.3465,224.0017 243.8828,224.0245 243.4237,224.0926 242.9734,224.2054 242.5364,224.3618 242.1168,224.5602 241.7186,224.7989 241.3458,225.0754 241.0019,225.3871 240.6901,225.731 240.4136,226.1039 240.175,226.502 239.9765,226.9216 239.8202,227.3587 239.7074,227.8089 239.6393,228.2681 239.6165,228.7317 239.6393,229.1953 239.7074,229.6545 239.8202,230.1047 239.9765,230.5418 240.175,230.9614 240.4136,231.3595 240.6901,231.7324 241.0019,232.0763 241.3458,232.388 241.7186,232.6645 242.1168,232.9032 242.5364,233.1016 242.9734,233.258 243.4237,233.3708 243.8828,233.4389 244.3465,233.4617 244.8101,233.4389 245.2692,233.3708 245.7195,233.258 246.1565,233.1016 246.5762,232.9032 246.9743,232.6645 247.3471,232.388 247.6911,232.0763 248.0028,231.7324 248.2793,231.3595 248.5179,230.9614 248.7164,230.5418 248.8728,230.1047 248.9855,229.6545 249.0537,229.1953 249.0764,228.7317 249.0537,228.2681 248.9855,227.8089 248.8728,227.3587 248.7164,226.9216"/>
    <polygon points="260.3241,236.2008 260.3922,235.7416 260.415,235.278 260.3922,234.8144 260.3241,234.3553 260.2113,233.905 260.055,233.4679 259.8565,233.0483 259.6179,232.6502 259.3414,232.2774 259.0296,231.9334 258.6857,231.6217 258.3129,231.3452 257.9147,231.1066 257.4951,230.9081 257.0581,230.7517 256.6078,230.6389 256.1487,230.5708 255.685,230.5481 255.2214,230.5708 254.7623,230.6389 254.312,230.7517 253.875,230.9081 253.4553,231.1066 253.0572,231.3452 252.6844,231.6217 252.3404,231.9334 252.0287,232.2774 251.7522,232.6502 251.5136,233.0483 251.3151,233.4679 251.1587,233.905 251.046,234.3553 250.9778,234.8144 250.9551,235.278 250.9778,235.7416 251.046,236.2008 251.1587,236.6511 251.3151,237.0881 251.5136,237.5077 251.7522,237.9059 252.0287,238.2787 252.3404,238.6226 252.6844,238.9343 253.0572,239.2109 253.4553,239.4495 253.875,239.648 254.312,239.8043 254.7623,239.9171 255.2214,239.9852 255.685,240.008 256.1487,239.9852 256.6078,239.9171 257.0581,239.8043 257.4951,239.648 257.9147,239.4495 258.3129,239.2109 258.6857,238.9343 259.0296,238.6226 259.3414,238.2787 259.6179,237.9059 259.8565,237.5077 260.055,237.0881 260.2113,236.6511"/>
    <polygon points="253.4553,257.2919 253.875,257.0934 254.312,256.9371 254.7623,256.8243 255.2214,256.7562 255.685,256.7334 256.1487,256.7562 256.6078,256.8243 257.0581,256.9371 257.4951,257.0934 257.9147,257.2919 258.3129,257.5305 258.6857,257.807 259.0296,258.1188 259.3414,258.4627 259.6179,258.8355 259.8565,259.2337 260.055,259.6533 260.2113,260.0903 260.3241,260.5406 260.3922,260.9997 260.415,261.4634 260.3922,261.927 260.3241,262.3861 260.2113,262.8364 260.055,263.2734 259.8565,263.6931 259.6179,264.0912 259.3414,264.464 259.0296,264.808 258.6857,265.1197 258.3129,265.3962 257.9147,265.6348 257.4951,265.8333 257.0581,265.9897 256.6078,266.1024 256.1487,266.1706 255.685,266.1933 255.2214,266.1706 254.7623,266.1024 254.312,265.9897 253.875,265.8333 253.4553,265.6348 253.0572,265.3962 252.6844,265.1197 252.3404,264.808 252.0287,264.464 251.7522,264.0912 251.5136,263.6931 251.3151,263.2734 251.1587,262.8364 251.046,262.3861 250.9778,261.927 250.9551,261.4634 250.9778,260.9997 251.046,260.5406 251.1587,260.0903 251.3151,259.6533 251.5136,259.2337 251.7522,258.8355 252.0287,258.4627 252.3404,258.1188 252.6844,257.807 253.0572,257.5305"/>
    <polygon points="248.0094,269.115 247.847,270.2096 247.5782,271.283 247.2054,272.325 246.7322,273.3253 246.1633,274.2745 245.5041,275.1633 244.761,275.9832 243.941,276.7264 243.0522,277.3856 242.103,277.9545 241.1027,278.4276 240.0607,278.8004 238.9873,279.0693 237.8927,279.2317 236.7874,279.286 235.6821,279.2317 234.5875,279.0693 233.5141,278.8004 232.4721,278.4276 231.4718,277.9545 230.5226,277.3856 229.6338,276.7264 228.8138,275.9832 228.0707,275.1633 227.4115,274.2745 226.8426,273.3253 226.3695,272.325 225.9966,271.283 225.7278,270.2096 225.5654,269.115 225.5111,268.0097 225.5654,266.9044 225.7278,265.8098 225.9966,264.7364 226.3695,263.6944 226.8426,262.6941 227.4115,261.7449 228.0707,260.8561 228.8138,260.0361 229.6338,259.293 230.5226,258.6338 231.4718,258.0649 232.4721,257.5917 233.5141,257.2189 234.5875,256.9501 235.6821,256.7877 236.7874,256.7334 237.8927,256.7877 238.9873,256.9501 240.0607,257.2189 241.1027,257.5917 242.103,258.0649 243.0522,258.6338 243.941,259.293 244.761,260.0361 245.5041,260.8561 246.1633,261.7449 246.7322,262.6941 247.2054,263.6944 247.5782,264.7364 247.847,265.8098 248.0094,266.9044 248.0637,268.0097"/>
    <polygon points="283.0922,300.7414 283.0694,301.205 283.0013,301.6641 282.8885,302.1144 282.7321,302.5514 282.5337,302.9711 282.295,303.3692 282.0185,303.742 281.7068,304.086 281.3629,304.3977 280.99,304.6742 280.5919,304.9128 280.1723,305.1113 279.7352,305.2677 279.285,305.3805 278.8258,305.4486 278.3622,305.4713 277.8986,305.4486 277.4394,305.3805 276.9892,305.2677 276.5521,305.1113 276.1325,304.9128 275.7344,304.6742 275.3615,304.3977 275.0176,304.086 274.7059,303.742 274.4294,303.3692 274.1907,302.9711 273.9923,302.5514 273.8359,302.1144 273.7231,301.6641 273.655,301.205 273.6322,300.7414 273.655,300.2777 273.7231,299.8186 273.8359,299.3683 273.9923,298.9313 274.1907,298.5117 274.4294,298.1135 274.7059,297.7407 275.0176,297.3968 275.3615,297.085 275.7344,296.8085 276.1325,296.5699 276.5521,296.3714 276.9892,296.2151 277.4394,296.1023 277.8986,296.0342 278.3622,296.0114 278.8258,296.0342 279.285,296.1023 279.7352,296.2151 280.1723,296.3714 280.5919,296.5699 280.99,296.8085 281.3629,297.085 281.7068,297.3968 282.0185,297.7407 282.295,298.1135 282.5337,298.5117 282.7321,298.9313 282.8885,299.3683 283.0013,299.8186 283.0694,300.2777"/>
    <polygon points="288.3277,324.9067 287.8907,324.7503 287.4711,324.5518 287.073,324.3132 286.7001,324.0367 286.3562,323.725 286.0445,323.381 285.768,323.0082 285.5293,322.6101 285.3309,322.1904 285.1745,321.7534 285.0617,321.3031 284.9936,320.844 284.9708,320.3804 284.9936,319.9167 285.0617,319.4576 285.1745,319.0073 285.3309,318.5703 285.5293,318.1507 285.768,317.7525 286.0445,317.3797 286.3562,317.0358 286.7001,316.724 287.073,316.4475 287.4711,316.2089 287.8907,316.0104 288.3277,315.8541 288.778,315.7413 289.2372,315.6732 289.7008,315.6504 290.1644,315.6732 290.6236,315.7413 291.0738,315.8541 291.5109,316.0104 291.9305,316.2089 292.3286,316.4475 292.7015,316.724 293.0454,317.0358 293.3571,317.3797 293.6336,317.7525 293.8723,318.1507 294.0707,318.5703 294.2271,319.0073 294.3399,319.4576 294.408,319.9167 294.4308,320.3804 294.408,320.844 294.3399,321.3031 294.2271,321.7534 294.0707,322.1904 293.8723,322.6101 293.6336,323.0082 293.3571,323.381 293.0454,323.725 292.7015,324.0367 292.3286,324.3132 291.9305,324.5518 291.5109,324.7503 291.0738,324.9067 290.6236,325.0195 290.1644,325.0876 289.7008,325.1103 289.2372,325.0876 288.778,325.0195"/>
    <polygon points="281.7068,317.1786 281.3629,317.4903 280.99,317.7669 280.5919,318.0055 280.1723,318.204 279.7352,318.3603 279.285,318.4731 278.8258,318.5412 278.3622,318.564 277.8986,318.5412 277.4394,318.4731 276.9892,318.3603 276.5521,318.204 276.1325,318.0055 275.7344,317.7669 275.3615,317.4903 275.0176,317.1786 274.7059,316.8347 274.4294,316.4619 274.1907,316.0637 273.9923,315.6441 273.8359,315.2071 273.7231,314.7568 273.655,314.2976 273.6322,313.834 273.655,313.3704 273.7231,312.9113 273.8359,312.461 273.9923,312.0239 274.1907,311.6043 274.4294,311.2062 274.7059,310.8334 275.0176,310.4894 275.3615,310.1777 275.7344,309.9012 276.1325,309.6626 276.5521,309.4641 276.9892,309.3077 277.4394,309.1949 277.8986,309.1268 278.3622,309.1041 278.8258,309.1268 279.285,309.1949 279.7352,309.3077 280.1723,309.4641 280.5919,309.6626 280.99,309.9012 281.3629,310.1777 281.7068,310.4894 282.0185,310.8334 282.295,311.2062 282.5337,311.6043 282.7321,312.0239 282.8885,312.461 283.0013,312.9113 283.0694,313.3704 283.0922,313.834 283.0694,314.2976 283.0013,314.7568 282.8885,315.2071 282.7321,315.6441 282.5337,316.0637 282.295,316.4619 282.0185,316.8347"/>
    <polygon points="267.4381,315.2612 266.6182,316.0044 265.7293,316.6636 264.7802,317.2325 263.7798,317.7056 262.7379,318.0784 261.6645,318.3473 260.5698,318.5097 259.4646,318.564 258.3593,318.5097 257.2647,318.3473 256.1912,318.0784 255.1493,317.7056 254.149,317.2325 253.1998,316.6636 252.311,316.0044 251.491,315.2612 250.7479,314.4413 250.0887,313.5525 249.5198,312.6033 249.0466,311.603 248.6738,310.561 248.4049,309.4876 248.2426,308.393 248.1883,307.2877 248.2426,306.1824 248.4049,305.0878 248.6738,304.0144 249.0466,302.9724 249.5198,301.9721 250.0887,301.0229 250.7479,300.1341 251.491,299.3141 252.311,298.571 253.1998,297.9118 254.149,297.3429 255.1493,296.8697 256.1912,296.4969 257.2647,296.2281 258.3593,296.0657 259.4646,296.0114 260.5698,296.0657 261.6645,296.2281 262.7379,296.4969 263.7798,296.8697 264.7802,297.3429 265.7293,297.9118 266.6182,298.571 267.4381,299.3141 268.1813,300.1341 268.8405,301.0229 269.4094,301.9721 269.8825,302.9724 270.2553,304.0144 270.5242,305.0878 270.6866,306.1824 270.7409,307.2877 270.6866,308.393 270.5242,309.4876 270.2553,310.561 269.8825,311.603 269.4094,312.6033 268.8405,313.5525 268.1813,314.4413"/>
    <polygon points="253.4849,326.3036 255.5362,325.0742 257.698,324.0517 259.9497,323.246 262.2695,322.665 264.635,322.3141 267.0236,322.1967 269.4122,322.3141 271.7778,322.665 274.0976,323.246 276.3492,324.0517 278.5111,325.0742 280.5623,326.3036 282.4831,327.7282 284.2551,329.3342 285.8611,331.1062 287.2857,333.027 288.5151,335.0782 289.5376,337.2401 290.3433,339.4918 290.9244,341.8115 291.2753,344.1771 291.3926,346.5657 291.2753,348.9543 290.9244,351.3199 290.3433,353.6396 289.5376,355.8913 288.5151,358.0532 287.2857,360.1044 285.8611,362.0252 284.2551,363.7972 282.4831,365.4032 280.5623,366.8278 278.5111,368.0572 276.3492,369.0797 274.0976,369.8854 271.7778,370.4664 269.4122,370.8173 267.0236,370.9347 264.635,370.8173 262.2695,370.4664 259.9497,369.8854 257.698,369.0797 255.5362,368.0572 253.4849,366.8278 251.5641,365.4032 249.7922,363.7972 248.1862,362.0252 246.7616,360.1044 245.5321,358.0532 244.5096,355.8913 243.704,353.6396 243.1229,351.3199 242.772,348.9543 242.6546,346.5657 242.772,344.1771 243.1229,341.8115 243.704,339.4918 244.5096,337.2401 245.5321,335.0782 246.7616,333.027 248.1862,331.1062 249.7922,329.3342 251.5641,327.7282"/>
    <polygon points="235.208,340.6424 233.1567,341.8719 230.9949,342.8944 228.7432,343.7 226.4234,344.2811 224.0579,344.632 221.6693,344.7493 219.2807,344.632 216.9151,344.2811 214.5954,343.7 212.3437,342.8944 210.1818,341.8719 208.1306,340.6424 206.2098,339.2178 204.4378,337.6118 202.8318,335.8399 201.4072,333.919 200.1778,331.8678 199.1553,329.706 198.3496,327.4543 197.7686,325.1345 197.4177,322.7689 197.3003,320.3804 197.4177,317.9918 197.7686,315.6262 198.3496,313.3064 199.1553,311.0548 200.1778,308.8929 201.4072,306.8417 202.8318,304.9209 204.4378,303.1489 206.2098,301.5429 208.1306,300.1183 210.1818,298.8888 212.3437,297.8664 214.5954,297.0607 216.9151,296.4796 219.2807,296.1287 221.6693,296.0114 224.0579,296.1287 226.4234,296.4796 228.7432,297.0607 230.9949,297.8664 233.1567,298.8888 235.208,300.1183 237.1288,301.5429 238.9008,303.1489 240.5068,304.9209 241.9314,306.8417 243.1608,308.8929 244.1833,311.0548 244.9889,313.3064 245.57,315.6262 245.9209,317.9918 246.0383,320.3804 245.9209,322.7689 245.57,325.1345 244.9889,327.4543 244.1833,329.706 243.1608,331.8678 241.9314,333.919 240.5068,335.8399 238.9008,337.6118 237.1288,339.2178"/>
    <polygon points="200.809,366.4863 201.3779,367.4354 201.851,368.4358 202.2238,369.4777 202.4927,370.5511 202.6551,371.6458 202.7094,372.751 202.6551,373.8563 202.4927,374.9509 202.2238,376.0244 201.851,377.0663 201.3779,378.0666 200.809,379.0158 200.1498,379.9046 199.4066,380.7246 198.5867,381.4677 197.6979,382.1269 196.7487,382.6958 195.7483,383.169 194.7064,383.5418 193.633,383.8107 192.5383,383.973 191.4331,384.0273 190.3278,383.973 189.2332,383.8107 188.1597,383.5418 187.1178,383.169 186.1175,382.6958 185.1683,382.1269 184.2795,381.4677 183.4595,380.7246 182.7164,379.9046 182.0572,379.0158 181.4883,378.0666 181.0151,377.0663 180.6423,376.0244 180.3734,374.9509 180.2111,373.8563 180.1568,372.751 180.2111,371.6458 180.3734,370.5511 180.6423,369.4777 181.0151,368.4358 181.4883,367.4354 182.0572,366.4863 182.7164,365.5974 183.4595,364.7775 184.2795,364.0343 185.1683,363.3751 186.1175,362.8062 187.1178,362.3331 188.1597,361.9603 189.2332,361.6914 190.3278,361.529 191.4331,361.4747 192.5383,361.529 193.633,361.6914 194.7064,361.9603 195.7483,362.3331 196.7487,362.8062 197.6979,363.3751 198.5867,364.0343 199.4066,364.7775 200.1498,365.5974"/>
    <polygon points="194.7064,357.3565 193.633,357.6253 192.5383,357.7877 191.4331,357.842 190.3278,357.7877 189.2332,357.6253 188.1597,357.3565 187.1178,356.9836 186.1175,356.5105 185.1683,355.9416 184.2795,355.2824 183.4595,354.5393 182.7164,353.7193 182.0572,352.8305 181.4883,351.8813 181.0151,350.881 180.6423,349.839 180.3734,348.7656 180.2111,347.671 180.1568,346.5657 180.2111,345.4604 180.3734,344.3658 180.6423,343.2924 181.0151,342.2504 181.4883,341.2501 182.0572,340.3009 182.7164,339.4121 183.4595,338.5921 184.2795,337.849 185.1683,337.1898 186.1175,336.6209 187.1178,336.1478 188.1597,335.7749 189.2332,335.5061 190.3278,335.3437 191.4331,335.2894 192.5383,335.3437 193.633,335.5061 194.7064,335.7749 195.7483,336.1478 196.7487,336.6209 197.6979,337.1898 198.5867,337.849 199.4066,338.5921 200.1498,339.4121 200.809,340.3009 201.3779,341.2501 201.851,342.2504 202.2238,343.2924 202.4927,344.3658 202.6551,345.4604 202.7094,346.5657 202.6551,347.671 202.4927,348.7656 202.2238,349.839 201.851,350.881 201.3779,351.8813 200.809,352.8305 200.1498,353.7193 199.4066,354.5393 198.5867,355.2824 197.6979,355.9416 196.7487,356.5105 195.7483,356.9836"/>
    <polygon points="148.2786,331.44 149.3521,331.1711 150.394,330.7983 151.3944,330.3252 152.3435,329.7563 153.2324,329.0971 154.0523,328.3539 154.7954,327.534 155.4546,326.6451 156.0236,325.696 156.4967,324.6956 156.8695,323.6537 157.1384,322.5803 157.3007,321.4856 157.355,320.3804 157.3007,319.2751 157.1384,318.1805 156.8695,317.107 156.4967,316.0651 156.0236,315.0648 155.4546,314.1156 154.7954,313.2268 154.0523,312.4068 153.2324,311.6637 152.3435,311.0045 151.3944,310.4356 150.394,309.9624 149.3521,309.5896 148.2786,309.3207 147.184,309.1584 146.0787,309.1041 144.9735,309.1584 143.8788,309.3207 142.8054,309.5896 141.7635,309.9624 140.7631,310.4356 139.814,311.0045 138.9251,311.6637 138.1052,312.4068 137.362,313.2268 136.7028,314.1156 136.1339,315.0648 135.6608,316.0651 135.288,317.107 135.0191,318.1805 134.8567,319.2751 134.8024,320.3804 134.8567,321.4856 135.0191,322.5803 135.288,323.6537 135.6608,324.6956 136.1339,325.696 136.7028,326.6451 137.362,327.534 138.1052,328.3539 138.9251,329.0971 139.814,329.7563 140.7631,330.3252 141.7635,330.7983 142.8054,331.1711 143.8788,331.44 144.9735,331.6024 146.0787,331.6567 147.184,331.6024"/>
    <polygon points="133.1903,337.6445 133.5885,337.4059 133.9613,337.1294 134.3052,336.8176 134.6169,336.4737 134.8935,336.1009 135.1321,335.7027 135.3306,335.2831 135.4869,334.8461 135.5997,334.3958 135.6678,333.9367 135.6906,333.473 135.6678,333.0094 135.5997,332.5503 135.4869,332.1 135.3306,331.663 135.1321,331.2433 134.8935,330.8452 134.6169,330.4724 134.3052,330.1284 133.9613,329.8167 133.5885,329.5402 133.1903,329.3016 132.7707,329.1031 132.3337,328.9467 131.8834,328.8339 131.4242,328.7658 130.9606,328.7431 130.497,328.7658 130.0379,328.8339 129.5876,328.9467 129.1505,329.1031 128.7309,329.3016 128.3328,329.5402 127.96,329.8167 127.616,330.1284 127.3043,330.4724 127.0278,330.8452 126.7892,331.2433 126.5907,331.663 126.4343,332.1 126.3215,332.5503 126.2534,333.0094 126.2307,333.473 126.2534,333.9367 126.3215,334.3958 126.4343,334.8461 126.5907,335.2831 126.7892,335.7027 127.0278,336.1009 127.3043,336.4737 127.616,336.8176 127.96,337.1294 128.3328,337.4059 128.7309,337.6445 129.1505,337.843 129.5876,337.9993 130.0379,338.1121 130.497,338.1802 130.9606,338.203 131.4242,338.1802 131.8834,338.1121 132.3337,337.9993 132.7707,337.843"/>
    <polygon points="165.8991,383.9365 166.3494,383.8237 166.7865,383.6673 167.2061,383.4688 167.6042,383.2302 167.977,382.9537 168.321,382.642 168.6327,382.298 168.9092,381.9252 169.1478,381.5271 169.3463,381.1075 169.5027,380.6704 169.6155,380.2201 169.6836,379.761 169.7064,379.2974 169.6836,378.8338 169.6155,378.3746 169.5027,377.9243 169.3463,377.4873 169.1478,377.0677 168.9092,376.6695 168.6327,376.2967 168.321,375.9528 167.977,375.6411 167.6042,375.3645 167.2061,375.1259 166.7865,374.9274 166.3494,374.7711 165.8991,374.6583 165.44,374.5902 164.9764,374.5674 164.5128,374.5902 164.0536,374.6583 163.6033,374.7711 163.1663,374.9274 162.7467,375.1259 162.3485,375.3645 161.9757,375.6411 161.6318,375.9528 161.3201,376.2967 161.0435,376.6695 160.8049,377.0677 160.6065,377.4873 160.4501,377.9243 160.3373,378.3746 160.2692,378.8338 160.2464,379.2974 160.2692,379.761 160.3373,380.2201 160.4501,380.6704 160.6065,381.1075 160.8049,381.5271 161.0435,381.9252 161.3201,382.298 161.6318,382.642 161.9757,382.9537 162.3485,383.2302 162.7467,383.4688 163.1663,383.6673 163.6033,383.8237 164.0536,383.9365 164.5128,384.0046 164.9764,384.0273 165.44,384.0046"/>
    <polygon points="171.7887,387.2167 171.945,387.6538 172.1435,388.0734 172.3821,388.4715 172.6586,388.8444 172.9704,389.1883 173.3143,389.5 173.6871,389.7765 174.0853,390.0152 174.5049,390.2136 174.9419,390.37 175.3922,390.4828 175.8513,390.5509 176.315,390.5737 176.7786,390.5509 177.2377,390.4828 177.688,390.37 178.125,390.2136 178.5447,390.0152 178.9428,389.7765 179.3156,389.5 179.6596,389.1883 179.9713,388.8444 180.2478,388.4715 180.4864,388.0734 180.6849,387.6538 180.8413,387.2167 180.954,386.7665 181.0222,386.3073 181.0449,385.8437 181.0222,385.3801 180.954,384.9209 180.8413,384.4707 180.6849,384.0336 180.4864,383.614 180.2478,383.2159 179.9713,382.843 179.6596,382.4991 179.3156,382.1874 178.9428,381.9109 178.5447,381.6722 178.125,381.4738 177.688,381.3174 177.2377,381.2046 176.7786,381.1365 176.315,381.1137 175.8513,381.1365 175.3922,381.2046 174.9419,381.3174 174.5049,381.4738 174.0853,381.6722 173.6871,381.9109 173.3143,382.1874 172.9704,382.4991 172.6586,382.843 172.3821,383.2159 172.1435,383.614 171.945,384.0336 171.7887,384.4707 171.6759,384.9209 171.6078,385.3801 171.585,385.8437 171.6078,386.3073 171.6759,386.7665"/>
    <polygon points="186.2805,387.8637 185.8435,388.0201 185.4238,388.2186 185.0257,388.4572 184.6529,388.7337 184.3089,389.0454 183.9972,389.3894 183.7207,389.7622 183.4821,390.1603 183.2836,390.58 183.1272,391.017 183.0145,391.4673 182.9463,391.9264 182.9236,392.39 182.9463,392.8537 183.0145,393.3128 183.1272,393.7631 183.2836,394.2001 183.4821,394.6197 183.7207,395.0179 183.9972,395.3907 184.3089,395.7346 184.6529,396.0464 185.0257,396.3229 185.4238,396.5615 185.8435,396.76 186.2805,396.9163 186.7308,397.0291 187.1899,397.0972 187.6535,397.12 188.1172,397.0972 188.5763,397.0291 189.0266,396.9163 189.4636,396.76 189.8832,396.5615 190.2814,396.3229 190.6542,396.0464 190.9981,395.7346 191.3099,395.3907 191.5864,395.0179 191.825,394.6197 192.0235,394.2001 192.1798,393.7631 192.2926,393.3128 192.3607,392.8537 192.3835,392.39 192.3607,391.9264 192.2926,391.4673 192.1798,391.017 192.0235,390.58 191.825,390.1603 191.5864,389.7622 191.3099,389.3894 190.9981,389.0454 190.6542,388.7337 190.2814,388.4572 189.8832,388.2186 189.4636,388.0201 189.0266,387.8637 188.5763,387.7509 188.1172,387.6828 187.6535,387.6601 187.1899,387.6828 186.7308,387.7509"/>
    <polygon points="214.857,377.9243 214.9698,378.3746 215.0379,378.8338 215.0607,379.2974 215.0379,379.761 214.9698,380.2201 214.857,380.6704 214.7006,381.1075 214.5022,381.5271 214.2635,381.9252 213.987,382.298 213.6753,382.642 213.3314,382.9537 212.9585,383.2302 212.5604,383.4688 212.1408,383.6673 211.7037,383.8237 211.2535,383.9365 210.7943,384.0046 210.3307,384.0273 209.8671,384.0046 209.4079,383.9365 208.9577,383.8237 208.5206,383.6673 208.101,383.4688 207.7029,383.2302 207.33,382.9537 206.9861,382.642 206.6744,382.298 206.3979,381.9252 206.1592,381.5271 205.9608,381.1075 205.8044,380.6704 205.6916,380.2201 205.6235,379.761 205.6007,379.2974 205.6235,378.8338 205.6916,378.3746 205.8044,377.9243 205.9608,377.4873 206.1592,377.0677 206.3979,376.6695 206.6744,376.2967 206.9861,375.9528 207.33,375.6411 207.7029,375.3645 208.101,375.1259 208.5206,374.9274 208.9577,374.7711 209.4079,374.6583 209.8671,374.5902 210.3307,374.5674 210.7943,374.5902 211.2535,374.6583 211.7037,374.7711 212.1408,374.9274 212.5604,375.1259 212.9585,375.3645 213.3314,375.6411 213.6753,375.9528 213.987,376.2967 214.2635,376.6695 214.5022,377.0677 214.7006,377.4873"/>
    <polygon points="221.2638,368.3751 222.0838,367.6319 222.8269,366.812 223.4861,365.9231 224.0551,364.974 224.5282,363.9736 224.901,362.9317 225.1699,361.8583 225.3322,360.7636 225.3865,359.6584 225.3322,358.5531 225.1699,357.4585 224.901,356.385 224.5282,355.3431 224.0551,354.3428 223.4861,353.3936 222.8269,352.5048 222.0838,351.6848 221.2638,350.9417 220.375,350.2825 219.4259,349.7136 218.4255,349.2404 217.3836,348.8676 216.3101,348.5987 215.2155,348.4364 214.1102,348.3821 213.005,348.4364 211.9103,348.5987 210.8369,348.8676 209.795,349.2404 208.7946,349.7136 207.8455,350.2825 206.9566,350.9417 206.1367,351.6848 205.3935,352.5048 204.7343,353.3936 204.1654,354.3428 203.6923,355.3431 203.3195,356.385 203.0506,357.4585 202.8882,358.5531 202.8339,359.6584 202.8882,360.7636 203.0506,361.8583 203.3195,362.9317 203.6923,363.9736 204.1654,364.974 204.7343,365.9231 205.3935,366.812 206.1367,367.6319 206.9566,368.3751 207.8455,369.0343 208.7946,369.6032 209.795,370.0763 210.8369,370.4491 211.9103,370.718 213.005,370.8804 214.1102,370.9347 215.2155,370.8804 216.3101,370.718 217.3836,370.4491 218.4255,370.0763 219.4259,369.6032 220.375,369.0343"/>
    <polygon points="228.2779,366.2047 228.3007,366.6683 228.3688,367.1275 228.4816,367.5777 228.6379,368.0148 228.8364,368.4344 229.075,368.8325 229.3516,369.2054 229.6633,369.5493 230.0072,369.861 230.38,370.1375 230.7782,370.3762 231.1978,370.5746 231.6348,370.731 232.0851,370.8438 232.5443,370.9119 233.0079,370.9347 233.4715,370.9119 233.9306,370.8438 234.3809,370.731 234.818,370.5746 235.2376,370.3762 235.6357,370.1375 236.0085,369.861 236.3525,369.5493 236.6642,369.2054 236.9407,368.8325 237.1793,368.4344 237.3778,368.0148 237.5342,367.5777 237.647,367.1275 237.7151,366.6683 237.7378,366.2047 237.7151,365.7411 237.647,365.2819 237.5342,364.8317 237.3778,364.3946 237.1793,363.975 236.9407,363.5769 236.6642,363.204 236.3525,362.8601 236.0085,362.5484 235.6357,362.2719 235.2376,362.0332 234.818,361.8348 234.3809,361.6784 233.9306,361.5656 233.4715,361.4975 233.0079,361.4747 232.5443,361.4975 232.0851,361.5656 231.6348,361.6784 231.1978,361.8348 230.7782,362.0332 230.38,362.2719 230.0072,362.5484 229.6633,362.8601 229.3516,363.204 229.075,363.5769 228.8364,363.975 228.6379,364.3946 228.4816,364.8317 228.3688,365.2819 228.3007,365.7411"/>
    <polygon points="297.6653,368.3751 298.5541,369.0343 299.5033,369.6032 300.5036,370.0763 301.5456,370.4491 302.619,370.718 303.7136,370.8804 304.8189,370.9347 305.9242,370.8804 307.0188,370.718 308.0922,370.4491 309.1342,370.0763 310.1345,369.6032 311.0837,369.0343 311.9725,368.3751 312.7925,367.6319 313.5356,366.812 314.1948,365.9231 314.7637,364.974 315.2368,363.9736 315.6097,362.9317 315.8785,361.8583 316.0409,360.7636 316.0952,359.6584 316.0409,358.5531 315.8785,357.4585 315.6097,356.385 315.2368,355.3431 314.7637,354.3428 314.1948,353.3936 313.5356,352.5048 312.7925,351.6848 311.9725,350.9417 311.0837,350.2825 310.1345,349.7136 309.1342,349.2404 308.0922,348.8676 307.0188,348.5987 305.9242,348.4364 304.8189,348.3821 303.7136,348.4364 302.619,348.5987 301.5456,348.8676 300.5036,349.2404 299.5033,349.7136 298.5541,350.2825 297.6653,350.9417 296.8453,351.6848 296.1022,352.5048 295.443,353.3936 294.8741,354.3428 294.4009,355.3431 294.0281,356.385 293.7593,357.4585 293.5969,358.5531 293.5426,359.6584 293.5969,360.7636 293.7593,361.8583 294.0281,362.9317 294.4009,363.9736 294.8741,364.974 295.443,365.9231 296.1022,366.812 296.8453,367.6319"/>
    <polygon points="301.9621,383.9365 302.4124,383.8237 302.8495,383.6673 303.2691,383.4688 303.6672,383.2302 304.04,382.9537 304.384,382.642 304.6957,382.298 304.9722,381.9252 305.2108,381.5271 305.4093,381.1075 305.5657,380.6704 305.6785,380.2201 305.7466,379.761 305.7693,379.2974 305.7466,378.8338 305.6785,378.3746 305.5657,377.9243 305.4093,377.4873 305.2108,377.0677 304.9722,376.6695 304.6957,376.2967 304.384,375.9528 304.04,375.6411 303.6672,375.3645 303.2691,375.1259 302.8495,374.9274 302.4124,374.7711 301.9621,374.6583 301.503,374.5902 301.0394,374.5674 300.5758,374.5902 300.1166,374.6583 299.6663,374.7711 299.2293,374.9274 298.8097,375.1259 298.4115,375.3645 298.0387,375.6411 297.6948,375.9528 297.3831,376.2967 297.1065,376.6695 296.8679,377.0677 296.6694,377.4873 296.5131,377.9243 296.4003,378.3746 296.3322,378.8338 296.3094,379.2974 296.3322,379.761 296.4003,380.2201 296.5131,380.6704 296.6694,381.1075 296.8679,381.5271 297.1065,381.9252 297.3831,382.298 297.6948,382.642 298.0387,382.9537 298.4115,383.2302 298.8097,383.4688 299.2293,383.6673 299.6663,383.8237 300.1166,383.9365 300.5758,384.0046 301.0394,384.0273 301.503,384.0046"/>
    <polygon points="332.4273,389.7765 332.0545,389.5 331.7105,389.1883 331.3988,388.8444 331.1223,388.4715 330.8837,388.0734 330.6852,387.6538 330.5288,387.2167 330.416,386.7665 330.3479,386.3073 330.3251,385.8437 330.3479,385.3801 330.416,384.9209 330.5288,384.4707 330.6852,384.0336 330.8837,383.614 331.1223,383.2159 331.3988,382.843 331.7105,382.4991 332.0545,382.1874 332.4273,381.9109 332.8254,381.6722 333.245,381.4738 333.6821,381.3174 334.1323,381.2046 334.5915,381.1365 335.0551,381.1137 335.5187,381.1365 335.9779,381.2046 336.4282,381.3174 336.8652,381.4738 337.2848,381.6722 337.683,381.9109 338.0558,382.1874 338.3997,382.4991 338.7114,382.843 338.9879,383.2159 339.2266,383.614 339.425,384.0336 339.5814,384.4707 339.6942,384.9209 339.7623,385.3801 339.7851,385.8437 339.7623,386.3073 339.6942,386.7665 339.5814,387.2167 339.425,387.6538 339.2266,388.0734 338.9879,388.4715 338.7114,388.8444 338.3997,389.1883 338.0558,389.5 337.683,389.7765 337.2848,390.0152 336.8652,390.2136 336.4282,390.37 335.9779,390.4828 335.5187,390.5509 335.0551,390.5737 334.5915,390.5509 334.1323,390.4828 333.6821,390.37 333.245,390.2136 332.8254,390.0152"/>
    <polygon points="343.0491,389.0454 343.393,388.7337 343.7659,388.4572 344.164,388.2186 344.5836,388.0201 345.0207,387.8637 345.4709,387.7509 345.9301,387.6828 346.3937,387.6601 346.8573,387.6828 347.3165,387.7509 347.7667,387.8637 348.2038,388.0201 348.6234,388.2186 349.0215,388.4572 349.3944,388.7337 349.7383,389.0454 350.05,389.3894 350.3265,389.7622 350.5652,390.1603 350.7636,390.58 350.92,391.017 351.0328,391.4673 351.1009,391.9264 351.1237,392.39 351.1009,392.8537 351.0328,393.3128 350.92,393.7631 350.7636,394.2001 350.5652,394.6197 350.3265,395.0179 350.05,395.3907 349.7383,395.7346 349.3944,396.0464 349.0215,396.3229 348.6234,396.5615 348.2038,396.76 347.7667,396.9163 347.3165,397.0291 346.8573,397.0972 346.3937,397.12 345.9301,397.0972 345.4709,397.0291 345.0207,396.9163 344.5836,396.76 344.164,396.5615 343.7659,396.3229 343.393,396.0464 343.0491,395.7346 342.7374,395.3907 342.4609,395.0179 342.2222,394.6197 342.0238,394.2001 341.8674,393.7631 341.7546,393.3128 341.6865,392.8537 341.6637,392.39 341.6865,391.9264 341.7546,391.4673 341.8674,391.017 342.0238,390.58 342.2222,390.1603 342.4609,389.7622 342.7374,389.3894"/>
    <polygon points="339.2266,370.5213 339.425,370.941 339.5814,371.378 339.6942,371.8283 339.7623,372.2874 339.7851,372.751 339.7623,373.2147 339.6942,373.6738 339.5814,374.1241 339.425,374.5611 339.2266,374.9807 338.9879,375.3789 338.7114,375.7517 338.3997,376.0956 338.0558,376.4074 337.683,376.6839 337.2848,376.9225 336.8652,377.121 336.4282,377.2773 335.9779,377.3901 335.5187,377.4582 335.0551,377.481 334.5915,377.4582 334.1323,377.3901 333.6821,377.2773 333.245,377.121 332.8254,376.9225 332.4273,376.6839 332.0545,376.4074 331.7105,376.0956 331.3988,375.7517 331.1223,375.3789 330.8837,374.9807 330.6852,374.5611 330.5288,374.1241 330.416,373.6738 330.3479,373.2147 330.3251,372.751 330.3479,372.2874 330.416,371.8283 330.5288,371.378 330.6852,370.941 330.8837,370.5213 331.1223,370.1232 331.3988,369.7504 331.7105,369.4064 332.0545,369.0947 332.4273,368.8182 332.8254,368.5796 333.245,368.3811 333.6821,368.2247 334.1323,368.1119 334.5915,368.0438 335.0551,368.0211 335.5187,368.0438 335.9779,368.1119 336.4282,368.2247 336.8652,368.3811 337.2848,368.5796 337.683,368.8182 338.0558,369.0947 338.3997,369.4064 338.7114,369.7504 338.9879,370.1232"/>
    <polygon points="320.0602,369.2054 320.3719,369.5493 320.7159,369.861 321.0887,370.1375 321.4868,370.3762 321.9065,370.5746 322.3435,370.731 322.7938,370.8438 323.2529,370.9119 323.7165,370.9347 324.1802,370.9119 324.6393,370.8438 325.0896,370.731 325.5266,370.5746 325.9462,370.3762 326.3444,370.1375 326.7172,369.861 327.0611,369.5493 327.3729,369.2054 327.6494,368.8325 327.888,368.4344 328.0865,368.0148 328.2428,367.5777 328.3556,367.1275 328.4237,366.6683 328.4465,366.2047 328.4237,365.7411 328.3556,365.2819 328.2428,364.8317 328.0865,364.3946 327.888,363.975 327.6494,363.5769 327.3729,363.204 327.0611,362.8601 326.7172,362.5484 326.3444,362.2719 325.9462,362.0332 325.5266,361.8348 325.0896,361.6784 324.6393,361.5656 324.1802,361.4975 323.7165,361.4747 323.2529,361.4975 322.7938,361.5656 322.3435,361.6784 321.9065,361.8348 321.4868,362.0332 321.0887,362.2719 320.7159,362.5484 320.3719,362.8601 320.0602,363.204 319.7837,363.5769 319.5451,363.975 319.3466,364.3946 319.1902,364.8317 319.0774,365.2819 319.0093,365.7411 318.9866,366.2047 319.0093,366.6683 319.0774,367.1275 319.1902,367.5777 319.3466,368.0148 319.5451,368.4344 319.7837,368.8325"/>
    <polygon points="321.9065,357.482 322.3435,357.6383 322.7938,357.7511 323.2529,357.8192 323.7165,357.842 324.1802,357.8192 324.6393,357.7511 325.0896,357.6383 325.5266,357.482 325.9462,357.2835 326.3444,357.0449 326.7172,356.7684 327.0611,356.4566 327.3729,356.1127 327.6494,355.7399 327.888,355.3417 328.0865,354.9221 328.2428,354.4851 328.3556,354.0348 328.4237,353.5757 328.4465,353.112 328.4237,352.6484 328.3556,352.1893 328.2428,351.739 328.0865,351.302 327.888,350.8823 327.6494,350.4842 327.3729,350.1114 327.0611,349.7674 326.7172,349.4557 326.3444,349.1792 325.9462,348.9406 325.5266,348.7421 325.0896,348.5857 324.6393,348.4729 324.1802,348.4048 323.7165,348.3821 323.2529,348.4048 322.7938,348.4729 322.3435,348.5857 321.9065,348.7421 321.4868,348.9406 321.0887,349.1792 320.7159,349.4557 320.3719,349.7674 320.0602,350.1114 319.7837,350.4842 319.5451,350.8823 319.3466,351.302 319.1902,351.739 319.0774,352.1893 319.0093,352.6484 318.9866,353.112 319.0093,353.5757 319.0774,354.0348 319.1902,354.4851 319.3466,354.9221 319.5451,355.3417 319.7837,355.7399 320.0602,356.1127 320.3719,356.4566 320.7159,356.7684 321.0887,357.0449 321.4868,357.2835"/>
    <polygon points="332.4273,363.5912 332.8254,363.8298 333.245,364.0283 333.6821,364.1847 334.1323,364.2975 334.5915,364.3656 335.0551,364.3883 335.5187,364.3656 335.9779,364.2975 336.4282,364.1847 336.8652,364.0283 337.2848,363.8298 337.683,363.5912 338.0558,363.3147 338.3997,363.003 338.7114,362.659 338.9879,362.2862 339.2266,361.8881 339.425,361.4684 339.5814,361.0314 339.6942,360.5811 339.7623,360.122 339.7851,359.6584 339.7623,359.1947 339.6942,358.7356 339.5814,358.2853 339.425,357.8483 339.2266,357.4287 338.9879,357.0305 338.7114,356.6577 338.3997,356.3138 338.0558,356.002 337.683,355.7255 337.2848,355.4869 336.8652,355.2884 336.4282,355.1321 335.9779,355.0193 335.5187,354.9512 335.0551,354.9284 334.5915,354.9512 334.1323,355.0193 333.6821,355.1321 333.245,355.2884 332.8254,355.4869 332.4273,355.7255 332.0545,356.002 331.7105,356.3138 331.3988,356.6577 331.1223,357.0305 330.8837,357.4287 330.6852,357.8483 330.5288,358.2853 330.416,358.7356 330.3479,359.1947 330.3251,359.6584 330.3479,360.122 330.416,360.5811 330.5288,361.0314 330.6852,361.4684 330.8837,361.8881 331.1223,362.2862 331.3988,362.659 331.7105,363.003 332.0545,363.3147"/>
    <polygon points="339.2266,344.336 338.9879,343.9379 338.7114,343.565 338.3997,343.2211 338.0558,342.9094 337.683,342.6329 337.2848,342.3942 336.8652,342.1958 336.4282,342.0394 335.9779,341.9266 335.5187,341.8585 335.0551,341.8357 334.5915,341.8585 334.1323,341.9266 333.6821,342.0394 333.245,342.1958 332.8254,342.3942 332.4273,342.6329 332.0545,342.9094 331.7105,343.2211 331.3988,343.565 331.1223,343.9379 330.8837,344.336 330.6852,344.7556 330.5288,345.1927 330.416,345.6429 330.3479,346.1021 330.3251,346.5657 330.3479,347.0293 330.416,347.4885 330.5288,347.9387 330.6852,348.3758 330.8837,348.7954 331.1223,349.1935 331.3988,349.5664 331.7105,349.9103 332.0545,350.222 332.4273,350.4985 332.8254,350.7372 333.245,350.9356 333.6821,351.092 334.1323,351.2048 334.5915,351.2729 335.0551,351.2957 335.5187,351.2729 335.9779,351.2048 336.4282,351.092 336.8652,350.9356 337.2848,350.7372 337.683,350.4985 338.0558,350.222 338.3997,349.9103 338.7114,349.5664 338.9879,349.1935 339.2266,348.7954 339.425,348.3758 339.5814,347.9387 339.6942,347.4885 339.7623,347.0293 339.7851,346.5657 339.7623,346.1021 339.6942,345.6429 339.5814,345.1927 339.425,344.7556"/>
    <polygon points="344.164,344.1908 344.5836,344.3893 345.0207,344.5457 345.4709,344.6585 345.9301,344.7266 346.3937,344.7493 346.8573,344.7266 347.3165,344.6585 347.7667,344.5457 348.2038,344.3893 348.6234,344.1908 349.0215,343.9522 349.3944,343.6757 349.7383,343.364 350.05,343.02 350.3265,342.6472 350.5652,342.2491 350.7636,341.8294 350.92,341.3924 351.0328,340.9421 351.1009,340.483 351.1237,340.0194 351.1009,339.5557 351.0328,339.0966 350.92,338.6463 350.7636,338.2093 350.5652,337.7897 350.3265,337.3915 350.05,337.0187 349.7383,336.6748 349.3944,336.363 349.0215,336.0865 348.6234,335.8479 348.2038,335.6494 347.7667,335.4931 347.3165,335.3803 346.8573,335.3122 346.3937,335.2894 345.9301,335.3122 345.4709,335.3803 345.0207,335.4931 344.5836,335.6494 344.164,335.8479 343.7659,336.0865 343.393,336.363 343.0491,336.6748 342.7374,337.0187 342.4609,337.3915 342.2222,337.7897 342.0238,338.2093 341.8674,338.6463 341.7546,339.0966 341.6865,339.5557 341.6637,340.0194 341.6865,340.483 341.7546,340.9421 341.8674,341.3924 342.0238,341.8294 342.2222,342.2491 342.4609,342.6472 342.7374,343.02 343.0491,343.364 343.393,343.6757 343.7659,343.9522"/>
  </g>
</svg>
