<?xml version="1.0" encoding="utf-8" ?>
<svg xmlns="http://www.w3.org/2000/svg" xmlns:cc="http://creativecommons.org/ns" xmlns:dc="http://purl.org/dc/elements/1.1/" xmlns:ev="http://www.w3.org/2001/xml-events" xmlns:inkscape="http://www.inkscape.org/namespaces/inkscape" xmlns:rdf="http://www.w3.org/1999/02/22-rdf-syntax-ns" xmlns:sodipodi="http://sodipodi.sourceforge.net/DTD/sodipodi-0.dtd" xmlns:xlink="http://www.w3.org/1999/xlink" baseProfile="tiny" height="15.875cm" version="1.2" viewBox="0 0 432.0 600.0" width="11.43cm">
  <metadata>
    <rdf:RDF>
      <cc:Work>
        <dc:format>image/svg+xml</dc:format>
        <dc:source>vsk save -s 231 -c hex-grid/config/bubble-coasters-2.json /Users/tobin/src/fabian/plotting/fabian-plotting/hex-grid/sketch_hex_grid.py</dc:source>
        <dc:date>2023-11-11T11:30:23.595431</dc:date>
      </cc:Work>
    </rdf:RDF>
  </metadata>
  <defs/>
  <g fill="none" id="layer1" inkscape:groupmode="layer" inkscape:label="1" stroke="#000000" stroke-width="0.7559" style="display:inline">
    <polygon points="127.6368,402.6732 127.6141,402.2095 127.6368,401.7459 127.7049,401.2868 127.8177,400.8365 127.9741,400.3995 128.1726,399.9798 128.4112,399.5817 128.6877,399.2089 128.9994,398.8649 129.3434,398.5532 129.7162,398.2767 130.1143,398.0381 130.534,397.8396 130.971,397.6832 131.4213,397.5704 131.8804,397.5023 132.344,397.4796 132.8077,397.5023 133.2668,397.5704 133.7171,397.6832 134.1541,397.8396 134.5737,398.0381 134.9719,398.2767 135.3447,398.5532 135.6886,398.8649 136.0004,399.2089 136.2769,399.5817 136.5155,399.9798 136.714,400.3995 136.8703,400.8365 136.9831,401.2868 137.0512,401.7459 137.074,402.2095 137.0512,402.6732 136.9831,403.1323 136.8703,403.5826 136.714,404.0196 136.5155,404.4392 136.2769,404.8374 136.0004,405.2102 135.6886,405.5541 135.3447,405.8659 134.9719,406.1424 134.5737,406.381 134.1541,406.5795 133.7171,406.7358 133.2668,406.8486 132.8077,406.9167 132.344,406.9395 131.8804,406.9167 131.4213,406.8486 130.971,406.7358 130.534,406.5795 130.1143,406.381 129.7162,406.1424 129.3434,405.8659 128.9994,405.5541 128.6877,405.2102 128.4112,404.8374 128.1726,404.4392 127.9741,404.0196 127.8177,403.5826 127.7049,403.1323"/>
    <polygon points="140.338,412.1005 140.0263,411.7565 139.7498,411.3837 139.5112,410.9856 139.3127,410.566 139.1563,410.1289 139.0435,409.6786 138.9754,409.2195 138.9526,408.7559 138.9754,408.2923 139.0435,407.8331 139.1563,407.3828 139.3127,406.9458 139.5112,406.5262 139.7498,406.128 140.0263,405.7552 140.338,405.4113 140.682,405.0996 141.0548,404.823 141.4529,404.5844 141.8725,404.3859 142.3096,404.2296 142.7598,404.1168 143.219,404.0487 143.6826,404.0259 144.1462,404.0487 144.6054,404.1168 145.0557,404.2296 145.4927,404.3859 145.9123,404.5844 146.3104,404.823 146.6833,405.0996 147.0272,405.4113 147.3389,405.7552 147.6154,406.128 147.8541,406.5262 148.0525,406.9458 148.2089,407.3828 148.3217,407.8331 148.3898,408.2923 148.4126,408.7559 148.3898,409.2195 148.3217,409.6786 148.2089,410.1289 148.0525,410.566 147.8541,410.9856 147.6154,411.3837 147.3389,411.7565 147.0272,412.1005 146.6833,412.4122 146.3104,412.6887 145.9123,412.9273 145.4927,413.1258 145.0557,413.2822 144.6054,413.395 144.1462,413.4631 143.6826,413.4858 143.219,413.4631 142.7598,413.395 142.3096,413.2822 141.8725,413.1258 141.4529,412.9273 141.0548,412.6887 140.682,412.4122"/>
    <polygon points="156.8313,410.9323 157.2509,411.1307 157.649,411.3694 158.0219,411.6459 158.3658,411.9576 158.6775,412.3015 158.954,412.6744 159.1927,413.0725 159.3911,413.4921 159.5475,413.9292 159.6603,414.3794 159.7284,414.8386 159.7512,415.3022 159.7284,415.7658 159.6603,416.225 159.5475,416.6752 159.3911,417.1123 159.1927,417.5319 158.954,417.93 158.6775,418.3029 158.3658,418.6468 158.0219,418.9585 157.649,419.235 157.2509,419.4737 156.8313,419.6721 156.3942,419.8285 155.944,419.9413 155.4848,420.0094 155.0212,420.0322 154.5576,420.0094 154.0984,419.9413 153.6482,419.8285 153.2111,419.6721 152.7915,419.4737 152.3934,419.235 152.0205,418.9585 151.6766,418.6468 151.3649,418.3029 151.0884,417.93 150.8497,417.5319 150.6513,417.1123 150.4949,416.6752 150.3821,416.225 150.314,415.7658 150.2912,415.3022 150.314,414.8386 150.3821,414.3794 150.4949,413.9292 150.6513,413.4921 150.8497,413.0725 151.0884,412.6744 151.3649,412.3015 151.6766,411.9576 152.0205,411.6459 152.3934,411.3694 152.7915,411.1307 153.2111,410.9323 153.6482,410.7759 154.0984,410.6631 154.5576,410.595 155.0212,410.5722 155.4848,410.595 155.944,410.6631 156.3942,410.7759"/>
    <polygon points="158.6775,431.3955 158.3658,431.7395 158.0219,432.0512 157.649,432.3277 157.2509,432.5663 156.8313,432.7648 156.3942,432.9212 155.944,433.034 155.4848,433.1021 155.0212,433.1248 154.5576,433.1021 154.0984,433.034 153.6482,432.9212 153.2111,432.7648 152.7915,432.5663 152.3934,432.3277 152.0205,432.0512 151.6766,431.7395 151.3649,431.3955 151.0884,431.0227 150.8497,430.6246 150.6513,430.205 150.4949,429.7679 150.3821,429.3176 150.314,428.8585 150.2912,428.3949 150.314,427.9313 150.3821,427.4721 150.4949,427.0218 150.6513,426.5848 150.8497,426.1652 151.0884,425.767 151.3649,425.3942 151.6766,425.0503 152.0205,424.7386 152.3934,424.462 152.7915,424.2234 153.2111,424.0249 153.6482,423.8686 154.0984,423.7558 154.5576,423.6877 155.0212,423.6649 155.4848,423.6877 155.944,423.7558 156.3942,423.8686 156.8313,424.0249 157.2509,424.2234 157.649,424.462 158.0219,424.7386 158.3658,425.0503 158.6775,425.3942 158.954,425.767 159.1927,426.1652 159.3911,426.5848 159.5475,427.0218 159.6603,427.4721 159.7284,427.9313 159.7512,428.3949 159.7284,428.8585 159.6603,429.3176 159.5475,429.7679 159.3911,430.205 159.1927,430.6246 158.954,431.0227"/>
    <polygon points="179.0714,419.8285 178.6211,419.9413 178.162,420.0094 177.6984,420.0322 177.2347,420.0094 176.7756,419.9413 176.3253,419.8285 175.8883,419.6721 175.4687,419.4737 175.0705,419.235 174.6977,418.9585 174.3538,418.6468 174.042,418.3029 173.7655,417.93 173.5269,417.5319 173.3284,417.1123 173.1721,416.6752 173.0593,416.225 172.9912,415.7658 172.9684,415.3022 172.9912,414.8386 173.0593,414.3794 173.1721,413.9292 173.3284,413.4921 173.5269,413.0725 173.7655,412.6744 174.042,412.3015 174.3538,411.9576 174.6977,411.6459 175.0705,411.3694 175.4687,411.1307 175.8883,410.9323 176.3253,410.7759 176.7756,410.6631 177.2347,410.595 177.6984,410.5722 178.162,410.595 178.6211,410.6631 179.0714,410.7759 179.5084,410.9323 179.9281,411.1307 180.3262,411.3694 180.699,411.6459 181.043,411.9576 181.3547,412.3015 181.6312,412.6744 181.8698,413.0725 182.0683,413.4921 182.2247,413.9292 182.3375,414.3794 182.4056,414.8386 182.4283,415.3022 182.4056,415.7658 182.3375,416.225 182.2247,416.6752 182.0683,417.1123 181.8698,417.5319 181.6312,417.93 181.3547,418.3029 181.043,418.6468 180.699,418.9585 180.3262,419.235 179.9281,419.4737 179.5084,419.6721"/>
    <polygon points="184.5106,407.3828 184.667,406.9458 184.8655,406.5262 185.1041,406.128 185.3806,405.7552 185.6924,405.4113 186.0363,405.0996 186.4091,404.823 186.8073,404.5844 187.2269,404.3859 187.6639,404.2296 188.1142,404.1168 188.5733,404.0487 189.0369,404.0259 189.5006,404.0487 189.9597,404.1168 190.41,404.2296 190.847,404.3859 191.2666,404.5844 191.6648,404.823 192.0376,405.0996 192.3815,405.4113 192.6933,405.7552 192.9698,406.128 193.2084,406.5262 193.4069,406.9458 193.5632,407.3828 193.676,407.8331 193.7441,408.2923 193.7669,408.7559 193.7441,409.2195 193.676,409.6786 193.5632,410.1289 193.4069,410.566 193.2084,410.9856 192.9698,411.3837 192.6933,411.7565 192.3815,412.1005 192.0376,412.4122 191.6648,412.6887 191.2666,412.9273 190.847,413.1258 190.41,413.2822 189.9597,413.395 189.5006,413.4631 189.0369,413.4858 188.5733,413.4631 188.1142,413.395 187.6639,413.2822 187.2269,413.1258 186.8073,412.9273 186.4091,412.6887 186.0363,412.4122 185.6924,412.1005 185.3806,411.7565 185.1041,411.3837 184.8655,410.9856 184.667,410.566 184.5106,410.1289 184.3979,409.6786 184.3297,409.2195 184.307,408.7559 184.3297,408.2923 184.3979,407.8331"/>
    <polygon points="174.6977,398.5532 175.0705,398.2767 175.4687,398.0381 175.8883,397.8396 176.3253,397.6832 176.7756,397.5704 177.2347,397.5023 177.6984,397.4796 178.162,397.5023 178.6211,397.5704 179.0714,397.6832 179.5084,397.8396 179.9281,398.0381 180.3262,398.2767 180.699,398.5532 181.043,398.8649 181.3547,399.2089 181.6312,399.5817 181.8698,399.9798 182.0683,400.3995 182.2247,400.8365 182.3375,401.2868 182.4056,401.7459 182.4283,402.2095 182.4056,402.6732 182.3375,403.1323 182.2247,403.5826 182.0683,404.0196 181.8698,404.4392 181.6312,404.8374 181.3547,405.2102 181.043,405.5541 180.699,405.8659 180.3262,406.1424 179.9281,406.381 179.5084,406.5795 179.0714,406.7358 178.6211,406.8486 178.162,406.9167 177.6984,406.9395 177.2347,406.9167 176.7756,406.8486 176.3253,406.7358 175.8883,406.5795 175.4687,406.381 175.0705,406.1424 174.6977,405.8659 174.3538,405.5541 174.042,405.2102 173.7655,404.8374 173.5269,404.4392 173.3284,404.0196 173.1721,403.5826 173.0593,403.1323 172.9912,402.6732 172.9684,402.2095 172.9912,401.7459 173.0593,401.2868 173.1721,400.8365 173.3284,400.3995 173.5269,399.9798 173.7655,399.5817 174.042,399.2089 174.3538,398.8649"/>
    <polygon points="167.5174,402.8168 166.7743,403.6368 165.9543,404.3799 165.0655,405.0391 164.1163,405.608 163.116,406.0812 162.0741,406.454 161.0006,406.7228 159.906,406.8852 158.8007,406.9395 157.6955,406.8852 156.6008,406.7228 155.5274,406.454 154.4855,406.0812 153.4851,405.608 152.5359,405.0391 151.6471,404.3799 150.8272,403.6368 150.084,402.8168 149.4248,401.928 148.8559,400.9788 148.3828,399.9785 148.01,398.9365 147.7411,397.8631 147.5787,396.7685 147.5244,395.6632 147.5787,394.5579 147.7411,393.4633 148.01,392.3899 148.3828,391.3479 148.8559,390.3476 149.4248,389.3984 150.084,388.5096 150.8272,387.6897 151.6471,386.9465 152.5359,386.2873 153.4851,385.7184 154.4855,385.2453 155.5274,384.8725 156.6008,384.6036 157.6955,384.4412 158.8007,384.3869 159.906,384.4412 161.0006,384.6036 162.0741,384.8725 163.116,385.2453 164.1163,385.7184 165.0655,386.2873 165.9543,386.9465 166.7743,387.6897 167.5174,388.5096 168.1766,389.3984 168.7455,390.3476 169.2187,391.3479 169.5915,392.3899 169.8604,393.4633 170.0227,394.5579 170.077,395.6632 170.0227,396.7685 169.8604,397.8631 169.5915,398.9365 169.2187,399.9785 168.7455,400.9788 168.1766,401.928"/>
    <polygon points="150.9003,375.2227 149.1283,373.6167 147.5223,371.8447 146.0977,369.9239 144.8683,367.8727 143.8458,365.7108 143.0401,363.4591 142.4591,361.1394 142.1082,358.7738 141.9908,356.3852 142.1082,353.9966 142.4591,351.631 143.0401,349.3113 143.8458,347.0596 144.8683,344.8977 146.0977,342.8465 147.5223,340.9257 149.1283,339.1537 150.9003,337.5477 152.8211,336.1231 154.8723,334.8937 157.0342,333.8712 159.2858,333.0655 161.6056,332.4845 163.9712,332.1336 166.3598,332.0162 168.7484,332.1336 171.1139,332.4845 173.4337,333.0655 175.6854,333.8712 177.8472,334.8937 179.8985,336.1231 181.8193,337.5477 183.5912,339.1537 185.1973,340.9257 186.6218,342.8465 187.8513,344.8977 188.8738,347.0596 189.6794,349.3113 190.2605,351.631 190.6114,353.9966 190.7288,356.3852 190.6114,358.7738 190.2605,361.1394 189.6794,363.4591 188.8738,365.7108 187.8513,367.8727 186.6218,369.9239 185.1973,371.8447 183.5912,373.6167 181.8193,375.2227 179.8985,376.6473 177.8472,377.8767 175.6854,378.8992 173.4337,379.7049 171.1139,380.2859 168.7484,380.6368 166.3598,380.7542 163.9712,380.6368 161.6056,380.2859 159.2858,379.7049 157.0342,378.8992 154.8723,377.8767 152.8211,376.6473"/>
    <polygon points="125.7056,334.5151 125.3328,333.4732 125.0639,332.3998 124.9016,331.3051 124.8473,330.1999 124.9016,329.0946 125.0639,328.0 125.3328,326.9265 125.7056,325.8846 126.1787,324.8843 126.7477,323.9351 127.4069,323.0463 128.15,322.2263 128.9699,321.4832 129.8588,320.824 130.8079,320.2551 131.8083,319.7819 132.8502,319.4091 133.9237,319.1402 135.0183,318.9779 136.1236,318.9236 137.2288,318.9779 138.3235,319.1402 139.3969,319.4091 140.4388,319.7819 141.4392,320.2551 142.3883,320.824 143.2772,321.4832 144.0971,322.2263 144.8403,323.0463 145.4995,323.9351 146.0684,324.8843 146.5415,325.8846 146.9143,326.9265 147.1832,328.0 147.3456,329.0946 147.3999,330.1999 147.3456,331.3051 147.1832,332.3998 146.9143,333.4732 146.5415,334.5151 146.0684,335.5155 145.4995,336.4646 144.8403,337.3535 144.0971,338.1734 143.2772,338.9166 142.3883,339.5758 141.4392,340.1447 140.4388,340.6178 139.3969,340.9906 138.3235,341.2595 137.2288,341.4219 136.1236,341.4762 135.0183,341.4219 133.9237,341.2595 132.8502,340.9906 131.8083,340.6178 130.8079,340.1447 129.8588,339.5758 128.9699,338.9166 128.15,338.1734 127.4069,337.3535 126.7477,336.4646 126.1787,335.5155"/>
    <polygon points="108.1308,327.052 109.1311,327.5251 110.1731,327.898 111.2465,328.1668 112.3411,328.3292 113.4464,328.3835 114.5517,328.3292 115.6463,328.1668 116.7197,327.898 117.7617,327.5251 118.762,327.052 119.7112,326.4831 120.6,325.8239 121.4199,325.0808 122.1631,324.2608 122.8223,323.372 123.3912,322.4228 123.8643,321.4225 124.2371,320.3805 124.506,319.3071 124.6684,318.2125 124.7227,317.1072 124.6684,316.0019 124.506,314.9073 124.2371,313.8339 123.8643,312.7919 123.3912,311.7916 122.8223,310.8424 122.1631,309.9536 121.4199,309.1336 120.6,308.3905 119.7112,307.7313 118.762,307.1624 117.7617,306.6892 116.7197,306.3164 115.6463,306.0476 114.5517,305.8852 113.4464,305.8309 112.3411,305.8852 111.2465,306.0476 110.1731,306.3164 109.1311,306.6892 108.1308,307.1624 107.1816,307.7313 106.2928,308.3905 105.4728,309.1336 104.7297,309.9536 104.0705,310.8424 103.5016,311.7916 103.0284,312.7919 102.6556,313.8339 102.3868,314.9073 102.2244,316.0019 102.1701,317.1072 102.2244,318.2125 102.3868,319.3071 102.6556,320.3805 103.0284,321.4225 103.5016,322.4228 104.0705,323.372 104.7297,324.2608 105.4728,325.0808 106.2928,325.8239 107.1816,326.4831"/>
    <polygon points="99.2511,334.839 99.7013,334.7262 100.1384,334.5698 100.558,334.3713 100.9561,334.1327 101.3289,333.8562 101.6729,333.5445 101.9846,333.2005 102.2611,332.8277 102.4997,332.4296 102.6982,332.0099 102.8546,331.5729 102.9674,331.1226 103.0355,330.6635 103.0583,330.1999 103.0355,329.7362 102.9674,329.2771 102.8546,328.8268 102.6982,328.3898 102.4997,327.9702 102.2611,327.572 101.9846,327.1992 101.6729,326.8553 101.3289,326.5435 100.9561,326.267 100.558,326.0284 100.1384,325.8299 99.7013,325.6736 99.2511,325.5608 98.7919,325.4927 98.3283,325.4699 97.8647,325.4927 97.4055,325.5608 96.9552,325.6736 96.5182,325.8299 96.0986,326.0284 95.7005,326.267 95.3276,326.5435 94.9837,326.8553 94.672,327.1992 94.3955,327.572 94.1568,327.9702 93.9584,328.3898 93.802,328.8268 93.6892,329.2771 93.6211,329.7362 93.5983,330.1999 93.6211,330.6635 93.6892,331.1226 93.802,331.5729 93.9584,332.0099 94.1568,332.4296 94.3955,332.8277 94.672,333.2005 94.9837,333.5445 95.3276,333.8562 95.7005,334.1327 96.0986,334.3713 96.5182,334.5698 96.9552,334.7262 97.4055,334.839 97.8647,334.9071 98.3283,334.9298 98.7919,334.9071"/>
    <polygon points="82.2825,323.1899 82.2597,323.6535 82.2825,324.1172 82.3506,324.5763 82.4634,325.0266 82.6198,325.4636 82.8182,325.8832 83.0569,326.2814 83.3334,326.6542 83.6451,326.9981 83.989,327.3098 84.3619,327.5864 84.76,327.825 85.1796,328.0235 85.6167,328.1798 86.0669,328.2926 86.5261,328.3607 86.9897,328.3835 87.4533,328.3607 87.9125,328.2926 88.3627,328.1798 88.7998,328.0235 89.2194,327.825 89.6175,327.5864 89.9904,327.3098 90.3343,326.9981 90.646,326.6542 90.9225,326.2814 91.1612,325.8832 91.3596,325.4636 91.516,325.0266 91.6288,324.5763 91.6969,324.1172 91.7197,323.6535 91.6969,323.1899 91.6288,322.7308 91.516,322.2805 91.3596,321.8434 91.1612,321.4238 90.9225,321.0257 90.646,320.6529 90.3343,320.3089 89.9904,319.9972 89.6175,319.7207 89.2194,319.4821 88.7998,319.2836 88.3627,319.1272 87.9125,319.0144 87.4533,318.9463 86.9897,318.9236 86.5261,318.9463 86.0669,319.0144 85.6167,319.1272 85.1796,319.2836 84.76,319.4821 84.3619,319.7207 83.989,319.9972 83.6451,320.3089 83.3334,320.6529 83.0569,321.0257 82.8182,321.4238 82.6198,321.8434 82.4634,322.2805 82.3506,322.7308"/>
    <polygon points="58.7162,310.8424 58.1473,311.7916 57.6741,312.7919 57.3013,313.8339 57.0324,314.9073 56.8701,316.0019 56.8158,317.1072 56.8701,318.2125 57.0324,319.3071 57.3013,320.3805 57.6741,321.4225 58.1473,322.4228 58.7162,323.372 59.3754,324.2608 60.1185,325.0808 60.9385,325.8239 61.8273,326.4831 62.7765,327.052 63.7768,327.5251 64.8187,327.898 65.8922,328.1668 66.9868,328.3292 68.0921,328.3835 69.1973,328.3292 70.292,328.1668 71.3654,327.898 72.4073,327.5251 73.4077,327.052 74.3568,326.4831 75.2457,325.8239 76.0656,325.0808 76.8088,324.2608 77.468,323.372 78.0369,322.4228 78.51,321.4225 78.8828,320.3805 79.1517,319.3071 79.3141,318.2125 79.3684,317.1072 79.3141,316.0019 79.1517,314.9073 78.8828,313.8339 78.51,312.7919 78.0369,311.7916 77.468,310.8424 76.8088,309.9536 76.0656,309.1336 75.2457,308.3905 74.3568,307.7313 73.4077,307.1624 72.4073,306.6892 71.3654,306.3164 70.292,306.0476 69.1973,305.8852 68.0921,305.8309 66.9868,305.8852 65.8922,306.0476 64.8187,306.3164 63.7768,306.6892 62.7765,307.1624 61.8273,307.7313 60.9385,308.3905 60.1185,309.1336 59.3754,309.9536"/>
    <polygon points="71.7183,293.5497 71.9948,293.9225 72.3065,294.2665 72.6505,294.5782 73.0233,294.8547 73.4214,295.0933 73.841,295.2918 74.2781,295.4482 74.7283,295.561 75.1875,295.6291 75.6511,295.6518 76.1147,295.6291 76.5739,295.561 77.0242,295.4482 77.4612,295.2918 77.8808,295.0933 78.279,294.8547 78.6518,294.5782 78.9957,294.2665 79.3074,293.9225 79.5839,293.5497 79.8226,293.1516 80.021,292.7319 80.1774,292.2949 80.2902,291.8446 80.3583,291.3855 80.3811,290.9219 80.3583,290.4582 80.2902,289.9991 80.1774,289.5488 80.021,289.1118 79.8226,288.6922 79.5839,288.294 79.3074,287.9212 78.9957,287.5773 78.6518,287.2655 78.279,286.989 77.8808,286.7504 77.4612,286.5519 77.0242,286.3956 76.5739,286.2828 76.1147,286.2147 75.6511,286.1919 75.1875,286.2147 74.7283,286.2828 74.2781,286.3956 73.841,286.5519 73.4214,286.7504 73.0233,286.989 72.6505,287.2655 72.3065,287.5773 71.9948,287.9212 71.7183,288.294 71.4797,288.6922 71.2812,289.1118 71.1248,289.5488 71.012,289.9991 70.9439,290.4582 70.9211,290.9219 70.9439,291.3855 71.012,291.8446 71.1248,292.2949 71.2812,292.7319 71.4797,293.1516"/>
    <polygon points="89.9904,288.0318 90.3343,287.7201 90.646,287.3762 90.9225,287.0034 91.1612,286.6052 91.3596,286.1856 91.516,285.7486 91.6288,285.2983 91.6969,284.8391 91.7197,284.3755 91.6969,283.9119 91.6288,283.4528 91.516,283.0025 91.3596,282.5654 91.1612,282.1458 90.9225,281.7477 90.646,281.3749 90.3343,281.0309 89.9904,280.7192 89.6175,280.4427 89.2194,280.2041 88.7998,280.0056 88.3627,279.8492 87.9125,279.7364 87.4533,279.6683 86.9897,279.6456 86.5261,279.6683 86.0669,279.7364 85.6167,279.8492 85.1796,280.0056 84.76,280.2041 84.3619,280.4427 83.989,280.7192 83.6451,281.0309 83.3334,281.3749 83.0569,281.7477 82.8182,282.1458 82.6198,282.5654 82.4634,283.0025 82.3506,283.4528 82.2825,283.9119 82.2597,284.3755 82.2825,284.8391 82.3506,285.2983 82.4634,285.7486 82.6198,286.1856 82.8182,286.6052 83.0569,287.0034 83.3334,287.3762 83.6451,287.7201 83.989,288.0318 84.3619,288.3084 84.76,288.547 85.1796,288.7455 85.6167,288.9018 86.0669,289.0146 86.5261,289.0827 86.9897,289.1055 87.4533,289.0827 87.9125,289.0146 88.3627,288.9018 88.7998,288.7455 89.2194,288.547 89.6175,288.3084"/>
    <polygon points="98.7428,311.9881 97.9228,312.7312 97.034,313.3904 96.0848,313.9593 95.0845,314.4325 94.0426,314.8053 92.9691,315.0742 91.8745,315.2365 90.7692,315.2908 89.664,315.2365 88.5693,315.0742 87.4959,314.8053 86.454,314.4325 85.4536,313.9593 84.5044,313.3904 83.6156,312.7312 82.7957,311.9881 82.0525,311.1681 81.3933,310.2793 80.8244,309.3301 80.3513,308.3298 79.9785,307.2879 79.7096,306.2144 79.5472,305.1198 79.4929,304.0145 79.5472,302.9093 79.7096,301.8146 79.9785,300.7412 80.3513,299.6993 80.8244,298.6989 81.3933,297.7498 82.0525,296.8609 82.7957,296.041 83.6156,295.2978 84.5044,294.6386 85.4536,294.0697 86.454,293.5966 87.4959,293.2238 88.5693,292.9549 89.664,292.7925 90.7692,292.7382 91.8745,292.7925 92.9691,292.9549 94.0426,293.2238 95.0845,293.5966 96.0848,294.0697 97.034,294.6386 97.9228,295.2978 98.7428,296.041 99.4859,296.8609 100.1451,297.7498 100.714,298.6989 101.1872,299.6993 101.56,300.7412 101.8289,301.8146 101.9912,302.9093 102.0455,304.0145 101.9912,305.1198 101.8289,306.2144 101.56,307.2879 101.1872,308.3298 100.714,309.3301 100.1451,310.2793 99.4859,311.1681"/>
    <polygon points="112.6675,293.8119 113.0115,294.1236 113.3232,294.4675 113.5997,294.8404 113.8383,295.2385 114.0368,295.6581 114.1932,296.0952 114.306,296.5454 114.3741,297.0046 114.3968,297.4682 114.3741,297.9318 114.306,298.391 114.1932,298.8412 114.0368,299.2783 113.8383,299.6979 113.5997,300.096 113.3232,300.4689 113.0115,300.8128 112.6675,301.1245 112.2947,301.401 111.8966,301.6397 111.4769,301.8381 111.0399,301.9945 110.5896,302.1073 110.1305,302.1754 109.6669,302.1982 109.2032,302.1754 108.7441,302.1073 108.2938,301.9945 107.8568,301.8381 107.4372,301.6397 107.039,301.401 106.6662,301.1245 106.3223,300.8128 106.0105,300.4689 105.734,300.096 105.4954,299.6979 105.2969,299.2783 105.1406,298.8412 105.0278,298.391 104.9597,297.9318 104.9369,297.4682 104.9597,297.0046 105.0278,296.5454 105.1406,296.0952 105.2969,295.6581 105.4954,295.2385 105.734,294.8404 106.0105,294.4675 106.3223,294.1236 106.6662,293.8119 107.039,293.5354 107.4372,293.2967 107.8568,293.0983 108.2938,292.9419 108.7441,292.8291 109.2032,292.761 109.6669,292.7382 110.1305,292.761 110.5896,292.8291 111.0399,292.9419 111.4769,293.0983 111.8966,293.2967 112.2947,293.5354"/>
    <polygon points="170.8861,237.1782 170.9989,237.6284 171.067,238.0876 171.0898,238.5512 171.067,239.0148 170.9989,239.474 170.8861,239.9242 170.7297,240.3613 170.5312,240.7809 170.2926,241.179 170.0161,241.5519 169.7044,241.8958 169.3604,242.2075 168.9876,242.484 168.5895,242.7227 168.1699,242.9211 167.7328,243.0775 167.2826,243.1903 166.8234,243.2584 166.3598,243.2812 165.8962,243.2584 165.437,243.1903 164.9867,243.0775 164.5497,242.9211 164.1301,242.7227 163.7319,242.484 163.3591,242.2075 163.0152,241.8958 162.7035,241.5519 162.427,241.179 162.1883,240.7809 161.9899,240.3613 161.8335,239.9242 161.7207,239.474 161.6526,239.0148 161.6298,238.5512 161.6526,238.0876 161.7207,237.6284 161.8335,237.1782 161.9899,236.7411 162.1883,236.3215 162.427,235.9234 162.7035,235.5505 163.0152,235.2066 163.3591,234.8949 163.7319,234.6184 164.1301,234.3797 164.5497,234.1813 164.9867,234.0249 165.437,233.9121 165.8962,233.844 166.3598,233.8212 166.8234,233.844 167.2826,233.9121 167.7328,234.0249 168.1699,234.1813 168.5895,234.3797 168.9876,234.6184 169.3604,234.8949 169.7044,235.2066 170.0161,235.5505 170.2926,235.9234 170.5312,236.3215 170.7297,236.7411"/>
    <polygon points="171.0599,247.3286 171.5331,246.3282 172.102,245.3791 172.7612,244.4902 173.5043,243.6703 174.3243,242.9272 175.2131,242.268 176.1623,241.699 177.1626,241.2259 178.2046,240.8531 179.278,240.5842 180.3726,240.4219 181.4779,240.3676 182.5832,240.4219 183.6778,240.5842 184.7512,240.8531 185.7931,241.2259 186.7935,241.699 187.7427,242.268 188.6315,242.9272 189.4514,243.6703 190.1946,244.4902 190.8538,245.3791 191.4227,246.3282 191.8958,247.3286 192.2686,248.3705 192.5375,249.444 192.6999,250.5386 192.7542,251.6439 192.6999,252.7491 192.5375,253.8438 192.2686,254.9172 191.8958,255.9591 191.4227,256.9595 190.8538,257.9086 190.1946,258.7975 189.4514,259.6174 188.6315,260.3606 187.7427,261.0198 186.7935,261.5887 185.7931,262.0618 184.7512,262.4346 183.6778,262.7035 182.5832,262.8659 181.4779,262.9202 180.3726,262.8659 179.278,262.7035 178.2046,262.4346 177.1626,262.0618 176.1623,261.5887 175.2131,261.0198 174.3243,260.3606 173.5043,259.6174 172.7612,258.7975 172.102,257.9086 171.5331,256.9595 171.0599,255.9591 170.6871,254.9172 170.4183,253.8438 170.2559,252.7491 170.2016,251.6439 170.2559,250.5386 170.4183,249.444 170.6871,248.3705"/>
    <polygon points="190.7288,304.0145 190.6114,306.4031 190.2605,308.7687 189.6794,311.0885 188.8738,313.3401 187.8513,315.502 186.6218,317.5532 185.1973,319.474 183.5912,321.246 181.8193,322.852 179.8985,324.2766 177.8472,325.506 175.6854,326.5285 173.4337,327.3342 171.1139,327.9153 168.7484,328.2662 166.3598,328.3835 163.9712,328.2662 161.6056,327.9153 159.2858,327.3342 157.0342,326.5285 154.8723,325.506 152.8211,324.2766 150.9003,322.852 149.1283,321.246 147.5223,319.474 146.0977,317.5532 144.8683,315.502 143.8458,313.3401 143.0401,311.0885 142.4591,308.7687 142.1082,306.4031 141.9908,304.0145 142.1082,301.626 142.4591,299.2604 143.0401,296.9406 143.8458,294.6889 144.8683,292.5271 146.0977,290.4759 147.5223,288.555 149.1283,286.7831 150.9003,285.1771 152.8211,283.7525 154.8723,282.523 157.0342,281.5005 159.2858,280.6949 161.6056,280.1138 163.9712,279.7629 166.3598,279.6456 168.7484,279.7629 171.1139,280.1138 173.4337,280.6949 175.6854,281.5005 177.8472,282.523 179.8985,283.7525 181.8193,285.1771 183.5912,286.7831 185.1973,288.555 186.6218,290.4759 187.8513,292.5271 188.8738,294.6889 189.6794,296.9406 190.2605,299.2604 190.6114,301.626"/>
    <polygon points="234.2281,339.5255 233.2056,341.6873 231.9762,343.7385 230.5516,345.6594 228.9456,347.4313 227.1736,349.0373 225.2528,350.4619 223.2016,351.6914 221.0397,352.7139 218.7881,353.5195 216.4683,354.1006 214.1027,354.4515 211.7141,354.5688 209.3255,354.4515 206.96,354.1006 204.6402,353.5195 202.3885,352.7139 200.2267,351.6914 198.1754,350.4619 196.2546,349.0373 194.4826,347.4313 192.8766,345.6594 191.4521,343.7385 190.2226,341.6873 189.2001,339.5255 188.3945,337.2738 187.8134,334.954 187.4625,332.5884 187.3451,330.1999 187.4625,327.8113 187.8134,325.4457 188.3945,323.1259 189.2001,320.8743 190.2226,318.7124 191.4521,316.6612 192.8766,314.7404 194.4826,312.9684 196.2546,311.3624 198.1754,309.9378 200.2267,308.7083 202.3885,307.6859 204.6402,306.8802 206.96,306.2991 209.3255,305.9482 211.7141,305.8309 214.1027,305.9482 216.4683,306.2991 218.7881,306.8802 221.0397,307.6859 223.2016,308.7083 225.2528,309.9378 227.1736,311.3624 228.9456,312.9684 230.5516,314.7404 231.9762,316.6612 233.2056,318.7124 234.2281,320.8743 235.0338,323.1259 235.6148,325.4457 235.9657,327.8113 236.0831,330.1999 235.9657,332.5884 235.6148,334.954 235.0338,337.2738"/>
    <polygon points="242.3853,307.2163 242.0735,307.5602 241.797,307.933 241.5584,308.3312 241.3599,308.7508 241.2036,309.1878 241.0908,309.6381 241.0227,310.0972 240.9999,310.5609 241.0227,311.0245 241.0908,311.4836 241.2036,311.9339 241.3599,312.3709 241.5584,312.7906 241.797,313.1887 242.0735,313.5615 242.3853,313.9055 242.7292,314.2172 243.102,314.4937 243.5002,314.7323 243.9198,314.9308 244.3568,315.0872 244.8071,315.2 245.2662,315.2681 245.7299,315.2908 246.1935,315.2681 246.6526,315.2 247.1029,315.0872 247.5399,314.9308 247.9596,314.7323 248.3577,314.4937 248.7305,314.2172 249.0745,313.9055 249.3862,313.5615 249.6627,313.1887 249.9013,312.7906 250.0998,312.3709 250.2562,311.9339 250.3689,311.4836 250.4371,311.0245 250.4598,310.5609 250.4371,310.0972 250.3689,309.6381 250.2562,309.1878 250.0998,308.7508 249.9013,308.3312 249.6627,307.933 249.3862,307.5602 249.0745,307.2163 248.7305,306.9045 248.3577,306.628 247.9596,306.3894 247.5399,306.1909 247.1029,306.0346 246.6526,305.9218 246.1935,305.8537 245.7299,305.8309 245.2662,305.8537 244.8071,305.9218 244.3568,306.0346 243.9198,306.1909 243.5002,306.3894 243.102,306.628 242.7292,306.9045"/>
    <polygon points="263.7679,296.5454 263.6998,297.0046 263.6771,297.4682 263.6998,297.9318 263.7679,298.391 263.8807,298.8412 264.0371,299.2783 264.2356,299.6979 264.4742,300.096 264.7507,300.4689 265.0624,300.8128 265.4064,301.1245 265.7792,301.401 266.1773,301.6397 266.5969,301.8381 267.034,301.9945 267.4843,302.1073 267.9434,302.1754 268.407,302.1982 268.8706,302.1754 269.3298,302.1073 269.7801,301.9945 270.2171,301.8381 270.6367,301.6397 271.0349,301.401 271.4077,301.1245 271.7516,300.8128 272.0633,300.4689 272.3399,300.096 272.5785,299.6979 272.777,299.2783 272.9333,298.8412 273.0461,298.391 273.1142,297.9318 273.137,297.4682 273.1142,297.0046 273.0461,296.5454 272.9333,296.0952 272.777,295.6581 272.5785,295.2385 272.3399,294.8404 272.0633,294.4675 271.7516,294.1236 271.4077,293.8119 271.0349,293.5354 270.6367,293.2967 270.2171,293.0983 269.7801,292.9419 269.3298,292.8291 268.8706,292.761 268.407,292.7382 267.9434,292.761 267.4843,292.8291 267.034,292.9419 266.5969,293.0983 266.1773,293.2967 265.7792,293.5354 265.4064,293.8119 265.0624,294.1236 264.7507,294.4675 264.4742,294.8404 264.2356,295.2385 264.0371,295.6581 263.8807,296.0952"/>
    <polygon points="230.5516,293.2887 228.9456,295.0607 227.1736,296.6667 225.2528,298.0913 223.2016,299.3207 221.0397,300.3432 218.7881,301.1488 216.4683,301.7299 214.1027,302.0808 211.7141,302.1982 209.3255,302.0808 206.96,301.7299 204.6402,301.1488 202.3885,300.3432 200.2267,299.3207 198.1754,298.0913 196.2546,296.6667 194.4826,295.0607 192.8766,293.2887 191.4521,291.3679 190.2226,289.3167 189.2001,287.1548 188.3945,284.9031 187.8134,282.5833 187.4625,280.2178 187.3451,277.8292 187.4625,275.4406 187.8134,273.075 188.3945,270.7553 189.2001,268.5036 190.2226,266.3417 191.4521,264.2905 192.8766,262.3697 194.4826,260.5977 196.2546,258.9917 198.1754,257.5671 200.2267,256.3377 202.3885,255.3152 204.6402,254.5095 206.96,253.9285 209.3255,253.5776 211.7141,253.4602 214.1027,253.5776 216.4683,253.9285 218.7881,254.5095 221.0397,255.3152 223.2016,256.3377 225.2528,257.5671 227.1736,258.9917 228.9456,260.5977 230.5516,262.3697 231.9762,264.2905 233.2056,266.3417 234.2281,268.5036 235.0338,270.7553 235.6148,273.075 235.9657,275.4406 236.0831,277.8292 235.9657,280.2178 235.6148,282.5833 235.0338,284.9031 234.2281,287.1548 233.2056,289.3167 231.9762,291.3679"/>
    <polygon points="240.7927,283.7682 241.5358,282.9483 242.3558,282.2052 243.2446,281.546 244.1938,280.977 245.1941,280.5039 246.236,280.1311 247.3095,279.8622 248.4041,279.6999 249.5094,279.6456 250.6147,279.6999 251.7093,279.8622 252.7827,280.1311 253.8246,280.5039 254.825,280.977 255.7742,281.546 256.663,282.2052 257.4829,282.9483 258.2261,283.7682 258.8853,284.6571 259.4542,285.6062 259.9273,286.6066 260.3001,287.6485 260.569,288.722 260.7314,289.8166 260.7857,290.9219 260.7314,292.0271 260.569,293.1218 260.3001,294.1952 259.9273,295.2371 259.4542,296.2375 258.8853,297.1866 258.2261,298.0755 257.4829,298.8954 256.663,299.6386 255.7742,300.2978 254.825,300.8667 253.8246,301.3398 252.7827,301.7126 251.7093,301.9815 250.6147,302.1439 249.5094,302.1982 248.4041,302.1439 247.3095,301.9815 246.236,301.7126 245.1941,301.3398 244.1938,300.8667 243.2446,300.2978 242.3558,299.6386 241.5358,298.8954 240.7927,298.0755 240.1335,297.1866 239.5646,296.2375 239.0914,295.2371 238.7186,294.1952 238.4498,293.1218 238.2874,292.0271 238.2331,290.9219 238.2874,289.8166 238.4498,288.722 238.7186,287.6485 239.0914,286.6066 239.5646,285.6062 240.1335,284.6571"/>
    <polygon points="232.8168,254.0324 232.6995,251.6439 232.8168,249.2553 233.1677,246.8897 233.7488,244.5699 234.5544,242.3183 235.5769,240.1564 236.8064,238.1052 238.231,236.1843 239.837,234.4124 241.6089,232.8064 243.5298,231.3818 245.581,230.1523 247.7428,229.1299 249.9945,228.3242 252.3143,227.7431 254.6799,227.3922 257.0684,227.2749 259.457,227.3922 261.8226,227.7431 264.1424,228.3242 266.394,229.1299 268.5559,230.1523 270.6071,231.3818 272.528,232.8064 274.2999,234.4124 275.9059,236.1843 277.3305,238.1052 278.56,240.1564 279.5824,242.3183 280.3881,244.5699 280.9692,246.8897 281.3201,249.2553 281.4374,251.6439 281.3201,254.0324 280.9692,256.398 280.3881,258.7178 279.5824,260.9695 278.56,263.1313 277.3305,265.1825 275.9059,267.1034 274.2999,268.8753 272.528,270.4813 270.6071,271.9059 268.5559,273.1354 266.394,274.1579 264.1424,274.9635 261.8226,275.5446 259.457,275.8955 257.0684,276.0128 254.6799,275.8955 252.3143,275.5446 249.9945,274.9635 247.7428,274.1579 245.581,273.1354 243.5298,271.9059 241.6089,270.4813 239.837,268.8753 238.231,267.1034 236.8064,265.1825 235.5769,263.1313 234.5544,260.9695 233.7488,258.7178 233.1677,256.398"/>
    <polygon points="235.0338,218.3846 235.6148,220.7044 235.9657,223.0699 236.0831,225.4585 235.9657,227.8471 235.6148,230.2127 235.0338,232.5325 234.2281,234.7841 233.2056,236.946 231.9762,238.9972 230.5516,240.918 228.9456,242.69 227.1736,244.296 225.2528,245.7206 223.2016,246.95 221.0397,247.9725 218.7881,248.7782 216.4683,249.3593 214.1027,249.7102 211.7141,249.8275 209.3255,249.7102 206.96,249.3593 204.6402,248.7782 202.3885,247.9725 200.2267,246.95 198.1754,245.7206 196.2546,244.296 194.4826,242.69 192.8766,240.918 191.4521,238.9972 190.2226,236.946 189.2001,234.7841 188.3945,232.5325 187.8134,230.2127 187.4625,227.8471 187.3451,225.4585 187.4625,223.0699 187.8134,220.7044 188.3945,218.3846 189.2001,216.1329 190.2226,213.9711 191.4521,211.9198 192.8766,209.999 194.4826,208.2271 196.2546,206.6211 198.1754,205.1965 200.2267,203.967 202.3885,202.9445 204.6402,202.1389 206.96,201.5578 209.3255,201.2069 211.7141,201.0896 214.1027,201.2069 216.4683,201.5578 218.7881,202.1389 221.0397,202.9445 223.2016,203.967 225.2528,205.1965 227.1736,206.6211 228.9456,208.2271 230.5516,209.999 231.9762,211.9198 233.2056,213.9711 234.2281,216.1329"/>
    <polygon points="222.517,183.5058 223.5589,183.8786 224.6323,184.1475 225.727,184.3099 226.8322,184.3642 227.9375,184.3099 229.0321,184.1475 230.1056,183.8786 231.1475,183.5058 232.1478,183.0327 233.097,182.4638 233.9858,181.8046 234.8058,181.0614 235.5489,180.2415 236.2081,179.3526 236.777,178.4035 237.2502,177.4031 237.623,176.3612 237.8919,175.2878 238.0542,174.1931 238.1085,173.0879 238.0542,171.9826 237.8919,170.888 237.623,169.8145 237.2502,168.7726 236.777,167.7722 236.2081,166.8231 235.5489,165.9342 234.8058,165.1143 233.9858,164.3712 233.097,163.7119 232.1478,163.143 231.1475,162.6699 230.1056,162.2971 229.0321,162.0282 227.9375,161.8658 226.8322,161.8115 225.727,161.8658 224.6323,162.0282 223.5589,162.2971 222.517,162.6699 221.5166,163.143 220.5674,163.7119 219.6786,164.3712 218.8587,165.1143 218.1155,165.9342 217.4563,166.8231 216.8874,167.7722 216.4143,168.7726 216.0415,169.8145 215.7726,170.888 215.6102,171.9826 215.5559,173.0879 215.6102,174.1931 215.7726,175.2878 216.0415,176.3612 216.4143,177.4031 216.8874,178.4035 217.4563,179.3526 218.1155,180.2415 218.8587,181.0614 219.6786,181.8046 220.5674,182.4638 221.5166,183.0327"/>
    <polygon points="212.1777,190.8877 212.6369,190.8196 213.0872,190.7068 213.5242,190.5504 213.9438,190.352 214.3419,190.1134 214.7148,189.8368 215.0587,189.5251 215.3704,189.1812 215.6469,188.8084 215.8856,188.4102 216.084,187.9906 216.2404,187.5536 216.3532,187.1033 216.4213,186.6441 216.4441,186.1805 216.4213,185.7169 216.3532,185.2578 216.2404,184.8075 216.084,184.3704 215.8856,183.9508 215.6469,183.5527 215.3704,183.1799 215.0587,182.8359 214.7148,182.5242 214.3419,182.2477 213.9438,182.0091 213.5242,181.8106 213.0872,181.6542 212.6369,181.5414 212.1777,181.4733 211.7141,181.4506 211.2505,181.4733 210.7913,181.5414 210.3411,181.6542 209.904,181.8106 209.4844,182.0091 209.0863,182.2477 208.7134,182.5242 208.3695,182.8359 208.0578,183.1799 207.7813,183.5527 207.5426,183.9508 207.3442,184.3704 207.1878,184.8075 207.075,185.2578 207.0069,185.7169 206.9841,186.1805 207.0069,186.6441 207.075,187.1033 207.1878,187.5536 207.3442,187.9906 207.5426,188.4102 207.7813,188.8084 208.0578,189.1812 208.3695,189.5251 208.7134,189.8368 209.0863,190.1134 209.4844,190.352 209.904,190.5504 210.3411,190.7068 210.7913,190.8196 211.2505,190.8877 211.7141,190.9105"/>
    <polygon points="197.0309,189.3823 196.7192,189.7262 196.4427,190.099 196.2041,190.4972 196.0056,190.9168 195.8492,191.3538 195.7364,191.8041 195.6683,192.2632 195.6456,192.7269 195.6683,193.1905 195.7364,193.6496 195.8492,194.0999 196.0056,194.5369 196.2041,194.9566 196.4427,195.3547 196.7192,195.7275 197.0309,196.0715 197.3749,196.3832 197.7477,196.6597 198.1458,196.8983 198.5654,197.0968 199.0025,197.2532 199.4528,197.3659 199.9119,197.4341 200.3755,197.4568 200.8391,197.4341 201.2983,197.3659 201.7486,197.2532 202.1856,197.0968 202.6052,196.8983 203.0034,196.6597 203.3762,196.3832 203.7201,196.0715 204.0318,195.7275 204.3084,195.3547 204.547,194.9566 204.7455,194.5369 204.9018,194.0999 205.0146,193.6496 205.0827,193.1905 205.1055,192.7269 205.0827,192.2632 205.0146,191.8041 204.9018,191.3538 204.7455,190.9168 204.547,190.4972 204.3084,190.099 204.0318,189.7262 203.7201,189.3823 203.3762,189.0705 203.0034,188.794 202.6052,188.5554 202.1856,188.3569 201.7486,188.2006 201.2983,188.0878 200.8391,188.0197 200.3755,187.9969 199.9119,188.0197 199.4528,188.0878 199.0025,188.2006 198.5654,188.3569 198.1458,188.5554 197.7477,188.794 197.3749,189.0705"/>
    <polygon points="205.0827,152.9852 205.0146,152.5261 204.9018,152.0758 204.7455,151.6388 204.547,151.2192 204.3084,150.821 204.0318,150.4482 203.7201,150.1043 203.3762,149.7925 203.0034,149.516 202.6052,149.2774 202.1856,149.0789 201.7486,148.9226 201.2983,148.8098 200.8391,148.7417 200.3755,148.7189 199.9119,148.7417 199.4528,148.8098 199.0025,148.9226 198.5654,149.0789 198.1458,149.2774 197.7477,149.516 197.3749,149.7925 197.0309,150.1043 196.7192,150.4482 196.4427,150.821 196.2041,151.2192 196.0056,151.6388 195.8492,152.0758 195.7364,152.5261 195.6683,152.9852 195.6456,153.4489 195.6683,153.9125 195.7364,154.3716 195.8492,154.8219 196.0056,155.2589 196.2041,155.6785 196.4427,156.0767 196.7192,156.4495 197.0309,156.7934 197.3749,157.1052 197.7477,157.3817 198.1458,157.6203 198.5654,157.8188 199.0025,157.9752 199.4528,158.0879 199.9119,158.1561 200.3755,158.1788 200.8391,158.1561 201.2983,158.0879 201.7486,157.9752 202.1856,157.8188 202.6052,157.6203 203.0034,157.3817 203.3762,157.1052 203.7201,156.7934 204.0318,156.4495 204.3084,156.0767 204.547,155.6785 204.7455,155.2589 204.9018,154.8219 205.0146,154.3716 205.0827,153.9125 205.1055,153.4489"/>
    <polygon points="207.0069,147.3661 207.075,147.8253 207.1878,148.2756 207.3442,148.7126 207.5426,149.1322 207.7813,149.5304 208.0578,149.9032 208.3695,150.2471 208.7134,150.5588 209.0863,150.8353 209.4844,151.074 209.904,151.2724 210.3411,151.4288 210.7913,151.5416 211.2505,151.6097 211.7141,151.6325 212.1777,151.6097 212.6369,151.5416 213.0872,151.4288 213.5242,151.2724 213.9438,151.074 214.3419,150.8353 214.7148,150.5588 215.0587,150.2471 215.3704,149.9032 215.6469,149.5304 215.8856,149.1322 216.084,148.7126 216.2404,148.2756 216.3532,147.8253 216.4213,147.3661 216.4441,146.9025 216.4213,146.4389 216.3532,145.9797 216.2404,145.5295 216.084,145.0924 215.8856,144.6728 215.6469,144.2747 215.3704,143.9019 215.0587,143.5579 214.7148,143.2462 214.3419,142.9697 213.9438,142.7311 213.5242,142.5326 213.0872,142.3762 212.6369,142.2634 212.1777,142.1953 211.7141,142.1725 211.2505,142.1953 210.7913,142.2634 210.3411,142.3762 209.904,142.5326 209.4844,142.7311 209.0863,142.9697 208.7134,143.2462 208.3695,143.5579 208.0578,143.9019 207.7813,144.2747 207.5426,144.6728 207.3442,145.0924 207.1878,145.5295 207.075,145.9797 207.0069,146.4389 206.9841,146.9025"/>
    <polygon points="212.1777,155.288 212.6369,155.3561 213.0872,155.4689 213.5242,155.6253 213.9438,155.8237 214.3419,156.0624 214.7148,156.3389 215.0587,156.6506 215.3704,156.9945 215.6469,157.3674 215.8856,157.7655 216.084,158.1851 216.2404,158.6221 216.3532,159.0724 216.4213,159.5316 216.4441,159.9952 216.4213,160.4588 216.3532,160.918 216.2404,161.3682 216.084,161.8053 215.8856,162.2249 215.6469,162.623 215.3704,162.9959 215.0587,163.3398 214.7148,163.6515 214.3419,163.928 213.9438,164.1667 213.5242,164.3651 213.0872,164.5215 212.6369,164.6343 212.1777,164.7024 211.7141,164.7252 211.2505,164.7024 210.7913,164.6343 210.3411,164.5215 209.904,164.3651 209.4844,164.1667 209.0863,163.928 208.7134,163.6515 208.3695,163.3398 208.0578,162.9959 207.7813,162.623 207.5426,162.2249 207.3442,161.8053 207.1878,161.3682 207.075,160.918 207.0069,160.4588 206.9841,159.9952 207.0069,159.5316 207.075,159.0724 207.1878,158.6221 207.3442,158.1851 207.5426,157.7655 207.7813,157.3674 208.0578,156.9945 208.3695,156.6506 208.7134,156.3389 209.0863,156.0624 209.4844,155.8237 209.904,155.6253 210.3411,155.4689 210.7913,155.3561 211.2505,155.288 211.7141,155.2652"/>
    <polygon points="222.5891,148.7417 223.0527,148.7189 223.5163,148.7417 223.9755,148.8098 224.4257,148.9226 224.8628,149.0789 225.2824,149.2774 225.6805,149.516 226.0534,149.7925 226.3973,150.1043 226.709,150.4482 226.9855,150.821 227.2242,151.2192 227.4226,151.6388 227.579,152.0758 227.6918,152.5261 227.7599,152.9852 227.7827,153.4489 227.7599,153.9125 227.6918,154.3716 227.579,154.8219 227.4226,155.2589 227.2242,155.6785 226.9855,156.0767 226.709,156.4495 226.3973,156.7934 226.0534,157.1052 225.6805,157.3817 225.2824,157.6203 224.8628,157.8188 224.4257,157.9752 223.9755,158.0879 223.5163,158.1561 223.0527,158.1788 222.5891,158.1561 222.1299,158.0879 221.6797,157.9752 221.2426,157.8188 220.823,157.6203 220.4249,157.3817 220.052,157.1052 219.7081,156.7934 219.3964,156.4495 219.1199,156.0767 218.8812,155.6785 218.6828,155.2589 218.5264,154.8219 218.4136,154.3716 218.3455,153.9125 218.3227,153.4489 218.3455,152.9852 218.4136,152.5261 218.5264,152.0758 218.6828,151.6388 218.8812,151.2192 219.1199,150.821 219.3964,150.4482 219.7081,150.1043 220.052,149.7925 220.4249,149.516 220.823,149.2774 221.2426,149.0789 221.6797,148.9226 222.1299,148.8098"/>
    <polygon points="220.052,136.6999 220.4249,136.4234 220.823,136.1847 221.2426,135.9863 221.6797,135.8299 222.1299,135.7171 222.5891,135.649 223.0527,135.6262 223.5163,135.649 223.9755,135.7171 224.4257,135.8299 224.8628,135.9863 225.2824,136.1847 225.6805,136.4234 226.0534,136.6999 226.3973,137.0116 226.709,137.3555 226.9855,137.7284 227.2242,138.1265 227.4226,138.5461 227.579,138.9831 227.6918,139.4334 227.7599,139.8926 227.7827,140.3562 227.7599,140.8198 227.6918,141.279 227.579,141.7292 227.4226,142.1663 227.2242,142.5859 226.9855,142.984 226.709,143.3568 226.3973,143.7008 226.0534,144.0125 225.6805,144.289 225.2824,144.5276 224.8628,144.7261 224.4257,144.8825 223.9755,144.9953 223.5163,145.0634 223.0527,145.0862 222.5891,145.0634 222.1299,144.9953 221.6797,144.8825 221.2426,144.7261 220.823,144.5276 220.4249,144.289 220.052,144.0125 219.7081,143.7008 219.3964,143.3568 219.1199,142.984 218.8812,142.5859 218.6828,142.1663 218.5264,141.7292 218.4136,141.279 218.3455,140.8198 218.3227,140.3562 218.3455,139.8926 218.4136,139.4334 218.5264,138.9831 218.6828,138.5461 218.8812,138.1265 219.1199,137.7284 219.3964,137.3555 219.7081,137.0116"/>
    <polygon points="237.0191,137.7427 236.621,137.9813 236.2014,138.1798 235.7643,138.3362 235.314,138.4489 234.8549,138.517 234.3913,138.5398 233.9277,138.517 233.4685,138.4489 233.0182,138.3362 232.5812,138.1798 232.1616,137.9813 231.7634,137.7427 231.3906,137.4662 231.0467,137.1544 230.735,136.8105 230.4584,136.4377 230.2198,136.0395 230.0214,135.6199 229.865,135.1829 229.7522,134.7326 229.6841,134.2735 229.6613,133.8099 229.6841,133.3462 229.7522,132.8871 229.865,132.4368 230.0214,131.9998 230.2198,131.5802 230.4584,131.182 230.735,130.8092 231.0467,130.4653 231.3906,130.1535 231.7634,129.877 232.1616,129.6384 232.5812,129.4399 233.0182,129.2836 233.4685,129.1708 233.9277,129.1027 234.3913,129.0799 234.8549,129.1027 235.314,129.1708 235.7643,129.2836 236.2014,129.4399 236.621,129.6384 237.0191,129.877 237.3919,130.1535 237.7359,130.4653 238.0476,130.8092 238.3241,131.182 238.5627,131.5802 238.7612,131.9998 238.9176,132.4368 239.0304,132.8871 239.0985,133.3462 239.1212,133.8099 239.0985,134.2735 239.0304,134.7326 238.9176,135.1829 238.7612,135.6199 238.5627,136.0395 238.3241,136.4377 238.0476,136.8105 237.7359,137.1544 237.3919,137.4662"/>
    <polygon points="245.2662,145.0634 244.8071,144.9953 244.3568,144.8825 243.9198,144.7261 243.5002,144.5276 243.102,144.289 242.7292,144.0125 242.3853,143.7008 242.0735,143.3568 241.797,142.984 241.5584,142.5859 241.3599,142.1663 241.2036,141.7292 241.0908,141.279 241.0227,140.8198 240.9999,140.3562 241.0227,139.8926 241.0908,139.4334 241.2036,138.9831 241.3599,138.5461 241.5584,138.1265 241.797,137.7284 242.0735,137.3555 242.3853,137.0116 242.7292,136.6999 243.102,136.4234 243.5002,136.1847 243.9198,135.9863 244.3568,135.8299 244.8071,135.7171 245.2662,135.649 245.7299,135.6262 246.1935,135.649 246.6526,135.7171 247.1029,135.8299 247.5399,135.9863 247.9596,136.1847 248.3577,136.4234 248.7305,136.6999 249.0745,137.0116 249.3862,137.3555 249.6627,137.7284 249.9013,138.1265 250.0998,138.5461 250.2562,138.9831 250.3689,139.4334 250.4371,139.8926 250.4598,140.3562 250.4371,140.8198 250.3689,141.279 250.2562,141.7292 250.0998,142.1663 249.9013,142.5859 249.6627,142.984 249.3862,143.3568 249.0745,143.7008 248.7305,144.0125 248.3577,144.289 247.9596,144.5276 247.5399,144.7261 247.1029,144.8825 246.6526,144.9953 246.1935,145.0634 245.7299,145.0862"/>
    <polygon points="247.3095,171.0548 246.236,170.7859 245.1941,170.4131 244.1938,169.94 243.2446,169.3711 242.3558,168.7119 241.5358,167.9687 240.7927,167.1488 240.1335,166.26 239.5646,165.3108 239.0914,164.3104 238.7186,163.2685 238.4498,162.1951 238.2874,161.1005 238.2331,159.9952 238.2874,158.8899 238.4498,157.7953 238.7186,156.7218 239.0914,155.6799 239.5646,154.6796 240.1335,153.7304 240.7927,152.8416 241.5358,152.0216 242.3558,151.2785 243.2446,150.6193 244.1938,150.0504 245.1941,149.5772 246.236,149.2044 247.3095,148.9356 248.4041,148.7732 249.5094,148.7189 250.6147,148.7732 251.7093,148.9356 252.7827,149.2044 253.8246,149.5772 254.825,150.0504 255.7742,150.6193 256.663,151.2785 257.4829,152.0216 258.2261,152.8416 258.8853,153.7304 259.4542,154.6796 259.9273,155.6799 260.3001,156.7218 260.569,157.7953 260.7314,158.8899 260.7857,159.9952 260.7314,161.1005 260.569,162.1951 260.3001,163.2685 259.9273,164.3104 259.4542,165.3108 258.8853,166.26 258.2261,167.1488 257.4829,167.9687 256.663,168.7119 255.7742,169.3711 254.825,169.94 253.8246,170.4131 252.7827,170.7859 251.7093,171.0548 250.6147,171.2172 249.5094,171.2715 248.4041,171.2172"/>
    <polygon points="275.9059,183.8137 274.2999,182.0417 272.528,180.4357 270.6071,179.0111 268.5559,177.7817 266.394,176.7592 264.1424,175.9535 261.8226,175.3725 259.457,175.0216 257.0684,174.9042 254.6799,175.0216 252.3143,175.3725 249.9945,175.9535 247.7428,176.7592 245.581,177.7817 243.5298,179.0111 241.6089,180.4357 239.837,182.0417 238.231,183.8137 236.8064,185.7345 235.5769,187.7857 234.5544,189.9476 233.7488,192.1993 233.1677,194.519 232.8168,196.8846 232.6995,199.2732 232.8168,201.6618 233.1677,204.0273 233.7488,206.3471 234.5544,208.5988 235.5769,210.7606 236.8064,212.8119 238.231,214.7327 239.837,216.5047 241.6089,218.1107 243.5298,219.5353 245.581,220.7647 247.7428,221.7872 249.9945,222.5928 252.3143,223.1739 254.6799,223.5248 257.0684,223.6422 259.457,223.5248 261.8226,223.1739 264.1424,222.5928 266.394,221.7872 268.5559,220.7647 270.6071,219.5353 272.528,218.1107 274.2999,216.5047 275.9059,214.7327 277.3305,212.8119 278.56,210.7606 279.5824,208.5988 280.3881,206.3471 280.9692,204.0273 281.3201,201.6618 281.4374,199.2732 281.3201,196.8846 280.9692,194.519 280.3881,192.1993 279.5824,189.9476 278.56,187.7857 277.3305,185.7345"/>
    <polygon points="286.4451,167.4643 286.377,167.0051 286.3542,166.5415 286.377,166.0779 286.4451,165.6187 286.5579,165.1685 286.7143,164.7314 286.9127,164.3118 287.1514,163.9137 287.4279,163.5409 287.7396,163.1969 288.0835,162.8852 288.4564,162.6087 288.8545,162.3701 289.2741,162.1716 289.7112,162.0152 290.1614,161.9024 290.6206,161.8343 291.0842,161.8115 291.5478,161.8343 292.007,161.9024 292.4572,162.0152 292.8943,162.1716 293.3139,162.3701 293.712,162.6087 294.0849,162.8852 294.4288,163.1969 294.7405,163.5409 295.017,163.9137 295.2557,164.3118 295.4541,164.7314 295.6105,165.1685 295.7233,165.6187 295.7914,166.0779 295.8142,166.5415 295.7914,167.0051 295.7233,167.4643 295.6105,167.9146 295.4541,168.3516 295.2557,168.7712 295.017,169.1694 294.7405,169.5422 294.4288,169.8861 294.0849,170.1978 293.712,170.4743 293.3139,170.713 292.8943,170.9114 292.4572,171.0678 292.007,171.1806 291.5478,171.2487 291.0842,171.2715 290.6206,171.2487 290.1614,171.1806 289.7112,171.0678 289.2741,170.9114 288.8545,170.713 288.4564,170.4743 288.0835,170.1978 287.7396,169.8861 287.4279,169.5422 287.1514,169.1694 286.9127,168.7712 286.7143,168.3516 286.5579,167.9146"/>
    <polygon points="304.2396,192.4453 303.5804,193.3341 302.8373,194.1541 302.0173,194.8972 301.1285,195.5564 300.1793,196.1253 299.179,196.5985 298.1371,196.9713 297.0636,197.2402 295.969,197.4025 294.8637,197.4568 293.7584,197.4025 292.6638,197.2402 291.5904,196.9713 290.5485,196.5985 289.5481,196.1253 288.5989,195.5564 287.7101,194.8972 286.8902,194.1541 286.147,193.3341 285.4878,192.4453 284.9189,191.4961 284.4458,190.4958 284.073,189.4539 283.8041,188.3804 283.6417,187.2858 283.5874,186.1805 283.6417,185.0753 283.8041,183.9806 284.073,182.9072 284.4458,181.8653 284.9189,180.8649 285.4878,179.9157 286.147,179.0269 286.8902,178.207 287.7101,177.4638 288.5989,176.8046 289.5481,176.2357 290.5485,175.7626 291.5904,175.3898 292.6638,175.1209 293.7584,174.9585 294.8637,174.9042 295.969,174.9585 297.0636,175.1209 298.1371,175.3898 299.179,175.7626 300.1793,176.2357 301.1285,176.8046 302.0173,177.4638 302.8373,178.207 303.5804,179.0269 304.2396,179.9157 304.8085,180.8649 305.2817,181.8653 305.6545,182.9072 305.9234,183.9806 306.0857,185.0753 306.14,186.1805 306.0857,187.2858 305.9234,188.3804 305.6545,189.4539 305.2817,190.4958 304.8085,191.4961"/>
    <polygon points="309.0542,179.1706 309.1223,178.7114 309.2351,178.2612 309.3914,177.8241 309.5899,177.4045 309.8285,177.0064 310.105,176.6335 310.4168,176.2896 310.7607,175.9779 311.1335,175.7014 311.5317,175.4627 311.9513,175.2643 312.3883,175.1079 312.8386,174.9951 313.2977,174.927 313.7614,174.9042 314.225,174.927 314.6841,174.9951 315.1344,175.1079 315.5714,175.2643 315.991,175.4627 316.3892,175.7014 316.762,175.9779 317.106,176.2896 317.4177,176.6335 317.6942,177.0064 317.9328,177.4045 318.1313,177.8241 318.2877,178.2612 318.4004,178.7114 318.4686,179.1706 318.4913,179.6342 318.4686,180.0978 318.4004,180.557 318.2877,181.0072 318.1313,181.4443 317.9328,181.8639 317.6942,182.262 317.4177,182.6349 317.106,182.9788 316.762,183.2905 316.3892,183.567 315.991,183.8057 315.5714,184.0041 315.1344,184.1605 314.6841,184.2733 314.225,184.3414 313.7614,184.3642 313.2977,184.3414 312.8386,184.2733 312.3883,184.1605 311.9513,184.0041 311.5317,183.8057 311.1335,183.567 310.7607,183.2905 310.4168,182.9788 310.105,182.6349 309.8285,182.262 309.5899,181.8639 309.3914,181.4443 309.2351,181.0072 309.1223,180.557 309.0542,180.0978 309.0314,179.6342"/>
    <polygon points="305.7674,163.3398 306.0791,162.9959 306.3556,162.623 306.5942,162.2249 306.7927,161.8053 306.9491,161.3682 307.0619,160.918 307.13,160.4588 307.1527,159.9952 307.13,159.5316 307.0619,159.0724 306.9491,158.6221 306.7927,158.1851 306.5942,157.7655 306.3556,157.3674 306.0791,156.9945 305.7674,156.6506 305.4234,156.3389 305.0506,156.0624 304.6525,155.8237 304.2329,155.6253 303.7958,155.4689 303.3455,155.3561 302.8864,155.288 302.4228,155.2652 301.9592,155.288 301.5,155.3561 301.0497,155.4689 300.6127,155.6253 300.1931,155.8237 299.7949,156.0624 299.4221,156.3389 299.0782,156.6506 298.7665,156.9945 298.4899,157.3674 298.2513,157.7655 298.0528,158.1851 297.8965,158.6221 297.7837,159.0724 297.7156,159.5316 297.6928,159.9952 297.7156,160.4588 297.7837,160.918 297.8965,161.3682 298.0528,161.8053 298.2513,162.2249 298.4899,162.623 298.7665,162.9959 299.0782,163.3398 299.4221,163.6515 299.7949,163.928 300.1931,164.1667 300.6127,164.3651 301.0497,164.5215 301.5,164.6343 301.9592,164.7024 302.4228,164.7252 302.8864,164.7024 303.3455,164.6343 303.7958,164.5215 304.2329,164.3651 304.6525,164.1667 305.0506,163.928 305.4234,163.6515"/>
    <polygon points="315.1344,148.9226 315.5714,149.0789 315.991,149.2774 316.3892,149.516 316.762,149.7925 317.106,150.1043 317.4177,150.4482 317.6942,150.821 317.9328,151.2192 318.1313,151.6388 318.2877,152.0758 318.4004,152.5261 318.4686,152.9852 318.4913,153.4489 318.4686,153.9125 318.4004,154.3716 318.2877,154.8219 318.1313,155.2589 317.9328,155.6785 317.6942,156.0767 317.4177,156.4495 317.106,156.7934 316.762,157.1052 316.3892,157.3817 315.991,157.6203 315.5714,157.8188 315.1344,157.9752 314.6841,158.0879 314.225,158.1561 313.7614,158.1788 313.2977,158.1561 312.8386,158.0879 312.3883,157.9752 311.9513,157.8188 311.5317,157.6203 311.1335,157.3817 310.7607,157.1052 310.4168,156.7934 310.105,156.4495 309.8285,156.0767 309.5899,155.6785 309.3914,155.2589 309.2351,154.8219 309.1223,154.3716 309.0542,153.9125 309.0314,153.4489 309.0542,152.9852 309.1223,152.5261 309.2351,152.0758 309.3914,151.6388 309.5899,151.2192 309.8285,150.821 310.105,150.4482 310.4168,150.1043 310.7607,149.7925 311.1335,149.516 311.5317,149.2774 311.9513,149.0789 312.3883,148.9226 312.8386,148.8098 313.2977,148.7417 313.7614,148.7189 314.225,148.7417 314.6841,148.8098"/>
    <polygon points="328.1006,176.7442 327.7278,177.0207 327.3296,177.2593 326.91,177.4578 326.473,177.6142 326.0227,177.7269 325.5636,177.7951 325.0999,177.8178 324.6363,177.7951 324.1772,177.7269 323.7269,177.6142 323.2899,177.4578 322.8702,177.2593 322.4721,177.0207 322.0993,176.7442 321.7553,176.4325 321.4436,176.0885 321.1671,175.7157 320.9285,175.3175 320.73,174.8979 320.5736,174.4609 320.4609,174.0106 320.3927,173.5515 320.37,173.0879 320.3927,172.6242 320.4609,172.1651 320.5736,171.7148 320.73,171.2778 320.9285,170.8582 321.1671,170.46 321.4436,170.0872 321.7553,169.7433 322.0993,169.4315 322.4721,169.155 322.8702,168.9164 323.2899,168.7179 323.7269,168.5616 324.1772,168.4488 324.6363,168.3807 325.0999,168.3579 325.5636,168.3807 326.0227,168.4488 326.473,168.5616 326.91,168.7179 327.3296,168.9164 327.7278,169.155 328.1006,169.4315 328.4445,169.7433 328.7563,170.0872 329.0328,170.46 329.2714,170.8582 329.4699,171.2778 329.6262,171.7148 329.739,172.1651 329.8071,172.6242 329.8299,173.0879 329.8071,173.5515 329.739,174.0106 329.6262,174.4609 329.4699,174.8979 329.2714,175.3175 329.0328,175.7157 328.7563,176.0885 328.4445,176.4325"/>
    <polygon points="356.115,228.3485 356.4879,228.072 356.886,227.8334 357.3056,227.6349 357.7426,227.4786 358.1929,227.3658 358.6521,227.2977 359.1157,227.2749 359.5793,227.2977 360.0385,227.3658 360.4887,227.4786 360.9258,227.6349 361.3454,227.8334 361.7435,228.072 362.1163,228.3485 362.4603,228.6603 362.772,229.0042 363.0485,229.377 363.2872,229.7752 363.4856,230.1948 363.642,230.6318 363.7548,231.0821 363.8229,231.5412 363.8457,232.0049 363.8229,232.4685 363.7548,232.9276 363.642,233.3779 363.4856,233.8149 363.2872,234.2346 363.0485,234.6327 362.772,235.0055 362.4603,235.3495 362.1163,235.6612 361.7435,235.9377 361.3454,236.1763 360.9258,236.3748 360.4887,236.5312 360.0385,236.6439 359.5793,236.7121 359.1157,236.7348 358.6521,236.7121 358.1929,236.6439 357.7426,236.5312 357.3056,236.3748 356.886,236.1763 356.4879,235.9377 356.115,235.6612 355.7711,235.3495 355.4594,235.0055 355.1829,234.6327 354.9442,234.2346 354.7458,233.8149 354.5894,233.3779 354.4766,232.9276 354.4085,232.4685 354.3857,232.0049 354.4085,231.5412 354.4766,231.0821 354.5894,230.6318 354.7458,230.1948 354.9442,229.7752 355.1829,229.377 355.4594,229.0042 355.7711,228.6603"/>
    <polygon points="351.2777,236.3513 351.4401,237.4459 351.4944,238.5512 351.4401,239.6565 351.2777,240.7511 351.0088,241.8245 350.636,242.8664 350.1629,243.8668 349.594,244.816 348.9348,245.7048 348.1916,246.5247 347.3717,247.2679 346.4828,247.9271 345.5337,248.496 344.5333,248.9691 343.4914,249.3419 342.4179,249.6108 341.3233,249.7732 340.218,249.8275 339.1128,249.7732 338.0182,249.6108 336.9447,249.3419 335.9028,248.9691 334.9024,248.496 333.9533,247.9271 333.0644,247.2679 332.2445,246.5247 331.5013,245.7048 330.8421,244.816 330.2732,243.8668 329.8001,242.8664 329.4273,241.8245 329.1584,240.7511 328.996,239.6565 328.9417,238.5512 328.996,237.4459 329.1584,236.3513 329.4273,235.2779 329.8001,234.2359 330.2732,233.2356 330.8421,232.2864 331.5013,231.3976 332.2445,230.5776 333.0644,229.8345 333.9533,229.1753 334.9024,228.6064 335.9028,228.1332 336.9447,227.7604 338.0182,227.4916 339.1128,227.3292 340.218,227.2749 341.3233,227.3292 342.4179,227.4916 343.4914,227.7604 344.5333,228.1332 345.5337,228.6064 346.4828,229.1753 347.3717,229.8345 348.1916,230.5776 348.9348,231.3976 349.594,232.2864 350.1629,233.2356 350.636,234.2359 351.0088,235.2779"/>
    <polygon points="366.5214,249.016 366.798,248.6432 367.1097,248.2993 367.4536,247.9875 367.8264,247.711 368.2246,247.4724 368.6442,247.2739 369.0812,247.1176 369.5315,247.0048 369.9907,246.9367 370.4543,246.9139 370.9179,246.9367 371.377,247.0048 371.8273,247.1176 372.2644,247.2739 372.684,247.4724 373.0821,247.711 373.4549,247.9875 373.7989,248.2993 374.1106,248.6432 374.3871,249.016 374.6257,249.4142 374.8242,249.8338 374.9806,250.2708 375.0934,250.7211 375.1615,251.1802 375.1842,251.6439 375.1615,252.1075 375.0934,252.5666 374.9806,253.0169 374.8242,253.4539 374.6257,253.8736 374.3871,254.2717 374.1106,254.6445 373.7989,254.9885 373.4549,255.3002 373.0821,255.5767 372.684,255.8153 372.2644,256.0138 371.8273,256.1702 371.377,256.2829 370.9179,256.3511 370.4543,256.3738 369.9907,256.3511 369.5315,256.2829 369.0812,256.1702 368.6442,256.0138 368.2246,255.8153 367.8264,255.5767 367.4536,255.3002 367.1097,254.9885 366.798,254.6445 366.5214,254.2717 366.2828,253.8736 366.0843,253.4539 365.928,253.0169 365.8152,252.5666 365.7471,252.1075 365.7243,251.6439 365.7471,251.1802 365.8152,250.7211 365.928,250.2708 366.0843,249.8338 366.2828,249.4142"/>
    <polygon points="358.1929,249.7366 357.7426,249.6238 357.3056,249.4675 356.886,249.269 356.4879,249.0304 356.115,248.7538 355.7711,248.4421 355.4594,248.0982 355.1829,247.7254 354.9442,247.3272 354.7458,246.9076 354.5894,246.4706 354.4766,246.0203 354.4085,245.5611 354.3857,245.0975 354.4085,244.6339 354.4766,244.1748 354.5894,243.7245 354.7458,243.2874 354.9442,242.8678 355.1829,242.4697 355.4594,242.0969 355.7711,241.7529 356.115,241.4412 356.4879,241.1647 356.886,240.9261 357.3056,240.7276 357.7426,240.5712 358.1929,240.4584 358.6521,240.3903 359.1157,240.3676 359.5793,240.3903 360.0385,240.4584 360.4887,240.5712 360.9258,240.7276 361.3454,240.9261 361.7435,241.1647 362.1163,241.4412 362.4603,241.7529 362.772,242.0969 363.0485,242.4697 363.2872,242.8678 363.4856,243.2874 363.642,243.7245 363.7548,244.1748 363.8229,244.6339 363.8457,245.0975 363.8229,245.5611 363.7548,246.0203 363.642,246.4706 363.4856,246.9076 363.2872,247.3272 363.0485,247.7254 362.772,248.0982 362.4603,248.4421 362.1163,248.7538 361.7435,249.0304 361.3454,249.269 360.9258,249.4675 360.4887,249.6238 360.0385,249.7366 359.5793,249.8047 359.1157,249.8275 358.6521,249.8047"/>
    <polygon points="352.4162,263.8138 352.4843,264.2729 352.5071,264.7365 352.4843,265.2001 352.4162,265.6593 352.3034,266.1096 352.147,266.5466 351.9486,266.9662 351.7099,267.3644 351.4334,267.7372 351.1217,268.0811 350.7778,268.3928 350.4049,268.6694 350.0068,268.908 349.5872,269.1065 349.1501,269.2628 348.6999,269.3756 348.2407,269.4437 347.7771,269.4665 347.3135,269.4437 346.8543,269.3756 346.4041,269.2628 345.967,269.1065 345.5474,268.908 345.1493,268.6694 344.7764,268.3928 344.4325,268.0811 344.1208,267.7372 343.8443,267.3644 343.6056,266.9662 343.4072,266.5466 343.2508,266.1096 343.138,265.6593 343.0699,265.2001 343.0471,264.7365 343.0699,264.2729 343.138,263.8138 343.2508,263.3635 343.4072,262.9264 343.6056,262.5068 343.8443,262.1087 344.1208,261.7359 344.4325,261.3919 344.7764,261.0802 345.1493,260.8037 345.5474,260.5651 345.967,260.3666 346.4041,260.2102 346.8543,260.0974 347.3135,260.0293 347.7771,260.0066 348.2407,260.0293 348.6999,260.0974 349.1501,260.2102 349.5872,260.3666 350.0068,260.5651 350.4049,260.8037 350.7778,261.0802 351.1217,261.3919 351.4334,261.7359 351.7099,262.1087 351.9486,262.5068 352.147,262.9264 352.3034,263.3635"/>
    <polygon points="341.1457,257.7266 341.1685,258.1902 341.1457,258.6538 341.0776,259.113 340.9648,259.5632 340.8084,260.0003 340.61,260.4199 340.3713,260.818 340.0948,261.1909 339.7831,261.5348 339.4392,261.8465 339.0664,262.123 338.6682,262.3617 338.2486,262.5601 337.8116,262.7165 337.3613,262.8293 336.9021,262.8974 336.4385,262.9202 335.9749,262.8974 335.5157,262.8293 335.0655,262.7165 334.6284,262.5601 334.2088,262.3617 333.8107,262.123 333.4379,261.8465 333.0939,261.5348 332.7822,261.1909 332.5057,260.818 332.2671,260.4199 332.0686,260.0003 331.9122,259.5632 331.7994,259.113 331.7313,258.6538 331.7085,258.1902 331.7313,257.7266 331.7994,257.2674 331.9122,256.8172 332.0686,256.3801 332.2671,255.9605 332.5057,255.5624 332.7822,255.1895 333.0939,254.8456 333.4379,254.5339 333.8107,254.2574 334.2088,254.0187 334.6284,253.8203 335.0655,253.6639 335.5157,253.5511 335.9749,253.483 336.4385,253.4602 336.9021,253.483 337.3613,253.5511 337.8116,253.6639 338.2486,253.8203 338.6682,254.0187 339.0664,254.2574 339.4392,254.5339 339.7831,254.8456 340.0948,255.1895 340.3713,255.5624 340.61,255.9605 340.8084,256.3801 340.9648,256.8172 341.0776,257.2674"/>
    <polygon points="302.4228,249.8275 300.0342,249.7102 297.6686,249.3593 295.3488,248.7782 293.0972,247.9725 290.9353,246.95 288.8841,245.7206 286.9633,244.296 285.1913,242.69 283.5853,240.918 282.1607,238.9972 280.9313,236.946 279.9088,234.7841 279.1031,232.5325 278.522,230.2127 278.1711,227.8471 278.0538,225.4585 278.1711,223.0699 278.522,220.7044 279.1031,218.3846 279.9088,216.1329 280.9313,213.9711 282.1607,211.9198 283.5853,209.999 285.1913,208.2271 286.9633,206.6211 288.8841,205.1965 290.9353,203.967 293.0972,202.9445 295.3488,202.1389 297.6686,201.5578 300.0342,201.2069 302.4228,201.0896 304.8114,201.2069 307.1769,201.5578 309.4967,202.1389 311.7484,202.9445 313.9102,203.967 315.9614,205.1965 317.8823,206.6211 319.6542,208.2271 321.2602,209.999 322.6848,211.9198 323.9143,213.9711 324.9368,216.1329 325.7424,218.3846 326.3235,220.7044 326.6744,223.0699 326.7917,225.4585 326.6744,227.8471 326.3235,230.2127 325.7424,232.5325 324.9368,234.7841 323.9143,236.946 322.6848,238.9972 321.2602,240.918 319.6542,242.69 317.8823,244.296 315.9614,245.7206 313.9102,246.95 311.7484,247.9725 309.4967,248.7782 307.1769,249.3593 304.8114,249.7102"/>
  </g>
</svg>
