<?xml version="1.0" encoding="utf-8" ?>
<svg xmlns="http://www.w3.org/2000/svg" xmlns:cc="http://creativecommons.org/ns" xmlns:dc="http://purl.org/dc/elements/1.1/" xmlns:ev="http://www.w3.org/2001/xml-events" xmlns:inkscape="http://www.inkscape.org/namespaces/inkscape" xmlns:rdf="http://www.w3.org/1999/02/22-rdf-syntax-ns" xmlns:sodipodi="http://sodipodi.sourceforge.net/DTD/sodipodi-0.dtd" xmlns:xlink="http://www.w3.org/1999/xlink" baseProfile="tiny" height="15.875cm" version="1.2" viewBox="0 0 432.0 600.0" width="11.43cm">
  <metadata>
    <rdf:RDF>
      <cc:Work>
        <dc:format>image/svg+xml</dc:format>
        <dc:source>vsk save -s 297 -c hex-grid/config/bubble-coasters-2.json /Users/tobin/src/fabian/plotting/fabian-plotting/hex-grid/sketch_hex_grid.py</dc:source>
        <dc:date>2023-11-11T11:30:24.165385</dc:date>
      </cc:Work>
    </rdf:RDF>
  </metadata>
  <defs/>
  <g fill="none" id="layer1" inkscape:groupmode="layer" inkscape:label="1" stroke="#000000" stroke-width="0.7559" style="display:inline">
    <polygon points="172.1435,193.7703 172.3821,193.3722 172.6586,192.9994 172.9704,192.6554 173.3143,192.3437 173.6871,192.0672 174.0853,191.8286 174.5049,191.6301 174.9419,191.4737 175.3922,191.3609 175.8513,191.2928 176.315,191.2701 176.7786,191.2928 177.2377,191.3609 177.688,191.4737 178.125,191.6301 178.5447,191.8286 178.9428,192.0672 179.3156,192.3437 179.6596,192.6554 179.9713,192.9994 180.2478,193.3722 180.4864,193.7703 180.6849,194.1899 180.8413,194.627 180.954,195.0773 181.0222,195.5364 181.0449,196.0 181.0222,196.4636 180.954,196.9228 180.8413,197.3731 180.6849,197.8101 180.4864,198.2297 180.2478,198.6279 179.9713,199.0007 179.6596,199.3446 179.3156,199.6563 178.9428,199.9329 178.5447,200.1715 178.125,200.3699 177.688,200.5263 177.2377,200.6391 176.7786,200.7072 176.315,200.73 175.8513,200.7072 175.3922,200.6391 174.9419,200.5263 174.5049,200.3699 174.0853,200.1715 173.6871,199.9329 173.3143,199.6563 172.9704,199.3446 172.6586,199.0007 172.3821,198.6279 172.1435,198.2297 171.945,197.8101 171.7887,197.3731 171.6759,196.9228 171.6078,196.4636 171.585,196.0 171.6078,195.5364 171.6759,195.0773 171.7887,194.627 171.945,194.1899"/>
    <polygon points="182.9463,188.9901 183.0145,188.5309 183.1272,188.0807 183.2836,187.6436 183.4821,187.224 183.7207,186.8259 183.9972,186.453 184.3089,186.1091 184.6529,185.7974 185.0257,185.5209 185.4238,185.2822 185.8435,185.0838 186.2805,184.9274 186.7308,184.8146 187.1899,184.7465 187.6535,184.7237 188.1172,184.7465 188.5763,184.8146 189.0266,184.9274 189.4636,185.0838 189.8832,185.2822 190.2814,185.5209 190.6542,185.7974 190.9981,186.1091 191.3099,186.453 191.5864,186.8259 191.825,187.224 192.0235,187.6436 192.1798,188.0807 192.2926,188.5309 192.3607,188.9901 192.3835,189.4537 192.3607,189.9173 192.2926,190.3765 192.1798,190.8267 192.0235,191.2638 191.825,191.6834 191.5864,192.0815 191.3099,192.4544 190.9981,192.7983 190.6542,193.11 190.2814,193.3865 189.8832,193.6252 189.4636,193.8236 189.0266,193.98 188.5763,194.0928 188.1172,194.1609 187.6535,194.1837 187.1899,194.1609 186.7308,194.0928 186.2805,193.98 185.8435,193.8236 185.4238,193.6252 185.0257,193.3865 184.6529,193.11 184.3089,192.7983 183.9972,192.4544 183.7207,192.0815 183.4821,191.6834 183.2836,191.2638 183.1272,190.8267 183.0145,190.3765 182.9463,189.9173 182.9236,189.4537"/>
    <polygon points="195.618,193.8297 196.5069,193.1705 197.456,192.6015 198.4564,192.1284 199.4983,191.7556 200.5718,191.4867 201.6664,191.3243 202.7717,191.2701 203.8769,191.3243 204.9716,191.4867 206.045,191.7556 207.0869,192.1284 208.0873,192.6015 209.0364,193.1705 209.9253,193.8297 210.7452,194.5728 211.4884,195.3927 212.1476,196.2816 212.7165,197.2307 213.1896,198.2311 213.5624,199.273 213.8313,200.3465 213.9937,201.4411 214.048,202.5464 213.9937,203.6516 213.8313,204.7463 213.5624,205.8197 213.1896,206.8616 212.7165,207.862 212.1476,208.8111 211.4884,209.7 210.7452,210.5199 209.9253,211.2631 209.0364,211.9223 208.0873,212.4912 207.0869,212.9643 206.045,213.3371 204.9716,213.606 203.8769,213.7684 202.7717,213.8227 201.6664,213.7684 200.5718,213.606 199.4983,213.3371 198.4564,212.9643 197.456,212.4912 196.5069,211.9223 195.618,211.2631 194.7981,210.5199 194.055,209.7 193.3957,208.8111 192.8268,207.862 192.3537,206.8616 191.9809,205.8197 191.712,204.7463 191.5496,203.6516 191.4953,202.5464 191.5496,201.4411 191.712,200.3465 191.9809,199.273 192.3537,198.2311 192.8268,197.2307 193.3957,196.2816 194.055,195.3927 194.7981,194.5728"/>
    <polygon points="227.6487,200.5133 226.5541,200.6757 225.4488,200.73 224.3435,200.6757 223.2489,200.5133 222.1755,200.2444 221.1336,199.8716 220.1332,199.3985 219.184,198.8296 218.2952,198.1704 217.4753,197.4272 216.7321,196.6073 216.0729,195.7185 215.504,194.7693 215.0309,193.7689 214.6581,192.727 214.3892,191.6536 214.2268,190.559 214.1725,189.4537 214.2268,188.3484 214.3892,187.2538 214.6581,186.1804 215.0309,185.1384 215.504,184.1381 216.0729,183.1889 216.7321,182.3001 217.4753,181.4801 218.2952,180.737 219.184,180.0778 220.1332,179.5089 221.1336,179.0357 222.1755,178.6629 223.2489,178.3941 224.3435,178.2317 225.4488,178.1774 226.5541,178.2317 227.6487,178.3941 228.7222,178.6629 229.7641,179.0357 230.7644,179.5089 231.7136,180.0778 232.6024,180.737 233.4224,181.4801 234.1655,182.3001 234.8247,183.1889 235.3936,184.1381 235.8668,185.1384 236.2396,186.1804 236.5085,187.2538 236.6708,188.3484 236.7251,189.4537 236.6708,190.559 236.5085,191.6536 236.2396,192.727 235.8668,193.7689 235.3936,194.7693 234.8247,195.7185 234.1655,196.6073 233.4224,197.4272 232.6024,198.1704 231.7136,198.8296 230.7644,199.3985 229.7641,199.8716 228.7222,200.2444"/>
    <polygon points="241.0019,192.6554 241.3458,192.3437 241.7186,192.0672 242.1168,191.8286 242.5364,191.6301 242.9734,191.4737 243.4237,191.3609 243.8828,191.2928 244.3465,191.2701 244.8101,191.2928 245.2692,191.3609 245.7195,191.4737 246.1565,191.6301 246.5762,191.8286 246.9743,192.0672 247.3471,192.3437 247.6911,192.6554 248.0028,192.9994 248.2793,193.3722 248.5179,193.7703 248.7164,194.1899 248.8728,194.627 248.9855,195.0773 249.0537,195.5364 249.0764,196.0 249.0537,196.4636 248.9855,196.9228 248.8728,197.3731 248.7164,197.8101 248.5179,198.2297 248.2793,198.6279 248.0028,199.0007 247.6911,199.3446 247.3471,199.6563 246.9743,199.9329 246.5762,200.1715 246.1565,200.3699 245.7195,200.5263 245.2692,200.6391 244.8101,200.7072 244.3465,200.73 243.8828,200.7072 243.4237,200.6391 242.9734,200.5263 242.5364,200.3699 242.1168,200.1715 241.7186,199.9329 241.3458,199.6563 241.0019,199.3446 240.6901,199.0007 240.4136,198.6279 240.175,198.2297 239.9765,197.8101 239.8202,197.3731 239.7074,196.9228 239.6393,196.4636 239.6165,196.0 239.6393,195.5364 239.7074,195.0773 239.8202,194.627 239.9765,194.1899 240.175,193.7703 240.4136,193.3722 240.6901,192.9994"/>
    <polygon points="246.5762,213.2642 246.1565,213.4626 245.7195,213.619 245.2692,213.7318 244.8101,213.7999 244.3465,213.8227 243.8828,213.7999 243.4237,213.7318 242.9734,213.619 242.5364,213.4626 242.1168,213.2642 241.7186,213.0255 241.3458,212.749 241.0019,212.4373 240.6901,212.0934 240.4136,211.7205 240.175,211.3224 239.9765,210.9028 239.8202,210.4657 239.7074,210.0155 239.6393,209.5563 239.6165,209.0927 239.6393,208.6291 239.7074,208.1699 239.8202,207.7197 239.9765,207.2826 240.175,206.863 240.4136,206.4649 240.6901,206.092 241.0019,205.7481 241.3458,205.4364 241.7186,205.1599 242.1168,204.9212 242.5364,204.7228 242.9734,204.5664 243.4237,204.4536 243.8828,204.3855 244.3465,204.3627 244.8101,204.3855 245.2692,204.4536 245.7195,204.5664 246.1565,204.7228 246.5762,204.9212 246.9743,205.1599 247.3471,205.4364 247.6911,205.7481 248.0028,206.092 248.2793,206.4649 248.5179,206.863 248.7164,207.2826 248.8728,207.7197 248.9855,208.1699 249.0537,208.6291 249.0764,209.0927 249.0537,209.5563 248.9855,210.0155 248.8728,210.4657 248.7164,210.9028 248.5179,211.3224 248.2793,211.7205 248.0028,212.0934 247.6911,212.4373 247.3471,212.749 246.9743,213.0255"/>
    <polygon points="268.3967,226.7117 267.9464,226.8244 267.4872,226.8926 267.0236,226.9153 266.56,226.8926 266.1009,226.8244 265.6506,226.7117 265.2135,226.5553 264.7939,226.3568 264.3958,226.1182 264.023,225.8417 263.679,225.53 263.3673,225.186 263.0908,224.8132 262.8522,224.4151 262.6537,223.9954 262.4973,223.5584 262.3845,223.1081 262.3164,222.649 262.2936,222.1854 262.3164,221.7217 262.3845,221.2626 262.4973,220.8123 262.6537,220.3753 262.8522,219.9557 263.0908,219.5575 263.3673,219.1847 263.679,218.8408 264.023,218.529 264.3958,218.2525 264.7939,218.0139 265.2135,217.8154 265.6506,217.6591 266.1009,217.5463 266.56,217.4782 267.0236,217.4554 267.4872,217.4782 267.9464,217.5463 268.3967,217.6591 268.8337,217.8154 269.2533,218.0139 269.6515,218.2525 270.0243,218.529 270.3682,218.8408 270.6799,219.1847 270.9565,219.5575 271.1951,219.9557 271.3935,220.3753 271.5499,220.8123 271.6627,221.2626 271.7308,221.7217 271.7536,222.1854 271.7308,222.649 271.6627,223.1081 271.5499,223.5584 271.3935,223.9954 271.1951,224.4151 270.9565,224.8132 270.6799,225.186 270.3682,225.53 270.0243,225.8417 269.6515,226.1182 269.2533,226.3568 268.8337,226.5553"/>
    <polygon points="247.0207,239.9537 245.9261,239.7913 244.8526,239.5224 243.8107,239.1496 242.8104,238.6765 241.8612,238.1076 240.9724,237.4484 240.1524,236.7052 239.4093,235.8853 238.7501,234.9965 238.1812,234.0473 237.708,233.0469 237.3352,232.005 237.0663,230.9316 236.904,229.837 236.8497,228.7317 236.904,227.6264 237.0663,226.5318 237.3352,225.4584 237.708,224.4164 238.1812,223.4161 238.7501,222.4669 239.4093,221.5781 240.1524,220.7581 240.9724,220.015 241.8612,219.3558 242.8104,218.7869 243.8107,218.3137 244.8526,217.9409 245.9261,217.6721 247.0207,217.5097 248.126,217.4554 249.2313,217.5097 250.3259,217.6721 251.3993,217.9409 252.4412,218.3137 253.4416,218.7869 254.3908,219.3558 255.2796,220.015 256.0995,220.7581 256.8427,221.5781 257.5019,222.4669 258.0708,223.4161 258.5439,224.4164 258.9167,225.4584 259.1856,226.5318 259.348,227.6264 259.4023,228.7317 259.348,229.837 259.1856,230.9316 258.9167,232.005 258.5439,233.0469 258.0708,234.0473 257.5019,234.9965 256.8427,235.8853 256.0995,236.7052 255.2796,237.4484 254.3908,238.1076 253.4416,238.6765 252.4412,239.1496 251.3993,239.5224 250.3259,239.7913 249.2313,239.9537 248.126,240.008"/>
    <polygon points="245.2692,256.8243 245.7195,256.9371 246.1565,257.0934 246.5762,257.2919 246.9743,257.5305 247.3471,257.807 247.6911,258.1188 248.0028,258.4627 248.2793,258.8355 248.5179,259.2337 248.7164,259.6533 248.8728,260.0903 248.9855,260.5406 249.0537,260.9997 249.0764,261.4634 249.0537,261.927 248.9855,262.3861 248.8728,262.8364 248.7164,263.2734 248.5179,263.6931 248.2793,264.0912 248.0028,264.464 247.6911,264.808 247.3471,265.1197 246.9743,265.3962 246.5762,265.6348 246.1565,265.8333 245.7195,265.9897 245.2692,266.1024 244.8101,266.1706 244.3465,266.1933 243.8828,266.1706 243.4237,266.1024 242.9734,265.9897 242.5364,265.8333 242.1168,265.6348 241.7186,265.3962 241.3458,265.1197 241.0019,264.808 240.6901,264.464 240.4136,264.0912 240.175,263.6931 239.9765,263.2734 239.8202,262.8364 239.7074,262.3861 239.6393,261.927 239.6165,261.4634 239.6393,260.9997 239.7074,260.5406 239.8202,260.0903 239.9765,259.6533 240.175,259.2337 240.4136,258.8355 240.6901,258.4627 241.0019,258.1188 241.3458,257.807 241.7186,257.5305 242.1168,257.2919 242.5364,257.0934 242.9734,256.9371 243.4237,256.8243 243.8828,256.7562 244.3465,256.7334 244.8101,256.7562"/>
    <polygon points="233.6504,248.8983 232.8447,251.15 231.8222,253.3118 230.5928,255.363 229.1682,257.2839 227.5622,259.0558 225.7902,260.6618 223.8694,262.0864 221.8182,263.3159 219.6563,264.3384 217.4046,265.144 215.0849,265.7251 212.7193,266.076 210.3307,266.1933 207.9421,266.076 205.5766,265.7251 203.2568,265.144 201.0051,264.3384 198.8433,263.3159 196.792,262.0864 194.8712,260.6618 193.0992,259.0558 191.4932,257.2839 190.0686,255.363 188.8392,253.3118 187.8167,251.15 187.0111,248.8983 186.43,246.5785 186.0791,244.2129 185.9617,241.8244 186.0791,239.4358 186.43,237.0702 187.0111,234.7504 187.8167,232.4988 188.8392,230.3369 190.0686,228.2857 191.4932,226.3648 193.0992,224.5929 194.8712,222.9869 196.792,221.5623 198.8433,220.3328 201.0051,219.3104 203.2568,218.5047 205.5766,217.9236 207.9421,217.5727 210.3307,217.4554 212.7193,217.5727 215.0849,217.9236 217.4046,218.5047 219.6563,219.3104 221.8182,220.3328 223.8694,221.5623 225.7902,222.9869 227.5622,224.5929 229.1682,226.3648 230.5928,228.2857 231.8222,230.3369 232.8447,232.4988 233.6504,234.7504 234.2314,237.0702 234.5823,239.4358 234.6997,241.8244 234.5823,244.2129 234.2314,246.5785"/>
    <polygon points="187.2481,259.293 188.068,260.0361 188.8112,260.8561 189.4704,261.7449 190.0393,262.6941 190.5124,263.6944 190.8852,264.7364 191.1541,265.8098 191.3165,266.9044 191.3708,268.0097 191.3165,269.115 191.1541,270.2096 190.8852,271.283 190.5124,272.325 190.0393,273.3253 189.4704,274.2745 188.8112,275.1633 188.068,275.9832 187.2481,276.7264 186.3593,277.3856 185.4101,277.9545 184.4097,278.4276 183.3678,278.8004 182.2944,279.0693 181.1998,279.2317 180.0945,279.286 178.9892,279.2317 177.8946,279.0693 176.8211,278.8004 175.7792,278.4276 174.7789,277.9545 173.8297,277.3856 172.9409,276.7264 172.1209,275.9832 171.3778,275.1633 170.7186,274.2745 170.1497,273.3253 169.6765,272.325 169.3037,271.283 169.0349,270.2096 168.8725,269.115 168.8182,268.0097 168.8725,266.9044 169.0349,265.8098 169.3037,264.7364 169.6765,263.6944 170.1497,262.6941 170.7186,261.7449 171.3778,260.8561 172.1209,260.0361 172.9409,259.293 173.8297,258.6338 174.7789,258.0649 175.7792,257.5917 176.8211,257.2189 177.8946,256.9501 178.9892,256.7877 180.0945,256.7334 181.1998,256.7877 182.2944,256.9501 183.3678,257.2189 184.4097,257.5917 185.4101,258.0649 186.3593,258.6338"/>
    <polygon points="165.8991,259.5561 165.44,259.6242 164.9764,259.647 164.5128,259.6242 164.0536,259.5561 163.6033,259.4433 163.1663,259.287 162.7467,259.0885 162.3485,258.8499 161.9757,258.5733 161.6318,258.2616 161.3201,257.9177 161.0435,257.5449 160.8049,257.1467 160.6065,256.7271 160.4501,256.2901 160.3373,255.8398 160.2692,255.3806 160.2464,254.917 160.2692,254.4534 160.3373,253.9943 160.4501,253.544 160.6065,253.1069 160.8049,252.6873 161.0435,252.2892 161.3201,251.9164 161.6318,251.5724 161.9757,251.2607 162.3485,250.9842 162.7467,250.7456 163.1663,250.5471 163.6033,250.3907 164.0536,250.2779 164.5128,250.2098 164.9764,250.1871 165.44,250.2098 165.8991,250.2779 166.3494,250.3907 166.7865,250.5471 167.2061,250.7456 167.6042,250.9842 167.977,251.2607 168.321,251.5724 168.6327,251.9164 168.9092,252.2892 169.1478,252.6873 169.3463,253.1069 169.5027,253.544 169.6155,253.9943 169.6836,254.4534 169.7064,254.917 169.6836,255.3806 169.6155,255.8398 169.5027,256.2901 169.3463,256.7271 169.1478,257.1467 168.9092,257.5449 168.6327,257.9177 168.321,258.2616 167.977,258.5733 167.6042,258.8499 167.2061,259.0885 166.7865,259.287 166.3494,259.4433"/>
    <polygon points="158.3678,274.556 158.345,274.0924 158.2769,273.6333 158.1641,273.183 158.0077,272.7459 157.8093,272.3263 157.5706,271.9282 157.2941,271.5554 156.9824,271.2114 156.6385,270.8997 156.2656,270.6232 155.8675,270.3846 155.4479,270.1861 155.0108,270.0297 154.5606,269.9169 154.1014,269.8488 153.6378,269.8261 153.1742,269.8488 152.715,269.9169 152.2648,270.0297 151.8277,270.1861 151.4081,270.3846 151.01,270.6232 150.6371,270.8997 150.2932,271.2114 149.9815,271.5554 149.705,271.9282 149.4663,272.3263 149.2679,272.7459 149.1115,273.183 148.9987,273.6333 148.9306,274.0924 148.9078,274.556 148.9306,275.0196 148.9987,275.4788 149.1115,275.9291 149.2679,276.3661 149.4663,276.7857 149.705,277.1839 149.9815,277.5567 150.2932,277.9006 150.6371,278.2123 151.01,278.4889 151.4081,278.7275 151.8277,278.926 152.2648,279.0823 152.715,279.1951 153.1742,279.2632 153.6378,279.286 154.1014,279.2632 154.5606,279.1951 155.0108,279.0823 155.4479,278.926 155.8675,278.7275 156.2656,278.4889 156.6385,278.2123 156.9824,277.9006 157.2941,277.5567 157.5706,277.1839 157.8093,276.7857 158.0077,276.3661 158.1641,275.9291 158.2769,275.4788 158.345,275.0196"/>
    <polygon points="169.5027,279.7293 169.3463,279.2923 169.1478,278.8727 168.9092,278.4745 168.6327,278.1017 168.321,277.7578 167.977,277.446 167.6042,277.1695 167.2061,276.9309 166.7865,276.7324 166.3494,276.5761 165.8991,276.4633 165.44,276.3952 164.9764,276.3724 164.5128,276.3952 164.0536,276.4633 163.6033,276.5761 163.1663,276.7324 162.7467,276.9309 162.3485,277.1695 161.9757,277.446 161.6318,277.7578 161.3201,278.1017 161.0435,278.4745 160.8049,278.8727 160.6065,279.2923 160.4501,279.7293 160.3373,280.1796 160.2692,280.6387 160.2464,281.1024 160.2692,281.566 160.3373,282.0251 160.4501,282.4754 160.6065,282.9124 160.8049,283.3321 161.0435,283.7302 161.3201,284.103 161.6318,284.447 161.9757,284.7587 162.3485,285.0352 162.7467,285.2738 163.1663,285.4723 163.6033,285.6287 164.0536,285.7414 164.5128,285.8096 164.9764,285.8323 165.44,285.8096 165.8991,285.7414 166.3494,285.6287 166.7865,285.4723 167.2061,285.2738 167.6042,285.0352 167.977,284.7587 168.321,284.447 168.6327,284.103 168.9092,283.7302 169.1478,283.3321 169.3463,282.9124 169.5027,282.4754 169.6155,282.0251 169.6836,281.566 169.7064,281.1024 169.6836,280.6387 169.6155,280.1796"/>
    <polygon points="155.4479,292.0186 155.0108,292.175 154.5606,292.2878 154.1014,292.3559 153.6378,292.3787 153.1742,292.3559 152.715,292.2878 152.2648,292.175 151.8277,292.0186 151.4081,291.8202 151.01,291.5815 150.6371,291.305 150.2932,290.9933 149.9815,290.6494 149.705,290.2765 149.4663,289.8784 149.2679,289.4588 149.1115,289.0217 148.9987,288.5715 148.9306,288.1123 148.9078,287.6487 148.9306,287.1851 148.9987,286.7259 149.1115,286.2757 149.2679,285.8386 149.4663,285.419 149.705,285.0209 149.9815,284.648 150.2932,284.3041 150.6371,283.9924 151.01,283.7159 151.4081,283.4772 151.8277,283.2788 152.2648,283.1224 152.715,283.0096 153.1742,282.9415 153.6378,282.9187 154.1014,282.9415 154.5606,283.0096 155.0108,283.1224 155.4479,283.2788 155.8675,283.4772 156.2656,283.7159 156.6385,283.9924 156.9824,284.3041 157.2941,284.648 157.5706,285.0209 157.8093,285.419 158.0077,285.8386 158.1641,286.2757 158.2769,286.7259 158.345,287.1851 158.3678,287.6487 158.345,288.1123 158.2769,288.5715 158.1641,289.0217 158.0077,289.4588 157.8093,289.8784 157.5706,290.2765 157.2941,290.6494 156.9824,290.9933 156.6385,291.305 156.2656,291.5815 155.8675,291.8202"/>
    <polygon points="157.8093,298.5117 158.0077,298.9313 158.1641,299.3683 158.2769,299.8186 158.345,300.2777 158.3678,300.7414 158.345,301.205 158.2769,301.6641 158.1641,302.1144 158.0077,302.5514 157.8093,302.9711 157.5706,303.3692 157.2941,303.742 156.9824,304.086 156.6385,304.3977 156.2656,304.6742 155.8675,304.9128 155.4479,305.1113 155.0108,305.2677 154.5606,305.3805 154.1014,305.4486 153.6378,305.4713 153.1742,305.4486 152.715,305.3805 152.2648,305.2677 151.8277,305.1113 151.4081,304.9128 151.01,304.6742 150.6371,304.3977 150.2932,304.086 149.9815,303.742 149.705,303.3692 149.4663,302.9711 149.2679,302.5514 149.1115,302.1144 148.9987,301.6641 148.9306,301.205 148.9078,300.7414 148.9306,300.2777 148.9987,299.8186 149.1115,299.3683 149.2679,298.9313 149.4663,298.5117 149.705,298.1135 149.9815,297.7407 150.2932,297.3968 150.6371,297.085 151.01,296.8085 151.4081,296.5699 151.8277,296.3714 152.2648,296.2151 152.715,296.1023 153.1742,296.0342 153.6378,296.0114 154.1014,296.0342 154.5606,296.1023 155.0108,296.2151 155.4479,296.3714 155.8675,296.5699 156.2656,296.8085 156.6385,297.085 156.9824,297.3968 157.2941,297.7407 157.5706,298.1135"/>
    <polygon points="160.3373,306.3649 160.4501,305.9147 160.6065,305.4776 160.8049,305.058 161.0435,304.6599 161.3201,304.287 161.6318,303.9431 161.9757,303.6314 162.3485,303.3549 162.7467,303.1162 163.1663,302.9178 163.6033,302.7614 164.0536,302.6486 164.5128,302.5805 164.9764,302.5577 165.44,302.5805 165.8991,302.6486 166.3494,302.7614 166.7865,302.9178 167.2061,303.1162 167.6042,303.3549 167.977,303.6314 168.321,303.9431 168.6327,304.287 168.9092,304.6599 169.1478,305.058 169.3463,305.4776 169.5027,305.9147 169.6155,306.3649 169.6836,306.8241 169.7064,307.2877 169.6836,307.7513 169.6155,308.2105 169.5027,308.6607 169.3463,309.0978 169.1478,309.5174 168.9092,309.9155 168.6327,310.2884 168.321,310.6323 167.977,310.944 167.6042,311.2205 167.2061,311.4592 166.7865,311.6576 166.3494,311.814 165.8991,311.9268 165.44,311.9949 164.9764,312.0177 164.5128,311.9949 164.0536,311.9268 163.6033,311.814 163.1663,311.6576 162.7467,311.4592 162.3485,311.2205 161.9757,310.944 161.6318,310.6323 161.3201,310.2884 161.0435,309.9155 160.8049,309.5174 160.6065,309.0978 160.4501,308.6607 160.3373,308.2105 160.2692,307.7513 160.2464,307.2877 160.2692,306.8241"/>
    <polygon points="143.6723,315.8541 144.1093,316.0104 144.5289,316.2089 144.927,316.4475 145.2999,316.724 145.6438,317.0358 145.9555,317.3797 146.232,317.7525 146.4707,318.1507 146.6691,318.5703 146.8255,319.0073 146.9383,319.4576 147.0064,319.9167 147.0292,320.3804 147.0064,320.844 146.9383,321.3031 146.8255,321.7534 146.6691,322.1904 146.4707,322.6101 146.232,323.0082 145.9555,323.381 145.6438,323.725 145.2999,324.0367 144.927,324.3132 144.5289,324.5518 144.1093,324.7503 143.6723,324.9067 143.222,325.0195 142.7628,325.0876 142.2992,325.1103 141.8356,325.0876 141.3764,325.0195 140.9262,324.9067 140.4891,324.7503 140.0695,324.5518 139.6714,324.3132 139.2985,324.0367 138.9546,323.725 138.6429,323.381 138.3664,323.0082 138.1277,322.6101 137.9293,322.1904 137.7729,321.7534 137.6601,321.3031 137.592,320.844 137.5692,320.3804 137.592,319.9167 137.6601,319.4576 137.7729,319.0073 137.9293,318.5703 138.1277,318.1507 138.3664,317.7525 138.6429,317.3797 138.9546,317.0358 139.2985,316.724 139.6714,316.4475 140.0695,316.2089 140.4891,316.0104 140.9262,315.8541 141.3764,315.7413 141.8356,315.6732 142.2992,315.6504 142.7628,315.6732 143.222,315.7413"/>
    <polygon points="158.0077,328.7368 157.8093,329.1564 157.5706,329.5545 157.2941,329.9274 156.9824,330.2713 156.6385,330.583 156.2656,330.8595 155.8675,331.0982 155.4479,331.2966 155.0108,331.453 154.5606,331.5658 154.1014,331.6339 153.6378,331.6567 153.1742,331.6339 152.715,331.5658 152.2648,331.453 151.8277,331.2966 151.4081,331.0982 151.01,330.8595 150.6371,330.583 150.2932,330.2713 149.9815,329.9274 149.705,329.5545 149.4663,329.1564 149.2679,328.7368 149.1115,328.2997 148.9987,327.8495 148.9306,327.3903 148.9078,326.9267 148.9306,326.4631 148.9987,326.0039 149.1115,325.5537 149.2679,325.1166 149.4663,324.697 149.705,324.2989 149.9815,323.926 150.2932,323.5821 150.6371,323.2704 151.01,322.9939 151.4081,322.7552 151.8277,322.5568 152.2648,322.4004 152.715,322.2876 153.1742,322.2195 153.6378,322.1967 154.1014,322.2195 154.5606,322.2876 155.0108,322.4004 155.4479,322.5568 155.8675,322.7552 156.2656,322.9939 156.6385,323.2704 156.9824,323.5821 157.2941,323.926 157.5706,324.2989 157.8093,324.697 158.0077,325.1166 158.1641,325.5537 158.2769,326.0039 158.345,326.4631 158.3678,326.9267 158.345,327.3903 158.2769,327.8495 158.1641,328.2997"/>
    <polygon points="160.3373,332.5503 160.4501,332.1 160.6065,331.663 160.8049,331.2433 161.0435,330.8452 161.3201,330.4724 161.6318,330.1284 161.9757,329.8167 162.3485,329.5402 162.7467,329.3016 163.1663,329.1031 163.6033,328.9467 164.0536,328.8339 164.5128,328.7658 164.9764,328.7431 165.44,328.7658 165.8991,328.8339 166.3494,328.9467 166.7865,329.1031 167.2061,329.3016 167.6042,329.5402 167.977,329.8167 168.321,330.1284 168.6327,330.4724 168.9092,330.8452 169.1478,331.2433 169.3463,331.663 169.5027,332.1 169.6155,332.5503 169.6836,333.0094 169.7064,333.473 169.6836,333.9367 169.6155,334.3958 169.5027,334.8461 169.3463,335.2831 169.1478,335.7027 168.9092,336.1009 168.6327,336.4737 168.321,336.8176 167.977,337.1294 167.6042,337.4059 167.2061,337.6445 166.7865,337.843 166.3494,337.9993 165.8991,338.1121 165.44,338.1802 164.9764,338.203 164.5128,338.1802 164.0536,338.1121 163.6033,337.9993 163.1663,337.843 162.7467,337.6445 162.3485,337.4059 161.9757,337.1294 161.6318,336.8176 161.3201,336.4737 161.0435,336.1009 160.8049,335.7027 160.6065,335.2831 160.4501,334.8461 160.3373,334.3958 160.2692,333.9367 160.2464,333.473 160.2692,333.0094"/>
    <polygon points="174.9419,344.5457 175.3922,344.6585 175.8513,344.7266 176.315,344.7493 176.7786,344.7266 177.2377,344.6585 177.688,344.5457 178.125,344.3893 178.5447,344.1908 178.9428,343.9522 179.3156,343.6757 179.6596,343.364 179.9713,343.02 180.2478,342.6472 180.4864,342.2491 180.6849,341.8294 180.8413,341.3924 180.954,340.9421 181.0222,340.483 181.0449,340.0194 181.0222,339.5557 180.954,339.0966 180.8413,338.6463 180.6849,338.2093 180.4864,337.7897 180.2478,337.3915 179.9713,337.0187 179.6596,336.6748 179.3156,336.363 178.9428,336.0865 178.5447,335.8479 178.125,335.6494 177.688,335.4931 177.2377,335.3803 176.7786,335.3122 176.315,335.2894 175.8513,335.3122 175.3922,335.3803 174.9419,335.4931 174.5049,335.6494 174.0853,335.8479 173.6871,336.0865 173.3143,336.363 172.9704,336.6748 172.6586,337.0187 172.3821,337.3915 172.1435,337.7897 171.945,338.2093 171.7887,338.6463 171.6759,339.0966 171.6078,339.5557 171.585,340.0194 171.6078,340.483 171.6759,340.9421 171.7887,341.3924 171.945,341.8294 172.1435,342.2491 172.3821,342.6472 172.6586,343.02 172.9704,343.364 173.3143,343.6757 173.6871,343.9522 174.0853,344.1908 174.5049,344.3893"/>
    <polygon points="184.6529,350.222 185.0257,350.4985 185.4238,350.7372 185.8435,350.9356 186.2805,351.092 186.7308,351.2048 187.1899,351.2729 187.6535,351.2957 188.1172,351.2729 188.5763,351.2048 189.0266,351.092 189.4636,350.9356 189.8832,350.7372 190.2814,350.4985 190.6542,350.222 190.9981,349.9103 191.3099,349.5664 191.5864,349.1935 191.825,348.7954 192.0235,348.3758 192.1798,347.9387 192.2926,347.4885 192.3607,347.0293 192.3835,346.5657 192.3607,346.1021 192.2926,345.6429 192.1798,345.1927 192.0235,344.7556 191.825,344.336 191.5864,343.9379 191.3099,343.565 190.9981,343.2211 190.6542,342.9094 190.2814,342.6329 189.8832,342.3942 189.4636,342.1958 189.0266,342.0394 188.5763,341.9266 188.1172,341.8585 187.6535,341.8357 187.1899,341.8585 186.7308,341.9266 186.2805,342.0394 185.8435,342.1958 185.4238,342.3942 185.0257,342.6329 184.6529,342.9094 184.3089,343.2211 183.9972,343.565 183.7207,343.9379 183.4821,344.336 183.2836,344.7556 183.1272,345.1927 183.0145,345.6429 182.9463,346.1021 182.9236,346.5657 182.9463,347.0293 183.0145,347.4885 183.1272,347.9387 183.2836,348.3758 183.4821,348.7954 183.7207,349.1935 183.9972,349.5664 184.3089,349.9103"/>
    <polygon points="194.2849,379.761 194.2622,379.2974 194.2849,378.8338 194.353,378.3746 194.4658,377.9243 194.6222,377.4873 194.8207,377.0677 195.0593,376.6695 195.3358,376.2967 195.6475,375.9528 195.9915,375.6411 196.3643,375.3645 196.7624,375.1259 197.182,374.9274 197.6191,374.7711 198.0694,374.6583 198.5285,374.5902 198.9921,374.5674 199.4557,374.5902 199.9149,374.6583 200.3652,374.7711 200.8022,374.9274 201.2218,375.1259 201.62,375.3645 201.9928,375.6411 202.3367,375.9528 202.6484,376.2967 202.925,376.6695 203.1636,377.0677 203.3621,377.4873 203.5184,377.9243 203.6312,378.3746 203.6993,378.8338 203.7221,379.2974 203.6993,379.761 203.6312,380.2201 203.5184,380.6704 203.3621,381.1075 203.1636,381.5271 202.925,381.9252 202.6484,382.298 202.3367,382.642 201.9928,382.9537 201.62,383.2302 201.2218,383.4688 200.8022,383.6673 200.3652,383.8237 199.9149,383.9365 199.4557,384.0046 198.9921,384.0273 198.5285,384.0046 198.0694,383.9365 197.6191,383.8237 197.182,383.6673 196.7624,383.4688 196.3643,383.2302 195.9915,382.9537 195.6475,382.642 195.3358,382.298 195.0593,381.9252 194.8207,381.5271 194.6222,381.1075 194.4658,380.6704 194.353,380.2201"/>
    <polygon points="212.1476,365.9231 212.7165,364.974 213.1896,363.9736 213.5624,362.9317 213.8313,361.8583 213.9937,360.7636 214.048,359.6584 213.9937,358.5531 213.8313,357.4585 213.5624,356.385 213.1896,355.3431 212.7165,354.3428 212.1476,353.3936 211.4884,352.5048 210.7452,351.6848 209.9253,350.9417 209.0364,350.2825 208.0873,349.7136 207.0869,349.2404 206.045,348.8676 204.9716,348.5987 203.8769,348.4364 202.7717,348.3821 201.6664,348.4364 200.5718,348.5987 199.4983,348.8676 198.4564,349.2404 197.456,349.7136 196.5069,350.2825 195.618,350.9417 194.7981,351.6848 194.055,352.5048 193.3957,353.3936 192.8268,354.3428 192.3537,355.3431 191.9809,356.385 191.712,357.4585 191.5496,358.5531 191.4953,359.6584 191.5496,360.7636 191.712,361.8583 191.9809,362.9317 192.3537,363.9736 192.8268,364.974 193.3957,365.9231 194.055,366.812 194.7981,367.6319 195.618,368.3751 196.5069,369.0343 197.456,369.6032 198.4564,370.0763 199.4983,370.4491 200.5718,370.718 201.6664,370.8804 202.7717,370.9347 203.8769,370.8804 204.9716,370.718 206.045,370.4491 207.0869,370.0763 208.0873,369.6032 209.0364,369.0343 209.9253,368.3751 210.7452,367.6319 211.4884,366.812"/>
    <polygon points="224.67,369.861 225.0139,369.5493 225.3256,369.2054 225.6021,368.8325 225.8408,368.4344 226.0392,368.0148 226.1956,367.5777 226.3084,367.1275 226.3765,366.6683 226.3993,366.2047 226.3765,365.7411 226.3084,365.2819 226.1956,364.8317 226.0392,364.3946 225.8408,363.975 225.6021,363.5769 225.3256,363.204 225.0139,362.8601 224.67,362.5484 224.2971,362.2719 223.899,362.0332 223.4794,361.8348 223.0423,361.6784 222.5921,361.5656 222.1329,361.4975 221.6693,361.4747 221.2057,361.4975 220.7465,361.5656 220.2963,361.6784 219.8592,361.8348 219.4396,362.0332 219.0415,362.2719 218.6686,362.5484 218.3247,362.8601 218.013,363.204 217.7365,363.5769 217.4978,363.975 217.2994,364.3946 217.143,364.8317 217.0302,365.2819 216.9621,365.7411 216.9393,366.2047 216.9621,366.6683 217.0302,367.1275 217.143,367.5777 217.2994,368.0148 217.4978,368.4344 217.7365,368.8325 218.013,369.2054 218.3247,369.5493 218.6686,369.861 219.0415,370.1375 219.4396,370.3762 219.8592,370.5746 220.2963,370.731 220.7465,370.8438 221.2057,370.9119 221.6693,370.9347 222.1329,370.9119 222.5921,370.8438 223.0423,370.731 223.4794,370.5746 223.899,370.3762 224.2971,370.1375"/>
    <polygon points="241.3458,356.7684 241.0019,356.4566 240.6901,356.1127 240.4136,355.7399 240.175,355.3417 239.9765,354.9221 239.8202,354.4851 239.7074,354.0348 239.6393,353.5757 239.6165,353.112 239.6393,352.6484 239.7074,352.1893 239.8202,351.739 239.9765,351.302 240.175,350.8823 240.4136,350.4842 240.6901,350.1114 241.0019,349.7674 241.3458,349.4557 241.7186,349.1792 242.1168,348.9406 242.5364,348.7421 242.9734,348.5857 243.4237,348.4729 243.8828,348.4048 244.3465,348.3821 244.8101,348.4048 245.2692,348.4729 245.7195,348.5857 246.1565,348.7421 246.5762,348.9406 246.9743,349.1792 247.3471,349.4557 247.6911,349.7674 248.0028,350.1114 248.2793,350.4842 248.5179,350.8823 248.7164,351.302 248.8728,351.739 248.9855,352.1893 249.0537,352.6484 249.0764,353.112 249.0537,353.5757 248.9855,354.0348 248.8728,354.4851 248.7164,354.9221 248.5179,355.3417 248.2793,355.7399 248.0028,356.1127 247.6911,356.4566 247.3471,356.7684 246.9743,357.0449 246.5762,357.2835 246.1565,357.482 245.7195,357.6383 245.2692,357.7511 244.8101,357.8192 244.3465,357.842 243.8828,357.8192 243.4237,357.7511 242.9734,357.6383 242.5364,357.482 242.1168,357.2835 241.7186,357.0449"/>
    <polygon points="236.0085,356.002 236.3525,356.3138 236.6642,356.6577 236.9407,357.0305 237.1793,357.4287 237.3778,357.8483 237.5342,358.2853 237.647,358.7356 237.7151,359.1947 237.7378,359.6584 237.7151,360.122 237.647,360.5811 237.5342,361.0314 237.3778,361.4684 237.1793,361.8881 236.9407,362.2862 236.6642,362.659 236.3525,363.003 236.0085,363.3147 235.6357,363.5912 235.2376,363.8298 234.818,364.0283 234.3809,364.1847 233.9306,364.2975 233.4715,364.3656 233.0079,364.3883 232.5443,364.3656 232.0851,364.2975 231.6348,364.1847 231.1978,364.0283 230.7782,363.8298 230.38,363.5912 230.0072,363.3147 229.6633,363.003 229.3516,362.659 229.075,362.2862 228.8364,361.8881 228.6379,361.4684 228.4816,361.0314 228.3688,360.5811 228.3007,360.122 228.2779,359.6584 228.3007,359.1947 228.3688,358.7356 228.4816,358.2853 228.6379,357.8483 228.8364,357.4287 229.075,357.0305 229.3516,356.6577 229.6633,356.3138 230.0072,356.002 230.38,355.7255 230.7782,355.4869 231.1978,355.2884 231.6348,355.1321 232.0851,355.0193 232.5443,354.9512 233.0079,354.9284 233.4715,354.9512 233.9306,355.0193 234.3809,355.1321 234.818,355.2884 235.2376,355.4869 235.6357,355.7255"/>
    <polygon points="218.013,350.1114 217.7365,350.4842 217.4978,350.8823 217.2994,351.302 217.143,351.739 217.0302,352.1893 216.9621,352.6484 216.9393,353.112 216.9621,353.5757 217.0302,354.0348 217.143,354.4851 217.2994,354.9221 217.4978,355.3417 217.7365,355.7399 218.013,356.1127 218.3247,356.4566 218.6686,356.7684 219.0415,357.0449 219.4396,357.2835 219.8592,357.482 220.2963,357.6383 220.7465,357.7511 221.2057,357.8192 221.6693,357.842 222.1329,357.8192 222.5921,357.7511 223.0423,357.6383 223.4794,357.482 223.899,357.2835 224.2971,357.0449 224.67,356.7684 225.0139,356.4566 225.3256,356.1127 225.6021,355.7399 225.8408,355.3417 226.0392,354.9221 226.1956,354.4851 226.3084,354.0348 226.3765,353.5757 226.3993,353.112 226.3765,352.6484 226.3084,352.1893 226.1956,351.739 226.0392,351.302 225.8408,350.8823 225.6021,350.4842 225.3256,350.1114 225.0139,349.7674 224.67,349.4557 224.2971,349.1792 223.899,348.9406 223.4794,348.7421 223.0423,348.5857 222.5921,348.4729 222.1329,348.4048 221.6693,348.3821 221.2057,348.4048 220.7465,348.4729 220.2963,348.5857 219.8592,348.7421 219.4396,348.9406 219.0415,349.1792 218.6686,349.4557 218.3247,349.7674"/>
    <polygon points="226.1956,338.6463 226.3084,339.0966 226.3765,339.5557 226.3993,340.0194 226.3765,340.483 226.3084,340.9421 226.1956,341.3924 226.0392,341.8294 225.8408,342.2491 225.6021,342.6472 225.3256,343.02 225.0139,343.364 224.67,343.6757 224.2971,343.9522 223.899,344.1908 223.4794,344.3893 223.0423,344.5457 222.5921,344.6585 222.1329,344.7266 221.6693,344.7493 221.2057,344.7266 220.7465,344.6585 220.2963,344.5457 219.8592,344.3893 219.4396,344.1908 219.0415,343.9522 218.6686,343.6757 218.3247,343.364 218.013,343.02 217.7365,342.6472 217.4978,342.2491 217.2994,341.8294 217.143,341.3924 217.0302,340.9421 216.9621,340.483 216.9393,340.0194 216.9621,339.5557 217.0302,339.0966 217.143,338.6463 217.2994,338.2093 217.4978,337.7897 217.7365,337.3915 218.013,337.0187 218.3247,336.6748 218.6686,336.363 219.0415,336.0865 219.4396,335.8479 219.8592,335.6494 220.2963,335.4931 220.7465,335.3803 221.2057,335.3122 221.6693,335.2894 222.1329,335.3122 222.5921,335.3803 223.0423,335.4931 223.4794,335.6494 223.899,335.8479 224.2971,336.0865 224.67,336.363 225.0139,336.6748 225.3256,337.0187 225.6021,337.3915 225.8408,337.7897 226.0392,338.2093"/>
    <polygon points="233.4715,338.1802 233.0079,338.203 232.5443,338.1802 232.0851,338.1121 231.6348,337.9993 231.1978,337.843 230.7782,337.6445 230.38,337.4059 230.0072,337.1294 229.6633,336.8176 229.3516,336.4737 229.075,336.1009 228.8364,335.7027 228.6379,335.2831 228.4816,334.8461 228.3688,334.3958 228.3007,333.9367 228.2779,333.473 228.3007,333.0094 228.3688,332.5503 228.4816,332.1 228.6379,331.663 228.8364,331.2433 229.075,330.8452 229.3516,330.4724 229.6633,330.1284 230.0072,329.8167 230.38,329.5402 230.7782,329.3016 231.1978,329.1031 231.6348,328.9467 232.0851,328.8339 232.5443,328.7658 233.0079,328.7431 233.4715,328.7658 233.9306,328.8339 234.3809,328.9467 234.818,329.1031 235.2376,329.3016 235.6357,329.5402 236.0085,329.8167 236.3525,330.1284 236.6642,330.4724 236.9407,330.8452 237.1793,331.2433 237.3778,331.663 237.5342,332.1 237.647,332.5503 237.7151,333.0094 237.7378,333.473 237.7151,333.9367 237.647,334.3958 237.5342,334.8461 237.3778,335.2831 237.1793,335.7027 236.9407,336.1009 236.6642,336.4737 236.3525,336.8176 236.0085,337.1294 235.6357,337.4059 235.2376,337.6445 234.818,337.843 234.3809,337.9993 233.9306,338.1121"/>
    <polygon points="248.5179,342.2491 248.2793,342.6472 248.0028,343.02 247.6911,343.364 247.3471,343.6757 246.9743,343.9522 246.5762,344.1908 246.1565,344.3893 245.7195,344.5457 245.2692,344.6585 244.8101,344.7266 244.3465,344.7493 243.8828,344.7266 243.4237,344.6585 242.9734,344.5457 242.5364,344.3893 242.1168,344.1908 241.7186,343.9522 241.3458,343.6757 241.0019,343.364 240.6901,343.02 240.4136,342.6472 240.175,342.2491 239.9765,341.8294 239.8202,341.3924 239.7074,340.9421 239.6393,340.483 239.6165,340.0194 239.6393,339.5557 239.7074,339.0966 239.8202,338.6463 239.9765,338.2093 240.175,337.7897 240.4136,337.3915 240.6901,337.0187 241.0019,336.6748 241.3458,336.363 241.7186,336.0865 242.1168,335.8479 242.5364,335.6494 242.9734,335.4931 243.4237,335.3803 243.8828,335.3122 244.3465,335.2894 244.8101,335.3122 245.2692,335.3803 245.7195,335.4931 246.1565,335.6494 246.5762,335.8479 246.9743,336.0865 247.3471,336.363 247.6911,336.6748 248.0028,337.0187 248.2793,337.3915 248.5179,337.7897 248.7164,338.2093 248.8728,338.6463 248.9855,339.0966 249.0537,339.5557 249.0764,340.0194 249.0537,340.483 248.9855,340.9421 248.8728,341.3924 248.7164,341.8294"/>
    <polygon points="243.8828,331.6339 243.4237,331.5658 242.9734,331.453 242.5364,331.2966 242.1168,331.0982 241.7186,330.8595 241.3458,330.583 241.0019,330.2713 240.6901,329.9274 240.4136,329.5545 240.175,329.1564 239.9765,328.7368 239.8202,328.2997 239.7074,327.8495 239.6393,327.3903 239.6165,326.9267 239.6393,326.4631 239.7074,326.0039 239.8202,325.5537 239.9765,325.1166 240.175,324.697 240.4136,324.2989 240.6901,323.926 241.0019,323.5821 241.3458,323.2704 241.7186,322.9939 242.1168,322.7552 242.5364,322.5568 242.9734,322.4004 243.4237,322.2876 243.8828,322.2195 244.3465,322.1967 244.8101,322.2195 245.2692,322.2876 245.7195,322.4004 246.1565,322.5568 246.5762,322.7552 246.9743,322.9939 247.3471,323.2704 247.6911,323.5821 248.0028,323.926 248.2793,324.2989 248.5179,324.697 248.7164,325.1166 248.8728,325.5537 248.9855,326.0039 249.0537,326.4631 249.0764,326.9267 249.0537,327.3903 248.9855,327.8495 248.8728,328.2997 248.7164,328.7368 248.5179,329.1564 248.2793,329.5545 248.0028,329.9274 247.6911,330.2713 247.3471,330.583 246.9743,330.8595 246.5762,331.0982 246.1565,331.2966 245.7195,331.453 245.2692,331.5658 244.8101,331.6339 244.3465,331.6567"/>
    <polygon points="265.2135,318.204 265.6506,318.3603 266.1009,318.4731 266.56,318.5412 267.0236,318.564 267.4872,318.5412 267.9464,318.4731 268.3967,318.3603 268.8337,318.204 269.2533,318.0055 269.6515,317.7669 270.0243,317.4903 270.3682,317.1786 270.6799,316.8347 270.9565,316.4619 271.1951,316.0637 271.3935,315.6441 271.5499,315.2071 271.6627,314.7568 271.7308,314.2976 271.7536,313.834 271.7308,313.3704 271.6627,312.9113 271.5499,312.461 271.3935,312.0239 271.1951,311.6043 270.9565,311.2062 270.6799,310.8334 270.3682,310.4894 270.0243,310.1777 269.6515,309.9012 269.2533,309.6626 268.8337,309.4641 268.3967,309.3077 267.9464,309.1949 267.4872,309.1268 267.0236,309.1041 266.56,309.1268 266.1009,309.1949 265.6506,309.3077 265.2135,309.4641 264.7939,309.6626 264.3958,309.9012 264.023,310.1777 263.679,310.4894 263.3673,310.8334 263.0908,311.2062 262.8522,311.6043 262.6537,312.0239 262.4973,312.461 262.3845,312.9113 262.3164,313.3704 262.2936,313.834 262.3164,314.2976 262.3845,314.7568 262.4973,315.2071 262.6537,315.6441 262.8522,316.0637 263.0908,316.4619 263.3673,316.8347 263.679,317.1786 264.023,317.4903 264.3958,317.7669 264.7939,318.0055"/>
    <polygon points="287.073,330.8595 286.7001,330.583 286.3562,330.2713 286.0445,329.9274 285.768,329.5545 285.5293,329.1564 285.3309,328.7368 285.1745,328.2997 285.0617,327.8495 284.9936,327.3903 284.9708,326.9267 284.9936,326.4631 285.0617,326.0039 285.1745,325.5537 285.3309,325.1166 285.5293,324.697 285.768,324.2989 286.0445,323.926 286.3562,323.5821 286.7001,323.2704 287.073,322.9939 287.4711,322.7552 287.8907,322.5568 288.3277,322.4004 288.778,322.2876 289.2372,322.2195 289.7008,322.1967 290.1644,322.2195 290.6236,322.2876 291.0738,322.4004 291.5109,322.5568 291.9305,322.7552 292.3286,322.9939 292.7015,323.2704 293.0454,323.5821 293.3571,323.926 293.6336,324.2989 293.8723,324.697 294.0707,325.1166 294.2271,325.5537 294.3399,326.0039 294.408,326.4631 294.4308,326.9267 294.408,327.3903 294.3399,327.8495 294.2271,328.2997 294.0707,328.7368 293.8723,329.1564 293.6336,329.5545 293.3571,329.9274 293.0454,330.2713 292.7015,330.583 292.3286,330.8595 291.9305,331.0982 291.5109,331.2966 291.0738,331.453 290.6236,331.5658 290.1644,331.6339 289.7008,331.6567 289.2372,331.6339 288.778,331.5658 288.3277,331.453 287.8907,331.2966 287.4711,331.0982"/>
    <polygon points="283.0694,320.844 283.0013,321.3031 282.8885,321.7534 282.7321,322.1904 282.5337,322.6101 282.295,323.0082 282.0185,323.381 281.7068,323.725 281.3629,324.0367 280.99,324.3132 280.5919,324.5518 280.1723,324.7503 279.7352,324.9067 279.285,325.0195 278.8258,325.0876 278.3622,325.1103 277.8986,325.0876 277.4394,325.0195 276.9892,324.9067 276.5521,324.7503 276.1325,324.5518 275.7344,324.3132 275.3615,324.0367 275.0176,323.725 274.7059,323.381 274.4294,323.0082 274.1907,322.6101 273.9923,322.1904 273.8359,321.7534 273.7231,321.3031 273.655,320.844 273.6322,320.3804 273.655,319.9167 273.7231,319.4576 273.8359,319.0073 273.9923,318.5703 274.1907,318.1507 274.4294,317.7525 274.7059,317.3797 275.0176,317.0358 275.3615,316.724 275.7344,316.4475 276.1325,316.2089 276.5521,316.0104 276.9892,315.8541 277.4394,315.7413 277.8986,315.6732 278.3622,315.6504 278.8258,315.6732 279.285,315.7413 279.7352,315.8541 280.1723,316.0104 280.5919,316.2089 280.99,316.4475 281.3629,316.724 281.7068,317.0358 282.0185,317.3797 282.295,317.7525 282.5337,318.1507 282.7321,318.5703 282.8885,319.0073 283.0013,319.4576 283.0694,319.9167 283.0922,320.3804"/>
    <polygon points="276.9892,302.7614 276.5521,302.9178 276.1325,303.1162 275.7344,303.3549 275.3615,303.6314 275.0176,303.9431 274.7059,304.287 274.4294,304.6599 274.1907,305.058 273.9923,305.4776 273.8359,305.9147 273.7231,306.3649 273.655,306.8241 273.6322,307.2877 273.655,307.7513 273.7231,308.2105 273.8359,308.6607 273.9923,309.0978 274.1907,309.5174 274.4294,309.9155 274.7059,310.2884 275.0176,310.6323 275.3615,310.944 275.7344,311.2205 276.1325,311.4592 276.5521,311.6576 276.9892,311.814 277.4394,311.9268 277.8986,311.9949 278.3622,312.0177 278.8258,311.9949 279.285,311.9268 279.7352,311.814 280.1723,311.6576 280.5919,311.4592 280.99,311.2205 281.3629,310.944 281.7068,310.6323 282.0185,310.2884 282.295,309.9155 282.5337,309.5174 282.7321,309.0978 282.8885,308.6607 283.0013,308.2105 283.0694,307.7513 283.0922,307.2877 283.0694,306.8241 283.0013,306.3649 282.8885,305.9147 282.7321,305.4776 282.5337,305.058 282.295,304.6599 282.0185,304.287 281.7068,303.9431 281.3629,303.6314 280.99,303.3549 280.5919,303.1162 280.1723,302.9178 279.7352,302.7614 279.285,302.6486 278.8258,302.5805 278.3622,302.5577 277.8986,302.5805 277.4394,302.6486"/>
    <polygon points="262.3164,288.1123 262.2936,287.6487 262.3164,287.1851 262.3845,286.7259 262.4973,286.2757 262.6537,285.8386 262.8522,285.419 263.0908,285.0209 263.3673,284.648 263.679,284.3041 264.023,283.9924 264.3958,283.7159 264.7939,283.4772 265.2135,283.2788 265.6506,283.1224 266.1009,283.0096 266.56,282.9415 267.0236,282.9187 267.4872,282.9415 267.9464,283.0096 268.3967,283.1224 268.8337,283.2788 269.2533,283.4772 269.6515,283.7159 270.0243,283.9924 270.3682,284.3041 270.6799,284.648 270.9565,285.0209 271.1951,285.419 271.3935,285.8386 271.5499,286.2757 271.6627,286.7259 271.7308,287.1851 271.7536,287.6487 271.7308,288.1123 271.6627,288.5715 271.5499,289.0217 271.3935,289.4588 271.1951,289.8784 270.9565,290.2765 270.6799,290.6494 270.3682,290.9933 270.0243,291.305 269.6515,291.5815 269.2533,291.8202 268.8337,292.0186 268.3967,292.175 267.9464,292.2878 267.4872,292.3559 267.0236,292.3787 266.56,292.3559 266.1009,292.2878 265.6506,292.175 265.2135,292.0186 264.7939,291.8202 264.3958,291.5815 264.023,291.305 263.679,290.9933 263.3673,290.6494 263.0908,290.2765 262.8522,289.8784 262.6537,289.4588 262.4973,289.0217 262.3845,288.5715"/>
    <polygon points="285.768,264.0912 285.5293,263.6931 285.3309,263.2734 285.1745,262.8364 285.0617,262.3861 284.9936,261.927 284.9708,261.4634 284.9936,260.9997 285.0617,260.5406 285.1745,260.0903 285.3309,259.6533 285.5293,259.2337 285.768,258.8355 286.0445,258.4627 286.3562,258.1188 286.7001,257.807 287.073,257.5305 287.4711,257.2919 287.8907,257.0934 288.3277,256.9371 288.778,256.8243 289.2372,256.7562 289.7008,256.7334 290.1644,256.7562 290.6236,256.8243 291.0738,256.9371 291.5109,257.0934 291.9305,257.2919 292.3286,257.5305 292.7015,257.807 293.0454,258.1188 293.3571,258.4627 293.6336,258.8355 293.8723,259.2337 294.0707,259.6533 294.2271,260.0903 294.3399,260.5406 294.408,260.9997 294.4308,261.4634 294.408,261.927 294.3399,262.3861 294.2271,262.8364 294.0707,263.2734 293.8723,263.6931 293.6336,264.0912 293.3571,264.464 293.0454,264.808 292.7015,265.1197 292.3286,265.3962 291.9305,265.6348 291.5109,265.8333 291.0738,265.9897 290.6236,266.1024 290.1644,266.1706 289.7008,266.1933 289.2372,266.1706 288.778,266.1024 288.3277,265.9897 287.8907,265.8333 287.4711,265.6348 287.073,265.3962 286.7001,265.1197 286.3562,264.808 286.0445,264.464"/>
    <polygon points="273.7231,267.0869 273.8359,266.6367 273.9923,266.1996 274.1907,265.78 274.4294,265.3819 274.7059,265.009 275.0176,264.6651 275.3615,264.3534 275.7344,264.0769 276.1325,263.8382 276.5521,263.6398 276.9892,263.4834 277.4394,263.3706 277.8986,263.3025 278.3622,263.2797 278.8258,263.3025 279.285,263.3706 279.7352,263.4834 280.1723,263.6398 280.5919,263.8382 280.99,264.0769 281.3629,264.3534 281.7068,264.6651 282.0185,265.009 282.295,265.3819 282.5337,265.78 282.7321,266.1996 282.8885,266.6367 283.0013,267.0869 283.0694,267.5461 283.0922,268.0097 283.0694,268.4733 283.0013,268.9325 282.8885,269.3827 282.7321,269.8198 282.5337,270.2394 282.295,270.6375 282.0185,271.0104 281.7068,271.3543 281.3629,271.666 280.99,271.9425 280.5919,272.1812 280.1723,272.3796 279.7352,272.536 279.285,272.6488 278.8258,272.7169 278.3622,272.7397 277.8986,272.7169 277.4394,272.6488 276.9892,272.536 276.5521,272.3796 276.1325,272.1812 275.7344,271.9425 275.3615,271.666 275.0176,271.3543 274.7059,271.0104 274.4294,270.6375 274.1907,270.2394 273.9923,269.8198 273.8359,269.3827 273.7231,268.9325 273.655,268.4733 273.6322,268.0097 273.655,267.5461"/>
    <polygon points="263.0908,271.9282 263.3673,271.5554 263.679,271.2114 264.023,270.8997 264.3958,270.6232 264.7939,270.3846 265.2135,270.1861 265.6506,270.0297 266.1009,269.9169 266.56,269.8488 267.0236,269.8261 267.4872,269.8488 267.9464,269.9169 268.3967,270.0297 268.8337,270.1861 269.2533,270.3846 269.6515,270.6232 270.0243,270.8997 270.3682,271.2114 270.6799,271.5554 270.9565,271.9282 271.1951,272.3263 271.3935,272.7459 271.5499,273.183 271.6627,273.6333 271.7308,274.0924 271.7536,274.556 271.7308,275.0196 271.6627,275.4788 271.5499,275.9291 271.3935,276.3661 271.1951,276.7857 270.9565,277.1839 270.6799,277.5567 270.3682,277.9006 270.0243,278.2123 269.6515,278.4889 269.2533,278.7275 268.8337,278.926 268.3967,279.0823 267.9464,279.1951 267.4872,279.2632 267.0236,279.286 266.56,279.2632 266.1009,279.1951 265.6506,279.0823 265.2135,278.926 264.7939,278.7275 264.3958,278.4889 264.023,278.2123 263.679,277.9006 263.3673,277.5567 263.0908,277.1839 262.8522,276.7857 262.6537,276.3661 262.4973,275.9291 262.3845,275.4788 262.3164,275.0196 262.2936,274.556 262.3164,274.0924 262.3845,273.6333 262.4973,273.183 262.6537,272.7459 262.8522,272.3263"/>
    <polygon points="258.5439,276.7871 258.9167,277.829 259.1856,278.9025 259.348,279.9971 259.4023,281.1024 259.348,282.2076 259.1856,283.3023 258.9167,284.3757 258.5439,285.4176 258.0708,286.418 257.5019,287.3671 256.8427,288.256 256.0995,289.0759 255.2796,289.8191 254.3908,290.4783 253.4416,291.0472 252.4412,291.5203 251.3993,291.8931 250.3259,292.162 249.2313,292.3244 248.126,292.3787 247.0207,292.3244 245.9261,292.162 244.8526,291.8931 243.8107,291.5203 242.8104,291.0472 241.8612,290.4783 240.9724,289.8191 240.1524,289.0759 239.4093,288.256 238.7501,287.3671 238.1812,286.418 237.708,285.4176 237.3352,284.3757 237.0663,283.3023 236.904,282.2076 236.8497,281.1024 236.904,279.9971 237.0663,278.9025 237.3352,277.829 237.708,276.7871 238.1812,275.7867 238.7501,274.8376 239.4093,273.9487 240.1524,273.1288 240.9724,272.3857 241.8612,271.7265 242.8104,271.1575 243.8107,270.6844 244.8526,270.3116 245.9261,270.0427 247.0207,269.8804 248.126,269.8261 249.2313,269.8804 250.3259,270.0427 251.3993,270.3116 252.4412,270.6844 253.4416,271.1575 254.3908,271.7265 255.2796,272.3857 256.0995,273.1288 256.8427,273.9487 257.5019,274.8376 258.0708,275.7867"/>
    <polygon points="243.8107,296.8697 242.8104,297.3429 241.8612,297.9118 240.9724,298.571 240.1524,299.3141 239.4093,300.1341 238.7501,301.0229 238.1812,301.9721 237.708,302.9724 237.3352,304.0144 237.0663,305.0878 236.904,306.1824 236.8497,307.2877 236.904,308.393 237.0663,309.4876 237.3352,310.561 237.708,311.603 238.1812,312.6033 238.7501,313.5525 239.4093,314.4413 240.1524,315.2612 240.9724,316.0044 241.8612,316.6636 242.8104,317.2325 243.8107,317.7056 244.8526,318.0784 245.9261,318.3473 247.0207,318.5097 248.126,318.564 249.2313,318.5097 250.3259,318.3473 251.3993,318.0784 252.4412,317.7056 253.4416,317.2325 254.3908,316.6636 255.2796,316.0044 256.0995,315.2612 256.8427,314.4413 257.5019,313.5525 258.0708,312.6033 258.5439,311.603 258.9167,310.561 259.1856,309.4876 259.348,308.393 259.4023,307.2877 259.348,306.1824 259.1856,305.0878 258.9167,304.0144 258.5439,302.9724 258.0708,301.9721 257.5019,301.0229 256.8427,300.1341 256.0995,299.3141 255.2796,298.571 254.3908,297.9118 253.4416,297.3429 252.4412,296.8697 251.3993,296.4969 250.3259,296.2281 249.2313,296.0657 248.126,296.0114 247.0207,296.0657 245.9261,296.2281 244.8526,296.4969"/>
    <polygon points="217.4046,317.5147 219.6563,316.709 221.8182,315.6865 223.8694,314.4571 225.7902,313.0325 227.5622,311.4265 229.1682,309.6545 230.5928,307.7337 231.8222,305.6825 232.8447,303.5206 233.6504,301.269 234.2314,298.9492 234.5823,296.5836 234.6997,294.195 234.5823,291.8065 234.2314,289.4409 233.6504,287.1211 232.8447,284.8694 231.8222,282.7076 230.5928,280.6564 229.1682,278.7355 227.5622,276.9636 225.7902,275.3576 223.8694,273.933 221.8182,272.7035 219.6563,271.681 217.4046,270.8754 215.0849,270.2943 212.7193,269.9434 210.3307,269.8261 207.9421,269.9434 205.5766,270.2943 203.2568,270.8754 201.0051,271.681 198.8433,272.7035 196.792,273.933 194.8712,275.3576 193.0992,276.9636 191.4932,278.7355 190.0686,280.6564 188.8392,282.7076 187.8167,284.8694 187.0111,287.1211 186.43,289.4409 186.0791,291.8065 185.9617,294.195 186.0791,296.5836 186.43,298.9492 187.0111,301.269 187.8167,303.5206 188.8392,305.6825 190.0686,307.7337 191.4932,309.6545 193.0992,311.4265 194.8712,313.0325 196.792,314.4571 198.8433,315.6865 201.0051,316.709 203.2568,317.5147 205.5766,318.0958 207.9421,318.4467 210.3307,318.564 212.7193,318.4467 215.0849,318.0958"/>
    <polygon points="198.4564,323.0551 197.456,323.5282 196.5069,324.0971 195.618,324.7563 194.7981,325.4995 194.055,326.3194 193.3957,327.2083 192.8268,328.1574 192.3537,329.1578 191.9809,330.1997 191.712,331.2731 191.5496,332.3678 191.4953,333.473 191.5496,334.5783 191.712,335.6729 191.9809,336.7464 192.3537,337.7883 192.8268,338.7886 193.3957,339.7378 194.055,340.6266 194.7981,341.4466 195.618,342.1897 196.5069,342.8489 197.456,343.4178 198.4564,343.891 199.4983,344.2638 200.5718,344.5327 201.6664,344.695 202.7717,344.7493 203.8769,344.695 204.9716,344.5327 206.045,344.2638 207.0869,343.891 208.0873,343.4178 209.0364,342.8489 209.9253,342.1897 210.7452,341.4466 211.4884,340.6266 212.1476,339.7378 212.7165,338.7886 213.1896,337.7883 213.5624,336.7464 213.8313,335.6729 213.9937,334.5783 214.048,333.473 213.9937,332.3678 213.8313,331.2731 213.5624,330.1997 213.1896,329.1578 212.7165,328.1574 212.1476,327.2083 211.4884,326.3194 210.7452,325.4995 209.9253,324.7563 209.0364,324.0971 208.0873,323.5282 207.0869,323.0551 206.045,322.6823 204.9716,322.4134 203.8769,322.251 202.7717,322.1967 201.6664,322.251 200.5718,322.4134 199.4983,322.6823"/>
    <polygon points="191.3165,319.2751 191.1541,318.1805 190.8852,317.107 190.5124,316.0651 190.0393,315.0648 189.4704,314.1156 188.8112,313.2268 188.068,312.4068 187.2481,311.6637 186.3593,311.0045 185.4101,310.4356 184.4097,309.9624 183.3678,309.5896 182.2944,309.3207 181.1998,309.1584 180.0945,309.1041 178.9892,309.1584 177.8946,309.3207 176.8211,309.5896 175.7792,309.9624 174.7789,310.4356 173.8297,311.0045 172.9409,311.6637 172.1209,312.4068 171.3778,313.2268 170.7186,314.1156 170.1497,315.0648 169.6765,316.0651 169.3037,317.107 169.0349,318.1805 168.8725,319.2751 168.8182,320.3804 168.8725,321.4856 169.0349,322.5803 169.3037,323.6537 169.6765,324.6956 170.1497,325.696 170.7186,326.6451 171.3778,327.534 172.1209,328.3539 172.9409,329.0971 173.8297,329.7563 174.7789,330.3252 175.7792,330.7983 176.8211,331.1711 177.8946,331.44 178.9892,331.6024 180.0945,331.6567 181.1998,331.6024 182.2944,331.44 183.3678,331.1711 184.4097,330.7983 185.4101,330.3252 186.3593,329.7563 187.2481,329.0971 188.068,328.3539 188.8112,327.534 189.4704,326.6451 190.0393,325.696 190.5124,324.6956 190.8852,323.6537 191.1541,322.5803 191.3165,321.4856 191.3708,320.3804"/>
  </g>
</svg>
