<?xml version="1.0" encoding="utf-8" ?>
<svg xmlns="http://www.w3.org/2000/svg" xmlns:cc="http://creativecommons.org/ns" xmlns:dc="http://purl.org/dc/elements/1.1/" xmlns:ev="http://www.w3.org/2001/xml-events" xmlns:inkscape="http://www.inkscape.org/namespaces/inkscape" xmlns:rdf="http://www.w3.org/1999/02/22-rdf-syntax-ns" xmlns:sodipodi="http://sodipodi.sourceforge.net/DTD/sodipodi-0.dtd" xmlns:xlink="http://www.w3.org/1999/xlink" baseProfile="tiny" height="15.875cm" version="1.2" viewBox="0 0 432.0 600.0" width="11.43cm">
  <metadata>
    <rdf:RDF>
      <cc:Work>
        <dc:format>image/svg+xml</dc:format>
        <dc:source>vsk save -s 202 -c hex-grid/config/bubble-coasters-2.json /Users/tobin/src/fabian/plotting/fabian-plotting/hex-grid/sketch_hex_grid.py</dc:source>
        <dc:date>2023-11-11T11:30:23.397997</dc:date>
      </cc:Work>
    </rdf:RDF>
  </metadata>
  <defs/>
  <g fill="none" id="layer1" inkscape:groupmode="layer" inkscape:label="1" stroke="#000000" stroke-width="0.7559" style="display:inline">
    <polygon points="181.8354,285.7962 183.9972,284.7737 186.2489,283.968 188.5687,283.387 190.9343,283.0361 193.3228,282.9187 195.7114,283.0361 198.077,283.387 200.3968,283.968 202.6484,284.7737 204.8103,285.7962 206.8615,287.0256 208.7823,288.4502 210.5543,290.0562 212.1603,291.8282 213.5849,293.749 214.8144,295.8002 215.8368,297.9621 216.6425,300.2138 217.2236,302.5335 217.5745,304.8991 217.6918,307.2877 217.5745,309.6763 217.2236,312.0418 216.6425,314.3616 215.8368,316.6133 214.8144,318.7752 213.5849,320.8264 212.1603,322.7472 210.5543,324.5192 208.7823,326.1252 206.8615,327.5498 204.8103,328.7792 202.6484,329.8017 200.3968,330.6074 198.077,331.1884 195.7114,331.5393 193.3228,331.6567 190.9343,331.5393 188.5687,331.1884 186.2489,330.6074 183.9972,329.8017 181.8354,328.7792 179.7842,327.5498 177.8633,326.1252 176.0914,324.5192 174.4854,322.7472 173.0608,320.8264 171.8313,318.7752 170.8088,316.6133 170.0032,314.3616 169.4221,312.0418 169.0712,309.6763 168.9539,307.2877 169.0712,304.8991 169.4221,302.5335 170.0032,300.2138 170.8088,297.9621 171.8313,295.8002 173.0608,293.749 174.4854,291.8282 176.0914,290.0562 177.8633,288.4502 179.7842,287.0256"/>
    <polygon points="172.2201,283.4909 171.8692,285.8565 171.2882,288.1763 170.4825,290.428 169.46,292.5898 168.2306,294.641 166.806,296.5619 165.2,298.3338 163.428,299.9398 161.5072,301.3644 159.456,302.5939 157.2941,303.6164 155.0424,304.422 152.7227,305.0031 150.3571,305.354 147.9685,305.4713 145.5799,305.354 143.2144,305.0031 140.8946,304.422 138.6429,303.6164 136.481,302.5939 134.4298,301.3644 132.509,299.9398 130.737,298.3338 129.131,296.5619 127.7064,294.641 126.477,292.5898 125.4545,290.428 124.6488,288.1763 124.0678,285.8565 123.7169,283.4909 123.5995,281.1024 123.7169,278.7138 124.0678,276.3482 124.6488,274.0284 125.4545,271.7768 126.477,269.6149 127.7064,267.5637 129.131,265.6428 130.737,263.8709 132.509,262.2649 134.4298,260.8403 136.481,259.6108 138.6429,258.5884 140.8946,257.7827 143.2144,257.2016 145.5799,256.8507 147.9685,256.7334 150.3571,256.8507 152.7227,257.2016 155.0424,257.7827 157.2941,258.5884 159.456,259.6108 161.5072,260.8403 163.428,262.2649 165.2,263.8709 166.806,265.6428 168.2306,267.5637 169.46,269.6149 170.4825,271.7768 171.2882,274.0284 171.8692,276.3482 172.2201,278.7138 172.3375,281.1024"/>
    <polygon points="106.5103,306.1824 106.6726,305.0878 106.9415,304.0144 107.3143,302.9724 107.7875,301.9721 108.3564,301.0229 109.0156,300.1341 109.7587,299.3141 110.5787,298.571 111.4675,297.9118 112.4167,297.3429 113.417,296.8697 114.4589,296.4969 115.5324,296.2281 116.627,296.0657 117.7323,296.0114 118.8376,296.0657 119.9322,296.2281 121.0056,296.4969 122.0475,296.8697 123.0479,297.3429 123.9971,297.9118 124.8859,298.571 125.7058,299.3141 126.449,300.1341 127.1082,301.0229 127.6771,301.9721 128.1502,302.9724 128.523,304.0144 128.7919,305.0878 128.9543,306.1824 129.0086,307.2877 128.9543,308.393 128.7919,309.4876 128.523,310.561 128.1502,311.603 127.6771,312.6033 127.1082,313.5525 126.449,314.4413 125.7058,315.2612 124.8859,316.0044 123.9971,316.6636 123.0479,317.2325 122.0475,317.7056 121.0056,318.0784 119.9322,318.3473 118.8376,318.5097 117.7323,318.564 116.627,318.5097 115.5324,318.3473 114.4589,318.0784 113.417,317.7056 112.4167,317.2325 111.4675,316.6636 110.5787,316.0044 109.7587,315.2612 109.0156,314.4413 108.3564,313.5525 107.7875,312.6033 107.3143,311.603 106.9415,310.561 106.6726,309.4876 106.5103,308.393 106.456,307.2877"/>
    <polygon points="97.9751,295.1178 97.907,294.6586 97.8842,294.195 97.907,293.7314 97.9751,293.2723 98.0879,292.822 98.2442,292.3849 98.4427,291.9653 98.6813,291.5672 98.9579,291.1944 99.2696,290.8504 99.6135,290.5387 99.9863,290.2622 100.3845,290.0236 100.8041,289.8251 101.2411,289.6687 101.6914,289.5559 102.1506,289.4878 102.6142,289.4651 103.0778,289.4878 103.5369,289.5559 103.9872,289.6687 104.4243,289.8251 104.8439,290.0236 105.242,290.2622 105.6148,290.5387 105.9588,290.8504 106.2705,291.1944 106.547,291.5672 106.7856,291.9653 106.9841,292.3849 107.1405,292.822 107.2533,293.2723 107.3214,293.7314 107.3441,294.195 107.3214,294.6586 107.2533,295.1178 107.1405,295.5681 106.9841,296.0051 106.7856,296.4247 106.547,296.8229 106.2705,297.1957 105.9588,297.5396 105.6148,297.8513 105.242,298.1279 104.8439,298.3665 104.4243,298.565 103.9872,298.7213 103.5369,298.8341 103.0778,298.9022 102.6142,298.925 102.1506,298.9022 101.6914,298.8341 101.2411,298.7213 100.8041,298.565 100.3845,298.3665 99.9863,298.1279 99.6135,297.8513 99.2696,297.5396 98.9579,297.1957 98.6813,296.8229 98.4427,296.4247 98.2442,296.0051 98.0879,295.5681"/>
    <polygon points="76.9363,238.168 76.5924,238.4798 76.2807,238.8237 76.0042,239.1965 75.7655,239.5947 75.5671,240.0143 75.4107,240.4513 75.2979,240.9016 75.2298,241.3607 75.207,241.8244 75.2298,242.288 75.2979,242.7471 75.4107,243.1974 75.5671,243.6344 75.7655,244.0541 76.0042,244.4522 76.2807,244.825 76.5924,245.169 76.9363,245.4807 77.3092,245.7572 77.7073,245.9958 78.1269,246.1943 78.564,246.3507 79.0142,246.4634 79.4734,246.5316 79.937,246.5543 80.4006,246.5316 80.8598,246.4634 81.31,246.3507 81.7471,246.1943 82.1667,245.9958 82.5648,245.7572 82.9377,245.4807 83.2816,245.169 83.5933,244.825 83.8698,244.4522 84.1085,244.0541 84.3069,243.6344 84.4633,243.1974 84.5761,242.7471 84.6442,242.288 84.667,241.8244 84.6442,241.3607 84.5761,240.9016 84.4633,240.4513 84.3069,240.0143 84.1085,239.5947 83.8698,239.1965 83.5933,238.8237 83.2816,238.4798 82.9377,238.168 82.5648,237.8915 82.1667,237.6529 81.7471,237.4544 81.31,237.2981 80.8598,237.1853 80.4006,237.1172 79.937,237.0944 79.4734,237.1172 79.0142,237.1853 78.564,237.2981 78.1269,237.4544 77.7073,237.6529 77.3092,237.8915"/>
    <polygon points="82.1667,224.5602 81.7471,224.3618 81.31,224.2054 80.8598,224.0926 80.4006,224.0245 79.937,224.0017 79.4734,224.0245 79.0142,224.0926 78.564,224.2054 78.1269,224.3618 77.7073,224.5602 77.3092,224.7989 76.9363,225.0754 76.5924,225.3871 76.2807,225.731 76.0042,226.1039 75.7655,226.502 75.5671,226.9216 75.4107,227.3587 75.2979,227.8089 75.2298,228.2681 75.207,228.7317 75.2298,229.1953 75.2979,229.6545 75.4107,230.1047 75.5671,230.5418 75.7655,230.9614 76.0042,231.3595 76.2807,231.7324 76.5924,232.0763 76.9363,232.388 77.3092,232.6645 77.7073,232.9032 78.1269,233.1016 78.564,233.258 79.0142,233.3708 79.4734,233.4389 79.937,233.4617 80.4006,233.4389 80.8598,233.3708 81.31,233.258 81.7471,233.1016 82.1667,232.9032 82.5648,232.6645 82.9377,232.388 83.2816,232.0763 83.5933,231.7324 83.8698,231.3595 84.1085,230.9614 84.3069,230.5418 84.4633,230.1047 84.5761,229.6545 84.6442,229.1953 84.667,228.7317 84.6442,228.2681 84.5761,227.8089 84.4633,227.3587 84.3069,226.9216 84.1085,226.502 83.8698,226.1039 83.5933,225.731 83.2816,225.3871 82.9377,225.0754 82.5648,224.7989"/>
    <polygon points="98.6813,244.4522 98.4427,244.0541 98.2442,243.6344 98.0879,243.1974 97.9751,242.7471 97.907,242.288 97.8842,241.8244 97.907,241.3607 97.9751,240.9016 98.0879,240.4513 98.2442,240.0143 98.4427,239.5947 98.6813,239.1965 98.9579,238.8237 99.2696,238.4798 99.6135,238.168 99.9863,237.8915 100.3845,237.6529 100.8041,237.4544 101.2411,237.2981 101.6914,237.1853 102.1506,237.1172 102.6142,237.0944 103.0778,237.1172 103.5369,237.1853 103.9872,237.2981 104.4243,237.4544 104.8439,237.6529 105.242,237.8915 105.6148,238.168 105.9588,238.4798 106.2705,238.8237 106.547,239.1965 106.7856,239.5947 106.9841,240.0143 107.1405,240.4513 107.2533,240.9016 107.3214,241.3607 107.3441,241.8244 107.3214,242.288 107.2533,242.7471 107.1405,243.1974 106.9841,243.6344 106.7856,244.0541 106.547,244.4522 106.2705,244.825 105.9588,245.169 105.6148,245.4807 105.242,245.7572 104.8439,245.9958 104.4243,246.1943 103.9872,246.3507 103.5369,246.4634 103.0778,246.5316 102.6142,246.5543 102.1506,246.5316 101.6914,246.4634 101.2411,246.3507 100.8041,246.1943 100.3845,245.9958 99.9863,245.7572 99.6135,245.4807 99.2696,245.169 98.9579,244.825"/>
    <polygon points="116.627,243.695 117.7323,243.6407 118.8376,243.695 119.9322,243.8574 121.0056,244.1263 122.0475,244.4991 123.0479,244.9722 123.9971,245.5411 124.8859,246.2003 125.7058,246.9435 126.449,247.7634 127.1082,248.6522 127.6771,249.6014 128.1502,250.6018 128.523,251.6437 128.7919,252.7171 128.9543,253.8118 129.0086,254.917 128.9543,256.0223 128.7919,257.1169 128.523,258.1904 128.1502,259.2323 127.6771,260.2326 127.1082,261.1818 126.449,262.0706 125.7058,262.8906 124.8859,263.6337 123.9971,264.2929 123.0479,264.8618 122.0475,265.335 121.0056,265.7078 119.9322,265.9767 118.8376,266.139 117.7323,266.1933 116.627,266.139 115.5324,265.9767 114.4589,265.7078 113.417,265.335 112.4167,264.8618 111.4675,264.2929 110.5787,263.6337 109.7587,262.8906 109.0156,262.0706 108.3564,261.1818 107.7875,260.2326 107.3143,259.2323 106.9415,258.1904 106.6726,257.1169 106.5103,256.0223 106.456,254.917 106.5103,253.8118 106.6726,252.7171 106.9415,251.6437 107.3143,250.6018 107.7875,249.6014 108.3564,248.6522 109.0156,247.7634 109.7587,246.9435 110.5787,246.2003 111.4675,245.5411 112.4167,244.9722 113.417,244.4991 114.4589,244.1263 115.5324,243.8574"/>
    <polygon points="118.66,235.7416 118.5918,236.2008 118.4791,236.6511 118.3227,237.0881 118.1242,237.5077 117.8856,237.9059 117.6091,238.2787 117.2974,238.6226 116.9534,238.9343 116.5806,239.2109 116.1824,239.4495 115.7628,239.648 115.3258,239.8043 114.8755,239.9171 114.4164,239.9852 113.9528,240.008 113.4891,239.9852 113.03,239.9171 112.5797,239.8043 112.1427,239.648 111.7231,239.4495 111.3249,239.2109 110.9521,238.9343 110.6082,238.6226 110.2964,238.2787 110.0199,237.9059 109.7813,237.5077 109.5828,237.0881 109.4265,236.6511 109.3137,236.2008 109.2456,235.7416 109.2228,235.278 109.2456,234.8144 109.3137,234.3553 109.4265,233.905 109.5828,233.4679 109.7813,233.0483 110.0199,232.6502 110.2964,232.2774 110.6082,231.9334 110.9521,231.6217 111.3249,231.3452 111.7231,231.1066 112.1427,230.9081 112.5797,230.7517 113.03,230.6389 113.4891,230.5708 113.9528,230.5481 114.4164,230.5708 114.8755,230.6389 115.3258,230.7517 115.7628,230.9081 116.1824,231.1066 116.5806,231.3452 116.9534,231.6217 117.2974,231.9334 117.6091,232.2774 117.8856,232.6502 118.1242,233.0483 118.3227,233.4679 118.4791,233.905 118.5918,234.3553 118.66,234.8144 118.6827,235.278"/>
    <polygon points="105.8459,218.9124 105.4731,219.9543 104.9999,220.9546 104.431,221.9038 103.7718,222.7926 103.0287,223.6126 102.2087,224.3557 101.3199,225.0149 100.3707,225.5838 99.3704,226.057 98.3285,226.4298 97.255,226.6987 96.1604,226.861 95.0551,226.9153 93.9498,226.861 92.8552,226.6987 91.7818,226.4298 90.7399,226.057 89.7395,225.5838 88.7903,225.0149 87.9015,224.3557 87.0816,223.6126 86.3384,222.7926 85.6792,221.9038 85.1103,220.9546 84.6372,219.9543 84.2644,218.9124 83.9955,217.8389 83.8331,216.7443 83.7788,215.639 83.8331,214.5338 83.9955,213.4391 84.2644,212.3657 84.6372,211.3238 85.1103,210.3234 85.6792,209.3742 86.3384,208.4854 87.0816,207.6655 87.9015,206.9223 88.7903,206.2631 89.7395,205.6942 90.7399,205.2211 91.7818,204.8483 92.8552,204.5794 93.9498,204.417 95.0551,204.3627 96.1604,204.417 97.255,204.5794 98.3285,204.8483 99.3704,205.2211 100.3707,205.6942 101.3199,206.2631 102.2087,206.9223 103.0287,207.6655 103.7718,208.4854 104.431,209.3742 104.9999,210.3234 105.4731,211.3238 105.8459,212.3657 106.1148,213.4391 106.2771,214.5338 106.3314,215.639 106.2771,216.7443 106.1148,217.8389"/>
    <polygon points="99.9863,193.3865 99.6135,193.11 99.2696,192.7983 98.9579,192.4544 98.6813,192.0815 98.4427,191.6834 98.2442,191.2638 98.0879,190.8267 97.9751,190.3765 97.907,189.9173 97.8842,189.4537 97.907,188.9901 97.9751,188.5309 98.0879,188.0807 98.2442,187.6436 98.4427,187.224 98.6813,186.8259 98.9579,186.453 99.2696,186.1091 99.6135,185.7974 99.9863,185.5209 100.3845,185.2822 100.8041,185.0838 101.2411,184.9274 101.6914,184.8146 102.1506,184.7465 102.6142,184.7237 103.0778,184.7465 103.5369,184.8146 103.9872,184.9274 104.4243,185.0838 104.8439,185.2822 105.242,185.5209 105.6148,185.7974 105.9588,186.1091 106.2705,186.453 106.547,186.8259 106.7856,187.224 106.9841,187.6436 107.1405,188.0807 107.2533,188.5309 107.3214,188.9901 107.3441,189.4537 107.3214,189.9173 107.2533,190.3765 107.1405,190.8267 106.9841,191.2638 106.7856,191.6834 106.547,192.0815 106.2705,192.4544 105.9588,192.7983 105.6148,193.11 105.242,193.3865 104.8439,193.6252 104.4243,193.8236 103.9872,193.98 103.5369,194.0928 103.0778,194.1609 102.6142,194.1837 102.1506,194.1609 101.6914,194.0928 101.2411,193.98 100.8041,193.8236 100.3845,193.6252"/>
    <polygon points="109.7587,194.5728 110.5787,193.8297 111.4675,193.1705 112.4167,192.6015 113.417,192.1284 114.4589,191.7556 115.5324,191.4867 116.627,191.3243 117.7323,191.2701 118.8376,191.3243 119.9322,191.4867 121.0056,191.7556 122.0475,192.1284 123.0479,192.6015 123.9971,193.1705 124.8859,193.8297 125.7058,194.5728 126.449,195.3927 127.1082,196.2816 127.6771,197.2307 128.1502,198.2311 128.523,199.273 128.7919,200.3465 128.9543,201.4411 129.0086,202.5464 128.9543,203.6516 128.7919,204.7463 128.523,205.8197 128.1502,206.8616 127.6771,207.862 127.1082,208.8111 126.449,209.7 125.7058,210.5199 124.8859,211.2631 123.9971,211.9223 123.0479,212.4912 122.0475,212.9643 121.0056,213.3371 119.9322,213.606 118.8376,213.7684 117.7323,213.8227 116.627,213.7684 115.5324,213.606 114.4589,213.3371 113.417,212.9643 112.4167,212.4912 111.4675,211.9223 110.5787,211.2631 109.7587,210.5199 109.0156,209.7 108.3564,208.8111 107.7875,207.862 107.3143,206.8616 106.9415,205.8197 106.6726,204.7463 106.5103,203.6516 106.456,202.5464 106.5103,201.4411 106.6726,200.3465 106.9415,199.273 107.3143,198.2311 107.7875,197.2307 108.3564,196.2816 109.0156,195.3927"/>
    <polygon points="111.7231,187.0788 111.3249,186.8402 110.9521,186.5637 110.6082,186.252 110.2964,185.908 110.0199,185.5352 109.7813,185.137 109.5828,184.7174 109.4265,184.2804 109.3137,183.8301 109.2456,183.371 109.2228,182.9074 109.2456,182.4437 109.3137,181.9846 109.4265,181.5343 109.5828,181.0973 109.7813,180.6777 110.0199,180.2795 110.2964,179.9067 110.6082,179.5628 110.9521,179.251 111.3249,178.9745 111.7231,178.7359 112.1427,178.5374 112.5797,178.3811 113.03,178.2683 113.4891,178.2002 113.9528,178.1774 114.4164,178.2002 114.8755,178.2683 115.3258,178.3811 115.7628,178.5374 116.1824,178.7359 116.5806,178.9745 116.9534,179.251 117.2974,179.5628 117.6091,179.9067 117.8856,180.2795 118.1242,180.6777 118.3227,181.0973 118.4791,181.5343 118.5918,181.9846 118.66,182.4437 118.6827,182.9074 118.66,183.371 118.5918,183.8301 118.4791,184.2804 118.3227,184.7174 118.1242,185.137 117.8856,185.5352 117.6091,185.908 117.2974,186.252 116.9534,186.5637 116.5806,186.8402 116.1824,187.0788 115.7628,187.2773 115.3258,187.4337 114.8755,187.5464 114.4164,187.6146 113.9528,187.6373 113.4891,187.6146 113.03,187.5464 112.5797,187.4337 112.1427,187.2773"/>
    <polygon points="129.6613,174.5509 129.8176,174.988 129.9304,175.4383 129.9985,175.8974 130.0213,176.361 129.9985,176.8246 129.9304,177.2838 129.8176,177.7341 129.6613,178.1711 129.4628,178.5907 129.2242,178.9889 128.9477,179.3617 128.6359,179.7056 128.292,180.0173 127.9192,180.2939 127.521,180.5325 127.1014,180.7309 126.6644,180.8873 126.2141,181.0001 125.755,181.0682 125.2913,181.091 124.8277,181.0682 124.3686,181.0001 123.9183,180.8873 123.4813,180.7309 123.0616,180.5325 122.6635,180.2939 122.2907,180.0173 121.9467,179.7056 121.635,179.3617 121.3585,178.9889 121.1199,178.5907 120.9214,178.1711 120.765,177.7341 120.6523,177.2838 120.5841,176.8246 120.5614,176.361 120.5841,175.8974 120.6523,175.4383 120.765,174.988 120.9214,174.5509 121.1199,174.1313 121.3585,173.7332 121.635,173.3604 121.9467,173.0164 122.2907,172.7047 122.6635,172.4282 123.0616,172.1896 123.4813,171.9911 123.9183,171.8347 124.3686,171.7219 124.8277,171.6538 125.2913,171.631 125.755,171.6538 126.2141,171.7219 126.6644,171.8347 127.1014,171.9911 127.521,172.1896 127.9192,172.4282 128.292,172.7047 128.6359,173.0164 128.9477,173.3604 129.2242,173.7332 129.4628,174.1313"/>
    <polygon points="141.1562,171.1877 140.9998,171.6248 140.8014,172.0444 140.5627,172.4425 140.2862,172.8154 139.9745,173.1593 139.6306,173.471 139.2578,173.7475 138.8596,173.9862 138.44,174.1846 138.003,174.341 137.5527,174.4538 137.0935,174.5219 136.6299,174.5447 136.1663,174.5219 135.7071,174.4538 135.2569,174.341 134.8198,174.1846 134.4002,173.9862 134.0021,173.7475 133.6293,173.471 133.2853,173.1593 132.9736,172.8154 132.6971,172.4425 132.4585,172.0444 132.26,171.6248 132.1036,171.1877 131.9908,170.7375 131.9227,170.2783 131.8999,169.8147 131.9227,169.3511 131.9908,168.8919 132.1036,168.4416 132.26,168.0046 132.4585,167.585 132.6971,167.1869 132.9736,166.814 133.2853,166.4701 133.6293,166.1584 134.0021,165.8819 134.4002,165.6432 134.8198,165.4448 135.2569,165.2884 135.7071,165.1756 136.1663,165.1075 136.6299,165.0847 137.0935,165.1075 137.5527,165.1756 138.003,165.2884 138.44,165.4448 138.8596,165.6432 139.2578,165.8819 139.6306,166.1584 139.9745,166.4701 140.2862,166.814 140.5627,167.1869 140.8014,167.585 140.9998,168.0046 141.1562,168.4416 141.269,168.8919 141.3371,169.3511 141.3599,169.8147 141.3371,170.2783 141.269,170.7375"/>
    <polygon points="147.5631,180.737 148.383,181.4801 149.1262,182.3001 149.7854,183.1889 150.3543,184.1381 150.8274,185.1384 151.2002,186.1804 151.4691,187.2538 151.6315,188.3484 151.6858,189.4537 151.6315,190.559 151.4691,191.6536 151.2002,192.727 150.8274,193.7689 150.3543,194.7693 149.7854,195.7185 149.1262,196.6073 148.383,197.4272 147.5631,198.1704 146.6742,198.8296 145.7251,199.3985 144.7247,199.8716 143.6828,200.2444 142.6093,200.5133 141.5147,200.6757 140.4094,200.73 139.3042,200.6757 138.2096,200.5133 137.1361,200.2444 136.0942,199.8716 135.0938,199.3985 134.1447,198.8296 133.2558,198.1704 132.4359,197.4272 131.6927,196.6073 131.0335,195.7185 130.4646,194.7693 129.9915,193.7689 129.6187,192.727 129.3498,191.6536 129.1874,190.559 129.1331,189.4537 129.1874,188.3484 129.3498,187.2538 129.6187,186.1804 129.9915,185.1384 130.4646,184.1381 131.0335,183.1889 131.6927,182.3001 132.4359,181.4801 133.2558,180.737 134.1447,180.0778 135.0938,179.5089 136.0942,179.0357 137.1361,178.6629 138.2096,178.3941 139.3042,178.2317 140.4094,178.1774 141.5147,178.2317 142.6093,178.3941 143.6828,178.6629 144.7247,179.0357 145.7251,179.5089 146.6742,180.0778"/>
    <polygon points="162.3077,186.5637 161.9349,186.8402 161.5368,187.0788 161.1172,187.2773 160.6801,187.4337 160.2299,187.5464 159.7707,187.6146 159.3071,187.6373 158.8435,187.6146 158.3843,187.5464 157.934,187.4337 157.497,187.2773 157.0774,187.0788 156.6793,186.8402 156.3064,186.5637 155.9625,186.252 155.6508,185.908 155.3743,185.5352 155.1356,185.137 154.9372,184.7174 154.7808,184.2804 154.668,183.8301 154.5999,183.371 154.5771,182.9074 154.5999,182.4437 154.668,181.9846 154.7808,181.5343 154.9372,181.0973 155.1356,180.6777 155.3743,180.2795 155.6508,179.9067 155.9625,179.5628 156.3064,179.251 156.6793,178.9745 157.0774,178.7359 157.497,178.5374 157.934,178.3811 158.3843,178.2683 158.8435,178.2002 159.3071,178.1774 159.7707,178.2002 160.2299,178.2683 160.6801,178.3811 161.1172,178.5374 161.5368,178.7359 161.9349,178.9745 162.3077,179.251 162.6517,179.5628 162.9634,179.9067 163.2399,180.2795 163.4786,180.6777 163.677,181.0973 163.8334,181.5343 163.9462,181.9846 164.0143,182.4437 164.0371,182.9074 164.0143,183.371 163.9462,183.8301 163.8334,184.2804 163.677,184.7174 163.4786,185.137 163.2399,185.5352 162.9634,185.908 162.6517,186.252"/>
    <polygon points="170.4825,219.4061 171.2882,221.6578 171.8692,223.9775 172.2201,226.3431 172.3375,228.7317 172.2201,231.1203 171.8692,233.4858 171.2882,235.8056 170.4825,238.0573 169.46,240.2191 168.2306,242.2704 166.806,244.1912 165.2,245.9632 163.428,247.5692 161.5072,248.9938 159.456,250.2232 157.2941,251.2457 155.0424,252.0513 152.7227,252.6324 150.3571,252.9833 147.9685,253.1007 145.5799,252.9833 143.2144,252.6324 140.8946,252.0513 138.6429,251.2457 136.481,250.2232 134.4298,248.9938 132.509,247.5692 130.737,245.9632 129.131,244.1912 127.7064,242.2704 126.477,240.2191 125.4545,238.0573 124.6488,235.8056 124.0678,233.4858 123.7169,231.1203 123.5995,228.7317 123.7169,226.3431 124.0678,223.9775 124.6488,221.6578 125.4545,219.4061 126.477,217.2442 127.7064,215.193 129.131,213.2722 130.737,211.5002 132.509,209.8942 134.4298,208.4696 136.481,207.2402 138.6429,206.2177 140.8946,205.412 143.2144,204.831 145.5799,204.4801 147.9685,204.3627 150.3571,204.4801 152.7227,204.831 155.0424,205.412 157.2941,206.2177 159.456,207.2402 161.5072,208.4696 163.428,209.8942 165.2,211.5002 166.806,213.2722 168.2306,215.193 169.46,217.2442"/>
    <polygon points="188.6156,241.3607 188.6837,240.9016 188.7965,240.4513 188.9529,240.0143 189.1514,239.5947 189.39,239.1965 189.6665,238.8237 189.9782,238.4798 190.3222,238.168 190.695,237.8915 191.0931,237.6529 191.5128,237.4544 191.9498,237.2981 192.4001,237.1853 192.8592,237.1172 193.3228,237.0944 193.7865,237.1172 194.2456,237.1853 194.6959,237.2981 195.1329,237.4544 195.5525,237.6529 195.9507,237.8915 196.3235,238.168 196.6674,238.4798 196.9792,238.8237 197.2557,239.1965 197.4943,239.5947 197.6928,240.0143 197.8491,240.4513 197.9619,240.9016 198.03,241.3607 198.0528,241.8244 198.03,242.288 197.9619,242.7471 197.8491,243.1974 197.6928,243.6344 197.4943,244.0541 197.2557,244.4522 196.9792,244.825 196.6674,245.169 196.3235,245.4807 195.9507,245.7572 195.5525,245.9958 195.1329,246.1943 194.6959,246.3507 194.2456,246.4634 193.7865,246.5316 193.3228,246.5543 192.8592,246.5316 192.4001,246.4634 191.9498,246.3507 191.5128,246.1943 191.0931,245.9958 190.695,245.7572 190.3222,245.4807 189.9782,245.169 189.6665,244.825 189.39,244.4522 189.1514,244.0541 188.9529,243.6344 188.7965,243.1974 188.6837,242.7471 188.6156,242.288 188.5929,241.8244"/>
    <polygon points="214.7057,245.5411 215.5946,246.2003 216.4145,246.9435 217.1576,247.7634 217.8169,248.6522 218.3858,249.6014 218.8589,250.6018 219.2317,251.6437 219.5006,252.7171 219.663,253.8118 219.7173,254.917 219.663,256.0223 219.5006,257.1169 219.2317,258.1904 218.8589,259.2323 218.3858,260.2326 217.8169,261.1818 217.1576,262.0706 216.4145,262.8906 215.5946,263.6337 214.7057,264.2929 213.7566,264.8618 212.7562,265.335 211.7143,265.7078 210.6408,265.9767 209.5462,266.139 208.4409,266.1933 207.3357,266.139 206.241,265.9767 205.1676,265.7078 204.1257,265.335 203.1253,264.8618 202.1762,264.2929 201.2873,263.6337 200.4674,262.8906 199.7242,262.0706 199.065,261.1818 198.4961,260.2326 198.023,259.2323 197.6502,258.1904 197.3813,257.1169 197.2189,256.0223 197.1646,254.917 197.2189,253.8118 197.3813,252.7171 197.6502,251.6437 198.023,250.6018 198.4961,249.6014 199.065,248.6522 199.7242,247.7634 200.4674,246.9435 201.2873,246.2003 202.1762,245.5411 203.1253,244.9722 204.1257,244.4991 205.1676,244.1263 206.241,243.8574 207.3357,243.695 208.4409,243.6407 209.5462,243.695 210.6408,243.8574 211.7143,244.1263 212.7562,244.4991 213.7566,244.9722"/>
    <polygon points="218.8589,224.4164 218.3858,223.4161 217.8169,222.4669 217.1576,221.5781 216.4145,220.7581 215.5946,220.015 214.7057,219.3558 213.7566,218.7869 212.7562,218.3137 211.7143,217.9409 210.6408,217.6721 209.5462,217.5097 208.4409,217.4554 207.3357,217.5097 206.241,217.6721 205.1676,217.9409 204.1257,218.3137 203.1253,218.7869 202.1762,219.3558 201.2873,220.015 200.4674,220.7581 199.7242,221.5781 199.065,222.4669 198.4961,223.4161 198.023,224.4164 197.6502,225.4584 197.3813,226.5318 197.2189,227.6264 197.1646,228.7317 197.2189,229.837 197.3813,230.9316 197.6502,232.005 198.023,233.0469 198.4961,234.0473 199.065,234.9965 199.7242,235.8853 200.4674,236.7052 201.2873,237.4484 202.1762,238.1076 203.1253,238.6765 204.1257,239.1496 205.1676,239.5224 206.241,239.7913 207.3357,239.9537 208.4409,240.008 209.5462,239.9537 210.6408,239.7913 211.7143,239.5224 212.7562,239.1496 213.7566,238.6765 214.7057,238.1076 215.5946,237.4484 216.4145,236.7052 217.1576,235.8853 217.8169,234.9965 218.3858,234.0473 218.8589,233.0469 219.2317,232.005 219.5006,230.9316 219.663,229.837 219.7173,228.7317 219.663,227.6264 219.5006,226.5318 219.2317,225.4584"/>
    <polygon points="197.9619,214.7163 198.03,215.1754 198.0528,215.639 198.03,216.1026 197.9619,216.5618 197.8491,217.0121 197.6928,217.4491 197.4943,217.8687 197.2557,218.2669 196.9792,218.6397 196.6674,218.9836 196.3235,219.2953 195.9507,219.5719 195.5525,219.8105 195.1329,220.0089 194.6959,220.1653 194.2456,220.2781 193.7865,220.3462 193.3228,220.369 192.8592,220.3462 192.4001,220.2781 191.9498,220.1653 191.5128,220.0089 191.0931,219.8105 190.695,219.5719 190.3222,219.2953 189.9782,218.9836 189.6665,218.6397 189.39,218.2669 189.1514,217.8687 188.9529,217.4491 188.7965,217.0121 188.6837,216.5618 188.6156,216.1026 188.5929,215.639 188.6156,215.1754 188.6837,214.7163 188.7965,214.266 188.9529,213.8289 189.1514,213.4093 189.39,213.0112 189.6665,212.6384 189.9782,212.2944 190.3222,211.9827 190.695,211.7062 191.0931,211.4676 191.5128,211.2691 191.9498,211.1127 192.4001,210.9999 192.8592,210.9318 193.3228,210.9091 193.7865,210.9318 194.2456,210.9999 194.6959,211.1127 195.1329,211.2691 195.5525,211.4676 195.9507,211.7062 196.3235,211.9827 196.6674,212.2944 196.9792,212.6384 197.2557,213.0112 197.4943,213.4093 197.6928,213.8289 197.8491,214.266"/>
    <polygon points="208.5942,211.7205 208.3177,212.0934 208.006,212.4373 207.6621,212.749 207.2892,213.0255 206.8911,213.2642 206.4715,213.4626 206.0345,213.619 205.5842,213.7318 205.125,213.7999 204.6614,213.8227 204.1978,213.7999 203.7386,213.7318 203.2884,213.619 202.8513,213.4626 202.4317,213.2642 202.0336,213.0255 201.6608,212.749 201.3168,212.4373 201.0051,212.0934 200.7286,211.7205 200.49,211.3224 200.2915,210.9028 200.1351,210.4657 200.0223,210.0155 199.9542,209.5563 199.9314,209.0927 199.9542,208.6291 200.0223,208.1699 200.1351,207.7197 200.2915,207.2826 200.49,206.863 200.7286,206.4649 201.0051,206.092 201.3168,205.7481 201.6608,205.4364 202.0336,205.1599 202.4317,204.9212 202.8513,204.7228 203.2884,204.5664 203.7386,204.4536 204.1978,204.3855 204.6614,204.3627 205.125,204.3855 205.5842,204.4536 206.0345,204.5664 206.4715,204.7228 206.8911,204.9212 207.2892,205.1599 207.6621,205.4364 208.006,205.7481 208.3177,206.092 208.5942,206.4649 208.8329,206.863 209.0313,207.2826 209.1877,207.7197 209.3005,208.1699 209.3686,208.6291 209.3914,209.0927 209.3686,209.5563 209.3005,210.0155 209.1877,210.4657 209.0313,210.9028 208.8329,211.3224"/>
    <polygon points="220.3699,200.7363 220.1715,200.3167 219.9328,199.9185 219.6563,199.5457 219.3446,199.2018 219.0007,198.89 218.6278,198.6135 218.2297,198.3749 217.8101,198.1764 217.373,198.0201 216.9228,197.9073 216.4636,197.8392 216.0,197.8164 215.5364,197.8392 215.0772,197.9073 214.627,198.0201 214.1899,198.1764 213.7703,198.3749 213.3722,198.6135 212.9993,198.89 212.6554,199.2018 212.3437,199.5457 212.0672,199.9185 211.8285,200.3167 211.6301,200.7363 211.4737,201.1733 211.3609,201.6236 211.2928,202.0827 211.27,202.5464 211.2928,203.01 211.3609,203.4691 211.4737,203.9194 211.6301,204.3564 211.8285,204.7761 212.0672,205.1742 212.3437,205.547 212.6554,205.891 212.9993,206.2027 213.3722,206.4792 213.7703,206.7178 214.1899,206.9163 214.627,207.0727 215.0772,207.1854 215.5364,207.2536 216.0,207.2763 216.4636,207.2536 216.9228,207.1854 217.373,207.0727 217.8101,206.9163 218.2297,206.7178 218.6278,206.4792 219.0007,206.2027 219.3446,205.891 219.6563,205.547 219.9328,205.1742 220.1715,204.7761 220.3699,204.3564 220.5263,203.9194 220.6391,203.4691 220.7072,203.01 220.73,202.5464 220.7072,202.0827 220.6391,201.6236 220.5263,201.1733"/>
    <polygon points="225.5285,200.3699 225.9655,200.5263 226.4158,200.6391 226.875,200.7072 227.3386,200.73 227.8022,200.7072 228.2614,200.6391 228.7116,200.5263 229.1487,200.3699 229.5683,200.1715 229.9664,199.9329 230.3392,199.6563 230.6832,199.3446 230.9949,199.0007 231.2714,198.6279 231.51,198.2297 231.7085,197.8101 231.8649,197.3731 231.9777,196.9228 232.0458,196.4636 232.0686,196.0 232.0458,195.5364 231.9777,195.0773 231.8649,194.627 231.7085,194.1899 231.51,193.7703 231.2714,193.3722 230.9949,192.9994 230.6832,192.6554 230.3392,192.3437 229.9664,192.0672 229.5683,191.8286 229.1487,191.6301 228.7116,191.4737 228.2614,191.3609 227.8022,191.2928 227.3386,191.2701 226.875,191.2928 226.4158,191.3609 225.9655,191.4737 225.5285,191.6301 225.1089,191.8286 224.7108,192.0672 224.3379,192.3437 223.994,192.6554 223.6823,192.9994 223.4058,193.3722 223.1671,193.7703 222.9687,194.1899 222.8123,194.627 222.6995,195.0773 222.6314,195.5364 222.6086,196.0 222.6314,196.4636 222.6995,196.9228 222.8123,197.3731 222.9687,197.8101 223.1671,198.2297 223.4058,198.6279 223.6823,199.0007 223.994,199.3446 224.3379,199.6563 224.7108,199.9329 225.1089,200.1715"/>
    <polygon points="241.0629,210.3234 240.494,209.3742 239.8348,208.4854 239.0917,207.6655 238.2717,206.9223 237.3829,206.2631 236.4337,205.6942 235.4334,205.2211 234.3914,204.8483 233.318,204.5794 232.2234,204.417 231.1181,204.3627 230.0128,204.417 228.9182,204.5794 227.8448,204.8483 226.8029,205.2211 225.8025,205.6942 224.8533,206.2631 223.9645,206.9223 223.1446,207.6655 222.4014,208.4854 221.7422,209.3742 221.1733,210.3234 220.7002,211.3238 220.3274,212.3657 220.0585,213.4391 219.8961,214.5338 219.8418,215.639 219.8961,216.7443 220.0585,217.8389 220.3274,218.9124 220.7002,219.9543 221.1733,220.9546 221.7422,221.9038 222.4014,222.7926 223.1446,223.6126 223.9645,224.3557 224.8533,225.0149 225.8025,225.5838 226.8029,226.057 227.8448,226.4298 228.9182,226.6987 230.0128,226.861 231.1181,226.9153 232.2234,226.861 233.318,226.6987 234.3914,226.4298 235.4334,226.057 236.4337,225.5838 237.3829,225.0149 238.2717,224.3557 239.0917,223.6126 239.8348,222.7926 240.494,221.9038 241.0629,220.9546 241.5361,219.9543 241.9089,218.9124 242.1777,217.8389 242.3401,216.7443 242.3944,215.639 242.3401,214.5338 242.1777,213.4391 241.9089,212.3657 241.5361,211.3238"/>
    <polygon points="241.9089,238.551 242.1777,239.6245 242.3401,240.7191 242.3944,241.8244 242.3401,242.9296 242.1777,244.0243 241.9089,245.0977 241.5361,246.1396 241.0629,247.14 240.494,248.0891 239.8348,248.978 239.0917,249.7979 238.2717,250.5411 237.3829,251.2003 236.4337,251.7692 235.4334,252.2423 234.3914,252.6151 233.318,252.884 232.2234,253.0464 231.1181,253.1007 230.0128,253.0464 228.9182,252.884 227.8448,252.6151 226.8029,252.2423 225.8025,251.7692 224.8533,251.2003 223.9645,250.5411 223.1446,249.7979 222.4014,248.978 221.7422,248.0891 221.1733,247.14 220.7002,246.1396 220.3274,245.0977 220.0585,244.0243 219.8961,242.9296 219.8418,241.8244 219.8961,240.7191 220.0585,239.6245 220.3274,238.551 220.7002,237.5091 221.1733,236.5087 221.7422,235.5596 222.4014,234.6707 223.1446,233.8508 223.9645,233.1077 224.8533,232.4485 225.8025,231.8795 226.8029,231.4064 227.8448,231.0336 228.9182,230.7647 230.0128,230.6024 231.1181,230.5481 232.2234,230.6024 233.318,230.7647 234.3914,231.0336 235.4334,231.4064 236.4337,231.8795 237.3829,232.4485 238.2717,233.1077 239.0917,233.8508 239.8348,234.6707 240.494,235.5596 241.0629,236.5087 241.5361,237.5091"/>
    <polygon points="254.3857,233.4679 254.542,233.905 254.6548,234.3553 254.7229,234.8144 254.7457,235.278 254.7229,235.7416 254.6548,236.2008 254.542,236.6511 254.3857,237.0881 254.1872,237.5077 253.9486,237.9059 253.6721,238.2787 253.3603,238.6226 253.0164,238.9343 252.6436,239.2109 252.2454,239.4495 251.8258,239.648 251.3888,239.8043 250.9385,239.9171 250.4794,239.9852 250.0157,240.008 249.5521,239.9852 249.093,239.9171 248.6427,239.8043 248.2057,239.648 247.7861,239.4495 247.3879,239.2109 247.0151,238.9343 246.6712,238.6226 246.3594,238.2787 246.0829,237.9059 245.8443,237.5077 245.6458,237.0881 245.4894,236.6511 245.3767,236.2008 245.3086,235.7416 245.2858,235.278 245.3086,234.8144 245.3767,234.3553 245.4894,233.905 245.6458,233.4679 245.8443,233.0483 246.0829,232.6502 246.3594,232.2774 246.6712,231.9334 247.0151,231.6217 247.3879,231.3452 247.7861,231.1066 248.2057,230.9081 248.6427,230.7517 249.093,230.6389 249.5521,230.5708 250.0157,230.5481 250.4794,230.5708 250.9385,230.6389 251.3888,230.7517 251.8258,230.9081 252.2454,231.1066 252.6436,231.3452 253.0164,231.6217 253.3603,231.9334 253.6721,232.2774 253.9486,232.6502 254.1872,233.0483"/>
    <polygon points="308.4005,254.917 308.2831,257.3056 307.9322,259.6712 307.3512,261.991 306.5455,264.2426 305.523,266.4045 304.2936,268.4557 302.869,270.3765 301.263,272.1485 299.491,273.7545 297.5702,275.1791 295.519,276.4085 293.3571,277.431 291.1054,278.2367 288.7856,278.8178 286.4201,279.1687 284.0315,279.286 281.6429,279.1687 279.2773,278.8178 276.9576,278.2367 274.7059,277.431 272.544,276.4085 270.4928,275.1791 268.572,273.7545 266.8,272.1485 265.194,270.3765 263.7694,268.4557 262.54,266.4045 261.5175,264.2426 260.7118,261.991 260.1308,259.6712 259.7799,257.3056 259.6625,254.917 259.7799,252.5285 260.1308,250.1629 260.7118,247.8431 261.5175,245.5914 262.54,243.4296 263.7694,241.3784 265.194,239.4575 266.8,237.6856 268.572,236.0796 270.4928,234.655 272.544,233.4255 274.7059,232.403 276.9576,231.5974 279.2773,231.0163 281.6429,230.6654 284.0315,230.5481 286.4201,230.6654 288.7856,231.0163 291.1054,231.5974 293.3571,232.403 295.519,233.4255 297.5702,234.655 299.491,236.0796 301.263,237.6856 302.869,239.4575 304.2936,241.3784 305.523,243.4296 306.5455,245.5914 307.3512,247.8431 307.9322,250.1629 308.2831,252.5285"/>
    <polygon points="356.2345,252.6873 356.4329,253.1069 356.5893,253.544 356.7021,253.9943 356.7702,254.4534 356.793,254.917 356.7702,255.3806 356.7021,255.8398 356.5893,256.2901 356.4329,256.7271 356.2345,257.1467 355.9958,257.5449 355.7193,257.9177 355.4076,258.2616 355.0637,258.5733 354.6908,258.8499 354.2927,259.0885 353.8731,259.287 353.436,259.4433 352.9858,259.5561 352.5266,259.6242 352.063,259.647 351.5994,259.6242 351.1402,259.5561 350.69,259.4433 350.2529,259.287 349.8333,259.0885 349.4352,258.8499 349.0623,258.5733 348.7184,258.2616 348.4067,257.9177 348.1302,257.5449 347.8915,257.1467 347.6931,256.7271 347.5367,256.2901 347.4239,255.8398 347.3558,255.3806 347.333,254.917 347.3558,254.4534 347.4239,253.9943 347.5367,253.544 347.6931,253.1069 347.8915,252.6873 348.1302,252.2892 348.4067,251.9164 348.7184,251.5724 349.0623,251.2607 349.4352,250.9842 349.8333,250.7456 350.2529,250.5471 350.69,250.3907 351.1402,250.2779 351.5994,250.2098 352.063,250.1871 352.5266,250.2098 352.9858,250.2779 353.436,250.3907 353.8731,250.5471 354.2927,250.7456 354.6908,250.9842 355.0637,251.2607 355.4076,251.5724 355.7193,251.9164 355.9958,252.2892"/>
    <polygon points="343.7251,265.1197 343.3522,265.3962 342.9541,265.6348 342.5345,265.8333 342.0974,265.9897 341.6472,266.1024 341.188,266.1706 340.7244,266.1933 340.2608,266.1706 339.8016,266.1024 339.3514,265.9897 338.9143,265.8333 338.4947,265.6348 338.0966,265.3962 337.7237,265.1197 337.3798,264.808 337.0681,264.464 336.7916,264.0912 336.5529,263.6931 336.3545,263.2734 336.1981,262.8364 336.0853,262.3861 336.0172,261.927 335.9944,261.4634 336.0172,260.9997 336.0853,260.5406 336.1981,260.0903 336.3545,259.6533 336.5529,259.2337 336.7916,258.8355 337.0681,258.4627 337.3798,258.1188 337.7237,257.807 338.0966,257.5305 338.4947,257.2919 338.9143,257.0934 339.3514,256.9371 339.8016,256.8243 340.2608,256.7562 340.7244,256.7334 341.188,256.7562 341.6472,256.8243 342.0974,256.9371 342.5345,257.0934 342.9541,257.2919 343.3522,257.5305 343.7251,257.807 344.069,258.1188 344.3807,258.4627 344.6572,258.8355 344.8959,259.2337 345.0943,259.6533 345.2507,260.0903 345.3635,260.5406 345.4316,260.9997 345.4544,261.4634 345.4316,261.927 345.3635,262.3861 345.2507,262.8364 345.0943,263.2734 344.8959,263.6931 344.6572,264.0912 344.3807,264.464 344.069,264.808"/>
    <polygon points="336.5529,276.7857 336.3545,276.3661 336.1981,275.9291 336.0853,275.4788 336.0172,275.0196 335.9944,274.556 336.0172,274.0924 336.0853,273.6333 336.1981,273.183 336.3545,272.7459 336.5529,272.3263 336.7916,271.9282 337.0681,271.5554 337.3798,271.2114 337.7237,270.8997 338.0966,270.6232 338.4947,270.3846 338.9143,270.1861 339.3514,270.0297 339.8016,269.9169 340.2608,269.8488 340.7244,269.8261 341.188,269.8488 341.6472,269.9169 342.0974,270.0297 342.5345,270.1861 342.9541,270.3846 343.3522,270.6232 343.7251,270.8997 344.069,271.2114 344.3807,271.5554 344.6572,271.9282 344.8959,272.3263 345.0943,272.7459 345.2507,273.183 345.3635,273.6333 345.4316,274.0924 345.4544,274.556 345.4316,275.0196 345.3635,275.4788 345.2507,275.9291 345.0943,276.3661 344.8959,276.7857 344.6572,277.1839 344.3807,277.5567 344.069,277.9006 343.7251,278.2123 343.3522,278.4889 342.9541,278.7275 342.5345,278.926 342.0974,279.0823 341.6472,279.1951 341.188,279.2632 340.7244,279.286 340.2608,279.2632 339.8016,279.1951 339.3514,279.0823 338.9143,278.926 338.4947,278.7275 338.0966,278.4889 337.7237,278.2123 337.3798,277.9006 337.0681,277.5567 336.7916,277.1839"/>
    <polygon points="318.5534,278.8004 317.5115,278.4276 316.5112,277.9545 315.562,277.3856 314.6732,276.7264 313.8532,275.9832 313.1101,275.1633 312.4509,274.2745 311.882,273.3253 311.4088,272.325 311.036,271.283 310.7671,270.2096 310.6048,269.115 310.5505,268.0097 310.6048,266.9044 310.7671,265.8098 311.036,264.7364 311.4088,263.6944 311.882,262.6941 312.4509,261.7449 313.1101,260.8561 313.8532,260.0361 314.6732,259.293 315.562,258.6338 316.5112,258.0649 317.5115,257.5917 318.5534,257.2189 319.6269,256.9501 320.7215,256.7877 321.8268,256.7334 322.932,256.7877 324.0267,256.9501 325.1001,257.2189 326.142,257.5917 327.1424,258.0649 328.0916,258.6338 328.9804,259.293 329.8003,260.0361 330.5435,260.8561 331.2027,261.7449 331.7716,262.6941 332.2447,263.6944 332.6175,264.7364 332.8864,265.8098 333.0488,266.9044 333.1031,268.0097 333.0488,269.115 332.8864,270.2096 332.6175,271.283 332.2447,272.325 331.7716,273.3253 331.2027,274.2745 330.5435,275.1633 329.8003,275.9832 328.9804,276.7264 328.0916,277.3856 327.1424,277.9545 326.142,278.4276 325.1001,278.8004 324.0267,279.0693 322.932,279.2317 321.8268,279.286 320.7215,279.2317 319.6269,279.0693"/>
    <polygon points="303.0523,297.1957 302.7758,296.8229 302.5372,296.4247 302.3387,296.0051 302.1824,295.5681 302.0696,295.1178 302.0015,294.6586 301.9787,294.195 302.0015,293.7314 302.0696,293.2723 302.1824,292.822 302.3387,292.3849 302.5372,291.9653 302.7758,291.5672 303.0523,291.1944 303.3641,290.8504 303.708,290.5387 304.0808,290.2622 304.479,290.0236 304.8986,289.8251 305.3356,289.6687 305.7859,289.5559 306.245,289.4878 306.7087,289.4651 307.1723,289.4878 307.6314,289.5559 308.0817,289.6687 308.5187,289.8251 308.9384,290.0236 309.3365,290.2622 309.7093,290.5387 310.0533,290.8504 310.365,291.1944 310.6415,291.5672 310.8801,291.9653 311.0786,292.3849 311.235,292.822 311.3477,293.2723 311.4159,293.7314 311.4386,294.195 311.4159,294.6586 311.3477,295.1178 311.235,295.5681 311.0786,296.0051 310.8801,296.4247 310.6415,296.8229 310.365,297.1957 310.0533,297.5396 309.7093,297.8513 309.3365,298.1279 308.9384,298.3665 308.5187,298.565 308.0817,298.7213 307.6314,298.8341 307.1723,298.9022 306.7087,298.925 306.245,298.9022 305.7859,298.8341 305.3356,298.7213 304.8986,298.565 304.479,298.3665 304.0808,298.1279 303.708,297.8513 303.3641,297.5396"/>
    <polygon points="299.5415,302.9711 299.3029,303.3692 299.0264,303.742 298.7147,304.086 298.3707,304.3977 297.9979,304.6742 297.5998,304.9128 297.1802,305.1113 296.7431,305.2677 296.2929,305.3805 295.8337,305.4486 295.3701,305.4713 294.9065,305.4486 294.4473,305.3805 293.997,305.2677 293.56,305.1113 293.1404,304.9128 292.7422,304.6742 292.3694,304.3977 292.0255,304.086 291.7138,303.742 291.4373,303.3692 291.1986,302.9711 291.0002,302.5514 290.8438,302.1144 290.731,301.6641 290.6629,301.205 290.6401,300.7414 290.6629,300.2777 290.731,299.8186 290.8438,299.3683 291.0002,298.9313 291.1986,298.5117 291.4373,298.1135 291.7138,297.7407 292.0255,297.3968 292.3694,297.085 292.7422,296.8085 293.1404,296.5699 293.56,296.3714 293.997,296.2151 294.4473,296.1023 294.9065,296.0342 295.3701,296.0114 295.8337,296.0342 296.2929,296.1023 296.7431,296.2151 297.1802,296.3714 297.5998,296.5699 297.9979,296.8085 298.3707,297.085 298.7147,297.3968 299.0264,297.7407 299.3029,298.1135 299.5415,298.5117 299.74,298.9313 299.8964,299.3683 300.0092,299.8186 300.0773,300.2777 300.1001,300.7414 300.0773,301.205 300.0092,301.6641 299.8964,302.1144 299.74,302.5514"/>
    <polygon points="272.6929,309.1041 273.1565,309.1268 273.6157,309.1949 274.066,309.3077 274.503,309.4641 274.9226,309.6626 275.3207,309.9012 275.6936,310.1777 276.0375,310.4894 276.3492,310.8334 276.6257,311.2062 276.8644,311.6043 277.0628,312.0239 277.2192,312.461 277.332,312.9113 277.4001,313.3704 277.4229,313.834 277.4001,314.2976 277.332,314.7568 277.2192,315.2071 277.0628,315.6441 276.8644,316.0637 276.6257,316.4619 276.3492,316.8347 276.0375,317.1786 275.6936,317.4903 275.3207,317.7669 274.9226,318.0055 274.503,318.204 274.066,318.3603 273.6157,318.4731 273.1565,318.5412 272.6929,318.564 272.2293,318.5412 271.7701,318.4731 271.3199,318.3603 270.8828,318.204 270.4632,318.0055 270.0651,317.7669 269.6923,317.4903 269.3483,317.1786 269.0366,316.8347 268.7601,316.4619 268.5214,316.0637 268.323,315.6441 268.1666,315.2071 268.0538,314.7568 267.9857,314.2976 267.9629,313.834 267.9857,313.3704 268.0538,312.9113 268.1666,312.461 268.323,312.0239 268.5214,311.6043 268.7601,311.2062 269.0366,310.8334 269.3483,310.4894 269.6923,310.1777 270.0651,309.9012 270.4632,309.6626 270.8828,309.4641 271.3199,309.3077 271.7701,309.1949 272.2293,309.1268"/>
    <polygon points="269.3188,302.9117 268.4989,302.1686 267.7557,301.3486 267.0965,300.4598 266.5276,299.5106 266.0545,298.5103 265.6817,297.4684 265.4128,296.3949 265.2504,295.3003 265.1961,294.195 265.2504,293.0898 265.4128,291.9951 265.6817,290.9217 266.0545,289.8798 266.5276,288.8794 267.0965,287.9302 267.7557,287.0414 268.4989,286.2215 269.3188,285.4783 270.2077,284.8191 271.1568,284.2502 272.1572,283.7771 273.1991,283.4043 274.2725,283.1354 275.3672,282.973 276.4724,282.9187 277.5777,282.973 278.6723,283.1354 279.7458,283.4043 280.7877,283.7771 281.7881,284.2502 282.7372,284.8191 283.6261,285.4783 284.446,286.2215 285.1891,287.0414 285.8483,287.9302 286.4173,288.8794 286.8904,289.8798 287.2632,290.9217 287.5321,291.9951 287.6944,293.0898 287.7487,294.195 287.6944,295.3003 287.5321,296.3949 287.2632,297.4684 286.8904,298.5103 286.4173,299.5106 285.8483,300.4598 285.1891,301.3486 284.446,302.1686 283.6261,302.9117 282.7372,303.5709 281.7881,304.1398 280.7877,304.613 279.7458,304.9858 278.6723,305.2547 277.5777,305.417 276.4724,305.4713 275.3672,305.417 274.2725,305.2547 273.1991,304.9858 272.1572,304.613 271.1568,304.1398 270.2077,303.5709"/>
    <polygon points="241.0657,305.354 238.6772,305.4713 236.2886,305.354 233.923,305.0031 231.6032,304.422 229.3516,303.6164 227.1897,302.5939 225.1385,301.3644 223.2177,299.9398 221.4457,298.3338 219.8397,296.5619 218.4151,294.641 217.1856,292.5898 216.1632,290.428 215.3575,288.1763 214.7764,285.8565 214.4255,283.4909 214.3082,281.1024 214.4255,278.7138 214.7764,276.3482 215.3575,274.0284 216.1632,271.7768 217.1856,269.6149 218.4151,267.5637 219.8397,265.6428 221.4457,263.8709 223.2177,262.2649 225.1385,260.8403 227.1897,259.6108 229.3516,258.5884 231.6032,257.7827 233.923,257.2016 236.2886,256.8507 238.6772,256.7334 241.0657,256.8507 243.4313,257.2016 245.7511,257.7827 248.0028,258.5884 250.1646,259.6108 252.2158,260.8403 254.1367,262.2649 255.9086,263.8709 257.5146,265.6428 258.9392,267.5637 260.1687,269.6149 261.1912,271.7768 261.9968,274.0284 262.5779,276.3482 262.9288,278.7138 263.0461,281.1024 262.9288,283.4909 262.5779,285.8565 261.9968,288.1763 261.1912,290.428 260.1687,292.5898 258.9392,294.641 257.5146,296.5619 255.9086,298.3338 254.1367,299.9398 252.2158,301.3644 250.1646,302.5939 248.0028,303.6164 245.7511,304.422 243.4313,305.0031"/>
    <polygon points="215.3575,326.3991 214.7764,328.7189 214.4255,331.0845 214.3082,333.473 214.4255,335.8616 214.7764,338.2272 215.3575,340.547 216.1632,342.7986 217.1856,344.9605 218.4151,347.0117 219.8397,348.9325 221.4457,350.7045 223.2177,352.3105 225.1385,353.7351 227.1897,354.9645 229.3516,355.987 231.6032,356.7927 233.923,357.3738 236.2886,357.7247 238.6772,357.842 241.0657,357.7247 243.4313,357.3738 245.7511,356.7927 248.0028,355.987 250.1646,354.9645 252.2158,353.7351 254.1367,352.3105 255.9086,350.7045 257.5146,348.9325 258.9392,347.0117 260.1687,344.9605 261.1912,342.7986 261.9968,340.547 262.5779,338.2272 262.9288,335.8616 263.0461,333.473 262.9288,331.0845 262.5779,328.7189 261.9968,326.3991 261.1912,324.1474 260.1687,321.9856 258.9392,319.9344 257.5146,318.0135 255.9086,316.2416 254.1367,314.6356 252.2158,313.211 250.1646,311.9815 248.0028,310.959 245.7511,310.1534 243.4313,309.5723 241.0657,309.2214 238.6772,309.1041 236.2886,309.2214 233.923,309.5723 231.6032,310.1534 229.3516,310.959 227.1897,311.9815 225.1385,313.211 223.2177,314.6356 221.4457,316.2416 219.8397,318.0135 218.4151,319.9344 217.1856,321.9856 216.1632,324.1474"/>
    <polygon points="198.4961,354.3428 198.023,355.3431 197.6502,356.385 197.3813,357.4585 197.2189,358.5531 197.1646,359.6584 197.2189,360.7636 197.3813,361.8583 197.6502,362.9317 198.023,363.9736 198.4961,364.974 199.065,365.9231 199.7242,366.812 200.4674,367.6319 201.2873,368.3751 202.1762,369.0343 203.1253,369.6032 204.1257,370.0763 205.1676,370.4491 206.241,370.718 207.3357,370.8804 208.4409,370.9347 209.5462,370.8804 210.6408,370.718 211.7143,370.4491 212.7562,370.0763 213.7566,369.6032 214.7057,369.0343 215.5946,368.3751 216.4145,367.6319 217.1576,366.812 217.8169,365.9231 218.3858,364.974 218.8589,363.9736 219.2317,362.9317 219.5006,361.8583 219.663,360.7636 219.7173,359.6584 219.663,358.5531 219.5006,357.4585 219.2317,356.385 218.8589,355.3431 218.3858,354.3428 217.8169,353.3936 217.1576,352.5048 216.4145,351.6848 215.5946,350.9417 214.7057,350.2825 213.7566,349.7136 212.7562,349.2404 211.7143,348.8676 210.6408,348.5987 209.5462,348.4364 208.4409,348.3821 207.3357,348.4364 206.241,348.5987 205.1676,348.8676 204.1257,349.2404 203.1253,349.7136 202.1762,350.2825 201.2873,350.9417 200.4674,351.6848 199.7242,352.5048 199.065,353.3936"/>
    <polygon points="192.9174,355.2824 193.7373,354.5393 194.4805,353.7193 195.1397,352.8305 195.7086,351.8813 196.1817,350.881 196.5545,349.839 196.8234,348.7656 196.9858,347.671 197.0401,346.5657 196.9858,345.4604 196.8234,344.3658 196.5545,343.2924 196.1817,342.2504 195.7086,341.2501 195.1397,340.3009 194.4805,339.4121 193.7373,338.5921 192.9174,337.849 192.0286,337.1898 191.0794,336.6209 190.079,336.1478 189.0371,335.7749 187.9637,335.5061 186.8691,335.3437 185.7638,335.2894 184.6585,335.3437 183.5639,335.5061 182.4904,335.7749 181.4485,336.1478 180.4482,336.6209 179.499,337.1898 178.6102,337.849 177.7902,338.5921 177.0471,339.4121 176.3879,340.3009 175.819,341.2501 175.3458,342.2504 174.973,343.2924 174.7041,344.3658 174.5418,345.4604 174.4875,346.5657 174.5418,347.671 174.7041,348.7656 174.973,349.839 175.3458,350.881 175.819,351.8813 176.3879,352.8305 177.0471,353.7193 177.7902,354.5393 178.6102,355.2824 179.499,355.9416 180.4482,356.5105 181.4485,356.9836 182.4904,357.3565 183.5639,357.6253 184.6585,357.7877 185.7638,357.842 186.8691,357.7877 187.9637,357.6253 189.0371,357.3565 190.079,356.9836 191.0794,356.5105 192.0286,355.9416"/>
    <polygon points="186.7142,366.2047 186.6914,365.7411 186.6233,365.2819 186.5106,364.8317 186.3542,364.3946 186.1557,363.975 185.9171,363.5769 185.6406,363.204 185.3288,362.8601 184.9849,362.5484 184.6121,362.2719 184.2139,362.0332 183.7943,361.8348 183.3573,361.6784 182.907,361.5656 182.4479,361.4975 181.9843,361.4747 181.5206,361.4975 181.0615,361.5656 180.6112,361.6784 180.1742,361.8348 179.7546,362.0332 179.3564,362.2719 178.9836,362.5484 178.6397,362.8601 178.3279,363.204 178.0514,363.5769 177.8128,363.975 177.6143,364.3946 177.458,364.8317 177.3452,365.2819 177.2771,365.7411 177.2543,366.2047 177.2771,366.6683 177.3452,367.1275 177.458,367.5777 177.6143,368.0148 177.8128,368.4344 178.0514,368.8325 178.3279,369.2054 178.6397,369.5493 178.9836,369.861 179.3564,370.1375 179.7546,370.3762 180.1742,370.5746 180.6112,370.731 181.0615,370.8438 181.5206,370.9119 181.9843,370.9347 182.4479,370.9119 182.907,370.8438 183.3573,370.731 183.7943,370.5746 184.2139,370.3762 184.6121,370.1375 184.9849,369.861 185.3288,369.5493 185.6406,369.2054 185.9171,368.8325 186.1557,368.4344 186.3542,368.0148 186.5106,367.5777 186.6233,367.1275 186.6914,366.6683"/>
    <polygon points="196.6674,369.4064 196.3235,369.0947 195.9507,368.8182 195.5525,368.5796 195.1329,368.3811 194.6959,368.2247 194.2456,368.1119 193.7865,368.0438 193.3228,368.0211 192.8592,368.0438 192.4001,368.1119 191.9498,368.2247 191.5128,368.3811 191.0931,368.5796 190.695,368.8182 190.3222,369.0947 189.9782,369.4064 189.6665,369.7504 189.39,370.1232 189.1514,370.5213 188.9529,370.941 188.7965,371.378 188.6837,371.8283 188.6156,372.2874 188.5929,372.751 188.6156,373.2147 188.6837,373.6738 188.7965,374.1241 188.9529,374.5611 189.1514,374.9807 189.39,375.3789 189.6665,375.7517 189.9782,376.0956 190.3222,376.4074 190.695,376.6839 191.0931,376.9225 191.5128,377.121 191.9498,377.2773 192.4001,377.3901 192.8592,377.4582 193.3228,377.481 193.7865,377.4582 194.2456,377.3901 194.6959,377.2773 195.1329,377.121 195.5525,376.9225 195.9507,376.6839 196.3235,376.4074 196.6674,376.0956 196.9792,375.7517 197.2557,375.3789 197.4943,374.9807 197.6928,374.5611 197.8491,374.1241 197.9619,373.6738 198.03,373.2147 198.0528,372.751 198.03,372.2874 197.9619,371.8283 197.8491,371.378 197.6928,370.941 197.4943,370.5213 197.2557,370.1232 196.9792,369.7504"/>
    <polygon points="228.9182,361.6914 227.8448,361.9603 226.8029,362.3331 225.8025,362.8062 224.8533,363.3751 223.9645,364.0343 223.1446,364.7775 222.4014,365.5974 221.7422,366.4863 221.1733,367.4354 220.7002,368.4358 220.3274,369.4777 220.0585,370.5511 219.8961,371.6458 219.8418,372.751 219.8961,373.8563 220.0585,374.9509 220.3274,376.0244 220.7002,377.0663 221.1733,378.0666 221.7422,379.0158 222.4014,379.9046 223.1446,380.7246 223.9645,381.4677 224.8533,382.1269 225.8025,382.6958 226.8029,383.169 227.8448,383.5418 228.9182,383.8107 230.0128,383.973 231.1181,384.0273 232.2234,383.973 233.318,383.8107 234.3914,383.5418 235.4334,383.169 236.4337,382.6958 237.3829,382.1269 238.2717,381.4677 239.0917,380.7246 239.8348,379.9046 240.494,379.0158 241.0629,378.0666 241.5361,377.0663 241.9089,376.0244 242.1777,374.9509 242.3401,373.8563 242.3944,372.751 242.3401,371.6458 242.1777,370.5511 241.9089,369.4777 241.5361,368.4358 241.0629,367.4354 240.494,366.4863 239.8348,365.5974 239.0917,364.7775 238.2717,364.0343 237.3829,363.3751 236.4337,362.8062 235.4334,362.3331 234.3914,361.9603 233.318,361.6914 232.2234,361.529 231.1181,361.4747 230.0128,361.529"/>
    <polygon points="223.994,395.7346 224.3379,396.0464 224.7108,396.3229 225.1089,396.5615 225.5285,396.76 225.9655,396.9163 226.4158,397.0291 226.875,397.0972 227.3386,397.12 227.8022,397.0972 228.2614,397.0291 228.7116,396.9163 229.1487,396.76 229.5683,396.5615 229.9664,396.3229 230.3392,396.0464 230.6832,395.7346 230.9949,395.3907 231.2714,395.0179 231.51,394.6197 231.7085,394.2001 231.8649,393.7631 231.9777,393.3128 232.0458,392.8537 232.0686,392.39 232.0458,391.9264 231.9777,391.4673 231.8649,391.017 231.7085,390.58 231.51,390.1603 231.2714,389.7622 230.9949,389.3894 230.6832,389.0454 230.3392,388.7337 229.9664,388.4572 229.5683,388.2186 229.1487,388.0201 228.7116,387.8637 228.2614,387.7509 227.8022,387.6828 227.3386,387.6601 226.875,387.6828 226.4158,387.7509 225.9655,387.8637 225.5285,388.0201 225.1089,388.2186 224.7108,388.4572 224.3379,388.7337 223.994,389.0454 223.6823,389.3894 223.4058,389.7622 223.1671,390.1603 222.9687,390.58 222.8123,391.017 222.6995,391.4673 222.6314,391.9264 222.6086,392.39 222.6314,392.8537 222.6995,393.3128 222.8123,393.7631 222.9687,394.2001 223.1671,394.6197 223.4058,395.0179 223.6823,395.3907"/>
  </g>
</svg>
