<?xml version="1.0" encoding="utf-8" ?>
<svg xmlns="http://www.w3.org/2000/svg" xmlns:cc="http://creativecommons.org/ns" xmlns:dc="http://purl.org/dc/elements/1.1/" xmlns:ev="http://www.w3.org/2001/xml-events" xmlns:inkscape="http://www.inkscape.org/namespaces/inkscape" xmlns:rdf="http://www.w3.org/1999/02/22-rdf-syntax-ns" xmlns:sodipodi="http://sodipodi.sourceforge.net/DTD/sodipodi-0.dtd" xmlns:xlink="http://www.w3.org/1999/xlink" baseProfile="tiny" height="15.875cm" version="1.2" viewBox="0 0 432.0 600.0" width="11.43cm">
  <metadata>
    <rdf:RDF>
      <cc:Work>
        <dc:format>image/svg+xml</dc:format>
        <dc:source>vsk save -s 144 -c hex-grid/config/bubble-coasters-2.json /Users/tobin/src/fabian/plotting/fabian-plotting/hex-grid/sketch_hex_grid.py</dc:source>
        <dc:date>2023-11-04T10:32:59.439964</dc:date>
      </cc:Work>
    </rdf:RDF>
  </metadata>
  <defs/>
  <g fill="none" id="layer1" inkscape:groupmode="layer" inkscape:label="1" stroke="#000000" stroke-width="0.7559" style="display:inline">
    <polygon points="160.8049,309.5174 160.6065,309.0978 160.4501,308.6607 160.3373,308.2105 160.2692,307.7513 160.2464,307.2877 160.2692,306.8241 160.3373,306.3649 160.4501,305.9147 160.6065,305.4776 160.8049,305.058 161.0435,304.6599 161.3201,304.287 161.6318,303.9431 161.9757,303.6314 162.3485,303.3549 162.7467,303.1162 163.1663,302.9178 163.6033,302.7614 164.0536,302.6486 164.5128,302.5805 164.9764,302.5577 165.44,302.5805 165.8991,302.6486 166.3494,302.7614 166.7865,302.9178 167.2061,303.1162 167.6042,303.3549 167.977,303.6314 168.321,303.9431 168.6327,304.287 168.9092,304.6599 169.1478,305.058 169.3463,305.4776 169.5027,305.9147 169.6155,306.3649 169.6836,306.8241 169.7064,307.2877 169.6836,307.7513 169.6155,308.2105 169.5027,308.6607 169.3463,309.0978 169.1478,309.5174 168.9092,309.9155 168.6327,310.2884 168.321,310.6323 167.977,310.944 167.6042,311.2205 167.2061,311.4592 166.7865,311.6576 166.3494,311.814 165.8991,311.9268 165.44,311.9949 164.9764,312.0177 164.5128,311.9949 164.0536,311.9268 163.6033,311.814 163.1663,311.6576 162.7467,311.4592 162.3485,311.2205 161.9757,310.944 161.6318,310.6323 161.3201,310.2884 161.0435,309.9155"/>
    <polygon points="184.3089,389.1883 184.6529,389.5 185.0257,389.7765 185.4238,390.0152 185.8435,390.2136 186.2805,390.37 186.7308,390.4828 187.1899,390.5509 187.6535,390.5737 188.1172,390.5509 188.5763,390.4828 189.0266,390.37 189.4636,390.2136 189.8832,390.0152 190.2814,389.7765 190.6542,389.5 190.9981,389.1883 191.3099,388.8444 191.5864,388.4715 191.825,388.0734 192.0235,387.6538 192.1798,387.2167 192.2926,386.7665 192.3607,386.3073 192.3835,385.8437 192.3607,385.3801 192.2926,384.9209 192.1798,384.4707 192.0235,384.0336 191.825,383.614 191.5864,383.2159 191.3099,382.843 190.9981,382.4991 190.6542,382.1874 190.2814,381.9109 189.8832,381.6722 189.4636,381.4738 189.0266,381.3174 188.5763,381.2046 188.1172,381.1365 187.6535,381.1137 187.1899,381.1365 186.7308,381.2046 186.2805,381.3174 185.8435,381.4738 185.4238,381.6722 185.0257,381.9109 184.6529,382.1874 184.3089,382.4991 183.9972,382.843 183.7207,383.2159 183.4821,383.614 183.2836,384.0336 183.1272,384.4707 183.0145,384.9209 182.9463,385.3801 182.9236,385.8437 182.9463,386.3073 183.0145,386.7665 183.1272,387.2167 183.2836,387.6538 183.4821,388.0734 183.7207,388.4715 183.9972,388.8444"/>
    <polygon points="190.2814,402.8692 190.6542,402.5927 190.9981,402.281 191.3099,401.937 191.5864,401.5642 191.825,401.1661 192.0235,400.7465 192.1798,400.3094 192.2926,399.8591 192.3607,399.4 192.3835,398.9364 192.3607,398.4728 192.2926,398.0136 192.1798,397.5633 192.0235,397.1263 191.825,396.7067 191.5864,396.3085 191.3099,395.9357 190.9981,395.5918 190.6542,395.2801 190.2814,395.0035 189.8832,394.7649 189.4636,394.5664 189.0266,394.4101 188.5763,394.2973 188.1172,394.2292 187.6535,394.2064 187.1899,394.2292 186.7308,394.2973 186.2805,394.4101 185.8435,394.5664 185.4238,394.7649 185.0257,395.0035 184.6529,395.2801 184.3089,395.5918 183.9972,395.9357 183.7207,396.3085 183.4821,396.7067 183.2836,397.1263 183.1272,397.5633 183.0145,398.0136 182.9463,398.4728 182.9236,398.9364 182.9463,399.4 183.0145,399.8591 183.1272,400.3094 183.2836,400.7465 183.4821,401.1661 183.7207,401.5642 183.9972,401.937 184.3089,402.281 184.6529,402.5927 185.0257,402.8692 185.4238,403.1078 185.8435,403.3063 186.2805,403.4627 186.7308,403.5755 187.1899,403.6436 187.6535,403.6663 188.1172,403.6436 188.5763,403.5755 189.0266,403.4627 189.4636,403.3063 189.8832,403.1078"/>
    <polygon points="195.3358,376.2967 195.6475,375.9528 195.9915,375.6411 196.3643,375.3645 196.7624,375.1259 197.182,374.9274 197.6191,374.7711 198.0694,374.6583 198.5285,374.5902 198.9921,374.5674 199.4557,374.5902 199.9149,374.6583 200.3652,374.7711 200.8022,374.9274 201.2218,375.1259 201.62,375.3645 201.9928,375.6411 202.3367,375.9528 202.6484,376.2967 202.925,376.6695 203.1636,377.0677 203.3621,377.4873 203.5184,377.9243 203.6312,378.3746 203.6993,378.8338 203.7221,379.2974 203.6993,379.761 203.6312,380.2201 203.5184,380.6704 203.3621,381.1075 203.1636,381.5271 202.925,381.9252 202.6484,382.298 202.3367,382.642 201.9928,382.9537 201.62,383.2302 201.2218,383.4688 200.8022,383.6673 200.3652,383.8237 199.9149,383.9365 199.4557,384.0046 198.9921,384.0273 198.5285,384.0046 198.0694,383.9365 197.6191,383.8237 197.182,383.6673 196.7624,383.4688 196.3643,383.2302 195.9915,382.9537 195.6475,382.642 195.3358,382.298 195.0593,381.9252 194.8207,381.5271 194.6222,381.1075 194.4658,380.6704 194.353,380.2201 194.2849,379.761 194.2622,379.2974 194.2849,378.8338 194.353,378.3746 194.4658,377.9243 194.6222,377.4873 194.8207,377.0677 195.0593,376.6695"/>
    <polygon points="194.353,365.2819 194.4658,364.8317 194.6222,364.3946 194.8207,363.975 195.0593,363.5769 195.3358,363.204 195.6475,362.8601 195.9915,362.5484 196.3643,362.2719 196.7624,362.0332 197.182,361.8348 197.6191,361.6784 198.0694,361.5656 198.5285,361.4975 198.9921,361.4747 199.4557,361.4975 199.9149,361.5656 200.3652,361.6784 200.8022,361.8348 201.2218,362.0332 201.62,362.2719 201.9928,362.5484 202.3367,362.8601 202.6484,363.204 202.925,363.5769 203.1636,363.975 203.3621,364.3946 203.5184,364.8317 203.6312,365.2819 203.6993,365.7411 203.7221,366.2047 203.6993,366.6683 203.6312,367.1275 203.5184,367.5777 203.3621,368.0148 203.1636,368.4344 202.925,368.8325 202.6484,369.2054 202.3367,369.5493 201.9928,369.861 201.62,370.1375 201.2218,370.3762 200.8022,370.5746 200.3652,370.731 199.9149,370.8438 199.4557,370.9119 198.9921,370.9347 198.5285,370.9119 198.0694,370.8438 197.6191,370.731 197.182,370.5746 196.7624,370.3762 196.3643,370.1375 195.9915,369.861 195.6475,369.5493 195.3358,369.2054 195.0593,368.8325 194.8207,368.4344 194.6222,368.0148 194.4658,367.5777 194.353,367.1275 194.2849,366.6683 194.2622,366.2047 194.2849,365.7411"/>
    <polygon points="200.8022,357.482 200.3652,357.6383 199.9149,357.7511 199.4557,357.8192 198.9921,357.842 198.5285,357.8192 198.0694,357.7511 197.6191,357.6383 197.182,357.482 196.7624,357.2835 196.3643,357.0449 195.9915,356.7684 195.6475,356.4566 195.3358,356.1127 195.0593,355.7399 194.8207,355.3417 194.6222,354.9221 194.4658,354.4851 194.353,354.0348 194.2849,353.5757 194.2622,353.112 194.2849,352.6484 194.353,352.1893 194.4658,351.739 194.6222,351.302 194.8207,350.8823 195.0593,350.4842 195.3358,350.1114 195.6475,349.7674 195.9915,349.4557 196.3643,349.1792 196.7624,348.9406 197.182,348.7421 197.6191,348.5857 198.0694,348.4729 198.5285,348.4048 198.9921,348.3821 199.4557,348.4048 199.9149,348.4729 200.3652,348.5857 200.8022,348.7421 201.2218,348.9406 201.62,349.1792 201.9928,349.4557 202.3367,349.7674 202.6484,350.1114 202.925,350.4842 203.1636,350.8823 203.3621,351.302 203.5184,351.739 203.6312,352.1893 203.6993,352.6484 203.7221,353.112 203.6993,353.5757 203.6312,354.0348 203.5184,354.4851 203.3621,354.9221 203.1636,355.3417 202.925,355.7399 202.6484,356.1127 202.3367,356.4566 201.9928,356.7684 201.62,357.0449 201.2218,357.2835"/>
    <polygon points="208.101,355.4869 208.5206,355.2884 208.9577,355.1321 209.4079,355.0193 209.8671,354.9512 210.3307,354.9284 210.7943,354.9512 211.2535,355.0193 211.7037,355.1321 212.1408,355.2884 212.5604,355.4869 212.9585,355.7255 213.3314,356.002 213.6753,356.3138 213.987,356.6577 214.2635,357.0305 214.5022,357.4287 214.7006,357.8483 214.857,358.2853 214.9698,358.7356 215.0379,359.1947 215.0607,359.6584 215.0379,360.122 214.9698,360.5811 214.857,361.0314 214.7006,361.4684 214.5022,361.8881 214.2635,362.2862 213.987,362.659 213.6753,363.003 213.3314,363.3147 212.9585,363.5912 212.5604,363.8298 212.1408,364.0283 211.7037,364.1847 211.2535,364.2975 210.7943,364.3656 210.3307,364.3883 209.8671,364.3656 209.4079,364.2975 208.9577,364.1847 208.5206,364.0283 208.101,363.8298 207.7029,363.5912 207.33,363.3147 206.9861,363.003 206.6744,362.659 206.3979,362.2862 206.1592,361.8881 205.9608,361.4684 205.8044,361.0314 205.6916,360.5811 205.6235,360.122 205.6007,359.6584 205.6235,359.1947 205.6916,358.7356 205.8044,358.2853 205.9608,357.8483 206.1592,357.4287 206.3979,357.0305 206.6744,356.6577 206.9861,356.3138 207.33,356.002 207.7029,355.7255"/>
    <polygon points="215.0379,347.0293 214.9698,347.4885 214.857,347.9387 214.7006,348.3758 214.5022,348.7954 214.2635,349.1935 213.987,349.5664 213.6753,349.9103 213.3314,350.222 212.9585,350.4985 212.5604,350.7372 212.1408,350.9356 211.7037,351.092 211.2535,351.2048 210.7943,351.2729 210.3307,351.2957 209.8671,351.2729 209.4079,351.2048 208.9577,351.092 208.5206,350.9356 208.101,350.7372 207.7029,350.4985 207.33,350.222 206.9861,349.9103 206.6744,349.5664 206.3979,349.1935 206.1592,348.7954 205.9608,348.3758 205.8044,347.9387 205.6916,347.4885 205.6235,347.0293 205.6007,346.5657 205.6235,346.1021 205.6916,345.6429 205.8044,345.1927 205.9608,344.7556 206.1592,344.336 206.3979,343.9379 206.6744,343.565 206.9861,343.2211 207.33,342.9094 207.7029,342.6329 208.101,342.3942 208.5206,342.1958 208.9577,342.0394 209.4079,341.9266 209.8671,341.8585 210.3307,341.8357 210.7943,341.8585 211.2535,341.9266 211.7037,342.0394 212.1408,342.1958 212.5604,342.3942 212.9585,342.6329 213.3314,342.9094 213.6753,343.2211 213.987,343.565 214.2635,343.9379 214.5022,344.336 214.7006,344.7556 214.857,345.1927 214.9698,345.6429 215.0379,346.1021 215.0607,346.5657"/>
    <polygon points="209.795,337.3446 208.7946,336.8715 207.8455,336.3026 206.9566,335.6434 206.1367,334.9003 205.3935,334.0803 204.7343,333.1915 204.1654,332.2423 203.6923,331.242 203.3195,330.2 203.0506,329.1266 202.8882,328.032 202.8339,326.9267 202.8882,325.8214 203.0506,324.7268 203.3195,323.6534 203.6923,322.6114 204.1654,321.6111 204.7343,320.6619 205.3935,319.7731 206.1367,318.9531 206.9566,318.21 207.8455,317.5508 208.7946,316.9819 209.795,316.5087 210.8369,316.1359 211.9103,315.8671 213.005,315.7047 214.1102,315.6504 215.2155,315.7047 216.3101,315.8671 217.3836,316.1359 218.4255,316.5087 219.4259,316.9819 220.375,317.5508 221.2638,318.21 222.0838,318.9531 222.8269,319.7731 223.4861,320.6619 224.0551,321.6111 224.5282,322.6114 224.901,323.6534 225.1699,324.7268 225.3322,325.8214 225.3865,326.9267 225.3322,328.032 225.1699,329.1266 224.901,330.2 224.5282,331.242 224.0551,332.2423 223.4861,333.1915 222.8269,334.0803 222.0838,334.9003 221.2638,335.6434 220.375,336.3026 219.4259,336.8715 218.4255,337.3446 217.3836,337.7175 216.3101,337.9863 215.2155,338.1487 214.1102,338.203 213.005,338.1487 211.9103,337.9863 210.8369,337.7175"/>
    <polygon points="190.6542,337.1294 190.2814,337.4059 189.8832,337.6445 189.4636,337.843 189.0266,337.9993 188.5763,338.1121 188.1172,338.1802 187.6535,338.203 187.1899,338.1802 186.7308,338.1121 186.2805,337.9993 185.8435,337.843 185.4238,337.6445 185.0257,337.4059 184.6529,337.1294 184.3089,336.8176 183.9972,336.4737 183.7207,336.1009 183.4821,335.7027 183.2836,335.2831 183.1272,334.8461 183.0145,334.3958 182.9463,333.9367 182.9236,333.473 182.9463,333.0094 183.0145,332.5503 183.1272,332.1 183.2836,331.663 183.4821,331.2433 183.7207,330.8452 183.9972,330.4724 184.3089,330.1284 184.6529,329.8167 185.0257,329.5402 185.4238,329.3016 185.8435,329.1031 186.2805,328.9467 186.7308,328.8339 187.1899,328.7658 187.6535,328.7431 188.1172,328.7658 188.5763,328.8339 189.0266,328.9467 189.4636,329.1031 189.8832,329.3016 190.2814,329.5402 190.6542,329.8167 190.9981,330.1284 191.3099,330.4724 191.5864,330.8452 191.825,331.2433 192.0235,331.663 192.1798,332.1 192.2926,332.5503 192.3607,333.0094 192.3835,333.473 192.3607,333.9367 192.2926,334.3958 192.1798,334.8461 192.0235,335.2831 191.825,335.7027 191.5864,336.1009 191.3099,336.4737 190.9981,336.8176"/>
    <polygon points="179.9713,323.926 180.2478,324.2989 180.4864,324.697 180.6849,325.1166 180.8413,325.5537 180.954,326.0039 181.0222,326.4631 181.0449,326.9267 181.0222,327.3903 180.954,327.8495 180.8413,328.2997 180.6849,328.7368 180.4864,329.1564 180.2478,329.5545 179.9713,329.9274 179.6596,330.2713 179.3156,330.583 178.9428,330.8595 178.5447,331.0982 178.125,331.2966 177.688,331.453 177.2377,331.5658 176.7786,331.6339 176.315,331.6567 175.8513,331.6339 175.3922,331.5658 174.9419,331.453 174.5049,331.2966 174.0853,331.0982 173.6871,330.8595 173.3143,330.583 172.9704,330.2713 172.6586,329.9274 172.3821,329.5545 172.1435,329.1564 171.945,328.7368 171.7887,328.2997 171.6759,327.8495 171.6078,327.3903 171.585,326.9267 171.6078,326.4631 171.6759,326.0039 171.7887,325.5537 171.945,325.1166 172.1435,324.697 172.3821,324.2989 172.6586,323.926 172.9704,323.5821 173.3143,323.2704 173.6871,322.9939 174.0853,322.7552 174.5049,322.5568 174.9419,322.4004 175.3922,322.2876 175.8513,322.2195 176.315,322.1967 176.7786,322.2195 177.2377,322.2876 177.688,322.4004 178.125,322.5568 178.5447,322.7552 178.9428,322.9939 179.3156,323.2704 179.6596,323.5821"/>
    <polygon points="181.0151,309.5188 181.4883,308.5184 182.0572,307.5693 182.7164,306.6804 183.4595,305.8605 184.2795,305.1173 185.1683,304.4581 186.1175,303.8892 187.1178,303.4161 188.1597,303.0433 189.2332,302.7744 190.3278,302.612 191.4331,302.5577 192.5383,302.612 193.633,302.7744 194.7064,303.0433 195.7483,303.4161 196.7487,303.8892 197.6979,304.4581 198.5867,305.1173 199.4066,305.8605 200.1498,306.6804 200.809,307.5693 201.3779,308.5184 201.851,309.5188 202.2238,310.5607 202.4927,311.6341 202.6551,312.7288 202.7094,313.834 202.6551,314.9393 202.4927,316.0339 202.2238,317.1074 201.851,318.1493 201.3779,319.1496 200.809,320.0988 200.1498,320.9876 199.4066,321.8076 198.5867,322.5507 197.6979,323.2099 196.7487,323.7788 195.7483,324.252 194.7064,324.6248 193.633,324.8937 192.5383,325.056 191.4331,325.1103 190.3278,325.056 189.2332,324.8937 188.1597,324.6248 187.1178,324.252 186.1175,323.7788 185.1683,323.2099 184.2795,322.5507 183.4595,321.8076 182.7164,320.9876 182.0572,320.0988 181.4883,319.1496 181.0151,318.1493 180.6423,317.1074 180.3734,316.0339 180.2111,314.9393 180.1568,313.834 180.2111,312.7288 180.3734,311.6341 180.6423,310.5607"/>
    <polygon points="171.6078,301.205 171.585,300.7414 171.6078,300.2777 171.6759,299.8186 171.7887,299.3683 171.945,298.9313 172.1435,298.5117 172.3821,298.1135 172.6586,297.7407 172.9704,297.3968 173.3143,297.085 173.6871,296.8085 174.0853,296.5699 174.5049,296.3714 174.9419,296.2151 175.3922,296.1023 175.8513,296.0342 176.315,296.0114 176.7786,296.0342 177.2377,296.1023 177.688,296.2151 178.125,296.3714 178.5447,296.5699 178.9428,296.8085 179.3156,297.085 179.6596,297.3968 179.9713,297.7407 180.2478,298.1135 180.4864,298.5117 180.6849,298.9313 180.8413,299.3683 180.954,299.8186 181.0222,300.2777 181.0449,300.7414 181.0222,301.205 180.954,301.6641 180.8413,302.1144 180.6849,302.5514 180.4864,302.9711 180.2478,303.3692 179.9713,303.742 179.6596,304.086 179.3156,304.3977 178.9428,304.6742 178.5447,304.9128 178.125,305.1113 177.688,305.2677 177.2377,305.3805 176.7786,305.4486 176.315,305.4713 175.8513,305.4486 175.3922,305.3805 174.9419,305.2677 174.5049,305.1113 174.0853,304.9128 173.6871,304.6742 173.3143,304.3977 172.9704,304.086 172.6586,303.742 172.3821,303.3692 172.1435,302.9711 171.945,302.5514 171.7887,302.1144 171.6759,301.6641"/>
    <polygon points="180.2111,260.3581 180.3734,259.2635 180.6423,258.19 181.0151,257.1481 181.4883,256.1477 182.0572,255.1986 182.7164,254.3097 183.4595,253.4898 184.2795,252.7467 185.1683,252.0875 186.1175,251.5185 187.1178,251.0454 188.1597,250.6726 189.2332,250.4037 190.3278,250.2414 191.4331,250.1871 192.5383,250.2414 193.633,250.4037 194.7064,250.6726 195.7483,251.0454 196.7487,251.5185 197.6979,252.0875 198.5867,252.7467 199.4066,253.4898 200.1498,254.3097 200.809,255.1986 201.3779,256.1477 201.851,257.1481 202.2238,258.19 202.4927,259.2635 202.6551,260.3581 202.7094,261.4634 202.6551,262.5686 202.4927,263.6633 202.2238,264.7367 201.851,265.7786 201.3779,266.779 200.809,267.7281 200.1498,268.617 199.4066,269.4369 198.5867,270.1801 197.6979,270.8393 196.7487,271.4082 195.7483,271.8813 194.7064,272.2541 193.633,272.523 192.5383,272.6854 191.4331,272.7397 190.3278,272.6854 189.2332,272.523 188.1597,272.2541 187.1178,271.8813 186.1175,271.4082 185.1683,270.8393 184.2795,270.1801 183.4595,269.4369 182.7164,268.617 182.0572,267.7281 181.4883,266.779 181.0151,265.7786 180.6423,264.7367 180.3734,263.6633 180.2111,262.5686 180.1568,261.4634"/>
    <polygon points="204.1654,243.0551 204.7343,242.1059 205.3935,241.2171 206.1367,240.3971 206.9566,239.654 207.8455,238.9948 208.7946,238.4259 209.795,237.9527 210.8369,237.5799 211.9103,237.3111 213.005,237.1487 214.1102,237.0944 215.2155,237.1487 216.3101,237.3111 217.3836,237.5799 218.4255,237.9527 219.4259,238.4259 220.375,238.9948 221.2638,239.654 222.0838,240.3971 222.8269,241.2171 223.4861,242.1059 224.0551,243.0551 224.5282,244.0554 224.901,245.0974 225.1699,246.1708 225.3322,247.2654 225.3865,248.3707 225.3322,249.476 225.1699,250.5706 224.901,251.644 224.5282,252.6859 224.0551,253.6863 223.4861,254.6355 222.8269,255.5243 222.0838,256.3442 221.2638,257.0874 220.375,257.7466 219.4259,258.3155 218.4255,258.7886 217.3836,259.1614 216.3101,259.4303 215.2155,259.5927 214.1102,259.647 213.005,259.5927 211.9103,259.4303 210.8369,259.1614 209.795,258.7886 208.7946,258.3155 207.8455,257.7466 206.9566,257.0874 206.1367,256.3442 205.3935,255.5243 204.7343,254.6355 204.1654,253.6863 203.6923,252.6859 203.3195,251.644 203.0506,250.5706 202.8882,249.476 202.8339,248.3707 202.8882,247.2654 203.0506,246.1708 203.3195,245.0974 203.6923,244.0554"/>
    <polygon points="206.1367,230.1589 205.3935,229.339 204.7343,228.4501 204.1654,227.501 203.6923,226.5006 203.3195,225.4587 203.0506,224.3853 202.8882,223.2906 202.8339,222.1854 202.8882,221.0801 203.0506,219.9855 203.3195,218.912 203.6923,217.8701 204.1654,216.8697 204.7343,215.9206 205.3935,215.0317 206.1367,214.2118 206.9566,213.4687 207.8455,212.8095 208.7946,212.2405 209.795,211.7674 210.8369,211.3946 211.9103,211.1257 213.005,210.9634 214.1102,210.9091 215.2155,210.9634 216.3101,211.1257 217.3836,211.3946 218.4255,211.7674 219.4259,212.2405 220.375,212.8095 221.2638,213.4687 222.0838,214.2118 222.8269,215.0317 223.4861,215.9206 224.0551,216.8697 224.5282,217.8701 224.901,218.912 225.1699,219.9855 225.3322,221.0801 225.3865,222.1854 225.3322,223.2906 225.1699,224.3853 224.901,225.4587 224.5282,226.5006 224.0551,227.501 223.4861,228.4501 222.8269,229.339 222.0838,230.1589 221.2638,230.9021 220.375,231.5613 219.4259,232.1302 218.4255,232.6033 217.3836,232.9761 216.3101,233.245 215.2155,233.4074 214.1102,233.4617 213.005,233.4074 211.9103,233.245 210.8369,232.9761 209.795,232.6033 208.7946,232.1302 207.8455,231.5613 206.9566,230.9021"/>
    <polygon points="193.633,224.2184 194.7064,224.4873 195.7483,224.8601 196.7487,225.3332 197.6979,225.9021 198.5867,226.5613 199.4066,227.3045 200.1498,228.1244 200.809,229.0132 201.3779,229.9624 201.851,230.9628 202.2238,232.0047 202.4927,233.0781 202.6551,234.1728 202.7094,235.278 202.6551,236.3833 202.4927,237.4779 202.2238,238.5514 201.851,239.5933 201.3779,240.5936 200.809,241.5428 200.1498,242.4316 199.4066,243.2516 198.5867,243.9947 197.6979,244.6539 196.7487,245.2228 195.7483,245.696 194.7064,246.0688 193.633,246.3377 192.5383,246.5 191.4331,246.5543 190.3278,246.5 189.2332,246.3377 188.1597,246.0688 187.1178,245.696 186.1175,245.2228 185.1683,244.6539 184.2795,243.9947 183.4595,243.2516 182.7164,242.4316 182.0572,241.5428 181.4883,240.5936 181.0151,239.5933 180.6423,238.5514 180.3734,237.4779 180.2111,236.3833 180.1568,235.278 180.2111,234.1728 180.3734,233.0781 180.6423,232.0047 181.0151,230.9628 181.4883,229.9624 182.0572,229.0132 182.7164,228.1244 183.4595,227.3045 184.2795,226.5613 185.1683,225.9021 186.1175,225.3332 187.1178,224.8601 188.1597,224.4873 189.2332,224.2184 190.3278,224.056 191.4331,224.0017 192.5383,224.056"/>
    <polygon points="182.0572,202.8279 182.7164,201.9391 183.4595,201.1191 184.2795,200.376 185.1683,199.7168 186.1175,199.1479 187.1178,198.6747 188.1597,198.3019 189.2332,198.0331 190.3278,197.8707 191.4331,197.8164 192.5383,197.8707 193.633,198.0331 194.7064,198.3019 195.7483,198.6747 196.7487,199.1479 197.6979,199.7168 198.5867,200.376 199.4066,201.1191 200.1498,201.9391 200.809,202.8279 201.3779,203.7771 201.851,204.7774 202.2238,205.8194 202.4927,206.8928 202.6551,207.9874 202.7094,209.0927 202.6551,210.198 202.4927,211.2926 202.2238,212.366 201.851,213.4079 201.3779,214.4083 200.809,215.3575 200.1498,216.2463 199.4066,217.0662 198.5867,217.8094 197.6979,218.4686 196.7487,219.0375 195.7483,219.5106 194.7064,219.8834 193.633,220.1523 192.5383,220.3147 191.4331,220.369 190.3278,220.3147 189.2332,220.1523 188.1597,219.8834 187.1178,219.5106 186.1175,219.0375 185.1683,218.4686 184.2795,217.8094 183.4595,217.0662 182.7164,216.2463 182.0572,215.3575 181.4883,214.4083 181.0151,213.4079 180.6423,212.366 180.3734,211.2926 180.2111,210.198 180.1568,209.0927 180.2111,207.9874 180.3734,206.8928 180.6423,205.8194 181.0151,204.7774 181.4883,203.7771"/>
    <polygon points="164.4406,206.418 165.4826,206.7908 166.556,207.0597 167.6506,207.222 168.7559,207.2763 169.8612,207.222 170.9558,207.0597 172.0292,206.7908 173.0712,206.418 174.0715,205.9448 175.0207,205.3759 175.9095,204.7167 176.7295,203.9736 177.4726,203.1536 178.1318,202.2648 178.7007,201.3156 179.1739,200.3153 179.5467,199.2734 179.8155,198.1999 179.9779,197.1053 180.0322,196.0 179.9779,194.8948 179.8155,193.8001 179.5467,192.7267 179.1739,191.6848 178.7007,190.6844 178.1318,189.7352 177.4726,188.8464 176.7295,188.0265 175.9095,187.2833 175.0207,186.6241 174.0715,186.0552 173.0712,185.5821 172.0292,185.2093 170.9558,184.9404 169.8612,184.778 168.7559,184.7237 167.6506,184.778 166.556,184.9404 165.4826,185.2093 164.4406,185.5821 163.4403,186.0552 162.4911,186.6241 161.6023,187.2833 160.7824,188.0265 160.0392,188.8464 159.38,189.7352 158.8111,190.6844 158.338,191.6848 157.9652,192.7267 157.6963,193.8001 157.5339,194.8948 157.4796,196.0 157.5339,197.1053 157.6963,198.1999 157.9652,199.2734 158.338,200.3153 158.8111,201.3156 159.38,202.2648 160.0392,203.1536 160.7824,203.9736 161.6023,204.7167 162.4911,205.3759 163.4403,205.9448"/>
    <polygon points="157.8093,211.3224 158.0077,210.9028 158.1641,210.4657 158.2769,210.0155 158.345,209.5563 158.3678,209.0927 158.345,208.6291 158.2769,208.1699 158.1641,207.7197 158.0077,207.2826 157.8093,206.863 157.5706,206.4649 157.2941,206.092 156.9824,205.7481 156.6385,205.4364 156.2656,205.1599 155.8675,204.9212 155.4479,204.7228 155.0108,204.5664 154.5606,204.4536 154.1014,204.3855 153.6378,204.3627 153.1742,204.3855 152.715,204.4536 152.2648,204.5664 151.8277,204.7228 151.4081,204.9212 151.01,205.1599 150.6371,205.4364 150.2932,205.7481 149.9815,206.092 149.705,206.4649 149.4663,206.863 149.2679,207.2826 149.1115,207.7197 148.9987,208.1699 148.9306,208.6291 148.9078,209.0927 148.9306,209.5563 148.9987,210.0155 149.1115,210.4657 149.2679,210.9028 149.4663,211.3224 149.705,211.7205 149.9815,212.0934 150.2932,212.4373 150.6371,212.749 151.01,213.0255 151.4081,213.2642 151.8277,213.4626 152.2648,213.619 152.715,213.7318 153.1742,213.7999 153.6378,213.8227 154.1014,213.7999 154.5606,213.7318 155.0108,213.619 155.4479,213.4626 155.8675,213.2642 156.2656,213.0255 156.6385,212.749 156.9824,212.4373 157.2941,212.0934 157.5706,211.7205"/>
    <polygon points="146.4707,226.502 146.6691,226.9216 146.8255,227.3587 146.9383,227.8089 147.0064,228.2681 147.0292,228.7317 147.0064,229.1953 146.9383,229.6545 146.8255,230.1047 146.6691,230.5418 146.4707,230.9614 146.232,231.3595 145.9555,231.7324 145.6438,232.0763 145.2999,232.388 144.927,232.6645 144.5289,232.9032 144.1093,233.1016 143.6723,233.258 143.222,233.3708 142.7628,233.4389 142.2992,233.4617 141.8356,233.4389 141.3764,233.3708 140.9262,233.258 140.4891,233.1016 140.0695,232.9032 139.6714,232.6645 139.2985,232.388 138.9546,232.0763 138.6429,231.7324 138.3664,231.3595 138.1277,230.9614 137.9293,230.5418 137.7729,230.1047 137.6601,229.6545 137.592,229.1953 137.5692,228.7317 137.592,228.2681 137.6601,227.8089 137.7729,227.3587 137.9293,226.9216 138.1277,226.502 138.3664,226.1039 138.6429,225.731 138.9546,225.3871 139.2985,225.0754 139.6714,224.7989 140.0695,224.5602 140.4891,224.3618 140.9262,224.2054 141.3764,224.0926 141.8356,224.0245 142.2992,224.0017 142.7628,224.0245 143.222,224.0926 143.6723,224.2054 144.1093,224.3618 144.5289,224.5602 144.927,224.7989 145.2999,225.0754 145.6438,225.3871 145.9555,225.731 146.232,226.1039"/>
    <polygon points="143.6723,220.1653 143.222,220.2781 142.7628,220.3462 142.2992,220.369 141.8356,220.3462 141.3764,220.2781 140.9262,220.1653 140.4891,220.0089 140.0695,219.8105 139.6714,219.5719 139.2985,219.2953 138.9546,218.9836 138.6429,218.6397 138.3664,218.2669 138.1277,217.8687 137.9293,217.4491 137.7729,217.0121 137.6601,216.5618 137.592,216.1026 137.5692,215.639 137.592,215.1754 137.6601,214.7163 137.7729,214.266 137.9293,213.8289 138.1277,213.4093 138.3664,213.0112 138.6429,212.6384 138.9546,212.2944 139.2985,211.9827 139.6714,211.7062 140.0695,211.4676 140.4891,211.2691 140.9262,211.1127 141.3764,210.9999 141.8356,210.9318 142.2992,210.9091 142.7628,210.9318 143.222,210.9999 143.6723,211.1127 144.1093,211.2691 144.5289,211.4676 144.927,211.7062 145.2999,211.9827 145.6438,212.2944 145.9555,212.6384 146.232,213.0112 146.4707,213.4093 146.6691,213.8289 146.8255,214.266 146.9383,214.7163 147.0064,215.1754 147.0292,215.639 147.0064,216.1026 146.9383,216.5618 146.8255,217.0121 146.6691,217.4491 146.4707,217.8687 146.232,218.2669 145.9555,218.6397 145.6438,218.9836 145.2999,219.2953 144.927,219.5719 144.5289,219.8105 144.1093,220.0089"/>
    <polygon points="156.9824,186.252 156.6385,186.5637 156.2656,186.8402 155.8675,187.0788 155.4479,187.2773 155.0108,187.4337 154.5606,187.5464 154.1014,187.6146 153.6378,187.6373 153.1742,187.6146 152.715,187.5464 152.2648,187.4337 151.8277,187.2773 151.4081,187.0788 151.01,186.8402 150.6371,186.5637 150.2932,186.252 149.9815,185.908 149.705,185.5352 149.4663,185.137 149.2679,184.7174 149.1115,184.2804 148.9987,183.8301 148.9306,183.371 148.9078,182.9074 148.9306,182.4437 148.9987,181.9846 149.1115,181.5343 149.2679,181.0973 149.4663,180.6777 149.705,180.2795 149.9815,179.9067 150.2932,179.5628 150.6371,179.251 151.01,178.9745 151.4081,178.7359 151.8277,178.5374 152.2648,178.3811 152.715,178.2683 153.1742,178.2002 153.6378,178.1774 154.1014,178.2002 154.5606,178.2683 155.0108,178.3811 155.4479,178.5374 155.8675,178.7359 156.2656,178.9745 156.6385,179.251 156.9824,179.5628 157.2941,179.9067 157.5706,180.2795 157.8093,180.6777 158.0077,181.0973 158.1641,181.5343 158.2769,181.9846 158.345,182.4437 158.3678,182.9074 158.345,183.371 158.2769,183.8301 158.1641,184.2804 158.0077,184.7174 157.8093,185.137 157.5706,185.5352 157.2941,185.908"/>
    <polygon points="160.6065,178.1711 160.4501,177.7341 160.3373,177.2838 160.2692,176.8246 160.2464,176.361 160.2692,175.8974 160.3373,175.4383 160.4501,174.988 160.6065,174.5509 160.8049,174.1313 161.0435,173.7332 161.3201,173.3604 161.6318,173.0164 161.9757,172.7047 162.3485,172.4282 162.7467,172.1896 163.1663,171.9911 163.6033,171.8347 164.0536,171.7219 164.5128,171.6538 164.9764,171.631 165.44,171.6538 165.8991,171.7219 166.3494,171.8347 166.7865,171.9911 167.2061,172.1896 167.6042,172.4282 167.977,172.7047 168.321,173.0164 168.6327,173.3604 168.9092,173.7332 169.1478,174.1313 169.3463,174.5509 169.5027,174.988 169.6155,175.4383 169.6836,175.8974 169.7064,176.361 169.6836,176.8246 169.6155,177.2838 169.5027,177.7341 169.3463,178.1711 169.1478,178.5907 168.9092,178.9889 168.6327,179.3617 168.321,179.7056 167.977,180.0173 167.6042,180.2939 167.2061,180.5325 166.7865,180.7309 166.3494,180.8873 165.8991,181.0001 165.44,181.0682 164.9764,181.091 164.5128,181.0682 164.0536,181.0001 163.6033,180.8873 163.1663,180.7309 162.7467,180.5325 162.3485,180.2939 161.9757,180.0173 161.6318,179.7056 161.3201,179.3617 161.0435,178.9889 160.8049,178.5907"/>
    <polygon points="160.4501,164.6414 160.3373,164.1911 160.2692,163.732 160.2464,163.2684 160.2692,162.8047 160.3373,162.3456 160.4501,161.8953 160.6065,161.4583 160.8049,161.0387 161.0435,160.6405 161.3201,160.2677 161.6318,159.9238 161.9757,159.612 162.3485,159.3355 162.7467,159.0969 163.1663,158.8984 163.6033,158.7421 164.0536,158.6293 164.5128,158.5612 164.9764,158.5384 165.44,158.5612 165.8991,158.6293 166.3494,158.7421 166.7865,158.8984 167.2061,159.0969 167.6042,159.3355 167.977,159.612 168.321,159.9238 168.6327,160.2677 168.9092,160.6405 169.1478,161.0387 169.3463,161.4583 169.5027,161.8953 169.6155,162.3456 169.6836,162.8047 169.7064,163.2684 169.6836,163.732 169.6155,164.1911 169.5027,164.6414 169.3463,165.0784 169.1478,165.498 168.9092,165.8962 168.6327,166.269 168.321,166.613 167.977,166.9247 167.6042,167.2012 167.2061,167.4398 166.7865,167.6383 166.3494,167.7947 165.8991,167.9074 165.44,167.9756 164.9764,167.9983 164.5128,167.9756 164.0536,167.9074 163.6033,167.7947 163.1663,167.6383 162.7467,167.4398 162.3485,167.2012 161.9757,166.9247 161.6318,166.613 161.3201,166.269 161.0435,165.8962 160.8049,165.498 160.6065,165.0784"/>
    <polygon points="178.9428,173.7475 179.3156,173.471 179.6596,173.1593 179.9713,172.8154 180.2478,172.4425 180.4864,172.0444 180.6849,171.6248 180.8413,171.1877 180.954,170.7375 181.0222,170.2783 181.0449,169.8147 181.0222,169.3511 180.954,168.8919 180.8413,168.4416 180.6849,168.0046 180.4864,167.585 180.2478,167.1869 179.9713,166.814 179.6596,166.4701 179.3156,166.1584 178.9428,165.8819 178.5447,165.6432 178.125,165.4448 177.688,165.2884 177.2377,165.1756 176.7786,165.1075 176.315,165.0847 175.8513,165.1075 175.3922,165.1756 174.9419,165.2884 174.5049,165.4448 174.0853,165.6432 173.6871,165.8819 173.3143,166.1584 172.9704,166.4701 172.6586,166.814 172.3821,167.1869 172.1435,167.585 171.945,168.0046 171.7887,168.4416 171.6759,168.8919 171.6078,169.3511 171.585,169.8147 171.6078,170.2783 171.6759,170.7375 171.7887,171.1877 171.945,171.6248 172.1435,172.0444 172.3821,172.4425 172.6586,172.8154 172.9704,173.1593 173.3143,173.471 173.6871,173.7475 174.0853,173.9862 174.5049,174.1846 174.9419,174.341 175.3922,174.4538 175.8513,174.5219 176.315,174.5447 176.7786,174.5219 177.2377,174.4538 177.688,174.341 178.125,174.1846 178.5447,173.9862"/>
    <polygon points="185.4238,159.0969 185.0257,159.3355 184.6529,159.612 184.3089,159.9238 183.9972,160.2677 183.7207,160.6405 183.4821,161.0387 183.2836,161.4583 183.1272,161.8953 183.0145,162.3456 182.9463,162.8047 182.9236,163.2684 182.9463,163.732 183.0145,164.1911 183.1272,164.6414 183.2836,165.0784 183.4821,165.498 183.7207,165.8962 183.9972,166.269 184.3089,166.613 184.6529,166.9247 185.0257,167.2012 185.4238,167.4398 185.8435,167.6383 186.2805,167.7947 186.7308,167.9074 187.1899,167.9756 187.6535,167.9983 188.1172,167.9756 188.5763,167.9074 189.0266,167.7947 189.4636,167.6383 189.8832,167.4398 190.2814,167.2012 190.6542,166.9247 190.9981,166.613 191.3099,166.269 191.5864,165.8962 191.825,165.498 192.0235,165.0784 192.1798,164.6414 192.2926,164.1911 192.3607,163.732 192.3835,163.2684 192.3607,162.8047 192.2926,162.3456 192.1798,161.8953 192.0235,161.4583 191.825,161.0387 191.5864,160.6405 191.3099,160.2677 190.9981,159.9238 190.6542,159.612 190.2814,159.3355 189.8832,159.0969 189.4636,158.8984 189.0266,158.7421 188.5763,158.6293 188.1172,158.5612 187.6535,158.5384 187.1899,158.5612 186.7308,158.6293 186.2805,158.7421 185.8435,158.8984"/>
    <polygon points="197.6979,173.5314 198.5867,174.1907 199.4066,174.9338 200.1498,175.7537 200.809,176.6426 201.3779,177.5917 201.851,178.5921 202.2238,179.634 202.4927,180.7075 202.6551,181.8021 202.7094,182.9074 202.6551,184.0126 202.4927,185.1073 202.2238,186.1807 201.851,187.2226 201.3779,188.223 200.809,189.1721 200.1498,190.061 199.4066,190.8809 198.5867,191.6241 197.6979,192.2833 196.7487,192.8522 195.7483,193.3253 194.7064,193.6981 193.633,193.967 192.5383,194.1294 191.4331,194.1837 190.3278,194.1294 189.2332,193.967 188.1597,193.6981 187.1178,193.3253 186.1175,192.8522 185.1683,192.2833 184.2795,191.6241 183.4595,190.8809 182.7164,190.061 182.0572,189.1721 181.4883,188.223 181.0151,187.2226 180.6423,186.1807 180.3734,185.1073 180.2111,184.0126 180.1568,182.9074 180.2111,181.8021 180.3734,180.7075 180.6423,179.634 181.0151,178.5921 181.4883,177.5917 182.0572,176.6426 182.7164,175.7537 183.4595,174.9338 184.2795,174.1907 185.1683,173.5314 186.1175,172.9625 187.1178,172.4894 188.1597,172.1166 189.2332,171.8477 190.3278,171.6853 191.4331,171.631 192.5383,171.6853 193.633,171.8477 194.7064,172.1166 195.7483,172.4894 196.7487,172.9625"/>
    <polygon points="212.5604,180.5325 212.1408,180.7309 211.7037,180.8873 211.2535,181.0001 210.7943,181.0682 210.3307,181.091 209.8671,181.0682 209.4079,181.0001 208.9577,180.8873 208.5206,180.7309 208.101,180.5325 207.7029,180.2939 207.33,180.0173 206.9861,179.7056 206.6744,179.3617 206.3979,178.9889 206.1592,178.5907 205.9608,178.1711 205.8044,177.7341 205.6916,177.2838 205.6235,176.8246 205.6007,176.361 205.6235,175.8974 205.6916,175.4383 205.8044,174.988 205.9608,174.5509 206.1592,174.1313 206.3979,173.7332 206.6744,173.3604 206.9861,173.0164 207.33,172.7047 207.7029,172.4282 208.101,172.1896 208.5206,171.9911 208.9577,171.8347 209.4079,171.7219 209.8671,171.6538 210.3307,171.631 210.7943,171.6538 211.2535,171.7219 211.7037,171.8347 212.1408,171.9911 212.5604,172.1896 212.9585,172.4282 213.3314,172.7047 213.6753,173.0164 213.987,173.3604 214.2635,173.7332 214.5022,174.1313 214.7006,174.5509 214.857,174.988 214.9698,175.4383 215.0379,175.8974 215.0607,176.361 215.0379,176.8246 214.9698,177.2838 214.857,177.7341 214.7006,178.1711 214.5022,178.5907 214.2635,178.9889 213.987,179.3617 213.6753,179.7056 213.3314,180.0173 212.9585,180.2939"/>
    <polygon points="210.3307,197.8164 210.7943,197.8392 211.2535,197.9073 211.7037,198.0201 212.1408,198.1764 212.5604,198.3749 212.9585,198.6135 213.3314,198.89 213.6753,199.2018 213.987,199.5457 214.2635,199.9185 214.5022,200.3167 214.7006,200.7363 214.857,201.1733 214.9698,201.6236 215.0379,202.0827 215.0607,202.5464 215.0379,203.01 214.9698,203.4691 214.857,203.9194 214.7006,204.3564 214.5022,204.7761 214.2635,205.1742 213.987,205.547 213.6753,205.891 213.3314,206.2027 212.9585,206.4792 212.5604,206.7178 212.1408,206.9163 211.7037,207.0727 211.2535,207.1854 210.7943,207.2536 210.3307,207.2763 209.8671,207.2536 209.4079,207.1854 208.9577,207.0727 208.5206,206.9163 208.101,206.7178 207.7029,206.4792 207.33,206.2027 206.9861,205.891 206.6744,205.547 206.3979,205.1742 206.1592,204.7761 205.9608,204.3564 205.8044,203.9194 205.6916,203.4691 205.6235,203.01 205.6007,202.5464 205.6235,202.0827 205.6916,201.6236 205.8044,201.1733 205.9608,200.7363 206.1592,200.3167 206.3979,199.9185 206.6744,199.5457 206.9861,199.2018 207.33,198.89 207.7029,198.6135 208.101,198.3749 208.5206,198.1764 208.9577,198.0201 209.4079,197.9073 209.8671,197.8392"/>
    <polygon points="236.3525,212.2944 236.6642,212.6384 236.9407,213.0112 237.1793,213.4093 237.3778,213.8289 237.5342,214.266 237.647,214.7163 237.7151,215.1754 237.7378,215.639 237.7151,216.1026 237.647,216.5618 237.5342,217.0121 237.3778,217.4491 237.1793,217.8687 236.9407,218.2669 236.6642,218.6397 236.3525,218.9836 236.0085,219.2953 235.6357,219.5719 235.2376,219.8105 234.818,220.0089 234.3809,220.1653 233.9306,220.2781 233.4715,220.3462 233.0079,220.369 232.5443,220.3462 232.0851,220.2781 231.6348,220.1653 231.1978,220.0089 230.7782,219.8105 230.38,219.5719 230.0072,219.2953 229.6633,218.9836 229.3516,218.6397 229.075,218.2669 228.8364,217.8687 228.6379,217.4491 228.4816,217.0121 228.3688,216.5618 228.3007,216.1026 228.2779,215.639 228.3007,215.1754 228.3688,214.7163 228.4816,214.266 228.6379,213.8289 228.8364,213.4093 229.075,213.0112 229.3516,212.6384 229.6633,212.2944 230.0072,211.9827 230.38,211.7062 230.7782,211.4676 231.1978,211.2691 231.6348,211.1127 232.0851,210.9999 232.5443,210.9318 233.0079,210.9091 233.4715,210.9318 233.9306,210.9999 234.3809,211.1127 234.818,211.2691 235.2376,211.4676 235.6357,211.7062 236.0085,211.9827"/>
    <polygon points="235.6821,224.056 236.7874,224.0017 237.8927,224.056 238.9873,224.2184 240.0607,224.4873 241.1027,224.8601 242.103,225.3332 243.0522,225.9021 243.941,226.5613 244.761,227.3045 245.5041,228.1244 246.1633,229.0132 246.7322,229.9624 247.2054,230.9628 247.5782,232.0047 247.847,233.0781 248.0094,234.1728 248.0637,235.278 248.0094,236.3833 247.847,237.4779 247.5782,238.5514 247.2054,239.5933 246.7322,240.5936 246.1633,241.5428 245.5041,242.4316 244.761,243.2516 243.941,243.9947 243.0522,244.6539 242.103,245.2228 241.1027,245.696 240.0607,246.0688 238.9873,246.3377 237.8927,246.5 236.7874,246.5543 235.6821,246.5 234.5875,246.3377 233.5141,246.0688 232.4721,245.696 231.4718,245.2228 230.5226,244.6539 229.6338,243.9947 228.8138,243.2516 228.0707,242.4316 227.4115,241.5428 226.8426,240.5936 226.3695,239.5933 225.9966,238.5514 225.7278,237.4779 225.5654,236.3833 225.5111,235.278 225.5654,234.1728 225.7278,233.0781 225.9966,232.0047 226.3695,230.9628 226.8426,229.9624 227.4115,229.0132 228.0707,228.1244 228.8138,227.3045 229.6338,226.5613 230.5226,225.9021 231.4718,225.3332 232.4721,224.8601 233.5141,224.4873 234.5875,224.2184"/>
    <polygon points="259.6179,226.1039 259.8565,226.502 260.055,226.9216 260.2113,227.3587 260.3241,227.8089 260.3922,228.2681 260.415,228.7317 260.3922,229.1953 260.3241,229.6545 260.2113,230.1047 260.055,230.5418 259.8565,230.9614 259.6179,231.3595 259.3414,231.7324 259.0296,232.0763 258.6857,232.388 258.3129,232.6645 257.9147,232.9032 257.4951,233.1016 257.0581,233.258 256.6078,233.3708 256.1487,233.4389 255.685,233.4617 255.2214,233.4389 254.7623,233.3708 254.312,233.258 253.875,233.1016 253.4553,232.9032 253.0572,232.6645 252.6844,232.388 252.3404,232.0763 252.0287,231.7324 251.7522,231.3595 251.5136,230.9614 251.3151,230.5418 251.1587,230.1047 251.046,229.6545 250.9778,229.1953 250.9551,228.7317 250.9778,228.2681 251.046,227.8089 251.1587,227.3587 251.3151,226.9216 251.5136,226.502 251.7522,226.1039 252.0287,225.731 252.3404,225.3871 252.6844,225.0754 253.0572,224.7989 253.4553,224.5602 253.875,224.3618 254.312,224.2054 254.7623,224.0926 255.2214,224.0245 255.685,224.0017 256.1487,224.0245 256.6078,224.0926 257.0581,224.2054 257.4951,224.3618 257.9147,224.5602 258.3129,224.7989 258.6857,225.0754 259.0296,225.3871 259.3414,225.731"/>
    <polygon points="273.7231,253.9943 273.8359,253.544 273.9923,253.1069 274.1907,252.6873 274.4294,252.2892 274.7059,251.9164 275.0176,251.5724 275.3615,251.2607 275.7344,250.9842 276.1325,250.7456 276.5521,250.5471 276.9892,250.3907 277.4394,250.2779 277.8986,250.2098 278.3622,250.1871 278.8258,250.2098 279.285,250.2779 279.7352,250.3907 280.1723,250.5471 280.5919,250.7456 280.99,250.9842 281.3629,251.2607 281.7068,251.5724 282.0185,251.9164 282.295,252.2892 282.5337,252.6873 282.7321,253.1069 282.8885,253.544 283.0013,253.9943 283.0694,254.4534 283.0922,254.917 283.0694,255.3806 283.0013,255.8398 282.8885,256.2901 282.7321,256.7271 282.5337,257.1467 282.295,257.5449 282.0185,257.9177 281.7068,258.2616 281.3629,258.5733 280.99,258.8499 280.5919,259.0885 280.1723,259.287 279.7352,259.4433 279.285,259.5561 278.8258,259.6242 278.3622,259.647 277.8986,259.6242 277.4394,259.5561 276.9892,259.4433 276.5521,259.287 276.1325,259.0885 275.7344,258.8499 275.3615,258.5733 275.0176,258.2616 274.7059,257.9177 274.4294,257.5449 274.1907,257.1467 273.9923,256.7271 273.8359,256.2901 273.7231,255.8398 273.655,255.3806 273.6322,254.917 273.655,254.4534"/>
    <polygon points="280.1723,272.3796 279.7352,272.536 279.285,272.6488 278.8258,272.7169 278.3622,272.7397 277.8986,272.7169 277.4394,272.6488 276.9892,272.536 276.5521,272.3796 276.1325,272.1812 275.7344,271.9425 275.3615,271.666 275.0176,271.3543 274.7059,271.0104 274.4294,270.6375 274.1907,270.2394 273.9923,269.8198 273.8359,269.3827 273.7231,268.9325 273.655,268.4733 273.6322,268.0097 273.655,267.5461 273.7231,267.0869 273.8359,266.6367 273.9923,266.1996 274.1907,265.78 274.4294,265.3819 274.7059,265.009 275.0176,264.6651 275.3615,264.3534 275.7344,264.0769 276.1325,263.8382 276.5521,263.6398 276.9892,263.4834 277.4394,263.3706 277.8986,263.3025 278.3622,263.2797 278.8258,263.3025 279.285,263.3706 279.7352,263.4834 280.1723,263.6398 280.5919,263.8382 280.99,264.0769 281.3629,264.3534 281.7068,264.6651 282.0185,265.009 282.295,265.3819 282.5337,265.78 282.7321,266.1996 282.8885,266.6367 283.0013,267.0869 283.0694,267.5461 283.0922,268.0097 283.0694,268.4733 283.0013,268.9325 282.8885,269.3827 282.7321,269.8198 282.5337,270.2394 282.295,270.6375 282.0185,271.0104 281.7068,271.3543 281.3629,271.666 280.99,271.9425 280.5919,272.1812"/>
    <polygon points="280.99,285.0352 280.5919,285.2738 280.1723,285.4723 279.7352,285.6287 279.285,285.7414 278.8258,285.8096 278.3622,285.8323 277.8986,285.8096 277.4394,285.7414 276.9892,285.6287 276.5521,285.4723 276.1325,285.2738 275.7344,285.0352 275.3615,284.7587 275.0176,284.447 274.7059,284.103 274.4294,283.7302 274.1907,283.3321 273.9923,282.9124 273.8359,282.4754 273.7231,282.0251 273.655,281.566 273.6322,281.1024 273.655,280.6387 273.7231,280.1796 273.8359,279.7293 273.9923,279.2923 274.1907,278.8727 274.4294,278.4745 274.7059,278.1017 275.0176,277.7578 275.3615,277.446 275.7344,277.1695 276.1325,276.9309 276.5521,276.7324 276.9892,276.5761 277.4394,276.4633 277.8986,276.3952 278.3622,276.3724 278.8258,276.3952 279.285,276.4633 279.7352,276.5761 280.1723,276.7324 280.5919,276.9309 280.99,277.1695 281.3629,277.446 281.7068,277.7578 282.0185,278.1017 282.295,278.4745 282.5337,278.8727 282.7321,279.2923 282.8885,279.7293 283.0013,280.1796 283.0694,280.6387 283.0922,281.1024 283.0694,281.566 283.0013,282.0251 282.8885,282.4754 282.7321,282.9124 282.5337,283.3321 282.295,283.7302 282.0185,284.103 281.7068,284.447 281.3629,284.7587"/>
    <polygon points="292.3286,296.8085 292.7015,297.085 293.0454,297.3968 293.3571,297.7407 293.6336,298.1135 293.8723,298.5117 294.0707,298.9313 294.2271,299.3683 294.3399,299.8186 294.408,300.2777 294.4308,300.7414 294.408,301.205 294.3399,301.6641 294.2271,302.1144 294.0707,302.5514 293.8723,302.9711 293.6336,303.3692 293.3571,303.742 293.0454,304.086 292.7015,304.3977 292.3286,304.6742 291.9305,304.9128 291.5109,305.1113 291.0738,305.2677 290.6236,305.3805 290.1644,305.4486 289.7008,305.4713 289.2372,305.4486 288.778,305.3805 288.3277,305.2677 287.8907,305.1113 287.4711,304.9128 287.073,304.6742 286.7001,304.3977 286.3562,304.086 286.0445,303.742 285.768,303.3692 285.5293,302.9711 285.3309,302.5514 285.1745,302.1144 285.0617,301.6641 284.9936,301.205 284.9708,300.7414 284.9936,300.2777 285.0617,299.8186 285.1745,299.3683 285.3309,298.9313 285.5293,298.5117 285.768,298.1135 286.0445,297.7407 286.3562,297.3968 286.7001,297.085 287.073,296.8085 287.4711,296.5699 287.8907,296.3714 288.3277,296.2151 288.778,296.1023 289.2372,296.0342 289.7008,296.0114 290.1644,296.0342 290.6236,296.1023 291.0738,296.2151 291.5109,296.3714 291.9305,296.5699"/>
    <polygon points="274.4294,309.9155 274.1907,309.5174 273.9923,309.0978 273.8359,308.6607 273.7231,308.2105 273.655,307.7513 273.6322,307.2877 273.655,306.8241 273.7231,306.3649 273.8359,305.9147 273.9923,305.4776 274.1907,305.058 274.4294,304.6599 274.7059,304.287 275.0176,303.9431 275.3615,303.6314 275.7344,303.3549 276.1325,303.1162 276.5521,302.9178 276.9892,302.7614 277.4394,302.6486 277.8986,302.5805 278.3622,302.5577 278.8258,302.5805 279.285,302.6486 279.7352,302.7614 280.1723,302.9178 280.5919,303.1162 280.99,303.3549 281.3629,303.6314 281.7068,303.9431 282.0185,304.287 282.295,304.6599 282.5337,305.058 282.7321,305.4776 282.8885,305.9147 283.0013,306.3649 283.0694,306.8241 283.0922,307.2877 283.0694,307.7513 283.0013,308.2105 282.8885,308.6607 282.7321,309.0978 282.5337,309.5174 282.295,309.9155 282.0185,310.2884 281.7068,310.6323 281.3629,310.944 280.99,311.2205 280.5919,311.4592 280.1723,311.6576 279.7352,311.814 279.285,311.9268 278.8258,311.9949 278.3622,312.0177 277.8986,311.9949 277.4394,311.9268 276.9892,311.814 276.5521,311.6576 276.1325,311.4592 275.7344,311.2205 275.3615,310.944 275.0176,310.6323 274.7059,310.2884"/>
    <polygon points="251.3151,318.5703 251.1587,319.0073 251.046,319.4576 250.9778,319.9167 250.9551,320.3804 250.9778,320.844 251.046,321.3031 251.1587,321.7534 251.3151,322.1904 251.5136,322.6101 251.7522,323.0082 252.0287,323.381 252.3404,323.725 252.6844,324.0367 253.0572,324.3132 253.4553,324.5518 253.875,324.7503 254.312,324.9067 254.7623,325.0195 255.2214,325.0876 255.685,325.1103 256.1487,325.0876 256.6078,325.0195 257.0581,324.9067 257.4951,324.7503 257.9147,324.5518 258.3129,324.3132 258.6857,324.0367 259.0296,323.725 259.3414,323.381 259.6179,323.0082 259.8565,322.6101 260.055,322.1904 260.2113,321.7534 260.3241,321.3031 260.3922,320.844 260.415,320.3804 260.3922,319.9167 260.3241,319.4576 260.2113,319.0073 260.055,318.5703 259.8565,318.1507 259.6179,317.7525 259.3414,317.3797 259.0296,317.0358 258.6857,316.724 258.3129,316.4475 257.9147,316.2089 257.4951,316.0104 257.0581,315.8541 256.6078,315.7413 256.1487,315.6732 255.685,315.6504 255.2214,315.6732 254.7623,315.7413 254.312,315.8541 253.875,316.0104 253.4553,316.2089 253.0572,316.4475 252.6844,316.724 252.3404,317.0358 252.0287,317.3797 251.7522,317.7525 251.5136,318.1507"/>
    <polygon points="245.7195,322.4004 245.2692,322.2876 244.8101,322.2195 244.3465,322.1967 243.8828,322.2195 243.4237,322.2876 242.9734,322.4004 242.5364,322.5568 242.1168,322.7552 241.7186,322.9939 241.3458,323.2704 241.0019,323.5821 240.6901,323.926 240.4136,324.2989 240.175,324.697 239.9765,325.1166 239.8202,325.5537 239.7074,326.0039 239.6393,326.4631 239.6165,326.9267 239.6393,327.3903 239.7074,327.8495 239.8202,328.2997 239.9765,328.7368 240.175,329.1564 240.4136,329.5545 240.6901,329.9274 241.0019,330.2713 241.3458,330.583 241.7186,330.8595 242.1168,331.0982 242.5364,331.2966 242.9734,331.453 243.4237,331.5658 243.8828,331.6339 244.3465,331.6567 244.8101,331.6339 245.2692,331.5658 245.7195,331.453 246.1565,331.2966 246.5762,331.0982 246.9743,330.8595 247.3471,330.583 247.6911,330.2713 248.0028,329.9274 248.2793,329.5545 248.5179,329.1564 248.7164,328.7368 248.8728,328.2997 248.9855,327.8495 249.0537,327.3903 249.0764,326.9267 249.0537,326.4631 248.9855,326.0039 248.8728,325.5537 248.7164,325.1166 248.5179,324.697 248.2793,324.2989 248.0028,323.926 247.6911,323.5821 247.3471,323.2704 246.9743,322.9939 246.5762,322.7552 246.1565,322.5568"/>
    <polygon points="248.2426,301.8466 248.1883,300.7414 248.2426,299.6361 248.4049,298.5415 248.6738,297.468 249.0466,296.4261 249.5198,295.4257 250.0887,294.4766 250.7479,293.5878 251.491,292.7678 252.311,292.0247 253.1998,291.3655 254.149,290.7965 255.1493,290.3234 256.1912,289.9506 257.2647,289.6817 258.3593,289.5194 259.4646,289.4651 260.5698,289.5194 261.6645,289.6817 262.7379,289.9506 263.7798,290.3234 264.7802,290.7965 265.7293,291.3655 266.6182,292.0247 267.4381,292.7678 268.1813,293.5878 268.8405,294.4766 269.4094,295.4257 269.8825,296.4261 270.2553,297.468 270.5242,298.5415 270.6866,299.6361 270.7409,300.7414 270.6866,301.8466 270.5242,302.9413 270.2553,304.0147 269.8825,305.0566 269.4094,306.057 268.8405,307.0061 268.1813,307.895 267.4381,308.7149 266.6182,309.4581 265.7293,310.1173 264.7802,310.6862 263.7798,311.1593 262.7379,311.5321 261.6645,311.801 260.5698,311.9634 259.4646,312.0177 258.3593,311.9634 257.2647,311.801 256.1912,311.5321 255.1493,311.1593 254.149,310.6862 253.1998,310.1173 252.311,309.4581 251.491,308.7149 250.7479,307.895 250.0887,307.0061 249.5198,306.057 249.0466,305.0566 248.6738,304.0147 248.4049,302.9413"/>
    <polygon points="243.1608,299.1362 241.9314,301.1874 240.5068,303.1082 238.9008,304.8802 237.1288,306.4862 235.208,307.9108 233.1567,309.1402 230.9949,310.1627 228.7432,310.9684 226.4234,311.5494 224.0579,311.9003 221.6693,312.0177 219.2807,311.9003 216.9151,311.5494 214.5954,310.9684 212.3437,310.1627 210.1818,309.1402 208.1306,307.9108 206.2098,306.4862 204.4378,304.8802 202.8318,303.1082 201.4072,301.1874 200.1778,299.1362 199.1553,296.9743 198.3496,294.7226 197.7686,292.4028 197.4177,290.0373 197.3003,287.6487 197.4177,285.2601 197.7686,282.8945 198.3496,280.5748 199.1553,278.3231 200.1778,276.1612 201.4072,274.11 202.8318,272.1892 204.4378,270.4172 206.2098,268.8112 208.1306,267.3866 210.1818,266.1572 212.3437,265.1347 214.5954,264.329 216.9151,263.748 219.2807,263.3971 221.6693,263.2797 224.0579,263.3971 226.4234,263.748 228.7432,264.329 230.9949,265.1347 233.1567,266.1572 235.208,267.3866 237.1288,268.8112 238.9008,270.4172 240.5068,272.1892 241.9314,274.11 243.1608,276.1612 244.1833,278.3231 244.9889,280.5748 245.57,282.8945 245.9209,285.2601 246.0383,287.6487 245.9209,290.0373 245.57,292.4028 244.9889,294.7226 244.1833,296.9743"/>
    <polygon points="249.5198,279.8716 250.0887,280.8208 250.7479,281.7096 251.491,282.5296 252.311,283.2727 253.1998,283.9319 254.149,284.5008 255.1493,284.974 256.1912,285.3468 257.2647,285.6157 258.3593,285.778 259.4646,285.8323 260.5698,285.778 261.6645,285.6157 262.7379,285.3468 263.7798,284.974 264.7802,284.5008 265.7293,283.9319 266.6182,283.2727 267.4381,282.5296 268.1813,281.7096 268.8405,280.8208 269.4094,279.8716 269.8825,278.8713 270.2553,277.8294 270.5242,276.7559 270.6866,275.6613 270.7409,274.556 270.6866,273.4508 270.5242,272.3561 270.2553,271.2827 269.8825,270.2408 269.4094,269.2404 268.8405,268.2912 268.1813,267.4024 267.4381,266.5825 266.6182,265.8393 265.7293,265.1801 264.7802,264.6112 263.7798,264.1381 262.7379,263.7653 261.6645,263.4964 260.5698,263.334 259.4646,263.2797 258.3593,263.334 257.2647,263.4964 256.1912,263.7653 255.1493,264.1381 254.149,264.6112 253.1998,265.1801 252.311,265.8393 251.491,266.5825 250.7479,267.4024 250.0887,268.2912 249.5198,269.2404 249.0466,270.2408 248.6738,271.2827 248.4049,272.3561 248.2426,273.4508 248.1883,274.556 248.2426,275.6613 248.4049,276.7559 248.6738,277.8294 249.0466,278.8713"/>
  </g>
</svg>
