<?xml version="1.0" encoding="utf-8" ?>
<svg xmlns="http://www.w3.org/2000/svg" xmlns:cc="http://creativecommons.org/ns" xmlns:dc="http://purl.org/dc/elements/1.1/" xmlns:ev="http://www.w3.org/2001/xml-events" xmlns:inkscape="http://www.inkscape.org/namespaces/inkscape" xmlns:rdf="http://www.w3.org/1999/02/22-rdf-syntax-ns" xmlns:sodipodi="http://sodipodi.sourceforge.net/DTD/sodipodi-0.dtd" xmlns:xlink="http://www.w3.org/1999/xlink" baseProfile="tiny" height="15.875cm" version="1.2" viewBox="0 0 432.0 600.0" width="11.43cm">
  <metadata>
    <rdf:RDF>
      <cc:Work>
        <dc:format>image/svg+xml</dc:format>
        <dc:source>vsk save -s 299 -c hex-grid/config/bubble-coasters-2.json /Users/tobin/src/fabian/plotting/fabian-plotting/hex-grid/sketch_hex_grid.py</dc:source>
        <dc:date>2023-11-11T11:30:24.197452</dc:date>
      </cc:Work>
    </rdf:RDF>
  </metadata>
  <defs/>
  <g fill="none" id="layer1" inkscape:groupmode="layer" inkscape:label="1" stroke="#000000" stroke-width="0.7559" style="display:inline">
    <polygon points="300.1001,340.0194 300.0773,340.483 300.0092,340.9421 299.8964,341.3924 299.74,341.8294 299.5415,342.2491 299.3029,342.6472 299.0264,343.02 298.7147,343.364 298.3707,343.6757 297.9979,343.9522 297.5998,344.1908 297.1802,344.3893 296.7431,344.5457 296.2929,344.6585 295.8337,344.7266 295.3701,344.7493 294.9065,344.7266 294.4473,344.6585 293.997,344.5457 293.56,344.3893 293.1404,344.1908 292.7422,343.9522 292.3694,343.6757 292.0255,343.364 291.7138,343.02 291.4373,342.6472 291.1986,342.2491 291.0002,341.8294 290.8438,341.3924 290.731,340.9421 290.6629,340.483 290.6401,340.0194 290.6629,339.5557 290.731,339.0966 290.8438,338.6463 291.0002,338.2093 291.1986,337.7897 291.4373,337.3915 291.7138,337.0187 292.0255,336.6748 292.3694,336.363 292.7422,336.0865 293.1404,335.8479 293.56,335.6494 293.997,335.4931 294.4473,335.3803 294.9065,335.3122 295.3701,335.2894 295.8337,335.3122 296.2929,335.3803 296.7431,335.4931 297.1802,335.6494 297.5998,335.8479 297.9979,336.0865 298.3707,336.363 298.7147,336.6748 299.0264,337.0187 299.3029,337.3915 299.5415,337.7897 299.74,338.2093 299.8964,338.6463 300.0092,339.0966 300.0773,339.5557"/>
    <polygon points="291.1986,324.697 291.4373,324.2989 291.7138,323.926 292.0255,323.5821 292.3694,323.2704 292.7422,322.9939 293.1404,322.7552 293.56,322.5568 293.997,322.4004 294.4473,322.2876 294.9065,322.2195 295.3701,322.1967 295.8337,322.2195 296.2929,322.2876 296.7431,322.4004 297.1802,322.5568 297.5998,322.7552 297.9979,322.9939 298.3707,323.2704 298.7147,323.5821 299.0264,323.926 299.3029,324.2989 299.5415,324.697 299.74,325.1166 299.8964,325.5537 300.0092,326.0039 300.0773,326.4631 300.1001,326.9267 300.0773,327.3903 300.0092,327.8495 299.8964,328.2997 299.74,328.7368 299.5415,329.1564 299.3029,329.5545 299.0264,329.9274 298.7147,330.2713 298.3707,330.583 297.9979,330.8595 297.5998,331.0982 297.1802,331.2966 296.7431,331.453 296.2929,331.5658 295.8337,331.6339 295.3701,331.6567 294.9065,331.6339 294.4473,331.5658 293.997,331.453 293.56,331.2966 293.1404,331.0982 292.7422,330.8595 292.3694,330.583 292.0255,330.2713 291.7138,329.9274 291.4373,329.5545 291.1986,329.1564 291.0002,328.7368 290.8438,328.2997 290.731,327.8495 290.6629,327.3903 290.6401,326.9267 290.6629,326.4631 290.731,326.0039 290.8438,325.5537 291.0002,325.1166"/>
    <polygon points="260.9489,342.1897 260.0601,342.8489 259.1109,343.4178 258.1105,343.891 257.0686,344.2638 255.9952,344.5327 254.9005,344.695 253.7953,344.7493 252.69,344.695 251.5954,344.5327 250.5219,344.2638 249.48,343.891 248.4797,343.4178 247.5305,342.8489 246.6417,342.1897 245.8217,341.4466 245.0786,340.6266 244.4194,339.7378 243.8505,338.7886 243.3773,337.7883 243.0045,336.7464 242.7356,335.6729 242.5733,334.5783 242.519,333.473 242.5733,332.3678 242.7356,331.2731 243.0045,330.1997 243.3773,329.1578 243.8505,328.1574 244.4194,327.2083 245.0786,326.3194 245.8217,325.4995 246.6417,324.7563 247.5305,324.0971 248.4797,323.5282 249.48,323.0551 250.5219,322.6823 251.5954,322.4134 252.69,322.251 253.7953,322.1967 254.9005,322.251 255.9952,322.4134 257.0686,322.6823 258.1105,323.0551 259.1109,323.5282 260.0601,324.0971 260.9489,324.7563 261.7688,325.4995 262.512,326.3194 263.1712,327.2083 263.7401,328.1574 264.2132,329.1578 264.586,330.1997 264.8549,331.2731 265.0173,332.3678 265.0716,333.473 265.0173,334.5783 264.8549,335.6729 264.586,336.7464 264.2132,337.7883 263.7401,338.7886 263.1712,339.7378 262.512,340.6266 261.7688,341.4466"/>
    <polygon points="251.3888,348.5857 251.8258,348.7421 252.2454,348.9406 252.6436,349.1792 253.0164,349.4557 253.3603,349.7674 253.6721,350.1114 253.9486,350.4842 254.1872,350.8823 254.3857,351.302 254.542,351.739 254.6548,352.1893 254.7229,352.6484 254.7457,353.112 254.7229,353.5757 254.6548,354.0348 254.542,354.4851 254.3857,354.9221 254.1872,355.3417 253.9486,355.7399 253.6721,356.1127 253.3603,356.4566 253.0164,356.7684 252.6436,357.0449 252.2454,357.2835 251.8258,357.482 251.3888,357.6383 250.9385,357.7511 250.4794,357.8192 250.0157,357.842 249.5521,357.8192 249.093,357.7511 248.6427,357.6383 248.2057,357.482 247.7861,357.2835 247.3879,357.0449 247.0151,356.7684 246.6712,356.4566 246.3594,356.1127 246.0829,355.7399 245.8443,355.3417 245.6458,354.9221 245.4894,354.4851 245.3767,354.0348 245.3086,353.5757 245.2858,353.112 245.3086,352.6484 245.3767,352.1893 245.4894,351.739 245.6458,351.302 245.8443,350.8823 246.0829,350.4842 246.3594,350.1114 246.6712,349.7674 247.0151,349.4557 247.3879,349.1792 247.7861,348.9406 248.2057,348.7421 248.6427,348.5857 249.093,348.4729 249.5521,348.4048 250.0157,348.3821 250.4794,348.4048 250.9385,348.4729"/>
    <polygon points="242.8486,357.4287 243.0471,357.8483 243.2035,358.2853 243.3163,358.7356 243.3844,359.1947 243.4071,359.6584 243.3844,360.122 243.3163,360.5811 243.2035,361.0314 243.0471,361.4684 242.8486,361.8881 242.61,362.2862 242.3335,362.659 242.0218,363.003 241.6778,363.3147 241.305,363.5912 240.9069,363.8298 240.4872,364.0283 240.0502,364.1847 239.5999,364.2975 239.1408,364.3656 238.6772,364.3883 238.2135,364.3656 237.7544,364.2975 237.3041,364.1847 236.8671,364.0283 236.4475,363.8298 236.0493,363.5912 235.6765,363.3147 235.3326,363.003 235.0208,362.659 234.7443,362.2862 234.5057,361.8881 234.3072,361.4684 234.1509,361.0314 234.0381,360.5811 233.97,360.122 233.9472,359.6584 233.97,359.1947 234.0381,358.7356 234.1509,358.2853 234.3072,357.8483 234.5057,357.4287 234.7443,357.0305 235.0208,356.6577 235.3326,356.3138 235.6765,356.002 236.0493,355.7255 236.4475,355.4869 236.8671,355.2884 237.3041,355.1321 237.7544,355.0193 238.2135,354.9512 238.6772,354.9284 239.1408,354.9512 239.5999,355.0193 240.0502,355.1321 240.4872,355.2884 240.9069,355.4869 241.305,355.7255 241.6778,356.002 242.0218,356.3138 242.3335,356.6577 242.61,357.0305"/>
    <polygon points="241.6778,350.222 241.305,350.4985 240.9069,350.7372 240.4872,350.9356 240.0502,351.092 239.5999,351.2048 239.1408,351.2729 238.6772,351.2957 238.2135,351.2729 237.7544,351.2048 237.3041,351.092 236.8671,350.9356 236.4475,350.7372 236.0493,350.4985 235.6765,350.222 235.3326,349.9103 235.0208,349.5664 234.7443,349.1935 234.5057,348.7954 234.3072,348.3758 234.1509,347.9387 234.0381,347.4885 233.97,347.0293 233.9472,346.5657 233.97,346.1021 234.0381,345.6429 234.1509,345.1927 234.3072,344.7556 234.5057,344.336 234.7443,343.9379 235.0208,343.565 235.3326,343.2211 235.6765,342.9094 236.0493,342.6329 236.4475,342.3942 236.8671,342.1958 237.3041,342.0394 237.7544,341.9266 238.2135,341.8585 238.6772,341.8357 239.1408,341.8585 239.5999,341.9266 240.0502,342.0394 240.4872,342.1958 240.9069,342.3942 241.305,342.6329 241.6778,342.9094 242.0218,343.2211 242.3335,343.565 242.61,343.9379 242.8486,344.336 243.0471,344.7556 243.2035,345.1927 243.3163,345.6429 243.3844,346.1021 243.4071,346.5657 243.3844,347.0293 243.3163,347.4885 243.2035,347.9387 243.0471,348.3758 242.8486,348.7954 242.61,349.1935 242.3335,349.5664 242.0218,349.9103"/>
    <polygon points="227.8022,331.6339 227.3386,331.6567 226.875,331.6339 226.4158,331.5658 225.9655,331.453 225.5285,331.2966 225.1089,331.0982 224.7108,330.8595 224.3379,330.583 223.994,330.2713 223.6823,329.9274 223.4058,329.5545 223.1671,329.1564 222.9687,328.7368 222.8123,328.2997 222.6995,327.8495 222.6314,327.3903 222.6086,326.9267 222.6314,326.4631 222.6995,326.0039 222.8123,325.5537 222.9687,325.1166 223.1671,324.697 223.4058,324.2989 223.6823,323.926 223.994,323.5821 224.3379,323.2704 224.7108,322.9939 225.1089,322.7552 225.5285,322.5568 225.9655,322.4004 226.4158,322.2876 226.875,322.2195 227.3386,322.1967 227.8022,322.2195 228.2614,322.2876 228.7116,322.4004 229.1487,322.5568 229.5683,322.7552 229.9664,322.9939 230.3392,323.2704 230.6832,323.5821 230.9949,323.926 231.2714,324.2989 231.51,324.697 231.7085,325.1166 231.8649,325.5537 231.9777,326.0039 232.0458,326.4631 232.0686,326.9267 232.0458,327.3903 231.9777,327.8495 231.8649,328.2997 231.7085,328.7368 231.51,329.1564 231.2714,329.5545 230.9949,329.9274 230.6832,330.2713 230.3392,330.583 229.9664,330.8595 229.5683,331.0982 229.1487,331.2966 228.7116,331.453 228.2614,331.5658"/>
    <polygon points="218.8589,302.9724 219.2317,304.0144 219.5006,305.0878 219.663,306.1824 219.7173,307.2877 219.663,308.393 219.5006,309.4876 219.2317,310.561 218.8589,311.603 218.3858,312.6033 217.8169,313.5525 217.1576,314.4413 216.4145,315.2612 215.5946,316.0044 214.7057,316.6636 213.7566,317.2325 212.7562,317.7056 211.7143,318.0784 210.6408,318.3473 209.5462,318.5097 208.4409,318.564 207.3357,318.5097 206.241,318.3473 205.1676,318.0784 204.1257,317.7056 203.1253,317.2325 202.1762,316.6636 201.2873,316.0044 200.4674,315.2612 199.7242,314.4413 199.065,313.5525 198.4961,312.6033 198.023,311.603 197.6502,310.561 197.3813,309.4876 197.2189,308.393 197.1646,307.2877 197.2189,306.1824 197.3813,305.0878 197.6502,304.0144 198.023,302.9724 198.4961,301.9721 199.065,301.0229 199.7242,300.1341 200.4674,299.3141 201.2873,298.571 202.1762,297.9118 203.1253,297.3429 204.1257,296.8697 205.1676,296.4969 206.241,296.2281 207.3357,296.0657 208.4409,296.0114 209.5462,296.0657 210.6408,296.2281 211.7143,296.4969 212.7562,296.8697 213.7566,297.3429 214.7057,297.9118 215.5946,298.571 216.4145,299.3141 217.1576,300.1341 217.8169,301.0229 218.3858,301.9721"/>
    <polygon points="243.3773,302.9724 243.8505,301.9721 244.4194,301.0229 245.0786,300.1341 245.8217,299.3141 246.6417,298.571 247.5305,297.9118 248.4797,297.3429 249.48,296.8697 250.5219,296.4969 251.5954,296.2281 252.69,296.0657 253.7953,296.0114 254.9005,296.0657 255.9952,296.2281 257.0686,296.4969 258.1105,296.8697 259.1109,297.3429 260.0601,297.9118 260.9489,298.571 261.7688,299.3141 262.512,300.1341 263.1712,301.0229 263.7401,301.9721 264.2132,302.9724 264.586,304.0144 264.8549,305.0878 265.0173,306.1824 265.0716,307.2877 265.0173,308.393 264.8549,309.4876 264.586,310.561 264.2132,311.603 263.7401,312.6033 263.1712,313.5525 262.512,314.4413 261.7688,315.2612 260.9489,316.0044 260.0601,316.6636 259.1109,317.2325 258.1105,317.7056 257.0686,318.0784 255.9952,318.3473 254.9005,318.5097 253.7953,318.564 252.69,318.5097 251.5954,318.3473 250.5219,318.0784 249.48,317.7056 248.4797,317.2325 247.5305,316.6636 246.6417,316.0044 245.8217,315.2612 245.0786,314.4413 244.4194,313.5525 243.8505,312.6033 243.3773,311.603 243.0045,310.561 242.7356,309.4876 242.5733,308.393 242.519,307.2877 242.5733,306.1824 242.7356,305.0878 243.0045,304.0144"/>
    <polygon points="243.3163,319.4576 243.3844,319.9167 243.4071,320.3804 243.3844,320.844 243.3163,321.3031 243.2035,321.7534 243.0471,322.1904 242.8486,322.6101 242.61,323.0082 242.3335,323.381 242.0218,323.725 241.6778,324.0367 241.305,324.3132 240.9069,324.5518 240.4872,324.7503 240.0502,324.9067 239.5999,325.0195 239.1408,325.0876 238.6772,325.1103 238.2135,325.0876 237.7544,325.0195 237.3041,324.9067 236.8671,324.7503 236.4475,324.5518 236.0493,324.3132 235.6765,324.0367 235.3326,323.725 235.0208,323.381 234.7443,323.0082 234.5057,322.6101 234.3072,322.1904 234.1509,321.7534 234.0381,321.3031 233.97,320.844 233.9472,320.3804 233.97,319.9167 234.0381,319.4576 234.1509,319.0073 234.3072,318.5703 234.5057,318.1507 234.7443,317.7525 235.0208,317.3797 235.3326,317.0358 235.6765,316.724 236.0493,316.4475 236.4475,316.2089 236.8671,316.0104 237.3041,315.8541 237.7544,315.7413 238.2135,315.6732 238.6772,315.6504 239.1408,315.6732 239.5999,315.7413 240.0502,315.8541 240.4872,316.0104 240.9069,316.2089 241.305,316.4475 241.6778,316.724 242.0218,317.0358 242.3335,317.3797 242.61,317.7525 242.8486,318.1507 243.0471,318.5703 243.2035,319.0073"/>
    <polygon points="267.0965,314.1156 267.7557,313.2268 268.4989,312.4068 269.3188,311.6637 270.2077,311.0045 271.1568,310.4356 272.1572,309.9624 273.1991,309.5896 274.2725,309.3207 275.3672,309.1584 276.4724,309.1041 277.5777,309.1584 278.6723,309.3207 279.7458,309.5896 280.7877,309.9624 281.7881,310.4356 282.7372,311.0045 283.6261,311.6637 284.446,312.4068 285.1891,313.2268 285.8483,314.1156 286.4173,315.0648 286.8904,316.0651 287.2632,317.107 287.5321,318.1805 287.6944,319.2751 287.7487,320.3804 287.6944,321.4856 287.5321,322.5803 287.2632,323.6537 286.8904,324.6956 286.4173,325.696 285.8483,326.6451 285.1891,327.534 284.446,328.3539 283.6261,329.0971 282.7372,329.7563 281.7881,330.3252 280.7877,330.7983 279.7458,331.1711 278.6723,331.44 277.5777,331.6024 276.4724,331.6567 275.3672,331.6024 274.2725,331.44 273.1991,331.1711 272.1572,330.7983 271.1568,330.3252 270.2077,329.7563 269.3188,329.0971 268.4989,328.3539 267.7557,327.534 267.0965,326.6451 266.5276,325.696 266.0545,324.6956 265.6817,323.6537 265.4128,322.5803 265.2504,321.4856 265.1961,320.3804 265.2504,319.2751 265.4128,318.1805 265.6817,317.107 266.0545,316.0651 266.5276,315.0648"/>
    <polygon points="269.0366,290.6494 268.7601,290.2765 268.5214,289.8784 268.323,289.4588 268.1666,289.0217 268.0538,288.5715 267.9857,288.1123 267.9629,287.6487 267.9857,287.1851 268.0538,286.7259 268.1666,286.2757 268.323,285.8386 268.5214,285.419 268.7601,285.0209 269.0366,284.648 269.3483,284.3041 269.6923,283.9924 270.0651,283.7159 270.4632,283.4772 270.8828,283.2788 271.3199,283.1224 271.7701,283.0096 272.2293,282.9415 272.6929,282.9187 273.1565,282.9415 273.6157,283.0096 274.066,283.1224 274.503,283.2788 274.9226,283.4772 275.3207,283.7159 275.6936,283.9924 276.0375,284.3041 276.3492,284.648 276.6257,285.0209 276.8644,285.419 277.0628,285.8386 277.2192,286.2757 277.332,286.7259 277.4001,287.1851 277.4229,287.6487 277.4001,288.1123 277.332,288.5715 277.2192,289.0217 277.0628,289.4588 276.8644,289.8784 276.6257,290.2765 276.3492,290.6494 276.0375,290.9933 275.6936,291.305 275.3207,291.5815 274.9226,291.8202 274.503,292.0186 274.066,292.175 273.6157,292.2878 273.1565,292.3559 272.6929,292.3787 272.2293,292.3559 271.7701,292.2878 271.3199,292.175 270.8828,292.0186 270.4632,291.8202 270.0651,291.5815 269.6923,291.305 269.3483,290.9933"/>
    <polygon points="254.9005,269.8804 253.7953,269.8261 252.69,269.8804 251.5954,270.0427 250.5219,270.3116 249.48,270.6844 248.4797,271.1575 247.5305,271.7265 246.6417,272.3857 245.8217,273.1288 245.0786,273.9487 244.4194,274.8376 243.8505,275.7867 243.3773,276.7871 243.0045,277.829 242.7356,278.9025 242.5733,279.9971 242.519,281.1024 242.5733,282.2076 242.7356,283.3023 243.0045,284.3757 243.3773,285.4176 243.8505,286.418 244.4194,287.3671 245.0786,288.256 245.8217,289.0759 246.6417,289.8191 247.5305,290.4783 248.4797,291.0472 249.48,291.5203 250.5219,291.8931 251.5954,292.162 252.69,292.3244 253.7953,292.3787 254.9005,292.3244 255.9952,292.162 257.0686,291.8931 258.1105,291.5203 259.1109,291.0472 260.0601,290.4783 260.9489,289.8191 261.7688,289.0759 262.512,288.256 263.1712,287.3671 263.7401,286.418 264.2132,285.4176 264.586,284.3757 264.8549,283.3023 265.0173,282.2076 265.0716,281.1024 265.0173,279.9971 264.8549,278.9025 264.586,277.829 264.2132,276.7871 263.7401,275.7867 263.1712,274.8376 262.512,273.9487 261.7688,273.1288 260.9489,272.3857 260.0601,271.7265 259.1109,271.1575 258.1105,270.6844 257.0686,270.3116 255.9952,270.0427"/>
    <polygon points="268.0538,260.5406 267.9857,260.9997 267.9629,261.4634 267.9857,261.927 268.0538,262.3861 268.1666,262.8364 268.323,263.2734 268.5214,263.6931 268.7601,264.0912 269.0366,264.464 269.3483,264.808 269.6923,265.1197 270.0651,265.3962 270.4632,265.6348 270.8828,265.8333 271.3199,265.9897 271.7701,266.1024 272.2293,266.1706 272.6929,266.1933 273.1565,266.1706 273.6157,266.1024 274.066,265.9897 274.503,265.8333 274.9226,265.6348 275.3207,265.3962 275.6936,265.1197 276.0375,264.808 276.3492,264.464 276.6257,264.0912 276.8644,263.6931 277.0628,263.2734 277.2192,262.8364 277.332,262.3861 277.4001,261.927 277.4229,261.4634 277.4001,260.9997 277.332,260.5406 277.2192,260.0903 277.0628,259.6533 276.8644,259.2337 276.6257,258.8355 276.3492,258.4627 276.0375,258.1188 275.6936,257.807 275.3207,257.5305 274.9226,257.2919 274.503,257.0934 274.066,256.9371 273.6157,256.8243 273.1565,256.7562 272.6929,256.7334 272.2293,256.7562 271.7701,256.8243 271.3199,256.9371 270.8828,257.0934 270.4632,257.2919 270.0651,257.5305 269.6923,257.807 269.3483,258.1188 269.0366,258.4627 268.7601,258.8355 268.5214,259.2337 268.323,259.6533 268.1666,260.0903"/>
    <polygon points="276.8644,246.141 276.6257,245.7429 276.3492,245.37 276.0375,245.0261 275.6936,244.7144 275.3207,244.4379 274.9226,244.1992 274.503,244.0008 274.066,243.8444 273.6157,243.7316 273.1565,243.6635 272.6929,243.6407 272.2293,243.6635 271.7701,243.7316 271.3199,243.8444 270.8828,244.0008 270.4632,244.1992 270.0651,244.4379 269.6923,244.7144 269.3483,245.0261 269.0366,245.37 268.7601,245.7429 268.5214,246.141 268.323,246.5606 268.1666,246.9977 268.0538,247.4479 267.9857,247.9071 267.9629,248.3707 267.9857,248.8343 268.0538,249.2935 268.1666,249.7437 268.323,250.1808 268.5214,250.6004 268.7601,250.9985 269.0366,251.3714 269.3483,251.7153 269.6923,252.027 270.0651,252.3035 270.4632,252.5422 270.8828,252.7406 271.3199,252.897 271.7701,253.0098 272.2293,253.0779 272.6929,253.1007 273.1565,253.0779 273.6157,253.0098 274.066,252.897 274.503,252.7406 274.9226,252.5422 275.3207,252.3035 275.6936,252.027 276.0375,251.7153 276.3492,251.3714 276.6257,250.9985 276.8644,250.6004 277.0628,250.1808 277.2192,249.7437 277.332,249.2935 277.4001,248.8343 277.4229,248.3707 277.4001,247.9071 277.332,247.4479 277.2192,246.9977 277.0628,246.5606"/>
    <polygon points="246.6417,246.2003 247.5305,245.5411 248.4797,244.9722 249.48,244.4991 250.5219,244.1263 251.5954,243.8574 252.69,243.695 253.7953,243.6407 254.9005,243.695 255.9952,243.8574 257.0686,244.1263 258.1105,244.4991 259.1109,244.9722 260.0601,245.5411 260.9489,246.2003 261.7688,246.9435 262.512,247.7634 263.1712,248.6522 263.7401,249.6014 264.2132,250.6018 264.586,251.6437 264.8549,252.7171 265.0173,253.8118 265.0716,254.917 265.0173,256.0223 264.8549,257.1169 264.586,258.1904 264.2132,259.2323 263.7401,260.2326 263.1712,261.1818 262.512,262.0706 261.7688,262.8906 260.9489,263.6337 260.0601,264.2929 259.1109,264.8618 258.1105,265.335 257.0686,265.7078 255.9952,265.9767 254.9005,266.139 253.7953,266.1933 252.69,266.139 251.5954,265.9767 250.5219,265.7078 249.48,265.335 248.4797,264.8618 247.5305,264.2929 246.6417,263.6337 245.8217,262.8906 245.0786,262.0706 244.4194,261.1818 243.8505,260.2326 243.3773,259.2323 243.0045,258.1904 242.7356,257.1169 242.5733,256.0223 242.519,254.917 242.5733,253.8118 242.7356,252.7171 243.0045,251.6437 243.3773,250.6018 243.8505,249.6014 244.4194,248.6522 245.0786,247.7634 245.8217,246.9435"/>
    <polygon points="220.7542,244.109 223.0739,244.69 225.3256,245.4957 227.4875,246.5182 229.5387,247.7476 231.4595,249.1722 233.2315,250.7782 234.8375,252.5502 236.2621,254.471 237.4915,256.5222 238.514,258.6841 239.3197,260.9358 239.9007,263.2555 240.2516,265.6211 240.369,268.0097 240.2516,270.3983 239.9007,272.7638 239.3197,275.0836 238.514,277.3353 237.4915,279.4971 236.2621,281.5484 234.8375,283.4692 233.2315,285.2412 231.4595,286.8472 229.5387,288.2718 227.4875,289.5012 225.3256,290.5237 223.0739,291.3293 220.7542,291.9104 218.3886,292.2613 216.0,292.3787 213.6114,292.2613 211.2458,291.9104 208.9261,291.3293 206.6744,290.5237 204.5125,289.5012 202.4613,288.2718 200.5405,286.8472 198.7685,285.2412 197.1625,283.4692 195.7379,281.5484 194.5085,279.4971 193.486,277.3353 192.6803,275.0836 192.0993,272.7638 191.7484,270.3983 191.631,268.0097 191.7484,265.6211 192.0993,263.2555 192.6803,260.9358 193.486,258.6841 194.5085,256.5222 195.7379,254.471 197.1625,252.5502 198.7685,250.7782 200.5405,249.1722 202.4613,247.7476 204.5125,246.5182 206.6744,245.4957 208.9261,244.69 211.2458,244.109 213.6114,243.7581 216.0,243.6407 218.3886,243.7581"/>
    <polygon points="188.9529,318.5703 188.7965,319.0073 188.6837,319.4576 188.6156,319.9167 188.5929,320.3804 188.6156,320.844 188.6837,321.3031 188.7965,321.7534 188.9529,322.1904 189.1514,322.6101 189.39,323.0082 189.6665,323.381 189.9782,323.725 190.3222,324.0367 190.695,324.3132 191.0931,324.5518 191.5128,324.7503 191.9498,324.9067 192.4001,325.0195 192.8592,325.0876 193.3228,325.1103 193.7865,325.0876 194.2456,325.0195 194.6959,324.9067 195.1329,324.7503 195.5525,324.5518 195.9507,324.3132 196.3235,324.0367 196.6674,323.725 196.9792,323.381 197.2557,323.0082 197.4943,322.6101 197.6928,322.1904 197.8491,321.7534 197.9619,321.3031 198.03,320.844 198.0528,320.3804 198.03,319.9167 197.9619,319.4576 197.8491,319.0073 197.6928,318.5703 197.4943,318.1507 197.2557,317.7525 196.9792,317.3797 196.6674,317.0358 196.3235,316.724 195.9507,316.4475 195.5525,316.2089 195.1329,316.0104 194.6959,315.8541 194.2456,315.7413 193.7865,315.6732 193.3228,315.6504 192.8592,315.6732 192.4001,315.7413 191.9498,315.8541 191.5128,316.0104 191.0931,316.2089 190.695,316.4475 190.3222,316.724 189.9782,317.0358 189.6665,317.3797 189.39,317.7525 189.1514,318.1507"/>
    <polygon points="177.8128,324.697 177.6143,325.1166 177.458,325.5537 177.3452,326.0039 177.2771,326.4631 177.2543,326.9267 177.2771,327.3903 177.3452,327.8495 177.458,328.2997 177.6143,328.7368 177.8128,329.1564 178.0514,329.5545 178.3279,329.9274 178.6397,330.2713 178.9836,330.583 179.3564,330.8595 179.7546,331.0982 180.1742,331.2966 180.6112,331.453 181.0615,331.5658 181.5206,331.6339 181.9843,331.6567 182.4479,331.6339 182.907,331.5658 183.3573,331.453 183.7943,331.2966 184.2139,331.0982 184.6121,330.8595 184.9849,330.583 185.3288,330.2713 185.6406,329.9274 185.9171,329.5545 186.1557,329.1564 186.3542,328.7368 186.5106,328.2997 186.6233,327.8495 186.6914,327.3903 186.7142,326.9267 186.6914,326.4631 186.6233,326.0039 186.5106,325.5537 186.3542,325.1166 186.1557,324.697 185.9171,324.2989 185.6406,323.926 185.3288,323.5821 184.9849,323.2704 184.6121,322.9939 184.2139,322.7552 183.7943,322.5568 183.3573,322.4004 182.907,322.2876 182.4479,322.2195 181.9843,322.1967 181.5206,322.2195 181.0615,322.2876 180.6112,322.4004 180.1742,322.5568 179.7546,322.7552 179.3564,322.9939 178.9836,323.2704 178.6397,323.5821 178.3279,323.926 178.0514,324.2989"/>
    <polygon points="171.1093,285.8096 171.5684,285.7414 172.0187,285.6287 172.4558,285.4723 172.8754,285.2738 173.2735,285.0352 173.6463,284.7587 173.9903,284.447 174.302,284.103 174.5785,283.7302 174.8171,283.3321 175.0156,282.9124 175.172,282.4754 175.2848,282.0251 175.3529,281.566 175.3756,281.1024 175.3529,280.6387 175.2848,280.1796 175.172,279.7293 175.0156,279.2923 174.8171,278.8727 174.5785,278.4745 174.302,278.1017 173.9903,277.7578 173.6463,277.446 173.2735,277.1695 172.8754,276.9309 172.4558,276.7324 172.0187,276.5761 171.5684,276.4633 171.1093,276.3952 170.6457,276.3724 170.1821,276.3952 169.7229,276.4633 169.2726,276.5761 168.8356,276.7324 168.416,276.9309 168.0178,277.1695 167.645,277.446 167.3011,277.7578 166.9894,278.1017 166.7128,278.4745 166.4742,278.8727 166.2757,279.2923 166.1194,279.7293 166.0066,280.1796 165.9385,280.6387 165.9157,281.1024 165.9385,281.566 166.0066,282.0251 166.1194,282.4754 166.2757,282.9124 166.4742,283.3321 166.7128,283.7302 166.9894,284.103 167.3011,284.447 167.645,284.7587 168.0178,285.0352 168.416,285.2738 168.8356,285.4723 169.2726,285.6287 169.7229,285.7414 170.1821,285.8096 170.6457,285.8323"/>
    <polygon points="182.4904,283.4043 181.4485,283.7771 180.4482,284.2502 179.499,284.8191 178.6102,285.4783 177.7902,286.2215 177.0471,287.0414 176.3879,287.9302 175.819,288.8794 175.3458,289.8798 174.973,290.9217 174.7041,291.9951 174.5418,293.0898 174.4875,294.195 174.5418,295.3003 174.7041,296.3949 174.973,297.4684 175.3458,298.5103 175.819,299.5106 176.3879,300.4598 177.0471,301.3486 177.7902,302.1686 178.6102,302.9117 179.499,303.5709 180.4482,304.1398 181.4485,304.613 182.4904,304.9858 183.5639,305.2547 184.6585,305.417 185.7638,305.4713 186.8691,305.417 187.9637,305.2547 189.0371,304.9858 190.079,304.613 191.0794,304.1398 192.0286,303.5709 192.9174,302.9117 193.7373,302.1686 194.4805,301.3486 195.1397,300.4598 195.7086,299.5106 196.1817,298.5103 196.5545,297.4684 196.8234,296.3949 196.9858,295.3003 197.0401,294.195 196.9858,293.0898 196.8234,291.9951 196.5545,290.9217 196.1817,289.8798 195.7086,288.8794 195.1397,287.9302 194.4805,287.0414 193.7373,286.2215 192.9174,285.4783 192.0286,284.8191 191.0794,284.2502 190.079,283.7771 189.0371,283.4043 187.9637,283.1354 186.8691,282.973 185.7638,282.9187 184.6585,282.973 183.5639,283.1354"/>
    <polygon points="168.8356,259.287 169.2726,259.4433 169.7229,259.5561 170.1821,259.6242 170.6457,259.647 171.1093,259.6242 171.5684,259.5561 172.0187,259.4433 172.4558,259.287 172.8754,259.0885 173.2735,258.8499 173.6463,258.5733 173.9903,258.2616 174.302,257.9177 174.5785,257.5449 174.8171,257.1467 175.0156,256.7271 175.172,256.2901 175.2848,255.8398 175.3529,255.3806 175.3756,254.917 175.3529,254.4534 175.2848,253.9943 175.172,253.544 175.0156,253.1069 174.8171,252.6873 174.5785,252.2892 174.302,251.9164 173.9903,251.5724 173.6463,251.2607 173.2735,250.9842 172.8754,250.7456 172.4558,250.5471 172.0187,250.3907 171.5684,250.2779 171.1093,250.2098 170.6457,250.1871 170.1821,250.2098 169.7229,250.2779 169.2726,250.3907 168.8356,250.5471 168.416,250.7456 168.0178,250.9842 167.645,251.2607 167.3011,251.5724 166.9894,251.9164 166.7128,252.2892 166.4742,252.6873 166.2757,253.1069 166.1194,253.544 166.0066,253.9943 165.9385,254.4534 165.9157,254.917 165.9385,255.3806 166.0066,255.8398 166.1194,256.2901 166.2757,256.7271 166.4742,257.1467 166.7128,257.5449 166.9894,257.9177 167.3011,258.2616 167.645,258.5733 168.0178,258.8499 168.416,259.0885"/>
    <polygon points="165.2865,239.7913 166.36,239.5224 167.4019,239.1496 168.4022,238.6765 169.3514,238.1076 170.2402,237.4484 171.0602,236.7052 171.8033,235.8853 172.4625,234.9965 173.0314,234.0473 173.5046,233.0469 173.8774,232.005 174.1462,230.9316 174.3086,229.837 174.3629,228.7317 174.3086,227.6264 174.1462,226.5318 173.8774,225.4584 173.5046,224.4164 173.0314,223.4161 172.4625,222.4669 171.8033,221.5781 171.0602,220.7581 170.2402,220.015 169.3514,219.3558 168.4022,218.7869 167.4019,218.3137 166.36,217.9409 165.2865,217.6721 164.1919,217.5097 163.0866,217.4554 161.9813,217.5097 160.8867,217.6721 159.8133,217.9409 158.7714,218.3137 157.771,218.7869 156.8218,219.3558 155.933,220.015 155.1131,220.7581 154.3699,221.5781 153.7107,222.4669 153.1418,223.4161 152.6687,224.4164 152.2959,225.4584 152.027,226.5318 151.8646,227.6264 151.8103,228.7317 151.8646,229.837 152.027,230.9316 152.2959,232.005 152.6687,233.0469 153.1418,234.0473 153.7107,234.9965 154.3699,235.8853 155.1131,236.7052 155.933,237.4484 156.8218,238.1076 157.771,238.6765 158.7714,239.1496 159.8133,239.5224 160.8867,239.7913 161.9813,239.9537 163.0866,240.008 164.1919,239.9537"/>
    <polygon points="175.819,236.5087 175.3458,237.5091 174.973,238.551 174.7041,239.6245 174.5418,240.7191 174.4875,241.8244 174.5418,242.9296 174.7041,244.0243 174.973,245.0977 175.3458,246.1396 175.819,247.14 176.3879,248.0891 177.0471,248.978 177.7902,249.7979 178.6102,250.5411 179.499,251.2003 180.4482,251.7692 181.4485,252.2423 182.4904,252.6151 183.5639,252.884 184.6585,253.0464 185.7638,253.1007 186.8691,253.0464 187.9637,252.884 189.0371,252.6151 190.079,252.2423 191.0794,251.7692 192.0286,251.2003 192.9174,250.5411 193.7373,249.7979 194.4805,248.978 195.1397,248.0891 195.7086,247.14 196.1817,246.1396 196.5545,245.0977 196.8234,244.0243 196.9858,242.9296 197.0401,241.8244 196.9858,240.7191 196.8234,239.6245 196.5545,238.551 196.1817,237.5091 195.7086,236.5087 195.1397,235.5596 194.4805,234.6707 193.7373,233.8508 192.9174,233.1077 192.0286,232.4485 191.0794,231.8795 190.079,231.4064 189.0371,231.0336 187.9637,230.7647 186.8691,230.6024 185.7638,230.5481 184.6585,230.6024 183.5639,230.7647 182.4904,231.0336 181.4485,231.4064 180.4482,231.8795 179.499,232.4485 178.6102,233.1077 177.7902,233.8508 177.0471,234.6707 176.3879,235.5596"/>
    <polygon points="212.7562,218.3137 213.7566,218.7869 214.7057,219.3558 215.5946,220.015 216.4145,220.7581 217.1576,221.5781 217.8169,222.4669 218.3858,223.4161 218.8589,224.4164 219.2317,225.4584 219.5006,226.5318 219.663,227.6264 219.7173,228.7317 219.663,229.837 219.5006,230.9316 219.2317,232.005 218.8589,233.0469 218.3858,234.0473 217.8169,234.9965 217.1576,235.8853 216.4145,236.7052 215.5946,237.4484 214.7057,238.1076 213.7566,238.6765 212.7562,239.1496 211.7143,239.5224 210.6408,239.7913 209.5462,239.9537 208.4409,240.008 207.3357,239.9537 206.241,239.7913 205.1676,239.5224 204.1257,239.1496 203.1253,238.6765 202.1762,238.1076 201.2873,237.4484 200.4674,236.7052 199.7242,235.8853 199.065,234.9965 198.4961,234.0473 198.023,233.0469 197.6502,232.005 197.3813,230.9316 197.2189,229.837 197.1646,228.7317 197.2189,227.6264 197.3813,226.5318 197.6502,225.4584 198.023,224.4164 198.4961,223.4161 199.065,222.4669 199.7242,221.5781 200.4674,220.7581 201.2873,220.015 202.1762,219.3558 203.1253,218.7869 204.1257,218.3137 205.1676,217.9409 206.241,217.6721 207.3357,217.5097 208.4409,217.4554 209.5462,217.5097 210.6408,217.6721 211.7143,217.9409"/>
    <polygon points="211.2928,202.0827 211.3609,201.6236 211.4737,201.1733 211.6301,200.7363 211.8285,200.3167 212.0672,199.9185 212.3437,199.5457 212.6554,199.2018 212.9993,198.89 213.3722,198.6135 213.7703,198.3749 214.1899,198.1764 214.627,198.0201 215.0772,197.9073 215.5364,197.8392 216.0,197.8164 216.4636,197.8392 216.9228,197.9073 217.373,198.0201 217.8101,198.1764 218.2297,198.3749 218.6278,198.6135 219.0007,198.89 219.3446,199.2018 219.6563,199.5457 219.9328,199.9185 220.1715,200.3167 220.3699,200.7363 220.5263,201.1733 220.6391,201.6236 220.7072,202.0827 220.73,202.5464 220.7072,203.01 220.6391,203.4691 220.5263,203.9194 220.3699,204.3564 220.1715,204.7761 219.9328,205.1742 219.6563,205.547 219.3446,205.891 219.0007,206.2027 218.6278,206.4792 218.2297,206.7178 217.8101,206.9163 217.373,207.0727 216.9228,207.1854 216.4636,207.2536 216.0,207.2763 215.5364,207.2536 215.0772,207.1854 214.627,207.0727 214.1899,206.9163 213.7703,206.7178 213.3722,206.4792 212.9993,206.2027 212.6554,205.891 212.3437,205.547 212.0672,205.1742 211.8285,204.7761 211.6301,204.3564 211.4737,203.9194 211.3609,203.4691 211.2928,203.01 211.27,202.5464"/>
    <polygon points="198.03,203.01 197.9619,203.4691 197.8491,203.9194 197.6928,204.3564 197.4943,204.7761 197.2557,205.1742 196.9792,205.547 196.6674,205.891 196.3235,206.2027 195.9507,206.4792 195.5525,206.7178 195.1329,206.9163 194.6959,207.0727 194.2456,207.1854 193.7865,207.2536 193.3228,207.2763 192.8592,207.2536 192.4001,207.1854 191.9498,207.0727 191.5128,206.9163 191.0931,206.7178 190.695,206.4792 190.3222,206.2027 189.9782,205.891 189.6665,205.547 189.39,205.1742 189.1514,204.7761 188.9529,204.3564 188.7965,203.9194 188.6837,203.4691 188.6156,203.01 188.5929,202.5464 188.6156,202.0827 188.6837,201.6236 188.7965,201.1733 188.9529,200.7363 189.1514,200.3167 189.39,199.9185 189.6665,199.5457 189.9782,199.2018 190.3222,198.89 190.695,198.6135 191.0931,198.3749 191.5128,198.1764 191.9498,198.0201 192.4001,197.9073 192.8592,197.8392 193.3228,197.8164 193.7865,197.8392 194.2456,197.9073 194.6959,198.0201 195.1329,198.1764 195.5525,198.3749 195.9507,198.6135 196.3235,198.89 196.6674,199.2018 196.9792,199.5457 197.2557,199.9185 197.4943,200.3167 197.6928,200.7363 197.8491,201.1733 197.9619,201.6236 198.03,202.0827 198.0528,202.5464"/>
    <polygon points="200.2915,210.9028 200.1351,210.4657 200.0223,210.0155 199.9542,209.5563 199.9314,209.0927 199.9542,208.6291 200.0223,208.1699 200.1351,207.7197 200.2915,207.2826 200.49,206.863 200.7286,206.4649 201.0051,206.092 201.3168,205.7481 201.6608,205.4364 202.0336,205.1599 202.4317,204.9212 202.8513,204.7228 203.2884,204.5664 203.7386,204.4536 204.1978,204.3855 204.6614,204.3627 205.125,204.3855 205.5842,204.4536 206.0345,204.5664 206.4715,204.7228 206.8911,204.9212 207.2892,205.1599 207.6621,205.4364 208.006,205.7481 208.3177,206.092 208.5942,206.4649 208.8329,206.863 209.0313,207.2826 209.1877,207.7197 209.3005,208.1699 209.3686,208.6291 209.3914,209.0927 209.3686,209.5563 209.3005,210.0155 209.1877,210.4657 209.0313,210.9028 208.8329,211.3224 208.5942,211.7205 208.3177,212.0934 208.006,212.4373 207.6621,212.749 207.2892,213.0255 206.8911,213.2642 206.4715,213.4626 206.0345,213.619 205.5842,213.7318 205.125,213.7999 204.6614,213.8227 204.1978,213.7999 203.7386,213.7318 203.2884,213.619 202.8513,213.4626 202.4317,213.2642 202.0336,213.0255 201.6608,212.749 201.3168,212.4373 201.0051,212.0934 200.7286,211.7205 200.49,211.3224"/>
    <polygon points="189.9782,212.2944 190.3222,211.9827 190.695,211.7062 191.0931,211.4676 191.5128,211.2691 191.9498,211.1127 192.4001,210.9999 192.8592,210.9318 193.3228,210.9091 193.7865,210.9318 194.2456,210.9999 194.6959,211.1127 195.1329,211.2691 195.5525,211.4676 195.9507,211.7062 196.3235,211.9827 196.6674,212.2944 196.9792,212.6384 197.2557,213.0112 197.4943,213.4093 197.6928,213.8289 197.8491,214.266 197.9619,214.7163 198.03,215.1754 198.0528,215.639 198.03,216.1026 197.9619,216.5618 197.8491,217.0121 197.6928,217.4491 197.4943,217.8687 197.2557,218.2669 196.9792,218.6397 196.6674,218.9836 196.3235,219.2953 195.9507,219.5719 195.5525,219.8105 195.1329,220.0089 194.6959,220.1653 194.2456,220.2781 193.7865,220.3462 193.3228,220.369 192.8592,220.3462 192.4001,220.2781 191.9498,220.1653 191.5128,220.0089 191.0931,219.8105 190.695,219.5719 190.3222,219.2953 189.9782,218.9836 189.6665,218.6397 189.39,218.2669 189.1514,217.8687 188.9529,217.4491 188.7965,217.0121 188.6837,216.5618 188.6156,216.1026 188.5929,215.639 188.6156,215.1754 188.6837,214.7163 188.7965,214.266 188.9529,213.8289 189.1514,213.4093 189.39,213.0112 189.6665,212.6384"/>
    <polygon points="186.6233,210.0155 186.5106,210.4657 186.3542,210.9028 186.1557,211.3224 185.9171,211.7205 185.6406,212.0934 185.3288,212.4373 184.9849,212.749 184.6121,213.0255 184.2139,213.2642 183.7943,213.4626 183.3573,213.619 182.907,213.7318 182.4479,213.7999 181.9843,213.8227 181.5206,213.7999 181.0615,213.7318 180.6112,213.619 180.1742,213.4626 179.7546,213.2642 179.3564,213.0255 178.9836,212.749 178.6397,212.4373 178.3279,212.0934 178.0514,211.7205 177.8128,211.3224 177.6143,210.9028 177.458,210.4657 177.3452,210.0155 177.2771,209.5563 177.2543,209.0927 177.2771,208.6291 177.3452,208.1699 177.458,207.7197 177.6143,207.2826 177.8128,206.863 178.0514,206.4649 178.3279,206.092 178.6397,205.7481 178.9836,205.4364 179.3564,205.1599 179.7546,204.9212 180.1742,204.7228 180.6112,204.5664 181.0615,204.4536 181.5206,204.3855 181.9843,204.3627 182.4479,204.3855 182.907,204.4536 183.3573,204.5664 183.7943,204.7228 184.2139,204.9212 184.6121,205.1599 184.9849,205.4364 185.3288,205.7481 185.6406,206.092 185.9171,206.4649 186.1557,206.863 186.3542,207.2826 186.5106,207.7197 186.6233,208.1699 186.6914,208.6291 186.7142,209.0927 186.6914,209.5563"/>
    <polygon points="177.2771,222.649 177.2543,222.1854 177.2771,221.7217 177.3452,221.2626 177.458,220.8123 177.6143,220.3753 177.8128,219.9557 178.0514,219.5575 178.3279,219.1847 178.6397,218.8408 178.9836,218.529 179.3564,218.2525 179.7546,218.0139 180.1742,217.8154 180.6112,217.6591 181.0615,217.5463 181.5206,217.4782 181.9843,217.4554 182.4479,217.4782 182.907,217.5463 183.3573,217.6591 183.7943,217.8154 184.2139,218.0139 184.6121,218.2525 184.9849,218.529 185.3288,218.8408 185.6406,219.1847 185.9171,219.5575 186.1557,219.9557 186.3542,220.3753 186.5106,220.8123 186.6233,221.2626 186.6914,221.7217 186.7142,222.1854 186.6914,222.649 186.6233,223.1081 186.5106,223.5584 186.3542,223.9954 186.1557,224.4151 185.9171,224.8132 185.6406,225.186 185.3288,225.53 184.9849,225.8417 184.6121,226.1182 184.2139,226.3568 183.7943,226.5553 183.3573,226.7117 182.907,226.8244 182.4479,226.8926 181.9843,226.9153 181.5206,226.8926 181.0615,226.8244 180.6112,226.7117 180.1742,226.5553 179.7546,226.3568 179.3564,226.1182 178.9836,225.8417 178.6397,225.53 178.3279,225.186 178.0514,224.8132 177.8128,224.4151 177.6143,223.9954 177.458,223.5584 177.3452,223.1081"/>
    <polygon points="161.5368,204.9212 161.1172,204.7228 160.6801,204.5664 160.2299,204.4536 159.7707,204.3855 159.3071,204.3627 158.8435,204.3855 158.3843,204.4536 157.934,204.5664 157.497,204.7228 157.0774,204.9212 156.6793,205.1599 156.3064,205.4364 155.9625,205.7481 155.6508,206.092 155.3743,206.4649 155.1356,206.863 154.9372,207.2826 154.7808,207.7197 154.668,208.1699 154.5999,208.6291 154.5771,209.0927 154.5999,209.5563 154.668,210.0155 154.7808,210.4657 154.9372,210.9028 155.1356,211.3224 155.3743,211.7205 155.6508,212.0934 155.9625,212.4373 156.3064,212.749 156.6793,213.0255 157.0774,213.2642 157.497,213.4626 157.934,213.619 158.3843,213.7318 158.8435,213.7999 159.3071,213.8227 159.7707,213.7999 160.2299,213.7318 160.6801,213.619 161.1172,213.4626 161.5368,213.2642 161.9349,213.0255 162.3077,212.749 162.6517,212.4373 162.9634,212.0934 163.2399,211.7205 163.4786,211.3224 163.677,210.9028 163.8334,210.4657 163.9462,210.0155 164.0143,209.5563 164.0371,209.0927 164.0143,208.6291 163.9462,208.1699 163.8334,207.7197 163.677,207.2826 163.4786,206.863 163.2399,206.4649 162.9634,206.092 162.6517,205.7481 162.3077,205.4364 161.9349,205.1599"/>
    <polygon points="151.3131,212.2944 150.9692,211.9827 150.5963,211.7062 150.1982,211.4676 149.7786,211.2691 149.3415,211.1127 148.8913,210.9999 148.4321,210.9318 147.9685,210.9091 147.5049,210.9318 147.0457,210.9999 146.5955,211.1127 146.1584,211.2691 145.7388,211.4676 145.3407,211.7062 144.9678,211.9827 144.6239,212.2944 144.3122,212.6384 144.0357,213.0112 143.797,213.4093 143.5986,213.8289 143.4422,214.266 143.3294,214.7163 143.2613,215.1754 143.2385,215.639 143.2613,216.1026 143.3294,216.5618 143.4422,217.0121 143.5986,217.4491 143.797,217.8687 144.0357,218.2669 144.3122,218.6397 144.6239,218.9836 144.9678,219.2953 145.3407,219.5719 145.7388,219.8105 146.1584,220.0089 146.5955,220.1653 147.0457,220.2781 147.5049,220.3462 147.9685,220.369 148.4321,220.3462 148.8913,220.2781 149.3415,220.1653 149.7786,220.0089 150.1982,219.8105 150.5963,219.5719 150.9692,219.2953 151.3131,218.9836 151.6248,218.6397 151.9013,218.2669 152.14,217.8687 152.3384,217.4491 152.4948,217.0121 152.6076,216.5618 152.6757,216.1026 152.6985,215.639 152.6757,215.1754 152.6076,214.7163 152.4948,214.266 152.3384,213.8289 152.14,213.4093 151.9013,213.0112 151.6248,212.6384"/>
    <polygon points="145.7388,206.7178 146.1584,206.9163 146.5955,207.0727 147.0457,207.1854 147.5049,207.2536 147.9685,207.2763 148.4321,207.2536 148.8913,207.1854 149.3415,207.0727 149.7786,206.9163 150.1982,206.7178 150.5963,206.4792 150.9692,206.2027 151.3131,205.891 151.6248,205.547 151.9013,205.1742 152.14,204.7761 152.3384,204.3564 152.4948,203.9194 152.6076,203.4691 152.6757,203.01 152.6985,202.5464 152.6757,202.0827 152.6076,201.6236 152.4948,201.1733 152.3384,200.7363 152.14,200.3167 151.9013,199.9185 151.6248,199.5457 151.3131,199.2018 150.9692,198.89 150.5963,198.6135 150.1982,198.3749 149.7786,198.1764 149.3415,198.0201 148.8913,197.9073 148.4321,197.8392 147.9685,197.8164 147.5049,197.8392 147.0457,197.9073 146.5955,198.0201 146.1584,198.1764 145.7388,198.3749 145.3407,198.6135 144.9678,198.89 144.6239,199.2018 144.3122,199.5457 144.0357,199.9185 143.797,200.3167 143.5986,200.7363 143.4422,201.1733 143.3294,201.6236 143.2613,202.0827 143.2385,202.5464 143.2613,203.01 143.3294,203.4691 143.4422,203.9194 143.5986,204.3564 143.797,204.7761 144.0357,205.1742 144.3122,205.547 144.6239,205.891 144.9678,206.2027 145.3407,206.4792"/>
    <polygon points="131.8999,222.1854 131.9227,222.649 131.9908,223.1081 132.1036,223.5584 132.26,223.9954 132.4585,224.4151 132.6971,224.8132 132.9736,225.186 133.2853,225.53 133.6293,225.8417 134.0021,226.1182 134.4002,226.3568 134.8198,226.5553 135.2569,226.7117 135.7071,226.8244 136.1663,226.8926 136.6299,226.9153 137.0935,226.8926 137.5527,226.8244 138.003,226.7117 138.44,226.5553 138.8596,226.3568 139.2578,226.1182 139.6306,225.8417 139.9745,225.53 140.2862,225.186 140.5627,224.8132 140.8014,224.4151 140.9998,223.9954 141.1562,223.5584 141.269,223.1081 141.3371,222.649 141.3599,222.1854 141.3371,221.7217 141.269,221.2626 141.1562,220.8123 140.9998,220.3753 140.8014,219.9557 140.5627,219.5575 140.2862,219.1847 139.9745,218.8408 139.6306,218.529 139.2578,218.2525 138.8596,218.0139 138.44,217.8154 138.003,217.6591 137.5527,217.5463 137.0935,217.4782 136.6299,217.4554 136.1663,217.4782 135.7071,217.5463 135.2569,217.6591 134.8198,217.8154 134.4002,218.0139 134.0021,218.2525 133.6293,218.529 133.2853,218.8408 132.9736,219.1847 132.6971,219.5575 132.4585,219.9557 132.26,220.3753 132.1036,220.8123 131.9908,221.2626 131.9227,221.7217"/>
  </g>
</svg>
