<?xml version="1.0" encoding="utf-8" ?>
<svg xmlns="http://www.w3.org/2000/svg" xmlns:cc="http://creativecommons.org/ns" xmlns:dc="http://purl.org/dc/elements/1.1/" xmlns:ev="http://www.w3.org/2001/xml-events" xmlns:inkscape="http://www.inkscape.org/namespaces/inkscape" xmlns:rdf="http://www.w3.org/1999/02/22-rdf-syntax-ns" xmlns:sodipodi="http://sodipodi.sourceforge.net/DTD/sodipodi-0.dtd" xmlns:xlink="http://www.w3.org/1999/xlink" baseProfile="tiny" height="15.875cm" version="1.2" viewBox="0 0 432.0 600.0" width="11.43cm">
  <metadata>
    <rdf:RDF>
      <cc:Work>
        <dc:format>image/svg+xml</dc:format>
        <dc:source>vsk save -s 246 -c hex-grid/config/bubble-coasters-2.json /Users/tobin/src/fabian/plotting/fabian-plotting/hex-grid/sketch_hex_grid.py</dc:source>
        <dc:date>2023-11-11T11:30:23.747034</dc:date>
      </cc:Work>
    </rdf:RDF>
  </metadata>
  <defs/>
  <g fill="none" id="layer1" inkscape:groupmode="layer" inkscape:label="1" stroke="#000000" stroke-width="0.7559" style="display:inline">
    <polygon points="153.8782,181.5343 153.991,181.9846 154.0591,182.4437 154.0819,182.9074 154.0591,183.371 153.991,183.8301 153.8782,184.2804 153.7218,184.7174 153.5234,185.137 153.2847,185.5352 153.0082,185.908 152.6965,186.252 152.3526,186.5637 151.9797,186.8402 151.5816,187.0788 151.162,187.2773 150.7249,187.4337 150.2747,187.5464 149.8155,187.6146 149.3519,187.6373 148.8883,187.6146 148.4291,187.5464 147.9789,187.4337 147.5418,187.2773 147.1222,187.0788 146.7241,186.8402 146.3512,186.5637 146.0073,186.252 145.6956,185.908 145.4191,185.5352 145.1804,185.137 144.982,184.7174 144.8256,184.2804 144.7128,183.8301 144.6447,183.371 144.6219,182.9074 144.6447,182.4437 144.7128,181.9846 144.8256,181.5343 144.982,181.0973 145.1804,180.6777 145.4191,180.2795 145.6956,179.9067 146.0073,179.5628 146.3512,179.251 146.7241,178.9745 147.1222,178.7359 147.5418,178.5374 147.9789,178.3811 148.4291,178.2683 148.8883,178.2002 149.3519,178.1774 149.8155,178.2002 150.2747,178.2683 150.7249,178.3811 151.162,178.5374 151.5816,178.7359 151.9797,178.9745 152.3526,179.251 152.6965,179.5628 153.0082,179.9067 153.2847,180.2795 153.5234,180.6777 153.7218,181.0973"/>
    <polygon points="162.9202,185.2822 163.3183,185.5209 163.6912,185.7974 164.0351,186.1091 164.3468,186.453 164.6233,186.8259 164.862,187.224 165.0604,187.6436 165.2168,188.0807 165.3296,188.5309 165.3977,188.9901 165.4205,189.4537 165.3977,189.9173 165.3296,190.3765 165.2168,190.8267 165.0604,191.2638 164.862,191.6834 164.6233,192.0815 164.3468,192.4544 164.0351,192.7983 163.6912,193.11 163.3183,193.3865 162.9202,193.6252 162.5006,193.8236 162.0635,193.98 161.6133,194.0928 161.1541,194.1609 160.6905,194.1837 160.2269,194.1609 159.7677,194.0928 159.3175,193.98 158.8804,193.8236 158.4608,193.6252 158.0627,193.3865 157.6898,193.11 157.3459,192.7983 157.0342,192.4544 156.7577,192.0815 156.519,191.6834 156.3206,191.2638 156.1642,190.8267 156.0514,190.3765 155.9833,189.9173 155.9605,189.4537 155.9833,188.9901 156.0514,188.5309 156.1642,188.0807 156.3206,187.6436 156.519,187.224 156.7577,186.8259 157.0342,186.453 157.3459,186.1091 157.6898,185.7974 158.0627,185.5209 158.4608,185.2822 158.8804,185.0838 159.3175,184.9274 159.7677,184.8146 160.2269,184.7465 160.6905,184.7237 161.1541,184.7465 161.6133,184.8146 162.0635,184.9274 162.5006,185.0838"/>
    <polygon points="153.8782,194.627 153.991,195.0773 154.0591,195.5364 154.0819,196.0 154.0591,196.4636 153.991,196.9228 153.8782,197.3731 153.7218,197.8101 153.5234,198.2297 153.2847,198.6279 153.0082,199.0007 152.6965,199.3446 152.3526,199.6563 151.9797,199.9329 151.5816,200.1715 151.162,200.3699 150.7249,200.5263 150.2747,200.6391 149.8155,200.7072 149.3519,200.73 148.8883,200.7072 148.4291,200.6391 147.9789,200.5263 147.5418,200.3699 147.1222,200.1715 146.7241,199.9329 146.3512,199.6563 146.0073,199.3446 145.6956,199.0007 145.4191,198.6279 145.1804,198.2297 144.982,197.8101 144.8256,197.3731 144.7128,196.9228 144.6447,196.4636 144.6219,196.0 144.6447,195.5364 144.7128,195.0773 144.8256,194.627 144.982,194.1899 145.1804,193.7703 145.4191,193.3722 145.6956,192.9994 146.0073,192.6554 146.3512,192.3437 146.7241,192.0672 147.1222,191.8286 147.5418,191.6301 147.9789,191.4737 148.4291,191.3609 148.8883,191.2928 149.3519,191.2701 149.8155,191.2928 150.2747,191.3609 150.7249,191.4737 151.162,191.6301 151.5816,191.8286 151.9797,192.0672 152.3526,192.3437 152.6965,192.6554 153.0082,192.9994 153.2847,193.3722 153.5234,193.7703 153.7218,194.1899"/>
    <polygon points="138.0133,194.1837 137.5497,194.1609 137.0906,194.0928 136.6403,193.98 136.2032,193.8236 135.7836,193.6252 135.3855,193.3865 135.0127,193.11 134.6687,192.7983 134.357,192.4544 134.0805,192.0815 133.8419,191.6834 133.6434,191.2638 133.487,190.8267 133.3742,190.3765 133.3061,189.9173 133.2834,189.4537 133.3061,188.9901 133.3742,188.5309 133.487,188.0807 133.6434,187.6436 133.8419,187.224 134.0805,186.8259 134.357,186.453 134.6687,186.1091 135.0127,185.7974 135.3855,185.5209 135.7836,185.2822 136.2032,185.0838 136.6403,184.9274 137.0906,184.8146 137.5497,184.7465 138.0133,184.7237 138.4769,184.7465 138.9361,184.8146 139.3864,184.9274 139.8234,185.0838 140.243,185.2822 140.6412,185.5209 141.014,185.7974 141.3579,186.1091 141.6696,186.453 141.9462,186.8259 142.1848,187.224 142.3832,187.6436 142.5396,188.0807 142.6524,188.5309 142.7205,188.9901 142.7433,189.4537 142.7205,189.9173 142.6524,190.3765 142.5396,190.8267 142.3832,191.2638 142.1848,191.6834 141.9462,192.0815 141.6696,192.4544 141.3579,192.7983 141.014,193.11 140.6412,193.3865 140.243,193.6252 139.8234,193.8236 139.3864,193.98 138.9361,194.0928 138.4769,194.1609"/>
    <polygon points="141.6696,199.5457 141.9462,199.9185 142.1848,200.3167 142.3832,200.7363 142.5396,201.1733 142.6524,201.6236 142.7205,202.0827 142.7433,202.5464 142.7205,203.01 142.6524,203.4691 142.5396,203.9194 142.3832,204.3564 142.1848,204.7761 141.9462,205.1742 141.6696,205.547 141.3579,205.891 141.014,206.2027 140.6412,206.4792 140.243,206.7178 139.8234,206.9163 139.3864,207.0727 138.9361,207.1854 138.4769,207.2536 138.0133,207.2763 137.5497,207.2536 137.0906,207.1854 136.6403,207.0727 136.2032,206.9163 135.7836,206.7178 135.3855,206.4792 135.0127,206.2027 134.6687,205.891 134.357,205.547 134.0805,205.1742 133.8419,204.7761 133.6434,204.3564 133.487,203.9194 133.3742,203.4691 133.3061,203.01 133.2834,202.5464 133.3061,202.0827 133.3742,201.6236 133.487,201.1733 133.6434,200.7363 133.8419,200.3167 134.0805,199.9185 134.357,199.5457 134.6687,199.2018 135.0127,198.89 135.3855,198.6135 135.7836,198.3749 136.2032,198.1764 136.6403,198.0201 137.0906,197.9073 137.5497,197.8392 138.0133,197.8164 138.4769,197.8392 138.9361,197.9073 139.3864,198.0201 139.8234,198.1764 140.243,198.3749 140.6412,198.6135 141.014,198.89 141.3579,199.2018"/>
    <polygon points="141.9094,216.7443 142.0718,217.8389 142.3407,218.9124 142.7135,219.9543 143.1866,220.9546 143.7555,221.9038 144.4147,222.7926 145.1579,223.6126 145.9778,224.3557 146.8667,225.0149 147.8158,225.5838 148.8162,226.057 149.8581,226.4298 150.9315,226.6987 152.0262,226.861 153.1314,226.9153 154.2367,226.861 155.3313,226.6987 156.4048,226.4298 157.4467,226.057 158.447,225.5838 159.3962,225.0149 160.285,224.3557 161.105,223.6126 161.8481,222.7926 162.5073,221.9038 163.0762,220.9546 163.5494,219.9543 163.9222,218.9124 164.1911,217.8389 164.3534,216.7443 164.4077,215.639 164.3534,214.5338 164.1911,213.4391 163.9222,212.3657 163.5494,211.3238 163.0762,210.3234 162.5073,209.3742 161.8481,208.4854 161.105,207.6655 160.285,206.9223 159.3962,206.2631 158.447,205.6942 157.4467,205.2211 156.4048,204.8483 155.3313,204.5794 154.2367,204.417 153.1314,204.3627 152.0262,204.417 150.9315,204.5794 149.8581,204.8483 148.8162,205.2211 147.8158,205.6942 146.8667,206.2631 145.9778,206.9223 145.1579,207.6655 144.4147,208.4854 143.7555,209.3742 143.1866,210.3234 142.7135,211.3238 142.3407,212.3657 142.0718,213.4391 141.9094,214.5338 141.8551,215.639"/>
    <polygon points="128.4848,226.5553 128.9044,226.3568 129.3026,226.1182 129.6754,225.8417 130.0193,225.53 130.3311,225.186 130.6076,224.8132 130.8462,224.4151 131.0447,223.9954 131.201,223.5584 131.3138,223.1081 131.3819,222.649 131.4047,222.1854 131.3819,221.7217 131.3138,221.2626 131.201,220.8123 131.0447,220.3753 130.8462,219.9557 130.6076,219.5575 130.3311,219.1847 130.0193,218.8408 129.6754,218.529 129.3026,218.2525 128.9044,218.0139 128.4848,217.8154 128.0478,217.6591 127.5975,217.5463 127.1384,217.4782 126.6747,217.4554 126.2111,217.4782 125.752,217.5463 125.3017,217.6591 124.8647,217.8154 124.445,218.0139 124.0469,218.2525 123.6741,218.529 123.3301,218.8408 123.0184,219.1847 122.7419,219.5575 122.5033,219.9557 122.3048,220.3753 122.1484,220.8123 122.0357,221.2626 121.9675,221.7217 121.9448,222.1854 121.9675,222.649 122.0357,223.1081 122.1484,223.5584 122.3048,223.9954 122.5033,224.4151 122.7419,224.8132 123.0184,225.186 123.3301,225.53 123.6741,225.8417 124.0469,226.1182 124.445,226.3568 124.8647,226.5553 125.3017,226.7117 125.752,226.8244 126.2111,226.8926 126.6747,226.9153 127.1384,226.8926 127.5975,226.8244 128.0478,226.7117"/>
    <polygon points="142.5396,230.1047 142.3832,230.5418 142.1848,230.9614 141.9462,231.3595 141.6696,231.7324 141.3579,232.0763 141.014,232.388 140.6412,232.6645 140.243,232.9032 139.8234,233.1016 139.3864,233.258 138.9361,233.3708 138.4769,233.4389 138.0133,233.4617 137.5497,233.4389 137.0906,233.3708 136.6403,233.258 136.2032,233.1016 135.7836,232.9032 135.3855,232.6645 135.0127,232.388 134.6687,232.0763 134.357,231.7324 134.0805,231.3595 133.8419,230.9614 133.6434,230.5418 133.487,230.1047 133.3742,229.6545 133.3061,229.1953 133.2834,228.7317 133.3061,228.2681 133.3742,227.8089 133.487,227.3587 133.6434,226.9216 133.8419,226.502 134.0805,226.1039 134.357,225.731 134.6687,225.3871 135.0127,225.0754 135.3855,224.7989 135.7836,224.5602 136.2032,224.3618 136.6403,224.2054 137.0906,224.0926 137.5497,224.0245 138.0133,224.0017 138.4769,224.0245 138.9361,224.0926 139.3864,224.2054 139.8234,224.3618 140.243,224.5602 140.6412,224.7989 141.014,225.0754 141.3579,225.3871 141.6696,225.731 141.9462,226.1039 142.1848,226.502 142.3832,226.9216 142.5396,227.3587 142.6524,227.8089 142.7205,228.2681 142.7433,228.7317 142.7205,229.1953 142.6524,229.6545"/>
    <polygon points="143.7555,235.5596 144.4147,234.6707 145.1579,233.8508 145.9778,233.1077 146.8667,232.4485 147.8158,231.8795 148.8162,231.4064 149.8581,231.0336 150.9315,230.7647 152.0262,230.6024 153.1314,230.5481 154.2367,230.6024 155.3313,230.7647 156.4048,231.0336 157.4467,231.4064 158.447,231.8795 159.3962,232.4485 160.285,233.1077 161.105,233.8508 161.8481,234.6707 162.5073,235.5596 163.0762,236.5087 163.5494,237.5091 163.9222,238.551 164.1911,239.6245 164.3534,240.7191 164.4077,241.8244 164.3534,242.9296 164.1911,244.0243 163.9222,245.0977 163.5494,246.1396 163.0762,247.14 162.5073,248.0891 161.8481,248.978 161.105,249.7979 160.285,250.5411 159.3962,251.2003 158.447,251.7692 157.4467,252.2423 156.4048,252.6151 155.3313,252.884 154.2367,253.0464 153.1314,253.1007 152.0262,253.0464 150.9315,252.884 149.8581,252.6151 148.8162,252.2423 147.8158,251.7692 146.8667,251.2003 145.9778,250.5411 145.1579,249.7979 144.4147,248.978 143.7555,248.0891 143.1866,247.14 142.7135,246.1396 142.3407,245.0977 142.0718,244.0243 141.9094,242.9296 141.8551,241.8244 141.9094,240.7191 142.0718,239.6245 142.3407,238.551 142.7135,237.5091 143.1866,236.5087"/>
    <polygon points="165.0178,232.005 164.749,230.9316 164.5866,229.837 164.5323,228.7317 164.5866,227.6264 164.749,226.5318 165.0178,225.4584 165.3907,224.4164 165.8638,223.4161 166.4327,222.4669 167.0919,221.5781 167.835,220.7581 168.655,220.015 169.5438,219.3558 170.493,218.7869 171.4933,218.3137 172.5353,217.9409 173.6087,217.6721 174.7033,217.5097 175.8086,217.4554 176.9139,217.5097 178.0085,217.6721 179.0819,217.9409 180.1239,218.3137 181.1242,218.7869 182.0734,219.3558 182.9622,220.015 183.7822,220.7581 184.5253,221.5781 185.1845,222.4669 185.7534,223.4161 186.2265,224.4164 186.5994,225.4584 186.8682,226.5318 187.0306,227.6264 187.0849,228.7317 187.0306,229.837 186.8682,230.9316 186.5994,232.005 186.2265,233.0469 185.7534,234.0473 185.1845,234.9965 184.5253,235.8853 183.7822,236.7052 182.9622,237.4484 182.0734,238.1076 181.1242,238.6765 180.1239,239.1496 179.0819,239.5224 178.0085,239.7913 176.9139,239.9537 175.8086,240.008 174.7033,239.9537 173.6087,239.7913 172.5353,239.5224 171.4933,239.1496 170.493,238.6765 169.5438,238.1076 168.655,237.4484 167.835,236.7052 167.0919,235.8853 166.4327,234.9965 165.8638,234.0473 165.3907,233.0469"/>
    <polygon points="172.4927,213.7999 172.0291,213.8227 171.5655,213.7999 171.1063,213.7318 170.656,213.619 170.219,213.4626 169.7994,213.2642 169.4012,213.0255 169.0284,212.749 168.6845,212.4373 168.3728,212.0934 168.0962,211.7205 167.8576,211.3224 167.6591,210.9028 167.5028,210.4657 167.39,210.0155 167.3219,209.5563 167.2991,209.0927 167.3219,208.6291 167.39,208.1699 167.5028,207.7197 167.6591,207.2826 167.8576,206.863 168.0962,206.4649 168.3728,206.092 168.6845,205.7481 169.0284,205.4364 169.4012,205.1599 169.7994,204.9212 170.219,204.7228 170.656,204.5664 171.1063,204.4536 171.5655,204.3855 172.0291,204.3627 172.4927,204.3855 172.9518,204.4536 173.4021,204.5664 173.8392,204.7228 174.2588,204.9212 174.6569,205.1599 175.0297,205.4364 175.3737,205.7481 175.6854,206.092 175.9619,206.4649 176.2005,206.863 176.399,207.2826 176.5554,207.7197 176.6682,208.1699 176.7363,208.6291 176.759,209.0927 176.7363,209.5563 176.6682,210.0155 176.5554,210.4657 176.399,210.9028 176.2005,211.3224 175.9619,211.7205 175.6854,212.0934 175.3737,212.4373 175.0297,212.749 174.6569,213.0255 174.2588,213.2642 173.8392,213.4626 173.4021,213.619 172.9518,213.7318"/>
    <polygon points="197.7069,225.8417 197.3341,226.1182 196.9359,226.3568 196.5163,226.5553 196.0793,226.7117 195.629,226.8244 195.1699,226.8926 194.7062,226.9153 194.2426,226.8926 193.7835,226.8244 193.3332,226.7117 192.8962,226.5553 192.4765,226.3568 192.0784,226.1182 191.7056,225.8417 191.3616,225.53 191.0499,225.186 190.7734,224.8132 190.5348,224.4151 190.3363,223.9954 190.1799,223.5584 190.0672,223.1081 189.999,222.649 189.9763,222.1854 189.999,221.7217 190.0672,221.2626 190.1799,220.8123 190.3363,220.3753 190.5348,219.9557 190.7734,219.5575 191.0499,219.1847 191.3616,218.8408 191.7056,218.529 192.0784,218.2525 192.4765,218.0139 192.8962,217.8154 193.3332,217.6591 193.7835,217.5463 194.2426,217.4782 194.7062,217.4554 195.1699,217.4782 195.629,217.5463 196.0793,217.6591 196.5163,217.8154 196.9359,218.0139 197.3341,218.2525 197.7069,218.529 198.0508,218.8408 198.3626,219.1847 198.6391,219.5575 198.8777,219.9557 199.0762,220.3753 199.2325,220.8123 199.3453,221.2626 199.4134,221.7217 199.4362,222.1854 199.4134,222.649 199.3453,223.1081 199.2325,223.5584 199.0762,223.9954 198.8777,224.4151 198.6391,224.8132 198.3626,225.186 198.0508,225.53"/>
    <polygon points="171.8802,289.5012 174.0421,290.5237 176.2937,291.3293 178.6135,291.9104 180.9791,292.2613 183.3677,292.3787 185.7562,292.2613 188.1218,291.9104 190.4416,291.3293 192.6933,290.5237 194.8551,289.5012 196.9063,288.2718 198.8272,286.8472 200.5991,285.2412 202.2051,283.4692 203.6297,281.5484 204.8592,279.4971 205.8817,277.3353 206.6873,275.0836 207.2684,272.7638 207.6193,270.3983 207.7366,268.0097 207.6193,265.6211 207.2684,263.2555 206.6873,260.9358 205.8817,258.6841 204.8592,256.5222 203.6297,254.471 202.2051,252.5502 200.5991,250.7782 198.8272,249.1722 196.9063,247.7476 194.8551,246.5182 192.6933,245.4957 190.4416,244.69 188.1218,244.109 185.7562,243.7581 183.3677,243.6407 180.9791,243.7581 178.6135,244.109 176.2937,244.69 174.0421,245.4957 171.8802,246.5182 169.829,247.7476 167.9081,249.1722 166.1362,250.7782 164.5302,252.5502 163.1056,254.471 161.8761,256.5222 160.8537,258.6841 160.048,260.9358 159.4669,263.2555 159.116,265.6211 158.9987,268.0097 159.116,270.3983 159.4669,272.7638 160.048,275.0836 160.8537,277.3353 161.8761,279.4971 163.1056,281.5484 164.5302,283.4692 166.1362,285.2412 167.9081,286.8472 169.829,288.2718"/>
    <polygon points="160.8537,311.0548 160.048,313.3064 159.4669,315.6262 159.116,317.9918 158.9987,320.3804 159.116,322.7689 159.4669,325.1345 160.048,327.4543 160.8537,329.706 161.8761,331.8678 163.1056,333.919 164.5302,335.8399 166.1362,337.6118 167.9081,339.2178 169.829,340.6424 171.8802,341.8719 174.0421,342.8944 176.2937,343.7 178.6135,344.2811 180.9791,344.632 183.3677,344.7493 185.7562,344.632 188.1218,344.2811 190.4416,343.7 192.6933,342.8944 194.8551,341.8719 196.9063,340.6424 198.8272,339.2178 200.5991,337.6118 202.2051,335.8399 203.6297,333.919 204.8592,331.8678 205.8817,329.706 206.6873,327.4543 207.2684,325.1345 207.6193,322.7689 207.7366,320.3804 207.6193,317.9918 207.2684,315.6262 206.6873,313.3064 205.8817,311.0548 204.8592,308.8929 203.6297,306.8417 202.2051,304.9209 200.5991,303.1489 198.8272,301.5429 196.9063,300.1183 194.8551,298.8888 192.6933,297.8664 190.4416,297.0607 188.1218,296.4796 185.7562,296.1287 183.3677,296.0114 180.9791,296.1287 178.6135,296.4796 176.2937,297.0607 174.0421,297.8664 171.8802,298.8888 169.829,300.1183 167.9081,301.5429 166.1362,303.1489 164.5302,304.9209 163.1056,306.8417 161.8761,308.8929"/>
    <polygon points="144.4147,301.3486 145.1579,302.1686 145.9778,302.9117 146.8667,303.5709 147.8158,304.1398 148.8162,304.613 149.8581,304.9858 150.9315,305.2547 152.0262,305.417 153.1314,305.4713 154.2367,305.417 155.3313,305.2547 156.4048,304.9858 157.4467,304.613 158.447,304.1398 159.3962,303.5709 160.285,302.9117 161.105,302.1686 161.8481,301.3486 162.5073,300.4598 163.0762,299.5106 163.5494,298.5103 163.9222,297.4684 164.1911,296.3949 164.3534,295.3003 164.4077,294.195 164.3534,293.0898 164.1911,291.9951 163.9222,290.9217 163.5494,289.8798 163.0762,288.8794 162.5073,287.9302 161.8481,287.0414 161.105,286.2215 160.285,285.4783 159.3962,284.8191 158.447,284.2502 157.4467,283.7771 156.4048,283.4043 155.3313,283.1354 154.2367,282.973 153.1314,282.9187 152.0262,282.973 150.9315,283.1354 149.8581,283.4043 148.8162,283.7771 147.8158,284.2502 146.8667,284.8191 145.9778,285.4783 145.1579,286.2215 144.4147,287.0414 143.7555,287.9302 143.1866,288.8794 142.7135,289.8798 142.3407,290.9217 142.0718,291.9951 141.9094,293.0898 141.8551,294.195 141.9094,295.3003 142.0718,296.3949 142.3407,297.4684 142.7135,298.5103 143.1866,299.5106 143.7555,300.4598"/>
    <polygon points="140.3991,354.3428 139.8302,353.3936 139.171,352.5048 138.4278,351.6848 137.6079,350.9417 136.719,350.2825 135.7699,349.7136 134.7695,349.2404 133.7276,348.8676 132.6542,348.5987 131.5595,348.4364 130.4543,348.3821 129.349,348.4364 128.2544,348.5987 127.1809,348.8676 126.139,349.2404 125.1387,349.7136 124.1895,350.2825 123.3007,350.9417 122.4807,351.6848 121.7376,352.5048 121.0784,353.3936 120.5095,354.3428 120.0363,355.3431 119.6635,356.385 119.3946,357.4585 119.2323,358.5531 119.178,359.6584 119.2323,360.7636 119.3946,361.8583 119.6635,362.9317 120.0363,363.9736 120.5095,364.974 121.0784,365.9231 121.7376,366.812 122.4807,367.6319 123.3007,368.3751 124.1895,369.0343 125.1387,369.6032 126.139,370.0763 127.1809,370.4491 128.2544,370.718 129.349,370.8804 130.4543,370.9347 131.5595,370.8804 132.6542,370.718 133.7276,370.4491 134.7695,370.0763 135.7699,369.6032 136.719,369.0343 137.6079,368.3751 138.4278,367.6319 139.171,366.812 139.8302,365.9231 140.3991,364.974 140.8722,363.9736 141.245,362.9317 141.5139,361.8583 141.6763,360.7636 141.7306,359.6584 141.6763,358.5531 141.5139,357.4585 141.245,356.385 140.8722,355.3431"/>
    <polygon points="147.8158,356.5105 148.8162,356.9836 149.8581,357.3565 150.9315,357.6253 152.0262,357.7877 153.1314,357.842 154.2367,357.7877 155.3313,357.6253 156.4048,357.3565 157.4467,356.9836 158.447,356.5105 159.3962,355.9416 160.285,355.2824 161.105,354.5393 161.8481,353.7193 162.5073,352.8305 163.0762,351.8813 163.5494,350.881 163.9222,349.839 164.1911,348.7656 164.3534,347.671 164.4077,346.5657 164.3534,345.4604 164.1911,344.3658 163.9222,343.2924 163.5494,342.2504 163.0762,341.2501 162.5073,340.3009 161.8481,339.4121 161.105,338.5921 160.285,337.849 159.3962,337.1898 158.447,336.6209 157.4467,336.1478 156.4048,335.7749 155.3313,335.5061 154.2367,335.3437 153.1314,335.2894 152.0262,335.3437 150.9315,335.5061 149.8581,335.7749 148.8162,336.1478 147.8158,336.6209 146.8667,337.1898 145.9778,337.849 145.1579,338.5921 144.4147,339.4121 143.7555,340.3009 143.1866,341.2501 142.7135,342.2504 142.3407,343.2924 142.0718,344.3658 141.9094,345.4604 141.8551,346.5657 141.9094,347.671 142.0718,348.7656 142.3407,349.839 142.7135,350.881 143.1866,351.8813 143.7555,352.8305 144.4147,353.7193 145.1579,354.5393 145.9778,355.2824 146.8667,355.9416"/>
    <polygon points="151.162,361.8348 150.7249,361.6784 150.2747,361.5656 149.8155,361.4975 149.3519,361.4747 148.8883,361.4975 148.4291,361.5656 147.9789,361.6784 147.5418,361.8348 147.1222,362.0332 146.7241,362.2719 146.3512,362.5484 146.0073,362.8601 145.6956,363.204 145.4191,363.5769 145.1804,363.975 144.982,364.3946 144.8256,364.8317 144.7128,365.2819 144.6447,365.7411 144.6219,366.2047 144.6447,366.6683 144.7128,367.1275 144.8256,367.5777 144.982,368.0148 145.1804,368.4344 145.4191,368.8325 145.6956,369.2054 146.0073,369.5493 146.3512,369.861 146.7241,370.1375 147.1222,370.3762 147.5418,370.5746 147.9789,370.731 148.4291,370.8438 148.8883,370.9119 149.3519,370.9347 149.8155,370.9119 150.2747,370.8438 150.7249,370.731 151.162,370.5746 151.5816,370.3762 151.9797,370.1375 152.3526,369.861 152.6965,369.5493 153.0082,369.2054 153.2847,368.8325 153.5234,368.4344 153.7218,368.0148 153.8782,367.5777 153.991,367.1275 154.0591,366.6683 154.0819,366.2047 154.0591,365.7411 153.991,365.2819 153.8782,364.8317 153.7218,364.3946 153.5234,363.975 153.2847,363.5769 153.0082,363.204 152.6965,362.8601 152.3526,362.5484 151.9797,362.2719 151.5816,362.0332"/>
    <polygon points="148.8883,374.5902 148.4291,374.6583 147.9789,374.7711 147.5418,374.9274 147.1222,375.1259 146.7241,375.3645 146.3512,375.6411 146.0073,375.9528 145.6956,376.2967 145.4191,376.6695 145.1804,377.0677 144.982,377.4873 144.8256,377.9243 144.7128,378.3746 144.6447,378.8338 144.6219,379.2974 144.6447,379.761 144.7128,380.2201 144.8256,380.6704 144.982,381.1075 145.1804,381.5271 145.4191,381.9252 145.6956,382.298 146.0073,382.642 146.3512,382.9537 146.7241,383.2302 147.1222,383.4688 147.5418,383.6673 147.9789,383.8237 148.4291,383.9365 148.8883,384.0046 149.3519,384.0273 149.8155,384.0046 150.2747,383.9365 150.7249,383.8237 151.162,383.6673 151.5816,383.4688 151.9797,383.2302 152.3526,382.9537 152.6965,382.642 153.0082,382.298 153.2847,381.9252 153.5234,381.5271 153.7218,381.1075 153.8782,380.6704 153.991,380.2201 154.0591,379.761 154.0819,379.2974 154.0591,378.8338 153.991,378.3746 153.8782,377.9243 153.7218,377.4873 153.5234,377.0677 153.2847,376.6695 153.0082,376.2967 152.6965,375.9528 152.3526,375.6411 151.9797,375.3645 151.5816,375.1259 151.162,374.9274 150.7249,374.7711 150.2747,374.6583 149.8155,374.5902 149.3519,374.5674"/>
    <polygon points="162.5006,377.121 162.9202,376.9225 163.3183,376.6839 163.6912,376.4074 164.0351,376.0956 164.3468,375.7517 164.6233,375.3789 164.862,374.9807 165.0604,374.5611 165.2168,374.1241 165.3296,373.6738 165.3977,373.2147 165.4205,372.751 165.3977,372.2874 165.3296,371.8283 165.2168,371.378 165.0604,370.941 164.862,370.5213 164.6233,370.1232 164.3468,369.7504 164.0351,369.4064 163.6912,369.0947 163.3183,368.8182 162.9202,368.5796 162.5006,368.3811 162.0635,368.2247 161.6133,368.1119 161.1541,368.0438 160.6905,368.0211 160.2269,368.0438 159.7677,368.1119 159.3175,368.2247 158.8804,368.3811 158.4608,368.5796 158.0627,368.8182 157.6898,369.0947 157.3459,369.4064 157.0342,369.7504 156.7577,370.1232 156.519,370.5213 156.3206,370.941 156.1642,371.378 156.0514,371.8283 155.9833,372.2874 155.9605,372.751 155.9833,373.2147 156.0514,373.6738 156.1642,374.1241 156.3206,374.5611 156.519,374.9807 156.7577,375.3789 157.0342,375.7517 157.3459,376.0956 157.6898,376.4074 158.0627,376.6839 158.4608,376.9225 158.8804,377.121 159.3175,377.2773 159.7677,377.3901 160.2269,377.4582 160.6905,377.481 161.1541,377.4582 161.6133,377.3901 162.0635,377.2773"/>
    <polygon points="170.493,369.6032 171.4933,370.0763 172.5353,370.4491 173.6087,370.718 174.7033,370.8804 175.8086,370.9347 176.9139,370.8804 178.0085,370.718 179.0819,370.4491 180.1239,370.0763 181.1242,369.6032 182.0734,369.0343 182.9622,368.3751 183.7822,367.6319 184.5253,366.812 185.1845,365.9231 185.7534,364.974 186.2265,363.9736 186.5994,362.9317 186.8682,361.8583 187.0306,360.7636 187.0849,359.6584 187.0306,358.5531 186.8682,357.4585 186.5994,356.385 186.2265,355.3431 185.7534,354.3428 185.1845,353.3936 184.5253,352.5048 183.7822,351.6848 182.9622,350.9417 182.0734,350.2825 181.1242,349.7136 180.1239,349.2404 179.0819,348.8676 178.0085,348.5987 176.9139,348.4364 175.8086,348.3821 174.7033,348.4364 173.6087,348.5987 172.5353,348.8676 171.4933,349.2404 170.493,349.7136 169.5438,350.2825 168.655,350.9417 167.835,351.6848 167.0919,352.5048 166.4327,353.3936 165.8638,354.3428 165.3907,355.3431 165.0178,356.385 164.749,357.4585 164.5866,358.5531 164.5323,359.6584 164.5866,360.7636 164.749,361.8583 165.0178,362.9317 165.3907,363.9736 165.8638,364.974 166.4327,365.9231 167.0919,366.812 167.835,367.6319 168.655,368.3751 169.5438,369.0343"/>
    <polygon points="172.9518,383.9365 173.4021,383.8237 173.8392,383.6673 174.2588,383.4688 174.6569,383.2302 175.0297,382.9537 175.3737,382.642 175.6854,382.298 175.9619,381.9252 176.2005,381.5271 176.399,381.1075 176.5554,380.6704 176.6682,380.2201 176.7363,379.761 176.759,379.2974 176.7363,378.8338 176.6682,378.3746 176.5554,377.9243 176.399,377.4873 176.2005,377.0677 175.9619,376.6695 175.6854,376.2967 175.3737,375.9528 175.0297,375.6411 174.6569,375.3645 174.2588,375.1259 173.8392,374.9274 173.4021,374.7711 172.9518,374.6583 172.4927,374.5902 172.0291,374.5674 171.5655,374.5902 171.1063,374.6583 170.656,374.7711 170.219,374.9274 169.7994,375.1259 169.4012,375.3645 169.0284,375.6411 168.6845,375.9528 168.3728,376.2967 168.0962,376.6695 167.8576,377.0677 167.6591,377.4873 167.5028,377.9243 167.39,378.3746 167.3219,378.8338 167.2991,379.2974 167.3219,379.761 167.39,380.2201 167.5028,380.6704 167.6591,381.1075 167.8576,381.5271 168.0962,381.9252 168.3728,382.298 168.6845,382.642 169.0284,382.9537 169.4012,383.2302 169.7994,383.4688 170.219,383.6673 170.656,383.8237 171.1063,383.9365 171.5655,384.0046 172.0291,384.0273 172.4927,384.0046"/>
    <polygon points="195.629,370.8438 196.0793,370.731 196.5163,370.5746 196.9359,370.3762 197.3341,370.1375 197.7069,369.861 198.0508,369.5493 198.3626,369.2054 198.6391,368.8325 198.8777,368.4344 199.0762,368.0148 199.2325,367.5777 199.3453,367.1275 199.4134,366.6683 199.4362,366.2047 199.4134,365.7411 199.3453,365.2819 199.2325,364.8317 199.0762,364.3946 198.8777,363.975 198.6391,363.5769 198.3626,363.204 198.0508,362.8601 197.7069,362.5484 197.3341,362.2719 196.9359,362.0332 196.5163,361.8348 196.0793,361.6784 195.629,361.5656 195.1699,361.4975 194.7062,361.4747 194.2426,361.4975 193.7835,361.5656 193.3332,361.6784 192.8962,361.8348 192.4765,362.0332 192.0784,362.2719 191.7056,362.5484 191.3616,362.8601 191.0499,363.204 190.7734,363.5769 190.5348,363.975 190.3363,364.3946 190.1799,364.8317 190.0672,365.2819 189.999,365.7411 189.9763,366.2047 189.999,366.6683 190.0672,367.1275 190.1799,367.5777 190.3363,368.0148 190.5348,368.4344 190.7734,368.8325 191.0499,369.2054 191.3616,369.5493 191.7056,369.861 192.0784,370.1375 192.4765,370.3762 192.8962,370.5746 193.3332,370.731 193.7835,370.8438 194.2426,370.9119 194.7062,370.9347 195.1699,370.9119"/>
    <polygon points="210.1033,331.2731 209.9409,332.3678 209.8866,333.473 209.9409,334.5783 210.1033,335.6729 210.3722,336.7464 210.745,337.7883 211.2181,338.7886 211.787,339.7378 212.4462,340.6266 213.1894,341.4466 214.0093,342.1897 214.8982,342.8489 215.8473,343.4178 216.8477,343.891 217.8896,344.2638 218.963,344.5327 220.0577,344.695 221.1629,344.7493 222.2682,344.695 223.3628,344.5327 224.4363,344.2638 225.4782,343.891 226.4785,343.4178 227.4277,342.8489 228.3165,342.1897 229.1365,341.4466 229.8796,340.6266 230.5388,339.7378 231.1077,338.7886 231.5809,337.7883 231.9537,336.7464 232.2226,335.6729 232.3849,334.5783 232.4392,333.473 232.3849,332.3678 232.2226,331.2731 231.9537,330.1997 231.5809,329.1578 231.1077,328.1574 230.5388,327.2083 229.8796,326.3194 229.1365,325.4995 228.3165,324.7563 227.4277,324.0971 226.4785,323.5282 225.4782,323.0551 224.4363,322.6823 223.3628,322.4134 222.2682,322.251 221.1629,322.1967 220.0577,322.251 218.963,322.4134 217.8896,322.6823 216.8477,323.0551 215.8473,323.5282 214.8982,324.0971 214.0093,324.7563 213.1894,325.4995 212.4462,326.3194 211.787,327.2083 211.2181,328.1574 210.745,329.1578 210.3722,330.1997"/>
    <polygon points="218.963,318.3473 220.0577,318.5097 221.1629,318.564 222.2682,318.5097 223.3628,318.3473 224.4363,318.0784 225.4782,317.7056 226.4785,317.2325 227.4277,316.6636 228.3165,316.0044 229.1365,315.2612 229.8796,314.4413 230.5388,313.5525 231.1077,312.6033 231.5809,311.603 231.9537,310.561 232.2226,309.4876 232.3849,308.393 232.4392,307.2877 232.3849,306.1824 232.2226,305.0878 231.9537,304.0144 231.5809,302.9724 231.1077,301.9721 230.5388,301.0229 229.8796,300.1341 229.1365,299.3141 228.3165,298.571 227.4277,297.9118 226.4785,297.3429 225.4782,296.8697 224.4363,296.4969 223.3628,296.2281 222.2682,296.0657 221.1629,296.0114 220.0577,296.0657 218.963,296.2281 217.8896,296.4969 216.8477,296.8697 215.8473,297.3429 214.8982,297.9118 214.0093,298.571 213.1894,299.3141 212.4462,300.1341 211.787,301.0229 211.2181,301.9721 210.745,302.9724 210.3722,304.0144 210.1033,305.0878 209.9409,306.1824 209.8866,307.2877 209.9409,308.393 210.1033,309.4876 210.3722,310.561 210.745,311.603 211.2181,312.6033 211.787,313.5525 212.4462,314.4413 213.1894,315.2612 214.0093,316.0044 214.8982,316.6636 215.8473,317.2325 216.8477,317.7056 217.8896,318.0784"/>
    <polygon points="235.4215,314.7568 235.5343,315.2071 235.6906,315.6441 235.8891,316.0637 236.1277,316.4619 236.4043,316.8347 236.716,317.1786 237.0599,317.4903 237.4327,317.7669 237.8309,318.0055 238.2505,318.204 238.6875,318.3603 239.1378,318.4731 239.597,318.5412 240.0606,318.564 240.5242,318.5412 240.9833,318.4731 241.4336,318.3603 241.8707,318.204 242.2903,318.0055 242.6884,317.7669 243.0612,317.4903 243.4052,317.1786 243.7169,316.8347 243.9934,316.4619 244.232,316.0637 244.4305,315.6441 244.5869,315.2071 244.6997,314.7568 244.7678,314.2976 244.7905,313.834 244.7678,313.3704 244.6997,312.9113 244.5869,312.461 244.4305,312.0239 244.232,311.6043 243.9934,311.2062 243.7169,310.8334 243.4052,310.4894 243.0612,310.1777 242.6884,309.9012 242.2903,309.6626 241.8707,309.4641 241.4336,309.3077 240.9833,309.1949 240.5242,309.1268 240.0606,309.1041 239.597,309.1268 239.1378,309.1949 238.6875,309.3077 238.2505,309.4641 237.8309,309.6626 237.4327,309.9012 237.0599,310.1777 236.716,310.4894 236.4043,310.8334 236.1277,311.2062 235.8891,311.6043 235.6906,312.0239 235.5343,312.461 235.4215,312.9113 235.3534,313.3704 235.3306,313.834 235.3534,314.2976"/>
    <polygon points="238.2505,305.1113 238.6875,305.2677 239.1378,305.3805 239.597,305.4486 240.0606,305.4713 240.5242,305.4486 240.9833,305.3805 241.4336,305.2677 241.8707,305.1113 242.2903,304.9128 242.6884,304.6742 243.0612,304.3977 243.4052,304.086 243.7169,303.742 243.9934,303.3692 244.232,302.9711 244.4305,302.5514 244.5869,302.1144 244.6997,301.6641 244.7678,301.205 244.7905,300.7414 244.7678,300.2777 244.6997,299.8186 244.5869,299.3683 244.4305,298.9313 244.232,298.5117 243.9934,298.1135 243.7169,297.7407 243.4052,297.3968 243.0612,297.085 242.6884,296.8085 242.2903,296.5699 241.8707,296.3714 241.4336,296.2151 240.9833,296.1023 240.5242,296.0342 240.0606,296.0114 239.597,296.0342 239.1378,296.1023 238.6875,296.2151 238.2505,296.3714 237.8309,296.5699 237.4327,296.8085 237.0599,297.085 236.716,297.3968 236.4043,297.7407 236.1277,298.1135 235.8891,298.5117 235.6906,298.9313 235.5343,299.3683 235.4215,299.8186 235.3534,300.2777 235.3306,300.7414 235.3534,301.205 235.4215,301.6641 235.5343,302.1144 235.6906,302.5514 235.8891,302.9711 236.1277,303.3692 236.4043,303.742 236.716,304.086 237.0599,304.3977 237.4327,304.6742 237.8309,304.9128"/>
    <polygon points="228.3165,289.8191 227.4277,290.4783 226.4785,291.0472 225.4782,291.5203 224.4363,291.8931 223.3628,292.162 222.2682,292.3244 221.1629,292.3787 220.0577,292.3244 218.963,292.162 217.8896,291.8931 216.8477,291.5203 215.8473,291.0472 214.8982,290.4783 214.0093,289.8191 213.1894,289.0759 212.4462,288.256 211.787,287.3671 211.2181,286.418 210.745,285.4176 210.3722,284.3757 210.1033,283.3023 209.9409,282.2076 209.8866,281.1024 209.9409,279.9971 210.1033,278.9025 210.3722,277.829 210.745,276.7871 211.2181,275.7867 211.787,274.8376 212.4462,273.9487 213.1894,273.1288 214.0093,272.3857 214.8982,271.7265 215.8473,271.1575 216.8477,270.6844 217.8896,270.3116 218.963,270.0427 220.0577,269.8804 221.1629,269.8261 222.2682,269.8804 223.3628,270.0427 224.4363,270.3116 225.4782,270.6844 226.4785,271.1575 227.4277,271.7265 228.3165,272.3857 229.1365,273.1288 229.8796,273.9487 230.5388,274.8376 231.1077,275.7867 231.5809,276.7871 231.9537,277.829 232.2226,278.9025 232.3849,279.9971 232.4392,281.1024 232.3849,282.2076 232.2226,283.3023 231.9537,284.3757 231.5809,285.4176 231.1077,286.418 230.5388,287.3671 229.8796,288.256 229.1365,289.0759"/>
    <polygon points="235.5343,289.0217 235.4215,288.5715 235.3534,288.1123 235.3306,287.6487 235.3534,287.1851 235.4215,286.7259 235.5343,286.2757 235.6906,285.8386 235.8891,285.419 236.1277,285.0209 236.4043,284.648 236.716,284.3041 237.0599,283.9924 237.4327,283.7159 237.8309,283.4772 238.2505,283.2788 238.6875,283.1224 239.1378,283.0096 239.597,282.9415 240.0606,282.9187 240.5242,282.9415 240.9833,283.0096 241.4336,283.1224 241.8707,283.2788 242.2903,283.4772 242.6884,283.7159 243.0612,283.9924 243.4052,284.3041 243.7169,284.648 243.9934,285.0209 244.232,285.419 244.4305,285.8386 244.5869,286.2757 244.6997,286.7259 244.7678,287.1851 244.7905,287.6487 244.7678,288.1123 244.6997,288.5715 244.5869,289.0217 244.4305,289.4588 244.232,289.8784 243.9934,290.2765 243.7169,290.6494 243.4052,290.9933 243.0612,291.305 242.6884,291.5815 242.2903,291.8202 241.8707,292.0186 241.4336,292.175 240.9833,292.2878 240.5242,292.3559 240.0606,292.3787 239.597,292.3559 239.1378,292.2878 238.6875,292.175 238.2505,292.0186 237.8309,291.8202 237.4327,291.5815 237.0599,291.305 236.716,290.9933 236.4043,290.6494 236.1277,290.2765 235.8891,289.8784 235.6906,289.4588"/>
    <polygon points="255.0555,291.1944 254.7437,290.8504 254.3998,290.5387 254.027,290.2622 253.6288,290.0236 253.2092,289.8251 252.7722,289.6687 252.3219,289.5559 251.8628,289.4878 251.3992,289.4651 250.9355,289.4878 250.4764,289.5559 250.0261,289.6687 249.5891,289.8251 249.1695,290.0236 248.7713,290.2622 248.3985,290.5387 248.0546,290.8504 247.7428,291.1944 247.4663,291.5672 247.2277,291.9653 247.0292,292.3849 246.8728,292.822 246.7601,293.2723 246.692,293.7314 246.6692,294.195 246.692,294.6586 246.7601,295.1178 246.8728,295.5681 247.0292,296.0051 247.2277,296.4247 247.4663,296.8229 247.7428,297.1957 248.0546,297.5396 248.3985,297.8513 248.7713,298.1279 249.1695,298.3665 249.5891,298.565 250.0261,298.7213 250.4764,298.8341 250.9355,298.9022 251.3992,298.925 251.8628,298.9022 252.3219,298.8341 252.7722,298.7213 253.2092,298.565 253.6288,298.3665 254.027,298.1279 254.3998,297.8513 254.7437,297.5396 255.0555,297.1957 255.332,296.8229 255.5706,296.4247 255.7691,296.0051 255.9255,295.5681 256.0382,295.1178 256.1063,294.6586 256.1291,294.195 256.1063,293.7314 256.0382,293.2723 255.9255,292.822 255.7691,292.3849 255.5706,291.9653 255.332,291.5672"/>
    <polygon points="264.1108,270.0297 263.6605,269.9169 263.2014,269.8488 262.7377,269.8261 262.2741,269.8488 261.815,269.9169 261.3647,270.0297 260.9277,270.1861 260.508,270.3846 260.1099,270.6232 259.7371,270.8997 259.3931,271.2114 259.0814,271.5554 258.8049,271.9282 258.5663,272.3263 258.3678,272.7459 258.2114,273.183 258.0986,273.6333 258.0305,274.0924 258.0078,274.556 258.0305,275.0196 258.0986,275.4788 258.2114,275.9291 258.3678,276.3661 258.5663,276.7857 258.8049,277.1839 259.0814,277.5567 259.3931,277.9006 259.7371,278.2123 260.1099,278.4889 260.508,278.7275 260.9277,278.926 261.3647,279.0823 261.815,279.1951 262.2741,279.2632 262.7377,279.286 263.2014,279.2632 263.6605,279.1951 264.1108,279.0823 264.5478,278.926 264.9674,278.7275 265.3656,278.4889 265.7384,278.2123 266.0823,277.9006 266.3941,277.5567 266.6706,277.1839 266.9092,276.7857 267.1077,276.3661 267.264,275.9291 267.3768,275.4788 267.4449,275.0196 267.4677,274.556 267.4449,274.0924 267.3768,273.6333 267.264,273.183 267.1077,272.7459 266.9092,272.3263 266.6706,271.9282 266.3941,271.5554 266.0823,271.2114 265.7384,270.8997 265.3656,270.6232 264.9674,270.3846 264.5478,270.1861"/>
    <polygon points="251.8136,260.0361 250.9937,259.293 250.1049,258.6338 249.1557,258.0649 248.1554,257.5917 247.1134,257.2189 246.04,256.9501 244.9454,256.7877 243.8401,256.7334 242.7348,256.7877 241.6402,256.9501 240.5668,257.2189 239.5248,257.5917 238.5245,258.0649 237.5753,258.6338 236.6865,259.293 235.8665,260.0361 235.1234,260.8561 234.4642,261.7449 233.8953,262.6941 233.4221,263.6944 233.0493,264.7364 232.7805,265.8098 232.6181,266.9044 232.5638,268.0097 232.6181,269.115 232.7805,270.2096 233.0493,271.283 233.4221,272.325 233.8953,273.3253 234.4642,274.2745 235.1234,275.1633 235.8665,275.9832 236.6865,276.7264 237.5753,277.3856 238.5245,277.9545 239.5248,278.4276 240.5668,278.8004 241.6402,279.0693 242.7348,279.2317 243.8401,279.286 244.9454,279.2317 246.04,279.0693 247.1134,278.8004 248.1554,278.4276 249.1557,277.9545 250.1049,277.3856 250.9937,276.7264 251.8136,275.9832 252.5568,275.1633 253.216,274.2745 253.7849,273.3253 254.258,272.325 254.6308,271.283 254.8997,270.2096 255.0621,269.115 255.1164,268.0097 255.0621,266.9044 254.8997,265.8098 254.6308,264.7364 254.258,263.6944 253.7849,262.6941 253.216,261.7449 252.5568,260.8561"/>
    <polygon points="239.597,243.6635 239.1378,243.7316 238.6875,243.8444 238.2505,244.0008 237.8309,244.1992 237.4327,244.4379 237.0599,244.7144 236.716,245.0261 236.4043,245.37 236.1277,245.7429 235.8891,246.141 235.6906,246.5606 235.5343,246.9977 235.4215,247.4479 235.3534,247.9071 235.3306,248.3707 235.3534,248.8343 235.4215,249.2935 235.5343,249.7437 235.6906,250.1808 235.8891,250.6004 236.1277,250.9985 236.4043,251.3714 236.716,251.7153 237.0599,252.027 237.4327,252.3035 237.8309,252.5422 238.2505,252.7406 238.6875,252.897 239.1378,253.0098 239.597,253.0779 240.0606,253.1007 240.5242,253.0779 240.9833,253.0098 241.4336,252.897 241.8707,252.7406 242.2903,252.5422 242.6884,252.3035 243.0612,252.027 243.4052,251.7153 243.7169,251.3714 243.9934,250.9985 244.232,250.6004 244.4305,250.1808 244.5869,249.7437 244.6997,249.2935 244.7678,248.8343 244.7905,248.3707 244.7678,247.9071 244.6997,247.4479 244.5869,246.9977 244.4305,246.5606 244.232,246.141 243.9934,245.7429 243.7169,245.37 243.4052,245.0261 243.0612,244.7144 242.6884,244.4379 242.2903,244.1992 241.8707,244.0008 241.4336,243.8444 240.9833,243.7316 240.5242,243.6635 240.0606,243.6407"/>
    <polygon points="218.963,243.8574 217.8896,244.1263 216.8477,244.4991 215.8473,244.9722 214.8982,245.5411 214.0093,246.2003 213.1894,246.9435 212.4462,247.7634 211.787,248.6522 211.2181,249.6014 210.745,250.6018 210.3722,251.6437 210.1033,252.7171 209.9409,253.8118 209.8866,254.917 209.9409,256.0223 210.1033,257.1169 210.3722,258.1904 210.745,259.2323 211.2181,260.2326 211.787,261.1818 212.4462,262.0706 213.1894,262.8906 214.0093,263.6337 214.8982,264.2929 215.8473,264.8618 216.8477,265.335 217.8896,265.7078 218.963,265.9767 220.0577,266.139 221.1629,266.1933 222.2682,266.139 223.3628,265.9767 224.4363,265.7078 225.4782,265.335 226.4785,264.8618 227.4277,264.2929 228.3165,263.6337 229.1365,262.8906 229.8796,262.0706 230.5388,261.1818 231.1077,260.2326 231.5809,259.2323 231.9537,258.1904 232.2226,257.1169 232.3849,256.0223 232.4392,254.917 232.3849,253.8118 232.2226,252.7171 231.9537,251.6437 231.5809,250.6018 231.1077,249.6014 230.5388,248.6522 229.8796,247.7634 229.1365,246.9435 228.3165,246.2003 227.4277,245.5411 226.4785,244.9722 225.4782,244.4991 224.4363,244.1263 223.3628,243.8574 222.2682,243.695 221.1629,243.6407 220.0577,243.695"/>
    <polygon points="219.6131,231.1066 219.1935,230.9081 218.7564,230.7517 218.3062,230.6389 217.847,230.5708 217.3834,230.5481 216.9198,230.5708 216.4606,230.6389 216.0104,230.7517 215.5733,230.9081 215.1537,231.1066 214.7556,231.3452 214.3827,231.6217 214.0388,231.9334 213.7271,232.2774 213.4506,232.6502 213.2119,233.0483 213.0135,233.4679 212.8571,233.905 212.7443,234.3553 212.6762,234.8144 212.6534,235.278 212.6762,235.7416 212.7443,236.2008 212.8571,236.6511 213.0135,237.0881 213.2119,237.5077 213.4506,237.9059 213.7271,238.2787 214.0388,238.6226 214.3827,238.9343 214.7556,239.2109 215.1537,239.4495 215.5733,239.648 216.0104,239.8043 216.4606,239.9171 216.9198,239.9852 217.3834,240.008 217.847,239.9852 218.3062,239.9171 218.7564,239.8043 219.1935,239.648 219.6131,239.4495 220.0112,239.2109 220.3841,238.9343 220.728,238.6226 221.0397,238.2787 221.3162,237.9059 221.5549,237.5077 221.7533,237.0881 221.9097,236.6511 222.0225,236.2008 222.0906,235.7416 222.1134,235.278 222.0906,234.8144 222.0225,234.3553 221.9097,233.905 221.7533,233.4679 221.5549,233.0483 221.3162,232.6502 221.0397,232.2774 220.728,231.9334 220.3841,231.6217 220.0112,231.3452"/>
    <polygon points="267.4449,234.8144 267.3768,234.3553 267.264,233.905 267.1077,233.4679 266.9092,233.0483 266.6706,232.6502 266.3941,232.2774 266.0823,231.9334 265.7384,231.6217 265.3656,231.3452 264.9674,231.1066 264.5478,230.9081 264.1108,230.7517 263.6605,230.6389 263.2014,230.5708 262.7377,230.5481 262.2741,230.5708 261.815,230.6389 261.3647,230.7517 260.9277,230.9081 260.508,231.1066 260.1099,231.3452 259.7371,231.6217 259.3931,231.9334 259.0814,232.2774 258.8049,232.6502 258.5663,233.0483 258.3678,233.4679 258.2114,233.905 258.0986,234.3553 258.0305,234.8144 258.0078,235.278 258.0305,235.7416 258.0986,236.2008 258.2114,236.6511 258.3678,237.0881 258.5663,237.5077 258.8049,237.9059 259.0814,238.2787 259.3931,238.6226 259.7371,238.9343 260.1099,239.2109 260.508,239.4495 260.9277,239.648 261.3647,239.8043 261.815,239.9171 262.2741,239.9852 262.7377,240.008 263.2014,239.9852 263.6605,239.9171 264.1108,239.8043 264.5478,239.648 264.9674,239.4495 265.3656,239.2109 265.7384,238.9343 266.0823,238.6226 266.3941,238.2787 266.6706,237.9059 266.9092,237.5077 267.1077,237.0881 267.264,236.6511 267.3768,236.2008 267.4449,235.7416 267.4677,235.278"/>
    <polygon points="271.8329,244.9722 272.782,245.5411 273.6709,246.2003 274.4908,246.9435 275.234,247.7634 275.8932,248.6522 276.4621,249.6014 276.9352,250.6018 277.308,251.6437 277.5769,252.7171 277.7393,253.8118 277.7936,254.917 277.7393,256.0223 277.5769,257.1169 277.308,258.1904 276.9352,259.2323 276.4621,260.2326 275.8932,261.1818 275.234,262.0706 274.4908,262.8906 273.6709,263.6337 272.782,264.2929 271.8329,264.8618 270.8325,265.335 269.7906,265.7078 268.7172,265.9767 267.6225,266.139 266.5173,266.1933 265.412,266.139 264.3174,265.9767 263.2439,265.7078 262.202,265.335 261.2016,264.8618 260.2525,264.2929 259.3636,263.6337 258.5437,262.8906 257.8006,262.0706 257.1414,261.1818 256.5724,260.2326 256.0993,259.2323 255.7265,258.1904 255.4576,257.1169 255.2953,256.0223 255.241,254.917 255.2953,253.8118 255.4576,252.7171 255.7265,251.6437 256.0993,250.6018 256.5724,249.6014 257.1414,248.6522 257.8006,247.7634 258.5437,246.9435 259.3636,246.2003 260.2525,245.5411 261.2016,244.9722 262.202,244.4991 263.2439,244.1263 264.3174,243.8574 265.412,243.695 266.5173,243.6407 267.6225,243.695 268.7172,243.8574 269.7906,244.1263 270.8325,244.4991"/>
    <polygon points="274.0763,233.4617 273.6127,233.4389 273.1535,233.3708 272.7033,233.258 272.2662,233.1016 271.8466,232.9032 271.4485,232.6645 271.0757,232.388 270.7317,232.0763 270.42,231.7324 270.1435,231.3595 269.9049,230.9614 269.7064,230.5418 269.55,230.1047 269.4372,229.6545 269.3691,229.1953 269.3463,228.7317 269.3691,228.2681 269.4372,227.8089 269.55,227.3587 269.7064,226.9216 269.9049,226.502 270.1435,226.1039 270.42,225.731 270.7317,225.3871 271.0757,225.0754 271.4485,224.7989 271.8466,224.5602 272.2662,224.3618 272.7033,224.2054 273.1535,224.0926 273.6127,224.0245 274.0763,224.0017 274.5399,224.0245 274.9991,224.0926 275.4494,224.2054 275.8864,224.3618 276.306,224.5602 276.7041,224.7989 277.077,225.0754 277.4209,225.3871 277.7326,225.731 278.0091,226.1039 278.2478,226.502 278.4462,226.9216 278.6026,227.3587 278.7154,227.8089 278.7835,228.2681 278.8063,228.7317 278.7835,229.1953 278.7154,229.6545 278.6026,230.1047 278.4462,230.5418 278.2478,230.9614 278.0091,231.3595 277.7326,231.7324 277.4209,232.0763 277.077,232.388 276.7041,232.6645 276.306,232.9032 275.8864,233.1016 275.4494,233.258 274.9991,233.3708 274.5399,233.4389"/>
    <polygon points="286.9945,230.7647 285.9211,231.0336 284.8792,231.4064 283.8788,231.8795 282.9296,232.4485 282.0408,233.1077 281.2209,233.8508 280.4777,234.6707 279.8185,235.5596 279.2496,236.5087 278.7765,237.5091 278.4037,238.551 278.1348,239.6245 277.9724,240.7191 277.9181,241.8244 277.9724,242.9296 278.1348,244.0243 278.4037,245.0977 278.7765,246.1396 279.2496,247.14 279.8185,248.0891 280.4777,248.978 281.2209,249.7979 282.0408,250.5411 282.9296,251.2003 283.8788,251.7692 284.8792,252.2423 285.9211,252.6151 286.9945,252.884 288.0892,253.0464 289.1944,253.1007 290.2997,253.0464 291.3943,252.884 292.4678,252.6151 293.5097,252.2423 294.51,251.7692 295.4592,251.2003 296.348,250.5411 297.168,249.7979 297.9111,248.978 298.5703,248.0891 299.1392,247.14 299.6124,246.1396 299.9852,245.0977 300.2541,244.0243 300.4164,242.9296 300.4707,241.8244 300.4164,240.7191 300.2541,239.6245 299.9852,238.551 299.6124,237.5091 299.1392,236.5087 298.5703,235.5596 297.9111,234.6707 297.168,233.8508 296.348,233.1077 295.4592,232.4485 294.51,231.8795 293.5097,231.4064 292.4678,231.0336 291.3943,230.7647 290.2997,230.6024 289.1944,230.5481 288.0892,230.6024"/>
    <polygon points="290.054,221.2626 289.9412,220.8123 289.7848,220.3753 289.5864,219.9557 289.3477,219.5575 289.0712,219.1847 288.7595,218.8408 288.4156,218.529 288.0427,218.2525 287.6446,218.0139 287.225,217.8154 286.7879,217.6591 286.3377,217.5463 285.8785,217.4782 285.4149,217.4554 284.9513,217.4782 284.4921,217.5463 284.0419,217.6591 283.6048,217.8154 283.1852,218.0139 282.7871,218.2525 282.4142,218.529 282.0703,218.8408 281.7586,219.1847 281.4821,219.5575 281.2434,219.9557 281.045,220.3753 280.8886,220.8123 280.7758,221.2626 280.7077,221.7217 280.6849,222.1854 280.7077,222.649 280.7758,223.1081 280.8886,223.5584 281.045,223.9954 281.2434,224.4151 281.4821,224.8132 281.7586,225.186 282.0703,225.53 282.4142,225.8417 282.7871,226.1182 283.1852,226.3568 283.6048,226.5553 284.0419,226.7117 284.4921,226.8244 284.9513,226.8926 285.4149,226.9153 285.8785,226.8926 286.3377,226.8244 286.7879,226.7117 287.225,226.5553 287.6446,226.3568 288.0427,226.1182 288.4156,225.8417 288.7595,225.53 289.0712,225.186 289.3477,224.8132 289.5864,224.4151 289.7848,223.9954 289.9412,223.5584 290.054,223.1081 290.1221,222.649 290.1449,222.1854 290.1221,221.7217"/>
    <polygon points="305.0914,238.9343 305.4642,239.2109 305.8624,239.4495 306.282,239.648 306.719,239.8043 307.1693,239.9171 307.6284,239.9852 308.0921,240.008 308.5557,239.9852 309.0148,239.9171 309.4651,239.8043 309.9021,239.648 310.3218,239.4495 310.7199,239.2109 311.0927,238.9343 311.4367,238.6226 311.7484,238.2787 312.0249,237.9059 312.2635,237.5077 312.462,237.0881 312.6184,236.6511 312.7312,236.2008 312.7993,235.7416 312.822,235.278 312.7993,234.8144 312.7312,234.3553 312.6184,233.905 312.462,233.4679 312.2635,233.0483 312.0249,232.6502 311.7484,232.2774 311.4367,231.9334 311.0927,231.6217 310.7199,231.3452 310.3218,231.1066 309.9021,230.9081 309.4651,230.7517 309.0148,230.6389 308.5557,230.5708 308.0921,230.5481 307.6284,230.5708 307.1693,230.6389 306.719,230.7517 306.282,230.9081 305.8624,231.1066 305.4642,231.3452 305.0914,231.6217 304.7475,231.9334 304.4357,232.2774 304.1592,232.6502 303.9206,233.0483 303.7221,233.4679 303.5658,233.905 303.453,234.3553 303.3849,234.8144 303.3621,235.278 303.3849,235.7416 303.453,236.2008 303.5658,236.6511 303.7221,237.0881 303.9206,237.5077 304.1592,237.9059 304.4357,238.2787 304.7475,238.6226"/>
    <polygon points="309.4651,252.897 309.9021,252.7406 310.3218,252.5422 310.7199,252.3035 311.0927,252.027 311.4367,251.7153 311.7484,251.3714 312.0249,250.9985 312.2635,250.6004 312.462,250.1808 312.6184,249.7437 312.7312,249.2935 312.7993,248.8343 312.822,248.3707 312.7993,247.9071 312.7312,247.4479 312.6184,246.9977 312.462,246.5606 312.2635,246.141 312.0249,245.7429 311.7484,245.37 311.4367,245.0261 311.0927,244.7144 310.7199,244.4379 310.3218,244.1992 309.9021,244.0008 309.4651,243.8444 309.0148,243.7316 308.5557,243.6635 308.0921,243.6407 307.6284,243.6635 307.1693,243.7316 306.719,243.8444 306.282,244.0008 305.8624,244.1992 305.4642,244.4379 305.0914,244.7144 304.7475,245.0261 304.4357,245.37 304.1592,245.7429 303.9206,246.141 303.7221,246.5606 303.5658,246.9977 303.453,247.4479 303.3849,247.9071 303.3621,248.3707 303.3849,248.8343 303.453,249.2935 303.5658,249.7437 303.7221,250.1808 303.9206,250.6004 304.1592,250.9985 304.4357,251.3714 304.7475,251.7153 305.0914,252.027 305.4642,252.3035 305.8624,252.5422 306.282,252.7406 306.719,252.897 307.1693,253.0098 307.6284,253.0779 308.0921,253.1007 308.5557,253.0779 309.0148,253.0098"/>
    <polygon points="308.0921,256.7334 307.6284,256.7562 307.1693,256.8243 306.719,256.9371 306.282,257.0934 305.8624,257.2919 305.4642,257.5305 305.0914,257.807 304.7475,258.1188 304.4357,258.4627 304.1592,258.8355 303.9206,259.2337 303.7221,259.6533 303.5658,260.0903 303.453,260.5406 303.3849,260.9997 303.3621,261.4634 303.3849,261.927 303.453,262.3861 303.5658,262.8364 303.7221,263.2734 303.9206,263.6931 304.1592,264.0912 304.4357,264.464 304.7475,264.808 305.0914,265.1197 305.4642,265.3962 305.8624,265.6348 306.282,265.8333 306.719,265.9897 307.1693,266.1024 307.6284,266.1706 308.0921,266.1933 308.5557,266.1706 309.0148,266.1024 309.4651,265.9897 309.9021,265.8333 310.3218,265.6348 310.7199,265.3962 311.0927,265.1197 311.4367,264.808 311.7484,264.464 312.0249,264.0912 312.2635,263.6931 312.462,263.2734 312.6184,262.8364 312.7312,262.3861 312.7993,261.927 312.822,261.4634 312.7993,260.9997 312.7312,260.5406 312.6184,260.0903 312.462,259.6533 312.2635,259.2337 312.0249,258.8355 311.7484,258.4627 311.4367,258.1188 311.0927,257.807 310.7199,257.5305 310.3218,257.2919 309.9021,257.0934 309.4651,256.9371 309.0148,256.8243 308.5557,256.7562"/>
    <polygon points="295.8307,263.3706 295.3804,263.4834 294.9434,263.6398 294.5238,263.8382 294.1256,264.0769 293.7528,264.3534 293.4089,264.6651 293.0972,265.009 292.8207,265.3819 292.582,265.78 292.3836,266.1996 292.2272,266.6367 292.1144,267.0869 292.0463,267.5461 292.0235,268.0097 292.0463,268.4733 292.1144,268.9325 292.2272,269.3827 292.3836,269.8198 292.582,270.2394 292.8207,270.6375 293.0972,271.0104 293.4089,271.3543 293.7528,271.666 294.1256,271.9425 294.5238,272.1812 294.9434,272.3796 295.3804,272.536 295.8307,272.6488 296.2899,272.7169 296.7535,272.7397 297.2171,272.7169 297.6763,272.6488 298.1265,272.536 298.5636,272.3796 298.9832,272.1812 299.3813,271.9425 299.7541,271.666 300.0981,271.3543 300.4098,271.0104 300.6863,270.6375 300.9249,270.2394 301.1234,269.8198 301.2798,269.3827 301.3926,268.9325 301.4607,268.4733 301.4835,268.0097 301.4607,267.5461 301.3926,267.0869 301.2798,266.6367 301.1234,266.1996 300.9249,265.78 300.6863,265.3819 300.4098,265.009 300.0981,264.6651 299.7541,264.3534 299.3813,264.0769 298.9832,263.8382 298.5636,263.6398 298.1265,263.4834 297.6763,263.3706 297.2171,263.3025 296.7535,263.2797 296.2899,263.3025"/>
    <polygon points="283.6048,265.8333 284.0419,265.9897 284.4921,266.1024 284.9513,266.1706 285.4149,266.1933 285.8785,266.1706 286.3377,266.1024 286.7879,265.9897 287.225,265.8333 287.6446,265.6348 288.0427,265.3962 288.4156,265.1197 288.7595,264.808 289.0712,264.464 289.3477,264.0912 289.5864,263.6931 289.7848,263.2734 289.9412,262.8364 290.054,262.3861 290.1221,261.927 290.1449,261.4634 290.1221,260.9997 290.054,260.5406 289.9412,260.0903 289.7848,259.6533 289.5864,259.2337 289.3477,258.8355 289.0712,258.4627 288.7595,258.1188 288.4156,257.807 288.0427,257.5305 287.6446,257.2919 287.225,257.0934 286.7879,256.9371 286.3377,256.8243 285.8785,256.7562 285.4149,256.7334 284.9513,256.7562 284.4921,256.8243 284.0419,256.9371 283.6048,257.0934 283.1852,257.2919 282.7871,257.5305 282.4142,257.807 282.0703,258.1188 281.7586,258.4627 281.4821,258.8355 281.2434,259.2337 281.045,259.6533 280.8886,260.0903 280.7758,260.5406 280.7077,260.9997 280.6849,261.4634 280.7077,261.927 280.7758,262.3861 280.8886,262.8364 281.045,263.2734 281.2434,263.6931 281.4821,264.0912 281.7586,264.464 282.0703,264.808 282.4142,265.1197 282.7871,265.3962 283.1852,265.6348"/>
    <polygon points="263.6605,292.2878 263.2014,292.3559 262.7377,292.3787 262.2741,292.3559 261.815,292.2878 261.3647,292.175 260.9277,292.0186 260.508,291.8202 260.1099,291.5815 259.7371,291.305 259.3931,290.9933 259.0814,290.6494 258.8049,290.2765 258.5663,289.8784 258.3678,289.4588 258.2114,289.0217 258.0986,288.5715 258.0305,288.1123 258.0078,287.6487 258.0305,287.1851 258.0986,286.7259 258.2114,286.2757 258.3678,285.8386 258.5663,285.419 258.8049,285.0209 259.0814,284.648 259.3931,284.3041 259.7371,283.9924 260.1099,283.7159 260.508,283.4772 260.9277,283.2788 261.3647,283.1224 261.815,283.0096 262.2741,282.9415 262.7377,282.9187 263.2014,282.9415 263.6605,283.0096 264.1108,283.1224 264.5478,283.2788 264.9674,283.4772 265.3656,283.7159 265.7384,283.9924 266.0823,284.3041 266.3941,284.648 266.6706,285.0209 266.9092,285.419 267.1077,285.8386 267.264,286.2757 267.3768,286.7259 267.4449,287.1851 267.4677,287.6487 267.4449,288.1123 267.3768,288.5715 267.264,289.0217 267.1077,289.4588 266.9092,289.8784 266.6706,290.2765 266.3941,290.6494 266.0823,290.9933 265.7384,291.305 265.3656,291.5815 264.9674,291.8202 264.5478,292.0186 264.1108,292.175"/>
    <polygon points="255.5706,322.6101 255.7691,322.1904 255.9255,321.7534 256.0382,321.3031 256.1063,320.844 256.1291,320.3804 256.1063,319.9167 256.0382,319.4576 255.9255,319.0073 255.7691,318.5703 255.5706,318.1507 255.332,317.7525 255.0555,317.3797 254.7437,317.0358 254.3998,316.724 254.027,316.4475 253.6288,316.2089 253.2092,316.0104 252.7722,315.8541 252.3219,315.7413 251.8628,315.6732 251.3992,315.6504 250.9355,315.6732 250.4764,315.7413 250.0261,315.8541 249.5891,316.0104 249.1695,316.2089 248.7713,316.4475 248.3985,316.724 248.0546,317.0358 247.7428,317.3797 247.4663,317.7525 247.2277,318.1507 247.0292,318.5703 246.8728,319.0073 246.7601,319.4576 246.692,319.9167 246.6692,320.3804 246.692,320.844 246.7601,321.3031 246.8728,321.7534 247.0292,322.1904 247.2277,322.6101 247.4663,323.0082 247.7428,323.381 248.0546,323.725 248.3985,324.0367 248.7713,324.3132 249.1695,324.5518 249.5891,324.7503 250.0261,324.9067 250.4764,325.0195 250.9355,325.0876 251.3992,325.1103 251.8628,325.0876 252.3219,325.0195 252.7722,324.9067 253.2092,324.7503 253.6288,324.5518 254.027,324.3132 254.3998,324.0367 254.7437,323.725 255.0555,323.381 255.332,323.0082"/>
    <polygon points="243.9934,324.2989 243.7169,323.926 243.4052,323.5821 243.0612,323.2704 242.6884,322.9939 242.2903,322.7552 241.8707,322.5568 241.4336,322.4004 240.9833,322.2876 240.5242,322.2195 240.0606,322.1967 239.597,322.2195 239.1378,322.2876 238.6875,322.4004 238.2505,322.5568 237.8309,322.7552 237.4327,322.9939 237.0599,323.2704 236.716,323.5821 236.4043,323.926 236.1277,324.2989 235.8891,324.697 235.6906,325.1166 235.5343,325.5537 235.4215,326.0039 235.3534,326.4631 235.3306,326.9267 235.3534,327.3903 235.4215,327.8495 235.5343,328.2997 235.6906,328.7368 235.8891,329.1564 236.1277,329.5545 236.4043,329.9274 236.716,330.2713 237.0599,330.583 237.4327,330.8595 237.8309,331.0982 238.2505,331.2966 238.6875,331.453 239.1378,331.5658 239.597,331.6339 240.0606,331.6567 240.5242,331.6339 240.9833,331.5658 241.4336,331.453 241.8707,331.2966 242.2903,331.0982 242.6884,330.8595 243.0612,330.583 243.4052,330.2713 243.7169,329.9274 243.9934,329.5545 244.232,329.1564 244.4305,328.7368 244.5869,328.2997 244.6997,327.8495 244.7678,327.3903 244.7905,326.9267 244.7678,326.4631 244.6997,326.0039 244.5869,325.5537 244.4305,325.1166 244.232,324.697"/>
    <polygon points="250.4764,338.1121 250.9355,338.1802 251.3992,338.203 251.8628,338.1802 252.3219,338.1121 252.7722,337.9993 253.2092,337.843 253.6288,337.6445 254.027,337.4059 254.3998,337.1294 254.7437,336.8176 255.0555,336.4737 255.332,336.1009 255.5706,335.7027 255.7691,335.2831 255.9255,334.8461 256.0382,334.3958 256.1063,333.9367 256.1291,333.473 256.1063,333.0094 256.0382,332.5503 255.9255,332.1 255.7691,331.663 255.5706,331.2433 255.332,330.8452 255.0555,330.4724 254.7437,330.1284 254.3998,329.8167 254.027,329.5402 253.6288,329.3016 253.2092,329.1031 252.7722,328.9467 252.3219,328.8339 251.8628,328.7658 251.3992,328.7431 250.9355,328.7658 250.4764,328.8339 250.0261,328.9467 249.5891,329.1031 249.1695,329.3016 248.7713,329.5402 248.3985,329.8167 248.0546,330.1284 247.7428,330.4724 247.4663,330.8452 247.2277,331.2433 247.0292,331.663 246.8728,332.1 246.7601,332.5503 246.692,333.0094 246.6692,333.473 246.692,333.9367 246.7601,334.3958 246.8728,334.8461 247.0292,335.2831 247.2277,335.7027 247.4663,336.1009 247.7428,336.4737 248.0546,336.8176 248.3985,337.1294 248.7713,337.4059 249.1695,337.6445 249.5891,337.843 250.0261,337.9993"/>
    <polygon points="244.4305,341.8294 244.5869,341.3924 244.6997,340.9421 244.7678,340.483 244.7905,340.0194 244.7678,339.5557 244.6997,339.0966 244.5869,338.6463 244.4305,338.2093 244.232,337.7897 243.9934,337.3915 243.7169,337.0187 243.4052,336.6748 243.0612,336.363 242.6884,336.0865 242.2903,335.8479 241.8707,335.6494 241.4336,335.4931 240.9833,335.3803 240.5242,335.3122 240.0606,335.2894 239.597,335.3122 239.1378,335.3803 238.6875,335.4931 238.2505,335.6494 237.8309,335.8479 237.4327,336.0865 237.0599,336.363 236.716,336.6748 236.4043,337.0187 236.1277,337.3915 235.8891,337.7897 235.6906,338.2093 235.5343,338.6463 235.4215,339.0966 235.3534,339.5557 235.3306,340.0194 235.3534,340.483 235.4215,340.9421 235.5343,341.3924 235.6906,341.8294 235.8891,342.2491 236.1277,342.6472 236.4043,343.02 236.716,343.364 237.0599,343.6757 237.4327,343.9522 237.8309,344.1908 238.2505,344.3893 238.6875,344.5457 239.1378,344.6585 239.597,344.7266 240.0606,344.7493 240.5242,344.7266 240.9833,344.6585 241.4336,344.5457 241.8707,344.3893 242.2903,344.1908 242.6884,343.9522 243.0612,343.6757 243.4052,343.364 243.7169,343.02 243.9934,342.6472 244.232,342.2491"/>
  </g>
</svg>
