<?xml version="1.0" encoding="utf-8" ?>
<svg xmlns="http://www.w3.org/2000/svg" xmlns:cc="http://creativecommons.org/ns" xmlns:dc="http://purl.org/dc/elements/1.1/" xmlns:ev="http://www.w3.org/2001/xml-events" xmlns:inkscape="http://www.inkscape.org/namespaces/inkscape" xmlns:rdf="http://www.w3.org/1999/02/22-rdf-syntax-ns" xmlns:sodipodi="http://sodipodi.sourceforge.net/DTD/sodipodi-0.dtd" xmlns:xlink="http://www.w3.org/1999/xlink" baseProfile="tiny" height="15.875cm" version="1.2" viewBox="0 0 432.0 600.0" width="11.43cm">
  <metadata>
    <rdf:RDF>
      <cc:Work>
        <dc:format>image/svg+xml</dc:format>
        <dc:source>vsk save -s 145 -c hex-grid/config/bubble-coasters-2.json /Users/tobin/src/fabian/plotting/fabian-plotting/hex-grid/sketch_hex_grid.py</dc:source>
        <dc:date>2023-11-04T10:32:59.482206</dc:date>
      </cc:Work>
    </rdf:RDF>
  </metadata>
  <defs/>
  <g fill="none" id="layer1" inkscape:groupmode="layer" inkscape:label="1" stroke="#000000" stroke-width="0.7559" style="display:inline">
    <polygon points="166.0066,432.5908 165.9385,432.1317 165.9157,431.668 165.9385,431.2044 166.0066,430.7453 166.1194,430.295 166.2757,429.858 166.4742,429.4383 166.7128,429.0402 166.9894,428.6674 167.3011,428.3234 167.645,428.0117 168.0178,427.7352 168.416,427.4966 168.8356,427.2981 169.2726,427.1417 169.7229,427.029 170.1821,426.9608 170.6457,426.9381 171.1093,426.9608 171.5684,427.029 172.0187,427.1417 172.4558,427.2981 172.8754,427.4966 173.2735,427.7352 173.6463,428.0117 173.9903,428.3234 174.302,428.6674 174.5785,429.0402 174.8171,429.4383 175.0156,429.858 175.172,430.295 175.2848,430.7453 175.3529,431.2044 175.3756,431.668 175.3529,432.1317 175.2848,432.5908 175.172,433.0411 175.0156,433.4781 174.8171,433.8977 174.5785,434.2959 174.302,434.6687 173.9903,435.0126 173.6463,435.3244 173.2735,435.6009 172.8754,435.8395 172.4558,436.038 172.0187,436.1943 171.5684,436.3071 171.1093,436.3752 170.6457,436.398 170.1821,436.3752 169.7229,436.3071 169.2726,436.1943 168.8356,436.038 168.416,435.8395 168.0178,435.6009 167.645,435.3244 167.3011,435.0126 166.9894,434.6687 166.7128,434.2959 166.4742,433.8977 166.2757,433.4781 166.1194,433.0411"/>
    <polygon points="166.9894,421.576 166.7128,421.2032 166.4742,420.8051 166.2757,420.3855 166.1194,419.9484 166.0066,419.4981 165.9385,419.039 165.9157,418.5754 165.9385,418.1118 166.0066,417.6526 166.1194,417.2023 166.2757,416.7653 166.4742,416.3457 166.7128,415.9475 166.9894,415.5747 167.3011,415.2308 167.645,414.9191 168.0178,414.6425 168.416,414.4039 168.8356,414.2054 169.2726,414.0491 169.7229,413.9363 170.1821,413.8682 170.6457,413.8454 171.1093,413.8682 171.5684,413.9363 172.0187,414.0491 172.4558,414.2054 172.8754,414.4039 173.2735,414.6425 173.6463,414.9191 173.9903,415.2308 174.302,415.5747 174.5785,415.9475 174.8171,416.3457 175.0156,416.7653 175.172,417.2023 175.2848,417.6526 175.3529,418.1118 175.3756,418.5754 175.3529,419.039 175.2848,419.4981 175.172,419.9484 175.0156,420.3855 174.8171,420.8051 174.5785,421.2032 174.302,421.576 173.9903,421.92 173.6463,422.2317 173.2735,422.5082 172.8754,422.7468 172.4558,422.9453 172.0187,423.1017 171.5684,423.2145 171.1093,423.2826 170.6457,423.3053 170.1821,423.2826 169.7229,423.2145 169.2726,423.1017 168.8356,422.9453 168.416,422.7468 168.0178,422.5082 167.645,422.2317 167.3011,421.92"/>
    <polygon points="178.3279,422.121 178.6397,421.7771 178.9836,421.4654 179.3564,421.1889 179.7546,420.9502 180.1742,420.7518 180.6112,420.5954 181.0615,420.4826 181.5206,420.4145 181.9843,420.3917 182.4479,420.4145 182.907,420.4826 183.3573,420.5954 183.7943,420.7518 184.2139,420.9502 184.6121,421.1889 184.9849,421.4654 185.3288,421.7771 185.6406,422.121 185.9171,422.4939 186.1557,422.892 186.3542,423.3116 186.5106,423.7487 186.6233,424.1989 186.6914,424.6581 186.7142,425.1217 186.6914,425.5853 186.6233,426.0445 186.5106,426.4947 186.3542,426.9318 186.1557,427.3514 185.9171,427.7495 185.6406,428.1224 185.3288,428.4663 184.9849,428.778 184.6121,429.0545 184.2139,429.2932 183.7943,429.4916 183.3573,429.648 182.907,429.7608 182.4479,429.8289 181.9843,429.8517 181.5206,429.8289 181.0615,429.7608 180.6112,429.648 180.1742,429.4916 179.7546,429.2932 179.3564,429.0545 178.9836,428.778 178.6397,428.4663 178.3279,428.1224 178.0514,427.7495 177.8128,427.3514 177.6143,426.9318 177.458,426.4947 177.3452,426.0445 177.2771,425.5853 177.2543,425.1217 177.2771,424.6581 177.3452,424.1989 177.458,423.7487 177.6143,423.3116 177.8128,422.892 178.0514,422.4939"/>
    <polygon points="187.9637,394.4231 189.0371,394.692 190.079,395.0648 191.0794,395.5379 192.0286,396.1068 192.9174,396.766 193.7373,397.5092 194.4805,398.3291 195.1397,399.2179 195.7086,400.1671 196.1817,401.1674 196.5545,402.2094 196.8234,403.2828 196.9858,404.3774 197.0401,405.4827 196.9858,406.588 196.8234,407.6826 196.5545,408.756 196.1817,409.798 195.7086,410.7983 195.1397,411.7475 194.4805,412.6363 193.7373,413.4563 192.9174,414.1994 192.0286,414.8586 191.0794,415.4275 190.079,415.9007 189.0371,416.2735 187.9637,416.5423 186.8691,416.7047 185.7638,416.759 184.6585,416.7047 183.5639,416.5423 182.4904,416.2735 181.4485,415.9007 180.4482,415.4275 179.499,414.8586 178.6102,414.1994 177.7902,413.4563 177.0471,412.6363 176.3879,411.7475 175.819,410.7983 175.3458,409.798 174.973,408.756 174.7041,407.6826 174.5418,406.588 174.4875,405.4827 174.5418,404.3774 174.7041,403.2828 174.973,402.2094 175.3458,401.1674 175.819,400.1671 176.3879,399.2179 177.0471,398.3291 177.7902,397.5092 178.6102,396.766 179.499,396.1068 180.4482,395.5379 181.4485,395.0648 182.4904,394.692 183.5639,394.4231 184.6585,394.2607 185.7638,394.2064 186.8691,394.2607"/>
    <polygon points="234.3914,390.0881 233.318,390.357 232.2234,390.5194 231.1181,390.5737 230.0128,390.5194 228.9182,390.357 227.8448,390.0881 226.8029,389.7153 225.8025,389.2422 224.8533,388.6733 223.9645,388.0141 223.1446,387.2709 222.4014,386.451 221.7422,385.5621 221.1733,384.613 220.7002,383.6126 220.3274,382.5707 220.0585,381.4973 219.8961,380.4026 219.8418,379.2974 219.8961,378.1921 220.0585,377.0975 220.3274,376.024 220.7002,374.9821 221.1733,373.9818 221.7422,373.0326 222.4014,372.1438 223.1446,371.3238 223.9645,370.5807 224.8533,369.9215 225.8025,369.3526 226.8029,368.8794 227.8448,368.5066 228.9182,368.2377 230.0128,368.0754 231.1181,368.0211 232.2234,368.0754 233.318,368.2377 234.3914,368.5066 235.4334,368.8794 236.4337,369.3526 237.3829,369.9215 238.2717,370.5807 239.0917,371.3238 239.8348,372.1438 240.494,373.0326 241.0629,373.9818 241.5361,374.9821 241.9089,376.024 242.1777,377.0975 242.3401,378.1921 242.3944,379.2974 242.3401,380.4026 242.1777,381.4973 241.9089,382.5707 241.5361,383.6126 241.0629,384.613 240.494,385.5621 239.8348,386.451 239.0917,387.2709 238.2717,388.0141 237.3829,388.6733 236.4337,389.2422 235.4334,389.7153"/>
    <polygon points="265.2872,389.7622 265.5258,390.1603 265.7243,390.58 265.8806,391.017 265.9934,391.4673 266.0615,391.9264 266.0843,392.39 266.0615,392.8537 265.9934,393.3128 265.8806,393.7631 265.7243,394.2001 265.5258,394.6197 265.2872,395.0179 265.0106,395.3907 264.6989,395.7346 264.355,396.0464 263.9822,396.3229 263.584,396.5615 263.1644,396.76 262.7274,396.9163 262.2771,397.0291 261.8179,397.0972 261.3543,397.12 260.8907,397.0972 260.4316,397.0291 259.9813,396.9163 259.5442,396.76 259.1246,396.5615 258.7265,396.3229 258.3537,396.0464 258.0097,395.7346 257.698,395.3907 257.4215,395.0179 257.1829,394.6197 256.9844,394.2001 256.828,393.7631 256.7152,393.3128 256.6471,392.8537 256.6244,392.39 256.6471,391.9264 256.7152,391.4673 256.828,391.017 256.9844,390.58 257.1829,390.1603 257.4215,389.7622 257.698,389.3894 258.0097,389.0454 258.3537,388.7337 258.7265,388.4572 259.1246,388.2186 259.5442,388.0201 259.9813,387.8637 260.4316,387.7509 260.8907,387.6828 261.3543,387.6601 261.8179,387.6828 262.2771,387.7509 262.7274,387.8637 263.1644,388.0201 263.584,388.2186 263.9822,388.4572 264.355,388.7337 264.6989,389.0454 265.0106,389.3894"/>
    <polygon points="268.323,387.6538 268.1666,387.2167 268.0538,386.7665 267.9857,386.3073 267.9629,385.8437 267.9857,385.3801 268.0538,384.9209 268.1666,384.4707 268.323,384.0336 268.5214,383.614 268.7601,383.2159 269.0366,382.843 269.3483,382.4991 269.6923,382.1874 270.0651,381.9109 270.4632,381.6722 270.8828,381.4738 271.3199,381.3174 271.7701,381.2046 272.2293,381.1365 272.6929,381.1137 273.1565,381.1365 273.6157,381.2046 274.066,381.3174 274.503,381.4738 274.9226,381.6722 275.3207,381.9109 275.6936,382.1874 276.0375,382.4991 276.3492,382.843 276.6257,383.2159 276.8644,383.614 277.0628,384.0336 277.2192,384.4707 277.332,384.9209 277.4001,385.3801 277.4229,385.8437 277.4001,386.3073 277.332,386.7665 277.2192,387.2167 277.0628,387.6538 276.8644,388.0734 276.6257,388.4715 276.3492,388.8444 276.0375,389.1883 275.6936,389.5 275.3207,389.7765 274.9226,390.0152 274.503,390.2136 274.066,390.37 273.6157,390.4828 273.1565,390.5509 272.6929,390.5737 272.2293,390.5509 271.7701,390.4828 271.3199,390.37 270.8828,390.2136 270.4632,390.0152 270.0651,389.7765 269.6923,389.5 269.3483,389.1883 269.0366,388.8444 268.7601,388.4715 268.5214,388.0734"/>
    <polygon points="264.6989,382.642 264.355,382.9537 263.9822,383.2302 263.584,383.4688 263.1644,383.6673 262.7274,383.8237 262.2771,383.9365 261.8179,384.0046 261.3543,384.0273 260.8907,384.0046 260.4316,383.9365 259.9813,383.8237 259.5442,383.6673 259.1246,383.4688 258.7265,383.2302 258.3537,382.9537 258.0097,382.642 257.698,382.298 257.4215,381.9252 257.1829,381.5271 256.9844,381.1075 256.828,380.6704 256.7152,380.2201 256.6471,379.761 256.6244,379.2974 256.6471,378.8338 256.7152,378.3746 256.828,377.9243 256.9844,377.4873 257.1829,377.0677 257.4215,376.6695 257.698,376.2967 258.0097,375.9528 258.3537,375.6411 258.7265,375.3645 259.1246,375.1259 259.5442,374.9274 259.9813,374.7711 260.4316,374.6583 260.8907,374.5902 261.3543,374.5674 261.8179,374.5902 262.2771,374.6583 262.7274,374.7711 263.1644,374.9274 263.584,375.1259 263.9822,375.3645 264.355,375.6411 264.6989,375.9528 265.0106,376.2967 265.2872,376.6695 265.5258,377.0677 265.7243,377.4873 265.8806,377.9243 265.9934,378.3746 266.0615,378.8338 266.0843,379.2974 266.0615,379.761 265.9934,380.2201 265.8806,380.6704 265.7243,381.1075 265.5258,381.5271 265.2872,381.9252 265.0106,382.298"/>
    <polygon points="253.3603,382.4991 253.6721,382.843 253.9486,383.2159 254.1872,383.614 254.3857,384.0336 254.542,384.4707 254.6548,384.9209 254.7229,385.3801 254.7457,385.8437 254.7229,386.3073 254.6548,386.7665 254.542,387.2167 254.3857,387.6538 254.1872,388.0734 253.9486,388.4715 253.6721,388.8444 253.3603,389.1883 253.0164,389.5 252.6436,389.7765 252.2454,390.0152 251.8258,390.2136 251.3888,390.37 250.9385,390.4828 250.4794,390.5509 250.0157,390.5737 249.5521,390.5509 249.093,390.4828 248.6427,390.37 248.2057,390.2136 247.7861,390.0152 247.3879,389.7765 247.0151,389.5 246.6712,389.1883 246.3594,388.8444 246.0829,388.4715 245.8443,388.0734 245.6458,387.6538 245.4894,387.2167 245.3767,386.7665 245.3086,386.3073 245.2858,385.8437 245.3086,385.3801 245.3767,384.9209 245.4894,384.4707 245.6458,384.0336 245.8443,383.614 246.0829,383.2159 246.3594,382.843 246.6712,382.4991 247.0151,382.1874 247.3879,381.9109 247.7861,381.6722 248.2057,381.4738 248.6427,381.3174 249.093,381.2046 249.5521,381.1365 250.0157,381.1137 250.4794,381.1365 250.9385,381.2046 251.3888,381.3174 251.8258,381.4738 252.2454,381.6722 252.6436,381.9109 253.0164,382.1874"/>
    <polygon points="249.5521,368.0438 250.0157,368.0211 250.4794,368.0438 250.9385,368.1119 251.3888,368.2247 251.8258,368.3811 252.2454,368.5796 252.6436,368.8182 253.0164,369.0947 253.3603,369.4064 253.6721,369.7504 253.9486,370.1232 254.1872,370.5213 254.3857,370.941 254.542,371.378 254.6548,371.8283 254.7229,372.2874 254.7457,372.751 254.7229,373.2147 254.6548,373.6738 254.542,374.1241 254.3857,374.5611 254.1872,374.9807 253.9486,375.3789 253.6721,375.7517 253.3603,376.0956 253.0164,376.4074 252.6436,376.6839 252.2454,376.9225 251.8258,377.121 251.3888,377.2773 250.9385,377.3901 250.4794,377.4582 250.0157,377.481 249.5521,377.4582 249.093,377.3901 248.6427,377.2773 248.2057,377.121 247.7861,376.9225 247.3879,376.6839 247.0151,376.4074 246.6712,376.0956 246.3594,375.7517 246.0829,375.3789 245.8443,374.9807 245.6458,374.5611 245.4894,374.1241 245.3767,373.6738 245.3086,373.2147 245.2858,372.751 245.3086,372.2874 245.3767,371.8283 245.4894,371.378 245.6458,370.941 245.8443,370.5213 246.0829,370.1232 246.3594,369.7504 246.6712,369.4064 247.0151,369.0947 247.3879,368.8182 247.7861,368.5796 248.2057,368.3811 248.6427,368.2247 249.093,368.1119"/>
    <polygon points="256.7152,365.2819 256.828,364.8317 256.9844,364.3946 257.1829,363.975 257.4215,363.5769 257.698,363.204 258.0097,362.8601 258.3537,362.5484 258.7265,362.2719 259.1246,362.0332 259.5442,361.8348 259.9813,361.6784 260.4316,361.5656 260.8907,361.4975 261.3543,361.4747 261.8179,361.4975 262.2771,361.5656 262.7274,361.6784 263.1644,361.8348 263.584,362.0332 263.9822,362.2719 264.355,362.5484 264.6989,362.8601 265.0106,363.204 265.2872,363.5769 265.5258,363.975 265.7243,364.3946 265.8806,364.8317 265.9934,365.2819 266.0615,365.7411 266.0843,366.2047 266.0615,366.6683 265.9934,367.1275 265.8806,367.5777 265.7243,368.0148 265.5258,368.4344 265.2872,368.8325 265.0106,369.2054 264.6989,369.5493 264.355,369.861 263.9822,370.1375 263.584,370.3762 263.1644,370.5746 262.7274,370.731 262.2771,370.8438 261.8179,370.9119 261.3543,370.9347 260.8907,370.9119 260.4316,370.8438 259.9813,370.731 259.5442,370.5746 259.1246,370.3762 258.7265,370.1375 258.3537,369.861 258.0097,369.5493 257.698,369.2054 257.4215,368.8325 257.1829,368.4344 256.9844,368.0148 256.828,367.5777 256.7152,367.1275 256.6471,366.6683 256.6244,366.2047 256.6471,365.7411"/>
    <polygon points="277.332,347.4885 277.2192,347.9387 277.0628,348.3758 276.8644,348.7954 276.6257,349.1935 276.3492,349.5664 276.0375,349.9103 275.6936,350.222 275.3207,350.4985 274.9226,350.7372 274.503,350.9356 274.066,351.092 273.6157,351.2048 273.1565,351.2729 272.6929,351.2957 272.2293,351.2729 271.7701,351.2048 271.3199,351.092 270.8828,350.9356 270.4632,350.7372 270.0651,350.4985 269.6923,350.222 269.3483,349.9103 269.0366,349.5664 268.7601,349.1935 268.5214,348.7954 268.323,348.3758 268.1666,347.9387 268.0538,347.4885 267.9857,347.0293 267.9629,346.5657 267.9857,346.1021 268.0538,345.6429 268.1666,345.1927 268.323,344.7556 268.5214,344.336 268.7601,343.9379 269.0366,343.565 269.3483,343.2211 269.6923,342.9094 270.0651,342.6329 270.4632,342.3942 270.8828,342.1958 271.3199,342.0394 271.7701,341.9266 272.2293,341.8585 272.6929,341.8357 273.1565,341.8585 273.6157,341.9266 274.066,342.0394 274.503,342.1958 274.9226,342.3942 275.3207,342.6329 275.6936,342.9094 276.0375,343.2211 276.3492,343.565 276.6257,343.9379 276.8644,344.336 277.0628,344.7556 277.2192,345.1927 277.332,345.6429 277.4001,346.1021 277.4229,346.5657 277.4001,347.0293"/>
    <polygon points="260.8907,335.3122 261.3543,335.2894 261.8179,335.3122 262.2771,335.3803 262.7274,335.4931 263.1644,335.6494 263.584,335.8479 263.9822,336.0865 264.355,336.363 264.6989,336.6748 265.0106,337.0187 265.2872,337.3915 265.5258,337.7897 265.7243,338.2093 265.8806,338.6463 265.9934,339.0966 266.0615,339.5557 266.0843,340.0194 266.0615,340.483 265.9934,340.9421 265.8806,341.3924 265.7243,341.8294 265.5258,342.2491 265.2872,342.6472 265.0106,343.02 264.6989,343.364 264.355,343.6757 263.9822,343.9522 263.584,344.1908 263.1644,344.3893 262.7274,344.5457 262.2771,344.6585 261.8179,344.7266 261.3543,344.7493 260.8907,344.7266 260.4316,344.6585 259.9813,344.5457 259.5442,344.3893 259.1246,344.1908 258.7265,343.9522 258.3537,343.6757 258.0097,343.364 257.698,343.02 257.4215,342.6472 257.1829,342.2491 256.9844,341.8294 256.828,341.3924 256.7152,340.9421 256.6471,340.483 256.6244,340.0194 256.6471,339.5557 256.7152,339.0966 256.828,338.6463 256.9844,338.2093 257.1829,337.7897 257.4215,337.3915 257.698,337.0187 258.0097,336.6748 258.3537,336.363 258.7265,336.0865 259.1246,335.8479 259.5442,335.6494 259.9813,335.4931 260.4316,335.3803"/>
    <polygon points="251.3888,328.9467 250.9385,328.8339 250.4794,328.7658 250.0157,328.7431 249.5521,328.7658 249.093,328.8339 248.6427,328.9467 248.2057,329.1031 247.7861,329.3016 247.3879,329.5402 247.0151,329.8167 246.6712,330.1284 246.3594,330.4724 246.0829,330.8452 245.8443,331.2433 245.6458,331.663 245.4894,332.1 245.3767,332.5503 245.3086,333.0094 245.2858,333.473 245.3086,333.9367 245.3767,334.3958 245.4894,334.8461 245.6458,335.2831 245.8443,335.7027 246.0829,336.1009 246.3594,336.4737 246.6712,336.8176 247.0151,337.1294 247.3879,337.4059 247.7861,337.6445 248.2057,337.843 248.6427,337.9993 249.093,338.1121 249.5521,338.1802 250.0157,338.203 250.4794,338.1802 250.9385,338.1121 251.3888,337.9993 251.8258,337.843 252.2454,337.6445 252.6436,337.4059 253.0164,337.1294 253.3603,336.8176 253.6721,336.4737 253.9486,336.1009 254.1872,335.7027 254.3857,335.2831 254.542,334.8461 254.6548,334.3958 254.7229,333.9367 254.7457,333.473 254.7229,333.0094 254.6548,332.5503 254.542,332.1 254.3857,331.663 254.1872,331.2433 253.9486,330.8452 253.6721,330.4724 253.3603,330.1284 253.0164,329.8167 252.6436,329.5402 252.2454,329.3016 251.8258,329.1031"/>
    <polygon points="246.0829,323.0082 246.3594,323.381 246.6712,323.725 247.0151,324.0367 247.3879,324.3132 247.7861,324.5518 248.2057,324.7503 248.6427,324.9067 249.093,325.0195 249.5521,325.0876 250.0157,325.1103 250.4794,325.0876 250.9385,325.0195 251.3888,324.9067 251.8258,324.7503 252.2454,324.5518 252.6436,324.3132 253.0164,324.0367 253.3603,323.725 253.6721,323.381 253.9486,323.0082 254.1872,322.6101 254.3857,322.1904 254.542,321.7534 254.6548,321.3031 254.7229,320.844 254.7457,320.3804 254.7229,319.9167 254.6548,319.4576 254.542,319.0073 254.3857,318.5703 254.1872,318.1507 253.9486,317.7525 253.6721,317.3797 253.3603,317.0358 253.0164,316.724 252.6436,316.4475 252.2454,316.2089 251.8258,316.0104 251.3888,315.8541 250.9385,315.7413 250.4794,315.6732 250.0157,315.6504 249.5521,315.6732 249.093,315.7413 248.6427,315.8541 248.2057,316.0104 247.7861,316.2089 247.3879,316.4475 247.0151,316.724 246.6712,317.0358 246.3594,317.3797 246.0829,317.7525 245.8443,318.1507 245.6458,318.5703 245.4894,319.0073 245.3767,319.4576 245.3086,319.9167 245.2858,320.3804 245.3086,320.844 245.3767,321.3031 245.4894,321.7534 245.6458,322.1904 245.8443,322.6101"/>
    <polygon points="235.4334,316.5087 234.3914,316.1359 233.318,315.8671 232.2234,315.7047 231.1181,315.6504 230.0128,315.7047 228.9182,315.8671 227.8448,316.1359 226.8029,316.5087 225.8025,316.9819 224.8533,317.5508 223.9645,318.21 223.1446,318.9531 222.4014,319.7731 221.7422,320.6619 221.1733,321.6111 220.7002,322.6114 220.3274,323.6534 220.0585,324.7268 219.8961,325.8214 219.8418,326.9267 219.8961,328.032 220.0585,329.1266 220.3274,330.2 220.7002,331.242 221.1733,332.2423 221.7422,333.1915 222.4014,334.0803 223.1446,334.9003 223.9645,335.6434 224.8533,336.3026 225.8025,336.8715 226.8029,337.3446 227.8448,337.7175 228.9182,337.9863 230.0128,338.1487 231.1181,338.203 232.2234,338.1487 233.318,337.9863 234.3914,337.7175 235.4334,337.3446 236.4337,336.8715 237.3829,336.3026 238.2717,335.6434 239.0917,334.9003 239.8348,334.0803 240.494,333.1915 241.0629,332.2423 241.5361,331.242 241.9089,330.2 242.1777,329.1266 242.3401,328.032 242.3944,326.9267 242.3401,325.8214 242.1777,324.7268 241.9089,323.6534 241.5361,322.6114 241.0629,321.6111 240.494,320.6619 239.8348,319.7731 239.0917,318.9531 238.2717,318.21 237.3829,317.5508 236.4337,316.9819"/>
    <polygon points="227.1897,309.1402 229.3516,310.1627 231.6032,310.9684 233.923,311.5494 236.2886,311.9003 238.6772,312.0177 241.0657,311.9003 243.4313,311.5494 245.7511,310.9684 248.0028,310.1627 250.1646,309.1402 252.2158,307.9108 254.1367,306.4862 255.9086,304.8802 257.5146,303.1082 258.9392,301.1874 260.1687,299.1362 261.1912,296.9743 261.9968,294.7226 262.5779,292.4028 262.9288,290.0373 263.0461,287.6487 262.9288,285.2601 262.5779,282.8945 261.9968,280.5748 261.1912,278.3231 260.1687,276.1612 258.9392,274.11 257.5146,272.1892 255.9086,270.4172 254.1367,268.8112 252.2158,267.3866 250.1646,266.1572 248.0028,265.1347 245.7511,264.329 243.4313,263.748 241.0657,263.3971 238.6772,263.2797 236.2886,263.3971 233.923,263.748 231.6032,264.329 229.3516,265.1347 227.1897,266.1572 225.1385,267.3866 223.2177,268.8112 221.4457,270.4172 219.8397,272.1892 218.4151,274.11 217.1856,276.1612 216.1632,278.3231 215.3575,280.5748 214.7764,282.8945 214.4255,285.2601 214.3082,287.6487 214.4255,290.0373 214.7764,292.4028 215.3575,294.7226 216.1632,296.9743 217.1856,299.1362 218.4151,301.1874 219.8397,303.1082 221.4457,304.8802 223.2177,306.4862 225.1385,307.9108"/>
    <polygon points="232.0458,347.0293 231.9777,347.4885 231.8649,347.9387 231.7085,348.3758 231.51,348.7954 231.2714,349.1935 230.9949,349.5664 230.6832,349.9103 230.3392,350.222 229.9664,350.4985 229.5683,350.7372 229.1487,350.9356 228.7116,351.092 228.2614,351.2048 227.8022,351.2729 227.3386,351.2957 226.875,351.2729 226.4158,351.2048 225.9655,351.092 225.5285,350.9356 225.1089,350.7372 224.7108,350.4985 224.3379,350.222 223.994,349.9103 223.6823,349.5664 223.4058,349.1935 223.1671,348.7954 222.9687,348.3758 222.8123,347.9387 222.6995,347.4885 222.6314,347.0293 222.6086,346.5657 222.6314,346.1021 222.6995,345.6429 222.8123,345.1927 222.9687,344.7556 223.1671,344.336 223.4058,343.9379 223.6823,343.565 223.994,343.2211 224.3379,342.9094 224.7108,342.6329 225.1089,342.3942 225.5285,342.1958 225.9655,342.0394 226.4158,341.9266 226.875,341.8585 227.3386,341.8357 227.8022,341.8585 228.2614,341.9266 228.7116,342.0394 229.1487,342.1958 229.5683,342.3942 229.9664,342.6329 230.3392,342.9094 230.6832,343.2211 230.9949,343.565 231.2714,343.9379 231.51,344.336 231.7085,344.7556 231.8649,345.1927 231.9777,345.6429 232.0458,346.1021 232.0686,346.5657"/>
    <polygon points="198.077,342.304 200.3968,342.885 202.6484,343.6907 204.8103,344.7132 206.8615,345.9426 208.7823,347.3672 210.5543,348.9732 212.1603,350.7452 213.5849,352.666 214.8144,354.7172 215.8368,356.8791 216.6425,359.1308 217.2236,361.4506 217.5745,363.8161 217.6918,366.2047 217.5745,368.5933 217.2236,370.9589 216.6425,373.2786 215.8368,375.5303 214.8144,377.6922 213.5849,379.7434 212.1603,381.6642 210.5543,383.4362 208.7823,385.0422 206.8615,386.4668 204.8103,387.6962 202.6484,388.7187 200.3968,389.5244 198.077,390.1054 195.7114,390.4563 193.3228,390.5737 190.9343,390.4563 188.5687,390.1054 186.2489,389.5244 183.9972,388.7187 181.8354,387.6962 179.7842,386.4668 177.8633,385.0422 176.0914,383.4362 174.4854,381.6642 173.0608,379.7434 171.8313,377.6922 170.8088,375.5303 170.0032,373.2786 169.4221,370.9589 169.0712,368.5933 168.9539,366.2047 169.0712,363.8161 169.4221,361.4506 170.0032,359.1308 170.8088,356.8791 171.8313,354.7172 173.0608,352.666 174.4854,350.7452 176.0914,348.9732 177.8633,347.3672 179.7842,345.9426 181.8354,344.7132 183.9972,343.6907 186.2489,342.885 188.5687,342.304 190.9343,341.9531 193.3228,341.8357 195.7114,341.9531"/>
    <polygon points="169.3514,349.3953 168.4022,349.9642 167.4019,350.4373 166.36,350.8101 165.2865,351.079 164.1919,351.2414 163.0866,351.2957 161.9813,351.2414 160.8867,351.079 159.8133,350.8101 158.7714,350.4373 157.771,349.9642 156.8218,349.3953 155.933,348.7361 155.1131,347.9929 154.3699,347.173 153.7107,346.2841 153.1418,345.335 152.6687,344.3346 152.2959,343.2927 152.027,342.2193 151.8646,341.1246 151.8103,340.0194 151.8646,338.9141 152.027,337.8195 152.2959,336.746 152.6687,335.7041 153.1418,334.7038 153.7107,333.7546 154.3699,332.8658 155.1131,332.0458 155.933,331.3027 156.8218,330.6435 157.771,330.0746 158.7714,329.6014 159.8133,329.2286 160.8867,328.9597 161.9813,328.7974 163.0866,328.7431 164.1919,328.7974 165.2865,328.9597 166.36,329.2286 167.4019,329.6014 168.4022,330.0746 169.3514,330.6435 170.2402,331.3027 171.0602,332.0458 171.8033,332.8658 172.4625,333.7546 173.0314,334.7038 173.5046,335.7041 173.8774,336.746 174.1462,337.8195 174.3086,338.9141 174.3629,340.0194 174.3086,341.1246 174.1462,342.2193 173.8774,343.2927 173.5046,344.3346 173.0314,345.335 172.4625,346.2841 171.8033,347.173 171.0602,347.9929 170.2402,348.7361"/>
    <polygon points="163.2399,357.0305 163.4786,357.4287 163.677,357.8483 163.8334,358.2853 163.9462,358.7356 164.0143,359.1947 164.0371,359.6584 164.0143,360.122 163.9462,360.5811 163.8334,361.0314 163.677,361.4684 163.4786,361.8881 163.2399,362.2862 162.9634,362.659 162.6517,363.003 162.3077,363.3147 161.9349,363.5912 161.5368,363.8298 161.1172,364.0283 160.6801,364.1847 160.2299,364.2975 159.7707,364.3656 159.3071,364.3883 158.8435,364.3656 158.3843,364.2975 157.934,364.1847 157.497,364.0283 157.0774,363.8298 156.6793,363.5912 156.3064,363.3147 155.9625,363.003 155.6508,362.659 155.3743,362.2862 155.1356,361.8881 154.9372,361.4684 154.7808,361.0314 154.668,360.5811 154.5999,360.122 154.5771,359.6584 154.5999,359.1947 154.668,358.7356 154.7808,358.2853 154.9372,357.8483 155.1356,357.4287 155.3743,357.0305 155.6508,356.6577 155.9625,356.3138 156.3064,356.002 156.6793,355.7255 157.0774,355.4869 157.497,355.2884 157.934,355.1321 158.3843,355.0193 158.8435,354.9512 159.3071,354.9284 159.7707,354.9512 160.2299,355.0193 160.6801,355.1321 161.1172,355.2884 161.5368,355.4869 161.9349,355.7255 162.3077,356.002 162.6517,356.3138 162.9634,356.6577"/>
    <polygon points="143.3294,354.0348 143.2613,353.5757 143.2385,353.112 143.2613,352.6484 143.3294,352.1893 143.4422,351.739 143.5986,351.302 143.797,350.8823 144.0357,350.4842 144.3122,350.1114 144.6239,349.7674 144.9678,349.4557 145.3407,349.1792 145.7388,348.9406 146.1584,348.7421 146.5955,348.5857 147.0457,348.4729 147.5049,348.4048 147.9685,348.3821 148.4321,348.4048 148.8913,348.4729 149.3415,348.5857 149.7786,348.7421 150.1982,348.9406 150.5963,349.1792 150.9692,349.4557 151.3131,349.7674 151.6248,350.1114 151.9013,350.4842 152.14,350.8823 152.3384,351.302 152.4948,351.739 152.6076,352.1893 152.6757,352.6484 152.6985,353.112 152.6757,353.5757 152.6076,354.0348 152.4948,354.4851 152.3384,354.9221 152.14,355.3417 151.9013,355.7399 151.6248,356.1127 151.3131,356.4566 150.9692,356.7684 150.5963,357.0449 150.1982,357.2835 149.7786,357.482 149.3415,357.6383 148.8913,357.7511 148.4321,357.8192 147.9685,357.842 147.5049,357.8192 147.0457,357.7511 146.5955,357.6383 146.1584,357.482 145.7388,357.2835 145.3407,357.0449 144.9678,356.7684 144.6239,356.4566 144.3122,356.1127 144.0357,355.7399 143.797,355.3417 143.5986,354.9221 143.4422,354.4851"/>
    <polygon points="173.0608,327.3727 174.4854,329.2935 176.0914,331.0655 177.8633,332.6715 179.7842,334.0961 181.8354,335.3255 183.9972,336.348 186.2489,337.1537 188.5687,337.7348 190.9343,338.0857 193.3228,338.203 195.7114,338.0857 198.077,337.7348 200.3968,337.1537 202.6484,336.348 204.8103,335.3255 206.8615,334.0961 208.7823,332.6715 210.5543,331.0655 212.1603,329.2935 213.5849,327.3727 214.8144,325.3215 215.8368,323.1596 216.6425,320.908 217.2236,318.5882 217.5745,316.2226 217.6918,313.834 217.5745,311.4455 217.2236,309.0799 216.6425,306.7601 215.8368,304.5084 214.8144,302.3466 213.5849,300.2954 212.1603,298.3745 210.5543,296.6026 208.7823,294.9966 206.8615,293.572 204.8103,292.3425 202.6484,291.32 200.3968,290.5144 198.077,289.9333 195.7114,289.5824 193.3228,289.4651 190.9343,289.5824 188.5687,289.9333 186.2489,290.5144 183.9972,291.32 181.8354,292.3425 179.7842,293.572 177.8633,294.9966 176.0914,296.6026 174.4854,298.3745 173.0608,300.2954 171.8313,302.3466 170.8088,304.5084 170.0032,306.7601 169.4221,309.0799 169.0712,311.4455 168.9539,313.834 169.0712,316.2226 169.4221,318.5882 170.0032,320.908 170.8088,323.1596 171.8313,325.3215"/>
    <polygon points="151.6248,329.9274 151.9013,329.5545 152.14,329.1564 152.3384,328.7368 152.4948,328.2997 152.6076,327.8495 152.6757,327.3903 152.6985,326.9267 152.6757,326.4631 152.6076,326.0039 152.4948,325.5537 152.3384,325.1166 152.14,324.697 151.9013,324.2989 151.6248,323.926 151.3131,323.5821 150.9692,323.2704 150.5963,322.9939 150.1982,322.7552 149.7786,322.5568 149.3415,322.4004 148.8913,322.2876 148.4321,322.2195 147.9685,322.1967 147.5049,322.2195 147.0457,322.2876 146.5955,322.4004 146.1584,322.5568 145.7388,322.7552 145.3407,322.9939 144.9678,323.2704 144.6239,323.5821 144.3122,323.926 144.0357,324.2989 143.797,324.697 143.5986,325.1166 143.4422,325.5537 143.3294,326.0039 143.2613,326.4631 143.2385,326.9267 143.2613,327.3903 143.3294,327.8495 143.4422,328.2997 143.5986,328.7368 143.797,329.1564 144.0357,329.5545 144.3122,329.9274 144.6239,330.2713 144.9678,330.583 145.3407,330.8595 145.7388,331.0982 146.1584,331.2966 146.5955,331.453 147.0457,331.5658 147.5049,331.6339 147.9685,331.6567 148.4321,331.6339 148.8913,331.5658 149.3415,331.453 149.7786,331.2966 150.1982,331.0982 150.5963,330.8595 150.9692,330.583 151.3131,330.2713"/>
    <polygon points="120.5614,313.834 120.5841,314.2976 120.6523,314.7568 120.765,315.2071 120.9214,315.6441 121.1199,316.0637 121.3585,316.4619 121.635,316.8347 121.9467,317.1786 122.2907,317.4903 122.6635,317.7669 123.0616,318.0055 123.4813,318.204 123.9183,318.3603 124.3686,318.4731 124.8277,318.5412 125.2913,318.564 125.755,318.5412 126.2141,318.4731 126.6644,318.3603 127.1014,318.204 127.521,318.0055 127.9192,317.7669 128.292,317.4903 128.6359,317.1786 128.9477,316.8347 129.2242,316.4619 129.4628,316.0637 129.6613,315.6441 129.8176,315.2071 129.9304,314.7568 129.9985,314.2976 130.0213,313.834 129.9985,313.3704 129.9304,312.9113 129.8176,312.461 129.6613,312.0239 129.4628,311.6043 129.2242,311.2062 128.9477,310.8334 128.6359,310.4894 128.292,310.1777 127.9192,309.9012 127.521,309.6626 127.1014,309.4641 126.6644,309.3077 126.2141,309.1949 125.755,309.1268 125.2913,309.1041 124.8277,309.1268 124.3686,309.1949 123.9183,309.3077 123.4813,309.4641 123.0616,309.6626 122.6635,309.9012 122.2907,310.1777 121.9467,310.4894 121.635,310.8334 121.3585,311.2062 121.1199,311.6043 120.9214,312.0239 120.765,312.461 120.6523,312.9113 120.5841,313.3704"/>
    <polygon points="116.1824,311.4592 116.5806,311.2205 116.9534,310.944 117.2974,310.6323 117.6091,310.2884 117.8856,309.9155 118.1242,309.5174 118.3227,309.0978 118.4791,308.6607 118.5918,308.2105 118.66,307.7513 118.6827,307.2877 118.66,306.8241 118.5918,306.3649 118.4791,305.9147 118.3227,305.4776 118.1242,305.058 117.8856,304.6599 117.6091,304.287 117.2974,303.9431 116.9534,303.6314 116.5806,303.3549 116.1824,303.1162 115.7628,302.9178 115.3258,302.7614 114.8755,302.6486 114.4164,302.5805 113.9528,302.5577 113.4891,302.5805 113.03,302.6486 112.5797,302.7614 112.1427,302.9178 111.7231,303.1162 111.3249,303.3549 110.9521,303.6314 110.6082,303.9431 110.2964,304.287 110.0199,304.6599 109.7813,305.058 109.5828,305.4776 109.4265,305.9147 109.3137,306.3649 109.2456,306.8241 109.2228,307.2877 109.2456,307.7513 109.3137,308.2105 109.4265,308.6607 109.5828,309.0978 109.7813,309.5174 110.0199,309.9155 110.2964,310.2884 110.6082,310.6323 110.9521,310.944 111.3249,311.2205 111.7231,311.4592 112.1427,311.6576 112.5797,311.814 113.03,311.9268 113.4891,311.9949 113.9528,312.0177 114.4164,311.9949 114.8755,311.9268 115.3258,311.814 115.7628,311.6576"/>
    <polygon points="99.9863,309.9012 99.6135,310.1777 99.2696,310.4894 98.9579,310.8334 98.6813,311.2062 98.4427,311.6043 98.2442,312.0239 98.0879,312.461 97.9751,312.9113 97.907,313.3704 97.8842,313.834 97.907,314.2976 97.9751,314.7568 98.0879,315.2071 98.2442,315.6441 98.4427,316.0637 98.6813,316.4619 98.9579,316.8347 99.2696,317.1786 99.6135,317.4903 99.9863,317.7669 100.3845,318.0055 100.8041,318.204 101.2411,318.3603 101.6914,318.4731 102.1506,318.5412 102.6142,318.564 103.0778,318.5412 103.5369,318.4731 103.9872,318.3603 104.4243,318.204 104.8439,318.0055 105.242,317.7669 105.6148,317.4903 105.9588,317.1786 106.2705,316.8347 106.547,316.4619 106.7856,316.0637 106.9841,315.6441 107.1405,315.2071 107.2533,314.7568 107.3214,314.2976 107.3441,313.834 107.3214,313.3704 107.2533,312.9113 107.1405,312.461 106.9841,312.0239 106.7856,311.6043 106.547,311.2062 106.2705,310.8334 105.9588,310.4894 105.6148,310.1777 105.242,309.9012 104.8439,309.6626 104.4243,309.4641 103.9872,309.3077 103.5369,309.1949 103.0778,309.1268 102.6142,309.1041 102.1506,309.1268 101.6914,309.1949 101.2411,309.3077 100.8041,309.4641 100.3845,309.6626"/>
    <polygon points="109.2456,294.6586 109.3137,295.1178 109.4265,295.5681 109.5828,296.0051 109.7813,296.4247 110.0199,296.8229 110.2964,297.1957 110.6082,297.5396 110.9521,297.8513 111.3249,298.1279 111.7231,298.3665 112.1427,298.565 112.5797,298.7213 113.03,298.8341 113.4891,298.9022 113.9528,298.925 114.4164,298.9022 114.8755,298.8341 115.3258,298.7213 115.7628,298.565 116.1824,298.3665 116.5806,298.1279 116.9534,297.8513 117.2974,297.5396 117.6091,297.1957 117.8856,296.8229 118.1242,296.4247 118.3227,296.0051 118.4791,295.5681 118.5918,295.1178 118.66,294.6586 118.6827,294.195 118.66,293.7314 118.5918,293.2723 118.4791,292.822 118.3227,292.3849 118.1242,291.9653 117.8856,291.5672 117.6091,291.1944 117.2974,290.8504 116.9534,290.5387 116.5806,290.2622 116.1824,290.0236 115.7628,289.8251 115.3258,289.6687 114.8755,289.5559 114.4164,289.4878 113.9528,289.4651 113.4891,289.4878 113.03,289.5559 112.5797,289.6687 112.1427,289.8251 111.7231,290.0236 111.3249,290.2622 110.9521,290.5387 110.6082,290.8504 110.2964,291.1944 110.0199,291.5672 109.7813,291.9653 109.5828,292.3849 109.4265,292.822 109.3137,293.2723 109.2456,293.7314 109.2228,294.195"/>
    <polygon points="109.2456,281.566 109.3137,282.0251 109.4265,282.4754 109.5828,282.9124 109.7813,283.3321 110.0199,283.7302 110.2964,284.103 110.6082,284.447 110.9521,284.7587 111.3249,285.0352 111.7231,285.2738 112.1427,285.4723 112.5797,285.6287 113.03,285.7414 113.4891,285.8096 113.9528,285.8323 114.4164,285.8096 114.8755,285.7414 115.3258,285.6287 115.7628,285.4723 116.1824,285.2738 116.5806,285.0352 116.9534,284.7587 117.2974,284.447 117.6091,284.103 117.8856,283.7302 118.1242,283.3321 118.3227,282.9124 118.4791,282.4754 118.5918,282.0251 118.66,281.566 118.6827,281.1024 118.66,280.6387 118.5918,280.1796 118.4791,279.7293 118.3227,279.2923 118.1242,278.8727 117.8856,278.4745 117.6091,278.1017 117.2974,277.7578 116.9534,277.446 116.5806,277.1695 116.1824,276.9309 115.7628,276.7324 115.3258,276.5761 114.8755,276.4633 114.4164,276.3952 113.9528,276.3724 113.4891,276.3952 113.03,276.4633 112.5797,276.5761 112.1427,276.7324 111.7231,276.9309 111.3249,277.1695 110.9521,277.446 110.6082,277.7578 110.2964,278.1017 110.0199,278.4745 109.7813,278.8727 109.5828,279.2923 109.4265,279.7293 109.3137,280.1796 109.2456,280.6387 109.2228,281.1024"/>
    <polygon points="114.8755,263.3706 114.4164,263.3025 113.9528,263.2797 113.4891,263.3025 113.03,263.3706 112.5797,263.4834 112.1427,263.6398 111.7231,263.8382 111.3249,264.0769 110.9521,264.3534 110.6082,264.6651 110.2964,265.009 110.0199,265.3819 109.7813,265.78 109.5828,266.1996 109.4265,266.6367 109.3137,267.0869 109.2456,267.5461 109.2228,268.0097 109.2456,268.4733 109.3137,268.9325 109.4265,269.3827 109.5828,269.8198 109.7813,270.2394 110.0199,270.6375 110.2964,271.0104 110.6082,271.3543 110.9521,271.666 111.3249,271.9425 111.7231,272.1812 112.1427,272.3796 112.5797,272.536 113.03,272.6488 113.4891,272.7169 113.9528,272.7397 114.4164,272.7169 114.8755,272.6488 115.3258,272.536 115.7628,272.3796 116.1824,272.1812 116.5806,271.9425 116.9534,271.666 117.2974,271.3543 117.6091,271.0104 117.8856,270.6375 118.1242,270.2394 118.3227,269.8198 118.4791,269.3827 118.5918,268.9325 118.66,268.4733 118.6827,268.0097 118.66,267.5461 118.5918,267.0869 118.4791,266.6367 118.3227,266.1996 118.1242,265.78 117.8856,265.3819 117.6091,265.009 117.2974,264.6651 116.9534,264.3534 116.5806,264.0769 116.1824,263.8382 115.7628,263.6398 115.3258,263.4834"/>
    <polygon points="132.1036,279.7293 131.9908,280.1796 131.9227,280.6387 131.8999,281.1024 131.9227,281.566 131.9908,282.0251 132.1036,282.4754 132.26,282.9124 132.4585,283.3321 132.6971,283.7302 132.9736,284.103 133.2853,284.447 133.6293,284.7587 134.0021,285.0352 134.4002,285.2738 134.8198,285.4723 135.2569,285.6287 135.7071,285.7414 136.1663,285.8096 136.6299,285.8323 137.0935,285.8096 137.5527,285.7414 138.003,285.6287 138.44,285.4723 138.8596,285.2738 139.2578,285.0352 139.6306,284.7587 139.9745,284.447 140.2862,284.103 140.5627,283.7302 140.8014,283.3321 140.9998,282.9124 141.1562,282.4754 141.269,282.0251 141.3371,281.566 141.3599,281.1024 141.3371,280.6387 141.269,280.1796 141.1562,279.7293 140.9998,279.2923 140.8014,278.8727 140.5627,278.4745 140.2862,278.1017 139.9745,277.7578 139.6306,277.446 139.2578,277.1695 138.8596,276.9309 138.44,276.7324 138.003,276.5761 137.5527,276.4633 137.0935,276.3952 136.6299,276.3724 136.1663,276.3952 135.7071,276.4633 135.2569,276.5761 134.8198,276.7324 134.4002,276.9309 134.0021,277.1695 133.6293,277.446 133.2853,277.7578 132.9736,278.1017 132.6971,278.4745 132.4585,278.8727 132.26,279.2923"/>
    <polygon points="128.6359,290.9933 128.9477,290.6494 129.2242,290.2765 129.4628,289.8784 129.6613,289.4588 129.8176,289.0217 129.9304,288.5715 129.9985,288.1123 130.0213,287.6487 129.9985,287.1851 129.9304,286.7259 129.8176,286.2757 129.6613,285.8386 129.4628,285.419 129.2242,285.0209 128.9477,284.648 128.6359,284.3041 128.292,283.9924 127.9192,283.7159 127.521,283.4772 127.1014,283.2788 126.6644,283.1224 126.2141,283.0096 125.755,282.9415 125.2913,282.9187 124.8277,282.9415 124.3686,283.0096 123.9183,283.1224 123.4813,283.2788 123.0616,283.4772 122.6635,283.7159 122.2907,283.9924 121.9467,284.3041 121.635,284.648 121.3585,285.0209 121.1199,285.419 120.9214,285.8386 120.765,286.2757 120.6523,286.7259 120.5841,287.1851 120.5614,287.6487 120.5841,288.1123 120.6523,288.5715 120.765,289.0217 120.9214,289.4588 121.1199,289.8784 121.3585,290.2765 121.635,290.6494 121.9467,290.9933 122.2907,291.305 122.6635,291.5815 123.0616,291.8202 123.4813,292.0186 123.9183,292.175 124.3686,292.2878 124.8277,292.3559 125.2913,292.3787 125.755,292.3559 126.2141,292.2878 126.6644,292.175 127.1014,292.0186 127.521,291.8202 127.9192,291.5815 128.292,291.305"/>
    <polygon points="141.5147,289.5194 140.4094,289.4651 139.3042,289.5194 138.2096,289.6817 137.1361,289.9506 136.0942,290.3234 135.0938,290.7965 134.1447,291.3655 133.2558,292.0247 132.4359,292.7678 131.6927,293.5878 131.0335,294.4766 130.4646,295.4257 129.9915,296.4261 129.6187,297.468 129.3498,298.5415 129.1874,299.6361 129.1331,300.7414 129.1874,301.8466 129.3498,302.9413 129.6187,304.0147 129.9915,305.0566 130.4646,306.057 131.0335,307.0061 131.6927,307.895 132.4359,308.7149 133.2558,309.4581 134.1447,310.1173 135.0938,310.6862 136.0942,311.1593 137.1361,311.5321 138.2096,311.801 139.3042,311.9634 140.4094,312.0177 141.5147,311.9634 142.6093,311.801 143.6828,311.5321 144.7247,311.1593 145.7251,310.6862 146.6742,310.1173 147.5631,309.4581 148.383,308.7149 149.1262,307.895 149.7854,307.0061 150.3543,306.057 150.8274,305.0566 151.2002,304.0147 151.4691,302.9413 151.6315,301.8466 151.6858,300.7414 151.6315,299.6361 151.4691,298.5415 151.2002,297.468 150.8274,296.4261 150.3543,295.4257 149.7854,294.4766 149.1262,293.5878 148.383,292.7678 147.5631,292.0247 146.6742,291.3655 145.7251,290.7965 144.7247,290.3234 143.6828,289.9506 142.6093,289.6817"/>
    <polygon points="148.8913,279.1951 149.3415,279.0823 149.7786,278.926 150.1982,278.7275 150.5963,278.4889 150.9692,278.2123 151.3131,277.9006 151.6248,277.5567 151.9013,277.1839 152.14,276.7857 152.3384,276.3661 152.4948,275.9291 152.6076,275.4788 152.6757,275.0196 152.6985,274.556 152.6757,274.0924 152.6076,273.6333 152.4948,273.183 152.3384,272.7459 152.14,272.3263 151.9013,271.9282 151.6248,271.5554 151.3131,271.2114 150.9692,270.8997 150.5963,270.6232 150.1982,270.3846 149.7786,270.1861 149.3415,270.0297 148.8913,269.9169 148.4321,269.8488 147.9685,269.8261 147.5049,269.8488 147.0457,269.9169 146.5955,270.0297 146.1584,270.1861 145.7388,270.3846 145.3407,270.6232 144.9678,270.8997 144.6239,271.2114 144.3122,271.5554 144.0357,271.9282 143.797,272.3263 143.5986,272.7459 143.4422,273.183 143.3294,273.6333 143.2613,274.0924 143.2385,274.556 143.2613,275.0196 143.3294,275.4788 143.4422,275.9291 143.5986,276.3661 143.797,276.7857 144.0357,277.1839 144.3122,277.5567 144.6239,277.9006 144.9678,278.2123 145.3407,278.4889 145.7388,278.7275 146.1584,278.926 146.5955,279.0823 147.0457,279.1951 147.5049,279.2632 147.9685,279.286 148.4321,279.2632"/>
    <polygon points="159.8133,276.8579 158.7714,277.2307 157.771,277.7039 156.8218,278.2728 155.933,278.932 155.1131,279.6751 154.3699,280.4951 153.7107,281.3839 153.1418,282.3331 152.6687,283.3334 152.2959,284.3754 152.027,285.4488 151.8646,286.5434 151.8103,287.6487 151.8646,288.754 152.027,289.8486 152.2959,290.922 152.6687,291.964 153.1418,292.9643 153.7107,293.9135 154.3699,294.8023 155.1131,295.6222 155.933,296.3654 156.8218,297.0246 157.771,297.5935 158.7714,298.0666 159.8133,298.4394 160.8867,298.7083 161.9813,298.8707 163.0866,298.925 164.1919,298.8707 165.2865,298.7083 166.36,298.4394 167.4019,298.0666 168.4022,297.5935 169.3514,297.0246 170.2402,296.3654 171.0602,295.6222 171.8033,294.8023 172.4625,293.9135 173.0314,292.9643 173.5046,291.964 173.8774,290.922 174.1462,289.8486 174.3086,288.754 174.3629,287.6487 174.3086,286.5434 174.1462,285.4488 173.8774,284.3754 173.5046,283.3334 173.0314,282.3331 172.4625,281.3839 171.8033,280.4951 171.0602,279.6751 170.2402,278.932 169.3514,278.2728 168.4022,277.7039 167.4019,277.2307 166.36,276.8579 165.2865,276.5891 164.1919,276.4267 163.0866,276.3724 161.9813,276.4267 160.8867,276.5891"/>
    <polygon points="157.0774,263.8382 156.6793,264.0769 156.3064,264.3534 155.9625,264.6651 155.6508,265.009 155.3743,265.3819 155.1356,265.78 154.9372,266.1996 154.7808,266.6367 154.668,267.0869 154.5999,267.5461 154.5771,268.0097 154.5999,268.4733 154.668,268.9325 154.7808,269.3827 154.9372,269.8198 155.1356,270.2394 155.3743,270.6375 155.6508,271.0104 155.9625,271.3543 156.3064,271.666 156.6793,271.9425 157.0774,272.1812 157.497,272.3796 157.934,272.536 158.3843,272.6488 158.8435,272.7169 159.3071,272.7397 159.7707,272.7169 160.2299,272.6488 160.6801,272.536 161.1172,272.3796 161.5368,272.1812 161.9349,271.9425 162.3077,271.666 162.6517,271.3543 162.9634,271.0104 163.2399,270.6375 163.4786,270.2394 163.677,269.8198 163.8334,269.3827 163.9462,268.9325 164.0143,268.4733 164.0371,268.0097 164.0143,267.5461 163.9462,267.0869 163.8334,266.6367 163.677,266.1996 163.4786,265.78 163.2399,265.3819 162.9634,265.009 162.6517,264.6651 162.3077,264.3534 161.9349,264.0769 161.5368,263.8382 161.1172,263.6398 160.6801,263.4834 160.2299,263.3706 159.7707,263.3025 159.3071,263.2797 158.8435,263.3025 158.3843,263.3706 157.934,263.4834 157.497,263.6398"/>
    <polygon points="174.8171,259.2337 174.5785,258.8355 174.302,258.4627 173.9903,258.1188 173.6463,257.807 173.2735,257.5305 172.8754,257.2919 172.4558,257.0934 172.0187,256.9371 171.5684,256.8243 171.1093,256.7562 170.6457,256.7334 170.1821,256.7562 169.7229,256.8243 169.2726,256.9371 168.8356,257.0934 168.416,257.2919 168.0178,257.5305 167.645,257.807 167.3011,258.1188 166.9894,258.4627 166.7128,258.8355 166.4742,259.2337 166.2757,259.6533 166.1194,260.0903 166.0066,260.5406 165.9385,260.9997 165.9157,261.4634 165.9385,261.927 166.0066,262.3861 166.1194,262.8364 166.2757,263.2734 166.4742,263.6931 166.7128,264.0912 166.9894,264.464 167.3011,264.808 167.645,265.1197 168.0178,265.3962 168.416,265.6348 168.8356,265.8333 169.2726,265.9897 169.7229,266.1024 170.1821,266.1706 170.6457,266.1933 171.1093,266.1706 171.5684,266.1024 172.0187,265.9897 172.4558,265.8333 172.8754,265.6348 173.2735,265.3962 173.6463,265.1197 173.9903,264.808 174.302,264.464 174.5785,264.0912 174.8171,263.6931 175.0156,263.2734 175.172,262.8364 175.2848,262.3861 175.3529,261.927 175.3756,261.4634 175.3529,260.9997 175.2848,260.5406 175.172,260.0903 175.0156,259.6533"/>
    <polygon points="174.8171,246.141 174.5785,245.7429 174.302,245.37 173.9903,245.0261 173.6463,244.7144 173.2735,244.4379 172.8754,244.1992 172.4558,244.0008 172.0187,243.8444 171.5684,243.7316 171.1093,243.6635 170.6457,243.6407 170.1821,243.6635 169.7229,243.7316 169.2726,243.8444 168.8356,244.0008 168.416,244.1992 168.0178,244.4379 167.645,244.7144 167.3011,245.0261 166.9894,245.37 166.7128,245.7429 166.4742,246.141 166.2757,246.5606 166.1194,246.9977 166.0066,247.4479 165.9385,247.9071 165.9157,248.3707 165.9385,248.8343 166.0066,249.2935 166.1194,249.7437 166.2757,250.1808 166.4742,250.6004 166.7128,250.9985 166.9894,251.3714 167.3011,251.7153 167.645,252.027 168.0178,252.3035 168.416,252.5422 168.8356,252.7406 169.2726,252.897 169.7229,253.0098 170.1821,253.0779 170.6457,253.1007 171.1093,253.0779 171.5684,253.0098 172.0187,252.897 172.4558,252.7406 172.8754,252.5422 173.2735,252.3035 173.6463,252.027 173.9903,251.7153 174.302,251.3714 174.5785,250.9985 174.8171,250.6004 175.0156,250.1808 175.172,249.7437 175.2848,249.2935 175.3529,248.8343 175.3756,248.3707 175.3529,247.9071 175.2848,247.4479 175.172,246.9977 175.0156,246.5606"/>
    <polygon points="167.645,231.6217 167.3011,231.9334 166.9894,232.2774 166.7128,232.6502 166.4742,233.0483 166.2757,233.4679 166.1194,233.905 166.0066,234.3553 165.9385,234.8144 165.9157,235.278 165.9385,235.7416 166.0066,236.2008 166.1194,236.6511 166.2757,237.0881 166.4742,237.5077 166.7128,237.9059 166.9894,238.2787 167.3011,238.6226 167.645,238.9343 168.0178,239.2109 168.416,239.4495 168.8356,239.648 169.2726,239.8043 169.7229,239.9171 170.1821,239.9852 170.6457,240.008 171.1093,239.9852 171.5684,239.9171 172.0187,239.8043 172.4558,239.648 172.8754,239.4495 173.2735,239.2109 173.6463,238.9343 173.9903,238.6226 174.302,238.2787 174.5785,237.9059 174.8171,237.5077 175.0156,237.0881 175.172,236.6511 175.2848,236.2008 175.3529,235.7416 175.3756,235.278 175.3529,234.8144 175.2848,234.3553 175.172,233.905 175.0156,233.4679 174.8171,233.0483 174.5785,232.6502 174.302,232.2774 173.9903,231.9334 173.6463,231.6217 173.2735,231.3452 172.8754,231.1066 172.4558,230.9081 172.0187,230.7517 171.5684,230.6389 171.1093,230.5708 170.6457,230.5481 170.1821,230.5708 169.7229,230.6389 169.2726,230.7517 168.8356,230.9081 168.416,231.1066 168.0178,231.3452"/>
    <polygon points="174.8171,224.4151 175.0156,223.9954 175.172,223.5584 175.2848,223.1081 175.3529,222.649 175.3756,222.1854 175.3529,221.7217 175.2848,221.2626 175.172,220.8123 175.0156,220.3753 174.8171,219.9557 174.5785,219.5575 174.302,219.1847 173.9903,218.8408 173.6463,218.529 173.2735,218.2525 172.8754,218.0139 172.4558,217.8154 172.0187,217.6591 171.5684,217.5463 171.1093,217.4782 170.6457,217.4554 170.1821,217.4782 169.7229,217.5463 169.2726,217.6591 168.8356,217.8154 168.416,218.0139 168.0178,218.2525 167.645,218.529 167.3011,218.8408 166.9894,219.1847 166.7128,219.5575 166.4742,219.9557 166.2757,220.3753 166.1194,220.8123 166.0066,221.2626 165.9385,221.7217 165.9157,222.1854 165.9385,222.649 166.0066,223.1081 166.1194,223.5584 166.2757,223.9954 166.4742,224.4151 166.7128,224.8132 166.9894,225.186 167.3011,225.53 167.645,225.8417 168.0178,226.1182 168.416,226.3568 168.8356,226.5553 169.2726,226.7117 169.7229,226.8244 170.1821,226.8926 170.6457,226.9153 171.1093,226.8926 171.5684,226.8244 172.0187,226.7117 172.4558,226.5553 172.8754,226.3568 173.2735,226.1182 173.6463,225.8417 173.9903,225.53 174.302,225.186 174.5785,224.8132"/>
    <polygon points="199.065,202.8279 198.4961,203.7771 198.023,204.7774 197.6502,205.8194 197.3813,206.8928 197.2189,207.9874 197.1646,209.0927 197.2189,210.198 197.3813,211.2926 197.6502,212.366 198.023,213.4079 198.4961,214.4083 199.065,215.3575 199.7242,216.2463 200.4674,217.0662 201.2873,217.8094 202.1762,218.4686 203.1253,219.0375 204.1257,219.5106 205.1676,219.8834 206.241,220.1523 207.3357,220.3147 208.4409,220.369 209.5462,220.3147 210.6408,220.1523 211.7143,219.8834 212.7562,219.5106 213.7566,219.0375 214.7057,218.4686 215.5946,217.8094 216.4145,217.0662 217.1576,216.2463 217.8169,215.3575 218.3858,214.4083 218.8589,213.4079 219.2317,212.366 219.5006,211.2926 219.663,210.198 219.7173,209.0927 219.663,207.9874 219.5006,206.8928 219.2317,205.8194 218.8589,204.7774 218.3858,203.7771 217.8169,202.8279 217.1576,201.9391 216.4145,201.1191 215.5946,200.376 214.7057,199.7168 213.7566,199.1479 212.7562,198.6747 211.7143,198.3019 210.6408,198.0331 209.5462,197.8707 208.4409,197.8164 207.3357,197.8707 206.241,198.0331 205.1676,198.3019 204.1257,198.6747 203.1253,199.1479 202.1762,199.7168 201.2873,200.376 200.4674,201.1191 199.7242,201.9391"/>
    <polygon points="215.3575,189.9813 216.1632,192.233 217.1856,194.3948 218.4151,196.446 219.8397,198.3669 221.4457,200.1388 223.2177,201.7448 225.1385,203.1694 227.1897,204.3989 229.3516,205.4214 231.6032,206.227 233.923,206.8081 236.2886,207.159 238.6772,207.2763 241.0657,207.159 243.4313,206.8081 245.7511,206.227 248.0028,205.4214 250.1646,204.3989 252.2158,203.1694 254.1367,201.7448 255.9086,200.1388 257.5146,198.3669 258.9392,196.446 260.1687,194.3948 261.1912,192.233 261.9968,189.9813 262.5779,187.6615 262.9288,185.2959 263.0461,182.9074 262.9288,180.5188 262.5779,178.1532 261.9968,175.8334 261.1912,173.5818 260.1687,171.4199 258.9392,169.3687 257.5146,167.4478 255.9086,165.6759 254.1367,164.0699 252.2158,162.6453 250.1646,161.4158 248.0028,160.3934 245.7511,159.5877 243.4313,159.0066 241.0657,158.6557 238.6772,158.5384 236.2886,158.6557 233.923,159.0066 231.6032,159.5877 229.3516,160.3934 227.1897,161.4158 225.1385,162.6453 223.2177,164.0699 221.4457,165.6759 219.8397,167.4478 218.4151,169.3687 217.1856,171.4199 216.1632,173.5818 215.3575,175.8334 214.7764,178.1532 214.4255,180.5188 214.3082,182.9074 214.4255,185.2959 214.7764,187.6615"/>
    <polygon points="203.1253,166.6668 204.1257,167.14 205.1676,167.5128 206.241,167.7817 207.3357,167.944 208.4409,167.9983 209.5462,167.944 210.6408,167.7817 211.7143,167.5128 212.7562,167.14 213.7566,166.6668 214.7057,166.0979 215.5946,165.4387 216.4145,164.6956 217.1576,163.8756 217.8169,162.9868 218.3858,162.0376 218.8589,161.0373 219.2317,159.9954 219.5006,158.9219 219.663,157.8273 219.7173,156.722 219.663,155.6167 219.5006,154.5221 219.2317,153.4487 218.8589,152.4068 218.3858,151.4064 217.8169,150.4572 217.1576,149.5684 216.4145,148.7485 215.5946,148.0053 214.7057,147.3461 213.7566,146.7772 212.7562,146.3041 211.7143,145.9313 210.6408,145.6624 209.5462,145.5 208.4409,145.4457 207.3357,145.5 206.241,145.6624 205.1676,145.9313 204.1257,146.3041 203.1253,146.7772 202.1762,147.3461 201.2873,148.0053 200.4674,148.7485 199.7242,149.5684 199.065,150.4572 198.4961,151.4064 198.023,152.4068 197.6502,153.4487 197.3813,154.5221 197.2189,155.6167 197.1646,156.722 197.2189,157.8273 197.3813,158.9219 197.6502,159.9954 198.023,161.0373 198.4961,162.0376 199.065,162.9868 199.7242,163.8756 200.4674,164.6956 201.2873,165.4387 202.1762,166.0979"/>
    <polygon points="190.3222,147.2857 190.695,147.5622 191.0931,147.8008 191.5128,147.9993 191.9498,148.1557 192.4001,148.2684 192.8592,148.3365 193.3228,148.3593 193.7865,148.3365 194.2456,148.2684 194.6959,148.1557 195.1329,147.9993 195.5525,147.8008 195.9507,147.5622 196.3235,147.2857 196.6674,146.9739 196.9792,146.63 197.2557,146.2572 197.4943,145.859 197.6928,145.4394 197.8491,145.0024 197.9619,144.5521 198.03,144.093 198.0528,143.6294 198.03,143.1657 197.9619,142.7066 197.8491,142.2563 197.6928,141.8193 197.4943,141.3997 197.2557,141.0015 196.9792,140.6287 196.6674,140.2848 196.3235,139.973 195.9507,139.6965 195.5525,139.4579 195.1329,139.2594 194.6959,139.1031 194.2456,138.9903 193.7865,138.9222 193.3228,138.8994 192.8592,138.9222 192.4001,138.9903 191.9498,139.1031 191.5128,139.2594 191.0931,139.4579 190.695,139.6965 190.3222,139.973 189.9782,140.2848 189.6665,140.6287 189.39,141.0015 189.1514,141.3997 188.9529,141.8193 188.7965,142.2563 188.6837,142.7066 188.6156,143.1657 188.5929,143.6294 188.6156,144.093 188.6837,144.5521 188.7965,145.0024 188.9529,145.4394 189.1514,145.859 189.39,146.2572 189.6665,146.63 189.9782,146.9739"/>
    <polygon points="197.9619,131.4595 198.03,131.0003 198.0528,130.5367 198.03,130.0731 197.9619,129.6139 197.8491,129.1636 197.6928,128.7266 197.4943,128.307 197.2557,127.9089 196.9792,127.536 196.6674,127.1921 196.3235,126.8804 195.9507,126.6039 195.5525,126.3652 195.1329,126.1668 194.6959,126.0104 194.2456,125.8976 193.7865,125.8295 193.3228,125.8067 192.8592,125.8295 192.4001,125.8976 191.9498,126.0104 191.5128,126.1668 191.0931,126.3652 190.695,126.6039 190.3222,126.8804 189.9782,127.1921 189.6665,127.536 189.39,127.9089 189.1514,128.307 188.9529,128.7266 188.7965,129.1636 188.6837,129.6139 188.6156,130.0731 188.5929,130.5367 188.6156,131.0003 188.6837,131.4595 188.7965,131.9097 188.9529,132.3468 189.1514,132.7664 189.39,133.1645 189.6665,133.5373 189.9782,133.8813 190.3222,134.193 190.695,134.4695 191.0931,134.7081 191.5128,134.9066 191.9498,135.063 192.4001,135.1758 192.8592,135.2439 193.3228,135.2667 193.7865,135.2439 194.2456,135.1758 194.6959,135.063 195.1329,134.9066 195.5525,134.7081 195.9507,134.4695 196.3235,134.193 196.6674,133.8813 196.9792,133.5373 197.2557,133.1645 197.4943,132.7664 197.6928,132.3468 197.8491,131.9097"/>
    <polygon points="207.6621,133.4267 207.2892,133.1502 206.8911,132.9116 206.4715,132.7131 206.0345,132.5567 205.5842,132.4439 205.125,132.3758 204.6614,132.353 204.1978,132.3758 203.7386,132.4439 203.2884,132.5567 202.8513,132.7131 202.4317,132.9116 202.0336,133.1502 201.6608,133.4267 201.3168,133.7384 201.0051,134.0824 200.7286,134.4552 200.49,134.8533 200.2915,135.2729 200.1351,135.71 200.0223,136.1602 199.9542,136.6194 199.9314,137.083 199.9542,137.5466 200.0223,138.0058 200.1351,138.4561 200.2915,138.8931 200.49,139.3127 200.7286,139.7109 201.0051,140.0837 201.3168,140.4276 201.6608,140.7393 202.0336,141.0158 202.4317,141.2545 202.8513,141.4529 203.2884,141.6093 203.7386,141.7221 204.1978,141.7902 204.6614,141.813 205.125,141.7902 205.5842,141.7221 206.0345,141.6093 206.4715,141.4529 206.8911,141.2545 207.2892,141.0158 207.6621,140.7393 208.006,140.4276 208.3177,140.0837 208.5942,139.7109 208.8329,139.3127 209.0313,138.8931 209.1877,138.4561 209.3005,138.0058 209.3686,137.5466 209.3914,137.083 209.3686,136.6194 209.3005,136.1602 209.1877,135.71 209.0313,135.2729 208.8329,134.8533 208.5942,134.4552 208.3177,134.0824 208.006,133.7384"/>
    <polygon points="265.4128,167.6148 265.2504,168.7094 265.1961,169.8147 265.2504,170.92 265.4128,172.0146 265.6817,173.088 266.0545,174.1299 266.5276,175.1303 267.0965,176.0795 267.7557,176.9683 268.4989,177.7882 269.3188,178.5314 270.2077,179.1906 271.1568,179.7595 272.1572,180.2326 273.1991,180.6054 274.2725,180.8743 275.3672,181.0367 276.4724,181.091 277.5777,181.0367 278.6723,180.8743 279.7458,180.6054 280.7877,180.2326 281.7881,179.7595 282.7372,179.1906 283.6261,178.5314 284.446,177.7882 285.1891,176.9683 285.8483,176.0795 286.4173,175.1303 286.8904,174.1299 287.2632,173.088 287.5321,172.0146 287.6944,170.92 287.7487,169.8147 287.6944,168.7094 287.5321,167.6148 287.2632,166.5413 286.8904,165.4994 286.4173,164.4991 285.8483,163.5499 285.1891,162.6611 284.446,161.8411 283.6261,161.098 282.7372,160.4388 281.7881,159.8699 280.7877,159.3967 279.7458,159.0239 278.6723,158.7551 277.5777,158.5927 276.4724,158.5384 275.3672,158.5927 274.2725,158.7551 273.1991,159.0239 272.1572,159.3967 271.1568,159.8699 270.2077,160.4388 269.3188,161.098 268.4989,161.8411 267.7557,162.6611 267.0965,163.5499 266.5276,164.4991 266.0545,165.4994 265.6817,166.5413"/>
    <polygon points="300.0092,162.3456 299.8964,161.8953 299.74,161.4583 299.5415,161.0387 299.3029,160.6405 299.0264,160.2677 298.7147,159.9238 298.3707,159.612 297.9979,159.3355 297.5998,159.0969 297.1802,158.8984 296.7431,158.7421 296.2929,158.6293 295.8337,158.5612 295.3701,158.5384 294.9065,158.5612 294.4473,158.6293 293.997,158.7421 293.56,158.8984 293.1404,159.0969 292.7422,159.3355 292.3694,159.612 292.0255,159.9238 291.7138,160.2677 291.4373,160.6405 291.1986,161.0387 291.0002,161.4583 290.8438,161.8953 290.731,162.3456 290.6629,162.8047 290.6401,163.2684 290.6629,163.732 290.731,164.1911 290.8438,164.6414 291.0002,165.0784 291.1986,165.498 291.4373,165.8962 291.7138,166.269 292.0255,166.613 292.3694,166.9247 292.7422,167.2012 293.1404,167.4398 293.56,167.6383 293.997,167.7947 294.4473,167.9074 294.9065,167.9756 295.3701,167.9983 295.8337,167.9756 296.2929,167.9074 296.7431,167.7947 297.1802,167.6383 297.5998,167.4398 297.9979,167.2012 298.3707,166.9247 298.7147,166.613 299.0264,166.269 299.3029,165.8962 299.5415,165.498 299.74,165.0784 299.8964,164.6414 300.0092,164.1911 300.0773,163.732 300.1001,163.2684 300.0773,162.8047"/>
    <polygon points="304.0808,160.6548 304.479,160.8935 304.8986,161.0919 305.3356,161.2483 305.7859,161.3611 306.245,161.4292 306.7087,161.452 307.1723,161.4292 307.6314,161.3611 308.0817,161.2483 308.5187,161.0919 308.9384,160.8935 309.3365,160.6548 309.7093,160.3783 310.0533,160.0666 310.365,159.7227 310.6415,159.3499 310.8801,158.9517 311.0786,158.5321 311.235,158.0951 311.3477,157.6448 311.4159,157.1856 311.4386,156.722 311.4159,156.2584 311.3477,155.7992 311.235,155.349 311.0786,154.9119 310.8801,154.4923 310.6415,154.0942 310.365,153.7214 310.0533,153.3774 309.7093,153.0657 309.3365,152.7892 308.9384,152.5506 308.5187,152.3521 308.0817,152.1957 307.6314,152.0829 307.1723,152.0148 306.7087,151.992 306.245,152.0148 305.7859,152.0829 305.3356,152.1957 304.8986,152.3521 304.479,152.5506 304.0808,152.7892 303.708,153.0657 303.3641,153.3774 303.0523,153.7214 302.7758,154.0942 302.5372,154.4923 302.3387,154.9119 302.1824,155.349 302.0696,155.7992 302.0015,156.2584 301.9787,156.722 302.0015,157.1856 302.0696,157.6448 302.1824,158.0951 302.3387,158.5321 302.5372,158.9517 302.7758,159.3499 303.0523,159.7227 303.3641,160.0666 303.708,160.3783"/>
    <polygon points="299.0264,238.8237 298.7147,238.4798 298.3707,238.168 297.9979,237.8915 297.5998,237.6529 297.1802,237.4544 296.7431,237.2981 296.2929,237.1853 295.8337,237.1172 295.3701,237.0944 294.9065,237.1172 294.4473,237.1853 293.997,237.2981 293.56,237.4544 293.1404,237.6529 292.7422,237.8915 292.3694,238.168 292.0255,238.4798 291.7138,238.8237 291.4373,239.1965 291.1986,239.5947 291.0002,240.0143 290.8438,240.4513 290.731,240.9016 290.6629,241.3607 290.6401,241.8244 290.6629,242.288 290.731,242.7471 290.8438,243.1974 291.0002,243.6344 291.1986,244.0541 291.4373,244.4522 291.7138,244.825 292.0255,245.169 292.3694,245.4807 292.7422,245.7572 293.1404,245.9958 293.56,246.1943 293.997,246.3507 294.4473,246.4634 294.9065,246.5316 295.3701,246.5543 295.8337,246.5316 296.2929,246.4634 296.7431,246.3507 297.1802,246.1943 297.5998,245.9958 297.9979,245.7572 298.3707,245.4807 298.7147,245.169 299.0264,244.825 299.3029,244.4522 299.5415,244.0541 299.74,243.6344 299.8964,243.1974 300.0092,242.7471 300.0773,242.288 300.1001,241.8244 300.0773,241.3607 300.0092,240.9016 299.8964,240.4513 299.74,240.0143 299.5415,239.5947 299.3029,239.1965"/>
    <polygon points="322.5735,253.544 322.4172,253.1069 322.2187,252.6873 321.9801,252.2892 321.7036,251.9164 321.3918,251.5724 321.0479,251.2607 320.6751,250.9842 320.2769,250.7456 319.8573,250.5471 319.4203,250.3907 318.97,250.2779 318.5109,250.2098 318.0472,250.1871 317.5836,250.2098 317.1245,250.2779 316.6742,250.3907 316.2372,250.5471 315.8176,250.7456 315.4194,250.9842 315.0466,251.2607 314.7026,251.5724 314.3909,251.9164 314.1144,252.2892 313.8758,252.6873 313.6773,253.1069 313.5209,253.544 313.4082,253.9943 313.34,254.4534 313.3173,254.917 313.34,255.3806 313.4082,255.8398 313.5209,256.2901 313.6773,256.7271 313.8758,257.1467 314.1144,257.5449 314.3909,257.9177 314.7026,258.2616 315.0466,258.5733 315.4194,258.8499 315.8176,259.0885 316.2372,259.287 316.6742,259.4433 317.1245,259.5561 317.5836,259.6242 318.0472,259.647 318.5109,259.6242 318.97,259.5561 319.4203,259.4433 319.8573,259.287 320.2769,259.0885 320.6751,258.8499 321.0479,258.5733 321.3918,258.2616 321.7036,257.9177 321.9801,257.5449 322.2187,257.1467 322.4172,256.7271 322.5735,256.2901 322.6863,255.8398 322.7544,255.3806 322.7772,254.917 322.7544,254.4534 322.6863,253.9943"/>
    <polygon points="326.3852,252.027 326.758,252.3035 327.1561,252.5422 327.5757,252.7406 328.0128,252.897 328.4631,253.0098 328.9222,253.0779 329.3858,253.1007 329.8494,253.0779 330.3086,253.0098 330.7589,252.897 331.1959,252.7406 331.6155,252.5422 332.0137,252.3035 332.3865,252.027 332.7304,251.7153 333.0421,251.3714 333.3187,250.9985 333.5573,250.6004 333.7558,250.1808 333.9121,249.7437 334.0249,249.2935 334.093,248.8343 334.1158,248.3707 334.093,247.9071 334.0249,247.4479 333.9121,246.9977 333.7558,246.5606 333.5573,246.141 333.3187,245.7429 333.0421,245.37 332.7304,245.0261 332.3865,244.7144 332.0137,244.4379 331.6155,244.1992 331.1959,244.0008 330.7589,243.8444 330.3086,243.7316 329.8494,243.6635 329.3858,243.6407 328.9222,243.6635 328.4631,243.7316 328.0128,243.8444 327.5757,244.0008 327.1561,244.1992 326.758,244.4379 326.3852,244.7144 326.0412,245.0261 325.7295,245.37 325.453,245.7429 325.2144,246.141 325.0159,246.5606 324.8595,246.9977 324.7467,247.4479 324.6786,247.9071 324.6559,248.3707 324.6786,248.8343 324.7467,249.2935 324.8595,249.7437 325.0159,250.1808 325.2144,250.6004 325.453,250.9985 325.7295,251.3714 326.0412,251.7153"/>
    <polygon points="325.7295,258.4627 325.453,258.8355 325.2144,259.2337 325.0159,259.6533 324.8595,260.0903 324.7467,260.5406 324.6786,260.9997 324.6559,261.4634 324.6786,261.927 324.7467,262.3861 324.8595,262.8364 325.0159,263.2734 325.2144,263.6931 325.453,264.0912 325.7295,264.464 326.0412,264.808 326.3852,265.1197 326.758,265.3962 327.1561,265.6348 327.5757,265.8333 328.0128,265.9897 328.4631,266.1024 328.9222,266.1706 329.3858,266.1933 329.8494,266.1706 330.3086,266.1024 330.7589,265.9897 331.1959,265.8333 331.6155,265.6348 332.0137,265.3962 332.3865,265.1197 332.7304,264.808 333.0421,264.464 333.3187,264.0912 333.5573,263.6931 333.7558,263.2734 333.9121,262.8364 334.0249,262.3861 334.093,261.927 334.1158,261.4634 334.093,260.9997 334.0249,260.5406 333.9121,260.0903 333.7558,259.6533 333.5573,259.2337 333.3187,258.8355 333.0421,258.4627 332.7304,258.1188 332.3865,257.807 332.0137,257.5305 331.6155,257.2919 331.1959,257.0934 330.7589,256.9371 330.3086,256.8243 329.8494,256.7562 329.3858,256.7334 328.9222,256.7562 328.4631,256.8243 328.0128,256.9371 327.5757,257.0934 327.1561,257.2919 326.758,257.5305 326.3852,257.807 326.0412,258.1188"/>
    <polygon points="321.7036,271.0104 321.9801,270.6375 322.2187,270.2394 322.4172,269.8198 322.5735,269.3827 322.6863,268.9325 322.7544,268.4733 322.7772,268.0097 322.7544,267.5461 322.6863,267.0869 322.5735,266.6367 322.4172,266.1996 322.2187,265.78 321.9801,265.3819 321.7036,265.009 321.3918,264.6651 321.0479,264.3534 320.6751,264.0769 320.2769,263.8382 319.8573,263.6398 319.4203,263.4834 318.97,263.3706 318.5109,263.3025 318.0472,263.2797 317.5836,263.3025 317.1245,263.3706 316.6742,263.4834 316.2372,263.6398 315.8176,263.8382 315.4194,264.0769 315.0466,264.3534 314.7026,264.6651 314.3909,265.009 314.1144,265.3819 313.8758,265.78 313.6773,266.1996 313.5209,266.6367 313.4082,267.0869 313.34,267.5461 313.3173,268.0097 313.34,268.4733 313.4082,268.9325 313.5209,269.3827 313.6773,269.8198 313.8758,270.2394 314.1144,270.6375 314.3909,271.0104 314.7026,271.3543 315.0466,271.666 315.4194,271.9425 315.8176,272.1812 316.2372,272.3796 316.6742,272.536 317.1245,272.6488 317.5836,272.7169 318.0472,272.7397 318.5109,272.7169 318.97,272.6488 319.4203,272.536 319.8573,272.3796 320.2769,272.1812 320.6751,271.9425 321.0479,271.666 321.3918,271.3543"/>
    <polygon points="303.4649,271.8813 304.4652,271.4082 305.4144,270.8393 306.3032,270.1801 307.1232,269.4369 307.8663,268.617 308.5255,267.7281 309.0944,266.779 309.5676,265.7786 309.9404,264.7367 310.2092,263.6633 310.3716,262.5686 310.4259,261.4634 310.3716,260.3581 310.2092,259.2635 309.9404,258.19 309.5676,257.1481 309.0944,256.1477 308.5255,255.1986 307.8663,254.3097 307.1232,253.4898 306.3032,252.7467 305.4144,252.0875 304.4652,251.5185 303.4649,251.0454 302.4229,250.6726 301.3495,250.4037 300.2549,250.2414 299.1496,250.1871 298.0443,250.2414 296.9497,250.4037 295.8763,250.6726 294.8344,251.0454 293.834,251.5185 292.8848,252.0875 291.996,252.7467 291.1761,253.4898 290.4329,254.3097 289.7737,255.1986 289.2048,256.1477 288.7317,257.1481 288.3589,258.19 288.09,259.2635 287.9276,260.3581 287.8733,261.4634 287.9276,262.5686 288.09,263.6633 288.3589,264.7367 288.7317,265.7786 289.2048,266.779 289.7737,267.7281 290.4329,268.617 291.1761,269.4369 291.996,270.1801 292.8848,270.8393 293.834,271.4082 294.8344,271.8813 295.8763,272.2541 296.9497,272.523 298.0443,272.6854 299.1496,272.7397 300.2549,272.6854 301.3495,272.523 302.4229,272.2541"/>
    <polygon points="293.1404,276.9309 292.7422,277.1695 292.3694,277.446 292.0255,277.7578 291.7138,278.1017 291.4373,278.4745 291.1986,278.8727 291.0002,279.2923 290.8438,279.7293 290.731,280.1796 290.6629,280.6387 290.6401,281.1024 290.6629,281.566 290.731,282.0251 290.8438,282.4754 291.0002,282.9124 291.1986,283.3321 291.4373,283.7302 291.7138,284.103 292.0255,284.447 292.3694,284.7587 292.7422,285.0352 293.1404,285.2738 293.56,285.4723 293.997,285.6287 294.4473,285.7414 294.9065,285.8096 295.3701,285.8323 295.8337,285.8096 296.2929,285.7414 296.7431,285.6287 297.1802,285.4723 297.5998,285.2738 297.9979,285.0352 298.3707,284.7587 298.7147,284.447 299.0264,284.103 299.3029,283.7302 299.5415,283.3321 299.74,282.9124 299.8964,282.4754 300.0092,282.0251 300.0773,281.566 300.1001,281.1024 300.0773,280.6387 300.0092,280.1796 299.8964,279.7293 299.74,279.2923 299.5415,278.8727 299.3029,278.4745 299.0264,278.1017 298.7147,277.7578 298.3707,277.446 297.9979,277.1695 297.5998,276.9309 297.1802,276.7324 296.7431,276.5761 296.2929,276.4633 295.8337,276.3952 295.3701,276.3724 294.9065,276.3952 294.4473,276.4633 293.997,276.5761 293.56,276.7324"/>
    <polygon points="287.5321,276.7559 287.6944,275.6613 287.7487,274.556 287.6944,273.4508 287.5321,272.3561 287.2632,271.2827 286.8904,270.2408 286.4173,269.2404 285.8483,268.2912 285.1891,267.4024 284.446,266.5825 283.6261,265.8393 282.7372,265.1801 281.7881,264.6112 280.7877,264.1381 279.7458,263.7653 278.6723,263.4964 277.5777,263.334 276.4724,263.2797 275.3672,263.334 274.2725,263.4964 273.1991,263.7653 272.1572,264.1381 271.1568,264.6112 270.2077,265.1801 269.3188,265.8393 268.4989,266.5825 267.7557,267.4024 267.0965,268.2912 266.5276,269.2404 266.0545,270.2408 265.6817,271.2827 265.4128,272.3561 265.2504,273.4508 265.1961,274.556 265.2504,275.6613 265.4128,276.7559 265.6817,277.8294 266.0545,278.8713 266.5276,279.8716 267.0965,280.8208 267.7557,281.7096 268.4989,282.5296 269.3188,283.2727 270.2077,283.9319 271.1568,284.5008 272.1572,284.974 273.1991,285.3468 274.2725,285.6157 275.3672,285.778 276.4724,285.8323 277.5777,285.778 278.6723,285.6157 279.7458,285.3468 280.7877,284.974 281.7881,284.5008 282.7372,283.9319 283.6261,283.2727 284.446,282.5296 285.1891,281.7096 285.8483,280.8208 286.4173,279.8716 286.8904,278.8713 287.2632,277.8294"/>
    <polygon points="296.7431,289.6687 296.2929,289.5559 295.8337,289.4878 295.3701,289.4651 294.9065,289.4878 294.4473,289.5559 293.997,289.6687 293.56,289.8251 293.1404,290.0236 292.7422,290.2622 292.3694,290.5387 292.0255,290.8504 291.7138,291.1944 291.4373,291.5672 291.1986,291.9653 291.0002,292.3849 290.8438,292.822 290.731,293.2723 290.6629,293.7314 290.6401,294.195 290.6629,294.6586 290.731,295.1178 290.8438,295.5681 291.0002,296.0051 291.1986,296.4247 291.4373,296.8229 291.7138,297.1957 292.0255,297.5396 292.3694,297.8513 292.7422,298.1279 293.1404,298.3665 293.56,298.565 293.997,298.7213 294.4473,298.8341 294.9065,298.9022 295.3701,298.925 295.8337,298.9022 296.2929,298.8341 296.7431,298.7213 297.1802,298.565 297.5998,298.3665 297.9979,298.1279 298.3707,297.8513 298.7147,297.5396 299.0264,297.1957 299.3029,296.8229 299.5415,296.4247 299.74,296.0051 299.8964,295.5681 300.0092,295.1178 300.0773,294.6586 300.1001,294.195 300.0773,293.7314 300.0092,293.2723 299.8964,292.822 299.74,292.3849 299.5415,291.9653 299.3029,291.5672 299.0264,291.1944 298.7147,290.8504 298.3707,290.5387 297.9979,290.2622 297.5998,290.0236 297.1802,289.8251"/>
    <polygon points="308.0817,296.2151 307.6314,296.1023 307.1723,296.0342 306.7087,296.0114 306.245,296.0342 305.7859,296.1023 305.3356,296.2151 304.8986,296.3714 304.479,296.5699 304.0808,296.8085 303.708,297.085 303.3641,297.3968 303.0523,297.7407 302.7758,298.1135 302.5372,298.5117 302.3387,298.9313 302.1824,299.3683 302.0696,299.8186 302.0015,300.2777 301.9787,300.7414 302.0015,301.205 302.0696,301.6641 302.1824,302.1144 302.3387,302.5514 302.5372,302.9711 302.7758,303.3692 303.0523,303.742 303.3641,304.086 303.708,304.3977 304.0808,304.6742 304.479,304.9128 304.8986,305.1113 305.3356,305.2677 305.7859,305.3805 306.245,305.4486 306.7087,305.4713 307.1723,305.4486 307.6314,305.3805 308.0817,305.2677 308.5187,305.1113 308.9384,304.9128 309.3365,304.6742 309.7093,304.3977 310.0533,304.086 310.365,303.742 310.6415,303.3692 310.8801,302.9711 311.0786,302.5514 311.235,302.1144 311.3477,301.6641 311.4159,301.205 311.4386,300.7414 311.4159,300.2777 311.3477,299.8186 311.235,299.3683 311.0786,298.9313 310.8801,298.5117 310.6415,298.1135 310.365,297.7407 310.0533,297.3968 309.7093,297.085 309.3365,296.8085 308.9384,296.5699 308.5187,296.3714"/>
    <polygon points="304.479,309.6626 304.0808,309.9012 303.708,310.1777 303.3641,310.4894 303.0523,310.8334 302.7758,311.2062 302.5372,311.6043 302.3387,312.0239 302.1824,312.461 302.0696,312.9113 302.0015,313.3704 301.9787,313.834 302.0015,314.2976 302.0696,314.7568 302.1824,315.2071 302.3387,315.6441 302.5372,316.0637 302.7758,316.4619 303.0523,316.8347 303.3641,317.1786 303.708,317.4903 304.0808,317.7669 304.479,318.0055 304.8986,318.204 305.3356,318.3603 305.7859,318.4731 306.245,318.5412 306.7087,318.564 307.1723,318.5412 307.6314,318.4731 308.0817,318.3603 308.5187,318.204 308.9384,318.0055 309.3365,317.7669 309.7093,317.4903 310.0533,317.1786 310.365,316.8347 310.6415,316.4619 310.8801,316.0637 311.0786,315.6441 311.235,315.2071 311.3477,314.7568 311.4159,314.2976 311.4386,313.834 311.4159,313.3704 311.3477,312.9113 311.235,312.461 311.0786,312.0239 310.8801,311.6043 310.6415,311.2062 310.365,310.8334 310.0533,310.4894 309.7093,310.1777 309.3365,309.9012 308.9384,309.6626 308.5187,309.4641 308.0817,309.3077 307.6314,309.1949 307.1723,309.1268 306.7087,309.1041 306.245,309.1268 305.7859,309.1949 305.3356,309.3077 304.8986,309.4641"/>
    <polygon points="307.1723,322.2195 307.6314,322.2876 308.0817,322.4004 308.5187,322.5568 308.9384,322.7552 309.3365,322.9939 309.7093,323.2704 310.0533,323.5821 310.365,323.926 310.6415,324.2989 310.8801,324.697 311.0786,325.1166 311.235,325.5537 311.3477,326.0039 311.4159,326.4631 311.4386,326.9267 311.4159,327.3903 311.3477,327.8495 311.235,328.2997 311.0786,328.7368 310.8801,329.1564 310.6415,329.5545 310.365,329.9274 310.0533,330.2713 309.7093,330.583 309.3365,330.8595 308.9384,331.0982 308.5187,331.2966 308.0817,331.453 307.6314,331.5658 307.1723,331.6339 306.7087,331.6567 306.245,331.6339 305.7859,331.5658 305.3356,331.453 304.8986,331.2966 304.479,331.0982 304.0808,330.8595 303.708,330.583 303.3641,330.2713 303.0523,329.9274 302.7758,329.5545 302.5372,329.1564 302.3387,328.7368 302.1824,328.2997 302.0696,327.8495 302.0015,327.3903 301.9787,326.9267 302.0015,326.4631 302.0696,326.0039 302.1824,325.5537 302.3387,325.1166 302.5372,324.697 302.7758,324.2989 303.0523,323.926 303.3641,323.5821 303.708,323.2704 304.0808,322.9939 304.479,322.7552 304.8986,322.5568 305.3356,322.4004 305.7859,322.2876 306.245,322.2195 306.7087,322.1967"/>
    <polygon points="295.3701,312.0177 294.9065,311.9949 294.4473,311.9268 293.997,311.814 293.56,311.6576 293.1404,311.4592 292.7422,311.2205 292.3694,310.944 292.0255,310.6323 291.7138,310.2884 291.4373,309.9155 291.1986,309.5174 291.0002,309.0978 290.8438,308.6607 290.731,308.2105 290.6629,307.7513 290.6401,307.2877 290.6629,306.8241 290.731,306.3649 290.8438,305.9147 291.0002,305.4776 291.1986,305.058 291.4373,304.6599 291.7138,304.287 292.0255,303.9431 292.3694,303.6314 292.7422,303.3549 293.1404,303.1162 293.56,302.9178 293.997,302.7614 294.4473,302.6486 294.9065,302.5805 295.3701,302.5577 295.8337,302.5805 296.2929,302.6486 296.7431,302.7614 297.1802,302.9178 297.5998,303.1162 297.9979,303.3549 298.3707,303.6314 298.7147,303.9431 299.0264,304.287 299.3029,304.6599 299.5415,305.058 299.74,305.4776 299.8964,305.9147 300.0092,306.3649 300.0773,306.8241 300.1001,307.2877 300.0773,307.7513 300.0092,308.2105 299.8964,308.6607 299.74,309.0978 299.5415,309.5174 299.3029,309.9155 299.0264,310.2884 298.7147,310.6323 298.3707,310.944 297.9979,311.2205 297.5998,311.4592 297.1802,311.6576 296.7431,311.814 296.2929,311.9268 295.8337,311.9949"/>
    <polygon points="276.4724,289.4651 275.3672,289.5194 274.2725,289.6817 273.1991,289.9506 272.1572,290.3234 271.1568,290.7965 270.2077,291.3655 269.3188,292.0247 268.4989,292.7678 267.7557,293.5878 267.0965,294.4766 266.5276,295.4257 266.0545,296.4261 265.6817,297.468 265.4128,298.5415 265.2504,299.6361 265.1961,300.7414 265.2504,301.8466 265.4128,302.9413 265.6817,304.0147 266.0545,305.0566 266.5276,306.057 267.0965,307.0061 267.7557,307.895 268.4989,308.7149 269.3188,309.4581 270.2077,310.1173 271.1568,310.6862 272.1572,311.1593 273.1991,311.5321 274.2725,311.801 275.3672,311.9634 276.4724,312.0177 277.5777,311.9634 278.6723,311.801 279.7458,311.5321 280.7877,311.1593 281.7881,310.6862 282.7372,310.1173 283.6261,309.4581 284.446,308.7149 285.1891,307.895 285.8483,307.0061 286.4173,306.057 286.8904,305.0566 287.2632,304.0147 287.5321,302.9413 287.6944,301.8466 287.7487,300.7414 287.6944,299.6361 287.5321,298.5415 287.2632,297.468 286.8904,296.4261 286.4173,295.4257 285.8483,294.4766 285.1891,293.5878 284.446,292.7678 283.6261,292.0247 282.7372,291.3655 281.7881,290.7965 280.7877,290.3234 279.7458,289.9506 278.6723,289.6817 277.5777,289.5194"/>
    <polygon points="236.2886,259.5297 238.6772,259.647 241.0657,259.5297 243.4313,259.1788 245.7511,258.5977 248.0028,257.792 250.1646,256.7695 252.2158,255.5401 254.1367,254.1155 255.9086,252.5095 257.5146,250.7375 258.9392,248.8167 260.1687,246.7655 261.1912,244.6036 261.9968,242.352 262.5779,240.0322 262.9288,237.6666 263.0461,235.278 262.9288,232.8894 262.5779,230.5239 261.9968,228.2041 261.1912,225.9524 260.1687,223.7906 258.9392,221.7393 257.5146,219.8185 255.9086,218.0466 254.1367,216.4406 252.2158,215.016 250.1646,213.7865 248.0028,212.764 245.7511,211.9584 243.4313,211.3773 241.0657,211.0264 238.6772,210.9091 236.2886,211.0264 233.923,211.3773 231.6032,211.9584 229.3516,212.764 227.1897,213.7865 225.1385,215.016 223.2177,216.4406 221.4457,218.0466 219.8397,219.8185 218.4151,221.7393 217.1856,223.7906 216.1632,225.9524 215.3575,228.2041 214.7764,230.5239 214.4255,232.8894 214.3082,235.278 214.4255,237.6666 214.7764,240.0322 215.3575,242.352 216.1632,244.6036 217.1856,246.7655 218.4151,248.8167 219.8397,250.7375 221.4457,252.5095 223.2177,254.1155 225.1385,255.5401 227.1897,256.7695 229.3516,257.792 231.6032,258.5977 233.923,259.1788"/>
    <polygon points="203.2884,272.536 203.7386,272.6488 204.1978,272.7169 204.6614,272.7397 205.125,272.7169 205.5842,272.6488 206.0345,272.536 206.4715,272.3796 206.8911,272.1812 207.2892,271.9425 207.6621,271.666 208.006,271.3543 208.3177,271.0104 208.5942,270.6375 208.8329,270.2394 209.0313,269.8198 209.1877,269.3827 209.3005,268.9325 209.3686,268.4733 209.3914,268.0097 209.3686,267.5461 209.3005,267.0869 209.1877,266.6367 209.0313,266.1996 208.8329,265.78 208.5942,265.3819 208.3177,265.009 208.006,264.6651 207.6621,264.3534 207.2892,264.0769 206.8911,263.8382 206.4715,263.6398 206.0345,263.4834 205.5842,263.3706 205.125,263.3025 204.6614,263.2797 204.1978,263.3025 203.7386,263.3706 203.2884,263.4834 202.8513,263.6398 202.4317,263.8382 202.0336,264.0769 201.6608,264.3534 201.3168,264.6651 201.0051,265.009 200.7286,265.3819 200.49,265.78 200.2915,266.1996 200.1351,266.6367 200.0223,267.0869 199.9542,267.5461 199.9314,268.0097 199.9542,268.4733 200.0223,268.9325 200.1351,269.3827 200.2915,269.8198 200.49,270.2394 200.7286,270.6375 201.0051,271.0104 201.3168,271.3543 201.6608,271.666 202.0336,271.9425 202.4317,272.1812 202.8513,272.3796"/>
    <polygon points="196.9858,273.4508 196.8234,272.3561 196.5545,271.2827 196.1817,270.2408 195.7086,269.2404 195.1397,268.2912 194.4805,267.4024 193.7373,266.5825 192.9174,265.8393 192.0286,265.1801 191.0794,264.6112 190.079,264.1381 189.0371,263.7653 187.9637,263.4964 186.8691,263.334 185.7638,263.2797 184.6585,263.334 183.5639,263.4964 182.4904,263.7653 181.4485,264.1381 180.4482,264.6112 179.499,265.1801 178.6102,265.8393 177.7902,266.5825 177.0471,267.4024 176.3879,268.2912 175.819,269.2404 175.3458,270.2408 174.973,271.2827 174.7041,272.3561 174.5418,273.4508 174.4875,274.556 174.5418,275.6613 174.7041,276.7559 174.973,277.8294 175.3458,278.8713 175.819,279.8716 176.3879,280.8208 177.0471,281.7096 177.7902,282.5296 178.6102,283.2727 179.499,283.9319 180.4482,284.5008 181.4485,284.974 182.4904,285.3468 183.5639,285.6157 184.6585,285.778 185.7638,285.8323 186.8691,285.778 187.9637,285.6157 189.0371,285.3468 190.079,284.974 191.0794,284.5008 192.0286,283.9319 192.9174,283.2727 193.7373,282.5296 194.4805,281.7096 195.1397,280.8208 195.7086,279.8716 196.1817,278.8713 196.5545,277.8294 196.8234,276.7559 196.9858,275.6613 197.0401,274.556"/>
  </g>
</svg>
