<?xml version="1.0" encoding="utf-8" ?>
<svg xmlns="http://www.w3.org/2000/svg" xmlns:cc="http://creativecommons.org/ns" xmlns:dc="http://purl.org/dc/elements/1.1/" xmlns:ev="http://www.w3.org/2001/xml-events" xmlns:inkscape="http://www.inkscape.org/namespaces/inkscape" xmlns:rdf="http://www.w3.org/1999/02/22-rdf-syntax-ns" xmlns:sodipodi="http://sodipodi.sourceforge.net/DTD/sodipodi-0.dtd" xmlns:xlink="http://www.w3.org/1999/xlink" baseProfile="tiny" height="15.875cm" version="1.2" viewBox="0 0 432.0 600.0" width="11.43cm">
  <metadata>
    <rdf:RDF>
      <cc:Work>
        <dc:format>image/svg+xml</dc:format>
        <dc:source>vsk save -s 298 -c hex-grid/config/bubble-coasters-2.json /Users/tobin/src/fabian/plotting/fabian-plotting/hex-grid/sketch_hex_grid.py</dc:source>
        <dc:date>2023-11-11T11:30:24.165314</dc:date>
      </cc:Work>
    </rdf:RDF>
  </metadata>
  <defs/>
  <g fill="none" id="layer1" inkscape:groupmode="layer" inkscape:label="1" stroke="#000000" stroke-width="0.7559" style="display:inline">
    <polygon points="280.6684,341.9266 281.1186,342.0394 281.5557,342.1958 281.9753,342.3942 282.3734,342.6329 282.7463,342.9094 283.0902,343.2211 283.4019,343.565 283.6784,343.9379 283.9171,344.336 284.1155,344.7556 284.2719,345.1927 284.3847,345.6429 284.4528,346.1021 284.4756,346.5657 284.4528,347.0293 284.3847,347.4885 284.2719,347.9387 284.1155,348.3758 283.9171,348.7954 283.6784,349.1935 283.4019,349.5664 283.0902,349.9103 282.7463,350.222 282.3734,350.4985 281.9753,350.7372 281.5557,350.9356 281.1186,351.092 280.6684,351.2048 280.2092,351.2729 279.7456,351.2957 279.282,351.2729 278.8228,351.2048 278.3726,351.092 277.9355,350.9356 277.5159,350.7372 277.1178,350.4985 276.7449,350.222 276.401,349.9103 276.0893,349.5664 275.8128,349.1935 275.5741,348.7954 275.3757,348.3758 275.2193,347.9387 275.1065,347.4885 275.0384,347.0293 275.0156,346.5657 275.0384,346.1021 275.1065,345.6429 275.2193,345.1927 275.3757,344.7556 275.5741,344.336 275.8128,343.9379 276.0893,343.565 276.401,343.2211 276.7449,342.9094 277.1178,342.6329 277.5159,342.3942 277.9355,342.1958 278.3726,342.0394 278.8228,341.9266 279.282,341.8585 279.7456,341.8357 280.2092,341.8585"/>
    <polygon points="278.2095,336.8715 277.2604,336.3026 276.3715,335.6434 275.5516,334.9003 274.8084,334.0803 274.1492,333.1915 273.5803,332.2423 273.1072,331.242 272.7344,330.2 272.4655,329.1266 272.3031,328.032 272.2488,326.9267 272.3031,325.8214 272.4655,324.7268 272.7344,323.6534 273.1072,322.6114 273.5803,321.6111 274.1492,320.6619 274.8084,319.7731 275.5516,318.9531 276.3715,318.21 277.2604,317.5508 278.2095,316.9819 279.2099,316.5087 280.2518,316.1359 281.3252,315.8671 282.4199,315.7047 283.5251,315.6504 284.6304,315.7047 285.725,315.8671 286.7985,316.1359 287.8404,316.5087 288.8407,316.9819 289.7899,317.5508 290.6787,318.21 291.4987,318.9531 292.2418,319.7731 292.901,320.6619 293.4699,321.6111 293.9431,322.6114 294.3159,323.6534 294.5848,324.7268 294.7471,325.8214 294.8014,326.9267 294.7471,328.032 294.5848,329.1266 294.3159,330.2 293.9431,331.242 293.4699,332.2423 292.901,333.1915 292.2418,334.0803 291.4987,334.9003 290.6787,335.6434 289.7899,336.3026 288.8407,336.8715 287.8404,337.3446 286.7985,337.7175 285.725,337.9863 284.6304,338.1487 283.5251,338.203 282.4199,338.1487 281.3252,337.9863 280.2518,337.7175 279.2099,337.3446"/>
    <polygon points="248.5888,322.6114 248.9616,323.6534 249.2304,324.7268 249.3928,325.8214 249.4471,326.9267 249.3928,328.032 249.2304,329.1266 248.9616,330.2 248.5888,331.242 248.1156,332.2423 247.5467,333.1915 246.8875,334.0803 246.1444,334.9003 245.3244,335.6434 244.4356,336.3026 243.4864,336.8715 242.4861,337.3446 241.4441,337.7175 240.3707,337.9863 239.2761,338.1487 238.1708,338.203 237.0655,338.1487 235.9709,337.9863 234.8975,337.7175 233.8555,337.3446 232.8552,336.8715 231.906,336.3026 231.0172,335.6434 230.1973,334.9003 229.4541,334.0803 228.7949,333.1915 228.226,332.2423 227.7529,331.242 227.3801,330.2 227.1112,329.1266 226.9488,328.032 226.8945,326.9267 226.9488,325.8214 227.1112,324.7268 227.3801,323.6534 227.7529,322.6114 228.226,321.6111 228.7949,320.6619 229.4541,319.7731 230.1973,318.9531 231.0172,318.21 231.906,317.5508 232.8552,316.9819 233.8555,316.5087 234.8975,316.1359 235.9709,315.8671 237.0655,315.7047 238.1708,315.6504 239.2761,315.7047 240.3707,315.8671 241.4441,316.1359 242.4861,316.5087 243.4864,316.9819 244.4356,317.5508 245.3244,318.21 246.1444,318.9531 246.8875,319.7731 247.5467,320.6619 248.1156,321.6111"/>
    <polygon points="248.3577,349.1792 247.9596,348.9406 247.5399,348.7421 247.1029,348.5857 246.6526,348.4729 246.1935,348.4048 245.7299,348.3821 245.2662,348.4048 244.8071,348.4729 244.3568,348.5857 243.9198,348.7421 243.5002,348.9406 243.102,349.1792 242.7292,349.4557 242.3853,349.7674 242.0735,350.1114 241.797,350.4842 241.5584,350.8823 241.3599,351.302 241.2036,351.739 241.0908,352.1893 241.0227,352.6484 240.9999,353.112 241.0227,353.5757 241.0908,354.0348 241.2036,354.4851 241.3599,354.9221 241.5584,355.3417 241.797,355.7399 242.0735,356.1127 242.3853,356.4566 242.7292,356.7684 243.102,357.0449 243.5002,357.2835 243.9198,357.482 244.3568,357.6383 244.8071,357.7511 245.2662,357.8192 245.7299,357.842 246.1935,357.8192 246.6526,357.7511 247.1029,357.6383 247.5399,357.482 247.9596,357.2835 248.3577,357.0449 248.7305,356.7684 249.0745,356.4566 249.3862,356.1127 249.6627,355.7399 249.9013,355.3417 250.0998,354.9221 250.2562,354.4851 250.3689,354.0348 250.4371,353.5757 250.4598,353.112 250.4371,352.6484 250.3689,352.1893 250.2562,351.739 250.0998,351.302 249.9013,350.8823 249.6627,350.4842 249.3862,350.1114 249.0745,349.7674 248.7305,349.4557"/>
    <polygon points="238.5627,344.336 238.3241,343.9379 238.0476,343.565 237.7359,343.2211 237.3919,342.9094 237.0191,342.6329 236.621,342.3942 236.2014,342.1958 235.7643,342.0394 235.314,341.9266 234.8549,341.8585 234.3913,341.8357 233.9277,341.8585 233.4685,341.9266 233.0182,342.0394 232.5812,342.1958 232.1616,342.3942 231.7634,342.6329 231.3906,342.9094 231.0467,343.2211 230.735,343.565 230.4584,343.9379 230.2198,344.336 230.0214,344.7556 229.865,345.1927 229.7522,345.6429 229.6841,346.1021 229.6613,346.5657 229.6841,347.0293 229.7522,347.4885 229.865,347.9387 230.0214,348.3758 230.2198,348.7954 230.4584,349.1935 230.735,349.5664 231.0467,349.9103 231.3906,350.222 231.7634,350.4985 232.1616,350.7372 232.5812,350.9356 233.0182,351.092 233.4685,351.2048 233.9277,351.2729 234.3913,351.2957 234.8549,351.2729 235.314,351.2048 235.7643,351.092 236.2014,350.9356 236.621,350.7372 237.0191,350.4985 237.3919,350.222 237.7359,349.9103 238.0476,349.5664 238.3241,349.1935 238.5627,348.7954 238.7612,348.3758 238.9176,347.9387 239.0304,347.4885 239.0985,347.0293 239.1212,346.5657 239.0985,346.1021 239.0304,345.6429 238.9176,345.1927 238.7612,344.7556"/>
    <polygon points="229.6841,360.122 229.7522,360.5811 229.865,361.0314 230.0214,361.4684 230.2198,361.8881 230.4584,362.2862 230.735,362.659 231.0467,363.003 231.3906,363.3147 231.7634,363.5912 232.1616,363.8298 232.5812,364.0283 233.0182,364.1847 233.4685,364.2975 233.9277,364.3656 234.3913,364.3883 234.8549,364.3656 235.314,364.2975 235.7643,364.1847 236.2014,364.0283 236.621,363.8298 237.0191,363.5912 237.3919,363.3147 237.7359,363.003 238.0476,362.659 238.3241,362.2862 238.5627,361.8881 238.7612,361.4684 238.9176,361.0314 239.0304,360.5811 239.0985,360.122 239.1212,359.6584 239.0985,359.1947 239.0304,358.7356 238.9176,358.2853 238.7612,357.8483 238.5627,357.4287 238.3241,357.0305 238.0476,356.6577 237.7359,356.3138 237.3919,356.002 237.0191,355.7255 236.621,355.4869 236.2014,355.2884 235.7643,355.1321 235.314,355.0193 234.8549,354.9512 234.3913,354.9284 233.9277,354.9512 233.4685,355.0193 233.0182,355.1321 232.5812,355.2884 232.1616,355.4869 231.7634,355.7255 231.3906,356.002 231.0467,356.3138 230.735,356.6577 230.4584,357.0305 230.2198,357.4287 230.0214,357.8483 229.865,358.2853 229.7522,358.7356 229.6841,359.1947 229.6613,359.6584"/>
    <polygon points="207.1878,358.2853 207.075,358.7356 207.0069,359.1947 206.9841,359.6584 207.0069,360.122 207.075,360.5811 207.1878,361.0314 207.3442,361.4684 207.5426,361.8881 207.7813,362.2862 208.0578,362.659 208.3695,363.003 208.7134,363.3147 209.0863,363.5912 209.4844,363.8298 209.904,364.0283 210.3411,364.1847 210.7913,364.2975 211.2505,364.3656 211.7141,364.3883 212.1777,364.3656 212.6369,364.2975 213.0872,364.1847 213.5242,364.0283 213.9438,363.8298 214.3419,363.5912 214.7148,363.3147 215.0587,363.003 215.3704,362.659 215.6469,362.2862 215.8856,361.8881 216.084,361.4684 216.2404,361.0314 216.3532,360.5811 216.4213,360.122 216.4441,359.6584 216.4213,359.1947 216.3532,358.7356 216.2404,358.2853 216.084,357.8483 215.8856,357.4287 215.6469,357.0305 215.3704,356.6577 215.0587,356.3138 214.7148,356.002 214.3419,355.7255 213.9438,355.4869 213.5242,355.2884 213.0872,355.1321 212.6369,355.0193 212.1777,354.9512 211.7141,354.9284 211.2505,354.9512 210.7913,355.0193 210.3411,355.1321 209.904,355.2884 209.4844,355.4869 209.0863,355.7255 208.7134,356.002 208.3695,356.3138 208.0578,356.6577 207.7813,357.0305 207.5426,357.4287 207.3442,357.8483"/>
    <polygon points="199.9701,361.8287 200.79,361.0856 201.5332,360.2656 202.1924,359.3768 202.7613,358.4276 203.2344,357.4273 203.6072,356.3854 203.8761,355.3119 204.0385,354.2173 204.0928,353.112 204.0385,352.0068 203.8761,350.9121 203.6072,349.8387 203.2344,348.7968 202.7613,347.7964 202.1924,346.8473 201.5332,345.9584 200.79,345.1385 199.9701,344.3953 199.0813,343.7361 198.1321,343.1672 197.1317,342.6941 196.0898,342.3213 195.0164,342.0524 193.9217,341.89 192.8165,341.8357 191.7112,341.89 190.6166,342.0524 189.5431,342.3213 188.5012,342.6941 187.5009,343.1672 186.5517,343.7361 185.6629,344.3953 184.8429,345.1385 184.0998,345.9584 183.4406,346.8473 182.8717,347.7964 182.3985,348.7968 182.0257,349.8387 181.7568,350.9121 181.5945,352.0068 181.5402,353.112 181.5945,354.2173 181.7568,355.3119 182.0257,356.3854 182.3985,357.4273 182.8717,358.4276 183.4406,359.3768 184.0998,360.2656 184.8429,361.0856 185.6629,361.8287 186.5517,362.4879 187.5009,363.0568 188.5012,363.53 189.5431,363.9028 190.6166,364.1717 191.7112,364.334 192.8165,364.3883 193.9217,364.334 195.0164,364.1717 196.0898,363.9028 197.1317,363.53 198.1321,363.0568 199.0813,362.4879"/>
    <polygon points="187.2269,377.121 187.6639,377.2773 188.1142,377.3901 188.5733,377.4582 189.0369,377.481 189.5006,377.4582 189.9597,377.3901 190.41,377.2773 190.847,377.121 191.2666,376.9225 191.6648,376.6839 192.0376,376.4074 192.3815,376.0956 192.6933,375.7517 192.9698,375.3789 193.2084,374.9807 193.4069,374.5611 193.5632,374.1241 193.676,373.6738 193.7441,373.2147 193.7669,372.751 193.7441,372.2874 193.676,371.8283 193.5632,371.378 193.4069,370.941 193.2084,370.5213 192.9698,370.1232 192.6933,369.7504 192.3815,369.4064 192.0376,369.0947 191.6648,368.8182 191.2666,368.5796 190.847,368.3811 190.41,368.2247 189.9597,368.1119 189.5006,368.0438 189.0369,368.0211 188.5733,368.0438 188.1142,368.1119 187.6639,368.2247 187.2269,368.3811 186.8073,368.5796 186.4091,368.8182 186.0363,369.0947 185.6924,369.4064 185.3806,369.7504 185.1041,370.1232 184.8655,370.5213 184.667,370.941 184.5106,371.378 184.3979,371.8283 184.3297,372.2874 184.307,372.751 184.3297,373.2147 184.3979,373.6738 184.5106,374.1241 184.667,374.5611 184.8655,374.9807 185.1041,375.3789 185.3806,375.7517 185.6924,376.0956 186.0363,376.4074 186.4091,376.6839 186.8073,376.9225"/>
    <polygon points="175.0705,362.2719 174.6977,362.5484 174.3538,362.8601 174.042,363.204 173.7655,363.5769 173.5269,363.975 173.3284,364.3946 173.1721,364.8317 173.0593,365.2819 172.9912,365.7411 172.9684,366.2047 172.9912,366.6683 173.0593,367.1275 173.1721,367.5777 173.3284,368.0148 173.5269,368.4344 173.7655,368.8325 174.042,369.2054 174.3538,369.5493 174.6977,369.861 175.0705,370.1375 175.4687,370.3762 175.8883,370.5746 176.3253,370.731 176.7756,370.8438 177.2347,370.9119 177.6984,370.9347 178.162,370.9119 178.6211,370.8438 179.0714,370.731 179.5084,370.5746 179.9281,370.3762 180.3262,370.1375 180.699,369.861 181.043,369.5493 181.3547,369.2054 181.6312,368.8325 181.8698,368.4344 182.0683,368.0148 182.2247,367.5777 182.3375,367.1275 182.4056,366.6683 182.4283,366.2047 182.4056,365.7411 182.3375,365.2819 182.2247,364.8317 182.0683,364.3946 181.8698,363.975 181.6312,363.5769 181.3547,363.204 181.043,362.8601 180.699,362.5484 180.3262,362.2719 179.9281,362.0332 179.5084,361.8348 179.0714,361.6784 178.6211,361.5656 178.162,361.4975 177.6984,361.4747 177.2347,361.4975 176.7756,361.5656 176.3253,361.6784 175.8883,361.8348 175.4687,362.0332"/>
    <polygon points="161.8335,361.0314 161.9899,361.4684 162.1883,361.8881 162.427,362.2862 162.7035,362.659 163.0152,363.003 163.3591,363.3147 163.7319,363.5912 164.1301,363.8298 164.5497,364.0283 164.9867,364.1847 165.437,364.2975 165.8962,364.3656 166.3598,364.3883 166.8234,364.3656 167.2826,364.2975 167.7328,364.1847 168.1699,364.0283 168.5895,363.8298 168.9876,363.5912 169.3604,363.3147 169.7044,363.003 170.0161,362.659 170.2926,362.2862 170.5312,361.8881 170.7297,361.4684 170.8861,361.0314 170.9989,360.5811 171.067,360.122 171.0898,359.6584 171.067,359.1947 170.9989,358.7356 170.8861,358.2853 170.7297,357.8483 170.5312,357.4287 170.2926,357.0305 170.0161,356.6577 169.7044,356.3138 169.3604,356.002 168.9876,355.7255 168.5895,355.4869 168.1699,355.2884 167.7328,355.1321 167.2826,355.0193 166.8234,354.9512 166.3598,354.9284 165.8962,354.9512 165.437,355.0193 164.9867,355.1321 164.5497,355.2884 164.1301,355.4869 163.7319,355.7255 163.3591,356.002 163.0152,356.3138 162.7035,356.6577 162.427,357.0305 162.1883,357.4287 161.9899,357.8483 161.8335,358.2853 161.7207,358.7356 161.6526,359.1947 161.6298,359.6584 161.6526,360.122 161.7207,360.5811"/>
    <polygon points="163.3591,337.1294 163.7319,337.4059 164.1301,337.6445 164.5497,337.843 164.9867,337.9993 165.437,338.1121 165.8962,338.1802 166.3598,338.203 166.8234,338.1802 167.2826,338.1121 167.7328,337.9993 168.1699,337.843 168.5895,337.6445 168.9876,337.4059 169.3604,337.1294 169.7044,336.8176 170.0161,336.4737 170.2926,336.1009 170.5312,335.7027 170.7297,335.2831 170.8861,334.8461 170.9989,334.3958 171.067,333.9367 171.0898,333.473 171.067,333.0094 170.9989,332.5503 170.8861,332.1 170.7297,331.663 170.5312,331.2433 170.2926,330.8452 170.0161,330.4724 169.7044,330.1284 169.3604,329.8167 168.9876,329.5402 168.5895,329.3016 168.1699,329.1031 167.7328,328.9467 167.2826,328.8339 166.8234,328.7658 166.3598,328.7431 165.8962,328.7658 165.437,328.8339 164.9867,328.9467 164.5497,329.1031 164.1301,329.3016 163.7319,329.5402 163.3591,329.8167 163.0152,330.1284 162.7035,330.4724 162.427,330.8452 162.1883,331.2433 161.9899,331.663 161.8335,332.1 161.7207,332.5503 161.6526,333.0094 161.6298,333.473 161.6526,333.9367 161.7207,334.3958 161.8335,334.8461 161.9899,335.2831 162.1883,335.7027 162.427,336.1009 162.7035,336.4737 163.0152,336.8176"/>
    <polygon points="182.0683,338.2093 181.8698,337.7897 181.6312,337.3915 181.3547,337.0187 181.043,336.6748 180.699,336.363 180.3262,336.0865 179.9281,335.8479 179.5084,335.6494 179.0714,335.4931 178.6211,335.3803 178.162,335.3122 177.6984,335.2894 177.2347,335.3122 176.7756,335.3803 176.3253,335.4931 175.8883,335.6494 175.4687,335.8479 175.0705,336.0865 174.6977,336.363 174.3538,336.6748 174.042,337.0187 173.7655,337.3915 173.5269,337.7897 173.3284,338.2093 173.1721,338.6463 173.0593,339.0966 172.9912,339.5557 172.9684,340.0194 172.9912,340.483 173.0593,340.9421 173.1721,341.3924 173.3284,341.8294 173.5269,342.2491 173.7655,342.6472 174.042,343.02 174.3538,343.364 174.6977,343.6757 175.0705,343.9522 175.4687,344.1908 175.8883,344.3893 176.3253,344.5457 176.7756,344.6585 177.2347,344.7266 177.6984,344.7493 178.162,344.7266 178.6211,344.6585 179.0714,344.5457 179.5084,344.3893 179.9281,344.1908 180.3262,343.9522 180.699,343.6757 181.043,343.364 181.3547,343.02 181.6312,342.6472 181.8698,342.2491 182.0683,341.8294 182.2247,341.3924 182.3375,340.9421 182.4056,340.483 182.4283,340.0194 182.4056,339.5557 182.3375,339.0966 182.2247,338.6463"/>
    <polygon points="199.9701,318.21 199.0813,317.5508 198.1321,316.9819 197.1317,316.5087 196.0898,316.1359 195.0164,315.8671 193.9217,315.7047 192.8165,315.6504 191.7112,315.7047 190.6166,315.8671 189.5431,316.1359 188.5012,316.5087 187.5009,316.9819 186.5517,317.5508 185.6629,318.21 184.8429,318.9531 184.0998,319.7731 183.4406,320.6619 182.8717,321.6111 182.3985,322.6114 182.0257,323.6534 181.7568,324.7268 181.5945,325.8214 181.5402,326.9267 181.5945,328.032 181.7568,329.1266 182.0257,330.2 182.3985,331.242 182.8717,332.2423 183.4406,333.1915 184.0998,334.0803 184.8429,334.9003 185.6629,335.6434 186.5517,336.3026 187.5009,336.8715 188.5012,337.3446 189.5431,337.7175 190.6166,337.9863 191.7112,338.1487 192.8165,338.203 193.9217,338.1487 195.0164,337.9863 196.0898,337.7175 197.1317,337.3446 198.1321,336.8715 199.0813,336.3026 199.9701,335.6434 200.79,334.9003 201.5332,334.0803 202.1924,333.1915 202.7613,332.2423 203.2344,331.242 203.6072,330.2 203.8761,329.1266 204.0385,328.032 204.0928,326.9267 204.0385,325.8214 203.8761,324.7268 203.6072,323.6534 203.2344,322.6114 202.7613,321.6111 202.1924,320.6619 201.5332,319.7731 200.79,318.9531"/>
    <polygon points="196.0898,311.5321 197.1317,311.1593 198.1321,310.6862 199.0813,310.1173 199.9701,309.4581 200.79,308.7149 201.5332,307.895 202.1924,307.0061 202.7613,306.057 203.2344,305.0566 203.6072,304.0147 203.8761,302.9413 204.0385,301.8466 204.0928,300.7414 204.0385,299.6361 203.8761,298.5415 203.6072,297.468 203.2344,296.4261 202.7613,295.4257 202.1924,294.4766 201.5332,293.5878 200.79,292.7678 199.9701,292.0247 199.0813,291.3655 198.1321,290.7965 197.1317,290.3234 196.0898,289.9506 195.0164,289.6817 193.9217,289.5194 192.8165,289.4651 191.7112,289.5194 190.6166,289.6817 189.5431,289.9506 188.5012,290.3234 187.5009,290.7965 186.5517,291.3655 185.6629,292.0247 184.8429,292.7678 184.0998,293.5878 183.4406,294.4766 182.8717,295.4257 182.3985,296.4261 182.0257,297.468 181.7568,298.5415 181.5945,299.6361 181.5402,300.7414 181.5945,301.8466 181.7568,302.9413 182.0257,304.0147 182.3985,305.0566 182.8717,306.057 183.4406,307.0061 184.0998,307.895 184.8429,308.7149 185.6629,309.4581 186.5517,310.1173 187.5009,310.6862 188.5012,311.1593 189.5431,311.5321 190.6166,311.801 191.7112,311.9634 192.8165,312.0177 193.9217,311.9634 195.0164,311.801"/>
    <polygon points="164.9867,311.814 165.437,311.9268 165.8962,311.9949 166.3598,312.0177 166.8234,311.9949 167.2826,311.9268 167.7328,311.814 168.1699,311.6576 168.5895,311.4592 168.9876,311.2205 169.3604,310.944 169.7044,310.6323 170.0161,310.2884 170.2926,309.9155 170.5312,309.5174 170.7297,309.0978 170.8861,308.6607 170.9989,308.2105 171.067,307.7513 171.0898,307.2877 171.067,306.8241 170.9989,306.3649 170.8861,305.9147 170.7297,305.4776 170.5312,305.058 170.2926,304.6599 170.0161,304.287 169.7044,303.9431 169.3604,303.6314 168.9876,303.3549 168.5895,303.1162 168.1699,302.9178 167.7328,302.7614 167.2826,302.6486 166.8234,302.5805 166.3598,302.5577 165.8962,302.5805 165.437,302.6486 164.9867,302.7614 164.5497,302.9178 164.1301,303.1162 163.7319,303.3549 163.3591,303.6314 163.0152,303.9431 162.7035,304.287 162.427,304.6599 162.1883,305.058 161.9899,305.4776 161.8335,305.9147 161.7207,306.3649 161.6526,306.8241 161.6298,307.2877 161.6526,307.7513 161.7207,308.2105 161.8335,308.6607 161.9899,309.0978 162.1883,309.5174 162.427,309.9155 162.7035,310.2884 163.0152,310.6323 163.3591,310.944 163.7319,311.2205 164.1301,311.4592 164.5497,311.6576"/>
    <polygon points="139.7498,317.7525 139.5112,318.1507 139.3127,318.5703 139.1563,319.0073 139.0435,319.4576 138.9754,319.9167 138.9526,320.3804 138.9754,320.844 139.0435,321.3031 139.1563,321.7534 139.3127,322.1904 139.5112,322.6101 139.7498,323.0082 140.0263,323.381 140.338,323.725 140.682,324.0367 141.0548,324.3132 141.4529,324.5518 141.8725,324.7503 142.3096,324.9067 142.7598,325.0195 143.219,325.0876 143.6826,325.1103 144.1462,325.0876 144.6054,325.0195 145.0557,324.9067 145.4927,324.7503 145.9123,324.5518 146.3104,324.3132 146.6833,324.0367 147.0272,323.725 147.3389,323.381 147.6154,323.0082 147.8541,322.6101 148.0525,322.1904 148.2089,321.7534 148.3217,321.3031 148.3898,320.844 148.4126,320.3804 148.3898,319.9167 148.3217,319.4576 148.2089,319.0073 148.0525,318.5703 147.8541,318.1507 147.6154,317.7525 147.3389,317.3797 147.0272,317.0358 146.6833,316.724 146.3104,316.4475 145.9123,316.2089 145.4927,316.0104 145.0557,315.8541 144.6054,315.7413 144.1462,315.6732 143.6826,315.6504 143.219,315.6732 142.7598,315.7413 142.3096,315.8541 141.8725,316.0104 141.4529,316.2089 141.0548,316.4475 140.682,316.724 140.338,317.0358 140.0263,317.3797"/>
    <polygon points="128.9994,317.1786 129.3434,317.4903 129.7162,317.7669 130.1143,318.0055 130.534,318.204 130.971,318.3603 131.4213,318.4731 131.8804,318.5412 132.344,318.564 132.8077,318.5412 133.2668,318.4731 133.7171,318.3603 134.1541,318.204 134.5737,318.0055 134.9719,317.7669 135.3447,317.4903 135.6886,317.1786 136.0004,316.8347 136.2769,316.4619 136.5155,316.0637 136.714,315.6441 136.8703,315.2071 136.9831,314.7568 137.0512,314.2976 137.074,313.834 137.0512,313.3704 136.9831,312.9113 136.8703,312.461 136.714,312.0239 136.5155,311.6043 136.2769,311.2062 136.0004,310.8334 135.6886,310.4894 135.3447,310.1777 134.9719,309.9012 134.5737,309.6626 134.1541,309.4641 133.7171,309.3077 133.2668,309.1949 132.8077,309.1268 132.344,309.1041 131.8804,309.1268 131.4213,309.1949 130.971,309.3077 130.534,309.4641 130.1143,309.6626 129.7162,309.9012 129.3434,310.1777 128.9994,310.4894 128.6877,310.8334 128.4112,311.2062 128.1726,311.6043 127.9741,312.0239 127.8177,312.461 127.7049,312.9113 127.6368,313.3704 127.6141,313.834 127.6368,314.2976 127.7049,314.7568 127.8177,315.2071 127.9741,315.6441 128.1726,316.0637 128.4112,316.4619 128.6877,316.8347"/>
    <polygon points="156.838,294.4766 157.407,295.4257 157.8801,296.4261 158.2529,297.468 158.5218,298.5415 158.6842,299.6361 158.7384,300.7414 158.6842,301.8466 158.5218,302.9413 158.2529,304.0147 157.8801,305.0566 157.407,306.057 156.838,307.0061 156.1788,307.895 155.4357,308.7149 154.6158,309.4581 153.7269,310.1173 152.7778,310.6862 151.7774,311.1593 150.7355,311.5321 149.662,311.801 148.5674,311.9634 147.4621,312.0177 146.3569,311.9634 145.2622,311.801 144.1888,311.5321 143.1469,311.1593 142.1465,310.6862 141.1974,310.1173 140.3085,309.4581 139.4886,308.7149 138.7454,307.895 138.0862,307.0061 137.5173,306.057 137.0442,305.0566 136.6714,304.0147 136.4025,302.9413 136.2401,301.8466 136.1858,300.7414 136.2401,299.6361 136.4025,298.5415 136.6714,297.468 137.0442,296.4261 137.5173,295.4257 138.0862,294.4766 138.7454,293.5878 139.4886,292.7678 140.3085,292.0247 141.1974,291.3655 142.1465,290.7965 143.1469,290.3234 144.1888,289.9506 145.2622,289.6817 146.3569,289.5194 147.4621,289.4651 148.5674,289.5194 149.662,289.6817 150.7355,289.9506 151.7774,290.3234 152.7778,290.7965 153.7269,291.3655 154.6158,292.0247 155.4357,292.7678 156.1788,293.5878"/>
    <polygon points="167.9394,276.5891 166.866,276.8579 165.8241,277.2307 164.8237,277.7039 163.8745,278.2728 162.9857,278.932 162.1658,279.6751 161.4226,280.4951 160.7634,281.3839 160.1945,282.3331 159.7214,283.3334 159.3486,284.3754 159.0797,285.4488 158.9173,286.5434 158.863,287.6487 158.9173,288.754 159.0797,289.8486 159.3486,290.922 159.7214,291.964 160.1945,292.9643 160.7634,293.9135 161.4226,294.8023 162.1658,295.6222 162.9857,296.3654 163.8745,297.0246 164.8237,297.5935 165.8241,298.0666 166.866,298.4394 167.9394,298.7083 169.034,298.8707 170.1393,298.925 171.2446,298.8707 172.3392,298.7083 173.4126,298.4394 174.4546,298.0666 175.4549,297.5935 176.4041,297.0246 177.2929,296.3654 178.1129,295.6222 178.856,294.8023 179.5152,293.9135 180.0841,292.9643 180.5573,291.964 180.9301,290.922 181.1989,289.8486 181.3613,288.754 181.4156,287.6487 181.3613,286.5434 181.1989,285.4488 180.9301,284.3754 180.5573,283.3334 180.0841,282.3331 179.5152,281.3839 178.856,280.4951 178.1129,279.6751 177.2929,278.932 176.4041,278.2728 175.4549,277.7039 174.4546,277.2307 173.4126,276.8579 172.3392,276.5891 171.2446,276.4267 170.1393,276.3724 169.034,276.4267"/>
    <polygon points="153.6482,270.0297 153.2111,270.1861 152.7915,270.3846 152.3934,270.6232 152.0205,270.8997 151.6766,271.2114 151.3649,271.5554 151.0884,271.9282 150.8497,272.3263 150.6513,272.7459 150.4949,273.183 150.3821,273.6333 150.314,274.0924 150.2912,274.556 150.314,275.0196 150.3821,275.4788 150.4949,275.9291 150.6513,276.3661 150.8497,276.7857 151.0884,277.1839 151.3649,277.5567 151.6766,277.9006 152.0205,278.2123 152.3934,278.4889 152.7915,278.7275 153.2111,278.926 153.6482,279.0823 154.0984,279.1951 154.5576,279.2632 155.0212,279.286 155.4848,279.2632 155.944,279.1951 156.3942,279.0823 156.8313,278.926 157.2509,278.7275 157.649,278.4889 158.0219,278.2123 158.3658,277.9006 158.6775,277.5567 158.954,277.1839 159.1927,276.7857 159.3911,276.3661 159.5475,275.9291 159.6603,275.4788 159.7284,275.0196 159.7512,274.556 159.7284,274.0924 159.6603,273.6333 159.5475,273.183 159.3911,272.7459 159.1927,272.3263 158.954,271.9282 158.6775,271.5554 158.3658,271.2114 158.0219,270.8997 157.649,270.6232 157.2509,270.3846 156.8313,270.1861 156.3942,270.0297 155.944,269.9169 155.4848,269.8488 155.0212,269.8261 154.5576,269.8488 154.0984,269.9169"/>
    <polygon points="134.7591,221.7393 133.5297,223.7906 132.5072,225.9524 131.7015,228.2041 131.1205,230.5239 130.7696,232.8894 130.6522,235.278 130.7696,237.6666 131.1205,240.0322 131.7015,242.352 132.5072,244.6036 133.5297,246.7655 134.7591,248.8167 136.1837,250.7375 137.7897,252.5095 139.5617,254.1155 141.4825,255.5401 143.5337,256.7695 145.6956,257.792 147.9473,258.5977 150.267,259.1788 152.6326,259.5297 155.0212,259.647 157.4098,259.5297 159.7753,259.1788 162.0951,258.5977 164.3468,257.792 166.5087,256.7695 168.5599,255.5401 170.4807,254.1155 172.2527,252.5095 173.8587,250.7375 175.2833,248.8167 176.5127,246.7655 177.5352,244.6036 178.3409,242.352 178.9219,240.0322 179.2728,237.6666 179.3902,235.278 179.2728,232.8894 178.9219,230.5239 178.3409,228.2041 177.5352,225.9524 176.5127,223.7906 175.2833,221.7393 173.8587,219.8185 172.2527,218.0466 170.4807,216.4406 168.5599,215.016 166.5087,213.7865 164.3468,212.764 162.0951,211.9584 159.7753,211.3773 157.4098,211.0264 155.0212,210.9091 152.6326,211.0264 150.267,211.3773 147.9473,211.9584 145.6956,212.764 143.5337,213.7865 141.4825,215.016 139.5617,216.4406 137.7897,218.0466 136.1837,219.8185"/>
    <polygon points="133.5017,216.2463 134.1609,215.3575 134.7298,214.4083 135.2029,213.4079 135.5757,212.366 135.8446,211.2926 136.007,210.198 136.0613,209.0927 136.007,207.9874 135.8446,206.8928 135.5757,205.8194 135.2029,204.7774 134.7298,203.7771 134.1609,202.8279 133.5017,201.9391 132.7585,201.1191 131.9386,200.376 131.0498,199.7168 130.1006,199.1479 129.1002,198.6747 128.0583,198.3019 126.9849,198.0331 125.8902,197.8707 124.785,197.8164 123.6797,197.8707 122.5851,198.0331 121.5116,198.3019 120.4697,198.6747 119.4694,199.1479 118.5202,199.7168 117.6314,200.376 116.8114,201.1191 116.0683,201.9391 115.4091,202.8279 114.8402,203.7771 114.367,204.7774 113.9942,205.8194 113.7253,206.8928 113.563,207.9874 113.5087,209.0927 113.563,210.198 113.7253,211.2926 113.9942,212.366 114.367,213.4079 114.8402,214.4083 115.4091,215.3575 116.0683,216.2463 116.8114,217.0662 117.6314,217.8094 118.5202,218.4686 119.4694,219.0375 120.4697,219.5106 121.5116,219.8834 122.5851,220.1523 123.6797,220.3147 124.785,220.369 125.8902,220.3147 126.9849,220.1523 128.0583,219.8834 129.1002,219.5106 130.1006,219.0375 131.0498,218.4686 131.9386,217.8094 132.7585,217.0662"/>
    <polygon points="121.0055,184.7237 120.5418,184.7465 120.0827,184.8146 119.6324,184.9274 119.1954,185.0838 118.7758,185.2822 118.3776,185.5209 118.0048,185.7974 117.6609,186.1091 117.3491,186.453 117.0726,186.8259 116.834,187.224 116.6355,187.6436 116.4791,188.0807 116.3664,188.5309 116.2983,188.9901 116.2755,189.4537 116.2983,189.9173 116.3664,190.3765 116.4791,190.8267 116.6355,191.2638 116.834,191.6834 117.0726,192.0815 117.3491,192.4544 117.6609,192.7983 118.0048,193.11 118.3776,193.3865 118.7758,193.6252 119.1954,193.8236 119.6324,193.98 120.0827,194.0928 120.5418,194.1609 121.0055,194.1837 121.4691,194.1609 121.9282,194.0928 122.3785,193.98 122.8155,193.8236 123.2351,193.6252 123.6333,193.3865 124.0061,193.11 124.35,192.7983 124.6618,192.4544 124.9383,192.0815 125.1769,191.6834 125.3754,191.2638 125.5318,190.8267 125.6445,190.3765 125.7126,189.9173 125.7354,189.4537 125.7126,188.9901 125.6445,188.5309 125.5318,188.0807 125.3754,187.6436 125.1769,187.224 124.9383,186.8259 124.6618,186.453 124.35,186.1091 124.0061,185.7974 123.6333,185.5209 123.2351,185.2822 122.8155,185.0838 122.3785,184.9274 121.9282,184.8146 121.4691,184.7465"/>
    <polygon points="187.5009,232.1302 188.5012,232.6033 189.5431,232.9761 190.6166,233.245 191.7112,233.4074 192.8165,233.4617 193.9217,233.4074 195.0164,233.245 196.0898,232.9761 197.1317,232.6033 198.1321,232.1302 199.0813,231.5613 199.9701,230.9021 200.79,230.1589 201.5332,229.339 202.1924,228.4501 202.7613,227.501 203.2344,226.5006 203.6072,225.4587 203.8761,224.3853 204.0385,223.2906 204.0928,222.1854 204.0385,221.0801 203.8761,219.9855 203.6072,218.912 203.2344,217.8701 202.7613,216.8697 202.1924,215.9206 201.5332,215.0317 200.79,214.2118 199.9701,213.4687 199.0813,212.8095 198.1321,212.2405 197.1317,211.7674 196.0898,211.3946 195.0164,211.1257 193.9217,210.9634 192.8165,210.9091 191.7112,210.9634 190.6166,211.1257 189.5431,211.3946 188.5012,211.7674 187.5009,212.2405 186.5517,212.8095 185.6629,213.4687 184.8429,214.2118 184.0998,215.0317 183.4406,215.9206 182.8717,216.8697 182.3985,217.8701 182.0257,218.912 181.7568,219.9855 181.5945,221.0801 181.5402,222.1854 181.5945,223.2906 181.7568,224.3853 182.0257,225.4587 182.3985,226.5006 182.8717,227.501 183.4406,228.4501 184.0998,229.339 184.8429,230.1589 185.6629,230.9021 186.5517,231.5613"/>
    <polygon points="209.0863,219.5719 209.4844,219.8105 209.904,220.0089 210.3411,220.1653 210.7913,220.2781 211.2505,220.3462 211.7141,220.369 212.1777,220.3462 212.6369,220.2781 213.0872,220.1653 213.5242,220.0089 213.9438,219.8105 214.3419,219.5719 214.7148,219.2953 215.0587,218.9836 215.3704,218.6397 215.6469,218.2669 215.8856,217.8687 216.084,217.4491 216.2404,217.0121 216.3532,216.5618 216.4213,216.1026 216.4441,215.639 216.4213,215.1754 216.3532,214.7163 216.2404,214.266 216.084,213.8289 215.8856,213.4093 215.6469,213.0112 215.3704,212.6384 215.0587,212.2944 214.7148,211.9827 214.3419,211.7062 213.9438,211.4676 213.5242,211.2691 213.0872,211.1127 212.6369,210.9999 212.1777,210.9318 211.7141,210.9091 211.2505,210.9318 210.7913,210.9999 210.3411,211.1127 209.904,211.2691 209.4844,211.4676 209.0863,211.7062 208.7134,211.9827 208.3695,212.2944 208.0578,212.6384 207.7813,213.0112 207.5426,213.4093 207.3442,213.8289 207.1878,214.266 207.075,214.7163 207.0069,215.1754 206.9841,215.639 207.0069,216.1026 207.075,216.5618 207.1878,217.0121 207.3442,217.4491 207.5426,217.8687 207.7813,218.2669 208.0578,218.6397 208.3695,218.9836 208.7134,219.2953"/>
    <polygon points="218.4136,210.0155 218.5264,210.4657 218.6828,210.9028 218.8812,211.3224 219.1199,211.7205 219.3964,212.0934 219.7081,212.4373 220.052,212.749 220.4249,213.0255 220.823,213.2642 221.2426,213.4626 221.6797,213.619 222.1299,213.7318 222.5891,213.7999 223.0527,213.8227 223.5163,213.7999 223.9755,213.7318 224.4257,213.619 224.8628,213.4626 225.2824,213.2642 225.6805,213.0255 226.0534,212.749 226.3973,212.4373 226.709,212.0934 226.9855,211.7205 227.2242,211.3224 227.4226,210.9028 227.579,210.4657 227.6918,210.0155 227.7599,209.5563 227.7827,209.0927 227.7599,208.6291 227.6918,208.1699 227.579,207.7197 227.4226,207.2826 227.2242,206.863 226.9855,206.4649 226.709,206.092 226.3973,205.7481 226.0534,205.4364 225.6805,205.1599 225.2824,204.9212 224.8628,204.7228 224.4257,204.5664 223.9755,204.4536 223.5163,204.3855 223.0527,204.3627 222.5891,204.3855 222.1299,204.4536 221.6797,204.5664 221.2426,204.7228 220.823,204.9212 220.4249,205.1599 220.052,205.4364 219.7081,205.7481 219.3964,206.092 219.1199,206.4649 218.8812,206.863 218.6828,207.2826 218.5264,207.7197 218.4136,208.1699 218.3455,208.6291 218.3227,209.0927 218.3455,209.5563"/>
    <polygon points="230.0214,226.9216 229.865,227.3587 229.7522,227.8089 229.6841,228.2681 229.6613,228.7317 229.6841,229.1953 229.7522,229.6545 229.865,230.1047 230.0214,230.5418 230.2198,230.9614 230.4584,231.3595 230.735,231.7324 231.0467,232.0763 231.3906,232.388 231.7634,232.6645 232.1616,232.9032 232.5812,233.1016 233.0182,233.258 233.4685,233.3708 233.9277,233.4389 234.3913,233.4617 234.8549,233.4389 235.314,233.3708 235.7643,233.258 236.2014,233.1016 236.621,232.9032 237.0191,232.6645 237.3919,232.388 237.7359,232.0763 238.0476,231.7324 238.3241,231.3595 238.5627,230.9614 238.7612,230.5418 238.9176,230.1047 239.0304,229.6545 239.0985,229.1953 239.1212,228.7317 239.0985,228.2681 239.0304,227.8089 238.9176,227.3587 238.7612,226.9216 238.5627,226.502 238.3241,226.1039 238.0476,225.731 237.7359,225.3871 237.3919,225.0754 237.0191,224.7989 236.621,224.5602 236.2014,224.3618 235.7643,224.2054 235.314,224.0926 234.8549,224.0245 234.3913,224.0017 233.9277,224.0245 233.4685,224.0926 233.0182,224.2054 232.5812,224.3618 232.1616,224.5602 231.7634,224.7989 231.3906,225.0754 231.0467,225.3871 230.735,225.731 230.4584,226.1039 230.2198,226.502"/>
    <polygon points="223.6952,268.5373 224.2763,266.2175 224.6272,263.8519 224.7445,261.4634 224.6272,259.0748 224.2763,256.7092 223.6952,254.3894 222.8895,252.1378 221.867,249.9759 220.6376,247.9247 219.213,246.0038 217.607,244.2319 215.835,242.6259 213.9142,241.2013 211.863,239.9718 209.7011,238.9494 207.4495,238.1437 205.1297,237.5626 202.7641,237.2117 200.3755,237.0944 197.987,237.2117 195.6214,237.5626 193.3016,238.1437 191.0499,238.9494 188.8881,239.9718 186.8369,241.2013 184.916,242.6259 183.1441,244.2319 181.5381,246.0038 180.1135,247.9247 178.884,249.9759 177.8615,252.1378 177.0559,254.3894 176.4748,256.7092 176.1239,259.0748 176.0066,261.4634 176.1239,263.8519 176.4748,266.2175 177.0559,268.5373 177.8615,270.789 178.884,272.9508 180.1135,275.002 181.5381,276.9229 183.1441,278.6948 184.916,280.3008 186.8369,281.7254 188.8881,282.9549 191.0499,283.9774 193.3016,284.783 195.6214,285.3641 197.987,285.715 200.3755,285.8323 202.7641,285.715 205.1297,285.3641 207.4495,284.783 209.7011,283.9774 211.863,282.9549 213.9142,281.7254 215.835,280.3008 217.607,278.6948 219.213,276.9229 220.6376,275.002 221.867,272.9508 222.8895,270.789"/>
    <polygon points="235.9709,259.4303 237.0655,259.5927 238.1708,259.647 239.2761,259.5927 240.3707,259.4303 241.4441,259.1614 242.4861,258.7886 243.4864,258.3155 244.4356,257.7466 245.3244,257.0874 246.1444,256.3442 246.8875,255.5243 247.5467,254.6355 248.1156,253.6863 248.5888,252.6859 248.9616,251.644 249.2304,250.5706 249.3928,249.476 249.4471,248.3707 249.3928,247.2654 249.2304,246.1708 248.9616,245.0974 248.5888,244.0554 248.1156,243.0551 247.5467,242.1059 246.8875,241.2171 246.1444,240.3971 245.3244,239.654 244.4356,238.9948 243.4864,238.4259 242.4861,237.9527 241.4441,237.5799 240.3707,237.3111 239.2761,237.1487 238.1708,237.0944 237.0655,237.1487 235.9709,237.3111 234.8975,237.5799 233.8555,237.9527 232.8552,238.4259 231.906,238.9948 231.0172,239.654 230.1973,240.3971 229.4541,241.2171 228.7949,242.1059 228.226,243.0551 227.7529,244.0554 227.3801,245.0974 227.1112,246.1708 226.9488,247.2654 226.8945,248.3707 226.9488,249.476 227.1112,250.5706 227.3801,251.644 227.7529,252.6859 228.226,253.6863 228.7949,254.6355 229.4541,255.5243 230.1973,256.3442 231.0172,257.0874 231.906,257.7466 232.8552,258.3155 233.8555,258.7886 234.8975,259.1614"/>
    <polygon points="261.1894,268.8112 259.2685,267.3866 257.2173,266.1572 255.0555,265.1347 252.8038,264.329 250.484,263.748 248.1184,263.3971 245.7299,263.2797 243.3413,263.3971 240.9757,263.748 238.6559,264.329 236.4043,265.1347 234.2424,266.1572 232.1912,267.3866 230.2703,268.8112 228.4984,270.4172 226.8924,272.1892 225.4678,274.11 224.2383,276.1612 223.2159,278.3231 222.4102,280.5748 221.8291,282.8945 221.4782,285.2601 221.3609,287.6487 221.4782,290.0373 221.8291,292.4028 222.4102,294.7226 223.2159,296.9743 224.2383,299.1362 225.4678,301.1874 226.8924,303.1082 228.4984,304.8802 230.2703,306.4862 232.1912,307.9108 234.2424,309.1402 236.4043,310.1627 238.6559,310.9684 240.9757,311.5494 243.3413,311.9003 245.7299,312.0177 248.1184,311.9003 250.484,311.5494 252.8038,310.9684 255.0555,310.1627 257.2173,309.1402 259.2685,307.9108 261.1894,306.4862 262.9613,304.8802 264.5673,303.1082 265.9919,301.1874 267.2214,299.1362 268.2439,296.9743 269.0495,294.7226 269.6306,292.4028 269.9815,290.0373 270.0988,287.6487 269.9815,285.2601 269.6306,282.8945 269.0495,280.5748 268.2439,278.3231 267.2214,276.1612 265.9919,274.11 264.5673,272.1892 262.9613,270.4172"/>
    <polygon points="273.1072,296.4261 272.7344,297.468 272.4655,298.5415 272.3031,299.6361 272.2488,300.7414 272.3031,301.8466 272.4655,302.9413 272.7344,304.0147 273.1072,305.0566 273.5803,306.057 274.1492,307.0061 274.8084,307.895 275.5516,308.7149 276.3715,309.4581 277.2604,310.1173 278.2095,310.6862 279.2099,311.1593 280.2518,311.5321 281.3252,311.801 282.4199,311.9634 283.5251,312.0177 284.6304,311.9634 285.725,311.801 286.7985,311.5321 287.8404,311.1593 288.8407,310.6862 289.7899,310.1173 290.6787,309.4581 291.4987,308.7149 292.2418,307.895 292.901,307.0061 293.4699,306.057 293.9431,305.0566 294.3159,304.0147 294.5848,302.9413 294.7471,301.8466 294.8014,300.7414 294.7471,299.6361 294.5848,298.5415 294.3159,297.468 293.9431,296.4261 293.4699,295.4257 292.901,294.4766 292.2418,293.5878 291.4987,292.7678 290.6787,292.0247 289.7899,291.3655 288.8407,290.7965 287.8404,290.3234 286.7985,289.9506 285.725,289.6817 284.6304,289.5194 283.5251,289.4651 282.4199,289.5194 281.3252,289.6817 280.2518,289.9506 279.2099,290.3234 278.2095,290.7965 277.2604,291.3655 276.3715,292.0247 275.5516,292.7678 274.8084,293.5878 274.1492,294.4766 273.5803,295.4257"/>
    <polygon points="294.5848,272.3561 294.7471,273.4508 294.8014,274.556 294.7471,275.6613 294.5848,276.7559 294.3159,277.8294 293.9431,278.8713 293.4699,279.8716 292.901,280.8208 292.2418,281.7096 291.4987,282.5296 290.6787,283.2727 289.7899,283.9319 288.8407,284.5008 287.8404,284.974 286.7985,285.3468 285.725,285.6157 284.6304,285.778 283.5251,285.8323 282.4199,285.778 281.3252,285.6157 280.2518,285.3468 279.2099,284.974 278.2095,284.5008 277.2604,283.9319 276.3715,283.2727 275.5516,282.5296 274.8084,281.7096 274.1492,280.8208 273.5803,279.8716 273.1072,278.8713 272.7344,277.8294 272.4655,276.7559 272.3031,275.6613 272.2488,274.556 272.3031,273.4508 272.4655,272.3561 272.7344,271.2827 273.1072,270.2408 273.5803,269.2404 274.1492,268.2912 274.8084,267.4024 275.5516,266.5825 276.3715,265.8393 277.2604,265.1801 278.2095,264.6112 279.2099,264.1381 280.2518,263.7653 281.3252,263.4964 282.4199,263.334 283.5251,263.2797 284.6304,263.334 285.725,263.4964 286.7985,263.7653 287.8404,264.1381 288.8407,264.6112 289.7899,265.1801 290.6787,265.8393 291.4987,266.5825 292.2418,267.4024 292.901,268.2912 293.4699,269.2404 293.9431,270.2408 294.3159,271.2827"/>
    <polygon points="297.7156,267.5461 297.7837,267.0869 297.8965,266.6367 298.0528,266.1996 298.2513,265.78 298.4899,265.3819 298.7665,265.009 299.0782,264.6651 299.4221,264.3534 299.7949,264.0769 300.1931,263.8382 300.6127,263.6398 301.0497,263.4834 301.5,263.3706 301.9592,263.3025 302.4228,263.2797 302.8864,263.3025 303.3455,263.3706 303.7958,263.4834 304.2329,263.6398 304.6525,263.8382 305.0506,264.0769 305.4234,264.3534 305.7674,264.6651 306.0791,265.009 306.3556,265.3819 306.5942,265.78 306.7927,266.1996 306.9491,266.6367 307.0619,267.0869 307.13,267.5461 307.1527,268.0097 307.13,268.4733 307.0619,268.9325 306.9491,269.3827 306.7927,269.8198 306.5942,270.2394 306.3556,270.6375 306.0791,271.0104 305.7674,271.3543 305.4234,271.666 305.0506,271.9425 304.6525,272.1812 304.2329,272.3796 303.7958,272.536 303.3455,272.6488 302.8864,272.7169 302.4228,272.7397 301.9592,272.7169 301.5,272.6488 301.0497,272.536 300.6127,272.3796 300.1931,272.1812 299.7949,271.9425 299.4221,271.666 299.0782,271.3543 298.7665,271.0104 298.4899,270.6375 298.2513,270.2394 298.0528,269.8198 297.8965,269.3827 297.7837,268.9325 297.7156,268.4733 297.6928,268.0097"/>
    <polygon points="309.8285,277.1839 309.5899,276.7857 309.3914,276.3661 309.2351,275.9291 309.1223,275.4788 309.0542,275.0196 309.0314,274.556 309.0542,274.0924 309.1223,273.6333 309.2351,273.183 309.3914,272.7459 309.5899,272.3263 309.8285,271.9282 310.105,271.5554 310.4168,271.2114 310.7607,270.8997 311.1335,270.6232 311.5317,270.3846 311.9513,270.1861 312.3883,270.0297 312.8386,269.9169 313.2977,269.8488 313.7614,269.8261 314.225,269.8488 314.6841,269.9169 315.1344,270.0297 315.5714,270.1861 315.991,270.3846 316.3892,270.6232 316.762,270.8997 317.106,271.2114 317.4177,271.5554 317.6942,271.9282 317.9328,272.3263 318.1313,272.7459 318.2877,273.183 318.4004,273.6333 318.4686,274.0924 318.4913,274.556 318.4686,275.0196 318.4004,275.4788 318.2877,275.9291 318.1313,276.3661 317.9328,276.7857 317.6942,277.1839 317.4177,277.5567 317.106,277.9006 316.762,278.2123 316.3892,278.4889 315.991,278.7275 315.5714,278.926 315.1344,279.0823 314.6841,279.1951 314.225,279.2632 313.7614,279.286 313.2977,279.2632 312.8386,279.1951 312.3883,279.0823 311.9513,278.926 311.5317,278.7275 311.1335,278.4889 310.7607,278.2123 310.4168,277.9006 310.105,277.5567"/>
    <polygon points="306.3556,283.7302 306.0791,284.103 305.7674,284.447 305.4234,284.7587 305.0506,285.0352 304.6525,285.2738 304.2329,285.4723 303.7958,285.6287 303.3455,285.7414 302.8864,285.8096 302.4228,285.8323 301.9592,285.8096 301.5,285.7414 301.0497,285.6287 300.6127,285.4723 300.1931,285.2738 299.7949,285.0352 299.4221,284.7587 299.0782,284.447 298.7665,284.103 298.4899,283.7302 298.2513,283.3321 298.0528,282.9124 297.8965,282.4754 297.7837,282.0251 297.7156,281.566 297.6928,281.1024 297.7156,280.6387 297.7837,280.1796 297.8965,279.7293 298.0528,279.2923 298.2513,278.8727 298.4899,278.4745 298.7665,278.1017 299.0782,277.7578 299.4221,277.446 299.7949,277.1695 300.1931,276.9309 300.6127,276.7324 301.0497,276.5761 301.5,276.4633 301.9592,276.3952 302.4228,276.3724 302.8864,276.3952 303.3455,276.4633 303.7958,276.5761 304.2329,276.7324 304.6525,276.9309 305.0506,277.1695 305.4234,277.446 305.7674,277.7578 306.0791,278.1017 306.3556,278.4745 306.5942,278.8727 306.7927,279.2923 306.9491,279.7293 307.0619,280.1796 307.13,280.6387 307.1527,281.1024 307.13,281.566 307.0619,282.0251 306.9491,282.4754 306.7927,282.9124 306.5942,283.3321"/>
    <polygon points="304.2329,289.8251 304.6525,290.0236 305.0506,290.2622 305.4234,290.5387 305.7674,290.8504 306.0791,291.1944 306.3556,291.5672 306.5942,291.9653 306.7927,292.3849 306.9491,292.822 307.0619,293.2723 307.13,293.7314 307.1527,294.195 307.13,294.6586 307.0619,295.1178 306.9491,295.5681 306.7927,296.0051 306.5942,296.4247 306.3556,296.8229 306.0791,297.1957 305.7674,297.5396 305.4234,297.8513 305.0506,298.1279 304.6525,298.3665 304.2329,298.565 303.7958,298.7213 303.3455,298.8341 302.8864,298.9022 302.4228,298.925 301.9592,298.9022 301.5,298.8341 301.0497,298.7213 300.6127,298.565 300.1931,298.3665 299.7949,298.1279 299.4221,297.8513 299.0782,297.5396 298.7665,297.1957 298.4899,296.8229 298.2513,296.4247 298.0528,296.0051 297.8965,295.5681 297.7837,295.1178 297.7156,294.6586 297.6928,294.195 297.7156,293.7314 297.7837,293.2723 297.8965,292.822 298.0528,292.3849 298.2513,291.9653 298.4899,291.5672 298.7665,291.1944 299.0782,290.8504 299.4221,290.5387 299.7949,290.2622 300.1931,290.0236 300.6127,289.8251 301.0497,289.6687 301.5,289.5559 301.9592,289.4878 302.4228,289.4651 302.8864,289.4878 303.3455,289.5559 303.7958,289.6687"/>
    <polygon points="306.7927,309.0978 306.9491,308.6607 307.0619,308.2105 307.13,307.7513 307.1527,307.2877 307.13,306.8241 307.0619,306.3649 306.9491,305.9147 306.7927,305.4776 306.5942,305.058 306.3556,304.6599 306.0791,304.287 305.7674,303.9431 305.4234,303.6314 305.0506,303.3549 304.6525,303.1162 304.2329,302.9178 303.7958,302.7614 303.3455,302.6486 302.8864,302.5805 302.4228,302.5577 301.9592,302.5805 301.5,302.6486 301.0497,302.7614 300.6127,302.9178 300.1931,303.1162 299.7949,303.3549 299.4221,303.6314 299.0782,303.9431 298.7665,304.287 298.4899,304.6599 298.2513,305.058 298.0528,305.4776 297.8965,305.9147 297.7837,306.3649 297.7156,306.8241 297.6928,307.2877 297.7156,307.7513 297.7837,308.2105 297.8965,308.6607 298.0528,309.0978 298.2513,309.5174 298.4899,309.9155 298.7665,310.2884 299.0782,310.6323 299.4221,310.944 299.7949,311.2205 300.1931,311.4592 300.6127,311.6576 301.0497,311.814 301.5,311.9268 301.9592,311.9949 302.4228,312.0177 302.8864,311.9949 303.3455,311.9268 303.7958,311.814 304.2329,311.6576 304.6525,311.4592 305.0506,311.2205 305.4234,310.944 305.7674,310.6323 306.0791,310.2884 306.3556,309.9155 306.5942,309.5174"/>
  </g>
</svg>
