<?xml version="1.0" encoding="utf-8" ?>
<svg xmlns="http://www.w3.org/2000/svg" xmlns:cc="http://creativecommons.org/ns" xmlns:dc="http://purl.org/dc/elements/1.1/" xmlns:ev="http://www.w3.org/2001/xml-events" xmlns:inkscape="http://www.inkscape.org/namespaces/inkscape" xmlns:rdf="http://www.w3.org/1999/02/22-rdf-syntax-ns" xmlns:sodipodi="http://sodipodi.sourceforge.net/DTD/sodipodi-0.dtd" xmlns:xlink="http://www.w3.org/1999/xlink" baseProfile="tiny" height="15.875cm" version="1.2" viewBox="0 0 432.0 600.0" width="11.43cm">
  <metadata>
    <rdf:RDF>
      <cc:Work>
        <dc:format>image/svg+xml</dc:format>
        <dc:source>vsk save -s 100 -c hex-grid/config/bubble-coasters-2.json /Users/tobin/src/fabian/plotting/fabian-plotting/hex-grid/sketch_hex_grid.py</dc:source>
        <dc:date>2023-11-04T10:32:59.134520</dc:date>
      </cc:Work>
    </rdf:RDF>
  </metadata>
  <defs/>
  <g fill="none" id="layer1" inkscape:groupmode="layer" inkscape:label="1" stroke="#000000" stroke-width="0.7559" style="display:inline">
    <polygon points="353.8731,239.648 353.436,239.8043 352.9858,239.9171 352.5266,239.9852 352.063,240.008 351.5994,239.9852 351.1402,239.9171 350.69,239.8043 350.2529,239.648 349.8333,239.4495 349.4352,239.2109 349.0623,238.9343 348.7184,238.6226 348.4067,238.2787 348.1302,237.9059 347.8915,237.5077 347.6931,237.0881 347.5367,236.6511 347.4239,236.2008 347.3558,235.7416 347.333,235.278 347.3558,234.8144 347.4239,234.3553 347.5367,233.905 347.6931,233.4679 347.8915,233.0483 348.1302,232.6502 348.4067,232.2774 348.7184,231.9334 349.0623,231.6217 349.4352,231.3452 349.8333,231.1066 350.2529,230.9081 350.69,230.7517 351.1402,230.6389 351.5994,230.5708 352.063,230.5481 352.5266,230.5708 352.9858,230.6389 353.436,230.7517 353.8731,230.9081 354.2927,231.1066 354.6908,231.3452 355.0637,231.6217 355.4076,231.9334 355.7193,232.2774 355.9958,232.6502 356.2345,233.0483 356.4329,233.4679 356.5893,233.905 356.7021,234.3553 356.7702,234.8144 356.793,235.278 356.7702,235.7416 356.7021,236.2008 356.5893,236.6511 356.4329,237.0881 356.2345,237.5077 355.9958,237.9059 355.7193,238.2787 355.4076,238.6226 355.0637,238.9343 354.6908,239.2109 354.2927,239.4495"/>
    <polygon points="342.0974,237.2981 342.5345,237.4544 342.9541,237.6529 343.3522,237.8915 343.7251,238.168 344.069,238.4798 344.3807,238.8237 344.6572,239.1965 344.8959,239.5947 345.0943,240.0143 345.2507,240.4513 345.3635,240.9016 345.4316,241.3607 345.4544,241.8244 345.4316,242.288 345.3635,242.7471 345.2507,243.1974 345.0943,243.6344 344.8959,244.0541 344.6572,244.4522 344.3807,244.825 344.069,245.169 343.7251,245.4807 343.3522,245.7572 342.9541,245.9958 342.5345,246.1943 342.0974,246.3507 341.6472,246.4634 341.188,246.5316 340.7244,246.5543 340.2608,246.5316 339.8016,246.4634 339.3514,246.3507 338.9143,246.1943 338.4947,245.9958 338.0966,245.7572 337.7237,245.4807 337.3798,245.169 337.0681,244.825 336.7916,244.4522 336.5529,244.0541 336.3545,243.6344 336.1981,243.1974 336.0853,242.7471 336.0172,242.288 335.9944,241.8244 336.0172,241.3607 336.0853,240.9016 336.1981,240.4513 336.3545,240.0143 336.5529,239.5947 336.7916,239.1965 337.0681,238.8237 337.3798,238.4798 337.7237,238.168 338.0966,237.8915 338.4947,237.6529 338.9143,237.4544 339.3514,237.2981 339.8016,237.1853 340.2608,237.1172 340.7244,237.0944 341.188,237.1172 341.6472,237.1853"/>
    <polygon points="332.8864,246.1708 333.0488,247.2654 333.1031,248.3707 333.0488,249.476 332.8864,250.5706 332.6175,251.644 332.2447,252.6859 331.7716,253.6863 331.2027,254.6355 330.5435,255.5243 329.8003,256.3442 328.9804,257.0874 328.0916,257.7466 327.1424,258.3155 326.142,258.7886 325.1001,259.1614 324.0267,259.4303 322.932,259.5927 321.8268,259.647 320.7215,259.5927 319.6269,259.4303 318.5534,259.1614 317.5115,258.7886 316.5112,258.3155 315.562,257.7466 314.6732,257.0874 313.8532,256.3442 313.1101,255.5243 312.4509,254.6355 311.882,253.6863 311.4088,252.6859 311.036,251.644 310.7671,250.5706 310.6048,249.476 310.5505,248.3707 310.6048,247.2654 310.7671,246.1708 311.036,245.0974 311.4088,244.0554 311.882,243.0551 312.4509,242.1059 313.1101,241.2171 313.8532,240.3971 314.6732,239.654 315.562,238.9948 316.5112,238.4259 317.5115,237.9527 318.5534,237.5799 319.6269,237.3111 320.7215,237.1487 321.8268,237.0944 322.932,237.1487 324.0267,237.3111 325.1001,237.5799 326.142,237.9527 327.1424,238.4259 328.0916,238.9948 328.9804,239.654 329.8003,240.3971 330.5435,241.2171 331.2027,242.1059 331.7716,243.0551 332.2447,244.0554 332.6175,245.0974"/>
    <polygon points="333.4443,285.4488 333.7132,284.3754 334.086,283.3334 334.5591,282.3331 335.128,281.3839 335.7872,280.4951 336.5304,279.6751 337.3503,278.932 338.2392,278.2728 339.1883,277.7039 340.1887,277.2307 341.2306,276.8579 342.304,276.5891 343.3987,276.4267 344.5039,276.3724 345.6092,276.4267 346.7038,276.5891 347.7773,276.8579 348.8192,277.2307 349.8196,277.7039 350.7687,278.2728 351.6576,278.932 352.4775,279.6751 353.2206,280.4951 353.8798,281.3839 354.4488,282.3331 354.9219,283.3334 355.2947,284.3754 355.5636,285.4488 355.7259,286.5434 355.7802,287.6487 355.7259,288.754 355.5636,289.8486 355.2947,290.922 354.9219,291.964 354.4488,292.9643 353.8798,293.9135 353.2206,294.8023 352.4775,295.6222 351.6576,296.3654 350.7687,297.0246 349.8196,297.5935 348.8192,298.0666 347.7773,298.4394 346.7038,298.7083 345.6092,298.8707 344.5039,298.925 343.3987,298.8707 342.304,298.7083 341.2306,298.4394 340.1887,298.0666 339.1883,297.5935 338.2392,297.0246 337.3503,296.3654 336.5304,295.6222 335.7872,294.8023 335.128,293.9135 334.5591,292.9643 334.086,291.964 333.7132,290.922 333.4443,289.8486 333.2819,288.754 333.2276,287.6487 333.2819,286.5434"/>
    <polygon points="351.6576,270.1801 350.7687,270.8393 349.8196,271.4082 348.8192,271.8813 347.7773,272.2541 346.7038,272.523 345.6092,272.6854 344.5039,272.7397 343.3987,272.6854 342.304,272.523 341.2306,272.2541 340.1887,271.8813 339.1883,271.4082 338.2392,270.8393 337.3503,270.1801 336.5304,269.4369 335.7872,268.617 335.128,267.7281 334.5591,266.779 334.086,265.7786 333.7132,264.7367 333.4443,263.6633 333.2819,262.5686 333.2276,261.4634 333.2819,260.3581 333.4443,259.2635 333.7132,258.19 334.086,257.1481 334.5591,256.1477 335.128,255.1986 335.7872,254.3097 336.5304,253.4898 337.3503,252.7467 338.2392,252.0875 339.1883,251.5185 340.1887,251.0454 341.2306,250.6726 342.304,250.4037 343.3987,250.2414 344.5039,250.1871 345.6092,250.2414 346.7038,250.4037 347.7773,250.6726 348.8192,251.0454 349.8196,251.5185 350.7687,252.0875 351.6576,252.7467 352.4775,253.4898 353.2206,254.3097 353.8798,255.1986 354.4488,256.1477 354.9219,257.1481 355.2947,258.19 355.5636,259.2635 355.7259,260.3581 355.7802,261.4634 355.7259,262.5686 355.5636,263.6633 355.2947,264.7367 354.9219,265.7786 354.4488,266.779 353.8798,267.7281 353.2206,268.617 352.4775,269.4369"/>
    <polygon points="359.2075,266.5825 360.0275,265.8393 360.9163,265.1801 361.8655,264.6112 362.8658,264.1381 363.9078,263.7653 364.9812,263.4964 366.0758,263.334 367.1811,263.2797 368.2864,263.334 369.381,263.4964 370.4544,263.7653 371.4964,264.1381 372.4967,264.6112 373.4459,265.1801 374.3347,265.8393 375.1547,266.5825 375.8978,267.4024 376.557,268.2912 377.1259,269.2404 377.5991,270.2408 377.9719,271.2827 378.2407,272.3561 378.4031,273.4508 378.4574,274.556 378.4031,275.6613 378.2407,276.7559 377.9719,277.8294 377.5991,278.8713 377.1259,279.8716 376.557,280.8208 375.8978,281.7096 375.1547,282.5296 374.3347,283.2727 373.4459,283.9319 372.4967,284.5008 371.4964,284.974 370.4544,285.3468 369.381,285.6157 368.2864,285.778 367.1811,285.8323 366.0758,285.778 364.9812,285.6157 363.9078,285.3468 362.8658,284.974 361.8655,284.5008 360.9163,283.9319 360.0275,283.2727 359.2075,282.5296 358.4644,281.7096 357.8052,280.8208 357.2363,279.8716 356.7632,278.8713 356.3903,277.8294 356.1215,276.7559 355.9591,275.6613 355.9048,274.556 355.9591,273.4508 356.1215,272.3561 356.3903,271.2827 356.7632,270.2408 357.2363,269.2404 357.8052,268.2912 358.4644,267.4024"/>
    <polygon points="381.9073,265.78 382.1459,265.3819 382.4224,265.009 382.7341,264.6651 383.0781,264.3534 383.4509,264.0769 383.849,263.8382 384.2687,263.6398 384.7057,263.4834 385.156,263.3706 385.6151,263.3025 386.0787,263.2797 386.5424,263.3025 387.0015,263.3706 387.4518,263.4834 387.8888,263.6398 388.3084,263.8382 388.7066,264.0769 389.0794,264.3534 389.4233,264.6651 389.7351,265.009 390.0116,265.3819 390.2502,265.78 390.4487,266.1996 390.605,266.6367 390.7178,267.0869 390.7859,267.5461 390.8087,268.0097 390.7859,268.4733 390.7178,268.9325 390.605,269.3827 390.4487,269.8198 390.2502,270.2394 390.0116,270.6375 389.7351,271.0104 389.4233,271.3543 389.0794,271.666 388.7066,271.9425 388.3084,272.1812 387.8888,272.3796 387.4518,272.536 387.0015,272.6488 386.5424,272.7169 386.0787,272.7397 385.6151,272.7169 385.156,272.6488 384.7057,272.536 384.2687,272.3796 383.849,272.1812 383.4509,271.9425 383.0781,271.666 382.7341,271.3543 382.4224,271.0104 382.1459,270.6375 381.9073,270.2394 381.7088,269.8198 381.5524,269.3827 381.4397,268.9325 381.3715,268.4733 381.3488,268.0097 381.3715,267.5461 381.4397,267.0869 381.5524,266.6367 381.7088,266.1996"/>
    <polygon points="401.3502,285.0209 401.5888,285.419 401.7872,285.8386 401.9436,286.2757 402.0564,286.7259 402.1245,287.1851 402.1473,287.6487 402.1245,288.1123 402.0564,288.5715 401.9436,289.0217 401.7872,289.4588 401.5888,289.8784 401.3502,290.2765 401.0736,290.6494 400.7619,290.9933 400.418,291.305 400.0452,291.5815 399.647,291.8202 399.2274,292.0186 398.7904,292.175 398.3401,292.2878 397.8809,292.3559 397.4173,292.3787 396.9537,292.3559 396.4946,292.2878 396.0443,292.175 395.6072,292.0186 395.1876,291.8202 394.7895,291.5815 394.4167,291.305 394.0727,290.9933 393.761,290.6494 393.4845,290.2765 393.2459,289.8784 393.0474,289.4588 392.891,289.0217 392.7782,288.5715 392.7101,288.1123 392.6874,287.6487 392.7101,287.1851 392.7782,286.7259 392.891,286.2757 393.0474,285.8386 393.2459,285.419 393.4845,285.0209 393.761,284.648 394.0727,284.3041 394.4167,283.9924 394.7895,283.7159 395.1876,283.4772 395.6072,283.2788 396.0443,283.1224 396.4946,283.0096 396.9537,282.9415 397.4173,282.9187 397.8809,282.9415 398.3401,283.0096 398.7904,283.1224 399.2274,283.2788 399.647,283.4772 400.0452,283.7159 400.418,283.9924 400.7619,284.3041 401.0736,284.648"/>
    <polygon points="387.4518,285.6287 387.0015,285.7414 386.5424,285.8096 386.0787,285.8323 385.6151,285.8096 385.156,285.7414 384.7057,285.6287 384.2687,285.4723 383.849,285.2738 383.4509,285.0352 383.0781,284.7587 382.7341,284.447 382.4224,284.103 382.1459,283.7302 381.9073,283.3321 381.7088,282.9124 381.5524,282.4754 381.4397,282.0251 381.3715,281.566 381.3488,281.1024 381.3715,280.6387 381.4397,280.1796 381.5524,279.7293 381.7088,279.2923 381.9073,278.8727 382.1459,278.4745 382.4224,278.1017 382.7341,277.7578 383.0781,277.446 383.4509,277.1695 383.849,276.9309 384.2687,276.7324 384.7057,276.5761 385.156,276.4633 385.6151,276.3952 386.0787,276.3724 386.5424,276.3952 387.0015,276.4633 387.4518,276.5761 387.8888,276.7324 388.3084,276.9309 388.7066,277.1695 389.0794,277.446 389.4233,277.7578 389.7351,278.1017 390.0116,278.4745 390.2502,278.8727 390.4487,279.2923 390.605,279.7293 390.7178,280.1796 390.7859,280.6387 390.8087,281.1024 390.7859,281.566 390.7178,282.0251 390.605,282.4754 390.4487,282.9124 390.2502,283.3321 390.0116,283.7302 389.7351,284.103 389.4233,284.447 389.0794,284.7587 388.7066,285.0352 388.3084,285.2738 387.8888,285.4723"/>
    <polygon points="361.1719,298.3665 360.7737,298.1279 360.4009,297.8513 360.057,297.5396 359.7453,297.1957 359.4687,296.8229 359.2301,296.4247 359.0316,296.0051 358.8753,295.5681 358.7625,295.1178 358.6944,294.6586 358.6716,294.195 358.6944,293.7314 358.7625,293.2723 358.8753,292.822 359.0316,292.3849 359.2301,291.9653 359.4687,291.5672 359.7453,291.1944 360.057,290.8504 360.4009,290.5387 360.7737,290.2622 361.1719,290.0236 361.5915,289.8251 362.0285,289.6687 362.4788,289.5559 362.938,289.4878 363.4016,289.4651 363.8652,289.4878 364.3243,289.5559 364.7746,289.6687 365.2117,289.8251 365.6313,290.0236 366.0294,290.2622 366.4022,290.5387 366.7462,290.8504 367.0579,291.1944 367.3344,291.5672 367.573,291.9653 367.7715,292.3849 367.9279,292.822 368.0407,293.2723 368.1088,293.7314 368.1315,294.195 368.1088,294.6586 368.0407,295.1178 367.9279,295.5681 367.7715,296.0051 367.573,296.4247 367.3344,296.8229 367.0579,297.1957 366.7462,297.5396 366.4022,297.8513 366.0294,298.1279 365.6313,298.3665 365.2117,298.565 364.7746,298.7213 364.3243,298.8341 363.8652,298.9022 363.4016,298.925 362.938,298.9022 362.4788,298.8341 362.0285,298.7213 361.5915,298.565"/>
    <polygon points="367.9279,308.6607 367.7715,309.0978 367.573,309.5174 367.3344,309.9155 367.0579,310.2884 366.7462,310.6323 366.4022,310.944 366.0294,311.2205 365.6313,311.4592 365.2117,311.6576 364.7746,311.814 364.3243,311.9268 363.8652,311.9949 363.4016,312.0177 362.938,311.9949 362.4788,311.9268 362.0285,311.814 361.5915,311.6576 361.1719,311.4592 360.7737,311.2205 360.4009,310.944 360.057,310.6323 359.7453,310.2884 359.4687,309.9155 359.2301,309.5174 359.0316,309.0978 358.8753,308.6607 358.7625,308.2105 358.6944,307.7513 358.6716,307.2877 358.6944,306.8241 358.7625,306.3649 358.8753,305.9147 359.0316,305.4776 359.2301,305.058 359.4687,304.6599 359.7453,304.287 360.057,303.9431 360.4009,303.6314 360.7737,303.3549 361.1719,303.1162 361.5915,302.9178 362.0285,302.7614 362.4788,302.6486 362.938,302.5805 363.4016,302.5577 363.8652,302.5805 364.3243,302.6486 364.7746,302.7614 365.2117,302.9178 365.6313,303.1162 366.0294,303.3549 366.4022,303.6314 366.7462,303.9431 367.0579,304.287 367.3344,304.6599 367.573,305.058 367.7715,305.4776 367.9279,305.9147 368.0407,306.3649 368.1088,306.8241 368.1315,307.2877 368.1088,307.7513 368.0407,308.2105"/>
    <polygon points="347.7773,329.2286 348.8192,329.6014 349.8196,330.0746 350.7687,330.6435 351.6576,331.3027 352.4775,332.0458 353.2206,332.8658 353.8798,333.7546 354.4488,334.7038 354.9219,335.7041 355.2947,336.746 355.5636,337.8195 355.7259,338.9141 355.7802,340.0194 355.7259,341.1246 355.5636,342.2193 355.2947,343.2927 354.9219,344.3346 354.4488,345.335 353.8798,346.2841 353.2206,347.173 352.4775,347.9929 351.6576,348.7361 350.7687,349.3953 349.8196,349.9642 348.8192,350.4373 347.7773,350.8101 346.7038,351.079 345.6092,351.2414 344.5039,351.2957 343.3987,351.2414 342.304,351.079 341.2306,350.8101 340.1887,350.4373 339.1883,349.9642 338.2392,349.3953 337.3503,348.7361 336.5304,347.9929 335.7872,347.173 335.128,346.2841 334.5591,345.335 334.086,344.3346 333.7132,343.2927 333.4443,342.2193 333.2819,341.1246 333.2276,340.0194 333.2819,338.9141 333.4443,337.8195 333.7132,336.746 334.086,335.7041 334.5591,334.7038 335.128,333.7546 335.7872,332.8658 336.5304,332.0458 337.3503,331.3027 338.2392,330.6435 339.1883,330.0746 340.1887,329.6014 341.2306,329.2286 342.304,328.9597 343.3987,328.7974 344.5039,328.7431 345.6092,328.7974 346.7038,328.9597"/>
    <polygon points="337.3503,322.5507 336.5304,321.8076 335.7872,320.9876 335.128,320.0988 334.5591,319.1496 334.086,318.1493 333.7132,317.1074 333.4443,316.0339 333.2819,314.9393 333.2276,313.834 333.2819,312.7288 333.4443,311.6341 333.7132,310.5607 334.086,309.5188 334.5591,308.5184 335.128,307.5693 335.7872,306.6804 336.5304,305.8605 337.3503,305.1173 338.2392,304.4581 339.1883,303.8892 340.1887,303.4161 341.2306,303.0433 342.304,302.7744 343.3987,302.612 344.5039,302.5577 345.6092,302.612 346.7038,302.7744 347.7773,303.0433 348.8192,303.4161 349.8196,303.8892 350.7687,304.4581 351.6576,305.1173 352.4775,305.8605 353.2206,306.6804 353.8798,307.5693 354.4488,308.5184 354.9219,309.5188 355.2947,310.5607 355.5636,311.6341 355.7259,312.7288 355.7802,313.834 355.7259,314.9393 355.5636,316.0339 355.2947,317.1074 354.9219,318.1493 354.4488,319.1496 353.8798,320.0988 353.2206,320.9876 352.4775,321.8076 351.6576,322.5507 350.7687,323.2099 349.8196,323.7788 348.8192,324.252 347.7773,324.6248 346.7038,324.8937 345.6092,325.056 344.5039,325.1103 343.3987,325.056 342.304,324.8937 341.2306,324.6248 340.1887,324.252 339.1883,323.7788 338.2392,323.2099"/>
    <polygon points="317.5115,316.5087 318.5534,316.1359 319.6269,315.8671 320.7215,315.7047 321.8268,315.6504 322.932,315.7047 324.0267,315.8671 325.1001,316.1359 326.142,316.5087 327.1424,316.9819 328.0916,317.5508 328.9804,318.21 329.8003,318.9531 330.5435,319.7731 331.2027,320.6619 331.7716,321.6111 332.2447,322.6114 332.6175,323.6534 332.8864,324.7268 333.0488,325.8214 333.1031,326.9267 333.0488,328.032 332.8864,329.1266 332.6175,330.2 332.2447,331.242 331.7716,332.2423 331.2027,333.1915 330.5435,334.0803 329.8003,334.9003 328.9804,335.6434 328.0916,336.3026 327.1424,336.8715 326.142,337.3446 325.1001,337.7175 324.0267,337.9863 322.932,338.1487 321.8268,338.203 320.7215,338.1487 319.6269,337.9863 318.5534,337.7175 317.5115,337.3446 316.5112,336.8715 315.562,336.3026 314.6732,335.6434 313.8532,334.9003 313.1101,334.0803 312.4509,333.1915 311.882,332.2423 311.4088,331.242 311.036,330.2 310.7671,329.1266 310.6048,328.032 310.5505,326.9267 310.6048,325.8214 310.7671,324.7268 311.036,323.6534 311.4088,322.6114 311.882,321.6111 312.4509,320.6619 313.1101,319.7731 313.8532,318.9531 314.6732,318.21 315.562,317.5508 316.5112,316.9819"/>
    <polygon points="253.0164,356.002 253.3603,356.3138 253.6721,356.6577 253.9486,357.0305 254.1872,357.4287 254.3857,357.8483 254.542,358.2853 254.6548,358.7356 254.7229,359.1947 254.7457,359.6584 254.7229,360.122 254.6548,360.5811 254.542,361.0314 254.3857,361.4684 254.1872,361.8881 253.9486,362.2862 253.6721,362.659 253.3603,363.003 253.0164,363.3147 252.6436,363.5912 252.2454,363.8298 251.8258,364.0283 251.3888,364.1847 250.9385,364.2975 250.4794,364.3656 250.0157,364.3883 249.5521,364.3656 249.093,364.2975 248.6427,364.1847 248.2057,364.0283 247.7861,363.8298 247.3879,363.5912 247.0151,363.3147 246.6712,363.003 246.3594,362.659 246.0829,362.2862 245.8443,361.8881 245.6458,361.4684 245.4894,361.0314 245.3767,360.5811 245.3086,360.122 245.2858,359.6584 245.3086,359.1947 245.3767,358.7356 245.4894,358.2853 245.6458,357.8483 245.8443,357.4287 246.0829,357.0305 246.3594,356.6577 246.6712,356.3138 247.0151,356.002 247.3879,355.7255 247.7861,355.4869 248.2057,355.2884 248.6427,355.1321 249.093,355.0193 249.5521,354.9512 250.0157,354.9284 250.4794,354.9512 250.9385,355.0193 251.3888,355.1321 251.8258,355.2884 252.2454,355.4869 252.6436,355.7255"/>
    <polygon points="250.0157,351.2957 249.5521,351.2729 249.093,351.2048 248.6427,351.092 248.2057,350.9356 247.7861,350.7372 247.3879,350.4985 247.0151,350.222 246.6712,349.9103 246.3594,349.5664 246.0829,349.1935 245.8443,348.7954 245.6458,348.3758 245.4894,347.9387 245.3767,347.4885 245.3086,347.0293 245.2858,346.5657 245.3086,346.1021 245.3767,345.6429 245.4894,345.1927 245.6458,344.7556 245.8443,344.336 246.0829,343.9379 246.3594,343.565 246.6712,343.2211 247.0151,342.9094 247.3879,342.6329 247.7861,342.3942 248.2057,342.1958 248.6427,342.0394 249.093,341.9266 249.5521,341.8585 250.0157,341.8357 250.4794,341.8585 250.9385,341.9266 251.3888,342.0394 251.8258,342.1958 252.2454,342.3942 252.6436,342.6329 253.0164,342.9094 253.3603,343.2211 253.6721,343.565 253.9486,343.9379 254.1872,344.336 254.3857,344.7556 254.542,345.1927 254.6548,345.6429 254.7229,346.1021 254.7457,346.5657 254.7229,347.0293 254.6548,347.4885 254.542,347.9387 254.3857,348.3758 254.1872,348.7954 253.9486,349.1935 253.6721,349.5664 253.3603,349.9103 253.0164,350.222 252.6436,350.4985 252.2454,350.7372 251.8258,350.9356 251.3888,351.092 250.9385,351.2048 250.4794,351.2729"/>
    <polygon points="253.9486,330.8452 253.6721,330.4724 253.3603,330.1284 253.0164,329.8167 252.6436,329.5402 252.2454,329.3016 251.8258,329.1031 251.3888,328.9467 250.9385,328.8339 250.4794,328.7658 250.0157,328.7431 249.5521,328.7658 249.093,328.8339 248.6427,328.9467 248.2057,329.1031 247.7861,329.3016 247.3879,329.5402 247.0151,329.8167 246.6712,330.1284 246.3594,330.4724 246.0829,330.8452 245.8443,331.2433 245.6458,331.663 245.4894,332.1 245.3767,332.5503 245.3086,333.0094 245.2858,333.473 245.3086,333.9367 245.3767,334.3958 245.4894,334.8461 245.6458,335.2831 245.8443,335.7027 246.0829,336.1009 246.3594,336.4737 246.6712,336.8176 247.0151,337.1294 247.3879,337.4059 247.7861,337.6445 248.2057,337.843 248.6427,337.9993 249.093,338.1121 249.5521,338.1802 250.0157,338.203 250.4794,338.1802 250.9385,338.1121 251.3888,337.9993 251.8258,337.843 252.2454,337.6445 252.6436,337.4059 253.0164,337.1294 253.3603,336.8176 253.6721,336.4737 253.9486,336.1009 254.1872,335.7027 254.3857,335.2831 254.542,334.8461 254.6548,334.3958 254.7229,333.9367 254.7457,333.473 254.7229,333.0094 254.6548,332.5503 254.542,332.1 254.3857,331.663 254.1872,331.2433"/>
    <polygon points="250.4794,325.0876 250.9385,325.0195 251.3888,324.9067 251.8258,324.7503 252.2454,324.5518 252.6436,324.3132 253.0164,324.0367 253.3603,323.725 253.6721,323.381 253.9486,323.0082 254.1872,322.6101 254.3857,322.1904 254.542,321.7534 254.6548,321.3031 254.7229,320.844 254.7457,320.3804 254.7229,319.9167 254.6548,319.4576 254.542,319.0073 254.3857,318.5703 254.1872,318.1507 253.9486,317.7525 253.6721,317.3797 253.3603,317.0358 253.0164,316.724 252.6436,316.4475 252.2454,316.2089 251.8258,316.0104 251.3888,315.8541 250.9385,315.7413 250.4794,315.6732 250.0157,315.6504 249.5521,315.6732 249.093,315.7413 248.6427,315.8541 248.2057,316.0104 247.7861,316.2089 247.3879,316.4475 247.0151,316.724 246.6712,317.0358 246.3594,317.3797 246.0829,317.7525 245.8443,318.1507 245.6458,318.5703 245.4894,319.0073 245.3767,319.4576 245.3086,319.9167 245.2858,320.3804 245.3086,320.844 245.3767,321.3031 245.4894,321.7534 245.6458,322.1904 245.8443,322.6101 246.0829,323.0082 246.3594,323.381 246.6712,323.725 247.0151,324.0367 247.3879,324.3132 247.7861,324.5518 248.2057,324.7503 248.6427,324.9067 249.093,325.0195 249.5521,325.0876 250.0157,325.1103"/>
    <polygon points="242.3944,326.9267 242.3401,328.032 242.1777,329.1266 241.9089,330.2 241.5361,331.242 241.0629,332.2423 240.494,333.1915 239.8348,334.0803 239.0917,334.9003 238.2717,335.6434 237.3829,336.3026 236.4337,336.8715 235.4334,337.3446 234.3914,337.7175 233.318,337.9863 232.2234,338.1487 231.1181,338.203 230.0128,338.1487 228.9182,337.9863 227.8448,337.7175 226.8029,337.3446 225.8025,336.8715 224.8533,336.3026 223.9645,335.6434 223.1446,334.9003 222.4014,334.0803 221.7422,333.1915 221.1733,332.2423 220.7002,331.242 220.3274,330.2 220.0585,329.1266 219.8961,328.032 219.8418,326.9267 219.8961,325.8214 220.0585,324.7268 220.3274,323.6534 220.7002,322.6114 221.1733,321.6111 221.7422,320.6619 222.4014,319.7731 223.1446,318.9531 223.9645,318.21 224.8533,317.5508 225.8025,316.9819 226.8029,316.5087 227.8448,316.1359 228.9182,315.8671 230.0128,315.7047 231.1181,315.6504 232.2234,315.7047 233.318,315.8671 234.3914,316.1359 235.4334,316.5087 236.4337,316.9819 237.3829,317.5508 238.2717,318.21 239.0917,318.9531 239.8348,319.7731 240.494,320.6619 241.0629,321.6111 241.5361,322.6114 241.9089,323.6534 242.1777,324.7268 242.3401,325.8214"/>
    <polygon points="260.1308,266.2175 259.7799,263.8519 259.6625,261.4634 259.7799,259.0748 260.1308,256.7092 260.7118,254.3894 261.5175,252.1378 262.54,249.9759 263.7694,247.9247 265.194,246.0038 266.8,244.2319 268.572,242.6259 270.4928,241.2013 272.544,239.9718 274.7059,238.9494 276.9576,238.1437 279.2773,237.5626 281.6429,237.2117 284.0315,237.0944 286.4201,237.2117 288.7856,237.5626 291.1054,238.1437 293.3571,238.9494 295.519,239.9718 297.5702,241.2013 299.491,242.6259 301.263,244.2319 302.869,246.0038 304.2936,247.9247 305.523,249.9759 306.5455,252.1378 307.3512,254.3894 307.9322,256.7092 308.2831,259.0748 308.4005,261.4634 308.2831,263.8519 307.9322,266.2175 307.3512,268.5373 306.5455,270.789 305.523,272.9508 304.2936,275.002 302.869,276.9229 301.263,278.6948 299.491,280.3008 297.5702,281.7254 295.519,282.9549 293.3571,283.9774 291.1054,284.783 288.7856,285.3641 286.4201,285.715 284.0315,285.8323 281.6429,285.715 279.2773,285.3641 276.9576,284.783 274.7059,283.9774 272.544,282.9549 270.4928,281.7254 268.572,280.3008 266.8,278.6948 265.194,276.9229 263.7694,275.002 262.54,272.9508 261.5175,270.789 260.7118,268.5373"/>
    <polygon points="248.0028,265.1347 250.1646,266.1572 252.2158,267.3866 254.1367,268.8112 255.9086,270.4172 257.5146,272.1892 258.9392,274.11 260.1687,276.1612 261.1912,278.3231 261.9968,280.5748 262.5779,282.8945 262.9288,285.2601 263.0461,287.6487 262.9288,290.0373 262.5779,292.4028 261.9968,294.7226 261.1912,296.9743 260.1687,299.1362 258.9392,301.1874 257.5146,303.1082 255.9086,304.8802 254.1367,306.4862 252.2158,307.9108 250.1646,309.1402 248.0028,310.1627 245.7511,310.9684 243.4313,311.5494 241.0657,311.9003 238.6772,312.0177 236.2886,311.9003 233.923,311.5494 231.6032,310.9684 229.3516,310.1627 227.1897,309.1402 225.1385,307.9108 223.2177,306.4862 221.4457,304.8802 219.8397,303.1082 218.4151,301.1874 217.1856,299.1362 216.1632,296.9743 215.3575,294.7226 214.7764,292.4028 214.4255,290.0373 214.3082,287.6487 214.4255,285.2601 214.7764,282.8945 215.3575,280.5748 216.1632,278.3231 217.1856,276.1612 218.4151,274.11 219.8397,272.1892 221.4457,270.4172 223.2177,268.8112 225.1385,267.3866 227.1897,266.1572 229.3516,265.1347 231.6032,264.329 233.923,263.748 236.2886,263.3971 238.6772,263.2797 241.0657,263.3971 243.4313,263.748 245.7511,264.329"/>
    <polygon points="186.2489,284.783 183.9972,283.9774 181.8354,282.9549 179.7842,281.7254 177.8633,280.3008 176.0914,278.6948 174.4854,276.9229 173.0608,275.002 171.8313,272.9508 170.8088,270.789 170.0032,268.5373 169.4221,266.2175 169.0712,263.8519 168.9539,261.4634 169.0712,259.0748 169.4221,256.7092 170.0032,254.3894 170.8088,252.1378 171.8313,249.9759 173.0608,247.9247 174.4854,246.0038 176.0914,244.2319 177.8633,242.6259 179.7842,241.2013 181.8354,239.9718 183.9972,238.9494 186.2489,238.1437 188.5687,237.5626 190.9343,237.2117 193.3228,237.0944 195.7114,237.2117 198.077,237.5626 200.3968,238.1437 202.6484,238.9494 204.8103,239.9718 206.8615,241.2013 208.7823,242.6259 210.5543,244.2319 212.1603,246.0038 213.5849,247.9247 214.8144,249.9759 215.8368,252.1378 216.6425,254.3894 217.2236,256.7092 217.5745,259.0748 217.6918,261.4634 217.5745,263.8519 217.2236,266.2175 216.6425,268.5373 215.8368,270.789 214.8144,272.9508 213.5849,275.002 212.1603,276.9229 210.5543,278.6948 208.7823,280.3008 206.8615,281.7254 204.8103,282.9549 202.6484,283.9774 200.3968,284.783 198.077,285.3641 195.7114,285.715 193.3228,285.8323 190.9343,285.715 188.5687,285.3641"/>
    <polygon points="179.7842,293.572 181.8354,292.3425 183.9972,291.32 186.2489,290.5144 188.5687,289.9333 190.9343,289.5824 193.3228,289.4651 195.7114,289.5824 198.077,289.9333 200.3968,290.5144 202.6484,291.32 204.8103,292.3425 206.8615,293.572 208.7823,294.9966 210.5543,296.6026 212.1603,298.3745 213.5849,300.2954 214.8144,302.3466 215.8368,304.5084 216.6425,306.7601 217.2236,309.0799 217.5745,311.4455 217.6918,313.834 217.5745,316.2226 217.2236,318.5882 216.6425,320.908 215.8368,323.1596 214.8144,325.3215 213.5849,327.3727 212.1603,329.2935 210.5543,331.0655 208.7823,332.6715 206.8615,334.0961 204.8103,335.3255 202.6484,336.348 200.3968,337.1537 198.077,337.7348 195.7114,338.0857 193.3228,338.203 190.9343,338.0857 188.5687,337.7348 186.2489,337.1537 183.9972,336.348 181.8354,335.3255 179.7842,334.0961 177.8633,332.6715 176.0914,331.0655 174.4854,329.2935 173.0608,327.3727 171.8313,325.3215 170.8088,323.1596 170.0032,320.908 169.4221,318.5882 169.0712,316.2226 168.9539,313.834 169.0712,311.4455 169.4221,309.0799 170.0032,306.7601 170.8088,304.5084 171.8313,302.3466 173.0608,300.2954 174.4854,298.3745 176.0914,296.6026 177.8633,294.9966"/>
    <polygon points="159.456,318.5278 157.2941,317.5054 155.0424,316.6997 152.7227,316.1186 150.3571,315.7677 147.9685,315.6504 145.5799,315.7677 143.2144,316.1186 140.8946,316.6997 138.6429,317.5054 136.481,318.5278 134.4298,319.7573 132.509,321.1819 130.737,322.7879 129.131,324.5599 127.7064,326.4807 126.477,328.5319 125.4545,330.6938 124.6488,332.9454 124.0678,335.2652 123.7169,337.6308 123.5995,340.0194 123.7169,342.4079 124.0678,344.7735 124.6488,347.0933 125.4545,349.345 126.477,351.5068 127.7064,353.558 129.131,355.4789 130.737,357.2508 132.509,358.8568 134.4298,360.2814 136.481,361.5109 138.6429,362.5334 140.8946,363.339 143.2144,363.9201 145.5799,364.271 147.9685,364.3883 150.3571,364.271 152.7227,363.9201 155.0424,363.339 157.2941,362.5334 159.456,361.5109 161.5072,360.2814 163.428,358.8568 165.2,357.2508 166.806,355.4789 168.2306,353.558 169.46,351.5068 170.4825,349.345 171.2882,347.0933 171.8692,344.7735 172.2201,342.4079 172.3375,340.0194 172.2201,337.6308 171.8692,335.2652 171.2882,332.9454 170.4825,330.6938 169.46,328.5319 168.2306,326.4807 166.806,324.5599 165.2,322.7879 163.428,321.1819 161.5072,319.7573"/>
    <polygon points="195.1397,359.3768 195.7086,358.4276 196.1817,357.4273 196.5545,356.3854 196.8234,355.3119 196.9858,354.2173 197.0401,353.112 196.9858,352.0068 196.8234,350.9121 196.5545,349.8387 196.1817,348.7968 195.7086,347.7964 195.1397,346.8473 194.4805,345.9584 193.7373,345.1385 192.9174,344.3953 192.0286,343.7361 191.0794,343.1672 190.079,342.6941 189.0371,342.3213 187.9637,342.0524 186.8691,341.89 185.7638,341.8357 184.6585,341.89 183.5639,342.0524 182.4904,342.3213 181.4485,342.6941 180.4482,343.1672 179.499,343.7361 178.6102,344.3953 177.7902,345.1385 177.0471,345.9584 176.3879,346.8473 175.819,347.7964 175.3458,348.7968 174.973,349.8387 174.7041,350.9121 174.5418,352.0068 174.4875,353.112 174.5418,354.2173 174.7041,355.3119 174.973,356.3854 175.3458,357.4273 175.819,358.4276 176.3879,359.3768 177.0471,360.2656 177.7902,361.0856 178.6102,361.8287 179.499,362.4879 180.4482,363.0568 181.4485,363.53 182.4904,363.9028 183.5639,364.1717 184.6585,364.334 185.7638,364.3883 186.8691,364.334 187.9637,364.1717 189.0371,363.9028 190.079,363.53 191.0794,363.0568 192.0286,362.4879 192.9174,361.8287 193.7373,361.0856 194.4805,360.2656"/>
    <polygon points="219.8961,354.2173 220.0585,355.3119 220.3274,356.3854 220.7002,357.4273 221.1733,358.4276 221.7422,359.3768 222.4014,360.2656 223.1446,361.0856 223.9645,361.8287 224.8533,362.4879 225.8025,363.0568 226.8029,363.53 227.8448,363.9028 228.9182,364.1717 230.0128,364.334 231.1181,364.3883 232.2234,364.334 233.318,364.1717 234.3914,363.9028 235.4334,363.53 236.4337,363.0568 237.3829,362.4879 238.2717,361.8287 239.0917,361.0856 239.8348,360.2656 240.494,359.3768 241.0629,358.4276 241.5361,357.4273 241.9089,356.3854 242.1777,355.3119 242.3401,354.2173 242.3944,353.112 242.3401,352.0068 242.1777,350.9121 241.9089,349.8387 241.5361,348.7968 241.0629,347.7964 240.494,346.8473 239.8348,345.9584 239.0917,345.1385 238.2717,344.3953 237.3829,343.7361 236.4337,343.1672 235.4334,342.6941 234.3914,342.3213 233.318,342.0524 232.2234,341.89 231.1181,341.8357 230.0128,341.89 228.9182,342.0524 227.8448,342.3213 226.8029,342.6941 225.8025,343.1672 224.8533,343.7361 223.9645,344.3953 223.1446,345.1385 222.4014,345.9584 221.7422,346.8473 221.1733,347.7964 220.7002,348.7968 220.3274,349.8387 220.0585,350.9121 219.8961,352.0068 219.8418,353.112"/>
    <polygon points="224.7108,376.6839 225.1089,376.9225 225.5285,377.121 225.9655,377.2773 226.4158,377.3901 226.875,377.4582 227.3386,377.481 227.8022,377.4582 228.2614,377.3901 228.7116,377.2773 229.1487,377.121 229.5683,376.9225 229.9664,376.6839 230.3392,376.4074 230.6832,376.0956 230.9949,375.7517 231.2714,375.3789 231.51,374.9807 231.7085,374.5611 231.8649,374.1241 231.9777,373.6738 232.0458,373.2147 232.0686,372.751 232.0458,372.2874 231.9777,371.8283 231.8649,371.378 231.7085,370.941 231.51,370.5213 231.2714,370.1232 230.9949,369.7504 230.6832,369.4064 230.3392,369.0947 229.9664,368.8182 229.5683,368.5796 229.1487,368.3811 228.7116,368.2247 228.2614,368.1119 227.8022,368.0438 227.3386,368.0211 226.875,368.0438 226.4158,368.1119 225.9655,368.2247 225.5285,368.3811 225.1089,368.5796 224.7108,368.8182 224.3379,369.0947 223.994,369.4064 223.6823,369.7504 223.4058,370.1232 223.1671,370.5213 222.9687,370.941 222.8123,371.378 222.6995,371.8283 222.6314,372.2874 222.6086,372.751 222.6314,373.2147 222.6995,373.6738 222.8123,374.1241 222.9687,374.5611 223.1671,374.9807 223.4058,375.3789 223.6823,375.7517 223.994,376.0956 224.3379,376.4074"/>
    <polygon points="207.6621,382.1874 207.2892,381.9109 206.8911,381.6722 206.4715,381.4738 206.0345,381.3174 205.5842,381.2046 205.125,381.1365 204.6614,381.1137 204.1978,381.1365 203.7386,381.2046 203.2884,381.3174 202.8513,381.4738 202.4317,381.6722 202.0336,381.9109 201.6608,382.1874 201.3168,382.4991 201.0051,382.843 200.7286,383.2159 200.49,383.614 200.2915,384.0336 200.1351,384.4707 200.0223,384.9209 199.9542,385.3801 199.9314,385.8437 199.9542,386.3073 200.0223,386.7665 200.1351,387.2167 200.2915,387.6538 200.49,388.0734 200.7286,388.4715 201.0051,388.8444 201.3168,389.1883 201.6608,389.5 202.0336,389.7765 202.4317,390.0152 202.8513,390.2136 203.2884,390.37 203.7386,390.4828 204.1978,390.5509 204.6614,390.5737 205.125,390.5509 205.5842,390.4828 206.0345,390.37 206.4715,390.2136 206.8911,390.0152 207.2892,389.7765 207.6621,389.5 208.006,389.1883 208.3177,388.8444 208.5942,388.4715 208.8329,388.0734 209.0313,387.6538 209.1877,387.2167 209.3005,386.7665 209.3686,386.3073 209.3914,385.8437 209.3686,385.3801 209.3005,384.9209 209.1877,384.4707 209.0313,384.0336 208.8329,383.614 208.5942,383.2159 208.3177,382.843 208.006,382.4991"/>
    <polygon points="204.1978,394.2292 203.7386,394.2973 203.2884,394.4101 202.8513,394.5664 202.4317,394.7649 202.0336,395.0035 201.6608,395.2801 201.3168,395.5918 201.0051,395.9357 200.7286,396.3085 200.49,396.7067 200.2915,397.1263 200.1351,397.5633 200.0223,398.0136 199.9542,398.4728 199.9314,398.9364 199.9542,399.4 200.0223,399.8591 200.1351,400.3094 200.2915,400.7465 200.49,401.1661 200.7286,401.5642 201.0051,401.937 201.3168,402.281 201.6608,402.5927 202.0336,402.8692 202.4317,403.1078 202.8513,403.3063 203.2884,403.4627 203.7386,403.5755 204.1978,403.6436 204.6614,403.6663 205.125,403.6436 205.5842,403.5755 206.0345,403.4627 206.4715,403.3063 206.8911,403.1078 207.2892,402.8692 207.6621,402.5927 208.006,402.281 208.3177,401.937 208.5942,401.5642 208.8329,401.1661 209.0313,400.7465 209.1877,400.3094 209.3005,399.8591 209.3686,399.4 209.3914,398.9364 209.3686,398.4728 209.3005,398.0136 209.1877,397.5633 209.0313,397.1263 208.8329,396.7067 208.5942,396.3085 208.3177,395.9357 208.006,395.5918 207.6621,395.2801 207.2892,395.0035 206.8911,394.7649 206.4715,394.5664 206.0345,394.4101 205.5842,394.2973 205.125,394.2292 204.6614,394.2064"/>
    <polygon points="201.0051,409.0284 200.7286,409.4012 200.49,409.7993 200.2915,410.219 200.1351,410.656 200.0223,411.1063 199.9542,411.5654 199.9314,412.029 199.9542,412.4927 200.0223,412.9518 200.1351,413.4021 200.2915,413.8391 200.49,414.2587 200.7286,414.6569 201.0051,415.0297 201.3168,415.3736 201.6608,415.6854 202.0336,415.9619 202.4317,416.2005 202.8513,416.399 203.2884,416.5553 203.7386,416.6681 204.1978,416.7362 204.6614,416.759 205.125,416.7362 205.5842,416.6681 206.0345,416.5553 206.4715,416.399 206.8911,416.2005 207.2892,415.9619 207.6621,415.6854 208.006,415.3736 208.3177,415.0297 208.5942,414.6569 208.8329,414.2587 209.0313,413.8391 209.1877,413.4021 209.3005,412.9518 209.3686,412.4927 209.3914,412.029 209.3686,411.5654 209.3005,411.1063 209.1877,410.656 209.0313,410.219 208.8329,409.7993 208.5942,409.4012 208.3177,409.0284 208.006,408.6844 207.6621,408.3727 207.2892,408.0962 206.8911,407.8576 206.4715,407.6591 206.0345,407.5027 205.5842,407.3899 205.125,407.3218 204.6614,407.2991 204.1978,407.3218 203.7386,407.3899 203.2884,407.5027 202.8513,407.6591 202.4317,407.8576 202.0336,408.0962 201.6608,408.3727 201.3168,408.6844"/>
    <polygon points="186.6233,398.0136 186.5106,397.5633 186.3542,397.1263 186.1557,396.7067 185.9171,396.3085 185.6406,395.9357 185.3288,395.5918 184.9849,395.2801 184.6121,395.0035 184.2139,394.7649 183.7943,394.5664 183.3573,394.4101 182.907,394.2973 182.4479,394.2292 181.9843,394.2064 181.5206,394.2292 181.0615,394.2973 180.6112,394.4101 180.1742,394.5664 179.7546,394.7649 179.3564,395.0035 178.9836,395.2801 178.6397,395.5918 178.3279,395.9357 178.0514,396.3085 177.8128,396.7067 177.6143,397.1263 177.458,397.5633 177.3452,398.0136 177.2771,398.4728 177.2543,398.9364 177.2771,399.4 177.3452,399.8591 177.458,400.3094 177.6143,400.7465 177.8128,401.1661 178.0514,401.5642 178.3279,401.937 178.6397,402.281 178.9836,402.5927 179.3564,402.8692 179.7546,403.1078 180.1742,403.3063 180.6112,403.4627 181.0615,403.5755 181.5206,403.6436 181.9843,403.6663 182.4479,403.6436 182.907,403.5755 183.3573,403.4627 183.7943,403.3063 184.2139,403.1078 184.6121,402.8692 184.9849,402.5927 185.3288,402.281 185.6406,401.937 185.9171,401.5642 186.1557,401.1661 186.3542,400.7465 186.5106,400.3094 186.6233,399.8591 186.6914,399.4 186.7142,398.9364 186.6914,398.4728"/>
    <polygon points="174.5418,380.4026 174.7041,381.4973 174.973,382.5707 175.3458,383.6126 175.819,384.613 176.3879,385.5621 177.0471,386.451 177.7902,387.2709 178.6102,388.0141 179.499,388.6733 180.4482,389.2422 181.4485,389.7153 182.4904,390.0881 183.5639,390.357 184.6585,390.5194 185.7638,390.5737 186.8691,390.5194 187.9637,390.357 189.0371,390.0881 190.079,389.7153 191.0794,389.2422 192.0286,388.6733 192.9174,388.0141 193.7373,387.2709 194.4805,386.451 195.1397,385.5621 195.7086,384.613 196.1817,383.6126 196.5545,382.5707 196.8234,381.4973 196.9858,380.4026 197.0401,379.2974 196.9858,378.1921 196.8234,377.0975 196.5545,376.024 196.1817,374.9821 195.7086,373.9818 195.1397,373.0326 194.4805,372.1438 193.7373,371.3238 192.9174,370.5807 192.0286,369.9215 191.0794,369.3526 190.079,368.8794 189.0371,368.5066 187.9637,368.2377 186.8691,368.0754 185.7638,368.0211 184.6585,368.0754 183.5639,368.2377 182.4904,368.5066 181.4485,368.8794 180.4482,369.3526 179.499,369.9215 178.6102,370.5807 177.7902,371.3238 177.0471,372.1438 176.3879,373.0326 175.819,373.9818 175.3458,374.9821 174.973,376.024 174.7041,377.0975 174.5418,378.1921 174.4875,379.2974"/>
    <polygon points="159.3071,381.1137 159.7707,381.1365 160.2299,381.2046 160.6801,381.3174 161.1172,381.4738 161.5368,381.6722 161.9349,381.9109 162.3077,382.1874 162.6517,382.4991 162.9634,382.843 163.2399,383.2159 163.4786,383.614 163.677,384.0336 163.8334,384.4707 163.9462,384.9209 164.0143,385.3801 164.0371,385.8437 164.0143,386.3073 163.9462,386.7665 163.8334,387.2167 163.677,387.6538 163.4786,388.0734 163.2399,388.4715 162.9634,388.8444 162.6517,389.1883 162.3077,389.5 161.9349,389.7765 161.5368,390.0152 161.1172,390.2136 160.6801,390.37 160.2299,390.4828 159.7707,390.5509 159.3071,390.5737 158.8435,390.5509 158.3843,390.4828 157.934,390.37 157.497,390.2136 157.0774,390.0152 156.6793,389.7765 156.3064,389.5 155.9625,389.1883 155.6508,388.8444 155.3743,388.4715 155.1356,388.0734 154.9372,387.6538 154.7808,387.2167 154.668,386.7665 154.5999,386.3073 154.5771,385.8437 154.5999,385.3801 154.668,384.9209 154.7808,384.4707 154.9372,384.0336 155.1356,383.614 155.3743,383.2159 155.6508,382.843 155.9625,382.4991 156.3064,382.1874 156.6793,381.9109 157.0774,381.6722 157.497,381.4738 157.934,381.3174 158.3843,381.2046 158.8435,381.1365"/>
    <polygon points="165.9385,391.9264 166.0066,391.4673 166.1194,391.017 166.2757,390.58 166.4742,390.1603 166.7128,389.7622 166.9894,389.3894 167.3011,389.0454 167.645,388.7337 168.0178,388.4572 168.416,388.2186 168.8356,388.0201 169.2726,387.8637 169.7229,387.7509 170.1821,387.6828 170.6457,387.6601 171.1093,387.6828 171.5684,387.7509 172.0187,387.8637 172.4558,388.0201 172.8754,388.2186 173.2735,388.4572 173.6463,388.7337 173.9903,389.0454 174.302,389.3894 174.5785,389.7622 174.8171,390.1603 175.0156,390.58 175.172,391.017 175.2848,391.4673 175.3529,391.9264 175.3756,392.39 175.3529,392.8537 175.2848,393.3128 175.172,393.7631 175.0156,394.2001 174.8171,394.6197 174.5785,395.0179 174.302,395.3907 173.9903,395.7346 173.6463,396.0464 173.2735,396.3229 172.8754,396.5615 172.4558,396.76 172.0187,396.9163 171.5684,397.0291 171.1093,397.0972 170.6457,397.12 170.1821,397.0972 169.7229,397.0291 169.2726,396.9163 168.8356,396.76 168.416,396.5615 168.0178,396.3229 167.645,396.0464 167.3011,395.7346 166.9894,395.3907 166.7128,395.0179 166.4742,394.6197 166.2757,394.2001 166.1194,393.7631 166.0066,393.3128 165.9385,392.8537 165.9157,392.39"/>
    <polygon points="166.1194,406.8557 166.2757,407.2928 166.4742,407.7124 166.7128,408.1105 166.9894,408.4834 167.3011,408.8273 167.645,409.139 168.0178,409.4155 168.416,409.6542 168.8356,409.8526 169.2726,410.009 169.7229,410.1218 170.1821,410.1899 170.6457,410.2127 171.1093,410.1899 171.5684,410.1218 172.0187,410.009 172.4558,409.8526 172.8754,409.6542 173.2735,409.4155 173.6463,409.139 173.9903,408.8273 174.302,408.4834 174.5785,408.1105 174.8171,407.7124 175.0156,407.2928 175.172,406.8557 175.2848,406.4055 175.3529,405.9463 175.3756,405.4827 175.3529,405.0191 175.2848,404.5599 175.172,404.1097 175.0156,403.6726 174.8171,403.253 174.5785,402.8549 174.302,402.482 173.9903,402.1381 173.6463,401.8264 173.2735,401.5499 172.8754,401.3112 172.4558,401.1128 172.0187,400.9564 171.5684,400.8436 171.1093,400.7755 170.6457,400.7527 170.1821,400.7755 169.7229,400.8436 169.2726,400.9564 168.8356,401.1128 168.416,401.3112 168.0178,401.5499 167.645,401.8264 167.3011,402.1381 166.9894,402.482 166.7128,402.8549 166.4742,403.253 166.2757,403.6726 166.1194,404.1097 166.0066,404.5599 165.9385,405.0191 165.9157,405.4827 165.9385,405.9463 166.0066,406.4055"/>
    <polygon points="136.0942,389.7153 137.1361,390.0881 138.2096,390.357 139.3042,390.5194 140.4094,390.5737 141.5147,390.5194 142.6093,390.357 143.6828,390.0881 144.7247,389.7153 145.7251,389.2422 146.6742,388.6733 147.5631,388.0141 148.383,387.2709 149.1262,386.451 149.7854,385.5621 150.3543,384.613 150.8274,383.6126 151.2002,382.5707 151.4691,381.4973 151.6315,380.4026 151.6858,379.2974 151.6315,378.1921 151.4691,377.0975 151.2002,376.024 150.8274,374.9821 150.3543,373.9818 149.7854,373.0326 149.1262,372.1438 148.383,371.3238 147.5631,370.5807 146.6742,369.9215 145.7251,369.3526 144.7247,368.8794 143.6828,368.5066 142.6093,368.2377 141.5147,368.0754 140.4094,368.0211 139.3042,368.0754 138.2096,368.2377 137.1361,368.5066 136.0942,368.8794 135.0938,369.3526 134.1447,369.9215 133.2558,370.5807 132.4359,371.3238 131.6927,372.1438 131.0335,373.0326 130.4646,373.9818 129.9915,374.9821 129.6187,376.024 129.3498,377.0975 129.1874,378.1921 129.1331,379.2974 129.1874,380.4026 129.3498,381.4973 129.6187,382.5707 129.9915,383.6126 130.4646,384.613 131.0335,385.5621 131.6927,386.451 132.4359,387.2709 133.2558,388.0141 134.1447,388.6733 135.0938,389.2422"/>
    <polygon points="136.1663,403.6436 136.6299,403.6663 137.0935,403.6436 137.5527,403.5755 138.003,403.4627 138.44,403.3063 138.8596,403.1078 139.2578,402.8692 139.6306,402.5927 139.9745,402.281 140.2862,401.937 140.5627,401.5642 140.8014,401.1661 140.9998,400.7465 141.1562,400.3094 141.269,399.8591 141.3371,399.4 141.3599,398.9364 141.3371,398.4728 141.269,398.0136 141.1562,397.5633 140.9998,397.1263 140.8014,396.7067 140.5627,396.3085 140.2862,395.9357 139.9745,395.5918 139.6306,395.2801 139.2578,395.0035 138.8596,394.7649 138.44,394.5664 138.003,394.4101 137.5527,394.2973 137.0935,394.2292 136.6299,394.2064 136.1663,394.2292 135.7071,394.2973 135.2569,394.4101 134.8198,394.5664 134.4002,394.7649 134.0021,395.0035 133.6293,395.2801 133.2853,395.5918 132.9736,395.9357 132.6971,396.3085 132.4585,396.7067 132.26,397.1263 132.1036,397.5633 131.9908,398.0136 131.9227,398.4728 131.8999,398.9364 131.9227,399.4 131.9908,399.8591 132.1036,400.3094 132.26,400.7465 132.4585,401.1661 132.6971,401.5642 132.9736,401.937 133.2853,402.281 133.6293,402.5927 134.0021,402.8692 134.4002,403.1078 134.8198,403.3063 135.2569,403.4627 135.7071,403.5755"/>
    <polygon points="121.635,402.482 121.3585,402.8549 121.1199,403.253 120.9214,403.6726 120.765,404.1097 120.6523,404.5599 120.5841,405.0191 120.5614,405.4827 120.5841,405.9463 120.6523,406.4055 120.765,406.8557 120.9214,407.2928 121.1199,407.7124 121.3585,408.1105 121.635,408.4834 121.9467,408.8273 122.2907,409.139 122.6635,409.4155 123.0616,409.6542 123.4813,409.8526 123.9183,410.009 124.3686,410.1218 124.8277,410.1899 125.2913,410.2127 125.755,410.1899 126.2141,410.1218 126.6644,410.009 127.1014,409.8526 127.521,409.6542 127.9192,409.4155 128.292,409.139 128.6359,408.8273 128.9477,408.4834 129.2242,408.1105 129.4628,407.7124 129.6613,407.2928 129.8176,406.8557 129.9304,406.4055 129.9985,405.9463 130.0213,405.4827 129.9985,405.0191 129.9304,404.5599 129.8176,404.1097 129.6613,403.6726 129.4628,403.253 129.2242,402.8549 128.9477,402.482 128.6359,402.1381 128.292,401.8264 127.9192,401.5499 127.521,401.3112 127.1014,401.1128 126.6644,400.9564 126.2141,400.8436 125.755,400.7755 125.2913,400.7527 124.8277,400.7755 124.3686,400.8436 123.9183,400.9564 123.4813,401.1128 123.0616,401.3112 122.6635,401.5499 122.2907,401.8264 121.9467,402.1381"/>
    <polygon points="120.5614,392.39 120.5841,392.8537 120.6523,393.3128 120.765,393.7631 120.9214,394.2001 121.1199,394.6197 121.3585,395.0179 121.635,395.3907 121.9467,395.7346 122.2907,396.0464 122.6635,396.3229 123.0616,396.5615 123.4813,396.76 123.9183,396.9163 124.3686,397.0291 124.8277,397.0972 125.2913,397.12 125.755,397.0972 126.2141,397.0291 126.6644,396.9163 127.1014,396.76 127.521,396.5615 127.9192,396.3229 128.292,396.0464 128.6359,395.7346 128.9477,395.3907 129.2242,395.0179 129.4628,394.6197 129.6613,394.2001 129.8176,393.7631 129.9304,393.3128 129.9985,392.8537 130.0213,392.39 129.9985,391.9264 129.9304,391.4673 129.8176,391.017 129.6613,390.58 129.4628,390.1603 129.2242,389.7622 128.9477,389.3894 128.6359,389.0454 128.292,388.7337 127.9192,388.4572 127.521,388.2186 127.1014,388.0201 126.6644,387.8637 126.2141,387.7509 125.755,387.6828 125.2913,387.6601 124.8277,387.6828 124.3686,387.7509 123.9183,387.8637 123.4813,388.0201 123.0616,388.2186 122.6635,388.4572 122.2907,388.7337 121.9467,389.0454 121.635,389.3894 121.3585,389.7622 121.1199,390.1603 120.9214,390.58 120.765,391.017 120.6523,391.4673 120.5841,391.9264"/>
    <polygon points="97.8842,379.2974 97.907,379.761 97.9751,380.2201 98.0879,380.6704 98.2442,381.1075 98.4427,381.5271 98.6813,381.9252 98.9579,382.298 99.2696,382.642 99.6135,382.9537 99.9863,383.2302 100.3845,383.4688 100.8041,383.6673 101.2411,383.8237 101.6914,383.9365 102.1506,384.0046 102.6142,384.0273 103.0778,384.0046 103.5369,383.9365 103.9872,383.8237 104.4243,383.6673 104.8439,383.4688 105.242,383.2302 105.6148,382.9537 105.9588,382.642 106.2705,382.298 106.547,381.9252 106.7856,381.5271 106.9841,381.1075 107.1405,380.6704 107.2533,380.2201 107.3214,379.761 107.3441,379.2974 107.3214,378.8338 107.2533,378.3746 107.1405,377.9243 106.9841,377.4873 106.7856,377.0677 106.547,376.6695 106.2705,376.2967 105.9588,375.9528 105.6148,375.6411 105.242,375.3645 104.8439,375.1259 104.4243,374.9274 103.9872,374.7711 103.5369,374.6583 103.0778,374.5902 102.6142,374.5674 102.1506,374.5902 101.6914,374.6583 101.2411,374.7711 100.8041,374.9274 100.3845,375.1259 99.9863,375.3645 99.6135,375.6411 99.2696,375.9528 98.9579,376.2967 98.6813,376.6695 98.4427,377.0677 98.2442,377.4873 98.0879,377.9243 97.9751,378.3746 97.907,378.8338"/>
    <polygon points="117.7323,354.9284 118.8376,354.9827 119.9322,355.1451 121.0056,355.4139 122.0475,355.7868 123.0479,356.2599 123.9971,356.8288 124.8859,357.488 125.7058,358.2311 126.449,359.0511 127.1082,359.9399 127.6771,360.8891 128.1502,361.8894 128.523,362.9314 128.7919,364.0048 128.9543,365.0994 129.0086,366.2047 128.9543,367.31 128.7919,368.4046 128.523,369.478 128.1502,370.52 127.6771,371.5203 127.1082,372.4695 126.449,373.3583 125.7058,374.1783 124.8859,374.9214 123.9971,375.5806 123.0479,376.1495 122.0475,376.6226 121.0056,376.9955 119.9322,377.2643 118.8376,377.4267 117.7323,377.481 116.627,377.4267 115.5324,377.2643 114.4589,376.9955 113.417,376.6226 112.4167,376.1495 111.4675,375.5806 110.5787,374.9214 109.7587,374.1783 109.0156,373.3583 108.3564,372.4695 107.7875,371.5203 107.3143,370.52 106.9415,369.478 106.6726,368.4046 106.5103,367.31 106.456,366.2047 106.5103,365.0994 106.6726,364.0048 106.9415,362.9314 107.3143,361.8894 107.7875,360.8891 108.3564,359.9399 109.0156,359.0511 109.7587,358.2311 110.5787,357.488 111.4675,356.8288 112.4167,356.2599 113.417,355.7868 114.4589,355.4139 115.5324,355.1451 116.627,354.9827"/>
    <polygon points="107.3214,352.6484 107.3441,353.112 107.3214,353.5757 107.2533,354.0348 107.1405,354.4851 106.9841,354.9221 106.7856,355.3417 106.547,355.7399 106.2705,356.1127 105.9588,356.4566 105.6148,356.7684 105.242,357.0449 104.8439,357.2835 104.4243,357.482 103.9872,357.6383 103.5369,357.7511 103.0778,357.8192 102.6142,357.842 102.1506,357.8192 101.6914,357.7511 101.2411,357.6383 100.8041,357.482 100.3845,357.2835 99.9863,357.0449 99.6135,356.7684 99.2696,356.4566 98.9579,356.1127 98.6813,355.7399 98.4427,355.3417 98.2442,354.9221 98.0879,354.4851 97.9751,354.0348 97.907,353.5757 97.8842,353.112 97.907,352.6484 97.9751,352.1893 98.0879,351.739 98.2442,351.302 98.4427,350.8823 98.6813,350.4842 98.9579,350.1114 99.2696,349.7674 99.6135,349.4557 99.9863,349.1792 100.3845,348.9406 100.8041,348.7421 101.2411,348.5857 101.6914,348.4729 102.1506,348.4048 102.6142,348.3821 103.0778,348.4048 103.5369,348.4729 103.9872,348.5857 104.4243,348.7421 104.8439,348.9406 105.242,349.1792 105.6148,349.4557 105.9588,349.7674 106.2705,350.1114 106.547,350.4842 106.7856,350.8823 106.9841,351.302 107.1405,351.739 107.2533,352.1893"/>
    <polygon points="94.9319,343.565 94.6202,343.2211 94.2763,342.9094 93.9034,342.6329 93.5053,342.3942 93.0857,342.1958 92.6486,342.0394 92.1984,341.9266 91.7392,341.8585 91.2756,341.8357 90.812,341.8585 90.3528,341.9266 89.9026,342.0394 89.4655,342.1958 89.0459,342.3942 88.6478,342.6329 88.2749,342.9094 87.931,343.2211 87.6193,343.565 87.3428,343.9379 87.1041,344.336 86.9057,344.7556 86.7493,345.1927 86.6365,345.6429 86.5684,346.1021 86.5456,346.5657 86.5684,347.0293 86.6365,347.4885 86.7493,347.9387 86.9057,348.3758 87.1041,348.7954 87.3428,349.1935 87.6193,349.5664 87.931,349.9103 88.2749,350.222 88.6478,350.4985 89.0459,350.7372 89.4655,350.9356 89.9026,351.092 90.3528,351.2048 90.812,351.2729 91.2756,351.2957 91.7392,351.2729 92.1984,351.2048 92.6486,351.092 93.0857,350.9356 93.5053,350.7372 93.9034,350.4985 94.2763,350.222 94.6202,349.9103 94.9319,349.5664 95.2084,349.1935 95.4471,348.7954 95.6455,348.3758 95.8019,347.9387 95.9147,347.4885 95.9828,347.0293 96.0056,346.5657 95.9828,346.1021 95.9147,345.6429 95.8019,345.1927 95.6455,344.7556 95.4471,344.336 95.2084,343.9379"/>
    <polygon points="93.2886,336.348 95.5402,337.1537 97.86,337.7348 100.2256,338.0857 102.6142,338.203 105.0028,338.0857 107.3683,337.7348 109.6881,337.1537 111.9398,336.348 114.1016,335.3255 116.1528,334.0961 118.0737,332.6715 119.8456,331.0655 121.4516,329.2935 122.8762,327.3727 124.1057,325.3215 125.1282,323.1596 125.9338,320.908 126.5149,318.5882 126.8658,316.2226 126.9831,313.834 126.8658,311.4455 126.5149,309.0799 125.9338,306.7601 125.1282,304.5084 124.1057,302.3466 122.8762,300.2954 121.4516,298.3745 119.8456,296.6026 118.0737,294.9966 116.1528,293.572 114.1016,292.3425 111.9398,291.32 109.6881,290.5144 107.3683,289.9333 105.0028,289.5824 102.6142,289.4651 100.2256,289.5824 97.86,289.9333 95.5402,290.5144 93.2886,291.32 91.1267,292.3425 89.0755,293.572 87.1547,294.9966 85.3827,296.6026 83.7767,298.3745 82.3521,300.2954 81.1227,302.3466 80.1002,304.5084 79.2945,306.7601 78.7134,309.0799 78.3625,311.4455 78.2452,313.834 78.3625,316.2226 78.7134,318.5882 79.2945,320.908 80.1002,323.1596 81.1227,325.3215 82.3521,327.3727 83.7767,329.2935 85.3827,331.0655 87.1547,332.6715 89.0755,334.0961 91.1267,335.3255"/>
    <polygon points="83.2816,349.7674 82.9377,349.4557 82.5648,349.1792 82.1667,348.9406 81.7471,348.7421 81.31,348.5857 80.8598,348.4729 80.4006,348.4048 79.937,348.3821 79.4734,348.4048 79.0142,348.4729 78.564,348.5857 78.1269,348.7421 77.7073,348.9406 77.3092,349.1792 76.9363,349.4557 76.5924,349.7674 76.2807,350.1114 76.0042,350.4842 75.7655,350.8823 75.5671,351.302 75.4107,351.739 75.2979,352.1893 75.2298,352.6484 75.207,353.112 75.2298,353.5757 75.2979,354.0348 75.4107,354.4851 75.5671,354.9221 75.7655,355.3417 76.0042,355.7399 76.2807,356.1127 76.5924,356.4566 76.9363,356.7684 77.3092,357.0449 77.7073,357.2835 78.1269,357.482 78.564,357.6383 79.0142,357.7511 79.4734,357.8192 79.937,357.842 80.4006,357.8192 80.8598,357.7511 81.31,357.6383 81.7471,357.482 82.1667,357.2835 82.5648,357.0449 82.9377,356.7684 83.2816,356.4566 83.5933,356.1127 83.8698,355.7399 84.1085,355.3417 84.3069,354.9221 84.4633,354.4851 84.5761,354.0348 84.6442,353.5757 84.667,353.112 84.6442,352.6484 84.5761,352.1893 84.4633,351.739 84.3069,351.302 84.1085,350.8823 83.8698,350.4842 83.5933,350.1114"/>
    <polygon points="59.4895,304.9128 59.8877,304.6742 60.2605,304.3977 60.6044,304.086 60.9162,303.742 61.1927,303.3692 61.4313,302.9711 61.6298,302.5514 61.7861,302.1144 61.8989,301.6641 61.967,301.205 61.9898,300.7414 61.967,300.2777 61.8989,299.8186 61.7861,299.3683 61.6298,298.9313 61.4313,298.5117 61.1927,298.1135 60.9162,297.7407 60.6044,297.3968 60.2605,297.085 59.8877,296.8085 59.4895,296.5699 59.0699,296.3714 58.6329,296.2151 58.1826,296.1023 57.7235,296.0342 57.2598,296.0114 56.7962,296.0342 56.3371,296.1023 55.8868,296.2151 55.4498,296.3714 55.0301,296.5699 54.632,296.8085 54.2592,297.085 53.9152,297.3968 53.6035,297.7407 53.327,298.1135 53.0884,298.5117 52.8899,298.9313 52.7335,299.3683 52.6208,299.8186 52.5526,300.2777 52.5299,300.7414 52.5526,301.205 52.6208,301.6641 52.7335,302.1144 52.8899,302.5514 53.0884,302.9711 53.327,303.3692 53.6035,303.742 53.9152,304.086 54.2592,304.3977 54.632,304.6742 55.0301,304.9128 55.4498,305.1113 55.8868,305.2677 56.3371,305.3805 56.7962,305.4486 57.2598,305.4713 57.7235,305.4486 58.1826,305.3805 58.6329,305.2677 59.0699,305.1113"/>
    <polygon points="49.2659,303.9431 48.9219,303.6314 48.5491,303.3549 48.151,303.1162 47.7313,302.9178 47.2943,302.7614 46.844,302.6486 46.3849,302.5805 45.9213,302.5577 45.4576,302.5805 44.9985,302.6486 44.5482,302.7614 44.1112,302.9178 43.6916,303.1162 43.2934,303.3549 42.9206,303.6314 42.5767,303.9431 42.2649,304.287 41.9884,304.6599 41.7498,305.058 41.5513,305.4776 41.395,305.9147 41.2822,306.3649 41.2141,306.8241 41.1913,307.2877 41.2141,307.7513 41.2822,308.2105 41.395,308.6607 41.5513,309.0978 41.7498,309.5174 41.9884,309.9155 42.2649,310.2884 42.5767,310.6323 42.9206,310.944 43.2934,311.2205 43.6916,311.4592 44.1112,311.6576 44.5482,311.814 44.9985,311.9268 45.4576,311.9949 45.9213,312.0177 46.3849,311.9949 46.844,311.9268 47.2943,311.814 47.7313,311.6576 48.151,311.4592 48.5491,311.2205 48.9219,310.944 49.2659,310.6323 49.5776,310.2884 49.8541,309.9155 50.0927,309.5174 50.2912,309.0978 50.4476,308.6607 50.5603,308.2105 50.6285,307.7513 50.6512,307.2877 50.6285,306.8241 50.5603,306.3649 50.4476,305.9147 50.2912,305.4776 50.0927,305.058 49.8541,304.6599 49.5776,304.287"/>
    <polygon points="35.5054,309.1949 35.0463,309.1268 34.5827,309.1041 34.1191,309.1268 33.6599,309.1949 33.2096,309.3077 32.7726,309.4641 32.353,309.6626 31.9548,309.9012 31.582,310.1777 31.2381,310.4894 30.9264,310.8334 30.6498,311.2062 30.4112,311.6043 30.2128,312.0239 30.0564,312.461 29.9436,312.9113 29.8755,313.3704 29.8527,313.834 29.8755,314.2976 29.9436,314.7568 30.0564,315.2071 30.2128,315.6441 30.4112,316.0637 30.6498,316.4619 30.9264,316.8347 31.2381,317.1786 31.582,317.4903 31.9548,317.7669 32.353,318.0055 32.7726,318.204 33.2096,318.3603 33.6599,318.4731 34.1191,318.5412 34.5827,318.564 35.0463,318.5412 35.5054,318.4731 35.9557,318.3603 36.3928,318.204 36.8124,318.0055 37.2105,317.7669 37.5833,317.4903 37.9273,317.1786 38.239,316.8347 38.5155,316.4619 38.7541,316.0637 38.9526,315.6441 39.109,315.2071 39.2218,314.7568 39.2899,314.2976 39.3126,313.834 39.2899,313.3704 39.2218,312.9113 39.109,312.461 38.9526,312.0239 38.7541,311.6043 38.5155,311.2062 38.239,310.8334 37.9273,310.4894 37.5833,310.1777 37.2105,309.9012 36.8124,309.6626 36.3928,309.4641 35.9557,309.3077"/>
    <polygon points="56.3371,269.9169 55.8868,270.0297 55.4498,270.1861 55.0301,270.3846 54.632,270.6232 54.2592,270.8997 53.9152,271.2114 53.6035,271.5554 53.327,271.9282 53.0884,272.3263 52.8899,272.7459 52.7335,273.183 52.6208,273.6333 52.5526,274.0924 52.5299,274.556 52.5526,275.0196 52.6208,275.4788 52.7335,275.9291 52.8899,276.3661 53.0884,276.7857 53.327,277.1839 53.6035,277.5567 53.9152,277.9006 54.2592,278.2123 54.632,278.4889 55.0301,278.7275 55.4498,278.926 55.8868,279.0823 56.3371,279.1951 56.7962,279.2632 57.2598,279.286 57.7235,279.2632 58.1826,279.1951 58.6329,279.0823 59.0699,278.926 59.4895,278.7275 59.8877,278.4889 60.2605,278.2123 60.6044,277.9006 60.9162,277.5567 61.1927,277.1839 61.4313,276.7857 61.6298,276.3661 61.7861,275.9291 61.8989,275.4788 61.967,275.0196 61.9898,274.556 61.967,274.0924 61.8989,273.6333 61.7861,273.183 61.6298,272.7459 61.4313,272.3263 61.1927,271.9282 60.9162,271.5554 60.6044,271.2114 60.2605,270.8997 59.8877,270.6232 59.4895,270.3846 59.0699,270.1861 58.6329,270.0297 58.1826,269.9169 57.7235,269.8488 57.2598,269.8261 56.7962,269.8488"/>
    <polygon points="61.5872,258.19 61.3183,259.2635 61.1559,260.3581 61.1016,261.4634 61.1559,262.5686 61.3183,263.6633 61.5872,264.7367 61.96,265.7786 62.4331,266.779 63.002,267.7281 63.6613,268.617 64.4044,269.4369 65.2243,270.1801 66.1132,270.8393 67.0623,271.4082 68.0627,271.8813 69.1046,272.2541 70.1781,272.523 71.2727,272.6854 72.378,272.7397 73.4832,272.6854 74.5779,272.523 75.6513,272.2541 76.6932,271.8813 77.6936,271.4082 78.6427,270.8393 79.5316,270.1801 80.3515,269.4369 81.0947,268.617 81.7539,267.7281 82.3228,266.779 82.7959,265.7786 83.1687,264.7367 83.4376,263.6633 83.6,262.5686 83.6543,261.4634 83.6,260.3581 83.4376,259.2635 83.1687,258.19 82.7959,257.1481 82.3228,256.1477 81.7539,255.1986 81.0947,254.3097 80.3515,253.4898 79.5316,252.7467 78.6427,252.0875 77.6936,251.5185 76.6932,251.0454 75.6513,250.6726 74.5779,250.4037 73.4832,250.2414 72.378,250.1871 71.2727,250.2414 70.1781,250.4037 69.1046,250.6726 68.0627,251.0454 67.0623,251.5185 66.1132,252.0875 65.2243,252.7467 64.4044,253.4898 63.6613,254.3097 63.002,255.1986 62.4331,256.1477 61.96,257.1481"/>
    <polygon points="52.6208,247.4479 52.5526,247.9071 52.5299,248.3707 52.5526,248.8343 52.6208,249.2935 52.7335,249.7437 52.8899,250.1808 53.0884,250.6004 53.327,250.9985 53.6035,251.3714 53.9152,251.7153 54.2592,252.027 54.632,252.3035 55.0301,252.5422 55.4498,252.7406 55.8868,252.897 56.3371,253.0098 56.7962,253.0779 57.2598,253.1007 57.7235,253.0779 58.1826,253.0098 58.6329,252.897 59.0699,252.7406 59.4895,252.5422 59.8877,252.3035 60.2605,252.027 60.6044,251.7153 60.9162,251.3714 61.1927,250.9985 61.4313,250.6004 61.6298,250.1808 61.7861,249.7437 61.8989,249.2935 61.967,248.8343 61.9898,248.3707 61.967,247.9071 61.8989,247.4479 61.7861,246.9977 61.6298,246.5606 61.4313,246.141 61.1927,245.7429 60.9162,245.37 60.6044,245.0261 60.2605,244.7144 59.8877,244.4379 59.4895,244.1992 59.0699,244.0008 58.6329,243.8444 58.1826,243.7316 57.7235,243.6635 57.2598,243.6407 56.7962,243.6635 56.3371,243.7316 55.8868,243.8444 55.4498,244.0008 55.0301,244.1992 54.632,244.4379 54.2592,244.7144 53.9152,245.0261 53.6035,245.37 53.327,245.7429 53.0884,246.141 52.8899,246.5606 52.7335,246.9977"/>
    <polygon points="65.2538,232.0763 65.5978,232.388 65.9706,232.6645 66.3687,232.9032 66.7883,233.1016 67.2254,233.258 67.6757,233.3708 68.1348,233.4389 68.5984,233.4617 69.062,233.4389 69.5212,233.3708 69.9715,233.258 70.4085,233.1016 70.8281,232.9032 71.2263,232.6645 71.5991,232.388 71.943,232.0763 72.2547,231.7324 72.5313,231.3595 72.7699,230.9614 72.9684,230.5418 73.1247,230.1047 73.2375,229.6545 73.3056,229.1953 73.3284,228.7317 73.3056,228.2681 73.2375,227.8089 73.1247,227.3587 72.9684,226.9216 72.7699,226.502 72.5313,226.1039 72.2547,225.731 71.943,225.3871 71.5991,225.0754 71.2263,224.7989 70.8281,224.5602 70.4085,224.3618 69.9715,224.2054 69.5212,224.0926 69.062,224.0245 68.5984,224.0017 68.1348,224.0245 67.6757,224.0926 67.2254,224.2054 66.7883,224.3618 66.3687,224.5602 65.9706,224.7989 65.5978,225.0754 65.2538,225.3871 64.9421,225.731 64.6656,226.1039 64.427,226.502 64.2285,226.9216 64.0721,227.3587 63.9593,227.8089 63.8912,228.2681 63.8685,228.7317 63.8912,229.1953 63.9593,229.6545 64.0721,230.1047 64.2285,230.5418 64.427,230.9614 64.6656,231.3595 64.9421,231.7324"/>
    <polygon points="72.5313,239.1965 72.2547,238.8237 71.943,238.4798 71.5991,238.168 71.2263,237.8915 70.8281,237.6529 70.4085,237.4544 69.9715,237.2981 69.5212,237.1853 69.062,237.1172 68.5984,237.0944 68.1348,237.1172 67.6757,237.1853 67.2254,237.2981 66.7883,237.4544 66.3687,237.6529 65.9706,237.8915 65.5978,238.168 65.2538,238.4798 64.9421,238.8237 64.6656,239.1965 64.427,239.5947 64.2285,240.0143 64.0721,240.4513 63.9593,240.9016 63.8912,241.3607 63.8685,241.8244 63.8912,242.288 63.9593,242.7471 64.0721,243.1974 64.2285,243.6344 64.427,244.0541 64.6656,244.4522 64.9421,244.825 65.2538,245.169 65.5978,245.4807 65.9706,245.7572 66.3687,245.9958 66.7883,246.1943 67.2254,246.3507 67.6757,246.4634 68.1348,246.5316 68.5984,246.5543 69.062,246.5316 69.5212,246.4634 69.9715,246.3507 70.4085,246.1943 70.8281,245.9958 71.2263,245.7572 71.5991,245.4807 71.943,245.169 72.2547,244.825 72.5313,244.4522 72.7699,244.0541 72.9684,243.6344 73.1247,243.1974 73.2375,242.7471 73.3056,242.288 73.3284,241.8244 73.3056,241.3607 73.2375,240.9016 73.1247,240.4513 72.9684,240.0143 72.7699,239.5947"/>
    <polygon points="86.7493,256.2901 86.9057,256.7271 87.1041,257.1467 87.3428,257.5449 87.6193,257.9177 87.931,258.2616 88.2749,258.5733 88.6478,258.8499 89.0459,259.0885 89.4655,259.287 89.9026,259.4433 90.3528,259.5561 90.812,259.6242 91.2756,259.647 91.7392,259.6242 92.1984,259.5561 92.6486,259.4433 93.0857,259.287 93.5053,259.0885 93.9034,258.8499 94.2763,258.5733 94.6202,258.2616 94.9319,257.9177 95.2084,257.5449 95.4471,257.1467 95.6455,256.7271 95.8019,256.2901 95.9147,255.8398 95.9828,255.3806 96.0056,254.917 95.9828,254.4534 95.9147,253.9943 95.8019,253.544 95.6455,253.1069 95.4471,252.6873 95.2084,252.2892 94.9319,251.9164 94.6202,251.5724 94.2763,251.2607 93.9034,250.9842 93.5053,250.7456 93.0857,250.5471 92.6486,250.3907 92.1984,250.2779 91.7392,250.2098 91.2756,250.1871 90.812,250.2098 90.3528,250.2779 89.9026,250.3907 89.4655,250.5471 89.0459,250.7456 88.6478,250.9842 88.2749,251.2607 87.931,251.5724 87.6193,251.9164 87.3428,252.2892 87.1041,252.6873 86.9057,253.1069 86.7493,253.544 86.6365,253.9943 86.5684,254.4534 86.5456,254.917 86.5684,255.3806 86.6365,255.8398"/>
    <polygon points="68.0627,277.2307 69.1046,276.8579 70.1781,276.5891 71.2727,276.4267 72.378,276.3724 73.4832,276.4267 74.5779,276.5891 75.6513,276.8579 76.6932,277.2307 77.6936,277.7039 78.6427,278.2728 79.5316,278.932 80.3515,279.6751 81.0947,280.4951 81.7539,281.3839 82.3228,282.3331 82.7959,283.3334 83.1687,284.3754 83.4376,285.4488 83.6,286.5434 83.6543,287.6487 83.6,288.754 83.4376,289.8486 83.1687,290.922 82.7959,291.964 82.3228,292.9643 81.7539,293.9135 81.0947,294.8023 80.3515,295.6222 79.5316,296.3654 78.6427,297.0246 77.6936,297.5935 76.6932,298.0666 75.6513,298.4394 74.5779,298.7083 73.4832,298.8707 72.378,298.925 71.2727,298.8707 70.1781,298.7083 69.1046,298.4394 68.0627,298.0666 67.0623,297.5935 66.1132,297.0246 65.2243,296.3654 64.4044,295.6222 63.6613,294.8023 63.002,293.9135 62.4331,292.9643 61.96,291.964 61.5872,290.922 61.3183,289.8486 61.1559,288.754 61.1016,287.6487 61.1559,286.5434 61.3183,285.4488 61.5872,284.3754 61.96,283.3334 62.4331,282.3331 63.002,281.3839 63.6613,280.4951 64.4044,279.6751 65.2243,278.932 66.1132,278.2728 67.0623,277.7039"/>
    <polygon points="84.2644,271.2827 84.6372,270.2408 85.1103,269.2404 85.6792,268.2912 86.3384,267.4024 87.0816,266.5825 87.9015,265.8393 88.7903,265.1801 89.7395,264.6112 90.7399,264.1381 91.7818,263.7653 92.8552,263.4964 93.9498,263.334 95.0551,263.2797 96.1604,263.334 97.255,263.4964 98.3285,263.7653 99.3704,264.1381 100.3707,264.6112 101.3199,265.1801 102.2087,265.8393 103.0287,266.5825 103.7718,267.4024 104.431,268.2912 104.9999,269.2404 105.4731,270.2408 105.8459,271.2827 106.1148,272.3561 106.2771,273.4508 106.3314,274.556 106.2771,275.6613 106.1148,276.7559 105.8459,277.8294 105.4731,278.8713 104.9999,279.8716 104.431,280.8208 103.7718,281.7096 103.0287,282.5296 102.2087,283.2727 101.3199,283.9319 100.3707,284.5008 99.3704,284.974 98.3285,285.3468 97.255,285.6157 96.1604,285.778 95.0551,285.8323 93.9498,285.778 92.8552,285.6157 91.7818,285.3468 90.7399,284.974 89.7395,284.5008 88.7903,283.9319 87.9015,283.2727 87.0816,282.5296 86.3384,281.7096 85.6792,280.8208 85.1103,279.8716 84.6372,278.8713 84.2644,277.8294 83.9955,276.7559 83.8331,275.6613 83.7788,274.556 83.8331,273.4508 83.9955,272.3561"/>
    <polygon points="132.509,268.8112 130.737,270.4172 129.131,272.1892 127.7064,274.11 126.477,276.1612 125.4545,278.3231 124.6488,280.5748 124.0678,282.8945 123.7169,285.2601 123.5995,287.6487 123.7169,290.0373 124.0678,292.4028 124.6488,294.7226 125.4545,296.9743 126.477,299.1362 127.7064,301.1874 129.131,303.1082 130.737,304.8802 132.509,306.4862 134.4298,307.9108 136.481,309.1402 138.6429,310.1627 140.8946,310.9684 143.2144,311.5494 145.5799,311.9003 147.9685,312.0177 150.3571,311.9003 152.7227,311.5494 155.0424,310.9684 157.2941,310.1627 159.456,309.1402 161.5072,307.9108 163.428,306.4862 165.2,304.8802 166.806,303.1082 168.2306,301.1874 169.46,299.1362 170.4825,296.9743 171.2882,294.7226 171.8692,292.4028 172.2201,290.0373 172.3375,287.6487 172.2201,285.2601 171.8692,282.8945 171.2882,280.5748 170.4825,278.3231 169.46,276.1612 168.2306,274.11 166.806,272.1892 165.2,270.4172 163.428,268.8112 161.5072,267.3866 159.456,266.1572 157.2941,265.1347 155.0424,264.329 152.7227,263.748 150.3571,263.3971 147.9685,263.2797 145.5799,263.3971 143.2144,263.748 140.8946,264.329 138.6429,265.1347 136.481,266.1572 134.4298,267.3866"/>
    <polygon points="167.4019,245.696 168.4022,245.2228 169.3514,244.6539 170.2402,243.9947 171.0602,243.2516 171.8033,242.4316 172.4625,241.5428 173.0314,240.5936 173.5046,239.5933 173.8774,238.5514 174.1462,237.4779 174.3086,236.3833 174.3629,235.278 174.3086,234.1728 174.1462,233.0781 173.8774,232.0047 173.5046,230.9628 173.0314,229.9624 172.4625,229.0132 171.8033,228.1244 171.0602,227.3045 170.2402,226.5613 169.3514,225.9021 168.4022,225.3332 167.4019,224.8601 166.36,224.4873 165.2865,224.2184 164.1919,224.056 163.0866,224.0017 161.9813,224.056 160.8867,224.2184 159.8133,224.4873 158.7714,224.8601 157.771,225.3332 156.8218,225.9021 155.933,226.5613 155.1131,227.3045 154.3699,228.1244 153.7107,229.0132 153.1418,229.9624 152.6687,230.9628 152.2959,232.0047 152.027,233.0781 151.8646,234.1728 151.8103,235.278 151.8646,236.3833 152.027,237.4779 152.2959,238.5514 152.6687,239.5933 153.1418,240.5936 153.7107,241.5428 154.3699,242.4316 155.1131,243.2516 155.933,243.9947 156.8218,244.6539 157.771,245.2228 158.7714,245.696 159.8133,246.0688 160.8867,246.3377 161.9813,246.5 163.0866,246.5543 164.1919,246.5 165.2865,246.3377 166.36,246.0688"/>
    <polygon points="152.14,224.4151 152.3384,223.9954 152.4948,223.5584 152.6076,223.1081 152.6757,222.649 152.6985,222.1854 152.6757,221.7217 152.6076,221.2626 152.4948,220.8123 152.3384,220.3753 152.14,219.9557 151.9013,219.5575 151.6248,219.1847 151.3131,218.8408 150.9692,218.529 150.5963,218.2525 150.1982,218.0139 149.7786,217.8154 149.3415,217.6591 148.8913,217.5463 148.4321,217.4782 147.9685,217.4554 147.5049,217.4782 147.0457,217.5463 146.5955,217.6591 146.1584,217.8154 145.7388,218.0139 145.3407,218.2525 144.9678,218.529 144.6239,218.8408 144.3122,219.1847 144.0357,219.5575 143.797,219.9557 143.5986,220.3753 143.4422,220.8123 143.3294,221.2626 143.2613,221.7217 143.2385,222.1854 143.2613,222.649 143.3294,223.1081 143.4422,223.5584 143.5986,223.9954 143.797,224.4151 144.0357,224.8132 144.3122,225.186 144.6239,225.53 144.9678,225.8417 145.3407,226.1182 145.7388,226.3568 146.1584,226.5553 146.5955,226.7117 147.0457,226.8244 147.5049,226.8926 147.9685,226.9153 148.4321,226.8926 148.8913,226.8244 149.3415,226.7117 149.7786,226.5553 150.1982,226.3568 150.5963,226.1182 150.9692,225.8417 151.3131,225.53 151.6248,225.186 151.9013,224.8132"/>
    <polygon points="174.7041,219.9855 174.973,218.912 175.3458,217.8701 175.819,216.8697 176.3879,215.9206 177.0471,215.0317 177.7902,214.2118 178.6102,213.4687 179.499,212.8095 180.4482,212.2405 181.4485,211.7674 182.4904,211.3946 183.5639,211.1257 184.6585,210.9634 185.7638,210.9091 186.8691,210.9634 187.9637,211.1257 189.0371,211.3946 190.079,211.7674 191.0794,212.2405 192.0286,212.8095 192.9174,213.4687 193.7373,214.2118 194.4805,215.0317 195.1397,215.9206 195.7086,216.8697 196.1817,217.8701 196.5545,218.912 196.8234,219.9855 196.9858,221.0801 197.0401,222.1854 196.9858,223.2906 196.8234,224.3853 196.5545,225.4587 196.1817,226.5006 195.7086,227.501 195.1397,228.4501 194.4805,229.339 193.7373,230.1589 192.9174,230.9021 192.0286,231.5613 191.0794,232.1302 190.079,232.6033 189.0371,232.9761 187.9637,233.245 186.8691,233.4074 185.7638,233.4617 184.6585,233.4074 183.5639,233.245 182.4904,232.9761 181.4485,232.6033 180.4482,232.1302 179.499,231.5613 178.6102,230.9021 177.7902,230.1589 177.0471,229.339 176.3879,228.4501 175.819,227.501 175.3458,226.5006 174.973,225.4587 174.7041,224.3853 174.5418,223.2906 174.4875,222.1854 174.5418,221.0801"/>
    <polygon points="181.9843,197.8164 182.4479,197.8392 182.907,197.9073 183.3573,198.0201 183.7943,198.1764 184.2139,198.3749 184.6121,198.6135 184.9849,198.89 185.3288,199.2018 185.6406,199.5457 185.9171,199.9185 186.1557,200.3167 186.3542,200.7363 186.5106,201.1733 186.6233,201.6236 186.6914,202.0827 186.7142,202.5464 186.6914,203.01 186.6233,203.4691 186.5106,203.9194 186.3542,204.3564 186.1557,204.7761 185.9171,205.1742 185.6406,205.547 185.3288,205.891 184.9849,206.2027 184.6121,206.4792 184.2139,206.7178 183.7943,206.9163 183.3573,207.0727 182.907,207.1854 182.4479,207.2536 181.9843,207.2763 181.5206,207.2536 181.0615,207.1854 180.6112,207.0727 180.1742,206.9163 179.7546,206.7178 179.3564,206.4792 178.9836,206.2027 178.6397,205.891 178.3279,205.547 178.0514,205.1742 177.8128,204.7761 177.6143,204.3564 177.458,203.9194 177.3452,203.4691 177.2771,203.01 177.2543,202.5464 177.2771,202.0827 177.3452,201.6236 177.458,201.1733 177.6143,200.7363 177.8128,200.3167 178.0514,199.9185 178.3279,199.5457 178.6397,199.2018 178.9836,198.89 179.3564,198.6135 179.7546,198.3749 180.1742,198.1764 180.6112,198.0201 181.0615,197.9073 181.5206,197.8392"/>
    <polygon points="186.6233,177.2838 186.5106,177.7341 186.3542,178.1711 186.1557,178.5907 185.9171,178.9889 185.6406,179.3617 185.3288,179.7056 184.9849,180.0173 184.6121,180.2939 184.2139,180.5325 183.7943,180.7309 183.3573,180.8873 182.907,181.0001 182.4479,181.0682 181.9843,181.091 181.5206,181.0682 181.0615,181.0001 180.6112,180.8873 180.1742,180.7309 179.7546,180.5325 179.3564,180.2939 178.9836,180.0173 178.6397,179.7056 178.3279,179.3617 178.0514,178.9889 177.8128,178.5907 177.6143,178.1711 177.458,177.7341 177.3452,177.2838 177.2771,176.8246 177.2543,176.361 177.2771,175.8974 177.3452,175.4383 177.458,174.988 177.6143,174.5509 177.8128,174.1313 178.0514,173.7332 178.3279,173.3604 178.6397,173.0164 178.9836,172.7047 179.3564,172.4282 179.7546,172.1896 180.1742,171.9911 180.6112,171.8347 181.0615,171.7219 181.5206,171.6538 181.9843,171.631 182.4479,171.6538 182.907,171.7219 183.3573,171.8347 183.7943,171.9911 184.2139,172.1896 184.6121,172.4282 184.9849,172.7047 185.3288,173.0164 185.6406,173.3604 185.9171,173.7332 186.1557,174.1313 186.3542,174.5509 186.5106,174.988 186.6233,175.4383 186.6914,175.8974 186.7142,176.361 186.6914,176.8246"/>
    <polygon points="162.6517,153.5203 162.3077,153.832 161.9349,154.1085 161.5368,154.3472 161.1172,154.5456 160.6801,154.702 160.2299,154.8148 159.7707,154.8829 159.3071,154.9057 158.8435,154.8829 158.3843,154.8148 157.934,154.702 157.497,154.5456 157.0774,154.3472 156.6793,154.1085 156.3064,153.832 155.9625,153.5203 155.6508,153.1763 155.3743,152.8035 155.1356,152.4054 154.9372,151.9858 154.7808,151.5487 154.668,151.0985 154.5999,150.6393 154.5771,150.1757 154.5999,149.7121 154.668,149.2529 154.7808,148.8026 154.9372,148.3656 155.1356,147.946 155.3743,147.5479 155.6508,147.175 155.9625,146.8311 156.3064,146.5194 156.6793,146.2429 157.0774,146.0042 157.497,145.8058 157.934,145.6494 158.3843,145.5366 158.8435,145.4685 159.3071,145.4457 159.7707,145.4685 160.2299,145.5366 160.6801,145.6494 161.1172,145.8058 161.5368,146.0042 161.9349,146.2429 162.3077,146.5194 162.6517,146.8311 162.9634,147.175 163.2399,147.5479 163.4786,147.946 163.677,148.3656 163.8334,148.8026 163.9462,149.2529 164.0143,149.7121 164.0371,150.1757 164.0143,150.6393 163.9462,151.0985 163.8334,151.5487 163.677,151.9858 163.4786,152.4054 163.2399,152.8035 162.9634,153.1763"/>
    <polygon points="155.3743,160.6405 155.6508,160.2677 155.9625,159.9238 156.3064,159.612 156.6793,159.3355 157.0774,159.0969 157.497,158.8984 157.934,158.7421 158.3843,158.6293 158.8435,158.5612 159.3071,158.5384 159.7707,158.5612 160.2299,158.6293 160.6801,158.7421 161.1172,158.8984 161.5368,159.0969 161.9349,159.3355 162.3077,159.612 162.6517,159.9238 162.9634,160.2677 163.2399,160.6405 163.4786,161.0387 163.677,161.4583 163.8334,161.8953 163.9462,162.3456 164.0143,162.8047 164.0371,163.2684 164.0143,163.732 163.9462,164.1911 163.8334,164.6414 163.677,165.0784 163.4786,165.498 163.2399,165.8962 162.9634,166.269 162.6517,166.613 162.3077,166.9247 161.9349,167.2012 161.5368,167.4398 161.1172,167.6383 160.6801,167.7947 160.2299,167.9074 159.7707,167.9756 159.3071,167.9983 158.8435,167.9756 158.3843,167.9074 157.934,167.7947 157.497,167.6383 157.0774,167.4398 156.6793,167.2012 156.3064,166.9247 155.9625,166.613 155.6508,166.269 155.3743,165.8962 155.1356,165.498 154.9372,165.0784 154.7808,164.6414 154.668,164.1911 154.5999,163.732 154.5771,163.2684 154.5999,162.8047 154.668,162.3456 154.7808,161.8953 154.9372,161.4583 155.1356,161.0387"/>
    <polygon points="150.5963,173.7475 150.1982,173.9862 149.7786,174.1846 149.3415,174.341 148.8913,174.4538 148.4321,174.5219 147.9685,174.5447 147.5049,174.5219 147.0457,174.4538 146.5955,174.341 146.1584,174.1846 145.7388,173.9862 145.3407,173.7475 144.9678,173.471 144.6239,173.1593 144.3122,172.8154 144.0357,172.4425 143.797,172.0444 143.5986,171.6248 143.4422,171.1877 143.3294,170.7375 143.2613,170.2783 143.2385,169.8147 143.2613,169.3511 143.3294,168.8919 143.4422,168.4416 143.5986,168.0046 143.797,167.585 144.0357,167.1869 144.3122,166.814 144.6239,166.4701 144.9678,166.1584 145.3407,165.8819 145.7388,165.6432 146.1584,165.4448 146.5955,165.2884 147.0457,165.1756 147.5049,165.1075 147.9685,165.0847 148.4321,165.1075 148.8913,165.1756 149.3415,165.2884 149.7786,165.4448 150.1982,165.6432 150.5963,165.8819 150.9692,166.1584 151.3131,166.4701 151.6248,166.814 151.9013,167.1869 152.14,167.585 152.3384,168.0046 152.4948,168.4416 152.6076,168.8919 152.6757,169.3511 152.6985,169.8147 152.6757,170.2783 152.6076,170.7375 152.4948,171.1877 152.3384,171.6248 152.14,172.0444 151.9013,172.4425 151.6248,172.8154 151.3131,173.1593 150.9692,173.471"/>
    <polygon points="159.8133,193.6981 158.7714,193.3253 157.771,192.8522 156.8218,192.2833 155.933,191.6241 155.1131,190.8809 154.3699,190.061 153.7107,189.1721 153.1418,188.223 152.6687,187.2226 152.2959,186.1807 152.027,185.1073 151.8646,184.0126 151.8103,182.9074 151.8646,181.8021 152.027,180.7075 152.2959,179.634 152.6687,178.5921 153.1418,177.5917 153.7107,176.6426 154.3699,175.7537 155.1131,174.9338 155.933,174.1907 156.8218,173.5314 157.771,172.9625 158.7714,172.4894 159.8133,172.1166 160.8867,171.8477 161.9813,171.6853 163.0866,171.631 164.1919,171.6853 165.2865,171.8477 166.36,172.1166 167.4019,172.4894 168.4022,172.9625 169.3514,173.5314 170.2402,174.1907 171.0602,174.9338 171.8033,175.7537 172.4625,176.6426 173.0314,177.5917 173.5046,178.5921 173.8774,179.634 174.1462,180.7075 174.3086,181.8021 174.3629,182.9074 174.3086,184.0126 174.1462,185.1073 173.8774,186.1807 173.5046,187.2226 173.0314,188.223 172.4625,189.1721 171.8033,190.061 171.0602,190.8809 170.2402,191.6241 169.3514,192.2833 168.4022,192.8522 167.4019,193.3253 166.36,193.6981 165.2865,193.967 164.1919,194.1294 163.0866,194.1837 161.9813,194.1294 160.8867,193.967"/>
    <polygon points="151.8646,210.198 152.027,211.2926 152.2959,212.366 152.6687,213.4079 153.1418,214.4083 153.7107,215.3575 154.3699,216.2463 155.1131,217.0662 155.933,217.8094 156.8218,218.4686 157.771,219.0375 158.7714,219.5106 159.8133,219.8834 160.8867,220.1523 161.9813,220.3147 163.0866,220.369 164.1919,220.3147 165.2865,220.1523 166.36,219.8834 167.4019,219.5106 168.4022,219.0375 169.3514,218.4686 170.2402,217.8094 171.0602,217.0662 171.8033,216.2463 172.4625,215.3575 173.0314,214.4083 173.5046,213.4079 173.8774,212.366 174.1462,211.2926 174.3086,210.198 174.3629,209.0927 174.3086,207.9874 174.1462,206.8928 173.8774,205.8194 173.5046,204.7774 173.0314,203.7771 172.4625,202.8279 171.8033,201.9391 171.0602,201.1191 170.2402,200.376 169.3514,199.7168 168.4022,199.1479 167.4019,198.6747 166.36,198.3019 165.2865,198.0331 164.1919,197.8707 163.0866,197.8164 161.9813,197.8707 160.8867,198.0331 159.8133,198.3019 158.7714,198.6747 157.771,199.1479 156.8218,199.7168 155.933,200.376 155.1131,201.1191 154.3699,201.9391 153.7107,202.8279 153.1418,203.7771 152.6687,204.7774 152.2959,205.8194 152.027,206.8928 151.8646,207.9874 151.8103,209.0927"/>
    <polygon points="140.8014,213.4093 140.5627,213.0112 140.2862,212.6384 139.9745,212.2944 139.6306,211.9827 139.2578,211.7062 138.8596,211.4676 138.44,211.2691 138.003,211.1127 137.5527,210.9999 137.0935,210.9318 136.6299,210.9091 136.1663,210.9318 135.7071,210.9999 135.2569,211.1127 134.8198,211.2691 134.4002,211.4676 134.0021,211.7062 133.6293,211.9827 133.2853,212.2944 132.9736,212.6384 132.6971,213.0112 132.4585,213.4093 132.26,213.8289 132.1036,214.266 131.9908,214.7163 131.9227,215.1754 131.8999,215.639 131.9227,216.1026 131.9908,216.5618 132.1036,217.0121 132.26,217.4491 132.4585,217.8687 132.6971,218.2669 132.9736,218.6397 133.2853,218.9836 133.6293,219.2953 134.0021,219.5719 134.4002,219.8105 134.8198,220.0089 135.2569,220.1653 135.7071,220.2781 136.1663,220.3462 136.6299,220.369 137.0935,220.3462 137.5527,220.2781 138.003,220.1653 138.44,220.0089 138.8596,219.8105 139.2578,219.5719 139.6306,219.2953 139.9745,218.9836 140.2862,218.6397 140.5627,218.2669 140.8014,217.8687 140.9998,217.4491 141.1562,217.0121 141.269,216.5618 141.3371,216.1026 141.3599,215.639 141.3371,215.1754 141.269,214.7163 141.1562,214.266 140.9998,213.8289"/>
    <polygon points="120.5841,221.7217 120.5614,222.1854 120.5841,222.649 120.6523,223.1081 120.765,223.5584 120.9214,223.9954 121.1199,224.4151 121.3585,224.8132 121.635,225.186 121.9467,225.53 122.2907,225.8417 122.6635,226.1182 123.0616,226.3568 123.4813,226.5553 123.9183,226.7117 124.3686,226.8244 124.8277,226.8926 125.2913,226.9153 125.755,226.8926 126.2141,226.8244 126.6644,226.7117 127.1014,226.5553 127.521,226.3568 127.9192,226.1182 128.292,225.8417 128.6359,225.53 128.9477,225.186 129.2242,224.8132 129.4628,224.4151 129.6613,223.9954 129.8176,223.5584 129.9304,223.1081 129.9985,222.649 130.0213,222.1854 129.9985,221.7217 129.9304,221.2626 129.8176,220.8123 129.6613,220.3753 129.4628,219.9557 129.2242,219.5575 128.9477,219.1847 128.6359,218.8408 128.292,218.529 127.9192,218.2525 127.521,218.0139 127.1014,217.8154 126.6644,217.6591 126.2141,217.5463 125.755,217.4782 125.2913,217.4554 124.8277,217.4782 124.3686,217.5463 123.9183,217.6591 123.4813,217.8154 123.0616,218.0139 122.6635,218.2525 122.2907,218.529 121.9467,218.8408 121.635,219.1847 121.3585,219.5575 121.1199,219.9557 120.9214,220.3753 120.765,220.8123 120.6523,221.2626"/>
  </g>
</svg>
