<?xml version="1.0" encoding="utf-8" ?>
<svg xmlns="http://www.w3.org/2000/svg" xmlns:cc="http://creativecommons.org/ns" xmlns:dc="http://purl.org/dc/elements/1.1/" xmlns:ev="http://www.w3.org/2001/xml-events" xmlns:inkscape="http://www.inkscape.org/namespaces/inkscape" xmlns:rdf="http://www.w3.org/1999/02/22-rdf-syntax-ns" xmlns:sodipodi="http://sodipodi.sourceforge.net/DTD/sodipodi-0.dtd" xmlns:xlink="http://www.w3.org/1999/xlink" baseProfile="tiny" height="15.875cm" version="1.2" viewBox="0 0 432.0 600.0" width="11.43cm">
  <metadata>
    <rdf:RDF>
      <cc:Work>
        <dc:format>image/svg+xml</dc:format>
        <dc:source>vsk save -s 224 -c hex-grid/config/bubble-coasters-2.json /Users/tobin/src/fabian/plotting/fabian-plotting/hex-grid/sketch_hex_grid.py</dc:source>
        <dc:date>2023-11-11T11:30:23.518098</dc:date>
      </cc:Work>
    </rdf:RDF>
  </metadata>
  <defs/>
  <g fill="none" id="layer1" inkscape:groupmode="layer" inkscape:label="1" stroke="#000000" stroke-width="0.7559" style="display:inline">
    <polygon points="119.1584,203.9804 118.6993,203.9123 118.249,203.7995 117.812,203.6431 117.3924,203.4447 116.9942,203.206 116.6214,202.9295 116.2775,202.6178 115.9657,202.2739 115.6892,201.901 115.4506,201.5029 115.2521,201.0833 115.0957,200.6462 114.983,200.196 114.9149,199.7368 114.8921,199.2732 114.9149,198.8096 114.983,198.3504 115.0957,197.9002 115.2521,197.4631 115.4506,197.0435 115.6892,196.6454 115.9657,196.2725 116.2775,195.9286 116.6214,195.6169 116.9942,195.3404 117.3924,195.1017 117.812,194.9033 118.249,194.7469 118.6993,194.6341 119.1584,194.566 119.622,194.5432 120.0857,194.566 120.5448,194.6341 120.9951,194.7469 121.4321,194.9033 121.8517,195.1017 122.2499,195.3404 122.6227,195.6169 122.9666,195.9286 123.2784,196.2725 123.5549,196.6454 123.7935,197.0435 123.992,197.4631 124.1483,197.9002 124.2611,198.3504 124.3292,198.8096 124.352,199.2732 124.3292,199.7368 124.2611,200.196 124.1483,200.6462 123.992,201.0833 123.7935,201.5029 123.5549,201.901 123.2784,202.2739 122.9666,202.6178 122.6227,202.9295 122.2499,203.206 121.8517,203.4447 121.4321,203.6431 120.9951,203.7995 120.5448,203.9123 120.0857,203.9804 119.622,204.0032"/>
    <polygon points="129.4245,222.3107 128.4754,221.7418 127.5865,221.0826 126.7666,220.3394 126.0235,219.5195 125.3643,218.6306 124.7953,217.6815 124.3222,216.6811 123.9494,215.6392 123.6805,214.5658 123.5181,213.4711 123.4639,212.3659 123.5181,211.2606 123.6805,210.166 123.9494,209.0925 124.3222,208.0506 124.7953,207.0502 125.3643,206.1011 126.0235,205.2122 126.7666,204.3923 127.5865,203.6492 128.4754,202.99 129.4245,202.421 130.4249,201.9479 131.4668,201.5751 132.5403,201.3062 133.6349,201.1438 134.7402,201.0896 135.8454,201.1438 136.9401,201.3062 138.0135,201.5751 139.0554,201.9479 140.0558,202.421 141.0049,202.99 141.8938,203.6492 142.7137,204.3923 143.4569,205.2122 144.1161,206.1011 144.685,207.0502 145.1581,208.0506 145.5309,209.0925 145.7998,210.166 145.9622,211.2606 146.0165,212.3659 145.9622,213.4711 145.7998,214.5658 145.5309,215.6392 145.1581,216.6811 144.685,217.6815 144.1161,218.6306 143.4569,219.5195 142.7137,220.3394 141.8938,221.0826 141.0049,221.7418 140.0558,222.3107 139.0554,222.7838 138.0135,223.1566 136.9401,223.4255 135.8454,223.5879 134.7402,223.6422 133.6349,223.5879 132.5403,223.4255 131.4668,223.1566 130.4249,222.7838"/>
    <polygon points="158.5226,236.6805 157.4173,236.7348 156.3121,236.6805 155.2174,236.5182 154.144,236.2493 153.1021,235.8765 152.1017,235.4033 151.1525,234.8344 150.2637,234.1752 149.4438,233.4321 148.7006,232.6121 148.0414,231.7233 147.4725,230.7741 146.9994,229.7738 146.6266,228.7319 146.3577,227.6584 146.1953,226.5638 146.141,225.4585 146.1953,224.3533 146.3577,223.2586 146.6266,222.1852 146.9994,221.1433 147.4725,220.1429 148.0414,219.1937 148.7006,218.3049 149.4438,217.485 150.2637,216.7418 151.1525,216.0826 152.1017,215.5137 153.1021,215.0406 154.144,214.6678 155.2174,214.3989 156.3121,214.2365 157.4173,214.1822 158.5226,214.2365 159.6172,214.3989 160.6907,214.6678 161.7326,215.0406 162.7329,215.5137 163.6821,216.0826 164.5709,216.7418 165.3909,217.485 166.134,218.3049 166.7932,219.1937 167.3621,220.1429 167.8353,221.1433 168.2081,222.1852 168.477,223.2586 168.6393,224.3533 168.6936,225.4585 168.6393,226.5638 168.477,227.6584 168.2081,228.7319 167.8353,229.7738 167.3621,230.7741 166.7932,231.7233 166.134,232.6121 165.3909,233.4321 164.5709,234.1752 163.6821,234.8344 162.7329,235.4033 161.7326,235.8765 160.6907,236.2493 159.6172,236.5182"/>
    <polygon points="182.2944,227.4916 181.1998,227.3292 180.0945,227.2749 178.9892,227.3292 177.8946,227.4916 176.8211,227.7604 175.7792,228.1332 174.7789,228.6064 173.8297,229.1753 172.9409,229.8345 172.1209,230.5776 171.3778,231.3976 170.7186,232.2864 170.1497,233.2356 169.6765,234.2359 169.3037,235.2779 169.0349,236.3513 168.8725,237.4459 168.8182,238.5512 168.8725,239.6565 169.0349,240.7511 169.3037,241.8245 169.6765,242.8664 170.1497,243.8668 170.7186,244.816 171.3778,245.7048 172.1209,246.5247 172.9409,247.2679 173.8297,247.9271 174.7789,248.496 175.7792,248.9691 176.8211,249.3419 177.8946,249.6108 178.9892,249.7732 180.0945,249.8275 181.1998,249.7732 182.2944,249.6108 183.3678,249.3419 184.4097,248.9691 185.4101,248.496 186.3593,247.9271 187.2481,247.2679 188.068,246.5247 188.8112,245.7048 189.4704,244.816 190.0393,243.8668 190.5124,242.8664 190.8852,241.8245 191.1541,240.7511 191.3165,239.6565 191.3708,238.5512 191.3165,237.4459 191.1541,236.3513 190.8852,235.2779 190.5124,234.2359 190.0393,233.2356 189.4704,232.2864 188.8112,231.3976 188.068,230.5776 187.2481,229.8345 186.3593,229.1753 185.4101,228.6064 184.4097,228.1332 183.3678,227.7604"/>
    <polygon points="181.0222,218.4486 180.954,217.9894 180.8413,217.5392 180.6849,217.1021 180.4864,216.6825 180.2478,216.2844 179.9713,215.9115 179.6596,215.5676 179.3156,215.2559 178.9428,214.9794 178.5447,214.7407 178.125,214.5423 177.688,214.3859 177.2377,214.2731 176.7786,214.205 176.315,214.1822 175.8513,214.205 175.3922,214.2731 174.9419,214.3859 174.5049,214.5423 174.0853,214.7407 173.6871,214.9794 173.3143,215.2559 172.9704,215.5676 172.6586,215.9115 172.3821,216.2844 172.1435,216.6825 171.945,217.1021 171.7887,217.5392 171.6759,217.9894 171.6078,218.4486 171.585,218.9122 171.6078,219.3758 171.6759,219.835 171.7887,220.2852 171.945,220.7223 172.1435,221.1419 172.3821,221.54 172.6586,221.9129 172.9704,222.2568 173.3143,222.5685 173.6871,222.845 174.0853,223.0837 174.5049,223.2821 174.9419,223.4385 175.3922,223.5513 175.8513,223.6194 176.315,223.6422 176.7786,223.6194 177.2377,223.5513 177.688,223.4385 178.125,223.2821 178.5447,223.0837 178.9428,222.845 179.3156,222.5685 179.6596,222.2568 179.9713,221.9129 180.2478,221.54 180.4864,221.1419 180.6849,220.7223 180.8413,220.2852 180.954,219.835 181.0222,219.3758 181.0449,218.9122"/>
    <polygon points="180.4864,190.4972 180.6849,190.9168 180.8413,191.3538 180.954,191.8041 181.0222,192.2632 181.0449,192.7269 181.0222,193.1905 180.954,193.6496 180.8413,194.0999 180.6849,194.5369 180.4864,194.9566 180.2478,195.3547 179.9713,195.7275 179.6596,196.0715 179.3156,196.3832 178.9428,196.6597 178.5447,196.8983 178.125,197.0968 177.688,197.2532 177.2377,197.3659 176.7786,197.4341 176.315,197.4568 175.8513,197.4341 175.3922,197.3659 174.9419,197.2532 174.5049,197.0968 174.0853,196.8983 173.6871,196.6597 173.3143,196.3832 172.9704,196.0715 172.6586,195.7275 172.3821,195.3547 172.1435,194.9566 171.945,194.5369 171.7887,194.0999 171.6759,193.6496 171.6078,193.1905 171.585,192.7269 171.6078,192.2632 171.6759,191.8041 171.7887,191.3538 171.945,190.9168 172.1435,190.4972 172.3821,190.099 172.6586,189.7262 172.9704,189.3823 173.3143,189.0705 173.6871,188.794 174.0853,188.5554 174.5049,188.3569 174.9419,188.2006 175.3922,188.0878 175.8513,188.0197 176.315,187.9969 176.7786,188.0197 177.2377,188.0878 177.688,188.2006 178.125,188.3569 178.5447,188.5554 178.9428,188.794 179.3156,189.0705 179.6596,189.3823 179.9713,189.7262 180.2478,190.099"/>
    <polygon points="183.1272,187.5536 183.0145,187.1033 182.9463,186.6441 182.9236,186.1805 182.9463,185.7169 183.0145,185.2578 183.1272,184.8075 183.2836,184.3704 183.4821,183.9508 183.7207,183.5527 183.9972,183.1799 184.3089,182.8359 184.6529,182.5242 185.0257,182.2477 185.4238,182.0091 185.8435,181.8106 186.2805,181.6542 186.7308,181.5414 187.1899,181.4733 187.6535,181.4506 188.1172,181.4733 188.5763,181.5414 189.0266,181.6542 189.4636,181.8106 189.8832,182.0091 190.2814,182.2477 190.6542,182.5242 190.9981,182.8359 191.3099,183.1799 191.5864,183.5527 191.825,183.9508 192.0235,184.3704 192.1798,184.8075 192.2926,185.2578 192.3607,185.7169 192.3835,186.1805 192.3607,186.6441 192.2926,187.1033 192.1798,187.5536 192.0235,187.9906 191.825,188.4102 191.5864,188.8084 191.3099,189.1812 190.9981,189.5251 190.6542,189.8368 190.2814,190.1134 189.8832,190.352 189.4636,190.5504 189.0266,190.7068 188.5763,190.8196 188.1172,190.8877 187.6535,190.9105 187.1899,190.8877 186.7308,190.8196 186.2805,190.7068 185.8435,190.5504 185.4238,190.352 185.0257,190.1134 184.6529,189.8368 184.3089,189.5251 183.9972,189.1812 183.7207,188.8084 183.4821,188.4102 183.2836,187.9906"/>
    <polygon points="202.925,190.099 203.1636,190.4972 203.3621,190.9168 203.5184,191.3538 203.6312,191.8041 203.6993,192.2632 203.7221,192.7269 203.6993,193.1905 203.6312,193.6496 203.5184,194.0999 203.3621,194.5369 203.1636,194.9566 202.925,195.3547 202.6484,195.7275 202.3367,196.0715 201.9928,196.3832 201.62,196.6597 201.2218,196.8983 200.8022,197.0968 200.3652,197.2532 199.9149,197.3659 199.4557,197.4341 198.9921,197.4568 198.5285,197.4341 198.0694,197.3659 197.6191,197.2532 197.182,197.0968 196.7624,196.8983 196.3643,196.6597 195.9915,196.3832 195.6475,196.0715 195.3358,195.7275 195.0593,195.3547 194.8207,194.9566 194.6222,194.5369 194.4658,194.0999 194.353,193.6496 194.2849,193.1905 194.2622,192.7269 194.2849,192.2632 194.353,191.8041 194.4658,191.3538 194.6222,190.9168 194.8207,190.4972 195.0593,190.099 195.3358,189.7262 195.6475,189.3823 195.9915,189.0705 196.3643,188.794 196.7624,188.5554 197.182,188.3569 197.6191,188.2006 198.0694,188.0878 198.5285,188.0197 198.9921,187.9969 199.4557,188.0197 199.9149,188.0878 200.3652,188.2006 200.8022,188.3569 201.2218,188.5554 201.62,188.794 201.9928,189.0705 202.3367,189.3823 202.6484,189.7262"/>
    <polygon points="203.6993,206.2831 203.6312,206.7423 203.5184,207.1926 203.3621,207.6296 203.1636,208.0492 202.925,208.4474 202.6484,208.8202 202.3367,209.1641 201.9928,209.4758 201.62,209.7524 201.2218,209.991 200.8022,210.1894 200.3652,210.3458 199.9149,210.4586 199.4557,210.5267 198.9921,210.5495 198.5285,210.5267 198.0694,210.4586 197.6191,210.3458 197.182,210.1894 196.7624,209.991 196.3643,209.7524 195.9915,209.4758 195.6475,209.1641 195.3358,208.8202 195.0593,208.4474 194.8207,208.0492 194.6222,207.6296 194.4658,207.1926 194.353,206.7423 194.2849,206.2831 194.2622,205.8195 194.2849,205.3559 194.353,204.8968 194.4658,204.4465 194.6222,204.0094 194.8207,203.5898 195.0593,203.1917 195.3358,202.8189 195.6475,202.4749 195.9915,202.1632 196.3643,201.8867 196.7624,201.6481 197.182,201.4496 197.6191,201.2932 198.0694,201.1804 198.5285,201.1123 198.9921,201.0896 199.4557,201.1123 199.9149,201.1804 200.3652,201.2932 200.8022,201.4496 201.2218,201.6481 201.62,201.8867 201.9928,202.1632 202.3367,202.4749 202.6484,202.8189 202.925,203.1917 203.1636,203.5898 203.3621,204.0094 203.5184,204.4465 203.6312,204.8968 203.6993,205.3559 203.7221,205.8195"/>
    <polygon points="209.9253,234.1752 209.0364,234.8344 208.0873,235.4033 207.0869,235.8765 206.045,236.2493 204.9716,236.5182 203.8769,236.6805 202.7717,236.7348 201.6664,236.6805 200.5718,236.5182 199.4983,236.2493 198.4564,235.8765 197.456,235.4033 196.5069,234.8344 195.618,234.1752 194.7981,233.4321 194.055,232.6121 193.3957,231.7233 192.8268,230.7741 192.3537,229.7738 191.9809,228.7319 191.712,227.6584 191.5496,226.5638 191.4953,225.4585 191.5496,224.3533 191.712,223.2586 191.9809,222.1852 192.3537,221.1433 192.8268,220.1429 193.3957,219.1937 194.055,218.3049 194.7981,217.485 195.618,216.7418 196.5069,216.0826 197.456,215.5137 198.4564,215.0406 199.4983,214.6678 200.5718,214.3989 201.6664,214.2365 202.7717,214.1822 203.8769,214.2365 204.9716,214.3989 206.045,214.6678 207.0869,215.0406 208.0873,215.5137 209.0364,216.0826 209.9253,216.7418 210.7452,217.485 211.4884,218.3049 212.1476,219.1937 212.7165,220.1429 213.1896,221.1433 213.5624,222.1852 213.8313,223.2586 213.9937,224.3533 214.048,225.4585 213.9937,226.5638 213.8313,227.6584 213.5624,228.7319 213.1896,229.7738 212.7165,230.7741 212.1476,231.7233 211.4884,232.6121 210.7452,233.4321"/>
    <polygon points="193.0992,247.5051 194.8712,245.8991 196.792,244.4745 198.8433,243.245 201.0051,242.2225 203.2568,241.4169 205.5766,240.8358 207.9421,240.4849 210.3307,240.3676 212.7193,240.4849 215.0849,240.8358 217.4046,241.4169 219.6563,242.2225 221.8182,243.245 223.8694,244.4745 225.7902,245.8991 227.5622,247.5051 229.1682,249.277 230.5928,251.1979 231.8222,253.2491 232.8447,255.4109 233.6504,257.6626 234.2314,259.9824 234.5823,262.348 234.6997,264.7365 234.5823,267.1251 234.2314,269.4907 233.6504,271.8105 232.8447,274.0621 231.8222,276.224 230.5928,278.2752 229.1682,280.196 227.5622,281.968 225.7902,283.574 223.8694,284.9986 221.8182,286.228 219.6563,287.2505 217.4046,288.0562 215.0849,288.6373 212.7193,288.9882 210.3307,289.1055 207.9421,288.9882 205.5766,288.6373 203.2568,288.0562 201.0051,287.2505 198.8433,286.228 196.792,284.9986 194.8712,283.574 193.0992,281.968 191.4932,280.196 190.0686,278.2752 188.8392,276.224 187.8167,274.0621 187.0111,271.8105 186.43,269.4907 186.0791,267.1251 185.9617,264.7365 186.0791,262.348 186.43,259.9824 187.0111,257.6626 187.8167,255.4109 188.8392,253.2491 190.0686,251.1979 191.4932,249.277"/>
    <polygon points="160.6065,276.0191 160.4501,276.4562 160.3373,276.9064 160.2692,277.3656 160.2464,277.8292 160.2692,278.2928 160.3373,278.752 160.4501,279.2022 160.6065,279.6393 160.8049,280.0589 161.0435,280.457 161.3201,280.8299 161.6318,281.1738 161.9757,281.4855 162.3485,281.762 162.7467,282.0007 163.1663,282.1991 163.6033,282.3555 164.0536,282.4683 164.5128,282.5364 164.9764,282.5592 165.44,282.5364 165.8991,282.4683 166.3494,282.3555 166.7865,282.1991 167.2061,282.0007 167.6042,281.762 167.977,281.4855 168.321,281.1738 168.6327,280.8299 168.9092,280.457 169.1478,280.0589 169.3463,279.6393 169.5027,279.2022 169.6155,278.752 169.6836,278.2928 169.7064,277.8292 169.6836,277.3656 169.6155,276.9064 169.5027,276.4562 169.3463,276.0191 169.1478,275.5995 168.9092,275.2014 168.6327,274.8285 168.321,274.4846 167.977,274.1729 167.6042,273.8964 167.2061,273.6577 166.7865,273.4593 166.3494,273.3029 165.8991,273.1901 165.44,273.122 164.9764,273.0992 164.5128,273.122 164.0536,273.1901 163.6033,273.3029 163.1663,273.4593 162.7467,273.6577 162.3485,273.8964 161.9757,274.1729 161.6318,274.4846 161.3201,274.8285 161.0435,275.2014 160.8049,275.5995"/>
    <polygon points="164.9764,299.2846 164.5128,299.3073 164.0536,299.3754 163.6033,299.4882 163.1663,299.6446 162.7467,299.8431 162.3485,300.0817 161.9757,300.3582 161.6318,300.6699 161.3201,301.0139 161.0435,301.3867 160.8049,301.7848 160.6065,302.2044 160.4501,302.6415 160.3373,303.0918 160.2692,303.5509 160.2464,304.0145 160.2692,304.4781 160.3373,304.9373 160.4501,305.3876 160.6065,305.8246 160.8049,306.2442 161.0435,306.6424 161.3201,307.0152 161.6318,307.3591 161.9757,307.6708 162.3485,307.9474 162.7467,308.186 163.1663,308.3845 163.6033,308.5408 164.0536,308.6536 164.5128,308.7217 164.9764,308.7445 165.44,308.7217 165.8991,308.6536 166.3494,308.5408 166.7865,308.3845 167.2061,308.186 167.6042,307.9474 167.977,307.6708 168.321,307.3591 168.6327,307.0152 168.9092,306.6424 169.1478,306.2442 169.3463,305.8246 169.5027,305.3876 169.6155,304.9373 169.6836,304.4781 169.7064,304.0145 169.6836,303.5509 169.6155,303.0918 169.5027,302.6415 169.3463,302.2044 169.1478,301.7848 168.9092,301.3867 168.6327,301.0139 168.321,300.6699 167.977,300.3582 167.6042,300.0817 167.2061,299.8431 166.7865,299.6446 166.3494,299.4882 165.8991,299.3754 165.44,299.3073"/>
    <polygon points="157.2941,307.5602 156.9824,307.2163 156.6385,306.9045 156.2656,306.628 155.8675,306.3894 155.4479,306.1909 155.0108,306.0346 154.5606,305.9218 154.1014,305.8537 153.6378,305.8309 153.1742,305.8537 152.715,305.9218 152.2648,306.0346 151.8277,306.1909 151.4081,306.3894 151.01,306.628 150.6371,306.9045 150.2932,307.2163 149.9815,307.5602 149.705,307.933 149.4663,308.3312 149.2679,308.7508 149.1115,309.1878 148.9987,309.6381 148.9306,310.0972 148.9078,310.5609 148.9306,311.0245 148.9987,311.4836 149.1115,311.9339 149.2679,312.3709 149.4663,312.7906 149.705,313.1887 149.9815,313.5615 150.2932,313.9055 150.6371,314.2172 151.01,314.4937 151.4081,314.7323 151.8277,314.9308 152.2648,315.0872 152.715,315.2 153.1742,315.2681 153.6378,315.2908 154.1014,315.2681 154.5606,315.2 155.0108,315.0872 155.4479,314.9308 155.8675,314.7323 156.2656,314.4937 156.6385,314.2172 156.9824,313.9055 157.2941,313.5615 157.5706,313.1887 157.8093,312.7906 158.0077,312.3709 158.1641,311.9339 158.2769,311.4836 158.345,311.0245 158.3678,310.5609 158.345,310.0972 158.2769,309.6381 158.1641,309.1878 158.0077,308.7508 157.8093,308.3312 157.5706,307.933"/>
    <polygon points="180.2478,313.1887 180.4864,312.7906 180.6849,312.3709 180.8413,311.9339 180.954,311.4836 181.0222,311.0245 181.0449,310.5609 181.0222,310.0972 180.954,309.6381 180.8413,309.1878 180.6849,308.7508 180.4864,308.3312 180.2478,307.933 179.9713,307.5602 179.6596,307.2163 179.3156,306.9045 178.9428,306.628 178.5447,306.3894 178.125,306.1909 177.688,306.0346 177.2377,305.9218 176.7786,305.8537 176.315,305.8309 175.8513,305.8537 175.3922,305.9218 174.9419,306.0346 174.5049,306.1909 174.0853,306.3894 173.6871,306.628 173.3143,306.9045 172.9704,307.2163 172.6586,307.5602 172.3821,307.933 172.1435,308.3312 171.945,308.7508 171.7887,309.1878 171.6759,309.6381 171.6078,310.0972 171.585,310.5609 171.6078,311.0245 171.6759,311.4836 171.7887,311.9339 171.945,312.3709 172.1435,312.7906 172.3821,313.1887 172.6586,313.5615 172.9704,313.9055 173.3143,314.2172 173.6871,314.4937 174.0853,314.7323 174.5049,314.9308 174.9419,315.0872 175.3922,315.2 175.8513,315.2681 176.315,315.2908 176.7786,315.2681 177.2377,315.2 177.688,315.0872 178.125,314.9308 178.5447,314.7323 178.9428,314.4937 179.3156,314.2172 179.6596,313.9055 179.9713,313.5615"/>
    <polygon points="172.3821,326.2814 172.1435,325.8832 171.945,325.4636 171.7887,325.0266 171.6759,324.5763 171.6078,324.1172 171.585,323.6535 171.6078,323.1899 171.6759,322.7308 171.7887,322.2805 171.945,321.8434 172.1435,321.4238 172.3821,321.0257 172.6586,320.6529 172.9704,320.3089 173.3143,319.9972 173.6871,319.7207 174.0853,319.4821 174.5049,319.2836 174.9419,319.1272 175.3922,319.0144 175.8513,318.9463 176.315,318.9236 176.7786,318.9463 177.2377,319.0144 177.688,319.1272 178.125,319.2836 178.5447,319.4821 178.9428,319.7207 179.3156,319.9972 179.6596,320.3089 179.9713,320.6529 180.2478,321.0257 180.4864,321.4238 180.6849,321.8434 180.8413,322.2805 180.954,322.7308 181.0222,323.1899 181.0449,323.6535 181.0222,324.1172 180.954,324.5763 180.8413,325.0266 180.6849,325.4636 180.4864,325.8832 180.2478,326.2814 179.9713,326.6542 179.6596,326.9981 179.3156,327.3098 178.9428,327.5864 178.5447,327.825 178.125,328.0235 177.688,328.1798 177.2377,328.2926 176.7786,328.3607 176.315,328.3835 175.8513,328.3607 175.3922,328.2926 174.9419,328.1798 174.5049,328.0235 174.0853,327.825 173.6871,327.5864 173.3143,327.3098 172.9704,326.9981 172.6586,326.6542"/>
    <polygon points="178.9428,332.8134 179.3156,333.0899 179.6596,333.4016 179.9713,333.7455 180.2478,334.1184 180.4864,334.5165 180.6849,334.9361 180.8413,335.3732 180.954,335.8234 181.0222,336.2826 181.0449,336.7462 181.0222,337.2098 180.954,337.669 180.8413,338.1192 180.6849,338.5563 180.4864,338.9759 180.2478,339.374 179.9713,339.7469 179.6596,340.0908 179.3156,340.4025 178.9428,340.679 178.5447,340.9177 178.125,341.1161 177.688,341.2725 177.2377,341.3853 176.7786,341.4534 176.315,341.4762 175.8513,341.4534 175.3922,341.3853 174.9419,341.2725 174.5049,341.1161 174.0853,340.9177 173.6871,340.679 173.3143,340.4025 172.9704,340.0908 172.6586,339.7469 172.3821,339.374 172.1435,338.9759 171.945,338.5563 171.7887,338.1192 171.6759,337.669 171.6078,337.2098 171.585,336.7462 171.6078,336.2826 171.6759,335.8234 171.7887,335.3732 171.945,334.9361 172.1435,334.5165 172.3821,334.1184 172.6586,333.7455 172.9704,333.4016 173.3143,333.0899 173.6871,332.8134 174.0853,332.5747 174.5049,332.3763 174.9419,332.2199 175.3922,332.1071 175.8513,332.039 176.315,332.0162 176.7786,332.039 177.2377,332.1071 177.688,332.2199 178.125,332.3763 178.5447,332.5747"/>
    <polygon points="189.0266,334.7262 188.5763,334.839 188.1172,334.9071 187.6535,334.9298 187.1899,334.9071 186.7308,334.839 186.2805,334.7262 185.8435,334.5698 185.4238,334.3713 185.0257,334.1327 184.6529,333.8562 184.3089,333.5445 183.9972,333.2005 183.7207,332.8277 183.4821,332.4296 183.2836,332.0099 183.1272,331.5729 183.0145,331.1226 182.9463,330.6635 182.9236,330.1999 182.9463,329.7362 183.0145,329.2771 183.1272,328.8268 183.2836,328.3898 183.4821,327.9702 183.7207,327.572 183.9972,327.1992 184.3089,326.8553 184.6529,326.5435 185.0257,326.267 185.4238,326.0284 185.8435,325.8299 186.2805,325.6736 186.7308,325.5608 187.1899,325.4927 187.6535,325.4699 188.1172,325.4927 188.5763,325.5608 189.0266,325.6736 189.4636,325.8299 189.8832,326.0284 190.2814,326.267 190.6542,326.5435 190.9981,326.8553 191.3099,327.1992 191.5864,327.572 191.825,327.9702 192.0235,328.3898 192.1798,328.8268 192.2926,329.2771 192.3607,329.7362 192.3835,330.1999 192.3607,330.6635 192.2926,331.1226 192.1798,331.5729 192.0235,332.0099 191.825,332.4296 191.5864,332.8277 191.3099,333.2005 190.9981,333.5445 190.6542,333.8562 190.2814,334.1327 189.8832,334.3713 189.4636,334.5698"/>
    <polygon points="186.2805,321.6335 186.7308,321.7463 187.1899,321.8144 187.6535,321.8372 188.1172,321.8144 188.5763,321.7463 189.0266,321.6335 189.4636,321.4771 189.8832,321.2787 190.2814,321.04 190.6542,320.7635 190.9981,320.4518 191.3099,320.1079 191.5864,319.735 191.825,319.3369 192.0235,318.9173 192.1798,318.4802 192.2926,318.03 192.3607,317.5708 192.3835,317.1072 192.3607,316.6436 192.2926,316.1844 192.1798,315.7342 192.0235,315.2971 191.825,314.8775 191.5864,314.4794 191.3099,314.1065 190.9981,313.7626 190.6542,313.4509 190.2814,313.1744 189.8832,312.9357 189.4636,312.7373 189.0266,312.5809 188.5763,312.4681 188.1172,312.4 187.6535,312.3772 187.1899,312.4 186.7308,312.4681 186.2805,312.5809 185.8435,312.7373 185.4238,312.9357 185.0257,313.1744 184.6529,313.4509 184.3089,313.7626 183.9972,314.1065 183.7207,314.4794 183.4821,314.8775 183.2836,315.2971 183.1272,315.7342 183.0145,316.1844 182.9463,316.6436 182.9236,317.1072 182.9463,317.5708 183.0145,318.03 183.1272,318.4802 183.2836,318.9173 183.4821,319.3369 183.7207,319.735 183.9972,320.1079 184.3089,320.4518 184.6529,320.7635 185.0257,321.04 185.4238,321.2787 185.8435,321.4771"/>
    <polygon points="202.6484,320.6529 202.3367,320.3089 201.9928,319.9972 201.62,319.7207 201.2218,319.4821 200.8022,319.2836 200.3652,319.1272 199.9149,319.0144 199.4557,318.9463 198.9921,318.9236 198.5285,318.9463 198.0694,319.0144 197.6191,319.1272 197.182,319.2836 196.7624,319.4821 196.3643,319.7207 195.9915,319.9972 195.6475,320.3089 195.3358,320.6529 195.0593,321.0257 194.8207,321.4238 194.6222,321.8434 194.4658,322.2805 194.353,322.7308 194.2849,323.1899 194.2622,323.6535 194.2849,324.1172 194.353,324.5763 194.4658,325.0266 194.6222,325.4636 194.8207,325.8832 195.0593,326.2814 195.3358,326.6542 195.6475,326.9981 195.9915,327.3098 196.3643,327.5864 196.7624,327.825 197.182,328.0235 197.6191,328.1798 198.0694,328.2926 198.5285,328.3607 198.9921,328.3835 199.4557,328.3607 199.9149,328.2926 200.3652,328.1798 200.8022,328.0235 201.2218,327.825 201.62,327.5864 201.9928,327.3098 202.3367,326.9981 202.6484,326.6542 202.925,326.2814 203.1636,325.8832 203.3621,325.4636 203.5184,325.0266 203.6312,324.5763 203.6993,324.1172 203.7221,323.6535 203.6993,323.1899 203.6312,322.7308 203.5184,322.2805 203.3621,321.8434 203.1636,321.4238 202.925,321.0257"/>
    <polygon points="215.504,322.4228 216.0729,323.372 216.7321,324.2608 217.4753,325.0808 218.2952,325.8239 219.184,326.4831 220.1332,327.052 221.1336,327.5251 222.1755,327.898 223.2489,328.1668 224.3435,328.3292 225.4488,328.3835 226.5541,328.3292 227.6487,328.1668 228.7222,327.898 229.7641,327.5251 230.7644,327.052 231.7136,326.4831 232.6024,325.8239 233.4224,325.0808 234.1655,324.2608 234.8247,323.372 235.3936,322.4228 235.8668,321.4225 236.2396,320.3805 236.5085,319.3071 236.6708,318.2125 236.7251,317.1072 236.6708,316.0019 236.5085,314.9073 236.2396,313.8339 235.8668,312.7919 235.3936,311.7916 234.8247,310.8424 234.1655,309.9536 233.4224,309.1336 232.6024,308.3905 231.7136,307.7313 230.7644,307.1624 229.7641,306.6892 228.7222,306.3164 227.6487,306.0476 226.5541,305.8852 225.4488,305.8309 224.3435,305.8852 223.2489,306.0476 222.1755,306.3164 221.1336,306.6892 220.1332,307.1624 219.184,307.7313 218.2952,308.3905 217.4753,309.1336 216.7321,309.9536 216.0729,310.8424 215.504,311.7916 215.0309,312.7919 214.6581,313.8339 214.3892,314.9073 214.2268,316.0019 214.1725,317.1072 214.2268,318.2125 214.3892,319.3071 214.6581,320.3805 215.0309,321.4225"/>
    <polygon points="220.7465,332.1071 220.2963,332.2199 219.8592,332.3763 219.4396,332.5747 219.0415,332.8134 218.6686,333.0899 218.3247,333.4016 218.013,333.7455 217.7365,334.1184 217.4978,334.5165 217.2994,334.9361 217.143,335.3732 217.0302,335.8234 216.9621,336.2826 216.9393,336.7462 216.9621,337.2098 217.0302,337.669 217.143,338.1192 217.2994,338.5563 217.4978,338.9759 217.7365,339.374 218.013,339.7469 218.3247,340.0908 218.6686,340.4025 219.0415,340.679 219.4396,340.9177 219.8592,341.1161 220.2963,341.2725 220.7465,341.3853 221.2057,341.4534 221.6693,341.4762 222.1329,341.4534 222.5921,341.3853 223.0423,341.2725 223.4794,341.1161 223.899,340.9177 224.2971,340.679 224.67,340.4025 225.0139,340.0908 225.3256,339.7469 225.6021,339.374 225.8408,338.9759 226.0392,338.5563 226.1956,338.1192 226.3084,337.669 226.3765,337.2098 226.3993,336.7462 226.3765,336.2826 226.3084,335.8234 226.1956,335.3732 226.0392,334.9361 225.8408,334.5165 225.6021,334.1184 225.3256,333.7455 225.0139,333.4016 224.67,333.0899 224.2971,332.8134 223.899,332.5747 223.4794,332.3763 223.0423,332.2199 222.5921,332.1071 222.1329,332.039 221.6693,332.0162 221.2057,332.039"/>
    <polygon points="217.7365,347.211 217.4978,347.6092 217.2994,348.0288 217.143,348.4658 217.0302,348.9161 216.9621,349.3752 216.9393,349.8389 216.9621,350.3025 217.0302,350.7616 217.143,351.2119 217.2994,351.6489 217.4978,352.0686 217.7365,352.4667 218.013,352.8395 218.3247,353.1835 218.6686,353.4952 219.0415,353.7717 219.4396,354.0103 219.8592,354.2088 220.2963,354.3652 220.7465,354.478 221.2057,354.5461 221.6693,354.5688 222.1329,354.5461 222.5921,354.478 223.0423,354.3652 223.4794,354.2088 223.899,354.0103 224.2971,353.7717 224.67,353.4952 225.0139,353.1835 225.3256,352.8395 225.6021,352.4667 225.8408,352.0686 226.0392,351.6489 226.1956,351.2119 226.3084,350.7616 226.3765,350.3025 226.3993,349.8389 226.3765,349.3752 226.3084,348.9161 226.1956,348.4658 226.0392,348.0288 225.8408,347.6092 225.6021,347.211 225.3256,346.8382 225.0139,346.4943 224.67,346.1825 224.2971,345.906 223.899,345.6674 223.4794,345.4689 223.0423,345.3126 222.5921,345.1998 222.1329,345.1317 221.6693,345.1089 221.2057,345.1317 220.7465,345.1998 220.2963,345.3126 219.8592,345.4689 219.4396,345.6674 219.0415,345.906 218.6686,346.1825 218.3247,346.4943 218.013,346.8382"/>
    <polygon points="217.7365,360.3037 217.4978,360.7018 217.2994,361.1215 217.143,361.5585 217.0302,362.0088 216.9621,362.4679 216.9393,362.9315 216.9621,363.3952 217.0302,363.8543 217.143,364.3046 217.2994,364.7416 217.4978,365.1612 217.7365,365.5594 218.013,365.9322 218.3247,366.2761 218.6686,366.5879 219.0415,366.8644 219.4396,367.103 219.8592,367.3015 220.2963,367.4578 220.7465,367.5706 221.2057,367.6387 221.6693,367.6615 222.1329,367.6387 222.5921,367.5706 223.0423,367.4578 223.4794,367.3015 223.899,367.103 224.2971,366.8644 224.67,366.5879 225.0139,366.2761 225.3256,365.9322 225.6021,365.5594 225.8408,365.1612 226.0392,364.7416 226.1956,364.3046 226.3084,363.8543 226.3765,363.3952 226.3993,362.9315 226.3765,362.4679 226.3084,362.0088 226.1956,361.5585 226.0392,361.1215 225.8408,360.7018 225.6021,360.3037 225.3256,359.9309 225.0139,359.5869 224.67,359.2752 224.2971,358.9987 223.899,358.7601 223.4794,358.5616 223.0423,358.4052 222.5921,358.2924 222.1329,358.2243 221.6693,358.2016 221.2057,358.2243 220.7465,358.2924 220.2963,358.4052 219.8592,358.5616 219.4396,358.7601 219.0415,358.9987 218.6686,359.2752 218.3247,359.5869 218.013,359.9309"/>
    <polygon points="218.3247,379.3688 218.6686,379.6805 219.0415,379.957 219.4396,380.1957 219.8592,380.3941 220.2963,380.5505 220.7465,380.6633 221.2057,380.7314 221.6693,380.7542 222.1329,380.7314 222.5921,380.6633 223.0423,380.5505 223.4794,380.3941 223.899,380.1957 224.2971,379.957 224.67,379.6805 225.0139,379.3688 225.3256,379.0249 225.6021,378.652 225.8408,378.2539 226.0392,377.8343 226.1956,377.3972 226.3084,376.947 226.3765,376.4878 226.3993,376.0242 226.3765,375.5606 226.3084,375.1014 226.1956,374.6512 226.0392,374.2141 225.8408,373.7945 225.6021,373.3964 225.3256,373.0235 225.0139,372.6796 224.67,372.3679 224.2971,372.0914 223.899,371.8527 223.4794,371.6543 223.0423,371.4979 222.5921,371.3851 222.1329,371.317 221.6693,371.2942 221.2057,371.317 220.7465,371.3851 220.2963,371.4979 219.8592,371.6543 219.4396,371.8527 219.0415,372.0914 218.6686,372.3679 218.3247,372.6796 218.013,373.0235 217.7365,373.3964 217.4978,373.7945 217.2994,374.2141 217.143,374.6512 217.0302,375.1014 216.9621,375.5606 216.9393,376.0242 216.9621,376.4878 217.0302,376.947 217.143,377.3972 217.2994,377.8343 217.4978,378.2539 217.7365,378.652 218.013,379.0249"/>
    <polygon points="268.3967,328.1798 268.8337,328.0235 269.2533,327.825 269.6515,327.5864 270.0243,327.3098 270.3682,326.9981 270.6799,326.6542 270.9565,326.2814 271.1951,325.8832 271.3935,325.4636 271.5499,325.0266 271.6627,324.5763 271.7308,324.1172 271.7536,323.6535 271.7308,323.1899 271.6627,322.7308 271.5499,322.2805 271.3935,321.8434 271.1951,321.4238 270.9565,321.0257 270.6799,320.6529 270.3682,320.3089 270.0243,319.9972 269.6515,319.7207 269.2533,319.4821 268.8337,319.2836 268.3967,319.1272 267.9464,319.0144 267.4872,318.9463 267.0236,318.9236 266.56,318.9463 266.1009,319.0144 265.6506,319.1272 265.2135,319.2836 264.7939,319.4821 264.3958,319.7207 264.023,319.9972 263.679,320.3089 263.3673,320.6529 263.0908,321.0257 262.8522,321.4238 262.6537,321.8434 262.4973,322.2805 262.3845,322.7308 262.3164,323.1899 262.2936,323.6535 262.3164,324.1172 262.3845,324.5763 262.4973,325.0266 262.6537,325.4636 262.8522,325.8832 263.0908,326.2814 263.3673,326.6542 263.679,326.9981 264.023,327.3098 264.3958,327.5864 264.7939,327.825 265.2135,328.0235 265.6506,328.1798 266.1009,328.2926 266.56,328.3607 267.0236,328.3835 267.4872,328.3607 267.9464,328.2926"/>
    <polygon points="270.0243,314.2172 270.3682,313.9055 270.6799,313.5615 270.9565,313.1887 271.1951,312.7906 271.3935,312.3709 271.5499,311.9339 271.6627,311.4836 271.7308,311.0245 271.7536,310.5609 271.7308,310.0972 271.6627,309.6381 271.5499,309.1878 271.3935,308.7508 271.1951,308.3312 270.9565,307.933 270.6799,307.5602 270.3682,307.2163 270.0243,306.9045 269.6515,306.628 269.2533,306.3894 268.8337,306.1909 268.3967,306.0346 267.9464,305.9218 267.4872,305.8537 267.0236,305.8309 266.56,305.8537 266.1009,305.9218 265.6506,306.0346 265.2135,306.1909 264.7939,306.3894 264.3958,306.628 264.023,306.9045 263.679,307.2163 263.3673,307.5602 263.0908,307.933 262.8522,308.3312 262.6537,308.7508 262.4973,309.1878 262.3845,309.6381 262.3164,310.0972 262.2936,310.5609 262.3164,311.0245 262.3845,311.4836 262.4973,311.9339 262.6537,312.3709 262.8522,312.7906 263.0908,313.1887 263.3673,313.5615 263.679,313.9055 264.023,314.2172 264.3958,314.4937 264.7939,314.7323 265.2135,314.9308 265.6506,315.0872 266.1009,315.2 266.56,315.2681 267.0236,315.2908 267.4872,315.2681 267.9464,315.2 268.3967,315.0872 268.8337,314.9308 269.2533,314.7323 269.6515,314.4937"/>
    <polygon points="248.8728,309.1878 248.7164,308.7508 248.5179,308.3312 248.2793,307.933 248.0028,307.5602 247.6911,307.2163 247.3471,306.9045 246.9743,306.628 246.5762,306.3894 246.1565,306.1909 245.7195,306.0346 245.2692,305.9218 244.8101,305.8537 244.3465,305.8309 243.8828,305.8537 243.4237,305.9218 242.9734,306.0346 242.5364,306.1909 242.1168,306.3894 241.7186,306.628 241.3458,306.9045 241.0019,307.2163 240.6901,307.5602 240.4136,307.933 240.175,308.3312 239.9765,308.7508 239.8202,309.1878 239.7074,309.6381 239.6393,310.0972 239.6165,310.5609 239.6393,311.0245 239.7074,311.4836 239.8202,311.9339 239.9765,312.3709 240.175,312.7906 240.4136,313.1887 240.6901,313.5615 241.0019,313.9055 241.3458,314.2172 241.7186,314.4937 242.1168,314.7323 242.5364,314.9308 242.9734,315.0872 243.4237,315.2 243.8828,315.2681 244.3465,315.2908 244.8101,315.2681 245.2692,315.2 245.7195,315.0872 246.1565,314.9308 246.5762,314.7323 246.9743,314.4937 247.3471,314.2172 247.6911,313.9055 248.0028,313.5615 248.2793,313.1887 248.5179,312.7906 248.7164,312.3709 248.8728,311.9339 248.9855,311.4836 249.0537,311.0245 249.0764,310.5609 249.0537,310.0972 248.9855,309.6381"/>
    <polygon points="212.7165,298.6989 212.1476,297.7498 211.4884,296.8609 210.7452,296.041 209.9253,295.2978 209.0364,294.6386 208.0873,294.0697 207.0869,293.5966 206.045,293.2238 204.9716,292.9549 203.8769,292.7925 202.7717,292.7382 201.6664,292.7925 200.5718,292.9549 199.4983,293.2238 198.4564,293.5966 197.456,294.0697 196.5069,294.6386 195.618,295.2978 194.7981,296.041 194.055,296.8609 193.3957,297.7498 192.8268,298.6989 192.3537,299.6993 191.9809,300.7412 191.712,301.8146 191.5496,302.9093 191.4953,304.0145 191.5496,305.1198 191.712,306.2144 191.9809,307.2879 192.3537,308.3298 192.8268,309.3301 193.3957,310.2793 194.055,311.1681 194.7981,311.9881 195.618,312.7312 196.5069,313.3904 197.456,313.9593 198.4564,314.4325 199.4983,314.8053 200.5718,315.0742 201.6664,315.2365 202.7717,315.2908 203.8769,315.2365 204.9716,315.0742 206.045,314.8053 207.0869,314.4325 208.0873,313.9593 209.0364,313.3904 209.9253,312.7312 210.7452,311.9881 211.4884,311.1681 212.1476,310.2793 212.7165,309.3301 213.1896,308.3298 213.5624,307.2879 213.8313,306.2144 213.9937,305.1198 214.048,304.0145 213.9937,302.9093 213.8313,301.8146 213.5624,300.7412 213.1896,299.6993"/>
    <polygon points="191.3165,292.0271 191.3708,290.9219 191.3165,289.8166 191.1541,288.722 190.8852,287.6485 190.5124,286.6066 190.0393,285.6062 189.4704,284.6571 188.8112,283.7682 188.068,282.9483 187.2481,282.2052 186.3593,281.546 185.4101,280.977 184.4097,280.5039 183.3678,280.1311 182.2944,279.8622 181.1998,279.6999 180.0945,279.6456 178.9892,279.6999 177.8946,279.8622 176.8211,280.1311 175.7792,280.5039 174.7789,280.977 173.8297,281.546 172.9409,282.2052 172.1209,282.9483 171.3778,283.7682 170.7186,284.6571 170.1497,285.6062 169.6765,286.6066 169.3037,287.6485 169.0349,288.722 168.8725,289.8166 168.8182,290.9219 168.8725,292.0271 169.0349,293.1218 169.3037,294.1952 169.6765,295.2371 170.1497,296.2375 170.7186,297.1866 171.3778,298.0755 172.1209,298.8954 172.9409,299.6386 173.8297,300.2978 174.7789,300.8667 175.7792,301.3398 176.8211,301.7126 177.8946,301.9815 178.9892,302.1439 180.0945,302.1982 181.1998,302.1439 182.2944,301.9815 183.3678,301.7126 184.4097,301.3398 185.4101,300.8667 186.3593,300.2978 187.2481,299.6386 188.068,298.8954 188.8112,298.0755 189.4704,297.1866 190.0393,296.2375 190.5124,295.2371 190.8852,294.1952 191.1541,293.1218"/>
    <polygon points="250.3259,214.3989 251.3993,214.6678 252.4412,215.0406 253.4416,215.5137 254.3908,216.0826 255.2796,216.7418 256.0995,217.485 256.8427,218.3049 257.5019,219.1937 258.0708,220.1429 258.5439,221.1433 258.9167,222.1852 259.1856,223.2586 259.348,224.3533 259.4023,225.4585 259.348,226.5638 259.1856,227.6584 258.9167,228.7319 258.5439,229.7738 258.0708,230.7741 257.5019,231.7233 256.8427,232.6121 256.0995,233.4321 255.2796,234.1752 254.3908,234.8344 253.4416,235.4033 252.4412,235.8765 251.3993,236.2493 250.3259,236.5182 249.2313,236.6805 248.126,236.7348 247.0207,236.6805 245.9261,236.5182 244.8526,236.2493 243.8107,235.8765 242.8104,235.4033 241.8612,234.8344 240.9724,234.1752 240.1524,233.4321 239.4093,232.6121 238.7501,231.7233 238.1812,230.7741 237.708,229.7738 237.3352,228.7319 237.0663,227.6584 236.904,226.5638 236.8497,225.4585 236.904,224.3533 237.0663,223.2586 237.3352,222.1852 237.708,221.1433 238.1812,220.1429 238.7501,219.1937 239.4093,218.3049 240.1524,217.485 240.9724,216.7418 241.8612,216.0826 242.8104,215.5137 243.8107,215.0406 244.8526,214.6678 245.9261,214.3989 247.0207,214.2365 248.126,214.1822 249.2313,214.2365"/>
    <polygon points="262.4973,217.5392 262.6537,217.1021 262.8522,216.6825 263.0908,216.2844 263.3673,215.9115 263.679,215.5676 264.023,215.2559 264.3958,214.9794 264.7939,214.7407 265.2135,214.5423 265.6506,214.3859 266.1009,214.2731 266.56,214.205 267.0236,214.1822 267.4872,214.205 267.9464,214.2731 268.3967,214.3859 268.8337,214.5423 269.2533,214.7407 269.6515,214.9794 270.0243,215.2559 270.3682,215.5676 270.6799,215.9115 270.9565,216.2844 271.1951,216.6825 271.3935,217.1021 271.5499,217.5392 271.6627,217.9894 271.7308,218.4486 271.7536,218.9122 271.7308,219.3758 271.6627,219.835 271.5499,220.2852 271.3935,220.7223 271.1951,221.1419 270.9565,221.54 270.6799,221.9129 270.3682,222.2568 270.0243,222.5685 269.6515,222.845 269.2533,223.0837 268.8337,223.2821 268.3967,223.4385 267.9464,223.5513 267.4872,223.6194 267.0236,223.6422 266.56,223.6194 266.1009,223.5513 265.6506,223.4385 265.2135,223.2821 264.7939,223.0837 264.3958,222.845 264.023,222.5685 263.679,222.2568 263.3673,221.9129 263.0908,221.54 262.8522,221.1419 262.6537,220.7223 262.4973,220.2852 262.3845,219.835 262.3164,219.3758 262.2936,218.9122 262.3164,218.4486 262.3845,217.9894"/>
    <polygon points="299.6663,220.9322 300.1166,220.8194 300.5758,220.7513 301.0394,220.7286 301.503,220.7513 301.9621,220.8194 302.4124,220.9322 302.8495,221.0886 303.2691,221.2871 303.6672,221.5257 304.04,221.8022 304.384,222.1139 304.6957,222.4579 304.9722,222.8307 305.2108,223.2288 305.4093,223.6484 305.5657,224.0855 305.6785,224.5358 305.7466,224.9949 305.7693,225.4585 305.7466,225.9221 305.6785,226.3813 305.5657,226.8316 305.4093,227.2686 305.2108,227.6882 304.9722,228.0864 304.6957,228.4592 304.384,228.8031 304.04,229.1148 303.6672,229.3914 303.2691,229.63 302.8495,229.8285 302.4124,229.9848 301.9621,230.0976 301.503,230.1657 301.0394,230.1885 300.5758,230.1657 300.1166,230.0976 299.6663,229.9848 299.2293,229.8285 298.8097,229.63 298.4115,229.3914 298.0387,229.1148 297.6948,228.8031 297.3831,228.4592 297.1065,228.0864 296.8679,227.6882 296.6694,227.2686 296.5131,226.8316 296.4003,226.3813 296.3322,225.9221 296.3094,225.4585 296.3322,224.9949 296.4003,224.5358 296.5131,224.0855 296.6694,223.6484 296.8679,223.2288 297.1065,222.8307 297.3831,222.4579 297.6948,222.1139 298.0387,221.8022 298.4115,221.5257 298.8097,221.2871 299.2293,221.0886"/>
    <polygon points="292.7015,228.3485 293.0454,228.6603 293.3571,229.0042 293.6336,229.377 293.8723,229.7752 294.0707,230.1948 294.2271,230.6318 294.3399,231.0821 294.408,231.5412 294.4308,232.0049 294.408,232.4685 294.3399,232.9276 294.2271,233.3779 294.0707,233.8149 293.8723,234.2346 293.6336,234.6327 293.3571,235.0055 293.0454,235.3495 292.7015,235.6612 292.3286,235.9377 291.9305,236.1763 291.5109,236.3748 291.0738,236.5312 290.6236,236.6439 290.1644,236.7121 289.7008,236.7348 289.2372,236.7121 288.778,236.6439 288.3277,236.5312 287.8907,236.3748 287.4711,236.1763 287.073,235.9377 286.7001,235.6612 286.3562,235.3495 286.0445,235.0055 285.768,234.6327 285.5293,234.2346 285.3309,233.8149 285.1745,233.3779 285.0617,232.9276 284.9936,232.4685 284.9708,232.0049 284.9936,231.5412 285.0617,231.0821 285.1745,230.6318 285.3309,230.1948 285.5293,229.7752 285.768,229.377 286.0445,229.0042 286.3562,228.6603 286.7001,228.3485 287.073,228.072 287.4711,227.8334 287.8907,227.6349 288.3277,227.4786 288.778,227.3658 289.2372,227.2977 289.7008,227.2749 290.1644,227.2977 290.6236,227.3658 291.0738,227.4786 291.5109,227.6349 291.9305,227.8334 292.3286,228.072"/>
    <polygon points="294.3399,246.0203 294.2271,246.4706 294.0707,246.9076 293.8723,247.3272 293.6336,247.7254 293.3571,248.0982 293.0454,248.4421 292.7015,248.7538 292.3286,249.0304 291.9305,249.269 291.5109,249.4675 291.0738,249.6238 290.6236,249.7366 290.1644,249.8047 289.7008,249.8275 289.2372,249.8047 288.778,249.7366 288.3277,249.6238 287.8907,249.4675 287.4711,249.269 287.073,249.0304 286.7001,248.7538 286.3562,248.4421 286.0445,248.0982 285.768,247.7254 285.5293,247.3272 285.3309,246.9076 285.1745,246.4706 285.0617,246.0203 284.9936,245.5611 284.9708,245.0975 284.9936,244.6339 285.0617,244.1748 285.1745,243.7245 285.3309,243.2874 285.5293,242.8678 285.768,242.4697 286.0445,242.0969 286.3562,241.7529 286.7001,241.4412 287.073,241.1647 287.4711,240.9261 287.8907,240.7276 288.3277,240.5712 288.778,240.4584 289.2372,240.3903 289.7008,240.3676 290.1644,240.3903 290.6236,240.4584 291.0738,240.5712 291.5109,240.7276 291.9305,240.9261 292.3286,241.1647 292.7015,241.4412 293.0454,241.7529 293.3571,242.0969 293.6336,242.4697 293.8723,242.8678 294.0707,243.2874 294.2271,243.7245 294.3399,244.1748 294.408,244.6339 294.4308,245.0975 294.408,245.5611"/>
    <polygon points="291.9305,262.3617 291.5109,262.5601 291.0738,262.7165 290.6236,262.8293 290.1644,262.8974 289.7008,262.9202 289.2372,262.8974 288.778,262.8293 288.3277,262.7165 287.8907,262.5601 287.4711,262.3617 287.073,262.123 286.7001,261.8465 286.3562,261.5348 286.0445,261.1909 285.768,260.818 285.5293,260.4199 285.3309,260.0003 285.1745,259.5632 285.0617,259.113 284.9936,258.6538 284.9708,258.1902 284.9936,257.7266 285.0617,257.2674 285.1745,256.8172 285.3309,256.3801 285.5293,255.9605 285.768,255.5624 286.0445,255.1895 286.3562,254.8456 286.7001,254.5339 287.073,254.2574 287.4711,254.0187 287.8907,253.8203 288.3277,253.6639 288.778,253.5511 289.2372,253.483 289.7008,253.4602 290.1644,253.483 290.6236,253.5511 291.0738,253.6639 291.5109,253.8203 291.9305,254.0187 292.3286,254.2574 292.7015,254.5339 293.0454,254.8456 293.3571,255.1895 293.6336,255.5624 293.8723,255.9605 294.0707,256.3801 294.2271,256.8172 294.3399,257.2674 294.408,257.7266 294.4308,258.1902 294.408,258.6538 294.3399,259.113 294.2271,259.5632 294.0707,260.0003 293.8723,260.4199 293.6336,260.818 293.3571,261.1909 293.0454,261.5348 292.7015,261.8465 292.3286,262.123"/>
    <polygon points="282.0252,263.6313 282.0795,264.7365 282.0252,265.8418 281.8628,266.9364 281.5939,268.0099 281.2211,269.0518 280.748,270.0521 280.1791,271.0013 279.5199,271.8901 278.7767,272.7101 277.9568,273.4532 277.0679,274.1124 276.1188,274.6813 275.1184,275.1545 274.0765,275.5273 273.003,275.7962 271.9084,275.9585 270.8031,276.0128 269.6979,275.9585 268.6033,275.7962 267.5298,275.5273 266.4879,275.1545 265.4875,274.6813 264.5384,274.1124 263.6495,273.4532 262.8296,272.7101 262.0864,271.8901 261.4272,271.0013 260.8583,270.0521 260.3852,269.0518 260.0124,268.0099 259.7435,266.9364 259.5811,265.8418 259.5268,264.7365 259.5811,263.6313 259.7435,262.5366 260.0124,261.4632 260.3852,260.4213 260.8583,259.4209 261.4272,258.4717 262.0864,257.5829 262.8296,256.763 263.6495,256.0198 264.5384,255.3606 265.4875,254.7917 266.4879,254.3186 267.5298,253.9458 268.6033,253.6769 269.6979,253.5145 270.8031,253.4602 271.9084,253.5145 273.003,253.6769 274.0765,253.9458 275.1184,254.3186 276.1188,254.7917 277.0679,255.3606 277.9568,256.0198 278.7767,256.763 279.5199,257.5829 280.1791,258.4717 280.748,259.4209 281.2211,260.4213 281.5939,261.4632 281.8628,262.5366"/>
    <polygon points="268.6033,249.6108 267.5298,249.3419 266.4879,248.9691 265.4875,248.496 264.5384,247.9271 263.6495,247.2679 262.8296,246.5247 262.0864,245.7048 261.4272,244.816 260.8583,243.8668 260.3852,242.8664 260.0124,241.8245 259.7435,240.7511 259.5811,239.6565 259.5268,238.5512 259.5811,237.4459 259.7435,236.3513 260.0124,235.2779 260.3852,234.2359 260.8583,233.2356 261.4272,232.2864 262.0864,231.3976 262.8296,230.5776 263.6495,229.8345 264.5384,229.1753 265.4875,228.6064 266.4879,228.1332 267.5298,227.7604 268.6033,227.4916 269.6979,227.3292 270.8031,227.2749 271.9084,227.3292 273.003,227.4916 274.0765,227.7604 275.1184,228.1332 276.1188,228.6064 277.0679,229.1753 277.9568,229.8345 278.7767,230.5776 279.5199,231.3976 280.1791,232.2864 280.748,233.2356 281.2211,234.2359 281.5939,235.2779 281.8628,236.3513 282.0252,237.4459 282.0795,238.5512 282.0252,239.6565 281.8628,240.7511 281.5939,241.8245 281.2211,242.8664 280.748,243.8668 280.1791,244.816 279.5199,245.7048 278.7767,246.5247 277.9568,247.2679 277.0679,247.9271 276.1188,248.496 275.1184,248.9691 274.0765,249.3419 273.003,249.6108 271.9084,249.7732 270.8031,249.8275 269.6979,249.7732"/>
    <polygon points="253.4416,261.5887 252.4412,262.0618 251.3993,262.4346 250.3259,262.7035 249.2313,262.8659 248.126,262.9202 247.0207,262.8659 245.9261,262.7035 244.8526,262.4346 243.8107,262.0618 242.8104,261.5887 241.8612,261.0198 240.9724,260.3606 240.1524,259.6174 239.4093,258.7975 238.7501,257.9086 238.1812,256.9595 237.708,255.9591 237.3352,254.9172 237.0663,253.8438 236.904,252.7491 236.8497,251.6439 236.904,250.5386 237.0663,249.444 237.3352,248.3705 237.708,247.3286 238.1812,246.3282 238.7501,245.3791 239.4093,244.4902 240.1524,243.6703 240.9724,242.9272 241.8612,242.268 242.8104,241.699 243.8107,241.2259 244.8526,240.8531 245.9261,240.5842 247.0207,240.4219 248.126,240.3676 249.2313,240.4219 250.3259,240.5842 251.3993,240.8531 252.4412,241.2259 253.4416,241.699 254.3908,242.268 255.2796,242.9272 256.0995,243.6703 256.8427,244.4902 257.5019,245.3791 258.0708,246.3282 258.5439,247.3286 258.9167,248.3705 259.1856,249.444 259.348,250.5386 259.4023,251.6439 259.348,252.7491 259.1856,253.8438 258.9167,254.9172 258.5439,255.9591 258.0708,256.9595 257.5019,257.9086 256.8427,258.7975 256.0995,259.6174 255.2796,260.3606 254.3908,261.0198"/>
    <polygon points="249.2313,266.6072 250.3259,266.7696 251.3993,267.0384 252.4412,267.4112 253.4416,267.8844 254.3908,268.4533 255.2796,269.1125 256.0995,269.8556 256.8427,270.6756 257.5019,271.5644 258.0708,272.5136 258.5439,273.5139 258.9167,274.5559 259.1856,275.6293 259.348,276.7239 259.4023,277.8292 259.348,278.9345 259.1856,280.0291 258.9167,281.1025 258.5439,282.1445 258.0708,283.1448 257.5019,284.094 256.8427,284.9828 256.0995,285.8027 255.2796,286.5459 254.3908,287.2051 253.4416,287.774 252.4412,288.2471 251.3993,288.6199 250.3259,288.8888 249.2313,289.0512 248.126,289.1055 247.0207,289.0512 245.9261,288.8888 244.8526,288.6199 243.8107,288.2471 242.8104,287.774 241.8612,287.2051 240.9724,286.5459 240.1524,285.8027 239.4093,284.9828 238.7501,284.094 238.1812,283.1448 237.708,282.1445 237.3352,281.1025 237.0663,280.0291 236.904,278.9345 236.8497,277.8292 236.904,276.7239 237.0663,275.6293 237.3352,274.5559 237.708,273.5139 238.1812,272.5136 238.7501,271.5644 239.4093,270.6756 240.1524,269.8556 240.9724,269.1125 241.8612,268.4533 242.8104,267.8844 243.8107,267.4112 244.8526,267.0384 245.9261,266.7696 247.0207,266.6072 248.126,266.5529"/>
    <polygon points="278.7767,282.9483 277.9568,282.2052 277.0679,281.546 276.1188,280.977 275.1184,280.5039 274.0765,280.1311 273.003,279.8622 271.9084,279.6999 270.8031,279.6456 269.6979,279.6999 268.6033,279.8622 267.5298,280.1311 266.4879,280.5039 265.4875,280.977 264.5384,281.546 263.6495,282.2052 262.8296,282.9483 262.0864,283.7682 261.4272,284.6571 260.8583,285.6062 260.3852,286.6066 260.0124,287.6485 259.7435,288.722 259.5811,289.8166 259.5268,290.9219 259.5811,292.0271 259.7435,293.1218 260.0124,294.1952 260.3852,295.2371 260.8583,296.2375 261.4272,297.1866 262.0864,298.0755 262.8296,298.8954 263.6495,299.6386 264.5384,300.2978 265.4875,300.8667 266.4879,301.3398 267.5298,301.7126 268.6033,301.9815 269.6979,302.1439 270.8031,302.1982 271.9084,302.1439 273.003,301.9815 274.0765,301.7126 275.1184,301.3398 276.1188,300.8667 277.0679,300.2978 277.9568,299.6386 278.7767,298.8954 279.5199,298.0755 280.1791,297.1866 280.748,296.2375 281.2211,295.2371 281.5939,294.1952 281.8628,293.1218 282.0252,292.0271 282.0795,290.9219 282.0252,289.8166 281.8628,288.722 281.5939,287.6485 281.2211,286.6066 280.748,285.6062 280.1791,284.6571 279.5199,283.7682"/>
    <polygon points="294.3399,296.5454 294.2271,296.0952 294.0707,295.6581 293.8723,295.2385 293.6336,294.8404 293.3571,294.4675 293.0454,294.1236 292.7015,293.8119 292.3286,293.5354 291.9305,293.2967 291.5109,293.0983 291.0738,292.9419 290.6236,292.8291 290.1644,292.761 289.7008,292.7382 289.2372,292.761 288.778,292.8291 288.3277,292.9419 287.8907,293.0983 287.4711,293.2967 287.073,293.5354 286.7001,293.8119 286.3562,294.1236 286.0445,294.4675 285.768,294.8404 285.5293,295.2385 285.3309,295.6581 285.1745,296.0952 285.0617,296.5454 284.9936,297.0046 284.9708,297.4682 284.9936,297.9318 285.0617,298.391 285.1745,298.8412 285.3309,299.2783 285.5293,299.6979 285.768,300.096 286.0445,300.4689 286.3562,300.8128 286.7001,301.1245 287.073,301.401 287.4711,301.6397 287.8907,301.8381 288.3277,301.9945 288.778,302.1073 289.2372,302.1754 289.7008,302.1982 290.1644,302.1754 290.6236,302.1073 291.0738,301.9945 291.5109,301.8381 291.9305,301.6397 292.3286,301.401 292.7015,301.1245 293.0454,300.8128 293.3571,300.4689 293.6336,300.096 293.8723,299.6979 294.0707,299.2783 294.2271,298.8412 294.3399,298.391 294.408,297.9318 294.4308,297.4682 294.408,297.0046"/>
    <polygon points="304.7566,277.8292 304.7023,276.7239 304.54,275.6293 304.2711,274.5559 303.8983,273.5139 303.4251,272.5136 302.8562,271.5644 302.197,270.6756 301.4539,269.8556 300.6339,269.1125 299.7451,268.4533 298.7959,267.8844 297.7956,267.4112 296.7537,267.0384 295.6802,266.7696 294.5856,266.6072 293.4803,266.5529 292.375,266.6072 291.2804,266.7696 290.207,267.0384 289.1651,267.4112 288.1647,267.8844 287.2155,268.4533 286.3267,269.1125 285.5068,269.8556 284.7636,270.6756 284.1044,271.5644 283.5355,272.5136 283.0624,273.5139 282.6896,274.5559 282.4207,275.6293 282.2583,276.7239 282.204,277.8292 282.2583,278.9345 282.4207,280.0291 282.6896,281.1025 283.0624,282.1445 283.5355,283.1448 284.1044,284.094 284.7636,284.9828 285.5068,285.8027 286.3267,286.5459 287.2155,287.2051 288.1647,287.774 289.1651,288.2471 290.207,288.6199 291.2804,288.8888 292.375,289.0512 293.4803,289.1055 294.5856,289.0512 295.6802,288.8888 296.7537,288.6199 297.7956,288.2471 298.7959,287.774 299.7451,287.2051 300.6339,286.5459 301.4539,285.8027 302.197,284.9828 302.8562,284.094 303.4251,283.1448 303.8983,282.1445 304.2711,281.1025 304.54,280.0291 304.7023,278.9345"/>
    <polygon points="316.9043,283.0025 316.7479,282.5654 316.5494,282.1458 316.3108,281.7477 316.0343,281.3749 315.7225,281.0309 315.3786,280.7192 315.0058,280.4427 314.6076,280.2041 314.188,280.0056 313.751,279.8492 313.3007,279.7364 312.8416,279.6683 312.378,279.6456 311.9143,279.6683 311.4552,279.7364 311.0049,279.8492 310.5679,280.0056 310.1483,280.2041 309.7501,280.4427 309.3773,280.7192 309.0334,281.0309 308.7216,281.3749 308.4451,281.7477 308.2065,282.1458 308.008,282.5654 307.8517,283.0025 307.7389,283.4528 307.6708,283.9119 307.648,284.3755 307.6708,284.8391 307.7389,285.2983 307.8517,285.7486 308.008,286.1856 308.2065,286.6052 308.4451,287.0034 308.7216,287.3762 309.0334,287.7201 309.3773,288.0318 309.7501,288.3084 310.1483,288.547 310.5679,288.7455 311.0049,288.9018 311.4552,289.0146 311.9143,289.0827 312.378,289.1055 312.8416,289.0827 313.3007,289.0146 313.751,288.9018 314.188,288.7455 314.6076,288.547 315.0058,288.3084 315.3786,288.0318 315.7225,287.7201 316.0343,287.3762 316.3108,287.0034 316.5494,286.6052 316.7479,286.1856 316.9043,285.7486 317.017,285.2983 317.0851,284.8391 317.1079,284.3755 317.0851,283.9119 317.017,283.4528"/>
  </g>
</svg>
