<?xml version="1.0" encoding="utf-8" ?>
<svg xmlns="http://www.w3.org/2000/svg" xmlns:cc="http://creativecommons.org/ns" xmlns:dc="http://purl.org/dc/elements/1.1/" xmlns:ev="http://www.w3.org/2001/xml-events" xmlns:inkscape="http://www.inkscape.org/namespaces/inkscape" xmlns:rdf="http://www.w3.org/1999/02/22-rdf-syntax-ns" xmlns:sodipodi="http://sodipodi.sourceforge.net/DTD/sodipodi-0.dtd" xmlns:xlink="http://www.w3.org/1999/xlink" baseProfile="tiny" height="15.875cm" version="1.2" viewBox="0 0 432.0 600.0" width="11.43cm">
  <metadata>
    <rdf:RDF>
      <cc:Work>
        <dc:format>image/svg+xml</dc:format>
        <dc:source>vsk save -s 161 -c hex-grid/config/bubble-coasters-2.json /Users/tobin/src/fabian/plotting/fabian-plotting/hex-grid/sketch_hex_grid.py</dc:source>
        <dc:date>2023-11-04T10:32:59.557616</dc:date>
      </cc:Work>
    </rdf:RDF>
  </metadata>
  <defs/>
  <g fill="none" id="layer1" inkscape:groupmode="layer" inkscape:label="1" stroke="#000000" stroke-width="0.7559" style="display:inline">
    <polygon points="310.8801,260.4199 310.6415,260.818 310.365,261.1909 310.0533,261.5348 309.7093,261.8465 309.3365,262.123 308.9384,262.3617 308.5187,262.5601 308.0817,262.7165 307.6314,262.8293 307.1723,262.8974 306.7087,262.9202 306.245,262.8974 305.7859,262.8293 305.3356,262.7165 304.8986,262.5601 304.479,262.3617 304.0808,262.123 303.708,261.8465 303.3641,261.5348 303.0523,261.1909 302.7758,260.818 302.5372,260.4199 302.3387,260.0003 302.1824,259.5632 302.0696,259.113 302.0015,258.6538 301.9787,258.1902 302.0015,257.7266 302.0696,257.2674 302.1824,256.8172 302.3387,256.3801 302.5372,255.9605 302.7758,255.5624 303.0523,255.1895 303.3641,254.8456 303.708,254.5339 304.0808,254.2574 304.479,254.0187 304.8986,253.8203 305.3356,253.6639 305.7859,253.5511 306.245,253.483 306.7087,253.4602 307.1723,253.483 307.6314,253.5511 308.0817,253.6639 308.5187,253.8203 308.9384,254.0187 309.3365,254.2574 309.7093,254.5339 310.0533,254.8456 310.365,255.1895 310.6415,255.5624 310.8801,255.9605 311.0786,256.3801 311.235,256.8172 311.3477,257.2674 311.4159,257.7266 311.4386,258.1902 311.4159,258.6538 311.3477,259.113 311.235,259.5632 311.0786,260.0003"/>
    <polygon points="299.8964,266.1096 299.74,266.5466 299.5415,266.9662 299.3029,267.3644 299.0264,267.7372 298.7147,268.0811 298.3707,268.3928 297.9979,268.6694 297.5998,268.908 297.1802,269.1065 296.7431,269.2628 296.2929,269.3756 295.8337,269.4437 295.3701,269.4665 294.9065,269.4437 294.4473,269.3756 293.997,269.2628 293.56,269.1065 293.1404,268.908 292.7422,268.6694 292.3694,268.3928 292.0255,268.0811 291.7138,267.7372 291.4373,267.3644 291.1986,266.9662 291.0002,266.5466 290.8438,266.1096 290.731,265.6593 290.6629,265.2001 290.6401,264.7365 290.6629,264.2729 290.731,263.8138 290.8438,263.3635 291.0002,262.9264 291.1986,262.5068 291.4373,262.1087 291.7138,261.7359 292.0255,261.3919 292.3694,261.0802 292.7422,260.8037 293.1404,260.5651 293.56,260.3666 293.997,260.2102 294.4473,260.0974 294.9065,260.0293 295.3701,260.0066 295.8337,260.0293 296.2929,260.0974 296.7431,260.2102 297.1802,260.3666 297.5998,260.5651 297.9979,260.8037 298.3707,261.0802 298.7147,261.3919 299.0264,261.7359 299.3029,262.1087 299.5415,262.5068 299.74,262.9264 299.8964,263.3635 300.0092,263.8138 300.0773,264.2729 300.1001,264.7365 300.0773,265.2001 300.0092,265.6593"/>
    <polygon points="280.0987,255.5624 279.86,255.9605 279.6616,256.3801 279.5052,256.8172 279.3924,257.2674 279.3243,257.7266 279.3015,258.1902 279.3243,258.6538 279.3924,259.113 279.5052,259.5632 279.6616,260.0003 279.86,260.4199 280.0987,260.818 280.3752,261.1909 280.6869,261.5348 281.0308,261.8465 281.4037,262.123 281.8018,262.3617 282.2214,262.5601 282.6585,262.7165 283.1087,262.8293 283.5679,262.8974 284.0315,262.9202 284.4951,262.8974 284.9543,262.8293 285.4045,262.7165 285.8416,262.5601 286.2612,262.3617 286.6593,262.123 287.0322,261.8465 287.3761,261.5348 287.6878,261.1909 287.9643,260.818 288.203,260.4199 288.4014,260.0003 288.5578,259.5632 288.6706,259.113 288.7387,258.6538 288.7615,258.1902 288.7387,257.7266 288.6706,257.2674 288.5578,256.8172 288.4014,256.3801 288.203,255.9605 287.9643,255.5624 287.6878,255.1895 287.3761,254.8456 287.0322,254.5339 286.6593,254.2574 286.2612,254.0187 285.8416,253.8203 285.4045,253.6639 284.9543,253.5511 284.4951,253.483 284.0315,253.4602 283.5679,253.483 283.1087,253.5511 282.6585,253.6639 282.2214,253.8203 281.8018,254.0187 281.4037,254.2574 281.0308,254.5339 280.6869,254.8456 280.3752,255.1895"/>
    <polygon points="280.0987,247.7254 280.3752,248.0982 280.6869,248.4421 281.0308,248.7538 281.4037,249.0304 281.8018,249.269 282.2214,249.4675 282.6585,249.6238 283.1087,249.7366 283.5679,249.8047 284.0315,249.8275 284.4951,249.8047 284.9543,249.7366 285.4045,249.6238 285.8416,249.4675 286.2612,249.269 286.6593,249.0304 287.0322,248.7538 287.3761,248.4421 287.6878,248.0982 287.9643,247.7254 288.203,247.3272 288.4014,246.9076 288.5578,246.4706 288.6706,246.0203 288.7387,245.5611 288.7615,245.0975 288.7387,244.6339 288.6706,244.1748 288.5578,243.7245 288.4014,243.2874 288.203,242.8678 287.9643,242.4697 287.6878,242.0969 287.3761,241.7529 287.0322,241.4412 286.6593,241.1647 286.2612,240.9261 285.8416,240.7276 285.4045,240.5712 284.9543,240.4584 284.4951,240.3903 284.0315,240.3676 283.5679,240.3903 283.1087,240.4584 282.6585,240.5712 282.2214,240.7276 281.8018,240.9261 281.4037,241.1647 281.0308,241.4412 280.6869,241.7529 280.3752,242.0969 280.0987,242.4697 279.86,242.8678 279.6616,243.2874 279.5052,243.7245 279.3924,244.1748 279.3243,244.6339 279.3015,245.0975 279.3243,245.5611 279.3924,246.0203 279.5052,246.4706 279.6616,246.9076 279.86,247.3272"/>
    <polygon points="269.6923,255.3002 269.3483,254.9885 269.0366,254.6445 268.7601,254.2717 268.5214,253.8736 268.323,253.4539 268.1666,253.0169 268.0538,252.5666 267.9857,252.1075 267.9629,251.6439 267.9857,251.1802 268.0538,250.7211 268.1666,250.2708 268.323,249.8338 268.5214,249.4142 268.7601,249.016 269.0366,248.6432 269.3483,248.2993 269.6923,247.9875 270.0651,247.711 270.4632,247.4724 270.8828,247.2739 271.3199,247.1176 271.7701,247.0048 272.2293,246.9367 272.6929,246.9139 273.1565,246.9367 273.6157,247.0048 274.066,247.1176 274.503,247.2739 274.9226,247.4724 275.3207,247.711 275.6936,247.9875 276.0375,248.2993 276.3492,248.6432 276.6257,249.016 276.8644,249.4142 277.0628,249.8338 277.2192,250.2708 277.332,250.7211 277.4001,251.1802 277.4229,251.6439 277.4001,252.1075 277.332,252.5666 277.2192,253.0169 277.0628,253.4539 276.8644,253.8736 276.6257,254.2717 276.3492,254.6445 276.0375,254.9885 275.6936,255.3002 275.3207,255.5767 274.9226,255.8153 274.503,256.0138 274.066,256.1702 273.6157,256.2829 273.1565,256.3511 272.6929,256.3738 272.2293,256.3511 271.7701,256.2829 271.3199,256.1702 270.8828,256.0138 270.4632,255.8153 270.0651,255.5767"/>
    <polygon points="265.2872,255.5624 265.5258,255.9605 265.7243,256.3801 265.8806,256.8172 265.9934,257.2674 266.0615,257.7266 266.0843,258.1902 266.0615,258.6538 265.9934,259.113 265.8806,259.5632 265.7243,260.0003 265.5258,260.4199 265.2872,260.818 265.0106,261.1909 264.6989,261.5348 264.355,261.8465 263.9822,262.123 263.584,262.3617 263.1644,262.5601 262.7274,262.7165 262.2771,262.8293 261.8179,262.8974 261.3543,262.9202 260.8907,262.8974 260.4316,262.8293 259.9813,262.7165 259.5442,262.5601 259.1246,262.3617 258.7265,262.123 258.3537,261.8465 258.0097,261.5348 257.698,261.1909 257.4215,260.818 257.1829,260.4199 256.9844,260.0003 256.828,259.5632 256.7152,259.113 256.6471,258.6538 256.6244,258.1902 256.6471,257.7266 256.7152,257.2674 256.828,256.8172 256.9844,256.3801 257.1829,255.9605 257.4215,255.5624 257.698,255.1895 258.0097,254.8456 258.3537,254.5339 258.7265,254.2574 259.1246,254.0187 259.5442,253.8203 259.9813,253.6639 260.4316,253.5511 260.8907,253.483 261.3543,253.4602 261.8179,253.483 262.2771,253.5511 262.7274,253.6639 263.1644,253.8203 263.584,254.0187 263.9822,254.2574 264.355,254.5339 264.6989,254.8456 265.0106,255.1895"/>
    <polygon points="265.7243,246.9076 265.5258,247.3272 265.2872,247.7254 265.0106,248.0982 264.6989,248.4421 264.355,248.7538 263.9822,249.0304 263.584,249.269 263.1644,249.4675 262.7274,249.6238 262.2771,249.7366 261.8179,249.8047 261.3543,249.8275 260.8907,249.8047 260.4316,249.7366 259.9813,249.6238 259.5442,249.4675 259.1246,249.269 258.7265,249.0304 258.3537,248.7538 258.0097,248.4421 257.698,248.0982 257.4215,247.7254 257.1829,247.3272 256.9844,246.9076 256.828,246.4706 256.7152,246.0203 256.6471,245.5611 256.6244,245.0975 256.6471,244.6339 256.7152,244.1748 256.828,243.7245 256.9844,243.2874 257.1829,242.8678 257.4215,242.4697 257.698,242.0969 258.0097,241.7529 258.3537,241.4412 258.7265,241.1647 259.1246,240.9261 259.5442,240.7276 259.9813,240.5712 260.4316,240.4584 260.8907,240.3903 261.3543,240.3676 261.8179,240.3903 262.2771,240.4584 262.7274,240.5712 263.1644,240.7276 263.584,240.9261 263.9822,241.1647 264.355,241.4412 264.6989,241.7529 265.0106,242.0969 265.2872,242.4697 265.5258,242.8678 265.7243,243.2874 265.8806,243.7245 265.9934,244.1748 266.0615,244.6339 266.0843,245.0975 266.0615,245.5611 265.9934,246.0203 265.8806,246.4706"/>
    <polygon points="234.0381,231.0821 234.1509,230.6318 234.3072,230.1948 234.5057,229.7752 234.7443,229.377 235.0208,229.0042 235.3326,228.6603 235.6765,228.3485 236.0493,228.072 236.4475,227.8334 236.8671,227.6349 237.3041,227.4786 237.7544,227.3658 238.2135,227.2977 238.6772,227.2749 239.1408,227.2977 239.5999,227.3658 240.0502,227.4786 240.4872,227.6349 240.9069,227.8334 241.305,228.072 241.6778,228.3485 242.0218,228.6603 242.3335,229.0042 242.61,229.377 242.8486,229.7752 243.0471,230.1948 243.2035,230.6318 243.3163,231.0821 243.3844,231.5412 243.4071,232.0049 243.3844,232.4685 243.3163,232.9276 243.2035,233.3779 243.0471,233.8149 242.8486,234.2346 242.61,234.6327 242.3335,235.0055 242.0218,235.3495 241.6778,235.6612 241.305,235.9377 240.9069,236.1763 240.4872,236.3748 240.0502,236.5312 239.5999,236.6439 239.1408,236.7121 238.6772,236.7348 238.2135,236.7121 237.7544,236.6439 237.3041,236.5312 236.8671,236.3748 236.4475,236.1763 236.0493,235.9377 235.6765,235.6612 235.3326,235.3495 235.0208,235.0055 234.7443,234.6327 234.5057,234.2346 234.3072,233.8149 234.1509,233.3779 234.0381,232.9276 233.97,232.4685 233.9472,232.0049 233.97,231.5412"/>
    <polygon points="231.3971,253.8438 231.2347,252.7491 231.1804,251.6439 231.2347,250.5386 231.3971,249.444 231.6659,248.3705 232.0387,247.3286 232.5119,246.3282 233.0808,245.3791 233.74,244.4902 234.4831,243.6703 235.3031,242.9272 236.1919,242.268 237.1411,241.699 238.1414,241.2259 239.1834,240.8531 240.2568,240.5842 241.3514,240.4219 242.4567,240.3676 243.562,240.4219 244.6566,240.5842 245.73,240.8531 246.7719,241.2259 247.7723,241.699 248.7215,242.268 249.6103,242.9272 250.4302,243.6703 251.1734,244.4902 251.8326,245.3791 252.4015,246.3282 252.8746,247.3286 253.2474,248.3705 253.5163,249.444 253.6787,250.5386 253.733,251.6439 253.6787,252.7491 253.5163,253.8438 253.2474,254.9172 252.8746,255.9591 252.4015,256.9595 251.8326,257.9086 251.1734,258.7975 250.4302,259.6174 249.6103,260.3606 248.7215,261.0198 247.7723,261.5887 246.7719,262.0618 245.73,262.4346 244.6566,262.7035 243.562,262.8659 242.4567,262.9202 241.3514,262.8659 240.2568,262.7035 239.1834,262.4346 238.1414,262.0618 237.1411,261.5887 236.1919,261.0198 235.3031,260.3606 234.4831,259.6174 233.74,258.7975 233.0808,257.9086 232.5119,256.9595 232.0387,255.9591 231.6659,254.9172"/>
    <polygon points="229.1554,271.0013 228.4962,271.8901 227.7531,272.7101 226.9331,273.4532 226.0443,274.1124 225.0951,274.6813 224.0948,275.1545 223.0529,275.5273 221.9794,275.7962 220.8848,275.9585 219.7795,276.0128 218.6743,275.9585 217.5796,275.7962 216.5062,275.5273 215.4643,275.1545 214.4639,274.6813 213.5147,274.1124 212.6259,273.4532 211.806,272.7101 211.0628,271.8901 210.4036,271.0013 209.8347,270.0521 209.3616,269.0518 208.9888,268.0099 208.7199,266.9364 208.5575,265.8418 208.5032,264.7365 208.5575,263.6313 208.7199,262.5366 208.9888,261.4632 209.3616,260.4213 209.8347,259.4209 210.4036,258.4717 211.0628,257.5829 211.806,256.763 212.6259,256.0198 213.5147,255.3606 214.4639,254.7917 215.4643,254.3186 216.5062,253.9458 217.5796,253.6769 218.6743,253.5145 219.7795,253.4602 220.8848,253.5145 221.9794,253.6769 223.0529,253.9458 224.0948,254.3186 225.0951,254.7917 226.0443,255.3606 226.9331,256.0198 227.7531,256.763 228.4962,257.5829 229.1554,258.4717 229.7243,259.4209 230.1975,260.4213 230.5703,261.4632 230.8392,262.5366 231.0015,263.6313 231.0558,264.7365 231.0015,265.8418 230.8392,266.9364 230.5703,268.0099 230.1975,269.0518 229.7243,270.0521"/>
    <polygon points="240.9069,275.4543 240.4872,275.6528 240.0502,275.8092 239.5999,275.9219 239.1408,275.9901 238.6772,276.0128 238.2135,275.9901 237.7544,275.9219 237.3041,275.8092 236.8671,275.6528 236.4475,275.4543 236.0493,275.2157 235.6765,274.9392 235.3326,274.6275 235.0208,274.2835 234.7443,273.9107 234.5057,273.5126 234.3072,273.0929 234.1509,272.6559 234.0381,272.2056 233.97,271.7465 233.9472,271.2829 233.97,270.8192 234.0381,270.3601 234.1509,269.9098 234.3072,269.4728 234.5057,269.0532 234.7443,268.655 235.0208,268.2822 235.3326,267.9383 235.6765,267.6265 236.0493,267.35 236.4475,267.1114 236.8671,266.9129 237.3041,266.7566 237.7544,266.6438 238.2135,266.5757 238.6772,266.5529 239.1408,266.5757 239.5999,266.6438 240.0502,266.7566 240.4872,266.9129 240.9069,267.1114 241.305,267.35 241.6778,267.6265 242.0218,267.9383 242.3335,268.2822 242.61,268.655 242.8486,269.0532 243.0471,269.4728 243.2035,269.9098 243.3163,270.3601 243.3844,270.8192 243.4071,271.2829 243.3844,271.7465 243.3163,272.2056 243.2035,272.6559 243.0471,273.0929 242.8486,273.5126 242.61,273.9107 242.3335,274.2835 242.0218,274.6275 241.6778,274.9392 241.305,275.2157"/>
    <polygon points="246.0829,280.457 245.8443,280.0589 245.6458,279.6393 245.4894,279.2022 245.3767,278.752 245.3086,278.2928 245.2858,277.8292 245.3086,277.3656 245.3767,276.9064 245.4894,276.4562 245.6458,276.0191 245.8443,275.5995 246.0829,275.2014 246.3594,274.8285 246.6712,274.4846 247.0151,274.1729 247.3879,273.8964 247.7861,273.6577 248.2057,273.4593 248.6427,273.3029 249.093,273.1901 249.5521,273.122 250.0157,273.0992 250.4794,273.122 250.9385,273.1901 251.3888,273.3029 251.8258,273.4593 252.2454,273.6577 252.6436,273.8964 253.0164,274.1729 253.3603,274.4846 253.6721,274.8285 253.9486,275.2014 254.1872,275.5995 254.3857,276.0191 254.542,276.4562 254.6548,276.9064 254.7229,277.3656 254.7457,277.8292 254.7229,278.2928 254.6548,278.752 254.542,279.2022 254.3857,279.6393 254.1872,280.0589 253.9486,280.457 253.6721,280.8299 253.3603,281.1738 253.0164,281.4855 252.6436,281.762 252.2454,282.0007 251.8258,282.1991 251.3888,282.3555 250.9385,282.4683 250.4794,282.5364 250.0157,282.5592 249.5521,282.5364 249.093,282.4683 248.6427,282.3555 248.2057,282.1991 247.7861,282.0007 247.3879,281.762 247.0151,281.4855 246.6712,281.1738 246.3594,280.8299"/>
    <polygon points="240.9069,293.2967 241.305,293.5354 241.6778,293.8119 242.0218,294.1236 242.3335,294.4675 242.61,294.8404 242.8486,295.2385 243.0471,295.6581 243.2035,296.0952 243.3163,296.5454 243.3844,297.0046 243.4071,297.4682 243.3844,297.9318 243.3163,298.391 243.2035,298.8412 243.0471,299.2783 242.8486,299.6979 242.61,300.096 242.3335,300.4689 242.0218,300.8128 241.6778,301.1245 241.305,301.401 240.9069,301.6397 240.4872,301.8381 240.0502,301.9945 239.5999,302.1073 239.1408,302.1754 238.6772,302.1982 238.2135,302.1754 237.7544,302.1073 237.3041,301.9945 236.8671,301.8381 236.4475,301.6397 236.0493,301.401 235.6765,301.1245 235.3326,300.8128 235.0208,300.4689 234.7443,300.096 234.5057,299.6979 234.3072,299.2783 234.1509,298.8412 234.0381,298.391 233.97,297.9318 233.9472,297.4682 233.97,297.0046 234.0381,296.5454 234.1509,296.0952 234.3072,295.6581 234.5057,295.2385 234.7443,294.8404 235.0208,294.4675 235.3326,294.1236 235.6765,293.8119 236.0493,293.5354 236.4475,293.2967 236.8671,293.0983 237.3041,292.9419 237.7544,292.8291 238.2135,292.761 238.6772,292.7382 239.1408,292.761 239.5999,292.8291 240.0502,292.9419 240.4872,293.0983"/>
    <polygon points="234.3072,286.1856 234.1509,285.7486 234.0381,285.2983 233.97,284.8391 233.9472,284.3755 233.97,283.9119 234.0381,283.4528 234.1509,283.0025 234.3072,282.5654 234.5057,282.1458 234.7443,281.7477 235.0208,281.3749 235.3326,281.0309 235.6765,280.7192 236.0493,280.4427 236.4475,280.2041 236.8671,280.0056 237.3041,279.8492 237.7544,279.7364 238.2135,279.6683 238.6772,279.6456 239.1408,279.6683 239.5999,279.7364 240.0502,279.8492 240.4872,280.0056 240.9069,280.2041 241.305,280.4427 241.6778,280.7192 242.0218,281.0309 242.3335,281.3749 242.61,281.7477 242.8486,282.1458 243.0471,282.5654 243.2035,283.0025 243.3163,283.4528 243.3844,283.9119 243.4071,284.3755 243.3844,284.8391 243.3163,285.2983 243.2035,285.7486 243.0471,286.1856 242.8486,286.6052 242.61,287.0034 242.3335,287.3762 242.0218,287.7201 241.6778,288.0318 241.305,288.3084 240.9069,288.547 240.4872,288.7455 240.0502,288.9018 239.5999,289.0146 239.1408,289.0827 238.6772,289.1055 238.2135,289.0827 237.7544,289.0146 237.3041,288.9018 236.8671,288.7455 236.4475,288.547 236.0493,288.3084 235.6765,288.0318 235.3326,287.7201 235.0208,287.3762 234.7443,287.0034 234.5057,286.6052"/>
    <polygon points="214.1899,306.1909 214.627,306.0346 215.0772,305.9218 215.5364,305.8537 216.0,305.8309 216.4636,305.8537 216.9228,305.9218 217.373,306.0346 217.8101,306.1909 218.2297,306.3894 218.6278,306.628 219.0007,306.9045 219.3446,307.2163 219.6563,307.5602 219.9328,307.933 220.1715,308.3312 220.3699,308.7508 220.5263,309.1878 220.6391,309.6381 220.7072,310.0972 220.73,310.5609 220.7072,311.0245 220.6391,311.4836 220.5263,311.9339 220.3699,312.3709 220.1715,312.7906 219.9328,313.1887 219.6563,313.5615 219.3446,313.9055 219.0007,314.2172 218.6278,314.4937 218.2297,314.7323 217.8101,314.9308 217.373,315.0872 216.9228,315.2 216.4636,315.2681 216.0,315.2908 215.5364,315.2681 215.0772,315.2 214.627,315.0872 214.1899,314.9308 213.7703,314.7323 213.3722,314.4937 212.9993,314.2172 212.6554,313.9055 212.3437,313.5615 212.0672,313.1887 211.8285,312.7906 211.6301,312.3709 211.4737,311.9339 211.3609,311.4836 211.2928,311.0245 211.27,310.5609 211.2928,310.0972 211.3609,309.6381 211.4737,309.1878 211.6301,308.7508 211.8285,308.3312 212.0672,307.933 212.3437,307.5602 212.6554,307.2163 212.9993,306.9045 213.3722,306.628 213.7703,306.3894"/>
    <polygon points="208.7199,293.1218 208.5575,292.0271 208.5032,290.9219 208.5575,289.8166 208.7199,288.722 208.9888,287.6485 209.3616,286.6066 209.8347,285.6062 210.4036,284.6571 211.0628,283.7682 211.806,282.9483 212.6259,282.2052 213.5147,281.546 214.4639,280.977 215.4643,280.5039 216.5062,280.1311 217.5796,279.8622 218.6743,279.6999 219.7795,279.6456 220.8848,279.6999 221.9794,279.8622 223.0529,280.1311 224.0948,280.5039 225.0951,280.977 226.0443,281.546 226.9331,282.2052 227.7531,282.9483 228.4962,283.7682 229.1554,284.6571 229.7243,285.6062 230.1975,286.6066 230.5703,287.6485 230.8392,288.722 231.0015,289.8166 231.0558,290.9219 231.0015,292.0271 230.8392,293.1218 230.5703,294.1952 230.1975,295.2371 229.7243,296.2375 229.1554,297.1866 228.4962,298.0755 227.7531,298.8954 226.9331,299.6386 226.0443,300.2978 225.0951,300.8667 224.0948,301.3398 223.0529,301.7126 221.9794,301.9815 220.8848,302.1439 219.7795,302.1982 218.6743,302.1439 217.5796,301.9815 216.5062,301.7126 215.4643,301.3398 214.4639,300.8667 213.5147,300.2978 212.6259,299.6386 211.806,298.8954 211.0628,298.0755 210.4036,297.1866 209.8347,296.2375 209.3616,295.2371 208.9888,294.1952"/>
    <polygon points="189.0582,301.1488 186.7384,301.7299 184.3728,302.0808 181.9843,302.1982 179.5957,302.0808 177.2301,301.7299 174.9103,301.1488 172.6586,300.3432 170.4968,299.3207 168.4456,298.0913 166.5247,296.6667 164.7528,295.0607 163.1468,293.2887 161.7222,291.3679 160.4927,289.3167 159.4703,287.1548 158.6646,284.9031 158.0835,282.5833 157.7326,280.2178 157.6153,277.8292 157.7326,275.4406 158.0835,273.075 158.6646,270.7553 159.4703,268.5036 160.4927,266.3417 161.7222,264.2905 163.1468,262.3697 164.7528,260.5977 166.5247,258.9917 168.4456,257.5671 170.4968,256.3377 172.6586,255.3152 174.9103,254.5095 177.2301,253.9285 179.5957,253.5776 181.9843,253.4602 184.3728,253.5776 186.7384,253.9285 189.0582,254.5095 191.3099,255.3152 193.4717,256.3377 195.5229,257.5671 197.4438,258.9917 199.2157,260.5977 200.8217,262.3697 202.2463,264.2905 203.4758,266.3417 204.4982,268.5036 205.3039,270.7553 205.885,273.075 206.2359,275.4406 206.3532,277.8292 206.2359,280.2178 205.885,282.5833 205.3039,284.9031 204.4982,287.1548 203.4758,289.3167 202.2463,291.3679 200.8217,293.2887 199.2157,295.0607 197.4438,296.6667 195.5229,298.0913 193.4717,299.3207 191.3099,300.3432"/>
    <polygon points="170.1099,327.5251 169.1096,327.052 168.1604,326.4831 167.2716,325.8239 166.4516,325.0808 165.7085,324.2608 165.0493,323.372 164.4804,322.4228 164.0072,321.4225 163.6344,320.3805 163.3656,319.3071 163.2032,318.2125 163.1489,317.1072 163.2032,316.0019 163.3656,314.9073 163.6344,313.8339 164.0072,312.7919 164.4804,311.7916 165.0493,310.8424 165.7085,309.9536 166.4516,309.1336 167.2716,308.3905 168.1604,307.7313 169.1096,307.1624 170.1099,306.6892 171.1519,306.3164 172.2253,306.0476 173.3199,305.8852 174.4252,305.8309 175.5305,305.8852 176.6251,306.0476 177.6985,306.3164 178.7405,306.6892 179.7408,307.1624 180.69,307.7313 181.5788,308.3905 182.3987,309.1336 183.1419,309.9536 183.8011,310.8424 184.37,311.7916 184.8431,312.7919 185.2159,313.8339 185.4848,314.9073 185.6472,316.0019 185.7015,317.1072 185.6472,318.2125 185.4848,319.3071 185.2159,320.3805 184.8431,321.4225 184.37,322.4228 183.8011,323.372 183.1419,324.2608 182.3987,325.0808 181.5788,325.8239 180.69,326.4831 179.7408,327.052 178.7405,327.5251 177.6985,327.898 176.6251,328.1668 175.5305,328.3292 174.4252,328.3835 173.3199,328.3292 172.2253,328.1668 171.1519,327.898"/>
    <polygon points="163.4786,327.9702 163.677,328.3898 163.8334,328.8268 163.9462,329.2771 164.0143,329.7362 164.0371,330.1999 164.0143,330.6635 163.9462,331.1226 163.8334,331.5729 163.677,332.0099 163.4786,332.4296 163.2399,332.8277 162.9634,333.2005 162.6517,333.5445 162.3077,333.8562 161.9349,334.1327 161.5368,334.3713 161.1172,334.5698 160.6801,334.7262 160.2299,334.839 159.7707,334.9071 159.3071,334.9298 158.8435,334.9071 158.3843,334.839 157.934,334.7262 157.497,334.5698 157.0774,334.3713 156.6793,334.1327 156.3064,333.8562 155.9625,333.5445 155.6508,333.2005 155.3743,332.8277 155.1356,332.4296 154.9372,332.0099 154.7808,331.5729 154.668,331.1226 154.5999,330.6635 154.5771,330.1999 154.5999,329.7362 154.668,329.2771 154.7808,328.8268 154.9372,328.3898 155.1356,327.9702 155.3743,327.572 155.6508,327.1992 155.9625,326.8553 156.3064,326.5435 156.6793,326.267 157.0774,326.0284 157.497,325.8299 157.934,325.6736 158.3843,325.5608 158.8435,325.4927 159.3071,325.4699 159.7707,325.4927 160.2299,325.5608 160.6801,325.6736 161.1172,325.8299 161.5368,326.0284 161.9349,326.267 162.3077,326.5435 162.6517,326.8553 162.9634,327.1992 163.2399,327.572"/>
    <polygon points="129.4628,325.8832 129.2242,326.2814 128.9477,326.6542 128.6359,326.9981 128.292,327.3098 127.9192,327.5864 127.521,327.825 127.1014,328.0235 126.6644,328.1798 126.2141,328.2926 125.755,328.3607 125.2913,328.3835 124.8277,328.3607 124.3686,328.2926 123.9183,328.1798 123.4813,328.0235 123.0616,327.825 122.6635,327.5864 122.2907,327.3098 121.9467,326.9981 121.635,326.6542 121.3585,326.2814 121.1199,325.8832 120.9214,325.4636 120.765,325.0266 120.6523,324.5763 120.5841,324.1172 120.5614,323.6535 120.5841,323.1899 120.6523,322.7308 120.765,322.2805 120.9214,321.8434 121.1199,321.4238 121.3585,321.0257 121.635,320.6529 121.9467,320.3089 122.2907,319.9972 122.6635,319.7207 123.0616,319.4821 123.4813,319.2836 123.9183,319.1272 124.3686,319.0144 124.8277,318.9463 125.2913,318.9236 125.755,318.9463 126.2141,319.0144 126.6644,319.1272 127.1014,319.2836 127.521,319.4821 127.9192,319.7207 128.292,319.9972 128.6359,320.3089 128.9477,320.6529 129.2242,321.0257 129.4628,321.4238 129.6613,321.8434 129.8176,322.2805 129.9304,322.7308 129.9985,323.1899 130.0213,323.6535 129.9985,324.1172 129.9304,324.5763 129.8176,325.0266 129.6613,325.4636"/>
    <polygon points="131.9908,316.1844 132.1036,315.7342 132.26,315.2971 132.4585,314.8775 132.6971,314.4794 132.9736,314.1065 133.2853,313.7626 133.6293,313.4509 134.0021,313.1744 134.4002,312.9357 134.8198,312.7373 135.2569,312.5809 135.7071,312.4681 136.1663,312.4 136.6299,312.3772 137.0935,312.4 137.5527,312.4681 138.003,312.5809 138.44,312.7373 138.8596,312.9357 139.2578,313.1744 139.6306,313.4509 139.9745,313.7626 140.2862,314.1065 140.5627,314.4794 140.8014,314.8775 140.9998,315.2971 141.1562,315.7342 141.269,316.1844 141.3371,316.6436 141.3599,317.1072 141.3371,317.5708 141.269,318.03 141.1562,318.4802 140.9998,318.9173 140.8014,319.3369 140.5627,319.735 140.2862,320.1079 139.9745,320.4518 139.6306,320.7635 139.2578,321.04 138.8596,321.2787 138.44,321.4771 138.003,321.6335 137.5527,321.7463 137.0935,321.8144 136.6299,321.8372 136.1663,321.8144 135.7071,321.7463 135.2569,321.6335 134.8198,321.4771 134.4002,321.2787 134.0021,321.04 133.6293,320.7635 133.2853,320.4518 132.9736,320.1079 132.6971,319.735 132.4585,319.3369 132.26,318.9173 132.1036,318.4802 131.9908,318.03 131.9227,317.5708 131.8999,317.1072 131.9227,316.6436"/>
    <polygon points="140.6884,301.8146 140.9573,300.7412 141.3301,299.6993 141.8032,298.6989 142.3721,297.7498 143.0313,296.8609 143.7745,296.041 144.5944,295.2978 145.4833,294.6386 146.4324,294.0697 147.4328,293.5966 148.4747,293.2238 149.5481,292.9549 150.6428,292.7925 151.748,292.7382 152.8533,292.7925 153.9479,292.9549 155.0214,293.2238 156.0633,293.5966 157.0636,294.0697 158.0128,294.6386 158.9016,295.2978 159.7216,296.041 160.4647,296.8609 161.1239,297.7498 161.6928,298.6989 162.166,299.6993 162.5388,300.7412 162.8077,301.8146 162.97,302.9093 163.0243,304.0145 162.97,305.1198 162.8077,306.2144 162.5388,307.2879 162.166,308.3298 161.6928,309.3301 161.1239,310.2793 160.4647,311.1681 159.7216,311.9881 158.9016,312.7312 158.0128,313.3904 157.0636,313.9593 156.0633,314.4325 155.0214,314.8053 153.9479,315.0742 152.8533,315.2365 151.748,315.2908 150.6428,315.2365 149.5481,315.0742 148.4747,314.8053 147.4328,314.4325 146.4324,313.9593 145.4833,313.3904 144.5944,312.7312 143.7745,311.9881 143.0313,311.1681 142.3721,310.2793 141.8032,309.3301 141.3301,308.3298 140.9573,307.2879 140.6884,306.2144 140.526,305.1198 140.4717,304.0145 140.526,302.9093"/>
    <polygon points="131.9908,289.9991 132.1036,289.5488 132.26,289.1118 132.4585,288.6922 132.6971,288.294 132.9736,287.9212 133.2853,287.5773 133.6293,287.2655 134.0021,286.989 134.4002,286.7504 134.8198,286.5519 135.2569,286.3956 135.7071,286.2828 136.1663,286.2147 136.6299,286.1919 137.0935,286.2147 137.5527,286.2828 138.003,286.3956 138.44,286.5519 138.8596,286.7504 139.2578,286.989 139.6306,287.2655 139.9745,287.5773 140.2862,287.9212 140.5627,288.294 140.8014,288.6922 140.9998,289.1118 141.1562,289.5488 141.269,289.9991 141.3371,290.4582 141.3599,290.9219 141.3371,291.3855 141.269,291.8446 141.1562,292.2949 140.9998,292.7319 140.8014,293.1516 140.5627,293.5497 140.2862,293.9225 139.9745,294.2665 139.6306,294.5782 139.2578,294.8547 138.8596,295.0933 138.44,295.2918 138.003,295.4482 137.5527,295.561 137.0935,295.6291 136.6299,295.6518 136.1663,295.6291 135.7071,295.561 135.2569,295.4482 134.8198,295.2918 134.4002,295.0933 134.0021,294.8547 133.6293,294.5782 133.2853,294.2665 132.9736,293.9225 132.6971,293.5497 132.4585,293.1516 132.26,292.7319 132.1036,292.2949 131.9908,291.8446 131.9227,291.3855 131.8999,290.9219 131.9227,290.4582"/>
    <polygon points="120.6523,270.3601 120.765,269.9098 120.9214,269.4728 121.1199,269.0532 121.3585,268.655 121.635,268.2822 121.9467,267.9383 122.2907,267.6265 122.6635,267.35 123.0616,267.1114 123.4813,266.9129 123.9183,266.7566 124.3686,266.6438 124.8277,266.5757 125.2913,266.5529 125.755,266.5757 126.2141,266.6438 126.6644,266.7566 127.1014,266.9129 127.521,267.1114 127.9192,267.35 128.292,267.6265 128.6359,267.9383 128.9477,268.2822 129.2242,268.655 129.4628,269.0532 129.6613,269.4728 129.8176,269.9098 129.9304,270.3601 129.9985,270.8192 130.0213,271.2829 129.9985,271.7465 129.9304,272.2056 129.8176,272.6559 129.6613,273.0929 129.4628,273.5126 129.2242,273.9107 128.9477,274.2835 128.6359,274.6275 128.292,274.9392 127.9192,275.2157 127.521,275.4543 127.1014,275.6528 126.6644,275.8092 126.2141,275.9219 125.755,275.9901 125.2913,276.0128 124.8277,275.9901 124.3686,275.9219 123.9183,275.8092 123.4813,275.6528 123.0616,275.4543 122.6635,275.2157 122.2907,274.9392 121.9467,274.6275 121.635,274.2835 121.3585,273.9107 121.1199,273.5126 120.9214,273.0929 120.765,272.6559 120.6523,272.2056 120.5841,271.7465 120.5614,271.2829 120.5841,270.8192"/>
    <polygon points="141.3371,264.2729 141.3599,264.7365 141.3371,265.2001 141.269,265.6593 141.1562,266.1096 140.9998,266.5466 140.8014,266.9662 140.5627,267.3644 140.2862,267.7372 139.9745,268.0811 139.6306,268.3928 139.2578,268.6694 138.8596,268.908 138.44,269.1065 138.003,269.2628 137.5527,269.3756 137.0935,269.4437 136.6299,269.4665 136.1663,269.4437 135.7071,269.3756 135.2569,269.2628 134.8198,269.1065 134.4002,268.908 134.0021,268.6694 133.6293,268.3928 133.2853,268.0811 132.9736,267.7372 132.6971,267.3644 132.4585,266.9662 132.26,266.5466 132.1036,266.1096 131.9908,265.6593 131.9227,265.2001 131.8999,264.7365 131.9227,264.2729 131.9908,263.8138 132.1036,263.3635 132.26,262.9264 132.4585,262.5068 132.6971,262.1087 132.9736,261.7359 133.2853,261.3919 133.6293,261.0802 134.0021,260.8037 134.4002,260.5651 134.8198,260.3666 135.2569,260.2102 135.7071,260.0974 136.1663,260.0293 136.6299,260.0066 137.0935,260.0293 137.5527,260.0974 138.003,260.2102 138.44,260.3666 138.8596,260.5651 139.2578,260.8037 139.6306,261.0802 139.9745,261.3919 140.2862,261.7359 140.5627,262.1087 140.8014,262.5068 140.9998,262.9264 141.1562,263.3635 141.269,263.8138"/>
    <polygon points="140.2862,235.5505 140.5627,235.9234 140.8014,236.3215 140.9998,236.7411 141.1562,237.1782 141.269,237.6284 141.3371,238.0876 141.3599,238.5512 141.3371,239.0148 141.269,239.474 141.1562,239.9242 140.9998,240.3613 140.8014,240.7809 140.5627,241.179 140.2862,241.5519 139.9745,241.8958 139.6306,242.2075 139.2578,242.484 138.8596,242.7227 138.44,242.9211 138.003,243.0775 137.5527,243.1903 137.0935,243.2584 136.6299,243.2812 136.1663,243.2584 135.7071,243.1903 135.2569,243.0775 134.8198,242.9211 134.4002,242.7227 134.0021,242.484 133.6293,242.2075 133.2853,241.8958 132.9736,241.5519 132.6971,241.179 132.4585,240.7809 132.26,240.3613 132.1036,239.9242 131.9908,239.474 131.9227,239.0148 131.8999,238.5512 131.9227,238.0876 131.9908,237.6284 132.1036,237.1782 132.26,236.7411 132.4585,236.3215 132.6971,235.9234 132.9736,235.5505 133.2853,235.2066 133.6293,234.8949 134.0021,234.6184 134.4002,234.3797 134.8198,234.1813 135.2569,234.0249 135.7071,233.9121 136.1663,233.844 136.6299,233.8212 137.0935,233.844 137.5527,233.9121 138.003,234.0249 138.44,234.1813 138.8596,234.3797 139.2578,234.6184 139.6306,234.8949 139.9745,235.2066"/>
    <polygon points="152.6076,232.9276 152.4948,233.3779 152.3384,233.8149 152.14,234.2346 151.9013,234.6327 151.6248,235.0055 151.3131,235.3495 150.9692,235.6612 150.5963,235.9377 150.1982,236.1763 149.7786,236.3748 149.3415,236.5312 148.8913,236.6439 148.4321,236.7121 147.9685,236.7348 147.5049,236.7121 147.0457,236.6439 146.5955,236.5312 146.1584,236.3748 145.7388,236.1763 145.3407,235.9377 144.9678,235.6612 144.6239,235.3495 144.3122,235.0055 144.0357,234.6327 143.797,234.2346 143.5986,233.8149 143.4422,233.3779 143.3294,232.9276 143.2613,232.4685 143.2385,232.0049 143.2613,231.5412 143.3294,231.0821 143.4422,230.6318 143.5986,230.1948 143.797,229.7752 144.0357,229.377 144.3122,229.0042 144.6239,228.6603 144.9678,228.3485 145.3407,228.072 145.7388,227.8334 146.1584,227.6349 146.5955,227.4786 147.0457,227.3658 147.5049,227.2977 147.9685,227.2749 148.4321,227.2977 148.8913,227.3658 149.3415,227.4786 149.7786,227.6349 150.1982,227.8334 150.5963,228.072 150.9692,228.3485 151.3131,228.6603 151.6248,229.0042 151.9013,229.377 152.14,229.7752 152.3384,230.1948 152.4948,230.6318 152.6076,231.0821 152.6757,231.5412 152.6985,232.0049 152.6757,232.4685"/>
    <polygon points="162.8077,253.8438 162.5388,254.9172 162.166,255.9591 161.6928,256.9595 161.1239,257.9086 160.4647,258.7975 159.7216,259.6174 158.9016,260.3606 158.0128,261.0198 157.0636,261.5887 156.0633,262.0618 155.0214,262.4346 153.9479,262.7035 152.8533,262.8659 151.748,262.9202 150.6428,262.8659 149.5481,262.7035 148.4747,262.4346 147.4328,262.0618 146.4324,261.5887 145.4833,261.0198 144.5944,260.3606 143.7745,259.6174 143.0313,258.7975 142.3721,257.9086 141.8032,256.9595 141.3301,255.9591 140.9573,254.9172 140.6884,253.8438 140.526,252.7491 140.4717,251.6439 140.526,250.5386 140.6884,249.444 140.9573,248.3705 141.3301,247.3286 141.8032,246.3282 142.3721,245.3791 143.0313,244.4902 143.7745,243.6703 144.5944,242.9272 145.4833,242.268 146.4324,241.699 147.4328,241.2259 148.4747,240.8531 149.5481,240.5842 150.6428,240.4219 151.748,240.3676 152.8533,240.4219 153.9479,240.5842 155.0214,240.8531 156.0633,241.2259 157.0636,241.699 158.0128,242.268 158.9016,242.9272 159.7216,243.6703 160.4647,244.4902 161.1239,245.3791 161.6928,246.3282 162.166,247.3286 162.5388,248.3705 162.8077,249.444 162.97,250.5386 163.0243,251.6439 162.97,252.7491"/>
    <polygon points="185.4848,236.3513 185.6472,237.4459 185.7015,238.5512 185.6472,239.6565 185.4848,240.7511 185.2159,241.8245 184.8431,242.8664 184.37,243.8668 183.8011,244.816 183.1419,245.7048 182.3987,246.5247 181.5788,247.2679 180.69,247.9271 179.7408,248.496 178.7405,248.9691 177.6985,249.3419 176.6251,249.6108 175.5305,249.7732 174.4252,249.8275 173.3199,249.7732 172.2253,249.6108 171.1519,249.3419 170.1099,248.9691 169.1096,248.496 168.1604,247.9271 167.2716,247.2679 166.4516,246.5247 165.7085,245.7048 165.0493,244.816 164.4804,243.8668 164.0072,242.8664 163.6344,241.8245 163.3656,240.7511 163.2032,239.6565 163.1489,238.5512 163.2032,237.4459 163.3656,236.3513 163.6344,235.2779 164.0072,234.2359 164.4804,233.2356 165.0493,232.2864 165.7085,231.3976 166.4516,230.5776 167.2716,229.8345 168.1604,229.1753 169.1096,228.6064 170.1099,228.1332 171.1519,227.7604 172.2253,227.4916 173.3199,227.3292 174.4252,227.2749 175.5305,227.3292 176.6251,227.4916 177.6985,227.7604 178.7405,228.1332 179.7408,228.6064 180.69,229.1753 181.5788,229.8345 182.3987,230.5776 183.1419,231.3976 183.8011,232.2864 184.37,233.2356 184.8431,234.2359 185.2159,235.2779"/>
  </g>
</svg>
