<?xml version="1.0" encoding="utf-8" ?>
<svg xmlns="http://www.w3.org/2000/svg" xmlns:cc="http://creativecommons.org/ns" xmlns:dc="http://purl.org/dc/elements/1.1/" xmlns:ev="http://www.w3.org/2001/xml-events" xmlns:inkscape="http://www.inkscape.org/namespaces/inkscape" xmlns:rdf="http://www.w3.org/1999/02/22-rdf-syntax-ns" xmlns:sodipodi="http://sodipodi.sourceforge.net/DTD/sodipodi-0.dtd" xmlns:xlink="http://www.w3.org/1999/xlink" baseProfile="tiny" height="15.875cm" version="1.2" viewBox="0 0 432.0 600.0" width="11.43cm">
  <metadata>
    <rdf:RDF>
      <cc:Work>
        <dc:format>image/svg+xml</dc:format>
        <dc:source>vsk save -s 242 -c hex-grid/config/bubble-coasters-2.json /Users/tobin/src/fabian/plotting/fabian-plotting/hex-grid/sketch_hex_grid.py</dc:source>
        <dc:date>2023-11-11T11:30:23.757206</dc:date>
      </cc:Work>
    </rdf:RDF>
  </metadata>
  <defs/>
  <g fill="none" id="layer1" inkscape:groupmode="layer" inkscape:label="1" stroke="#000000" stroke-width="0.7559" style="display:inline">
    <polygon points="310.3873,229.8345 311.2761,229.1753 312.2253,228.6064 313.2256,228.1332 314.2675,227.7604 315.341,227.4916 316.4356,227.3292 317.5409,227.2749 318.6462,227.3292 319.7408,227.4916 320.8142,227.7604 321.8561,228.1332 322.8565,228.6064 323.8057,229.1753 324.6945,229.8345 325.5144,230.5776 326.2576,231.3976 326.9168,232.2864 327.4857,233.2356 327.9588,234.2359 328.3316,235.2779 328.6005,236.3513 328.7629,237.4459 328.8172,238.5512 328.7629,239.6565 328.6005,240.7511 328.3316,241.8245 327.9588,242.8664 327.4857,243.8668 326.9168,244.816 326.2576,245.7048 325.5144,246.5247 324.6945,247.2679 323.8057,247.9271 322.8565,248.496 321.8561,248.9691 320.8142,249.3419 319.7408,249.6108 318.6462,249.7732 317.5409,249.8275 316.4356,249.7732 315.341,249.6108 314.2675,249.3419 313.2256,248.9691 312.2253,248.496 311.2761,247.9271 310.3873,247.2679 309.5673,246.5247 308.8242,245.7048 308.165,244.816 307.5961,243.8668 307.1229,242.8664 306.7501,241.8245 306.4812,240.7511 306.3189,239.6565 306.2646,238.5512 306.3189,237.4459 306.4812,236.3513 306.7501,235.2779 307.1229,234.2359 307.5961,233.2356 308.165,232.2864 308.8242,231.3976 309.5673,230.5776"/>
    <polygon points="293.3139,209.991 293.712,209.7524 294.0849,209.4758 294.4288,209.1641 294.7405,208.8202 295.017,208.4474 295.2557,208.0492 295.4541,207.6296 295.6105,207.1926 295.7233,206.7423 295.7914,206.2831 295.8142,205.8195 295.7914,205.3559 295.7233,204.8968 295.6105,204.4465 295.4541,204.0094 295.2557,203.5898 295.017,203.1917 294.7405,202.8189 294.4288,202.4749 294.0849,202.1632 293.712,201.8867 293.3139,201.6481 292.8943,201.4496 292.4572,201.2932 292.007,201.1804 291.5478,201.1123 291.0842,201.0896 290.6206,201.1123 290.1614,201.1804 289.7112,201.2932 289.2741,201.4496 288.8545,201.6481 288.4564,201.8867 288.0835,202.1632 287.7396,202.4749 287.4279,202.8189 287.1514,203.1917 286.9127,203.5898 286.7143,204.0094 286.5579,204.4465 286.4451,204.8968 286.377,205.3559 286.3542,205.8195 286.377,206.2831 286.4451,206.7423 286.5579,207.1926 286.7143,207.6296 286.9127,208.0492 287.1514,208.4474 287.4279,208.8202 287.7396,209.1641 288.0835,209.4758 288.4564,209.7524 288.8545,209.991 289.2741,210.1894 289.7112,210.3458 290.1614,210.4586 290.6206,210.5267 291.0842,210.5495 291.5478,210.5267 292.007,210.4586 292.4572,210.3458 292.8943,210.1894"/>
    <polygon points="286.377,192.2632 286.3542,192.7269 286.377,193.1905 286.4451,193.6496 286.5579,194.0999 286.7143,194.5369 286.9127,194.9566 287.1514,195.3547 287.4279,195.7275 287.7396,196.0715 288.0835,196.3832 288.4564,196.6597 288.8545,196.8983 289.2741,197.0968 289.7112,197.2532 290.1614,197.3659 290.6206,197.4341 291.0842,197.4568 291.5478,197.4341 292.007,197.3659 292.4572,197.2532 292.8943,197.0968 293.3139,196.8983 293.712,196.6597 294.0849,196.3832 294.4288,196.0715 294.7405,195.7275 295.017,195.3547 295.2557,194.9566 295.4541,194.5369 295.6105,194.0999 295.7233,193.6496 295.7914,193.1905 295.8142,192.7269 295.7914,192.2632 295.7233,191.8041 295.6105,191.3538 295.4541,190.9168 295.2557,190.4972 295.017,190.099 294.7405,189.7262 294.4288,189.3823 294.0849,189.0705 293.712,188.794 293.3139,188.5554 292.8943,188.3569 292.4572,188.2006 292.007,188.0878 291.5478,188.0197 291.0842,187.9969 290.6206,188.0197 290.1614,188.0878 289.7112,188.2006 289.2741,188.3569 288.8545,188.5554 288.4564,188.794 288.0835,189.0705 287.7396,189.3823 287.4279,189.7262 287.1514,190.099 286.9127,190.4972 286.7143,190.9168 286.5579,191.3538 286.4451,191.8041"/>
    <polygon points="262.2417,217.6815 261.7686,216.6811 261.3958,215.6392 261.1269,214.5658 260.9645,213.4711 260.9102,212.3659 260.9645,211.2606 261.1269,210.166 261.3958,209.0925 261.7686,208.0506 262.2417,207.0502 262.8106,206.1011 263.4698,205.2122 264.213,204.3923 265.0329,203.6492 265.9218,202.99 266.8709,202.421 267.8713,201.9479 268.9132,201.5751 269.9867,201.3062 271.0813,201.1438 272.1866,201.0896 273.2918,201.1438 274.3865,201.3062 275.4599,201.5751 276.5018,201.9479 277.5022,202.421 278.4513,202.99 279.3402,203.6492 280.1601,204.3923 280.9033,205.2122 281.5625,206.1011 282.1314,207.0502 282.6045,208.0506 282.9773,209.0925 283.2462,210.166 283.4086,211.2606 283.4629,212.3659 283.4086,213.4711 283.2462,214.5658 282.9773,215.6392 282.6045,216.6811 282.1314,217.6815 281.5625,218.6306 280.9033,219.5195 280.1601,220.3394 279.3402,221.0826 278.4513,221.7418 277.5022,222.3107 276.5018,222.7838 275.4599,223.1566 274.3865,223.4255 273.2918,223.5879 272.1866,223.6422 271.0813,223.5879 269.9867,223.4255 268.9132,223.1566 267.8713,222.7838 266.8709,222.3107 265.9218,221.7418 265.0329,221.0826 264.213,220.3394 263.4698,219.5195 262.8106,218.6306"/>
    <polygon points="253.2287,209.999 254.6533,211.9198 255.8828,213.9711 256.9053,216.1329 257.7109,218.3846 258.292,220.7044 258.6429,223.0699 258.7603,225.4585 258.6429,227.8471 258.292,230.2127 257.7109,232.5325 256.9053,234.7841 255.8828,236.946 254.6533,238.9972 253.2287,240.918 251.6227,242.69 249.8508,244.296 247.93,245.7206 245.8787,246.95 243.7169,247.9725 241.4652,248.7782 239.1454,249.3593 236.7799,249.7102 234.3913,249.8275 232.0027,249.7102 229.6371,249.3593 227.3173,248.7782 225.0657,247.9725 222.9038,246.95 220.8526,245.7206 218.9318,244.296 217.1598,242.69 215.5538,240.918 214.1292,238.9972 212.8998,236.946 211.8773,234.7841 211.0716,232.5325 210.4905,230.2127 210.1396,227.8471 210.0223,225.4585 210.1396,223.0699 210.4905,220.7044 211.0716,218.3846 211.8773,216.1329 212.8998,213.9711 214.1292,211.9198 215.5538,209.999 217.1598,208.2271 218.9318,206.6211 220.8526,205.1965 222.9038,203.967 225.0657,202.9445 227.3173,202.1389 229.6371,201.5578 232.0027,201.2069 234.3913,201.0896 236.7799,201.2069 239.1454,201.5578 241.4652,202.1389 243.7169,202.9445 245.8787,203.967 247.93,205.1965 249.8508,206.6211 251.6227,208.2271"/>
    <polygon points="231.1475,196.5985 230.1056,196.9713 229.0321,197.2402 227.9375,197.4025 226.8322,197.4568 225.727,197.4025 224.6323,197.2402 223.5589,196.9713 222.517,196.5985 221.5166,196.1253 220.5674,195.5564 219.6786,194.8972 218.8587,194.1541 218.1155,193.3341 217.4563,192.4453 216.8874,191.4961 216.4143,190.4958 216.0415,189.4539 215.7726,188.3804 215.6102,187.2858 215.5559,186.1805 215.6102,185.0753 215.7726,183.9806 216.0415,182.9072 216.4143,181.8653 216.8874,180.8649 217.4563,179.9157 218.1155,179.0269 218.8587,178.207 219.6786,177.4638 220.5674,176.8046 221.5166,176.2357 222.517,175.7626 223.5589,175.3898 224.6323,175.1209 225.727,174.9585 226.8322,174.9042 227.9375,174.9585 229.0321,175.1209 230.1056,175.3898 231.1475,175.7626 232.1478,176.2357 233.097,176.8046 233.9858,177.4638 234.8058,178.207 235.5489,179.0269 236.2081,179.9157 236.777,180.8649 237.2502,181.8653 237.623,182.9072 237.8919,183.9806 238.0542,185.0753 238.1085,186.1805 238.0542,187.2858 237.8919,188.3804 237.623,189.4539 237.2502,190.4958 236.777,191.4961 236.2081,192.4453 235.5489,193.3341 234.8058,194.1541 233.9858,194.8972 233.097,195.5564 232.1478,196.1253"/>
    <polygon points="241.0908,193.6496 241.0227,193.1905 240.9999,192.7269 241.0227,192.2632 241.0908,191.8041 241.2036,191.3538 241.3599,190.9168 241.5584,190.4972 241.797,190.099 242.0735,189.7262 242.3853,189.3823 242.7292,189.0705 243.102,188.794 243.5002,188.5554 243.9198,188.3569 244.3568,188.2006 244.8071,188.0878 245.2662,188.0197 245.7299,187.9969 246.1935,188.0197 246.6526,188.0878 247.1029,188.2006 247.5399,188.3569 247.9596,188.5554 248.3577,188.794 248.7305,189.0705 249.0745,189.3823 249.3862,189.7262 249.6627,190.099 249.9013,190.4972 250.0998,190.9168 250.2562,191.3538 250.3689,191.8041 250.4371,192.2632 250.4598,192.7269 250.4371,193.1905 250.3689,193.6496 250.2562,194.0999 250.0998,194.5369 249.9013,194.9566 249.6627,195.3547 249.3862,195.7275 249.0745,196.0715 248.7305,196.3832 248.3577,196.6597 247.9596,196.8983 247.5399,197.0968 247.1029,197.2532 246.6526,197.3659 246.1935,197.4341 245.7299,197.4568 245.2662,197.4341 244.8071,197.3659 244.3568,197.2532 243.9198,197.0968 243.5002,196.8983 243.102,196.6597 242.7292,196.3832 242.3853,196.0715 242.0735,195.7275 241.797,195.3547 241.5584,194.9566 241.3599,194.5369 241.2036,194.0999"/>
    <polygon points="260.7248,202.2739 261.0013,201.901 261.2399,201.5029 261.4384,201.0833 261.5947,200.6462 261.7075,200.196 261.7756,199.7368 261.7984,199.2732 261.7756,198.8096 261.7075,198.3504 261.5947,197.9002 261.4384,197.4631 261.2399,197.0435 261.0013,196.6454 260.7248,196.2725 260.413,195.9286 260.0691,195.6169 259.6963,195.3404 259.2981,195.1017 258.8785,194.9033 258.4415,194.7469 257.9912,194.6341 257.5321,194.566 257.0684,194.5432 256.6048,194.566 256.1457,194.6341 255.6954,194.7469 255.2584,194.9033 254.8387,195.1017 254.4406,195.3404 254.0678,195.6169 253.7238,195.9286 253.4121,196.2725 253.1356,196.6454 252.897,197.0435 252.6985,197.4631 252.5421,197.9002 252.4294,198.3504 252.3612,198.8096 252.3385,199.2732 252.3612,199.7368 252.4294,200.196 252.5421,200.6462 252.6985,201.0833 252.897,201.5029 253.1356,201.901 253.4121,202.2739 253.7238,202.6178 254.0678,202.9295 254.4406,203.206 254.8387,203.4447 255.2584,203.6431 255.6954,203.7995 256.1457,203.9123 256.6048,203.9804 257.0684,204.0032 257.5321,203.9804 257.9912,203.9123 258.4415,203.7995 258.8785,203.6431 259.2981,203.4447 259.6963,203.206 260.0691,202.9295 260.413,202.6178"/>
    <polygon points="265.0624,189.3823 265.4064,189.0705 265.7792,188.794 266.1773,188.5554 266.5969,188.3569 267.034,188.2006 267.4843,188.0878 267.9434,188.0197 268.407,187.9969 268.8706,188.0197 269.3298,188.0878 269.7801,188.2006 270.2171,188.3569 270.6367,188.5554 271.0349,188.794 271.4077,189.0705 271.7516,189.3823 272.0633,189.7262 272.3399,190.099 272.5785,190.4972 272.777,190.9168 272.9333,191.3538 273.0461,191.8041 273.1142,192.2632 273.137,192.7269 273.1142,193.1905 273.0461,193.6496 272.9333,194.0999 272.777,194.5369 272.5785,194.9566 272.3399,195.3547 272.0633,195.7275 271.7516,196.0715 271.4077,196.3832 271.0349,196.6597 270.6367,196.8983 270.2171,197.0968 269.7801,197.2532 269.3298,197.3659 268.8706,197.4341 268.407,197.4568 267.9434,197.4341 267.4843,197.3659 267.034,197.2532 266.5969,197.0968 266.1773,196.8983 265.7792,196.6597 265.4064,196.3832 265.0624,196.0715 264.7507,195.7275 264.4742,195.3547 264.2356,194.9566 264.0371,194.5369 263.8807,194.0999 263.7679,193.6496 263.6998,193.1905 263.6771,192.7269 263.6998,192.2632 263.7679,191.8041 263.8807,191.3538 264.0371,190.9168 264.2356,190.4972 264.4742,190.099 264.7507,189.7262"/>
    <polygon points="257.0684,181.4506 257.5321,181.4733 257.9912,181.5414 258.4415,181.6542 258.8785,181.8106 259.2981,182.0091 259.6963,182.2477 260.0691,182.5242 260.413,182.8359 260.7248,183.1799 261.0013,183.5527 261.2399,183.9508 261.4384,184.3704 261.5947,184.8075 261.7075,185.2578 261.7756,185.7169 261.7984,186.1805 261.7756,186.6441 261.7075,187.1033 261.5947,187.5536 261.4384,187.9906 261.2399,188.4102 261.0013,188.8084 260.7248,189.1812 260.413,189.5251 260.0691,189.8368 259.6963,190.1134 259.2981,190.352 258.8785,190.5504 258.4415,190.7068 257.9912,190.8196 257.5321,190.8877 257.0684,190.9105 256.6048,190.8877 256.1457,190.8196 255.6954,190.7068 255.2584,190.5504 254.8387,190.352 254.4406,190.1134 254.0678,189.8368 253.7238,189.5251 253.4121,189.1812 253.1356,188.8084 252.897,188.4102 252.6985,187.9906 252.5421,187.5536 252.4294,187.1033 252.3612,186.6441 252.3385,186.1805 252.3612,185.7169 252.4294,185.2578 252.5421,184.8075 252.6985,184.3704 252.897,183.9508 253.1356,183.5527 253.4121,183.1799 253.7238,182.8359 254.0678,182.5242 254.4406,182.2477 254.8387,182.0091 255.2584,181.8106 255.6954,181.6542 256.1457,181.5414 256.6048,181.4733"/>
    <polygon points="250.2562,181.0072 250.0998,181.4443 249.9013,181.8639 249.6627,182.262 249.3862,182.6349 249.0745,182.9788 248.7305,183.2905 248.3577,183.567 247.9596,183.8057 247.5399,184.0041 247.1029,184.1605 246.6526,184.2733 246.1935,184.3414 245.7299,184.3642 245.2662,184.3414 244.8071,184.2733 244.3568,184.1605 243.9198,184.0041 243.5002,183.8057 243.102,183.567 242.7292,183.2905 242.3853,182.9788 242.0735,182.6349 241.797,182.262 241.5584,181.8639 241.3599,181.4443 241.2036,181.0072 241.0908,180.557 241.0227,180.0978 240.9999,179.6342 241.0227,179.1706 241.0908,178.7114 241.2036,178.2612 241.3599,177.8241 241.5584,177.4045 241.797,177.0064 242.0735,176.6335 242.3853,176.2896 242.7292,175.9779 243.102,175.7014 243.5002,175.4627 243.9198,175.2643 244.3568,175.1079 244.8071,174.9951 245.2662,174.927 245.7299,174.9042 246.1935,174.927 246.6526,174.9951 247.1029,175.1079 247.5399,175.2643 247.9596,175.4627 248.3577,175.7014 248.7305,175.9779 249.0745,176.2896 249.3862,176.6335 249.6627,177.0064 249.9013,177.4045 250.0998,177.8241 250.2562,178.2612 250.3689,178.7114 250.4371,179.1706 250.4598,179.6342 250.4371,180.0978 250.3689,180.557"/>
    <polygon points="250.0998,168.3516 249.9013,168.7712 249.6627,169.1694 249.3862,169.5422 249.0745,169.8861 248.7305,170.1978 248.3577,170.4743 247.9596,170.713 247.5399,170.9114 247.1029,171.0678 246.6526,171.1806 246.1935,171.2487 245.7299,171.2715 245.2662,171.2487 244.8071,171.1806 244.3568,171.0678 243.9198,170.9114 243.5002,170.713 243.102,170.4743 242.7292,170.1978 242.3853,169.8861 242.0735,169.5422 241.797,169.1694 241.5584,168.7712 241.3599,168.3516 241.2036,167.9146 241.0908,167.4643 241.0227,167.0051 240.9999,166.5415 241.0227,166.0779 241.0908,165.6187 241.2036,165.1685 241.3599,164.7314 241.5584,164.3118 241.797,163.9137 242.0735,163.5409 242.3853,163.1969 242.7292,162.8852 243.102,162.6087 243.5002,162.3701 243.9198,162.1716 244.3568,162.0152 244.8071,161.9024 245.2662,161.8343 245.7299,161.8115 246.1935,161.8343 246.6526,161.9024 247.1029,162.0152 247.5399,162.1716 247.9596,162.3701 248.3577,162.6087 248.7305,162.8852 249.0745,163.1969 249.3862,163.5409 249.6627,163.9137 249.9013,164.3118 250.0998,164.7314 250.2562,165.1685 250.3689,165.6187 250.4371,166.0779 250.4598,166.5415 250.4371,167.0051 250.3689,167.4643 250.2562,167.9146"/>
    <polygon points="231.3906,156.3389 231.7634,156.0624 232.1616,155.8237 232.5812,155.6253 233.0182,155.4689 233.4685,155.3561 233.9277,155.288 234.3913,155.2652 234.8549,155.288 235.314,155.3561 235.7643,155.4689 236.2014,155.6253 236.621,155.8237 237.0191,156.0624 237.3919,156.3389 237.7359,156.6506 238.0476,156.9945 238.3241,157.3674 238.5627,157.7655 238.7612,158.1851 238.9176,158.6221 239.0304,159.0724 239.0985,159.5316 239.1212,159.9952 239.0985,160.4588 239.0304,160.918 238.9176,161.3682 238.7612,161.8053 238.5627,162.2249 238.3241,162.623 238.0476,162.9959 237.7359,163.3398 237.3919,163.6515 237.0191,163.928 236.621,164.1667 236.2014,164.3651 235.7643,164.5215 235.314,164.6343 234.8549,164.7024 234.3913,164.7252 233.9277,164.7024 233.4685,164.6343 233.0182,164.5215 232.5812,164.3651 232.1616,164.1667 231.7634,163.928 231.3906,163.6515 231.0467,163.3398 230.735,162.9959 230.4584,162.623 230.2198,162.2249 230.0214,161.8053 229.865,161.3682 229.7522,160.918 229.6841,160.4588 229.6613,159.9952 229.6841,159.5316 229.7522,159.0724 229.865,158.6221 230.0214,158.1851 230.2198,157.7655 230.4584,157.3674 230.735,156.9945 231.0467,156.6506"/>
    <polygon points="220.823,162.3701 221.2426,162.1716 221.6797,162.0152 222.1299,161.9024 222.5891,161.8343 223.0527,161.8115 223.5163,161.8343 223.9755,161.9024 224.4257,162.0152 224.8628,162.1716 225.2824,162.3701 225.6805,162.6087 226.0534,162.8852 226.3973,163.1969 226.709,163.5409 226.9855,163.9137 227.2242,164.3118 227.4226,164.7314 227.579,165.1685 227.6918,165.6187 227.7599,166.0779 227.7827,166.5415 227.7599,167.0051 227.6918,167.4643 227.579,167.9146 227.4226,168.3516 227.2242,168.7712 226.9855,169.1694 226.709,169.5422 226.3973,169.8861 226.0534,170.1978 225.6805,170.4743 225.2824,170.713 224.8628,170.9114 224.4257,171.0678 223.9755,171.1806 223.5163,171.2487 223.0527,171.2715 222.5891,171.2487 222.1299,171.1806 221.6797,171.0678 221.2426,170.9114 220.823,170.713 220.4249,170.4743 220.052,170.1978 219.7081,169.8861 219.3964,169.5422 219.1199,169.1694 218.8812,168.7712 218.6828,168.3516 218.5264,167.9146 218.4136,167.4643 218.3455,167.0051 218.3227,166.5415 218.3455,166.0779 218.4136,165.6187 218.5264,165.1685 218.6828,164.7314 218.8812,164.3118 219.1199,163.9137 219.3964,163.5409 219.7081,163.1969 220.052,162.8852 220.4249,162.6087"/>
    <polygon points="207.8744,183.8137 209.299,185.7345 210.5285,187.7857 211.5509,189.9476 212.3566,192.1993 212.9377,194.519 213.2886,196.8846 213.4059,199.2732 213.2886,201.6618 212.9377,204.0273 212.3566,206.3471 211.5509,208.5988 210.5285,210.7606 209.299,212.8119 207.8744,214.7327 206.2684,216.5047 204.4965,218.1107 202.5756,219.5353 200.5244,220.7647 198.3625,221.7872 196.1109,222.5928 193.7911,223.1739 191.4255,223.5248 189.0369,223.6422 186.6484,223.5248 184.2828,223.1739 181.963,222.5928 179.7113,221.7872 177.5495,220.7647 175.4983,219.5353 173.5774,218.1107 171.8055,216.5047 170.1995,214.7327 168.7749,212.8119 167.5454,210.7606 166.523,208.5988 165.7173,206.3471 165.1362,204.0273 164.7853,201.6618 164.668,199.2732 164.7853,196.8846 165.1362,194.519 165.7173,192.1993 166.523,189.9476 167.5454,187.7857 168.7749,185.7345 170.1995,183.8137 171.8055,182.0417 173.5774,180.4357 175.4983,179.0111 177.5495,177.7817 179.7113,176.7592 181.963,175.9535 184.2828,175.3725 186.6484,175.0216 189.0369,174.9042 191.4255,175.0216 193.7911,175.3725 196.1109,175.9535 198.3625,176.7592 200.5244,177.7817 202.5756,179.0111 204.4965,180.4357 206.2684,182.0417"/>
    <polygon points="148.2089,161.3682 148.3217,160.918 148.3898,160.4588 148.4126,159.9952 148.3898,159.5316 148.3217,159.0724 148.2089,158.6221 148.0525,158.1851 147.8541,157.7655 147.6154,157.3674 147.3389,156.9945 147.0272,156.6506 146.6833,156.3389 146.3104,156.0624 145.9123,155.8237 145.4927,155.6253 145.0557,155.4689 144.6054,155.3561 144.1462,155.288 143.6826,155.2652 143.219,155.288 142.7598,155.3561 142.3096,155.4689 141.8725,155.6253 141.4529,155.8237 141.0548,156.0624 140.682,156.3389 140.338,156.6506 140.0263,156.9945 139.7498,157.3674 139.5112,157.7655 139.3127,158.1851 139.1563,158.6221 139.0435,159.0724 138.9754,159.5316 138.9526,159.9952 138.9754,160.4588 139.0435,160.918 139.1563,161.3682 139.3127,161.8053 139.5112,162.2249 139.7498,162.623 140.0263,162.9959 140.338,163.3398 140.682,163.6515 141.0548,163.928 141.4529,164.1667 141.8725,164.3651 142.3096,164.5215 142.7598,164.6343 143.219,164.7024 143.6826,164.7252 144.1462,164.7024 144.6054,164.6343 145.0557,164.5215 145.4927,164.3651 145.9123,164.1667 146.3104,163.928 146.6833,163.6515 147.0272,163.3398 147.3389,162.9959 147.6154,162.623 147.8541,162.2249 148.0525,161.8053"/>
    <polygon points="136.8703,152.0758 136.714,151.6388 136.5155,151.2192 136.2769,150.821 136.0004,150.4482 135.6886,150.1043 135.3447,149.7925 134.9719,149.516 134.5737,149.2774 134.1541,149.0789 133.7171,148.9226 133.2668,148.8098 132.8077,148.7417 132.344,148.7189 131.8804,148.7417 131.4213,148.8098 130.971,148.9226 130.534,149.0789 130.1143,149.2774 129.7162,149.516 129.3434,149.7925 128.9994,150.1043 128.6877,150.4482 128.4112,150.821 128.1726,151.2192 127.9741,151.6388 127.8177,152.0758 127.7049,152.5261 127.6368,152.9852 127.6141,153.4489 127.6368,153.9125 127.7049,154.3716 127.8177,154.8219 127.9741,155.2589 128.1726,155.6785 128.4112,156.0767 128.6877,156.4495 128.9994,156.7934 129.3434,157.1052 129.7162,157.3817 130.1143,157.6203 130.534,157.8188 130.971,157.9752 131.4213,158.0879 131.8804,158.1561 132.344,158.1788 132.8077,158.1561 133.2668,158.0879 133.7171,157.9752 134.1541,157.8188 134.5737,157.6203 134.9719,157.3817 135.3447,157.1052 135.6886,156.7934 136.0004,156.4495 136.2769,156.0767 136.5155,155.6785 136.714,155.2589 136.8703,154.8219 136.9831,154.3716 137.0512,153.9125 137.074,153.4489 137.0512,152.9852 136.9831,152.5261"/>
    <polygon points="159.906,184.3099 158.8007,184.3642 157.6955,184.3099 156.6008,184.1475 155.5274,183.8786 154.4855,183.5058 153.4851,183.0327 152.5359,182.4638 151.6471,181.8046 150.8272,181.0614 150.084,180.2415 149.4248,179.3526 148.8559,178.4035 148.3828,177.4031 148.01,176.3612 147.7411,175.2878 147.5787,174.1931 147.5244,173.0879 147.5787,171.9826 147.7411,170.888 148.01,169.8145 148.3828,168.7726 148.8559,167.7722 149.4248,166.8231 150.084,165.9342 150.8272,165.1143 151.6471,164.3712 152.5359,163.7119 153.4851,163.143 154.4855,162.6699 155.5274,162.2971 156.6008,162.0282 157.6955,161.8658 158.8007,161.8115 159.906,161.8658 161.0006,162.0282 162.0741,162.2971 163.116,162.6699 164.1163,163.143 165.0655,163.7119 165.9543,164.3712 166.7743,165.1143 167.5174,165.9342 168.1766,166.8231 168.7455,167.7722 169.2187,168.7726 169.5915,169.8145 169.8604,170.888 170.0227,171.9826 170.077,173.0879 170.0227,174.1931 169.8604,175.2878 169.5915,176.3612 169.2187,177.4031 168.7455,178.4035 168.1766,179.3526 167.5174,180.2415 166.7743,181.0614 165.9543,181.8046 165.0655,182.4638 164.1163,183.0327 163.116,183.5058 162.0741,183.8786 161.0006,184.1475"/>
    <polygon points="168.7455,220.1429 169.2187,221.1433 169.5915,222.1852 169.8604,223.2586 170.0227,224.3533 170.077,225.4585 170.0227,226.5638 169.8604,227.6584 169.5915,228.7319 169.2187,229.7738 168.7455,230.7741 168.1766,231.7233 167.5174,232.6121 166.7743,233.4321 165.9543,234.1752 165.0655,234.8344 164.1163,235.4033 163.116,235.8765 162.0741,236.2493 161.0006,236.5182 159.906,236.6805 158.8007,236.7348 157.6955,236.6805 156.6008,236.5182 155.5274,236.2493 154.4855,235.8765 153.4851,235.4033 152.5359,234.8344 151.6471,234.1752 150.8272,233.4321 150.084,232.6121 149.4248,231.7233 148.8559,230.7741 148.3828,229.7738 148.01,228.7319 147.7411,227.6584 147.5787,226.5638 147.5244,225.4585 147.5787,224.3533 147.7411,223.2586 148.01,222.1852 148.3828,221.1433 148.8559,220.1429 149.4248,219.1937 150.084,218.3049 150.8272,217.485 151.6471,216.7418 152.5359,216.0826 153.4851,215.5137 154.4855,215.0406 155.5274,214.6678 156.6008,214.3989 157.6955,214.2365 158.8007,214.1822 159.906,214.2365 161.0006,214.3989 162.0741,214.6678 163.116,215.0406 164.1163,215.5137 165.0655,216.0826 165.9543,216.7418 166.7743,217.485 167.5174,218.3049 168.1766,219.1937"/>
    <polygon points="139.7498,241.179 139.5112,240.7809 139.3127,240.3613 139.1563,239.9242 139.0435,239.474 138.9754,239.0148 138.9526,238.5512 138.9754,238.0876 139.0435,237.6284 139.1563,237.1782 139.3127,236.7411 139.5112,236.3215 139.7498,235.9234 140.0263,235.5505 140.338,235.2066 140.682,234.8949 141.0548,234.6184 141.4529,234.3797 141.8725,234.1813 142.3096,234.0249 142.7598,233.9121 143.219,233.844 143.6826,233.8212 144.1462,233.844 144.6054,233.9121 145.0557,234.0249 145.4927,234.1813 145.9123,234.3797 146.3104,234.6184 146.6833,234.8949 147.0272,235.2066 147.3389,235.5505 147.6154,235.9234 147.8541,236.3215 148.0525,236.7411 148.2089,237.1782 148.3217,237.6284 148.3898,238.0876 148.4126,238.5512 148.3898,239.0148 148.3217,239.474 148.2089,239.9242 148.0525,240.3613 147.8541,240.7809 147.6154,241.179 147.3389,241.5519 147.0272,241.8958 146.6833,242.2075 146.3104,242.484 145.9123,242.7227 145.4927,242.9211 145.0557,243.0775 144.6054,243.1903 144.1462,243.2584 143.6826,243.2812 143.219,243.2584 142.7598,243.1903 142.3096,243.0775 141.8725,242.9211 141.4529,242.7227 141.0548,242.484 140.682,242.2075 140.338,241.8958 140.0263,241.5519"/>
    <polygon points="158.3658,248.4421 158.0219,248.7538 157.649,249.0304 157.2509,249.269 156.8313,249.4675 156.3942,249.6238 155.944,249.7366 155.4848,249.8047 155.0212,249.8275 154.5576,249.8047 154.0984,249.7366 153.6482,249.6238 153.2111,249.4675 152.7915,249.269 152.3934,249.0304 152.0205,248.7538 151.6766,248.4421 151.3649,248.0982 151.0884,247.7254 150.8497,247.3272 150.6513,246.9076 150.4949,246.4706 150.3821,246.0203 150.314,245.5611 150.2912,245.0975 150.314,244.6339 150.3821,244.1748 150.4949,243.7245 150.6513,243.2874 150.8497,242.8678 151.0884,242.4697 151.3649,242.0969 151.6766,241.7529 152.0205,241.4412 152.3934,241.1647 152.7915,240.9261 153.2111,240.7276 153.6482,240.5712 154.0984,240.4584 154.5576,240.3903 155.0212,240.3676 155.4848,240.3903 155.944,240.4584 156.3942,240.5712 156.8313,240.7276 157.2509,240.9261 157.649,241.1647 158.0219,241.4412 158.3658,241.7529 158.6775,242.0969 158.954,242.4697 159.1927,242.8678 159.3911,243.2874 159.5475,243.7245 159.6603,244.1748 159.7284,244.6339 159.7512,245.0975 159.7284,245.5611 159.6603,246.0203 159.5475,246.4706 159.3911,246.9076 159.1927,247.3272 158.954,247.7254 158.6775,248.0982"/>
    <polygon points="148.3828,273.5139 148.8559,272.5136 149.4248,271.5644 150.084,270.6756 150.8272,269.8556 151.6471,269.1125 152.5359,268.4533 153.4851,267.8844 154.4855,267.4112 155.5274,267.0384 156.6008,266.7696 157.6955,266.6072 158.8007,266.5529 159.906,266.6072 161.0006,266.7696 162.0741,267.0384 163.116,267.4112 164.1163,267.8844 165.0655,268.4533 165.9543,269.1125 166.7743,269.8556 167.5174,270.6756 168.1766,271.5644 168.7455,272.5136 169.2187,273.5139 169.5915,274.5559 169.8604,275.6293 170.0227,276.7239 170.077,277.8292 170.0227,278.9345 169.8604,280.0291 169.5915,281.1025 169.2187,282.1445 168.7455,283.1448 168.1766,284.094 167.5174,284.9828 166.7743,285.8027 165.9543,286.5459 165.0655,287.2051 164.1163,287.774 163.116,288.2471 162.0741,288.6199 161.0006,288.8888 159.906,289.0512 158.8007,289.1055 157.6955,289.0512 156.6008,288.8888 155.5274,288.6199 154.4855,288.2471 153.4851,287.774 152.5359,287.2051 151.6471,286.5459 150.8272,285.8027 150.084,284.9828 149.4248,284.094 148.8559,283.1448 148.3828,282.1445 148.01,281.1025 147.7411,280.0291 147.5787,278.9345 147.5244,277.8292 147.5787,276.7239 147.7411,275.6293 148.01,274.5559"/>
    <polygon points="150.314,297.9318 150.3821,298.391 150.4949,298.8412 150.6513,299.2783 150.8497,299.6979 151.0884,300.096 151.3649,300.4689 151.6766,300.8128 152.0205,301.1245 152.3934,301.401 152.7915,301.6397 153.2111,301.8381 153.6482,301.9945 154.0984,302.1073 154.5576,302.1754 155.0212,302.1982 155.4848,302.1754 155.944,302.1073 156.3942,301.9945 156.8313,301.8381 157.2509,301.6397 157.649,301.401 158.0219,301.1245 158.3658,300.8128 158.6775,300.4689 158.954,300.096 159.1927,299.6979 159.3911,299.2783 159.5475,298.8412 159.6603,298.391 159.7284,297.9318 159.7512,297.4682 159.7284,297.0046 159.6603,296.5454 159.5475,296.0952 159.3911,295.6581 159.1927,295.2385 158.954,294.8404 158.6775,294.4675 158.3658,294.1236 158.0219,293.8119 157.649,293.5354 157.2509,293.2967 156.8313,293.0983 156.3942,292.9419 155.944,292.8291 155.4848,292.761 155.0212,292.7382 154.5576,292.761 154.0984,292.8291 153.6482,292.9419 153.2111,293.0983 152.7915,293.2967 152.3934,293.5354 152.0205,293.8119 151.6766,294.1236 151.3649,294.4675 151.0884,294.8404 150.8497,295.2385 150.6513,295.6581 150.4949,296.0952 150.3821,296.5454 150.314,297.0046 150.2912,297.4682"/>
    <polygon points="126.7477,297.1866 127.4069,298.0755 128.15,298.8954 128.9699,299.6386 129.8588,300.2978 130.8079,300.8667 131.8083,301.3398 132.8502,301.7126 133.9237,301.9815 135.0183,302.1439 136.1236,302.1982 137.2288,302.1439 138.3235,301.9815 139.3969,301.7126 140.4388,301.3398 141.4392,300.8667 142.3883,300.2978 143.2772,299.6386 144.0971,298.8954 144.8403,298.0755 145.4995,297.1866 146.0684,296.2375 146.5415,295.2371 146.9143,294.1952 147.1832,293.1218 147.3456,292.0271 147.3999,290.9219 147.3456,289.8166 147.1832,288.722 146.9143,287.6485 146.5415,286.6066 146.0684,285.6062 145.4995,284.6571 144.8403,283.7682 144.0971,282.9483 143.2772,282.2052 142.3883,281.546 141.4392,280.977 140.4388,280.5039 139.3969,280.1311 138.3235,279.8622 137.2288,279.6999 136.1236,279.6456 135.0183,279.6999 133.9237,279.8622 132.8502,280.1311 131.8083,280.5039 130.8079,280.977 129.8588,281.546 128.9699,282.2052 128.15,282.9483 127.4069,283.7682 126.7477,284.6571 126.1787,285.6062 125.7056,286.6066 125.3328,287.6485 125.0639,288.722 124.9016,289.8166 124.8473,290.9219 124.9016,292.0271 125.0639,293.1218 125.3328,294.1952 125.7056,295.2371 126.1787,296.2375"/>
    <polygon points="107.1816,287.2051 108.1308,287.774 109.1311,288.2471 110.1731,288.6199 111.2465,288.8888 112.3411,289.0512 113.4464,289.1055 114.5517,289.0512 115.6463,288.8888 116.7197,288.6199 117.7617,288.2471 118.762,287.774 119.7112,287.2051 120.6,286.5459 121.4199,285.8027 122.1631,284.9828 122.8223,284.094 123.3912,283.1448 123.8643,282.1445 124.2371,281.1025 124.506,280.0291 124.6684,278.9345 124.7227,277.8292 124.6684,276.7239 124.506,275.6293 124.2371,274.5559 123.8643,273.5139 123.3912,272.5136 122.8223,271.5644 122.1631,270.6756 121.4199,269.8556 120.6,269.1125 119.7112,268.4533 118.762,267.8844 117.7617,267.4112 116.7197,267.0384 115.6463,266.7696 114.5517,266.6072 113.4464,266.5529 112.3411,266.6072 111.2465,266.7696 110.1731,267.0384 109.1311,267.4112 108.1308,267.8844 107.1816,268.4533 106.2928,269.1125 105.4728,269.8556 104.7297,270.6756 104.0705,271.5644 103.5016,272.5136 103.0284,273.5139 102.6556,274.5559 102.3868,275.6293 102.2244,276.7239 102.1701,277.8292 102.2244,278.9345 102.3868,280.0291 102.6556,281.1025 103.0284,282.1445 103.5016,283.1448 104.0705,284.094 104.7297,284.9828 105.4728,285.8027 106.2928,286.5459"/>
    <polygon points="101.56,287.6485 101.1872,286.6066 100.714,285.6062 100.1451,284.6571 99.4859,283.7682 98.7428,282.9483 97.9228,282.2052 97.034,281.546 96.0848,280.977 95.0845,280.5039 94.0426,280.1311 92.9691,279.8622 91.8745,279.6999 90.7692,279.6456 89.664,279.6999 88.5693,279.8622 87.4959,280.1311 86.454,280.5039 85.4536,280.977 84.5044,281.546 83.6156,282.2052 82.7957,282.9483 82.0525,283.7682 81.3933,284.6571 80.8244,285.6062 80.3513,286.6066 79.9785,287.6485 79.7096,288.722 79.5472,289.8166 79.4929,290.9219 79.5472,292.0271 79.7096,293.1218 79.9785,294.1952 80.3513,295.2371 80.8244,296.2375 81.3933,297.1866 82.0525,298.0755 82.7957,298.8954 83.6156,299.6386 84.5044,300.2978 85.4536,300.8667 86.454,301.3398 87.4959,301.7126 88.5693,301.9815 89.664,302.1439 90.7692,302.1982 91.8745,302.1439 92.9691,301.9815 94.0426,301.7126 95.0845,301.3398 96.0848,300.8667 97.034,300.2978 97.9228,299.6386 98.7428,298.8954 99.4859,298.0755 100.1451,297.1866 100.714,296.2375 101.1872,295.2371 101.56,294.1952 101.8289,293.1218 101.9912,292.0271 102.0455,290.9219 101.9912,289.8166 101.8289,288.722"/>
    <polygon points="57.0324,280.0291 56.8701,278.9345 56.8158,277.8292 56.8701,276.7239 57.0324,275.6293 57.3013,274.5559 57.6741,273.5139 58.1473,272.5136 58.7162,271.5644 59.3754,270.6756 60.1185,269.8556 60.9385,269.1125 61.8273,268.4533 62.7765,267.8844 63.7768,267.4112 64.8187,267.0384 65.8922,266.7696 66.9868,266.6072 68.0921,266.5529 69.1973,266.6072 70.292,266.7696 71.3654,267.0384 72.4073,267.4112 73.4077,267.8844 74.3568,268.4533 75.2457,269.1125 76.0656,269.8556 76.8088,270.6756 77.468,271.5644 78.0369,272.5136 78.51,273.5139 78.8828,274.5559 79.1517,275.6293 79.3141,276.7239 79.3684,277.8292 79.3141,278.9345 79.1517,280.0291 78.8828,281.1025 78.51,282.1445 78.0369,283.1448 77.468,284.094 76.8088,284.9828 76.0656,285.8027 75.2457,286.5459 74.3568,287.2051 73.4077,287.774 72.4073,288.2471 71.3654,288.6199 70.292,288.8888 69.1973,289.0512 68.0921,289.1055 66.9868,289.0512 65.8922,288.8888 64.8187,288.6199 63.7768,288.2471 62.7765,287.774 61.8273,287.2051 60.9385,286.5459 60.1185,285.8027 59.3754,284.9828 58.7162,284.094 58.1473,283.1448 57.6741,282.1445 57.3013,281.1025"/>
    <polygon points="84.3619,306.628 84.76,306.3894 85.1796,306.1909 85.6167,306.0346 86.0669,305.9218 86.5261,305.8537 86.9897,305.8309 87.4533,305.8537 87.9125,305.9218 88.3627,306.0346 88.7998,306.1909 89.2194,306.3894 89.6175,306.628 89.9904,306.9045 90.3343,307.2163 90.646,307.5602 90.9225,307.933 91.1612,308.3312 91.3596,308.7508 91.516,309.1878 91.6288,309.6381 91.6969,310.0972 91.7197,310.5609 91.6969,311.0245 91.6288,311.4836 91.516,311.9339 91.3596,312.3709 91.1612,312.7906 90.9225,313.1887 90.646,313.5615 90.3343,313.9055 89.9904,314.2172 89.6175,314.4937 89.2194,314.7323 88.7998,314.9308 88.3627,315.0872 87.9125,315.2 87.4533,315.2681 86.9897,315.2908 86.5261,315.2681 86.0669,315.2 85.6167,315.0872 85.1796,314.9308 84.76,314.7323 84.3619,314.4937 83.989,314.2172 83.6451,313.9055 83.3334,313.5615 83.0569,313.1887 82.8182,312.7906 82.6198,312.3709 82.4634,311.9339 82.3506,311.4836 82.2825,311.0245 82.2597,310.5609 82.2825,310.0972 82.3506,309.6381 82.4634,309.1878 82.6198,308.7508 82.8182,308.3312 83.0569,307.933 83.3334,307.5602 83.6451,307.2163 83.989,306.9045"/>
    <polygon points="107.8568,306.1909 108.2938,306.0346 108.7441,305.9218 109.2032,305.8537 109.6669,305.8309 110.1305,305.8537 110.5896,305.9218 111.0399,306.0346 111.4769,306.1909 111.8966,306.3894 112.2947,306.628 112.6675,306.9045 113.0115,307.2163 113.3232,307.5602 113.5997,307.933 113.8383,308.3312 114.0368,308.7508 114.1932,309.1878 114.306,309.6381 114.3741,310.0972 114.3968,310.5609 114.3741,311.0245 114.306,311.4836 114.1932,311.9339 114.0368,312.3709 113.8383,312.7906 113.5997,313.1887 113.3232,313.5615 113.0115,313.9055 112.6675,314.2172 112.2947,314.4937 111.8966,314.7323 111.4769,314.9308 111.0399,315.0872 110.5896,315.2 110.1305,315.2681 109.6669,315.2908 109.2032,315.2681 108.7441,315.2 108.2938,315.0872 107.8568,314.9308 107.4372,314.7323 107.039,314.4937 106.6662,314.2172 106.3223,313.9055 106.0105,313.5615 105.734,313.1887 105.4954,312.7906 105.2969,312.3709 105.1406,311.9339 105.0278,311.4836 104.9597,311.0245 104.9369,310.5609 104.9597,310.0972 105.0278,309.6381 105.1406,309.1878 105.2969,308.7508 105.4954,308.3312 105.734,307.933 106.0105,307.5602 106.3223,307.2163 106.6662,306.9045 107.039,306.628 107.4372,306.3894"/>
    <polygon points="116.6355,302.2044 116.834,301.7848 117.0726,301.3867 117.3491,301.0139 117.6609,300.6699 118.0048,300.3582 118.3776,300.0817 118.7758,299.8431 119.1954,299.6446 119.6324,299.4882 120.0827,299.3754 120.5418,299.3073 121.0055,299.2846 121.4691,299.3073 121.9282,299.3754 122.3785,299.4882 122.8155,299.6446 123.2351,299.8431 123.6333,300.0817 124.0061,300.3582 124.35,300.6699 124.6618,301.0139 124.9383,301.3867 125.1769,301.7848 125.3754,302.2044 125.5318,302.6415 125.6445,303.0918 125.7126,303.5509 125.7354,304.0145 125.7126,304.4781 125.6445,304.9373 125.5318,305.3876 125.3754,305.8246 125.1769,306.2442 124.9383,306.6424 124.6618,307.0152 124.35,307.3591 124.0061,307.6708 123.6333,307.9474 123.2351,308.186 122.8155,308.3845 122.3785,308.5408 121.9282,308.6536 121.4691,308.7217 121.0055,308.7445 120.5418,308.7217 120.0827,308.6536 119.6324,308.5408 119.1954,308.3845 118.7758,308.186 118.3776,307.9474 118.0048,307.6708 117.6609,307.3591 117.3491,307.0152 117.0726,306.6424 116.834,306.2442 116.6355,305.8246 116.4791,305.3876 116.3664,304.9373 116.2983,304.4781 116.2755,304.0145 116.2983,303.5509 116.3664,303.0918 116.4791,302.6415"/>
    <polygon points="130.971,315.0872 131.4213,315.2 131.8804,315.2681 132.344,315.2908 132.8077,315.2681 133.2668,315.2 133.7171,315.0872 134.1541,314.9308 134.5737,314.7323 134.9719,314.4937 135.3447,314.2172 135.6886,313.9055 136.0004,313.5615 136.2769,313.1887 136.5155,312.7906 136.714,312.3709 136.8703,311.9339 136.9831,311.4836 137.0512,311.0245 137.074,310.5609 137.0512,310.0972 136.9831,309.6381 136.8703,309.1878 136.714,308.7508 136.5155,308.3312 136.2769,307.933 136.0004,307.5602 135.6886,307.2163 135.3447,306.9045 134.9719,306.628 134.5737,306.3894 134.1541,306.1909 133.7171,306.0346 133.2668,305.9218 132.8077,305.8537 132.344,305.8309 131.8804,305.8537 131.4213,305.9218 130.971,306.0346 130.534,306.1909 130.1143,306.3894 129.7162,306.628 129.3434,306.9045 128.9994,307.2163 128.6877,307.5602 128.4112,307.933 128.1726,308.3312 127.9741,308.7508 127.8177,309.1878 127.7049,309.6381 127.6368,310.0972 127.6141,310.5609 127.6368,311.0245 127.7049,311.4836 127.8177,311.9339 127.9741,312.3709 128.1726,312.7906 128.4112,313.1887 128.6877,313.5615 128.9994,313.9055 129.3434,314.2172 129.7162,314.4937 130.1143,314.7323 130.534,314.9308"/>
    <polygon points="159.5475,311.9339 159.3911,312.3709 159.1927,312.7906 158.954,313.1887 158.6775,313.5615 158.3658,313.9055 158.0219,314.2172 157.649,314.4937 157.2509,314.7323 156.8313,314.9308 156.3942,315.0872 155.944,315.2 155.4848,315.2681 155.0212,315.2908 154.5576,315.2681 154.0984,315.2 153.6482,315.0872 153.2111,314.9308 152.7915,314.7323 152.3934,314.4937 152.0205,314.2172 151.6766,313.9055 151.3649,313.5615 151.0884,313.1887 150.8497,312.7906 150.6513,312.3709 150.4949,311.9339 150.3821,311.4836 150.314,311.0245 150.2912,310.5609 150.314,310.0972 150.3821,309.6381 150.4949,309.1878 150.6513,308.7508 150.8497,308.3312 151.0884,307.933 151.3649,307.5602 151.6766,307.2163 152.0205,306.9045 152.3934,306.628 152.7915,306.3894 153.2111,306.1909 153.6482,306.0346 154.0984,305.9218 154.5576,305.8537 155.0212,305.8309 155.4848,305.8537 155.944,305.9218 156.3942,306.0346 156.8313,306.1909 157.2509,306.3894 157.649,306.628 158.0219,306.9045 158.3658,307.2163 158.6775,307.5602 158.954,307.933 159.1927,308.3312 159.3911,308.7508 159.5475,309.1878 159.6603,309.6381 159.7284,310.0972 159.7512,310.5609 159.7284,311.0245 159.6603,311.4836"/>
    <polygon points="166.3598,299.2846 166.8234,299.3073 167.2826,299.3754 167.7328,299.4882 168.1699,299.6446 168.5895,299.8431 168.9876,300.0817 169.3604,300.3582 169.7044,300.6699 170.0161,301.0139 170.2926,301.3867 170.5312,301.7848 170.7297,302.2044 170.8861,302.6415 170.9989,303.0918 171.067,303.5509 171.0898,304.0145 171.067,304.4781 170.9989,304.9373 170.8861,305.3876 170.7297,305.8246 170.5312,306.2442 170.2926,306.6424 170.0161,307.0152 169.7044,307.3591 169.3604,307.6708 168.9876,307.9474 168.5895,308.186 168.1699,308.3845 167.7328,308.5408 167.2826,308.6536 166.8234,308.7217 166.3598,308.7445 165.8962,308.7217 165.437,308.6536 164.9867,308.5408 164.5497,308.3845 164.1301,308.186 163.7319,307.9474 163.3591,307.6708 163.0152,307.3591 162.7035,307.0152 162.427,306.6424 162.1883,306.2442 161.9899,305.8246 161.8335,305.3876 161.7207,304.9373 161.6526,304.4781 161.6298,304.0145 161.6526,303.5509 161.7207,303.0918 161.8335,302.6415 161.9899,302.2044 162.1883,301.7848 162.427,301.3867 162.7035,301.0139 163.0152,300.6699 163.3591,300.3582 163.7319,300.0817 164.1301,299.8431 164.5497,299.6446 164.9867,299.4882 165.437,299.3754 165.8962,299.3073"/>
    <polygon points="175.4687,306.3894 175.8883,306.1909 176.3253,306.0346 176.7756,305.9218 177.2347,305.8537 177.6984,305.8309 178.162,305.8537 178.6211,305.9218 179.0714,306.0346 179.5084,306.1909 179.9281,306.3894 180.3262,306.628 180.699,306.9045 181.043,307.2163 181.3547,307.5602 181.6312,307.933 181.8698,308.3312 182.0683,308.7508 182.2247,309.1878 182.3375,309.6381 182.4056,310.0972 182.4283,310.5609 182.4056,311.0245 182.3375,311.4836 182.2247,311.9339 182.0683,312.3709 181.8698,312.7906 181.6312,313.1887 181.3547,313.5615 181.043,313.9055 180.699,314.2172 180.3262,314.4937 179.9281,314.7323 179.5084,314.9308 179.0714,315.0872 178.6211,315.2 178.162,315.2681 177.6984,315.2908 177.2347,315.2681 176.7756,315.2 176.3253,315.0872 175.8883,314.9308 175.4687,314.7323 175.0705,314.4937 174.6977,314.2172 174.3538,313.9055 174.042,313.5615 173.7655,313.1887 173.5269,312.7906 173.3284,312.3709 173.1721,311.9339 173.0593,311.4836 172.9912,311.0245 172.9684,310.5609 172.9912,310.0972 173.0593,309.6381 173.1721,309.1878 173.3284,308.7508 173.5269,308.3312 173.7655,307.933 174.042,307.5602 174.3538,307.2163 174.6977,306.9045 175.0705,306.628"/>
    <polygon points="192.2686,287.6485 191.8958,286.6066 191.4227,285.6062 190.8538,284.6571 190.1946,283.7682 189.4514,282.9483 188.6315,282.2052 187.7427,281.546 186.7935,280.977 185.7931,280.5039 184.7512,280.1311 183.6778,279.8622 182.5832,279.6999 181.4779,279.6456 180.3726,279.6999 179.278,279.8622 178.2046,280.1311 177.1626,280.5039 176.1623,280.977 175.2131,281.546 174.3243,282.2052 173.5043,282.9483 172.7612,283.7682 172.102,284.6571 171.5331,285.6062 171.0599,286.6066 170.6871,287.6485 170.4183,288.722 170.2559,289.8166 170.2016,290.9219 170.2559,292.0271 170.4183,293.1218 170.6871,294.1952 171.0599,295.2371 171.5331,296.2375 172.102,297.1866 172.7612,298.0755 173.5043,298.8954 174.3243,299.6386 175.2131,300.2978 176.1623,300.8667 177.1626,301.3398 178.2046,301.7126 179.278,301.9815 180.3726,302.1439 181.4779,302.1982 182.5832,302.1439 183.6778,301.9815 184.7512,301.7126 185.7931,301.3398 186.7935,300.8667 187.7427,300.2978 188.6315,299.6386 189.4514,298.8954 190.1946,298.0755 190.8538,297.1866 191.4227,296.2375 191.8958,295.2371 192.2686,294.1952 192.5375,293.1218 192.6999,292.0271 192.7542,290.9219 192.6999,289.8166 192.5375,288.722"/>
    <polygon points="204.9018,296.0952 204.7455,295.6581 204.547,295.2385 204.3084,294.8404 204.0318,294.4675 203.7201,294.1236 203.3762,293.8119 203.0034,293.5354 202.6052,293.2967 202.1856,293.0983 201.7486,292.9419 201.2983,292.8291 200.8391,292.761 200.3755,292.7382 199.9119,292.761 199.4528,292.8291 199.0025,292.9419 198.5654,293.0983 198.1458,293.2967 197.7477,293.5354 197.3749,293.8119 197.0309,294.1236 196.7192,294.4675 196.4427,294.8404 196.2041,295.2385 196.0056,295.6581 195.8492,296.0952 195.7364,296.5454 195.6683,297.0046 195.6456,297.4682 195.6683,297.9318 195.7364,298.391 195.8492,298.8412 196.0056,299.2783 196.2041,299.6979 196.4427,300.096 196.7192,300.4689 197.0309,300.8128 197.3749,301.1245 197.7477,301.401 198.1458,301.6397 198.5654,301.8381 199.0025,301.9945 199.4528,302.1073 199.9119,302.1754 200.3755,302.1982 200.8391,302.1754 201.2983,302.1073 201.7486,301.9945 202.1856,301.8381 202.6052,301.6397 203.0034,301.401 203.3762,301.1245 203.7201,300.8128 204.0318,300.4689 204.3084,300.096 204.547,299.6979 204.7455,299.2783 204.9018,298.8412 205.0146,298.391 205.0827,297.9318 205.1055,297.4682 205.0827,297.0046 205.0146,296.5454"/>
    <polygon points="206.2684,268.8753 204.4965,270.4813 202.5756,271.9059 200.5244,273.1354 198.3625,274.1579 196.1109,274.9635 193.7911,275.5446 191.4255,275.8955 189.0369,276.0128 186.6484,275.8955 184.2828,275.5446 181.963,274.9635 179.7113,274.1579 177.5495,273.1354 175.4983,271.9059 173.5774,270.4813 171.8055,268.8753 170.1995,267.1034 168.7749,265.1825 167.5454,263.1313 166.523,260.9695 165.7173,258.7178 165.1362,256.398 164.7853,254.0324 164.668,251.6439 164.7853,249.2553 165.1362,246.8897 165.7173,244.5699 166.523,242.3183 167.5454,240.1564 168.7749,238.1052 170.1995,236.1843 171.8055,234.4124 173.5774,232.8064 175.4983,231.3818 177.5495,230.1523 179.7113,229.1299 181.963,228.3242 184.2828,227.7431 186.6484,227.3922 189.0369,227.2749 191.4255,227.3922 193.7911,227.7431 196.1109,228.3242 198.3625,229.1299 200.5244,230.1523 202.5756,231.3818 204.4965,232.8064 206.2684,234.4124 207.8744,236.1843 209.299,238.1052 210.5285,240.1564 211.5509,242.3183 212.3566,244.5699 212.9377,246.8897 213.2886,249.2553 213.4059,251.6439 213.2886,254.0324 212.9377,256.398 212.3566,258.7178 211.5509,260.9695 210.5285,263.1313 209.299,265.1825 207.8744,267.1034"/>
    <polygon points="242.3558,269.1125 243.2446,268.4533 244.1938,267.8844 245.1941,267.4112 246.236,267.0384 247.3095,266.7696 248.4041,266.6072 249.5094,266.5529 250.6147,266.6072 251.7093,266.7696 252.7827,267.0384 253.8246,267.4112 254.825,267.8844 255.7742,268.4533 256.663,269.1125 257.4829,269.8556 258.2261,270.6756 258.8853,271.5644 259.4542,272.5136 259.9273,273.5139 260.3001,274.5559 260.569,275.6293 260.7314,276.7239 260.7857,277.8292 260.7314,278.9345 260.569,280.0291 260.3001,281.1025 259.9273,282.1445 259.4542,283.1448 258.8853,284.094 258.2261,284.9828 257.4829,285.8027 256.663,286.5459 255.7742,287.2051 254.825,287.774 253.8246,288.2471 252.7827,288.6199 251.7093,288.8888 250.6147,289.0512 249.5094,289.1055 248.4041,289.0512 247.3095,288.8888 246.236,288.6199 245.1941,288.2471 244.1938,287.774 243.2446,287.2051 242.3558,286.5459 241.5358,285.8027 240.7927,284.9828 240.1335,284.094 239.5646,283.1448 239.0914,282.1445 238.7186,281.1025 238.4498,280.0291 238.2874,278.9345 238.2331,277.8292 238.2874,276.7239 238.4498,275.6293 238.7186,274.5559 239.0914,273.5139 239.5646,272.5136 240.1335,271.5644 240.7927,270.6756 241.5358,269.8556"/>
    <polygon points="231.3906,287.2655 231.7634,286.989 232.1616,286.7504 232.5812,286.5519 233.0182,286.3956 233.4685,286.2828 233.9277,286.2147 234.3913,286.1919 234.8549,286.2147 235.314,286.2828 235.7643,286.3956 236.2014,286.5519 236.621,286.7504 237.0191,286.989 237.3919,287.2655 237.7359,287.5773 238.0476,287.9212 238.3241,288.294 238.5627,288.6922 238.7612,289.1118 238.9176,289.5488 239.0304,289.9991 239.0985,290.4582 239.1212,290.9219 239.0985,291.3855 239.0304,291.8446 238.9176,292.2949 238.7612,292.7319 238.5627,293.1516 238.3241,293.5497 238.0476,293.9225 237.7359,294.2665 237.3919,294.5782 237.0191,294.8547 236.621,295.0933 236.2014,295.2918 235.7643,295.4482 235.314,295.561 234.8549,295.6291 234.3913,295.6518 233.9277,295.6291 233.4685,295.561 233.0182,295.4482 232.5812,295.2918 232.1616,295.0933 231.7634,294.8547 231.3906,294.5782 231.0467,294.2665 230.735,293.9225 230.4584,293.5497 230.2198,293.1516 230.0214,292.7319 229.865,292.2949 229.7522,291.8446 229.6841,291.3855 229.6613,290.9219 229.6841,290.4582 229.7522,289.9991 229.865,289.5488 230.0214,289.1118 230.2198,288.6922 230.4584,288.294 230.735,287.9212 231.0467,287.5773"/>
    <polygon points="244.8071,292.8291 245.2662,292.761 245.7299,292.7382 246.1935,292.761 246.6526,292.8291 247.1029,292.9419 247.5399,293.0983 247.9596,293.2967 248.3577,293.5354 248.7305,293.8119 249.0745,294.1236 249.3862,294.4675 249.6627,294.8404 249.9013,295.2385 250.0998,295.6581 250.2562,296.0952 250.3689,296.5454 250.4371,297.0046 250.4598,297.4682 250.4371,297.9318 250.3689,298.391 250.2562,298.8412 250.0998,299.2783 249.9013,299.6979 249.6627,300.096 249.3862,300.4689 249.0745,300.8128 248.7305,301.1245 248.3577,301.401 247.9596,301.6397 247.5399,301.8381 247.1029,301.9945 246.6526,302.1073 246.1935,302.1754 245.7299,302.1982 245.2662,302.1754 244.8071,302.1073 244.3568,301.9945 243.9198,301.8381 243.5002,301.6397 243.102,301.401 242.7292,301.1245 242.3853,300.8128 242.0735,300.4689 241.797,300.096 241.5584,299.6979 241.3599,299.2783 241.2036,298.8412 241.0908,298.391 241.0227,297.9318 240.9999,297.4682 241.0227,297.0046 241.0908,296.5454 241.2036,296.0952 241.3599,295.6581 241.5584,295.2385 241.797,294.8404 242.0735,294.4675 242.3853,294.1236 242.7292,293.8119 243.102,293.5354 243.5002,293.2967 243.9198,293.0983 244.3568,292.9419"/>
    <polygon points="282.6045,295.2371 282.9773,294.1952 283.2462,293.1218 283.4086,292.0271 283.4629,290.9219 283.4086,289.8166 283.2462,288.722 282.9773,287.6485 282.6045,286.6066 282.1314,285.6062 281.5625,284.6571 280.9033,283.7682 280.1601,282.9483 279.3402,282.2052 278.4513,281.546 277.5022,280.977 276.5018,280.5039 275.4599,280.1311 274.3865,279.8622 273.2918,279.6999 272.1866,279.6456 271.0813,279.6999 269.9867,279.8622 268.9132,280.1311 267.8713,280.5039 266.8709,280.977 265.9218,281.546 265.0329,282.2052 264.213,282.9483 263.4698,283.7682 262.8106,284.6571 262.2417,285.6062 261.7686,286.6066 261.3958,287.6485 261.1269,288.722 260.9645,289.8166 260.9102,290.9219 260.9645,292.0271 261.1269,293.1218 261.3958,294.1952 261.7686,295.2371 262.2417,296.2375 262.8106,297.1866 263.4698,298.0755 264.213,298.8954 265.0329,299.6386 265.9218,300.2978 266.8709,300.8667 267.8713,301.3398 268.9132,301.7126 269.9867,301.9815 271.0813,302.1439 272.1866,302.1982 273.2918,302.1439 274.3865,301.9815 275.4599,301.7126 276.5018,301.3398 277.5022,300.8667 278.4513,300.2978 279.3402,299.6386 280.1601,298.8954 280.9033,298.0755 281.5625,297.1866 282.1314,296.2375"/>
    <polygon points="261.4384,305.8246 261.2399,306.2442 261.0013,306.6424 260.7248,307.0152 260.413,307.3591 260.0691,307.6708 259.6963,307.9474 259.2981,308.186 258.8785,308.3845 258.4415,308.5408 257.9912,308.6536 257.5321,308.7217 257.0684,308.7445 256.6048,308.7217 256.1457,308.6536 255.6954,308.5408 255.2584,308.3845 254.8387,308.186 254.4406,307.9474 254.0678,307.6708 253.7238,307.3591 253.4121,307.0152 253.1356,306.6424 252.897,306.2442 252.6985,305.8246 252.5421,305.3876 252.4294,304.9373 252.3612,304.4781 252.3385,304.0145 252.3612,303.5509 252.4294,303.0918 252.5421,302.6415 252.6985,302.2044 252.897,301.7848 253.1356,301.3867 253.4121,301.0139 253.7238,300.6699 254.0678,300.3582 254.4406,300.0817 254.8387,299.8431 255.2584,299.6446 255.6954,299.4882 256.1457,299.3754 256.6048,299.3073 257.0684,299.2846 257.5321,299.3073 257.9912,299.3754 258.4415,299.4882 258.8785,299.6446 259.2981,299.8431 259.6963,300.0817 260.0691,300.3582 260.413,300.6699 260.7248,301.0139 261.0013,301.3867 261.2399,301.7848 261.4384,302.2044 261.5947,302.6415 261.7075,303.0918 261.7756,303.5509 261.7984,304.0145 261.7756,304.4781 261.7075,304.9373 261.5947,305.3876"/>
    <polygon points="264.213,309.1336 265.0329,308.3905 265.9218,307.7313 266.8709,307.1624 267.8713,306.6892 268.9132,306.3164 269.9867,306.0476 271.0813,305.8852 272.1866,305.8309 273.2918,305.8852 274.3865,306.0476 275.4599,306.3164 276.5018,306.6892 277.5022,307.1624 278.4513,307.7313 279.3402,308.3905 280.1601,309.1336 280.9033,309.9536 281.5625,310.8424 282.1314,311.7916 282.6045,312.7919 282.9773,313.8339 283.2462,314.9073 283.4086,316.0019 283.4629,317.1072 283.4086,318.2125 283.2462,319.3071 282.9773,320.3805 282.6045,321.4225 282.1314,322.4228 281.5625,323.372 280.9033,324.2608 280.1601,325.0808 279.3402,325.8239 278.4513,326.4831 277.5022,327.052 276.5018,327.5251 275.4599,327.898 274.3865,328.1668 273.2918,328.3292 272.1866,328.3835 271.0813,328.3292 269.9867,328.1668 268.9132,327.898 267.8713,327.5251 266.8709,327.052 265.9218,326.4831 265.0329,325.8239 264.213,325.0808 263.4698,324.2608 262.8106,323.372 262.2417,322.4228 261.7686,321.4225 261.3958,320.3805 261.1269,319.3071 260.9645,318.2125 260.9102,317.1072 260.9645,316.0019 261.1269,314.9073 261.3958,313.8339 261.7686,312.7919 262.2417,311.7916 262.8106,310.8424 263.4698,309.9536"/>
    <polygon points="252.5421,331.5729 252.4294,331.1226 252.3612,330.6635 252.3385,330.1999 252.3612,329.7362 252.4294,329.2771 252.5421,328.8268 252.6985,328.3898 252.897,327.9702 253.1356,327.572 253.4121,327.1992 253.7238,326.8553 254.0678,326.5435 254.4406,326.267 254.8387,326.0284 255.2584,325.8299 255.6954,325.6736 256.1457,325.5608 256.6048,325.4927 257.0684,325.4699 257.5321,325.4927 257.9912,325.5608 258.4415,325.6736 258.8785,325.8299 259.2981,326.0284 259.6963,326.267 260.0691,326.5435 260.413,326.8553 260.7248,327.1992 261.0013,327.572 261.2399,327.9702 261.4384,328.3898 261.5947,328.8268 261.7075,329.2771 261.7756,329.7362 261.7984,330.1999 261.7756,330.6635 261.7075,331.1226 261.5947,331.5729 261.4384,332.0099 261.2399,332.4296 261.0013,332.8277 260.7248,333.2005 260.413,333.5445 260.0691,333.8562 259.6963,334.1327 259.2981,334.3713 258.8785,334.5698 258.4415,334.7262 257.9912,334.839 257.5321,334.9071 257.0684,334.9298 256.6048,334.9071 256.1457,334.839 255.6954,334.7262 255.2584,334.5698 254.8387,334.3713 254.4406,334.1327 254.0678,333.8562 253.7238,333.5445 253.4121,333.2005 253.1356,332.8277 252.897,332.4296 252.6985,332.0099"/>
    <polygon points="284.9189,335.5155 285.4878,336.4646 286.147,337.3535 286.8902,338.1734 287.7101,338.9166 288.5989,339.5758 289.5481,340.1447 290.5485,340.6178 291.5904,340.9906 292.6638,341.2595 293.7584,341.4219 294.8637,341.4762 295.969,341.4219 297.0636,341.2595 298.1371,340.9906 299.179,340.6178 300.1793,340.1447 301.1285,339.5758 302.0173,338.9166 302.8373,338.1734 303.5804,337.3535 304.2396,336.4646 304.8085,335.5155 305.2817,334.5151 305.6545,333.4732 305.9234,332.3998 306.0857,331.3051 306.14,330.1999 306.0857,329.0946 305.9234,328.0 305.6545,326.9265 305.2817,325.8846 304.8085,324.8843 304.2396,323.9351 303.5804,323.0463 302.8373,322.2263 302.0173,321.4832 301.1285,320.824 300.1793,320.2551 299.179,319.7819 298.1371,319.4091 297.0636,319.1402 295.969,318.9779 294.8637,318.9236 293.7584,318.9779 292.6638,319.1402 291.5904,319.4091 290.5485,319.7819 289.5481,320.2551 288.5989,320.824 287.7101,321.4832 286.8902,322.2263 286.147,323.0463 285.4878,323.9351 284.9189,324.8843 284.4458,325.8846 284.073,326.9265 283.8041,328.0 283.6417,329.0946 283.5874,330.1999 283.6417,331.3051 283.8041,332.3998 284.073,333.4732 284.4458,334.5151"/>
    <polygon points="280.1601,351.2661 280.9033,350.4461 281.5625,349.5573 282.1314,348.6081 282.6045,347.6078 282.9773,346.5659 283.2462,345.4924 283.4086,344.3978 283.4629,343.2925 283.4086,342.1873 283.2462,341.0926 282.9773,340.0192 282.6045,338.9773 282.1314,337.9769 281.5625,337.0278 280.9033,336.1389 280.1601,335.319 279.3402,334.5758 278.4513,333.9166 277.5022,333.3477 276.5018,332.8746 275.4599,332.5018 274.3865,332.2329 273.2918,332.0705 272.1866,332.0162 271.0813,332.0705 269.9867,332.2329 268.9132,332.5018 267.8713,332.8746 266.8709,333.3477 265.9218,333.9166 265.0329,334.5758 264.213,335.319 263.4698,336.1389 262.8106,337.0278 262.2417,337.9769 261.7686,338.9773 261.3958,340.0192 261.1269,341.0926 260.9645,342.1873 260.9102,343.2925 260.9645,344.3978 261.1269,345.4924 261.3958,346.5659 261.7686,347.6078 262.2417,348.6081 262.8106,349.5573 263.4698,350.4461 264.213,351.2661 265.0329,352.0092 265.9218,352.6684 266.8709,353.2373 267.8713,353.7105 268.9132,354.0833 269.9867,354.3522 271.0813,354.5145 272.1866,354.5688 273.2918,354.5145 274.3865,354.3522 275.4599,354.0833 276.5018,353.7105 277.5022,353.2373 278.4513,352.6684 279.3402,352.0092"/>
    <polygon points="240.9999,402.2095 241.0227,401.7459 241.0908,401.2868 241.2036,400.8365 241.3599,400.3995 241.5584,399.9798 241.797,399.5817 242.0735,399.2089 242.3853,398.8649 242.7292,398.5532 243.102,398.2767 243.5002,398.0381 243.9198,397.8396 244.3568,397.6832 244.8071,397.5704 245.2662,397.5023 245.7299,397.4796 246.1935,397.5023 246.6526,397.5704 247.1029,397.6832 247.5399,397.8396 247.9596,398.0381 248.3577,398.2767 248.7305,398.5532 249.0745,398.8649 249.3862,399.2089 249.6627,399.5817 249.9013,399.9798 250.0998,400.3995 250.2562,400.8365 250.3689,401.2868 250.4371,401.7459 250.4598,402.2095 250.4371,402.6732 250.3689,403.1323 250.2562,403.5826 250.0998,404.0196 249.9013,404.4392 249.6627,404.8374 249.3862,405.2102 249.0745,405.5541 248.7305,405.8659 248.3577,406.1424 247.9596,406.381 247.5399,406.5795 247.1029,406.7358 246.6526,406.8486 246.1935,406.9167 245.7299,406.9395 245.2662,406.9167 244.8071,406.8486 244.3568,406.7358 243.9198,406.5795 243.5002,406.381 243.102,406.1424 242.7292,405.8659 242.3853,405.5541 242.0735,405.2102 241.797,404.8374 241.5584,404.4392 241.3599,404.0196 241.2036,403.5826 241.0908,403.1323 241.0227,402.6732"/>
    <polygon points="261.5947,410.1289 261.4384,410.566 261.2399,410.9856 261.0013,411.3837 260.7248,411.7565 260.413,412.1005 260.0691,412.4122 259.6963,412.6887 259.2981,412.9273 258.8785,413.1258 258.4415,413.2822 257.9912,413.395 257.5321,413.4631 257.0684,413.4858 256.6048,413.4631 256.1457,413.395 255.6954,413.2822 255.2584,413.1258 254.8387,412.9273 254.4406,412.6887 254.0678,412.4122 253.7238,412.1005 253.4121,411.7565 253.1356,411.3837 252.897,410.9856 252.6985,410.566 252.5421,410.1289 252.4294,409.6786 252.3612,409.2195 252.3385,408.7559 252.3612,408.2923 252.4294,407.8331 252.5421,407.3828 252.6985,406.9458 252.897,406.5262 253.1356,406.128 253.4121,405.7552 253.7238,405.4113 254.0678,405.0996 254.4406,404.823 254.8387,404.5844 255.2584,404.3859 255.6954,404.2296 256.1457,404.1168 256.6048,404.0487 257.0684,404.0259 257.5321,404.0487 257.9912,404.1168 258.4415,404.2296 258.8785,404.3859 259.2981,404.5844 259.6963,404.823 260.0691,405.0996 260.413,405.4113 260.7248,405.7552 261.0013,406.128 261.2399,406.5262 261.4384,406.9458 261.5947,407.3828 261.7075,407.8331 261.7756,408.2923 261.7984,408.7559 261.7756,409.2195 261.7075,409.6786"/>
    <polygon points="260.0691,399.3195 259.6963,399.596 259.2981,399.8347 258.8785,400.0331 258.4415,400.1895 257.9912,400.3023 257.5321,400.3704 257.0684,400.3932 256.6048,400.3704 256.1457,400.3023 255.6954,400.1895 255.2584,400.0331 254.8387,399.8347 254.4406,399.596 254.0678,399.3195 253.7238,399.0078 253.4121,398.6639 253.1356,398.291 252.897,397.8929 252.6985,397.4733 252.5421,397.0362 252.4294,396.586 252.3612,396.1268 252.3385,395.6632 252.3612,395.1996 252.4294,394.7404 252.5421,394.2902 252.6985,393.8531 252.897,393.4335 253.1356,393.0354 253.4121,392.6625 253.7238,392.3186 254.0678,392.0069 254.4406,391.7304 254.8387,391.4917 255.2584,391.2933 255.6954,391.1369 256.1457,391.0241 256.6048,390.956 257.0684,390.9332 257.5321,390.956 257.9912,391.0241 258.4415,391.1369 258.8785,391.2933 259.2981,391.4917 259.6963,391.7304 260.0691,392.0069 260.413,392.3186 260.7248,392.6625 261.0013,393.0354 261.2399,393.4335 261.4384,393.8531 261.5947,394.2902 261.7075,394.7404 261.7756,395.1996 261.7984,395.6632 261.7756,396.1268 261.7075,396.586 261.5947,397.0362 261.4384,397.4733 261.2399,397.8929 261.0013,398.291 260.7248,398.6639 260.413,399.0078"/>
    <polygon points="272.5785,386.8872 272.777,387.3068 272.9333,387.7438 273.0461,388.1941 273.1142,388.6533 273.137,389.1169 273.1142,389.5805 273.0461,390.0396 272.9333,390.4899 272.777,390.927 272.5785,391.3466 272.3399,391.7447 272.0633,392.1175 271.7516,392.4615 271.4077,392.7732 271.0349,393.0497 270.6367,393.2883 270.2171,393.4868 269.7801,393.6432 269.3298,393.756 268.8706,393.8241 268.407,393.8468 267.9434,393.8241 267.4843,393.756 267.034,393.6432 266.5969,393.4868 266.1773,393.2883 265.7792,393.0497 265.4064,392.7732 265.0624,392.4615 264.7507,392.1175 264.4742,391.7447 264.2356,391.3466 264.0371,390.927 263.8807,390.4899 263.7679,390.0396 263.6998,389.5805 263.6771,389.1169 263.6998,388.6533 263.7679,388.1941 263.8807,387.7438 264.0371,387.3068 264.2356,386.8872 264.4742,386.489 264.7507,386.1162 265.0624,385.7723 265.4064,385.4606 265.7792,385.184 266.1773,384.9454 266.5969,384.7469 267.034,384.5906 267.4843,384.4778 267.9434,384.4097 268.407,384.3869 268.8706,384.4097 269.3298,384.4778 269.7801,384.5906 270.2171,384.7469 270.6367,384.9454 271.0349,385.184 271.4077,385.4606 271.7516,385.7723 272.0633,386.1162 272.3399,386.489"/>
    <polygon points="280.1601,377.4514 279.3402,378.1946 278.4513,378.8538 277.5022,379.4227 276.5018,379.8958 275.4599,380.2686 274.3865,380.5375 273.2918,380.6999 272.1866,380.7542 271.0813,380.6999 269.9867,380.5375 268.9132,380.2686 267.8713,379.8958 266.8709,379.4227 265.9218,378.8538 265.0329,378.1946 264.213,377.4514 263.4698,376.6315 262.8106,375.7426 262.2417,374.7935 261.7686,373.7931 261.3958,372.7512 261.1269,371.6778 260.9645,370.5831 260.9102,369.4779 260.9645,368.3726 261.1269,367.278 261.3958,366.2045 261.7686,365.1626 262.2417,364.1623 262.8106,363.2131 263.4698,362.3243 264.213,361.5043 265.0329,360.7612 265.9218,360.102 266.8709,359.5331 267.8713,359.0599 268.9132,358.6871 269.9867,358.4182 271.0813,358.2559 272.1866,358.2016 273.2918,358.2559 274.3865,358.4182 275.4599,358.6871 276.5018,359.0599 277.5022,359.5331 278.4513,360.102 279.3402,360.7612 280.1601,361.5043 280.9033,362.3243 281.5625,363.2131 282.1314,364.1623 282.6045,365.1626 282.9773,366.2045 283.2462,367.278 283.4086,368.3726 283.4629,369.4779 283.4086,370.5831 283.2462,371.6778 282.9773,372.7512 282.6045,373.7931 282.1314,374.7935 281.5625,375.7426 280.9033,376.6315"/>
    <polygon points="293.712,379.957 294.0849,379.6805 294.4288,379.3688 294.7405,379.0249 295.017,378.652 295.2557,378.2539 295.4541,377.8343 295.6105,377.3972 295.7233,376.947 295.7914,376.4878 295.8142,376.0242 295.7914,375.5606 295.7233,375.1014 295.6105,374.6512 295.4541,374.2141 295.2557,373.7945 295.017,373.3964 294.7405,373.0235 294.4288,372.6796 294.0849,372.3679 293.712,372.0914 293.3139,371.8527 292.8943,371.6543 292.4572,371.4979 292.007,371.3851 291.5478,371.317 291.0842,371.2942 290.6206,371.317 290.1614,371.3851 289.7112,371.4979 289.2741,371.6543 288.8545,371.8527 288.4564,372.0914 288.0835,372.3679 287.7396,372.6796 287.4279,373.0235 287.1514,373.3964 286.9127,373.7945 286.7143,374.2141 286.5579,374.6512 286.4451,375.1014 286.377,375.5606 286.3542,376.0242 286.377,376.4878 286.4451,376.947 286.5579,377.3972 286.7143,377.8343 286.9127,378.2539 287.1514,378.652 287.4279,379.0249 287.7396,379.3688 288.0835,379.6805 288.4564,379.957 288.8545,380.1957 289.2741,380.3941 289.7112,380.5505 290.1614,380.6633 290.6206,380.7314 291.0842,380.7542 291.5478,380.7314 292.007,380.6633 292.4572,380.5505 292.8943,380.3941 293.3139,380.1957"/>
    <polygon points="292.6638,345.3256 293.7584,345.1632 294.8637,345.1089 295.969,345.1632 297.0636,345.3256 298.1371,345.5944 299.179,345.9673 300.1793,346.4404 301.1285,347.0093 302.0173,347.6685 302.8373,348.4116 303.5804,349.2316 304.2396,350.1204 304.8085,351.0696 305.2817,352.0699 305.6545,353.1119 305.9234,354.1853 306.0857,355.2799 306.14,356.3852 306.0857,357.4905 305.9234,358.5851 305.6545,359.6585 305.2817,360.7005 304.8085,361.7008 304.2396,362.65 303.5804,363.5388 302.8373,364.3588 302.0173,365.1019 301.1285,365.7611 300.1793,366.33 299.179,366.8031 298.1371,367.176 297.0636,367.4448 295.969,367.6072 294.8637,367.6615 293.7584,367.6072 292.6638,367.4448 291.5904,367.176 290.5485,366.8031 289.5481,366.33 288.5989,365.7611 287.7101,365.1019 286.8902,364.3588 286.147,363.5388 285.4878,362.65 284.9189,361.7008 284.4458,360.7005 284.073,359.6585 283.8041,358.5851 283.6417,357.4905 283.5874,356.3852 283.6417,355.2799 283.8041,354.1853 284.073,353.1119 284.4458,352.0699 284.9189,351.0696 285.4878,350.1204 286.147,349.2316 286.8902,348.4116 287.7101,347.6685 288.5989,347.0093 289.5481,346.4404 290.5485,345.9673 291.5904,345.5944"/>
    <polygon points="313.2977,332.039 313.7614,332.0162 314.225,332.039 314.6841,332.1071 315.1344,332.2199 315.5714,332.3763 315.991,332.5747 316.3892,332.8134 316.762,333.0899 317.106,333.4016 317.4177,333.7455 317.6942,334.1184 317.9328,334.5165 318.1313,334.9361 318.2877,335.3732 318.4004,335.8234 318.4686,336.2826 318.4913,336.7462 318.4686,337.2098 318.4004,337.669 318.2877,338.1192 318.1313,338.5563 317.9328,338.9759 317.6942,339.374 317.4177,339.7469 317.106,340.0908 316.762,340.4025 316.3892,340.679 315.991,340.9177 315.5714,341.1161 315.1344,341.2725 314.6841,341.3853 314.225,341.4534 313.7614,341.4762 313.2977,341.4534 312.8386,341.3853 312.3883,341.2725 311.9513,341.1161 311.5317,340.9177 311.1335,340.679 310.7607,340.4025 310.4168,340.0908 310.105,339.7469 309.8285,339.374 309.5899,338.9759 309.3914,338.5563 309.2351,338.1192 309.1223,337.669 309.0542,337.2098 309.0314,336.7462 309.0542,336.2826 309.1223,335.8234 309.2351,335.3732 309.3914,334.9361 309.5899,334.5165 309.8285,334.1184 310.105,333.7455 310.4168,333.4016 310.7607,333.0899 311.1335,332.8134 311.5317,332.5747 311.9513,332.3763 312.3883,332.2199 312.8386,332.1071"/>
    <polygon points="314.2675,327.898 313.2256,327.5251 312.2253,327.052 311.2761,326.4831 310.3873,325.8239 309.5673,325.0808 308.8242,324.2608 308.165,323.372 307.5961,322.4228 307.1229,321.4225 306.7501,320.3805 306.4812,319.3071 306.3189,318.2125 306.2646,317.1072 306.3189,316.0019 306.4812,314.9073 306.7501,313.8339 307.1229,312.7919 307.5961,311.7916 308.165,310.8424 308.8242,309.9536 309.5673,309.1336 310.3873,308.3905 311.2761,307.7313 312.2253,307.1624 313.2256,306.6892 314.2675,306.3164 315.341,306.0476 316.4356,305.8852 317.5409,305.8309 318.6462,305.8852 319.7408,306.0476 320.8142,306.3164 321.8561,306.6892 322.8565,307.1624 323.8057,307.7313 324.6945,308.3905 325.5144,309.1336 326.2576,309.9536 326.9168,310.8424 327.4857,311.7916 327.9588,312.7919 328.3316,313.8339 328.6005,314.9073 328.7629,316.0019 328.8172,317.1072 328.7629,318.2125 328.6005,319.3071 328.3316,320.3805 327.9588,321.4225 327.4857,322.4228 326.9168,323.372 326.2576,324.2608 325.5144,325.0808 324.6945,325.8239 323.8057,326.4831 322.8565,327.052 321.8561,327.5251 320.8142,327.898 319.7408,328.1668 318.6462,328.3292 317.5409,328.3835 316.4356,328.3292 315.341,328.1668"/>
    <polygon points="333.0939,326.9981 332.7822,326.6542 332.5057,326.2814 332.2671,325.8832 332.0686,325.4636 331.9122,325.0266 331.7994,324.5763 331.7313,324.1172 331.7085,323.6535 331.7313,323.1899 331.7994,322.7308 331.9122,322.2805 332.0686,321.8434 332.2671,321.4238 332.5057,321.0257 332.7822,320.6529 333.0939,320.3089 333.4379,319.9972 333.8107,319.7207 334.2088,319.4821 334.6284,319.2836 335.0655,319.1272 335.5157,319.0144 335.9749,318.9463 336.4385,318.9236 336.9021,318.9463 337.3613,319.0144 337.8116,319.1272 338.2486,319.2836 338.6682,319.4821 339.0664,319.7207 339.4392,319.9972 339.7831,320.3089 340.0948,320.6529 340.3713,321.0257 340.61,321.4238 340.8084,321.8434 340.9648,322.2805 341.0776,322.7308 341.1457,323.1899 341.1685,323.6535 341.1457,324.1172 341.0776,324.5763 340.9648,325.0266 340.8084,325.4636 340.61,325.8832 340.3713,326.2814 340.0948,326.6542 339.7831,326.9981 339.4392,327.3098 339.0664,327.5864 338.6682,327.825 338.2486,328.0235 337.8116,328.1798 337.3613,328.2926 336.9021,328.3607 336.4385,328.3835 335.9749,328.3607 335.5157,328.2926 335.0655,328.1798 334.6284,328.0235 334.2088,327.825 333.8107,327.5864 333.4379,327.3098"/>
    <polygon points="337.3613,305.9218 337.8116,306.0346 338.2486,306.1909 338.6682,306.3894 339.0664,306.628 339.4392,306.9045 339.7831,307.2163 340.0948,307.5602 340.3713,307.933 340.61,308.3312 340.8084,308.7508 340.9648,309.1878 341.0776,309.6381 341.1457,310.0972 341.1685,310.5609 341.1457,311.0245 341.0776,311.4836 340.9648,311.9339 340.8084,312.3709 340.61,312.7906 340.3713,313.1887 340.0948,313.5615 339.7831,313.9055 339.4392,314.2172 339.0664,314.4937 338.6682,314.7323 338.2486,314.9308 337.8116,315.0872 337.3613,315.2 336.9021,315.2681 336.4385,315.2908 335.9749,315.2681 335.5157,315.2 335.0655,315.0872 334.6284,314.9308 334.2088,314.7323 333.8107,314.4937 333.4379,314.2172 333.0939,313.9055 332.7822,313.5615 332.5057,313.1887 332.2671,312.7906 332.0686,312.3709 331.9122,311.9339 331.7994,311.4836 331.7313,311.0245 331.7085,310.5609 331.7313,310.0972 331.7994,309.6381 331.9122,309.1878 332.0686,308.7508 332.2671,308.3312 332.5057,307.933 332.7822,307.5602 333.0939,307.2163 333.4379,306.9045 333.8107,306.628 334.2088,306.3894 334.6284,306.1909 335.0655,306.0346 335.5157,305.9218 335.9749,305.8537 336.4385,305.8309 336.9021,305.8537"/>
    <polygon points="341.1685,297.4682 341.1457,297.9318 341.0776,298.391 340.9648,298.8412 340.8084,299.2783 340.61,299.6979 340.3713,300.096 340.0948,300.4689 339.7831,300.8128 339.4392,301.1245 339.0664,301.401 338.6682,301.6397 338.2486,301.8381 337.8116,301.9945 337.3613,302.1073 336.9021,302.1754 336.4385,302.1982 335.9749,302.1754 335.5157,302.1073 335.0655,301.9945 334.6284,301.8381 334.2088,301.6397 333.8107,301.401 333.4379,301.1245 333.0939,300.8128 332.7822,300.4689 332.5057,300.096 332.2671,299.6979 332.0686,299.2783 331.9122,298.8412 331.7994,298.391 331.7313,297.9318 331.7085,297.4682 331.7313,297.0046 331.7994,296.5454 331.9122,296.0952 332.0686,295.6581 332.2671,295.2385 332.5057,294.8404 332.7822,294.4675 333.0939,294.1236 333.4379,293.8119 333.8107,293.5354 334.2088,293.2967 334.6284,293.0983 335.0655,292.9419 335.5157,292.8291 335.9749,292.761 336.4385,292.7382 336.9021,292.761 337.3613,292.8291 337.8116,292.9419 338.2486,293.0983 338.6682,293.2967 339.0664,293.5354 339.4392,293.8119 339.7831,294.1236 340.0948,294.4675 340.3713,294.8404 340.61,295.2385 340.8084,295.6581 340.9648,296.0952 341.0776,296.5454 341.1457,297.0046"/>
    <polygon points="351.9486,288.6922 352.147,289.1118 352.3034,289.5488 352.4162,289.9991 352.4843,290.4582 352.5071,290.9219 352.4843,291.3855 352.4162,291.8446 352.3034,292.2949 352.147,292.7319 351.9486,293.1516 351.7099,293.5497 351.4334,293.9225 351.1217,294.2665 350.7778,294.5782 350.4049,294.8547 350.0068,295.0933 349.5872,295.2918 349.1501,295.4482 348.6999,295.561 348.2407,295.6291 347.7771,295.6518 347.3135,295.6291 346.8543,295.561 346.4041,295.4482 345.967,295.2918 345.5474,295.0933 345.1493,294.8547 344.7764,294.5782 344.4325,294.2665 344.1208,293.9225 343.8443,293.5497 343.6056,293.1516 343.4072,292.7319 343.2508,292.2949 343.138,291.8446 343.0699,291.3855 343.0471,290.9219 343.0699,290.4582 343.138,289.9991 343.2508,289.5488 343.4072,289.1118 343.6056,288.6922 343.8443,288.294 344.1208,287.9212 344.4325,287.5773 344.7764,287.2655 345.1493,286.989 345.5474,286.7504 345.967,286.5519 346.4041,286.3956 346.8543,286.2828 347.3135,286.2147 347.7771,286.1919 348.2407,286.2147 348.6999,286.2828 349.1501,286.3956 349.5872,286.5519 350.0068,286.7504 350.4049,286.989 350.7778,287.2655 351.1217,287.5773 351.4334,287.9212 351.7099,288.294"/>
    <polygon points="370.4543,286.1919 370.9179,286.2147 371.377,286.2828 371.8273,286.3956 372.2644,286.5519 372.684,286.7504 373.0821,286.989 373.4549,287.2655 373.7989,287.5773 374.1106,287.9212 374.3871,288.294 374.6257,288.6922 374.8242,289.1118 374.9806,289.5488 375.0934,289.9991 375.1615,290.4582 375.1842,290.9219 375.1615,291.3855 375.0934,291.8446 374.9806,292.2949 374.8242,292.7319 374.6257,293.1516 374.3871,293.5497 374.1106,293.9225 373.7989,294.2665 373.4549,294.5782 373.0821,294.8547 372.684,295.0933 372.2644,295.2918 371.8273,295.4482 371.377,295.561 370.9179,295.6291 370.4543,295.6518 369.9907,295.6291 369.5315,295.561 369.0812,295.4482 368.6442,295.2918 368.2246,295.0933 367.8264,294.8547 367.4536,294.5782 367.1097,294.2665 366.798,293.9225 366.5214,293.5497 366.2828,293.1516 366.0843,292.7319 365.928,292.2949 365.8152,291.8446 365.7471,291.3855 365.7243,290.9219 365.7471,290.4582 365.8152,289.9991 365.928,289.5488 366.0843,289.1118 366.2828,288.6922 366.5214,288.294 366.798,287.9212 367.1097,287.5773 367.4536,287.2655 367.8264,286.989 368.2246,286.7504 368.6442,286.5519 369.0812,286.3956 369.5315,286.2828 369.9907,286.2147"/>
    <polygon points="368.2246,273.6577 368.6442,273.4593 369.0812,273.3029 369.5315,273.1901 369.9907,273.122 370.4543,273.0992 370.9179,273.122 371.377,273.1901 371.8273,273.3029 372.2644,273.4593 372.684,273.6577 373.0821,273.8964 373.4549,274.1729 373.7989,274.4846 374.1106,274.8285 374.3871,275.2014 374.6257,275.5995 374.8242,276.0191 374.9806,276.4562 375.0934,276.9064 375.1615,277.3656 375.1842,277.8292 375.1615,278.2928 375.0934,278.752 374.9806,279.2022 374.8242,279.6393 374.6257,280.0589 374.3871,280.457 374.1106,280.8299 373.7989,281.1738 373.4549,281.4855 373.0821,281.762 372.684,282.0007 372.2644,282.1991 371.8273,282.3555 371.377,282.4683 370.9179,282.5364 370.4543,282.5592 369.9907,282.5364 369.5315,282.4683 369.0812,282.3555 368.6442,282.1991 368.2246,282.0007 367.8264,281.762 367.4536,281.4855 367.1097,281.1738 366.798,280.8299 366.5214,280.457 366.2828,280.0589 366.0843,279.6393 365.928,279.2022 365.8152,278.752 365.7471,278.2928 365.7243,277.8292 365.7471,277.3656 365.8152,276.9064 365.928,276.4562 366.0843,276.0191 366.2828,275.5995 366.5214,275.2014 366.798,274.8285 367.1097,274.4846 367.4536,274.1729 367.8264,273.8964"/>
    <polygon points="356.4879,267.35 356.886,267.1114 357.3056,266.9129 357.7426,266.7566 358.1929,266.6438 358.6521,266.5757 359.1157,266.5529 359.5793,266.5757 360.0385,266.6438 360.4887,266.7566 360.9258,266.9129 361.3454,267.1114 361.7435,267.35 362.1163,267.6265 362.4603,267.9383 362.772,268.2822 363.0485,268.655 363.2872,269.0532 363.4856,269.4728 363.642,269.9098 363.7548,270.3601 363.8229,270.8192 363.8457,271.2829 363.8229,271.7465 363.7548,272.2056 363.642,272.6559 363.4856,273.0929 363.2872,273.5126 363.0485,273.9107 362.772,274.2835 362.4603,274.6275 362.1163,274.9392 361.7435,275.2157 361.3454,275.4543 360.9258,275.6528 360.4887,275.8092 360.0385,275.9219 359.5793,275.9901 359.1157,276.0128 358.6521,275.9901 358.1929,275.9219 357.7426,275.8092 357.3056,275.6528 356.886,275.4543 356.4879,275.2157 356.115,274.9392 355.7711,274.6275 355.4594,274.2835 355.1829,273.9107 354.9442,273.5126 354.7458,273.0929 354.5894,272.6559 354.4766,272.2056 354.4085,271.7465 354.3857,271.2829 354.4085,270.8192 354.4766,270.3601 354.5894,269.9098 354.7458,269.4728 354.9442,269.0532 355.1829,268.655 355.4594,268.2822 355.7711,267.9383 356.115,267.6265"/>
    <polygon points="350.4049,247.711 350.7778,247.9875 351.1217,248.2993 351.4334,248.6432 351.7099,249.016 351.9486,249.4142 352.147,249.8338 352.3034,250.2708 352.4162,250.7211 352.4843,251.1802 352.5071,251.6439 352.4843,252.1075 352.4162,252.5666 352.3034,253.0169 352.147,253.4539 351.9486,253.8736 351.7099,254.2717 351.4334,254.6445 351.1217,254.9885 350.7778,255.3002 350.4049,255.5767 350.0068,255.8153 349.5872,256.0138 349.1501,256.1702 348.6999,256.2829 348.2407,256.3511 347.7771,256.3738 347.3135,256.3511 346.8543,256.2829 346.4041,256.1702 345.967,256.0138 345.5474,255.8153 345.1493,255.5767 344.7764,255.3002 344.4325,254.9885 344.1208,254.6445 343.8443,254.2717 343.6056,253.8736 343.4072,253.4539 343.2508,253.0169 343.138,252.5666 343.0699,252.1075 343.0471,251.6439 343.0699,251.1802 343.138,250.7211 343.2508,250.2708 343.4072,249.8338 343.6056,249.4142 343.8443,249.016 344.1208,248.6432 344.4325,248.2993 344.7764,247.9875 345.1493,247.711 345.5474,247.4724 345.967,247.2739 346.4041,247.1176 346.8543,247.0048 347.3135,246.9367 347.7771,246.9139 348.2407,246.9367 348.6999,247.0048 349.1501,247.1176 349.5872,247.2739 350.0068,247.4724"/>
    <polygon points="344.4325,261.3919 344.1208,261.7359 343.8443,262.1087 343.6056,262.5068 343.4072,262.9264 343.2508,263.3635 343.138,263.8138 343.0699,264.2729 343.0471,264.7365 343.0699,265.2001 343.138,265.6593 343.2508,266.1096 343.4072,266.5466 343.6056,266.9662 343.8443,267.3644 344.1208,267.7372 344.4325,268.0811 344.7764,268.3928 345.1493,268.6694 345.5474,268.908 345.967,269.1065 346.4041,269.2628 346.8543,269.3756 347.3135,269.4437 347.7771,269.4665 348.2407,269.4437 348.6999,269.3756 349.1501,269.2628 349.5872,269.1065 350.0068,268.908 350.4049,268.6694 350.7778,268.3928 351.1217,268.0811 351.4334,267.7372 351.7099,267.3644 351.9486,266.9662 352.147,266.5466 352.3034,266.1096 352.4162,265.6593 352.4843,265.2001 352.5071,264.7365 352.4843,264.2729 352.4162,263.8138 352.3034,263.3635 352.147,262.9264 351.9486,262.5068 351.7099,262.1087 351.4334,261.7359 351.1217,261.3919 350.7778,261.0802 350.4049,260.8037 350.0068,260.5651 349.5872,260.3666 349.1501,260.2102 348.6999,260.0974 348.2407,260.0293 347.7771,260.0066 347.3135,260.0293 346.8543,260.0974 346.4041,260.2102 345.967,260.3666 345.5474,260.5651 345.1493,260.8037 344.7764,261.0802"/>
    <polygon points="331.7994,259.113 331.7313,258.6538 331.7085,258.1902 331.7313,257.7266 331.7994,257.2674 331.9122,256.8172 332.0686,256.3801 332.2671,255.9605 332.5057,255.5624 332.7822,255.1895 333.0939,254.8456 333.4379,254.5339 333.8107,254.2574 334.2088,254.0187 334.6284,253.8203 335.0655,253.6639 335.5157,253.5511 335.9749,253.483 336.4385,253.4602 336.9021,253.483 337.3613,253.5511 337.8116,253.6639 338.2486,253.8203 338.6682,254.0187 339.0664,254.2574 339.4392,254.5339 339.7831,254.8456 340.0948,255.1895 340.3713,255.5624 340.61,255.9605 340.8084,256.3801 340.9648,256.8172 341.0776,257.2674 341.1457,257.7266 341.1685,258.1902 341.1457,258.6538 341.0776,259.113 340.9648,259.5632 340.8084,260.0003 340.61,260.4199 340.3713,260.818 340.0948,261.1909 339.7831,261.5348 339.4392,261.8465 339.0664,262.123 338.6682,262.3617 338.2486,262.5601 337.8116,262.7165 337.3613,262.8293 336.9021,262.8974 336.4385,262.9202 335.9749,262.8974 335.5157,262.8293 335.0655,262.7165 334.6284,262.5601 334.2088,262.3617 333.8107,262.123 333.4379,261.8465 333.0939,261.5348 332.7822,261.1909 332.5057,260.818 332.2671,260.4199 332.0686,260.0003 331.9122,259.5632"/>
    <polygon points="334.2088,267.1114 334.6284,266.9129 335.0655,266.7566 335.5157,266.6438 335.9749,266.5757 336.4385,266.5529 336.9021,266.5757 337.3613,266.6438 337.8116,266.7566 338.2486,266.9129 338.6682,267.1114 339.0664,267.35 339.4392,267.6265 339.7831,267.9383 340.0948,268.2822 340.3713,268.655 340.61,269.0532 340.8084,269.4728 340.9648,269.9098 341.0776,270.3601 341.1457,270.8192 341.1685,271.2829 341.1457,271.7465 341.0776,272.2056 340.9648,272.6559 340.8084,273.0929 340.61,273.5126 340.3713,273.9107 340.0948,274.2835 339.7831,274.6275 339.4392,274.9392 339.0664,275.2157 338.6682,275.4543 338.2486,275.6528 337.8116,275.8092 337.3613,275.9219 336.9021,275.9901 336.4385,276.0128 335.9749,275.9901 335.5157,275.9219 335.0655,275.8092 334.6284,275.6528 334.2088,275.4543 333.8107,275.2157 333.4379,274.9392 333.0939,274.6275 332.7822,274.2835 332.5057,273.9107 332.2671,273.5126 332.0686,273.0929 331.9122,272.6559 331.7994,272.2056 331.7313,271.7465 331.7085,271.2829 331.7313,270.8192 331.7994,270.3601 331.9122,269.9098 332.0686,269.4728 332.2671,269.0532 332.5057,268.655 332.7822,268.2822 333.0939,267.9383 333.4379,267.6265 333.8107,267.35"/>
    <polygon points="314.225,279.6683 314.6841,279.7364 315.1344,279.8492 315.5714,280.0056 315.991,280.2041 316.3892,280.4427 316.762,280.7192 317.106,281.0309 317.4177,281.3749 317.6942,281.7477 317.9328,282.1458 318.1313,282.5654 318.2877,283.0025 318.4004,283.4528 318.4686,283.9119 318.4913,284.3755 318.4686,284.8391 318.4004,285.2983 318.2877,285.7486 318.1313,286.1856 317.9328,286.6052 317.6942,287.0034 317.4177,287.3762 317.106,287.7201 316.762,288.0318 316.3892,288.3084 315.991,288.547 315.5714,288.7455 315.1344,288.9018 314.6841,289.0146 314.225,289.0827 313.7614,289.1055 313.2977,289.0827 312.8386,289.0146 312.3883,288.9018 311.9513,288.7455 311.5317,288.547 311.1335,288.3084 310.7607,288.0318 310.4168,287.7201 310.105,287.3762 309.8285,287.0034 309.5899,286.6052 309.3914,286.1856 309.2351,285.7486 309.1223,285.2983 309.0542,284.8391 309.0314,284.3755 309.0542,283.9119 309.1223,283.4528 309.2351,283.0025 309.3914,282.5654 309.5899,282.1458 309.8285,281.7477 310.105,281.3749 310.4168,281.0309 310.7607,280.7192 311.1335,280.4427 311.5317,280.2041 311.9513,280.0056 312.3883,279.8492 312.8386,279.7364 313.2977,279.6683 313.7614,279.6456"/>
    <polygon points="306.4812,262.5366 306.7501,261.4632 307.1229,260.4213 307.5961,259.4209 308.165,258.4717 308.8242,257.5829 309.5673,256.763 310.3873,256.0198 311.2761,255.3606 312.2253,254.7917 313.2256,254.3186 314.2675,253.9458 315.341,253.6769 316.4356,253.5145 317.5409,253.4602 318.6462,253.5145 319.7408,253.6769 320.8142,253.9458 321.8561,254.3186 322.8565,254.7917 323.8057,255.3606 324.6945,256.0198 325.5144,256.763 326.2576,257.5829 326.9168,258.4717 327.4857,259.4209 327.9588,260.4213 328.3316,261.4632 328.6005,262.5366 328.7629,263.6313 328.8172,264.7365 328.7629,265.8418 328.6005,266.9364 328.3316,268.0099 327.9588,269.0518 327.4857,270.0521 326.9168,271.0013 326.2576,271.8901 325.5144,272.7101 324.6945,273.4532 323.8057,274.1124 322.8565,274.6813 321.8561,275.1545 320.8142,275.5273 319.7408,275.7962 318.6462,275.9585 317.5409,276.0128 316.4356,275.9585 315.341,275.7962 314.2675,275.5273 313.2256,275.1545 312.2253,274.6813 311.2761,274.1124 310.3873,273.4532 309.5673,272.7101 308.8242,271.8901 308.165,271.0013 307.5961,270.0521 307.1229,269.0518 306.7501,268.0099 306.4812,266.9364 306.3189,265.8418 306.2646,264.7365 306.3189,263.6313"/>
    <polygon points="303.6463,256.398 303.0653,258.7178 302.2596,260.9695 301.2371,263.1313 300.0077,265.1825 298.5831,267.1034 296.9771,268.8753 295.2051,270.4813 293.2843,271.9059 291.2331,273.1354 289.0712,274.1579 286.8195,274.9635 284.4998,275.5446 282.1342,275.8955 279.7456,276.0128 277.357,275.8955 274.9915,275.5446 272.6717,274.9635 270.42,274.1579 268.2582,273.1354 266.2069,271.9059 264.2861,270.4813 262.5141,268.8753 260.9081,267.1034 259.4835,265.1825 258.2541,263.1313 257.2316,260.9695 256.426,258.7178 255.8449,256.398 255.494,254.0324 255.3766,251.6439 255.494,249.2553 255.8449,246.8897 256.426,244.5699 257.2316,242.3183 258.2541,240.1564 259.4835,238.1052 260.9081,236.1843 262.5141,234.4124 264.2861,232.8064 266.2069,231.3818 268.2582,230.1523 270.42,229.1299 272.6717,228.3242 274.9915,227.7431 277.357,227.3922 279.7456,227.2749 282.1342,227.3922 284.4998,227.7431 286.8195,228.3242 289.0712,229.1299 291.2331,230.1523 293.2843,231.3818 295.2051,232.8064 296.9771,234.4124 298.5831,236.1843 300.0077,238.1052 301.2371,240.1564 302.2596,242.3183 303.0653,244.5699 303.6463,246.8897 303.9972,249.2553 304.1146,251.6439 303.9972,254.0324"/>
  </g>
</svg>
