<?xml version="1.0" encoding="utf-8" ?>
<svg xmlns="http://www.w3.org/2000/svg" xmlns:cc="http://creativecommons.org/ns" xmlns:dc="http://purl.org/dc/elements/1.1/" xmlns:ev="http://www.w3.org/2001/xml-events" xmlns:inkscape="http://www.inkscape.org/namespaces/inkscape" xmlns:rdf="http://www.w3.org/1999/02/22-rdf-syntax-ns" xmlns:sodipodi="http://sodipodi.sourceforge.net/DTD/sodipodi-0.dtd" xmlns:xlink="http://www.w3.org/1999/xlink" baseProfile="tiny" height="15.875cm" version="1.2" viewBox="0 0 432.0 600.0" width="11.43cm">
  <metadata>
    <rdf:RDF>
      <cc:Work>
        <dc:format>image/svg+xml</dc:format>
        <dc:source>vsk save -s 216 -c hex-grid/config/bubble-coasters-2.json /Users/tobin/src/fabian/plotting/fabian-plotting/hex-grid/sketch_hex_grid.py</dc:source>
        <dc:date>2023-11-11T11:30:23.513359</dc:date>
      </cc:Work>
    </rdf:RDF>
  </metadata>
  <defs/>
  <g fill="none" id="layer1" inkscape:groupmode="layer" inkscape:label="1" stroke="#000000" stroke-width="0.7559" style="display:inline">
    <polygon points="314.188,207.9959 314.6076,208.1944 315.0058,208.433 315.3786,208.7095 315.7225,209.0213 316.0343,209.3652 316.3108,209.738 316.5494,210.1362 316.7479,210.5558 316.9043,210.9928 317.017,211.4431 317.0851,211.9022 317.1079,212.3659 317.0851,212.8295 317.017,213.2886 316.9043,213.7389 316.7479,214.1759 316.5494,214.5956 316.3108,214.9937 316.0343,215.3665 315.7225,215.7105 315.3786,216.0222 315.0058,216.2987 314.6076,216.5373 314.188,216.7358 313.751,216.8922 313.3007,217.0049 312.8416,217.0731 312.378,217.0958 311.9143,217.0731 311.4552,217.0049 311.0049,216.8922 310.5679,216.7358 310.1483,216.5373 309.7501,216.2987 309.3773,216.0222 309.0334,215.7105 308.7216,215.3665 308.4451,214.9937 308.2065,214.5956 308.008,214.1759 307.8517,213.7389 307.7389,213.2886 307.6708,212.8295 307.648,212.3659 307.6708,211.9022 307.7389,211.4431 307.8517,210.9928 308.008,210.5558 308.2065,210.1362 308.4451,209.738 308.7216,209.3652 309.0334,209.0213 309.3773,208.7095 309.7501,208.433 310.1483,208.1944 310.5679,207.9959 311.0049,207.8396 311.4552,207.7268 311.9143,207.6587 312.378,207.6359 312.8416,207.6587 313.3007,207.7268 313.751,207.8396"/>
    <polygon points="296.4003,219.835 296.3322,219.3758 296.3094,218.9122 296.3322,218.4486 296.4003,217.9894 296.5131,217.5392 296.6694,217.1021 296.8679,216.6825 297.1065,216.2844 297.3831,215.9115 297.6948,215.5676 298.0387,215.2559 298.4115,214.9794 298.8097,214.7407 299.2293,214.5423 299.6663,214.3859 300.1166,214.2731 300.5758,214.205 301.0394,214.1822 301.503,214.205 301.9621,214.2731 302.4124,214.3859 302.8495,214.5423 303.2691,214.7407 303.6672,214.9794 304.04,215.2559 304.384,215.5676 304.6957,215.9115 304.9722,216.2844 305.2108,216.6825 305.4093,217.1021 305.5657,217.5392 305.6785,217.9894 305.7466,218.4486 305.7693,218.9122 305.7466,219.3758 305.6785,219.835 305.5657,220.2852 305.4093,220.7223 305.2108,221.1419 304.9722,221.54 304.6957,221.9129 304.384,222.2568 304.04,222.5685 303.6672,222.845 303.2691,223.0837 302.8495,223.2821 302.4124,223.4385 301.9621,223.5513 301.503,223.6194 301.0394,223.6422 300.5758,223.6194 300.1166,223.5513 299.6663,223.4385 299.2293,223.2821 298.8097,223.0837 298.4115,222.845 298.0387,222.5685 297.6948,222.2568 297.3831,221.9129 297.1065,221.54 296.8679,221.1419 296.6694,220.7223 296.5131,220.2852"/>
    <polygon points="285.1745,226.8316 285.0617,226.3813 284.9936,225.9221 284.9708,225.4585 284.9936,224.9949 285.0617,224.5358 285.1745,224.0855 285.3309,223.6484 285.5293,223.2288 285.768,222.8307 286.0445,222.4579 286.3562,222.1139 286.7001,221.8022 287.073,221.5257 287.4711,221.2871 287.8907,221.0886 288.3277,220.9322 288.778,220.8194 289.2372,220.7513 289.7008,220.7286 290.1644,220.7513 290.6236,220.8194 291.0738,220.9322 291.5109,221.0886 291.9305,221.2871 292.3286,221.5257 292.7015,221.8022 293.0454,222.1139 293.3571,222.4579 293.6336,222.8307 293.8723,223.2288 294.0707,223.6484 294.2271,224.0855 294.3399,224.5358 294.408,224.9949 294.4308,225.4585 294.408,225.9221 294.3399,226.3813 294.2271,226.8316 294.0707,227.2686 293.8723,227.6882 293.6336,228.0864 293.3571,228.4592 293.0454,228.8031 292.7015,229.1148 292.3286,229.3914 291.9305,229.63 291.5109,229.8285 291.0738,229.9848 290.6236,230.0976 290.1644,230.1657 289.7008,230.1885 289.2372,230.1657 288.778,230.0976 288.3277,229.9848 287.8907,229.8285 287.4711,229.63 287.073,229.3914 286.7001,229.1148 286.3562,228.8031 286.0445,228.4592 285.768,228.0864 285.5293,227.6882 285.3309,227.2686"/>
    <polygon points="282.8885,220.2852 282.7321,220.7223 282.5337,221.1419 282.295,221.54 282.0185,221.9129 281.7068,222.2568 281.3629,222.5685 280.99,222.845 280.5919,223.0837 280.1723,223.2821 279.7352,223.4385 279.285,223.5513 278.8258,223.6194 278.3622,223.6422 277.8986,223.6194 277.4394,223.5513 276.9892,223.4385 276.5521,223.2821 276.1325,223.0837 275.7344,222.845 275.3615,222.5685 275.0176,222.2568 274.7059,221.9129 274.4294,221.54 274.1907,221.1419 273.9923,220.7223 273.8359,220.2852 273.7231,219.835 273.655,219.3758 273.6322,218.9122 273.655,218.4486 273.7231,217.9894 273.8359,217.5392 273.9923,217.1021 274.1907,216.6825 274.4294,216.2844 274.7059,215.9115 275.0176,215.5676 275.3615,215.2559 275.7344,214.9794 276.1325,214.7407 276.5521,214.5423 276.9892,214.3859 277.4394,214.2731 277.8986,214.205 278.3622,214.1822 278.8258,214.205 279.285,214.2731 279.7352,214.3859 280.1723,214.5423 280.5919,214.7407 280.99,214.9794 281.3629,215.2559 281.7068,215.5676 282.0185,215.9115 282.295,216.2844 282.5337,216.6825 282.7321,217.1021 282.8885,217.5392 283.0013,217.9894 283.0694,218.4486 283.0922,218.9122 283.0694,219.3758 283.0013,219.835"/>
    <polygon points="251.7522,203.1917 252.0287,202.8189 252.3404,202.4749 252.6844,202.1632 253.0572,201.8867 253.4553,201.6481 253.875,201.4496 254.312,201.2932 254.7623,201.1804 255.2214,201.1123 255.685,201.0896 256.1487,201.1123 256.6078,201.1804 257.0581,201.2932 257.4951,201.4496 257.9147,201.6481 258.3129,201.8867 258.6857,202.1632 259.0296,202.4749 259.3414,202.8189 259.6179,203.1917 259.8565,203.5898 260.055,204.0094 260.2113,204.4465 260.3241,204.8968 260.3922,205.3559 260.415,205.8195 260.3922,206.2831 260.3241,206.7423 260.2113,207.1926 260.055,207.6296 259.8565,208.0492 259.6179,208.4474 259.3414,208.8202 259.0296,209.1641 258.6857,209.4758 258.3129,209.7524 257.9147,209.991 257.4951,210.1894 257.0581,210.3458 256.6078,210.4586 256.1487,210.5267 255.685,210.5495 255.2214,210.5267 254.7623,210.4586 254.312,210.3458 253.875,210.1894 253.4553,209.991 253.0572,209.7524 252.6844,209.4758 252.3404,209.1641 252.0287,208.8202 251.7522,208.4474 251.5136,208.0492 251.3151,207.6296 251.1587,207.1926 251.046,206.7423 250.9778,206.2831 250.9551,205.8195 250.9778,205.3559 251.046,204.8968 251.1587,204.4465 251.3151,204.0094 251.5136,203.5898"/>
    <polygon points="243.941,229.8345 244.761,230.5776 245.5041,231.3976 246.1633,232.2864 246.7322,233.2356 247.2054,234.2359 247.5782,235.2779 247.847,236.3513 248.0094,237.4459 248.0637,238.5512 248.0094,239.6565 247.847,240.7511 247.5782,241.8245 247.2054,242.8664 246.7322,243.8668 246.1633,244.816 245.5041,245.7048 244.761,246.5247 243.941,247.2679 243.0522,247.9271 242.103,248.496 241.1027,248.9691 240.0607,249.3419 238.9873,249.6108 237.8927,249.7732 236.7874,249.8275 235.6821,249.7732 234.5875,249.6108 233.5141,249.3419 232.4721,248.9691 231.4718,248.496 230.5226,247.9271 229.6338,247.2679 228.8138,246.5247 228.0707,245.7048 227.4115,244.816 226.8426,243.8668 226.3695,242.8664 225.9966,241.8245 225.7278,240.7511 225.5654,239.6565 225.5111,238.5512 225.5654,237.4459 225.7278,236.3513 225.9966,235.2779 226.3695,234.2359 226.8426,233.2356 227.4115,232.2864 228.0707,231.3976 228.8138,230.5776 229.6338,229.8345 230.5226,229.1753 231.4718,228.6064 232.4721,228.1332 233.5141,227.7604 234.5875,227.4916 235.6821,227.3292 236.7874,227.2749 237.8927,227.3292 238.9873,227.4916 240.0607,227.7604 241.1027,228.1332 242.103,228.6064 243.0522,229.1753"/>
    <polygon points="257.2647,236.5182 256.1912,236.2493 255.1493,235.8765 254.149,235.4033 253.1998,234.8344 252.311,234.1752 251.491,233.4321 250.7479,232.6121 250.0887,231.7233 249.5198,230.7741 249.0466,229.7738 248.6738,228.7319 248.4049,227.6584 248.2426,226.5638 248.1883,225.4585 248.2426,224.3533 248.4049,223.2586 248.6738,222.1852 249.0466,221.1433 249.5198,220.1429 250.0887,219.1937 250.7479,218.3049 251.491,217.485 252.311,216.7418 253.1998,216.0826 254.149,215.5137 255.1493,215.0406 256.1912,214.6678 257.2647,214.3989 258.3593,214.2365 259.4646,214.1822 260.5698,214.2365 261.6645,214.3989 262.7379,214.6678 263.7798,215.0406 264.7802,215.5137 265.7293,216.0826 266.6182,216.7418 267.4381,217.485 268.1813,218.3049 268.8405,219.1937 269.4094,220.1429 269.8825,221.1433 270.2553,222.1852 270.5242,223.2586 270.6866,224.3533 270.7409,225.4585 270.6866,226.5638 270.5242,227.6584 270.2553,228.7319 269.8825,229.7738 269.4094,230.7741 268.8405,231.7233 268.1813,232.6121 267.4381,233.4321 266.6182,234.1752 265.7293,234.8344 264.7802,235.4033 263.7798,235.8765 262.7379,236.2493 261.6645,236.5182 260.5698,236.6805 259.4646,236.7348 258.3593,236.6805"/>
    <polygon points="260.3241,246.0203 260.2113,246.4706 260.055,246.9076 259.8565,247.3272 259.6179,247.7254 259.3414,248.0982 259.0296,248.4421 258.6857,248.7538 258.3129,249.0304 257.9147,249.269 257.4951,249.4675 257.0581,249.6238 256.6078,249.7366 256.1487,249.8047 255.685,249.8275 255.2214,249.8047 254.7623,249.7366 254.312,249.6238 253.875,249.4675 253.4553,249.269 253.0572,249.0304 252.6844,248.7538 252.3404,248.4421 252.0287,248.0982 251.7522,247.7254 251.5136,247.3272 251.3151,246.9076 251.1587,246.4706 251.046,246.0203 250.9778,245.5611 250.9551,245.0975 250.9778,244.6339 251.046,244.1748 251.1587,243.7245 251.3151,243.2874 251.5136,242.8678 251.7522,242.4697 252.0287,242.0969 252.3404,241.7529 252.6844,241.4412 253.0572,241.1647 253.4553,240.9261 253.875,240.7276 254.312,240.5712 254.7623,240.4584 255.2214,240.3903 255.685,240.3676 256.1487,240.3903 256.6078,240.4584 257.0581,240.5712 257.4951,240.7276 257.9147,240.9261 258.3129,241.1647 258.6857,241.4412 259.0296,241.7529 259.3414,242.0969 259.6179,242.4697 259.8565,242.8678 260.055,243.2874 260.2113,243.7245 260.3241,244.1748 260.3922,244.6339 260.415,245.0975 260.3922,245.5611"/>
    <polygon points="262.4973,253.0169 262.3845,252.5666 262.3164,252.1075 262.2936,251.6439 262.3164,251.1802 262.3845,250.7211 262.4973,250.2708 262.6537,249.8338 262.8522,249.4142 263.0908,249.016 263.3673,248.6432 263.679,248.2993 264.023,247.9875 264.3958,247.711 264.7939,247.4724 265.2135,247.2739 265.6506,247.1176 266.1009,247.0048 266.56,246.9367 267.0236,246.9139 267.4872,246.9367 267.9464,247.0048 268.3967,247.1176 268.8337,247.2739 269.2533,247.4724 269.6515,247.711 270.0243,247.9875 270.3682,248.2993 270.6799,248.6432 270.9565,249.016 271.1951,249.4142 271.3935,249.8338 271.5499,250.2708 271.6627,250.7211 271.7308,251.1802 271.7536,251.6439 271.7308,252.1075 271.6627,252.5666 271.5499,253.0169 271.3935,253.4539 271.1951,253.8736 270.9565,254.2717 270.6799,254.6445 270.3682,254.9885 270.0243,255.3002 269.6515,255.5767 269.2533,255.8153 268.8337,256.0138 268.3967,256.1702 267.9464,256.2829 267.4872,256.3511 267.0236,256.3738 266.56,256.3511 266.1009,256.2829 265.6506,256.1702 265.2135,256.0138 264.7939,255.8153 264.3958,255.5767 264.023,255.3002 263.679,254.9885 263.3673,254.6445 263.0908,254.2717 262.8522,253.8736 262.6537,253.4539"/>
    <polygon points="259.8565,255.9605 260.055,256.3801 260.2113,256.8172 260.3241,257.2674 260.3922,257.7266 260.415,258.1902 260.3922,258.6538 260.3241,259.113 260.2113,259.5632 260.055,260.0003 259.8565,260.4199 259.6179,260.818 259.3414,261.1909 259.0296,261.5348 258.6857,261.8465 258.3129,262.123 257.9147,262.3617 257.4951,262.5601 257.0581,262.7165 256.6078,262.8293 256.1487,262.8974 255.685,262.9202 255.2214,262.8974 254.7623,262.8293 254.312,262.7165 253.875,262.5601 253.4553,262.3617 253.0572,262.123 252.6844,261.8465 252.3404,261.5348 252.0287,261.1909 251.7522,260.818 251.5136,260.4199 251.3151,260.0003 251.1587,259.5632 251.046,259.113 250.9778,258.6538 250.9551,258.1902 250.9778,257.7266 251.046,257.2674 251.1587,256.8172 251.3151,256.3801 251.5136,255.9605 251.7522,255.5624 252.0287,255.1895 252.3404,254.8456 252.6844,254.5339 253.0572,254.2574 253.4553,254.0187 253.875,253.8203 254.312,253.6639 254.7623,253.5511 255.2214,253.483 255.685,253.4602 256.1487,253.483 256.6078,253.5511 257.0581,253.6639 257.4951,253.8203 257.9147,254.0187 258.3129,254.2574 258.6857,254.5339 259.0296,254.8456 259.3414,255.1895 259.6179,255.5624"/>
    <polygon points="251.7522,273.9107 251.5136,273.5126 251.3151,273.0929 251.1587,272.6559 251.046,272.2056 250.9778,271.7465 250.9551,271.2829 250.9778,270.8192 251.046,270.3601 251.1587,269.9098 251.3151,269.4728 251.5136,269.0532 251.7522,268.655 252.0287,268.2822 252.3404,267.9383 252.6844,267.6265 253.0572,267.35 253.4553,267.1114 253.875,266.9129 254.312,266.7566 254.7623,266.6438 255.2214,266.5757 255.685,266.5529 256.1487,266.5757 256.6078,266.6438 257.0581,266.7566 257.4951,266.9129 257.9147,267.1114 258.3129,267.35 258.6857,267.6265 259.0296,267.9383 259.3414,268.2822 259.6179,268.655 259.8565,269.0532 260.055,269.4728 260.2113,269.9098 260.3241,270.3601 260.3922,270.8192 260.415,271.2829 260.3922,271.7465 260.3241,272.2056 260.2113,272.6559 260.055,273.0929 259.8565,273.5126 259.6179,273.9107 259.3414,274.2835 259.0296,274.6275 258.6857,274.9392 258.3129,275.2157 257.9147,275.4543 257.4951,275.6528 257.0581,275.8092 256.6078,275.9219 256.1487,275.9901 255.685,276.0128 255.2214,275.9901 254.7623,275.9219 254.312,275.8092 253.875,275.6528 253.4553,275.4543 253.0572,275.2157 252.6844,274.9392 252.3404,274.6275 252.0287,274.2835"/>
    <polygon points="251.4204,306.8802 253.6721,307.6859 255.8339,308.7083 257.8851,309.9378 259.806,311.3624 261.5779,312.9684 263.1839,314.7404 264.6085,316.6612 265.838,318.7124 266.8605,320.8743 267.6661,323.1259 268.2472,325.4457 268.5981,327.8113 268.7154,330.1999 268.5981,332.5884 268.2472,334.954 267.6661,337.2738 266.8605,339.5255 265.838,341.6873 264.6085,343.7385 263.1839,345.6594 261.5779,347.4313 259.806,349.0373 257.8851,350.4619 255.8339,351.6914 253.6721,352.7139 251.4204,353.5195 249.1006,354.1006 246.735,354.4515 244.3465,354.5688 241.9579,354.4515 239.5923,354.1006 237.2725,353.5195 235.0209,352.7139 232.859,351.6914 230.8078,350.4619 228.8869,349.0373 227.115,347.4313 225.509,345.6594 224.0844,343.7385 222.8549,341.6873 221.8325,339.5255 221.0268,337.2738 220.4457,334.954 220.0948,332.5884 219.9775,330.1999 220.0948,327.8113 220.4457,325.4457 221.0268,323.1259 221.8325,320.8743 222.8549,318.7124 224.0844,316.6612 225.509,314.7404 227.115,312.9684 228.8869,311.3624 230.8078,309.9378 232.859,308.7083 235.0209,307.6859 237.2725,306.8802 239.5923,306.2991 241.9579,305.9482 244.3465,305.8309 246.735,305.9482 249.1006,306.2991"/>
    <polygon points="274.4294,294.8404 274.7059,294.4675 275.0176,294.1236 275.3615,293.8119 275.7344,293.5354 276.1325,293.2967 276.5521,293.0983 276.9892,292.9419 277.4394,292.8291 277.8986,292.761 278.3622,292.7382 278.8258,292.761 279.285,292.8291 279.7352,292.9419 280.1723,293.0983 280.5919,293.2967 280.99,293.5354 281.3629,293.8119 281.7068,294.1236 282.0185,294.4675 282.295,294.8404 282.5337,295.2385 282.7321,295.6581 282.8885,296.0952 283.0013,296.5454 283.0694,297.0046 283.0922,297.4682 283.0694,297.9318 283.0013,298.391 282.8885,298.8412 282.7321,299.2783 282.5337,299.6979 282.295,300.096 282.0185,300.4689 281.7068,300.8128 281.3629,301.1245 280.99,301.401 280.5919,301.6397 280.1723,301.8381 279.7352,301.9945 279.285,302.1073 278.8258,302.1754 278.3622,302.1982 277.8986,302.1754 277.4394,302.1073 276.9892,301.9945 276.5521,301.8381 276.1325,301.6397 275.7344,301.401 275.3615,301.1245 275.0176,300.8128 274.7059,300.4689 274.4294,300.096 274.1907,299.6979 273.9923,299.2783 273.8359,298.8412 273.7231,298.391 273.655,297.9318 273.6322,297.4682 273.655,297.0046 273.7231,296.5454 273.8359,296.0952 273.9923,295.6581 274.1907,295.2385"/>
    <polygon points="301.0394,305.8309 301.503,305.8537 301.9621,305.9218 302.4124,306.0346 302.8495,306.1909 303.2691,306.3894 303.6672,306.628 304.04,306.9045 304.384,307.2163 304.6957,307.5602 304.9722,307.933 305.2108,308.3312 305.4093,308.7508 305.5657,309.1878 305.6785,309.6381 305.7466,310.0972 305.7693,310.5609 305.7466,311.0245 305.6785,311.4836 305.5657,311.9339 305.4093,312.3709 305.2108,312.7906 304.9722,313.1887 304.6957,313.5615 304.384,313.9055 304.04,314.2172 303.6672,314.4937 303.2691,314.7323 302.8495,314.9308 302.4124,315.0872 301.9621,315.2 301.503,315.2681 301.0394,315.2908 300.5758,315.2681 300.1166,315.2 299.6663,315.0872 299.2293,314.9308 298.8097,314.7323 298.4115,314.4937 298.0387,314.2172 297.6948,313.9055 297.3831,313.5615 297.1065,313.1887 296.8679,312.7906 296.6694,312.3709 296.5131,311.9339 296.4003,311.4836 296.3322,311.0245 296.3094,310.5609 296.3322,310.0972 296.4003,309.6381 296.5131,309.1878 296.6694,308.7508 296.8679,308.3312 297.1065,307.933 297.3831,307.5602 297.6948,307.2163 298.0387,306.9045 298.4115,306.628 298.8097,306.3894 299.2293,306.1909 299.6663,306.0346 300.1166,305.9218 300.5758,305.8537"/>
    <polygon points="290.1153,325.0808 289.2953,325.8239 288.4065,326.4831 287.4573,327.052 286.457,327.5251 285.4151,327.898 284.3416,328.1668 283.247,328.3292 282.1417,328.3835 281.0365,328.3292 279.9418,328.1668 278.8684,327.898 277.8265,327.5251 276.8261,327.052 275.877,326.4831 274.9881,325.8239 274.1682,325.0808 273.425,324.2608 272.7658,323.372 272.1969,322.4228 271.7238,321.4225 271.351,320.3805 271.0821,319.3071 270.9197,318.2125 270.8654,317.1072 270.9197,316.0019 271.0821,314.9073 271.351,313.8339 271.7238,312.7919 272.1969,311.7916 272.7658,310.8424 273.425,309.9536 274.1682,309.1336 274.9881,308.3905 275.877,307.7313 276.8261,307.1624 277.8265,306.6892 278.8684,306.3164 279.9418,306.0476 281.0365,305.8852 282.1417,305.8309 283.247,305.8852 284.3416,306.0476 285.4151,306.3164 286.457,306.6892 287.4573,307.1624 288.4065,307.7313 289.2953,308.3905 290.1153,309.1336 290.8584,309.9536 291.5176,310.8424 292.0865,311.7916 292.5597,312.7919 292.9325,313.8339 293.2014,314.9073 293.3637,316.0019 293.418,317.1072 293.3637,318.2125 293.2014,319.3071 292.9325,320.3805 292.5597,321.4225 292.0865,322.4228 291.5176,323.372 290.8584,324.2608"/>
    <polygon points="297.6948,326.9981 297.3831,326.6542 297.1065,326.2814 296.8679,325.8832 296.6694,325.4636 296.5131,325.0266 296.4003,324.5763 296.3322,324.1172 296.3094,323.6535 296.3322,323.1899 296.4003,322.7308 296.5131,322.2805 296.6694,321.8434 296.8679,321.4238 297.1065,321.0257 297.3831,320.6529 297.6948,320.3089 298.0387,319.9972 298.4115,319.7207 298.8097,319.4821 299.2293,319.2836 299.6663,319.1272 300.1166,319.0144 300.5758,318.9463 301.0394,318.9236 301.503,318.9463 301.9621,319.0144 302.4124,319.1272 302.8495,319.2836 303.2691,319.4821 303.6672,319.7207 304.04,319.9972 304.384,320.3089 304.6957,320.6529 304.9722,321.0257 305.2108,321.4238 305.4093,321.8434 305.5657,322.2805 305.6785,322.7308 305.7466,323.1899 305.7693,323.6535 305.7466,324.1172 305.6785,324.5763 305.5657,325.0266 305.4093,325.4636 305.2108,325.8832 304.9722,326.2814 304.6957,326.6542 304.384,326.9981 304.04,327.3098 303.6672,327.5864 303.2691,327.825 302.8495,328.0235 302.4124,328.1798 301.9621,328.2926 301.503,328.3607 301.0394,328.3835 300.5758,328.3607 300.1166,328.2926 299.6663,328.1798 299.2293,328.0235 298.8097,327.825 298.4115,327.5864 298.0387,327.3098"/>
    <polygon points="305.2108,334.5165 304.9722,334.1184 304.6957,333.7455 304.384,333.4016 304.04,333.0899 303.6672,332.8134 303.2691,332.5747 302.8495,332.3763 302.4124,332.2199 301.9621,332.1071 301.503,332.039 301.0394,332.0162 300.5758,332.039 300.1166,332.1071 299.6663,332.2199 299.2293,332.3763 298.8097,332.5747 298.4115,332.8134 298.0387,333.0899 297.6948,333.4016 297.3831,333.7455 297.1065,334.1184 296.8679,334.5165 296.6694,334.9361 296.5131,335.3732 296.4003,335.8234 296.3322,336.2826 296.3094,336.7462 296.3322,337.2098 296.4003,337.669 296.5131,338.1192 296.6694,338.5563 296.8679,338.9759 297.1065,339.374 297.3831,339.7469 297.6948,340.0908 298.0387,340.4025 298.4115,340.679 298.8097,340.9177 299.2293,341.1161 299.6663,341.2725 300.1166,341.3853 300.5758,341.4534 301.0394,341.4762 301.503,341.4534 301.9621,341.3853 302.4124,341.2725 302.8495,341.1161 303.2691,340.9177 303.6672,340.679 304.04,340.4025 304.384,340.0908 304.6957,339.7469 304.9722,339.374 305.2108,338.9759 305.4093,338.5563 305.5657,338.1192 305.6785,337.669 305.7466,337.2098 305.7693,336.7462 305.7466,336.2826 305.6785,335.8234 305.5657,335.3732 305.4093,334.9361"/>
    <polygon points="313.3007,334.839 313.751,334.7262 314.188,334.5698 314.6076,334.3713 315.0058,334.1327 315.3786,333.8562 315.7225,333.5445 316.0343,333.2005 316.3108,332.8277 316.5494,332.4296 316.7479,332.0099 316.9043,331.5729 317.017,331.1226 317.0851,330.6635 317.1079,330.1999 317.0851,329.7362 317.017,329.2771 316.9043,328.8268 316.7479,328.3898 316.5494,327.9702 316.3108,327.572 316.0343,327.1992 315.7225,326.8553 315.3786,326.5435 315.0058,326.267 314.6076,326.0284 314.188,325.8299 313.751,325.6736 313.3007,325.5608 312.8416,325.4927 312.378,325.4699 311.9143,325.4927 311.4552,325.5608 311.0049,325.6736 310.5679,325.8299 310.1483,326.0284 309.7501,326.267 309.3773,326.5435 309.0334,326.8553 308.7216,327.1992 308.4451,327.572 308.2065,327.9702 308.008,328.3898 307.8517,328.8268 307.7389,329.2771 307.6708,329.7362 307.648,330.1999 307.6708,330.6635 307.7389,331.1226 307.8517,331.5729 308.008,332.0099 308.2065,332.4296 308.4451,332.8277 308.7216,333.2005 309.0334,333.5445 309.3773,333.8562 309.7501,334.1327 310.1483,334.3713 310.5679,334.5698 311.0049,334.7262 311.4552,334.839 311.9143,334.9071 312.378,334.9298 312.8416,334.9071"/>
    <polygon points="307.7389,342.3698 307.8517,341.9195 308.008,341.4825 308.2065,341.0628 308.4451,340.6647 308.7216,340.2919 309.0334,339.9479 309.3773,339.6362 309.7501,339.3597 310.1483,339.1211 310.5679,338.9226 311.0049,338.7662 311.4552,338.6534 311.9143,338.5853 312.378,338.5626 312.8416,338.5853 313.3007,338.6534 313.751,338.7662 314.188,338.9226 314.6076,339.1211 315.0058,339.3597 315.3786,339.6362 315.7225,339.9479 316.0343,340.2919 316.3108,340.6647 316.5494,341.0628 316.7479,341.4825 316.9043,341.9195 317.017,342.3698 317.0851,342.8289 317.1079,343.2925 317.0851,343.7562 317.017,344.2153 316.9043,344.6656 316.7479,345.1026 316.5494,345.5222 316.3108,345.9204 316.0343,346.2932 315.7225,346.6371 315.3786,346.9489 315.0058,347.2254 314.6076,347.464 314.188,347.6625 313.751,347.8188 313.3007,347.9316 312.8416,347.9997 312.378,348.0225 311.9143,347.9997 311.4552,347.9316 311.0049,347.8188 310.5679,347.6625 310.1483,347.464 309.7501,347.2254 309.3773,346.9489 309.0334,346.6371 308.7216,346.2932 308.4451,345.9204 308.2065,345.5222 308.008,345.1026 307.8517,344.6656 307.7389,344.2153 307.6708,343.7562 307.648,343.2925 307.6708,342.8289"/>
    <polygon points="296.4003,348.9161 296.5131,348.4658 296.6694,348.0288 296.8679,347.6092 297.1065,347.211 297.3831,346.8382 297.6948,346.4943 298.0387,346.1825 298.4115,345.906 298.8097,345.6674 299.2293,345.4689 299.6663,345.3126 300.1166,345.1998 300.5758,345.1317 301.0394,345.1089 301.503,345.1317 301.9621,345.1998 302.4124,345.3126 302.8495,345.4689 303.2691,345.6674 303.6672,345.906 304.04,346.1825 304.384,346.4943 304.6957,346.8382 304.9722,347.211 305.2108,347.6092 305.4093,348.0288 305.5657,348.4658 305.6785,348.9161 305.7466,349.3752 305.7693,349.8389 305.7466,350.3025 305.6785,350.7616 305.5657,351.2119 305.4093,351.6489 305.2108,352.0686 304.9722,352.4667 304.6957,352.8395 304.384,353.1835 304.04,353.4952 303.6672,353.7717 303.2691,354.0103 302.8495,354.2088 302.4124,354.3652 301.9621,354.478 301.503,354.5461 301.0394,354.5688 300.5758,354.5461 300.1166,354.478 299.6663,354.3652 299.2293,354.2088 298.8097,354.0103 298.4115,353.7717 298.0387,353.4952 297.6948,353.1835 297.3831,352.8395 297.1065,352.4667 296.8679,352.0686 296.6694,351.6489 296.5131,351.2119 296.4003,350.7616 296.3322,350.3025 296.3094,349.8389 296.3322,349.3752"/>
    <polygon points="290.8584,350.4461 290.1153,351.2661 289.2953,352.0092 288.4065,352.6684 287.4573,353.2373 286.457,353.7105 285.4151,354.0833 284.3416,354.3522 283.247,354.5145 282.1417,354.5688 281.0365,354.5145 279.9418,354.3522 278.8684,354.0833 277.8265,353.7105 276.8261,353.2373 275.877,352.6684 274.9881,352.0092 274.1682,351.2661 273.425,350.4461 272.7658,349.5573 272.1969,348.6081 271.7238,347.6078 271.351,346.5659 271.0821,345.4924 270.9197,344.3978 270.8654,343.2925 270.9197,342.1873 271.0821,341.0926 271.351,340.0192 271.7238,338.9773 272.1969,337.9769 272.7658,337.0278 273.425,336.1389 274.1682,335.319 274.9881,334.5758 275.877,333.9166 276.8261,333.3477 277.8265,332.8746 278.8684,332.5018 279.9418,332.2329 281.0365,332.0705 282.1417,332.0162 283.247,332.0705 284.3416,332.2329 285.4151,332.5018 286.457,332.8746 287.4573,333.3477 288.4065,333.9166 289.2953,334.5758 290.1153,335.319 290.8584,336.1389 291.5176,337.0278 292.0865,337.9769 292.5597,338.9773 292.9325,340.0192 293.2014,341.0926 293.3637,342.1873 293.418,343.2925 293.3637,344.3978 293.2014,345.4924 292.9325,346.5659 292.5597,347.6078 292.0865,348.6081 291.5176,349.5573"/>
    <polygon points="273.655,362.4679 273.7231,362.0088 273.8359,361.5585 273.9923,361.1215 274.1907,360.7018 274.4294,360.3037 274.7059,359.9309 275.0176,359.5869 275.3615,359.2752 275.7344,358.9987 276.1325,358.7601 276.5521,358.5616 276.9892,358.4052 277.4394,358.2924 277.8986,358.2243 278.3622,358.2016 278.8258,358.2243 279.285,358.2924 279.7352,358.4052 280.1723,358.5616 280.5919,358.7601 280.99,358.9987 281.3629,359.2752 281.7068,359.5869 282.0185,359.9309 282.295,360.3037 282.5337,360.7018 282.7321,361.1215 282.8885,361.5585 283.0013,362.0088 283.0694,362.4679 283.0922,362.9315 283.0694,363.3952 283.0013,363.8543 282.8885,364.3046 282.7321,364.7416 282.5337,365.1612 282.295,365.5594 282.0185,365.9322 281.7068,366.2761 281.3629,366.5879 280.99,366.8644 280.5919,367.103 280.1723,367.3015 279.7352,367.4578 279.285,367.5706 278.8258,367.6387 278.3622,367.6615 277.8986,367.6387 277.4394,367.5706 276.9892,367.4578 276.5521,367.3015 276.1325,367.103 275.7344,366.8644 275.3615,366.5879 275.0176,366.2761 274.7059,365.9322 274.4294,365.5594 274.1907,365.1612 273.9923,364.7416 273.8359,364.3046 273.7231,363.8543 273.655,363.3952 273.6322,362.9315"/>
    <polygon points="229.6338,360.7612 230.5226,360.102 231.4718,359.5331 232.4721,359.0599 233.5141,358.6871 234.5875,358.4182 235.6821,358.2559 236.7874,358.2016 237.8927,358.2559 238.9873,358.4182 240.0607,358.6871 241.1027,359.0599 242.103,359.5331 243.0522,360.102 243.941,360.7612 244.761,361.5043 245.5041,362.3243 246.1633,363.2131 246.7322,364.1623 247.2054,365.1626 247.5782,366.2045 247.847,367.278 248.0094,368.3726 248.0637,369.4779 248.0094,370.5831 247.847,371.6778 247.5782,372.7512 247.2054,373.7931 246.7322,374.7935 246.1633,375.7426 245.5041,376.6315 244.761,377.4514 243.941,378.1946 243.0522,378.8538 242.103,379.4227 241.1027,379.8958 240.0607,380.2686 238.9873,380.5375 237.8927,380.6999 236.7874,380.7542 235.6821,380.6999 234.5875,380.5375 233.5141,380.2686 232.4721,379.8958 231.4718,379.4227 230.5226,378.8538 229.6338,378.1946 228.8138,377.4514 228.0707,376.6315 227.4115,375.7426 226.8426,374.7935 226.3695,373.7931 225.9966,372.7512 225.7278,371.6778 225.5654,370.5831 225.5111,369.4779 225.5654,368.3726 225.7278,367.278 225.9966,366.2045 226.3695,365.1626 226.8426,364.1623 227.4115,363.2131 228.0707,362.3243 228.8138,361.5043"/>
    <polygon points="193.633,354.3522 192.5383,354.5145 191.4331,354.5688 190.3278,354.5145 189.2332,354.3522 188.1597,354.0833 187.1178,353.7105 186.1175,353.2373 185.1683,352.6684 184.2795,352.0092 183.4595,351.2661 182.7164,350.4461 182.0572,349.5573 181.4883,348.6081 181.0151,347.6078 180.6423,346.5659 180.3734,345.4924 180.2111,344.3978 180.1568,343.2925 180.2111,342.1873 180.3734,341.0926 180.6423,340.0192 181.0151,338.9773 181.4883,337.9769 182.0572,337.0278 182.7164,336.1389 183.4595,335.319 184.2795,334.5758 185.1683,333.9166 186.1175,333.3477 187.1178,332.8746 188.1597,332.5018 189.2332,332.2329 190.3278,332.0705 191.4331,332.0162 192.5383,332.0705 193.633,332.2329 194.7064,332.5018 195.7483,332.8746 196.7487,333.3477 197.6979,333.9166 198.5867,334.5758 199.4066,335.319 200.1498,336.1389 200.809,337.0278 201.3779,337.9769 201.851,338.9773 202.2238,340.0192 202.4927,341.0926 202.6551,342.1873 202.7094,343.2925 202.6551,344.3978 202.4927,345.4924 202.2238,346.5659 201.851,347.6078 201.3779,348.6081 200.809,349.5573 200.1498,350.4461 199.4066,351.2661 198.5867,352.0092 197.6979,352.6684 196.7487,353.2373 195.7483,353.7105 194.7064,354.0833"/>
    <polygon points="183.0145,363.8543 182.9463,363.3952 182.9236,362.9315 182.9463,362.4679 183.0145,362.0088 183.1272,361.5585 183.2836,361.1215 183.4821,360.7018 183.7207,360.3037 183.9972,359.9309 184.3089,359.5869 184.6529,359.2752 185.0257,358.9987 185.4238,358.7601 185.8435,358.5616 186.2805,358.4052 186.7308,358.2924 187.1899,358.2243 187.6535,358.2016 188.1172,358.2243 188.5763,358.2924 189.0266,358.4052 189.4636,358.5616 189.8832,358.7601 190.2814,358.9987 190.6542,359.2752 190.9981,359.5869 191.3099,359.9309 191.5864,360.3037 191.825,360.7018 192.0235,361.1215 192.1798,361.5585 192.2926,362.0088 192.3607,362.4679 192.3835,362.9315 192.3607,363.3952 192.2926,363.8543 192.1798,364.3046 192.0235,364.7416 191.825,365.1612 191.5864,365.5594 191.3099,365.9322 190.9981,366.2761 190.6542,366.5879 190.2814,366.8644 189.8832,367.103 189.4636,367.3015 189.0266,367.4578 188.5763,367.5706 188.1172,367.6387 187.6535,367.6615 187.1899,367.6387 186.7308,367.5706 186.2805,367.4578 185.8435,367.3015 185.4238,367.103 185.0257,366.8644 184.6529,366.5879 184.3089,366.2761 183.9972,365.9322 183.7207,365.5594 183.4821,365.1612 183.2836,364.7416 183.1272,364.3046"/>
    <polygon points="171.945,354.5751 172.1435,354.1555 172.3821,353.7574 172.6586,353.3845 172.9704,353.0406 173.3143,352.7289 173.6871,352.4524 174.0853,352.2137 174.5049,352.0153 174.9419,351.8589 175.3922,351.7461 175.8513,351.678 176.315,351.6552 176.7786,351.678 177.2377,351.7461 177.688,351.8589 178.125,352.0153 178.5447,352.2137 178.9428,352.4524 179.3156,352.7289 179.6596,353.0406 179.9713,353.3845 180.2478,353.7574 180.4864,354.1555 180.6849,354.5751 180.8413,355.0122 180.954,355.4624 181.0222,355.9216 181.0449,356.3852 181.0222,356.8488 180.954,357.308 180.8413,357.7582 180.6849,358.1953 180.4864,358.6149 180.2478,359.013 179.9713,359.3859 179.6596,359.7298 179.3156,360.0415 178.9428,360.318 178.5447,360.5567 178.125,360.7551 177.688,360.9115 177.2377,361.0243 176.7786,361.0924 176.315,361.1152 175.8513,361.0924 175.3922,361.0243 174.9419,360.9115 174.5049,360.7551 174.0853,360.5567 173.6871,360.318 173.3143,360.0415 172.9704,359.7298 172.6586,359.3859 172.3821,359.013 172.1435,358.6149 171.945,358.1953 171.7887,357.7582 171.6759,357.308 171.6078,356.8488 171.585,356.3852 171.6078,355.9216 171.6759,355.4624 171.7887,355.0122"/>
    <polygon points="175.6725,311.0885 175.0914,308.7687 174.7405,306.4031 174.6232,304.0145 174.7405,301.626 175.0914,299.2604 175.6725,296.9406 176.4781,294.6889 177.5006,292.5271 178.7301,290.4759 180.1547,288.555 181.7607,286.7831 183.5326,285.1771 185.4534,283.7525 187.5047,282.523 189.6665,281.5005 191.9182,280.6949 194.238,280.1138 196.6035,279.7629 198.9921,279.6456 201.3807,279.7629 203.7463,280.1138 206.0661,280.6949 208.3177,281.5005 210.4796,282.523 212.5308,283.7525 214.4516,285.1771 216.2236,286.7831 217.8296,288.555 219.2542,290.4759 220.4836,292.5271 221.5061,294.6889 222.3118,296.9406 222.8929,299.2604 223.2438,301.626 223.3611,304.0145 223.2438,306.4031 222.8929,308.7687 222.3118,311.0885 221.5061,313.3401 220.4836,315.502 219.2542,317.5532 217.8296,319.474 216.2236,321.246 214.4516,322.852 212.5308,324.2766 210.4796,325.506 208.3177,326.5285 206.0661,327.3342 203.7463,327.9153 201.3807,328.2662 198.9921,328.3835 196.6035,328.2662 194.238,327.9153 191.9182,327.3342 189.6665,326.5285 187.5047,325.506 185.4534,324.2766 183.5326,322.852 181.7607,321.246 180.1547,319.474 178.7301,317.5532 177.5006,315.502 176.4781,313.3401"/>
    <polygon points="164.9764,292.7382 165.44,292.761 165.8991,292.8291 166.3494,292.9419 166.7865,293.0983 167.2061,293.2967 167.6042,293.5354 167.977,293.8119 168.321,294.1236 168.6327,294.4675 168.9092,294.8404 169.1478,295.2385 169.3463,295.6581 169.5027,296.0952 169.6155,296.5454 169.6836,297.0046 169.7064,297.4682 169.6836,297.9318 169.6155,298.391 169.5027,298.8412 169.3463,299.2783 169.1478,299.6979 168.9092,300.096 168.6327,300.4689 168.321,300.8128 167.977,301.1245 167.6042,301.401 167.2061,301.6397 166.7865,301.8381 166.3494,301.9945 165.8991,302.1073 165.44,302.1754 164.9764,302.1982 164.5128,302.1754 164.0536,302.1073 163.6033,301.9945 163.1663,301.8381 162.7467,301.6397 162.3485,301.401 161.9757,301.1245 161.6318,300.8128 161.3201,300.4689 161.0435,300.096 160.8049,299.6979 160.6065,299.2783 160.4501,298.8412 160.3373,298.391 160.2692,297.9318 160.2464,297.4682 160.2692,297.0046 160.3373,296.5454 160.4501,296.0952 160.6065,295.6581 160.8049,295.2385 161.0435,294.8404 161.3201,294.4675 161.6318,294.1236 161.9757,293.8119 162.3485,293.5354 162.7467,293.2967 163.1663,293.0983 163.6033,292.9419 164.0536,292.8291 164.5128,292.761"/>
    <polygon points="157.5339,276.7239 157.6963,275.6293 157.9652,274.5559 158.338,273.5139 158.8111,272.5136 159.38,271.5644 160.0392,270.6756 160.7824,269.8556 161.6023,269.1125 162.4911,268.4533 163.4403,267.8844 164.4406,267.4112 165.4826,267.0384 166.556,266.7696 167.6506,266.6072 168.7559,266.5529 169.8612,266.6072 170.9558,266.7696 172.0292,267.0384 173.0712,267.4112 174.0715,267.8844 175.0207,268.4533 175.9095,269.1125 176.7295,269.8556 177.4726,270.6756 178.1318,271.5644 178.7007,272.5136 179.1739,273.5139 179.5467,274.5559 179.8155,275.6293 179.9779,276.7239 180.0322,277.8292 179.9779,278.9345 179.8155,280.0291 179.5467,281.1025 179.1739,282.1445 178.7007,283.1448 178.1318,284.094 177.4726,284.9828 176.7295,285.8027 175.9095,286.5459 175.0207,287.2051 174.0715,287.774 173.0712,288.2471 172.0292,288.6199 170.9558,288.8888 169.8612,289.0512 168.7559,289.1055 167.6506,289.0512 166.556,288.8888 165.4826,288.6199 164.4406,288.2471 163.4403,287.774 162.4911,287.2051 161.6023,286.5459 160.7824,285.8027 160.0392,284.9828 159.38,284.094 158.8111,283.1448 158.338,282.1445 157.9652,281.1025 157.6963,280.0291 157.5339,278.9345 157.4796,277.8292"/>
    <polygon points="226.8426,259.4209 227.4115,258.4717 228.0707,257.5829 228.8138,256.763 229.6338,256.0198 230.5226,255.3606 231.4718,254.7917 232.4721,254.3186 233.5141,253.9458 234.5875,253.6769 235.6821,253.5145 236.7874,253.4602 237.8927,253.5145 238.9873,253.6769 240.0607,253.9458 241.1027,254.3186 242.103,254.7917 243.0522,255.3606 243.941,256.0198 244.761,256.763 245.5041,257.5829 246.1633,258.4717 246.7322,259.4209 247.2054,260.4213 247.5782,261.4632 247.847,262.5366 248.0094,263.6313 248.0637,264.7365 248.0094,265.8418 247.847,266.9364 247.5782,268.0099 247.2054,269.0518 246.7322,270.0521 246.1633,271.0013 245.5041,271.8901 244.761,272.7101 243.941,273.4532 243.0522,274.1124 242.103,274.6813 241.1027,275.1545 240.0607,275.5273 238.9873,275.7962 237.8927,275.9585 236.7874,276.0128 235.6821,275.9585 234.5875,275.7962 233.5141,275.5273 232.4721,275.1545 231.4718,274.6813 230.5226,274.1124 229.6338,273.4532 228.8138,272.7101 228.0707,271.8901 227.4115,271.0013 226.8426,270.0521 226.3695,269.0518 225.9966,268.0099 225.7278,266.9364 225.5654,265.8418 225.5111,264.7365 225.5654,263.6313 225.7278,262.5366 225.9966,261.4632 226.3695,260.4213"/>
    <polygon points="198.9921,227.2749 196.6035,227.3922 194.238,227.7431 191.9182,228.3242 189.6665,229.1299 187.5047,230.1523 185.4534,231.3818 183.5326,232.8064 181.7607,234.4124 180.1547,236.1843 178.7301,238.1052 177.5006,240.1564 176.4781,242.3183 175.6725,244.5699 175.0914,246.8897 174.7405,249.2553 174.6232,251.6439 174.7405,254.0324 175.0914,256.398 175.6725,258.7178 176.4781,260.9695 177.5006,263.1313 178.7301,265.1825 180.1547,267.1034 181.7607,268.8753 183.5326,270.4813 185.4534,271.9059 187.5047,273.1354 189.6665,274.1579 191.9182,274.9635 194.238,275.5446 196.6035,275.8955 198.9921,276.0128 201.3807,275.8955 203.7463,275.5446 206.0661,274.9635 208.3177,274.1579 210.4796,273.1354 212.5308,271.9059 214.4516,270.4813 216.2236,268.8753 217.8296,267.1034 219.2542,265.1825 220.4836,263.1313 221.5061,260.9695 222.3118,258.7178 222.8929,256.398 223.2438,254.0324 223.3611,251.6439 223.2438,249.2553 222.8929,246.8897 222.3118,244.5699 221.5061,242.3183 220.4836,240.1564 219.2542,238.1052 217.8296,236.1843 216.2236,234.4124 214.4516,232.8064 212.5308,231.3818 210.4796,230.1523 208.3177,229.1299 206.0661,228.3242 203.7463,227.7431 201.3807,227.3922"/>
    <polygon points="207.33,209.4758 206.9861,209.1641 206.6744,208.8202 206.3979,208.4474 206.1592,208.0492 205.9608,207.6296 205.8044,207.1926 205.6916,206.7423 205.6235,206.2831 205.6007,205.8195 205.6235,205.3559 205.6916,204.8968 205.8044,204.4465 205.9608,204.0094 206.1592,203.5898 206.3979,203.1917 206.6744,202.8189 206.9861,202.4749 207.33,202.1632 207.7029,201.8867 208.101,201.6481 208.5206,201.4496 208.9577,201.2932 209.4079,201.1804 209.8671,201.1123 210.3307,201.0896 210.7943,201.1123 211.2535,201.1804 211.7037,201.2932 212.1408,201.4496 212.5604,201.6481 212.9585,201.8867 213.3314,202.1632 213.6753,202.4749 213.987,202.8189 214.2635,203.1917 214.5022,203.5898 214.7006,204.0094 214.857,204.4465 214.9698,204.8968 215.0379,205.3559 215.0607,205.8195 215.0379,206.2831 214.9698,206.7423 214.857,207.1926 214.7006,207.6296 214.5022,208.0492 214.2635,208.4474 213.987,208.8202 213.6753,209.1641 213.3314,209.4758 212.9585,209.7524 212.5604,209.991 212.1408,210.1894 211.7037,210.3458 211.2535,210.4586 210.7943,210.5267 210.3307,210.5495 209.8671,210.5267 209.4079,210.4586 208.9577,210.3458 208.5206,210.1894 208.101,209.991 207.7029,209.7524"/>
    <polygon points="184.2795,203.6492 185.1683,202.99 186.1175,202.421 187.1178,201.9479 188.1597,201.5751 189.2332,201.3062 190.3278,201.1438 191.4331,201.0896 192.5383,201.1438 193.633,201.3062 194.7064,201.5751 195.7483,201.9479 196.7487,202.421 197.6979,202.99 198.5867,203.6492 199.4066,204.3923 200.1498,205.2122 200.809,206.1011 201.3779,207.0502 201.851,208.0506 202.2238,209.0925 202.4927,210.166 202.6551,211.2606 202.7094,212.3659 202.6551,213.4711 202.4927,214.5658 202.2238,215.6392 201.851,216.6811 201.3779,217.6815 200.809,218.6306 200.1498,219.5195 199.4066,220.3394 198.5867,221.0826 197.6979,221.7418 196.7487,222.3107 195.7483,222.7838 194.7064,223.1566 193.633,223.4255 192.5383,223.5879 191.4331,223.6422 190.3278,223.5879 189.2332,223.4255 188.1597,223.1566 187.1178,222.7838 186.1175,222.3107 185.1683,221.7418 184.2795,221.0826 183.4595,220.3394 182.7164,219.5195 182.0572,218.6306 181.4883,217.6815 181.0151,216.6811 180.6423,215.6392 180.3734,214.5658 180.2111,213.4711 180.1568,212.3659 180.2111,211.2606 180.3734,210.166 180.6423,209.0925 181.0151,208.0506 181.4883,207.0502 182.0572,206.1011 182.7164,205.2122 183.4595,204.3923"/>
    <polygon points="210.3307,184.3642 210.7943,184.3414 211.2535,184.2733 211.7037,184.1605 212.1408,184.0041 212.5604,183.8057 212.9585,183.567 213.3314,183.2905 213.6753,182.9788 213.987,182.6349 214.2635,182.262 214.5022,181.8639 214.7006,181.4443 214.857,181.0072 214.9698,180.557 215.0379,180.0978 215.0607,179.6342 215.0379,179.1706 214.9698,178.7114 214.857,178.2612 214.7006,177.8241 214.5022,177.4045 214.2635,177.0064 213.987,176.6335 213.6753,176.2896 213.3314,175.9779 212.9585,175.7014 212.5604,175.4627 212.1408,175.2643 211.7037,175.1079 211.2535,174.9951 210.7943,174.927 210.3307,174.9042 209.8671,174.927 209.4079,174.9951 208.9577,175.1079 208.5206,175.2643 208.101,175.4627 207.7029,175.7014 207.33,175.9779 206.9861,176.2896 206.6744,176.6335 206.3979,177.0064 206.1592,177.4045 205.9608,177.8241 205.8044,178.2612 205.6916,178.7114 205.6235,179.1706 205.6007,179.6342 205.6235,180.0978 205.6916,180.557 205.8044,181.0072 205.9608,181.4443 206.1592,181.8639 206.3979,182.262 206.6744,182.6349 206.9861,182.9788 207.33,183.2905 207.7029,183.567 208.101,183.8057 208.5206,184.0041 208.9577,184.1605 209.4079,184.2733 209.8671,184.3414"/>
    <polygon points="202.6484,156.9945 202.3367,156.6506 201.9928,156.3389 201.62,156.0624 201.2218,155.8237 200.8022,155.6253 200.3652,155.4689 199.9149,155.3561 199.4557,155.288 198.9921,155.2652 198.5285,155.288 198.0694,155.3561 197.6191,155.4689 197.182,155.6253 196.7624,155.8237 196.3643,156.0624 195.9915,156.3389 195.6475,156.6506 195.3358,156.9945 195.0593,157.3674 194.8207,157.7655 194.6222,158.1851 194.4658,158.6221 194.353,159.0724 194.2849,159.5316 194.2622,159.9952 194.2849,160.4588 194.353,160.918 194.4658,161.3682 194.6222,161.8053 194.8207,162.2249 195.0593,162.623 195.3358,162.9959 195.6475,163.3398 195.9915,163.6515 196.3643,163.928 196.7624,164.1667 197.182,164.3651 197.6191,164.5215 198.0694,164.6343 198.5285,164.7024 198.9921,164.7252 199.4557,164.7024 199.9149,164.6343 200.3652,164.5215 200.8022,164.3651 201.2218,164.1667 201.62,163.928 201.9928,163.6515 202.3367,163.3398 202.6484,162.9959 202.925,162.623 203.1636,162.2249 203.3621,161.8053 203.5184,161.3682 203.6312,160.918 203.6993,160.4588 203.7221,159.9952 203.6993,159.5316 203.6312,159.0724 203.5184,158.6221 203.3621,158.1851 203.1636,157.7655 202.925,157.3674"/>
    <polygon points="184.6529,162.8852 184.3089,163.1969 183.9972,163.5409 183.7207,163.9137 183.4821,164.3118 183.2836,164.7314 183.1272,165.1685 183.0145,165.6187 182.9463,166.0779 182.9236,166.5415 182.9463,167.0051 183.0145,167.4643 183.1272,167.9146 183.2836,168.3516 183.4821,168.7712 183.7207,169.1694 183.9972,169.5422 184.3089,169.8861 184.6529,170.1978 185.0257,170.4743 185.4238,170.713 185.8435,170.9114 186.2805,171.0678 186.7308,171.1806 187.1899,171.2487 187.6535,171.2715 188.1172,171.2487 188.5763,171.1806 189.0266,171.0678 189.4636,170.9114 189.8832,170.713 190.2814,170.4743 190.6542,170.1978 190.9981,169.8861 191.3099,169.5422 191.5864,169.1694 191.825,168.7712 192.0235,168.3516 192.1798,167.9146 192.2926,167.4643 192.3607,167.0051 192.3835,166.5415 192.3607,166.0779 192.2926,165.6187 192.1798,165.1685 192.0235,164.7314 191.825,164.3118 191.5864,163.9137 191.3099,163.5409 190.9981,163.1969 190.6542,162.8852 190.2814,162.6087 189.8832,162.3701 189.4636,162.1716 189.0266,162.0152 188.5763,161.9024 188.1172,161.8343 187.6535,161.8115 187.1899,161.8343 186.7308,161.9024 186.2805,162.0152 185.8435,162.1716 185.4238,162.3701 185.0257,162.6087"/>
    <polygon points="181.0151,190.4958 181.4883,191.4961 182.0572,192.4453 182.7164,193.3341 183.4595,194.1541 184.2795,194.8972 185.1683,195.5564 186.1175,196.1253 187.1178,196.5985 188.1597,196.9713 189.2332,197.2402 190.3278,197.4025 191.4331,197.4568 192.5383,197.4025 193.633,197.2402 194.7064,196.9713 195.7483,196.5985 196.7487,196.1253 197.6979,195.5564 198.5867,194.8972 199.4066,194.1541 200.1498,193.3341 200.809,192.4453 201.3779,191.4961 201.851,190.4958 202.2238,189.4539 202.4927,188.3804 202.6551,187.2858 202.7094,186.1805 202.6551,185.0753 202.4927,183.9806 202.2238,182.9072 201.851,181.8653 201.3779,180.8649 200.809,179.9157 200.1498,179.0269 199.4066,178.207 198.5867,177.4638 197.6979,176.8046 196.7487,176.2357 195.7483,175.7626 194.7064,175.3898 193.633,175.1209 192.5383,174.9585 191.4331,174.9042 190.3278,174.9585 189.2332,175.1209 188.1597,175.3898 187.1178,175.7626 186.1175,176.2357 185.1683,176.8046 184.2795,177.4638 183.4595,178.207 182.7164,179.0269 182.0572,179.9157 181.4883,180.8649 181.0151,181.8653 180.6423,182.9072 180.3734,183.9806 180.2111,185.0753 180.1568,186.1805 180.2111,187.2858 180.3734,188.3804 180.6423,189.4539"/>
    <polygon points="171.945,197.4631 171.7887,197.9002 171.6759,198.3504 171.6078,198.8096 171.585,199.2732 171.6078,199.7368 171.6759,200.196 171.7887,200.6462 171.945,201.0833 172.1435,201.5029 172.3821,201.901 172.6586,202.2739 172.9704,202.6178 173.3143,202.9295 173.6871,203.206 174.0853,203.4447 174.5049,203.6431 174.9419,203.7995 175.3922,203.9123 175.8513,203.9804 176.315,204.0032 176.7786,203.9804 177.2377,203.9123 177.688,203.7995 178.125,203.6431 178.5447,203.4447 178.9428,203.206 179.3156,202.9295 179.6596,202.6178 179.9713,202.2739 180.2478,201.901 180.4864,201.5029 180.6849,201.0833 180.8413,200.6462 180.954,200.196 181.0222,199.7368 181.0449,199.2732 181.0222,198.8096 180.954,198.3504 180.8413,197.9002 180.6849,197.4631 180.4864,197.0435 180.2478,196.6454 179.9713,196.2725 179.6596,195.9286 179.3156,195.6169 178.9428,195.3404 178.5447,195.1017 178.125,194.9033 177.688,194.7469 177.2377,194.6341 176.7786,194.566 176.315,194.5432 175.8513,194.566 175.3922,194.6341 174.9419,194.7469 174.5049,194.9033 174.0853,195.1017 173.6871,195.3404 173.3143,195.6169 172.9704,195.9286 172.6586,196.2725 172.3821,196.6454 172.1435,197.0435"/>
    <polygon points="164.0536,201.1804 163.6033,201.2932 163.1663,201.4496 162.7467,201.6481 162.3485,201.8867 161.9757,202.1632 161.6318,202.4749 161.3201,202.8189 161.0435,203.1917 160.8049,203.5898 160.6065,204.0094 160.4501,204.4465 160.3373,204.8968 160.2692,205.3559 160.2464,205.8195 160.2692,206.2831 160.3373,206.7423 160.4501,207.1926 160.6065,207.6296 160.8049,208.0492 161.0435,208.4474 161.3201,208.8202 161.6318,209.1641 161.9757,209.4758 162.3485,209.7524 162.7467,209.991 163.1663,210.1894 163.6033,210.3458 164.0536,210.4586 164.5128,210.5267 164.9764,210.5495 165.44,210.5267 165.8991,210.4586 166.3494,210.3458 166.7865,210.1894 167.2061,209.991 167.6042,209.7524 167.977,209.4758 168.321,209.1641 168.6327,208.8202 168.9092,208.4474 169.1478,208.0492 169.3463,207.6296 169.5027,207.1926 169.6155,206.7423 169.6836,206.2831 169.7064,205.8195 169.6836,205.3559 169.6155,204.8968 169.5027,204.4465 169.3463,204.0094 169.1478,203.5898 168.9092,203.1917 168.6327,202.8189 168.321,202.4749 167.977,202.1632 167.6042,201.8867 167.2061,201.6481 166.7865,201.4496 166.3494,201.2932 165.8991,201.1804 165.44,201.1123 164.9764,201.0896 164.5128,201.1123"/>
    <polygon points="149.705,196.6454 149.9815,196.2725 150.2932,195.9286 150.6371,195.6169 151.01,195.3404 151.4081,195.1017 151.8277,194.9033 152.2648,194.7469 152.715,194.6341 153.1742,194.566 153.6378,194.5432 154.1014,194.566 154.5606,194.6341 155.0108,194.7469 155.4479,194.9033 155.8675,195.1017 156.2656,195.3404 156.6385,195.6169 156.9824,195.9286 157.2941,196.2725 157.5706,196.6454 157.8093,197.0435 158.0077,197.4631 158.1641,197.9002 158.2769,198.3504 158.345,198.8096 158.3678,199.2732 158.345,199.7368 158.2769,200.196 158.1641,200.6462 158.0077,201.0833 157.8093,201.5029 157.5706,201.901 157.2941,202.2739 156.9824,202.6178 156.6385,202.9295 156.2656,203.206 155.8675,203.4447 155.4479,203.6431 155.0108,203.7995 154.5606,203.9123 154.1014,203.9804 153.6378,204.0032 153.1742,203.9804 152.715,203.9123 152.2648,203.7995 151.8277,203.6431 151.4081,203.4447 151.01,203.206 150.6371,202.9295 150.2932,202.6178 149.9815,202.2739 149.705,201.901 149.4663,201.5029 149.2679,201.0833 149.1115,200.6462 148.9987,200.196 148.9306,199.7368 148.9078,199.2732 148.9306,198.8096 148.9987,198.3504 149.1115,197.9002 149.2679,197.4631 149.4663,197.0435"/>
    <polygon points="151.4081,208.1944 151.8277,207.9959 152.2648,207.8396 152.715,207.7268 153.1742,207.6587 153.6378,207.6359 154.1014,207.6587 154.5606,207.7268 155.0108,207.8396 155.4479,207.9959 155.8675,208.1944 156.2656,208.433 156.6385,208.7095 156.9824,209.0213 157.2941,209.3652 157.5706,209.738 157.8093,210.1362 158.0077,210.5558 158.1641,210.9928 158.2769,211.4431 158.345,211.9022 158.3678,212.3659 158.345,212.8295 158.2769,213.2886 158.1641,213.7389 158.0077,214.1759 157.8093,214.5956 157.5706,214.9937 157.2941,215.3665 156.9824,215.7105 156.6385,216.0222 156.2656,216.2987 155.8675,216.5373 155.4479,216.7358 155.0108,216.8922 154.5606,217.0049 154.1014,217.0731 153.6378,217.0958 153.1742,217.0731 152.715,217.0049 152.2648,216.8922 151.8277,216.7358 151.4081,216.5373 151.01,216.2987 150.6371,216.0222 150.2932,215.7105 149.9815,215.3665 149.705,214.9937 149.4663,214.5956 149.2679,214.1759 149.1115,213.7389 148.9987,213.2886 148.9306,212.8295 148.9078,212.3659 148.9306,211.9022 148.9987,211.4431 149.1115,210.9928 149.2679,210.5558 149.4663,210.1362 149.705,209.738 149.9815,209.3652 150.2932,209.0213 150.6371,208.7095 151.01,208.433"/>
    <polygon points="160.7824,233.4321 161.6023,234.1752 162.4911,234.8344 163.4403,235.4033 164.4406,235.8765 165.4826,236.2493 166.556,236.5182 167.6506,236.6805 168.7559,236.7348 169.8612,236.6805 170.9558,236.5182 172.0292,236.2493 173.0712,235.8765 174.0715,235.4033 175.0207,234.8344 175.9095,234.1752 176.7295,233.4321 177.4726,232.6121 178.1318,231.7233 178.7007,230.7741 179.1739,229.7738 179.5467,228.7319 179.8155,227.6584 179.9779,226.5638 180.0322,225.4585 179.9779,224.3533 179.8155,223.2586 179.5467,222.1852 179.1739,221.1433 178.7007,220.1429 178.1318,219.1937 177.4726,218.3049 176.7295,217.485 175.9095,216.7418 175.0207,216.0826 174.0715,215.5137 173.0712,215.0406 172.0292,214.6678 170.9558,214.3989 169.8612,214.2365 168.7559,214.1822 167.6506,214.2365 166.556,214.3989 165.4826,214.6678 164.4406,215.0406 163.4403,215.5137 162.4911,216.0826 161.6023,216.7418 160.7824,217.485 160.0392,218.3049 159.38,219.1937 158.8111,220.1429 158.338,221.1433 157.9652,222.1852 157.6963,223.2586 157.5339,224.3533 157.4796,225.4585 157.5339,226.5638 157.6963,227.6584 157.9652,228.7319 158.338,229.7738 158.8111,230.7741 159.38,231.7233 160.0392,232.6121"/>
    <polygon points="156.2656,234.6184 155.8675,234.3797 155.4479,234.1813 155.0108,234.0249 154.5606,233.9121 154.1014,233.844 153.6378,233.8212 153.1742,233.844 152.715,233.9121 152.2648,234.0249 151.8277,234.1813 151.4081,234.3797 151.01,234.6184 150.6371,234.8949 150.2932,235.2066 149.9815,235.5505 149.705,235.9234 149.4663,236.3215 149.2679,236.7411 149.1115,237.1782 148.9987,237.6284 148.9306,238.0876 148.9078,238.5512 148.9306,239.0148 148.9987,239.474 149.1115,239.9242 149.2679,240.3613 149.4663,240.7809 149.705,241.179 149.9815,241.5519 150.2932,241.8958 150.6371,242.2075 151.01,242.484 151.4081,242.7227 151.8277,242.9211 152.2648,243.0775 152.715,243.1903 153.1742,243.2584 153.6378,243.2812 154.1014,243.2584 154.5606,243.1903 155.0108,243.0775 155.4479,242.9211 155.8675,242.7227 156.2656,242.484 156.6385,242.2075 156.9824,241.8958 157.2941,241.5519 157.5706,241.179 157.8093,240.7809 158.0077,240.3613 158.1641,239.9242 158.2769,239.474 158.345,239.0148 158.3678,238.5512 158.345,238.0876 158.2769,237.6284 158.1641,237.1782 158.0077,236.7411 157.8093,236.3215 157.5706,235.9234 157.2941,235.5505 156.9824,235.2066 156.6385,234.8949"/>
    <polygon points="115.9657,281.3749 115.6892,281.7477 115.4506,282.1458 115.2521,282.5654 115.0957,283.0025 114.983,283.4528 114.9149,283.9119 114.8921,284.3755 114.9149,284.8391 114.983,285.2983 115.0957,285.7486 115.2521,286.1856 115.4506,286.6052 115.6892,287.0034 115.9657,287.3762 116.2775,287.7201 116.6214,288.0318 116.9942,288.3084 117.3924,288.547 117.812,288.7455 118.249,288.9018 118.6993,289.0146 119.1584,289.0827 119.622,289.1055 120.0857,289.0827 120.5448,289.0146 120.9951,288.9018 121.4321,288.7455 121.8517,288.547 122.2499,288.3084 122.6227,288.0318 122.9666,287.7201 123.2784,287.3762 123.5549,287.0034 123.7935,286.6052 123.992,286.1856 124.1483,285.7486 124.2611,285.2983 124.3292,284.8391 124.352,284.3755 124.3292,283.9119 124.2611,283.4528 124.1483,283.0025 123.992,282.5654 123.7935,282.1458 123.5549,281.7477 123.2784,281.3749 122.9666,281.0309 122.6227,280.7192 122.2499,280.4427 121.8517,280.2041 121.4321,280.0056 120.9951,279.8492 120.5448,279.7364 120.0857,279.6683 119.622,279.6456 119.1584,279.6683 118.6993,279.7364 118.249,279.8492 117.812,280.0056 117.3924,280.2041 116.9942,280.4427 116.6214,280.7192 116.2775,281.0309"/>
    <polygon points="129.5876,295.4482 130.0379,295.561 130.497,295.6291 130.9606,295.6518 131.4242,295.6291 131.8834,295.561 132.3337,295.4482 132.7707,295.2918 133.1903,295.0933 133.5885,294.8547 133.9613,294.5782 134.3052,294.2665 134.6169,293.9225 134.8935,293.5497 135.1321,293.1516 135.3306,292.7319 135.4869,292.2949 135.5997,291.8446 135.6678,291.3855 135.6906,290.9219 135.6678,290.4582 135.5997,289.9991 135.4869,289.5488 135.3306,289.1118 135.1321,288.6922 134.8935,288.294 134.6169,287.9212 134.3052,287.5773 133.9613,287.2655 133.5885,286.989 133.1903,286.7504 132.7707,286.5519 132.3337,286.3956 131.8834,286.2828 131.4242,286.2147 130.9606,286.1919 130.497,286.2147 130.0379,286.2828 129.5876,286.3956 129.1505,286.5519 128.7309,286.7504 128.3328,286.989 127.96,287.2655 127.616,287.5773 127.3043,287.9212 127.0278,288.294 126.7892,288.6922 126.5907,289.1118 126.4343,289.5488 126.3215,289.9991 126.2534,290.4582 126.2307,290.9219 126.2534,291.3855 126.3215,291.8446 126.4343,292.2949 126.5907,292.7319 126.7892,293.1516 127.0278,293.5497 127.3043,293.9225 127.616,294.2665 127.96,294.5782 128.3328,294.8547 128.7309,295.0933 129.1505,295.2918"/>
    <polygon points="146.9383,296.5454 146.8255,296.0952 146.6691,295.6581 146.4707,295.2385 146.232,294.8404 145.9555,294.4675 145.6438,294.1236 145.2999,293.8119 144.927,293.5354 144.5289,293.2967 144.1093,293.0983 143.6723,292.9419 143.222,292.8291 142.7628,292.761 142.2992,292.7382 141.8356,292.761 141.3764,292.8291 140.9262,292.9419 140.4891,293.0983 140.0695,293.2967 139.6714,293.5354 139.2985,293.8119 138.9546,294.1236 138.6429,294.4675 138.3664,294.8404 138.1277,295.2385 137.9293,295.6581 137.7729,296.0952 137.6601,296.5454 137.592,297.0046 137.5692,297.4682 137.592,297.9318 137.6601,298.391 137.7729,298.8412 137.9293,299.2783 138.1277,299.6979 138.3664,300.096 138.6429,300.4689 138.9546,300.8128 139.2985,301.1245 139.6714,301.401 140.0695,301.6397 140.4891,301.8381 140.9262,301.9945 141.3764,302.1073 141.8356,302.1754 142.2992,302.1982 142.7628,302.1754 143.222,302.1073 143.6723,301.9945 144.1093,301.8381 144.5289,301.6397 144.927,301.401 145.2999,301.1245 145.6438,300.8128 145.9555,300.4689 146.232,300.096 146.4707,299.6979 146.6691,299.2783 146.8255,298.8412 146.9383,298.391 147.0064,297.9318 147.0292,297.4682 147.0064,297.0046"/>
    <polygon points="151.4081,308.186 151.8277,308.3845 152.2648,308.5408 152.715,308.6536 153.1742,308.7217 153.6378,308.7445 154.1014,308.7217 154.5606,308.6536 155.0108,308.5408 155.4479,308.3845 155.8675,308.186 156.2656,307.9474 156.6385,307.6708 156.9824,307.3591 157.2941,307.0152 157.5706,306.6424 157.8093,306.2442 158.0077,305.8246 158.1641,305.3876 158.2769,304.9373 158.345,304.4781 158.3678,304.0145 158.345,303.5509 158.2769,303.0918 158.1641,302.6415 158.0077,302.2044 157.8093,301.7848 157.5706,301.3867 157.2941,301.0139 156.9824,300.6699 156.6385,300.3582 156.2656,300.0817 155.8675,299.8431 155.4479,299.6446 155.0108,299.4882 154.5606,299.3754 154.1014,299.3073 153.6378,299.2846 153.1742,299.3073 152.715,299.3754 152.2648,299.4882 151.8277,299.6446 151.4081,299.8431 151.01,300.0817 150.6371,300.3582 150.2932,300.6699 149.9815,301.0139 149.705,301.3867 149.4663,301.7848 149.2679,302.2044 149.1115,302.6415 148.9987,303.0918 148.9306,303.5509 148.9078,304.0145 148.9306,304.4781 148.9987,304.9373 149.1115,305.3876 149.2679,305.8246 149.4663,306.2442 149.705,306.6424 149.9815,307.0152 150.2932,307.3591 150.6371,307.6708 151.01,307.9474"/>
    <polygon points="157.8093,354.1555 157.5706,353.7574 157.2941,353.3845 156.9824,353.0406 156.6385,352.7289 156.2656,352.4524 155.8675,352.2137 155.4479,352.0153 155.0108,351.8589 154.5606,351.7461 154.1014,351.678 153.6378,351.6552 153.1742,351.678 152.715,351.7461 152.2648,351.8589 151.8277,352.0153 151.4081,352.2137 151.01,352.4524 150.6371,352.7289 150.2932,353.0406 149.9815,353.3845 149.705,353.7574 149.4663,354.1555 149.2679,354.5751 149.1115,355.0122 148.9987,355.4624 148.9306,355.9216 148.9078,356.3852 148.9306,356.8488 148.9987,357.308 149.1115,357.7582 149.2679,358.1953 149.4663,358.6149 149.705,359.013 149.9815,359.3859 150.2932,359.7298 150.6371,360.0415 151.01,360.318 151.4081,360.5567 151.8277,360.7551 152.2648,360.9115 152.715,361.0243 153.1742,361.0924 153.6378,361.1152 154.1014,361.0924 154.5606,361.0243 155.0108,360.9115 155.4479,360.7551 155.8675,360.5567 156.2656,360.318 156.6385,360.0415 156.9824,359.7298 157.2941,359.3859 157.5706,359.013 157.8093,358.6149 158.0077,358.1953 158.1641,357.7582 158.2769,357.308 158.345,356.8488 158.3678,356.3852 158.345,355.9216 158.2769,355.4624 158.1641,355.0122 158.0077,354.5751"/>
    <polygon points="162.7467,367.103 163.1663,367.3015 163.6033,367.4578 164.0536,367.5706 164.5128,367.6387 164.9764,367.6615 165.44,367.6387 165.8991,367.5706 166.3494,367.4578 166.7865,367.3015 167.2061,367.103 167.6042,366.8644 167.977,366.5879 168.321,366.2761 168.6327,365.9322 168.9092,365.5594 169.1478,365.1612 169.3463,364.7416 169.5027,364.3046 169.6155,363.8543 169.6836,363.3952 169.7064,362.9315 169.6836,362.4679 169.6155,362.0088 169.5027,361.5585 169.3463,361.1215 169.1478,360.7018 168.9092,360.3037 168.6327,359.9309 168.321,359.5869 167.977,359.2752 167.6042,358.9987 167.2061,358.7601 166.7865,358.5616 166.3494,358.4052 165.8991,358.2924 165.44,358.2243 164.9764,358.2016 164.5128,358.2243 164.0536,358.2924 163.6033,358.4052 163.1663,358.5616 162.7467,358.7601 162.3485,358.9987 161.9757,359.2752 161.6318,359.5869 161.3201,359.9309 161.0435,360.3037 160.8049,360.7018 160.6065,361.1215 160.4501,361.5585 160.3373,362.0088 160.2692,362.4679 160.2464,362.9315 160.2692,363.3952 160.3373,363.8543 160.4501,364.3046 160.6065,364.7416 160.8049,365.1612 161.0435,365.5594 161.3201,365.9322 161.6318,366.2761 161.9757,366.5879 162.3485,366.8644"/>
    <polygon points="158.2769,368.5551 158.1641,368.1048 158.0077,367.6678 157.8093,367.2482 157.5706,366.85 157.2941,366.4772 156.9824,366.1333 156.6385,365.8215 156.2656,365.545 155.8675,365.3064 155.4479,365.1079 155.0108,364.9516 154.5606,364.8388 154.1014,364.7707 153.6378,364.7479 153.1742,364.7707 152.715,364.8388 152.2648,364.9516 151.8277,365.1079 151.4081,365.3064 151.01,365.545 150.6371,365.8215 150.2932,366.1333 149.9815,366.4772 149.705,366.85 149.4663,367.2482 149.2679,367.6678 149.1115,368.1048 148.9987,368.5551 148.9306,369.0142 148.9078,369.4779 148.9306,369.9415 148.9987,370.4006 149.1115,370.8509 149.2679,371.288 149.4663,371.7076 149.705,372.1057 149.9815,372.4785 150.2932,372.8225 150.6371,373.1342 151.01,373.4107 151.4081,373.6493 151.8277,373.8478 152.2648,374.0042 152.715,374.117 153.1742,374.1851 153.6378,374.2078 154.1014,374.1851 154.5606,374.117 155.0108,374.0042 155.4479,373.8478 155.8675,373.6493 156.2656,373.4107 156.6385,373.1342 156.9824,372.8225 157.2941,372.4785 157.5706,372.1057 157.8093,371.7076 158.0077,371.288 158.1641,370.8509 158.2769,370.4006 158.345,369.9415 158.3678,369.4779 158.345,369.0142"/>
    <polygon points="160.4501,374.6512 160.3373,375.1014 160.2692,375.5606 160.2464,376.0242 160.2692,376.4878 160.3373,376.947 160.4501,377.3972 160.6065,377.8343 160.8049,378.2539 161.0435,378.652 161.3201,379.0249 161.6318,379.3688 161.9757,379.6805 162.3485,379.957 162.7467,380.1957 163.1663,380.3941 163.6033,380.5505 164.0536,380.6633 164.5128,380.7314 164.9764,380.7542 165.44,380.7314 165.8991,380.6633 166.3494,380.5505 166.7865,380.3941 167.2061,380.1957 167.6042,379.957 167.977,379.6805 168.321,379.3688 168.6327,379.0249 168.9092,378.652 169.1478,378.2539 169.3463,377.8343 169.5027,377.3972 169.6155,376.947 169.6836,376.4878 169.7064,376.0242 169.6836,375.5606 169.6155,375.1014 169.5027,374.6512 169.3463,374.2141 169.1478,373.7945 168.9092,373.3964 168.6327,373.0235 168.321,372.6796 167.977,372.3679 167.6042,372.0914 167.2061,371.8527 166.7865,371.6543 166.3494,371.4979 165.8991,371.3851 165.44,371.317 164.9764,371.2942 164.5128,371.317 164.0536,371.3851 163.6033,371.4979 163.1663,371.6543 162.7467,371.8527 162.3485,372.0914 161.9757,372.3679 161.6318,372.6796 161.3201,373.0235 161.0435,373.3964 160.8049,373.7945 160.6065,374.2141"/>
    <polygon points="146.8255,390.4899 146.6691,390.927 146.4707,391.3466 146.232,391.7447 145.9555,392.1175 145.6438,392.4615 145.2999,392.7732 144.927,393.0497 144.5289,393.2883 144.1093,393.4868 143.6723,393.6432 143.222,393.756 142.7628,393.8241 142.2992,393.8468 141.8356,393.8241 141.3764,393.756 140.9262,393.6432 140.4891,393.4868 140.0695,393.2883 139.6714,393.0497 139.2985,392.7732 138.9546,392.4615 138.6429,392.1175 138.3664,391.7447 138.1277,391.3466 137.9293,390.927 137.7729,390.4899 137.6601,390.0396 137.592,389.5805 137.5692,389.1169 137.592,388.6533 137.6601,388.1941 137.7729,387.7438 137.9293,387.3068 138.1277,386.8872 138.3664,386.489 138.6429,386.1162 138.9546,385.7723 139.2985,385.4606 139.6714,385.184 140.0695,384.9454 140.4891,384.7469 140.9262,384.5906 141.3764,384.4778 141.8356,384.4097 142.2992,384.3869 142.7628,384.4097 143.222,384.4778 143.6723,384.5906 144.1093,384.7469 144.5289,384.9454 144.927,385.184 145.2999,385.4606 145.6438,385.7723 145.9555,386.1162 146.232,386.489 146.4707,386.8872 146.6691,387.3068 146.8255,387.7438 146.9383,388.1941 147.0064,388.6533 147.0292,389.1169 147.0064,389.5805 146.9383,390.0396"/>
    <polygon points="156.9824,385.9151 156.6385,386.2269 156.2656,386.5034 155.8675,386.742 155.4479,386.9405 155.0108,387.0968 154.5606,387.2096 154.1014,387.2777 153.6378,387.3005 153.1742,387.2777 152.715,387.2096 152.2648,387.0968 151.8277,386.9405 151.4081,386.742 151.01,386.5034 150.6371,386.2269 150.2932,385.9151 149.9815,385.5712 149.705,385.1984 149.4663,384.8002 149.2679,384.3806 149.1115,383.9436 148.9987,383.4933 148.9306,383.0342 148.9078,382.5705 148.9306,382.1069 148.9987,381.6478 149.1115,381.1975 149.2679,380.7605 149.4663,380.3408 149.705,379.9427 149.9815,379.5699 150.2932,379.2259 150.6371,378.9142 151.01,378.6377 151.4081,378.3991 151.8277,378.2006 152.2648,378.0442 152.715,377.9314 153.1742,377.8633 153.6378,377.8406 154.1014,377.8633 154.5606,377.9314 155.0108,378.0442 155.4479,378.2006 155.8675,378.3991 156.2656,378.6377 156.6385,378.9142 156.9824,379.2259 157.2941,379.5699 157.5706,379.9427 157.8093,380.3408 158.0077,380.7605 158.1641,381.1975 158.2769,381.6478 158.345,382.1069 158.3678,382.5705 158.345,383.0342 158.2769,383.4933 158.1641,383.9436 158.0077,384.3806 157.8093,384.8002 157.5706,385.1984 157.2941,385.5712"/>
    <polygon points="175.8513,387.2777 176.315,387.3005 176.7786,387.2777 177.2377,387.2096 177.688,387.0968 178.125,386.9405 178.5447,386.742 178.9428,386.5034 179.3156,386.2269 179.6596,385.9151 179.9713,385.5712 180.2478,385.1984 180.4864,384.8002 180.6849,384.3806 180.8413,383.9436 180.954,383.4933 181.0222,383.0342 181.0449,382.5705 181.0222,382.1069 180.954,381.6478 180.8413,381.1975 180.6849,380.7605 180.4864,380.3408 180.2478,379.9427 179.9713,379.5699 179.6596,379.2259 179.3156,378.9142 178.9428,378.6377 178.5447,378.3991 178.125,378.2006 177.688,378.0442 177.2377,377.9314 176.7786,377.8633 176.315,377.8406 175.8513,377.8633 175.3922,377.9314 174.9419,378.0442 174.5049,378.2006 174.0853,378.3991 173.6871,378.6377 173.3143,378.9142 172.9704,379.2259 172.6586,379.5699 172.3821,379.9427 172.1435,380.3408 171.945,380.7605 171.7887,381.1975 171.6759,381.6478 171.6078,382.1069 171.585,382.5705 171.6078,383.0342 171.6759,383.4933 171.7887,383.9436 171.945,384.3806 172.1435,384.8002 172.3821,385.1984 172.6586,385.5712 172.9704,385.9151 173.3143,386.2269 173.6871,386.5034 174.0853,386.742 174.5049,386.9405 174.9419,387.0968 175.3922,387.2096"/>
    <polygon points="183.2836,390.927 183.4821,391.3466 183.7207,391.7447 183.9972,392.1175 184.3089,392.4615 184.6529,392.7732 185.0257,393.0497 185.4238,393.2883 185.8435,393.4868 186.2805,393.6432 186.7308,393.756 187.1899,393.8241 187.6535,393.8468 188.1172,393.8241 188.5763,393.756 189.0266,393.6432 189.4636,393.4868 189.8832,393.2883 190.2814,393.0497 190.6542,392.7732 190.9981,392.4615 191.3099,392.1175 191.5864,391.7447 191.825,391.3466 192.0235,390.927 192.1798,390.4899 192.2926,390.0396 192.3607,389.5805 192.3835,389.1169 192.3607,388.6533 192.2926,388.1941 192.1798,387.7438 192.0235,387.3068 191.825,386.8872 191.5864,386.489 191.3099,386.1162 190.9981,385.7723 190.6542,385.4606 190.2814,385.184 189.8832,384.9454 189.4636,384.7469 189.0266,384.5906 188.5763,384.4778 188.1172,384.4097 187.6535,384.3869 187.1899,384.4097 186.7308,384.4778 186.2805,384.5906 185.8435,384.7469 185.4238,384.9454 185.0257,385.184 184.6529,385.4606 184.3089,385.7723 183.9972,386.1162 183.7207,386.489 183.4821,386.8872 183.2836,387.3068 183.1272,387.7438 183.0145,388.1941 182.9463,388.6533 182.9236,389.1169 182.9463,389.5805 183.0145,390.0396 183.1272,390.4899"/>
    <polygon points="191.5864,378.652 191.825,378.2539 192.0235,377.8343 192.1798,377.3972 192.2926,376.947 192.3607,376.4878 192.3835,376.0242 192.3607,375.5606 192.2926,375.1014 192.1798,374.6512 192.0235,374.2141 191.825,373.7945 191.5864,373.3964 191.3099,373.0235 190.9981,372.6796 190.6542,372.3679 190.2814,372.0914 189.8832,371.8527 189.4636,371.6543 189.0266,371.4979 188.5763,371.3851 188.1172,371.317 187.6535,371.2942 187.1899,371.317 186.7308,371.3851 186.2805,371.4979 185.8435,371.6543 185.4238,371.8527 185.0257,372.0914 184.6529,372.3679 184.3089,372.6796 183.9972,373.0235 183.7207,373.3964 183.4821,373.7945 183.2836,374.2141 183.1272,374.6512 183.0145,375.1014 182.9463,375.5606 182.9236,376.0242 182.9463,376.4878 183.0145,376.947 183.1272,377.3972 183.2836,377.8343 183.4821,378.2539 183.7207,378.652 183.9972,379.0249 184.3089,379.3688 184.6529,379.6805 185.0257,379.957 185.4238,380.1957 185.8435,380.3941 186.2805,380.5505 186.7308,380.6633 187.1899,380.7314 187.6535,380.7542 188.1172,380.7314 188.5763,380.6633 189.0266,380.5505 189.4636,380.3941 189.8832,380.1957 190.2814,379.957 190.6542,379.6805 190.9981,379.3688 191.3099,379.0249"/>
    <polygon points="205.6235,376.4878 205.6007,376.0242 205.6235,375.5606 205.6916,375.1014 205.8044,374.6512 205.9608,374.2141 206.1592,373.7945 206.3979,373.3964 206.6744,373.0235 206.9861,372.6796 207.33,372.3679 207.7029,372.0914 208.101,371.8527 208.5206,371.6543 208.9577,371.4979 209.4079,371.3851 209.8671,371.317 210.3307,371.2942 210.7943,371.317 211.2535,371.3851 211.7037,371.4979 212.1408,371.6543 212.5604,371.8527 212.9585,372.0914 213.3314,372.3679 213.6753,372.6796 213.987,373.0235 214.2635,373.3964 214.5022,373.7945 214.7006,374.2141 214.857,374.6512 214.9698,375.1014 215.0379,375.5606 215.0607,376.0242 215.0379,376.4878 214.9698,376.947 214.857,377.3972 214.7006,377.8343 214.5022,378.2539 214.2635,378.652 213.987,379.0249 213.6753,379.3688 213.3314,379.6805 212.9585,379.957 212.5604,380.1957 212.1408,380.3941 211.7037,380.5505 211.2535,380.6633 210.7943,380.7314 210.3307,380.7542 209.8671,380.7314 209.4079,380.6633 208.9577,380.5505 208.5206,380.3941 208.101,380.1957 207.7029,379.957 207.33,379.6805 206.9861,379.3688 206.6744,379.0249 206.3979,378.652 206.1592,378.2539 205.9608,377.8343 205.8044,377.3972 205.6916,376.947"/>
    <polygon points="203.5184,383.9436 203.6312,383.4933 203.6993,383.0342 203.7221,382.5705 203.6993,382.1069 203.6312,381.6478 203.5184,381.1975 203.3621,380.7605 203.1636,380.3408 202.925,379.9427 202.6484,379.5699 202.3367,379.2259 201.9928,378.9142 201.62,378.6377 201.2218,378.3991 200.8022,378.2006 200.3652,378.0442 199.9149,377.9314 199.4557,377.8633 198.9921,377.8406 198.5285,377.8633 198.0694,377.9314 197.6191,378.0442 197.182,378.2006 196.7624,378.3991 196.3643,378.6377 195.9915,378.9142 195.6475,379.2259 195.3358,379.5699 195.0593,379.9427 194.8207,380.3408 194.6222,380.7605 194.4658,381.1975 194.353,381.6478 194.2849,382.1069 194.2622,382.5705 194.2849,383.0342 194.353,383.4933 194.4658,383.9436 194.6222,384.3806 194.8207,384.8002 195.0593,385.1984 195.3358,385.5712 195.6475,385.9151 195.9915,386.2269 196.3643,386.5034 196.7624,386.742 197.182,386.9405 197.6191,387.0968 198.0694,387.2096 198.5285,387.2777 198.9921,387.3005 199.4557,387.2777 199.9149,387.2096 200.3652,387.0968 200.8022,386.9405 201.2218,386.742 201.62,386.5034 201.9928,386.2269 202.3367,385.9151 202.6484,385.5712 202.925,385.1984 203.1636,384.8002 203.3621,384.3806"/>
    <polygon points="205.8044,390.4899 205.9608,390.927 206.1592,391.3466 206.3979,391.7447 206.6744,392.1175 206.9861,392.4615 207.33,392.7732 207.7029,393.0497 208.101,393.2883 208.5206,393.4868 208.9577,393.6432 209.4079,393.756 209.8671,393.8241 210.3307,393.8468 210.7943,393.8241 211.2535,393.756 211.7037,393.6432 212.1408,393.4868 212.5604,393.2883 212.9585,393.0497 213.3314,392.7732 213.6753,392.4615 213.987,392.1175 214.2635,391.7447 214.5022,391.3466 214.7006,390.927 214.857,390.4899 214.9698,390.0396 215.0379,389.5805 215.0607,389.1169 215.0379,388.6533 214.9698,388.1941 214.857,387.7438 214.7006,387.3068 214.5022,386.8872 214.2635,386.489 213.987,386.1162 213.6753,385.7723 213.3314,385.4606 212.9585,385.184 212.5604,384.9454 212.1408,384.7469 211.7037,384.5906 211.2535,384.4778 210.7943,384.4097 210.3307,384.3869 209.8671,384.4097 209.4079,384.4778 208.9577,384.5906 208.5206,384.7469 208.101,384.9454 207.7029,385.184 207.33,385.4606 206.9861,385.7723 206.6744,386.1162 206.3979,386.489 206.1592,386.8872 205.9608,387.3068 205.8044,387.7438 205.6916,388.1941 205.6235,388.6533 205.6007,389.1169 205.6235,389.5805 205.6916,390.0396"/>
    <polygon points="225.3256,379.5699 225.0139,379.2259 224.67,378.9142 224.2971,378.6377 223.899,378.3991 223.4794,378.2006 223.0423,378.0442 222.5921,377.9314 222.1329,377.8633 221.6693,377.8406 221.2057,377.8633 220.7465,377.9314 220.2963,378.0442 219.8592,378.2006 219.4396,378.3991 219.0415,378.6377 218.6686,378.9142 218.3247,379.2259 218.013,379.5699 217.7365,379.9427 217.4978,380.3408 217.2994,380.7605 217.143,381.1975 217.0302,381.6478 216.9621,382.1069 216.9393,382.5705 216.9621,383.0342 217.0302,383.4933 217.143,383.9436 217.2994,384.3806 217.4978,384.8002 217.7365,385.1984 218.013,385.5712 218.3247,385.9151 218.6686,386.2269 219.0415,386.5034 219.4396,386.742 219.8592,386.9405 220.2963,387.0968 220.7465,387.2096 221.2057,387.2777 221.6693,387.3005 222.1329,387.2777 222.5921,387.2096 223.0423,387.0968 223.4794,386.9405 223.899,386.742 224.2971,386.5034 224.67,386.2269 225.0139,385.9151 225.3256,385.5712 225.6021,385.1984 225.8408,384.8002 226.0392,384.3806 226.1956,383.9436 226.3084,383.4933 226.3765,383.0342 226.3993,382.5705 226.3765,382.1069 226.3084,381.6478 226.1956,381.1975 226.0392,380.7605 225.8408,380.3408 225.6021,379.9427"/>
    <polygon points="237.647,388.1941 237.5342,387.7438 237.3778,387.3068 237.1793,386.8872 236.9407,386.489 236.6642,386.1162 236.3525,385.7723 236.0085,385.4606 235.6357,385.184 235.2376,384.9454 234.818,384.7469 234.3809,384.5906 233.9306,384.4778 233.4715,384.4097 233.0079,384.3869 232.5443,384.4097 232.0851,384.4778 231.6348,384.5906 231.1978,384.7469 230.7782,384.9454 230.38,385.184 230.0072,385.4606 229.6633,385.7723 229.3516,386.1162 229.075,386.489 228.8364,386.8872 228.6379,387.3068 228.4816,387.7438 228.3688,388.1941 228.3007,388.6533 228.2779,389.1169 228.3007,389.5805 228.3688,390.0396 228.4816,390.4899 228.6379,390.927 228.8364,391.3466 229.075,391.7447 229.3516,392.1175 229.6633,392.4615 230.0072,392.7732 230.38,393.0497 230.7782,393.2883 231.1978,393.4868 231.6348,393.6432 232.0851,393.756 232.5443,393.8241 233.0079,393.8468 233.4715,393.8241 233.9306,393.756 234.3809,393.6432 234.818,393.4868 235.2376,393.2883 235.6357,393.0497 236.0085,392.7732 236.3525,392.4615 236.6642,392.1175 236.9407,391.7447 237.1793,391.3466 237.3778,390.927 237.5342,390.4899 237.647,390.0396 237.7151,389.5805 237.7378,389.1169 237.7151,388.6533"/>
    <polygon points="237.5342,400.8365 237.3778,400.3995 237.1793,399.9798 236.9407,399.5817 236.6642,399.2089 236.3525,398.8649 236.0085,398.5532 235.6357,398.2767 235.2376,398.0381 234.818,397.8396 234.3809,397.6832 233.9306,397.5704 233.4715,397.5023 233.0079,397.4796 232.5443,397.5023 232.0851,397.5704 231.6348,397.6832 231.1978,397.8396 230.7782,398.0381 230.38,398.2767 230.0072,398.5532 229.6633,398.8649 229.3516,399.2089 229.075,399.5817 228.8364,399.9798 228.6379,400.3995 228.4816,400.8365 228.3688,401.2868 228.3007,401.7459 228.2779,402.2095 228.3007,402.6732 228.3688,403.1323 228.4816,403.5826 228.6379,404.0196 228.8364,404.4392 229.075,404.8374 229.3516,405.2102 229.6633,405.5541 230.0072,405.8659 230.38,406.1424 230.7782,406.381 231.1978,406.5795 231.6348,406.7358 232.0851,406.8486 232.5443,406.9167 233.0079,406.9395 233.4715,406.9167 233.9306,406.8486 234.3809,406.7358 234.818,406.5795 235.2376,406.381 235.6357,406.1424 236.0085,405.8659 236.3525,405.5541 236.6642,405.2102 236.9407,404.8374 237.1793,404.4392 237.3778,404.0196 237.5342,403.5826 237.647,403.1323 237.7151,402.6732 237.7378,402.2095 237.7151,401.7459 237.647,401.2868"/>
    <polygon points="260.3922,375.5606 260.3241,375.1014 260.2113,374.6512 260.055,374.2141 259.8565,373.7945 259.6179,373.3964 259.3414,373.0235 259.0296,372.6796 258.6857,372.3679 258.3129,372.0914 257.9147,371.8527 257.4951,371.6543 257.0581,371.4979 256.6078,371.3851 256.1487,371.317 255.685,371.2942 255.2214,371.317 254.7623,371.3851 254.312,371.4979 253.875,371.6543 253.4553,371.8527 253.0572,372.0914 252.6844,372.3679 252.3404,372.6796 252.0287,373.0235 251.7522,373.3964 251.5136,373.7945 251.3151,374.2141 251.1587,374.6512 251.046,375.1014 250.9778,375.5606 250.9551,376.0242 250.9778,376.4878 251.046,376.947 251.1587,377.3972 251.3151,377.8343 251.5136,378.2539 251.7522,378.652 252.0287,379.0249 252.3404,379.3688 252.6844,379.6805 253.0572,379.957 253.4553,380.1957 253.875,380.3941 254.312,380.5505 254.7623,380.6633 255.2214,380.7314 255.685,380.7542 256.1487,380.7314 256.6078,380.6633 257.0581,380.5505 257.4951,380.3941 257.9147,380.1957 258.3129,379.957 258.6857,379.6805 259.0296,379.3688 259.3414,379.0249 259.6179,378.652 259.8565,378.2539 260.055,377.8343 260.2113,377.3972 260.3241,376.947 260.3922,376.4878 260.415,376.0242"/>
    <polygon points="287.4711,386.742 287.8907,386.9405 288.3277,387.0968 288.778,387.2096 289.2372,387.2777 289.7008,387.3005 290.1644,387.2777 290.6236,387.2096 291.0738,387.0968 291.5109,386.9405 291.9305,386.742 292.3286,386.5034 292.7015,386.2269 293.0454,385.9151 293.3571,385.5712 293.6336,385.1984 293.8723,384.8002 294.0707,384.3806 294.2271,383.9436 294.3399,383.4933 294.408,383.0342 294.4308,382.5705 294.408,382.1069 294.3399,381.6478 294.2271,381.1975 294.0707,380.7605 293.8723,380.3408 293.6336,379.9427 293.3571,379.5699 293.0454,379.2259 292.7015,378.9142 292.3286,378.6377 291.9305,378.3991 291.5109,378.2006 291.0738,378.0442 290.6236,377.9314 290.1644,377.8633 289.7008,377.8406 289.2372,377.8633 288.778,377.9314 288.3277,378.0442 287.8907,378.2006 287.4711,378.3991 287.073,378.6377 286.7001,378.9142 286.3562,379.2259 286.0445,379.5699 285.768,379.9427 285.5293,380.3408 285.3309,380.7605 285.1745,381.1975 285.0617,381.6478 284.9936,382.1069 284.9708,382.5705 284.9936,383.0342 285.0617,383.4933 285.1745,383.9436 285.3309,384.3806 285.5293,384.8002 285.768,385.1984 286.0445,385.5712 286.3562,385.9151 286.7001,386.2269 287.073,386.5034"/>
    <polygon points="294.3399,368.5551 294.408,369.0142 294.4308,369.4779 294.408,369.9415 294.3399,370.4006 294.2271,370.8509 294.0707,371.288 293.8723,371.7076 293.6336,372.1057 293.3571,372.4785 293.0454,372.8225 292.7015,373.1342 292.3286,373.4107 291.9305,373.6493 291.5109,373.8478 291.0738,374.0042 290.6236,374.117 290.1644,374.1851 289.7008,374.2078 289.2372,374.1851 288.778,374.117 288.3277,374.0042 287.8907,373.8478 287.4711,373.6493 287.073,373.4107 286.7001,373.1342 286.3562,372.8225 286.0445,372.4785 285.768,372.1057 285.5293,371.7076 285.3309,371.288 285.1745,370.8509 285.0617,370.4006 284.9936,369.9415 284.9708,369.4779 284.9936,369.0142 285.0617,368.5551 285.1745,368.1048 285.3309,367.6678 285.5293,367.2482 285.768,366.85 286.0445,366.4772 286.3562,366.1333 286.7001,365.8215 287.073,365.545 287.4711,365.3064 287.8907,365.1079 288.3277,364.9516 288.778,364.8388 289.2372,364.7707 289.7008,364.7479 290.1644,364.7707 290.6236,364.8388 291.0738,364.9516 291.5109,365.1079 291.9305,365.3064 292.3286,365.545 292.7015,365.8215 293.0454,366.1333 293.3571,366.4772 293.6336,366.85 293.8723,367.2482 294.0707,367.6678 294.2271,368.1048"/>
    <polygon points="298.4115,372.0914 298.8097,371.8527 299.2293,371.6543 299.6663,371.4979 300.1166,371.3851 300.5758,371.317 301.0394,371.2942 301.503,371.317 301.9621,371.3851 302.4124,371.4979 302.8495,371.6543 303.2691,371.8527 303.6672,372.0914 304.04,372.3679 304.384,372.6796 304.6957,373.0235 304.9722,373.3964 305.2108,373.7945 305.4093,374.2141 305.5657,374.6512 305.6785,375.1014 305.7466,375.5606 305.7693,376.0242 305.7466,376.4878 305.6785,376.947 305.5657,377.3972 305.4093,377.8343 305.2108,378.2539 304.9722,378.652 304.6957,379.0249 304.384,379.3688 304.04,379.6805 303.6672,379.957 303.2691,380.1957 302.8495,380.3941 302.4124,380.5505 301.9621,380.6633 301.503,380.7314 301.0394,380.7542 300.5758,380.7314 300.1166,380.6633 299.6663,380.5505 299.2293,380.3941 298.8097,380.1957 298.4115,379.957 298.0387,379.6805 297.6948,379.3688 297.3831,379.0249 297.1065,378.652 296.8679,378.2539 296.6694,377.8343 296.5131,377.3972 296.4003,376.947 296.3322,376.4878 296.3094,376.0242 296.3322,375.5606 296.4003,375.1014 296.5131,374.6512 296.6694,374.2141 296.8679,373.7945 297.1065,373.3964 297.3831,373.0235 297.6948,372.6796 298.0387,372.3679"/>
    <polygon points="315.7225,379.2259 315.3786,378.9142 315.0058,378.6377 314.6076,378.3991 314.188,378.2006 313.751,378.0442 313.3007,377.9314 312.8416,377.8633 312.378,377.8406 311.9143,377.8633 311.4552,377.9314 311.0049,378.0442 310.5679,378.2006 310.1483,378.3991 309.7501,378.6377 309.3773,378.9142 309.0334,379.2259 308.7216,379.5699 308.4451,379.9427 308.2065,380.3408 308.008,380.7605 307.8517,381.1975 307.7389,381.6478 307.6708,382.1069 307.648,382.5705 307.6708,383.0342 307.7389,383.4933 307.8517,383.9436 308.008,384.3806 308.2065,384.8002 308.4451,385.1984 308.7216,385.5712 309.0334,385.9151 309.3773,386.2269 309.7501,386.5034 310.1483,386.742 310.5679,386.9405 311.0049,387.0968 311.4552,387.2096 311.9143,387.2777 312.378,387.3005 312.8416,387.2777 313.3007,387.2096 313.751,387.0968 314.188,386.9405 314.6076,386.742 315.0058,386.5034 315.3786,386.2269 315.7225,385.9151 316.0343,385.5712 316.3108,385.1984 316.5494,384.8002 316.7479,384.3806 316.9043,383.9436 317.017,383.4933 317.0851,383.0342 317.1079,382.5705 317.0851,382.1069 317.017,381.6478 316.9043,381.1975 316.7479,380.7605 316.5494,380.3408 316.3108,379.9427 316.0343,379.5699"/>
  </g>
</svg>
