<?xml version="1.0" encoding="utf-8" ?>
<svg xmlns="http://www.w3.org/2000/svg" xmlns:cc="http://creativecommons.org/ns" xmlns:dc="http://purl.org/dc/elements/1.1/" xmlns:ev="http://www.w3.org/2001/xml-events" xmlns:inkscape="http://www.inkscape.org/namespaces/inkscape" xmlns:rdf="http://www.w3.org/1999/02/22-rdf-syntax-ns" xmlns:sodipodi="http://sodipodi.sourceforge.net/DTD/sodipodi-0.dtd" xmlns:xlink="http://www.w3.org/1999/xlink" baseProfile="tiny" height="15.875cm" version="1.2" viewBox="0 0 432.0 600.0" width="11.43cm">
  <metadata>
    <rdf:RDF>
      <cc:Work>
        <dc:format>image/svg+xml</dc:format>
        <dc:source>vsk save -s 209 -c hex-grid/config/bubble-coasters-2.json /Users/tobin/src/fabian/plotting/fabian-plotting/hex-grid/sketch_hex_grid.py</dc:source>
        <dc:date>2023-11-11T11:30:23.399879</dc:date>
      </cc:Work>
    </rdf:RDF>
  </metadata>
  <defs/>
  <g fill="none" id="layer1" inkscape:groupmode="layer" inkscape:label="1" stroke="#000000" stroke-width="0.7559" style="display:inline">
    <polygon points="134.1447,267.5661 133.2558,266.9069 132.4359,266.1637 131.6927,265.3438 131.0335,264.455 130.4646,263.5058 129.9915,262.5054 129.6187,261.4635 129.3498,260.3901 129.1874,259.2955 129.1331,258.1902 129.1874,257.0849 129.3498,255.9903 129.6187,254.9169 129.9915,253.8749 130.4646,252.8746 131.0335,251.9254 131.6927,251.0366 132.4359,250.2166 133.2558,249.4735 134.1447,248.8143 135.0938,248.2454 136.0942,247.7722 137.1361,247.3994 138.2096,247.1306 139.3042,246.9682 140.4094,246.9139 141.5147,246.9682 142.6093,247.1306 143.6828,247.3994 144.7247,247.7722 145.7251,248.2454 146.6742,248.8143 147.5631,249.4735 148.383,250.2166 149.1262,251.0366 149.7854,251.9254 150.3543,252.8746 150.8274,253.8749 151.2002,254.9169 151.4691,255.9903 151.6315,257.0849 151.6858,258.1902 151.6315,259.2955 151.4691,260.3901 151.2002,261.4635 150.8274,262.5054 150.3543,263.5058 149.7854,264.455 149.1262,265.3438 148.383,266.1637 147.5631,266.9069 146.6742,267.5661 145.7251,268.135 144.7247,268.6081 143.6828,268.9809 142.6093,269.2498 141.5147,269.4122 140.4094,269.4665 139.3042,269.4122 138.2096,269.2498 137.1361,268.9809 136.0942,268.6081 135.0938,268.135"/>
    <polygon points="121.9467,274.6275 121.635,274.2835 121.3585,273.9107 121.1199,273.5126 120.9214,273.0929 120.765,272.6559 120.6523,272.2056 120.5841,271.7465 120.5614,271.2829 120.5841,270.8192 120.6523,270.3601 120.765,269.9098 120.9214,269.4728 121.1199,269.0532 121.3585,268.655 121.635,268.2822 121.9467,267.9383 122.2907,267.6265 122.6635,267.35 123.0616,267.1114 123.4813,266.9129 123.9183,266.7566 124.3686,266.6438 124.8277,266.5757 125.2913,266.5529 125.755,266.5757 126.2141,266.6438 126.6644,266.7566 127.1014,266.9129 127.521,267.1114 127.9192,267.35 128.292,267.6265 128.6359,267.9383 128.9477,268.2822 129.2242,268.655 129.4628,269.0532 129.6613,269.4728 129.8176,269.9098 129.9304,270.3601 129.9985,270.8192 130.0213,271.2829 129.9985,271.7465 129.9304,272.2056 129.8176,272.6559 129.6613,273.0929 129.4628,273.5126 129.2242,273.9107 128.9477,274.2835 128.6359,274.6275 128.292,274.9392 127.9192,275.2157 127.521,275.4543 127.1014,275.6528 126.6644,275.8092 126.2141,275.9219 125.755,275.9901 125.2913,276.0128 124.8277,275.9901 124.3686,275.9219 123.9183,275.8092 123.4813,275.6528 123.0616,275.4543 122.6635,275.2157 122.2907,274.9392"/>
    <polygon points="109.2456,264.2729 109.2228,264.7365 109.2456,265.2001 109.3137,265.6593 109.4265,266.1096 109.5828,266.5466 109.7813,266.9662 110.0199,267.3644 110.2964,267.7372 110.6082,268.0811 110.9521,268.3928 111.3249,268.6694 111.7231,268.908 112.1427,269.1065 112.5797,269.2628 113.03,269.3756 113.4891,269.4437 113.9528,269.4665 114.4164,269.4437 114.8755,269.3756 115.3258,269.2628 115.7628,269.1065 116.1824,268.908 116.5806,268.6694 116.9534,268.3928 117.2974,268.0811 117.6091,267.7372 117.8856,267.3644 118.1242,266.9662 118.3227,266.5466 118.4791,266.1096 118.5918,265.6593 118.66,265.2001 118.6827,264.7365 118.66,264.2729 118.5918,263.8138 118.4791,263.3635 118.3227,262.9264 118.1242,262.5068 117.8856,262.1087 117.6091,261.7359 117.2974,261.3919 116.9534,261.0802 116.5806,260.8037 116.1824,260.5651 115.7628,260.3666 115.3258,260.2102 114.8755,260.0974 114.4164,260.0293 113.9528,260.0066 113.4891,260.0293 113.03,260.0974 112.5797,260.2102 112.1427,260.3666 111.7231,260.5651 111.3249,260.8037 110.9521,261.0802 110.6082,261.3919 110.2964,261.7359 110.0199,262.1087 109.7813,262.5068 109.5828,262.9264 109.4265,263.3635 109.3137,263.8138"/>
    <polygon points="98.2442,269.4728 98.0879,269.9098 97.9751,270.3601 97.907,270.8192 97.8842,271.2829 97.907,271.7465 97.9751,272.2056 98.0879,272.6559 98.2442,273.0929 98.4427,273.5126 98.6813,273.9107 98.9579,274.2835 99.2696,274.6275 99.6135,274.9392 99.9863,275.2157 100.3845,275.4543 100.8041,275.6528 101.2411,275.8092 101.6914,275.9219 102.1506,275.9901 102.6142,276.0128 103.0778,275.9901 103.5369,275.9219 103.9872,275.8092 104.4243,275.6528 104.8439,275.4543 105.242,275.2157 105.6148,274.9392 105.9588,274.6275 106.2705,274.2835 106.547,273.9107 106.7856,273.5126 106.9841,273.0929 107.1405,272.6559 107.2533,272.2056 107.3214,271.7465 107.3441,271.2829 107.3214,270.8192 107.2533,270.3601 107.1405,269.9098 106.9841,269.4728 106.7856,269.0532 106.547,268.655 106.2705,268.2822 105.9588,267.9383 105.6148,267.6265 105.242,267.35 104.8439,267.1114 104.4243,266.9129 103.9872,266.7566 103.5369,266.6438 103.0778,266.5757 102.6142,266.5529 102.1506,266.5757 101.6914,266.6438 101.2411,266.7566 100.8041,266.9129 100.3845,267.1114 99.9863,267.35 99.6135,267.6265 99.2696,267.9383 98.9579,268.2822 98.6813,268.655 98.4427,269.0532"/>
    <polygon points="103.9872,253.6639 104.4243,253.8203 104.8439,254.0187 105.242,254.2574 105.6148,254.5339 105.9588,254.8456 106.2705,255.1895 106.547,255.5624 106.7856,255.9605 106.9841,256.3801 107.1405,256.8172 107.2533,257.2674 107.3214,257.7266 107.3441,258.1902 107.3214,258.6538 107.2533,259.113 107.1405,259.5632 106.9841,260.0003 106.7856,260.4199 106.547,260.818 106.2705,261.1909 105.9588,261.5348 105.6148,261.8465 105.242,262.123 104.8439,262.3617 104.4243,262.5601 103.9872,262.7165 103.5369,262.8293 103.0778,262.8974 102.6142,262.9202 102.1506,262.8974 101.6914,262.8293 101.2411,262.7165 100.8041,262.5601 100.3845,262.3617 99.9863,262.123 99.6135,261.8465 99.2696,261.5348 98.9579,261.1909 98.6813,260.818 98.4427,260.4199 98.2442,260.0003 98.0879,259.5632 97.9751,259.113 97.907,258.6538 97.8842,258.1902 97.907,257.7266 97.9751,257.2674 98.0879,256.8172 98.2442,256.3801 98.4427,255.9605 98.6813,255.5624 98.9579,255.1895 99.2696,254.8456 99.6135,254.5339 99.9863,254.2574 100.3845,254.0187 100.8041,253.8203 101.2411,253.6639 101.6914,253.5511 102.1506,253.483 102.6142,253.4602 103.0778,253.483 103.5369,253.5511"/>
    <polygon points="121.635,248.0982 121.3585,247.7254 121.1199,247.3272 120.9214,246.9076 120.765,246.4706 120.6523,246.0203 120.5841,245.5611 120.5614,245.0975 120.5841,244.6339 120.6523,244.1748 120.765,243.7245 120.9214,243.2874 121.1199,242.8678 121.3585,242.4697 121.635,242.0969 121.9467,241.7529 122.2907,241.4412 122.6635,241.1647 123.0616,240.9261 123.4813,240.7276 123.9183,240.5712 124.3686,240.4584 124.8277,240.3903 125.2913,240.3676 125.755,240.3903 126.2141,240.4584 126.6644,240.5712 127.1014,240.7276 127.521,240.9261 127.9192,241.1647 128.292,241.4412 128.6359,241.7529 128.9477,242.0969 129.2242,242.4697 129.4628,242.8678 129.6613,243.2874 129.8176,243.7245 129.9304,244.1748 129.9985,244.6339 130.0213,245.0975 129.9985,245.5611 129.9304,246.0203 129.8176,246.4706 129.6613,246.9076 129.4628,247.3272 129.2242,247.7254 128.9477,248.0982 128.6359,248.4421 128.292,248.7538 127.9192,249.0304 127.521,249.269 127.1014,249.4675 126.6644,249.6238 126.2141,249.7366 125.755,249.8047 125.2913,249.8275 124.8277,249.8047 124.3686,249.7366 123.9183,249.6238 123.4813,249.4675 123.0616,249.269 122.6635,249.0304 122.2907,248.7538 121.9467,248.4421"/>
    <polygon points="132.9736,241.5519 132.6971,241.179 132.4585,240.7809 132.26,240.3613 132.1036,239.9242 131.9908,239.474 131.9227,239.0148 131.8999,238.5512 131.9227,238.0876 131.9908,237.6284 132.1036,237.1782 132.26,236.7411 132.4585,236.3215 132.6971,235.9234 132.9736,235.5505 133.2853,235.2066 133.6293,234.8949 134.0021,234.6184 134.4002,234.3797 134.8198,234.1813 135.2569,234.0249 135.7071,233.9121 136.1663,233.844 136.6299,233.8212 137.0935,233.844 137.5527,233.9121 138.003,234.0249 138.44,234.1813 138.8596,234.3797 139.2578,234.6184 139.6306,234.8949 139.9745,235.2066 140.2862,235.5505 140.5627,235.9234 140.8014,236.3215 140.9998,236.7411 141.1562,237.1782 141.269,237.6284 141.3371,238.0876 141.3599,238.5512 141.3371,239.0148 141.269,239.474 141.1562,239.9242 140.9998,240.3613 140.8014,240.7809 140.5627,241.179 140.2862,241.5519 139.9745,241.8958 139.6306,242.2075 139.2578,242.484 138.8596,242.7227 138.44,242.9211 138.003,243.0775 137.5527,243.1903 137.0935,243.2584 136.6299,243.2812 136.1663,243.2584 135.7071,243.1903 135.2569,243.0775 134.8198,242.9211 134.4002,242.7227 134.0021,242.484 133.6293,242.2075 133.2853,241.8958"/>
    <polygon points="150.1982,227.8334 150.5963,228.072 150.9692,228.3485 151.3131,228.6603 151.6248,229.0042 151.9013,229.377 152.14,229.7752 152.3384,230.1948 152.4948,230.6318 152.6076,231.0821 152.6757,231.5412 152.6985,232.0049 152.6757,232.4685 152.6076,232.9276 152.4948,233.3779 152.3384,233.8149 152.14,234.2346 151.9013,234.6327 151.6248,235.0055 151.3131,235.3495 150.9692,235.6612 150.5963,235.9377 150.1982,236.1763 149.7786,236.3748 149.3415,236.5312 148.8913,236.6439 148.4321,236.7121 147.9685,236.7348 147.5049,236.7121 147.0457,236.6439 146.5955,236.5312 146.1584,236.3748 145.7388,236.1763 145.3407,235.9377 144.9678,235.6612 144.6239,235.3495 144.3122,235.0055 144.0357,234.6327 143.797,234.2346 143.5986,233.8149 143.4422,233.3779 143.3294,232.9276 143.2613,232.4685 143.2385,232.0049 143.2613,231.5412 143.3294,231.0821 143.4422,230.6318 143.5986,230.1948 143.797,229.7752 144.0357,229.377 144.3122,229.0042 144.6239,228.6603 144.9678,228.3485 145.3407,228.072 145.7388,227.8334 146.1584,227.6349 146.5955,227.4786 147.0457,227.3658 147.5049,227.2977 147.9685,227.2749 148.4321,227.2977 148.8913,227.3658 149.3415,227.4786 149.7786,227.6349"/>
    <polygon points="161.9813,233.8755 163.0866,233.8212 164.1919,233.8755 165.2865,234.0379 166.36,234.3068 167.4019,234.6796 168.4022,235.1527 169.3514,235.7216 170.2402,236.3808 171.0602,237.124 171.8033,237.9439 172.4625,238.8327 173.0314,239.7819 173.5046,240.7823 173.8774,241.8242 174.1462,242.8976 174.3086,243.9923 174.3629,245.0975 174.3086,246.2028 174.1462,247.2974 173.8774,248.3709 173.5046,249.4128 173.0314,250.4131 172.4625,251.3623 171.8033,252.2511 171.0602,253.0711 170.2402,253.8142 169.3514,254.4734 168.4022,255.0423 167.4019,255.5155 166.36,255.8883 165.2865,256.1572 164.1919,256.3195 163.0866,256.3738 161.9813,256.3195 160.8867,256.1572 159.8133,255.8883 158.7714,255.5155 157.771,255.0423 156.8218,254.4734 155.933,253.8142 155.1131,253.0711 154.3699,252.2511 153.7107,251.3623 153.1418,250.4131 152.6687,249.4128 152.2959,248.3709 152.027,247.2974 151.8646,246.2028 151.8103,245.0975 151.8646,243.9923 152.027,242.8976 152.2959,241.8242 152.6687,240.7823 153.1418,239.7819 153.7107,238.8327 154.3699,237.9439 155.1131,237.124 155.933,236.3808 156.8218,235.7216 157.771,235.1527 158.7714,234.6796 159.8133,234.3068 160.8867,234.0379"/>
    <polygon points="173.8774,215.6389 174.1462,216.7123 174.3086,217.8069 174.3629,218.9122 174.3086,220.0175 174.1462,221.1121 173.8774,222.1855 173.5046,223.2274 173.0314,224.2278 172.4625,225.177 171.8033,226.0658 171.0602,226.8857 170.2402,227.6289 169.3514,228.2881 168.4022,228.857 167.4019,229.3301 166.36,229.7029 165.2865,229.9718 164.1919,230.1342 163.0866,230.1885 161.9813,230.1342 160.8867,229.9718 159.8133,229.7029 158.7714,229.3301 157.771,228.857 156.8218,228.2881 155.933,227.6289 155.1131,226.8857 154.3699,226.0658 153.7107,225.177 153.1418,224.2278 152.6687,223.2274 152.2959,222.1855 152.027,221.1121 151.8646,220.0175 151.8103,218.9122 151.8646,217.8069 152.027,216.7123 152.2959,215.6389 152.6687,214.5969 153.1418,213.5966 153.7107,212.6474 154.3699,211.7586 155.1131,210.9386 155.933,210.1955 156.8218,209.5363 157.771,208.9674 158.7714,208.4942 159.8133,208.1214 160.8867,207.8526 161.9813,207.6902 163.0866,207.6359 164.1919,207.6902 165.2865,207.8526 166.36,208.1214 167.4019,208.4942 168.4022,208.9674 169.3514,209.5363 170.2402,210.1955 171.0602,210.9386 171.8033,211.7586 172.4625,212.6474 173.0314,213.5966 173.5046,214.5969"/>
    <polygon points="258.3537,235.6612 258.0097,235.3495 257.698,235.0055 257.4215,234.6327 257.1829,234.2346 256.9844,233.8149 256.828,233.3779 256.7152,232.9276 256.6471,232.4685 256.6244,232.0049 256.6471,231.5412 256.7152,231.0821 256.828,230.6318 256.9844,230.1948 257.1829,229.7752 257.4215,229.377 257.698,229.0042 258.0097,228.6603 258.3537,228.3485 258.7265,228.072 259.1246,227.8334 259.5442,227.6349 259.9813,227.4786 260.4316,227.3658 260.8907,227.2977 261.3543,227.2749 261.8179,227.2977 262.2771,227.3658 262.7274,227.4786 263.1644,227.6349 263.584,227.8334 263.9822,228.072 264.355,228.3485 264.6989,228.6603 265.0106,229.0042 265.2872,229.377 265.5258,229.7752 265.7243,230.1948 265.8806,230.6318 265.9934,231.0821 266.0615,231.5412 266.0843,232.0049 266.0615,232.4685 265.9934,232.9276 265.8806,233.3779 265.7243,233.8149 265.5258,234.2346 265.2872,234.6327 265.0106,235.0055 264.6989,235.3495 264.355,235.6612 263.9822,235.9377 263.584,236.1763 263.1644,236.3748 262.7274,236.5312 262.2771,236.6439 261.8179,236.7121 261.3543,236.7348 260.8907,236.7121 260.4316,236.6439 259.9813,236.5312 259.5442,236.3748 259.1246,236.1763 258.7265,235.9377"/>
    <polygon points="268.7601,235.9234 269.0366,235.5505 269.3483,235.2066 269.6923,234.8949 270.0651,234.6184 270.4632,234.3797 270.8828,234.1813 271.3199,234.0249 271.7701,233.9121 272.2293,233.844 272.6929,233.8212 273.1565,233.844 273.6157,233.9121 274.066,234.0249 274.503,234.1813 274.9226,234.3797 275.3207,234.6184 275.6936,234.8949 276.0375,235.2066 276.3492,235.5505 276.6257,235.9234 276.8644,236.3215 277.0628,236.7411 277.2192,237.1782 277.332,237.6284 277.4001,238.0876 277.4229,238.5512 277.4001,239.0148 277.332,239.474 277.2192,239.9242 277.0628,240.3613 276.8644,240.7809 276.6257,241.179 276.3492,241.5519 276.0375,241.8958 275.6936,242.2075 275.3207,242.484 274.9226,242.7227 274.503,242.9211 274.066,243.0775 273.6157,243.1903 273.1565,243.2584 272.6929,243.2812 272.2293,243.2584 271.7701,243.1903 271.3199,243.0775 270.8828,242.9211 270.4632,242.7227 270.0651,242.484 269.6923,242.2075 269.3483,241.8958 269.0366,241.5519 268.7601,241.179 268.5214,240.7809 268.323,240.3613 268.1666,239.9242 268.0538,239.474 267.9857,239.0148 267.9629,238.5512 267.9857,238.0876 268.0538,237.6284 268.1666,237.1782 268.323,236.7411 268.5214,236.3215"/>
    <polygon points="293.1404,247.4724 292.7422,247.711 292.3694,247.9875 292.0255,248.2993 291.7138,248.6432 291.4373,249.016 291.1986,249.4142 291.0002,249.8338 290.8438,250.2708 290.731,250.7211 290.6629,251.1802 290.6401,251.6439 290.6629,252.1075 290.731,252.5666 290.8438,253.0169 291.0002,253.4539 291.1986,253.8736 291.4373,254.2717 291.7138,254.6445 292.0255,254.9885 292.3694,255.3002 292.7422,255.5767 293.1404,255.8153 293.56,256.0138 293.997,256.1702 294.4473,256.2829 294.9065,256.3511 295.3701,256.3738 295.8337,256.3511 296.2929,256.2829 296.7431,256.1702 297.1802,256.0138 297.5998,255.8153 297.9979,255.5767 298.3707,255.3002 298.7147,254.9885 299.0264,254.6445 299.3029,254.2717 299.5415,253.8736 299.74,253.4539 299.8964,253.0169 300.0092,252.5666 300.0773,252.1075 300.1001,251.6439 300.0773,251.1802 300.0092,250.7211 299.8964,250.2708 299.74,249.8338 299.5415,249.4142 299.3029,249.016 299.0264,248.6432 298.7147,248.2993 298.3707,247.9875 297.9979,247.711 297.5998,247.4724 297.1802,247.2739 296.7431,247.1176 296.2929,247.0048 295.8337,246.9367 295.3701,246.9139 294.9065,246.9367 294.4473,247.0048 293.997,247.1176 293.56,247.2739"/>
    <polygon points="302.1824,246.4706 302.3387,246.9076 302.5372,247.3272 302.7758,247.7254 303.0523,248.0982 303.3641,248.4421 303.708,248.7538 304.0808,249.0304 304.479,249.269 304.8986,249.4675 305.3356,249.6238 305.7859,249.7366 306.245,249.8047 306.7087,249.8275 307.1723,249.8047 307.6314,249.7366 308.0817,249.6238 308.5187,249.4675 308.9384,249.269 309.3365,249.0304 309.7093,248.7538 310.0533,248.4421 310.365,248.0982 310.6415,247.7254 310.8801,247.3272 311.0786,246.9076 311.235,246.4706 311.3477,246.0203 311.4159,245.5611 311.4386,245.0975 311.4159,244.6339 311.3477,244.1748 311.235,243.7245 311.0786,243.2874 310.8801,242.8678 310.6415,242.4697 310.365,242.0969 310.0533,241.7529 309.7093,241.4412 309.3365,241.1647 308.9384,240.9261 308.5187,240.7276 308.0817,240.5712 307.6314,240.4584 307.1723,240.3903 306.7087,240.3676 306.245,240.3903 305.7859,240.4584 305.3356,240.5712 304.8986,240.7276 304.479,240.9261 304.0808,241.1647 303.708,241.4412 303.3641,241.7529 303.0523,242.0969 302.7758,242.4697 302.5372,242.8678 302.3387,243.2874 302.1824,243.7245 302.0696,244.1748 302.0015,244.6339 301.9787,245.0975 302.0015,245.5611 302.0696,246.0203"/>
    <polygon points="333.3187,255.5624 333.5573,255.9605 333.7558,256.3801 333.9121,256.8172 334.0249,257.2674 334.093,257.7266 334.1158,258.1902 334.093,258.6538 334.0249,259.113 333.9121,259.5632 333.7558,260.0003 333.5573,260.4199 333.3187,260.818 333.0421,261.1909 332.7304,261.5348 332.3865,261.8465 332.0137,262.123 331.6155,262.3617 331.1959,262.5601 330.7589,262.7165 330.3086,262.8293 329.8494,262.8974 329.3858,262.9202 328.9222,262.8974 328.4631,262.8293 328.0128,262.7165 327.5757,262.5601 327.1561,262.3617 326.758,262.123 326.3852,261.8465 326.0412,261.5348 325.7295,261.1909 325.453,260.818 325.2144,260.4199 325.0159,260.0003 324.8595,259.5632 324.7467,259.113 324.6786,258.6538 324.6559,258.1902 324.6786,257.7266 324.7467,257.2674 324.8595,256.8172 325.0159,256.3801 325.2144,255.9605 325.453,255.5624 325.7295,255.1895 326.0412,254.8456 326.3852,254.5339 326.758,254.2574 327.1561,254.0187 327.5757,253.8203 328.0128,253.6639 328.4631,253.5511 328.9222,253.483 329.3858,253.4602 329.8494,253.483 330.3086,253.5511 330.7589,253.6639 331.1959,253.8203 331.6155,254.0187 332.0137,254.2574 332.3865,254.5339 332.7304,254.8456 333.0421,255.1895"/>
    <polygon points="322.6863,265.6593 322.5735,266.1096 322.4172,266.5466 322.2187,266.9662 321.9801,267.3644 321.7036,267.7372 321.3918,268.0811 321.0479,268.3928 320.6751,268.6694 320.2769,268.908 319.8573,269.1065 319.4203,269.2628 318.97,269.3756 318.5109,269.4437 318.0472,269.4665 317.5836,269.4437 317.1245,269.3756 316.6742,269.2628 316.2372,269.1065 315.8176,268.908 315.4194,268.6694 315.0466,268.3928 314.7026,268.0811 314.3909,267.7372 314.1144,267.3644 313.8758,266.9662 313.6773,266.5466 313.5209,266.1096 313.4082,265.6593 313.34,265.2001 313.3173,264.7365 313.34,264.2729 313.4082,263.8138 313.5209,263.3635 313.6773,262.9264 313.8758,262.5068 314.1144,262.1087 314.3909,261.7359 314.7026,261.3919 315.0466,261.0802 315.4194,260.8037 315.8176,260.5651 316.2372,260.3666 316.6742,260.2102 317.1245,260.0974 317.5836,260.0293 318.0472,260.0066 318.5109,260.0293 318.97,260.0974 319.4203,260.2102 319.8573,260.3666 320.2769,260.5651 320.6751,260.8037 321.0479,261.0802 321.3918,261.3919 321.7036,261.7359 321.9801,262.1087 322.2187,262.5068 322.4172,262.9264 322.5735,263.3635 322.6863,263.8138 322.7544,264.2729 322.7772,264.7365 322.7544,265.2001"/>
    <polygon points="290.4329,278.4365 291.1761,279.2564 291.996,279.9996 292.8848,280.6588 293.834,281.2277 294.8344,281.7008 295.8763,282.0736 296.9497,282.3425 298.0443,282.5049 299.1496,282.5592 300.2549,282.5049 301.3495,282.3425 302.4229,282.0736 303.4649,281.7008 304.4652,281.2277 305.4144,280.6588 306.3032,279.9996 307.1232,279.2564 307.8663,278.4365 308.5255,277.5476 309.0944,276.5985 309.5676,275.5981 309.9404,274.5562 310.2092,273.4828 310.3716,272.3881 310.4259,271.2829 310.3716,270.1776 310.2092,269.083 309.9404,268.0095 309.5676,266.9676 309.0944,265.9672 308.5255,265.0181 307.8663,264.1292 307.1232,263.3093 306.3032,262.5662 305.4144,261.907 304.4652,261.338 303.4649,260.8649 302.4229,260.4921 301.3495,260.2232 300.2549,260.0609 299.1496,260.0066 298.0443,260.0609 296.9497,260.2232 295.8763,260.4921 294.8344,260.8649 293.834,261.338 292.8848,261.907 291.996,262.5662 291.1761,263.3093 290.4329,264.1292 289.7737,265.0181 289.2048,265.9672 288.7317,266.9676 288.3589,268.0095 288.09,269.083 287.9276,270.1776 287.8733,271.2829 287.9276,272.3881 288.09,273.4828 288.3589,274.5562 288.7317,275.5981 289.2048,276.5985 289.7737,277.5476"/>
    <polygon points="294.9065,295.6291 295.3701,295.6518 295.8337,295.6291 296.2929,295.561 296.7431,295.4482 297.1802,295.2918 297.5998,295.0933 297.9979,294.8547 298.3707,294.5782 298.7147,294.2665 299.0264,293.9225 299.3029,293.5497 299.5415,293.1516 299.74,292.7319 299.8964,292.2949 300.0092,291.8446 300.0773,291.3855 300.1001,290.9219 300.0773,290.4582 300.0092,289.9991 299.8964,289.5488 299.74,289.1118 299.5415,288.6922 299.3029,288.294 299.0264,287.9212 298.7147,287.5773 298.3707,287.2655 297.9979,286.989 297.5998,286.7504 297.1802,286.5519 296.7431,286.3956 296.2929,286.2828 295.8337,286.2147 295.3701,286.1919 294.9065,286.2147 294.4473,286.2828 293.997,286.3956 293.56,286.5519 293.1404,286.7504 292.7422,286.989 292.3694,287.2655 292.0255,287.5773 291.7138,287.9212 291.4373,288.294 291.1986,288.6922 291.0002,289.1118 290.8438,289.5488 290.731,289.9991 290.6629,290.4582 290.6401,290.9219 290.6629,291.3855 290.731,291.8446 290.8438,292.2949 291.0002,292.7319 291.1986,293.1516 291.4373,293.5497 291.7138,293.9225 292.0255,294.2665 292.3694,294.5782 292.7422,294.8547 293.1404,295.0933 293.56,295.2918 293.997,295.4482 294.4473,295.561"/>
    <polygon points="267.9857,304.4781 267.9629,304.0145 267.9857,303.5509 268.0538,303.0918 268.1666,302.6415 268.323,302.2044 268.5214,301.7848 268.7601,301.3867 269.0366,301.0139 269.3483,300.6699 269.6923,300.3582 270.0651,300.0817 270.4632,299.8431 270.8828,299.6446 271.3199,299.4882 271.7701,299.3754 272.2293,299.3073 272.6929,299.2846 273.1565,299.3073 273.6157,299.3754 274.066,299.4882 274.503,299.6446 274.9226,299.8431 275.3207,300.0817 275.6936,300.3582 276.0375,300.6699 276.3492,301.0139 276.6257,301.3867 276.8644,301.7848 277.0628,302.2044 277.2192,302.6415 277.332,303.0918 277.4001,303.5509 277.4229,304.0145 277.4001,304.4781 277.332,304.9373 277.2192,305.3876 277.0628,305.8246 276.8644,306.2442 276.6257,306.6424 276.3492,307.0152 276.0375,307.3591 275.6936,307.6708 275.3207,307.9474 274.9226,308.186 274.503,308.3845 274.066,308.5408 273.6157,308.6536 273.1565,308.7217 272.6929,308.7445 272.2293,308.7217 271.7701,308.6536 271.3199,308.5408 270.8828,308.3845 270.4632,308.186 270.0651,307.9474 269.6923,307.6708 269.3483,307.3591 269.0366,307.0152 268.7601,306.6424 268.5214,306.2442 268.323,305.8246 268.1666,305.3876 268.0538,304.9373"/>
    <polygon points="253.6721,314.1065 253.3603,313.7626 253.0164,313.4509 252.6436,313.1744 252.2454,312.9357 251.8258,312.7373 251.3888,312.5809 250.9385,312.4681 250.4794,312.4 250.0157,312.3772 249.5521,312.4 249.093,312.4681 248.6427,312.5809 248.2057,312.7373 247.7861,312.9357 247.3879,313.1744 247.0151,313.4509 246.6712,313.7626 246.3594,314.1065 246.0829,314.4794 245.8443,314.8775 245.6458,315.2971 245.4894,315.7342 245.3767,316.1844 245.3086,316.6436 245.2858,317.1072 245.3086,317.5708 245.3767,318.03 245.4894,318.4802 245.6458,318.9173 245.8443,319.3369 246.0829,319.735 246.3594,320.1079 246.6712,320.4518 247.0151,320.7635 247.3879,321.04 247.7861,321.2787 248.2057,321.4771 248.6427,321.6335 249.093,321.7463 249.5521,321.8144 250.0157,321.8372 250.4794,321.8144 250.9385,321.7463 251.3888,321.6335 251.8258,321.4771 252.2454,321.2787 252.6436,321.04 253.0164,320.7635 253.3603,320.4518 253.6721,320.1079 253.9486,319.735 254.1872,319.3369 254.3857,318.9173 254.542,318.4802 254.6548,318.03 254.7229,317.5708 254.7457,317.1072 254.7229,316.6436 254.6548,316.1844 254.542,315.7342 254.3857,315.2971 254.1872,314.8775 253.9486,314.4794"/>
    <polygon points="264.2132,293.1529 263.7401,292.1526 263.1712,291.2034 262.512,290.3146 261.7688,289.4946 260.9489,288.7515 260.0601,288.0923 259.1109,287.5234 258.1105,287.0502 257.0686,286.6774 255.9952,286.4086 254.9005,286.2462 253.7953,286.1919 252.69,286.2462 251.5954,286.4086 250.5219,286.6774 249.48,287.0502 248.4797,287.5234 247.5305,288.0923 246.6417,288.7515 245.8217,289.4946 245.0786,290.3146 244.4194,291.2034 243.8505,292.1526 243.3773,293.1529 243.0045,294.1949 242.7356,295.2683 242.5733,296.3629 242.519,297.4682 242.5733,298.5735 242.7356,299.6681 243.0045,300.7415 243.3773,301.7835 243.8505,302.7838 244.4194,303.733 245.0786,304.6218 245.8217,305.4417 246.6417,306.1849 247.5305,306.8441 248.4797,307.413 249.48,307.8861 250.5219,308.2589 251.5954,308.5278 252.69,308.6902 253.7953,308.7445 254.9005,308.6902 255.9952,308.5278 257.0686,308.2589 258.1105,307.8861 259.1109,307.413 260.0601,306.8441 260.9489,306.1849 261.7688,305.4417 262.512,304.6218 263.1712,303.733 263.7401,302.7838 264.2132,301.7835 264.586,300.7415 264.8549,299.6681 265.0173,298.5735 265.0716,297.4682 265.0173,296.3629 264.8549,295.2683 264.586,294.1949"/>
    <polygon points="277.5777,273.1535 278.6723,273.3159 279.7458,273.5848 280.7877,273.9576 281.7881,274.4307 282.7372,274.9996 283.6261,275.6588 284.446,276.402 285.1891,277.2219 285.8483,278.1107 286.4173,279.0599 286.8904,280.0603 287.2632,281.1022 287.5321,282.1756 287.6944,283.2703 287.7487,284.3755 287.6944,285.4808 287.5321,286.5754 287.2632,287.6489 286.8904,288.6908 286.4173,289.6911 285.8483,290.6403 285.1891,291.5291 284.446,292.3491 283.6261,293.0922 282.7372,293.7514 281.7881,294.3203 280.7877,294.7935 279.7458,295.1663 278.6723,295.4352 277.5777,295.5975 276.4724,295.6518 275.3672,295.5975 274.2725,295.4352 273.1991,295.1663 272.1572,294.7935 271.1568,294.3203 270.2077,293.7514 269.3188,293.0922 268.4989,292.3491 267.7557,291.5291 267.0965,290.6403 266.5276,289.6911 266.0545,288.6908 265.6817,287.6489 265.4128,286.5754 265.2504,285.4808 265.1961,284.3755 265.2504,283.2703 265.4128,282.1756 265.6817,281.1022 266.0545,280.0603 266.5276,279.0599 267.0965,278.1107 267.7557,277.2219 268.4989,276.402 269.3188,275.6588 270.2077,274.9996 271.1568,274.4307 272.1572,273.9576 273.1991,273.5848 274.2725,273.3159 275.3672,273.1535 276.4724,273.0992"/>
    <polygon points="265.6817,261.4635 265.4128,260.3901 265.2504,259.2955 265.1961,258.1902 265.2504,257.0849 265.4128,255.9903 265.6817,254.9169 266.0545,253.8749 266.5276,252.8746 267.0965,251.9254 267.7557,251.0366 268.4989,250.2166 269.3188,249.4735 270.2077,248.8143 271.1568,248.2454 272.1572,247.7722 273.1991,247.3994 274.2725,247.1306 275.3672,246.9682 276.4724,246.9139 277.5777,246.9682 278.6723,247.1306 279.7458,247.3994 280.7877,247.7722 281.7881,248.2454 282.7372,248.8143 283.6261,249.4735 284.446,250.2166 285.1891,251.0366 285.8483,251.9254 286.4173,252.8746 286.8904,253.8749 287.2632,254.9169 287.5321,255.9903 287.6944,257.0849 287.7487,258.1902 287.6944,259.2955 287.5321,260.3901 287.2632,261.4635 286.8904,262.5054 286.4173,263.5058 285.8483,264.455 285.1891,265.3438 284.446,266.1637 283.6261,266.9069 282.7372,267.5661 281.7881,268.135 280.7877,268.6081 279.7458,268.9809 278.6723,269.2498 277.5777,269.4122 276.4724,269.4665 275.3672,269.4122 274.2725,269.2498 273.1991,268.9809 272.1572,268.6081 271.1568,268.135 270.2077,267.5661 269.3188,266.9069 268.4989,266.1637 267.7557,265.3438 267.0965,264.455 266.5276,263.5058 266.0545,262.5054"/>
    <polygon points="260.4316,249.7366 259.9813,249.6238 259.5442,249.4675 259.1246,249.269 258.7265,249.0304 258.3537,248.7538 258.0097,248.4421 257.698,248.0982 257.4215,247.7254 257.1829,247.3272 256.9844,246.9076 256.828,246.4706 256.7152,246.0203 256.6471,245.5611 256.6244,245.0975 256.6471,244.6339 256.7152,244.1748 256.828,243.7245 256.9844,243.2874 257.1829,242.8678 257.4215,242.4697 257.698,242.0969 258.0097,241.7529 258.3537,241.4412 258.7265,241.1647 259.1246,240.9261 259.5442,240.7276 259.9813,240.5712 260.4316,240.4584 260.8907,240.3903 261.3543,240.3676 261.8179,240.3903 262.2771,240.4584 262.7274,240.5712 263.1644,240.7276 263.584,240.9261 263.9822,241.1647 264.355,241.4412 264.6989,241.7529 265.0106,242.0969 265.2872,242.4697 265.5258,242.8678 265.7243,243.2874 265.8806,243.7245 265.9934,244.1748 266.0615,244.6339 266.0843,245.0975 266.0615,245.5611 265.9934,246.0203 265.8806,246.4706 265.7243,246.9076 265.5258,247.3272 265.2872,247.7254 265.0106,248.0982 264.6989,248.4421 264.355,248.7538 263.9822,249.0304 263.584,249.269 263.1644,249.4675 262.7274,249.6238 262.2771,249.7366 261.8179,249.8047 261.3543,249.8275 260.8907,249.8047"/>
    <polygon points="229.9664,268.6694 229.5683,268.908 229.1487,269.1065 228.7116,269.2628 228.2614,269.3756 227.8022,269.4437 227.3386,269.4665 226.875,269.4437 226.4158,269.3756 225.9655,269.2628 225.5285,269.1065 225.1089,268.908 224.7108,268.6694 224.3379,268.3928 223.994,268.0811 223.6823,267.7372 223.4058,267.3644 223.1671,266.9662 222.9687,266.5466 222.8123,266.1096 222.6995,265.6593 222.6314,265.2001 222.6086,264.7365 222.6314,264.2729 222.6995,263.8138 222.8123,263.3635 222.9687,262.9264 223.1671,262.5068 223.4058,262.1087 223.6823,261.7359 223.994,261.3919 224.3379,261.0802 224.7108,260.8037 225.1089,260.5651 225.5285,260.3666 225.9655,260.2102 226.4158,260.0974 226.875,260.0293 227.3386,260.0066 227.8022,260.0293 228.2614,260.0974 228.7116,260.2102 229.1487,260.3666 229.5683,260.5651 229.9664,260.8037 230.3392,261.0802 230.6832,261.3919 230.9949,261.7359 231.2714,262.1087 231.51,262.5068 231.7085,262.9264 231.8649,263.3635 231.9777,263.8138 232.0458,264.2729 232.0686,264.7365 232.0458,265.2001 231.9777,265.6593 231.8649,266.1096 231.7085,266.5466 231.51,266.9662 231.2714,267.3644 230.9949,267.7372 230.6832,268.0811 230.3392,268.3928"/>
    <polygon points="217.8169,277.5476 217.1576,278.4365 216.4145,279.2564 215.5946,279.9996 214.7057,280.6588 213.7566,281.2277 212.7562,281.7008 211.7143,282.0736 210.6408,282.3425 209.5462,282.5049 208.4409,282.5592 207.3357,282.5049 206.241,282.3425 205.1676,282.0736 204.1257,281.7008 203.1253,281.2277 202.1762,280.6588 201.2873,279.9996 200.4674,279.2564 199.7242,278.4365 199.065,277.5476 198.4961,276.5985 198.023,275.5981 197.6502,274.5562 197.3813,273.4828 197.2189,272.3881 197.1646,271.2829 197.2189,270.1776 197.3813,269.083 197.6502,268.0095 198.023,266.9676 198.4961,265.9672 199.065,265.0181 199.7242,264.1292 200.4674,263.3093 201.2873,262.5662 202.1762,261.907 203.1253,261.338 204.1257,260.8649 205.1676,260.4921 206.241,260.2232 207.3357,260.0609 208.4409,260.0066 209.5462,260.0609 210.6408,260.2232 211.7143,260.4921 212.7562,260.8649 213.7566,261.338 214.7057,261.907 215.5946,262.5662 216.4145,263.3093 217.1576,264.1292 217.8169,265.0181 218.3858,265.9672 218.8589,266.9676 219.2317,268.0095 219.5006,269.083 219.663,270.1776 219.7173,271.2829 219.663,272.3881 219.5006,273.4828 219.2317,274.5562 218.8589,275.5981 218.3858,276.5985"/>
    <polygon points="233.318,295.4352 232.2234,295.5975 231.1181,295.6518 230.0128,295.5975 228.9182,295.4352 227.8448,295.1663 226.8029,294.7935 225.8025,294.3203 224.8533,293.7514 223.9645,293.0922 223.1446,292.3491 222.4014,291.5291 221.7422,290.6403 221.1733,289.6911 220.7002,288.6908 220.3274,287.6489 220.0585,286.5754 219.8961,285.4808 219.8418,284.3755 219.8961,283.2703 220.0585,282.1756 220.3274,281.1022 220.7002,280.0603 221.1733,279.0599 221.7422,278.1107 222.4014,277.2219 223.1446,276.402 223.9645,275.6588 224.8533,274.9996 225.8025,274.4307 226.8029,273.9576 227.8448,273.5848 228.9182,273.3159 230.0128,273.1535 231.1181,273.0992 232.2234,273.1535 233.318,273.3159 234.3914,273.5848 235.4334,273.9576 236.4337,274.4307 237.3829,274.9996 238.2717,275.6588 239.0917,276.402 239.8348,277.2219 240.494,278.1107 241.0629,279.0599 241.5361,280.0603 241.9089,281.1022 242.1777,282.1756 242.3401,283.2703 242.3944,284.3755 242.3401,285.4808 242.1777,286.5754 241.9089,287.6489 241.5361,288.6908 241.0629,289.6911 240.494,290.6403 239.8348,291.5291 239.0917,292.3491 238.2717,293.0922 237.3829,293.7514 236.4337,294.3203 235.4334,294.7935 234.3914,295.1663"/>
    <polygon points="230.3392,307.6708 229.9664,307.9474 229.5683,308.186 229.1487,308.3845 228.7116,308.5408 228.2614,308.6536 227.8022,308.7217 227.3386,308.7445 226.875,308.7217 226.4158,308.6536 225.9655,308.5408 225.5285,308.3845 225.1089,308.186 224.7108,307.9474 224.3379,307.6708 223.994,307.3591 223.6823,307.0152 223.4058,306.6424 223.1671,306.2442 222.9687,305.8246 222.8123,305.3876 222.6995,304.9373 222.6314,304.4781 222.6086,304.0145 222.6314,303.5509 222.6995,303.0918 222.8123,302.6415 222.9687,302.2044 223.1671,301.7848 223.4058,301.3867 223.6823,301.0139 223.994,300.6699 224.3379,300.3582 224.7108,300.0817 225.1089,299.8431 225.5285,299.6446 225.9655,299.4882 226.4158,299.3754 226.875,299.3073 227.3386,299.2846 227.8022,299.3073 228.2614,299.3754 228.7116,299.4882 229.1487,299.6446 229.5683,299.8431 229.9664,300.0817 230.3392,300.3582 230.6832,300.6699 230.9949,301.0139 231.2714,301.3867 231.51,301.7848 231.7085,302.2044 231.8649,302.6415 231.9777,303.0918 232.0458,303.5509 232.0686,304.0145 232.0458,304.4781 231.9777,304.9373 231.8649,305.3876 231.7085,305.8246 231.51,306.2442 231.2714,306.6424 230.9949,307.0152 230.6832,307.3591"/>
    <polygon points="200.4674,305.4417 199.7242,304.6218 199.065,303.733 198.4961,302.7838 198.023,301.7835 197.6502,300.7415 197.3813,299.6681 197.2189,298.5735 197.1646,297.4682 197.2189,296.3629 197.3813,295.2683 197.6502,294.1949 198.023,293.1529 198.4961,292.1526 199.065,291.2034 199.7242,290.3146 200.4674,289.4946 201.2873,288.7515 202.1762,288.0923 203.1253,287.5234 204.1257,287.0502 205.1676,286.6774 206.241,286.4086 207.3357,286.2462 208.4409,286.1919 209.5462,286.2462 210.6408,286.4086 211.7143,286.6774 212.7562,287.0502 213.7566,287.5234 214.7057,288.0923 215.5946,288.7515 216.4145,289.4946 217.1576,290.3146 217.8169,291.2034 218.3858,292.1526 218.8589,293.1529 219.2317,294.1949 219.5006,295.2683 219.663,296.3629 219.7173,297.4682 219.663,298.5735 219.5006,299.6681 219.2317,300.7415 218.8589,301.7835 218.3858,302.7838 217.8169,303.733 217.1576,304.6218 216.4145,305.4417 215.5946,306.1849 214.7057,306.8441 213.7566,307.413 212.7562,307.8861 211.7143,308.2589 210.6408,308.5278 209.5462,308.6902 208.4409,308.7445 207.3357,308.6902 206.241,308.5278 205.1676,308.2589 204.1257,307.8861 203.1253,307.413 202.1762,306.8441 201.2873,306.1849"/>
    <polygon points="181.0615,325.5608 180.6112,325.6736 180.1742,325.8299 179.7546,326.0284 179.3564,326.267 178.9836,326.5435 178.6397,326.8553 178.3279,327.1992 178.0514,327.572 177.8128,327.9702 177.6143,328.3898 177.458,328.8268 177.3452,329.2771 177.2771,329.7362 177.2543,330.1999 177.2771,330.6635 177.3452,331.1226 177.458,331.5729 177.6143,332.0099 177.8128,332.4296 178.0514,332.8277 178.3279,333.2005 178.6397,333.5445 178.9836,333.8562 179.3564,334.1327 179.7546,334.3713 180.1742,334.5698 180.6112,334.7262 181.0615,334.839 181.5206,334.9071 181.9843,334.9298 182.4479,334.9071 182.907,334.839 183.3573,334.7262 183.7943,334.5698 184.2139,334.3713 184.6121,334.1327 184.9849,333.8562 185.3288,333.5445 185.6406,333.2005 185.9171,332.8277 186.1557,332.4296 186.3542,332.0099 186.5106,331.5729 186.6233,331.1226 186.6914,330.6635 186.7142,330.1999 186.6914,329.7362 186.6233,329.2771 186.5106,328.8268 186.3542,328.3898 186.1557,327.9702 185.9171,327.572 185.6406,327.1992 185.3288,326.8553 184.9849,326.5435 184.6121,326.267 184.2139,326.0284 183.7943,325.8299 183.3573,325.6736 182.907,325.5608 182.4479,325.4927 181.9843,325.4699 181.5206,325.4927"/>
    <polygon points="186.6914,342.8289 186.6233,342.3698 186.5106,341.9195 186.3542,341.4825 186.1557,341.0628 185.9171,340.6647 185.6406,340.2919 185.3288,339.9479 184.9849,339.6362 184.6121,339.3597 184.2139,339.1211 183.7943,338.9226 183.3573,338.7662 182.907,338.6534 182.4479,338.5853 181.9843,338.5626 181.5206,338.5853 181.0615,338.6534 180.6112,338.7662 180.1742,338.9226 179.7546,339.1211 179.3564,339.3597 178.9836,339.6362 178.6397,339.9479 178.3279,340.2919 178.0514,340.6647 177.8128,341.0628 177.6143,341.4825 177.458,341.9195 177.3452,342.3698 177.2771,342.8289 177.2543,343.2925 177.2771,343.7562 177.3452,344.2153 177.458,344.6656 177.6143,345.1026 177.8128,345.5222 178.0514,345.9204 178.3279,346.2932 178.6397,346.6371 178.9836,346.9489 179.3564,347.2254 179.7546,347.464 180.1742,347.6625 180.6112,347.8188 181.0615,347.9316 181.5206,347.9997 181.9843,348.0225 182.4479,347.9997 182.907,347.9316 183.3573,347.8188 183.7943,347.6625 184.2139,347.464 184.6121,347.2254 184.9849,346.9489 185.3288,346.6371 185.6406,346.2932 185.9171,345.9204 186.1557,345.5222 186.3542,345.1026 186.5106,344.6656 186.6233,344.2153 186.6914,343.7562 186.7142,343.2925"/>
    <polygon points="172.0187,345.3126 171.5684,345.1998 171.1093,345.1317 170.6457,345.1089 170.1821,345.1317 169.7229,345.1998 169.2726,345.3126 168.8356,345.4689 168.416,345.6674 168.0178,345.906 167.645,346.1825 167.3011,346.4943 166.9894,346.8382 166.7128,347.211 166.4742,347.6092 166.2757,348.0288 166.1194,348.4658 166.0066,348.9161 165.9385,349.3752 165.9157,349.8389 165.9385,350.3025 166.0066,350.7616 166.1194,351.2119 166.2757,351.6489 166.4742,352.0686 166.7128,352.4667 166.9894,352.8395 167.3011,353.1835 167.645,353.4952 168.0178,353.7717 168.416,354.0103 168.8356,354.2088 169.2726,354.3652 169.7229,354.478 170.1821,354.5461 170.6457,354.5688 171.1093,354.5461 171.5684,354.478 172.0187,354.3652 172.4558,354.2088 172.8754,354.0103 173.2735,353.7717 173.6463,353.4952 173.9903,353.1835 174.302,352.8395 174.5785,352.4667 174.8171,352.0686 175.0156,351.6489 175.172,351.2119 175.2848,350.7616 175.3529,350.3025 175.3756,349.8389 175.3529,349.3752 175.2848,348.9161 175.172,348.4658 175.0156,348.0288 174.8171,347.6092 174.5785,347.211 174.302,346.8382 173.9903,346.4943 173.6463,346.1825 173.2735,345.906 172.8754,345.6674 172.4558,345.4689"/>
    <polygon points="164.0143,342.8289 163.9462,342.3698 163.8334,341.9195 163.677,341.4825 163.4786,341.0628 163.2399,340.6647 162.9634,340.2919 162.6517,339.9479 162.3077,339.6362 161.9349,339.3597 161.5368,339.1211 161.1172,338.9226 160.6801,338.7662 160.2299,338.6534 159.7707,338.5853 159.3071,338.5626 158.8435,338.5853 158.3843,338.6534 157.934,338.7662 157.497,338.9226 157.0774,339.1211 156.6793,339.3597 156.3064,339.6362 155.9625,339.9479 155.6508,340.2919 155.3743,340.6647 155.1356,341.0628 154.9372,341.4825 154.7808,341.9195 154.668,342.3698 154.5999,342.8289 154.5771,343.2925 154.5999,343.7562 154.668,344.2153 154.7808,344.6656 154.9372,345.1026 155.1356,345.5222 155.3743,345.9204 155.6508,346.2932 155.9625,346.6371 156.3064,346.9489 156.6793,347.2254 157.0774,347.464 157.497,347.6625 157.934,347.8188 158.3843,347.9316 158.8435,347.9997 159.3071,348.0225 159.7707,347.9997 160.2299,347.9316 160.6801,347.8188 161.1172,347.6625 161.5368,347.464 161.9349,347.2254 162.3077,346.9489 162.6517,346.6371 162.9634,346.2932 163.2399,345.9204 163.4786,345.5222 163.677,345.1026 163.8334,344.6656 163.9462,344.2153 164.0143,343.7562 164.0371,343.2925"/>
    <polygon points="168.4022,313.7087 169.3514,314.2776 170.2402,314.9368 171.0602,315.68 171.8033,316.4999 172.4625,317.3888 173.0314,318.3379 173.5046,319.3383 173.8774,320.3802 174.1462,321.4536 174.3086,322.5483 174.3629,323.6535 174.3086,324.7588 174.1462,325.8534 173.8774,326.9269 173.5046,327.9688 173.0314,328.9691 172.4625,329.9183 171.8033,330.8071 171.0602,331.6271 170.2402,332.3702 169.3514,333.0294 168.4022,333.5983 167.4019,334.0715 166.36,334.4443 165.2865,334.7132 164.1919,334.8755 163.0866,334.9298 161.9813,334.8755 160.8867,334.7132 159.8133,334.4443 158.7714,334.0715 157.771,333.5983 156.8218,333.0294 155.933,332.3702 155.1131,331.6271 154.3699,330.8071 153.7107,329.9183 153.1418,328.9691 152.6687,327.9688 152.2959,326.9269 152.027,325.8534 151.8646,324.7588 151.8103,323.6535 151.8646,322.5483 152.027,321.4536 152.2959,320.3802 152.6687,319.3383 153.1418,318.3379 153.7107,317.3888 154.3699,316.4999 155.1131,315.68 155.933,314.9368 156.8218,314.2776 157.771,313.7087 158.7714,313.2356 159.8133,312.8628 160.8867,312.5939 161.9813,312.4315 163.0866,312.3772 164.1919,312.4315 165.2865,312.5939 166.36,312.8628 167.4019,313.2356"/>
    <polygon points="151.6858,310.5609 151.6315,311.6661 151.4691,312.7608 151.2002,313.8342 150.8274,314.8761 150.3543,315.8765 149.7854,316.8256 149.1262,317.7145 148.383,318.5344 147.5631,319.2776 146.6742,319.9368 145.7251,320.5057 144.7247,320.9788 143.6828,321.3516 142.6093,321.6205 141.5147,321.7829 140.4094,321.8372 139.3042,321.7829 138.2096,321.6205 137.1361,321.3516 136.0942,320.9788 135.0938,320.5057 134.1447,319.9368 133.2558,319.2776 132.4359,318.5344 131.6927,317.7145 131.0335,316.8256 130.4646,315.8765 129.9915,314.8761 129.6187,313.8342 129.3498,312.7608 129.1874,311.6661 129.1331,310.5609 129.1874,309.4556 129.3498,308.361 129.6187,307.2875 129.9915,306.2456 130.4646,305.2453 131.0335,304.2961 131.6927,303.4073 132.4359,302.5873 133.2558,301.8442 134.1447,301.185 135.0938,300.616 136.0942,300.1429 137.1361,299.7701 138.2096,299.5012 139.3042,299.3389 140.4094,299.2846 141.5147,299.3389 142.6093,299.5012 143.6828,299.7701 144.7247,300.1429 145.7251,300.616 146.6742,301.185 147.5631,301.8442 148.383,302.5873 149.1262,303.4073 149.7854,304.2961 150.3543,305.2453 150.8274,306.2456 151.2002,307.2875 151.4691,308.361 151.6315,309.4556"/>
    <polygon points="151.8082,299.835 150.3836,297.9142 149.1542,295.863 148.1317,293.7011 147.326,291.4495 146.7449,289.1297 146.394,286.7641 146.2767,284.3755 146.394,281.987 146.7449,279.6214 147.326,277.3016 148.1317,275.0499 149.1542,272.8881 150.3836,270.8369 151.8082,268.916 153.4142,267.1441 155.1862,265.5381 157.107,264.1135 159.1582,262.884 161.3201,261.8615 163.5717,261.0559 165.8915,260.4748 168.2571,260.1239 170.6457,260.0066 173.0342,260.1239 175.3998,260.4748 177.7196,261.0559 179.9713,261.8615 182.1331,262.884 184.1843,264.1135 186.1052,265.5381 187.8771,267.1441 189.4831,268.916 190.9077,270.8369 192.1372,272.8881 193.1597,275.0499 193.9653,277.3016 194.5464,279.6214 194.8973,281.987 195.0146,284.3755 194.8973,286.7641 194.5464,289.1297 193.9653,291.4495 193.1597,293.7011 192.1372,295.863 190.9077,297.9142 189.4831,299.835 187.8771,301.607 186.1052,303.213 184.1843,304.6376 182.1331,305.867 179.9713,306.8895 177.7196,307.6952 175.3998,308.2763 173.0342,308.6272 170.6457,308.7445 168.2571,308.6272 165.8915,308.2763 163.5717,307.6952 161.3201,306.8895 159.1582,305.867 157.107,304.6376 155.1862,303.213 153.4142,301.607"/>
    <polygon points="125.755,302.1754 126.2141,302.1073 126.6644,301.9945 127.1014,301.8381 127.521,301.6397 127.9192,301.401 128.292,301.1245 128.6359,300.8128 128.9477,300.4689 129.2242,300.096 129.4628,299.6979 129.6613,299.2783 129.8176,298.8412 129.9304,298.391 129.9985,297.9318 130.0213,297.4682 129.9985,297.0046 129.9304,296.5454 129.8176,296.0952 129.6613,295.6581 129.4628,295.2385 129.2242,294.8404 128.9477,294.4675 128.6359,294.1236 128.292,293.8119 127.9192,293.5354 127.521,293.2967 127.1014,293.0983 126.6644,292.9419 126.2141,292.8291 125.755,292.761 125.2913,292.7382 124.8277,292.761 124.3686,292.8291 123.9183,292.9419 123.4813,293.0983 123.0616,293.2967 122.6635,293.5354 122.2907,293.8119 121.9467,294.1236 121.635,294.4675 121.3585,294.8404 121.1199,295.2385 120.9214,295.6581 120.765,296.0952 120.6523,296.5454 120.5841,297.0046 120.5614,297.4682 120.5841,297.9318 120.6523,298.391 120.765,298.8412 120.9214,299.2783 121.1199,299.6979 121.3585,300.096 121.635,300.4689 121.9467,300.8128 122.2907,301.1245 122.6635,301.401 123.0616,301.6397 123.4813,301.8381 123.9183,301.9945 124.3686,302.1073 124.8277,302.1754 125.2913,302.1982"/>
  </g>
</svg>
