<?xml version="1.0" encoding="utf-8" ?>
<svg xmlns="http://www.w3.org/2000/svg" xmlns:cc="http://creativecommons.org/ns" xmlns:dc="http://purl.org/dc/elements/1.1/" xmlns:ev="http://www.w3.org/2001/xml-events" xmlns:inkscape="http://www.inkscape.org/namespaces/inkscape" xmlns:rdf="http://www.w3.org/1999/02/22-rdf-syntax-ns" xmlns:sodipodi="http://sodipodi.sourceforge.net/DTD/sodipodi-0.dtd" xmlns:xlink="http://www.w3.org/1999/xlink" baseProfile="tiny" height="15.875cm" version="1.2" viewBox="0 0 432.0 600.0" width="11.43cm">
  <metadata>
    <rdf:RDF>
      <cc:Work>
        <dc:format>image/svg+xml</dc:format>
        <dc:source>vsk save -s 277 -c hex-grid/config/bubble-coasters-2.json /Users/tobin/src/fabian/plotting/fabian-plotting/hex-grid/sketch_hex_grid.py</dc:source>
        <dc:date>2023-11-11T11:30:24.002757</dc:date>
      </cc:Work>
    </rdf:RDF>
  </metadata>
  <defs/>
  <g fill="none" id="layer1" inkscape:groupmode="layer" inkscape:label="1" stroke="#000000" stroke-width="0.7559" style="display:inline">
    <polygon points="285.5293,344.336 285.768,343.9379 286.0445,343.565 286.3562,343.2211 286.7001,342.9094 287.073,342.6329 287.4711,342.3942 287.8907,342.1958 288.3277,342.0394 288.778,341.9266 289.2372,341.8585 289.7008,341.8357 290.1644,341.8585 290.6236,341.9266 291.0738,342.0394 291.5109,342.1958 291.9305,342.3942 292.3286,342.6329 292.7015,342.9094 293.0454,343.2211 293.3571,343.565 293.6336,343.9379 293.8723,344.336 294.0707,344.7556 294.2271,345.1927 294.3399,345.6429 294.408,346.1021 294.4308,346.5657 294.408,347.0293 294.3399,347.4885 294.2271,347.9387 294.0707,348.3758 293.8723,348.7954 293.6336,349.1935 293.3571,349.5664 293.0454,349.9103 292.7015,350.222 292.3286,350.4985 291.9305,350.7372 291.5109,350.9356 291.0738,351.092 290.6236,351.2048 290.1644,351.2729 289.7008,351.2957 289.2372,351.2729 288.778,351.2048 288.3277,351.092 287.8907,350.9356 287.4711,350.7372 287.073,350.4985 286.7001,350.222 286.3562,349.9103 286.0445,349.5664 285.768,349.1935 285.5293,348.7954 285.3309,348.3758 285.1745,347.9387 285.0617,347.4885 284.9936,347.0293 284.9708,346.5657 284.9936,346.1021 285.0617,345.6429 285.1745,345.1927 285.3309,344.7556"/>
    <polygon points="279.285,331.5658 278.8258,331.6339 278.3622,331.6567 277.8986,331.6339 277.4394,331.5658 276.9892,331.453 276.5521,331.2966 276.1325,331.0982 275.7344,330.8595 275.3615,330.583 275.0176,330.2713 274.7059,329.9274 274.4294,329.5545 274.1907,329.1564 273.9923,328.7368 273.8359,328.2997 273.7231,327.8495 273.655,327.3903 273.6322,326.9267 273.655,326.4631 273.7231,326.0039 273.8359,325.5537 273.9923,325.1166 274.1907,324.697 274.4294,324.2989 274.7059,323.926 275.0176,323.5821 275.3615,323.2704 275.7344,322.9939 276.1325,322.7552 276.5521,322.5568 276.9892,322.4004 277.4394,322.2876 277.8986,322.2195 278.3622,322.1967 278.8258,322.2195 279.285,322.2876 279.7352,322.4004 280.1723,322.5568 280.5919,322.7552 280.99,322.9939 281.3629,323.2704 281.7068,323.5821 282.0185,323.926 282.295,324.2989 282.5337,324.697 282.7321,325.1166 282.8885,325.5537 283.0013,326.0039 283.0694,326.4631 283.0922,326.9267 283.0694,327.3903 283.0013,327.8495 282.8885,328.2997 282.7321,328.7368 282.5337,329.1564 282.295,329.5545 282.0185,329.9274 281.7068,330.2713 281.3629,330.583 280.99,330.8595 280.5919,331.0982 280.1723,331.2966 279.7352,331.453"/>
    <polygon points="273.655,339.5557 273.7231,339.0966 273.8359,338.6463 273.9923,338.2093 274.1907,337.7897 274.4294,337.3915 274.7059,337.0187 275.0176,336.6748 275.3615,336.363 275.7344,336.0865 276.1325,335.8479 276.5521,335.6494 276.9892,335.4931 277.4394,335.3803 277.8986,335.3122 278.3622,335.2894 278.8258,335.3122 279.285,335.3803 279.7352,335.4931 280.1723,335.6494 280.5919,335.8479 280.99,336.0865 281.3629,336.363 281.7068,336.6748 282.0185,337.0187 282.295,337.3915 282.5337,337.7897 282.7321,338.2093 282.8885,338.6463 283.0013,339.0966 283.0694,339.5557 283.0922,340.0194 283.0694,340.483 283.0013,340.9421 282.8885,341.3924 282.7321,341.8294 282.5337,342.2491 282.295,342.6472 282.0185,343.02 281.7068,343.364 281.3629,343.6757 280.99,343.9522 280.5919,344.1908 280.1723,344.3893 279.7352,344.5457 279.285,344.6585 278.8258,344.7266 278.3622,344.7493 277.8986,344.7266 277.4394,344.6585 276.9892,344.5457 276.5521,344.3893 276.1325,344.1908 275.7344,343.9522 275.3615,343.6757 275.0176,343.364 274.7059,343.02 274.4294,342.6472 274.1907,342.2491 273.9923,341.8294 273.8359,341.3924 273.7231,340.9421 273.655,340.483 273.6322,340.0194"/>
    <polygon points="248.4049,335.6729 248.6738,336.7464 249.0466,337.7883 249.5198,338.7886 250.0887,339.7378 250.7479,340.6266 251.491,341.4466 252.311,342.1897 253.1998,342.8489 254.149,343.4178 255.1493,343.891 256.1912,344.2638 257.2647,344.5327 258.3593,344.695 259.4646,344.7493 260.5698,344.695 261.6645,344.5327 262.7379,344.2638 263.7798,343.891 264.7802,343.4178 265.7293,342.8489 266.6182,342.1897 267.4381,341.4466 268.1813,340.6266 268.8405,339.7378 269.4094,338.7886 269.8825,337.7883 270.2553,336.7464 270.5242,335.6729 270.6866,334.5783 270.7409,333.473 270.6866,332.3678 270.5242,331.2731 270.2553,330.1997 269.8825,329.1578 269.4094,328.1574 268.8405,327.2083 268.1813,326.3194 267.4381,325.4995 266.6182,324.7563 265.7293,324.0971 264.7802,323.5282 263.7798,323.0551 262.7379,322.6823 261.6645,322.4134 260.5698,322.251 259.4646,322.1967 258.3593,322.251 257.2647,322.4134 256.1912,322.6823 255.1493,323.0551 254.149,323.5282 253.1998,324.0971 252.311,324.7563 251.491,325.4995 250.7479,326.3194 250.0887,327.2083 249.5198,328.1574 249.0466,329.1578 248.6738,330.1997 248.4049,331.2731 248.2426,332.3678 248.1883,333.473 248.2426,334.5783"/>
    <polygon points="260.055,354.9221 259.8565,355.3417 259.6179,355.7399 259.3414,356.1127 259.0296,356.4566 258.6857,356.7684 258.3129,357.0449 257.9147,357.2835 257.4951,357.482 257.0581,357.6383 256.6078,357.7511 256.1487,357.8192 255.685,357.842 255.2214,357.8192 254.7623,357.7511 254.312,357.6383 253.875,357.482 253.4553,357.2835 253.0572,357.0449 252.6844,356.7684 252.3404,356.4566 252.0287,356.1127 251.7522,355.7399 251.5136,355.3417 251.3151,354.9221 251.1587,354.4851 251.046,354.0348 250.9778,353.5757 250.9551,353.112 250.9778,352.6484 251.046,352.1893 251.1587,351.739 251.3151,351.302 251.5136,350.8823 251.7522,350.4842 252.0287,350.1114 252.3404,349.7674 252.6844,349.4557 253.0572,349.1792 253.4553,348.9406 253.875,348.7421 254.312,348.5857 254.7623,348.4729 255.2214,348.4048 255.685,348.3821 256.1487,348.4048 256.6078,348.4729 257.0581,348.5857 257.4951,348.7421 257.9147,348.9406 258.3129,349.1792 258.6857,349.4557 259.0296,349.7674 259.3414,350.1114 259.6179,350.4842 259.8565,350.8823 260.055,351.302 260.2113,351.739 260.3241,352.1893 260.3922,352.6484 260.415,353.112 260.3922,353.5757 260.3241,354.0348 260.2113,354.4851"/>
    <polygon points="257.9147,362.0332 258.3129,362.2719 258.6857,362.5484 259.0296,362.8601 259.3414,363.204 259.6179,363.5769 259.8565,363.975 260.055,364.3946 260.2113,364.8317 260.3241,365.2819 260.3922,365.7411 260.415,366.2047 260.3922,366.6683 260.3241,367.1275 260.2113,367.5777 260.055,368.0148 259.8565,368.4344 259.6179,368.8325 259.3414,369.2054 259.0296,369.5493 258.6857,369.861 258.3129,370.1375 257.9147,370.3762 257.4951,370.5746 257.0581,370.731 256.6078,370.8438 256.1487,370.9119 255.685,370.9347 255.2214,370.9119 254.7623,370.8438 254.312,370.731 253.875,370.5746 253.4553,370.3762 253.0572,370.1375 252.6844,369.861 252.3404,369.5493 252.0287,369.2054 251.7522,368.8325 251.5136,368.4344 251.3151,368.0148 251.1587,367.5777 251.046,367.1275 250.9778,366.6683 250.9551,366.2047 250.9778,365.7411 251.046,365.2819 251.1587,364.8317 251.3151,364.3946 251.5136,363.975 251.7522,363.5769 252.0287,363.204 252.3404,362.8601 252.6844,362.5484 253.0572,362.2719 253.4553,362.0332 253.875,361.8348 254.312,361.6784 254.7623,361.5656 255.2214,361.4975 255.685,361.4747 256.1487,361.4975 256.6078,361.5656 257.0581,361.6784 257.4951,361.8348"/>
    <polygon points="236.6642,363.204 236.9407,363.5769 237.1793,363.975 237.3778,364.3946 237.5342,364.8317 237.647,365.2819 237.7151,365.7411 237.7378,366.2047 237.7151,366.6683 237.647,367.1275 237.5342,367.5777 237.3778,368.0148 237.1793,368.4344 236.9407,368.8325 236.6642,369.2054 236.3525,369.5493 236.0085,369.861 235.6357,370.1375 235.2376,370.3762 234.818,370.5746 234.3809,370.731 233.9306,370.8438 233.4715,370.9119 233.0079,370.9347 232.5443,370.9119 232.0851,370.8438 231.6348,370.731 231.1978,370.5746 230.7782,370.3762 230.38,370.1375 230.0072,369.861 229.6633,369.5493 229.3516,369.2054 229.075,368.8325 228.8364,368.4344 228.6379,368.0148 228.4816,367.5777 228.3688,367.1275 228.3007,366.6683 228.2779,366.2047 228.3007,365.7411 228.3688,365.2819 228.4816,364.8317 228.6379,364.3946 228.8364,363.975 229.075,363.5769 229.3516,363.204 229.6633,362.8601 230.0072,362.5484 230.38,362.2719 230.7782,362.0332 231.1978,361.8348 231.6348,361.6784 232.0851,361.5656 232.5443,361.4975 233.0079,361.4747 233.4715,361.4975 233.9306,361.5656 234.3809,361.6784 234.818,361.8348 235.2376,362.0332 235.6357,362.2719 236.0085,362.5484 236.3525,362.8601"/>
    <polygon points="225.1699,357.4585 225.3322,358.5531 225.3865,359.6584 225.3322,360.7636 225.1699,361.8583 224.901,362.9317 224.5282,363.9736 224.0551,364.974 223.4861,365.9231 222.8269,366.812 222.0838,367.6319 221.2638,368.3751 220.375,369.0343 219.4259,369.6032 218.4255,370.0763 217.3836,370.4491 216.3101,370.718 215.2155,370.8804 214.1102,370.9347 213.005,370.8804 211.9103,370.718 210.8369,370.4491 209.795,370.0763 208.7946,369.6032 207.8455,369.0343 206.9566,368.3751 206.1367,367.6319 205.3935,366.812 204.7343,365.9231 204.1654,364.974 203.6923,363.9736 203.3195,362.9317 203.0506,361.8583 202.8882,360.7636 202.8339,359.6584 202.8882,358.5531 203.0506,357.4585 203.3195,356.385 203.6923,355.3431 204.1654,354.3428 204.7343,353.3936 205.3935,352.5048 206.1367,351.6848 206.9566,350.9417 207.8455,350.2825 208.7946,349.7136 209.795,349.2404 210.8369,348.8676 211.9103,348.5987 213.005,348.4364 214.1102,348.3821 215.2155,348.4364 216.3101,348.5987 217.3836,348.8676 218.4255,349.2404 219.4259,349.7136 220.375,350.2825 221.2638,350.9417 222.0838,351.6848 222.8269,352.5048 223.4861,353.3936 224.0551,354.3428 224.5282,355.3431 224.901,356.385"/>
    <polygon points="214.7006,381.1075 214.857,380.6704 214.9698,380.2201 215.0379,379.761 215.0607,379.2974 215.0379,378.8338 214.9698,378.3746 214.857,377.9243 214.7006,377.4873 214.5022,377.0677 214.2635,376.6695 213.987,376.2967 213.6753,375.9528 213.3314,375.6411 212.9585,375.3645 212.5604,375.1259 212.1408,374.9274 211.7037,374.7711 211.2535,374.6583 210.7943,374.5902 210.3307,374.5674 209.8671,374.5902 209.4079,374.6583 208.9577,374.7711 208.5206,374.9274 208.101,375.1259 207.7029,375.3645 207.33,375.6411 206.9861,375.9528 206.6744,376.2967 206.3979,376.6695 206.1592,377.0677 205.9608,377.4873 205.8044,377.9243 205.6916,378.3746 205.6235,378.8338 205.6007,379.2974 205.6235,379.761 205.6916,380.2201 205.8044,380.6704 205.9608,381.1075 206.1592,381.5271 206.3979,381.9252 206.6744,382.298 206.9861,382.642 207.33,382.9537 207.7029,383.2302 208.101,383.4688 208.5206,383.6673 208.9577,383.8237 209.4079,383.9365 209.8671,384.0046 210.3307,384.0273 210.7943,384.0046 211.2535,383.9365 211.7037,383.8237 212.1408,383.6673 212.5604,383.4688 212.9585,383.2302 213.3314,382.9537 213.6753,382.642 213.987,382.298 214.2635,381.9252 214.5022,381.5271"/>
    <polygon points="194.8207,374.9807 195.0593,375.3789 195.3358,375.7517 195.6475,376.0956 195.9915,376.4074 196.3643,376.6839 196.7624,376.9225 197.182,377.121 197.6191,377.2773 198.0694,377.3901 198.5285,377.4582 198.9921,377.481 199.4557,377.4582 199.9149,377.3901 200.3652,377.2773 200.8022,377.121 201.2218,376.9225 201.62,376.6839 201.9928,376.4074 202.3367,376.0956 202.6484,375.7517 202.925,375.3789 203.1636,374.9807 203.3621,374.5611 203.5184,374.1241 203.6312,373.6738 203.6993,373.2147 203.7221,372.751 203.6993,372.2874 203.6312,371.8283 203.5184,371.378 203.3621,370.941 203.1636,370.5213 202.925,370.1232 202.6484,369.7504 202.3367,369.4064 201.9928,369.0947 201.62,368.8182 201.2218,368.5796 200.8022,368.3811 200.3652,368.2247 199.9149,368.1119 199.4557,368.0438 198.9921,368.0211 198.5285,368.0438 198.0694,368.1119 197.6191,368.2247 197.182,368.3811 196.7624,368.5796 196.3643,368.8182 195.9915,369.0947 195.6475,369.4064 195.3358,369.7504 195.0593,370.1232 194.8207,370.5213 194.6222,370.941 194.4658,371.378 194.353,371.8283 194.2849,372.2874 194.2622,372.751 194.2849,373.2147 194.353,373.6738 194.4658,374.1241 194.6222,374.5611"/>
    <polygon points="197.7686,325.1345 197.4177,322.7689 197.3003,320.3804 197.4177,317.9918 197.7686,315.6262 198.3496,313.3064 199.1553,311.0548 200.1778,308.8929 201.4072,306.8417 202.8318,304.9209 204.4378,303.1489 206.2098,301.5429 208.1306,300.1183 210.1818,298.8888 212.3437,297.8664 214.5954,297.0607 216.9151,296.4796 219.2807,296.1287 221.6693,296.0114 224.0579,296.1287 226.4234,296.4796 228.7432,297.0607 230.9949,297.8664 233.1567,298.8888 235.208,300.1183 237.1288,301.5429 238.9008,303.1489 240.5068,304.9209 241.9314,306.8417 243.1608,308.8929 244.1833,311.0548 244.9889,313.3064 245.57,315.6262 245.9209,317.9918 246.0383,320.3804 245.9209,322.7689 245.57,325.1345 244.9889,327.4543 244.1833,329.706 243.1608,331.8678 241.9314,333.919 240.5068,335.8399 238.9008,337.6118 237.1288,339.2178 235.208,340.6424 233.1567,341.8719 230.9949,342.8944 228.7432,343.7 226.4234,344.2811 224.0579,344.632 221.6693,344.7493 219.2807,344.632 216.9151,344.2811 214.5954,343.7 212.3437,342.8944 210.1818,341.8719 208.1306,340.6424 206.2098,339.2178 204.4378,337.6118 202.8318,335.8399 201.4072,333.919 200.1778,331.8678 199.1553,329.706 198.3496,327.4543"/>
    <polygon points="181.0151,298.5103 180.6423,297.4684 180.3734,296.3949 180.2111,295.3003 180.1568,294.195 180.2111,293.0898 180.3734,291.9951 180.6423,290.9217 181.0151,289.8798 181.4883,288.8794 182.0572,287.9302 182.7164,287.0414 183.4595,286.2215 184.2795,285.4783 185.1683,284.8191 186.1175,284.2502 187.1178,283.7771 188.1597,283.4043 189.2332,283.1354 190.3278,282.973 191.4331,282.9187 192.5383,282.973 193.633,283.1354 194.7064,283.4043 195.7483,283.7771 196.7487,284.2502 197.6979,284.8191 198.5867,285.4783 199.4066,286.2215 200.1498,287.0414 200.809,287.9302 201.3779,288.8794 201.851,289.8798 202.2238,290.9217 202.4927,291.9951 202.6551,293.0898 202.7094,294.195 202.6551,295.3003 202.4927,296.3949 202.2238,297.4684 201.851,298.5103 201.3779,299.5106 200.809,300.4598 200.1498,301.3486 199.4066,302.1686 198.5867,302.9117 197.6979,303.5709 196.7487,304.1398 195.7483,304.613 194.7064,304.9858 193.633,305.2547 192.5383,305.417 191.4331,305.4713 190.3278,305.417 189.2332,305.2547 188.1597,304.9858 187.1178,304.613 186.1175,304.1398 185.1683,303.5709 184.2795,302.9117 183.4595,302.1686 182.7164,301.3486 182.0572,300.4598 181.4883,299.5106"/>
    <polygon points="169.8612,292.3244 168.7559,292.3787 167.6506,292.3244 166.556,292.162 165.4826,291.8931 164.4406,291.5203 163.4403,291.0472 162.4911,290.4783 161.6023,289.8191 160.7824,289.0759 160.0392,288.256 159.38,287.3671 158.8111,286.418 158.338,285.4176 157.9652,284.3757 157.6963,283.3023 157.5339,282.2076 157.4796,281.1024 157.5339,279.9971 157.6963,278.9025 157.9652,277.829 158.338,276.7871 158.8111,275.7867 159.38,274.8376 160.0392,273.9487 160.7824,273.1288 161.6023,272.3857 162.4911,271.7265 163.4403,271.1575 164.4406,270.6844 165.4826,270.3116 166.556,270.0427 167.6506,269.8804 168.7559,269.8261 169.8612,269.8804 170.9558,270.0427 172.0292,270.3116 173.0712,270.6844 174.0715,271.1575 175.0207,271.7265 175.9095,272.3857 176.7295,273.1288 177.4726,273.9487 178.1318,274.8376 178.7007,275.7867 179.1739,276.7871 179.5467,277.829 179.8155,278.9025 179.9779,279.9971 180.0322,281.1024 179.9779,282.2076 179.8155,283.3023 179.5467,284.3757 179.1739,285.4176 178.7007,286.418 178.1318,287.3671 177.4726,288.256 176.7295,289.0759 175.9095,289.8191 175.0207,290.4783 174.0715,291.0472 173.0712,291.5203 172.0292,291.8931 170.9558,292.162"/>
    <polygon points="151.4081,263.8382 151.01,264.0769 150.6371,264.3534 150.2932,264.6651 149.9815,265.009 149.705,265.3819 149.4663,265.78 149.2679,266.1996 149.1115,266.6367 148.9987,267.0869 148.9306,267.5461 148.9078,268.0097 148.9306,268.4733 148.9987,268.9325 149.1115,269.3827 149.2679,269.8198 149.4663,270.2394 149.705,270.6375 149.9815,271.0104 150.2932,271.3543 150.6371,271.666 151.01,271.9425 151.4081,272.1812 151.8277,272.3796 152.2648,272.536 152.715,272.6488 153.1742,272.7169 153.6378,272.7397 154.1014,272.7169 154.5606,272.6488 155.0108,272.536 155.4479,272.3796 155.8675,272.1812 156.2656,271.9425 156.6385,271.666 156.9824,271.3543 157.2941,271.0104 157.5706,270.6375 157.8093,270.2394 158.0077,269.8198 158.1641,269.3827 158.2769,268.9325 158.345,268.4733 158.3678,268.0097 158.345,267.5461 158.2769,267.0869 158.1641,266.6367 158.0077,266.1996 157.8093,265.78 157.5706,265.3819 157.2941,265.009 156.9824,264.6651 156.6385,264.3534 156.2656,264.0769 155.8675,263.8382 155.4479,263.6398 155.0108,263.4834 154.5606,263.3706 154.1014,263.3025 153.6378,263.2797 153.1742,263.3025 152.715,263.3706 152.2648,263.4834 151.8277,263.6398"/>
    <polygon points="145.6438,258.1188 145.2999,257.807 144.927,257.5305 144.5289,257.2919 144.1093,257.0934 143.6723,256.9371 143.222,256.8243 142.7628,256.7562 142.2992,256.7334 141.8356,256.7562 141.3764,256.8243 140.9262,256.9371 140.4891,257.0934 140.0695,257.2919 139.6714,257.5305 139.2985,257.807 138.9546,258.1188 138.6429,258.4627 138.3664,258.8355 138.1277,259.2337 137.9293,259.6533 137.7729,260.0903 137.6601,260.5406 137.592,260.9997 137.5692,261.4634 137.592,261.927 137.6601,262.3861 137.7729,262.8364 137.9293,263.2734 138.1277,263.6931 138.3664,264.0912 138.6429,264.464 138.9546,264.808 139.2985,265.1197 139.6714,265.3962 140.0695,265.6348 140.4891,265.8333 140.9262,265.9897 141.3764,266.1024 141.8356,266.1706 142.2992,266.1933 142.7628,266.1706 143.222,266.1024 143.6723,265.9897 144.1093,265.8333 144.5289,265.6348 144.927,265.3962 145.2999,265.1197 145.6438,264.808 145.9555,264.464 146.232,264.0912 146.4707,263.6931 146.6691,263.2734 146.8255,262.8364 146.9383,262.3861 147.0064,261.927 147.0292,261.4634 147.0064,260.9997 146.9383,260.5406 146.8255,260.0903 146.6691,259.6533 146.4707,259.2337 146.232,258.8355 145.9555,258.4627"/>
    <polygon points="138.6429,251.3714 138.3664,250.9985 138.1277,250.6004 137.9293,250.1808 137.7729,249.7437 137.6601,249.2935 137.592,248.8343 137.5692,248.3707 137.592,247.9071 137.6601,247.4479 137.7729,246.9977 137.9293,246.5606 138.1277,246.141 138.3664,245.7429 138.6429,245.37 138.9546,245.0261 139.2985,244.7144 139.6714,244.4379 140.0695,244.1992 140.4891,244.0008 140.9262,243.8444 141.3764,243.7316 141.8356,243.6635 142.2992,243.6407 142.7628,243.6635 143.222,243.7316 143.6723,243.8444 144.1093,244.0008 144.5289,244.1992 144.927,244.4379 145.2999,244.7144 145.6438,245.0261 145.9555,245.37 146.232,245.7429 146.4707,246.141 146.6691,246.5606 146.8255,246.9977 146.9383,247.4479 147.0064,247.9071 147.0292,248.3707 147.0064,248.8343 146.9383,249.2935 146.8255,249.7437 146.6691,250.1808 146.4707,250.6004 146.232,250.9985 145.9555,251.3714 145.6438,251.7153 145.2999,252.027 144.927,252.3035 144.5289,252.5422 144.1093,252.7406 143.6723,252.897 143.222,253.0098 142.7628,253.0779 142.2992,253.1007 141.8356,253.0779 141.3764,253.0098 140.9262,252.897 140.4891,252.7406 140.0695,252.5422 139.6714,252.3035 139.2985,252.027 138.9546,251.7153"/>
    <polygon points="151.4081,250.7456 151.8277,250.5471 152.2648,250.3907 152.715,250.2779 153.1742,250.2098 153.6378,250.1871 154.1014,250.2098 154.5606,250.2779 155.0108,250.3907 155.4479,250.5471 155.8675,250.7456 156.2656,250.9842 156.6385,251.2607 156.9824,251.5724 157.2941,251.9164 157.5706,252.2892 157.8093,252.6873 158.0077,253.1069 158.1641,253.544 158.2769,253.9943 158.345,254.4534 158.3678,254.917 158.345,255.3806 158.2769,255.8398 158.1641,256.2901 158.0077,256.7271 157.8093,257.1467 157.5706,257.5449 157.2941,257.9177 156.9824,258.2616 156.6385,258.5733 156.2656,258.8499 155.8675,259.0885 155.4479,259.287 155.0108,259.4433 154.5606,259.5561 154.1014,259.6242 153.6378,259.647 153.1742,259.6242 152.715,259.5561 152.2648,259.4433 151.8277,259.287 151.4081,259.0885 151.01,258.8499 150.6371,258.5733 150.2932,258.2616 149.9815,257.9177 149.705,257.5449 149.4663,257.1467 149.2679,256.7271 149.1115,256.2901 148.9987,255.8398 148.9306,255.3806 148.9078,254.917 148.9306,254.4534 148.9987,253.9943 149.1115,253.544 149.2679,253.1069 149.4663,252.6873 149.705,252.2892 149.9815,251.9164 150.2932,251.5724 150.6371,251.2607 151.01,250.9842"/>
    <polygon points="156.9824,245.169 156.6385,245.4807 156.2656,245.7572 155.8675,245.9958 155.4479,246.1943 155.0108,246.3507 154.5606,246.4634 154.1014,246.5316 153.6378,246.5543 153.1742,246.5316 152.715,246.4634 152.2648,246.3507 151.8277,246.1943 151.4081,245.9958 151.01,245.7572 150.6371,245.4807 150.2932,245.169 149.9815,244.825 149.705,244.4522 149.4663,244.0541 149.2679,243.6344 149.1115,243.1974 148.9987,242.7471 148.9306,242.288 148.9078,241.8244 148.9306,241.3607 148.9987,240.9016 149.1115,240.4513 149.2679,240.0143 149.4663,239.5947 149.705,239.1965 149.9815,238.8237 150.2932,238.4798 150.6371,238.168 151.01,237.8915 151.4081,237.6529 151.8277,237.4544 152.2648,237.2981 152.715,237.1853 153.1742,237.1172 153.6378,237.0944 154.1014,237.1172 154.5606,237.1853 155.0108,237.2981 155.4479,237.4544 155.8675,237.6529 156.2656,237.8915 156.6385,238.168 156.9824,238.4798 157.2941,238.8237 157.5706,239.1965 157.8093,239.5947 158.0077,240.0143 158.1641,240.4513 158.2769,240.9016 158.345,241.3607 158.3678,241.8244 158.345,242.288 158.2769,242.7471 158.1641,243.1974 158.0077,243.6344 157.8093,244.0541 157.5706,244.4522 157.2941,244.825"/>
    <polygon points="166.3494,252.897 166.7865,252.7406 167.2061,252.5422 167.6042,252.3035 167.977,252.027 168.321,251.7153 168.6327,251.3714 168.9092,250.9985 169.1478,250.6004 169.3463,250.1808 169.5027,249.7437 169.6155,249.2935 169.6836,248.8343 169.7064,248.3707 169.6836,247.9071 169.6155,247.4479 169.5027,246.9977 169.3463,246.5606 169.1478,246.141 168.9092,245.7429 168.6327,245.37 168.321,245.0261 167.977,244.7144 167.6042,244.4379 167.2061,244.1992 166.7865,244.0008 166.3494,243.8444 165.8991,243.7316 165.44,243.6635 164.9764,243.6407 164.5128,243.6635 164.0536,243.7316 163.6033,243.8444 163.1663,244.0008 162.7467,244.1992 162.3485,244.4379 161.9757,244.7144 161.6318,245.0261 161.3201,245.37 161.0435,245.7429 160.8049,246.141 160.6065,246.5606 160.4501,246.9977 160.3373,247.4479 160.2692,247.9071 160.2464,248.3707 160.2692,248.8343 160.3373,249.2935 160.4501,249.7437 160.6065,250.1808 160.8049,250.6004 161.0435,250.9985 161.3201,251.3714 161.6318,251.7153 161.9757,252.027 162.3485,252.3035 162.7467,252.5422 163.1663,252.7406 163.6033,252.897 164.0536,253.0098 164.5128,253.0779 164.9764,253.1007 165.44,253.0779 165.8991,253.0098"/>
    <polygon points="168.9092,258.8355 168.6327,258.4627 168.321,258.1188 167.977,257.807 167.6042,257.5305 167.2061,257.2919 166.7865,257.0934 166.3494,256.9371 165.8991,256.8243 165.44,256.7562 164.9764,256.7334 164.5128,256.7562 164.0536,256.8243 163.6033,256.9371 163.1663,257.0934 162.7467,257.2919 162.3485,257.5305 161.9757,257.807 161.6318,258.1188 161.3201,258.4627 161.0435,258.8355 160.8049,259.2337 160.6065,259.6533 160.4501,260.0903 160.3373,260.5406 160.2692,260.9997 160.2464,261.4634 160.2692,261.927 160.3373,262.3861 160.4501,262.8364 160.6065,263.2734 160.8049,263.6931 161.0435,264.0912 161.3201,264.464 161.6318,264.808 161.9757,265.1197 162.3485,265.3962 162.7467,265.6348 163.1663,265.8333 163.6033,265.9897 164.0536,266.1024 164.5128,266.1706 164.9764,266.1933 165.44,266.1706 165.8991,266.1024 166.3494,265.9897 166.7865,265.8333 167.2061,265.6348 167.6042,265.3962 167.977,265.1197 168.321,264.808 168.6327,264.464 168.9092,264.0912 169.1478,263.6931 169.3463,263.2734 169.5027,262.8364 169.6155,262.3861 169.6836,261.927 169.7064,261.4634 169.6836,260.9997 169.6155,260.5406 169.5027,260.0903 169.3463,259.6533 169.1478,259.2337"/>
    <polygon points="176.7786,250.2098 177.2377,250.2779 177.688,250.3907 178.125,250.5471 178.5447,250.7456 178.9428,250.9842 179.3156,251.2607 179.6596,251.5724 179.9713,251.9164 180.2478,252.2892 180.4864,252.6873 180.6849,253.1069 180.8413,253.544 180.954,253.9943 181.0222,254.4534 181.0449,254.917 181.0222,255.3806 180.954,255.8398 180.8413,256.2901 180.6849,256.7271 180.4864,257.1467 180.2478,257.5449 179.9713,257.9177 179.6596,258.2616 179.3156,258.5733 178.9428,258.8499 178.5447,259.0885 178.125,259.287 177.688,259.4433 177.2377,259.5561 176.7786,259.6242 176.315,259.647 175.8513,259.6242 175.3922,259.5561 174.9419,259.4433 174.5049,259.287 174.0853,259.0885 173.6871,258.8499 173.3143,258.5733 172.9704,258.2616 172.6586,257.9177 172.3821,257.5449 172.1435,257.1467 171.945,256.7271 171.7887,256.2901 171.6759,255.8398 171.6078,255.3806 171.585,254.917 171.6078,254.4534 171.6759,253.9943 171.7887,253.544 171.945,253.1069 172.1435,252.6873 172.3821,252.2892 172.6586,251.9164 172.9704,251.5724 173.3143,251.2607 173.6871,250.9842 174.0853,250.7456 174.5049,250.5471 174.9419,250.3907 175.3922,250.2779 175.8513,250.2098 176.315,250.1871"/>
    <polygon points="189.2332,230.7647 190.3278,230.6024 191.4331,230.5481 192.5383,230.6024 193.633,230.7647 194.7064,231.0336 195.7483,231.4064 196.7487,231.8795 197.6979,232.4485 198.5867,233.1077 199.4066,233.8508 200.1498,234.6707 200.809,235.5596 201.3779,236.5087 201.851,237.5091 202.2238,238.551 202.4927,239.6245 202.6551,240.7191 202.7094,241.8244 202.6551,242.9296 202.4927,244.0243 202.2238,245.0977 201.851,246.1396 201.3779,247.14 200.809,248.0891 200.1498,248.978 199.4066,249.7979 198.5867,250.5411 197.6979,251.2003 196.7487,251.7692 195.7483,252.2423 194.7064,252.6151 193.633,252.884 192.5383,253.0464 191.4331,253.1007 190.3278,253.0464 189.2332,252.884 188.1597,252.6151 187.1178,252.2423 186.1175,251.7692 185.1683,251.2003 184.2795,250.5411 183.4595,249.7979 182.7164,248.978 182.0572,248.0891 181.4883,247.14 181.0151,246.1396 180.6423,245.0977 180.3734,244.0243 180.2111,242.9296 180.1568,241.8244 180.2111,240.7191 180.3734,239.6245 180.6423,238.551 181.0151,237.5091 181.4883,236.5087 182.0572,235.5596 182.7164,234.6707 183.4595,233.8508 184.2795,233.1077 185.1683,232.4485 186.1175,231.8795 187.1178,231.4064 188.1597,231.0336"/>
    <polygon points="149.4663,200.3167 149.705,199.9185 149.9815,199.5457 150.2932,199.2018 150.6371,198.89 151.01,198.6135 151.4081,198.3749 151.8277,198.1764 152.2648,198.0201 152.715,197.9073 153.1742,197.8392 153.6378,197.8164 154.1014,197.8392 154.5606,197.9073 155.0108,198.0201 155.4479,198.1764 155.8675,198.3749 156.2656,198.6135 156.6385,198.89 156.9824,199.2018 157.2941,199.5457 157.5706,199.9185 157.8093,200.3167 158.0077,200.7363 158.1641,201.1733 158.2769,201.6236 158.345,202.0827 158.3678,202.5464 158.345,203.01 158.2769,203.4691 158.1641,203.9194 158.0077,204.3564 157.8093,204.7761 157.5706,205.1742 157.2941,205.547 156.9824,205.891 156.6385,206.2027 156.2656,206.4792 155.8675,206.7178 155.4479,206.9163 155.0108,207.0727 154.5606,207.1854 154.1014,207.2536 153.6378,207.2763 153.1742,207.2536 152.715,207.1854 152.2648,207.0727 151.8277,206.9163 151.4081,206.7178 151.01,206.4792 150.6371,206.2027 150.2932,205.891 149.9815,205.547 149.705,205.1742 149.4663,204.7761 149.2679,204.3564 149.1115,203.9194 148.9987,203.4691 148.9306,203.01 148.9078,202.5464 148.9306,202.0827 148.9987,201.6236 149.1115,201.1733 149.2679,200.7363"/>
    <polygon points="161.6318,199.3446 161.3201,199.0007 161.0435,198.6279 160.8049,198.2297 160.6065,197.8101 160.4501,197.3731 160.3373,196.9228 160.2692,196.4636 160.2464,196.0 160.2692,195.5364 160.3373,195.0773 160.4501,194.627 160.6065,194.1899 160.8049,193.7703 161.0435,193.3722 161.3201,192.9994 161.6318,192.6554 161.9757,192.3437 162.3485,192.0672 162.7467,191.8286 163.1663,191.6301 163.6033,191.4737 164.0536,191.3609 164.5128,191.2928 164.9764,191.2701 165.44,191.2928 165.8991,191.3609 166.3494,191.4737 166.7865,191.6301 167.2061,191.8286 167.6042,192.0672 167.977,192.3437 168.321,192.6554 168.6327,192.9994 168.9092,193.3722 169.1478,193.7703 169.3463,194.1899 169.5027,194.627 169.6155,195.0773 169.6836,195.5364 169.7064,196.0 169.6836,196.4636 169.6155,196.9228 169.5027,197.3731 169.3463,197.8101 169.1478,198.2297 168.9092,198.6279 168.6327,199.0007 168.321,199.3446 167.977,199.6563 167.6042,199.9329 167.2061,200.1715 166.7865,200.3699 166.3494,200.5263 165.8991,200.6391 165.44,200.7072 164.9764,200.73 164.5128,200.7072 164.0536,200.6391 163.6033,200.5263 163.1663,200.3699 162.7467,200.1715 162.3485,199.9329 161.9757,199.6563"/>
    <polygon points="171.6759,203.4691 171.6078,203.01 171.585,202.5464 171.6078,202.0827 171.6759,201.6236 171.7887,201.1733 171.945,200.7363 172.1435,200.3167 172.3821,199.9185 172.6586,199.5457 172.9704,199.2018 173.3143,198.89 173.6871,198.6135 174.0853,198.3749 174.5049,198.1764 174.9419,198.0201 175.3922,197.9073 175.8513,197.8392 176.315,197.8164 176.7786,197.8392 177.2377,197.9073 177.688,198.0201 178.125,198.1764 178.5447,198.3749 178.9428,198.6135 179.3156,198.89 179.6596,199.2018 179.9713,199.5457 180.2478,199.9185 180.4864,200.3167 180.6849,200.7363 180.8413,201.1733 180.954,201.6236 181.0222,202.0827 181.0449,202.5464 181.0222,203.01 180.954,203.4691 180.8413,203.9194 180.6849,204.3564 180.4864,204.7761 180.2478,205.1742 179.9713,205.547 179.6596,205.891 179.3156,206.2027 178.9428,206.4792 178.5447,206.7178 178.125,206.9163 177.688,207.0727 177.2377,207.1854 176.7786,207.2536 176.315,207.2763 175.8513,207.2536 175.3922,207.1854 174.9419,207.0727 174.5049,206.9163 174.0853,206.7178 173.6871,206.4792 173.3143,206.2027 172.9704,205.891 172.6586,205.547 172.3821,205.1742 172.1435,204.7761 171.945,204.3564 171.7887,203.9194"/>
    <polygon points="188.1597,204.8483 187.1178,205.2211 186.1175,205.6942 185.1683,206.2631 184.2795,206.9223 183.4595,207.6655 182.7164,208.4854 182.0572,209.3742 181.4883,210.3234 181.0151,211.3238 180.6423,212.3657 180.3734,213.4391 180.2111,214.5338 180.1568,215.639 180.2111,216.7443 180.3734,217.8389 180.6423,218.9124 181.0151,219.9543 181.4883,220.9546 182.0572,221.9038 182.7164,222.7926 183.4595,223.6126 184.2795,224.3557 185.1683,225.0149 186.1175,225.5838 187.1178,226.057 188.1597,226.4298 189.2332,226.6987 190.3278,226.861 191.4331,226.9153 192.5383,226.861 193.633,226.6987 194.7064,226.4298 195.7483,226.057 196.7487,225.5838 197.6979,225.0149 198.5867,224.3557 199.4066,223.6126 200.1498,222.7926 200.809,221.9038 201.3779,220.9546 201.851,219.9543 202.2238,218.9124 202.4927,217.8389 202.6551,216.7443 202.7094,215.639 202.6551,214.5338 202.4927,213.4391 202.2238,212.3657 201.851,211.3238 201.3779,210.3234 200.809,209.3742 200.1498,208.4854 199.4066,207.6655 198.5867,206.9223 197.6979,206.2631 196.7487,205.6942 195.7483,205.2211 194.7064,204.8483 193.633,204.5794 192.5383,204.417 191.4331,204.3627 190.3278,204.417 189.2332,204.5794"/>
    <polygon points="192.3835,196.0 192.3607,195.5364 192.2926,195.0773 192.1798,194.627 192.0235,194.1899 191.825,193.7703 191.5864,193.3722 191.3099,192.9994 190.9981,192.6554 190.6542,192.3437 190.2814,192.0672 189.8832,191.8286 189.4636,191.6301 189.0266,191.4737 188.5763,191.3609 188.1172,191.2928 187.6535,191.2701 187.1899,191.2928 186.7308,191.3609 186.2805,191.4737 185.8435,191.6301 185.4238,191.8286 185.0257,192.0672 184.6529,192.3437 184.3089,192.6554 183.9972,192.9994 183.7207,193.3722 183.4821,193.7703 183.2836,194.1899 183.1272,194.627 183.0145,195.0773 182.9463,195.5364 182.9236,196.0 182.9463,196.4636 183.0145,196.9228 183.1272,197.3731 183.2836,197.8101 183.4821,198.2297 183.7207,198.6279 183.9972,199.0007 184.3089,199.3446 184.6529,199.6563 185.0257,199.9329 185.4238,200.1715 185.8435,200.3699 186.2805,200.5263 186.7308,200.6391 187.1899,200.7072 187.6535,200.73 188.1172,200.7072 188.5763,200.6391 189.0266,200.5263 189.4636,200.3699 189.8832,200.1715 190.2814,199.9329 190.6542,199.6563 190.9981,199.3446 191.3099,199.0007 191.5864,198.6279 191.825,198.2297 192.0235,197.8101 192.1798,197.3731 192.2926,196.9228 192.3607,196.4636"/>
    <polygon points="198.0694,184.8146 197.6191,184.9274 197.182,185.0838 196.7624,185.2822 196.3643,185.5209 195.9915,185.7974 195.6475,186.1091 195.3358,186.453 195.0593,186.8259 194.8207,187.224 194.6222,187.6436 194.4658,188.0807 194.353,188.5309 194.2849,188.9901 194.2622,189.4537 194.2849,189.9173 194.353,190.3765 194.4658,190.8267 194.6222,191.2638 194.8207,191.6834 195.0593,192.0815 195.3358,192.4544 195.6475,192.7983 195.9915,193.11 196.3643,193.3865 196.7624,193.6252 197.182,193.8236 197.6191,193.98 198.0694,194.0928 198.5285,194.1609 198.9921,194.1837 199.4557,194.1609 199.9149,194.0928 200.3652,193.98 200.8022,193.8236 201.2218,193.6252 201.62,193.3865 201.9928,193.11 202.3367,192.7983 202.6484,192.4544 202.925,192.0815 203.1636,191.6834 203.3621,191.2638 203.5184,190.8267 203.6312,190.3765 203.6993,189.9173 203.7221,189.4537 203.6993,188.9901 203.6312,188.5309 203.5184,188.0807 203.3621,187.6436 203.1636,187.224 202.925,186.8259 202.6484,186.453 202.3367,186.1091 201.9928,185.7974 201.62,185.5209 201.2218,185.2822 200.8022,185.0838 200.3652,184.9274 199.9149,184.8146 199.4557,184.7465 198.9921,184.7237 198.5285,184.7465"/>
    <polygon points="205.3935,195.3927 204.7343,196.2816 204.1654,197.2307 203.6923,198.2311 203.3195,199.273 203.0506,200.3465 202.8882,201.4411 202.8339,202.5464 202.8882,203.6516 203.0506,204.7463 203.3195,205.8197 203.6923,206.8616 204.1654,207.862 204.7343,208.8111 205.3935,209.7 206.1367,210.5199 206.9566,211.2631 207.8455,211.9223 208.7946,212.4912 209.795,212.9643 210.8369,213.3371 211.9103,213.606 213.005,213.7684 214.1102,213.8227 215.2155,213.7684 216.3101,213.606 217.3836,213.3371 218.4255,212.9643 219.4259,212.4912 220.375,211.9223 221.2638,211.2631 222.0838,210.5199 222.8269,209.7 223.4861,208.8111 224.0551,207.862 224.5282,206.8616 224.901,205.8197 225.1699,204.7463 225.3322,203.6516 225.3865,202.5464 225.3322,201.4411 225.1699,200.3465 224.901,199.273 224.5282,198.2311 224.0551,197.2307 223.4861,196.2816 222.8269,195.3927 222.0838,194.5728 221.2638,193.8297 220.375,193.1705 219.4259,192.6015 218.4255,192.1284 217.3836,191.7556 216.3101,191.4867 215.2155,191.3243 214.1102,191.2701 213.005,191.3243 211.9103,191.4867 210.8369,191.7556 209.795,192.1284 208.7946,192.6015 207.8455,193.1705 206.9566,193.8297 206.1367,194.5728"/>
    <polygon points="233.4715,187.6146 233.0079,187.6373 232.5443,187.6146 232.0851,187.5464 231.6348,187.4337 231.1978,187.2773 230.7782,187.0788 230.38,186.8402 230.0072,186.5637 229.6633,186.252 229.3516,185.908 229.075,185.5352 228.8364,185.137 228.6379,184.7174 228.4816,184.2804 228.3688,183.8301 228.3007,183.371 228.2779,182.9074 228.3007,182.4437 228.3688,181.9846 228.4816,181.5343 228.6379,181.0973 228.8364,180.6777 229.075,180.2795 229.3516,179.9067 229.6633,179.5628 230.0072,179.251 230.38,178.9745 230.7782,178.7359 231.1978,178.5374 231.6348,178.3811 232.0851,178.2683 232.5443,178.2002 233.0079,178.1774 233.4715,178.2002 233.9306,178.2683 234.3809,178.3811 234.818,178.5374 235.2376,178.7359 235.6357,178.9745 236.0085,179.251 236.3525,179.5628 236.6642,179.9067 236.9407,180.2795 237.1793,180.6777 237.3778,181.0973 237.5342,181.5343 237.647,181.9846 237.7151,182.4437 237.7378,182.9074 237.7151,183.371 237.647,183.8301 237.5342,184.2804 237.3778,184.7174 237.1793,185.137 236.9407,185.5352 236.6642,185.908 236.3525,186.252 236.0085,186.5637 235.6357,186.8402 235.2376,187.0788 234.818,187.2773 234.3809,187.4337 233.9306,187.5464"/>
    <polygon points="230.7782,191.8286 231.1978,191.6301 231.6348,191.4737 232.0851,191.3609 232.5443,191.2928 233.0079,191.2701 233.4715,191.2928 233.9306,191.3609 234.3809,191.4737 234.818,191.6301 235.2376,191.8286 235.6357,192.0672 236.0085,192.3437 236.3525,192.6554 236.6642,192.9994 236.9407,193.3722 237.1793,193.7703 237.3778,194.1899 237.5342,194.627 237.647,195.0773 237.7151,195.5364 237.7378,196.0 237.7151,196.4636 237.647,196.9228 237.5342,197.3731 237.3778,197.8101 237.1793,198.2297 236.9407,198.6279 236.6642,199.0007 236.3525,199.3446 236.0085,199.6563 235.6357,199.9329 235.2376,200.1715 234.818,200.3699 234.3809,200.5263 233.9306,200.6391 233.4715,200.7072 233.0079,200.73 232.5443,200.7072 232.0851,200.6391 231.6348,200.5263 231.1978,200.3699 230.7782,200.1715 230.38,199.9329 230.0072,199.6563 229.6633,199.3446 229.3516,199.0007 229.075,198.6279 228.8364,198.2297 228.6379,197.8101 228.4816,197.3731 228.3688,196.9228 228.3007,196.4636 228.2779,196.0 228.3007,195.5364 228.3688,195.0773 228.4816,194.627 228.6379,194.1899 228.8364,193.7703 229.075,193.3722 229.3516,192.9994 229.6633,192.6554 230.0072,192.3437 230.38,192.0672"/>
    <polygon points="228.2779,222.1854 228.3007,222.649 228.3688,223.1081 228.4816,223.5584 228.6379,223.9954 228.8364,224.4151 229.075,224.8132 229.3516,225.186 229.6633,225.53 230.0072,225.8417 230.38,226.1182 230.7782,226.3568 231.1978,226.5553 231.6348,226.7117 232.0851,226.8244 232.5443,226.8926 233.0079,226.9153 233.4715,226.8926 233.9306,226.8244 234.3809,226.7117 234.818,226.5553 235.2376,226.3568 235.6357,226.1182 236.0085,225.8417 236.3525,225.53 236.6642,225.186 236.9407,224.8132 237.1793,224.4151 237.3778,223.9954 237.5342,223.5584 237.647,223.1081 237.7151,222.649 237.7378,222.1854 237.7151,221.7217 237.647,221.2626 237.5342,220.8123 237.3778,220.3753 237.1793,219.9557 236.9407,219.5575 236.6642,219.1847 236.3525,218.8408 236.0085,218.529 235.6357,218.2525 235.2376,218.0139 234.818,217.8154 234.3809,217.6591 233.9306,217.5463 233.4715,217.4782 233.0079,217.4554 232.5443,217.4782 232.0851,217.5463 231.6348,217.6591 231.1978,217.8154 230.7782,218.0139 230.38,218.2525 230.0072,218.529 229.6633,218.8408 229.3516,219.1847 229.075,219.5575 228.8364,219.9557 228.6379,220.3753 228.4816,220.8123 228.3688,221.2626 228.3007,221.7217"/>
    <polygon points="216.3101,239.7913 217.3836,239.5224 218.4255,239.1496 219.4259,238.6765 220.375,238.1076 221.2638,237.4484 222.0838,236.7052 222.8269,235.8853 223.4861,234.9965 224.0551,234.0473 224.5282,233.0469 224.901,232.005 225.1699,230.9316 225.3322,229.837 225.3865,228.7317 225.3322,227.6264 225.1699,226.5318 224.901,225.4584 224.5282,224.4164 224.0551,223.4161 223.4861,222.4669 222.8269,221.5781 222.0838,220.7581 221.2638,220.015 220.375,219.3558 219.4259,218.7869 218.4255,218.3137 217.3836,217.9409 216.3101,217.6721 215.2155,217.5097 214.1102,217.4554 213.005,217.5097 211.9103,217.6721 210.8369,217.9409 209.795,218.3137 208.7946,218.7869 207.8455,219.3558 206.9566,220.015 206.1367,220.7581 205.3935,221.5781 204.7343,222.4669 204.1654,223.4161 203.6923,224.4164 203.3195,225.4584 203.0506,226.5318 202.8882,227.6264 202.8339,228.7317 202.8882,229.837 203.0506,230.9316 203.3195,232.005 203.6923,233.0469 204.1654,234.0473 204.7343,234.9965 205.3935,235.8853 206.1367,236.7052 206.9566,237.4484 207.8455,238.1076 208.7946,238.6765 209.795,239.1496 210.8369,239.5224 211.9103,239.7913 213.005,239.9537 214.1102,240.008 215.2155,239.9537"/>
    <polygon points="251.046,234.3553 251.1587,233.905 251.3151,233.4679 251.5136,233.0483 251.7522,232.6502 252.0287,232.2774 252.3404,231.9334 252.6844,231.6217 253.0572,231.3452 253.4553,231.1066 253.875,230.9081 254.312,230.7517 254.7623,230.6389 255.2214,230.5708 255.685,230.5481 256.1487,230.5708 256.6078,230.6389 257.0581,230.7517 257.4951,230.9081 257.9147,231.1066 258.3129,231.3452 258.6857,231.6217 259.0296,231.9334 259.3414,232.2774 259.6179,232.6502 259.8565,233.0483 260.055,233.4679 260.2113,233.905 260.3241,234.3553 260.3922,234.8144 260.415,235.278 260.3922,235.7416 260.3241,236.2008 260.2113,236.6511 260.055,237.0881 259.8565,237.5077 259.6179,237.9059 259.3414,238.2787 259.0296,238.6226 258.6857,238.9343 258.3129,239.2109 257.9147,239.4495 257.4951,239.648 257.0581,239.8043 256.6078,239.9171 256.1487,239.9852 255.685,240.008 255.2214,239.9852 254.7623,239.9171 254.312,239.8043 253.875,239.648 253.4553,239.4495 253.0572,239.2109 252.6844,238.9343 252.3404,238.6226 252.0287,238.2787 251.7522,237.9059 251.5136,237.5077 251.3151,237.0881 251.1587,236.6511 251.046,236.2008 250.9778,235.7416 250.9551,235.278 250.9778,234.8144"/>
    <polygon points="254.149,264.8618 253.1998,264.2929 252.311,263.6337 251.491,262.8906 250.7479,262.0706 250.0887,261.1818 249.5198,260.2326 249.0466,259.2323 248.6738,258.1904 248.4049,257.1169 248.2426,256.0223 248.1883,254.917 248.2426,253.8118 248.4049,252.7171 248.6738,251.6437 249.0466,250.6018 249.5198,249.6014 250.0887,248.6522 250.7479,247.7634 251.491,246.9435 252.311,246.2003 253.1998,245.5411 254.149,244.9722 255.1493,244.4991 256.1912,244.1263 257.2647,243.8574 258.3593,243.695 259.4646,243.6407 260.5698,243.695 261.6645,243.8574 262.7379,244.1263 263.7798,244.4991 264.7802,244.9722 265.7293,245.5411 266.6182,246.2003 267.4381,246.9435 268.1813,247.7634 268.8405,248.6522 269.4094,249.6014 269.8825,250.6018 270.2553,251.6437 270.5242,252.7171 270.6866,253.8118 270.7409,254.917 270.6866,256.0223 270.5242,257.1169 270.2553,258.1904 269.8825,259.2323 269.4094,260.2326 268.8405,261.1818 268.1813,262.0706 267.4381,262.8906 266.6182,263.6337 265.7293,264.2929 264.7802,264.8618 263.7798,265.335 262.7379,265.7078 261.6645,265.9767 260.5698,266.139 259.4646,266.1933 258.3593,266.139 257.2647,265.9767 256.1912,265.7078 255.1493,265.335"/>
    <polygon points="273.655,261.927 273.7231,262.3861 273.8359,262.8364 273.9923,263.2734 274.1907,263.6931 274.4294,264.0912 274.7059,264.464 275.0176,264.808 275.3615,265.1197 275.7344,265.3962 276.1325,265.6348 276.5521,265.8333 276.9892,265.9897 277.4394,266.1024 277.8986,266.1706 278.3622,266.1933 278.8258,266.1706 279.285,266.1024 279.7352,265.9897 280.1723,265.8333 280.5919,265.6348 280.99,265.3962 281.3629,265.1197 281.7068,264.808 282.0185,264.464 282.295,264.0912 282.5337,263.6931 282.7321,263.2734 282.8885,262.8364 283.0013,262.3861 283.0694,261.927 283.0922,261.4634 283.0694,260.9997 283.0013,260.5406 282.8885,260.0903 282.7321,259.6533 282.5337,259.2337 282.295,258.8355 282.0185,258.4627 281.7068,258.1188 281.3629,257.807 280.99,257.5305 280.5919,257.2919 280.1723,257.0934 279.7352,256.9371 279.285,256.8243 278.8258,256.7562 278.3622,256.7334 277.8986,256.7562 277.4394,256.8243 276.9892,256.9371 276.5521,257.0934 276.1325,257.2919 275.7344,257.5305 275.3615,257.807 275.0176,258.1188 274.7059,258.4627 274.4294,258.8355 274.1907,259.2337 273.9923,259.6533 273.8359,260.0903 273.7231,260.5406 273.655,260.9997 273.6322,261.4634"/>
    <polygon points="281.7068,251.7153 282.0185,251.3714 282.295,250.9985 282.5337,250.6004 282.7321,250.1808 282.8885,249.7437 283.0013,249.2935 283.0694,248.8343 283.0922,248.3707 283.0694,247.9071 283.0013,247.4479 282.8885,246.9977 282.7321,246.5606 282.5337,246.141 282.295,245.7429 282.0185,245.37 281.7068,245.0261 281.3629,244.7144 280.99,244.4379 280.5919,244.1992 280.1723,244.0008 279.7352,243.8444 279.285,243.7316 278.8258,243.6635 278.3622,243.6407 277.8986,243.6635 277.4394,243.7316 276.9892,243.8444 276.5521,244.0008 276.1325,244.1992 275.7344,244.4379 275.3615,244.7144 275.0176,245.0261 274.7059,245.37 274.4294,245.7429 274.1907,246.141 273.9923,246.5606 273.8359,246.9977 273.7231,247.4479 273.655,247.9071 273.6322,248.3707 273.655,248.8343 273.7231,249.2935 273.8359,249.7437 273.9923,250.1808 274.1907,250.6004 274.4294,250.9985 274.7059,251.3714 275.0176,251.7153 275.3615,252.027 275.7344,252.3035 276.1325,252.5422 276.5521,252.7406 276.9892,252.897 277.4394,253.0098 277.8986,253.0779 278.3622,253.1007 278.8258,253.0779 279.285,253.0098 279.7352,252.897 280.1723,252.7406 280.5919,252.5422 280.99,252.3035 281.3629,252.027"/>
    <polygon points="282.7321,272.7459 282.8885,273.183 283.0013,273.6333 283.0694,274.0924 283.0922,274.556 283.0694,275.0196 283.0013,275.4788 282.8885,275.9291 282.7321,276.3661 282.5337,276.7857 282.295,277.1839 282.0185,277.5567 281.7068,277.9006 281.3629,278.2123 280.99,278.4889 280.5919,278.7275 280.1723,278.926 279.7352,279.0823 279.285,279.1951 278.8258,279.2632 278.3622,279.286 277.8986,279.2632 277.4394,279.1951 276.9892,279.0823 276.5521,278.926 276.1325,278.7275 275.7344,278.4889 275.3615,278.2123 275.0176,277.9006 274.7059,277.5567 274.4294,277.1839 274.1907,276.7857 273.9923,276.3661 273.8359,275.9291 273.7231,275.4788 273.655,275.0196 273.6322,274.556 273.655,274.0924 273.7231,273.6333 273.8359,273.183 273.9923,272.7459 274.1907,272.3263 274.4294,271.9282 274.7059,271.5554 275.0176,271.2114 275.3615,270.8997 275.7344,270.6232 276.1325,270.3846 276.5521,270.1861 276.9892,270.0297 277.4394,269.9169 277.8986,269.8488 278.3622,269.8261 278.8258,269.8488 279.285,269.9169 279.7352,270.0297 280.1723,270.1861 280.5919,270.3846 280.99,270.6232 281.3629,270.8997 281.7068,271.2114 282.0185,271.5554 282.295,271.9282 282.5337,272.3263"/>
    <polygon points="281.3629,291.305 280.99,291.5815 280.5919,291.8202 280.1723,292.0186 279.7352,292.175 279.285,292.2878 278.8258,292.3559 278.3622,292.3787 277.8986,292.3559 277.4394,292.2878 276.9892,292.175 276.5521,292.0186 276.1325,291.8202 275.7344,291.5815 275.3615,291.305 275.0176,290.9933 274.7059,290.6494 274.4294,290.2765 274.1907,289.8784 273.9923,289.4588 273.8359,289.0217 273.7231,288.5715 273.655,288.1123 273.6322,287.6487 273.655,287.1851 273.7231,286.7259 273.8359,286.2757 273.9923,285.8386 274.1907,285.419 274.4294,285.0209 274.7059,284.648 275.0176,284.3041 275.3615,283.9924 275.7344,283.7159 276.1325,283.4772 276.5521,283.2788 276.9892,283.1224 277.4394,283.0096 277.8986,282.9415 278.3622,282.9187 278.8258,282.9415 279.285,283.0096 279.7352,283.1224 280.1723,283.2788 280.5919,283.4772 280.99,283.7159 281.3629,283.9924 281.7068,284.3041 282.0185,284.648 282.295,285.0209 282.5337,285.419 282.7321,285.8386 282.8885,286.2757 283.0013,286.7259 283.0694,287.1851 283.0922,287.6487 283.0694,288.1123 283.0013,288.5715 282.8885,289.0217 282.7321,289.4588 282.5337,289.8784 282.295,290.2765 282.0185,290.6494 281.7068,290.9933"/>
    <polygon points="280.99,304.6742 280.5919,304.9128 280.1723,305.1113 279.7352,305.2677 279.285,305.3805 278.8258,305.4486 278.3622,305.4713 277.8986,305.4486 277.4394,305.3805 276.9892,305.2677 276.5521,305.1113 276.1325,304.9128 275.7344,304.6742 275.3615,304.3977 275.0176,304.086 274.7059,303.742 274.4294,303.3692 274.1907,302.9711 273.9923,302.5514 273.8359,302.1144 273.7231,301.6641 273.655,301.205 273.6322,300.7414 273.655,300.2777 273.7231,299.8186 273.8359,299.3683 273.9923,298.9313 274.1907,298.5117 274.4294,298.1135 274.7059,297.7407 275.0176,297.3968 275.3615,297.085 275.7344,296.8085 276.1325,296.5699 276.5521,296.3714 276.9892,296.2151 277.4394,296.1023 277.8986,296.0342 278.3622,296.0114 278.8258,296.0342 279.285,296.1023 279.7352,296.2151 280.1723,296.3714 280.5919,296.5699 280.99,296.8085 281.3629,297.085 281.7068,297.3968 282.0185,297.7407 282.295,298.1135 282.5337,298.5117 282.7321,298.9313 282.8885,299.3683 283.0013,299.8186 283.0694,300.2777 283.0922,300.7414 283.0694,301.205 283.0013,301.6641 282.8885,302.1144 282.7321,302.5514 282.5337,302.9711 282.295,303.3692 282.0185,303.742 281.7068,304.086 281.3629,304.3977"/>
    <polygon points="271.5499,305.9147 271.6627,306.3649 271.7308,306.8241 271.7536,307.2877 271.7308,307.7513 271.6627,308.2105 271.5499,308.6607 271.3935,309.0978 271.1951,309.5174 270.9565,309.9155 270.6799,310.2884 270.3682,310.6323 270.0243,310.944 269.6515,311.2205 269.2533,311.4592 268.8337,311.6576 268.3967,311.814 267.9464,311.9268 267.4872,311.9949 267.0236,312.0177 266.56,311.9949 266.1009,311.9268 265.6506,311.814 265.2135,311.6576 264.7939,311.4592 264.3958,311.2205 264.023,310.944 263.679,310.6323 263.3673,310.2884 263.0908,309.9155 262.8522,309.5174 262.6537,309.0978 262.4973,308.6607 262.3845,308.2105 262.3164,307.7513 262.2936,307.2877 262.3164,306.8241 262.3845,306.3649 262.4973,305.9147 262.6537,305.4776 262.8522,305.058 263.0908,304.6599 263.3673,304.287 263.679,303.9431 264.023,303.6314 264.3958,303.3549 264.7939,303.1162 265.2135,302.9178 265.6506,302.7614 266.1009,302.6486 266.56,302.5805 267.0236,302.5577 267.4872,302.5805 267.9464,302.6486 268.3967,302.7614 268.8337,302.9178 269.2533,303.1162 269.6515,303.3549 270.0243,303.6314 270.3682,303.9431 270.6799,304.287 270.9565,304.6599 271.1951,305.058 271.3935,305.4776"/>
    <polygon points="254.312,296.2151 254.7623,296.1023 255.2214,296.0342 255.685,296.0114 256.1487,296.0342 256.6078,296.1023 257.0581,296.2151 257.4951,296.3714 257.9147,296.5699 258.3129,296.8085 258.6857,297.085 259.0296,297.3968 259.3414,297.7407 259.6179,298.1135 259.8565,298.5117 260.055,298.9313 260.2113,299.3683 260.3241,299.8186 260.3922,300.2777 260.415,300.7414 260.3922,301.205 260.3241,301.6641 260.2113,302.1144 260.055,302.5514 259.8565,302.9711 259.6179,303.3692 259.3414,303.742 259.0296,304.086 258.6857,304.3977 258.3129,304.6742 257.9147,304.9128 257.4951,305.1113 257.0581,305.2677 256.6078,305.3805 256.1487,305.4486 255.685,305.4713 255.2214,305.4486 254.7623,305.3805 254.312,305.2677 253.875,305.1113 253.4553,304.9128 253.0572,304.6742 252.6844,304.3977 252.3404,304.086 252.0287,303.742 251.7522,303.3692 251.5136,302.9711 251.3151,302.5514 251.1587,302.1144 251.046,301.6641 250.9778,301.205 250.9551,300.7414 250.9778,300.2777 251.046,299.8186 251.1587,299.3683 251.3151,298.9313 251.5136,298.5117 251.7522,298.1135 252.0287,297.7407 252.3404,297.3968 252.6844,297.085 253.0572,296.8085 253.4553,296.5699 253.875,296.3714"/>
    <polygon points="255.1493,291.5203 254.149,291.0472 253.1998,290.4783 252.311,289.8191 251.491,289.0759 250.7479,288.256 250.0887,287.3671 249.5198,286.418 249.0466,285.4176 248.6738,284.3757 248.4049,283.3023 248.2426,282.2076 248.1883,281.1024 248.2426,279.9971 248.4049,278.9025 248.6738,277.829 249.0466,276.7871 249.5198,275.7867 250.0887,274.8376 250.7479,273.9487 251.491,273.1288 252.311,272.3857 253.1998,271.7265 254.149,271.1575 255.1493,270.6844 256.1912,270.3116 257.2647,270.0427 258.3593,269.8804 259.4646,269.8261 260.5698,269.8804 261.6645,270.0427 262.7379,270.3116 263.7798,270.6844 264.7802,271.1575 265.7293,271.7265 266.6182,272.3857 267.4381,273.1288 268.1813,273.9487 268.8405,274.8376 269.4094,275.7867 269.8825,276.7871 270.2553,277.829 270.5242,278.9025 270.6866,279.9971 270.7409,281.1024 270.6866,282.2076 270.5242,283.3023 270.2553,284.3757 269.8825,285.4176 269.4094,286.418 268.8405,287.3671 268.1813,288.256 267.4381,289.0759 266.6182,289.8191 265.7293,290.4783 264.7802,291.0472 263.7798,291.5203 262.7379,291.8931 261.6645,292.162 260.5698,292.3244 259.4646,292.3787 258.3593,292.3244 257.2647,292.162 256.1912,291.8931"/>
    <polygon points="235.208,288.2718 233.1567,289.5012 230.9949,290.5237 228.7432,291.3293 226.4234,291.9104 224.0579,292.2613 221.6693,292.3787 219.2807,292.2613 216.9151,291.9104 214.5954,291.3293 212.3437,290.5237 210.1818,289.5012 208.1306,288.2718 206.2098,286.8472 204.4378,285.2412 202.8318,283.4692 201.4072,281.5484 200.1778,279.4971 199.1553,277.3353 198.3496,275.0836 197.7686,272.7638 197.4177,270.3983 197.3003,268.0097 197.4177,265.6211 197.7686,263.2555 198.3496,260.9358 199.1553,258.6841 200.1778,256.5222 201.4072,254.471 202.8318,252.5502 204.4378,250.7782 206.2098,249.1722 208.1306,247.7476 210.1818,246.5182 212.3437,245.4957 214.5954,244.69 216.9151,244.109 219.2807,243.7581 221.6693,243.6407 224.0579,243.7581 226.4234,244.109 228.7432,244.69 230.9949,245.4957 233.1567,246.5182 235.208,247.7476 237.1288,249.1722 238.9008,250.7782 240.5068,252.5502 241.9314,254.471 243.1608,256.5222 244.1833,258.6841 244.9889,260.9358 245.57,263.2555 245.9209,265.6211 246.0383,268.0097 245.9209,270.3983 245.57,272.7638 244.9889,275.0836 244.1833,277.3353 243.1608,279.4971 241.9314,281.5484 240.5068,283.4692 238.9008,285.2412 237.1288,286.8472"/>
  </g>
</svg>
