<?xml version="1.0" encoding="utf-8" ?>
<svg xmlns="http://www.w3.org/2000/svg" xmlns:cc="http://creativecommons.org/ns" xmlns:dc="http://purl.org/dc/elements/1.1/" xmlns:ev="http://www.w3.org/2001/xml-events" xmlns:inkscape="http://www.inkscape.org/namespaces/inkscape" xmlns:rdf="http://www.w3.org/1999/02/22-rdf-syntax-ns" xmlns:sodipodi="http://sodipodi.sourceforge.net/DTD/sodipodi-0.dtd" xmlns:xlink="http://www.w3.org/1999/xlink" baseProfile="tiny" height="15.875cm" version="1.2" viewBox="0 0 432.0 600.0" width="11.43cm">
  <metadata>
    <rdf:RDF>
      <cc:Work>
        <dc:format>image/svg+xml</dc:format>
        <dc:source>vsk save -s 222 -c hex-grid/config/bubble-coasters-2.json /Users/tobin/src/fabian/plotting/fabian-plotting/hex-grid/sketch_hex_grid.py</dc:source>
        <dc:date>2023-11-11T11:30:23.551471</dc:date>
      </cc:Work>
    </rdf:RDF>
  </metadata>
  <defs/>
  <g fill="none" id="layer1" inkscape:groupmode="layer" inkscape:label="1" stroke="#000000" stroke-width="0.7559" style="display:inline">
    <polygon points="109.4265,400.8365 109.5828,400.3995 109.7813,399.9798 110.0199,399.5817 110.2964,399.2089 110.6082,398.8649 110.9521,398.5532 111.3249,398.2767 111.7231,398.0381 112.1427,397.8396 112.5797,397.6832 113.03,397.5704 113.4891,397.5023 113.9528,397.4796 114.4164,397.5023 114.8755,397.5704 115.3258,397.6832 115.7628,397.8396 116.1824,398.0381 116.5806,398.2767 116.9534,398.5532 117.2974,398.8649 117.6091,399.2089 117.8856,399.5817 118.1242,399.9798 118.3227,400.3995 118.4791,400.8365 118.5918,401.2868 118.66,401.7459 118.6827,402.2095 118.66,402.6732 118.5918,403.1323 118.4791,403.5826 118.3227,404.0196 118.1242,404.4392 117.8856,404.8374 117.6091,405.2102 117.2974,405.5541 116.9534,405.8659 116.5806,406.1424 116.1824,406.381 115.7628,406.5795 115.3258,406.7358 114.8755,406.8486 114.4164,406.9167 113.9528,406.9395 113.4891,406.9167 113.03,406.8486 112.5797,406.7358 112.1427,406.5795 111.7231,406.381 111.3249,406.1424 110.9521,405.8659 110.6082,405.5541 110.2964,405.2102 110.0199,404.8374 109.7813,404.4392 109.5828,404.0196 109.4265,403.5826 109.3137,403.1323 109.2456,402.6732 109.2228,402.2095 109.2456,401.7459 109.3137,401.2868"/>
    <polygon points="122.6635,399.596 122.2907,399.3195 121.9467,399.0078 121.635,398.6639 121.3585,398.291 121.1199,397.8929 120.9214,397.4733 120.765,397.0362 120.6523,396.586 120.5841,396.1268 120.5614,395.6632 120.5841,395.1996 120.6523,394.7404 120.765,394.2902 120.9214,393.8531 121.1199,393.4335 121.3585,393.0354 121.635,392.6625 121.9467,392.3186 122.2907,392.0069 122.6635,391.7304 123.0616,391.4917 123.4813,391.2933 123.9183,391.1369 124.3686,391.0241 124.8277,390.956 125.2913,390.9332 125.755,390.956 126.2141,391.0241 126.6644,391.1369 127.1014,391.2933 127.521,391.4917 127.9192,391.7304 128.292,392.0069 128.6359,392.3186 128.9477,392.6625 129.2242,393.0354 129.4628,393.4335 129.6613,393.8531 129.8176,394.2902 129.9304,394.7404 129.9985,395.1996 130.0213,395.6632 129.9985,396.1268 129.9304,396.586 129.8176,397.0362 129.6613,397.4733 129.4628,397.8929 129.2242,398.291 128.9477,398.6639 128.6359,399.0078 128.292,399.3195 127.9192,399.596 127.521,399.8347 127.1014,400.0331 126.6644,400.1895 126.2141,400.3023 125.755,400.3704 125.2913,400.3932 124.8277,400.3704 124.3686,400.3023 123.9183,400.1895 123.4813,400.0331 123.0616,399.8347"/>
    <polygon points="120.3542,383.1778 119.695,382.289 119.1261,381.3398 118.6529,380.3395 118.2801,379.2975 118.0112,378.2241 117.8489,377.1295 117.7946,376.0242 117.8489,374.9189 118.0112,373.8243 118.2801,372.7509 118.6529,371.7089 119.1261,370.7086 119.695,369.7594 120.3542,368.8706 121.0973,368.0506 121.9173,367.3075 122.8061,366.6483 123.7553,366.0794 124.7556,365.6063 125.7975,365.2334 126.871,364.9646 127.9656,364.8022 129.0709,364.7479 130.1761,364.8022 131.2708,364.9646 132.3442,365.2334 133.3861,365.6063 134.3865,366.0794 135.3356,366.6483 136.2245,367.3075 137.0444,368.0506 137.7876,368.8706 138.4468,369.7594 139.0157,370.7086 139.4888,371.7089 139.8616,372.7509 140.1305,373.8243 140.2929,374.9189 140.3472,376.0242 140.2929,377.1295 140.1305,378.2241 139.8616,379.2975 139.4888,380.3395 139.0157,381.3398 138.4468,382.289 137.7876,383.1778 137.0444,383.9978 136.2245,384.7409 135.3356,385.4001 134.3865,385.969 133.3861,386.4422 132.3442,386.815 131.2708,387.0838 130.1761,387.2462 129.0709,387.3005 127.9656,387.2462 126.871,387.0838 125.7975,386.815 124.7556,386.4422 123.7553,385.969 122.8061,385.4001 121.9173,384.7409 121.0973,383.9978"/>
    <polygon points="146.5955,374.0042 146.1584,373.8478 145.7388,373.6493 145.3407,373.4107 144.9678,373.1342 144.6239,372.8225 144.3122,372.4785 144.0357,372.1057 143.797,371.7076 143.5986,371.288 143.4422,370.8509 143.3294,370.4006 143.2613,369.9415 143.2385,369.4779 143.2613,369.0142 143.3294,368.5551 143.4422,368.1048 143.5986,367.6678 143.797,367.2482 144.0357,366.85 144.3122,366.4772 144.6239,366.1333 144.9678,365.8215 145.3407,365.545 145.7388,365.3064 146.1584,365.1079 146.5955,364.9516 147.0457,364.8388 147.5049,364.7707 147.9685,364.7479 148.4321,364.7707 148.8913,364.8388 149.3415,364.9516 149.7786,365.1079 150.1982,365.3064 150.5963,365.545 150.9692,365.8215 151.3131,366.1333 151.6248,366.4772 151.9013,366.85 152.14,367.2482 152.3384,367.6678 152.4948,368.1048 152.6076,368.5551 152.6757,369.0142 152.6985,369.4779 152.6757,369.9415 152.6076,370.4006 152.4948,370.8509 152.3384,371.288 152.14,371.7076 151.9013,372.1057 151.6248,372.4785 151.3131,372.8225 150.9692,373.1342 150.5963,373.4107 150.1982,373.6493 149.7786,373.8478 149.3415,374.0042 148.8913,374.117 148.4321,374.1851 147.9685,374.2078 147.5049,374.1851 147.0457,374.117"/>
    <polygon points="149.7786,386.9405 149.3415,387.0968 148.8913,387.2096 148.4321,387.2777 147.9685,387.3005 147.5049,387.2777 147.0457,387.2096 146.5955,387.0968 146.1584,386.9405 145.7388,386.742 145.3407,386.5034 144.9678,386.2269 144.6239,385.9151 144.3122,385.5712 144.0357,385.1984 143.797,384.8002 143.5986,384.3806 143.4422,383.9436 143.3294,383.4933 143.2613,383.0342 143.2385,382.5705 143.2613,382.1069 143.3294,381.6478 143.4422,381.1975 143.5986,380.7605 143.797,380.3408 144.0357,379.9427 144.3122,379.5699 144.6239,379.2259 144.9678,378.9142 145.3407,378.6377 145.7388,378.3991 146.1584,378.2006 146.5955,378.0442 147.0457,377.9314 147.5049,377.8633 147.9685,377.8406 148.4321,377.8633 148.8913,377.9314 149.3415,378.0442 149.7786,378.2006 150.1982,378.3991 150.5963,378.6377 150.9692,378.9142 151.3131,379.2259 151.6248,379.5699 151.9013,379.9427 152.14,380.3408 152.3384,380.7605 152.4948,381.1975 152.6076,381.6478 152.6757,382.1069 152.6985,382.5705 152.6757,383.0342 152.6076,383.4933 152.4948,383.9436 152.3384,384.3806 152.14,384.8002 151.9013,385.1984 151.6248,385.5712 151.3131,385.9151 150.9692,386.2269 150.5963,386.5034 150.1982,386.742"/>
    <polygon points="154.5999,389.5805 154.5771,389.1169 154.5999,388.6533 154.668,388.1941 154.7808,387.7438 154.9372,387.3068 155.1356,386.8872 155.3743,386.489 155.6508,386.1162 155.9625,385.7723 156.3064,385.4606 156.6793,385.184 157.0774,384.9454 157.497,384.7469 157.934,384.5906 158.3843,384.4778 158.8435,384.4097 159.3071,384.3869 159.7707,384.4097 160.2299,384.4778 160.6801,384.5906 161.1172,384.7469 161.5368,384.9454 161.9349,385.184 162.3077,385.4606 162.6517,385.7723 162.9634,386.1162 163.2399,386.489 163.4786,386.8872 163.677,387.3068 163.8334,387.7438 163.9462,388.1941 164.0143,388.6533 164.0371,389.1169 164.0143,389.5805 163.9462,390.0396 163.8334,390.4899 163.677,390.927 163.4786,391.3466 163.2399,391.7447 162.9634,392.1175 162.6517,392.4615 162.3077,392.7732 161.9349,393.0497 161.5368,393.2883 161.1172,393.4868 160.6801,393.6432 160.2299,393.756 159.7707,393.8241 159.3071,393.8468 158.8435,393.8241 158.3843,393.756 157.934,393.6432 157.497,393.4868 157.0774,393.2883 156.6793,393.0497 156.3064,392.7732 155.9625,392.4615 155.6508,392.1175 155.3743,391.7447 155.1356,391.3466 154.9372,390.927 154.7808,390.4899 154.668,390.0396"/>
    <polygon points="164.0143,401.7459 164.0371,402.2095 164.0143,402.6732 163.9462,403.1323 163.8334,403.5826 163.677,404.0196 163.4786,404.4392 163.2399,404.8374 162.9634,405.2102 162.6517,405.5541 162.3077,405.8659 161.9349,406.1424 161.5368,406.381 161.1172,406.5795 160.6801,406.7358 160.2299,406.8486 159.7707,406.9167 159.3071,406.9395 158.8435,406.9167 158.3843,406.8486 157.934,406.7358 157.497,406.5795 157.0774,406.381 156.6793,406.1424 156.3064,405.8659 155.9625,405.5541 155.6508,405.2102 155.3743,404.8374 155.1356,404.4392 154.9372,404.0196 154.7808,403.5826 154.668,403.1323 154.5999,402.6732 154.5771,402.2095 154.5999,401.7459 154.668,401.2868 154.7808,400.8365 154.9372,400.3995 155.1356,399.9798 155.3743,399.5817 155.6508,399.2089 155.9625,398.8649 156.3064,398.5532 156.6793,398.2767 157.0774,398.0381 157.497,397.8396 157.934,397.6832 158.3843,397.5704 158.8435,397.5023 159.3071,397.4796 159.7707,397.5023 160.2299,397.5704 160.6801,397.6832 161.1172,397.8396 161.5368,398.0381 161.9349,398.2767 162.3077,398.5532 162.6517,398.8649 162.9634,399.2089 163.2399,399.5817 163.4786,399.9798 163.677,400.3995 163.8334,400.8365 163.9462,401.2868"/>
    <polygon points="169.2726,400.1895 168.8356,400.0331 168.416,399.8347 168.0178,399.596 167.645,399.3195 167.3011,399.0078 166.9894,398.6639 166.7128,398.291 166.4742,397.8929 166.2757,397.4733 166.1194,397.0362 166.0066,396.586 165.9385,396.1268 165.9157,395.6632 165.9385,395.1996 166.0066,394.7404 166.1194,394.2902 166.2757,393.8531 166.4742,393.4335 166.7128,393.0354 166.9894,392.6625 167.3011,392.3186 167.645,392.0069 168.0178,391.7304 168.416,391.4917 168.8356,391.2933 169.2726,391.1369 169.7229,391.0241 170.1821,390.956 170.6457,390.9332 171.1093,390.956 171.5684,391.0241 172.0187,391.1369 172.4558,391.2933 172.8754,391.4917 173.2735,391.7304 173.6463,392.0069 173.9903,392.3186 174.302,392.6625 174.5785,393.0354 174.8171,393.4335 175.0156,393.8531 175.172,394.2902 175.2848,394.7404 175.3529,395.1996 175.3756,395.6632 175.3529,396.1268 175.2848,396.586 175.172,397.0362 175.0156,397.4733 174.8171,397.8929 174.5785,398.291 174.302,398.6639 173.9903,399.0078 173.6463,399.3195 173.2735,399.596 172.8754,399.8347 172.4558,400.0331 172.0187,400.1895 171.5684,400.3023 171.1093,400.3704 170.6457,400.3932 170.1821,400.3704 169.7229,400.3023"/>
    <polygon points="180.1742,397.8396 179.7546,398.0381 179.3564,398.2767 178.9836,398.5532 178.6397,398.8649 178.3279,399.2089 178.0514,399.5817 177.8128,399.9798 177.6143,400.3995 177.458,400.8365 177.3452,401.2868 177.2771,401.7459 177.2543,402.2095 177.2771,402.6732 177.3452,403.1323 177.458,403.5826 177.6143,404.0196 177.8128,404.4392 178.0514,404.8374 178.3279,405.2102 178.6397,405.5541 178.9836,405.8659 179.3564,406.1424 179.7546,406.381 180.1742,406.5795 180.6112,406.7358 181.0615,406.8486 181.5206,406.9167 181.9843,406.9395 182.4479,406.9167 182.907,406.8486 183.3573,406.7358 183.7943,406.5795 184.2139,406.381 184.6121,406.1424 184.9849,405.8659 185.3288,405.5541 185.6406,405.2102 185.9171,404.8374 186.1557,404.4392 186.3542,404.0196 186.5106,403.5826 186.6233,403.1323 186.6914,402.6732 186.7142,402.2095 186.6914,401.7459 186.6233,401.2868 186.5106,400.8365 186.3542,400.3995 186.1557,399.9798 185.9171,399.5817 185.6406,399.2089 185.3288,398.8649 184.9849,398.5532 184.6121,398.2767 184.2139,398.0381 183.7943,397.8396 183.3573,397.6832 182.907,397.5704 182.4479,397.5023 181.9843,397.4796 181.5206,397.5023 181.0615,397.5704 180.6112,397.6832"/>
    <polygon points="197.8491,410.1289 197.6928,410.566 197.4943,410.9856 197.2557,411.3837 196.9792,411.7565 196.6674,412.1005 196.3235,412.4122 195.9507,412.6887 195.5525,412.9273 195.1329,413.1258 194.6959,413.2822 194.2456,413.395 193.7865,413.4631 193.3228,413.4858 192.8592,413.4631 192.4001,413.395 191.9498,413.2822 191.5128,413.1258 191.0931,412.9273 190.695,412.6887 190.3222,412.4122 189.9782,412.1005 189.6665,411.7565 189.39,411.3837 189.1514,410.9856 188.9529,410.566 188.7965,410.1289 188.6837,409.6786 188.6156,409.2195 188.5929,408.7559 188.6156,408.2923 188.6837,407.8331 188.7965,407.3828 188.9529,406.9458 189.1514,406.5262 189.39,406.128 189.6665,405.7552 189.9782,405.4113 190.3222,405.0996 190.695,404.823 191.0931,404.5844 191.5128,404.3859 191.9498,404.2296 192.4001,404.1168 192.8592,404.0487 193.3228,404.0259 193.7865,404.0487 194.2456,404.1168 194.6959,404.2296 195.1329,404.3859 195.5525,404.5844 195.9507,404.823 196.3235,405.0996 196.6674,405.4113 196.9792,405.7552 197.2557,406.128 197.4943,406.5262 197.6928,406.9458 197.8491,407.3828 197.9619,407.8331 198.03,408.2923 198.0528,408.7559 198.03,409.2195 197.9619,409.6786"/>
    <polygon points="189.1288,397.0904 188.3857,396.2705 187.7265,395.3816 187.1575,394.4325 186.6844,393.4321 186.3116,392.3902 186.0427,391.3168 185.8804,390.2221 185.8261,389.1169 185.8804,388.0116 186.0427,386.917 186.3116,385.8435 186.6844,384.8016 187.1575,383.8013 187.7265,382.8521 188.3857,381.9633 189.1288,381.1433 189.9487,380.4002 190.8376,379.741 191.7867,379.1721 192.7871,378.6989 193.829,378.3261 194.9025,378.0572 195.9971,377.8949 197.1024,377.8406 198.2076,377.8949 199.3023,378.0572 200.3757,378.3261 201.4176,378.6989 202.418,379.1721 203.3671,379.741 204.256,380.4002 205.0759,381.1433 205.8191,381.9633 206.4783,382.8521 207.0472,383.8013 207.5203,384.8016 207.8931,385.8435 208.162,386.917 208.3244,388.0116 208.3787,389.1169 208.3244,390.2221 208.162,391.3168 207.8931,392.3902 207.5203,393.4321 207.0472,394.4325 206.4783,395.3816 205.8191,396.2705 205.0759,397.0904 204.256,397.8336 203.3671,398.4928 202.418,399.0617 201.4176,399.5348 200.3757,399.9076 199.3023,400.1765 198.2076,400.3389 197.1024,400.3932 195.9971,400.3389 194.9025,400.1765 193.829,399.9076 192.7871,399.5348 191.7867,399.0617 190.8376,398.4928 189.9487,397.8336"/>
    <polygon points="181.0615,380.6633 180.6112,380.5505 180.1742,380.3941 179.7546,380.1957 179.3564,379.957 178.9836,379.6805 178.6397,379.3688 178.3279,379.0249 178.0514,378.652 177.8128,378.2539 177.6143,377.8343 177.458,377.3972 177.3452,376.947 177.2771,376.4878 177.2543,376.0242 177.2771,375.5606 177.3452,375.1014 177.458,374.6512 177.6143,374.2141 177.8128,373.7945 178.0514,373.3964 178.3279,373.0235 178.6397,372.6796 178.9836,372.3679 179.3564,372.0914 179.7546,371.8527 180.1742,371.6543 180.6112,371.4979 181.0615,371.3851 181.5206,371.317 181.9843,371.2942 182.4479,371.317 182.907,371.3851 183.3573,371.4979 183.7943,371.6543 184.2139,371.8527 184.6121,372.0914 184.9849,372.3679 185.3288,372.6796 185.6406,373.0235 185.9171,373.3964 186.1557,373.7945 186.3542,374.2141 186.5106,374.6512 186.6233,375.1014 186.6914,375.5606 186.7142,376.0242 186.6914,376.4878 186.6233,376.947 186.5106,377.3972 186.3542,377.8343 186.1557,378.2539 185.9171,378.652 185.6406,379.0249 185.3288,379.3688 184.9849,379.6805 184.6121,379.957 184.2139,380.1957 183.7943,380.3941 183.3573,380.5505 182.907,380.6633 182.4479,380.7314 181.9843,380.7542 181.5206,380.7314"/>
    <polygon points="197.1024,374.2078 195.9971,374.1535 194.9025,373.9912 193.829,373.7223 192.7871,373.3495 191.7867,372.8763 190.8376,372.3074 189.9487,371.6482 189.1288,370.9051 188.3857,370.0851 187.7265,369.1963 187.1575,368.2471 186.6844,367.2468 186.3116,366.2049 186.0427,365.1314 185.8804,364.0368 185.8261,362.9315 185.8804,361.8263 186.0427,360.7316 186.3116,359.6582 186.6844,358.6163 187.1575,357.6159 187.7265,356.6668 188.3857,355.7779 189.1288,354.958 189.9487,354.2148 190.8376,353.5556 191.7867,352.9867 192.7871,352.5136 193.829,352.1408 194.9025,351.8719 195.9971,351.7095 197.1024,351.6552 198.2076,351.7095 199.3023,351.8719 200.3757,352.1408 201.4176,352.5136 202.418,352.9867 203.3671,353.5556 204.256,354.2148 205.0759,354.958 205.8191,355.7779 206.4783,356.6668 207.0472,357.6159 207.5203,358.6163 207.8931,359.6582 208.162,360.7316 208.3244,361.8263 208.3787,362.9315 208.3244,364.0368 208.162,365.1314 207.8931,366.2049 207.5203,367.2468 207.0472,368.2471 206.4783,369.1963 205.8191,370.0851 205.0759,370.9051 204.256,371.6482 203.3671,372.3074 202.418,372.8763 201.4176,373.3495 200.3757,373.7223 199.3023,373.9912 198.2076,374.1535"/>
    <polygon points="212.6554,372.8225 212.9993,373.1342 213.3722,373.4107 213.7703,373.6493 214.1899,373.8478 214.627,374.0042 215.0772,374.117 215.5364,374.1851 216.0,374.2078 216.4636,374.1851 216.9228,374.117 217.373,374.0042 217.8101,373.8478 218.2297,373.6493 218.6278,373.4107 219.0007,373.1342 219.3446,372.8225 219.6563,372.4785 219.9328,372.1057 220.1715,371.7076 220.3699,371.288 220.5263,370.8509 220.6391,370.4006 220.7072,369.9415 220.73,369.4779 220.7072,369.0142 220.6391,368.5551 220.5263,368.1048 220.3699,367.6678 220.1715,367.2482 219.9328,366.85 219.6563,366.4772 219.3446,366.1333 219.0007,365.8215 218.6278,365.545 218.2297,365.3064 217.8101,365.1079 217.373,364.9516 216.9228,364.8388 216.4636,364.7707 216.0,364.7479 215.5364,364.7707 215.0772,364.8388 214.627,364.9516 214.1899,365.1079 213.7703,365.3064 213.3722,365.545 212.9993,365.8215 212.6554,366.1333 212.3437,366.4772 212.0672,366.85 211.8285,367.2482 211.6301,367.6678 211.4737,368.1048 211.3609,368.5551 211.2928,369.0142 211.27,369.4779 211.2928,369.9415 211.3609,370.4006 211.4737,370.8509 211.6301,371.288 211.8285,371.7076 212.0672,372.1057 212.3437,372.4785"/>
    <polygon points="220.5263,381.1975 220.3699,380.7605 220.1715,380.3408 219.9328,379.9427 219.6563,379.5699 219.3446,379.2259 219.0007,378.9142 218.6278,378.6377 218.2297,378.3991 217.8101,378.2006 217.373,378.0442 216.9228,377.9314 216.4636,377.8633 216.0,377.8406 215.5364,377.8633 215.0772,377.9314 214.627,378.0442 214.1899,378.2006 213.7703,378.3991 213.3722,378.6377 212.9993,378.9142 212.6554,379.2259 212.3437,379.5699 212.0672,379.9427 211.8285,380.3408 211.6301,380.7605 211.4737,381.1975 211.3609,381.6478 211.2928,382.1069 211.27,382.5705 211.2928,383.0342 211.3609,383.4933 211.4737,383.9436 211.6301,384.3806 211.8285,384.8002 212.0672,385.1984 212.3437,385.5712 212.6554,385.9151 212.9993,386.2269 213.3722,386.5034 213.7703,386.742 214.1899,386.9405 214.627,387.0968 215.0772,387.2096 215.5364,387.2777 216.0,387.3005 216.4636,387.2777 216.9228,387.2096 217.373,387.0968 217.8101,386.9405 218.2297,386.742 218.6278,386.5034 219.0007,386.2269 219.3446,385.9151 219.6563,385.5712 219.9328,385.1984 220.1715,384.8002 220.3699,384.3806 220.5263,383.9436 220.6391,383.4933 220.7072,383.0342 220.73,382.5705 220.7072,382.1069 220.6391,381.6478"/>
    <polygon points="220.73,343.2925 220.7072,343.7562 220.6391,344.2153 220.5263,344.6656 220.3699,345.1026 220.1715,345.5222 219.9328,345.9204 219.6563,346.2932 219.3446,346.6371 219.0007,346.9489 218.6278,347.2254 218.2297,347.464 217.8101,347.6625 217.373,347.8188 216.9228,347.9316 216.4636,347.9997 216.0,348.0225 215.5364,347.9997 215.0772,347.9316 214.627,347.8188 214.1899,347.6625 213.7703,347.464 213.3722,347.2254 212.9993,346.9489 212.6554,346.6371 212.3437,346.2932 212.0672,345.9204 211.8285,345.5222 211.6301,345.1026 211.4737,344.6656 211.3609,344.2153 211.2928,343.7562 211.27,343.2925 211.2928,342.8289 211.3609,342.3698 211.4737,341.9195 211.6301,341.4825 211.8285,341.0628 212.0672,340.6647 212.3437,340.2919 212.6554,339.9479 212.9993,339.6362 213.3722,339.3597 213.7703,339.1211 214.1899,338.9226 214.627,338.7662 215.0772,338.6534 215.5364,338.5853 216.0,338.5626 216.4636,338.5853 216.9228,338.6534 217.373,338.7662 217.8101,338.9226 218.2297,339.1211 218.6278,339.3597 219.0007,339.6362 219.3446,339.9479 219.6563,340.2919 219.9328,340.6647 220.1715,341.0628 220.3699,341.4825 220.5263,341.9195 220.6391,342.3698 220.7072,342.8289"/>
    <polygon points="223.1671,338.9759 222.9687,338.5563 222.8123,338.1192 222.6995,337.669 222.6314,337.2098 222.6086,336.7462 222.6314,336.2826 222.6995,335.8234 222.8123,335.3732 222.9687,334.9361 223.1671,334.5165 223.4058,334.1184 223.6823,333.7455 223.994,333.4016 224.3379,333.0899 224.7108,332.8134 225.1089,332.5747 225.5285,332.3763 225.9655,332.2199 226.4158,332.1071 226.875,332.039 227.3386,332.0162 227.8022,332.039 228.2614,332.1071 228.7116,332.2199 229.1487,332.3763 229.5683,332.5747 229.9664,332.8134 230.3392,333.0899 230.6832,333.4016 230.9949,333.7455 231.2714,334.1184 231.51,334.5165 231.7085,334.9361 231.8649,335.3732 231.9777,335.8234 232.0458,336.2826 232.0686,336.7462 232.0458,337.2098 231.9777,337.669 231.8649,338.1192 231.7085,338.5563 231.51,338.9759 231.2714,339.374 230.9949,339.7469 230.6832,340.0908 230.3392,340.4025 229.9664,340.679 229.5683,340.9177 229.1487,341.1161 228.7116,341.2725 228.2614,341.3853 227.8022,341.4534 227.3386,341.4762 226.875,341.4534 226.4158,341.3853 225.9655,341.2725 225.5285,341.1161 225.1089,340.9177 224.7108,340.679 224.3379,340.4025 223.994,340.0908 223.6823,339.7469 223.4058,339.374"/>
    <polygon points="209.4156,321.3689 207.05,321.7198 204.6614,321.8372 202.2728,321.7198 199.9073,321.3689 197.5875,320.7879 195.3358,319.9822 193.174,318.9597 191.1227,317.7303 189.2019,316.3057 187.43,314.6997 185.8239,312.9277 184.3994,311.0069 183.1699,308.9557 182.1474,306.7938 181.3418,304.5421 180.7607,302.2223 180.4098,299.8568 180.2924,297.4682 180.4098,295.0796 180.7607,292.714 181.3418,290.3943 182.1474,288.1426 183.1699,285.9807 184.3994,283.9295 185.8239,282.0087 187.43,280.2367 189.2019,278.6307 191.1227,277.2061 193.174,275.9767 195.3358,274.9542 197.5875,274.1485 199.9073,273.5675 202.2728,273.2166 204.6614,273.0992 207.05,273.2166 209.4156,273.5675 211.7354,274.1485 213.987,274.9542 216.1489,275.9767 218.2001,277.2061 220.1209,278.6307 221.8929,280.2367 223.4989,282.0087 224.9235,283.9295 226.1529,285.9807 227.1754,288.1426 227.9811,290.3943 228.5621,292.714 228.913,295.0796 229.0304,297.4682 228.913,299.8568 228.5621,302.2223 227.9811,304.5421 227.1754,306.7938 226.1529,308.9557 224.9235,311.0069 223.4989,312.9277 221.8929,314.6997 220.1209,316.3057 218.2001,317.7303 216.1489,318.9597 213.987,319.9822 211.7354,320.7879"/>
    <polygon points="189.1288,344.7198 188.3857,343.8998 187.7265,343.011 187.1575,342.0618 186.6844,341.0615 186.3116,340.0195 186.0427,338.9461 185.8804,337.8515 185.8261,336.7462 185.8804,335.6409 186.0427,334.5463 186.3116,333.4729 186.6844,332.4309 187.1575,331.4306 187.7265,330.4814 188.3857,329.5926 189.1288,328.7726 189.9487,328.0295 190.8376,327.3703 191.7867,326.8014 192.7871,326.3283 193.829,325.9554 194.9025,325.6866 195.9971,325.5242 197.1024,325.4699 198.2076,325.5242 199.3023,325.6866 200.3757,325.9554 201.4176,326.3283 202.418,326.8014 203.3671,327.3703 204.256,328.0295 205.0759,328.7726 205.8191,329.5926 206.4783,330.4814 207.0472,331.4306 207.5203,332.4309 207.8931,333.4729 208.162,334.5463 208.3244,335.6409 208.3787,336.7462 208.3244,337.8515 208.162,338.9461 207.8931,340.0195 207.5203,341.0615 207.0472,342.0618 206.4783,343.011 205.8191,343.8998 205.0759,344.7198 204.256,345.4629 203.3671,346.1221 202.418,346.691 201.4176,347.1641 200.3757,347.537 199.3023,347.8058 198.2076,347.9682 197.1024,348.0225 195.9971,347.9682 194.9025,347.8058 193.829,347.537 192.7871,347.1641 191.7867,346.691 190.8376,346.1221 189.9487,345.4629"/>
    <polygon points="185.6406,346.8382 185.9171,347.211 186.1557,347.6092 186.3542,348.0288 186.5106,348.4658 186.6233,348.9161 186.6914,349.3752 186.7142,349.8389 186.6914,350.3025 186.6233,350.7616 186.5106,351.2119 186.3542,351.6489 186.1557,352.0686 185.9171,352.4667 185.6406,352.8395 185.3288,353.1835 184.9849,353.4952 184.6121,353.7717 184.2139,354.0103 183.7943,354.2088 183.3573,354.3652 182.907,354.478 182.4479,354.5461 181.9843,354.5688 181.5206,354.5461 181.0615,354.478 180.6112,354.3652 180.1742,354.2088 179.7546,354.0103 179.3564,353.7717 178.9836,353.4952 178.6397,353.1835 178.3279,352.8395 178.0514,352.4667 177.8128,352.0686 177.6143,351.6489 177.458,351.2119 177.3452,350.7616 177.2771,350.3025 177.2543,349.8389 177.2771,349.3752 177.3452,348.9161 177.458,348.4658 177.6143,348.0288 177.8128,347.6092 178.0514,347.211 178.3279,346.8382 178.6397,346.4943 178.9836,346.1825 179.3564,345.906 179.7546,345.6674 180.1742,345.4689 180.6112,345.3126 181.0615,345.1998 181.5206,345.1317 181.9843,345.1089 182.4479,345.1317 182.907,345.1998 183.3573,345.3126 183.7943,345.4689 184.2139,345.6674 184.6121,345.906 184.9849,346.1825 185.3288,346.4943"/>
    <polygon points="176.5386,340.885 178.1446,339.113 179.5691,337.1922 180.7986,335.141 181.8211,332.9791 182.6267,330.7275 183.2078,328.4077 183.5587,326.0421 183.6761,323.6535 183.5587,321.265 183.2078,318.8994 182.6267,316.5796 181.8211,314.3279 180.7986,312.1661 179.5691,310.1149 178.1446,308.194 176.5386,306.4221 174.7666,304.8161 172.8458,303.3915 170.7945,302.162 168.6327,301.1395 166.381,300.3339 164.0612,299.7528 161.6957,299.4019 159.3071,299.2846 156.9185,299.4019 154.5529,299.7528 152.2331,300.3339 149.9815,301.1395 147.8196,302.162 145.7684,303.3915 143.8476,304.8161 142.0756,306.4221 140.4696,308.194 139.045,310.1149 137.8156,312.1661 136.7931,314.3279 135.9874,316.5796 135.4064,318.8994 135.0555,321.265 134.9381,323.6535 135.0555,326.0421 135.4064,328.4077 135.9874,330.7275 136.7931,332.9791 137.8156,335.141 139.045,337.1922 140.4696,339.113 142.0756,340.885 143.8476,342.491 145.7684,343.9156 147.8196,345.145 149.9815,346.1675 152.2331,346.9732 154.5529,347.5543 156.9185,347.9052 159.3071,348.0225 161.6957,347.9052 164.0612,347.5543 166.381,346.9732 168.6327,346.1675 170.7945,345.145 172.8458,343.9156 174.7666,342.491"/>
    <polygon points="170.6457,361.1152 170.1821,361.0924 169.7229,361.0243 169.2726,360.9115 168.8356,360.7551 168.416,360.5567 168.0178,360.318 167.645,360.0415 167.3011,359.7298 166.9894,359.3859 166.7128,359.013 166.4742,358.6149 166.2757,358.1953 166.1194,357.7582 166.0066,357.308 165.9385,356.8488 165.9157,356.3852 165.9385,355.9216 166.0066,355.4624 166.1194,355.0122 166.2757,354.5751 166.4742,354.1555 166.7128,353.7574 166.9894,353.3845 167.3011,353.0406 167.645,352.7289 168.0178,352.4524 168.416,352.2137 168.8356,352.0153 169.2726,351.8589 169.7229,351.7461 170.1821,351.678 170.6457,351.6552 171.1093,351.678 171.5684,351.7461 172.0187,351.8589 172.4558,352.0153 172.8754,352.2137 173.2735,352.4524 173.6463,352.7289 173.9903,353.0406 174.302,353.3845 174.5785,353.7574 174.8171,354.1555 175.0156,354.5751 175.172,355.0122 175.2848,355.4624 175.3529,355.9216 175.3756,356.3852 175.3529,356.8488 175.2848,357.308 175.172,357.7582 175.0156,358.1953 174.8171,358.6149 174.5785,359.013 174.302,359.3859 173.9903,359.7298 173.6463,360.0415 173.2735,360.318 172.8754,360.5567 172.4558,360.7551 172.0187,360.9115 171.5684,361.0243 171.1093,361.0924"/>
    <polygon points="155.6508,359.9309 155.9625,359.5869 156.3064,359.2752 156.6793,358.9987 157.0774,358.7601 157.497,358.5616 157.934,358.4052 158.3843,358.2924 158.8435,358.2243 159.3071,358.2016 159.7707,358.2243 160.2299,358.2924 160.6801,358.4052 161.1172,358.5616 161.5368,358.7601 161.9349,358.9987 162.3077,359.2752 162.6517,359.5869 162.9634,359.9309 163.2399,360.3037 163.4786,360.7018 163.677,361.1215 163.8334,361.5585 163.9462,362.0088 164.0143,362.4679 164.0371,362.9315 164.0143,363.3952 163.9462,363.8543 163.8334,364.3046 163.677,364.7416 163.4786,365.1612 163.2399,365.5594 162.9634,365.9322 162.6517,366.2761 162.3077,366.5879 161.9349,366.8644 161.5368,367.103 161.1172,367.3015 160.6801,367.4578 160.2299,367.5706 159.7707,367.6387 159.3071,367.6615 158.8435,367.6387 158.3843,367.5706 157.934,367.4578 157.497,367.3015 157.0774,367.103 156.6793,366.8644 156.3064,366.5879 155.9625,366.2761 155.6508,365.9322 155.3743,365.5594 155.1356,365.1612 154.9372,364.7416 154.7808,364.3046 154.668,363.8543 154.5999,363.3952 154.5771,362.9315 154.5999,362.4679 154.668,362.0088 154.7808,361.5585 154.9372,361.1215 155.1356,360.7018 155.3743,360.3037"/>
    <polygon points="120.3542,342.6853 121.0973,341.8653 121.9173,341.1222 122.8061,340.463 123.7553,339.8941 124.7556,339.4209 125.7975,339.0481 126.871,338.7792 127.9656,338.6169 129.0709,338.5626 130.1761,338.6169 131.2708,338.7792 132.3442,339.0481 133.3861,339.4209 134.3865,339.8941 135.3356,340.463 136.2245,341.1222 137.0444,341.8653 137.7876,342.6853 138.4468,343.5741 139.0157,344.5233 139.4888,345.5236 139.8616,346.5655 140.1305,347.639 140.2929,348.7336 140.3472,349.8389 140.2929,350.9441 140.1305,352.0388 139.8616,353.1122 139.4888,354.1541 139.0157,355.1545 138.4468,356.1036 137.7876,356.9925 137.0444,357.8124 136.2245,358.5556 135.3356,359.2148 134.3865,359.7837 133.3861,360.2568 132.3442,360.6296 131.2708,360.8985 130.1761,361.0609 129.0709,361.1152 127.9656,361.0609 126.871,360.8985 125.7975,360.6296 124.7556,360.2568 123.7553,359.7837 122.8061,359.2148 121.9173,358.5556 121.0973,357.8124 120.3542,356.9925 119.695,356.1036 119.1261,355.1545 118.6529,354.1541 118.2801,353.1122 118.0112,352.0388 117.8489,350.9441 117.7946,349.8389 117.8489,348.7336 118.0112,347.639 118.2801,346.5655 118.6529,345.5236 119.1261,344.5233 119.695,343.5741"/>
    <polygon points="110.0199,339.374 109.7813,338.9759 109.5828,338.5563 109.4265,338.1192 109.3137,337.669 109.2456,337.2098 109.2228,336.7462 109.2456,336.2826 109.3137,335.8234 109.4265,335.3732 109.5828,334.9361 109.7813,334.5165 110.0199,334.1184 110.2964,333.7455 110.6082,333.4016 110.9521,333.0899 111.3249,332.8134 111.7231,332.5747 112.1427,332.3763 112.5797,332.2199 113.03,332.1071 113.4891,332.039 113.9528,332.0162 114.4164,332.039 114.8755,332.1071 115.3258,332.2199 115.7628,332.3763 116.1824,332.5747 116.5806,332.8134 116.9534,333.0899 117.2974,333.4016 117.6091,333.7455 117.8856,334.1184 118.1242,334.5165 118.3227,334.9361 118.4791,335.3732 118.5918,335.8234 118.66,336.2826 118.6827,336.7462 118.66,337.2098 118.5918,337.669 118.4791,338.1192 118.3227,338.5563 118.1242,338.9759 117.8856,339.374 117.6091,339.7469 117.2974,340.0908 116.9534,340.4025 116.5806,340.679 116.1824,340.9177 115.7628,341.1161 115.3258,341.2725 114.8755,341.3853 114.4164,341.4534 113.9528,341.4762 113.4891,341.4534 113.03,341.3853 112.5797,341.2725 112.1427,341.1161 111.7231,340.9177 111.3249,340.679 110.9521,340.4025 110.6082,340.0908 110.2964,339.7469"/>
    <polygon points="104.8439,326.0284 104.4243,325.8299 103.9872,325.6736 103.5369,325.5608 103.0778,325.4927 102.6142,325.4699 102.1506,325.4927 101.6914,325.5608 101.2411,325.6736 100.8041,325.8299 100.3845,326.0284 99.9863,326.267 99.6135,326.5435 99.2696,326.8553 98.9579,327.1992 98.6813,327.572 98.4427,327.9702 98.2442,328.3898 98.0879,328.8268 97.9751,329.2771 97.907,329.7362 97.8842,330.1999 97.907,330.6635 97.9751,331.1226 98.0879,331.5729 98.2442,332.0099 98.4427,332.4296 98.6813,332.8277 98.9579,333.2005 99.2696,333.5445 99.6135,333.8562 99.9863,334.1327 100.3845,334.3713 100.8041,334.5698 101.2411,334.7262 101.6914,334.839 102.1506,334.9071 102.6142,334.9298 103.0778,334.9071 103.5369,334.839 103.9872,334.7262 104.4243,334.5698 104.8439,334.3713 105.242,334.1327 105.6148,333.8562 105.9588,333.5445 106.2705,333.2005 106.547,332.8277 106.7856,332.4296 106.9841,332.0099 107.1405,331.5729 107.2533,331.1226 107.3214,330.6635 107.3441,330.1999 107.3214,329.7362 107.2533,329.2771 107.1405,328.8268 106.9841,328.3898 106.7856,327.9702 106.547,327.572 106.2705,327.1992 105.9588,326.8553 105.6148,326.5435 105.242,326.267"/>
    <polygon points="93.5053,319.4821 93.0857,319.2836 92.6486,319.1272 92.1984,319.0144 91.7392,318.9463 91.2756,318.9236 90.812,318.9463 90.3528,319.0144 89.9026,319.1272 89.4655,319.2836 89.0459,319.4821 88.6478,319.7207 88.2749,319.9972 87.931,320.3089 87.6193,320.6529 87.3428,321.0257 87.1041,321.4238 86.9057,321.8434 86.7493,322.2805 86.6365,322.7308 86.5684,323.1899 86.5456,323.6535 86.5684,324.1172 86.6365,324.5763 86.7493,325.0266 86.9057,325.4636 87.1041,325.8832 87.3428,326.2814 87.6193,326.6542 87.931,326.9981 88.2749,327.3098 88.6478,327.5864 89.0459,327.825 89.4655,328.0235 89.9026,328.1798 90.3528,328.2926 90.812,328.3607 91.2756,328.3835 91.7392,328.3607 92.1984,328.2926 92.6486,328.1798 93.0857,328.0235 93.5053,327.825 93.9034,327.5864 94.2763,327.3098 94.6202,326.9981 94.9319,326.6542 95.2084,326.2814 95.4471,325.8832 95.6455,325.4636 95.8019,325.0266 95.9147,324.5763 95.9828,324.1172 96.0056,323.6535 95.9828,323.1899 95.9147,322.7308 95.8019,322.2805 95.6455,321.8434 95.4471,321.4238 95.2084,321.0257 94.9319,320.6529 94.6202,320.3089 94.2763,319.9972 93.9034,319.7207"/>
    <polygon points="95.2084,307.933 94.9319,307.5602 94.6202,307.2163 94.2763,306.9045 93.9034,306.628 93.5053,306.3894 93.0857,306.1909 92.6486,306.0346 92.1984,305.9218 91.7392,305.8537 91.2756,305.8309 90.812,305.8537 90.3528,305.9218 89.9026,306.0346 89.4655,306.1909 89.0459,306.3894 88.6478,306.628 88.2749,306.9045 87.931,307.2163 87.6193,307.5602 87.3428,307.933 87.1041,308.3312 86.9057,308.7508 86.7493,309.1878 86.6365,309.6381 86.5684,310.0972 86.5456,310.5609 86.5684,311.0245 86.6365,311.4836 86.7493,311.9339 86.9057,312.3709 87.1041,312.7906 87.3428,313.1887 87.6193,313.5615 87.931,313.9055 88.2749,314.2172 88.6478,314.4937 89.0459,314.7323 89.4655,314.9308 89.9026,315.0872 90.3528,315.2 90.812,315.2681 91.2756,315.2908 91.7392,315.2681 92.1984,315.2 92.6486,315.0872 93.0857,314.9308 93.5053,314.7323 93.9034,314.4937 94.2763,314.2172 94.6202,313.9055 94.9319,313.5615 95.2084,313.1887 95.4471,312.7906 95.6455,312.3709 95.8019,311.9339 95.9147,311.4836 95.9828,311.0245 96.0056,310.5609 95.9828,310.0972 95.9147,309.6381 95.8019,309.1878 95.6455,308.7508 95.4471,308.3312"/>
    <polygon points="118.4791,309.1878 118.5918,309.6381 118.66,310.0972 118.6827,310.5609 118.66,311.0245 118.5918,311.4836 118.4791,311.9339 118.3227,312.3709 118.1242,312.7906 117.8856,313.1887 117.6091,313.5615 117.2974,313.9055 116.9534,314.2172 116.5806,314.4937 116.1824,314.7323 115.7628,314.9308 115.3258,315.0872 114.8755,315.2 114.4164,315.2681 113.9528,315.2908 113.4891,315.2681 113.03,315.2 112.5797,315.0872 112.1427,314.9308 111.7231,314.7323 111.3249,314.4937 110.9521,314.2172 110.6082,313.9055 110.2964,313.5615 110.0199,313.1887 109.7813,312.7906 109.5828,312.3709 109.4265,311.9339 109.3137,311.4836 109.2456,311.0245 109.2228,310.5609 109.2456,310.0972 109.3137,309.6381 109.4265,309.1878 109.5828,308.7508 109.7813,308.3312 110.0199,307.933 110.2964,307.5602 110.6082,307.2163 110.9521,306.9045 111.3249,306.628 111.7231,306.3894 112.1427,306.1909 112.5797,306.0346 113.03,305.9218 113.4891,305.8537 113.9528,305.8309 114.4164,305.8537 114.8755,305.9218 115.3258,306.0346 115.7628,306.1909 116.1824,306.3894 116.5806,306.628 116.9534,306.9045 117.2974,307.2163 117.6091,307.5602 117.8856,307.933 118.1242,308.3312 118.3227,308.7508"/>
    <polygon points="140.2929,296.3629 140.3472,297.4682 140.2929,298.5735 140.1305,299.6681 139.8616,300.7415 139.4888,301.7835 139.0157,302.7838 138.4468,303.733 137.7876,304.6218 137.0444,305.4417 136.2245,306.1849 135.3356,306.8441 134.3865,307.413 133.3861,307.8861 132.3442,308.2589 131.2708,308.5278 130.1761,308.6902 129.0709,308.7445 127.9656,308.6902 126.871,308.5278 125.7975,308.2589 124.7556,307.8861 123.7553,307.413 122.8061,306.8441 121.9173,306.1849 121.0973,305.4417 120.3542,304.6218 119.695,303.733 119.1261,302.7838 118.6529,301.7835 118.2801,300.7415 118.0112,299.6681 117.8489,298.5735 117.7946,297.4682 117.8489,296.3629 118.0112,295.2683 118.2801,294.1949 118.6529,293.1529 119.1261,292.1526 119.695,291.2034 120.3542,290.3146 121.0973,289.4946 121.9173,288.7515 122.8061,288.0923 123.7553,287.5234 124.7556,287.0502 125.7975,286.6774 126.871,286.4086 127.9656,286.2462 129.0709,286.1919 130.1761,286.2462 131.2708,286.4086 132.3442,286.6774 133.3861,287.0502 134.3865,287.5234 135.3356,288.0923 136.2245,288.7515 137.0444,289.4946 137.7876,290.3146 138.4468,291.2034 139.0157,292.1526 139.4888,293.1529 139.8616,294.1949 140.1305,295.2683"/>
    <polygon points="154.5771,284.3755 154.5999,283.9119 154.668,283.4528 154.7808,283.0025 154.9372,282.5654 155.1356,282.1458 155.3743,281.7477 155.6508,281.3749 155.9625,281.0309 156.3064,280.7192 156.6793,280.4427 157.0774,280.2041 157.497,280.0056 157.934,279.8492 158.3843,279.7364 158.8435,279.6683 159.3071,279.6456 159.7707,279.6683 160.2299,279.7364 160.6801,279.8492 161.1172,280.0056 161.5368,280.2041 161.9349,280.4427 162.3077,280.7192 162.6517,281.0309 162.9634,281.3749 163.2399,281.7477 163.4786,282.1458 163.677,282.5654 163.8334,283.0025 163.9462,283.4528 164.0143,283.9119 164.0371,284.3755 164.0143,284.8391 163.9462,285.2983 163.8334,285.7486 163.677,286.1856 163.4786,286.6052 163.2399,287.0034 162.9634,287.3762 162.6517,287.7201 162.3077,288.0318 161.9349,288.3084 161.5368,288.547 161.1172,288.7455 160.6801,288.9018 160.2299,289.0146 159.7707,289.0827 159.3071,289.1055 158.8435,289.0827 158.3843,289.0146 157.934,288.9018 157.497,288.7455 157.0774,288.547 156.6793,288.3084 156.3064,288.0318 155.9625,287.7201 155.6508,287.3762 155.3743,287.0034 155.1356,286.6052 154.9372,286.1856 154.7808,285.7486 154.668,285.2983 154.5999,284.8391"/>
    <polygon points="163.3656,269.083 163.6344,268.0095 164.0072,266.9676 164.4804,265.9672 165.0493,265.0181 165.7085,264.1292 166.4516,263.3093 167.2716,262.5662 168.1604,261.907 169.1096,261.338 170.1099,260.8649 171.1519,260.4921 172.2253,260.2232 173.3199,260.0609 174.4252,260.0066 175.5305,260.0609 176.6251,260.2232 177.6985,260.4921 178.7405,260.8649 179.7408,261.338 180.69,261.907 181.5788,262.5662 182.3987,263.3093 183.1419,264.1292 183.8011,265.0181 184.37,265.9672 184.8431,266.9676 185.2159,268.0095 185.4848,269.083 185.6472,270.1776 185.7015,271.2829 185.6472,272.3881 185.4848,273.4828 185.2159,274.5562 184.8431,275.5981 184.37,276.5985 183.8011,277.5476 183.1419,278.4365 182.3987,279.2564 181.5788,279.9996 180.69,280.6588 179.7408,281.2277 178.7405,281.7008 177.6985,282.0736 176.6251,282.3425 175.5305,282.5049 174.4252,282.5592 173.3199,282.5049 172.2253,282.3425 171.1519,282.0736 170.1099,281.7008 169.1096,281.2277 168.1604,280.6588 167.2716,279.9996 166.4516,279.2564 165.7085,278.4365 165.0493,277.5476 164.4804,276.5985 164.0072,275.5981 163.6344,274.5562 163.3656,273.4828 163.2032,272.3881 163.1489,271.2829 163.2032,270.1776"/>
    <polygon points="139.9745,235.3495 139.6306,235.6612 139.2578,235.9377 138.8596,236.1763 138.44,236.3748 138.003,236.5312 137.5527,236.6439 137.0935,236.7121 136.6299,236.7348 136.1663,236.7121 135.7071,236.6439 135.2569,236.5312 134.8198,236.3748 134.4002,236.1763 134.0021,235.9377 133.6293,235.6612 133.2853,235.3495 132.9736,235.0055 132.6971,234.6327 132.4585,234.2346 132.26,233.8149 132.1036,233.3779 131.9908,232.9276 131.9227,232.4685 131.8999,232.0049 131.9227,231.5412 131.9908,231.0821 132.1036,230.6318 132.26,230.1948 132.4585,229.7752 132.6971,229.377 132.9736,229.0042 133.2853,228.6603 133.6293,228.3485 134.0021,228.072 134.4002,227.8334 134.8198,227.6349 135.2569,227.4786 135.7071,227.3658 136.1663,227.2977 136.6299,227.2749 137.0935,227.2977 137.5527,227.3658 138.003,227.4786 138.44,227.6349 138.8596,227.8334 139.2578,228.072 139.6306,228.3485 139.9745,228.6603 140.2862,229.0042 140.5627,229.377 140.8014,229.7752 140.9998,230.1948 141.1562,230.6318 141.269,231.0821 141.3371,231.5412 141.3599,232.0049 141.3371,232.4685 141.269,232.9276 141.1562,233.3779 140.9998,233.8149 140.8014,234.2346 140.5627,234.6327 140.2862,235.0055"/>
    <polygon points="150.1982,229.63 149.7786,229.8285 149.3415,229.9848 148.8913,230.0976 148.4321,230.1657 147.9685,230.1885 147.5049,230.1657 147.0457,230.0976 146.5955,229.9848 146.1584,229.8285 145.7388,229.63 145.3407,229.3914 144.9678,229.1148 144.6239,228.8031 144.3122,228.4592 144.0357,228.0864 143.797,227.6882 143.5986,227.2686 143.4422,226.8316 143.3294,226.3813 143.2613,225.9221 143.2385,225.4585 143.2613,224.9949 143.3294,224.5358 143.4422,224.0855 143.5986,223.6484 143.797,223.2288 144.0357,222.8307 144.3122,222.4579 144.6239,222.1139 144.9678,221.8022 145.3407,221.5257 145.7388,221.2871 146.1584,221.0886 146.5955,220.9322 147.0457,220.8194 147.5049,220.7513 147.9685,220.7286 148.4321,220.7513 148.8913,220.8194 149.3415,220.9322 149.7786,221.0886 150.1982,221.2871 150.5963,221.5257 150.9692,221.8022 151.3131,222.1139 151.6248,222.4579 151.9013,222.8307 152.14,223.2288 152.3384,223.6484 152.4948,224.0855 152.6076,224.5358 152.6757,224.9949 152.6985,225.4585 152.6757,225.9221 152.6076,226.3813 152.4948,226.8316 152.3384,227.2686 152.14,227.6882 151.9013,228.0864 151.6248,228.4592 151.3131,228.8031 150.9692,229.1148 150.5963,229.3914"/>
    <polygon points="163.8334,233.3779 163.9462,232.9276 164.0143,232.4685 164.0371,232.0049 164.0143,231.5412 163.9462,231.0821 163.8334,230.6318 163.677,230.1948 163.4786,229.7752 163.2399,229.377 162.9634,229.0042 162.6517,228.6603 162.3077,228.3485 161.9349,228.072 161.5368,227.8334 161.1172,227.6349 160.6801,227.4786 160.2299,227.3658 159.7707,227.2977 159.3071,227.2749 158.8435,227.2977 158.3843,227.3658 157.934,227.4786 157.497,227.6349 157.0774,227.8334 156.6793,228.072 156.3064,228.3485 155.9625,228.6603 155.6508,229.0042 155.3743,229.377 155.1356,229.7752 154.9372,230.1948 154.7808,230.6318 154.668,231.0821 154.5999,231.5412 154.5771,232.0049 154.5999,232.4685 154.668,232.9276 154.7808,233.3779 154.9372,233.8149 155.1356,234.2346 155.3743,234.6327 155.6508,235.0055 155.9625,235.3495 156.3064,235.6612 156.6793,235.9377 157.0774,236.1763 157.497,236.3748 157.934,236.5312 158.3843,236.6439 158.8435,236.7121 159.3071,236.7348 159.7707,236.7121 160.2299,236.6439 160.6801,236.5312 161.1172,236.3748 161.5368,236.1763 161.9349,235.9377 162.3077,235.6612 162.6517,235.3495 162.9634,235.0055 163.2399,234.6327 163.4786,234.2346 163.677,233.8149"/>
    <polygon points="172.2253,229.9718 173.3199,230.1342 174.4252,230.1885 175.5305,230.1342 176.6251,229.9718 177.6985,229.7029 178.7405,229.3301 179.7408,228.857 180.69,228.2881 181.5788,227.6289 182.3987,226.8857 183.1419,226.0658 183.8011,225.177 184.37,224.2278 184.8431,223.2274 185.2159,222.1855 185.4848,221.1121 185.6472,220.0175 185.7015,218.9122 185.6472,217.8069 185.4848,216.7123 185.2159,215.6389 184.8431,214.5969 184.37,213.5966 183.8011,212.6474 183.1419,211.7586 182.3987,210.9386 181.5788,210.1955 180.69,209.5363 179.7408,208.9674 178.7405,208.4942 177.6985,208.1214 176.6251,207.8526 175.5305,207.6902 174.4252,207.6359 173.3199,207.6902 172.2253,207.8526 171.1519,208.1214 170.1099,208.4942 169.1096,208.9674 168.1604,209.5363 167.2716,210.1955 166.4516,210.9386 165.7085,211.7586 165.0493,212.6474 164.4804,213.5966 164.0072,214.5969 163.6344,215.6389 163.3656,216.7123 163.2032,217.8069 163.1489,218.9122 163.2032,220.0175 163.3656,221.1121 163.6344,222.1855 164.0072,223.2274 164.4804,224.2278 165.0493,225.177 165.7085,226.0658 166.4516,226.8857 167.2716,227.6289 168.1604,228.2881 169.1096,228.857 170.1099,229.3301 171.1519,229.7029"/>
    <polygon points="157.934,201.2932 157.497,201.4496 157.0774,201.6481 156.6793,201.8867 156.3064,202.1632 155.9625,202.4749 155.6508,202.8189 155.3743,203.1917 155.1356,203.5898 154.9372,204.0094 154.7808,204.4465 154.668,204.8968 154.5999,205.3559 154.5771,205.8195 154.5999,206.2831 154.668,206.7423 154.7808,207.1926 154.9372,207.6296 155.1356,208.0492 155.3743,208.4474 155.6508,208.8202 155.9625,209.1641 156.3064,209.4758 156.6793,209.7524 157.0774,209.991 157.497,210.1894 157.934,210.3458 158.3843,210.4586 158.8435,210.5267 159.3071,210.5495 159.7707,210.5267 160.2299,210.4586 160.6801,210.3458 161.1172,210.1894 161.5368,209.991 161.9349,209.7524 162.3077,209.4758 162.6517,209.1641 162.9634,208.8202 163.2399,208.4474 163.4786,208.0492 163.677,207.6296 163.8334,207.1926 163.9462,206.7423 164.0143,206.2831 164.0371,205.8195 164.0143,205.3559 163.9462,204.8968 163.8334,204.4465 163.677,204.0094 163.4786,203.5898 163.2399,203.1917 162.9634,202.8189 162.6517,202.4749 162.3077,202.1632 161.9349,201.8867 161.5368,201.6481 161.1172,201.4496 160.6801,201.2932 160.2299,201.1804 159.7707,201.1123 159.3071,201.0896 158.8435,201.1123 158.3843,201.1804"/>
    <polygon points="152.14,175.3175 152.3384,174.8979 152.4948,174.4609 152.6076,174.0106 152.6757,173.5515 152.6985,173.0879 152.6757,172.6242 152.6076,172.1651 152.4948,171.7148 152.3384,171.2778 152.14,170.8582 151.9013,170.46 151.6248,170.0872 151.3131,169.7433 150.9692,169.4315 150.5963,169.155 150.1982,168.9164 149.7786,168.7179 149.3415,168.5616 148.8913,168.4488 148.4321,168.3807 147.9685,168.3579 147.5049,168.3807 147.0457,168.4488 146.5955,168.5616 146.1584,168.7179 145.7388,168.9164 145.3407,169.155 144.9678,169.4315 144.6239,169.7433 144.3122,170.0872 144.0357,170.46 143.797,170.8582 143.5986,171.2778 143.4422,171.7148 143.3294,172.1651 143.2613,172.6242 143.2385,173.0879 143.2613,173.5515 143.3294,174.0106 143.4422,174.4609 143.5986,174.8979 143.797,175.3175 144.0357,175.7157 144.3122,176.0885 144.6239,176.4325 144.9678,176.7442 145.3407,177.0207 145.7388,177.2593 146.1584,177.4578 146.5955,177.6142 147.0457,177.7269 147.5049,177.7951 147.9685,177.8178 148.4321,177.7951 148.8913,177.7269 149.3415,177.6142 149.7786,177.4578 150.1982,177.2593 150.5963,177.0207 150.9692,176.7442 151.3131,176.4325 151.6248,176.0885 151.9013,175.7157"/>
    <polygon points="147.0457,164.6343 147.5049,164.7024 147.9685,164.7252 148.4321,164.7024 148.8913,164.6343 149.3415,164.5215 149.7786,164.3651 150.1982,164.1667 150.5963,163.928 150.9692,163.6515 151.3131,163.3398 151.6248,162.9959 151.9013,162.623 152.14,162.2249 152.3384,161.8053 152.4948,161.3682 152.6076,160.918 152.6757,160.4588 152.6985,159.9952 152.6757,159.5316 152.6076,159.0724 152.4948,158.6221 152.3384,158.1851 152.14,157.7655 151.9013,157.3674 151.6248,156.9945 151.3131,156.6506 150.9692,156.3389 150.5963,156.0624 150.1982,155.8237 149.7786,155.6253 149.3415,155.4689 148.8913,155.3561 148.4321,155.288 147.9685,155.2652 147.5049,155.288 147.0457,155.3561 146.5955,155.4689 146.1584,155.6253 145.7388,155.8237 145.3407,156.0624 144.9678,156.3389 144.6239,156.6506 144.3122,156.9945 144.0357,157.3674 143.797,157.7655 143.5986,158.1851 143.4422,158.6221 143.3294,159.0724 143.2613,159.5316 143.2385,159.9952 143.2613,160.4588 143.3294,160.918 143.4422,161.3682 143.5986,161.8053 143.797,162.2249 144.0357,162.623 144.3122,162.9959 144.6239,163.3398 144.9678,163.6515 145.3407,163.928 145.7388,164.1667 146.1584,164.3651 146.5955,164.5215"/>
    <polygon points="158.3843,158.0879 158.8435,158.1561 159.3071,158.1788 159.7707,158.1561 160.2299,158.0879 160.6801,157.9752 161.1172,157.8188 161.5368,157.6203 161.9349,157.3817 162.3077,157.1052 162.6517,156.7934 162.9634,156.4495 163.2399,156.0767 163.4786,155.6785 163.677,155.2589 163.8334,154.8219 163.9462,154.3716 164.0143,153.9125 164.0371,153.4489 164.0143,152.9852 163.9462,152.5261 163.8334,152.0758 163.677,151.6388 163.4786,151.2192 163.2399,150.821 162.9634,150.4482 162.6517,150.1043 162.3077,149.7925 161.9349,149.516 161.5368,149.2774 161.1172,149.0789 160.6801,148.9226 160.2299,148.8098 159.7707,148.7417 159.3071,148.7189 158.8435,148.7417 158.3843,148.8098 157.934,148.9226 157.497,149.0789 157.0774,149.2774 156.6793,149.516 156.3064,149.7925 155.9625,150.1043 155.6508,150.4482 155.3743,150.821 155.1356,151.2192 154.9372,151.6388 154.7808,152.0758 154.668,152.5261 154.5999,152.9852 154.5771,153.4489 154.5999,153.9125 154.668,154.3716 154.7808,154.8219 154.9372,155.2589 155.1356,155.6785 155.3743,156.0767 155.6508,156.4495 155.9625,156.7934 156.3064,157.1052 156.6793,157.3817 157.0774,157.6203 157.497,157.8188 157.934,157.9752"/>
    <polygon points="163.9462,178.7114 164.0143,179.1706 164.0371,179.6342 164.0143,180.0978 163.9462,180.557 163.8334,181.0072 163.677,181.4443 163.4786,181.8639 163.2399,182.262 162.9634,182.6349 162.6517,182.9788 162.3077,183.2905 161.9349,183.567 161.5368,183.8057 161.1172,184.0041 160.6801,184.1605 160.2299,184.2733 159.7707,184.3414 159.3071,184.3642 158.8435,184.3414 158.3843,184.2733 157.934,184.1605 157.497,184.0041 157.0774,183.8057 156.6793,183.567 156.3064,183.2905 155.9625,182.9788 155.6508,182.6349 155.3743,182.262 155.1356,181.8639 154.9372,181.4443 154.7808,181.0072 154.668,180.557 154.5999,180.0978 154.5771,179.6342 154.5999,179.1706 154.668,178.7114 154.7808,178.2612 154.9372,177.8241 155.1356,177.4045 155.3743,177.0064 155.6508,176.6335 155.9625,176.2896 156.3064,175.9779 156.6793,175.7014 157.0774,175.4627 157.497,175.2643 157.934,175.1079 158.3843,174.9951 158.8435,174.927 159.3071,174.9042 159.7707,174.927 160.2299,174.9951 160.6801,175.1079 161.1172,175.2643 161.5368,175.4627 161.9349,175.7014 162.3077,175.9779 162.6517,176.2896 162.9634,176.6335 163.2399,177.0064 163.4786,177.4045 163.677,177.8241 163.8334,178.2612"/>
    <polygon points="163.9462,191.8041 164.0143,192.2632 164.0371,192.7269 164.0143,193.1905 163.9462,193.6496 163.8334,194.0999 163.677,194.5369 163.4786,194.9566 163.2399,195.3547 162.9634,195.7275 162.6517,196.0715 162.3077,196.3832 161.9349,196.6597 161.5368,196.8983 161.1172,197.0968 160.6801,197.2532 160.2299,197.3659 159.7707,197.4341 159.3071,197.4568 158.8435,197.4341 158.3843,197.3659 157.934,197.2532 157.497,197.0968 157.0774,196.8983 156.6793,196.6597 156.3064,196.3832 155.9625,196.0715 155.6508,195.7275 155.3743,195.3547 155.1356,194.9566 154.9372,194.5369 154.7808,194.0999 154.668,193.6496 154.5999,193.1905 154.5771,192.7269 154.5999,192.2632 154.668,191.8041 154.7808,191.3538 154.9372,190.9168 155.1356,190.4972 155.3743,190.099 155.6508,189.7262 155.9625,189.3823 156.3064,189.0705 156.6793,188.794 157.0774,188.5554 157.497,188.3569 157.934,188.2006 158.3843,188.0878 158.8435,188.0197 159.3071,187.9969 159.7707,188.0197 160.2299,188.0878 160.6801,188.2006 161.1172,188.3569 161.5368,188.5554 161.9349,188.794 162.3077,189.0705 162.6517,189.3823 162.9634,189.7262 163.2399,190.099 163.4786,190.4972 163.677,190.9168 163.8334,191.3538"/>
    <polygon points="173.9903,202.6178 173.6463,202.9295 173.2735,203.206 172.8754,203.4447 172.4558,203.6431 172.0187,203.7995 171.5684,203.9123 171.1093,203.9804 170.6457,204.0032 170.1821,203.9804 169.7229,203.9123 169.2726,203.7995 168.8356,203.6431 168.416,203.4447 168.0178,203.206 167.645,202.9295 167.3011,202.6178 166.9894,202.2739 166.7128,201.901 166.4742,201.5029 166.2757,201.0833 166.1194,200.6462 166.0066,200.196 165.9385,199.7368 165.9157,199.2732 165.9385,198.8096 166.0066,198.3504 166.1194,197.9002 166.2757,197.4631 166.4742,197.0435 166.7128,196.6454 166.9894,196.2725 167.3011,195.9286 167.645,195.6169 168.0178,195.3404 168.416,195.1017 168.8356,194.9033 169.2726,194.7469 169.7229,194.6341 170.1821,194.566 170.6457,194.5432 171.1093,194.566 171.5684,194.6341 172.0187,194.7469 172.4558,194.9033 172.8754,195.1017 173.2735,195.3404 173.6463,195.6169 173.9903,195.9286 174.302,196.2725 174.5785,196.6454 174.8171,197.0435 175.0156,197.4631 175.172,197.9002 175.2848,198.3504 175.3529,198.8096 175.3756,199.2732 175.3529,199.7368 175.2848,200.196 175.172,200.6462 175.0156,201.0833 174.8171,201.5029 174.5785,201.901 174.302,202.2739"/>
    <polygon points="194.9025,194.7599 195.9971,194.5975 197.1024,194.5432 198.2076,194.5975 199.3023,194.7599 200.3757,195.0288 201.4176,195.4016 202.418,195.8747 203.3671,196.4436 204.256,197.1028 205.0759,197.846 205.8191,198.6659 206.4783,199.5547 207.0472,200.5039 207.5203,201.5043 207.8931,202.5462 208.162,203.6196 208.3244,204.7143 208.3787,205.8195 208.3244,206.9248 208.162,208.0194 207.8931,209.0929 207.5203,210.1348 207.0472,211.1351 206.4783,212.0843 205.8191,212.9731 205.0759,213.7931 204.256,214.5362 203.3671,215.1954 202.418,215.7643 201.4176,216.2375 200.3757,216.6103 199.3023,216.8792 198.2076,217.0415 197.1024,217.0958 195.9971,217.0415 194.9025,216.8792 193.829,216.6103 192.7871,216.2375 191.7867,215.7643 190.8376,215.1954 189.9487,214.5362 189.1288,213.7931 188.3857,212.9731 187.7265,212.0843 187.1575,211.1351 186.6844,210.1348 186.3116,209.0929 186.0427,208.0194 185.8804,206.9248 185.8261,205.8195 185.8804,204.7143 186.0427,203.6196 186.3116,202.5462 186.6844,201.5043 187.1575,200.5039 187.7265,199.5547 188.3857,198.6659 189.1288,197.846 189.9487,197.1028 190.8376,196.4436 191.7867,195.8747 192.7871,195.4016 193.829,195.0288"/>
    <polygon points="220.7072,198.8096 220.73,199.2732 220.7072,199.7368 220.6391,200.196 220.5263,200.6462 220.3699,201.0833 220.1715,201.5029 219.9328,201.901 219.6563,202.2739 219.3446,202.6178 219.0007,202.9295 218.6278,203.206 218.2297,203.4447 217.8101,203.6431 217.373,203.7995 216.9228,203.9123 216.4636,203.9804 216.0,204.0032 215.5364,203.9804 215.0772,203.9123 214.627,203.7995 214.1899,203.6431 213.7703,203.4447 213.3722,203.206 212.9993,202.9295 212.6554,202.6178 212.3437,202.2739 212.0672,201.901 211.8285,201.5029 211.6301,201.0833 211.4737,200.6462 211.3609,200.196 211.2928,199.7368 211.27,199.2732 211.2928,198.8096 211.3609,198.3504 211.4737,197.9002 211.6301,197.4631 211.8285,197.0435 212.0672,196.6454 212.3437,196.2725 212.6554,195.9286 212.9993,195.6169 213.3722,195.3404 213.7703,195.1017 214.1899,194.9033 214.627,194.7469 215.0772,194.6341 215.5364,194.566 216.0,194.5432 216.4636,194.566 216.9228,194.6341 217.373,194.7469 217.8101,194.9033 218.2297,195.1017 218.6278,195.3404 219.0007,195.6169 219.3446,195.9286 219.6563,196.2725 219.9328,196.6454 220.1715,197.0435 220.3699,197.4631 220.5263,197.9002 220.6391,198.3504"/>
    <polygon points="234.4831,224.0313 235.3031,223.2882 236.1919,222.629 237.1411,222.06 238.1414,221.5869 239.1834,221.2141 240.2568,220.9452 241.3514,220.7829 242.4567,220.7286 243.562,220.7829 244.6566,220.9452 245.73,221.2141 246.7719,221.5869 247.7723,222.06 248.7215,222.629 249.6103,223.2882 250.4302,224.0313 251.1734,224.8512 251.8326,225.7401 252.4015,226.6892 252.8746,227.6896 253.2474,228.7315 253.5163,229.805 253.6787,230.8996 253.733,232.0049 253.6787,233.1101 253.5163,234.2048 253.2474,235.2782 252.8746,236.3201 252.4015,237.3205 251.8326,238.2696 251.1734,239.1585 250.4302,239.9784 249.6103,240.7216 248.7215,241.3808 247.7723,241.9497 246.7719,242.4228 245.73,242.7956 244.6566,243.0645 243.562,243.2269 242.4567,243.2812 241.3514,243.2269 240.2568,243.0645 239.1834,242.7956 238.1414,242.4228 237.1411,241.9497 236.1919,241.3808 235.3031,240.7216 234.4831,239.9784 233.74,239.1585 233.0808,238.2696 232.5119,237.3205 232.0387,236.3201 231.6659,235.2782 231.3971,234.2048 231.2347,233.1101 231.1804,232.0049 231.2347,230.8996 231.3971,229.805 231.6659,228.7315 232.0387,227.6896 232.5119,226.6892 233.0808,225.7401 233.74,224.8512"/>
    <polygon points="256.828,224.0855 256.9844,223.6484 257.1829,223.2288 257.4215,222.8307 257.698,222.4579 258.0097,222.1139 258.3537,221.8022 258.7265,221.5257 259.1246,221.2871 259.5442,221.0886 259.9813,220.9322 260.4316,220.8194 260.8907,220.7513 261.3543,220.7286 261.8179,220.7513 262.2771,220.8194 262.7274,220.9322 263.1644,221.0886 263.584,221.2871 263.9822,221.5257 264.355,221.8022 264.6989,222.1139 265.0106,222.4579 265.2872,222.8307 265.5258,223.2288 265.7243,223.6484 265.8806,224.0855 265.9934,224.5358 266.0615,224.9949 266.0843,225.4585 266.0615,225.9221 265.9934,226.3813 265.8806,226.8316 265.7243,227.2686 265.5258,227.6882 265.2872,228.0864 265.0106,228.4592 264.6989,228.8031 264.355,229.1148 263.9822,229.3914 263.584,229.63 263.1644,229.8285 262.7274,229.9848 262.2771,230.0976 261.8179,230.1657 261.3543,230.1885 260.8907,230.1657 260.4316,230.0976 259.9813,229.9848 259.5442,229.8285 259.1246,229.63 258.7265,229.3914 258.3537,229.1148 258.0097,228.8031 257.698,228.4592 257.4215,228.0864 257.1829,227.6882 256.9844,227.2686 256.828,226.8316 256.7152,226.3813 256.6471,225.9221 256.6244,225.4585 256.6471,224.9949 256.7152,224.5358"/>
    <polygon points="266.2391,233.8755 267.3338,234.0379 268.4072,234.3068 269.4491,234.6796 270.4495,235.1527 271.3986,235.7216 272.2875,236.3808 273.1074,237.124 273.8506,237.9439 274.5098,238.8327 275.0787,239.7819 275.5518,240.7823 275.9246,241.8242 276.1935,242.8976 276.3559,243.9923 276.4102,245.0975 276.3559,246.2028 276.1935,247.2974 275.9246,248.3709 275.5518,249.4128 275.0787,250.4131 274.5098,251.3623 273.8506,252.2511 273.1074,253.0711 272.2875,253.8142 271.3986,254.4734 270.4495,255.0423 269.4491,255.5155 268.4072,255.8883 267.3338,256.1572 266.2391,256.3195 265.1339,256.3738 264.0286,256.3195 262.934,256.1572 261.8605,255.8883 260.8186,255.5155 259.8182,255.0423 258.8691,254.4734 257.9802,253.8142 257.1603,253.0711 256.4172,252.2511 255.758,251.3623 255.189,250.4131 254.7159,249.4128 254.3431,248.3709 254.0742,247.2974 253.9119,246.2028 253.8576,245.0975 253.9119,243.9923 254.0742,242.8976 254.3431,241.8242 254.7159,240.7823 255.189,239.7819 255.758,238.8327 256.4172,237.9439 257.1603,237.124 257.9802,236.3808 258.8691,235.7216 259.8182,235.1527 260.8186,234.6796 261.8605,234.3068 262.934,234.0379 264.0286,233.8755 265.1339,233.8212"/>
    <polygon points="281.0308,242.2075 280.6869,241.8958 280.3752,241.5519 280.0987,241.179 279.86,240.7809 279.6616,240.3613 279.5052,239.9242 279.3924,239.474 279.3243,239.0148 279.3015,238.5512 279.3243,238.0876 279.3924,237.6284 279.5052,237.1782 279.6616,236.7411 279.86,236.3215 280.0987,235.9234 280.3752,235.5505 280.6869,235.2066 281.0308,234.8949 281.4037,234.6184 281.8018,234.3797 282.2214,234.1813 282.6585,234.0249 283.1087,233.9121 283.5679,233.844 284.0315,233.8212 284.4951,233.844 284.9543,233.9121 285.4045,234.0249 285.8416,234.1813 286.2612,234.3797 286.6593,234.6184 287.0322,234.8949 287.3761,235.2066 287.6878,235.5505 287.9643,235.9234 288.203,236.3215 288.4014,236.7411 288.5578,237.1782 288.6706,237.6284 288.7387,238.0876 288.7615,238.5512 288.7387,239.0148 288.6706,239.474 288.5578,239.9242 288.4014,240.3613 288.203,240.7809 287.9643,241.179 287.6878,241.5519 287.3761,241.8958 287.0322,242.2075 286.6593,242.484 286.2612,242.7227 285.8416,242.9211 285.4045,243.0775 284.9543,243.1903 284.4951,243.2584 284.0315,243.2812 283.5679,243.2584 283.1087,243.1903 282.6585,243.0775 282.2214,242.9211 281.8018,242.7227 281.4037,242.484"/>
    <polygon points="284.9543,247.0048 285.4045,247.1176 285.8416,247.2739 286.2612,247.4724 286.6593,247.711 287.0322,247.9875 287.3761,248.2993 287.6878,248.6432 287.9643,249.016 288.203,249.4142 288.4014,249.8338 288.5578,250.2708 288.6706,250.7211 288.7387,251.1802 288.7615,251.6439 288.7387,252.1075 288.6706,252.5666 288.5578,253.0169 288.4014,253.4539 288.203,253.8736 287.9643,254.2717 287.6878,254.6445 287.3761,254.9885 287.0322,255.3002 286.6593,255.5767 286.2612,255.8153 285.8416,256.0138 285.4045,256.1702 284.9543,256.2829 284.4951,256.3511 284.0315,256.3738 283.5679,256.3511 283.1087,256.2829 282.6585,256.1702 282.2214,256.0138 281.8018,255.8153 281.4037,255.5767 281.0308,255.3002 280.6869,254.9885 280.3752,254.6445 280.0987,254.2717 279.86,253.8736 279.6616,253.4539 279.5052,253.0169 279.3924,252.5666 279.3243,252.1075 279.3015,251.6439 279.3243,251.1802 279.3924,250.7211 279.5052,250.2708 279.6616,249.8338 279.86,249.4142 280.0987,249.016 280.3752,248.6432 280.6869,248.2993 281.0308,247.9875 281.4037,247.711 281.8018,247.4724 282.2214,247.2739 282.6585,247.1176 283.1087,247.0048 283.5679,246.9367 284.0315,246.9139 284.4951,246.9367"/>
    <polygon points="299.5415,229.7752 299.74,230.1948 299.8964,230.6318 300.0092,231.0821 300.0773,231.5412 300.1001,232.0049 300.0773,232.4685 300.0092,232.9276 299.8964,233.3779 299.74,233.8149 299.5415,234.2346 299.3029,234.6327 299.0264,235.0055 298.7147,235.3495 298.3707,235.6612 297.9979,235.9377 297.5998,236.1763 297.1802,236.3748 296.7431,236.5312 296.2929,236.6439 295.8337,236.7121 295.3701,236.7348 294.9065,236.7121 294.4473,236.6439 293.997,236.5312 293.56,236.3748 293.1404,236.1763 292.7422,235.9377 292.3694,235.6612 292.0255,235.3495 291.7138,235.0055 291.4373,234.6327 291.1986,234.2346 291.0002,233.8149 290.8438,233.3779 290.731,232.9276 290.6629,232.4685 290.6401,232.0049 290.6629,231.5412 290.731,231.0821 290.8438,230.6318 291.0002,230.1948 291.1986,229.7752 291.4373,229.377 291.7138,229.0042 292.0255,228.6603 292.3694,228.3485 292.7422,228.072 293.1404,227.8334 293.56,227.6349 293.997,227.4786 294.4473,227.3658 294.9065,227.2977 295.3701,227.2749 295.8337,227.2977 296.2929,227.3658 296.7431,227.4786 297.1802,227.6349 297.5998,227.8334 297.9979,228.072 298.3707,228.3485 298.7147,228.6603 299.0264,229.0042 299.3029,229.377"/>
    <polygon points="307.1723,243.2584 306.7087,243.2812 306.245,243.2584 305.7859,243.1903 305.3356,243.0775 304.8986,242.9211 304.479,242.7227 304.0808,242.484 303.708,242.2075 303.3641,241.8958 303.0523,241.5519 302.7758,241.179 302.5372,240.7809 302.3387,240.3613 302.1824,239.9242 302.0696,239.474 302.0015,239.0148 301.9787,238.5512 302.0015,238.0876 302.0696,237.6284 302.1824,237.1782 302.3387,236.7411 302.5372,236.3215 302.7758,235.9234 303.0523,235.5505 303.3641,235.2066 303.708,234.8949 304.0808,234.6184 304.479,234.3797 304.8986,234.1813 305.3356,234.0249 305.7859,233.9121 306.245,233.844 306.7087,233.8212 307.1723,233.844 307.6314,233.9121 308.0817,234.0249 308.5187,234.1813 308.9384,234.3797 309.3365,234.6184 309.7093,234.8949 310.0533,235.2066 310.365,235.5505 310.6415,235.9234 310.8801,236.3215 311.0786,236.7411 311.235,237.1782 311.3477,237.6284 311.4159,238.0876 311.4386,238.5512 311.4159,239.0148 311.3477,239.474 311.235,239.9242 311.0786,240.3613 310.8801,240.7809 310.6415,241.179 310.365,241.5519 310.0533,241.8958 309.7093,242.2075 309.3365,242.484 308.9384,242.7227 308.5187,242.9211 308.0817,243.0775 307.6314,243.1903"/>
    <polygon points="317.5836,249.8047 317.1245,249.7366 316.6742,249.6238 316.2372,249.4675 315.8176,249.269 315.4194,249.0304 315.0466,248.7538 314.7026,248.4421 314.3909,248.0982 314.1144,247.7254 313.8758,247.3272 313.6773,246.9076 313.5209,246.4706 313.4082,246.0203 313.34,245.5611 313.3173,245.0975 313.34,244.6339 313.4082,244.1748 313.5209,243.7245 313.6773,243.2874 313.8758,242.8678 314.1144,242.4697 314.3909,242.0969 314.7026,241.7529 315.0466,241.4412 315.4194,241.1647 315.8176,240.9261 316.2372,240.7276 316.6742,240.5712 317.1245,240.4584 317.5836,240.3903 318.0472,240.3676 318.5109,240.3903 318.97,240.4584 319.4203,240.5712 319.8573,240.7276 320.2769,240.9261 320.6751,241.1647 321.0479,241.4412 321.3918,241.7529 321.7036,242.0969 321.9801,242.4697 322.2187,242.8678 322.4172,243.2874 322.5735,243.7245 322.6863,244.1748 322.7544,244.6339 322.7772,245.0975 322.7544,245.5611 322.6863,246.0203 322.5735,246.4706 322.4172,246.9076 322.2187,247.3272 321.9801,247.7254 321.7036,248.0982 321.3918,248.4421 321.0479,248.7538 320.6751,249.0304 320.2769,249.269 319.8573,249.4675 319.4203,249.6238 318.97,249.7366 318.5109,249.8047 318.0472,249.8275"/>
    <polygon points="302.0696,276.9064 302.0015,277.3656 301.9787,277.8292 302.0015,278.2928 302.0696,278.752 302.1824,279.2022 302.3387,279.6393 302.5372,280.0589 302.7758,280.457 303.0523,280.8299 303.3641,281.1738 303.708,281.4855 304.0808,281.762 304.479,282.0007 304.8986,282.1991 305.3356,282.3555 305.7859,282.4683 306.245,282.5364 306.7087,282.5592 307.1723,282.5364 307.6314,282.4683 308.0817,282.3555 308.5187,282.1991 308.9384,282.0007 309.3365,281.762 309.7093,281.4855 310.0533,281.1738 310.365,280.8299 310.6415,280.457 310.8801,280.0589 311.0786,279.6393 311.235,279.2022 311.3477,278.752 311.4159,278.2928 311.4386,277.8292 311.4159,277.3656 311.3477,276.9064 311.235,276.4562 311.0786,276.0191 310.8801,275.5995 310.6415,275.2014 310.365,274.8285 310.0533,274.4846 309.7093,274.1729 309.3365,273.8964 308.9384,273.6577 308.5187,273.4593 308.0817,273.3029 307.6314,273.1901 307.1723,273.122 306.7087,273.0992 306.245,273.122 305.7859,273.1901 305.3356,273.3029 304.8986,273.4593 304.479,273.6577 304.0808,273.8964 303.708,274.1729 303.3641,274.4846 303.0523,274.8285 302.7758,275.2014 302.5372,275.5995 302.3387,276.0191 302.1824,276.4562"/>
    <polygon points="298.8707,308.361 298.6018,307.2875 298.229,306.2456 297.7558,305.2453 297.1869,304.2961 296.5277,303.4073 295.7846,302.5873 294.9646,301.8442 294.0758,301.185 293.1266,300.616 292.1263,300.1429 291.0844,299.7701 290.0109,299.5012 288.9163,299.3389 287.811,299.2846 286.7058,299.3389 285.6111,299.5012 284.5377,299.7701 283.4958,300.1429 282.4954,300.616 281.5462,301.185 280.6574,301.8442 279.8375,302.5873 279.0943,303.4073 278.4351,304.2961 277.8662,305.2453 277.3931,306.2456 277.0203,307.2875 276.7514,308.361 276.589,309.4556 276.5347,310.5609 276.589,311.6661 276.7514,312.7608 277.0203,313.8342 277.3931,314.8761 277.8662,315.8765 278.4351,316.8256 279.0943,317.7145 279.8375,318.5344 280.6574,319.2776 281.5462,319.9368 282.4954,320.5057 283.4958,320.9788 284.5377,321.3516 285.6111,321.6205 286.7058,321.7829 287.811,321.8372 288.9163,321.7829 290.0109,321.6205 291.0844,321.3516 292.1263,320.9788 293.1266,320.5057 294.0758,319.9368 294.9646,319.2776 295.7846,318.5344 296.5277,317.7145 297.1869,316.8256 297.7558,315.8765 298.229,314.8761 298.6018,313.8342 298.8707,312.7608 299.033,311.6661 299.0873,310.5609 299.033,309.4556"/>
    <polygon points="304.8986,308.3845 305.3356,308.5408 305.7859,308.6536 306.245,308.7217 306.7087,308.7445 307.1723,308.7217 307.6314,308.6536 308.0817,308.5408 308.5187,308.3845 308.9384,308.186 309.3365,307.9474 309.7093,307.6708 310.0533,307.3591 310.365,307.0152 310.6415,306.6424 310.8801,306.2442 311.0786,305.8246 311.235,305.3876 311.3477,304.9373 311.4159,304.4781 311.4386,304.0145 311.4159,303.5509 311.3477,303.0918 311.235,302.6415 311.0786,302.2044 310.8801,301.7848 310.6415,301.3867 310.365,301.0139 310.0533,300.6699 309.7093,300.3582 309.3365,300.0817 308.9384,299.8431 308.5187,299.6446 308.0817,299.4882 307.6314,299.3754 307.1723,299.3073 306.7087,299.2846 306.245,299.3073 305.7859,299.3754 305.3356,299.4882 304.8986,299.6446 304.479,299.8431 304.0808,300.0817 303.708,300.3582 303.3641,300.6699 303.0523,301.0139 302.7758,301.3867 302.5372,301.7848 302.3387,302.2044 302.1824,302.6415 302.0696,303.0918 302.0015,303.5509 301.9787,304.0145 302.0015,304.4781 302.0696,304.9373 302.1824,305.3876 302.3387,305.8246 302.5372,306.2442 302.7758,306.6424 303.0523,307.0152 303.3641,307.3591 303.708,307.6708 304.0808,307.9474 304.479,308.186"/>
    <polygon points="336.7916,313.1887 336.5529,312.7906 336.3545,312.3709 336.1981,311.9339 336.0853,311.4836 336.0172,311.0245 335.9944,310.5609 336.0172,310.0972 336.0853,309.6381 336.1981,309.1878 336.3545,308.7508 336.5529,308.3312 336.7916,307.933 337.0681,307.5602 337.3798,307.2163 337.7237,306.9045 338.0966,306.628 338.4947,306.3894 338.9143,306.1909 339.3514,306.0346 339.8016,305.9218 340.2608,305.8537 340.7244,305.8309 341.188,305.8537 341.6472,305.9218 342.0974,306.0346 342.5345,306.1909 342.9541,306.3894 343.3522,306.628 343.7251,306.9045 344.069,307.2163 344.3807,307.5602 344.6572,307.933 344.8959,308.3312 345.0943,308.7508 345.2507,309.1878 345.3635,309.6381 345.4316,310.0972 345.4544,310.5609 345.4316,311.0245 345.3635,311.4836 345.2507,311.9339 345.0943,312.3709 344.8959,312.7906 344.6572,313.1887 344.3807,313.5615 344.069,313.9055 343.7251,314.2172 343.3522,314.4937 342.9541,314.7323 342.5345,314.9308 342.0974,315.0872 341.6472,315.2 341.188,315.2681 340.7244,315.2908 340.2608,315.2681 339.8016,315.2 339.3514,315.0872 338.9143,314.9308 338.4947,314.7323 338.0966,314.4937 337.7237,314.2172 337.3798,313.9055 337.0681,313.5615"/>
    <polygon points="333.0421,320.1079 332.7304,320.4518 332.3865,320.7635 332.0137,321.04 331.6155,321.2787 331.1959,321.4771 330.7589,321.6335 330.3086,321.7463 329.8494,321.8144 329.3858,321.8372 328.9222,321.8144 328.4631,321.7463 328.0128,321.6335 327.5757,321.4771 327.1561,321.2787 326.758,321.04 326.3852,320.7635 326.0412,320.4518 325.7295,320.1079 325.453,319.735 325.2144,319.3369 325.0159,318.9173 324.8595,318.4802 324.7467,318.03 324.6786,317.5708 324.6559,317.1072 324.6786,316.6436 324.7467,316.1844 324.8595,315.7342 325.0159,315.2971 325.2144,314.8775 325.453,314.4794 325.7295,314.1065 326.0412,313.7626 326.3852,313.4509 326.758,313.1744 327.1561,312.9357 327.5757,312.7373 328.0128,312.5809 328.4631,312.4681 328.9222,312.4 329.3858,312.3772 329.8494,312.4 330.3086,312.4681 330.7589,312.5809 331.1959,312.7373 331.6155,312.9357 332.0137,313.1744 332.3865,313.4509 332.7304,313.7626 333.0421,314.1065 333.3187,314.4794 333.5573,314.8775 333.7558,315.2971 333.9121,315.7342 334.0249,316.1844 334.093,316.6436 334.1158,317.1072 334.093,317.5708 334.0249,318.03 333.9121,318.4802 333.7558,318.9173 333.5573,319.3369 333.3187,319.735"/>
    <polygon points="328.4631,325.5608 328.9222,325.4927 329.3858,325.4699 329.8494,325.4927 330.3086,325.5608 330.7589,325.6736 331.1959,325.8299 331.6155,326.0284 332.0137,326.267 332.3865,326.5435 332.7304,326.8553 333.0421,327.1992 333.3187,327.572 333.5573,327.9702 333.7558,328.3898 333.9121,328.8268 334.0249,329.2771 334.093,329.7362 334.1158,330.1999 334.093,330.6635 334.0249,331.1226 333.9121,331.5729 333.7558,332.0099 333.5573,332.4296 333.3187,332.8277 333.0421,333.2005 332.7304,333.5445 332.3865,333.8562 332.0137,334.1327 331.6155,334.3713 331.1959,334.5698 330.7589,334.7262 330.3086,334.839 329.8494,334.9071 329.3858,334.9298 328.9222,334.9071 328.4631,334.839 328.0128,334.7262 327.5757,334.5698 327.1561,334.3713 326.758,334.1327 326.3852,333.8562 326.0412,333.5445 325.7295,333.2005 325.453,332.8277 325.2144,332.4296 325.0159,332.0099 324.8595,331.5729 324.7467,331.1226 324.6786,330.6635 324.6559,330.1999 324.6786,329.7362 324.7467,329.2771 324.8595,328.8268 325.0159,328.3898 325.2144,327.9702 325.453,327.572 325.7295,327.1992 326.0412,326.8553 326.3852,326.5435 326.758,326.267 327.1561,326.0284 327.5757,325.8299 328.0128,325.6736"/>
    <polygon points="320.9061,327.9688 320.433,328.9691 319.8641,329.9183 319.2049,330.8071 318.4617,331.6271 317.6418,332.3702 316.753,333.0294 315.8038,333.5983 314.8034,334.0715 313.7615,334.4443 312.6881,334.7132 311.5935,334.8755 310.4882,334.9298 309.3829,334.8755 308.2883,334.7132 307.2149,334.4443 306.1729,334.0715 305.1726,333.5983 304.2234,333.0294 303.3346,332.3702 302.5146,331.6271 301.7715,330.8071 301.1123,329.9183 300.5434,328.9691 300.0702,327.9688 299.6974,326.9269 299.4286,325.8534 299.2662,324.7588 299.2119,323.6535 299.2662,322.5483 299.4286,321.4536 299.6974,320.3802 300.0702,319.3383 300.5434,318.3379 301.1123,317.3888 301.7715,316.4999 302.5146,315.68 303.3346,314.9368 304.2234,314.2776 305.1726,313.7087 306.1729,313.2356 307.2149,312.8628 308.2883,312.5939 309.3829,312.4315 310.4882,312.3772 311.5935,312.4315 312.6881,312.5939 313.7615,312.8628 314.8034,313.2356 315.8038,313.7087 316.753,314.2776 317.6418,314.9368 318.4617,315.68 319.2049,316.4999 319.8641,317.3888 320.433,318.3379 320.9061,319.3383 321.2789,320.3802 321.5478,321.4536 321.7102,322.5483 321.7645,323.6535 321.7102,324.7588 321.5478,325.8534 321.2789,326.9269"/>
    <polygon points="311.235,344.6656 311.3477,344.2153 311.4159,343.7562 311.4386,343.2925 311.4159,342.8289 311.3477,342.3698 311.235,341.9195 311.0786,341.4825 310.8801,341.0628 310.6415,340.6647 310.365,340.2919 310.0533,339.9479 309.7093,339.6362 309.3365,339.3597 308.9384,339.1211 308.5187,338.9226 308.0817,338.7662 307.6314,338.6534 307.1723,338.5853 306.7087,338.5626 306.245,338.5853 305.7859,338.6534 305.3356,338.7662 304.8986,338.9226 304.479,339.1211 304.0808,339.3597 303.708,339.6362 303.3641,339.9479 303.0523,340.2919 302.7758,340.6647 302.5372,341.0628 302.3387,341.4825 302.1824,341.9195 302.0696,342.3698 302.0015,342.8289 301.9787,343.2925 302.0015,343.7562 302.0696,344.2153 302.1824,344.6656 302.3387,345.1026 302.5372,345.5222 302.7758,345.9204 303.0523,346.2932 303.3641,346.6371 303.708,346.9489 304.0808,347.2254 304.479,347.464 304.8986,347.6625 305.3356,347.8188 305.7859,347.9316 306.245,347.9997 306.7087,348.0225 307.1723,347.9997 307.6314,347.9316 308.0817,347.8188 308.5187,347.6625 308.9384,347.464 309.3365,347.2254 309.7093,346.9489 310.0533,346.6371 310.365,346.2932 310.6415,345.9204 310.8801,345.5222 311.0786,345.1026"/>
    <polygon points="288.7615,330.1999 288.7387,329.7362 288.6706,329.2771 288.5578,328.8268 288.4014,328.3898 288.203,327.9702 287.9643,327.572 287.6878,327.1992 287.3761,326.8553 287.0322,326.5435 286.6593,326.267 286.2612,326.0284 285.8416,325.8299 285.4045,325.6736 284.9543,325.5608 284.4951,325.4927 284.0315,325.4699 283.5679,325.4927 283.1087,325.5608 282.6585,325.6736 282.2214,325.8299 281.8018,326.0284 281.4037,326.267 281.0308,326.5435 280.6869,326.8553 280.3752,327.1992 280.0987,327.572 279.86,327.9702 279.6616,328.3898 279.5052,328.8268 279.3924,329.2771 279.3243,329.7362 279.3015,330.1999 279.3243,330.6635 279.3924,331.1226 279.5052,331.5729 279.6616,332.0099 279.86,332.4296 280.0987,332.8277 280.3752,333.2005 280.6869,333.5445 281.0308,333.8562 281.4037,334.1327 281.8018,334.3713 282.2214,334.5698 282.6585,334.7262 283.1087,334.839 283.5679,334.9071 284.0315,334.9298 284.4951,334.9071 284.9543,334.839 285.4045,334.7262 285.8416,334.5698 286.2612,334.3713 286.6593,334.1327 287.0322,333.8562 287.3761,333.5445 287.6878,333.2005 287.9643,332.8277 288.203,332.4296 288.4014,332.0099 288.5578,331.5729 288.6706,331.1226 288.7387,330.6635"/>
    <polygon points="279.3924,344.2153 279.5052,344.6656 279.6616,345.1026 279.86,345.5222 280.0987,345.9204 280.3752,346.2932 280.6869,346.6371 281.0308,346.9489 281.4037,347.2254 281.8018,347.464 282.2214,347.6625 282.6585,347.8188 283.1087,347.9316 283.5679,347.9997 284.0315,348.0225 284.4951,347.9997 284.9543,347.9316 285.4045,347.8188 285.8416,347.6625 286.2612,347.464 286.6593,347.2254 287.0322,346.9489 287.3761,346.6371 287.6878,346.2932 287.9643,345.9204 288.203,345.5222 288.4014,345.1026 288.5578,344.6656 288.6706,344.2153 288.7387,343.7562 288.7615,343.2925 288.7387,342.8289 288.6706,342.3698 288.5578,341.9195 288.4014,341.4825 288.203,341.0628 287.9643,340.6647 287.6878,340.2919 287.3761,339.9479 287.0322,339.6362 286.6593,339.3597 286.2612,339.1211 285.8416,338.9226 285.4045,338.7662 284.9543,338.6534 284.4951,338.5853 284.0315,338.5626 283.5679,338.5853 283.1087,338.6534 282.6585,338.7662 282.2214,338.9226 281.8018,339.1211 281.4037,339.3597 281.0308,339.6362 280.6869,339.9479 280.3752,340.2919 280.0987,340.6647 279.86,341.0628 279.6616,341.4825 279.5052,341.9195 279.3924,342.3698 279.3243,342.8289 279.3015,343.2925 279.3243,343.7562"/>
    <polygon points="265.5258,332.4296 265.7243,332.0099 265.8806,331.5729 265.9934,331.1226 266.0615,330.6635 266.0843,330.1999 266.0615,329.7362 265.9934,329.2771 265.8806,328.8268 265.7243,328.3898 265.5258,327.9702 265.2872,327.572 265.0106,327.1992 264.6989,326.8553 264.355,326.5435 263.9822,326.267 263.584,326.0284 263.1644,325.8299 262.7274,325.6736 262.2771,325.5608 261.8179,325.4927 261.3543,325.4699 260.8907,325.4927 260.4316,325.5608 259.9813,325.6736 259.5442,325.8299 259.1246,326.0284 258.7265,326.267 258.3537,326.5435 258.0097,326.8553 257.698,327.1992 257.4215,327.572 257.1829,327.9702 256.9844,328.3898 256.828,328.8268 256.7152,329.2771 256.6471,329.7362 256.6244,330.1999 256.6471,330.6635 256.7152,331.1226 256.828,331.5729 256.9844,332.0099 257.1829,332.4296 257.4215,332.8277 257.698,333.2005 258.0097,333.5445 258.3537,333.8562 258.7265,334.1327 259.1246,334.3713 259.5442,334.5698 259.9813,334.7262 260.4316,334.839 260.8907,334.9071 261.3543,334.9298 261.8179,334.9071 262.2771,334.839 262.7274,334.7262 263.1644,334.5698 263.584,334.3713 263.9822,334.1327 264.355,333.8562 264.6989,333.5445 265.0106,333.2005 265.2872,332.8277"/>
    <polygon points="256.6471,317.5708 256.7152,318.03 256.828,318.4802 256.9844,318.9173 257.1829,319.3369 257.4215,319.735 257.698,320.1079 258.0097,320.4518 258.3537,320.7635 258.7265,321.04 259.1246,321.2787 259.5442,321.4771 259.9813,321.6335 260.4316,321.7463 260.8907,321.8144 261.3543,321.8372 261.8179,321.8144 262.2771,321.7463 262.7274,321.6335 263.1644,321.4771 263.584,321.2787 263.9822,321.04 264.355,320.7635 264.6989,320.4518 265.0106,320.1079 265.2872,319.735 265.5258,319.3369 265.7243,318.9173 265.8806,318.4802 265.9934,318.03 266.0615,317.5708 266.0843,317.1072 266.0615,316.6436 265.9934,316.1844 265.8806,315.7342 265.7243,315.2971 265.5258,314.8775 265.2872,314.4794 265.0106,314.1065 264.6989,313.7626 264.355,313.4509 263.9822,313.1744 263.584,312.9357 263.1644,312.7373 262.7274,312.5809 262.2771,312.4681 261.8179,312.4 261.3543,312.3772 260.8907,312.4 260.4316,312.4681 259.9813,312.5809 259.5442,312.7373 259.1246,312.9357 258.7265,313.1744 258.3537,313.4509 258.0097,313.7626 257.698,314.1065 257.4215,314.4794 257.1829,314.8775 256.9844,315.2971 256.828,315.7342 256.7152,316.1844 256.6471,316.6436 256.6244,317.1072"/>
    <polygon points="253.6787,311.6661 253.733,310.5609 253.6787,309.4556 253.5163,308.361 253.2474,307.2875 252.8746,306.2456 252.4015,305.2453 251.8326,304.2961 251.1734,303.4073 250.4302,302.5873 249.6103,301.8442 248.7215,301.185 247.7723,300.616 246.7719,300.1429 245.73,299.7701 244.6566,299.5012 243.562,299.3389 242.4567,299.2846 241.3514,299.3389 240.2568,299.5012 239.1834,299.7701 238.1414,300.1429 237.1411,300.616 236.1919,301.185 235.3031,301.8442 234.4831,302.5873 233.74,303.4073 233.0808,304.2961 232.5119,305.2453 232.0387,306.2456 231.6659,307.2875 231.3971,308.361 231.2347,309.4556 231.1804,310.5609 231.2347,311.6661 231.3971,312.7608 231.6659,313.8342 232.0387,314.8761 232.5119,315.8765 233.0808,316.8256 233.74,317.7145 234.4831,318.5344 235.3031,319.2776 236.1919,319.9368 237.1411,320.5057 238.1414,320.9788 239.1834,321.3516 240.2568,321.6205 241.3514,321.7829 242.4567,321.8372 243.562,321.7829 244.6566,321.6205 245.73,321.3516 246.7719,320.9788 247.7723,320.5057 248.7215,319.9368 249.6103,319.2776 250.4302,318.5344 251.1734,317.7145 251.8326,316.8256 252.4015,315.8765 252.8746,314.8761 253.2474,313.8342 253.5163,312.7608"/>
    <polygon points="271.3986,306.8441 272.2875,306.1849 273.1074,305.4417 273.8506,304.6218 274.5098,303.733 275.0787,302.7838 275.5518,301.7835 275.9246,300.7415 276.1935,299.6681 276.3559,298.5735 276.4102,297.4682 276.3559,296.3629 276.1935,295.2683 275.9246,294.1949 275.5518,293.1529 275.0787,292.1526 274.5098,291.2034 273.8506,290.3146 273.1074,289.4946 272.2875,288.7515 271.3986,288.0923 270.4495,287.5234 269.4491,287.0502 268.4072,286.6774 267.3338,286.4086 266.2391,286.2462 265.1339,286.1919 264.0286,286.2462 262.934,286.4086 261.8605,286.6774 260.8186,287.0502 259.8182,287.5234 258.8691,288.0923 257.9802,288.7515 257.1603,289.4946 256.4172,290.3146 255.758,291.2034 255.189,292.1526 254.7159,293.1529 254.3431,294.1949 254.0742,295.2683 253.9119,296.3629 253.8576,297.4682 253.9119,298.5735 254.0742,299.6681 254.3431,300.7415 254.7159,301.7835 255.189,302.7838 255.758,303.733 256.4172,304.6218 257.1603,305.4417 257.9802,306.1849 258.8691,306.8441 259.8182,307.413 260.8186,307.8861 261.8605,308.2589 262.934,308.5278 264.0286,308.6902 265.1339,308.7445 266.2391,308.6902 267.3338,308.5278 268.4072,308.2589 269.4491,307.8861 270.4495,307.413"/>
    <polygon points="277.0203,287.6489 277.3931,288.6908 277.8662,289.6911 278.4351,290.6403 279.0943,291.5291 279.8375,292.3491 280.6574,293.0922 281.5462,293.7514 282.4954,294.3203 283.4958,294.7935 284.5377,295.1663 285.6111,295.4352 286.7058,295.5975 287.811,295.6518 288.9163,295.5975 290.0109,295.4352 291.0844,295.1663 292.1263,294.7935 293.1266,294.3203 294.0758,293.7514 294.9646,293.0922 295.7846,292.3491 296.5277,291.5291 297.1869,290.6403 297.7558,289.6911 298.229,288.6908 298.6018,287.6489 298.8707,286.5754 299.033,285.4808 299.0873,284.3755 299.033,283.2703 298.8707,282.1756 298.6018,281.1022 298.229,280.0603 297.7558,279.0599 297.1869,278.1107 296.5277,277.2219 295.7846,276.402 294.9646,275.6588 294.0758,274.9996 293.1266,274.4307 292.1263,273.9576 291.0844,273.5848 290.0109,273.3159 288.9163,273.1535 287.811,273.0992 286.7058,273.1535 285.6111,273.3159 284.5377,273.5848 283.4958,273.9576 282.4954,274.4307 281.5462,274.9996 280.6574,275.6588 279.8375,276.402 279.0943,277.2219 278.4351,278.1107 277.8662,279.0599 277.3931,280.0603 277.0203,281.1022 276.7514,282.1756 276.589,283.2703 276.5347,284.3755 276.589,285.4808 276.7514,286.5754"/>
    <polygon points="265.2872,262.1087 265.5258,262.5068 265.7243,262.9264 265.8806,263.3635 265.9934,263.8138 266.0615,264.2729 266.0843,264.7365 266.0615,265.2001 265.9934,265.6593 265.8806,266.1096 265.7243,266.5466 265.5258,266.9662 265.2872,267.3644 265.0106,267.7372 264.6989,268.0811 264.355,268.3928 263.9822,268.6694 263.584,268.908 263.1644,269.1065 262.7274,269.2628 262.2771,269.3756 261.8179,269.4437 261.3543,269.4665 260.8907,269.4437 260.4316,269.3756 259.9813,269.2628 259.5442,269.1065 259.1246,268.908 258.7265,268.6694 258.3537,268.3928 258.0097,268.0811 257.698,267.7372 257.4215,267.3644 257.1829,266.9662 256.9844,266.5466 256.828,266.1096 256.7152,265.6593 256.6471,265.2001 256.6244,264.7365 256.6471,264.2729 256.7152,263.8138 256.828,263.3635 256.9844,262.9264 257.1829,262.5068 257.4215,262.1087 257.698,261.7359 258.0097,261.3919 258.3537,261.0802 258.7265,260.8037 259.1246,260.5651 259.5442,260.3666 259.9813,260.2102 260.4316,260.0974 260.8907,260.0293 261.3543,260.0066 261.8179,260.0293 262.2771,260.0974 262.7274,260.2102 263.1644,260.3666 263.584,260.5651 263.9822,260.8037 264.355,261.0802 264.6989,261.3919 265.0106,261.7359"/>
    <polygon points="243.562,269.4122 242.4567,269.4665 241.3514,269.4122 240.2568,269.2498 239.1834,268.9809 238.1414,268.6081 237.1411,268.135 236.1919,267.5661 235.3031,266.9069 234.4831,266.1637 233.74,265.3438 233.0808,264.455 232.5119,263.5058 232.0387,262.5054 231.6659,261.4635 231.3971,260.3901 231.2347,259.2955 231.1804,258.1902 231.2347,257.0849 231.3971,255.9903 231.6659,254.9169 232.0387,253.8749 232.5119,252.8746 233.0808,251.9254 233.74,251.0366 234.4831,250.2166 235.3031,249.4735 236.1919,248.8143 237.1411,248.2454 238.1414,247.7722 239.1834,247.3994 240.2568,247.1306 241.3514,246.9682 242.4567,246.9139 243.562,246.9682 244.6566,247.1306 245.73,247.3994 246.7719,247.7722 247.7723,248.2454 248.7215,248.8143 249.6103,249.4735 250.4302,250.2166 251.1734,251.0366 251.8326,251.9254 252.4015,252.8746 252.8746,253.8749 253.2474,254.9169 253.5163,255.9903 253.6787,257.0849 253.733,258.1902 253.6787,259.2955 253.5163,260.3901 253.2474,261.4635 252.8746,262.5054 252.4015,263.5058 251.8326,264.455 251.1734,265.3438 250.4302,266.1637 249.6103,266.9069 248.7215,267.5661 247.7723,268.135 246.7719,268.6081 245.73,268.9809 244.6566,269.2498"/>
    <polygon points="207.05,269.3492 204.6614,269.4665 202.2728,269.3492 199.9073,268.9983 197.5875,268.4172 195.3358,267.6115 193.174,266.589 191.1227,265.3596 189.2019,263.935 187.43,262.329 185.8239,260.557 184.3994,258.6362 183.1699,256.585 182.1474,254.4231 181.3418,252.1715 180.7607,249.8517 180.4098,247.4861 180.2924,245.0975 180.4098,242.7089 180.7607,240.3434 181.3418,238.0236 182.1474,235.7719 183.1699,233.6101 184.3994,231.5588 185.8239,229.638 187.43,227.8661 189.2019,226.2601 191.1227,224.8355 193.174,223.606 195.3358,222.5835 197.5875,221.7779 199.9073,221.1968 202.2728,220.8459 204.6614,220.7286 207.05,220.8459 209.4156,221.1968 211.7354,221.7779 213.987,222.5835 216.1489,223.606 218.2001,224.8355 220.1209,226.2601 221.8929,227.8661 223.4989,229.638 224.9235,231.5588 226.1529,233.6101 227.1754,235.7719 227.9811,238.0236 228.5621,240.3434 228.913,242.7089 229.0304,245.0975 228.913,247.4861 228.5621,249.8517 227.9811,252.1715 227.1754,254.4231 226.1529,256.585 224.9235,258.6362 223.4989,260.557 221.8929,262.329 220.1209,263.935 218.2001,265.3596 216.1489,266.589 213.987,267.6115 211.7354,268.4172 209.4156,268.9983"/>
  </g>
</svg>
