<?xml version="1.0" encoding="utf-8" ?>
<svg xmlns="http://www.w3.org/2000/svg" xmlns:cc="http://creativecommons.org/ns" xmlns:dc="http://purl.org/dc/elements/1.1/" xmlns:ev="http://www.w3.org/2001/xml-events" xmlns:inkscape="http://www.inkscape.org/namespaces/inkscape" xmlns:rdf="http://www.w3.org/1999/02/22-rdf-syntax-ns" xmlns:sodipodi="http://sodipodi.sourceforge.net/DTD/sodipodi-0.dtd" xmlns:xlink="http://www.w3.org/1999/xlink" baseProfile="tiny" height="15.875cm" version="1.2" viewBox="0 0 432.0 600.0" width="11.43cm">
  <metadata>
    <rdf:RDF>
      <cc:Work>
        <dc:format>image/svg+xml</dc:format>
        <dc:source>vsk save -s 104 -c hex-grid/config/bubble-coasters-2.json /Users/tobin/src/fabian/plotting/fabian-plotting/hex-grid/sketch_hex_grid.py</dc:source>
        <dc:date>2023-11-04T10:32:59.124442</dc:date>
      </cc:Work>
    </rdf:RDF>
  </metadata>
  <defs/>
  <g fill="none" id="layer1" inkscape:groupmode="layer" inkscape:label="1" stroke="#000000" stroke-width="0.7559" style="display:inline">
    <polygon points="240.175,334.5165 240.4136,334.1184 240.6901,333.7455 241.0019,333.4016 241.3458,333.0899 241.7186,332.8134 242.1168,332.5747 242.5364,332.3763 242.9734,332.2199 243.4237,332.1071 243.8828,332.039 244.3465,332.0162 244.8101,332.039 245.2692,332.1071 245.7195,332.2199 246.1565,332.3763 246.5762,332.5747 246.9743,332.8134 247.3471,333.0899 247.6911,333.4016 248.0028,333.7455 248.2793,334.1184 248.5179,334.5165 248.7164,334.9361 248.8728,335.3732 248.9855,335.8234 249.0537,336.2826 249.0764,336.7462 249.0537,337.2098 248.9855,337.669 248.8728,338.1192 248.7164,338.5563 248.5179,338.9759 248.2793,339.374 248.0028,339.7469 247.6911,340.0908 247.3471,340.4025 246.9743,340.679 246.5762,340.9177 246.1565,341.1161 245.7195,341.2725 245.2692,341.3853 244.8101,341.4534 244.3465,341.4762 243.8828,341.4534 243.4237,341.3853 242.9734,341.2725 242.5364,341.1161 242.1168,340.9177 241.7186,340.679 241.3458,340.4025 241.0019,340.0908 240.6901,339.7469 240.4136,339.374 240.175,338.9759 239.9765,338.5563 239.8202,338.1192 239.7074,337.669 239.6393,337.2098 239.6165,336.7462 239.6393,336.2826 239.7074,335.8234 239.8202,335.3732 239.9765,334.9361"/>
    <polygon points="232.6024,338.9166 231.7136,339.5758 230.7644,340.1447 229.7641,340.6178 228.7222,340.9906 227.6487,341.2595 226.5541,341.4219 225.4488,341.4762 224.3435,341.4219 223.2489,341.2595 222.1755,340.9906 221.1336,340.6178 220.1332,340.1447 219.184,339.5758 218.2952,338.9166 217.4753,338.1734 216.7321,337.3535 216.0729,336.4646 215.504,335.5155 215.0309,334.5151 214.6581,333.4732 214.3892,332.3998 214.2268,331.3051 214.1725,330.1999 214.2268,329.0946 214.3892,328.0 214.6581,326.9265 215.0309,325.8846 215.504,324.8843 216.0729,323.9351 216.7321,323.0463 217.4753,322.2263 218.2952,321.4832 219.184,320.824 220.1332,320.2551 221.1336,319.7819 222.1755,319.4091 223.2489,319.1402 224.3435,318.9779 225.4488,318.9236 226.5541,318.9779 227.6487,319.1402 228.7222,319.4091 229.7641,319.7819 230.7644,320.2551 231.7136,320.824 232.6024,321.4832 233.4224,322.2263 234.1655,323.0463 234.8247,323.9351 235.3936,324.8843 235.8668,325.8846 236.2396,326.9265 236.5085,328.0 236.6708,329.0946 236.7251,330.1999 236.6708,331.3051 236.5085,332.3998 236.2396,333.4732 235.8668,334.5151 235.3936,335.5155 234.8247,336.4646 234.1655,337.3535 233.4224,338.1734"/>
    <polygon points="217.0302,350.7616 216.9621,350.3025 216.9393,349.8389 216.9621,349.3752 217.0302,348.9161 217.143,348.4658 217.2994,348.0288 217.4978,347.6092 217.7365,347.211 218.013,346.8382 218.3247,346.4943 218.6686,346.1825 219.0415,345.906 219.4396,345.6674 219.8592,345.4689 220.2963,345.3126 220.7465,345.1998 221.2057,345.1317 221.6693,345.1089 222.1329,345.1317 222.5921,345.1998 223.0423,345.3126 223.4794,345.4689 223.899,345.6674 224.2971,345.906 224.67,346.1825 225.0139,346.4943 225.3256,346.8382 225.6021,347.211 225.8408,347.6092 226.0392,348.0288 226.1956,348.4658 226.3084,348.9161 226.3765,349.3752 226.3993,349.8389 226.3765,350.3025 226.3084,350.7616 226.1956,351.2119 226.0392,351.6489 225.8408,352.0686 225.6021,352.4667 225.3256,352.8395 225.0139,353.1835 224.67,353.4952 224.2971,353.7717 223.899,354.0103 223.4794,354.2088 223.0423,354.3652 222.5921,354.478 222.1329,354.5461 221.6693,354.5688 221.2057,354.5461 220.7465,354.478 220.2963,354.3652 219.8592,354.2088 219.4396,354.0103 219.0415,353.7717 218.6686,353.4952 218.3247,353.1835 218.013,352.8395 217.7365,352.4667 217.4978,352.0686 217.2994,351.6489 217.143,351.2119"/>
    <polygon points="205.6916,368.5551 205.8044,368.1048 205.9608,367.6678 206.1592,367.2482 206.3979,366.85 206.6744,366.4772 206.9861,366.1333 207.33,365.8215 207.7029,365.545 208.101,365.3064 208.5206,365.1079 208.9577,364.9516 209.4079,364.8388 209.8671,364.7707 210.3307,364.7479 210.7943,364.7707 211.2535,364.8388 211.7037,364.9516 212.1408,365.1079 212.5604,365.3064 212.9585,365.545 213.3314,365.8215 213.6753,366.1333 213.987,366.4772 214.2635,366.85 214.5022,367.2482 214.7006,367.6678 214.857,368.1048 214.9698,368.5551 215.0379,369.0142 215.0607,369.4779 215.0379,369.9415 214.9698,370.4006 214.857,370.8509 214.7006,371.288 214.5022,371.7076 214.2635,372.1057 213.987,372.4785 213.6753,372.8225 213.3314,373.1342 212.9585,373.4107 212.5604,373.6493 212.1408,373.8478 211.7037,374.0042 211.2535,374.117 210.7943,374.1851 210.3307,374.2078 209.8671,374.1851 209.4079,374.117 208.9577,374.0042 208.5206,373.8478 208.101,373.6493 207.7029,373.4107 207.33,373.1342 206.9861,372.8225 206.6744,372.4785 206.3979,372.1057 206.1592,371.7076 205.9608,371.288 205.8044,370.8509 205.6916,370.4006 205.6235,369.9415 205.6007,369.4779 205.6235,369.0142"/>
    <polygon points="198.9921,358.2016 199.4557,358.2243 199.9149,358.2924 200.3652,358.4052 200.8022,358.5616 201.2218,358.7601 201.62,358.9987 201.9928,359.2752 202.3367,359.5869 202.6484,359.9309 202.925,360.3037 203.1636,360.7018 203.3621,361.1215 203.5184,361.5585 203.6312,362.0088 203.6993,362.4679 203.7221,362.9315 203.6993,363.3952 203.6312,363.8543 203.5184,364.3046 203.3621,364.7416 203.1636,365.1612 202.925,365.5594 202.6484,365.9322 202.3367,366.2761 201.9928,366.5879 201.62,366.8644 201.2218,367.103 200.8022,367.3015 200.3652,367.4578 199.9149,367.5706 199.4557,367.6387 198.9921,367.6615 198.5285,367.6387 198.0694,367.5706 197.6191,367.4578 197.182,367.3015 196.7624,367.103 196.3643,366.8644 195.9915,366.5879 195.6475,366.2761 195.3358,365.9322 195.0593,365.5594 194.8207,365.1612 194.6222,364.7416 194.4658,364.3046 194.353,363.8543 194.2849,363.3952 194.2622,362.9315 194.2849,362.4679 194.353,362.0088 194.4658,361.5585 194.6222,361.1215 194.8207,360.7018 195.0593,360.3037 195.3358,359.9309 195.6475,359.5869 195.9915,359.2752 196.3643,358.9987 196.7624,358.7601 197.182,358.5616 197.6191,358.4052 198.0694,358.2924 198.5285,358.2243"/>
    <polygon points="199.4557,354.5461 198.9921,354.5688 198.5285,354.5461 198.0694,354.478 197.6191,354.3652 197.182,354.2088 196.7624,354.0103 196.3643,353.7717 195.9915,353.4952 195.6475,353.1835 195.3358,352.8395 195.0593,352.4667 194.8207,352.0686 194.6222,351.6489 194.4658,351.2119 194.353,350.7616 194.2849,350.3025 194.2622,349.8389 194.2849,349.3752 194.353,348.9161 194.4658,348.4658 194.6222,348.0288 194.8207,347.6092 195.0593,347.211 195.3358,346.8382 195.6475,346.4943 195.9915,346.1825 196.3643,345.906 196.7624,345.6674 197.182,345.4689 197.6191,345.3126 198.0694,345.1998 198.5285,345.1317 198.9921,345.1089 199.4557,345.1317 199.9149,345.1998 200.3652,345.3126 200.8022,345.4689 201.2218,345.6674 201.62,345.906 201.9928,346.1825 202.3367,346.4943 202.6484,346.8382 202.925,347.211 203.1636,347.6092 203.3621,348.0288 203.5184,348.4658 203.6312,348.9161 203.6993,349.3752 203.7221,349.8389 203.6993,350.3025 203.6312,350.7616 203.5184,351.2119 203.3621,351.6489 203.1636,352.0686 202.925,352.4667 202.6484,352.8395 202.3367,353.1835 201.9928,353.4952 201.62,353.7717 201.2218,354.0103 200.8022,354.2088 200.3652,354.3652 199.9149,354.478"/>
    <polygon points="205.6235,342.8289 205.6916,342.3698 205.8044,341.9195 205.9608,341.4825 206.1592,341.0628 206.3979,340.6647 206.6744,340.2919 206.9861,339.9479 207.33,339.6362 207.7029,339.3597 208.101,339.1211 208.5206,338.9226 208.9577,338.7662 209.4079,338.6534 209.8671,338.5853 210.3307,338.5626 210.7943,338.5853 211.2535,338.6534 211.7037,338.7662 212.1408,338.9226 212.5604,339.1211 212.9585,339.3597 213.3314,339.6362 213.6753,339.9479 213.987,340.2919 214.2635,340.6647 214.5022,341.0628 214.7006,341.4825 214.857,341.9195 214.9698,342.3698 215.0379,342.8289 215.0607,343.2925 215.0379,343.7562 214.9698,344.2153 214.857,344.6656 214.7006,345.1026 214.5022,345.5222 214.2635,345.9204 213.987,346.2932 213.6753,346.6371 213.3314,346.9489 212.9585,347.2254 212.5604,347.464 212.1408,347.6625 211.7037,347.8188 211.2535,347.9316 210.7943,347.9997 210.3307,348.0225 209.8671,347.9997 209.4079,347.9316 208.9577,347.8188 208.5206,347.6625 208.101,347.464 207.7029,347.2254 207.33,346.9489 206.9861,346.6371 206.6744,346.2932 206.3979,345.9204 206.1592,345.5222 205.9608,345.1026 205.8044,344.6656 205.6916,344.2153 205.6235,343.7562 205.6007,343.2925"/>
    <polygon points="197.182,341.1161 196.7624,340.9177 196.3643,340.679 195.9915,340.4025 195.6475,340.0908 195.3358,339.7469 195.0593,339.374 194.8207,338.9759 194.6222,338.5563 194.4658,338.1192 194.353,337.669 194.2849,337.2098 194.2622,336.7462 194.2849,336.2826 194.353,335.8234 194.4658,335.3732 194.6222,334.9361 194.8207,334.5165 195.0593,334.1184 195.3358,333.7455 195.6475,333.4016 195.9915,333.0899 196.3643,332.8134 196.7624,332.5747 197.182,332.3763 197.6191,332.2199 198.0694,332.1071 198.5285,332.039 198.9921,332.0162 199.4557,332.039 199.9149,332.1071 200.3652,332.2199 200.8022,332.3763 201.2218,332.5747 201.62,332.8134 201.9928,333.0899 202.3367,333.4016 202.6484,333.7455 202.925,334.1184 203.1636,334.5165 203.3621,334.9361 203.5184,335.3732 203.6312,335.8234 203.6993,336.2826 203.7221,336.7462 203.6993,337.2098 203.6312,337.669 203.5184,338.1192 203.3621,338.5563 203.1636,338.9759 202.925,339.374 202.6484,339.7469 202.3367,340.0908 201.9928,340.4025 201.62,340.679 201.2218,340.9177 200.8022,341.1161 200.3652,341.2725 199.9149,341.3853 199.4557,341.4534 198.9921,341.4762 198.5285,341.4534 198.0694,341.3853 197.6191,341.2725"/>
    <polygon points="196.3643,327.5864 195.9915,327.3098 195.6475,326.9981 195.3358,326.6542 195.0593,326.2814 194.8207,325.8832 194.6222,325.4636 194.4658,325.0266 194.353,324.5763 194.2849,324.1172 194.2622,323.6535 194.2849,323.1899 194.353,322.7308 194.4658,322.2805 194.6222,321.8434 194.8207,321.4238 195.0593,321.0257 195.3358,320.6529 195.6475,320.3089 195.9915,319.9972 196.3643,319.7207 196.7624,319.4821 197.182,319.2836 197.6191,319.1272 198.0694,319.0144 198.5285,318.9463 198.9921,318.9236 199.4557,318.9463 199.9149,319.0144 200.3652,319.1272 200.8022,319.2836 201.2218,319.4821 201.62,319.7207 201.9928,319.9972 202.3367,320.3089 202.6484,320.6529 202.925,321.0257 203.1636,321.4238 203.3621,321.8434 203.5184,322.2805 203.6312,322.7308 203.6993,323.1899 203.7221,323.6535 203.6993,324.1172 203.6312,324.5763 203.5184,325.0266 203.3621,325.4636 203.1636,325.8832 202.925,326.2814 202.6484,326.6542 202.3367,326.9981 201.9928,327.3098 201.62,327.5864 201.2218,327.825 200.8022,328.0235 200.3652,328.1798 199.9149,328.2926 199.4557,328.3607 198.9921,328.3835 198.5285,328.3607 198.0694,328.2926 197.6191,328.1798 197.182,328.0235 196.7624,327.825"/>
    <polygon points="183.0145,304.9373 183.1272,305.3876 183.2836,305.8246 183.4821,306.2442 183.7207,306.6424 183.9972,307.0152 184.3089,307.3591 184.6529,307.6708 185.0257,307.9474 185.4238,308.186 185.8435,308.3845 186.2805,308.5408 186.7308,308.6536 187.1899,308.7217 187.6535,308.7445 188.1172,308.7217 188.5763,308.6536 189.0266,308.5408 189.4636,308.3845 189.8832,308.186 190.2814,307.9474 190.6542,307.6708 190.9981,307.3591 191.3099,307.0152 191.5864,306.6424 191.825,306.2442 192.0235,305.8246 192.1798,305.3876 192.2926,304.9373 192.3607,304.4781 192.3835,304.0145 192.3607,303.5509 192.2926,303.0918 192.1798,302.6415 192.0235,302.2044 191.825,301.7848 191.5864,301.3867 191.3099,301.0139 190.9981,300.6699 190.6542,300.3582 190.2814,300.0817 189.8832,299.8431 189.4636,299.6446 189.0266,299.4882 188.5763,299.3754 188.1172,299.3073 187.6535,299.2846 187.1899,299.3073 186.7308,299.3754 186.2805,299.4882 185.8435,299.6446 185.4238,299.8431 185.0257,300.0817 184.6529,300.3582 184.3089,300.6699 183.9972,301.0139 183.7207,301.3867 183.4821,301.7848 183.2836,302.2044 183.1272,302.6415 183.0145,303.0918 182.9463,303.5509 182.9236,304.0145 182.9463,304.4781"/>
    <polygon points="185.2384,291.3679 183.8138,293.2887 182.2078,295.0607 180.4359,296.6667 178.5151,298.0913 176.4638,299.3207 174.302,300.3432 172.0503,301.1488 169.7305,301.7299 167.365,302.0808 164.9764,302.1982 162.5878,302.0808 160.2222,301.7299 157.9024,301.1488 155.6508,300.3432 153.4889,299.3207 151.4377,298.0913 149.5169,296.6667 147.7449,295.0607 146.1389,293.2887 144.7143,291.3679 143.4849,289.3167 142.4624,287.1548 141.6567,284.9031 141.0756,282.5833 140.7247,280.2178 140.6074,277.8292 140.7247,275.4406 141.0756,273.075 141.6567,270.7553 142.4624,268.5036 143.4849,266.3417 144.7143,264.2905 146.1389,262.3697 147.7449,260.5977 149.5169,258.9917 151.4377,257.5671 153.4889,256.3377 155.6508,255.3152 157.9024,254.5095 160.2222,253.9285 162.5878,253.5776 164.9764,253.4602 167.365,253.5776 169.7305,253.9285 172.0503,254.5095 174.302,255.3152 176.4638,256.3377 178.5151,257.5671 180.4359,258.9917 182.2078,260.5977 183.8138,262.3697 185.2384,264.2905 186.4679,266.3417 187.4904,268.5036 188.296,270.7553 188.8771,273.075 189.228,275.4406 189.3454,277.8292 189.228,280.2178 188.8771,282.5833 188.296,284.9031 187.4904,287.1548 186.4679,289.3167"/>
    <polygon points="192.3537,295.2371 191.9809,294.1952 191.712,293.1218 191.5496,292.0271 191.4953,290.9219 191.5496,289.8166 191.712,288.722 191.9809,287.6485 192.3537,286.6066 192.8268,285.6062 193.3957,284.6571 194.055,283.7682 194.7981,282.9483 195.618,282.2052 196.5069,281.546 197.456,280.977 198.4564,280.5039 199.4983,280.1311 200.5718,279.8622 201.6664,279.6999 202.7717,279.6456 203.8769,279.6999 204.9716,279.8622 206.045,280.1311 207.0869,280.5039 208.0873,280.977 209.0364,281.546 209.9253,282.2052 210.7452,282.9483 211.4884,283.7682 212.1476,284.6571 212.7165,285.6062 213.1896,286.6066 213.5624,287.6485 213.8313,288.722 213.9937,289.8166 214.048,290.9219 213.9937,292.0271 213.8313,293.1218 213.5624,294.1952 213.1896,295.2371 212.7165,296.2375 212.1476,297.1866 211.4884,298.0755 210.7452,298.8954 209.9253,299.6386 209.0364,300.2978 208.0873,300.8667 207.0869,301.3398 206.045,301.7126 204.9716,301.9815 203.8769,302.1439 202.7717,302.1982 201.6664,302.1439 200.5718,301.9815 199.4983,301.7126 198.4564,301.3398 197.456,300.8667 196.5069,300.2978 195.618,299.6386 194.7981,298.8954 194.055,298.0755 193.3957,297.1866 192.8268,296.2375"/>
    <polygon points="203.5184,311.9339 203.3621,312.3709 203.1636,312.7906 202.925,313.1887 202.6484,313.5615 202.3367,313.9055 201.9928,314.2172 201.62,314.4937 201.2218,314.7323 200.8022,314.9308 200.3652,315.0872 199.9149,315.2 199.4557,315.2681 198.9921,315.2908 198.5285,315.2681 198.0694,315.2 197.6191,315.0872 197.182,314.9308 196.7624,314.7323 196.3643,314.4937 195.9915,314.2172 195.6475,313.9055 195.3358,313.5615 195.0593,313.1887 194.8207,312.7906 194.6222,312.3709 194.4658,311.9339 194.353,311.4836 194.2849,311.0245 194.2622,310.5609 194.2849,310.0972 194.353,309.6381 194.4658,309.1878 194.6222,308.7508 194.8207,308.3312 195.0593,307.933 195.3358,307.5602 195.6475,307.2163 195.9915,306.9045 196.3643,306.628 196.7624,306.3894 197.182,306.1909 197.6191,306.0346 198.0694,305.9218 198.5285,305.8537 198.9921,305.8309 199.4557,305.8537 199.9149,305.9218 200.3652,306.0346 200.8022,306.1909 201.2218,306.3894 201.62,306.628 201.9928,306.9045 202.3367,307.2163 202.6484,307.5602 202.925,307.933 203.1636,308.3312 203.3621,308.7508 203.5184,309.1878 203.6312,309.6381 203.6993,310.0972 203.7221,310.5609 203.6993,311.0245 203.6312,311.4836"/>
    <polygon points="208.5206,312.7373 208.9577,312.5809 209.4079,312.4681 209.8671,312.4 210.3307,312.3772 210.7943,312.4 211.2535,312.4681 211.7037,312.5809 212.1408,312.7373 212.5604,312.9357 212.9585,313.1744 213.3314,313.4509 213.6753,313.7626 213.987,314.1065 214.2635,314.4794 214.5022,314.8775 214.7006,315.2971 214.857,315.7342 214.9698,316.1844 215.0379,316.6436 215.0607,317.1072 215.0379,317.5708 214.9698,318.03 214.857,318.4802 214.7006,318.9173 214.5022,319.3369 214.2635,319.735 213.987,320.1079 213.6753,320.4518 213.3314,320.7635 212.9585,321.04 212.5604,321.2787 212.1408,321.4771 211.7037,321.6335 211.2535,321.7463 210.7943,321.8144 210.3307,321.8372 209.8671,321.8144 209.4079,321.7463 208.9577,321.6335 208.5206,321.4771 208.101,321.2787 207.7029,321.04 207.33,320.7635 206.9861,320.4518 206.6744,320.1079 206.3979,319.735 206.1592,319.3369 205.9608,318.9173 205.8044,318.4802 205.6916,318.03 205.6235,317.5708 205.6007,317.1072 205.6235,316.6436 205.6916,316.1844 205.8044,315.7342 205.9608,315.2971 206.1592,314.8775 206.3979,314.4794 206.6744,314.1065 206.9861,313.7626 207.33,313.4509 207.7029,313.1744 208.101,312.9357"/>
    <polygon points="223.2489,292.9549 224.3435,292.7925 225.4488,292.7382 226.5541,292.7925 227.6487,292.9549 228.7222,293.2238 229.7641,293.5966 230.7644,294.0697 231.7136,294.6386 232.6024,295.2978 233.4224,296.041 234.1655,296.8609 234.8247,297.7498 235.3936,298.6989 235.8668,299.6993 236.2396,300.7412 236.5085,301.8146 236.6708,302.9093 236.7251,304.0145 236.6708,305.1198 236.5085,306.2144 236.2396,307.2879 235.8668,308.3298 235.3936,309.3301 234.8247,310.2793 234.1655,311.1681 233.4224,311.9881 232.6024,312.7312 231.7136,313.3904 230.7644,313.9593 229.7641,314.4325 228.7222,314.8053 227.6487,315.0742 226.5541,315.2365 225.4488,315.2908 224.3435,315.2365 223.2489,315.0742 222.1755,314.8053 221.1336,314.4325 220.1332,313.9593 219.184,313.3904 218.2952,312.7312 217.4753,311.9881 216.7321,311.1681 216.0729,310.2793 215.504,309.3301 215.0309,308.3298 214.6581,307.2879 214.3892,306.2144 214.2268,305.1198 214.1725,304.0145 214.2268,302.9093 214.3892,301.8146 214.6581,300.7412 215.0309,299.6993 215.504,298.6989 216.0729,297.7498 216.7321,296.8609 217.4753,296.041 218.2952,295.2978 219.184,294.6386 220.1332,294.0697 221.1336,293.5966 222.1755,293.2238"/>
    <polygon points="255.685,302.1982 253.2965,302.0808 250.9309,301.7299 248.6111,301.1488 246.3594,300.3432 244.1976,299.3207 242.1464,298.0913 240.2255,296.6667 238.4536,295.0607 236.8476,293.2887 235.423,291.3679 234.1935,289.3167 233.171,287.1548 232.3654,284.9031 231.7843,282.5833 231.4334,280.2178 231.3161,277.8292 231.4334,275.4406 231.7843,273.075 232.3654,270.7553 233.171,268.5036 234.1935,266.3417 235.423,264.2905 236.8476,262.3697 238.4536,260.5977 240.2255,258.9917 242.1464,257.5671 244.1976,256.3377 246.3594,255.3152 248.6111,254.5095 250.9309,253.9285 253.2965,253.5776 255.685,253.4602 258.0736,253.5776 260.4392,253.9285 262.759,254.5095 265.0106,255.3152 267.1725,256.3377 269.2237,257.5671 271.1446,258.9917 272.9165,260.5977 274.5225,262.3697 275.9471,264.2905 277.1766,266.3417 278.199,268.5036 279.0047,270.7553 279.5858,273.075 279.9367,275.4406 280.054,277.8292 279.9367,280.2178 279.5858,282.5833 279.0047,284.9031 278.199,287.1548 277.1766,289.3167 275.9471,291.3679 274.5225,293.2887 272.9165,295.0607 271.1446,296.6667 269.2237,298.0913 267.1725,299.3207 265.0106,300.3432 262.759,301.1488 260.4392,301.7299 258.0736,302.0808"/>
    <polygon points="258.9167,320.3805 258.5439,321.4225 258.0708,322.4228 257.5019,323.372 256.8427,324.2608 256.0995,325.0808 255.2796,325.8239 254.3908,326.4831 253.4416,327.052 252.4412,327.5251 251.3993,327.898 250.3259,328.1668 249.2313,328.3292 248.126,328.3835 247.0207,328.3292 245.9261,328.1668 244.8526,327.898 243.8107,327.5251 242.8104,327.052 241.8612,326.4831 240.9724,325.8239 240.1524,325.0808 239.4093,324.2608 238.7501,323.372 238.1812,322.4228 237.708,321.4225 237.3352,320.3805 237.0663,319.3071 236.904,318.2125 236.8497,317.1072 236.904,316.0019 237.0663,314.9073 237.3352,313.8339 237.708,312.7919 238.1812,311.7916 238.7501,310.8424 239.4093,309.9536 240.1524,309.1336 240.9724,308.3905 241.8612,307.7313 242.8104,307.1624 243.8107,306.6892 244.8526,306.3164 245.9261,306.0476 247.0207,305.8852 248.126,305.8309 249.2313,305.8852 250.3259,306.0476 251.3993,306.3164 252.4412,306.6892 253.4416,307.1624 254.3908,307.7313 255.2796,308.3905 256.0995,309.1336 256.8427,309.9536 257.5019,310.8424 258.0708,311.7916 258.5439,312.7919 258.9167,313.8339 259.1856,314.9073 259.348,316.0019 259.4023,317.1072 259.348,318.2125 259.1856,319.3071"/>
    <polygon points="271.3935,325.4636 271.1951,325.8832 270.9565,326.2814 270.6799,326.6542 270.3682,326.9981 270.0243,327.3098 269.6515,327.5864 269.2533,327.825 268.8337,328.0235 268.3967,328.1798 267.9464,328.2926 267.4872,328.3607 267.0236,328.3835 266.56,328.3607 266.1009,328.2926 265.6506,328.1798 265.2135,328.0235 264.7939,327.825 264.3958,327.5864 264.023,327.3098 263.679,326.9981 263.3673,326.6542 263.0908,326.2814 262.8522,325.8832 262.6537,325.4636 262.4973,325.0266 262.3845,324.5763 262.3164,324.1172 262.2936,323.6535 262.3164,323.1899 262.3845,322.7308 262.4973,322.2805 262.6537,321.8434 262.8522,321.4238 263.0908,321.0257 263.3673,320.6529 263.679,320.3089 264.023,319.9972 264.3958,319.7207 264.7939,319.4821 265.2135,319.2836 265.6506,319.1272 266.1009,319.0144 266.56,318.9463 267.0236,318.9236 267.4872,318.9463 267.9464,319.0144 268.3967,319.1272 268.8337,319.2836 269.2533,319.4821 269.6515,319.7207 270.0243,319.9972 270.3682,320.3089 270.6799,320.6529 270.9565,321.0257 271.1951,321.4238 271.3935,321.8434 271.5499,322.2805 271.6627,322.7308 271.7308,323.1899 271.7536,323.6535 271.7308,324.1172 271.6627,324.5763 271.5499,325.0266"/>
    <polygon points="313.3007,302.1073 312.8416,302.1754 312.378,302.1982 311.9143,302.1754 311.4552,302.1073 311.0049,301.9945 310.5679,301.8381 310.1483,301.6397 309.7501,301.401 309.3773,301.1245 309.0334,300.8128 308.7216,300.4689 308.4451,300.096 308.2065,299.6979 308.008,299.2783 307.8517,298.8412 307.7389,298.391 307.6708,297.9318 307.648,297.4682 307.6708,297.0046 307.7389,296.5454 307.8517,296.0952 308.008,295.6581 308.2065,295.2385 308.4451,294.8404 308.7216,294.4675 309.0334,294.1236 309.3773,293.8119 309.7501,293.5354 310.1483,293.2967 310.5679,293.0983 311.0049,292.9419 311.4552,292.8291 311.9143,292.761 312.378,292.7382 312.8416,292.761 313.3007,292.8291 313.751,292.9419 314.188,293.0983 314.6076,293.2967 315.0058,293.5354 315.3786,293.8119 315.7225,294.1236 316.0343,294.4675 316.3108,294.8404 316.5494,295.2385 316.7479,295.6581 316.9043,296.0952 317.017,296.5454 317.0851,297.0046 317.1079,297.4682 317.0851,297.9318 317.017,298.391 316.9043,298.8412 316.7479,299.2783 316.5494,299.6979 316.3108,300.096 316.0343,300.4689 315.7225,300.8128 315.3786,301.1245 315.0058,301.401 314.6076,301.6397 314.188,301.8381 313.751,301.9945"/>
    <polygon points="303.8983,295.2371 303.4251,296.2375 302.8562,297.1866 302.197,298.0755 301.4539,298.8954 300.6339,299.6386 299.7451,300.2978 298.7959,300.8667 297.7956,301.3398 296.7537,301.7126 295.6802,301.9815 294.5856,302.1439 293.4803,302.1982 292.375,302.1439 291.2804,301.9815 290.207,301.7126 289.1651,301.3398 288.1647,300.8667 287.2155,300.2978 286.3267,299.6386 285.5068,298.8954 284.7636,298.0755 284.1044,297.1866 283.5355,296.2375 283.0624,295.2371 282.6896,294.1952 282.4207,293.1218 282.2583,292.0271 282.204,290.9219 282.2583,289.8166 282.4207,288.722 282.6896,287.6485 283.0624,286.6066 283.5355,285.6062 284.1044,284.6571 284.7636,283.7682 285.5068,282.9483 286.3267,282.2052 287.2155,281.546 288.1647,280.977 289.1651,280.5039 290.207,280.1311 291.2804,279.8622 292.375,279.6999 293.4803,279.6456 294.5856,279.6999 295.6802,279.8622 296.7537,280.1311 297.7956,280.5039 298.7959,280.977 299.7451,281.546 300.6339,282.2052 301.4539,282.9483 302.197,283.7682 302.8562,284.6571 303.4251,285.6062 303.8983,286.6066 304.2711,287.6485 304.54,288.722 304.7023,289.8166 304.7566,290.9219 304.7023,292.0271 304.54,293.1218 304.2711,294.1952"/>
    <polygon points="312.5268,273.1354 310.365,274.1579 308.1133,274.9635 305.7935,275.5446 303.4279,275.8955 301.0394,276.0128 298.6508,275.8955 296.2852,275.5446 293.9654,274.9635 291.7138,274.1579 289.5519,273.1354 287.5007,271.9059 285.5799,270.4813 283.8079,268.8753 282.2019,267.1034 280.7773,265.1825 279.5479,263.1313 278.5254,260.9695 277.7197,258.7178 277.1386,256.398 276.7877,254.0324 276.6704,251.6439 276.7877,249.2553 277.1386,246.8897 277.7197,244.5699 278.5254,242.3183 279.5479,240.1564 280.7773,238.1052 282.2019,236.1843 283.8079,234.4124 285.5799,232.8064 287.5007,231.3818 289.5519,230.1523 291.7138,229.1299 293.9654,228.3242 296.2852,227.7431 298.6508,227.3922 301.0394,227.2749 303.4279,227.3922 305.7935,227.7431 308.1133,228.3242 310.365,229.1299 312.5268,230.1523 314.578,231.3818 316.4989,232.8064 318.2708,234.4124 319.8768,236.1843 321.3014,238.1052 322.5309,240.1564 323.5534,242.3183 324.359,244.5699 324.9401,246.8897 325.291,249.2553 325.4083,251.6439 325.291,254.0324 324.9401,256.398 324.359,258.7178 323.5534,260.9695 322.5309,263.1313 321.3014,265.1825 319.8768,267.1034 318.2708,268.8753 316.4989,270.4813 314.578,271.9059"/>
    <polygon points="361.6651,247.7254 361.3886,248.0982 361.0769,248.4421 360.7329,248.7538 360.3601,249.0304 359.962,249.269 359.5424,249.4675 359.1053,249.6238 358.6551,249.7366 358.1959,249.8047 357.7323,249.8275 357.2687,249.8047 356.8095,249.7366 356.3592,249.6238 355.9222,249.4675 355.5026,249.269 355.1045,249.0304 354.7316,248.7538 354.3877,248.4421 354.076,248.0982 353.7995,247.7254 353.5608,247.3272 353.3624,246.9076 353.206,246.4706 353.0932,246.0203 353.0251,245.5611 353.0023,245.0975 353.0251,244.6339 353.0932,244.1748 353.206,243.7245 353.3624,243.2874 353.5608,242.8678 353.7995,242.4697 354.076,242.0969 354.3877,241.7529 354.7316,241.4412 355.1045,241.1647 355.5026,240.9261 355.9222,240.7276 356.3592,240.5712 356.8095,240.4584 357.2687,240.3903 357.7323,240.3676 358.1959,240.3903 358.6551,240.4584 359.1053,240.5712 359.5424,240.7276 359.962,240.9261 360.3601,241.1647 360.7329,241.4412 361.0769,241.7529 361.3886,242.0969 361.6651,242.4697 361.9037,242.8678 362.1022,243.2874 362.2586,243.7245 362.3714,244.1748 362.4395,244.6339 362.4623,245.0975 362.4395,245.5611 362.3714,246.0203 362.2586,246.4706 362.1022,246.9076 361.9037,247.3272"/>
    <polygon points="327.5583,238.5512 327.6126,237.4459 327.775,236.3513 328.0439,235.2779 328.4167,234.2359 328.8898,233.2356 329.4587,232.2864 330.1179,231.3976 330.8611,230.5776 331.681,229.8345 332.5699,229.1753 333.519,228.6064 334.5194,228.1332 335.5613,227.7604 336.6347,227.4916 337.7294,227.3292 338.8346,227.2749 339.9399,227.3292 341.0345,227.4916 342.108,227.7604 343.1499,228.1332 344.1503,228.6064 345.0994,229.1753 345.9883,229.8345 346.8082,230.5776 347.5513,231.3976 348.2106,232.2864 348.7795,233.2356 349.2526,234.2359 349.6254,235.2779 349.8943,236.3513 350.0567,237.4459 350.111,238.5512 350.0567,239.6565 349.8943,240.7511 349.6254,241.8245 349.2526,242.8664 348.7795,243.8668 348.2106,244.816 347.5513,245.7048 346.8082,246.5247 345.9883,247.2679 345.0994,247.9271 344.1503,248.496 343.1499,248.9691 342.108,249.3419 341.0345,249.6108 339.9399,249.7732 338.8346,249.8275 337.7294,249.7732 336.6347,249.6108 335.5613,249.3419 334.5194,248.9691 333.519,248.496 332.5699,247.9271 331.681,247.2679 330.8611,246.5247 330.1179,245.7048 329.4587,244.816 328.8898,243.8668 328.4167,242.8664 328.0439,241.8245 327.775,240.7511 327.6126,239.6565"/>
    <polygon points="322.3435,220.9322 322.7938,220.8194 323.2529,220.7513 323.7165,220.7286 324.1802,220.7513 324.6393,220.8194 325.0896,220.9322 325.5266,221.0886 325.9462,221.2871 326.3444,221.5257 326.7172,221.8022 327.0611,222.1139 327.3729,222.4579 327.6494,222.8307 327.888,223.2288 328.0865,223.6484 328.2428,224.0855 328.3556,224.5358 328.4237,224.9949 328.4465,225.4585 328.4237,225.9221 328.3556,226.3813 328.2428,226.8316 328.0865,227.2686 327.888,227.6882 327.6494,228.0864 327.3729,228.4592 327.0611,228.8031 326.7172,229.1148 326.3444,229.3914 325.9462,229.63 325.5266,229.8285 325.0896,229.9848 324.6393,230.0976 324.1802,230.1657 323.7165,230.1885 323.2529,230.1657 322.7938,230.0976 322.3435,229.9848 321.9065,229.8285 321.4868,229.63 321.0887,229.3914 320.7159,229.1148 320.3719,228.8031 320.0602,228.4592 319.7837,228.0864 319.5451,227.6882 319.3466,227.2686 319.1902,226.8316 319.0774,226.3813 319.0093,225.9221 318.9866,225.4585 319.0093,224.9949 319.0774,224.5358 319.1902,224.0855 319.3466,223.6484 319.5451,223.2288 319.7837,222.8307 320.0602,222.4579 320.3719,222.1139 320.7159,221.8022 321.0887,221.5257 321.4868,221.2871 321.9065,221.0886"/>
    <polygon points="316.3108,216.2844 316.5494,216.6825 316.7479,217.1021 316.9043,217.5392 317.017,217.9894 317.0851,218.4486 317.1079,218.9122 317.0851,219.3758 317.017,219.835 316.9043,220.2852 316.7479,220.7223 316.5494,221.1419 316.3108,221.54 316.0343,221.9129 315.7225,222.2568 315.3786,222.5685 315.0058,222.845 314.6076,223.0837 314.188,223.2821 313.751,223.4385 313.3007,223.5513 312.8416,223.6194 312.378,223.6422 311.9143,223.6194 311.4552,223.5513 311.0049,223.4385 310.5679,223.2821 310.1483,223.0837 309.7501,222.845 309.3773,222.5685 309.0334,222.2568 308.7216,221.9129 308.4451,221.54 308.2065,221.1419 308.008,220.7223 307.8517,220.2852 307.7389,219.835 307.6708,219.3758 307.648,218.9122 307.6708,218.4486 307.7389,217.9894 307.8517,217.5392 308.008,217.1021 308.2065,216.6825 308.4451,216.2844 308.7216,215.9115 309.0334,215.5676 309.3773,215.2559 309.7501,214.9794 310.1483,214.7407 310.5679,214.5423 311.0049,214.3859 311.4552,214.2731 311.9143,214.205 312.378,214.1822 312.8416,214.205 313.3007,214.2731 313.751,214.3859 314.188,214.5423 314.6076,214.7407 315.0058,214.9794 315.3786,215.2559 315.7225,215.5676 316.0343,215.9115"/>
    <polygon points="314.6076,201.6481 315.0058,201.8867 315.3786,202.1632 315.7225,202.4749 316.0343,202.8189 316.3108,203.1917 316.5494,203.5898 316.7479,204.0094 316.9043,204.4465 317.017,204.8968 317.0851,205.3559 317.1079,205.8195 317.0851,206.2831 317.017,206.7423 316.9043,207.1926 316.7479,207.6296 316.5494,208.0492 316.3108,208.4474 316.0343,208.8202 315.7225,209.1641 315.3786,209.4758 315.0058,209.7524 314.6076,209.991 314.188,210.1894 313.751,210.3458 313.3007,210.4586 312.8416,210.5267 312.378,210.5495 311.9143,210.5267 311.4552,210.4586 311.0049,210.3458 310.5679,210.1894 310.1483,209.991 309.7501,209.7524 309.3773,209.4758 309.0334,209.1641 308.7216,208.8202 308.4451,208.4474 308.2065,208.0492 308.008,207.6296 307.8517,207.1926 307.7389,206.7423 307.6708,206.2831 307.648,205.8195 307.6708,205.3559 307.7389,204.8968 307.8517,204.4465 308.008,204.0094 308.2065,203.5898 308.4451,203.1917 308.7216,202.8189 309.0334,202.4749 309.3773,202.1632 309.7501,201.8867 310.1483,201.6481 310.5679,201.4496 311.0049,201.2932 311.4552,201.1804 311.9143,201.1123 312.378,201.0896 312.8416,201.1123 313.3007,201.1804 313.751,201.2932 314.188,201.4496"/>
    <polygon points="282.2583,213.4711 282.204,212.3659 282.2583,211.2606 282.4207,210.166 282.6896,209.0925 283.0624,208.0506 283.5355,207.0502 284.1044,206.1011 284.7636,205.2122 285.5068,204.3923 286.3267,203.6492 287.2155,202.99 288.1647,202.421 289.1651,201.9479 290.207,201.5751 291.2804,201.3062 292.375,201.1438 293.4803,201.0896 294.5856,201.1438 295.6802,201.3062 296.7537,201.5751 297.7956,201.9479 298.7959,202.421 299.7451,202.99 300.6339,203.6492 301.4539,204.3923 302.197,205.2122 302.8562,206.1011 303.4251,207.0502 303.8983,208.0506 304.2711,209.0925 304.54,210.166 304.7023,211.2606 304.7566,212.3659 304.7023,213.4711 304.54,214.5658 304.2711,215.6392 303.8983,216.6811 303.4251,217.6815 302.8562,218.6306 302.197,219.5195 301.4539,220.3394 300.6339,221.0826 299.7451,221.7418 298.7959,222.3107 297.7956,222.7838 296.7537,223.1566 295.6802,223.4255 294.5856,223.5879 293.4803,223.6422 292.375,223.5879 291.2804,223.4255 290.207,223.1566 289.1651,222.7838 288.1647,222.3107 287.2155,221.7418 286.3267,221.0826 285.5068,220.3394 284.7636,219.5195 284.1044,218.6306 283.5355,217.6815 283.0624,216.6811 282.6896,215.6392 282.4207,214.5658"/>
    <polygon points="265.0106,202.9445 267.1725,203.967 269.2237,205.1965 271.1446,206.6211 272.9165,208.2271 274.5225,209.999 275.9471,211.9198 277.1766,213.9711 278.199,216.1329 279.0047,218.3846 279.5858,220.7044 279.9367,223.0699 280.054,225.4585 279.9367,227.8471 279.5858,230.2127 279.0047,232.5325 278.199,234.7841 277.1766,236.946 275.9471,238.9972 274.5225,240.918 272.9165,242.69 271.1446,244.296 269.2237,245.7206 267.1725,246.95 265.0106,247.9725 262.759,248.7782 260.4392,249.3593 258.0736,249.7102 255.685,249.8275 253.2965,249.7102 250.9309,249.3593 248.6111,248.7782 246.3594,247.9725 244.1976,246.95 242.1464,245.7206 240.2255,244.296 238.4536,242.69 236.8476,240.918 235.423,238.9972 234.1935,236.946 233.171,234.7841 232.3654,232.5325 231.7843,230.2127 231.4334,227.8471 231.3161,225.4585 231.4334,223.0699 231.7843,220.7044 232.3654,218.3846 233.171,216.1329 234.1935,213.9711 235.423,211.9198 236.8476,209.999 238.4536,208.2271 240.2255,206.6211 242.1464,205.1965 244.1976,203.967 246.3594,202.9445 248.6111,202.1389 250.9309,201.5578 253.2965,201.2069 255.685,201.0896 258.0736,201.2069 260.4392,201.5578 262.759,202.1389"/>
    <polygon points="229.1682,236.1843 230.5928,238.1052 231.8222,240.1564 232.8447,242.3183 233.6504,244.5699 234.2314,246.8897 234.5823,249.2553 234.6997,251.6439 234.5823,254.0324 234.2314,256.398 233.6504,258.7178 232.8447,260.9695 231.8222,263.1313 230.5928,265.1825 229.1682,267.1034 227.5622,268.8753 225.7902,270.4813 223.8694,271.9059 221.8182,273.1354 219.6563,274.1579 217.4046,274.9635 215.0849,275.5446 212.7193,275.8955 210.3307,276.0128 207.9421,275.8955 205.5766,275.5446 203.2568,274.9635 201.0051,274.1579 198.8433,273.1354 196.792,271.9059 194.8712,270.4813 193.0992,268.8753 191.4932,267.1034 190.0686,265.1825 188.8392,263.1313 187.8167,260.9695 187.0111,258.7178 186.43,256.398 186.0791,254.0324 185.9617,251.6439 186.0791,249.2553 186.43,246.8897 187.0111,244.5699 187.8167,242.3183 188.8392,240.1564 190.0686,238.1052 191.4932,236.1843 193.0992,234.4124 194.8712,232.8064 196.792,231.3818 198.8433,230.1523 201.0051,229.1299 203.2568,228.3242 205.5766,227.7431 207.9421,227.3922 210.3307,227.2749 212.7193,227.3922 215.0849,227.7431 217.4046,228.3242 219.6563,229.1299 221.8182,230.1523 223.8694,231.3818 225.7902,232.8064 227.5622,234.4124"/>
    <polygon points="237.708,190.4958 238.1812,191.4961 238.7501,192.4453 239.4093,193.3341 240.1524,194.1541 240.9724,194.8972 241.8612,195.5564 242.8104,196.1253 243.8107,196.5985 244.8526,196.9713 245.9261,197.2402 247.0207,197.4025 248.126,197.4568 249.2313,197.4025 250.3259,197.2402 251.3993,196.9713 252.4412,196.5985 253.4416,196.1253 254.3908,195.5564 255.2796,194.8972 256.0995,194.1541 256.8427,193.3341 257.5019,192.4453 258.0708,191.4961 258.5439,190.4958 258.9167,189.4539 259.1856,188.3804 259.348,187.2858 259.4023,186.1805 259.348,185.0753 259.1856,183.9806 258.9167,182.9072 258.5439,181.8653 258.0708,180.8649 257.5019,179.9157 256.8427,179.0269 256.0995,178.207 255.2796,177.4638 254.3908,176.8046 253.4416,176.2357 252.4412,175.7626 251.3993,175.3898 250.3259,175.1209 249.2313,174.9585 248.126,174.9042 247.0207,174.9585 245.9261,175.1209 244.8526,175.3898 243.8107,175.7626 242.8104,176.2357 241.8612,176.8046 240.9724,177.4638 240.1524,178.207 239.4093,179.0269 238.7501,179.9157 238.1812,180.8649 237.708,181.8653 237.3352,182.9072 237.0663,183.9806 236.904,185.0753 236.8497,186.1805 236.904,187.2858 237.0663,188.3804 237.3352,189.4539"/>
    <polygon points="248.0028,163.5409 248.2793,163.9137 248.5179,164.3118 248.7164,164.7314 248.8728,165.1685 248.9855,165.6187 249.0537,166.0779 249.0764,166.5415 249.0537,167.0051 248.9855,167.4643 248.8728,167.9146 248.7164,168.3516 248.5179,168.7712 248.2793,169.1694 248.0028,169.5422 247.6911,169.8861 247.3471,170.1978 246.9743,170.4743 246.5762,170.713 246.1565,170.9114 245.7195,171.0678 245.2692,171.1806 244.8101,171.2487 244.3465,171.2715 243.8828,171.2487 243.4237,171.1806 242.9734,171.0678 242.5364,170.9114 242.1168,170.713 241.7186,170.4743 241.3458,170.1978 241.0019,169.8861 240.6901,169.5422 240.4136,169.1694 240.175,168.7712 239.9765,168.3516 239.8202,167.9146 239.7074,167.4643 239.6393,167.0051 239.6165,166.5415 239.6393,166.0779 239.7074,165.6187 239.8202,165.1685 239.9765,164.7314 240.175,164.3118 240.4136,163.9137 240.6901,163.5409 241.0019,163.1969 241.3458,162.8852 241.7186,162.6087 242.1168,162.3701 242.5364,162.1716 242.9734,162.0152 243.4237,161.9024 243.8828,161.8343 244.3465,161.8115 244.8101,161.8343 245.2692,161.9024 245.7195,162.0152 246.1565,162.1716 246.5762,162.3701 246.9743,162.6087 247.3471,162.8852 247.6911,163.1969"/>
    <polygon points="236.3525,143.5579 236.6642,143.9019 236.9407,144.2747 237.1793,144.6728 237.3778,145.0924 237.5342,145.5295 237.647,145.9797 237.7151,146.4389 237.7378,146.9025 237.7151,147.3661 237.647,147.8253 237.5342,148.2756 237.3778,148.7126 237.1793,149.1322 236.9407,149.5304 236.6642,149.9032 236.3525,150.2471 236.0085,150.5588 235.6357,150.8353 235.2376,151.074 234.818,151.2724 234.3809,151.4288 233.9306,151.5416 233.4715,151.6097 233.0079,151.6325 232.5443,151.6097 232.0851,151.5416 231.6348,151.4288 231.1978,151.2724 230.7782,151.074 230.38,150.8353 230.0072,150.5588 229.6633,150.2471 229.3516,149.9032 229.075,149.5304 228.8364,149.1322 228.6379,148.7126 228.4816,148.2756 228.3688,147.8253 228.3007,147.3661 228.2779,146.9025 228.3007,146.4389 228.3688,145.9797 228.4816,145.5295 228.6379,145.0924 228.8364,144.6728 229.075,144.2747 229.3516,143.9019 229.6633,143.5579 230.0072,143.2462 230.38,142.9697 230.7782,142.7311 231.1978,142.5326 231.6348,142.3762 232.0851,142.2634 232.5443,142.1953 233.0079,142.1725 233.4715,142.1953 233.9306,142.2634 234.3809,142.3762 234.818,142.5326 235.2376,142.7311 235.6357,142.9697 236.0085,143.2462"/>
    <polygon points="228.3688,160.918 228.3007,160.4588 228.2779,159.9952 228.3007,159.5316 228.3688,159.0724 228.4816,158.6221 228.6379,158.1851 228.8364,157.7655 229.075,157.3674 229.3516,156.9945 229.6633,156.6506 230.0072,156.3389 230.38,156.0624 230.7782,155.8237 231.1978,155.6253 231.6348,155.4689 232.0851,155.3561 232.5443,155.288 233.0079,155.2652 233.4715,155.288 233.9306,155.3561 234.3809,155.4689 234.818,155.6253 235.2376,155.8237 235.6357,156.0624 236.0085,156.3389 236.3525,156.6506 236.6642,156.9945 236.9407,157.3674 237.1793,157.7655 237.3778,158.1851 237.5342,158.6221 237.647,159.0724 237.7151,159.5316 237.7378,159.9952 237.7151,160.4588 237.647,160.918 237.5342,161.3682 237.3778,161.8053 237.1793,162.2249 236.9407,162.623 236.6642,162.9959 236.3525,163.3398 236.0085,163.6515 235.6357,163.928 235.2376,164.1667 234.818,164.3651 234.3809,164.5215 233.9306,164.6343 233.4715,164.7024 233.0079,164.7252 232.5443,164.7024 232.0851,164.6343 231.6348,164.5215 231.1978,164.3651 230.7782,164.1667 230.38,163.928 230.0072,163.6515 229.6633,163.3398 229.3516,162.9959 229.075,162.623 228.8364,162.2249 228.6379,161.8053 228.4816,161.3682"/>
    <polygon points="231.1978,168.7179 231.6348,168.5616 232.0851,168.4488 232.5443,168.3807 233.0079,168.3579 233.4715,168.3807 233.9306,168.4488 234.3809,168.5616 234.818,168.7179 235.2376,168.9164 235.6357,169.155 236.0085,169.4315 236.3525,169.7433 236.6642,170.0872 236.9407,170.46 237.1793,170.8582 237.3778,171.2778 237.5342,171.7148 237.647,172.1651 237.7151,172.6242 237.7378,173.0879 237.7151,173.5515 237.647,174.0106 237.5342,174.4609 237.3778,174.8979 237.1793,175.3175 236.9407,175.7157 236.6642,176.0885 236.3525,176.4325 236.0085,176.7442 235.6357,177.0207 235.2376,177.2593 234.818,177.4578 234.3809,177.6142 233.9306,177.7269 233.4715,177.7951 233.0079,177.8178 232.5443,177.7951 232.0851,177.7269 231.6348,177.6142 231.1978,177.4578 230.7782,177.2593 230.38,177.0207 230.0072,176.7442 229.6633,176.4325 229.3516,176.0885 229.075,175.7157 228.8364,175.3175 228.6379,174.8979 228.4816,174.4609 228.3688,174.0106 228.3007,173.5515 228.2779,173.0879 228.3007,172.6242 228.3688,172.1651 228.4816,171.7148 228.6379,171.2778 228.8364,170.8582 229.075,170.46 229.3516,170.0872 229.6633,169.7433 230.0072,169.4315 230.38,169.155 230.7782,168.9164"/>
    <polygon points="216.7321,192.1196 217.4753,191.2996 218.2952,190.5565 219.184,189.8973 220.1332,189.3284 221.1336,188.8552 222.1755,188.4824 223.2489,188.2136 224.3435,188.0512 225.4488,187.9969 226.5541,188.0512 227.6487,188.2136 228.7222,188.4824 229.7641,188.8552 230.7644,189.3284 231.7136,189.8973 232.6024,190.5565 233.4224,191.2996 234.1655,192.1196 234.8247,193.0084 235.3936,193.9576 235.8668,194.9579 236.2396,195.9999 236.5085,197.0733 236.6708,198.1679 236.7251,199.2732 236.6708,200.3785 236.5085,201.4731 236.2396,202.5465 235.8668,203.5884 235.3936,204.5888 234.8247,205.538 234.1655,206.4268 233.4224,207.2467 232.6024,207.9899 231.7136,208.6491 230.7644,209.218 229.7641,209.6911 228.7222,210.0639 227.6487,210.3328 226.5541,210.4952 225.4488,210.5495 224.3435,210.4952 223.2489,210.3328 222.1755,210.0639 221.1336,209.6911 220.1332,209.218 219.184,208.6491 218.2952,207.9899 217.4753,207.2467 216.7321,206.4268 216.0729,205.538 215.504,204.5888 215.0309,203.5884 214.6581,202.5465 214.3892,201.4731 214.2268,200.3785 214.1725,199.2732 214.2268,198.1679 214.3892,197.0733 214.6581,195.9999 215.0309,194.9579 215.504,193.9576 216.0729,193.0084"/>
    <polygon points="207.33,189.8368 206.9861,189.5251 206.6744,189.1812 206.3979,188.8084 206.1592,188.4102 205.9608,187.9906 205.8044,187.5536 205.6916,187.1033 205.6235,186.6441 205.6007,186.1805 205.6235,185.7169 205.6916,185.2578 205.8044,184.8075 205.9608,184.3704 206.1592,183.9508 206.3979,183.5527 206.6744,183.1799 206.9861,182.8359 207.33,182.5242 207.7029,182.2477 208.101,182.0091 208.5206,181.8106 208.9577,181.6542 209.4079,181.5414 209.8671,181.4733 210.3307,181.4506 210.7943,181.4733 211.2535,181.5414 211.7037,181.6542 212.1408,181.8106 212.5604,182.0091 212.9585,182.2477 213.3314,182.5242 213.6753,182.8359 213.987,183.1799 214.2635,183.5527 214.5022,183.9508 214.7006,184.3704 214.857,184.8075 214.9698,185.2578 215.0379,185.7169 215.0607,186.1805 215.0379,186.6441 214.9698,187.1033 214.857,187.5536 214.7006,187.9906 214.5022,188.4102 214.2635,188.8084 213.987,189.1812 213.6753,189.5251 213.3314,189.8368 212.9585,190.1134 212.5604,190.352 212.1408,190.5504 211.7037,190.7068 211.2535,190.8196 210.7943,190.8877 210.3307,190.9105 209.8671,190.8877 209.4079,190.8196 208.9577,190.7068 208.5206,190.5504 208.101,190.352 207.7029,190.1134"/>
    <polygon points="194.055,219.5195 193.3957,218.6306 192.8268,217.6815 192.3537,216.6811 191.9809,215.6392 191.712,214.5658 191.5496,213.4711 191.4953,212.3659 191.5496,211.2606 191.712,210.166 191.9809,209.0925 192.3537,208.0506 192.8268,207.0502 193.3957,206.1011 194.055,205.2122 194.7981,204.3923 195.618,203.6492 196.5069,202.99 197.456,202.421 198.4564,201.9479 199.4983,201.5751 200.5718,201.3062 201.6664,201.1438 202.7717,201.0896 203.8769,201.1438 204.9716,201.3062 206.045,201.5751 207.0869,201.9479 208.0873,202.421 209.0364,202.99 209.9253,203.6492 210.7452,204.3923 211.4884,205.2122 212.1476,206.1011 212.7165,207.0502 213.1896,208.0506 213.5624,209.0925 213.8313,210.166 213.9937,211.2606 214.048,212.3659 213.9937,213.4711 213.8313,214.5658 213.5624,215.6392 213.1896,216.6811 212.7165,217.6815 212.1476,218.6306 211.4884,219.5195 210.7452,220.3394 209.9253,221.0826 209.0364,221.7418 208.0873,222.3107 207.0869,222.7838 206.045,223.1566 204.9716,223.4255 203.8769,223.5879 202.7717,223.6422 201.6664,223.5879 200.5718,223.4255 199.4983,223.1566 198.4564,222.7838 197.456,222.3107 196.5069,221.7418 195.618,221.0826 194.7981,220.3394"/>
    <polygon points="138.3664,228.0864 138.6429,228.4592 138.9546,228.8031 139.2985,229.1148 139.6714,229.3914 140.0695,229.63 140.4891,229.8285 140.9262,229.9848 141.3764,230.0976 141.8356,230.1657 142.2992,230.1885 142.7628,230.1657 143.222,230.0976 143.6723,229.9848 144.1093,229.8285 144.5289,229.63 144.927,229.3914 145.2999,229.1148 145.6438,228.8031 145.9555,228.4592 146.232,228.0864 146.4707,227.6882 146.6691,227.2686 146.8255,226.8316 146.9383,226.3813 147.0064,225.9221 147.0292,225.4585 147.0064,224.9949 146.9383,224.5358 146.8255,224.0855 146.6691,223.6484 146.4707,223.2288 146.232,222.8307 145.9555,222.4579 145.6438,222.1139 145.2999,221.8022 144.927,221.5257 144.5289,221.2871 144.1093,221.0886 143.6723,220.9322 143.222,220.8194 142.7628,220.7513 142.2992,220.7286 141.8356,220.7513 141.3764,220.8194 140.9262,220.9322 140.4891,221.0886 140.0695,221.2871 139.6714,221.5257 139.2985,221.8022 138.9546,222.1139 138.6429,222.4579 138.3664,222.8307 138.1277,223.2288 137.9293,223.6484 137.7729,224.0855 137.6601,224.5358 137.592,224.9949 137.5692,225.4585 137.592,225.9221 137.6601,226.3813 137.7729,226.8316 137.9293,227.2686 138.1277,227.6882"/>
    <polygon points="131.4668,240.8531 130.4249,241.2259 129.4245,241.699 128.4754,242.268 127.5865,242.9272 126.7666,243.6703 126.0235,244.4902 125.3643,245.3791 124.7953,246.3282 124.3222,247.3286 123.9494,248.3705 123.6805,249.444 123.5181,250.5386 123.4639,251.6439 123.5181,252.7491 123.6805,253.8438 123.9494,254.9172 124.3222,255.9591 124.7953,256.9595 125.3643,257.9086 126.0235,258.7975 126.7666,259.6174 127.5865,260.3606 128.4754,261.0198 129.4245,261.5887 130.4249,262.0618 131.4668,262.4346 132.5403,262.7035 133.6349,262.8659 134.7402,262.9202 135.8454,262.8659 136.9401,262.7035 138.0135,262.4346 139.0554,262.0618 140.0558,261.5887 141.0049,261.0198 141.8938,260.3606 142.7137,259.6174 143.4569,258.7975 144.1161,257.9086 144.685,256.9595 145.1581,255.9591 145.5309,254.9172 145.7998,253.8438 145.9622,252.7491 146.0165,251.6439 145.9622,250.5386 145.7998,249.444 145.5309,248.3705 145.1581,247.3286 144.685,246.3282 144.1161,245.3791 143.4569,244.4902 142.7137,243.6703 141.8938,242.9272 141.0049,242.268 140.0558,241.699 139.0554,241.2259 138.0135,240.8531 136.9401,240.5842 135.8454,240.4219 134.7402,240.3676 133.6349,240.4219 132.5403,240.5842"/>
    <polygon points="129.1505,227.6349 129.5876,227.4786 130.0379,227.3658 130.497,227.2977 130.9606,227.2749 131.4242,227.2977 131.8834,227.3658 132.3337,227.4786 132.7707,227.6349 133.1903,227.8334 133.5885,228.072 133.9613,228.3485 134.3052,228.6603 134.6169,229.0042 134.8935,229.377 135.1321,229.7752 135.3306,230.1948 135.4869,230.6318 135.5997,231.0821 135.6678,231.5412 135.6906,232.0049 135.6678,232.4685 135.5997,232.9276 135.4869,233.3779 135.3306,233.8149 135.1321,234.2346 134.8935,234.6327 134.6169,235.0055 134.3052,235.3495 133.9613,235.6612 133.5885,235.9377 133.1903,236.1763 132.7707,236.3748 132.3337,236.5312 131.8834,236.6439 131.4242,236.7121 130.9606,236.7348 130.497,236.7121 130.0379,236.6439 129.5876,236.5312 129.1505,236.3748 128.7309,236.1763 128.3328,235.9377 127.96,235.6612 127.616,235.3495 127.3043,235.0055 127.0278,234.6327 126.7892,234.2346 126.5907,233.8149 126.4343,233.3779 126.3215,232.9276 126.2534,232.4685 126.2307,232.0049 126.2534,231.5412 126.3215,231.0821 126.4343,230.6318 126.5907,230.1948 126.7892,229.7752 127.0278,229.377 127.3043,229.0042 127.616,228.6603 127.96,228.3485 128.3328,228.072 128.7309,227.8334"/>
    <polygon points="128.3328,214.9794 128.7309,214.7407 129.1505,214.5423 129.5876,214.3859 130.0379,214.2731 130.497,214.205 130.9606,214.1822 131.4242,214.205 131.8834,214.2731 132.3337,214.3859 132.7707,214.5423 133.1903,214.7407 133.5885,214.9794 133.9613,215.2559 134.3052,215.5676 134.6169,215.9115 134.8935,216.2844 135.1321,216.6825 135.3306,217.1021 135.4869,217.5392 135.5997,217.9894 135.6678,218.4486 135.6906,218.9122 135.6678,219.3758 135.5997,219.835 135.4869,220.2852 135.3306,220.7223 135.1321,221.1419 134.8935,221.54 134.6169,221.9129 134.3052,222.2568 133.9613,222.5685 133.5885,222.845 133.1903,223.0837 132.7707,223.2821 132.3337,223.4385 131.8834,223.5513 131.4242,223.6194 130.9606,223.6422 130.497,223.6194 130.0379,223.5513 129.5876,223.4385 129.1505,223.2821 128.7309,223.0837 128.3328,222.845 127.96,222.5685 127.616,222.2568 127.3043,221.9129 127.0278,221.54 126.7892,221.1419 126.5907,220.7223 126.4343,220.2852 126.3215,219.835 126.2534,219.3758 126.2307,218.9122 126.2534,218.4486 126.3215,217.9894 126.4343,217.5392 126.5907,217.1021 126.7892,216.6825 127.0278,216.2844 127.3043,215.9115 127.616,215.5676 127.96,215.2559"/>
    <polygon points="119.622,220.7286 120.0857,220.7513 120.5448,220.8194 120.9951,220.9322 121.4321,221.0886 121.8517,221.2871 122.2499,221.5257 122.6227,221.8022 122.9666,222.1139 123.2784,222.4579 123.5549,222.8307 123.7935,223.2288 123.992,223.6484 124.1483,224.0855 124.2611,224.5358 124.3292,224.9949 124.352,225.4585 124.3292,225.9221 124.2611,226.3813 124.1483,226.8316 123.992,227.2686 123.7935,227.6882 123.5549,228.0864 123.2784,228.4592 122.9666,228.8031 122.6227,229.1148 122.2499,229.3914 121.8517,229.63 121.4321,229.8285 120.9951,229.9848 120.5448,230.0976 120.0857,230.1657 119.622,230.1885 119.1584,230.1657 118.6993,230.0976 118.249,229.9848 117.812,229.8285 117.3924,229.63 116.9942,229.3914 116.6214,229.1148 116.2775,228.8031 115.9657,228.4592 115.6892,228.0864 115.4506,227.6882 115.2521,227.2686 115.0957,226.8316 114.983,226.3813 114.9149,225.9221 114.8921,225.4585 114.9149,224.9949 114.983,224.5358 115.0957,224.0855 115.2521,223.6484 115.4506,223.2288 115.6892,222.8307 115.9657,222.4579 116.2775,222.1139 116.6214,221.8022 116.9942,221.5257 117.3924,221.2871 117.812,221.0886 118.249,220.9322 118.6993,220.8194 119.1584,220.7513"/>
    <polygon points="112.9907,231.5412 113.0134,232.0049 112.9907,232.4685 112.9226,232.9276 112.8098,233.3779 112.6534,233.8149 112.4549,234.2346 112.2163,234.6327 111.9398,235.0055 111.6281,235.3495 111.2841,235.6612 110.9113,235.9377 110.5132,236.1763 110.0935,236.3748 109.6565,236.5312 109.2062,236.6439 108.7471,236.7121 108.2835,236.7348 107.8198,236.7121 107.3607,236.6439 106.9104,236.5312 106.4734,236.3748 106.0538,236.1763 105.6556,235.9377 105.2828,235.6612 104.9389,235.3495 104.6271,235.0055 104.3506,234.6327 104.112,234.2346 103.9135,233.8149 103.7572,233.3779 103.6444,232.9276 103.5763,232.4685 103.5535,232.0049 103.5763,231.5412 103.6444,231.0821 103.7572,230.6318 103.9135,230.1948 104.112,229.7752 104.3506,229.377 104.6271,229.0042 104.9389,228.6603 105.2828,228.3485 105.6556,228.072 106.0538,227.8334 106.4734,227.6349 106.9104,227.4786 107.3607,227.3658 107.8198,227.2977 108.2835,227.2749 108.7471,227.2977 109.2062,227.3658 109.6565,227.4786 110.0935,227.6349 110.5132,227.8334 110.9113,228.072 111.2841,228.3485 111.6281,228.6603 111.9398,229.0042 112.2163,229.377 112.4549,229.7752 112.6534,230.1948 112.8098,230.6318 112.9226,231.0821"/>
    <polygon points="114.9149,239.0148 114.8921,238.5512 114.9149,238.0876 114.983,237.6284 115.0957,237.1782 115.2521,236.7411 115.4506,236.3215 115.6892,235.9234 115.9657,235.5505 116.2775,235.2066 116.6214,234.8949 116.9942,234.6184 117.3924,234.3797 117.812,234.1813 118.249,234.0249 118.6993,233.9121 119.1584,233.844 119.622,233.8212 120.0857,233.844 120.5448,233.9121 120.9951,234.0249 121.4321,234.1813 121.8517,234.3797 122.2499,234.6184 122.6227,234.8949 122.9666,235.2066 123.2784,235.5505 123.5549,235.9234 123.7935,236.3215 123.992,236.7411 124.1483,237.1782 124.2611,237.6284 124.3292,238.0876 124.352,238.5512 124.3292,239.0148 124.2611,239.474 124.1483,239.9242 123.992,240.3613 123.7935,240.7809 123.5549,241.179 123.2784,241.5519 122.9666,241.8958 122.6227,242.2075 122.2499,242.484 121.8517,242.7227 121.4321,242.9211 120.9951,243.0775 120.5448,243.1903 120.0857,243.2584 119.622,243.2812 119.1584,243.2584 118.6993,243.1903 118.249,243.0775 117.812,242.9211 117.3924,242.7227 116.9942,242.484 116.6214,242.2075 116.2775,241.8958 115.9657,241.5519 115.6892,241.179 115.4506,240.7809 115.2521,240.3613 115.0957,239.9242 114.983,239.474"/>
    <polygon points="115.0957,263.3635 115.2521,262.9264 115.4506,262.5068 115.6892,262.1087 115.9657,261.7359 116.2775,261.3919 116.6214,261.0802 116.9942,260.8037 117.3924,260.5651 117.812,260.3666 118.249,260.2102 118.6993,260.0974 119.1584,260.0293 119.622,260.0066 120.0857,260.0293 120.5448,260.0974 120.9951,260.2102 121.4321,260.3666 121.8517,260.5651 122.2499,260.8037 122.6227,261.0802 122.9666,261.3919 123.2784,261.7359 123.5549,262.1087 123.7935,262.5068 123.992,262.9264 124.1483,263.3635 124.2611,263.8138 124.3292,264.2729 124.352,264.7365 124.3292,265.2001 124.2611,265.6593 124.1483,266.1096 123.992,266.5466 123.7935,266.9662 123.5549,267.3644 123.2784,267.7372 122.9666,268.0811 122.6227,268.3928 122.2499,268.6694 121.8517,268.908 121.4321,269.1065 120.9951,269.2628 120.5448,269.3756 120.0857,269.4437 119.622,269.4665 119.1584,269.4437 118.6993,269.3756 118.249,269.2628 117.812,269.1065 117.3924,268.908 116.9942,268.6694 116.6214,268.3928 116.2775,268.0811 115.9657,267.7372 115.6892,267.3644 115.4506,266.9662 115.2521,266.5466 115.0957,266.1096 114.983,265.6593 114.9149,265.2001 114.8921,264.7365 114.9149,264.2729 114.983,263.8138"/>
    <polygon points="95.3704,306.4031 95.7213,308.7687 96.3024,311.0885 97.1081,313.3401 98.1305,315.502 99.36,317.5532 100.7846,319.474 102.3906,321.246 104.1625,322.852 106.0834,324.2766 108.1346,325.506 110.2964,326.5285 112.5481,327.3342 114.8679,327.9153 117.2335,328.2662 119.622,328.3835 122.0106,328.2662 124.3762,327.9153 126.696,327.3342 128.9476,326.5285 131.1095,325.506 133.1607,324.2766 135.0816,322.852 136.8535,321.246 138.4595,319.474 139.8841,317.5532 141.1136,315.502 142.136,313.3401 142.9417,311.0885 143.5228,308.7687 143.8737,306.4031 143.991,304.0145 143.8737,301.626 143.5228,299.2604 142.9417,296.9406 142.136,294.6889 141.1136,292.5271 139.8841,290.4759 138.4595,288.555 136.8535,286.7831 135.0816,285.1771 133.1607,283.7525 131.1095,282.523 128.9476,281.5005 126.696,280.6949 124.3762,280.1138 122.0106,279.7629 119.622,279.6456 117.2335,279.7629 114.8679,280.1138 112.5481,280.6949 110.2964,281.5005 108.1346,282.523 106.0834,283.7525 104.1625,285.1771 102.3906,286.7831 100.7846,288.555 99.36,290.4759 98.1305,292.5271 97.1081,294.6889 96.3024,296.9406 95.7213,299.2604 95.3704,301.626 95.2531,304.0145"/>
    <polygon points="96.5394,321.4832 97.3594,322.2263 98.1025,323.0463 98.7617,323.9351 99.3306,324.8843 99.8038,325.8846 100.1766,326.9265 100.4455,328.0 100.6078,329.0946 100.6621,330.1999 100.6078,331.3051 100.4455,332.3998 100.1766,333.4732 99.8038,334.5151 99.3306,335.5155 98.7617,336.4646 98.1025,337.3535 97.3594,338.1734 96.5394,338.9166 95.6506,339.5758 94.7014,340.1447 93.7011,340.6178 92.6592,340.9906 91.5857,341.2595 90.4911,341.4219 89.3858,341.4762 88.2806,341.4219 87.1859,341.2595 86.1125,340.9906 85.0706,340.6178 84.0702,340.1447 83.121,339.5758 82.2322,338.9166 81.4123,338.1734 80.6691,337.3535 80.0099,336.4646 79.441,335.5155 78.9679,334.5151 78.5951,333.4732 78.3262,332.3998 78.1638,331.3051 78.1095,330.1999 78.1638,329.0946 78.3262,328.0 78.5951,326.9265 78.9679,325.8846 79.441,324.8843 80.0099,323.9351 80.6691,323.0463 81.4123,322.2263 82.2322,321.4832 83.121,320.824 84.0702,320.2551 85.0706,319.7819 86.1125,319.4091 87.1859,319.1402 88.2806,318.9779 89.3858,318.9236 90.4911,318.9779 91.5857,319.1402 92.6592,319.4091 93.7011,319.7819 94.7014,320.2551 95.6506,320.824"/>
    <polygon points="109.8631,332.2329 110.9577,332.0705 112.063,332.0162 113.1683,332.0705 114.2629,332.2329 115.3363,332.5018 116.3782,332.8746 117.3786,333.3477 118.3278,333.9166 119.2166,334.5758 120.0365,335.319 120.7797,336.1389 121.4389,337.0278 122.0078,337.9769 122.4809,338.9773 122.8537,340.0192 123.1226,341.0926 123.285,342.1873 123.3393,343.2925 123.285,344.3978 123.1226,345.4924 122.8537,346.5659 122.4809,347.6078 122.0078,348.6081 121.4389,349.5573 120.7797,350.4461 120.0365,351.2661 119.2166,352.0092 118.3278,352.6684 117.3786,353.2373 116.3782,353.7105 115.3363,354.0833 114.2629,354.3522 113.1683,354.5145 112.063,354.5688 110.9577,354.5145 109.8631,354.3522 108.7897,354.0833 107.7477,353.7105 106.7474,353.2373 105.7982,352.6684 104.9094,352.0092 104.0894,351.2661 103.3463,350.4461 102.6871,349.5573 102.1182,348.6081 101.645,347.6078 101.2722,346.5659 101.0034,345.4924 100.841,344.3978 100.7867,343.2925 100.841,342.1873 101.0034,341.0926 101.2722,340.0192 101.645,338.9773 102.1182,337.9769 102.6871,337.0278 103.3463,336.1389 104.0894,335.319 104.9094,334.5758 105.7982,333.9166 106.7474,333.3477 107.7477,332.8746 108.7897,332.5018"/>
    <polygon points="94.7014,346.4404 93.7011,345.9673 92.6592,345.5944 91.5857,345.3256 90.4911,345.1632 89.3858,345.1089 88.2806,345.1632 87.1859,345.3256 86.1125,345.5944 85.0706,345.9673 84.0702,346.4404 83.121,347.0093 82.2322,347.6685 81.4123,348.4116 80.6691,349.2316 80.0099,350.1204 79.441,351.0696 78.9679,352.0699 78.5951,353.1119 78.3262,354.1853 78.1638,355.2799 78.1095,356.3852 78.1638,357.4905 78.3262,358.5851 78.5951,359.6585 78.9679,360.7005 79.441,361.7008 80.0099,362.65 80.6691,363.5388 81.4123,364.3588 82.2322,365.1019 83.121,365.7611 84.0702,366.33 85.0706,366.8031 86.1125,367.176 87.1859,367.4448 88.2806,367.6072 89.3858,367.6615 90.4911,367.6072 91.5857,367.4448 92.6592,367.176 93.7011,366.8031 94.7014,366.33 95.6506,365.7611 96.5394,365.1019 97.3594,364.3588 98.1025,363.5388 98.7617,362.65 99.3306,361.7008 99.8038,360.7005 100.1766,359.6585 100.4455,358.5851 100.6078,357.4905 100.6621,356.3852 100.6078,355.2799 100.4455,354.1853 100.1766,353.1119 99.8038,352.0699 99.3306,351.0696 98.7617,350.1204 98.1025,349.2316 97.3594,348.4116 96.5394,347.6685 95.6506,347.0093"/>
    <polygon points="72.038,339.1211 71.6399,339.3597 71.2671,339.6362 70.9231,339.9479 70.6114,340.2919 70.3349,340.6647 70.0963,341.0628 69.8978,341.4825 69.7414,341.9195 69.6286,342.3698 69.5605,342.8289 69.5377,343.2925 69.5605,343.7562 69.6286,344.2153 69.7414,344.6656 69.8978,345.1026 70.0963,345.5222 70.3349,345.9204 70.6114,346.2932 70.9231,346.6371 71.2671,346.9489 71.6399,347.2254 72.038,347.464 72.4576,347.6625 72.8947,347.8188 73.3449,347.9316 73.8041,347.9997 74.2677,348.0225 74.7313,347.9997 75.1905,347.9316 75.6408,347.8188 76.0778,347.6625 76.4974,347.464 76.8955,347.2254 77.2684,346.9489 77.6123,346.6371 77.924,346.2932 78.2005,345.9204 78.4392,345.5222 78.6376,345.1026 78.794,344.6656 78.9068,344.2153 78.9749,343.7562 78.9977,343.2925 78.9749,342.8289 78.9068,342.3698 78.794,341.9195 78.6376,341.4825 78.4392,341.0628 78.2005,340.6647 77.924,340.2919 77.6123,339.9479 77.2684,339.6362 76.8955,339.3597 76.4974,339.1211 76.0778,338.9226 75.6408,338.7662 75.1905,338.6534 74.7313,338.5853 74.2677,338.5626 73.8041,338.5853 73.3449,338.6534 72.8947,338.7662 72.4576,338.9226"/>
    <polygon points="73.3449,374.117 72.8947,374.0042 72.4576,373.8478 72.038,373.6493 71.6399,373.4107 71.2671,373.1342 70.9231,372.8225 70.6114,372.4785 70.3349,372.1057 70.0963,371.7076 69.8978,371.288 69.7414,370.8509 69.6286,370.4006 69.5605,369.9415 69.5377,369.4779 69.5605,369.0142 69.6286,368.5551 69.7414,368.1048 69.8978,367.6678 70.0963,367.2482 70.3349,366.85 70.6114,366.4772 70.9231,366.1333 71.2671,365.8215 71.6399,365.545 72.038,365.3064 72.4576,365.1079 72.8947,364.9516 73.3449,364.8388 73.8041,364.7707 74.2677,364.7479 74.7313,364.7707 75.1905,364.8388 75.6408,364.9516 76.0778,365.1079 76.4974,365.3064 76.8955,365.545 77.2684,365.8215 77.6123,366.1333 77.924,366.4772 78.2005,366.85 78.4392,367.2482 78.6376,367.6678 78.794,368.1048 78.9068,368.5551 78.9749,369.0142 78.9977,369.4779 78.9749,369.9415 78.9068,370.4006 78.794,370.8509 78.6376,371.288 78.4392,371.7076 78.2005,372.1057 77.924,372.4785 77.6123,372.8225 77.2684,373.1342 76.8955,373.4107 76.4974,373.6493 76.0778,373.8478 75.6408,374.0042 75.1905,374.117 74.7313,374.1851 74.2677,374.2078 73.8041,374.1851"/>
    <polygon points="82.2322,373.8538 83.121,373.1946 84.0702,372.6257 85.0706,372.1526 86.1125,371.7798 87.1859,371.5109 88.2806,371.3485 89.3858,371.2942 90.4911,371.3485 91.5857,371.5109 92.6592,371.7798 93.7011,372.1526 94.7014,372.6257 95.6506,373.1946 96.5394,373.8538 97.3594,374.597 98.1025,375.4169 98.7617,376.3058 99.3306,377.2549 99.8038,378.2553 100.1766,379.2972 100.4455,380.3706 100.6078,381.4653 100.6621,382.5705 100.6078,383.6758 100.4455,384.7704 100.1766,385.8439 99.8038,386.8858 99.3306,387.8861 98.7617,388.8353 98.1025,389.7241 97.3594,390.5441 96.5394,391.2872 95.6506,391.9464 94.7014,392.5153 93.7011,392.9885 92.6592,393.3613 91.5857,393.6302 90.4911,393.7925 89.3858,393.8468 88.2806,393.7925 87.1859,393.6302 86.1125,393.3613 85.0706,392.9885 84.0702,392.5153 83.121,391.9464 82.2322,391.2872 81.4123,390.5441 80.6691,389.7241 80.0099,388.8353 79.441,387.8861 78.9679,386.8858 78.5951,385.8439 78.3262,384.7704 78.1638,383.6758 78.1095,382.5705 78.1638,381.4653 78.3262,380.3706 78.5951,379.2972 78.9679,378.2553 79.441,377.2549 80.0099,376.3058 80.6691,375.4169 81.4123,374.597"/>
    <polygon points="78.9068,394.7404 78.794,394.2902 78.6376,393.8531 78.4392,393.4335 78.2005,393.0354 77.924,392.6625 77.6123,392.3186 77.2684,392.0069 76.8955,391.7304 76.4974,391.4917 76.0778,391.2933 75.6408,391.1369 75.1905,391.0241 74.7313,390.956 74.2677,390.9332 73.8041,390.956 73.3449,391.0241 72.8947,391.1369 72.4576,391.2933 72.038,391.4917 71.6399,391.7304 71.2671,392.0069 70.9231,392.3186 70.6114,392.6625 70.3349,393.0354 70.0963,393.4335 69.8978,393.8531 69.7414,394.2902 69.6286,394.7404 69.5605,395.1996 69.5377,395.6632 69.5605,396.1268 69.6286,396.586 69.7414,397.0362 69.8978,397.4733 70.0963,397.8929 70.3349,398.291 70.6114,398.6639 70.9231,399.0078 71.2671,399.3195 71.6399,399.596 72.038,399.8347 72.4576,400.0331 72.8947,400.1895 73.3449,400.3023 73.8041,400.3704 74.2677,400.3932 74.7313,400.3704 75.1905,400.3023 75.6408,400.1895 76.0778,400.0331 76.4974,399.8347 76.8955,399.596 77.2684,399.3195 77.6123,399.0078 77.924,398.6639 78.2005,398.291 78.4392,397.8929 78.6376,397.4733 78.794,397.0362 78.9068,396.586 78.9749,396.1268 78.9977,395.6632 78.9749,395.1996"/>
    <polygon points="104.112,417.5319 104.3506,417.93 104.6271,418.3029 104.9389,418.6468 105.2828,418.9585 105.6556,419.235 106.0538,419.4737 106.4734,419.6721 106.9104,419.8285 107.3607,419.9413 107.8198,420.0094 108.2835,420.0322 108.7471,420.0094 109.2062,419.9413 109.6565,419.8285 110.0935,419.6721 110.5132,419.4737 110.9113,419.235 111.2841,418.9585 111.6281,418.6468 111.9398,418.3029 112.2163,417.93 112.4549,417.5319 112.6534,417.1123 112.8098,416.6752 112.9226,416.225 112.9907,415.7658 113.0134,415.3022 112.9907,414.8386 112.9226,414.3794 112.8098,413.9292 112.6534,413.4921 112.4549,413.0725 112.2163,412.6744 111.9398,412.3015 111.6281,411.9576 111.2841,411.6459 110.9113,411.3694 110.5132,411.1307 110.0935,410.9323 109.6565,410.7759 109.2062,410.6631 108.7471,410.595 108.2835,410.5722 107.8198,410.595 107.3607,410.6631 106.9104,410.7759 106.4734,410.9323 106.0538,411.1307 105.6556,411.3694 105.2828,411.6459 104.9389,411.9576 104.6271,412.3015 104.3506,412.6744 104.112,413.0725 103.9135,413.4921 103.7572,413.9292 103.6444,414.3794 103.5763,414.8386 103.5535,415.3022 103.5763,415.7658 103.6444,416.225 103.7572,416.6752 103.9135,417.1123"/>
    <polygon points="112.063,384.3869 113.1683,384.4412 114.2629,384.6036 115.3363,384.8725 116.3782,385.2453 117.3786,385.7184 118.3278,386.2873 119.2166,386.9465 120.0365,387.6897 120.7797,388.5096 121.4389,389.3984 122.0078,390.3476 122.4809,391.3479 122.8537,392.3899 123.1226,393.4633 123.285,394.5579 123.3393,395.6632 123.285,396.7685 123.1226,397.8631 122.8537,398.9365 122.4809,399.9785 122.0078,400.9788 121.4389,401.928 120.7797,402.8168 120.0365,403.6368 119.2166,404.3799 118.3278,405.0391 117.3786,405.608 116.3782,406.0812 115.3363,406.454 114.2629,406.7228 113.1683,406.8852 112.063,406.9395 110.9577,406.8852 109.8631,406.7228 108.7897,406.454 107.7477,406.0812 106.7474,405.608 105.7982,405.0391 104.9094,404.3799 104.0894,403.6368 103.3463,402.8168 102.6871,401.928 102.1182,400.9788 101.645,399.9785 101.2722,398.9365 101.0034,397.8631 100.841,396.7685 100.7867,395.6632 100.841,394.5579 101.0034,393.4633 101.2722,392.3899 101.645,391.3479 102.1182,390.3476 102.6871,389.3984 103.3463,388.5096 104.0894,387.6897 104.9094,386.9465 105.7982,386.2873 106.7474,385.7184 107.7477,385.2453 108.7897,384.8725 109.8631,384.6036 110.9577,384.4412"/>
    <polygon points="126.5907,374.2141 126.4343,374.6512 126.3215,375.1014 126.2534,375.5606 126.2307,376.0242 126.2534,376.4878 126.3215,376.947 126.4343,377.3972 126.5907,377.8343 126.7892,378.2539 127.0278,378.652 127.3043,379.0249 127.616,379.3688 127.96,379.6805 128.3328,379.957 128.7309,380.1957 129.1505,380.3941 129.5876,380.5505 130.0379,380.6633 130.497,380.7314 130.9606,380.7542 131.4242,380.7314 131.8834,380.6633 132.3337,380.5505 132.7707,380.3941 133.1903,380.1957 133.5885,379.957 133.9613,379.6805 134.3052,379.3688 134.6169,379.0249 134.8935,378.652 135.1321,378.2539 135.3306,377.8343 135.4869,377.3972 135.5997,376.947 135.6678,376.4878 135.6906,376.0242 135.6678,375.5606 135.5997,375.1014 135.4869,374.6512 135.3306,374.2141 135.1321,373.7945 134.8935,373.3964 134.6169,373.0235 134.3052,372.6796 133.9613,372.3679 133.5885,372.0914 133.1903,371.8527 132.7707,371.6543 132.3337,371.4979 131.8834,371.3851 131.4242,371.317 130.9606,371.2942 130.497,371.317 130.0379,371.3851 129.5876,371.4979 129.1505,371.6543 128.7309,371.8527 128.3328,372.0914 127.96,372.3679 127.616,372.6796 127.3043,373.0235 127.0278,373.3964 126.7892,373.7945"/>
    <polygon points="123.285,368.3726 123.1226,367.278 122.8537,366.2045 122.4809,365.1626 122.0078,364.1623 121.4389,363.2131 120.7797,362.3243 120.0365,361.5043 119.2166,360.7612 118.3278,360.102 117.3786,359.5331 116.3782,359.0599 115.3363,358.6871 114.2629,358.4182 113.1683,358.2559 112.063,358.2016 110.9577,358.2559 109.8631,358.4182 108.7897,358.6871 107.7477,359.0599 106.7474,359.5331 105.7982,360.102 104.9094,360.7612 104.0894,361.5043 103.3463,362.3243 102.6871,363.2131 102.1182,364.1623 101.645,365.1626 101.2722,366.2045 101.0034,367.278 100.841,368.3726 100.7867,369.4779 100.841,370.5831 101.0034,371.6778 101.2722,372.7512 101.645,373.7931 102.1182,374.7935 102.6871,375.7426 103.3463,376.6315 104.0894,377.4514 104.9094,378.1946 105.7982,378.8538 106.7474,379.4227 107.7477,379.8958 108.7897,380.2686 109.8631,380.5375 110.9577,380.6999 112.063,380.7542 113.1683,380.6999 114.2629,380.5375 115.3363,380.2686 116.3782,379.8958 117.3786,379.4227 118.3278,378.8538 119.2166,378.1946 120.0365,377.4514 120.7797,376.6315 121.4389,375.7426 122.0078,374.7935 122.4809,373.7931 122.8537,372.7512 123.1226,371.6778 123.285,370.5831 123.3393,369.4779"/>
    <polygon points="138.0135,367.176 136.9401,367.4448 135.8454,367.6072 134.7402,367.6615 133.6349,367.6072 132.5403,367.4448 131.4668,367.176 130.4249,366.8031 129.4245,366.33 128.4754,365.7611 127.5865,365.1019 126.7666,364.3588 126.0235,363.5388 125.3643,362.65 124.7953,361.7008 124.3222,360.7005 123.9494,359.6585 123.6805,358.5851 123.5181,357.4905 123.4639,356.3852 123.5181,355.2799 123.6805,354.1853 123.9494,353.1119 124.3222,352.0699 124.7953,351.0696 125.3643,350.1204 126.0235,349.2316 126.7666,348.4116 127.5865,347.6685 128.4754,347.0093 129.4245,346.4404 130.4249,345.9673 131.4668,345.5944 132.5403,345.3256 133.6349,345.1632 134.7402,345.1089 135.8454,345.1632 136.9401,345.3256 138.0135,345.5944 139.0554,345.9673 140.0558,346.4404 141.0049,347.0093 141.8938,347.6685 142.7137,348.4116 143.4569,349.2316 144.1161,350.1204 144.685,351.0696 145.1581,352.0699 145.5309,353.1119 145.7998,354.1853 145.9622,355.2799 146.0165,356.3852 145.9622,357.4905 145.7998,358.5851 145.5309,359.6585 145.1581,360.7005 144.685,361.7008 144.1161,362.65 143.4569,363.5388 142.7137,364.3588 141.8938,365.1019 141.0049,365.7611 140.0558,366.33 139.0554,366.8031"/>
    <polygon points="158.345,376.4878 158.2769,376.947 158.1641,377.3972 158.0077,377.8343 157.8093,378.2539 157.5706,378.652 157.2941,379.0249 156.9824,379.3688 156.6385,379.6805 156.2656,379.957 155.8675,380.1957 155.4479,380.3941 155.0108,380.5505 154.5606,380.6633 154.1014,380.7314 153.6378,380.7542 153.1742,380.7314 152.715,380.6633 152.2648,380.5505 151.8277,380.3941 151.4081,380.1957 151.01,379.957 150.6371,379.6805 150.2932,379.3688 149.9815,379.0249 149.705,378.652 149.4663,378.2539 149.2679,377.8343 149.1115,377.3972 148.9987,376.947 148.9306,376.4878 148.9078,376.0242 148.9306,375.5606 148.9987,375.1014 149.1115,374.6512 149.2679,374.2141 149.4663,373.7945 149.705,373.3964 149.9815,373.0235 150.2932,372.6796 150.6371,372.3679 151.01,372.0914 151.4081,371.8527 151.8277,371.6543 152.2648,371.4979 152.715,371.3851 153.1742,371.317 153.6378,371.2942 154.1014,371.317 154.5606,371.3851 155.0108,371.4979 155.4479,371.6543 155.8675,371.8527 156.2656,372.0914 156.6385,372.3679 156.9824,372.6796 157.2941,373.0235 157.5706,373.3964 157.8093,373.7945 158.0077,374.2141 158.1641,374.6512 158.2769,375.1014 158.345,375.5606 158.3678,376.0242"/>
    <polygon points="156.6385,359.2752 156.9824,359.5869 157.2941,359.9309 157.5706,360.3037 157.8093,360.7018 158.0077,361.1215 158.1641,361.5585 158.2769,362.0088 158.345,362.4679 158.3678,362.9315 158.345,363.3952 158.2769,363.8543 158.1641,364.3046 158.0077,364.7416 157.8093,365.1612 157.5706,365.5594 157.2941,365.9322 156.9824,366.2761 156.6385,366.5879 156.2656,366.8644 155.8675,367.103 155.4479,367.3015 155.0108,367.4578 154.5606,367.5706 154.1014,367.6387 153.6378,367.6615 153.1742,367.6387 152.715,367.5706 152.2648,367.4578 151.8277,367.3015 151.4081,367.103 151.01,366.8644 150.6371,366.5879 150.2932,366.2761 149.9815,365.9322 149.705,365.5594 149.4663,365.1612 149.2679,364.7416 149.1115,364.3046 148.9987,363.8543 148.9306,363.3952 148.9078,362.9315 148.9306,362.4679 148.9987,362.0088 149.1115,361.5585 149.2679,361.1215 149.4663,360.7018 149.705,360.3037 149.9815,359.9309 150.2932,359.5869 150.6371,359.2752 151.01,358.9987 151.4081,358.7601 151.8277,358.5616 152.2648,358.4052 152.715,358.2924 153.1742,358.2243 153.6378,358.2016 154.1014,358.2243 154.5606,358.2924 155.0108,358.4052 155.4479,358.5616 155.8675,358.7601 156.2656,358.9987"/>
    <polygon points="147.4725,348.6081 146.9994,347.6078 146.6266,346.5659 146.3577,345.4924 146.1953,344.3978 146.141,343.2925 146.1953,342.1873 146.3577,341.0926 146.6266,340.0192 146.9994,338.9773 147.4725,337.9769 148.0414,337.0278 148.7006,336.1389 149.4438,335.319 150.2637,334.5758 151.1525,333.9166 152.1017,333.3477 153.1021,332.8746 154.144,332.5018 155.2174,332.2329 156.3121,332.0705 157.4173,332.0162 158.5226,332.0705 159.6172,332.2329 160.6907,332.5018 161.7326,332.8746 162.7329,333.3477 163.6821,333.9166 164.5709,334.5758 165.3909,335.319 166.134,336.1389 166.7932,337.0278 167.3621,337.9769 167.8353,338.9773 168.2081,340.0192 168.477,341.0926 168.6393,342.1873 168.6936,343.2925 168.6393,344.3978 168.477,345.4924 168.2081,346.5659 167.8353,347.6078 167.3621,348.6081 166.7932,349.5573 166.134,350.4461 165.3909,351.2661 164.5709,352.0092 163.6821,352.6684 162.7329,353.2373 161.7326,353.7105 160.6907,354.0833 159.6172,354.3522 158.5226,354.5145 157.4173,354.5688 156.3121,354.5145 155.2174,354.3522 154.144,354.0833 153.1021,353.7105 152.1017,353.2373 151.1525,352.6684 150.2637,352.0092 149.4438,351.2661 148.7006,350.4461 148.0414,349.5573"/>
    <polygon points="150.2932,320.3089 150.6371,319.9972 151.01,319.7207 151.4081,319.4821 151.8277,319.2836 152.2648,319.1272 152.715,319.0144 153.1742,318.9463 153.6378,318.9236 154.1014,318.9463 154.5606,319.0144 155.0108,319.1272 155.4479,319.2836 155.8675,319.4821 156.2656,319.7207 156.6385,319.9972 156.9824,320.3089 157.2941,320.6529 157.5706,321.0257 157.8093,321.4238 158.0077,321.8434 158.1641,322.2805 158.2769,322.7308 158.345,323.1899 158.3678,323.6535 158.345,324.1172 158.2769,324.5763 158.1641,325.0266 158.0077,325.4636 157.8093,325.8832 157.5706,326.2814 157.2941,326.6542 156.9824,326.9981 156.6385,327.3098 156.2656,327.5864 155.8675,327.825 155.4479,328.0235 155.0108,328.1798 154.5606,328.2926 154.1014,328.3607 153.6378,328.3835 153.1742,328.3607 152.715,328.2926 152.2648,328.1798 151.8277,328.0235 151.4081,327.825 151.01,327.5864 150.6371,327.3098 150.2932,326.9981 149.9815,326.6542 149.705,326.2814 149.4663,325.8832 149.2679,325.4636 149.1115,325.0266 148.9987,324.5763 148.9306,324.1172 148.9078,323.6535 148.9306,323.1899 148.9987,322.7308 149.1115,322.2805 149.2679,321.8434 149.4663,321.4238 149.705,321.0257 149.9815,320.6529"/>
    <polygon points="171.6759,335.8234 171.6078,336.2826 171.585,336.7462 171.6078,337.2098 171.6759,337.669 171.7887,338.1192 171.945,338.5563 172.1435,338.9759 172.3821,339.374 172.6586,339.7469 172.9704,340.0908 173.3143,340.4025 173.6871,340.679 174.0853,340.9177 174.5049,341.1161 174.9419,341.2725 175.3922,341.3853 175.8513,341.4534 176.315,341.4762 176.7786,341.4534 177.2377,341.3853 177.688,341.2725 178.125,341.1161 178.5447,340.9177 178.9428,340.679 179.3156,340.4025 179.6596,340.0908 179.9713,339.7469 180.2478,339.374 180.4864,338.9759 180.6849,338.5563 180.8413,338.1192 180.954,337.669 181.0222,337.2098 181.0449,336.7462 181.0222,336.2826 180.954,335.8234 180.8413,335.3732 180.6849,334.9361 180.4864,334.5165 180.2478,334.1184 179.9713,333.7455 179.6596,333.4016 179.3156,333.0899 178.9428,332.8134 178.5447,332.5747 178.125,332.3763 177.688,332.2199 177.2377,332.1071 176.7786,332.039 176.315,332.0162 175.8513,332.039 175.3922,332.1071 174.9419,332.2199 174.5049,332.3763 174.0853,332.5747 173.6871,332.8134 173.3143,333.0899 172.9704,333.4016 172.6586,333.7455 172.3821,334.1184 172.1435,334.5165 171.945,334.9361 171.7887,335.3732"/>
    <polygon points="182.9236,369.4779 182.9463,369.9415 183.0145,370.4006 183.1272,370.8509 183.2836,371.288 183.4821,371.7076 183.7207,372.1057 183.9972,372.4785 184.3089,372.8225 184.6529,373.1342 185.0257,373.4107 185.4238,373.6493 185.8435,373.8478 186.2805,374.0042 186.7308,374.117 187.1899,374.1851 187.6535,374.2078 188.1172,374.1851 188.5763,374.117 189.0266,374.0042 189.4636,373.8478 189.8832,373.6493 190.2814,373.4107 190.6542,373.1342 190.9981,372.8225 191.3099,372.4785 191.5864,372.1057 191.825,371.7076 192.0235,371.288 192.1798,370.8509 192.2926,370.4006 192.3607,369.9415 192.3835,369.4779 192.3607,369.0142 192.2926,368.5551 192.1798,368.1048 192.0235,367.6678 191.825,367.2482 191.5864,366.85 191.3099,366.4772 190.9981,366.1333 190.6542,365.8215 190.2814,365.545 189.8832,365.3064 189.4636,365.1079 189.0266,364.9516 188.5763,364.8388 188.1172,364.7707 187.6535,364.7479 187.1899,364.7707 186.7308,364.8388 186.2805,364.9516 185.8435,365.1079 185.4238,365.3064 185.0257,365.545 184.6529,365.8215 184.3089,366.1333 183.9972,366.4772 183.7207,366.85 183.4821,367.2482 183.2836,367.6678 183.1272,368.1048 183.0145,368.5551 182.9463,369.0142"/>
  </g>
</svg>
