<?xml version="1.0" encoding="utf-8" ?>
<svg xmlns="http://www.w3.org/2000/svg" xmlns:cc="http://creativecommons.org/ns" xmlns:dc="http://purl.org/dc/elements/1.1/" xmlns:ev="http://www.w3.org/2001/xml-events" xmlns:inkscape="http://www.inkscape.org/namespaces/inkscape" xmlns:rdf="http://www.w3.org/1999/02/22-rdf-syntax-ns" xmlns:sodipodi="http://sodipodi.sourceforge.net/DTD/sodipodi-0.dtd" xmlns:xlink="http://www.w3.org/1999/xlink" baseProfile="tiny" height="15.875cm" version="1.2" viewBox="0 0 432.0 600.0" width="11.43cm">
  <metadata>
    <rdf:RDF>
      <cc:Work>
        <dc:format>image/svg+xml</dc:format>
        <dc:source>vsk save -s 267 -c hex-grid/config/bubble-coasters-2.json /Users/tobin/src/fabian/plotting/fabian-plotting/hex-grid/sketch_hex_grid.py</dc:source>
        <dc:date>2023-11-11T11:30:23.958065</dc:date>
      </cc:Work>
    </rdf:RDF>
  </metadata>
  <defs/>
  <g fill="none" id="layer1" inkscape:groupmode="layer" inkscape:label="1" stroke="#000000" stroke-width="0.7559" style="display:inline">
    <polygon points="243.4071,245.0975 243.3844,245.5611 243.3163,246.0203 243.2035,246.4706 243.0471,246.9076 242.8486,247.3272 242.61,247.7254 242.3335,248.0982 242.0218,248.4421 241.6778,248.7538 241.305,249.0304 240.9069,249.269 240.4872,249.4675 240.0502,249.6238 239.5999,249.7366 239.1408,249.8047 238.6772,249.8275 238.2135,249.8047 237.7544,249.7366 237.3041,249.6238 236.8671,249.4675 236.4475,249.269 236.0493,249.0304 235.6765,248.7538 235.3326,248.4421 235.0208,248.0982 234.7443,247.7254 234.5057,247.3272 234.3072,246.9076 234.1509,246.4706 234.0381,246.0203 233.97,245.5611 233.9472,245.0975 233.97,244.6339 234.0381,244.1748 234.1509,243.7245 234.3072,243.2874 234.5057,242.8678 234.7443,242.4697 235.0208,242.0969 235.3326,241.7529 235.6765,241.4412 236.0493,241.1647 236.4475,240.9261 236.8671,240.7276 237.3041,240.5712 237.7544,240.4584 238.2135,240.3903 238.6772,240.3676 239.1408,240.3903 239.5999,240.4584 240.0502,240.5712 240.4872,240.7276 240.9069,240.9261 241.305,241.1647 241.6778,241.4412 242.0218,241.7529 242.3335,242.0969 242.61,242.4697 242.8486,242.8678 243.0471,243.2874 243.2035,243.7245 243.3163,244.1748 243.3844,244.6339"/>
    <polygon points="253.2474,261.4632 253.5163,262.5366 253.6787,263.6313 253.733,264.7365 253.6787,265.8418 253.5163,266.9364 253.2474,268.0099 252.8746,269.0518 252.4015,270.0521 251.8326,271.0013 251.1734,271.8901 250.4302,272.7101 249.6103,273.4532 248.7215,274.1124 247.7723,274.6813 246.7719,275.1545 245.73,275.5273 244.6566,275.7962 243.562,275.9585 242.4567,276.0128 241.3514,275.9585 240.2568,275.7962 239.1834,275.5273 238.1414,275.1545 237.1411,274.6813 236.1919,274.1124 235.3031,273.4532 234.4831,272.7101 233.74,271.8901 233.0808,271.0013 232.5119,270.0521 232.0387,269.0518 231.6659,268.0099 231.3971,266.9364 231.2347,265.8418 231.1804,264.7365 231.2347,263.6313 231.3971,262.5366 231.6659,261.4632 232.0387,260.4213 232.5119,259.4209 233.0808,258.4717 233.74,257.5829 234.4831,256.763 235.3031,256.0198 236.1919,255.3606 237.1411,254.7917 238.1414,254.3186 239.1834,253.9458 240.2568,253.6769 241.3514,253.5145 242.4567,253.4602 243.562,253.5145 244.6566,253.6769 245.73,253.9458 246.7719,254.3186 247.7723,254.7917 248.7215,255.3606 249.6103,256.0198 250.4302,256.763 251.1734,257.5829 251.8326,258.4717 252.4015,259.4209 252.8746,260.4213"/>
    <polygon points="288.4014,273.0929 288.5578,272.6559 288.6706,272.2056 288.7387,271.7465 288.7615,271.2829 288.7387,270.8192 288.6706,270.3601 288.5578,269.9098 288.4014,269.4728 288.203,269.0532 287.9643,268.655 287.6878,268.2822 287.3761,267.9383 287.0322,267.6265 286.6593,267.35 286.2612,267.1114 285.8416,266.9129 285.4045,266.7566 284.9543,266.6438 284.4951,266.5757 284.0315,266.5529 283.5679,266.5757 283.1087,266.6438 282.6585,266.7566 282.2214,266.9129 281.8018,267.1114 281.4037,267.35 281.0308,267.6265 280.6869,267.9383 280.3752,268.2822 280.0987,268.655 279.86,269.0532 279.6616,269.4728 279.5052,269.9098 279.3924,270.3601 279.3243,270.8192 279.3015,271.2829 279.3243,271.7465 279.3924,272.2056 279.5052,272.6559 279.6616,273.0929 279.86,273.5126 280.0987,273.9107 280.3752,274.2835 280.6869,274.6275 281.0308,274.9392 281.4037,275.2157 281.8018,275.4543 282.2214,275.6528 282.6585,275.8092 283.1087,275.9219 283.5679,275.9901 284.0315,276.0128 284.4951,275.9901 284.9543,275.9219 285.4045,275.8092 285.8416,275.6528 286.2612,275.4543 286.6593,275.2157 287.0322,274.9392 287.3761,274.6275 287.6878,274.2835 287.9643,273.9107 288.203,273.5126"/>
    <polygon points="310.365,281.3749 310.0533,281.0309 309.7093,280.7192 309.3365,280.4427 308.9384,280.2041 308.5187,280.0056 308.0817,279.8492 307.6314,279.7364 307.1723,279.6683 306.7087,279.6456 306.245,279.6683 305.7859,279.7364 305.3356,279.8492 304.8986,280.0056 304.479,280.2041 304.0808,280.4427 303.708,280.7192 303.3641,281.0309 303.0523,281.3749 302.7758,281.7477 302.5372,282.1458 302.3387,282.5654 302.1824,283.0025 302.0696,283.4528 302.0015,283.9119 301.9787,284.3755 302.0015,284.8391 302.0696,285.2983 302.1824,285.7486 302.3387,286.1856 302.5372,286.6052 302.7758,287.0034 303.0523,287.3762 303.3641,287.7201 303.708,288.0318 304.0808,288.3084 304.479,288.547 304.8986,288.7455 305.3356,288.9018 305.7859,289.0146 306.245,289.0827 306.7087,289.1055 307.1723,289.0827 307.6314,289.0146 308.0817,288.9018 308.5187,288.7455 308.9384,288.547 309.3365,288.3084 309.7093,288.0318 310.0533,287.7201 310.365,287.3762 310.6415,287.0034 310.8801,286.6052 311.0786,286.1856 311.235,285.7486 311.3477,285.2983 311.4159,284.8391 311.4386,284.3755 311.4159,283.9119 311.3477,283.4528 311.235,283.0025 311.0786,282.5654 310.8801,282.1458 310.6415,281.7477"/>
    <polygon points="313.4082,291.8446 313.5209,292.2949 313.6773,292.7319 313.8758,293.1516 314.1144,293.5497 314.3909,293.9225 314.7026,294.2665 315.0466,294.5782 315.4194,294.8547 315.8176,295.0933 316.2372,295.2918 316.6742,295.4482 317.1245,295.561 317.5836,295.6291 318.0472,295.6518 318.5109,295.6291 318.97,295.561 319.4203,295.4482 319.8573,295.2918 320.2769,295.0933 320.6751,294.8547 321.0479,294.5782 321.3918,294.2665 321.7036,293.9225 321.9801,293.5497 322.2187,293.1516 322.4172,292.7319 322.5735,292.2949 322.6863,291.8446 322.7544,291.3855 322.7772,290.9219 322.7544,290.4582 322.6863,289.9991 322.5735,289.5488 322.4172,289.1118 322.2187,288.6922 321.9801,288.294 321.7036,287.9212 321.3918,287.5773 321.0479,287.2655 320.6751,286.989 320.2769,286.7504 319.8573,286.5519 319.4203,286.3956 318.97,286.2828 318.5109,286.2147 318.0472,286.1919 317.5836,286.2147 317.1245,286.2828 316.6742,286.3956 316.2372,286.5519 315.8176,286.7504 315.4194,286.989 315.0466,287.2655 314.7026,287.5773 314.3909,287.9212 314.1144,288.294 313.8758,288.6922 313.6773,289.1118 313.5209,289.5488 313.4082,289.9991 313.34,290.4582 313.3173,290.9219 313.34,291.3855"/>
    <polygon points="326.0412,300.8128 326.3852,301.1245 326.758,301.401 327.1561,301.6397 327.5757,301.8381 328.0128,301.9945 328.4631,302.1073 328.9222,302.1754 329.3858,302.1982 329.8494,302.1754 330.3086,302.1073 330.7589,301.9945 331.1959,301.8381 331.6155,301.6397 332.0137,301.401 332.3865,301.1245 332.7304,300.8128 333.0421,300.4689 333.3187,300.096 333.5573,299.6979 333.7558,299.2783 333.9121,298.8412 334.0249,298.391 334.093,297.9318 334.1158,297.4682 334.093,297.0046 334.0249,296.5454 333.9121,296.0952 333.7558,295.6581 333.5573,295.2385 333.3187,294.8404 333.0421,294.4675 332.7304,294.1236 332.3865,293.8119 332.0137,293.5354 331.6155,293.2967 331.1959,293.0983 330.7589,292.9419 330.3086,292.8291 329.8494,292.761 329.3858,292.7382 328.9222,292.761 328.4631,292.8291 328.0128,292.9419 327.5757,293.0983 327.1561,293.2967 326.758,293.5354 326.3852,293.8119 326.0412,294.1236 325.7295,294.4675 325.453,294.8404 325.2144,295.2385 325.0159,295.6581 324.8595,296.0952 324.7467,296.5454 324.6786,297.0046 324.6559,297.4682 324.6786,297.9318 324.7467,298.391 324.8595,298.8412 325.0159,299.2783 325.2144,299.6979 325.453,300.096 325.7295,300.4689"/>
    <polygon points="343.7251,307.6708 344.069,307.3591 344.3807,307.0152 344.6572,306.6424 344.8959,306.2442 345.0943,305.8246 345.2507,305.3876 345.3635,304.9373 345.4316,304.4781 345.4544,304.0145 345.4316,303.5509 345.3635,303.0918 345.2507,302.6415 345.0943,302.2044 344.8959,301.7848 344.6572,301.3867 344.3807,301.0139 344.069,300.6699 343.7251,300.3582 343.3522,300.0817 342.9541,299.8431 342.5345,299.6446 342.0974,299.4882 341.6472,299.3754 341.188,299.3073 340.7244,299.2846 340.2608,299.3073 339.8016,299.3754 339.3514,299.4882 338.9143,299.6446 338.4947,299.8431 338.0966,300.0817 337.7237,300.3582 337.3798,300.6699 337.0681,301.0139 336.7916,301.3867 336.5529,301.7848 336.3545,302.2044 336.1981,302.6415 336.0853,303.0918 336.0172,303.5509 335.9944,304.0145 336.0172,304.4781 336.0853,304.9373 336.1981,305.3876 336.3545,305.8246 336.5529,306.2442 336.7916,306.6424 337.0681,307.0152 337.3798,307.3591 337.7237,307.6708 338.0966,307.9474 338.4947,308.186 338.9143,308.3845 339.3514,308.5408 339.8016,308.6536 340.2608,308.7217 340.7244,308.7445 341.188,308.7217 341.6472,308.6536 342.0974,308.5408 342.5345,308.3845 342.9541,308.186 343.3522,307.9474"/>
    <polygon points="321.7036,301.0139 321.9801,301.3867 322.2187,301.7848 322.4172,302.2044 322.5735,302.6415 322.6863,303.0918 322.7544,303.5509 322.7772,304.0145 322.7544,304.4781 322.6863,304.9373 322.5735,305.3876 322.4172,305.8246 322.2187,306.2442 321.9801,306.6424 321.7036,307.0152 321.3918,307.3591 321.0479,307.6708 320.6751,307.9474 320.2769,308.186 319.8573,308.3845 319.4203,308.5408 318.97,308.6536 318.5109,308.7217 318.0472,308.7445 317.5836,308.7217 317.1245,308.6536 316.6742,308.5408 316.2372,308.3845 315.8176,308.186 315.4194,307.9474 315.0466,307.6708 314.7026,307.3591 314.3909,307.0152 314.1144,306.6424 313.8758,306.2442 313.6773,305.8246 313.5209,305.3876 313.4082,304.9373 313.34,304.4781 313.3173,304.0145 313.34,303.5509 313.4082,303.0918 313.5209,302.6415 313.6773,302.2044 313.8758,301.7848 314.1144,301.3867 314.3909,301.0139 314.7026,300.6699 315.0466,300.3582 315.4194,300.0817 315.8176,299.8431 316.2372,299.6446 316.6742,299.4882 317.1245,299.3754 317.5836,299.3073 318.0472,299.2846 318.5109,299.3073 318.97,299.3754 319.4203,299.4882 319.8573,299.6446 320.2769,299.8431 320.6751,300.0817 321.0479,300.3582 321.3918,300.6699"/>
    <polygon points="304.479,301.6397 304.8986,301.8381 305.3356,301.9945 305.7859,302.1073 306.245,302.1754 306.7087,302.1982 307.1723,302.1754 307.6314,302.1073 308.0817,301.9945 308.5187,301.8381 308.9384,301.6397 309.3365,301.401 309.7093,301.1245 310.0533,300.8128 310.365,300.4689 310.6415,300.096 310.8801,299.6979 311.0786,299.2783 311.235,298.8412 311.3477,298.391 311.4159,297.9318 311.4386,297.4682 311.4159,297.0046 311.3477,296.5454 311.235,296.0952 311.0786,295.6581 310.8801,295.2385 310.6415,294.8404 310.365,294.4675 310.0533,294.1236 309.7093,293.8119 309.3365,293.5354 308.9384,293.2967 308.5187,293.0983 308.0817,292.9419 307.6314,292.8291 307.1723,292.761 306.7087,292.7382 306.245,292.761 305.7859,292.8291 305.3356,292.9419 304.8986,293.0983 304.479,293.2967 304.0808,293.5354 303.708,293.8119 303.3641,294.1236 303.0523,294.4675 302.7758,294.8404 302.5372,295.2385 302.3387,295.6581 302.1824,296.0952 302.0696,296.5454 302.0015,297.0046 301.9787,297.4682 302.0015,297.9318 302.0696,298.391 302.1824,298.8412 302.3387,299.2783 302.5372,299.6979 302.7758,300.096 303.0523,300.4689 303.3641,300.8128 303.708,301.1245 304.0808,301.401"/>
    <polygon points="290.0109,301.9815 291.0844,301.7126 292.1263,301.3398 293.1266,300.8667 294.0758,300.2978 294.9646,299.6386 295.7846,298.8954 296.5277,298.0755 297.1869,297.1866 297.7558,296.2375 298.229,295.2371 298.6018,294.1952 298.8707,293.1218 299.033,292.0271 299.0873,290.9219 299.033,289.8166 298.8707,288.722 298.6018,287.6485 298.229,286.6066 297.7558,285.6062 297.1869,284.6571 296.5277,283.7682 295.7846,282.9483 294.9646,282.2052 294.0758,281.546 293.1266,280.977 292.1263,280.5039 291.0844,280.1311 290.0109,279.8622 288.9163,279.6999 287.811,279.6456 286.7058,279.6999 285.6111,279.8622 284.5377,280.1311 283.4958,280.5039 282.4954,280.977 281.5462,281.546 280.6574,282.2052 279.8375,282.9483 279.0943,283.7682 278.4351,284.6571 277.8662,285.6062 277.3931,286.6066 277.0203,287.6485 276.7514,288.722 276.589,289.8166 276.5347,290.9219 276.589,292.0271 276.7514,293.1218 277.0203,294.1952 277.3931,295.2371 277.8662,296.2375 278.4351,297.1866 279.0943,298.0755 279.8375,298.8954 280.6574,299.6386 281.5462,300.2978 282.4954,300.8667 283.4958,301.3398 284.5377,301.7126 285.6111,301.9815 286.7058,302.1439 287.811,302.1982 288.9163,302.1439"/>
    <polygon points="263.9822,340.679 264.355,340.4025 264.6989,340.0908 265.0106,339.7469 265.2872,339.374 265.5258,338.9759 265.7243,338.5563 265.8806,338.1192 265.9934,337.669 266.0615,337.2098 266.0843,336.7462 266.0615,336.2826 265.9934,335.8234 265.8806,335.3732 265.7243,334.9361 265.5258,334.5165 265.2872,334.1184 265.0106,333.7455 264.6989,333.4016 264.355,333.0899 263.9822,332.8134 263.584,332.5747 263.1644,332.3763 262.7274,332.2199 262.2771,332.1071 261.8179,332.039 261.3543,332.0162 260.8907,332.039 260.4316,332.1071 259.9813,332.2199 259.5442,332.3763 259.1246,332.5747 258.7265,332.8134 258.3537,333.0899 258.0097,333.4016 257.698,333.7455 257.4215,334.1184 257.1829,334.5165 256.9844,334.9361 256.828,335.3732 256.7152,335.8234 256.6471,336.2826 256.6244,336.7462 256.6471,337.2098 256.7152,337.669 256.828,338.1192 256.9844,338.5563 257.1829,338.9759 257.4215,339.374 257.698,339.7469 258.0097,340.0908 258.3537,340.4025 258.7265,340.679 259.1246,340.9177 259.5442,341.1161 259.9813,341.2725 260.4316,341.3853 260.8907,341.4534 261.3543,341.4762 261.8179,341.4534 262.2771,341.3853 262.7274,341.2725 263.1644,341.1161 263.584,340.9177"/>
    <polygon points="258.8691,347.0093 257.9802,347.6685 257.1603,348.4116 256.4172,349.2316 255.758,350.1204 255.189,351.0696 254.7159,352.0699 254.3431,353.1119 254.0742,354.1853 253.9119,355.2799 253.8576,356.3852 253.9119,357.4905 254.0742,358.5851 254.3431,359.6585 254.7159,360.7005 255.189,361.7008 255.758,362.65 256.4172,363.5388 257.1603,364.3588 257.9802,365.1019 258.8691,365.7611 259.8182,366.33 260.8186,366.8031 261.8605,367.176 262.934,367.4448 264.0286,367.6072 265.1339,367.6615 266.2391,367.6072 267.3338,367.4448 268.4072,367.176 269.4491,366.8031 270.4495,366.33 271.3986,365.7611 272.2875,365.1019 273.1074,364.3588 273.8506,363.5388 274.5098,362.65 275.0787,361.7008 275.5518,360.7005 275.9246,359.6585 276.1935,358.5851 276.3559,357.4905 276.4102,356.3852 276.3559,355.2799 276.1935,354.1853 275.9246,353.1119 275.5518,352.0699 275.0787,351.0696 274.5098,350.1204 273.8506,349.2316 273.1074,348.4116 272.2875,347.6685 271.3986,347.0093 270.4495,346.4404 269.4491,345.9673 268.4072,345.5944 267.3338,345.3256 266.2391,345.1632 265.1339,345.1089 264.0286,345.1632 262.934,345.3256 261.8605,345.5944 260.8186,345.9673 259.8182,346.4404"/>
    <polygon points="281.8314,350.4619 279.9106,349.0373 278.1386,347.4313 276.5326,345.6594 275.108,343.7385 273.8786,341.6873 272.8561,339.5255 272.0504,337.2738 271.4693,334.954 271.1184,332.5884 271.0011,330.1999 271.1184,327.8113 271.4693,325.4457 272.0504,323.1259 272.8561,320.8743 273.8786,318.7124 275.108,316.6612 276.5326,314.7404 278.1386,312.9684 279.9106,311.3624 281.8314,309.9378 283.8826,308.7083 286.0445,307.6859 288.2961,306.8802 290.6159,306.2991 292.9815,305.9482 295.3701,305.8309 297.7587,305.9482 300.1242,306.2991 302.444,306.8802 304.6957,307.6859 306.8575,308.7083 308.9088,309.9378 310.8296,311.3624 312.6015,312.9684 314.2076,314.7404 315.6321,316.6612 316.8616,318.7124 317.8841,320.8743 318.6897,323.1259 319.2708,325.4457 319.6217,327.8113 319.7391,330.1999 319.6217,332.5884 319.2708,334.954 318.6897,337.2738 317.8841,339.5255 316.8616,341.6873 315.6321,343.7385 314.2076,345.6594 312.6015,347.4313 310.8296,349.0373 308.9088,350.4619 306.8575,351.6914 304.6957,352.7139 302.444,353.5195 300.1242,354.1006 297.7587,354.4515 295.3701,354.5688 292.9815,354.4515 290.6159,354.1006 288.2961,353.5195 286.0445,352.7139 283.8826,351.6914"/>
    <polygon points="281.0308,366.5879 280.6869,366.2761 280.3752,365.9322 280.0987,365.5594 279.86,365.1612 279.6616,364.7416 279.5052,364.3046 279.3924,363.8543 279.3243,363.3952 279.3015,362.9315 279.3243,362.4679 279.3924,362.0088 279.5052,361.5585 279.6616,361.1215 279.86,360.7018 280.0987,360.3037 280.3752,359.9309 280.6869,359.5869 281.0308,359.2752 281.4037,358.9987 281.8018,358.7601 282.2214,358.5616 282.6585,358.4052 283.1087,358.2924 283.5679,358.2243 284.0315,358.2016 284.4951,358.2243 284.9543,358.2924 285.4045,358.4052 285.8416,358.5616 286.2612,358.7601 286.6593,358.9987 287.0322,359.2752 287.3761,359.5869 287.6878,359.9309 287.9643,360.3037 288.203,360.7018 288.4014,361.1215 288.5578,361.5585 288.6706,362.0088 288.7387,362.4679 288.7615,362.9315 288.7387,363.3952 288.6706,363.8543 288.5578,364.3046 288.4014,364.7416 288.203,365.1612 287.9643,365.5594 287.6878,365.9322 287.3761,366.2761 287.0322,366.5879 286.6593,366.8644 286.2612,367.103 285.8416,367.3015 285.4045,367.4578 284.9543,367.5706 284.4951,367.6387 284.0315,367.6615 283.5679,367.6387 283.1087,367.5706 282.6585,367.4578 282.2214,367.3015 281.8018,367.103 281.4037,366.8644"/>
    <polygon points="287.6878,392.1175 287.9643,391.7447 288.203,391.3466 288.4014,390.927 288.5578,390.4899 288.6706,390.0396 288.7387,389.5805 288.7615,389.1169 288.7387,388.6533 288.6706,388.1941 288.5578,387.7438 288.4014,387.3068 288.203,386.8872 287.9643,386.489 287.6878,386.1162 287.3761,385.7723 287.0322,385.4606 286.6593,385.184 286.2612,384.9454 285.8416,384.7469 285.4045,384.5906 284.9543,384.4778 284.4951,384.4097 284.0315,384.3869 283.5679,384.4097 283.1087,384.4778 282.6585,384.5906 282.2214,384.7469 281.8018,384.9454 281.4037,385.184 281.0308,385.4606 280.6869,385.7723 280.3752,386.1162 280.0987,386.489 279.86,386.8872 279.6616,387.3068 279.5052,387.7438 279.3924,388.1941 279.3243,388.6533 279.3015,389.1169 279.3243,389.5805 279.3924,390.0396 279.5052,390.4899 279.6616,390.927 279.86,391.3466 280.0987,391.7447 280.3752,392.1175 280.6869,392.4615 281.0308,392.7732 281.4037,393.0497 281.8018,393.2883 282.2214,393.4868 282.6585,393.6432 283.1087,393.756 283.5679,393.8241 284.0315,393.8468 284.4951,393.8241 284.9543,393.756 285.4045,393.6432 285.8416,393.4868 286.2612,393.2883 286.6593,393.0497 287.0322,392.7732 287.3761,392.4615"/>
    <polygon points="261.3543,397.4796 260.8907,397.5023 260.4316,397.5704 259.9813,397.6832 259.5442,397.8396 259.1246,398.0381 258.7265,398.2767 258.3537,398.5532 258.0097,398.8649 257.698,399.2089 257.4215,399.5817 257.1829,399.9798 256.9844,400.3995 256.828,400.8365 256.7152,401.2868 256.6471,401.7459 256.6244,402.2095 256.6471,402.6732 256.7152,403.1323 256.828,403.5826 256.9844,404.0196 257.1829,404.4392 257.4215,404.8374 257.698,405.2102 258.0097,405.5541 258.3537,405.8659 258.7265,406.1424 259.1246,406.381 259.5442,406.5795 259.9813,406.7358 260.4316,406.8486 260.8907,406.9167 261.3543,406.9395 261.8179,406.9167 262.2771,406.8486 262.7274,406.7358 263.1644,406.5795 263.584,406.381 263.9822,406.1424 264.355,405.8659 264.6989,405.5541 265.0106,405.2102 265.2872,404.8374 265.5258,404.4392 265.7243,404.0196 265.8806,403.5826 265.9934,403.1323 266.0615,402.6732 266.0843,402.2095 266.0615,401.7459 265.9934,401.2868 265.8806,400.8365 265.7243,400.3995 265.5258,399.9798 265.2872,399.5817 265.0106,399.2089 264.6989,398.8649 264.355,398.5532 263.9822,398.2767 263.584,398.0381 263.1644,397.8396 262.7274,397.6832 262.2771,397.5704 261.8179,397.5023"/>
    <polygon points="254.7159,386.8858 255.189,387.8861 255.758,388.8353 256.4172,389.7241 257.1603,390.5441 257.9802,391.2872 258.8691,391.9464 259.8182,392.5153 260.8186,392.9885 261.8605,393.3613 262.934,393.6302 264.0286,393.7925 265.1339,393.8468 266.2391,393.7925 267.3338,393.6302 268.4072,393.3613 269.4491,392.9885 270.4495,392.5153 271.3986,391.9464 272.2875,391.2872 273.1074,390.5441 273.8506,389.7241 274.5098,388.8353 275.0787,387.8861 275.5518,386.8858 275.9246,385.8439 276.1935,384.7704 276.3559,383.6758 276.4102,382.5705 276.3559,381.4653 276.1935,380.3706 275.9246,379.2972 275.5518,378.2553 275.0787,377.2549 274.5098,376.3058 273.8506,375.4169 273.1074,374.597 272.2875,373.8538 271.3986,373.1946 270.4495,372.6257 269.4491,372.1526 268.4072,371.7798 267.3338,371.5109 266.2391,371.3485 265.1339,371.2942 264.0286,371.3485 262.934,371.5109 261.8605,371.7798 260.8186,372.1526 259.8182,372.6257 258.8691,373.1946 257.9802,373.8538 257.1603,374.597 256.4172,375.4169 255.758,376.3058 255.189,377.2549 254.7159,378.2553 254.3431,379.2972 254.0742,380.3706 253.9119,381.4653 253.8576,382.5705 253.9119,383.6758 254.0742,384.7704 254.3431,385.8439"/>
    <polygon points="253.5163,397.8631 253.2474,398.9365 252.8746,399.9785 252.4015,400.9788 251.8326,401.928 251.1734,402.8168 250.4302,403.6368 249.6103,404.3799 248.7215,405.0391 247.7723,405.608 246.7719,406.0812 245.73,406.454 244.6566,406.7228 243.562,406.8852 242.4567,406.9395 241.3514,406.8852 240.2568,406.7228 239.1834,406.454 238.1414,406.0812 237.1411,405.608 236.1919,405.0391 235.3031,404.3799 234.4831,403.6368 233.74,402.8168 233.0808,401.928 232.5119,400.9788 232.0387,399.9785 231.6659,398.9365 231.3971,397.8631 231.2347,396.7685 231.1804,395.6632 231.2347,394.5579 231.3971,393.4633 231.6659,392.3899 232.0387,391.3479 232.5119,390.3476 233.0808,389.3984 233.74,388.5096 234.4831,387.6897 235.3031,386.9465 236.1919,386.2873 237.1411,385.7184 238.1414,385.2453 239.1834,384.8725 240.2568,384.6036 241.3514,384.4412 242.4567,384.3869 243.562,384.4412 244.6566,384.6036 245.73,384.8725 246.7719,385.2453 247.7723,385.7184 248.7215,386.2873 249.6103,386.9465 250.4302,387.6897 251.1734,388.5096 251.8326,389.3984 252.4015,390.3476 252.8746,391.3479 253.2474,392.3899 253.5163,393.4633 253.6787,394.5579 253.733,395.6632 253.6787,396.7685"/>
    <polygon points="221.9794,419.8155 220.8848,419.9779 219.7795,420.0322 218.6743,419.9779 217.5796,419.8155 216.5062,419.5466 215.4643,419.1738 214.4639,418.7007 213.5147,418.1318 212.6259,417.4726 211.806,416.7294 211.0628,415.9095 210.4036,415.0207 209.8347,414.0715 209.3616,413.0711 208.9888,412.0292 208.7199,410.9558 208.5575,409.8611 208.5032,408.7559 208.5575,407.6506 208.7199,406.556 208.9888,405.4825 209.3616,404.4406 209.8347,403.4403 210.4036,402.4911 211.0628,401.6023 211.806,400.7823 212.6259,400.0392 213.5147,399.38 214.4639,398.8111 215.4643,398.3379 216.5062,397.9651 217.5796,397.6962 218.6743,397.5339 219.7795,397.4796 220.8848,397.5339 221.9794,397.6962 223.0529,397.9651 224.0948,398.3379 225.0951,398.8111 226.0443,399.38 226.9331,400.0392 227.7531,400.7823 228.4962,401.6023 229.1554,402.4911 229.7243,403.4403 230.1975,404.4406 230.5703,405.4825 230.8392,406.556 231.0015,407.6506 231.0558,408.7559 231.0015,409.8611 230.8392,410.9558 230.5703,412.0292 230.1975,413.0711 229.7243,414.0715 229.1554,415.0207 228.4962,415.9095 227.7531,416.7294 226.9331,417.4726 226.0443,418.1318 225.0951,418.7007 224.0948,419.1738 223.0529,419.5466"/>
    <polygon points="202.0336,425.7814 201.6608,425.5049 201.3168,425.1931 201.0051,424.8492 200.7286,424.4764 200.49,424.0782 200.2915,423.6586 200.1351,423.2216 200.0223,422.7713 199.9542,422.3122 199.9314,421.8485 199.9542,421.3849 200.0223,420.9258 200.1351,420.4755 200.2915,420.0385 200.49,419.6188 200.7286,419.2207 201.0051,418.8479 201.3168,418.5039 201.6608,418.1922 202.0336,417.9157 202.4317,417.6771 202.8513,417.4786 203.2884,417.3222 203.7386,417.2095 204.1978,417.1413 204.6614,417.1186 205.125,417.1413 205.5842,417.2095 206.0345,417.3222 206.4715,417.4786 206.8911,417.6771 207.2892,417.9157 207.6621,418.1922 208.006,418.5039 208.3177,418.8479 208.5942,419.2207 208.8329,419.6188 209.0313,420.0385 209.1877,420.4755 209.3005,420.9258 209.3686,421.3849 209.3914,421.8485 209.3686,422.3122 209.3005,422.7713 209.1877,423.2216 209.0313,423.6586 208.8329,424.0782 208.5942,424.4764 208.3177,424.8492 208.006,425.1931 207.6621,425.5049 207.2892,425.7814 206.8911,426.02 206.4715,426.2185 206.0345,426.3748 205.5842,426.4876 205.125,426.5557 204.6614,426.5785 204.1978,426.5557 203.7386,426.4876 203.2884,426.3748 202.8513,426.2185 202.4317,426.02"/>
    <polygon points="187.7265,401.928 187.1575,400.9788 186.6844,399.9785 186.3116,398.9365 186.0427,397.8631 185.8804,396.7685 185.8261,395.6632 185.8804,394.5579 186.0427,393.4633 186.3116,392.3899 186.6844,391.3479 187.1575,390.3476 187.7265,389.3984 188.3857,388.5096 189.1288,387.6897 189.9487,386.9465 190.8376,386.2873 191.7867,385.7184 192.7871,385.2453 193.829,384.8725 194.9025,384.6036 195.9971,384.4412 197.1024,384.3869 198.2076,384.4412 199.3023,384.6036 200.3757,384.8725 201.4176,385.2453 202.418,385.7184 203.3671,386.2873 204.256,386.9465 205.0759,387.6897 205.8191,388.5096 206.4783,389.3984 207.0472,390.3476 207.5203,391.3479 207.8931,392.3899 208.162,393.4633 208.3244,394.5579 208.3787,395.6632 208.3244,396.7685 208.162,397.8631 207.8931,398.9365 207.5203,399.9785 207.0472,400.9788 206.4783,401.928 205.8191,402.8168 205.0759,403.6368 204.256,404.3799 203.3671,405.0391 202.418,405.608 201.4176,406.0812 200.3757,406.454 199.3023,406.7228 198.2076,406.8852 197.1024,406.9395 195.9971,406.8852 194.9025,406.7228 193.829,406.454 192.7871,406.0812 191.7867,405.608 190.8376,405.0391 189.9487,404.3799 189.1288,403.6368 188.3857,402.8168"/>
    <polygon points="178.6397,405.4113 178.9836,405.0996 179.3564,404.823 179.7546,404.5844 180.1742,404.3859 180.6112,404.2296 181.0615,404.1168 181.5206,404.0487 181.9843,404.0259 182.4479,404.0487 182.907,404.1168 183.3573,404.2296 183.7943,404.3859 184.2139,404.5844 184.6121,404.823 184.9849,405.0996 185.3288,405.4113 185.6406,405.7552 185.9171,406.128 186.1557,406.5262 186.3542,406.9458 186.5106,407.3828 186.6233,407.8331 186.6914,408.2923 186.7142,408.7559 186.6914,409.2195 186.6233,409.6786 186.5106,410.1289 186.3542,410.566 186.1557,410.9856 185.9171,411.3837 185.6406,411.7565 185.3288,412.1005 184.9849,412.4122 184.6121,412.6887 184.2139,412.9273 183.7943,413.1258 183.3573,413.2822 182.907,413.395 182.4479,413.4631 181.9843,413.4858 181.5206,413.4631 181.0615,413.395 180.6112,413.2822 180.1742,413.1258 179.7546,412.9273 179.3564,412.6887 178.9836,412.4122 178.6397,412.1005 178.3279,411.7565 178.0514,411.3837 177.8128,410.9856 177.6143,410.566 177.458,410.1289 177.3452,409.6786 177.2771,409.2195 177.2543,408.7559 177.2771,408.2923 177.3452,407.8331 177.458,407.3828 177.6143,406.9458 177.8128,406.5262 178.0514,406.128 178.3279,405.7552"/>
    <polygon points="172.0187,397.6832 172.4558,397.8396 172.8754,398.0381 173.2735,398.2767 173.6463,398.5532 173.9903,398.8649 174.302,399.2089 174.5785,399.5817 174.8171,399.9798 175.0156,400.3995 175.172,400.8365 175.2848,401.2868 175.3529,401.7459 175.3756,402.2095 175.3529,402.6732 175.2848,403.1323 175.172,403.5826 175.0156,404.0196 174.8171,404.4392 174.5785,404.8374 174.302,405.2102 173.9903,405.5541 173.6463,405.8659 173.2735,406.1424 172.8754,406.381 172.4558,406.5795 172.0187,406.7358 171.5684,406.8486 171.1093,406.9167 170.6457,406.9395 170.1821,406.9167 169.7229,406.8486 169.2726,406.7358 168.8356,406.5795 168.416,406.381 168.0178,406.1424 167.645,405.8659 167.3011,405.5541 166.9894,405.2102 166.7128,404.8374 166.4742,404.4392 166.2757,404.0196 166.1194,403.5826 166.0066,403.1323 165.9385,402.6732 165.9157,402.2095 165.9385,401.7459 166.0066,401.2868 166.1194,400.8365 166.2757,400.3995 166.4742,399.9798 166.7128,399.5817 166.9894,399.2089 167.3011,398.8649 167.645,398.5532 168.0178,398.2767 168.416,398.0381 168.8356,397.8396 169.2726,397.6832 169.7229,397.5704 170.1821,397.5023 170.6457,397.4796 171.1093,397.5023 171.5684,397.5704"/>
    <polygon points="161.6928,390.3476 162.166,391.3479 162.5388,392.3899 162.8077,393.4633 162.97,394.5579 163.0243,395.6632 162.97,396.7685 162.8077,397.8631 162.5388,398.9365 162.166,399.9785 161.6928,400.9788 161.1239,401.928 160.4647,402.8168 159.7216,403.6368 158.9016,404.3799 158.0128,405.0391 157.0636,405.608 156.0633,406.0812 155.0214,406.454 153.9479,406.7228 152.8533,406.8852 151.748,406.9395 150.6428,406.8852 149.5481,406.7228 148.4747,406.454 147.4328,406.0812 146.4324,405.608 145.4833,405.0391 144.5944,404.3799 143.7745,403.6368 143.0313,402.8168 142.3721,401.928 141.8032,400.9788 141.3301,399.9785 140.9573,398.9365 140.6884,397.8631 140.526,396.7685 140.4717,395.6632 140.526,394.5579 140.6884,393.4633 140.9573,392.3899 141.3301,391.3479 141.8032,390.3476 142.3721,389.3984 143.0313,388.5096 143.7745,387.6897 144.5944,386.9465 145.4833,386.2873 146.4324,385.7184 147.4328,385.2453 148.4747,384.8725 149.5481,384.6036 150.6428,384.4412 151.748,384.3869 152.8533,384.4412 153.9479,384.6036 155.0214,384.8725 156.0633,385.2453 157.0636,385.7184 158.0128,386.2873 158.9016,386.9465 159.7216,387.6897 160.4647,388.5096 161.1239,389.3984"/>
    <polygon points="174.7666,375.2227 172.8458,376.6473 170.7945,377.8767 168.6327,378.8992 166.381,379.7049 164.0612,380.2859 161.6957,380.6368 159.3071,380.7542 156.9185,380.6368 154.5529,380.2859 152.2331,379.7049 149.9815,378.8992 147.8196,377.8767 145.7684,376.6473 143.8476,375.2227 142.0756,373.6167 140.4696,371.8447 139.045,369.9239 137.8156,367.8727 136.7931,365.7108 135.9874,363.4591 135.4064,361.1394 135.0555,358.7738 134.9381,356.3852 135.0555,353.9966 135.4064,351.631 135.9874,349.3113 136.7931,347.0596 137.8156,344.8977 139.045,342.8465 140.4696,340.9257 142.0756,339.1537 143.8476,337.5477 145.7684,336.1231 147.8196,334.8937 149.9815,333.8712 152.2331,333.0655 154.5529,332.4845 156.9185,332.1336 159.3071,332.0162 161.6957,332.1336 164.0612,332.4845 166.381,333.0655 168.6327,333.8712 170.7945,334.8937 172.8458,336.1231 174.7666,337.5477 176.5386,339.1537 178.1446,340.9257 179.5691,342.8465 180.7986,344.8977 181.8211,347.0596 182.6267,349.3113 183.2078,351.631 183.5587,353.9966 183.6761,356.3852 183.5587,358.7738 183.2078,361.1394 182.6267,363.4591 181.8211,365.7108 180.7986,367.8727 179.5691,369.9239 178.1446,371.8447 176.5386,373.6167"/>
    <polygon points="194.9025,380.5375 193.829,380.2686 192.7871,379.8958 191.7867,379.4227 190.8376,378.8538 189.9487,378.1946 189.1288,377.4514 188.3857,376.6315 187.7265,375.7426 187.1575,374.7935 186.6844,373.7931 186.3116,372.7512 186.0427,371.6778 185.8804,370.5831 185.8261,369.4779 185.8804,368.3726 186.0427,367.278 186.3116,366.2045 186.6844,365.1626 187.1575,364.1623 187.7265,363.2131 188.3857,362.3243 189.1288,361.5043 189.9487,360.7612 190.8376,360.102 191.7867,359.5331 192.7871,359.0599 193.829,358.6871 194.9025,358.4182 195.9971,358.2559 197.1024,358.2016 198.2076,358.2559 199.3023,358.4182 200.3757,358.6871 201.4176,359.0599 202.418,359.5331 203.3671,360.102 204.256,360.7612 205.0759,361.5043 205.8191,362.3243 206.4783,363.2131 207.0472,364.1623 207.5203,365.1626 207.8931,366.2045 208.162,367.278 208.3244,368.3726 208.3787,369.4779 208.3244,370.5831 208.162,371.6778 207.8931,372.7512 207.5203,373.7931 207.0472,374.7935 206.4783,375.7426 205.8191,376.6315 205.0759,377.4514 204.256,378.1946 203.3671,378.8538 202.418,379.4227 201.4176,379.8958 200.3757,380.2686 199.3023,380.5375 198.2076,380.6999 197.1024,380.7542 195.9971,380.6999"/>
    <polygon points="220.1715,373.7945 220.3699,374.2141 220.5263,374.6512 220.6391,375.1014 220.7072,375.5606 220.73,376.0242 220.7072,376.4878 220.6391,376.947 220.5263,377.3972 220.3699,377.8343 220.1715,378.2539 219.9328,378.652 219.6563,379.0249 219.3446,379.3688 219.0007,379.6805 218.6278,379.957 218.2297,380.1957 217.8101,380.3941 217.373,380.5505 216.9228,380.6633 216.4636,380.7314 216.0,380.7542 215.5364,380.7314 215.0772,380.6633 214.627,380.5505 214.1899,380.3941 213.7703,380.1957 213.3722,379.957 212.9993,379.6805 212.6554,379.3688 212.3437,379.0249 212.0672,378.652 211.8285,378.2539 211.6301,377.8343 211.4737,377.3972 211.3609,376.947 211.2928,376.4878 211.27,376.0242 211.2928,375.5606 211.3609,375.1014 211.4737,374.6512 211.6301,374.2141 211.8285,373.7945 212.0672,373.3964 212.3437,373.0235 212.6554,372.6796 212.9993,372.3679 213.3722,372.0914 213.7703,371.8527 214.1899,371.6543 214.627,371.4979 215.0772,371.3851 215.5364,371.317 216.0,371.2942 216.4636,371.317 216.9228,371.3851 217.373,371.4979 217.8101,371.6543 218.2297,371.8527 218.6278,372.0914 219.0007,372.3679 219.3446,372.6796 219.6563,373.0235 219.9328,373.3964"/>
    <polygon points="211.7354,353.5195 209.4156,354.1006 207.05,354.4515 204.6614,354.5688 202.2728,354.4515 199.9073,354.1006 197.5875,353.5195 195.3358,352.7139 193.174,351.6914 191.1227,350.4619 189.2019,349.0373 187.43,347.4313 185.8239,345.6594 184.3994,343.7385 183.1699,341.6873 182.1474,339.5255 181.3418,337.2738 180.7607,334.954 180.4098,332.5884 180.2924,330.1999 180.4098,327.8113 180.7607,325.4457 181.3418,323.1259 182.1474,320.8743 183.1699,318.7124 184.3994,316.6612 185.8239,314.7404 187.43,312.9684 189.2019,311.3624 191.1227,309.9378 193.174,308.7083 195.3358,307.6859 197.5875,306.8802 199.9073,306.2991 202.2728,305.9482 204.6614,305.8309 207.05,305.9482 209.4156,306.2991 211.7354,306.8802 213.987,307.6859 216.1489,308.7083 218.2001,309.9378 220.1209,311.3624 221.8929,312.9684 223.4989,314.7404 224.9235,316.6612 226.1529,318.7124 227.1754,320.8743 227.9811,323.1259 228.5621,325.4457 228.913,327.8113 229.0304,330.1999 228.913,332.5884 228.5621,334.954 227.9811,337.2738 227.1754,339.5255 226.1529,341.6873 224.9235,343.7385 223.4989,345.6594 221.8929,347.4313 220.1209,349.0373 218.2001,350.4619 216.1489,351.6914 213.987,352.7139"/>
    <polygon points="239.1834,332.5018 240.2568,332.2329 241.3514,332.0705 242.4567,332.0162 243.562,332.0705 244.6566,332.2329 245.73,332.5018 246.7719,332.8746 247.7723,333.3477 248.7215,333.9166 249.6103,334.5758 250.4302,335.319 251.1734,336.1389 251.8326,337.0278 252.4015,337.9769 252.8746,338.9773 253.2474,340.0192 253.5163,341.0926 253.6787,342.1873 253.733,343.2925 253.6787,344.3978 253.5163,345.4924 253.2474,346.5659 252.8746,347.6078 252.4015,348.6081 251.8326,349.5573 251.1734,350.4461 250.4302,351.2661 249.6103,352.0092 248.7215,352.6684 247.7723,353.2373 246.7719,353.7105 245.73,354.0833 244.6566,354.3522 243.562,354.5145 242.4567,354.5688 241.3514,354.5145 240.2568,354.3522 239.1834,354.0833 238.1414,353.7105 237.1411,353.2373 236.1919,352.6684 235.3031,352.0092 234.4831,351.2661 233.74,350.4461 233.0808,349.5573 232.5119,348.6081 232.0387,347.6078 231.6659,346.5659 231.3971,345.4924 231.2347,344.3978 231.1804,343.2925 231.2347,342.1873 231.3971,341.0926 231.6659,340.0192 232.0387,338.9773 232.5119,337.9769 233.0808,337.0278 233.74,336.1389 234.4831,335.319 235.3031,334.5758 236.1919,333.9166 237.1411,333.3477 238.1414,332.8746"/>
    <polygon points="229.7537,290.4759 231.1783,288.555 232.7843,286.7831 234.5562,285.1771 236.4771,283.7525 238.5283,282.523 240.6901,281.5005 242.9418,280.6949 245.2616,280.1138 247.6272,279.7629 250.0157,279.6456 252.4043,279.7629 254.7699,280.1138 257.0897,280.6949 259.3414,281.5005 261.5032,282.523 263.5544,283.7525 265.4753,285.1771 267.2472,286.7831 268.8532,288.555 270.2778,290.4759 271.5073,292.5271 272.5297,294.6889 273.3354,296.9406 273.9165,299.2604 274.2674,301.626 274.3847,304.0145 274.2674,306.4031 273.9165,308.7687 273.3354,311.0885 272.5297,313.3401 271.5073,315.502 270.2778,317.5532 268.8532,319.474 267.2472,321.246 265.4753,322.852 263.5544,324.2766 261.5032,325.506 259.3414,326.5285 257.0897,327.3342 254.7699,327.9153 252.4043,328.2662 250.0157,328.3835 247.6272,328.2662 245.2616,327.9153 242.9418,327.3342 240.6901,326.5285 238.5283,325.506 236.4771,324.2766 234.5562,322.852 232.7843,321.246 231.1783,319.474 229.7537,317.5532 228.5242,315.502 227.5018,313.3401 226.6961,311.0885 226.115,308.7687 225.7641,306.4031 225.6468,304.0145 225.7641,301.626 226.115,299.2604 226.6961,296.9406 227.5018,294.6889 228.5242,292.5271"/>
    <polygon points="220.1209,296.6667 218.2001,298.0913 216.1489,299.3207 213.987,300.3432 211.7354,301.1488 209.4156,301.7299 207.05,302.0808 204.6614,302.1982 202.2728,302.0808 199.9073,301.7299 197.5875,301.1488 195.3358,300.3432 193.174,299.3207 191.1227,298.0913 189.2019,296.6667 187.43,295.0607 185.8239,293.2887 184.3994,291.3679 183.1699,289.3167 182.1474,287.1548 181.3418,284.9031 180.7607,282.5833 180.4098,280.2178 180.2924,277.8292 180.4098,275.4406 180.7607,273.075 181.3418,270.7553 182.1474,268.5036 183.1699,266.3417 184.3994,264.2905 185.8239,262.3697 187.43,260.5977 189.2019,258.9917 191.1227,257.5671 193.174,256.3377 195.3358,255.3152 197.5875,254.5095 199.9073,253.9285 202.2728,253.5776 204.6614,253.4602 207.05,253.5776 209.4156,253.9285 211.7354,254.5095 213.987,255.3152 216.1489,256.3377 218.2001,257.5671 220.1209,258.9917 221.8929,260.5977 223.4989,262.3697 224.9235,264.2905 226.1529,266.3417 227.1754,268.5036 227.9811,270.7553 228.5621,273.075 228.913,275.4406 229.0304,277.8292 228.913,280.2178 228.5621,282.5833 227.9811,284.9031 227.1754,287.1548 226.1529,289.3167 224.9235,291.3679 223.4989,293.2887 221.8929,295.0607"/>
    <polygon points="179.7408,294.0697 178.7405,293.5966 177.6985,293.2238 176.6251,292.9549 175.5305,292.7925 174.4252,292.7382 173.3199,292.7925 172.2253,292.9549 171.1519,293.2238 170.1099,293.5966 169.1096,294.0697 168.1604,294.6386 167.2716,295.2978 166.4516,296.041 165.7085,296.8609 165.0493,297.7498 164.4804,298.6989 164.0072,299.6993 163.6344,300.7412 163.3656,301.8146 163.2032,302.9093 163.1489,304.0145 163.2032,305.1198 163.3656,306.2144 163.6344,307.2879 164.0072,308.3298 164.4804,309.3301 165.0493,310.2793 165.7085,311.1681 166.4516,311.9881 167.2716,312.7312 168.1604,313.3904 169.1096,313.9593 170.1099,314.4325 171.1519,314.8053 172.2253,315.0742 173.3199,315.2365 174.4252,315.2908 175.5305,315.2365 176.6251,315.0742 177.6985,314.8053 178.7405,314.4325 179.7408,313.9593 180.69,313.3904 181.5788,312.7312 182.3987,311.9881 183.1419,311.1681 183.8011,310.2793 184.37,309.3301 184.8431,308.3298 185.2159,307.2879 185.4848,306.2144 185.6472,305.1198 185.7015,304.0145 185.6472,302.9093 185.4848,301.8146 185.2159,300.7412 184.8431,299.6993 184.37,298.6989 183.8011,297.7498 183.1419,296.8609 182.3987,296.041 181.5788,295.2978 180.69,294.6386"/>
    <polygon points="163.4786,314.8775 163.677,315.2971 163.8334,315.7342 163.9462,316.1844 164.0143,316.6436 164.0371,317.1072 164.0143,317.5708 163.9462,318.03 163.8334,318.4802 163.677,318.9173 163.4786,319.3369 163.2399,319.735 162.9634,320.1079 162.6517,320.4518 162.3077,320.7635 161.9349,321.04 161.5368,321.2787 161.1172,321.4771 160.6801,321.6335 160.2299,321.7463 159.7707,321.8144 159.3071,321.8372 158.8435,321.8144 158.3843,321.7463 157.934,321.6335 157.497,321.4771 157.0774,321.2787 156.6793,321.04 156.3064,320.7635 155.9625,320.4518 155.6508,320.1079 155.3743,319.735 155.1356,319.3369 154.9372,318.9173 154.7808,318.4802 154.668,318.03 154.5999,317.5708 154.5771,317.1072 154.5999,316.6436 154.668,316.1844 154.7808,315.7342 154.9372,315.2971 155.1356,314.8775 155.3743,314.4794 155.6508,314.1065 155.9625,313.7626 156.3064,313.4509 156.6793,313.1744 157.0774,312.9357 157.497,312.7373 157.934,312.5809 158.3843,312.4681 158.8435,312.4 159.3071,312.3772 159.7707,312.4 160.2299,312.4681 160.6801,312.5809 161.1172,312.7373 161.5368,312.9357 161.9349,313.1744 162.3077,313.4509 162.6517,313.7626 162.9634,314.1065 163.2399,314.4794"/>
    <polygon points="155.3743,288.294 155.1356,288.6922 154.9372,289.1118 154.7808,289.5488 154.668,289.9991 154.5999,290.4582 154.5771,290.9219 154.5999,291.3855 154.668,291.8446 154.7808,292.2949 154.9372,292.7319 155.1356,293.1516 155.3743,293.5497 155.6508,293.9225 155.9625,294.2665 156.3064,294.5782 156.6793,294.8547 157.0774,295.0933 157.497,295.2918 157.934,295.4482 158.3843,295.561 158.8435,295.6291 159.3071,295.6518 159.7707,295.6291 160.2299,295.561 160.6801,295.4482 161.1172,295.2918 161.5368,295.0933 161.9349,294.8547 162.3077,294.5782 162.6517,294.2665 162.9634,293.9225 163.2399,293.5497 163.4786,293.1516 163.677,292.7319 163.8334,292.2949 163.9462,291.8446 164.0143,291.3855 164.0371,290.9219 164.0143,290.4582 163.9462,289.9991 163.8334,289.5488 163.677,289.1118 163.4786,288.6922 163.2399,288.294 162.9634,287.9212 162.6517,287.5773 162.3077,287.2655 161.9349,286.989 161.5368,286.7504 161.1172,286.5519 160.6801,286.3956 160.2299,286.2828 159.7707,286.2147 159.3071,286.1919 158.8435,286.2147 158.3843,286.2828 157.934,286.3956 157.497,286.5519 157.0774,286.7504 156.6793,286.989 156.3064,287.2655 155.9625,287.5773 155.6508,287.9212"/>
    <polygon points="147.9685,302.1982 148.4321,302.1754 148.8913,302.1073 149.3415,301.9945 149.7786,301.8381 150.1982,301.6397 150.5963,301.401 150.9692,301.1245 151.3131,300.8128 151.6248,300.4689 151.9013,300.096 152.14,299.6979 152.3384,299.2783 152.4948,298.8412 152.6076,298.391 152.6757,297.9318 152.6985,297.4682 152.6757,297.0046 152.6076,296.5454 152.4948,296.0952 152.3384,295.6581 152.14,295.2385 151.9013,294.8404 151.6248,294.4675 151.3131,294.1236 150.9692,293.8119 150.5963,293.5354 150.1982,293.2967 149.7786,293.0983 149.3415,292.9419 148.8913,292.8291 148.4321,292.761 147.9685,292.7382 147.5049,292.761 147.0457,292.8291 146.5955,292.9419 146.1584,293.0983 145.7388,293.2967 145.3407,293.5354 144.9678,293.8119 144.6239,294.1236 144.3122,294.4675 144.0357,294.8404 143.797,295.2385 143.5986,295.6581 143.4422,296.0952 143.3294,296.5454 143.2613,297.0046 143.2385,297.4682 143.2613,297.9318 143.3294,298.391 143.4422,298.8412 143.5986,299.2783 143.797,299.6979 144.0357,300.096 144.3122,300.4689 144.6239,300.8128 144.9678,301.1245 145.3407,301.401 145.7388,301.6397 146.1584,301.8381 146.5955,301.9945 147.0457,302.1073 147.5049,302.1754"/>
    <polygon points="139.9745,307.3591 140.2862,307.0152 140.5627,306.6424 140.8014,306.2442 140.9998,305.8246 141.1562,305.3876 141.269,304.9373 141.3371,304.4781 141.3599,304.0145 141.3371,303.5509 141.269,303.0918 141.1562,302.6415 140.9998,302.2044 140.8014,301.7848 140.5627,301.3867 140.2862,301.0139 139.9745,300.6699 139.6306,300.3582 139.2578,300.0817 138.8596,299.8431 138.44,299.6446 138.003,299.4882 137.5527,299.3754 137.0935,299.3073 136.6299,299.2846 136.1663,299.3073 135.7071,299.3754 135.2569,299.4882 134.8198,299.6446 134.4002,299.8431 134.0021,300.0817 133.6293,300.3582 133.2853,300.6699 132.9736,301.0139 132.6971,301.3867 132.4585,301.7848 132.26,302.2044 132.1036,302.6415 131.9908,303.0918 131.9227,303.5509 131.8999,304.0145 131.9227,304.4781 131.9908,304.9373 132.1036,305.3876 132.26,305.8246 132.4585,306.2442 132.6971,306.6424 132.9736,307.0152 133.2853,307.3591 133.6293,307.6708 134.0021,307.9474 134.4002,308.186 134.8198,308.3845 135.2569,308.5408 135.7071,308.6536 136.1663,308.7217 136.6299,308.7445 137.0935,308.7217 137.5527,308.6536 138.003,308.5408 138.44,308.3845 138.8596,308.186 139.2578,307.9474 139.6306,307.6708"/>
    <polygon points="127.1014,314.9308 127.521,314.7323 127.9192,314.4937 128.292,314.2172 128.6359,313.9055 128.9477,313.5615 129.2242,313.1887 129.4628,312.7906 129.6613,312.3709 129.8176,311.9339 129.9304,311.4836 129.9985,311.0245 130.0213,310.5609 129.9985,310.0972 129.9304,309.6381 129.8176,309.1878 129.6613,308.7508 129.4628,308.3312 129.2242,307.933 128.9477,307.5602 128.6359,307.2163 128.292,306.9045 127.9192,306.628 127.521,306.3894 127.1014,306.1909 126.6644,306.0346 126.2141,305.9218 125.755,305.8537 125.2913,305.8309 124.8277,305.8537 124.3686,305.9218 123.9183,306.0346 123.4813,306.1909 123.0616,306.3894 122.6635,306.628 122.2907,306.9045 121.9467,307.2163 121.635,307.5602 121.3585,307.933 121.1199,308.3312 120.9214,308.7508 120.765,309.1878 120.6523,309.6381 120.5841,310.0972 120.5614,310.5609 120.5841,311.0245 120.6523,311.4836 120.765,311.9339 120.9214,312.3709 121.1199,312.7906 121.3585,313.1887 121.635,313.5615 121.9467,313.9055 122.2907,314.2172 122.6635,314.4937 123.0616,314.7323 123.4813,314.9308 123.9183,315.0872 124.3686,315.2 124.8277,315.2681 125.2913,315.2908 125.755,315.2681 126.2141,315.2 126.6644,315.0872"/>
    <polygon points="124.7556,319.7819 123.7553,320.2551 122.8061,320.824 121.9173,321.4832 121.0973,322.2263 120.3542,323.0463 119.695,323.9351 119.1261,324.8843 118.6529,325.8846 118.2801,326.9265 118.0112,328.0 117.8489,329.0946 117.7946,330.1999 117.8489,331.3051 118.0112,332.3998 118.2801,333.4732 118.6529,334.5151 119.1261,335.5155 119.695,336.4646 120.3542,337.3535 121.0973,338.1734 121.9173,338.9166 122.8061,339.5758 123.7553,340.1447 124.7556,340.6178 125.7975,340.9906 126.871,341.2595 127.9656,341.4219 129.0709,341.4762 130.1761,341.4219 131.2708,341.2595 132.3442,340.9906 133.3861,340.6178 134.3865,340.1447 135.3356,339.5758 136.2245,338.9166 137.0444,338.1734 137.7876,337.3535 138.4468,336.4646 139.0157,335.5155 139.4888,334.5151 139.8616,333.4732 140.1305,332.3998 140.2929,331.3051 140.3472,330.1999 140.2929,329.0946 140.1305,328.0 139.8616,326.9265 139.4888,325.8846 139.0157,324.8843 138.4468,323.9351 137.7876,323.0463 137.0444,322.2263 136.2245,321.4832 135.3356,320.824 134.3865,320.2551 133.3861,319.7819 132.3442,319.4091 131.2708,319.1402 130.1761,318.9779 129.0709,318.9236 127.9656,318.9779 126.871,319.1402 125.7975,319.4091"/>
    <polygon points="111.7231,312.9357 112.1427,312.7373 112.5797,312.5809 113.03,312.4681 113.4891,312.4 113.9528,312.3772 114.4164,312.4 114.8755,312.4681 115.3258,312.5809 115.7628,312.7373 116.1824,312.9357 116.5806,313.1744 116.9534,313.4509 117.2974,313.7626 117.6091,314.1065 117.8856,314.4794 118.1242,314.8775 118.3227,315.2971 118.4791,315.7342 118.5918,316.1844 118.66,316.6436 118.6827,317.1072 118.66,317.5708 118.5918,318.03 118.4791,318.4802 118.3227,318.9173 118.1242,319.3369 117.8856,319.735 117.6091,320.1079 117.2974,320.4518 116.9534,320.7635 116.5806,321.04 116.1824,321.2787 115.7628,321.4771 115.3258,321.6335 114.8755,321.7463 114.4164,321.8144 113.9528,321.8372 113.4891,321.8144 113.03,321.7463 112.5797,321.6335 112.1427,321.4771 111.7231,321.2787 111.3249,321.04 110.9521,320.7635 110.6082,320.4518 110.2964,320.1079 110.0199,319.735 109.7813,319.3369 109.5828,318.9173 109.4265,318.4802 109.3137,318.03 109.2456,317.5708 109.2228,317.1072 109.2456,316.6436 109.3137,316.1844 109.4265,315.7342 109.5828,315.2971 109.7813,314.8775 110.0199,314.4794 110.2964,314.1065 110.6082,313.7626 110.9521,313.4509 111.3249,313.1744"/>
    <polygon points="116.5806,307.9474 116.1824,308.186 115.7628,308.3845 115.3258,308.5408 114.8755,308.6536 114.4164,308.7217 113.9528,308.7445 113.4891,308.7217 113.03,308.6536 112.5797,308.5408 112.1427,308.3845 111.7231,308.186 111.3249,307.9474 110.9521,307.6708 110.6082,307.3591 110.2964,307.0152 110.0199,306.6424 109.7813,306.2442 109.5828,305.8246 109.4265,305.3876 109.3137,304.9373 109.2456,304.4781 109.2228,304.0145 109.2456,303.5509 109.3137,303.0918 109.4265,302.6415 109.5828,302.2044 109.7813,301.7848 110.0199,301.3867 110.2964,301.0139 110.6082,300.6699 110.9521,300.3582 111.3249,300.0817 111.7231,299.8431 112.1427,299.6446 112.5797,299.4882 113.03,299.3754 113.4891,299.3073 113.9528,299.2846 114.4164,299.3073 114.8755,299.3754 115.3258,299.4882 115.7628,299.6446 116.1824,299.8431 116.5806,300.0817 116.9534,300.3582 117.2974,300.6699 117.6091,301.0139 117.8856,301.3867 118.1242,301.7848 118.3227,302.2044 118.4791,302.6415 118.5918,303.0918 118.66,303.5509 118.6827,304.0145 118.66,304.4781 118.5918,304.9373 118.4791,305.3876 118.3227,305.8246 118.1242,306.2442 117.8856,306.6424 117.6091,307.0152 117.2974,307.3591 116.9534,307.6708"/>
    <polygon points="126.2141,292.8291 125.755,292.761 125.2913,292.7382 124.8277,292.761 124.3686,292.8291 123.9183,292.9419 123.4813,293.0983 123.0616,293.2967 122.6635,293.5354 122.2907,293.8119 121.9467,294.1236 121.635,294.4675 121.3585,294.8404 121.1199,295.2385 120.9214,295.6581 120.765,296.0952 120.6523,296.5454 120.5841,297.0046 120.5614,297.4682 120.5841,297.9318 120.6523,298.391 120.765,298.8412 120.9214,299.2783 121.1199,299.6979 121.3585,300.096 121.635,300.4689 121.9467,300.8128 122.2907,301.1245 122.6635,301.401 123.0616,301.6397 123.4813,301.8381 123.9183,301.9945 124.3686,302.1073 124.8277,302.1754 125.2913,302.1982 125.755,302.1754 126.2141,302.1073 126.6644,301.9945 127.1014,301.8381 127.521,301.6397 127.9192,301.401 128.292,301.1245 128.6359,300.8128 128.9477,300.4689 129.2242,300.096 129.4628,299.6979 129.6613,299.2783 129.8176,298.8412 129.9304,298.391 129.9985,297.9318 130.0213,297.4682 129.9985,297.0046 129.9304,296.5454 129.8176,296.0952 129.6613,295.6581 129.4628,295.2385 129.2242,294.8404 128.9477,294.4675 128.6359,294.1236 128.292,293.8119 127.9192,293.5354 127.521,293.2967 127.1014,293.0983 126.6644,292.9419"/>
    <polygon points="139.8616,281.1025 139.4888,282.1445 139.0157,283.1448 138.4468,284.094 137.7876,284.9828 137.0444,285.8027 136.2245,286.5459 135.3356,287.2051 134.3865,287.774 133.3861,288.2471 132.3442,288.6199 131.2708,288.8888 130.1761,289.0512 129.0709,289.1055 127.9656,289.0512 126.871,288.8888 125.7975,288.6199 124.7556,288.2471 123.7553,287.774 122.8061,287.2051 121.9173,286.5459 121.0973,285.8027 120.3542,284.9828 119.695,284.094 119.1261,283.1448 118.6529,282.1445 118.2801,281.1025 118.0112,280.0291 117.8489,278.9345 117.7946,277.8292 117.8489,276.7239 118.0112,275.6293 118.2801,274.5559 118.6529,273.5139 119.1261,272.5136 119.695,271.5644 120.3542,270.6756 121.0973,269.8556 121.9173,269.1125 122.8061,268.4533 123.7553,267.8844 124.7556,267.4112 125.7975,267.0384 126.871,266.7696 127.9656,266.6072 129.0709,266.5529 130.1761,266.6072 131.2708,266.7696 132.3442,267.0384 133.3861,267.4112 134.3865,267.8844 135.3356,268.4533 136.2245,269.1125 137.0444,269.8556 137.7876,270.6756 138.4468,271.5644 139.0157,272.5136 139.4888,273.5139 139.8616,274.5559 140.1305,275.6293 140.2929,276.7239 140.3472,277.8292 140.2929,278.9345 140.1305,280.0291"/>
    <polygon points="170.7945,220.7647 172.8458,219.5353 174.7666,218.1107 176.5386,216.5047 178.1446,214.7327 179.5691,212.8119 180.7986,210.7606 181.8211,208.5988 182.6267,206.3471 183.2078,204.0273 183.5587,201.6618 183.6761,199.2732 183.5587,196.8846 183.2078,194.519 182.6267,192.1993 181.8211,189.9476 180.7986,187.7857 179.5691,185.7345 178.1446,183.8137 176.5386,182.0417 174.7666,180.4357 172.8458,179.0111 170.7945,177.7817 168.6327,176.7592 166.381,175.9535 164.0612,175.3725 161.6957,175.0216 159.3071,174.9042 156.9185,175.0216 154.5529,175.3725 152.2331,175.9535 149.9815,176.7592 147.8196,177.7817 145.7684,179.0111 143.8476,180.4357 142.0756,182.0417 140.4696,183.8137 139.045,185.7345 137.8156,187.7857 136.7931,189.9476 135.9874,192.1993 135.4064,194.519 135.0555,196.8846 134.9381,199.2732 135.0555,201.6618 135.4064,204.0273 135.9874,206.3471 136.7931,208.5988 137.8156,210.7606 139.045,212.8119 140.4696,214.7327 142.0756,216.5047 143.8476,218.1107 145.7684,219.5353 147.8196,220.7647 149.9815,221.7872 152.2331,222.5928 154.5529,223.1739 156.9185,223.5248 159.3071,223.6422 161.6957,223.5248 164.0612,223.1739 166.381,222.5928 168.6327,221.7872"/>
    <polygon points="220.1209,191.9253 221.8929,190.3193 223.4989,188.5474 224.9235,186.6265 226.1529,184.5753 227.1754,182.4135 227.9811,180.1618 228.5621,177.842 228.913,175.4764 229.0304,173.0879 228.913,170.6993 228.5621,168.3337 227.9811,166.0139 227.1754,163.7623 226.1529,161.6004 224.9235,159.5492 223.4989,157.6283 221.8929,155.8564 220.1209,154.2504 218.2001,152.8258 216.1489,151.5963 213.987,150.5739 211.7354,149.7682 209.4156,149.1871 207.05,148.8362 204.6614,148.7189 202.2728,148.8362 199.9073,149.1871 197.5875,149.7682 195.3358,150.5739 193.174,151.5963 191.1227,152.8258 189.2019,154.2504 187.43,155.8564 185.8239,157.6283 184.3994,159.5492 183.1699,161.6004 182.1474,163.7623 181.3418,166.0139 180.7607,168.3337 180.4098,170.6993 180.2924,173.0879 180.4098,175.4764 180.7607,177.842 181.3418,180.1618 182.1474,182.4135 183.1699,184.5753 184.3994,186.6265 185.8239,188.5474 187.43,190.3193 189.2019,191.9253 191.1227,193.3499 193.174,194.5794 195.3358,195.6019 197.5875,196.4075 199.9073,196.9886 202.2728,197.3395 204.6614,197.4568 207.05,197.3395 209.4156,196.9886 211.7354,196.4075 213.987,195.6019 216.1489,194.5794 218.2001,193.3499"/>
    <polygon points="240.2568,171.0548 241.3514,171.2172 242.4567,171.2715 243.562,171.2172 244.6566,171.0548 245.73,170.7859 246.7719,170.4131 247.7723,169.94 248.7215,169.3711 249.6103,168.7119 250.4302,167.9687 251.1734,167.1488 251.8326,166.26 252.4015,165.3108 252.8746,164.3104 253.2474,163.2685 253.5163,162.1951 253.6787,161.1005 253.733,159.9952 253.6787,158.8899 253.5163,157.7953 253.2474,156.7218 252.8746,155.6799 252.4015,154.6796 251.8326,153.7304 251.1734,152.8416 250.4302,152.0216 249.6103,151.2785 248.7215,150.6193 247.7723,150.0504 246.7719,149.5772 245.73,149.2044 244.6566,148.9356 243.562,148.7732 242.4567,148.7189 241.3514,148.7732 240.2568,148.9356 239.1834,149.2044 238.1414,149.5772 237.1411,150.0504 236.1919,150.6193 235.3031,151.2785 234.4831,152.0216 233.74,152.8416 233.0808,153.7304 232.5119,154.6796 232.0387,155.6799 231.6659,156.7218 231.3971,157.7953 231.2347,158.8899 231.1804,159.9952 231.2347,161.1005 231.3971,162.1951 231.6659,163.2685 232.0387,164.3104 232.5119,165.3108 233.0808,166.26 233.74,167.1488 234.4831,167.9687 235.3031,168.7119 236.1919,169.3711 237.1411,169.94 238.1414,170.4131 239.1834,170.7859"/>
    <polygon points="263.1644,175.2643 263.584,175.4627 263.9822,175.7014 264.355,175.9779 264.6989,176.2896 265.0106,176.6335 265.2872,177.0064 265.5258,177.4045 265.7243,177.8241 265.8806,178.2612 265.9934,178.7114 266.0615,179.1706 266.0843,179.6342 266.0615,180.0978 265.9934,180.557 265.8806,181.0072 265.7243,181.4443 265.5258,181.8639 265.2872,182.262 265.0106,182.6349 264.6989,182.9788 264.355,183.2905 263.9822,183.567 263.584,183.8057 263.1644,184.0041 262.7274,184.1605 262.2771,184.2733 261.8179,184.3414 261.3543,184.3642 260.8907,184.3414 260.4316,184.2733 259.9813,184.1605 259.5442,184.0041 259.1246,183.8057 258.7265,183.567 258.3537,183.2905 258.0097,182.9788 257.698,182.6349 257.4215,182.262 257.1829,181.8639 256.9844,181.4443 256.828,181.0072 256.7152,180.557 256.6471,180.0978 256.6244,179.6342 256.6471,179.1706 256.7152,178.7114 256.828,178.2612 256.9844,177.8241 257.1829,177.4045 257.4215,177.0064 257.698,176.6335 258.0097,176.2896 258.3537,175.9779 258.7265,175.7014 259.1246,175.4627 259.5442,175.2643 259.9813,175.1079 260.4316,174.9951 260.8907,174.927 261.3543,174.9042 261.8179,174.927 262.2771,174.9951 262.7274,175.1079"/>
    <polygon points="259.9813,171.0678 259.5442,170.9114 259.1246,170.713 258.7265,170.4743 258.3537,170.1978 258.0097,169.8861 257.698,169.5422 257.4215,169.1694 257.1829,168.7712 256.9844,168.3516 256.828,167.9146 256.7152,167.4643 256.6471,167.0051 256.6244,166.5415 256.6471,166.0779 256.7152,165.6187 256.828,165.1685 256.9844,164.7314 257.1829,164.3118 257.4215,163.9137 257.698,163.5409 258.0097,163.1969 258.3537,162.8852 258.7265,162.6087 259.1246,162.3701 259.5442,162.1716 259.9813,162.0152 260.4316,161.9024 260.8907,161.8343 261.3543,161.8115 261.8179,161.8343 262.2771,161.9024 262.7274,162.0152 263.1644,162.1716 263.584,162.3701 263.9822,162.6087 264.355,162.8852 264.6989,163.1969 265.0106,163.5409 265.2872,163.9137 265.5258,164.3118 265.7243,164.7314 265.8806,165.1685 265.9934,165.6187 266.0615,166.0779 266.0843,166.5415 266.0615,167.0051 265.9934,167.4643 265.8806,167.9146 265.7243,168.3516 265.5258,168.7712 265.2872,169.1694 265.0106,169.5422 264.6989,169.8861 264.355,170.1978 263.9822,170.4743 263.584,170.713 263.1644,170.9114 262.7274,171.0678 262.2771,171.1806 261.8179,171.2487 261.3543,171.2715 260.8907,171.2487 260.4316,171.1806"/>
    <polygon points="265.0106,150.4482 264.6989,150.1043 264.355,149.7925 263.9822,149.516 263.584,149.2774 263.1644,149.0789 262.7274,148.9226 262.2771,148.8098 261.8179,148.7417 261.3543,148.7189 260.8907,148.7417 260.4316,148.8098 259.9813,148.9226 259.5442,149.0789 259.1246,149.2774 258.7265,149.516 258.3537,149.7925 258.0097,150.1043 257.698,150.4482 257.4215,150.821 257.1829,151.2192 256.9844,151.6388 256.828,152.0758 256.7152,152.5261 256.6471,152.9852 256.6244,153.4489 256.6471,153.9125 256.7152,154.3716 256.828,154.8219 256.9844,155.2589 257.1829,155.6785 257.4215,156.0767 257.698,156.4495 258.0097,156.7934 258.3537,157.1052 258.7265,157.3817 259.1246,157.6203 259.5442,157.8188 259.9813,157.9752 260.4316,158.0879 260.8907,158.1561 261.3543,158.1788 261.8179,158.1561 262.2771,158.0879 262.7274,157.9752 263.1644,157.8188 263.584,157.6203 263.9822,157.3817 264.355,157.1052 264.6989,156.7934 265.0106,156.4495 265.2872,156.0767 265.5258,155.6785 265.7243,155.2589 265.8806,154.8219 265.9934,154.3716 266.0615,153.9125 266.0843,153.4489 266.0615,152.9852 265.9934,152.5261 265.8806,152.0758 265.7243,151.6388 265.5258,151.2192 265.2872,150.821"/>
    <polygon points="254.1872,131.5802 253.9486,131.182 253.6721,130.8092 253.3603,130.4653 253.0164,130.1535 252.6436,129.877 252.2454,129.6384 251.8258,129.4399 251.3888,129.2836 250.9385,129.1708 250.4794,129.1027 250.0157,129.0799 249.5521,129.1027 249.093,129.1708 248.6427,129.2836 248.2057,129.4399 247.7861,129.6384 247.3879,129.877 247.0151,130.1535 246.6712,130.4653 246.3594,130.8092 246.0829,131.182 245.8443,131.5802 245.6458,131.9998 245.4894,132.4368 245.3767,132.8871 245.3086,133.3462 245.2858,133.8099 245.3086,134.2735 245.3767,134.7326 245.4894,135.1829 245.6458,135.6199 245.8443,136.0395 246.0829,136.4377 246.3594,136.8105 246.6712,137.1544 247.0151,137.4662 247.3879,137.7427 247.7861,137.9813 248.2057,138.1798 248.6427,138.3362 249.093,138.4489 249.5521,138.517 250.0157,138.5398 250.4794,138.517 250.9385,138.4489 251.3888,138.3362 251.8258,138.1798 252.2454,137.9813 252.6436,137.7427 253.0164,137.4662 253.3603,137.1544 253.6721,136.8105 253.9486,136.4377 254.1872,136.0395 254.3857,135.6199 254.542,135.1829 254.6548,134.7326 254.7229,134.2735 254.7457,133.8099 254.7229,133.3462 254.6548,132.8871 254.542,132.4368 254.3857,131.9998"/>
    <polygon points="243.3163,141.279 243.3844,140.8198 243.4071,140.3562 243.3844,139.8926 243.3163,139.4334 243.2035,138.9831 243.0471,138.5461 242.8486,138.1265 242.61,137.7284 242.3335,137.3555 242.0218,137.0116 241.6778,136.6999 241.305,136.4234 240.9069,136.1847 240.4872,135.9863 240.0502,135.8299 239.5999,135.7171 239.1408,135.649 238.6772,135.6262 238.2135,135.649 237.7544,135.7171 237.3041,135.8299 236.8671,135.9863 236.4475,136.1847 236.0493,136.4234 235.6765,136.6999 235.3326,137.0116 235.0208,137.3555 234.7443,137.7284 234.5057,138.1265 234.3072,138.5461 234.1509,138.9831 234.0381,139.4334 233.97,139.8926 233.9472,140.3562 233.97,140.8198 234.0381,141.279 234.1509,141.7292 234.3072,142.1663 234.5057,142.5859 234.7443,142.984 235.0208,143.3568 235.3326,143.7008 235.6765,144.0125 236.0493,144.289 236.4475,144.5276 236.8671,144.7261 237.3041,144.8825 237.7544,144.9953 238.2135,145.0634 238.6772,145.0862 239.1408,145.0634 239.5999,144.9953 240.0502,144.8825 240.4872,144.7261 240.9069,144.5276 241.305,144.289 241.6778,144.0125 242.0218,143.7008 242.3335,143.3568 242.61,142.984 242.8486,142.5859 243.0471,142.1663 243.2035,141.7292"/>
    <polygon points="152.6757,140.8198 152.6985,140.3562 152.6757,139.8926 152.6076,139.4334 152.4948,138.9831 152.3384,138.5461 152.14,138.1265 151.9013,137.7284 151.6248,137.3555 151.3131,137.0116 150.9692,136.6999 150.5963,136.4234 150.1982,136.1847 149.7786,135.9863 149.3415,135.8299 148.8913,135.7171 148.4321,135.649 147.9685,135.6262 147.5049,135.649 147.0457,135.7171 146.5955,135.8299 146.1584,135.9863 145.7388,136.1847 145.3407,136.4234 144.9678,136.6999 144.6239,137.0116 144.3122,137.3555 144.0357,137.7284 143.797,138.1265 143.5986,138.5461 143.4422,138.9831 143.3294,139.4334 143.2613,139.8926 143.2385,140.3562 143.2613,140.8198 143.3294,141.279 143.4422,141.7292 143.5986,142.1663 143.797,142.5859 144.0357,142.984 144.3122,143.3568 144.6239,143.7008 144.9678,144.0125 145.3407,144.289 145.7388,144.5276 146.1584,144.7261 146.5955,144.8825 147.0457,144.9953 147.5049,145.0634 147.9685,145.0862 148.4321,145.0634 148.8913,144.9953 149.3415,144.8825 149.7786,144.7261 150.1982,144.5276 150.5963,144.289 150.9692,144.0125 151.3131,143.7008 151.6248,143.3568 151.9013,142.984 152.14,142.5859 152.3384,142.1663 152.4948,141.7292 152.6076,141.279"/>
    <polygon points="135.7071,138.4489 135.2569,138.3362 134.8198,138.1798 134.4002,137.9813 134.0021,137.7427 133.6293,137.4662 133.2853,137.1544 132.9736,136.8105 132.6971,136.4377 132.4585,136.0395 132.26,135.6199 132.1036,135.1829 131.9908,134.7326 131.9227,134.2735 131.8999,133.8099 131.9227,133.3462 131.9908,132.8871 132.1036,132.4368 132.26,131.9998 132.4585,131.5802 132.6971,131.182 132.9736,130.8092 133.2853,130.4653 133.6293,130.1535 134.0021,129.877 134.4002,129.6384 134.8198,129.4399 135.2569,129.2836 135.7071,129.1708 136.1663,129.1027 136.6299,129.0799 137.0935,129.1027 137.5527,129.1708 138.003,129.2836 138.44,129.4399 138.8596,129.6384 139.2578,129.877 139.6306,130.1535 139.9745,130.4653 140.2862,130.8092 140.5627,131.182 140.8014,131.5802 140.9998,131.9998 141.1562,132.4368 141.269,132.8871 141.3371,133.3462 141.3599,133.8099 141.3371,134.2735 141.269,134.7326 141.1562,135.1829 140.9998,135.6199 140.8014,136.0395 140.5627,136.4377 140.2862,136.8105 139.9745,137.1544 139.6306,137.4662 139.2578,137.7427 138.8596,137.9813 138.44,138.1798 138.003,138.3362 137.5527,138.4489 137.0935,138.517 136.6299,138.5398 136.1663,138.517"/>
    <polygon points="148.4747,149.2044 149.5481,148.9356 150.6428,148.7732 151.748,148.7189 152.8533,148.7732 153.9479,148.9356 155.0214,149.2044 156.0633,149.5772 157.0636,150.0504 158.0128,150.6193 158.9016,151.2785 159.7216,152.0216 160.4647,152.8416 161.1239,153.7304 161.6928,154.6796 162.166,155.6799 162.5388,156.7218 162.8077,157.7953 162.97,158.8899 163.0243,159.9952 162.97,161.1005 162.8077,162.1951 162.5388,163.2685 162.166,164.3104 161.6928,165.3108 161.1239,166.26 160.4647,167.1488 159.7216,167.9687 158.9016,168.7119 158.0128,169.3711 157.0636,169.94 156.0633,170.4131 155.0214,170.7859 153.9479,171.0548 152.8533,171.2172 151.748,171.2715 150.6428,171.2172 149.5481,171.0548 148.4747,170.7859 147.4328,170.4131 146.4324,169.94 145.4833,169.3711 144.5944,168.7119 143.7745,167.9687 143.0313,167.1488 142.3721,166.26 141.8032,165.3108 141.3301,164.3104 140.9573,163.2685 140.6884,162.1951 140.526,161.1005 140.4717,159.9952 140.526,158.8899 140.6884,157.7953 140.9573,156.7218 141.3301,155.6799 141.8032,154.6796 142.3721,153.7304 143.0313,152.8416 143.7745,152.0216 144.5944,151.2785 145.4833,150.6193 146.4324,150.0504 147.4328,149.5772"/>
    <polygon points="129.8176,230.6318 129.9304,231.0821 129.9985,231.5412 130.0213,232.0049 129.9985,232.4685 129.9304,232.9276 129.8176,233.3779 129.6613,233.8149 129.4628,234.2346 129.2242,234.6327 128.9477,235.0055 128.6359,235.3495 128.292,235.6612 127.9192,235.9377 127.521,236.1763 127.1014,236.3748 126.6644,236.5312 126.2141,236.6439 125.755,236.7121 125.2913,236.7348 124.8277,236.7121 124.3686,236.6439 123.9183,236.5312 123.4813,236.3748 123.0616,236.1763 122.6635,235.9377 122.2907,235.6612 121.9467,235.3495 121.635,235.0055 121.3585,234.6327 121.1199,234.2346 120.9214,233.8149 120.765,233.3779 120.6523,232.9276 120.5841,232.4685 120.5614,232.0049 120.5841,231.5412 120.6523,231.0821 120.765,230.6318 120.9214,230.1948 121.1199,229.7752 121.3585,229.377 121.635,229.0042 121.9467,228.6603 122.2907,228.3485 122.6635,228.072 123.0616,227.8334 123.4813,227.6349 123.9183,227.4786 124.3686,227.3658 124.8277,227.2977 125.2913,227.2749 125.755,227.2977 126.2141,227.3658 126.6644,227.4786 127.1014,227.6349 127.521,227.8334 127.9192,228.072 128.292,228.3485 128.6359,228.6603 128.9477,229.0042 129.2242,229.377 129.4628,229.7752 129.6613,230.1948"/>
    <polygon points="139.045,238.1052 140.4696,236.1843 142.0756,234.4124 143.8476,232.8064 145.7684,231.3818 147.8196,230.1523 149.9815,229.1299 152.2331,228.3242 154.5529,227.7431 156.9185,227.3922 159.3071,227.2749 161.6957,227.3922 164.0612,227.7431 166.381,228.3242 168.6327,229.1299 170.7945,230.1523 172.8458,231.3818 174.7666,232.8064 176.5386,234.4124 178.1446,236.1843 179.5691,238.1052 180.7986,240.1564 181.8211,242.3183 182.6267,244.5699 183.2078,246.8897 183.5587,249.2553 183.6761,251.6439 183.5587,254.0324 183.2078,256.398 182.6267,258.7178 181.8211,260.9695 180.7986,263.1313 179.5691,265.1825 178.1446,267.1034 176.5386,268.8753 174.7666,270.4813 172.8458,271.9059 170.7945,273.1354 168.6327,274.1579 166.381,274.9635 164.0612,275.5446 161.6957,275.8955 159.3071,276.0128 156.9185,275.8955 154.5529,275.5446 152.2331,274.9635 149.9815,274.1579 147.8196,273.1354 145.7684,271.9059 143.8476,270.4813 142.0756,268.8753 140.4696,267.1034 139.045,265.1825 137.8156,263.1313 136.7931,260.9695 135.9874,258.7178 135.4064,256.398 135.0555,254.0324 134.9381,251.6439 135.0555,249.2553 135.4064,246.8897 135.9874,244.5699 136.7931,242.3183 137.8156,240.1564"/>
    <polygon points="127.1014,249.4675 126.6644,249.6238 126.2141,249.7366 125.755,249.8047 125.2913,249.8275 124.8277,249.8047 124.3686,249.7366 123.9183,249.6238 123.4813,249.4675 123.0616,249.269 122.6635,249.0304 122.2907,248.7538 121.9467,248.4421 121.635,248.0982 121.3585,247.7254 121.1199,247.3272 120.9214,246.9076 120.765,246.4706 120.6523,246.0203 120.5841,245.5611 120.5614,245.0975 120.5841,244.6339 120.6523,244.1748 120.765,243.7245 120.9214,243.2874 121.1199,242.8678 121.3585,242.4697 121.635,242.0969 121.9467,241.7529 122.2907,241.4412 122.6635,241.1647 123.0616,240.9261 123.4813,240.7276 123.9183,240.5712 124.3686,240.4584 124.8277,240.3903 125.2913,240.3676 125.755,240.3903 126.2141,240.4584 126.6644,240.5712 127.1014,240.7276 127.521,240.9261 127.9192,241.1647 128.292,241.4412 128.6359,241.7529 128.9477,242.0969 129.2242,242.4697 129.4628,242.8678 129.6613,243.2874 129.8176,243.7245 129.9304,244.1748 129.9985,244.6339 130.0213,245.0975 129.9985,245.5611 129.9304,246.0203 129.8176,246.4706 129.6613,246.9076 129.4628,247.3272 129.2242,247.7254 128.9477,248.0982 128.6359,248.4421 128.292,248.7538 127.9192,249.0304 127.521,249.269"/>
    <polygon points="118.4791,253.0169 118.3227,253.4539 118.1242,253.8736 117.8856,254.2717 117.6091,254.6445 117.2974,254.9885 116.9534,255.3002 116.5806,255.5767 116.1824,255.8153 115.7628,256.0138 115.3258,256.1702 114.8755,256.2829 114.4164,256.3511 113.9528,256.3738 113.4891,256.3511 113.03,256.2829 112.5797,256.1702 112.1427,256.0138 111.7231,255.8153 111.3249,255.5767 110.9521,255.3002 110.6082,254.9885 110.2964,254.6445 110.0199,254.2717 109.7813,253.8736 109.5828,253.4539 109.4265,253.0169 109.3137,252.5666 109.2456,252.1075 109.2228,251.6439 109.2456,251.1802 109.3137,250.7211 109.4265,250.2708 109.5828,249.8338 109.7813,249.4142 110.0199,249.016 110.2964,248.6432 110.6082,248.2993 110.9521,247.9875 111.3249,247.711 111.7231,247.4724 112.1427,247.2739 112.5797,247.1176 113.03,247.0048 113.4891,246.9367 113.9528,246.9139 114.4164,246.9367 114.8755,247.0048 115.3258,247.1176 115.7628,247.2739 116.1824,247.4724 116.5806,247.711 116.9534,247.9875 117.2974,248.2993 117.6091,248.6432 117.8856,249.016 118.1242,249.4142 118.3227,249.8338 118.4791,250.2708 118.5918,250.7211 118.66,251.1802 118.6827,251.6439 118.66,252.1075 118.5918,252.5666"/>
    <polygon points="110.6082,268.0811 110.2964,267.7372 110.0199,267.3644 109.7813,266.9662 109.5828,266.5466 109.4265,266.1096 109.3137,265.6593 109.2456,265.2001 109.2228,264.7365 109.2456,264.2729 109.3137,263.8138 109.4265,263.3635 109.5828,262.9264 109.7813,262.5068 110.0199,262.1087 110.2964,261.7359 110.6082,261.3919 110.9521,261.0802 111.3249,260.8037 111.7231,260.5651 112.1427,260.3666 112.5797,260.2102 113.03,260.0974 113.4891,260.0293 113.9528,260.0066 114.4164,260.0293 114.8755,260.0974 115.3258,260.2102 115.7628,260.3666 116.1824,260.5651 116.5806,260.8037 116.9534,261.0802 117.2974,261.3919 117.6091,261.7359 117.8856,262.1087 118.1242,262.5068 118.3227,262.9264 118.4791,263.3635 118.5918,263.8138 118.66,264.2729 118.6827,264.7365 118.66,265.2001 118.5918,265.6593 118.4791,266.1096 118.3227,266.5466 118.1242,266.9662 117.8856,267.3644 117.6091,267.7372 117.2974,268.0811 116.9534,268.3928 116.5806,268.6694 116.1824,268.908 115.7628,269.1065 115.3258,269.2628 114.8755,269.3756 114.4164,269.4437 113.9528,269.4665 113.4891,269.4437 113.03,269.3756 112.5797,269.2628 112.1427,269.1065 111.7231,268.908 111.3249,268.6694 110.9521,268.3928"/>
    <polygon points="101.2411,262.7165 100.8041,262.5601 100.3845,262.3617 99.9863,262.123 99.6135,261.8465 99.2696,261.5348 98.9579,261.1909 98.6813,260.818 98.4427,260.4199 98.2442,260.0003 98.0879,259.5632 97.9751,259.113 97.907,258.6538 97.8842,258.1902 97.907,257.7266 97.9751,257.2674 98.0879,256.8172 98.2442,256.3801 98.4427,255.9605 98.6813,255.5624 98.9579,255.1895 99.2696,254.8456 99.6135,254.5339 99.9863,254.2574 100.3845,254.0187 100.8041,253.8203 101.2411,253.6639 101.6914,253.5511 102.1506,253.483 102.6142,253.4602 103.0778,253.483 103.5369,253.5511 103.9872,253.6639 104.4243,253.8203 104.8439,254.0187 105.242,254.2574 105.6148,254.5339 105.9588,254.8456 106.2705,255.1895 106.547,255.5624 106.7856,255.9605 106.9841,256.3801 107.1405,256.8172 107.2533,257.2674 107.3214,257.7266 107.3441,258.1902 107.3214,258.6538 107.2533,259.113 107.1405,259.5632 106.9841,260.0003 106.7856,260.4199 106.547,260.818 106.2705,261.1909 105.9588,261.5348 105.6148,261.8465 105.242,262.123 104.8439,262.3617 104.4243,262.5601 103.9872,262.7165 103.5369,262.8293 103.0778,262.8974 102.6142,262.9202 102.1506,262.8974 101.6914,262.8293"/>
    <polygon points="98.4427,273.5126 98.2442,273.0929 98.0879,272.6559 97.9751,272.2056 97.907,271.7465 97.8842,271.2829 97.907,270.8192 97.9751,270.3601 98.0879,269.9098 98.2442,269.4728 98.4427,269.0532 98.6813,268.655 98.9579,268.2822 99.2696,267.9383 99.6135,267.6265 99.9863,267.35 100.3845,267.1114 100.8041,266.9129 101.2411,266.7566 101.6914,266.6438 102.1506,266.5757 102.6142,266.5529 103.0778,266.5757 103.5369,266.6438 103.9872,266.7566 104.4243,266.9129 104.8439,267.1114 105.242,267.35 105.6148,267.6265 105.9588,267.9383 106.2705,268.2822 106.547,268.655 106.7856,269.0532 106.9841,269.4728 107.1405,269.9098 107.2533,270.3601 107.3214,270.8192 107.3441,271.2829 107.3214,271.7465 107.2533,272.2056 107.1405,272.6559 106.9841,273.0929 106.7856,273.5126 106.547,273.9107 106.2705,274.2835 105.9588,274.6275 105.6148,274.9392 105.242,275.2157 104.8439,275.4543 104.4243,275.6528 103.9872,275.8092 103.5369,275.9219 103.0778,275.9901 102.6142,276.0128 102.1506,275.9901 101.6914,275.9219 101.2411,275.8092 100.8041,275.6528 100.3845,275.4543 99.9863,275.2157 99.6135,274.9392 99.2696,274.6275 98.9579,274.2835 98.6813,273.9107"/>
    <polygon points="113.9528,286.1919 113.4891,286.2147 113.03,286.2828 112.5797,286.3956 112.1427,286.5519 111.7231,286.7504 111.3249,286.989 110.9521,287.2655 110.6082,287.5773 110.2964,287.9212 110.0199,288.294 109.7813,288.6922 109.5828,289.1118 109.4265,289.5488 109.3137,289.9991 109.2456,290.4582 109.2228,290.9219 109.2456,291.3855 109.3137,291.8446 109.4265,292.2949 109.5828,292.7319 109.7813,293.1516 110.0199,293.5497 110.2964,293.9225 110.6082,294.2665 110.9521,294.5782 111.3249,294.8547 111.7231,295.0933 112.1427,295.2918 112.5797,295.4482 113.03,295.561 113.4891,295.6291 113.9528,295.6518 114.4164,295.6291 114.8755,295.561 115.3258,295.4482 115.7628,295.2918 116.1824,295.0933 116.5806,294.8547 116.9534,294.5782 117.2974,294.2665 117.6091,293.9225 117.8856,293.5497 118.1242,293.1516 118.3227,292.7319 118.4791,292.2949 118.5918,291.8446 118.66,291.3855 118.6827,290.9219 118.66,290.4582 118.5918,289.9991 118.4791,289.5488 118.3227,289.1118 118.1242,288.6922 117.8856,288.294 117.6091,287.9212 117.2974,287.5773 116.9534,287.2655 116.5806,286.989 116.1824,286.7504 115.7628,286.5519 115.3258,286.3956 114.8755,286.2828 114.4164,286.2147"/>
    <polygon points="107.1405,285.7486 107.2533,285.2983 107.3214,284.8391 107.3441,284.3755 107.3214,283.9119 107.2533,283.4528 107.1405,283.0025 106.9841,282.5654 106.7856,282.1458 106.547,281.7477 106.2705,281.3749 105.9588,281.0309 105.6148,280.7192 105.242,280.4427 104.8439,280.2041 104.4243,280.0056 103.9872,279.8492 103.5369,279.7364 103.0778,279.6683 102.6142,279.6456 102.1506,279.6683 101.6914,279.7364 101.2411,279.8492 100.8041,280.0056 100.3845,280.2041 99.9863,280.4427 99.6135,280.7192 99.2696,281.0309 98.9579,281.3749 98.6813,281.7477 98.4427,282.1458 98.2442,282.5654 98.0879,283.0025 97.9751,283.4528 97.907,283.9119 97.8842,284.3755 97.907,284.8391 97.9751,285.2983 98.0879,285.7486 98.2442,286.1856 98.4427,286.6052 98.6813,287.0034 98.9579,287.3762 99.2696,287.7201 99.6135,288.0318 99.9863,288.3084 100.3845,288.547 100.8041,288.7455 101.2411,288.9018 101.6914,289.0146 102.1506,289.0827 102.6142,289.1055 103.0778,289.0827 103.5369,289.0146 103.9872,288.9018 104.4243,288.7455 104.8439,288.547 105.242,288.3084 105.6148,288.0318 105.9588,287.7201 106.2705,287.3762 106.547,287.0034 106.7856,286.6052 106.9841,286.1856"/>
    <polygon points="90.812,295.6291 91.2756,295.6518 91.7392,295.6291 92.1984,295.561 92.6486,295.4482 93.0857,295.2918 93.5053,295.0933 93.9034,294.8547 94.2763,294.5782 94.6202,294.2665 94.9319,293.9225 95.2084,293.5497 95.4471,293.1516 95.6455,292.7319 95.8019,292.2949 95.9147,291.8446 95.9828,291.3855 96.0056,290.9219 95.9828,290.4582 95.9147,289.9991 95.8019,289.5488 95.6455,289.1118 95.4471,288.6922 95.2084,288.294 94.9319,287.9212 94.6202,287.5773 94.2763,287.2655 93.9034,286.989 93.5053,286.7504 93.0857,286.5519 92.6486,286.3956 92.1984,286.2828 91.7392,286.2147 91.2756,286.1919 90.812,286.2147 90.3528,286.2828 89.9026,286.3956 89.4655,286.5519 89.0459,286.7504 88.6478,286.989 88.2749,287.2655 87.931,287.5773 87.6193,287.9212 87.3428,288.294 87.1041,288.6922 86.9057,289.1118 86.7493,289.5488 86.6365,289.9991 86.5684,290.4582 86.5456,290.9219 86.5684,291.3855 86.6365,291.8446 86.7493,292.2949 86.9057,292.7319 87.1041,293.1516 87.3428,293.5497 87.6193,293.9225 87.931,294.2665 88.2749,294.5782 88.6478,294.8547 89.0459,295.0933 89.4655,295.2918 89.9026,295.4482 90.3528,295.561"/>
    <polygon points="98.0879,400.8365 97.9751,401.2868 97.907,401.7459 97.8842,402.2095 97.907,402.6732 97.9751,403.1323 98.0879,403.5826 98.2442,404.0196 98.4427,404.4392 98.6813,404.8374 98.9579,405.2102 99.2696,405.5541 99.6135,405.8659 99.9863,406.1424 100.3845,406.381 100.8041,406.5795 101.2411,406.7358 101.6914,406.8486 102.1506,406.9167 102.6142,406.9395 103.0778,406.9167 103.5369,406.8486 103.9872,406.7358 104.4243,406.5795 104.8439,406.381 105.242,406.1424 105.6148,405.8659 105.9588,405.5541 106.2705,405.2102 106.547,404.8374 106.7856,404.4392 106.9841,404.0196 107.1405,403.5826 107.2533,403.1323 107.3214,402.6732 107.3441,402.2095 107.3214,401.7459 107.2533,401.2868 107.1405,400.8365 106.9841,400.3995 106.7856,399.9798 106.547,399.5817 106.2705,399.2089 105.9588,398.8649 105.6148,398.5532 105.242,398.2767 104.8439,398.0381 104.4243,397.8396 103.9872,397.6832 103.5369,397.5704 103.0778,397.5023 102.6142,397.4796 102.1506,397.5023 101.6914,397.5704 101.2411,397.6832 100.8041,397.8396 100.3845,398.0381 99.9863,398.2767 99.6135,398.5532 99.2696,398.8649 98.9579,399.2089 98.6813,399.5817 98.4427,399.9798 98.2442,400.3995"/>
    <polygon points="116.5806,399.596 116.9534,399.3195 117.2974,399.0078 117.6091,398.6639 117.8856,398.291 118.1242,397.8929 118.3227,397.4733 118.4791,397.0362 118.5918,396.586 118.66,396.1268 118.6827,395.6632 118.66,395.1996 118.5918,394.7404 118.4791,394.2902 118.3227,393.8531 118.1242,393.4335 117.8856,393.0354 117.6091,392.6625 117.2974,392.3186 116.9534,392.0069 116.5806,391.7304 116.1824,391.4917 115.7628,391.2933 115.3258,391.1369 114.8755,391.0241 114.4164,390.956 113.9528,390.9332 113.4891,390.956 113.03,391.0241 112.5797,391.1369 112.1427,391.2933 111.7231,391.4917 111.3249,391.7304 110.9521,392.0069 110.6082,392.3186 110.2964,392.6625 110.0199,393.0354 109.7813,393.4335 109.5828,393.8531 109.4265,394.2902 109.3137,394.7404 109.2456,395.1996 109.2228,395.6632 109.2456,396.1268 109.3137,396.586 109.4265,397.0362 109.5828,397.4733 109.7813,397.8929 110.0199,398.291 110.2964,398.6639 110.6082,399.0078 110.9521,399.3195 111.3249,399.596 111.7231,399.8347 112.1427,400.0331 112.5797,400.1895 113.03,400.3023 113.4891,400.3704 113.9528,400.3932 114.4164,400.3704 114.8755,400.3023 115.3258,400.1895 115.7628,400.0331 116.1824,399.8347"/>
    <polygon points="120.765,403.5826 120.9214,404.0196 121.1199,404.4392 121.3585,404.8374 121.635,405.2102 121.9467,405.5541 122.2907,405.8659 122.6635,406.1424 123.0616,406.381 123.4813,406.5795 123.9183,406.7358 124.3686,406.8486 124.8277,406.9167 125.2913,406.9395 125.755,406.9167 126.2141,406.8486 126.6644,406.7358 127.1014,406.5795 127.521,406.381 127.9192,406.1424 128.292,405.8659 128.6359,405.5541 128.9477,405.2102 129.2242,404.8374 129.4628,404.4392 129.6613,404.0196 129.8176,403.5826 129.9304,403.1323 129.9985,402.6732 130.0213,402.2095 129.9985,401.7459 129.9304,401.2868 129.8176,400.8365 129.6613,400.3995 129.4628,399.9798 129.2242,399.5817 128.9477,399.2089 128.6359,398.8649 128.292,398.5532 127.9192,398.2767 127.521,398.0381 127.1014,397.8396 126.6644,397.6832 126.2141,397.5704 125.755,397.5023 125.2913,397.4796 124.8277,397.5023 124.3686,397.5704 123.9183,397.6832 123.4813,397.8396 123.0616,398.0381 122.6635,398.2767 122.2907,398.5532 121.9467,398.8649 121.635,399.2089 121.3585,399.5817 121.1199,399.9798 120.9214,400.3995 120.765,400.8365 120.6523,401.2868 120.5841,401.7459 120.5614,402.2095 120.5841,402.6732 120.6523,403.1323"/>
    <polygon points="135.3356,391.9464 136.2245,391.2872 137.0444,390.5441 137.7876,389.7241 138.4468,388.8353 139.0157,387.8861 139.4888,386.8858 139.8616,385.8439 140.1305,384.7704 140.2929,383.6758 140.3472,382.5705 140.2929,381.4653 140.1305,380.3706 139.8616,379.2972 139.4888,378.2553 139.0157,377.2549 138.4468,376.3058 137.7876,375.4169 137.0444,374.597 136.2245,373.8538 135.3356,373.1946 134.3865,372.6257 133.3861,372.1526 132.3442,371.7798 131.2708,371.5109 130.1761,371.3485 129.0709,371.2942 127.9656,371.3485 126.871,371.5109 125.7975,371.7798 124.7556,372.1526 123.7553,372.6257 122.8061,373.1946 121.9173,373.8538 121.0973,374.597 120.3542,375.4169 119.695,376.3058 119.1261,377.2549 118.6529,378.2553 118.2801,379.2972 118.0112,380.3706 117.8489,381.4653 117.7946,382.5705 117.8489,383.6758 118.0112,384.7704 118.2801,385.8439 118.6529,386.8858 119.1261,387.8861 119.695,388.8353 120.3542,389.7241 121.0973,390.5441 121.9173,391.2872 122.8061,391.9464 123.7553,392.5153 124.7556,392.9885 125.7975,393.3613 126.871,393.6302 127.9656,393.7925 129.0709,393.8468 130.1761,393.7925 131.2708,393.6302 132.3442,393.3613 133.3861,392.9885 134.3865,392.5153"/>
    <polygon points="132.6971,411.3837 132.4585,410.9856 132.26,410.566 132.1036,410.1289 131.9908,409.6786 131.9227,409.2195 131.8999,408.7559 131.9227,408.2923 131.9908,407.8331 132.1036,407.3828 132.26,406.9458 132.4585,406.5262 132.6971,406.128 132.9736,405.7552 133.2853,405.4113 133.6293,405.0996 134.0021,404.823 134.4002,404.5844 134.8198,404.3859 135.2569,404.2296 135.7071,404.1168 136.1663,404.0487 136.6299,404.0259 137.0935,404.0487 137.5527,404.1168 138.003,404.2296 138.44,404.3859 138.8596,404.5844 139.2578,404.823 139.6306,405.0996 139.9745,405.4113 140.2862,405.7552 140.5627,406.128 140.8014,406.5262 140.9998,406.9458 141.1562,407.3828 141.269,407.8331 141.3371,408.2923 141.3599,408.7559 141.3371,409.2195 141.269,409.6786 141.1562,410.1289 140.9998,410.566 140.8014,410.9856 140.5627,411.3837 140.2862,411.7565 139.9745,412.1005 139.6306,412.4122 139.2578,412.6887 138.8596,412.9273 138.44,413.1258 138.003,413.2822 137.5527,413.395 137.0935,413.4631 136.6299,413.4858 136.1663,413.4631 135.7071,413.395 135.2569,413.2822 134.8198,413.1258 134.4002,412.9273 134.0021,412.6887 133.6293,412.4122 133.2853,412.1005 132.9736,411.7565"/>
    <polygon points="143.4422,416.6752 143.5986,417.1123 143.797,417.5319 144.0357,417.93 144.3122,418.3029 144.6239,418.6468 144.9678,418.9585 145.3407,419.235 145.7388,419.4737 146.1584,419.6721 146.5955,419.8285 147.0457,419.9413 147.5049,420.0094 147.9685,420.0322 148.4321,420.0094 148.8913,419.9413 149.3415,419.8285 149.7786,419.6721 150.1982,419.4737 150.5963,419.235 150.9692,418.9585 151.3131,418.6468 151.6248,418.3029 151.9013,417.93 152.14,417.5319 152.3384,417.1123 152.4948,416.6752 152.6076,416.225 152.6757,415.7658 152.6985,415.3022 152.6757,414.8386 152.6076,414.3794 152.4948,413.9292 152.3384,413.4921 152.14,413.0725 151.9013,412.6744 151.6248,412.3015 151.3131,411.9576 150.9692,411.6459 150.5963,411.3694 150.1982,411.1307 149.7786,410.9323 149.3415,410.7759 148.8913,410.6631 148.4321,410.595 147.9685,410.5722 147.5049,410.595 147.0457,410.6631 146.5955,410.7759 146.1584,410.9323 145.7388,411.1307 145.3407,411.3694 144.9678,411.6459 144.6239,411.9576 144.3122,412.3015 144.0357,412.6744 143.797,413.0725 143.5986,413.4921 143.4422,413.9292 143.3294,414.3794 143.2613,414.8386 143.2385,415.3022 143.2613,415.7658 143.3294,416.225"/>
    <polygon points="145.3407,432.3277 145.7388,432.5663 146.1584,432.7648 146.5955,432.9212 147.0457,433.034 147.5049,433.1021 147.9685,433.1248 148.4321,433.1021 148.8913,433.034 149.3415,432.9212 149.7786,432.7648 150.1982,432.5663 150.5963,432.3277 150.9692,432.0512 151.3131,431.7395 151.6248,431.3955 151.9013,431.0227 152.14,430.6246 152.3384,430.205 152.4948,429.7679 152.6076,429.3176 152.6757,428.8585 152.6985,428.3949 152.6757,427.9313 152.6076,427.4721 152.4948,427.0218 152.3384,426.5848 152.14,426.1652 151.9013,425.767 151.6248,425.3942 151.3131,425.0503 150.9692,424.7386 150.5963,424.462 150.1982,424.2234 149.7786,424.0249 149.3415,423.8686 148.8913,423.7558 148.4321,423.6877 147.9685,423.6649 147.5049,423.6877 147.0457,423.7558 146.5955,423.8686 146.1584,424.0249 145.7388,424.2234 145.3407,424.462 144.9678,424.7386 144.6239,425.0503 144.3122,425.3942 144.0357,425.767 143.797,426.1652 143.5986,426.5848 143.4422,427.0218 143.3294,427.4721 143.2613,427.9313 143.2385,428.3949 143.2613,428.8585 143.3294,429.3176 143.4422,429.7679 143.5986,430.205 143.797,430.6246 144.0357,431.0227 144.3122,431.3955 144.6239,431.7395 144.9678,432.0512"/>
  </g>
</svg>
