<?xml version="1.0" encoding="utf-8" ?>
<svg xmlns="http://www.w3.org/2000/svg" xmlns:cc="http://creativecommons.org/ns" xmlns:dc="http://purl.org/dc/elements/1.1/" xmlns:ev="http://www.w3.org/2001/xml-events" xmlns:inkscape="http://www.inkscape.org/namespaces/inkscape" xmlns:rdf="http://www.w3.org/1999/02/22-rdf-syntax-ns" xmlns:sodipodi="http://sodipodi.sourceforge.net/DTD/sodipodi-0.dtd" xmlns:xlink="http://www.w3.org/1999/xlink" baseProfile="tiny" height="15.875cm" version="1.2" viewBox="0 0 432.0 600.0" width="11.43cm">
  <metadata>
    <rdf:RDF>
      <cc:Work>
        <dc:format>image/svg+xml</dc:format>
        <dc:source>vsk save -s 174 -c hex-grid/config/bubble-coasters-2.json /Users/tobin/src/fabian/plotting/fabian-plotting/hex-grid/sketch_hex_grid.py</dc:source>
        <dc:date>2023-11-04T10:32:59.683052</dc:date>
      </cc:Work>
    </rdf:RDF>
  </metadata>
  <defs/>
  <g fill="none" id="layer1" inkscape:groupmode="layer" inkscape:label="1" stroke="#000000" stroke-width="0.7559" style="display:inline">
    <polygon points="169.8612,217.5097 170.9558,217.6721 172.0292,217.9409 173.0712,218.3137 174.0715,218.7869 175.0207,219.3558 175.9095,220.015 176.7295,220.7581 177.4726,221.5781 178.1318,222.4669 178.7007,223.4161 179.1739,224.4164 179.5467,225.4584 179.8155,226.5318 179.9779,227.6264 180.0322,228.7317 179.9779,229.837 179.8155,230.9316 179.5467,232.005 179.1739,233.0469 178.7007,234.0473 178.1318,234.9965 177.4726,235.8853 176.7295,236.7052 175.9095,237.4484 175.0207,238.1076 174.0715,238.6765 173.0712,239.1496 172.0292,239.5224 170.9558,239.7913 169.8612,239.9537 168.7559,240.008 167.6506,239.9537 166.556,239.7913 165.4826,239.5224 164.4406,239.1496 163.4403,238.6765 162.4911,238.1076 161.6023,237.4484 160.7824,236.7052 160.0392,235.8853 159.38,234.9965 158.8111,234.0473 158.338,233.0469 157.9652,232.005 157.6963,230.9316 157.5339,229.837 157.4796,228.7317 157.5339,227.6264 157.6963,226.5318 157.9652,225.4584 158.338,224.4164 158.8111,223.4161 159.38,222.4669 160.0392,221.5781 160.7824,220.7581 161.6023,220.015 162.4911,219.3558 163.4403,218.7869 164.4406,218.3137 165.4826,217.9409 166.556,217.6721 167.6506,217.5097 168.7559,217.4554"/>
    <polygon points="157.8093,213.4093 158.0077,213.8289 158.1641,214.266 158.2769,214.7163 158.345,215.1754 158.3678,215.639 158.345,216.1026 158.2769,216.5618 158.1641,217.0121 158.0077,217.4491 157.8093,217.8687 157.5706,218.2669 157.2941,218.6397 156.9824,218.9836 156.6385,219.2953 156.2656,219.5719 155.8675,219.8105 155.4479,220.0089 155.0108,220.1653 154.5606,220.2781 154.1014,220.3462 153.6378,220.369 153.1742,220.3462 152.715,220.2781 152.2648,220.1653 151.8277,220.0089 151.4081,219.8105 151.01,219.5719 150.6371,219.2953 150.2932,218.9836 149.9815,218.6397 149.705,218.2669 149.4663,217.8687 149.2679,217.4491 149.1115,217.0121 148.9987,216.5618 148.9306,216.1026 148.9078,215.639 148.9306,215.1754 148.9987,214.7163 149.1115,214.266 149.2679,213.8289 149.4663,213.4093 149.705,213.0112 149.9815,212.6384 150.2932,212.2944 150.6371,211.9827 151.01,211.7062 151.4081,211.4676 151.8277,211.2691 152.2648,211.1127 152.715,210.9999 153.1742,210.9318 153.6378,210.9091 154.1014,210.9318 154.5606,210.9999 155.0108,211.1127 155.4479,211.2691 155.8675,211.4676 156.2656,211.7062 156.6385,211.9827 156.9824,212.2944 157.2941,212.6384 157.5706,213.0112"/>
    <polygon points="164.9764,204.3627 165.44,204.3855 165.8991,204.4536 166.3494,204.5664 166.7865,204.7228 167.2061,204.9212 167.6042,205.1599 167.977,205.4364 168.321,205.7481 168.6327,206.092 168.9092,206.4649 169.1478,206.863 169.3463,207.2826 169.5027,207.7197 169.6155,208.1699 169.6836,208.6291 169.7064,209.0927 169.6836,209.5563 169.6155,210.0155 169.5027,210.4657 169.3463,210.9028 169.1478,211.3224 168.9092,211.7205 168.6327,212.0934 168.321,212.4373 167.977,212.749 167.6042,213.0255 167.2061,213.2642 166.7865,213.4626 166.3494,213.619 165.8991,213.7318 165.44,213.7999 164.9764,213.8227 164.5128,213.7999 164.0536,213.7318 163.6033,213.619 163.1663,213.4626 162.7467,213.2642 162.3485,213.0255 161.9757,212.749 161.6318,212.4373 161.3201,212.0934 161.0435,211.7205 160.8049,211.3224 160.6065,210.9028 160.4501,210.4657 160.3373,210.0155 160.2692,209.5563 160.2464,209.0927 160.2692,208.6291 160.3373,208.1699 160.4501,207.7197 160.6065,207.2826 160.8049,206.863 161.0435,206.4649 161.3201,206.092 161.6318,205.7481 161.9757,205.4364 162.3485,205.1599 162.7467,204.9212 163.1663,204.7228 163.6033,204.5664 164.0536,204.4536 164.5128,204.3855"/>
    <polygon points="183.2836,184.7174 183.1272,184.2804 183.0145,183.8301 182.9463,183.371 182.9236,182.9074 182.9463,182.4437 183.0145,181.9846 183.1272,181.5343 183.2836,181.0973 183.4821,180.6777 183.7207,180.2795 183.9972,179.9067 184.3089,179.5628 184.6529,179.251 185.0257,178.9745 185.4238,178.7359 185.8435,178.5374 186.2805,178.3811 186.7308,178.2683 187.1899,178.2002 187.6535,178.1774 188.1172,178.2002 188.5763,178.2683 189.0266,178.3811 189.4636,178.5374 189.8832,178.7359 190.2814,178.9745 190.6542,179.251 190.9981,179.5628 191.3099,179.9067 191.5864,180.2795 191.825,180.6777 192.0235,181.0973 192.1798,181.5343 192.2926,181.9846 192.3607,182.4437 192.3835,182.9074 192.3607,183.371 192.2926,183.8301 192.1798,184.2804 192.0235,184.7174 191.825,185.137 191.5864,185.5352 191.3099,185.908 190.9981,186.252 190.6542,186.5637 190.2814,186.8402 189.8832,187.0788 189.4636,187.2773 189.0266,187.4337 188.5763,187.5464 188.1172,187.6146 187.6535,187.6373 187.1899,187.6146 186.7308,187.5464 186.2805,187.4337 185.8435,187.2773 185.4238,187.0788 185.0257,186.8402 184.6529,186.5637 184.3089,186.252 183.9972,185.908 183.7207,185.5352 183.4821,185.137"/>
    <polygon points="182.9463,196.4636 182.9236,196.0 182.9463,195.5364 183.0145,195.0773 183.1272,194.627 183.2836,194.1899 183.4821,193.7703 183.7207,193.3722 183.9972,192.9994 184.3089,192.6554 184.6529,192.3437 185.0257,192.0672 185.4238,191.8286 185.8435,191.6301 186.2805,191.4737 186.7308,191.3609 187.1899,191.2928 187.6535,191.2701 188.1172,191.2928 188.5763,191.3609 189.0266,191.4737 189.4636,191.6301 189.8832,191.8286 190.2814,192.0672 190.6542,192.3437 190.9981,192.6554 191.3099,192.9994 191.5864,193.3722 191.825,193.7703 192.0235,194.1899 192.1798,194.627 192.2926,195.0773 192.3607,195.5364 192.3835,196.0 192.3607,196.4636 192.2926,196.9228 192.1798,197.3731 192.0235,197.8101 191.825,198.2297 191.5864,198.6279 191.3099,199.0007 190.9981,199.3446 190.6542,199.6563 190.2814,199.9329 189.8832,200.1715 189.4636,200.3699 189.0266,200.5263 188.5763,200.6391 188.1172,200.7072 187.6535,200.73 187.1899,200.7072 186.7308,200.6391 186.2805,200.5263 185.8435,200.3699 185.4238,200.1715 185.0257,199.9329 184.6529,199.6563 184.3089,199.3446 183.9972,199.0007 183.7207,198.6279 183.4821,198.2297 183.2836,197.8101 183.1272,197.3731 183.0145,196.9228"/>
    <polygon points="180.2478,199.9185 180.4864,200.3167 180.6849,200.7363 180.8413,201.1733 180.954,201.6236 181.0222,202.0827 181.0449,202.5464 181.0222,203.01 180.954,203.4691 180.8413,203.9194 180.6849,204.3564 180.4864,204.7761 180.2478,205.1742 179.9713,205.547 179.6596,205.891 179.3156,206.2027 178.9428,206.4792 178.5447,206.7178 178.125,206.9163 177.688,207.0727 177.2377,207.1854 176.7786,207.2536 176.315,207.2763 175.8513,207.2536 175.3922,207.1854 174.9419,207.0727 174.5049,206.9163 174.0853,206.7178 173.6871,206.4792 173.3143,206.2027 172.9704,205.891 172.6586,205.547 172.3821,205.1742 172.1435,204.7761 171.945,204.3564 171.7887,203.9194 171.6759,203.4691 171.6078,203.01 171.585,202.5464 171.6078,202.0827 171.6759,201.6236 171.7887,201.1733 171.945,200.7363 172.1435,200.3167 172.3821,199.9185 172.6586,199.5457 172.9704,199.2018 173.3143,198.89 173.6871,198.6135 174.0853,198.3749 174.5049,198.1764 174.9419,198.0201 175.3922,197.9073 175.8513,197.8392 176.315,197.8164 176.7786,197.8392 177.2377,197.9073 177.688,198.0201 178.125,198.1764 178.5447,198.3749 178.9428,198.6135 179.3156,198.89 179.6596,199.2018 179.9713,199.5457"/>
    <polygon points="181.0151,211.3238 181.4883,210.3234 182.0572,209.3742 182.7164,208.4854 183.4595,207.6655 184.2795,206.9223 185.1683,206.2631 186.1175,205.6942 187.1178,205.2211 188.1597,204.8483 189.2332,204.5794 190.3278,204.417 191.4331,204.3627 192.5383,204.417 193.633,204.5794 194.7064,204.8483 195.7483,205.2211 196.7487,205.6942 197.6979,206.2631 198.5867,206.9223 199.4066,207.6655 200.1498,208.4854 200.809,209.3742 201.3779,210.3234 201.851,211.3238 202.2238,212.3657 202.4927,213.4391 202.6551,214.5338 202.7094,215.639 202.6551,216.7443 202.4927,217.8389 202.2238,218.9124 201.851,219.9543 201.3779,220.9546 200.809,221.9038 200.1498,222.7926 199.4066,223.6126 198.5867,224.3557 197.6979,225.0149 196.7487,225.5838 195.7483,226.057 194.7064,226.4298 193.633,226.6987 192.5383,226.861 191.4331,226.9153 190.3278,226.861 189.2332,226.6987 188.1597,226.4298 187.1178,226.057 186.1175,225.5838 185.1683,225.0149 184.2795,224.3557 183.4595,223.6126 182.7164,222.7926 182.0572,221.9038 181.4883,220.9546 181.0151,219.9543 180.6423,218.9124 180.3734,217.8389 180.2111,216.7443 180.1568,215.639 180.2111,214.5338 180.3734,213.4391 180.6423,212.3657"/>
    <polygon points="210.3307,213.8227 209.8671,213.7999 209.4079,213.7318 208.9577,213.619 208.5206,213.4626 208.101,213.2642 207.7029,213.0255 207.33,212.749 206.9861,212.4373 206.6744,212.0934 206.3979,211.7205 206.1592,211.3224 205.9608,210.9028 205.8044,210.4657 205.6916,210.0155 205.6235,209.5563 205.6007,209.0927 205.6235,208.6291 205.6916,208.1699 205.8044,207.7197 205.9608,207.2826 206.1592,206.863 206.3979,206.4649 206.6744,206.092 206.9861,205.7481 207.33,205.4364 207.7029,205.1599 208.101,204.9212 208.5206,204.7228 208.9577,204.5664 209.4079,204.4536 209.8671,204.3855 210.3307,204.3627 210.7943,204.3855 211.2535,204.4536 211.7037,204.5664 212.1408,204.7228 212.5604,204.9212 212.9585,205.1599 213.3314,205.4364 213.6753,205.7481 213.987,206.092 214.2635,206.4649 214.5022,206.863 214.7006,207.2826 214.857,207.7197 214.9698,208.1699 215.0379,208.6291 215.0607,209.0927 215.0379,209.5563 214.9698,210.0155 214.857,210.4657 214.7006,210.9028 214.5022,211.3224 214.2635,211.7205 213.987,212.0934 213.6753,212.4373 213.3314,212.749 212.9585,213.0255 212.5604,213.2642 212.1408,213.4626 211.7037,213.619 211.2535,213.7318 210.7943,213.7999"/>
    <polygon points="231.1978,191.6301 231.6348,191.4737 232.0851,191.3609 232.5443,191.2928 233.0079,191.2701 233.4715,191.2928 233.9306,191.3609 234.3809,191.4737 234.818,191.6301 235.2376,191.8286 235.6357,192.0672 236.0085,192.3437 236.3525,192.6554 236.6642,192.9994 236.9407,193.3722 237.1793,193.7703 237.3778,194.1899 237.5342,194.627 237.647,195.0773 237.7151,195.5364 237.7378,196.0 237.7151,196.4636 237.647,196.9228 237.5342,197.3731 237.3778,197.8101 237.1793,198.2297 236.9407,198.6279 236.6642,199.0007 236.3525,199.3446 236.0085,199.6563 235.6357,199.9329 235.2376,200.1715 234.818,200.3699 234.3809,200.5263 233.9306,200.6391 233.4715,200.7072 233.0079,200.73 232.5443,200.7072 232.0851,200.6391 231.6348,200.5263 231.1978,200.3699 230.7782,200.1715 230.38,199.9329 230.0072,199.6563 229.6633,199.3446 229.3516,199.0007 229.075,198.6279 228.8364,198.2297 228.6379,197.8101 228.4816,197.3731 228.3688,196.9228 228.3007,196.4636 228.2779,196.0 228.3007,195.5364 228.3688,195.0773 228.4816,194.627 228.6379,194.1899 228.8364,193.7703 229.075,193.3722 229.3516,192.9994 229.6633,192.6554 230.0072,192.3437 230.38,192.0672 230.7782,191.8286"/>
    <polygon points="236.0085,205.4364 236.3525,205.7481 236.6642,206.092 236.9407,206.4649 237.1793,206.863 237.3778,207.2826 237.5342,207.7197 237.647,208.1699 237.7151,208.6291 237.7378,209.0927 237.7151,209.5563 237.647,210.0155 237.5342,210.4657 237.3778,210.9028 237.1793,211.3224 236.9407,211.7205 236.6642,212.0934 236.3525,212.4373 236.0085,212.749 235.6357,213.0255 235.2376,213.2642 234.818,213.4626 234.3809,213.619 233.9306,213.7318 233.4715,213.7999 233.0079,213.8227 232.5443,213.7999 232.0851,213.7318 231.6348,213.619 231.1978,213.4626 230.7782,213.2642 230.38,213.0255 230.0072,212.749 229.6633,212.4373 229.3516,212.0934 229.075,211.7205 228.8364,211.3224 228.6379,210.9028 228.4816,210.4657 228.3688,210.0155 228.3007,209.5563 228.2779,209.0927 228.3007,208.6291 228.3688,208.1699 228.4816,207.7197 228.6379,207.2826 228.8364,206.863 229.075,206.4649 229.3516,206.092 229.6633,205.7481 230.0072,205.4364 230.38,205.1599 230.7782,204.9212 231.1978,204.7228 231.6348,204.5664 232.0851,204.4536 232.5443,204.3855 233.0079,204.3627 233.4715,204.3855 233.9306,204.4536 234.3809,204.5664 234.818,204.7228 235.2376,204.9212 235.6357,205.1599"/>
    <polygon points="237.647,223.1081 237.5342,223.5584 237.3778,223.9954 237.1793,224.4151 236.9407,224.8132 236.6642,225.186 236.3525,225.53 236.0085,225.8417 235.6357,226.1182 235.2376,226.3568 234.818,226.5553 234.3809,226.7117 233.9306,226.8244 233.4715,226.8926 233.0079,226.9153 232.5443,226.8926 232.0851,226.8244 231.6348,226.7117 231.1978,226.5553 230.7782,226.3568 230.38,226.1182 230.0072,225.8417 229.6633,225.53 229.3516,225.186 229.075,224.8132 228.8364,224.4151 228.6379,223.9954 228.4816,223.5584 228.3688,223.1081 228.3007,222.649 228.2779,222.1854 228.3007,221.7217 228.3688,221.2626 228.4816,220.8123 228.6379,220.3753 228.8364,219.9557 229.075,219.5575 229.3516,219.1847 229.6633,218.8408 230.0072,218.529 230.38,218.2525 230.7782,218.0139 231.1978,217.8154 231.6348,217.6591 232.0851,217.5463 232.5443,217.4782 233.0079,217.4554 233.4715,217.4782 233.9306,217.5463 234.3809,217.6591 234.818,217.8154 235.2376,218.0139 235.6357,218.2525 236.0085,218.529 236.3525,218.8408 236.6642,219.1847 236.9407,219.5575 237.1793,219.9557 237.3778,220.3753 237.5342,220.8123 237.647,221.2626 237.7151,221.7217 237.7378,222.1854 237.7151,222.649"/>
    <polygon points="225.5654,240.7191 225.7278,239.6245 225.9966,238.551 226.3695,237.5091 226.8426,236.5087 227.4115,235.5596 228.0707,234.6707 228.8138,233.8508 229.6338,233.1077 230.5226,232.4485 231.4718,231.8795 232.4721,231.4064 233.5141,231.0336 234.5875,230.7647 235.6821,230.6024 236.7874,230.5481 237.8927,230.6024 238.9873,230.7647 240.0607,231.0336 241.1027,231.4064 242.103,231.8795 243.0522,232.4485 243.941,233.1077 244.761,233.8508 245.5041,234.6707 246.1633,235.5596 246.7322,236.5087 247.2054,237.5091 247.5782,238.551 247.847,239.6245 248.0094,240.7191 248.0637,241.8244 248.0094,242.9296 247.847,244.0243 247.5782,245.0977 247.2054,246.1396 246.7322,247.14 246.1633,248.0891 245.5041,248.978 244.761,249.7979 243.941,250.5411 243.0522,251.2003 242.103,251.7692 241.1027,252.2423 240.0607,252.6151 238.9873,252.884 237.8927,253.0464 236.7874,253.1007 235.6821,253.0464 234.5875,252.884 233.5141,252.6151 232.4721,252.2423 231.4718,251.7692 230.5226,251.2003 229.6338,250.5411 228.8138,249.7979 228.0707,248.978 227.4115,248.0891 226.8426,247.14 226.3695,246.1396 225.9966,245.0977 225.7278,244.0243 225.5654,242.9296 225.5111,241.8244"/>
    <polygon points="222.3118,261.991 221.5061,264.2426 220.4836,266.4045 219.2542,268.4557 217.8296,270.3765 216.2236,272.1485 214.4516,273.7545 212.5308,275.1791 210.4796,276.4085 208.3177,277.431 206.0661,278.2367 203.7463,278.8178 201.3807,279.1687 198.9921,279.286 196.6035,279.1687 194.238,278.8178 191.9182,278.2367 189.6665,277.431 187.5047,276.4085 185.4534,275.1791 183.5326,273.7545 181.7607,272.1485 180.1547,270.3765 178.7301,268.4557 177.5006,266.4045 176.4781,264.2426 175.6725,261.991 175.0914,259.6712 174.7405,257.3056 174.6232,254.917 174.7405,252.5285 175.0914,250.1629 175.6725,247.8431 176.4781,245.5914 177.5006,243.4296 178.7301,241.3784 180.1547,239.4575 181.7607,237.6856 183.5326,236.0796 185.4534,234.655 187.5047,233.4255 189.6665,232.403 191.9182,231.5974 194.238,231.0163 196.6035,230.6654 198.9921,230.5481 201.3807,230.6654 203.7463,231.0163 206.0661,231.5974 208.3177,232.403 210.4796,233.4255 212.5308,234.655 214.4516,236.0796 216.2236,237.6856 217.8296,239.4575 219.2542,241.3784 220.4836,243.4296 221.5061,245.5914 222.3118,247.8431 222.8929,250.1629 223.2438,252.5285 223.3611,254.917 223.2438,257.3056 222.8929,259.6712"/>
    <polygon points="185.4534,287.0256 183.5326,288.4502 181.7607,290.0562 180.1547,291.8282 178.7301,293.749 177.5006,295.8002 176.4781,297.9621 175.6725,300.2138 175.0914,302.5335 174.7405,304.8991 174.6232,307.2877 174.7405,309.6763 175.0914,312.0418 175.6725,314.3616 176.4781,316.6133 177.5006,318.7752 178.7301,320.8264 180.1547,322.7472 181.7607,324.5192 183.5326,326.1252 185.4534,327.5498 187.5047,328.7792 189.6665,329.8017 191.9182,330.6074 194.238,331.1884 196.6035,331.5393 198.9921,331.6567 201.3807,331.5393 203.7463,331.1884 206.0661,330.6074 208.3177,329.8017 210.4796,328.7792 212.5308,327.5498 214.4516,326.1252 216.2236,324.5192 217.8296,322.7472 219.2542,320.8264 220.4836,318.7752 221.5061,316.6133 222.3118,314.3616 222.8929,312.0418 223.2438,309.6763 223.3611,307.2877 223.2438,304.8991 222.8929,302.5335 222.3118,300.2138 221.5061,297.9621 220.4836,295.8002 219.2542,293.749 217.8296,291.8282 216.2236,290.0562 214.4516,288.4502 212.5308,287.0256 210.4796,285.7962 208.3177,284.7737 206.0661,283.968 203.7463,283.387 201.3807,283.0361 198.9921,282.9187 196.6035,283.0361 194.238,283.387 191.9182,283.968 189.6665,284.7737 187.5047,285.7962"/>
    <polygon points="160.0392,288.256 160.7824,289.0759 161.6023,289.8191 162.4911,290.4783 163.4403,291.0472 164.4406,291.5203 165.4826,291.8931 166.556,292.162 167.6506,292.3244 168.7559,292.3787 169.8612,292.3244 170.9558,292.162 172.0292,291.8931 173.0712,291.5203 174.0715,291.0472 175.0207,290.4783 175.9095,289.8191 176.7295,289.0759 177.4726,288.256 178.1318,287.3671 178.7007,286.418 179.1739,285.4176 179.5467,284.3757 179.8155,283.3023 179.9779,282.2076 180.0322,281.1024 179.9779,279.9971 179.8155,278.9025 179.5467,277.829 179.1739,276.7871 178.7007,275.7867 178.1318,274.8376 177.4726,273.9487 176.7295,273.1288 175.9095,272.3857 175.0207,271.7265 174.0715,271.1575 173.0712,270.6844 172.0292,270.3116 170.9558,270.0427 169.8612,269.8804 168.7559,269.8261 167.6506,269.8804 166.556,270.0427 165.4826,270.3116 164.4406,270.6844 163.4403,271.1575 162.4911,271.7265 161.6023,272.3857 160.7824,273.1288 160.0392,273.9487 159.38,274.8376 158.8111,275.7867 158.338,276.7871 157.9652,277.829 157.6963,278.9025 157.5339,279.9971 157.4796,281.1024 157.5339,282.2076 157.6963,283.3023 157.9652,284.3757 158.338,285.4176 158.8111,286.418 159.38,287.3671"/>
    <polygon points="150.6371,290.5387 150.2932,290.8504 149.9815,291.1944 149.705,291.5672 149.4663,291.9653 149.2679,292.3849 149.1115,292.822 148.9987,293.2723 148.9306,293.7314 148.9078,294.195 148.9306,294.6586 148.9987,295.1178 149.1115,295.5681 149.2679,296.0051 149.4663,296.4247 149.705,296.8229 149.9815,297.1957 150.2932,297.5396 150.6371,297.8513 151.01,298.1279 151.4081,298.3665 151.8277,298.565 152.2648,298.7213 152.715,298.8341 153.1742,298.9022 153.6378,298.925 154.1014,298.9022 154.5606,298.8341 155.0108,298.7213 155.4479,298.565 155.8675,298.3665 156.2656,298.1279 156.6385,297.8513 156.9824,297.5396 157.2941,297.1957 157.5706,296.8229 157.8093,296.4247 158.0077,296.0051 158.1641,295.5681 158.2769,295.1178 158.345,294.6586 158.3678,294.195 158.345,293.7314 158.2769,293.2723 158.1641,292.822 158.0077,292.3849 157.8093,291.9653 157.5706,291.5672 157.2941,291.1944 156.9824,290.8504 156.6385,290.5387 156.2656,290.2622 155.8675,290.0236 155.4479,289.8251 155.0108,289.6687 154.5606,289.5559 154.1014,289.4878 153.6378,289.4651 153.1742,289.4878 152.715,289.5559 152.2648,289.6687 151.8277,289.8251 151.4081,290.0236 151.01,290.2622"/>
    <polygon points="180.2111,345.4604 180.1568,346.5657 180.2111,347.671 180.3734,348.7656 180.6423,349.839 181.0151,350.881 181.4883,351.8813 182.0572,352.8305 182.7164,353.7193 183.4595,354.5393 184.2795,355.2824 185.1683,355.9416 186.1175,356.5105 187.1178,356.9836 188.1597,357.3565 189.2332,357.6253 190.3278,357.7877 191.4331,357.842 192.5383,357.7877 193.633,357.6253 194.7064,357.3565 195.7483,356.9836 196.7487,356.5105 197.6979,355.9416 198.5867,355.2824 199.4066,354.5393 200.1498,353.7193 200.809,352.8305 201.3779,351.8813 201.851,350.881 202.2238,349.839 202.4927,348.7656 202.6551,347.671 202.7094,346.5657 202.6551,345.4604 202.4927,344.3658 202.2238,343.2924 201.851,342.2504 201.3779,341.2501 200.809,340.3009 200.1498,339.4121 199.4066,338.5921 198.5867,337.849 197.6979,337.1898 196.7487,336.6209 195.7483,336.1478 194.7064,335.7749 193.633,335.5061 192.5383,335.3437 191.4331,335.2894 190.3278,335.3437 189.2332,335.5061 188.1597,335.7749 187.1178,336.1478 186.1175,336.6209 185.1683,337.1898 184.2795,337.849 183.4595,338.5921 182.7164,339.4121 182.0572,340.3009 181.4883,341.2501 181.0151,342.2504 180.6423,343.2924 180.3734,344.3658"/>
    <polygon points="168.6327,363.204 168.321,362.8601 167.977,362.5484 167.6042,362.2719 167.2061,362.0332 166.7865,361.8348 166.3494,361.6784 165.8991,361.5656 165.44,361.4975 164.9764,361.4747 164.5128,361.4975 164.0536,361.5656 163.6033,361.6784 163.1663,361.8348 162.7467,362.0332 162.3485,362.2719 161.9757,362.5484 161.6318,362.8601 161.3201,363.204 161.0435,363.5769 160.8049,363.975 160.6065,364.3946 160.4501,364.8317 160.3373,365.2819 160.2692,365.7411 160.2464,366.2047 160.2692,366.6683 160.3373,367.1275 160.4501,367.5777 160.6065,368.0148 160.8049,368.4344 161.0435,368.8325 161.3201,369.2054 161.6318,369.5493 161.9757,369.861 162.3485,370.1375 162.7467,370.3762 163.1663,370.5746 163.6033,370.731 164.0536,370.8438 164.5128,370.9119 164.9764,370.9347 165.44,370.9119 165.8991,370.8438 166.3494,370.731 166.7865,370.5746 167.2061,370.3762 167.6042,370.1375 167.977,369.861 168.321,369.5493 168.6327,369.2054 168.9092,368.8325 169.1478,368.4344 169.3463,368.0148 169.5027,367.5777 169.6155,367.1275 169.6836,366.6683 169.7064,366.2047 169.6836,365.7411 169.6155,365.2819 169.5027,364.8317 169.3463,364.3946 169.1478,363.975 168.9092,363.5769"/>
    <polygon points="160.4501,377.9243 160.3373,378.3746 160.2692,378.8338 160.2464,379.2974 160.2692,379.761 160.3373,380.2201 160.4501,380.6704 160.6065,381.1075 160.8049,381.5271 161.0435,381.9252 161.3201,382.298 161.6318,382.642 161.9757,382.9537 162.3485,383.2302 162.7467,383.4688 163.1663,383.6673 163.6033,383.8237 164.0536,383.9365 164.5128,384.0046 164.9764,384.0273 165.44,384.0046 165.8991,383.9365 166.3494,383.8237 166.7865,383.6673 167.2061,383.4688 167.6042,383.2302 167.977,382.9537 168.321,382.642 168.6327,382.298 168.9092,381.9252 169.1478,381.5271 169.3463,381.1075 169.5027,380.6704 169.6155,380.2201 169.6836,379.761 169.7064,379.2974 169.6836,378.8338 169.6155,378.3746 169.5027,377.9243 169.3463,377.4873 169.1478,377.0677 168.9092,376.6695 168.6327,376.2967 168.321,375.9528 167.977,375.6411 167.6042,375.3645 167.2061,375.1259 166.7865,374.9274 166.3494,374.7711 165.8991,374.6583 165.44,374.5902 164.9764,374.5674 164.5128,374.5902 164.0536,374.6583 163.6033,374.7711 163.1663,374.9274 162.7467,375.1259 162.3485,375.3645 161.9757,375.6411 161.6318,375.9528 161.3201,376.2967 161.0435,376.6695 160.8049,377.0677 160.6065,377.4873"/>
    <polygon points="179.6596,363.003 179.3156,363.3147 178.9428,363.5912 178.5447,363.8298 178.125,364.0283 177.688,364.1847 177.2377,364.2975 176.7786,364.3656 176.315,364.3883 175.8513,364.3656 175.3922,364.2975 174.9419,364.1847 174.5049,364.0283 174.0853,363.8298 173.6871,363.5912 173.3143,363.3147 172.9704,363.003 172.6586,362.659 172.3821,362.2862 172.1435,361.8881 171.945,361.4684 171.7887,361.0314 171.6759,360.5811 171.6078,360.122 171.585,359.6584 171.6078,359.1947 171.6759,358.7356 171.7887,358.2853 171.945,357.8483 172.1435,357.4287 172.3821,357.0305 172.6586,356.6577 172.9704,356.3138 173.3143,356.002 173.6871,355.7255 174.0853,355.4869 174.5049,355.2884 174.9419,355.1321 175.3922,355.0193 175.8513,354.9512 176.315,354.9284 176.7786,354.9512 177.2377,355.0193 177.688,355.1321 178.125,355.2884 178.5447,355.4869 178.9428,355.7255 179.3156,356.002 179.6596,356.3138 179.9713,356.6577 180.2478,357.0305 180.4864,357.4287 180.6849,357.8483 180.8413,358.2853 180.954,358.7356 181.0222,359.1947 181.0449,359.6584 181.0222,360.122 180.954,360.5811 180.8413,361.0314 180.6849,361.4684 180.4864,361.8881 180.2478,362.2862 179.9713,362.659"/>
    <polygon points="191.825,363.975 191.5864,363.5769 191.3099,363.204 190.9981,362.8601 190.6542,362.5484 190.2814,362.2719 189.8832,362.0332 189.4636,361.8348 189.0266,361.6784 188.5763,361.5656 188.1172,361.4975 187.6535,361.4747 187.1899,361.4975 186.7308,361.5656 186.2805,361.6784 185.8435,361.8348 185.4238,362.0332 185.0257,362.2719 184.6529,362.5484 184.3089,362.8601 183.9972,363.204 183.7207,363.5769 183.4821,363.975 183.2836,364.3946 183.1272,364.8317 183.0145,365.2819 182.9463,365.7411 182.9236,366.2047 182.9463,366.6683 183.0145,367.1275 183.1272,367.5777 183.2836,368.0148 183.4821,368.4344 183.7207,368.8325 183.9972,369.2054 184.3089,369.5493 184.6529,369.861 185.0257,370.1375 185.4238,370.3762 185.8435,370.5746 186.2805,370.731 186.7308,370.8438 187.1899,370.9119 187.6535,370.9347 188.1172,370.9119 188.5763,370.8438 189.0266,370.731 189.4636,370.5746 189.8832,370.3762 190.2814,370.1375 190.6542,369.861 190.9981,369.5493 191.3099,369.2054 191.5864,368.8325 191.825,368.4344 192.0235,368.0148 192.1798,367.5777 192.2926,367.1275 192.3607,366.6683 192.3835,366.2047 192.3607,365.7411 192.2926,365.2819 192.1798,364.8317 192.0235,364.3946"/>
    <polygon points="236.0085,336.363 235.6357,336.0865 235.2376,335.8479 234.818,335.6494 234.3809,335.4931 233.9306,335.3803 233.4715,335.3122 233.0079,335.2894 232.5443,335.3122 232.0851,335.3803 231.6348,335.4931 231.1978,335.6494 230.7782,335.8479 230.38,336.0865 230.0072,336.363 229.6633,336.6748 229.3516,337.0187 229.075,337.3915 228.8364,337.7897 228.6379,338.2093 228.4816,338.6463 228.3688,339.0966 228.3007,339.5557 228.2779,340.0194 228.3007,340.483 228.3688,340.9421 228.4816,341.3924 228.6379,341.8294 228.8364,342.2491 229.075,342.6472 229.3516,343.02 229.6633,343.364 230.0072,343.6757 230.38,343.9522 230.7782,344.1908 231.1978,344.3893 231.6348,344.5457 232.0851,344.6585 232.5443,344.7266 233.0079,344.7493 233.4715,344.7266 233.9306,344.6585 234.3809,344.5457 234.818,344.3893 235.2376,344.1908 235.6357,343.9522 236.0085,343.6757 236.3525,343.364 236.6642,343.02 236.9407,342.6472 237.1793,342.2491 237.3778,341.8294 237.5342,341.3924 237.647,340.9421 237.7151,340.483 237.7378,340.0194 237.7151,339.5557 237.647,339.0966 237.5342,338.6463 237.3778,338.2093 237.1793,337.7897 236.9407,337.3915 236.6642,337.0187 236.3525,336.6748"/>
    <polygon points="252.6844,323.2704 252.3404,323.5821 252.0287,323.926 251.7522,324.2989 251.5136,324.697 251.3151,325.1166 251.1587,325.5537 251.046,326.0039 250.9778,326.4631 250.9551,326.9267 250.9778,327.3903 251.046,327.8495 251.1587,328.2997 251.3151,328.7368 251.5136,329.1564 251.7522,329.5545 252.0287,329.9274 252.3404,330.2713 252.6844,330.583 253.0572,330.8595 253.4553,331.0982 253.875,331.2966 254.312,331.453 254.7623,331.5658 255.2214,331.6339 255.685,331.6567 256.1487,331.6339 256.6078,331.5658 257.0581,331.453 257.4951,331.2966 257.9147,331.0982 258.3129,330.8595 258.6857,330.583 259.0296,330.2713 259.3414,329.9274 259.6179,329.5545 259.8565,329.1564 260.055,328.7368 260.2113,328.2997 260.3241,327.8495 260.3922,327.3903 260.415,326.9267 260.3922,326.4631 260.3241,326.0039 260.2113,325.5537 260.055,325.1166 259.8565,324.697 259.6179,324.2989 259.3414,323.926 259.0296,323.5821 258.6857,323.2704 258.3129,322.9939 257.9147,322.7552 257.4951,322.5568 257.0581,322.4004 256.6078,322.2876 256.1487,322.2195 255.685,322.1967 255.2214,322.2195 254.7623,322.2876 254.312,322.4004 253.875,322.5568 253.4553,322.7552 253.0572,322.9939"/>
    <polygon points="257.0581,318.3603 257.4951,318.204 257.9147,318.0055 258.3129,317.7669 258.6857,317.4903 259.0296,317.1786 259.3414,316.8347 259.6179,316.4619 259.8565,316.0637 260.055,315.6441 260.2113,315.2071 260.3241,314.7568 260.3922,314.2976 260.415,313.834 260.3922,313.3704 260.3241,312.9113 260.2113,312.461 260.055,312.0239 259.8565,311.6043 259.6179,311.2062 259.3414,310.8334 259.0296,310.4894 258.6857,310.1777 258.3129,309.9012 257.9147,309.6626 257.4951,309.4641 257.0581,309.3077 256.6078,309.1949 256.1487,309.1268 255.685,309.1041 255.2214,309.1268 254.7623,309.1949 254.312,309.3077 253.875,309.4641 253.4553,309.6626 253.0572,309.9012 252.6844,310.1777 252.3404,310.4894 252.0287,310.8334 251.7522,311.2062 251.5136,311.6043 251.3151,312.0239 251.1587,312.461 251.046,312.9113 250.9778,313.3704 250.9551,313.834 250.9778,314.2976 251.046,314.7568 251.1587,315.2071 251.3151,315.6441 251.5136,316.0637 251.7522,316.4619 252.0287,316.8347 252.3404,317.1786 252.6844,317.4903 253.0572,317.7669 253.4553,318.0055 253.875,318.204 254.312,318.3603 254.7623,318.4731 255.2214,318.5412 255.685,318.564 256.1487,318.5412 256.6078,318.4731"/>
    <polygon points="259.8565,302.9711 260.055,302.5514 260.2113,302.1144 260.3241,301.6641 260.3922,301.205 260.415,300.7414 260.3922,300.2777 260.3241,299.8186 260.2113,299.3683 260.055,298.9313 259.8565,298.5117 259.6179,298.1135 259.3414,297.7407 259.0296,297.3968 258.6857,297.085 258.3129,296.8085 257.9147,296.5699 257.4951,296.3714 257.0581,296.2151 256.6078,296.1023 256.1487,296.0342 255.685,296.0114 255.2214,296.0342 254.7623,296.1023 254.312,296.2151 253.875,296.3714 253.4553,296.5699 253.0572,296.8085 252.6844,297.085 252.3404,297.3968 252.0287,297.7407 251.7522,298.1135 251.5136,298.5117 251.3151,298.9313 251.1587,299.3683 251.046,299.8186 250.9778,300.2777 250.9551,300.7414 250.9778,301.205 251.046,301.6641 251.1587,302.1144 251.3151,302.5514 251.5136,302.9711 251.7522,303.3692 252.0287,303.742 252.3404,304.086 252.6844,304.3977 253.0572,304.6742 253.4553,304.9128 253.875,305.1113 254.312,305.2677 254.7623,305.3805 255.2214,305.4486 255.685,305.4713 256.1487,305.4486 256.6078,305.3805 257.0581,305.2677 257.4951,305.1113 257.9147,304.9128 258.3129,304.6742 258.6857,304.3977 259.0296,304.086 259.3414,303.742 259.6179,303.3692"/>
    <polygon points="244.8101,298.9022 245.2692,298.8341 245.7195,298.7213 246.1565,298.565 246.5762,298.3665 246.9743,298.1279 247.3471,297.8513 247.6911,297.5396 248.0028,297.1957 248.2793,296.8229 248.5179,296.4247 248.7164,296.0051 248.8728,295.5681 248.9855,295.1178 249.0537,294.6586 249.0764,294.195 249.0537,293.7314 248.9855,293.2723 248.8728,292.822 248.7164,292.3849 248.5179,291.9653 248.2793,291.5672 248.0028,291.1944 247.6911,290.8504 247.3471,290.5387 246.9743,290.2622 246.5762,290.0236 246.1565,289.8251 245.7195,289.6687 245.2692,289.5559 244.8101,289.4878 244.3465,289.4651 243.8828,289.4878 243.4237,289.5559 242.9734,289.6687 242.5364,289.8251 242.1168,290.0236 241.7186,290.2622 241.3458,290.5387 241.0019,290.8504 240.6901,291.1944 240.4136,291.5672 240.175,291.9653 239.9765,292.3849 239.8202,292.822 239.7074,293.2723 239.6393,293.7314 239.6165,294.195 239.6393,294.6586 239.7074,295.1178 239.8202,295.5681 239.9765,296.0051 240.175,296.4247 240.4136,296.8229 240.6901,297.1957 241.0019,297.5396 241.3458,297.8513 241.7186,298.1279 242.1168,298.3665 242.5364,298.565 242.9734,298.7213 243.4237,298.8341 243.8828,298.9022 244.3465,298.925"/>
    <polygon points="232.4721,309.9624 231.4718,310.4356 230.5226,311.0045 229.6338,311.6637 228.8138,312.4068 228.0707,313.2268 227.4115,314.1156 226.8426,315.0648 226.3695,316.0651 225.9966,317.107 225.7278,318.1805 225.5654,319.2751 225.5111,320.3804 225.5654,321.4856 225.7278,322.5803 225.9966,323.6537 226.3695,324.6956 226.8426,325.696 227.4115,326.6451 228.0707,327.534 228.8138,328.3539 229.6338,329.0971 230.5226,329.7563 231.4718,330.3252 232.4721,330.7983 233.5141,331.1711 234.5875,331.44 235.6821,331.6024 236.7874,331.6567 237.8927,331.6024 238.9873,331.44 240.0607,331.1711 241.1027,330.7983 242.103,330.3252 243.0522,329.7563 243.941,329.0971 244.761,328.3539 245.5041,327.534 246.1633,326.6451 246.7322,325.696 247.2054,324.6956 247.5782,323.6537 247.847,322.5803 248.0094,321.4856 248.0637,320.3804 248.0094,319.2751 247.847,318.1805 247.5782,317.107 247.2054,316.0651 246.7322,315.0648 246.1633,314.1156 245.5041,313.2268 244.761,312.4068 243.941,311.6637 243.0522,311.0045 242.103,310.4356 241.1027,309.9624 240.0607,309.5896 238.9873,309.3207 237.8927,309.1584 236.7874,309.1041 235.6821,309.1584 234.5875,309.3207 233.5141,309.5896"/>
    <polygon points="228.3007,301.205 228.3688,301.6641 228.4816,302.1144 228.6379,302.5514 228.8364,302.9711 229.075,303.3692 229.3516,303.742 229.6633,304.086 230.0072,304.3977 230.38,304.6742 230.7782,304.9128 231.1978,305.1113 231.6348,305.2677 232.0851,305.3805 232.5443,305.4486 233.0079,305.4713 233.4715,305.4486 233.9306,305.3805 234.3809,305.2677 234.818,305.1113 235.2376,304.9128 235.6357,304.6742 236.0085,304.3977 236.3525,304.086 236.6642,303.742 236.9407,303.3692 237.1793,302.9711 237.3778,302.5514 237.5342,302.1144 237.647,301.6641 237.7151,301.205 237.7378,300.7414 237.7151,300.2777 237.647,299.8186 237.5342,299.3683 237.3778,298.9313 237.1793,298.5117 236.9407,298.1135 236.6642,297.7407 236.3525,297.3968 236.0085,297.085 235.6357,296.8085 235.2376,296.5699 234.818,296.3714 234.3809,296.2151 233.9306,296.1023 233.4715,296.0342 233.0079,296.0114 232.5443,296.0342 232.0851,296.1023 231.6348,296.2151 231.1978,296.3714 230.7782,296.5699 230.38,296.8085 230.0072,297.085 229.6633,297.3968 229.3516,297.7407 229.075,298.1135 228.8364,298.5117 228.6379,298.9313 228.4816,299.3683 228.3688,299.8186 228.3007,300.2777 228.2779,300.7414"/>
    <polygon points="233.4715,282.9415 233.0079,282.9187 232.5443,282.9415 232.0851,283.0096 231.6348,283.1224 231.1978,283.2788 230.7782,283.4772 230.38,283.7159 230.0072,283.9924 229.6633,284.3041 229.3516,284.648 229.075,285.0209 228.8364,285.419 228.6379,285.8386 228.4816,286.2757 228.3688,286.7259 228.3007,287.1851 228.2779,287.6487 228.3007,288.1123 228.3688,288.5715 228.4816,289.0217 228.6379,289.4588 228.8364,289.8784 229.075,290.2765 229.3516,290.6494 229.6633,290.9933 230.0072,291.305 230.38,291.5815 230.7782,291.8202 231.1978,292.0186 231.6348,292.175 232.0851,292.2878 232.5443,292.3559 233.0079,292.3787 233.4715,292.3559 233.9306,292.2878 234.3809,292.175 234.818,292.0186 235.2376,291.8202 235.6357,291.5815 236.0085,291.305 236.3525,290.9933 236.6642,290.6494 236.9407,290.2765 237.1793,289.8784 237.3778,289.4588 237.5342,289.0217 237.647,288.5715 237.7151,288.1123 237.7378,287.6487 237.7151,287.1851 237.647,286.7259 237.5342,286.2757 237.3778,285.8386 237.1793,285.419 236.9407,285.0209 236.6642,284.648 236.3525,284.3041 236.0085,283.9924 235.6357,283.7159 235.2376,283.4772 234.818,283.2788 234.3809,283.1224 233.9306,283.0096"/>
    <polygon points="248.0094,269.115 248.0637,268.0097 248.0094,266.9044 247.847,265.8098 247.5782,264.7364 247.2054,263.6944 246.7322,262.6941 246.1633,261.7449 245.5041,260.8561 244.761,260.0361 243.941,259.293 243.0522,258.6338 242.103,258.0649 241.1027,257.5917 240.0607,257.2189 238.9873,256.9501 237.8927,256.7877 236.7874,256.7334 235.6821,256.7877 234.5875,256.9501 233.5141,257.2189 232.4721,257.5917 231.4718,258.0649 230.5226,258.6338 229.6338,259.293 228.8138,260.0361 228.0707,260.8561 227.4115,261.7449 226.8426,262.6941 226.3695,263.6944 225.9966,264.7364 225.7278,265.8098 225.5654,266.9044 225.5111,268.0097 225.5654,269.115 225.7278,270.2096 225.9966,271.283 226.3695,272.325 226.8426,273.3253 227.4115,274.2745 228.0707,275.1633 228.8138,275.9832 229.6338,276.7264 230.5226,277.3856 231.4718,277.9545 232.4721,278.4276 233.5141,278.8004 234.5875,279.0693 235.6821,279.2317 236.7874,279.286 237.8927,279.2317 238.9873,279.0693 240.0607,278.8004 241.1027,278.4276 242.103,277.9545 243.0522,277.3856 243.941,276.7264 244.761,275.9832 245.5041,275.1633 246.1633,274.2745 246.7322,273.3253 247.2054,272.325 247.5782,271.283 247.847,270.2096"/>
    <polygon points="260.415,274.556 260.3922,274.0924 260.3241,273.6333 260.2113,273.183 260.055,272.7459 259.8565,272.3263 259.6179,271.9282 259.3414,271.5554 259.0296,271.2114 258.6857,270.8997 258.3129,270.6232 257.9147,270.3846 257.4951,270.1861 257.0581,270.0297 256.6078,269.9169 256.1487,269.8488 255.685,269.8261 255.2214,269.8488 254.7623,269.9169 254.312,270.0297 253.875,270.1861 253.4553,270.3846 253.0572,270.6232 252.6844,270.8997 252.3404,271.2114 252.0287,271.5554 251.7522,271.9282 251.5136,272.3263 251.3151,272.7459 251.1587,273.183 251.046,273.6333 250.9778,274.0924 250.9551,274.556 250.9778,275.0196 251.046,275.4788 251.1587,275.9291 251.3151,276.3661 251.5136,276.7857 251.7522,277.1839 252.0287,277.5567 252.3404,277.9006 252.6844,278.2123 253.0572,278.4889 253.4553,278.7275 253.875,278.926 254.312,279.0823 254.7623,279.1951 255.2214,279.2632 255.685,279.286 256.1487,279.2632 256.6078,279.1951 257.0581,279.0823 257.4951,278.926 257.9147,278.7275 258.3129,278.4889 258.6857,278.2123 259.0296,277.9006 259.3414,277.5567 259.6179,277.1839 259.8565,276.7857 260.055,276.3661 260.2113,275.9291 260.3241,275.4788 260.3922,275.0196"/>
    <polygon points="254.7623,256.8243 254.312,256.9371 253.875,257.0934 253.4553,257.2919 253.0572,257.5305 252.6844,257.807 252.3404,258.1188 252.0287,258.4627 251.7522,258.8355 251.5136,259.2337 251.3151,259.6533 251.1587,260.0903 251.046,260.5406 250.9778,260.9997 250.9551,261.4634 250.9778,261.927 251.046,262.3861 251.1587,262.8364 251.3151,263.2734 251.5136,263.6931 251.7522,264.0912 252.0287,264.464 252.3404,264.808 252.6844,265.1197 253.0572,265.3962 253.4553,265.6348 253.875,265.8333 254.312,265.9897 254.7623,266.1024 255.2214,266.1706 255.685,266.1933 256.1487,266.1706 256.6078,266.1024 257.0581,265.9897 257.4951,265.8333 257.9147,265.6348 258.3129,265.3962 258.6857,265.1197 259.0296,264.808 259.3414,264.464 259.6179,264.0912 259.8565,263.6931 260.055,263.2734 260.2113,262.8364 260.3241,262.3861 260.3922,261.927 260.415,261.4634 260.3922,260.9997 260.3241,260.5406 260.2113,260.0903 260.055,259.6533 259.8565,259.2337 259.6179,258.8355 259.3414,258.4627 259.0296,258.1188 258.6857,257.807 258.3129,257.5305 257.9147,257.2919 257.4951,257.0934 257.0581,256.9371 256.6078,256.8243 256.1487,256.7562 255.685,256.7334 255.2214,256.7562"/>
    <polygon points="271.7308,255.3806 271.7536,254.917 271.7308,254.4534 271.6627,253.9943 271.5499,253.544 271.3935,253.1069 271.1951,252.6873 270.9565,252.2892 270.6799,251.9164 270.3682,251.5724 270.0243,251.2607 269.6515,250.9842 269.2533,250.7456 268.8337,250.5471 268.3967,250.3907 267.9464,250.2779 267.4872,250.2098 267.0236,250.1871 266.56,250.2098 266.1009,250.2779 265.6506,250.3907 265.2135,250.5471 264.7939,250.7456 264.3958,250.9842 264.023,251.2607 263.679,251.5724 263.3673,251.9164 263.0908,252.2892 262.8522,252.6873 262.6537,253.1069 262.4973,253.544 262.3845,253.9943 262.3164,254.4534 262.2936,254.917 262.3164,255.3806 262.3845,255.8398 262.4973,256.2901 262.6537,256.7271 262.8522,257.1467 263.0908,257.5449 263.3673,257.9177 263.679,258.2616 264.023,258.5733 264.3958,258.8499 264.7939,259.0885 265.2135,259.287 265.6506,259.4433 266.1009,259.5561 266.56,259.6242 267.0236,259.647 267.4872,259.6242 267.9464,259.5561 268.3967,259.4433 268.8337,259.287 269.2533,259.0885 269.6515,258.8499 270.0243,258.5733 270.3682,258.2616 270.6799,257.9177 270.9565,257.5449 271.1951,257.1467 271.3935,256.7271 271.5499,256.2901 271.6627,255.8398"/>
    <polygon points="277.8986,243.6635 277.4394,243.7316 276.9892,243.8444 276.5521,244.0008 276.1325,244.1992 275.7344,244.4379 275.3615,244.7144 275.0176,245.0261 274.7059,245.37 274.4294,245.7429 274.1907,246.141 273.9923,246.5606 273.8359,246.9977 273.7231,247.4479 273.655,247.9071 273.6322,248.3707 273.655,248.8343 273.7231,249.2935 273.8359,249.7437 273.9923,250.1808 274.1907,250.6004 274.4294,250.9985 274.7059,251.3714 275.0176,251.7153 275.3615,252.027 275.7344,252.3035 276.1325,252.5422 276.5521,252.7406 276.9892,252.897 277.4394,253.0098 277.8986,253.0779 278.3622,253.1007 278.8258,253.0779 279.285,253.0098 279.7352,252.897 280.1723,252.7406 280.5919,252.5422 280.99,252.3035 281.3629,252.027 281.7068,251.7153 282.0185,251.3714 282.295,250.9985 282.5337,250.6004 282.7321,250.1808 282.8885,249.7437 283.0013,249.2935 283.0694,248.8343 283.0922,248.3707 283.0694,247.9071 283.0013,247.4479 282.8885,246.9977 282.7321,246.5606 282.5337,246.141 282.295,245.7429 282.0185,245.37 281.7068,245.0261 281.3629,244.7144 280.99,244.4379 280.5919,244.1992 280.1723,244.0008 279.7352,243.8444 279.285,243.7316 278.8258,243.6635 278.3622,243.6407"/>
    <polygon points="257.9147,231.1066 257.4951,230.9081 257.0581,230.7517 256.6078,230.6389 256.1487,230.5708 255.685,230.5481 255.2214,230.5708 254.7623,230.6389 254.312,230.7517 253.875,230.9081 253.4553,231.1066 253.0572,231.3452 252.6844,231.6217 252.3404,231.9334 252.0287,232.2774 251.7522,232.6502 251.5136,233.0483 251.3151,233.4679 251.1587,233.905 251.046,234.3553 250.9778,234.8144 250.9551,235.278 250.9778,235.7416 251.046,236.2008 251.1587,236.6511 251.3151,237.0881 251.5136,237.5077 251.7522,237.9059 252.0287,238.2787 252.3404,238.6226 252.6844,238.9343 253.0572,239.2109 253.4553,239.4495 253.875,239.648 254.312,239.8043 254.7623,239.9171 255.2214,239.9852 255.685,240.008 256.1487,239.9852 256.6078,239.9171 257.0581,239.8043 257.4951,239.648 257.9147,239.4495 258.3129,239.2109 258.6857,238.9343 259.0296,238.6226 259.3414,238.2787 259.6179,237.9059 259.8565,237.5077 260.055,237.0881 260.2113,236.6511 260.3241,236.2008 260.3922,235.7416 260.415,235.278 260.3922,234.8144 260.3241,234.3553 260.2113,233.905 260.055,233.4679 259.8565,233.0483 259.6179,232.6502 259.3414,232.2774 259.0296,231.9334 258.6857,231.6217 258.3129,231.3452"/>
  </g>
</svg>
