<?xml version="1.0" encoding="utf-8" ?>
<svg xmlns="http://www.w3.org/2000/svg" xmlns:cc="http://creativecommons.org/ns" xmlns:dc="http://purl.org/dc/elements/1.1/" xmlns:ev="http://www.w3.org/2001/xml-events" xmlns:inkscape="http://www.inkscape.org/namespaces/inkscape" xmlns:rdf="http://www.w3.org/1999/02/22-rdf-syntax-ns" xmlns:sodipodi="http://sodipodi.sourceforge.net/DTD/sodipodi-0.dtd" xmlns:xlink="http://www.w3.org/1999/xlink" baseProfile="tiny" height="15.875cm" version="1.2" viewBox="0 0 432.0 600.0" width="11.43cm">
  <metadata>
    <rdf:RDF>
      <cc:Work>
        <dc:format>image/svg+xml</dc:format>
        <dc:source>vsk save -s 280 -c hex-grid/config/bubble-coasters-2.json /Users/tobin/src/fabian/plotting/fabian-plotting/hex-grid/sketch_hex_grid.py</dc:source>
        <dc:date>2023-11-11T11:30:24.018513</dc:date>
      </cc:Work>
    </rdf:RDF>
  </metadata>
  <defs/>
  <g fill="none" id="layer1" inkscape:groupmode="layer" inkscape:label="1" stroke="#000000" stroke-width="0.7559" style="display:inline">
    <polygon points="309.3773,283.9924 309.7501,283.7159 310.1483,283.4772 310.5679,283.2788 311.0049,283.1224 311.4552,283.0096 311.9143,282.9415 312.378,282.9187 312.8416,282.9415 313.3007,283.0096 313.751,283.1224 314.188,283.2788 314.6076,283.4772 315.0058,283.7159 315.3786,283.9924 315.7225,284.3041 316.0343,284.648 316.3108,285.0209 316.5494,285.419 316.7479,285.8386 316.9043,286.2757 317.017,286.7259 317.0851,287.1851 317.1079,287.6487 317.0851,288.1123 317.017,288.5715 316.9043,289.0217 316.7479,289.4588 316.5494,289.8784 316.3108,290.2765 316.0343,290.6494 315.7225,290.9933 315.3786,291.305 315.0058,291.5815 314.6076,291.8202 314.188,292.0186 313.751,292.175 313.3007,292.2878 312.8416,292.3559 312.378,292.3787 311.9143,292.3559 311.4552,292.2878 311.0049,292.175 310.5679,292.0186 310.1483,291.8202 309.7501,291.5815 309.3773,291.305 309.0334,290.9933 308.7216,290.6494 308.4451,290.2765 308.2065,289.8784 308.008,289.4588 307.8517,289.0217 307.7389,288.5715 307.6708,288.1123 307.648,287.6487 307.6708,287.1851 307.7389,286.7259 307.8517,286.2757 308.008,285.8386 308.2065,285.419 308.4451,285.0209 308.7216,284.648 309.0334,284.3041"/>
    <polygon points="301.9621,285.7414 302.4124,285.6287 302.8495,285.4723 303.2691,285.2738 303.6672,285.0352 304.04,284.7587 304.384,284.447 304.6957,284.103 304.9722,283.7302 305.2108,283.3321 305.4093,282.9124 305.5657,282.4754 305.6785,282.0251 305.7466,281.566 305.7693,281.1024 305.7466,280.6387 305.6785,280.1796 305.5657,279.7293 305.4093,279.2923 305.2108,278.8727 304.9722,278.4745 304.6957,278.1017 304.384,277.7578 304.04,277.446 303.6672,277.1695 303.2691,276.9309 302.8495,276.7324 302.4124,276.5761 301.9621,276.4633 301.503,276.3952 301.0394,276.3724 300.5758,276.3952 300.1166,276.4633 299.6663,276.5761 299.2293,276.7324 298.8097,276.9309 298.4115,277.1695 298.0387,277.446 297.6948,277.7578 297.3831,278.1017 297.1065,278.4745 296.8679,278.8727 296.6694,279.2923 296.5131,279.7293 296.4003,280.1796 296.3322,280.6387 296.3094,281.1024 296.3322,281.566 296.4003,282.0251 296.5131,282.4754 296.6694,282.9124 296.8679,283.3321 297.1065,283.7302 297.3831,284.103 297.6948,284.447 298.0387,284.7587 298.4115,285.0352 298.8097,285.2738 299.2293,285.4723 299.6663,285.6287 300.1166,285.7414 300.5758,285.8096 301.0394,285.8323 301.503,285.8096"/>
    <polygon points="298.4115,290.2622 298.0387,290.5387 297.6948,290.8504 297.3831,291.1944 297.1065,291.5672 296.8679,291.9653 296.6694,292.3849 296.5131,292.822 296.4003,293.2723 296.3322,293.7314 296.3094,294.195 296.3322,294.6586 296.4003,295.1178 296.5131,295.5681 296.6694,296.0051 296.8679,296.4247 297.1065,296.8229 297.3831,297.1957 297.6948,297.5396 298.0387,297.8513 298.4115,298.1279 298.8097,298.3665 299.2293,298.565 299.6663,298.7213 300.1166,298.8341 300.5758,298.9022 301.0394,298.925 301.503,298.9022 301.9621,298.8341 302.4124,298.7213 302.8495,298.565 303.2691,298.3665 303.6672,298.1279 304.04,297.8513 304.384,297.5396 304.6957,297.1957 304.9722,296.8229 305.2108,296.4247 305.4093,296.0051 305.5657,295.5681 305.6785,295.1178 305.7466,294.6586 305.7693,294.195 305.7466,293.7314 305.6785,293.2723 305.5657,292.822 305.4093,292.3849 305.2108,291.9653 304.9722,291.5672 304.6957,291.1944 304.384,290.8504 304.04,290.5387 303.6672,290.2622 303.2691,290.0236 302.8495,289.8251 302.4124,289.6687 301.9621,289.5559 301.503,289.4878 301.0394,289.4651 300.5758,289.4878 300.1166,289.5559 299.6663,289.6687 299.2293,289.8251 298.8097,290.0236"/>
    <polygon points="294.3399,273.6333 294.408,274.0924 294.4308,274.556 294.408,275.0196 294.3399,275.4788 294.2271,275.9291 294.0707,276.3661 293.8723,276.7857 293.6336,277.1839 293.3571,277.5567 293.0454,277.9006 292.7015,278.2123 292.3286,278.4889 291.9305,278.7275 291.5109,278.926 291.0738,279.0823 290.6236,279.1951 290.1644,279.2632 289.7008,279.286 289.2372,279.2632 288.778,279.1951 288.3277,279.0823 287.8907,278.926 287.4711,278.7275 287.073,278.4889 286.7001,278.2123 286.3562,277.9006 286.0445,277.5567 285.768,277.1839 285.5293,276.7857 285.3309,276.3661 285.1745,275.9291 285.0617,275.4788 284.9936,275.0196 284.9708,274.556 284.9936,274.0924 285.0617,273.6333 285.1745,273.183 285.3309,272.7459 285.5293,272.3263 285.768,271.9282 286.0445,271.5554 286.3562,271.2114 286.7001,270.8997 287.073,270.6232 287.4711,270.3846 287.8907,270.1861 288.3277,270.0297 288.778,269.9169 289.2372,269.8488 289.7008,269.8261 290.1644,269.8488 290.6236,269.9169 291.0738,270.0297 291.5109,270.1861 291.9305,270.3846 292.3286,270.6232 292.7015,270.8997 293.0454,271.2114 293.3571,271.5554 293.6336,271.9282 293.8723,272.3263 294.0707,272.7459 294.2271,273.183"/>
    <polygon points="297.3831,265.009 297.6948,264.6651 298.0387,264.3534 298.4115,264.0769 298.8097,263.8382 299.2293,263.6398 299.6663,263.4834 300.1166,263.3706 300.5758,263.3025 301.0394,263.2797 301.503,263.3025 301.9621,263.3706 302.4124,263.4834 302.8495,263.6398 303.2691,263.8382 303.6672,264.0769 304.04,264.3534 304.384,264.6651 304.6957,265.009 304.9722,265.3819 305.2108,265.78 305.4093,266.1996 305.5657,266.6367 305.6785,267.0869 305.7466,267.5461 305.7693,268.0097 305.7466,268.4733 305.6785,268.9325 305.5657,269.3827 305.4093,269.8198 305.2108,270.2394 304.9722,270.6375 304.6957,271.0104 304.384,271.3543 304.04,271.666 303.6672,271.9425 303.2691,272.1812 302.8495,272.3796 302.4124,272.536 301.9621,272.6488 301.503,272.7169 301.0394,272.7397 300.5758,272.7169 300.1166,272.6488 299.6663,272.536 299.2293,272.3796 298.8097,272.1812 298.4115,271.9425 298.0387,271.666 297.6948,271.3543 297.3831,271.0104 297.1065,270.6375 296.8679,270.2394 296.6694,269.8198 296.5131,269.3827 296.4003,268.9325 296.3322,268.4733 296.3094,268.0097 296.3322,267.5461 296.4003,267.0869 296.5131,266.6367 296.6694,266.1996 296.8679,265.78 297.1065,265.3819"/>
    <polygon points="290.6236,266.1024 290.1644,266.1706 289.7008,266.1933 289.2372,266.1706 288.778,266.1024 288.3277,265.9897 287.8907,265.8333 287.4711,265.6348 287.073,265.3962 286.7001,265.1197 286.3562,264.808 286.0445,264.464 285.768,264.0912 285.5293,263.6931 285.3309,263.2734 285.1745,262.8364 285.0617,262.3861 284.9936,261.927 284.9708,261.4634 284.9936,260.9997 285.0617,260.5406 285.1745,260.0903 285.3309,259.6533 285.5293,259.2337 285.768,258.8355 286.0445,258.4627 286.3562,258.1188 286.7001,257.807 287.073,257.5305 287.4711,257.2919 287.8907,257.0934 288.3277,256.9371 288.778,256.8243 289.2372,256.7562 289.7008,256.7334 290.1644,256.7562 290.6236,256.8243 291.0738,256.9371 291.5109,257.0934 291.9305,257.2919 292.3286,257.5305 292.7015,257.807 293.0454,258.1188 293.3571,258.4627 293.6336,258.8355 293.8723,259.2337 294.0707,259.6533 294.2271,260.0903 294.3399,260.5406 294.408,260.9997 294.4308,261.4634 294.408,261.927 294.3399,262.3861 294.2271,262.8364 294.0707,263.2734 293.8723,263.6931 293.6336,264.0912 293.3571,264.464 293.0454,264.808 292.7015,265.1197 292.3286,265.3962 291.9305,265.6348 291.5109,265.8333 291.0738,265.9897"/>
    <polygon points="283.0694,268.4733 283.0013,268.9325 282.8885,269.3827 282.7321,269.8198 282.5337,270.2394 282.295,270.6375 282.0185,271.0104 281.7068,271.3543 281.3629,271.666 280.99,271.9425 280.5919,272.1812 280.1723,272.3796 279.7352,272.536 279.285,272.6488 278.8258,272.7169 278.3622,272.7397 277.8986,272.7169 277.4394,272.6488 276.9892,272.536 276.5521,272.3796 276.1325,272.1812 275.7344,271.9425 275.3615,271.666 275.0176,271.3543 274.7059,271.0104 274.4294,270.6375 274.1907,270.2394 273.9923,269.8198 273.8359,269.3827 273.7231,268.9325 273.655,268.4733 273.6322,268.0097 273.655,267.5461 273.7231,267.0869 273.8359,266.6367 273.9923,266.1996 274.1907,265.78 274.4294,265.3819 274.7059,265.009 275.0176,264.6651 275.3615,264.3534 275.7344,264.0769 276.1325,263.8382 276.5521,263.6398 276.9892,263.4834 277.4394,263.3706 277.8986,263.3025 278.3622,263.2797 278.8258,263.3025 279.285,263.3706 279.7352,263.4834 280.1723,263.6398 280.5919,263.8382 280.99,264.0769 281.3629,264.3534 281.7068,264.6651 282.0185,265.009 282.295,265.3819 282.5337,265.78 282.7321,266.1996 282.8885,266.6367 283.0013,267.0869 283.0694,267.5461 283.0922,268.0097"/>
    <polygon points="261.6645,285.6157 262.7379,285.3468 263.7798,284.974 264.7802,284.5008 265.7293,283.9319 266.6182,283.2727 267.4381,282.5296 268.1813,281.7096 268.8405,280.8208 269.4094,279.8716 269.8825,278.8713 270.2553,277.8294 270.5242,276.7559 270.6866,275.6613 270.7409,274.556 270.6866,273.4508 270.5242,272.3561 270.2553,271.2827 269.8825,270.2408 269.4094,269.2404 268.8405,268.2912 268.1813,267.4024 267.4381,266.5825 266.6182,265.8393 265.7293,265.1801 264.7802,264.6112 263.7798,264.1381 262.7379,263.7653 261.6645,263.4964 260.5698,263.334 259.4646,263.2797 258.3593,263.334 257.2647,263.4964 256.1912,263.7653 255.1493,264.1381 254.149,264.6112 253.1998,265.1801 252.311,265.8393 251.491,266.5825 250.7479,267.4024 250.0887,268.2912 249.5198,269.2404 249.0466,270.2408 248.6738,271.2827 248.4049,272.3561 248.2426,273.4508 248.1883,274.556 248.2426,275.6613 248.4049,276.7559 248.6738,277.8294 249.0466,278.8713 249.5198,279.8716 250.0887,280.8208 250.7479,281.7096 251.491,282.5296 252.311,283.2727 253.1998,283.9319 254.149,284.5008 255.1493,284.974 256.1912,285.3468 257.2647,285.6157 258.3593,285.778 259.4646,285.8323 260.5698,285.778"/>
    <polygon points="260.3922,294.6586 260.415,294.195 260.3922,293.7314 260.3241,293.2723 260.2113,292.822 260.055,292.3849 259.8565,291.9653 259.6179,291.5672 259.3414,291.1944 259.0296,290.8504 258.6857,290.5387 258.3129,290.2622 257.9147,290.0236 257.4951,289.8251 257.0581,289.6687 256.6078,289.5559 256.1487,289.4878 255.685,289.4651 255.2214,289.4878 254.7623,289.5559 254.312,289.6687 253.875,289.8251 253.4553,290.0236 253.0572,290.2622 252.6844,290.5387 252.3404,290.8504 252.0287,291.1944 251.7522,291.5672 251.5136,291.9653 251.3151,292.3849 251.1587,292.822 251.046,293.2723 250.9778,293.7314 250.9551,294.195 250.9778,294.6586 251.046,295.1178 251.1587,295.5681 251.3151,296.0051 251.5136,296.4247 251.7522,296.8229 252.0287,297.1957 252.3404,297.5396 252.6844,297.8513 253.0572,298.1279 253.4553,298.3665 253.875,298.565 254.312,298.7213 254.7623,298.8341 255.2214,298.9022 255.685,298.925 256.1487,298.9022 256.6078,298.8341 257.0581,298.7213 257.4951,298.565 257.9147,298.3665 258.3129,298.1279 258.6857,297.8513 259.0296,297.5396 259.3414,297.1957 259.6179,296.8229 259.8565,296.4247 260.055,296.0051 260.2113,295.5681 260.3241,295.1178"/>
    <polygon points="246.7322,282.3331 247.2054,283.3334 247.5782,284.3754 247.847,285.4488 248.0094,286.5434 248.0637,287.6487 248.0094,288.754 247.847,289.8486 247.5782,290.922 247.2054,291.964 246.7322,292.9643 246.1633,293.9135 245.5041,294.8023 244.761,295.6222 243.941,296.3654 243.0522,297.0246 242.103,297.5935 241.1027,298.0666 240.0607,298.4394 238.9873,298.7083 237.8927,298.8707 236.7874,298.925 235.6821,298.8707 234.5875,298.7083 233.5141,298.4394 232.4721,298.0666 231.4718,297.5935 230.5226,297.0246 229.6338,296.3654 228.8138,295.6222 228.0707,294.8023 227.4115,293.9135 226.8426,292.9643 226.3695,291.964 225.9966,290.922 225.7278,289.8486 225.5654,288.754 225.5111,287.6487 225.5654,286.5434 225.7278,285.4488 225.9966,284.3754 226.3695,283.3334 226.8426,282.3331 227.4115,281.3839 228.0707,280.4951 228.8138,279.6751 229.6338,278.932 230.5226,278.2728 231.4718,277.7039 232.4721,277.2307 233.5141,276.8579 234.5875,276.5891 235.6821,276.4267 236.7874,276.3724 237.8927,276.4267 238.9873,276.5891 240.0607,276.8579 241.1027,277.2307 242.103,277.7039 243.0522,278.2728 243.941,278.932 244.761,279.6751 245.5041,280.4951 246.1633,281.3839"/>
    <polygon points="205.9608,318.5703 206.1592,318.1507 206.3979,317.7525 206.6744,317.3797 206.9861,317.0358 207.33,316.724 207.7029,316.4475 208.101,316.2089 208.5206,316.0104 208.9577,315.8541 209.4079,315.7413 209.8671,315.6732 210.3307,315.6504 210.7943,315.6732 211.2535,315.7413 211.7037,315.8541 212.1408,316.0104 212.5604,316.2089 212.9585,316.4475 213.3314,316.724 213.6753,317.0358 213.987,317.3797 214.2635,317.7525 214.5022,318.1507 214.7006,318.5703 214.857,319.0073 214.9698,319.4576 215.0379,319.9167 215.0607,320.3804 215.0379,320.844 214.9698,321.3031 214.857,321.7534 214.7006,322.1904 214.5022,322.6101 214.2635,323.0082 213.987,323.381 213.6753,323.725 213.3314,324.0367 212.9585,324.3132 212.5604,324.5518 212.1408,324.7503 211.7037,324.9067 211.2535,325.0195 210.7943,325.0876 210.3307,325.1103 209.8671,325.0876 209.4079,325.0195 208.9577,324.9067 208.5206,324.7503 208.101,324.5518 207.7029,324.3132 207.33,324.0367 206.9861,323.725 206.6744,323.381 206.3979,323.0082 206.1592,322.6101 205.9608,322.1904 205.8044,321.7534 205.6916,321.3031 205.6235,320.844 205.6007,320.3804 205.6235,319.9167 205.6916,319.4576 205.8044,319.0073"/>
    <polygon points="201.851,318.1493 201.3779,319.1496 200.809,320.0988 200.1498,320.9876 199.4066,321.8076 198.5867,322.5507 197.6979,323.2099 196.7487,323.7788 195.7483,324.252 194.7064,324.6248 193.633,324.8937 192.5383,325.056 191.4331,325.1103 190.3278,325.056 189.2332,324.8937 188.1597,324.6248 187.1178,324.252 186.1175,323.7788 185.1683,323.2099 184.2795,322.5507 183.4595,321.8076 182.7164,320.9876 182.0572,320.0988 181.4883,319.1496 181.0151,318.1493 180.6423,317.1074 180.3734,316.0339 180.2111,314.9393 180.1568,313.834 180.2111,312.7288 180.3734,311.6341 180.6423,310.5607 181.0151,309.5188 181.4883,308.5184 182.0572,307.5693 182.7164,306.6804 183.4595,305.8605 184.2795,305.1173 185.1683,304.4581 186.1175,303.8892 187.1178,303.4161 188.1597,303.0433 189.2332,302.7744 190.3278,302.612 191.4331,302.5577 192.5383,302.612 193.633,302.7744 194.7064,303.0433 195.7483,303.4161 196.7487,303.8892 197.6979,304.4581 198.5867,305.1173 199.4066,305.8605 200.1498,306.6804 200.809,307.5693 201.3779,308.5184 201.851,309.5188 202.2238,310.5607 202.4927,311.6341 202.6551,312.7288 202.7094,313.834 202.6551,314.9393 202.4927,316.0339 202.2238,317.1074"/>
    <polygon points="187.6535,338.203 187.1899,338.1802 186.7308,338.1121 186.2805,337.9993 185.8435,337.843 185.4238,337.6445 185.0257,337.4059 184.6529,337.1294 184.3089,336.8176 183.9972,336.4737 183.7207,336.1009 183.4821,335.7027 183.2836,335.2831 183.1272,334.8461 183.0145,334.3958 182.9463,333.9367 182.9236,333.473 182.9463,333.0094 183.0145,332.5503 183.1272,332.1 183.2836,331.663 183.4821,331.2433 183.7207,330.8452 183.9972,330.4724 184.3089,330.1284 184.6529,329.8167 185.0257,329.5402 185.4238,329.3016 185.8435,329.1031 186.2805,328.9467 186.7308,328.8339 187.1899,328.7658 187.6535,328.7431 188.1172,328.7658 188.5763,328.8339 189.0266,328.9467 189.4636,329.1031 189.8832,329.3016 190.2814,329.5402 190.6542,329.8167 190.9981,330.1284 191.3099,330.4724 191.5864,330.8452 191.825,331.2433 192.0235,331.663 192.1798,332.1 192.2926,332.5503 192.3607,333.0094 192.3835,333.473 192.3607,333.9367 192.2926,334.3958 192.1798,334.8461 192.0235,335.2831 191.825,335.7027 191.5864,336.1009 191.3099,336.4737 190.9981,336.8176 190.6542,337.1294 190.2814,337.4059 189.8832,337.6445 189.4636,337.843 189.0266,337.9993 188.5763,338.1121 188.1172,338.1802"/>
    <polygon points="187.1899,341.8585 187.6535,341.8357 188.1172,341.8585 188.5763,341.9266 189.0266,342.0394 189.4636,342.1958 189.8832,342.3942 190.2814,342.6329 190.6542,342.9094 190.9981,343.2211 191.3099,343.565 191.5864,343.9379 191.825,344.336 192.0235,344.7556 192.1798,345.1927 192.2926,345.6429 192.3607,346.1021 192.3835,346.5657 192.3607,347.0293 192.2926,347.4885 192.1798,347.9387 192.0235,348.3758 191.825,348.7954 191.5864,349.1935 191.3099,349.5664 190.9981,349.9103 190.6542,350.222 190.2814,350.4985 189.8832,350.7372 189.4636,350.9356 189.0266,351.092 188.5763,351.2048 188.1172,351.2729 187.6535,351.2957 187.1899,351.2729 186.7308,351.2048 186.2805,351.092 185.8435,350.9356 185.4238,350.7372 185.0257,350.4985 184.6529,350.222 184.3089,349.9103 183.9972,349.5664 183.7207,349.1935 183.4821,348.7954 183.2836,348.3758 183.1272,347.9387 183.0145,347.4885 182.9463,347.0293 182.9236,346.5657 182.9463,346.1021 183.0145,345.6429 183.1272,345.1927 183.2836,344.7556 183.4821,344.336 183.7207,343.9379 183.9972,343.565 184.3089,343.2211 184.6529,342.9094 185.0257,342.6329 185.4238,342.3942 185.8435,342.1958 186.2805,342.0394 186.7308,341.9266"/>
    <polygon points="124.1483,334.8461 123.992,335.2831 123.7935,335.7027 123.5549,336.1009 123.2784,336.4737 122.9666,336.8176 122.6227,337.1294 122.2499,337.4059 121.8517,337.6445 121.4321,337.843 120.9951,337.9993 120.5448,338.1121 120.0857,338.1802 119.622,338.203 119.1584,338.1802 118.6993,338.1121 118.249,337.9993 117.812,337.843 117.3924,337.6445 116.9942,337.4059 116.6214,337.1294 116.2775,336.8176 115.9657,336.4737 115.6892,336.1009 115.4506,335.7027 115.2521,335.2831 115.0957,334.8461 114.983,334.3958 114.9149,333.9367 114.8921,333.473 114.9149,333.0094 114.983,332.5503 115.0957,332.1 115.2521,331.663 115.4506,331.2433 115.6892,330.8452 115.9657,330.4724 116.2775,330.1284 116.6214,329.8167 116.9942,329.5402 117.3924,329.3016 117.812,329.1031 118.249,328.9467 118.6993,328.8339 119.1584,328.7658 119.622,328.7431 120.0857,328.7658 120.5448,328.8339 120.9951,328.9467 121.4321,329.1031 121.8517,329.3016 122.2499,329.5402 122.6227,329.8167 122.9666,330.1284 123.2784,330.4724 123.5549,330.8452 123.7935,331.2433 123.992,331.663 124.1483,332.1 124.2611,332.5503 124.3292,333.0094 124.352,333.473 124.3292,333.9367 124.2611,334.3958"/>
    <polygon points="126.7892,329.1564 126.5907,328.7368 126.4343,328.2997 126.3215,327.8495 126.2534,327.3903 126.2307,326.9267 126.2534,326.4631 126.3215,326.0039 126.4343,325.5537 126.5907,325.1166 126.7892,324.697 127.0278,324.2989 127.3043,323.926 127.616,323.5821 127.96,323.2704 128.3328,322.9939 128.7309,322.7552 129.1505,322.5568 129.5876,322.4004 130.0379,322.2876 130.497,322.2195 130.9606,322.1967 131.4242,322.2195 131.8834,322.2876 132.3337,322.4004 132.7707,322.5568 133.1903,322.7552 133.5885,322.9939 133.9613,323.2704 134.3052,323.5821 134.6169,323.926 134.8935,324.2989 135.1321,324.697 135.3306,325.1166 135.4869,325.5537 135.5997,326.0039 135.6678,326.4631 135.6906,326.9267 135.6678,327.3903 135.5997,327.8495 135.4869,328.2997 135.3306,328.7368 135.1321,329.1564 134.8935,329.5545 134.6169,329.9274 134.3052,330.2713 133.9613,330.583 133.5885,330.8595 133.1903,331.0982 132.7707,331.2966 132.3337,331.453 131.8834,331.5658 131.4242,331.6339 130.9606,331.6567 130.497,331.6339 130.0379,331.5658 129.5876,331.453 129.1505,331.2966 128.7309,331.0982 128.3328,330.8595 127.96,330.583 127.616,330.2713 127.3043,329.9274 127.0278,329.5545"/>
    <polygon points="126.3215,299.8186 126.4343,299.3683 126.5907,298.9313 126.7892,298.5117 127.0278,298.1135 127.3043,297.7407 127.616,297.3968 127.96,297.085 128.3328,296.8085 128.7309,296.5699 129.1505,296.3714 129.5876,296.2151 130.0379,296.1023 130.497,296.0342 130.9606,296.0114 131.4242,296.0342 131.8834,296.1023 132.3337,296.2151 132.7707,296.3714 133.1903,296.5699 133.5885,296.8085 133.9613,297.085 134.3052,297.3968 134.6169,297.7407 134.8935,298.1135 135.1321,298.5117 135.3306,298.9313 135.4869,299.3683 135.5997,299.8186 135.6678,300.2777 135.6906,300.7414 135.6678,301.205 135.5997,301.6641 135.4869,302.1144 135.3306,302.5514 135.1321,302.9711 134.8935,303.3692 134.6169,303.742 134.3052,304.086 133.9613,304.3977 133.5885,304.6742 133.1903,304.9128 132.7707,305.1113 132.3337,305.2677 131.8834,305.3805 131.4242,305.4486 130.9606,305.4713 130.497,305.4486 130.0379,305.3805 129.5876,305.2677 129.1505,305.1113 128.7309,304.9128 128.3328,304.6742 127.96,304.3977 127.616,304.086 127.3043,303.742 127.0278,303.3692 126.7892,302.9711 126.5907,302.5514 126.4343,302.1144 126.3215,301.6641 126.2534,301.205 126.2307,300.7414 126.2534,300.2777"/>
    <polygon points="148.2786,302.7744 149.3521,303.0433 150.394,303.4161 151.3944,303.8892 152.3435,304.4581 153.2324,305.1173 154.0523,305.8605 154.7954,306.6804 155.4546,307.5693 156.0236,308.5184 156.4967,309.5188 156.8695,310.5607 157.1384,311.6341 157.3007,312.7288 157.355,313.834 157.3007,314.9393 157.1384,316.0339 156.8695,317.1074 156.4967,318.1493 156.0236,319.1496 155.4546,320.0988 154.7954,320.9876 154.0523,321.8076 153.2324,322.5507 152.3435,323.2099 151.3944,323.7788 150.394,324.252 149.3521,324.6248 148.2786,324.8937 147.184,325.056 146.0787,325.1103 144.9735,325.056 143.8788,324.8937 142.8054,324.6248 141.7635,324.252 140.7631,323.7788 139.814,323.2099 138.9251,322.5507 138.1052,321.8076 137.362,320.9876 136.7028,320.0988 136.1339,319.1496 135.6608,318.1493 135.288,317.1074 135.0191,316.0339 134.8567,314.9393 134.8024,313.834 134.8567,312.7288 135.0191,311.6341 135.288,310.5607 135.6608,309.5188 136.1339,308.5184 136.7028,307.5693 137.362,306.6804 138.1052,305.8605 138.9251,305.1173 139.814,304.4581 140.7631,303.8892 141.7635,303.4161 142.8054,303.0433 143.8788,302.7744 144.9735,302.612 146.0787,302.5577 147.184,302.612"/>
    <polygon points="154.5606,283.0096 155.0108,283.1224 155.4479,283.2788 155.8675,283.4772 156.2656,283.7159 156.6385,283.9924 156.9824,284.3041 157.2941,284.648 157.5706,285.0209 157.8093,285.419 158.0077,285.8386 158.1641,286.2757 158.2769,286.7259 158.345,287.1851 158.3678,287.6487 158.345,288.1123 158.2769,288.5715 158.1641,289.0217 158.0077,289.4588 157.8093,289.8784 157.5706,290.2765 157.2941,290.6494 156.9824,290.9933 156.6385,291.305 156.2656,291.5815 155.8675,291.8202 155.4479,292.0186 155.0108,292.175 154.5606,292.2878 154.1014,292.3559 153.6378,292.3787 153.1742,292.3559 152.715,292.2878 152.2648,292.175 151.8277,292.0186 151.4081,291.8202 151.01,291.5815 150.6371,291.305 150.2932,290.9933 149.9815,290.6494 149.705,290.2765 149.4663,289.8784 149.2679,289.4588 149.1115,289.0217 148.9987,288.5715 148.9306,288.1123 148.9078,287.6487 148.9306,287.1851 148.9987,286.7259 149.1115,286.2757 149.2679,285.8386 149.4663,285.419 149.705,285.0209 149.9815,284.648 150.2932,284.3041 150.6371,283.9924 151.01,283.7159 151.4081,283.4772 151.8277,283.2788 152.2648,283.1224 152.715,283.0096 153.1742,282.9415 153.6378,282.9187 154.1014,282.9415"/>
    <polygon points="173.0712,290.3234 174.0715,290.7965 175.0207,291.3655 175.9095,292.0247 176.7295,292.7678 177.4726,293.5878 178.1318,294.4766 178.7007,295.4257 179.1739,296.4261 179.5467,297.468 179.8155,298.5415 179.9779,299.6361 180.0322,300.7414 179.9779,301.8466 179.8155,302.9413 179.5467,304.0147 179.1739,305.0566 178.7007,306.057 178.1318,307.0061 177.4726,307.895 176.7295,308.7149 175.9095,309.4581 175.0207,310.1173 174.0715,310.6862 173.0712,311.1593 172.0292,311.5321 170.9558,311.801 169.8612,311.9634 168.7559,312.0177 167.6506,311.9634 166.556,311.801 165.4826,311.5321 164.4406,311.1593 163.4403,310.6862 162.4911,310.1173 161.6023,309.4581 160.7824,308.7149 160.0392,307.895 159.38,307.0061 158.8111,306.057 158.338,305.0566 157.9652,304.0147 157.6963,302.9413 157.5339,301.8466 157.4796,300.7414 157.5339,299.6361 157.6963,298.5415 157.9652,297.468 158.338,296.4261 158.8111,295.4257 159.38,294.4766 160.0392,293.5878 160.7824,292.7678 161.6023,292.0247 162.4911,291.3655 163.4403,290.7965 164.4406,290.3234 165.4826,289.9506 166.556,289.6817 167.6506,289.5194 168.7559,289.4651 169.8612,289.5194 170.9558,289.6817 172.0292,289.9506"/>
    <polygon points="181.7607,291.7875 180.1547,290.0155 178.7301,288.0947 177.5006,286.0435 176.4781,283.8816 175.6725,281.63 175.0914,279.3102 174.7405,276.9446 174.6232,274.556 174.7405,272.1675 175.0914,269.8019 175.6725,267.4821 176.4781,265.2304 177.5006,263.0686 178.7301,261.0174 180.1547,259.0965 181.7607,257.3246 183.5326,255.7186 185.4534,254.294 187.5047,253.0645 189.6665,252.042 191.9182,251.2364 194.238,250.6553 196.6035,250.3044 198.9921,250.1871 201.3807,250.3044 203.7463,250.6553 206.0661,251.2364 208.3177,252.042 210.4796,253.0645 212.5308,254.294 214.4516,255.7186 216.2236,257.3246 217.8296,259.0965 219.2542,261.0174 220.4836,263.0686 221.5061,265.2304 222.3118,267.4821 222.8929,269.8019 223.2438,272.1675 223.3611,274.556 223.2438,276.9446 222.8929,279.3102 222.3118,281.63 221.5061,283.8816 220.4836,286.0435 219.2542,288.0947 217.8296,290.0155 216.2236,291.7875 214.4516,293.3935 212.5308,294.8181 210.4796,296.0475 208.3177,297.07 206.0661,297.8757 203.7463,298.4568 201.3807,298.8077 198.9921,298.925 196.6035,298.8077 194.238,298.4568 191.9182,297.8757 189.6665,297.07 187.5047,296.0475 185.4534,294.8181 183.5326,293.3935"/>
    <polygon points="226.8426,266.779 227.4115,267.7281 228.0707,268.617 228.8138,269.4369 229.6338,270.1801 230.5226,270.8393 231.4718,271.4082 232.4721,271.8813 233.5141,272.2541 234.5875,272.523 235.6821,272.6854 236.7874,272.7397 237.8927,272.6854 238.9873,272.523 240.0607,272.2541 241.1027,271.8813 242.103,271.4082 243.0522,270.8393 243.941,270.1801 244.761,269.4369 245.5041,268.617 246.1633,267.7281 246.7322,266.779 247.2054,265.7786 247.5782,264.7367 247.847,263.6633 248.0094,262.5686 248.0637,261.4634 248.0094,260.3581 247.847,259.2635 247.5782,258.19 247.2054,257.1481 246.7322,256.1477 246.1633,255.1986 245.5041,254.3097 244.761,253.4898 243.941,252.7467 243.0522,252.0875 242.103,251.5185 241.1027,251.0454 240.0607,250.6726 238.9873,250.4037 237.8927,250.2414 236.7874,250.1871 235.6821,250.2414 234.5875,250.4037 233.5141,250.6726 232.4721,251.0454 231.4718,251.5185 230.5226,252.0875 229.6338,252.7467 228.8138,253.4898 228.0707,254.3097 227.4115,255.1986 226.8426,256.1477 226.3695,257.1481 225.9966,258.19 225.7278,259.2635 225.5654,260.3581 225.5111,261.4634 225.5654,262.5686 225.7278,263.6633 225.9966,264.7367 226.3695,265.7786"/>
    <polygon points="180.3734,237.4779 180.6423,238.5514 181.0151,239.5933 181.4883,240.5936 182.0572,241.5428 182.7164,242.4316 183.4595,243.2516 184.2795,243.9947 185.1683,244.6539 186.1175,245.2228 187.1178,245.696 188.1597,246.0688 189.2332,246.3377 190.3278,246.5 191.4331,246.5543 192.5383,246.5 193.633,246.3377 194.7064,246.0688 195.7483,245.696 196.7487,245.2228 197.6979,244.6539 198.5867,243.9947 199.4066,243.2516 200.1498,242.4316 200.809,241.5428 201.3779,240.5936 201.851,239.5933 202.2238,238.5514 202.4927,237.4779 202.6551,236.3833 202.7094,235.278 202.6551,234.1728 202.4927,233.0781 202.2238,232.0047 201.851,230.9628 201.3779,229.9624 200.809,229.0132 200.1498,228.1244 199.4066,227.3045 198.5867,226.5613 197.6979,225.9021 196.7487,225.3332 195.7483,224.8601 194.7064,224.4873 193.633,224.2184 192.5383,224.056 191.4331,224.0017 190.3278,224.056 189.2332,224.2184 188.1597,224.4873 187.1178,224.8601 186.1175,225.3332 185.1683,225.9021 184.2795,226.5613 183.4595,227.3045 182.7164,228.1244 182.0572,229.0132 181.4883,229.9624 181.0151,230.9628 180.6423,232.0047 180.3734,233.0781 180.2111,234.1728 180.1568,235.278 180.2111,236.3833"/>
    <polygon points="182.9236,215.639 182.9463,216.1026 183.0145,216.5618 183.1272,217.0121 183.2836,217.4491 183.4821,217.8687 183.7207,218.2669 183.9972,218.6397 184.3089,218.9836 184.6529,219.2953 185.0257,219.5719 185.4238,219.8105 185.8435,220.0089 186.2805,220.1653 186.7308,220.2781 187.1899,220.3462 187.6535,220.369 188.1172,220.3462 188.5763,220.2781 189.0266,220.1653 189.4636,220.0089 189.8832,219.8105 190.2814,219.5719 190.6542,219.2953 190.9981,218.9836 191.3099,218.6397 191.5864,218.2669 191.825,217.8687 192.0235,217.4491 192.1798,217.0121 192.2926,216.5618 192.3607,216.1026 192.3835,215.639 192.3607,215.1754 192.2926,214.7163 192.1798,214.266 192.0235,213.8289 191.825,213.4093 191.5864,213.0112 191.3099,212.6384 190.9981,212.2944 190.6542,211.9827 190.2814,211.7062 189.8832,211.4676 189.4636,211.2691 189.0266,211.1127 188.5763,210.9999 188.1172,210.9318 187.6535,210.9091 187.1899,210.9318 186.7308,210.9999 186.2805,211.1127 185.8435,211.2691 185.4238,211.4676 185.0257,211.7062 184.6529,211.9827 184.3089,212.2944 183.9972,212.6384 183.7207,213.0112 183.4821,213.4093 183.2836,213.8289 183.1272,214.266 183.0145,214.7163 182.9463,215.1754"/>
    <polygon points="168.6327,231.7324 168.321,232.0763 167.977,232.388 167.6042,232.6645 167.2061,232.9032 166.7865,233.1016 166.3494,233.258 165.8991,233.3708 165.44,233.4389 164.9764,233.4617 164.5128,233.4389 164.0536,233.3708 163.6033,233.258 163.1663,233.1016 162.7467,232.9032 162.3485,232.6645 161.9757,232.388 161.6318,232.0763 161.3201,231.7324 161.0435,231.3595 160.8049,230.9614 160.6065,230.5418 160.4501,230.1047 160.3373,229.6545 160.2692,229.1953 160.2464,228.7317 160.2692,228.2681 160.3373,227.8089 160.4501,227.3587 160.6065,226.9216 160.8049,226.502 161.0435,226.1039 161.3201,225.731 161.6318,225.3871 161.9757,225.0754 162.3485,224.7989 162.7467,224.5602 163.1663,224.3618 163.6033,224.2054 164.0536,224.0926 164.5128,224.0245 164.9764,224.0017 165.44,224.0245 165.8991,224.0926 166.3494,224.2054 166.7865,224.3618 167.2061,224.5602 167.6042,224.7989 167.977,225.0754 168.321,225.3871 168.6327,225.731 168.9092,226.1039 169.1478,226.502 169.3463,226.9216 169.5027,227.3587 169.6155,227.8089 169.6836,228.2681 169.7064,228.7317 169.6836,229.1953 169.6155,229.6545 169.5027,230.1047 169.3463,230.5418 169.1478,230.9614 168.9092,231.3595"/>
    <polygon points="167.6506,237.1487 168.7559,237.0944 169.8612,237.1487 170.9558,237.3111 172.0292,237.5799 173.0712,237.9527 174.0715,238.4259 175.0207,238.9948 175.9095,239.654 176.7295,240.3971 177.4726,241.2171 178.1318,242.1059 178.7007,243.0551 179.1739,244.0554 179.5467,245.0974 179.8155,246.1708 179.9779,247.2654 180.0322,248.3707 179.9779,249.476 179.8155,250.5706 179.5467,251.644 179.1739,252.6859 178.7007,253.6863 178.1318,254.6355 177.4726,255.5243 176.7295,256.3442 175.9095,257.0874 175.0207,257.7466 174.0715,258.3155 173.0712,258.7886 172.0292,259.1614 170.9558,259.4303 169.8612,259.5927 168.7559,259.647 167.6506,259.5927 166.556,259.4303 165.4826,259.1614 164.4406,258.7886 163.4403,258.3155 162.4911,257.7466 161.6023,257.0874 160.7824,256.3442 160.0392,255.5243 159.38,254.6355 158.8111,253.6863 158.338,252.6859 157.9652,251.644 157.6963,250.5706 157.5339,249.476 157.4796,248.3707 157.5339,247.2654 157.6963,246.1708 157.9652,245.0974 158.338,244.0554 158.8111,243.0551 159.38,242.1059 160.0392,241.2171 160.7824,240.3971 161.6023,239.654 162.4911,238.9948 163.4403,238.4259 164.4406,237.9527 165.4826,237.5799 166.556,237.3111"/>
    <polygon points="149.9815,225.186 149.705,224.8132 149.4663,224.4151 149.2679,223.9954 149.1115,223.5584 148.9987,223.1081 148.9306,222.649 148.9078,222.1854 148.9306,221.7217 148.9987,221.2626 149.1115,220.8123 149.2679,220.3753 149.4663,219.9557 149.705,219.5575 149.9815,219.1847 150.2932,218.8408 150.6371,218.529 151.01,218.2525 151.4081,218.0139 151.8277,217.8154 152.2648,217.6591 152.715,217.5463 153.1742,217.4782 153.6378,217.4554 154.1014,217.4782 154.5606,217.5463 155.0108,217.6591 155.4479,217.8154 155.8675,218.0139 156.2656,218.2525 156.6385,218.529 156.9824,218.8408 157.2941,219.1847 157.5706,219.5575 157.8093,219.9557 158.0077,220.3753 158.1641,220.8123 158.2769,221.2626 158.345,221.7217 158.3678,222.1854 158.345,222.649 158.2769,223.1081 158.1641,223.5584 158.0077,223.9954 157.8093,224.4151 157.5706,224.8132 157.2941,225.186 156.9824,225.53 156.6385,225.8417 156.2656,226.1182 155.8675,226.3568 155.4479,226.5553 155.0108,226.7117 154.5606,226.8244 154.1014,226.8926 153.6378,226.9153 153.1742,226.8926 152.715,226.8244 152.2648,226.7117 151.8277,226.5553 151.4081,226.3568 151.01,226.1182 150.6371,225.8417 150.2932,225.53"/>
    <polygon points="149.705,232.6502 149.9815,232.2774 150.2932,231.9334 150.6371,231.6217 151.01,231.3452 151.4081,231.1066 151.8277,230.9081 152.2648,230.7517 152.715,230.6389 153.1742,230.5708 153.6378,230.5481 154.1014,230.5708 154.5606,230.6389 155.0108,230.7517 155.4479,230.9081 155.8675,231.1066 156.2656,231.3452 156.6385,231.6217 156.9824,231.9334 157.2941,232.2774 157.5706,232.6502 157.8093,233.0483 158.0077,233.4679 158.1641,233.905 158.2769,234.3553 158.345,234.8144 158.3678,235.278 158.345,235.7416 158.2769,236.2008 158.1641,236.6511 158.0077,237.0881 157.8093,237.5077 157.5706,237.9059 157.2941,238.2787 156.9824,238.6226 156.6385,238.9343 156.2656,239.2109 155.8675,239.4495 155.4479,239.648 155.0108,239.8043 154.5606,239.9171 154.1014,239.9852 153.6378,240.008 153.1742,239.9852 152.715,239.9171 152.2648,239.8043 151.8277,239.648 151.4081,239.4495 151.01,239.2109 150.6371,238.9343 150.2932,238.6226 149.9815,238.2787 149.705,237.9059 149.4663,237.5077 149.2679,237.0881 149.1115,236.6511 148.9987,236.2008 148.9306,235.7416 148.9078,235.278 148.9306,234.8144 148.9987,234.3553 149.1115,233.905 149.2679,233.4679 149.4663,233.0483"/>
    <polygon points="145.2999,245.4807 145.6438,245.169 145.9555,244.825 146.232,244.4522 146.4707,244.0541 146.6691,243.6344 146.8255,243.1974 146.9383,242.7471 147.0064,242.288 147.0292,241.8244 147.0064,241.3607 146.9383,240.9016 146.8255,240.4513 146.6691,240.0143 146.4707,239.5947 146.232,239.1965 145.9555,238.8237 145.6438,238.4798 145.2999,238.168 144.927,237.8915 144.5289,237.6529 144.1093,237.4544 143.6723,237.2981 143.222,237.1853 142.7628,237.1172 142.2992,237.0944 141.8356,237.1172 141.3764,237.1853 140.9262,237.2981 140.4891,237.4544 140.0695,237.6529 139.6714,237.8915 139.2985,238.168 138.9546,238.4798 138.6429,238.8237 138.3664,239.1965 138.1277,239.5947 137.9293,240.0143 137.7729,240.4513 137.6601,240.9016 137.592,241.3607 137.5692,241.8244 137.592,242.288 137.6601,242.7471 137.7729,243.1974 137.9293,243.6344 138.1277,244.0541 138.3664,244.4522 138.6429,244.825 138.9546,245.169 139.2985,245.4807 139.6714,245.7572 140.0695,245.9958 140.4891,246.1943 140.9262,246.3507 141.3764,246.4634 141.8356,246.5316 142.2992,246.5543 142.7628,246.5316 143.222,246.4634 143.6723,246.3507 144.1093,246.1943 144.5289,245.9958 144.927,245.7572"/>
    <polygon points="135.5997,247.4479 135.4869,246.9977 135.3306,246.5606 135.1321,246.141 134.8935,245.7429 134.6169,245.37 134.3052,245.0261 133.9613,244.7144 133.5885,244.4379 133.1903,244.1992 132.7707,244.0008 132.3337,243.8444 131.8834,243.7316 131.4242,243.6635 130.9606,243.6407 130.497,243.6635 130.0379,243.7316 129.5876,243.8444 129.1505,244.0008 128.7309,244.1992 128.3328,244.4379 127.96,244.7144 127.616,245.0261 127.3043,245.37 127.0278,245.7429 126.7892,246.141 126.5907,246.5606 126.4343,246.9977 126.3215,247.4479 126.2534,247.9071 126.2307,248.3707 126.2534,248.8343 126.3215,249.2935 126.4343,249.7437 126.5907,250.1808 126.7892,250.6004 127.0278,250.9985 127.3043,251.3714 127.616,251.7153 127.96,252.027 128.3328,252.3035 128.7309,252.5422 129.1505,252.7406 129.5876,252.897 130.0379,253.0098 130.497,253.0779 130.9606,253.1007 131.4242,253.0779 131.8834,253.0098 132.3337,252.897 132.7707,252.7406 133.1903,252.5422 133.5885,252.3035 133.9613,252.027 134.3052,251.7153 134.6169,251.3714 134.8935,250.9985 135.1321,250.6004 135.3306,250.1808 135.4869,249.7437 135.5997,249.2935 135.6678,248.8343 135.6906,248.3707 135.6678,247.9071"/>
  </g>
</svg>
