<?xml version="1.0" encoding="utf-8" ?>
<svg xmlns="http://www.w3.org/2000/svg" xmlns:cc="http://creativecommons.org/ns" xmlns:dc="http://purl.org/dc/elements/1.1/" xmlns:ev="http://www.w3.org/2001/xml-events" xmlns:inkscape="http://www.inkscape.org/namespaces/inkscape" xmlns:rdf="http://www.w3.org/1999/02/22-rdf-syntax-ns" xmlns:sodipodi="http://sodipodi.sourceforge.net/DTD/sodipodi-0.dtd" xmlns:xlink="http://www.w3.org/1999/xlink" baseProfile="tiny" height="15.875cm" version="1.2" viewBox="0 0 432.0 600.0" width="11.43cm">
  <metadata>
    <rdf:RDF>
      <cc:Work>
        <dc:format>image/svg+xml</dc:format>
        <dc:source>vsk save -s 235 -c hex-grid/config/bubble-coasters-2.json /Users/tobin/src/fabian/plotting/fabian-plotting/hex-grid/sketch_hex_grid.py</dc:source>
        <dc:date>2023-11-11T11:30:23.634326</dc:date>
      </cc:Work>
    </rdf:RDF>
  </metadata>
  <defs/>
  <g fill="none" id="layer1" inkscape:groupmode="layer" inkscape:label="1" stroke="#000000" stroke-width="0.7559" style="display:inline">
    <polygon points="254.542,262.8364 254.3857,263.2734 254.1872,263.6931 253.9486,264.0912 253.6721,264.464 253.3603,264.808 253.0164,265.1197 252.6436,265.3962 252.2454,265.6348 251.8258,265.8333 251.3888,265.9897 250.9385,266.1024 250.4794,266.1706 250.0157,266.1933 249.5521,266.1706 249.093,266.1024 248.6427,265.9897 248.2057,265.8333 247.7861,265.6348 247.3879,265.3962 247.0151,265.1197 246.6712,264.808 246.3594,264.464 246.0829,264.0912 245.8443,263.6931 245.6458,263.2734 245.4894,262.8364 245.3767,262.3861 245.3086,261.927 245.2858,261.4634 245.3086,260.9997 245.3767,260.5406 245.4894,260.0903 245.6458,259.6533 245.8443,259.2337 246.0829,258.8355 246.3594,258.4627 246.6712,258.1188 247.0151,257.807 247.3879,257.5305 247.7861,257.2919 248.2057,257.0934 248.6427,256.9371 249.093,256.8243 249.5521,256.7562 250.0157,256.7334 250.4794,256.7562 250.9385,256.8243 251.3888,256.9371 251.8258,257.0934 252.2454,257.2919 252.6436,257.5305 253.0164,257.807 253.3603,258.1188 253.6721,258.4627 253.9486,258.8355 254.1872,259.2337 254.3857,259.6533 254.542,260.0903 254.6548,260.5406 254.7229,260.9997 254.7457,261.4634 254.7229,261.927 254.6548,262.3861"/>
    <polygon points="222.6995,262.3861 222.6314,261.927 222.6086,261.4634 222.6314,260.9997 222.6995,260.5406 222.8123,260.0903 222.9687,259.6533 223.1671,259.2337 223.4058,258.8355 223.6823,258.4627 223.994,258.1188 224.3379,257.807 224.7108,257.5305 225.1089,257.2919 225.5285,257.0934 225.9655,256.9371 226.4158,256.8243 226.875,256.7562 227.3386,256.7334 227.8022,256.7562 228.2614,256.8243 228.7116,256.9371 229.1487,257.0934 229.5683,257.2919 229.9664,257.5305 230.3392,257.807 230.6832,258.1188 230.9949,258.4627 231.2714,258.8355 231.51,259.2337 231.7085,259.6533 231.8649,260.0903 231.9777,260.5406 232.0458,260.9997 232.0686,261.4634 232.0458,261.927 231.9777,262.3861 231.8649,262.8364 231.7085,263.2734 231.51,263.6931 231.2714,264.0912 230.9949,264.464 230.6832,264.808 230.3392,265.1197 229.9664,265.3962 229.5683,265.6348 229.1487,265.8333 228.7116,265.9897 228.2614,266.1024 227.8022,266.1706 227.3386,266.1933 226.875,266.1706 226.4158,266.1024 225.9655,265.9897 225.5285,265.8333 225.1089,265.6348 224.7108,265.3962 224.3379,265.1197 223.994,264.808 223.6823,264.464 223.4058,264.0912 223.1671,263.6931 222.9687,263.2734 222.8123,262.8364"/>
    <polygon points="224.7108,278.4889 224.3379,278.2123 223.994,277.9006 223.6823,277.5567 223.4058,277.1839 223.1671,276.7857 222.9687,276.3661 222.8123,275.9291 222.6995,275.4788 222.6314,275.0196 222.6086,274.556 222.6314,274.0924 222.6995,273.6333 222.8123,273.183 222.9687,272.7459 223.1671,272.3263 223.4058,271.9282 223.6823,271.5554 223.994,271.2114 224.3379,270.8997 224.7108,270.6232 225.1089,270.3846 225.5285,270.1861 225.9655,270.0297 226.4158,269.9169 226.875,269.8488 227.3386,269.8261 227.8022,269.8488 228.2614,269.9169 228.7116,270.0297 229.1487,270.1861 229.5683,270.3846 229.9664,270.6232 230.3392,270.8997 230.6832,271.2114 230.9949,271.5554 231.2714,271.9282 231.51,272.3263 231.7085,272.7459 231.8649,273.183 231.9777,273.6333 232.0458,274.0924 232.0686,274.556 232.0458,275.0196 231.9777,275.4788 231.8649,275.9291 231.7085,276.3661 231.51,276.7857 231.2714,277.1839 230.9949,277.5567 230.6832,277.9006 230.3392,278.2123 229.9664,278.4889 229.5683,278.7275 229.1487,278.926 228.7116,279.0823 228.2614,279.1951 227.8022,279.2632 227.3386,279.286 226.875,279.2632 226.4158,279.1951 225.9655,279.0823 225.5285,278.926 225.1089,278.7275"/>
    <polygon points="232.2234,282.973 233.318,283.1354 234.3914,283.4043 235.4334,283.7771 236.4337,284.2502 237.3829,284.8191 238.2717,285.4783 239.0917,286.2215 239.8348,287.0414 240.494,287.9302 241.0629,288.8794 241.5361,289.8798 241.9089,290.9217 242.1777,291.9951 242.3401,293.0898 242.3944,294.195 242.3401,295.3003 242.1777,296.3949 241.9089,297.4684 241.5361,298.5103 241.0629,299.5106 240.494,300.4598 239.8348,301.3486 239.0917,302.1686 238.2717,302.9117 237.3829,303.5709 236.4337,304.1398 235.4334,304.613 234.3914,304.9858 233.318,305.2547 232.2234,305.417 231.1181,305.4713 230.0128,305.417 228.9182,305.2547 227.8448,304.9858 226.8029,304.613 225.8025,304.1398 224.8533,303.5709 223.9645,302.9117 223.1446,302.1686 222.4014,301.3486 221.7422,300.4598 221.1733,299.5106 220.7002,298.5103 220.3274,297.4684 220.0585,296.3949 219.8961,295.3003 219.8418,294.195 219.8961,293.0898 220.0585,291.9951 220.3274,290.9217 220.7002,289.8798 221.1733,288.8794 221.7422,287.9302 222.4014,287.0414 223.1446,286.2215 223.9645,285.4783 224.8533,284.8191 225.8025,284.2502 226.8029,283.7771 227.8448,283.4043 228.9182,283.1354 230.0128,282.973 231.1181,282.9187"/>
    <polygon points="259.1109,291.0472 258.1105,291.5203 257.0686,291.8931 255.9952,292.162 254.9005,292.3244 253.7953,292.3787 252.69,292.3244 251.5954,292.162 250.5219,291.8931 249.48,291.5203 248.4797,291.0472 247.5305,290.4783 246.6417,289.8191 245.8217,289.0759 245.0786,288.256 244.4194,287.3671 243.8505,286.418 243.3773,285.4176 243.0045,284.3757 242.7356,283.3023 242.5733,282.2076 242.519,281.1024 242.5733,279.9971 242.7356,278.9025 243.0045,277.829 243.3773,276.7871 243.8505,275.7867 244.4194,274.8376 245.0786,273.9487 245.8217,273.1288 246.6417,272.3857 247.5305,271.7265 248.4797,271.1575 249.48,270.6844 250.5219,270.3116 251.5954,270.0427 252.69,269.8804 253.7953,269.8261 254.9005,269.8804 255.9952,270.0427 257.0686,270.3116 258.1105,270.6844 259.1109,271.1575 260.0601,271.7265 260.9489,272.3857 261.7688,273.1288 262.512,273.9487 263.1712,274.8376 263.7401,275.7867 264.2132,276.7871 264.586,277.829 264.8549,278.9025 265.0173,279.9971 265.0716,281.1024 265.0173,282.2076 264.8549,283.3023 264.586,284.3757 264.2132,285.4176 263.7401,286.418 263.1712,287.3671 262.512,288.256 261.7688,289.0759 260.9489,289.8191 260.0601,290.4783"/>
    <polygon points="245.8217,315.2612 246.6417,316.0044 247.5305,316.6636 248.4797,317.2325 249.48,317.7056 250.5219,318.0784 251.5954,318.3473 252.69,318.5097 253.7953,318.564 254.9005,318.5097 255.9952,318.3473 257.0686,318.0784 258.1105,317.7056 259.1109,317.2325 260.0601,316.6636 260.9489,316.0044 261.7688,315.2612 262.512,314.4413 263.1712,313.5525 263.7401,312.6033 264.2132,311.603 264.586,310.561 264.8549,309.4876 265.0173,308.393 265.0716,307.2877 265.0173,306.1824 264.8549,305.0878 264.586,304.0144 264.2132,302.9724 263.7401,301.9721 263.1712,301.0229 262.512,300.1341 261.7688,299.3141 260.9489,298.571 260.0601,297.9118 259.1109,297.3429 258.1105,296.8697 257.0686,296.4969 255.9952,296.2281 254.9005,296.0657 253.7953,296.0114 252.69,296.0657 251.5954,296.2281 250.5219,296.4969 249.48,296.8697 248.4797,297.3429 247.5305,297.9118 246.6417,298.571 245.8217,299.3141 245.0786,300.1341 244.4194,301.0229 243.8505,301.9721 243.3773,302.9724 243.0045,304.0144 242.7356,305.0878 242.5733,306.1824 242.519,307.2877 242.5733,308.393 242.7356,309.4876 243.0045,310.561 243.3773,311.603 243.8505,312.6033 244.4194,313.5525 245.0786,314.4413"/>
    <polygon points="241.0629,315.0648 240.494,314.1156 239.8348,313.2268 239.0917,312.4068 238.2717,311.6637 237.3829,311.0045 236.4337,310.4356 235.4334,309.9624 234.3914,309.5896 233.318,309.3207 232.2234,309.1584 231.1181,309.1041 230.0128,309.1584 228.9182,309.3207 227.8448,309.5896 226.8029,309.9624 225.8025,310.4356 224.8533,311.0045 223.9645,311.6637 223.1446,312.4068 222.4014,313.2268 221.7422,314.1156 221.1733,315.0648 220.7002,316.0651 220.3274,317.107 220.0585,318.1805 219.8961,319.2751 219.8418,320.3804 219.8961,321.4856 220.0585,322.5803 220.3274,323.6537 220.7002,324.6956 221.1733,325.696 221.7422,326.6451 222.4014,327.534 223.1446,328.3539 223.9645,329.0971 224.8533,329.7563 225.8025,330.3252 226.8029,330.7983 227.8448,331.1711 228.9182,331.44 230.0128,331.6024 231.1181,331.6567 232.2234,331.6024 233.318,331.44 234.3914,331.1711 235.4334,330.7983 236.4337,330.3252 237.3829,329.7563 238.2717,329.0971 239.0917,328.3539 239.8348,327.534 240.494,326.6451 241.0629,325.696 241.5361,324.6956 241.9089,323.6537 242.1777,322.5803 242.3401,321.4856 242.3944,320.3804 242.3401,319.2751 242.1777,318.1805 241.9089,317.107 241.5361,316.0651"/>
    <polygon points="250.0157,331.6567 249.5521,331.6339 249.093,331.5658 248.6427,331.453 248.2057,331.2966 247.7861,331.0982 247.3879,330.8595 247.0151,330.583 246.6712,330.2713 246.3594,329.9274 246.0829,329.5545 245.8443,329.1564 245.6458,328.7368 245.4894,328.2997 245.3767,327.8495 245.3086,327.3903 245.2858,326.9267 245.3086,326.4631 245.3767,326.0039 245.4894,325.5537 245.6458,325.1166 245.8443,324.697 246.0829,324.2989 246.3594,323.926 246.6712,323.5821 247.0151,323.2704 247.3879,322.9939 247.7861,322.7552 248.2057,322.5568 248.6427,322.4004 249.093,322.2876 249.5521,322.2195 250.0157,322.1967 250.4794,322.2195 250.9385,322.2876 251.3888,322.4004 251.8258,322.5568 252.2454,322.7552 252.6436,322.9939 253.0164,323.2704 253.3603,323.5821 253.6721,323.926 253.9486,324.2989 254.1872,324.697 254.3857,325.1166 254.542,325.5537 254.6548,326.0039 254.7229,326.4631 254.7457,326.9267 254.7229,327.3903 254.6548,327.8495 254.542,328.2997 254.3857,328.7368 254.1872,329.1564 253.9486,329.5545 253.6721,329.9274 253.3603,330.2713 253.0164,330.583 252.6436,330.8595 252.2454,331.0982 251.8258,331.2966 251.3888,331.453 250.9385,331.5658 250.4794,331.6339"/>
    <polygon points="270.4632,318.0055 270.0651,317.7669 269.6923,317.4903 269.3483,317.1786 269.0366,316.8347 268.7601,316.4619 268.5214,316.0637 268.323,315.6441 268.1666,315.2071 268.0538,314.7568 267.9857,314.2976 267.9629,313.834 267.9857,313.3704 268.0538,312.9113 268.1666,312.461 268.323,312.0239 268.5214,311.6043 268.7601,311.2062 269.0366,310.8334 269.3483,310.4894 269.6923,310.1777 270.0651,309.9012 270.4632,309.6626 270.8828,309.4641 271.3199,309.3077 271.7701,309.1949 272.2293,309.1268 272.6929,309.1041 273.1565,309.1268 273.6157,309.1949 274.066,309.3077 274.503,309.4641 274.9226,309.6626 275.3207,309.9012 275.6936,310.1777 276.0375,310.4894 276.3492,310.8334 276.6257,311.2062 276.8644,311.6043 277.0628,312.0239 277.2192,312.461 277.332,312.9113 277.4001,313.3704 277.4229,313.834 277.4001,314.2976 277.332,314.7568 277.2192,315.2071 277.0628,315.6441 276.8644,316.0637 276.6257,316.4619 276.3492,316.8347 276.0375,317.1786 275.6936,317.4903 275.3207,317.7669 274.9226,318.0055 274.503,318.204 274.066,318.3603 273.6157,318.4731 273.1565,318.5412 272.6929,318.564 272.2293,318.5412 271.7701,318.4731 271.3199,318.3603 270.8828,318.204"/>
    <polygon points="288.7387,307.7513 288.6706,308.2105 288.5578,308.6607 288.4014,309.0978 288.203,309.5174 287.9643,309.9155 287.6878,310.2884 287.3761,310.6323 287.0322,310.944 286.6593,311.2205 286.2612,311.4592 285.8416,311.6576 285.4045,311.814 284.9543,311.9268 284.4951,311.9949 284.0315,312.0177 283.5679,311.9949 283.1087,311.9268 282.6585,311.814 282.2214,311.6576 281.8018,311.4592 281.4037,311.2205 281.0308,310.944 280.6869,310.6323 280.3752,310.2884 280.0987,309.9155 279.86,309.5174 279.6616,309.0978 279.5052,308.6607 279.3924,308.2105 279.3243,307.7513 279.3015,307.2877 279.3243,306.8241 279.3924,306.3649 279.5052,305.9147 279.6616,305.4776 279.86,305.058 280.0987,304.6599 280.3752,304.287 280.6869,303.9431 281.0308,303.6314 281.4037,303.3549 281.8018,303.1162 282.2214,302.9178 282.6585,302.7614 283.1087,302.6486 283.5679,302.5805 284.0315,302.5577 284.4951,302.5805 284.9543,302.6486 285.4045,302.7614 285.8416,302.9178 286.2612,303.1162 286.6593,303.3549 287.0322,303.6314 287.3761,303.9431 287.6878,304.287 287.9643,304.6599 288.203,305.058 288.4014,305.4776 288.5578,305.9147 288.6706,306.3649 288.7387,306.8241 288.7615,307.2877"/>
    <polygon points="298.7147,290.9933 298.3707,291.305 297.9979,291.5815 297.5998,291.8202 297.1802,292.0186 296.7431,292.175 296.2929,292.2878 295.8337,292.3559 295.3701,292.3787 294.9065,292.3559 294.4473,292.2878 293.997,292.175 293.56,292.0186 293.1404,291.8202 292.7422,291.5815 292.3694,291.305 292.0255,290.9933 291.7138,290.6494 291.4373,290.2765 291.1986,289.8784 291.0002,289.4588 290.8438,289.0217 290.731,288.5715 290.6629,288.1123 290.6401,287.6487 290.6629,287.1851 290.731,286.7259 290.8438,286.2757 291.0002,285.8386 291.1986,285.419 291.4373,285.0209 291.7138,284.648 292.0255,284.3041 292.3694,283.9924 292.7422,283.7159 293.1404,283.4772 293.56,283.2788 293.997,283.1224 294.4473,283.0096 294.9065,282.9415 295.3701,282.9187 295.8337,282.9415 296.2929,283.0096 296.7431,283.1224 297.1802,283.2788 297.5998,283.4772 297.9979,283.7159 298.3707,283.9924 298.7147,284.3041 299.0264,284.648 299.3029,285.0209 299.5415,285.419 299.74,285.8386 299.8964,286.2757 300.0092,286.7259 300.0773,287.1851 300.1001,287.6487 300.0773,288.1123 300.0092,288.5715 299.8964,289.0217 299.74,289.4588 299.5415,289.8784 299.3029,290.2765 299.0264,290.6494"/>
    <polygon points="288.6706,295.1178 288.5578,295.5681 288.4014,296.0051 288.203,296.4247 287.9643,296.8229 287.6878,297.1957 287.3761,297.5396 287.0322,297.8513 286.6593,298.1279 286.2612,298.3665 285.8416,298.565 285.4045,298.7213 284.9543,298.8341 284.4951,298.9022 284.0315,298.925 283.5679,298.9022 283.1087,298.8341 282.6585,298.7213 282.2214,298.565 281.8018,298.3665 281.4037,298.1279 281.0308,297.8513 280.6869,297.5396 280.3752,297.1957 280.0987,296.8229 279.86,296.4247 279.6616,296.0051 279.5052,295.5681 279.3924,295.1178 279.3243,294.6586 279.3015,294.195 279.3243,293.7314 279.3924,293.2723 279.5052,292.822 279.6616,292.3849 279.86,291.9653 280.0987,291.5672 280.3752,291.1944 280.6869,290.8504 281.0308,290.5387 281.4037,290.2622 281.8018,290.0236 282.2214,289.8251 282.6585,289.6687 283.1087,289.5559 283.5679,289.4878 284.0315,289.4651 284.4951,289.4878 284.9543,289.5559 285.4045,289.6687 285.8416,289.8251 286.2612,290.0236 286.6593,290.2622 287.0322,290.5387 287.3761,290.8504 287.6878,291.1944 287.9643,291.5672 288.203,291.9653 288.4014,292.3849 288.5578,292.822 288.6706,293.2723 288.7387,293.7314 288.7615,294.195 288.7387,294.6586"/>
    <polygon points="276.8644,289.8784 276.6257,290.2765 276.3492,290.6494 276.0375,290.9933 275.6936,291.305 275.3207,291.5815 274.9226,291.8202 274.503,292.0186 274.066,292.175 273.6157,292.2878 273.1565,292.3559 272.6929,292.3787 272.2293,292.3559 271.7701,292.2878 271.3199,292.175 270.8828,292.0186 270.4632,291.8202 270.0651,291.5815 269.6923,291.305 269.3483,290.9933 269.0366,290.6494 268.7601,290.2765 268.5214,289.8784 268.323,289.4588 268.1666,289.0217 268.0538,288.5715 267.9857,288.1123 267.9629,287.6487 267.9857,287.1851 268.0538,286.7259 268.1666,286.2757 268.323,285.8386 268.5214,285.419 268.7601,285.0209 269.0366,284.648 269.3483,284.3041 269.6923,283.9924 270.0651,283.7159 270.4632,283.4772 270.8828,283.2788 271.3199,283.1224 271.7701,283.0096 272.2293,282.9415 272.6929,282.9187 273.1565,282.9415 273.6157,283.0096 274.066,283.1224 274.503,283.2788 274.9226,283.4772 275.3207,283.7159 275.6936,283.9924 276.0375,284.3041 276.3492,284.648 276.6257,285.0209 276.8644,285.419 277.0628,285.8386 277.2192,286.2757 277.332,286.7259 277.4001,287.1851 277.4229,287.6487 277.4001,288.1123 277.332,288.5715 277.2192,289.0217 277.0628,289.4588"/>
    <polygon points="281.7881,277.9545 280.7877,278.4276 279.7458,278.8004 278.6723,279.0693 277.5777,279.2317 276.4724,279.286 275.3672,279.2317 274.2725,279.0693 273.1991,278.8004 272.1572,278.4276 271.1568,277.9545 270.2077,277.3856 269.3188,276.7264 268.4989,275.9832 267.7557,275.1633 267.0965,274.2745 266.5276,273.3253 266.0545,272.325 265.6817,271.283 265.4128,270.2096 265.2504,269.115 265.1961,268.0097 265.2504,266.9044 265.4128,265.8098 265.6817,264.7364 266.0545,263.6944 266.5276,262.6941 267.0965,261.7449 267.7557,260.8561 268.4989,260.0361 269.3188,259.293 270.2077,258.6338 271.1568,258.0649 272.1572,257.5917 273.1991,257.2189 274.2725,256.9501 275.3672,256.7877 276.4724,256.7334 277.5777,256.7877 278.6723,256.9501 279.7458,257.2189 280.7877,257.5917 281.7881,258.0649 282.7372,258.6338 283.6261,259.293 284.446,260.0361 285.1891,260.8561 285.8483,261.7449 286.4173,262.6941 286.8904,263.6944 287.2632,264.7364 287.5321,265.8098 287.6944,266.9044 287.7487,268.0097 287.6944,269.115 287.5321,270.2096 287.2632,271.283 286.8904,272.325 286.4173,273.3253 285.8483,274.2745 285.1891,275.1633 284.446,275.9832 283.6261,276.7264 282.7372,277.3856"/>
    <polygon points="299.8964,262.8364 299.74,263.2734 299.5415,263.6931 299.3029,264.0912 299.0264,264.464 298.7147,264.808 298.3707,265.1197 297.9979,265.3962 297.5998,265.6348 297.1802,265.8333 296.7431,265.9897 296.2929,266.1024 295.8337,266.1706 295.3701,266.1933 294.9065,266.1706 294.4473,266.1024 293.997,265.9897 293.56,265.8333 293.1404,265.6348 292.7422,265.3962 292.3694,265.1197 292.0255,264.808 291.7138,264.464 291.4373,264.0912 291.1986,263.6931 291.0002,263.2734 290.8438,262.8364 290.731,262.3861 290.6629,261.927 290.6401,261.4634 290.6629,260.9997 290.731,260.5406 290.8438,260.0903 291.0002,259.6533 291.1986,259.2337 291.4373,258.8355 291.7138,258.4627 292.0255,258.1188 292.3694,257.807 292.7422,257.5305 293.1404,257.2919 293.56,257.0934 293.997,256.9371 294.4473,256.8243 294.9065,256.7562 295.3701,256.7334 295.8337,256.7562 296.2929,256.8243 296.7431,256.9371 297.1802,257.0934 297.5998,257.2919 297.9979,257.5305 298.3707,257.807 298.7147,258.1188 299.0264,258.4627 299.3029,258.8355 299.5415,259.2337 299.74,259.6533 299.8964,260.0903 300.0092,260.5406 300.0773,260.9997 300.1001,261.4634 300.0773,261.927 300.0092,262.3861"/>
    <polygon points="280.0987,226.1039 280.3752,225.731 280.6869,225.3871 281.0308,225.0754 281.4037,224.7989 281.8018,224.5602 282.2214,224.3618 282.6585,224.2054 283.1087,224.0926 283.5679,224.0245 284.0315,224.0017 284.4951,224.0245 284.9543,224.0926 285.4045,224.2054 285.8416,224.3618 286.2612,224.5602 286.6593,224.7989 287.0322,225.0754 287.3761,225.3871 287.6878,225.731 287.9643,226.1039 288.203,226.502 288.4014,226.9216 288.5578,227.3587 288.6706,227.8089 288.7387,228.2681 288.7615,228.7317 288.7387,229.1953 288.6706,229.6545 288.5578,230.1047 288.4014,230.5418 288.203,230.9614 287.9643,231.3595 287.6878,231.7324 287.3761,232.0763 287.0322,232.388 286.6593,232.6645 286.2612,232.9032 285.8416,233.1016 285.4045,233.258 284.9543,233.3708 284.4951,233.4389 284.0315,233.4617 283.5679,233.4389 283.1087,233.3708 282.6585,233.258 282.2214,233.1016 281.8018,232.9032 281.4037,232.6645 281.0308,232.388 280.6869,232.0763 280.3752,231.7324 280.0987,231.3595 279.86,230.9614 279.6616,230.5418 279.5052,230.1047 279.3924,229.6545 279.3243,229.1953 279.3015,228.7317 279.3243,228.2681 279.3924,227.8089 279.5052,227.3587 279.6616,226.9216 279.86,226.502"/>
    <polygon points="275.3207,231.3452 275.6936,231.6217 276.0375,231.9334 276.3492,232.2774 276.6257,232.6502 276.8644,233.0483 277.0628,233.4679 277.2192,233.905 277.332,234.3553 277.4001,234.8144 277.4229,235.278 277.4001,235.7416 277.332,236.2008 277.2192,236.6511 277.0628,237.0881 276.8644,237.5077 276.6257,237.9059 276.3492,238.2787 276.0375,238.6226 275.6936,238.9343 275.3207,239.2109 274.9226,239.4495 274.503,239.648 274.066,239.8043 273.6157,239.9171 273.1565,239.9852 272.6929,240.008 272.2293,239.9852 271.7701,239.9171 271.3199,239.8043 270.8828,239.648 270.4632,239.4495 270.0651,239.2109 269.6923,238.9343 269.3483,238.6226 269.0366,238.2787 268.7601,237.9059 268.5214,237.5077 268.323,237.0881 268.1666,236.6511 268.0538,236.2008 267.9857,235.7416 267.9629,235.278 267.9857,234.8144 268.0538,234.3553 268.1666,233.905 268.323,233.4679 268.5214,233.0483 268.7601,232.6502 269.0366,232.2774 269.3483,231.9334 269.6923,231.6217 270.0651,231.3452 270.4632,231.1066 270.8828,230.9081 271.3199,230.7517 271.7701,230.6389 272.2293,230.5708 272.6929,230.5481 273.1565,230.5708 273.6157,230.6389 274.066,230.7517 274.503,230.9081 274.9226,231.1066"/>
    <polygon points="271.3199,243.8444 271.7701,243.7316 272.2293,243.6635 272.6929,243.6407 273.1565,243.6635 273.6157,243.7316 274.066,243.8444 274.503,244.0008 274.9226,244.1992 275.3207,244.4379 275.6936,244.7144 276.0375,245.0261 276.3492,245.37 276.6257,245.7429 276.8644,246.141 277.0628,246.5606 277.2192,246.9977 277.332,247.4479 277.4001,247.9071 277.4229,248.3707 277.4001,248.8343 277.332,249.2935 277.2192,249.7437 277.0628,250.1808 276.8644,250.6004 276.6257,250.9985 276.3492,251.3714 276.0375,251.7153 275.6936,252.027 275.3207,252.3035 274.9226,252.5422 274.503,252.7406 274.066,252.897 273.6157,253.0098 273.1565,253.0779 272.6929,253.1007 272.2293,253.0779 271.7701,253.0098 271.3199,252.897 270.8828,252.7406 270.4632,252.5422 270.0651,252.3035 269.6923,252.027 269.3483,251.7153 269.0366,251.3714 268.7601,250.9985 268.5214,250.6004 268.323,250.1808 268.1666,249.7437 268.0538,249.2935 267.9857,248.8343 267.9629,248.3707 267.9857,247.9071 268.0538,247.4479 268.1666,246.9977 268.323,246.5606 268.5214,246.141 268.7601,245.7429 269.0366,245.37 269.3483,245.0261 269.6923,244.7144 270.0651,244.4379 270.4632,244.1992 270.8828,244.0008"/>
    <polygon points="265.5258,239.5947 265.7243,240.0143 265.8806,240.4513 265.9934,240.9016 266.0615,241.3607 266.0843,241.8244 266.0615,242.288 265.9934,242.7471 265.8806,243.1974 265.7243,243.6344 265.5258,244.0541 265.2872,244.4522 265.0106,244.825 264.6989,245.169 264.355,245.4807 263.9822,245.7572 263.584,245.9958 263.1644,246.1943 262.7274,246.3507 262.2771,246.4634 261.8179,246.5316 261.3543,246.5543 260.8907,246.5316 260.4316,246.4634 259.9813,246.3507 259.5442,246.1943 259.1246,245.9958 258.7265,245.7572 258.3537,245.4807 258.0097,245.169 257.698,244.825 257.4215,244.4522 257.1829,244.0541 256.9844,243.6344 256.828,243.1974 256.7152,242.7471 256.6471,242.288 256.6244,241.8244 256.6471,241.3607 256.7152,240.9016 256.828,240.4513 256.9844,240.0143 257.1829,239.5947 257.4215,239.1965 257.698,238.8237 258.0097,238.4798 258.3537,238.168 258.7265,237.8915 259.1246,237.6529 259.5442,237.4544 259.9813,237.2981 260.4316,237.1853 260.8907,237.1172 261.3543,237.0944 261.8179,237.1172 262.2771,237.1853 262.7274,237.2981 263.1644,237.4544 263.584,237.6529 263.9822,237.8915 264.355,238.168 264.6989,238.4798 265.0106,238.8237 265.2872,239.1965"/>
    <polygon points="247.0151,238.9343 246.6712,238.6226 246.3594,238.2787 246.0829,237.9059 245.8443,237.5077 245.6458,237.0881 245.4894,236.6511 245.3767,236.2008 245.3086,235.7416 245.2858,235.278 245.3086,234.8144 245.3767,234.3553 245.4894,233.905 245.6458,233.4679 245.8443,233.0483 246.0829,232.6502 246.3594,232.2774 246.6712,231.9334 247.0151,231.6217 247.3879,231.3452 247.7861,231.1066 248.2057,230.9081 248.6427,230.7517 249.093,230.6389 249.5521,230.5708 250.0157,230.5481 250.4794,230.5708 250.9385,230.6389 251.3888,230.7517 251.8258,230.9081 252.2454,231.1066 252.6436,231.3452 253.0164,231.6217 253.3603,231.9334 253.6721,232.2774 253.9486,232.6502 254.1872,233.0483 254.3857,233.4679 254.542,233.905 254.6548,234.3553 254.7229,234.8144 254.7457,235.278 254.7229,235.7416 254.6548,236.2008 254.542,236.6511 254.3857,237.0881 254.1872,237.5077 253.9486,237.9059 253.6721,238.2787 253.3603,238.6226 253.0164,238.9343 252.6436,239.2109 252.2454,239.4495 251.8258,239.648 251.3888,239.8043 250.9385,239.9171 250.4794,239.9852 250.0157,240.008 249.5521,239.9852 249.093,239.9171 248.6427,239.8043 248.2057,239.648 247.7861,239.4495 247.3879,239.2109"/>
    <polygon points="234.0381,227.8089 234.1509,227.3587 234.3072,226.9216 234.5057,226.502 234.7443,226.1039 235.0208,225.731 235.3326,225.3871 235.6765,225.0754 236.0493,224.7989 236.4475,224.5602 236.8671,224.3618 237.3041,224.2054 237.7544,224.0926 238.2135,224.0245 238.6772,224.0017 239.1408,224.0245 239.5999,224.0926 240.0502,224.2054 240.4872,224.3618 240.9069,224.5602 241.305,224.7989 241.6778,225.0754 242.0218,225.3871 242.3335,225.731 242.61,226.1039 242.8486,226.502 243.0471,226.9216 243.2035,227.3587 243.3163,227.8089 243.3844,228.2681 243.4071,228.7317 243.3844,229.1953 243.3163,229.6545 243.2035,230.1047 243.0471,230.5418 242.8486,230.9614 242.61,231.3595 242.3335,231.7324 242.0218,232.0763 241.6778,232.388 241.305,232.6645 240.9069,232.9032 240.4872,233.1016 240.0502,233.258 239.5999,233.3708 239.1408,233.4389 238.6772,233.4617 238.2135,233.4389 237.7544,233.3708 237.3041,233.258 236.8671,233.1016 236.4475,232.9032 236.0493,232.6645 235.6765,232.388 235.3326,232.0763 235.0208,231.7324 234.7443,231.3595 234.5057,230.9614 234.3072,230.5418 234.1509,230.1047 234.0381,229.6545 233.97,229.1953 233.9472,228.7317 233.97,228.2681"/>
    <polygon points="226.4158,217.5463 225.9655,217.6591 225.5285,217.8154 225.1089,218.0139 224.7108,218.2525 224.3379,218.529 223.994,218.8408 223.6823,219.1847 223.4058,219.5575 223.1671,219.9557 222.9687,220.3753 222.8123,220.8123 222.6995,221.2626 222.6314,221.7217 222.6086,222.1854 222.6314,222.649 222.6995,223.1081 222.8123,223.5584 222.9687,223.9954 223.1671,224.4151 223.4058,224.8132 223.6823,225.186 223.994,225.53 224.3379,225.8417 224.7108,226.1182 225.1089,226.3568 225.5285,226.5553 225.9655,226.7117 226.4158,226.8244 226.875,226.8926 227.3386,226.9153 227.8022,226.8926 228.2614,226.8244 228.7116,226.7117 229.1487,226.5553 229.5683,226.3568 229.9664,226.1182 230.3392,225.8417 230.6832,225.53 230.9949,225.186 231.2714,224.8132 231.51,224.4151 231.7085,223.9954 231.8649,223.5584 231.9777,223.1081 232.0458,222.649 232.0686,222.1854 232.0458,221.7217 231.9777,221.2626 231.8649,220.8123 231.7085,220.3753 231.51,219.9557 231.2714,219.5575 230.9949,219.1847 230.6832,218.8408 230.3392,218.529 229.9664,218.2525 229.5683,218.0139 229.1487,217.8154 228.7116,217.6591 228.2614,217.5463 227.8022,217.4782 227.3386,217.4554 226.875,217.4782"/>
    <polygon points="231.8649,207.7197 231.7085,207.2826 231.51,206.863 231.2714,206.4649 230.9949,206.092 230.6832,205.7481 230.3392,205.4364 229.9664,205.1599 229.5683,204.9212 229.1487,204.7228 228.7116,204.5664 228.2614,204.4536 227.8022,204.3855 227.3386,204.3627 226.875,204.3855 226.4158,204.4536 225.9655,204.5664 225.5285,204.7228 225.1089,204.9212 224.7108,205.1599 224.3379,205.4364 223.994,205.7481 223.6823,206.092 223.4058,206.4649 223.1671,206.863 222.9687,207.2826 222.8123,207.7197 222.6995,208.1699 222.6314,208.6291 222.6086,209.0927 222.6314,209.5563 222.6995,210.0155 222.8123,210.4657 222.9687,210.9028 223.1671,211.3224 223.4058,211.7205 223.6823,212.0934 223.994,212.4373 224.3379,212.749 224.7108,213.0255 225.1089,213.2642 225.5285,213.4626 225.9655,213.619 226.4158,213.7318 226.875,213.7999 227.3386,213.8227 227.8022,213.7999 228.2614,213.7318 228.7116,213.619 229.1487,213.4626 229.5683,213.2642 229.9664,213.0255 230.3392,212.749 230.6832,212.4373 230.9949,212.0934 231.2714,211.7205 231.51,211.3224 231.7085,210.9028 231.8649,210.4657 231.9777,210.0155 232.0458,209.5563 232.0686,209.0927 232.0458,208.6291 231.9777,208.1699"/>
    <polygon points="233.97,203.01 234.0381,203.4691 234.1509,203.9194 234.3072,204.3564 234.5057,204.7761 234.7443,205.1742 235.0208,205.547 235.3326,205.891 235.6765,206.2027 236.0493,206.4792 236.4475,206.7178 236.8671,206.9163 237.3041,207.0727 237.7544,207.1854 238.2135,207.2536 238.6772,207.2763 239.1408,207.2536 239.5999,207.1854 240.0502,207.0727 240.4872,206.9163 240.9069,206.7178 241.305,206.4792 241.6778,206.2027 242.0218,205.891 242.3335,205.547 242.61,205.1742 242.8486,204.7761 243.0471,204.3564 243.2035,203.9194 243.3163,203.4691 243.3844,203.01 243.4071,202.5464 243.3844,202.0827 243.3163,201.6236 243.2035,201.1733 243.0471,200.7363 242.8486,200.3167 242.61,199.9185 242.3335,199.5457 242.0218,199.2018 241.6778,198.89 241.305,198.6135 240.9069,198.3749 240.4872,198.1764 240.0502,198.0201 239.5999,197.9073 239.1408,197.8392 238.6772,197.8164 238.2135,197.8392 237.7544,197.9073 237.3041,198.0201 236.8671,198.1764 236.4475,198.3749 236.0493,198.6135 235.6765,198.89 235.3326,199.2018 235.0208,199.5457 234.7443,199.9185 234.5057,200.3167 234.3072,200.7363 234.1509,201.1733 234.0381,201.6236 233.97,202.0827 233.9472,202.5464"/>
    <polygon points="220.3699,200.7363 220.1715,200.3167 219.9328,199.9185 219.6563,199.5457 219.3446,199.2018 219.0007,198.89 218.6278,198.6135 218.2297,198.3749 217.8101,198.1764 217.373,198.0201 216.9228,197.9073 216.4636,197.8392 216.0,197.8164 215.5364,197.8392 215.0772,197.9073 214.627,198.0201 214.1899,198.1764 213.7703,198.3749 213.3722,198.6135 212.9993,198.89 212.6554,199.2018 212.3437,199.5457 212.0672,199.9185 211.8285,200.3167 211.6301,200.7363 211.4737,201.1733 211.3609,201.6236 211.2928,202.0827 211.27,202.5464 211.2928,203.01 211.3609,203.4691 211.4737,203.9194 211.6301,204.3564 211.8285,204.7761 212.0672,205.1742 212.3437,205.547 212.6554,205.891 212.9993,206.2027 213.3722,206.4792 213.7703,206.7178 214.1899,206.9163 214.627,207.0727 215.0772,207.1854 215.5364,207.2536 216.0,207.2763 216.4636,207.2536 216.9228,207.1854 217.373,207.0727 217.8101,206.9163 218.2297,206.7178 218.6278,206.4792 219.0007,206.2027 219.3446,205.891 219.6563,205.547 219.9328,205.1742 220.1715,204.7761 220.3699,204.3564 220.5263,203.9194 220.6391,203.4691 220.7072,203.01 220.73,202.5464 220.7072,202.0827 220.6391,201.6236 220.5263,201.1733"/>
    <polygon points="206.4715,204.7228 206.0345,204.5664 205.5842,204.4536 205.125,204.3855 204.6614,204.3627 204.1978,204.3855 203.7386,204.4536 203.2884,204.5664 202.8513,204.7228 202.4317,204.9212 202.0336,205.1599 201.6608,205.4364 201.3168,205.7481 201.0051,206.092 200.7286,206.4649 200.49,206.863 200.2915,207.2826 200.1351,207.7197 200.0223,208.1699 199.9542,208.6291 199.9314,209.0927 199.9542,209.5563 200.0223,210.0155 200.1351,210.4657 200.2915,210.9028 200.49,211.3224 200.7286,211.7205 201.0051,212.0934 201.3168,212.4373 201.6608,212.749 202.0336,213.0255 202.4317,213.2642 202.8513,213.4626 203.2884,213.619 203.7386,213.7318 204.1978,213.7999 204.6614,213.8227 205.125,213.7999 205.5842,213.7318 206.0345,213.619 206.4715,213.4626 206.8911,213.2642 207.2892,213.0255 207.6621,212.749 208.006,212.4373 208.3177,212.0934 208.5942,211.7205 208.8329,211.3224 209.0313,210.9028 209.1877,210.4657 209.3005,210.0155 209.3686,209.5563 209.3914,209.0927 209.3686,208.6291 209.3005,208.1699 209.1877,207.7197 209.0313,207.2826 208.8329,206.863 208.5942,206.4649 208.3177,206.092 208.006,205.7481 207.6621,205.4364 207.2892,205.1599 206.8911,204.9212"/>
    <polygon points="206.241,217.6721 205.1676,217.9409 204.1257,218.3137 203.1253,218.7869 202.1762,219.3558 201.2873,220.015 200.4674,220.7581 199.7242,221.5781 199.065,222.4669 198.4961,223.4161 198.023,224.4164 197.6502,225.4584 197.3813,226.5318 197.2189,227.6264 197.1646,228.7317 197.2189,229.837 197.3813,230.9316 197.6502,232.005 198.023,233.0469 198.4961,234.0473 199.065,234.9965 199.7242,235.8853 200.4674,236.7052 201.2873,237.4484 202.1762,238.1076 203.1253,238.6765 204.1257,239.1496 205.1676,239.5224 206.241,239.7913 207.3357,239.9537 208.4409,240.008 209.5462,239.9537 210.6408,239.7913 211.7143,239.5224 212.7562,239.1496 213.7566,238.6765 214.7057,238.1076 215.5946,237.4484 216.4145,236.7052 217.1576,235.8853 217.8169,234.9965 218.3858,234.0473 218.8589,233.0469 219.2317,232.005 219.5006,230.9316 219.663,229.837 219.7173,228.7317 219.663,227.6264 219.5006,226.5318 219.2317,225.4584 218.8589,224.4164 218.3858,223.4161 217.8169,222.4669 217.1576,221.5781 216.4145,220.7581 215.5946,220.015 214.7057,219.3558 213.7566,218.7869 212.7562,218.3137 211.7143,217.9409 210.6408,217.6721 209.5462,217.5097 208.4409,217.4554 207.3357,217.5097"/>
    <polygon points="192.4001,237.1853 192.8592,237.1172 193.3228,237.0944 193.7865,237.1172 194.2456,237.1853 194.6959,237.2981 195.1329,237.4544 195.5525,237.6529 195.9507,237.8915 196.3235,238.168 196.6674,238.4798 196.9792,238.8237 197.2557,239.1965 197.4943,239.5947 197.6928,240.0143 197.8491,240.4513 197.9619,240.9016 198.03,241.3607 198.0528,241.8244 198.03,242.288 197.9619,242.7471 197.8491,243.1974 197.6928,243.6344 197.4943,244.0541 197.2557,244.4522 196.9792,244.825 196.6674,245.169 196.3235,245.4807 195.9507,245.7572 195.5525,245.9958 195.1329,246.1943 194.6959,246.3507 194.2456,246.4634 193.7865,246.5316 193.3228,246.5543 192.8592,246.5316 192.4001,246.4634 191.9498,246.3507 191.5128,246.1943 191.0931,245.9958 190.695,245.7572 190.3222,245.4807 189.9782,245.169 189.6665,244.825 189.39,244.4522 189.1514,244.0541 188.9529,243.6344 188.7965,243.1974 188.6837,242.7471 188.6156,242.288 188.5929,241.8244 188.6156,241.3607 188.6837,240.9016 188.7965,240.4513 188.9529,240.0143 189.1514,239.5947 189.39,239.1965 189.6665,238.8237 189.9782,238.4798 190.3222,238.168 190.695,237.8915 191.0931,237.6529 191.5128,237.4544 191.9498,237.2981"/>
    <polygon points="188.9529,217.4491 188.7965,217.0121 188.6837,216.5618 188.6156,216.1026 188.5929,215.639 188.6156,215.1754 188.6837,214.7163 188.7965,214.266 188.9529,213.8289 189.1514,213.4093 189.39,213.0112 189.6665,212.6384 189.9782,212.2944 190.3222,211.9827 190.695,211.7062 191.0931,211.4676 191.5128,211.2691 191.9498,211.1127 192.4001,210.9999 192.8592,210.9318 193.3228,210.9091 193.7865,210.9318 194.2456,210.9999 194.6959,211.1127 195.1329,211.2691 195.5525,211.4676 195.9507,211.7062 196.3235,211.9827 196.6674,212.2944 196.9792,212.6384 197.2557,213.0112 197.4943,213.4093 197.6928,213.8289 197.8491,214.266 197.9619,214.7163 198.03,215.1754 198.0528,215.639 198.03,216.1026 197.9619,216.5618 197.8491,217.0121 197.6928,217.4491 197.4943,217.8687 197.2557,218.2669 196.9792,218.6397 196.6674,218.9836 196.3235,219.2953 195.9507,219.5719 195.5525,219.8105 195.1329,220.0089 194.6959,220.1653 194.2456,220.2781 193.7865,220.3462 193.3228,220.369 192.8592,220.3462 192.4001,220.2781 191.9498,220.1653 191.5128,220.0089 191.0931,219.8105 190.695,219.5719 190.3222,219.2953 189.9782,218.9836 189.6665,218.6397 189.39,218.2669 189.1514,217.8687"/>
    <polygon points="180.1742,204.7228 179.7546,204.9212 179.3564,205.1599 178.9836,205.4364 178.6397,205.7481 178.3279,206.092 178.0514,206.4649 177.8128,206.863 177.6143,207.2826 177.458,207.7197 177.3452,208.1699 177.2771,208.6291 177.2543,209.0927 177.2771,209.5563 177.3452,210.0155 177.458,210.4657 177.6143,210.9028 177.8128,211.3224 178.0514,211.7205 178.3279,212.0934 178.6397,212.4373 178.9836,212.749 179.3564,213.0255 179.7546,213.2642 180.1742,213.4626 180.6112,213.619 181.0615,213.7318 181.5206,213.7999 181.9843,213.8227 182.4479,213.7999 182.907,213.7318 183.3573,213.619 183.7943,213.4626 184.2139,213.2642 184.6121,213.0255 184.9849,212.749 185.3288,212.4373 185.6406,212.0934 185.9171,211.7205 186.1557,211.3224 186.3542,210.9028 186.5106,210.4657 186.6233,210.0155 186.6914,209.5563 186.7142,209.0927 186.6914,208.6291 186.6233,208.1699 186.5106,207.7197 186.3542,207.2826 186.1557,206.863 185.9171,206.4649 185.6406,206.092 185.3288,205.7481 184.9849,205.4364 184.6121,205.1599 184.2139,204.9212 183.7943,204.7228 183.3573,204.5664 182.907,204.4536 182.4479,204.3855 181.9843,204.3627 181.5206,204.3855 181.0615,204.4536 180.6112,204.5664"/>
    <polygon points="184.2139,191.8286 183.7943,191.6301 183.3573,191.4737 182.907,191.3609 182.4479,191.2928 181.9843,191.2701 181.5206,191.2928 181.0615,191.3609 180.6112,191.4737 180.1742,191.6301 179.7546,191.8286 179.3564,192.0672 178.9836,192.3437 178.6397,192.6554 178.3279,192.9994 178.0514,193.3722 177.8128,193.7703 177.6143,194.1899 177.458,194.627 177.3452,195.0773 177.2771,195.5364 177.2543,196.0 177.2771,196.4636 177.3452,196.9228 177.458,197.3731 177.6143,197.8101 177.8128,198.2297 178.0514,198.6279 178.3279,199.0007 178.6397,199.3446 178.9836,199.6563 179.3564,199.9329 179.7546,200.1715 180.1742,200.3699 180.6112,200.5263 181.0615,200.6391 181.5206,200.7072 181.9843,200.73 182.4479,200.7072 182.907,200.6391 183.3573,200.5263 183.7943,200.3699 184.2139,200.1715 184.6121,199.9329 184.9849,199.6563 185.3288,199.3446 185.6406,199.0007 185.9171,198.6279 186.1557,198.2297 186.3542,197.8101 186.5106,197.3731 186.6233,196.9228 186.6914,196.4636 186.7142,196.0 186.6914,195.5364 186.6233,195.0773 186.5106,194.627 186.3542,194.1899 186.1557,193.7703 185.9171,193.3722 185.6406,192.9994 185.3288,192.6554 184.9849,192.3437 184.6121,192.0672"/>
    <polygon points="161.9349,205.1599 162.3077,205.4364 162.6517,205.7481 162.9634,206.092 163.2399,206.4649 163.4786,206.863 163.677,207.2826 163.8334,207.7197 163.9462,208.1699 164.0143,208.6291 164.0371,209.0927 164.0143,209.5563 163.9462,210.0155 163.8334,210.4657 163.677,210.9028 163.4786,211.3224 163.2399,211.7205 162.9634,212.0934 162.6517,212.4373 162.3077,212.749 161.9349,213.0255 161.5368,213.2642 161.1172,213.4626 160.6801,213.619 160.2299,213.7318 159.7707,213.7999 159.3071,213.8227 158.8435,213.7999 158.3843,213.7318 157.934,213.619 157.497,213.4626 157.0774,213.2642 156.6793,213.0255 156.3064,212.749 155.9625,212.4373 155.6508,212.0934 155.3743,211.7205 155.1356,211.3224 154.9372,210.9028 154.7808,210.4657 154.668,210.0155 154.5999,209.5563 154.5771,209.0927 154.5999,208.6291 154.668,208.1699 154.7808,207.7197 154.9372,207.2826 155.1356,206.863 155.3743,206.4649 155.6508,206.092 155.9625,205.7481 156.3064,205.4364 156.6793,205.1599 157.0774,204.9212 157.497,204.7228 157.934,204.5664 158.3843,204.4536 158.8435,204.3855 159.3071,204.3627 159.7707,204.3855 160.2299,204.4536 160.6801,204.5664 161.1172,204.7228 161.5368,204.9212"/>
    <polygon points="165.9385,216.1026 165.9157,215.639 165.9385,215.1754 166.0066,214.7163 166.1194,214.266 166.2757,213.8289 166.4742,213.4093 166.7128,213.0112 166.9894,212.6384 167.3011,212.2944 167.645,211.9827 168.0178,211.7062 168.416,211.4676 168.8356,211.2691 169.2726,211.1127 169.7229,210.9999 170.1821,210.9318 170.6457,210.9091 171.1093,210.9318 171.5684,210.9999 172.0187,211.1127 172.4558,211.2691 172.8754,211.4676 173.2735,211.7062 173.6463,211.9827 173.9903,212.2944 174.302,212.6384 174.5785,213.0112 174.8171,213.4093 175.0156,213.8289 175.172,214.266 175.2848,214.7163 175.3529,215.1754 175.3756,215.639 175.3529,216.1026 175.2848,216.5618 175.172,217.0121 175.0156,217.4491 174.8171,217.8687 174.5785,218.2669 174.302,218.6397 173.9903,218.9836 173.6463,219.2953 173.2735,219.5719 172.8754,219.8105 172.4558,220.0089 172.0187,220.1653 171.5684,220.2781 171.1093,220.3462 170.6457,220.369 170.1821,220.3462 169.7229,220.2781 169.2726,220.1653 168.8356,220.0089 168.416,219.8105 168.0178,219.5719 167.645,219.2953 167.3011,218.9836 166.9894,218.6397 166.7128,218.2669 166.4742,217.8687 166.2757,217.4491 166.1194,217.0121 166.0066,216.5618"/>
    <polygon points="134.8198,239.648 134.4002,239.4495 134.0021,239.2109 133.6293,238.9343 133.2853,238.6226 132.9736,238.2787 132.6971,237.9059 132.4585,237.5077 132.26,237.0881 132.1036,236.6511 131.9908,236.2008 131.9227,235.7416 131.8999,235.278 131.9227,234.8144 131.9908,234.3553 132.1036,233.905 132.26,233.4679 132.4585,233.0483 132.6971,232.6502 132.9736,232.2774 133.2853,231.9334 133.6293,231.6217 134.0021,231.3452 134.4002,231.1066 134.8198,230.9081 135.2569,230.7517 135.7071,230.6389 136.1663,230.5708 136.6299,230.5481 137.0935,230.5708 137.5527,230.6389 138.003,230.7517 138.44,230.9081 138.8596,231.1066 139.2578,231.3452 139.6306,231.6217 139.9745,231.9334 140.2862,232.2774 140.5627,232.6502 140.8014,233.0483 140.9998,233.4679 141.1562,233.905 141.269,234.3553 141.3371,234.8144 141.3599,235.278 141.3371,235.7416 141.269,236.2008 141.1562,236.6511 140.9998,237.0881 140.8014,237.5077 140.5627,237.9059 140.2862,238.2787 139.9745,238.6226 139.6306,238.9343 139.2578,239.2109 138.8596,239.4495 138.44,239.648 138.003,239.8043 137.5527,239.9171 137.0935,239.9852 136.6299,240.008 136.1663,239.9852 135.7071,239.9171 135.2569,239.8043"/>
    <polygon points="132.4585,250.6004 132.26,250.1808 132.1036,249.7437 131.9908,249.2935 131.9227,248.8343 131.8999,248.3707 131.9227,247.9071 131.9908,247.4479 132.1036,246.9977 132.26,246.5606 132.4585,246.141 132.6971,245.7429 132.9736,245.37 133.2853,245.0261 133.6293,244.7144 134.0021,244.4379 134.4002,244.1992 134.8198,244.0008 135.2569,243.8444 135.7071,243.7316 136.1663,243.6635 136.6299,243.6407 137.0935,243.6635 137.5527,243.7316 138.003,243.8444 138.44,244.0008 138.8596,244.1992 139.2578,244.4379 139.6306,244.7144 139.9745,245.0261 140.2862,245.37 140.5627,245.7429 140.8014,246.141 140.9998,246.5606 141.1562,246.9977 141.269,247.4479 141.3371,247.9071 141.3599,248.3707 141.3371,248.8343 141.269,249.2935 141.1562,249.7437 140.9998,250.1808 140.8014,250.6004 140.5627,250.9985 140.2862,251.3714 139.9745,251.7153 139.6306,252.027 139.2578,252.3035 138.8596,252.5422 138.44,252.7406 138.003,252.897 137.5527,253.0098 137.0935,253.0779 136.6299,253.1007 136.1663,253.0779 135.7071,253.0098 135.2569,252.897 134.8198,252.7406 134.4002,252.5422 134.0021,252.3035 133.6293,252.027 133.2853,251.7153 132.9736,251.3714 132.6971,250.9985"/>
    <polygon points="150.9692,251.2607 151.3131,251.5724 151.6248,251.9164 151.9013,252.2892 152.14,252.6873 152.3384,253.1069 152.4948,253.544 152.6076,253.9943 152.6757,254.4534 152.6985,254.917 152.6757,255.3806 152.6076,255.8398 152.4948,256.2901 152.3384,256.7271 152.14,257.1467 151.9013,257.5449 151.6248,257.9177 151.3131,258.2616 150.9692,258.5733 150.5963,258.8499 150.1982,259.0885 149.7786,259.287 149.3415,259.4433 148.8913,259.5561 148.4321,259.6242 147.9685,259.647 147.5049,259.6242 147.0457,259.5561 146.5955,259.4433 146.1584,259.287 145.7388,259.0885 145.3407,258.8499 144.9678,258.5733 144.6239,258.2616 144.3122,257.9177 144.0357,257.5449 143.797,257.1467 143.5986,256.7271 143.4422,256.2901 143.3294,255.8398 143.2613,255.3806 143.2385,254.917 143.2613,254.4534 143.3294,253.9943 143.4422,253.544 143.5986,253.1069 143.797,252.6873 144.0357,252.2892 144.3122,251.9164 144.6239,251.5724 144.9678,251.2607 145.3407,250.9842 145.7388,250.7456 146.1584,250.5471 146.5955,250.3907 147.0457,250.2779 147.5049,250.2098 147.9685,250.1871 148.4321,250.2098 148.8913,250.2779 149.3415,250.3907 149.7786,250.5471 150.1982,250.7456 150.5963,250.9842"/>
    <polygon points="149.7786,272.3796 149.3415,272.536 148.8913,272.6488 148.4321,272.7169 147.9685,272.7397 147.5049,272.7169 147.0457,272.6488 146.5955,272.536 146.1584,272.3796 145.7388,272.1812 145.3407,271.9425 144.9678,271.666 144.6239,271.3543 144.3122,271.0104 144.0357,270.6375 143.797,270.2394 143.5986,269.8198 143.4422,269.3827 143.3294,268.9325 143.2613,268.4733 143.2385,268.0097 143.2613,267.5461 143.3294,267.0869 143.4422,266.6367 143.5986,266.1996 143.797,265.78 144.0357,265.3819 144.3122,265.009 144.6239,264.6651 144.9678,264.3534 145.3407,264.0769 145.7388,263.8382 146.1584,263.6398 146.5955,263.4834 147.0457,263.3706 147.5049,263.3025 147.9685,263.2797 148.4321,263.3025 148.8913,263.3706 149.3415,263.4834 149.7786,263.6398 150.1982,263.8382 150.5963,264.0769 150.9692,264.3534 151.3131,264.6651 151.6248,265.009 151.9013,265.3819 152.14,265.78 152.3384,266.1996 152.4948,266.6367 152.6076,267.0869 152.6757,267.5461 152.6985,268.0097 152.6757,268.4733 152.6076,268.9325 152.4948,269.3827 152.3384,269.8198 152.14,270.2394 151.9013,270.6375 151.6248,271.0104 151.3131,271.3543 150.9692,271.666 150.5963,271.9425 150.1982,272.1812"/>
    <polygon points="159.7707,266.1706 159.3071,266.1933 158.8435,266.1706 158.3843,266.1024 157.934,265.9897 157.497,265.8333 157.0774,265.6348 156.6793,265.3962 156.3064,265.1197 155.9625,264.808 155.6508,264.464 155.3743,264.0912 155.1356,263.6931 154.9372,263.2734 154.7808,262.8364 154.668,262.3861 154.5999,261.927 154.5771,261.4634 154.5999,260.9997 154.668,260.5406 154.7808,260.0903 154.9372,259.6533 155.1356,259.2337 155.3743,258.8355 155.6508,258.4627 155.9625,258.1188 156.3064,257.807 156.6793,257.5305 157.0774,257.2919 157.497,257.0934 157.934,256.9371 158.3843,256.8243 158.8435,256.7562 159.3071,256.7334 159.7707,256.7562 160.2299,256.8243 160.6801,256.9371 161.1172,257.0934 161.5368,257.2919 161.9349,257.5305 162.3077,257.807 162.6517,258.1188 162.9634,258.4627 163.2399,258.8355 163.4786,259.2337 163.677,259.6533 163.8334,260.0903 163.9462,260.5406 164.0143,260.9997 164.0371,261.4634 164.0143,261.927 163.9462,262.3861 163.8334,262.8364 163.677,263.2734 163.4786,263.6931 163.2399,264.0912 162.9634,264.464 162.6517,264.808 162.3077,265.1197 161.9349,265.3962 161.5368,265.6348 161.1172,265.8333 160.6801,265.9897 160.2299,266.1024"/>
    <polygon points="168.4022,271.1575 169.3514,271.7265 170.2402,272.3857 171.0602,273.1288 171.8033,273.9487 172.4625,274.8376 173.0314,275.7867 173.5046,276.7871 173.8774,277.829 174.1462,278.9025 174.3086,279.9971 174.3629,281.1024 174.3086,282.2076 174.1462,283.3023 173.8774,284.3757 173.5046,285.4176 173.0314,286.418 172.4625,287.3671 171.8033,288.256 171.0602,289.0759 170.2402,289.8191 169.3514,290.4783 168.4022,291.0472 167.4019,291.5203 166.36,291.8931 165.2865,292.162 164.1919,292.3244 163.0866,292.3787 161.9813,292.3244 160.8867,292.162 159.8133,291.8931 158.7714,291.5203 157.771,291.0472 156.8218,290.4783 155.933,289.8191 155.1131,289.0759 154.3699,288.256 153.7107,287.3671 153.1418,286.418 152.6687,285.4176 152.2959,284.3757 152.027,283.3023 151.8646,282.2076 151.8103,281.1024 151.8646,279.9971 152.027,278.9025 152.2959,277.829 152.6687,276.7871 153.1418,275.7867 153.7107,274.8376 154.3699,273.9487 155.1131,273.1288 155.933,272.3857 156.8218,271.7265 157.771,271.1575 158.7714,270.6844 159.8133,270.3116 160.8867,270.0427 161.9813,269.8804 163.0866,269.8261 164.1919,269.8804 165.2865,270.0427 166.36,270.3116 167.4019,270.6844"/>
    <polygon points="174.8171,257.1467 174.5785,257.5449 174.302,257.9177 173.9903,258.2616 173.6463,258.5733 173.2735,258.8499 172.8754,259.0885 172.4558,259.287 172.0187,259.4433 171.5684,259.5561 171.1093,259.6242 170.6457,259.647 170.1821,259.6242 169.7229,259.5561 169.2726,259.4433 168.8356,259.287 168.416,259.0885 168.0178,258.8499 167.645,258.5733 167.3011,258.2616 166.9894,257.9177 166.7128,257.5449 166.4742,257.1467 166.2757,256.7271 166.1194,256.2901 166.0066,255.8398 165.9385,255.3806 165.9157,254.917 165.9385,254.4534 166.0066,253.9943 166.1194,253.544 166.2757,253.1069 166.4742,252.6873 166.7128,252.2892 166.9894,251.9164 167.3011,251.5724 167.645,251.2607 168.0178,250.9842 168.416,250.7456 168.8356,250.5471 169.2726,250.3907 169.7229,250.2779 170.1821,250.2098 170.6457,250.1871 171.1093,250.2098 171.5684,250.2779 172.0187,250.3907 172.4558,250.5471 172.8754,250.7456 173.2735,250.9842 173.6463,251.2607 173.9903,251.5724 174.302,251.9164 174.5785,252.2892 174.8171,252.6873 175.0156,253.1069 175.172,253.544 175.2848,253.9943 175.3529,254.4534 175.3756,254.917 175.3529,255.3806 175.2848,255.8398 175.172,256.2901 175.0156,256.7271"/>
    <polygon points="180.1742,252.7406 179.7546,252.5422 179.3564,252.3035 178.9836,252.027 178.6397,251.7153 178.3279,251.3714 178.0514,250.9985 177.8128,250.6004 177.6143,250.1808 177.458,249.7437 177.3452,249.2935 177.2771,248.8343 177.2543,248.3707 177.2771,247.9071 177.3452,247.4479 177.458,246.9977 177.6143,246.5606 177.8128,246.141 178.0514,245.7429 178.3279,245.37 178.6397,245.0261 178.9836,244.7144 179.3564,244.4379 179.7546,244.1992 180.1742,244.0008 180.6112,243.8444 181.0615,243.7316 181.5206,243.6635 181.9843,243.6407 182.4479,243.6635 182.907,243.7316 183.3573,243.8444 183.7943,244.0008 184.2139,244.1992 184.6121,244.4379 184.9849,244.7144 185.3288,245.0261 185.6406,245.37 185.9171,245.7429 186.1557,246.141 186.3542,246.5606 186.5106,246.9977 186.6233,247.4479 186.6914,247.9071 186.7142,248.3707 186.6914,248.8343 186.6233,249.2935 186.5106,249.7437 186.3542,250.1808 186.1557,250.6004 185.9171,250.9985 185.6406,251.3714 185.3288,251.7153 184.9849,252.027 184.6121,252.3035 184.2139,252.5422 183.7943,252.7406 183.3573,252.897 182.907,253.0098 182.4479,253.0779 181.9843,253.1007 181.5206,253.0779 181.0615,253.0098 180.6112,252.897"/>
    <polygon points="193.7373,260.0361 194.4805,260.8561 195.1397,261.7449 195.7086,262.6941 196.1817,263.6944 196.5545,264.7364 196.8234,265.8098 196.9858,266.9044 197.0401,268.0097 196.9858,269.115 196.8234,270.2096 196.5545,271.283 196.1817,272.325 195.7086,273.3253 195.1397,274.2745 194.4805,275.1633 193.7373,275.9832 192.9174,276.7264 192.0286,277.3856 191.0794,277.9545 190.079,278.4276 189.0371,278.8004 187.9637,279.0693 186.8691,279.2317 185.7638,279.286 184.6585,279.2317 183.5639,279.0693 182.4904,278.8004 181.4485,278.4276 180.4482,277.9545 179.499,277.3856 178.6102,276.7264 177.7902,275.9832 177.0471,275.1633 176.3879,274.2745 175.819,273.3253 175.3458,272.325 174.973,271.283 174.7041,270.2096 174.5418,269.115 174.4875,268.0097 174.5418,266.9044 174.7041,265.8098 174.973,264.7364 175.3458,263.6944 175.819,262.6941 176.3879,261.7449 177.0471,260.8561 177.7902,260.0361 178.6102,259.293 179.499,258.6338 180.4482,258.0649 181.4485,257.5917 182.4904,257.2189 183.5639,256.9501 184.6585,256.7877 185.7638,256.7334 186.8691,256.7877 187.9637,256.9501 189.0371,257.2189 190.079,257.5917 191.0794,258.0649 192.0286,258.6338 192.9174,259.293"/>
    <polygon points="199.7242,262.0706 199.065,261.1818 198.4961,260.2326 198.023,259.2323 197.6502,258.1904 197.3813,257.1169 197.2189,256.0223 197.1646,254.917 197.2189,253.8118 197.3813,252.7171 197.6502,251.6437 198.023,250.6018 198.4961,249.6014 199.065,248.6522 199.7242,247.7634 200.4674,246.9435 201.2873,246.2003 202.1762,245.5411 203.1253,244.9722 204.1257,244.4991 205.1676,244.1263 206.241,243.8574 207.3357,243.695 208.4409,243.6407 209.5462,243.695 210.6408,243.8574 211.7143,244.1263 212.7562,244.4991 213.7566,244.9722 214.7057,245.5411 215.5946,246.2003 216.4145,246.9435 217.1576,247.7634 217.8169,248.6522 218.3858,249.6014 218.8589,250.6018 219.2317,251.6437 219.5006,252.7171 219.663,253.8118 219.7173,254.917 219.663,256.0223 219.5006,257.1169 219.2317,258.1904 218.8589,259.2323 218.3858,260.2326 217.8169,261.1818 217.1576,262.0706 216.4145,262.8906 215.5946,263.6337 214.7057,264.2929 213.7566,264.8618 212.7562,265.335 211.7143,265.7078 210.6408,265.9767 209.5462,266.139 208.4409,266.1933 207.3357,266.139 206.241,265.9767 205.1676,265.7078 204.1257,265.335 203.1253,264.8618 202.1762,264.2929 201.2873,263.6337 200.4674,262.8906"/>
    <polygon points="202.6484,284.7737 204.8103,285.7962 206.8615,287.0256 208.7823,288.4502 210.5543,290.0562 212.1603,291.8282 213.5849,293.749 214.8144,295.8002 215.8368,297.9621 216.6425,300.2138 217.2236,302.5335 217.5745,304.8991 217.6918,307.2877 217.5745,309.6763 217.2236,312.0418 216.6425,314.3616 215.8368,316.6133 214.8144,318.7752 213.5849,320.8264 212.1603,322.7472 210.5543,324.5192 208.7823,326.1252 206.8615,327.5498 204.8103,328.7792 202.6484,329.8017 200.3968,330.6074 198.077,331.1884 195.7114,331.5393 193.3228,331.6567 190.9343,331.5393 188.5687,331.1884 186.2489,330.6074 183.9972,329.8017 181.8354,328.7792 179.7842,327.5498 177.8633,326.1252 176.0914,324.5192 174.4854,322.7472 173.0608,320.8264 171.8313,318.7752 170.8088,316.6133 170.0032,314.3616 169.4221,312.0418 169.0712,309.6763 168.9539,307.2877 169.0712,304.8991 169.4221,302.5335 170.0032,300.2138 170.8088,297.9621 171.8313,295.8002 173.0608,293.749 174.4854,291.8282 176.0914,290.0562 177.8633,288.4502 179.7842,287.0256 181.8354,285.7962 183.9972,284.7737 186.2489,283.968 188.5687,283.387 190.9343,283.0361 193.3228,282.9187 195.7114,283.0361 198.077,283.387 200.3968,283.968"/>
    <polygon points="169.3514,342.8489 168.4022,343.4178 167.4019,343.891 166.36,344.2638 165.2865,344.5327 164.1919,344.695 163.0866,344.7493 161.9813,344.695 160.8867,344.5327 159.8133,344.2638 158.7714,343.891 157.771,343.4178 156.8218,342.8489 155.933,342.1897 155.1131,341.4466 154.3699,340.6266 153.7107,339.7378 153.1418,338.7886 152.6687,337.7883 152.2959,336.7464 152.027,335.6729 151.8646,334.5783 151.8103,333.473 151.8646,332.3678 152.027,331.2731 152.2959,330.1997 152.6687,329.1578 153.1418,328.1574 153.7107,327.2083 154.3699,326.3194 155.1131,325.4995 155.933,324.7563 156.8218,324.0971 157.771,323.5282 158.7714,323.0551 159.8133,322.6823 160.8867,322.4134 161.9813,322.251 163.0866,322.1967 164.1919,322.251 165.2865,322.4134 166.36,322.6823 167.4019,323.0551 168.4022,323.5282 169.3514,324.0971 170.2402,324.7563 171.0602,325.4995 171.8033,326.3194 172.4625,327.2083 173.0314,328.1574 173.5046,329.1578 173.8774,330.1997 174.1462,331.2731 174.3086,332.3678 174.3629,333.473 174.3086,334.5783 174.1462,335.6729 173.8774,336.7464 173.5046,337.7883 173.0314,338.7886 172.4625,339.7378 171.8033,340.6266 171.0602,341.4466 170.2402,342.1897"/>
    <polygon points="152.6757,347.0293 152.6076,347.4885 152.4948,347.9387 152.3384,348.3758 152.14,348.7954 151.9013,349.1935 151.6248,349.5664 151.3131,349.9103 150.9692,350.222 150.5963,350.4985 150.1982,350.7372 149.7786,350.9356 149.3415,351.092 148.8913,351.2048 148.4321,351.2729 147.9685,351.2957 147.5049,351.2729 147.0457,351.2048 146.5955,351.092 146.1584,350.9356 145.7388,350.7372 145.3407,350.4985 144.9678,350.222 144.6239,349.9103 144.3122,349.5664 144.0357,349.1935 143.797,348.7954 143.5986,348.3758 143.4422,347.9387 143.3294,347.4885 143.2613,347.0293 143.2385,346.5657 143.2613,346.1021 143.3294,345.6429 143.4422,345.1927 143.5986,344.7556 143.797,344.336 144.0357,343.9379 144.3122,343.565 144.6239,343.2211 144.9678,342.9094 145.3407,342.6329 145.7388,342.3942 146.1584,342.1958 146.5955,342.0394 147.0457,341.9266 147.5049,341.8585 147.9685,341.8357 148.4321,341.8585 148.8913,341.9266 149.3415,342.0394 149.7786,342.1958 150.1982,342.3942 150.5963,342.6329 150.9692,342.9094 151.3131,343.2211 151.6248,343.565 151.9013,343.9379 152.14,344.336 152.3384,344.7556 152.4948,345.1927 152.6076,345.6429 152.6757,346.1021 152.6985,346.5657"/>
    <polygon points="164.1919,370.8804 163.0866,370.9347 161.9813,370.8804 160.8867,370.718 159.8133,370.4491 158.7714,370.0763 157.771,369.6032 156.8218,369.0343 155.933,368.3751 155.1131,367.6319 154.3699,366.812 153.7107,365.9231 153.1418,364.974 152.6687,363.9736 152.2959,362.9317 152.027,361.8583 151.8646,360.7636 151.8103,359.6584 151.8646,358.5531 152.027,357.4585 152.2959,356.385 152.6687,355.3431 153.1418,354.3428 153.7107,353.3936 154.3699,352.5048 155.1131,351.6848 155.933,350.9417 156.8218,350.2825 157.771,349.7136 158.7714,349.2404 159.8133,348.8676 160.8867,348.5987 161.9813,348.4364 163.0866,348.3821 164.1919,348.4364 165.2865,348.5987 166.36,348.8676 167.4019,349.2404 168.4022,349.7136 169.3514,350.2825 170.2402,350.9417 171.0602,351.6848 171.8033,352.5048 172.4625,353.3936 173.0314,354.3428 173.5046,355.3431 173.8774,356.385 174.1462,357.4585 174.3086,358.5531 174.3629,359.6584 174.3086,360.7636 174.1462,361.8583 173.8774,362.9317 173.5046,363.9736 173.0314,364.974 172.4625,365.9231 171.8033,366.812 171.0602,367.6319 170.2402,368.3751 169.3514,369.0343 168.4022,369.6032 167.4019,370.0763 166.36,370.4491 165.2865,370.718"/>
    <polygon points="178.9836,362.5484 179.3564,362.2719 179.7546,362.0332 180.1742,361.8348 180.6112,361.6784 181.0615,361.5656 181.5206,361.4975 181.9843,361.4747 182.4479,361.4975 182.907,361.5656 183.3573,361.6784 183.7943,361.8348 184.2139,362.0332 184.6121,362.2719 184.9849,362.5484 185.3288,362.8601 185.6406,363.204 185.9171,363.5769 186.1557,363.975 186.3542,364.3946 186.5106,364.8317 186.6233,365.2819 186.6914,365.7411 186.7142,366.2047 186.6914,366.6683 186.6233,367.1275 186.5106,367.5777 186.3542,368.0148 186.1557,368.4344 185.9171,368.8325 185.6406,369.2054 185.3288,369.5493 184.9849,369.861 184.6121,370.1375 184.2139,370.3762 183.7943,370.5746 183.3573,370.731 182.907,370.8438 182.4479,370.9119 181.9843,370.9347 181.5206,370.9119 181.0615,370.8438 180.6112,370.731 180.1742,370.5746 179.7546,370.3762 179.3564,370.1375 178.9836,369.861 178.6397,369.5493 178.3279,369.2054 178.0514,368.8325 177.8128,368.4344 177.6143,368.0148 177.458,367.5777 177.3452,367.1275 177.2771,366.6683 177.2543,366.2047 177.2771,365.7411 177.3452,365.2819 177.458,364.8317 177.6143,364.3946 177.8128,363.975 178.0514,363.5769 178.3279,363.204 178.6397,362.8601"/>
    <polygon points="179.499,355.9416 178.6102,355.2824 177.7902,354.5393 177.0471,353.7193 176.3879,352.8305 175.819,351.8813 175.3458,350.881 174.973,349.839 174.7041,348.7656 174.5418,347.671 174.4875,346.5657 174.5418,345.4604 174.7041,344.3658 174.973,343.2924 175.3458,342.2504 175.819,341.2501 176.3879,340.3009 177.0471,339.4121 177.7902,338.5921 178.6102,337.849 179.499,337.1898 180.4482,336.6209 181.4485,336.1478 182.4904,335.7749 183.5639,335.5061 184.6585,335.3437 185.7638,335.2894 186.8691,335.3437 187.9637,335.5061 189.0371,335.7749 190.079,336.1478 191.0794,336.6209 192.0286,337.1898 192.9174,337.849 193.7373,338.5921 194.4805,339.4121 195.1397,340.3009 195.7086,341.2501 196.1817,342.2504 196.5545,343.2924 196.8234,344.3658 196.9858,345.4604 197.0401,346.5657 196.9858,347.671 196.8234,348.7656 196.5545,349.839 196.1817,350.881 195.7086,351.8813 195.1397,352.8305 194.4805,353.7193 193.7373,354.5393 192.9174,355.2824 192.0286,355.9416 191.0794,356.5105 190.079,356.9836 189.0371,357.3565 187.9637,357.6253 186.8691,357.7877 185.7638,357.842 184.6585,357.7877 183.5639,357.6253 182.4904,357.3565 181.4485,356.9836 180.4482,356.5105"/>
    <polygon points="202.0336,357.0449 201.6608,356.7684 201.3168,356.4566 201.0051,356.1127 200.7286,355.7399 200.49,355.3417 200.2915,354.9221 200.1351,354.4851 200.0223,354.0348 199.9542,353.5757 199.9314,353.112 199.9542,352.6484 200.0223,352.1893 200.1351,351.739 200.2915,351.302 200.49,350.8823 200.7286,350.4842 201.0051,350.1114 201.3168,349.7674 201.6608,349.4557 202.0336,349.1792 202.4317,348.9406 202.8513,348.7421 203.2884,348.5857 203.7386,348.4729 204.1978,348.4048 204.6614,348.3821 205.125,348.4048 205.5842,348.4729 206.0345,348.5857 206.4715,348.7421 206.8911,348.9406 207.2892,349.1792 207.6621,349.4557 208.006,349.7674 208.3177,350.1114 208.5942,350.4842 208.8329,350.8823 209.0313,351.302 209.1877,351.739 209.3005,352.1893 209.3686,352.6484 209.3914,353.112 209.3686,353.5757 209.3005,354.0348 209.1877,354.4851 209.0313,354.9221 208.8329,355.3417 208.5942,355.7399 208.3177,356.1127 208.006,356.4566 207.6621,356.7684 207.2892,357.0449 206.8911,357.2835 206.4715,357.482 206.0345,357.6383 205.5842,357.7511 205.125,357.8192 204.6614,357.842 204.1978,357.8192 203.7386,357.7511 203.2884,357.6383 202.8513,357.482 202.4317,357.2835"/>
  </g>
</svg>
