<?xml version="1.0" encoding="utf-8" ?>
<svg xmlns="http://www.w3.org/2000/svg" xmlns:cc="http://creativecommons.org/ns" xmlns:dc="http://purl.org/dc/elements/1.1/" xmlns:ev="http://www.w3.org/2001/xml-events" xmlns:inkscape="http://www.inkscape.org/namespaces/inkscape" xmlns:rdf="http://www.w3.org/1999/02/22-rdf-syntax-ns" xmlns:sodipodi="http://sodipodi.sourceforge.net/DTD/sodipodi-0.dtd" xmlns:xlink="http://www.w3.org/1999/xlink" baseProfile="tiny" height="15.875cm" version="1.2" viewBox="0 0 432.0 600.0" width="11.43cm">
  <metadata>
    <rdf:RDF>
      <cc:Work>
        <dc:format>image/svg+xml</dc:format>
        <dc:source>vsk save -s 137 -c hex-grid/config/bubble-coasters-2.json /Users/tobin/src/fabian/plotting/fabian-plotting/hex-grid/sketch_hex_grid.py</dc:source>
        <dc:date>2023-11-04T10:32:59.363173</dc:date>
      </cc:Work>
    </rdf:RDF>
  </metadata>
  <defs/>
  <g fill="none" id="layer1" inkscape:groupmode="layer" inkscape:label="1" stroke="#000000" stroke-width="0.7559" style="display:inline">
    <polygon points="150.2932,281.0309 150.6371,280.7192 151.01,280.4427 151.4081,280.2041 151.8277,280.0056 152.2648,279.8492 152.715,279.7364 153.1742,279.6683 153.6378,279.6456 154.1014,279.6683 154.5606,279.7364 155.0108,279.8492 155.4479,280.0056 155.8675,280.2041 156.2656,280.4427 156.6385,280.7192 156.9824,281.0309 157.2941,281.3749 157.5706,281.7477 157.8093,282.1458 158.0077,282.5654 158.1641,283.0025 158.2769,283.4528 158.345,283.9119 158.3678,284.3755 158.345,284.8391 158.2769,285.2983 158.1641,285.7486 158.0077,286.1856 157.8093,286.6052 157.5706,287.0034 157.2941,287.3762 156.9824,287.7201 156.6385,288.0318 156.2656,288.3084 155.8675,288.547 155.4479,288.7455 155.0108,288.9018 154.5606,289.0146 154.1014,289.0827 153.6378,289.1055 153.1742,289.0827 152.715,289.0146 152.2648,288.9018 151.8277,288.7455 151.4081,288.547 151.01,288.3084 150.6371,288.0318 150.2932,287.7201 149.9815,287.3762 149.705,287.0034 149.4663,286.6052 149.2679,286.1856 149.1115,285.7486 148.9987,285.2983 148.9306,284.8391 148.9078,284.3755 148.9306,283.9119 148.9987,283.4528 149.1115,283.0025 149.2679,282.5654 149.4663,282.1458 149.705,281.7477 149.9815,281.3749"/>
    <polygon points="169.241,287.2412 171.5608,286.6601 173.9264,286.3092 176.315,286.1919 178.7035,286.3092 181.0691,286.6601 183.3889,287.2412 185.6406,288.0469 187.8024,289.0693 189.8536,290.2988 191.7745,291.7234 193.5464,293.3294 195.1524,295.1014 196.577,297.0222 197.8065,299.0734 198.829,301.2353 199.6346,303.4869 200.2157,305.8067 200.5666,308.1723 200.6839,310.5609 200.5666,312.9494 200.2157,315.315 199.6346,317.6348 198.829,319.8865 197.8065,322.0483 196.577,324.0995 195.1524,326.0204 193.5464,327.7923 191.7745,329.3983 189.8536,330.8229 187.8024,332.0524 185.6406,333.0749 183.3889,333.8805 181.0691,334.4616 178.7035,334.8125 176.315,334.9298 173.9264,334.8125 171.5608,334.4616 169.241,333.8805 166.9894,333.0749 164.8275,332.0524 162.7763,330.8229 160.8554,329.3983 159.0835,327.7923 157.4775,326.0204 156.0529,324.0995 154.8234,322.0483 153.801,319.8865 152.9953,317.6348 152.4142,315.315 152.0633,312.9494 151.946,310.5609 152.0633,308.1723 152.4142,305.8067 152.9953,303.4869 153.801,301.2353 154.8234,299.0734 156.0529,297.0222 157.4775,295.1014 159.0835,293.3294 160.8554,291.7234 162.7763,290.2988 164.8275,289.0693 166.9894,288.0469"/>
    <polygon points="178.7007,276.5985 178.1318,277.5476 177.4726,278.4365 176.7295,279.2564 175.9095,279.9996 175.0207,280.6588 174.0715,281.2277 173.0712,281.7008 172.0292,282.0736 170.9558,282.3425 169.8612,282.5049 168.7559,282.5592 167.6506,282.5049 166.556,282.3425 165.4826,282.0736 164.4406,281.7008 163.4403,281.2277 162.4911,280.6588 161.6023,279.9996 160.7824,279.2564 160.0392,278.4365 159.38,277.5476 158.8111,276.5985 158.338,275.5981 157.9652,274.5562 157.6963,273.4828 157.5339,272.3881 157.4796,271.2829 157.5339,270.1776 157.6963,269.083 157.9652,268.0095 158.338,266.9676 158.8111,265.9672 159.38,265.0181 160.0392,264.1292 160.7824,263.3093 161.6023,262.5662 162.4911,261.907 163.4403,261.338 164.4406,260.8649 165.4826,260.4921 166.556,260.2232 167.6506,260.0609 168.7559,260.0066 169.8612,260.0609 170.9558,260.2232 172.0292,260.4921 173.0712,260.8649 174.0715,261.338 175.0207,261.907 175.9095,262.5662 176.7295,263.3093 177.4726,264.1292 178.1318,265.0181 178.7007,265.9672 179.1739,266.9676 179.5467,268.0095 179.8155,269.083 179.9779,270.1776 180.0322,271.2829 179.9779,272.3881 179.8155,273.4828 179.5467,274.5562 179.1739,275.5981"/>
    <polygon points="201.4072,270.8369 202.8318,268.916 204.4378,267.1441 206.2098,265.5381 208.1306,264.1135 210.1818,262.884 212.3437,261.8615 214.5954,261.0559 216.9151,260.4748 219.2807,260.1239 221.6693,260.0066 224.0579,260.1239 226.4234,260.4748 228.7432,261.0559 230.9949,261.8615 233.1567,262.884 235.208,264.1135 237.1288,265.5381 238.9008,267.1441 240.5068,268.916 241.9314,270.8369 243.1608,272.8881 244.1833,275.0499 244.9889,277.3016 245.57,279.6214 245.9209,281.987 246.0383,284.3755 245.9209,286.7641 245.57,289.1297 244.9889,291.4495 244.1833,293.7011 243.1608,295.863 241.9314,297.9142 240.5068,299.835 238.9008,301.607 237.1288,303.213 235.208,304.6376 233.1567,305.867 230.9949,306.8895 228.7432,307.6952 226.4234,308.2763 224.0579,308.6272 221.6693,308.7445 219.2807,308.6272 216.9151,308.2763 214.5954,307.6952 212.3437,306.8895 210.1818,305.867 208.1306,304.6376 206.2098,303.213 204.4378,301.607 202.8318,299.835 201.4072,297.9142 200.1778,295.863 199.1553,293.7011 198.3496,291.4495 197.7686,289.1297 197.4177,286.7641 197.3003,284.3755 197.4177,281.987 197.7686,279.6214 198.3496,277.3016 199.1553,275.0499 200.1778,272.8881"/>
    <polygon points="180.3734,255.9903 180.2111,257.0849 180.1568,258.1902 180.2111,259.2955 180.3734,260.3901 180.6423,261.4635 181.0151,262.5054 181.4883,263.5058 182.0572,264.455 182.7164,265.3438 183.4595,266.1637 184.2795,266.9069 185.1683,267.5661 186.1175,268.135 187.1178,268.6081 188.1597,268.9809 189.2332,269.2498 190.3278,269.4122 191.4331,269.4665 192.5383,269.4122 193.633,269.2498 194.7064,268.9809 195.7483,268.6081 196.7487,268.135 197.6979,267.5661 198.5867,266.9069 199.4066,266.1637 200.1498,265.3438 200.809,264.455 201.3779,263.5058 201.851,262.5054 202.2238,261.4635 202.4927,260.3901 202.6551,259.2955 202.7094,258.1902 202.6551,257.0849 202.4927,255.9903 202.2238,254.9169 201.851,253.8749 201.3779,252.8746 200.809,251.9254 200.1498,251.0366 199.4066,250.2166 198.5867,249.4735 197.6979,248.8143 196.7487,248.2454 195.7483,247.7722 194.7064,247.3994 193.633,247.1306 192.5383,246.9682 191.4331,246.9139 190.3278,246.9682 189.2332,247.1306 188.1597,247.3994 187.1178,247.7722 186.1175,248.2454 185.1683,248.8143 184.2795,249.4735 183.4595,250.2166 182.7164,251.0366 182.0572,251.9254 181.4883,252.8746 181.0151,253.8749 180.6423,254.9169"/>
    <polygon points="181.0222,245.5611 181.0449,245.0975 181.0222,244.6339 180.954,244.1748 180.8413,243.7245 180.6849,243.2874 180.4864,242.8678 180.2478,242.4697 179.9713,242.0969 179.6596,241.7529 179.3156,241.4412 178.9428,241.1647 178.5447,240.9261 178.125,240.7276 177.688,240.5712 177.2377,240.4584 176.7786,240.3903 176.315,240.3676 175.8513,240.3903 175.3922,240.4584 174.9419,240.5712 174.5049,240.7276 174.0853,240.9261 173.6871,241.1647 173.3143,241.4412 172.9704,241.7529 172.6586,242.0969 172.3821,242.4697 172.1435,242.8678 171.945,243.2874 171.7887,243.7245 171.6759,244.1748 171.6078,244.6339 171.585,245.0975 171.6078,245.5611 171.6759,246.0203 171.7887,246.4706 171.945,246.9076 172.1435,247.3272 172.3821,247.7254 172.6586,248.0982 172.9704,248.4421 173.3143,248.7538 173.6871,249.0304 174.0853,249.269 174.5049,249.4675 174.9419,249.6238 175.3922,249.7366 175.8513,249.8047 176.315,249.8275 176.7786,249.8047 177.2377,249.7366 177.688,249.6238 178.125,249.4675 178.5447,249.269 178.9428,249.0304 179.3156,248.7538 179.6596,248.4421 179.9713,248.0982 180.2478,247.7254 180.4864,247.3272 180.6849,246.9076 180.8413,246.4706 180.954,246.0203"/>
    <polygon points="167.977,234.8949 168.321,235.2066 168.6327,235.5505 168.9092,235.9234 169.1478,236.3215 169.3463,236.7411 169.5027,237.1782 169.6155,237.6284 169.6836,238.0876 169.7064,238.5512 169.6836,239.0148 169.6155,239.474 169.5027,239.9242 169.3463,240.3613 169.1478,240.7809 168.9092,241.179 168.6327,241.5519 168.321,241.8958 167.977,242.2075 167.6042,242.484 167.2061,242.7227 166.7865,242.9211 166.3494,243.0775 165.8991,243.1903 165.44,243.2584 164.9764,243.2812 164.5128,243.2584 164.0536,243.1903 163.6033,243.0775 163.1663,242.9211 162.7467,242.7227 162.3485,242.484 161.9757,242.2075 161.6318,241.8958 161.3201,241.5519 161.0435,241.179 160.8049,240.7809 160.6065,240.3613 160.4501,239.9242 160.3373,239.474 160.2692,239.0148 160.2464,238.5512 160.2692,238.0876 160.3373,237.6284 160.4501,237.1782 160.6065,236.7411 160.8049,236.3215 161.0435,235.9234 161.3201,235.5505 161.6318,235.2066 161.9757,234.8949 162.3485,234.6184 162.7467,234.3797 163.1663,234.1813 163.6033,234.0249 164.0536,233.9121 164.5128,233.844 164.9764,233.8212 165.44,233.844 165.8991,233.9121 166.3494,234.0249 166.7865,234.1813 167.2061,234.3797 167.6042,234.6184"/>
    <polygon points="166.7865,229.8285 166.3494,229.9848 165.8991,230.0976 165.44,230.1657 164.9764,230.1885 164.5128,230.1657 164.0536,230.0976 163.6033,229.9848 163.1663,229.8285 162.7467,229.63 162.3485,229.3914 161.9757,229.1148 161.6318,228.8031 161.3201,228.4592 161.0435,228.0864 160.8049,227.6882 160.6065,227.2686 160.4501,226.8316 160.3373,226.3813 160.2692,225.9221 160.2464,225.4585 160.2692,224.9949 160.3373,224.5358 160.4501,224.0855 160.6065,223.6484 160.8049,223.2288 161.0435,222.8307 161.3201,222.4579 161.6318,222.1139 161.9757,221.8022 162.3485,221.5257 162.7467,221.2871 163.1663,221.0886 163.6033,220.9322 164.0536,220.8194 164.5128,220.7513 164.9764,220.7286 165.44,220.7513 165.8991,220.8194 166.3494,220.9322 166.7865,221.0886 167.2061,221.2871 167.6042,221.5257 167.977,221.8022 168.321,222.1139 168.6327,222.4579 168.9092,222.8307 169.1478,223.2288 169.3463,223.6484 169.5027,224.0855 169.6155,224.5358 169.6836,224.9949 169.7064,225.4585 169.6836,225.9221 169.6155,226.3813 169.5027,226.8316 169.3463,227.2686 169.1478,227.6882 168.9092,228.0864 168.6327,228.4592 168.321,228.8031 167.977,229.1148 167.6042,229.3914 167.2061,229.63"/>
    <polygon points="172.6586,221.9129 172.3821,221.54 172.1435,221.1419 171.945,220.7223 171.7887,220.2852 171.6759,219.835 171.6078,219.3758 171.585,218.9122 171.6078,218.4486 171.6759,217.9894 171.7887,217.5392 171.945,217.1021 172.1435,216.6825 172.3821,216.2844 172.6586,215.9115 172.9704,215.5676 173.3143,215.2559 173.6871,214.9794 174.0853,214.7407 174.5049,214.5423 174.9419,214.3859 175.3922,214.2731 175.8513,214.205 176.315,214.1822 176.7786,214.205 177.2377,214.2731 177.688,214.3859 178.125,214.5423 178.5447,214.7407 178.9428,214.9794 179.3156,215.2559 179.6596,215.5676 179.9713,215.9115 180.2478,216.2844 180.4864,216.6825 180.6849,217.1021 180.8413,217.5392 180.954,217.9894 181.0222,218.4486 181.0449,218.9122 181.0222,219.3758 180.954,219.835 180.8413,220.2852 180.6849,220.7223 180.4864,221.1419 180.2478,221.54 179.9713,221.9129 179.6596,222.2568 179.3156,222.5685 178.9428,222.845 178.5447,223.0837 178.125,223.2821 177.688,223.4385 177.2377,223.5513 176.7786,223.6194 176.315,223.6422 175.8513,223.6194 175.3922,223.5513 174.9419,223.4385 174.5049,223.2821 174.0853,223.0837 173.6871,222.845 173.3143,222.5685 172.9704,222.2568"/>
    <polygon points="180.2111,230.8996 180.3734,229.805 180.6423,228.7315 181.0151,227.6896 181.4883,226.6892 182.0572,225.7401 182.7164,224.8512 183.4595,224.0313 184.2795,223.2882 185.1683,222.629 186.1175,222.06 187.1178,221.5869 188.1597,221.2141 189.2332,220.9452 190.3278,220.7829 191.4331,220.7286 192.5383,220.7829 193.633,220.9452 194.7064,221.2141 195.7483,221.5869 196.7487,222.06 197.6979,222.629 198.5867,223.2882 199.4066,224.0313 200.1498,224.8512 200.809,225.7401 201.3779,226.6892 201.851,227.6896 202.2238,228.7315 202.4927,229.805 202.6551,230.8996 202.7094,232.0049 202.6551,233.1101 202.4927,234.2048 202.2238,235.2782 201.851,236.3201 201.3779,237.3205 200.809,238.2696 200.1498,239.1585 199.4066,239.9784 198.5867,240.7216 197.6979,241.3808 196.7487,241.9497 195.7483,242.4228 194.7064,242.7956 193.633,243.0645 192.5383,243.2269 191.4331,243.2812 190.3278,243.2269 189.2332,243.0645 188.1597,242.7956 187.1178,242.4228 186.1175,241.9497 185.1683,241.3808 184.2795,240.7216 183.4595,239.9784 182.7164,239.1585 182.0572,238.2696 181.4883,237.3205 181.0151,236.3201 180.6423,235.2782 180.3734,234.2048 180.2111,233.1101 180.1568,232.0049"/>
    <polygon points="192.0235,214.1759 192.1798,213.7389 192.2926,213.2886 192.3607,212.8295 192.3835,212.3659 192.3607,211.9022 192.2926,211.4431 192.1798,210.9928 192.0235,210.5558 191.825,210.1362 191.5864,209.738 191.3099,209.3652 190.9981,209.0213 190.6542,208.7095 190.2814,208.433 189.8832,208.1944 189.4636,207.9959 189.0266,207.8396 188.5763,207.7268 188.1172,207.6587 187.6535,207.6359 187.1899,207.6587 186.7308,207.7268 186.2805,207.8396 185.8435,207.9959 185.4238,208.1944 185.0257,208.433 184.6529,208.7095 184.3089,209.0213 183.9972,209.3652 183.7207,209.738 183.4821,210.1362 183.2836,210.5558 183.1272,210.9928 183.0145,211.4431 182.9463,211.9022 182.9236,212.3659 182.9463,212.8295 183.0145,213.2886 183.1272,213.7389 183.2836,214.1759 183.4821,214.5956 183.7207,214.9937 183.9972,215.3665 184.3089,215.7105 184.6529,216.0222 185.0257,216.2987 185.4238,216.5373 185.8435,216.7358 186.2805,216.8922 186.7308,217.0049 187.1899,217.0731 187.6535,217.0958 188.1172,217.0731 188.5763,217.0049 189.0266,216.8922 189.4636,216.7358 189.8832,216.5373 190.2814,216.2987 190.6542,216.0222 190.9981,215.7105 191.3099,215.3665 191.5864,214.9937 191.825,214.5956"/>
    <polygon points="208.101,229.63 208.5206,229.8285 208.9577,229.9848 209.4079,230.0976 209.8671,230.1657 210.3307,230.1885 210.7943,230.1657 211.2535,230.0976 211.7037,229.9848 212.1408,229.8285 212.5604,229.63 212.9585,229.3914 213.3314,229.1148 213.6753,228.8031 213.987,228.4592 214.2635,228.0864 214.5022,227.6882 214.7006,227.2686 214.857,226.8316 214.9698,226.3813 215.0379,225.9221 215.0607,225.4585 215.0379,224.9949 214.9698,224.5358 214.857,224.0855 214.7006,223.6484 214.5022,223.2288 214.2635,222.8307 213.987,222.4579 213.6753,222.1139 213.3314,221.8022 212.9585,221.5257 212.5604,221.2871 212.1408,221.0886 211.7037,220.9322 211.2535,220.8194 210.7943,220.7513 210.3307,220.7286 209.8671,220.7513 209.4079,220.8194 208.9577,220.9322 208.5206,221.0886 208.101,221.2871 207.7029,221.5257 207.33,221.8022 206.9861,222.1139 206.6744,222.4579 206.3979,222.8307 206.1592,223.2288 205.9608,223.6484 205.8044,224.0855 205.6916,224.5358 205.6235,224.9949 205.6007,225.4585 205.6235,225.9221 205.6916,226.3813 205.8044,226.8316 205.9608,227.2686 206.1592,227.6882 206.3979,228.0864 206.6744,228.4592 206.9861,228.8031 207.33,229.1148 207.7029,229.3914"/>
    <polygon points="222.0838,237.124 221.2638,236.3808 220.375,235.7216 219.4259,235.1527 218.4255,234.6796 217.3836,234.3068 216.3101,234.0379 215.2155,233.8755 214.1102,233.8212 213.005,233.8755 211.9103,234.0379 210.8369,234.3068 209.795,234.6796 208.7946,235.1527 207.8455,235.7216 206.9566,236.3808 206.1367,237.124 205.3935,237.9439 204.7343,238.8327 204.1654,239.7819 203.6923,240.7823 203.3195,241.8242 203.0506,242.8976 202.8882,243.9923 202.8339,245.0975 202.8882,246.2028 203.0506,247.2974 203.3195,248.3709 203.6923,249.4128 204.1654,250.4131 204.7343,251.3623 205.3935,252.2511 206.1367,253.0711 206.9566,253.8142 207.8455,254.4734 208.7946,255.0423 209.795,255.5155 210.8369,255.8883 211.9103,256.1572 213.005,256.3195 214.1102,256.3738 215.2155,256.3195 216.3101,256.1572 217.3836,255.8883 218.4255,255.5155 219.4259,255.0423 220.375,254.4734 221.2638,253.8142 222.0838,253.0711 222.8269,252.2511 223.4861,251.3623 224.0551,250.4131 224.5282,249.4128 224.901,248.3709 225.1699,247.2974 225.3322,246.2028 225.3865,245.0975 225.3322,243.9923 225.1699,242.8976 224.901,241.8242 224.5282,240.7823 224.0551,239.7819 223.4861,238.8327 222.8269,237.9439"/>
    <polygon points="229.6633,209.0213 230.0072,208.7095 230.38,208.433 230.7782,208.1944 231.1978,207.9959 231.6348,207.8396 232.0851,207.7268 232.5443,207.6587 233.0079,207.6359 233.4715,207.6587 233.9306,207.7268 234.3809,207.8396 234.818,207.9959 235.2376,208.1944 235.6357,208.433 236.0085,208.7095 236.3525,209.0213 236.6642,209.3652 236.9407,209.738 237.1793,210.1362 237.3778,210.5558 237.5342,210.9928 237.647,211.4431 237.7151,211.9022 237.7378,212.3659 237.7151,212.8295 237.647,213.2886 237.5342,213.7389 237.3778,214.1759 237.1793,214.5956 236.9407,214.9937 236.6642,215.3665 236.3525,215.7105 236.0085,216.0222 235.6357,216.2987 235.2376,216.5373 234.818,216.7358 234.3809,216.8922 233.9306,217.0049 233.4715,217.0731 233.0079,217.0958 232.5443,217.0731 232.0851,217.0049 231.6348,216.8922 231.1978,216.7358 230.7782,216.5373 230.38,216.2987 230.0072,216.0222 229.6633,215.7105 229.3516,215.3665 229.075,214.9937 228.8364,214.5956 228.6379,214.1759 228.4816,213.7389 228.3688,213.2886 228.3007,212.8295 228.2779,212.3659 228.3007,211.9022 228.3688,211.4431 228.4816,210.9928 228.6379,210.5558 228.8364,210.1362 229.075,209.738 229.3516,209.3652"/>
    <polygon points="236.9407,196.6454 236.6642,196.2725 236.3525,195.9286 236.0085,195.6169 235.6357,195.3404 235.2376,195.1017 234.818,194.9033 234.3809,194.7469 233.9306,194.6341 233.4715,194.566 233.0079,194.5432 232.5443,194.566 232.0851,194.6341 231.6348,194.7469 231.1978,194.9033 230.7782,195.1017 230.38,195.3404 230.0072,195.6169 229.6633,195.9286 229.3516,196.2725 229.075,196.6454 228.8364,197.0435 228.6379,197.4631 228.4816,197.9002 228.3688,198.3504 228.3007,198.8096 228.2779,199.2732 228.3007,199.7368 228.3688,200.196 228.4816,200.6462 228.6379,201.0833 228.8364,201.5029 229.075,201.901 229.3516,202.2739 229.6633,202.6178 230.0072,202.9295 230.38,203.206 230.7782,203.4447 231.1978,203.6431 231.6348,203.7995 232.0851,203.9123 232.5443,203.9804 233.0079,204.0032 233.4715,203.9804 233.9306,203.9123 234.3809,203.7995 234.818,203.6431 235.2376,203.4447 235.6357,203.206 236.0085,202.9295 236.3525,202.6178 236.6642,202.2739 236.9407,201.901 237.1793,201.5029 237.3778,201.0833 237.5342,200.6462 237.647,200.196 237.7151,199.7368 237.7378,199.2732 237.7151,198.8096 237.647,198.3504 237.5342,197.9002 237.3778,197.4631 237.1793,197.0435"/>
    <polygon points="239.6393,193.1905 239.7074,193.6496 239.8202,194.0999 239.9765,194.5369 240.175,194.9566 240.4136,195.3547 240.6901,195.7275 241.0019,196.0715 241.3458,196.3832 241.7186,196.6597 242.1168,196.8983 242.5364,197.0968 242.9734,197.2532 243.4237,197.3659 243.8828,197.4341 244.3465,197.4568 244.8101,197.4341 245.2692,197.3659 245.7195,197.2532 246.1565,197.0968 246.5762,196.8983 246.9743,196.6597 247.3471,196.3832 247.6911,196.0715 248.0028,195.7275 248.2793,195.3547 248.5179,194.9566 248.7164,194.5369 248.8728,194.0999 248.9855,193.6496 249.0537,193.1905 249.0764,192.7269 249.0537,192.2632 248.9855,191.8041 248.8728,191.3538 248.7164,190.9168 248.5179,190.4972 248.2793,190.099 248.0028,189.7262 247.6911,189.3823 247.3471,189.0705 246.9743,188.794 246.5762,188.5554 246.1565,188.3569 245.7195,188.2006 245.2692,188.0878 244.8101,188.0197 244.3465,187.9969 243.8828,188.0197 243.4237,188.0878 242.9734,188.2006 242.5364,188.3569 242.1168,188.5554 241.7186,188.794 241.3458,189.0705 241.0019,189.3823 240.6901,189.7262 240.4136,190.099 240.175,190.4972 239.9765,190.9168 239.8202,191.3538 239.7074,191.8041 239.6393,192.2632 239.6165,192.7269"/>
    <polygon points="249.0537,206.2831 248.9855,206.7423 248.8728,207.1926 248.7164,207.6296 248.5179,208.0492 248.2793,208.4474 248.0028,208.8202 247.6911,209.1641 247.3471,209.4758 246.9743,209.7524 246.5762,209.991 246.1565,210.1894 245.7195,210.3458 245.2692,210.4586 244.8101,210.5267 244.3465,210.5495 243.8828,210.5267 243.4237,210.4586 242.9734,210.3458 242.5364,210.1894 242.1168,209.991 241.7186,209.7524 241.3458,209.4758 241.0019,209.1641 240.6901,208.8202 240.4136,208.4474 240.175,208.0492 239.9765,207.6296 239.8202,207.1926 239.7074,206.7423 239.6393,206.2831 239.6165,205.8195 239.6393,205.3559 239.7074,204.8968 239.8202,204.4465 239.9765,204.0094 240.175,203.5898 240.4136,203.1917 240.6901,202.8189 241.0019,202.4749 241.3458,202.1632 241.7186,201.8867 242.1168,201.6481 242.5364,201.4496 242.9734,201.2932 243.4237,201.1804 243.8828,201.1123 244.3465,201.0896 244.8101,201.1123 245.2692,201.1804 245.7195,201.2932 246.1565,201.4496 246.5762,201.6481 246.9743,201.8867 247.3471,202.1632 247.6911,202.4749 248.0028,202.8189 248.2793,203.1917 248.5179,203.5898 248.7164,204.0094 248.8728,204.4465 248.9855,204.8968 249.0537,205.3559 249.0764,205.8195"/>
    <polygon points="265.2135,227.6349 265.6506,227.4786 266.1009,227.3658 266.56,227.2977 267.0236,227.2749 267.4872,227.2977 267.9464,227.3658 268.3967,227.4786 268.8337,227.6349 269.2533,227.8334 269.6515,228.072 270.0243,228.3485 270.3682,228.6603 270.6799,229.0042 270.9565,229.377 271.1951,229.7752 271.3935,230.1948 271.5499,230.6318 271.6627,231.0821 271.7308,231.5412 271.7536,232.0049 271.7308,232.4685 271.6627,232.9276 271.5499,233.3779 271.3935,233.8149 271.1951,234.2346 270.9565,234.6327 270.6799,235.0055 270.3682,235.3495 270.0243,235.6612 269.6515,235.9377 269.2533,236.1763 268.8337,236.3748 268.3967,236.5312 267.9464,236.6439 267.4872,236.7121 267.0236,236.7348 266.56,236.7121 266.1009,236.6439 265.6506,236.5312 265.2135,236.3748 264.7939,236.1763 264.3958,235.9377 264.023,235.6612 263.679,235.3495 263.3673,235.0055 263.0908,234.6327 262.8522,234.2346 262.6537,233.8149 262.4973,233.3779 262.3845,232.9276 262.3164,232.4685 262.2936,232.0049 262.3164,231.5412 262.3845,231.0821 262.4973,230.6318 262.6537,230.1948 262.8522,229.7752 263.0908,229.377 263.3673,229.0042 263.679,228.6603 264.023,228.3485 264.3958,228.072 264.7939,227.8334"/>
    <polygon points="251.1587,226.8316 251.046,226.3813 250.9778,225.9221 250.9551,225.4585 250.9778,224.9949 251.046,224.5358 251.1587,224.0855 251.3151,223.6484 251.5136,223.2288 251.7522,222.8307 252.0287,222.4579 252.3404,222.1139 252.6844,221.8022 253.0572,221.5257 253.4553,221.2871 253.875,221.0886 254.312,220.9322 254.7623,220.8194 255.2214,220.7513 255.685,220.7286 256.1487,220.7513 256.6078,220.8194 257.0581,220.9322 257.4951,221.0886 257.9147,221.2871 258.3129,221.5257 258.6857,221.8022 259.0296,222.1139 259.3414,222.4579 259.6179,222.8307 259.8565,223.2288 260.055,223.6484 260.2113,224.0855 260.3241,224.5358 260.3922,224.9949 260.415,225.4585 260.3922,225.9221 260.3241,226.3813 260.2113,226.8316 260.055,227.2686 259.8565,227.6882 259.6179,228.0864 259.3414,228.4592 259.0296,228.8031 258.6857,229.1148 258.3129,229.3914 257.9147,229.63 257.4951,229.8285 257.0581,229.9848 256.6078,230.0976 256.1487,230.1657 255.685,230.1885 255.2214,230.1657 254.7623,230.0976 254.312,229.9848 253.875,229.8285 253.4553,229.63 253.0572,229.3914 252.6844,229.1148 252.3404,228.8031 252.0287,228.4592 251.7522,228.0864 251.5136,227.6882 251.3151,227.2686"/>
    <polygon points="246.1633,238.2696 245.5041,239.1585 244.761,239.9784 243.941,240.7216 243.0522,241.3808 242.103,241.9497 241.1027,242.4228 240.0607,242.7956 238.9873,243.0645 237.8927,243.2269 236.7874,243.2812 235.6821,243.2269 234.5875,243.0645 233.5141,242.7956 232.4721,242.4228 231.4718,241.9497 230.5226,241.3808 229.6338,240.7216 228.8138,239.9784 228.0707,239.1585 227.4115,238.2696 226.8426,237.3205 226.3695,236.3201 225.9966,235.2782 225.7278,234.2048 225.5654,233.1101 225.5111,232.0049 225.5654,230.8996 225.7278,229.805 225.9966,228.7315 226.3695,227.6896 226.8426,226.6892 227.4115,225.7401 228.0707,224.8512 228.8138,224.0313 229.6338,223.2882 230.5226,222.629 231.4718,222.06 232.4721,221.5869 233.5141,221.2141 234.5875,220.9452 235.6821,220.7829 236.7874,220.7286 237.8927,220.7829 238.9873,220.9452 240.0607,221.2141 241.1027,221.5869 242.103,222.06 243.0522,222.629 243.941,223.2882 244.761,224.0313 245.5041,224.8512 246.1633,225.7401 246.7322,226.6892 247.2054,227.6896 247.5782,228.7315 247.847,229.805 248.0094,230.8996 248.0637,232.0049 248.0094,233.1101 247.847,234.2048 247.5782,235.2782 247.2054,236.3201 246.7322,237.3205"/>
    <polygon points="265.7293,261.907 264.7802,261.338 263.7798,260.8649 262.7379,260.4921 261.6645,260.2232 260.5698,260.0609 259.4646,260.0066 258.3593,260.0609 257.2647,260.2232 256.1912,260.4921 255.1493,260.8649 254.149,261.338 253.1998,261.907 252.311,262.5662 251.491,263.3093 250.7479,264.1292 250.0887,265.0181 249.5198,265.9672 249.0466,266.9676 248.6738,268.0095 248.4049,269.083 248.2426,270.1776 248.1883,271.2829 248.2426,272.3881 248.4049,273.4828 248.6738,274.5562 249.0466,275.5981 249.5198,276.5985 250.0887,277.5476 250.7479,278.4365 251.491,279.2564 252.311,279.9996 253.1998,280.6588 254.149,281.2277 255.1493,281.7008 256.1912,282.0736 257.2647,282.3425 258.3593,282.5049 259.4646,282.5592 260.5698,282.5049 261.6645,282.3425 262.7379,282.0736 263.7798,281.7008 264.7802,281.2277 265.7293,280.6588 266.6182,279.9996 267.4381,279.2564 268.1813,278.4365 268.8405,277.5476 269.4094,276.5985 269.8825,275.5981 270.2553,274.5562 270.5242,273.4828 270.6866,272.3881 270.7409,271.2829 270.6866,270.1776 270.5242,269.083 270.2553,268.0095 269.8825,266.9676 269.4094,265.9672 268.8405,265.0181 268.1813,264.1292 267.4381,263.3093 266.6182,262.5662"/>
    <polygon points="281.3629,268.3928 281.7068,268.0811 282.0185,267.7372 282.295,267.3644 282.5337,266.9662 282.7321,266.5466 282.8885,266.1096 283.0013,265.6593 283.0694,265.2001 283.0922,264.7365 283.0694,264.2729 283.0013,263.8138 282.8885,263.3635 282.7321,262.9264 282.5337,262.5068 282.295,262.1087 282.0185,261.7359 281.7068,261.3919 281.3629,261.0802 280.99,260.8037 280.5919,260.5651 280.1723,260.3666 279.7352,260.2102 279.285,260.0974 278.8258,260.0293 278.3622,260.0066 277.8986,260.0293 277.4394,260.0974 276.9892,260.2102 276.5521,260.3666 276.1325,260.5651 275.7344,260.8037 275.3615,261.0802 275.0176,261.3919 274.7059,261.7359 274.4294,262.1087 274.1907,262.5068 273.9923,262.9264 273.8359,263.3635 273.7231,263.8138 273.655,264.2729 273.6322,264.7365 273.655,265.2001 273.7231,265.6593 273.8359,266.1096 273.9923,266.5466 274.1907,266.9662 274.4294,267.3644 274.7059,267.7372 275.0176,268.0811 275.3615,268.3928 275.7344,268.6694 276.1325,268.908 276.5521,269.1065 276.9892,269.2628 277.4394,269.3756 277.8986,269.4437 278.3622,269.4665 278.8258,269.4437 279.285,269.3756 279.7352,269.2628 280.1723,269.1065 280.5919,268.908 280.99,268.6694"/>
    <polygon points="273.6322,277.8292 273.655,278.2928 273.7231,278.752 273.8359,279.2022 273.9923,279.6393 274.1907,280.0589 274.4294,280.457 274.7059,280.8299 275.0176,281.1738 275.3615,281.4855 275.7344,281.762 276.1325,282.0007 276.5521,282.1991 276.9892,282.3555 277.4394,282.4683 277.8986,282.5364 278.3622,282.5592 278.8258,282.5364 279.285,282.4683 279.7352,282.3555 280.1723,282.1991 280.5919,282.0007 280.99,281.762 281.3629,281.4855 281.7068,281.1738 282.0185,280.8299 282.295,280.457 282.5337,280.0589 282.7321,279.6393 282.8885,279.2022 283.0013,278.752 283.0694,278.2928 283.0922,277.8292 283.0694,277.3656 283.0013,276.9064 282.8885,276.4562 282.7321,276.0191 282.5337,275.5995 282.295,275.2014 282.0185,274.8285 281.7068,274.4846 281.3629,274.1729 280.99,273.8964 280.5919,273.6577 280.1723,273.4593 279.7352,273.3029 279.285,273.1901 278.8258,273.122 278.3622,273.0992 277.8986,273.122 277.4394,273.1901 276.9892,273.3029 276.5521,273.4593 276.1325,273.6577 275.7344,273.8964 275.3615,274.1729 275.0176,274.4846 274.7059,274.8285 274.4294,275.2014 274.1907,275.5995 273.9923,276.0191 273.8359,276.4562 273.7231,276.9064 273.655,277.3656"/>
    <polygon points="273.655,304.4781 273.7231,304.9373 273.8359,305.3876 273.9923,305.8246 274.1907,306.2442 274.4294,306.6424 274.7059,307.0152 275.0176,307.3591 275.3615,307.6708 275.7344,307.9474 276.1325,308.186 276.5521,308.3845 276.9892,308.5408 277.4394,308.6536 277.8986,308.7217 278.3622,308.7445 278.8258,308.7217 279.285,308.6536 279.7352,308.5408 280.1723,308.3845 280.5919,308.186 280.99,307.9474 281.3629,307.6708 281.7068,307.3591 282.0185,307.0152 282.295,306.6424 282.5337,306.2442 282.7321,305.8246 282.8885,305.3876 283.0013,304.9373 283.0694,304.4781 283.0922,304.0145 283.0694,303.5509 283.0013,303.0918 282.8885,302.6415 282.7321,302.2044 282.5337,301.7848 282.295,301.3867 282.0185,301.0139 281.7068,300.6699 281.3629,300.3582 280.99,300.0817 280.5919,299.8431 280.1723,299.6446 279.7352,299.4882 279.285,299.3754 278.8258,299.3073 278.3622,299.2846 277.8986,299.3073 277.4394,299.3754 276.9892,299.4882 276.5521,299.6446 276.1325,299.8431 275.7344,300.0817 275.3615,300.3582 275.0176,300.6699 274.7059,301.0139 274.4294,301.3867 274.1907,301.7848 273.9923,302.2044 273.8359,302.6415 273.7231,303.0918 273.655,303.5509 273.6322,304.0145"/>
    <polygon points="256.1487,312.4 255.685,312.3772 255.2214,312.4 254.7623,312.4681 254.312,312.5809 253.875,312.7373 253.4553,312.9357 253.0572,313.1744 252.6844,313.4509 252.3404,313.7626 252.0287,314.1065 251.7522,314.4794 251.5136,314.8775 251.3151,315.2971 251.1587,315.7342 251.046,316.1844 250.9778,316.6436 250.9551,317.1072 250.9778,317.5708 251.046,318.03 251.1587,318.4802 251.3151,318.9173 251.5136,319.3369 251.7522,319.735 252.0287,320.1079 252.3404,320.4518 252.6844,320.7635 253.0572,321.04 253.4553,321.2787 253.875,321.4771 254.312,321.6335 254.7623,321.7463 255.2214,321.8144 255.685,321.8372 256.1487,321.8144 256.6078,321.7463 257.0581,321.6335 257.4951,321.4771 257.9147,321.2787 258.3129,321.04 258.6857,320.7635 259.0296,320.4518 259.3414,320.1079 259.6179,319.735 259.8565,319.3369 260.055,318.9173 260.2113,318.4802 260.3241,318.03 260.3922,317.5708 260.415,317.1072 260.3922,316.6436 260.3241,316.1844 260.2113,315.7342 260.055,315.2971 259.8565,314.8775 259.6179,314.4794 259.3414,314.1065 259.0296,313.7626 258.6857,313.4509 258.3129,313.1744 257.9147,312.9357 257.4951,312.7373 257.0581,312.5809 256.6078,312.4681"/>
    <polygon points="251.491,305.4417 252.311,306.1849 253.1998,306.8441 254.149,307.413 255.1493,307.8861 256.1912,308.2589 257.2647,308.5278 258.3593,308.6902 259.4646,308.7445 260.5698,308.6902 261.6645,308.5278 262.7379,308.2589 263.7798,307.8861 264.7802,307.413 265.7293,306.8441 266.6182,306.1849 267.4381,305.4417 268.1813,304.6218 268.8405,303.733 269.4094,302.7838 269.8825,301.7835 270.2553,300.7415 270.5242,299.6681 270.6866,298.5735 270.7409,297.4682 270.6866,296.3629 270.5242,295.2683 270.2553,294.1949 269.8825,293.1529 269.4094,292.1526 268.8405,291.2034 268.1813,290.3146 267.4381,289.4946 266.6182,288.7515 265.7293,288.0923 264.7802,287.5234 263.7798,287.0502 262.7379,286.6774 261.6645,286.4086 260.5698,286.2462 259.4646,286.1919 258.3593,286.2462 257.2647,286.4086 256.1912,286.6774 255.1493,287.0502 254.149,287.5234 253.1998,288.0923 252.311,288.7515 251.491,289.4946 250.7479,290.3146 250.0887,291.2034 249.5198,292.1526 249.0466,293.1529 248.6738,294.1949 248.4049,295.2683 248.2426,296.3629 248.1883,297.4682 248.2426,298.5735 248.4049,299.6681 248.6738,300.7415 249.0466,301.7835 249.5198,302.7838 250.0887,303.733 250.7479,304.6218"/>
    <polygon points="231.6348,325.6736 231.1978,325.8299 230.7782,326.0284 230.38,326.267 230.0072,326.5435 229.6633,326.8553 229.3516,327.1992 229.075,327.572 228.8364,327.9702 228.6379,328.3898 228.4816,328.8268 228.3688,329.2771 228.3007,329.7362 228.2779,330.1999 228.3007,330.6635 228.3688,331.1226 228.4816,331.5729 228.6379,332.0099 228.8364,332.4296 229.075,332.8277 229.3516,333.2005 229.6633,333.5445 230.0072,333.8562 230.38,334.1327 230.7782,334.3713 231.1978,334.5698 231.6348,334.7262 232.0851,334.839 232.5443,334.9071 233.0079,334.9298 233.4715,334.9071 233.9306,334.839 234.3809,334.7262 234.818,334.5698 235.2376,334.3713 235.6357,334.1327 236.0085,333.8562 236.3525,333.5445 236.6642,333.2005 236.9407,332.8277 237.1793,332.4296 237.3778,332.0099 237.5342,331.5729 237.647,331.1226 237.7151,330.6635 237.7378,330.1999 237.7151,329.7362 237.647,329.2771 237.5342,328.8268 237.3778,328.3898 237.1793,327.9702 236.9407,327.572 236.6642,327.1992 236.3525,326.8553 236.0085,326.5435 235.6357,326.267 235.2376,326.0284 234.818,325.8299 234.3809,325.6736 233.9306,325.5608 233.4715,325.4927 233.0079,325.4699 232.5443,325.4927 232.0851,325.5608"/>
    <polygon points="225.3322,322.5483 225.1699,321.4536 224.901,320.3802 224.5282,319.3383 224.0551,318.3379 223.4861,317.3888 222.8269,316.4999 222.0838,315.68 221.2638,314.9368 220.375,314.2776 219.4259,313.7087 218.4255,313.2356 217.3836,312.8628 216.3101,312.5939 215.2155,312.4315 214.1102,312.3772 213.005,312.4315 211.9103,312.5939 210.8369,312.8628 209.795,313.2356 208.7946,313.7087 207.8455,314.2776 206.9566,314.9368 206.1367,315.68 205.3935,316.4999 204.7343,317.3888 204.1654,318.3379 203.6923,319.3383 203.3195,320.3802 203.0506,321.4536 202.8882,322.5483 202.8339,323.6535 202.8882,324.7588 203.0506,325.8534 203.3195,326.9269 203.6923,327.9688 204.1654,328.9691 204.7343,329.9183 205.3935,330.8071 206.1367,331.6271 206.9566,332.3702 207.8455,333.0294 208.7946,333.5983 209.795,334.0715 210.8369,334.4443 211.9103,334.7132 213.005,334.8755 214.1102,334.9298 215.2155,334.8755 216.3101,334.7132 217.3836,334.4443 218.4255,334.0715 219.4259,333.5983 220.375,333.0294 221.2638,332.3702 222.0838,331.6271 222.8269,330.8071 223.4861,329.9183 224.0551,328.9691 224.5282,327.9688 224.901,326.9269 225.1699,325.8534 225.3322,324.7588 225.3865,323.6535"/>
    <polygon points="195.6475,340.0908 195.9915,340.4025 196.3643,340.679 196.7624,340.9177 197.182,341.1161 197.6191,341.2725 198.0694,341.3853 198.5285,341.4534 198.9921,341.4762 199.4557,341.4534 199.9149,341.3853 200.3652,341.2725 200.8022,341.1161 201.2218,340.9177 201.62,340.679 201.9928,340.4025 202.3367,340.0908 202.6484,339.7469 202.925,339.374 203.1636,338.9759 203.3621,338.5563 203.5184,338.1192 203.6312,337.669 203.6993,337.2098 203.7221,336.7462 203.6993,336.2826 203.6312,335.8234 203.5184,335.3732 203.3621,334.9361 203.1636,334.5165 202.925,334.1184 202.6484,333.7455 202.3367,333.4016 201.9928,333.0899 201.62,332.8134 201.2218,332.5747 200.8022,332.3763 200.3652,332.2199 199.9149,332.1071 199.4557,332.039 198.9921,332.0162 198.5285,332.039 198.0694,332.1071 197.6191,332.2199 197.182,332.3763 196.7624,332.5747 196.3643,332.8134 195.9915,333.0899 195.6475,333.4016 195.3358,333.7455 195.0593,334.1184 194.8207,334.5165 194.6222,334.9361 194.4658,335.3732 194.353,335.8234 194.2849,336.2826 194.2622,336.7462 194.2849,337.2098 194.353,337.669 194.4658,338.1192 194.6222,338.5563 194.8207,338.9759 195.0593,339.374 195.3358,339.7469"/>
    <polygon points="182.9463,343.7562 183.0145,344.2153 183.1272,344.6656 183.2836,345.1026 183.4821,345.5222 183.7207,345.9204 183.9972,346.2932 184.3089,346.6371 184.6529,346.9489 185.0257,347.2254 185.4238,347.464 185.8435,347.6625 186.2805,347.8188 186.7308,347.9316 187.1899,347.9997 187.6535,348.0225 188.1172,347.9997 188.5763,347.9316 189.0266,347.8188 189.4636,347.6625 189.8832,347.464 190.2814,347.2254 190.6542,346.9489 190.9981,346.6371 191.3099,346.2932 191.5864,345.9204 191.825,345.5222 192.0235,345.1026 192.1798,344.6656 192.2926,344.2153 192.3607,343.7562 192.3835,343.2925 192.3607,342.8289 192.2926,342.3698 192.1798,341.9195 192.0235,341.4825 191.825,341.0628 191.5864,340.6647 191.3099,340.2919 190.9981,339.9479 190.6542,339.6362 190.2814,339.3597 189.8832,339.1211 189.4636,338.9226 189.0266,338.7662 188.5763,338.6534 188.1172,338.5853 187.6535,338.5626 187.1899,338.5853 186.7308,338.6534 186.2805,338.7662 185.8435,338.9226 185.4238,339.1211 185.0257,339.3597 184.6529,339.6362 184.3089,339.9479 183.9972,340.2919 183.7207,340.6647 183.4821,341.0628 183.2836,341.4825 183.1272,341.9195 183.0145,342.3698 182.9463,342.8289 182.9236,343.2925"/>
    <polygon points="165.4826,360.6296 166.556,360.8985 167.6506,361.0609 168.7559,361.1152 169.8612,361.0609 170.9558,360.8985 172.0292,360.6296 173.0712,360.2568 174.0715,359.7837 175.0207,359.2148 175.9095,358.5556 176.7295,357.8124 177.4726,356.9925 178.1318,356.1036 178.7007,355.1545 179.1739,354.1541 179.5467,353.1122 179.8155,352.0388 179.9779,350.9441 180.0322,349.8389 179.9779,348.7336 179.8155,347.639 179.5467,346.5655 179.1739,345.5236 178.7007,344.5233 178.1318,343.5741 177.4726,342.6853 176.7295,341.8653 175.9095,341.1222 175.0207,340.463 174.0715,339.8941 173.0712,339.4209 172.0292,339.0481 170.9558,338.7792 169.8612,338.6169 168.7559,338.5626 167.6506,338.6169 166.556,338.7792 165.4826,339.0481 164.4406,339.4209 163.4403,339.8941 162.4911,340.463 161.6023,341.1222 160.7824,341.8653 160.0392,342.6853 159.38,343.5741 158.8111,344.5233 158.338,345.5236 157.9652,346.5655 157.6963,347.639 157.5339,348.7336 157.4796,349.8389 157.5339,350.9441 157.6963,352.0388 157.9652,353.1122 158.338,354.1541 158.8111,355.1545 159.38,356.1036 160.0392,356.9925 160.7824,357.8124 161.6023,358.5556 162.4911,359.2148 163.4403,359.7837 164.4406,360.2568"/>
    <polygon points="166.7865,365.1079 166.3494,364.9516 165.8991,364.8388 165.44,364.7707 164.9764,364.7479 164.5128,364.7707 164.0536,364.8388 163.6033,364.9516 163.1663,365.1079 162.7467,365.3064 162.3485,365.545 161.9757,365.8215 161.6318,366.1333 161.3201,366.4772 161.0435,366.85 160.8049,367.2482 160.6065,367.6678 160.4501,368.1048 160.3373,368.5551 160.2692,369.0142 160.2464,369.4779 160.2692,369.9415 160.3373,370.4006 160.4501,370.8509 160.6065,371.288 160.8049,371.7076 161.0435,372.1057 161.3201,372.4785 161.6318,372.8225 161.9757,373.1342 162.3485,373.4107 162.7467,373.6493 163.1663,373.8478 163.6033,374.0042 164.0536,374.117 164.5128,374.1851 164.9764,374.2078 165.44,374.1851 165.8991,374.117 166.3494,374.0042 166.7865,373.8478 167.2061,373.6493 167.6042,373.4107 167.977,373.1342 168.321,372.8225 168.6327,372.4785 168.9092,372.1057 169.1478,371.7076 169.3463,371.288 169.5027,370.8509 169.6155,370.4006 169.6836,369.9415 169.7064,369.4779 169.6836,369.0142 169.6155,368.5551 169.5027,368.1048 169.3463,367.6678 169.1478,367.2482 168.9092,366.85 168.6327,366.4772 168.321,366.1333 167.977,365.8215 167.6042,365.545 167.2061,365.3064"/>
  </g>
</svg>
