<?xml version="1.0" encoding="utf-8" ?>
<svg xmlns="http://www.w3.org/2000/svg" xmlns:cc="http://creativecommons.org/ns" xmlns:dc="http://purl.org/dc/elements/1.1/" xmlns:ev="http://www.w3.org/2001/xml-events" xmlns:inkscape="http://www.inkscape.org/namespaces/inkscape" xmlns:rdf="http://www.w3.org/1999/02/22-rdf-syntax-ns" xmlns:sodipodi="http://sodipodi.sourceforge.net/DTD/sodipodi-0.dtd" xmlns:xlink="http://www.w3.org/1999/xlink" baseProfile="tiny" height="15.875cm" version="1.2" viewBox="0 0 432.0 600.0" width="11.43cm">
  <metadata>
    <rdf:RDF>
      <cc:Work>
        <dc:format>image/svg+xml</dc:format>
        <dc:source>vsk save -s 205 -c hex-grid/config/bubble-coasters-2.json /Users/tobin/src/fabian/plotting/fabian-plotting/hex-grid/sketch_hex_grid.py</dc:source>
        <dc:date>2023-11-11T11:30:23.396244</dc:date>
      </cc:Work>
    </rdf:RDF>
  </metadata>
  <defs/>
  <g fill="none" id="layer1" inkscape:groupmode="layer" inkscape:label="1" stroke="#000000" stroke-width="0.7559" style="display:inline">
    <polygon points="268.8215,296.041 269.5647,296.8609 270.2239,297.7498 270.7928,298.6989 271.2659,299.6993 271.6387,300.7412 271.9076,301.8146 272.07,302.9093 272.1243,304.0145 272.07,305.1198 271.9076,306.2144 271.6387,307.2879 271.2659,308.3298 270.7928,309.3301 270.2239,310.2793 269.5647,311.1681 268.8215,311.9881 268.0016,312.7312 267.1128,313.3904 266.1636,313.9593 265.1632,314.4325 264.1213,314.8053 263.0479,315.0742 261.9532,315.2365 260.848,315.2908 259.7427,315.2365 258.6481,315.0742 257.5746,314.8053 256.5327,314.4325 255.5324,313.9593 254.5832,313.3904 253.6944,312.7312 252.8744,311.9881 252.1313,311.1681 251.4721,310.2793 250.9032,309.3301 250.43,308.3298 250.0572,307.2879 249.7883,306.2144 249.626,305.1198 249.5717,304.0145 249.626,302.9093 249.7883,301.8146 250.0572,300.7412 250.43,299.6993 250.9032,298.6989 251.4721,297.7498 252.1313,296.8609 252.8744,296.041 253.6944,295.2978 254.5832,294.6386 255.5324,294.0697 256.5327,293.5966 257.5746,293.2238 258.6481,292.9549 259.7427,292.7925 260.848,292.7382 261.9532,292.7925 263.0479,292.9549 264.1213,293.2238 265.1632,293.5966 266.1636,294.0697 267.1128,294.6386 268.0016,295.2978"/>
    <polygon points="277.1178,301.401 276.7449,301.1245 276.401,300.8128 276.0893,300.4689 275.8128,300.096 275.5741,299.6979 275.3757,299.2783 275.2193,298.8412 275.1065,298.391 275.0384,297.9318 275.0156,297.4682 275.0384,297.0046 275.1065,296.5454 275.2193,296.0952 275.3757,295.6581 275.5741,295.2385 275.8128,294.8404 276.0893,294.4675 276.401,294.1236 276.7449,293.8119 277.1178,293.5354 277.5159,293.2967 277.9355,293.0983 278.3726,292.9419 278.8228,292.8291 279.282,292.761 279.7456,292.7382 280.2092,292.761 280.6684,292.8291 281.1186,292.9419 281.5557,293.0983 281.9753,293.2967 282.3734,293.5354 282.7463,293.8119 283.0902,294.1236 283.4019,294.4675 283.6784,294.8404 283.9171,295.2385 284.1155,295.6581 284.2719,296.0952 284.3847,296.5454 284.4528,297.0046 284.4756,297.4682 284.4528,297.9318 284.3847,298.391 284.2719,298.8412 284.1155,299.2783 283.9171,299.6979 283.6784,300.096 283.4019,300.4689 283.0902,300.8128 282.7463,301.1245 282.3734,301.401 281.9753,301.6397 281.5557,301.8381 281.1186,301.9945 280.6684,302.1073 280.2092,302.1754 279.7456,302.1982 279.282,302.1754 278.8228,302.1073 278.3726,301.9945 277.9355,301.8381 277.5159,301.6397"/>
    <polygon points="294.0849,313.4509 294.4288,313.7626 294.7405,314.1065 295.017,314.4794 295.2557,314.8775 295.4541,315.2971 295.6105,315.7342 295.7233,316.1844 295.7914,316.6436 295.8142,317.1072 295.7914,317.5708 295.7233,318.03 295.6105,318.4802 295.4541,318.9173 295.2557,319.3369 295.017,319.735 294.7405,320.1079 294.4288,320.4518 294.0849,320.7635 293.712,321.04 293.3139,321.2787 292.8943,321.4771 292.4572,321.6335 292.007,321.7463 291.5478,321.8144 291.0842,321.8372 290.6206,321.8144 290.1614,321.7463 289.7112,321.6335 289.2741,321.4771 288.8545,321.2787 288.4564,321.04 288.0835,320.7635 287.7396,320.4518 287.4279,320.1079 287.1514,319.735 286.9127,319.3369 286.7143,318.9173 286.5579,318.4802 286.4451,318.03 286.377,317.5708 286.3542,317.1072 286.377,316.6436 286.4451,316.1844 286.5579,315.7342 286.7143,315.2971 286.9127,314.8775 287.1514,314.4794 287.4279,314.1065 287.7396,313.7626 288.0835,313.4509 288.4564,313.1744 288.8545,312.9357 289.2741,312.7373 289.7112,312.5809 290.1614,312.4681 290.6206,312.4 291.0842,312.3772 291.5478,312.4 292.007,312.4681 292.4572,312.5809 292.8943,312.7373 293.3139,312.9357 293.712,313.1744"/>
    <polygon points="282.3734,314.4937 281.9753,314.7323 281.5557,314.9308 281.1186,315.0872 280.6684,315.2 280.2092,315.2681 279.7456,315.2908 279.282,315.2681 278.8228,315.2 278.3726,315.0872 277.9355,314.9308 277.5159,314.7323 277.1178,314.4937 276.7449,314.2172 276.401,313.9055 276.0893,313.5615 275.8128,313.1887 275.5741,312.7906 275.3757,312.3709 275.2193,311.9339 275.1065,311.4836 275.0384,311.0245 275.0156,310.5609 275.0384,310.0972 275.1065,309.6381 275.2193,309.1878 275.3757,308.7508 275.5741,308.3312 275.8128,307.933 276.0893,307.5602 276.401,307.2163 276.7449,306.9045 277.1178,306.628 277.5159,306.3894 277.9355,306.1909 278.3726,306.0346 278.8228,305.9218 279.282,305.8537 279.7456,305.8309 280.2092,305.8537 280.6684,305.9218 281.1186,306.0346 281.5557,306.1909 281.9753,306.3894 282.3734,306.628 282.7463,306.9045 283.0902,307.2163 283.4019,307.5602 283.6784,307.933 283.9171,308.3312 284.1155,308.7508 284.2719,309.1878 284.3847,309.6381 284.4528,310.0972 284.4756,310.5609 284.4528,311.0245 284.3847,311.4836 284.2719,311.9339 284.1155,312.3709 283.9171,312.7906 283.6784,313.1887 283.4019,313.5615 283.0902,313.9055 282.7463,314.2172"/>
    <polygon points="279.7456,318.9236 280.2092,318.9463 280.6684,319.0144 281.1186,319.1272 281.5557,319.2836 281.9753,319.4821 282.3734,319.7207 282.7463,319.9972 283.0902,320.3089 283.4019,320.6529 283.6784,321.0257 283.9171,321.4238 284.1155,321.8434 284.2719,322.2805 284.3847,322.7308 284.4528,323.1899 284.4756,323.6535 284.4528,324.1172 284.3847,324.5763 284.2719,325.0266 284.1155,325.4636 283.9171,325.8832 283.6784,326.2814 283.4019,326.6542 283.0902,326.9981 282.7463,327.3098 282.3734,327.5864 281.9753,327.825 281.5557,328.0235 281.1186,328.1798 280.6684,328.2926 280.2092,328.3607 279.7456,328.3835 279.282,328.3607 278.8228,328.2926 278.3726,328.1798 277.9355,328.0235 277.5159,327.825 277.1178,327.5864 276.7449,327.3098 276.401,326.9981 276.0893,326.6542 275.8128,326.2814 275.5741,325.8832 275.3757,325.4636 275.2193,325.0266 275.1065,324.5763 275.0384,324.1172 275.0156,323.6535 275.0384,323.1899 275.1065,322.7308 275.2193,322.2805 275.3757,321.8434 275.5741,321.4238 275.8128,321.0257 276.0893,320.6529 276.401,320.3089 276.7449,319.9972 277.1178,319.7207 277.5159,319.4821 277.9355,319.2836 278.3726,319.1272 278.8228,319.0144 279.282,318.9463"/>
    <polygon points="280.6684,332.1071 280.2092,332.039 279.7456,332.0162 279.282,332.039 278.8228,332.1071 278.3726,332.2199 277.9355,332.3763 277.5159,332.5747 277.1178,332.8134 276.7449,333.0899 276.401,333.4016 276.0893,333.7455 275.8128,334.1184 275.5741,334.5165 275.3757,334.9361 275.2193,335.3732 275.1065,335.8234 275.0384,336.2826 275.0156,336.7462 275.0384,337.2098 275.1065,337.669 275.2193,338.1192 275.3757,338.5563 275.5741,338.9759 275.8128,339.374 276.0893,339.7469 276.401,340.0908 276.7449,340.4025 277.1178,340.679 277.5159,340.9177 277.9355,341.1161 278.3726,341.2725 278.8228,341.3853 279.282,341.4534 279.7456,341.4762 280.2092,341.4534 280.6684,341.3853 281.1186,341.2725 281.5557,341.1161 281.9753,340.9177 282.3734,340.679 282.7463,340.4025 283.0902,340.0908 283.4019,339.7469 283.6784,339.374 283.9171,338.9759 284.1155,338.5563 284.2719,338.1192 284.3847,337.669 284.4528,337.2098 284.4756,336.7462 284.4528,336.2826 284.3847,335.8234 284.2719,335.3732 284.1155,334.9361 283.9171,334.5165 283.6784,334.1184 283.4019,333.7455 283.0902,333.4016 282.7463,333.0899 282.3734,332.8134 281.9753,332.5747 281.5557,332.3763 281.1186,332.2199"/>
    <polygon points="270.7928,324.8843 271.2659,325.8846 271.6387,326.9265 271.9076,328.0 272.07,329.0946 272.1243,330.1999 272.07,331.3051 271.9076,332.3998 271.6387,333.4732 271.2659,334.5151 270.7928,335.5155 270.2239,336.4646 269.5647,337.3535 268.8215,338.1734 268.0016,338.9166 267.1128,339.5758 266.1636,340.1447 265.1632,340.6178 264.1213,340.9906 263.0479,341.2595 261.9532,341.4219 260.848,341.4762 259.7427,341.4219 258.6481,341.2595 257.5746,340.9906 256.5327,340.6178 255.5324,340.1447 254.5832,339.5758 253.6944,338.9166 252.8744,338.1734 252.1313,337.3535 251.4721,336.4646 250.9032,335.5155 250.43,334.5151 250.0572,333.4732 249.7883,332.3998 249.626,331.3051 249.5717,330.1999 249.626,329.0946 249.7883,328.0 250.0572,326.9265 250.43,325.8846 250.9032,324.8843 251.4721,323.9351 252.1313,323.0463 252.8744,322.2263 253.6944,321.4832 254.5832,320.824 255.5324,320.2551 256.5327,319.7819 257.5746,319.4091 258.6481,319.1402 259.7427,318.9779 260.848,318.9236 261.9532,318.9779 263.0479,319.1402 264.1213,319.4091 265.1632,319.7819 266.1636,320.2551 267.1128,320.824 268.0016,321.4832 268.8215,322.2263 269.5647,323.0463 270.2239,323.9351"/>
    <polygon points="226.2844,359.6585 225.9116,360.7005 225.4385,361.7008 224.8695,362.65 224.2103,363.5388 223.4672,364.3588 222.6473,365.1019 221.7584,365.7611 220.8093,366.33 219.8089,366.8031 218.767,367.176 217.6935,367.4448 216.5989,367.6072 215.4936,367.6615 214.3884,367.6072 213.2937,367.4448 212.2203,367.176 211.1784,366.8031 210.178,366.33 209.2289,365.7611 208.34,365.1019 207.5201,364.3588 206.7769,363.5388 206.1177,362.65 205.5488,361.7008 205.0757,360.7005 204.7029,359.6585 204.434,358.5851 204.2716,357.4905 204.2173,356.3852 204.2716,355.2799 204.434,354.1853 204.7029,353.1119 205.0757,352.0699 205.5488,351.0696 206.1177,350.1204 206.7769,349.2316 207.5201,348.4116 208.34,347.6685 209.2289,347.0093 210.178,346.4404 211.1784,345.9673 212.2203,345.5944 213.2937,345.3256 214.3884,345.1632 215.4936,345.1089 216.5989,345.1632 217.6935,345.3256 218.767,345.5944 219.8089,345.9673 220.8093,346.4404 221.7584,347.0093 222.6473,347.6685 223.4672,348.4116 224.2103,349.2316 224.8695,350.1204 225.4385,351.0696 225.9116,352.0699 226.2844,353.1119 226.5533,354.1853 226.7156,355.2799 226.7699,356.3852 226.7156,357.4905 226.5533,358.5851"/>
    <polygon points="208.3695,379.3688 208.0578,379.0249 207.7813,378.652 207.5426,378.2539 207.3442,377.8343 207.1878,377.3972 207.075,376.947 207.0069,376.4878 206.9841,376.0242 207.0069,375.5606 207.075,375.1014 207.1878,374.6512 207.3442,374.2141 207.5426,373.7945 207.7813,373.3964 208.0578,373.0235 208.3695,372.6796 208.7134,372.3679 209.0863,372.0914 209.4844,371.8527 209.904,371.6543 210.3411,371.4979 210.7913,371.3851 211.2505,371.317 211.7141,371.2942 212.1777,371.317 212.6369,371.3851 213.0872,371.4979 213.5242,371.6543 213.9438,371.8527 214.3419,372.0914 214.7148,372.3679 215.0587,372.6796 215.3704,373.0235 215.6469,373.3964 215.8856,373.7945 216.084,374.2141 216.2404,374.6512 216.3532,375.1014 216.4213,375.5606 216.4441,376.0242 216.4213,376.4878 216.3532,376.947 216.2404,377.3972 216.084,377.8343 215.8856,378.2539 215.6469,378.652 215.3704,379.0249 215.0587,379.3688 214.7148,379.6805 214.3419,379.957 213.9438,380.1957 213.5242,380.3941 213.0872,380.5505 212.6369,380.6633 212.1777,380.7314 211.7141,380.7542 211.2505,380.7314 210.7913,380.6633 210.3411,380.5505 209.904,380.3941 209.4844,380.1957 209.0863,379.957 208.7134,379.6805"/>
    <polygon points="195.6456,369.4779 195.6683,369.0142 195.7364,368.5551 195.8492,368.1048 196.0056,367.6678 196.2041,367.2482 196.4427,366.85 196.7192,366.4772 197.0309,366.1333 197.3749,365.8215 197.7477,365.545 198.1458,365.3064 198.5654,365.1079 199.0025,364.9516 199.4528,364.8388 199.9119,364.7707 200.3755,364.7479 200.8391,364.7707 201.2983,364.8388 201.7486,364.9516 202.1856,365.1079 202.6052,365.3064 203.0034,365.545 203.3762,365.8215 203.7201,366.1333 204.0318,366.4772 204.3084,366.85 204.547,367.2482 204.7455,367.6678 204.9018,368.1048 205.0146,368.5551 205.0827,369.0142 205.1055,369.4779 205.0827,369.9415 205.0146,370.4006 204.9018,370.8509 204.7455,371.288 204.547,371.7076 204.3084,372.1057 204.0318,372.4785 203.7201,372.8225 203.3762,373.1342 203.0034,373.4107 202.6052,373.6493 202.1856,373.8478 201.7486,374.0042 201.2983,374.117 200.8391,374.1851 200.3755,374.2078 199.9119,374.1851 199.4528,374.117 199.0025,374.0042 198.5654,373.8478 198.1458,373.6493 197.7477,373.4107 197.3749,373.1342 197.0309,372.8225 196.7192,372.4785 196.4427,372.1057 196.2041,371.7076 196.0056,371.288 195.8492,370.8509 195.7364,370.4006 195.6683,369.9415"/>
    <polygon points="187.2269,367.3015 186.8073,367.103 186.4091,366.8644 186.0363,366.5879 185.6924,366.2761 185.3806,365.9322 185.1041,365.5594 184.8655,365.1612 184.667,364.7416 184.5106,364.3046 184.3979,363.8543 184.3297,363.3952 184.307,362.9315 184.3297,362.4679 184.3979,362.0088 184.5106,361.5585 184.667,361.1215 184.8655,360.7018 185.1041,360.3037 185.3806,359.9309 185.6924,359.5869 186.0363,359.2752 186.4091,358.9987 186.8073,358.7601 187.2269,358.5616 187.6639,358.4052 188.1142,358.2924 188.5733,358.2243 189.0369,358.2016 189.5006,358.2243 189.9597,358.2924 190.41,358.4052 190.847,358.5616 191.2666,358.7601 191.6648,358.9987 192.0376,359.2752 192.3815,359.5869 192.6933,359.9309 192.9698,360.3037 193.2084,360.7018 193.4069,361.1215 193.5632,361.5585 193.676,362.0088 193.7441,362.4679 193.7669,362.9315 193.7441,363.3952 193.676,363.8543 193.5632,364.3046 193.4069,364.7416 193.2084,365.1612 192.9698,365.5594 192.6933,365.9322 192.3815,366.2761 192.0376,366.5879 191.6648,366.8644 191.2666,367.103 190.847,367.3015 190.41,367.4578 189.9597,367.5706 189.5006,367.6387 189.0369,367.6615 188.5733,367.6387 188.1142,367.5706 187.6639,367.4578"/>
    <polygon points="174.6977,360.0415 175.0705,360.318 175.4687,360.5567 175.8883,360.7551 176.3253,360.9115 176.7756,361.0243 177.2347,361.0924 177.6984,361.1152 178.162,361.0924 178.6211,361.0243 179.0714,360.9115 179.5084,360.7551 179.9281,360.5567 180.3262,360.318 180.699,360.0415 181.043,359.7298 181.3547,359.3859 181.6312,359.013 181.8698,358.6149 182.0683,358.1953 182.2247,357.7582 182.3375,357.308 182.4056,356.8488 182.4283,356.3852 182.4056,355.9216 182.3375,355.4624 182.2247,355.0122 182.0683,354.5751 181.8698,354.1555 181.6312,353.7574 181.3547,353.3845 181.043,353.0406 180.699,352.7289 180.3262,352.4524 179.9281,352.2137 179.5084,352.0153 179.0714,351.8589 178.6211,351.7461 178.162,351.678 177.6984,351.6552 177.2347,351.678 176.7756,351.7461 176.3253,351.8589 175.8883,352.0153 175.4687,352.2137 175.0705,352.4524 174.6977,352.7289 174.3538,353.0406 174.042,353.3845 173.7655,353.7574 173.5269,354.1555 173.3284,354.5751 173.1721,355.0122 173.0593,355.4624 172.9912,355.9216 172.9684,356.3852 172.9912,356.8488 173.0593,357.308 173.1721,357.7582 173.3284,358.1953 173.5269,358.6149 173.7655,359.013 174.042,359.3859 174.3538,359.7298"/>
    <polygon points="163.0152,359.5869 162.7035,359.9309 162.427,360.3037 162.1883,360.7018 161.9899,361.1215 161.8335,361.5585 161.7207,362.0088 161.6526,362.4679 161.6298,362.9315 161.6526,363.3952 161.7207,363.8543 161.8335,364.3046 161.9899,364.7416 162.1883,365.1612 162.427,365.5594 162.7035,365.9322 163.0152,366.2761 163.3591,366.5879 163.7319,366.8644 164.1301,367.103 164.5497,367.3015 164.9867,367.4578 165.437,367.5706 165.8962,367.6387 166.3598,367.6615 166.8234,367.6387 167.2826,367.5706 167.7328,367.4578 168.1699,367.3015 168.5895,367.103 168.9876,366.8644 169.3604,366.5879 169.7044,366.2761 170.0161,365.9322 170.2926,365.5594 170.5312,365.1612 170.7297,364.7416 170.8861,364.3046 170.9989,363.8543 171.067,363.3952 171.0898,362.9315 171.067,362.4679 170.9989,362.0088 170.8861,361.5585 170.7297,361.1215 170.5312,360.7018 170.2926,360.3037 170.0161,359.9309 169.7044,359.5869 169.3604,359.2752 168.9876,358.9987 168.5895,358.7601 168.1699,358.5616 167.7328,358.4052 167.2826,358.2924 166.8234,358.2243 166.3598,358.2016 165.8962,358.2243 165.437,358.2924 164.9867,358.4052 164.5497,358.5616 164.1301,358.7601 163.7319,358.9987 163.3591,359.2752"/>
    <polygon points="170.5312,338.9759 170.2926,339.374 170.0161,339.7469 169.7044,340.0908 169.3604,340.4025 168.9876,340.679 168.5895,340.9177 168.1699,341.1161 167.7328,341.2725 167.2826,341.3853 166.8234,341.4534 166.3598,341.4762 165.8962,341.4534 165.437,341.3853 164.9867,341.2725 164.5497,341.1161 164.1301,340.9177 163.7319,340.679 163.3591,340.4025 163.0152,340.0908 162.7035,339.7469 162.427,339.374 162.1883,338.9759 161.9899,338.5563 161.8335,338.1192 161.7207,337.669 161.6526,337.2098 161.6298,336.7462 161.6526,336.2826 161.7207,335.8234 161.8335,335.3732 161.9899,334.9361 162.1883,334.5165 162.427,334.1184 162.7035,333.7455 163.0152,333.4016 163.3591,333.0899 163.7319,332.8134 164.1301,332.5747 164.5497,332.3763 164.9867,332.2199 165.437,332.1071 165.8962,332.039 166.3598,332.0162 166.8234,332.039 167.2826,332.1071 167.7328,332.2199 168.1699,332.3763 168.5895,332.5747 168.9876,332.8134 169.3604,333.0899 169.7044,333.4016 170.0161,333.7455 170.2926,334.1184 170.5312,334.5165 170.7297,334.9361 170.8861,335.3732 170.9989,335.8234 171.067,336.2826 171.0898,336.7462 171.067,337.2098 170.9989,337.669 170.8861,338.1192 170.7297,338.5563"/>
    <polygon points="180.3262,326.267 180.699,326.5435 181.043,326.8553 181.3547,327.1992 181.6312,327.572 181.8698,327.9702 182.0683,328.3898 182.2247,328.8268 182.3375,329.2771 182.4056,329.7362 182.4283,330.1999 182.4056,330.6635 182.3375,331.1226 182.2247,331.5729 182.0683,332.0099 181.8698,332.4296 181.6312,332.8277 181.3547,333.2005 181.043,333.5445 180.699,333.8562 180.3262,334.1327 179.9281,334.3713 179.5084,334.5698 179.0714,334.7262 178.6211,334.839 178.162,334.9071 177.6984,334.9298 177.2347,334.9071 176.7756,334.839 176.3253,334.7262 175.8883,334.5698 175.4687,334.3713 175.0705,334.1327 174.6977,333.8562 174.3538,333.5445 174.042,333.2005 173.7655,332.8277 173.5269,332.4296 173.3284,332.0099 173.1721,331.5729 173.0593,331.1226 172.9912,330.6635 172.9684,330.1999 172.9912,329.7362 173.0593,329.2771 173.1721,328.8268 173.3284,328.3898 173.5269,327.9702 173.7655,327.572 174.042,327.1992 174.3538,326.8553 174.6977,326.5435 175.0705,326.267 175.4687,326.0284 175.8883,325.8299 176.3253,325.6736 176.7756,325.5608 177.2347,325.4927 177.6984,325.4699 178.162,325.4927 178.6211,325.5608 179.0714,325.6736 179.5084,325.8299 179.9281,326.0284"/>
    <polygon points="199.9701,334.5758 200.79,335.319 201.5332,336.1389 202.1924,337.0278 202.7613,337.9769 203.2344,338.9773 203.6072,340.0192 203.8761,341.0926 204.0385,342.1873 204.0928,343.2925 204.0385,344.3978 203.8761,345.4924 203.6072,346.5659 203.2344,347.6078 202.7613,348.6081 202.1924,349.5573 201.5332,350.4461 200.79,351.2661 199.9701,352.0092 199.0813,352.6684 198.1321,353.2373 197.1317,353.7105 196.0898,354.0833 195.0164,354.3522 193.9217,354.5145 192.8165,354.5688 191.7112,354.5145 190.6166,354.3522 189.5431,354.0833 188.5012,353.7105 187.5009,353.2373 186.5517,352.6684 185.6629,352.0092 184.8429,351.2661 184.0998,350.4461 183.4406,349.5573 182.8717,348.6081 182.3985,347.6078 182.0257,346.5659 181.7568,345.4924 181.5945,344.3978 181.5402,343.2925 181.5945,342.1873 181.7568,341.0926 182.0257,340.0192 182.3985,338.9773 182.8717,337.9769 183.4406,337.0278 184.0998,336.1389 184.8429,335.319 185.6629,334.5758 186.5517,333.9166 187.5009,333.3477 188.5012,332.8746 189.5431,332.5018 190.6166,332.2329 191.7112,332.0705 192.8165,332.0162 193.9217,332.0705 195.0164,332.2329 196.0898,332.5018 197.1317,332.8746 198.1321,333.3477 199.0813,333.9166"/>
    <polygon points="200.5387,326.4328 199.733,324.1811 199.152,321.8613 198.8011,319.4958 198.6837,317.1072 198.8011,314.7186 199.152,312.353 199.733,310.0333 200.5387,307.7816 201.5612,305.6197 202.7906,303.5685 204.2152,301.6477 205.8212,299.8757 207.5932,298.2697 209.514,296.8451 211.5652,295.6157 213.7271,294.5932 215.9788,293.7875 218.2985,293.2065 220.6641,292.8556 223.0527,292.7382 225.4413,292.8556 227.8068,293.2065 230.1266,293.7875 232.3783,294.5932 234.5401,295.6157 236.5914,296.8451 238.5122,298.2697 240.2842,299.8757 241.8902,301.6477 243.3148,303.5685 244.5442,305.6197 245.5667,307.7816 246.3723,310.0333 246.9534,312.353 247.3043,314.7186 247.4217,317.1072 247.3043,319.4958 246.9534,321.8613 246.3723,324.1811 245.5667,326.4328 244.5442,328.5947 243.3148,330.6459 241.8902,332.5667 240.2842,334.3387 238.5122,335.9447 236.5914,337.3693 234.5401,338.5987 232.3783,339.6212 230.1266,340.4269 227.8068,341.0079 225.4413,341.3588 223.0527,341.4762 220.6641,341.3588 218.2985,341.0079 215.9788,340.4269 213.7271,339.6212 211.5652,338.5987 209.514,337.3693 207.5932,335.9447 205.8212,334.3387 204.2152,332.5667 202.7906,330.6459 201.5612,328.5947"/>
    <polygon points="200.2124,300.2475 201.018,297.9958 201.5991,295.676 201.95,293.3104 202.0673,290.9219 201.95,288.5333 201.5991,286.1677 201.018,283.8479 200.2124,281.5963 199.1899,279.4344 197.9604,277.3832 196.5358,275.4623 194.9298,273.6904 193.1579,272.0844 191.237,270.6598 189.1858,269.4303 187.024,268.4079 184.7723,267.6022 182.4525,267.0211 180.0869,266.6702 177.6984,266.5529 175.3098,266.6702 172.9442,267.0211 170.6244,267.6022 168.3728,268.4079 166.2109,269.4303 164.1597,270.6598 162.2389,272.0844 160.4669,273.6904 158.8609,275.4623 157.4363,277.3832 156.2068,279.4344 155.1844,281.5963 154.3787,283.8479 153.7976,286.1677 153.4467,288.5333 153.3294,290.9219 153.4467,293.3104 153.7976,295.676 154.3787,297.9958 155.1844,300.2475 156.2068,302.4093 157.4363,304.4605 158.8609,306.3814 160.4669,308.1533 162.2389,309.7593 164.1597,311.1839 166.2109,312.4134 168.3728,313.4359 170.6244,314.2415 172.9442,314.8226 175.3098,315.1735 177.6984,315.2908 180.0869,315.1735 182.4525,314.8226 184.7723,314.2415 187.024,313.4359 189.1858,312.4134 191.237,311.1839 193.1579,309.7593 194.9298,308.1533 196.5358,306.3814 197.9604,304.4605 199.1899,302.4093"/>
    <polygon points="201.5612,276.224 202.7906,278.2752 204.2152,280.196 205.8212,281.968 207.5932,283.574 209.514,284.9986 211.5652,286.228 213.7271,287.2505 215.9788,288.0562 218.2985,288.6373 220.6641,288.9882 223.0527,289.1055 225.4413,288.9882 227.8068,288.6373 230.1266,288.0562 232.3783,287.2505 234.5401,286.228 236.5914,284.9986 238.5122,283.574 240.2842,281.968 241.8902,280.196 243.3148,278.2752 244.5442,276.224 245.5667,274.0621 246.3723,271.8105 246.9534,269.4907 247.3043,267.1251 247.4217,264.7365 247.3043,262.348 246.9534,259.9824 246.3723,257.6626 245.5667,255.4109 244.5442,253.2491 243.3148,251.1979 241.8902,249.277 240.2842,247.5051 238.5122,245.8991 236.5914,244.4745 234.5401,243.245 232.3783,242.2225 230.1266,241.4169 227.8068,240.8358 225.4413,240.4849 223.0527,240.3676 220.6641,240.4849 218.2985,240.8358 215.9788,241.4169 213.7271,242.2225 211.5652,243.245 209.514,244.4745 207.5932,245.8991 205.8212,247.5051 204.2152,249.277 202.7906,251.1979 201.5612,253.2491 200.5387,255.4109 199.733,257.6626 199.152,259.9824 198.8011,262.348 198.6837,264.7365 198.8011,267.1251 199.152,269.4907 199.733,271.8105 200.5387,274.0621"/>
    <polygon points="193.7441,245.5611 193.7669,245.0975 193.7441,244.6339 193.676,244.1748 193.5632,243.7245 193.4069,243.2874 193.2084,242.8678 192.9698,242.4697 192.6933,242.0969 192.3815,241.7529 192.0376,241.4412 191.6648,241.1647 191.2666,240.9261 190.847,240.7276 190.41,240.5712 189.9597,240.4584 189.5006,240.3903 189.0369,240.3676 188.5733,240.3903 188.1142,240.4584 187.6639,240.5712 187.2269,240.7276 186.8073,240.9261 186.4091,241.1647 186.0363,241.4412 185.6924,241.7529 185.3806,242.0969 185.1041,242.4697 184.8655,242.8678 184.667,243.2874 184.5106,243.7245 184.3979,244.1748 184.3297,244.6339 184.307,245.0975 184.3297,245.5611 184.3979,246.0203 184.5106,246.4706 184.667,246.9076 184.8655,247.3272 185.1041,247.7254 185.3806,248.0982 185.6924,248.4421 186.0363,248.7538 186.4091,249.0304 186.8073,249.269 187.2269,249.4675 187.6639,249.6238 188.1142,249.7366 188.5733,249.8047 189.0369,249.8275 189.5006,249.8047 189.9597,249.7366 190.41,249.6238 190.847,249.4675 191.2666,249.269 191.6648,249.0304 192.0376,248.7538 192.3815,248.4421 192.6933,248.0982 192.9698,247.7254 193.2084,247.3272 193.4069,246.9076 193.5632,246.4706 193.676,246.0203"/>
    <polygon points="206.7769,232.6121 207.5201,233.4321 208.34,234.1752 209.2289,234.8344 210.178,235.4033 211.1784,235.8765 212.2203,236.2493 213.2937,236.5182 214.3884,236.6805 215.4936,236.7348 216.5989,236.6805 217.6935,236.5182 218.767,236.2493 219.8089,235.8765 220.8093,235.4033 221.7584,234.8344 222.6473,234.1752 223.4672,233.4321 224.2103,232.6121 224.8695,231.7233 225.4385,230.7741 225.9116,229.7738 226.2844,228.7319 226.5533,227.6584 226.7156,226.5638 226.7699,225.4585 226.7156,224.3533 226.5533,223.2586 226.2844,222.1852 225.9116,221.1433 225.4385,220.1429 224.8695,219.1937 224.2103,218.3049 223.4672,217.485 222.6473,216.7418 221.7584,216.0826 220.8093,215.5137 219.8089,215.0406 218.767,214.6678 217.6935,214.3989 216.5989,214.2365 215.4936,214.1822 214.3884,214.2365 213.2937,214.3989 212.2203,214.6678 211.1784,215.0406 210.178,215.5137 209.2289,216.0826 208.34,216.7418 207.5201,217.485 206.7769,218.3049 206.1177,219.1937 205.5488,220.1429 205.0757,221.1433 204.7029,222.1852 204.434,223.2586 204.2716,224.3533 204.2173,225.4585 204.2716,226.5638 204.434,227.6584 204.7029,228.7319 205.0757,229.7738 205.5488,230.7741 206.1177,231.7233"/>
    <polygon points="211.7141,210.5495 212.1777,210.5267 212.6369,210.4586 213.0872,210.3458 213.5242,210.1894 213.9438,209.991 214.3419,209.7524 214.7148,209.4758 215.0587,209.1641 215.3704,208.8202 215.6469,208.4474 215.8856,208.0492 216.084,207.6296 216.2404,207.1926 216.3532,206.7423 216.4213,206.2831 216.4441,205.8195 216.4213,205.3559 216.3532,204.8968 216.2404,204.4465 216.084,204.0094 215.8856,203.5898 215.6469,203.1917 215.3704,202.8189 215.0587,202.4749 214.7148,202.1632 214.3419,201.8867 213.9438,201.6481 213.5242,201.4496 213.0872,201.2932 212.6369,201.1804 212.1777,201.1123 211.7141,201.0896 211.2505,201.1123 210.7913,201.1804 210.3411,201.2932 209.904,201.4496 209.4844,201.6481 209.0863,201.8867 208.7134,202.1632 208.3695,202.4749 208.0578,202.8189 207.7813,203.1917 207.5426,203.5898 207.3442,204.0094 207.1878,204.4465 207.075,204.8968 207.0069,205.3559 206.9841,205.8195 207.0069,206.2831 207.075,206.7423 207.1878,207.1926 207.3442,207.6296 207.5426,208.0492 207.7813,208.4474 208.0578,208.8202 208.3695,209.1641 208.7134,209.4758 209.0863,209.7524 209.4844,209.991 209.904,210.1894 210.3411,210.3458 210.7913,210.4586 211.2505,210.5267"/>
    <polygon points="200.79,204.3923 199.9701,203.6492 199.0813,202.99 198.1321,202.421 197.1317,201.9479 196.0898,201.5751 195.0164,201.3062 193.9217,201.1438 192.8165,201.0896 191.7112,201.1438 190.6166,201.3062 189.5431,201.5751 188.5012,201.9479 187.5009,202.421 186.5517,202.99 185.6629,203.6492 184.8429,204.3923 184.0998,205.2122 183.4406,206.1011 182.8717,207.0502 182.3985,208.0506 182.0257,209.0925 181.7568,210.166 181.5945,211.2606 181.5402,212.3659 181.5945,213.4711 181.7568,214.5658 182.0257,215.6392 182.3985,216.6811 182.8717,217.6815 183.4406,218.6306 184.0998,219.5195 184.8429,220.3394 185.6629,221.0826 186.5517,221.7418 187.5009,222.3107 188.5012,222.7838 189.5431,223.1566 190.6166,223.4255 191.7112,223.5879 192.8165,223.6422 193.9217,223.5879 195.0164,223.4255 196.0898,223.1566 197.1317,222.7838 198.1321,222.3107 199.0813,221.7418 199.9701,221.0826 200.79,220.3394 201.5332,219.5195 202.1924,218.6306 202.7613,217.6815 203.2344,216.6811 203.6072,215.6392 203.8761,214.5658 204.0385,213.4711 204.0928,212.3659 204.0385,211.2606 203.8761,210.166 203.6072,209.0925 203.2344,208.0506 202.7613,207.0502 202.1924,206.1011 201.5332,205.2122"/>
    <polygon points="207.7813,190.099 208.0578,189.7262 208.3695,189.3823 208.7134,189.0705 209.0863,188.794 209.4844,188.5554 209.904,188.3569 210.3411,188.2006 210.7913,188.0878 211.2505,188.0197 211.7141,187.9969 212.1777,188.0197 212.6369,188.0878 213.0872,188.2006 213.5242,188.3569 213.9438,188.5554 214.3419,188.794 214.7148,189.0705 215.0587,189.3823 215.3704,189.7262 215.6469,190.099 215.8856,190.4972 216.084,190.9168 216.2404,191.3538 216.3532,191.8041 216.4213,192.2632 216.4441,192.7269 216.4213,193.1905 216.3532,193.6496 216.2404,194.0999 216.084,194.5369 215.8856,194.9566 215.6469,195.3547 215.3704,195.7275 215.0587,196.0715 214.7148,196.3832 214.3419,196.6597 213.9438,196.8983 213.5242,197.0968 213.0872,197.2532 212.6369,197.3659 212.1777,197.4341 211.7141,197.4568 211.2505,197.4341 210.7913,197.3659 210.3411,197.2532 209.904,197.0968 209.4844,196.8983 209.0863,196.6597 208.7134,196.3832 208.3695,196.0715 208.0578,195.7275 207.7813,195.3547 207.5426,194.9566 207.3442,194.5369 207.1878,194.0999 207.075,193.6496 207.0069,193.1905 206.9841,192.7269 207.0069,192.2632 207.075,191.8041 207.1878,191.3538 207.3442,190.9168 207.5426,190.4972"/>
    <polygon points="199.0025,190.7068 198.5654,190.5504 198.1458,190.352 197.7477,190.1134 197.3749,189.8368 197.0309,189.5251 196.7192,189.1812 196.4427,188.8084 196.2041,188.4102 196.0056,187.9906 195.8492,187.5536 195.7364,187.1033 195.6683,186.6441 195.6456,186.1805 195.6683,185.7169 195.7364,185.2578 195.8492,184.8075 196.0056,184.3704 196.2041,183.9508 196.4427,183.5527 196.7192,183.1799 197.0309,182.8359 197.3749,182.5242 197.7477,182.2477 198.1458,182.0091 198.5654,181.8106 199.0025,181.6542 199.4528,181.5414 199.9119,181.4733 200.3755,181.4506 200.8391,181.4733 201.2983,181.5414 201.7486,181.6542 202.1856,181.8106 202.6052,182.0091 203.0034,182.2477 203.3762,182.5242 203.7201,182.8359 204.0318,183.1799 204.3084,183.5527 204.547,183.9508 204.7455,184.3704 204.9018,184.8075 205.0146,185.2578 205.0827,185.7169 205.1055,186.1805 205.0827,186.6441 205.0146,187.1033 204.9018,187.5536 204.7455,187.9906 204.547,188.4102 204.3084,188.8084 204.0318,189.1812 203.7201,189.5251 203.3762,189.8368 203.0034,190.1134 202.6052,190.352 202.1856,190.5504 201.7486,190.7068 201.2983,190.8196 200.8391,190.8877 200.3755,190.9105 199.9119,190.8877 199.4528,190.8196"/>
    <polygon points="184.5106,191.3538 184.3979,191.8041 184.3297,192.2632 184.307,192.7269 184.3297,193.1905 184.3979,193.6496 184.5106,194.0999 184.667,194.5369 184.8655,194.9566 185.1041,195.3547 185.3806,195.7275 185.6924,196.0715 186.0363,196.3832 186.4091,196.6597 186.8073,196.8983 187.2269,197.0968 187.6639,197.2532 188.1142,197.3659 188.5733,197.4341 189.0369,197.4568 189.5006,197.4341 189.9597,197.3659 190.41,197.2532 190.847,197.0968 191.2666,196.8983 191.6648,196.6597 192.0376,196.3832 192.3815,196.0715 192.6933,195.7275 192.9698,195.3547 193.2084,194.9566 193.4069,194.5369 193.5632,194.0999 193.676,193.6496 193.7441,193.1905 193.7669,192.7269 193.7441,192.2632 193.676,191.8041 193.5632,191.3538 193.4069,190.9168 193.2084,190.4972 192.9698,190.099 192.6933,189.7262 192.3815,189.3823 192.0376,189.0705 191.6648,188.794 191.2666,188.5554 190.847,188.3569 190.41,188.2006 189.9597,188.0878 189.5006,188.0197 189.0369,187.9969 188.5733,188.0197 188.1142,188.0878 187.6639,188.2006 187.2269,188.3569 186.8073,188.5554 186.4091,188.794 186.0363,189.0705 185.6924,189.3823 185.3806,189.7262 185.1041,190.099 184.8655,190.4972 184.667,190.9168"/>
    <polygon points="174.6977,221.8022 174.3538,222.1139 174.042,222.4579 173.7655,222.8307 173.5269,223.2288 173.3284,223.6484 173.1721,224.0855 173.0593,224.5358 172.9912,224.9949 172.9684,225.4585 172.9912,225.9221 173.0593,226.3813 173.1721,226.8316 173.3284,227.2686 173.5269,227.6882 173.7655,228.0864 174.042,228.4592 174.3538,228.8031 174.6977,229.1148 175.0705,229.3914 175.4687,229.63 175.8883,229.8285 176.3253,229.9848 176.7756,230.0976 177.2347,230.1657 177.6984,230.1885 178.162,230.1657 178.6211,230.0976 179.0714,229.9848 179.5084,229.8285 179.9281,229.63 180.3262,229.3914 180.699,229.1148 181.043,228.8031 181.3547,228.4592 181.6312,228.0864 181.8698,227.6882 182.0683,227.2686 182.2247,226.8316 182.3375,226.3813 182.4056,225.9221 182.4283,225.4585 182.4056,224.9949 182.3375,224.5358 182.2247,224.0855 182.0683,223.6484 181.8698,223.2288 181.6312,222.8307 181.3547,222.4579 181.043,222.1139 180.699,221.8022 180.3262,221.5257 179.9281,221.2871 179.5084,221.0886 179.0714,220.9322 178.6211,220.8194 178.162,220.7513 177.6984,220.7286 177.2347,220.7513 176.7756,220.8194 176.3253,220.9322 175.8883,221.0886 175.4687,221.2871 175.0705,221.5257"/>
    <polygon points="168.1699,227.6349 167.7328,227.4786 167.2826,227.3658 166.8234,227.2977 166.3598,227.2749 165.8962,227.2977 165.437,227.3658 164.9867,227.4786 164.5497,227.6349 164.1301,227.8334 163.7319,228.072 163.3591,228.3485 163.0152,228.6603 162.7035,229.0042 162.427,229.377 162.1883,229.7752 161.9899,230.1948 161.8335,230.6318 161.7207,231.0821 161.6526,231.5412 161.6298,232.0049 161.6526,232.4685 161.7207,232.9276 161.8335,233.3779 161.9899,233.8149 162.1883,234.2346 162.427,234.6327 162.7035,235.0055 163.0152,235.3495 163.3591,235.6612 163.7319,235.9377 164.1301,236.1763 164.5497,236.3748 164.9867,236.5312 165.437,236.6439 165.8962,236.7121 166.3598,236.7348 166.8234,236.7121 167.2826,236.6439 167.7328,236.5312 168.1699,236.3748 168.5895,236.1763 168.9876,235.9377 169.3604,235.6612 169.7044,235.3495 170.0161,235.0055 170.2926,234.6327 170.5312,234.2346 170.7297,233.8149 170.8861,233.3779 170.9989,232.9276 171.067,232.4685 171.0898,232.0049 171.067,231.5412 170.9989,231.0821 170.8861,230.6318 170.7297,230.1948 170.5312,229.7752 170.2926,229.377 170.0161,229.0042 169.7044,228.6603 169.3604,228.3485 168.9876,228.072 168.5895,227.8334"/>
    <polygon points="150.314,238.0876 150.2912,238.5512 150.314,239.0148 150.3821,239.474 150.4949,239.9242 150.6513,240.3613 150.8497,240.7809 151.0884,241.179 151.3649,241.5519 151.6766,241.8958 152.0205,242.2075 152.3934,242.484 152.7915,242.7227 153.2111,242.9211 153.6482,243.0775 154.0984,243.1903 154.5576,243.2584 155.0212,243.2812 155.4848,243.2584 155.944,243.1903 156.3942,243.0775 156.8313,242.9211 157.2509,242.7227 157.649,242.484 158.0219,242.2075 158.3658,241.8958 158.6775,241.5519 158.954,241.179 159.1927,240.7809 159.3911,240.3613 159.5475,239.9242 159.6603,239.474 159.7284,239.0148 159.7512,238.5512 159.7284,238.0876 159.6603,237.6284 159.5475,237.1782 159.3911,236.7411 159.1927,236.3215 158.954,235.9234 158.6775,235.5505 158.3658,235.2066 158.0219,234.8949 157.649,234.6184 157.2509,234.3797 156.8313,234.1813 156.3942,234.0249 155.944,233.9121 155.4848,233.844 155.0212,233.8212 154.5576,233.844 154.0984,233.9121 153.6482,234.0249 153.2111,234.1813 152.7915,234.3797 152.3934,234.6184 152.0205,234.8949 151.6766,235.2066 151.3649,235.5505 151.0884,235.9234 150.8497,236.3215 150.6513,236.7411 150.4949,237.1782 150.3821,237.6284"/>
    <polygon points="158.5218,262.5366 158.2529,261.4632 157.8801,260.4213 157.407,259.4209 156.838,258.4717 156.1788,257.5829 155.4357,256.763 154.6158,256.0198 153.7269,255.3606 152.7778,254.7917 151.7774,254.3186 150.7355,253.9458 149.662,253.6769 148.5674,253.5145 147.4621,253.4602 146.3569,253.5145 145.2622,253.6769 144.1888,253.9458 143.1469,254.3186 142.1465,254.7917 141.1974,255.3606 140.3085,256.0198 139.4886,256.763 138.7454,257.5829 138.0862,258.4717 137.5173,259.4209 137.0442,260.4213 136.6714,261.4632 136.4025,262.5366 136.2401,263.6313 136.1858,264.7365 136.2401,265.8418 136.4025,266.9364 136.6714,268.0099 137.0442,269.0518 137.5173,270.0521 138.0862,271.0013 138.7454,271.8901 139.4886,272.7101 140.3085,273.4532 141.1974,274.1124 142.1465,274.6813 143.1469,275.1545 144.1888,275.5273 145.2622,275.7962 146.3569,275.9585 147.4621,276.0128 148.5674,275.9585 149.662,275.7962 150.7355,275.5273 151.7774,275.1545 152.7778,274.6813 153.7269,274.1124 154.6158,273.4532 155.4357,272.7101 156.1788,271.8901 156.838,271.0013 157.407,270.0521 157.8801,269.0518 158.2529,268.0099 158.5218,266.9364 158.6842,265.8418 158.7384,264.7365 158.6842,263.6313"/>
    <polygon points="171.2446,262.8659 172.3392,262.7035 173.4126,262.4346 174.4546,262.0618 175.4549,261.5887 176.4041,261.0198 177.2929,260.3606 178.1129,259.6174 178.856,258.7975 179.5152,257.9086 180.0841,256.9595 180.5573,255.9591 180.9301,254.9172 181.1989,253.8438 181.3613,252.7491 181.4156,251.6439 181.3613,250.5386 181.1989,249.444 180.9301,248.3705 180.5573,247.3286 180.0841,246.3282 179.5152,245.3791 178.856,244.4902 178.1129,243.6703 177.2929,242.9272 176.4041,242.268 175.4549,241.699 174.4546,241.2259 173.4126,240.8531 172.3392,240.5842 171.2446,240.4219 170.1393,240.3676 169.034,240.4219 167.9394,240.5842 166.866,240.8531 165.8241,241.2259 164.8237,241.699 163.8745,242.268 162.9857,242.9272 162.1658,243.6703 161.4226,244.4902 160.7634,245.3791 160.1945,246.3282 159.7214,247.3286 159.3486,248.3705 159.0797,249.444 158.9173,250.5386 158.863,251.6439 158.9173,252.7491 159.0797,253.8438 159.3486,254.9172 159.7214,255.9591 160.1945,256.9595 160.7634,257.9086 161.4226,258.7975 162.1658,259.6174 162.9857,260.3606 163.8745,261.0198 164.8237,261.5887 165.8241,262.0618 166.866,262.4346 167.9394,262.7035 169.034,262.8659 170.1393,262.9202"/>
  </g>
</svg>
