<?xml version="1.0" encoding="utf-8" ?>
<svg xmlns="http://www.w3.org/2000/svg" xmlns:cc="http://creativecommons.org/ns" xmlns:dc="http://purl.org/dc/elements/1.1/" xmlns:ev="http://www.w3.org/2001/xml-events" xmlns:inkscape="http://www.inkscape.org/namespaces/inkscape" xmlns:rdf="http://www.w3.org/1999/02/22-rdf-syntax-ns" xmlns:sodipodi="http://sodipodi.sourceforge.net/DTD/sodipodi-0.dtd" xmlns:xlink="http://www.w3.org/1999/xlink" baseProfile="tiny" height="15.875cm" version="1.2" viewBox="0 0 432.0 600.0" width="11.43cm">
  <metadata>
    <rdf:RDF>
      <cc:Work>
        <dc:format>image/svg+xml</dc:format>
        <dc:source>vsk save -s 183 -c hex-grid/config/bubble-coasters-2.json /Users/tobin/src/fabian/plotting/fabian-plotting/hex-grid/sketch_hex_grid.py</dc:source>
        <dc:date>2023-11-04T10:32:59.793236</dc:date>
      </cc:Work>
    </rdf:RDF>
  </metadata>
  <defs/>
  <g fill="none" id="layer1" inkscape:groupmode="layer" inkscape:label="1" stroke="#000000" stroke-width="0.7559" style="display:inline">
    <polygon points="115.0957,295.5681 114.983,295.1178 114.9149,294.6586 114.8921,294.195 114.9149,293.7314 114.983,293.2723 115.0957,292.822 115.2521,292.3849 115.4506,291.9653 115.6892,291.5672 115.9657,291.1944 116.2775,290.8504 116.6214,290.5387 116.9942,290.2622 117.3924,290.0236 117.812,289.8251 118.249,289.6687 118.6993,289.5559 119.1584,289.4878 119.622,289.4651 120.0857,289.4878 120.5448,289.5559 120.9951,289.6687 121.4321,289.8251 121.8517,290.0236 122.2499,290.2622 122.6227,290.5387 122.9666,290.8504 123.2784,291.1944 123.5549,291.5672 123.7935,291.9653 123.992,292.3849 124.1483,292.822 124.2611,293.2723 124.3292,293.7314 124.352,294.195 124.3292,294.6586 124.2611,295.1178 124.1483,295.5681 123.992,296.0051 123.7935,296.4247 123.5549,296.8229 123.2784,297.1957 122.9666,297.5396 122.6227,297.8513 122.2499,298.1279 121.8517,298.3665 121.4321,298.565 120.9951,298.7213 120.5448,298.8341 120.0857,298.9022 119.622,298.925 119.1584,298.9022 118.6993,298.8341 118.249,298.7213 117.812,298.565 117.3924,298.3665 116.9942,298.1279 116.6214,297.8513 116.2775,297.5396 115.9657,297.1957 115.6892,296.8229 115.4506,296.4247 115.2521,296.0051"/>
    <polygon points="137.9293,322.1904 137.7729,321.7534 137.6601,321.3031 137.592,320.844 137.5692,320.3804 137.592,319.9167 137.6601,319.4576 137.7729,319.0073 137.9293,318.5703 138.1277,318.1507 138.3664,317.7525 138.6429,317.3797 138.9546,317.0358 139.2985,316.724 139.6714,316.4475 140.0695,316.2089 140.4891,316.0104 140.9262,315.8541 141.3764,315.7413 141.8356,315.6732 142.2992,315.6504 142.7628,315.6732 143.222,315.7413 143.6723,315.8541 144.1093,316.0104 144.5289,316.2089 144.927,316.4475 145.2999,316.724 145.6438,317.0358 145.9555,317.3797 146.232,317.7525 146.4707,318.1507 146.6691,318.5703 146.8255,319.0073 146.9383,319.4576 147.0064,319.9167 147.0292,320.3804 147.0064,320.844 146.9383,321.3031 146.8255,321.7534 146.6691,322.1904 146.4707,322.6101 146.232,323.0082 145.9555,323.381 145.6438,323.725 145.2999,324.0367 144.927,324.3132 144.5289,324.5518 144.1093,324.7503 143.6723,324.9067 143.222,325.0195 142.7628,325.0876 142.2992,325.1103 141.8356,325.0876 141.3764,325.0195 140.9262,324.9067 140.4891,324.7503 140.0695,324.5518 139.6714,324.3132 139.2985,324.0367 138.9546,323.725 138.6429,323.381 138.3664,323.0082 138.1277,322.6101"/>
    <polygon points="153.1742,357.8192 153.6378,357.842 154.1014,357.8192 154.5606,357.7511 155.0108,357.6383 155.4479,357.482 155.8675,357.2835 156.2656,357.0449 156.6385,356.7684 156.9824,356.4566 157.2941,356.1127 157.5706,355.7399 157.8093,355.3417 158.0077,354.9221 158.1641,354.4851 158.2769,354.0348 158.345,353.5757 158.3678,353.112 158.345,352.6484 158.2769,352.1893 158.1641,351.739 158.0077,351.302 157.8093,350.8823 157.5706,350.4842 157.2941,350.1114 156.9824,349.7674 156.6385,349.4557 156.2656,349.1792 155.8675,348.9406 155.4479,348.7421 155.0108,348.5857 154.5606,348.4729 154.1014,348.4048 153.6378,348.3821 153.1742,348.4048 152.715,348.4729 152.2648,348.5857 151.8277,348.7421 151.4081,348.9406 151.01,349.1792 150.6371,349.4557 150.2932,349.7674 149.9815,350.1114 149.705,350.4842 149.4663,350.8823 149.2679,351.302 149.1115,351.739 148.9987,352.1893 148.9306,352.6484 148.9078,353.112 148.9306,353.5757 148.9987,354.0348 149.1115,354.4851 149.2679,354.9221 149.4663,355.3417 149.705,355.7399 149.9815,356.1127 150.2932,356.4566 150.6371,356.7684 151.01,357.0449 151.4081,357.2835 151.8277,357.482 152.2648,357.6383 152.715,357.7511"/>
    <polygon points="148.9306,379.761 148.9078,379.2974 148.9306,378.8338 148.9987,378.3746 149.1115,377.9243 149.2679,377.4873 149.4663,377.0677 149.705,376.6695 149.9815,376.2967 150.2932,375.9528 150.6371,375.6411 151.01,375.3645 151.4081,375.1259 151.8277,374.9274 152.2648,374.7711 152.715,374.6583 153.1742,374.5902 153.6378,374.5674 154.1014,374.5902 154.5606,374.6583 155.0108,374.7711 155.4479,374.9274 155.8675,375.1259 156.2656,375.3645 156.6385,375.6411 156.9824,375.9528 157.2941,376.2967 157.5706,376.6695 157.8093,377.0677 158.0077,377.4873 158.1641,377.9243 158.2769,378.3746 158.345,378.8338 158.3678,379.2974 158.345,379.761 158.2769,380.2201 158.1641,380.6704 158.0077,381.1075 157.8093,381.5271 157.5706,381.9252 157.2941,382.298 156.9824,382.642 156.6385,382.9537 156.2656,383.2302 155.8675,383.4688 155.4479,383.6673 155.0108,383.8237 154.5606,383.9365 154.1014,384.0046 153.6378,384.0273 153.1742,384.0046 152.715,383.9365 152.2648,383.8237 151.8277,383.6673 151.4081,383.4688 151.01,383.2302 150.6371,382.9537 150.2932,382.642 149.9815,382.298 149.705,381.9252 149.4663,381.5271 149.2679,381.1075 149.1115,380.6704 148.9987,380.2201"/>
    <polygon points="164.5128,377.4582 164.0536,377.3901 163.6033,377.2773 163.1663,377.121 162.7467,376.9225 162.3485,376.6839 161.9757,376.4074 161.6318,376.0956 161.3201,375.7517 161.0435,375.3789 160.8049,374.9807 160.6065,374.5611 160.4501,374.1241 160.3373,373.6738 160.2692,373.2147 160.2464,372.751 160.2692,372.2874 160.3373,371.8283 160.4501,371.378 160.6065,370.941 160.8049,370.5213 161.0435,370.1232 161.3201,369.7504 161.6318,369.4064 161.9757,369.0947 162.3485,368.8182 162.7467,368.5796 163.1663,368.3811 163.6033,368.2247 164.0536,368.1119 164.5128,368.0438 164.9764,368.0211 165.44,368.0438 165.8991,368.1119 166.3494,368.2247 166.7865,368.3811 167.2061,368.5796 167.6042,368.8182 167.977,369.0947 168.321,369.4064 168.6327,369.7504 168.9092,370.1232 169.1478,370.5213 169.3463,370.941 169.5027,371.378 169.6155,371.8283 169.6836,372.2874 169.7064,372.751 169.6836,373.2147 169.6155,373.6738 169.5027,374.1241 169.3463,374.5611 169.1478,374.9807 168.9092,375.3789 168.6327,375.7517 168.321,376.0956 167.977,376.4074 167.6042,376.6839 167.2061,376.9225 166.7865,377.121 166.3494,377.2773 165.8991,377.3901 165.44,377.4582 164.9764,377.481"/>
    <polygon points="168.6327,356.6577 168.9092,357.0305 169.1478,357.4287 169.3463,357.8483 169.5027,358.2853 169.6155,358.7356 169.6836,359.1947 169.7064,359.6584 169.6836,360.122 169.6155,360.5811 169.5027,361.0314 169.3463,361.4684 169.1478,361.8881 168.9092,362.2862 168.6327,362.659 168.321,363.003 167.977,363.3147 167.6042,363.5912 167.2061,363.8298 166.7865,364.0283 166.3494,364.1847 165.8991,364.2975 165.44,364.3656 164.9764,364.3883 164.5128,364.3656 164.0536,364.2975 163.6033,364.1847 163.1663,364.0283 162.7467,363.8298 162.3485,363.5912 161.9757,363.3147 161.6318,363.003 161.3201,362.659 161.0435,362.2862 160.8049,361.8881 160.6065,361.4684 160.4501,361.0314 160.3373,360.5811 160.2692,360.122 160.2464,359.6584 160.2692,359.1947 160.3373,358.7356 160.4501,358.2853 160.6065,357.8483 160.8049,357.4287 161.0435,357.0305 161.3201,356.6577 161.6318,356.3138 161.9757,356.002 162.3485,355.7255 162.7467,355.4869 163.1663,355.2884 163.6033,355.1321 164.0536,355.0193 164.5128,354.9512 164.9764,354.9284 165.44,354.9512 165.8991,355.0193 166.3494,355.1321 166.7865,355.2884 167.2061,355.4869 167.6042,355.7255 167.977,356.002 168.321,356.3138"/>
    <polygon points="158.338,335.7041 158.8111,334.7038 159.38,333.7546 160.0392,332.8658 160.7824,332.0458 161.6023,331.3027 162.4911,330.6435 163.4403,330.0746 164.4406,329.6014 165.4826,329.2286 166.556,328.9597 167.6506,328.7974 168.7559,328.7431 169.8612,328.7974 170.9558,328.9597 172.0292,329.2286 173.0712,329.6014 174.0715,330.0746 175.0207,330.6435 175.9095,331.3027 176.7295,332.0458 177.4726,332.8658 178.1318,333.7546 178.7007,334.7038 179.1739,335.7041 179.5467,336.746 179.8155,337.8195 179.9779,338.9141 180.0322,340.0194 179.9779,341.1246 179.8155,342.2193 179.5467,343.2927 179.1739,344.3346 178.7007,345.335 178.1318,346.2841 177.4726,347.173 176.7295,347.9929 175.9095,348.7361 175.0207,349.3953 174.0715,349.9642 173.0712,350.4373 172.0292,350.8101 170.9558,351.079 169.8612,351.2414 168.7559,351.2957 167.6506,351.2414 166.556,351.079 165.4826,350.8101 164.4406,350.4373 163.4403,349.9642 162.4911,349.3953 161.6023,348.7361 160.7824,347.9929 160.0392,347.173 159.38,346.2841 158.8111,345.335 158.338,344.3346 157.9652,343.2927 157.6963,342.2193 157.5339,341.1246 157.4796,340.0194 157.5339,338.9141 157.6963,337.8195 157.9652,336.746"/>
    <polygon points="154.1014,322.2195 154.5606,322.2876 155.0108,322.4004 155.4479,322.5568 155.8675,322.7552 156.2656,322.9939 156.6385,323.2704 156.9824,323.5821 157.2941,323.926 157.5706,324.2989 157.8093,324.697 158.0077,325.1166 158.1641,325.5537 158.2769,326.0039 158.345,326.4631 158.3678,326.9267 158.345,327.3903 158.2769,327.8495 158.1641,328.2997 158.0077,328.7368 157.8093,329.1564 157.5706,329.5545 157.2941,329.9274 156.9824,330.2713 156.6385,330.583 156.2656,330.8595 155.8675,331.0982 155.4479,331.2966 155.0108,331.453 154.5606,331.5658 154.1014,331.6339 153.6378,331.6567 153.1742,331.6339 152.715,331.5658 152.2648,331.453 151.8277,331.2966 151.4081,331.0982 151.01,330.8595 150.6371,330.583 150.2932,330.2713 149.9815,329.9274 149.705,329.5545 149.4663,329.1564 149.2679,328.7368 149.1115,328.2997 148.9987,327.8495 148.9306,327.3903 148.9078,326.9267 148.9306,326.4631 148.9987,326.0039 149.1115,325.5537 149.2679,325.1166 149.4663,324.697 149.705,324.2989 149.9815,323.926 150.2932,323.5821 150.6371,323.2704 151.01,322.9939 151.4081,322.7552 151.8277,322.5568 152.2648,322.4004 152.715,322.2876 153.1742,322.2195 153.6378,322.1967"/>
    <polygon points="158.338,309.5188 158.8111,308.5184 159.38,307.5693 160.0392,306.6804 160.7824,305.8605 161.6023,305.1173 162.4911,304.4581 163.4403,303.8892 164.4406,303.4161 165.4826,303.0433 166.556,302.7744 167.6506,302.612 168.7559,302.5577 169.8612,302.612 170.9558,302.7744 172.0292,303.0433 173.0712,303.4161 174.0715,303.8892 175.0207,304.4581 175.9095,305.1173 176.7295,305.8605 177.4726,306.6804 178.1318,307.5693 178.7007,308.5184 179.1739,309.5188 179.5467,310.5607 179.8155,311.6341 179.9779,312.7288 180.0322,313.834 179.9779,314.9393 179.8155,316.0339 179.5467,317.1074 179.1739,318.1493 178.7007,319.1496 178.1318,320.0988 177.4726,320.9876 176.7295,321.8076 175.9095,322.5507 175.0207,323.2099 174.0715,323.7788 173.0712,324.252 172.0292,324.6248 170.9558,324.8937 169.8612,325.056 168.7559,325.1103 167.6506,325.056 166.556,324.8937 165.4826,324.6248 164.4406,324.252 163.4403,323.7788 162.4911,323.2099 161.6023,322.5507 160.7824,321.8076 160.0392,320.9876 159.38,320.0988 158.8111,319.1496 158.338,318.1493 157.9652,317.1074 157.6963,316.0339 157.5339,314.9393 157.4796,313.834 157.5339,312.7288 157.6963,311.6341 157.9652,310.5607"/>
    <polygon points="160.7824,295.6222 160.0392,294.8023 159.38,293.9135 158.8111,292.9643 158.338,291.964 157.9652,290.922 157.6963,289.8486 157.5339,288.754 157.4796,287.6487 157.5339,286.5434 157.6963,285.4488 157.9652,284.3754 158.338,283.3334 158.8111,282.3331 159.38,281.3839 160.0392,280.4951 160.7824,279.6751 161.6023,278.932 162.4911,278.2728 163.4403,277.7039 164.4406,277.2307 165.4826,276.8579 166.556,276.5891 167.6506,276.4267 168.7559,276.3724 169.8612,276.4267 170.9558,276.5891 172.0292,276.8579 173.0712,277.2307 174.0715,277.7039 175.0207,278.2728 175.9095,278.932 176.7295,279.6751 177.4726,280.4951 178.1318,281.3839 178.7007,282.3331 179.1739,283.3334 179.5467,284.3754 179.8155,285.4488 179.9779,286.5434 180.0322,287.6487 179.9779,288.754 179.8155,289.8486 179.5467,290.922 179.1739,291.964 178.7007,292.9643 178.1318,293.9135 177.4726,294.8023 176.7295,295.6222 175.9095,296.3654 175.0207,297.0246 174.0715,297.5935 173.0712,298.0666 172.0292,298.4394 170.9558,298.7083 169.8612,298.8707 168.7559,298.925 167.6506,298.8707 166.556,298.7083 165.4826,298.4394 164.4406,298.0666 163.4403,297.5935 162.4911,297.0246 161.6023,296.3654"/>
    <polygon points="148.9987,299.8186 149.1115,299.3683 149.2679,298.9313 149.4663,298.5117 149.705,298.1135 149.9815,297.7407 150.2932,297.3968 150.6371,297.085 151.01,296.8085 151.4081,296.5699 151.8277,296.3714 152.2648,296.2151 152.715,296.1023 153.1742,296.0342 153.6378,296.0114 154.1014,296.0342 154.5606,296.1023 155.0108,296.2151 155.4479,296.3714 155.8675,296.5699 156.2656,296.8085 156.6385,297.085 156.9824,297.3968 157.2941,297.7407 157.5706,298.1135 157.8093,298.5117 158.0077,298.9313 158.1641,299.3683 158.2769,299.8186 158.345,300.2777 158.3678,300.7414 158.345,301.205 158.2769,301.6641 158.1641,302.1144 158.0077,302.5514 157.8093,302.9711 157.5706,303.3692 157.2941,303.742 156.9824,304.086 156.6385,304.3977 156.2656,304.6742 155.8675,304.9128 155.4479,305.1113 155.0108,305.2677 154.5606,305.3805 154.1014,305.4486 153.6378,305.4713 153.1742,305.4486 152.715,305.3805 152.2648,305.2677 151.8277,305.1113 151.4081,304.9128 151.01,304.6742 150.6371,304.3977 150.2932,304.086 149.9815,303.742 149.705,303.3692 149.4663,302.9711 149.2679,302.5514 149.1115,302.1144 148.9987,301.6641 148.9306,301.205 148.9078,300.7414 148.9306,300.2777"/>
    <polygon points="139.6714,303.3549 140.0695,303.1162 140.4891,302.9178 140.9262,302.7614 141.3764,302.6486 141.8356,302.5805 142.2992,302.5577 142.7628,302.5805 143.222,302.6486 143.6723,302.7614 144.1093,302.9178 144.5289,303.1162 144.927,303.3549 145.2999,303.6314 145.6438,303.9431 145.9555,304.287 146.232,304.6599 146.4707,305.058 146.6691,305.4776 146.8255,305.9147 146.9383,306.3649 147.0064,306.8241 147.0292,307.2877 147.0064,307.7513 146.9383,308.2105 146.8255,308.6607 146.6691,309.0978 146.4707,309.5174 146.232,309.9155 145.9555,310.2884 145.6438,310.6323 145.2999,310.944 144.927,311.2205 144.5289,311.4592 144.1093,311.6576 143.6723,311.814 143.222,311.9268 142.7628,311.9949 142.2992,312.0177 141.8356,311.9949 141.3764,311.9268 140.9262,311.814 140.4891,311.6576 140.0695,311.4592 139.6714,311.2205 139.2985,310.944 138.9546,310.6323 138.6429,310.2884 138.3664,309.9155 138.1277,309.5174 137.9293,309.0978 137.7729,308.6607 137.6601,308.2105 137.592,307.7513 137.5692,307.2877 137.592,306.8241 137.6601,306.3649 137.7729,305.9147 137.9293,305.4776 138.1277,305.058 138.3664,304.6599 138.6429,304.287 138.9546,303.9431 139.2985,303.6314"/>
    <polygon points="133.1903,283.4772 133.5885,283.7159 133.9613,283.9924 134.3052,284.3041 134.6169,284.648 134.8935,285.0209 135.1321,285.419 135.3306,285.8386 135.4869,286.2757 135.5997,286.7259 135.6678,287.1851 135.6906,287.6487 135.6678,288.1123 135.5997,288.5715 135.4869,289.0217 135.3306,289.4588 135.1321,289.8784 134.8935,290.2765 134.6169,290.6494 134.3052,290.9933 133.9613,291.305 133.5885,291.5815 133.1903,291.8202 132.7707,292.0186 132.3337,292.175 131.8834,292.2878 131.4242,292.3559 130.9606,292.3787 130.497,292.3559 130.0379,292.2878 129.5876,292.175 129.1505,292.0186 128.7309,291.8202 128.3328,291.5815 127.96,291.305 127.616,290.9933 127.3043,290.6494 127.0278,290.2765 126.7892,289.8784 126.5907,289.4588 126.4343,289.0217 126.3215,288.5715 126.2534,288.1123 126.2307,287.6487 126.2534,287.1851 126.3215,286.7259 126.4343,286.2757 126.5907,285.8386 126.7892,285.419 127.0278,285.0209 127.3043,284.648 127.616,284.3041 127.96,283.9924 128.3328,283.7159 128.7309,283.4772 129.1505,283.2788 129.5876,283.1224 130.0379,283.0096 130.497,282.9415 130.9606,282.9187 131.4242,282.9415 131.8834,283.0096 132.3337,283.1224 132.7707,283.2788"/>
    <polygon points="134.8024,274.556 134.8567,273.4508 135.0191,272.3561 135.288,271.2827 135.6608,270.2408 136.1339,269.2404 136.7028,268.2912 137.362,267.4024 138.1052,266.5825 138.9251,265.8393 139.814,265.1801 140.7631,264.6112 141.7635,264.1381 142.8054,263.7653 143.8788,263.4964 144.9735,263.334 146.0787,263.2797 147.184,263.334 148.2786,263.4964 149.3521,263.7653 150.394,264.1381 151.3944,264.6112 152.3435,265.1801 153.2324,265.8393 154.0523,266.5825 154.7954,267.4024 155.4546,268.2912 156.0236,269.2404 156.4967,270.2408 156.8695,271.2827 157.1384,272.3561 157.3007,273.4508 157.355,274.556 157.3007,275.6613 157.1384,276.7559 156.8695,277.8294 156.4967,278.8713 156.0236,279.8716 155.4546,280.8208 154.7954,281.7096 154.0523,282.5296 153.2324,283.2727 152.3435,283.9319 151.3944,284.5008 150.394,284.974 149.3521,285.3468 148.2786,285.6157 147.184,285.778 146.0787,285.8323 144.9735,285.778 143.8788,285.6157 142.8054,285.3468 141.7635,284.974 140.7631,284.5008 139.814,283.9319 138.9251,283.2727 138.1052,282.5296 137.362,281.7096 136.7028,280.8208 136.1339,279.8716 135.6608,278.8713 135.288,277.8294 135.0191,276.7559 134.8567,275.6613"/>
    <polygon points="121.4321,259.287 120.9951,259.4433 120.5448,259.5561 120.0857,259.6242 119.622,259.647 119.1584,259.6242 118.6993,259.5561 118.249,259.4433 117.812,259.287 117.3924,259.0885 116.9942,258.8499 116.6214,258.5733 116.2775,258.2616 115.9657,257.9177 115.6892,257.5449 115.4506,257.1467 115.2521,256.7271 115.0957,256.2901 114.983,255.8398 114.9149,255.3806 114.8921,254.917 114.9149,254.4534 114.983,253.9943 115.0957,253.544 115.2521,253.1069 115.4506,252.6873 115.6892,252.2892 115.9657,251.9164 116.2775,251.5724 116.6214,251.2607 116.9942,250.9842 117.3924,250.7456 117.812,250.5471 118.249,250.3907 118.6993,250.2779 119.1584,250.2098 119.622,250.1871 120.0857,250.2098 120.5448,250.2779 120.9951,250.3907 121.4321,250.5471 121.8517,250.7456 122.2499,250.9842 122.6227,251.2607 122.9666,251.5724 123.2784,251.9164 123.5549,252.2892 123.7935,252.6873 123.992,253.1069 124.1483,253.544 124.2611,253.9943 124.3292,254.4534 124.352,254.917 124.3292,255.3806 124.2611,255.8398 124.1483,256.2901 123.992,256.7271 123.7935,257.1467 123.5549,257.5449 123.2784,257.9177 122.9666,258.2616 122.6227,258.5733 122.2499,258.8499 121.8517,259.0885"/>
    <polygon points="127.616,251.7153 127.3043,251.3714 127.0278,250.9985 126.7892,250.6004 126.5907,250.1808 126.4343,249.7437 126.3215,249.2935 126.2534,248.8343 126.2307,248.3707 126.2534,247.9071 126.3215,247.4479 126.4343,246.9977 126.5907,246.5606 126.7892,246.141 127.0278,245.7429 127.3043,245.37 127.616,245.0261 127.96,244.7144 128.3328,244.4379 128.7309,244.1992 129.1505,244.0008 129.5876,243.8444 130.0379,243.7316 130.497,243.6635 130.9606,243.6407 131.4242,243.6635 131.8834,243.7316 132.3337,243.8444 132.7707,244.0008 133.1903,244.1992 133.5885,244.4379 133.9613,244.7144 134.3052,245.0261 134.6169,245.37 134.8935,245.7429 135.1321,246.141 135.3306,246.5606 135.4869,246.9977 135.5997,247.4479 135.6678,247.9071 135.6906,248.3707 135.6678,248.8343 135.5997,249.2935 135.4869,249.7437 135.3306,250.1808 135.1321,250.6004 134.8935,250.9985 134.6169,251.3714 134.3052,251.7153 133.9613,252.027 133.5885,252.3035 133.1903,252.5422 132.7707,252.7406 132.3337,252.897 131.8834,253.0098 131.4242,253.0779 130.9606,253.1007 130.497,253.0779 130.0379,253.0098 129.5876,252.897 129.1505,252.7406 128.7309,252.5422 128.3328,252.3035 127.96,252.027"/>
    <polygon points="134.6169,238.2787 134.3052,238.6226 133.9613,238.9343 133.5885,239.2109 133.1903,239.4495 132.7707,239.648 132.3337,239.8043 131.8834,239.9171 131.4242,239.9852 130.9606,240.008 130.497,239.9852 130.0379,239.9171 129.5876,239.8043 129.1505,239.648 128.7309,239.4495 128.3328,239.2109 127.96,238.9343 127.616,238.6226 127.3043,238.2787 127.0278,237.9059 126.7892,237.5077 126.5907,237.0881 126.4343,236.6511 126.3215,236.2008 126.2534,235.7416 126.2307,235.278 126.2534,234.8144 126.3215,234.3553 126.4343,233.905 126.5907,233.4679 126.7892,233.0483 127.0278,232.6502 127.3043,232.2774 127.616,231.9334 127.96,231.6217 128.3328,231.3452 128.7309,231.1066 129.1505,230.9081 129.5876,230.7517 130.0379,230.6389 130.497,230.5708 130.9606,230.5481 131.4242,230.5708 131.8834,230.6389 132.3337,230.7517 132.7707,230.9081 133.1903,231.1066 133.5885,231.3452 133.9613,231.6217 134.3052,231.9334 134.6169,232.2774 134.8935,232.6502 135.1321,233.0483 135.3306,233.4679 135.4869,233.905 135.5997,234.3553 135.6678,234.8144 135.6906,235.278 135.6678,235.7416 135.5997,236.2008 135.4869,236.6511 135.3306,237.0881 135.1321,237.5077 134.8935,237.9059"/>
    <polygon points="139.2985,193.11 138.9546,192.7983 138.6429,192.4544 138.3664,192.0815 138.1277,191.6834 137.9293,191.2638 137.7729,190.8267 137.6601,190.3765 137.592,189.9173 137.5692,189.4537 137.592,188.9901 137.6601,188.5309 137.7729,188.0807 137.9293,187.6436 138.1277,187.224 138.3664,186.8259 138.6429,186.453 138.9546,186.1091 139.2985,185.7974 139.6714,185.5209 140.0695,185.2822 140.4891,185.0838 140.9262,184.9274 141.3764,184.8146 141.8356,184.7465 142.2992,184.7237 142.7628,184.7465 143.222,184.8146 143.6723,184.9274 144.1093,185.0838 144.5289,185.2822 144.927,185.5209 145.2999,185.7974 145.6438,186.1091 145.9555,186.453 146.232,186.8259 146.4707,187.224 146.6691,187.6436 146.8255,188.0807 146.9383,188.5309 147.0064,188.9901 147.0292,189.4537 147.0064,189.9173 146.9383,190.3765 146.8255,190.8267 146.6691,191.2638 146.4707,191.6834 146.232,192.0815 145.9555,192.4544 145.6438,192.7983 145.2999,193.11 144.927,193.3865 144.5289,193.6252 144.1093,193.8236 143.6723,193.98 143.222,194.0928 142.7628,194.1609 142.2992,194.1837 141.8356,194.1609 141.3764,194.0928 140.9262,193.98 140.4891,193.8236 140.0695,193.6252 139.6714,193.3865"/>
    <polygon points="155.0108,187.4337 154.5606,187.5464 154.1014,187.6146 153.6378,187.6373 153.1742,187.6146 152.715,187.5464 152.2648,187.4337 151.8277,187.2773 151.4081,187.0788 151.01,186.8402 150.6371,186.5637 150.2932,186.252 149.9815,185.908 149.705,185.5352 149.4663,185.137 149.2679,184.7174 149.1115,184.2804 148.9987,183.8301 148.9306,183.371 148.9078,182.9074 148.9306,182.4437 148.9987,181.9846 149.1115,181.5343 149.2679,181.0973 149.4663,180.6777 149.705,180.2795 149.9815,179.9067 150.2932,179.5628 150.6371,179.251 151.01,178.9745 151.4081,178.7359 151.8277,178.5374 152.2648,178.3811 152.715,178.2683 153.1742,178.2002 153.6378,178.1774 154.1014,178.2002 154.5606,178.2683 155.0108,178.3811 155.4479,178.5374 155.8675,178.7359 156.2656,178.9745 156.6385,179.251 156.9824,179.5628 157.2941,179.9067 157.5706,180.2795 157.8093,180.6777 158.0077,181.0973 158.1641,181.5343 158.2769,181.9846 158.345,182.4437 158.3678,182.9074 158.345,183.371 158.2769,183.8301 158.1641,184.2804 158.0077,184.7174 157.8093,185.137 157.5706,185.5352 157.2941,185.908 156.9824,186.252 156.6385,186.5637 156.2656,186.8402 155.8675,187.0788 155.4479,187.2773"/>
    <polygon points="155.8675,200.1715 155.4479,200.3699 155.0108,200.5263 154.5606,200.6391 154.1014,200.7072 153.6378,200.73 153.1742,200.7072 152.715,200.6391 152.2648,200.5263 151.8277,200.3699 151.4081,200.1715 151.01,199.9329 150.6371,199.6563 150.2932,199.3446 149.9815,199.0007 149.705,198.6279 149.4663,198.2297 149.2679,197.8101 149.1115,197.3731 148.9987,196.9228 148.9306,196.4636 148.9078,196.0 148.9306,195.5364 148.9987,195.0773 149.1115,194.627 149.2679,194.1899 149.4663,193.7703 149.705,193.3722 149.9815,192.9994 150.2932,192.6554 150.6371,192.3437 151.01,192.0672 151.4081,191.8286 151.8277,191.6301 152.2648,191.4737 152.715,191.3609 153.1742,191.2928 153.6378,191.2701 154.1014,191.2928 154.5606,191.3609 155.0108,191.4737 155.4479,191.6301 155.8675,191.8286 156.2656,192.0672 156.6385,192.3437 156.9824,192.6554 157.2941,192.9994 157.5706,193.3722 157.8093,193.7703 158.0077,194.1899 158.1641,194.627 158.2769,195.0773 158.345,195.5364 158.3678,196.0 158.345,196.4636 158.2769,196.9228 158.1641,197.3731 158.0077,197.8101 157.8093,198.2297 157.5706,198.6279 157.2941,199.0007 156.9824,199.3446 156.6385,199.6563 156.2656,199.9329"/>
    <polygon points="159.38,215.3575 160.0392,216.2463 160.7824,217.0662 161.6023,217.8094 162.4911,218.4686 163.4403,219.0375 164.4406,219.5106 165.4826,219.8834 166.556,220.1523 167.6506,220.3147 168.7559,220.369 169.8612,220.3147 170.9558,220.1523 172.0292,219.8834 173.0712,219.5106 174.0715,219.0375 175.0207,218.4686 175.9095,217.8094 176.7295,217.0662 177.4726,216.2463 178.1318,215.3575 178.7007,214.4083 179.1739,213.4079 179.5467,212.366 179.8155,211.2926 179.9779,210.198 180.0322,209.0927 179.9779,207.9874 179.8155,206.8928 179.5467,205.8194 179.1739,204.7774 178.7007,203.7771 178.1318,202.8279 177.4726,201.9391 176.7295,201.1191 175.9095,200.376 175.0207,199.7168 174.0715,199.1479 173.0712,198.6747 172.0292,198.3019 170.9558,198.0331 169.8612,197.8707 168.7559,197.8164 167.6506,197.8707 166.556,198.0331 165.4826,198.3019 164.4406,198.6747 163.4403,199.1479 162.4911,199.7168 161.6023,200.376 160.7824,201.1191 160.0392,201.9391 159.38,202.8279 158.8111,203.7771 158.338,204.7774 157.9652,205.8194 157.6963,206.8928 157.5339,207.9874 157.4796,209.0927 157.5339,210.198 157.6963,211.2926 157.9652,212.366 158.338,213.4079 158.8111,214.4083"/>
    <polygon points="156.8695,218.912 156.4967,217.8701 156.0236,216.8697 155.4546,215.9206 154.7954,215.0317 154.0523,214.2118 153.2324,213.4687 152.3435,212.8095 151.3944,212.2405 150.394,211.7674 149.3521,211.3946 148.2786,211.1257 147.184,210.9634 146.0787,210.9091 144.9735,210.9634 143.8788,211.1257 142.8054,211.3946 141.7635,211.7674 140.7631,212.2405 139.814,212.8095 138.9251,213.4687 138.1052,214.2118 137.362,215.0317 136.7028,215.9206 136.1339,216.8697 135.6608,217.8701 135.288,218.912 135.0191,219.9855 134.8567,221.0801 134.8024,222.1854 134.8567,223.2906 135.0191,224.3853 135.288,225.4587 135.6608,226.5006 136.1339,227.501 136.7028,228.4501 137.362,229.339 138.1052,230.1589 138.9251,230.9021 139.814,231.5613 140.7631,232.1302 141.7635,232.6033 142.8054,232.9761 143.8788,233.245 144.9735,233.4074 146.0787,233.4617 147.184,233.4074 148.2786,233.245 149.3521,232.9761 150.394,232.6033 151.3944,232.1302 152.3435,231.5613 153.2324,230.9021 154.0523,230.1589 154.7954,229.339 155.4546,228.4501 156.0236,227.501 156.4967,226.5006 156.8695,225.4587 157.1384,224.3853 157.3007,223.2906 157.355,222.1854 157.3007,221.0801 157.1384,219.9855"/>
    <polygon points="178.7035,224.1191 181.0691,224.47 183.3889,225.051 185.6406,225.8567 187.8024,226.8792 189.8536,228.1086 191.7745,229.5332 193.5464,231.1392 195.1524,232.9112 196.577,234.832 197.8065,236.8832 198.829,239.0451 199.6346,241.2968 200.2157,243.6165 200.5666,245.9821 200.6839,248.3707 200.5666,250.7593 200.2157,253.1248 199.6346,255.4446 198.829,257.6963 197.8065,259.8581 196.577,261.9094 195.1524,263.8302 193.5464,265.6022 191.7745,267.2082 189.8536,268.6328 187.8024,269.8622 185.6406,270.8847 183.3889,271.6903 181.0691,272.2714 178.7035,272.6223 176.315,272.7397 173.9264,272.6223 171.5608,272.2714 169.241,271.6903 166.9894,270.8847 164.8275,269.8622 162.7763,268.6328 160.8554,267.2082 159.0835,265.6022 157.4775,263.8302 156.0529,261.9094 154.8234,259.8581 153.801,257.6963 152.9953,255.4446 152.4142,253.1248 152.0633,250.7593 151.946,248.3707 152.0633,245.9821 152.4142,243.6165 152.9953,241.2968 153.801,239.0451 154.8234,236.8832 156.0529,234.832 157.4775,232.9112 159.0835,231.1392 160.8554,229.5332 162.7763,228.1086 164.8275,226.8792 166.9894,225.8567 169.241,225.051 171.5608,224.47 173.9264,224.1191 176.315,224.0017"/>
    <polygon points="212.3437,244.6994 210.1818,243.6769 208.1306,242.4474 206.2098,241.0228 204.4378,239.4168 202.8318,237.6449 201.4072,235.724 200.1778,233.6728 199.1553,231.511 198.3496,229.2593 197.7686,226.9395 197.4177,224.5739 197.3003,222.1854 197.4177,219.7968 197.7686,217.4312 198.3496,215.1114 199.1553,212.8598 200.1778,210.6979 201.4072,208.6467 202.8318,206.7258 204.4378,204.9539 206.2098,203.3479 208.1306,201.9233 210.1818,200.6938 212.3437,199.6714 214.5954,198.8657 216.9151,198.2846 219.2807,197.9337 221.6693,197.8164 224.0579,197.9337 226.4234,198.2846 228.7432,198.8657 230.9949,199.6714 233.1567,200.6938 235.208,201.9233 237.1288,203.3479 238.9008,204.9539 240.5068,206.7258 241.9314,208.6467 243.1608,210.6979 244.1833,212.8598 244.9889,215.1114 245.57,217.4312 245.9209,219.7968 246.0383,222.1854 245.9209,224.5739 245.57,226.9395 244.9889,229.2593 244.1833,231.511 243.1608,233.6728 241.9314,235.724 240.5068,237.6449 238.9008,239.4168 237.1288,241.0228 235.208,242.4474 233.1567,243.6769 230.9949,244.6994 228.7432,245.505 226.4234,246.0861 224.0579,246.437 221.6693,246.5543 219.2807,246.437 216.9151,246.0861 214.5954,245.505"/>
    <polygon points="210.8369,250.6726 211.9103,250.4037 213.005,250.2414 214.1102,250.1871 215.2155,250.2414 216.3101,250.4037 217.3836,250.6726 218.4255,251.0454 219.4259,251.5185 220.375,252.0875 221.2638,252.7467 222.0838,253.4898 222.8269,254.3097 223.4861,255.1986 224.0551,256.1477 224.5282,257.1481 224.901,258.19 225.1699,259.2635 225.3322,260.3581 225.3865,261.4634 225.3322,262.5686 225.1699,263.6633 224.901,264.7367 224.5282,265.7786 224.0551,266.779 223.4861,267.7281 222.8269,268.617 222.0838,269.4369 221.2638,270.1801 220.375,270.8393 219.4259,271.4082 218.4255,271.8813 217.3836,272.2541 216.3101,272.523 215.2155,272.6854 214.1102,272.7397 213.005,272.6854 211.9103,272.523 210.8369,272.2541 209.795,271.8813 208.7946,271.4082 207.8455,270.8393 206.9566,270.1801 206.1367,269.4369 205.3935,268.617 204.7343,267.7281 204.1654,266.779 203.6923,265.7786 203.3195,264.7367 203.0506,263.6633 202.8882,262.5686 202.8339,261.4634 202.8882,260.3581 203.0506,259.2635 203.3195,258.19 203.6923,257.1481 204.1654,256.1477 204.7343,255.1986 205.3935,254.3097 206.1367,253.4898 206.9566,252.7467 207.8455,252.0875 208.7946,251.5185 209.795,251.0454"/>
    <polygon points="228.3007,267.5461 228.2779,268.0097 228.3007,268.4733 228.3688,268.9325 228.4816,269.3827 228.6379,269.8198 228.8364,270.2394 229.075,270.6375 229.3516,271.0104 229.6633,271.3543 230.0072,271.666 230.38,271.9425 230.7782,272.1812 231.1978,272.3796 231.6348,272.536 232.0851,272.6488 232.5443,272.7169 233.0079,272.7397 233.4715,272.7169 233.9306,272.6488 234.3809,272.536 234.818,272.3796 235.2376,272.1812 235.6357,271.9425 236.0085,271.666 236.3525,271.3543 236.6642,271.0104 236.9407,270.6375 237.1793,270.2394 237.3778,269.8198 237.5342,269.3827 237.647,268.9325 237.7151,268.4733 237.7378,268.0097 237.7151,267.5461 237.647,267.0869 237.5342,266.6367 237.3778,266.1996 237.1793,265.78 236.9407,265.3819 236.6642,265.009 236.3525,264.6651 236.0085,264.3534 235.6357,264.0769 235.2376,263.8382 234.818,263.6398 234.3809,263.4834 233.9306,263.3706 233.4715,263.3025 233.0079,263.2797 232.5443,263.3025 232.0851,263.3706 231.6348,263.4834 231.1978,263.6398 230.7782,263.8382 230.38,264.0769 230.0072,264.3534 229.6633,264.6651 229.3516,265.009 229.075,265.3819 228.8364,265.78 228.6379,266.1996 228.4816,266.6367 228.3688,267.0869"/>
    <polygon points="309.7501,278.4889 309.3773,278.2123 309.0334,277.9006 308.7216,277.5567 308.4451,277.1839 308.2065,276.7857 308.008,276.3661 307.8517,275.9291 307.7389,275.4788 307.6708,275.0196 307.648,274.556 307.6708,274.0924 307.7389,273.6333 307.8517,273.183 308.008,272.7459 308.2065,272.3263 308.4451,271.9282 308.7216,271.5554 309.0334,271.2114 309.3773,270.8997 309.7501,270.6232 310.1483,270.3846 310.5679,270.1861 311.0049,270.0297 311.4552,269.9169 311.9143,269.8488 312.378,269.8261 312.8416,269.8488 313.3007,269.9169 313.751,270.0297 314.188,270.1861 314.6076,270.3846 315.0058,270.6232 315.3786,270.8997 315.7225,271.2114 316.0343,271.5554 316.3108,271.9282 316.5494,272.3263 316.7479,272.7459 316.9043,273.183 317.017,273.6333 317.0851,274.0924 317.1079,274.556 317.0851,275.0196 317.017,275.4788 316.9043,275.9291 316.7479,276.3661 316.5494,276.7857 316.3108,277.1839 316.0343,277.5567 315.7225,277.9006 315.3786,278.2123 315.0058,278.4889 314.6076,278.7275 314.188,278.926 313.751,279.0823 313.3007,279.1951 312.8416,279.2632 312.378,279.286 311.9143,279.2632 311.4552,279.1951 311.0049,279.0823 310.5679,278.926 310.1483,278.7275"/>
    <polygon points="313.751,265.9897 313.3007,266.1024 312.8416,266.1706 312.378,266.1933 311.9143,266.1706 311.4552,266.1024 311.0049,265.9897 310.5679,265.8333 310.1483,265.6348 309.7501,265.3962 309.3773,265.1197 309.0334,264.808 308.7216,264.464 308.4451,264.0912 308.2065,263.6931 308.008,263.2734 307.8517,262.8364 307.7389,262.3861 307.6708,261.927 307.648,261.4634 307.6708,260.9997 307.7389,260.5406 307.8517,260.0903 308.008,259.6533 308.2065,259.2337 308.4451,258.8355 308.7216,258.4627 309.0334,258.1188 309.3773,257.807 309.7501,257.5305 310.1483,257.2919 310.5679,257.0934 311.0049,256.9371 311.4552,256.8243 311.9143,256.7562 312.378,256.7334 312.8416,256.7562 313.3007,256.8243 313.751,256.9371 314.188,257.0934 314.6076,257.2919 315.0058,257.5305 315.3786,257.807 315.7225,258.1188 316.0343,258.4627 316.3108,258.8355 316.5494,259.2337 316.7479,259.6533 316.9043,260.0903 317.017,260.5406 317.0851,260.9997 317.1079,261.4634 317.0851,261.927 317.017,262.3861 316.9043,262.8364 316.7479,263.2734 316.5494,263.6931 316.3108,264.0912 316.0343,264.464 315.7225,264.808 315.3786,265.1197 315.0058,265.3962 314.6076,265.6348 314.188,265.8333"/>
    <polygon points="297.1065,265.3819 297.3831,265.009 297.6948,264.6651 298.0387,264.3534 298.4115,264.0769 298.8097,263.8382 299.2293,263.6398 299.6663,263.4834 300.1166,263.3706 300.5758,263.3025 301.0394,263.2797 301.503,263.3025 301.9621,263.3706 302.4124,263.4834 302.8495,263.6398 303.2691,263.8382 303.6672,264.0769 304.04,264.3534 304.384,264.6651 304.6957,265.009 304.9722,265.3819 305.2108,265.78 305.4093,266.1996 305.5657,266.6367 305.6785,267.0869 305.7466,267.5461 305.7693,268.0097 305.7466,268.4733 305.6785,268.9325 305.5657,269.3827 305.4093,269.8198 305.2108,270.2394 304.9722,270.6375 304.6957,271.0104 304.384,271.3543 304.04,271.666 303.6672,271.9425 303.2691,272.1812 302.8495,272.3796 302.4124,272.536 301.9621,272.6488 301.503,272.7169 301.0394,272.7397 300.5758,272.7169 300.1166,272.6488 299.6663,272.536 299.2293,272.3796 298.8097,272.1812 298.4115,271.9425 298.0387,271.666 297.6948,271.3543 297.3831,271.0104 297.1065,270.6375 296.8679,270.2394 296.6694,269.8198 296.5131,269.3827 296.4003,268.9325 296.3322,268.4733 296.3094,268.0097 296.3322,267.5461 296.4003,267.0869 296.5131,266.6367 296.6694,266.1996 296.8679,265.78"/>
    <polygon points="296.6694,256.7271 296.5131,256.2901 296.4003,255.8398 296.3322,255.3806 296.3094,254.917 296.3322,254.4534 296.4003,253.9943 296.5131,253.544 296.6694,253.1069 296.8679,252.6873 297.1065,252.2892 297.3831,251.9164 297.6948,251.5724 298.0387,251.2607 298.4115,250.9842 298.8097,250.7456 299.2293,250.5471 299.6663,250.3907 300.1166,250.2779 300.5758,250.2098 301.0394,250.1871 301.503,250.2098 301.9621,250.2779 302.4124,250.3907 302.8495,250.5471 303.2691,250.7456 303.6672,250.9842 304.04,251.2607 304.384,251.5724 304.6957,251.9164 304.9722,252.2892 305.2108,252.6873 305.4093,253.1069 305.5657,253.544 305.6785,253.9943 305.7466,254.4534 305.7693,254.917 305.7466,255.3806 305.6785,255.8398 305.5657,256.2901 305.4093,256.7271 305.2108,257.1467 304.9722,257.5449 304.6957,257.9177 304.384,258.2616 304.04,258.5733 303.6672,258.8499 303.2691,259.0885 302.8495,259.287 302.4124,259.4433 301.9621,259.5561 301.503,259.6242 301.0394,259.647 300.5758,259.6242 300.1166,259.5561 299.6663,259.4433 299.2293,259.287 298.8097,259.0885 298.4115,258.8499 298.0387,258.5733 297.6948,258.2616 297.3831,257.9177 297.1065,257.5449 296.8679,257.1467"/>
    <polygon points="293.418,248.3707 293.3637,249.476 293.2014,250.5706 292.9325,251.644 292.5597,252.6859 292.0865,253.6863 291.5176,254.6355 290.8584,255.5243 290.1153,256.3442 289.2953,257.0874 288.4065,257.7466 287.4573,258.3155 286.457,258.7886 285.4151,259.1614 284.3416,259.4303 283.247,259.5927 282.1417,259.647 281.0365,259.5927 279.9418,259.4303 278.8684,259.1614 277.8265,258.7886 276.8261,258.3155 275.877,257.7466 274.9881,257.0874 274.1682,256.3442 273.425,255.5243 272.7658,254.6355 272.1969,253.6863 271.7238,252.6859 271.351,251.644 271.0821,250.5706 270.9197,249.476 270.8654,248.3707 270.9197,247.2654 271.0821,246.1708 271.351,245.0974 271.7238,244.0554 272.1969,243.0551 272.7658,242.1059 273.425,241.2171 274.1682,240.3971 274.9881,239.654 275.877,238.9948 276.8261,238.4259 277.8265,237.9527 278.8684,237.5799 279.9418,237.3111 281.0365,237.1487 282.1417,237.0944 283.247,237.1487 284.3416,237.3111 285.4151,237.5799 286.457,237.9527 287.4573,238.4259 288.4065,238.9948 289.2953,239.654 290.1153,240.3971 290.8584,241.2171 291.5176,242.1059 292.0865,243.0551 292.5597,244.0554 292.9325,245.0974 293.2014,246.1708 293.3637,247.2654"/>
    <polygon points="281.7068,232.0763 281.3629,232.388 280.99,232.6645 280.5919,232.9032 280.1723,233.1016 279.7352,233.258 279.285,233.3708 278.8258,233.4389 278.3622,233.4617 277.8986,233.4389 277.4394,233.3708 276.9892,233.258 276.5521,233.1016 276.1325,232.9032 275.7344,232.6645 275.3615,232.388 275.0176,232.0763 274.7059,231.7324 274.4294,231.3595 274.1907,230.9614 273.9923,230.5418 273.8359,230.1047 273.7231,229.6545 273.655,229.1953 273.6322,228.7317 273.655,228.2681 273.7231,227.8089 273.8359,227.3587 273.9923,226.9216 274.1907,226.502 274.4294,226.1039 274.7059,225.731 275.0176,225.3871 275.3615,225.0754 275.7344,224.7989 276.1325,224.5602 276.5521,224.3618 276.9892,224.2054 277.4394,224.0926 277.8986,224.0245 278.3622,224.0017 278.8258,224.0245 279.285,224.0926 279.7352,224.2054 280.1723,224.3618 280.5919,224.5602 280.99,224.7989 281.3629,225.0754 281.7068,225.3871 282.0185,225.731 282.295,226.1039 282.5337,226.502 282.7321,226.9216 282.8885,227.3587 283.0013,227.8089 283.0694,228.2681 283.0922,228.7317 283.0694,229.1953 283.0013,229.6545 282.8885,230.1047 282.7321,230.5418 282.5337,230.9614 282.295,231.3595 282.0185,231.7324"/>
    <polygon points="255.1493,224.8601 254.149,225.3332 253.1998,225.9021 252.311,226.5613 251.491,227.3045 250.7479,228.1244 250.0887,229.0132 249.5198,229.9624 249.0466,230.9628 248.6738,232.0047 248.4049,233.0781 248.2426,234.1728 248.1883,235.278 248.2426,236.3833 248.4049,237.4779 248.6738,238.5514 249.0466,239.5933 249.5198,240.5936 250.0887,241.5428 250.7479,242.4316 251.491,243.2516 252.311,243.9947 253.1998,244.6539 254.149,245.2228 255.1493,245.696 256.1912,246.0688 257.2647,246.3377 258.3593,246.5 259.4646,246.5543 260.5698,246.5 261.6645,246.3377 262.7379,246.0688 263.7798,245.696 264.7802,245.2228 265.7293,244.6539 266.6182,243.9947 267.4381,243.2516 268.1813,242.4316 268.8405,241.5428 269.4094,240.5936 269.8825,239.5933 270.2553,238.5514 270.5242,237.4779 270.6866,236.3833 270.7409,235.278 270.6866,234.1728 270.5242,233.0781 270.2553,232.0047 269.8825,230.9628 269.4094,229.9624 268.8405,229.0132 268.1813,228.1244 267.4381,227.3045 266.6182,226.5613 265.7293,225.9021 264.7802,225.3332 263.7798,224.8601 262.7379,224.4873 261.6645,224.2184 260.5698,224.056 259.4646,224.0017 258.3593,224.056 257.2647,224.2184 256.1912,224.4873"/>
    <polygon points="269.8825,213.4079 270.2553,212.366 270.5242,211.2926 270.6866,210.198 270.7409,209.0927 270.6866,207.9874 270.5242,206.8928 270.2553,205.8194 269.8825,204.7774 269.4094,203.7771 268.8405,202.8279 268.1813,201.9391 267.4381,201.1191 266.6182,200.376 265.7293,199.7168 264.7802,199.1479 263.7798,198.6747 262.7379,198.3019 261.6645,198.0331 260.5698,197.8707 259.4646,197.8164 258.3593,197.8707 257.2647,198.0331 256.1912,198.3019 255.1493,198.6747 254.149,199.1479 253.1998,199.7168 252.311,200.376 251.491,201.1191 250.7479,201.9391 250.0887,202.8279 249.5198,203.7771 249.0466,204.7774 248.6738,205.8194 248.4049,206.8928 248.2426,207.9874 248.1883,209.0927 248.2426,210.198 248.4049,211.2926 248.6738,212.366 249.0466,213.4079 249.5198,214.4083 250.0887,215.3575 250.7479,216.2463 251.491,217.0662 252.311,217.8094 253.1998,218.4686 254.149,219.0375 255.1493,219.5106 256.1912,219.8834 257.2647,220.1523 258.3593,220.3147 259.4646,220.369 260.5698,220.3147 261.6645,220.1523 262.7379,219.8834 263.7798,219.5106 264.7802,219.0375 265.7293,218.4686 266.6182,217.8094 267.4381,217.0662 268.1813,216.2463 268.8405,215.3575 269.4094,214.4083"/>
    <polygon points="278.3622,207.2763 278.8258,207.2536 279.285,207.1854 279.7352,207.0727 280.1723,206.9163 280.5919,206.7178 280.99,206.4792 281.3629,206.2027 281.7068,205.891 282.0185,205.547 282.295,205.1742 282.5337,204.7761 282.7321,204.3564 282.8885,203.9194 283.0013,203.4691 283.0694,203.01 283.0922,202.5464 283.0694,202.0827 283.0013,201.6236 282.8885,201.1733 282.7321,200.7363 282.5337,200.3167 282.295,199.9185 282.0185,199.5457 281.7068,199.2018 281.3629,198.89 280.99,198.6135 280.5919,198.3749 280.1723,198.1764 279.7352,198.0201 279.285,197.9073 278.8258,197.8392 278.3622,197.8164 277.8986,197.8392 277.4394,197.9073 276.9892,198.0201 276.5521,198.1764 276.1325,198.3749 275.7344,198.6135 275.3615,198.89 275.0176,199.2018 274.7059,199.5457 274.4294,199.9185 274.1907,200.3167 273.9923,200.7363 273.8359,201.1733 273.7231,201.6236 273.655,202.0827 273.6322,202.5464 273.655,203.01 273.7231,203.4691 273.8359,203.9194 273.9923,204.3564 274.1907,204.7761 274.4294,205.1742 274.7059,205.547 275.0176,205.891 275.3615,206.2027 275.7344,206.4792 276.1325,206.7178 276.5521,206.9163 276.9892,207.0727 277.4394,207.1854 277.8986,207.2536"/>
    <polygon points="260.2113,188.0807 260.055,187.6436 259.8565,187.224 259.6179,186.8259 259.3414,186.453 259.0296,186.1091 258.6857,185.7974 258.3129,185.5209 257.9147,185.2822 257.4951,185.0838 257.0581,184.9274 256.6078,184.8146 256.1487,184.7465 255.685,184.7237 255.2214,184.7465 254.7623,184.8146 254.312,184.9274 253.875,185.0838 253.4553,185.2822 253.0572,185.5209 252.6844,185.7974 252.3404,186.1091 252.0287,186.453 251.7522,186.8259 251.5136,187.224 251.3151,187.6436 251.1587,188.0807 251.046,188.5309 250.9778,188.9901 250.9551,189.4537 250.9778,189.9173 251.046,190.3765 251.1587,190.8267 251.3151,191.2638 251.5136,191.6834 251.7522,192.0815 252.0287,192.4544 252.3404,192.7983 252.6844,193.11 253.0572,193.3865 253.4553,193.6252 253.875,193.8236 254.312,193.98 254.7623,194.0928 255.2214,194.1609 255.685,194.1837 256.1487,194.1609 256.6078,194.0928 257.0581,193.98 257.4951,193.8236 257.9147,193.6252 258.3129,193.3865 258.6857,193.11 259.0296,192.7983 259.3414,192.4544 259.6179,192.0815 259.8565,191.6834 260.055,191.2638 260.2113,190.8267 260.3241,190.3765 260.3922,189.9173 260.415,189.4537 260.3922,188.9901 260.3241,188.5309"/>
  </g>
</svg>
