<?xml version="1.0" encoding="utf-8" ?>
<svg xmlns="http://www.w3.org/2000/svg" xmlns:cc="http://creativecommons.org/ns" xmlns:dc="http://purl.org/dc/elements/1.1/" xmlns:ev="http://www.w3.org/2001/xml-events" xmlns:inkscape="http://www.inkscape.org/namespaces/inkscape" xmlns:rdf="http://www.w3.org/1999/02/22-rdf-syntax-ns" xmlns:sodipodi="http://sodipodi.sourceforge.net/DTD/sodipodi-0.dtd" xmlns:xlink="http://www.w3.org/1999/xlink" baseProfile="tiny" height="15.875cm" version="1.2" viewBox="0 0 432.0 600.0" width="11.43cm">
  <metadata>
    <rdf:RDF>
      <cc:Work>
        <dc:format>image/svg+xml</dc:format>
        <dc:source>vsk save -s 270 -c hex-grid/config/bubble-coasters-2.json /Users/tobin/src/fabian/plotting/fabian-plotting/hex-grid/sketch_hex_grid.py</dc:source>
        <dc:date>2023-11-11T11:30:23.985831</dc:date>
      </cc:Work>
    </rdf:RDF>
  </metadata>
  <defs/>
  <g fill="none" id="layer1" inkscape:groupmode="layer" inkscape:label="1" stroke="#000000" stroke-width="0.7559" style="display:inline">
    <polygon points="267.0236,190.9105 266.56,190.8877 266.1009,190.8196 265.6506,190.7068 265.2135,190.5504 264.7939,190.352 264.3958,190.1134 264.023,189.8368 263.679,189.5251 263.3673,189.1812 263.0908,188.8084 262.8522,188.4102 262.6537,187.9906 262.4973,187.5536 262.3845,187.1033 262.3164,186.6441 262.2936,186.1805 262.3164,185.7169 262.3845,185.2578 262.4973,184.8075 262.6537,184.3704 262.8522,183.9508 263.0908,183.5527 263.3673,183.1799 263.679,182.8359 264.023,182.5242 264.3958,182.2477 264.7939,182.0091 265.2135,181.8106 265.6506,181.6542 266.1009,181.5414 266.56,181.4733 267.0236,181.4506 267.4872,181.4733 267.9464,181.5414 268.3967,181.6542 268.8337,181.8106 269.2533,182.0091 269.6515,182.2477 270.0243,182.5242 270.3682,182.8359 270.6799,183.1799 270.9565,183.5527 271.1951,183.9508 271.3935,184.3704 271.5499,184.8075 271.6627,185.2578 271.7308,185.7169 271.7536,186.1805 271.7308,186.6441 271.6627,187.1033 271.5499,187.5536 271.3935,187.9906 271.1951,188.4102 270.9565,188.8084 270.6799,189.1812 270.3682,189.5251 270.0243,189.8368 269.6515,190.1134 269.2533,190.352 268.8337,190.5504 268.3967,190.7068 267.9464,190.8196 267.4872,190.8877"/>
    <polygon points="239.6393,173.5515 239.6165,173.0879 239.6393,172.6242 239.7074,172.1651 239.8202,171.7148 239.9765,171.2778 240.175,170.8582 240.4136,170.46 240.6901,170.0872 241.0019,169.7433 241.3458,169.4315 241.7186,169.155 242.1168,168.9164 242.5364,168.7179 242.9734,168.5616 243.4237,168.4488 243.8828,168.3807 244.3465,168.3579 244.8101,168.3807 245.2692,168.4488 245.7195,168.5616 246.1565,168.7179 246.5762,168.9164 246.9743,169.155 247.3471,169.4315 247.6911,169.7433 248.0028,170.0872 248.2793,170.46 248.5179,170.8582 248.7164,171.2778 248.8728,171.7148 248.9855,172.1651 249.0537,172.6242 249.0764,173.0879 249.0537,173.5515 248.9855,174.0106 248.8728,174.4609 248.7164,174.8979 248.5179,175.3175 248.2793,175.7157 248.0028,176.0885 247.6911,176.4325 247.3471,176.7442 246.9743,177.0207 246.5762,177.2593 246.1565,177.4578 245.7195,177.6142 245.2692,177.7269 244.8101,177.7951 244.3465,177.8178 243.8828,177.7951 243.4237,177.7269 242.9734,177.6142 242.5364,177.4578 242.1168,177.2593 241.7186,177.0207 241.3458,176.7442 241.0019,176.4325 240.6901,176.0885 240.4136,175.7157 240.175,175.3175 239.9765,174.8979 239.8202,174.4609 239.7074,174.0106"/>
    <polygon points="232.0851,171.1806 231.6348,171.0678 231.1978,170.9114 230.7782,170.713 230.38,170.4743 230.0072,170.1978 229.6633,169.8861 229.3516,169.5422 229.075,169.1694 228.8364,168.7712 228.6379,168.3516 228.4816,167.9146 228.3688,167.4643 228.3007,167.0051 228.2779,166.5415 228.3007,166.0779 228.3688,165.6187 228.4816,165.1685 228.6379,164.7314 228.8364,164.3118 229.075,163.9137 229.3516,163.5409 229.6633,163.1969 230.0072,162.8852 230.38,162.6087 230.7782,162.3701 231.1978,162.1716 231.6348,162.0152 232.0851,161.9024 232.5443,161.8343 233.0079,161.8115 233.4715,161.8343 233.9306,161.9024 234.3809,162.0152 234.818,162.1716 235.2376,162.3701 235.6357,162.6087 236.0085,162.8852 236.3525,163.1969 236.6642,163.5409 236.9407,163.9137 237.1793,164.3118 237.3778,164.7314 237.5342,165.1685 237.647,165.6187 237.7151,166.0779 237.7378,166.5415 237.7151,167.0051 237.647,167.4643 237.5342,167.9146 237.3778,168.3516 237.1793,168.7712 236.9407,169.1694 236.6642,169.5422 236.3525,169.8861 236.0085,170.1978 235.6357,170.4743 235.2376,170.713 234.818,170.9114 234.3809,171.0678 233.9306,171.1806 233.4715,171.2487 233.0079,171.2715 232.5443,171.2487"/>
    <polygon points="229.6633,182.9788 229.3516,182.6349 229.075,182.262 228.8364,181.8639 228.6379,181.4443 228.4816,181.0072 228.3688,180.557 228.3007,180.0978 228.2779,179.6342 228.3007,179.1706 228.3688,178.7114 228.4816,178.2612 228.6379,177.8241 228.8364,177.4045 229.075,177.0064 229.3516,176.6335 229.6633,176.2896 230.0072,175.9779 230.38,175.7014 230.7782,175.4627 231.1978,175.2643 231.6348,175.1079 232.0851,174.9951 232.5443,174.927 233.0079,174.9042 233.4715,174.927 233.9306,174.9951 234.3809,175.1079 234.818,175.2643 235.2376,175.4627 235.6357,175.7014 236.0085,175.9779 236.3525,176.2896 236.6642,176.6335 236.9407,177.0064 237.1793,177.4045 237.3778,177.8241 237.5342,178.2612 237.647,178.7114 237.7151,179.1706 237.7378,179.6342 237.7151,180.0978 237.647,180.557 237.5342,181.0072 237.3778,181.4443 237.1793,181.8639 236.9407,182.262 236.6642,182.6349 236.3525,182.9788 236.0085,183.2905 235.6357,183.567 235.2376,183.8057 234.818,184.0041 234.3809,184.1605 233.9306,184.2733 233.4715,184.3414 233.0079,184.3642 232.5443,184.3414 232.0851,184.2733 231.6348,184.1605 231.1978,184.0041 230.7782,183.8057 230.38,183.567 230.0072,183.2905"/>
    <polygon points="240.9724,201.4436 240.1524,200.7004 239.4093,199.8805 238.7501,198.9916 238.1812,198.0425 237.708,197.0421 237.3352,196.0002 237.0663,194.9268 236.904,193.8321 236.8497,192.7269 236.904,191.6216 237.0663,190.527 237.3352,189.4535 237.708,188.4116 238.1812,187.4112 238.7501,186.4621 239.4093,185.5732 240.1524,184.7533 240.9724,184.0102 241.8612,183.351 242.8104,182.782 243.8107,182.3089 244.8526,181.9361 245.9261,181.6672 247.0207,181.5048 248.126,181.4506 249.2313,181.5048 250.3259,181.6672 251.3993,181.9361 252.4412,182.3089 253.4416,182.782 254.3908,183.351 255.2796,184.0102 256.0995,184.7533 256.8427,185.5732 257.5019,186.4621 258.0708,187.4112 258.5439,188.4116 258.9167,189.4535 259.1856,190.527 259.348,191.6216 259.4023,192.7269 259.348,193.8321 259.1856,194.9268 258.9167,196.0002 258.5439,197.0421 258.0708,198.0425 257.5019,198.9916 256.8427,199.8805 256.0995,200.7004 255.2796,201.4436 254.3908,202.1028 253.4416,202.6717 252.4412,203.1448 251.3993,203.5176 250.3259,203.7865 249.2313,203.9489 248.126,204.0032 247.0207,203.9489 245.9261,203.7865 244.8526,203.5176 243.8107,203.1448 242.8104,202.6717 241.8612,202.1028"/>
    <polygon points="240.1524,226.8857 239.4093,226.0658 238.7501,225.177 238.1812,224.2278 237.708,223.2274 237.3352,222.1855 237.0663,221.1121 236.904,220.0175 236.8497,218.9122 236.904,217.8069 237.0663,216.7123 237.3352,215.6389 237.708,214.5969 238.1812,213.5966 238.7501,212.6474 239.4093,211.7586 240.1524,210.9386 240.9724,210.1955 241.8612,209.5363 242.8104,208.9674 243.8107,208.4942 244.8526,208.1214 245.9261,207.8526 247.0207,207.6902 248.126,207.6359 249.2313,207.6902 250.3259,207.8526 251.3993,208.1214 252.4412,208.4942 253.4416,208.9674 254.3908,209.5363 255.2796,210.1955 256.0995,210.9386 256.8427,211.7586 257.5019,212.6474 258.0708,213.5966 258.5439,214.5969 258.9167,215.6389 259.1856,216.7123 259.348,217.8069 259.4023,218.9122 259.348,220.0175 259.1856,221.1121 258.9167,222.1855 258.5439,223.2274 258.0708,224.2278 257.5019,225.177 256.8427,226.0658 256.0995,226.8857 255.2796,227.6289 254.3908,228.2881 253.4416,228.857 252.4412,229.3301 251.3993,229.7029 250.3259,229.9718 249.2313,230.1342 248.126,230.1885 247.0207,230.1342 245.9261,229.9718 244.8526,229.7029 243.8107,229.3301 242.8104,228.857 241.8612,228.2881 240.9724,227.6289"/>
    <polygon points="260.4392,234.2895 258.0736,233.9386 255.685,233.8212 253.2965,233.9386 250.9309,234.2895 248.6111,234.8705 246.3594,235.6762 244.1976,236.6987 242.1464,237.9281 240.2255,239.3527 238.4536,240.9587 236.8476,242.7307 235.423,244.6515 234.1935,246.7027 233.171,248.8646 232.3654,251.1163 231.7843,253.436 231.4334,255.8016 231.3161,258.1902 231.4334,260.5788 231.7843,262.9443 232.3654,265.2641 233.171,267.5158 234.1935,269.6776 235.423,271.7289 236.8476,273.6497 238.4536,275.4217 240.2255,277.0277 242.1464,278.4523 244.1976,279.6817 246.3594,280.7042 248.6111,281.5098 250.9309,282.0909 253.2965,282.4418 255.685,282.5592 258.0736,282.4418 260.4392,282.0909 262.759,281.5098 265.0106,280.7042 267.1725,279.6817 269.2237,278.4523 271.1446,277.0277 272.9165,275.4217 274.5225,273.6497 275.9471,271.7289 277.1766,269.6776 278.199,267.5158 279.0047,265.2641 279.5858,262.9443 279.9367,260.5788 280.054,258.1902 279.9367,255.8016 279.5858,253.436 279.0047,251.1163 278.199,248.8646 277.1766,246.7027 275.9471,244.6515 274.5225,242.7307 272.9165,240.9587 271.1446,239.3527 269.2237,237.9281 267.1725,236.6987 265.0106,235.6762 262.759,234.8705"/>
    <polygon points="270.0243,216.0222 270.3682,215.7105 270.6799,215.3665 270.9565,214.9937 271.1951,214.5956 271.3935,214.1759 271.5499,213.7389 271.6627,213.2886 271.7308,212.8295 271.7536,212.3659 271.7308,211.9022 271.6627,211.4431 271.5499,210.9928 271.3935,210.5558 271.1951,210.1362 270.9565,209.738 270.6799,209.3652 270.3682,209.0213 270.0243,208.7095 269.6515,208.433 269.2533,208.1944 268.8337,207.9959 268.3967,207.8396 267.9464,207.7268 267.4872,207.6587 267.0236,207.6359 266.56,207.6587 266.1009,207.7268 265.6506,207.8396 265.2135,207.9959 264.7939,208.1944 264.3958,208.433 264.023,208.7095 263.679,209.0213 263.3673,209.3652 263.0908,209.738 262.8522,210.1362 262.6537,210.5558 262.4973,210.9928 262.3845,211.4431 262.3164,211.9022 262.2936,212.3659 262.3164,212.8295 262.3845,213.2886 262.4973,213.7389 262.6537,214.1759 262.8522,214.5956 263.0908,214.9937 263.3673,215.3665 263.679,215.7105 264.023,216.0222 264.3958,216.2987 264.7939,216.5373 265.2135,216.7358 265.6506,216.8922 266.1009,217.0049 266.56,217.0731 267.0236,217.0958 267.4872,217.0731 267.9464,217.0049 268.3967,216.8922 268.8337,216.7358 269.2533,216.5373 269.6515,216.2987"/>
    <polygon points="283.0013,206.7423 283.0694,206.2831 283.0922,205.8195 283.0694,205.3559 283.0013,204.8968 282.8885,204.4465 282.7321,204.0094 282.5337,203.5898 282.295,203.1917 282.0185,202.8189 281.7068,202.4749 281.3629,202.1632 280.99,201.8867 280.5919,201.6481 280.1723,201.4496 279.7352,201.2932 279.285,201.1804 278.8258,201.1123 278.3622,201.0896 277.8986,201.1123 277.4394,201.1804 276.9892,201.2932 276.5521,201.4496 276.1325,201.6481 275.7344,201.8867 275.3615,202.1632 275.0176,202.4749 274.7059,202.8189 274.4294,203.1917 274.1907,203.5898 273.9923,204.0094 273.8359,204.4465 273.7231,204.8968 273.655,205.3559 273.6322,205.8195 273.655,206.2831 273.7231,206.7423 273.8359,207.1926 273.9923,207.6296 274.1907,208.0492 274.4294,208.4474 274.7059,208.8202 275.0176,209.1641 275.3615,209.4758 275.7344,209.7524 276.1325,209.991 276.5521,210.1894 276.9892,210.3458 277.4394,210.4586 277.8986,210.5267 278.3622,210.5495 278.8258,210.5267 279.285,210.4586 279.7352,210.3458 280.1723,210.1894 280.5919,209.991 280.99,209.7524 281.3629,209.4758 281.7068,209.1641 282.0185,208.8202 282.295,208.4474 282.5337,208.0492 282.7321,207.6296 282.8885,207.1926"/>
    <polygon points="285.3309,201.0833 285.5293,201.5029 285.768,201.901 286.0445,202.2739 286.3562,202.6178 286.7001,202.9295 287.073,203.206 287.4711,203.4447 287.8907,203.6431 288.3277,203.7995 288.778,203.9123 289.2372,203.9804 289.7008,204.0032 290.1644,203.9804 290.6236,203.9123 291.0738,203.7995 291.5109,203.6431 291.9305,203.4447 292.3286,203.206 292.7015,202.9295 293.0454,202.6178 293.3571,202.2739 293.6336,201.901 293.8723,201.5029 294.0707,201.0833 294.2271,200.6462 294.3399,200.196 294.408,199.7368 294.4308,199.2732 294.408,198.8096 294.3399,198.3504 294.2271,197.9002 294.0707,197.4631 293.8723,197.0435 293.6336,196.6454 293.3571,196.2725 293.0454,195.9286 292.7015,195.6169 292.3286,195.3404 291.9305,195.1017 291.5109,194.9033 291.0738,194.7469 290.6236,194.6341 290.1644,194.566 289.7008,194.5432 289.2372,194.566 288.778,194.6341 288.3277,194.7469 287.8907,194.9033 287.4711,195.1017 287.073,195.3404 286.7001,195.6169 286.3562,195.9286 286.0445,196.2725 285.768,196.6454 285.5293,197.0435 285.3309,197.4631 285.1745,197.9002 285.0617,198.3504 284.9936,198.8096 284.9708,199.2732 284.9936,199.7368 285.0617,200.196 285.1745,200.6462"/>
    <polygon points="294.3399,213.2886 294.408,212.8295 294.4308,212.3659 294.408,211.9022 294.3399,211.4431 294.2271,210.9928 294.0707,210.5558 293.8723,210.1362 293.6336,209.738 293.3571,209.3652 293.0454,209.0213 292.7015,208.7095 292.3286,208.433 291.9305,208.1944 291.5109,207.9959 291.0738,207.8396 290.6236,207.7268 290.1644,207.6587 289.7008,207.6359 289.2372,207.6587 288.778,207.7268 288.3277,207.8396 287.8907,207.9959 287.4711,208.1944 287.073,208.433 286.7001,208.7095 286.3562,209.0213 286.0445,209.3652 285.768,209.738 285.5293,210.1362 285.3309,210.5558 285.1745,210.9928 285.0617,211.4431 284.9936,211.9022 284.9708,212.3659 284.9936,212.8295 285.0617,213.2886 285.1745,213.7389 285.3309,214.1759 285.5293,214.5956 285.768,214.9937 286.0445,215.3665 286.3562,215.7105 286.7001,216.0222 287.073,216.2987 287.4711,216.5373 287.8907,216.7358 288.3277,216.8922 288.778,217.0049 289.2372,217.0731 289.7008,217.0958 290.1644,217.0731 290.6236,217.0049 291.0738,216.8922 291.5109,216.7358 291.9305,216.5373 292.3286,216.2987 292.7015,216.0222 293.0454,215.7105 293.3571,215.3665 293.6336,214.9937 293.8723,214.5956 294.0707,214.1759 294.2271,213.7389"/>
    <polygon points="292.375,233.8755 291.2804,234.0379 290.207,234.3068 289.1651,234.6796 288.1647,235.1527 287.2155,235.7216 286.3267,236.3808 285.5068,237.124 284.7636,237.9439 284.1044,238.8327 283.5355,239.7819 283.0624,240.7823 282.6896,241.8242 282.4207,242.8976 282.2583,243.9923 282.204,245.0975 282.2583,246.2028 282.4207,247.2974 282.6896,248.3709 283.0624,249.4128 283.5355,250.4131 284.1044,251.3623 284.7636,252.2511 285.5068,253.0711 286.3267,253.8142 287.2155,254.4734 288.1647,255.0423 289.1651,255.5155 290.207,255.8883 291.2804,256.1572 292.375,256.3195 293.4803,256.3738 294.5856,256.3195 295.6802,256.1572 296.7537,255.8883 297.7956,255.5155 298.7959,255.0423 299.7451,254.4734 300.6339,253.8142 301.4539,253.0711 302.197,252.2511 302.8562,251.3623 303.4251,250.4131 303.8983,249.4128 304.2711,248.3709 304.54,247.2974 304.7023,246.2028 304.7566,245.0975 304.7023,243.9923 304.54,242.8976 304.2711,241.8242 303.8983,240.7823 303.4251,239.7819 302.8562,238.8327 302.197,237.9439 301.4539,237.124 300.6339,236.3808 299.7451,235.7216 298.7959,235.1527 297.7956,234.6796 296.7537,234.3068 295.6802,234.0379 294.5856,233.8755 293.4803,233.8212"/>
    <polygon points="307.6708,239.0148 307.7389,239.474 307.8517,239.9242 308.008,240.3613 308.2065,240.7809 308.4451,241.179 308.7216,241.5519 309.0334,241.8958 309.3773,242.2075 309.7501,242.484 310.1483,242.7227 310.5679,242.9211 311.0049,243.0775 311.4552,243.1903 311.9143,243.2584 312.378,243.2812 312.8416,243.2584 313.3007,243.1903 313.751,243.0775 314.188,242.9211 314.6076,242.7227 315.0058,242.484 315.3786,242.2075 315.7225,241.8958 316.0343,241.5519 316.3108,241.179 316.5494,240.7809 316.7479,240.3613 316.9043,239.9242 317.017,239.474 317.0851,239.0148 317.1079,238.5512 317.0851,238.0876 317.017,237.6284 316.9043,237.1782 316.7479,236.7411 316.5494,236.3215 316.3108,235.9234 316.0343,235.5505 315.7225,235.2066 315.3786,234.8949 315.0058,234.6184 314.6076,234.3797 314.188,234.1813 313.751,234.0249 313.3007,233.9121 312.8416,233.844 312.378,233.8212 311.9143,233.844 311.4552,233.9121 311.0049,234.0249 310.5679,234.1813 310.1483,234.3797 309.7501,234.6184 309.3773,234.8949 309.0334,235.2066 308.7216,235.5505 308.4451,235.9234 308.2065,236.3215 308.008,236.7411 307.8517,237.1782 307.7389,237.6284 307.6708,238.0876 307.648,238.5512"/>
    <polygon points="321.0887,241.1647 320.7159,241.4412 320.3719,241.7529 320.0602,242.0969 319.7837,242.4697 319.5451,242.8678 319.3466,243.2874 319.1902,243.7245 319.0774,244.1748 319.0093,244.6339 318.9866,245.0975 319.0093,245.5611 319.0774,246.0203 319.1902,246.4706 319.3466,246.9076 319.5451,247.3272 319.7837,247.7254 320.0602,248.0982 320.3719,248.4421 320.7159,248.7538 321.0887,249.0304 321.4868,249.269 321.9065,249.4675 322.3435,249.6238 322.7938,249.7366 323.2529,249.8047 323.7165,249.8275 324.1802,249.8047 324.6393,249.7366 325.0896,249.6238 325.5266,249.4675 325.9462,249.269 326.3444,249.0304 326.7172,248.7538 327.0611,248.4421 327.3729,248.0982 327.6494,247.7254 327.888,247.3272 328.0865,246.9076 328.2428,246.4706 328.3556,246.0203 328.4237,245.5611 328.4465,245.0975 328.4237,244.6339 328.3556,244.1748 328.2428,243.7245 328.0865,243.2874 327.888,242.8678 327.6494,242.4697 327.3729,242.0969 327.0611,241.7529 326.7172,241.4412 326.3444,241.1647 325.9462,240.9261 325.5266,240.7276 325.0896,240.5712 324.6393,240.4584 324.1802,240.3903 323.7165,240.3676 323.2529,240.3903 322.7938,240.4584 322.3435,240.5712 321.9065,240.7276 321.4868,240.9261"/>
    <polygon points="332.0545,247.9875 331.7105,248.2993 331.3988,248.6432 331.1223,249.016 330.8837,249.4142 330.6852,249.8338 330.5288,250.2708 330.416,250.7211 330.3479,251.1802 330.3251,251.6439 330.3479,252.1075 330.416,252.5666 330.5288,253.0169 330.6852,253.4539 330.8837,253.8736 331.1223,254.2717 331.3988,254.6445 331.7105,254.9885 332.0545,255.3002 332.4273,255.5767 332.8254,255.8153 333.245,256.0138 333.6821,256.1702 334.1323,256.2829 334.5915,256.3511 335.0551,256.3738 335.5187,256.3511 335.9779,256.2829 336.4282,256.1702 336.8652,256.0138 337.2848,255.8153 337.683,255.5767 338.0558,255.3002 338.3997,254.9885 338.7114,254.6445 338.9879,254.2717 339.2266,253.8736 339.425,253.4539 339.5814,253.0169 339.6942,252.5666 339.7623,252.1075 339.7851,251.6439 339.7623,251.1802 339.6942,250.7211 339.5814,250.2708 339.425,249.8338 339.2266,249.4142 338.9879,249.016 338.7114,248.6432 338.3997,248.2993 338.0558,247.9875 337.683,247.711 337.2848,247.4724 336.8652,247.2739 336.4282,247.1176 335.9779,247.0048 335.5187,246.9367 335.0551,246.9139 334.5915,246.9367 334.1323,247.0048 333.6821,247.1176 333.245,247.2739 332.8254,247.4724 332.4273,247.711"/>
    <polygon points="338.3997,261.3919 338.0558,261.0802 337.683,260.8037 337.2848,260.5651 336.8652,260.3666 336.4282,260.2102 335.9779,260.0974 335.5187,260.0293 335.0551,260.0066 334.5915,260.0293 334.1323,260.0974 333.6821,260.2102 333.245,260.3666 332.8254,260.5651 332.4273,260.8037 332.0545,261.0802 331.7105,261.3919 331.3988,261.7359 331.1223,262.1087 330.8837,262.5068 330.6852,262.9264 330.5288,263.3635 330.416,263.8138 330.3479,264.2729 330.3251,264.7365 330.3479,265.2001 330.416,265.6593 330.5288,266.1096 330.6852,266.5466 330.8837,266.9662 331.1223,267.3644 331.3988,267.7372 331.7105,268.0811 332.0545,268.3928 332.4273,268.6694 332.8254,268.908 333.245,269.1065 333.6821,269.2628 334.1323,269.3756 334.5915,269.4437 335.0551,269.4665 335.5187,269.4437 335.9779,269.3756 336.4282,269.2628 336.8652,269.1065 337.2848,268.908 337.683,268.6694 338.0558,268.3928 338.3997,268.0811 338.7114,267.7372 338.9879,267.3644 339.2266,266.9662 339.425,266.5466 339.5814,266.1096 339.6942,265.6593 339.7623,265.2001 339.7851,264.7365 339.7623,264.2729 339.6942,263.8138 339.5814,263.3635 339.425,262.9264 339.2266,262.5068 338.9879,262.1087 338.7114,261.7359"/>
    <polygon points="312.378,256.3738 312.8416,256.3511 313.3007,256.2829 313.751,256.1702 314.188,256.0138 314.6076,255.8153 315.0058,255.5767 315.3786,255.3002 315.7225,254.9885 316.0343,254.6445 316.3108,254.2717 316.5494,253.8736 316.7479,253.4539 316.9043,253.0169 317.017,252.5666 317.0851,252.1075 317.1079,251.6439 317.0851,251.1802 317.017,250.7211 316.9043,250.2708 316.7479,249.8338 316.5494,249.4142 316.3108,249.016 316.0343,248.6432 315.7225,248.2993 315.3786,247.9875 315.0058,247.711 314.6076,247.4724 314.188,247.2739 313.751,247.1176 313.3007,247.0048 312.8416,246.9367 312.378,246.9139 311.9143,246.9367 311.4552,247.0048 311.0049,247.1176 310.5679,247.2739 310.1483,247.4724 309.7501,247.711 309.3773,247.9875 309.0334,248.2993 308.7216,248.6432 308.4451,249.016 308.2065,249.4142 308.008,249.8338 307.8517,250.2708 307.7389,250.7211 307.6708,251.1802 307.648,251.6439 307.6708,252.1075 307.7389,252.5666 307.8517,253.0169 308.008,253.4539 308.2065,253.8736 308.4451,254.2717 308.7216,254.6445 309.0334,254.9885 309.3773,255.3002 309.7501,255.5767 310.1483,255.8153 310.5679,256.0138 311.0049,256.1702 311.4552,256.2829 311.9143,256.3511"/>
    <polygon points="312.8416,269.4437 313.3007,269.3756 313.751,269.2628 314.188,269.1065 314.6076,268.908 315.0058,268.6694 315.3786,268.3928 315.7225,268.0811 316.0343,267.7372 316.3108,267.3644 316.5494,266.9662 316.7479,266.5466 316.9043,266.1096 317.017,265.6593 317.0851,265.2001 317.1079,264.7365 317.0851,264.2729 317.017,263.8138 316.9043,263.3635 316.7479,262.9264 316.5494,262.5068 316.3108,262.1087 316.0343,261.7359 315.7225,261.3919 315.3786,261.0802 315.0058,260.8037 314.6076,260.5651 314.188,260.3666 313.751,260.2102 313.3007,260.0974 312.8416,260.0293 312.378,260.0066 311.9143,260.0293 311.4552,260.0974 311.0049,260.2102 310.5679,260.3666 310.1483,260.5651 309.7501,260.8037 309.3773,261.0802 309.0334,261.3919 308.7216,261.7359 308.4451,262.1087 308.2065,262.5068 308.008,262.9264 307.8517,263.3635 307.7389,263.8138 307.6708,264.2729 307.648,264.7365 307.6708,265.2001 307.7389,265.6593 307.8517,266.1096 308.008,266.5466 308.2065,266.9662 308.4451,267.3644 308.7216,267.7372 309.0334,268.0811 309.3773,268.3928 309.7501,268.6694 310.1483,268.908 310.5679,269.1065 311.0049,269.2628 311.4552,269.3756 311.9143,269.4437 312.378,269.4665"/>
    <polygon points="303.8983,275.5981 303.4251,276.5985 302.8562,277.5476 302.197,278.4365 301.4539,279.2564 300.6339,279.9996 299.7451,280.6588 298.7959,281.2277 297.7956,281.7008 296.7537,282.0736 295.6802,282.3425 294.5856,282.5049 293.4803,282.5592 292.375,282.5049 291.2804,282.3425 290.207,282.0736 289.1651,281.7008 288.1647,281.2277 287.2155,280.6588 286.3267,279.9996 285.5068,279.2564 284.7636,278.4365 284.1044,277.5476 283.5355,276.5985 283.0624,275.5981 282.6896,274.5562 282.4207,273.4828 282.2583,272.3881 282.204,271.2829 282.2583,270.1776 282.4207,269.083 282.6896,268.0095 283.0624,266.9676 283.5355,265.9672 284.1044,265.0181 284.7636,264.1292 285.5068,263.3093 286.3267,262.5662 287.2155,261.907 288.1647,261.338 289.1651,260.8649 290.207,260.4921 291.2804,260.2232 292.375,260.0609 293.4803,260.0066 294.5856,260.0609 295.6802,260.2232 296.7537,260.4921 297.7956,260.8649 298.7959,261.338 299.7451,261.907 300.6339,262.5662 301.4539,263.3093 302.197,264.1292 302.8562,265.0181 303.4251,265.9672 303.8983,266.9676 304.2711,268.0095 304.54,269.083 304.7023,270.1776 304.7566,271.2829 304.7023,272.3881 304.54,273.4828 304.2711,274.5562"/>
    <polygon points="307.7389,278.752 307.6708,278.2928 307.648,277.8292 307.6708,277.3656 307.7389,276.9064 307.8517,276.4562 308.008,276.0191 308.2065,275.5995 308.4451,275.2014 308.7216,274.8285 309.0334,274.4846 309.3773,274.1729 309.7501,273.8964 310.1483,273.6577 310.5679,273.4593 311.0049,273.3029 311.4552,273.1901 311.9143,273.122 312.378,273.0992 312.8416,273.122 313.3007,273.1901 313.751,273.3029 314.188,273.4593 314.6076,273.6577 315.0058,273.8964 315.3786,274.1729 315.7225,274.4846 316.0343,274.8285 316.3108,275.2014 316.5494,275.5995 316.7479,276.0191 316.9043,276.4562 317.017,276.9064 317.0851,277.3656 317.1079,277.8292 317.0851,278.2928 317.017,278.752 316.9043,279.2022 316.7479,279.6393 316.5494,280.0589 316.3108,280.457 316.0343,280.8299 315.7225,281.1738 315.3786,281.4855 315.0058,281.762 314.6076,282.0007 314.188,282.1991 313.751,282.3555 313.3007,282.4683 312.8416,282.5364 312.378,282.5592 311.9143,282.5364 311.4552,282.4683 311.0049,282.3555 310.5679,282.1991 310.1483,282.0007 309.7501,281.762 309.3773,281.4855 309.0334,281.1738 308.7216,280.8299 308.4451,280.457 308.2065,280.0589 308.008,279.6393 307.8517,279.2022"/>
    <polygon points="315.0058,286.989 314.6076,286.7504 314.188,286.5519 313.751,286.3956 313.3007,286.2828 312.8416,286.2147 312.378,286.1919 311.9143,286.2147 311.4552,286.2828 311.0049,286.3956 310.5679,286.5519 310.1483,286.7504 309.7501,286.989 309.3773,287.2655 309.0334,287.5773 308.7216,287.9212 308.4451,288.294 308.2065,288.6922 308.008,289.1118 307.8517,289.5488 307.7389,289.9991 307.6708,290.4582 307.648,290.9219 307.6708,291.3855 307.7389,291.8446 307.8517,292.2949 308.008,292.7319 308.2065,293.1516 308.4451,293.5497 308.7216,293.9225 309.0334,294.2665 309.3773,294.5782 309.7501,294.8547 310.1483,295.0933 310.5679,295.2918 311.0049,295.4482 311.4552,295.561 311.9143,295.6291 312.378,295.6518 312.8416,295.6291 313.3007,295.561 313.751,295.4482 314.188,295.2918 314.6076,295.0933 315.0058,294.8547 315.3786,294.5782 315.7225,294.2665 316.0343,293.9225 316.3108,293.5497 316.5494,293.1516 316.7479,292.7319 316.9043,292.2949 317.017,291.8446 317.0851,291.3855 317.1079,290.9219 317.0851,290.4582 317.017,289.9991 316.9043,289.5488 316.7479,289.1118 316.5494,288.6922 316.3108,288.294 316.0343,287.9212 315.7225,287.5773 315.3786,287.2655"/>
    <polygon points="317.1079,304.0145 317.0851,303.5509 317.017,303.0918 316.9043,302.6415 316.7479,302.2044 316.5494,301.7848 316.3108,301.3867 316.0343,301.0139 315.7225,300.6699 315.3786,300.3582 315.0058,300.0817 314.6076,299.8431 314.188,299.6446 313.751,299.4882 313.3007,299.3754 312.8416,299.3073 312.378,299.2846 311.9143,299.3073 311.4552,299.3754 311.0049,299.4882 310.5679,299.6446 310.1483,299.8431 309.7501,300.0817 309.3773,300.3582 309.0334,300.6699 308.7216,301.0139 308.4451,301.3867 308.2065,301.7848 308.008,302.2044 307.8517,302.6415 307.7389,303.0918 307.6708,303.5509 307.648,304.0145 307.6708,304.4781 307.7389,304.9373 307.8517,305.3876 308.008,305.8246 308.2065,306.2442 308.4451,306.6424 308.7216,307.0152 309.0334,307.3591 309.3773,307.6708 309.7501,307.9474 310.1483,308.186 310.5679,308.3845 311.0049,308.5408 311.4552,308.6536 311.9143,308.7217 312.378,308.7445 312.8416,308.7217 313.3007,308.6536 313.751,308.5408 314.188,308.3845 314.6076,308.186 315.0058,307.9474 315.3786,307.6708 315.7225,307.3591 316.0343,307.0152 316.3108,306.6424 316.5494,306.2442 316.7479,305.8246 316.9043,305.3876 317.017,304.9373 317.0851,304.4781"/>
    <polygon points="290.1644,295.6291 290.6236,295.561 291.0738,295.4482 291.5109,295.2918 291.9305,295.0933 292.3286,294.8547 292.7015,294.5782 293.0454,294.2665 293.3571,293.9225 293.6336,293.5497 293.8723,293.1516 294.0707,292.7319 294.2271,292.2949 294.3399,291.8446 294.408,291.3855 294.4308,290.9219 294.408,290.4582 294.3399,289.9991 294.2271,289.5488 294.0707,289.1118 293.8723,288.6922 293.6336,288.294 293.3571,287.9212 293.0454,287.5773 292.7015,287.2655 292.3286,286.989 291.9305,286.7504 291.5109,286.5519 291.0738,286.3956 290.6236,286.2828 290.1644,286.2147 289.7008,286.1919 289.2372,286.2147 288.778,286.2828 288.3277,286.3956 287.8907,286.5519 287.4711,286.7504 287.073,286.989 286.7001,287.2655 286.3562,287.5773 286.0445,287.9212 285.768,288.294 285.5293,288.6922 285.3309,289.1118 285.1745,289.5488 285.0617,289.9991 284.9936,290.4582 284.9708,290.9219 284.9936,291.3855 285.0617,291.8446 285.1745,292.2949 285.3309,292.7319 285.5293,293.1516 285.768,293.5497 286.0445,293.9225 286.3562,294.2665 286.7001,294.5782 287.073,294.8547 287.4711,295.0933 287.8907,295.2918 288.3277,295.4482 288.778,295.561 289.2372,295.6291 289.7008,295.6518"/>
    <polygon points="244.1976,289.0693 242.1464,290.2988 240.2255,291.7234 238.4536,293.3294 236.8476,295.1014 235.423,297.0222 234.1935,299.0734 233.171,301.2353 232.3654,303.4869 231.7843,305.8067 231.4334,308.1723 231.3161,310.5609 231.4334,312.9494 231.7843,315.315 232.3654,317.6348 233.171,319.8865 234.1935,322.0483 235.423,324.0995 236.8476,326.0204 238.4536,327.7923 240.2255,329.3983 242.1464,330.8229 244.1976,332.0524 246.3594,333.0749 248.6111,333.8805 250.9309,334.4616 253.2965,334.8125 255.685,334.9298 258.0736,334.8125 260.4392,334.4616 262.759,333.8805 265.0106,333.0749 267.1725,332.0524 269.2237,330.8229 271.1446,329.3983 272.9165,327.7923 274.5225,326.0204 275.9471,324.0995 277.1766,322.0483 278.199,319.8865 279.0047,317.6348 279.5858,315.315 279.9367,312.9494 280.054,310.5609 279.9367,308.1723 279.5858,305.8067 279.0047,303.4869 278.199,301.2353 277.1766,299.0734 275.9471,297.0222 274.5225,295.1014 272.9165,293.3294 271.1446,291.7234 269.2237,290.2988 267.1725,289.0693 265.0106,288.0469 262.759,287.2412 260.4392,286.6601 258.0736,286.3092 255.685,286.1919 253.2965,286.3092 250.9309,286.6601 248.6111,287.2412 246.3594,288.0469"/>
    <polygon points="216.7321,239.1585 216.0729,238.2696 215.504,237.3205 215.0309,236.3201 214.6581,235.2782 214.3892,234.2048 214.2268,233.1101 214.1725,232.0049 214.2268,230.8996 214.3892,229.805 214.6581,228.7315 215.0309,227.6896 215.504,226.6892 216.0729,225.7401 216.7321,224.8512 217.4753,224.0313 218.2952,223.2882 219.184,222.629 220.1332,222.06 221.1336,221.5869 222.1755,221.2141 223.2489,220.9452 224.3435,220.7829 225.4488,220.7286 226.5541,220.7829 227.6487,220.9452 228.7222,221.2141 229.7641,221.5869 230.7644,222.06 231.7136,222.629 232.6024,223.2882 233.4224,224.0313 234.1655,224.8512 234.8247,225.7401 235.3936,226.6892 235.8668,227.6896 236.2396,228.7315 236.5085,229.805 236.6708,230.8996 236.7251,232.0049 236.6708,233.1101 236.5085,234.2048 236.2396,235.2782 235.8668,236.3201 235.3936,237.3205 234.8247,238.2696 234.1655,239.1585 233.4224,239.9784 232.6024,240.7216 231.7136,241.3808 230.7644,241.9497 229.7641,242.4228 228.7222,242.7956 227.6487,243.0645 226.5541,243.2269 225.4488,243.2812 224.3435,243.2269 223.2489,243.0645 222.1755,242.7956 221.1336,242.4228 220.1332,241.9497 219.184,241.3808 218.2952,240.7216 217.4753,239.9784"/>
    <polygon points="213.3314,241.4412 213.6753,241.7529 213.987,242.0969 214.2635,242.4697 214.5022,242.8678 214.7006,243.2874 214.857,243.7245 214.9698,244.1748 215.0379,244.6339 215.0607,245.0975 215.0379,245.5611 214.9698,246.0203 214.857,246.4706 214.7006,246.9076 214.5022,247.3272 214.2635,247.7254 213.987,248.0982 213.6753,248.4421 213.3314,248.7538 212.9585,249.0304 212.5604,249.269 212.1408,249.4675 211.7037,249.6238 211.2535,249.7366 210.7943,249.8047 210.3307,249.8275 209.8671,249.8047 209.4079,249.7366 208.9577,249.6238 208.5206,249.4675 208.101,249.269 207.7029,249.0304 207.33,248.7538 206.9861,248.4421 206.6744,248.0982 206.3979,247.7254 206.1592,247.3272 205.9608,246.9076 205.8044,246.4706 205.6916,246.0203 205.6235,245.5611 205.6007,245.0975 205.6235,244.6339 205.6916,244.1748 205.8044,243.7245 205.9608,243.2874 206.1592,242.8678 206.3979,242.4697 206.6744,242.0969 206.9861,241.7529 207.33,241.4412 207.7029,241.1647 208.101,240.9261 208.5206,240.7276 208.9577,240.5712 209.4079,240.4584 209.8671,240.3903 210.3307,240.3676 210.7943,240.3903 211.2535,240.4584 211.7037,240.5712 212.1408,240.7276 212.5604,240.9261 212.9585,241.1647"/>
    <polygon points="186.43,289.1297 187.0111,291.4495 187.8167,293.7011 188.8392,295.863 190.0686,297.9142 191.4932,299.835 193.0992,301.607 194.8712,303.213 196.792,304.6376 198.8433,305.867 201.0051,306.8895 203.2568,307.6952 205.5766,308.2763 207.9421,308.6272 210.3307,308.7445 212.7193,308.6272 215.0849,308.2763 217.4046,307.6952 219.6563,306.8895 221.8182,305.867 223.8694,304.6376 225.7902,303.213 227.5622,301.607 229.1682,299.835 230.5928,297.9142 231.8222,295.863 232.8447,293.7011 233.6504,291.4495 234.2314,289.1297 234.5823,286.7641 234.6997,284.3755 234.5823,281.987 234.2314,279.6214 233.6504,277.3016 232.8447,275.0499 231.8222,272.8881 230.5928,270.8369 229.1682,268.916 227.5622,267.1441 225.7902,265.5381 223.8694,264.1135 221.8182,262.884 219.6563,261.8615 217.4046,261.0559 215.0849,260.4748 212.7193,260.1239 210.3307,260.0066 207.9421,260.1239 205.5766,260.4748 203.2568,261.0559 201.0051,261.8615 198.8433,262.884 196.792,264.1135 194.8712,265.5381 193.0992,267.1441 191.4932,268.916 190.0686,270.8369 188.8392,272.8881 187.8167,275.0499 187.0111,277.3016 186.43,279.6214 186.0791,281.987 185.9617,284.3755 186.0791,286.7641"/>
    <polygon points="135.5997,224.5358 135.6678,224.9949 135.6906,225.4585 135.6678,225.9221 135.5997,226.3813 135.4869,226.8316 135.3306,227.2686 135.1321,227.6882 134.8935,228.0864 134.6169,228.4592 134.3052,228.8031 133.9613,229.1148 133.5885,229.3914 133.1903,229.63 132.7707,229.8285 132.3337,229.9848 131.8834,230.0976 131.4242,230.1657 130.9606,230.1885 130.497,230.1657 130.0379,230.0976 129.5876,229.9848 129.1505,229.8285 128.7309,229.63 128.3328,229.3914 127.96,229.1148 127.616,228.8031 127.3043,228.4592 127.0278,228.0864 126.7892,227.6882 126.5907,227.2686 126.4343,226.8316 126.3215,226.3813 126.2534,225.9221 126.2307,225.4585 126.2534,224.9949 126.3215,224.5358 126.4343,224.0855 126.5907,223.6484 126.7892,223.2288 127.0278,222.8307 127.3043,222.4579 127.616,222.1139 127.96,221.8022 128.3328,221.5257 128.7309,221.2871 129.1505,221.0886 129.5876,220.9322 130.0379,220.8194 130.497,220.7513 130.9606,220.7286 131.4242,220.7513 131.8834,220.8194 132.3337,220.9322 132.7707,221.0886 133.1903,221.2871 133.5885,221.5257 133.9613,221.8022 134.3052,222.1139 134.6169,222.4579 134.8935,222.8307 135.1321,223.2288 135.3306,223.6484 135.4869,224.0855"/>
    <polygon points="124.1483,230.6318 124.2611,231.0821 124.3292,231.5412 124.352,232.0049 124.3292,232.4685 124.2611,232.9276 124.1483,233.3779 123.992,233.8149 123.7935,234.2346 123.5549,234.6327 123.2784,235.0055 122.9666,235.3495 122.6227,235.6612 122.2499,235.9377 121.8517,236.1763 121.4321,236.3748 120.9951,236.5312 120.5448,236.6439 120.0857,236.7121 119.622,236.7348 119.1584,236.7121 118.6993,236.6439 118.249,236.5312 117.812,236.3748 117.3924,236.1763 116.9942,235.9377 116.6214,235.6612 116.2775,235.3495 115.9657,235.0055 115.6892,234.6327 115.4506,234.2346 115.2521,233.8149 115.0957,233.3779 114.983,232.9276 114.9149,232.4685 114.8921,232.0049 114.9149,231.5412 114.983,231.0821 115.0957,230.6318 115.2521,230.1948 115.4506,229.7752 115.6892,229.377 115.9657,229.0042 116.2775,228.6603 116.6214,228.3485 116.9942,228.072 117.3924,227.8334 117.812,227.6349 118.249,227.4786 118.6993,227.3658 119.1584,227.2977 119.622,227.2749 120.0857,227.2977 120.5448,227.3658 120.9951,227.4786 121.4321,227.6349 121.8517,227.8334 122.2499,228.072 122.6227,228.3485 122.9666,228.6603 123.2784,229.0042 123.5549,229.377 123.7935,229.7752 123.992,230.1948"/>
    <polygon points="134.3052,241.8958 133.9613,242.2075 133.5885,242.484 133.1903,242.7227 132.7707,242.9211 132.3337,243.0775 131.8834,243.1903 131.4242,243.2584 130.9606,243.2812 130.497,243.2584 130.0379,243.1903 129.5876,243.0775 129.1505,242.9211 128.7309,242.7227 128.3328,242.484 127.96,242.2075 127.616,241.8958 127.3043,241.5519 127.0278,241.179 126.7892,240.7809 126.5907,240.3613 126.4343,239.9242 126.3215,239.474 126.2534,239.0148 126.2307,238.5512 126.2534,238.0876 126.3215,237.6284 126.4343,237.1782 126.5907,236.7411 126.7892,236.3215 127.0278,235.9234 127.3043,235.5505 127.616,235.2066 127.96,234.8949 128.3328,234.6184 128.7309,234.3797 129.1505,234.1813 129.5876,234.0249 130.0379,233.9121 130.497,233.844 130.9606,233.8212 131.4242,233.844 131.8834,233.9121 132.3337,234.0249 132.7707,234.1813 133.1903,234.3797 133.5885,234.6184 133.9613,234.8949 134.3052,235.2066 134.6169,235.5505 134.8935,235.9234 135.1321,236.3215 135.3306,236.7411 135.4869,237.1782 135.5997,237.6284 135.6678,238.0876 135.6906,238.5512 135.6678,239.0148 135.5997,239.474 135.4869,239.9242 135.3306,240.3613 135.1321,240.7809 134.8935,241.179 134.6169,241.5519"/>
    <polygon points="123.2784,248.0982 122.9666,248.4421 122.6227,248.7538 122.2499,249.0304 121.8517,249.269 121.4321,249.4675 120.9951,249.6238 120.5448,249.7366 120.0857,249.8047 119.622,249.8275 119.1584,249.8047 118.6993,249.7366 118.249,249.6238 117.812,249.4675 117.3924,249.269 116.9942,249.0304 116.6214,248.7538 116.2775,248.4421 115.9657,248.0982 115.6892,247.7254 115.4506,247.3272 115.2521,246.9076 115.0957,246.4706 114.983,246.0203 114.9149,245.5611 114.8921,245.0975 114.9149,244.6339 114.983,244.1748 115.0957,243.7245 115.2521,243.2874 115.4506,242.8678 115.6892,242.4697 115.9657,242.0969 116.2775,241.7529 116.6214,241.4412 116.9942,241.1647 117.3924,240.9261 117.812,240.7276 118.249,240.5712 118.6993,240.4584 119.1584,240.3903 119.622,240.3676 120.0857,240.3903 120.5448,240.4584 120.9951,240.5712 121.4321,240.7276 121.8517,240.9261 122.2499,241.1647 122.6227,241.4412 122.9666,241.7529 123.2784,242.0969 123.5549,242.4697 123.7935,242.8678 123.992,243.2874 124.1483,243.7245 124.2611,244.1748 124.3292,244.6339 124.352,245.0975 124.3292,245.5611 124.2611,246.0203 124.1483,246.4706 123.992,246.9076 123.7935,247.3272 123.5549,247.7254"/>
    <polygon points="107.8198,246.9367 107.3607,247.0048 106.9104,247.1176 106.4734,247.2739 106.0538,247.4724 105.6556,247.711 105.2828,247.9875 104.9389,248.2993 104.6271,248.6432 104.3506,249.016 104.112,249.4142 103.9135,249.8338 103.7572,250.2708 103.6444,250.7211 103.5763,251.1802 103.5535,251.6439 103.5763,252.1075 103.6444,252.5666 103.7572,253.0169 103.9135,253.4539 104.112,253.8736 104.3506,254.2717 104.6271,254.6445 104.9389,254.9885 105.2828,255.3002 105.6556,255.5767 106.0538,255.8153 106.4734,256.0138 106.9104,256.1702 107.3607,256.2829 107.8198,256.3511 108.2835,256.3738 108.7471,256.3511 109.2062,256.2829 109.6565,256.1702 110.0935,256.0138 110.5132,255.8153 110.9113,255.5767 111.2841,255.3002 111.6281,254.9885 111.9398,254.6445 112.2163,254.2717 112.4549,253.8736 112.6534,253.4539 112.8098,253.0169 112.9226,252.5666 112.9907,252.1075 113.0134,251.6439 112.9907,251.1802 112.9226,250.7211 112.8098,250.2708 112.6534,249.8338 112.4549,249.4142 112.2163,249.016 111.9398,248.6432 111.6281,248.2993 111.2841,247.9875 110.9113,247.711 110.5132,247.4724 110.0935,247.2739 109.6565,247.1176 109.2062,247.0048 108.7471,246.9367 108.2835,246.9139"/>
    <polygon points="103.5535,238.5512 103.5763,239.0148 103.6444,239.474 103.7572,239.9242 103.9135,240.3613 104.112,240.7809 104.3506,241.179 104.6271,241.5519 104.9389,241.8958 105.2828,242.2075 105.6556,242.484 106.0538,242.7227 106.4734,242.9211 106.9104,243.0775 107.3607,243.1903 107.8198,243.2584 108.2835,243.2812 108.7471,243.2584 109.2062,243.1903 109.6565,243.0775 110.0935,242.9211 110.5132,242.7227 110.9113,242.484 111.2841,242.2075 111.6281,241.8958 111.9398,241.5519 112.2163,241.179 112.4549,240.7809 112.6534,240.3613 112.8098,239.9242 112.9226,239.474 112.9907,239.0148 113.0134,238.5512 112.9907,238.0876 112.9226,237.6284 112.8098,237.1782 112.6534,236.7411 112.4549,236.3215 112.2163,235.9234 111.9398,235.5505 111.6281,235.2066 111.2841,234.8949 110.9113,234.6184 110.5132,234.3797 110.0935,234.1813 109.6565,234.0249 109.2062,233.9121 108.7471,233.844 108.2835,233.8212 107.8198,233.844 107.3607,233.9121 106.9104,234.0249 106.4734,234.1813 106.0538,234.3797 105.6556,234.6184 105.2828,234.8949 104.9389,235.2066 104.6271,235.5505 104.3506,235.9234 104.112,236.3215 103.9135,236.7411 103.7572,237.1782 103.6444,237.6284 103.5763,238.0876"/>
    <polygon points="98.755,240.7276 98.3179,240.5712 97.8677,240.4584 97.4085,240.3903 96.9449,240.3676 96.4813,240.3903 96.0221,240.4584 95.5718,240.5712 95.1348,240.7276 94.7152,240.9261 94.317,241.1647 93.9442,241.4412 93.6003,241.7529 93.2886,242.0969 93.0121,242.4697 92.7734,242.8678 92.575,243.2874 92.4186,243.7245 92.3058,244.1748 92.2377,244.6339 92.2149,245.0975 92.2377,245.5611 92.3058,246.0203 92.4186,246.4706 92.575,246.9076 92.7734,247.3272 93.0121,247.7254 93.2886,248.0982 93.6003,248.4421 93.9442,248.7538 94.317,249.0304 94.7152,249.269 95.1348,249.4675 95.5718,249.6238 96.0221,249.7366 96.4813,249.8047 96.9449,249.8275 97.4085,249.8047 97.8677,249.7366 98.3179,249.6238 98.755,249.4675 99.1746,249.269 99.5727,249.0304 99.9455,248.7538 100.2895,248.4421 100.6012,248.0982 100.8777,247.7254 101.1163,247.3272 101.3148,246.9076 101.4712,246.4706 101.584,246.0203 101.6521,245.5611 101.6749,245.0975 101.6521,244.6339 101.584,244.1748 101.4712,243.7245 101.3148,243.2874 101.1163,242.8678 100.8777,242.4697 100.6012,242.0969 100.2895,241.7529 99.9455,241.4412 99.5727,241.1647 99.1746,240.9261"/>
    <polygon points="106.9104,269.2628 106.4734,269.1065 106.0538,268.908 105.6556,268.6694 105.2828,268.3928 104.9389,268.0811 104.6271,267.7372 104.3506,267.3644 104.112,266.9662 103.9135,266.5466 103.7572,266.1096 103.6444,265.6593 103.5763,265.2001 103.5535,264.7365 103.5763,264.2729 103.6444,263.8138 103.7572,263.3635 103.9135,262.9264 104.112,262.5068 104.3506,262.1087 104.6271,261.7359 104.9389,261.3919 105.2828,261.0802 105.6556,260.8037 106.0538,260.5651 106.4734,260.3666 106.9104,260.2102 107.3607,260.0974 107.8198,260.0293 108.2835,260.0066 108.7471,260.0293 109.2062,260.0974 109.6565,260.2102 110.0935,260.3666 110.5132,260.5651 110.9113,260.8037 111.2841,261.0802 111.6281,261.3919 111.9398,261.7359 112.2163,262.1087 112.4549,262.5068 112.6534,262.9264 112.8098,263.3635 112.9226,263.8138 112.9907,264.2729 113.0134,264.7365 112.9907,265.2001 112.9226,265.6593 112.8098,266.1096 112.6534,266.5466 112.4549,266.9662 112.2163,267.3644 111.9398,267.7372 111.6281,268.0811 111.2841,268.3928 110.9113,268.6694 110.5132,268.908 110.0935,269.1065 109.6565,269.2628 109.2062,269.3756 108.7471,269.4437 108.2835,269.4665 107.8198,269.4437 107.3607,269.3756"/>
    <polygon points="115.2521,273.0929 115.0957,272.6559 114.983,272.2056 114.9149,271.7465 114.8921,271.2829 114.9149,270.8192 114.983,270.3601 115.0957,269.9098 115.2521,269.4728 115.4506,269.0532 115.6892,268.655 115.9657,268.2822 116.2775,267.9383 116.6214,267.6265 116.9942,267.35 117.3924,267.1114 117.812,266.9129 118.249,266.7566 118.6993,266.6438 119.1584,266.5757 119.622,266.5529 120.0857,266.5757 120.5448,266.6438 120.9951,266.7566 121.4321,266.9129 121.8517,267.1114 122.2499,267.35 122.6227,267.6265 122.9666,267.9383 123.2784,268.2822 123.5549,268.655 123.7935,269.0532 123.992,269.4728 124.1483,269.9098 124.2611,270.3601 124.3292,270.8192 124.352,271.2829 124.3292,271.7465 124.2611,272.2056 124.1483,272.6559 123.992,273.0929 123.7935,273.5126 123.5549,273.9107 123.2784,274.2835 122.9666,274.6275 122.6227,274.9392 122.2499,275.2157 121.8517,275.4543 121.4321,275.6528 120.9951,275.8092 120.5448,275.9219 120.0857,275.9901 119.622,276.0128 119.1584,275.9901 118.6993,275.9219 118.249,275.8092 117.812,275.6528 117.3924,275.4543 116.9942,275.2157 116.6214,274.9392 116.2775,274.6275 115.9657,274.2835 115.6892,273.9107 115.4506,273.5126"/>
    <polygon points="124.3222,262.5054 123.9494,261.4635 123.6805,260.3901 123.5181,259.2955 123.4639,258.1902 123.5181,257.0849 123.6805,255.9903 123.9494,254.9169 124.3222,253.8749 124.7953,252.8746 125.3643,251.9254 126.0235,251.0366 126.7666,250.2166 127.5865,249.4735 128.4754,248.8143 129.4245,248.2454 130.4249,247.7722 131.4668,247.3994 132.5403,247.1306 133.6349,246.9682 134.7402,246.9139 135.8454,246.9682 136.9401,247.1306 138.0135,247.3994 139.0554,247.7722 140.0558,248.2454 141.0049,248.8143 141.8938,249.4735 142.7137,250.2166 143.4569,251.0366 144.1161,251.9254 144.685,252.8746 145.1581,253.8749 145.5309,254.9169 145.7998,255.9903 145.9622,257.0849 146.0165,258.1902 145.9622,259.2955 145.7998,260.3901 145.5309,261.4635 145.1581,262.5054 144.685,263.5058 144.1161,264.455 143.4569,265.3438 142.7137,266.1637 141.8938,266.9069 141.0049,267.5661 140.0558,268.135 139.0554,268.6081 138.0135,268.9809 136.9401,269.2498 135.8454,269.4122 134.7402,269.4665 133.6349,269.4122 132.5403,269.2498 131.4668,268.9809 130.4249,268.6081 129.4245,268.135 128.4754,267.5661 127.5865,266.9069 126.7666,266.1637 126.0235,265.3438 125.3643,264.455 124.7953,263.5058"/>
    <polygon points="144.685,279.0599 145.1581,280.0603 145.5309,281.1022 145.7998,282.1756 145.9622,283.2703 146.0165,284.3755 145.9622,285.4808 145.7998,286.5754 145.5309,287.6489 145.1581,288.6908 144.685,289.6911 144.1161,290.6403 143.4569,291.5291 142.7137,292.3491 141.8938,293.0922 141.0049,293.7514 140.0558,294.3203 139.0554,294.7935 138.0135,295.1663 136.9401,295.4352 135.8454,295.5975 134.7402,295.6518 133.6349,295.5975 132.5403,295.4352 131.4668,295.1663 130.4249,294.7935 129.4245,294.3203 128.4754,293.7514 127.5865,293.0922 126.7666,292.3491 126.0235,291.5291 125.3643,290.6403 124.7953,289.6911 124.3222,288.6908 123.9494,287.6489 123.6805,286.5754 123.5181,285.4808 123.4639,284.3755 123.5181,283.2703 123.6805,282.1756 123.9494,281.1022 124.3222,280.0603 124.7953,279.0599 125.3643,278.1107 126.0235,277.2219 126.7666,276.402 127.5865,275.6588 128.4754,274.9996 129.4245,274.4307 130.4249,273.9576 131.4668,273.5848 132.5403,273.3159 133.6349,273.1535 134.7402,273.0992 135.8454,273.1535 136.9401,273.3159 138.0135,273.5848 139.0554,273.9576 140.0558,274.4307 141.0049,274.9996 141.8938,275.6588 142.7137,276.402 143.4569,277.2219 144.1161,278.1107"/>
    <polygon points="151.4377,290.2988 153.4889,289.0693 155.6508,288.0469 157.9024,287.2412 160.2222,286.6601 162.5878,286.3092 164.9764,286.1919 167.365,286.3092 169.7305,286.6601 172.0503,287.2412 174.302,288.0469 176.4638,289.0693 178.5151,290.2988 180.4359,291.7234 182.2078,293.3294 183.8138,295.1014 185.2384,297.0222 186.4679,299.0734 187.4904,301.2353 188.296,303.4869 188.8771,305.8067 189.228,308.1723 189.3454,310.5609 189.228,312.9494 188.8771,315.315 188.296,317.6348 187.4904,319.8865 186.4679,322.0483 185.2384,324.0995 183.8138,326.0204 182.2078,327.7923 180.4359,329.3983 178.5151,330.8229 176.4638,332.0524 174.302,333.0749 172.0503,333.8805 169.7305,334.4616 167.365,334.8125 164.9764,334.9298 162.5878,334.8125 160.2222,334.4616 157.9024,333.8805 155.6508,333.0749 153.4889,332.0524 151.4377,330.8229 149.5169,329.3983 147.7449,327.7923 146.1389,326.0204 144.7143,324.0995 143.4849,322.0483 142.4624,319.8865 141.6567,317.6348 141.0756,315.315 140.7247,312.9494 140.6074,310.5609 140.7247,308.1723 141.0756,305.8067 141.6567,303.4869 142.4624,301.2353 143.4849,299.0734 144.7143,297.0222 146.1389,295.1014 147.7449,293.3294 149.5169,291.7234"/>
    <polygon points="134.7402,325.4699 135.8454,325.5242 136.9401,325.6866 138.0135,325.9554 139.0554,326.3283 140.0558,326.8014 141.0049,327.3703 141.8938,328.0295 142.7137,328.7726 143.4569,329.5926 144.1161,330.4814 144.685,331.4306 145.1581,332.4309 145.5309,333.4729 145.7998,334.5463 145.9622,335.6409 146.0165,336.7462 145.9622,337.8515 145.7998,338.9461 145.5309,340.0195 145.1581,341.0615 144.685,342.0618 144.1161,343.011 143.4569,343.8998 142.7137,344.7198 141.8938,345.4629 141.0049,346.1221 140.0558,346.691 139.0554,347.1641 138.0135,347.537 136.9401,347.8058 135.8454,347.9682 134.7402,348.0225 133.6349,347.9682 132.5403,347.8058 131.4668,347.537 130.4249,347.1641 129.4245,346.691 128.4754,346.1221 127.5865,345.4629 126.7666,344.7198 126.0235,343.8998 125.3643,343.011 124.7953,342.0618 124.3222,341.0615 123.9494,340.0195 123.6805,338.9461 123.5181,337.8515 123.4639,336.7462 123.5181,335.6409 123.6805,334.5463 123.9494,333.4729 124.3222,332.4309 124.7953,331.4306 125.3643,330.4814 126.0235,329.5926 126.7666,328.7726 127.5865,328.0295 128.4754,327.3703 129.4245,326.8014 130.4249,326.3283 131.4668,325.9554 132.5403,325.6866 133.6349,325.5242"/>
    <polygon points="104.9389,326.8553 105.2828,326.5435 105.6556,326.267 106.0538,326.0284 106.4734,325.8299 106.9104,325.6736 107.3607,325.5608 107.8198,325.4927 108.2835,325.4699 108.7471,325.4927 109.2062,325.5608 109.6565,325.6736 110.0935,325.8299 110.5132,326.0284 110.9113,326.267 111.2841,326.5435 111.6281,326.8553 111.9398,327.1992 112.2163,327.572 112.4549,327.9702 112.6534,328.3898 112.8098,328.8268 112.9226,329.2771 112.9907,329.7362 113.0134,330.1999 112.9907,330.6635 112.9226,331.1226 112.8098,331.5729 112.6534,332.0099 112.4549,332.4296 112.2163,332.8277 111.9398,333.2005 111.6281,333.5445 111.2841,333.8562 110.9113,334.1327 110.5132,334.3713 110.0935,334.5698 109.6565,334.7262 109.2062,334.839 108.7471,334.9071 108.2835,334.9298 107.8198,334.9071 107.3607,334.839 106.9104,334.7262 106.4734,334.5698 106.0538,334.3713 105.6556,334.1327 105.2828,333.8562 104.9389,333.5445 104.6271,333.2005 104.3506,332.8277 104.112,332.4296 103.9135,332.0099 103.7572,331.5729 103.6444,331.1226 103.5763,330.6635 103.5535,330.1999 103.5763,329.7362 103.6444,329.2771 103.7572,328.8268 103.9135,328.3898 104.112,327.9702 104.3506,327.572 104.6271,327.1992"/>
    <polygon points="103.6444,344.2153 103.5763,343.7562 103.5535,343.2925 103.5763,342.8289 103.6444,342.3698 103.7572,341.9195 103.9135,341.4825 104.112,341.0628 104.3506,340.6647 104.6271,340.2919 104.9389,339.9479 105.2828,339.6362 105.6556,339.3597 106.0538,339.1211 106.4734,338.9226 106.9104,338.7662 107.3607,338.6534 107.8198,338.5853 108.2835,338.5626 108.7471,338.5853 109.2062,338.6534 109.6565,338.7662 110.0935,338.9226 110.5132,339.1211 110.9113,339.3597 111.2841,339.6362 111.6281,339.9479 111.9398,340.2919 112.2163,340.6647 112.4549,341.0628 112.6534,341.4825 112.8098,341.9195 112.9226,342.3698 112.9907,342.8289 113.0134,343.2925 112.9907,343.7562 112.9226,344.2153 112.8098,344.6656 112.6534,345.1026 112.4549,345.5222 112.2163,345.9204 111.9398,346.2932 111.6281,346.6371 111.2841,346.9489 110.9113,347.2254 110.5132,347.464 110.0935,347.6625 109.6565,347.8188 109.2062,347.9316 108.7471,347.9997 108.2835,348.0225 107.8198,347.9997 107.3607,347.9316 106.9104,347.8188 106.4734,347.6625 106.0538,347.464 105.6556,347.2254 105.2828,346.9489 104.9389,346.6371 104.6271,346.2932 104.3506,345.9204 104.112,345.5222 103.9135,345.1026 103.7572,344.6656"/>
    <polygon points="121.8517,345.6674 122.2499,345.906 122.6227,346.1825 122.9666,346.4943 123.2784,346.8382 123.5549,347.211 123.7935,347.6092 123.992,348.0288 124.1483,348.4658 124.2611,348.9161 124.3292,349.3752 124.352,349.8389 124.3292,350.3025 124.2611,350.7616 124.1483,351.2119 123.992,351.6489 123.7935,352.0686 123.5549,352.4667 123.2784,352.8395 122.9666,353.1835 122.6227,353.4952 122.2499,353.7717 121.8517,354.0103 121.4321,354.2088 120.9951,354.3652 120.5448,354.478 120.0857,354.5461 119.622,354.5688 119.1584,354.5461 118.6993,354.478 118.249,354.3652 117.812,354.2088 117.3924,354.0103 116.9942,353.7717 116.6214,353.4952 116.2775,353.1835 115.9657,352.8395 115.6892,352.4667 115.4506,352.0686 115.2521,351.6489 115.0957,351.2119 114.983,350.7616 114.9149,350.3025 114.8921,349.8389 114.9149,349.3752 114.983,348.9161 115.0957,348.4658 115.2521,348.0288 115.4506,347.6092 115.6892,347.211 115.9657,346.8382 116.2775,346.4943 116.6214,346.1825 116.9942,345.906 117.3924,345.6674 117.812,345.4689 118.249,345.3126 118.6993,345.1998 119.1584,345.1317 119.622,345.1089 120.0857,345.1317 120.5448,345.1998 120.9951,345.3126 121.4321,345.4689"/>
    <polygon points="151.4081,378.3991 151.8277,378.2006 152.2648,378.0442 152.715,377.9314 153.1742,377.8633 153.6378,377.8406 154.1014,377.8633 154.5606,377.9314 155.0108,378.0442 155.4479,378.2006 155.8675,378.3991 156.2656,378.6377 156.6385,378.9142 156.9824,379.2259 157.2941,379.5699 157.5706,379.9427 157.8093,380.3408 158.0077,380.7605 158.1641,381.1975 158.2769,381.6478 158.345,382.1069 158.3678,382.5705 158.345,383.0342 158.2769,383.4933 158.1641,383.9436 158.0077,384.3806 157.8093,384.8002 157.5706,385.1984 157.2941,385.5712 156.9824,385.9151 156.6385,386.2269 156.2656,386.5034 155.8675,386.742 155.4479,386.9405 155.0108,387.0968 154.5606,387.2096 154.1014,387.2777 153.6378,387.3005 153.1742,387.2777 152.715,387.2096 152.2648,387.0968 151.8277,386.9405 151.4081,386.742 151.01,386.5034 150.6371,386.2269 150.2932,385.9151 149.9815,385.5712 149.705,385.1984 149.4663,384.8002 149.2679,384.3806 149.1115,383.9436 148.9987,383.4933 148.9306,383.0342 148.9078,382.5705 148.9306,382.1069 148.9987,381.6478 149.1115,381.1975 149.2679,380.7605 149.4663,380.3408 149.705,379.9427 149.9815,379.5699 150.2932,379.2259 150.6371,378.9142 151.01,378.6377"/>
    <polygon points="161.6318,379.3688 161.3201,379.0249 161.0435,378.652 160.8049,378.2539 160.6065,377.8343 160.4501,377.3972 160.3373,376.947 160.2692,376.4878 160.2464,376.0242 160.2692,375.5606 160.3373,375.1014 160.4501,374.6512 160.6065,374.2141 160.8049,373.7945 161.0435,373.3964 161.3201,373.0235 161.6318,372.6796 161.9757,372.3679 162.3485,372.0914 162.7467,371.8527 163.1663,371.6543 163.6033,371.4979 164.0536,371.3851 164.5128,371.317 164.9764,371.2942 165.44,371.317 165.8991,371.3851 166.3494,371.4979 166.7865,371.6543 167.2061,371.8527 167.6042,372.0914 167.977,372.3679 168.321,372.6796 168.6327,373.0235 168.9092,373.3964 169.1478,373.7945 169.3463,374.2141 169.5027,374.6512 169.6155,375.1014 169.6836,375.5606 169.7064,376.0242 169.6836,376.4878 169.6155,376.947 169.5027,377.3972 169.3463,377.8343 169.1478,378.2539 168.9092,378.652 168.6327,379.0249 168.321,379.3688 167.977,379.6805 167.6042,379.957 167.2061,380.1957 166.7865,380.3941 166.3494,380.5505 165.8991,380.6633 165.44,380.7314 164.9764,380.7542 164.5128,380.7314 164.0536,380.6633 163.6033,380.5505 163.1663,380.3941 162.7467,380.1957 162.3485,379.957 161.9757,379.6805"/>
    <polygon points="157.8093,393.4335 157.5706,393.0354 157.2941,392.6625 156.9824,392.3186 156.6385,392.0069 156.2656,391.7304 155.8675,391.4917 155.4479,391.2933 155.0108,391.1369 154.5606,391.0241 154.1014,390.956 153.6378,390.9332 153.1742,390.956 152.715,391.0241 152.2648,391.1369 151.8277,391.2933 151.4081,391.4917 151.01,391.7304 150.6371,392.0069 150.2932,392.3186 149.9815,392.6625 149.705,393.0354 149.4663,393.4335 149.2679,393.8531 149.1115,394.2902 148.9987,394.7404 148.9306,395.1996 148.9078,395.6632 148.9306,396.1268 148.9987,396.586 149.1115,397.0362 149.2679,397.4733 149.4663,397.8929 149.705,398.291 149.9815,398.6639 150.2932,399.0078 150.6371,399.3195 151.01,399.596 151.4081,399.8347 151.8277,400.0331 152.2648,400.1895 152.715,400.3023 153.1742,400.3704 153.6378,400.3932 154.1014,400.3704 154.5606,400.3023 155.0108,400.1895 155.4479,400.0331 155.8675,399.8347 156.2656,399.596 156.6385,399.3195 156.9824,399.0078 157.2941,398.6639 157.5706,398.291 157.8093,397.8929 158.0077,397.4733 158.1641,397.0362 158.2769,396.586 158.345,396.1268 158.3678,395.6632 158.345,395.1996 158.2769,394.7404 158.1641,394.2902 158.0077,393.8531"/>
    <polygon points="167.2061,384.9454 167.6042,385.184 167.977,385.4606 168.321,385.7723 168.6327,386.1162 168.9092,386.489 169.1478,386.8872 169.3463,387.3068 169.5027,387.7438 169.6155,388.1941 169.6836,388.6533 169.7064,389.1169 169.6836,389.5805 169.6155,390.0396 169.5027,390.4899 169.3463,390.927 169.1478,391.3466 168.9092,391.7447 168.6327,392.1175 168.321,392.4615 167.977,392.7732 167.6042,393.0497 167.2061,393.2883 166.7865,393.4868 166.3494,393.6432 165.8991,393.756 165.44,393.8241 164.9764,393.8468 164.5128,393.8241 164.0536,393.756 163.6033,393.6432 163.1663,393.4868 162.7467,393.2883 162.3485,393.0497 161.9757,392.7732 161.6318,392.4615 161.3201,392.1175 161.0435,391.7447 160.8049,391.3466 160.6065,390.927 160.4501,390.4899 160.3373,390.0396 160.2692,389.5805 160.2464,389.1169 160.2692,388.6533 160.3373,388.1941 160.4501,387.7438 160.6065,387.3068 160.8049,386.8872 161.0435,386.489 161.3201,386.1162 161.6318,385.7723 161.9757,385.4606 162.3485,385.184 162.7467,384.9454 163.1663,384.7469 163.6033,384.5906 164.0536,384.4778 164.5128,384.4097 164.9764,384.3869 165.44,384.4097 165.8991,384.4778 166.3494,384.5906 166.7865,384.7469"/>
    <polygon points="180.954,383.4933 181.0222,383.0342 181.0449,382.5705 181.0222,382.1069 180.954,381.6478 180.8413,381.1975 180.6849,380.7605 180.4864,380.3408 180.2478,379.9427 179.9713,379.5699 179.6596,379.2259 179.3156,378.9142 178.9428,378.6377 178.5447,378.3991 178.125,378.2006 177.688,378.0442 177.2377,377.9314 176.7786,377.8633 176.315,377.8406 175.8513,377.8633 175.3922,377.9314 174.9419,378.0442 174.5049,378.2006 174.0853,378.3991 173.6871,378.6377 173.3143,378.9142 172.9704,379.2259 172.6586,379.5699 172.3821,379.9427 172.1435,380.3408 171.945,380.7605 171.7887,381.1975 171.6759,381.6478 171.6078,382.1069 171.585,382.5705 171.6078,383.0342 171.6759,383.4933 171.7887,383.9436 171.945,384.3806 172.1435,384.8002 172.3821,385.1984 172.6586,385.5712 172.9704,385.9151 173.3143,386.2269 173.6871,386.5034 174.0853,386.742 174.5049,386.9405 174.9419,387.0968 175.3922,387.2096 175.8513,387.2777 176.315,387.3005 176.7786,387.2777 177.2377,387.2096 177.688,387.0968 178.125,386.9405 178.5447,386.742 178.9428,386.5034 179.3156,386.2269 179.6596,385.9151 179.9713,385.5712 180.2478,385.1984 180.4864,384.8002 180.6849,384.3806 180.8413,383.9436"/>
    <polygon points="187.6535,393.8468 188.1172,393.8241 188.5763,393.756 189.0266,393.6432 189.4636,393.4868 189.8832,393.2883 190.2814,393.0497 190.6542,392.7732 190.9981,392.4615 191.3099,392.1175 191.5864,391.7447 191.825,391.3466 192.0235,390.927 192.1798,390.4899 192.2926,390.0396 192.3607,389.5805 192.3835,389.1169 192.3607,388.6533 192.2926,388.1941 192.1798,387.7438 192.0235,387.3068 191.825,386.8872 191.5864,386.489 191.3099,386.1162 190.9981,385.7723 190.6542,385.4606 190.2814,385.184 189.8832,384.9454 189.4636,384.7469 189.0266,384.5906 188.5763,384.4778 188.1172,384.4097 187.6535,384.3869 187.1899,384.4097 186.7308,384.4778 186.2805,384.5906 185.8435,384.7469 185.4238,384.9454 185.0257,385.184 184.6529,385.4606 184.3089,385.7723 183.9972,386.1162 183.7207,386.489 183.4821,386.8872 183.2836,387.3068 183.1272,387.7438 183.0145,388.1941 182.9463,388.6533 182.9236,389.1169 182.9463,389.5805 183.0145,390.0396 183.1272,390.4899 183.2836,390.927 183.4821,391.3466 183.7207,391.7447 183.9972,392.1175 184.3089,392.4615 184.6529,392.7732 185.0257,393.0497 185.4238,393.2883 185.8435,393.4868 186.2805,393.6432 186.7308,393.756 187.1899,393.8241"/>
    <polygon points="194.353,370.4006 194.2849,369.9415 194.2622,369.4779 194.2849,369.0142 194.353,368.5551 194.4658,368.1048 194.6222,367.6678 194.8207,367.2482 195.0593,366.85 195.3358,366.4772 195.6475,366.1333 195.9915,365.8215 196.3643,365.545 196.7624,365.3064 197.182,365.1079 197.6191,364.9516 198.0694,364.8388 198.5285,364.7707 198.9921,364.7479 199.4557,364.7707 199.9149,364.8388 200.3652,364.9516 200.8022,365.1079 201.2218,365.3064 201.62,365.545 201.9928,365.8215 202.3367,366.1333 202.6484,366.4772 202.925,366.85 203.1636,367.2482 203.3621,367.6678 203.5184,368.1048 203.6312,368.5551 203.6993,369.0142 203.7221,369.4779 203.6993,369.9415 203.6312,370.4006 203.5184,370.8509 203.3621,371.288 203.1636,371.7076 202.925,372.1057 202.6484,372.4785 202.3367,372.8225 201.9928,373.1342 201.62,373.4107 201.2218,373.6493 200.8022,373.8478 200.3652,374.0042 199.9149,374.117 199.4557,374.1851 198.9921,374.2078 198.5285,374.1851 198.0694,374.117 197.6191,374.0042 197.182,373.8478 196.7624,373.6493 196.3643,373.4107 195.9915,373.1342 195.6475,372.8225 195.3358,372.4785 195.0593,372.1057 194.8207,371.7076 194.6222,371.288 194.4658,370.8509"/>
    <polygon points="184.4097,352.5136 185.4101,352.9867 186.3593,353.5556 187.2481,354.2148 188.068,354.958 188.8112,355.7779 189.4704,356.6668 190.0393,357.6159 190.5124,358.6163 190.8852,359.6582 191.1541,360.7316 191.3165,361.8263 191.3708,362.9315 191.3165,364.0368 191.1541,365.1314 190.8852,366.2049 190.5124,367.2468 190.0393,368.2471 189.4704,369.1963 188.8112,370.0851 188.068,370.9051 187.2481,371.6482 186.3593,372.3074 185.4101,372.8763 184.4097,373.3495 183.3678,373.7223 182.2944,373.9912 181.1998,374.1535 180.0945,374.2078 178.9892,374.1535 177.8946,373.9912 176.8211,373.7223 175.7792,373.3495 174.7789,372.8763 173.8297,372.3074 172.9409,371.6482 172.1209,370.9051 171.3778,370.0851 170.7186,369.1963 170.1497,368.2471 169.6765,367.2468 169.3037,366.2049 169.0349,365.1314 168.8725,364.0368 168.8182,362.9315 168.8725,361.8263 169.0349,360.7316 169.3037,359.6582 169.6765,358.6163 170.1497,357.6159 170.7186,356.6668 171.3778,355.7779 172.1209,354.958 172.9409,354.2148 173.8297,353.5556 174.7789,352.9867 175.7792,352.5136 176.8211,352.1408 177.8946,351.8719 178.9892,351.7095 180.0945,351.6552 181.1998,351.7095 182.2944,351.8719 183.3678,352.1408"/>
    <polygon points="180.6849,345.1026 180.4864,345.5222 180.2478,345.9204 179.9713,346.2932 179.6596,346.6371 179.3156,346.9489 178.9428,347.2254 178.5447,347.464 178.125,347.6625 177.688,347.8188 177.2377,347.9316 176.7786,347.9997 176.315,348.0225 175.8513,347.9997 175.3922,347.9316 174.9419,347.8188 174.5049,347.6625 174.0853,347.464 173.6871,347.2254 173.3143,346.9489 172.9704,346.6371 172.6586,346.2932 172.3821,345.9204 172.1435,345.5222 171.945,345.1026 171.7887,344.6656 171.6759,344.2153 171.6078,343.7562 171.585,343.2925 171.6078,342.8289 171.6759,342.3698 171.7887,341.9195 171.945,341.4825 172.1435,341.0628 172.3821,340.6647 172.6586,340.2919 172.9704,339.9479 173.3143,339.6362 173.6871,339.3597 174.0853,339.1211 174.5049,338.9226 174.9419,338.7662 175.3922,338.6534 175.8513,338.5853 176.315,338.5626 176.7786,338.5853 177.2377,338.6534 177.688,338.7662 178.125,338.9226 178.5447,339.1211 178.9428,339.3597 179.3156,339.6362 179.6596,339.9479 179.9713,340.2919 180.2478,340.6647 180.4864,341.0628 180.6849,341.4825 180.8413,341.9195 180.954,342.3698 181.0222,342.8289 181.0449,343.2925 181.0222,343.7562 180.954,344.2153 180.8413,344.6656"/>
    <polygon points="186.7308,332.1071 187.1899,332.039 187.6535,332.0162 188.1172,332.039 188.5763,332.1071 189.0266,332.2199 189.4636,332.3763 189.8832,332.5747 190.2814,332.8134 190.6542,333.0899 190.9981,333.4016 191.3099,333.7455 191.5864,334.1184 191.825,334.5165 192.0235,334.9361 192.1798,335.3732 192.2926,335.8234 192.3607,336.2826 192.3835,336.7462 192.3607,337.2098 192.2926,337.669 192.1798,338.1192 192.0235,338.5563 191.825,338.9759 191.5864,339.374 191.3099,339.7469 190.9981,340.0908 190.6542,340.4025 190.2814,340.679 189.8832,340.9177 189.4636,341.1161 189.0266,341.2725 188.5763,341.3853 188.1172,341.4534 187.6535,341.4762 187.1899,341.4534 186.7308,341.3853 186.2805,341.2725 185.8435,341.1161 185.4238,340.9177 185.0257,340.679 184.6529,340.4025 184.3089,340.0908 183.9972,339.7469 183.7207,339.374 183.4821,338.9759 183.2836,338.5563 183.1272,338.1192 183.0145,337.669 182.9463,337.2098 182.9236,336.7462 182.9463,336.2826 183.0145,335.8234 183.1272,335.3732 183.2836,334.9361 183.4821,334.5165 183.7207,334.1184 183.9972,333.7455 184.3089,333.4016 184.6529,333.0899 185.0257,332.8134 185.4238,332.5747 185.8435,332.3763 186.2805,332.2199"/>
    <polygon points="194.055,330.8071 193.3957,329.9183 192.8268,328.9691 192.3537,327.9688 191.9809,326.9269 191.712,325.8534 191.5496,324.7588 191.4953,323.6535 191.5496,322.5483 191.712,321.4536 191.9809,320.3802 192.3537,319.3383 192.8268,318.3379 193.3957,317.3888 194.055,316.4999 194.7981,315.68 195.618,314.9368 196.5069,314.2776 197.456,313.7087 198.4564,313.2356 199.4983,312.8628 200.5718,312.5939 201.6664,312.4315 202.7717,312.3772 203.8769,312.4315 204.9716,312.5939 206.045,312.8628 207.0869,313.2356 208.0873,313.7087 209.0364,314.2776 209.9253,314.9368 210.7452,315.68 211.4884,316.4999 212.1476,317.3888 212.7165,318.3379 213.1896,319.3383 213.5624,320.3802 213.8313,321.4536 213.9937,322.5483 214.048,323.6535 213.9937,324.7588 213.8313,325.8534 213.5624,326.9269 213.1896,327.9688 212.7165,328.9691 212.1476,329.9183 211.4884,330.8071 210.7452,331.6271 209.9253,332.3702 209.0364,333.0294 208.0873,333.5983 207.0869,334.0715 206.045,334.4443 204.9716,334.7132 203.8769,334.8755 202.7717,334.9298 201.6664,334.8755 200.5718,334.7132 199.4983,334.4443 198.4564,334.0715 197.456,333.5983 196.5069,333.0294 195.618,332.3702 194.7981,331.6271"/>
    <polygon points="202.7717,338.5626 203.8769,338.6169 204.9716,338.7792 206.045,339.0481 207.0869,339.4209 208.0873,339.8941 209.0364,340.463 209.9253,341.1222 210.7452,341.8653 211.4884,342.6853 212.1476,343.5741 212.7165,344.5233 213.1896,345.5236 213.5624,346.5655 213.8313,347.639 213.9937,348.7336 214.048,349.8389 213.9937,350.9441 213.8313,352.0388 213.5624,353.1122 213.1896,354.1541 212.7165,355.1545 212.1476,356.1036 211.4884,356.9925 210.7452,357.8124 209.9253,358.5556 209.0364,359.2148 208.0873,359.7837 207.0869,360.2568 206.045,360.6296 204.9716,360.8985 203.8769,361.0609 202.7717,361.1152 201.6664,361.0609 200.5718,360.8985 199.4983,360.6296 198.4564,360.2568 197.456,359.7837 196.5069,359.2148 195.618,358.5556 194.7981,357.8124 194.055,356.9925 193.3957,356.1036 192.8268,355.1545 192.3537,354.1541 191.9809,353.1122 191.712,352.0388 191.5496,350.9441 191.4953,349.8389 191.5496,348.7336 191.712,347.639 191.9809,346.5655 192.3537,345.5236 192.8268,344.5233 193.3957,343.5741 194.055,342.6853 194.7981,341.8653 195.618,341.1222 196.5069,340.463 197.456,339.8941 198.4564,339.4209 199.4983,339.0481 200.5718,338.7792 201.6664,338.6169"/>
    <polygon points="233.4224,328.7726 232.6024,328.0295 231.7136,327.3703 230.7644,326.8014 229.7641,326.3283 228.7222,325.9554 227.6487,325.6866 226.5541,325.5242 225.4488,325.4699 224.3435,325.5242 223.2489,325.6866 222.1755,325.9554 221.1336,326.3283 220.1332,326.8014 219.184,327.3703 218.2952,328.0295 217.4753,328.7726 216.7321,329.5926 216.0729,330.4814 215.504,331.4306 215.0309,332.4309 214.6581,333.4729 214.3892,334.5463 214.2268,335.6409 214.1725,336.7462 214.2268,337.8515 214.3892,338.9461 214.6581,340.0195 215.0309,341.0615 215.504,342.0618 216.0729,343.011 216.7321,343.8998 217.4753,344.7198 218.2952,345.4629 219.184,346.1221 220.1332,346.691 221.1336,347.1641 222.1755,347.537 223.2489,347.8058 224.3435,347.9682 225.4488,348.0225 226.5541,347.9682 227.6487,347.8058 228.7222,347.537 229.7641,347.1641 230.7644,346.691 231.7136,346.1221 232.6024,345.4629 233.4224,344.7198 234.1655,343.8998 234.8247,343.011 235.3936,342.0618 235.8668,341.0615 236.2396,340.0195 236.5085,338.9461 236.6708,337.8515 236.7251,336.7462 236.6708,335.6409 236.5085,334.5463 236.2396,333.4729 235.8668,332.4309 235.3936,331.4306 234.8247,330.4814 234.1655,329.5926"/>
    <polygon points="240.1524,357.8124 240.9724,358.5556 241.8612,359.2148 242.8104,359.7837 243.8107,360.2568 244.8526,360.6296 245.9261,360.8985 247.0207,361.0609 248.126,361.1152 249.2313,361.0609 250.3259,360.8985 251.3993,360.6296 252.4412,360.2568 253.4416,359.7837 254.3908,359.2148 255.2796,358.5556 256.0995,357.8124 256.8427,356.9925 257.5019,356.1036 258.0708,355.1545 258.5439,354.1541 258.9167,353.1122 259.1856,352.0388 259.348,350.9441 259.4023,349.8389 259.348,348.7336 259.1856,347.639 258.9167,346.5655 258.5439,345.5236 258.0708,344.5233 257.5019,343.5741 256.8427,342.6853 256.0995,341.8653 255.2796,341.1222 254.3908,340.463 253.4416,339.8941 252.4412,339.4209 251.3993,339.0481 250.3259,338.7792 249.2313,338.6169 248.126,338.5626 247.0207,338.6169 245.9261,338.7792 244.8526,339.0481 243.8107,339.4209 242.8104,339.8941 241.8612,340.463 240.9724,341.1222 240.1524,341.8653 239.4093,342.6853 238.7501,343.5741 238.1812,344.5233 237.708,345.5236 237.3352,346.5655 237.0663,347.639 236.904,348.7336 236.8497,349.8389 236.904,350.9441 237.0663,352.0388 237.3352,353.1122 237.708,354.1541 238.1812,355.1545 238.7501,356.1036 239.4093,356.9925"/>
    <polygon points="270.6799,353.3845 270.3682,353.0406 270.0243,352.7289 269.6515,352.4524 269.2533,352.2137 268.8337,352.0153 268.3967,351.8589 267.9464,351.7461 267.4872,351.678 267.0236,351.6552 266.56,351.678 266.1009,351.7461 265.6506,351.8589 265.2135,352.0153 264.7939,352.2137 264.3958,352.4524 264.023,352.7289 263.679,353.0406 263.3673,353.3845 263.0908,353.7574 262.8522,354.1555 262.6537,354.5751 262.4973,355.0122 262.3845,355.4624 262.3164,355.9216 262.2936,356.3852 262.3164,356.8488 262.3845,357.308 262.4973,357.7582 262.6537,358.1953 262.8522,358.6149 263.0908,359.013 263.3673,359.3859 263.679,359.7298 264.023,360.0415 264.3958,360.318 264.7939,360.5567 265.2135,360.7551 265.6506,360.9115 266.1009,361.0243 266.56,361.0924 267.0236,361.1152 267.4872,361.0924 267.9464,361.0243 268.3967,360.9115 268.8337,360.7551 269.2533,360.5567 269.6515,360.318 270.0243,360.0415 270.3682,359.7298 270.6799,359.3859 270.9565,359.013 271.1951,358.6149 271.3935,358.1953 271.5499,357.7582 271.6627,357.308 271.7308,356.8488 271.7536,356.3852 271.7308,355.9216 271.6627,355.4624 271.5499,355.0122 271.3935,354.5751 271.1951,354.1555 270.9565,353.7574"/>
  </g>
</svg>
