<?xml version="1.0" encoding="utf-8" ?>
<svg xmlns="http://www.w3.org/2000/svg" xmlns:cc="http://creativecommons.org/ns" xmlns:dc="http://purl.org/dc/elements/1.1/" xmlns:ev="http://www.w3.org/2001/xml-events" xmlns:inkscape="http://www.inkscape.org/namespaces/inkscape" xmlns:rdf="http://www.w3.org/1999/02/22-rdf-syntax-ns" xmlns:sodipodi="http://sodipodi.sourceforge.net/DTD/sodipodi-0.dtd" xmlns:xlink="http://www.w3.org/1999/xlink" baseProfile="tiny" height="15.875cm" version="1.2" viewBox="0 0 432.0 600.0" width="11.43cm">
  <metadata>
    <rdf:RDF>
      <cc:Work>
        <dc:format>image/svg+xml</dc:format>
        <dc:source>vsk save -s 281 -c hex-grid/config/bubble-coasters-2.json /Users/tobin/src/fabian/plotting/fabian-plotting/hex-grid/sketch_hex_grid.py</dc:source>
        <dc:date>2023-11-11T11:30:24.097739</dc:date>
      </cc:Work>
    </rdf:RDF>
  </metadata>
  <defs/>
  <g fill="none" id="layer1" inkscape:groupmode="layer" inkscape:label="1" stroke="#000000" stroke-width="0.7559" style="display:inline">
    <polygon points="212.7165,321.6111 212.1476,320.6619 211.4884,319.7731 210.7452,318.9531 209.9253,318.21 209.0364,317.5508 208.0873,316.9819 207.0869,316.5087 206.045,316.1359 204.9716,315.8671 203.8769,315.7047 202.7717,315.6504 201.6664,315.7047 200.5718,315.8671 199.4983,316.1359 198.4564,316.5087 197.456,316.9819 196.5069,317.5508 195.618,318.21 194.7981,318.9531 194.055,319.7731 193.3957,320.6619 192.8268,321.6111 192.3537,322.6114 191.9809,323.6534 191.712,324.7268 191.5496,325.8214 191.4953,326.9267 191.5496,328.032 191.712,329.1266 191.9809,330.2 192.3537,331.242 192.8268,332.2423 193.3957,333.1915 194.055,334.0803 194.7981,334.9003 195.618,335.6434 196.5069,336.3026 197.456,336.8715 198.4564,337.3446 199.4983,337.7175 200.5718,337.9863 201.6664,338.1487 202.7717,338.203 203.8769,338.1487 204.9716,337.9863 206.045,337.7175 207.0869,337.3446 208.0873,336.8715 209.0364,336.3026 209.9253,335.6434 210.7452,334.9003 211.4884,334.0803 212.1476,333.1915 212.7165,332.2423 213.1896,331.242 213.5624,330.2 213.8313,329.1266 213.9937,328.032 214.048,326.9267 213.9937,325.8214 213.8313,324.7268 213.5624,323.6534 213.1896,322.6114"/>
    <polygon points="211.5164,312.2288 212.7458,314.28 214.1704,316.2009 215.7764,317.9728 217.5484,319.5788 219.4692,321.0034 221.5204,322.2329 223.6823,323.2554 225.9339,324.061 228.2537,324.6421 230.6193,324.993 233.0079,325.1103 235.3965,324.993 237.762,324.6421 240.0818,324.061 242.3335,323.2554 244.4953,322.2329 246.5466,321.0034 248.4674,319.5788 250.2393,317.9728 251.8453,316.2009 253.2699,314.28 254.4994,312.2288 255.5219,310.067 256.3275,307.8153 256.9086,305.4955 257.2595,303.1299 257.3768,300.7414 257.2595,298.3528 256.9086,295.9872 256.3275,293.6674 255.5219,291.4158 254.4994,289.2539 253.2699,287.2027 251.8453,285.2819 250.2393,283.5099 248.4674,281.9039 246.5466,280.4793 244.4953,279.2498 242.3335,278.2274 240.0818,277.4217 237.762,276.8406 235.3965,276.4897 233.0079,276.3724 230.6193,276.4897 228.2537,276.8406 225.9339,277.4217 223.6823,278.2274 221.5204,279.2498 219.4692,280.4793 217.5484,281.9039 215.7764,283.5099 214.1704,285.2819 212.7458,287.2027 211.5164,289.2539 210.4939,291.4158 209.6882,293.6674 209.1071,295.9872 208.7562,298.3528 208.6389,300.7414 208.7562,303.1299 209.1071,305.4955 209.6882,307.8153 210.4939,310.067"/>
    <polygon points="192.3607,314.2976 192.3835,313.834 192.3607,313.3704 192.2926,312.9113 192.1798,312.461 192.0235,312.0239 191.825,311.6043 191.5864,311.2062 191.3099,310.8334 190.9981,310.4894 190.6542,310.1777 190.2814,309.9012 189.8832,309.6626 189.4636,309.4641 189.0266,309.3077 188.5763,309.1949 188.1172,309.1268 187.6535,309.1041 187.1899,309.1268 186.7308,309.1949 186.2805,309.3077 185.8435,309.4641 185.4238,309.6626 185.0257,309.9012 184.6529,310.1777 184.3089,310.4894 183.9972,310.8334 183.7207,311.2062 183.4821,311.6043 183.2836,312.0239 183.1272,312.461 183.0145,312.9113 182.9463,313.3704 182.9236,313.834 182.9463,314.2976 183.0145,314.7568 183.1272,315.2071 183.2836,315.6441 183.4821,316.0637 183.7207,316.4619 183.9972,316.8347 184.3089,317.1786 184.6529,317.4903 185.0257,317.7669 185.4238,318.0055 185.8435,318.204 186.2805,318.3603 186.7308,318.4731 187.1899,318.5412 187.6535,318.564 188.1172,318.5412 188.5763,318.4731 189.0266,318.3603 189.4636,318.204 189.8832,318.0055 190.2814,317.7669 190.6542,317.4903 190.9981,317.1786 191.3099,316.8347 191.5864,316.4619 191.825,316.0637 192.0235,315.6441 192.1798,315.2071 192.2926,314.7568"/>
    <polygon points="178.125,324.7503 178.5447,324.5518 178.9428,324.3132 179.3156,324.0367 179.6596,323.725 179.9713,323.381 180.2478,323.0082 180.4864,322.6101 180.6849,322.1904 180.8413,321.7534 180.954,321.3031 181.0222,320.844 181.0449,320.3804 181.0222,319.9167 180.954,319.4576 180.8413,319.0073 180.6849,318.5703 180.4864,318.1507 180.2478,317.7525 179.9713,317.3797 179.6596,317.0358 179.3156,316.724 178.9428,316.4475 178.5447,316.2089 178.125,316.0104 177.688,315.8541 177.2377,315.7413 176.7786,315.6732 176.315,315.6504 175.8513,315.6732 175.3922,315.7413 174.9419,315.8541 174.5049,316.0104 174.0853,316.2089 173.6871,316.4475 173.3143,316.724 172.9704,317.0358 172.6586,317.3797 172.3821,317.7525 172.1435,318.1507 171.945,318.5703 171.7887,319.0073 171.6759,319.4576 171.6078,319.9167 171.585,320.3804 171.6078,320.844 171.6759,321.3031 171.7887,321.7534 171.945,322.1904 172.1435,322.6101 172.3821,323.0082 172.6586,323.381 172.9704,323.725 173.3143,324.0367 173.6871,324.3132 174.0853,324.5518 174.5049,324.7503 174.9419,324.9067 175.3922,325.0195 175.8513,325.0876 176.315,325.1103 176.7786,325.0876 177.2377,325.0195 177.688,324.9067"/>
    <polygon points="188.1172,335.3122 187.6535,335.2894 187.1899,335.3122 186.7308,335.3803 186.2805,335.4931 185.8435,335.6494 185.4238,335.8479 185.0257,336.0865 184.6529,336.363 184.3089,336.6748 183.9972,337.0187 183.7207,337.3915 183.4821,337.7897 183.2836,338.2093 183.1272,338.6463 183.0145,339.0966 182.9463,339.5557 182.9236,340.0194 182.9463,340.483 183.0145,340.9421 183.1272,341.3924 183.2836,341.8294 183.4821,342.2491 183.7207,342.6472 183.9972,343.02 184.3089,343.364 184.6529,343.6757 185.0257,343.9522 185.4238,344.1908 185.8435,344.3893 186.2805,344.5457 186.7308,344.6585 187.1899,344.7266 187.6535,344.7493 188.1172,344.7266 188.5763,344.6585 189.0266,344.5457 189.4636,344.3893 189.8832,344.1908 190.2814,343.9522 190.6542,343.6757 190.9981,343.364 191.3099,343.02 191.5864,342.6472 191.825,342.2491 192.0235,341.8294 192.1798,341.3924 192.2926,340.9421 192.3607,340.483 192.3835,340.0194 192.3607,339.5557 192.2926,339.0966 192.1798,338.6463 192.0235,338.2093 191.825,337.7897 191.5864,337.3915 191.3099,337.0187 190.9981,336.6748 190.6542,336.363 190.2814,336.0865 189.8832,335.8479 189.4636,335.6494 189.0266,335.4931 188.5763,335.3803"/>
    <polygon points="172.1435,348.7954 172.3821,349.1935 172.6586,349.5664 172.9704,349.9103 173.3143,350.222 173.6871,350.4985 174.0853,350.7372 174.5049,350.9356 174.9419,351.092 175.3922,351.2048 175.8513,351.2729 176.315,351.2957 176.7786,351.2729 177.2377,351.2048 177.688,351.092 178.125,350.9356 178.5447,350.7372 178.9428,350.4985 179.3156,350.222 179.6596,349.9103 179.9713,349.5664 180.2478,349.1935 180.4864,348.7954 180.6849,348.3758 180.8413,347.9387 180.954,347.4885 181.0222,347.0293 181.0449,346.5657 181.0222,346.1021 180.954,345.6429 180.8413,345.1927 180.6849,344.7556 180.4864,344.336 180.2478,343.9379 179.9713,343.565 179.6596,343.2211 179.3156,342.9094 178.9428,342.6329 178.5447,342.3942 178.125,342.1958 177.688,342.0394 177.2377,341.9266 176.7786,341.8585 176.315,341.8357 175.8513,341.8585 175.3922,341.9266 174.9419,342.0394 174.5049,342.1958 174.0853,342.3942 173.6871,342.6329 173.3143,342.9094 172.9704,343.2211 172.6586,343.565 172.3821,343.9379 172.1435,344.336 171.945,344.7556 171.7887,345.1927 171.6759,345.6429 171.6078,346.1021 171.585,346.5657 171.6078,347.0293 171.6759,347.4885 171.7887,347.9387 171.945,348.3758"/>
    <polygon points="163.6033,344.5457 164.0536,344.6585 164.5128,344.7266 164.9764,344.7493 165.44,344.7266 165.8991,344.6585 166.3494,344.5457 166.7865,344.3893 167.2061,344.1908 167.6042,343.9522 167.977,343.6757 168.321,343.364 168.6327,343.02 168.9092,342.6472 169.1478,342.2491 169.3463,341.8294 169.5027,341.3924 169.6155,340.9421 169.6836,340.483 169.7064,340.0194 169.6836,339.5557 169.6155,339.0966 169.5027,338.6463 169.3463,338.2093 169.1478,337.7897 168.9092,337.3915 168.6327,337.0187 168.321,336.6748 167.977,336.363 167.6042,336.0865 167.2061,335.8479 166.7865,335.6494 166.3494,335.4931 165.8991,335.3803 165.44,335.3122 164.9764,335.2894 164.5128,335.3122 164.0536,335.3803 163.6033,335.4931 163.1663,335.6494 162.7467,335.8479 162.3485,336.0865 161.9757,336.363 161.6318,336.6748 161.3201,337.0187 161.0435,337.3915 160.8049,337.7897 160.6065,338.2093 160.4501,338.6463 160.3373,339.0966 160.2692,339.5557 160.2464,340.0194 160.2692,340.483 160.3373,340.9421 160.4501,341.3924 160.6065,341.8294 160.8049,342.2491 161.0435,342.6472 161.3201,343.02 161.6318,343.364 161.9757,343.6757 162.3485,343.9522 162.7467,344.1908 163.1663,344.3893"/>
    <polygon points="138.6429,389.3894 138.3664,389.7622 138.1277,390.1603 137.9293,390.58 137.7729,391.017 137.6601,391.4673 137.592,391.9264 137.5692,392.39 137.592,392.8537 137.6601,393.3128 137.7729,393.7631 137.9293,394.2001 138.1277,394.6197 138.3664,395.0179 138.6429,395.3907 138.9546,395.7346 139.2985,396.0464 139.6714,396.3229 140.0695,396.5615 140.4891,396.76 140.9262,396.9163 141.3764,397.0291 141.8356,397.0972 142.2992,397.12 142.7628,397.0972 143.222,397.0291 143.6723,396.9163 144.1093,396.76 144.5289,396.5615 144.927,396.3229 145.2999,396.0464 145.6438,395.7346 145.9555,395.3907 146.232,395.0179 146.4707,394.6197 146.6691,394.2001 146.8255,393.7631 146.9383,393.3128 147.0064,392.8537 147.0292,392.39 147.0064,391.9264 146.9383,391.4673 146.8255,391.017 146.6691,390.58 146.4707,390.1603 146.232,389.7622 145.9555,389.3894 145.6438,389.0454 145.2999,388.7337 144.927,388.4572 144.5289,388.2186 144.1093,388.0201 143.6723,387.8637 143.222,387.7509 142.7628,387.6828 142.2992,387.6601 141.8356,387.6828 141.3764,387.7509 140.9262,387.8637 140.4891,388.0201 140.0695,388.2186 139.6714,388.4572 139.2985,388.7337 138.9546,389.0454"/>
    <polygon points="139.6714,414.6425 139.2985,414.9191 138.9546,415.2308 138.6429,415.5747 138.3664,415.9475 138.1277,416.3457 137.9293,416.7653 137.7729,417.2023 137.6601,417.6526 137.592,418.1118 137.5692,418.5754 137.592,419.039 137.6601,419.4981 137.7729,419.9484 137.9293,420.3855 138.1277,420.8051 138.3664,421.2032 138.6429,421.576 138.9546,421.92 139.2985,422.2317 139.6714,422.5082 140.0695,422.7468 140.4891,422.9453 140.9262,423.1017 141.3764,423.2145 141.8356,423.2826 142.2992,423.3053 142.7628,423.2826 143.222,423.2145 143.6723,423.1017 144.1093,422.9453 144.5289,422.7468 144.927,422.5082 145.2999,422.2317 145.6438,421.92 145.9555,421.576 146.232,421.2032 146.4707,420.8051 146.6691,420.3855 146.8255,419.9484 146.9383,419.4981 147.0064,419.039 147.0292,418.5754 147.0064,418.1118 146.9383,417.6526 146.8255,417.2023 146.6691,416.7653 146.4707,416.3457 146.232,415.9475 145.9555,415.5747 145.6438,415.2308 145.2999,414.9191 144.927,414.6425 144.5289,414.4039 144.1093,414.2054 143.6723,414.0491 143.222,413.9363 142.7628,413.8682 142.2992,413.8454 141.8356,413.8682 141.3764,413.9363 140.9262,414.0491 140.4891,414.2054 140.0695,414.4039"/>
    <polygon points="128.7309,420.9502 128.3328,421.1889 127.96,421.4654 127.616,421.7771 127.3043,422.121 127.0278,422.4939 126.7892,422.892 126.5907,423.3116 126.4343,423.7487 126.3215,424.1989 126.2534,424.6581 126.2307,425.1217 126.2534,425.5853 126.3215,426.0445 126.4343,426.4947 126.5907,426.9318 126.7892,427.3514 127.0278,427.7495 127.3043,428.1224 127.616,428.4663 127.96,428.778 128.3328,429.0545 128.7309,429.2932 129.1505,429.4916 129.5876,429.648 130.0379,429.7608 130.497,429.8289 130.9606,429.8517 131.4242,429.8289 131.8834,429.7608 132.3337,429.648 132.7707,429.4916 133.1903,429.2932 133.5885,429.0545 133.9613,428.778 134.3052,428.4663 134.6169,428.1224 134.8935,427.7495 135.1321,427.3514 135.3306,426.9318 135.4869,426.4947 135.5997,426.0445 135.6678,425.5853 135.6906,425.1217 135.6678,424.6581 135.5997,424.1989 135.4869,423.7487 135.3306,423.3116 135.1321,422.892 134.8935,422.4939 134.6169,422.121 134.3052,421.7771 133.9613,421.4654 133.5885,421.1889 133.1903,420.9502 132.7707,420.7518 132.3337,420.5954 131.8834,420.4826 131.4242,420.4145 130.9606,420.3917 130.497,420.4145 130.0379,420.4826 129.5876,420.5954 129.1505,420.7518"/>
    <polygon points="137.592,432.1317 137.6601,432.5908 137.7729,433.0411 137.9293,433.4781 138.1277,433.8977 138.3664,434.2959 138.6429,434.6687 138.9546,435.0126 139.2985,435.3244 139.6714,435.6009 140.0695,435.8395 140.4891,436.038 140.9262,436.1943 141.3764,436.3071 141.8356,436.3752 142.2992,436.398 142.7628,436.3752 143.222,436.3071 143.6723,436.1943 144.1093,436.038 144.5289,435.8395 144.927,435.6009 145.2999,435.3244 145.6438,435.0126 145.9555,434.6687 146.232,434.2959 146.4707,433.8977 146.6691,433.4781 146.8255,433.0411 146.9383,432.5908 147.0064,432.1317 147.0292,431.668 147.0064,431.2044 146.9383,430.7453 146.8255,430.295 146.6691,429.858 146.4707,429.4383 146.232,429.0402 145.9555,428.6674 145.6438,428.3234 145.2999,428.0117 144.927,427.7352 144.5289,427.4966 144.1093,427.2981 143.6723,427.1417 143.222,427.029 142.7628,426.9608 142.2992,426.9381 141.8356,426.9608 141.3764,427.029 140.9262,427.1417 140.4891,427.2981 140.0695,427.4966 139.6714,427.7352 139.2985,428.0117 138.9546,428.3234 138.6429,428.6674 138.3664,429.0402 138.1277,429.4383 137.9293,429.858 137.7729,430.295 137.6601,430.7453 137.592,431.2044 137.5692,431.668"/>
    <polygon points="151.01,421.1889 150.6371,421.4654 150.2932,421.7771 149.9815,422.121 149.705,422.4939 149.4663,422.892 149.2679,423.3116 149.1115,423.7487 148.9987,424.1989 148.9306,424.6581 148.9078,425.1217 148.9306,425.5853 148.9987,426.0445 149.1115,426.4947 149.2679,426.9318 149.4663,427.3514 149.705,427.7495 149.9815,428.1224 150.2932,428.4663 150.6371,428.778 151.01,429.0545 151.4081,429.2932 151.8277,429.4916 152.2648,429.648 152.715,429.7608 153.1742,429.8289 153.6378,429.8517 154.1014,429.8289 154.5606,429.7608 155.0108,429.648 155.4479,429.4916 155.8675,429.2932 156.2656,429.0545 156.6385,428.778 156.9824,428.4663 157.2941,428.1224 157.5706,427.7495 157.8093,427.3514 158.0077,426.9318 158.1641,426.4947 158.2769,426.0445 158.345,425.5853 158.3678,425.1217 158.345,424.6581 158.2769,424.1989 158.1641,423.7487 158.0077,423.3116 157.8093,422.892 157.5706,422.4939 157.2941,422.121 156.9824,421.7771 156.6385,421.4654 156.2656,421.1889 155.8675,420.9502 155.4479,420.7518 155.0108,420.5954 154.5606,420.4826 154.1014,420.4145 153.6378,420.3917 153.1742,420.4145 152.715,420.4826 152.2648,420.5954 151.8277,420.7518 151.4081,420.9502"/>
    <polygon points="170.4221,396.5288 168.8161,394.7569 167.3915,392.836 166.162,390.7848 165.1395,388.623 164.3339,386.3713 163.7528,384.0515 163.4019,381.6859 163.2846,379.2974 163.4019,376.9088 163.7528,374.5432 164.3339,372.2234 165.1395,369.9718 166.162,367.8099 167.3915,365.7587 168.8161,363.8379 170.4221,362.0659 172.194,360.4599 174.1149,359.0353 176.1661,357.8059 178.3279,356.7834 180.5796,355.9777 182.8994,355.3966 185.265,355.0457 187.6535,354.9284 190.0421,355.0457 192.4077,355.3966 194.7275,355.9777 196.9791,356.7834 199.141,357.8059 201.1922,359.0353 203.1131,360.4599 204.885,362.0659 206.491,363.8379 207.9156,365.7587 209.1451,367.8099 210.1675,369.9718 210.9732,372.2234 211.5543,374.5432 211.9052,376.9088 212.0225,379.2974 211.9052,381.6859 211.5543,384.0515 210.9732,386.3713 210.1675,388.623 209.1451,390.7848 207.9156,392.836 206.491,394.7569 204.885,396.5288 203.1131,398.1348 201.1922,399.5594 199.141,400.7889 196.9791,401.8114 194.7275,402.617 192.4077,403.1981 190.0421,403.549 187.6535,403.6663 185.265,403.549 182.8994,403.1981 180.5796,402.617 178.3279,401.8114 176.1661,400.7889 174.1149,399.5594 172.194,398.1348"/>
    <polygon points="167.8353,409.798 167.3621,410.7983 166.7932,411.7475 166.134,412.6363 165.3909,413.4563 164.5709,414.1994 163.6821,414.8586 162.7329,415.4275 161.7326,415.9007 160.6907,416.2735 159.6172,416.5423 158.5226,416.7047 157.4173,416.759 156.3121,416.7047 155.2174,416.5423 154.144,416.2735 153.1021,415.9007 152.1017,415.4275 151.1525,414.8586 150.2637,414.1994 149.4438,413.4563 148.7006,412.6363 148.0414,411.7475 147.4725,410.7983 146.9994,409.798 146.6266,408.756 146.3577,407.6826 146.1953,406.588 146.141,405.4827 146.1953,404.3774 146.3577,403.2828 146.6266,402.2094 146.9994,401.1674 147.4725,400.1671 148.0414,399.2179 148.7006,398.3291 149.4438,397.5092 150.2637,396.766 151.1525,396.1068 152.1017,395.5379 153.1021,395.0648 154.144,394.692 155.2174,394.4231 156.3121,394.2607 157.4173,394.2064 158.5226,394.2607 159.6172,394.4231 160.6907,394.692 161.7326,395.0648 162.7329,395.5379 163.6821,396.1068 164.5709,396.766 165.3909,397.5092 166.134,398.3291 166.7932,399.2179 167.3621,400.1671 167.8353,401.1674 168.2081,402.2094 168.477,403.2828 168.6393,404.3774 168.6936,405.4827 168.6393,406.588 168.477,407.6826 168.2081,408.756"/>
    <polygon points="179.6596,434.8698 179.9713,435.2137 180.2478,435.5865 180.4864,435.9847 180.6849,436.4043 180.8413,436.8413 180.954,437.2916 181.0222,437.7508 181.0449,438.2144 181.0222,438.678 180.954,439.1371 180.8413,439.5874 180.6849,440.0245 180.4864,440.4441 180.2478,440.8422 179.9713,441.215 179.6596,441.559 179.3156,441.8707 178.9428,442.1472 178.5447,442.3858 178.125,442.5843 177.688,442.7407 177.2377,442.8535 176.7786,442.9216 176.315,442.9443 175.8513,442.9216 175.3922,442.8535 174.9419,442.7407 174.5049,442.5843 174.0853,442.3858 173.6871,442.1472 173.3143,441.8707 172.9704,441.559 172.6586,441.215 172.3821,440.8422 172.1435,440.4441 171.945,440.0245 171.7887,439.5874 171.6759,439.1371 171.6078,438.678 171.585,438.2144 171.6078,437.7508 171.6759,437.2916 171.7887,436.8413 171.945,436.4043 172.1435,435.9847 172.3821,435.5865 172.6586,435.2137 172.9704,434.8698 173.3143,434.5581 173.6871,434.2815 174.0853,434.0429 174.5049,433.8444 174.9419,433.6881 175.3922,433.5753 175.8513,433.5072 176.315,433.4844 176.7786,433.5072 177.2377,433.5753 177.688,433.6881 178.125,433.8444 178.5447,434.0429 178.9428,434.2815 179.3156,434.5581"/>
    <polygon points="191.3165,417.4701 191.3708,418.5754 191.3165,419.6806 191.1541,420.7753 190.8852,421.8487 190.5124,422.8906 190.0393,423.891 189.4704,424.8402 188.8112,425.729 188.068,426.5489 187.2481,427.2921 186.3593,427.9513 185.4101,428.5202 184.4097,428.9933 183.3678,429.3661 182.2944,429.635 181.1998,429.7974 180.0945,429.8517 178.9892,429.7974 177.8946,429.635 176.8211,429.3661 175.7792,428.9933 174.7789,428.5202 173.8297,427.9513 172.9409,427.2921 172.1209,426.5489 171.3778,425.729 170.7186,424.8402 170.1497,423.891 169.6765,422.8906 169.3037,421.8487 169.0349,420.7753 168.8725,419.6806 168.8182,418.5754 168.8725,417.4701 169.0349,416.3755 169.3037,415.302 169.6765,414.2601 170.1497,413.2598 170.7186,412.3106 171.3778,411.4218 172.1209,410.6018 172.9409,409.8587 173.8297,409.1995 174.7789,408.6306 175.7792,408.1574 176.8211,407.7846 177.8946,407.5157 178.9892,407.3534 180.0945,407.2991 181.1998,407.3534 182.2944,407.5157 183.3678,407.7846 184.4097,408.1574 185.4101,408.6306 186.3593,409.1995 187.2481,409.8587 188.068,410.6018 188.8112,411.4218 189.4704,412.3106 190.0393,413.2598 190.5124,414.2601 190.8852,415.302 191.1541,416.3755"/>
    <polygon points="216.0729,386.1253 216.7321,385.2364 217.4753,384.4165 218.2952,383.6733 219.184,383.0141 220.1332,382.4452 221.1336,381.9721 222.1755,381.5993 223.2489,381.3304 224.3435,381.168 225.4488,381.1137 226.5541,381.168 227.6487,381.3304 228.7222,381.5993 229.7641,381.9721 230.7644,382.4452 231.7136,383.0141 232.6024,383.6733 233.4224,384.4165 234.1655,385.2364 234.8247,386.1253 235.3936,387.0744 235.8668,388.0748 236.2396,389.1167 236.5085,390.1901 236.6708,391.2848 236.7251,392.39 236.6708,393.4953 236.5085,394.5899 236.2396,395.6634 235.8668,396.7053 235.3936,397.7057 234.8247,398.6548 234.1655,399.5436 233.4224,400.3636 232.6024,401.1067 231.7136,401.7659 230.7644,402.3349 229.7641,402.808 228.7222,403.1808 227.6487,403.4497 226.5541,403.612 225.4488,403.6663 224.3435,403.612 223.2489,403.4497 222.1755,403.1808 221.1336,402.808 220.1332,402.3349 219.184,401.7659 218.2952,401.1067 217.4753,400.3636 216.7321,399.5436 216.0729,398.6548 215.504,397.7057 215.0309,396.7053 214.6581,395.6634 214.3892,394.5899 214.2268,393.4953 214.1725,392.39 214.2268,391.2848 214.3892,390.1901 214.6581,389.1167 215.0309,388.0748 215.504,387.0744"/>
    <polygon points="248.4674,371.9495 250.2393,370.3435 251.8453,368.5715 253.2699,366.6507 254.4994,364.5995 255.5219,362.4376 256.3275,360.186 256.9086,357.8662 257.2595,355.5006 257.3768,353.112 257.2595,350.7235 256.9086,348.3579 256.3275,346.0381 255.5219,343.7864 254.4994,341.6246 253.2699,339.5734 251.8453,337.6525 250.2393,335.8806 248.4674,334.2746 246.5466,332.85 244.4953,331.6205 242.3335,330.598 240.0818,329.7924 237.762,329.2113 235.3965,328.8604 233.0079,328.7431 230.6193,328.8604 228.2537,329.2113 225.9339,329.7924 223.6823,330.598 221.5204,331.6205 219.4692,332.85 217.5484,334.2746 215.7764,335.8806 214.1704,337.6525 212.7458,339.5734 211.5164,341.6246 210.4939,343.7864 209.6882,346.0381 209.1071,348.3579 208.7562,350.7235 208.6389,353.112 208.7562,355.5006 209.1071,357.8662 209.6882,360.186 210.4939,362.4376 211.5164,364.5995 212.7458,366.6507 214.1704,368.5715 215.7764,370.3435 217.5484,371.9495 219.4692,373.3741 221.5204,374.6035 223.6823,375.626 225.9339,376.4317 228.2537,377.0128 230.6193,377.3637 233.0079,377.481 235.3965,377.3637 237.762,377.0128 240.0818,376.4317 242.3335,375.626 244.4953,374.6035 246.5466,373.3741"/>
    <polygon points="245.7195,394.4101 245.2692,394.2973 244.8101,394.2292 244.3465,394.2064 243.8828,394.2292 243.4237,394.2973 242.9734,394.4101 242.5364,394.5664 242.1168,394.7649 241.7186,395.0035 241.3458,395.2801 241.0019,395.5918 240.6901,395.9357 240.4136,396.3085 240.175,396.7067 239.9765,397.1263 239.8202,397.5633 239.7074,398.0136 239.6393,398.4728 239.6165,398.9364 239.6393,399.4 239.7074,399.8591 239.8202,400.3094 239.9765,400.7465 240.175,401.1661 240.4136,401.5642 240.6901,401.937 241.0019,402.281 241.3458,402.5927 241.7186,402.8692 242.1168,403.1078 242.5364,403.3063 242.9734,403.4627 243.4237,403.5755 243.8828,403.6436 244.3465,403.6663 244.8101,403.6436 245.2692,403.5755 245.7195,403.4627 246.1565,403.3063 246.5762,403.1078 246.9743,402.8692 247.3471,402.5927 247.6911,402.281 248.0028,401.937 248.2793,401.5642 248.5179,401.1661 248.7164,400.7465 248.8728,400.3094 248.9855,399.8591 249.0537,399.4 249.0764,398.9364 249.0537,398.4728 248.9855,398.0136 248.8728,397.5633 248.7164,397.1263 248.5179,396.7067 248.2793,396.3085 248.0028,395.9357 247.6911,395.5918 247.3471,395.2801 246.9743,395.0035 246.5762,394.7649 246.1565,394.5664"/>
    <polygon points="255.2214,400.7755 254.7623,400.8436 254.312,400.9564 253.875,401.1128 253.4553,401.3112 253.0572,401.5499 252.6844,401.8264 252.3404,402.1381 252.0287,402.482 251.7522,402.8549 251.5136,403.253 251.3151,403.6726 251.1587,404.1097 251.046,404.5599 250.9778,405.0191 250.9551,405.4827 250.9778,405.9463 251.046,406.4055 251.1587,406.8557 251.3151,407.2928 251.5136,407.7124 251.7522,408.1105 252.0287,408.4834 252.3404,408.8273 252.6844,409.139 253.0572,409.4155 253.4553,409.6542 253.875,409.8526 254.312,410.009 254.7623,410.1218 255.2214,410.1899 255.685,410.2127 256.1487,410.1899 256.6078,410.1218 257.0581,410.009 257.4951,409.8526 257.9147,409.6542 258.3129,409.4155 258.6857,409.139 259.0296,408.8273 259.3414,408.4834 259.6179,408.1105 259.8565,407.7124 260.055,407.2928 260.2113,406.8557 260.3241,406.4055 260.3922,405.9463 260.415,405.4827 260.3922,405.0191 260.3241,404.5599 260.2113,404.1097 260.055,403.6726 259.8565,403.253 259.6179,402.8549 259.3414,402.482 259.0296,402.1381 258.6857,401.8264 258.3129,401.5499 257.9147,401.3112 257.4951,401.1128 257.0581,400.9564 256.6078,400.8436 256.1487,400.7755 255.685,400.7527"/>
    <polygon points="270.6799,382.843 270.3682,382.4991 270.0243,382.1874 269.6515,381.9109 269.2533,381.6722 268.8337,381.4738 268.3967,381.3174 267.9464,381.2046 267.4872,381.1365 267.0236,381.1137 266.56,381.1365 266.1009,381.2046 265.6506,381.3174 265.2135,381.4738 264.7939,381.6722 264.3958,381.9109 264.023,382.1874 263.679,382.4991 263.3673,382.843 263.0908,383.2159 262.8522,383.614 262.6537,384.0336 262.4973,384.4707 262.3845,384.9209 262.3164,385.3801 262.2936,385.8437 262.3164,386.3073 262.3845,386.7665 262.4973,387.2167 262.6537,387.6538 262.8522,388.0734 263.0908,388.4715 263.3673,388.8444 263.679,389.1883 264.023,389.5 264.3958,389.7765 264.7939,390.0152 265.2135,390.2136 265.6506,390.37 266.1009,390.4828 266.56,390.5509 267.0236,390.5737 267.4872,390.5509 267.9464,390.4828 268.3967,390.37 268.8337,390.2136 269.2533,390.0152 269.6515,389.7765 270.0243,389.5 270.3682,389.1883 270.6799,388.8444 270.9565,388.4715 271.1951,388.0734 271.3935,387.6538 271.5499,387.2167 271.6627,386.7665 271.7308,386.3073 271.7536,385.8437 271.7308,385.3801 271.6627,384.9209 271.5499,384.4707 271.3935,384.0336 271.1951,383.614 270.9565,383.2159"/>
    <polygon points="280.1791,372.4695 280.748,371.5203 281.2211,370.52 281.5939,369.478 281.8628,368.4046 282.0252,367.31 282.0795,366.2047 282.0252,365.0994 281.8628,364.0048 281.5939,362.9314 281.2211,361.8894 280.748,360.8891 280.1791,359.9399 279.5199,359.0511 278.7767,358.2311 277.9568,357.488 277.0679,356.8288 276.1188,356.2599 275.1184,355.7868 274.0765,355.4139 273.003,355.1451 271.9084,354.9827 270.8031,354.9284 269.6979,354.9827 268.6033,355.1451 267.5298,355.4139 266.4879,355.7868 265.4875,356.2599 264.5384,356.8288 263.6495,357.488 262.8296,358.2311 262.0864,359.0511 261.4272,359.9399 260.8583,360.8891 260.3852,361.8894 260.0124,362.9314 259.7435,364.0048 259.5811,365.0994 259.5268,366.2047 259.5811,367.31 259.7435,368.4046 260.0124,369.478 260.3852,370.52 260.8583,371.5203 261.4272,372.4695 262.0864,373.3583 262.8296,374.1783 263.6495,374.9214 264.5384,375.5806 265.4875,376.1495 266.4879,376.6226 267.5298,376.9955 268.6033,377.2643 269.6979,377.4267 270.8031,377.481 271.9084,377.4267 273.003,377.2643 274.0765,376.9955 275.1184,376.6226 276.1188,376.1495 277.0679,375.5806 277.9568,374.9214 278.7767,374.1783 279.5199,373.3583"/>
    <polygon points="285.1745,374.1241 285.3309,374.5611 285.5293,374.9807 285.768,375.3789 286.0445,375.7517 286.3562,376.0956 286.7001,376.4074 287.073,376.6839 287.4711,376.9225 287.8907,377.121 288.3277,377.2773 288.778,377.3901 289.2372,377.4582 289.7008,377.481 290.1644,377.4582 290.6236,377.3901 291.0738,377.2773 291.5109,377.121 291.9305,376.9225 292.3286,376.6839 292.7015,376.4074 293.0454,376.0956 293.3571,375.7517 293.6336,375.3789 293.8723,374.9807 294.0707,374.5611 294.2271,374.1241 294.3399,373.6738 294.408,373.2147 294.4308,372.751 294.408,372.2874 294.3399,371.8283 294.2271,371.378 294.0707,370.941 293.8723,370.5213 293.6336,370.1232 293.3571,369.7504 293.0454,369.4064 292.7015,369.0947 292.3286,368.8182 291.9305,368.5796 291.5109,368.3811 291.0738,368.2247 290.6236,368.1119 290.1644,368.0438 289.7008,368.0211 289.2372,368.0438 288.778,368.1119 288.3277,368.2247 287.8907,368.3811 287.4711,368.5796 287.073,368.8182 286.7001,369.0947 286.3562,369.4064 286.0445,369.7504 285.768,370.1232 285.5293,370.5213 285.3309,370.941 285.1745,371.378 285.0617,371.8283 284.9936,372.2874 284.9708,372.751 284.9936,373.2147 285.0617,373.6738"/>
    <polygon points="289.2372,354.9512 288.778,355.0193 288.3277,355.1321 287.8907,355.2884 287.4711,355.4869 287.073,355.7255 286.7001,356.002 286.3562,356.3138 286.0445,356.6577 285.768,357.0305 285.5293,357.4287 285.3309,357.8483 285.1745,358.2853 285.0617,358.7356 284.9936,359.1947 284.9708,359.6584 284.9936,360.122 285.0617,360.5811 285.1745,361.0314 285.3309,361.4684 285.5293,361.8881 285.768,362.2862 286.0445,362.659 286.3562,363.003 286.7001,363.3147 287.073,363.5912 287.4711,363.8298 287.8907,364.0283 288.3277,364.1847 288.778,364.2975 289.2372,364.3656 289.7008,364.3883 290.1644,364.3656 290.6236,364.2975 291.0738,364.1847 291.5109,364.0283 291.9305,363.8298 292.3286,363.5912 292.7015,363.3147 293.0454,363.003 293.3571,362.659 293.6336,362.2862 293.8723,361.8881 294.0707,361.4684 294.2271,361.0314 294.3399,360.5811 294.408,360.122 294.4308,359.6584 294.408,359.1947 294.3399,358.7356 294.2271,358.2853 294.0707,357.8483 293.8723,357.4287 293.6336,357.0305 293.3571,356.6577 293.0454,356.3138 292.7015,356.002 292.3286,355.7255 291.9305,355.4869 291.5109,355.2884 291.0738,355.1321 290.6236,355.0193 290.1644,354.9512 289.7008,354.9284"/>
    <polygon points="304.384,343.364 304.04,343.6757 303.6672,343.9522 303.2691,344.1908 302.8495,344.3893 302.4124,344.5457 301.9621,344.6585 301.503,344.7266 301.0394,344.7493 300.5758,344.7266 300.1166,344.6585 299.6663,344.5457 299.2293,344.3893 298.8097,344.1908 298.4115,343.9522 298.0387,343.6757 297.6948,343.364 297.3831,343.02 297.1065,342.6472 296.8679,342.2491 296.6694,341.8294 296.5131,341.3924 296.4003,340.9421 296.3322,340.483 296.3094,340.0194 296.3322,339.5557 296.4003,339.0966 296.5131,338.6463 296.6694,338.2093 296.8679,337.7897 297.1065,337.3915 297.3831,337.0187 297.6948,336.6748 298.0387,336.363 298.4115,336.0865 298.8097,335.8479 299.2293,335.6494 299.6663,335.4931 300.1166,335.3803 300.5758,335.3122 301.0394,335.2894 301.503,335.3122 301.9621,335.3803 302.4124,335.4931 302.8495,335.6494 303.2691,335.8479 303.6672,336.0865 304.04,336.363 304.384,336.6748 304.6957,337.0187 304.9722,337.3915 305.2108,337.7897 305.4093,338.2093 305.5657,338.6463 305.6785,339.0966 305.7466,339.5557 305.7693,340.0194 305.7466,340.483 305.6785,340.9421 305.5657,341.3924 305.4093,341.8294 305.2108,342.2491 304.9722,342.6472 304.6957,343.02"/>
    <polygon points="290.1644,338.1802 289.7008,338.203 289.2372,338.1802 288.778,338.1121 288.3277,337.9993 287.8907,337.843 287.4711,337.6445 287.073,337.4059 286.7001,337.1294 286.3562,336.8176 286.0445,336.4737 285.768,336.1009 285.5293,335.7027 285.3309,335.2831 285.1745,334.8461 285.0617,334.3958 284.9936,333.9367 284.9708,333.473 284.9936,333.0094 285.0617,332.5503 285.1745,332.1 285.3309,331.663 285.5293,331.2433 285.768,330.8452 286.0445,330.4724 286.3562,330.1284 286.7001,329.8167 287.073,329.5402 287.4711,329.3016 287.8907,329.1031 288.3277,328.9467 288.778,328.8339 289.2372,328.7658 289.7008,328.7431 290.1644,328.7658 290.6236,328.8339 291.0738,328.9467 291.5109,329.1031 291.9305,329.3016 292.3286,329.5402 292.7015,329.8167 293.0454,330.1284 293.3571,330.4724 293.6336,330.8452 293.8723,331.2433 294.0707,331.663 294.2271,332.1 294.3399,332.5503 294.408,333.0094 294.4308,333.473 294.408,333.9367 294.3399,334.3958 294.2271,334.8461 294.0707,335.2831 293.8723,335.7027 293.6336,336.1009 293.3571,336.4737 293.0454,336.8176 292.7015,337.1294 292.3286,337.4059 291.9305,337.6445 291.5109,337.843 291.0738,337.9993 290.6236,338.1121"/>
    <polygon points="260.0124,336.746 259.7435,337.8195 259.5811,338.9141 259.5268,340.0194 259.5811,341.1246 259.7435,342.2193 260.0124,343.2927 260.3852,344.3346 260.8583,345.335 261.4272,346.2841 262.0864,347.173 262.8296,347.9929 263.6495,348.7361 264.5384,349.3953 265.4875,349.9642 266.4879,350.4373 267.5298,350.8101 268.6033,351.079 269.6979,351.2414 270.8031,351.2957 271.9084,351.2414 273.003,351.079 274.0765,350.8101 275.1184,350.4373 276.1188,349.9642 277.0679,349.3953 277.9568,348.7361 278.7767,347.9929 279.5199,347.173 280.1791,346.2841 280.748,345.335 281.2211,344.3346 281.5939,343.2927 281.8628,342.2193 282.0252,341.1246 282.0795,340.0194 282.0252,338.9141 281.8628,337.8195 281.5939,336.746 281.2211,335.7041 280.748,334.7038 280.1791,333.7546 279.5199,332.8658 278.7767,332.0458 277.9568,331.3027 277.0679,330.6435 276.1188,330.0746 275.1184,329.6014 274.0765,329.2286 273.003,328.9597 271.9084,328.7974 270.8031,328.7431 269.6979,328.7974 268.6033,328.9597 267.5298,329.2286 266.4879,329.6014 265.4875,330.0746 264.5384,330.6435 263.6495,331.3027 262.8296,332.0458 262.0864,332.8658 261.4272,333.7546 260.8583,334.7038 260.3852,335.7041"/>
    <polygon points="262.2936,320.3804 262.3164,320.844 262.3845,321.3031 262.4973,321.7534 262.6537,322.1904 262.8522,322.6101 263.0908,323.0082 263.3673,323.381 263.679,323.725 264.023,324.0367 264.3958,324.3132 264.7939,324.5518 265.2135,324.7503 265.6506,324.9067 266.1009,325.0195 266.56,325.0876 267.0236,325.1103 267.4872,325.0876 267.9464,325.0195 268.3967,324.9067 268.8337,324.7503 269.2533,324.5518 269.6515,324.3132 270.0243,324.0367 270.3682,323.725 270.6799,323.381 270.9565,323.0082 271.1951,322.6101 271.3935,322.1904 271.5499,321.7534 271.6627,321.3031 271.7308,320.844 271.7536,320.3804 271.7308,319.9167 271.6627,319.4576 271.5499,319.0073 271.3935,318.5703 271.1951,318.1507 270.9565,317.7525 270.6799,317.3797 270.3682,317.0358 270.0243,316.724 269.6515,316.4475 269.2533,316.2089 268.8337,316.0104 268.3967,315.8541 267.9464,315.7413 267.4872,315.6732 267.0236,315.6504 266.56,315.6732 266.1009,315.7413 265.6506,315.8541 265.2135,316.0104 264.7939,316.2089 264.3958,316.4475 264.023,316.724 263.679,317.0358 263.3673,317.3797 263.0908,317.7525 262.8522,318.1507 262.6537,318.5703 262.4973,319.0073 262.3845,319.4576 262.3164,319.9167"/>
    <polygon points="256.9086,253.1248 257.2595,250.7593 257.3768,248.3707 257.2595,245.9821 256.9086,243.6165 256.3275,241.2968 255.5219,239.0451 254.4994,236.8832 253.2699,234.832 251.8453,232.9112 250.2393,231.1392 248.4674,229.5332 246.5466,228.1086 244.4953,226.8792 242.3335,225.8567 240.0818,225.051 237.762,224.47 235.3965,224.1191 233.0079,224.0017 230.6193,224.1191 228.2537,224.47 225.9339,225.051 223.6823,225.8567 221.5204,226.8792 219.4692,228.1086 217.5484,229.5332 215.7764,231.1392 214.1704,232.9112 212.7458,234.832 211.5164,236.8832 210.4939,239.0451 209.6882,241.2968 209.1071,243.6165 208.7562,245.9821 208.6389,248.3707 208.7562,250.7593 209.1071,253.1248 209.6882,255.4446 210.4939,257.6963 211.5164,259.8581 212.7458,261.9094 214.1704,263.8302 215.7764,265.6022 217.5484,267.2082 219.4692,268.6328 221.5204,269.8622 223.6823,270.8847 225.9339,271.6903 228.2537,272.2714 230.6193,272.6223 233.0079,272.7397 235.3965,272.6223 237.762,272.2714 240.0818,271.6903 242.3335,270.8847 244.4953,269.8622 246.5466,268.6328 248.4674,267.2082 250.2393,265.6022 251.8453,263.8302 253.2699,261.9094 254.4994,259.8581 255.5219,257.6963 256.3275,255.4446"/>
    <polygon points="190.6542,244.7144 190.9981,245.0261 191.3099,245.37 191.5864,245.7429 191.825,246.141 192.0235,246.5606 192.1798,246.9977 192.2926,247.4479 192.3607,247.9071 192.3835,248.3707 192.3607,248.8343 192.2926,249.2935 192.1798,249.7437 192.0235,250.1808 191.825,250.6004 191.5864,250.9985 191.3099,251.3714 190.9981,251.7153 190.6542,252.027 190.2814,252.3035 189.8832,252.5422 189.4636,252.7406 189.0266,252.897 188.5763,253.0098 188.1172,253.0779 187.6535,253.1007 187.1899,253.0779 186.7308,253.0098 186.2805,252.897 185.8435,252.7406 185.4238,252.5422 185.0257,252.3035 184.6529,252.027 184.3089,251.7153 183.9972,251.3714 183.7207,250.9985 183.4821,250.6004 183.2836,250.1808 183.1272,249.7437 183.0145,249.2935 182.9463,248.8343 182.9236,248.3707 182.9463,247.9071 183.0145,247.4479 183.1272,246.9977 183.2836,246.5606 183.4821,246.141 183.7207,245.7429 183.9972,245.37 184.3089,245.0261 184.6529,244.7144 185.0257,244.4379 185.4238,244.1992 185.8435,244.0008 186.2805,243.8444 186.7308,243.7316 187.1899,243.6635 187.6535,243.6407 188.1172,243.6635 188.5763,243.7316 189.0266,243.8444 189.4636,244.0008 189.8832,244.1992 190.2814,244.4379"/>
    <polygon points="192.3607,234.8144 192.3835,235.278 192.3607,235.7416 192.2926,236.2008 192.1798,236.6511 192.0235,237.0881 191.825,237.5077 191.5864,237.9059 191.3099,238.2787 190.9981,238.6226 190.6542,238.9343 190.2814,239.2109 189.8832,239.4495 189.4636,239.648 189.0266,239.8043 188.5763,239.9171 188.1172,239.9852 187.6535,240.008 187.1899,239.9852 186.7308,239.9171 186.2805,239.8043 185.8435,239.648 185.4238,239.4495 185.0257,239.2109 184.6529,238.9343 184.3089,238.6226 183.9972,238.2787 183.7207,237.9059 183.4821,237.5077 183.2836,237.0881 183.1272,236.6511 183.0145,236.2008 182.9463,235.7416 182.9236,235.278 182.9463,234.8144 183.0145,234.3553 183.1272,233.905 183.2836,233.4679 183.4821,233.0483 183.7207,232.6502 183.9972,232.2774 184.3089,231.9334 184.6529,231.6217 185.0257,231.3452 185.4238,231.1066 185.8435,230.9081 186.2805,230.7517 186.7308,230.6389 187.1899,230.5708 187.6535,230.5481 188.1172,230.5708 188.5763,230.6389 189.0266,230.7517 189.4636,230.9081 189.8832,231.1066 190.2814,231.3452 190.6542,231.6217 190.9981,231.9334 191.3099,232.2774 191.5864,232.6502 191.825,233.0483 192.0235,233.4679 192.1798,233.905 192.2926,234.3553"/>
    <polygon points="202.7717,210.9091 203.8769,210.9634 204.9716,211.1257 206.045,211.3946 207.0869,211.7674 208.0873,212.2405 209.0364,212.8095 209.9253,213.4687 210.7452,214.2118 211.4884,215.0317 212.1476,215.9206 212.7165,216.8697 213.1896,217.8701 213.5624,218.912 213.8313,219.9855 213.9937,221.0801 214.048,222.1854 213.9937,223.2906 213.8313,224.3853 213.5624,225.4587 213.1896,226.5006 212.7165,227.501 212.1476,228.4501 211.4884,229.339 210.7452,230.1589 209.9253,230.9021 209.0364,231.5613 208.0873,232.1302 207.0869,232.6033 206.045,232.9761 204.9716,233.245 203.8769,233.4074 202.7717,233.4617 201.6664,233.4074 200.5718,233.245 199.4983,232.9761 198.4564,232.6033 197.456,232.1302 196.5069,231.5613 195.618,230.9021 194.7981,230.1589 194.055,229.339 193.3957,228.4501 192.8268,227.501 192.3537,226.5006 191.9809,225.4587 191.712,224.3853 191.5496,223.2906 191.4953,222.1854 191.5496,221.0801 191.712,219.9855 191.9809,218.912 192.3537,217.8701 192.8268,216.8697 193.3957,215.9206 194.055,215.0317 194.7981,214.2118 195.618,213.4687 196.5069,212.8095 197.456,212.2405 198.4564,211.7674 199.4983,211.3946 200.5718,211.1257 201.6664,210.9634"/>
    <polygon points="196.5069,205.3759 195.618,204.7167 194.7981,203.9736 194.055,203.1536 193.3957,202.2648 192.8268,201.3156 192.3537,200.3153 191.9809,199.2734 191.712,198.1999 191.5496,197.1053 191.4953,196.0 191.5496,194.8948 191.712,193.8001 191.9809,192.7267 192.3537,191.6848 192.8268,190.6844 193.3957,189.7352 194.055,188.8464 194.7981,188.0265 195.618,187.2833 196.5069,186.6241 197.456,186.0552 198.4564,185.5821 199.4983,185.2093 200.5718,184.9404 201.6664,184.778 202.7717,184.7237 203.8769,184.778 204.9716,184.9404 206.045,185.2093 207.0869,185.5821 208.0873,186.0552 209.0364,186.6241 209.9253,187.2833 210.7452,188.0265 211.4884,188.8464 212.1476,189.7352 212.7165,190.6844 213.1896,191.6848 213.5624,192.7267 213.8313,193.8001 213.9937,194.8948 214.048,196.0 213.9937,197.1053 213.8313,198.1999 213.5624,199.2734 213.1896,200.3153 212.7165,201.3156 212.1476,202.2648 211.4884,203.1536 210.7452,203.9736 209.9253,204.7167 209.0364,205.3759 208.0873,205.9448 207.0869,206.418 206.045,206.7908 204.9716,207.0597 203.8769,207.222 202.7717,207.2763 201.6664,207.222 200.5718,207.0597 199.4983,206.7908 198.4564,206.418 197.456,205.9448"/>
    <polygon points="183.0145,210.0155 182.9463,209.5563 182.9236,209.0927 182.9463,208.6291 183.0145,208.1699 183.1272,207.7197 183.2836,207.2826 183.4821,206.863 183.7207,206.4649 183.9972,206.092 184.3089,205.7481 184.6529,205.4364 185.0257,205.1599 185.4238,204.9212 185.8435,204.7228 186.2805,204.5664 186.7308,204.4536 187.1899,204.3855 187.6535,204.3627 188.1172,204.3855 188.5763,204.4536 189.0266,204.5664 189.4636,204.7228 189.8832,204.9212 190.2814,205.1599 190.6542,205.4364 190.9981,205.7481 191.3099,206.092 191.5864,206.4649 191.825,206.863 192.0235,207.2826 192.1798,207.7197 192.2926,208.1699 192.3607,208.6291 192.3835,209.0927 192.3607,209.5563 192.2926,210.0155 192.1798,210.4657 192.0235,210.9028 191.825,211.3224 191.5864,211.7205 191.3099,212.0934 190.9981,212.4373 190.6542,212.749 190.2814,213.0255 189.8832,213.2642 189.4636,213.4626 189.0266,213.619 188.5763,213.7318 188.1172,213.7999 187.6535,213.8227 187.1899,213.7999 186.7308,213.7318 186.2805,213.619 185.8435,213.4626 185.4238,213.2642 185.0257,213.0255 184.6529,212.749 184.3089,212.4373 183.9972,212.0934 183.7207,211.7205 183.4821,211.3224 183.2836,210.9028 183.1272,210.4657"/>
    <polygon points="168.8725,184.0126 168.8182,182.9074 168.8725,181.8021 169.0349,180.7075 169.3037,179.634 169.6765,178.5921 170.1497,177.5917 170.7186,176.6426 171.3778,175.7537 172.1209,174.9338 172.9409,174.1907 173.8297,173.5314 174.7789,172.9625 175.7792,172.4894 176.8211,172.1166 177.8946,171.8477 178.9892,171.6853 180.0945,171.631 181.1998,171.6853 182.2944,171.8477 183.3678,172.1166 184.4097,172.4894 185.4101,172.9625 186.3593,173.5314 187.2481,174.1907 188.068,174.9338 188.8112,175.7537 189.4704,176.6426 190.0393,177.5917 190.5124,178.5921 190.8852,179.634 191.1541,180.7075 191.3165,181.8021 191.3708,182.9074 191.3165,184.0126 191.1541,185.1073 190.8852,186.1807 190.5124,187.2226 190.0393,188.223 189.4704,189.1721 188.8112,190.061 188.068,190.8809 187.2481,191.6241 186.3593,192.2833 185.4101,192.8522 184.4097,193.3253 183.3678,193.6981 182.2944,193.967 181.1998,194.1294 180.0945,194.1837 178.9892,194.1294 177.8946,193.967 176.8211,193.6981 175.7792,193.3253 174.7789,192.8522 173.8297,192.2833 172.9409,191.6241 172.1209,190.8809 171.3778,190.061 170.7186,189.1721 170.1497,188.223 169.6765,187.2226 169.3037,186.1807 169.0349,185.1073"/>
    <polygon points="160.4501,168.4416 160.6065,168.0046 160.8049,167.585 161.0435,167.1869 161.3201,166.814 161.6318,166.4701 161.9757,166.1584 162.3485,165.8819 162.7467,165.6432 163.1663,165.4448 163.6033,165.2884 164.0536,165.1756 164.5128,165.1075 164.9764,165.0847 165.44,165.1075 165.8991,165.1756 166.3494,165.2884 166.7865,165.4448 167.2061,165.6432 167.6042,165.8819 167.977,166.1584 168.321,166.4701 168.6327,166.814 168.9092,167.1869 169.1478,167.585 169.3463,168.0046 169.5027,168.4416 169.6155,168.8919 169.6836,169.3511 169.7064,169.8147 169.6836,170.2783 169.6155,170.7375 169.5027,171.1877 169.3463,171.6248 169.1478,172.0444 168.9092,172.4425 168.6327,172.8154 168.321,173.1593 167.977,173.471 167.6042,173.7475 167.2061,173.9862 166.7865,174.1846 166.3494,174.341 165.8991,174.4538 165.44,174.5219 164.9764,174.5447 164.5128,174.5219 164.0536,174.4538 163.6033,174.341 163.1663,174.1846 162.7467,173.9862 162.3485,173.7475 161.9757,173.471 161.6318,173.1593 161.3201,172.8154 161.0435,172.4425 160.8049,172.0444 160.6065,171.6248 160.4501,171.1877 160.3373,170.7375 160.2692,170.2783 160.2464,169.8147 160.2692,169.3511 160.3373,168.8919"/>
    <polygon points="172.3821,152.8035 172.1435,152.4054 171.945,151.9858 171.7887,151.5487 171.6759,151.0985 171.6078,150.6393 171.585,150.1757 171.6078,149.7121 171.6759,149.2529 171.7887,148.8026 171.945,148.3656 172.1435,147.946 172.3821,147.5479 172.6586,147.175 172.9704,146.8311 173.3143,146.5194 173.6871,146.2429 174.0853,146.0042 174.5049,145.8058 174.9419,145.6494 175.3922,145.5366 175.8513,145.4685 176.315,145.4457 176.7786,145.4685 177.2377,145.5366 177.688,145.6494 178.125,145.8058 178.5447,146.0042 178.9428,146.2429 179.3156,146.5194 179.6596,146.8311 179.9713,147.175 180.2478,147.5479 180.4864,147.946 180.6849,148.3656 180.8413,148.8026 180.954,149.2529 181.0222,149.7121 181.0449,150.1757 181.0222,150.6393 180.954,151.0985 180.8413,151.5487 180.6849,151.9858 180.4864,152.4054 180.2478,152.8035 179.9713,153.1763 179.6596,153.5203 179.3156,153.832 178.9428,154.1085 178.5447,154.3472 178.125,154.5456 177.688,154.702 177.2377,154.8148 176.7786,154.8829 176.315,154.9057 175.8513,154.8829 175.3922,154.8148 174.9419,154.702 174.5049,154.5456 174.0853,154.3472 173.6871,154.1085 173.3143,153.832 172.9704,153.5203 172.6586,153.1763"/>
    <polygon points="192.1798,158.0951 192.0235,158.5321 191.825,158.9517 191.5864,159.3499 191.3099,159.7227 190.9981,160.0666 190.6542,160.3783 190.2814,160.6548 189.8832,160.8935 189.4636,161.0919 189.0266,161.2483 188.5763,161.3611 188.1172,161.4292 187.6535,161.452 187.1899,161.4292 186.7308,161.3611 186.2805,161.2483 185.8435,161.0919 185.4238,160.8935 185.0257,160.6548 184.6529,160.3783 184.3089,160.0666 183.9972,159.7227 183.7207,159.3499 183.4821,158.9517 183.2836,158.5321 183.1272,158.0951 183.0145,157.6448 182.9463,157.1856 182.9236,156.722 182.9463,156.2584 183.0145,155.7992 183.1272,155.349 183.2836,154.9119 183.4821,154.4923 183.7207,154.0942 183.9972,153.7214 184.3089,153.3774 184.6529,153.0657 185.0257,152.7892 185.4238,152.5506 185.8435,152.3521 186.2805,152.1957 186.7308,152.0829 187.1899,152.0148 187.6535,151.992 188.1172,152.0148 188.5763,152.0829 189.0266,152.1957 189.4636,152.3521 189.8832,152.5506 190.2814,152.7892 190.6542,153.0657 190.9981,153.3774 191.3099,153.7214 191.5864,154.0942 191.825,154.4923 192.0235,154.9119 192.1798,155.349 192.2926,155.7992 192.3607,156.2584 192.3835,156.722 192.3607,157.1856 192.2926,157.6448"/>
    <polygon points="206.045,154.4201 204.9716,154.689 203.8769,154.8514 202.7717,154.9057 201.6664,154.8514 200.5718,154.689 199.4983,154.4201 198.4564,154.0473 197.456,153.5742 196.5069,153.0053 195.618,152.3461 194.7981,151.6029 194.055,150.783 193.3957,149.8941 192.8268,148.945 192.3537,147.9446 191.9809,146.9027 191.712,145.8293 191.5496,144.7346 191.4953,143.6294 191.5496,142.5241 191.712,141.4295 191.9809,140.356 192.3537,139.3141 192.8268,138.3137 193.3957,137.3646 194.055,136.4757 194.7981,135.6558 195.618,134.9127 196.5069,134.2534 197.456,133.6845 198.4564,133.2114 199.4983,132.8386 200.5718,132.5697 201.6664,132.4073 202.7717,132.353 203.8769,132.4073 204.9716,132.5697 206.045,132.8386 207.0869,133.2114 208.0873,133.6845 209.0364,134.2534 209.9253,134.9127 210.7452,135.6558 211.4884,136.4757 212.1476,137.3646 212.7165,138.3137 213.1896,139.3141 213.5624,140.356 213.8313,141.4295 213.9937,142.5241 214.048,143.6294 213.9937,144.7346 213.8313,145.8293 213.5624,146.9027 213.1896,147.9446 212.7165,148.945 212.1476,149.8941 211.4884,150.783 210.7452,151.6029 209.9253,152.3461 209.0364,153.0053 208.0873,153.5742 207.0869,154.0473"/>
    <polygon points="213.5624,173.088 213.1896,174.1299 212.7165,175.1303 212.1476,176.0795 211.4884,176.9683 210.7452,177.7882 209.9253,178.5314 209.0364,179.1906 208.0873,179.7595 207.0869,180.2326 206.045,180.6054 204.9716,180.8743 203.8769,181.0367 202.7717,181.091 201.6664,181.0367 200.5718,180.8743 199.4983,180.6054 198.4564,180.2326 197.456,179.7595 196.5069,179.1906 195.618,178.5314 194.7981,177.7882 194.055,176.9683 193.3957,176.0795 192.8268,175.1303 192.3537,174.1299 191.9809,173.088 191.712,172.0146 191.5496,170.92 191.4953,169.8147 191.5496,168.7094 191.712,167.6148 191.9809,166.5413 192.3537,165.4994 192.8268,164.4991 193.3957,163.5499 194.055,162.6611 194.7981,161.8411 195.618,161.098 196.5069,160.4388 197.456,159.8699 198.4564,159.3967 199.4983,159.0239 200.5718,158.7551 201.6664,158.5927 202.7717,158.5384 203.8769,158.5927 204.9716,158.7551 206.045,159.0239 207.0869,159.3967 208.0873,159.8699 209.0364,160.4388 209.9253,161.098 210.7452,161.8411 211.4884,162.6611 212.1476,163.5499 212.7165,164.4991 213.1896,165.4994 213.5624,166.5413 213.8313,167.6148 213.9937,168.7094 214.048,169.8147 213.9937,170.92 213.8313,172.0146"/>
    <polygon points="232.6024,200.376 233.4224,201.1191 234.1655,201.9391 234.8247,202.8279 235.3936,203.7771 235.8668,204.7774 236.2396,205.8194 236.5085,206.8928 236.6708,207.9874 236.7251,209.0927 236.6708,210.198 236.5085,211.2926 236.2396,212.366 235.8668,213.4079 235.3936,214.4083 234.8247,215.3575 234.1655,216.2463 233.4224,217.0662 232.6024,217.8094 231.7136,218.4686 230.7644,219.0375 229.7641,219.5106 228.7222,219.8834 227.6487,220.1523 226.5541,220.3147 225.4488,220.369 224.3435,220.3147 223.2489,220.1523 222.1755,219.8834 221.1336,219.5106 220.1332,219.0375 219.184,218.4686 218.2952,217.8094 217.4753,217.0662 216.7321,216.2463 216.0729,215.3575 215.504,214.4083 215.0309,213.4079 214.6581,212.366 214.3892,211.2926 214.2268,210.198 214.1725,209.0927 214.2268,207.9874 214.3892,206.8928 214.6581,205.8194 215.0309,204.7774 215.504,203.7771 216.0729,202.8279 216.7321,201.9391 217.4753,201.1191 218.2952,200.376 219.184,199.7168 220.1332,199.1479 221.1336,198.6747 222.1755,198.3019 223.2489,198.0331 224.3435,197.8707 225.4488,197.8164 226.5541,197.8707 227.6487,198.0331 228.7222,198.3019 229.7641,198.6747 230.7644,199.1479 231.7136,199.7168"/>
    <polygon points="247.3471,206.2027 246.9743,206.4792 246.5762,206.7178 246.1565,206.9163 245.7195,207.0727 245.2692,207.1854 244.8101,207.2536 244.3465,207.2763 243.8828,207.2536 243.4237,207.1854 242.9734,207.0727 242.5364,206.9163 242.1168,206.7178 241.7186,206.4792 241.3458,206.2027 241.0019,205.891 240.6901,205.547 240.4136,205.1742 240.175,204.7761 239.9765,204.3564 239.8202,203.9194 239.7074,203.4691 239.6393,203.01 239.6165,202.5464 239.6393,202.0827 239.7074,201.6236 239.8202,201.1733 239.9765,200.7363 240.175,200.3167 240.4136,199.9185 240.6901,199.5457 241.0019,199.2018 241.3458,198.89 241.7186,198.6135 242.1168,198.3749 242.5364,198.1764 242.9734,198.0201 243.4237,197.9073 243.8828,197.8392 244.3465,197.8164 244.8101,197.8392 245.2692,197.9073 245.7195,198.0201 246.1565,198.1764 246.5762,198.3749 246.9743,198.6135 247.3471,198.89 247.6911,199.2018 248.0028,199.5457 248.2793,199.9185 248.5179,200.3167 248.7164,200.7363 248.8728,201.1733 248.9855,201.6236 249.0537,202.0827 249.0764,202.5464 249.0537,203.01 248.9855,203.4691 248.8728,203.9194 248.7164,204.3564 248.5179,204.7761 248.2793,205.1742 248.0028,205.547 247.6911,205.891"/>
    <polygon points="236.6708,181.8021 236.5085,180.7075 236.2396,179.634 235.8668,178.5921 235.3936,177.5917 234.8247,176.6426 234.1655,175.7537 233.4224,174.9338 232.6024,174.1907 231.7136,173.5314 230.7644,172.9625 229.7641,172.4894 228.7222,172.1166 227.6487,171.8477 226.5541,171.6853 225.4488,171.631 224.3435,171.6853 223.2489,171.8477 222.1755,172.1166 221.1336,172.4894 220.1332,172.9625 219.184,173.5314 218.2952,174.1907 217.4753,174.9338 216.7321,175.7537 216.0729,176.6426 215.504,177.5917 215.0309,178.5921 214.6581,179.634 214.3892,180.7075 214.2268,181.8021 214.1725,182.9074 214.2268,184.0126 214.3892,185.1073 214.6581,186.1807 215.0309,187.2226 215.504,188.223 216.0729,189.1721 216.7321,190.061 217.4753,190.8809 218.2952,191.6241 219.184,192.2833 220.1332,192.8522 221.1336,193.3253 222.1755,193.6981 223.2489,193.967 224.3435,194.1294 225.4488,194.1837 226.5541,194.1294 227.6487,193.967 228.7222,193.6981 229.7641,193.3253 230.7644,192.8522 231.7136,192.2833 232.6024,191.6241 233.4224,190.8809 234.1655,190.061 234.8247,189.1721 235.3936,188.223 235.8668,187.2226 236.2396,186.1807 236.5085,185.1073 236.6708,184.0126 236.7251,182.9074"/>
    <polygon points="222.1755,167.5128 223.2489,167.7817 224.3435,167.944 225.4488,167.9983 226.5541,167.944 227.6487,167.7817 228.7222,167.5128 229.7641,167.14 230.7644,166.6668 231.7136,166.0979 232.6024,165.4387 233.4224,164.6956 234.1655,163.8756 234.8247,162.9868 235.3936,162.0376 235.8668,161.0373 236.2396,159.9954 236.5085,158.9219 236.6708,157.8273 236.7251,156.722 236.6708,155.6167 236.5085,154.5221 236.2396,153.4487 235.8668,152.4068 235.3936,151.4064 234.8247,150.4572 234.1655,149.5684 233.4224,148.7485 232.6024,148.0053 231.7136,147.3461 230.7644,146.7772 229.7641,146.3041 228.7222,145.9313 227.6487,145.6624 226.5541,145.5 225.4488,145.4457 224.3435,145.5 223.2489,145.6624 222.1755,145.9313 221.1336,146.3041 220.1332,146.7772 219.184,147.3461 218.2952,148.0053 217.4753,148.7485 216.7321,149.5684 216.0729,150.4572 215.504,151.4064 215.0309,152.4068 214.6581,153.4487 214.3892,154.5221 214.2268,155.6167 214.1725,156.722 214.2268,157.8273 214.3892,158.9219 214.6581,159.9954 215.0309,161.0373 215.504,162.0376 216.0729,162.9868 216.7321,163.8756 217.4753,164.6956 218.2952,165.4387 219.184,166.0979 220.1332,166.6668 221.1336,167.14"/>
    <polygon points="219.0415,141.0158 219.4396,141.2545 219.8592,141.4529 220.2963,141.6093 220.7465,141.7221 221.2057,141.7902 221.6693,141.813 222.1329,141.7902 222.5921,141.7221 223.0423,141.6093 223.4794,141.4529 223.899,141.2545 224.2971,141.0158 224.67,140.7393 225.0139,140.4276 225.3256,140.0837 225.6021,139.7109 225.8408,139.3127 226.0392,138.8931 226.1956,138.4561 226.3084,138.0058 226.3765,137.5466 226.3993,137.083 226.3765,136.6194 226.3084,136.1602 226.1956,135.71 226.0392,135.2729 225.8408,134.8533 225.6021,134.4552 225.3256,134.0824 225.0139,133.7384 224.67,133.4267 224.2971,133.1502 223.899,132.9116 223.4794,132.7131 223.0423,132.5567 222.5921,132.4439 222.1329,132.3758 221.6693,132.353 221.2057,132.3758 220.7465,132.4439 220.2963,132.5567 219.8592,132.7131 219.4396,132.9116 219.0415,133.1502 218.6686,133.4267 218.3247,133.7384 218.013,134.0824 217.7365,134.4552 217.4978,134.8533 217.2994,135.2729 217.143,135.71 217.0302,136.1602 216.9621,136.6194 216.9393,137.083 216.9621,137.5466 217.0302,138.0058 217.143,138.4561 217.2994,138.8931 217.4978,139.3127 217.7365,139.7109 218.013,140.0837 218.3247,140.4276 218.6686,140.7393"/>
    <polygon points="191.825,128.307 192.0235,128.7266 192.1798,129.1636 192.2926,129.6139 192.3607,130.0731 192.3835,130.5367 192.3607,131.0003 192.2926,131.4595 192.1798,131.9097 192.0235,132.3468 191.825,132.7664 191.5864,133.1645 191.3099,133.5373 190.9981,133.8813 190.6542,134.193 190.2814,134.4695 189.8832,134.7081 189.4636,134.9066 189.0266,135.063 188.5763,135.1758 188.1172,135.2439 187.6535,135.2667 187.1899,135.2439 186.7308,135.1758 186.2805,135.063 185.8435,134.9066 185.4238,134.7081 185.0257,134.4695 184.6529,134.193 184.3089,133.8813 183.9972,133.5373 183.7207,133.1645 183.4821,132.7664 183.2836,132.3468 183.1272,131.9097 183.0145,131.4595 182.9463,131.0003 182.9236,130.5367 182.9463,130.0731 183.0145,129.6139 183.1272,129.1636 183.2836,128.7266 183.4821,128.307 183.7207,127.9089 183.9972,127.536 184.3089,127.1921 184.6529,126.8804 185.0257,126.6039 185.4238,126.3652 185.8435,126.1668 186.2805,126.0104 186.7308,125.8976 187.1899,125.8295 187.6535,125.8067 188.1172,125.8295 188.5763,125.8976 189.0266,126.0104 189.4636,126.1668 189.8832,126.3652 190.2814,126.6039 190.6542,126.8804 190.9981,127.1921 191.3099,127.536 191.5864,127.9089"/>
    <polygon points="203.1636,121.7607 203.3621,122.1803 203.5184,122.6173 203.6312,123.0676 203.6993,123.5267 203.7221,123.9904 203.6993,124.454 203.6312,124.9131 203.5184,125.3634 203.3621,125.8004 203.1636,126.22 202.925,126.6182 202.6484,126.991 202.3367,127.3349 201.9928,127.6467 201.62,127.9232 201.2218,128.1618 200.8022,128.3603 200.3652,128.5167 199.9149,128.6294 199.4557,128.6975 198.9921,128.7203 198.5285,128.6975 198.0694,128.6294 197.6191,128.5167 197.182,128.3603 196.7624,128.1618 196.3643,127.9232 195.9915,127.6467 195.6475,127.3349 195.3358,126.991 195.0593,126.6182 194.8207,126.22 194.6222,125.8004 194.4658,125.3634 194.353,124.9131 194.2849,124.454 194.2622,123.9904 194.2849,123.5267 194.353,123.0676 194.4658,122.6173 194.6222,122.1803 194.8207,121.7607 195.0593,121.3625 195.3358,120.9897 195.6475,120.6458 195.9915,120.334 196.3643,120.0575 196.7624,119.8189 197.182,119.6204 197.6191,119.4641 198.0694,119.3513 198.5285,119.2832 198.9921,119.2604 199.4557,119.2832 199.9149,119.3513 200.3652,119.4641 200.8022,119.6204 201.2218,119.8189 201.62,120.0575 201.9928,120.334 202.3367,120.6458 202.6484,120.9897 202.925,121.3625"/>
    <polygon points="244.3465,119.2604 243.8828,119.2832 243.4237,119.3513 242.9734,119.4641 242.5364,119.6204 242.1168,119.8189 241.7186,120.0575 241.3458,120.334 241.0019,120.6458 240.6901,120.9897 240.4136,121.3625 240.175,121.7607 239.9765,122.1803 239.8202,122.6173 239.7074,123.0676 239.6393,123.5267 239.6165,123.9904 239.6393,124.454 239.7074,124.9131 239.8202,125.3634 239.9765,125.8004 240.175,126.22 240.4136,126.6182 240.6901,126.991 241.0019,127.3349 241.3458,127.6467 241.7186,127.9232 242.1168,128.1618 242.5364,128.3603 242.9734,128.5167 243.4237,128.6294 243.8828,128.6975 244.3465,128.7203 244.8101,128.6975 245.2692,128.6294 245.7195,128.5167 246.1565,128.3603 246.5762,128.1618 246.9743,127.9232 247.3471,127.6467 247.6911,127.3349 248.0028,126.991 248.2793,126.6182 248.5179,126.22 248.7164,125.8004 248.8728,125.3634 248.9855,124.9131 249.0537,124.454 249.0764,123.9904 249.0537,123.5267 248.9855,123.0676 248.8728,122.6173 248.7164,122.1803 248.5179,121.7607 248.2793,121.3625 248.0028,120.9897 247.6911,120.6458 247.3471,120.334 246.9743,120.0575 246.5762,119.8189 246.1565,119.6204 245.7195,119.4641 245.2692,119.3513 244.8101,119.2832"/>
    <polygon points="260.3852,134.8519 260.8583,135.8523 261.4272,136.8015 262.0864,137.6903 262.8296,138.5102 263.6495,139.2534 264.5384,139.9126 265.4875,140.4815 266.4879,140.9546 267.5298,141.3274 268.6033,141.5963 269.6979,141.7587 270.8031,141.813 271.9084,141.7587 273.003,141.5963 274.0765,141.3274 275.1184,140.9546 276.1188,140.4815 277.0679,139.9126 277.9568,139.2534 278.7767,138.5102 279.5199,137.6903 280.1791,136.8015 280.748,135.8523 281.2211,134.8519 281.5939,133.81 281.8628,132.7366 282.0252,131.642 282.0795,130.5367 282.0252,129.4314 281.8628,128.3368 281.5939,127.2633 281.2211,126.2214 280.748,125.2211 280.1791,124.2719 279.5199,123.3831 278.7767,122.5631 277.9568,121.82 277.0679,121.1608 276.1188,120.5919 275.1184,120.1187 274.0765,119.7459 273.003,119.4771 271.9084,119.3147 270.8031,119.2604 269.6979,119.3147 268.6033,119.4771 267.5298,119.7459 266.4879,120.1187 265.4875,120.5919 264.5384,121.1608 263.6495,121.82 262.8296,122.5631 262.0864,123.3831 261.4272,124.2719 260.8583,125.2211 260.3852,126.2214 260.0124,127.2633 259.7435,128.3368 259.5811,129.4314 259.5268,130.5367 259.5811,131.642 259.7435,132.7366 260.0124,133.81"/>
    <polygon points="258.9167,140.356 258.5439,139.3141 258.0708,138.3137 257.5019,137.3646 256.8427,136.4757 256.0995,135.6558 255.2796,134.9127 254.3908,134.2534 253.4416,133.6845 252.4412,133.2114 251.3993,132.8386 250.3259,132.5697 249.2313,132.4073 248.126,132.353 247.0207,132.4073 245.9261,132.5697 244.8526,132.8386 243.8107,133.2114 242.8104,133.6845 241.8612,134.2534 240.9724,134.9127 240.1524,135.6558 239.4093,136.4757 238.7501,137.3646 238.1812,138.3137 237.708,139.3141 237.3352,140.356 237.0663,141.4295 236.904,142.5241 236.8497,143.6294 236.904,144.7346 237.0663,145.8293 237.3352,146.9027 237.708,147.9446 238.1812,148.945 238.7501,149.8941 239.4093,150.783 240.1524,151.6029 240.9724,152.3461 241.8612,153.0053 242.8104,153.5742 243.8107,154.0473 244.8526,154.4201 245.9261,154.689 247.0207,154.8514 248.126,154.9057 249.2313,154.8514 250.3259,154.689 251.3993,154.4201 252.4412,154.0473 253.4416,153.5742 254.3908,153.0053 255.2796,152.3461 256.0995,151.6029 256.8427,150.783 257.5019,149.8941 258.0708,148.945 258.5439,147.9446 258.9167,146.9027 259.1856,145.8293 259.348,144.7346 259.4023,143.6294 259.348,142.5241 259.1856,141.4295"/>
  </g>
</svg>
