<?xml version="1.0" encoding="utf-8" ?>
<svg xmlns="http://www.w3.org/2000/svg" xmlns:cc="http://creativecommons.org/ns" xmlns:dc="http://purl.org/dc/elements/1.1/" xmlns:ev="http://www.w3.org/2001/xml-events" xmlns:inkscape="http://www.inkscape.org/namespaces/inkscape" xmlns:rdf="http://www.w3.org/1999/02/22-rdf-syntax-ns" xmlns:sodipodi="http://sodipodi.sourceforge.net/DTD/sodipodi-0.dtd" xmlns:xlink="http://www.w3.org/1999/xlink" baseProfile="tiny" height="15.875cm" version="1.2" viewBox="0 0 432.0 600.0" width="11.43cm">
  <metadata>
    <rdf:RDF>
      <cc:Work>
        <dc:format>image/svg+xml</dc:format>
        <dc:source>vsk save -s 255 -c hex-grid/config/bubble-coasters-2.json /Users/tobin/src/fabian/plotting/fabian-plotting/hex-grid/sketch_hex_grid.py</dc:source>
        <dc:date>2023-11-11T11:30:23.799247</dc:date>
      </cc:Work>
    </rdf:RDF>
  </metadata>
  <defs/>
  <g fill="none" id="layer1" inkscape:groupmode="layer" inkscape:label="1" stroke="#000000" stroke-width="0.7559" style="display:inline">
    <polygon points="153.1742,328.3607 152.715,328.2926 152.2648,328.1798 151.8277,328.0235 151.4081,327.825 151.01,327.5864 150.6371,327.3098 150.2932,326.9981 149.9815,326.6542 149.705,326.2814 149.4663,325.8832 149.2679,325.4636 149.1115,325.0266 148.9987,324.5763 148.9306,324.1172 148.9078,323.6535 148.9306,323.1899 148.9987,322.7308 149.1115,322.2805 149.2679,321.8434 149.4663,321.4238 149.705,321.0257 149.9815,320.6529 150.2932,320.3089 150.6371,319.9972 151.01,319.7207 151.4081,319.4821 151.8277,319.2836 152.2648,319.1272 152.715,319.0144 153.1742,318.9463 153.6378,318.9236 154.1014,318.9463 154.5606,319.0144 155.0108,319.1272 155.4479,319.2836 155.8675,319.4821 156.2656,319.7207 156.6385,319.9972 156.9824,320.3089 157.2941,320.6529 157.5706,321.0257 157.8093,321.4238 158.0077,321.8434 158.1641,322.2805 158.2769,322.7308 158.345,323.1899 158.3678,323.6535 158.345,324.1172 158.2769,324.5763 158.1641,325.0266 158.0077,325.4636 157.8093,325.8832 157.5706,326.2814 157.2941,326.6542 156.9824,326.9981 156.6385,327.3098 156.2656,327.5864 155.8675,327.825 155.4479,328.0235 155.0108,328.1798 154.5606,328.2926 154.1014,328.3607 153.6378,328.3835"/>
    <polygon points="135.3306,325.4636 135.1321,325.8832 134.8935,326.2814 134.6169,326.6542 134.3052,326.9981 133.9613,327.3098 133.5885,327.5864 133.1903,327.825 132.7707,328.0235 132.3337,328.1798 131.8834,328.2926 131.4242,328.3607 130.9606,328.3835 130.497,328.3607 130.0379,328.2926 129.5876,328.1798 129.1505,328.0235 128.7309,327.825 128.3328,327.5864 127.96,327.3098 127.616,326.9981 127.3043,326.6542 127.0278,326.2814 126.7892,325.8832 126.5907,325.4636 126.4343,325.0266 126.3215,324.5763 126.2534,324.1172 126.2307,323.6535 126.2534,323.1899 126.3215,322.7308 126.4343,322.2805 126.5907,321.8434 126.7892,321.4238 127.0278,321.0257 127.3043,320.6529 127.616,320.3089 127.96,319.9972 128.3328,319.7207 128.7309,319.4821 129.1505,319.2836 129.5876,319.1272 130.0379,319.0144 130.497,318.9463 130.9606,318.9236 131.4242,318.9463 131.8834,319.0144 132.3337,319.1272 132.7707,319.2836 133.1903,319.4821 133.5885,319.7207 133.9613,319.9972 134.3052,320.3089 134.6169,320.6529 134.8935,321.0257 135.1321,321.4238 135.3306,321.8434 135.4869,322.2805 135.5997,322.7308 135.6678,323.1899 135.6906,323.6535 135.6678,324.1172 135.5997,324.5763 135.4869,325.0266"/>
    <polygon points="145.2999,313.4509 145.6438,313.7626 145.9555,314.1065 146.232,314.4794 146.4707,314.8775 146.6691,315.2971 146.8255,315.7342 146.9383,316.1844 147.0064,316.6436 147.0292,317.1072 147.0064,317.5708 146.9383,318.03 146.8255,318.4802 146.6691,318.9173 146.4707,319.3369 146.232,319.735 145.9555,320.1079 145.6438,320.4518 145.2999,320.7635 144.927,321.04 144.5289,321.2787 144.1093,321.4771 143.6723,321.6335 143.222,321.7463 142.7628,321.8144 142.2992,321.8372 141.8356,321.8144 141.3764,321.7463 140.9262,321.6335 140.4891,321.4771 140.0695,321.2787 139.6714,321.04 139.2985,320.7635 138.9546,320.4518 138.6429,320.1079 138.3664,319.735 138.1277,319.3369 137.9293,318.9173 137.7729,318.4802 137.6601,318.03 137.592,317.5708 137.5692,317.1072 137.592,316.6436 137.6601,316.1844 137.7729,315.7342 137.9293,315.2971 138.1277,314.8775 138.3664,314.4794 138.6429,314.1065 138.9546,313.7626 139.2985,313.4509 139.6714,313.1744 140.0695,312.9357 140.4891,312.7373 140.9262,312.5809 141.3764,312.4681 141.8356,312.4 142.2992,312.3772 142.7628,312.4 143.222,312.4681 143.6723,312.5809 144.1093,312.7373 144.5289,312.9357 144.927,313.1744"/>
    <polygon points="151.01,301.401 150.6371,301.1245 150.2932,300.8128 149.9815,300.4689 149.705,300.096 149.4663,299.6979 149.2679,299.2783 149.1115,298.8412 148.9987,298.391 148.9306,297.9318 148.9078,297.4682 148.9306,297.0046 148.9987,296.5454 149.1115,296.0952 149.2679,295.6581 149.4663,295.2385 149.705,294.8404 149.9815,294.4675 150.2932,294.1236 150.6371,293.8119 151.01,293.5354 151.4081,293.2967 151.8277,293.0983 152.2648,292.9419 152.715,292.8291 153.1742,292.761 153.6378,292.7382 154.1014,292.761 154.5606,292.8291 155.0108,292.9419 155.4479,293.0983 155.8675,293.2967 156.2656,293.5354 156.6385,293.8119 156.9824,294.1236 157.2941,294.4675 157.5706,294.8404 157.8093,295.2385 158.0077,295.6581 158.1641,296.0952 158.2769,296.5454 158.345,297.0046 158.3678,297.4682 158.345,297.9318 158.2769,298.391 158.1641,298.8412 158.0077,299.2783 157.8093,299.6979 157.5706,300.096 157.2941,300.4689 156.9824,300.8128 156.6385,301.1245 156.2656,301.401 155.8675,301.6397 155.4479,301.8381 155.0108,301.9945 154.5606,302.1073 154.1014,302.1754 153.6378,302.1982 153.1742,302.1754 152.715,302.1073 152.2648,301.9945 151.8277,301.8381 151.4081,301.6397"/>
    <polygon points="170.9558,299.5012 169.8612,299.3389 168.7559,299.2846 167.6506,299.3389 166.556,299.5012 165.4826,299.7701 164.4406,300.1429 163.4403,300.616 162.4911,301.185 161.6023,301.8442 160.7824,302.5873 160.0392,303.4073 159.38,304.2961 158.8111,305.2453 158.338,306.2456 157.9652,307.2875 157.6963,308.361 157.5339,309.4556 157.4796,310.5609 157.5339,311.6661 157.6963,312.7608 157.9652,313.8342 158.338,314.8761 158.8111,315.8765 159.38,316.8256 160.0392,317.7145 160.7824,318.5344 161.6023,319.2776 162.4911,319.9368 163.4403,320.5057 164.4406,320.9788 165.4826,321.3516 166.556,321.6205 167.6506,321.7829 168.7559,321.8372 169.8612,321.7829 170.9558,321.6205 172.0292,321.3516 173.0712,320.9788 174.0715,320.5057 175.0207,319.9368 175.9095,319.2776 176.7295,318.5344 177.4726,317.7145 178.1318,316.8256 178.7007,315.8765 179.1739,314.8761 179.5467,313.8342 179.8155,312.7608 179.9779,311.6661 180.0322,310.5609 179.9779,309.4556 179.8155,308.361 179.5467,307.2875 179.1739,306.2456 178.7007,305.2453 178.1318,304.2961 177.4726,303.4073 176.7295,302.5873 175.9095,301.8442 175.0207,301.185 174.0715,300.616 173.0712,300.1429 172.0292,299.7701"/>
    <polygon points="179.8155,286.5754 179.9779,285.4808 180.0322,284.3755 179.9779,283.2703 179.8155,282.1756 179.5467,281.1022 179.1739,280.0603 178.7007,279.0599 178.1318,278.1107 177.4726,277.2219 176.7295,276.402 175.9095,275.6588 175.0207,274.9996 174.0715,274.4307 173.0712,273.9576 172.0292,273.5848 170.9558,273.3159 169.8612,273.1535 168.7559,273.0992 167.6506,273.1535 166.556,273.3159 165.4826,273.5848 164.4406,273.9576 163.4403,274.4307 162.4911,274.9996 161.6023,275.6588 160.7824,276.402 160.0392,277.2219 159.38,278.1107 158.8111,279.0599 158.338,280.0603 157.9652,281.1022 157.6963,282.1756 157.5339,283.2703 157.4796,284.3755 157.5339,285.4808 157.6963,286.5754 157.9652,287.6489 158.338,288.6908 158.8111,289.6911 159.38,290.6403 160.0392,291.5291 160.7824,292.3491 161.6023,293.0922 162.4911,293.7514 163.4403,294.3203 164.4406,294.7935 165.4826,295.1663 166.556,295.4352 167.6506,295.5975 168.7559,295.6518 169.8612,295.5975 170.9558,295.4352 172.0292,295.1663 173.0712,294.7935 174.0715,294.3203 175.0207,293.7514 175.9095,293.0922 176.7295,292.3491 177.4726,291.5291 178.1318,290.6403 178.7007,289.6911 179.1739,288.6908 179.5467,287.6489"/>
    <polygon points="202.4927,299.6681 202.6551,298.5735 202.7094,297.4682 202.6551,296.3629 202.4927,295.2683 202.2238,294.1949 201.851,293.1529 201.3779,292.1526 200.809,291.2034 200.1498,290.3146 199.4066,289.4946 198.5867,288.7515 197.6979,288.0923 196.7487,287.5234 195.7483,287.0502 194.7064,286.6774 193.633,286.4086 192.5383,286.2462 191.4331,286.1919 190.3278,286.2462 189.2332,286.4086 188.1597,286.6774 187.1178,287.0502 186.1175,287.5234 185.1683,288.0923 184.2795,288.7515 183.4595,289.4946 182.7164,290.3146 182.0572,291.2034 181.4883,292.1526 181.0151,293.1529 180.6423,294.1949 180.3734,295.2683 180.2111,296.3629 180.1568,297.4682 180.2111,298.5735 180.3734,299.6681 180.6423,300.7415 181.0151,301.7835 181.4883,302.7838 182.0572,303.733 182.7164,304.6218 183.4595,305.4417 184.2795,306.1849 185.1683,306.8441 186.1175,307.413 187.1178,307.8861 188.1597,308.2589 189.2332,308.5278 190.3278,308.6902 191.4331,308.7445 192.5383,308.6902 193.633,308.5278 194.7064,308.2589 195.7483,307.8861 196.7487,307.413 197.6979,306.8441 198.5867,306.1849 199.4066,305.4417 200.1498,304.6218 200.809,303.733 201.3779,302.7838 201.851,301.7835 202.2238,300.7415"/>
    <polygon points="182.9236,317.1072 182.9463,316.6436 183.0145,316.1844 183.1272,315.7342 183.2836,315.2971 183.4821,314.8775 183.7207,314.4794 183.9972,314.1065 184.3089,313.7626 184.6529,313.4509 185.0257,313.1744 185.4238,312.9357 185.8435,312.7373 186.2805,312.5809 186.7308,312.4681 187.1899,312.4 187.6535,312.3772 188.1172,312.4 188.5763,312.4681 189.0266,312.5809 189.4636,312.7373 189.8832,312.9357 190.2814,313.1744 190.6542,313.4509 190.9981,313.7626 191.3099,314.1065 191.5864,314.4794 191.825,314.8775 192.0235,315.2971 192.1798,315.7342 192.2926,316.1844 192.3607,316.6436 192.3835,317.1072 192.3607,317.5708 192.2926,318.03 192.1798,318.4802 192.0235,318.9173 191.825,319.3369 191.5864,319.735 191.3099,320.1079 190.9981,320.4518 190.6542,320.7635 190.2814,321.04 189.8832,321.2787 189.4636,321.4771 189.0266,321.6335 188.5763,321.7463 188.1172,321.8144 187.6535,321.8372 187.1899,321.8144 186.7308,321.7463 186.2805,321.6335 185.8435,321.4771 185.4238,321.2787 185.0257,321.04 184.6529,320.7635 184.3089,320.4518 183.9972,320.1079 183.7207,319.735 183.4821,319.3369 183.2836,318.9173 183.1272,318.4802 183.0145,318.03 182.9463,317.5708"/>
    <polygon points="199.9149,354.478 199.4557,354.5461 198.9921,354.5688 198.5285,354.5461 198.0694,354.478 197.6191,354.3652 197.182,354.2088 196.7624,354.0103 196.3643,353.7717 195.9915,353.4952 195.6475,353.1835 195.3358,352.8395 195.0593,352.4667 194.8207,352.0686 194.6222,351.6489 194.4658,351.2119 194.353,350.7616 194.2849,350.3025 194.2622,349.8389 194.2849,349.3752 194.353,348.9161 194.4658,348.4658 194.6222,348.0288 194.8207,347.6092 195.0593,347.211 195.3358,346.8382 195.6475,346.4943 195.9915,346.1825 196.3643,345.906 196.7624,345.6674 197.182,345.4689 197.6191,345.3126 198.0694,345.1998 198.5285,345.1317 198.9921,345.1089 199.4557,345.1317 199.9149,345.1998 200.3652,345.3126 200.8022,345.4689 201.2218,345.6674 201.62,345.906 201.9928,346.1825 202.3367,346.4943 202.6484,346.8382 202.925,347.211 203.1636,347.6092 203.3621,348.0288 203.5184,348.4658 203.6312,348.9161 203.6993,349.3752 203.7221,349.8389 203.6993,350.3025 203.6312,350.7616 203.5184,351.2119 203.3621,351.6489 203.1636,352.0686 202.925,352.4667 202.6484,352.8395 202.3367,353.1835 201.9928,353.4952 201.62,353.7717 201.2218,354.0103 200.8022,354.2088 200.3652,354.3652"/>
    <polygon points="214.7006,358.1953 214.5022,358.6149 214.2635,359.013 213.987,359.3859 213.6753,359.7298 213.3314,360.0415 212.9585,360.318 212.5604,360.5567 212.1408,360.7551 211.7037,360.9115 211.2535,361.0243 210.7943,361.0924 210.3307,361.1152 209.8671,361.0924 209.4079,361.0243 208.9577,360.9115 208.5206,360.7551 208.101,360.5567 207.7029,360.318 207.33,360.0415 206.9861,359.7298 206.6744,359.3859 206.3979,359.013 206.1592,358.6149 205.9608,358.1953 205.8044,357.7582 205.6916,357.308 205.6235,356.8488 205.6007,356.3852 205.6235,355.9216 205.6916,355.4624 205.8044,355.0122 205.9608,354.5751 206.1592,354.1555 206.3979,353.7574 206.6744,353.3845 206.9861,353.0406 207.33,352.7289 207.7029,352.4524 208.101,352.2137 208.5206,352.0153 208.9577,351.8589 209.4079,351.7461 209.8671,351.678 210.3307,351.6552 210.7943,351.678 211.2535,351.7461 211.7037,351.8589 212.1408,352.0153 212.5604,352.2137 212.9585,352.4524 213.3314,352.7289 213.6753,353.0406 213.987,353.3845 214.2635,353.7574 214.5022,354.1555 214.7006,354.5751 214.857,355.0122 214.9698,355.4624 215.0379,355.9216 215.0607,356.3852 215.0379,356.8488 214.9698,357.308 214.857,357.7582"/>
    <polygon points="219.8592,358.5616 220.2963,358.4052 220.7465,358.2924 221.2057,358.2243 221.6693,358.2016 222.1329,358.2243 222.5921,358.2924 223.0423,358.4052 223.4794,358.5616 223.899,358.7601 224.2971,358.9987 224.67,359.2752 225.0139,359.5869 225.3256,359.9309 225.6021,360.3037 225.8408,360.7018 226.0392,361.1215 226.1956,361.5585 226.3084,362.0088 226.3765,362.4679 226.3993,362.9315 226.3765,363.3952 226.3084,363.8543 226.1956,364.3046 226.0392,364.7416 225.8408,365.1612 225.6021,365.5594 225.3256,365.9322 225.0139,366.2761 224.67,366.5879 224.2971,366.8644 223.899,367.103 223.4794,367.3015 223.0423,367.4578 222.5921,367.5706 222.1329,367.6387 221.6693,367.6615 221.2057,367.6387 220.7465,367.5706 220.2963,367.4578 219.8592,367.3015 219.4396,367.103 219.0415,366.8644 218.6686,366.5879 218.3247,366.2761 218.013,365.9322 217.7365,365.5594 217.4978,365.1612 217.2994,364.7416 217.143,364.3046 217.0302,363.8543 216.9621,363.3952 216.9393,362.9315 216.9621,362.4679 217.0302,362.0088 217.143,361.5585 217.2994,361.1215 217.4978,360.7018 217.7365,360.3037 218.013,359.9309 218.3247,359.5869 218.6686,359.2752 219.0415,358.9987 219.4396,358.7601"/>
    <polygon points="212.5604,347.464 212.9585,347.2254 213.3314,346.9489 213.6753,346.6371 213.987,346.2932 214.2635,345.9204 214.5022,345.5222 214.7006,345.1026 214.857,344.6656 214.9698,344.2153 215.0379,343.7562 215.0607,343.2925 215.0379,342.8289 214.9698,342.3698 214.857,341.9195 214.7006,341.4825 214.5022,341.0628 214.2635,340.6647 213.987,340.2919 213.6753,339.9479 213.3314,339.6362 212.9585,339.3597 212.5604,339.1211 212.1408,338.9226 211.7037,338.7662 211.2535,338.6534 210.7943,338.5853 210.3307,338.5626 209.8671,338.5853 209.4079,338.6534 208.9577,338.7662 208.5206,338.9226 208.101,339.1211 207.7029,339.3597 207.33,339.6362 206.9861,339.9479 206.6744,340.2919 206.3979,340.6647 206.1592,341.0628 205.9608,341.4825 205.8044,341.9195 205.6916,342.3698 205.6235,342.8289 205.6007,343.2925 205.6235,343.7562 205.6916,344.2153 205.8044,344.6656 205.9608,345.1026 206.1592,345.5222 206.3979,345.9204 206.6744,346.2932 206.9861,346.6371 207.33,346.9489 207.7029,347.2254 208.101,347.464 208.5206,347.6625 208.9577,347.8188 209.4079,347.9316 209.8671,347.9997 210.3307,348.0225 210.7943,347.9997 211.2535,347.9316 211.7037,347.8188 212.1408,347.6625"/>
    <polygon points="218.6686,346.1825 218.3247,346.4943 218.013,346.8382 217.7365,347.211 217.4978,347.6092 217.2994,348.0288 217.143,348.4658 217.0302,348.9161 216.9621,349.3752 216.9393,349.8389 216.9621,350.3025 217.0302,350.7616 217.143,351.2119 217.2994,351.6489 217.4978,352.0686 217.7365,352.4667 218.013,352.8395 218.3247,353.1835 218.6686,353.4952 219.0415,353.7717 219.4396,354.0103 219.8592,354.2088 220.2963,354.3652 220.7465,354.478 221.2057,354.5461 221.6693,354.5688 222.1329,354.5461 222.5921,354.478 223.0423,354.3652 223.4794,354.2088 223.899,354.0103 224.2971,353.7717 224.67,353.4952 225.0139,353.1835 225.3256,352.8395 225.6021,352.4667 225.8408,352.0686 226.0392,351.6489 226.1956,351.2119 226.3084,350.7616 226.3765,350.3025 226.3993,349.8389 226.3765,349.3752 226.3084,348.9161 226.1956,348.4658 226.0392,348.0288 225.8408,347.6092 225.6021,347.211 225.3256,346.8382 225.0139,346.4943 224.67,346.1825 224.2971,345.906 223.899,345.6674 223.4794,345.4689 223.0423,345.3126 222.5921,345.1998 222.1329,345.1317 221.6693,345.1089 221.2057,345.1317 220.7465,345.1998 220.2963,345.3126 219.8592,345.4689 219.4396,345.6674 219.0415,345.906"/>
    <polygon points="217.4978,338.9759 217.7365,339.374 218.013,339.7469 218.3247,340.0908 218.6686,340.4025 219.0415,340.679 219.4396,340.9177 219.8592,341.1161 220.2963,341.2725 220.7465,341.3853 221.2057,341.4534 221.6693,341.4762 222.1329,341.4534 222.5921,341.3853 223.0423,341.2725 223.4794,341.1161 223.899,340.9177 224.2971,340.679 224.67,340.4025 225.0139,340.0908 225.3256,339.7469 225.6021,339.374 225.8408,338.9759 226.0392,338.5563 226.1956,338.1192 226.3084,337.669 226.3765,337.2098 226.3993,336.7462 226.3765,336.2826 226.3084,335.8234 226.1956,335.3732 226.0392,334.9361 225.8408,334.5165 225.6021,334.1184 225.3256,333.7455 225.0139,333.4016 224.67,333.0899 224.2971,332.8134 223.899,332.5747 223.4794,332.3763 223.0423,332.2199 222.5921,332.1071 222.1329,332.039 221.6693,332.0162 221.2057,332.039 220.7465,332.1071 220.2963,332.2199 219.8592,332.3763 219.4396,332.5747 219.0415,332.8134 218.6686,333.0899 218.3247,333.4016 218.013,333.7455 217.7365,334.1184 217.4978,334.5165 217.2994,334.9361 217.143,335.3732 217.0302,335.8234 216.9621,336.2826 216.9393,336.7462 216.9621,337.2098 217.0302,337.669 217.143,338.1192 217.2994,338.5563"/>
    <polygon points="226.3695,327.9688 226.8426,328.9691 227.4115,329.9183 228.0707,330.8071 228.8138,331.6271 229.6338,332.3702 230.5226,333.0294 231.4718,333.5983 232.4721,334.0715 233.5141,334.4443 234.5875,334.7132 235.6821,334.8755 236.7874,334.9298 237.8927,334.8755 238.9873,334.7132 240.0607,334.4443 241.1027,334.0715 242.103,333.5983 243.0522,333.0294 243.941,332.3702 244.761,331.6271 245.5041,330.8071 246.1633,329.9183 246.7322,328.9691 247.2054,327.9688 247.5782,326.9269 247.847,325.8534 248.0094,324.7588 248.0637,323.6535 248.0094,322.5483 247.847,321.4536 247.5782,320.3802 247.2054,319.3383 246.7322,318.3379 246.1633,317.3888 245.5041,316.4999 244.761,315.68 243.941,314.9368 243.0522,314.2776 242.103,313.7087 241.1027,313.2356 240.0607,312.8628 238.9873,312.5939 237.8927,312.4315 236.7874,312.3772 235.6821,312.4315 234.5875,312.5939 233.5141,312.8628 232.4721,313.2356 231.4718,313.7087 230.5226,314.2776 229.6338,314.9368 228.8138,315.68 228.0707,316.4999 227.4115,317.3888 226.8426,318.3379 226.3695,319.3383 225.9966,320.3802 225.7278,321.4536 225.5654,322.5483 225.5111,323.6535 225.5654,324.7588 225.7278,325.8534 225.9966,326.9269"/>
    <polygon points="237.3778,341.4825 237.1793,341.0628 236.9407,340.6647 236.6642,340.2919 236.3525,339.9479 236.0085,339.6362 235.6357,339.3597 235.2376,339.1211 234.818,338.9226 234.3809,338.7662 233.9306,338.6534 233.4715,338.5853 233.0079,338.5626 232.5443,338.5853 232.0851,338.6534 231.6348,338.7662 231.1978,338.9226 230.7782,339.1211 230.38,339.3597 230.0072,339.6362 229.6633,339.9479 229.3516,340.2919 229.075,340.6647 228.8364,341.0628 228.6379,341.4825 228.4816,341.9195 228.3688,342.3698 228.3007,342.8289 228.2779,343.2925 228.3007,343.7562 228.3688,344.2153 228.4816,344.6656 228.6379,345.1026 228.8364,345.5222 229.075,345.9204 229.3516,346.2932 229.6633,346.6371 230.0072,346.9489 230.38,347.2254 230.7782,347.464 231.1978,347.6625 231.6348,347.8188 232.0851,347.9316 232.5443,347.9997 233.0079,348.0225 233.4715,347.9997 233.9306,347.9316 234.3809,347.8188 234.818,347.6625 235.2376,347.464 235.6357,347.2254 236.0085,346.9489 236.3525,346.6371 236.6642,346.2932 236.9407,345.9204 237.1793,345.5222 237.3778,345.1026 237.5342,344.6656 237.647,344.2153 237.7151,343.7562 237.7378,343.2925 237.7151,342.8289 237.647,342.3698 237.5342,341.9195"/>
    <polygon points="229.075,353.7574 229.3516,353.3845 229.6633,353.0406 230.0072,352.7289 230.38,352.4524 230.7782,352.2137 231.1978,352.0153 231.6348,351.8589 232.0851,351.7461 232.5443,351.678 233.0079,351.6552 233.4715,351.678 233.9306,351.7461 234.3809,351.8589 234.818,352.0153 235.2376,352.2137 235.6357,352.4524 236.0085,352.7289 236.3525,353.0406 236.6642,353.3845 236.9407,353.7574 237.1793,354.1555 237.3778,354.5751 237.5342,355.0122 237.647,355.4624 237.7151,355.9216 237.7378,356.3852 237.7151,356.8488 237.647,357.308 237.5342,357.7582 237.3778,358.1953 237.1793,358.6149 236.9407,359.013 236.6642,359.3859 236.3525,359.7298 236.0085,360.0415 235.6357,360.318 235.2376,360.5567 234.818,360.7551 234.3809,360.9115 233.9306,361.0243 233.4715,361.0924 233.0079,361.1152 232.5443,361.0924 232.0851,361.0243 231.6348,360.9115 231.1978,360.7551 230.7782,360.5567 230.38,360.318 230.0072,360.0415 229.6633,359.7298 229.3516,359.3859 229.075,359.013 228.8364,358.6149 228.6379,358.1953 228.4816,357.7582 228.3688,357.308 228.3007,356.8488 228.2779,356.3852 228.3007,355.9216 228.3688,355.4624 228.4816,355.0122 228.6379,354.5751 228.8364,354.1555"/>
    <polygon points="240.6901,352.8395 240.4136,352.4667 240.175,352.0686 239.9765,351.6489 239.8202,351.2119 239.7074,350.7616 239.6393,350.3025 239.6165,349.8389 239.6393,349.3752 239.7074,348.9161 239.8202,348.4658 239.9765,348.0288 240.175,347.6092 240.4136,347.211 240.6901,346.8382 241.0019,346.4943 241.3458,346.1825 241.7186,345.906 242.1168,345.6674 242.5364,345.4689 242.9734,345.3126 243.4237,345.1998 243.8828,345.1317 244.3465,345.1089 244.8101,345.1317 245.2692,345.1998 245.7195,345.3126 246.1565,345.4689 246.5762,345.6674 246.9743,345.906 247.3471,346.1825 247.6911,346.4943 248.0028,346.8382 248.2793,347.211 248.5179,347.6092 248.7164,348.0288 248.8728,348.4658 248.9855,348.9161 249.0537,349.3752 249.0764,349.8389 249.0537,350.3025 248.9855,350.7616 248.8728,351.2119 248.7164,351.6489 248.5179,352.0686 248.2793,352.4667 248.0028,352.8395 247.6911,353.1835 247.3471,353.4952 246.9743,353.7717 246.5762,354.0103 246.1565,354.2088 245.7195,354.3652 245.2692,354.478 244.8101,354.5461 244.3465,354.5688 243.8828,354.5461 243.4237,354.478 242.9734,354.3652 242.5364,354.2088 242.1168,354.0103 241.7186,353.7717 241.3458,353.4952 241.0019,353.1835"/>
    <polygon points="255.685,351.6552 256.1487,351.678 256.6078,351.7461 257.0581,351.8589 257.4951,352.0153 257.9147,352.2137 258.3129,352.4524 258.6857,352.7289 259.0296,353.0406 259.3414,353.3845 259.6179,353.7574 259.8565,354.1555 260.055,354.5751 260.2113,355.0122 260.3241,355.4624 260.3922,355.9216 260.415,356.3852 260.3922,356.8488 260.3241,357.308 260.2113,357.7582 260.055,358.1953 259.8565,358.6149 259.6179,359.013 259.3414,359.3859 259.0296,359.7298 258.6857,360.0415 258.3129,360.318 257.9147,360.5567 257.4951,360.7551 257.0581,360.9115 256.6078,361.0243 256.1487,361.0924 255.685,361.1152 255.2214,361.0924 254.7623,361.0243 254.312,360.9115 253.875,360.7551 253.4553,360.5567 253.0572,360.318 252.6844,360.0415 252.3404,359.7298 252.0287,359.3859 251.7522,359.013 251.5136,358.6149 251.3151,358.1953 251.1587,357.7582 251.046,357.308 250.9778,356.8488 250.9551,356.3852 250.9778,355.9216 251.046,355.4624 251.1587,355.0122 251.3151,354.5751 251.5136,354.1555 251.7522,353.7574 252.0287,353.3845 252.3404,353.0406 252.6844,352.7289 253.0572,352.4524 253.4553,352.2137 253.875,352.0153 254.312,351.8589 254.7623,351.7461 255.2214,351.678"/>
    <polygon points="251.1587,370.8509 251.3151,371.288 251.5136,371.7076 251.7522,372.1057 252.0287,372.4785 252.3404,372.8225 252.6844,373.1342 253.0572,373.4107 253.4553,373.6493 253.875,373.8478 254.312,374.0042 254.7623,374.117 255.2214,374.1851 255.685,374.2078 256.1487,374.1851 256.6078,374.117 257.0581,374.0042 257.4951,373.8478 257.9147,373.6493 258.3129,373.4107 258.6857,373.1342 259.0296,372.8225 259.3414,372.4785 259.6179,372.1057 259.8565,371.7076 260.055,371.288 260.2113,370.8509 260.3241,370.4006 260.3922,369.9415 260.415,369.4779 260.3922,369.0142 260.3241,368.5551 260.2113,368.1048 260.055,367.6678 259.8565,367.2482 259.6179,366.85 259.3414,366.4772 259.0296,366.1333 258.6857,365.8215 258.3129,365.545 257.9147,365.3064 257.4951,365.1079 257.0581,364.9516 256.6078,364.8388 256.1487,364.7707 255.685,364.7479 255.2214,364.7707 254.7623,364.8388 254.312,364.9516 253.875,365.1079 253.4553,365.3064 253.0572,365.545 252.6844,365.8215 252.3404,366.1333 252.0287,366.4772 251.7522,366.85 251.5136,367.2482 251.3151,367.6678 251.1587,368.1048 251.046,368.5551 250.9778,369.0142 250.9551,369.4779 250.9778,369.9415 251.046,370.4006"/>
    <polygon points="251.7522,379.9427 251.5136,380.3408 251.3151,380.7605 251.1587,381.1975 251.046,381.6478 250.9778,382.1069 250.9551,382.5705 250.9778,383.0342 251.046,383.4933 251.1587,383.9436 251.3151,384.3806 251.5136,384.8002 251.7522,385.1984 252.0287,385.5712 252.3404,385.9151 252.6844,386.2269 253.0572,386.5034 253.4553,386.742 253.875,386.9405 254.312,387.0968 254.7623,387.2096 255.2214,387.2777 255.685,387.3005 256.1487,387.2777 256.6078,387.2096 257.0581,387.0968 257.4951,386.9405 257.9147,386.742 258.3129,386.5034 258.6857,386.2269 259.0296,385.9151 259.3414,385.5712 259.6179,385.1984 259.8565,384.8002 260.055,384.3806 260.2113,383.9436 260.3241,383.4933 260.3922,383.0342 260.415,382.5705 260.3922,382.1069 260.3241,381.6478 260.2113,381.1975 260.055,380.7605 259.8565,380.3408 259.6179,379.9427 259.3414,379.5699 259.0296,379.2259 258.6857,378.9142 258.3129,378.6377 257.9147,378.3991 257.4951,378.2006 257.0581,378.0442 256.6078,377.9314 256.1487,377.8633 255.685,377.8406 255.2214,377.8633 254.7623,377.9314 254.312,378.0442 253.875,378.2006 253.4553,378.3991 253.0572,378.6377 252.6844,378.9142 252.3404,379.2259 252.0287,379.5699"/>
    <polygon points="266.56,367.6387 266.1009,367.5706 265.6506,367.4578 265.2135,367.3015 264.7939,367.103 264.3958,366.8644 264.023,366.5879 263.679,366.2761 263.3673,365.9322 263.0908,365.5594 262.8522,365.1612 262.6537,364.7416 262.4973,364.3046 262.3845,363.8543 262.3164,363.3952 262.2936,362.9315 262.3164,362.4679 262.3845,362.0088 262.4973,361.5585 262.6537,361.1215 262.8522,360.7018 263.0908,360.3037 263.3673,359.9309 263.679,359.5869 264.023,359.2752 264.3958,358.9987 264.7939,358.7601 265.2135,358.5616 265.6506,358.4052 266.1009,358.2924 266.56,358.2243 267.0236,358.2016 267.4872,358.2243 267.9464,358.2924 268.3967,358.4052 268.8337,358.5616 269.2533,358.7601 269.6515,358.9987 270.0243,359.2752 270.3682,359.5869 270.6799,359.9309 270.9565,360.3037 271.1951,360.7018 271.3935,361.1215 271.5499,361.5585 271.6627,362.0088 271.7308,362.4679 271.7536,362.9315 271.7308,363.3952 271.6627,363.8543 271.5499,364.3046 271.3935,364.7416 271.1951,365.1612 270.9565,365.5594 270.6799,365.9322 270.3682,366.2761 270.0243,366.5879 269.6515,366.8644 269.2533,367.103 268.8337,367.3015 268.3967,367.4578 267.9464,367.5706 267.4872,367.6387 267.0236,367.6615"/>
    <polygon points="273.6322,356.3852 273.655,355.9216 273.7231,355.4624 273.8359,355.0122 273.9923,354.5751 274.1907,354.1555 274.4294,353.7574 274.7059,353.3845 275.0176,353.0406 275.3615,352.7289 275.7344,352.4524 276.1325,352.2137 276.5521,352.0153 276.9892,351.8589 277.4394,351.7461 277.8986,351.678 278.3622,351.6552 278.8258,351.678 279.285,351.7461 279.7352,351.8589 280.1723,352.0153 280.5919,352.2137 280.99,352.4524 281.3629,352.7289 281.7068,353.0406 282.0185,353.3845 282.295,353.7574 282.5337,354.1555 282.7321,354.5751 282.8885,355.0122 283.0013,355.4624 283.0694,355.9216 283.0922,356.3852 283.0694,356.8488 283.0013,357.308 282.8885,357.7582 282.7321,358.1953 282.5337,358.6149 282.295,359.013 282.0185,359.3859 281.7068,359.7298 281.3629,360.0415 280.99,360.318 280.5919,360.5567 280.1723,360.7551 279.7352,360.9115 279.285,361.0243 278.8258,361.0924 278.3622,361.1152 277.8986,361.0924 277.4394,361.0243 276.9892,360.9115 276.5521,360.7551 276.1325,360.5567 275.7344,360.318 275.3615,360.0415 275.0176,359.7298 274.7059,359.3859 274.4294,359.013 274.1907,358.6149 273.9923,358.1953 273.8359,357.7582 273.7231,357.308 273.655,356.8488"/>
    <polygon points="283.0694,342.8289 283.0922,343.2925 283.0694,343.7562 283.0013,344.2153 282.8885,344.6656 282.7321,345.1026 282.5337,345.5222 282.295,345.9204 282.0185,346.2932 281.7068,346.6371 281.3629,346.9489 280.99,347.2254 280.5919,347.464 280.1723,347.6625 279.7352,347.8188 279.285,347.9316 278.8258,347.9997 278.3622,348.0225 277.8986,347.9997 277.4394,347.9316 276.9892,347.8188 276.5521,347.6625 276.1325,347.464 275.7344,347.2254 275.3615,346.9489 275.0176,346.6371 274.7059,346.2932 274.4294,345.9204 274.1907,345.5222 273.9923,345.1026 273.8359,344.6656 273.7231,344.2153 273.655,343.7562 273.6322,343.2925 273.655,342.8289 273.7231,342.3698 273.8359,341.9195 273.9923,341.4825 274.1907,341.0628 274.4294,340.6647 274.7059,340.2919 275.0176,339.9479 275.3615,339.6362 275.7344,339.3597 276.1325,339.1211 276.5521,338.9226 276.9892,338.7662 277.4394,338.6534 277.8986,338.5853 278.3622,338.5626 278.8258,338.5853 279.285,338.6534 279.7352,338.7662 280.1723,338.9226 280.5919,339.1211 280.99,339.3597 281.3629,339.6362 281.7068,339.9479 282.0185,340.2919 282.295,340.6647 282.5337,341.0628 282.7321,341.4825 282.8885,341.9195 283.0013,342.3698"/>
    <polygon points="270.7409,336.7462 270.6866,337.8515 270.5242,338.9461 270.2553,340.0195 269.8825,341.0615 269.4094,342.0618 268.8405,343.011 268.1813,343.8998 267.4381,344.7198 266.6182,345.4629 265.7293,346.1221 264.7802,346.691 263.7798,347.1641 262.7379,347.537 261.6645,347.8058 260.5698,347.9682 259.4646,348.0225 258.3593,347.9682 257.2647,347.8058 256.1912,347.537 255.1493,347.1641 254.149,346.691 253.1998,346.1221 252.311,345.4629 251.491,344.7198 250.7479,343.8998 250.0887,343.011 249.5198,342.0618 249.0466,341.0615 248.6738,340.0195 248.4049,338.9461 248.2426,337.8515 248.1883,336.7462 248.2426,335.6409 248.4049,334.5463 248.6738,333.4729 249.0466,332.4309 249.5198,331.4306 250.0887,330.4814 250.7479,329.5926 251.491,328.7726 252.311,328.0295 253.1998,327.3703 254.149,326.8014 255.1493,326.3283 256.1912,325.9554 257.2647,325.6866 258.3593,325.5242 259.4646,325.4699 260.5698,325.5242 261.6645,325.6866 262.7379,325.9554 263.7798,326.3283 264.7802,326.8014 265.7293,327.3703 266.6182,328.0295 267.4381,328.7726 268.1813,329.5926 268.8405,330.4814 269.4094,331.4306 269.8825,332.4309 270.2553,333.4729 270.5242,334.5463 270.6866,335.6409"/>
    <polygon points="282.0185,327.1992 282.295,327.572 282.5337,327.9702 282.7321,328.3898 282.8885,328.8268 283.0013,329.2771 283.0694,329.7362 283.0922,330.1999 283.0694,330.6635 283.0013,331.1226 282.8885,331.5729 282.7321,332.0099 282.5337,332.4296 282.295,332.8277 282.0185,333.2005 281.7068,333.5445 281.3629,333.8562 280.99,334.1327 280.5919,334.3713 280.1723,334.5698 279.7352,334.7262 279.285,334.839 278.8258,334.9071 278.3622,334.9298 277.8986,334.9071 277.4394,334.839 276.9892,334.7262 276.5521,334.5698 276.1325,334.3713 275.7344,334.1327 275.3615,333.8562 275.0176,333.5445 274.7059,333.2005 274.4294,332.8277 274.1907,332.4296 273.9923,332.0099 273.8359,331.5729 273.7231,331.1226 273.655,330.6635 273.6322,330.1999 273.655,329.7362 273.7231,329.2771 273.8359,328.8268 273.9923,328.3898 274.1907,327.9702 274.4294,327.572 274.7059,327.1992 275.0176,326.8553 275.3615,326.5435 275.7344,326.267 276.1325,326.0284 276.5521,325.8299 276.9892,325.6736 277.4394,325.5608 277.8986,325.4927 278.3622,325.4699 278.8258,325.4927 279.285,325.5608 279.7352,325.6736 280.1723,325.8299 280.5919,326.0284 280.99,326.267 281.3629,326.5435 281.7068,326.8553"/>
    <polygon points="279.285,312.4681 279.7352,312.5809 280.1723,312.7373 280.5919,312.9357 280.99,313.1744 281.3629,313.4509 281.7068,313.7626 282.0185,314.1065 282.295,314.4794 282.5337,314.8775 282.7321,315.2971 282.8885,315.7342 283.0013,316.1844 283.0694,316.6436 283.0922,317.1072 283.0694,317.5708 283.0013,318.03 282.8885,318.4802 282.7321,318.9173 282.5337,319.3369 282.295,319.735 282.0185,320.1079 281.7068,320.4518 281.3629,320.7635 280.99,321.04 280.5919,321.2787 280.1723,321.4771 279.7352,321.6335 279.285,321.7463 278.8258,321.8144 278.3622,321.8372 277.8986,321.8144 277.4394,321.7463 276.9892,321.6335 276.5521,321.4771 276.1325,321.2787 275.7344,321.04 275.3615,320.7635 275.0176,320.4518 274.7059,320.1079 274.4294,319.735 274.1907,319.3369 273.9923,318.9173 273.8359,318.4802 273.7231,318.03 273.655,317.5708 273.6322,317.1072 273.655,316.6436 273.7231,316.1844 273.8359,315.7342 273.9923,315.2971 274.1907,314.8775 274.4294,314.4794 274.7059,314.1065 275.0176,313.7626 275.3615,313.4509 275.7344,313.1744 276.1325,312.9357 276.5521,312.7373 276.9892,312.5809 277.4394,312.4681 277.8986,312.4 278.3622,312.3772 278.8258,312.4"/>
    <polygon points="268.5981,281.987 268.7154,284.3755 268.5981,286.7641 268.2472,289.1297 267.6661,291.4495 266.8605,293.7011 265.838,295.863 264.6085,297.9142 263.1839,299.835 261.5779,301.607 259.806,303.213 257.8851,304.6376 255.8339,305.867 253.6721,306.8895 251.4204,307.6952 249.1006,308.2763 246.735,308.6272 244.3465,308.7445 241.9579,308.6272 239.5923,308.2763 237.2725,307.6952 235.0209,306.8895 232.859,305.867 230.8078,304.6376 228.8869,303.213 227.115,301.607 225.509,299.835 224.0844,297.9142 222.8549,295.863 221.8325,293.7011 221.0268,291.4495 220.4457,289.1297 220.0948,286.7641 219.9775,284.3755 220.0948,281.987 220.4457,279.6214 221.0268,277.3016 221.8325,275.0499 222.8549,272.8881 224.0844,270.8369 225.509,268.916 227.115,267.1441 228.8869,265.5381 230.8078,264.1135 232.859,262.884 235.0209,261.8615 237.2725,261.0559 239.5923,260.4748 241.9579,260.1239 244.3465,260.0066 246.735,260.1239 249.1006,260.4748 251.4204,261.0559 253.6721,261.8615 255.8339,262.884 257.8851,264.1135 259.806,265.5381 261.5779,267.1441 263.1839,268.916 264.6085,270.8369 265.838,272.8881 266.8605,275.0499 267.6661,277.3016 268.2472,279.6214"/>
    <polygon points="286.457,287.0502 287.4573,287.5234 288.4065,288.0923 289.2953,288.7515 290.1153,289.4946 290.8584,290.3146 291.5176,291.2034 292.0865,292.1526 292.5597,293.1529 292.9325,294.1949 293.2014,295.2683 293.3637,296.3629 293.418,297.4682 293.3637,298.5735 293.2014,299.6681 292.9325,300.7415 292.5597,301.7835 292.0865,302.7838 291.5176,303.733 290.8584,304.6218 290.1153,305.4417 289.2953,306.1849 288.4065,306.8441 287.4573,307.413 286.457,307.8861 285.4151,308.2589 284.3416,308.5278 283.247,308.6902 282.1417,308.7445 281.0365,308.6902 279.9418,308.5278 278.8684,308.2589 277.8265,307.8861 276.8261,307.413 275.877,306.8441 274.9881,306.1849 274.1682,305.4417 273.425,304.6218 272.7658,303.733 272.1969,302.7838 271.7238,301.7835 271.351,300.7415 271.0821,299.6681 270.9197,298.5735 270.8654,297.4682 270.9197,296.3629 271.0821,295.2683 271.351,294.1949 271.7238,293.1529 272.1969,292.1526 272.7658,291.2034 273.425,290.3146 274.1682,289.4946 274.9881,288.7515 275.877,288.0923 276.8261,287.5234 277.8265,287.0502 278.8684,286.6774 279.9418,286.4086 281.0365,286.2462 282.1417,286.1919 283.247,286.2462 284.3416,286.4086 285.4151,286.6774"/>
    <polygon points="297.6948,261.3919 298.0387,261.0802 298.4115,260.8037 298.8097,260.5651 299.2293,260.3666 299.6663,260.2102 300.1166,260.0974 300.5758,260.0293 301.0394,260.0066 301.503,260.0293 301.9621,260.0974 302.4124,260.2102 302.8495,260.3666 303.2691,260.5651 303.6672,260.8037 304.04,261.0802 304.384,261.3919 304.6957,261.7359 304.9722,262.1087 305.2108,262.5068 305.4093,262.9264 305.5657,263.3635 305.6785,263.8138 305.7466,264.2729 305.7693,264.7365 305.7466,265.2001 305.6785,265.6593 305.5657,266.1096 305.4093,266.5466 305.2108,266.9662 304.9722,267.3644 304.6957,267.7372 304.384,268.0811 304.04,268.3928 303.6672,268.6694 303.2691,268.908 302.8495,269.1065 302.4124,269.2628 301.9621,269.3756 301.503,269.4437 301.0394,269.4665 300.5758,269.4437 300.1166,269.3756 299.6663,269.2628 299.2293,269.1065 298.8097,268.908 298.4115,268.6694 298.0387,268.3928 297.6948,268.0811 297.3831,267.7372 297.1065,267.3644 296.8679,266.9662 296.6694,266.5466 296.5131,266.1096 296.4003,265.6593 296.3322,265.2001 296.3094,264.7365 296.3322,264.2729 296.4003,263.8138 296.5131,263.3635 296.6694,262.9264 296.8679,262.5068 297.1065,262.1087 297.3831,261.7359"/>
    <polygon points="277.8265,260.8649 278.8684,260.4921 279.9418,260.2232 281.0365,260.0609 282.1417,260.0066 283.247,260.0609 284.3416,260.2232 285.4151,260.4921 286.457,260.8649 287.4573,261.338 288.4065,261.907 289.2953,262.5662 290.1153,263.3093 290.8584,264.1292 291.5176,265.0181 292.0865,265.9672 292.5597,266.9676 292.9325,268.0095 293.2014,269.083 293.3637,270.1776 293.418,271.2829 293.3637,272.3881 293.2014,273.4828 292.9325,274.5562 292.5597,275.5981 292.0865,276.5985 291.5176,277.5476 290.8584,278.4365 290.1153,279.2564 289.2953,279.9996 288.4065,280.6588 287.4573,281.2277 286.457,281.7008 285.4151,282.0736 284.3416,282.3425 283.247,282.5049 282.1417,282.5592 281.0365,282.5049 279.9418,282.3425 278.8684,282.0736 277.8265,281.7008 276.8261,281.2277 275.877,280.6588 274.9881,279.9996 274.1682,279.2564 273.425,278.4365 272.7658,277.5476 272.1969,276.5985 271.7238,275.5981 271.351,274.5562 271.0821,273.4828 270.9197,272.3881 270.8654,271.2829 270.9197,270.1776 271.0821,269.083 271.351,268.0095 271.7238,266.9676 272.1969,265.9672 272.7658,265.0181 273.425,264.1292 274.1682,263.3093 274.9881,262.5662 275.877,261.907 276.8261,261.338"/>
    <polygon points="253.0572,242.484 252.6844,242.2075 252.3404,241.8958 252.0287,241.5519 251.7522,241.179 251.5136,240.7809 251.3151,240.3613 251.1587,239.9242 251.046,239.474 250.9778,239.0148 250.9551,238.5512 250.9778,238.0876 251.046,237.6284 251.1587,237.1782 251.3151,236.7411 251.5136,236.3215 251.7522,235.9234 252.0287,235.5505 252.3404,235.2066 252.6844,234.8949 253.0572,234.6184 253.4553,234.3797 253.875,234.1813 254.312,234.0249 254.7623,233.9121 255.2214,233.844 255.685,233.8212 256.1487,233.844 256.6078,233.9121 257.0581,234.0249 257.4951,234.1813 257.9147,234.3797 258.3129,234.6184 258.6857,234.8949 259.0296,235.2066 259.3414,235.5505 259.6179,235.9234 259.8565,236.3215 260.055,236.7411 260.2113,237.1782 260.3241,237.6284 260.3922,238.0876 260.415,238.5512 260.3922,239.0148 260.3241,239.474 260.2113,239.9242 260.055,240.3613 259.8565,240.7809 259.6179,241.179 259.3414,241.5519 259.0296,241.8958 258.6857,242.2075 258.3129,242.484 257.9147,242.7227 257.4951,242.9211 257.0581,243.0775 256.6078,243.1903 256.1487,243.2584 255.685,243.2812 255.2214,243.2584 254.7623,243.1903 254.312,243.0775 253.875,242.9211 253.4553,242.7227"/>
    <polygon points="225.5654,246.2028 225.5111,245.0975 225.5654,243.9923 225.7278,242.8976 225.9966,241.8242 226.3695,240.7823 226.8426,239.7819 227.4115,238.8327 228.0707,237.9439 228.8138,237.124 229.6338,236.3808 230.5226,235.7216 231.4718,235.1527 232.4721,234.6796 233.5141,234.3068 234.5875,234.0379 235.6821,233.8755 236.7874,233.8212 237.8927,233.8755 238.9873,234.0379 240.0607,234.3068 241.1027,234.6796 242.103,235.1527 243.0522,235.7216 243.941,236.3808 244.761,237.124 245.5041,237.9439 246.1633,238.8327 246.7322,239.7819 247.2054,240.7823 247.5782,241.8242 247.847,242.8976 248.0094,243.9923 248.0637,245.0975 248.0094,246.2028 247.847,247.2974 247.5782,248.3709 247.2054,249.4128 246.7322,250.4131 246.1633,251.3623 245.5041,252.2511 244.761,253.0711 243.941,253.8142 243.0522,254.4734 242.103,255.0423 241.1027,255.5155 240.0607,255.8883 238.9873,256.1572 237.8927,256.3195 236.7874,256.3738 235.6821,256.3195 234.5875,256.1572 233.5141,255.8883 232.4721,255.5155 231.4718,255.0423 230.5226,254.4734 229.6338,253.8142 228.8138,253.0711 228.0707,252.2511 227.4115,251.3623 226.8426,250.4131 226.3695,249.4128 225.9966,248.3709 225.7278,247.2974"/>
    <polygon points="225.9966,222.1855 225.7278,221.1121 225.5654,220.0175 225.5111,218.9122 225.5654,217.8069 225.7278,216.7123 225.9966,215.6389 226.3695,214.5969 226.8426,213.5966 227.4115,212.6474 228.0707,211.7586 228.8138,210.9386 229.6338,210.1955 230.5226,209.5363 231.4718,208.9674 232.4721,208.4942 233.5141,208.1214 234.5875,207.8526 235.6821,207.6902 236.7874,207.6359 237.8927,207.6902 238.9873,207.8526 240.0607,208.1214 241.1027,208.4942 242.103,208.9674 243.0522,209.5363 243.941,210.1955 244.761,210.9386 245.5041,211.7586 246.1633,212.6474 246.7322,213.5966 247.2054,214.5969 247.5782,215.6389 247.847,216.7123 248.0094,217.8069 248.0637,218.9122 248.0094,220.0175 247.847,221.1121 247.5782,222.1855 247.2054,223.2274 246.7322,224.2278 246.1633,225.177 245.5041,226.0658 244.761,226.8857 243.941,227.6289 243.0522,228.2881 242.103,228.857 241.1027,229.3301 240.0607,229.7029 238.9873,229.9718 237.8927,230.1342 236.7874,230.1885 235.6821,230.1342 234.5875,229.9718 233.5141,229.7029 232.4721,229.3301 231.4718,228.857 230.5226,228.2881 229.6338,227.6289 228.8138,226.8857 228.0707,226.0658 227.4115,225.177 226.8426,224.2278 226.3695,223.2274"/>
    <polygon points="212.5604,208.1944 212.9585,208.433 213.3314,208.7095 213.6753,209.0213 213.987,209.3652 214.2635,209.738 214.5022,210.1362 214.7006,210.5558 214.857,210.9928 214.9698,211.4431 215.0379,211.9022 215.0607,212.3659 215.0379,212.8295 214.9698,213.2886 214.857,213.7389 214.7006,214.1759 214.5022,214.5956 214.2635,214.9937 213.987,215.3665 213.6753,215.7105 213.3314,216.0222 212.9585,216.2987 212.5604,216.5373 212.1408,216.7358 211.7037,216.8922 211.2535,217.0049 210.7943,217.0731 210.3307,217.0958 209.8671,217.0731 209.4079,217.0049 208.9577,216.8922 208.5206,216.7358 208.101,216.5373 207.7029,216.2987 207.33,216.0222 206.9861,215.7105 206.6744,215.3665 206.3979,214.9937 206.1592,214.5956 205.9608,214.1759 205.8044,213.7389 205.6916,213.2886 205.6235,212.8295 205.6007,212.3659 205.6235,211.9022 205.6916,211.4431 205.8044,210.9928 205.9608,210.5558 206.1592,210.1362 206.3979,209.738 206.6744,209.3652 206.9861,209.0213 207.33,208.7095 207.7029,208.433 208.101,208.1944 208.5206,207.9959 208.9577,207.8396 209.4079,207.7268 209.8671,207.6587 210.3307,207.6359 210.7943,207.6587 211.2535,207.7268 211.7037,207.8396 212.1408,207.9959"/>
    <polygon points="225.3256,208.8202 225.0139,209.1641 224.67,209.4758 224.2971,209.7524 223.899,209.991 223.4794,210.1894 223.0423,210.3458 222.5921,210.4586 222.1329,210.5267 221.6693,210.5495 221.2057,210.5267 220.7465,210.4586 220.2963,210.3458 219.8592,210.1894 219.4396,209.991 219.0415,209.7524 218.6686,209.4758 218.3247,209.1641 218.013,208.8202 217.7365,208.4474 217.4978,208.0492 217.2994,207.6296 217.143,207.1926 217.0302,206.7423 216.9621,206.2831 216.9393,205.8195 216.9621,205.3559 217.0302,204.8968 217.143,204.4465 217.2994,204.0094 217.4978,203.5898 217.7365,203.1917 218.013,202.8189 218.3247,202.4749 218.6686,202.1632 219.0415,201.8867 219.4396,201.6481 219.8592,201.4496 220.2963,201.2932 220.7465,201.1804 221.2057,201.1123 221.6693,201.0896 222.1329,201.1123 222.5921,201.1804 223.0423,201.2932 223.4794,201.4496 223.899,201.6481 224.2971,201.8867 224.67,202.1632 225.0139,202.4749 225.3256,202.8189 225.6021,203.1917 225.8408,203.5898 226.0392,204.0094 226.1956,204.4465 226.3084,204.8968 226.3765,205.3559 226.3993,205.8195 226.3765,206.2831 226.3084,206.7423 226.1956,207.1926 226.0392,207.6296 225.8408,208.0492 225.6021,208.4474"/>
    <polygon points="236.0085,202.9295 235.6357,203.206 235.2376,203.4447 234.818,203.6431 234.3809,203.7995 233.9306,203.9123 233.4715,203.9804 233.0079,204.0032 232.5443,203.9804 232.0851,203.9123 231.6348,203.7995 231.1978,203.6431 230.7782,203.4447 230.38,203.206 230.0072,202.9295 229.6633,202.6178 229.3516,202.2739 229.075,201.901 228.8364,201.5029 228.6379,201.0833 228.4816,200.6462 228.3688,200.196 228.3007,199.7368 228.2779,199.2732 228.3007,198.8096 228.3688,198.3504 228.4816,197.9002 228.6379,197.4631 228.8364,197.0435 229.075,196.6454 229.3516,196.2725 229.6633,195.9286 230.0072,195.6169 230.38,195.3404 230.7782,195.1017 231.1978,194.9033 231.6348,194.7469 232.0851,194.6341 232.5443,194.566 233.0079,194.5432 233.4715,194.566 233.9306,194.6341 234.3809,194.7469 234.818,194.9033 235.2376,195.1017 235.6357,195.3404 236.0085,195.6169 236.3525,195.9286 236.6642,196.2725 236.9407,196.6454 237.1793,197.0435 237.3778,197.4631 237.5342,197.9002 237.647,198.3504 237.7151,198.8096 237.7378,199.2732 237.7151,199.7368 237.647,200.196 237.5342,200.6462 237.3778,201.0833 237.1793,201.5029 236.9407,201.901 236.6642,202.2739 236.3525,202.6178"/>
    <polygon points="224.67,189.0705 225.0139,189.3823 225.3256,189.7262 225.6021,190.099 225.8408,190.4972 226.0392,190.9168 226.1956,191.3538 226.3084,191.8041 226.3765,192.2632 226.3993,192.7269 226.3765,193.1905 226.3084,193.6496 226.1956,194.0999 226.0392,194.5369 225.8408,194.9566 225.6021,195.3547 225.3256,195.7275 225.0139,196.0715 224.67,196.3832 224.2971,196.6597 223.899,196.8983 223.4794,197.0968 223.0423,197.2532 222.5921,197.3659 222.1329,197.4341 221.6693,197.4568 221.2057,197.4341 220.7465,197.3659 220.2963,197.2532 219.8592,197.0968 219.4396,196.8983 219.0415,196.6597 218.6686,196.3832 218.3247,196.0715 218.013,195.7275 217.7365,195.3547 217.4978,194.9566 217.2994,194.5369 217.143,194.0999 217.0302,193.6496 216.9621,193.1905 216.9393,192.7269 216.9621,192.2632 217.0302,191.8041 217.143,191.3538 217.2994,190.9168 217.4978,190.4972 217.7365,190.099 218.013,189.7262 218.3247,189.3823 218.6686,189.0705 219.0415,188.794 219.4396,188.5554 219.8592,188.3569 220.2963,188.2006 220.7465,188.0878 221.2057,188.0197 221.6693,187.9969 222.1329,188.0197 222.5921,188.0878 223.0423,188.2006 223.4794,188.3569 223.899,188.5554 224.2971,188.794"/>
    <polygon points="208.5206,190.5504 208.101,190.352 207.7029,190.1134 207.33,189.8368 206.9861,189.5251 206.6744,189.1812 206.3979,188.8084 206.1592,188.4102 205.9608,187.9906 205.8044,187.5536 205.6916,187.1033 205.6235,186.6441 205.6007,186.1805 205.6235,185.7169 205.6916,185.2578 205.8044,184.8075 205.9608,184.3704 206.1592,183.9508 206.3979,183.5527 206.6744,183.1799 206.9861,182.8359 207.33,182.5242 207.7029,182.2477 208.101,182.0091 208.5206,181.8106 208.9577,181.6542 209.4079,181.5414 209.8671,181.4733 210.3307,181.4506 210.7943,181.4733 211.2535,181.5414 211.7037,181.6542 212.1408,181.8106 212.5604,182.0091 212.9585,182.2477 213.3314,182.5242 213.6753,182.8359 213.987,183.1799 214.2635,183.5527 214.5022,183.9508 214.7006,184.3704 214.857,184.8075 214.9698,185.2578 215.0379,185.7169 215.0607,186.1805 215.0379,186.6441 214.9698,187.1033 214.857,187.5536 214.7006,187.9906 214.5022,188.4102 214.2635,188.8084 213.987,189.1812 213.6753,189.5251 213.3314,189.8368 212.9585,190.1134 212.5604,190.352 212.1408,190.5504 211.7037,190.7068 211.2535,190.8196 210.7943,190.8877 210.3307,190.9105 209.8671,190.8877 209.4079,190.8196 208.9577,190.7068"/>
    <polygon points="192.0235,201.0833 191.825,201.5029 191.5864,201.901 191.3099,202.2739 190.9981,202.6178 190.6542,202.9295 190.2814,203.206 189.8832,203.4447 189.4636,203.6431 189.0266,203.7995 188.5763,203.9123 188.1172,203.9804 187.6535,204.0032 187.1899,203.9804 186.7308,203.9123 186.2805,203.7995 185.8435,203.6431 185.4238,203.4447 185.0257,203.206 184.6529,202.9295 184.3089,202.6178 183.9972,202.2739 183.7207,201.901 183.4821,201.5029 183.2836,201.0833 183.1272,200.6462 183.0145,200.196 182.9463,199.7368 182.9236,199.2732 182.9463,198.8096 183.0145,198.3504 183.1272,197.9002 183.2836,197.4631 183.4821,197.0435 183.7207,196.6454 183.9972,196.2725 184.3089,195.9286 184.6529,195.6169 185.0257,195.3404 185.4238,195.1017 185.8435,194.9033 186.2805,194.7469 186.7308,194.6341 187.1899,194.566 187.6535,194.5432 188.1172,194.566 188.5763,194.6341 189.0266,194.7469 189.4636,194.9033 189.8832,195.1017 190.2814,195.3404 190.6542,195.6169 190.9981,195.9286 191.3099,196.2725 191.5864,196.6454 191.825,197.0435 192.0235,197.4631 192.1798,197.9002 192.2926,198.3504 192.3607,198.8096 192.3835,199.2732 192.3607,199.7368 192.2926,200.196 192.1798,200.6462"/>
    <polygon points="180.6849,207.6296 180.4864,208.0492 180.2478,208.4474 179.9713,208.8202 179.6596,209.1641 179.3156,209.4758 178.9428,209.7524 178.5447,209.991 178.125,210.1894 177.688,210.3458 177.2377,210.4586 176.7786,210.5267 176.315,210.5495 175.8513,210.5267 175.3922,210.4586 174.9419,210.3458 174.5049,210.1894 174.0853,209.991 173.6871,209.7524 173.3143,209.4758 172.9704,209.1641 172.6586,208.8202 172.3821,208.4474 172.1435,208.0492 171.945,207.6296 171.7887,207.1926 171.6759,206.7423 171.6078,206.2831 171.585,205.8195 171.6078,205.3559 171.6759,204.8968 171.7887,204.4465 171.945,204.0094 172.1435,203.5898 172.3821,203.1917 172.6586,202.8189 172.9704,202.4749 173.3143,202.1632 173.6871,201.8867 174.0853,201.6481 174.5049,201.4496 174.9419,201.2932 175.3922,201.1804 175.8513,201.1123 176.315,201.0896 176.7786,201.1123 177.2377,201.1804 177.688,201.2932 178.125,201.4496 178.5447,201.6481 178.9428,201.8867 179.3156,202.1632 179.6596,202.4749 179.9713,202.8189 180.2478,203.1917 180.4864,203.5898 180.6849,204.0094 180.8413,204.4465 180.954,204.8968 181.0222,205.3559 181.0449,205.8195 181.0222,206.2831 180.954,206.7423 180.8413,207.1926"/>
    <polygon points="180.6423,215.6389 181.0151,214.5969 181.4883,213.5966 182.0572,212.6474 182.7164,211.7586 183.4595,210.9386 184.2795,210.1955 185.1683,209.5363 186.1175,208.9674 187.1178,208.4942 188.1597,208.1214 189.2332,207.8526 190.3278,207.6902 191.4331,207.6359 192.5383,207.6902 193.633,207.8526 194.7064,208.1214 195.7483,208.4942 196.7487,208.9674 197.6979,209.5363 198.5867,210.1955 199.4066,210.9386 200.1498,211.7586 200.809,212.6474 201.3779,213.5966 201.851,214.5969 202.2238,215.6389 202.4927,216.7123 202.6551,217.8069 202.7094,218.9122 202.6551,220.0175 202.4927,221.1121 202.2238,222.1855 201.851,223.2274 201.3779,224.2278 200.809,225.177 200.1498,226.0658 199.4066,226.8857 198.5867,227.6289 197.6979,228.2881 196.7487,228.857 195.7483,229.3301 194.7064,229.7029 193.633,229.9718 192.5383,230.1342 191.4331,230.1885 190.3278,230.1342 189.2332,229.9718 188.1597,229.7029 187.1178,229.3301 186.1175,228.857 185.1683,228.2881 184.2795,227.6289 183.4595,226.8857 182.7164,226.0658 182.0572,225.177 181.4883,224.2278 181.0151,223.2274 180.6423,222.1855 180.3734,221.1121 180.2111,220.0175 180.1568,218.9122 180.2111,217.8069 180.3734,216.7123"/>
    <polygon points="189.6665,235.6762 191.9182,234.8705 194.238,234.2895 196.6035,233.9386 198.9921,233.8212 201.3807,233.9386 203.7463,234.2895 206.0661,234.8705 208.3177,235.6762 210.4796,236.6987 212.5308,237.9281 214.4516,239.3527 216.2236,240.9587 217.8296,242.7307 219.2542,244.6515 220.4836,246.7027 221.5061,248.8646 222.3118,251.1163 222.8929,253.436 223.2438,255.8016 223.3611,258.1902 223.2438,260.5788 222.8929,262.9443 222.3118,265.2641 221.5061,267.5158 220.4836,269.6776 219.2542,271.7289 217.8296,273.6497 216.2236,275.4217 214.4516,277.0277 212.5308,278.4523 210.4796,279.6817 208.3177,280.7042 206.0661,281.5098 203.7463,282.0909 201.3807,282.4418 198.9921,282.5592 196.6035,282.4418 194.238,282.0909 191.9182,281.5098 189.6665,280.7042 187.5047,279.6817 185.4534,278.4523 183.5326,277.0277 181.7607,275.4217 180.1547,273.6497 178.7301,271.7289 177.5006,269.6776 176.4781,267.5158 175.6725,265.2641 175.0914,262.9443 174.7405,260.5788 174.6232,258.1902 174.7405,255.8016 175.0914,253.436 175.6725,251.1163 176.4781,248.8646 177.5006,246.7027 178.7301,244.6515 180.1547,242.7307 181.7607,240.9587 183.5326,239.3527 185.4534,237.9281 187.5047,236.6987"/>
    <polygon points="156.2656,267.35 155.8675,267.1114 155.4479,266.9129 155.0108,266.7566 154.5606,266.6438 154.1014,266.5757 153.6378,266.5529 153.1742,266.5757 152.715,266.6438 152.2648,266.7566 151.8277,266.9129 151.4081,267.1114 151.01,267.35 150.6371,267.6265 150.2932,267.9383 149.9815,268.2822 149.705,268.655 149.4663,269.0532 149.2679,269.4728 149.1115,269.9098 148.9987,270.3601 148.9306,270.8192 148.9078,271.2829 148.9306,271.7465 148.9987,272.2056 149.1115,272.6559 149.2679,273.0929 149.4663,273.5126 149.705,273.9107 149.9815,274.2835 150.2932,274.6275 150.6371,274.9392 151.01,275.2157 151.4081,275.4543 151.8277,275.6528 152.2648,275.8092 152.715,275.9219 153.1742,275.9901 153.6378,276.0128 154.1014,275.9901 154.5606,275.9219 155.0108,275.8092 155.4479,275.6528 155.8675,275.4543 156.2656,275.2157 156.6385,274.9392 156.9824,274.6275 157.2941,274.2835 157.5706,273.9107 157.8093,273.5126 158.0077,273.0929 158.1641,272.6559 158.2769,272.2056 158.345,271.7465 158.3678,271.2829 158.345,270.8192 158.2769,270.3601 158.1641,269.9098 158.0077,269.4728 157.8093,269.0532 157.5706,268.655 157.2941,268.2822 156.9824,267.9383 156.6385,267.6265"/>
    <polygon points="158.1641,246.4706 158.2769,246.0203 158.345,245.5611 158.3678,245.0975 158.345,244.6339 158.2769,244.1748 158.1641,243.7245 158.0077,243.2874 157.8093,242.8678 157.5706,242.4697 157.2941,242.0969 156.9824,241.7529 156.6385,241.4412 156.2656,241.1647 155.8675,240.9261 155.4479,240.7276 155.0108,240.5712 154.5606,240.4584 154.1014,240.3903 153.6378,240.3676 153.1742,240.3903 152.715,240.4584 152.2648,240.5712 151.8277,240.7276 151.4081,240.9261 151.01,241.1647 150.6371,241.4412 150.2932,241.7529 149.9815,242.0969 149.705,242.4697 149.4663,242.8678 149.2679,243.2874 149.1115,243.7245 148.9987,244.1748 148.9306,244.6339 148.9078,245.0975 148.9306,245.5611 148.9987,246.0203 149.1115,246.4706 149.2679,246.9076 149.4663,247.3272 149.705,247.7254 149.9815,248.0982 150.2932,248.4421 150.6371,248.7538 151.01,249.0304 151.4081,249.269 151.8277,249.4675 152.2648,249.6238 152.715,249.7366 153.1742,249.8047 153.6378,249.8275 154.1014,249.8047 154.5606,249.7366 155.0108,249.6238 155.4479,249.4675 155.8675,249.269 156.2656,249.0304 156.6385,248.7538 156.9824,248.4421 157.2941,248.0982 157.5706,247.7254 157.8093,247.3272 158.0077,246.9076"/>
    <polygon points="142.8054,229.7029 143.8788,229.9718 144.9735,230.1342 146.0787,230.1885 147.184,230.1342 148.2786,229.9718 149.3521,229.7029 150.394,229.3301 151.3944,228.857 152.3435,228.2881 153.2324,227.6289 154.0523,226.8857 154.7954,226.0658 155.4546,225.177 156.0236,224.2278 156.4967,223.2274 156.8695,222.1855 157.1384,221.1121 157.3007,220.0175 157.355,218.9122 157.3007,217.8069 157.1384,216.7123 156.8695,215.6389 156.4967,214.5969 156.0236,213.5966 155.4546,212.6474 154.7954,211.7586 154.0523,210.9386 153.2324,210.1955 152.3435,209.5363 151.3944,208.9674 150.394,208.4942 149.3521,208.1214 148.2786,207.8526 147.184,207.6902 146.0787,207.6359 144.9735,207.6902 143.8788,207.8526 142.8054,208.1214 141.7635,208.4942 140.7631,208.9674 139.814,209.5363 138.9251,210.1955 138.1052,210.9386 137.362,211.7586 136.7028,212.6474 136.1339,213.5966 135.6608,214.5969 135.288,215.6389 135.0191,216.7123 134.8567,217.8069 134.8024,218.9122 134.8567,220.0175 135.0191,221.1121 135.288,222.1855 135.6608,223.2274 136.1339,224.2278 136.7028,225.177 137.362,226.0658 138.1052,226.8857 138.9251,227.6289 139.814,228.2881 140.7631,228.857 141.7635,229.3301"/>
    <polygon points="169.8612,220.7829 168.7559,220.7286 167.6506,220.7829 166.556,220.9452 165.4826,221.2141 164.4406,221.5869 163.4403,222.06 162.4911,222.629 161.6023,223.2882 160.7824,224.0313 160.0392,224.8512 159.38,225.7401 158.8111,226.6892 158.338,227.6896 157.9652,228.7315 157.6963,229.805 157.5339,230.8996 157.4796,232.0049 157.5339,233.1101 157.6963,234.2048 157.9652,235.2782 158.338,236.3201 158.8111,237.3205 159.38,238.2696 160.0392,239.1585 160.7824,239.9784 161.6023,240.7216 162.4911,241.3808 163.4403,241.9497 164.4406,242.4228 165.4826,242.7956 166.556,243.0645 167.6506,243.2269 168.7559,243.2812 169.8612,243.2269 170.9558,243.0645 172.0292,242.7956 173.0712,242.4228 174.0715,241.9497 175.0207,241.3808 175.9095,240.7216 176.7295,239.9784 177.4726,239.1585 178.1318,238.2696 178.7007,237.3205 179.1739,236.3201 179.5467,235.2782 179.8155,234.2048 179.9779,233.1101 180.0322,232.0049 179.9779,230.8996 179.8155,229.805 179.5467,228.7315 179.1739,227.6896 178.7007,226.6892 178.1318,225.7401 177.4726,224.8512 176.7295,224.0313 175.9095,223.2882 175.0207,222.629 174.0715,222.06 173.0712,221.5869 172.0292,221.2141 170.9558,220.9452"/>
    <polygon points="168.6327,196.2725 168.321,195.9286 167.977,195.6169 167.6042,195.3404 167.2061,195.1017 166.7865,194.9033 166.3494,194.7469 165.8991,194.6341 165.44,194.566 164.9764,194.5432 164.5128,194.566 164.0536,194.6341 163.6033,194.7469 163.1663,194.9033 162.7467,195.1017 162.3485,195.3404 161.9757,195.6169 161.6318,195.9286 161.3201,196.2725 161.0435,196.6454 160.8049,197.0435 160.6065,197.4631 160.4501,197.9002 160.3373,198.3504 160.2692,198.8096 160.2464,199.2732 160.2692,199.7368 160.3373,200.196 160.4501,200.6462 160.6065,201.0833 160.8049,201.5029 161.0435,201.901 161.3201,202.2739 161.6318,202.6178 161.9757,202.9295 162.3485,203.206 162.7467,203.4447 163.1663,203.6431 163.6033,203.7995 164.0536,203.9123 164.5128,203.9804 164.9764,204.0032 165.44,203.9804 165.8991,203.9123 166.3494,203.7995 166.7865,203.6431 167.2061,203.4447 167.6042,203.206 167.977,202.9295 168.321,202.6178 168.6327,202.2739 168.9092,201.901 169.1478,201.5029 169.3463,201.0833 169.5027,200.6462 169.6155,200.196 169.6836,199.7368 169.7064,199.2732 169.6836,198.8096 169.6155,198.3504 169.5027,197.9002 169.3463,197.4631 169.1478,197.0435 168.9092,196.6454"/>
    <polygon points="172.3821,190.099 172.1435,190.4972 171.945,190.9168 171.7887,191.3538 171.6759,191.8041 171.6078,192.2632 171.585,192.7269 171.6078,193.1905 171.6759,193.6496 171.7887,194.0999 171.945,194.5369 172.1435,194.9566 172.3821,195.3547 172.6586,195.7275 172.9704,196.0715 173.3143,196.3832 173.6871,196.6597 174.0853,196.8983 174.5049,197.0968 174.9419,197.2532 175.3922,197.3659 175.8513,197.4341 176.315,197.4568 176.7786,197.4341 177.2377,197.3659 177.688,197.2532 178.125,197.0968 178.5447,196.8983 178.9428,196.6597 179.3156,196.3832 179.6596,196.0715 179.9713,195.7275 180.2478,195.3547 180.4864,194.9566 180.6849,194.5369 180.8413,194.0999 180.954,193.6496 181.0222,193.1905 181.0449,192.7269 181.0222,192.2632 180.954,191.8041 180.8413,191.3538 180.6849,190.9168 180.4864,190.4972 180.2478,190.099 179.9713,189.7262 179.6596,189.3823 179.3156,189.0705 178.9428,188.794 178.5447,188.5554 178.125,188.3569 177.688,188.2006 177.2377,188.0878 176.7786,188.0197 176.315,187.9969 175.8513,188.0197 175.3922,188.0878 174.9419,188.2006 174.5049,188.3569 174.0853,188.5554 173.6871,188.794 173.3143,189.0705 172.9704,189.3823 172.6586,189.7262"/>
    <polygon points="156.6385,183.2905 156.9824,182.9788 157.2941,182.6349 157.5706,182.262 157.8093,181.8639 158.0077,181.4443 158.1641,181.0072 158.2769,180.557 158.345,180.0978 158.3678,179.6342 158.345,179.1706 158.2769,178.7114 158.1641,178.2612 158.0077,177.8241 157.8093,177.4045 157.5706,177.0064 157.2941,176.6335 156.9824,176.2896 156.6385,175.9779 156.2656,175.7014 155.8675,175.4627 155.4479,175.2643 155.0108,175.1079 154.5606,174.9951 154.1014,174.927 153.6378,174.9042 153.1742,174.927 152.715,174.9951 152.2648,175.1079 151.8277,175.2643 151.4081,175.4627 151.01,175.7014 150.6371,175.9779 150.2932,176.2896 149.9815,176.6335 149.705,177.0064 149.4663,177.4045 149.2679,177.8241 149.1115,178.2612 148.9987,178.7114 148.9306,179.1706 148.9078,179.6342 148.9306,180.0978 148.9987,180.557 149.1115,181.0072 149.2679,181.4443 149.4663,181.8639 149.705,182.262 149.9815,182.6349 150.2932,182.9788 150.6371,183.2905 151.01,183.567 151.4081,183.8057 151.8277,184.0041 152.2648,184.1605 152.715,184.2733 153.1742,184.3414 153.6378,184.3642 154.1014,184.3414 154.5606,184.2733 155.0108,184.1605 155.4479,184.0041 155.8675,183.8057 156.2656,183.567"/>
    <polygon points="152.2648,188.2006 151.8277,188.3569 151.4081,188.5554 151.01,188.794 150.6371,189.0705 150.2932,189.3823 149.9815,189.7262 149.705,190.099 149.4663,190.4972 149.2679,190.9168 149.1115,191.3538 148.9987,191.8041 148.9306,192.2632 148.9078,192.7269 148.9306,193.1905 148.9987,193.6496 149.1115,194.0999 149.2679,194.5369 149.4663,194.9566 149.705,195.3547 149.9815,195.7275 150.2932,196.0715 150.6371,196.3832 151.01,196.6597 151.4081,196.8983 151.8277,197.0968 152.2648,197.2532 152.715,197.3659 153.1742,197.4341 153.6378,197.4568 154.1014,197.4341 154.5606,197.3659 155.0108,197.2532 155.4479,197.0968 155.8675,196.8983 156.2656,196.6597 156.6385,196.3832 156.9824,196.0715 157.2941,195.7275 157.5706,195.3547 157.8093,194.9566 158.0077,194.5369 158.1641,194.0999 158.2769,193.6496 158.345,193.1905 158.3678,192.7269 158.345,192.2632 158.2769,191.8041 158.1641,191.3538 158.0077,190.9168 157.8093,190.4972 157.5706,190.099 157.2941,189.7262 156.9824,189.3823 156.6385,189.0705 156.2656,188.794 155.8675,188.5554 155.4479,188.3569 155.0108,188.2006 154.5606,188.0878 154.1014,188.0197 153.6378,187.9969 153.1742,188.0197 152.715,188.0878"/>
  </g>
</svg>
