<?xml version="1.0" encoding="utf-8" ?>
<svg xmlns="http://www.w3.org/2000/svg" xmlns:cc="http://creativecommons.org/ns" xmlns:dc="http://purl.org/dc/elements/1.1/" xmlns:ev="http://www.w3.org/2001/xml-events" xmlns:inkscape="http://www.inkscape.org/namespaces/inkscape" xmlns:rdf="http://www.w3.org/1999/02/22-rdf-syntax-ns" xmlns:sodipodi="http://sodipodi.sourceforge.net/DTD/sodipodi-0.dtd" xmlns:xlink="http://www.w3.org/1999/xlink" baseProfile="tiny" height="15.875cm" version="1.2" viewBox="0 0 432.0 600.0" width="11.43cm">
  <metadata>
    <rdf:RDF>
      <cc:Work>
        <dc:format>image/svg+xml</dc:format>
        <dc:source>vsk save -s 185 -c hex-grid/config/bubble-coasters-2.json /Users/tobin/src/fabian/plotting/fabian-plotting/hex-grid/sketch_hex_grid.py</dc:source>
        <dc:date>2023-11-04T10:32:59.851036</dc:date>
      </cc:Work>
    </rdf:RDF>
  </metadata>
  <defs/>
  <g fill="none" id="layer1" inkscape:groupmode="layer" inkscape:label="1" stroke="#000000" stroke-width="0.7559" style="display:inline">
    <polygon points="146.4324,316.9819 147.4328,316.5087 148.4747,316.1359 149.5481,315.8671 150.6428,315.7047 151.748,315.6504 152.8533,315.7047 153.9479,315.8671 155.0214,316.1359 156.0633,316.5087 157.0636,316.9819 158.0128,317.5508 158.9016,318.21 159.7216,318.9531 160.4647,319.7731 161.1239,320.6619 161.6928,321.6111 162.166,322.6114 162.5388,323.6534 162.8077,324.7268 162.97,325.8214 163.0243,326.9267 162.97,328.032 162.8077,329.1266 162.5388,330.2 162.166,331.242 161.6928,332.2423 161.1239,333.1915 160.4647,334.0803 159.7216,334.9003 158.9016,335.6434 158.0128,336.3026 157.0636,336.8715 156.0633,337.3446 155.0214,337.7175 153.9479,337.9863 152.8533,338.1487 151.748,338.203 150.6428,338.1487 149.5481,337.9863 148.4747,337.7175 147.4328,337.3446 146.4324,336.8715 145.4833,336.3026 144.5944,335.6434 143.7745,334.9003 143.0313,334.0803 142.3721,333.1915 141.8032,332.2423 141.3301,331.242 140.9573,330.2 140.6884,329.1266 140.526,328.032 140.4717,326.9267 140.526,325.8214 140.6884,324.7268 140.9573,323.6534 141.3301,322.6114 141.8032,321.6111 142.3721,320.6619 143.0313,319.7731 143.7745,318.9531 144.5944,318.21 145.4833,317.5508"/>
    <polygon points="185.7015,340.0194 185.6472,341.1246 185.4848,342.2193 185.2159,343.2927 184.8431,344.3346 184.37,345.335 183.8011,346.2841 183.1419,347.173 182.3987,347.9929 181.5788,348.7361 180.69,349.3953 179.7408,349.9642 178.7405,350.4373 177.6985,350.8101 176.6251,351.079 175.5305,351.2414 174.4252,351.2957 173.3199,351.2414 172.2253,351.079 171.1519,350.8101 170.1099,350.4373 169.1096,349.9642 168.1604,349.3953 167.2716,348.7361 166.4516,347.9929 165.7085,347.173 165.0493,346.2841 164.4804,345.335 164.0072,344.3346 163.6344,343.2927 163.3656,342.2193 163.2032,341.1246 163.1489,340.0194 163.2032,338.9141 163.3656,337.8195 163.6344,336.746 164.0072,335.7041 164.4804,334.7038 165.0493,333.7546 165.7085,332.8658 166.4516,332.0458 167.2716,331.3027 168.1604,330.6435 169.1096,330.0746 170.1099,329.6014 171.1519,329.2286 172.2253,328.9597 173.3199,328.7974 174.4252,328.7431 175.5305,328.7974 176.6251,328.9597 177.6985,329.2286 178.7405,329.6014 179.7408,330.0746 180.69,330.6435 181.5788,331.3027 182.3987,332.0458 183.1419,332.8658 183.8011,333.7546 184.37,334.7038 184.8431,335.7041 185.2159,336.746 185.4848,337.8195 185.6472,338.9141"/>
    <polygon points="197.2557,349.1935 196.9792,349.5664 196.6674,349.9103 196.3235,350.222 195.9507,350.4985 195.5525,350.7372 195.1329,350.9356 194.6959,351.092 194.2456,351.2048 193.7865,351.2729 193.3228,351.2957 192.8592,351.2729 192.4001,351.2048 191.9498,351.092 191.5128,350.9356 191.0931,350.7372 190.695,350.4985 190.3222,350.222 189.9782,349.9103 189.6665,349.5664 189.39,349.1935 189.1514,348.7954 188.9529,348.3758 188.7965,347.9387 188.6837,347.4885 188.6156,347.0293 188.5929,346.5657 188.6156,346.1021 188.6837,345.6429 188.7965,345.1927 188.9529,344.7556 189.1514,344.336 189.39,343.9379 189.6665,343.565 189.9782,343.2211 190.3222,342.9094 190.695,342.6329 191.0931,342.3942 191.5128,342.1958 191.9498,342.0394 192.4001,341.9266 192.8592,341.8585 193.3228,341.8357 193.7865,341.8585 194.2456,341.9266 194.6959,342.0394 195.1329,342.1958 195.5525,342.3942 195.9507,342.6329 196.3235,342.9094 196.6674,343.2211 196.9792,343.565 197.2557,343.9379 197.4943,344.336 197.6928,344.7556 197.8491,345.1927 197.9619,345.6429 198.03,346.1021 198.0528,346.5657 198.03,347.0293 197.9619,347.4885 197.8491,347.9387 197.6928,348.3758 197.4943,348.7954"/>
    <polygon points="193.7865,381.1365 194.2456,381.2046 194.6959,381.3174 195.1329,381.4738 195.5525,381.6722 195.9507,381.9109 196.3235,382.1874 196.6674,382.4991 196.9792,382.843 197.2557,383.2159 197.4943,383.614 197.6928,384.0336 197.8491,384.4707 197.9619,384.9209 198.03,385.3801 198.0528,385.8437 198.03,386.3073 197.9619,386.7665 197.8491,387.2167 197.6928,387.6538 197.4943,388.0734 197.2557,388.4715 196.9792,388.8444 196.6674,389.1883 196.3235,389.5 195.9507,389.7765 195.5525,390.0152 195.1329,390.2136 194.6959,390.37 194.2456,390.4828 193.7865,390.5509 193.3228,390.5737 192.8592,390.5509 192.4001,390.4828 191.9498,390.37 191.5128,390.2136 191.0931,390.0152 190.695,389.7765 190.3222,389.5 189.9782,389.1883 189.6665,388.8444 189.39,388.4715 189.1514,388.0734 188.9529,387.6538 188.7965,387.2167 188.6837,386.7665 188.6156,386.3073 188.5929,385.8437 188.6156,385.3801 188.6837,384.9209 188.7965,384.4707 188.9529,384.0336 189.1514,383.614 189.39,383.2159 189.6665,382.843 189.9782,382.4991 190.3222,382.1874 190.695,381.9109 191.0931,381.6722 191.5128,381.4738 191.9498,381.3174 192.4001,381.2046 192.8592,381.1365 193.3228,381.1137"/>
    <polygon points="178.0514,376.6695 178.3279,376.2967 178.6397,375.9528 178.9836,375.6411 179.3564,375.3645 179.7546,375.1259 180.1742,374.9274 180.6112,374.7711 181.0615,374.6583 181.5206,374.5902 181.9843,374.5674 182.4479,374.5902 182.907,374.6583 183.3573,374.7711 183.7943,374.9274 184.2139,375.1259 184.6121,375.3645 184.9849,375.6411 185.3288,375.9528 185.6406,376.2967 185.9171,376.6695 186.1557,377.0677 186.3542,377.4873 186.5106,377.9243 186.6233,378.3746 186.6914,378.8338 186.7142,379.2974 186.6914,379.761 186.6233,380.2201 186.5106,380.6704 186.3542,381.1075 186.1557,381.5271 185.9171,381.9252 185.6406,382.298 185.3288,382.642 184.9849,382.9537 184.6121,383.2302 184.2139,383.4688 183.7943,383.6673 183.3573,383.8237 182.907,383.9365 182.4479,384.0046 181.9843,384.0273 181.5206,384.0046 181.0615,383.9365 180.6112,383.8237 180.1742,383.6673 179.7546,383.4688 179.3564,383.2302 178.9836,382.9537 178.6397,382.642 178.3279,382.298 178.0514,381.9252 177.8128,381.5271 177.6143,381.1075 177.458,380.6704 177.3452,380.2201 177.2771,379.761 177.2543,379.2974 177.2771,378.8338 177.3452,378.3746 177.458,377.9243 177.6143,377.4873 177.8128,377.0677"/>
    <polygon points="168.416,368.5796 168.8356,368.3811 169.2726,368.2247 169.7229,368.1119 170.1821,368.0438 170.6457,368.0211 171.1093,368.0438 171.5684,368.1119 172.0187,368.2247 172.4558,368.3811 172.8754,368.5796 173.2735,368.8182 173.6463,369.0947 173.9903,369.4064 174.302,369.7504 174.5785,370.1232 174.8171,370.5213 175.0156,370.941 175.172,371.378 175.2848,371.8283 175.3529,372.2874 175.3756,372.751 175.3529,373.2147 175.2848,373.6738 175.172,374.1241 175.0156,374.5611 174.8171,374.9807 174.5785,375.3789 174.302,375.7517 173.9903,376.0956 173.6463,376.4074 173.2735,376.6839 172.8754,376.9225 172.4558,377.121 172.0187,377.2773 171.5684,377.3901 171.1093,377.4582 170.6457,377.481 170.1821,377.4582 169.7229,377.3901 169.2726,377.2773 168.8356,377.121 168.416,376.9225 168.0178,376.6839 167.645,376.4074 167.3011,376.0956 166.9894,375.7517 166.7128,375.3789 166.4742,374.9807 166.2757,374.5611 166.1194,374.1241 166.0066,373.6738 165.9385,373.2147 165.9157,372.751 165.9385,372.2874 166.0066,371.8283 166.1194,371.378 166.2757,370.941 166.4742,370.5213 166.7128,370.1232 166.9894,369.7504 167.3011,369.4064 167.645,369.0947 168.0178,368.8182"/>
    <polygon points="175.172,358.2853 175.2848,358.7356 175.3529,359.1947 175.3756,359.6584 175.3529,360.122 175.2848,360.5811 175.172,361.0314 175.0156,361.4684 174.8171,361.8881 174.5785,362.2862 174.302,362.659 173.9903,363.003 173.6463,363.3147 173.2735,363.5912 172.8754,363.8298 172.4558,364.0283 172.0187,364.1847 171.5684,364.2975 171.1093,364.3656 170.6457,364.3883 170.1821,364.3656 169.7229,364.2975 169.2726,364.1847 168.8356,364.0283 168.416,363.8298 168.0178,363.5912 167.645,363.3147 167.3011,363.003 166.9894,362.659 166.7128,362.2862 166.4742,361.8881 166.2757,361.4684 166.1194,361.0314 166.0066,360.5811 165.9385,360.122 165.9157,359.6584 165.9385,359.1947 166.0066,358.7356 166.1194,358.2853 166.2757,357.8483 166.4742,357.4287 166.7128,357.0305 166.9894,356.6577 167.3011,356.3138 167.645,356.002 168.0178,355.7255 168.416,355.4869 168.8356,355.2884 169.2726,355.1321 169.7229,355.0193 170.1821,354.9512 170.6457,354.9284 171.1093,354.9512 171.5684,355.0193 172.0187,355.1321 172.4558,355.2884 172.8754,355.4869 173.2735,355.7255 173.6463,356.002 173.9903,356.3138 174.302,356.6577 174.5785,357.0305 174.8171,357.4287 175.0156,357.8483"/>
    <polygon points="162.9634,350.1114 163.2399,350.4842 163.4786,350.8823 163.677,351.302 163.8334,351.739 163.9462,352.1893 164.0143,352.6484 164.0371,353.112 164.0143,353.5757 163.9462,354.0348 163.8334,354.4851 163.677,354.9221 163.4786,355.3417 163.2399,355.7399 162.9634,356.1127 162.6517,356.4566 162.3077,356.7684 161.9349,357.0449 161.5368,357.2835 161.1172,357.482 160.6801,357.6383 160.2299,357.7511 159.7707,357.8192 159.3071,357.842 158.8435,357.8192 158.3843,357.7511 157.934,357.6383 157.497,357.482 157.0774,357.2835 156.6793,357.0449 156.3064,356.7684 155.9625,356.4566 155.6508,356.1127 155.3743,355.7399 155.1356,355.3417 154.9372,354.9221 154.7808,354.4851 154.668,354.0348 154.5999,353.5757 154.5771,353.112 154.5999,352.6484 154.668,352.1893 154.7808,351.739 154.9372,351.302 155.1356,350.8823 155.3743,350.4842 155.6508,350.1114 155.9625,349.7674 156.3064,349.4557 156.6793,349.1792 157.0774,348.9406 157.497,348.7421 157.934,348.5857 158.3843,348.4729 158.8435,348.4048 159.3071,348.3821 159.7707,348.4048 160.2299,348.4729 160.6801,348.5857 161.1172,348.7421 161.5368,348.9406 161.9349,349.1792 162.3077,349.4557 162.6517,349.7674"/>
    <polygon points="151.9013,357.0305 152.14,357.4287 152.3384,357.8483 152.4948,358.2853 152.6076,358.7356 152.6757,359.1947 152.6985,359.6584 152.6757,360.122 152.6076,360.5811 152.4948,361.0314 152.3384,361.4684 152.14,361.8881 151.9013,362.2862 151.6248,362.659 151.3131,363.003 150.9692,363.3147 150.5963,363.5912 150.1982,363.8298 149.7786,364.0283 149.3415,364.1847 148.8913,364.2975 148.4321,364.3656 147.9685,364.3883 147.5049,364.3656 147.0457,364.2975 146.5955,364.1847 146.1584,364.0283 145.7388,363.8298 145.3407,363.5912 144.9678,363.3147 144.6239,363.003 144.3122,362.659 144.0357,362.2862 143.797,361.8881 143.5986,361.4684 143.4422,361.0314 143.3294,360.5811 143.2613,360.122 143.2385,359.6584 143.2613,359.1947 143.3294,358.7356 143.4422,358.2853 143.5986,357.8483 143.797,357.4287 144.0357,357.0305 144.3122,356.6577 144.6239,356.3138 144.9678,356.002 145.3407,355.7255 145.7388,355.4869 146.1584,355.2884 146.5955,355.1321 147.0457,355.0193 147.5049,354.9512 147.9685,354.9284 148.4321,354.9512 148.8913,355.0193 149.3415,355.1321 149.7786,355.2884 150.1982,355.4869 150.5963,355.7255 150.9692,356.002 151.3131,356.3138 151.6248,356.6577"/>
    <polygon points="133.6293,343.6757 134.0021,343.9522 134.4002,344.1908 134.8198,344.3893 135.2569,344.5457 135.7071,344.6585 136.1663,344.7266 136.6299,344.7493 137.0935,344.7266 137.5527,344.6585 138.003,344.5457 138.44,344.3893 138.8596,344.1908 139.2578,343.9522 139.6306,343.6757 139.9745,343.364 140.2862,343.02 140.5627,342.6472 140.8014,342.2491 140.9998,341.8294 141.1562,341.3924 141.269,340.9421 141.3371,340.483 141.3599,340.0194 141.3371,339.5557 141.269,339.0966 141.1562,338.6463 140.9998,338.2093 140.8014,337.7897 140.5627,337.3915 140.2862,337.0187 139.9745,336.6748 139.6306,336.363 139.2578,336.0865 138.8596,335.8479 138.44,335.6494 138.003,335.4931 137.5527,335.3803 137.0935,335.3122 136.6299,335.2894 136.1663,335.3122 135.7071,335.3803 135.2569,335.4931 134.8198,335.6494 134.4002,335.8479 134.0021,336.0865 133.6293,336.363 133.2853,336.6748 132.9736,337.0187 132.6971,337.3915 132.4585,337.7897 132.26,338.2093 132.1036,338.6463 131.9908,339.0966 131.9227,339.5557 131.8999,340.0194 131.9227,340.483 131.9908,340.9421 132.1036,341.3924 132.26,341.8294 132.4585,342.2491 132.6971,342.6472 132.9736,343.02 133.2853,343.364"/>
    <polygon points="121.635,349.5664 121.9467,349.9103 122.2907,350.222 122.6635,350.4985 123.0616,350.7372 123.4813,350.9356 123.9183,351.092 124.3686,351.2048 124.8277,351.2729 125.2913,351.2957 125.755,351.2729 126.2141,351.2048 126.6644,351.092 127.1014,350.9356 127.521,350.7372 127.9192,350.4985 128.292,350.222 128.6359,349.9103 128.9477,349.5664 129.2242,349.1935 129.4628,348.7954 129.6613,348.3758 129.8176,347.9387 129.9304,347.4885 129.9985,347.0293 130.0213,346.5657 129.9985,346.1021 129.9304,345.6429 129.8176,345.1927 129.6613,344.7556 129.4628,344.336 129.2242,343.9379 128.9477,343.565 128.6359,343.2211 128.292,342.9094 127.9192,342.6329 127.521,342.3942 127.1014,342.1958 126.6644,342.0394 126.2141,341.9266 125.755,341.8585 125.2913,341.8357 124.8277,341.8585 124.3686,341.9266 123.9183,342.0394 123.4813,342.1958 123.0616,342.3942 122.6635,342.6329 122.2907,342.9094 121.9467,343.2211 121.635,343.565 121.3585,343.9379 121.1199,344.336 120.9214,344.7556 120.765,345.1927 120.6523,345.6429 120.5841,346.1021 120.5614,346.5657 120.5841,347.0293 120.6523,347.4885 120.765,347.9387 120.9214,348.3758 121.1199,348.7954 121.3585,349.1935"/>
    <polygon points="122.2907,329.8167 122.6635,329.5402 123.0616,329.3016 123.4813,329.1031 123.9183,328.9467 124.3686,328.8339 124.8277,328.7658 125.2913,328.7431 125.755,328.7658 126.2141,328.8339 126.6644,328.9467 127.1014,329.1031 127.521,329.3016 127.9192,329.5402 128.292,329.8167 128.6359,330.1284 128.9477,330.4724 129.2242,330.8452 129.4628,331.2433 129.6613,331.663 129.8176,332.1 129.9304,332.5503 129.9985,333.0094 130.0213,333.473 129.9985,333.9367 129.9304,334.3958 129.8176,334.8461 129.6613,335.2831 129.4628,335.7027 129.2242,336.1009 128.9477,336.4737 128.6359,336.8176 128.292,337.1294 127.9192,337.4059 127.521,337.6445 127.1014,337.843 126.6644,337.9993 126.2141,338.1121 125.755,338.1802 125.2913,338.203 124.8277,338.1802 124.3686,338.1121 123.9183,337.9993 123.4813,337.843 123.0616,337.6445 122.6635,337.4059 122.2907,337.1294 121.9467,336.8176 121.635,336.4737 121.3585,336.1009 121.1199,335.7027 120.9214,335.2831 120.765,334.8461 120.6523,334.3958 120.5841,333.9367 120.5614,333.473 120.5841,333.0094 120.6523,332.5503 120.765,332.1 120.9214,331.663 121.1199,331.2433 121.3585,330.8452 121.635,330.4724 121.9467,330.1284"/>
    <polygon points="113.03,322.2876 113.4891,322.2195 113.9528,322.1967 114.4164,322.2195 114.8755,322.2876 115.3258,322.4004 115.7628,322.5568 116.1824,322.7552 116.5806,322.9939 116.9534,323.2704 117.2974,323.5821 117.6091,323.926 117.8856,324.2989 118.1242,324.697 118.3227,325.1166 118.4791,325.5537 118.5918,326.0039 118.66,326.4631 118.6827,326.9267 118.66,327.3903 118.5918,327.8495 118.4791,328.2997 118.3227,328.7368 118.1242,329.1564 117.8856,329.5545 117.6091,329.9274 117.2974,330.2713 116.9534,330.583 116.5806,330.8595 116.1824,331.0982 115.7628,331.2966 115.3258,331.453 114.8755,331.5658 114.4164,331.6339 113.9528,331.6567 113.4891,331.6339 113.03,331.5658 112.5797,331.453 112.1427,331.2966 111.7231,331.0982 111.3249,330.8595 110.9521,330.583 110.6082,330.2713 110.2964,329.9274 110.0199,329.5545 109.7813,329.1564 109.5828,328.7368 109.4265,328.2997 109.3137,327.8495 109.2456,327.3903 109.2228,326.9267 109.2456,326.4631 109.3137,326.0039 109.4265,325.5537 109.5828,325.1166 109.7813,324.697 110.0199,324.2989 110.2964,323.926 110.6082,323.5821 110.9521,323.2704 111.3249,322.9939 111.7231,322.7552 112.1427,322.5568 112.5797,322.4004"/>
    <polygon points="97.9751,319.4576 97.907,319.9167 97.8842,320.3804 97.907,320.844 97.9751,321.3031 98.0879,321.7534 98.2442,322.1904 98.4427,322.6101 98.6813,323.0082 98.9579,323.381 99.2696,323.725 99.6135,324.0367 99.9863,324.3132 100.3845,324.5518 100.8041,324.7503 101.2411,324.9067 101.6914,325.0195 102.1506,325.0876 102.6142,325.1103 103.0778,325.0876 103.5369,325.0195 103.9872,324.9067 104.4243,324.7503 104.8439,324.5518 105.242,324.3132 105.6148,324.0367 105.9588,323.725 106.2705,323.381 106.547,323.0082 106.7856,322.6101 106.9841,322.1904 107.1405,321.7534 107.2533,321.3031 107.3214,320.844 107.3441,320.3804 107.3214,319.9167 107.2533,319.4576 107.1405,319.0073 106.9841,318.5703 106.7856,318.1507 106.547,317.7525 106.2705,317.3797 105.9588,317.0358 105.6148,316.724 105.242,316.4475 104.8439,316.2089 104.4243,316.0104 103.9872,315.8541 103.5369,315.7413 103.0778,315.6732 102.6142,315.6504 102.1506,315.6732 101.6914,315.7413 101.2411,315.8541 100.8041,316.0104 100.3845,316.2089 99.9863,316.4475 99.6135,316.724 99.2696,317.0358 98.9579,317.3797 98.6813,317.7525 98.4427,318.1507 98.2442,318.5703 98.0879,319.0073"/>
    <polygon points="120.3542,306.6804 121.0973,305.8605 121.9173,305.1173 122.8061,304.4581 123.7553,303.8892 124.7556,303.4161 125.7975,303.0433 126.871,302.7744 127.9656,302.612 129.0709,302.5577 130.1761,302.612 131.2708,302.7744 132.3442,303.0433 133.3861,303.4161 134.3865,303.8892 135.3356,304.4581 136.2245,305.1173 137.0444,305.8605 137.7876,306.6804 138.4468,307.5693 139.0157,308.5184 139.4888,309.5188 139.8616,310.5607 140.1305,311.6341 140.2929,312.7288 140.3472,313.834 140.2929,314.9393 140.1305,316.0339 139.8616,317.1074 139.4888,318.1493 139.0157,319.1496 138.4468,320.0988 137.7876,320.9876 137.0444,321.8076 136.2245,322.5507 135.3356,323.2099 134.3865,323.7788 133.3861,324.252 132.3442,324.6248 131.2708,324.8937 130.1761,325.056 129.0709,325.1103 127.9656,325.056 126.871,324.8937 125.7975,324.6248 124.7556,324.252 123.7553,323.7788 122.8061,323.2099 121.9173,322.5507 121.0973,321.8076 120.3542,320.9876 119.695,320.0988 119.1261,319.1496 118.6529,318.1493 118.2801,317.1074 118.0112,316.0339 117.8489,314.9393 117.7946,313.834 117.8489,312.7288 118.0112,311.6341 118.2801,310.5607 118.6529,309.5188 119.1261,308.5184 119.695,307.5693"/>
    <polygon points="125.755,298.9022 125.2913,298.925 124.8277,298.9022 124.3686,298.8341 123.9183,298.7213 123.4813,298.565 123.0616,298.3665 122.6635,298.1279 122.2907,297.8513 121.9467,297.5396 121.635,297.1957 121.3585,296.8229 121.1199,296.4247 120.9214,296.0051 120.765,295.5681 120.6523,295.1178 120.5841,294.6586 120.5614,294.195 120.5841,293.7314 120.6523,293.2723 120.765,292.822 120.9214,292.3849 121.1199,291.9653 121.3585,291.5672 121.635,291.1944 121.9467,290.8504 122.2907,290.5387 122.6635,290.2622 123.0616,290.0236 123.4813,289.8251 123.9183,289.6687 124.3686,289.5559 124.8277,289.4878 125.2913,289.4651 125.755,289.4878 126.2141,289.5559 126.6644,289.6687 127.1014,289.8251 127.521,290.0236 127.9192,290.2622 128.292,290.5387 128.6359,290.8504 128.9477,291.1944 129.2242,291.5672 129.4628,291.9653 129.6613,292.3849 129.8176,292.822 129.9304,293.2723 129.9985,293.7314 130.0213,294.195 129.9985,294.6586 129.9304,295.1178 129.8176,295.5681 129.6613,296.0051 129.4628,296.4247 129.2242,296.8229 128.9477,297.1957 128.6359,297.5396 128.292,297.8513 127.9192,298.1279 127.521,298.3665 127.1014,298.565 126.6644,298.7213 126.2141,298.8341"/>
    <polygon points="140.2862,290.6494 139.9745,290.9933 139.6306,291.305 139.2578,291.5815 138.8596,291.8202 138.44,292.0186 138.003,292.175 137.5527,292.2878 137.0935,292.3559 136.6299,292.3787 136.1663,292.3559 135.7071,292.2878 135.2569,292.175 134.8198,292.0186 134.4002,291.8202 134.0021,291.5815 133.6293,291.305 133.2853,290.9933 132.9736,290.6494 132.6971,290.2765 132.4585,289.8784 132.26,289.4588 132.1036,289.0217 131.9908,288.5715 131.9227,288.1123 131.8999,287.6487 131.9227,287.1851 131.9908,286.7259 132.1036,286.2757 132.26,285.8386 132.4585,285.419 132.6971,285.0209 132.9736,284.648 133.2853,284.3041 133.6293,283.9924 134.0021,283.7159 134.4002,283.4772 134.8198,283.2788 135.2569,283.1224 135.7071,283.0096 136.1663,282.9415 136.6299,282.9187 137.0935,282.9415 137.5527,283.0096 138.003,283.1224 138.44,283.2788 138.8596,283.4772 139.2578,283.7159 139.6306,283.9924 139.9745,284.3041 140.2862,284.648 140.5627,285.0209 140.8014,285.419 140.9998,285.8386 141.1562,286.2757 141.269,286.7259 141.3371,287.1851 141.3599,287.6487 141.3371,288.1123 141.269,288.5715 141.1562,289.0217 140.9998,289.4588 140.8014,289.8784 140.5627,290.2765"/>
    <polygon points="159.7216,282.5296 158.9016,283.2727 158.0128,283.9319 157.0636,284.5008 156.0633,284.974 155.0214,285.3468 153.9479,285.6157 152.8533,285.778 151.748,285.8323 150.6428,285.778 149.5481,285.6157 148.4747,285.3468 147.4328,284.974 146.4324,284.5008 145.4833,283.9319 144.5944,283.2727 143.7745,282.5296 143.0313,281.7096 142.3721,280.8208 141.8032,279.8716 141.3301,278.8713 140.9573,277.8294 140.6884,276.7559 140.526,275.6613 140.4717,274.556 140.526,273.4508 140.6884,272.3561 140.9573,271.2827 141.3301,270.2408 141.8032,269.2404 142.3721,268.2912 143.0313,267.4024 143.7745,266.5825 144.5944,265.8393 145.4833,265.1801 146.4324,264.6112 147.4328,264.1381 148.4747,263.7653 149.5481,263.4964 150.6428,263.334 151.748,263.2797 152.8533,263.334 153.9479,263.4964 155.0214,263.7653 156.0633,264.1381 157.0636,264.6112 158.0128,265.1801 158.9016,265.8393 159.7216,266.5825 160.4647,267.4024 161.1239,268.2912 161.6928,269.2404 162.166,270.2408 162.5388,271.2827 162.8077,272.3561 162.97,273.4508 163.0243,274.556 162.97,275.6613 162.8077,276.7559 162.5388,277.8294 162.166,278.8713 161.6928,279.8716 161.1239,280.8208 160.4647,281.7096"/>
    <polygon points="168.4456,280.4793 170.4968,279.2498 172.6586,278.2274 174.9103,277.4217 177.2301,276.8406 179.5957,276.4897 181.9843,276.3724 184.3728,276.4897 186.7384,276.8406 189.0582,277.4217 191.3099,278.2274 193.4717,279.2498 195.5229,280.4793 197.4438,281.9039 199.2157,283.5099 200.8217,285.2819 202.2463,287.2027 203.4758,289.2539 204.4982,291.4158 205.3039,293.6674 205.885,295.9872 206.2359,298.3528 206.3532,300.7414 206.2359,303.1299 205.885,305.4955 205.3039,307.8153 204.4982,310.067 203.4758,312.2288 202.2463,314.28 200.8217,316.2009 199.2157,317.9728 197.4438,319.5788 195.5229,321.0034 193.4717,322.2329 191.3099,323.2554 189.0582,324.061 186.7384,324.6421 184.3728,324.993 181.9843,325.1103 179.5957,324.993 177.2301,324.6421 174.9103,324.061 172.6586,323.2554 170.4968,322.2329 168.4456,321.0034 166.5247,319.5788 164.7528,317.9728 163.1468,316.2009 161.7222,314.28 160.4927,312.2288 159.4703,310.067 158.6646,307.8153 158.0835,305.4955 157.7326,303.1299 157.6153,300.7414 157.7326,298.3528 158.0835,295.9872 158.6646,293.6674 159.4703,291.4158 160.4927,289.2539 161.7222,287.2027 163.1468,285.2819 164.7528,283.5099 166.5247,281.9039"/>
    <polygon points="159.4703,257.6963 158.6646,255.4446 158.0835,253.1248 157.7326,250.7593 157.6153,248.3707 157.7326,245.9821 158.0835,243.6165 158.6646,241.2968 159.4703,239.0451 160.4927,236.8832 161.7222,234.832 163.1468,232.9112 164.7528,231.1392 166.5247,229.5332 168.4456,228.1086 170.4968,226.8792 172.6586,225.8567 174.9103,225.051 177.2301,224.47 179.5957,224.1191 181.9843,224.0017 184.3728,224.1191 186.7384,224.47 189.0582,225.051 191.3099,225.8567 193.4717,226.8792 195.5229,228.1086 197.4438,229.5332 199.2157,231.1392 200.8217,232.9112 202.2463,234.832 203.4758,236.8832 204.4982,239.0451 205.3039,241.2968 205.885,243.6165 206.2359,245.9821 206.3532,248.3707 206.2359,250.7593 205.885,253.1248 205.3039,255.4446 204.4982,257.6963 203.4758,259.8581 202.2463,261.9094 200.8217,263.8302 199.2157,265.6022 197.4438,267.2082 195.5229,268.6328 193.4717,269.8622 191.3099,270.8847 189.0582,271.6903 186.7384,272.2714 184.3728,272.6223 181.9843,272.7397 179.5957,272.6223 177.2301,272.2714 174.9103,271.6903 172.6586,270.8847 170.4968,269.8622 168.4456,268.6328 166.5247,267.2082 164.7528,265.6022 163.1468,263.8302 161.7222,261.9094 160.4927,259.8581"/>
    <polygon points="161.6928,227.501 162.166,226.5006 162.5388,225.4587 162.8077,224.3853 162.97,223.2906 163.0243,222.1854 162.97,221.0801 162.8077,219.9855 162.5388,218.912 162.166,217.8701 161.6928,216.8697 161.1239,215.9206 160.4647,215.0317 159.7216,214.2118 158.9016,213.4687 158.0128,212.8095 157.0636,212.2405 156.0633,211.7674 155.0214,211.3946 153.9479,211.1257 152.8533,210.9634 151.748,210.9091 150.6428,210.9634 149.5481,211.1257 148.4747,211.3946 147.4328,211.7674 146.4324,212.2405 145.4833,212.8095 144.5944,213.4687 143.7745,214.2118 143.0313,215.0317 142.3721,215.9206 141.8032,216.8697 141.3301,217.8701 140.9573,218.912 140.6884,219.9855 140.526,221.0801 140.4717,222.1854 140.526,223.2906 140.6884,224.3853 140.9573,225.4587 141.3301,226.5006 141.8032,227.501 142.3721,228.4501 143.0313,229.339 143.7745,230.1589 144.5944,230.9021 145.4833,231.5613 146.4324,232.1302 147.4328,232.6033 148.4747,232.9761 149.5481,233.245 150.6428,233.4074 151.748,233.4617 152.8533,233.4074 153.9479,233.245 155.0214,232.9761 156.0633,232.6033 157.0636,232.1302 158.0128,231.5613 158.9016,230.9021 159.7216,230.1589 160.4647,229.339 161.1239,228.4501"/>
    <polygon points="158.3843,200.6391 157.934,200.5263 157.497,200.3699 157.0774,200.1715 156.6793,199.9329 156.3064,199.6563 155.9625,199.3446 155.6508,199.0007 155.3743,198.6279 155.1356,198.2297 154.9372,197.8101 154.7808,197.3731 154.668,196.9228 154.5999,196.4636 154.5771,196.0 154.5999,195.5364 154.668,195.0773 154.7808,194.627 154.9372,194.1899 155.1356,193.7703 155.3743,193.3722 155.6508,192.9994 155.9625,192.6554 156.3064,192.3437 156.6793,192.0672 157.0774,191.8286 157.497,191.6301 157.934,191.4737 158.3843,191.3609 158.8435,191.2928 159.3071,191.2701 159.7707,191.2928 160.2299,191.3609 160.6801,191.4737 161.1172,191.6301 161.5368,191.8286 161.9349,192.0672 162.3077,192.3437 162.6517,192.6554 162.9634,192.9994 163.2399,193.3722 163.4786,193.7703 163.677,194.1899 163.8334,194.627 163.9462,195.0773 164.0143,195.5364 164.0371,196.0 164.0143,196.4636 163.9462,196.9228 163.8334,197.3731 163.677,197.8101 163.4786,198.2297 163.2399,198.6279 162.9634,199.0007 162.6517,199.3446 162.3077,199.6563 161.9349,199.9329 161.5368,200.1715 161.1172,200.3699 160.6801,200.5263 160.2299,200.6391 159.7707,200.7072 159.3071,200.73 158.8435,200.7072"/>
    <polygon points="175.172,190.8267 175.2848,190.3765 175.3529,189.9173 175.3756,189.4537 175.3529,188.9901 175.2848,188.5309 175.172,188.0807 175.0156,187.6436 174.8171,187.224 174.5785,186.8259 174.302,186.453 173.9903,186.1091 173.6463,185.7974 173.2735,185.5209 172.8754,185.2822 172.4558,185.0838 172.0187,184.9274 171.5684,184.8146 171.1093,184.7465 170.6457,184.7237 170.1821,184.7465 169.7229,184.8146 169.2726,184.9274 168.8356,185.0838 168.416,185.2822 168.0178,185.5209 167.645,185.7974 167.3011,186.1091 166.9894,186.453 166.7128,186.8259 166.4742,187.224 166.2757,187.6436 166.1194,188.0807 166.0066,188.5309 165.9385,188.9901 165.9157,189.4537 165.9385,189.9173 166.0066,190.3765 166.1194,190.8267 166.2757,191.2638 166.4742,191.6834 166.7128,192.0815 166.9894,192.4544 167.3011,192.7983 167.645,193.11 168.0178,193.3865 168.416,193.6252 168.8356,193.8236 169.2726,193.98 169.7229,194.0928 170.1821,194.1609 170.6457,194.1837 171.1093,194.1609 171.5684,194.0928 172.0187,193.98 172.4558,193.8236 172.8754,193.6252 173.2735,193.3865 173.6463,193.11 173.9903,192.7983 174.302,192.4544 174.5785,192.0815 174.8171,191.6834 175.0156,191.2638"/>
    <polygon points="177.8128,185.137 178.0514,185.5352 178.3279,185.908 178.6397,186.252 178.9836,186.5637 179.3564,186.8402 179.7546,187.0788 180.1742,187.2773 180.6112,187.4337 181.0615,187.5464 181.5206,187.6146 181.9843,187.6373 182.4479,187.6146 182.907,187.5464 183.3573,187.4337 183.7943,187.2773 184.2139,187.0788 184.6121,186.8402 184.9849,186.5637 185.3288,186.252 185.6406,185.908 185.9171,185.5352 186.1557,185.137 186.3542,184.7174 186.5106,184.2804 186.6233,183.8301 186.6914,183.371 186.7142,182.9074 186.6914,182.4437 186.6233,181.9846 186.5106,181.5343 186.3542,181.0973 186.1557,180.6777 185.9171,180.2795 185.6406,179.9067 185.3288,179.5628 184.9849,179.251 184.6121,178.9745 184.2139,178.7359 183.7943,178.5374 183.3573,178.3811 182.907,178.2683 182.4479,178.2002 181.9843,178.1774 181.5206,178.2002 181.0615,178.2683 180.6112,178.3811 180.1742,178.5374 179.7546,178.7359 179.3564,178.9745 178.9836,179.251 178.6397,179.5628 178.3279,179.9067 178.0514,180.2795 177.8128,180.6777 177.6143,181.0973 177.458,181.5343 177.3452,181.9846 177.2771,182.4437 177.2543,182.9074 177.2771,183.371 177.3452,183.8301 177.458,184.2804 177.6143,184.7174"/>
    <polygon points="188.9529,200.7363 189.1514,200.3167 189.39,199.9185 189.6665,199.5457 189.9782,199.2018 190.3222,198.89 190.695,198.6135 191.0931,198.3749 191.5128,198.1764 191.9498,198.0201 192.4001,197.9073 192.8592,197.8392 193.3228,197.8164 193.7865,197.8392 194.2456,197.9073 194.6959,198.0201 195.1329,198.1764 195.5525,198.3749 195.9507,198.6135 196.3235,198.89 196.6674,199.2018 196.9792,199.5457 197.2557,199.9185 197.4943,200.3167 197.6928,200.7363 197.8491,201.1733 197.9619,201.6236 198.03,202.0827 198.0528,202.5464 198.03,203.01 197.9619,203.4691 197.8491,203.9194 197.6928,204.3564 197.4943,204.7761 197.2557,205.1742 196.9792,205.547 196.6674,205.891 196.3235,206.2027 195.9507,206.4792 195.5525,206.7178 195.1329,206.9163 194.6959,207.0727 194.2456,207.1854 193.7865,207.2536 193.3228,207.2763 192.8592,207.2536 192.4001,207.1854 191.9498,207.0727 191.5128,206.9163 191.0931,206.7178 190.695,206.4792 190.3222,206.2027 189.9782,205.891 189.6665,205.547 189.39,205.1742 189.1514,204.7761 188.9529,204.3564 188.7965,203.9194 188.6837,203.4691 188.6156,203.01 188.5929,202.5464 188.6156,202.0827 188.6837,201.6236 188.7965,201.1733"/>
    <polygon points="183.1419,216.2463 182.3987,217.0662 181.5788,217.8094 180.69,218.4686 179.7408,219.0375 178.7405,219.5106 177.6985,219.8834 176.6251,220.1523 175.5305,220.3147 174.4252,220.369 173.3199,220.3147 172.2253,220.1523 171.1519,219.8834 170.1099,219.5106 169.1096,219.0375 168.1604,218.4686 167.2716,217.8094 166.4516,217.0662 165.7085,216.2463 165.0493,215.3575 164.4804,214.4083 164.0072,213.4079 163.6344,212.366 163.3656,211.2926 163.2032,210.198 163.1489,209.0927 163.2032,207.9874 163.3656,206.8928 163.6344,205.8194 164.0072,204.7774 164.4804,203.7771 165.0493,202.8279 165.7085,201.9391 166.4516,201.1191 167.2716,200.376 168.1604,199.7168 169.1096,199.1479 170.1099,198.6747 171.1519,198.3019 172.2253,198.0331 173.3199,197.8707 174.4252,197.8164 175.5305,197.8707 176.6251,198.0331 177.6985,198.3019 178.7405,198.6747 179.7408,199.1479 180.69,199.7168 181.5788,200.376 182.3987,201.1191 183.1419,201.9391 183.8011,202.8279 184.37,203.7771 184.8431,204.7774 185.2159,205.8194 185.4848,206.8928 185.6472,207.9874 185.7015,209.0927 185.6472,210.198 185.4848,211.2926 185.2159,212.366 184.8431,213.4079 184.37,214.4083 183.8011,215.3575"/>
    <polygon points="212.0672,213.0112 211.8285,213.4093 211.6301,213.8289 211.4737,214.266 211.3609,214.7163 211.2928,215.1754 211.27,215.639 211.2928,216.1026 211.3609,216.5618 211.4737,217.0121 211.6301,217.4491 211.8285,217.8687 212.0672,218.2669 212.3437,218.6397 212.6554,218.9836 212.9993,219.2953 213.3722,219.5719 213.7703,219.8105 214.1899,220.0089 214.627,220.1653 215.0772,220.2781 215.5364,220.3462 216.0,220.369 216.4636,220.3462 216.9228,220.2781 217.373,220.1653 217.8101,220.0089 218.2297,219.8105 218.6278,219.5719 219.0007,219.2953 219.3446,218.9836 219.6563,218.6397 219.9328,218.2669 220.1715,217.8687 220.3699,217.4491 220.5263,217.0121 220.6391,216.5618 220.7072,216.1026 220.73,215.639 220.7072,215.1754 220.6391,214.7163 220.5263,214.266 220.3699,213.8289 220.1715,213.4093 219.9328,213.0112 219.6563,212.6384 219.3446,212.2944 219.0007,211.9827 218.6278,211.7062 218.2297,211.4676 217.8101,211.2691 217.373,211.1127 216.9228,210.9999 216.4636,210.9318 216.0,210.9091 215.5364,210.9318 215.0772,210.9999 214.627,211.1127 214.1899,211.2691 213.7703,211.4676 213.3722,211.7062 212.9993,211.9827 212.6554,212.2944 212.3437,212.6384"/>
    <polygon points="213.5147,225.9021 212.6259,226.5613 211.806,227.3045 211.0628,228.1244 210.4036,229.0132 209.8347,229.9624 209.3616,230.9628 208.9888,232.0047 208.7199,233.0781 208.5575,234.1728 208.5032,235.278 208.5575,236.3833 208.7199,237.4779 208.9888,238.5514 209.3616,239.5933 209.8347,240.5936 210.4036,241.5428 211.0628,242.4316 211.806,243.2516 212.6259,243.9947 213.5147,244.6539 214.4639,245.2228 215.4643,245.696 216.5062,246.0688 217.5796,246.3377 218.6743,246.5 219.7795,246.5543 220.8848,246.5 221.9794,246.3377 223.0529,246.0688 224.0948,245.696 225.0951,245.2228 226.0443,244.6539 226.9331,243.9947 227.7531,243.2516 228.4962,242.4316 229.1554,241.5428 229.7243,240.5936 230.1975,239.5933 230.5703,238.5514 230.8392,237.4779 231.0015,236.3833 231.0558,235.278 231.0015,234.1728 230.8392,233.0781 230.5703,232.0047 230.1975,230.9628 229.7243,229.9624 229.1554,229.0132 228.4962,228.1244 227.7531,227.3045 226.9331,226.5613 226.0443,225.9021 225.0951,225.3332 224.0948,224.8601 223.0529,224.4873 221.9794,224.2184 220.8848,224.056 219.7795,224.0017 218.6743,224.056 217.5796,224.2184 216.5062,224.4873 215.4643,224.8601 214.4639,225.3332"/>
    <polygon points="213.5147,252.0875 212.6259,252.7467 211.806,253.4898 211.0628,254.3097 210.4036,255.1986 209.8347,256.1477 209.3616,257.1481 208.9888,258.19 208.7199,259.2635 208.5575,260.3581 208.5032,261.4634 208.5575,262.5686 208.7199,263.6633 208.9888,264.7367 209.3616,265.7786 209.8347,266.779 210.4036,267.7281 211.0628,268.617 211.806,269.4369 212.6259,270.1801 213.5147,270.8393 214.4639,271.4082 215.4643,271.8813 216.5062,272.2541 217.5796,272.523 218.6743,272.6854 219.7795,272.7397 220.8848,272.6854 221.9794,272.523 223.0529,272.2541 224.0948,271.8813 225.0951,271.4082 226.0443,270.8393 226.9331,270.1801 227.7531,269.4369 228.4962,268.617 229.1554,267.7281 229.7243,266.779 230.1975,265.7786 230.5703,264.7367 230.8392,263.6633 231.0015,262.5686 231.0558,261.4634 231.0015,260.3581 230.8392,259.2635 230.5703,258.19 230.1975,257.1481 229.7243,256.1477 229.1554,255.1986 228.4962,254.3097 227.7531,253.4898 226.9331,252.7467 226.0443,252.0875 225.0951,251.5185 224.0948,251.0454 223.0529,250.6726 221.9794,250.4037 220.8848,250.2414 219.7795,250.1871 218.6743,250.2414 217.5796,250.4037 216.5062,250.6726 215.4643,251.0454 214.4639,251.5185"/>
    <polygon points="234.7443,283.7302 234.5057,283.3321 234.3072,282.9124 234.1509,282.4754 234.0381,282.0251 233.97,281.566 233.9472,281.1024 233.97,280.6387 234.0381,280.1796 234.1509,279.7293 234.3072,279.2923 234.5057,278.8727 234.7443,278.4745 235.0208,278.1017 235.3326,277.7578 235.6765,277.446 236.0493,277.1695 236.4475,276.9309 236.8671,276.7324 237.3041,276.5761 237.7544,276.4633 238.2135,276.3952 238.6772,276.3724 239.1408,276.3952 239.5999,276.4633 240.0502,276.5761 240.4872,276.7324 240.9069,276.9309 241.305,277.1695 241.6778,277.446 242.0218,277.7578 242.3335,278.1017 242.61,278.4745 242.8486,278.8727 243.0471,279.2923 243.2035,279.7293 243.3163,280.1796 243.3844,280.6387 243.4071,281.1024 243.3844,281.566 243.3163,282.0251 243.2035,282.4754 243.0471,282.9124 242.8486,283.3321 242.61,283.7302 242.3335,284.103 242.0218,284.447 241.6778,284.7587 241.305,285.0352 240.9069,285.2738 240.4872,285.4723 240.0502,285.6287 239.5999,285.7414 239.1408,285.8096 238.6772,285.8323 238.2135,285.8096 237.7544,285.7414 237.3041,285.6287 236.8671,285.4723 236.4475,285.2738 236.0493,285.0352 235.6765,284.7587 235.3326,284.447 235.0208,284.103"/>
    <polygon points="245.6458,276.3661 245.4894,275.9291 245.3767,275.4788 245.3086,275.0196 245.2858,274.556 245.3086,274.0924 245.3767,273.6333 245.4894,273.183 245.6458,272.7459 245.8443,272.3263 246.0829,271.9282 246.3594,271.5554 246.6712,271.2114 247.0151,270.8997 247.3879,270.6232 247.7861,270.3846 248.2057,270.1861 248.6427,270.0297 249.093,269.9169 249.5521,269.8488 250.0157,269.8261 250.4794,269.8488 250.9385,269.9169 251.3888,270.0297 251.8258,270.1861 252.2454,270.3846 252.6436,270.6232 253.0164,270.8997 253.3603,271.2114 253.6721,271.5554 253.9486,271.9282 254.1872,272.3263 254.3857,272.7459 254.542,273.183 254.6548,273.6333 254.7229,274.0924 254.7457,274.556 254.7229,275.0196 254.6548,275.4788 254.542,275.9291 254.3857,276.3661 254.1872,276.7857 253.9486,277.1839 253.6721,277.5567 253.3603,277.9006 253.0164,278.2123 252.6436,278.4889 252.2454,278.7275 251.8258,278.926 251.3888,279.0823 250.9385,279.1951 250.4794,279.2632 250.0157,279.286 249.5521,279.2632 249.093,279.1951 248.6427,279.0823 248.2057,278.926 247.7861,278.7275 247.3879,278.4889 247.0151,278.2123 246.6712,277.9006 246.3594,277.5567 246.0829,277.1839 245.8443,276.7857"/>
    <polygon points="234.3072,269.8198 234.1509,269.3827 234.0381,268.9325 233.97,268.4733 233.9472,268.0097 233.97,267.5461 234.0381,267.0869 234.1509,266.6367 234.3072,266.1996 234.5057,265.78 234.7443,265.3819 235.0208,265.009 235.3326,264.6651 235.6765,264.3534 236.0493,264.0769 236.4475,263.8382 236.8671,263.6398 237.3041,263.4834 237.7544,263.3706 238.2135,263.3025 238.6772,263.2797 239.1408,263.3025 239.5999,263.3706 240.0502,263.4834 240.4872,263.6398 240.9069,263.8382 241.305,264.0769 241.6778,264.3534 242.0218,264.6651 242.3335,265.009 242.61,265.3819 242.8486,265.78 243.0471,266.1996 243.2035,266.6367 243.3163,267.0869 243.3844,267.5461 243.4071,268.0097 243.3844,268.4733 243.3163,268.9325 243.2035,269.3827 243.0471,269.8198 242.8486,270.2394 242.61,270.6375 242.3335,271.0104 242.0218,271.3543 241.6778,271.666 241.305,271.9425 240.9069,272.1812 240.4872,272.3796 240.0502,272.536 239.5999,272.6488 239.1408,272.7169 238.6772,272.7397 238.2135,272.7169 237.7544,272.6488 237.3041,272.536 236.8671,272.3796 236.4475,272.1812 236.0493,271.9425 235.6765,271.666 235.3326,271.3543 235.0208,271.0104 234.7443,270.6375 234.5057,270.2394"/>
    <polygon points="242.61,257.5449 242.8486,257.1467 243.0471,256.7271 243.2035,256.2901 243.3163,255.8398 243.3844,255.3806 243.4071,254.917 243.3844,254.4534 243.3163,253.9943 243.2035,253.544 243.0471,253.1069 242.8486,252.6873 242.61,252.2892 242.3335,251.9164 242.0218,251.5724 241.6778,251.2607 241.305,250.9842 240.9069,250.7456 240.4872,250.5471 240.0502,250.3907 239.5999,250.2779 239.1408,250.2098 238.6772,250.1871 238.2135,250.2098 237.7544,250.2779 237.3041,250.3907 236.8671,250.5471 236.4475,250.7456 236.0493,250.9842 235.6765,251.2607 235.3326,251.5724 235.0208,251.9164 234.7443,252.2892 234.5057,252.6873 234.3072,253.1069 234.1509,253.544 234.0381,253.9943 233.97,254.4534 233.9472,254.917 233.97,255.3806 234.0381,255.8398 234.1509,256.2901 234.3072,256.7271 234.5057,257.1467 234.7443,257.5449 235.0208,257.9177 235.3326,258.2616 235.6765,258.5733 236.0493,258.8499 236.4475,259.0885 236.8671,259.287 237.3041,259.4433 237.7544,259.5561 238.2135,259.6242 238.6772,259.647 239.1408,259.6242 239.5999,259.5561 240.0502,259.4433 240.4872,259.287 240.9069,259.0885 241.305,258.8499 241.6778,258.5733 242.0218,258.2616 242.3335,257.9177"/>
    <polygon points="245.3767,249.2935 245.4894,249.7437 245.6458,250.1808 245.8443,250.6004 246.0829,250.9985 246.3594,251.3714 246.6712,251.7153 247.0151,252.027 247.3879,252.3035 247.7861,252.5422 248.2057,252.7406 248.6427,252.897 249.093,253.0098 249.5521,253.0779 250.0157,253.1007 250.4794,253.0779 250.9385,253.0098 251.3888,252.897 251.8258,252.7406 252.2454,252.5422 252.6436,252.3035 253.0164,252.027 253.3603,251.7153 253.6721,251.3714 253.9486,250.9985 254.1872,250.6004 254.3857,250.1808 254.542,249.7437 254.6548,249.2935 254.7229,248.8343 254.7457,248.3707 254.7229,247.9071 254.6548,247.4479 254.542,246.9977 254.3857,246.5606 254.1872,246.141 253.9486,245.7429 253.6721,245.37 253.3603,245.0261 253.0164,244.7144 252.6436,244.4379 252.2454,244.1992 251.8258,244.0008 251.3888,243.8444 250.9385,243.7316 250.4794,243.6635 250.0157,243.6407 249.5521,243.6635 249.093,243.7316 248.6427,243.8444 248.2057,244.0008 247.7861,244.1992 247.3879,244.4379 247.0151,244.7144 246.6712,245.0261 246.3594,245.37 246.0829,245.7429 245.8443,246.141 245.6458,246.5606 245.4894,246.9977 245.3767,247.4479 245.3086,247.9071 245.2858,248.3707 245.3086,248.8343"/>
    <polygon points="242.8486,244.0541 243.0471,243.6344 243.2035,243.1974 243.3163,242.7471 243.3844,242.288 243.4071,241.8244 243.3844,241.3607 243.3163,240.9016 243.2035,240.4513 243.0471,240.0143 242.8486,239.5947 242.61,239.1965 242.3335,238.8237 242.0218,238.4798 241.6778,238.168 241.305,237.8915 240.9069,237.6529 240.4872,237.4544 240.0502,237.2981 239.5999,237.1853 239.1408,237.1172 238.6772,237.0944 238.2135,237.1172 237.7544,237.1853 237.3041,237.2981 236.8671,237.4544 236.4475,237.6529 236.0493,237.8915 235.6765,238.168 235.3326,238.4798 235.0208,238.8237 234.7443,239.1965 234.5057,239.5947 234.3072,240.0143 234.1509,240.4513 234.0381,240.9016 233.97,241.3607 233.9472,241.8244 233.97,242.288 234.0381,242.7471 234.1509,243.1974 234.3072,243.6344 234.5057,244.0541 234.7443,244.4522 235.0208,244.825 235.3326,245.169 235.6765,245.4807 236.0493,245.7572 236.4475,245.9958 236.8671,246.1943 237.3041,246.3507 237.7544,246.4634 238.2135,246.5316 238.6772,246.5543 239.1408,246.5316 239.5999,246.4634 240.0502,246.3507 240.4872,246.1943 240.9069,245.9958 241.305,245.7572 241.6778,245.4807 242.0218,245.169 242.3335,244.825 242.61,244.4522"/>
    <polygon points="265.0106,257.9177 265.2872,257.5449 265.5258,257.1467 265.7243,256.7271 265.8806,256.2901 265.9934,255.8398 266.0615,255.3806 266.0843,254.917 266.0615,254.4534 265.9934,253.9943 265.8806,253.544 265.7243,253.1069 265.5258,252.6873 265.2872,252.2892 265.0106,251.9164 264.6989,251.5724 264.355,251.2607 263.9822,250.9842 263.584,250.7456 263.1644,250.5471 262.7274,250.3907 262.2771,250.2779 261.8179,250.2098 261.3543,250.1871 260.8907,250.2098 260.4316,250.2779 259.9813,250.3907 259.5442,250.5471 259.1246,250.7456 258.7265,250.9842 258.3537,251.2607 258.0097,251.5724 257.698,251.9164 257.4215,252.2892 257.1829,252.6873 256.9844,253.1069 256.828,253.544 256.7152,253.9943 256.6471,254.4534 256.6244,254.917 256.6471,255.3806 256.7152,255.8398 256.828,256.2901 256.9844,256.7271 257.1829,257.1467 257.4215,257.5449 257.698,257.9177 258.0097,258.2616 258.3537,258.5733 258.7265,258.8499 259.1246,259.0885 259.5442,259.287 259.9813,259.4433 260.4316,259.5561 260.8907,259.6242 261.3543,259.647 261.8179,259.6242 262.2771,259.5561 262.7274,259.4433 263.1644,259.287 263.584,259.0885 263.9822,258.8499 264.355,258.5733 264.6989,258.2616"/>
    <polygon points="263.9822,271.9425 264.355,271.666 264.6989,271.3543 265.0106,271.0104 265.2872,270.6375 265.5258,270.2394 265.7243,269.8198 265.8806,269.3827 265.9934,268.9325 266.0615,268.4733 266.0843,268.0097 266.0615,267.5461 265.9934,267.0869 265.8806,266.6367 265.7243,266.1996 265.5258,265.78 265.2872,265.3819 265.0106,265.009 264.6989,264.6651 264.355,264.3534 263.9822,264.0769 263.584,263.8382 263.1644,263.6398 262.7274,263.4834 262.2771,263.3706 261.8179,263.3025 261.3543,263.2797 260.8907,263.3025 260.4316,263.3706 259.9813,263.4834 259.5442,263.6398 259.1246,263.8382 258.7265,264.0769 258.3537,264.3534 258.0097,264.6651 257.698,265.009 257.4215,265.3819 257.1829,265.78 256.9844,266.1996 256.828,266.6367 256.7152,267.0869 256.6471,267.5461 256.6244,268.0097 256.6471,268.4733 256.7152,268.9325 256.828,269.3827 256.9844,269.8198 257.1829,270.2394 257.4215,270.6375 257.698,271.0104 258.0097,271.3543 258.3537,271.666 258.7265,271.9425 259.1246,272.1812 259.5442,272.3796 259.9813,272.536 260.4316,272.6488 260.8907,272.7169 261.3543,272.7397 261.8179,272.7169 262.2771,272.6488 262.7274,272.536 263.1644,272.3796 263.584,272.1812"/>
    <polygon points="276.8644,289.8784 277.0628,289.4588 277.2192,289.0217 277.332,288.5715 277.4001,288.1123 277.4229,287.6487 277.4001,287.1851 277.332,286.7259 277.2192,286.2757 277.0628,285.8386 276.8644,285.419 276.6257,285.0209 276.3492,284.648 276.0375,284.3041 275.6936,283.9924 275.3207,283.7159 274.9226,283.4772 274.503,283.2788 274.066,283.1224 273.6157,283.0096 273.1565,282.9415 272.6929,282.9187 272.2293,282.9415 271.7701,283.0096 271.3199,283.1224 270.8828,283.2788 270.4632,283.4772 270.0651,283.7159 269.6923,283.9924 269.3483,284.3041 269.0366,284.648 268.7601,285.0209 268.5214,285.419 268.323,285.8386 268.1666,286.2757 268.0538,286.7259 267.9857,287.1851 267.9629,287.6487 267.9857,288.1123 268.0538,288.5715 268.1666,289.0217 268.323,289.4588 268.5214,289.8784 268.7601,290.2765 269.0366,290.6494 269.3483,290.9933 269.6923,291.305 270.0651,291.5815 270.4632,291.8202 270.8828,292.0186 271.3199,292.175 271.7701,292.2878 272.2293,292.3559 272.6929,292.3787 273.1565,292.3559 273.6157,292.2878 274.066,292.175 274.503,292.0186 274.9226,291.8202 275.3207,291.5815 275.6936,291.305 276.0375,290.9933 276.3492,290.6494 276.6257,290.2765"/>
    <polygon points="281.8018,298.3665 282.2214,298.565 282.6585,298.7213 283.1087,298.8341 283.5679,298.9022 284.0315,298.925 284.4951,298.9022 284.9543,298.8341 285.4045,298.7213 285.8416,298.565 286.2612,298.3665 286.6593,298.1279 287.0322,297.8513 287.3761,297.5396 287.6878,297.1957 287.9643,296.8229 288.203,296.4247 288.4014,296.0051 288.5578,295.5681 288.6706,295.1178 288.7387,294.6586 288.7615,294.195 288.7387,293.7314 288.6706,293.2723 288.5578,292.822 288.4014,292.3849 288.203,291.9653 287.9643,291.5672 287.6878,291.1944 287.3761,290.8504 287.0322,290.5387 286.6593,290.2622 286.2612,290.0236 285.8416,289.8251 285.4045,289.6687 284.9543,289.5559 284.4951,289.4878 284.0315,289.4651 283.5679,289.4878 283.1087,289.5559 282.6585,289.6687 282.2214,289.8251 281.8018,290.0236 281.4037,290.2622 281.0308,290.5387 280.6869,290.8504 280.3752,291.1944 280.0987,291.5672 279.86,291.9653 279.6616,292.3849 279.5052,292.822 279.3924,293.2723 279.3243,293.7314 279.3015,294.195 279.3243,294.6586 279.3924,295.1178 279.5052,295.5681 279.6616,296.0051 279.86,296.4247 280.0987,296.8229 280.3752,297.1957 280.6869,297.5396 281.0308,297.8513 281.4037,298.1279"/>
    <polygon points="298.6018,271.2827 298.229,270.2408 297.7558,269.2404 297.1869,268.2912 296.5277,267.4024 295.7846,266.5825 294.9646,265.8393 294.0758,265.1801 293.1266,264.6112 292.1263,264.1381 291.0844,263.7653 290.0109,263.4964 288.9163,263.334 287.811,263.2797 286.7058,263.334 285.6111,263.4964 284.5377,263.7653 283.4958,264.1381 282.4954,264.6112 281.5462,265.1801 280.6574,265.8393 279.8375,266.5825 279.0943,267.4024 278.4351,268.2912 277.8662,269.2404 277.3931,270.2408 277.0203,271.2827 276.7514,272.3561 276.589,273.4508 276.5347,274.556 276.589,275.6613 276.7514,276.7559 277.0203,277.8294 277.3931,278.8713 277.8662,279.8716 278.4351,280.8208 279.0943,281.7096 279.8375,282.5296 280.6574,283.2727 281.5462,283.9319 282.4954,284.5008 283.4958,284.974 284.5377,285.3468 285.6111,285.6157 286.7058,285.778 287.811,285.8323 288.9163,285.778 290.0109,285.6157 291.0844,285.3468 292.1263,284.974 293.1266,284.5008 294.0758,283.9319 294.9646,283.2727 295.7846,282.5296 296.5277,281.7096 297.1869,280.8208 297.7558,279.8716 298.229,278.8713 298.6018,277.8294 298.8707,276.7559 299.033,275.6613 299.0873,274.556 299.033,273.4508 298.8707,272.3561"/>
    <polygon points="311.4159,280.6387 311.3477,280.1796 311.235,279.7293 311.0786,279.2923 310.8801,278.8727 310.6415,278.4745 310.365,278.1017 310.0533,277.7578 309.7093,277.446 309.3365,277.1695 308.9384,276.9309 308.5187,276.7324 308.0817,276.5761 307.6314,276.4633 307.1723,276.3952 306.7087,276.3724 306.245,276.3952 305.7859,276.4633 305.3356,276.5761 304.8986,276.7324 304.479,276.9309 304.0808,277.1695 303.708,277.446 303.3641,277.7578 303.0523,278.1017 302.7758,278.4745 302.5372,278.8727 302.3387,279.2923 302.1824,279.7293 302.0696,280.1796 302.0015,280.6387 301.9787,281.1024 302.0015,281.566 302.0696,282.0251 302.1824,282.4754 302.3387,282.9124 302.5372,283.3321 302.7758,283.7302 303.0523,284.103 303.3641,284.447 303.708,284.7587 304.0808,285.0352 304.479,285.2738 304.8986,285.4723 305.3356,285.6287 305.7859,285.7414 306.245,285.8096 306.7087,285.8323 307.1723,285.8096 307.6314,285.7414 308.0817,285.6287 308.5187,285.4723 308.9384,285.2738 309.3365,285.0352 309.7093,284.7587 310.0533,284.447 310.365,284.103 310.6415,283.7302 310.8801,283.3321 311.0786,282.9124 311.235,282.4754 311.3477,282.0251 311.4159,281.566 311.4386,281.1024"/>
    <polygon points="327.5757,263.6398 327.1561,263.8382 326.758,264.0769 326.3852,264.3534 326.0412,264.6651 325.7295,265.009 325.453,265.3819 325.2144,265.78 325.0159,266.1996 324.8595,266.6367 324.7467,267.0869 324.6786,267.5461 324.6559,268.0097 324.6786,268.4733 324.7467,268.9325 324.8595,269.3827 325.0159,269.8198 325.2144,270.2394 325.453,270.6375 325.7295,271.0104 326.0412,271.3543 326.3852,271.666 326.758,271.9425 327.1561,272.1812 327.5757,272.3796 328.0128,272.536 328.4631,272.6488 328.9222,272.7169 329.3858,272.7397 329.8494,272.7169 330.3086,272.6488 330.7589,272.536 331.1959,272.3796 331.6155,272.1812 332.0137,271.9425 332.3865,271.666 332.7304,271.3543 333.0421,271.0104 333.3187,270.6375 333.5573,270.2394 333.7558,269.8198 333.9121,269.3827 334.0249,268.9325 334.093,268.4733 334.1158,268.0097 334.093,267.5461 334.0249,267.0869 333.9121,266.6367 333.7558,266.1996 333.5573,265.78 333.3187,265.3819 333.0421,265.009 332.7304,264.6651 332.3865,264.3534 332.0137,264.0769 331.6155,263.8382 331.1959,263.6398 330.7589,263.4834 330.3086,263.3706 329.8494,263.3025 329.3858,263.2797 328.9222,263.3025 328.4631,263.3706 328.0128,263.4834"/>
    <polygon points="321.2789,258.19 320.9061,257.1481 320.433,256.1477 319.8641,255.1986 319.2049,254.3097 318.4617,253.4898 317.6418,252.7467 316.753,252.0875 315.8038,251.5185 314.8034,251.0454 313.7615,250.6726 312.6881,250.4037 311.5935,250.2414 310.4882,250.1871 309.3829,250.2414 308.2883,250.4037 307.2149,250.6726 306.1729,251.0454 305.1726,251.5185 304.2234,252.0875 303.3346,252.7467 302.5146,253.4898 301.7715,254.3097 301.1123,255.1986 300.5434,256.1477 300.0702,257.1481 299.6974,258.19 299.4286,259.2635 299.2662,260.3581 299.2119,261.4634 299.2662,262.5686 299.4286,263.6633 299.6974,264.7367 300.0702,265.7786 300.5434,266.779 301.1123,267.7281 301.7715,268.617 302.5146,269.4369 303.3346,270.1801 304.2234,270.8393 305.1726,271.4082 306.1729,271.8813 307.2149,272.2541 308.2883,272.523 309.3829,272.6854 310.4882,272.7397 311.5935,272.6854 312.6881,272.523 313.7615,272.2541 314.8034,271.8813 315.8038,271.4082 316.753,270.8393 317.6418,270.1801 318.4617,269.4369 319.2049,268.617 319.8641,267.7281 320.433,266.779 320.9061,265.7786 321.2789,264.7367 321.5478,263.6633 321.7102,262.5686 321.7645,261.4634 321.7102,260.3581 321.5478,259.2635"/>
    <polygon points="308.0817,237.2981 307.6314,237.1853 307.1723,237.1172 306.7087,237.0944 306.245,237.1172 305.7859,237.1853 305.3356,237.2981 304.8986,237.4544 304.479,237.6529 304.0808,237.8915 303.708,238.168 303.3641,238.4798 303.0523,238.8237 302.7758,239.1965 302.5372,239.5947 302.3387,240.0143 302.1824,240.4513 302.0696,240.9016 302.0015,241.3607 301.9787,241.8244 302.0015,242.288 302.0696,242.7471 302.1824,243.1974 302.3387,243.6344 302.5372,244.0541 302.7758,244.4522 303.0523,244.825 303.3641,245.169 303.708,245.4807 304.0808,245.7572 304.479,245.9958 304.8986,246.1943 305.3356,246.3507 305.7859,246.4634 306.245,246.5316 306.7087,246.5543 307.1723,246.5316 307.6314,246.4634 308.0817,246.3507 308.5187,246.1943 308.9384,245.9958 309.3365,245.7572 309.7093,245.4807 310.0533,245.169 310.365,244.825 310.6415,244.4522 310.8801,244.0541 311.0786,243.6344 311.235,243.1974 311.3477,242.7471 311.4159,242.288 311.4386,241.8244 311.4159,241.3607 311.3477,240.9016 311.235,240.4513 311.0786,240.0143 310.8801,239.5947 310.6415,239.1965 310.365,238.8237 310.0533,238.4798 309.7093,238.168 309.3365,237.8915 308.9384,237.6529 308.5187,237.4544"/>
    <polygon points="291.4373,219.5575 291.1986,219.9557 291.0002,220.3753 290.8438,220.8123 290.731,221.2626 290.6629,221.7217 290.6401,222.1854 290.6629,222.649 290.731,223.1081 290.8438,223.5584 291.0002,223.9954 291.1986,224.4151 291.4373,224.8132 291.7138,225.186 292.0255,225.53 292.3694,225.8417 292.7422,226.1182 293.1404,226.3568 293.56,226.5553 293.997,226.7117 294.4473,226.8244 294.9065,226.8926 295.3701,226.9153 295.8337,226.8926 296.2929,226.8244 296.7431,226.7117 297.1802,226.5553 297.5998,226.3568 297.9979,226.1182 298.3707,225.8417 298.7147,225.53 299.0264,225.186 299.3029,224.8132 299.5415,224.4151 299.74,223.9954 299.8964,223.5584 300.0092,223.1081 300.0773,222.649 300.1001,222.1854 300.0773,221.7217 300.0092,221.2626 299.8964,220.8123 299.74,220.3753 299.5415,219.9557 299.3029,219.5575 299.0264,219.1847 298.7147,218.8408 298.3707,218.529 297.9979,218.2525 297.5998,218.0139 297.1802,217.8154 296.7431,217.6591 296.2929,217.5463 295.8337,217.4782 295.3701,217.4554 294.9065,217.4782 294.4473,217.5463 293.997,217.6591 293.56,217.8154 293.1404,218.0139 292.7422,218.2525 292.3694,218.529 292.0255,218.8408 291.7138,219.1847"/>
    <polygon points="281.8018,224.5602 281.4037,224.7989 281.0308,225.0754 280.6869,225.3871 280.3752,225.731 280.0987,226.1039 279.86,226.502 279.6616,226.9216 279.5052,227.3587 279.3924,227.8089 279.3243,228.2681 279.3015,228.7317 279.3243,229.1953 279.3924,229.6545 279.5052,230.1047 279.6616,230.5418 279.86,230.9614 280.0987,231.3595 280.3752,231.7324 280.6869,232.0763 281.0308,232.388 281.4037,232.6645 281.8018,232.9032 282.2214,233.1016 282.6585,233.258 283.1087,233.3708 283.5679,233.4389 284.0315,233.4617 284.4951,233.4389 284.9543,233.3708 285.4045,233.258 285.8416,233.1016 286.2612,232.9032 286.6593,232.6645 287.0322,232.388 287.3761,232.0763 287.6878,231.7324 287.9643,231.3595 288.203,230.9614 288.4014,230.5418 288.5578,230.1047 288.6706,229.6545 288.7387,229.1953 288.7615,228.7317 288.7387,228.2681 288.6706,227.8089 288.5578,227.3587 288.4014,226.9216 288.203,226.502 287.9643,226.1039 287.6878,225.731 287.3761,225.3871 287.0322,225.0754 286.6593,224.7989 286.2612,224.5602 285.8416,224.3618 285.4045,224.2054 284.9543,224.0926 284.4951,224.0245 284.0315,224.0017 283.5679,224.0245 283.1087,224.0926 282.6585,224.2054 282.2214,224.3618"/>
    <polygon points="278.4351,242.1059 279.0943,241.2171 279.8375,240.3971 280.6574,239.654 281.5462,238.9948 282.4954,238.4259 283.4958,237.9527 284.5377,237.5799 285.6111,237.3111 286.7058,237.1487 287.811,237.0944 288.9163,237.1487 290.0109,237.3111 291.0844,237.5799 292.1263,237.9527 293.1266,238.4259 294.0758,238.9948 294.9646,239.654 295.7846,240.3971 296.5277,241.2171 297.1869,242.1059 297.7558,243.0551 298.229,244.0554 298.6018,245.0974 298.8707,246.1708 299.033,247.2654 299.0873,248.3707 299.033,249.476 298.8707,250.5706 298.6018,251.644 298.229,252.6859 297.7558,253.6863 297.1869,254.6355 296.5277,255.5243 295.7846,256.3442 294.9646,257.0874 294.0758,257.7466 293.1266,258.3155 292.1263,258.7886 291.0844,259.1614 290.0109,259.4303 288.9163,259.5927 287.811,259.647 286.7058,259.5927 285.6111,259.4303 284.5377,259.1614 283.4958,258.7886 282.4954,258.3155 281.5462,257.7466 280.6574,257.0874 279.8375,256.3442 279.0943,255.5243 278.4351,254.6355 277.8662,253.6863 277.3931,252.6859 277.0203,251.644 276.7514,250.5706 276.589,249.476 276.5347,248.3707 276.589,247.2654 276.7514,246.1708 277.0203,245.0974 277.3931,244.0554 277.8662,243.0551"/>
    <polygon points="275.5518,230.9628 275.9246,232.0047 276.1935,233.0781 276.3559,234.1728 276.4102,235.278 276.3559,236.3833 276.1935,237.4779 275.9246,238.5514 275.5518,239.5933 275.0787,240.5936 274.5098,241.5428 273.8506,242.4316 273.1074,243.2516 272.2875,243.9947 271.3986,244.6539 270.4495,245.2228 269.4491,245.696 268.4072,246.0688 267.3338,246.3377 266.2391,246.5 265.1339,246.5543 264.0286,246.5 262.934,246.3377 261.8605,246.0688 260.8186,245.696 259.8182,245.2228 258.8691,244.6539 257.9802,243.9947 257.1603,243.2516 256.4172,242.4316 255.758,241.5428 255.189,240.5936 254.7159,239.5933 254.3431,238.5514 254.0742,237.4779 253.9119,236.3833 253.8576,235.278 253.9119,234.1728 254.0742,233.0781 254.3431,232.0047 254.7159,230.9628 255.189,229.9624 255.758,229.0132 256.4172,228.1244 257.1603,227.3045 257.9802,226.5613 258.8691,225.9021 259.8182,225.3332 260.8186,224.8601 261.8605,224.4873 262.934,224.2184 264.0286,224.056 265.1339,224.0017 266.2391,224.056 267.3338,224.2184 268.4072,224.4873 269.4491,224.8601 270.4495,225.3332 271.3986,225.9021 272.2875,226.5613 273.1074,227.3045 273.8506,228.1244 274.5098,229.0132 275.0787,229.9624"/>
    <polygon points="265.7243,217.4491 265.8806,217.0121 265.9934,216.5618 266.0615,216.1026 266.0843,215.639 266.0615,215.1754 265.9934,214.7163 265.8806,214.266 265.7243,213.8289 265.5258,213.4093 265.2872,213.0112 265.0106,212.6384 264.6989,212.2944 264.355,211.9827 263.9822,211.7062 263.584,211.4676 263.1644,211.2691 262.7274,211.1127 262.2771,210.9999 261.8179,210.9318 261.3543,210.9091 260.8907,210.9318 260.4316,210.9999 259.9813,211.1127 259.5442,211.2691 259.1246,211.4676 258.7265,211.7062 258.3537,211.9827 258.0097,212.2944 257.698,212.6384 257.4215,213.0112 257.1829,213.4093 256.9844,213.8289 256.828,214.266 256.7152,214.7163 256.6471,215.1754 256.6244,215.639 256.6471,216.1026 256.7152,216.5618 256.828,217.0121 256.9844,217.4491 257.1829,217.8687 257.4215,218.2669 257.698,218.6397 258.0097,218.9836 258.3537,219.2953 258.7265,219.5719 259.1246,219.8105 259.5442,220.0089 259.9813,220.1653 260.4316,220.2781 260.8907,220.3462 261.3543,220.369 261.8179,220.3462 262.2771,220.2781 262.7274,220.1653 263.1644,220.0089 263.584,219.8105 263.9822,219.5719 264.355,219.2953 264.6989,218.9836 265.0106,218.6397 265.2872,218.2669 265.5258,217.8687"/>
    <polygon points="244.6566,211.1257 243.562,210.9634 242.4567,210.9091 241.3514,210.9634 240.2568,211.1257 239.1834,211.3946 238.1414,211.7674 237.1411,212.2405 236.1919,212.8095 235.3031,213.4687 234.4831,214.2118 233.74,215.0317 233.0808,215.9206 232.5119,216.8697 232.0387,217.8701 231.6659,218.912 231.3971,219.9855 231.2347,221.0801 231.1804,222.1854 231.2347,223.2906 231.3971,224.3853 231.6659,225.4587 232.0387,226.5006 232.5119,227.501 233.0808,228.4501 233.74,229.339 234.4831,230.1589 235.3031,230.9021 236.1919,231.5613 237.1411,232.1302 238.1414,232.6033 239.1834,232.9761 240.2568,233.245 241.3514,233.4074 242.4567,233.4617 243.562,233.4074 244.6566,233.245 245.73,232.9761 246.7719,232.6033 247.7723,232.1302 248.7215,231.5613 249.6103,230.9021 250.4302,230.1589 251.1734,229.339 251.8326,228.4501 252.4015,227.501 252.8746,226.5006 253.2474,225.4587 253.5163,224.3853 253.6787,223.2906 253.733,222.1854 253.6787,221.0801 253.5163,219.9855 253.2474,218.912 252.8746,217.8701 252.4015,216.8697 251.8326,215.9206 251.1734,215.0317 250.4302,214.2118 249.6103,213.4687 248.7215,212.8095 247.7723,212.2405 246.7719,211.7674 245.73,211.3946"/>
    <polygon points="253.6787,197.1053 253.733,196.0 253.6787,194.8948 253.5163,193.8001 253.2474,192.7267 252.8746,191.6848 252.4015,190.6844 251.8326,189.7352 251.1734,188.8464 250.4302,188.0265 249.6103,187.2833 248.7215,186.6241 247.7723,186.0552 246.7719,185.5821 245.73,185.2093 244.6566,184.9404 243.562,184.778 242.4567,184.7237 241.3514,184.778 240.2568,184.9404 239.1834,185.2093 238.1414,185.5821 237.1411,186.0552 236.1919,186.6241 235.3031,187.2833 234.4831,188.0265 233.74,188.8464 233.0808,189.7352 232.5119,190.6844 232.0387,191.6848 231.6659,192.7267 231.3971,193.8001 231.2347,194.8948 231.1804,196.0 231.2347,197.1053 231.3971,198.1999 231.6659,199.2734 232.0387,200.3153 232.5119,201.3156 233.0808,202.2648 233.74,203.1536 234.4831,203.9736 235.3031,204.7167 236.1919,205.3759 237.1411,205.9448 238.1414,206.418 239.1834,206.7908 240.2568,207.0597 241.3514,207.222 242.4567,207.2763 243.562,207.222 244.6566,207.0597 245.73,206.7908 246.7719,206.418 247.7723,205.9448 248.7215,205.3759 249.6103,204.7167 250.4302,203.9736 251.1734,203.1536 251.8326,202.2648 252.4015,201.3156 252.8746,200.3153 253.2474,199.2734 253.5163,198.1999"/>
    <polygon points="266.0843,189.4537 266.0615,188.9901 265.9934,188.5309 265.8806,188.0807 265.7243,187.6436 265.5258,187.224 265.2872,186.8259 265.0106,186.453 264.6989,186.1091 264.355,185.7974 263.9822,185.5209 263.584,185.2822 263.1644,185.0838 262.7274,184.9274 262.2771,184.8146 261.8179,184.7465 261.3543,184.7237 260.8907,184.7465 260.4316,184.8146 259.9813,184.9274 259.5442,185.0838 259.1246,185.2822 258.7265,185.5209 258.3537,185.7974 258.0097,186.1091 257.698,186.453 257.4215,186.8259 257.1829,187.224 256.9844,187.6436 256.828,188.0807 256.7152,188.5309 256.6471,188.9901 256.6244,189.4537 256.6471,189.9173 256.7152,190.3765 256.828,190.8267 256.9844,191.2638 257.1829,191.6834 257.4215,192.0815 257.698,192.4544 258.0097,192.7983 258.3537,193.11 258.7265,193.3865 259.1246,193.6252 259.5442,193.8236 259.9813,193.98 260.4316,194.0928 260.8907,194.1609 261.3543,194.1837 261.8179,194.1609 262.2771,194.0928 262.7274,193.98 263.1644,193.8236 263.584,193.6252 263.9822,193.3865 264.355,193.11 264.6989,192.7983 265.0106,192.4544 265.2872,192.0815 265.5258,191.6834 265.7243,191.2638 265.8806,190.8267 265.9934,190.3765 266.0615,189.9173"/>
    <polygon points="257.1829,178.5907 257.4215,178.9889 257.698,179.3617 258.0097,179.7056 258.3537,180.0173 258.7265,180.2939 259.1246,180.5325 259.5442,180.7309 259.9813,180.8873 260.4316,181.0001 260.8907,181.0682 261.3543,181.091 261.8179,181.0682 262.2771,181.0001 262.7274,180.8873 263.1644,180.7309 263.584,180.5325 263.9822,180.2939 264.355,180.0173 264.6989,179.7056 265.0106,179.3617 265.2872,178.9889 265.5258,178.5907 265.7243,178.1711 265.8806,177.7341 265.9934,177.2838 266.0615,176.8246 266.0843,176.361 266.0615,175.8974 265.9934,175.4383 265.8806,174.988 265.7243,174.5509 265.5258,174.1313 265.2872,173.7332 265.0106,173.3604 264.6989,173.0164 264.355,172.7047 263.9822,172.4282 263.584,172.1896 263.1644,171.9911 262.7274,171.8347 262.2771,171.7219 261.8179,171.6538 261.3543,171.631 260.8907,171.6538 260.4316,171.7219 259.9813,171.8347 259.5442,171.9911 259.1246,172.1896 258.7265,172.4282 258.3537,172.7047 258.0097,173.0164 257.698,173.3604 257.4215,173.7332 257.1829,174.1313 256.9844,174.5509 256.828,174.988 256.7152,175.4383 256.6471,175.8974 256.6244,176.361 256.6471,176.8246 256.7152,177.2838 256.828,177.7341 256.9844,178.1711"/>
    <polygon points="240.9069,172.1896 240.4872,171.9911 240.0502,171.8347 239.5999,171.7219 239.1408,171.6538 238.6772,171.631 238.2135,171.6538 237.7544,171.7219 237.3041,171.8347 236.8671,171.9911 236.4475,172.1896 236.0493,172.4282 235.6765,172.7047 235.3326,173.0164 235.0208,173.3604 234.7443,173.7332 234.5057,174.1313 234.3072,174.5509 234.1509,174.988 234.0381,175.4383 233.97,175.8974 233.9472,176.361 233.97,176.8246 234.0381,177.2838 234.1509,177.7341 234.3072,178.1711 234.5057,178.5907 234.7443,178.9889 235.0208,179.3617 235.3326,179.7056 235.6765,180.0173 236.0493,180.2939 236.4475,180.5325 236.8671,180.7309 237.3041,180.8873 237.7544,181.0001 238.2135,181.0682 238.6772,181.091 239.1408,181.0682 239.5999,181.0001 240.0502,180.8873 240.4872,180.7309 240.9069,180.5325 241.305,180.2939 241.6778,180.0173 242.0218,179.7056 242.3335,179.3617 242.61,178.9889 242.8486,178.5907 243.0471,178.1711 243.2035,177.7341 243.3163,177.2838 243.3844,176.8246 243.4071,176.361 243.3844,175.8974 243.3163,175.4383 243.2035,174.988 243.0471,174.5509 242.8486,174.1313 242.61,173.7332 242.3335,173.3604 242.0218,173.0164 241.6778,172.7047 241.305,172.4282"/>
  </g>
</svg>
