<?xml version="1.0" encoding="utf-8" ?>
<svg xmlns="http://www.w3.org/2000/svg" xmlns:cc="http://creativecommons.org/ns" xmlns:dc="http://purl.org/dc/elements/1.1/" xmlns:ev="http://www.w3.org/2001/xml-events" xmlns:inkscape="http://www.inkscape.org/namespaces/inkscape" xmlns:rdf="http://www.w3.org/1999/02/22-rdf-syntax-ns" xmlns:sodipodi="http://sodipodi.sourceforge.net/DTD/sodipodi-0.dtd" xmlns:xlink="http://www.w3.org/1999/xlink" baseProfile="tiny" height="15.875cm" version="1.2" viewBox="0 0 432.0 600.0" width="11.43cm">
  <metadata>
    <rdf:RDF>
      <cc:Work>
        <dc:format>image/svg+xml</dc:format>
        <dc:source>vsk save -s 132 -c hex-grid/config/bubble-coasters-2.json /Users/tobin/src/fabian/plotting/fabian-plotting/hex-grid/sketch_hex_grid.py</dc:source>
        <dc:date>2023-11-04T10:32:59.322882</dc:date>
      </cc:Work>
    </rdf:RDF>
  </metadata>
  <defs/>
  <g fill="none" id="layer1" inkscape:groupmode="layer" inkscape:label="1" stroke="#000000" stroke-width="0.7559" style="display:inline">
    <polygon points="299.6663,204.5664 300.1166,204.4536 300.5758,204.3855 301.0394,204.3627 301.503,204.3855 301.9621,204.4536 302.4124,204.5664 302.8495,204.7228 303.2691,204.9212 303.6672,205.1599 304.04,205.4364 304.384,205.7481 304.6957,206.092 304.9722,206.4649 305.2108,206.863 305.4093,207.2826 305.5657,207.7197 305.6785,208.1699 305.7466,208.6291 305.7693,209.0927 305.7466,209.5563 305.6785,210.0155 305.5657,210.4657 305.4093,210.9028 305.2108,211.3224 304.9722,211.7205 304.6957,212.0934 304.384,212.4373 304.04,212.749 303.6672,213.0255 303.2691,213.2642 302.8495,213.4626 302.4124,213.619 301.9621,213.7318 301.503,213.7999 301.0394,213.8227 300.5758,213.7999 300.1166,213.7318 299.6663,213.619 299.2293,213.4626 298.8097,213.2642 298.4115,213.0255 298.0387,212.749 297.6948,212.4373 297.3831,212.0934 297.1065,211.7205 296.8679,211.3224 296.6694,210.9028 296.5131,210.4657 296.4003,210.0155 296.3322,209.5563 296.3094,209.0927 296.3322,208.6291 296.4003,208.1699 296.5131,207.7197 296.6694,207.2826 296.8679,206.863 297.1065,206.4649 297.3831,206.092 297.6948,205.7481 298.0387,205.4364 298.4115,205.1599 298.8097,204.9212 299.2293,204.7228"/>
    <polygon points="276.1325,200.1715 275.7344,199.9329 275.3615,199.6563 275.0176,199.3446 274.7059,199.0007 274.4294,198.6279 274.1907,198.2297 273.9923,197.8101 273.8359,197.3731 273.7231,196.9228 273.655,196.4636 273.6322,196.0 273.655,195.5364 273.7231,195.0773 273.8359,194.627 273.9923,194.1899 274.1907,193.7703 274.4294,193.3722 274.7059,192.9994 275.0176,192.6554 275.3615,192.3437 275.7344,192.0672 276.1325,191.8286 276.5521,191.6301 276.9892,191.4737 277.4394,191.3609 277.8986,191.2928 278.3622,191.2701 278.8258,191.2928 279.285,191.3609 279.7352,191.4737 280.1723,191.6301 280.5919,191.8286 280.99,192.0672 281.3629,192.3437 281.7068,192.6554 282.0185,192.9994 282.295,193.3722 282.5337,193.7703 282.7321,194.1899 282.8885,194.627 283.0013,195.0773 283.0694,195.5364 283.0922,196.0 283.0694,196.4636 283.0013,196.9228 282.8885,197.3731 282.7321,197.8101 282.5337,198.2297 282.295,198.6279 282.0185,199.0007 281.7068,199.3446 281.3629,199.6563 280.99,199.9329 280.5919,200.1715 280.1723,200.3699 279.7352,200.5263 279.285,200.6391 278.8258,200.7072 278.3622,200.73 277.8986,200.7072 277.4394,200.6391 276.9892,200.5263 276.5521,200.3699"/>
    <polygon points="258.3593,217.5097 259.4646,217.4554 260.5698,217.5097 261.6645,217.6721 262.7379,217.9409 263.7798,218.3137 264.7802,218.7869 265.7293,219.3558 266.6182,220.015 267.4381,220.7581 268.1813,221.5781 268.8405,222.4669 269.4094,223.4161 269.8825,224.4164 270.2553,225.4584 270.5242,226.5318 270.6866,227.6264 270.7409,228.7317 270.6866,229.837 270.5242,230.9316 270.2553,232.005 269.8825,233.0469 269.4094,234.0473 268.8405,234.9965 268.1813,235.8853 267.4381,236.7052 266.6182,237.4484 265.7293,238.1076 264.7802,238.6765 263.7798,239.1496 262.7379,239.5224 261.6645,239.7913 260.5698,239.9537 259.4646,240.008 258.3593,239.9537 257.2647,239.7913 256.1912,239.5224 255.1493,239.1496 254.149,238.6765 253.1998,238.1076 252.311,237.4484 251.491,236.7052 250.7479,235.8853 250.0887,234.9965 249.5198,234.0473 249.0466,233.0469 248.6738,232.005 248.4049,230.9316 248.2426,229.837 248.1883,228.7317 248.2426,227.6264 248.4049,226.5318 248.6738,225.4584 249.0466,224.4164 249.5198,223.4161 250.0887,222.4669 250.7479,221.5781 251.491,220.7581 252.311,220.015 253.1998,219.3558 254.149,218.7869 255.1493,218.3137 256.1912,217.9409 257.2647,217.6721"/>
    <polygon points="256.1912,244.1263 255.1493,244.4991 254.149,244.9722 253.1998,245.5411 252.311,246.2003 251.491,246.9435 250.7479,247.7634 250.0887,248.6522 249.5198,249.6014 249.0466,250.6018 248.6738,251.6437 248.4049,252.7171 248.2426,253.8118 248.1883,254.917 248.2426,256.0223 248.4049,257.1169 248.6738,258.1904 249.0466,259.2323 249.5198,260.2326 250.0887,261.1818 250.7479,262.0706 251.491,262.8906 252.311,263.6337 253.1998,264.2929 254.149,264.8618 255.1493,265.335 256.1912,265.7078 257.2647,265.9767 258.3593,266.139 259.4646,266.1933 260.5698,266.139 261.6645,265.9767 262.7379,265.7078 263.7798,265.335 264.7802,264.8618 265.7293,264.2929 266.6182,263.6337 267.4381,262.8906 268.1813,262.0706 268.8405,261.1818 269.4094,260.2326 269.8825,259.2323 270.2553,258.1904 270.5242,257.1169 270.6866,256.0223 270.7409,254.917 270.6866,253.8118 270.5242,252.7171 270.2553,251.6437 269.8825,250.6018 269.4094,249.6014 268.8405,248.6522 268.1813,247.7634 267.4381,246.9435 266.6182,246.2003 265.7293,245.5411 264.7802,244.9722 263.7798,244.4991 262.7379,244.1263 261.6645,243.8574 260.5698,243.695 259.4646,243.6407 258.3593,243.695 257.2647,243.8574"/>
    <polygon points="275.877,258.6338 274.9881,259.293 274.1682,260.0361 273.425,260.8561 272.7658,261.7449 272.1969,262.6941 271.7238,263.6944 271.351,264.7364 271.0821,265.8098 270.9197,266.9044 270.8654,268.0097 270.9197,269.115 271.0821,270.2096 271.351,271.283 271.7238,272.325 272.1969,273.3253 272.7658,274.2745 273.425,275.1633 274.1682,275.9832 274.9881,276.7264 275.877,277.3856 276.8261,277.9545 277.8265,278.4276 278.8684,278.8004 279.9418,279.0693 281.0365,279.2317 282.1417,279.286 283.247,279.2317 284.3416,279.0693 285.4151,278.8004 286.457,278.4276 287.4573,277.9545 288.4065,277.3856 289.2953,276.7264 290.1153,275.9832 290.8584,275.1633 291.5176,274.2745 292.0865,273.3253 292.5597,272.325 292.9325,271.283 293.2014,270.2096 293.3637,269.115 293.418,268.0097 293.3637,266.9044 293.2014,265.8098 292.9325,264.7364 292.5597,263.6944 292.0865,262.6941 291.5176,261.7449 290.8584,260.8561 290.1153,260.0361 289.2953,259.293 288.4065,258.6338 287.4573,258.0649 286.457,257.5917 285.4151,257.2189 284.3416,256.9501 283.247,256.7877 282.1417,256.7334 281.0365,256.7877 279.9418,256.9501 278.8684,257.2189 277.8265,257.5917 276.8261,258.0649"/>
    <polygon points="282.7321,246.5606 282.5337,246.141 282.295,245.7429 282.0185,245.37 281.7068,245.0261 281.3629,244.7144 280.99,244.4379 280.5919,244.1992 280.1723,244.0008 279.7352,243.8444 279.285,243.7316 278.8258,243.6635 278.3622,243.6407 277.8986,243.6635 277.4394,243.7316 276.9892,243.8444 276.5521,244.0008 276.1325,244.1992 275.7344,244.4379 275.3615,244.7144 275.0176,245.0261 274.7059,245.37 274.4294,245.7429 274.1907,246.141 273.9923,246.5606 273.8359,246.9977 273.7231,247.4479 273.655,247.9071 273.6322,248.3707 273.655,248.8343 273.7231,249.2935 273.8359,249.7437 273.9923,250.1808 274.1907,250.6004 274.4294,250.9985 274.7059,251.3714 275.0176,251.7153 275.3615,252.027 275.7344,252.3035 276.1325,252.5422 276.5521,252.7406 276.9892,252.897 277.4394,253.0098 277.8986,253.0779 278.3622,253.1007 278.8258,253.0779 279.285,253.0098 279.7352,252.897 280.1723,252.7406 280.5919,252.5422 280.99,252.3035 281.3629,252.027 281.7068,251.7153 282.0185,251.3714 282.295,250.9985 282.5337,250.6004 282.7321,250.1808 282.8885,249.7437 283.0013,249.2935 283.0694,248.8343 283.0922,248.3707 283.0694,247.9071 283.0013,247.4479 282.8885,246.9977"/>
    <polygon points="280.1723,230.9081 279.7352,230.7517 279.285,230.6389 278.8258,230.5708 278.3622,230.5481 277.8986,230.5708 277.4394,230.6389 276.9892,230.7517 276.5521,230.9081 276.1325,231.1066 275.7344,231.3452 275.3615,231.6217 275.0176,231.9334 274.7059,232.2774 274.4294,232.6502 274.1907,233.0483 273.9923,233.4679 273.8359,233.905 273.7231,234.3553 273.655,234.8144 273.6322,235.278 273.655,235.7416 273.7231,236.2008 273.8359,236.6511 273.9923,237.0881 274.1907,237.5077 274.4294,237.9059 274.7059,238.2787 275.0176,238.6226 275.3615,238.9343 275.7344,239.2109 276.1325,239.4495 276.5521,239.648 276.9892,239.8043 277.4394,239.9171 277.8986,239.9852 278.3622,240.008 278.8258,239.9852 279.285,239.9171 279.7352,239.8043 280.1723,239.648 280.5919,239.4495 280.99,239.2109 281.3629,238.9343 281.7068,238.6226 282.0185,238.2787 282.295,237.9059 282.5337,237.5077 282.7321,237.0881 282.8885,236.6511 283.0013,236.2008 283.0694,235.7416 283.0922,235.278 283.0694,234.8144 283.0013,234.3553 282.8885,233.905 282.7321,233.4679 282.5337,233.0483 282.295,232.6502 282.0185,232.2774 281.7068,231.9334 281.3629,231.6217 280.99,231.3452 280.5919,231.1066"/>
    <polygon points="284.3416,226.6987 285.4151,226.4298 286.457,226.057 287.4573,225.5838 288.4065,225.0149 289.2953,224.3557 290.1153,223.6126 290.8584,222.7926 291.5176,221.9038 292.0865,220.9546 292.5597,219.9543 292.9325,218.9124 293.2014,217.8389 293.3637,216.7443 293.418,215.639 293.3637,214.5338 293.2014,213.4391 292.9325,212.3657 292.5597,211.3238 292.0865,210.3234 291.5176,209.3742 290.8584,208.4854 290.1153,207.6655 289.2953,206.9223 288.4065,206.2631 287.4573,205.6942 286.457,205.2211 285.4151,204.8483 284.3416,204.5794 283.247,204.417 282.1417,204.3627 281.0365,204.417 279.9418,204.5794 278.8684,204.8483 277.8265,205.2211 276.8261,205.6942 275.877,206.2631 274.9881,206.9223 274.1682,207.6655 273.425,208.4854 272.7658,209.3742 272.1969,210.3234 271.7238,211.3238 271.351,212.3657 271.0821,213.4391 270.9197,214.5338 270.8654,215.639 270.9197,216.7443 271.0821,217.8389 271.351,218.9124 271.7238,219.9543 272.1969,220.9546 272.7658,221.9038 273.425,222.7926 274.1682,223.6126 274.9881,224.3557 275.877,225.0149 276.8261,225.5838 277.8265,226.057 278.8684,226.4298 279.9418,226.6987 281.0365,226.861 282.1417,226.9153 283.247,226.861"/>
    <polygon points="302.4124,239.8043 302.8495,239.648 303.2691,239.4495 303.6672,239.2109 304.04,238.9343 304.384,238.6226 304.6957,238.2787 304.9722,237.9059 305.2108,237.5077 305.4093,237.0881 305.5657,236.6511 305.6785,236.2008 305.7466,235.7416 305.7693,235.278 305.7466,234.8144 305.6785,234.3553 305.5657,233.905 305.4093,233.4679 305.2108,233.0483 304.9722,232.6502 304.6957,232.2774 304.384,231.9334 304.04,231.6217 303.6672,231.3452 303.2691,231.1066 302.8495,230.9081 302.4124,230.7517 301.9621,230.6389 301.503,230.5708 301.0394,230.5481 300.5758,230.5708 300.1166,230.6389 299.6663,230.7517 299.2293,230.9081 298.8097,231.1066 298.4115,231.3452 298.0387,231.6217 297.6948,231.9334 297.3831,232.2774 297.1065,232.6502 296.8679,233.0483 296.6694,233.4679 296.5131,233.905 296.4003,234.3553 296.3322,234.8144 296.3094,235.278 296.3322,235.7416 296.4003,236.2008 296.5131,236.6511 296.6694,237.0881 296.8679,237.5077 297.1065,237.9059 297.3831,238.2787 297.6948,238.6226 298.0387,238.9343 298.4115,239.2109 298.8097,239.4495 299.2293,239.648 299.6663,239.8043 300.1166,239.9171 300.5758,239.9852 301.0394,240.008 301.503,239.9852 301.9621,239.9171"/>
    <polygon points="320.3719,245.0261 320.0602,245.37 319.7837,245.7429 319.5451,246.141 319.3466,246.5606 319.1902,246.9977 319.0774,247.4479 319.0093,247.9071 318.9866,248.3707 319.0093,248.8343 319.0774,249.2935 319.1902,249.7437 319.3466,250.1808 319.5451,250.6004 319.7837,250.9985 320.0602,251.3714 320.3719,251.7153 320.7159,252.027 321.0887,252.3035 321.4868,252.5422 321.9065,252.7406 322.3435,252.897 322.7938,253.0098 323.2529,253.0779 323.7165,253.1007 324.1802,253.0779 324.6393,253.0098 325.0896,252.897 325.5266,252.7406 325.9462,252.5422 326.3444,252.3035 326.7172,252.027 327.0611,251.7153 327.3729,251.3714 327.6494,250.9985 327.888,250.6004 328.0865,250.1808 328.2428,249.7437 328.3556,249.2935 328.4237,248.8343 328.4465,248.3707 328.4237,247.9071 328.3556,247.4479 328.2428,246.9977 328.0865,246.5606 327.888,246.141 327.6494,245.7429 327.3729,245.37 327.0611,245.0261 326.7172,244.7144 326.3444,244.4379 325.9462,244.1992 325.5266,244.0008 325.0896,243.8444 324.6393,243.7316 324.1802,243.6635 323.7165,243.6407 323.2529,243.6635 322.7938,243.7316 322.3435,243.8444 321.9065,244.0008 321.4868,244.1992 321.0887,244.4379 320.7159,244.7144"/>
    <polygon points="339.5814,227.3587 339.6942,227.8089 339.7623,228.2681 339.7851,228.7317 339.7623,229.1953 339.6942,229.6545 339.5814,230.1047 339.425,230.5418 339.2266,230.9614 338.9879,231.3595 338.7114,231.7324 338.3997,232.0763 338.0558,232.388 337.683,232.6645 337.2848,232.9032 336.8652,233.1016 336.4282,233.258 335.9779,233.3708 335.5187,233.4389 335.0551,233.4617 334.5915,233.4389 334.1323,233.3708 333.6821,233.258 333.245,233.1016 332.8254,232.9032 332.4273,232.6645 332.0545,232.388 331.7105,232.0763 331.3988,231.7324 331.1223,231.3595 330.8837,230.9614 330.6852,230.5418 330.5288,230.1047 330.416,229.6545 330.3479,229.1953 330.3251,228.7317 330.3479,228.2681 330.416,227.8089 330.5288,227.3587 330.6852,226.9216 330.8837,226.502 331.1223,226.1039 331.3988,225.731 331.7105,225.3871 332.0545,225.0754 332.4273,224.7989 332.8254,224.5602 333.245,224.3618 333.6821,224.2054 334.1323,224.0926 334.5915,224.0245 335.0551,224.0017 335.5187,224.0245 335.9779,224.0926 336.4282,224.2054 336.8652,224.3618 337.2848,224.5602 337.683,224.7989 338.0558,225.0754 338.3997,225.3871 338.7114,225.731 338.9879,226.1039 339.2266,226.502 339.425,226.9216"/>
    <polygon points="341.7546,236.2008 341.6865,235.7416 341.6637,235.278 341.6865,234.8144 341.7546,234.3553 341.8674,233.905 342.0238,233.4679 342.2222,233.0483 342.4609,232.6502 342.7374,232.2774 343.0491,231.9334 343.393,231.6217 343.7659,231.3452 344.164,231.1066 344.5836,230.9081 345.0207,230.7517 345.4709,230.6389 345.9301,230.5708 346.3937,230.5481 346.8573,230.5708 347.3165,230.6389 347.7667,230.7517 348.2038,230.9081 348.6234,231.1066 349.0215,231.3452 349.3944,231.6217 349.7383,231.9334 350.05,232.2774 350.3265,232.6502 350.5652,233.0483 350.7636,233.4679 350.92,233.905 351.0328,234.3553 351.1009,234.8144 351.1237,235.278 351.1009,235.7416 351.0328,236.2008 350.92,236.6511 350.7636,237.0881 350.5652,237.5077 350.3265,237.9059 350.05,238.2787 349.7383,238.6226 349.3944,238.9343 349.0215,239.2109 348.6234,239.4495 348.2038,239.648 347.7667,239.8043 347.3165,239.9171 346.8573,239.9852 346.3937,240.008 345.9301,239.9852 345.4709,239.9171 345.0207,239.8043 344.5836,239.648 344.164,239.4495 343.7659,239.2109 343.393,238.9343 343.0491,238.6226 342.7374,238.2787 342.4609,237.9059 342.2222,237.5077 342.0238,237.0881 341.8674,236.6511"/>
    <polygon points="349.3944,252.027 349.7383,251.7153 350.05,251.3714 350.3265,250.9985 350.5652,250.6004 350.7636,250.1808 350.92,249.7437 351.0328,249.2935 351.1009,248.8343 351.1237,248.3707 351.1009,247.9071 351.0328,247.4479 350.92,246.9977 350.7636,246.5606 350.5652,246.141 350.3265,245.7429 350.05,245.37 349.7383,245.0261 349.3944,244.7144 349.0215,244.4379 348.6234,244.1992 348.2038,244.0008 347.7667,243.8444 347.3165,243.7316 346.8573,243.6635 346.3937,243.6407 345.9301,243.6635 345.4709,243.7316 345.0207,243.8444 344.5836,244.0008 344.164,244.1992 343.7659,244.4379 343.393,244.7144 343.0491,245.0261 342.7374,245.37 342.4609,245.7429 342.2222,246.141 342.0238,246.5606 341.8674,246.9977 341.7546,247.4479 341.6865,247.9071 341.6637,248.3707 341.6865,248.8343 341.7546,249.2935 341.8674,249.7437 342.0238,250.1808 342.2222,250.6004 342.4609,250.9985 342.7374,251.3714 343.0491,251.7153 343.393,252.027 343.7659,252.3035 344.164,252.5422 344.5836,252.7406 345.0207,252.897 345.4709,253.0098 345.9301,253.0779 346.3937,253.1007 346.8573,253.0779 347.3165,253.0098 347.7667,252.897 348.2038,252.7406 348.6234,252.5422 349.0215,252.3035"/>
    <polygon points="335.5187,246.5316 335.0551,246.5543 334.5915,246.5316 334.1323,246.4634 333.6821,246.3507 333.245,246.1943 332.8254,245.9958 332.4273,245.7572 332.0545,245.4807 331.7105,245.169 331.3988,244.825 331.1223,244.4522 330.8837,244.0541 330.6852,243.6344 330.5288,243.1974 330.416,242.7471 330.3479,242.288 330.3251,241.8244 330.3479,241.3607 330.416,240.9016 330.5288,240.4513 330.6852,240.0143 330.8837,239.5947 331.1223,239.1965 331.3988,238.8237 331.7105,238.4798 332.0545,238.168 332.4273,237.8915 332.8254,237.6529 333.245,237.4544 333.6821,237.2981 334.1323,237.1853 334.5915,237.1172 335.0551,237.0944 335.5187,237.1172 335.9779,237.1853 336.4282,237.2981 336.8652,237.4544 337.2848,237.6529 337.683,237.8915 338.0558,238.168 338.3997,238.4798 338.7114,238.8237 338.9879,239.1965 339.2266,239.5947 339.425,240.0143 339.5814,240.4513 339.6942,240.9016 339.7623,241.3607 339.7851,241.8244 339.7623,242.288 339.6942,242.7471 339.5814,243.1974 339.425,243.6344 339.2266,244.0541 338.9879,244.4522 338.7114,244.825 338.3997,245.169 338.0558,245.4807 337.683,245.7572 337.2848,245.9958 336.8652,246.1943 336.4282,246.3507 335.9779,246.4634"/>
    <polygon points="325.0896,256.9371 325.5266,257.0934 325.9462,257.2919 326.3444,257.5305 326.7172,257.807 327.0611,258.1188 327.3729,258.4627 327.6494,258.8355 327.888,259.2337 328.0865,259.6533 328.2428,260.0903 328.3556,260.5406 328.4237,260.9997 328.4465,261.4634 328.4237,261.927 328.3556,262.3861 328.2428,262.8364 328.0865,263.2734 327.888,263.6931 327.6494,264.0912 327.3729,264.464 327.0611,264.808 326.7172,265.1197 326.3444,265.3962 325.9462,265.6348 325.5266,265.8333 325.0896,265.9897 324.6393,266.1024 324.1802,266.1706 323.7165,266.1933 323.2529,266.1706 322.7938,266.1024 322.3435,265.9897 321.9065,265.8333 321.4868,265.6348 321.0887,265.3962 320.7159,265.1197 320.3719,264.808 320.0602,264.464 319.7837,264.0912 319.5451,263.6931 319.3466,263.2734 319.1902,262.8364 319.0774,262.3861 319.0093,261.927 318.9866,261.4634 319.0093,260.9997 319.0774,260.5406 319.1902,260.0903 319.3466,259.6533 319.5451,259.2337 319.7837,258.8355 320.0602,258.4627 320.3719,258.1188 320.7159,257.807 321.0887,257.5305 321.4868,257.2919 321.9065,257.0934 322.3435,256.9371 322.7938,256.8243 323.2529,256.7562 323.7165,256.7334 324.1802,256.7562 324.6393,256.8243"/>
    <polygon points="300.5036,265.335 301.5456,265.7078 302.619,265.9767 303.7136,266.139 304.8189,266.1933 305.9242,266.139 307.0188,265.9767 308.0922,265.7078 309.1342,265.335 310.1345,264.8618 311.0837,264.2929 311.9725,263.6337 312.7925,262.8906 313.5356,262.0706 314.1948,261.1818 314.7637,260.2326 315.2368,259.2323 315.6097,258.1904 315.8785,257.1169 316.0409,256.0223 316.0952,254.917 316.0409,253.8118 315.8785,252.7171 315.6097,251.6437 315.2368,250.6018 314.7637,249.6014 314.1948,248.6522 313.5356,247.7634 312.7925,246.9435 311.9725,246.2003 311.0837,245.5411 310.1345,244.9722 309.1342,244.4991 308.0922,244.1263 307.0188,243.8574 305.9242,243.695 304.8189,243.6407 303.7136,243.695 302.619,243.8574 301.5456,244.1263 300.5036,244.4991 299.5033,244.9722 298.5541,245.5411 297.6653,246.2003 296.8453,246.9435 296.1022,247.7634 295.443,248.6522 294.8741,249.6014 294.4009,250.6018 294.0281,251.6437 293.7593,252.7171 293.5969,253.8118 293.5426,254.917 293.5969,256.0223 293.7593,257.1169 294.0281,258.1904 294.4009,259.2323 294.8741,260.2326 295.443,261.1818 296.1022,262.0706 296.8453,262.8906 297.6653,263.6337 298.5541,264.2929 299.5033,264.8618"/>
    <polygon points="296.6694,272.7459 296.5131,273.183 296.4003,273.6333 296.3322,274.0924 296.3094,274.556 296.3322,275.0196 296.4003,275.4788 296.5131,275.9291 296.6694,276.3661 296.8679,276.7857 297.1065,277.1839 297.3831,277.5567 297.6948,277.9006 298.0387,278.2123 298.4115,278.4889 298.8097,278.7275 299.2293,278.926 299.6663,279.0823 300.1166,279.1951 300.5758,279.2632 301.0394,279.286 301.503,279.2632 301.9621,279.1951 302.4124,279.0823 302.8495,278.926 303.2691,278.7275 303.6672,278.4889 304.04,278.2123 304.384,277.9006 304.6957,277.5567 304.9722,277.1839 305.2108,276.7857 305.4093,276.3661 305.5657,275.9291 305.6785,275.4788 305.7466,275.0196 305.7693,274.556 305.7466,274.0924 305.6785,273.6333 305.5657,273.183 305.4093,272.7459 305.2108,272.3263 304.9722,271.9282 304.6957,271.5554 304.384,271.2114 304.04,270.8997 303.6672,270.6232 303.2691,270.3846 302.8495,270.1861 302.4124,270.0297 301.9621,269.9169 301.503,269.8488 301.0394,269.8261 300.5758,269.8488 300.1166,269.9169 299.6663,270.0297 299.2293,270.1861 298.8097,270.3846 298.4115,270.6232 298.0387,270.8997 297.6948,271.2114 297.3831,271.5554 297.1065,271.9282 296.8679,272.3263"/>
    <polygon points="273.8359,289.0217 273.9923,289.4588 274.1907,289.8784 274.4294,290.2765 274.7059,290.6494 275.0176,290.9933 275.3615,291.305 275.7344,291.5815 276.1325,291.8202 276.5521,292.0186 276.9892,292.175 277.4394,292.2878 277.8986,292.3559 278.3622,292.3787 278.8258,292.3559 279.285,292.2878 279.7352,292.175 280.1723,292.0186 280.5919,291.8202 280.99,291.5815 281.3629,291.305 281.7068,290.9933 282.0185,290.6494 282.295,290.2765 282.5337,289.8784 282.7321,289.4588 282.8885,289.0217 283.0013,288.5715 283.0694,288.1123 283.0922,287.6487 283.0694,287.1851 283.0013,286.7259 282.8885,286.2757 282.7321,285.8386 282.5337,285.419 282.295,285.0209 282.0185,284.648 281.7068,284.3041 281.3629,283.9924 280.99,283.7159 280.5919,283.4772 280.1723,283.2788 279.7352,283.1224 279.285,283.0096 278.8258,282.9415 278.3622,282.9187 277.8986,282.9415 277.4394,283.0096 276.9892,283.1224 276.5521,283.2788 276.1325,283.4772 275.7344,283.7159 275.3615,283.9924 275.0176,284.3041 274.7059,284.648 274.4294,285.0209 274.1907,285.419 273.9923,285.8386 273.8359,286.2757 273.7231,286.7259 273.655,287.1851 273.6322,287.6487 273.655,288.1123 273.7231,288.5715"/>
    <polygon points="239.6393,319.9167 239.7074,319.4576 239.8202,319.0073 239.9765,318.5703 240.175,318.1507 240.4136,317.7525 240.6901,317.3797 241.0019,317.0358 241.3458,316.724 241.7186,316.4475 242.1168,316.2089 242.5364,316.0104 242.9734,315.8541 243.4237,315.7413 243.8828,315.6732 244.3465,315.6504 244.8101,315.6732 245.2692,315.7413 245.7195,315.8541 246.1565,316.0104 246.5762,316.2089 246.9743,316.4475 247.3471,316.724 247.6911,317.0358 248.0028,317.3797 248.2793,317.7525 248.5179,318.1507 248.7164,318.5703 248.8728,319.0073 248.9855,319.4576 249.0537,319.9167 249.0764,320.3804 249.0537,320.844 248.9855,321.3031 248.8728,321.7534 248.7164,322.1904 248.5179,322.6101 248.2793,323.0082 248.0028,323.381 247.6911,323.725 247.3471,324.0367 246.9743,324.3132 246.5762,324.5518 246.1565,324.7503 245.7195,324.9067 245.2692,325.0195 244.8101,325.0876 244.3465,325.1103 243.8828,325.0876 243.4237,325.0195 242.9734,324.9067 242.5364,324.7503 242.1168,324.5518 241.7186,324.3132 241.3458,324.0367 241.0019,323.725 240.6901,323.381 240.4136,323.0082 240.175,322.6101 239.9765,322.1904 239.8202,321.7534 239.7074,321.3031 239.6393,320.844 239.6165,320.3804"/>
    <polygon points="233.9306,318.4731 233.4715,318.5412 233.0079,318.564 232.5443,318.5412 232.0851,318.4731 231.6348,318.3603 231.1978,318.204 230.7782,318.0055 230.38,317.7669 230.0072,317.4903 229.6633,317.1786 229.3516,316.8347 229.075,316.4619 228.8364,316.0637 228.6379,315.6441 228.4816,315.2071 228.3688,314.7568 228.3007,314.2976 228.2779,313.834 228.3007,313.3704 228.3688,312.9113 228.4816,312.461 228.6379,312.0239 228.8364,311.6043 229.075,311.2062 229.3516,310.8334 229.6633,310.4894 230.0072,310.1777 230.38,309.9012 230.7782,309.6626 231.1978,309.4641 231.6348,309.3077 232.0851,309.1949 232.5443,309.1268 233.0079,309.1041 233.4715,309.1268 233.9306,309.1949 234.3809,309.3077 234.818,309.4641 235.2376,309.6626 235.6357,309.9012 236.0085,310.1777 236.3525,310.4894 236.6642,310.8334 236.9407,311.2062 237.1793,311.6043 237.3778,312.0239 237.5342,312.461 237.647,312.9113 237.7151,313.3704 237.7378,313.834 237.7151,314.2976 237.647,314.7568 237.5342,315.2071 237.3778,315.6441 237.1793,316.0637 236.9407,316.4619 236.6642,316.8347 236.3525,317.1786 236.0085,317.4903 235.6357,317.7669 235.2376,318.0055 234.818,318.204 234.3809,318.3603"/>
    <polygon points="233.5141,304.9858 234.5875,305.2547 235.6821,305.417 236.7874,305.4713 237.8927,305.417 238.9873,305.2547 240.0607,304.9858 241.1027,304.613 242.103,304.1398 243.0522,303.5709 243.941,302.9117 244.761,302.1686 245.5041,301.3486 246.1633,300.4598 246.7322,299.5106 247.2054,298.5103 247.5782,297.4684 247.847,296.3949 248.0094,295.3003 248.0637,294.195 248.0094,293.0898 247.847,291.9951 247.5782,290.9217 247.2054,289.8798 246.7322,288.8794 246.1633,287.9302 245.5041,287.0414 244.761,286.2215 243.941,285.4783 243.0522,284.8191 242.103,284.2502 241.1027,283.7771 240.0607,283.4043 238.9873,283.1354 237.8927,282.973 236.7874,282.9187 235.6821,282.973 234.5875,283.1354 233.5141,283.4043 232.4721,283.7771 231.4718,284.2502 230.5226,284.8191 229.6338,285.4783 228.8138,286.2215 228.0707,287.0414 227.4115,287.9302 226.8426,288.8794 226.3695,289.8798 225.9966,290.9217 225.7278,291.9951 225.5654,293.0898 225.5111,294.195 225.5654,295.3003 225.7278,296.3949 225.9966,297.4684 226.3695,298.5103 226.8426,299.5106 227.4115,300.4598 228.0707,301.3486 228.8138,302.1686 229.6338,302.9117 230.5226,303.5709 231.4718,304.1398 232.4721,304.613"/>
    <polygon points="226.0392,309.0978 226.1956,308.6607 226.3084,308.2105 226.3765,307.7513 226.3993,307.2877 226.3765,306.8241 226.3084,306.3649 226.1956,305.9147 226.0392,305.4776 225.8408,305.058 225.6021,304.6599 225.3256,304.287 225.0139,303.9431 224.67,303.6314 224.2971,303.3549 223.899,303.1162 223.4794,302.9178 223.0423,302.7614 222.5921,302.6486 222.1329,302.5805 221.6693,302.5577 221.2057,302.5805 220.7465,302.6486 220.2963,302.7614 219.8592,302.9178 219.4396,303.1162 219.0415,303.3549 218.6686,303.6314 218.3247,303.9431 218.013,304.287 217.7365,304.6599 217.4978,305.058 217.2994,305.4776 217.143,305.9147 217.0302,306.3649 216.9621,306.8241 216.9393,307.2877 216.9621,307.7513 217.0302,308.2105 217.143,308.6607 217.2994,309.0978 217.4978,309.5174 217.7365,309.9155 218.013,310.2884 218.3247,310.6323 218.6686,310.944 219.0415,311.2205 219.4396,311.4592 219.8592,311.6576 220.2963,311.814 220.7465,311.9268 221.2057,311.9949 221.6693,312.0177 222.1329,311.9949 222.5921,311.9268 223.0423,311.814 223.4794,311.6576 223.899,311.4592 224.2971,311.2205 224.67,310.944 225.0139,310.6323 225.3256,310.2884 225.6021,309.9155 225.8408,309.5174"/>
    <polygon points="193.633,305.2547 194.7064,304.9858 195.7483,304.613 196.7487,304.1398 197.6979,303.5709 198.5867,302.9117 199.4066,302.1686 200.1498,301.3486 200.809,300.4598 201.3779,299.5106 201.851,298.5103 202.2238,297.4684 202.4927,296.3949 202.6551,295.3003 202.7094,294.195 202.6551,293.0898 202.4927,291.9951 202.2238,290.9217 201.851,289.8798 201.3779,288.8794 200.809,287.9302 200.1498,287.0414 199.4066,286.2215 198.5867,285.4783 197.6979,284.8191 196.7487,284.2502 195.7483,283.7771 194.7064,283.4043 193.633,283.1354 192.5383,282.973 191.4331,282.9187 190.3278,282.973 189.2332,283.1354 188.1597,283.4043 187.1178,283.7771 186.1175,284.2502 185.1683,284.8191 184.2795,285.4783 183.4595,286.2215 182.7164,287.0414 182.0572,287.9302 181.4883,288.8794 181.0151,289.8798 180.6423,290.9217 180.3734,291.9951 180.2111,293.0898 180.1568,294.195 180.2111,295.3003 180.3734,296.3949 180.6423,297.4684 181.0151,298.5103 181.4883,299.5106 182.0572,300.4598 182.7164,301.3486 183.4595,302.1686 184.2795,302.9117 185.1683,303.5709 186.1175,304.1398 187.1178,304.613 188.1597,304.9858 189.2332,305.2547 190.3278,305.417 191.4331,305.4713 192.5383,305.417"/>
    <polygon points="185.0257,330.8595 185.4238,331.0982 185.8435,331.2966 186.2805,331.453 186.7308,331.5658 187.1899,331.6339 187.6535,331.6567 188.1172,331.6339 188.5763,331.5658 189.0266,331.453 189.4636,331.2966 189.8832,331.0982 190.2814,330.8595 190.6542,330.583 190.9981,330.2713 191.3099,329.9274 191.5864,329.5545 191.825,329.1564 192.0235,328.7368 192.1798,328.2997 192.2926,327.8495 192.3607,327.3903 192.3835,326.9267 192.3607,326.4631 192.2926,326.0039 192.1798,325.5537 192.0235,325.1166 191.825,324.697 191.5864,324.2989 191.3099,323.926 190.9981,323.5821 190.6542,323.2704 190.2814,322.9939 189.8832,322.7552 189.4636,322.5568 189.0266,322.4004 188.5763,322.2876 188.1172,322.2195 187.6535,322.1967 187.1899,322.2195 186.7308,322.2876 186.2805,322.4004 185.8435,322.5568 185.4238,322.7552 185.0257,322.9939 184.6529,323.2704 184.3089,323.5821 183.9972,323.926 183.7207,324.2989 183.4821,324.697 183.2836,325.1166 183.1272,325.5537 183.0145,326.0039 182.9463,326.4631 182.9236,326.9267 182.9463,327.3903 183.0145,327.8495 183.1272,328.2997 183.2836,328.7368 183.4821,329.1564 183.7207,329.5545 183.9972,329.9274 184.3089,330.2713 184.6529,330.583"/>
    <polygon points="184.6529,336.363 184.3089,336.6748 183.9972,337.0187 183.7207,337.3915 183.4821,337.7897 183.2836,338.2093 183.1272,338.6463 183.0145,339.0966 182.9463,339.5557 182.9236,340.0194 182.9463,340.483 183.0145,340.9421 183.1272,341.3924 183.2836,341.8294 183.4821,342.2491 183.7207,342.6472 183.9972,343.02 184.3089,343.364 184.6529,343.6757 185.0257,343.9522 185.4238,344.1908 185.8435,344.3893 186.2805,344.5457 186.7308,344.6585 187.1899,344.7266 187.6535,344.7493 188.1172,344.7266 188.5763,344.6585 189.0266,344.5457 189.4636,344.3893 189.8832,344.1908 190.2814,343.9522 190.6542,343.6757 190.9981,343.364 191.3099,343.02 191.5864,342.6472 191.825,342.2491 192.0235,341.8294 192.1798,341.3924 192.2926,340.9421 192.3607,340.483 192.3835,340.0194 192.3607,339.5557 192.2926,339.0966 192.1798,338.6463 192.0235,338.2093 191.825,337.7897 191.5864,337.3915 191.3099,337.0187 190.9981,336.6748 190.6542,336.363 190.2814,336.0865 189.8832,335.8479 189.4636,335.6494 189.0266,335.4931 188.5763,335.3803 188.1172,335.3122 187.6535,335.2894 187.1899,335.3122 186.7308,335.3803 186.2805,335.4931 185.8435,335.6494 185.4238,335.8479 185.0257,336.0865"/>
    <polygon points="169.8612,322.251 168.7559,322.1967 167.6506,322.251 166.556,322.4134 165.4826,322.6823 164.4406,323.0551 163.4403,323.5282 162.4911,324.0971 161.6023,324.7563 160.7824,325.4995 160.0392,326.3194 159.38,327.2083 158.8111,328.1574 158.338,329.1578 157.9652,330.1997 157.6963,331.2731 157.5339,332.3678 157.4796,333.473 157.5339,334.5783 157.6963,335.6729 157.9652,336.7464 158.338,337.7883 158.8111,338.7886 159.38,339.7378 160.0392,340.6266 160.7824,341.4466 161.6023,342.1897 162.4911,342.8489 163.4403,343.4178 164.4406,343.891 165.4826,344.2638 166.556,344.5327 167.6506,344.695 168.7559,344.7493 169.8612,344.695 170.9558,344.5327 172.0292,344.2638 173.0712,343.891 174.0715,343.4178 175.0207,342.8489 175.9095,342.1897 176.7295,341.4466 177.4726,340.6266 178.1318,339.7378 178.7007,338.7886 179.1739,337.7883 179.5467,336.7464 179.8155,335.6729 179.9779,334.5783 180.0322,333.473 179.9779,332.3678 179.8155,331.2731 179.5467,330.1997 179.1739,329.1578 178.7007,328.1574 178.1318,327.2083 177.4726,326.3194 176.7295,325.4995 175.9095,324.7563 175.0207,324.0971 174.0715,323.5282 173.0712,323.0551 172.0292,322.6823 170.9558,322.4134"/>
    <polygon points="162.7467,357.2835 162.3485,357.0449 161.9757,356.7684 161.6318,356.4566 161.3201,356.1127 161.0435,355.7399 160.8049,355.3417 160.6065,354.9221 160.4501,354.4851 160.3373,354.0348 160.2692,353.5757 160.2464,353.112 160.2692,352.6484 160.3373,352.1893 160.4501,351.739 160.6065,351.302 160.8049,350.8823 161.0435,350.4842 161.3201,350.1114 161.6318,349.7674 161.9757,349.4557 162.3485,349.1792 162.7467,348.9406 163.1663,348.7421 163.6033,348.5857 164.0536,348.4729 164.5128,348.4048 164.9764,348.3821 165.44,348.4048 165.8991,348.4729 166.3494,348.5857 166.7865,348.7421 167.2061,348.9406 167.6042,349.1792 167.977,349.4557 168.321,349.7674 168.6327,350.1114 168.9092,350.4842 169.1478,350.8823 169.3463,351.302 169.5027,351.739 169.6155,352.1893 169.6836,352.6484 169.7064,353.112 169.6836,353.5757 169.6155,354.0348 169.5027,354.4851 169.3463,354.9221 169.1478,355.3417 168.9092,355.7399 168.6327,356.1127 168.321,356.4566 167.977,356.7684 167.6042,357.0449 167.2061,357.2835 166.7865,357.482 166.3494,357.6383 165.8991,357.7511 165.44,357.8192 164.9764,357.842 164.5128,357.8192 164.0536,357.7511 163.6033,357.6383 163.1663,357.482"/>
    <polygon points="147.0064,366.6683 146.9383,367.1275 146.8255,367.5777 146.6691,368.0148 146.4707,368.4344 146.232,368.8325 145.9555,369.2054 145.6438,369.5493 145.2999,369.861 144.927,370.1375 144.5289,370.3762 144.1093,370.5746 143.6723,370.731 143.222,370.8438 142.7628,370.9119 142.2992,370.9347 141.8356,370.9119 141.3764,370.8438 140.9262,370.731 140.4891,370.5746 140.0695,370.3762 139.6714,370.1375 139.2985,369.861 138.9546,369.5493 138.6429,369.2054 138.3664,368.8325 138.1277,368.4344 137.9293,368.0148 137.7729,367.5777 137.6601,367.1275 137.592,366.6683 137.5692,366.2047 137.592,365.7411 137.6601,365.2819 137.7729,364.8317 137.9293,364.3946 138.1277,363.975 138.3664,363.5769 138.6429,363.204 138.9546,362.8601 139.2985,362.5484 139.6714,362.2719 140.0695,362.0332 140.4891,361.8348 140.9262,361.6784 141.3764,361.5656 141.8356,361.4975 142.2992,361.4747 142.7628,361.4975 143.222,361.5656 143.6723,361.6784 144.1093,361.8348 144.5289,362.0332 144.927,362.2719 145.2999,362.5484 145.6438,362.8601 145.9555,363.204 146.232,363.5769 146.4707,363.975 146.6691,364.3946 146.8255,364.8317 146.9383,365.2819 147.0064,365.7411 147.0292,366.2047"/>
    <polygon points="134.3052,356.3138 134.6169,356.6577 134.8935,357.0305 135.1321,357.4287 135.3306,357.8483 135.4869,358.2853 135.5997,358.7356 135.6678,359.1947 135.6906,359.6584 135.6678,360.122 135.5997,360.5811 135.4869,361.0314 135.3306,361.4684 135.1321,361.8881 134.8935,362.2862 134.6169,362.659 134.3052,363.003 133.9613,363.3147 133.5885,363.5912 133.1903,363.8298 132.7707,364.0283 132.3337,364.1847 131.8834,364.2975 131.4242,364.3656 130.9606,364.3883 130.497,364.3656 130.0379,364.2975 129.5876,364.1847 129.1505,364.0283 128.7309,363.8298 128.3328,363.5912 127.96,363.3147 127.616,363.003 127.3043,362.659 127.0278,362.2862 126.7892,361.8881 126.5907,361.4684 126.4343,361.0314 126.3215,360.5811 126.2534,360.122 126.2307,359.6584 126.2534,359.1947 126.3215,358.7356 126.4343,358.2853 126.5907,357.8483 126.7892,357.4287 127.0278,357.0305 127.3043,356.6577 127.616,356.3138 127.96,356.002 128.3328,355.7255 128.7309,355.4869 129.1505,355.2884 129.5876,355.1321 130.0379,355.0193 130.497,354.9512 130.9606,354.9284 131.4242,354.9512 131.8834,355.0193 132.3337,355.1321 132.7707,355.2884 133.1903,355.4869 133.5885,355.7255 133.9613,356.002"/>
    <polygon points="109.6565,351.092 109.2062,351.2048 108.7471,351.2729 108.2835,351.2957 107.8198,351.2729 107.3607,351.2048 106.9104,351.092 106.4734,350.9356 106.0538,350.7372 105.6556,350.4985 105.2828,350.222 104.9389,349.9103 104.6271,349.5664 104.3506,349.1935 104.112,348.7954 103.9135,348.3758 103.7572,347.9387 103.6444,347.4885 103.5763,347.0293 103.5535,346.5657 103.5763,346.1021 103.6444,345.6429 103.7572,345.1927 103.9135,344.7556 104.112,344.336 104.3506,343.9379 104.6271,343.565 104.9389,343.2211 105.2828,342.9094 105.6556,342.6329 106.0538,342.3942 106.4734,342.1958 106.9104,342.0394 107.3607,341.9266 107.8198,341.8585 108.2835,341.8357 108.7471,341.8585 109.2062,341.9266 109.6565,342.0394 110.0935,342.1958 110.5132,342.3942 110.9113,342.6329 111.2841,342.9094 111.6281,343.2211 111.9398,343.565 112.2163,343.9379 112.4549,344.336 112.6534,344.7556 112.8098,345.1927 112.9226,345.6429 112.9907,346.1021 113.0134,346.5657 112.9907,347.0293 112.9226,347.4885 112.8098,347.9387 112.6534,348.3758 112.4549,348.7954 112.2163,349.1935 111.9398,349.5664 111.6281,349.9103 111.2841,350.222 110.9113,350.4985 110.5132,350.7372 110.0935,350.9356"/>
    <polygon points="119.1584,344.7266 118.6993,344.6585 118.249,344.5457 117.812,344.3893 117.3924,344.1908 116.9942,343.9522 116.6214,343.6757 116.2775,343.364 115.9657,343.02 115.6892,342.6472 115.4506,342.2491 115.2521,341.8294 115.0957,341.3924 114.983,340.9421 114.9149,340.483 114.8921,340.0194 114.9149,339.5557 114.983,339.0966 115.0957,338.6463 115.2521,338.2093 115.4506,337.7897 115.6892,337.3915 115.9657,337.0187 116.2775,336.6748 116.6214,336.363 116.9942,336.0865 117.3924,335.8479 117.812,335.6494 118.249,335.4931 118.6993,335.3803 119.1584,335.3122 119.622,335.2894 120.0857,335.3122 120.5448,335.3803 120.9951,335.4931 121.4321,335.6494 121.8517,335.8479 122.2499,336.0865 122.6227,336.363 122.9666,336.6748 123.2784,337.0187 123.5549,337.3915 123.7935,337.7897 123.992,338.2093 124.1483,338.6463 124.2611,339.0966 124.3292,339.5557 124.352,340.0194 124.3292,340.483 124.2611,340.9421 124.1483,341.3924 123.992,341.8294 123.7935,342.2491 123.5549,342.6472 123.2784,343.02 122.9666,343.364 122.6227,343.6757 122.2499,343.9522 121.8517,344.1908 121.4321,344.3893 120.9951,344.5457 120.5448,344.6585 120.0857,344.7266 119.622,344.7493"/>
    <polygon points="143.8788,335.5061 142.8054,335.7749 141.7635,336.1478 140.7631,336.6209 139.814,337.1898 138.9251,337.849 138.1052,338.5921 137.362,339.4121 136.7028,340.3009 136.1339,341.2501 135.6608,342.2504 135.288,343.2924 135.0191,344.3658 134.8567,345.4604 134.8024,346.5657 134.8567,347.671 135.0191,348.7656 135.288,349.839 135.6608,350.881 136.1339,351.8813 136.7028,352.8305 137.362,353.7193 138.1052,354.5393 138.9251,355.2824 139.814,355.9416 140.7631,356.5105 141.7635,356.9836 142.8054,357.3565 143.8788,357.6253 144.9735,357.7877 146.0787,357.842 147.184,357.7877 148.2786,357.6253 149.3521,357.3565 150.394,356.9836 151.3944,356.5105 152.3435,355.9416 153.2324,355.2824 154.0523,354.5393 154.7954,353.7193 155.4546,352.8305 156.0236,351.8813 156.4967,350.881 156.8695,349.839 157.1384,348.7656 157.3007,347.671 157.355,346.5657 157.3007,345.4604 157.1384,344.3658 156.8695,343.2924 156.4967,342.2504 156.0236,341.2501 155.4546,340.3009 154.7954,339.4121 154.0523,338.5921 153.2324,337.849 152.3435,337.1898 151.3944,336.6209 150.394,336.1478 149.3521,335.7749 148.2786,335.5061 147.184,335.3437 146.0787,335.2894 144.9735,335.3437"/>
    <polygon points="139.814,311.0045 140.7631,310.4356 141.7635,309.9624 142.8054,309.5896 143.8788,309.3207 144.9735,309.1584 146.0787,309.1041 147.184,309.1584 148.2786,309.3207 149.3521,309.5896 150.394,309.9624 151.3944,310.4356 152.3435,311.0045 153.2324,311.6637 154.0523,312.4068 154.7954,313.2268 155.4546,314.1156 156.0236,315.0648 156.4967,316.0651 156.8695,317.107 157.1384,318.1805 157.3007,319.2751 157.355,320.3804 157.3007,321.4856 157.1384,322.5803 156.8695,323.6537 156.4967,324.6956 156.0236,325.696 155.4546,326.6451 154.7954,327.534 154.0523,328.3539 153.2324,329.0971 152.3435,329.7563 151.3944,330.3252 150.394,330.7983 149.3521,331.1711 148.2786,331.44 147.184,331.6024 146.0787,331.6567 144.9735,331.6024 143.8788,331.44 142.8054,331.1711 141.7635,330.7983 140.7631,330.3252 139.814,329.7563 138.9251,329.0971 138.1052,328.3539 137.362,327.534 136.7028,326.6451 136.1339,325.696 135.6608,324.6956 135.288,323.6537 135.0191,322.5803 134.8567,321.4856 134.8024,320.3804 134.8567,319.2751 135.0191,318.1805 135.288,317.107 135.6608,316.0651 136.1339,315.0648 136.7028,314.1156 137.362,313.2268 138.1052,312.4068 138.9251,311.6637"/>
    <polygon points="131.3751,299.3141 132.1183,300.1341 132.7775,301.0229 133.3464,301.9721 133.8195,302.9724 134.1923,304.0144 134.4612,305.0878 134.6236,306.1824 134.6779,307.2877 134.6236,308.393 134.4612,309.4876 134.1923,310.561 133.8195,311.603 133.3464,312.6033 132.7775,313.5525 132.1183,314.4413 131.3751,315.2612 130.5552,316.0044 129.6664,316.6636 128.7172,317.2325 127.7168,317.7056 126.6749,318.0784 125.6015,318.3473 124.5068,318.5097 123.4016,318.564 122.2963,318.5097 121.2017,318.3473 120.1282,318.0784 119.0863,317.7056 118.086,317.2325 117.1368,316.6636 116.248,316.0044 115.428,315.2612 114.6849,314.4413 114.0257,313.5525 113.4568,312.6033 112.9836,311.603 112.6108,310.561 112.3419,309.4876 112.1796,308.393 112.1253,307.2877 112.1796,306.1824 112.3419,305.0878 112.6108,304.0144 112.9836,302.9724 113.4568,301.9721 114.0257,301.0229 114.6849,300.1341 115.428,299.3141 116.248,298.571 117.1368,297.9118 118.086,297.3429 119.0863,296.8697 120.1282,296.4969 121.2017,296.2281 122.2963,296.0657 123.4016,296.0114 124.5068,296.0657 125.6015,296.2281 126.6749,296.4969 127.7168,296.8697 128.7172,297.3429 129.6664,297.9118 130.5552,298.571"/>
    <polygon points="120.0857,322.2195 119.622,322.1967 119.1584,322.2195 118.6993,322.2876 118.249,322.4004 117.812,322.5568 117.3924,322.7552 116.9942,322.9939 116.6214,323.2704 116.2775,323.5821 115.9657,323.926 115.6892,324.2989 115.4506,324.697 115.2521,325.1166 115.0957,325.5537 114.983,326.0039 114.9149,326.4631 114.8921,326.9267 114.9149,327.3903 114.983,327.8495 115.0957,328.2997 115.2521,328.7368 115.4506,329.1564 115.6892,329.5545 115.9657,329.9274 116.2775,330.2713 116.6214,330.583 116.9942,330.8595 117.3924,331.0982 117.812,331.2966 118.249,331.453 118.6993,331.5658 119.1584,331.6339 119.622,331.6567 120.0857,331.6339 120.5448,331.5658 120.9951,331.453 121.4321,331.2966 121.8517,331.0982 122.2499,330.8595 122.6227,330.583 122.9666,330.2713 123.2784,329.9274 123.5549,329.5545 123.7935,329.1564 123.992,328.7368 124.1483,328.2997 124.2611,327.8495 124.3292,327.3903 124.352,326.9267 124.3292,326.4631 124.2611,326.0039 124.1483,325.5537 123.992,325.1166 123.7935,324.697 123.5549,324.2989 123.2784,323.926 122.9666,323.5821 122.6227,323.2704 122.2499,322.9939 121.8517,322.7552 121.4321,322.5568 120.9951,322.4004 120.5448,322.2876"/>
    <polygon points="107.8198,315.6732 107.3607,315.7413 106.9104,315.8541 106.4734,316.0104 106.0538,316.2089 105.6556,316.4475 105.2828,316.724 104.9389,317.0358 104.6271,317.3797 104.3506,317.7525 104.112,318.1507 103.9135,318.5703 103.7572,319.0073 103.6444,319.4576 103.5763,319.9167 103.5535,320.3804 103.5763,320.844 103.6444,321.3031 103.7572,321.7534 103.9135,322.1904 104.112,322.6101 104.3506,323.0082 104.6271,323.381 104.9389,323.725 105.2828,324.0367 105.6556,324.3132 106.0538,324.5518 106.4734,324.7503 106.9104,324.9067 107.3607,325.0195 107.8198,325.0876 108.2835,325.1103 108.7471,325.0876 109.2062,325.0195 109.6565,324.9067 110.0935,324.7503 110.5132,324.5518 110.9113,324.3132 111.2841,324.0367 111.6281,323.725 111.9398,323.381 112.2163,323.0082 112.4549,322.6101 112.6534,322.1904 112.8098,321.7534 112.9226,321.3031 112.9907,320.844 113.0134,320.3804 112.9907,319.9167 112.9226,319.4576 112.8098,319.0073 112.6534,318.5703 112.4549,318.1507 112.2163,317.7525 111.9398,317.3797 111.6281,317.0358 111.2841,316.724 110.9113,316.4475 110.5132,316.2089 110.0935,316.0104 109.6565,315.8541 109.2062,315.7413 108.7471,315.6732 108.2835,315.6504"/>
    <polygon points="82.6056,284.7587 82.2617,284.447 81.95,284.103 81.6735,283.7302 81.4348,283.3321 81.2364,282.9124 81.08,282.4754 80.9672,282.0251 80.8991,281.566 80.8763,281.1024 80.8991,280.6387 80.9672,280.1796 81.08,279.7293 81.2364,279.2923 81.4348,278.8727 81.6735,278.4745 81.95,278.1017 82.2617,277.7578 82.6056,277.446 82.9785,277.1695 83.3766,276.9309 83.7962,276.7324 84.2333,276.5761 84.6835,276.4633 85.1427,276.3952 85.6063,276.3724 86.0699,276.3952 86.5291,276.4633 86.9793,276.5761 87.4164,276.7324 87.836,276.9309 88.2341,277.1695 88.607,277.446 88.9509,277.7578 89.2626,278.1017 89.5391,278.4745 89.7778,278.8727 89.9762,279.2923 90.1326,279.7293 90.2454,280.1796 90.3135,280.6387 90.3363,281.1024 90.3135,281.566 90.2454,282.0251 90.1326,282.4754 89.9762,282.9124 89.7778,283.3321 89.5391,283.7302 89.2626,284.103 88.9509,284.447 88.607,284.7587 88.2341,285.0352 87.836,285.2738 87.4164,285.4723 86.9793,285.6287 86.5291,285.7414 86.0699,285.8096 85.6063,285.8323 85.1427,285.8096 84.6835,285.7414 84.2333,285.6287 83.7962,285.4723 83.3766,285.2738 82.9785,285.0352"/>
    <polygon points="109.4411,275.1633 108.698,275.9832 107.878,276.7264 106.9892,277.3856 106.04,277.9545 105.0397,278.4276 103.9977,278.8004 102.9243,279.0693 101.8297,279.2317 100.7244,279.286 99.6191,279.2317 98.5245,279.0693 97.4511,278.8004 96.4092,278.4276 95.4088,277.9545 94.4596,277.3856 93.5708,276.7264 92.7509,275.9832 92.0077,275.1633 91.3485,274.2745 90.7796,273.3253 90.3065,272.325 89.9337,271.283 89.6648,270.2096 89.5024,269.115 89.4481,268.0097 89.5024,266.9044 89.6648,265.8098 89.9337,264.7364 90.3065,263.6944 90.7796,262.6941 91.3485,261.7449 92.0077,260.8561 92.7509,260.0361 93.5708,259.293 94.4596,258.6338 95.4088,258.0649 96.4092,257.5917 97.4511,257.2189 98.5245,256.9501 99.6191,256.7877 100.7244,256.7334 101.8297,256.7877 102.9243,256.9501 103.9977,257.2189 105.0397,257.5917 106.04,258.0649 106.9892,258.6338 107.878,259.293 108.698,260.0361 109.4411,260.8561 110.1003,261.7449 110.6692,262.6941 111.1424,263.6944 111.5152,264.7364 111.784,265.8098 111.9464,266.9044 112.0007,268.0097 111.9464,269.115 111.784,270.2096 111.5152,271.283 111.1424,272.325 110.6692,273.3253 110.1003,274.2745"/>
    <polygon points="116.248,246.2003 115.428,246.9435 114.6849,247.7634 114.0257,248.6522 113.4568,249.6014 112.9836,250.6018 112.6108,251.6437 112.3419,252.7171 112.1796,253.8118 112.1253,254.917 112.1796,256.0223 112.3419,257.1169 112.6108,258.1904 112.9836,259.2323 113.4568,260.2326 114.0257,261.1818 114.6849,262.0706 115.428,262.8906 116.248,263.6337 117.1368,264.2929 118.086,264.8618 119.0863,265.335 120.1282,265.7078 121.2017,265.9767 122.2963,266.139 123.4016,266.1933 124.5068,266.139 125.6015,265.9767 126.6749,265.7078 127.7168,265.335 128.7172,264.8618 129.6664,264.2929 130.5552,263.6337 131.3751,262.8906 132.1183,262.0706 132.7775,261.1818 133.3464,260.2326 133.8195,259.2323 134.1923,258.1904 134.4612,257.1169 134.6236,256.0223 134.6779,254.917 134.6236,253.8118 134.4612,252.7171 134.1923,251.6437 133.8195,250.6018 133.3464,249.6014 132.7775,248.6522 132.1183,247.7634 131.3751,246.9435 130.5552,246.2003 129.6664,245.5411 128.7172,244.9722 127.7168,244.4991 126.6749,244.1263 125.6015,243.8574 124.5068,243.695 123.4016,243.6407 122.2963,243.695 121.2017,243.8574 120.1282,244.1263 119.0863,244.4991 118.086,244.9722 117.1368,245.5411"/>
    <polygon points="120.5448,230.6389 120.0857,230.5708 119.622,230.5481 119.1584,230.5708 118.6993,230.6389 118.249,230.7517 117.812,230.9081 117.3924,231.1066 116.9942,231.3452 116.6214,231.6217 116.2775,231.9334 115.9657,232.2774 115.6892,232.6502 115.4506,233.0483 115.2521,233.4679 115.0957,233.905 114.983,234.3553 114.9149,234.8144 114.8921,235.278 114.9149,235.7416 114.983,236.2008 115.0957,236.6511 115.2521,237.0881 115.4506,237.5077 115.6892,237.9059 115.9657,238.2787 116.2775,238.6226 116.6214,238.9343 116.9942,239.2109 117.3924,239.4495 117.812,239.648 118.249,239.8043 118.6993,239.9171 119.1584,239.9852 119.622,240.008 120.0857,239.9852 120.5448,239.9171 120.9951,239.8043 121.4321,239.648 121.8517,239.4495 122.2499,239.2109 122.6227,238.9343 122.9666,238.6226 123.2784,238.2787 123.5549,237.9059 123.7935,237.5077 123.992,237.0881 124.1483,236.6511 124.2611,236.2008 124.3292,235.7416 124.352,235.278 124.3292,234.8144 124.2611,234.3553 124.1483,233.905 123.992,233.4679 123.7935,233.0483 123.5549,232.6502 123.2784,232.2774 122.9666,231.9334 122.6227,231.6217 122.2499,231.3452 121.8517,231.1066 121.4321,230.9081 120.9951,230.7517"/>
    <polygon points="127.616,218.9836 127.96,219.2953 128.3328,219.5719 128.7309,219.8105 129.1505,220.0089 129.5876,220.1653 130.0379,220.2781 130.497,220.3462 130.9606,220.369 131.4242,220.3462 131.8834,220.2781 132.3337,220.1653 132.7707,220.0089 133.1903,219.8105 133.5885,219.5719 133.9613,219.2953 134.3052,218.9836 134.6169,218.6397 134.8935,218.2669 135.1321,217.8687 135.3306,217.4491 135.4869,217.0121 135.5997,216.5618 135.6678,216.1026 135.6906,215.639 135.6678,215.1754 135.5997,214.7163 135.4869,214.266 135.3306,213.8289 135.1321,213.4093 134.8935,213.0112 134.6169,212.6384 134.3052,212.2944 133.9613,211.9827 133.5885,211.7062 133.1903,211.4676 132.7707,211.2691 132.3337,211.1127 131.8834,210.9999 131.4242,210.9318 130.9606,210.9091 130.497,210.9318 130.0379,210.9999 129.5876,211.1127 129.1505,211.2691 128.7309,211.4676 128.3328,211.7062 127.96,211.9827 127.616,212.2944 127.3043,212.6384 127.0278,213.0112 126.7892,213.4093 126.5907,213.8289 126.4343,214.266 126.3215,214.7163 126.2534,215.1754 126.2307,215.639 126.2534,216.1026 126.3215,216.5618 126.4343,217.0121 126.5907,217.4491 126.7892,217.8687 127.0278,218.2669 127.3043,218.6397"/>
    <polygon points="140.0695,218.0139 139.6714,218.2525 139.2985,218.529 138.9546,218.8408 138.6429,219.1847 138.3664,219.5575 138.1277,219.9557 137.9293,220.3753 137.7729,220.8123 137.6601,221.2626 137.592,221.7217 137.5692,222.1854 137.592,222.649 137.6601,223.1081 137.7729,223.5584 137.9293,223.9954 138.1277,224.4151 138.3664,224.8132 138.6429,225.186 138.9546,225.53 139.2985,225.8417 139.6714,226.1182 140.0695,226.3568 140.4891,226.5553 140.9262,226.7117 141.3764,226.8244 141.8356,226.8926 142.2992,226.9153 142.7628,226.8926 143.222,226.8244 143.6723,226.7117 144.1093,226.5553 144.5289,226.3568 144.927,226.1182 145.2999,225.8417 145.6438,225.53 145.9555,225.186 146.232,224.8132 146.4707,224.4151 146.6691,223.9954 146.8255,223.5584 146.9383,223.1081 147.0064,222.649 147.0292,222.1854 147.0064,221.7217 146.9383,221.2626 146.8255,220.8123 146.6691,220.3753 146.4707,219.9557 146.232,219.5575 145.9555,219.1847 145.6438,218.8408 145.2999,218.529 144.927,218.2525 144.5289,218.0139 144.1093,217.8154 143.6723,217.6591 143.222,217.5463 142.7628,217.4782 142.2992,217.4554 141.8356,217.4782 141.3764,217.5463 140.9262,217.6591 140.4891,217.8154"/>
    <polygon points="152.2648,220.1653 152.715,220.2781 153.1742,220.3462 153.6378,220.369 154.1014,220.3462 154.5606,220.2781 155.0108,220.1653 155.4479,220.0089 155.8675,219.8105 156.2656,219.5719 156.6385,219.2953 156.9824,218.9836 157.2941,218.6397 157.5706,218.2669 157.8093,217.8687 158.0077,217.4491 158.1641,217.0121 158.2769,216.5618 158.345,216.1026 158.3678,215.639 158.345,215.1754 158.2769,214.7163 158.1641,214.266 158.0077,213.8289 157.8093,213.4093 157.5706,213.0112 157.2941,212.6384 156.9824,212.2944 156.6385,211.9827 156.2656,211.7062 155.8675,211.4676 155.4479,211.2691 155.0108,211.1127 154.5606,210.9999 154.1014,210.9318 153.6378,210.9091 153.1742,210.9318 152.715,210.9999 152.2648,211.1127 151.8277,211.2691 151.4081,211.4676 151.01,211.7062 150.6371,211.9827 150.2932,212.2944 149.9815,212.6384 149.705,213.0112 149.4663,213.4093 149.2679,213.8289 149.1115,214.266 148.9987,214.7163 148.9306,215.1754 148.9078,215.639 148.9306,216.1026 148.9987,216.5618 149.1115,217.0121 149.2679,217.4491 149.4663,217.8687 149.705,218.2669 149.9815,218.6397 150.2932,218.9836 150.6371,219.2953 151.01,219.5719 151.4081,219.8105 151.8277,220.0089"/>
    <polygon points="162.4911,238.1076 163.4403,238.6765 164.4406,239.1496 165.4826,239.5224 166.556,239.7913 167.6506,239.9537 168.7559,240.008 169.8612,239.9537 170.9558,239.7913 172.0292,239.5224 173.0712,239.1496 174.0715,238.6765 175.0207,238.1076 175.9095,237.4484 176.7295,236.7052 177.4726,235.8853 178.1318,234.9965 178.7007,234.0473 179.1739,233.0469 179.5467,232.005 179.8155,230.9316 179.9779,229.837 180.0322,228.7317 179.9779,227.6264 179.8155,226.5318 179.5467,225.4584 179.1739,224.4164 178.7007,223.4161 178.1318,222.4669 177.4726,221.5781 176.7295,220.7581 175.9095,220.015 175.0207,219.3558 174.0715,218.7869 173.0712,218.3137 172.0292,217.9409 170.9558,217.6721 169.8612,217.5097 168.7559,217.4554 167.6506,217.5097 166.556,217.6721 165.4826,217.9409 164.4406,218.3137 163.4403,218.7869 162.4911,219.3558 161.6023,220.015 160.7824,220.7581 160.0392,221.5781 159.38,222.4669 158.8111,223.4161 158.338,224.4164 157.9652,225.4584 157.6963,226.5318 157.5339,227.6264 157.4796,228.7317 157.5339,229.837 157.6963,230.9316 157.9652,232.005 158.338,233.0469 158.8111,234.0473 159.38,234.9965 160.0392,235.8853 160.7824,236.7052 161.6023,237.4484"/>
    <polygon points="181.4883,210.3234 181.0151,211.3238 180.6423,212.3657 180.3734,213.4391 180.2111,214.5338 180.1568,215.639 180.2111,216.7443 180.3734,217.8389 180.6423,218.9124 181.0151,219.9543 181.4883,220.9546 182.0572,221.9038 182.7164,222.7926 183.4595,223.6126 184.2795,224.3557 185.1683,225.0149 186.1175,225.5838 187.1178,226.057 188.1597,226.4298 189.2332,226.6987 190.3278,226.861 191.4331,226.9153 192.5383,226.861 193.633,226.6987 194.7064,226.4298 195.7483,226.057 196.7487,225.5838 197.6979,225.0149 198.5867,224.3557 199.4066,223.6126 200.1498,222.7926 200.809,221.9038 201.3779,220.9546 201.851,219.9543 202.2238,218.9124 202.4927,217.8389 202.6551,216.7443 202.7094,215.639 202.6551,214.5338 202.4927,213.4391 202.2238,212.3657 201.851,211.3238 201.3779,210.3234 200.809,209.3742 200.1498,208.4854 199.4066,207.6655 198.5867,206.9223 197.6979,206.2631 196.7487,205.6942 195.7483,205.2211 194.7064,204.8483 193.633,204.5794 192.5383,204.417 191.4331,204.3627 190.3278,204.417 189.2332,204.5794 188.1597,204.8483 187.1178,205.2211 186.1175,205.6942 185.1683,206.2631 184.2795,206.9223 183.4595,207.6655 182.7164,208.4854 182.0572,209.3742"/>
    <polygon points="191.3099,192.9994 190.9981,192.6554 190.6542,192.3437 190.2814,192.0672 189.8832,191.8286 189.4636,191.6301 189.0266,191.4737 188.5763,191.3609 188.1172,191.2928 187.6535,191.2701 187.1899,191.2928 186.7308,191.3609 186.2805,191.4737 185.8435,191.6301 185.4238,191.8286 185.0257,192.0672 184.6529,192.3437 184.3089,192.6554 183.9972,192.9994 183.7207,193.3722 183.4821,193.7703 183.2836,194.1899 183.1272,194.627 183.0145,195.0773 182.9463,195.5364 182.9236,196.0 182.9463,196.4636 183.0145,196.9228 183.1272,197.3731 183.2836,197.8101 183.4821,198.2297 183.7207,198.6279 183.9972,199.0007 184.3089,199.3446 184.6529,199.6563 185.0257,199.9329 185.4238,200.1715 185.8435,200.3699 186.2805,200.5263 186.7308,200.6391 187.1899,200.7072 187.6535,200.73 188.1172,200.7072 188.5763,200.6391 189.0266,200.5263 189.4636,200.3699 189.8832,200.1715 190.2814,199.9329 190.6542,199.6563 190.9981,199.3446 191.3099,199.0007 191.5864,198.6279 191.825,198.2297 192.0235,197.8101 192.1798,197.3731 192.2926,196.9228 192.3607,196.4636 192.3835,196.0 192.3607,195.5364 192.2926,195.0773 192.1798,194.627 192.0235,194.1899 191.825,193.7703 191.5864,193.3722"/>
    <polygon points="226.8426,236.5087 227.4115,235.5596 228.0707,234.6707 228.8138,233.8508 229.6338,233.1077 230.5226,232.4485 231.4718,231.8795 232.4721,231.4064 233.5141,231.0336 234.5875,230.7647 235.6821,230.6024 236.7874,230.5481 237.8927,230.6024 238.9873,230.7647 240.0607,231.0336 241.1027,231.4064 242.103,231.8795 243.0522,232.4485 243.941,233.1077 244.761,233.8508 245.5041,234.6707 246.1633,235.5596 246.7322,236.5087 247.2054,237.5091 247.5782,238.551 247.847,239.6245 248.0094,240.7191 248.0637,241.8244 248.0094,242.9296 247.847,244.0243 247.5782,245.0977 247.2054,246.1396 246.7322,247.14 246.1633,248.0891 245.5041,248.978 244.761,249.7979 243.941,250.5411 243.0522,251.2003 242.103,251.7692 241.1027,252.2423 240.0607,252.6151 238.9873,252.884 237.8927,253.0464 236.7874,253.1007 235.6821,253.0464 234.5875,252.884 233.5141,252.6151 232.4721,252.2423 231.4718,251.7692 230.5226,251.2003 229.6338,250.5411 228.8138,249.7979 228.0707,248.978 227.4115,248.0891 226.8426,247.14 226.3695,246.1396 225.9966,245.0977 225.7278,244.0243 225.5654,242.9296 225.5111,241.8244 225.5654,240.7191 225.7278,239.6245 225.9966,238.551 226.3695,237.5091"/>
    <polygon points="235.6821,256.7877 236.7874,256.7334 237.8927,256.7877 238.9873,256.9501 240.0607,257.2189 241.1027,257.5917 242.103,258.0649 243.0522,258.6338 243.941,259.293 244.761,260.0361 245.5041,260.8561 246.1633,261.7449 246.7322,262.6941 247.2054,263.6944 247.5782,264.7364 247.847,265.8098 248.0094,266.9044 248.0637,268.0097 248.0094,269.115 247.847,270.2096 247.5782,271.283 247.2054,272.325 246.7322,273.3253 246.1633,274.2745 245.5041,275.1633 244.761,275.9832 243.941,276.7264 243.0522,277.3856 242.103,277.9545 241.1027,278.4276 240.0607,278.8004 238.9873,279.0693 237.8927,279.2317 236.7874,279.286 235.6821,279.2317 234.5875,279.0693 233.5141,278.8004 232.4721,278.4276 231.4718,277.9545 230.5226,277.3856 229.6338,276.7264 228.8138,275.9832 228.0707,275.1633 227.4115,274.2745 226.8426,273.3253 226.3695,272.325 225.9966,271.283 225.7278,270.2096 225.5654,269.115 225.5111,268.0097 225.5654,266.9044 225.7278,265.8098 225.9966,264.7364 226.3695,263.6944 226.8426,262.6941 227.4115,261.7449 228.0707,260.8561 228.8138,260.0361 229.6338,259.293 230.5226,258.6338 231.4718,258.0649 232.4721,257.5917 233.5141,257.2189 234.5875,256.9501"/>
    <polygon points="223.3611,254.917 223.2438,257.3056 222.8929,259.6712 222.3118,261.991 221.5061,264.2426 220.4836,266.4045 219.2542,268.4557 217.8296,270.3765 216.2236,272.1485 214.4516,273.7545 212.5308,275.1791 210.4796,276.4085 208.3177,277.431 206.0661,278.2367 203.7463,278.8178 201.3807,279.1687 198.9921,279.286 196.6035,279.1687 194.238,278.8178 191.9182,278.2367 189.6665,277.431 187.5047,276.4085 185.4534,275.1791 183.5326,273.7545 181.7607,272.1485 180.1547,270.3765 178.7301,268.4557 177.5006,266.4045 176.4781,264.2426 175.6725,261.991 175.0914,259.6712 174.7405,257.3056 174.6232,254.917 174.7405,252.5285 175.0914,250.1629 175.6725,247.8431 176.4781,245.5914 177.5006,243.4296 178.7301,241.3784 180.1547,239.4575 181.7607,237.6856 183.5326,236.0796 185.4534,234.655 187.5047,233.4255 189.6665,232.403 191.9182,231.5974 194.238,231.0163 196.6035,230.6654 198.9921,230.5481 201.3807,230.6654 203.7463,231.0163 206.0661,231.5974 208.3177,232.403 210.4796,233.4255 212.5308,234.655 214.4516,236.0796 216.2236,237.6856 217.8296,239.4575 219.2542,241.3784 220.4836,243.4296 221.5061,245.5914 222.3118,247.8431 222.8929,250.1629 223.2438,252.5285"/>
    <polygon points="176.1518,271.7768 175.1293,269.6149 173.8999,267.5637 172.4753,265.6428 170.8693,263.8709 169.0973,262.2649 167.1765,260.8403 165.1253,259.6108 162.9634,258.5884 160.7117,257.7827 158.3919,257.2016 156.0264,256.8507 153.6378,256.7334 151.2492,256.8507 148.8836,257.2016 146.5639,257.7827 144.3122,258.5884 142.1503,259.6108 140.0991,260.8403 138.1783,262.2649 136.4063,263.8709 134.8003,265.6428 133.3757,267.5637 132.1463,269.6149 131.1238,271.7768 130.3181,274.0284 129.7371,276.3482 129.3862,278.7138 129.2688,281.1024 129.3862,283.4909 129.7371,285.8565 130.3181,288.1763 131.1238,290.428 132.1463,292.5898 133.3757,294.641 134.8003,296.5619 136.4063,298.3338 138.1783,299.9398 140.0991,301.3644 142.1503,302.5939 144.3122,303.6164 146.5639,304.422 148.8836,305.0031 151.2492,305.354 153.6378,305.4713 156.0264,305.354 158.3919,305.0031 160.7117,304.422 162.9634,303.6164 165.1253,302.5939 167.1765,301.3644 169.0973,299.9398 170.8693,298.3338 172.4753,296.5619 173.8999,294.641 175.1293,292.5898 176.1518,290.428 176.9574,288.1763 177.5385,285.8565 177.8894,283.4909 178.0068,281.1024 177.8894,278.7138 177.5385,276.3482 176.9574,274.0284"/>
  </g>
</svg>
