<?xml version="1.0" encoding="utf-8" ?>
<svg xmlns="http://www.w3.org/2000/svg" xmlns:cc="http://creativecommons.org/ns" xmlns:dc="http://purl.org/dc/elements/1.1/" xmlns:ev="http://www.w3.org/2001/xml-events" xmlns:inkscape="http://www.inkscape.org/namespaces/inkscape" xmlns:rdf="http://www.w3.org/1999/02/22-rdf-syntax-ns" xmlns:sodipodi="http://sodipodi.sourceforge.net/DTD/sodipodi-0.dtd" xmlns:xlink="http://www.w3.org/1999/xlink" baseProfile="tiny" height="15.875cm" version="1.2" viewBox="0 0 432.0 600.0" width="11.43cm">
  <metadata>
    <rdf:RDF>
      <cc:Work>
        <dc:format>image/svg+xml</dc:format>
        <dc:source>vsk save -s 106 -c hex-grid/config/bubble-coasters-2.json /Users/tobin/src/fabian/plotting/fabian-plotting/hex-grid/sketch_hex_grid.py</dc:source>
        <dc:date>2023-11-04T10:32:59.125490</dc:date>
      </cc:Work>
    </rdf:RDF>
  </metadata>
  <defs/>
  <g fill="none" id="layer1" inkscape:groupmode="layer" inkscape:label="1" stroke="#000000" stroke-width="0.7559" style="display:inline">
    <polygon points="128.3328,188.794 128.7309,188.5554 129.1505,188.3569 129.5876,188.2006 130.0379,188.0878 130.497,188.0197 130.9606,187.9969 131.4242,188.0197 131.8834,188.0878 132.3337,188.2006 132.7707,188.3569 133.1903,188.5554 133.5885,188.794 133.9613,189.0705 134.3052,189.3823 134.6169,189.7262 134.8935,190.099 135.1321,190.4972 135.3306,190.9168 135.4869,191.3538 135.5997,191.8041 135.6678,192.2632 135.6906,192.7269 135.6678,193.1905 135.5997,193.6496 135.4869,194.0999 135.3306,194.5369 135.1321,194.9566 134.8935,195.3547 134.6169,195.7275 134.3052,196.0715 133.9613,196.3832 133.5885,196.6597 133.1903,196.8983 132.7707,197.0968 132.3337,197.2532 131.8834,197.3659 131.4242,197.4341 130.9606,197.4568 130.497,197.4341 130.0379,197.3659 129.5876,197.2532 129.1505,197.0968 128.7309,196.8983 128.3328,196.6597 127.96,196.3832 127.616,196.0715 127.3043,195.7275 127.0278,195.3547 126.7892,194.9566 126.5907,194.5369 126.4343,194.0999 126.3215,193.6496 126.2534,193.1905 126.2307,192.7269 126.2534,192.2632 126.3215,191.8041 126.4343,191.3538 126.5907,190.9168 126.7892,190.4972 127.0278,190.099 127.3043,189.7262 127.616,189.3823 127.96,189.0705"/>
    <polygon points="140.9262,203.7995 140.4891,203.6431 140.0695,203.4447 139.6714,203.206 139.2985,202.9295 138.9546,202.6178 138.6429,202.2739 138.3664,201.901 138.1277,201.5029 137.9293,201.0833 137.7729,200.6462 137.6601,200.196 137.592,199.7368 137.5692,199.2732 137.592,198.8096 137.6601,198.3504 137.7729,197.9002 137.9293,197.4631 138.1277,197.0435 138.3664,196.6454 138.6429,196.2725 138.9546,195.9286 139.2985,195.6169 139.6714,195.3404 140.0695,195.1017 140.4891,194.9033 140.9262,194.7469 141.3764,194.6341 141.8356,194.566 142.2992,194.5432 142.7628,194.566 143.222,194.6341 143.6723,194.7469 144.1093,194.9033 144.5289,195.1017 144.927,195.3404 145.2999,195.6169 145.6438,195.9286 145.9555,196.2725 146.232,196.6454 146.4707,197.0435 146.6691,197.4631 146.8255,197.9002 146.9383,198.3504 147.0064,198.8096 147.0292,199.2732 147.0064,199.7368 146.9383,200.196 146.8255,200.6462 146.6691,201.0833 146.4707,201.5029 146.232,201.901 145.9555,202.2739 145.6438,202.6178 145.2999,202.9295 144.927,203.206 144.5289,203.4447 144.1093,203.6431 143.6723,203.7995 143.222,203.9123 142.7628,203.9804 142.2992,204.0032 141.8356,203.9804 141.3764,203.9123"/>
    <polygon points="152.715,197.3659 152.2648,197.2532 151.8277,197.0968 151.4081,196.8983 151.01,196.6597 150.6371,196.3832 150.2932,196.0715 149.9815,195.7275 149.705,195.3547 149.4663,194.9566 149.2679,194.5369 149.1115,194.0999 148.9987,193.6496 148.9306,193.1905 148.9078,192.7269 148.9306,192.2632 148.9987,191.8041 149.1115,191.3538 149.2679,190.9168 149.4663,190.4972 149.705,190.099 149.9815,189.7262 150.2932,189.3823 150.6371,189.0705 151.01,188.794 151.4081,188.5554 151.8277,188.3569 152.2648,188.2006 152.715,188.0878 153.1742,188.0197 153.6378,187.9969 154.1014,188.0197 154.5606,188.0878 155.0108,188.2006 155.4479,188.3569 155.8675,188.5554 156.2656,188.794 156.6385,189.0705 156.9824,189.3823 157.2941,189.7262 157.5706,190.099 157.8093,190.4972 158.0077,190.9168 158.1641,191.3538 158.2769,191.8041 158.345,192.2632 158.3678,192.7269 158.345,193.1905 158.2769,193.6496 158.1641,194.0999 158.0077,194.5369 157.8093,194.9566 157.5706,195.3547 157.2941,195.7275 156.9824,196.0715 156.6385,196.3832 156.2656,196.6597 155.8675,196.8983 155.4479,197.0968 155.0108,197.2532 154.5606,197.3659 154.1014,197.4341 153.6378,197.4568 153.1742,197.4341"/>
    <polygon points="174.0853,175.4627 174.5049,175.2643 174.9419,175.1079 175.3922,174.9951 175.8513,174.927 176.315,174.9042 176.7786,174.927 177.2377,174.9951 177.688,175.1079 178.125,175.2643 178.5447,175.4627 178.9428,175.7014 179.3156,175.9779 179.6596,176.2896 179.9713,176.6335 180.2478,177.0064 180.4864,177.4045 180.6849,177.8241 180.8413,178.2612 180.954,178.7114 181.0222,179.1706 181.0449,179.6342 181.0222,180.0978 180.954,180.557 180.8413,181.0072 180.6849,181.4443 180.4864,181.8639 180.2478,182.262 179.9713,182.6349 179.6596,182.9788 179.3156,183.2905 178.9428,183.567 178.5447,183.8057 178.125,184.0041 177.688,184.1605 177.2377,184.2733 176.7786,184.3414 176.315,184.3642 175.8513,184.3414 175.3922,184.2733 174.9419,184.1605 174.5049,184.0041 174.0853,183.8057 173.6871,183.567 173.3143,183.2905 172.9704,182.9788 172.6586,182.6349 172.3821,182.262 172.1435,181.8639 171.945,181.4443 171.7887,181.0072 171.6759,180.557 171.6078,180.0978 171.585,179.6342 171.6078,179.1706 171.6759,178.7114 171.7887,178.2612 171.945,177.8241 172.1435,177.4045 172.3821,177.0064 172.6586,176.6335 172.9704,176.2896 173.3143,175.9779 173.6871,175.7014"/>
    <polygon points="176.315,197.4568 175.8513,197.4341 175.3922,197.3659 174.9419,197.2532 174.5049,197.0968 174.0853,196.8983 173.6871,196.6597 173.3143,196.3832 172.9704,196.0715 172.6586,195.7275 172.3821,195.3547 172.1435,194.9566 171.945,194.5369 171.7887,194.0999 171.6759,193.6496 171.6078,193.1905 171.585,192.7269 171.6078,192.2632 171.6759,191.8041 171.7887,191.3538 171.945,190.9168 172.1435,190.4972 172.3821,190.099 172.6586,189.7262 172.9704,189.3823 173.3143,189.0705 173.6871,188.794 174.0853,188.5554 174.5049,188.3569 174.9419,188.2006 175.3922,188.0878 175.8513,188.0197 176.315,187.9969 176.7786,188.0197 177.2377,188.0878 177.688,188.2006 178.125,188.3569 178.5447,188.5554 178.9428,188.794 179.3156,189.0705 179.6596,189.3823 179.9713,189.7262 180.2478,190.099 180.4864,190.4972 180.6849,190.9168 180.8413,191.3538 180.954,191.8041 181.0222,192.2632 181.0449,192.7269 181.0222,193.1905 180.954,193.6496 180.8413,194.0999 180.6849,194.5369 180.4864,194.9566 180.2478,195.3547 179.9713,195.7275 179.6596,196.0715 179.3156,196.3832 178.9428,196.6597 178.5447,196.8983 178.125,197.0968 177.688,197.2532 177.2377,197.3659 176.7786,197.4341"/>
    <polygon points="180.2478,203.1917 180.4864,203.5898 180.6849,204.0094 180.8413,204.4465 180.954,204.8968 181.0222,205.3559 181.0449,205.8195 181.0222,206.2831 180.954,206.7423 180.8413,207.1926 180.6849,207.6296 180.4864,208.0492 180.2478,208.4474 179.9713,208.8202 179.6596,209.1641 179.3156,209.4758 178.9428,209.7524 178.5447,209.991 178.125,210.1894 177.688,210.3458 177.2377,210.4586 176.7786,210.5267 176.315,210.5495 175.8513,210.5267 175.3922,210.4586 174.9419,210.3458 174.5049,210.1894 174.0853,209.991 173.6871,209.7524 173.3143,209.4758 172.9704,209.1641 172.6586,208.8202 172.3821,208.4474 172.1435,208.0492 171.945,207.6296 171.7887,207.1926 171.6759,206.7423 171.6078,206.2831 171.585,205.8195 171.6078,205.3559 171.6759,204.8968 171.7887,204.4465 171.945,204.0094 172.1435,203.5898 172.3821,203.1917 172.6586,202.8189 172.9704,202.4749 173.3143,202.1632 173.6871,201.8867 174.0853,201.6481 174.5049,201.4496 174.9419,201.2932 175.3922,201.1804 175.8513,201.1123 176.315,201.0896 176.7786,201.1123 177.2377,201.1804 177.688,201.2932 178.125,201.4496 178.5447,201.6481 178.9428,201.8867 179.3156,202.1632 179.6596,202.4749 179.9713,202.8189"/>
    <polygon points="198.0694,201.1804 198.5285,201.1123 198.9921,201.0896 199.4557,201.1123 199.9149,201.1804 200.3652,201.2932 200.8022,201.4496 201.2218,201.6481 201.62,201.8867 201.9928,202.1632 202.3367,202.4749 202.6484,202.8189 202.925,203.1917 203.1636,203.5898 203.3621,204.0094 203.5184,204.4465 203.6312,204.8968 203.6993,205.3559 203.7221,205.8195 203.6993,206.2831 203.6312,206.7423 203.5184,207.1926 203.3621,207.6296 203.1636,208.0492 202.925,208.4474 202.6484,208.8202 202.3367,209.1641 201.9928,209.4758 201.62,209.7524 201.2218,209.991 200.8022,210.1894 200.3652,210.3458 199.9149,210.4586 199.4557,210.5267 198.9921,210.5495 198.5285,210.5267 198.0694,210.4586 197.6191,210.3458 197.182,210.1894 196.7624,209.991 196.3643,209.7524 195.9915,209.4758 195.6475,209.1641 195.3358,208.8202 195.0593,208.4474 194.8207,208.0492 194.6222,207.6296 194.4658,207.1926 194.353,206.7423 194.2849,206.2831 194.2622,205.8195 194.2849,205.3559 194.353,204.8968 194.4658,204.4465 194.6222,204.0094 194.8207,203.5898 195.0593,203.1917 195.3358,202.8189 195.6475,202.4749 195.9915,202.1632 196.3643,201.8867 196.7624,201.6481 197.182,201.4496 197.6191,201.2932"/>
    <polygon points="202.3367,215.5676 202.6484,215.9115 202.925,216.2844 203.1636,216.6825 203.3621,217.1021 203.5184,217.5392 203.6312,217.9894 203.6993,218.4486 203.7221,218.9122 203.6993,219.3758 203.6312,219.835 203.5184,220.2852 203.3621,220.7223 203.1636,221.1419 202.925,221.54 202.6484,221.9129 202.3367,222.2568 201.9928,222.5685 201.62,222.845 201.2218,223.0837 200.8022,223.2821 200.3652,223.4385 199.9149,223.5513 199.4557,223.6194 198.9921,223.6422 198.5285,223.6194 198.0694,223.5513 197.6191,223.4385 197.182,223.2821 196.7624,223.0837 196.3643,222.845 195.9915,222.5685 195.6475,222.2568 195.3358,221.9129 195.0593,221.54 194.8207,221.1419 194.6222,220.7223 194.4658,220.2852 194.353,219.835 194.2849,219.3758 194.2622,218.9122 194.2849,218.4486 194.353,217.9894 194.4658,217.5392 194.6222,217.1021 194.8207,216.6825 195.0593,216.2844 195.3358,215.9115 195.6475,215.5676 195.9915,215.2559 196.3643,214.9794 196.7624,214.7407 197.182,214.5423 197.6191,214.3859 198.0694,214.2731 198.5285,214.205 198.9921,214.1822 199.4557,214.205 199.9149,214.2731 200.3652,214.3859 200.8022,214.5423 201.2218,214.7407 201.62,214.9794 201.9928,215.2559"/>
    <polygon points="194.7981,230.5776 195.618,229.8345 196.5069,229.1753 197.456,228.6064 198.4564,228.1332 199.4983,227.7604 200.5718,227.4916 201.6664,227.3292 202.7717,227.2749 203.8769,227.3292 204.9716,227.4916 206.045,227.7604 207.0869,228.1332 208.0873,228.6064 209.0364,229.1753 209.9253,229.8345 210.7452,230.5776 211.4884,231.3976 212.1476,232.2864 212.7165,233.2356 213.1896,234.2359 213.5624,235.2779 213.8313,236.3513 213.9937,237.4459 214.048,238.5512 213.9937,239.6565 213.8313,240.7511 213.5624,241.8245 213.1896,242.8664 212.7165,243.8668 212.1476,244.816 211.4884,245.7048 210.7452,246.5247 209.9253,247.2679 209.0364,247.9271 208.0873,248.496 207.0869,248.9691 206.045,249.3419 204.9716,249.6108 203.8769,249.7732 202.7717,249.8275 201.6664,249.7732 200.5718,249.6108 199.4983,249.3419 198.4564,248.9691 197.456,248.496 196.5069,247.9271 195.618,247.2679 194.7981,246.5247 194.055,245.7048 193.3957,244.816 192.8268,243.8668 192.3537,242.8664 191.9809,241.8245 191.712,240.7511 191.5496,239.6565 191.4953,238.5512 191.5496,237.4459 191.712,236.3513 191.9809,235.2779 192.3537,234.2359 192.8268,233.2356 193.3957,232.2864 194.055,231.3976"/>
    <polygon points="175.7792,241.2259 174.7789,241.699 173.8297,242.268 172.9409,242.9272 172.1209,243.6703 171.3778,244.4902 170.7186,245.3791 170.1497,246.3282 169.6765,247.3286 169.3037,248.3705 169.0349,249.444 168.8725,250.5386 168.8182,251.6439 168.8725,252.7491 169.0349,253.8438 169.3037,254.9172 169.6765,255.9591 170.1497,256.9595 170.7186,257.9086 171.3778,258.7975 172.1209,259.6174 172.9409,260.3606 173.8297,261.0198 174.7789,261.5887 175.7792,262.0618 176.8211,262.4346 177.8946,262.7035 178.9892,262.8659 180.0945,262.9202 181.1998,262.8659 182.2944,262.7035 183.3678,262.4346 184.4097,262.0618 185.4101,261.5887 186.3593,261.0198 187.2481,260.3606 188.068,259.6174 188.8112,258.7975 189.4704,257.9086 190.0393,256.9595 190.5124,255.9591 190.8852,254.9172 191.1541,253.8438 191.3165,252.7491 191.3708,251.6439 191.3165,250.5386 191.1541,249.444 190.8852,248.3705 190.5124,247.3286 190.0393,246.3282 189.4704,245.3791 188.8112,244.4902 188.068,243.6703 187.2481,242.9272 186.3593,242.268 185.4101,241.699 184.4097,241.2259 183.3678,240.8531 182.2944,240.5842 181.1998,240.4219 180.0945,240.3676 178.9892,240.4219 177.8946,240.5842 176.8211,240.8531"/>
    <polygon points="167.3621,259.4209 166.7932,258.4717 166.134,257.5829 165.3909,256.763 164.5709,256.0198 163.6821,255.3606 162.7329,254.7917 161.7326,254.3186 160.6907,253.9458 159.6172,253.6769 158.5226,253.5145 157.4173,253.4602 156.3121,253.5145 155.2174,253.6769 154.144,253.9458 153.1021,254.3186 152.1017,254.7917 151.1525,255.3606 150.2637,256.0198 149.4438,256.763 148.7006,257.5829 148.0414,258.4717 147.4725,259.4209 146.9994,260.4213 146.6266,261.4632 146.3577,262.5366 146.1953,263.6313 146.141,264.7365 146.1953,265.8418 146.3577,266.9364 146.6266,268.0099 146.9994,269.0518 147.4725,270.0521 148.0414,271.0013 148.7006,271.8901 149.4438,272.7101 150.2637,273.4532 151.1525,274.1124 152.1017,274.6813 153.1021,275.1545 154.144,275.5273 155.2174,275.7962 156.3121,275.9585 157.4173,276.0128 158.5226,275.9585 159.6172,275.7962 160.6907,275.5273 161.7326,275.1545 162.7329,274.6813 163.6821,274.1124 164.5709,273.4532 165.3909,272.7101 166.134,271.8901 166.7932,271.0013 167.3621,270.0521 167.8353,269.0518 168.2081,268.0099 168.477,266.9364 168.6393,265.8418 168.6936,264.7365 168.6393,263.6313 168.477,262.5366 168.2081,261.4632 167.8353,260.4213"/>
    <polygon points="169.0349,223.2586 169.3037,222.1852 169.6765,221.1433 170.1497,220.1429 170.7186,219.1937 171.3778,218.3049 172.1209,217.485 172.9409,216.7418 173.8297,216.0826 174.7789,215.5137 175.7792,215.0406 176.8211,214.6678 177.8946,214.3989 178.9892,214.2365 180.0945,214.1822 181.1998,214.2365 182.2944,214.3989 183.3678,214.6678 184.4097,215.0406 185.4101,215.5137 186.3593,216.0826 187.2481,216.7418 188.068,217.485 188.8112,218.3049 189.4704,219.1937 190.0393,220.1429 190.5124,221.1433 190.8852,222.1852 191.1541,223.2586 191.3165,224.3533 191.3708,225.4585 191.3165,226.5638 191.1541,227.6584 190.8852,228.7319 190.5124,229.7738 190.0393,230.7741 189.4704,231.7233 188.8112,232.6121 188.068,233.4321 187.2481,234.1752 186.3593,234.8344 185.4101,235.4033 184.4097,235.8765 183.3678,236.2493 182.2944,236.5182 181.1998,236.6805 180.0945,236.7348 178.9892,236.6805 177.8946,236.5182 176.8211,236.2493 175.7792,235.8765 174.7789,235.4033 173.8297,234.8344 172.9409,234.1752 172.1209,233.4321 171.3778,232.6121 170.7186,231.7233 170.1497,230.7741 169.6765,229.7738 169.3037,228.7319 169.0349,227.6584 168.8725,226.5638 168.8182,225.4585 168.8725,224.3533"/>
    <polygon points="164.5709,221.0826 163.6821,221.7418 162.7329,222.3107 161.7326,222.7838 160.6907,223.1566 159.6172,223.4255 158.5226,223.5879 157.4173,223.6422 156.3121,223.5879 155.2174,223.4255 154.144,223.1566 153.1021,222.7838 152.1017,222.3107 151.1525,221.7418 150.2637,221.0826 149.4438,220.3394 148.7006,219.5195 148.0414,218.6306 147.4725,217.6815 146.9994,216.6811 146.6266,215.6392 146.3577,214.5658 146.1953,213.4711 146.141,212.3659 146.1953,211.2606 146.3577,210.166 146.6266,209.0925 146.9994,208.0506 147.4725,207.0502 148.0414,206.1011 148.7006,205.2122 149.4438,204.3923 150.2637,203.6492 151.1525,202.99 152.1017,202.421 153.1021,201.9479 154.144,201.5751 155.2174,201.3062 156.3121,201.1438 157.4173,201.0896 158.5226,201.1438 159.6172,201.3062 160.6907,201.5751 161.7326,201.9479 162.7329,202.421 163.6821,202.99 164.5709,203.6492 165.3909,204.3923 166.134,205.2122 166.7932,206.1011 167.3621,207.0502 167.8353,208.0506 168.2081,209.0925 168.477,210.166 168.6393,211.2606 168.6936,212.3659 168.6393,213.4711 168.477,214.5658 168.2081,215.6392 167.8353,216.6811 167.3621,217.6815 166.7932,218.6306 166.134,219.5195 165.3909,220.3394"/>
    <polygon points="153.6378,236.7348 153.1742,236.7121 152.715,236.6439 152.2648,236.5312 151.8277,236.3748 151.4081,236.1763 151.01,235.9377 150.6371,235.6612 150.2932,235.3495 149.9815,235.0055 149.705,234.6327 149.4663,234.2346 149.2679,233.8149 149.1115,233.3779 148.9987,232.9276 148.9306,232.4685 148.9078,232.0049 148.9306,231.5412 148.9987,231.0821 149.1115,230.6318 149.2679,230.1948 149.4663,229.7752 149.705,229.377 149.9815,229.0042 150.2932,228.6603 150.6371,228.3485 151.01,228.072 151.4081,227.8334 151.8277,227.6349 152.2648,227.4786 152.715,227.3658 153.1742,227.2977 153.6378,227.2749 154.1014,227.2977 154.5606,227.3658 155.0108,227.4786 155.4479,227.6349 155.8675,227.8334 156.2656,228.072 156.6385,228.3485 156.9824,228.6603 157.2941,229.0042 157.5706,229.377 157.8093,229.7752 158.0077,230.1948 158.1641,230.6318 158.2769,231.0821 158.345,231.5412 158.3678,232.0049 158.345,232.4685 158.2769,232.9276 158.1641,233.3779 158.0077,233.8149 157.8093,234.2346 157.5706,234.6327 157.2941,235.0055 156.9824,235.3495 156.6385,235.6612 156.2656,235.9377 155.8675,236.1763 155.4479,236.3748 155.0108,236.5312 154.5606,236.6439 154.1014,236.7121"/>
    <polygon points="161.9757,242.2075 161.6318,241.8958 161.3201,241.5519 161.0435,241.179 160.8049,240.7809 160.6065,240.3613 160.4501,239.9242 160.3373,239.474 160.2692,239.0148 160.2464,238.5512 160.2692,238.0876 160.3373,237.6284 160.4501,237.1782 160.6065,236.7411 160.8049,236.3215 161.0435,235.9234 161.3201,235.5505 161.6318,235.2066 161.9757,234.8949 162.3485,234.6184 162.7467,234.3797 163.1663,234.1813 163.6033,234.0249 164.0536,233.9121 164.5128,233.844 164.9764,233.8212 165.44,233.844 165.8991,233.9121 166.3494,234.0249 166.7865,234.1813 167.2061,234.3797 167.6042,234.6184 167.977,234.8949 168.321,235.2066 168.6327,235.5505 168.9092,235.9234 169.1478,236.3215 169.3463,236.7411 169.5027,237.1782 169.6155,237.6284 169.6836,238.0876 169.7064,238.5512 169.6836,239.0148 169.6155,239.474 169.5027,239.9242 169.3463,240.3613 169.1478,240.7809 168.9092,241.179 168.6327,241.5519 168.321,241.8958 167.977,242.2075 167.6042,242.484 167.2061,242.7227 166.7865,242.9211 166.3494,243.0775 165.8991,243.1903 165.44,243.2584 164.9764,243.2812 164.5128,243.2584 164.0536,243.1903 163.6033,243.0775 163.1663,242.9211 162.7467,242.7227 162.3485,242.484"/>
    <polygon points="158.1641,243.7245 158.2769,244.1748 158.345,244.6339 158.3678,245.0975 158.345,245.5611 158.2769,246.0203 158.1641,246.4706 158.0077,246.9076 157.8093,247.3272 157.5706,247.7254 157.2941,248.0982 156.9824,248.4421 156.6385,248.7538 156.2656,249.0304 155.8675,249.269 155.4479,249.4675 155.0108,249.6238 154.5606,249.7366 154.1014,249.8047 153.6378,249.8275 153.1742,249.8047 152.715,249.7366 152.2648,249.6238 151.8277,249.4675 151.4081,249.269 151.01,249.0304 150.6371,248.7538 150.2932,248.4421 149.9815,248.0982 149.705,247.7254 149.4663,247.3272 149.2679,246.9076 149.1115,246.4706 148.9987,246.0203 148.9306,245.5611 148.9078,245.0975 148.9306,244.6339 148.9987,244.1748 149.1115,243.7245 149.2679,243.2874 149.4663,242.8678 149.705,242.4697 149.9815,242.0969 150.2932,241.7529 150.6371,241.4412 151.01,241.1647 151.4081,240.9261 151.8277,240.7276 152.2648,240.5712 152.715,240.4584 153.1742,240.3903 153.6378,240.3676 154.1014,240.3903 154.5606,240.4584 155.0108,240.5712 155.4479,240.7276 155.8675,240.9261 156.2656,241.1647 156.6385,241.4412 156.9824,241.7529 157.2941,242.0969 157.5706,242.4697 157.8093,242.8678 158.0077,243.2874"/>
    <polygon points="146.8255,253.0169 146.6691,253.4539 146.4707,253.8736 146.232,254.2717 145.9555,254.6445 145.6438,254.9885 145.2999,255.3002 144.927,255.5767 144.5289,255.8153 144.1093,256.0138 143.6723,256.1702 143.222,256.2829 142.7628,256.3511 142.2992,256.3738 141.8356,256.3511 141.3764,256.2829 140.9262,256.1702 140.4891,256.0138 140.0695,255.8153 139.6714,255.5767 139.2985,255.3002 138.9546,254.9885 138.6429,254.6445 138.3664,254.2717 138.1277,253.8736 137.9293,253.4539 137.7729,253.0169 137.6601,252.5666 137.592,252.1075 137.5692,251.6439 137.592,251.1802 137.6601,250.7211 137.7729,250.2708 137.9293,249.8338 138.1277,249.4142 138.3664,249.016 138.6429,248.6432 138.9546,248.2993 139.2985,247.9875 139.6714,247.711 140.0695,247.4724 140.4891,247.2739 140.9262,247.1176 141.3764,247.0048 141.8356,246.9367 142.2992,246.9139 142.7628,246.9367 143.222,247.0048 143.6723,247.1176 144.1093,247.2739 144.5289,247.4724 144.927,247.711 145.2999,247.9875 145.6438,248.2993 145.9555,248.6432 146.232,249.016 146.4707,249.4142 146.6691,249.8338 146.8255,250.2708 146.9383,250.7211 147.0064,251.1802 147.0292,251.6439 147.0064,252.1075 146.9383,252.5666"/>
    <polygon points="130.0379,262.8293 130.497,262.8974 130.9606,262.9202 131.4242,262.8974 131.8834,262.8293 132.3337,262.7165 132.7707,262.5601 133.1903,262.3617 133.5885,262.123 133.9613,261.8465 134.3052,261.5348 134.6169,261.1909 134.8935,260.818 135.1321,260.4199 135.3306,260.0003 135.4869,259.5632 135.5997,259.113 135.6678,258.6538 135.6906,258.1902 135.6678,257.7266 135.5997,257.2674 135.4869,256.8172 135.3306,256.3801 135.1321,255.9605 134.8935,255.5624 134.6169,255.1895 134.3052,254.8456 133.9613,254.5339 133.5885,254.2574 133.1903,254.0187 132.7707,253.8203 132.3337,253.6639 131.8834,253.5511 131.4242,253.483 130.9606,253.4602 130.497,253.483 130.0379,253.5511 129.5876,253.6639 129.1505,253.8203 128.7309,254.0187 128.3328,254.2574 127.96,254.5339 127.616,254.8456 127.3043,255.1895 127.0278,255.5624 126.7892,255.9605 126.5907,256.3801 126.4343,256.8172 126.3215,257.2674 126.2534,257.7266 126.2307,258.1902 126.2534,258.6538 126.3215,259.113 126.4343,259.5632 126.5907,260.0003 126.7892,260.4199 127.0278,260.818 127.3043,261.1909 127.616,261.5348 127.96,261.8465 128.3328,262.123 128.7309,262.3617 129.1505,262.5601 129.5876,262.7165"/>
    <polygon points="121.8517,268.908 122.2499,268.6694 122.6227,268.3928 122.9666,268.0811 123.2784,267.7372 123.5549,267.3644 123.7935,266.9662 123.992,266.5466 124.1483,266.1096 124.2611,265.6593 124.3292,265.2001 124.352,264.7365 124.3292,264.2729 124.2611,263.8138 124.1483,263.3635 123.992,262.9264 123.7935,262.5068 123.5549,262.1087 123.2784,261.7359 122.9666,261.3919 122.6227,261.0802 122.2499,260.8037 121.8517,260.5651 121.4321,260.3666 120.9951,260.2102 120.5448,260.0974 120.0857,260.0293 119.622,260.0066 119.1584,260.0293 118.6993,260.0974 118.249,260.2102 117.812,260.3666 117.3924,260.5651 116.9942,260.8037 116.6214,261.0802 116.2775,261.3919 115.9657,261.7359 115.6892,262.1087 115.4506,262.5068 115.2521,262.9264 115.0957,263.3635 114.983,263.8138 114.9149,264.2729 114.8921,264.7365 114.9149,265.2001 114.983,265.6593 115.0957,266.1096 115.2521,266.5466 115.4506,266.9662 115.6892,267.3644 115.9657,267.7372 116.2775,268.0811 116.6214,268.3928 116.9942,268.6694 117.3924,268.908 117.812,269.1065 118.249,269.2628 118.6993,269.3756 119.1584,269.4437 119.622,269.4665 120.0857,269.4437 120.5448,269.3756 120.9951,269.2628 121.4321,269.1065"/>
    <polygon points="146.0165,277.8292 145.9622,278.9345 145.7998,280.0291 145.5309,281.1025 145.1581,282.1445 144.685,283.1448 144.1161,284.094 143.4569,284.9828 142.7137,285.8027 141.8938,286.5459 141.0049,287.2051 140.0558,287.774 139.0554,288.2471 138.0135,288.6199 136.9401,288.8888 135.8454,289.0512 134.7402,289.1055 133.6349,289.0512 132.5403,288.8888 131.4668,288.6199 130.4249,288.2471 129.4245,287.774 128.4754,287.2051 127.5865,286.5459 126.7666,285.8027 126.0235,284.9828 125.3643,284.094 124.7953,283.1448 124.3222,282.1445 123.9494,281.1025 123.6805,280.0291 123.5181,278.9345 123.4639,277.8292 123.5181,276.7239 123.6805,275.6293 123.9494,274.5559 124.3222,273.5139 124.7953,272.5136 125.3643,271.5644 126.0235,270.6756 126.7666,269.8556 127.5865,269.1125 128.4754,268.4533 129.4245,267.8844 130.4249,267.4112 131.4668,267.0384 132.5403,266.7696 133.6349,266.6072 134.7402,266.5529 135.8454,266.6072 136.9401,266.7696 138.0135,267.0384 139.0554,267.4112 140.0558,267.8844 141.0049,268.4533 141.8938,269.1125 142.7137,269.8556 143.4569,270.6756 144.1161,271.5644 144.685,272.5136 145.1581,273.5139 145.5309,274.5559 145.7998,275.6293 145.9622,276.7239"/>
    <polygon points="141.6567,311.0885 141.0756,308.7687 140.7247,306.4031 140.6074,304.0145 140.7247,301.626 141.0756,299.2604 141.6567,296.9406 142.4624,294.6889 143.4849,292.5271 144.7143,290.4759 146.1389,288.555 147.7449,286.7831 149.5169,285.1771 151.4377,283.7525 153.4889,282.523 155.6508,281.5005 157.9024,280.6949 160.2222,280.1138 162.5878,279.7629 164.9764,279.6456 167.365,279.7629 169.7305,280.1138 172.0503,280.6949 174.302,281.5005 176.4638,282.523 178.5151,283.7525 180.4359,285.1771 182.2078,286.7831 183.8138,288.555 185.2384,290.4759 186.4679,292.5271 187.4904,294.6889 188.296,296.9406 188.8771,299.2604 189.228,301.626 189.3454,304.0145 189.228,306.4031 188.8771,308.7687 188.296,311.0885 187.4904,313.3401 186.4679,315.502 185.2384,317.5532 183.8138,319.474 182.2078,321.246 180.4359,322.852 178.5151,324.2766 176.4638,325.506 174.302,326.5285 172.0503,327.3342 169.7305,327.9153 167.365,328.2662 164.9764,328.3835 162.5878,328.2662 160.2222,327.9153 157.9024,327.3342 155.6508,326.5285 153.4889,325.506 151.4377,324.2766 149.5169,322.852 147.7449,321.246 146.1389,319.474 144.7143,317.5532 143.4849,315.502 142.4624,313.3401"/>
    <polygon points="164.5709,352.0092 163.6821,352.6684 162.7329,353.2373 161.7326,353.7105 160.6907,354.0833 159.6172,354.3522 158.5226,354.5145 157.4173,354.5688 156.3121,354.5145 155.2174,354.3522 154.144,354.0833 153.1021,353.7105 152.1017,353.2373 151.1525,352.6684 150.2637,352.0092 149.4438,351.2661 148.7006,350.4461 148.0414,349.5573 147.4725,348.6081 146.9994,347.6078 146.6266,346.5659 146.3577,345.4924 146.1953,344.3978 146.141,343.2925 146.1953,342.1873 146.3577,341.0926 146.6266,340.0192 146.9994,338.9773 147.4725,337.9769 148.0414,337.0278 148.7006,336.1389 149.4438,335.319 150.2637,334.5758 151.1525,333.9166 152.1017,333.3477 153.1021,332.8746 154.144,332.5018 155.2174,332.2329 156.3121,332.0705 157.4173,332.0162 158.5226,332.0705 159.6172,332.2329 160.6907,332.5018 161.7326,332.8746 162.7329,333.3477 163.6821,333.9166 164.5709,334.5758 165.3909,335.319 166.134,336.1389 166.7932,337.0278 167.3621,337.9769 167.8353,338.9773 168.2081,340.0192 168.477,341.0926 168.6393,342.1873 168.6936,343.2925 168.6393,344.3978 168.477,345.4924 168.2081,346.5659 167.8353,347.6078 167.3621,348.6081 166.7932,349.5573 166.134,350.4461 165.3909,351.2661"/>
    <polygon points="172.1435,347.6092 172.3821,347.211 172.6586,346.8382 172.9704,346.4943 173.3143,346.1825 173.6871,345.906 174.0853,345.6674 174.5049,345.4689 174.9419,345.3126 175.3922,345.1998 175.8513,345.1317 176.315,345.1089 176.7786,345.1317 177.2377,345.1998 177.688,345.3126 178.125,345.4689 178.5447,345.6674 178.9428,345.906 179.3156,346.1825 179.6596,346.4943 179.9713,346.8382 180.2478,347.211 180.4864,347.6092 180.6849,348.0288 180.8413,348.4658 180.954,348.9161 181.0222,349.3752 181.0449,349.8389 181.0222,350.3025 180.954,350.7616 180.8413,351.2119 180.6849,351.6489 180.4864,352.0686 180.2478,352.4667 179.9713,352.8395 179.6596,353.1835 179.3156,353.4952 178.9428,353.7717 178.5447,354.0103 178.125,354.2088 177.688,354.3652 177.2377,354.478 176.7786,354.5461 176.315,354.5688 175.8513,354.5461 175.3922,354.478 174.9419,354.3652 174.5049,354.2088 174.0853,354.0103 173.6871,353.7717 173.3143,353.4952 172.9704,353.1835 172.6586,352.8395 172.3821,352.4667 172.1435,352.0686 171.945,351.6489 171.7887,351.2119 171.6759,350.7616 171.6078,350.3025 171.585,349.8389 171.6078,349.3752 171.6759,348.9161 171.7887,348.4658 171.945,348.0288"/>
    <polygon points="194.2622,376.0242 194.2849,376.4878 194.353,376.947 194.4658,377.3972 194.6222,377.8343 194.8207,378.2539 195.0593,378.652 195.3358,379.0249 195.6475,379.3688 195.9915,379.6805 196.3643,379.957 196.7624,380.1957 197.182,380.3941 197.6191,380.5505 198.0694,380.6633 198.5285,380.7314 198.9921,380.7542 199.4557,380.7314 199.9149,380.6633 200.3652,380.5505 200.8022,380.3941 201.2218,380.1957 201.62,379.957 201.9928,379.6805 202.3367,379.3688 202.6484,379.0249 202.925,378.652 203.1636,378.2539 203.3621,377.8343 203.5184,377.3972 203.6312,376.947 203.6993,376.4878 203.7221,376.0242 203.6993,375.5606 203.6312,375.1014 203.5184,374.6512 203.3621,374.2141 203.1636,373.7945 202.925,373.3964 202.6484,373.0235 202.3367,372.6796 201.9928,372.3679 201.62,372.0914 201.2218,371.8527 200.8022,371.6543 200.3652,371.4979 199.9149,371.3851 199.4557,371.317 198.9921,371.2942 198.5285,371.317 198.0694,371.3851 197.6191,371.4979 197.182,371.6543 196.7624,371.8527 196.3643,372.0914 195.9915,372.3679 195.6475,372.6796 195.3358,373.0235 195.0593,373.3964 194.8207,373.7945 194.6222,374.2141 194.4658,374.6512 194.353,375.1014 194.2849,375.5606"/>
    <polygon points="210.7943,377.8633 210.3307,377.8406 209.8671,377.8633 209.4079,377.9314 208.9577,378.0442 208.5206,378.2006 208.101,378.3991 207.7029,378.6377 207.33,378.9142 206.9861,379.2259 206.6744,379.5699 206.3979,379.9427 206.1592,380.3408 205.9608,380.7605 205.8044,381.1975 205.6916,381.6478 205.6235,382.1069 205.6007,382.5705 205.6235,383.0342 205.6916,383.4933 205.8044,383.9436 205.9608,384.3806 206.1592,384.8002 206.3979,385.1984 206.6744,385.5712 206.9861,385.9151 207.33,386.2269 207.7029,386.5034 208.101,386.742 208.5206,386.9405 208.9577,387.0968 209.4079,387.2096 209.8671,387.2777 210.3307,387.3005 210.7943,387.2777 211.2535,387.2096 211.7037,387.0968 212.1408,386.9405 212.5604,386.742 212.9585,386.5034 213.3314,386.2269 213.6753,385.9151 213.987,385.5712 214.2635,385.1984 214.5022,384.8002 214.7006,384.3806 214.857,383.9436 214.9698,383.4933 215.0379,383.0342 215.0607,382.5705 215.0379,382.1069 214.9698,381.6478 214.857,381.1975 214.7006,380.7605 214.5022,380.3408 214.2635,379.9427 213.987,379.5699 213.6753,379.2259 213.3314,378.9142 212.9585,378.6377 212.5604,378.3991 212.1408,378.2006 211.7037,378.0442 211.2535,377.9314"/>
    <polygon points="197.6191,367.4578 197.182,367.3015 196.7624,367.103 196.3643,366.8644 195.9915,366.5879 195.6475,366.2761 195.3358,365.9322 195.0593,365.5594 194.8207,365.1612 194.6222,364.7416 194.4658,364.3046 194.353,363.8543 194.2849,363.3952 194.2622,362.9315 194.2849,362.4679 194.353,362.0088 194.4658,361.5585 194.6222,361.1215 194.8207,360.7018 195.0593,360.3037 195.3358,359.9309 195.6475,359.5869 195.9915,359.2752 196.3643,358.9987 196.7624,358.7601 197.182,358.5616 197.6191,358.4052 198.0694,358.2924 198.5285,358.2243 198.9921,358.2016 199.4557,358.2243 199.9149,358.2924 200.3652,358.4052 200.8022,358.5616 201.2218,358.7601 201.62,358.9987 201.9928,359.2752 202.3367,359.5869 202.6484,359.9309 202.925,360.3037 203.1636,360.7018 203.3621,361.1215 203.5184,361.5585 203.6312,362.0088 203.6993,362.4679 203.7221,362.9315 203.6993,363.3952 203.6312,363.8543 203.5184,364.3046 203.3621,364.7416 203.1636,365.1612 202.925,365.5594 202.6484,365.9322 202.3367,366.2761 201.9928,366.5879 201.62,366.8644 201.2218,367.103 200.8022,367.3015 200.3652,367.4578 199.9149,367.5706 199.4557,367.6387 198.9921,367.6615 198.5285,367.6387 198.0694,367.5706"/>
    <polygon points="192.3835,356.3852 192.3607,356.8488 192.2926,357.308 192.1798,357.7582 192.0235,358.1953 191.825,358.6149 191.5864,359.013 191.3099,359.3859 190.9981,359.7298 190.6542,360.0415 190.2814,360.318 189.8832,360.5567 189.4636,360.7551 189.0266,360.9115 188.5763,361.0243 188.1172,361.0924 187.6535,361.1152 187.1899,361.0924 186.7308,361.0243 186.2805,360.9115 185.8435,360.7551 185.4238,360.5567 185.0257,360.318 184.6529,360.0415 184.3089,359.7298 183.9972,359.3859 183.7207,359.013 183.4821,358.6149 183.2836,358.1953 183.1272,357.7582 183.0145,357.308 182.9463,356.8488 182.9236,356.3852 182.9463,355.9216 183.0145,355.4624 183.1272,355.0122 183.2836,354.5751 183.4821,354.1555 183.7207,353.7574 183.9972,353.3845 184.3089,353.0406 184.6529,352.7289 185.0257,352.4524 185.4238,352.2137 185.8435,352.0153 186.2805,351.8589 186.7308,351.7461 187.1899,351.678 187.6535,351.6552 188.1172,351.678 188.5763,351.7461 189.0266,351.8589 189.4636,352.0153 189.8832,352.2137 190.2814,352.4524 190.6542,352.7289 190.9981,353.0406 191.3099,353.3845 191.5864,353.7574 191.825,354.1555 192.0235,354.5751 192.1798,355.0122 192.2926,355.4624 192.3607,355.9216"/>
    <polygon points="197.182,354.2088 196.7624,354.0103 196.3643,353.7717 195.9915,353.4952 195.6475,353.1835 195.3358,352.8395 195.0593,352.4667 194.8207,352.0686 194.6222,351.6489 194.4658,351.2119 194.353,350.7616 194.2849,350.3025 194.2622,349.8389 194.2849,349.3752 194.353,348.9161 194.4658,348.4658 194.6222,348.0288 194.8207,347.6092 195.0593,347.211 195.3358,346.8382 195.6475,346.4943 195.9915,346.1825 196.3643,345.906 196.7624,345.6674 197.182,345.4689 197.6191,345.3126 198.0694,345.1998 198.5285,345.1317 198.9921,345.1089 199.4557,345.1317 199.9149,345.1998 200.3652,345.3126 200.8022,345.4689 201.2218,345.6674 201.62,345.906 201.9928,346.1825 202.3367,346.4943 202.6484,346.8382 202.925,347.211 203.1636,347.6092 203.3621,348.0288 203.5184,348.4658 203.6312,348.9161 203.6993,349.3752 203.7221,349.8389 203.6993,350.3025 203.6312,350.7616 203.5184,351.2119 203.3621,351.6489 203.1636,352.0686 202.925,352.4667 202.6484,352.8395 202.3367,353.1835 201.9928,353.4952 201.62,353.7717 201.2218,354.0103 200.8022,354.2088 200.3652,354.3652 199.9149,354.478 199.4557,354.5461 198.9921,354.5688 198.5285,354.5461 198.0694,354.478 197.6191,354.3652"/>
    <polygon points="195.3358,339.7469 195.0593,339.374 194.8207,338.9759 194.6222,338.5563 194.4658,338.1192 194.353,337.669 194.2849,337.2098 194.2622,336.7462 194.2849,336.2826 194.353,335.8234 194.4658,335.3732 194.6222,334.9361 194.8207,334.5165 195.0593,334.1184 195.3358,333.7455 195.6475,333.4016 195.9915,333.0899 196.3643,332.8134 196.7624,332.5747 197.182,332.3763 197.6191,332.2199 198.0694,332.1071 198.5285,332.039 198.9921,332.0162 199.4557,332.039 199.9149,332.1071 200.3652,332.2199 200.8022,332.3763 201.2218,332.5747 201.62,332.8134 201.9928,333.0899 202.3367,333.4016 202.6484,333.7455 202.925,334.1184 203.1636,334.5165 203.3621,334.9361 203.5184,335.3732 203.6312,335.8234 203.6993,336.2826 203.7221,336.7462 203.6993,337.2098 203.6312,337.669 203.5184,338.1192 203.3621,338.5563 203.1636,338.9759 202.925,339.374 202.6484,339.7469 202.3367,340.0908 201.9928,340.4025 201.62,340.679 201.2218,340.9177 200.8022,341.1161 200.3652,341.2725 199.9149,341.3853 199.4557,341.4534 198.9921,341.4762 198.5285,341.4534 198.0694,341.3853 197.6191,341.2725 197.182,341.1161 196.7624,340.9177 196.3643,340.679 195.9915,340.4025 195.6475,340.0908"/>
    <polygon points="192.1798,331.5729 192.0235,332.0099 191.825,332.4296 191.5864,332.8277 191.3099,333.2005 190.9981,333.5445 190.6542,333.8562 190.2814,334.1327 189.8832,334.3713 189.4636,334.5698 189.0266,334.7262 188.5763,334.839 188.1172,334.9071 187.6535,334.9298 187.1899,334.9071 186.7308,334.839 186.2805,334.7262 185.8435,334.5698 185.4238,334.3713 185.0257,334.1327 184.6529,333.8562 184.3089,333.5445 183.9972,333.2005 183.7207,332.8277 183.4821,332.4296 183.2836,332.0099 183.1272,331.5729 183.0145,331.1226 182.9463,330.6635 182.9236,330.1999 182.9463,329.7362 183.0145,329.2771 183.1272,328.8268 183.2836,328.3898 183.4821,327.9702 183.7207,327.572 183.9972,327.1992 184.3089,326.8553 184.6529,326.5435 185.0257,326.267 185.4238,326.0284 185.8435,325.8299 186.2805,325.6736 186.7308,325.5608 187.1899,325.4927 187.6535,325.4699 188.1172,325.4927 188.5763,325.5608 189.0266,325.6736 189.4636,325.8299 189.8832,326.0284 190.2814,326.267 190.6542,326.5435 190.9981,326.8553 191.3099,327.1992 191.5864,327.572 191.825,327.9702 192.0235,328.3898 192.1798,328.8268 192.2926,329.2771 192.3607,329.7362 192.3835,330.1999 192.3607,330.6635 192.2926,331.1226"/>
    <polygon points="204.9716,328.1668 203.8769,328.3292 202.7717,328.3835 201.6664,328.3292 200.5718,328.1668 199.4983,327.898 198.4564,327.5251 197.456,327.052 196.5069,326.4831 195.618,325.8239 194.7981,325.0808 194.055,324.2608 193.3957,323.372 192.8268,322.4228 192.3537,321.4225 191.9809,320.3805 191.712,319.3071 191.5496,318.2125 191.4953,317.1072 191.5496,316.0019 191.712,314.9073 191.9809,313.8339 192.3537,312.7919 192.8268,311.7916 193.3957,310.8424 194.055,309.9536 194.7981,309.1336 195.618,308.3905 196.5069,307.7313 197.456,307.1624 198.4564,306.6892 199.4983,306.3164 200.5718,306.0476 201.6664,305.8852 202.7717,305.8309 203.8769,305.8852 204.9716,306.0476 206.045,306.3164 207.0869,306.6892 208.0873,307.1624 209.0364,307.7313 209.9253,308.3905 210.7452,309.1336 211.4884,309.9536 212.1476,310.8424 212.7165,311.7916 213.1896,312.7919 213.5624,313.8339 213.8313,314.9073 213.9937,316.0019 214.048,317.1072 213.9937,318.2125 213.8313,319.3071 213.5624,320.3805 213.1896,321.4225 212.7165,322.4228 212.1476,323.372 211.4884,324.2608 210.7452,325.0808 209.9253,325.8239 209.0364,326.4831 208.0873,327.052 207.0869,327.5251 206.045,327.898"/>
    <polygon points="225.6021,326.2814 225.3256,326.6542 225.0139,326.9981 224.67,327.3098 224.2971,327.5864 223.899,327.825 223.4794,328.0235 223.0423,328.1798 222.5921,328.2926 222.1329,328.3607 221.6693,328.3835 221.2057,328.3607 220.7465,328.2926 220.2963,328.1798 219.8592,328.0235 219.4396,327.825 219.0415,327.5864 218.6686,327.3098 218.3247,326.9981 218.013,326.6542 217.7365,326.2814 217.4978,325.8832 217.2994,325.4636 217.143,325.0266 217.0302,324.5763 216.9621,324.1172 216.9393,323.6535 216.9621,323.1899 217.0302,322.7308 217.143,322.2805 217.2994,321.8434 217.4978,321.4238 217.7365,321.0257 218.013,320.6529 218.3247,320.3089 218.6686,319.9972 219.0415,319.7207 219.4396,319.4821 219.8592,319.2836 220.2963,319.1272 220.7465,319.0144 221.2057,318.9463 221.6693,318.9236 222.1329,318.9463 222.5921,319.0144 223.0423,319.1272 223.4794,319.2836 223.899,319.4821 224.2971,319.7207 224.67,319.9972 225.0139,320.3089 225.3256,320.6529 225.6021,321.0257 225.8408,321.4238 226.0392,321.8434 226.1956,322.2805 226.3084,322.7308 226.3765,323.1899 226.3993,323.6535 226.3765,324.1172 226.3084,324.5763 226.1956,325.0266 226.0392,325.4636 225.8408,325.8832"/>
    <polygon points="237.3778,328.3898 237.1793,327.9702 236.9407,327.572 236.6642,327.1992 236.3525,326.8553 236.0085,326.5435 235.6357,326.267 235.2376,326.0284 234.818,325.8299 234.3809,325.6736 233.9306,325.5608 233.4715,325.4927 233.0079,325.4699 232.5443,325.4927 232.0851,325.5608 231.6348,325.6736 231.1978,325.8299 230.7782,326.0284 230.38,326.267 230.0072,326.5435 229.6633,326.8553 229.3516,327.1992 229.075,327.572 228.8364,327.9702 228.6379,328.3898 228.4816,328.8268 228.3688,329.2771 228.3007,329.7362 228.2779,330.1999 228.3007,330.6635 228.3688,331.1226 228.4816,331.5729 228.6379,332.0099 228.8364,332.4296 229.075,332.8277 229.3516,333.2005 229.6633,333.5445 230.0072,333.8562 230.38,334.1327 230.7782,334.3713 231.1978,334.5698 231.6348,334.7262 232.0851,334.839 232.5443,334.9071 233.0079,334.9298 233.4715,334.9071 233.9306,334.839 234.3809,334.7262 234.818,334.5698 235.2376,334.3713 235.6357,334.1327 236.0085,333.8562 236.3525,333.5445 236.6642,333.2005 236.9407,332.8277 237.1793,332.4296 237.3778,332.0099 237.5342,331.5729 237.647,331.1226 237.7151,330.6635 237.7378,330.1999 237.7151,329.7362 237.647,329.2771 237.5342,328.8268"/>
    <polygon points="247.3471,327.3098 247.6911,326.9981 248.0028,326.6542 248.2793,326.2814 248.5179,325.8832 248.7164,325.4636 248.8728,325.0266 248.9855,324.5763 249.0537,324.1172 249.0764,323.6535 249.0537,323.1899 248.9855,322.7308 248.8728,322.2805 248.7164,321.8434 248.5179,321.4238 248.2793,321.0257 248.0028,320.6529 247.6911,320.3089 247.3471,319.9972 246.9743,319.7207 246.5762,319.4821 246.1565,319.2836 245.7195,319.1272 245.2692,319.0144 244.8101,318.9463 244.3465,318.9236 243.8828,318.9463 243.4237,319.0144 242.9734,319.1272 242.5364,319.2836 242.1168,319.4821 241.7186,319.7207 241.3458,319.9972 241.0019,320.3089 240.6901,320.6529 240.4136,321.0257 240.175,321.4238 239.9765,321.8434 239.8202,322.2805 239.7074,322.7308 239.6393,323.1899 239.6165,323.6535 239.6393,324.1172 239.7074,324.5763 239.8202,325.0266 239.9765,325.4636 240.175,325.8832 240.4136,326.2814 240.6901,326.6542 241.0019,326.9981 241.3458,327.3098 241.7186,327.5864 242.1168,327.825 242.5364,328.0235 242.9734,328.1798 243.4237,328.2926 243.8828,328.3607 244.3465,328.3835 244.8101,328.3607 245.2692,328.2926 245.7195,328.1798 246.1565,328.0235 246.5762,327.825 246.9743,327.5864"/>
    <polygon points="237.647,318.03 237.5342,318.4802 237.3778,318.9173 237.1793,319.3369 236.9407,319.735 236.6642,320.1079 236.3525,320.4518 236.0085,320.7635 235.6357,321.04 235.2376,321.2787 234.818,321.4771 234.3809,321.6335 233.9306,321.7463 233.4715,321.8144 233.0079,321.8372 232.5443,321.8144 232.0851,321.7463 231.6348,321.6335 231.1978,321.4771 230.7782,321.2787 230.38,321.04 230.0072,320.7635 229.6633,320.4518 229.3516,320.1079 229.075,319.735 228.8364,319.3369 228.6379,318.9173 228.4816,318.4802 228.3688,318.03 228.3007,317.5708 228.2779,317.1072 228.3007,316.6436 228.3688,316.1844 228.4816,315.7342 228.6379,315.2971 228.8364,314.8775 229.075,314.4794 229.3516,314.1065 229.6633,313.7626 230.0072,313.4509 230.38,313.1744 230.7782,312.9357 231.1978,312.7373 231.6348,312.5809 232.0851,312.4681 232.5443,312.4 233.0079,312.3772 233.4715,312.4 233.9306,312.4681 234.3809,312.5809 234.818,312.7373 235.2376,312.9357 235.6357,313.1744 236.0085,313.4509 236.3525,313.7626 236.6642,314.1065 236.9407,314.4794 237.1793,314.8775 237.3778,315.2971 237.5342,315.7342 237.647,316.1844 237.7151,316.6436 237.7378,317.1072 237.7151,317.5708"/>
    <polygon points="243.4237,315.2 242.9734,315.0872 242.5364,314.9308 242.1168,314.7323 241.7186,314.4937 241.3458,314.2172 241.0019,313.9055 240.6901,313.5615 240.4136,313.1887 240.175,312.7906 239.9765,312.3709 239.8202,311.9339 239.7074,311.4836 239.6393,311.0245 239.6165,310.5609 239.6393,310.0972 239.7074,309.6381 239.8202,309.1878 239.9765,308.7508 240.175,308.3312 240.4136,307.933 240.6901,307.5602 241.0019,307.2163 241.3458,306.9045 241.7186,306.628 242.1168,306.3894 242.5364,306.1909 242.9734,306.0346 243.4237,305.9218 243.8828,305.8537 244.3465,305.8309 244.8101,305.8537 245.2692,305.9218 245.7195,306.0346 246.1565,306.1909 246.5762,306.3894 246.9743,306.628 247.3471,306.9045 247.6911,307.2163 248.0028,307.5602 248.2793,307.933 248.5179,308.3312 248.7164,308.7508 248.8728,309.1878 248.9855,309.6381 249.0537,310.0972 249.0764,310.5609 249.0537,311.0245 248.9855,311.4836 248.8728,311.9339 248.7164,312.3709 248.5179,312.7906 248.2793,313.1887 248.0028,313.5615 247.6911,313.9055 247.3471,314.2172 246.9743,314.4937 246.5762,314.7323 246.1565,314.9308 245.7195,315.0872 245.2692,315.2 244.8101,315.2681 244.3465,315.2908 243.8828,315.2681"/>
    <polygon points="238.7501,297.1866 238.1812,296.2375 237.708,295.2371 237.3352,294.1952 237.0663,293.1218 236.904,292.0271 236.8497,290.9219 236.904,289.8166 237.0663,288.722 237.3352,287.6485 237.708,286.6066 238.1812,285.6062 238.7501,284.6571 239.4093,283.7682 240.1524,282.9483 240.9724,282.2052 241.8612,281.546 242.8104,280.977 243.8107,280.5039 244.8526,280.1311 245.9261,279.8622 247.0207,279.6999 248.126,279.6456 249.2313,279.6999 250.3259,279.8622 251.3993,280.1311 252.4412,280.5039 253.4416,280.977 254.3908,281.546 255.2796,282.2052 256.0995,282.9483 256.8427,283.7682 257.5019,284.6571 258.0708,285.6062 258.5439,286.6066 258.9167,287.6485 259.1856,288.722 259.348,289.8166 259.4023,290.9219 259.348,292.0271 259.1856,293.1218 258.9167,294.1952 258.5439,295.2371 258.0708,296.2375 257.5019,297.1866 256.8427,298.0755 256.0995,298.8954 255.2796,299.6386 254.3908,300.2978 253.4416,300.8667 252.4412,301.3398 251.3993,301.7126 250.3259,301.9815 249.2313,302.1439 248.126,302.1982 247.0207,302.1439 245.9261,301.9815 244.8526,301.7126 243.8107,301.3398 242.8104,300.8667 241.8612,300.2978 240.9724,299.6386 240.1524,298.8954 239.4093,298.0755"/>
    <polygon points="234.5823,275.4406 234.2314,273.075 233.6504,270.7553 232.8447,268.5036 231.8222,266.3417 230.5928,264.2905 229.1682,262.3697 227.5622,260.5977 225.7902,258.9917 223.8694,257.5671 221.8182,256.3377 219.6563,255.3152 217.4046,254.5095 215.0849,253.9285 212.7193,253.5776 210.3307,253.4602 207.9421,253.5776 205.5766,253.9285 203.2568,254.5095 201.0051,255.3152 198.8433,256.3377 196.792,257.5671 194.8712,258.9917 193.0992,260.5977 191.4932,262.3697 190.0686,264.2905 188.8392,266.3417 187.8167,268.5036 187.0111,270.7553 186.43,273.075 186.0791,275.4406 185.9617,277.8292 186.0791,280.2178 186.43,282.5833 187.0111,284.9031 187.8167,287.1548 188.8392,289.3167 190.0686,291.3679 191.4932,293.2887 193.0992,295.0607 194.8712,296.6667 196.792,298.0913 198.8433,299.3207 201.0051,300.3432 203.2568,301.1488 205.5766,301.7299 207.9421,302.0808 210.3307,302.1982 212.7193,302.0808 215.0849,301.7299 217.4046,301.1488 219.6563,300.3432 221.8182,299.3207 223.8694,298.0913 225.7902,296.6667 227.5622,295.0607 229.1682,293.2887 230.5928,291.3679 231.8222,289.3167 232.8447,287.1548 233.6504,284.9031 234.2314,282.5833 234.5823,280.2178 234.6997,277.8292"/>
    <polygon points="236.904,265.8418 237.0663,266.9364 237.3352,268.0099 237.708,269.0518 238.1812,270.0521 238.7501,271.0013 239.4093,271.8901 240.1524,272.7101 240.9724,273.4532 241.8612,274.1124 242.8104,274.6813 243.8107,275.1545 244.8526,275.5273 245.9261,275.7962 247.0207,275.9585 248.126,276.0128 249.2313,275.9585 250.3259,275.7962 251.3993,275.5273 252.4412,275.1545 253.4416,274.6813 254.3908,274.1124 255.2796,273.4532 256.0995,272.7101 256.8427,271.8901 257.5019,271.0013 258.0708,270.0521 258.5439,269.0518 258.9167,268.0099 259.1856,266.9364 259.348,265.8418 259.4023,264.7365 259.348,263.6313 259.1856,262.5366 258.9167,261.4632 258.5439,260.4213 258.0708,259.4209 257.5019,258.4717 256.8427,257.5829 256.0995,256.763 255.2796,256.0198 254.3908,255.3606 253.4416,254.7917 252.4412,254.3186 251.3993,253.9458 250.3259,253.6769 249.2313,253.5145 248.126,253.4602 247.0207,253.5145 245.9261,253.6769 244.8526,253.9458 243.8107,254.3186 242.8104,254.7917 241.8612,255.3606 240.9724,256.0198 240.1524,256.763 239.4093,257.5829 238.7501,258.4717 238.1812,259.4209 237.708,260.4213 237.3352,261.4632 237.0663,262.5366 236.904,263.6313 236.8497,264.7365"/>
    <polygon points="234.818,247.2739 234.3809,247.1176 233.9306,247.0048 233.4715,246.9367 233.0079,246.9139 232.5443,246.9367 232.0851,247.0048 231.6348,247.1176 231.1978,247.2739 230.7782,247.4724 230.38,247.711 230.0072,247.9875 229.6633,248.2993 229.3516,248.6432 229.075,249.016 228.8364,249.4142 228.6379,249.8338 228.4816,250.2708 228.3688,250.7211 228.3007,251.1802 228.2779,251.6439 228.3007,252.1075 228.3688,252.5666 228.4816,253.0169 228.6379,253.4539 228.8364,253.8736 229.075,254.2717 229.3516,254.6445 229.6633,254.9885 230.0072,255.3002 230.38,255.5767 230.7782,255.8153 231.1978,256.0138 231.6348,256.1702 232.0851,256.2829 232.5443,256.3511 233.0079,256.3738 233.4715,256.3511 233.9306,256.2829 234.3809,256.1702 234.818,256.0138 235.2376,255.8153 235.6357,255.5767 236.0085,255.3002 236.3525,254.9885 236.6642,254.6445 236.9407,254.2717 237.1793,253.8736 237.3778,253.4539 237.5342,253.0169 237.647,252.5666 237.7151,252.1075 237.7378,251.6439 237.7151,251.1802 237.647,250.7211 237.5342,250.2708 237.3778,249.8338 237.1793,249.4142 236.9407,249.016 236.6642,248.6432 236.3525,248.2993 236.0085,247.9875 235.6357,247.711 235.2376,247.4724"/>
    <polygon points="226.3993,232.0049 226.3765,232.4685 226.3084,232.9276 226.1956,233.3779 226.0392,233.8149 225.8408,234.2346 225.6021,234.6327 225.3256,235.0055 225.0139,235.3495 224.67,235.6612 224.2971,235.9377 223.899,236.1763 223.4794,236.3748 223.0423,236.5312 222.5921,236.6439 222.1329,236.7121 221.6693,236.7348 221.2057,236.7121 220.7465,236.6439 220.2963,236.5312 219.8592,236.3748 219.4396,236.1763 219.0415,235.9377 218.6686,235.6612 218.3247,235.3495 218.013,235.0055 217.7365,234.6327 217.4978,234.2346 217.2994,233.8149 217.143,233.3779 217.0302,232.9276 216.9621,232.4685 216.9393,232.0049 216.9621,231.5412 217.0302,231.0821 217.143,230.6318 217.2994,230.1948 217.4978,229.7752 217.7365,229.377 218.013,229.0042 218.3247,228.6603 218.6686,228.3485 219.0415,228.072 219.4396,227.8334 219.8592,227.6349 220.2963,227.4786 220.7465,227.3658 221.2057,227.2977 221.6693,227.2749 222.1329,227.2977 222.5921,227.3658 223.0423,227.4786 223.4794,227.6349 223.899,227.8334 224.2971,228.072 224.67,228.3485 225.0139,228.6603 225.3256,229.0042 225.6021,229.377 225.8408,229.7752 226.0392,230.1948 226.1956,230.6318 226.3084,231.0821 226.3765,231.5412"/>
    <polygon points="237.7151,238.0876 237.7378,238.5512 237.7151,239.0148 237.647,239.474 237.5342,239.9242 237.3778,240.3613 237.1793,240.7809 236.9407,241.179 236.6642,241.5519 236.3525,241.8958 236.0085,242.2075 235.6357,242.484 235.2376,242.7227 234.818,242.9211 234.3809,243.0775 233.9306,243.1903 233.4715,243.2584 233.0079,243.2812 232.5443,243.2584 232.0851,243.1903 231.6348,243.0775 231.1978,242.9211 230.7782,242.7227 230.38,242.484 230.0072,242.2075 229.6633,241.8958 229.3516,241.5519 229.075,241.179 228.8364,240.7809 228.6379,240.3613 228.4816,239.9242 228.3688,239.474 228.3007,239.0148 228.2779,238.5512 228.3007,238.0876 228.3688,237.6284 228.4816,237.1782 228.6379,236.7411 228.8364,236.3215 229.075,235.9234 229.3516,235.5505 229.6633,235.2066 230.0072,234.8949 230.38,234.6184 230.7782,234.3797 231.1978,234.1813 231.6348,234.0249 232.0851,233.9121 232.5443,233.844 233.0079,233.8212 233.4715,233.844 233.9306,233.9121 234.3809,234.0249 234.818,234.1813 235.2376,234.3797 235.6357,234.6184 236.0085,234.8949 236.3525,235.2066 236.6642,235.5505 236.9407,235.9234 237.1793,236.3215 237.3778,236.7411 237.5342,237.1782 237.647,237.6284"/>
    <polygon points="247.6911,248.4421 248.0028,248.0982 248.2793,247.7254 248.5179,247.3272 248.7164,246.9076 248.8728,246.4706 248.9855,246.0203 249.0537,245.5611 249.0764,245.0975 249.0537,244.6339 248.9855,244.1748 248.8728,243.7245 248.7164,243.2874 248.5179,242.8678 248.2793,242.4697 248.0028,242.0969 247.6911,241.7529 247.3471,241.4412 246.9743,241.1647 246.5762,240.9261 246.1565,240.7276 245.7195,240.5712 245.2692,240.4584 244.8101,240.3903 244.3465,240.3676 243.8828,240.3903 243.4237,240.4584 242.9734,240.5712 242.5364,240.7276 242.1168,240.9261 241.7186,241.1647 241.3458,241.4412 241.0019,241.7529 240.6901,242.0969 240.4136,242.4697 240.175,242.8678 239.9765,243.2874 239.8202,243.7245 239.7074,244.1748 239.6393,244.6339 239.6165,245.0975 239.6393,245.5611 239.7074,246.0203 239.8202,246.4706 239.9765,246.9076 240.175,247.3272 240.4136,247.7254 240.6901,248.0982 241.0019,248.4421 241.3458,248.7538 241.7186,249.0304 242.1168,249.269 242.5364,249.4675 242.9734,249.6238 243.4237,249.7366 243.8828,249.8047 244.3465,249.8275 244.8101,249.8047 245.2692,249.7366 245.7195,249.6238 246.1565,249.4675 246.5762,249.269 246.9743,249.0304 247.3471,248.7538"/>
    <polygon points="266.56,236.7121 267.0236,236.7348 267.4872,236.7121 267.9464,236.6439 268.3967,236.5312 268.8337,236.3748 269.2533,236.1763 269.6515,235.9377 270.0243,235.6612 270.3682,235.3495 270.6799,235.0055 270.9565,234.6327 271.1951,234.2346 271.3935,233.8149 271.5499,233.3779 271.6627,232.9276 271.7308,232.4685 271.7536,232.0049 271.7308,231.5412 271.6627,231.0821 271.5499,230.6318 271.3935,230.1948 271.1951,229.7752 270.9565,229.377 270.6799,229.0042 270.3682,228.6603 270.0243,228.3485 269.6515,228.072 269.2533,227.8334 268.8337,227.6349 268.3967,227.4786 267.9464,227.3658 267.4872,227.2977 267.0236,227.2749 266.56,227.2977 266.1009,227.3658 265.6506,227.4786 265.2135,227.6349 264.7939,227.8334 264.3958,228.072 264.023,228.3485 263.679,228.6603 263.3673,229.0042 263.0908,229.377 262.8522,229.7752 262.6537,230.1948 262.4973,230.6318 262.3845,231.0821 262.3164,231.5412 262.2936,232.0049 262.3164,232.4685 262.3845,232.9276 262.4973,233.3779 262.6537,233.8149 262.8522,234.2346 263.0908,234.6327 263.3673,235.0055 263.679,235.3495 264.023,235.6612 264.3958,235.9377 264.7939,236.1763 265.2135,236.3748 265.6506,236.5312 266.1009,236.6439"/>
    <polygon points="294.4308,245.0975 294.408,245.5611 294.3399,246.0203 294.2271,246.4706 294.0707,246.9076 293.8723,247.3272 293.6336,247.7254 293.3571,248.0982 293.0454,248.4421 292.7015,248.7538 292.3286,249.0304 291.9305,249.269 291.5109,249.4675 291.0738,249.6238 290.6236,249.7366 290.1644,249.8047 289.7008,249.8275 289.2372,249.8047 288.778,249.7366 288.3277,249.6238 287.8907,249.4675 287.4711,249.269 287.073,249.0304 286.7001,248.7538 286.3562,248.4421 286.0445,248.0982 285.768,247.7254 285.5293,247.3272 285.3309,246.9076 285.1745,246.4706 285.0617,246.0203 284.9936,245.5611 284.9708,245.0975 284.9936,244.6339 285.0617,244.1748 285.1745,243.7245 285.3309,243.2874 285.5293,242.8678 285.768,242.4697 286.0445,242.0969 286.3562,241.7529 286.7001,241.4412 287.073,241.1647 287.4711,240.9261 287.8907,240.7276 288.3277,240.5712 288.778,240.4584 289.2372,240.3903 289.7008,240.3676 290.1644,240.3903 290.6236,240.4584 291.0738,240.5712 291.5109,240.7276 291.9305,240.9261 292.3286,241.1647 292.7015,241.4412 293.0454,241.7529 293.3571,242.0969 293.6336,242.4697 293.8723,242.8678 294.0707,243.2874 294.2271,243.7245 294.3399,244.1748 294.408,244.6339"/>
    <polygon points="282.0252,252.7491 281.8628,253.8438 281.5939,254.9172 281.2211,255.9591 280.748,256.9595 280.1791,257.9086 279.5199,258.7975 278.7767,259.6174 277.9568,260.3606 277.0679,261.0198 276.1188,261.5887 275.1184,262.0618 274.0765,262.4346 273.003,262.7035 271.9084,262.8659 270.8031,262.9202 269.6979,262.8659 268.6033,262.7035 267.5298,262.4346 266.4879,262.0618 265.4875,261.5887 264.5384,261.0198 263.6495,260.3606 262.8296,259.6174 262.0864,258.7975 261.4272,257.9086 260.8583,256.9595 260.3852,255.9591 260.0124,254.9172 259.7435,253.8438 259.5811,252.7491 259.5268,251.6439 259.5811,250.5386 259.7435,249.444 260.0124,248.3705 260.3852,247.3286 260.8583,246.3282 261.4272,245.3791 262.0864,244.4902 262.8296,243.6703 263.6495,242.9272 264.5384,242.268 265.4875,241.699 266.4879,241.2259 267.5298,240.8531 268.6033,240.5842 269.6979,240.4219 270.8031,240.3676 271.9084,240.4219 273.003,240.5842 274.0765,240.8531 275.1184,241.2259 276.1188,241.699 277.0679,242.268 277.9568,242.9272 278.7767,243.6703 279.5199,244.4902 280.1791,245.3791 280.748,246.3282 281.2211,247.3286 281.5939,248.3705 281.8628,249.444 282.0252,250.5386 282.0795,251.6439"/>
    <polygon points="264.3958,267.35 264.7939,267.1114 265.2135,266.9129 265.6506,266.7566 266.1009,266.6438 266.56,266.5757 267.0236,266.5529 267.4872,266.5757 267.9464,266.6438 268.3967,266.7566 268.8337,266.9129 269.2533,267.1114 269.6515,267.35 270.0243,267.6265 270.3682,267.9383 270.6799,268.2822 270.9565,268.655 271.1951,269.0532 271.3935,269.4728 271.5499,269.9098 271.6627,270.3601 271.7308,270.8192 271.7536,271.2829 271.7308,271.7465 271.6627,272.2056 271.5499,272.6559 271.3935,273.0929 271.1951,273.5126 270.9565,273.9107 270.6799,274.2835 270.3682,274.6275 270.0243,274.9392 269.6515,275.2157 269.2533,275.4543 268.8337,275.6528 268.3967,275.8092 267.9464,275.9219 267.4872,275.9901 267.0236,276.0128 266.56,275.9901 266.1009,275.9219 265.6506,275.8092 265.2135,275.6528 264.7939,275.4543 264.3958,275.2157 264.023,274.9392 263.679,274.6275 263.3673,274.2835 263.0908,273.9107 262.8522,273.5126 262.6537,273.0929 262.4973,272.6559 262.3845,272.2056 262.3164,271.7465 262.2936,271.2829 262.3164,270.8192 262.3845,270.3601 262.4973,269.9098 262.6537,269.4728 262.8522,269.0532 263.0908,268.655 263.3673,268.2822 263.679,267.9383 264.023,267.6265"/>
    <polygon points="263.0908,287.0034 262.8522,286.6052 262.6537,286.1856 262.4973,285.7486 262.3845,285.2983 262.3164,284.8391 262.2936,284.3755 262.3164,283.9119 262.3845,283.4528 262.4973,283.0025 262.6537,282.5654 262.8522,282.1458 263.0908,281.7477 263.3673,281.3749 263.679,281.0309 264.023,280.7192 264.3958,280.4427 264.7939,280.2041 265.2135,280.0056 265.6506,279.8492 266.1009,279.7364 266.56,279.6683 267.0236,279.6456 267.4872,279.6683 267.9464,279.7364 268.3967,279.8492 268.8337,280.0056 269.2533,280.2041 269.6515,280.4427 270.0243,280.7192 270.3682,281.0309 270.6799,281.3749 270.9565,281.7477 271.1951,282.1458 271.3935,282.5654 271.5499,283.0025 271.6627,283.4528 271.7308,283.9119 271.7536,284.3755 271.7308,284.8391 271.6627,285.2983 271.5499,285.7486 271.3935,286.1856 271.1951,286.6052 270.9565,287.0034 270.6799,287.3762 270.3682,287.7201 270.0243,288.0318 269.6515,288.3084 269.2533,288.547 268.8337,288.7455 268.3967,288.9018 267.9464,289.0146 267.4872,289.0827 267.0236,289.1055 266.56,289.0827 266.1009,289.0146 265.6506,288.9018 265.2135,288.7455 264.7939,288.547 264.3958,288.3084 264.023,288.0318 263.679,287.7201 263.3673,287.3762"/>
    <polygon points="271.7308,297.0046 271.7536,297.4682 271.7308,297.9318 271.6627,298.391 271.5499,298.8412 271.3935,299.2783 271.1951,299.6979 270.9565,300.096 270.6799,300.4689 270.3682,300.8128 270.0243,301.1245 269.6515,301.401 269.2533,301.6397 268.8337,301.8381 268.3967,301.9945 267.9464,302.1073 267.4872,302.1754 267.0236,302.1982 266.56,302.1754 266.1009,302.1073 265.6506,301.9945 265.2135,301.8381 264.7939,301.6397 264.3958,301.401 264.023,301.1245 263.679,300.8128 263.3673,300.4689 263.0908,300.096 262.8522,299.6979 262.6537,299.2783 262.4973,298.8412 262.3845,298.391 262.3164,297.9318 262.2936,297.4682 262.3164,297.0046 262.3845,296.5454 262.4973,296.0952 262.6537,295.6581 262.8522,295.2385 263.0908,294.8404 263.3673,294.4675 263.679,294.1236 264.023,293.8119 264.3958,293.5354 264.7939,293.2967 265.2135,293.0983 265.6506,292.9419 266.1009,292.8291 266.56,292.761 267.0236,292.7382 267.4872,292.761 267.9464,292.8291 268.3967,292.9419 268.8337,293.0983 269.2533,293.2967 269.6515,293.5354 270.0243,293.8119 270.3682,294.1236 270.6799,294.4675 270.9565,294.8404 271.1951,295.2385 271.3935,295.6581 271.5499,296.0952 271.6627,296.5454"/>
    <polygon points="273.9923,292.7319 273.8359,292.2949 273.7231,291.8446 273.655,291.3855 273.6322,290.9219 273.655,290.4582 273.7231,289.9991 273.8359,289.5488 273.9923,289.1118 274.1907,288.6922 274.4294,288.294 274.7059,287.9212 275.0176,287.5773 275.3615,287.2655 275.7344,286.989 276.1325,286.7504 276.5521,286.5519 276.9892,286.3956 277.4394,286.2828 277.8986,286.2147 278.3622,286.1919 278.8258,286.2147 279.285,286.2828 279.7352,286.3956 280.1723,286.5519 280.5919,286.7504 280.99,286.989 281.3629,287.2655 281.7068,287.5773 282.0185,287.9212 282.295,288.294 282.5337,288.6922 282.7321,289.1118 282.8885,289.5488 283.0013,289.9991 283.0694,290.4582 283.0922,290.9219 283.0694,291.3855 283.0013,291.8446 282.8885,292.2949 282.7321,292.7319 282.5337,293.1516 282.295,293.5497 282.0185,293.9225 281.7068,294.2665 281.3629,294.5782 280.99,294.8547 280.5919,295.0933 280.1723,295.2918 279.7352,295.4482 279.285,295.561 278.8258,295.6291 278.3622,295.6518 277.8986,295.6291 277.4394,295.561 276.9892,295.4482 276.5521,295.2918 276.1325,295.0933 275.7344,294.8547 275.3615,294.5782 275.0176,294.2665 274.7059,293.9225 274.4294,293.5497 274.1907,293.1516"/>
    <polygon points="286.3562,281.0309 286.7001,280.7192 287.073,280.4427 287.4711,280.2041 287.8907,280.0056 288.3277,279.8492 288.778,279.7364 289.2372,279.6683 289.7008,279.6456 290.1644,279.6683 290.6236,279.7364 291.0738,279.8492 291.5109,280.0056 291.9305,280.2041 292.3286,280.4427 292.7015,280.7192 293.0454,281.0309 293.3571,281.3749 293.6336,281.7477 293.8723,282.1458 294.0707,282.5654 294.2271,283.0025 294.3399,283.4528 294.408,283.9119 294.4308,284.3755 294.408,284.8391 294.3399,285.2983 294.2271,285.7486 294.0707,286.1856 293.8723,286.6052 293.6336,287.0034 293.3571,287.3762 293.0454,287.7201 292.7015,288.0318 292.3286,288.3084 291.9305,288.547 291.5109,288.7455 291.0738,288.9018 290.6236,289.0146 290.1644,289.0827 289.7008,289.1055 289.2372,289.0827 288.778,289.0146 288.3277,288.9018 287.8907,288.7455 287.4711,288.547 287.073,288.3084 286.7001,288.0318 286.3562,287.7201 286.0445,287.3762 285.768,287.0034 285.5293,286.6052 285.3309,286.1856 285.1745,285.7486 285.0617,285.2983 284.9936,284.8391 284.9708,284.3755 284.9936,283.9119 285.0617,283.4528 285.1745,283.0025 285.3309,282.5654 285.5293,282.1458 285.768,281.7477 286.0445,281.3749"/>
    <polygon points="305.4093,289.1118 305.2108,288.6922 304.9722,288.294 304.6957,287.9212 304.384,287.5773 304.04,287.2655 303.6672,286.989 303.2691,286.7504 302.8495,286.5519 302.4124,286.3956 301.9621,286.2828 301.503,286.2147 301.0394,286.1919 300.5758,286.2147 300.1166,286.2828 299.6663,286.3956 299.2293,286.5519 298.8097,286.7504 298.4115,286.989 298.0387,287.2655 297.6948,287.5773 297.3831,287.9212 297.1065,288.294 296.8679,288.6922 296.6694,289.1118 296.5131,289.5488 296.4003,289.9991 296.3322,290.4582 296.3094,290.9219 296.3322,291.3855 296.4003,291.8446 296.5131,292.2949 296.6694,292.7319 296.8679,293.1516 297.1065,293.5497 297.3831,293.9225 297.6948,294.2665 298.0387,294.5782 298.4115,294.8547 298.8097,295.0933 299.2293,295.2918 299.6663,295.4482 300.1166,295.561 300.5758,295.6291 301.0394,295.6518 301.503,295.6291 301.9621,295.561 302.4124,295.4482 302.8495,295.2918 303.2691,295.0933 303.6672,294.8547 304.04,294.5782 304.384,294.2665 304.6957,293.9225 304.9722,293.5497 305.2108,293.1516 305.4093,292.7319 305.5657,292.2949 305.6785,291.8446 305.7466,291.3855 305.7693,290.9219 305.7466,290.4582 305.6785,289.9991 305.5657,289.5488"/>
    <polygon points="308.2065,286.6052 308.4451,287.0034 308.7216,287.3762 309.0334,287.7201 309.3773,288.0318 309.7501,288.3084 310.1483,288.547 310.5679,288.7455 311.0049,288.9018 311.4552,289.0146 311.9143,289.0827 312.378,289.1055 312.8416,289.0827 313.3007,289.0146 313.751,288.9018 314.188,288.7455 314.6076,288.547 315.0058,288.3084 315.3786,288.0318 315.7225,287.7201 316.0343,287.3762 316.3108,287.0034 316.5494,286.6052 316.7479,286.1856 316.9043,285.7486 317.017,285.2983 317.0851,284.8391 317.1079,284.3755 317.0851,283.9119 317.017,283.4528 316.9043,283.0025 316.7479,282.5654 316.5494,282.1458 316.3108,281.7477 316.0343,281.3749 315.7225,281.0309 315.3786,280.7192 315.0058,280.4427 314.6076,280.2041 314.188,280.0056 313.751,279.8492 313.3007,279.7364 312.8416,279.6683 312.378,279.6456 311.9143,279.6683 311.4552,279.7364 311.0049,279.8492 310.5679,280.0056 310.1483,280.2041 309.7501,280.4427 309.3773,280.7192 309.0334,281.0309 308.7216,281.3749 308.4451,281.7477 308.2065,282.1458 308.008,282.5654 307.8517,283.0025 307.7389,283.4528 307.6708,283.9119 307.648,284.3755 307.6708,284.8391 307.7389,285.2983 307.8517,285.7486 308.008,286.1856"/>
  </g>
</svg>
