<?xml version="1.0" encoding="utf-8" ?>
<svg xmlns="http://www.w3.org/2000/svg" xmlns:cc="http://creativecommons.org/ns" xmlns:dc="http://purl.org/dc/elements/1.1/" xmlns:ev="http://www.w3.org/2001/xml-events" xmlns:inkscape="http://www.inkscape.org/namespaces/inkscape" xmlns:rdf="http://www.w3.org/1999/02/22-rdf-syntax-ns" xmlns:sodipodi="http://sodipodi.sourceforge.net/DTD/sodipodi-0.dtd" xmlns:xlink="http://www.w3.org/1999/xlink" baseProfile="tiny" height="15.875cm" version="1.2" viewBox="0 0 432.0 600.0" width="11.43cm">
  <metadata>
    <rdf:RDF>
      <cc:Work>
        <dc:format>image/svg+xml</dc:format>
        <dc:source>vsk save -s 168 -c hex-grid/config/bubble-coasters-2.json /Users/tobin/src/fabian/plotting/fabian-plotting/hex-grid/sketch_hex_grid.py</dc:source>
        <dc:date>2023-11-04T10:32:59.621113</dc:date>
      </cc:Work>
    </rdf:RDF>
  </metadata>
  <defs/>
  <g fill="none" id="layer1" inkscape:groupmode="layer" inkscape:label="1" stroke="#000000" stroke-width="0.7559" style="display:inline">
    <polygon points="163.4698,218.6397 163.158,218.9836 162.8141,219.2953 162.4413,219.5719 162.0431,219.8105 161.6235,220.0089 161.1865,220.1653 160.7362,220.2781 160.2771,220.3462 159.8134,220.369 159.3498,220.3462 158.8907,220.2781 158.4404,220.1653 158.0034,220.0089 157.5838,219.8105 157.1856,219.5719 156.8128,219.2953 156.4689,218.9836 156.1571,218.6397 155.8806,218.2669 155.642,217.8687 155.4435,217.4491 155.2871,217.0121 155.1744,216.5618 155.1063,216.1026 155.0835,215.639 155.1063,215.1754 155.1744,214.7163 155.2871,214.266 155.4435,213.8289 155.642,213.4093 155.8806,213.0112 156.1571,212.6384 156.4689,212.2944 156.8128,211.9827 157.1856,211.7062 157.5838,211.4676 158.0034,211.2691 158.4404,211.1127 158.8907,210.9999 159.3498,210.9318 159.8134,210.9091 160.2771,210.9318 160.7362,210.9999 161.1865,211.1127 161.6235,211.2691 162.0431,211.4676 162.4413,211.7062 162.8141,211.9827 163.158,212.2944 163.4698,212.6384 163.7463,213.0112 163.9849,213.4093 164.1834,213.8289 164.3397,214.266 164.4525,214.7163 164.5206,215.1754 164.5434,215.639 164.5206,216.1026 164.4525,216.5618 164.3397,217.0121 164.1834,217.4491 163.9849,217.8687 163.7463,218.2669"/>
    <polygon points="159.2777,245.696 158.2774,245.2228 157.3282,244.6539 156.4394,243.9947 155.6194,243.2516 154.8763,242.4316 154.2171,241.5428 153.6482,240.5936 153.175,239.5933 152.8022,238.5514 152.5333,237.4779 152.371,236.3833 152.3167,235.278 152.371,234.1728 152.5333,233.0781 152.8022,232.0047 153.175,230.9628 153.6482,229.9624 154.2171,229.0132 154.8763,228.1244 155.6194,227.3045 156.4394,226.5613 157.3282,225.9021 158.2774,225.3332 159.2777,224.8601 160.3196,224.4873 161.3931,224.2184 162.4877,224.056 163.593,224.0017 164.6982,224.056 165.7929,224.2184 166.8663,224.4873 167.9082,224.8601 168.9086,225.3332 169.8578,225.9021 170.7466,226.5613 171.5665,227.3045 172.3097,228.1244 172.9689,229.0132 173.5378,229.9624 174.0109,230.9628 174.3837,232.0047 174.6526,233.0781 174.815,234.1728 174.8693,235.278 174.815,236.3833 174.6526,237.4779 174.3837,238.5514 174.0109,239.5933 173.5378,240.5936 172.9689,241.5428 172.3097,242.4316 171.5665,243.2516 170.7466,243.9947 169.8578,244.6539 168.9086,245.2228 167.9082,245.696 166.8663,246.0688 165.7929,246.3377 164.6982,246.5 163.593,246.5543 162.4877,246.5 161.3931,246.3377 160.3196,246.0688"/>
    <polygon points="144.3034,246.141 144.1049,246.5606 143.9486,246.9977 143.8358,247.4479 143.7677,247.9071 143.7449,248.3707 143.7677,248.8343 143.8358,249.2935 143.9486,249.7437 144.1049,250.1808 144.3034,250.6004 144.542,250.9985 144.8185,251.3714 145.1303,251.7153 145.4742,252.027 145.847,252.3035 146.2452,252.5422 146.6648,252.7406 147.1018,252.897 147.5521,253.0098 148.0112,253.0779 148.4749,253.1007 148.9385,253.0779 149.3976,253.0098 149.8479,252.897 150.2849,252.7406 150.7046,252.5422 151.1027,252.3035 151.4755,252.027 151.8195,251.7153 152.1312,251.3714 152.4077,250.9985 152.6463,250.6004 152.8448,250.1808 153.0012,249.7437 153.114,249.2935 153.1821,248.8343 153.2048,248.3707 153.1821,247.9071 153.114,247.4479 153.0012,246.9977 152.8448,246.5606 152.6463,246.141 152.4077,245.7429 152.1312,245.37 151.8195,245.0261 151.4755,244.7144 151.1027,244.4379 150.7046,244.1992 150.2849,244.0008 149.8479,243.8444 149.3976,243.7316 148.9385,243.6635 148.4749,243.6407 148.0112,243.6635 147.5521,243.7316 147.1018,243.8444 146.6648,244.0008 146.2452,244.1992 145.847,244.4379 145.4742,244.7144 145.1303,245.0261 144.8185,245.37 144.542,245.7429"/>
    <polygon points="158.8907,259.5561 159.3498,259.6242 159.8134,259.647 160.2771,259.6242 160.7362,259.5561 161.1865,259.4433 161.6235,259.287 162.0431,259.0885 162.4413,258.8499 162.8141,258.5733 163.158,258.2616 163.4698,257.9177 163.7463,257.5449 163.9849,257.1467 164.1834,256.7271 164.3397,256.2901 164.4525,255.8398 164.5206,255.3806 164.5434,254.917 164.5206,254.4534 164.4525,253.9943 164.3397,253.544 164.1834,253.1069 163.9849,252.6873 163.7463,252.2892 163.4698,251.9164 163.158,251.5724 162.8141,251.2607 162.4413,250.9842 162.0431,250.7456 161.6235,250.5471 161.1865,250.3907 160.7362,250.2779 160.2771,250.2098 159.8134,250.1871 159.3498,250.2098 158.8907,250.2779 158.4404,250.3907 158.0034,250.5471 157.5838,250.7456 157.1856,250.9842 156.8128,251.2607 156.4689,251.5724 156.1571,251.9164 155.8806,252.2892 155.642,252.6873 155.4435,253.1069 155.2871,253.544 155.1744,253.9943 155.1063,254.4534 155.0835,254.917 155.1063,255.3806 155.1744,255.8398 155.2871,256.2901 155.4435,256.7271 155.642,257.1467 155.8806,257.5449 156.1571,257.9177 156.4689,258.2616 156.8128,258.5733 157.1856,258.8499 157.5838,259.0885 158.0034,259.287 158.4404,259.4433"/>
    <polygon points="170.6884,266.1706 171.152,266.1933 171.6156,266.1706 172.0748,266.1024 172.5251,265.9897 172.9621,265.8333 173.3817,265.6348 173.7799,265.3962 174.1527,265.1197 174.4966,264.808 174.8083,264.464 175.0849,264.0912 175.3235,263.6931 175.522,263.2734 175.6783,262.8364 175.7911,262.3861 175.8592,261.927 175.882,261.4634 175.8592,260.9997 175.7911,260.5406 175.6783,260.0903 175.522,259.6533 175.3235,259.2337 175.0849,258.8355 174.8083,258.4627 174.4966,258.1188 174.1527,257.807 173.7799,257.5305 173.3817,257.2919 172.9621,257.0934 172.5251,256.9371 172.0748,256.8243 171.6156,256.7562 171.152,256.7334 170.6884,256.7562 170.2293,256.8243 169.779,256.9371 169.3419,257.0934 168.9223,257.2919 168.5242,257.5305 168.1514,257.807 167.8074,258.1188 167.4957,258.4627 167.2192,258.8355 166.9806,259.2337 166.7821,259.6533 166.6257,260.0903 166.5129,260.5406 166.4448,260.9997 166.4221,261.4634 166.4448,261.927 166.5129,262.3861 166.6257,262.8364 166.7821,263.2734 166.9806,263.6931 167.2192,264.0912 167.4957,264.464 167.8074,264.808 168.1514,265.1197 168.5242,265.3962 168.9223,265.6348 169.3419,265.8333 169.779,265.9897 170.2293,266.1024"/>
    <polygon points="176.8942,242.1059 177.5534,241.2171 178.2966,240.3971 179.1165,239.654 180.0054,238.9948 180.9545,238.4259 181.9549,237.9527 182.9968,237.5799 184.0702,237.3111 185.1649,237.1487 186.2701,237.0944 187.3754,237.1487 188.47,237.3111 189.5435,237.5799 190.5854,237.9527 191.5858,238.4259 192.5349,238.9948 193.4238,239.654 194.2437,240.3971 194.9868,241.2171 195.646,242.1059 196.215,243.0551 196.6881,244.0554 197.0609,245.0974 197.3298,246.1708 197.4921,247.2654 197.5464,248.3707 197.4921,249.476 197.3298,250.5706 197.0609,251.644 196.6881,252.6859 196.215,253.6863 195.646,254.6355 194.9868,255.5243 194.2437,256.3442 193.4238,257.0874 192.5349,257.7466 191.5858,258.3155 190.5854,258.7886 189.5435,259.1614 188.47,259.4303 187.3754,259.5927 186.2701,259.647 185.1649,259.5927 184.0702,259.4303 182.9968,259.1614 181.9549,258.7886 180.9545,258.3155 180.0054,257.7466 179.1165,257.0874 178.2966,256.3442 177.5534,255.5243 176.8942,254.6355 176.3253,253.6863 175.8522,252.6859 175.4794,251.644 175.2105,250.5706 175.0481,249.476 174.9938,248.3707 175.0481,247.2654 175.2105,246.1708 175.4794,245.0974 175.8522,244.0554 176.3253,243.0551"/>
    <polygon points="185.8352,232.0763 185.4913,232.388 185.1184,232.6645 184.7203,232.9032 184.3007,233.1016 183.8637,233.258 183.4134,233.3708 182.9542,233.4389 182.4906,233.4617 182.027,233.4389 181.5678,233.3708 181.1176,233.258 180.6805,233.1016 180.2609,232.9032 179.8628,232.6645 179.4899,232.388 179.146,232.0763 178.8343,231.7324 178.5578,231.3595 178.3191,230.9614 178.1207,230.5418 177.9643,230.1047 177.8515,229.6545 177.7834,229.1953 177.7606,228.7317 177.7834,228.2681 177.8515,227.8089 177.9643,227.3587 178.1207,226.9216 178.3191,226.502 178.5578,226.1039 178.8343,225.731 179.146,225.3871 179.4899,225.0754 179.8628,224.7989 180.2609,224.5602 180.6805,224.3618 181.1176,224.2054 181.5678,224.0926 182.027,224.0245 182.4906,224.0017 182.9542,224.0245 183.4134,224.0926 183.8637,224.2054 184.3007,224.3618 184.7203,224.5602 185.1184,224.7989 185.4913,225.0754 185.8352,225.3871 186.1469,225.731 186.4234,226.1039 186.6621,226.502 186.8605,226.9216 187.0169,227.3587 187.1297,227.8089 187.1978,228.2681 187.2206,228.7317 187.1978,229.1953 187.1297,229.6545 187.0169,230.1047 186.8605,230.5418 186.6621,230.9614 186.4234,231.3595 186.1469,231.7324"/>
    <polygon points="202.6825,225.9021 203.6317,225.3332 204.632,224.8601 205.674,224.4873 206.7474,224.2184 207.842,224.056 208.9473,224.0017 210.0526,224.056 211.1472,224.2184 212.2206,224.4873 213.2626,224.8601 214.2629,225.3332 215.2121,225.9021 216.1009,226.5613 216.9209,227.3045 217.664,228.1244 218.3232,229.0132 218.8921,229.9624 219.3653,230.9628 219.7381,232.0047 220.0069,233.0781 220.1693,234.1728 220.2236,235.278 220.1693,236.3833 220.0069,237.4779 219.7381,238.5514 219.3653,239.5933 218.8921,240.5936 218.3232,241.5428 217.664,242.4316 216.9209,243.2516 216.1009,243.9947 215.2121,244.6539 214.2629,245.2228 213.2626,245.696 212.2206,246.0688 211.1472,246.3377 210.0526,246.5 208.9473,246.5543 207.842,246.5 206.7474,246.3377 205.674,246.0688 204.632,245.696 203.6317,245.2228 202.6825,244.6539 201.7937,243.9947 200.9738,243.2516 200.2306,242.4316 199.5714,241.5428 199.0025,240.5936 198.5294,239.5933 198.1566,238.5514 197.8877,237.4779 197.7253,236.3833 197.671,235.278 197.7253,234.1728 197.8877,233.0781 198.1566,232.0047 198.5294,230.9628 199.0025,229.9624 199.5714,229.0132 200.2306,228.1244 200.9738,227.3045 201.7937,226.5613"/>
    <polygon points="208.8241,212.6384 209.1006,213.0112 209.3392,213.4093 209.5377,213.8289 209.6941,214.266 209.8069,214.7163 209.875,215.1754 209.8978,215.639 209.875,216.1026 209.8069,216.5618 209.6941,217.0121 209.5377,217.4491 209.3392,217.8687 209.1006,218.2669 208.8241,218.6397 208.5124,218.9836 208.1684,219.2953 207.7956,219.5719 207.3975,219.8105 206.9779,220.0089 206.5408,220.1653 206.0905,220.2781 205.6314,220.3462 205.1678,220.369 204.7042,220.3462 204.245,220.2781 203.7947,220.1653 203.3577,220.0089 202.9381,219.8105 202.5399,219.5719 202.1671,219.2953 201.8232,218.9836 201.5115,218.6397 201.2349,218.2669 200.9963,217.8687 200.7979,217.4491 200.6415,217.0121 200.5287,216.5618 200.4606,216.1026 200.4378,215.639 200.4606,215.1754 200.5287,214.7163 200.6415,214.266 200.7979,213.8289 200.9963,213.4093 201.2349,213.0112 201.5115,212.6384 201.8232,212.2944 202.1671,211.9827 202.5399,211.7062 202.9381,211.4676 203.3577,211.2691 203.7947,211.1127 204.245,210.9999 204.7042,210.9318 205.1678,210.9091 205.6314,210.9318 206.0905,210.9999 206.5408,211.1127 206.9779,211.2691 207.3975,211.4676 207.7956,211.7062 208.1684,211.9827 208.5124,212.2944"/>
    <polygon points="228.7677,224.0926 229.218,224.2054 229.655,224.3618 230.0746,224.5602 230.4728,224.7989 230.8456,225.0754 231.1895,225.3871 231.5013,225.731 231.7778,226.1039 232.0164,226.502 232.2149,226.9216 232.3712,227.3587 232.484,227.8089 232.5521,228.2681 232.5749,228.7317 232.5521,229.1953 232.484,229.6545 232.3712,230.1047 232.2149,230.5418 232.0164,230.9614 231.7778,231.3595 231.5013,231.7324 231.1895,232.0763 230.8456,232.388 230.4728,232.6645 230.0746,232.9032 229.655,233.1016 229.218,233.258 228.7677,233.3708 228.3086,233.4389 227.8449,233.4617 227.3813,233.4389 226.9222,233.3708 226.4719,233.258 226.0349,233.1016 225.6152,232.9032 225.2171,232.6645 224.8443,232.388 224.5003,232.0763 224.1886,231.7324 223.9121,231.3595 223.6735,230.9614 223.475,230.5418 223.3186,230.1047 223.2059,229.6545 223.1377,229.1953 223.115,228.7317 223.1377,228.2681 223.2059,227.8089 223.3186,227.3587 223.475,226.9216 223.6735,226.502 223.9121,226.1039 224.1886,225.731 224.5003,225.3871 224.8443,225.0754 225.2171,224.7989 225.6152,224.5602 226.0349,224.3618 226.4719,224.2054 226.9222,224.0926 227.3813,224.0245 227.8449,224.0017 228.3086,224.0245"/>
    <polygon points="240.1063,239.9171 239.6471,239.9852 239.1835,240.008 238.7199,239.9852 238.2608,239.9171 237.8105,239.8043 237.3734,239.648 236.9538,239.4495 236.5557,239.2109 236.1829,238.9343 235.8389,238.6226 235.5272,238.2787 235.2507,237.9059 235.0121,237.5077 234.8136,237.0881 234.6572,236.6511 234.5444,236.2008 234.4763,235.7416 234.4536,235.278 234.4763,234.8144 234.5444,234.3553 234.6572,233.905 234.8136,233.4679 235.0121,233.0483 235.2507,232.6502 235.5272,232.2774 235.8389,231.9334 236.1829,231.6217 236.5557,231.3452 236.9538,231.1066 237.3734,230.9081 237.8105,230.7517 238.2608,230.6389 238.7199,230.5708 239.1835,230.5481 239.6471,230.5708 240.1063,230.6389 240.5566,230.7517 240.9936,230.9081 241.4132,231.1066 241.8114,231.3452 242.1842,231.6217 242.5281,231.9334 242.8398,232.2774 243.1164,232.6502 243.355,233.0483 243.5535,233.4679 243.7098,233.905 243.8226,234.3553 243.8907,234.8144 243.9135,235.278 243.8907,235.7416 243.8226,236.2008 243.7098,236.6511 243.5535,237.0881 243.355,237.5077 243.1164,237.9059 242.8398,238.2787 242.5281,238.6226 242.1842,238.9343 241.8114,239.2109 241.4132,239.4495 240.9936,239.648 240.5566,239.8043"/>
    <polygon points="246.1522,243.6344 245.9958,243.1974 245.883,242.7471 245.8149,242.288 245.7921,241.8244 245.8149,241.3607 245.883,240.9016 245.9958,240.4513 246.1522,240.0143 246.3506,239.5947 246.5893,239.1965 246.8658,238.8237 247.1775,238.4798 247.5214,238.168 247.8943,237.8915 248.2924,237.6529 248.712,237.4544 249.1491,237.2981 249.5993,237.1853 250.0585,237.1172 250.5221,237.0944 250.9857,237.1172 251.4449,237.1853 251.8951,237.2981 252.3322,237.4544 252.7518,237.6529 253.1499,237.8915 253.5228,238.168 253.8667,238.4798 254.1784,238.8237 254.4549,239.1965 254.6936,239.5947 254.892,240.0143 255.0484,240.4513 255.1612,240.9016 255.2293,241.3607 255.2521,241.8244 255.2293,242.288 255.1612,242.7471 255.0484,243.1974 254.892,243.6344 254.6936,244.0541 254.4549,244.4522 254.1784,244.825 253.8667,245.169 253.5228,245.4807 253.1499,245.7572 252.7518,245.9958 252.3322,246.1943 251.8951,246.3507 251.4449,246.4634 250.9857,246.5316 250.5221,246.5543 250.0585,246.5316 249.5993,246.4634 249.1491,246.3507 248.712,246.1943 248.2924,245.9958 247.8943,245.7572 247.5214,245.4807 247.1775,245.169 246.8658,244.825 246.5893,244.4522 246.3506,244.0541"/>
    <polygon points="277.9292,254.917 277.9065,255.3806 277.8384,255.8398 277.7256,256.2901 277.5692,256.7271 277.3707,257.1467 277.1321,257.5449 276.8556,257.9177 276.5439,258.2616 276.1999,258.5733 275.8271,258.8499 275.429,259.0885 275.0094,259.287 274.5723,259.4433 274.122,259.5561 273.6629,259.6242 273.1993,259.647 272.7357,259.6242 272.2765,259.5561 271.8262,259.4433 271.3892,259.287 270.9696,259.0885 270.5714,258.8499 270.1986,258.5733 269.8547,258.2616 269.543,257.9177 269.2664,257.5449 269.0278,257.1467 268.8293,256.7271 268.673,256.2901 268.5602,255.8398 268.4921,255.3806 268.4693,254.917 268.4921,254.4534 268.5602,253.9943 268.673,253.544 268.8293,253.1069 269.0278,252.6873 269.2664,252.2892 269.543,251.9164 269.8547,251.5724 270.1986,251.2607 270.5714,250.9842 270.9696,250.7456 271.3892,250.5471 271.8262,250.3907 272.2765,250.2779 272.7357,250.2098 273.1993,250.1871 273.6629,250.2098 274.122,250.2779 274.5723,250.3907 275.0094,250.5471 275.429,250.7456 275.8271,250.9842 276.1999,251.2607 276.5439,251.5724 276.8556,251.9164 277.1321,252.2892 277.3707,252.6873 277.5692,253.1069 277.7256,253.544 277.8384,253.9943 277.9065,254.4534"/>
    <polygon points="288.8652,290.922 288.5963,289.8486 288.434,288.754 288.3797,287.6487 288.434,286.5434 288.5963,285.4488 288.8652,284.3754 289.238,283.3334 289.7112,282.3331 290.2801,281.3839 290.9393,280.4951 291.6824,279.6751 292.5024,278.932 293.3912,278.2728 294.3404,277.7039 295.3407,277.2307 296.3826,276.8579 297.4561,276.5891 298.5507,276.4267 299.656,276.3724 300.7612,276.4267 301.8559,276.5891 302.9293,276.8579 303.9712,277.2307 304.9716,277.7039 305.9207,278.2728 306.8096,278.932 307.6295,279.6751 308.3727,280.4951 309.0319,281.3839 309.6008,282.3331 310.0739,283.3334 310.4467,284.3754 310.7156,285.4488 310.878,286.5434 310.9323,287.6487 310.878,288.754 310.7156,289.8486 310.4467,290.922 310.0739,291.964 309.6008,292.9643 309.0319,293.9135 308.3727,294.8023 307.6295,295.6222 306.8096,296.3654 305.9207,297.0246 304.9716,297.5935 303.9712,298.0666 302.9293,298.4394 301.8559,298.7083 300.7612,298.8707 299.656,298.925 298.5507,298.8707 297.4561,298.7083 296.3826,298.4394 295.3407,298.0666 294.3404,297.5935 293.3912,297.0246 292.5024,296.3654 291.6824,295.6222 290.9393,294.8023 290.2801,293.9135 289.7112,292.9643 289.238,291.964"/>
    <polygon points="271.3892,298.565 270.9696,298.3665 270.5714,298.1279 270.1986,297.8513 269.8547,297.5396 269.543,297.1957 269.2664,296.8229 269.0278,296.4247 268.8293,296.0051 268.673,295.5681 268.5602,295.1178 268.4921,294.6586 268.4693,294.195 268.4921,293.7314 268.5602,293.2723 268.673,292.822 268.8293,292.3849 269.0278,291.9653 269.2664,291.5672 269.543,291.1944 269.8547,290.8504 270.1986,290.5387 270.5714,290.2622 270.9696,290.0236 271.3892,289.8251 271.8262,289.6687 272.2765,289.5559 272.7357,289.4878 273.1993,289.4651 273.6629,289.4878 274.122,289.5559 274.5723,289.6687 275.0094,289.8251 275.429,290.0236 275.8271,290.2622 276.1999,290.5387 276.5439,290.8504 276.8556,291.1944 277.1321,291.5672 277.3707,291.9653 277.5692,292.3849 277.7256,292.822 277.8384,293.2723 277.9065,293.7314 277.9292,294.195 277.9065,294.6586 277.8384,295.1178 277.7256,295.5681 277.5692,296.0051 277.3707,296.4247 277.1321,296.8229 276.8556,297.1957 276.5439,297.5396 276.1999,297.8513 275.8271,298.1279 275.429,298.3665 275.0094,298.565 274.5723,298.7213 274.122,298.8341 273.6629,298.9022 273.1993,298.925 272.7357,298.9022 272.2765,298.8341 271.8262,298.7213"/>
    <polygon points="265.9192,276.7559 265.7568,275.6613 265.7025,274.556 265.7568,273.4508 265.9192,272.3561 266.188,271.2827 266.5609,270.2408 267.034,269.2404 267.6029,268.2912 268.2621,267.4024 269.0052,266.5825 269.8252,265.8393 270.714,265.1801 271.6632,264.6112 272.6635,264.1381 273.7055,263.7653 274.7789,263.4964 275.8735,263.334 276.9788,263.2797 278.0841,263.334 279.1787,263.4964 280.2521,263.7653 281.2941,264.1381 282.2944,264.6112 283.2436,265.1801 284.1324,265.8393 284.9524,266.5825 285.6955,267.4024 286.3547,268.2912 286.9236,269.2404 287.3968,270.2408 287.7696,271.2827 288.0384,272.3561 288.2008,273.4508 288.2551,274.556 288.2008,275.6613 288.0384,276.7559 287.7696,277.8294 287.3968,278.8713 286.9236,279.8716 286.3547,280.8208 285.6955,281.7096 284.9524,282.5296 284.1324,283.2727 283.2436,283.9319 282.2944,284.5008 281.2941,284.974 280.2521,285.3468 279.1787,285.6157 278.0841,285.778 276.9788,285.8323 275.8735,285.778 274.7789,285.6157 273.7055,285.3468 272.6635,284.974 271.6632,284.5008 270.714,283.9319 269.8252,283.2727 269.0052,282.5296 268.2621,281.7096 267.6029,280.8208 267.034,279.8716 266.5609,278.8713 266.188,277.8294"/>
    <polygon points="260.5664,278.2728 261.4552,278.932 262.2752,279.6751 263.0183,280.4951 263.6775,281.3839 264.2465,282.3331 264.7196,283.3334 265.0924,284.3754 265.3613,285.4488 265.5236,286.5434 265.5779,287.6487 265.5236,288.754 265.3613,289.8486 265.0924,290.922 264.7196,291.964 264.2465,292.9643 263.6775,293.9135 263.0183,294.8023 262.2752,295.6222 261.4552,296.3654 260.5664,297.0246 259.6173,297.5935 258.6169,298.0666 257.575,298.4394 256.5015,298.7083 255.4069,298.8707 254.3016,298.925 253.1964,298.8707 252.1017,298.7083 251.0283,298.4394 249.9864,298.0666 248.986,297.5935 248.0369,297.0246 247.148,296.3654 246.3281,295.6222 245.5849,294.8023 244.9257,293.9135 244.3568,292.9643 243.8837,291.964 243.5109,290.922 243.242,289.8486 243.0796,288.754 243.0253,287.6487 243.0796,286.5434 243.242,285.4488 243.5109,284.3754 243.8837,283.3334 244.3568,282.3331 244.9257,281.3839 245.5849,280.4951 246.3281,279.6751 247.148,278.932 248.0369,278.2728 248.986,277.7039 249.9864,277.2307 251.0283,276.8579 252.1017,276.5891 253.1964,276.4267 254.3016,276.3724 255.4069,276.4267 256.5015,276.5891 257.575,276.8579 258.6169,277.2307 259.6173,277.7039"/>
    <polygon points="254.3016,272.7397 253.1964,272.6854 252.1017,272.523 251.0283,272.2541 249.9864,271.8813 248.986,271.4082 248.0369,270.8393 247.148,270.1801 246.3281,269.4369 245.5849,268.617 244.9257,267.7281 244.3568,266.779 243.8837,265.7786 243.5109,264.7367 243.242,263.6633 243.0796,262.5686 243.0253,261.4634 243.0796,260.3581 243.242,259.2635 243.5109,258.19 243.8837,257.1481 244.3568,256.1477 244.9257,255.1986 245.5849,254.3097 246.3281,253.4898 247.148,252.7467 248.0369,252.0875 248.986,251.5185 249.9864,251.0454 251.0283,250.6726 252.1017,250.4037 253.1964,250.2414 254.3016,250.1871 255.4069,250.2414 256.5015,250.4037 257.575,250.6726 258.6169,251.0454 259.6173,251.5185 260.5664,252.0875 261.4552,252.7467 262.2752,253.4898 263.0183,254.3097 263.6775,255.1986 264.2465,256.1477 264.7196,257.1481 265.0924,258.19 265.3613,259.2635 265.5236,260.3581 265.5779,261.4634 265.5236,262.5686 265.3613,263.6633 265.0924,264.7367 264.7196,265.7786 264.2465,266.779 263.6775,267.7281 263.0183,268.617 262.2752,269.4369 261.4552,270.1801 260.5664,270.8393 259.6173,271.4082 258.6169,271.8813 257.575,272.2541 256.5015,272.523 255.4069,272.6854"/>
    <polygon points="239.0204,265.2304 239.826,267.4821 240.4071,269.8019 240.758,272.1675 240.8753,274.556 240.758,276.9446 240.4071,279.3102 239.826,281.63 239.0204,283.8816 237.9979,286.0435 236.7684,288.0947 235.3438,290.0155 233.7378,291.7875 231.9659,293.3935 230.045,294.8181 227.9938,296.0475 225.832,297.07 223.5803,297.8757 221.2605,298.4568 218.8949,298.8077 216.5064,298.925 214.1178,298.8077 211.7522,298.4568 209.4324,297.8757 207.1808,297.07 205.0189,296.0475 202.9677,294.8181 201.0468,293.3935 199.2749,291.7875 197.6689,290.0155 196.2443,288.0947 195.0148,286.0435 193.9924,283.8816 193.1867,281.63 192.6056,279.3102 192.2547,276.9446 192.1374,274.556 192.2547,272.1675 192.6056,269.8019 193.1867,267.4821 193.9924,265.2304 195.0148,263.0686 196.2443,261.0174 197.6689,259.0965 199.2749,257.3246 201.0468,255.7186 202.9677,254.294 205.0189,253.0645 207.1808,252.042 209.4324,251.2364 211.7522,250.6553 214.1178,250.3044 216.5064,250.1871 218.8949,250.3044 221.2605,250.6553 223.5803,251.2364 225.832,252.042 227.9938,253.0645 230.045,254.294 231.9659,255.7186 233.7378,257.3246 235.3438,259.0965 236.7684,261.0174 237.9979,263.0686"/>
    <polygon points="248.2924,311.4592 247.8943,311.2205 247.5214,310.944 247.1775,310.6323 246.8658,310.2884 246.5893,309.9155 246.3506,309.5174 246.1522,309.0978 245.9958,308.6607 245.883,308.2105 245.8149,307.7513 245.7921,307.2877 245.8149,306.8241 245.883,306.3649 245.9958,305.9147 246.1522,305.4776 246.3506,305.058 246.5893,304.6599 246.8658,304.287 247.1775,303.9431 247.5214,303.6314 247.8943,303.3549 248.2924,303.1162 248.712,302.9178 249.1491,302.7614 249.5993,302.6486 250.0585,302.5805 250.5221,302.5577 250.9857,302.5805 251.4449,302.6486 251.8951,302.7614 252.3322,302.9178 252.7518,303.1162 253.1499,303.3549 253.5228,303.6314 253.8667,303.9431 254.1784,304.287 254.4549,304.6599 254.6936,305.058 254.892,305.4776 255.0484,305.9147 255.1612,306.3649 255.2293,306.8241 255.2521,307.2877 255.2293,307.7513 255.1612,308.2105 255.0484,308.6607 254.892,309.0978 254.6936,309.5174 254.4549,309.9155 254.1784,310.2884 253.8667,310.6323 253.5228,310.944 253.1499,311.2205 252.7518,311.4592 252.3322,311.6576 251.8951,311.814 251.4449,311.9268 250.9857,311.9949 250.5221,312.0177 250.0585,311.9949 249.5993,311.9268 249.1491,311.814 248.712,311.6576"/>
    <polygon points="226.4719,324.9067 226.9222,325.0195 227.3813,325.0876 227.8449,325.1103 228.3086,325.0876 228.7677,325.0195 229.218,324.9067 229.655,324.7503 230.0746,324.5518 230.4728,324.3132 230.8456,324.0367 231.1895,323.725 231.5013,323.381 231.7778,323.0082 232.0164,322.6101 232.2149,322.1904 232.3712,321.7534 232.484,321.3031 232.5521,320.844 232.5749,320.3804 232.5521,319.9167 232.484,319.4576 232.3712,319.0073 232.2149,318.5703 232.0164,318.1507 231.7778,317.7525 231.5013,317.3797 231.1895,317.0358 230.8456,316.724 230.4728,316.4475 230.0746,316.2089 229.655,316.0104 229.218,315.8541 228.7677,315.7413 228.3086,315.6732 227.8449,315.6504 227.3813,315.6732 226.9222,315.7413 226.4719,315.8541 226.0349,316.0104 225.6152,316.2089 225.2171,316.4475 224.8443,316.724 224.5003,317.0358 224.1886,317.3797 223.9121,317.7525 223.6735,318.1507 223.475,318.5703 223.3186,319.0073 223.2059,319.4576 223.1377,319.9167 223.115,320.3804 223.1377,320.844 223.2059,321.3031 223.3186,321.7534 223.475,322.1904 223.6735,322.6101 223.9121,323.0082 224.1886,323.381 224.5003,323.725 224.8443,324.0367 225.2171,324.3132 225.6152,324.5518 226.0349,324.7503"/>
    <polygon points="220.1693,314.9393 220.2236,313.834 220.1693,312.7288 220.0069,311.6341 219.7381,310.5607 219.3653,309.5188 218.8921,308.5184 218.3232,307.5693 217.664,306.6804 216.9209,305.8605 216.1009,305.1173 215.2121,304.4581 214.2629,303.8892 213.2626,303.4161 212.2206,303.0433 211.1472,302.7744 210.0526,302.612 208.9473,302.5577 207.842,302.612 206.7474,302.7744 205.674,303.0433 204.632,303.4161 203.6317,303.8892 202.6825,304.4581 201.7937,305.1173 200.9738,305.8605 200.2306,306.6804 199.5714,307.5693 199.0025,308.5184 198.5294,309.5188 198.1566,310.5607 197.8877,311.6341 197.7253,312.7288 197.671,313.834 197.7253,314.9393 197.8877,316.0339 198.1566,317.1074 198.5294,318.1493 199.0025,319.1496 199.5714,320.0988 200.2306,320.9876 200.9738,321.8076 201.7937,322.5507 202.6825,323.2099 203.6317,323.7788 204.632,324.252 205.674,324.6248 206.7474,324.8937 207.842,325.056 208.9473,325.1103 210.0526,325.056 211.1472,324.8937 212.2206,324.6248 213.2626,324.252 214.2629,323.7788 215.2121,323.2099 216.1009,322.5507 216.9209,321.8076 217.664,320.9876 218.3232,320.0988 218.8921,319.1496 219.3653,318.1493 219.7381,317.1074 220.0069,316.0339"/>
    <polygon points="206.9779,329.1031 206.5408,328.9467 206.0905,328.8339 205.6314,328.7658 205.1678,328.7431 204.7042,328.7658 204.245,328.8339 203.7947,328.9467 203.3577,329.1031 202.9381,329.3016 202.5399,329.5402 202.1671,329.8167 201.8232,330.1284 201.5115,330.4724 201.2349,330.8452 200.9963,331.2433 200.7979,331.663 200.6415,332.1 200.5287,332.5503 200.4606,333.0094 200.4378,333.473 200.4606,333.9367 200.5287,334.3958 200.6415,334.8461 200.7979,335.2831 200.9963,335.7027 201.2349,336.1009 201.5115,336.4737 201.8232,336.8176 202.1671,337.1294 202.5399,337.4059 202.9381,337.6445 203.3577,337.843 203.7947,337.9993 204.245,338.1121 204.7042,338.1802 205.1678,338.203 205.6314,338.1802 206.0905,338.1121 206.5408,337.9993 206.9779,337.843 207.3975,337.6445 207.7956,337.4059 208.1684,337.1294 208.5124,336.8176 208.8241,336.4737 209.1006,336.1009 209.3392,335.7027 209.5377,335.2831 209.6941,334.8461 209.8069,334.3958 209.875,333.9367 209.8978,333.473 209.875,333.0094 209.8069,332.5503 209.6941,332.1 209.5377,331.663 209.3392,331.2433 209.1006,330.8452 208.8241,330.4724 208.5124,330.1284 208.1684,329.8167 207.7956,329.5402 207.3975,329.3016"/>
    <polygon points="200.4606,347.0293 200.4378,346.5657 200.4606,346.1021 200.5287,345.6429 200.6415,345.1927 200.7979,344.7556 200.9963,344.336 201.2349,343.9379 201.5115,343.565 201.8232,343.2211 202.1671,342.9094 202.5399,342.6329 202.9381,342.3942 203.3577,342.1958 203.7947,342.0394 204.245,341.9266 204.7042,341.8585 205.1678,341.8357 205.6314,341.8585 206.0905,341.9266 206.5408,342.0394 206.9779,342.1958 207.3975,342.3942 207.7956,342.6329 208.1684,342.9094 208.5124,343.2211 208.8241,343.565 209.1006,343.9379 209.3392,344.336 209.5377,344.7556 209.6941,345.1927 209.8069,345.6429 209.875,346.1021 209.8978,346.5657 209.875,347.0293 209.8069,347.4885 209.6941,347.9387 209.5377,348.3758 209.3392,348.7954 209.1006,349.1935 208.8241,349.5664 208.5124,349.9103 208.1684,350.222 207.7956,350.4985 207.3975,350.7372 206.9779,350.9356 206.5408,351.092 206.0905,351.2048 205.6314,351.2729 205.1678,351.2957 204.7042,351.2729 204.245,351.2048 203.7947,351.092 203.3577,350.9356 202.9381,350.7372 202.5399,350.4985 202.1671,350.222 201.8232,349.9103 201.5115,349.5664 201.2349,349.1935 200.9963,348.7954 200.7979,348.3758 200.6415,347.9387 200.5287,347.4885"/>
    <polygon points="198.1991,338.2093 198.3555,338.6463 198.4683,339.0966 198.5364,339.5557 198.5592,340.0194 198.5364,340.483 198.4683,340.9421 198.3555,341.3924 198.1991,341.8294 198.0007,342.2491 197.762,342.6472 197.4855,343.02 197.1738,343.364 196.8299,343.6757 196.457,343.9522 196.0589,344.1908 195.6393,344.3893 195.2022,344.5457 194.752,344.6585 194.2928,344.7266 193.8292,344.7493 193.3656,344.7266 192.9064,344.6585 192.4562,344.5457 192.0191,344.3893 191.5995,344.1908 191.2014,343.9522 190.8285,343.6757 190.4846,343.364 190.1729,343.02 189.8964,342.6472 189.6577,342.2491 189.4593,341.8294 189.3029,341.3924 189.1901,340.9421 189.122,340.483 189.0992,340.0194 189.122,339.5557 189.1901,339.0966 189.3029,338.6463 189.4593,338.2093 189.6577,337.7897 189.8964,337.3915 190.1729,337.0187 190.4846,336.6748 190.8285,336.363 191.2014,336.0865 191.5995,335.8479 192.0191,335.6494 192.4562,335.4931 192.9064,335.3803 193.3656,335.3122 193.8292,335.2894 194.2928,335.3122 194.752,335.3803 195.2022,335.4931 195.6393,335.6494 196.0589,335.8479 196.457,336.0865 196.8299,336.363 197.1738,336.6748 197.4855,337.0187 197.762,337.3915 198.0007,337.7897"/>
    <polygon points="192.4562,322.4004 192.9064,322.2876 193.3656,322.2195 193.8292,322.1967 194.2928,322.2195 194.752,322.2876 195.2022,322.4004 195.6393,322.5568 196.0589,322.7552 196.457,322.9939 196.8299,323.2704 197.1738,323.5821 197.4855,323.926 197.762,324.2989 198.0007,324.697 198.1991,325.1166 198.3555,325.5537 198.4683,326.0039 198.5364,326.4631 198.5592,326.9267 198.5364,327.3903 198.4683,327.8495 198.3555,328.2997 198.1991,328.7368 198.0007,329.1564 197.762,329.5545 197.4855,329.9274 197.1738,330.2713 196.8299,330.583 196.457,330.8595 196.0589,331.0982 195.6393,331.2966 195.2022,331.453 194.752,331.5658 194.2928,331.6339 193.8292,331.6567 193.3656,331.6339 192.9064,331.5658 192.4562,331.453 192.0191,331.2966 191.5995,331.0982 191.2014,330.8595 190.8285,330.583 190.4846,330.2713 190.1729,329.9274 189.8964,329.5545 189.6577,329.1564 189.4593,328.7368 189.3029,328.2997 189.1901,327.8495 189.122,327.3903 189.0992,326.9267 189.122,326.4631 189.1901,326.0039 189.3029,325.5537 189.4593,325.1166 189.6577,324.697 189.8964,324.2989 190.1729,323.926 190.4846,323.5821 190.8285,323.2704 191.2014,322.9939 191.5995,322.7552 192.0191,322.5568"/>
    <polygon points="186.6115,319.5788 184.6907,321.0034 182.6395,322.2329 180.4776,323.2554 178.226,324.061 175.9062,324.6421 173.5406,324.993 171.152,325.1103 168.7635,324.993 166.3979,324.6421 164.0781,324.061 161.8264,323.2554 159.6646,322.2329 157.6134,321.0034 155.6925,319.5788 153.9206,317.9728 152.3146,316.2009 150.89,314.28 149.6605,312.2288 148.638,310.067 147.8324,307.8153 147.2513,305.4955 146.9004,303.1299 146.7831,300.7414 146.9004,298.3528 147.2513,295.9872 147.8324,293.6674 148.638,291.4158 149.6605,289.2539 150.89,287.2027 152.3146,285.2819 153.9206,283.5099 155.6925,281.9039 157.6134,280.4793 159.6646,279.2498 161.8264,278.2274 164.0781,277.4217 166.3979,276.8406 168.7635,276.4897 171.152,276.3724 173.5406,276.4897 175.9062,276.8406 178.226,277.4217 180.4776,278.2274 182.6395,279.2498 184.6907,280.4793 186.6115,281.9039 188.3835,283.5099 189.9895,285.2819 191.4141,287.2027 192.6435,289.2539 193.666,291.4158 194.4717,293.6674 195.0528,295.9872 195.4037,298.3528 195.521,300.7414 195.4037,303.1299 195.0528,305.4955 194.4717,307.8153 193.666,310.067 192.6435,312.2288 191.4141,314.28 189.9895,316.2009 188.3835,317.9728"/>
    <polygon points="152.1378,328.032 152.1921,326.9267 152.1378,325.8214 151.9754,324.7268 151.7066,323.6534 151.3338,322.6114 150.8606,321.6111 150.2917,320.6619 149.6325,319.7731 148.8894,318.9531 148.0694,318.21 147.1806,317.5508 146.2314,316.9819 145.2311,316.5087 144.1891,316.1359 143.1157,315.8671 142.0211,315.7047 140.9158,315.6504 139.8105,315.7047 138.7159,315.8671 137.6425,316.1359 136.6006,316.5087 135.6002,316.9819 134.651,317.5508 133.7622,318.21 132.9423,318.9531 132.1991,319.7731 131.5399,320.6619 130.971,321.6111 130.4979,322.6114 130.1251,323.6534 129.8562,324.7268 129.6938,325.8214 129.6395,326.9267 129.6938,328.032 129.8562,329.1266 130.1251,330.2 130.4979,331.242 130.971,332.2423 131.5399,333.1915 132.1991,334.0803 132.9423,334.9003 133.7622,335.6434 134.651,336.3026 135.6002,336.8715 136.6006,337.3446 137.6425,337.7175 138.7159,337.9863 139.8105,338.1487 140.9158,338.203 142.0211,338.1487 143.1157,337.9863 144.1891,337.7175 145.2311,337.3446 146.2314,336.8715 147.1806,336.3026 148.0694,335.6434 148.8894,334.9003 149.6325,334.0803 150.2917,333.1915 150.8606,332.2423 151.3338,331.242 151.7066,330.2 151.9754,329.1266"/>
    <polygon points="126.7205,318.4731 127.1707,318.3603 127.6078,318.204 128.0274,318.0055 128.4255,317.7669 128.7984,317.4903 129.1423,317.1786 129.454,316.8347 129.7305,316.4619 129.9692,316.0637 130.1676,315.6441 130.324,315.2071 130.4368,314.7568 130.5049,314.2976 130.5277,313.834 130.5049,313.3704 130.4368,312.9113 130.324,312.461 130.1676,312.0239 129.9692,311.6043 129.7305,311.2062 129.454,310.8334 129.1423,310.4894 128.7984,310.1777 128.4255,309.9012 128.0274,309.6626 127.6078,309.4641 127.1707,309.3077 126.7205,309.1949 126.2613,309.1268 125.7977,309.1041 125.3341,309.1268 124.8749,309.1949 124.4247,309.3077 123.9876,309.4641 123.568,309.6626 123.1699,309.9012 122.797,310.1777 122.4531,310.4894 122.1414,310.8334 121.8649,311.2062 121.6262,311.6043 121.4278,312.0239 121.2714,312.461 121.1586,312.9113 121.0905,313.3704 121.0677,313.834 121.0905,314.2976 121.1586,314.7568 121.2714,315.2071 121.4278,315.6441 121.6262,316.0637 121.8649,316.4619 122.1414,316.8347 122.4531,317.1786 122.797,317.4903 123.1699,317.7669 123.568,318.0055 123.9876,318.204 124.4247,318.3603 124.8749,318.4731 125.3341,318.5412 125.7977,318.564 126.2613,318.5412"/>
    <polygon points="124.4247,344.5457 124.8749,344.6585 125.3341,344.7266 125.7977,344.7493 126.2613,344.7266 126.7205,344.6585 127.1707,344.5457 127.6078,344.3893 128.0274,344.1908 128.4255,343.9522 128.7984,343.6757 129.1423,343.364 129.454,343.02 129.7305,342.6472 129.9692,342.2491 130.1676,341.8294 130.324,341.3924 130.4368,340.9421 130.5049,340.483 130.5277,340.0194 130.5049,339.5557 130.4368,339.0966 130.324,338.6463 130.1676,338.2093 129.9692,337.7897 129.7305,337.3915 129.454,337.0187 129.1423,336.6748 128.7984,336.363 128.4255,336.0865 128.0274,335.8479 127.6078,335.6494 127.1707,335.4931 126.7205,335.3803 126.2613,335.3122 125.7977,335.2894 125.3341,335.3122 124.8749,335.3803 124.4247,335.4931 123.9876,335.6494 123.568,335.8479 123.1699,336.0865 122.797,336.363 122.4531,336.6748 122.1414,337.0187 121.8649,337.3915 121.6262,337.7897 121.4278,338.2093 121.2714,338.6463 121.1586,339.0966 121.0905,339.5557 121.0677,340.0194 121.0905,340.483 121.1586,340.9421 121.2714,341.3924 121.4278,341.8294 121.6262,342.2491 121.8649,342.6472 122.1414,343.02 122.4531,343.364 122.797,343.6757 123.1699,343.9522 123.568,344.1908 123.9876,344.3893"/>
  </g>
</svg>
