<?xml version="1.0" encoding="utf-8" ?>
<svg xmlns="http://www.w3.org/2000/svg" xmlns:cc="http://creativecommons.org/ns" xmlns:dc="http://purl.org/dc/elements/1.1/" xmlns:ev="http://www.w3.org/2001/xml-events" xmlns:inkscape="http://www.inkscape.org/namespaces/inkscape" xmlns:rdf="http://www.w3.org/1999/02/22-rdf-syntax-ns" xmlns:sodipodi="http://sodipodi.sourceforge.net/DTD/sodipodi-0.dtd" xmlns:xlink="http://www.w3.org/1999/xlink" baseProfile="tiny" height="15.875cm" version="1.2" viewBox="0 0 432.0 600.0" width="11.43cm">
  <metadata>
    <rdf:RDF>
      <cc:Work>
        <dc:format>image/svg+xml</dc:format>
        <dc:source>vsk save -s 184 -c hex-grid/config/bubble-coasters-2.json /Users/tobin/src/fabian/plotting/fabian-plotting/hex-grid/sketch_hex_grid.py</dc:source>
        <dc:date>2023-11-04T10:32:59.798445</dc:date>
      </cc:Work>
    </rdf:RDF>
  </metadata>
  <defs/>
  <g fill="none" id="layer1" inkscape:groupmode="layer" inkscape:label="1" stroke="#000000" stroke-width="0.7559" style="display:inline">
    <polygon points="157.8093,406.5262 158.0077,406.9458 158.1641,407.3828 158.2769,407.8331 158.345,408.2923 158.3678,408.7559 158.345,409.2195 158.2769,409.6786 158.1641,410.1289 158.0077,410.566 157.8093,410.9856 157.5706,411.3837 157.2941,411.7565 156.9824,412.1005 156.6385,412.4122 156.2656,412.6887 155.8675,412.9273 155.4479,413.1258 155.0108,413.2822 154.5606,413.395 154.1014,413.4631 153.6378,413.4858 153.1742,413.4631 152.715,413.395 152.2648,413.2822 151.8277,413.1258 151.4081,412.9273 151.01,412.6887 150.6371,412.4122 150.2932,412.1005 149.9815,411.7565 149.705,411.3837 149.4663,410.9856 149.2679,410.566 149.1115,410.1289 148.9987,409.6786 148.9306,409.2195 148.9078,408.7559 148.9306,408.2923 148.9987,407.8331 149.1115,407.3828 149.2679,406.9458 149.4663,406.5262 149.705,406.128 149.9815,405.7552 150.2932,405.4113 150.6371,405.0996 151.01,404.823 151.4081,404.5844 151.8277,404.3859 152.2648,404.2296 152.715,404.1168 153.1742,404.0487 153.6378,404.0259 154.1014,404.0487 154.5606,404.1168 155.0108,404.2296 155.4479,404.3859 155.8675,404.5844 156.2656,404.823 156.6385,405.0996 156.9824,405.4113 157.2941,405.7552 157.5706,406.128"/>
    <polygon points="158.345,395.1996 158.2769,394.7404 158.1641,394.2902 158.0077,393.8531 157.8093,393.4335 157.5706,393.0354 157.2941,392.6625 156.9824,392.3186 156.6385,392.0069 156.2656,391.7304 155.8675,391.4917 155.4479,391.2933 155.0108,391.1369 154.5606,391.0241 154.1014,390.956 153.6378,390.9332 153.1742,390.956 152.715,391.0241 152.2648,391.1369 151.8277,391.2933 151.4081,391.4917 151.01,391.7304 150.6371,392.0069 150.2932,392.3186 149.9815,392.6625 149.705,393.0354 149.4663,393.4335 149.2679,393.8531 149.1115,394.2902 148.9987,394.7404 148.9306,395.1996 148.9078,395.6632 148.9306,396.1268 148.9987,396.586 149.1115,397.0362 149.2679,397.4733 149.4663,397.8929 149.705,398.291 149.9815,398.6639 150.2932,399.0078 150.6371,399.3195 151.01,399.596 151.4081,399.8347 151.8277,400.0331 152.2648,400.1895 152.715,400.3023 153.1742,400.3704 153.6378,400.3932 154.1014,400.3704 154.5606,400.3023 155.0108,400.1895 155.4479,400.0331 155.8675,399.8347 156.2656,399.596 156.6385,399.3195 156.9824,399.0078 157.2941,398.6639 157.5706,398.291 157.8093,397.8929 158.0077,397.4733 158.1641,397.0362 158.2769,396.586 158.345,396.1268 158.3678,395.6632"/>
    <polygon points="153.1742,387.2777 153.6378,387.3005 154.1014,387.2777 154.5606,387.2096 155.0108,387.0968 155.4479,386.9405 155.8675,386.742 156.2656,386.5034 156.6385,386.2269 156.9824,385.9151 157.2941,385.5712 157.5706,385.1984 157.8093,384.8002 158.0077,384.3806 158.1641,383.9436 158.2769,383.4933 158.345,383.0342 158.3678,382.5705 158.345,382.1069 158.2769,381.6478 158.1641,381.1975 158.0077,380.7605 157.8093,380.3408 157.5706,379.9427 157.2941,379.5699 156.9824,379.2259 156.6385,378.9142 156.2656,378.6377 155.8675,378.3991 155.4479,378.2006 155.0108,378.0442 154.5606,377.9314 154.1014,377.8633 153.6378,377.8406 153.1742,377.8633 152.715,377.9314 152.2648,378.0442 151.8277,378.2006 151.4081,378.3991 151.01,378.6377 150.6371,378.9142 150.2932,379.2259 149.9815,379.5699 149.705,379.9427 149.4663,380.3408 149.2679,380.7605 149.1115,381.1975 148.9987,381.6478 148.9306,382.1069 148.9078,382.5705 148.9306,383.0342 148.9987,383.4933 149.1115,383.9436 149.2679,384.3806 149.4663,384.8002 149.705,385.1984 149.9815,385.5712 150.2932,385.9151 150.6371,386.2269 151.01,386.5034 151.4081,386.742 151.8277,386.9405 152.2648,387.0968 152.715,387.2096"/>
    <polygon points="160.6065,390.927 160.4501,390.4899 160.3373,390.0396 160.2692,389.5805 160.2464,389.1169 160.2692,388.6533 160.3373,388.1941 160.4501,387.7438 160.6065,387.3068 160.8049,386.8872 161.0435,386.489 161.3201,386.1162 161.6318,385.7723 161.9757,385.4606 162.3485,385.184 162.7467,384.9454 163.1663,384.7469 163.6033,384.5906 164.0536,384.4778 164.5128,384.4097 164.9764,384.3869 165.44,384.4097 165.8991,384.4778 166.3494,384.5906 166.7865,384.7469 167.2061,384.9454 167.6042,385.184 167.977,385.4606 168.321,385.7723 168.6327,386.1162 168.9092,386.489 169.1478,386.8872 169.3463,387.3068 169.5027,387.7438 169.6155,388.1941 169.6836,388.6533 169.7064,389.1169 169.6836,389.5805 169.6155,390.0396 169.5027,390.4899 169.3463,390.927 169.1478,391.3466 168.9092,391.7447 168.6327,392.1175 168.321,392.4615 167.977,392.7732 167.6042,393.0497 167.2061,393.2883 166.7865,393.4868 166.3494,393.6432 165.8991,393.756 165.44,393.8241 164.9764,393.8468 164.5128,393.8241 164.0536,393.756 163.6033,393.6432 163.1663,393.4868 162.7467,393.2883 162.3485,393.0497 161.9757,392.7732 161.6318,392.4615 161.3201,392.1175 161.0435,391.7447 160.8049,391.3466"/>
    <polygon points="179.6596,392.3186 179.9713,392.6625 180.2478,393.0354 180.4864,393.4335 180.6849,393.8531 180.8413,394.2902 180.954,394.7404 181.0222,395.1996 181.0449,395.6632 181.0222,396.1268 180.954,396.586 180.8413,397.0362 180.6849,397.4733 180.4864,397.8929 180.2478,398.291 179.9713,398.6639 179.6596,399.0078 179.3156,399.3195 178.9428,399.596 178.5447,399.8347 178.125,400.0331 177.688,400.1895 177.2377,400.3023 176.7786,400.3704 176.315,400.3932 175.8513,400.3704 175.3922,400.3023 174.9419,400.1895 174.5049,400.0331 174.0853,399.8347 173.6871,399.596 173.3143,399.3195 172.9704,399.0078 172.6586,398.6639 172.3821,398.291 172.1435,397.8929 171.945,397.4733 171.7887,397.0362 171.6759,396.586 171.6078,396.1268 171.585,395.6632 171.6078,395.1996 171.6759,394.7404 171.7887,394.2902 171.945,393.8531 172.1435,393.4335 172.3821,393.0354 172.6586,392.6625 172.9704,392.3186 173.3143,392.0069 173.6871,391.7304 174.0853,391.4917 174.5049,391.2933 174.9419,391.1369 175.3922,391.0241 175.8513,390.956 176.315,390.9332 176.7786,390.956 177.2377,391.0241 177.688,391.1369 178.125,391.2933 178.5447,391.4917 178.9428,391.7304 179.3156,392.0069"/>
    <polygon points="185.4238,380.1957 185.0257,379.957 184.6529,379.6805 184.3089,379.3688 183.9972,379.0249 183.7207,378.652 183.4821,378.2539 183.2836,377.8343 183.1272,377.3972 183.0145,376.947 182.9463,376.4878 182.9236,376.0242 182.9463,375.5606 183.0145,375.1014 183.1272,374.6512 183.2836,374.2141 183.4821,373.7945 183.7207,373.3964 183.9972,373.0235 184.3089,372.6796 184.6529,372.3679 185.0257,372.0914 185.4238,371.8527 185.8435,371.6543 186.2805,371.4979 186.7308,371.3851 187.1899,371.317 187.6535,371.2942 188.1172,371.317 188.5763,371.3851 189.0266,371.4979 189.4636,371.6543 189.8832,371.8527 190.2814,372.0914 190.6542,372.3679 190.9981,372.6796 191.3099,373.0235 191.5864,373.3964 191.825,373.7945 192.0235,374.2141 192.1798,374.6512 192.2926,375.1014 192.3607,375.5606 192.3835,376.0242 192.3607,376.4878 192.2926,376.947 192.1798,377.3972 192.0235,377.8343 191.825,378.2539 191.5864,378.652 191.3099,379.0249 190.9981,379.3688 190.6542,379.6805 190.2814,379.957 189.8832,380.1957 189.4636,380.3941 189.0266,380.5505 188.5763,380.6633 188.1172,380.7314 187.6535,380.7542 187.1899,380.7314 186.7308,380.6633 186.2805,380.5505 185.8435,380.3941"/>
    <polygon points="169.8612,358.2559 170.9558,358.4182 172.0292,358.6871 173.0712,359.0599 174.0715,359.5331 175.0207,360.102 175.9095,360.7612 176.7295,361.5043 177.4726,362.3243 178.1318,363.2131 178.7007,364.1623 179.1739,365.1626 179.5467,366.2045 179.8155,367.278 179.9779,368.3726 180.0322,369.4779 179.9779,370.5831 179.8155,371.6778 179.5467,372.7512 179.1739,373.7931 178.7007,374.7935 178.1318,375.7426 177.4726,376.6315 176.7295,377.4514 175.9095,378.1946 175.0207,378.8538 174.0715,379.4227 173.0712,379.8958 172.0292,380.2686 170.9558,380.5375 169.8612,380.6999 168.7559,380.7542 167.6506,380.6999 166.556,380.5375 165.4826,380.2686 164.4406,379.8958 163.4403,379.4227 162.4911,378.8538 161.6023,378.1946 160.7824,377.4514 160.0392,376.6315 159.38,375.7426 158.8111,374.7935 158.338,373.7931 157.9652,372.7512 157.6963,371.6778 157.5339,370.5831 157.4796,369.4779 157.5339,368.3726 157.6963,367.278 157.9652,366.2045 158.338,365.1626 158.8111,364.1623 159.38,363.2131 160.0392,362.3243 160.7824,361.5043 161.6023,360.7612 162.4911,360.102 163.4403,359.5331 164.4406,359.0599 165.4826,358.6871 166.556,358.4182 167.6506,358.2559 168.7559,358.2016"/>
    <polygon points="174.0715,353.2373 173.0712,353.7105 172.0292,354.0833 170.9558,354.3522 169.8612,354.5145 168.7559,354.5688 167.6506,354.5145 166.556,354.3522 165.4826,354.0833 164.4406,353.7105 163.4403,353.2373 162.4911,352.6684 161.6023,352.0092 160.7824,351.2661 160.0392,350.4461 159.38,349.5573 158.8111,348.6081 158.338,347.6078 157.9652,346.5659 157.6963,345.4924 157.5339,344.3978 157.4796,343.2925 157.5339,342.1873 157.6963,341.0926 157.9652,340.0192 158.338,338.9773 158.8111,337.9769 159.38,337.0278 160.0392,336.1389 160.7824,335.319 161.6023,334.5758 162.4911,333.9166 163.4403,333.3477 164.4406,332.8746 165.4826,332.5018 166.556,332.2329 167.6506,332.0705 168.7559,332.0162 169.8612,332.0705 170.9558,332.2329 172.0292,332.5018 173.0712,332.8746 174.0715,333.3477 175.0207,333.9166 175.9095,334.5758 176.7295,335.319 177.4726,336.1389 178.1318,337.0278 178.7007,337.9769 179.1739,338.9773 179.5467,340.0192 179.8155,341.0926 179.9779,342.1873 180.0322,343.2925 179.9779,344.3978 179.8155,345.4924 179.5467,346.5659 179.1739,347.6078 178.7007,348.6081 178.1318,349.5573 177.4726,350.4461 176.7295,351.2661 175.9095,352.0092 175.0207,352.6684"/>
    <polygon points="183.3889,327.3342 181.0691,327.9153 178.7035,328.2662 176.315,328.3835 173.9264,328.2662 171.5608,327.9153 169.241,327.3342 166.9894,326.5285 164.8275,325.506 162.7763,324.2766 160.8554,322.852 159.0835,321.246 157.4775,319.474 156.0529,317.5532 154.8234,315.502 153.801,313.3401 152.9953,311.0885 152.4142,308.7687 152.0633,306.4031 151.946,304.0145 152.0633,301.626 152.4142,299.2604 152.9953,296.9406 153.801,294.6889 154.8234,292.5271 156.0529,290.4759 157.4775,288.555 159.0835,286.7831 160.8554,285.1771 162.7763,283.7525 164.8275,282.523 166.9894,281.5005 169.241,280.6949 171.5608,280.1138 173.9264,279.7629 176.315,279.6456 178.7035,279.7629 181.0691,280.1138 183.3889,280.6949 185.6406,281.5005 187.8024,282.523 189.8536,283.7525 191.7745,285.1771 193.5464,286.7831 195.1524,288.555 196.577,290.4759 197.8065,292.5271 198.829,294.6889 199.6346,296.9406 200.2157,299.2604 200.5666,301.626 200.6839,304.0145 200.5666,306.4031 200.2157,308.7687 199.6346,311.0885 198.829,313.3401 197.8065,315.502 196.577,317.5532 195.1524,319.474 193.5464,321.246 191.7745,322.852 189.8536,324.2766 187.8024,325.506 185.6406,326.5285"/>
    <polygon points="137.7729,311.9339 137.9293,312.3709 138.1277,312.7906 138.3664,313.1887 138.6429,313.5615 138.9546,313.9055 139.2985,314.2172 139.6714,314.4937 140.0695,314.7323 140.4891,314.9308 140.9262,315.0872 141.3764,315.2 141.8356,315.2681 142.2992,315.2908 142.7628,315.2681 143.222,315.2 143.6723,315.0872 144.1093,314.9308 144.5289,314.7323 144.927,314.4937 145.2999,314.2172 145.6438,313.9055 145.9555,313.5615 146.232,313.1887 146.4707,312.7906 146.6691,312.3709 146.8255,311.9339 146.9383,311.4836 147.0064,311.0245 147.0292,310.5609 147.0064,310.0972 146.9383,309.6381 146.8255,309.1878 146.6691,308.7508 146.4707,308.3312 146.232,307.933 145.9555,307.5602 145.6438,307.2163 145.2999,306.9045 144.927,306.628 144.5289,306.3894 144.1093,306.1909 143.6723,306.0346 143.222,305.9218 142.7628,305.8537 142.2992,305.8309 141.8356,305.8537 141.3764,305.9218 140.9262,306.0346 140.4891,306.1909 140.0695,306.3894 139.6714,306.628 139.2985,306.9045 138.9546,307.2163 138.6429,307.5602 138.3664,307.933 138.1277,308.3312 137.9293,308.7508 137.7729,309.1878 137.6601,309.6381 137.592,310.0972 137.5692,310.5609 137.592,311.0245 137.6601,311.4836"/>
    <polygon points="129.5876,312.5809 129.1505,312.7373 128.7309,312.9357 128.3328,313.1744 127.96,313.4509 127.616,313.7626 127.3043,314.1065 127.0278,314.4794 126.7892,314.8775 126.5907,315.2971 126.4343,315.7342 126.3215,316.1844 126.2534,316.6436 126.2307,317.1072 126.2534,317.5708 126.3215,318.03 126.4343,318.4802 126.5907,318.9173 126.7892,319.3369 127.0278,319.735 127.3043,320.1079 127.616,320.4518 127.96,320.7635 128.3328,321.04 128.7309,321.2787 129.1505,321.4771 129.5876,321.6335 130.0379,321.7463 130.497,321.8144 130.9606,321.8372 131.4242,321.8144 131.8834,321.7463 132.3337,321.6335 132.7707,321.4771 133.1903,321.2787 133.5885,321.04 133.9613,320.7635 134.3052,320.4518 134.6169,320.1079 134.8935,319.735 135.1321,319.3369 135.3306,318.9173 135.4869,318.4802 135.5997,318.03 135.6678,317.5708 135.6906,317.1072 135.6678,316.6436 135.5997,316.1844 135.4869,315.7342 135.3306,315.2971 135.1321,314.8775 134.8935,314.4794 134.6169,314.1065 134.3052,313.7626 133.9613,313.4509 133.5885,313.1744 133.1903,312.9357 132.7707,312.7373 132.3337,312.5809 131.8834,312.4681 131.4242,312.4 130.9606,312.3772 130.497,312.4 130.0379,312.4681"/>
    <polygon points="146.6691,295.6581 146.8255,296.0952 146.9383,296.5454 147.0064,297.0046 147.0292,297.4682 147.0064,297.9318 146.9383,298.391 146.8255,298.8412 146.6691,299.2783 146.4707,299.6979 146.232,300.096 145.9555,300.4689 145.6438,300.8128 145.2999,301.1245 144.927,301.401 144.5289,301.6397 144.1093,301.8381 143.6723,301.9945 143.222,302.1073 142.7628,302.1754 142.2992,302.1982 141.8356,302.1754 141.3764,302.1073 140.9262,301.9945 140.4891,301.8381 140.0695,301.6397 139.6714,301.401 139.2985,301.1245 138.9546,300.8128 138.6429,300.4689 138.3664,300.096 138.1277,299.6979 137.9293,299.2783 137.7729,298.8412 137.6601,298.391 137.592,297.9318 137.5692,297.4682 137.592,297.0046 137.6601,296.5454 137.7729,296.0952 137.9293,295.6581 138.1277,295.2385 138.3664,294.8404 138.6429,294.4675 138.9546,294.1236 139.2985,293.8119 139.6714,293.5354 140.0695,293.2967 140.4891,293.0983 140.9262,292.9419 141.3764,292.8291 141.8356,292.761 142.2992,292.7382 142.7628,292.761 143.222,292.8291 143.6723,292.9419 144.1093,293.0983 144.5289,293.2967 144.927,293.5354 145.2999,293.8119 145.6438,294.1236 145.9555,294.4675 146.232,294.8404 146.4707,295.2385"/>
    <polygon points="138.1052,285.8027 137.362,284.9828 136.7028,284.094 136.1339,283.1448 135.6608,282.1445 135.288,281.1025 135.0191,280.0291 134.8567,278.9345 134.8024,277.8292 134.8567,276.7239 135.0191,275.6293 135.288,274.5559 135.6608,273.5139 136.1339,272.5136 136.7028,271.5644 137.362,270.6756 138.1052,269.8556 138.9251,269.1125 139.814,268.4533 140.7631,267.8844 141.7635,267.4112 142.8054,267.0384 143.8788,266.7696 144.9735,266.6072 146.0787,266.5529 147.184,266.6072 148.2786,266.7696 149.3521,267.0384 150.394,267.4112 151.3944,267.8844 152.3435,268.4533 153.2324,269.1125 154.0523,269.8556 154.7954,270.6756 155.4546,271.5644 156.0236,272.5136 156.4967,273.5139 156.8695,274.5559 157.1384,275.6293 157.3007,276.7239 157.355,277.8292 157.3007,278.9345 157.1384,280.0291 156.8695,281.1025 156.4967,282.1445 156.0236,283.1448 155.4546,284.094 154.7954,284.9828 154.0523,285.8027 153.2324,286.5459 152.3435,287.2051 151.3944,287.774 150.394,288.2471 149.3521,288.6199 148.2786,288.8888 147.184,289.0512 146.0787,289.1055 144.9735,289.0512 143.8788,288.8888 142.8054,288.6199 141.7635,288.2471 140.7631,287.774 139.814,287.2051 138.9251,286.5459"/>
    <polygon points="129.1505,260.3666 129.5876,260.2102 130.0379,260.0974 130.497,260.0293 130.9606,260.0066 131.4242,260.0293 131.8834,260.0974 132.3337,260.2102 132.7707,260.3666 133.1903,260.5651 133.5885,260.8037 133.9613,261.0802 134.3052,261.3919 134.6169,261.7359 134.8935,262.1087 135.1321,262.5068 135.3306,262.9264 135.4869,263.3635 135.5997,263.8138 135.6678,264.2729 135.6906,264.7365 135.6678,265.2001 135.5997,265.6593 135.4869,266.1096 135.3306,266.5466 135.1321,266.9662 134.8935,267.3644 134.6169,267.7372 134.3052,268.0811 133.9613,268.3928 133.5885,268.6694 133.1903,268.908 132.7707,269.1065 132.3337,269.2628 131.8834,269.3756 131.4242,269.4437 130.9606,269.4665 130.497,269.4437 130.0379,269.3756 129.5876,269.2628 129.1505,269.1065 128.7309,268.908 128.3328,268.6694 127.96,268.3928 127.616,268.0811 127.3043,267.7372 127.0278,267.3644 126.7892,266.9662 126.5907,266.5466 126.4343,266.1096 126.3215,265.6593 126.2534,265.2001 126.2307,264.7365 126.2534,264.2729 126.3215,263.8138 126.4343,263.3635 126.5907,262.9264 126.7892,262.5068 127.0278,262.1087 127.3043,261.7359 127.616,261.3919 127.96,261.0802 128.3328,260.8037 128.7309,260.5651"/>
    <polygon points="156.0529,238.1052 157.4775,236.1843 159.0835,234.4124 160.8554,232.8064 162.7763,231.3818 164.8275,230.1523 166.9894,229.1299 169.241,228.3242 171.5608,227.7431 173.9264,227.3922 176.315,227.2749 178.7035,227.3922 181.0691,227.7431 183.3889,228.3242 185.6406,229.1299 187.8024,230.1523 189.8536,231.3818 191.7745,232.8064 193.5464,234.4124 195.1524,236.1843 196.577,238.1052 197.8065,240.1564 198.829,242.3183 199.6346,244.5699 200.2157,246.8897 200.5666,249.2553 200.6839,251.6439 200.5666,254.0324 200.2157,256.398 199.6346,258.7178 198.829,260.9695 197.8065,263.1313 196.577,265.1825 195.1524,267.1034 193.5464,268.8753 191.7745,270.4813 189.8536,271.9059 187.8024,273.1354 185.6406,274.1579 183.3889,274.9635 181.0691,275.5446 178.7035,275.8955 176.315,276.0128 173.9264,275.8955 171.5608,275.5446 169.241,274.9635 166.9894,274.1579 164.8275,273.1354 162.7763,271.9059 160.8554,270.4813 159.0835,268.8753 157.4775,267.1034 156.0529,265.1825 154.8234,263.1313 153.801,260.9695 152.9953,258.7178 152.4142,256.398 152.0633,254.0324 151.946,251.6439 152.0633,249.2553 152.4142,246.8897 152.9953,244.5699 153.801,242.3183 154.8234,240.1564"/>
    <polygon points="176.315,217.0958 175.8513,217.0731 175.3922,217.0049 174.9419,216.8922 174.5049,216.7358 174.0853,216.5373 173.6871,216.2987 173.3143,216.0222 172.9704,215.7105 172.6586,215.3665 172.3821,214.9937 172.1435,214.5956 171.945,214.1759 171.7887,213.7389 171.6759,213.2886 171.6078,212.8295 171.585,212.3659 171.6078,211.9022 171.6759,211.4431 171.7887,210.9928 171.945,210.5558 172.1435,210.1362 172.3821,209.738 172.6586,209.3652 172.9704,209.0213 173.3143,208.7095 173.6871,208.433 174.0853,208.1944 174.5049,207.9959 174.9419,207.8396 175.3922,207.7268 175.8513,207.6587 176.315,207.6359 176.7786,207.6587 177.2377,207.7268 177.688,207.8396 178.125,207.9959 178.5447,208.1944 178.9428,208.433 179.3156,208.7095 179.6596,209.0213 179.9713,209.3652 180.2478,209.738 180.4864,210.1362 180.6849,210.5558 180.8413,210.9928 180.954,211.4431 181.0222,211.9022 181.0449,212.3659 181.0222,212.8295 180.954,213.2886 180.8413,213.7389 180.6849,214.1759 180.4864,214.5956 180.2478,214.9937 179.9713,215.3665 179.6596,215.7105 179.3156,216.0222 178.9428,216.2987 178.5447,216.5373 178.125,216.7358 177.688,216.8922 177.2377,217.0049 176.7786,217.0731"/>
    <polygon points="171.6759,187.1033 171.6078,186.6441 171.585,186.1805 171.6078,185.7169 171.6759,185.2578 171.7887,184.8075 171.945,184.3704 172.1435,183.9508 172.3821,183.5527 172.6586,183.1799 172.9704,182.8359 173.3143,182.5242 173.6871,182.2477 174.0853,182.0091 174.5049,181.8106 174.9419,181.6542 175.3922,181.5414 175.8513,181.4733 176.315,181.4506 176.7786,181.4733 177.2377,181.5414 177.688,181.6542 178.125,181.8106 178.5447,182.0091 178.9428,182.2477 179.3156,182.5242 179.6596,182.8359 179.9713,183.1799 180.2478,183.5527 180.4864,183.9508 180.6849,184.3704 180.8413,184.8075 180.954,185.2578 181.0222,185.7169 181.0449,186.1805 181.0222,186.6441 180.954,187.1033 180.8413,187.5536 180.6849,187.9906 180.4864,188.4102 180.2478,188.8084 179.9713,189.1812 179.6596,189.5251 179.3156,189.8368 178.9428,190.1134 178.5447,190.352 178.125,190.5504 177.688,190.7068 177.2377,190.8196 176.7786,190.8877 176.315,190.9105 175.8513,190.8877 175.3922,190.8196 174.9419,190.7068 174.5049,190.5504 174.0853,190.352 173.6871,190.1134 173.3143,189.8368 172.9704,189.5251 172.6586,189.1812 172.3821,188.8084 172.1435,188.4102 171.945,187.9906 171.7887,187.5536"/>
    <polygon points="179.6596,169.7433 179.9713,170.0872 180.2478,170.46 180.4864,170.8582 180.6849,171.2778 180.8413,171.7148 180.954,172.1651 181.0222,172.6242 181.0449,173.0879 181.0222,173.5515 180.954,174.0106 180.8413,174.4609 180.6849,174.8979 180.4864,175.3175 180.2478,175.7157 179.9713,176.0885 179.6596,176.4325 179.3156,176.7442 178.9428,177.0207 178.5447,177.2593 178.125,177.4578 177.688,177.6142 177.2377,177.7269 176.7786,177.7951 176.315,177.8178 175.8513,177.7951 175.3922,177.7269 174.9419,177.6142 174.5049,177.4578 174.0853,177.2593 173.6871,177.0207 173.3143,176.7442 172.9704,176.4325 172.6586,176.0885 172.3821,175.7157 172.1435,175.3175 171.945,174.8979 171.7887,174.4609 171.6759,174.0106 171.6078,173.5515 171.585,173.0879 171.6078,172.6242 171.6759,172.1651 171.7887,171.7148 171.945,171.2778 172.1435,170.8582 172.3821,170.46 172.6586,170.0872 172.9704,169.7433 173.3143,169.4315 173.6871,169.155 174.0853,168.9164 174.5049,168.7179 174.9419,168.5616 175.3922,168.4488 175.8513,168.3807 176.315,168.3579 176.7786,168.3807 177.2377,168.4488 177.688,168.5616 178.125,168.7179 178.5447,168.9164 178.9428,169.155 179.3156,169.4315"/>
    <polygon points="181.0222,160.4588 180.954,160.918 180.8413,161.3682 180.6849,161.8053 180.4864,162.2249 180.2478,162.623 179.9713,162.9959 179.6596,163.3398 179.3156,163.6515 178.9428,163.928 178.5447,164.1667 178.125,164.3651 177.688,164.5215 177.2377,164.6343 176.7786,164.7024 176.315,164.7252 175.8513,164.7024 175.3922,164.6343 174.9419,164.5215 174.5049,164.3651 174.0853,164.1667 173.6871,163.928 173.3143,163.6515 172.9704,163.3398 172.6586,162.9959 172.3821,162.623 172.1435,162.2249 171.945,161.8053 171.7887,161.3682 171.6759,160.918 171.6078,160.4588 171.585,159.9952 171.6078,159.5316 171.6759,159.0724 171.7887,158.6221 171.945,158.1851 172.1435,157.7655 172.3821,157.3674 172.6586,156.9945 172.9704,156.6506 173.3143,156.3389 173.6871,156.0624 174.0853,155.8237 174.5049,155.6253 174.9419,155.4689 175.3922,155.3561 175.8513,155.288 176.315,155.2652 176.7786,155.288 177.2377,155.3561 177.688,155.4689 178.125,155.6253 178.5447,155.8237 178.9428,156.0624 179.3156,156.3389 179.6596,156.6506 179.9713,156.9945 180.2478,157.3674 180.4864,157.7655 180.6849,158.1851 180.8413,158.6221 180.954,159.0724 181.0222,159.5316 181.0449,159.9952"/>
    <polygon points="184.6529,157.1052 184.3089,156.7934 183.9972,156.4495 183.7207,156.0767 183.4821,155.6785 183.2836,155.2589 183.1272,154.8219 183.0145,154.3716 182.9463,153.9125 182.9236,153.4489 182.9463,152.9852 183.0145,152.5261 183.1272,152.0758 183.2836,151.6388 183.4821,151.2192 183.7207,150.821 183.9972,150.4482 184.3089,150.1043 184.6529,149.7925 185.0257,149.516 185.4238,149.2774 185.8435,149.0789 186.2805,148.9226 186.7308,148.8098 187.1899,148.7417 187.6535,148.7189 188.1172,148.7417 188.5763,148.8098 189.0266,148.9226 189.4636,149.0789 189.8832,149.2774 190.2814,149.516 190.6542,149.7925 190.9981,150.1043 191.3099,150.4482 191.5864,150.821 191.825,151.2192 192.0235,151.6388 192.1798,152.0758 192.2926,152.5261 192.3607,152.9852 192.3835,153.4489 192.3607,153.9125 192.2926,154.3716 192.1798,154.8219 192.0235,155.2589 191.825,155.6785 191.5864,156.0767 191.3099,156.4495 190.9981,156.7934 190.6542,157.1052 190.2814,157.3817 189.8832,157.6203 189.4636,157.8188 189.0266,157.9752 188.5763,158.0879 188.1172,158.1561 187.6535,158.1788 187.1899,158.1561 186.7308,158.0879 186.2805,157.9752 185.8435,157.8188 185.4238,157.6203 185.0257,157.3817"/>
    <polygon points="212.1408,149.0789 212.5604,149.2774 212.9585,149.516 213.3314,149.7925 213.6753,150.1043 213.987,150.4482 214.2635,150.821 214.5022,151.2192 214.7006,151.6388 214.857,152.0758 214.9698,152.5261 215.0379,152.9852 215.0607,153.4489 215.0379,153.9125 214.9698,154.3716 214.857,154.8219 214.7006,155.2589 214.5022,155.6785 214.2635,156.0767 213.987,156.4495 213.6753,156.7934 213.3314,157.1052 212.9585,157.3817 212.5604,157.6203 212.1408,157.8188 211.7037,157.9752 211.2535,158.0879 210.7943,158.1561 210.3307,158.1788 209.8671,158.1561 209.4079,158.0879 208.9577,157.9752 208.5206,157.8188 208.101,157.6203 207.7029,157.3817 207.33,157.1052 206.9861,156.7934 206.6744,156.4495 206.3979,156.0767 206.1592,155.6785 205.9608,155.2589 205.8044,154.8219 205.6916,154.3716 205.6235,153.9125 205.6007,153.4489 205.6235,152.9852 205.6916,152.5261 205.8044,152.0758 205.9608,151.6388 206.1592,151.2192 206.3979,150.821 206.6744,150.4482 206.9861,150.1043 207.33,149.7925 207.7029,149.516 208.101,149.2774 208.5206,149.0789 208.9577,148.9226 209.4079,148.8098 209.8671,148.7417 210.3307,148.7189 210.7943,148.7417 211.2535,148.8098 211.7037,148.9226"/>
    <polygon points="213.3314,170.1978 212.9585,170.4743 212.5604,170.713 212.1408,170.9114 211.7037,171.0678 211.2535,171.1806 210.7943,171.2487 210.3307,171.2715 209.8671,171.2487 209.4079,171.1806 208.9577,171.0678 208.5206,170.9114 208.101,170.713 207.7029,170.4743 207.33,170.1978 206.9861,169.8861 206.6744,169.5422 206.3979,169.1694 206.1592,168.7712 205.9608,168.3516 205.8044,167.9146 205.6916,167.4643 205.6235,167.0051 205.6007,166.5415 205.6235,166.0779 205.6916,165.6187 205.8044,165.1685 205.9608,164.7314 206.1592,164.3118 206.3979,163.9137 206.6744,163.5409 206.9861,163.1969 207.33,162.8852 207.7029,162.6087 208.101,162.3701 208.5206,162.1716 208.9577,162.0152 209.4079,161.9024 209.8671,161.8343 210.3307,161.8115 210.7943,161.8343 211.2535,161.9024 211.7037,162.0152 212.1408,162.1716 212.5604,162.3701 212.9585,162.6087 213.3314,162.8852 213.6753,163.1969 213.987,163.5409 214.2635,163.9137 214.5022,164.3118 214.7006,164.7314 214.857,165.1685 214.9698,165.6187 215.0379,166.0779 215.0607,166.5415 215.0379,167.0051 214.9698,167.4643 214.857,167.9146 214.7006,168.3516 214.5022,168.7712 214.2635,169.1694 213.987,169.5422 213.6753,169.8861"/>
    <polygon points="232.0851,184.2733 231.6348,184.1605 231.1978,184.0041 230.7782,183.8057 230.38,183.567 230.0072,183.2905 229.6633,182.9788 229.3516,182.6349 229.075,182.262 228.8364,181.8639 228.6379,181.4443 228.4816,181.0072 228.3688,180.557 228.3007,180.0978 228.2779,179.6342 228.3007,179.1706 228.3688,178.7114 228.4816,178.2612 228.6379,177.8241 228.8364,177.4045 229.075,177.0064 229.3516,176.6335 229.6633,176.2896 230.0072,175.9779 230.38,175.7014 230.7782,175.4627 231.1978,175.2643 231.6348,175.1079 232.0851,174.9951 232.5443,174.927 233.0079,174.9042 233.4715,174.927 233.9306,174.9951 234.3809,175.1079 234.818,175.2643 235.2376,175.4627 235.6357,175.7014 236.0085,175.9779 236.3525,176.2896 236.6642,176.6335 236.9407,177.0064 237.1793,177.4045 237.3778,177.8241 237.5342,178.2612 237.647,178.7114 237.7151,179.1706 237.7378,179.6342 237.7151,180.0978 237.647,180.557 237.5342,181.0072 237.3778,181.4443 237.1793,181.8639 236.9407,182.262 236.6642,182.6349 236.3525,182.9788 236.0085,183.2905 235.6357,183.567 235.2376,183.8057 234.818,184.0041 234.3809,184.1605 233.9306,184.2733 233.4715,184.3414 233.0079,184.3642 232.5443,184.3414"/>
    <polygon points="218.4255,196.5985 217.3836,196.9713 216.3101,197.2402 215.2155,197.4025 214.1102,197.4568 213.005,197.4025 211.9103,197.2402 210.8369,196.9713 209.795,196.5985 208.7946,196.1253 207.8455,195.5564 206.9566,194.8972 206.1367,194.1541 205.3935,193.3341 204.7343,192.4453 204.1654,191.4961 203.6923,190.4958 203.3195,189.4539 203.0506,188.3804 202.8882,187.2858 202.8339,186.1805 202.8882,185.0753 203.0506,183.9806 203.3195,182.9072 203.6923,181.8653 204.1654,180.8649 204.7343,179.9157 205.3935,179.0269 206.1367,178.207 206.9566,177.4638 207.8455,176.8046 208.7946,176.2357 209.795,175.7626 210.8369,175.3898 211.9103,175.1209 213.005,174.9585 214.1102,174.9042 215.2155,174.9585 216.3101,175.1209 217.3836,175.3898 218.4255,175.7626 219.4259,176.2357 220.375,176.8046 221.2638,177.4638 222.0838,178.207 222.8269,179.0269 223.4861,179.9157 224.0551,180.8649 224.5282,181.8653 224.901,182.9072 225.1699,183.9806 225.3322,185.0753 225.3865,186.1805 225.3322,187.2858 225.1699,188.3804 224.901,189.4539 224.5282,190.4958 224.0551,191.4961 223.4861,192.4453 222.8269,193.3341 222.0838,194.1541 221.2638,194.8972 220.375,195.5564 219.4259,196.1253"/>
    <polygon points="201.3779,204.5888 200.809,205.538 200.1498,206.4268 199.4066,207.2467 198.5867,207.9899 197.6979,208.6491 196.7487,209.218 195.7483,209.6911 194.7064,210.0639 193.633,210.3328 192.5383,210.4952 191.4331,210.5495 190.3278,210.4952 189.2332,210.3328 188.1597,210.0639 187.1178,209.6911 186.1175,209.218 185.1683,208.6491 184.2795,207.9899 183.4595,207.2467 182.7164,206.4268 182.0572,205.538 181.4883,204.5888 181.0151,203.5884 180.6423,202.5465 180.3734,201.4731 180.2111,200.3785 180.1568,199.2732 180.2111,198.1679 180.3734,197.0733 180.6423,195.9999 181.0151,194.9579 181.4883,193.9576 182.0572,193.0084 182.7164,192.1196 183.4595,191.2996 184.2795,190.5565 185.1683,189.8973 186.1175,189.3284 187.1178,188.8552 188.1597,188.4824 189.2332,188.2136 190.3278,188.0512 191.4331,187.9969 192.5383,188.0512 193.633,188.2136 194.7064,188.4824 195.7483,188.8552 196.7487,189.3284 197.6979,189.8973 198.5867,190.5565 199.4066,191.2996 200.1498,192.1196 200.809,193.0084 201.3779,193.9576 201.851,194.9579 202.2238,195.9999 202.4927,197.0733 202.6551,198.1679 202.7094,199.2732 202.6551,200.3785 202.4927,201.4731 202.2238,202.5465 201.851,203.5884"/>
    <polygon points="197.7686,220.7044 198.3496,218.3846 199.1553,216.1329 200.1778,213.9711 201.4072,211.9198 202.8318,209.999 204.4378,208.2271 206.2098,206.6211 208.1306,205.1965 210.1818,203.967 212.3437,202.9445 214.5954,202.1389 216.9151,201.5578 219.2807,201.2069 221.6693,201.0896 224.0579,201.2069 226.4234,201.5578 228.7432,202.1389 230.9949,202.9445 233.1567,203.967 235.208,205.1965 237.1288,206.6211 238.9008,208.2271 240.5068,209.999 241.9314,211.9198 243.1608,213.9711 244.1833,216.1329 244.9889,218.3846 245.57,220.7044 245.9209,223.0699 246.0383,225.4585 245.9209,227.8471 245.57,230.2127 244.9889,232.5325 244.1833,234.7841 243.1608,236.946 241.9314,238.9972 240.5068,240.918 238.9008,242.69 237.1288,244.296 235.208,245.7206 233.1567,246.95 230.9949,247.9725 228.7432,248.7782 226.4234,249.3593 224.0579,249.7102 221.6693,249.8275 219.2807,249.7102 216.9151,249.3593 214.5954,248.7782 212.3437,247.9725 210.1818,246.95 208.1306,245.7206 206.2098,244.296 204.4378,242.69 202.8318,240.918 201.4072,238.9972 200.1778,236.946 199.1553,234.7841 198.3496,232.5325 197.7686,230.2127 197.4177,227.8471 197.3003,225.4585 197.4177,223.0699"/>
    <polygon points="204.7343,258.4717 204.1654,259.4209 203.6923,260.4213 203.3195,261.4632 203.0506,262.5366 202.8882,263.6313 202.8339,264.7365 202.8882,265.8418 203.0506,266.9364 203.3195,268.0099 203.6923,269.0518 204.1654,270.0521 204.7343,271.0013 205.3935,271.8901 206.1367,272.7101 206.9566,273.4532 207.8455,274.1124 208.7946,274.6813 209.795,275.1545 210.8369,275.5273 211.9103,275.7962 213.005,275.9585 214.1102,276.0128 215.2155,275.9585 216.3101,275.7962 217.3836,275.5273 218.4255,275.1545 219.4259,274.6813 220.375,274.1124 221.2638,273.4532 222.0838,272.7101 222.8269,271.8901 223.4861,271.0013 224.0551,270.0521 224.5282,269.0518 224.901,268.0099 225.1699,266.9364 225.3322,265.8418 225.3865,264.7365 225.3322,263.6313 225.1699,262.5366 224.901,261.4632 224.5282,260.4213 224.0551,259.4209 223.4861,258.4717 222.8269,257.5829 222.0838,256.763 221.2638,256.0198 220.375,255.3606 219.4259,254.7917 218.4255,254.3186 217.3836,253.9458 216.3101,253.6769 215.2155,253.5145 214.1102,253.4602 213.005,253.5145 211.9103,253.6769 210.8369,253.9458 209.795,254.3186 208.7946,254.7917 207.8455,255.3606 206.9566,256.0198 206.1367,256.763 205.3935,257.5829"/>
    <polygon points="236.3525,267.9383 236.0085,267.6265 235.6357,267.35 235.2376,267.1114 234.818,266.9129 234.3809,266.7566 233.9306,266.6438 233.4715,266.5757 233.0079,266.5529 232.5443,266.5757 232.0851,266.6438 231.6348,266.7566 231.1978,266.9129 230.7782,267.1114 230.38,267.35 230.0072,267.6265 229.6633,267.9383 229.3516,268.2822 229.075,268.655 228.8364,269.0532 228.6379,269.4728 228.4816,269.9098 228.3688,270.3601 228.3007,270.8192 228.2779,271.2829 228.3007,271.7465 228.3688,272.2056 228.4816,272.6559 228.6379,273.0929 228.8364,273.5126 229.075,273.9107 229.3516,274.2835 229.6633,274.6275 230.0072,274.9392 230.38,275.2157 230.7782,275.4543 231.1978,275.6528 231.6348,275.8092 232.0851,275.9219 232.5443,275.9901 233.0079,276.0128 233.4715,275.9901 233.9306,275.9219 234.3809,275.8092 234.818,275.6528 235.2376,275.4543 235.6357,275.2157 236.0085,274.9392 236.3525,274.6275 236.6642,274.2835 236.9407,273.9107 237.1793,273.5126 237.3778,273.0929 237.5342,272.6559 237.647,272.2056 237.7151,271.7465 237.7378,271.2829 237.7151,270.8192 237.647,270.3601 237.5342,269.9098 237.3778,269.4728 237.1793,269.0532 236.9407,268.655 236.6642,268.2822"/>
    <polygon points="269.8825,242.8664 270.2553,241.8245 270.5242,240.7511 270.6866,239.6565 270.7409,238.5512 270.6866,237.4459 270.5242,236.3513 270.2553,235.2779 269.8825,234.2359 269.4094,233.2356 268.8405,232.2864 268.1813,231.3976 267.4381,230.5776 266.6182,229.8345 265.7293,229.1753 264.7802,228.6064 263.7798,228.1332 262.7379,227.7604 261.6645,227.4916 260.5698,227.3292 259.4646,227.2749 258.3593,227.3292 257.2647,227.4916 256.1912,227.7604 255.1493,228.1332 254.149,228.6064 253.1998,229.1753 252.311,229.8345 251.491,230.5776 250.7479,231.3976 250.0887,232.2864 249.5198,233.2356 249.0466,234.2359 248.6738,235.2779 248.4049,236.3513 248.2426,237.4459 248.1883,238.5512 248.2426,239.6565 248.4049,240.7511 248.6738,241.8245 249.0466,242.8664 249.5198,243.8668 250.0887,244.816 250.7479,245.7048 251.491,246.5247 252.311,247.2679 253.1998,247.9271 254.149,248.496 255.1493,248.9691 256.1912,249.3419 257.2647,249.6108 258.3593,249.7732 259.4646,249.8275 260.5698,249.7732 261.6645,249.6108 262.7379,249.3419 263.7798,248.9691 264.7802,248.496 265.7293,247.9271 266.6182,247.2679 267.4381,246.5247 268.1813,245.7048 268.8405,244.816 269.4094,243.8668"/>
    <polygon points="274.1907,242.8678 273.9923,243.2874 273.8359,243.7245 273.7231,244.1748 273.655,244.6339 273.6322,245.0975 273.655,245.5611 273.7231,246.0203 273.8359,246.4706 273.9923,246.9076 274.1907,247.3272 274.4294,247.7254 274.7059,248.0982 275.0176,248.4421 275.3615,248.7538 275.7344,249.0304 276.1325,249.269 276.5521,249.4675 276.9892,249.6238 277.4394,249.7366 277.8986,249.8047 278.3622,249.8275 278.8258,249.8047 279.285,249.7366 279.7352,249.6238 280.1723,249.4675 280.5919,249.269 280.99,249.0304 281.3629,248.7538 281.7068,248.4421 282.0185,248.0982 282.295,247.7254 282.5337,247.3272 282.7321,246.9076 282.8885,246.4706 283.0013,246.0203 283.0694,245.5611 283.0922,245.0975 283.0694,244.6339 283.0013,244.1748 282.8885,243.7245 282.7321,243.2874 282.5337,242.8678 282.295,242.4697 282.0185,242.0969 281.7068,241.7529 281.3629,241.4412 280.99,241.1647 280.5919,240.9261 280.1723,240.7276 279.7352,240.5712 279.285,240.4584 278.8258,240.3903 278.3622,240.3676 277.8986,240.3903 277.4394,240.4584 276.9892,240.5712 276.5521,240.7276 276.1325,240.9261 275.7344,241.1647 275.3615,241.4412 275.0176,241.7529 274.7059,242.0969 274.4294,242.4697"/>
    <polygon points="277.8265,235.8765 278.8684,236.2493 279.9418,236.5182 281.0365,236.6805 282.1417,236.7348 283.247,236.6805 284.3416,236.5182 285.4151,236.2493 286.457,235.8765 287.4573,235.4033 288.4065,234.8344 289.2953,234.1752 290.1153,233.4321 290.8584,232.6121 291.5176,231.7233 292.0865,230.7741 292.5597,229.7738 292.9325,228.7319 293.2014,227.6584 293.3637,226.5638 293.418,225.4585 293.3637,224.3533 293.2014,223.2586 292.9325,222.1852 292.5597,221.1433 292.0865,220.1429 291.5176,219.1937 290.8584,218.3049 290.1153,217.485 289.2953,216.7418 288.4065,216.0826 287.4573,215.5137 286.457,215.0406 285.4151,214.6678 284.3416,214.3989 283.247,214.2365 282.1417,214.1822 281.0365,214.2365 279.9418,214.3989 278.8684,214.6678 277.8265,215.0406 276.8261,215.5137 275.877,216.0826 274.9881,216.7418 274.1682,217.485 273.425,218.3049 272.7658,219.1937 272.1969,220.1429 271.7238,221.1433 271.351,222.1852 271.0821,223.2586 270.9197,224.3533 270.8654,225.4585 270.9197,226.5638 271.0821,227.6584 271.351,228.7319 271.7238,229.7738 272.1969,230.7741 272.7658,231.7233 273.425,232.6121 274.1682,233.4321 274.9881,234.1752 275.877,234.8344 276.8261,235.4033"/>
    <polygon points="300.5758,249.8047 301.0394,249.8275 301.503,249.8047 301.9621,249.7366 302.4124,249.6238 302.8495,249.4675 303.2691,249.269 303.6672,249.0304 304.04,248.7538 304.384,248.4421 304.6957,248.0982 304.9722,247.7254 305.2108,247.3272 305.4093,246.9076 305.5657,246.4706 305.6785,246.0203 305.7466,245.5611 305.7693,245.0975 305.7466,244.6339 305.6785,244.1748 305.5657,243.7245 305.4093,243.2874 305.2108,242.8678 304.9722,242.4697 304.6957,242.0969 304.384,241.7529 304.04,241.4412 303.6672,241.1647 303.2691,240.9261 302.8495,240.7276 302.4124,240.5712 301.9621,240.4584 301.503,240.3903 301.0394,240.3676 300.5758,240.3903 300.1166,240.4584 299.6663,240.5712 299.2293,240.7276 298.8097,240.9261 298.4115,241.1647 298.0387,241.4412 297.6948,241.7529 297.3831,242.0969 297.1065,242.4697 296.8679,242.8678 296.6694,243.2874 296.5131,243.7245 296.4003,244.1748 296.3322,244.6339 296.3094,245.0975 296.3322,245.5611 296.4003,246.0203 296.5131,246.4706 296.6694,246.9076 296.8679,247.3272 297.1065,247.7254 297.3831,248.0982 297.6948,248.4421 298.0387,248.7538 298.4115,249.0304 298.8097,249.269 299.2293,249.4675 299.6663,249.6238 300.1166,249.7366"/>
    <polygon points="305.5657,233.3779 305.6785,232.9276 305.7466,232.4685 305.7693,232.0049 305.7466,231.5412 305.6785,231.0821 305.5657,230.6318 305.4093,230.1948 305.2108,229.7752 304.9722,229.377 304.6957,229.0042 304.384,228.6603 304.04,228.3485 303.6672,228.072 303.2691,227.8334 302.8495,227.6349 302.4124,227.4786 301.9621,227.3658 301.503,227.2977 301.0394,227.2749 300.5758,227.2977 300.1166,227.3658 299.6663,227.4786 299.2293,227.6349 298.8097,227.8334 298.4115,228.072 298.0387,228.3485 297.6948,228.6603 297.3831,229.0042 297.1065,229.377 296.8679,229.7752 296.6694,230.1948 296.5131,230.6318 296.4003,231.0821 296.3322,231.5412 296.3094,232.0049 296.3322,232.4685 296.4003,232.9276 296.5131,233.3779 296.6694,233.8149 296.8679,234.2346 297.1065,234.6327 297.3831,235.0055 297.6948,235.3495 298.0387,235.6612 298.4115,235.9377 298.8097,236.1763 299.2293,236.3748 299.6663,236.5312 300.1166,236.6439 300.5758,236.7121 301.0394,236.7348 301.503,236.7121 301.9621,236.6439 302.4124,236.5312 302.8495,236.3748 303.2691,236.1763 303.6672,235.9377 304.04,235.6612 304.384,235.3495 304.6957,235.0055 304.9722,234.6327 305.2108,234.2346 305.4093,233.8149"/>
    <polygon points="281.7068,202.4749 281.3629,202.1632 280.99,201.8867 280.5919,201.6481 280.1723,201.4496 279.7352,201.2932 279.285,201.1804 278.8258,201.1123 278.3622,201.0896 277.8986,201.1123 277.4394,201.1804 276.9892,201.2932 276.5521,201.4496 276.1325,201.6481 275.7344,201.8867 275.3615,202.1632 275.0176,202.4749 274.7059,202.8189 274.4294,203.1917 274.1907,203.5898 273.9923,204.0094 273.8359,204.4465 273.7231,204.8968 273.655,205.3559 273.6322,205.8195 273.655,206.2831 273.7231,206.7423 273.8359,207.1926 273.9923,207.6296 274.1907,208.0492 274.4294,208.4474 274.7059,208.8202 275.0176,209.1641 275.3615,209.4758 275.7344,209.7524 276.1325,209.991 276.5521,210.1894 276.9892,210.3458 277.4394,210.4586 277.8986,210.5267 278.3622,210.5495 278.8258,210.5267 279.285,210.4586 279.7352,210.3458 280.1723,210.1894 280.5919,209.991 280.99,209.7524 281.3629,209.4758 281.7068,209.1641 282.0185,208.8202 282.295,208.4474 282.5337,208.0492 282.7321,207.6296 282.8885,207.1926 283.0013,206.7423 283.0694,206.2831 283.0922,205.8195 283.0694,205.3559 283.0013,204.8968 282.8885,204.4465 282.7321,204.0094 282.5337,203.5898 282.295,203.1917 282.0185,202.8189"/>
    <polygon points="253.1998,202.99 252.311,203.6492 251.491,204.3923 250.7479,205.2122 250.0887,206.1011 249.5198,207.0502 249.0466,208.0506 248.6738,209.0925 248.4049,210.166 248.2426,211.2606 248.1883,212.3659 248.2426,213.4711 248.4049,214.5658 248.6738,215.6392 249.0466,216.6811 249.5198,217.6815 250.0887,218.6306 250.7479,219.5195 251.491,220.3394 252.311,221.0826 253.1998,221.7418 254.149,222.3107 255.1493,222.7838 256.1912,223.1566 257.2647,223.4255 258.3593,223.5879 259.4646,223.6422 260.5698,223.5879 261.6645,223.4255 262.7379,223.1566 263.7798,222.7838 264.7802,222.3107 265.7293,221.7418 266.6182,221.0826 267.4381,220.3394 268.1813,219.5195 268.8405,218.6306 269.4094,217.6815 269.8825,216.6811 270.2553,215.6392 270.5242,214.5658 270.6866,213.4711 270.7409,212.3659 270.6866,211.2606 270.5242,210.166 270.2553,209.0925 269.8825,208.0506 269.4094,207.0502 268.8405,206.1011 268.1813,205.2122 267.4381,204.3923 266.6182,203.6492 265.7293,202.99 264.7802,202.421 263.7798,201.9479 262.7379,201.5751 261.6645,201.3062 260.5698,201.1438 259.4646,201.0896 258.3593,201.1438 257.2647,201.3062 256.1912,201.5751 255.1493,201.9479 254.149,202.421"/>
  </g>
</svg>
