<?xml version="1.0" encoding="utf-8" ?>
<svg xmlns="http://www.w3.org/2000/svg" xmlns:cc="http://creativecommons.org/ns" xmlns:dc="http://purl.org/dc/elements/1.1/" xmlns:ev="http://www.w3.org/2001/xml-events" xmlns:inkscape="http://www.inkscape.org/namespaces/inkscape" xmlns:rdf="http://www.w3.org/1999/02/22-rdf-syntax-ns" xmlns:sodipodi="http://sodipodi.sourceforge.net/DTD/sodipodi-0.dtd" xmlns:xlink="http://www.w3.org/1999/xlink" baseProfile="tiny" height="15.875cm" version="1.2" viewBox="0 0 432.0 600.0" width="11.43cm">
  <metadata>
    <rdf:RDF>
      <cc:Work>
        <dc:format>image/svg+xml</dc:format>
        <dc:source>vsk save -s 194 -c hex-grid/config/bubble-coasters-2.json /Users/tobin/src/fabian/plotting/fabian-plotting/hex-grid/sketch_hex_grid.py</dc:source>
        <dc:date>2023-11-04T10:32:59.861798</dc:date>
      </cc:Work>
    </rdf:RDF>
  </metadata>
  <defs/>
  <g fill="none" id="layer1" inkscape:groupmode="layer" inkscape:label="1" stroke="#000000" stroke-width="0.7559" style="display:inline">
    <polygon points="126.4343,272.6559 126.3215,272.2056 126.2534,271.7465 126.2307,271.2829 126.2534,270.8192 126.3215,270.3601 126.4343,269.9098 126.5907,269.4728 126.7892,269.0532 127.0278,268.655 127.3043,268.2822 127.616,267.9383 127.96,267.6265 128.3328,267.35 128.7309,267.1114 129.1505,266.9129 129.5876,266.7566 130.0379,266.6438 130.497,266.5757 130.9606,266.5529 131.4242,266.5757 131.8834,266.6438 132.3337,266.7566 132.7707,266.9129 133.1903,267.1114 133.5885,267.35 133.9613,267.6265 134.3052,267.9383 134.6169,268.2822 134.8935,268.655 135.1321,269.0532 135.3306,269.4728 135.4869,269.9098 135.5997,270.3601 135.6678,270.8192 135.6906,271.2829 135.6678,271.7465 135.5997,272.2056 135.4869,272.6559 135.3306,273.0929 135.1321,273.5126 134.8935,273.9107 134.6169,274.2835 134.3052,274.6275 133.9613,274.9392 133.5885,275.2157 133.1903,275.4543 132.7707,275.6528 132.3337,275.8092 131.8834,275.9219 131.4242,275.9901 130.9606,276.0128 130.497,275.9901 130.0379,275.9219 129.5876,275.8092 129.1505,275.6528 128.7309,275.4543 128.3328,275.2157 127.96,274.9392 127.616,274.6275 127.3043,274.2835 127.0278,273.9107 126.7892,273.5126 126.5907,273.0929"/>
    <polygon points="127.0278,255.5624 127.3043,255.1895 127.616,254.8456 127.96,254.5339 128.3328,254.2574 128.7309,254.0187 129.1505,253.8203 129.5876,253.6639 130.0379,253.5511 130.497,253.483 130.9606,253.4602 131.4242,253.483 131.8834,253.5511 132.3337,253.6639 132.7707,253.8203 133.1903,254.0187 133.5885,254.2574 133.9613,254.5339 134.3052,254.8456 134.6169,255.1895 134.8935,255.5624 135.1321,255.9605 135.3306,256.3801 135.4869,256.8172 135.5997,257.2674 135.6678,257.7266 135.6906,258.1902 135.6678,258.6538 135.5997,259.113 135.4869,259.5632 135.3306,260.0003 135.1321,260.4199 134.8935,260.818 134.6169,261.1909 134.3052,261.5348 133.9613,261.8465 133.5885,262.123 133.1903,262.3617 132.7707,262.5601 132.3337,262.7165 131.8834,262.8293 131.4242,262.8974 130.9606,262.9202 130.497,262.8974 130.0379,262.8293 129.5876,262.7165 129.1505,262.5601 128.7309,262.3617 128.3328,262.123 127.96,261.8465 127.616,261.5348 127.3043,261.1909 127.0278,260.818 126.7892,260.4199 126.5907,260.0003 126.4343,259.5632 126.3215,259.113 126.2534,258.6538 126.2307,258.1902 126.2534,257.7266 126.3215,257.2674 126.4343,256.8172 126.5907,256.3801 126.7892,255.9605"/>
    <polygon points="158.3678,218.9122 158.345,218.4486 158.2769,217.9894 158.1641,217.5392 158.0077,217.1021 157.8093,216.6825 157.5706,216.2844 157.2941,215.9115 156.9824,215.5676 156.6385,215.2559 156.2656,214.9794 155.8675,214.7407 155.4479,214.5423 155.0108,214.3859 154.5606,214.2731 154.1014,214.205 153.6378,214.1822 153.1742,214.205 152.715,214.2731 152.2648,214.3859 151.8277,214.5423 151.4081,214.7407 151.01,214.9794 150.6371,215.2559 150.2932,215.5676 149.9815,215.9115 149.705,216.2844 149.4663,216.6825 149.2679,217.1021 149.1115,217.5392 148.9987,217.9894 148.9306,218.4486 148.9078,218.9122 148.9306,219.3758 148.9987,219.835 149.1115,220.2852 149.2679,220.7223 149.4663,221.1419 149.705,221.54 149.9815,221.9129 150.2932,222.2568 150.6371,222.5685 151.01,222.845 151.4081,223.0837 151.8277,223.2821 152.2648,223.4385 152.715,223.5513 153.1742,223.6194 153.6378,223.6422 154.1014,223.6194 154.5606,223.5513 155.0108,223.4385 155.4479,223.2821 155.8675,223.0837 156.2656,222.845 156.6385,222.5685 156.9824,222.2568 157.2941,221.9129 157.5706,221.54 157.8093,221.1419 158.0077,220.7223 158.1641,220.2852 158.2769,219.835 158.345,219.3758"/>
    <polygon points="172.9704,196.0715 173.3143,196.3832 173.6871,196.6597 174.0853,196.8983 174.5049,197.0968 174.9419,197.2532 175.3922,197.3659 175.8513,197.4341 176.315,197.4568 176.7786,197.4341 177.2377,197.3659 177.688,197.2532 178.125,197.0968 178.5447,196.8983 178.9428,196.6597 179.3156,196.3832 179.6596,196.0715 179.9713,195.7275 180.2478,195.3547 180.4864,194.9566 180.6849,194.5369 180.8413,194.0999 180.954,193.6496 181.0222,193.1905 181.0449,192.7269 181.0222,192.2632 180.954,191.8041 180.8413,191.3538 180.6849,190.9168 180.4864,190.4972 180.2478,190.099 179.9713,189.7262 179.6596,189.3823 179.3156,189.0705 178.9428,188.794 178.5447,188.5554 178.125,188.3569 177.688,188.2006 177.2377,188.0878 176.7786,188.0197 176.315,187.9969 175.8513,188.0197 175.3922,188.0878 174.9419,188.2006 174.5049,188.3569 174.0853,188.5554 173.6871,188.794 173.3143,189.0705 172.9704,189.3823 172.6586,189.7262 172.3821,190.099 172.1435,190.4972 171.945,190.9168 171.7887,191.3538 171.6759,191.8041 171.6078,192.2632 171.585,192.7269 171.6078,193.1905 171.6759,193.6496 171.7887,194.0999 171.945,194.5369 172.1435,194.9566 172.3821,195.3547 172.6586,195.7275"/>
    <polygon points="179.6596,176.2896 179.9713,176.6335 180.2478,177.0064 180.4864,177.4045 180.6849,177.8241 180.8413,178.2612 180.954,178.7114 181.0222,179.1706 181.0449,179.6342 181.0222,180.0978 180.954,180.557 180.8413,181.0072 180.6849,181.4443 180.4864,181.8639 180.2478,182.262 179.9713,182.6349 179.6596,182.9788 179.3156,183.2905 178.9428,183.567 178.5447,183.8057 178.125,184.0041 177.688,184.1605 177.2377,184.2733 176.7786,184.3414 176.315,184.3642 175.8513,184.3414 175.3922,184.2733 174.9419,184.1605 174.5049,184.0041 174.0853,183.8057 173.6871,183.567 173.3143,183.2905 172.9704,182.9788 172.6586,182.6349 172.3821,182.262 172.1435,181.8639 171.945,181.4443 171.7887,181.0072 171.6759,180.557 171.6078,180.0978 171.585,179.6342 171.6078,179.1706 171.6759,178.7114 171.7887,178.2612 171.945,177.8241 172.1435,177.4045 172.3821,177.0064 172.6586,176.6335 172.9704,176.2896 173.3143,175.9779 173.6871,175.7014 174.0853,175.4627 174.5049,175.2643 174.9419,175.1079 175.3922,174.9951 175.8513,174.927 176.315,174.9042 176.7786,174.927 177.2377,174.9951 177.688,175.1079 178.125,175.2643 178.5447,175.4627 178.9428,175.7014 179.3156,175.9779"/>
    <polygon points="196.3643,188.794 196.7624,188.5554 197.182,188.3569 197.6191,188.2006 198.0694,188.0878 198.5285,188.0197 198.9921,187.9969 199.4557,188.0197 199.9149,188.0878 200.3652,188.2006 200.8022,188.3569 201.2218,188.5554 201.62,188.794 201.9928,189.0705 202.3367,189.3823 202.6484,189.7262 202.925,190.099 203.1636,190.4972 203.3621,190.9168 203.5184,191.3538 203.6312,191.8041 203.6993,192.2632 203.7221,192.7269 203.6993,193.1905 203.6312,193.6496 203.5184,194.0999 203.3621,194.5369 203.1636,194.9566 202.925,195.3547 202.6484,195.7275 202.3367,196.0715 201.9928,196.3832 201.62,196.6597 201.2218,196.8983 200.8022,197.0968 200.3652,197.2532 199.9149,197.3659 199.4557,197.4341 198.9921,197.4568 198.5285,197.4341 198.0694,197.3659 197.6191,197.2532 197.182,197.0968 196.7624,196.8983 196.3643,196.6597 195.9915,196.3832 195.6475,196.0715 195.3358,195.7275 195.0593,195.3547 194.8207,194.9566 194.6222,194.5369 194.4658,194.0999 194.353,193.6496 194.2849,193.1905 194.2622,192.7269 194.2849,192.2632 194.353,191.8041 194.4658,191.3538 194.6222,190.9168 194.8207,190.4972 195.0593,190.099 195.3358,189.7262 195.6475,189.3823 195.9915,189.0705"/>
    <polygon points="189.4636,203.6431 189.8832,203.4447 190.2814,203.206 190.6542,202.9295 190.9981,202.6178 191.3099,202.2739 191.5864,201.901 191.825,201.5029 192.0235,201.0833 192.1798,200.6462 192.2926,200.196 192.3607,199.7368 192.3835,199.2732 192.3607,198.8096 192.2926,198.3504 192.1798,197.9002 192.0235,197.4631 191.825,197.0435 191.5864,196.6454 191.3099,196.2725 190.9981,195.9286 190.6542,195.6169 190.2814,195.3404 189.8832,195.1017 189.4636,194.9033 189.0266,194.7469 188.5763,194.6341 188.1172,194.566 187.6535,194.5432 187.1899,194.566 186.7308,194.6341 186.2805,194.7469 185.8435,194.9033 185.4238,195.1017 185.0257,195.3404 184.6529,195.6169 184.3089,195.9286 183.9972,196.2725 183.7207,196.6454 183.4821,197.0435 183.2836,197.4631 183.1272,197.9002 183.0145,198.3504 182.9463,198.8096 182.9236,199.2732 182.9463,199.7368 183.0145,200.196 183.1272,200.6462 183.2836,201.0833 183.4821,201.5029 183.7207,201.901 183.9972,202.2739 184.3089,202.6178 184.6529,202.9295 185.0257,203.206 185.4238,203.4447 185.8435,203.6431 186.2805,203.7995 186.7308,203.9123 187.1899,203.9804 187.6535,204.0032 188.1172,203.9804 188.5763,203.9123 189.0266,203.7995"/>
    <polygon points="199.4066,210.9386 198.5867,210.1955 197.6979,209.5363 196.7487,208.9674 195.7483,208.4942 194.7064,208.1214 193.633,207.8526 192.5383,207.6902 191.4331,207.6359 190.3278,207.6902 189.2332,207.8526 188.1597,208.1214 187.1178,208.4942 186.1175,208.9674 185.1683,209.5363 184.2795,210.1955 183.4595,210.9386 182.7164,211.7586 182.0572,212.6474 181.4883,213.5966 181.0151,214.5969 180.6423,215.6389 180.3734,216.7123 180.2111,217.8069 180.1568,218.9122 180.2111,220.0175 180.3734,221.1121 180.6423,222.1855 181.0151,223.2274 181.4883,224.2278 182.0572,225.177 182.7164,226.0658 183.4595,226.8857 184.2795,227.6289 185.1683,228.2881 186.1175,228.857 187.1178,229.3301 188.1597,229.7029 189.2332,229.9718 190.3278,230.1342 191.4331,230.1885 192.5383,230.1342 193.633,229.9718 194.7064,229.7029 195.7483,229.3301 196.7487,228.857 197.6979,228.2881 198.5867,227.6289 199.4066,226.8857 200.1498,226.0658 200.809,225.177 201.3779,224.2278 201.851,223.2274 202.2238,222.1855 202.4927,221.1121 202.6551,220.0175 202.7094,218.9122 202.6551,217.8069 202.4927,216.7123 202.2238,215.6389 201.851,214.5969 201.3779,213.5966 200.809,212.6474 200.1498,211.7586"/>
    <polygon points="169.8612,220.7829 170.9558,220.9452 172.0292,221.2141 173.0712,221.5869 174.0715,222.06 175.0207,222.629 175.9095,223.2882 176.7295,224.0313 177.4726,224.8512 178.1318,225.7401 178.7007,226.6892 179.1739,227.6896 179.5467,228.7315 179.8155,229.805 179.9779,230.8996 180.0322,232.0049 179.9779,233.1101 179.8155,234.2048 179.5467,235.2782 179.1739,236.3201 178.7007,237.3205 178.1318,238.2696 177.4726,239.1585 176.7295,239.9784 175.9095,240.7216 175.0207,241.3808 174.0715,241.9497 173.0712,242.4228 172.0292,242.7956 170.9558,243.0645 169.8612,243.2269 168.7559,243.2812 167.6506,243.2269 166.556,243.0645 165.4826,242.7956 164.4406,242.4228 163.4403,241.9497 162.4911,241.3808 161.6023,240.7216 160.7824,239.9784 160.0392,239.1585 159.38,238.2696 158.8111,237.3205 158.338,236.3201 157.9652,235.2782 157.6963,234.2048 157.5339,233.1101 157.4796,232.0049 157.5339,230.8996 157.6963,229.805 157.9652,228.7315 158.338,227.6896 158.8111,226.6892 159.38,225.7401 160.0392,224.8512 160.7824,224.0313 161.6023,223.2882 162.4911,222.629 163.4403,222.06 164.4406,221.5869 165.4826,221.2141 166.556,220.9452 167.6506,220.7829 168.7559,220.7286"/>
    <polygon points="157.1384,247.2974 156.8695,248.3709 156.4967,249.4128 156.0236,250.4131 155.4546,251.3623 154.7954,252.2511 154.0523,253.0711 153.2324,253.8142 152.3435,254.4734 151.3944,255.0423 150.394,255.5155 149.3521,255.8883 148.2786,256.1572 147.184,256.3195 146.0787,256.3738 144.9735,256.3195 143.8788,256.1572 142.8054,255.8883 141.7635,255.5155 140.7631,255.0423 139.814,254.4734 138.9251,253.8142 138.1052,253.0711 137.362,252.2511 136.7028,251.3623 136.1339,250.4131 135.6608,249.4128 135.288,248.3709 135.0191,247.2974 134.8567,246.2028 134.8024,245.0975 134.8567,243.9923 135.0191,242.8976 135.288,241.8242 135.6608,240.7823 136.1339,239.7819 136.7028,238.8327 137.362,237.9439 138.1052,237.124 138.9251,236.3808 139.814,235.7216 140.7631,235.1527 141.7635,234.6796 142.8054,234.3068 143.8788,234.0379 144.9735,233.8755 146.0787,233.8212 147.184,233.8755 148.2786,234.0379 149.3521,234.3068 150.394,234.6796 151.3944,235.1527 152.3435,235.7216 153.2324,236.3808 154.0523,237.124 154.7954,237.9439 155.4546,238.8327 156.0236,239.7819 156.4967,240.7823 156.8695,241.8242 157.1384,242.8976 157.3007,243.9923 157.355,245.0975 157.3007,246.2028"/>
    <polygon points="167.6506,273.1535 168.7559,273.0992 169.8612,273.1535 170.9558,273.3159 172.0292,273.5848 173.0712,273.9576 174.0715,274.4307 175.0207,274.9996 175.9095,275.6588 176.7295,276.402 177.4726,277.2219 178.1318,278.1107 178.7007,279.0599 179.1739,280.0603 179.5467,281.1022 179.8155,282.1756 179.9779,283.2703 180.0322,284.3755 179.9779,285.4808 179.8155,286.5754 179.5467,287.6489 179.1739,288.6908 178.7007,289.6911 178.1318,290.6403 177.4726,291.5291 176.7295,292.3491 175.9095,293.0922 175.0207,293.7514 174.0715,294.3203 173.0712,294.7935 172.0292,295.1663 170.9558,295.4352 169.8612,295.5975 168.7559,295.6518 167.6506,295.5975 166.556,295.4352 165.4826,295.1663 164.4406,294.7935 163.4403,294.3203 162.4911,293.7514 161.6023,293.0922 160.7824,292.3491 160.0392,291.5291 159.38,290.6403 158.8111,289.6911 158.338,288.6908 157.9652,287.6489 157.6963,286.5754 157.5339,285.4808 157.4796,284.3755 157.5339,283.2703 157.6963,282.1756 157.9652,281.1022 158.338,280.0603 158.8111,279.0599 159.38,278.1107 160.0392,277.2219 160.7824,276.402 161.6023,275.6588 162.4911,274.9996 163.4403,274.4307 164.4406,273.9576 165.4826,273.5848 166.556,273.3159"/>
    <polygon points="175.6725,317.6348 175.0914,315.315 174.7405,312.9494 174.6232,310.5609 174.7405,308.1723 175.0914,305.8067 175.6725,303.4869 176.4781,301.2353 177.5006,299.0734 178.7301,297.0222 180.1547,295.1014 181.7607,293.3294 183.5326,291.7234 185.4534,290.2988 187.5047,289.0693 189.6665,288.0469 191.9182,287.2412 194.238,286.6601 196.6035,286.3092 198.9921,286.1919 201.3807,286.3092 203.7463,286.6601 206.0661,287.2412 208.3177,288.0469 210.4796,289.0693 212.5308,290.2988 214.4516,291.7234 216.2236,293.3294 217.8296,295.1014 219.2542,297.0222 220.4836,299.0734 221.5061,301.2353 222.3118,303.4869 222.8929,305.8067 223.2438,308.1723 223.3611,310.5609 223.2438,312.9494 222.8929,315.315 222.3118,317.6348 221.5061,319.8865 220.4836,322.0483 219.2542,324.0995 217.8296,326.0204 216.2236,327.7923 214.4516,329.3983 212.5308,330.8229 210.4796,332.0524 208.3177,333.0749 206.0661,333.8805 203.7463,334.4616 201.3807,334.8125 198.9921,334.9298 196.6035,334.8125 194.238,334.4616 191.9182,333.8805 189.6665,333.0749 187.5047,332.0524 185.4534,330.8229 183.5326,329.3983 181.7607,327.7923 180.1547,326.0204 178.7301,324.0995 177.5006,322.0483 176.4781,319.8865"/>
    <polygon points="167.6506,325.5242 168.7559,325.4699 169.8612,325.5242 170.9558,325.6866 172.0292,325.9554 173.0712,326.3283 174.0715,326.8014 175.0207,327.3703 175.9095,328.0295 176.7295,328.7726 177.4726,329.5926 178.1318,330.4814 178.7007,331.4306 179.1739,332.4309 179.5467,333.4729 179.8155,334.5463 179.9779,335.6409 180.0322,336.7462 179.9779,337.8515 179.8155,338.9461 179.5467,340.0195 179.1739,341.0615 178.7007,342.0618 178.1318,343.011 177.4726,343.8998 176.7295,344.7198 175.9095,345.4629 175.0207,346.1221 174.0715,346.691 173.0712,347.1641 172.0292,347.537 170.9558,347.8058 169.8612,347.9682 168.7559,348.0225 167.6506,347.9682 166.556,347.8058 165.4826,347.537 164.4406,347.1641 163.4403,346.691 162.4911,346.1221 161.6023,345.4629 160.7824,344.7198 160.0392,343.8998 159.38,343.011 158.8111,342.0618 158.338,341.0615 157.9652,340.0195 157.6963,338.9461 157.5339,337.8515 157.4796,336.7462 157.5339,335.6409 157.6963,334.5463 157.9652,333.4729 158.338,332.4309 158.8111,331.4306 159.38,330.4814 160.0392,329.5926 160.7824,328.7726 161.6023,328.0295 162.4911,327.3703 163.4403,326.8014 164.4406,326.3283 165.4826,325.9554 166.556,325.6866"/>
    <polygon points="149.705,352.4667 149.4663,352.0686 149.2679,351.6489 149.1115,351.2119 148.9987,350.7616 148.9306,350.3025 148.9078,349.8389 148.9306,349.3752 148.9987,348.9161 149.1115,348.4658 149.2679,348.0288 149.4663,347.6092 149.705,347.211 149.9815,346.8382 150.2932,346.4943 150.6371,346.1825 151.01,345.906 151.4081,345.6674 151.8277,345.4689 152.2648,345.3126 152.715,345.1998 153.1742,345.1317 153.6378,345.1089 154.1014,345.1317 154.5606,345.1998 155.0108,345.3126 155.4479,345.4689 155.8675,345.6674 156.2656,345.906 156.6385,346.1825 156.9824,346.4943 157.2941,346.8382 157.5706,347.211 157.8093,347.6092 158.0077,348.0288 158.1641,348.4658 158.2769,348.9161 158.345,349.3752 158.3678,349.8389 158.345,350.3025 158.2769,350.7616 158.1641,351.2119 158.0077,351.6489 157.8093,352.0686 157.5706,352.4667 157.2941,352.8395 156.9824,353.1835 156.6385,353.4952 156.2656,353.7717 155.8675,354.0103 155.4479,354.2088 155.0108,354.3652 154.5606,354.478 154.1014,354.5461 153.6378,354.5688 153.1742,354.5461 152.715,354.478 152.2648,354.3652 151.8277,354.2088 151.4081,354.0103 151.01,353.7717 150.6371,353.4952 150.2932,353.1835 149.9815,352.8395"/>
    <polygon points="185.1683,359.2148 184.2795,358.5556 183.4595,357.8124 182.7164,356.9925 182.0572,356.1036 181.4883,355.1545 181.0151,354.1541 180.6423,353.1122 180.3734,352.0388 180.2111,350.9441 180.1568,349.8389 180.2111,348.7336 180.3734,347.639 180.6423,346.5655 181.0151,345.5236 181.4883,344.5233 182.0572,343.5741 182.7164,342.6853 183.4595,341.8653 184.2795,341.1222 185.1683,340.463 186.1175,339.8941 187.1178,339.4209 188.1597,339.0481 189.2332,338.7792 190.3278,338.6169 191.4331,338.5626 192.5383,338.6169 193.633,338.7792 194.7064,339.0481 195.7483,339.4209 196.7487,339.8941 197.6979,340.463 198.5867,341.1222 199.4066,341.8653 200.1498,342.6853 200.809,343.5741 201.3779,344.5233 201.851,345.5236 202.2238,346.5655 202.4927,347.639 202.6551,348.7336 202.7094,349.8389 202.6551,350.9441 202.4927,352.0388 202.2238,353.1122 201.851,354.1541 201.3779,355.1545 200.809,356.1036 200.1498,356.9925 199.4066,357.8124 198.5867,358.5556 197.6979,359.2148 196.7487,359.7837 195.7483,360.2568 194.7064,360.6296 193.633,360.8985 192.5383,361.0609 191.4331,361.1152 190.3278,361.0609 189.2332,360.8985 188.1597,360.6296 187.1178,360.2568 186.1175,359.7837"/>
    <polygon points="189.8832,365.3064 190.2814,365.545 190.6542,365.8215 190.9981,366.1333 191.3099,366.4772 191.5864,366.85 191.825,367.2482 192.0235,367.6678 192.1798,368.1048 192.2926,368.5551 192.3607,369.0142 192.3835,369.4779 192.3607,369.9415 192.2926,370.4006 192.1798,370.8509 192.0235,371.288 191.825,371.7076 191.5864,372.1057 191.3099,372.4785 190.9981,372.8225 190.6542,373.1342 190.2814,373.4107 189.8832,373.6493 189.4636,373.8478 189.0266,374.0042 188.5763,374.117 188.1172,374.1851 187.6535,374.2078 187.1899,374.1851 186.7308,374.117 186.2805,374.0042 185.8435,373.8478 185.4238,373.6493 185.0257,373.4107 184.6529,373.1342 184.3089,372.8225 183.9972,372.4785 183.7207,372.1057 183.4821,371.7076 183.2836,371.288 183.1272,370.8509 183.0145,370.4006 182.9463,369.9415 182.9236,369.4779 182.9463,369.0142 183.0145,368.5551 183.1272,368.1048 183.2836,367.6678 183.4821,367.2482 183.7207,366.85 183.9972,366.4772 184.3089,366.1333 184.6529,365.8215 185.0257,365.545 185.4238,365.3064 185.8435,365.1079 186.2805,364.9516 186.7308,364.8388 187.1899,364.7707 187.6535,364.7479 188.1172,364.7707 188.5763,364.8388 189.0266,364.9516 189.4636,365.1079"/>
    <polygon points="199.4557,380.7314 199.9149,380.6633 200.3652,380.5505 200.8022,380.3941 201.2218,380.1957 201.62,379.957 201.9928,379.6805 202.3367,379.3688 202.6484,379.0249 202.925,378.652 203.1636,378.2539 203.3621,377.8343 203.5184,377.3972 203.6312,376.947 203.6993,376.4878 203.7221,376.0242 203.6993,375.5606 203.6312,375.1014 203.5184,374.6512 203.3621,374.2141 203.1636,373.7945 202.925,373.3964 202.6484,373.0235 202.3367,372.6796 201.9928,372.3679 201.62,372.0914 201.2218,371.8527 200.8022,371.6543 200.3652,371.4979 199.9149,371.3851 199.4557,371.317 198.9921,371.2942 198.5285,371.317 198.0694,371.3851 197.6191,371.4979 197.182,371.6543 196.7624,371.8527 196.3643,372.0914 195.9915,372.3679 195.6475,372.6796 195.3358,373.0235 195.0593,373.3964 194.8207,373.7945 194.6222,374.2141 194.4658,374.6512 194.353,375.1014 194.2849,375.5606 194.2622,376.0242 194.2849,376.4878 194.353,376.947 194.4658,377.3972 194.6222,377.8343 194.8207,378.2539 195.0593,378.652 195.3358,379.0249 195.6475,379.3688 195.9915,379.6805 196.3643,379.957 196.7624,380.1957 197.182,380.3941 197.6191,380.5505 198.0694,380.6633 198.5285,380.7314 198.9921,380.7542"/>
    <polygon points="205.6007,382.5705 205.6235,383.0342 205.6916,383.4933 205.8044,383.9436 205.9608,384.3806 206.1592,384.8002 206.3979,385.1984 206.6744,385.5712 206.9861,385.9151 207.33,386.2269 207.7029,386.5034 208.101,386.742 208.5206,386.9405 208.9577,387.0968 209.4079,387.2096 209.8671,387.2777 210.3307,387.3005 210.7943,387.2777 211.2535,387.2096 211.7037,387.0968 212.1408,386.9405 212.5604,386.742 212.9585,386.5034 213.3314,386.2269 213.6753,385.9151 213.987,385.5712 214.2635,385.1984 214.5022,384.8002 214.7006,384.3806 214.857,383.9436 214.9698,383.4933 215.0379,383.0342 215.0607,382.5705 215.0379,382.1069 214.9698,381.6478 214.857,381.1975 214.7006,380.7605 214.5022,380.3408 214.2635,379.9427 213.987,379.5699 213.6753,379.2259 213.3314,378.9142 212.9585,378.6377 212.5604,378.3991 212.1408,378.2006 211.7037,378.0442 211.2535,377.9314 210.7943,377.8633 210.3307,377.8406 209.8671,377.8633 209.4079,377.9314 208.9577,378.0442 208.5206,378.2006 208.101,378.3991 207.7029,378.6377 207.33,378.9142 206.9861,379.2259 206.6744,379.5699 206.3979,379.9427 206.1592,380.3408 205.9608,380.7605 205.8044,381.1975 205.6916,381.6478 205.6235,382.1069"/>
    <polygon points="206.9861,359.7298 206.6744,359.3859 206.3979,359.013 206.1592,358.6149 205.9608,358.1953 205.8044,357.7582 205.6916,357.308 205.6235,356.8488 205.6007,356.3852 205.6235,355.9216 205.6916,355.4624 205.8044,355.0122 205.9608,354.5751 206.1592,354.1555 206.3979,353.7574 206.6744,353.3845 206.9861,353.0406 207.33,352.7289 207.7029,352.4524 208.101,352.2137 208.5206,352.0153 208.9577,351.8589 209.4079,351.7461 209.8671,351.678 210.3307,351.6552 210.7943,351.678 211.2535,351.7461 211.7037,351.8589 212.1408,352.0153 212.5604,352.2137 212.9585,352.4524 213.3314,352.7289 213.6753,353.0406 213.987,353.3845 214.2635,353.7574 214.5022,354.1555 214.7006,354.5751 214.857,355.0122 214.9698,355.4624 215.0379,355.9216 215.0607,356.3852 215.0379,356.8488 214.9698,357.308 214.857,357.7582 214.7006,358.1953 214.5022,358.6149 214.2635,359.013 213.987,359.3859 213.6753,359.7298 213.3314,360.0415 212.9585,360.318 212.5604,360.5567 212.1408,360.7551 211.7037,360.9115 211.2535,361.0243 210.7943,361.0924 210.3307,361.1152 209.8671,361.0924 209.4079,361.0243 208.9577,360.9115 208.5206,360.7551 208.101,360.5567 207.7029,360.318 207.33,360.0415"/>
    <polygon points="218.3247,340.0908 218.6686,340.4025 219.0415,340.679 219.4396,340.9177 219.8592,341.1161 220.2963,341.2725 220.7465,341.3853 221.2057,341.4534 221.6693,341.4762 222.1329,341.4534 222.5921,341.3853 223.0423,341.2725 223.4794,341.1161 223.899,340.9177 224.2971,340.679 224.67,340.4025 225.0139,340.0908 225.3256,339.7469 225.6021,339.374 225.8408,338.9759 226.0392,338.5563 226.1956,338.1192 226.3084,337.669 226.3765,337.2098 226.3993,336.7462 226.3765,336.2826 226.3084,335.8234 226.1956,335.3732 226.0392,334.9361 225.8408,334.5165 225.6021,334.1184 225.3256,333.7455 225.0139,333.4016 224.67,333.0899 224.2971,332.8134 223.899,332.5747 223.4794,332.3763 223.0423,332.2199 222.5921,332.1071 222.1329,332.039 221.6693,332.0162 221.2057,332.039 220.7465,332.1071 220.2963,332.2199 219.8592,332.3763 219.4396,332.5747 219.0415,332.8134 218.6686,333.0899 218.3247,333.4016 218.013,333.7455 217.7365,334.1184 217.4978,334.5165 217.2994,334.9361 217.143,335.3732 217.0302,335.8234 216.9621,336.2826 216.9393,336.7462 216.9621,337.2098 217.0302,337.669 217.143,338.1192 217.2994,338.5563 217.4978,338.9759 217.7365,339.374 218.013,339.7469"/>
    <polygon points="231.1978,347.6625 231.6348,347.8188 232.0851,347.9316 232.5443,347.9997 233.0079,348.0225 233.4715,347.9997 233.9306,347.9316 234.3809,347.8188 234.818,347.6625 235.2376,347.464 235.6357,347.2254 236.0085,346.9489 236.3525,346.6371 236.6642,346.2932 236.9407,345.9204 237.1793,345.5222 237.3778,345.1026 237.5342,344.6656 237.647,344.2153 237.7151,343.7562 237.7378,343.2925 237.7151,342.8289 237.647,342.3698 237.5342,341.9195 237.3778,341.4825 237.1793,341.0628 236.9407,340.6647 236.6642,340.2919 236.3525,339.9479 236.0085,339.6362 235.6357,339.3597 235.2376,339.1211 234.818,338.9226 234.3809,338.7662 233.9306,338.6534 233.4715,338.5853 233.0079,338.5626 232.5443,338.5853 232.0851,338.6534 231.6348,338.7662 231.1978,338.9226 230.7782,339.1211 230.38,339.3597 230.0072,339.6362 229.6633,339.9479 229.3516,340.2919 229.075,340.6647 228.8364,341.0628 228.6379,341.4825 228.4816,341.9195 228.3688,342.3698 228.3007,342.8289 228.2779,343.2925 228.3007,343.7562 228.3688,344.2153 228.4816,344.6656 228.6379,345.1026 228.8364,345.5222 229.075,345.9204 229.3516,346.2932 229.6633,346.6371 230.0072,346.9489 230.38,347.2254 230.7782,347.464"/>
    <polygon points="234.5875,312.5939 235.6821,312.4315 236.7874,312.3772 237.8927,312.4315 238.9873,312.5939 240.0607,312.8628 241.1027,313.2356 242.103,313.7087 243.0522,314.2776 243.941,314.9368 244.761,315.68 245.5041,316.4999 246.1633,317.3888 246.7322,318.3379 247.2054,319.3383 247.5782,320.3802 247.847,321.4536 248.0094,322.5483 248.0637,323.6535 248.0094,324.7588 247.847,325.8534 247.5782,326.9269 247.2054,327.9688 246.7322,328.9691 246.1633,329.9183 245.5041,330.8071 244.761,331.6271 243.941,332.3702 243.0522,333.0294 242.103,333.5983 241.1027,334.0715 240.0607,334.4443 238.9873,334.7132 237.8927,334.8755 236.7874,334.9298 235.6821,334.8755 234.5875,334.7132 233.5141,334.4443 232.4721,334.0715 231.4718,333.5983 230.5226,333.0294 229.6338,332.3702 228.8138,331.6271 228.0707,330.8071 227.4115,329.9183 226.8426,328.9691 226.3695,327.9688 225.9966,326.9269 225.7278,325.8534 225.5654,324.7588 225.5111,323.6535 225.5654,322.5483 225.7278,321.4536 225.9966,320.3802 226.3695,319.3383 226.8426,318.3379 227.4115,317.3888 228.0707,316.4999 228.8138,315.68 229.6338,314.9368 230.5226,314.2776 231.4718,313.7087 232.4721,313.2356 233.5141,312.8628"/>
    <polygon points="228.8869,303.213 227.115,301.607 225.509,299.835 224.0844,297.9142 222.8549,295.863 221.8325,293.7011 221.0268,291.4495 220.4457,289.1297 220.0948,286.7641 219.9775,284.3755 220.0948,281.987 220.4457,279.6214 221.0268,277.3016 221.8325,275.0499 222.8549,272.8881 224.0844,270.8369 225.509,268.916 227.115,267.1441 228.8869,265.5381 230.8078,264.1135 232.859,262.884 235.0209,261.8615 237.2725,261.0559 239.5923,260.4748 241.9579,260.1239 244.3465,260.0066 246.735,260.1239 249.1006,260.4748 251.4204,261.0559 253.6721,261.8615 255.8339,262.884 257.8851,264.1135 259.806,265.5381 261.5779,267.1441 263.1839,268.916 264.6085,270.8369 265.838,272.8881 266.8605,275.0499 267.6661,277.3016 268.2472,279.6214 268.5981,281.987 268.7154,284.3755 268.5981,286.7641 268.2472,289.1297 267.6661,291.4495 266.8605,293.7011 265.838,295.863 264.6085,297.9142 263.1839,299.835 261.5779,301.607 259.806,303.213 257.8851,304.6376 255.8339,305.867 253.6721,306.8895 251.4204,307.6952 249.1006,308.2763 246.735,308.6272 244.3465,308.7445 241.9579,308.6272 239.5923,308.2763 237.2725,307.6952 235.0209,306.8895 232.859,305.867 230.8078,304.6376"/>
    <polygon points="206.0661,281.5098 203.7463,282.0909 201.3807,282.4418 198.9921,282.5592 196.6035,282.4418 194.238,282.0909 191.9182,281.5098 189.6665,280.7042 187.5047,279.6817 185.4534,278.4523 183.5326,277.0277 181.7607,275.4217 180.1547,273.6497 178.7301,271.7289 177.5006,269.6776 176.4781,267.5158 175.6725,265.2641 175.0914,262.9443 174.7405,260.5788 174.6232,258.1902 174.7405,255.8016 175.0914,253.436 175.6725,251.1163 176.4781,248.8646 177.5006,246.7027 178.7301,244.6515 180.1547,242.7307 181.7607,240.9587 183.5326,239.3527 185.4534,237.9281 187.5047,236.6987 189.6665,235.6762 191.9182,234.8705 194.238,234.2895 196.6035,233.9386 198.9921,233.8212 201.3807,233.9386 203.7463,234.2895 206.0661,234.8705 208.3177,235.6762 210.4796,236.6987 212.5308,237.9281 214.4516,239.3527 216.2236,240.9587 217.8296,242.7307 219.2542,244.6515 220.4836,246.7027 221.5061,248.8646 222.3118,251.1163 222.8929,253.436 223.2438,255.8016 223.3611,258.1902 223.2438,260.5788 222.8929,262.9443 222.3118,265.2641 221.5061,267.5158 220.4836,269.6776 219.2542,271.7289 217.8296,273.6497 216.2236,275.4217 214.4516,277.0277 212.5308,278.4523 210.4796,279.6817 208.3177,280.7042"/>
    <polygon points="243.0522,254.4734 243.941,253.8142 244.761,253.0711 245.5041,252.2511 246.1633,251.3623 246.7322,250.4131 247.2054,249.4128 247.5782,248.3709 247.847,247.2974 248.0094,246.2028 248.0637,245.0975 248.0094,243.9923 247.847,242.8976 247.5782,241.8242 247.2054,240.7823 246.7322,239.7819 246.1633,238.8327 245.5041,237.9439 244.761,237.124 243.941,236.3808 243.0522,235.7216 242.103,235.1527 241.1027,234.6796 240.0607,234.3068 238.9873,234.0379 237.8927,233.8755 236.7874,233.8212 235.6821,233.8755 234.5875,234.0379 233.5141,234.3068 232.4721,234.6796 231.4718,235.1527 230.5226,235.7216 229.6338,236.3808 228.8138,237.124 228.0707,237.9439 227.4115,238.8327 226.8426,239.7819 226.3695,240.7823 225.9966,241.8242 225.7278,242.8976 225.5654,243.9923 225.5111,245.0975 225.5654,246.2028 225.7278,247.2974 225.9966,248.3709 226.3695,249.4128 226.8426,250.4131 227.4115,251.3623 228.0707,252.2511 228.8138,253.0711 229.6338,253.8142 230.5226,254.4734 231.4718,255.0423 232.4721,255.5155 233.5141,255.8883 234.5875,256.1572 235.6821,256.3195 236.7874,256.3738 237.8927,256.3195 238.9873,256.1572 240.0607,255.8883 241.1027,255.5155 242.103,255.0423"/>
    <polygon points="255.685,246.9139 255.2214,246.9367 254.7623,247.0048 254.312,247.1176 253.875,247.2739 253.4553,247.4724 253.0572,247.711 252.6844,247.9875 252.3404,248.2993 252.0287,248.6432 251.7522,249.016 251.5136,249.4142 251.3151,249.8338 251.1587,250.2708 251.046,250.7211 250.9778,251.1802 250.9551,251.6439 250.9778,252.1075 251.046,252.5666 251.1587,253.0169 251.3151,253.4539 251.5136,253.8736 251.7522,254.2717 252.0287,254.6445 252.3404,254.9885 252.6844,255.3002 253.0572,255.5767 253.4553,255.8153 253.875,256.0138 254.312,256.1702 254.7623,256.2829 255.2214,256.3511 255.685,256.3738 256.1487,256.3511 256.6078,256.2829 257.0581,256.1702 257.4951,256.0138 257.9147,255.8153 258.3129,255.5767 258.6857,255.3002 259.0296,254.9885 259.3414,254.6445 259.6179,254.2717 259.8565,253.8736 260.055,253.4539 260.2113,253.0169 260.3241,252.5666 260.3922,252.1075 260.415,251.6439 260.3922,251.1802 260.3241,250.7211 260.2113,250.2708 260.055,249.8338 259.8565,249.4142 259.6179,249.016 259.3414,248.6432 259.0296,248.2993 258.6857,247.9875 258.3129,247.711 257.9147,247.4724 257.4951,247.2739 257.0581,247.1176 256.6078,247.0048 256.1487,246.9367"/>
    <polygon points="254.7623,243.1903 255.2214,243.2584 255.685,243.2812 256.1487,243.2584 256.6078,243.1903 257.0581,243.0775 257.4951,242.9211 257.9147,242.7227 258.3129,242.484 258.6857,242.2075 259.0296,241.8958 259.3414,241.5519 259.6179,241.179 259.8565,240.7809 260.055,240.3613 260.2113,239.9242 260.3241,239.474 260.3922,239.0148 260.415,238.5512 260.3922,238.0876 260.3241,237.6284 260.2113,237.1782 260.055,236.7411 259.8565,236.3215 259.6179,235.9234 259.3414,235.5505 259.0296,235.2066 258.6857,234.8949 258.3129,234.6184 257.9147,234.3797 257.4951,234.1813 257.0581,234.0249 256.6078,233.9121 256.1487,233.844 255.685,233.8212 255.2214,233.844 254.7623,233.9121 254.312,234.0249 253.875,234.1813 253.4553,234.3797 253.0572,234.6184 252.6844,234.8949 252.3404,235.2066 252.0287,235.5505 251.7522,235.9234 251.5136,236.3215 251.3151,236.7411 251.1587,237.1782 251.046,237.6284 250.9778,238.0876 250.9551,238.5512 250.9778,239.0148 251.046,239.474 251.1587,239.9242 251.3151,240.3613 251.5136,240.7809 251.7522,241.179 252.0287,241.5519 252.3404,241.8958 252.6844,242.2075 253.0572,242.484 253.4553,242.7227 253.875,242.9211 254.312,243.0775"/>
    <polygon points="264.3958,235.9377 264.7939,236.1763 265.2135,236.3748 265.6506,236.5312 266.1009,236.6439 266.56,236.7121 267.0236,236.7348 267.4872,236.7121 267.9464,236.6439 268.3967,236.5312 268.8337,236.3748 269.2533,236.1763 269.6515,235.9377 270.0243,235.6612 270.3682,235.3495 270.6799,235.0055 270.9565,234.6327 271.1951,234.2346 271.3935,233.8149 271.5499,233.3779 271.6627,232.9276 271.7308,232.4685 271.7536,232.0049 271.7308,231.5412 271.6627,231.0821 271.5499,230.6318 271.3935,230.1948 271.1951,229.7752 270.9565,229.377 270.6799,229.0042 270.3682,228.6603 270.0243,228.3485 269.6515,228.072 269.2533,227.8334 268.8337,227.6349 268.3967,227.4786 267.9464,227.3658 267.4872,227.2977 267.0236,227.2749 266.56,227.2977 266.1009,227.3658 265.6506,227.4786 265.2135,227.6349 264.7939,227.8334 264.3958,228.072 264.023,228.3485 263.679,228.6603 263.3673,229.0042 263.0908,229.377 262.8522,229.7752 262.6537,230.1948 262.4973,230.6318 262.3845,231.0821 262.3164,231.5412 262.2936,232.0049 262.3164,232.4685 262.3845,232.9276 262.4973,233.3779 262.6537,233.8149 262.8522,234.2346 263.0908,234.6327 263.3673,235.0055 263.679,235.3495 264.023,235.6612"/>
    <polygon points="282.1417,286.1919 281.0365,286.2462 279.9418,286.4086 278.8684,286.6774 277.8265,287.0502 276.8261,287.5234 275.877,288.0923 274.9881,288.7515 274.1682,289.4946 273.425,290.3146 272.7658,291.2034 272.1969,292.1526 271.7238,293.1529 271.351,294.1949 271.0821,295.2683 270.9197,296.3629 270.8654,297.4682 270.9197,298.5735 271.0821,299.6681 271.351,300.7415 271.7238,301.7835 272.1969,302.7838 272.7658,303.733 273.425,304.6218 274.1682,305.4417 274.9881,306.1849 275.877,306.8441 276.8261,307.413 277.8265,307.8861 278.8684,308.2589 279.9418,308.5278 281.0365,308.6902 282.1417,308.7445 283.247,308.6902 284.3416,308.5278 285.4151,308.2589 286.457,307.8861 287.4573,307.413 288.4065,306.8441 289.2953,306.1849 290.1153,305.4417 290.8584,304.6218 291.5176,303.733 292.0865,302.7838 292.5597,301.7835 292.9325,300.7415 293.2014,299.6681 293.3637,298.5735 293.418,297.4682 293.3637,296.3629 293.2014,295.2683 292.9325,294.1949 292.5597,293.1529 292.0865,292.1526 291.5176,291.2034 290.8584,290.3146 290.1153,289.4946 289.2953,288.7515 288.4065,288.0923 287.4573,287.5234 286.457,287.0502 285.4151,286.6774 284.3416,286.4086 283.247,286.2462"/>
    <polygon points="301.503,308.7217 301.9621,308.6536 302.4124,308.5408 302.8495,308.3845 303.2691,308.186 303.6672,307.9474 304.04,307.6708 304.384,307.3591 304.6957,307.0152 304.9722,306.6424 305.2108,306.2442 305.4093,305.8246 305.5657,305.3876 305.6785,304.9373 305.7466,304.4781 305.7693,304.0145 305.7466,303.5509 305.6785,303.0918 305.5657,302.6415 305.4093,302.2044 305.2108,301.7848 304.9722,301.3867 304.6957,301.0139 304.384,300.6699 304.04,300.3582 303.6672,300.0817 303.2691,299.8431 302.8495,299.6446 302.4124,299.4882 301.9621,299.3754 301.503,299.3073 301.0394,299.2846 300.5758,299.3073 300.1166,299.3754 299.6663,299.4882 299.2293,299.6446 298.8097,299.8431 298.4115,300.0817 298.0387,300.3582 297.6948,300.6699 297.3831,301.0139 297.1065,301.3867 296.8679,301.7848 296.6694,302.2044 296.5131,302.6415 296.4003,303.0918 296.3322,303.5509 296.3094,304.0145 296.3322,304.4781 296.4003,304.9373 296.5131,305.3876 296.6694,305.8246 296.8679,306.2442 297.1065,306.6424 297.3831,307.0152 297.6948,307.3591 298.0387,307.6708 298.4115,307.9474 298.8097,308.186 299.2293,308.3845 299.6663,308.5408 300.1166,308.6536 300.5758,308.7217 301.0394,308.7445"/>
    <polygon points="272.1969,318.3379 271.7238,319.3383 271.351,320.3802 271.0821,321.4536 270.9197,322.5483 270.8654,323.6535 270.9197,324.7588 271.0821,325.8534 271.351,326.9269 271.7238,327.9688 272.1969,328.9691 272.7658,329.9183 273.425,330.8071 274.1682,331.6271 274.9881,332.3702 275.877,333.0294 276.8261,333.5983 277.8265,334.0715 278.8684,334.4443 279.9418,334.7132 281.0365,334.8755 282.1417,334.9298 283.247,334.8755 284.3416,334.7132 285.4151,334.4443 286.457,334.0715 287.4573,333.5983 288.4065,333.0294 289.2953,332.3702 290.1153,331.6271 290.8584,330.8071 291.5176,329.9183 292.0865,328.9691 292.5597,327.9688 292.9325,326.9269 293.2014,325.8534 293.3637,324.7588 293.418,323.6535 293.3637,322.5483 293.2014,321.4536 292.9325,320.3802 292.5597,319.3383 292.0865,318.3379 291.5176,317.3888 290.8584,316.4999 290.1153,315.68 289.2953,314.9368 288.4065,314.2776 287.4573,313.7087 286.457,313.2356 285.4151,312.8628 284.3416,312.5939 283.247,312.4315 282.1417,312.3772 281.0365,312.4315 279.9418,312.5939 278.8684,312.8628 277.8265,313.2356 276.8261,313.7087 275.877,314.2776 274.9881,314.9368 274.1682,315.68 273.425,316.4999 272.7658,317.3888"/>
    <polygon points="270.3682,333.4016 270.0243,333.0899 269.6515,332.8134 269.2533,332.5747 268.8337,332.3763 268.3967,332.2199 267.9464,332.1071 267.4872,332.039 267.0236,332.0162 266.56,332.039 266.1009,332.1071 265.6506,332.2199 265.2135,332.3763 264.7939,332.5747 264.3958,332.8134 264.023,333.0899 263.679,333.4016 263.3673,333.7455 263.0908,334.1184 262.8522,334.5165 262.6537,334.9361 262.4973,335.3732 262.3845,335.8234 262.3164,336.2826 262.2936,336.7462 262.3164,337.2098 262.3845,337.669 262.4973,338.1192 262.6537,338.5563 262.8522,338.9759 263.0908,339.374 263.3673,339.7469 263.679,340.0908 264.023,340.4025 264.3958,340.679 264.7939,340.9177 265.2135,341.1161 265.6506,341.2725 266.1009,341.3853 266.56,341.4534 267.0236,341.4762 267.4872,341.4534 267.9464,341.3853 268.3967,341.2725 268.8337,341.1161 269.2533,340.9177 269.6515,340.679 270.0243,340.4025 270.3682,340.0908 270.6799,339.7469 270.9565,339.374 271.1951,338.9759 271.3935,338.5563 271.5499,338.1192 271.6627,337.669 271.7308,337.2098 271.7536,336.7462 271.7308,336.2826 271.6627,335.8234 271.5499,335.3732 271.3935,334.9361 271.1951,334.5165 270.9565,334.1184 270.6799,333.7455"/>
    <polygon points="283.0694,343.7562 283.0922,343.2925 283.0694,342.8289 283.0013,342.3698 282.8885,341.9195 282.7321,341.4825 282.5337,341.0628 282.295,340.6647 282.0185,340.2919 281.7068,339.9479 281.3629,339.6362 280.99,339.3597 280.5919,339.1211 280.1723,338.9226 279.7352,338.7662 279.285,338.6534 278.8258,338.5853 278.3622,338.5626 277.8986,338.5853 277.4394,338.6534 276.9892,338.7662 276.5521,338.9226 276.1325,339.1211 275.7344,339.3597 275.3615,339.6362 275.0176,339.9479 274.7059,340.2919 274.4294,340.6647 274.1907,341.0628 273.9923,341.4825 273.8359,341.9195 273.7231,342.3698 273.655,342.8289 273.6322,343.2925 273.655,343.7562 273.7231,344.2153 273.8359,344.6656 273.9923,345.1026 274.1907,345.5222 274.4294,345.9204 274.7059,346.2932 275.0176,346.6371 275.3615,346.9489 275.7344,347.2254 276.1325,347.464 276.5521,347.6625 276.9892,347.8188 277.4394,347.9316 277.8986,347.9997 278.3622,348.0225 278.8258,347.9997 279.285,347.9316 279.7352,347.8188 280.1723,347.6625 280.5919,347.464 280.99,347.2254 281.3629,346.9489 281.7068,346.6371 282.0185,346.2932 282.295,345.9204 282.5337,345.5222 282.7321,345.1026 282.8885,344.6656 283.0013,344.2153"/>
  </g>
</svg>
