<?xml version="1.0" encoding="utf-8" ?>
<svg xmlns="http://www.w3.org/2000/svg" xmlns:cc="http://creativecommons.org/ns" xmlns:dc="http://purl.org/dc/elements/1.1/" xmlns:ev="http://www.w3.org/2001/xml-events" xmlns:inkscape="http://www.inkscape.org/namespaces/inkscape" xmlns:rdf="http://www.w3.org/1999/02/22-rdf-syntax-ns" xmlns:sodipodi="http://sodipodi.sourceforge.net/DTD/sodipodi-0.dtd" xmlns:xlink="http://www.w3.org/1999/xlink" baseProfile="tiny" height="15.875cm" version="1.2" viewBox="0 0 432.0 600.0" width="11.43cm">
  <metadata>
    <rdf:RDF>
      <cc:Work>
        <dc:format>image/svg+xml</dc:format>
        <dc:source>vsk save -s 293 -c hex-grid/config/bubble-coasters-2.json /Users/tobin/src/fabian/plotting/fabian-plotting/hex-grid/sketch_hex_grid.py</dc:source>
        <dc:date>2023-11-11T11:30:24.168060</dc:date>
      </cc:Work>
    </rdf:RDF>
  </metadata>
  <defs/>
  <g fill="none" id="layer1" inkscape:groupmode="layer" inkscape:label="1" stroke="#000000" stroke-width="0.7559" style="display:inline">
    <polygon points="119.1584,374.5902 119.622,374.5674 120.0857,374.5902 120.5448,374.6583 120.9951,374.7711 121.4321,374.9274 121.8517,375.1259 122.2499,375.3645 122.6227,375.6411 122.9666,375.9528 123.2784,376.2967 123.5549,376.6695 123.7935,377.0677 123.992,377.4873 124.1483,377.9243 124.2611,378.3746 124.3292,378.8338 124.352,379.2974 124.3292,379.761 124.2611,380.2201 124.1483,380.6704 123.992,381.1075 123.7935,381.5271 123.5549,381.9252 123.2784,382.298 122.9666,382.642 122.6227,382.9537 122.2499,383.2302 121.8517,383.4688 121.4321,383.6673 120.9951,383.8237 120.5448,383.9365 120.0857,384.0046 119.622,384.0273 119.1584,384.0046 118.6993,383.9365 118.249,383.8237 117.812,383.6673 117.3924,383.4688 116.9942,383.2302 116.6214,382.9537 116.2775,382.642 115.9657,382.298 115.6892,381.9252 115.4506,381.5271 115.2521,381.1075 115.0957,380.6704 114.983,380.2201 114.9149,379.761 114.8921,379.2974 114.9149,378.8338 114.983,378.3746 115.0957,377.9243 115.2521,377.4873 115.4506,377.0677 115.6892,376.6695 115.9657,376.2967 116.2775,375.9528 116.6214,375.6411 116.9942,375.3645 117.3924,375.1259 117.812,374.9274 118.249,374.7711 118.6993,374.6583"/>
    <polygon points="134.6169,375.7517 134.8935,375.3789 135.1321,374.9807 135.3306,374.5611 135.4869,374.1241 135.5997,373.6738 135.6678,373.2147 135.6906,372.751 135.6678,372.2874 135.5997,371.8283 135.4869,371.378 135.3306,370.941 135.1321,370.5213 134.8935,370.1232 134.6169,369.7504 134.3052,369.4064 133.9613,369.0947 133.5885,368.8182 133.1903,368.5796 132.7707,368.3811 132.3337,368.2247 131.8834,368.1119 131.4242,368.0438 130.9606,368.0211 130.497,368.0438 130.0379,368.1119 129.5876,368.2247 129.1505,368.3811 128.7309,368.5796 128.3328,368.8182 127.96,369.0947 127.616,369.4064 127.3043,369.7504 127.0278,370.1232 126.7892,370.5213 126.5907,370.941 126.4343,371.378 126.3215,371.8283 126.2534,372.2874 126.2307,372.751 126.2534,373.2147 126.3215,373.6738 126.4343,374.1241 126.5907,374.5611 126.7892,374.9807 127.0278,375.3789 127.3043,375.7517 127.616,376.0956 127.96,376.4074 128.3328,376.6839 128.7309,376.9225 129.1505,377.121 129.5876,377.2773 130.0379,377.3901 130.497,377.4582 130.9606,377.481 131.4242,377.4582 131.8834,377.3901 132.3337,377.2773 132.7707,377.121 133.1903,376.9225 133.5885,376.6839 133.9613,376.4074 134.3052,376.0956"/>
    <polygon points="137.592,379.761 137.6601,380.2201 137.7729,380.6704 137.9293,381.1075 138.1277,381.5271 138.3664,381.9252 138.6429,382.298 138.9546,382.642 139.2985,382.9537 139.6714,383.2302 140.0695,383.4688 140.4891,383.6673 140.9262,383.8237 141.3764,383.9365 141.8356,384.0046 142.2992,384.0273 142.7628,384.0046 143.222,383.9365 143.6723,383.8237 144.1093,383.6673 144.5289,383.4688 144.927,383.2302 145.2999,382.9537 145.6438,382.642 145.9555,382.298 146.232,381.9252 146.4707,381.5271 146.6691,381.1075 146.8255,380.6704 146.9383,380.2201 147.0064,379.761 147.0292,379.2974 147.0064,378.8338 146.9383,378.3746 146.8255,377.9243 146.6691,377.4873 146.4707,377.0677 146.232,376.6695 145.9555,376.2967 145.6438,375.9528 145.2999,375.6411 144.927,375.3645 144.5289,375.1259 144.1093,374.9274 143.6723,374.7711 143.222,374.6583 142.7628,374.5902 142.2992,374.5674 141.8356,374.5902 141.3764,374.6583 140.9262,374.7711 140.4891,374.9274 140.0695,375.1259 139.6714,375.3645 139.2985,375.6411 138.9546,375.9528 138.6429,376.2967 138.3664,376.6695 138.1277,377.0677 137.9293,377.4873 137.7729,377.9243 137.6601,378.3746 137.592,378.8338 137.5692,379.2974"/>
    <polygon points="151.01,389.7765 151.4081,390.0152 151.8277,390.2136 152.2648,390.37 152.715,390.4828 153.1742,390.5509 153.6378,390.5737 154.1014,390.5509 154.5606,390.4828 155.0108,390.37 155.4479,390.2136 155.8675,390.0152 156.2656,389.7765 156.6385,389.5 156.9824,389.1883 157.2941,388.8444 157.5706,388.4715 157.8093,388.0734 158.0077,387.6538 158.1641,387.2167 158.2769,386.7665 158.345,386.3073 158.3678,385.8437 158.345,385.3801 158.2769,384.9209 158.1641,384.4707 158.0077,384.0336 157.8093,383.614 157.5706,383.2159 157.2941,382.843 156.9824,382.4991 156.6385,382.1874 156.2656,381.9109 155.8675,381.6722 155.4479,381.4738 155.0108,381.3174 154.5606,381.2046 154.1014,381.1365 153.6378,381.1137 153.1742,381.1365 152.715,381.2046 152.2648,381.3174 151.8277,381.4738 151.4081,381.6722 151.01,381.9109 150.6371,382.1874 150.2932,382.4991 149.9815,382.843 149.705,383.2159 149.4663,383.614 149.2679,384.0336 149.1115,384.4707 148.9987,384.9209 148.9306,385.3801 148.9078,385.8437 148.9306,386.3073 148.9987,386.7665 149.1115,387.2167 149.2679,387.6538 149.4663,388.0734 149.705,388.4715 149.9815,388.8444 150.2932,389.1883 150.6371,389.5"/>
    <polygon points="147.0064,365.7411 147.0292,366.2047 147.0064,366.6683 146.9383,367.1275 146.8255,367.5777 146.6691,368.0148 146.4707,368.4344 146.232,368.8325 145.9555,369.2054 145.6438,369.5493 145.2999,369.861 144.927,370.1375 144.5289,370.3762 144.1093,370.5746 143.6723,370.731 143.222,370.8438 142.7628,370.9119 142.2992,370.9347 141.8356,370.9119 141.3764,370.8438 140.9262,370.731 140.4891,370.5746 140.0695,370.3762 139.6714,370.1375 139.2985,369.861 138.9546,369.5493 138.6429,369.2054 138.3664,368.8325 138.1277,368.4344 137.9293,368.0148 137.7729,367.5777 137.6601,367.1275 137.592,366.6683 137.5692,366.2047 137.592,365.7411 137.6601,365.2819 137.7729,364.8317 137.9293,364.3946 138.1277,363.975 138.3664,363.5769 138.6429,363.204 138.9546,362.8601 139.2985,362.5484 139.6714,362.2719 140.0695,362.0332 140.4891,361.8348 140.9262,361.6784 141.3764,361.5656 141.8356,361.4975 142.2992,361.4747 142.7628,361.4975 143.222,361.5656 143.6723,361.6784 144.1093,361.8348 144.5289,362.0332 144.927,362.2719 145.2999,362.5484 145.6438,362.8601 145.9555,363.204 146.232,363.5769 146.4707,363.975 146.6691,364.3946 146.8255,364.8317 146.9383,365.2819"/>
    <polygon points="135.4869,361.0314 135.3306,361.4684 135.1321,361.8881 134.8935,362.2862 134.6169,362.659 134.3052,363.003 133.9613,363.3147 133.5885,363.5912 133.1903,363.8298 132.7707,364.0283 132.3337,364.1847 131.8834,364.2975 131.4242,364.3656 130.9606,364.3883 130.497,364.3656 130.0379,364.2975 129.5876,364.1847 129.1505,364.0283 128.7309,363.8298 128.3328,363.5912 127.96,363.3147 127.616,363.003 127.3043,362.659 127.0278,362.2862 126.7892,361.8881 126.5907,361.4684 126.4343,361.0314 126.3215,360.5811 126.2534,360.122 126.2307,359.6584 126.2534,359.1947 126.3215,358.7356 126.4343,358.2853 126.5907,357.8483 126.7892,357.4287 127.0278,357.0305 127.3043,356.6577 127.616,356.3138 127.96,356.002 128.3328,355.7255 128.7309,355.4869 129.1505,355.2884 129.5876,355.1321 130.0379,355.0193 130.497,354.9512 130.9606,354.9284 131.4242,354.9512 131.8834,355.0193 132.3337,355.1321 132.7707,355.2884 133.1903,355.4869 133.5885,355.7255 133.9613,356.002 134.3052,356.3138 134.6169,356.6577 134.8935,357.0305 135.1321,357.4287 135.3306,357.8483 135.4869,358.2853 135.5997,358.7356 135.6678,359.1947 135.6906,359.6584 135.6678,360.122 135.5997,360.5811"/>
    <polygon points="124.352,353.112 124.3292,353.5757 124.2611,354.0348 124.1483,354.4851 123.992,354.9221 123.7935,355.3417 123.5549,355.7399 123.2784,356.1127 122.9666,356.4566 122.6227,356.7684 122.2499,357.0449 121.8517,357.2835 121.4321,357.482 120.9951,357.6383 120.5448,357.7511 120.0857,357.8192 119.622,357.842 119.1584,357.8192 118.6993,357.7511 118.249,357.6383 117.812,357.482 117.3924,357.2835 116.9942,357.0449 116.6214,356.7684 116.2775,356.4566 115.9657,356.1127 115.6892,355.7399 115.4506,355.3417 115.2521,354.9221 115.0957,354.4851 114.983,354.0348 114.9149,353.5757 114.8921,353.112 114.9149,352.6484 114.983,352.1893 115.0957,351.739 115.2521,351.302 115.4506,350.8823 115.6892,350.4842 115.9657,350.1114 116.2775,349.7674 116.6214,349.4557 116.9942,349.1792 117.3924,348.9406 117.812,348.7421 118.249,348.5857 118.6993,348.4729 119.1584,348.4048 119.622,348.3821 120.0857,348.4048 120.5448,348.4729 120.9951,348.5857 121.4321,348.7421 121.8517,348.9406 122.2499,349.1792 122.6227,349.4557 122.9666,349.7674 123.2784,350.1114 123.5549,350.4842 123.7935,350.8823 123.992,351.302 124.1483,351.739 124.2611,352.1893 124.3292,352.6484"/>
    <polygon points="125.3643,346.2841 124.7953,345.335 124.3222,344.3346 123.9494,343.2927 123.6805,342.2193 123.5181,341.1246 123.4639,340.0194 123.5181,338.9141 123.6805,337.8195 123.9494,336.746 124.3222,335.7041 124.7953,334.7038 125.3643,333.7546 126.0235,332.8658 126.7666,332.0458 127.5865,331.3027 128.4754,330.6435 129.4245,330.0746 130.4249,329.6014 131.4668,329.2286 132.5403,328.9597 133.6349,328.7974 134.7402,328.7431 135.8454,328.7974 136.9401,328.9597 138.0135,329.2286 139.0554,329.6014 140.0558,330.0746 141.0049,330.6435 141.8938,331.3027 142.7137,332.0458 143.4569,332.8658 144.1161,333.7546 144.685,334.7038 145.1581,335.7041 145.5309,336.746 145.7998,337.8195 145.9622,338.9141 146.0165,340.0194 145.9622,341.1246 145.7998,342.2193 145.5309,343.2927 145.1581,344.3346 144.685,345.335 144.1161,346.2841 143.4569,347.173 142.7137,347.9929 141.8938,348.7361 141.0049,349.3953 140.0558,349.9642 139.0554,350.4373 138.0135,350.8101 136.9401,351.079 135.8454,351.2414 134.7402,351.2957 133.6349,351.2414 132.5403,351.079 131.4668,350.8101 130.4249,350.4373 129.4245,349.9642 128.4754,349.3953 127.5865,348.7361 126.7666,347.9929 126.0235,347.173"/>
    <polygon points="114.983,327.8495 115.0957,328.2997 115.2521,328.7368 115.4506,329.1564 115.6892,329.5545 115.9657,329.9274 116.2775,330.2713 116.6214,330.583 116.9942,330.8595 117.3924,331.0982 117.812,331.2966 118.249,331.453 118.6993,331.5658 119.1584,331.6339 119.622,331.6567 120.0857,331.6339 120.5448,331.5658 120.9951,331.453 121.4321,331.2966 121.8517,331.0982 122.2499,330.8595 122.6227,330.583 122.9666,330.2713 123.2784,329.9274 123.5549,329.5545 123.7935,329.1564 123.992,328.7368 124.1483,328.2997 124.2611,327.8495 124.3292,327.3903 124.352,326.9267 124.3292,326.4631 124.2611,326.0039 124.1483,325.5537 123.992,325.1166 123.7935,324.697 123.5549,324.2989 123.2784,323.926 122.9666,323.5821 122.6227,323.2704 122.2499,322.9939 121.8517,322.7552 121.4321,322.5568 120.9951,322.4004 120.5448,322.2876 120.0857,322.2195 119.622,322.1967 119.1584,322.2195 118.6993,322.2876 118.249,322.4004 117.812,322.5568 117.3924,322.7552 116.9942,322.9939 116.6214,323.2704 116.2775,323.5821 115.9657,323.926 115.6892,324.2989 115.4506,324.697 115.2521,325.1166 115.0957,325.5537 114.983,326.0039 114.9149,326.4631 114.8921,326.9267 114.9149,327.3903"/>
    <polygon points="111.9398,323.381 112.2163,323.0082 112.4549,322.6101 112.6534,322.1904 112.8098,321.7534 112.9226,321.3031 112.9907,320.844 113.0134,320.3804 112.9907,319.9167 112.9226,319.4576 112.8098,319.0073 112.6534,318.5703 112.4549,318.1507 112.2163,317.7525 111.9398,317.3797 111.6281,317.0358 111.2841,316.724 110.9113,316.4475 110.5132,316.2089 110.0935,316.0104 109.6565,315.8541 109.2062,315.7413 108.7471,315.6732 108.2835,315.6504 107.8198,315.6732 107.3607,315.7413 106.9104,315.8541 106.4734,316.0104 106.0538,316.2089 105.6556,316.4475 105.2828,316.724 104.9389,317.0358 104.6271,317.3797 104.3506,317.7525 104.112,318.1507 103.9135,318.5703 103.7572,319.0073 103.6444,319.4576 103.5763,319.9167 103.5535,320.3804 103.5763,320.844 103.6444,321.3031 103.7572,321.7534 103.9135,322.1904 104.112,322.6101 104.3506,323.0082 104.6271,323.381 104.9389,323.725 105.2828,324.0367 105.6556,324.3132 106.0538,324.5518 106.4734,324.7503 106.9104,324.9067 107.3607,325.0195 107.8198,325.0876 108.2835,325.1103 108.7471,325.0876 109.2062,325.0195 109.6565,324.9067 110.0935,324.7503 110.5132,324.5518 110.9113,324.3132 111.2841,324.0367 111.6281,323.725"/>
    <polygon points="128.3328,316.4475 128.7309,316.2089 129.1505,316.0104 129.5876,315.8541 130.0379,315.7413 130.497,315.6732 130.9606,315.6504 131.4242,315.6732 131.8834,315.7413 132.3337,315.8541 132.7707,316.0104 133.1903,316.2089 133.5885,316.4475 133.9613,316.724 134.3052,317.0358 134.6169,317.3797 134.8935,317.7525 135.1321,318.1507 135.3306,318.5703 135.4869,319.0073 135.5997,319.4576 135.6678,319.9167 135.6906,320.3804 135.6678,320.844 135.5997,321.3031 135.4869,321.7534 135.3306,322.1904 135.1321,322.6101 134.8935,323.0082 134.6169,323.381 134.3052,323.725 133.9613,324.0367 133.5885,324.3132 133.1903,324.5518 132.7707,324.7503 132.3337,324.9067 131.8834,325.0195 131.4242,325.0876 130.9606,325.1103 130.497,325.0876 130.0379,325.0195 129.5876,324.9067 129.1505,324.7503 128.7309,324.5518 128.3328,324.3132 127.96,324.0367 127.616,323.725 127.3043,323.381 127.0278,323.0082 126.7892,322.6101 126.5907,322.1904 126.4343,321.7534 126.3215,321.3031 126.2534,320.844 126.2307,320.3804 126.2534,319.9167 126.3215,319.4576 126.4343,319.0073 126.5907,318.5703 126.7892,318.1507 127.0278,317.7525 127.3043,317.3797 127.616,317.0358 127.96,316.724"/>
    <polygon points="168.9092,324.2989 169.1478,324.697 169.3463,325.1166 169.5027,325.5537 169.6155,326.0039 169.6836,326.4631 169.7064,326.9267 169.6836,327.3903 169.6155,327.8495 169.5027,328.2997 169.3463,328.7368 169.1478,329.1564 168.9092,329.5545 168.6327,329.9274 168.321,330.2713 167.977,330.583 167.6042,330.8595 167.2061,331.0982 166.7865,331.2966 166.3494,331.453 165.8991,331.5658 165.44,331.6339 164.9764,331.6567 164.5128,331.6339 164.0536,331.5658 163.6033,331.453 163.1663,331.2966 162.7467,331.0982 162.3485,330.8595 161.9757,330.583 161.6318,330.2713 161.3201,329.9274 161.0435,329.5545 160.8049,329.1564 160.6065,328.7368 160.4501,328.2997 160.3373,327.8495 160.2692,327.3903 160.2464,326.9267 160.2692,326.4631 160.3373,326.0039 160.4501,325.5537 160.6065,325.1166 160.8049,324.697 161.0435,324.2989 161.3201,323.926 161.6318,323.5821 161.9757,323.2704 162.3485,322.9939 162.7467,322.7552 163.1663,322.5568 163.6033,322.4004 164.0536,322.2876 164.5128,322.2195 164.9764,322.1967 165.44,322.2195 165.8991,322.2876 166.3494,322.4004 166.7865,322.5568 167.2061,322.7552 167.6042,322.9939 167.977,323.2704 168.321,323.5821 168.6327,323.926"/>
    <polygon points="165.3909,345.1385 166.134,345.9584 166.7932,346.8473 167.3621,347.7964 167.8353,348.7968 168.2081,349.8387 168.477,350.9121 168.6393,352.0068 168.6936,353.112 168.6393,354.2173 168.477,355.3119 168.2081,356.3854 167.8353,357.4273 167.3621,358.4276 166.7932,359.3768 166.134,360.2656 165.3909,361.0856 164.5709,361.8287 163.6821,362.4879 162.7329,363.0568 161.7326,363.53 160.6907,363.9028 159.6172,364.1717 158.5226,364.334 157.4173,364.3883 156.3121,364.334 155.2174,364.1717 154.144,363.9028 153.1021,363.53 152.1017,363.0568 151.1525,362.4879 150.2637,361.8287 149.4438,361.0856 148.7006,360.2656 148.0414,359.3768 147.4725,358.4276 146.9994,357.4273 146.6266,356.3854 146.3577,355.3119 146.1953,354.2173 146.141,353.112 146.1953,352.0068 146.3577,350.9121 146.6266,349.8387 146.9994,348.7968 147.4725,347.7964 148.0414,346.8473 148.7006,345.9584 149.4438,345.1385 150.2637,344.3953 151.1525,343.7361 152.1017,343.1672 153.1021,342.6941 154.144,342.3213 155.2174,342.0524 156.3121,341.89 157.4173,341.8357 158.5226,341.89 159.6172,342.0524 160.6907,342.3213 161.7326,342.6941 162.7329,343.1672 163.6821,343.7361 164.5709,344.3953"/>
    <polygon points="169.6765,344.3346 169.3037,343.2927 169.0349,342.2193 168.8725,341.1246 168.8182,340.0194 168.8725,338.9141 169.0349,337.8195 169.3037,336.746 169.6765,335.7041 170.1497,334.7038 170.7186,333.7546 171.3778,332.8658 172.1209,332.0458 172.9409,331.3027 173.8297,330.6435 174.7789,330.0746 175.7792,329.6014 176.8211,329.2286 177.8946,328.9597 178.9892,328.7974 180.0945,328.7431 181.1998,328.7974 182.2944,328.9597 183.3678,329.2286 184.4097,329.6014 185.4101,330.0746 186.3593,330.6435 187.2481,331.3027 188.068,332.0458 188.8112,332.8658 189.4704,333.7546 190.0393,334.7038 190.5124,335.7041 190.8852,336.746 191.1541,337.8195 191.3165,338.9141 191.3708,340.0194 191.3165,341.1246 191.1541,342.2193 190.8852,343.2927 190.5124,344.3346 190.0393,345.335 189.4704,346.2841 188.8112,347.173 188.068,347.9929 187.2481,348.7361 186.3593,349.3953 185.4101,349.9642 184.4097,350.4373 183.3678,350.8101 182.2944,351.079 181.1998,351.2414 180.0945,351.2957 178.9892,351.2414 177.8946,351.079 176.8211,350.8101 175.7792,350.4373 174.7789,349.9642 173.8297,349.3953 172.9409,348.7361 172.1209,347.9929 171.3778,347.173 170.7186,346.2841 170.1497,345.335"/>
    <polygon points="194.353,347.4885 194.2849,347.0293 194.2622,346.5657 194.2849,346.1021 194.353,345.6429 194.4658,345.1927 194.6222,344.7556 194.8207,344.336 195.0593,343.9379 195.3358,343.565 195.6475,343.2211 195.9915,342.9094 196.3643,342.6329 196.7624,342.3942 197.182,342.1958 197.6191,342.0394 198.0694,341.9266 198.5285,341.8585 198.9921,341.8357 199.4557,341.8585 199.9149,341.9266 200.3652,342.0394 200.8022,342.1958 201.2218,342.3942 201.62,342.6329 201.9928,342.9094 202.3367,343.2211 202.6484,343.565 202.925,343.9379 203.1636,344.336 203.3621,344.7556 203.5184,345.1927 203.6312,345.6429 203.6993,346.1021 203.7221,346.5657 203.6993,347.0293 203.6312,347.4885 203.5184,347.9387 203.3621,348.3758 203.1636,348.7954 202.925,349.1935 202.6484,349.5664 202.3367,349.9103 201.9928,350.222 201.62,350.4985 201.2218,350.7372 200.8022,350.9356 200.3652,351.092 199.9149,351.2048 199.4557,351.2729 198.9921,351.2957 198.5285,351.2729 198.0694,351.2048 197.6191,351.092 197.182,350.9356 196.7624,350.7372 196.3643,350.4985 195.9915,350.222 195.6475,349.9103 195.3358,349.5664 195.0593,349.1935 194.8207,348.7954 194.6222,348.3758 194.4658,347.9387"/>
    <polygon points="220.2963,364.1847 219.8592,364.0283 219.4396,363.8298 219.0415,363.5912 218.6686,363.3147 218.3247,363.003 218.013,362.659 217.7365,362.2862 217.4978,361.8881 217.2994,361.4684 217.143,361.0314 217.0302,360.5811 216.9621,360.122 216.9393,359.6584 216.9621,359.1947 217.0302,358.7356 217.143,358.2853 217.2994,357.8483 217.4978,357.4287 217.7365,357.0305 218.013,356.6577 218.3247,356.3138 218.6686,356.002 219.0415,355.7255 219.4396,355.4869 219.8592,355.2884 220.2963,355.1321 220.7465,355.0193 221.2057,354.9512 221.6693,354.9284 222.1329,354.9512 222.5921,355.0193 223.0423,355.1321 223.4794,355.2884 223.899,355.4869 224.2971,355.7255 224.67,356.002 225.0139,356.3138 225.3256,356.6577 225.6021,357.0305 225.8408,357.4287 226.0392,357.8483 226.1956,358.2853 226.3084,358.7356 226.3765,359.1947 226.3993,359.6584 226.3765,360.122 226.3084,360.5811 226.1956,361.0314 226.0392,361.4684 225.8408,361.8881 225.6021,362.2862 225.3256,362.659 225.0139,363.003 224.67,363.3147 224.2971,363.5912 223.899,363.8298 223.4794,364.0283 223.0423,364.1847 222.5921,364.2975 222.1329,364.3656 221.6693,364.3883 221.2057,364.3656 220.7465,364.2975"/>
    <polygon points="225.8408,348.7954 225.6021,349.1935 225.3256,349.5664 225.0139,349.9103 224.67,350.222 224.2971,350.4985 223.899,350.7372 223.4794,350.9356 223.0423,351.092 222.5921,351.2048 222.1329,351.2729 221.6693,351.2957 221.2057,351.2729 220.7465,351.2048 220.2963,351.092 219.8592,350.9356 219.4396,350.7372 219.0415,350.4985 218.6686,350.222 218.3247,349.9103 218.013,349.5664 217.7365,349.1935 217.4978,348.7954 217.2994,348.3758 217.143,347.9387 217.0302,347.4885 216.9621,347.0293 216.9393,346.5657 216.9621,346.1021 217.0302,345.6429 217.143,345.1927 217.2994,344.7556 217.4978,344.336 217.7365,343.9379 218.013,343.565 218.3247,343.2211 218.6686,342.9094 219.0415,342.6329 219.4396,342.3942 219.8592,342.1958 220.2963,342.0394 220.7465,341.9266 221.2057,341.8585 221.6693,341.8357 222.1329,341.8585 222.5921,341.9266 223.0423,342.0394 223.4794,342.1958 223.899,342.3942 224.2971,342.6329 224.67,342.9094 225.0139,343.2211 225.3256,343.565 225.6021,343.9379 225.8408,344.336 226.0392,344.7556 226.1956,345.1927 226.3084,345.6429 226.3765,346.1021 226.3993,346.5657 226.3765,347.0293 226.3084,347.4885 226.1956,347.9387 226.0392,348.3758"/>
    <polygon points="228.4816,341.3924 228.3688,340.9421 228.3007,340.483 228.2779,340.0194 228.3007,339.5557 228.3688,339.0966 228.4816,338.6463 228.6379,338.2093 228.8364,337.7897 229.075,337.3915 229.3516,337.0187 229.6633,336.6748 230.0072,336.363 230.38,336.0865 230.7782,335.8479 231.1978,335.6494 231.6348,335.4931 232.0851,335.3803 232.5443,335.3122 233.0079,335.2894 233.4715,335.3122 233.9306,335.3803 234.3809,335.4931 234.818,335.6494 235.2376,335.8479 235.6357,336.0865 236.0085,336.363 236.3525,336.6748 236.6642,337.0187 236.9407,337.3915 237.1793,337.7897 237.3778,338.2093 237.5342,338.6463 237.647,339.0966 237.7151,339.5557 237.7378,340.0194 237.7151,340.483 237.647,340.9421 237.5342,341.3924 237.3778,341.8294 237.1793,342.2491 236.9407,342.6472 236.6642,343.02 236.3525,343.364 236.0085,343.6757 235.6357,343.9522 235.2376,344.1908 234.818,344.3893 234.3809,344.5457 233.9306,344.6585 233.4715,344.7266 233.0079,344.7493 232.5443,344.7266 232.0851,344.6585 231.6348,344.5457 231.1978,344.3893 230.7782,344.1908 230.38,343.9522 230.0072,343.6757 229.6633,343.364 229.3516,343.02 229.075,342.6472 228.8364,342.2491 228.6379,341.8294"/>
    <polygon points="247.0207,338.1487 248.126,338.203 249.2313,338.1487 250.3259,337.9863 251.3993,337.7175 252.4412,337.3446 253.4416,336.8715 254.3908,336.3026 255.2796,335.6434 256.0995,334.9003 256.8427,334.0803 257.5019,333.1915 258.0708,332.2423 258.5439,331.242 258.9167,330.2 259.1856,329.1266 259.348,328.032 259.4023,326.9267 259.348,325.8214 259.1856,324.7268 258.9167,323.6534 258.5439,322.6114 258.0708,321.6111 257.5019,320.6619 256.8427,319.7731 256.0995,318.9531 255.2796,318.21 254.3908,317.5508 253.4416,316.9819 252.4412,316.5087 251.3993,316.1359 250.3259,315.8671 249.2313,315.7047 248.126,315.6504 247.0207,315.7047 245.9261,315.8671 244.8526,316.1359 243.8107,316.5087 242.8104,316.9819 241.8612,317.5508 240.9724,318.21 240.1524,318.9531 239.4093,319.7731 238.7501,320.6619 238.1812,321.6111 237.708,322.6114 237.3352,323.6534 237.0663,324.7268 236.904,325.8214 236.8497,326.9267 236.904,328.032 237.0663,329.1266 237.3352,330.2 237.708,331.242 238.1812,332.2423 238.7501,333.1915 239.4093,334.0803 240.1524,334.9003 240.9724,335.6434 241.8612,336.3026 242.8104,336.8715 243.8107,337.3446 244.8526,337.7175 245.9261,337.9863"/>
    <polygon points="248.5179,348.7954 248.7164,348.3758 248.8728,347.9387 248.9855,347.4885 249.0537,347.0293 249.0764,346.5657 249.0537,346.1021 248.9855,345.6429 248.8728,345.1927 248.7164,344.7556 248.5179,344.336 248.2793,343.9379 248.0028,343.565 247.6911,343.2211 247.3471,342.9094 246.9743,342.6329 246.5762,342.3942 246.1565,342.1958 245.7195,342.0394 245.2692,341.9266 244.8101,341.8585 244.3465,341.8357 243.8828,341.8585 243.4237,341.9266 242.9734,342.0394 242.5364,342.1958 242.1168,342.3942 241.7186,342.6329 241.3458,342.9094 241.0019,343.2211 240.6901,343.565 240.4136,343.9379 240.175,344.336 239.9765,344.7556 239.8202,345.1927 239.7074,345.6429 239.6393,346.1021 239.6165,346.5657 239.6393,347.0293 239.7074,347.4885 239.8202,347.9387 239.9765,348.3758 240.175,348.7954 240.4136,349.1935 240.6901,349.5664 241.0019,349.9103 241.3458,350.222 241.7186,350.4985 242.1168,350.7372 242.5364,350.9356 242.9734,351.092 243.4237,351.2048 243.8828,351.2729 244.3465,351.2957 244.8101,351.2729 245.2692,351.2048 245.7195,351.092 246.1565,350.9356 246.5762,350.7372 246.9743,350.4985 247.3471,350.222 247.6911,349.9103 248.0028,349.5664 248.2793,349.1935"/>
    <polygon points="269.2533,337.6445 268.8337,337.843 268.3967,337.9993 267.9464,338.1121 267.4872,338.1802 267.0236,338.203 266.56,338.1802 266.1009,338.1121 265.6506,337.9993 265.2135,337.843 264.7939,337.6445 264.3958,337.4059 264.023,337.1294 263.679,336.8176 263.3673,336.4737 263.0908,336.1009 262.8522,335.7027 262.6537,335.2831 262.4973,334.8461 262.3845,334.3958 262.3164,333.9367 262.2936,333.473 262.3164,333.0094 262.3845,332.5503 262.4973,332.1 262.6537,331.663 262.8522,331.2433 263.0908,330.8452 263.3673,330.4724 263.679,330.1284 264.023,329.8167 264.3958,329.5402 264.7939,329.3016 265.2135,329.1031 265.6506,328.9467 266.1009,328.8339 266.56,328.7658 267.0236,328.7431 267.4872,328.7658 267.9464,328.8339 268.3967,328.9467 268.8337,329.1031 269.2533,329.3016 269.6515,329.5402 270.0243,329.8167 270.3682,330.1284 270.6799,330.4724 270.9565,330.8452 271.1951,331.2433 271.3935,331.663 271.5499,332.1 271.6627,332.5503 271.7308,333.0094 271.7536,333.473 271.7308,333.9367 271.6627,334.3958 271.5499,334.8461 271.3935,335.2831 271.1951,335.7027 270.9565,336.1009 270.6799,336.4737 270.3682,336.8176 270.0243,337.1294 269.6515,337.4059"/>
    <polygon points="274.7059,343.02 274.4294,342.6472 274.1907,342.2491 273.9923,341.8294 273.8359,341.3924 273.7231,340.9421 273.655,340.483 273.6322,340.0194 273.655,339.5557 273.7231,339.0966 273.8359,338.6463 273.9923,338.2093 274.1907,337.7897 274.4294,337.3915 274.7059,337.0187 275.0176,336.6748 275.3615,336.363 275.7344,336.0865 276.1325,335.8479 276.5521,335.6494 276.9892,335.4931 277.4394,335.3803 277.8986,335.3122 278.3622,335.2894 278.8258,335.3122 279.285,335.3803 279.7352,335.4931 280.1723,335.6494 280.5919,335.8479 280.99,336.0865 281.3629,336.363 281.7068,336.6748 282.0185,337.0187 282.295,337.3915 282.5337,337.7897 282.7321,338.2093 282.8885,338.6463 283.0013,339.0966 283.0694,339.5557 283.0922,340.0194 283.0694,340.483 283.0013,340.9421 282.8885,341.3924 282.7321,341.8294 282.5337,342.2491 282.295,342.6472 282.0185,343.02 281.7068,343.364 281.3629,343.6757 280.99,343.9522 280.5919,344.1908 280.1723,344.3893 279.7352,344.5457 279.285,344.6585 278.8258,344.7266 278.3622,344.7493 277.8986,344.7266 277.4394,344.6585 276.9892,344.5457 276.5521,344.3893 276.1325,344.1908 275.7344,343.9522 275.3615,343.6757 275.0176,343.364"/>
    <polygon points="293.0454,336.8176 292.7015,337.1294 292.3286,337.4059 291.9305,337.6445 291.5109,337.843 291.0738,337.9993 290.6236,338.1121 290.1644,338.1802 289.7008,338.203 289.2372,338.1802 288.778,338.1121 288.3277,337.9993 287.8907,337.843 287.4711,337.6445 287.073,337.4059 286.7001,337.1294 286.3562,336.8176 286.0445,336.4737 285.768,336.1009 285.5293,335.7027 285.3309,335.2831 285.1745,334.8461 285.0617,334.3958 284.9936,333.9367 284.9708,333.473 284.9936,333.0094 285.0617,332.5503 285.1745,332.1 285.3309,331.663 285.5293,331.2433 285.768,330.8452 286.0445,330.4724 286.3562,330.1284 286.7001,329.8167 287.073,329.5402 287.4711,329.3016 287.8907,329.1031 288.3277,328.9467 288.778,328.8339 289.2372,328.7658 289.7008,328.7431 290.1644,328.7658 290.6236,328.8339 291.0738,328.9467 291.5109,329.1031 291.9305,329.3016 292.3286,329.5402 292.7015,329.8167 293.0454,330.1284 293.3571,330.4724 293.6336,330.8452 293.8723,331.2433 294.0707,331.663 294.2271,332.1 294.3399,332.5503 294.408,333.0094 294.4308,333.473 294.408,333.9367 294.3399,334.3958 294.2271,334.8461 294.0707,335.2831 293.8723,335.7027 293.6336,336.1009 293.3571,336.4737"/>
    <polygon points="284.9708,320.3804 284.9936,319.9167 285.0617,319.4576 285.1745,319.0073 285.3309,318.5703 285.5293,318.1507 285.768,317.7525 286.0445,317.3797 286.3562,317.0358 286.7001,316.724 287.073,316.4475 287.4711,316.2089 287.8907,316.0104 288.3277,315.8541 288.778,315.7413 289.2372,315.6732 289.7008,315.6504 290.1644,315.6732 290.6236,315.7413 291.0738,315.8541 291.5109,316.0104 291.9305,316.2089 292.3286,316.4475 292.7015,316.724 293.0454,317.0358 293.3571,317.3797 293.6336,317.7525 293.8723,318.1507 294.0707,318.5703 294.2271,319.0073 294.3399,319.4576 294.408,319.9167 294.4308,320.3804 294.408,320.844 294.3399,321.3031 294.2271,321.7534 294.0707,322.1904 293.8723,322.6101 293.6336,323.0082 293.3571,323.381 293.0454,323.725 292.7015,324.0367 292.3286,324.3132 291.9305,324.5518 291.5109,324.7503 291.0738,324.9067 290.6236,325.0195 290.1644,325.0876 289.7008,325.1103 289.2372,325.0876 288.778,325.0195 288.3277,324.9067 287.8907,324.7503 287.4711,324.5518 287.073,324.3132 286.7001,324.0367 286.3562,323.725 286.0445,323.381 285.768,323.0082 285.5293,322.6101 285.3309,322.1904 285.1745,321.7534 285.0617,321.3031 284.9936,320.844"/>
    <polygon points="303.4251,306.057 302.8562,307.0061 302.197,307.895 301.4539,308.7149 300.6339,309.4581 299.7451,310.1173 298.7959,310.6862 297.7956,311.1593 296.7537,311.5321 295.6802,311.801 294.5856,311.9634 293.4803,312.0177 292.375,311.9634 291.2804,311.801 290.207,311.5321 289.1651,311.1593 288.1647,310.6862 287.2155,310.1173 286.3267,309.4581 285.5068,308.7149 284.7636,307.895 284.1044,307.0061 283.5355,306.057 283.0624,305.0566 282.6896,304.0147 282.4207,302.9413 282.2583,301.8466 282.204,300.7414 282.2583,299.6361 282.4207,298.5415 282.6896,297.468 283.0624,296.4261 283.5355,295.4257 284.1044,294.4766 284.7636,293.5878 285.5068,292.7678 286.3267,292.0247 287.2155,291.3655 288.1647,290.7965 289.1651,290.3234 290.207,289.9506 291.2804,289.6817 292.375,289.5194 293.4803,289.4651 294.5856,289.5194 295.6802,289.6817 296.7537,289.9506 297.7956,290.3234 298.7959,290.7965 299.7451,291.3655 300.6339,292.0247 301.4539,292.7678 302.197,293.5878 302.8562,294.4766 303.4251,295.4257 303.8983,296.4261 304.2711,297.468 304.54,298.5415 304.7023,299.6361 304.7566,300.7414 304.7023,301.8466 304.54,302.9413 304.2711,304.0147 303.8983,305.0566"/>
    <polygon points="309.7501,303.3549 310.1483,303.1162 310.5679,302.9178 311.0049,302.7614 311.4552,302.6486 311.9143,302.5805 312.378,302.5577 312.8416,302.5805 313.3007,302.6486 313.751,302.7614 314.188,302.9178 314.6076,303.1162 315.0058,303.3549 315.3786,303.6314 315.7225,303.9431 316.0343,304.287 316.3108,304.6599 316.5494,305.058 316.7479,305.4776 316.9043,305.9147 317.017,306.3649 317.0851,306.8241 317.1079,307.2877 317.0851,307.7513 317.017,308.2105 316.9043,308.6607 316.7479,309.0978 316.5494,309.5174 316.3108,309.9155 316.0343,310.2884 315.7225,310.6323 315.3786,310.944 315.0058,311.2205 314.6076,311.4592 314.188,311.6576 313.751,311.814 313.3007,311.9268 312.8416,311.9949 312.378,312.0177 311.9143,311.9949 311.4552,311.9268 311.0049,311.814 310.5679,311.6576 310.1483,311.4592 309.7501,311.2205 309.3773,310.944 309.0334,310.6323 308.7216,310.2884 308.4451,309.9155 308.2065,309.5174 308.008,309.0978 307.8517,308.6607 307.7389,308.2105 307.6708,307.7513 307.648,307.2877 307.6708,306.8241 307.7389,306.3649 307.8517,305.9147 308.008,305.4776 308.2065,305.058 308.4451,304.6599 308.7216,304.287 309.0334,303.9431 309.3773,303.6314"/>
    <polygon points="307.8517,292.822 308.008,292.3849 308.2065,291.9653 308.4451,291.5672 308.7216,291.1944 309.0334,290.8504 309.3773,290.5387 309.7501,290.2622 310.1483,290.0236 310.5679,289.8251 311.0049,289.6687 311.4552,289.5559 311.9143,289.4878 312.378,289.4651 312.8416,289.4878 313.3007,289.5559 313.751,289.6687 314.188,289.8251 314.6076,290.0236 315.0058,290.2622 315.3786,290.5387 315.7225,290.8504 316.0343,291.1944 316.3108,291.5672 316.5494,291.9653 316.7479,292.3849 316.9043,292.822 317.017,293.2723 317.0851,293.7314 317.1079,294.195 317.0851,294.6586 317.017,295.1178 316.9043,295.5681 316.7479,296.0051 316.5494,296.4247 316.3108,296.8229 316.0343,297.1957 315.7225,297.5396 315.3786,297.8513 315.0058,298.1279 314.6076,298.3665 314.188,298.565 313.751,298.7213 313.3007,298.8341 312.8416,298.9022 312.378,298.925 311.9143,298.9022 311.4552,298.8341 311.0049,298.7213 310.5679,298.565 310.1483,298.3665 309.7501,298.1279 309.3773,297.8513 309.0334,297.5396 308.7216,297.1957 308.4451,296.8229 308.2065,296.4247 308.008,296.0051 307.8517,295.5681 307.7389,295.1178 307.6708,294.6586 307.648,294.195 307.6708,293.7314 307.7389,293.2723"/>
    <polygon points="312.8416,272.7169 312.378,272.7397 311.9143,272.7169 311.4552,272.6488 311.0049,272.536 310.5679,272.3796 310.1483,272.1812 309.7501,271.9425 309.3773,271.666 309.0334,271.3543 308.7216,271.0104 308.4451,270.6375 308.2065,270.2394 308.008,269.8198 307.8517,269.3827 307.7389,268.9325 307.6708,268.4733 307.648,268.0097 307.6708,267.5461 307.7389,267.0869 307.8517,266.6367 308.008,266.1996 308.2065,265.78 308.4451,265.3819 308.7216,265.009 309.0334,264.6651 309.3773,264.3534 309.7501,264.0769 310.1483,263.8382 310.5679,263.6398 311.0049,263.4834 311.4552,263.3706 311.9143,263.3025 312.378,263.2797 312.8416,263.3025 313.3007,263.3706 313.751,263.4834 314.188,263.6398 314.6076,263.8382 315.0058,264.0769 315.3786,264.3534 315.7225,264.6651 316.0343,265.009 316.3108,265.3819 316.5494,265.78 316.7479,266.1996 316.9043,266.6367 317.017,267.0869 317.0851,267.5461 317.1079,268.0097 317.0851,268.4733 317.017,268.9325 316.9043,269.3827 316.7479,269.8198 316.5494,270.2394 316.3108,270.6375 316.0343,271.0104 315.7225,271.3543 315.3786,271.666 315.0058,271.9425 314.6076,272.1812 314.188,272.3796 313.751,272.536 313.3007,272.6488"/>
    <polygon points="289.1651,264.1381 290.207,263.7653 291.2804,263.4964 292.375,263.334 293.4803,263.2797 294.5856,263.334 295.6802,263.4964 296.7537,263.7653 297.7956,264.1381 298.7959,264.6112 299.7451,265.1801 300.6339,265.8393 301.4539,266.5825 302.197,267.4024 302.8562,268.2912 303.4251,269.2404 303.8983,270.2408 304.2711,271.2827 304.54,272.3561 304.7023,273.4508 304.7566,274.556 304.7023,275.6613 304.54,276.7559 304.2711,277.8294 303.8983,278.8713 303.4251,279.8716 302.8562,280.8208 302.197,281.7096 301.4539,282.5296 300.6339,283.2727 299.7451,283.9319 298.7959,284.5008 297.7956,284.974 296.7537,285.3468 295.6802,285.6157 294.5856,285.778 293.4803,285.8323 292.375,285.778 291.2804,285.6157 290.207,285.3468 289.1651,284.974 288.1647,284.5008 287.2155,283.9319 286.3267,283.2727 285.5068,282.5296 284.7636,281.7096 284.1044,280.8208 283.5355,279.8716 283.0624,278.8713 282.6896,277.8294 282.4207,276.7559 282.2583,275.6613 282.204,274.556 282.2583,273.4508 282.4207,272.3561 282.6896,271.2827 283.0624,270.2408 283.5355,269.2404 284.1044,268.2912 284.7636,267.4024 285.5068,266.5825 286.3267,265.8393 287.2155,265.1801 288.1647,264.6112"/>
    <polygon points="294.0707,243.6344 294.2271,243.1974 294.3399,242.7471 294.408,242.288 294.4308,241.8244 294.408,241.3607 294.3399,240.9016 294.2271,240.4513 294.0707,240.0143 293.8723,239.5947 293.6336,239.1965 293.3571,238.8237 293.0454,238.4798 292.7015,238.168 292.3286,237.8915 291.9305,237.6529 291.5109,237.4544 291.0738,237.2981 290.6236,237.1853 290.1644,237.1172 289.7008,237.0944 289.2372,237.1172 288.778,237.1853 288.3277,237.2981 287.8907,237.4544 287.4711,237.6529 287.073,237.8915 286.7001,238.168 286.3562,238.4798 286.0445,238.8237 285.768,239.1965 285.5293,239.5947 285.3309,240.0143 285.1745,240.4513 285.0617,240.9016 284.9936,241.3607 284.9708,241.8244 284.9936,242.288 285.0617,242.7471 285.1745,243.1974 285.3309,243.6344 285.5293,244.0541 285.768,244.4522 286.0445,244.825 286.3562,245.169 286.7001,245.4807 287.073,245.7572 287.4711,245.9958 287.8907,246.1943 288.3277,246.3507 288.778,246.4634 289.2372,246.5316 289.7008,246.5543 290.1644,246.5316 290.6236,246.4634 291.0738,246.3507 291.5109,246.1943 291.9305,245.9958 292.3286,245.7572 292.7015,245.4807 293.0454,245.169 293.3571,244.825 293.6336,244.4522 293.8723,244.0541"/>
    <polygon points="302.4124,243.8444 301.9621,243.7316 301.503,243.6635 301.0394,243.6407 300.5758,243.6635 300.1166,243.7316 299.6663,243.8444 299.2293,244.0008 298.8097,244.1992 298.4115,244.4379 298.0387,244.7144 297.6948,245.0261 297.3831,245.37 297.1065,245.7429 296.8679,246.141 296.6694,246.5606 296.5131,246.9977 296.4003,247.4479 296.3322,247.9071 296.3094,248.3707 296.3322,248.8343 296.4003,249.2935 296.5131,249.7437 296.6694,250.1808 296.8679,250.6004 297.1065,250.9985 297.3831,251.3714 297.6948,251.7153 298.0387,252.027 298.4115,252.3035 298.8097,252.5422 299.2293,252.7406 299.6663,252.897 300.1166,253.0098 300.5758,253.0779 301.0394,253.1007 301.503,253.0779 301.9621,253.0098 302.4124,252.897 302.8495,252.7406 303.2691,252.5422 303.6672,252.3035 304.04,252.027 304.384,251.7153 304.6957,251.3714 304.9722,250.9985 305.2108,250.6004 305.4093,250.1808 305.5657,249.7437 305.6785,249.2935 305.7466,248.8343 305.7693,248.3707 305.7466,247.9071 305.6785,247.4479 305.5657,246.9977 305.4093,246.5606 305.2108,246.141 304.9722,245.7429 304.6957,245.37 304.384,245.0261 304.04,244.7144 303.6672,244.4379 303.2691,244.1992 302.8495,244.0008"/>
    <polygon points="326.7172,212.749 326.3444,213.0255 325.9462,213.2642 325.5266,213.4626 325.0896,213.619 324.6393,213.7318 324.1802,213.7999 323.7165,213.8227 323.2529,213.7999 322.7938,213.7318 322.3435,213.619 321.9065,213.4626 321.4868,213.2642 321.0887,213.0255 320.7159,212.749 320.3719,212.4373 320.0602,212.0934 319.7837,211.7205 319.5451,211.3224 319.3466,210.9028 319.1902,210.4657 319.0774,210.0155 319.0093,209.5563 318.9866,209.0927 319.0093,208.6291 319.0774,208.1699 319.1902,207.7197 319.3466,207.2826 319.5451,206.863 319.7837,206.4649 320.0602,206.092 320.3719,205.7481 320.7159,205.4364 321.0887,205.1599 321.4868,204.9212 321.9065,204.7228 322.3435,204.5664 322.7938,204.4536 323.2529,204.3855 323.7165,204.3627 324.1802,204.3855 324.6393,204.4536 325.0896,204.5664 325.5266,204.7228 325.9462,204.9212 326.3444,205.1599 326.7172,205.4364 327.0611,205.7481 327.3729,206.092 327.6494,206.4649 327.888,206.863 328.0865,207.2826 328.2428,207.7197 328.3556,208.1699 328.4237,208.6291 328.4465,209.0927 328.4237,209.5563 328.3556,210.0155 328.2428,210.4657 328.0865,210.9028 327.888,211.3224 327.6494,211.7205 327.3729,212.0934 327.0611,212.4373"/>
    <polygon points="308.4451,186.8259 308.7216,186.453 309.0334,186.1091 309.3773,185.7974 309.7501,185.5209 310.1483,185.2822 310.5679,185.0838 311.0049,184.9274 311.4552,184.8146 311.9143,184.7465 312.378,184.7237 312.8416,184.7465 313.3007,184.8146 313.751,184.9274 314.188,185.0838 314.6076,185.2822 315.0058,185.5209 315.3786,185.7974 315.7225,186.1091 316.0343,186.453 316.3108,186.8259 316.5494,187.224 316.7479,187.6436 316.9043,188.0807 317.017,188.5309 317.0851,188.9901 317.1079,189.4537 317.0851,189.9173 317.017,190.3765 316.9043,190.8267 316.7479,191.2638 316.5494,191.6834 316.3108,192.0815 316.0343,192.4544 315.7225,192.7983 315.3786,193.11 315.0058,193.3865 314.6076,193.6252 314.188,193.8236 313.751,193.98 313.3007,194.0928 312.8416,194.1609 312.378,194.1837 311.9143,194.1609 311.4552,194.0928 311.0049,193.98 310.5679,193.8236 310.1483,193.6252 309.7501,193.3865 309.3773,193.11 309.0334,192.7983 308.7216,192.4544 308.4451,192.0815 308.2065,191.6834 308.008,191.2638 307.8517,190.8267 307.7389,190.3765 307.6708,189.9173 307.648,189.4537 307.6708,188.9901 307.7389,188.5309 307.8517,188.0807 308.008,187.6436 308.2065,187.224"/>
    <polygon points="307.6708,202.0827 307.7389,201.6236 307.8517,201.1733 308.008,200.7363 308.2065,200.3167 308.4451,199.9185 308.7216,199.5457 309.0334,199.2018 309.3773,198.89 309.7501,198.6135 310.1483,198.3749 310.5679,198.1764 311.0049,198.0201 311.4552,197.9073 311.9143,197.8392 312.378,197.8164 312.8416,197.8392 313.3007,197.9073 313.751,198.0201 314.188,198.1764 314.6076,198.3749 315.0058,198.6135 315.3786,198.89 315.7225,199.2018 316.0343,199.5457 316.3108,199.9185 316.5494,200.3167 316.7479,200.7363 316.9043,201.1733 317.017,201.6236 317.0851,202.0827 317.1079,202.5464 317.0851,203.01 317.017,203.4691 316.9043,203.9194 316.7479,204.3564 316.5494,204.7761 316.3108,205.1742 316.0343,205.547 315.7225,205.891 315.3786,206.2027 315.0058,206.4792 314.6076,206.7178 314.188,206.9163 313.751,207.0727 313.3007,207.1854 312.8416,207.2536 312.378,207.2763 311.9143,207.2536 311.4552,207.1854 311.0049,207.0727 310.5679,206.9163 310.1483,206.7178 309.7501,206.4792 309.3773,206.2027 309.0334,205.891 308.7216,205.547 308.4451,205.1742 308.2065,204.7761 308.008,204.3564 307.8517,203.9194 307.7389,203.4691 307.6708,203.01 307.648,202.5464"/>
    <polygon points="285.0617,227.8089 285.1745,227.3587 285.3309,226.9216 285.5293,226.502 285.768,226.1039 286.0445,225.731 286.3562,225.3871 286.7001,225.0754 287.073,224.7989 287.4711,224.5602 287.8907,224.3618 288.3277,224.2054 288.778,224.0926 289.2372,224.0245 289.7008,224.0017 290.1644,224.0245 290.6236,224.0926 291.0738,224.2054 291.5109,224.3618 291.9305,224.5602 292.3286,224.7989 292.7015,225.0754 293.0454,225.3871 293.3571,225.731 293.6336,226.1039 293.8723,226.502 294.0707,226.9216 294.2271,227.3587 294.3399,227.8089 294.408,228.2681 294.4308,228.7317 294.408,229.1953 294.3399,229.6545 294.2271,230.1047 294.0707,230.5418 293.8723,230.9614 293.6336,231.3595 293.3571,231.7324 293.0454,232.0763 292.7015,232.388 292.3286,232.6645 291.9305,232.9032 291.5109,233.1016 291.0738,233.258 290.6236,233.3708 290.1644,233.4389 289.7008,233.4617 289.2372,233.4389 288.778,233.3708 288.3277,233.258 287.8907,233.1016 287.4711,232.9032 287.073,232.6645 286.7001,232.388 286.3562,232.0763 286.0445,231.7324 285.768,231.3595 285.5293,230.9614 285.3309,230.5418 285.1745,230.1047 285.0617,229.6545 284.9936,229.1953 284.9708,228.7317 284.9936,228.2681"/>
    <polygon points="285.768,218.2669 285.5293,217.8687 285.3309,217.4491 285.1745,217.0121 285.0617,216.5618 284.9936,216.1026 284.9708,215.639 284.9936,215.1754 285.0617,214.7163 285.1745,214.266 285.3309,213.8289 285.5293,213.4093 285.768,213.0112 286.0445,212.6384 286.3562,212.2944 286.7001,211.9827 287.073,211.7062 287.4711,211.4676 287.8907,211.2691 288.3277,211.1127 288.778,210.9999 289.2372,210.9318 289.7008,210.9091 290.1644,210.9318 290.6236,210.9999 291.0738,211.1127 291.5109,211.2691 291.9305,211.4676 292.3286,211.7062 292.7015,211.9827 293.0454,212.2944 293.3571,212.6384 293.6336,213.0112 293.8723,213.4093 294.0707,213.8289 294.2271,214.266 294.3399,214.7163 294.408,215.1754 294.4308,215.639 294.408,216.1026 294.3399,216.5618 294.2271,217.0121 294.0707,217.4491 293.8723,217.8687 293.6336,218.2669 293.3571,218.6397 293.0454,218.9836 292.7015,219.2953 292.3286,219.5719 291.9305,219.8105 291.5109,220.0089 291.0738,220.1653 290.6236,220.2781 290.1644,220.3462 289.7008,220.369 289.2372,220.3462 288.778,220.2781 288.3277,220.1653 287.8907,220.0089 287.4711,219.8105 287.073,219.5719 286.7001,219.2953 286.3562,218.9836 286.0445,218.6397"/>
    <polygon points="280.1791,202.8279 280.748,203.7771 281.2211,204.7774 281.5939,205.8194 281.8628,206.8928 282.0252,207.9874 282.0795,209.0927 282.0252,210.198 281.8628,211.2926 281.5939,212.366 281.2211,213.4079 280.748,214.4083 280.1791,215.3575 279.5199,216.2463 278.7767,217.0662 277.9568,217.8094 277.0679,218.4686 276.1188,219.0375 275.1184,219.5106 274.0765,219.8834 273.003,220.1523 271.9084,220.3147 270.8031,220.369 269.6979,220.3147 268.6033,220.1523 267.5298,219.8834 266.4879,219.5106 265.4875,219.0375 264.5384,218.4686 263.6495,217.8094 262.8296,217.0662 262.0864,216.2463 261.4272,215.3575 260.8583,214.4083 260.3852,213.4079 260.0124,212.366 259.7435,211.2926 259.5811,210.198 259.5268,209.0927 259.5811,207.9874 259.7435,206.8928 260.0124,205.8194 260.3852,204.7774 260.8583,203.7771 261.4272,202.8279 262.0864,201.9391 262.8296,201.1191 263.6495,200.376 264.5384,199.7168 265.4875,199.1479 266.4879,198.6747 267.5298,198.3019 268.6033,198.0331 269.6979,197.8707 270.8031,197.8164 271.9084,197.8707 273.003,198.0331 274.0765,198.3019 275.1184,198.6747 276.1188,199.1479 277.0679,199.7168 277.9568,200.376 278.7767,201.1191 279.5199,201.9391"/>
    <polygon points="282.4207,198.1999 282.2583,197.1053 282.204,196.0 282.2583,194.8948 282.4207,193.8001 282.6896,192.7267 283.0624,191.6848 283.5355,190.6844 284.1044,189.7352 284.7636,188.8464 285.5068,188.0265 286.3267,187.2833 287.2155,186.6241 288.1647,186.0552 289.1651,185.5821 290.207,185.2093 291.2804,184.9404 292.375,184.778 293.4803,184.7237 294.5856,184.778 295.6802,184.9404 296.7537,185.2093 297.7956,185.5821 298.7959,186.0552 299.7451,186.6241 300.6339,187.2833 301.4539,188.0265 302.197,188.8464 302.8562,189.7352 303.4251,190.6844 303.8983,191.6848 304.2711,192.7267 304.54,193.8001 304.7023,194.8948 304.7566,196.0 304.7023,197.1053 304.54,198.1999 304.2711,199.2734 303.8983,200.3153 303.4251,201.3156 302.8562,202.2648 302.197,203.1536 301.4539,203.9736 300.6339,204.7167 299.7451,205.3759 298.7959,205.9448 297.7956,206.418 296.7537,206.7908 295.6802,207.0597 294.5856,207.222 293.4803,207.2763 292.375,207.222 291.2804,207.0597 290.207,206.7908 289.1651,206.418 288.1647,205.9448 287.2155,205.3759 286.3267,204.7167 285.5068,203.9736 284.7636,203.1536 284.1044,202.2648 283.5355,201.3156 283.0624,200.3153 282.6896,199.2734"/>
    <polygon points="284.9708,176.361 284.9936,175.8974 285.0617,175.4383 285.1745,174.988 285.3309,174.5509 285.5293,174.1313 285.768,173.7332 286.0445,173.3604 286.3562,173.0164 286.7001,172.7047 287.073,172.4282 287.4711,172.1896 287.8907,171.9911 288.3277,171.8347 288.778,171.7219 289.2372,171.6538 289.7008,171.631 290.1644,171.6538 290.6236,171.7219 291.0738,171.8347 291.5109,171.9911 291.9305,172.1896 292.3286,172.4282 292.7015,172.7047 293.0454,173.0164 293.3571,173.3604 293.6336,173.7332 293.8723,174.1313 294.0707,174.5509 294.2271,174.988 294.3399,175.4383 294.408,175.8974 294.4308,176.361 294.408,176.8246 294.3399,177.2838 294.2271,177.7341 294.0707,178.1711 293.8723,178.5907 293.6336,178.9889 293.3571,179.3617 293.0454,179.7056 292.7015,180.0173 292.3286,180.2939 291.9305,180.5325 291.5109,180.7309 291.0738,180.8873 290.6236,181.0001 290.1644,181.0682 289.7008,181.091 289.2372,181.0682 288.778,181.0001 288.3277,180.8873 287.8907,180.7309 287.4711,180.5325 287.073,180.2939 286.7001,180.0173 286.3562,179.7056 286.0445,179.3617 285.768,178.9889 285.5293,178.5907 285.3309,178.1711 285.1745,177.7341 285.0617,177.2838 284.9936,176.8246"/>
    <polygon points="282.295,180.2795 282.5337,180.6777 282.7321,181.0973 282.8885,181.5343 283.0013,181.9846 283.0694,182.4437 283.0922,182.9074 283.0694,183.371 283.0013,183.8301 282.8885,184.2804 282.7321,184.7174 282.5337,185.137 282.295,185.5352 282.0185,185.908 281.7068,186.252 281.3629,186.5637 280.99,186.8402 280.5919,187.0788 280.1723,187.2773 279.7352,187.4337 279.285,187.5464 278.8258,187.6146 278.3622,187.6373 277.8986,187.6146 277.4394,187.5464 276.9892,187.4337 276.5521,187.2773 276.1325,187.0788 275.7344,186.8402 275.3615,186.5637 275.0176,186.252 274.7059,185.908 274.4294,185.5352 274.1907,185.137 273.9923,184.7174 273.8359,184.2804 273.7231,183.8301 273.655,183.371 273.6322,182.9074 273.655,182.4437 273.7231,181.9846 273.8359,181.5343 273.9923,181.0973 274.1907,180.6777 274.4294,180.2795 274.7059,179.9067 275.0176,179.5628 275.3615,179.251 275.7344,178.9745 276.1325,178.7359 276.5521,178.5374 276.9892,178.3811 277.4394,178.2683 277.8986,178.2002 278.3622,178.1774 278.8258,178.2002 279.285,178.2683 279.7352,178.3811 280.1723,178.5374 280.5919,178.7359 280.99,178.9745 281.3629,179.251 281.7068,179.5628 282.0185,179.9067"/>
    <polygon points="271.5499,188.0807 271.6627,188.5309 271.7308,188.9901 271.7536,189.4537 271.7308,189.9173 271.6627,190.3765 271.5499,190.8267 271.3935,191.2638 271.1951,191.6834 270.9565,192.0815 270.6799,192.4544 270.3682,192.7983 270.0243,193.11 269.6515,193.3865 269.2533,193.6252 268.8337,193.8236 268.3967,193.98 267.9464,194.0928 267.4872,194.1609 267.0236,194.1837 266.56,194.1609 266.1009,194.0928 265.6506,193.98 265.2135,193.8236 264.7939,193.6252 264.3958,193.3865 264.023,193.11 263.679,192.7983 263.3673,192.4544 263.0908,192.0815 262.8522,191.6834 262.6537,191.2638 262.4973,190.8267 262.3845,190.3765 262.3164,189.9173 262.2936,189.4537 262.3164,188.9901 262.3845,188.5309 262.4973,188.0807 262.6537,187.6436 262.8522,187.224 263.0908,186.8259 263.3673,186.453 263.679,186.1091 264.023,185.7974 264.3958,185.5209 264.7939,185.2822 265.2135,185.0838 265.6506,184.9274 266.1009,184.8146 266.56,184.7465 267.0236,184.7237 267.4872,184.7465 267.9464,184.8146 268.3967,184.9274 268.8337,185.0838 269.2533,185.2822 269.6515,185.5209 270.0243,185.7974 270.3682,186.1091 270.6799,186.453 270.9565,186.8259 271.1951,187.224 271.3935,187.6436"/>
    <polygon points="252.0287,192.9994 252.3404,192.6554 252.6844,192.3437 253.0572,192.0672 253.4553,191.8286 253.875,191.6301 254.312,191.4737 254.7623,191.3609 255.2214,191.2928 255.685,191.2701 256.1487,191.2928 256.6078,191.3609 257.0581,191.4737 257.4951,191.6301 257.9147,191.8286 258.3129,192.0672 258.6857,192.3437 259.0296,192.6554 259.3414,192.9994 259.6179,193.3722 259.8565,193.7703 260.055,194.1899 260.2113,194.627 260.3241,195.0773 260.3922,195.5364 260.415,196.0 260.3922,196.4636 260.3241,196.9228 260.2113,197.3731 260.055,197.8101 259.8565,198.2297 259.6179,198.6279 259.3414,199.0007 259.0296,199.3446 258.6857,199.6563 258.3129,199.9329 257.9147,200.1715 257.4951,200.3699 257.0581,200.5263 256.6078,200.6391 256.1487,200.7072 255.685,200.73 255.2214,200.7072 254.7623,200.6391 254.312,200.5263 253.875,200.3699 253.4553,200.1715 253.0572,199.9329 252.6844,199.6563 252.3404,199.3446 252.0287,199.0007 251.7522,198.6279 251.5136,198.2297 251.3151,197.8101 251.1587,197.3731 251.046,196.9228 250.9778,196.4636 250.9551,196.0 250.9778,195.5364 251.046,195.0773 251.1587,194.627 251.3151,194.1899 251.5136,193.7703 251.7522,193.3722"/>
    <polygon points="251.7522,224.8132 251.5136,224.4151 251.3151,223.9954 251.1587,223.5584 251.046,223.1081 250.9778,222.649 250.9551,222.1854 250.9778,221.7217 251.046,221.2626 251.1587,220.8123 251.3151,220.3753 251.5136,219.9557 251.7522,219.5575 252.0287,219.1847 252.3404,218.8408 252.6844,218.529 253.0572,218.2525 253.4553,218.0139 253.875,217.8154 254.312,217.6591 254.7623,217.5463 255.2214,217.4782 255.685,217.4554 256.1487,217.4782 256.6078,217.5463 257.0581,217.6591 257.4951,217.8154 257.9147,218.0139 258.3129,218.2525 258.6857,218.529 259.0296,218.8408 259.3414,219.1847 259.6179,219.5575 259.8565,219.9557 260.055,220.3753 260.2113,220.8123 260.3241,221.2626 260.3922,221.7217 260.415,222.1854 260.3922,222.649 260.3241,223.1081 260.2113,223.5584 260.055,223.9954 259.8565,224.4151 259.6179,224.8132 259.3414,225.186 259.0296,225.53 258.6857,225.8417 258.3129,226.1182 257.9147,226.3568 257.4951,226.5553 257.0581,226.7117 256.6078,226.8244 256.1487,226.8926 255.685,226.9153 255.2214,226.8926 254.7623,226.8244 254.312,226.7117 253.875,226.5553 253.4553,226.3568 253.0572,226.1182 252.6844,225.8417 252.3404,225.53 252.0287,225.186"/>
    <polygon points="246.9743,232.6645 246.5762,232.9032 246.1565,233.1016 245.7195,233.258 245.2692,233.3708 244.8101,233.4389 244.3465,233.4617 243.8828,233.4389 243.4237,233.3708 242.9734,233.258 242.5364,233.1016 242.1168,232.9032 241.7186,232.6645 241.3458,232.388 241.0019,232.0763 240.6901,231.7324 240.4136,231.3595 240.175,230.9614 239.9765,230.5418 239.8202,230.1047 239.7074,229.6545 239.6393,229.1953 239.6165,228.7317 239.6393,228.2681 239.7074,227.8089 239.8202,227.3587 239.9765,226.9216 240.175,226.502 240.4136,226.1039 240.6901,225.731 241.0019,225.3871 241.3458,225.0754 241.7186,224.7989 242.1168,224.5602 242.5364,224.3618 242.9734,224.2054 243.4237,224.0926 243.8828,224.0245 244.3465,224.0017 244.8101,224.0245 245.2692,224.0926 245.7195,224.2054 246.1565,224.3618 246.5762,224.5602 246.9743,224.7989 247.3471,225.0754 247.6911,225.3871 248.0028,225.731 248.2793,226.1039 248.5179,226.502 248.7164,226.9216 248.8728,227.3587 248.9855,227.8089 249.0537,228.2681 249.0764,228.7317 249.0537,229.1953 248.9855,229.6545 248.8728,230.1047 248.7164,230.5418 248.5179,230.9614 248.2793,231.3595 248.0028,231.7324 247.6911,232.0763 247.3471,232.388"/>
    <polygon points="262.0864,242.4316 261.4272,241.5428 260.8583,240.5936 260.3852,239.5933 260.0124,238.5514 259.7435,237.4779 259.5811,236.3833 259.5268,235.278 259.5811,234.1728 259.7435,233.0781 260.0124,232.0047 260.3852,230.9628 260.8583,229.9624 261.4272,229.0132 262.0864,228.1244 262.8296,227.3045 263.6495,226.5613 264.5384,225.9021 265.4875,225.3332 266.4879,224.8601 267.5298,224.4873 268.6033,224.2184 269.6979,224.056 270.8031,224.0017 271.9084,224.056 273.003,224.2184 274.0765,224.4873 275.1184,224.8601 276.1188,225.3332 277.0679,225.9021 277.9568,226.5613 278.7767,227.3045 279.5199,228.1244 280.1791,229.0132 280.748,229.9624 281.2211,230.9628 281.5939,232.0047 281.8628,233.0781 282.0252,234.1728 282.0795,235.278 282.0252,236.3833 281.8628,237.4779 281.5939,238.5514 281.2211,239.5933 280.748,240.5936 280.1791,241.5428 279.5199,242.4316 278.7767,243.2516 277.9568,243.9947 277.0679,244.6539 276.1188,245.2228 275.1184,245.696 274.0765,246.0688 273.003,246.3377 271.9084,246.5 270.8031,246.5543 269.6979,246.5 268.6033,246.3377 267.5298,246.0688 266.4879,245.696 265.4875,245.2228 264.5384,244.6539 263.6495,243.9947 262.8296,243.2516"/>
    <polygon points="255.2796,257.0874 254.3908,257.7466 253.4416,258.3155 252.4412,258.7886 251.3993,259.1614 250.3259,259.4303 249.2313,259.5927 248.126,259.647 247.0207,259.5927 245.9261,259.4303 244.8526,259.1614 243.8107,258.7886 242.8104,258.3155 241.8612,257.7466 240.9724,257.0874 240.1524,256.3442 239.4093,255.5243 238.7501,254.6355 238.1812,253.6863 237.708,252.6859 237.3352,251.644 237.0663,250.5706 236.904,249.476 236.8497,248.3707 236.904,247.2654 237.0663,246.1708 237.3352,245.0974 237.708,244.0554 238.1812,243.0551 238.7501,242.1059 239.4093,241.2171 240.1524,240.3971 240.9724,239.654 241.8612,238.9948 242.8104,238.4259 243.8107,237.9527 244.8526,237.5799 245.9261,237.3111 247.0207,237.1487 248.126,237.0944 249.2313,237.1487 250.3259,237.3111 251.3993,237.5799 252.4412,237.9527 253.4416,238.4259 254.3908,238.9948 255.2796,239.654 256.0995,240.3971 256.8427,241.2171 257.5019,242.1059 258.0708,243.0551 258.5439,244.0554 258.9167,245.0974 259.1856,246.1708 259.348,247.2654 259.4023,248.3707 259.348,249.476 259.1856,250.5706 258.9167,251.644 258.5439,252.6859 258.0708,253.6863 257.5019,254.6355 256.8427,255.5243 256.0995,256.3442"/>
    <polygon points="262.759,264.329 265.0106,265.1347 267.1725,266.1572 269.2237,267.3866 271.1446,268.8112 272.9165,270.4172 274.5225,272.1892 275.9471,274.11 277.1766,276.1612 278.199,278.3231 279.0047,280.5748 279.5858,282.8945 279.9367,285.2601 280.054,287.6487 279.9367,290.0373 279.5858,292.4028 279.0047,294.7226 278.199,296.9743 277.1766,299.1362 275.9471,301.1874 274.5225,303.1082 272.9165,304.8802 271.1446,306.4862 269.2237,307.9108 267.1725,309.1402 265.0106,310.1627 262.759,310.9684 260.4392,311.5494 258.0736,311.9003 255.685,312.0177 253.2965,311.9003 250.9309,311.5494 248.6111,310.9684 246.3594,310.1627 244.1976,309.1402 242.1464,307.9108 240.2255,306.4862 238.4536,304.8802 236.8476,303.1082 235.423,301.1874 234.1935,299.1362 233.171,296.9743 232.3654,294.7226 231.7843,292.4028 231.4334,290.0373 231.3161,287.6487 231.4334,285.2601 231.7843,282.8945 232.3654,280.5748 233.171,278.3231 234.1935,276.1612 235.423,274.11 236.8476,272.1892 238.4536,270.4172 240.2255,268.8112 242.1464,267.3866 244.1976,266.1572 246.3594,265.1347 248.6111,264.329 250.9309,263.748 253.2965,263.3971 255.685,263.2797 258.0736,263.3971 260.4392,263.748"/>
    <polygon points="231.7136,304.4581 232.6024,305.1173 233.4224,305.8605 234.1655,306.6804 234.8247,307.5693 235.3936,308.5184 235.8668,309.5188 236.2396,310.5607 236.5085,311.6341 236.6708,312.7288 236.7251,313.834 236.6708,314.9393 236.5085,316.0339 236.2396,317.1074 235.8668,318.1493 235.3936,319.1496 234.8247,320.0988 234.1655,320.9876 233.4224,321.8076 232.6024,322.5507 231.7136,323.2099 230.7644,323.7788 229.7641,324.252 228.7222,324.6248 227.6487,324.8937 226.5541,325.056 225.4488,325.1103 224.3435,325.056 223.2489,324.8937 222.1755,324.6248 221.1336,324.252 220.1332,323.7788 219.184,323.2099 218.2952,322.5507 217.4753,321.8076 216.7321,320.9876 216.0729,320.0988 215.504,319.1496 215.0309,318.1493 214.6581,317.1074 214.3892,316.0339 214.2268,314.9393 214.1725,313.834 214.2268,312.7288 214.3892,311.6341 214.6581,310.5607 215.0309,309.5188 215.504,308.5184 216.0729,307.5693 216.7321,306.6804 217.4753,305.8605 218.2952,305.1173 219.184,304.4581 220.1332,303.8892 221.1336,303.4161 222.1755,303.0433 223.2489,302.7744 224.3435,302.612 225.4488,302.5577 226.5541,302.612 227.6487,302.7744 228.7222,303.0433 229.7641,303.4161 230.7644,303.8892"/>
    <polygon points="214.048,326.9267 213.9937,325.8214 213.8313,324.7268 213.5624,323.6534 213.1896,322.6114 212.7165,321.6111 212.1476,320.6619 211.4884,319.7731 210.7452,318.9531 209.9253,318.21 209.0364,317.5508 208.0873,316.9819 207.0869,316.5087 206.045,316.1359 204.9716,315.8671 203.8769,315.7047 202.7717,315.6504 201.6664,315.7047 200.5718,315.8671 199.4983,316.1359 198.4564,316.5087 197.456,316.9819 196.5069,317.5508 195.618,318.21 194.7981,318.9531 194.055,319.7731 193.3957,320.6619 192.8268,321.6111 192.3537,322.6114 191.9809,323.6534 191.712,324.7268 191.5496,325.8214 191.4953,326.9267 191.5496,328.032 191.712,329.1266 191.9809,330.2 192.3537,331.242 192.8268,332.2423 193.3957,333.1915 194.055,334.0803 194.7981,334.9003 195.618,335.6434 196.5069,336.3026 197.456,336.8715 198.4564,337.3446 199.4983,337.7175 200.5718,337.9863 201.6664,338.1487 202.7717,338.203 203.8769,338.1487 204.9716,337.9863 206.045,337.7175 207.0869,337.3446 208.0873,336.8715 209.0364,336.3026 209.9253,335.6434 210.7452,334.9003 211.4884,334.0803 212.1476,333.1915 212.7165,332.2423 213.1896,331.242 213.5624,330.2 213.8313,329.1266 213.9937,328.032"/>
    <polygon points="208.5206,305.1113 208.9577,305.2677 209.4079,305.3805 209.8671,305.4486 210.3307,305.4713 210.7943,305.4486 211.2535,305.3805 211.7037,305.2677 212.1408,305.1113 212.5604,304.9128 212.9585,304.6742 213.3314,304.3977 213.6753,304.086 213.987,303.742 214.2635,303.3692 214.5022,302.9711 214.7006,302.5514 214.857,302.1144 214.9698,301.6641 215.0379,301.205 215.0607,300.7414 215.0379,300.2777 214.9698,299.8186 214.857,299.3683 214.7006,298.9313 214.5022,298.5117 214.2635,298.1135 213.987,297.7407 213.6753,297.3968 213.3314,297.085 212.9585,296.8085 212.5604,296.5699 212.1408,296.3714 211.7037,296.2151 211.2535,296.1023 210.7943,296.0342 210.3307,296.0114 209.8671,296.0342 209.4079,296.1023 208.9577,296.2151 208.5206,296.3714 208.101,296.5699 207.7029,296.8085 207.33,297.085 206.9861,297.3968 206.6744,297.7407 206.3979,298.1135 206.1592,298.5117 205.9608,298.9313 205.8044,299.3683 205.6916,299.8186 205.6235,300.2777 205.6007,300.7414 205.6235,301.205 205.6916,301.6641 205.8044,302.1144 205.9608,302.5514 206.1592,302.9711 206.3979,303.3692 206.6744,303.742 206.9861,304.086 207.33,304.3977 207.7029,304.6742 208.101,304.9128"/>
    <polygon points="213.987,271.5554 213.6753,271.2114 213.3314,270.8997 212.9585,270.6232 212.5604,270.3846 212.1408,270.1861 211.7037,270.0297 211.2535,269.9169 210.7943,269.8488 210.3307,269.8261 209.8671,269.8488 209.4079,269.9169 208.9577,270.0297 208.5206,270.1861 208.101,270.3846 207.7029,270.6232 207.33,270.8997 206.9861,271.2114 206.6744,271.5554 206.3979,271.9282 206.1592,272.3263 205.9608,272.7459 205.8044,273.183 205.6916,273.6333 205.6235,274.0924 205.6007,274.556 205.6235,275.0196 205.6916,275.4788 205.8044,275.9291 205.9608,276.3661 206.1592,276.7857 206.3979,277.1839 206.6744,277.5567 206.9861,277.9006 207.33,278.2123 207.7029,278.4889 208.101,278.7275 208.5206,278.926 208.9577,279.0823 209.4079,279.1951 209.8671,279.2632 210.3307,279.286 210.7943,279.2632 211.2535,279.1951 211.7037,279.0823 212.1408,278.926 212.5604,278.7275 212.9585,278.4889 213.3314,278.2123 213.6753,277.9006 213.987,277.5567 214.2635,277.1839 214.5022,276.7857 214.7006,276.3661 214.857,275.9291 214.9698,275.4788 215.0379,275.0196 215.0607,274.556 215.0379,274.0924 214.9698,273.6333 214.857,273.183 214.7006,272.7459 214.5022,272.3263 214.2635,271.9282"/>
    <polygon points="231.7136,252.0875 232.6024,252.7467 233.4224,253.4898 234.1655,254.3097 234.8247,255.1986 235.3936,256.1477 235.8668,257.1481 236.2396,258.19 236.5085,259.2635 236.6708,260.3581 236.7251,261.4634 236.6708,262.5686 236.5085,263.6633 236.2396,264.7367 235.8668,265.7786 235.3936,266.779 234.8247,267.7281 234.1655,268.617 233.4224,269.4369 232.6024,270.1801 231.7136,270.8393 230.7644,271.4082 229.7641,271.8813 228.7222,272.2541 227.6487,272.523 226.5541,272.6854 225.4488,272.7397 224.3435,272.6854 223.2489,272.523 222.1755,272.2541 221.1336,271.8813 220.1332,271.4082 219.184,270.8393 218.2952,270.1801 217.4753,269.4369 216.7321,268.617 216.0729,267.7281 215.504,266.779 215.0309,265.7786 214.6581,264.7367 214.3892,263.6633 214.2268,262.5686 214.1725,261.4634 214.2268,260.3581 214.3892,259.2635 214.6581,258.19 215.0309,257.1481 215.504,256.1477 216.0729,255.1986 216.7321,254.3097 217.4753,253.4898 218.2952,252.7467 219.184,252.0875 220.1332,251.5185 221.1336,251.0454 222.1755,250.6726 223.2489,250.4037 224.3435,250.2414 225.4488,250.1871 226.5541,250.2414 227.6487,250.4037 228.7222,250.6726 229.7641,251.0454 230.7644,251.5185"/>
    <polygon points="219.8592,246.1943 219.4396,245.9958 219.0415,245.7572 218.6686,245.4807 218.3247,245.169 218.013,244.825 217.7365,244.4522 217.4978,244.0541 217.2994,243.6344 217.143,243.1974 217.0302,242.7471 216.9621,242.288 216.9393,241.8244 216.9621,241.3607 217.0302,240.9016 217.143,240.4513 217.2994,240.0143 217.4978,239.5947 217.7365,239.1965 218.013,238.8237 218.3247,238.4798 218.6686,238.168 219.0415,237.8915 219.4396,237.6529 219.8592,237.4544 220.2963,237.2981 220.7465,237.1853 221.2057,237.1172 221.6693,237.0944 222.1329,237.1172 222.5921,237.1853 223.0423,237.2981 223.4794,237.4544 223.899,237.6529 224.2971,237.8915 224.67,238.168 225.0139,238.4798 225.3256,238.8237 225.6021,239.1965 225.8408,239.5947 226.0392,240.0143 226.1956,240.4513 226.3084,240.9016 226.3765,241.3607 226.3993,241.8244 226.3765,242.288 226.3084,242.7471 226.1956,243.1974 226.0392,243.6344 225.8408,244.0541 225.6021,244.4522 225.3256,244.825 225.0139,245.169 224.67,245.4807 224.2971,245.7572 223.899,245.9958 223.4794,246.1943 223.0423,246.3507 222.5921,246.4634 222.1329,246.5316 221.6693,246.5543 221.2057,246.5316 220.7465,246.4634 220.2963,246.3507"/>
    <polygon points="214.7006,246.5606 214.857,246.9977 214.9698,247.4479 215.0379,247.9071 215.0607,248.3707 215.0379,248.8343 214.9698,249.2935 214.857,249.7437 214.7006,250.1808 214.5022,250.6004 214.2635,250.9985 213.987,251.3714 213.6753,251.7153 213.3314,252.027 212.9585,252.3035 212.5604,252.5422 212.1408,252.7406 211.7037,252.897 211.2535,253.0098 210.7943,253.0779 210.3307,253.1007 209.8671,253.0779 209.4079,253.0098 208.9577,252.897 208.5206,252.7406 208.101,252.5422 207.7029,252.3035 207.33,252.027 206.9861,251.7153 206.6744,251.3714 206.3979,250.9985 206.1592,250.6004 205.9608,250.1808 205.8044,249.7437 205.6916,249.2935 205.6235,248.8343 205.6007,248.3707 205.6235,247.9071 205.6916,247.4479 205.8044,246.9977 205.9608,246.5606 206.1592,246.141 206.3979,245.7429 206.6744,245.37 206.9861,245.0261 207.33,244.7144 207.7029,244.4379 208.101,244.1992 208.5206,244.0008 208.9577,243.8444 209.4079,243.7316 209.8671,243.6635 210.3307,243.6407 210.7943,243.6635 211.2535,243.7316 211.7037,243.8444 212.1408,244.0008 212.5604,244.1992 212.9585,244.4379 213.3314,244.7144 213.6753,245.0261 213.987,245.37 214.2635,245.7429 214.5022,246.141"/>
    <polygon points="209.8671,230.5708 209.4079,230.6389 208.9577,230.7517 208.5206,230.9081 208.101,231.1066 207.7029,231.3452 207.33,231.6217 206.9861,231.9334 206.6744,232.2774 206.3979,232.6502 206.1592,233.0483 205.9608,233.4679 205.8044,233.905 205.6916,234.3553 205.6235,234.8144 205.6007,235.278 205.6235,235.7416 205.6916,236.2008 205.8044,236.6511 205.9608,237.0881 206.1592,237.5077 206.3979,237.9059 206.6744,238.2787 206.9861,238.6226 207.33,238.9343 207.7029,239.2109 208.101,239.4495 208.5206,239.648 208.9577,239.8043 209.4079,239.9171 209.8671,239.9852 210.3307,240.008 210.7943,239.9852 211.2535,239.9171 211.7037,239.8043 212.1408,239.648 212.5604,239.4495 212.9585,239.2109 213.3314,238.9343 213.6753,238.6226 213.987,238.2787 214.2635,237.9059 214.5022,237.5077 214.7006,237.0881 214.857,236.6511 214.9698,236.2008 215.0379,235.7416 215.0607,235.278 215.0379,234.8144 214.9698,234.3553 214.857,233.905 214.7006,233.4679 214.5022,233.0483 214.2635,232.6502 213.987,232.2774 213.6753,231.9334 213.3314,231.6217 212.9585,231.3452 212.5604,231.1066 212.1408,230.9081 211.7037,230.7517 211.2535,230.6389 210.7943,230.5708 210.3307,230.5481"/>
  </g>
</svg>
