<?xml version="1.0" encoding="utf-8" ?>
<svg xmlns="http://www.w3.org/2000/svg" xmlns:cc="http://creativecommons.org/ns" xmlns:dc="http://purl.org/dc/elements/1.1/" xmlns:ev="http://www.w3.org/2001/xml-events" xmlns:inkscape="http://www.inkscape.org/namespaces/inkscape" xmlns:rdf="http://www.w3.org/1999/02/22-rdf-syntax-ns" xmlns:sodipodi="http://sodipodi.sourceforge.net/DTD/sodipodi-0.dtd" xmlns:xlink="http://www.w3.org/1999/xlink" baseProfile="tiny" height="15.875cm" version="1.2" viewBox="0 0 432.0 600.0" width="11.43cm">
  <metadata>
    <rdf:RDF>
      <cc:Work>
        <dc:format>image/svg+xml</dc:format>
        <dc:source>vsk save -s 198 -c hex-grid/config/bubble-coasters-2.json /Users/tobin/src/fabian/plotting/fabian-plotting/hex-grid/sketch_hex_grid.py</dc:source>
        <dc:date>2023-11-04T10:32:59.935485</dc:date>
      </cc:Work>
    </rdf:RDF>
  </metadata>
  <defs/>
  <g fill="none" id="layer1" inkscape:groupmode="layer" inkscape:label="1" stroke="#000000" stroke-width="0.7559" style="display:inline">
    <polygon points="181.9843,155.2652 182.4479,155.288 182.907,155.3561 183.3573,155.4689 183.7943,155.6253 184.2139,155.8237 184.6121,156.0624 184.9849,156.3389 185.3288,156.6506 185.6406,156.9945 185.9171,157.3674 186.1557,157.7655 186.3542,158.1851 186.5106,158.6221 186.6233,159.0724 186.6914,159.5316 186.7142,159.9952 186.6914,160.4588 186.6233,160.918 186.5106,161.3682 186.3542,161.8053 186.1557,162.2249 185.9171,162.623 185.6406,162.9959 185.3288,163.3398 184.9849,163.6515 184.6121,163.928 184.2139,164.1667 183.7943,164.3651 183.3573,164.5215 182.907,164.6343 182.4479,164.7024 181.9843,164.7252 181.5206,164.7024 181.0615,164.6343 180.6112,164.5215 180.1742,164.3651 179.7546,164.1667 179.3564,163.928 178.9836,163.6515 178.6397,163.3398 178.3279,162.9959 178.0514,162.623 177.8128,162.2249 177.6143,161.8053 177.458,161.3682 177.3452,160.918 177.2771,160.4588 177.2543,159.9952 177.2771,159.5316 177.3452,159.0724 177.458,158.6221 177.6143,158.1851 177.8128,157.7655 178.0514,157.3674 178.3279,156.9945 178.6397,156.6506 178.9836,156.3389 179.3564,156.0624 179.7546,155.8237 180.1742,155.6253 180.6112,155.4689 181.0615,155.3561 181.5206,155.288"/>
    <polygon points="182.907,177.7269 182.4479,177.7951 181.9843,177.8178 181.5206,177.7951 181.0615,177.7269 180.6112,177.6142 180.1742,177.4578 179.7546,177.2593 179.3564,177.0207 178.9836,176.7442 178.6397,176.4325 178.3279,176.0885 178.0514,175.7157 177.8128,175.3175 177.6143,174.8979 177.458,174.4609 177.3452,174.0106 177.2771,173.5515 177.2543,173.0879 177.2771,172.6242 177.3452,172.1651 177.458,171.7148 177.6143,171.2778 177.8128,170.8582 178.0514,170.46 178.3279,170.0872 178.6397,169.7433 178.9836,169.4315 179.3564,169.155 179.7546,168.9164 180.1742,168.7179 180.6112,168.5616 181.0615,168.4488 181.5206,168.3807 181.9843,168.3579 182.4479,168.3807 182.907,168.4488 183.3573,168.5616 183.7943,168.7179 184.2139,168.9164 184.6121,169.155 184.9849,169.4315 185.3288,169.7433 185.6406,170.0872 185.9171,170.46 186.1557,170.8582 186.3542,171.2778 186.5106,171.7148 186.6233,172.1651 186.6914,172.6242 186.7142,173.0879 186.6914,173.5515 186.6233,174.0106 186.5106,174.4609 186.3542,174.8979 186.1557,175.3175 185.9171,175.7157 185.6406,176.0885 185.3288,176.4325 184.9849,176.7442 184.6121,177.0207 184.2139,177.2593 183.7943,177.4578 183.3573,177.6142"/>
    <polygon points="182.4479,181.4733 182.907,181.5414 183.3573,181.6542 183.7943,181.8106 184.2139,182.0091 184.6121,182.2477 184.9849,182.5242 185.3288,182.8359 185.6406,183.1799 185.9171,183.5527 186.1557,183.9508 186.3542,184.3704 186.5106,184.8075 186.6233,185.2578 186.6914,185.7169 186.7142,186.1805 186.6914,186.6441 186.6233,187.1033 186.5106,187.5536 186.3542,187.9906 186.1557,188.4102 185.9171,188.8084 185.6406,189.1812 185.3288,189.5251 184.9849,189.8368 184.6121,190.1134 184.2139,190.352 183.7943,190.5504 183.3573,190.7068 182.907,190.8196 182.4479,190.8877 181.9843,190.9105 181.5206,190.8877 181.0615,190.8196 180.6112,190.7068 180.1742,190.5504 179.7546,190.352 179.3564,190.1134 178.9836,189.8368 178.6397,189.5251 178.3279,189.1812 178.0514,188.8084 177.8128,188.4102 177.6143,187.9906 177.458,187.5536 177.3452,187.1033 177.2771,186.6441 177.2543,186.1805 177.2771,185.7169 177.3452,185.2578 177.458,184.8075 177.6143,184.3704 177.8128,183.9508 178.0514,183.5527 178.3279,183.1799 178.6397,182.8359 178.9836,182.5242 179.3564,182.2477 179.7546,182.0091 180.1742,181.8106 180.6112,181.6542 181.0615,181.5414 181.5206,181.4733 181.9843,181.4506"/>
    <polygon points="172.0187,184.1605 171.5684,184.2733 171.1093,184.3414 170.6457,184.3642 170.1821,184.3414 169.7229,184.2733 169.2726,184.1605 168.8356,184.0041 168.416,183.8057 168.0178,183.567 167.645,183.2905 167.3011,182.9788 166.9894,182.6349 166.7128,182.262 166.4742,181.8639 166.2757,181.4443 166.1194,181.0072 166.0066,180.557 165.9385,180.0978 165.9157,179.6342 165.9385,179.1706 166.0066,178.7114 166.1194,178.2612 166.2757,177.8241 166.4742,177.4045 166.7128,177.0064 166.9894,176.6335 167.3011,176.2896 167.645,175.9779 168.0178,175.7014 168.416,175.4627 168.8356,175.2643 169.2726,175.1079 169.7229,174.9951 170.1821,174.927 170.6457,174.9042 171.1093,174.927 171.5684,174.9951 172.0187,175.1079 172.4558,175.2643 172.8754,175.4627 173.2735,175.7014 173.6463,175.9779 173.9903,176.2896 174.302,176.6335 174.5785,177.0064 174.8171,177.4045 175.0156,177.8241 175.172,178.2612 175.2848,178.7114 175.3529,179.1706 175.3756,179.6342 175.3529,180.0978 175.2848,180.557 175.172,181.0072 175.0156,181.4443 174.8171,181.8639 174.5785,182.262 174.302,182.6349 173.9903,182.9788 173.6463,183.2905 173.2735,183.567 172.8754,183.8057 172.4558,184.0041"/>
    <polygon points="179.7546,195.1017 179.3564,195.3404 178.9836,195.6169 178.6397,195.9286 178.3279,196.2725 178.0514,196.6454 177.8128,197.0435 177.6143,197.4631 177.458,197.9002 177.3452,198.3504 177.2771,198.8096 177.2543,199.2732 177.2771,199.7368 177.3452,200.196 177.458,200.6462 177.6143,201.0833 177.8128,201.5029 178.0514,201.901 178.3279,202.2739 178.6397,202.6178 178.9836,202.9295 179.3564,203.206 179.7546,203.4447 180.1742,203.6431 180.6112,203.7995 181.0615,203.9123 181.5206,203.9804 181.9843,204.0032 182.4479,203.9804 182.907,203.9123 183.3573,203.7995 183.7943,203.6431 184.2139,203.4447 184.6121,203.206 184.9849,202.9295 185.3288,202.6178 185.6406,202.2739 185.9171,201.901 186.1557,201.5029 186.3542,201.0833 186.5106,200.6462 186.6233,200.196 186.6914,199.7368 186.7142,199.2732 186.6914,198.8096 186.6233,198.3504 186.5106,197.9002 186.3542,197.4631 186.1557,197.0435 185.9171,196.6454 185.6406,196.2725 185.3288,195.9286 184.9849,195.6169 184.6121,195.3404 184.2139,195.1017 183.7943,194.9033 183.3573,194.7469 182.907,194.6341 182.4479,194.566 181.9843,194.5432 181.5206,194.566 181.0615,194.6341 180.6112,194.7469 180.1742,194.9033"/>
    <polygon points="166.7128,195.3547 166.9894,195.7275 167.3011,196.0715 167.645,196.3832 168.0178,196.6597 168.416,196.8983 168.8356,197.0968 169.2726,197.2532 169.7229,197.3659 170.1821,197.4341 170.6457,197.4568 171.1093,197.4341 171.5684,197.3659 172.0187,197.2532 172.4558,197.0968 172.8754,196.8983 173.2735,196.6597 173.6463,196.3832 173.9903,196.0715 174.302,195.7275 174.5785,195.3547 174.8171,194.9566 175.0156,194.5369 175.172,194.0999 175.2848,193.6496 175.3529,193.1905 175.3756,192.7269 175.3529,192.2632 175.2848,191.8041 175.172,191.3538 175.0156,190.9168 174.8171,190.4972 174.5785,190.099 174.302,189.7262 173.9903,189.3823 173.6463,189.0705 173.2735,188.794 172.8754,188.5554 172.4558,188.3569 172.0187,188.2006 171.5684,188.0878 171.1093,188.0197 170.6457,187.9969 170.1821,188.0197 169.7229,188.0878 169.2726,188.2006 168.8356,188.3569 168.416,188.5554 168.0178,188.794 167.645,189.0705 167.3011,189.3823 166.9894,189.7262 166.7128,190.099 166.4742,190.4972 166.2757,190.9168 166.1194,191.3538 166.0066,191.8041 165.9385,192.2632 165.9157,192.7269 165.9385,193.1905 166.0066,193.6496 166.1194,194.0999 166.2757,194.5369 166.4742,194.9566"/>
    <polygon points="166.0066,204.8968 166.1194,204.4465 166.2757,204.0094 166.4742,203.5898 166.7128,203.1917 166.9894,202.8189 167.3011,202.4749 167.645,202.1632 168.0178,201.8867 168.416,201.6481 168.8356,201.4496 169.2726,201.2932 169.7229,201.1804 170.1821,201.1123 170.6457,201.0896 171.1093,201.1123 171.5684,201.1804 172.0187,201.2932 172.4558,201.4496 172.8754,201.6481 173.2735,201.8867 173.6463,202.1632 173.9903,202.4749 174.302,202.8189 174.5785,203.1917 174.8171,203.5898 175.0156,204.0094 175.172,204.4465 175.2848,204.8968 175.3529,205.3559 175.3756,205.8195 175.3529,206.2831 175.2848,206.7423 175.172,207.1926 175.0156,207.6296 174.8171,208.0492 174.5785,208.4474 174.302,208.8202 173.9903,209.1641 173.6463,209.4758 173.2735,209.7524 172.8754,209.991 172.4558,210.1894 172.0187,210.3458 171.5684,210.4586 171.1093,210.5267 170.6457,210.5495 170.1821,210.5267 169.7229,210.4586 169.2726,210.3458 168.8356,210.1894 168.416,209.991 168.0178,209.7524 167.645,209.4758 167.3011,209.1641 166.9894,208.8202 166.7128,208.4474 166.4742,208.0492 166.2757,207.6296 166.1194,207.1926 166.0066,206.7423 165.9385,206.2831 165.9157,205.8195 165.9385,205.3559"/>
    <polygon points="157.934,203.7995 157.497,203.6431 157.0774,203.4447 156.6793,203.206 156.3064,202.9295 155.9625,202.6178 155.6508,202.2739 155.3743,201.901 155.1356,201.5029 154.9372,201.0833 154.7808,200.6462 154.668,200.196 154.5999,199.7368 154.5771,199.2732 154.5999,198.8096 154.668,198.3504 154.7808,197.9002 154.9372,197.4631 155.1356,197.0435 155.3743,196.6454 155.6508,196.2725 155.9625,195.9286 156.3064,195.6169 156.6793,195.3404 157.0774,195.1017 157.497,194.9033 157.934,194.7469 158.3843,194.6341 158.8435,194.566 159.3071,194.5432 159.7707,194.566 160.2299,194.6341 160.6801,194.7469 161.1172,194.9033 161.5368,195.1017 161.9349,195.3404 162.3077,195.6169 162.6517,195.9286 162.9634,196.2725 163.2399,196.6454 163.4786,197.0435 163.677,197.4631 163.8334,197.9002 163.9462,198.3504 164.0143,198.8096 164.0371,199.2732 164.0143,199.7368 163.9462,200.196 163.8334,200.6462 163.677,201.0833 163.4786,201.5029 163.2399,201.901 162.9634,202.2739 162.6517,202.6178 162.3077,202.9295 161.9349,203.206 161.5368,203.4447 161.1172,203.6431 160.6801,203.7995 160.2299,203.9123 159.7707,203.9804 159.3071,204.0032 158.8435,203.9804 158.3843,203.9123"/>
    <polygon points="144.0357,203.1917 143.797,203.5898 143.5986,204.0094 143.4422,204.4465 143.3294,204.8968 143.2613,205.3559 143.2385,205.8195 143.2613,206.2831 143.3294,206.7423 143.4422,207.1926 143.5986,207.6296 143.797,208.0492 144.0357,208.4474 144.3122,208.8202 144.6239,209.1641 144.9678,209.4758 145.3407,209.7524 145.7388,209.991 146.1584,210.1894 146.5955,210.3458 147.0457,210.4586 147.5049,210.5267 147.9685,210.5495 148.4321,210.5267 148.8913,210.4586 149.3415,210.3458 149.7786,210.1894 150.1982,209.991 150.5963,209.7524 150.9692,209.4758 151.3131,209.1641 151.6248,208.8202 151.9013,208.4474 152.14,208.0492 152.3384,207.6296 152.4948,207.1926 152.6076,206.7423 152.6757,206.2831 152.6985,205.8195 152.6757,205.3559 152.6076,204.8968 152.4948,204.4465 152.3384,204.0094 152.14,203.5898 151.9013,203.1917 151.6248,202.8189 151.3131,202.4749 150.9692,202.1632 150.5963,201.8867 150.1982,201.6481 149.7786,201.4496 149.3415,201.2932 148.8913,201.1804 148.4321,201.1123 147.9685,201.0896 147.5049,201.1123 147.0457,201.1804 146.5955,201.2932 146.1584,201.4496 145.7388,201.6481 145.3407,201.8867 144.9678,202.1632 144.6239,202.4749 144.3122,202.8189"/>
    <polygon points="136.1663,217.0731 136.6299,217.0958 137.0935,217.0731 137.5527,217.0049 138.003,216.8922 138.44,216.7358 138.8596,216.5373 139.2578,216.2987 139.6306,216.0222 139.9745,215.7105 140.2862,215.3665 140.5627,214.9937 140.8014,214.5956 140.9998,214.1759 141.1562,213.7389 141.269,213.2886 141.3371,212.8295 141.3599,212.3659 141.3371,211.9022 141.269,211.4431 141.1562,210.9928 140.9998,210.5558 140.8014,210.1362 140.5627,209.738 140.2862,209.3652 139.9745,209.0213 139.6306,208.7095 139.2578,208.433 138.8596,208.1944 138.44,207.9959 138.003,207.8396 137.5527,207.7268 137.0935,207.6587 136.6299,207.6359 136.1663,207.6587 135.7071,207.7268 135.2569,207.8396 134.8198,207.9959 134.4002,208.1944 134.0021,208.433 133.6293,208.7095 133.2853,209.0213 132.9736,209.3652 132.6971,209.738 132.4585,210.1362 132.26,210.5558 132.1036,210.9928 131.9908,211.4431 131.9227,211.9022 131.8999,212.3659 131.9227,212.8295 131.9908,213.2886 132.1036,213.7389 132.26,214.1759 132.4585,214.5956 132.6971,214.9937 132.9736,215.3665 133.2853,215.7105 133.6293,216.0222 134.0021,216.2987 134.4002,216.5373 134.8198,216.7358 135.2569,216.8922 135.7071,217.0049"/>
    <polygon points="140.8014,227.6882 140.9998,227.2686 141.1562,226.8316 141.269,226.3813 141.3371,225.9221 141.3599,225.4585 141.3371,224.9949 141.269,224.5358 141.1562,224.0855 140.9998,223.6484 140.8014,223.2288 140.5627,222.8307 140.2862,222.4579 139.9745,222.1139 139.6306,221.8022 139.2578,221.5257 138.8596,221.2871 138.44,221.0886 138.003,220.9322 137.5527,220.8194 137.0935,220.7513 136.6299,220.7286 136.1663,220.7513 135.7071,220.8194 135.2569,220.9322 134.8198,221.0886 134.4002,221.2871 134.0021,221.5257 133.6293,221.8022 133.2853,222.1139 132.9736,222.4579 132.6971,222.8307 132.4585,223.2288 132.26,223.6484 132.1036,224.0855 131.9908,224.5358 131.9227,224.9949 131.8999,225.4585 131.9227,225.9221 131.9908,226.3813 132.1036,226.8316 132.26,227.2686 132.4585,227.6882 132.6971,228.0864 132.9736,228.4592 133.2853,228.8031 133.6293,229.1148 134.0021,229.3914 134.4002,229.63 134.8198,229.8285 135.2569,229.9848 135.7071,230.0976 136.1663,230.1657 136.6299,230.1885 137.0935,230.1657 137.5527,230.0976 138.003,229.9848 138.44,229.8285 138.8596,229.63 139.2578,229.3914 139.6306,229.1148 139.9745,228.8031 140.2862,228.4592 140.5627,228.0864"/>
    <polygon points="152.4948,217.5392 152.6076,217.9894 152.6757,218.4486 152.6985,218.9122 152.6757,219.3758 152.6076,219.835 152.4948,220.2852 152.3384,220.7223 152.14,221.1419 151.9013,221.54 151.6248,221.9129 151.3131,222.2568 150.9692,222.5685 150.5963,222.845 150.1982,223.0837 149.7786,223.2821 149.3415,223.4385 148.8913,223.5513 148.4321,223.6194 147.9685,223.6422 147.5049,223.6194 147.0457,223.5513 146.5955,223.4385 146.1584,223.2821 145.7388,223.0837 145.3407,222.845 144.9678,222.5685 144.6239,222.2568 144.3122,221.9129 144.0357,221.54 143.797,221.1419 143.5986,220.7223 143.4422,220.2852 143.3294,219.835 143.2613,219.3758 143.2385,218.9122 143.2613,218.4486 143.3294,217.9894 143.4422,217.5392 143.5986,217.1021 143.797,216.6825 144.0357,216.2844 144.3122,215.9115 144.6239,215.5676 144.9678,215.2559 145.3407,214.9794 145.7388,214.7407 146.1584,214.5423 146.5955,214.3859 147.0457,214.2731 147.5049,214.205 147.9685,214.1822 148.4321,214.205 148.8913,214.2731 149.3415,214.3859 149.7786,214.5423 150.1982,214.7407 150.5963,214.9794 150.9692,215.2559 151.3131,215.5676 151.6248,215.9115 151.9013,216.2844 152.14,216.6825 152.3384,217.1021"/>
    <polygon points="156.8218,222.629 157.771,222.06 158.7714,221.5869 159.8133,221.2141 160.8867,220.9452 161.9813,220.7829 163.0866,220.7286 164.1919,220.7829 165.2865,220.9452 166.36,221.2141 167.4019,221.5869 168.4022,222.06 169.3514,222.629 170.2402,223.2882 171.0602,224.0313 171.8033,224.8512 172.4625,225.7401 173.0314,226.6892 173.5046,227.6896 173.8774,228.7315 174.1462,229.805 174.3086,230.8996 174.3629,232.0049 174.3086,233.1101 174.1462,234.2048 173.8774,235.2782 173.5046,236.3201 173.0314,237.3205 172.4625,238.2696 171.8033,239.1585 171.0602,239.9784 170.2402,240.7216 169.3514,241.3808 168.4022,241.9497 167.4019,242.4228 166.36,242.7956 165.2865,243.0645 164.1919,243.2269 163.0866,243.2812 161.9813,243.2269 160.8867,243.0645 159.8133,242.7956 158.7714,242.4228 157.771,241.9497 156.8218,241.3808 155.933,240.7216 155.1131,239.9784 154.3699,239.1585 153.7107,238.2696 153.1418,237.3205 152.6687,236.3201 152.2959,235.2782 152.027,234.2048 151.8646,233.1101 151.8103,232.0049 151.8646,230.8996 152.027,229.805 152.2959,228.7315 152.6687,227.6896 153.1418,226.6892 153.7107,225.7401 154.3699,224.8512 155.1131,224.0313 155.933,223.2882"/>
    <polygon points="176.3879,225.177 175.819,224.2278 175.3458,223.2274 174.973,222.1855 174.7041,221.1121 174.5418,220.0175 174.4875,218.9122 174.5418,217.8069 174.7041,216.7123 174.973,215.6389 175.3458,214.5969 175.819,213.5966 176.3879,212.6474 177.0471,211.7586 177.7902,210.9386 178.6102,210.1955 179.499,209.5363 180.4482,208.9674 181.4485,208.4942 182.4904,208.1214 183.5639,207.8526 184.6585,207.6902 185.7638,207.6359 186.8691,207.6902 187.9637,207.8526 189.0371,208.1214 190.079,208.4942 191.0794,208.9674 192.0286,209.5363 192.9174,210.1955 193.7373,210.9386 194.4805,211.7586 195.1397,212.6474 195.7086,213.5966 196.1817,214.5969 196.5545,215.6389 196.8234,216.7123 196.9858,217.8069 197.0401,218.9122 196.9858,220.0175 196.8234,221.1121 196.5545,222.1855 196.1817,223.2274 195.7086,224.2278 195.1397,225.177 194.4805,226.0658 193.7373,226.8857 192.9174,227.6289 192.0286,228.2881 191.0794,228.857 190.079,229.3301 189.0371,229.7029 187.9637,229.9718 186.8691,230.1342 185.7638,230.1885 184.6585,230.1342 183.5639,229.9718 182.4904,229.7029 181.4485,229.3301 180.4482,228.857 179.499,228.2881 178.6102,227.6289 177.7902,226.8857 177.0471,226.0658"/>
    <polygon points="193.3228,233.8212 195.7114,233.9386 198.077,234.2895 200.3968,234.8705 202.6484,235.6762 204.8103,236.6987 206.8615,237.9281 208.7823,239.3527 210.5543,240.9587 212.1603,242.7307 213.5849,244.6515 214.8144,246.7027 215.8368,248.8646 216.6425,251.1163 217.2236,253.436 217.5745,255.8016 217.6918,258.1902 217.5745,260.5788 217.2236,262.9443 216.6425,265.2641 215.8368,267.5158 214.8144,269.6776 213.5849,271.7289 212.1603,273.6497 210.5543,275.4217 208.7823,277.0277 206.8615,278.4523 204.8103,279.6817 202.6484,280.7042 200.3968,281.5098 198.077,282.0909 195.7114,282.4418 193.3228,282.5592 190.9343,282.4418 188.5687,282.0909 186.2489,281.5098 183.9972,280.7042 181.8354,279.6817 179.7842,278.4523 177.8633,277.0277 176.0914,275.4217 174.4854,273.6497 173.0608,271.7289 171.8313,269.6776 170.8088,267.5158 170.0032,265.2641 169.4221,262.9443 169.0712,260.5788 168.9539,258.1902 169.0712,255.8016 169.4221,253.436 170.0032,251.1163 170.8088,248.8646 171.8313,246.7027 173.0608,244.6515 174.4854,242.7307 176.0914,240.9587 177.8633,239.3527 179.7842,237.9281 181.8354,236.6987 183.9972,235.6762 186.2489,234.8705 188.5687,234.2895 190.9343,233.9386"/>
    <polygon points="209.0313,214.1759 208.8329,214.5956 208.5942,214.9937 208.3177,215.3665 208.006,215.7105 207.6621,216.0222 207.2892,216.2987 206.8911,216.5373 206.4715,216.7358 206.0345,216.8922 205.5842,217.0049 205.125,217.0731 204.6614,217.0958 204.1978,217.0731 203.7386,217.0049 203.2884,216.8922 202.8513,216.7358 202.4317,216.5373 202.0336,216.2987 201.6608,216.0222 201.3168,215.7105 201.0051,215.3665 200.7286,214.9937 200.49,214.5956 200.2915,214.1759 200.1351,213.7389 200.0223,213.2886 199.9542,212.8295 199.9314,212.3659 199.9542,211.9022 200.0223,211.4431 200.1351,210.9928 200.2915,210.5558 200.49,210.1362 200.7286,209.738 201.0051,209.3652 201.3168,209.0213 201.6608,208.7095 202.0336,208.433 202.4317,208.1944 202.8513,207.9959 203.2884,207.8396 203.7386,207.7268 204.1978,207.6587 204.6614,207.6359 205.125,207.6587 205.5842,207.7268 206.0345,207.8396 206.4715,207.9959 206.8911,208.1944 207.2892,208.433 207.6621,208.7095 208.006,209.0213 208.3177,209.3652 208.5942,209.738 208.8329,210.1362 209.0313,210.5558 209.1877,210.9928 209.3005,211.4431 209.3686,211.9022 209.3914,212.3659 209.3686,212.8295 209.3005,213.2886 209.1877,213.7389"/>
    <polygon points="227.3386,220.7286 227.8022,220.7513 228.2614,220.8194 228.7116,220.9322 229.1487,221.0886 229.5683,221.2871 229.9664,221.5257 230.3392,221.8022 230.6832,222.1139 230.9949,222.4579 231.2714,222.8307 231.51,223.2288 231.7085,223.6484 231.8649,224.0855 231.9777,224.5358 232.0458,224.9949 232.0686,225.4585 232.0458,225.9221 231.9777,226.3813 231.8649,226.8316 231.7085,227.2686 231.51,227.6882 231.2714,228.0864 230.9949,228.4592 230.6832,228.8031 230.3392,229.1148 229.9664,229.3914 229.5683,229.63 229.1487,229.8285 228.7116,229.9848 228.2614,230.0976 227.8022,230.1657 227.3386,230.1885 226.875,230.1657 226.4158,230.0976 225.9655,229.9848 225.5285,229.8285 225.1089,229.63 224.7108,229.3914 224.3379,229.1148 223.994,228.8031 223.6823,228.4592 223.4058,228.0864 223.1671,227.6882 222.9687,227.2686 222.8123,226.8316 222.6995,226.3813 222.6314,225.9221 222.6086,225.4585 222.6314,224.9949 222.6995,224.5358 222.8123,224.0855 222.9687,223.6484 223.1671,223.2288 223.4058,222.8307 223.6823,222.4579 223.994,222.1139 224.3379,221.8022 224.7108,221.5257 225.1089,221.2871 225.5285,221.0886 225.9655,220.9322 226.4158,220.8194 226.875,220.7513"/>
    <polygon points="263.9822,228.072 264.355,228.3485 264.6989,228.6603 265.0106,229.0042 265.2872,229.377 265.5258,229.7752 265.7243,230.1948 265.8806,230.6318 265.9934,231.0821 266.0615,231.5412 266.0843,232.0049 266.0615,232.4685 265.9934,232.9276 265.8806,233.3779 265.7243,233.8149 265.5258,234.2346 265.2872,234.6327 265.0106,235.0055 264.6989,235.3495 264.355,235.6612 263.9822,235.9377 263.584,236.1763 263.1644,236.3748 262.7274,236.5312 262.2771,236.6439 261.8179,236.7121 261.3543,236.7348 260.8907,236.7121 260.4316,236.6439 259.9813,236.5312 259.5442,236.3748 259.1246,236.1763 258.7265,235.9377 258.3537,235.6612 258.0097,235.3495 257.698,235.0055 257.4215,234.6327 257.1829,234.2346 256.9844,233.8149 256.828,233.3779 256.7152,232.9276 256.6471,232.4685 256.6244,232.0049 256.6471,231.5412 256.7152,231.0821 256.828,230.6318 256.9844,230.1948 257.1829,229.7752 257.4215,229.377 257.698,229.0042 258.0097,228.6603 258.3537,228.3485 258.7265,228.072 259.1246,227.8334 259.5442,227.6349 259.9813,227.4786 260.4316,227.3658 260.8907,227.2977 261.3543,227.2749 261.8179,227.2977 262.2771,227.3658 262.7274,227.4786 263.1644,227.6349 263.584,227.8334"/>
    <polygon points="246.0829,235.9234 246.3594,235.5505 246.6712,235.2066 247.0151,234.8949 247.3879,234.6184 247.7861,234.3797 248.2057,234.1813 248.6427,234.0249 249.093,233.9121 249.5521,233.844 250.0157,233.8212 250.4794,233.844 250.9385,233.9121 251.3888,234.0249 251.8258,234.1813 252.2454,234.3797 252.6436,234.6184 253.0164,234.8949 253.3603,235.2066 253.6721,235.5505 253.9486,235.9234 254.1872,236.3215 254.3857,236.7411 254.542,237.1782 254.6548,237.6284 254.7229,238.0876 254.7457,238.5512 254.7229,239.0148 254.6548,239.474 254.542,239.9242 254.3857,240.3613 254.1872,240.7809 253.9486,241.179 253.6721,241.5519 253.3603,241.8958 253.0164,242.2075 252.6436,242.484 252.2454,242.7227 251.8258,242.9211 251.3888,243.0775 250.9385,243.1903 250.4794,243.2584 250.0157,243.2812 249.5521,243.2584 249.093,243.1903 248.6427,243.0775 248.2057,242.9211 247.7861,242.7227 247.3879,242.484 247.0151,242.2075 246.6712,241.8958 246.3594,241.5519 246.0829,241.179 245.8443,240.7809 245.6458,240.3613 245.4894,239.9242 245.3767,239.474 245.3086,239.0148 245.2858,238.5512 245.3086,238.0876 245.3767,237.6284 245.4894,237.1782 245.6458,236.7411 245.8443,236.3215"/>
    <polygon points="243.3773,253.8749 243.8505,252.8746 244.4194,251.9254 245.0786,251.0366 245.8217,250.2166 246.6417,249.4735 247.5305,248.8143 248.4797,248.2454 249.48,247.7722 250.5219,247.3994 251.5954,247.1306 252.69,246.9682 253.7953,246.9139 254.9005,246.9682 255.9952,247.1306 257.0686,247.3994 258.1105,247.7722 259.1109,248.2454 260.0601,248.8143 260.9489,249.4735 261.7688,250.2166 262.512,251.0366 263.1712,251.9254 263.7401,252.8746 264.2132,253.8749 264.586,254.9169 264.8549,255.9903 265.0173,257.0849 265.0716,258.1902 265.0173,259.2955 264.8549,260.3901 264.586,261.4635 264.2132,262.5054 263.7401,263.5058 263.1712,264.455 262.512,265.3438 261.7688,266.1637 260.9489,266.9069 260.0601,267.5661 259.1109,268.135 258.1105,268.6081 257.0686,268.9809 255.9952,269.2498 254.9005,269.4122 253.7953,269.4665 252.69,269.4122 251.5954,269.2498 250.5219,268.9809 249.48,268.6081 248.4797,268.135 247.5305,267.5661 246.6417,266.9069 245.8217,266.1637 245.0786,265.3438 244.4194,264.455 243.8505,263.5058 243.3773,262.5054 243.0045,261.4635 242.7356,260.3901 242.5733,259.2955 242.519,258.1902 242.5733,257.0849 242.7356,255.9903 243.0045,254.9169"/>
    <polygon points="220.0585,247.2974 219.8961,246.2028 219.8418,245.0975 219.8961,243.9923 220.0585,242.8976 220.3274,241.8242 220.7002,240.7823 221.1733,239.7819 221.7422,238.8327 222.4014,237.9439 223.1446,237.124 223.9645,236.3808 224.8533,235.7216 225.8025,235.1527 226.8029,234.6796 227.8448,234.3068 228.9182,234.0379 230.0128,233.8755 231.1181,233.8212 232.2234,233.8755 233.318,234.0379 234.3914,234.3068 235.4334,234.6796 236.4337,235.1527 237.3829,235.7216 238.2717,236.3808 239.0917,237.124 239.8348,237.9439 240.494,238.8327 241.0629,239.7819 241.5361,240.7823 241.9089,241.8242 242.1777,242.8976 242.3401,243.9923 242.3944,245.0975 242.3401,246.2028 242.1777,247.2974 241.9089,248.3709 241.5361,249.4128 241.0629,250.4131 240.494,251.3623 239.8348,252.2511 239.0917,253.0711 238.2717,253.8142 237.3829,254.4734 236.4337,255.0423 235.4334,255.5155 234.3914,255.8883 233.318,256.1572 232.2234,256.3195 231.1181,256.3738 230.0128,256.3195 228.9182,256.1572 227.8448,255.8883 226.8029,255.5155 225.8025,255.0423 224.8533,254.4734 223.9645,253.8142 223.1446,253.0711 222.4014,252.2511 221.7422,251.3623 221.1733,250.4131 220.7002,249.4128 220.3274,248.3709"/>
    <polygon points="223.1671,275.5995 223.4058,275.2014 223.6823,274.8285 223.994,274.4846 224.3379,274.1729 224.7108,273.8964 225.1089,273.6577 225.5285,273.4593 225.9655,273.3029 226.4158,273.1901 226.875,273.122 227.3386,273.0992 227.8022,273.122 228.2614,273.1901 228.7116,273.3029 229.1487,273.4593 229.5683,273.6577 229.9664,273.8964 230.3392,274.1729 230.6832,274.4846 230.9949,274.8285 231.2714,275.2014 231.51,275.5995 231.7085,276.0191 231.8649,276.4562 231.9777,276.9064 232.0458,277.3656 232.0686,277.8292 232.0458,278.2928 231.9777,278.752 231.8649,279.2022 231.7085,279.6393 231.51,280.0589 231.2714,280.457 230.9949,280.8299 230.6832,281.1738 230.3392,281.4855 229.9664,281.762 229.5683,282.0007 229.1487,282.1991 228.7116,282.3555 228.2614,282.4683 227.8022,282.5364 227.3386,282.5592 226.875,282.5364 226.4158,282.4683 225.9655,282.3555 225.5285,282.1991 225.1089,282.0007 224.7108,281.762 224.3379,281.4855 223.994,281.1738 223.6823,280.8299 223.4058,280.457 223.1671,280.0589 222.9687,279.6393 222.8123,279.2022 222.6995,278.752 222.6314,278.2928 222.6086,277.8292 222.6314,277.3656 222.6995,276.9064 222.8123,276.4562 222.9687,276.0191"/>
    <polygon points="220.7002,301.7835 220.3274,300.7415 220.0585,299.6681 219.8961,298.5735 219.8418,297.4682 219.8961,296.3629 220.0585,295.2683 220.3274,294.1949 220.7002,293.1529 221.1733,292.1526 221.7422,291.2034 222.4014,290.3146 223.1446,289.4946 223.9645,288.7515 224.8533,288.0923 225.8025,287.5234 226.8029,287.0502 227.8448,286.6774 228.9182,286.4086 230.0128,286.2462 231.1181,286.1919 232.2234,286.2462 233.318,286.4086 234.3914,286.6774 235.4334,287.0502 236.4337,287.5234 237.3829,288.0923 238.2717,288.7515 239.0917,289.4946 239.8348,290.3146 240.494,291.2034 241.0629,292.1526 241.5361,293.1529 241.9089,294.1949 242.1777,295.2683 242.3401,296.3629 242.3944,297.4682 242.3401,298.5735 242.1777,299.6681 241.9089,300.7415 241.5361,301.7835 241.0629,302.7838 240.494,303.733 239.8348,304.6218 239.0917,305.4417 238.2717,306.1849 237.3829,306.8441 236.4337,307.413 235.4334,307.8861 234.3914,308.2589 233.318,308.5278 232.2234,308.6902 231.1181,308.7445 230.0128,308.6902 228.9182,308.5278 227.8448,308.2589 226.8029,307.8861 225.8025,307.413 224.8533,306.8441 223.9645,306.1849 223.1446,305.4417 222.4014,304.6218 221.7422,303.733 221.1733,302.7838"/>
    <polygon points="241.5361,327.9688 241.0629,328.9691 240.494,329.9183 239.8348,330.8071 239.0917,331.6271 238.2717,332.3702 237.3829,333.0294 236.4337,333.5983 235.4334,334.0715 234.3914,334.4443 233.318,334.7132 232.2234,334.8755 231.1181,334.9298 230.0128,334.8755 228.9182,334.7132 227.8448,334.4443 226.8029,334.0715 225.8025,333.5983 224.8533,333.0294 223.9645,332.3702 223.1446,331.6271 222.4014,330.8071 221.7422,329.9183 221.1733,328.9691 220.7002,327.9688 220.3274,326.9269 220.0585,325.8534 219.8961,324.7588 219.8418,323.6535 219.8961,322.5483 220.0585,321.4536 220.3274,320.3802 220.7002,319.3383 221.1733,318.3379 221.7422,317.3888 222.4014,316.4999 223.1446,315.68 223.9645,314.9368 224.8533,314.2776 225.8025,313.7087 226.8029,313.2356 227.8448,312.8628 228.9182,312.5939 230.0128,312.4315 231.1181,312.3772 232.2234,312.4315 233.318,312.5939 234.3914,312.8628 235.4334,313.2356 236.4337,313.7087 237.3829,314.2776 238.2717,314.9368 239.0917,315.68 239.8348,316.4999 240.494,317.3888 241.0629,318.3379 241.5361,319.3383 241.9089,320.3802 242.1777,321.4536 242.3401,322.5483 242.3944,323.6535 242.3401,324.7588 242.1777,325.8534 241.9089,326.9269"/>
    <polygon points="246.6417,328.0295 247.5305,327.3703 248.4797,326.8014 249.48,326.3283 250.5219,325.9554 251.5954,325.6866 252.69,325.5242 253.7953,325.4699 254.9005,325.5242 255.9952,325.6866 257.0686,325.9554 258.1105,326.3283 259.1109,326.8014 260.0601,327.3703 260.9489,328.0295 261.7688,328.7726 262.512,329.5926 263.1712,330.4814 263.7401,331.4306 264.2132,332.4309 264.586,333.4729 264.8549,334.5463 265.0173,335.6409 265.0716,336.7462 265.0173,337.8515 264.8549,338.9461 264.586,340.0195 264.2132,341.0615 263.7401,342.0618 263.1712,343.011 262.512,343.8998 261.7688,344.7198 260.9489,345.4629 260.0601,346.1221 259.1109,346.691 258.1105,347.1641 257.0686,347.537 255.9952,347.8058 254.9005,347.9682 253.7953,348.0225 252.69,347.9682 251.5954,347.8058 250.5219,347.537 249.48,347.1641 248.4797,346.691 247.5305,346.1221 246.6417,345.4629 245.8217,344.7198 245.0786,343.8998 244.4194,343.011 243.8505,342.0618 243.3773,341.0615 243.0045,340.0195 242.7356,338.9461 242.5733,337.8515 242.519,336.7462 242.5733,335.6409 242.7356,334.5463 243.0045,333.4729 243.3773,332.4309 243.8505,331.4306 244.4194,330.4814 245.0786,329.5926 245.8217,328.7726"/>
    <polygon points="245.4894,305.3876 245.3767,304.9373 245.3086,304.4781 245.2858,304.0145 245.3086,303.5509 245.3767,303.0918 245.4894,302.6415 245.6458,302.2044 245.8443,301.7848 246.0829,301.3867 246.3594,301.0139 246.6712,300.6699 247.0151,300.3582 247.3879,300.0817 247.7861,299.8431 248.2057,299.6446 248.6427,299.4882 249.093,299.3754 249.5521,299.3073 250.0157,299.2846 250.4794,299.3073 250.9385,299.3754 251.3888,299.4882 251.8258,299.6446 252.2454,299.8431 252.6436,300.0817 253.0164,300.3582 253.3603,300.6699 253.6721,301.0139 253.9486,301.3867 254.1872,301.7848 254.3857,302.2044 254.542,302.6415 254.6548,303.0918 254.7229,303.5509 254.7457,304.0145 254.7229,304.4781 254.6548,304.9373 254.542,305.3876 254.3857,305.8246 254.1872,306.2442 253.9486,306.6424 253.6721,307.0152 253.3603,307.3591 253.0164,307.6708 252.6436,307.9474 252.2454,308.186 251.8258,308.3845 251.3888,308.5408 250.9385,308.6536 250.4794,308.7217 250.0157,308.7445 249.5521,308.7217 249.093,308.6536 248.6427,308.5408 248.2057,308.3845 247.7861,308.186 247.3879,307.9474 247.0151,307.6708 246.6712,307.3591 246.3594,307.0152 246.0829,306.6424 245.8443,306.2442 245.6458,305.8246"/>
    <polygon points="257.0686,295.1663 255.9952,295.4352 254.9005,295.5975 253.7953,295.6518 252.69,295.5975 251.5954,295.4352 250.5219,295.1663 249.48,294.7935 248.4797,294.3203 247.5305,293.7514 246.6417,293.0922 245.8217,292.3491 245.0786,291.5291 244.4194,290.6403 243.8505,289.6911 243.3773,288.6908 243.0045,287.6489 242.7356,286.5754 242.5733,285.4808 242.519,284.3755 242.5733,283.2703 242.7356,282.1756 243.0045,281.1022 243.3773,280.0603 243.8505,279.0599 244.4194,278.1107 245.0786,277.2219 245.8217,276.402 246.6417,275.6588 247.5305,274.9996 248.4797,274.4307 249.48,273.9576 250.5219,273.5848 251.5954,273.3159 252.69,273.1535 253.7953,273.0992 254.9005,273.1535 255.9952,273.3159 257.0686,273.5848 258.1105,273.9576 259.1109,274.4307 260.0601,274.9996 260.9489,275.6588 261.7688,276.402 262.512,277.2219 263.1712,278.1107 263.7401,279.0599 264.2132,280.0603 264.586,281.1022 264.8549,282.1756 265.0173,283.2703 265.0716,284.3755 265.0173,285.4808 264.8549,286.5754 264.586,287.6489 264.2132,288.6908 263.7401,289.6911 263.1712,290.6403 262.512,291.5291 261.7688,292.3491 260.9489,293.0922 260.0601,293.7514 259.1109,294.3203 258.1105,294.7935"/>
    <polygon points="274.503,312.7373 274.066,312.5809 273.6157,312.4681 273.1565,312.4 272.6929,312.3772 272.2293,312.4 271.7701,312.4681 271.3199,312.5809 270.8828,312.7373 270.4632,312.9357 270.0651,313.1744 269.6923,313.4509 269.3483,313.7626 269.0366,314.1065 268.7601,314.4794 268.5214,314.8775 268.323,315.2971 268.1666,315.7342 268.0538,316.1844 267.9857,316.6436 267.9629,317.1072 267.9857,317.5708 268.0538,318.03 268.1666,318.4802 268.323,318.9173 268.5214,319.3369 268.7601,319.735 269.0366,320.1079 269.3483,320.4518 269.6923,320.7635 270.0651,321.04 270.4632,321.2787 270.8828,321.4771 271.3199,321.6335 271.7701,321.7463 272.2293,321.8144 272.6929,321.8372 273.1565,321.8144 273.6157,321.7463 274.066,321.6335 274.503,321.4771 274.9226,321.2787 275.3207,321.04 275.6936,320.7635 276.0375,320.4518 276.3492,320.1079 276.6257,319.735 276.8644,319.3369 277.0628,318.9173 277.2192,318.4802 277.332,318.03 277.4001,317.5708 277.4229,317.1072 277.4001,316.6436 277.332,316.1844 277.2192,315.7342 277.0628,315.2971 276.8644,314.8775 276.6257,314.4794 276.3492,314.1065 276.0375,313.7626 275.6936,313.4509 275.3207,313.1744 274.9226,312.9357"/>
    <polygon points="273.1991,286.6774 272.1572,287.0502 271.1568,287.5234 270.2077,288.0923 269.3188,288.7515 268.4989,289.4946 267.7557,290.3146 267.0965,291.2034 266.5276,292.1526 266.0545,293.1529 265.6817,294.1949 265.4128,295.2683 265.2504,296.3629 265.1961,297.4682 265.2504,298.5735 265.4128,299.6681 265.6817,300.7415 266.0545,301.7835 266.5276,302.7838 267.0965,303.733 267.7557,304.6218 268.4989,305.4417 269.3188,306.1849 270.2077,306.8441 271.1568,307.413 272.1572,307.8861 273.1991,308.2589 274.2725,308.5278 275.3672,308.6902 276.4724,308.7445 277.5777,308.6902 278.6723,308.5278 279.7458,308.2589 280.7877,307.8861 281.7881,307.413 282.7372,306.8441 283.6261,306.1849 284.446,305.4417 285.1891,304.6218 285.8483,303.733 286.4173,302.7838 286.8904,301.7835 287.2632,300.7415 287.5321,299.6681 287.6944,298.5735 287.7487,297.4682 287.6944,296.3629 287.5321,295.2683 287.2632,294.1949 286.8904,293.1529 286.4173,292.1526 285.8483,291.2034 285.1891,290.3146 284.446,289.4946 283.6261,288.7515 282.7372,288.0923 281.7881,287.5234 280.7877,287.0502 279.7458,286.6774 278.6723,286.4086 277.5777,286.2462 276.4724,286.1919 275.3672,286.2462 274.2725,286.4086"/>
    <polygon points="275.6936,274.1729 275.3207,273.8964 274.9226,273.6577 274.503,273.4593 274.066,273.3029 273.6157,273.1901 273.1565,273.122 272.6929,273.0992 272.2293,273.122 271.7701,273.1901 271.3199,273.3029 270.8828,273.4593 270.4632,273.6577 270.0651,273.8964 269.6923,274.1729 269.3483,274.4846 269.0366,274.8285 268.7601,275.2014 268.5214,275.5995 268.323,276.0191 268.1666,276.4562 268.0538,276.9064 267.9857,277.3656 267.9629,277.8292 267.9857,278.2928 268.0538,278.752 268.1666,279.2022 268.323,279.6393 268.5214,280.0589 268.7601,280.457 269.0366,280.8299 269.3483,281.1738 269.6923,281.4855 270.0651,281.762 270.4632,282.0007 270.8828,282.1991 271.3199,282.3555 271.7701,282.4683 272.2293,282.5364 272.6929,282.5592 273.1565,282.5364 273.6157,282.4683 274.066,282.3555 274.503,282.1991 274.9226,282.0007 275.3207,281.762 275.6936,281.4855 276.0375,281.1738 276.3492,280.8299 276.6257,280.457 276.8644,280.0589 277.0628,279.6393 277.2192,279.2022 277.332,278.752 277.4001,278.2928 277.4229,277.8292 277.4001,277.3656 277.332,276.9064 277.2192,276.4562 277.0628,276.0191 276.8644,275.5995 276.6257,275.2014 276.3492,274.8285 276.0375,274.4846"/>
    <polygon points="316.2372,295.2918 315.8176,295.0933 315.4194,294.8547 315.0466,294.5782 314.7026,294.2665 314.3909,293.9225 314.1144,293.5497 313.8758,293.1516 313.6773,292.7319 313.5209,292.2949 313.4082,291.8446 313.34,291.3855 313.3173,290.9219 313.34,290.4582 313.4082,289.9991 313.5209,289.5488 313.6773,289.1118 313.8758,288.6922 314.1144,288.294 314.3909,287.9212 314.7026,287.5773 315.0466,287.2655 315.4194,286.989 315.8176,286.7504 316.2372,286.5519 316.6742,286.3956 317.1245,286.2828 317.5836,286.2147 318.0472,286.1919 318.5109,286.2147 318.97,286.2828 319.4203,286.3956 319.8573,286.5519 320.2769,286.7504 320.6751,286.989 321.0479,287.2655 321.3918,287.5773 321.7036,287.9212 321.9801,288.294 322.2187,288.6922 322.4172,289.1118 322.5735,289.5488 322.6863,289.9991 322.7544,290.4582 322.7772,290.9219 322.7544,291.3855 322.6863,291.8446 322.5735,292.2949 322.4172,292.7319 322.2187,293.1516 321.9801,293.5497 321.7036,293.9225 321.3918,294.2665 321.0479,294.5782 320.6751,294.8547 320.2769,295.0933 319.8573,295.2918 319.4203,295.4482 318.97,295.561 318.5109,295.6291 318.0472,295.6518 317.5836,295.6291 317.1245,295.561 316.6742,295.4482"/>
    <polygon points="313.5209,302.6415 313.6773,302.2044 313.8758,301.7848 314.1144,301.3867 314.3909,301.0139 314.7026,300.6699 315.0466,300.3582 315.4194,300.0817 315.8176,299.8431 316.2372,299.6446 316.6742,299.4882 317.1245,299.3754 317.5836,299.3073 318.0472,299.2846 318.5109,299.3073 318.97,299.3754 319.4203,299.4882 319.8573,299.6446 320.2769,299.8431 320.6751,300.0817 321.0479,300.3582 321.3918,300.6699 321.7036,301.0139 321.9801,301.3867 322.2187,301.7848 322.4172,302.2044 322.5735,302.6415 322.6863,303.0918 322.7544,303.5509 322.7772,304.0145 322.7544,304.4781 322.6863,304.9373 322.5735,305.3876 322.4172,305.8246 322.2187,306.2442 321.9801,306.6424 321.7036,307.0152 321.3918,307.3591 321.0479,307.6708 320.6751,307.9474 320.2769,308.186 319.8573,308.3845 319.4203,308.5408 318.97,308.6536 318.5109,308.7217 318.0472,308.7445 317.5836,308.7217 317.1245,308.6536 316.6742,308.5408 316.2372,308.3845 315.8176,308.186 315.4194,307.9474 315.0466,307.6708 314.7026,307.3591 314.3909,307.0152 314.1144,306.6424 313.8758,306.2442 313.6773,305.8246 313.5209,305.3876 313.4082,304.9373 313.34,304.4781 313.3173,304.0145 313.34,303.5509 313.4082,303.0918"/>
    <polygon points="308.5187,306.1909 308.9384,306.3894 309.3365,306.628 309.7093,306.9045 310.0533,307.2163 310.365,307.5602 310.6415,307.933 310.8801,308.3312 311.0786,308.7508 311.235,309.1878 311.3477,309.6381 311.4159,310.0972 311.4386,310.5609 311.4159,311.0245 311.3477,311.4836 311.235,311.9339 311.0786,312.3709 310.8801,312.7906 310.6415,313.1887 310.365,313.5615 310.0533,313.9055 309.7093,314.2172 309.3365,314.4937 308.9384,314.7323 308.5187,314.9308 308.0817,315.0872 307.6314,315.2 307.1723,315.2681 306.7087,315.2908 306.245,315.2681 305.7859,315.2 305.3356,315.0872 304.8986,314.9308 304.479,314.7323 304.0808,314.4937 303.708,314.2172 303.3641,313.9055 303.0523,313.5615 302.7758,313.1887 302.5372,312.7906 302.3387,312.3709 302.1824,311.9339 302.0696,311.4836 302.0015,311.0245 301.9787,310.5609 302.0015,310.0972 302.0696,309.6381 302.1824,309.1878 302.3387,308.7508 302.5372,308.3312 302.7758,307.933 303.0523,307.5602 303.3641,307.2163 303.708,306.9045 304.0808,306.628 304.479,306.3894 304.8986,306.1909 305.3356,306.0346 305.7859,305.9218 306.245,305.8537 306.7087,305.8309 307.1723,305.8537 307.6314,305.9218 308.0817,306.0346"/>
    <polygon points="298.3707,307.6708 297.9979,307.9474 297.5998,308.186 297.1802,308.3845 296.7431,308.5408 296.2929,308.6536 295.8337,308.7217 295.3701,308.7445 294.9065,308.7217 294.4473,308.6536 293.997,308.5408 293.56,308.3845 293.1404,308.186 292.7422,307.9474 292.3694,307.6708 292.0255,307.3591 291.7138,307.0152 291.4373,306.6424 291.1986,306.2442 291.0002,305.8246 290.8438,305.3876 290.731,304.9373 290.6629,304.4781 290.6401,304.0145 290.6629,303.5509 290.731,303.0918 290.8438,302.6415 291.0002,302.2044 291.1986,301.7848 291.4373,301.3867 291.7138,301.0139 292.0255,300.6699 292.3694,300.3582 292.7422,300.0817 293.1404,299.8431 293.56,299.6446 293.997,299.4882 294.4473,299.3754 294.9065,299.3073 295.3701,299.2846 295.8337,299.3073 296.2929,299.3754 296.7431,299.4882 297.1802,299.6446 297.5998,299.8431 297.9979,300.0817 298.3707,300.3582 298.7147,300.6699 299.0264,301.0139 299.3029,301.3867 299.5415,301.7848 299.74,302.2044 299.8964,302.6415 300.0092,303.0918 300.0773,303.5509 300.1001,304.0145 300.0773,304.4781 300.0092,304.9373 299.8964,305.3876 299.74,305.8246 299.5415,306.2442 299.3029,306.6424 299.0264,307.0152 298.7147,307.3591"/>
    <polygon points="293.997,321.6335 293.56,321.4771 293.1404,321.2787 292.7422,321.04 292.3694,320.7635 292.0255,320.4518 291.7138,320.1079 291.4373,319.735 291.1986,319.3369 291.0002,318.9173 290.8438,318.4802 290.731,318.03 290.6629,317.5708 290.6401,317.1072 290.6629,316.6436 290.731,316.1844 290.8438,315.7342 291.0002,315.2971 291.1986,314.8775 291.4373,314.4794 291.7138,314.1065 292.0255,313.7626 292.3694,313.4509 292.7422,313.1744 293.1404,312.9357 293.56,312.7373 293.997,312.5809 294.4473,312.4681 294.9065,312.4 295.3701,312.3772 295.8337,312.4 296.2929,312.4681 296.7431,312.5809 297.1802,312.7373 297.5998,312.9357 297.9979,313.1744 298.3707,313.4509 298.7147,313.7626 299.0264,314.1065 299.3029,314.4794 299.5415,314.8775 299.74,315.2971 299.8964,315.7342 300.0092,316.1844 300.0773,316.6436 300.1001,317.1072 300.0773,317.5708 300.0092,318.03 299.8964,318.4802 299.74,318.9173 299.5415,319.3369 299.3029,319.735 299.0264,320.1079 298.7147,320.4518 298.3707,320.7635 297.9979,321.04 297.5998,321.2787 297.1802,321.4771 296.7431,321.6335 296.2929,321.7463 295.8337,321.8144 295.3701,321.8372 294.9065,321.8144 294.4473,321.7463"/>
    <polygon points="281.4037,327.5864 281.0308,327.3098 280.6869,326.9981 280.3752,326.6542 280.0987,326.2814 279.86,325.8832 279.6616,325.4636 279.5052,325.0266 279.3924,324.5763 279.3243,324.1172 279.3015,323.6535 279.3243,323.1899 279.3924,322.7308 279.5052,322.2805 279.6616,321.8434 279.86,321.4238 280.0987,321.0257 280.3752,320.6529 280.6869,320.3089 281.0308,319.9972 281.4037,319.7207 281.8018,319.4821 282.2214,319.2836 282.6585,319.1272 283.1087,319.0144 283.5679,318.9463 284.0315,318.9236 284.4951,318.9463 284.9543,319.0144 285.4045,319.1272 285.8416,319.2836 286.2612,319.4821 286.6593,319.7207 287.0322,319.9972 287.3761,320.3089 287.6878,320.6529 287.9643,321.0257 288.203,321.4238 288.4014,321.8434 288.5578,322.2805 288.6706,322.7308 288.7387,323.1899 288.7615,323.6535 288.7387,324.1172 288.6706,324.5763 288.5578,325.0266 288.4014,325.4636 288.203,325.8832 287.9643,326.2814 287.6878,326.6542 287.3761,326.9981 287.0322,327.3098 286.6593,327.5864 286.2612,327.825 285.8416,328.0235 285.4045,328.1798 284.9543,328.2926 284.4951,328.3607 284.0315,328.3835 283.5679,328.3607 283.1087,328.2926 282.6585,328.1798 282.2214,328.0235 281.8018,327.825"/>
    <polygon points="270.4632,334.3713 270.0651,334.1327 269.6923,333.8562 269.3483,333.5445 269.0366,333.2005 268.7601,332.8277 268.5214,332.4296 268.323,332.0099 268.1666,331.5729 268.0538,331.1226 267.9857,330.6635 267.9629,330.1999 267.9857,329.7362 268.0538,329.2771 268.1666,328.8268 268.323,328.3898 268.5214,327.9702 268.7601,327.572 269.0366,327.1992 269.3483,326.8553 269.6923,326.5435 270.0651,326.267 270.4632,326.0284 270.8828,325.8299 271.3199,325.6736 271.7701,325.5608 272.2293,325.4927 272.6929,325.4699 273.1565,325.4927 273.6157,325.5608 274.066,325.6736 274.503,325.8299 274.9226,326.0284 275.3207,326.267 275.6936,326.5435 276.0375,326.8553 276.3492,327.1992 276.6257,327.572 276.8644,327.9702 277.0628,328.3898 277.2192,328.8268 277.332,329.2771 277.4001,329.7362 277.4229,330.1999 277.4001,330.6635 277.332,331.1226 277.2192,331.5729 277.0628,332.0099 276.8644,332.4296 276.6257,332.8277 276.3492,333.2005 276.0375,333.5445 275.6936,333.8562 275.3207,334.1327 274.9226,334.3713 274.503,334.5698 274.066,334.7262 273.6157,334.839 273.1565,334.9071 272.6929,334.9298 272.2293,334.9071 271.7701,334.839 271.3199,334.7262 270.8828,334.5698"/>
    <polygon points="255.9952,351.8719 257.0686,352.1408 258.1105,352.5136 259.1109,352.9867 260.0601,353.5556 260.9489,354.2148 261.7688,354.958 262.512,355.7779 263.1712,356.6668 263.7401,357.6159 264.2132,358.6163 264.586,359.6582 264.8549,360.7316 265.0173,361.8263 265.0716,362.9315 265.0173,364.0368 264.8549,365.1314 264.586,366.2049 264.2132,367.2468 263.7401,368.2471 263.1712,369.1963 262.512,370.0851 261.7688,370.9051 260.9489,371.6482 260.0601,372.3074 259.1109,372.8763 258.1105,373.3495 257.0686,373.7223 255.9952,373.9912 254.9005,374.1535 253.7953,374.2078 252.69,374.1535 251.5954,373.9912 250.5219,373.7223 249.48,373.3495 248.4797,372.8763 247.5305,372.3074 246.6417,371.6482 245.8217,370.9051 245.0786,370.0851 244.4194,369.1963 243.8505,368.2471 243.3773,367.2468 243.0045,366.2049 242.7356,365.1314 242.5733,364.0368 242.519,362.9315 242.5733,361.8263 242.7356,360.7316 243.0045,359.6582 243.3773,358.6163 243.8505,357.6159 244.4194,356.6668 245.0786,355.7779 245.8217,354.958 246.6417,354.2148 247.5305,353.5556 248.4797,352.9867 249.48,352.5136 250.5219,352.1408 251.5954,351.8719 252.69,351.7095 253.7953,351.6552 254.9005,351.7095"/>
    <polygon points="249.5521,387.2777 250.0157,387.3005 250.4794,387.2777 250.9385,387.2096 251.3888,387.0968 251.8258,386.9405 252.2454,386.742 252.6436,386.5034 253.0164,386.2269 253.3603,385.9151 253.6721,385.5712 253.9486,385.1984 254.1872,384.8002 254.3857,384.3806 254.542,383.9436 254.6548,383.4933 254.7229,383.0342 254.7457,382.5705 254.7229,382.1069 254.6548,381.6478 254.542,381.1975 254.3857,380.7605 254.1872,380.3408 253.9486,379.9427 253.6721,379.5699 253.3603,379.2259 253.0164,378.9142 252.6436,378.6377 252.2454,378.3991 251.8258,378.2006 251.3888,378.0442 250.9385,377.9314 250.4794,377.8633 250.0157,377.8406 249.5521,377.8633 249.093,377.9314 248.6427,378.0442 248.2057,378.2006 247.7861,378.3991 247.3879,378.6377 247.0151,378.9142 246.6712,379.2259 246.3594,379.5699 246.0829,379.9427 245.8443,380.3408 245.6458,380.7605 245.4894,381.1975 245.3767,381.6478 245.3086,382.1069 245.2858,382.5705 245.3086,383.0342 245.3767,383.4933 245.4894,383.9436 245.6458,384.3806 245.8443,384.8002 246.0829,385.1984 246.3594,385.5712 246.6712,385.9151 247.0151,386.2269 247.3879,386.5034 247.7861,386.742 248.2057,386.9405 248.6427,387.0968 249.093,387.2096"/>
    <polygon points="246.3594,398.6639 246.6712,399.0078 247.0151,399.3195 247.3879,399.596 247.7861,399.8347 248.2057,400.0331 248.6427,400.1895 249.093,400.3023 249.5521,400.3704 250.0157,400.3932 250.4794,400.3704 250.9385,400.3023 251.3888,400.1895 251.8258,400.0331 252.2454,399.8347 252.6436,399.596 253.0164,399.3195 253.3603,399.0078 253.6721,398.6639 253.9486,398.291 254.1872,397.8929 254.3857,397.4733 254.542,397.0362 254.6548,396.586 254.7229,396.1268 254.7457,395.6632 254.7229,395.1996 254.6548,394.7404 254.542,394.2902 254.3857,393.8531 254.1872,393.4335 253.9486,393.0354 253.6721,392.6625 253.3603,392.3186 253.0164,392.0069 252.6436,391.7304 252.2454,391.4917 251.8258,391.2933 251.3888,391.1369 250.9385,391.0241 250.4794,390.956 250.0157,390.9332 249.5521,390.956 249.093,391.0241 248.6427,391.1369 248.2057,391.2933 247.7861,391.4917 247.3879,391.7304 247.0151,392.0069 246.6712,392.3186 246.3594,392.6625 246.0829,393.0354 245.8443,393.4335 245.6458,393.8531 245.4894,394.2902 245.3767,394.7404 245.3086,395.1996 245.2858,395.6632 245.3086,396.1268 245.3767,396.586 245.4894,397.0362 245.6458,397.4733 245.8443,397.8929 246.0829,398.291"/>
    <polygon points="239.5999,380.6633 239.1408,380.7314 238.6772,380.7542 238.2135,380.7314 237.7544,380.6633 237.3041,380.5505 236.8671,380.3941 236.4475,380.1957 236.0493,379.957 235.6765,379.6805 235.3326,379.3688 235.0208,379.0249 234.7443,378.652 234.5057,378.2539 234.3072,377.8343 234.1509,377.3972 234.0381,376.947 233.97,376.4878 233.9472,376.0242 233.97,375.5606 234.0381,375.1014 234.1509,374.6512 234.3072,374.2141 234.5057,373.7945 234.7443,373.3964 235.0208,373.0235 235.3326,372.6796 235.6765,372.3679 236.0493,372.0914 236.4475,371.8527 236.8671,371.6543 237.3041,371.4979 237.7544,371.3851 238.2135,371.317 238.6772,371.2942 239.1408,371.317 239.5999,371.3851 240.0502,371.4979 240.4872,371.6543 240.9069,371.8527 241.305,372.0914 241.6778,372.3679 242.0218,372.6796 242.3335,373.0235 242.61,373.3964 242.8486,373.7945 243.0471,374.2141 243.2035,374.6512 243.3163,375.1014 243.3844,375.5606 243.4071,376.0242 243.3844,376.4878 243.3163,376.947 243.2035,377.3972 243.0471,377.8343 242.8486,378.2539 242.61,378.652 242.3335,379.0249 242.0218,379.3688 241.6778,379.6805 241.305,379.957 240.9069,380.1957 240.4872,380.3941 240.0502,380.5505"/>
    <polygon points="216.4636,367.6387 216.9228,367.5706 217.373,367.4578 217.8101,367.3015 218.2297,367.103 218.6278,366.8644 219.0007,366.5879 219.3446,366.2761 219.6563,365.9322 219.9328,365.5594 220.1715,365.1612 220.3699,364.7416 220.5263,364.3046 220.6391,363.8543 220.7072,363.3952 220.73,362.9315 220.7072,362.4679 220.6391,362.0088 220.5263,361.5585 220.3699,361.1215 220.1715,360.7018 219.9328,360.3037 219.6563,359.9309 219.3446,359.5869 219.0007,359.2752 218.6278,358.9987 218.2297,358.7601 217.8101,358.5616 217.373,358.4052 216.9228,358.2924 216.4636,358.2243 216.0,358.2016 215.5364,358.2243 215.0772,358.2924 214.627,358.4052 214.1899,358.5616 213.7703,358.7601 213.3722,358.9987 212.9993,359.2752 212.6554,359.5869 212.3437,359.9309 212.0672,360.3037 211.8285,360.7018 211.6301,361.1215 211.4737,361.5585 211.3609,362.0088 211.2928,362.4679 211.27,362.9315 211.2928,363.3952 211.3609,363.8543 211.4737,364.3046 211.6301,364.7416 211.8285,365.1612 212.0672,365.5594 212.3437,365.9322 212.6554,366.2761 212.9993,366.5879 213.3722,366.8644 213.7703,367.103 214.1899,367.3015 214.627,367.4578 215.0772,367.5706 215.5364,367.6387 216.0,367.6615"/>
    <polygon points="201.3168,353.0406 201.0051,353.3845 200.7286,353.7574 200.49,354.1555 200.2915,354.5751 200.1351,355.0122 200.0223,355.4624 199.9542,355.9216 199.9314,356.3852 199.9542,356.8488 200.0223,357.308 200.1351,357.7582 200.2915,358.1953 200.49,358.6149 200.7286,359.013 201.0051,359.3859 201.3168,359.7298 201.6608,360.0415 202.0336,360.318 202.4317,360.5567 202.8513,360.7551 203.2884,360.9115 203.7386,361.0243 204.1978,361.0924 204.6614,361.1152 205.125,361.0924 205.5842,361.0243 206.0345,360.9115 206.4715,360.7551 206.8911,360.5567 207.2892,360.318 207.6621,360.0415 208.006,359.7298 208.3177,359.3859 208.5942,359.013 208.8329,358.6149 209.0313,358.1953 209.1877,357.7582 209.3005,357.308 209.3686,356.8488 209.3914,356.3852 209.3686,355.9216 209.3005,355.4624 209.1877,355.0122 209.0313,354.5751 208.8329,354.1555 208.5942,353.7574 208.3177,353.3845 208.006,353.0406 207.6621,352.7289 207.2892,352.4524 206.8911,352.2137 206.4715,352.0153 206.0345,351.8589 205.5842,351.7461 205.125,351.678 204.6614,351.6552 204.1978,351.678 203.7386,351.7461 203.2884,351.8589 202.8513,352.0153 202.4317,352.2137 202.0336,352.4524 201.6608,352.7289"/>
    <polygon points="183.5639,360.8985 184.6585,361.0609 185.7638,361.1152 186.8691,361.0609 187.9637,360.8985 189.0371,360.6296 190.079,360.2568 191.0794,359.7837 192.0286,359.2148 192.9174,358.5556 193.7373,357.8124 194.4805,356.9925 195.1397,356.1036 195.7086,355.1545 196.1817,354.1541 196.5545,353.1122 196.8234,352.0388 196.9858,350.9441 197.0401,349.8389 196.9858,348.7336 196.8234,347.639 196.5545,346.5655 196.1817,345.5236 195.7086,344.5233 195.1397,343.5741 194.4805,342.6853 193.7373,341.8653 192.9174,341.1222 192.0286,340.463 191.0794,339.8941 190.079,339.4209 189.0371,339.0481 187.9637,338.7792 186.8691,338.6169 185.7638,338.5626 184.6585,338.6169 183.5639,338.7792 182.4904,339.0481 181.4485,339.4209 180.4482,339.8941 179.499,340.463 178.6102,341.1222 177.7902,341.8653 177.0471,342.6853 176.3879,343.5741 175.819,344.5233 175.3458,345.5236 174.973,346.5655 174.7041,347.639 174.5418,348.7336 174.4875,349.8389 174.5418,350.9441 174.7041,352.0388 174.973,353.1122 175.3458,354.1541 175.819,355.1545 176.3879,356.1036 177.0471,356.9925 177.7902,357.8124 178.6102,358.5556 179.499,359.2148 180.4482,359.7837 181.4485,360.2568 182.4904,360.6296"/>
    <polygon points="186.5106,370.8509 186.6233,370.4006 186.6914,369.9415 186.7142,369.4779 186.6914,369.0142 186.6233,368.5551 186.5106,368.1048 186.3542,367.6678 186.1557,367.2482 185.9171,366.85 185.6406,366.4772 185.3288,366.1333 184.9849,365.8215 184.6121,365.545 184.2139,365.3064 183.7943,365.1079 183.3573,364.9516 182.907,364.8388 182.4479,364.7707 181.9843,364.7479 181.5206,364.7707 181.0615,364.8388 180.6112,364.9516 180.1742,365.1079 179.7546,365.3064 179.3564,365.545 178.9836,365.8215 178.6397,366.1333 178.3279,366.4772 178.0514,366.85 177.8128,367.2482 177.6143,367.6678 177.458,368.1048 177.3452,368.5551 177.2771,369.0142 177.2543,369.4779 177.2771,369.9415 177.3452,370.4006 177.458,370.8509 177.6143,371.288 177.8128,371.7076 178.0514,372.1057 178.3279,372.4785 178.6397,372.8225 178.9836,373.1342 179.3564,373.4107 179.7546,373.6493 180.1742,373.8478 180.6112,374.0042 181.0615,374.117 181.5206,374.1851 181.9843,374.2078 182.4479,374.1851 182.907,374.117 183.3573,374.0042 183.7943,373.8478 184.2139,373.6493 184.6121,373.4107 184.9849,373.1342 185.3288,372.8225 185.6406,372.4785 185.9171,372.1057 186.1557,371.7076 186.3542,371.288"/>
    <polygon points="193.7865,406.9167 193.3228,406.9395 192.8592,406.9167 192.4001,406.8486 191.9498,406.7358 191.5128,406.5795 191.0931,406.381 190.695,406.1424 190.3222,405.8659 189.9782,405.5541 189.6665,405.2102 189.39,404.8374 189.1514,404.4392 188.9529,404.0196 188.7965,403.5826 188.6837,403.1323 188.6156,402.6732 188.5929,402.2095 188.6156,401.7459 188.6837,401.2868 188.7965,400.8365 188.9529,400.3995 189.1514,399.9798 189.39,399.5817 189.6665,399.2089 189.9782,398.8649 190.3222,398.5532 190.695,398.2767 191.0931,398.0381 191.5128,397.8396 191.9498,397.6832 192.4001,397.5704 192.8592,397.5023 193.3228,397.4796 193.7865,397.5023 194.2456,397.5704 194.6959,397.6832 195.1329,397.8396 195.5525,398.0381 195.9507,398.2767 196.3235,398.5532 196.6674,398.8649 196.9792,399.2089 197.2557,399.5817 197.4943,399.9798 197.6928,400.3995 197.8491,400.8365 197.9619,401.2868 198.03,401.7459 198.0528,402.2095 198.03,402.6732 197.9619,403.1323 197.8491,403.5826 197.6928,404.0196 197.4943,404.4392 197.2557,404.8374 196.9792,405.2102 196.6674,405.5541 196.3235,405.8659 195.9507,406.1424 195.5525,406.381 195.1329,406.5795 194.6959,406.7358 194.2456,406.8486"/>
    <polygon points="183.3573,400.1895 182.907,400.3023 182.4479,400.3704 181.9843,400.3932 181.5206,400.3704 181.0615,400.3023 180.6112,400.1895 180.1742,400.0331 179.7546,399.8347 179.3564,399.596 178.9836,399.3195 178.6397,399.0078 178.3279,398.6639 178.0514,398.291 177.8128,397.8929 177.6143,397.4733 177.458,397.0362 177.3452,396.586 177.2771,396.1268 177.2543,395.6632 177.2771,395.1996 177.3452,394.7404 177.458,394.2902 177.6143,393.8531 177.8128,393.4335 178.0514,393.0354 178.3279,392.6625 178.6397,392.3186 178.9836,392.0069 179.3564,391.7304 179.7546,391.4917 180.1742,391.2933 180.6112,391.1369 181.0615,391.0241 181.5206,390.956 181.9843,390.9332 182.4479,390.956 182.907,391.0241 183.3573,391.1369 183.7943,391.2933 184.2139,391.4917 184.6121,391.7304 184.9849,392.0069 185.3288,392.3186 185.6406,392.6625 185.9171,393.0354 186.1557,393.4335 186.3542,393.8531 186.5106,394.2902 186.6233,394.7404 186.6914,395.1996 186.7142,395.6632 186.6914,396.1268 186.6233,396.586 186.5106,397.0362 186.3542,397.4733 186.1557,397.8929 185.9171,398.291 185.6406,398.6639 185.3288,399.0078 184.9849,399.3195 184.6121,399.596 184.2139,399.8347 183.7943,400.0331"/>
    <polygon points="181.0615,377.9314 181.5206,377.8633 181.9843,377.8406 182.4479,377.8633 182.907,377.9314 183.3573,378.0442 183.7943,378.2006 184.2139,378.3991 184.6121,378.6377 184.9849,378.9142 185.3288,379.2259 185.6406,379.5699 185.9171,379.9427 186.1557,380.3408 186.3542,380.7605 186.5106,381.1975 186.6233,381.6478 186.6914,382.1069 186.7142,382.5705 186.6914,383.0342 186.6233,383.4933 186.5106,383.9436 186.3542,384.3806 186.1557,384.8002 185.9171,385.1984 185.6406,385.5712 185.3288,385.9151 184.9849,386.2269 184.6121,386.5034 184.2139,386.742 183.7943,386.9405 183.3573,387.0968 182.907,387.2096 182.4479,387.2777 181.9843,387.3005 181.5206,387.2777 181.0615,387.2096 180.6112,387.0968 180.1742,386.9405 179.7546,386.742 179.3564,386.5034 178.9836,386.2269 178.6397,385.9151 178.3279,385.5712 178.0514,385.1984 177.8128,384.8002 177.6143,384.3806 177.458,383.9436 177.3452,383.4933 177.2771,383.0342 177.2543,382.5705 177.2771,382.1069 177.3452,381.6478 177.458,381.1975 177.6143,380.7605 177.8128,380.3408 178.0514,379.9427 178.3279,379.5699 178.6397,379.2259 178.9836,378.9142 179.3564,378.6377 179.7546,378.3991 180.1742,378.2006 180.6112,378.0442"/>
    <polygon points="157.497,360.7551 157.0774,360.5567 156.6793,360.318 156.3064,360.0415 155.9625,359.7298 155.6508,359.3859 155.3743,359.013 155.1356,358.6149 154.9372,358.1953 154.7808,357.7582 154.668,357.308 154.5999,356.8488 154.5771,356.3852 154.5999,355.9216 154.668,355.4624 154.7808,355.0122 154.9372,354.5751 155.1356,354.1555 155.3743,353.7574 155.6508,353.3845 155.9625,353.0406 156.3064,352.7289 156.6793,352.4524 157.0774,352.2137 157.497,352.0153 157.934,351.8589 158.3843,351.7461 158.8435,351.678 159.3071,351.6552 159.7707,351.678 160.2299,351.7461 160.6801,351.8589 161.1172,352.0153 161.5368,352.2137 161.9349,352.4524 162.3077,352.7289 162.6517,353.0406 162.9634,353.3845 163.2399,353.7574 163.4786,354.1555 163.677,354.5751 163.8334,355.0122 163.9462,355.4624 164.0143,355.9216 164.0371,356.3852 164.0143,356.8488 163.9462,357.308 163.8334,357.7582 163.677,358.1953 163.4786,358.6149 163.2399,359.013 162.9634,359.3859 162.6517,359.7298 162.3077,360.0415 161.9349,360.318 161.5368,360.5567 161.1172,360.7551 160.6801,360.9115 160.2299,361.0243 159.7707,361.0924 159.3071,361.1152 158.8435,361.0924 158.3843,361.0243 157.934,360.9115"/>
    <polygon points="155.933,328.0295 156.8218,327.3703 157.771,326.8014 158.7714,326.3283 159.8133,325.9554 160.8867,325.6866 161.9813,325.5242 163.0866,325.4699 164.1919,325.5242 165.2865,325.6866 166.36,325.9554 167.4019,326.3283 168.4022,326.8014 169.3514,327.3703 170.2402,328.0295 171.0602,328.7726 171.8033,329.5926 172.4625,330.4814 173.0314,331.4306 173.5046,332.4309 173.8774,333.4729 174.1462,334.5463 174.3086,335.6409 174.3629,336.7462 174.3086,337.8515 174.1462,338.9461 173.8774,340.0195 173.5046,341.0615 173.0314,342.0618 172.4625,343.011 171.8033,343.8998 171.0602,344.7198 170.2402,345.4629 169.3514,346.1221 168.4022,346.691 167.4019,347.1641 166.36,347.537 165.2865,347.8058 164.1919,347.9682 163.0866,348.0225 161.9813,347.9682 160.8867,347.8058 159.8133,347.537 158.7714,347.1641 157.771,346.691 156.8218,346.1221 155.933,345.4629 155.1131,344.7198 154.3699,343.8998 153.7107,343.011 153.1418,342.0618 152.6687,341.0615 152.2959,340.0195 152.027,338.9461 151.8646,337.8515 151.8103,336.7462 151.8646,335.6409 152.027,334.5463 152.2959,333.4729 152.6687,332.4309 153.1418,331.4306 153.7107,330.4814 154.3699,329.5926 155.1131,328.7726"/>
    <polygon points="141.3599,317.1072 141.3371,317.5708 141.269,318.03 141.1562,318.4802 140.9998,318.9173 140.8014,319.3369 140.5627,319.735 140.2862,320.1079 139.9745,320.4518 139.6306,320.7635 139.2578,321.04 138.8596,321.2787 138.44,321.4771 138.003,321.6335 137.5527,321.7463 137.0935,321.8144 136.6299,321.8372 136.1663,321.8144 135.7071,321.7463 135.2569,321.6335 134.8198,321.4771 134.4002,321.2787 134.0021,321.04 133.6293,320.7635 133.2853,320.4518 132.9736,320.1079 132.6971,319.735 132.4585,319.3369 132.26,318.9173 132.1036,318.4802 131.9908,318.03 131.9227,317.5708 131.8999,317.1072 131.9227,316.6436 131.9908,316.1844 132.1036,315.7342 132.26,315.2971 132.4585,314.8775 132.6971,314.4794 132.9736,314.1065 133.2853,313.7626 133.6293,313.4509 134.0021,313.1744 134.4002,312.9357 134.8198,312.7373 135.2569,312.5809 135.7071,312.4681 136.1663,312.4 136.6299,312.3772 137.0935,312.4 137.5527,312.4681 138.003,312.5809 138.44,312.7373 138.8596,312.9357 139.2578,313.1744 139.6306,313.4509 139.9745,313.7626 140.2862,314.1065 140.5627,314.4794 140.8014,314.8775 140.9998,315.2971 141.1562,315.7342 141.269,316.1844 141.3371,316.6436"/>
    <polygon points="110.2964,293.9225 110.0199,293.5497 109.7813,293.1516 109.5828,292.7319 109.4265,292.2949 109.3137,291.8446 109.2456,291.3855 109.2228,290.9219 109.2456,290.4582 109.3137,289.9991 109.4265,289.5488 109.5828,289.1118 109.7813,288.6922 110.0199,288.294 110.2964,287.9212 110.6082,287.5773 110.9521,287.2655 111.3249,286.989 111.7231,286.7504 112.1427,286.5519 112.5797,286.3956 113.03,286.2828 113.4891,286.2147 113.9528,286.1919 114.4164,286.2147 114.8755,286.2828 115.3258,286.3956 115.7628,286.5519 116.1824,286.7504 116.5806,286.989 116.9534,287.2655 117.2974,287.5773 117.6091,287.9212 117.8856,288.294 118.1242,288.6922 118.3227,289.1118 118.4791,289.5488 118.5918,289.9991 118.66,290.4582 118.6827,290.9219 118.66,291.3855 118.5918,291.8446 118.4791,292.2949 118.3227,292.7319 118.1242,293.1516 117.8856,293.5497 117.6091,293.9225 117.2974,294.2665 116.9534,294.5782 116.5806,294.8547 116.1824,295.0933 115.7628,295.2918 115.3258,295.4482 114.8755,295.561 114.4164,295.6291 113.9528,295.6518 113.4891,295.6291 113.03,295.561 112.5797,295.4482 112.1427,295.2918 111.7231,295.0933 111.3249,294.8547 110.9521,294.5782 110.6082,294.2665"/>
    <polygon points="112.1427,282.1991 111.7231,282.0007 111.3249,281.762 110.9521,281.4855 110.6082,281.1738 110.2964,280.8299 110.0199,280.457 109.7813,280.0589 109.5828,279.6393 109.4265,279.2022 109.3137,278.752 109.2456,278.2928 109.2228,277.8292 109.2456,277.3656 109.3137,276.9064 109.4265,276.4562 109.5828,276.0191 109.7813,275.5995 110.0199,275.2014 110.2964,274.8285 110.6082,274.4846 110.9521,274.1729 111.3249,273.8964 111.7231,273.6577 112.1427,273.4593 112.5797,273.3029 113.03,273.1901 113.4891,273.122 113.9528,273.0992 114.4164,273.122 114.8755,273.1901 115.3258,273.3029 115.7628,273.4593 116.1824,273.6577 116.5806,273.8964 116.9534,274.1729 117.2974,274.4846 117.6091,274.8285 117.8856,275.2014 118.1242,275.5995 118.3227,276.0191 118.4791,276.4562 118.5918,276.9064 118.66,277.3656 118.6827,277.8292 118.66,278.2928 118.5918,278.752 118.4791,279.2022 118.3227,279.6393 118.1242,280.0589 117.8856,280.457 117.6091,280.8299 117.2974,281.1738 116.9534,281.4855 116.5806,281.762 116.1824,282.0007 115.7628,282.1991 115.3258,282.3555 114.8755,282.4683 114.4164,282.5364 113.9528,282.5592 113.4891,282.5364 113.03,282.4683 112.5797,282.3555"/>
    <polygon points="128.9477,281.3749 129.2242,281.7477 129.4628,282.1458 129.6613,282.5654 129.8176,283.0025 129.9304,283.4528 129.9985,283.9119 130.0213,284.3755 129.9985,284.8391 129.9304,285.2983 129.8176,285.7486 129.6613,286.1856 129.4628,286.6052 129.2242,287.0034 128.9477,287.3762 128.6359,287.7201 128.292,288.0318 127.9192,288.3084 127.521,288.547 127.1014,288.7455 126.6644,288.9018 126.2141,289.0146 125.755,289.0827 125.2913,289.1055 124.8277,289.0827 124.3686,289.0146 123.9183,288.9018 123.4813,288.7455 123.0616,288.547 122.6635,288.3084 122.2907,288.0318 121.9467,287.7201 121.635,287.3762 121.3585,287.0034 121.1199,286.6052 120.9214,286.1856 120.765,285.7486 120.6523,285.2983 120.5841,284.8391 120.5614,284.3755 120.5841,283.9119 120.6523,283.4528 120.765,283.0025 120.9214,282.5654 121.1199,282.1458 121.3585,281.7477 121.635,281.3749 121.9467,281.0309 122.2907,280.7192 122.6635,280.4427 123.0616,280.2041 123.4813,280.0056 123.9183,279.8492 124.3686,279.7364 124.8277,279.6683 125.2913,279.6456 125.755,279.6683 126.2141,279.7364 126.6644,279.8492 127.1014,280.0056 127.521,280.2041 127.9192,280.4427 128.292,280.7192 128.6359,281.0309"/>
    <polygon points="145.7388,267.1114 145.3407,267.35 144.9678,267.6265 144.6239,267.9383 144.3122,268.2822 144.0357,268.655 143.797,269.0532 143.5986,269.4728 143.4422,269.9098 143.3294,270.3601 143.2613,270.8192 143.2385,271.2829 143.2613,271.7465 143.3294,272.2056 143.4422,272.6559 143.5986,273.0929 143.797,273.5126 144.0357,273.9107 144.3122,274.2835 144.6239,274.6275 144.9678,274.9392 145.3407,275.2157 145.7388,275.4543 146.1584,275.6528 146.5955,275.8092 147.0457,275.9219 147.5049,275.9901 147.9685,276.0128 148.4321,275.9901 148.8913,275.9219 149.3415,275.8092 149.7786,275.6528 150.1982,275.4543 150.5963,275.2157 150.9692,274.9392 151.3131,274.6275 151.6248,274.2835 151.9013,273.9107 152.14,273.5126 152.3384,273.0929 152.4948,272.6559 152.6076,272.2056 152.6757,271.7465 152.6985,271.2829 152.6757,270.8192 152.6076,270.3601 152.4948,269.9098 152.3384,269.4728 152.14,269.0532 151.9013,268.655 151.6248,268.2822 151.3131,267.9383 150.9692,267.6265 150.5963,267.35 150.1982,267.1114 149.7786,266.9129 149.3415,266.7566 148.8913,266.6438 148.4321,266.5757 147.9685,266.5529 147.5049,266.5757 147.0457,266.6438 146.5955,266.7566 146.1584,266.9129"/>
    <polygon points="150.3543,292.1526 150.8274,293.1529 151.2002,294.1949 151.4691,295.2683 151.6315,296.3629 151.6858,297.4682 151.6315,298.5735 151.4691,299.6681 151.2002,300.7415 150.8274,301.7835 150.3543,302.7838 149.7854,303.733 149.1262,304.6218 148.383,305.4417 147.5631,306.1849 146.6742,306.8441 145.7251,307.413 144.7247,307.8861 143.6828,308.2589 142.6093,308.5278 141.5147,308.6902 140.4094,308.7445 139.3042,308.6902 138.2096,308.5278 137.1361,308.2589 136.0942,307.8861 135.0938,307.413 134.1447,306.8441 133.2558,306.1849 132.4359,305.4417 131.6927,304.6218 131.0335,303.733 130.4646,302.7838 129.9915,301.7835 129.6187,300.7415 129.3498,299.6681 129.1874,298.5735 129.1331,297.4682 129.1874,296.3629 129.3498,295.2683 129.6187,294.1949 129.9915,293.1529 130.4646,292.1526 131.0335,291.2034 131.6927,290.3146 132.4359,289.4946 133.2558,288.7515 134.1447,288.0923 135.0938,287.5234 136.0942,287.0502 137.1361,286.6774 138.2096,286.4086 139.3042,286.2462 140.4094,286.1919 141.5147,286.2462 142.6093,286.4086 143.6828,286.6774 144.7247,287.0502 145.7251,287.5234 146.6742,288.0923 147.5631,288.7515 148.383,289.4946 149.1262,290.3146 149.7854,291.2034"/>
    <polygon points="169.3514,293.7514 168.4022,294.3203 167.4019,294.7935 166.36,295.1663 165.2865,295.4352 164.1919,295.5975 163.0866,295.6518 161.9813,295.5975 160.8867,295.4352 159.8133,295.1663 158.7714,294.7935 157.771,294.3203 156.8218,293.7514 155.933,293.0922 155.1131,292.3491 154.3699,291.5291 153.7107,290.6403 153.1418,289.6911 152.6687,288.6908 152.2959,287.6489 152.027,286.5754 151.8646,285.4808 151.8103,284.3755 151.8646,283.2703 152.027,282.1756 152.2959,281.1022 152.6687,280.0603 153.1418,279.0599 153.7107,278.1107 154.3699,277.2219 155.1131,276.402 155.933,275.6588 156.8218,274.9996 157.771,274.4307 158.7714,273.9576 159.8133,273.5848 160.8867,273.3159 161.9813,273.1535 163.0866,273.0992 164.1919,273.1535 165.2865,273.3159 166.36,273.5848 167.4019,273.9576 168.4022,274.4307 169.3514,274.9996 170.2402,275.6588 171.0602,276.402 171.8033,277.2219 172.4625,278.1107 173.0314,279.0599 173.5046,280.0603 173.8774,281.1022 174.1462,282.1756 174.3086,283.2703 174.3629,284.3755 174.3086,285.4808 174.1462,286.5754 173.8774,287.6489 173.5046,288.6908 173.0314,289.6911 172.4625,290.6403 171.8033,291.5291 171.0602,292.3491 170.2402,293.0922"/>
    <polygon points="183.9972,288.0469 186.2489,287.2412 188.5687,286.6601 190.9343,286.3092 193.3228,286.1919 195.7114,286.3092 198.077,286.6601 200.3968,287.2412 202.6484,288.0469 204.8103,289.0693 206.8615,290.2988 208.7823,291.7234 210.5543,293.3294 212.1603,295.1014 213.5849,297.0222 214.8144,299.0734 215.8368,301.2353 216.6425,303.4869 217.2236,305.8067 217.5745,308.1723 217.6918,310.5609 217.5745,312.9494 217.2236,315.315 216.6425,317.6348 215.8368,319.8865 214.8144,322.0483 213.5849,324.0995 212.1603,326.0204 210.5543,327.7923 208.7823,329.3983 206.8615,330.8229 204.8103,332.0524 202.6484,333.0749 200.3968,333.8805 198.077,334.4616 195.7114,334.8125 193.3228,334.9298 190.9343,334.8125 188.5687,334.4616 186.2489,333.8805 183.9972,333.0749 181.8354,332.0524 179.7842,330.8229 177.8633,329.3983 176.0914,327.7923 174.4854,326.0204 173.0608,324.0995 171.8313,322.0483 170.8088,319.8865 170.0032,317.6348 169.4221,315.315 169.0712,312.9494 168.9539,310.5609 169.0712,308.1723 169.4221,305.8067 170.0032,303.4869 170.8088,301.2353 171.8313,299.0734 173.0608,297.0222 174.4854,295.1014 176.0914,293.3294 177.8633,291.7234 179.7842,290.2988 181.8354,289.0693"/>
  </g>
</svg>
