<?xml version="1.0" encoding="utf-8" ?>
<svg xmlns="http://www.w3.org/2000/svg" xmlns:cc="http://creativecommons.org/ns" xmlns:dc="http://purl.org/dc/elements/1.1/" xmlns:ev="http://www.w3.org/2001/xml-events" xmlns:inkscape="http://www.inkscape.org/namespaces/inkscape" xmlns:rdf="http://www.w3.org/1999/02/22-rdf-syntax-ns" xmlns:sodipodi="http://sodipodi.sourceforge.net/DTD/sodipodi-0.dtd" xmlns:xlink="http://www.w3.org/1999/xlink" baseProfile="tiny" height="15.875cm" version="1.2" viewBox="0 0 432.0 600.0" width="11.43cm">
  <metadata>
    <rdf:RDF>
      <cc:Work>
        <dc:format>image/svg+xml</dc:format>
        <dc:source>vsk save -s 268 -c hex-grid/config/bubble-coasters-2.json /Users/tobin/src/fabian/plotting/fabian-plotting/hex-grid/sketch_hex_grid.py</dc:source>
        <dc:date>2023-11-11T11:30:23.935637</dc:date>
      </cc:Work>
    </rdf:RDF>
  </metadata>
  <defs/>
  <g fill="none" id="layer1" inkscape:groupmode="layer" inkscape:label="1" stroke="#000000" stroke-width="0.7559" style="display:inline">
    <polygon points="178.9836,159.612 179.3564,159.3355 179.7546,159.0969 180.1742,158.8984 180.6112,158.7421 181.0615,158.6293 181.5206,158.5612 181.9843,158.5384 182.4479,158.5612 182.907,158.6293 183.3573,158.7421 183.7943,158.8984 184.2139,159.0969 184.6121,159.3355 184.9849,159.612 185.3288,159.9238 185.6406,160.2677 185.9171,160.6405 186.1557,161.0387 186.3542,161.4583 186.5106,161.8953 186.6233,162.3456 186.6914,162.8047 186.7142,163.2684 186.6914,163.732 186.6233,164.1911 186.5106,164.6414 186.3542,165.0784 186.1557,165.498 185.9171,165.8962 185.6406,166.269 185.3288,166.613 184.9849,166.9247 184.6121,167.2012 184.2139,167.4398 183.7943,167.6383 183.3573,167.7947 182.907,167.9074 182.4479,167.9756 181.9843,167.9983 181.5206,167.9756 181.0615,167.9074 180.6112,167.7947 180.1742,167.6383 179.7546,167.4398 179.3564,167.2012 178.9836,166.9247 178.6397,166.613 178.3279,166.269 178.0514,165.8962 177.8128,165.498 177.6143,165.0784 177.458,164.6414 177.3452,164.1911 177.2771,163.732 177.2543,163.2684 177.2771,162.8047 177.3452,162.3456 177.458,161.8953 177.6143,161.4583 177.8128,161.0387 178.0514,160.6405 178.3279,160.2677 178.6397,159.9238"/>
    <polygon points="165.2865,184.9404 166.36,185.2093 167.4019,185.5821 168.4022,186.0552 169.3514,186.6241 170.2402,187.2833 171.0602,188.0265 171.8033,188.8464 172.4625,189.7352 173.0314,190.6844 173.5046,191.6848 173.8774,192.7267 174.1462,193.8001 174.3086,194.8948 174.3629,196.0 174.3086,197.1053 174.1462,198.1999 173.8774,199.2734 173.5046,200.3153 173.0314,201.3156 172.4625,202.2648 171.8033,203.1536 171.0602,203.9736 170.2402,204.7167 169.3514,205.3759 168.4022,205.9448 167.4019,206.418 166.36,206.7908 165.2865,207.0597 164.1919,207.222 163.0866,207.2763 161.9813,207.222 160.8867,207.0597 159.8133,206.7908 158.7714,206.418 157.771,205.9448 156.8218,205.3759 155.933,204.7167 155.1131,203.9736 154.3699,203.1536 153.7107,202.2648 153.1418,201.3156 152.6687,200.3153 152.2959,199.2734 152.027,198.1999 151.8646,197.1053 151.8103,196.0 151.8646,194.8948 152.027,193.8001 152.2959,192.7267 152.6687,191.6848 153.1418,190.6844 153.7107,189.7352 154.3699,188.8464 155.1131,188.0265 155.933,187.2833 156.8218,186.6241 157.771,186.0552 158.7714,185.5821 159.8133,185.2093 160.8867,184.9404 161.9813,184.778 163.0866,184.7237 164.1919,184.778"/>
    <polygon points="154.3699,176.9683 153.7107,176.0795 153.1418,175.1303 152.6687,174.1299 152.2959,173.088 152.027,172.0146 151.8646,170.92 151.8103,169.8147 151.8646,168.7094 152.027,167.6148 152.2959,166.5413 152.6687,165.4994 153.1418,164.4991 153.7107,163.5499 154.3699,162.6611 155.1131,161.8411 155.933,161.098 156.8218,160.4388 157.771,159.8699 158.7714,159.3967 159.8133,159.0239 160.8867,158.7551 161.9813,158.5927 163.0866,158.5384 164.1919,158.5927 165.2865,158.7551 166.36,159.0239 167.4019,159.3967 168.4022,159.8699 169.3514,160.4388 170.2402,161.098 171.0602,161.8411 171.8033,162.6611 172.4625,163.5499 173.0314,164.4991 173.5046,165.4994 173.8774,166.5413 174.1462,167.6148 174.3086,168.7094 174.3629,169.8147 174.3086,170.92 174.1462,172.0146 173.8774,173.088 173.5046,174.1299 173.0314,175.1303 172.4625,176.0795 171.8033,176.9683 171.0602,177.7882 170.2402,178.5314 169.3514,179.1906 168.4022,179.7595 167.4019,180.2326 166.36,180.6054 165.2865,180.8743 164.1919,181.0367 163.0866,181.091 161.9813,181.0367 160.8867,180.8743 159.8133,180.6054 158.7714,180.2326 157.771,179.7595 156.8218,179.1906 155.933,178.5314 155.1131,177.7882"/>
    <polygon points="140.2862,186.453 139.9745,186.1091 139.6306,185.7974 139.2578,185.5209 138.8596,185.2822 138.44,185.0838 138.003,184.9274 137.5527,184.8146 137.0935,184.7465 136.6299,184.7237 136.1663,184.7465 135.7071,184.8146 135.2569,184.9274 134.8198,185.0838 134.4002,185.2822 134.0021,185.5209 133.6293,185.7974 133.2853,186.1091 132.9736,186.453 132.6971,186.8259 132.4585,187.224 132.26,187.6436 132.1036,188.0807 131.9908,188.5309 131.9227,188.9901 131.8999,189.4537 131.9227,189.9173 131.9908,190.3765 132.1036,190.8267 132.26,191.2638 132.4585,191.6834 132.6971,192.0815 132.9736,192.4544 133.2853,192.7983 133.6293,193.11 134.0021,193.3865 134.4002,193.6252 134.8198,193.8236 135.2569,193.98 135.7071,194.0928 136.1663,194.1609 136.6299,194.1837 137.0935,194.1609 137.5527,194.0928 138.003,193.98 138.44,193.8236 138.8596,193.6252 139.2578,193.3865 139.6306,193.11 139.9745,192.7983 140.2862,192.4544 140.5627,192.0815 140.8014,191.6834 140.9998,191.2638 141.1562,190.8267 141.269,190.3765 141.3371,189.9173 141.3599,189.4537 141.3371,188.9901 141.269,188.5309 141.1562,188.0807 140.9998,187.6436 140.8014,187.224 140.5627,186.8259"/>
    <polygon points="146.1584,187.2773 146.5955,187.4337 147.0457,187.5464 147.5049,187.6146 147.9685,187.6373 148.4321,187.6146 148.8913,187.5464 149.3415,187.4337 149.7786,187.2773 150.1982,187.0788 150.5963,186.8402 150.9692,186.5637 151.3131,186.252 151.6248,185.908 151.9013,185.5352 152.14,185.137 152.3384,184.7174 152.4948,184.2804 152.6076,183.8301 152.6757,183.371 152.6985,182.9074 152.6757,182.4437 152.6076,181.9846 152.4948,181.5343 152.3384,181.0973 152.14,180.6777 151.9013,180.2795 151.6248,179.9067 151.3131,179.5628 150.9692,179.251 150.5963,178.9745 150.1982,178.7359 149.7786,178.5374 149.3415,178.3811 148.8913,178.2683 148.4321,178.2002 147.9685,178.1774 147.5049,178.2002 147.0457,178.2683 146.5955,178.3811 146.1584,178.5374 145.7388,178.7359 145.3407,178.9745 144.9678,179.251 144.6239,179.5628 144.3122,179.9067 144.0357,180.2795 143.797,180.6777 143.5986,181.0973 143.4422,181.5343 143.3294,181.9846 143.2613,182.4437 143.2385,182.9074 143.2613,183.371 143.3294,183.8301 143.4422,184.2804 143.5986,184.7174 143.797,185.137 144.0357,185.5352 144.3122,185.908 144.6239,186.252 144.9678,186.5637 145.3407,186.8402 145.7388,187.0788"/>
    <polygon points="182.1331,213.7865 179.9713,212.764 177.7196,211.9584 175.3998,211.3773 173.0342,211.0264 170.6457,210.9091 168.2571,211.0264 165.8915,211.3773 163.5717,211.9584 161.3201,212.764 159.1582,213.7865 157.107,215.016 155.1862,216.4406 153.4142,218.0466 151.8082,219.8185 150.3836,221.7393 149.1542,223.7906 148.1317,225.9524 147.326,228.2041 146.7449,230.5239 146.394,232.8894 146.2767,235.278 146.394,237.6666 146.7449,240.0322 147.326,242.352 148.1317,244.6036 149.1542,246.7655 150.3836,248.8167 151.8082,250.7375 153.4142,252.5095 155.1862,254.1155 157.107,255.5401 159.1582,256.7695 161.3201,257.792 163.5717,258.5977 165.8915,259.1788 168.2571,259.5297 170.6457,259.647 173.0342,259.5297 175.3998,259.1788 177.7196,258.5977 179.9713,257.792 182.1331,256.7695 184.1843,255.5401 186.1052,254.1155 187.8771,252.5095 189.4831,250.7375 190.9077,248.8167 192.1372,246.7655 193.1597,244.6036 193.9653,242.352 194.5464,240.0322 194.8973,237.6666 195.0146,235.278 194.8973,232.8894 194.5464,230.5239 193.9653,228.2041 193.1597,225.9524 192.1372,223.7906 190.9077,221.7393 189.4831,219.8185 187.8771,218.0466 186.1052,216.4406 184.1843,215.016"/>
    <polygon points="202.0336,206.4792 202.4317,206.7178 202.8513,206.9163 203.2884,207.0727 203.7386,207.1854 204.1978,207.2536 204.6614,207.2763 205.125,207.2536 205.5842,207.1854 206.0345,207.0727 206.4715,206.9163 206.8911,206.7178 207.2892,206.4792 207.6621,206.2027 208.006,205.891 208.3177,205.547 208.5942,205.1742 208.8329,204.7761 209.0313,204.3564 209.1877,203.9194 209.3005,203.4691 209.3686,203.01 209.3914,202.5464 209.3686,202.0827 209.3005,201.6236 209.1877,201.1733 209.0313,200.7363 208.8329,200.3167 208.5942,199.9185 208.3177,199.5457 208.006,199.2018 207.6621,198.89 207.2892,198.6135 206.8911,198.3749 206.4715,198.1764 206.0345,198.0201 205.5842,197.9073 205.125,197.8392 204.6614,197.8164 204.1978,197.8392 203.7386,197.9073 203.2884,198.0201 202.8513,198.1764 202.4317,198.3749 202.0336,198.6135 201.6608,198.89 201.3168,199.2018 201.0051,199.5457 200.7286,199.9185 200.49,200.3167 200.2915,200.7363 200.1351,201.1733 200.0223,201.6236 199.9542,202.0827 199.9314,202.5464 199.9542,203.01 200.0223,203.4691 200.1351,203.9194 200.2915,204.3564 200.49,204.7761 200.7286,205.1742 201.0051,205.547 201.3168,205.891 201.6608,206.2027"/>
    <polygon points="226.4158,220.2781 226.875,220.3462 227.3386,220.369 227.8022,220.3462 228.2614,220.2781 228.7116,220.1653 229.1487,220.0089 229.5683,219.8105 229.9664,219.5719 230.3392,219.2953 230.6832,218.9836 230.9949,218.6397 231.2714,218.2669 231.51,217.8687 231.7085,217.4491 231.8649,217.0121 231.9777,216.5618 232.0458,216.1026 232.0686,215.639 232.0458,215.1754 231.9777,214.7163 231.8649,214.266 231.7085,213.8289 231.51,213.4093 231.2714,213.0112 230.9949,212.6384 230.6832,212.2944 230.3392,211.9827 229.9664,211.7062 229.5683,211.4676 229.1487,211.2691 228.7116,211.1127 228.2614,210.9999 227.8022,210.9318 227.3386,210.9091 226.875,210.9318 226.4158,210.9999 225.9655,211.1127 225.5285,211.2691 225.1089,211.4676 224.7108,211.7062 224.3379,211.9827 223.994,212.2944 223.6823,212.6384 223.4058,213.0112 223.1671,213.4093 222.9687,213.8289 222.8123,214.266 222.6995,214.7163 222.6314,215.1754 222.6086,215.639 222.6314,216.1026 222.6995,216.5618 222.8123,217.0121 222.9687,217.4491 223.1671,217.8687 223.4058,218.2669 223.6823,218.6397 223.994,218.9836 224.3379,219.2953 224.7108,219.5719 225.1089,219.8105 225.5285,220.0089 225.9655,220.1653"/>
    <polygon points="254.7229,228.2681 254.7457,228.7317 254.7229,229.1953 254.6548,229.6545 254.542,230.1047 254.3857,230.5418 254.1872,230.9614 253.9486,231.3595 253.6721,231.7324 253.3603,232.0763 253.0164,232.388 252.6436,232.6645 252.2454,232.9032 251.8258,233.1016 251.3888,233.258 250.9385,233.3708 250.4794,233.4389 250.0157,233.4617 249.5521,233.4389 249.093,233.3708 248.6427,233.258 248.2057,233.1016 247.7861,232.9032 247.3879,232.6645 247.0151,232.388 246.6712,232.0763 246.3594,231.7324 246.0829,231.3595 245.8443,230.9614 245.6458,230.5418 245.4894,230.1047 245.3767,229.6545 245.3086,229.1953 245.2858,228.7317 245.3086,228.2681 245.3767,227.8089 245.4894,227.3587 245.6458,226.9216 245.8443,226.502 246.0829,226.1039 246.3594,225.731 246.6712,225.3871 247.0151,225.0754 247.3879,224.7989 247.7861,224.5602 248.2057,224.3618 248.6427,224.2054 249.093,224.0926 249.5521,224.0245 250.0157,224.0017 250.4794,224.0245 250.9385,224.0926 251.3888,224.2054 251.8258,224.3618 252.2454,224.5602 252.6436,224.7989 253.0164,225.0754 253.3603,225.3871 253.6721,225.731 253.9486,226.1039 254.1872,226.502 254.3857,226.9216 254.542,227.3587 254.6548,227.8089"/>
    <polygon points="276.6257,213.0112 276.8644,213.4093 277.0628,213.8289 277.2192,214.266 277.332,214.7163 277.4001,215.1754 277.4229,215.639 277.4001,216.1026 277.332,216.5618 277.2192,217.0121 277.0628,217.4491 276.8644,217.8687 276.6257,218.2669 276.3492,218.6397 276.0375,218.9836 275.6936,219.2953 275.3207,219.5719 274.9226,219.8105 274.503,220.0089 274.066,220.1653 273.6157,220.2781 273.1565,220.3462 272.6929,220.369 272.2293,220.3462 271.7701,220.2781 271.3199,220.1653 270.8828,220.0089 270.4632,219.8105 270.0651,219.5719 269.6923,219.2953 269.3483,218.9836 269.0366,218.6397 268.7601,218.2669 268.5214,217.8687 268.323,217.4491 268.1666,217.0121 268.0538,216.5618 267.9857,216.1026 267.9629,215.639 267.9857,215.1754 268.0538,214.7163 268.1666,214.266 268.323,213.8289 268.5214,213.4093 268.7601,213.0112 269.0366,212.6384 269.3483,212.2944 269.6923,211.9827 270.0651,211.7062 270.4632,211.4676 270.8828,211.2691 271.3199,211.1127 271.7701,210.9999 272.2293,210.9318 272.6929,210.9091 273.1565,210.9318 273.6157,210.9999 274.066,211.1127 274.503,211.2691 274.9226,211.4676 275.3207,211.7062 275.6936,211.9827 276.0375,212.2944 276.3492,212.6384"/>
    <polygon points="285.8416,204.7228 286.2612,204.9212 286.6593,205.1599 287.0322,205.4364 287.3761,205.7481 287.6878,206.092 287.9643,206.4649 288.203,206.863 288.4014,207.2826 288.5578,207.7197 288.6706,208.1699 288.7387,208.6291 288.7615,209.0927 288.7387,209.5563 288.6706,210.0155 288.5578,210.4657 288.4014,210.9028 288.203,211.3224 287.9643,211.7205 287.6878,212.0934 287.3761,212.4373 287.0322,212.749 286.6593,213.0255 286.2612,213.2642 285.8416,213.4626 285.4045,213.619 284.9543,213.7318 284.4951,213.7999 284.0315,213.8227 283.5679,213.7999 283.1087,213.7318 282.6585,213.619 282.2214,213.4626 281.8018,213.2642 281.4037,213.0255 281.0308,212.749 280.6869,212.4373 280.3752,212.0934 280.0987,211.7205 279.86,211.3224 279.6616,210.9028 279.5052,210.4657 279.3924,210.0155 279.3243,209.5563 279.3015,209.0927 279.3243,208.6291 279.3924,208.1699 279.5052,207.7197 279.6616,207.2826 279.86,206.863 280.0987,206.4649 280.3752,206.092 280.6869,205.7481 281.0308,205.4364 281.4037,205.1599 281.8018,204.9212 282.2214,204.7228 282.6585,204.5664 283.1087,204.4536 283.5679,204.3855 284.0315,204.3627 284.4951,204.3855 284.9543,204.4536 285.4045,204.5664"/>
    <polygon points="313.34,241.3607 313.4082,240.9016 313.5209,240.4513 313.6773,240.0143 313.8758,239.5947 314.1144,239.1965 314.3909,238.8237 314.7026,238.4798 315.0466,238.168 315.4194,237.8915 315.8176,237.6529 316.2372,237.4544 316.6742,237.2981 317.1245,237.1853 317.5836,237.1172 318.0472,237.0944 318.5109,237.1172 318.97,237.1853 319.4203,237.2981 319.8573,237.4544 320.2769,237.6529 320.6751,237.8915 321.0479,238.168 321.3918,238.4798 321.7036,238.8237 321.9801,239.1965 322.2187,239.5947 322.4172,240.0143 322.5735,240.4513 322.6863,240.9016 322.7544,241.3607 322.7772,241.8244 322.7544,242.288 322.6863,242.7471 322.5735,243.1974 322.4172,243.6344 322.2187,244.0541 321.9801,244.4522 321.7036,244.825 321.3918,245.169 321.0479,245.4807 320.6751,245.7572 320.2769,245.9958 319.8573,246.1943 319.4203,246.3507 318.97,246.4634 318.5109,246.5316 318.0472,246.5543 317.5836,246.5316 317.1245,246.4634 316.6742,246.3507 316.2372,246.1943 315.8176,245.9958 315.4194,245.7572 315.0466,245.4807 314.7026,245.169 314.3909,244.825 314.1144,244.4522 313.8758,244.0541 313.6773,243.6344 313.5209,243.1974 313.4082,242.7471 313.34,242.288 313.3173,241.8244"/>
    <polygon points="296.9497,237.3111 298.0443,237.1487 299.1496,237.0944 300.2549,237.1487 301.3495,237.3111 302.4229,237.5799 303.4649,237.9527 304.4652,238.4259 305.4144,238.9948 306.3032,239.654 307.1232,240.3971 307.8663,241.2171 308.5255,242.1059 309.0944,243.0551 309.5676,244.0554 309.9404,245.0974 310.2092,246.1708 310.3716,247.2654 310.4259,248.3707 310.3716,249.476 310.2092,250.5706 309.9404,251.644 309.5676,252.6859 309.0944,253.6863 308.5255,254.6355 307.8663,255.5243 307.1232,256.3442 306.3032,257.0874 305.4144,257.7466 304.4652,258.3155 303.4649,258.7886 302.4229,259.1614 301.3495,259.4303 300.2549,259.5927 299.1496,259.647 298.0443,259.5927 296.9497,259.4303 295.8763,259.1614 294.8344,258.7886 293.834,258.3155 292.8848,257.7466 291.996,257.0874 291.1761,256.3442 290.4329,255.5243 289.7737,254.6355 289.2048,253.6863 288.7317,252.6859 288.3589,251.644 288.09,250.5706 287.9276,249.476 287.8733,248.3707 287.9276,247.2654 288.09,246.1708 288.3589,245.0974 288.7317,244.0554 289.2048,243.0551 289.7737,242.1059 290.4329,241.2171 291.1761,240.3971 291.996,239.654 292.8848,238.9948 293.834,238.4259 294.8344,237.9527 295.8763,237.5799"/>
    <polygon points="287.7487,235.278 287.6944,236.3833 287.5321,237.4779 287.2632,238.5514 286.8904,239.5933 286.4173,240.5936 285.8483,241.5428 285.1891,242.4316 284.446,243.2516 283.6261,243.9947 282.7372,244.6539 281.7881,245.2228 280.7877,245.696 279.7458,246.0688 278.6723,246.3377 277.5777,246.5 276.4724,246.5543 275.3672,246.5 274.2725,246.3377 273.1991,246.0688 272.1572,245.696 271.1568,245.2228 270.2077,244.6539 269.3188,243.9947 268.4989,243.2516 267.7557,242.4316 267.0965,241.5428 266.5276,240.5936 266.0545,239.5933 265.6817,238.5514 265.4128,237.4779 265.2504,236.3833 265.1961,235.278 265.2504,234.1728 265.4128,233.0781 265.6817,232.0047 266.0545,230.9628 266.5276,229.9624 267.0965,229.0132 267.7557,228.1244 268.4989,227.3045 269.3188,226.5613 270.2077,225.9021 271.1568,225.3332 272.1572,224.8601 273.1991,224.4873 274.2725,224.2184 275.3672,224.056 276.4724,224.0017 277.5777,224.056 278.6723,224.2184 279.7458,224.4873 280.7877,224.8601 281.7881,225.3332 282.7372,225.9021 283.6261,226.5613 284.446,227.3045 285.1891,228.1244 285.8483,229.0132 286.4173,229.9624 286.8904,230.9628 287.2632,232.0047 287.5321,233.0781 287.6944,234.1728"/>
    <polygon points="267.9857,255.3806 267.9629,254.917 267.9857,254.4534 268.0538,253.9943 268.1666,253.544 268.323,253.1069 268.5214,252.6873 268.7601,252.2892 269.0366,251.9164 269.3483,251.5724 269.6923,251.2607 270.0651,250.9842 270.4632,250.7456 270.8828,250.5471 271.3199,250.3907 271.7701,250.2779 272.2293,250.2098 272.6929,250.1871 273.1565,250.2098 273.6157,250.2779 274.066,250.3907 274.503,250.5471 274.9226,250.7456 275.3207,250.9842 275.6936,251.2607 276.0375,251.5724 276.3492,251.9164 276.6257,252.2892 276.8644,252.6873 277.0628,253.1069 277.2192,253.544 277.332,253.9943 277.4001,254.4534 277.4229,254.917 277.4001,255.3806 277.332,255.8398 277.2192,256.2901 277.0628,256.7271 276.8644,257.1467 276.6257,257.5449 276.3492,257.9177 276.0375,258.2616 275.6936,258.5733 275.3207,258.8499 274.9226,259.0885 274.503,259.287 274.066,259.4433 273.6157,259.5561 273.1565,259.6242 272.6929,259.647 272.2293,259.6242 271.7701,259.5561 271.3199,259.4433 270.8828,259.287 270.4632,259.0885 270.0651,258.8499 269.6923,258.5733 269.3483,258.2616 269.0366,257.9177 268.7601,257.5449 268.5214,257.1467 268.323,256.7271 268.1666,256.2901 268.0538,255.8398"/>
    <polygon points="277.332,267.0869 277.4001,267.5461 277.4229,268.0097 277.4001,268.4733 277.332,268.9325 277.2192,269.3827 277.0628,269.8198 276.8644,270.2394 276.6257,270.6375 276.3492,271.0104 276.0375,271.3543 275.6936,271.666 275.3207,271.9425 274.9226,272.1812 274.503,272.3796 274.066,272.536 273.6157,272.6488 273.1565,272.7169 272.6929,272.7397 272.2293,272.7169 271.7701,272.6488 271.3199,272.536 270.8828,272.3796 270.4632,272.1812 270.0651,271.9425 269.6923,271.666 269.3483,271.3543 269.0366,271.0104 268.7601,270.6375 268.5214,270.2394 268.323,269.8198 268.1666,269.3827 268.0538,268.9325 267.9857,268.4733 267.9629,268.0097 267.9857,267.5461 268.0538,267.0869 268.1666,266.6367 268.323,266.1996 268.5214,265.78 268.7601,265.3819 269.0366,265.009 269.3483,264.6651 269.6923,264.3534 270.0651,264.0769 270.4632,263.8382 270.8828,263.6398 271.3199,263.4834 271.7701,263.3706 272.2293,263.3025 272.6929,263.2797 273.1565,263.3025 273.6157,263.3706 274.066,263.4834 274.503,263.6398 274.9226,263.8382 275.3207,264.0769 275.6936,264.3534 276.0375,264.6651 276.3492,265.009 276.6257,265.3819 276.8644,265.78 277.0628,266.1996 277.2192,266.6367"/>
    <polygon points="281.0308,265.1197 280.6869,264.808 280.3752,264.464 280.0987,264.0912 279.86,263.6931 279.6616,263.2734 279.5052,262.8364 279.3924,262.3861 279.3243,261.927 279.3015,261.4634 279.3243,260.9997 279.3924,260.5406 279.5052,260.0903 279.6616,259.6533 279.86,259.2337 280.0987,258.8355 280.3752,258.4627 280.6869,258.1188 281.0308,257.807 281.4037,257.5305 281.8018,257.2919 282.2214,257.0934 282.6585,256.9371 283.1087,256.8243 283.5679,256.7562 284.0315,256.7334 284.4951,256.7562 284.9543,256.8243 285.4045,256.9371 285.8416,257.0934 286.2612,257.2919 286.6593,257.5305 287.0322,257.807 287.3761,258.1188 287.6878,258.4627 287.9643,258.8355 288.203,259.2337 288.4014,259.6533 288.5578,260.0903 288.6706,260.5406 288.7387,260.9997 288.7615,261.4634 288.7387,261.927 288.6706,262.3861 288.5578,262.8364 288.4014,263.2734 288.203,263.6931 287.9643,264.0912 287.6878,264.464 287.3761,264.808 287.0322,265.1197 286.6593,265.3962 286.2612,265.6348 285.8416,265.8333 285.4045,265.9897 284.9543,266.1024 284.4951,266.1706 284.0315,266.1933 283.5679,266.1706 283.1087,266.1024 282.6585,265.9897 282.2214,265.8333 281.8018,265.6348 281.4037,265.3962"/>
    <polygon points="303.4649,264.1381 304.4652,264.6112 305.4144,265.1801 306.3032,265.8393 307.1232,266.5825 307.8663,267.4024 308.5255,268.2912 309.0944,269.2404 309.5676,270.2408 309.9404,271.2827 310.2092,272.3561 310.3716,273.4508 310.4259,274.556 310.3716,275.6613 310.2092,276.7559 309.9404,277.8294 309.5676,278.8713 309.0944,279.8716 308.5255,280.8208 307.8663,281.7096 307.1232,282.5296 306.3032,283.2727 305.4144,283.9319 304.4652,284.5008 303.4649,284.974 302.4229,285.3468 301.3495,285.6157 300.2549,285.778 299.1496,285.8323 298.0443,285.778 296.9497,285.6157 295.8763,285.3468 294.8344,284.974 293.834,284.5008 292.8848,283.9319 291.996,283.2727 291.1761,282.5296 290.4329,281.7096 289.7737,280.8208 289.2048,279.8716 288.7317,278.8713 288.3589,277.8294 288.09,276.7559 287.9276,275.6613 287.8733,274.556 287.9276,273.4508 288.09,272.3561 288.3589,271.2827 288.7317,270.2408 289.2048,269.2404 289.7737,268.2912 290.4329,267.4024 291.1761,266.5825 291.996,265.8393 292.8848,265.1801 293.834,264.6112 294.8344,264.1381 295.8763,263.7653 296.9497,263.4964 298.0443,263.334 299.1496,263.2797 300.2549,263.334 301.3495,263.4964 302.4229,263.7653"/>
    <polygon points="293.56,289.8251 293.997,289.6687 294.4473,289.5559 294.9065,289.4878 295.3701,289.4651 295.8337,289.4878 296.2929,289.5559 296.7431,289.6687 297.1802,289.8251 297.5998,290.0236 297.9979,290.2622 298.3707,290.5387 298.7147,290.8504 299.0264,291.1944 299.3029,291.5672 299.5415,291.9653 299.74,292.3849 299.8964,292.822 300.0092,293.2723 300.0773,293.7314 300.1001,294.195 300.0773,294.6586 300.0092,295.1178 299.8964,295.5681 299.74,296.0051 299.5415,296.4247 299.3029,296.8229 299.0264,297.1957 298.7147,297.5396 298.3707,297.8513 297.9979,298.1279 297.5998,298.3665 297.1802,298.565 296.7431,298.7213 296.2929,298.8341 295.8337,298.9022 295.3701,298.925 294.9065,298.9022 294.4473,298.8341 293.997,298.7213 293.56,298.565 293.1404,298.3665 292.7422,298.1279 292.3694,297.8513 292.0255,297.5396 291.7138,297.1957 291.4373,296.8229 291.1986,296.4247 291.0002,296.0051 290.8438,295.5681 290.731,295.1178 290.6629,294.6586 290.6401,294.195 290.6629,293.7314 290.731,293.2723 290.8438,292.822 291.0002,292.3849 291.1986,291.9653 291.4373,291.5672 291.7138,291.1944 292.0255,290.8504 292.3694,290.5387 292.7422,290.2622 293.1404,290.0236"/>
    <polygon points="284.9543,283.0096 285.4045,283.1224 285.8416,283.2788 286.2612,283.4772 286.6593,283.7159 287.0322,283.9924 287.3761,284.3041 287.6878,284.648 287.9643,285.0209 288.203,285.419 288.4014,285.8386 288.5578,286.2757 288.6706,286.7259 288.7387,287.1851 288.7615,287.6487 288.7387,288.1123 288.6706,288.5715 288.5578,289.0217 288.4014,289.4588 288.203,289.8784 287.9643,290.2765 287.6878,290.6494 287.3761,290.9933 287.0322,291.305 286.6593,291.5815 286.2612,291.8202 285.8416,292.0186 285.4045,292.175 284.9543,292.2878 284.4951,292.3559 284.0315,292.3787 283.5679,292.3559 283.1087,292.2878 282.6585,292.175 282.2214,292.0186 281.8018,291.8202 281.4037,291.5815 281.0308,291.305 280.6869,290.9933 280.3752,290.6494 280.0987,290.2765 279.86,289.8784 279.6616,289.4588 279.5052,289.0217 279.3924,288.5715 279.3243,288.1123 279.3015,287.6487 279.3243,287.1851 279.3924,286.7259 279.5052,286.2757 279.6616,285.8386 279.86,285.419 280.0987,285.0209 280.3752,284.648 280.6869,284.3041 281.0308,283.9924 281.4037,283.7159 281.8018,283.4772 282.2214,283.2788 282.6585,283.1224 283.1087,283.0096 283.5679,282.9415 284.0315,282.9187 284.4951,282.9415"/>
    <polygon points="272.2293,285.8096 271.7701,285.7414 271.3199,285.6287 270.8828,285.4723 270.4632,285.2738 270.0651,285.0352 269.6923,284.7587 269.3483,284.447 269.0366,284.103 268.7601,283.7302 268.5214,283.3321 268.323,282.9124 268.1666,282.4754 268.0538,282.0251 267.9857,281.566 267.9629,281.1024 267.9857,280.6387 268.0538,280.1796 268.1666,279.7293 268.323,279.2923 268.5214,278.8727 268.7601,278.4745 269.0366,278.1017 269.3483,277.7578 269.6923,277.446 270.0651,277.1695 270.4632,276.9309 270.8828,276.7324 271.3199,276.5761 271.7701,276.4633 272.2293,276.3952 272.6929,276.3724 273.1565,276.3952 273.6157,276.4633 274.066,276.5761 274.503,276.7324 274.9226,276.9309 275.3207,277.1695 275.6936,277.446 276.0375,277.7578 276.3492,278.1017 276.6257,278.4745 276.8644,278.8727 277.0628,279.2923 277.2192,279.7293 277.332,280.1796 277.4001,280.6387 277.4229,281.1024 277.4001,281.566 277.332,282.0251 277.2192,282.4754 277.0628,282.9124 276.8644,283.3321 276.6257,283.7302 276.3492,284.103 276.0375,284.447 275.6936,284.7587 275.3207,285.0352 274.9226,285.2738 274.503,285.4723 274.066,285.6287 273.6157,285.7414 273.1565,285.8096 272.6929,285.8323"/>
    <polygon points="258.0097,284.3041 258.3537,283.9924 258.7265,283.7159 259.1246,283.4772 259.5442,283.2788 259.9813,283.1224 260.4316,283.0096 260.8907,282.9415 261.3543,282.9187 261.8179,282.9415 262.2771,283.0096 262.7274,283.1224 263.1644,283.2788 263.584,283.4772 263.9822,283.7159 264.355,283.9924 264.6989,284.3041 265.0106,284.648 265.2872,285.0209 265.5258,285.419 265.7243,285.8386 265.8806,286.2757 265.9934,286.7259 266.0615,287.1851 266.0843,287.6487 266.0615,288.1123 265.9934,288.5715 265.8806,289.0217 265.7243,289.4588 265.5258,289.8784 265.2872,290.2765 265.0106,290.6494 264.6989,290.9933 264.355,291.305 263.9822,291.5815 263.584,291.8202 263.1644,292.0186 262.7274,292.175 262.2771,292.2878 261.8179,292.3559 261.3543,292.3787 260.8907,292.3559 260.4316,292.2878 259.9813,292.175 259.5442,292.0186 259.1246,291.8202 258.7265,291.5815 258.3537,291.305 258.0097,290.9933 257.698,290.6494 257.4215,290.2765 257.1829,289.8784 256.9844,289.4588 256.828,289.0217 256.7152,288.5715 256.6471,288.1123 256.6244,287.6487 256.6471,287.1851 256.7152,286.7259 256.828,286.2757 256.9844,285.8386 257.1829,285.419 257.4215,285.0209 257.698,284.648"/>
    <polygon points="259.5442,270.1861 259.9813,270.0297 260.4316,269.9169 260.8907,269.8488 261.3543,269.8261 261.8179,269.8488 262.2771,269.9169 262.7274,270.0297 263.1644,270.1861 263.584,270.3846 263.9822,270.6232 264.355,270.8997 264.6989,271.2114 265.0106,271.5554 265.2872,271.9282 265.5258,272.3263 265.7243,272.7459 265.8806,273.183 265.9934,273.6333 266.0615,274.0924 266.0843,274.556 266.0615,275.0196 265.9934,275.4788 265.8806,275.9291 265.7243,276.3661 265.5258,276.7857 265.2872,277.1839 265.0106,277.5567 264.6989,277.9006 264.355,278.2123 263.9822,278.4889 263.584,278.7275 263.1644,278.926 262.7274,279.0823 262.2771,279.1951 261.8179,279.2632 261.3543,279.286 260.8907,279.2632 260.4316,279.1951 259.9813,279.0823 259.5442,278.926 259.1246,278.7275 258.7265,278.4889 258.3537,278.2123 258.0097,277.9006 257.698,277.5567 257.4215,277.1839 257.1829,276.7857 256.9844,276.3661 256.828,275.9291 256.7152,275.4788 256.6471,275.0196 256.6244,274.556 256.6471,274.0924 256.7152,273.6333 256.828,273.183 256.9844,272.7459 257.1829,272.3263 257.4215,271.9282 257.698,271.5554 258.0097,271.2114 258.3537,270.8997 258.7265,270.6232 259.1246,270.3846"/>
    <polygon points="249.48,258.7886 248.4797,258.3155 247.5305,257.7466 246.6417,257.0874 245.8217,256.3442 245.0786,255.5243 244.4194,254.6355 243.8505,253.6863 243.3773,252.6859 243.0045,251.644 242.7356,250.5706 242.5733,249.476 242.519,248.3707 242.5733,247.2654 242.7356,246.1708 243.0045,245.0974 243.3773,244.0554 243.8505,243.0551 244.4194,242.1059 245.0786,241.2171 245.8217,240.3971 246.6417,239.654 247.5305,238.9948 248.4797,238.4259 249.48,237.9527 250.5219,237.5799 251.5954,237.3111 252.69,237.1487 253.7953,237.0944 254.9005,237.1487 255.9952,237.3111 257.0686,237.5799 258.1105,237.9527 259.1109,238.4259 260.0601,238.9948 260.9489,239.654 261.7688,240.3971 262.512,241.2171 263.1712,242.1059 263.7401,243.0551 264.2132,244.0554 264.586,245.0974 264.8549,246.1708 265.0173,247.2654 265.0716,248.3707 265.0173,249.476 264.8549,250.5706 264.586,251.644 264.2132,252.6859 263.7401,253.6863 263.1712,254.6355 262.512,255.5243 261.7688,256.3442 260.9489,257.0874 260.0601,257.7466 259.1109,258.3155 258.1105,258.7886 257.0686,259.1614 255.9952,259.4303 254.9005,259.5927 253.7953,259.647 252.69,259.5927 251.5954,259.4303 250.5219,259.1614"/>
    <polygon points="228.9182,246.3377 227.8448,246.0688 226.8029,245.696 225.8025,245.2228 224.8533,244.6539 223.9645,243.9947 223.1446,243.2516 222.4014,242.4316 221.7422,241.5428 221.1733,240.5936 220.7002,239.5933 220.3274,238.5514 220.0585,237.4779 219.8961,236.3833 219.8418,235.278 219.8961,234.1728 220.0585,233.0781 220.3274,232.0047 220.7002,230.9628 221.1733,229.9624 221.7422,229.0132 222.4014,228.1244 223.1446,227.3045 223.9645,226.5613 224.8533,225.9021 225.8025,225.3332 226.8029,224.8601 227.8448,224.4873 228.9182,224.2184 230.0128,224.056 231.1181,224.0017 232.2234,224.056 233.318,224.2184 234.3914,224.4873 235.4334,224.8601 236.4337,225.3332 237.3829,225.9021 238.2717,226.5613 239.0917,227.3045 239.8348,228.1244 240.494,229.0132 241.0629,229.9624 241.5361,230.9628 241.9089,232.0047 242.1777,233.0781 242.3401,234.1728 242.3944,235.278 242.3401,236.3833 242.1777,237.4779 241.9089,238.5514 241.5361,239.5933 241.0629,240.5936 240.494,241.5428 239.8348,242.4316 239.0917,243.2516 238.2717,243.9947 237.3829,244.6539 236.4337,245.2228 235.4334,245.696 234.3914,246.0688 233.318,246.3377 232.2234,246.5 231.1181,246.5543 230.0128,246.5"/>
    <polygon points="212.7562,232.6033 213.7566,232.1302 214.7057,231.5613 215.5946,230.9021 216.4145,230.1589 217.1576,229.339 217.8169,228.4501 218.3858,227.501 218.8589,226.5006 219.2317,225.4587 219.5006,224.3853 219.663,223.2906 219.7173,222.1854 219.663,221.0801 219.5006,219.9855 219.2317,218.912 218.8589,217.8701 218.3858,216.8697 217.8169,215.9206 217.1576,215.0317 216.4145,214.2118 215.5946,213.4687 214.7057,212.8095 213.7566,212.2405 212.7562,211.7674 211.7143,211.3946 210.6408,211.1257 209.5462,210.9634 208.4409,210.9091 207.3357,210.9634 206.241,211.1257 205.1676,211.3946 204.1257,211.7674 203.1253,212.2405 202.1762,212.8095 201.2873,213.4687 200.4674,214.2118 199.7242,215.0317 199.065,215.9206 198.4961,216.8697 198.023,217.8701 197.6502,218.912 197.3813,219.9855 197.2189,221.0801 197.1646,222.1854 197.2189,223.2906 197.3813,224.3853 197.6502,225.4587 198.023,226.5006 198.4961,227.501 199.065,228.4501 199.7242,229.339 200.4674,230.1589 201.2873,230.9021 202.1762,231.5613 203.1253,232.1302 204.1257,232.6033 205.1676,232.9761 206.241,233.245 207.3357,233.4074 208.4409,233.4617 209.5462,233.4074 210.6408,233.245 211.7143,232.9761"/>
    <polygon points="197.3813,246.1708 197.2189,247.2654 197.1646,248.3707 197.2189,249.476 197.3813,250.5706 197.6502,251.644 198.023,252.6859 198.4961,253.6863 199.065,254.6355 199.7242,255.5243 200.4674,256.3442 201.2873,257.0874 202.1762,257.7466 203.1253,258.3155 204.1257,258.7886 205.1676,259.1614 206.241,259.4303 207.3357,259.5927 208.4409,259.647 209.5462,259.5927 210.6408,259.4303 211.7143,259.1614 212.7562,258.7886 213.7566,258.3155 214.7057,257.7466 215.5946,257.0874 216.4145,256.3442 217.1576,255.5243 217.8169,254.6355 218.3858,253.6863 218.8589,252.6859 219.2317,251.644 219.5006,250.5706 219.663,249.476 219.7173,248.3707 219.663,247.2654 219.5006,246.1708 219.2317,245.0974 218.8589,244.0554 218.3858,243.0551 217.8169,242.1059 217.1576,241.2171 216.4145,240.3971 215.5946,239.654 214.7057,238.9948 213.7566,238.4259 212.7562,237.9527 211.7143,237.5799 210.6408,237.3111 209.5462,237.1487 208.4409,237.0944 207.3357,237.1487 206.241,237.3111 205.1676,237.5799 204.1257,237.9527 203.1253,238.4259 202.1762,238.9948 201.2873,239.654 200.4674,240.3971 199.7242,241.2171 199.065,242.1059 198.4961,243.0551 198.023,244.0554 197.6502,245.0974"/>
    <polygon points="224.3379,251.2607 223.994,251.5724 223.6823,251.9164 223.4058,252.2892 223.1671,252.6873 222.9687,253.1069 222.8123,253.544 222.6995,253.9943 222.6314,254.4534 222.6086,254.917 222.6314,255.3806 222.6995,255.8398 222.8123,256.2901 222.9687,256.7271 223.1671,257.1467 223.4058,257.5449 223.6823,257.9177 223.994,258.2616 224.3379,258.5733 224.7108,258.8499 225.1089,259.0885 225.5285,259.287 225.9655,259.4433 226.4158,259.5561 226.875,259.6242 227.3386,259.647 227.8022,259.6242 228.2614,259.5561 228.7116,259.4433 229.1487,259.287 229.5683,259.0885 229.9664,258.8499 230.3392,258.5733 230.6832,258.2616 230.9949,257.9177 231.2714,257.5449 231.51,257.1467 231.7085,256.7271 231.8649,256.2901 231.9777,255.8398 232.0458,255.3806 232.0686,254.917 232.0458,254.4534 231.9777,253.9943 231.8649,253.544 231.7085,253.1069 231.51,252.6873 231.2714,252.2892 230.9949,251.9164 230.6832,251.5724 230.3392,251.2607 229.9664,250.9842 229.5683,250.7456 229.1487,250.5471 228.7116,250.3907 228.2614,250.2779 227.8022,250.2098 227.3386,250.1871 226.875,250.2098 226.4158,250.2779 225.9655,250.3907 225.5285,250.5471 225.1089,250.7456 224.7108,250.9842"/>
    <polygon points="210.6408,289.6817 209.5462,289.5194 208.4409,289.4651 207.3357,289.5194 206.241,289.6817 205.1676,289.9506 204.1257,290.3234 203.1253,290.7965 202.1762,291.3655 201.2873,292.0247 200.4674,292.7678 199.7242,293.5878 199.065,294.4766 198.4961,295.4257 198.023,296.4261 197.6502,297.468 197.3813,298.5415 197.2189,299.6361 197.1646,300.7414 197.2189,301.8466 197.3813,302.9413 197.6502,304.0147 198.023,305.0566 198.4961,306.057 199.065,307.0061 199.7242,307.895 200.4674,308.7149 201.2873,309.4581 202.1762,310.1173 203.1253,310.6862 204.1257,311.1593 205.1676,311.5321 206.241,311.801 207.3357,311.9634 208.4409,312.0177 209.5462,311.9634 210.6408,311.801 211.7143,311.5321 212.7562,311.1593 213.7566,310.6862 214.7057,310.1173 215.5946,309.4581 216.4145,308.7149 217.1576,307.895 217.8169,307.0061 218.3858,306.057 218.8589,305.0566 219.2317,304.0147 219.5006,302.9413 219.663,301.8466 219.7173,300.7414 219.663,299.6361 219.5006,298.5415 219.2317,297.468 218.8589,296.4261 218.3858,295.4257 217.8169,294.4766 217.1576,293.5878 216.4145,292.7678 215.5946,292.0247 214.7057,291.3655 213.7566,290.7965 212.7562,290.3234 211.7143,289.9506"/>
    <polygon points="208.006,317.0358 207.6621,316.724 207.2892,316.4475 206.8911,316.2089 206.4715,316.0104 206.0345,315.8541 205.5842,315.7413 205.125,315.6732 204.6614,315.6504 204.1978,315.6732 203.7386,315.7413 203.2884,315.8541 202.8513,316.0104 202.4317,316.2089 202.0336,316.4475 201.6608,316.724 201.3168,317.0358 201.0051,317.3797 200.7286,317.7525 200.49,318.1507 200.2915,318.5703 200.1351,319.0073 200.0223,319.4576 199.9542,319.9167 199.9314,320.3804 199.9542,320.844 200.0223,321.3031 200.1351,321.7534 200.2915,322.1904 200.49,322.6101 200.7286,323.0082 201.0051,323.381 201.3168,323.725 201.6608,324.0367 202.0336,324.3132 202.4317,324.5518 202.8513,324.7503 203.2884,324.9067 203.7386,325.0195 204.1978,325.0876 204.6614,325.1103 205.125,325.0876 205.5842,325.0195 206.0345,324.9067 206.4715,324.7503 206.8911,324.5518 207.2892,324.3132 207.6621,324.0367 208.006,323.725 208.3177,323.381 208.5942,323.0082 208.8329,322.6101 209.0313,322.1904 209.1877,321.7534 209.3005,321.3031 209.3686,320.844 209.3914,320.3804 209.3686,319.9167 209.3005,319.4576 209.1877,319.0073 209.0313,318.5703 208.8329,318.1507 208.5942,317.7525 208.3177,317.3797"/>
    <polygon points="178.3279,330.4724 178.0514,330.8452 177.8128,331.2433 177.6143,331.663 177.458,332.1 177.3452,332.5503 177.2771,333.0094 177.2543,333.473 177.2771,333.9367 177.3452,334.3958 177.458,334.8461 177.6143,335.2831 177.8128,335.7027 178.0514,336.1009 178.3279,336.4737 178.6397,336.8176 178.9836,337.1294 179.3564,337.4059 179.7546,337.6445 180.1742,337.843 180.6112,337.9993 181.0615,338.1121 181.5206,338.1802 181.9843,338.203 182.4479,338.1802 182.907,338.1121 183.3573,337.9993 183.7943,337.843 184.2139,337.6445 184.6121,337.4059 184.9849,337.1294 185.3288,336.8176 185.6406,336.4737 185.9171,336.1009 186.1557,335.7027 186.3542,335.2831 186.5106,334.8461 186.6233,334.3958 186.6914,333.9367 186.7142,333.473 186.6914,333.0094 186.6233,332.5503 186.5106,332.1 186.3542,331.663 186.1557,331.2433 185.9171,330.8452 185.6406,330.4724 185.3288,330.1284 184.9849,329.8167 184.6121,329.5402 184.2139,329.3016 183.7943,329.1031 183.3573,328.9467 182.907,328.8339 182.4479,328.7658 181.9843,328.7431 181.5206,328.7658 181.0615,328.8339 180.6112,328.9467 180.1742,329.1031 179.7546,329.3016 179.3564,329.5402 178.9836,329.8167 178.6397,330.1284"/>
    <polygon points="171.0602,345.1385 170.2402,344.3953 169.3514,343.7361 168.4022,343.1672 167.4019,342.6941 166.36,342.3213 165.2865,342.0524 164.1919,341.89 163.0866,341.8357 161.9813,341.89 160.8867,342.0524 159.8133,342.3213 158.7714,342.6941 157.771,343.1672 156.8218,343.7361 155.933,344.3953 155.1131,345.1385 154.3699,345.9584 153.7107,346.8473 153.1418,347.7964 152.6687,348.7968 152.2959,349.8387 152.027,350.9121 151.8646,352.0068 151.8103,353.112 151.8646,354.2173 152.027,355.3119 152.2959,356.3854 152.6687,357.4273 153.1418,358.4276 153.7107,359.3768 154.3699,360.2656 155.1131,361.0856 155.933,361.8287 156.8218,362.4879 157.771,363.0568 158.7714,363.53 159.8133,363.9028 160.8867,364.1717 161.9813,364.334 163.0866,364.3883 164.1919,364.334 165.2865,364.1717 166.36,363.9028 167.4019,363.53 168.4022,363.0568 169.3514,362.4879 170.2402,361.8287 171.0602,361.0856 171.8033,360.2656 172.4625,359.3768 173.0314,358.4276 173.5046,357.4273 173.8774,356.3854 174.1462,355.3119 174.3086,354.2173 174.3629,353.112 174.3086,352.0068 174.1462,350.9121 173.8774,349.8387 173.5046,348.7968 173.0314,347.7964 172.4625,346.8473 171.8033,345.9584"/>
    <polygon points="188.9529,351.302 188.7965,351.739 188.6837,352.1893 188.6156,352.6484 188.5929,353.112 188.6156,353.5757 188.6837,354.0348 188.7965,354.4851 188.9529,354.9221 189.1514,355.3417 189.39,355.7399 189.6665,356.1127 189.9782,356.4566 190.3222,356.7684 190.695,357.0449 191.0931,357.2835 191.5128,357.482 191.9498,357.6383 192.4001,357.7511 192.8592,357.8192 193.3228,357.842 193.7865,357.8192 194.2456,357.7511 194.6959,357.6383 195.1329,357.482 195.5525,357.2835 195.9507,357.0449 196.3235,356.7684 196.6674,356.4566 196.9792,356.1127 197.2557,355.7399 197.4943,355.3417 197.6928,354.9221 197.8491,354.4851 197.9619,354.0348 198.03,353.5757 198.0528,353.112 198.03,352.6484 197.9619,352.1893 197.8491,351.739 197.6928,351.302 197.4943,350.8823 197.2557,350.4842 196.9792,350.1114 196.6674,349.7674 196.3235,349.4557 195.9507,349.1792 195.5525,348.9406 195.1329,348.7421 194.6959,348.5857 194.2456,348.4729 193.7865,348.4048 193.3228,348.3821 192.8592,348.4048 192.4001,348.4729 191.9498,348.5857 191.5128,348.7421 191.0931,348.9406 190.695,349.1792 190.3222,349.4557 189.9782,349.7674 189.6665,350.1114 189.39,350.4842 189.1514,350.8823"/>
    <polygon points="186.1557,361.8881 186.3542,361.4684 186.5106,361.0314 186.6233,360.5811 186.6914,360.122 186.7142,359.6584 186.6914,359.1947 186.6233,358.7356 186.5106,358.2853 186.3542,357.8483 186.1557,357.4287 185.9171,357.0305 185.6406,356.6577 185.3288,356.3138 184.9849,356.002 184.6121,355.7255 184.2139,355.4869 183.7943,355.2884 183.3573,355.1321 182.907,355.0193 182.4479,354.9512 181.9843,354.9284 181.5206,354.9512 181.0615,355.0193 180.6112,355.1321 180.1742,355.2884 179.7546,355.4869 179.3564,355.7255 178.9836,356.002 178.6397,356.3138 178.3279,356.6577 178.0514,357.0305 177.8128,357.4287 177.6143,357.8483 177.458,358.2853 177.3452,358.7356 177.2771,359.1947 177.2543,359.6584 177.2771,360.122 177.3452,360.5811 177.458,361.0314 177.6143,361.4684 177.8128,361.8881 178.0514,362.2862 178.3279,362.659 178.6397,363.003 178.9836,363.3147 179.3564,363.5912 179.7546,363.8298 180.1742,364.0283 180.6112,364.1847 181.0615,364.2975 181.5206,364.3656 181.9843,364.3883 182.4479,364.3656 182.907,364.2975 183.3573,364.1847 183.7943,364.0283 184.2139,363.8298 184.6121,363.5912 184.9849,363.3147 185.3288,363.003 185.6406,362.659 185.9171,362.2862"/>
    <polygon points="189.6665,363.204 189.39,363.5769 189.1514,363.975 188.9529,364.3946 188.7965,364.8317 188.6837,365.2819 188.6156,365.7411 188.5929,366.2047 188.6156,366.6683 188.6837,367.1275 188.7965,367.5777 188.9529,368.0148 189.1514,368.4344 189.39,368.8325 189.6665,369.2054 189.9782,369.5493 190.3222,369.861 190.695,370.1375 191.0931,370.3762 191.5128,370.5746 191.9498,370.731 192.4001,370.8438 192.8592,370.9119 193.3228,370.9347 193.7865,370.9119 194.2456,370.8438 194.6959,370.731 195.1329,370.5746 195.5525,370.3762 195.9507,370.1375 196.3235,369.861 196.6674,369.5493 196.9792,369.2054 197.2557,368.8325 197.4943,368.4344 197.6928,368.0148 197.8491,367.5777 197.9619,367.1275 198.03,366.6683 198.0528,366.2047 198.03,365.7411 197.9619,365.2819 197.8491,364.8317 197.6928,364.3946 197.4943,363.975 197.2557,363.5769 196.9792,363.204 196.6674,362.8601 196.3235,362.5484 195.9507,362.2719 195.5525,362.0332 195.1329,361.8348 194.6959,361.6784 194.2456,361.5656 193.7865,361.4975 193.3228,361.4747 192.8592,361.4975 192.4001,361.5656 191.9498,361.6784 191.5128,361.8348 191.0931,362.0332 190.695,362.2719 190.3222,362.5484 189.9782,362.8601"/>
    <polygon points="171.8033,386.451 172.4625,385.5621 173.0314,384.613 173.5046,383.6126 173.8774,382.5707 174.1462,381.4973 174.3086,380.4026 174.3629,379.2974 174.3086,378.1921 174.1462,377.0975 173.8774,376.024 173.5046,374.9821 173.0314,373.9818 172.4625,373.0326 171.8033,372.1438 171.0602,371.3238 170.2402,370.5807 169.3514,369.9215 168.4022,369.3526 167.4019,368.8794 166.36,368.5066 165.2865,368.2377 164.1919,368.0754 163.0866,368.0211 161.9813,368.0754 160.8867,368.2377 159.8133,368.5066 158.7714,368.8794 157.771,369.3526 156.8218,369.9215 155.933,370.5807 155.1131,371.3238 154.3699,372.1438 153.7107,373.0326 153.1418,373.9818 152.6687,374.9821 152.2959,376.024 152.027,377.0975 151.8646,378.1921 151.8103,379.2974 151.8646,380.4026 152.027,381.4973 152.2959,382.5707 152.6687,383.6126 153.1418,384.613 153.7107,385.5621 154.3699,386.451 155.1131,387.2709 155.933,388.0141 156.8218,388.6733 157.771,389.2422 158.7714,389.7153 159.8133,390.0881 160.8867,390.357 161.9813,390.5194 163.0866,390.5737 164.1919,390.5194 165.2865,390.357 166.36,390.0881 167.4019,389.7153 168.4022,389.2422 169.3514,388.6733 170.2402,388.0141 171.0602,387.2709"/>
    <polygon points="163.9462,398.0136 163.8334,397.5633 163.677,397.1263 163.4786,396.7067 163.2399,396.3085 162.9634,395.9357 162.6517,395.5918 162.3077,395.2801 161.9349,395.0035 161.5368,394.7649 161.1172,394.5664 160.6801,394.4101 160.2299,394.2973 159.7707,394.2292 159.3071,394.2064 158.8435,394.2292 158.3843,394.2973 157.934,394.4101 157.497,394.5664 157.0774,394.7649 156.6793,395.0035 156.3064,395.2801 155.9625,395.5918 155.6508,395.9357 155.3743,396.3085 155.1356,396.7067 154.9372,397.1263 154.7808,397.5633 154.668,398.0136 154.5999,398.4728 154.5771,398.9364 154.5999,399.4 154.668,399.8591 154.7808,400.3094 154.9372,400.7465 155.1356,401.1661 155.3743,401.5642 155.6508,401.937 155.9625,402.281 156.3064,402.5927 156.6793,402.8692 157.0774,403.1078 157.497,403.3063 157.934,403.4627 158.3843,403.5755 158.8435,403.6436 159.3071,403.6663 159.7707,403.6436 160.2299,403.5755 160.6801,403.4627 161.1172,403.3063 161.5368,403.1078 161.9349,402.8692 162.3077,402.5927 162.6517,402.281 162.9634,401.937 163.2399,401.5642 163.4786,401.1661 163.677,400.7465 163.8334,400.3094 163.9462,399.8591 164.0143,399.4 164.0371,398.9364 164.0143,398.4728"/>
    <polygon points="147.0457,361.5656 146.5955,361.6784 146.1584,361.8348 145.7388,362.0332 145.3407,362.2719 144.9678,362.5484 144.6239,362.8601 144.3122,363.204 144.0357,363.5769 143.797,363.975 143.5986,364.3946 143.4422,364.8317 143.3294,365.2819 143.2613,365.7411 143.2385,366.2047 143.2613,366.6683 143.3294,367.1275 143.4422,367.5777 143.5986,368.0148 143.797,368.4344 144.0357,368.8325 144.3122,369.2054 144.6239,369.5493 144.9678,369.861 145.3407,370.1375 145.7388,370.3762 146.1584,370.5746 146.5955,370.731 147.0457,370.8438 147.5049,370.9119 147.9685,370.9347 148.4321,370.9119 148.8913,370.8438 149.3415,370.731 149.7786,370.5746 150.1982,370.3762 150.5963,370.1375 150.9692,369.861 151.3131,369.5493 151.6248,369.2054 151.9013,368.8325 152.14,368.4344 152.3384,368.0148 152.4948,367.5777 152.6076,367.1275 152.6757,366.6683 152.6985,366.2047 152.6757,365.7411 152.6076,365.2819 152.4948,364.8317 152.3384,364.3946 152.14,363.975 151.9013,363.5769 151.6248,363.204 151.3131,362.8601 150.9692,362.5484 150.5963,362.2719 150.1982,362.0332 149.7786,361.8348 149.3415,361.6784 148.8913,361.5656 148.4321,361.4975 147.9685,361.4747 147.5049,361.4975"/>
    <polygon points="148.4321,335.3122 148.8913,335.3803 149.3415,335.4931 149.7786,335.6494 150.1982,335.8479 150.5963,336.0865 150.9692,336.363 151.3131,336.6748 151.6248,337.0187 151.9013,337.3915 152.14,337.7897 152.3384,338.2093 152.4948,338.6463 152.6076,339.0966 152.6757,339.5557 152.6985,340.0194 152.6757,340.483 152.6076,340.9421 152.4948,341.3924 152.3384,341.8294 152.14,342.2491 151.9013,342.6472 151.6248,343.02 151.3131,343.364 150.9692,343.6757 150.5963,343.9522 150.1982,344.1908 149.7786,344.3893 149.3415,344.5457 148.8913,344.6585 148.4321,344.7266 147.9685,344.7493 147.5049,344.7266 147.0457,344.6585 146.5955,344.5457 146.1584,344.3893 145.7388,344.1908 145.3407,343.9522 144.9678,343.6757 144.6239,343.364 144.3122,343.02 144.0357,342.6472 143.797,342.2491 143.5986,341.8294 143.4422,341.3924 143.3294,340.9421 143.2613,340.483 143.2385,340.0194 143.2613,339.5557 143.3294,339.0966 143.4422,338.6463 143.5986,338.2093 143.797,337.7897 144.0357,337.3915 144.3122,337.0187 144.6239,336.6748 144.9678,336.363 145.3407,336.0865 145.7388,335.8479 146.1584,335.6494 146.5955,335.4931 147.0457,335.3803 147.5049,335.3122 147.9685,335.2894"/>
    <polygon points="135.7071,338.1121 135.2569,337.9993 134.8198,337.843 134.4002,337.6445 134.0021,337.4059 133.6293,337.1294 133.2853,336.8176 132.9736,336.4737 132.6971,336.1009 132.4585,335.7027 132.26,335.2831 132.1036,334.8461 131.9908,334.3958 131.9227,333.9367 131.8999,333.473 131.9227,333.0094 131.9908,332.5503 132.1036,332.1 132.26,331.663 132.4585,331.2433 132.6971,330.8452 132.9736,330.4724 133.2853,330.1284 133.6293,329.8167 134.0021,329.5402 134.4002,329.3016 134.8198,329.1031 135.2569,328.9467 135.7071,328.8339 136.1663,328.7658 136.6299,328.7431 137.0935,328.7658 137.5527,328.8339 138.003,328.9467 138.44,329.1031 138.8596,329.3016 139.2578,329.5402 139.6306,329.8167 139.9745,330.1284 140.2862,330.4724 140.5627,330.8452 140.8014,331.2433 140.9998,331.663 141.1562,332.1 141.269,332.5503 141.3371,333.0094 141.3599,333.473 141.3371,333.9367 141.269,334.3958 141.1562,334.8461 140.9998,335.2831 140.8014,335.7027 140.5627,336.1009 140.2862,336.4737 139.9745,336.8176 139.6306,337.1294 139.2578,337.4059 138.8596,337.6445 138.44,337.843 138.003,337.9993 137.5527,338.1121 137.0935,338.1802 136.6299,338.203 136.1663,338.1802"/>
    <polygon points="118.5918,347.4885 118.4791,347.9387 118.3227,348.3758 118.1242,348.7954 117.8856,349.1935 117.6091,349.5664 117.2974,349.9103 116.9534,350.222 116.5806,350.4985 116.1824,350.7372 115.7628,350.9356 115.3258,351.092 114.8755,351.2048 114.4164,351.2729 113.9528,351.2957 113.4891,351.2729 113.03,351.2048 112.5797,351.092 112.1427,350.9356 111.7231,350.7372 111.3249,350.4985 110.9521,350.222 110.6082,349.9103 110.2964,349.5664 110.0199,349.1935 109.7813,348.7954 109.5828,348.3758 109.4265,347.9387 109.3137,347.4885 109.2456,347.0293 109.2228,346.5657 109.2456,346.1021 109.3137,345.6429 109.4265,345.1927 109.5828,344.7556 109.7813,344.336 110.0199,343.9379 110.2964,343.565 110.6082,343.2211 110.9521,342.9094 111.3249,342.6329 111.7231,342.3942 112.1427,342.1958 112.5797,342.0394 113.03,341.9266 113.4891,341.8585 113.9528,341.8357 114.4164,341.8585 114.8755,341.9266 115.3258,342.0394 115.7628,342.1958 116.1824,342.3942 116.5806,342.6329 116.9534,342.9094 117.2974,343.2211 117.6091,343.565 117.8856,343.9379 118.1242,344.336 118.3227,344.7556 118.4791,345.1927 118.5918,345.6429 118.66,346.1021 118.6827,346.5657 118.66,347.0293"/>
    <polygon points="110.9521,329.8167 111.3249,329.5402 111.7231,329.3016 112.1427,329.1031 112.5797,328.9467 113.03,328.8339 113.4891,328.7658 113.9528,328.7431 114.4164,328.7658 114.8755,328.8339 115.3258,328.9467 115.7628,329.1031 116.1824,329.3016 116.5806,329.5402 116.9534,329.8167 117.2974,330.1284 117.6091,330.4724 117.8856,330.8452 118.1242,331.2433 118.3227,331.663 118.4791,332.1 118.5918,332.5503 118.66,333.0094 118.6827,333.473 118.66,333.9367 118.5918,334.3958 118.4791,334.8461 118.3227,335.2831 118.1242,335.7027 117.8856,336.1009 117.6091,336.4737 117.2974,336.8176 116.9534,337.1294 116.5806,337.4059 116.1824,337.6445 115.7628,337.843 115.3258,337.9993 114.8755,338.1121 114.4164,338.1802 113.9528,338.203 113.4891,338.1802 113.03,338.1121 112.5797,337.9993 112.1427,337.843 111.7231,337.6445 111.3249,337.4059 110.9521,337.1294 110.6082,336.8176 110.2964,336.4737 110.0199,336.1009 109.7813,335.7027 109.5828,335.2831 109.4265,334.8461 109.3137,334.3958 109.2456,333.9367 109.2228,333.473 109.2456,333.0094 109.3137,332.5503 109.4265,332.1 109.5828,331.663 109.7813,331.2433 110.0199,330.8452 110.2964,330.4724 110.6082,330.1284"/>
    <polygon points="129.6613,325.1166 129.4628,324.697 129.2242,324.2989 128.9477,323.926 128.6359,323.5821 128.292,323.2704 127.9192,322.9939 127.521,322.7552 127.1014,322.5568 126.6644,322.4004 126.2141,322.2876 125.755,322.2195 125.2913,322.1967 124.8277,322.2195 124.3686,322.2876 123.9183,322.4004 123.4813,322.5568 123.0616,322.7552 122.6635,322.9939 122.2907,323.2704 121.9467,323.5821 121.635,323.926 121.3585,324.2989 121.1199,324.697 120.9214,325.1166 120.765,325.5537 120.6523,326.0039 120.5841,326.4631 120.5614,326.9267 120.5841,327.3903 120.6523,327.8495 120.765,328.2997 120.9214,328.7368 121.1199,329.1564 121.3585,329.5545 121.635,329.9274 121.9467,330.2713 122.2907,330.583 122.6635,330.8595 123.0616,331.0982 123.4813,331.2966 123.9183,331.453 124.3686,331.5658 124.8277,331.6339 125.2913,331.6567 125.755,331.6339 126.2141,331.5658 126.6644,331.453 127.1014,331.2966 127.521,331.0982 127.9192,330.8595 128.292,330.583 128.6359,330.2713 128.9477,329.9274 129.2242,329.5545 129.4628,329.1564 129.6613,328.7368 129.8176,328.2997 129.9304,327.8495 129.9985,327.3903 130.0213,326.9267 129.9985,326.4631 129.9304,326.0039 129.8176,325.5537"/>
    <polygon points="129.6187,310.5607 129.3498,311.6341 129.1874,312.7288 129.1331,313.834 129.1874,314.9393 129.3498,316.0339 129.6187,317.1074 129.9915,318.1493 130.4646,319.1496 131.0335,320.0988 131.6927,320.9876 132.4359,321.8076 133.2558,322.5507 134.1447,323.2099 135.0938,323.7788 136.0942,324.252 137.1361,324.6248 138.2096,324.8937 139.3042,325.056 140.4094,325.1103 141.5147,325.056 142.6093,324.8937 143.6828,324.6248 144.7247,324.252 145.7251,323.7788 146.6742,323.2099 147.5631,322.5507 148.383,321.8076 149.1262,320.9876 149.7854,320.0988 150.3543,319.1496 150.8274,318.1493 151.2002,317.1074 151.4691,316.0339 151.6315,314.9393 151.6858,313.834 151.6315,312.7288 151.4691,311.6341 151.2002,310.5607 150.8274,309.5188 150.3543,308.5184 149.7854,307.5693 149.1262,306.6804 148.383,305.8605 147.5631,305.1173 146.6742,304.4581 145.7251,303.8892 144.7247,303.4161 143.6828,303.0433 142.6093,302.7744 141.5147,302.612 140.4094,302.5577 139.3042,302.612 138.2096,302.7744 137.1361,303.0433 136.0942,303.4161 135.0938,303.8892 134.1447,304.4581 133.2558,305.1173 132.4359,305.8605 131.6927,306.6804 131.0335,307.5693 130.4646,308.5184 129.9915,309.5188"/>
    <polygon points="123.4813,305.1113 123.9183,305.2677 124.3686,305.3805 124.8277,305.4486 125.2913,305.4713 125.755,305.4486 126.2141,305.3805 126.6644,305.2677 127.1014,305.1113 127.521,304.9128 127.9192,304.6742 128.292,304.3977 128.6359,304.086 128.9477,303.742 129.2242,303.3692 129.4628,302.9711 129.6613,302.5514 129.8176,302.1144 129.9304,301.6641 129.9985,301.205 130.0213,300.7414 129.9985,300.2777 129.9304,299.8186 129.8176,299.3683 129.6613,298.9313 129.4628,298.5117 129.2242,298.1135 128.9477,297.7407 128.6359,297.3968 128.292,297.085 127.9192,296.8085 127.521,296.5699 127.1014,296.3714 126.6644,296.2151 126.2141,296.1023 125.755,296.0342 125.2913,296.0114 124.8277,296.0342 124.3686,296.1023 123.9183,296.2151 123.4813,296.3714 123.0616,296.5699 122.6635,296.8085 122.2907,297.085 121.9467,297.3968 121.635,297.7407 121.3585,298.1135 121.1199,298.5117 120.9214,298.9313 120.765,299.3683 120.6523,299.8186 120.5841,300.2777 120.5614,300.7414 120.5841,301.205 120.6523,301.6641 120.765,302.1144 120.9214,302.5514 121.1199,302.9711 121.3585,303.3692 121.635,303.742 121.9467,304.086 122.2907,304.3977 122.6635,304.6742 123.0616,304.9128"/>
    <polygon points="115.7628,298.565 116.1824,298.3665 116.5806,298.1279 116.9534,297.8513 117.2974,297.5396 117.6091,297.1957 117.8856,296.8229 118.1242,296.4247 118.3227,296.0051 118.4791,295.5681 118.5918,295.1178 118.66,294.6586 118.6827,294.195 118.66,293.7314 118.5918,293.2723 118.4791,292.822 118.3227,292.3849 118.1242,291.9653 117.8856,291.5672 117.6091,291.1944 117.2974,290.8504 116.9534,290.5387 116.5806,290.2622 116.1824,290.0236 115.7628,289.8251 115.3258,289.6687 114.8755,289.5559 114.4164,289.4878 113.9528,289.4651 113.4891,289.4878 113.03,289.5559 112.5797,289.6687 112.1427,289.8251 111.7231,290.0236 111.3249,290.2622 110.9521,290.5387 110.6082,290.8504 110.2964,291.1944 110.0199,291.5672 109.7813,291.9653 109.5828,292.3849 109.4265,292.822 109.3137,293.2723 109.2456,293.7314 109.2228,294.195 109.2456,294.6586 109.3137,295.1178 109.4265,295.5681 109.5828,296.0051 109.7813,296.4247 110.0199,296.8229 110.2964,297.1957 110.6082,297.5396 110.9521,297.8513 111.3249,298.1279 111.7231,298.3665 112.1427,298.565 112.5797,298.7213 113.03,298.8341 113.4891,298.9022 113.9528,298.925 114.4164,298.9022 114.8755,298.8341 115.3258,298.7213"/>
    <polygon points="124.3686,279.1951 124.8277,279.2632 125.2913,279.286 125.755,279.2632 126.2141,279.1951 126.6644,279.0823 127.1014,278.926 127.521,278.7275 127.9192,278.4889 128.292,278.2123 128.6359,277.9006 128.9477,277.5567 129.2242,277.1839 129.4628,276.7857 129.6613,276.3661 129.8176,275.9291 129.9304,275.4788 129.9985,275.0196 130.0213,274.556 129.9985,274.0924 129.9304,273.6333 129.8176,273.183 129.6613,272.7459 129.4628,272.3263 129.2242,271.9282 128.9477,271.5554 128.6359,271.2114 128.292,270.8997 127.9192,270.6232 127.521,270.3846 127.1014,270.1861 126.6644,270.0297 126.2141,269.9169 125.755,269.8488 125.2913,269.8261 124.8277,269.8488 124.3686,269.9169 123.9183,270.0297 123.4813,270.1861 123.0616,270.3846 122.6635,270.6232 122.2907,270.8997 121.9467,271.2114 121.635,271.5554 121.3585,271.9282 121.1199,272.3263 120.9214,272.7459 120.765,273.183 120.6523,273.6333 120.5841,274.0924 120.5614,274.556 120.5841,275.0196 120.6523,275.4788 120.765,275.9291 120.9214,276.3661 121.1199,276.7857 121.3585,277.1839 121.635,277.5567 121.9467,277.9006 122.2907,278.2123 122.6635,278.4889 123.0616,278.7275 123.4813,278.926 123.9183,279.0823"/>
    <polygon points="118.1242,265.78 117.8856,265.3819 117.6091,265.009 117.2974,264.6651 116.9534,264.3534 116.5806,264.0769 116.1824,263.8382 115.7628,263.6398 115.3258,263.4834 114.8755,263.3706 114.4164,263.3025 113.9528,263.2797 113.4891,263.3025 113.03,263.3706 112.5797,263.4834 112.1427,263.6398 111.7231,263.8382 111.3249,264.0769 110.9521,264.3534 110.6082,264.6651 110.2964,265.009 110.0199,265.3819 109.7813,265.78 109.5828,266.1996 109.4265,266.6367 109.3137,267.0869 109.2456,267.5461 109.2228,268.0097 109.2456,268.4733 109.3137,268.9325 109.4265,269.3827 109.5828,269.8198 109.7813,270.2394 110.0199,270.6375 110.2964,271.0104 110.6082,271.3543 110.9521,271.666 111.3249,271.9425 111.7231,272.1812 112.1427,272.3796 112.5797,272.536 113.03,272.6488 113.4891,272.7169 113.9528,272.7397 114.4164,272.7169 114.8755,272.6488 115.3258,272.536 115.7628,272.3796 116.1824,272.1812 116.5806,271.9425 116.9534,271.666 117.2974,271.3543 117.6091,271.0104 117.8856,270.6375 118.1242,270.2394 118.3227,269.8198 118.4791,269.3827 118.5918,268.9325 118.66,268.4733 118.6827,268.0097 118.66,267.5461 118.5918,267.0869 118.4791,266.6367 118.3227,266.1996"/>
    <polygon points="109.3137,240.9016 109.4265,240.4513 109.5828,240.0143 109.7813,239.5947 110.0199,239.1965 110.2964,238.8237 110.6082,238.4798 110.9521,238.168 111.3249,237.8915 111.7231,237.6529 112.1427,237.4544 112.5797,237.2981 113.03,237.1853 113.4891,237.1172 113.9528,237.0944 114.4164,237.1172 114.8755,237.1853 115.3258,237.2981 115.7628,237.4544 116.1824,237.6529 116.5806,237.8915 116.9534,238.168 117.2974,238.4798 117.6091,238.8237 117.8856,239.1965 118.1242,239.5947 118.3227,240.0143 118.4791,240.4513 118.5918,240.9016 118.66,241.3607 118.6827,241.8244 118.66,242.288 118.5918,242.7471 118.4791,243.1974 118.3227,243.6344 118.1242,244.0541 117.8856,244.4522 117.6091,244.825 117.2974,245.169 116.9534,245.4807 116.5806,245.7572 116.1824,245.9958 115.7628,246.1943 115.3258,246.3507 114.8755,246.4634 114.4164,246.5316 113.9528,246.5543 113.4891,246.5316 113.03,246.4634 112.5797,246.3507 112.1427,246.1943 111.7231,245.9958 111.3249,245.7572 110.9521,245.4807 110.6082,245.169 110.2964,244.825 110.0199,244.4522 109.7813,244.0541 109.5828,243.6344 109.4265,243.1974 109.3137,242.7471 109.2456,242.288 109.2228,241.8244 109.2456,241.3607"/>
    <polygon points="121.635,225.186 121.9467,225.53 122.2907,225.8417 122.6635,226.1182 123.0616,226.3568 123.4813,226.5553 123.9183,226.7117 124.3686,226.8244 124.8277,226.8926 125.2913,226.9153 125.755,226.8926 126.2141,226.8244 126.6644,226.7117 127.1014,226.5553 127.521,226.3568 127.9192,226.1182 128.292,225.8417 128.6359,225.53 128.9477,225.186 129.2242,224.8132 129.4628,224.4151 129.6613,223.9954 129.8176,223.5584 129.9304,223.1081 129.9985,222.649 130.0213,222.1854 129.9985,221.7217 129.9304,221.2626 129.8176,220.8123 129.6613,220.3753 129.4628,219.9557 129.2242,219.5575 128.9477,219.1847 128.6359,218.8408 128.292,218.529 127.9192,218.2525 127.521,218.0139 127.1014,217.8154 126.6644,217.6591 126.2141,217.5463 125.755,217.4782 125.2913,217.4554 124.8277,217.4782 124.3686,217.5463 123.9183,217.6591 123.4813,217.8154 123.0616,218.0139 122.6635,218.2525 122.2907,218.529 121.9467,218.8408 121.635,219.1847 121.3585,219.5575 121.1199,219.9557 120.9214,220.3753 120.765,220.8123 120.6523,221.2626 120.5841,221.7217 120.5614,222.1854 120.5841,222.649 120.6523,223.1081 120.765,223.5584 120.9214,223.9954 121.1199,224.4151 121.3585,224.8132"/>
    <polygon points="132.4359,217.0662 133.2558,217.8094 134.1447,218.4686 135.0938,219.0375 136.0942,219.5106 137.1361,219.8834 138.2096,220.1523 139.3042,220.3147 140.4094,220.369 141.5147,220.3147 142.6093,220.1523 143.6828,219.8834 144.7247,219.5106 145.7251,219.0375 146.6742,218.4686 147.5631,217.8094 148.383,217.0662 149.1262,216.2463 149.7854,215.3575 150.3543,214.4083 150.8274,213.4079 151.2002,212.366 151.4691,211.2926 151.6315,210.198 151.6858,209.0927 151.6315,207.9874 151.4691,206.8928 151.2002,205.8194 150.8274,204.7774 150.3543,203.7771 149.7854,202.8279 149.1262,201.9391 148.383,201.1191 147.5631,200.376 146.6742,199.7168 145.7251,199.1479 144.7247,198.6747 143.6828,198.3019 142.6093,198.0331 141.5147,197.8707 140.4094,197.8164 139.3042,197.8707 138.2096,198.0331 137.1361,198.3019 136.0942,198.6747 135.0938,199.1479 134.1447,199.7168 133.2558,200.376 132.4359,201.1191 131.6927,201.9391 131.0335,202.8279 130.4646,203.7771 129.9915,204.7774 129.6187,205.8194 129.3498,206.8928 129.1874,207.9874 129.1331,209.0927 129.1874,210.198 129.3498,211.2926 129.6187,212.366 129.9915,213.4079 130.4646,214.4083 131.0335,215.3575 131.6927,216.2463"/>
    <polygon points="129.4628,237.5077 129.6613,237.0881 129.8176,236.6511 129.9304,236.2008 129.9985,235.7416 130.0213,235.278 129.9985,234.8144 129.9304,234.3553 129.8176,233.905 129.6613,233.4679 129.4628,233.0483 129.2242,232.6502 128.9477,232.2774 128.6359,231.9334 128.292,231.6217 127.9192,231.3452 127.521,231.1066 127.1014,230.9081 126.6644,230.7517 126.2141,230.6389 125.755,230.5708 125.2913,230.5481 124.8277,230.5708 124.3686,230.6389 123.9183,230.7517 123.4813,230.9081 123.0616,231.1066 122.6635,231.3452 122.2907,231.6217 121.9467,231.9334 121.635,232.2774 121.3585,232.6502 121.1199,233.0483 120.9214,233.4679 120.765,233.905 120.6523,234.3553 120.5841,234.8144 120.5614,235.278 120.5841,235.7416 120.6523,236.2008 120.765,236.6511 120.9214,237.0881 121.1199,237.5077 121.3585,237.9059 121.635,238.2787 121.9467,238.6226 122.2907,238.9343 122.6635,239.2109 123.0616,239.4495 123.4813,239.648 123.9183,239.8043 124.3686,239.9171 124.8277,239.9852 125.2913,240.008 125.755,239.9852 126.2141,239.9171 126.6644,239.8043 127.1014,239.648 127.521,239.4495 127.9192,239.2109 128.292,238.9343 128.6359,238.6226 128.9477,238.2787 129.2242,237.9059"/>
    <polygon points="128.6359,245.0261 128.292,244.7144 127.9192,244.4379 127.521,244.1992 127.1014,244.0008 126.6644,243.8444 126.2141,243.7316 125.755,243.6635 125.2913,243.6407 124.8277,243.6635 124.3686,243.7316 123.9183,243.8444 123.4813,244.0008 123.0616,244.1992 122.6635,244.4379 122.2907,244.7144 121.9467,245.0261 121.635,245.37 121.3585,245.7429 121.1199,246.141 120.9214,246.5606 120.765,246.9977 120.6523,247.4479 120.5841,247.9071 120.5614,248.3707 120.5841,248.8343 120.6523,249.2935 120.765,249.7437 120.9214,250.1808 121.1199,250.6004 121.3585,250.9985 121.635,251.3714 121.9467,251.7153 122.2907,252.027 122.6635,252.3035 123.0616,252.5422 123.4813,252.7406 123.9183,252.897 124.3686,253.0098 124.8277,253.0779 125.2913,253.1007 125.755,253.0779 126.2141,253.0098 126.6644,252.897 127.1014,252.7406 127.521,252.5422 127.9192,252.3035 128.292,252.027 128.6359,251.7153 128.9477,251.3714 129.2242,250.9985 129.4628,250.6004 129.6613,250.1808 129.8176,249.7437 129.9304,249.2935 129.9985,248.8343 130.0213,248.3707 129.9985,247.9071 129.9304,247.4479 129.8176,246.9977 129.6613,246.5606 129.4628,246.141 129.2242,245.7429 128.9477,245.37"/>
    <polygon points="142.6093,250.4037 141.5147,250.2414 140.4094,250.1871 139.3042,250.2414 138.2096,250.4037 137.1361,250.6726 136.0942,251.0454 135.0938,251.5185 134.1447,252.0875 133.2558,252.7467 132.4359,253.4898 131.6927,254.3097 131.0335,255.1986 130.4646,256.1477 129.9915,257.1481 129.6187,258.19 129.3498,259.2635 129.1874,260.3581 129.1331,261.4634 129.1874,262.5686 129.3498,263.6633 129.6187,264.7367 129.9915,265.7786 130.4646,266.779 131.0335,267.7281 131.6927,268.617 132.4359,269.4369 133.2558,270.1801 134.1447,270.8393 135.0938,271.4082 136.0942,271.8813 137.1361,272.2541 138.2096,272.523 139.3042,272.6854 140.4094,272.7397 141.5147,272.6854 142.6093,272.523 143.6828,272.2541 144.7247,271.8813 145.7251,271.4082 146.6742,270.8393 147.5631,270.1801 148.383,269.4369 149.1262,268.617 149.7854,267.7281 150.3543,266.779 150.8274,265.7786 151.2002,264.7367 151.4691,263.6633 151.6315,262.5686 151.6858,261.4634 151.6315,260.3581 151.4691,259.2635 151.2002,258.19 150.8274,257.1481 150.3543,256.1477 149.7854,255.1986 149.1262,254.3097 148.383,253.4898 147.5631,252.7467 146.6742,252.0875 145.7251,251.5185 144.7247,251.0454 143.6828,250.6726"/>
    <polygon points="173.0342,311.9003 170.6457,312.0177 168.2571,311.9003 165.8915,311.5494 163.5717,310.9684 161.3201,310.1627 159.1582,309.1402 157.107,307.9108 155.1862,306.4862 153.4142,304.8802 151.8082,303.1082 150.3836,301.1874 149.1542,299.1362 148.1317,296.9743 147.326,294.7226 146.7449,292.4028 146.394,290.0373 146.2767,287.6487 146.394,285.2601 146.7449,282.8945 147.326,280.5748 148.1317,278.3231 149.1542,276.1612 150.3836,274.11 151.8082,272.1892 153.4142,270.4172 155.1862,268.8112 157.107,267.3866 159.1582,266.1572 161.3201,265.1347 163.5717,264.329 165.8915,263.748 168.2571,263.3971 170.6457,263.2797 173.0342,263.3971 175.3998,263.748 177.7196,264.329 179.9713,265.1347 182.1331,266.1572 184.1843,267.3866 186.1052,268.8112 187.8771,270.4172 189.4831,272.1892 190.9077,274.11 192.1372,276.1612 193.1597,278.3231 193.9653,280.5748 194.5464,282.8945 194.8973,285.2601 195.0146,287.6487 194.8973,290.0373 194.5464,292.4028 193.9653,294.7226 193.1597,296.9743 192.1372,299.1362 190.9077,301.1874 189.4831,303.1082 187.8771,304.8802 186.1052,306.4862 184.1843,307.9108 182.1331,309.1402 179.9713,310.1627 177.7196,310.9684 175.3998,311.5494"/>
    <polygon points="165.2865,315.8671 166.36,316.1359 167.4019,316.5087 168.4022,316.9819 169.3514,317.5508 170.2402,318.21 171.0602,318.9531 171.8033,319.7731 172.4625,320.6619 173.0314,321.6111 173.5046,322.6114 173.8774,323.6534 174.1462,324.7268 174.3086,325.8214 174.3629,326.9267 174.3086,328.032 174.1462,329.1266 173.8774,330.2 173.5046,331.242 173.0314,332.2423 172.4625,333.1915 171.8033,334.0803 171.0602,334.9003 170.2402,335.6434 169.3514,336.3026 168.4022,336.8715 167.4019,337.3446 166.36,337.7175 165.2865,337.9863 164.1919,338.1487 163.0866,338.203 161.9813,338.1487 160.8867,337.9863 159.8133,337.7175 158.7714,337.3446 157.771,336.8715 156.8218,336.3026 155.933,335.6434 155.1131,334.9003 154.3699,334.0803 153.7107,333.1915 153.1418,332.2423 152.6687,331.242 152.2959,330.2 152.027,329.1266 151.8646,328.032 151.8103,326.9267 151.8646,325.8214 152.027,324.7268 152.2959,323.6534 152.6687,322.6114 153.1418,321.6111 153.7107,320.6619 154.3699,319.7731 155.1131,318.9531 155.933,318.21 156.8218,317.5508 157.771,316.9819 158.7714,316.5087 159.8133,316.1359 160.8867,315.8671 161.9813,315.7047 163.0866,315.6504 164.1919,315.7047"/>
  </g>
</svg>
