<?xml version="1.0" encoding="utf-8" ?>
<svg xmlns="http://www.w3.org/2000/svg" xmlns:cc="http://creativecommons.org/ns" xmlns:dc="http://purl.org/dc/elements/1.1/" xmlns:ev="http://www.w3.org/2001/xml-events" xmlns:inkscape="http://www.inkscape.org/namespaces/inkscape" xmlns:rdf="http://www.w3.org/1999/02/22-rdf-syntax-ns" xmlns:sodipodi="http://sodipodi.sourceforge.net/DTD/sodipodi-0.dtd" xmlns:xlink="http://www.w3.org/1999/xlink" baseProfile="tiny" height="15.875cm" version="1.2" viewBox="0 0 432.0 600.0" width="11.43cm">
  <metadata>
    <rdf:RDF>
      <cc:Work>
        <dc:format>image/svg+xml</dc:format>
        <dc:source>vsk save -s 227 -c hex-grid/config/bubble-coasters-2.json /Users/tobin/src/fabian/plotting/fabian-plotting/hex-grid/sketch_hex_grid.py</dc:source>
        <dc:date>2023-11-11T11:30:23.595467</dc:date>
      </cc:Work>
    </rdf:RDF>
  </metadata>
  <defs/>
  <g fill="none" id="layer1" inkscape:groupmode="layer" inkscape:label="1" stroke="#000000" stroke-width="0.7559" style="display:inline">
    <polygon points="130.8079,238.4259 131.8083,237.9527 132.8502,237.5799 133.9237,237.3111 135.0183,237.1487 136.1236,237.0944 137.2288,237.1487 138.3235,237.3111 139.3969,237.5799 140.4388,237.9527 141.4392,238.4259 142.3883,238.9948 143.2772,239.654 144.0971,240.3971 144.8403,241.2171 145.4995,242.1059 146.0684,243.0551 146.5415,244.0554 146.9143,245.0974 147.1832,246.1708 147.3456,247.2654 147.3999,248.3707 147.3456,249.476 147.1832,250.5706 146.9143,251.644 146.5415,252.6859 146.0684,253.6863 145.4995,254.6355 144.8403,255.5243 144.0971,256.3442 143.2772,257.0874 142.3883,257.7466 141.4392,258.3155 140.4388,258.7886 139.3969,259.1614 138.3235,259.4303 137.2288,259.5927 136.1236,259.647 135.0183,259.5927 133.9237,259.4303 132.8502,259.1614 131.8083,258.7886 130.8079,258.3155 129.8588,257.7466 128.9699,257.0874 128.15,256.3442 127.4069,255.5243 126.7477,254.6355 126.1787,253.6863 125.7056,252.6859 125.3328,251.644 125.0639,250.5706 124.9016,249.476 124.8473,248.3707 124.9016,247.2654 125.0639,246.1708 125.3328,245.0974 125.7056,244.0554 126.1787,243.0551 126.7477,242.1059 127.4069,241.2171 128.15,240.3971 128.9699,239.654 129.8588,238.9948"/>
    <polygon points="117.7617,251.0454 118.762,251.5185 119.7112,252.0875 120.6,252.7467 121.4199,253.4898 122.1631,254.3097 122.8223,255.1986 123.3912,256.1477 123.8643,257.1481 124.2371,258.19 124.506,259.2635 124.6684,260.3581 124.7227,261.4634 124.6684,262.5686 124.506,263.6633 124.2371,264.7367 123.8643,265.7786 123.3912,266.779 122.8223,267.7281 122.1631,268.617 121.4199,269.4369 120.6,270.1801 119.7112,270.8393 118.762,271.4082 117.7617,271.8813 116.7197,272.2541 115.6463,272.523 114.5517,272.6854 113.4464,272.7397 112.3411,272.6854 111.2465,272.523 110.1731,272.2541 109.1311,271.8813 108.1308,271.4082 107.1816,270.8393 106.2928,270.1801 105.4728,269.4369 104.7297,268.617 104.0705,267.7281 103.5016,266.779 103.0284,265.7786 102.6556,264.7367 102.3868,263.6633 102.2244,262.5686 102.1701,261.4634 102.2244,260.3581 102.3868,259.2635 102.6556,258.19 103.0284,257.1481 103.5016,256.1477 104.0705,255.1986 104.7297,254.3097 105.4728,253.4898 106.2928,252.7467 107.1816,252.0875 108.1308,251.5185 109.1311,251.0454 110.1731,250.6726 111.2465,250.4037 112.3411,250.2414 113.4464,250.1871 114.5517,250.2414 115.6463,250.4037 116.7197,250.6726"/>
    <polygon points="93.6892,249.2935 93.802,249.7437 93.9584,250.1808 94.1568,250.6004 94.3955,250.9985 94.672,251.3714 94.9837,251.7153 95.3276,252.027 95.7005,252.3035 96.0986,252.5422 96.5182,252.7406 96.9552,252.897 97.4055,253.0098 97.8647,253.0779 98.3283,253.1007 98.7919,253.0779 99.2511,253.0098 99.7013,252.897 100.1384,252.7406 100.558,252.5422 100.9561,252.3035 101.3289,252.027 101.6729,251.7153 101.9846,251.3714 102.2611,250.9985 102.4997,250.6004 102.6982,250.1808 102.8546,249.7437 102.9674,249.2935 103.0355,248.8343 103.0583,248.3707 103.0355,247.9071 102.9674,247.4479 102.8546,246.9977 102.6982,246.5606 102.4997,246.141 102.2611,245.7429 101.9846,245.37 101.6729,245.0261 101.3289,244.7144 100.9561,244.4379 100.558,244.1992 100.1384,244.0008 99.7013,243.8444 99.2511,243.7316 98.7919,243.6635 98.3283,243.6407 97.8647,243.6635 97.4055,243.7316 96.9552,243.8444 96.5182,244.0008 96.0986,244.1992 95.7005,244.4379 95.3276,244.7144 94.9837,245.0261 94.672,245.37 94.3955,245.7429 94.1568,246.141 93.9584,246.5606 93.802,246.9977 93.6892,247.4479 93.6211,247.9071 93.5983,248.3707 93.6211,248.8343"/>
    <polygon points="82.4634,240.4513 82.3506,240.9016 82.2825,241.3607 82.2597,241.8244 82.2825,242.288 82.3506,242.7471 82.4634,243.1974 82.6198,243.6344 82.8182,244.0541 83.0569,244.4522 83.3334,244.825 83.6451,245.169 83.989,245.4807 84.3619,245.7572 84.76,245.9958 85.1796,246.1943 85.6167,246.3507 86.0669,246.4634 86.5261,246.5316 86.9897,246.5543 87.4533,246.5316 87.9125,246.4634 88.3627,246.3507 88.7998,246.1943 89.2194,245.9958 89.6175,245.7572 89.9904,245.4807 90.3343,245.169 90.646,244.825 90.9225,244.4522 91.1612,244.0541 91.3596,243.6344 91.516,243.1974 91.6288,242.7471 91.6969,242.288 91.7197,241.8244 91.6969,241.3607 91.6288,240.9016 91.516,240.4513 91.3596,240.0143 91.1612,239.5947 90.9225,239.1965 90.646,238.8237 90.3343,238.4798 89.9904,238.168 89.6175,237.8915 89.2194,237.6529 88.7998,237.4544 88.3627,237.2981 87.9125,237.1853 87.4533,237.1172 86.9897,237.0944 86.5261,237.1172 86.0669,237.1853 85.6167,237.2981 85.1796,237.4544 84.76,237.6529 84.3619,237.8915 83.989,238.168 83.6451,238.4798 83.3334,238.8237 83.0569,239.1965 82.8182,239.5947 82.6198,240.0143"/>
    <polygon points="94.3955,277.1839 94.1568,276.7857 93.9584,276.3661 93.802,275.9291 93.6892,275.4788 93.6211,275.0196 93.5983,274.556 93.6211,274.0924 93.6892,273.6333 93.802,273.183 93.9584,272.7459 94.1568,272.3263 94.3955,271.9282 94.672,271.5554 94.9837,271.2114 95.3276,270.8997 95.7005,270.6232 96.0986,270.3846 96.5182,270.1861 96.9552,270.0297 97.4055,269.9169 97.8647,269.8488 98.3283,269.8261 98.7919,269.8488 99.2511,269.9169 99.7013,270.0297 100.1384,270.1861 100.558,270.3846 100.9561,270.6232 101.3289,270.8997 101.6729,271.2114 101.9846,271.5554 102.2611,271.9282 102.4997,272.3263 102.6982,272.7459 102.8546,273.183 102.9674,273.6333 103.0355,274.0924 103.0583,274.556 103.0355,275.0196 102.9674,275.4788 102.8546,275.9291 102.6982,276.3661 102.4997,276.7857 102.2611,277.1839 101.9846,277.5567 101.6729,277.9006 101.3289,278.2123 100.9561,278.4889 100.558,278.7275 100.1384,278.926 99.7013,279.0823 99.2511,279.1951 98.7919,279.2632 98.3283,279.286 97.8647,279.2632 97.4055,279.1951 96.9552,279.0823 96.5182,278.926 96.0986,278.7275 95.7005,278.4889 95.3276,278.2123 94.9837,277.9006 94.672,277.5567"/>
    <polygon points="102.6556,290.922 102.3868,289.8486 102.2244,288.754 102.1701,287.6487 102.2244,286.5434 102.3868,285.4488 102.6556,284.3754 103.0284,283.3334 103.5016,282.3331 104.0705,281.3839 104.7297,280.4951 105.4728,279.6751 106.2928,278.932 107.1816,278.2728 108.1308,277.7039 109.1311,277.2307 110.1731,276.8579 111.2465,276.5891 112.3411,276.4267 113.4464,276.3724 114.5517,276.4267 115.6463,276.5891 116.7197,276.8579 117.7617,277.2307 118.762,277.7039 119.7112,278.2728 120.6,278.932 121.4199,279.6751 122.1631,280.4951 122.8223,281.3839 123.3912,282.3331 123.8643,283.3334 124.2371,284.3754 124.506,285.4488 124.6684,286.5434 124.7227,287.6487 124.6684,288.754 124.506,289.8486 124.2371,290.922 123.8643,291.964 123.3912,292.9643 122.8223,293.9135 122.1631,294.8023 121.4199,295.6222 120.6,296.3654 119.7112,297.0246 118.762,297.5935 117.7617,298.0666 116.7197,298.4394 115.6463,298.7083 114.5517,298.8707 113.4464,298.925 112.3411,298.8707 111.2465,298.7083 110.1731,298.4394 109.1311,298.0666 108.1308,297.5935 107.1816,297.0246 106.2928,296.3654 105.4728,295.6222 104.7297,294.8023 104.0705,293.9135 103.5016,292.9643 103.0284,291.964"/>
    <polygon points="82.0525,293.5878 81.3933,294.4766 80.8244,295.4257 80.3513,296.4261 79.9785,297.468 79.7096,298.5415 79.5472,299.6361 79.4929,300.7414 79.5472,301.8466 79.7096,302.9413 79.9785,304.0147 80.3513,305.0566 80.8244,306.057 81.3933,307.0061 82.0525,307.895 82.7957,308.7149 83.6156,309.4581 84.5044,310.1173 85.4536,310.6862 86.454,311.1593 87.4959,311.5321 88.5693,311.801 89.664,311.9634 90.7692,312.0177 91.8745,311.9634 92.9691,311.801 94.0426,311.5321 95.0845,311.1593 96.0848,310.6862 97.034,310.1173 97.9228,309.4581 98.7428,308.7149 99.4859,307.895 100.1451,307.0061 100.714,306.057 101.1872,305.0566 101.56,304.0147 101.8289,302.9413 101.9912,301.8466 102.0455,300.7414 101.9912,299.6361 101.8289,298.5415 101.56,297.468 101.1872,296.4261 100.714,295.4257 100.1451,294.4766 99.4859,293.5878 98.7428,292.7678 97.9228,292.0247 97.034,291.3655 96.0848,290.7965 95.0845,290.3234 94.0426,289.9506 92.9691,289.6817 91.8745,289.5194 90.7692,289.4651 89.664,289.5194 88.5693,289.6817 87.4959,289.9506 86.454,290.3234 85.4536,290.7965 84.5044,291.3655 83.6156,292.0247 82.7957,292.7678"/>
    <polygon points="61.8273,297.0246 62.7765,297.5935 63.7768,298.0666 64.8187,298.4394 65.8922,298.7083 66.9868,298.8707 68.0921,298.925 69.1973,298.8707 70.292,298.7083 71.3654,298.4394 72.4073,298.0666 73.4077,297.5935 74.3568,297.0246 75.2457,296.3654 76.0656,295.6222 76.8088,294.8023 77.468,293.9135 78.0369,292.9643 78.51,291.964 78.8828,290.922 79.1517,289.8486 79.3141,288.754 79.3684,287.6487 79.3141,286.5434 79.1517,285.4488 78.8828,284.3754 78.51,283.3334 78.0369,282.3331 77.468,281.3839 76.8088,280.4951 76.0656,279.6751 75.2457,278.932 74.3568,278.2728 73.4077,277.7039 72.4073,277.2307 71.3654,276.8579 70.292,276.5891 69.1973,276.4267 68.0921,276.3724 66.9868,276.4267 65.8922,276.5891 64.8187,276.8579 63.7768,277.2307 62.7765,277.7039 61.8273,278.2728 60.9385,278.932 60.1185,279.6751 59.3754,280.4951 58.7162,281.3839 58.1473,282.3331 57.6741,283.3334 57.3013,284.3754 57.0324,285.4488 56.8701,286.5434 56.8158,287.6487 56.8701,288.754 57.0324,289.8486 57.3013,290.922 57.6741,291.964 58.1473,292.9643 58.7162,293.9135 59.3754,294.8023 60.1185,295.6222 60.9385,296.3654"/>
    <polygon points="74.2781,318.3603 74.7283,318.4731 75.1875,318.5412 75.6511,318.564 76.1147,318.5412 76.5739,318.4731 77.0242,318.3603 77.4612,318.204 77.8808,318.0055 78.279,317.7669 78.6518,317.4903 78.9957,317.1786 79.3074,316.8347 79.5839,316.4619 79.8226,316.0637 80.021,315.6441 80.1774,315.2071 80.2902,314.7568 80.3583,314.2976 80.3811,313.834 80.3583,313.3704 80.2902,312.9113 80.1774,312.461 80.021,312.0239 79.8226,311.6043 79.5839,311.2062 79.3074,310.8334 78.9957,310.4894 78.6518,310.1777 78.279,309.9012 77.8808,309.6626 77.4612,309.4641 77.0242,309.3077 76.5739,309.1949 76.1147,309.1268 75.6511,309.1041 75.1875,309.1268 74.7283,309.1949 74.2781,309.3077 73.841,309.4641 73.4214,309.6626 73.0233,309.9012 72.6505,310.1777 72.3065,310.4894 71.9948,310.8334 71.7183,311.2062 71.4797,311.6043 71.2812,312.0239 71.1248,312.461 71.012,312.9113 70.9439,313.3704 70.9211,313.834 70.9439,314.2976 71.012,314.7568 71.1248,315.2071 71.2812,315.6441 71.4797,316.0637 71.7183,316.4619 71.9948,316.8347 72.3065,317.1786 72.6505,317.4903 73.0233,317.7669 73.4214,318.0055 73.841,318.204"/>
    <polygon points="105.1406,308.6607 105.0278,308.2105 104.9597,307.7513 104.9369,307.2877 104.9597,306.8241 105.0278,306.3649 105.1406,305.9147 105.2969,305.4776 105.4954,305.058 105.734,304.6599 106.0105,304.287 106.3223,303.9431 106.6662,303.6314 107.039,303.3549 107.4372,303.1162 107.8568,302.9178 108.2938,302.7614 108.7441,302.6486 109.2032,302.5805 109.6669,302.5577 110.1305,302.5805 110.5896,302.6486 111.0399,302.7614 111.4769,302.9178 111.8966,303.1162 112.2947,303.3549 112.6675,303.6314 113.0115,303.9431 113.3232,304.287 113.5997,304.6599 113.8383,305.058 114.0368,305.4776 114.1932,305.9147 114.306,306.3649 114.3741,306.8241 114.3968,307.2877 114.3741,307.7513 114.306,308.2105 114.1932,308.6607 114.0368,309.0978 113.8383,309.5174 113.5997,309.9155 113.3232,310.2884 113.0115,310.6323 112.6675,310.944 112.2947,311.2205 111.8966,311.4592 111.4769,311.6576 111.0399,311.814 110.5896,311.9268 110.1305,311.9949 109.6669,312.0177 109.2032,311.9949 108.7441,311.9268 108.2938,311.814 107.8568,311.6576 107.4372,311.4592 107.039,311.2205 106.6662,310.944 106.3223,310.6323 106.0105,310.2884 105.734,309.9155 105.4954,309.5174 105.2969,309.0978"/>
    <polygon points="143.219,331.6339 142.7598,331.5658 142.3096,331.453 141.8725,331.2966 141.4529,331.0982 141.0548,330.8595 140.682,330.583 140.338,330.2713 140.0263,329.9274 139.7498,329.5545 139.5112,329.1564 139.3127,328.7368 139.1563,328.2997 139.0435,327.8495 138.9754,327.3903 138.9526,326.9267 138.9754,326.4631 139.0435,326.0039 139.1563,325.5537 139.3127,325.1166 139.5112,324.697 139.7498,324.2989 140.0263,323.926 140.338,323.5821 140.682,323.2704 141.0548,322.9939 141.4529,322.7552 141.8725,322.5568 142.3096,322.4004 142.7598,322.2876 143.219,322.2195 143.6826,322.1967 144.1462,322.2195 144.6054,322.2876 145.0557,322.4004 145.4927,322.5568 145.9123,322.7552 146.3104,322.9939 146.6833,323.2704 147.0272,323.5821 147.3389,323.926 147.6154,324.2989 147.8541,324.697 148.0525,325.1166 148.2089,325.5537 148.3217,326.0039 148.3898,326.4631 148.4126,326.9267 148.3898,327.3903 148.3217,327.8495 148.2089,328.2997 148.0525,328.7368 147.8541,329.1564 147.6154,329.5545 147.3389,329.9274 147.0272,330.2713 146.6833,330.583 146.3104,330.8595 145.9123,331.0982 145.4927,331.2966 145.0557,331.453 144.6054,331.5658 144.1462,331.6339 143.6826,331.6567"/>
    <polygon points="178.6211,364.2975 178.162,364.3656 177.6984,364.3883 177.2347,364.3656 176.7756,364.2975 176.3253,364.1847 175.8883,364.0283 175.4687,363.8298 175.0705,363.5912 174.6977,363.3147 174.3538,363.003 174.042,362.659 173.7655,362.2862 173.5269,361.8881 173.3284,361.4684 173.1721,361.0314 173.0593,360.5811 172.9912,360.122 172.9684,359.6584 172.9912,359.1947 173.0593,358.7356 173.1721,358.2853 173.3284,357.8483 173.5269,357.4287 173.7655,357.0305 174.042,356.6577 174.3538,356.3138 174.6977,356.002 175.0705,355.7255 175.4687,355.4869 175.8883,355.2884 176.3253,355.1321 176.7756,355.0193 177.2347,354.9512 177.6984,354.9284 178.162,354.9512 178.6211,355.0193 179.0714,355.1321 179.5084,355.2884 179.9281,355.4869 180.3262,355.7255 180.699,356.002 181.043,356.3138 181.3547,356.6577 181.6312,357.0305 181.8698,357.4287 182.0683,357.8483 182.2247,358.2853 182.3375,358.7356 182.4056,359.1947 182.4283,359.6584 182.4056,360.122 182.3375,360.5811 182.2247,361.0314 182.0683,361.4684 181.8698,361.8881 181.6312,362.2862 181.3547,362.659 181.043,363.003 180.699,363.3147 180.3262,363.5912 179.9281,363.8298 179.5084,364.0283 179.0714,364.1847"/>
    <polygon points="185.1041,368.8325 184.8655,368.4344 184.667,368.0148 184.5106,367.5777 184.3979,367.1275 184.3297,366.6683 184.307,366.2047 184.3297,365.7411 184.3979,365.2819 184.5106,364.8317 184.667,364.3946 184.8655,363.975 185.1041,363.5769 185.3806,363.204 185.6924,362.8601 186.0363,362.5484 186.4091,362.2719 186.8073,362.0332 187.2269,361.8348 187.6639,361.6784 188.1142,361.5656 188.5733,361.4975 189.0369,361.4747 189.5006,361.4975 189.9597,361.5656 190.41,361.6784 190.847,361.8348 191.2666,362.0332 191.6648,362.2719 192.0376,362.5484 192.3815,362.8601 192.6933,363.204 192.9698,363.5769 193.2084,363.975 193.4069,364.3946 193.5632,364.8317 193.676,365.2819 193.7441,365.7411 193.7669,366.2047 193.7441,366.6683 193.676,367.1275 193.5632,367.5777 193.4069,368.0148 193.2084,368.4344 192.9698,368.8325 192.6933,369.2054 192.3815,369.5493 192.0376,369.861 191.6648,370.1375 191.2666,370.3762 190.847,370.5746 190.41,370.731 189.9597,370.8438 189.5006,370.9119 189.0369,370.9347 188.5733,370.9119 188.1142,370.8438 187.6639,370.731 187.2269,370.5746 186.8073,370.3762 186.4091,370.1375 186.0363,369.861 185.6924,369.5493 185.3806,369.2054"/>
    <polygon points="203.0034,363.5912 202.6052,363.8298 202.1856,364.0283 201.7486,364.1847 201.2983,364.2975 200.8391,364.3656 200.3755,364.3883 199.9119,364.3656 199.4528,364.2975 199.0025,364.1847 198.5654,364.0283 198.1458,363.8298 197.7477,363.5912 197.3749,363.3147 197.0309,363.003 196.7192,362.659 196.4427,362.2862 196.2041,361.8881 196.0056,361.4684 195.8492,361.0314 195.7364,360.5811 195.6683,360.122 195.6456,359.6584 195.6683,359.1947 195.7364,358.7356 195.8492,358.2853 196.0056,357.8483 196.2041,357.4287 196.4427,357.0305 196.7192,356.6577 197.0309,356.3138 197.3749,356.002 197.7477,355.7255 198.1458,355.4869 198.5654,355.2884 199.0025,355.1321 199.4528,355.0193 199.9119,354.9512 200.3755,354.9284 200.8391,354.9512 201.2983,355.0193 201.7486,355.1321 202.1856,355.2884 202.6052,355.4869 203.0034,355.7255 203.3762,356.002 203.7201,356.3138 204.0318,356.6577 204.3084,357.0305 204.547,357.4287 204.7455,357.8483 204.9018,358.2853 205.0146,358.7356 205.0827,359.1947 205.1055,359.6584 205.0827,360.122 205.0146,360.5811 204.9018,361.0314 204.7455,361.4684 204.547,361.8881 204.3084,362.2862 204.0318,362.659 203.7201,363.003 203.3762,363.3147"/>
    <polygon points="193.2084,350.8823 193.4069,351.302 193.5632,351.739 193.676,352.1893 193.7441,352.6484 193.7669,353.112 193.7441,353.5757 193.676,354.0348 193.5632,354.4851 193.4069,354.9221 193.2084,355.3417 192.9698,355.7399 192.6933,356.1127 192.3815,356.4566 192.0376,356.7684 191.6648,357.0449 191.2666,357.2835 190.847,357.482 190.41,357.6383 189.9597,357.7511 189.5006,357.8192 189.0369,357.842 188.5733,357.8192 188.1142,357.7511 187.6639,357.6383 187.2269,357.482 186.8073,357.2835 186.4091,357.0449 186.0363,356.7684 185.6924,356.4566 185.3806,356.1127 185.1041,355.7399 184.8655,355.3417 184.667,354.9221 184.5106,354.4851 184.3979,354.0348 184.3297,353.5757 184.307,353.112 184.3297,352.6484 184.3979,352.1893 184.5106,351.739 184.667,351.302 184.8655,350.8823 185.1041,350.4842 185.3806,350.1114 185.6924,349.7674 186.0363,349.4557 186.4091,349.1792 186.8073,348.9406 187.2269,348.7421 187.6639,348.5857 188.1142,348.4729 188.5733,348.4048 189.0369,348.3821 189.5006,348.4048 189.9597,348.4729 190.41,348.5857 190.847,348.7421 191.2666,348.9406 191.6648,349.1792 192.0376,349.4557 192.3815,349.7674 192.6933,350.1114 192.9698,350.4842"/>
    <polygon points="193.7371,335.7041 194.2102,334.7038 194.7792,333.7546 195.4384,332.8658 196.1815,332.0458 197.0014,331.3027 197.8903,330.6435 198.8394,330.0746 199.8398,329.6014 200.8817,329.2286 201.9552,328.9597 203.0498,328.7974 204.1551,328.7431 205.2603,328.7974 206.355,328.9597 207.4284,329.2286 208.4703,329.6014 209.4707,330.0746 210.4198,330.6435 211.3087,331.3027 212.1286,332.0458 212.8718,332.8658 213.531,333.7546 214.0999,334.7038 214.573,335.7041 214.9458,336.746 215.2147,337.8195 215.3771,338.9141 215.4314,340.0194 215.3771,341.1246 215.2147,342.2193 214.9458,343.2927 214.573,344.3346 214.0999,345.335 213.531,346.2841 212.8718,347.173 212.1286,347.9929 211.3087,348.7361 210.4198,349.3953 209.4707,349.9642 208.4703,350.4373 207.4284,350.8101 206.355,351.079 205.2603,351.2414 204.1551,351.2957 203.0498,351.2414 201.9552,351.079 200.8817,350.8101 199.8398,350.4373 198.8394,349.9642 197.8903,349.3953 197.0014,348.7361 196.1815,347.9929 195.4384,347.173 194.7792,346.2841 194.2102,345.335 193.7371,344.3346 193.3643,343.2927 193.0954,342.2193 192.933,341.1246 192.8788,340.0194 192.933,338.9141 193.0954,337.8195 193.3643,336.746"/>
    <polygon points="201.9552,302.7744 203.0498,302.612 204.1551,302.5577 205.2603,302.612 206.355,302.7744 207.4284,303.0433 208.4703,303.4161 209.4707,303.8892 210.4198,304.4581 211.3087,305.1173 212.1286,305.8605 212.8718,306.6804 213.531,307.5693 214.0999,308.5184 214.573,309.5188 214.9458,310.5607 215.2147,311.6341 215.3771,312.7288 215.4314,313.834 215.3771,314.9393 215.2147,316.0339 214.9458,317.1074 214.573,318.1493 214.0999,319.1496 213.531,320.0988 212.8718,320.9876 212.1286,321.8076 211.3087,322.5507 210.4198,323.2099 209.4707,323.7788 208.4703,324.252 207.4284,324.6248 206.355,324.8937 205.2603,325.056 204.1551,325.1103 203.0498,325.056 201.9552,324.8937 200.8817,324.6248 199.8398,324.252 198.8394,323.7788 197.8903,323.2099 197.0014,322.5507 196.1815,321.8076 195.4384,320.9876 194.7792,320.0988 194.2102,319.1496 193.7371,318.1493 193.3643,317.1074 193.0954,316.0339 192.933,314.9393 192.8788,313.834 192.933,312.7288 193.0954,311.6341 193.3643,310.5607 193.7371,309.5188 194.2102,308.5184 194.7792,307.5693 195.4384,306.6804 196.1815,305.8605 197.0014,305.1173 197.8903,304.4581 198.8394,303.8892 199.8398,303.4161 200.8817,303.0433"/>
    <polygon points="186.7935,310.6862 185.7931,311.1593 184.7512,311.5321 183.6778,311.801 182.5832,311.9634 181.4779,312.0177 180.3726,311.9634 179.278,311.801 178.2046,311.5321 177.1626,311.1593 176.1623,310.6862 175.2131,310.1173 174.3243,309.4581 173.5043,308.7149 172.7612,307.895 172.102,307.0061 171.5331,306.057 171.0599,305.0566 170.6871,304.0147 170.4183,302.9413 170.2559,301.8466 170.2016,300.7414 170.2559,299.6361 170.4183,298.5415 170.6871,297.468 171.0599,296.4261 171.5331,295.4257 172.102,294.4766 172.7612,293.5878 173.5043,292.7678 174.3243,292.0247 175.2131,291.3655 176.1623,290.7965 177.1626,290.3234 178.2046,289.9506 179.278,289.6817 180.3726,289.5194 181.4779,289.4651 182.5832,289.5194 183.6778,289.6817 184.7512,289.9506 185.7931,290.3234 186.7935,290.7965 187.7427,291.3655 188.6315,292.0247 189.4514,292.7678 190.1946,293.5878 190.8538,294.4766 191.4227,295.4257 191.8958,296.4261 192.2686,297.468 192.5375,298.5415 192.6999,299.6361 192.7542,300.7414 192.6999,301.8466 192.5375,302.9413 192.2686,304.0147 191.8958,305.0566 191.4227,306.057 190.8538,307.0061 190.1946,307.895 189.4514,308.7149 188.6315,309.4581 187.7427,310.1173"/>
    <polygon points="173.3284,322.1904 173.1721,321.7534 173.0593,321.3031 172.9912,320.844 172.9684,320.3804 172.9912,319.9167 173.0593,319.4576 173.1721,319.0073 173.3284,318.5703 173.5269,318.1507 173.7655,317.7525 174.042,317.3797 174.3538,317.0358 174.6977,316.724 175.0705,316.4475 175.4687,316.2089 175.8883,316.0104 176.3253,315.8541 176.7756,315.7413 177.2347,315.6732 177.6984,315.6504 178.162,315.6732 178.6211,315.7413 179.0714,315.8541 179.5084,316.0104 179.9281,316.2089 180.3262,316.4475 180.699,316.724 181.043,317.0358 181.3547,317.3797 181.6312,317.7525 181.8698,318.1507 182.0683,318.5703 182.2247,319.0073 182.3375,319.4576 182.4056,319.9167 182.4283,320.3804 182.4056,320.844 182.3375,321.3031 182.2247,321.7534 182.0683,322.1904 181.8698,322.6101 181.6312,323.0082 181.3547,323.381 181.043,323.725 180.699,324.0367 180.3262,324.3132 179.9281,324.5518 179.5084,324.7503 179.0714,324.9067 178.6211,325.0195 178.162,325.0876 177.6984,325.1103 177.2347,325.0876 176.7756,325.0195 176.3253,324.9067 175.8883,324.7503 175.4687,324.5518 175.0705,324.3132 174.6977,324.0367 174.3538,323.725 174.042,323.381 173.7655,323.0082 173.5269,322.6101"/>
    <polygon points="158.6775,330.4724 158.3658,330.1284 158.0219,329.8167 157.649,329.5402 157.2509,329.3016 156.8313,329.1031 156.3942,328.9467 155.944,328.8339 155.4848,328.7658 155.0212,328.7431 154.5576,328.7658 154.0984,328.8339 153.6482,328.9467 153.2111,329.1031 152.7915,329.3016 152.3934,329.5402 152.0205,329.8167 151.6766,330.1284 151.3649,330.4724 151.0884,330.8452 150.8497,331.2433 150.6513,331.663 150.4949,332.1 150.3821,332.5503 150.314,333.0094 150.2912,333.473 150.314,333.9367 150.3821,334.3958 150.4949,334.8461 150.6513,335.2831 150.8497,335.7027 151.0884,336.1009 151.3649,336.4737 151.6766,336.8176 152.0205,337.1294 152.3934,337.4059 152.7915,337.6445 153.2111,337.843 153.6482,337.9993 154.0984,338.1121 154.5576,338.1802 155.0212,338.203 155.4848,338.1802 155.944,338.1121 156.3942,337.9993 156.8313,337.843 157.2509,337.6445 157.649,337.4059 158.0219,337.1294 158.3658,336.8176 158.6775,336.4737 158.954,336.1009 159.1927,335.7027 159.3911,335.2831 159.5475,334.8461 159.6603,334.3958 159.7284,333.9367 159.7512,333.473 159.7284,333.0094 159.6603,332.5503 159.5475,332.1 159.3911,331.663 159.1927,331.2433 158.954,330.8452"/>
    <polygon points="149.4248,307.5693 150.084,306.6804 150.8272,305.8605 151.6471,305.1173 152.5359,304.4581 153.4851,303.8892 154.4855,303.4161 155.5274,303.0433 156.6008,302.7744 157.6955,302.612 158.8007,302.5577 159.906,302.612 161.0006,302.7744 162.0741,303.0433 163.116,303.4161 164.1163,303.8892 165.0655,304.4581 165.9543,305.1173 166.7743,305.8605 167.5174,306.6804 168.1766,307.5693 168.7455,308.5184 169.2187,309.5188 169.5915,310.5607 169.8604,311.6341 170.0227,312.7288 170.077,313.834 170.0227,314.9393 169.8604,316.0339 169.5915,317.1074 169.2187,318.1493 168.7455,319.1496 168.1766,320.0988 167.5174,320.9876 166.7743,321.8076 165.9543,322.5507 165.0655,323.2099 164.1163,323.7788 163.116,324.252 162.0741,324.6248 161.0006,324.8937 159.906,325.056 158.8007,325.1103 157.6955,325.056 156.6008,324.8937 155.5274,324.6248 154.4855,324.252 153.4851,323.7788 152.5359,323.2099 151.6471,322.5507 150.8272,321.8076 150.084,320.9876 149.4248,320.0988 148.8559,319.1496 148.3828,318.1493 148.01,317.1074 147.7411,316.0339 147.5787,314.9393 147.5244,313.834 147.5787,312.7288 147.7411,311.6341 148.01,310.5607 148.3828,309.5188 148.8559,308.5184"/>
    <polygon points="148.2089,299.3683 148.3217,299.8186 148.3898,300.2777 148.4126,300.7414 148.3898,301.205 148.3217,301.6641 148.2089,302.1144 148.0525,302.5514 147.8541,302.9711 147.6154,303.3692 147.3389,303.742 147.0272,304.086 146.6833,304.3977 146.3104,304.6742 145.9123,304.9128 145.4927,305.1113 145.0557,305.2677 144.6054,305.3805 144.1462,305.4486 143.6826,305.4713 143.219,305.4486 142.7598,305.3805 142.3096,305.2677 141.8725,305.1113 141.4529,304.9128 141.0548,304.6742 140.682,304.3977 140.338,304.086 140.0263,303.742 139.7498,303.3692 139.5112,302.9711 139.3127,302.5514 139.1563,302.1144 139.0435,301.6641 138.9754,301.205 138.9526,300.7414 138.9754,300.2777 139.0435,299.8186 139.1563,299.3683 139.3127,298.9313 139.5112,298.5117 139.7498,298.1135 140.0263,297.7407 140.338,297.3968 140.682,297.085 141.0548,296.8085 141.4529,296.5699 141.8725,296.3714 142.3096,296.2151 142.7598,296.1023 143.219,296.0342 143.6826,296.0114 144.1462,296.0342 144.6054,296.1023 145.0557,296.2151 145.4927,296.3714 145.9123,296.5699 146.3104,296.8085 146.6833,297.085 147.0272,297.3968 147.3389,297.7407 147.6154,298.1135 147.8541,298.5117 148.0525,298.9313"/>
    <polygon points="132.344,298.925 131.8804,298.9022 131.4213,298.8341 130.971,298.7213 130.534,298.565 130.1143,298.3665 129.7162,298.1279 129.3434,297.8513 128.9994,297.5396 128.6877,297.1957 128.4112,296.8229 128.1726,296.4247 127.9741,296.0051 127.8177,295.5681 127.7049,295.1178 127.6368,294.6586 127.6141,294.195 127.6368,293.7314 127.7049,293.2723 127.8177,292.822 127.9741,292.3849 128.1726,291.9653 128.4112,291.5672 128.6877,291.1944 128.9994,290.8504 129.3434,290.5387 129.7162,290.2622 130.1143,290.0236 130.534,289.8251 130.971,289.6687 131.4213,289.5559 131.8804,289.4878 132.344,289.4651 132.8077,289.4878 133.2668,289.5559 133.7171,289.6687 134.1541,289.8251 134.5737,290.0236 134.9719,290.2622 135.3447,290.5387 135.6886,290.8504 136.0004,291.1944 136.2769,291.5672 136.5155,291.9653 136.714,292.3849 136.8703,292.822 136.9831,293.2723 137.0512,293.7314 137.074,294.195 137.0512,294.6586 136.9831,295.1178 136.8703,295.5681 136.714,296.0051 136.5155,296.4247 136.2769,296.8229 136.0004,297.1957 135.6886,297.5396 135.3447,297.8513 134.9719,298.1279 134.5737,298.3665 134.1541,298.565 133.7171,298.7213 133.2668,298.8341 132.8077,298.9022"/>
    <polygon points="139.1563,275.9291 139.0435,275.4788 138.9754,275.0196 138.9526,274.556 138.9754,274.0924 139.0435,273.6333 139.1563,273.183 139.3127,272.7459 139.5112,272.3263 139.7498,271.9282 140.0263,271.5554 140.338,271.2114 140.682,270.8997 141.0548,270.6232 141.4529,270.3846 141.8725,270.1861 142.3096,270.0297 142.7598,269.9169 143.219,269.8488 143.6826,269.8261 144.1462,269.8488 144.6054,269.9169 145.0557,270.0297 145.4927,270.1861 145.9123,270.3846 146.3104,270.6232 146.6833,270.8997 147.0272,271.2114 147.3389,271.5554 147.6154,271.9282 147.8541,272.3263 148.0525,272.7459 148.2089,273.183 148.3217,273.6333 148.3898,274.0924 148.4126,274.556 148.3898,275.0196 148.3217,275.4788 148.2089,275.9291 148.0525,276.3661 147.8541,276.7857 147.6154,277.1839 147.3389,277.5567 147.0272,277.9006 146.6833,278.2123 146.3104,278.4889 145.9123,278.7275 145.4927,278.926 145.0557,279.0823 144.6054,279.1951 144.1462,279.2632 143.6826,279.286 143.219,279.2632 142.7598,279.1951 142.3096,279.0823 141.8725,278.926 141.4529,278.7275 141.0548,278.4889 140.682,278.2123 140.338,277.9006 140.0263,277.5567 139.7498,277.1839 139.5112,276.7857 139.3127,276.3661"/>
    <polygon points="162.0741,276.8579 163.116,277.2307 164.1163,277.7039 165.0655,278.2728 165.9543,278.932 166.7743,279.6751 167.5174,280.4951 168.1766,281.3839 168.7455,282.3331 169.2187,283.3334 169.5915,284.3754 169.8604,285.4488 170.0227,286.5434 170.077,287.6487 170.0227,288.754 169.8604,289.8486 169.5915,290.922 169.2187,291.964 168.7455,292.9643 168.1766,293.9135 167.5174,294.8023 166.7743,295.6222 165.9543,296.3654 165.0655,297.0246 164.1163,297.5935 163.116,298.0666 162.0741,298.4394 161.0006,298.7083 159.906,298.8707 158.8007,298.925 157.6955,298.8707 156.6008,298.7083 155.5274,298.4394 154.4855,298.0666 153.4851,297.5935 152.5359,297.0246 151.6471,296.3654 150.8272,295.6222 150.084,294.8023 149.4248,293.9135 148.8559,292.9643 148.3828,291.964 148.01,290.922 147.7411,289.8486 147.5787,288.754 147.5244,287.6487 147.5787,286.5434 147.7411,285.4488 148.01,284.3754 148.3828,283.3334 148.8559,282.3331 149.4248,281.3839 150.084,280.4951 150.8272,279.6751 151.6471,278.932 152.5359,278.2728 153.4851,277.7039 154.4855,277.2307 155.5274,276.8579 156.6008,276.5891 157.6955,276.4267 158.8007,276.3724 159.906,276.4267 161.0006,276.5891"/>
    <polygon points="169.2187,265.7786 168.7455,266.779 168.1766,267.7281 167.5174,268.617 166.7743,269.4369 165.9543,270.1801 165.0655,270.8393 164.1163,271.4082 163.116,271.8813 162.0741,272.2541 161.0006,272.523 159.906,272.6854 158.8007,272.7397 157.6955,272.6854 156.6008,272.523 155.5274,272.2541 154.4855,271.8813 153.4851,271.4082 152.5359,270.8393 151.6471,270.1801 150.8272,269.4369 150.084,268.617 149.4248,267.7281 148.8559,266.779 148.3828,265.7786 148.01,264.7367 147.7411,263.6633 147.5787,262.5686 147.5244,261.4634 147.5787,260.3581 147.7411,259.2635 148.01,258.19 148.3828,257.1481 148.8559,256.1477 149.4248,255.1986 150.084,254.3097 150.8272,253.4898 151.6471,252.7467 152.5359,252.0875 153.4851,251.5185 154.4855,251.0454 155.5274,250.6726 156.6008,250.4037 157.6955,250.2414 158.8007,250.1871 159.906,250.2414 161.0006,250.4037 162.0741,250.6726 163.116,251.0454 164.1163,251.5185 165.0655,252.0875 165.9543,252.7467 166.7743,253.4898 167.5174,254.3097 168.1766,255.1986 168.7455,256.1477 169.2187,257.1481 169.5915,258.19 169.8604,259.2635 170.0227,260.3581 170.077,261.4634 170.0227,262.5686 169.8604,263.6633 169.5915,264.7367"/>
    <polygon points="190.8538,254.6355 190.1946,255.5243 189.4514,256.3442 188.6315,257.0874 187.7427,257.7466 186.7935,258.3155 185.7931,258.7886 184.7512,259.1614 183.6778,259.4303 182.5832,259.5927 181.4779,259.647 180.3726,259.5927 179.278,259.4303 178.2046,259.1614 177.1626,258.7886 176.1623,258.3155 175.2131,257.7466 174.3243,257.0874 173.5043,256.3442 172.7612,255.5243 172.102,254.6355 171.5331,253.6863 171.0599,252.6859 170.6871,251.644 170.4183,250.5706 170.2559,249.476 170.2016,248.3707 170.2559,247.2654 170.4183,246.1708 170.6871,245.0974 171.0599,244.0554 171.5331,243.0551 172.102,242.1059 172.7612,241.2171 173.5043,240.3971 174.3243,239.654 175.2131,238.9948 176.1623,238.4259 177.1626,237.9527 178.2046,237.5799 179.278,237.3111 180.3726,237.1487 181.4779,237.0944 182.5832,237.1487 183.6778,237.3111 184.7512,237.5799 185.7931,237.9527 186.7935,238.4259 187.7427,238.9948 188.6315,239.654 189.4514,240.3971 190.1946,241.2171 190.8538,242.1059 191.4227,243.0551 191.8958,244.0554 192.2686,245.0974 192.5375,246.1708 192.6999,247.2654 192.7542,248.3707 192.6999,249.476 192.5375,250.5706 192.2686,251.644 191.8958,252.6859 191.4227,253.6863"/>
    <polygon points="193.0954,237.4779 192.933,236.3833 192.8788,235.278 192.933,234.1728 193.0954,233.0781 193.3643,232.0047 193.7371,230.9628 194.2102,229.9624 194.7792,229.0132 195.4384,228.1244 196.1815,227.3045 197.0014,226.5613 197.8903,225.9021 198.8394,225.3332 199.8398,224.8601 200.8817,224.4873 201.9552,224.2184 203.0498,224.056 204.1551,224.0017 205.2603,224.056 206.355,224.2184 207.4284,224.4873 208.4703,224.8601 209.4707,225.3332 210.4198,225.9021 211.3087,226.5613 212.1286,227.3045 212.8718,228.1244 213.531,229.0132 214.0999,229.9624 214.573,230.9628 214.9458,232.0047 215.2147,233.0781 215.3771,234.1728 215.4314,235.278 215.3771,236.3833 215.2147,237.4779 214.9458,238.5514 214.573,239.5933 214.0999,240.5936 213.531,241.5428 212.8718,242.4316 212.1286,243.2516 211.3087,243.9947 210.4198,244.6539 209.4707,245.2228 208.4703,245.696 207.4284,246.0688 206.355,246.3377 205.2603,246.5 204.1551,246.5543 203.0498,246.5 201.9552,246.3377 200.8817,246.0688 199.8398,245.696 198.8394,245.2228 197.8903,244.6539 197.0014,243.9947 196.1815,243.2516 195.4384,242.4316 194.7792,241.5428 194.2102,240.5936 193.7371,239.5933 193.3643,238.5514"/>
    <polygon points="188.5733,226.8926 188.1142,226.8244 187.6639,226.7117 187.2269,226.5553 186.8073,226.3568 186.4091,226.1182 186.0363,225.8417 185.6924,225.53 185.3806,225.186 185.1041,224.8132 184.8655,224.4151 184.667,223.9954 184.5106,223.5584 184.3979,223.1081 184.3297,222.649 184.307,222.1854 184.3297,221.7217 184.3979,221.2626 184.5106,220.8123 184.667,220.3753 184.8655,219.9557 185.1041,219.5575 185.3806,219.1847 185.6924,218.8408 186.0363,218.529 186.4091,218.2525 186.8073,218.0139 187.2269,217.8154 187.6639,217.6591 188.1142,217.5463 188.5733,217.4782 189.0369,217.4554 189.5006,217.4782 189.9597,217.5463 190.41,217.6591 190.847,217.8154 191.2666,218.0139 191.6648,218.2525 192.0376,218.529 192.3815,218.8408 192.6933,219.1847 192.9698,219.5575 193.2084,219.9557 193.4069,220.3753 193.5632,220.8123 193.676,221.2626 193.7441,221.7217 193.7669,222.1854 193.7441,222.649 193.676,223.1081 193.5632,223.5584 193.4069,223.9954 193.2084,224.4151 192.9698,224.8132 192.6933,225.186 192.3815,225.53 192.0376,225.8417 191.6648,226.1182 191.2666,226.3568 190.847,226.5553 190.41,226.7117 189.9597,226.8244 189.5006,226.8926 189.0369,226.9153"/>
    <polygon points="174.3538,232.0763 174.6977,232.388 175.0705,232.6645 175.4687,232.9032 175.8883,233.1016 176.3253,233.258 176.7756,233.3708 177.2347,233.4389 177.6984,233.4617 178.162,233.4389 178.6211,233.3708 179.0714,233.258 179.5084,233.1016 179.9281,232.9032 180.3262,232.6645 180.699,232.388 181.043,232.0763 181.3547,231.7324 181.6312,231.3595 181.8698,230.9614 182.0683,230.5418 182.2247,230.1047 182.3375,229.6545 182.4056,229.1953 182.4283,228.7317 182.4056,228.2681 182.3375,227.8089 182.2247,227.3587 182.0683,226.9216 181.8698,226.502 181.6312,226.1039 181.3547,225.731 181.043,225.3871 180.699,225.0754 180.3262,224.7989 179.9281,224.5602 179.5084,224.3618 179.0714,224.2054 178.6211,224.0926 178.162,224.0245 177.6984,224.0017 177.2347,224.0245 176.7756,224.0926 176.3253,224.2054 175.8883,224.3618 175.4687,224.5602 175.0705,224.7989 174.6977,225.0754 174.3538,225.3871 174.042,225.731 173.7655,226.1039 173.5269,226.502 173.3284,226.9216 173.1721,227.3587 173.0593,227.8089 172.9912,228.2681 172.9684,228.7317 172.9912,229.1953 173.0593,229.6545 173.1721,230.1047 173.3284,230.5418 173.5269,230.9614 173.7655,231.3595 174.042,231.7324"/>
    <polygon points="169.5915,232.0047 169.2187,230.9628 168.7455,229.9624 168.1766,229.0132 167.5174,228.1244 166.7743,227.3045 165.9543,226.5613 165.0655,225.9021 164.1163,225.3332 163.116,224.8601 162.0741,224.4873 161.0006,224.2184 159.906,224.056 158.8007,224.0017 157.6955,224.056 156.6008,224.2184 155.5274,224.4873 154.4855,224.8601 153.4851,225.3332 152.5359,225.9021 151.6471,226.5613 150.8272,227.3045 150.084,228.1244 149.4248,229.0132 148.8559,229.9624 148.3828,230.9628 148.01,232.0047 147.7411,233.0781 147.5787,234.1728 147.5244,235.278 147.5787,236.3833 147.7411,237.4779 148.01,238.5514 148.3828,239.5933 148.8559,240.5936 149.4248,241.5428 150.084,242.4316 150.8272,243.2516 151.6471,243.9947 152.5359,244.6539 153.4851,245.2228 154.4855,245.696 155.5274,246.0688 156.6008,246.3377 157.6955,246.5 158.8007,246.5543 159.906,246.5 161.0006,246.3377 162.0741,246.0688 163.116,245.696 164.1163,245.2228 165.0655,244.6539 165.9543,243.9947 166.7743,243.2516 167.5174,242.4316 168.1766,241.5428 168.7455,240.5936 169.2187,239.5933 169.5915,238.5514 169.8604,237.4779 170.0227,236.3833 170.077,235.278 170.0227,234.1728 169.8604,233.0781"/>
    <polygon points="151.3649,212.6384 151.0884,213.0112 150.8497,213.4093 150.6513,213.8289 150.4949,214.266 150.3821,214.7163 150.314,215.1754 150.2912,215.639 150.314,216.1026 150.3821,216.5618 150.4949,217.0121 150.6513,217.4491 150.8497,217.8687 151.0884,218.2669 151.3649,218.6397 151.6766,218.9836 152.0205,219.2953 152.3934,219.5719 152.7915,219.8105 153.2111,220.0089 153.6482,220.1653 154.0984,220.2781 154.5576,220.3462 155.0212,220.369 155.4848,220.3462 155.944,220.2781 156.3942,220.1653 156.8313,220.0089 157.2509,219.8105 157.649,219.5719 158.0219,219.2953 158.3658,218.9836 158.6775,218.6397 158.954,218.2669 159.1927,217.8687 159.3911,217.4491 159.5475,217.0121 159.6603,216.5618 159.7284,216.1026 159.7512,215.639 159.7284,215.1754 159.6603,214.7163 159.5475,214.266 159.3911,213.8289 159.1927,213.4093 158.954,213.0112 158.6775,212.6384 158.3658,212.2944 158.0219,211.9827 157.649,211.7062 157.2509,211.4676 156.8313,211.2691 156.3942,211.1127 155.944,210.9999 155.4848,210.9318 155.0212,210.9091 154.5576,210.9318 154.0984,210.9999 153.6482,211.1127 153.2111,211.2691 152.7915,211.4676 152.3934,211.7062 152.0205,211.9827 151.6766,212.2944"/>
    <polygon points="157.649,198.6135 157.2509,198.3749 156.8313,198.1764 156.3942,198.0201 155.944,197.9073 155.4848,197.8392 155.0212,197.8164 154.5576,197.8392 154.0984,197.9073 153.6482,198.0201 153.2111,198.1764 152.7915,198.3749 152.3934,198.6135 152.0205,198.89 151.6766,199.2018 151.3649,199.5457 151.0884,199.9185 150.8497,200.3167 150.6513,200.7363 150.4949,201.1733 150.3821,201.6236 150.314,202.0827 150.2912,202.5464 150.314,203.01 150.3821,203.4691 150.4949,203.9194 150.6513,204.3564 150.8497,204.7761 151.0884,205.1742 151.3649,205.547 151.6766,205.891 152.0205,206.2027 152.3934,206.4792 152.7915,206.7178 153.2111,206.9163 153.6482,207.0727 154.0984,207.1854 154.5576,207.2536 155.0212,207.2763 155.4848,207.2536 155.944,207.1854 156.3942,207.0727 156.8313,206.9163 157.2509,206.7178 157.649,206.4792 158.0219,206.2027 158.3658,205.891 158.6775,205.547 158.954,205.1742 159.1927,204.7761 159.3911,204.3564 159.5475,203.9194 159.6603,203.4691 159.7284,203.01 159.7512,202.5464 159.7284,202.0827 159.6603,201.6236 159.5475,201.1733 159.3911,200.7363 159.1927,200.3167 158.954,199.9185 158.6775,199.5457 158.3658,199.2018 158.0219,198.89"/>
    <polygon points="170.9989,195.0773 170.8861,194.627 170.7297,194.1899 170.5312,193.7703 170.2926,193.3722 170.0161,192.9994 169.7044,192.6554 169.3604,192.3437 168.9876,192.0672 168.5895,191.8286 168.1699,191.6301 167.7328,191.4737 167.2826,191.3609 166.8234,191.2928 166.3598,191.2701 165.8962,191.2928 165.437,191.3609 164.9867,191.4737 164.5497,191.6301 164.1301,191.8286 163.7319,192.0672 163.3591,192.3437 163.0152,192.6554 162.7035,192.9994 162.427,193.3722 162.1883,193.7703 161.9899,194.1899 161.8335,194.627 161.7207,195.0773 161.6526,195.5364 161.6298,196.0 161.6526,196.4636 161.7207,196.9228 161.8335,197.3731 161.9899,197.8101 162.1883,198.2297 162.427,198.6279 162.7035,199.0007 163.0152,199.3446 163.3591,199.6563 163.7319,199.9329 164.1301,200.1715 164.5497,200.3699 164.9867,200.5263 165.437,200.6391 165.8962,200.7072 166.3598,200.73 166.8234,200.7072 167.2826,200.6391 167.7328,200.5263 168.1699,200.3699 168.5895,200.1715 168.9876,199.9329 169.3604,199.6563 169.7044,199.3446 170.0161,199.0007 170.2926,198.6279 170.5312,198.2297 170.7297,197.8101 170.8861,197.3731 170.9989,196.9228 171.067,196.4636 171.0898,196.0 171.067,195.5364"/>
    <polygon points="184.3979,196.9228 184.5106,197.3731 184.667,197.8101 184.8655,198.2297 185.1041,198.6279 185.3806,199.0007 185.6924,199.3446 186.0363,199.6563 186.4091,199.9329 186.8073,200.1715 187.2269,200.3699 187.6639,200.5263 188.1142,200.6391 188.5733,200.7072 189.0369,200.73 189.5006,200.7072 189.9597,200.6391 190.41,200.5263 190.847,200.3699 191.2666,200.1715 191.6648,199.9329 192.0376,199.6563 192.3815,199.3446 192.6933,199.0007 192.9698,198.6279 193.2084,198.2297 193.4069,197.8101 193.5632,197.3731 193.676,196.9228 193.7441,196.4636 193.7669,196.0 193.7441,195.5364 193.676,195.0773 193.5632,194.627 193.4069,194.1899 193.2084,193.7703 192.9698,193.3722 192.6933,192.9994 192.3815,192.6554 192.0376,192.3437 191.6648,192.0672 191.2666,191.8286 190.847,191.6301 190.41,191.4737 189.9597,191.3609 189.5006,191.2928 189.0369,191.2701 188.5733,191.2928 188.1142,191.3609 187.6639,191.4737 187.2269,191.6301 186.8073,191.8286 186.4091,192.0672 186.0363,192.3437 185.6924,192.6554 185.3806,192.9994 185.1041,193.3722 184.8655,193.7703 184.667,194.1899 184.5106,194.627 184.3979,195.0773 184.3297,195.5364 184.307,196.0 184.3297,196.4636"/>
    <polygon points="199.9119,197.8392 199.4528,197.9073 199.0025,198.0201 198.5654,198.1764 198.1458,198.3749 197.7477,198.6135 197.3749,198.89 197.0309,199.2018 196.7192,199.5457 196.4427,199.9185 196.2041,200.3167 196.0056,200.7363 195.8492,201.1733 195.7364,201.6236 195.6683,202.0827 195.6456,202.5464 195.6683,203.01 195.7364,203.4691 195.8492,203.9194 196.0056,204.3564 196.2041,204.7761 196.4427,205.1742 196.7192,205.547 197.0309,205.891 197.3749,206.2027 197.7477,206.4792 198.1458,206.7178 198.5654,206.9163 199.0025,207.0727 199.4528,207.1854 199.9119,207.2536 200.3755,207.2763 200.8391,207.2536 201.2983,207.1854 201.7486,207.0727 202.1856,206.9163 202.6052,206.7178 203.0034,206.4792 203.3762,206.2027 203.7201,205.891 204.0318,205.547 204.3084,205.1742 204.547,204.7761 204.7455,204.3564 204.9018,203.9194 205.0146,203.4691 205.0827,203.01 205.1055,202.5464 205.0827,202.0827 205.0146,201.6236 204.9018,201.1733 204.7455,200.7363 204.547,200.3167 204.3084,199.9185 204.0318,199.5457 203.7201,199.2018 203.3762,198.89 203.0034,198.6135 202.6052,198.3749 202.1856,198.1764 201.7486,198.0201 201.2983,197.9073 200.8391,197.8392 200.3755,197.8164"/>
    <polygon points="176.7756,210.9999 176.3253,211.1127 175.8883,211.2691 175.4687,211.4676 175.0705,211.7062 174.6977,211.9827 174.3538,212.2944 174.042,212.6384 173.7655,213.0112 173.5269,213.4093 173.3284,213.8289 173.1721,214.266 173.0593,214.7163 172.9912,215.1754 172.9684,215.639 172.9912,216.1026 173.0593,216.5618 173.1721,217.0121 173.3284,217.4491 173.5269,217.8687 173.7655,218.2669 174.042,218.6397 174.3538,218.9836 174.6977,219.2953 175.0705,219.5719 175.4687,219.8105 175.8883,220.0089 176.3253,220.1653 176.7756,220.2781 177.2347,220.3462 177.6984,220.369 178.162,220.3462 178.6211,220.2781 179.0714,220.1653 179.5084,220.0089 179.9281,219.8105 180.3262,219.5719 180.699,219.2953 181.043,218.9836 181.3547,218.6397 181.6312,218.2669 181.8698,217.8687 182.0683,217.4491 182.2247,217.0121 182.3375,216.5618 182.4056,216.1026 182.4283,215.639 182.4056,215.1754 182.3375,214.7163 182.2247,214.266 182.0683,213.8289 181.8698,213.4093 181.6312,213.0112 181.3547,212.6384 181.043,212.2944 180.699,211.9827 180.3262,211.7062 179.9281,211.4676 179.5084,211.2691 179.0714,211.1127 178.6211,210.9999 178.162,210.9318 177.6984,210.9091 177.2347,210.9318"/>
    <polygon points="190.847,213.4626 190.41,213.619 189.9597,213.7318 189.5006,213.7999 189.0369,213.8227 188.5733,213.7999 188.1142,213.7318 187.6639,213.619 187.2269,213.4626 186.8073,213.2642 186.4091,213.0255 186.0363,212.749 185.6924,212.4373 185.3806,212.0934 185.1041,211.7205 184.8655,211.3224 184.667,210.9028 184.5106,210.4657 184.3979,210.0155 184.3297,209.5563 184.307,209.0927 184.3297,208.6291 184.3979,208.1699 184.5106,207.7197 184.667,207.2826 184.8655,206.863 185.1041,206.4649 185.3806,206.092 185.6924,205.7481 186.0363,205.4364 186.4091,205.1599 186.8073,204.9212 187.2269,204.7228 187.6639,204.5664 188.1142,204.4536 188.5733,204.3855 189.0369,204.3627 189.5006,204.3855 189.9597,204.4536 190.41,204.5664 190.847,204.7228 191.2666,204.9212 191.6648,205.1599 192.0376,205.4364 192.3815,205.7481 192.6933,206.092 192.9698,206.4649 193.2084,206.863 193.4069,207.2826 193.5632,207.7197 193.676,208.1699 193.7441,208.6291 193.7669,209.0927 193.7441,209.5563 193.676,210.0155 193.5632,210.4657 193.4069,210.9028 193.2084,211.3224 192.9698,211.7205 192.6933,212.0934 192.3815,212.4373 192.0376,212.749 191.6648,213.0255 191.2666,213.2642"/>
    <polygon points="198.1458,219.8105 197.7477,219.5719 197.3749,219.2953 197.0309,218.9836 196.7192,218.6397 196.4427,218.2669 196.2041,217.8687 196.0056,217.4491 195.8492,217.0121 195.7364,216.5618 195.6683,216.1026 195.6456,215.639 195.6683,215.1754 195.7364,214.7163 195.8492,214.266 196.0056,213.8289 196.2041,213.4093 196.4427,213.0112 196.7192,212.6384 197.0309,212.2944 197.3749,211.9827 197.7477,211.7062 198.1458,211.4676 198.5654,211.2691 199.0025,211.1127 199.4528,210.9999 199.9119,210.9318 200.3755,210.9091 200.8391,210.9318 201.2983,210.9999 201.7486,211.1127 202.1856,211.2691 202.6052,211.4676 203.0034,211.7062 203.3762,211.9827 203.7201,212.2944 204.0318,212.6384 204.3084,213.0112 204.547,213.4093 204.7455,213.8289 204.9018,214.266 205.0146,214.7163 205.0827,215.1754 205.1055,215.639 205.0827,216.1026 205.0146,216.5618 204.9018,217.0121 204.7455,217.4491 204.547,217.8687 204.3084,218.2669 204.0318,218.6397 203.7201,218.9836 203.3762,219.2953 203.0034,219.5719 202.6052,219.8105 202.1856,220.0089 201.7486,220.1653 201.2983,220.2781 200.8391,220.3462 200.3755,220.369 199.9119,220.3462 199.4528,220.2781 199.0025,220.1653 198.5654,220.0089"/>
    <polygon points="225.2824,232.9032 224.8628,233.1016 224.4257,233.258 223.9755,233.3708 223.5163,233.4389 223.0527,233.4617 222.5891,233.4389 222.1299,233.3708 221.6797,233.258 221.2426,233.1016 220.823,232.9032 220.4249,232.6645 220.052,232.388 219.7081,232.0763 219.3964,231.7324 219.1199,231.3595 218.8812,230.9614 218.6828,230.5418 218.5264,230.1047 218.4136,229.6545 218.3455,229.1953 218.3227,228.7317 218.3455,228.2681 218.4136,227.8089 218.5264,227.3587 218.6828,226.9216 218.8812,226.502 219.1199,226.1039 219.3964,225.731 219.7081,225.3871 220.052,225.0754 220.4249,224.7989 220.823,224.5602 221.2426,224.3618 221.6797,224.2054 222.1299,224.0926 222.5891,224.0245 223.0527,224.0017 223.5163,224.0245 223.9755,224.0926 224.4257,224.2054 224.8628,224.3618 225.2824,224.5602 225.6805,224.7989 226.0534,225.0754 226.3973,225.3871 226.709,225.731 226.9855,226.1039 227.2242,226.502 227.4226,226.9216 227.579,227.3587 227.6918,227.8089 227.7599,228.2681 227.7827,228.7317 227.7599,229.1953 227.6918,229.6545 227.579,230.1047 227.4226,230.5418 227.2242,230.9614 226.9855,231.3595 226.709,231.7324 226.3973,232.0763 226.0534,232.388 225.6805,232.6645"/>
    <polygon points="225.2528,254.294 227.1736,255.7186 228.9456,257.3246 230.5516,259.0965 231.9762,261.0174 233.2056,263.0686 234.2281,265.2304 235.0338,267.4821 235.6148,269.8019 235.9657,272.1675 236.0831,274.556 235.9657,276.9446 235.6148,279.3102 235.0338,281.63 234.2281,283.8816 233.2056,286.0435 231.9762,288.0947 230.5516,290.0155 228.9456,291.7875 227.1736,293.3935 225.2528,294.8181 223.2016,296.0475 221.0397,297.07 218.7881,297.8757 216.4683,298.4568 214.1027,298.8077 211.7141,298.925 209.3255,298.8077 206.96,298.4568 204.6402,297.8757 202.3885,297.07 200.2267,296.0475 198.1754,294.8181 196.2546,293.3935 194.4826,291.7875 192.8766,290.0155 191.4521,288.0947 190.2226,286.0435 189.2001,283.8816 188.3945,281.63 187.8134,279.3102 187.4625,276.9446 187.3451,274.556 187.4625,272.1675 187.8134,269.8019 188.3945,267.4821 189.2001,265.2304 190.2226,263.0686 191.4521,261.0174 192.8766,259.0965 194.4826,257.3246 196.2546,255.7186 198.1754,254.294 200.2267,253.0645 202.3885,252.042 204.6402,251.2364 206.96,250.6553 209.3255,250.3044 211.7141,250.1871 214.1027,250.3044 216.4683,250.6553 218.7881,251.2364 221.0397,252.042 223.2016,253.0645"/>
    <polygon points="254.825,251.5185 253.8246,251.0454 252.7827,250.6726 251.7093,250.4037 250.6147,250.2414 249.5094,250.1871 248.4041,250.2414 247.3095,250.4037 246.236,250.6726 245.1941,251.0454 244.1938,251.5185 243.2446,252.0875 242.3558,252.7467 241.5358,253.4898 240.7927,254.3097 240.1335,255.1986 239.5646,256.1477 239.0914,257.1481 238.7186,258.19 238.4498,259.2635 238.2874,260.3581 238.2331,261.4634 238.2874,262.5686 238.4498,263.6633 238.7186,264.7367 239.0914,265.7786 239.5646,266.779 240.1335,267.7281 240.7927,268.617 241.5358,269.4369 242.3558,270.1801 243.2446,270.8393 244.1938,271.4082 245.1941,271.8813 246.236,272.2541 247.3095,272.523 248.4041,272.6854 249.5094,272.7397 250.6147,272.6854 251.7093,272.523 252.7827,272.2541 253.8246,271.8813 254.825,271.4082 255.7742,270.8393 256.663,270.1801 257.4829,269.4369 258.2261,268.617 258.8853,267.7281 259.4542,266.779 259.9273,265.7786 260.3001,264.7367 260.569,263.6633 260.7314,262.5686 260.7857,261.4634 260.7314,260.3581 260.569,259.2635 260.3001,258.19 259.9273,257.1481 259.4542,256.1477 258.8853,255.1986 258.2261,254.3097 257.4829,253.4898 256.663,252.7467 255.7742,252.0875"/>
    <polygon points="273.1142,255.3806 273.137,254.917 273.1142,254.4534 273.0461,253.9943 272.9333,253.544 272.777,253.1069 272.5785,252.6873 272.3399,252.2892 272.0633,251.9164 271.7516,251.5724 271.4077,251.2607 271.0349,250.9842 270.6367,250.7456 270.2171,250.5471 269.7801,250.3907 269.3298,250.2779 268.8706,250.2098 268.407,250.1871 267.9434,250.2098 267.4843,250.2779 267.034,250.3907 266.5969,250.5471 266.1773,250.7456 265.7792,250.9842 265.4064,251.2607 265.0624,251.5724 264.7507,251.9164 264.4742,252.2892 264.2356,252.6873 264.0371,253.1069 263.8807,253.544 263.7679,253.9943 263.6998,254.4534 263.6771,254.917 263.6998,255.3806 263.7679,255.8398 263.8807,256.2901 264.0371,256.7271 264.2356,257.1467 264.4742,257.5449 264.7507,257.9177 265.0624,258.2616 265.4064,258.5733 265.7792,258.8499 266.1773,259.0885 266.5969,259.287 267.034,259.4433 267.4843,259.5561 267.9434,259.6242 268.407,259.647 268.8706,259.6242 269.3298,259.5561 269.7801,259.4433 270.2171,259.287 270.6367,259.0885 271.0349,258.8499 271.4077,258.5733 271.7516,258.2616 272.0633,257.9177 272.3399,257.5449 272.5785,257.1467 272.777,256.7271 272.9333,256.2901 273.0461,255.8398"/>
    <polygon points="288.0835,264.3534 287.7396,264.6651 287.4279,265.009 287.1514,265.3819 286.9127,265.78 286.7143,266.1996 286.5579,266.6367 286.4451,267.0869 286.377,267.5461 286.3542,268.0097 286.377,268.4733 286.4451,268.9325 286.5579,269.3827 286.7143,269.8198 286.9127,270.2394 287.1514,270.6375 287.4279,271.0104 287.7396,271.3543 288.0835,271.666 288.4564,271.9425 288.8545,272.1812 289.2741,272.3796 289.7112,272.536 290.1614,272.6488 290.6206,272.7169 291.0842,272.7397 291.5478,272.7169 292.007,272.6488 292.4572,272.536 292.8943,272.3796 293.3139,272.1812 293.712,271.9425 294.0849,271.666 294.4288,271.3543 294.7405,271.0104 295.017,270.6375 295.2557,270.2394 295.4541,269.8198 295.6105,269.3827 295.7233,268.9325 295.7914,268.4733 295.8142,268.0097 295.7914,267.5461 295.7233,267.0869 295.6105,266.6367 295.4541,266.1996 295.2557,265.78 295.017,265.3819 294.7405,265.009 294.4288,264.6651 294.0849,264.3534 293.712,264.0769 293.3139,263.8382 292.8943,263.6398 292.4572,263.4834 292.007,263.3706 291.5478,263.3025 291.0842,263.2797 290.6206,263.3025 290.1614,263.3706 289.7112,263.4834 289.2741,263.6398 288.8545,263.8382 288.4564,264.0769"/>
    <polygon points="298.2513,259.2337 298.0528,259.6533 297.8965,260.0903 297.7837,260.5406 297.7156,260.9997 297.6928,261.4634 297.7156,261.927 297.7837,262.3861 297.8965,262.8364 298.0528,263.2734 298.2513,263.6931 298.4899,264.0912 298.7665,264.464 299.0782,264.808 299.4221,265.1197 299.7949,265.3962 300.1931,265.6348 300.6127,265.8333 301.0497,265.9897 301.5,266.1024 301.9592,266.1706 302.4228,266.1933 302.8864,266.1706 303.3455,266.1024 303.7958,265.9897 304.2329,265.8333 304.6525,265.6348 305.0506,265.3962 305.4234,265.1197 305.7674,264.808 306.0791,264.464 306.3556,264.0912 306.5942,263.6931 306.7927,263.2734 306.9491,262.8364 307.0619,262.3861 307.13,261.927 307.1527,261.4634 307.13,260.9997 307.0619,260.5406 306.9491,260.0903 306.7927,259.6533 306.5942,259.2337 306.3556,258.8355 306.0791,258.4627 305.7674,258.1188 305.4234,257.807 305.0506,257.5305 304.6525,257.2919 304.2329,257.0934 303.7958,256.9371 303.3455,256.8243 302.8864,256.7562 302.4228,256.7334 301.9592,256.7562 301.5,256.8243 301.0497,256.9371 300.6127,257.0934 300.1931,257.2919 299.7949,257.5305 299.4221,257.807 299.0782,258.1188 298.7665,258.4627 298.4899,258.8355"/>
    <polygon points="314.6841,272.6488 315.1344,272.536 315.5714,272.3796 315.991,272.1812 316.3892,271.9425 316.762,271.666 317.106,271.3543 317.4177,271.0104 317.6942,270.6375 317.9328,270.2394 318.1313,269.8198 318.2877,269.3827 318.4004,268.9325 318.4686,268.4733 318.4913,268.0097 318.4686,267.5461 318.4004,267.0869 318.2877,266.6367 318.1313,266.1996 317.9328,265.78 317.6942,265.3819 317.4177,265.009 317.106,264.6651 316.762,264.3534 316.3892,264.0769 315.991,263.8382 315.5714,263.6398 315.1344,263.4834 314.6841,263.3706 314.225,263.3025 313.7614,263.2797 313.2977,263.3025 312.8386,263.3706 312.3883,263.4834 311.9513,263.6398 311.5317,263.8382 311.1335,264.0769 310.7607,264.3534 310.4168,264.6651 310.105,265.009 309.8285,265.3819 309.5899,265.78 309.3914,266.1996 309.2351,266.6367 309.1223,267.0869 309.0542,267.5461 309.0314,268.0097 309.0542,268.4733 309.1223,268.9325 309.2351,269.3827 309.3914,269.8198 309.5899,270.2394 309.8285,270.6375 310.105,271.0104 310.4168,271.3543 310.7607,271.666 311.1335,271.9425 311.5317,272.1812 311.9513,272.3796 312.3883,272.536 312.8386,272.6488 313.2977,272.7169 313.7614,272.7397 314.225,272.7169"/>
    <polygon points="315.1344,276.5761 314.6841,276.4633 314.225,276.3952 313.7614,276.3724 313.2977,276.3952 312.8386,276.4633 312.3883,276.5761 311.9513,276.7324 311.5317,276.9309 311.1335,277.1695 310.7607,277.446 310.4168,277.7578 310.105,278.1017 309.8285,278.4745 309.5899,278.8727 309.3914,279.2923 309.2351,279.7293 309.1223,280.1796 309.0542,280.6387 309.0314,281.1024 309.0542,281.566 309.1223,282.0251 309.2351,282.4754 309.3914,282.9124 309.5899,283.3321 309.8285,283.7302 310.105,284.103 310.4168,284.447 310.7607,284.7587 311.1335,285.0352 311.5317,285.2738 311.9513,285.4723 312.3883,285.6287 312.8386,285.7414 313.2977,285.8096 313.7614,285.8323 314.225,285.8096 314.6841,285.7414 315.1344,285.6287 315.5714,285.4723 315.991,285.2738 316.3892,285.0352 316.762,284.7587 317.106,284.447 317.4177,284.103 317.6942,283.7302 317.9328,283.3321 318.1313,282.9124 318.2877,282.4754 318.4004,282.0251 318.4686,281.566 318.4913,281.1024 318.4686,280.6387 318.4004,280.1796 318.2877,279.7293 318.1313,279.2923 317.9328,278.8727 317.6942,278.4745 317.4177,278.1017 317.106,277.7578 316.762,277.446 316.3892,277.1695 315.991,276.9309 315.5714,276.7324"/>
    <polygon points="327.9588,296.4261 327.4857,295.4257 326.9168,294.4766 326.2576,293.5878 325.5144,292.7678 324.6945,292.0247 323.8057,291.3655 322.8565,290.7965 321.8561,290.3234 320.8142,289.9506 319.7408,289.6817 318.6462,289.5194 317.5409,289.4651 316.4356,289.5194 315.341,289.6817 314.2675,289.9506 313.2256,290.3234 312.2253,290.7965 311.2761,291.3655 310.3873,292.0247 309.5673,292.7678 308.8242,293.5878 308.165,294.4766 307.5961,295.4257 307.1229,296.4261 306.7501,297.468 306.4812,298.5415 306.3189,299.6361 306.2646,300.7414 306.3189,301.8466 306.4812,302.9413 306.7501,304.0147 307.1229,305.0566 307.5961,306.057 308.165,307.0061 308.8242,307.895 309.5673,308.7149 310.3873,309.4581 311.2761,310.1173 312.2253,310.6862 313.2256,311.1593 314.2675,311.5321 315.341,311.801 316.4356,311.9634 317.5409,312.0177 318.6462,311.9634 319.7408,311.801 320.8142,311.5321 321.8561,311.1593 322.8565,310.6862 323.8057,310.1173 324.6945,309.4581 325.5144,308.7149 326.2576,307.895 326.9168,307.0061 327.4857,306.057 327.9588,305.0566 328.3316,304.0147 328.6005,302.9413 328.7629,301.8466 328.8172,300.7414 328.7629,299.6361 328.6005,298.5415 328.3316,297.468"/>
    <polygon points="332.2671,305.058 332.0686,305.4776 331.9122,305.9147 331.7994,306.3649 331.7313,306.8241 331.7085,307.2877 331.7313,307.7513 331.7994,308.2105 331.9122,308.6607 332.0686,309.0978 332.2671,309.5174 332.5057,309.9155 332.7822,310.2884 333.0939,310.6323 333.4379,310.944 333.8107,311.2205 334.2088,311.4592 334.6284,311.6576 335.0655,311.814 335.5157,311.9268 335.9749,311.9949 336.4385,312.0177 336.9021,311.9949 337.3613,311.9268 337.8116,311.814 338.2486,311.6576 338.6682,311.4592 339.0664,311.2205 339.4392,310.944 339.7831,310.6323 340.0948,310.2884 340.3713,309.9155 340.61,309.5174 340.8084,309.0978 340.9648,308.6607 341.0776,308.2105 341.1457,307.7513 341.1685,307.2877 341.1457,306.8241 341.0776,306.3649 340.9648,305.9147 340.8084,305.4776 340.61,305.058 340.3713,304.6599 340.0948,304.287 339.7831,303.9431 339.4392,303.6314 339.0664,303.3549 338.6682,303.1162 338.2486,302.9178 337.8116,302.7614 337.3613,302.6486 336.9021,302.5805 336.4385,302.5577 335.9749,302.5805 335.5157,302.6486 335.0655,302.7614 334.6284,302.9178 334.2088,303.1162 333.8107,303.3549 333.4379,303.6314 333.0939,303.9431 332.7822,304.287 332.5057,304.6599"/>
    <polygon points="340.9648,295.5681 341.0776,295.1178 341.1457,294.6586 341.1685,294.195 341.1457,293.7314 341.0776,293.2723 340.9648,292.822 340.8084,292.3849 340.61,291.9653 340.3713,291.5672 340.0948,291.1944 339.7831,290.8504 339.4392,290.5387 339.0664,290.2622 338.6682,290.0236 338.2486,289.8251 337.8116,289.6687 337.3613,289.5559 336.9021,289.4878 336.4385,289.4651 335.9749,289.4878 335.5157,289.5559 335.0655,289.6687 334.6284,289.8251 334.2088,290.0236 333.8107,290.2622 333.4379,290.5387 333.0939,290.8504 332.7822,291.1944 332.5057,291.5672 332.2671,291.9653 332.0686,292.3849 331.9122,292.822 331.7994,293.2723 331.7313,293.7314 331.7085,294.195 331.7313,294.6586 331.7994,295.1178 331.9122,295.5681 332.0686,296.0051 332.2671,296.4247 332.5057,296.8229 332.7822,297.1957 333.0939,297.5396 333.4379,297.8513 333.8107,298.1279 334.2088,298.3665 334.6284,298.565 335.0655,298.7213 335.5157,298.8341 335.9749,298.9022 336.4385,298.925 336.9021,298.9022 337.3613,298.8341 337.8116,298.7213 338.2486,298.565 338.6682,298.3665 339.0664,298.1279 339.4392,297.8513 339.7831,297.5396 340.0948,297.1957 340.3713,296.8229 340.61,296.4247 340.8084,296.0051"/>
    <polygon points="347.3135,296.0342 346.8543,296.1023 346.4041,296.2151 345.967,296.3714 345.5474,296.5699 345.1493,296.8085 344.7764,297.085 344.4325,297.3968 344.1208,297.7407 343.8443,298.1135 343.6056,298.5117 343.4072,298.9313 343.2508,299.3683 343.138,299.8186 343.0699,300.2777 343.0471,300.7414 343.0699,301.205 343.138,301.6641 343.2508,302.1144 343.4072,302.5514 343.6056,302.9711 343.8443,303.3692 344.1208,303.742 344.4325,304.086 344.7764,304.3977 345.1493,304.6742 345.5474,304.9128 345.967,305.1113 346.4041,305.2677 346.8543,305.3805 347.3135,305.4486 347.7771,305.4713 348.2407,305.4486 348.6999,305.3805 349.1501,305.2677 349.5872,305.1113 350.0068,304.9128 350.4049,304.6742 350.7778,304.3977 351.1217,304.086 351.4334,303.742 351.7099,303.3692 351.9486,302.9711 352.147,302.5514 352.3034,302.1144 352.4162,301.6641 352.4843,301.205 352.5071,300.7414 352.4843,300.2777 352.4162,299.8186 352.3034,299.3683 352.147,298.9313 351.9486,298.5117 351.7099,298.1135 351.4334,297.7407 351.1217,297.3968 350.7778,297.085 350.4049,296.8085 350.0068,296.5699 349.5872,296.3714 349.1501,296.2151 348.6999,296.1023 348.2407,296.0342 347.7771,296.0114"/>
    <polygon points="363.8457,307.2877 363.8229,306.8241 363.7548,306.3649 363.642,305.9147 363.4856,305.4776 363.2872,305.058 363.0485,304.6599 362.772,304.287 362.4603,303.9431 362.1163,303.6314 361.7435,303.3549 361.3454,303.1162 360.9258,302.9178 360.4887,302.7614 360.0385,302.6486 359.5793,302.5805 359.1157,302.5577 358.6521,302.5805 358.1929,302.6486 357.7426,302.7614 357.3056,302.9178 356.886,303.1162 356.4879,303.3549 356.115,303.6314 355.7711,303.9431 355.4594,304.287 355.1829,304.6599 354.9442,305.058 354.7458,305.4776 354.5894,305.9147 354.4766,306.3649 354.4085,306.8241 354.3857,307.2877 354.4085,307.7513 354.4766,308.2105 354.5894,308.6607 354.7458,309.0978 354.9442,309.5174 355.1829,309.9155 355.4594,310.2884 355.7711,310.6323 356.115,310.944 356.4879,311.2205 356.886,311.4592 357.3056,311.6576 357.7426,311.814 358.1929,311.9268 358.6521,311.9949 359.1157,312.0177 359.5793,311.9949 360.0385,311.9268 360.4887,311.814 360.9258,311.6576 361.3454,311.4592 361.7435,311.2205 362.1163,310.944 362.4603,310.6323 362.772,310.2884 363.0485,309.9155 363.2872,309.5174 363.4856,309.0978 363.642,308.6607 363.7548,308.2105 363.8229,307.7513"/>
    <polygon points="369.9907,318.5412 369.5315,318.4731 369.0812,318.3603 368.6442,318.204 368.2246,318.0055 367.8264,317.7669 367.4536,317.4903 367.1097,317.1786 366.798,316.8347 366.5214,316.4619 366.2828,316.0637 366.0843,315.6441 365.928,315.2071 365.8152,314.7568 365.7471,314.2976 365.7243,313.834 365.7471,313.3704 365.8152,312.9113 365.928,312.461 366.0843,312.0239 366.2828,311.6043 366.5214,311.2062 366.798,310.8334 367.1097,310.4894 367.4536,310.1777 367.8264,309.9012 368.2246,309.6626 368.6442,309.4641 369.0812,309.3077 369.5315,309.1949 369.9907,309.1268 370.4543,309.1041 370.9179,309.1268 371.377,309.1949 371.8273,309.3077 372.2644,309.4641 372.684,309.6626 373.0821,309.9012 373.4549,310.1777 373.7989,310.4894 374.1106,310.8334 374.3871,311.2062 374.6257,311.6043 374.8242,312.0239 374.9806,312.461 375.0934,312.9113 375.1615,313.3704 375.1842,313.834 375.1615,314.2976 375.0934,314.7568 374.9806,315.2071 374.8242,315.6441 374.6257,316.0637 374.3871,316.4619 374.1106,316.8347 373.7989,317.1786 373.4549,317.4903 373.0821,317.7669 372.684,318.0055 372.2644,318.204 371.8273,318.3603 371.377,318.4731 370.9179,318.5412 370.4543,318.564"/>
    <polygon points="356.886,316.2089 357.3056,316.0104 357.7426,315.8541 358.1929,315.7413 358.6521,315.6732 359.1157,315.6504 359.5793,315.6732 360.0385,315.7413 360.4887,315.8541 360.9258,316.0104 361.3454,316.2089 361.7435,316.4475 362.1163,316.724 362.4603,317.0358 362.772,317.3797 363.0485,317.7525 363.2872,318.1507 363.4856,318.5703 363.642,319.0073 363.7548,319.4576 363.8229,319.9167 363.8457,320.3804 363.8229,320.844 363.7548,321.3031 363.642,321.7534 363.4856,322.1904 363.2872,322.6101 363.0485,323.0082 362.772,323.381 362.4603,323.725 362.1163,324.0367 361.7435,324.3132 361.3454,324.5518 360.9258,324.7503 360.4887,324.9067 360.0385,325.0195 359.5793,325.0876 359.1157,325.1103 358.6521,325.0876 358.1929,325.0195 357.7426,324.9067 357.3056,324.7503 356.886,324.5518 356.4879,324.3132 356.115,324.0367 355.7711,323.725 355.4594,323.381 355.1829,323.0082 354.9442,322.6101 354.7458,322.1904 354.5894,321.7534 354.4766,321.3031 354.4085,320.844 354.3857,320.3804 354.4085,319.9167 354.4766,319.4576 354.5894,319.0073 354.7458,318.5703 354.9442,318.1507 355.1829,317.7525 355.4594,317.3797 355.7711,317.0358 356.115,316.724 356.4879,316.4475"/>
    <polygon points="316.3892,324.3132 316.762,324.0367 317.106,323.725 317.4177,323.381 317.6942,323.0082 317.9328,322.6101 318.1313,322.1904 318.2877,321.7534 318.4004,321.3031 318.4686,320.844 318.4913,320.3804 318.4686,319.9167 318.4004,319.4576 318.2877,319.0073 318.1313,318.5703 317.9328,318.1507 317.6942,317.7525 317.4177,317.3797 317.106,317.0358 316.762,316.724 316.3892,316.4475 315.991,316.2089 315.5714,316.0104 315.1344,315.8541 314.6841,315.7413 314.225,315.6732 313.7614,315.6504 313.2977,315.6732 312.8386,315.7413 312.3883,315.8541 311.9513,316.0104 311.5317,316.2089 311.1335,316.4475 310.7607,316.724 310.4168,317.0358 310.105,317.3797 309.8285,317.7525 309.5899,318.1507 309.3914,318.5703 309.2351,319.0073 309.1223,319.4576 309.0542,319.9167 309.0314,320.3804 309.0542,320.844 309.1223,321.3031 309.2351,321.7534 309.3914,322.1904 309.5899,322.6101 309.8285,323.0082 310.105,323.381 310.4168,323.725 310.7607,324.0367 311.1335,324.3132 311.5317,324.5518 311.9513,324.7503 312.3883,324.9067 312.8386,325.0195 313.2977,325.0876 313.7614,325.1103 314.225,325.0876 314.6841,325.0195 315.1344,324.9067 315.5714,324.7503 315.991,324.5518"/>
    <polygon points="298.1371,324.6248 299.179,324.252 300.1793,323.7788 301.1285,323.2099 302.0173,322.5507 302.8373,321.8076 303.5804,320.9876 304.2396,320.0988 304.8085,319.1496 305.2817,318.1493 305.6545,317.1074 305.9234,316.0339 306.0857,314.9393 306.14,313.834 306.0857,312.7288 305.9234,311.6341 305.6545,310.5607 305.2817,309.5188 304.8085,308.5184 304.2396,307.5693 303.5804,306.6804 302.8373,305.8605 302.0173,305.1173 301.1285,304.4581 300.1793,303.8892 299.179,303.4161 298.1371,303.0433 297.0636,302.7744 295.969,302.612 294.8637,302.5577 293.7584,302.612 292.6638,302.7744 291.5904,303.0433 290.5485,303.4161 289.5481,303.8892 288.5989,304.4581 287.7101,305.1173 286.8902,305.8605 286.147,306.6804 285.4878,307.5693 284.9189,308.5184 284.4458,309.5188 284.073,310.5607 283.8041,311.6341 283.6417,312.7288 283.5874,313.834 283.6417,314.9393 283.8041,316.0339 284.073,317.1074 284.4458,318.1493 284.9189,319.1496 285.4878,320.0988 286.147,320.9876 286.8902,321.8076 287.7101,322.5507 288.5989,323.2099 289.5481,323.7788 290.5485,324.252 291.5904,324.6248 292.6638,324.8937 293.7584,325.056 294.8637,325.1103 295.969,325.056 297.0636,324.8937"/>
    <polygon points="286.9127,331.2433 286.7143,331.663 286.5579,332.1 286.4451,332.5503 286.377,333.0094 286.3542,333.473 286.377,333.9367 286.4451,334.3958 286.5579,334.8461 286.7143,335.2831 286.9127,335.7027 287.1514,336.1009 287.4279,336.4737 287.7396,336.8176 288.0835,337.1294 288.4564,337.4059 288.8545,337.6445 289.2741,337.843 289.7112,337.9993 290.1614,338.1121 290.6206,338.1802 291.0842,338.203 291.5478,338.1802 292.007,338.1121 292.4572,337.9993 292.8943,337.843 293.3139,337.6445 293.712,337.4059 294.0849,337.1294 294.4288,336.8176 294.7405,336.4737 295.017,336.1009 295.2557,335.7027 295.4541,335.2831 295.6105,334.8461 295.7233,334.3958 295.7914,333.9367 295.8142,333.473 295.7914,333.0094 295.7233,332.5503 295.6105,332.1 295.4541,331.663 295.2557,331.2433 295.017,330.8452 294.7405,330.4724 294.4288,330.1284 294.0849,329.8167 293.712,329.5402 293.3139,329.3016 292.8943,329.1031 292.4572,328.9467 292.007,328.8339 291.5478,328.7658 291.0842,328.7431 290.6206,328.7658 290.1614,328.8339 289.7112,328.9467 289.2741,329.1031 288.8545,329.3016 288.4564,329.5402 288.0835,329.8167 287.7396,330.1284 287.4279,330.4724 287.1514,330.8452"/>
    <polygon points="290.5485,298.0666 291.5904,298.4394 292.6638,298.7083 293.7584,298.8707 294.8637,298.925 295.969,298.8707 297.0636,298.7083 298.1371,298.4394 299.179,298.0666 300.1793,297.5935 301.1285,297.0246 302.0173,296.3654 302.8373,295.6222 303.5804,294.8023 304.2396,293.9135 304.8085,292.9643 305.2817,291.964 305.6545,290.922 305.9234,289.8486 306.0857,288.754 306.14,287.6487 306.0857,286.5434 305.9234,285.4488 305.6545,284.3754 305.2817,283.3334 304.8085,282.3331 304.2396,281.3839 303.5804,280.4951 302.8373,279.6751 302.0173,278.932 301.1285,278.2728 300.1793,277.7039 299.179,277.2307 298.1371,276.8579 297.0636,276.5891 295.969,276.4267 294.8637,276.3724 293.7584,276.4267 292.6638,276.5891 291.5904,276.8579 290.5485,277.2307 289.5481,277.7039 288.5989,278.2728 287.7101,278.932 286.8902,279.6751 286.147,280.4951 285.4878,281.3839 284.9189,282.3331 284.4458,283.3334 284.073,284.3754 283.8041,285.4488 283.6417,286.5434 283.5874,287.6487 283.6417,288.754 283.8041,289.8486 284.073,290.922 284.4458,291.964 284.9189,292.9643 285.4878,293.9135 286.147,294.8023 286.8902,295.6222 287.7101,296.3654 288.5989,297.0246 289.5481,297.5935"/>
    <polygon points="266.394,278.2274 264.1424,277.4217 261.8226,276.8406 259.457,276.4897 257.0684,276.3724 254.6799,276.4897 252.3143,276.8406 249.9945,277.4217 247.7428,278.2274 245.581,279.2498 243.5298,280.4793 241.6089,281.9039 239.837,283.5099 238.231,285.2819 236.8064,287.2027 235.5769,289.2539 234.5544,291.4158 233.7488,293.6674 233.1677,295.9872 232.8168,298.3528 232.6995,300.7414 232.8168,303.1299 233.1677,305.4955 233.7488,307.8153 234.5544,310.067 235.5769,312.2288 236.8064,314.28 238.231,316.2009 239.837,317.9728 241.6089,319.5788 243.5298,321.0034 245.581,322.2329 247.7428,323.2554 249.9945,324.061 252.3143,324.6421 254.6799,324.993 257.0684,325.1103 259.457,324.993 261.8226,324.6421 264.1424,324.061 266.394,323.2554 268.5559,322.2329 270.6071,321.0034 272.528,319.5788 274.2999,317.9728 275.9059,316.2009 277.3305,314.28 278.56,312.2288 279.5824,310.067 280.3881,307.8153 280.9692,305.4955 281.3201,303.1299 281.4374,300.7414 281.3201,298.3528 280.9692,295.9872 280.3881,293.6674 279.5824,291.4158 278.56,289.2539 277.3305,287.2027 275.9059,285.2819 274.2999,283.5099 272.528,281.9039 270.6071,280.4793 268.5559,279.2498"/>
  </g>
</svg>
