<?xml version="1.0" encoding="utf-8" ?>
<svg xmlns="http://www.w3.org/2000/svg" xmlns:cc="http://creativecommons.org/ns" xmlns:dc="http://purl.org/dc/elements/1.1/" xmlns:ev="http://www.w3.org/2001/xml-events" xmlns:inkscape="http://www.inkscape.org/namespaces/inkscape" xmlns:rdf="http://www.w3.org/1999/02/22-rdf-syntax-ns" xmlns:sodipodi="http://sodipodi.sourceforge.net/DTD/sodipodi-0.dtd" xmlns:xlink="http://www.w3.org/1999/xlink" baseProfile="tiny" height="15.875cm" version="1.2" viewBox="0 0 432.0 600.0" width="11.43cm">
  <metadata>
    <rdf:RDF>
      <cc:Work>
        <dc:format>image/svg+xml</dc:format>
        <dc:source>vsk save -s 164 -c hex-grid/config/bubble-coasters-2.json /Users/tobin/src/fabian/plotting/fabian-plotting/hex-grid/sketch_hex_grid.py</dc:source>
        <dc:date>2023-11-04T10:32:59.653832</dc:date>
      </cc:Work>
    </rdf:RDF>
  </metadata>
  <defs/>
  <g fill="none" id="layer1" inkscape:groupmode="layer" inkscape:label="1" stroke="#000000" stroke-width="0.7559" style="display:inline">
    <polygon points="332.8117,225.3332 333.7608,225.9021 334.6497,226.5613 335.4696,227.3045 336.2128,228.1244 336.872,229.0132 337.4409,229.9624 337.914,230.9628 338.2868,232.0047 338.5557,233.0781 338.7181,234.1728 338.7724,235.278 338.7181,236.3833 338.5557,237.4779 338.2868,238.5514 337.914,239.5933 337.4409,240.5936 336.872,241.5428 336.2128,242.4316 335.4696,243.2516 334.6497,243.9947 333.7608,244.6539 332.8117,245.2228 331.8113,245.696 330.7694,246.0688 329.696,246.3377 328.6013,246.5 327.4961,246.5543 326.3908,246.5 325.2962,246.3377 324.2227,246.0688 323.1808,245.696 322.1804,245.2228 321.2313,244.6539 320.3424,243.9947 319.5225,243.2516 318.7794,242.4316 318.1202,241.5428 317.5512,240.5936 317.0781,239.5933 316.7053,238.5514 316.4364,237.4779 316.2741,236.3833 316.2198,235.278 316.2741,234.1728 316.4364,233.0781 316.7053,232.0047 317.0781,230.9628 317.5512,229.9624 318.1202,229.0132 318.7794,228.1244 319.5225,227.3045 320.3424,226.5613 321.2313,225.9021 322.1804,225.3332 323.1808,224.8601 324.2227,224.4873 325.2962,224.2184 326.3908,224.056 327.4961,224.0017 328.6013,224.056 329.696,224.2184 330.7694,224.4873 331.8113,224.8601"/>
    <polygon points="350.05,212.6384 350.3265,213.0112 350.5652,213.4093 350.7636,213.8289 350.92,214.266 351.0328,214.7163 351.1009,215.1754 351.1237,215.639 351.1009,216.1026 351.0328,216.5618 350.92,217.0121 350.7636,217.4491 350.5652,217.8687 350.3265,218.2669 350.05,218.6397 349.7383,218.9836 349.3944,219.2953 349.0215,219.5719 348.6234,219.8105 348.2038,220.0089 347.7667,220.1653 347.3165,220.2781 346.8573,220.3462 346.3937,220.369 345.9301,220.3462 345.4709,220.2781 345.0207,220.1653 344.5836,220.0089 344.164,219.8105 343.7659,219.5719 343.393,219.2953 343.0491,218.9836 342.7374,218.6397 342.4609,218.2669 342.2222,217.8687 342.0238,217.4491 341.8674,217.0121 341.7546,216.5618 341.6865,216.1026 341.6637,215.639 341.6865,215.1754 341.7546,214.7163 341.8674,214.266 342.0238,213.8289 342.2222,213.4093 342.4609,213.0112 342.7374,212.6384 343.0491,212.2944 343.393,211.9827 343.7659,211.7062 344.164,211.4676 344.5836,211.2691 345.0207,211.1127 345.4709,210.9999 345.9301,210.9318 346.3937,210.9091 346.8573,210.9318 347.3165,210.9999 347.7667,211.1127 348.2038,211.2691 348.6234,211.4676 349.0215,211.7062 349.3944,211.9827 349.7383,212.2944"/>
    <polygon points="350.5652,226.502 350.7636,226.9216 350.92,227.3587 351.0328,227.8089 351.1009,228.2681 351.1237,228.7317 351.1009,229.1953 351.0328,229.6545 350.92,230.1047 350.7636,230.5418 350.5652,230.9614 350.3265,231.3595 350.05,231.7324 349.7383,232.0763 349.3944,232.388 349.0215,232.6645 348.6234,232.9032 348.2038,233.1016 347.7667,233.258 347.3165,233.3708 346.8573,233.4389 346.3937,233.4617 345.9301,233.4389 345.4709,233.3708 345.0207,233.258 344.5836,233.1016 344.164,232.9032 343.7659,232.6645 343.393,232.388 343.0491,232.0763 342.7374,231.7324 342.4609,231.3595 342.2222,230.9614 342.0238,230.5418 341.8674,230.1047 341.7546,229.6545 341.6865,229.1953 341.6637,228.7317 341.6865,228.2681 341.7546,227.8089 341.8674,227.3587 342.0238,226.9216 342.2222,226.502 342.4609,226.1039 342.7374,225.731 343.0491,225.3871 343.393,225.0754 343.7659,224.7989 344.164,224.5602 344.5836,224.3618 345.0207,224.2054 345.4709,224.0926 345.9301,224.0245 346.3937,224.0017 346.8573,224.0245 347.3165,224.0926 347.7667,224.2054 348.2038,224.3618 348.6234,224.5602 349.0215,224.7989 349.3944,225.0754 349.7383,225.3871 350.05,225.731 350.3265,226.1039"/>
    <polygon points="348.6234,250.7456 349.0215,250.9842 349.3944,251.2607 349.7383,251.5724 350.05,251.9164 350.3265,252.2892 350.5652,252.6873 350.7636,253.1069 350.92,253.544 351.0328,253.9943 351.1009,254.4534 351.1237,254.917 351.1009,255.3806 351.0328,255.8398 350.92,256.2901 350.7636,256.7271 350.5652,257.1467 350.3265,257.5449 350.05,257.9177 349.7383,258.2616 349.3944,258.5733 349.0215,258.8499 348.6234,259.0885 348.2038,259.287 347.7667,259.4433 347.3165,259.5561 346.8573,259.6242 346.3937,259.647 345.9301,259.6242 345.4709,259.5561 345.0207,259.4433 344.5836,259.287 344.164,259.0885 343.7659,258.8499 343.393,258.5733 343.0491,258.2616 342.7374,257.9177 342.4609,257.5449 342.2222,257.1467 342.0238,256.7271 341.8674,256.2901 341.7546,255.8398 341.6865,255.3806 341.6637,254.917 341.6865,254.4534 341.7546,253.9943 341.8674,253.544 342.0238,253.1069 342.2222,252.6873 342.4609,252.2892 342.7374,251.9164 343.0491,251.5724 343.393,251.2607 343.7659,250.9842 344.164,250.7456 344.5836,250.5471 345.0207,250.3907 345.4709,250.2779 345.9301,250.2098 346.3937,250.1871 346.8573,250.2098 347.3165,250.2779 347.7667,250.3907 348.2038,250.5471"/>
    <polygon points="361.6651,264.0912 361.3886,264.464 361.0769,264.808 360.7329,265.1197 360.3601,265.3962 359.962,265.6348 359.5424,265.8333 359.1053,265.9897 358.6551,266.1024 358.1959,266.1706 357.7323,266.1933 357.2687,266.1706 356.8095,266.1024 356.3592,265.9897 355.9222,265.8333 355.5026,265.6348 355.1045,265.3962 354.7316,265.1197 354.3877,264.808 354.076,264.464 353.7995,264.0912 353.5608,263.6931 353.3624,263.2734 353.206,262.8364 353.0932,262.3861 353.0251,261.927 353.0023,261.4634 353.0251,260.9997 353.0932,260.5406 353.206,260.0903 353.3624,259.6533 353.5608,259.2337 353.7995,258.8355 354.076,258.4627 354.3877,258.1188 354.7316,257.807 355.1045,257.5305 355.5026,257.2919 355.9222,257.0934 356.3592,256.9371 356.8095,256.8243 357.2687,256.7562 357.7323,256.7334 358.1959,256.7562 358.6551,256.8243 359.1053,256.9371 359.5424,257.0934 359.962,257.2919 360.3601,257.5305 360.7329,257.807 361.0769,258.1188 361.3886,258.4627 361.6651,258.8355 361.9037,259.2337 362.1022,259.6533 362.2586,260.0903 362.3714,260.5406 362.4395,260.9997 362.4623,261.4634 362.4395,261.927 362.3714,262.3861 362.2586,262.8364 362.1022,263.2734 361.9037,263.6931"/>
    <polygon points="346.3937,285.8323 346.8573,285.8096 347.3165,285.7414 347.7667,285.6287 348.2038,285.4723 348.6234,285.2738 349.0215,285.0352 349.3944,284.7587 349.7383,284.447 350.05,284.103 350.3265,283.7302 350.5652,283.3321 350.7636,282.9124 350.92,282.4754 351.0328,282.0251 351.1009,281.566 351.1237,281.1024 351.1009,280.6387 351.0328,280.1796 350.92,279.7293 350.7636,279.2923 350.5652,278.8727 350.3265,278.4745 350.05,278.1017 349.7383,277.7578 349.3944,277.446 349.0215,277.1695 348.6234,276.9309 348.2038,276.7324 347.7667,276.5761 347.3165,276.4633 346.8573,276.3952 346.3937,276.3724 345.9301,276.3952 345.4709,276.4633 345.0207,276.5761 344.5836,276.7324 344.164,276.9309 343.7659,277.1695 343.393,277.446 343.0491,277.7578 342.7374,278.1017 342.4609,278.4745 342.2222,278.8727 342.0238,279.2923 341.8674,279.7293 341.7546,280.1796 341.6865,280.6387 341.6637,281.1024 341.6865,281.566 341.7546,282.0251 341.8674,282.4754 342.0238,282.9124 342.2222,283.3321 342.4609,283.7302 342.7374,284.103 343.0491,284.447 343.393,284.7587 343.7659,285.0352 344.164,285.2738 344.5836,285.4723 345.0207,285.6287 345.4709,285.7414 345.9301,285.8096"/>
    <polygon points="350.05,291.1944 349.7383,290.8504 349.3944,290.5387 349.0215,290.2622 348.6234,290.0236 348.2038,289.8251 347.7667,289.6687 347.3165,289.5559 346.8573,289.4878 346.3937,289.4651 345.9301,289.4878 345.4709,289.5559 345.0207,289.6687 344.5836,289.8251 344.164,290.0236 343.7659,290.2622 343.393,290.5387 343.0491,290.8504 342.7374,291.1944 342.4609,291.5672 342.2222,291.9653 342.0238,292.3849 341.8674,292.822 341.7546,293.2723 341.6865,293.7314 341.6637,294.195 341.6865,294.6586 341.7546,295.1178 341.8674,295.5681 342.0238,296.0051 342.2222,296.4247 342.4609,296.8229 342.7374,297.1957 343.0491,297.5396 343.393,297.8513 343.7659,298.1279 344.164,298.3665 344.5836,298.565 345.0207,298.7213 345.4709,298.8341 345.9301,298.9022 346.3937,298.925 346.8573,298.9022 347.3165,298.8341 347.7667,298.7213 348.2038,298.565 348.6234,298.3665 349.0215,298.1279 349.3944,297.8513 349.7383,297.5396 350.05,297.1957 350.3265,296.8229 350.5652,296.4247 350.7636,296.0051 350.92,295.5681 351.0328,295.1178 351.1009,294.6586 351.1237,294.195 351.1009,293.7314 351.0328,293.2723 350.92,292.822 350.7636,292.3849 350.5652,291.9653 350.3265,291.5672"/>
    <polygon points="353.0023,287.6487 353.0251,288.1123 353.0932,288.5715 353.206,289.0217 353.3624,289.4588 353.5608,289.8784 353.7995,290.2765 354.076,290.6494 354.3877,290.9933 354.7316,291.305 355.1045,291.5815 355.5026,291.8202 355.9222,292.0186 356.3592,292.175 356.8095,292.2878 357.2687,292.3559 357.7323,292.3787 358.1959,292.3559 358.6551,292.2878 359.1053,292.175 359.5424,292.0186 359.962,291.8202 360.3601,291.5815 360.7329,291.305 361.0769,290.9933 361.3886,290.6494 361.6651,290.2765 361.9037,289.8784 362.1022,289.4588 362.2586,289.0217 362.3714,288.5715 362.4395,288.1123 362.4623,287.6487 362.4395,287.1851 362.3714,286.7259 362.2586,286.2757 362.1022,285.8386 361.9037,285.419 361.6651,285.0209 361.3886,284.648 361.0769,284.3041 360.7329,283.9924 360.3601,283.7159 359.962,283.4772 359.5424,283.2788 359.1053,283.1224 358.6551,283.0096 358.1959,282.9415 357.7323,282.9187 357.2687,282.9415 356.8095,283.0096 356.3592,283.1224 355.9222,283.2788 355.5026,283.4772 355.1045,283.7159 354.7316,283.9924 354.3877,284.3041 354.076,284.648 353.7995,285.0209 353.5608,285.419 353.3624,285.8386 353.206,286.2757 353.0932,286.7259 353.0251,287.1851"/>
    <polygon points="364.5446,295.5681 364.7009,296.0051 364.8994,296.4247 365.138,296.8229 365.4145,297.1957 365.7263,297.5396 366.0702,297.8513 366.443,298.1279 366.8412,298.3665 367.2608,298.565 367.6978,298.7213 368.1481,298.8341 368.6072,298.9022 369.0709,298.925 369.5345,298.9022 369.9936,298.8341 370.4439,298.7213 370.8809,298.565 371.3006,298.3665 371.6987,298.1279 372.0715,297.8513 372.4155,297.5396 372.7272,297.1957 373.0037,296.8229 373.2423,296.4247 373.4408,296.0051 373.5972,295.5681 373.71,295.1178 373.7781,294.6586 373.8008,294.195 373.7781,293.7314 373.71,293.2723 373.5972,292.822 373.4408,292.3849 373.2423,291.9653 373.0037,291.5672 372.7272,291.1944 372.4155,290.8504 372.0715,290.5387 371.6987,290.2622 371.3006,290.0236 370.8809,289.8251 370.4439,289.6687 369.9936,289.5559 369.5345,289.4878 369.0709,289.4651 368.6072,289.4878 368.1481,289.5559 367.6978,289.6687 367.2608,289.8251 366.8412,290.0236 366.443,290.2622 366.0702,290.5387 365.7263,290.8504 365.4145,291.1944 365.138,291.5672 364.8994,291.9653 364.7009,292.3849 364.5446,292.822 364.4318,293.2723 364.3637,293.7314 364.3409,294.195 364.3637,294.6586 364.4318,295.1178"/>
    <polygon points="371.3006,311.4592 370.8809,311.6576 370.4439,311.814 369.9936,311.9268 369.5345,311.9949 369.0709,312.0177 368.6072,311.9949 368.1481,311.9268 367.6978,311.814 367.2608,311.6576 366.8412,311.4592 366.443,311.2205 366.0702,310.944 365.7263,310.6323 365.4145,310.2884 365.138,309.9155 364.8994,309.5174 364.7009,309.0978 364.5446,308.6607 364.4318,308.2105 364.3637,307.7513 364.3409,307.2877 364.3637,306.8241 364.4318,306.3649 364.5446,305.9147 364.7009,305.4776 364.8994,305.058 365.138,304.6599 365.4145,304.287 365.7263,303.9431 366.0702,303.6314 366.443,303.3549 366.8412,303.1162 367.2608,302.9178 367.6978,302.7614 368.1481,302.6486 368.6072,302.5805 369.0709,302.5577 369.5345,302.5805 369.9936,302.6486 370.4439,302.7614 370.8809,302.9178 371.3006,303.1162 371.6987,303.3549 372.0715,303.6314 372.4155,303.9431 372.7272,304.287 373.0037,304.6599 373.2423,305.058 373.4408,305.4776 373.5972,305.9147 373.71,306.3649 373.7781,306.8241 373.8008,307.2877 373.7781,307.7513 373.71,308.2105 373.5972,308.6607 373.4408,309.0978 373.2423,309.5174 373.0037,309.9155 372.7272,310.2884 372.4155,310.6323 372.0715,310.944 371.6987,311.2205"/>
    <polygon points="353.7995,303.3692 353.5608,302.9711 353.3624,302.5514 353.206,302.1144 353.0932,301.6641 353.0251,301.205 353.0023,300.7414 353.0251,300.2777 353.0932,299.8186 353.206,299.3683 353.3624,298.9313 353.5608,298.5117 353.7995,298.1135 354.076,297.7407 354.3877,297.3968 354.7316,297.085 355.1045,296.8085 355.5026,296.5699 355.9222,296.3714 356.3592,296.2151 356.8095,296.1023 357.2687,296.0342 357.7323,296.0114 358.1959,296.0342 358.6551,296.1023 359.1053,296.2151 359.5424,296.3714 359.962,296.5699 360.3601,296.8085 360.7329,297.085 361.0769,297.3968 361.3886,297.7407 361.6651,298.1135 361.9037,298.5117 362.1022,298.9313 362.2586,299.3683 362.3714,299.8186 362.4395,300.2777 362.4623,300.7414 362.4395,301.205 362.3714,301.6641 362.2586,302.1144 362.1022,302.5514 361.9037,302.9711 361.6651,303.3692 361.3886,303.742 361.0769,304.086 360.7329,304.3977 360.3601,304.6742 359.962,304.9128 359.5424,305.1113 359.1053,305.2677 358.6551,305.3805 358.1959,305.4486 357.7323,305.4713 357.2687,305.4486 356.8095,305.3805 356.3592,305.2677 355.9222,305.1113 355.5026,304.9128 355.1045,304.6742 354.7316,304.3977 354.3877,304.086 354.076,303.742"/>
    <polygon points="327.4961,298.925 326.3908,298.8707 325.2962,298.7083 324.2227,298.4394 323.1808,298.0666 322.1804,297.5935 321.2313,297.0246 320.3424,296.3654 319.5225,295.6222 318.7794,294.8023 318.1202,293.9135 317.5512,292.9643 317.0781,291.964 316.7053,290.922 316.4364,289.8486 316.2741,288.754 316.2198,287.6487 316.2741,286.5434 316.4364,285.4488 316.7053,284.3754 317.0781,283.3334 317.5512,282.3331 318.1202,281.3839 318.7794,280.4951 319.5225,279.6751 320.3424,278.932 321.2313,278.2728 322.1804,277.7039 323.1808,277.2307 324.2227,276.8579 325.2962,276.5891 326.3908,276.4267 327.4961,276.3724 328.6013,276.4267 329.696,276.5891 330.7694,276.8579 331.8113,277.2307 332.8117,277.7039 333.7608,278.2728 334.6497,278.932 335.4696,279.6751 336.2128,280.4951 336.872,281.3839 337.4409,282.3331 337.914,283.3334 338.2868,284.3754 338.5557,285.4488 338.7181,286.5434 338.7724,287.6487 338.7181,288.754 338.5557,289.8486 338.2868,290.922 337.914,291.964 337.4409,292.9643 336.872,293.9135 336.2128,294.8023 335.4696,295.6222 334.6497,296.3654 333.7608,297.0246 332.8117,297.5935 331.8113,298.0666 330.7694,298.4394 329.696,298.7083 328.6013,298.8707"/>
    <polygon points="319.5225,305.8605 320.3424,305.1173 321.2313,304.4581 322.1804,303.8892 323.1808,303.4161 324.2227,303.0433 325.2962,302.7744 326.3908,302.612 327.4961,302.5577 328.6013,302.612 329.696,302.7744 330.7694,303.0433 331.8113,303.4161 332.8117,303.8892 333.7608,304.4581 334.6497,305.1173 335.4696,305.8605 336.2128,306.6804 336.872,307.5693 337.4409,308.5184 337.914,309.5188 338.2868,310.5607 338.5557,311.6341 338.7181,312.7288 338.7724,313.834 338.7181,314.9393 338.5557,316.0339 338.2868,317.1074 337.914,318.1493 337.4409,319.1496 336.872,320.0988 336.2128,320.9876 335.4696,321.8076 334.6497,322.5507 333.7608,323.2099 332.8117,323.7788 331.8113,324.252 330.7694,324.6248 329.696,324.8937 328.6013,325.056 327.4961,325.1103 326.3908,325.056 325.2962,324.8937 324.2227,324.6248 323.1808,324.252 322.1804,323.7788 321.2313,323.2099 320.3424,322.5507 319.5225,321.8076 318.7794,320.9876 318.1202,320.0988 317.5512,319.1496 317.0781,318.1493 316.7053,317.1074 316.4364,316.0339 316.2741,314.9393 316.2198,313.834 316.2741,312.7288 316.4364,311.6341 316.7053,310.5607 317.0781,309.5188 317.5512,308.5184 318.1202,307.5693 318.7794,306.6804"/>
    <polygon points="292.0894,276.4897 294.4549,276.8406 296.7747,277.4217 299.0264,278.2274 301.1882,279.2498 303.2395,280.4793 305.1603,281.9039 306.9323,283.5099 308.5383,285.2819 309.9628,287.2027 311.1923,289.2539 312.2148,291.4158 313.0204,293.6674 313.6015,295.9872 313.9524,298.3528 314.0698,300.7414 313.9524,303.1299 313.6015,305.4955 313.0204,307.8153 312.2148,310.067 311.1923,312.2288 309.9628,314.28 308.5383,316.2009 306.9323,317.9728 305.1603,319.5788 303.2395,321.0034 301.1882,322.2329 299.0264,323.2554 296.7747,324.061 294.4549,324.6421 292.0894,324.993 289.7008,325.1103 287.3122,324.993 284.9466,324.6421 282.6268,324.061 280.3752,323.2554 278.2133,322.2329 276.1621,321.0034 274.2413,319.5788 272.4693,317.9728 270.8633,316.2009 269.4387,314.28 268.2093,312.2288 267.1868,310.067 266.3811,307.8153 265.8001,305.4955 265.4492,303.1299 265.3318,300.7414 265.4492,298.3528 265.8001,295.9872 266.3811,293.6674 267.1868,291.4158 268.2093,289.2539 269.4387,287.2027 270.8633,285.2819 272.4693,283.5099 274.2413,281.9039 276.1621,280.4793 278.2133,279.2498 280.3752,278.2274 282.6268,277.4217 284.9466,276.8406 287.3122,276.4897 289.7008,276.3724"/>
    <polygon points="320.3424,270.1801 319.5225,269.4369 318.7794,268.617 318.1202,267.7281 317.5512,266.779 317.0781,265.7786 316.7053,264.7367 316.4364,263.6633 316.2741,262.5686 316.2198,261.4634 316.2741,260.3581 316.4364,259.2635 316.7053,258.19 317.0781,257.1481 317.5512,256.1477 318.1202,255.1986 318.7794,254.3097 319.5225,253.4898 320.3424,252.7467 321.2313,252.0875 322.1804,251.5185 323.1808,251.0454 324.2227,250.6726 325.2962,250.4037 326.3908,250.2414 327.4961,250.1871 328.6013,250.2414 329.696,250.4037 330.7694,250.6726 331.8113,251.0454 332.8117,251.5185 333.7608,252.0875 334.6497,252.7467 335.4696,253.4898 336.2128,254.3097 336.872,255.1986 337.4409,256.1477 337.914,257.1481 338.2868,258.19 338.5557,259.2635 338.7181,260.3581 338.7724,261.4634 338.7181,262.5686 338.5557,263.6633 338.2868,264.7367 337.914,265.7786 337.4409,266.779 336.872,267.7281 336.2128,268.617 335.4696,269.4369 334.6497,270.1801 333.7608,270.8393 332.8117,271.4082 331.8113,271.8813 330.7694,272.2541 329.696,272.523 328.6013,272.6854 327.4961,272.7397 326.3908,272.6854 325.2962,272.523 324.2227,272.2541 323.1808,271.8813 322.1804,271.4082 321.2313,270.8393"/>
    <polygon points="316.5494,246.141 316.7479,246.5606 316.9043,246.9977 317.017,247.4479 317.0851,247.9071 317.1079,248.3707 317.0851,248.8343 317.017,249.2935 316.9043,249.7437 316.7479,250.1808 316.5494,250.6004 316.3108,250.9985 316.0343,251.3714 315.7225,251.7153 315.3786,252.027 315.0058,252.3035 314.6076,252.5422 314.188,252.7406 313.751,252.897 313.3007,253.0098 312.8416,253.0779 312.378,253.1007 311.9143,253.0779 311.4552,253.0098 311.0049,252.897 310.5679,252.7406 310.1483,252.5422 309.7501,252.3035 309.3773,252.027 309.0334,251.7153 308.7216,251.3714 308.4451,250.9985 308.2065,250.6004 308.008,250.1808 307.8517,249.7437 307.7389,249.2935 307.6708,248.8343 307.648,248.3707 307.6708,247.9071 307.7389,247.4479 307.8517,246.9977 308.008,246.5606 308.2065,246.141 308.4451,245.7429 308.7216,245.37 309.0334,245.0261 309.3773,244.7144 309.7501,244.4379 310.1483,244.1992 310.5679,244.0008 311.0049,243.8444 311.4552,243.7316 311.9143,243.6635 312.378,243.6407 312.8416,243.6635 313.3007,243.7316 313.751,243.8444 314.188,244.0008 314.6076,244.1992 315.0058,244.4379 315.3786,244.7144 315.7225,245.0261 316.0343,245.37 316.3108,245.7429"/>
    <polygon points="305.6785,253.9943 305.7466,254.4534 305.7693,254.917 305.7466,255.3806 305.6785,255.8398 305.5657,256.2901 305.4093,256.7271 305.2108,257.1467 304.9722,257.5449 304.6957,257.9177 304.384,258.2616 304.04,258.5733 303.6672,258.8499 303.2691,259.0885 302.8495,259.287 302.4124,259.4433 301.9621,259.5561 301.503,259.6242 301.0394,259.647 300.5758,259.6242 300.1166,259.5561 299.6663,259.4433 299.2293,259.287 298.8097,259.0885 298.4115,258.8499 298.0387,258.5733 297.6948,258.2616 297.3831,257.9177 297.1065,257.5449 296.8679,257.1467 296.6694,256.7271 296.5131,256.2901 296.4003,255.8398 296.3322,255.3806 296.3094,254.917 296.3322,254.4534 296.4003,253.9943 296.5131,253.544 296.6694,253.1069 296.8679,252.6873 297.1065,252.2892 297.3831,251.9164 297.6948,251.5724 298.0387,251.2607 298.4115,250.9842 298.8097,250.7456 299.2293,250.5471 299.6663,250.3907 300.1166,250.2779 300.5758,250.2098 301.0394,250.1871 301.503,250.2098 301.9621,250.2779 302.4124,250.3907 302.8495,250.5471 303.2691,250.7456 303.6672,250.9842 304.04,251.2607 304.384,251.5724 304.6957,251.9164 304.9722,252.2892 305.2108,252.6873 305.4093,253.1069 305.5657,253.544"/>
    <polygon points="278.8684,250.6726 279.9418,250.4037 281.0365,250.2414 282.1417,250.1871 283.247,250.2414 284.3416,250.4037 285.4151,250.6726 286.457,251.0454 287.4573,251.5185 288.4065,252.0875 289.2953,252.7467 290.1153,253.4898 290.8584,254.3097 291.5176,255.1986 292.0865,256.1477 292.5597,257.1481 292.9325,258.19 293.2014,259.2635 293.3637,260.3581 293.418,261.4634 293.3637,262.5686 293.2014,263.6633 292.9325,264.7367 292.5597,265.7786 292.0865,266.779 291.5176,267.7281 290.8584,268.617 290.1153,269.4369 289.2953,270.1801 288.4065,270.8393 287.4573,271.4082 286.457,271.8813 285.4151,272.2541 284.3416,272.523 283.247,272.6854 282.1417,272.7397 281.0365,272.6854 279.9418,272.523 278.8684,272.2541 277.8265,271.8813 276.8261,271.4082 275.877,270.8393 274.9881,270.1801 274.1682,269.4369 273.425,268.617 272.7658,267.7281 272.1969,266.779 271.7238,265.7786 271.351,264.7367 271.0821,263.6633 270.9197,262.5686 270.8654,261.4634 270.9197,260.3581 271.0821,259.2635 271.351,258.19 271.7238,257.1481 272.1969,256.1477 272.7658,255.1986 273.425,254.3097 274.1682,253.4898 274.9881,252.7467 275.877,252.0875 276.8261,251.5185 277.8265,251.0454"/>
    <polygon points="268.3967,226.7117 267.9464,226.8244 267.4872,226.8926 267.0236,226.9153 266.56,226.8926 266.1009,226.8244 265.6506,226.7117 265.2135,226.5553 264.7939,226.3568 264.3958,226.1182 264.023,225.8417 263.679,225.53 263.3673,225.186 263.0908,224.8132 262.8522,224.4151 262.6537,223.9954 262.4973,223.5584 262.3845,223.1081 262.3164,222.649 262.2936,222.1854 262.3164,221.7217 262.3845,221.2626 262.4973,220.8123 262.6537,220.3753 262.8522,219.9557 263.0908,219.5575 263.3673,219.1847 263.679,218.8408 264.023,218.529 264.3958,218.2525 264.7939,218.0139 265.2135,217.8154 265.6506,217.6591 266.1009,217.5463 266.56,217.4782 267.0236,217.4554 267.4872,217.4782 267.9464,217.5463 268.3967,217.6591 268.8337,217.8154 269.2533,218.0139 269.6515,218.2525 270.0243,218.529 270.3682,218.8408 270.6799,219.1847 270.9565,219.5575 271.1951,219.9557 271.3935,220.3753 271.5499,220.8123 271.6627,221.2626 271.7308,221.7217 271.7536,222.1854 271.7308,222.649 271.6627,223.1081 271.5499,223.5584 271.3935,223.9954 271.1951,224.4151 270.9565,224.8132 270.6799,225.186 270.3682,225.53 270.0243,225.8417 269.6515,226.1182 269.2533,226.3568 268.8337,226.5553"/>
    <polygon points="250.9778,229.1953 250.9551,228.7317 250.9778,228.2681 251.046,227.8089 251.1587,227.3587 251.3151,226.9216 251.5136,226.502 251.7522,226.1039 252.0287,225.731 252.3404,225.3871 252.6844,225.0754 253.0572,224.7989 253.4553,224.5602 253.875,224.3618 254.312,224.2054 254.7623,224.0926 255.2214,224.0245 255.685,224.0017 256.1487,224.0245 256.6078,224.0926 257.0581,224.2054 257.4951,224.3618 257.9147,224.5602 258.3129,224.7989 258.6857,225.0754 259.0296,225.3871 259.3414,225.731 259.6179,226.1039 259.8565,226.502 260.055,226.9216 260.2113,227.3587 260.3241,227.8089 260.3922,228.2681 260.415,228.7317 260.3922,229.1953 260.3241,229.6545 260.2113,230.1047 260.055,230.5418 259.8565,230.9614 259.6179,231.3595 259.3414,231.7324 259.0296,232.0763 258.6857,232.388 258.3129,232.6645 257.9147,232.9032 257.4951,233.1016 257.0581,233.258 256.6078,233.3708 256.1487,233.4389 255.685,233.4617 255.2214,233.4389 254.7623,233.3708 254.312,233.258 253.875,233.1016 253.4553,232.9032 253.0572,232.6645 252.6844,232.388 252.3404,232.0763 252.0287,231.7324 251.7522,231.3595 251.5136,230.9614 251.3151,230.5418 251.1587,230.1047 251.046,229.6545"/>
    <polygon points="236.7874,246.5543 235.6821,246.5 234.5875,246.3377 233.5141,246.0688 232.4721,245.696 231.4718,245.2228 230.5226,244.6539 229.6338,243.9947 228.8138,243.2516 228.0707,242.4316 227.4115,241.5428 226.8426,240.5936 226.3695,239.5933 225.9966,238.5514 225.7278,237.4779 225.5654,236.3833 225.5111,235.278 225.5654,234.1728 225.7278,233.0781 225.9966,232.0047 226.3695,230.9628 226.8426,229.9624 227.4115,229.0132 228.0707,228.1244 228.8138,227.3045 229.6338,226.5613 230.5226,225.9021 231.4718,225.3332 232.4721,224.8601 233.5141,224.4873 234.5875,224.2184 235.6821,224.056 236.7874,224.0017 237.8927,224.056 238.9873,224.2184 240.0607,224.4873 241.1027,224.8601 242.103,225.3332 243.0522,225.9021 243.941,226.5613 244.761,227.3045 245.5041,228.1244 246.1633,229.0132 246.7322,229.9624 247.2054,230.9628 247.5782,232.0047 247.847,233.0781 248.0094,234.1728 248.0637,235.278 248.0094,236.3833 247.847,237.4779 247.5782,238.5514 247.2054,239.5933 246.7322,240.5936 246.1633,241.5428 245.5041,242.4316 244.761,243.2516 243.941,243.9947 243.0522,244.6539 242.103,245.2228 241.1027,245.696 240.0607,246.0688 238.9873,246.3377 237.8927,246.5"/>
    <polygon points="224.5282,217.8701 224.901,218.912 225.1699,219.9855 225.3322,221.0801 225.3865,222.1854 225.3322,223.2906 225.1699,224.3853 224.901,225.4587 224.5282,226.5006 224.0551,227.501 223.4861,228.4501 222.8269,229.339 222.0838,230.1589 221.2638,230.9021 220.375,231.5613 219.4259,232.1302 218.4255,232.6033 217.3836,232.9761 216.3101,233.245 215.2155,233.4074 214.1102,233.4617 213.005,233.4074 211.9103,233.245 210.8369,232.9761 209.795,232.6033 208.7946,232.1302 207.8455,231.5613 206.9566,230.9021 206.1367,230.1589 205.3935,229.339 204.7343,228.4501 204.1654,227.501 203.6923,226.5006 203.3195,225.4587 203.0506,224.3853 202.8882,223.2906 202.8339,222.1854 202.8882,221.0801 203.0506,219.9855 203.3195,218.912 203.6923,217.8701 204.1654,216.8697 204.7343,215.9206 205.3935,215.0317 206.1367,214.2118 206.9566,213.4687 207.8455,212.8095 208.7946,212.2405 209.795,211.7674 210.8369,211.3946 211.9103,211.1257 213.005,210.9634 214.1102,210.9091 215.2155,210.9634 216.3101,211.1257 217.3836,211.3946 218.4255,211.7674 219.4259,212.2405 220.375,212.8095 221.2638,213.4687 222.0838,214.2118 222.8269,215.0317 223.4861,215.9206 224.0551,216.8697"/>
    <polygon points="232.5443,210.9318 233.0079,210.9091 233.4715,210.9318 233.9306,210.9999 234.3809,211.1127 234.818,211.2691 235.2376,211.4676 235.6357,211.7062 236.0085,211.9827 236.3525,212.2944 236.6642,212.6384 236.9407,213.0112 237.1793,213.4093 237.3778,213.8289 237.5342,214.266 237.647,214.7163 237.7151,215.1754 237.7378,215.639 237.7151,216.1026 237.647,216.5618 237.5342,217.0121 237.3778,217.4491 237.1793,217.8687 236.9407,218.2669 236.6642,218.6397 236.3525,218.9836 236.0085,219.2953 235.6357,219.5719 235.2376,219.8105 234.818,220.0089 234.3809,220.1653 233.9306,220.2781 233.4715,220.3462 233.0079,220.369 232.5443,220.3462 232.0851,220.2781 231.6348,220.1653 231.1978,220.0089 230.7782,219.8105 230.38,219.5719 230.0072,219.2953 229.6633,218.9836 229.3516,218.6397 229.075,218.2669 228.8364,217.8687 228.6379,217.4491 228.4816,217.0121 228.3688,216.5618 228.3007,216.1026 228.2779,215.639 228.3007,215.1754 228.3688,214.7163 228.4816,214.266 228.6379,213.8289 228.8364,213.4093 229.075,213.0112 229.3516,212.6384 229.6633,212.2944 230.0072,211.9827 230.38,211.7062 230.7782,211.4676 231.1978,211.2691 231.6348,211.1127 232.0851,210.9999"/>
    <polygon points="231.6348,207.0727 231.1978,206.9163 230.7782,206.7178 230.38,206.4792 230.0072,206.2027 229.6633,205.891 229.3516,205.547 229.075,205.1742 228.8364,204.7761 228.6379,204.3564 228.4816,203.9194 228.3688,203.4691 228.3007,203.01 228.2779,202.5464 228.3007,202.0827 228.3688,201.6236 228.4816,201.1733 228.6379,200.7363 228.8364,200.3167 229.075,199.9185 229.3516,199.5457 229.6633,199.2018 230.0072,198.89 230.38,198.6135 230.7782,198.3749 231.1978,198.1764 231.6348,198.0201 232.0851,197.9073 232.5443,197.8392 233.0079,197.8164 233.4715,197.8392 233.9306,197.9073 234.3809,198.0201 234.818,198.1764 235.2376,198.3749 235.6357,198.6135 236.0085,198.89 236.3525,199.2018 236.6642,199.5457 236.9407,199.9185 237.1793,200.3167 237.3778,200.7363 237.5342,201.1733 237.647,201.6236 237.7151,202.0827 237.7378,202.5464 237.7151,203.01 237.647,203.4691 237.5342,203.9194 237.3778,204.3564 237.1793,204.7761 236.9407,205.1742 236.6642,205.547 236.3525,205.891 236.0085,206.2027 235.6357,206.4792 235.2376,206.7178 234.818,206.9163 234.3809,207.0727 233.9306,207.1854 233.4715,207.2536 233.0079,207.2763 232.5443,207.2536 232.0851,207.1854"/>
    <polygon points="214.857,201.1733 214.9698,201.6236 215.0379,202.0827 215.0607,202.5464 215.0379,203.01 214.9698,203.4691 214.857,203.9194 214.7006,204.3564 214.5022,204.7761 214.2635,205.1742 213.987,205.547 213.6753,205.891 213.3314,206.2027 212.9585,206.4792 212.5604,206.7178 212.1408,206.9163 211.7037,207.0727 211.2535,207.1854 210.7943,207.2536 210.3307,207.2763 209.8671,207.2536 209.4079,207.1854 208.9577,207.0727 208.5206,206.9163 208.101,206.7178 207.7029,206.4792 207.33,206.2027 206.9861,205.891 206.6744,205.547 206.3979,205.1742 206.1592,204.7761 205.9608,204.3564 205.8044,203.9194 205.6916,203.4691 205.6235,203.01 205.6007,202.5464 205.6235,202.0827 205.6916,201.6236 205.8044,201.1733 205.9608,200.7363 206.1592,200.3167 206.3979,199.9185 206.6744,199.5457 206.9861,199.2018 207.33,198.89 207.7029,198.6135 208.101,198.3749 208.5206,198.1764 208.9577,198.0201 209.4079,197.9073 209.8671,197.8392 210.3307,197.8164 210.7943,197.8392 211.2535,197.9073 211.7037,198.0201 212.1408,198.1764 212.5604,198.3749 212.9585,198.6135 213.3314,198.89 213.6753,199.2018 213.987,199.5457 214.2635,199.9185 214.5022,200.3167 214.7006,200.7363"/>
    <polygon points="194.2849,196.4636 194.353,196.9228 194.4658,197.3731 194.6222,197.8101 194.8207,198.2297 195.0593,198.6279 195.3358,199.0007 195.6475,199.3446 195.9915,199.6563 196.3643,199.9329 196.7624,200.1715 197.182,200.3699 197.6191,200.5263 198.0694,200.6391 198.5285,200.7072 198.9921,200.73 199.4557,200.7072 199.9149,200.6391 200.3652,200.5263 200.8022,200.3699 201.2218,200.1715 201.62,199.9329 201.9928,199.6563 202.3367,199.3446 202.6484,199.0007 202.925,198.6279 203.1636,198.2297 203.3621,197.8101 203.5184,197.3731 203.6312,196.9228 203.6993,196.4636 203.7221,196.0 203.6993,195.5364 203.6312,195.0773 203.5184,194.627 203.3621,194.1899 203.1636,193.7703 202.925,193.3722 202.6484,192.9994 202.3367,192.6554 201.9928,192.3437 201.62,192.0672 201.2218,191.8286 200.8022,191.6301 200.3652,191.4737 199.9149,191.3609 199.4557,191.2928 198.9921,191.2701 198.5285,191.2928 198.0694,191.3609 197.6191,191.4737 197.182,191.6301 196.7624,191.8286 196.3643,192.0672 195.9915,192.3437 195.6475,192.6554 195.3358,192.9994 195.0593,193.3722 194.8207,193.7703 194.6222,194.1899 194.4658,194.627 194.353,195.0773 194.2849,195.5364 194.2622,196.0"/>
    <polygon points="183.9972,199.5457 183.7207,199.9185 183.4821,200.3167 183.2836,200.7363 183.1272,201.1733 183.0145,201.6236 182.9463,202.0827 182.9236,202.5464 182.9463,203.01 183.0145,203.4691 183.1272,203.9194 183.2836,204.3564 183.4821,204.7761 183.7207,205.1742 183.9972,205.547 184.3089,205.891 184.6529,206.2027 185.0257,206.4792 185.4238,206.7178 185.8435,206.9163 186.2805,207.0727 186.7308,207.1854 187.1899,207.2536 187.6535,207.2763 188.1172,207.2536 188.5763,207.1854 189.0266,207.0727 189.4636,206.9163 189.8832,206.7178 190.2814,206.4792 190.6542,206.2027 190.9981,205.891 191.3099,205.547 191.5864,205.1742 191.825,204.7761 192.0235,204.3564 192.1798,203.9194 192.2926,203.4691 192.3607,203.01 192.3835,202.5464 192.3607,202.0827 192.2926,201.6236 192.1798,201.1733 192.0235,200.7363 191.825,200.3167 191.5864,199.9185 191.3099,199.5457 190.9981,199.2018 190.6542,198.89 190.2814,198.6135 189.8832,198.3749 189.4636,198.1764 189.0266,198.0201 188.5763,197.9073 188.1172,197.8392 187.6535,197.8164 187.1899,197.8392 186.7308,197.9073 186.2805,198.0201 185.8435,198.1764 185.4238,198.3749 185.0257,198.6135 184.6529,198.89 184.3089,199.2018"/>
    <polygon points="200.8022,213.4626 200.3652,213.619 199.9149,213.7318 199.4557,213.7999 198.9921,213.8227 198.5285,213.7999 198.0694,213.7318 197.6191,213.619 197.182,213.4626 196.7624,213.2642 196.3643,213.0255 195.9915,212.749 195.6475,212.4373 195.3358,212.0934 195.0593,211.7205 194.8207,211.3224 194.6222,210.9028 194.4658,210.4657 194.353,210.0155 194.2849,209.5563 194.2622,209.0927 194.2849,208.6291 194.353,208.1699 194.4658,207.7197 194.6222,207.2826 194.8207,206.863 195.0593,206.4649 195.3358,206.092 195.6475,205.7481 195.9915,205.4364 196.3643,205.1599 196.7624,204.9212 197.182,204.7228 197.6191,204.5664 198.0694,204.4536 198.5285,204.3855 198.9921,204.3627 199.4557,204.3855 199.9149,204.4536 200.3652,204.5664 200.8022,204.7228 201.2218,204.9212 201.62,205.1599 201.9928,205.4364 202.3367,205.7481 202.6484,206.092 202.925,206.4649 203.1636,206.863 203.3621,207.2826 203.5184,207.7197 203.6312,208.1699 203.6993,208.6291 203.7221,209.0927 203.6993,209.5563 203.6312,210.0155 203.5184,210.4657 203.3621,210.9028 203.1636,211.3224 202.925,211.7205 202.6484,212.0934 202.3367,212.4373 201.9928,212.749 201.62,213.0255 201.2218,213.2642"/>
    <polygon points="192.0235,240.0143 191.825,239.5947 191.5864,239.1965 191.3099,238.8237 190.9981,238.4798 190.6542,238.168 190.2814,237.8915 189.8832,237.6529 189.4636,237.4544 189.0266,237.2981 188.5763,237.1853 188.1172,237.1172 187.6535,237.0944 187.1899,237.1172 186.7308,237.1853 186.2805,237.2981 185.8435,237.4544 185.4238,237.6529 185.0257,237.8915 184.6529,238.168 184.3089,238.4798 183.9972,238.8237 183.7207,239.1965 183.4821,239.5947 183.2836,240.0143 183.1272,240.4513 183.0145,240.9016 182.9463,241.3607 182.9236,241.8244 182.9463,242.288 183.0145,242.7471 183.1272,243.1974 183.2836,243.6344 183.4821,244.0541 183.7207,244.4522 183.9972,244.825 184.3089,245.169 184.6529,245.4807 185.0257,245.7572 185.4238,245.9958 185.8435,246.1943 186.2805,246.3507 186.7308,246.4634 187.1899,246.5316 187.6535,246.5543 188.1172,246.5316 188.5763,246.4634 189.0266,246.3507 189.4636,246.1943 189.8832,245.9958 190.2814,245.7572 190.6542,245.4807 190.9981,245.169 191.3099,244.825 191.5864,244.4522 191.825,244.0541 192.0235,243.6344 192.1798,243.1974 192.2926,242.7471 192.3607,242.288 192.3835,241.8244 192.3607,241.3607 192.2926,240.9016 192.1798,240.4513"/>
    <polygon points="177.688,252.897 178.125,252.7406 178.5447,252.5422 178.9428,252.3035 179.3156,252.027 179.6596,251.7153 179.9713,251.3714 180.2478,250.9985 180.4864,250.6004 180.6849,250.1808 180.8413,249.7437 180.954,249.2935 181.0222,248.8343 181.0449,248.3707 181.0222,247.9071 180.954,247.4479 180.8413,246.9977 180.6849,246.5606 180.4864,246.141 180.2478,245.7429 179.9713,245.37 179.6596,245.0261 179.3156,244.7144 178.9428,244.4379 178.5447,244.1992 178.125,244.0008 177.688,243.8444 177.2377,243.7316 176.7786,243.6635 176.315,243.6407 175.8513,243.6635 175.3922,243.7316 174.9419,243.8444 174.5049,244.0008 174.0853,244.1992 173.6871,244.4379 173.3143,244.7144 172.9704,245.0261 172.6586,245.37 172.3821,245.7429 172.1435,246.141 171.945,246.5606 171.7887,246.9977 171.6759,247.4479 171.6078,247.9071 171.585,248.3707 171.6078,248.8343 171.6759,249.2935 171.7887,249.7437 171.945,250.1808 172.1435,250.6004 172.3821,250.9985 172.6586,251.3714 172.9704,251.7153 173.3143,252.027 173.6871,252.3035 174.0853,252.5422 174.5049,252.7406 174.9419,252.897 175.3922,253.0098 175.8513,253.0779 176.315,253.1007 176.7786,253.0779 177.2377,253.0098"/>
    <polygon points="202.4927,259.2635 202.2238,258.19 201.851,257.1481 201.3779,256.1477 200.809,255.1986 200.1498,254.3097 199.4066,253.4898 198.5867,252.7467 197.6979,252.0875 196.7487,251.5185 195.7483,251.0454 194.7064,250.6726 193.633,250.4037 192.5383,250.2414 191.4331,250.1871 190.3278,250.2414 189.2332,250.4037 188.1597,250.6726 187.1178,251.0454 186.1175,251.5185 185.1683,252.0875 184.2795,252.7467 183.4595,253.4898 182.7164,254.3097 182.0572,255.1986 181.4883,256.1477 181.0151,257.1481 180.6423,258.19 180.3734,259.2635 180.2111,260.3581 180.1568,261.4634 180.2111,262.5686 180.3734,263.6633 180.6423,264.7367 181.0151,265.7786 181.4883,266.779 182.0572,267.7281 182.7164,268.617 183.4595,269.4369 184.2795,270.1801 185.1683,270.8393 186.1175,271.4082 187.1178,271.8813 188.1597,272.2541 189.2332,272.523 190.3278,272.6854 191.4331,272.7397 192.5383,272.6854 193.633,272.523 194.7064,272.2541 195.7483,271.8813 196.7487,271.4082 197.6979,270.8393 198.5867,270.1801 199.4066,269.4369 200.1498,268.617 200.809,267.7281 201.3779,266.779 201.851,265.7786 202.2238,264.7367 202.4927,263.6633 202.6551,262.5686 202.7094,261.4634 202.6551,260.3581"/>
    <polygon points="208.5206,250.5471 208.101,250.7456 207.7029,250.9842 207.33,251.2607 206.9861,251.5724 206.6744,251.9164 206.3979,252.2892 206.1592,252.6873 205.9608,253.1069 205.8044,253.544 205.6916,253.9943 205.6235,254.4534 205.6007,254.917 205.6235,255.3806 205.6916,255.8398 205.8044,256.2901 205.9608,256.7271 206.1592,257.1467 206.3979,257.5449 206.6744,257.9177 206.9861,258.2616 207.33,258.5733 207.7029,258.8499 208.101,259.0885 208.5206,259.287 208.9577,259.4433 209.4079,259.5561 209.8671,259.6242 210.3307,259.647 210.7943,259.6242 211.2535,259.5561 211.7037,259.4433 212.1408,259.287 212.5604,259.0885 212.9585,258.8499 213.3314,258.5733 213.6753,258.2616 213.987,257.9177 214.2635,257.5449 214.5022,257.1467 214.7006,256.7271 214.857,256.2901 214.9698,255.8398 215.0379,255.3806 215.0607,254.917 215.0379,254.4534 214.9698,253.9943 214.857,253.544 214.7006,253.1069 214.5022,252.6873 214.2635,252.2892 213.987,251.9164 213.6753,251.5724 213.3314,251.2607 212.9585,250.9842 212.5604,250.7456 212.1408,250.5471 211.7037,250.3907 211.2535,250.2779 210.7943,250.2098 210.3307,250.1871 209.8671,250.2098 209.4079,250.2779 208.9577,250.3907"/>
    <polygon points="220.4457,279.3102 220.0948,276.9446 219.9775,274.556 220.0948,272.1675 220.4457,269.8019 221.0268,267.4821 221.8325,265.2304 222.8549,263.0686 224.0844,261.0174 225.509,259.0965 227.115,257.3246 228.8869,255.7186 230.8078,254.294 232.859,253.0645 235.0209,252.042 237.2725,251.2364 239.5923,250.6553 241.9579,250.3044 244.3465,250.1871 246.735,250.3044 249.1006,250.6553 251.4204,251.2364 253.6721,252.042 255.8339,253.0645 257.8851,254.294 259.806,255.7186 261.5779,257.3246 263.1839,259.0965 264.6085,261.0174 265.838,263.0686 266.8605,265.2304 267.6661,267.4821 268.2472,269.8019 268.5981,272.1675 268.7154,274.556 268.5981,276.9446 268.2472,279.3102 267.6661,281.63 266.8605,283.8816 265.838,286.0435 264.6085,288.0947 263.1839,290.0155 261.5779,291.7875 259.806,293.3935 257.8851,294.8181 255.8339,296.0475 253.6721,297.07 251.4204,297.8757 249.1006,298.4568 246.735,298.8077 244.3465,298.925 241.9579,298.8077 239.5923,298.4568 237.2725,297.8757 235.0209,297.07 232.859,296.0475 230.8078,294.8181 228.8869,293.3935 227.115,291.7875 225.509,290.0155 224.0844,288.0947 222.8549,286.0435 221.8325,283.8816 221.0268,281.63"/>
    <polygon points="220.4457,331.6808 220.0948,329.3153 219.9775,326.9267 220.0948,324.5381 220.4457,322.1725 221.0268,319.8528 221.8325,317.6011 222.8549,315.4392 224.0844,313.388 225.509,311.4672 227.115,309.6952 228.8869,308.0892 230.8078,306.6646 232.859,305.4352 235.0209,304.4127 237.2725,303.607 239.5923,303.026 241.9579,302.6751 244.3465,302.5577 246.735,302.6751 249.1006,303.026 251.4204,303.607 253.6721,304.4127 255.8339,305.4352 257.8851,306.6646 259.806,308.0892 261.5779,309.6952 263.1839,311.4672 264.6085,313.388 265.838,315.4392 266.8605,317.6011 267.6661,319.8528 268.2472,322.1725 268.5981,324.5381 268.7154,326.9267 268.5981,329.3153 268.2472,331.6808 267.6661,334.0006 266.8605,336.2523 265.838,338.4142 264.6085,340.4654 263.1839,342.3862 261.5779,344.1582 259.806,345.7642 257.8851,347.1888 255.8339,348.4182 253.6721,349.4407 251.4204,350.2464 249.1006,350.8274 246.735,351.1783 244.3465,351.2957 241.9579,351.1783 239.5923,350.8274 237.2725,350.2464 235.0209,349.4407 232.859,348.4182 230.8078,347.1888 228.8869,345.7642 227.115,344.1582 225.509,342.3862 224.0844,340.4654 222.8549,338.4142 221.8325,336.2523 221.0268,334.0006"/>
    <polygon points="225.5654,367.31 225.5111,366.2047 225.5654,365.0994 225.7278,364.0048 225.9966,362.9314 226.3695,361.8894 226.8426,360.8891 227.4115,359.9399 228.0707,359.0511 228.8138,358.2311 229.6338,357.488 230.5226,356.8288 231.4718,356.2599 232.4721,355.7868 233.5141,355.4139 234.5875,355.1451 235.6821,354.9827 236.7874,354.9284 237.8927,354.9827 238.9873,355.1451 240.0607,355.4139 241.1027,355.7868 242.103,356.2599 243.0522,356.8288 243.941,357.488 244.761,358.2311 245.5041,359.0511 246.1633,359.9399 246.7322,360.8891 247.2054,361.8894 247.5782,362.9314 247.847,364.0048 248.0094,365.0994 248.0637,366.2047 248.0094,367.31 247.847,368.4046 247.5782,369.478 247.2054,370.52 246.7322,371.5203 246.1633,372.4695 245.5041,373.3583 244.761,374.1783 243.941,374.9214 243.0522,375.5806 242.103,376.1495 241.1027,376.6226 240.0607,376.9955 238.9873,377.2643 237.8927,377.4267 236.7874,377.481 235.6821,377.4267 234.5875,377.2643 233.5141,376.9955 232.4721,376.6226 231.4718,376.1495 230.5226,375.5806 229.6338,374.9214 228.8138,374.1783 228.0707,373.3583 227.4115,372.4695 226.8426,371.5203 226.3695,370.52 225.9966,369.478 225.7278,368.4046"/>
    <polygon points="200.809,346.2841 200.1498,347.173 199.4066,347.9929 198.5867,348.7361 197.6979,349.3953 196.7487,349.9642 195.7483,350.4373 194.7064,350.8101 193.633,351.079 192.5383,351.2414 191.4331,351.2957 190.3278,351.2414 189.2332,351.079 188.1597,350.8101 187.1178,350.4373 186.1175,349.9642 185.1683,349.3953 184.2795,348.7361 183.4595,347.9929 182.7164,347.173 182.0572,346.2841 181.4883,345.335 181.0151,344.3346 180.6423,343.2927 180.3734,342.2193 180.2111,341.1246 180.1568,340.0194 180.2111,338.9141 180.3734,337.8195 180.6423,336.746 181.0151,335.7041 181.4883,334.7038 182.0572,333.7546 182.7164,332.8658 183.4595,332.0458 184.2795,331.3027 185.1683,330.6435 186.1175,330.0746 187.1178,329.6014 188.1597,329.2286 189.2332,328.9597 190.3278,328.7974 191.4331,328.7431 192.5383,328.7974 193.633,328.9597 194.7064,329.2286 195.7483,329.6014 196.7487,330.0746 197.6979,330.6435 198.5867,331.3027 199.4066,332.0458 200.1498,332.8658 200.809,333.7546 201.3779,334.7038 201.851,335.7041 202.2238,336.746 202.4927,337.8195 202.6551,338.9141 202.7094,340.0194 202.6551,341.1246 202.4927,342.2193 202.2238,343.2927 201.851,344.3346 201.3779,345.335"/>
    <polygon points="191.9182,324.061 189.6665,323.2554 187.5047,322.2329 185.4534,321.0034 183.5326,319.5788 181.7607,317.9728 180.1547,316.2009 178.7301,314.28 177.5006,312.2288 176.4781,310.067 175.6725,307.8153 175.0914,305.4955 174.7405,303.1299 174.6232,300.7414 174.7405,298.3528 175.0914,295.9872 175.6725,293.6674 176.4781,291.4158 177.5006,289.2539 178.7301,287.2027 180.1547,285.2819 181.7607,283.5099 183.5326,281.9039 185.4534,280.4793 187.5047,279.2498 189.6665,278.2274 191.9182,277.4217 194.238,276.8406 196.6035,276.4897 198.9921,276.3724 201.3807,276.4897 203.7463,276.8406 206.0661,277.4217 208.3177,278.2274 210.4796,279.2498 212.5308,280.4793 214.4516,281.9039 216.2236,283.5099 217.8296,285.2819 219.2542,287.2027 220.4836,289.2539 221.5061,291.4158 222.3118,293.6674 222.8929,295.9872 223.2438,298.3528 223.3611,300.7414 223.2438,303.1299 222.8929,305.4955 222.3118,307.8153 221.5061,310.067 220.4836,312.2288 219.2542,314.28 217.8296,316.2009 216.2236,317.9728 214.4516,319.5788 212.5308,321.0034 210.4796,322.2329 208.3177,323.2554 206.0661,324.061 203.7463,324.6421 201.3807,324.993 198.9921,325.1103 196.6035,324.993 194.238,324.6421"/>
    <polygon points="163.4403,336.8715 162.4911,336.3026 161.6023,335.6434 160.7824,334.9003 160.0392,334.0803 159.38,333.1915 158.8111,332.2423 158.338,331.242 157.9652,330.2 157.6963,329.1266 157.5339,328.032 157.4796,326.9267 157.5339,325.8214 157.6963,324.7268 157.9652,323.6534 158.338,322.6114 158.8111,321.6111 159.38,320.6619 160.0392,319.7731 160.7824,318.9531 161.6023,318.21 162.4911,317.5508 163.4403,316.9819 164.4406,316.5087 165.4826,316.1359 166.556,315.8671 167.6506,315.7047 168.7559,315.6504 169.8612,315.7047 170.9558,315.8671 172.0292,316.1359 173.0712,316.5087 174.0715,316.9819 175.0207,317.5508 175.9095,318.21 176.7295,318.9531 177.4726,319.7731 178.1318,320.6619 178.7007,321.6111 179.1739,322.6114 179.5467,323.6534 179.8155,324.7268 179.9779,325.8214 180.0322,326.9267 179.9779,328.032 179.8155,329.1266 179.5467,330.2 179.1739,331.242 178.7007,332.2423 178.1318,333.1915 177.4726,334.0803 176.7295,334.9003 175.9095,335.6434 175.0207,336.3026 174.0715,336.8715 173.0712,337.3446 172.0292,337.7175 170.9558,337.9863 169.8612,338.1487 168.7559,338.203 167.6506,338.1487 166.556,337.9863 165.4826,337.7175 164.4406,337.3446"/>
    <polygon points="160.8049,344.336 161.0435,343.9379 161.3201,343.565 161.6318,343.2211 161.9757,342.9094 162.3485,342.6329 162.7467,342.3942 163.1663,342.1958 163.6033,342.0394 164.0536,341.9266 164.5128,341.8585 164.9764,341.8357 165.44,341.8585 165.8991,341.9266 166.3494,342.0394 166.7865,342.1958 167.2061,342.3942 167.6042,342.6329 167.977,342.9094 168.321,343.2211 168.6327,343.565 168.9092,343.9379 169.1478,344.336 169.3463,344.7556 169.5027,345.1927 169.6155,345.6429 169.6836,346.1021 169.7064,346.5657 169.6836,347.0293 169.6155,347.4885 169.5027,347.9387 169.3463,348.3758 169.1478,348.7954 168.9092,349.1935 168.6327,349.5664 168.321,349.9103 167.977,350.222 167.6042,350.4985 167.2061,350.7372 166.7865,350.9356 166.3494,351.092 165.8991,351.2048 165.44,351.2729 164.9764,351.2957 164.5128,351.2729 164.0536,351.2048 163.6033,351.092 163.1663,350.9356 162.7467,350.7372 162.3485,350.4985 161.9757,350.222 161.6318,349.9103 161.3201,349.5664 161.0435,349.1935 160.8049,348.7954 160.6065,348.3758 160.4501,347.9387 160.3373,347.4885 160.2692,347.0293 160.2464,346.5657 160.2692,346.1021 160.3373,345.6429 160.4501,345.1927 160.6065,344.7556"/>
    <polygon points="153.1742,344.7266 152.715,344.6585 152.2648,344.5457 151.8277,344.3893 151.4081,344.1908 151.01,343.9522 150.6371,343.6757 150.2932,343.364 149.9815,343.02 149.705,342.6472 149.4663,342.2491 149.2679,341.8294 149.1115,341.3924 148.9987,340.9421 148.9306,340.483 148.9078,340.0194 148.9306,339.5557 148.9987,339.0966 149.1115,338.6463 149.2679,338.2093 149.4663,337.7897 149.705,337.3915 149.9815,337.0187 150.2932,336.6748 150.6371,336.363 151.01,336.0865 151.4081,335.8479 151.8277,335.6494 152.2648,335.4931 152.715,335.3803 153.1742,335.3122 153.6378,335.2894 154.1014,335.3122 154.5606,335.3803 155.0108,335.4931 155.4479,335.6494 155.8675,335.8479 156.2656,336.0865 156.6385,336.363 156.9824,336.6748 157.2941,337.0187 157.5706,337.3915 157.8093,337.7897 158.0077,338.2093 158.1641,338.6463 158.2769,339.0966 158.345,339.5557 158.3678,340.0194 158.345,340.483 158.2769,340.9421 158.1641,341.3924 158.0077,341.8294 157.8093,342.2491 157.5706,342.6472 157.2941,343.02 156.9824,343.364 156.6385,343.6757 156.2656,343.9522 155.8675,344.1908 155.4479,344.3893 155.0108,344.5457 154.5606,344.6585 154.1014,344.7266 153.6378,344.7493"/>
    <polygon points="153.1742,348.4048 153.6378,348.3821 154.1014,348.4048 154.5606,348.4729 155.0108,348.5857 155.4479,348.7421 155.8675,348.9406 156.2656,349.1792 156.6385,349.4557 156.9824,349.7674 157.2941,350.1114 157.5706,350.4842 157.8093,350.8823 158.0077,351.302 158.1641,351.739 158.2769,352.1893 158.345,352.6484 158.3678,353.112 158.345,353.5757 158.2769,354.0348 158.1641,354.4851 158.0077,354.9221 157.8093,355.3417 157.5706,355.7399 157.2941,356.1127 156.9824,356.4566 156.6385,356.7684 156.2656,357.0449 155.8675,357.2835 155.4479,357.482 155.0108,357.6383 154.5606,357.7511 154.1014,357.8192 153.6378,357.842 153.1742,357.8192 152.715,357.7511 152.2648,357.6383 151.8277,357.482 151.4081,357.2835 151.01,357.0449 150.6371,356.7684 150.2932,356.4566 149.9815,356.1127 149.705,355.7399 149.4663,355.3417 149.2679,354.9221 149.1115,354.4851 148.9987,354.0348 148.9306,353.5757 148.9078,353.112 148.9306,352.6484 148.9987,352.1893 149.1115,351.739 149.2679,351.302 149.4663,350.8823 149.705,350.4842 149.9815,350.1114 150.2932,349.7674 150.6371,349.4557 151.01,349.1792 151.4081,348.9406 151.8277,348.7421 152.2648,348.5857 152.715,348.4729"/>
    <polygon points="179.6596,356.4566 179.3156,356.7684 178.9428,357.0449 178.5447,357.2835 178.125,357.482 177.688,357.6383 177.2377,357.7511 176.7786,357.8192 176.315,357.842 175.8513,357.8192 175.3922,357.7511 174.9419,357.6383 174.5049,357.482 174.0853,357.2835 173.6871,357.0449 173.3143,356.7684 172.9704,356.4566 172.6586,356.1127 172.3821,355.7399 172.1435,355.3417 171.945,354.9221 171.7887,354.4851 171.6759,354.0348 171.6078,353.5757 171.585,353.112 171.6078,352.6484 171.6759,352.1893 171.7887,351.739 171.945,351.302 172.1435,350.8823 172.3821,350.4842 172.6586,350.1114 172.9704,349.7674 173.3143,349.4557 173.6871,349.1792 174.0853,348.9406 174.5049,348.7421 174.9419,348.5857 175.3922,348.4729 175.8513,348.4048 176.315,348.3821 176.7786,348.4048 177.2377,348.4729 177.688,348.5857 178.125,348.7421 178.5447,348.9406 178.9428,349.1792 179.3156,349.4557 179.6596,349.7674 179.9713,350.1114 180.2478,350.4842 180.4864,350.8823 180.6849,351.302 180.8413,351.739 180.954,352.1893 181.0222,352.6484 181.0449,353.112 181.0222,353.5757 180.954,354.0348 180.8413,354.4851 180.6849,354.9221 180.4864,355.3417 180.2478,355.7399 179.9713,356.1127"/>
    <polygon points="191.5864,357.0305 191.825,357.4287 192.0235,357.8483 192.1798,358.2853 192.2926,358.7356 192.3607,359.1947 192.3835,359.6584 192.3607,360.122 192.2926,360.5811 192.1798,361.0314 192.0235,361.4684 191.825,361.8881 191.5864,362.2862 191.3099,362.659 190.9981,363.003 190.6542,363.3147 190.2814,363.5912 189.8832,363.8298 189.4636,364.0283 189.0266,364.1847 188.5763,364.2975 188.1172,364.3656 187.6535,364.3883 187.1899,364.3656 186.7308,364.2975 186.2805,364.1847 185.8435,364.0283 185.4238,363.8298 185.0257,363.5912 184.6529,363.3147 184.3089,363.003 183.9972,362.659 183.7207,362.2862 183.4821,361.8881 183.2836,361.4684 183.1272,361.0314 183.0145,360.5811 182.9463,360.122 182.9236,359.6584 182.9463,359.1947 183.0145,358.7356 183.1272,358.2853 183.2836,357.8483 183.4821,357.4287 183.7207,357.0305 183.9972,356.6577 184.3089,356.3138 184.6529,356.002 185.0257,355.7255 185.4238,355.4869 185.8435,355.2884 186.2805,355.1321 186.7308,355.0193 187.1899,354.9512 187.6535,354.9284 188.1172,354.9512 188.5763,355.0193 189.0266,355.1321 189.4636,355.2884 189.8832,355.4869 190.2814,355.7255 190.6542,356.002 190.9981,356.3138 191.3099,356.6577"/>
    <polygon points="192.1798,371.378 192.2926,371.8283 192.3607,372.2874 192.3835,372.751 192.3607,373.2147 192.2926,373.6738 192.1798,374.1241 192.0235,374.5611 191.825,374.9807 191.5864,375.3789 191.3099,375.7517 190.9981,376.0956 190.6542,376.4074 190.2814,376.6839 189.8832,376.9225 189.4636,377.121 189.0266,377.2773 188.5763,377.3901 188.1172,377.4582 187.6535,377.481 187.1899,377.4582 186.7308,377.3901 186.2805,377.2773 185.8435,377.121 185.4238,376.9225 185.0257,376.6839 184.6529,376.4074 184.3089,376.0956 183.9972,375.7517 183.7207,375.3789 183.4821,374.9807 183.2836,374.5611 183.1272,374.1241 183.0145,373.6738 182.9463,373.2147 182.9236,372.751 182.9463,372.2874 183.0145,371.8283 183.1272,371.378 183.2836,370.941 183.4821,370.5213 183.7207,370.1232 183.9972,369.7504 184.3089,369.4064 184.6529,369.0947 185.0257,368.8182 185.4238,368.5796 185.8435,368.3811 186.2805,368.2247 186.7308,368.1119 187.1899,368.0438 187.6535,368.0211 188.1172,368.0438 188.5763,368.1119 189.0266,368.2247 189.4636,368.3811 189.8832,368.5796 190.2814,368.8182 190.6542,369.0947 190.9981,369.4064 191.3099,369.7504 191.5864,370.1232 191.825,370.5213 192.0235,370.941"/>
    <polygon points="164.9764,364.3883 165.44,364.3656 165.8991,364.2975 166.3494,364.1847 166.7865,364.0283 167.2061,363.8298 167.6042,363.5912 167.977,363.3147 168.321,363.003 168.6327,362.659 168.9092,362.2862 169.1478,361.8881 169.3463,361.4684 169.5027,361.0314 169.6155,360.5811 169.6836,360.122 169.7064,359.6584 169.6836,359.1947 169.6155,358.7356 169.5027,358.2853 169.3463,357.8483 169.1478,357.4287 168.9092,357.0305 168.6327,356.6577 168.321,356.3138 167.977,356.002 167.6042,355.7255 167.2061,355.4869 166.7865,355.2884 166.3494,355.1321 165.8991,355.0193 165.44,354.9512 164.9764,354.9284 164.5128,354.9512 164.0536,355.0193 163.6033,355.1321 163.1663,355.2884 162.7467,355.4869 162.3485,355.7255 161.9757,356.002 161.6318,356.3138 161.3201,356.6577 161.0435,357.0305 160.8049,357.4287 160.6065,357.8483 160.4501,358.2853 160.3373,358.7356 160.2692,359.1947 160.2464,359.6584 160.2692,360.122 160.3373,360.5811 160.4501,361.0314 160.6065,361.4684 160.8049,361.8881 161.0435,362.2862 161.3201,362.659 161.6318,363.003 161.9757,363.3147 162.3485,363.5912 162.7467,363.8298 163.1663,364.0283 163.6033,364.1847 164.0536,364.2975 164.5128,364.3656"/>
    <polygon points="137.6601,358.7356 137.7729,358.2853 137.9293,357.8483 138.1277,357.4287 138.3664,357.0305 138.6429,356.6577 138.9546,356.3138 139.2985,356.002 139.6714,355.7255 140.0695,355.4869 140.4891,355.2884 140.9262,355.1321 141.3764,355.0193 141.8356,354.9512 142.2992,354.9284 142.7628,354.9512 143.222,355.0193 143.6723,355.1321 144.1093,355.2884 144.5289,355.4869 144.927,355.7255 145.2999,356.002 145.6438,356.3138 145.9555,356.6577 146.232,357.0305 146.4707,357.4287 146.6691,357.8483 146.8255,358.2853 146.9383,358.7356 147.0064,359.1947 147.0292,359.6584 147.0064,360.122 146.9383,360.5811 146.8255,361.0314 146.6691,361.4684 146.4707,361.8881 146.232,362.2862 145.9555,362.659 145.6438,363.003 145.2999,363.3147 144.927,363.5912 144.5289,363.8298 144.1093,364.0283 143.6723,364.1847 143.222,364.2975 142.7628,364.3656 142.2992,364.3883 141.8356,364.3656 141.3764,364.2975 140.9262,364.1847 140.4891,364.0283 140.0695,363.8298 139.6714,363.5912 139.2985,363.3147 138.9546,363.003 138.6429,362.659 138.3664,362.2862 138.1277,361.8881 137.9293,361.4684 137.7729,361.0314 137.6601,360.5811 137.592,360.122 137.5692,359.6584 137.592,359.1947"/>
    <polygon points="141.8356,341.8585 142.2992,341.8357 142.7628,341.8585 143.222,341.9266 143.6723,342.0394 144.1093,342.1958 144.5289,342.3942 144.927,342.6329 145.2999,342.9094 145.6438,343.2211 145.9555,343.565 146.232,343.9379 146.4707,344.336 146.6691,344.7556 146.8255,345.1927 146.9383,345.6429 147.0064,346.1021 147.0292,346.5657 147.0064,347.0293 146.9383,347.4885 146.8255,347.9387 146.6691,348.3758 146.4707,348.7954 146.232,349.1935 145.9555,349.5664 145.6438,349.9103 145.2999,350.222 144.927,350.4985 144.5289,350.7372 144.1093,350.9356 143.6723,351.092 143.222,351.2048 142.7628,351.2729 142.2992,351.2957 141.8356,351.2729 141.3764,351.2048 140.9262,351.092 140.4891,350.9356 140.0695,350.7372 139.6714,350.4985 139.2985,350.222 138.9546,349.9103 138.6429,349.5664 138.3664,349.1935 138.1277,348.7954 137.9293,348.3758 137.7729,347.9387 137.6601,347.4885 137.592,347.0293 137.5692,346.5657 137.592,346.1021 137.6601,345.6429 137.7729,345.1927 137.9293,344.7556 138.1277,344.336 138.3664,343.9379 138.6429,343.565 138.9546,343.2211 139.2985,342.9094 139.6714,342.6329 140.0695,342.3942 140.4891,342.1958 140.9262,342.0394 141.3764,341.9266"/>
    <polygon points="158.0077,315.6441 157.8093,316.0637 157.5706,316.4619 157.2941,316.8347 156.9824,317.1786 156.6385,317.4903 156.2656,317.7669 155.8675,318.0055 155.4479,318.204 155.0108,318.3603 154.5606,318.4731 154.1014,318.5412 153.6378,318.564 153.1742,318.5412 152.715,318.4731 152.2648,318.3603 151.8277,318.204 151.4081,318.0055 151.01,317.7669 150.6371,317.4903 150.2932,317.1786 149.9815,316.8347 149.705,316.4619 149.4663,316.0637 149.2679,315.6441 149.1115,315.2071 148.9987,314.7568 148.9306,314.2976 148.9078,313.834 148.9306,313.3704 148.9987,312.9113 149.1115,312.461 149.2679,312.0239 149.4663,311.6043 149.705,311.2062 149.9815,310.8334 150.2932,310.4894 150.6371,310.1777 151.01,309.9012 151.4081,309.6626 151.8277,309.4641 152.2648,309.3077 152.715,309.1949 153.1742,309.1268 153.6378,309.1041 154.1014,309.1268 154.5606,309.1949 155.0108,309.3077 155.4479,309.4641 155.8675,309.6626 156.2656,309.9012 156.6385,310.1777 156.9824,310.4894 157.2941,310.8334 157.5706,311.2062 157.8093,311.6043 158.0077,312.0239 158.1641,312.461 158.2769,312.9113 158.345,313.3704 158.3678,313.834 158.345,314.2976 158.2769,314.7568 158.1641,315.2071"/>
    <polygon points="123.4016,289.4651 124.5068,289.5194 125.6015,289.6817 126.6749,289.9506 127.7168,290.3234 128.7172,290.7965 129.6664,291.3655 130.5552,292.0247 131.3751,292.7678 132.1183,293.5878 132.7775,294.4766 133.3464,295.4257 133.8195,296.4261 134.1923,297.468 134.4612,298.5415 134.6236,299.6361 134.6779,300.7414 134.6236,301.8466 134.4612,302.9413 134.1923,304.0147 133.8195,305.0566 133.3464,306.057 132.7775,307.0061 132.1183,307.895 131.3751,308.7149 130.5552,309.4581 129.6664,310.1173 128.7172,310.6862 127.7168,311.1593 126.6749,311.5321 125.6015,311.801 124.5068,311.9634 123.4016,312.0177 122.2963,311.9634 121.2017,311.801 120.1282,311.5321 119.0863,311.1593 118.086,310.6862 117.1368,310.1173 116.248,309.4581 115.428,308.7149 114.6849,307.895 114.0257,307.0061 113.4568,306.057 112.9836,305.0566 112.6108,304.0147 112.3419,302.9413 112.1796,301.8466 112.1253,300.7414 112.1796,299.6361 112.3419,298.5415 112.6108,297.468 112.9836,296.4261 113.4568,295.4257 114.0257,294.4766 114.6849,293.5878 115.428,292.7678 116.248,292.0247 117.1368,291.3655 118.086,290.7965 119.0863,290.3234 120.1282,289.9506 121.2017,289.6817 122.2963,289.5194"/>
    <polygon points="129.7371,279.3102 129.3862,276.9446 129.2688,274.556 129.3862,272.1675 129.7371,269.8019 130.3181,267.4821 131.1238,265.2304 132.1463,263.0686 133.3757,261.0174 134.8003,259.0965 136.4063,257.3246 138.1783,255.7186 140.0991,254.294 142.1503,253.0645 144.3122,252.042 146.5639,251.2364 148.8836,250.6553 151.2492,250.3044 153.6378,250.1871 156.0264,250.3044 158.3919,250.6553 160.7117,251.2364 162.9634,252.042 165.1253,253.0645 167.1765,254.294 169.0973,255.7186 170.8693,257.3246 172.4753,259.0965 173.8999,261.0174 175.1293,263.0686 176.1518,265.2304 176.9574,267.4821 177.5385,269.8019 177.8894,272.1675 178.0068,274.556 177.8894,276.9446 177.5385,279.3102 176.9574,281.63 176.1518,283.8816 175.1293,286.0435 173.8999,288.0947 172.4753,290.0155 170.8693,291.7875 169.0973,293.3935 167.1765,294.8181 165.1253,296.0475 162.9634,297.07 160.7117,297.8757 158.3919,298.4568 156.0264,298.8077 153.6378,298.925 151.2492,298.8077 148.8836,298.4568 146.5639,297.8757 144.3122,297.07 142.1503,296.0475 140.0991,294.8181 138.1783,293.3935 136.4063,291.7875 134.8003,290.0155 133.3757,288.0947 132.1463,286.0435 131.1238,283.8816 130.3181,281.63"/>
    <polygon points="132.1183,241.2171 131.3751,240.3971 130.5552,239.654 129.6664,238.9948 128.7172,238.4259 127.7168,237.9527 126.6749,237.5799 125.6015,237.3111 124.5068,237.1487 123.4016,237.0944 122.2963,237.1487 121.2017,237.3111 120.1282,237.5799 119.0863,237.9527 118.086,238.4259 117.1368,238.9948 116.248,239.654 115.428,240.3971 114.6849,241.2171 114.0257,242.1059 113.4568,243.0551 112.9836,244.0554 112.6108,245.0974 112.3419,246.1708 112.1796,247.2654 112.1253,248.3707 112.1796,249.476 112.3419,250.5706 112.6108,251.644 112.9836,252.6859 113.4568,253.6863 114.0257,254.6355 114.6849,255.5243 115.428,256.3442 116.248,257.0874 117.1368,257.7466 118.086,258.3155 119.0863,258.7886 120.1282,259.1614 121.2017,259.4303 122.2963,259.5927 123.4016,259.647 124.5068,259.5927 125.6015,259.4303 126.6749,259.1614 127.7168,258.7886 128.7172,258.3155 129.6664,257.7466 130.5552,257.0874 131.3751,256.3442 132.1183,255.5243 132.7775,254.6355 133.3464,253.6863 133.8195,252.6859 134.1923,251.644 134.4612,250.5706 134.6236,249.476 134.6779,248.3707 134.6236,247.2654 134.4612,246.1708 134.1923,245.0974 133.8195,244.0554 133.3464,243.0551 132.7775,242.1059"/>
    <polygon points="112.0007,235.278 111.9464,234.1728 111.784,233.0781 111.5152,232.0047 111.1424,230.9628 110.6692,229.9624 110.1003,229.0132 109.4411,228.1244 108.698,227.3045 107.878,226.5613 106.9892,225.9021 106.04,225.3332 105.0397,224.8601 103.9977,224.4873 102.9243,224.2184 101.8297,224.056 100.7244,224.0017 99.6191,224.056 98.5245,224.2184 97.4511,224.4873 96.4092,224.8601 95.4088,225.3332 94.4596,225.9021 93.5708,226.5613 92.7509,227.3045 92.0077,228.1244 91.3485,229.0132 90.7796,229.9624 90.3065,230.9628 89.9337,232.0047 89.6648,233.0781 89.5024,234.1728 89.4481,235.278 89.5024,236.3833 89.6648,237.4779 89.9337,238.5514 90.3065,239.5933 90.7796,240.5936 91.3485,241.5428 92.0077,242.4316 92.7509,243.2516 93.5708,243.9947 94.4596,244.6539 95.4088,245.2228 96.4092,245.696 97.4511,246.0688 98.5245,246.3377 99.6191,246.5 100.7244,246.5543 101.8297,246.5 102.9243,246.3377 103.9977,246.0688 105.0397,245.696 106.04,245.2228 106.9892,244.6539 107.878,243.9947 108.698,243.2516 109.4411,242.4316 110.1003,241.5428 110.6692,240.5936 111.1424,239.5933 111.5152,238.5514 111.784,237.4779 111.9464,236.3833"/>
    <polygon points="110.6692,214.4083 111.1424,213.4079 111.5152,212.366 111.784,211.2926 111.9464,210.198 112.0007,209.0927 111.9464,207.9874 111.784,206.8928 111.5152,205.8194 111.1424,204.7774 110.6692,203.7771 110.1003,202.8279 109.4411,201.9391 108.698,201.1191 107.878,200.376 106.9892,199.7168 106.04,199.1479 105.0397,198.6747 103.9977,198.3019 102.9243,198.0331 101.8297,197.8707 100.7244,197.8164 99.6191,197.8707 98.5245,198.0331 97.4511,198.3019 96.4092,198.6747 95.4088,199.1479 94.4596,199.7168 93.5708,200.376 92.7509,201.1191 92.0077,201.9391 91.3485,202.8279 90.7796,203.7771 90.3065,204.7774 89.9337,205.8194 89.6648,206.8928 89.5024,207.9874 89.4481,209.0927 89.5024,210.198 89.6648,211.2926 89.9337,212.366 90.3065,213.4079 90.7796,214.4083 91.3485,215.3575 92.0077,216.2463 92.7509,217.0662 93.5708,217.8094 94.4596,218.4686 95.4088,219.0375 96.4092,219.5106 97.4511,219.8834 98.5245,220.1523 99.6191,220.3147 100.7244,220.369 101.8297,220.3147 102.9243,220.1523 103.9977,219.8834 105.0397,219.5106 106.04,219.0375 106.9892,218.4686 107.878,217.8094 108.698,217.0662 109.4411,216.2463 110.1003,215.3575"/>
    <polygon points="116.6214,198.89 116.2775,199.2018 115.9657,199.5457 115.6892,199.9185 115.4506,200.3167 115.2521,200.7363 115.0957,201.1733 114.983,201.6236 114.9149,202.0827 114.8921,202.5464 114.9149,203.01 114.983,203.4691 115.0957,203.9194 115.2521,204.3564 115.4506,204.7761 115.6892,205.1742 115.9657,205.547 116.2775,205.891 116.6214,206.2027 116.9942,206.4792 117.3924,206.7178 117.812,206.9163 118.249,207.0727 118.6993,207.1854 119.1584,207.2536 119.622,207.2763 120.0857,207.2536 120.5448,207.1854 120.9951,207.0727 121.4321,206.9163 121.8517,206.7178 122.2499,206.4792 122.6227,206.2027 122.9666,205.891 123.2784,205.547 123.5549,205.1742 123.7935,204.7761 123.992,204.3564 124.1483,203.9194 124.2611,203.4691 124.3292,203.01 124.352,202.5464 124.3292,202.0827 124.2611,201.6236 124.1483,201.1733 123.992,200.7363 123.7935,200.3167 123.5549,199.9185 123.2784,199.5457 122.9666,199.2018 122.6227,198.89 122.2499,198.6135 121.8517,198.3749 121.4321,198.1764 120.9951,198.0201 120.5448,197.9073 120.0857,197.8392 119.622,197.8164 119.1584,197.8392 118.6993,197.9073 118.249,198.0201 117.812,198.1764 117.3924,198.3749 116.9942,198.6135"/>
    <polygon points="119.622,184.7237 119.1584,184.7465 118.6993,184.8146 118.249,184.9274 117.812,185.0838 117.3924,185.2822 116.9942,185.5209 116.6214,185.7974 116.2775,186.1091 115.9657,186.453 115.6892,186.8259 115.4506,187.224 115.2521,187.6436 115.0957,188.0807 114.983,188.5309 114.9149,188.9901 114.8921,189.4537 114.9149,189.9173 114.983,190.3765 115.0957,190.8267 115.2521,191.2638 115.4506,191.6834 115.6892,192.0815 115.9657,192.4544 116.2775,192.7983 116.6214,193.11 116.9942,193.3865 117.3924,193.6252 117.812,193.8236 118.249,193.98 118.6993,194.0928 119.1584,194.1609 119.622,194.1837 120.0857,194.1609 120.5448,194.0928 120.9951,193.98 121.4321,193.8236 121.8517,193.6252 122.2499,193.3865 122.6227,193.11 122.9666,192.7983 123.2784,192.4544 123.5549,192.0815 123.7935,191.6834 123.992,191.2638 124.1483,190.8267 124.2611,190.3765 124.3292,189.9173 124.352,189.4537 124.3292,188.9901 124.2611,188.5309 124.1483,188.0807 123.992,187.6436 123.7935,187.224 123.5549,186.8259 123.2784,186.453 122.9666,186.1091 122.6227,185.7974 122.2499,185.5209 121.8517,185.2822 121.4321,185.0838 120.9951,184.9274 120.5448,184.8146 120.0857,184.7465"/>
    <polygon points="82.9785,218.2525 82.6056,218.529 82.2617,218.8408 81.95,219.1847 81.6735,219.5575 81.4348,219.9557 81.2364,220.3753 81.08,220.8123 80.9672,221.2626 80.8991,221.7217 80.8763,222.1854 80.8991,222.649 80.9672,223.1081 81.08,223.5584 81.2364,223.9954 81.4348,224.4151 81.6735,224.8132 81.95,225.186 82.2617,225.53 82.6056,225.8417 82.9785,226.1182 83.3766,226.3568 83.7962,226.5553 84.2333,226.7117 84.6835,226.8244 85.1427,226.8926 85.6063,226.9153 86.0699,226.8926 86.5291,226.8244 86.9793,226.7117 87.4164,226.5553 87.836,226.3568 88.2341,226.1182 88.607,225.8417 88.9509,225.53 89.2626,225.186 89.5391,224.8132 89.7778,224.4151 89.9762,223.9954 90.1326,223.5584 90.2454,223.1081 90.3135,222.649 90.3363,222.1854 90.3135,221.7217 90.2454,221.2626 90.1326,220.8123 89.9762,220.3753 89.7778,219.9557 89.5391,219.5575 89.2626,219.1847 88.9509,218.8408 88.607,218.529 88.2341,218.2525 87.836,218.0139 87.4164,217.8154 86.9793,217.6591 86.5291,217.5463 86.0699,217.4782 85.6063,217.4554 85.1427,217.4782 84.6835,217.5463 84.2333,217.6591 83.7962,217.8154 83.3766,218.0139"/>
    <polygon points="70.9231,218.9836 71.2671,219.2953 71.6399,219.5719 72.038,219.8105 72.4576,220.0089 72.8947,220.1653 73.3449,220.2781 73.8041,220.3462 74.2677,220.369 74.7313,220.3462 75.1905,220.2781 75.6408,220.1653 76.0778,220.0089 76.4974,219.8105 76.8955,219.5719 77.2684,219.2953 77.6123,218.9836 77.924,218.6397 78.2005,218.2669 78.4392,217.8687 78.6376,217.4491 78.794,217.0121 78.9068,216.5618 78.9749,216.1026 78.9977,215.639 78.9749,215.1754 78.9068,214.7163 78.794,214.266 78.6376,213.8289 78.4392,213.4093 78.2005,213.0112 77.924,212.6384 77.6123,212.2944 77.2684,211.9827 76.8955,211.7062 76.4974,211.4676 76.0778,211.2691 75.6408,211.1127 75.1905,210.9999 74.7313,210.9318 74.2677,210.9091 73.8041,210.9318 73.3449,210.9999 72.8947,211.1127 72.4576,211.2691 72.038,211.4676 71.6399,211.7062 71.2671,211.9827 70.9231,212.2944 70.6114,212.6384 70.3349,213.0112 70.0963,213.4093 69.8978,213.8289 69.7414,214.266 69.6286,214.7163 69.5605,215.1754 69.5377,215.639 69.5605,216.1026 69.6286,216.5618 69.7414,217.0121 69.8978,217.4491 70.0963,217.8687 70.3349,218.2669 70.6114,218.6397"/>
    <polygon points="59.2728,212.0934 59.5845,212.4373 59.9285,212.749 60.3013,213.0255 60.6994,213.2642 61.1191,213.4626 61.5561,213.619 62.0064,213.7318 62.4655,213.7999 62.9291,213.8227 63.3928,213.7999 63.8519,213.7318 64.3022,213.619 64.7392,213.4626 65.1588,213.2642 65.557,213.0255 65.9298,212.749 66.2737,212.4373 66.5855,212.0934 66.862,211.7205 67.1006,211.3224 67.2991,210.9028 67.4554,210.4657 67.5682,210.0155 67.6363,209.5563 67.6591,209.0927 67.6363,208.6291 67.5682,208.1699 67.4554,207.7197 67.2991,207.2826 67.1006,206.863 66.862,206.4649 66.5855,206.092 66.2737,205.7481 65.9298,205.4364 65.557,205.1599 65.1588,204.9212 64.7392,204.7228 64.3022,204.5664 63.8519,204.4536 63.3928,204.3855 62.9291,204.3627 62.4655,204.3855 62.0064,204.4536 61.5561,204.5664 61.1191,204.7228 60.6994,204.9212 60.3013,205.1599 59.9285,205.4364 59.5845,205.7481 59.2728,206.092 58.9963,206.4649 58.7577,206.863 58.5592,207.2826 58.4028,207.7197 58.29,208.1699 58.2219,208.6291 58.1992,209.0927 58.2219,209.5563 58.29,210.0155 58.4028,210.4657 58.5592,210.9028 58.7577,211.3224 58.9963,211.7205"/>
    <polygon points="58.5592,259.6533 58.4028,260.0903 58.29,260.5406 58.2219,260.9997 58.1992,261.4634 58.2219,261.927 58.29,262.3861 58.4028,262.8364 58.5592,263.2734 58.7577,263.6931 58.9963,264.0912 59.2728,264.464 59.5845,264.808 59.9285,265.1197 60.3013,265.3962 60.6994,265.6348 61.1191,265.8333 61.5561,265.9897 62.0064,266.1024 62.4655,266.1706 62.9291,266.1933 63.3928,266.1706 63.8519,266.1024 64.3022,265.9897 64.7392,265.8333 65.1588,265.6348 65.557,265.3962 65.9298,265.1197 66.2737,264.808 66.5855,264.464 66.862,264.0912 67.1006,263.6931 67.2991,263.2734 67.4554,262.8364 67.5682,262.3861 67.6363,261.927 67.6591,261.4634 67.6363,260.9997 67.5682,260.5406 67.4554,260.0903 67.2991,259.6533 67.1006,259.2337 66.862,258.8355 66.5855,258.4627 66.2737,258.1188 65.9298,257.807 65.557,257.5305 65.1588,257.2919 64.7392,257.0934 64.3022,256.9371 63.8519,256.8243 63.3928,256.7562 62.9291,256.7334 62.4655,256.7562 62.0064,256.8243 61.5561,256.9371 61.1191,257.0934 60.6994,257.2919 60.3013,257.5305 59.9285,257.807 59.5845,258.1188 59.2728,258.4627 58.9963,258.8355 58.7577,259.2337"/>
    <polygon points="75.8473,259.4303 76.942,259.5927 78.0472,259.647 79.1525,259.5927 80.2471,259.4303 81.3206,259.1614 82.3625,258.7886 83.3629,258.3155 84.312,257.7466 85.2009,257.0874 86.0208,256.3442 86.7639,255.5243 87.4232,254.6355 87.9921,253.6863 88.4652,252.6859 88.838,251.644 89.1069,250.5706 89.2693,249.476 89.3236,248.3707 89.2693,247.2654 89.1069,246.1708 88.838,245.0974 88.4652,244.0554 87.9921,243.0551 87.4232,242.1059 86.7639,241.2171 86.0208,240.3971 85.2009,239.654 84.312,238.9948 83.3629,238.4259 82.3625,237.9527 81.3206,237.5799 80.2471,237.3111 79.1525,237.1487 78.0472,237.0944 76.942,237.1487 75.8473,237.3111 74.7739,237.5799 73.732,237.9527 72.7316,238.4259 71.7825,238.9948 70.8936,239.654 70.0737,240.3971 69.3305,241.2171 68.6713,242.1059 68.1024,243.0551 67.6293,244.0554 67.2565,245.0974 66.9876,246.1708 66.8252,247.2654 66.7709,248.3707 66.8252,249.476 66.9876,250.5706 67.2565,251.644 67.6293,252.6859 68.1024,253.6863 68.6713,254.6355 69.3305,255.5243 70.0737,256.3442 70.8936,257.0874 71.7825,257.7466 72.7316,258.3155 73.732,258.7886 74.7739,259.1614"/>
    <polygon points="86.7639,267.4024 86.0208,266.5825 85.2009,265.8393 84.312,265.1801 83.3629,264.6112 82.3625,264.1381 81.3206,263.7653 80.2471,263.4964 79.1525,263.334 78.0472,263.2797 76.942,263.334 75.8473,263.4964 74.7739,263.7653 73.732,264.1381 72.7316,264.6112 71.7825,265.1801 70.8936,265.8393 70.0737,266.5825 69.3305,267.4024 68.6713,268.2912 68.1024,269.2404 67.6293,270.2408 67.2565,271.2827 66.9876,272.3561 66.8252,273.4508 66.7709,274.556 66.8252,275.6613 66.9876,276.7559 67.2565,277.8294 67.6293,278.8713 68.1024,279.8716 68.6713,280.8208 69.3305,281.7096 70.0737,282.5296 70.8936,283.2727 71.7825,283.9319 72.7316,284.5008 73.732,284.974 74.7739,285.3468 75.8473,285.6157 76.942,285.778 78.0472,285.8323 79.1525,285.778 80.2471,285.6157 81.3206,285.3468 82.3625,284.974 83.3629,284.5008 84.312,283.9319 85.2009,283.2727 86.0208,282.5296 86.7639,281.7096 87.4232,280.8208 87.9921,279.8716 88.4652,278.8713 88.838,277.8294 89.1069,276.7559 89.2693,275.6613 89.3236,274.556 89.2693,273.4508 89.1069,272.3561 88.838,271.2827 88.4652,270.2408 87.9921,269.2404 87.4232,268.2912"/>
    <polygon points="69.5605,294.6586 69.5377,294.195 69.5605,293.7314 69.6286,293.2723 69.7414,292.822 69.8978,292.3849 70.0963,291.9653 70.3349,291.5672 70.6114,291.1944 70.9231,290.8504 71.2671,290.5387 71.6399,290.2622 72.038,290.0236 72.4576,289.8251 72.8947,289.6687 73.3449,289.5559 73.8041,289.4878 74.2677,289.4651 74.7313,289.4878 75.1905,289.5559 75.6408,289.6687 76.0778,289.8251 76.4974,290.0236 76.8955,290.2622 77.2684,290.5387 77.6123,290.8504 77.924,291.1944 78.2005,291.5672 78.4392,291.9653 78.6376,292.3849 78.794,292.822 78.9068,293.2723 78.9749,293.7314 78.9977,294.195 78.9749,294.6586 78.9068,295.1178 78.794,295.5681 78.6376,296.0051 78.4392,296.4247 78.2005,296.8229 77.924,297.1957 77.6123,297.5396 77.2684,297.8513 76.8955,298.1279 76.4974,298.3665 76.0778,298.565 75.6408,298.7213 75.1905,298.8341 74.7313,298.9022 74.2677,298.925 73.8041,298.9022 73.3449,298.8341 72.8947,298.7213 72.4576,298.565 72.038,298.3665 71.6399,298.1279 71.2671,297.8513 70.9231,297.5396 70.6114,297.1957 70.3349,296.8229 70.0963,296.4247 69.8978,296.0051 69.7414,295.5681 69.6286,295.1178"/>
    <polygon points="94.4596,297.0246 95.4088,297.5935 96.4092,298.0666 97.4511,298.4394 98.5245,298.7083 99.6191,298.8707 100.7244,298.925 101.8297,298.8707 102.9243,298.7083 103.9977,298.4394 105.0397,298.0666 106.04,297.5935 106.9892,297.0246 107.878,296.3654 108.698,295.6222 109.4411,294.8023 110.1003,293.9135 110.6692,292.9643 111.1424,291.964 111.5152,290.922 111.784,289.8486 111.9464,288.754 112.0007,287.6487 111.9464,286.5434 111.784,285.4488 111.5152,284.3754 111.1424,283.3334 110.6692,282.3331 110.1003,281.3839 109.4411,280.4951 108.698,279.6751 107.878,278.932 106.9892,278.2728 106.04,277.7039 105.0397,277.2307 103.9977,276.8579 102.9243,276.5891 101.8297,276.4267 100.7244,276.3724 99.6191,276.4267 98.5245,276.5891 97.4511,276.8579 96.4092,277.2307 95.4088,277.7039 94.4596,278.2728 93.5708,278.932 92.7509,279.6751 92.0077,280.4951 91.3485,281.3839 90.7796,282.3331 90.3065,283.3334 89.9337,284.3754 89.6648,285.4488 89.5024,286.5434 89.4481,287.6487 89.5024,288.754 89.6648,289.8486 89.9337,290.922 90.3065,291.964 90.7796,292.9643 91.3485,293.9135 92.0077,294.8023 92.7509,295.6222 93.5708,296.3654"/>
    <polygon points="99.5727,303.3549 99.1746,303.1162 98.755,302.9178 98.3179,302.7614 97.8677,302.6486 97.4085,302.5805 96.9449,302.5577 96.4813,302.5805 96.0221,302.6486 95.5718,302.7614 95.1348,302.9178 94.7152,303.1162 94.317,303.3549 93.9442,303.6314 93.6003,303.9431 93.2886,304.287 93.0121,304.6599 92.7734,305.058 92.575,305.4776 92.4186,305.9147 92.3058,306.3649 92.2377,306.8241 92.2149,307.2877 92.2377,307.7513 92.3058,308.2105 92.4186,308.6607 92.575,309.0978 92.7734,309.5174 93.0121,309.9155 93.2886,310.2884 93.6003,310.6323 93.9442,310.944 94.317,311.2205 94.7152,311.4592 95.1348,311.6576 95.5718,311.814 96.0221,311.9268 96.4813,311.9949 96.9449,312.0177 97.4085,311.9949 97.8677,311.9268 98.3179,311.814 98.755,311.6576 99.1746,311.4592 99.5727,311.2205 99.9455,310.944 100.2895,310.6323 100.6012,310.2884 100.8777,309.9155 101.1163,309.5174 101.3148,309.0978 101.4712,308.6607 101.584,308.2105 101.6521,307.7513 101.6749,307.2877 101.6521,306.8241 101.584,306.3649 101.4712,305.9147 101.3148,305.4776 101.1163,305.058 100.8777,304.6599 100.6012,304.287 100.2895,303.9431 99.9455,303.6314"/>
  </g>
</svg>
