<?xml version="1.0" encoding="utf-8" ?>
<svg xmlns="http://www.w3.org/2000/svg" xmlns:cc="http://creativecommons.org/ns" xmlns:dc="http://purl.org/dc/elements/1.1/" xmlns:ev="http://www.w3.org/2001/xml-events" xmlns:inkscape="http://www.inkscape.org/namespaces/inkscape" xmlns:rdf="http://www.w3.org/1999/02/22-rdf-syntax-ns" xmlns:sodipodi="http://sodipodi.sourceforge.net/DTD/sodipodi-0.dtd" xmlns:xlink="http://www.w3.org/1999/xlink" baseProfile="tiny" height="15.875cm" version="1.2" viewBox="0 0 432.0 600.0" width="11.43cm">
  <metadata>
    <rdf:RDF>
      <cc:Work>
        <dc:format>image/svg+xml</dc:format>
        <dc:source>vsk save -s 266 -c hex-grid/config/bubble-coasters-2.json /Users/tobin/src/fabian/plotting/fabian-plotting/hex-grid/sketch_hex_grid.py</dc:source>
        <dc:date>2023-11-11T11:30:23.905107</dc:date>
      </cc:Work>
    </rdf:RDF>
  </metadata>
  <defs/>
  <g fill="none" id="layer1" inkscape:groupmode="layer" inkscape:label="1" stroke="#000000" stroke-width="0.7559" style="display:inline">
    <polygon points="180.1742,388.0201 180.6112,387.8637 181.0615,387.7509 181.5206,387.6828 181.9843,387.6601 182.4479,387.6828 182.907,387.7509 183.3573,387.8637 183.7943,388.0201 184.2139,388.2186 184.6121,388.4572 184.9849,388.7337 185.3288,389.0454 185.6406,389.3894 185.9171,389.7622 186.1557,390.1603 186.3542,390.58 186.5106,391.017 186.6233,391.4673 186.6914,391.9264 186.7142,392.39 186.6914,392.8537 186.6233,393.3128 186.5106,393.7631 186.3542,394.2001 186.1557,394.6197 185.9171,395.0179 185.6406,395.3907 185.3288,395.7346 184.9849,396.0464 184.6121,396.3229 184.2139,396.5615 183.7943,396.76 183.3573,396.9163 182.907,397.0291 182.4479,397.0972 181.9843,397.12 181.5206,397.0972 181.0615,397.0291 180.6112,396.9163 180.1742,396.76 179.7546,396.5615 179.3564,396.3229 178.9836,396.0464 178.6397,395.7346 178.3279,395.3907 178.0514,395.0179 177.8128,394.6197 177.6143,394.2001 177.458,393.7631 177.3452,393.3128 177.2771,392.8537 177.2543,392.39 177.2771,391.9264 177.3452,391.4673 177.458,391.017 177.6143,390.58 177.8128,390.1603 178.0514,389.7622 178.3279,389.3894 178.6397,389.0454 178.9836,388.7337 179.3564,388.4572 179.7546,388.2186"/>
    <polygon points="177.3452,380.2201 177.2771,379.761 177.2543,379.2974 177.2771,378.8338 177.3452,378.3746 177.458,377.9243 177.6143,377.4873 177.8128,377.0677 178.0514,376.6695 178.3279,376.2967 178.6397,375.9528 178.9836,375.6411 179.3564,375.3645 179.7546,375.1259 180.1742,374.9274 180.6112,374.7711 181.0615,374.6583 181.5206,374.5902 181.9843,374.5674 182.4479,374.5902 182.907,374.6583 183.3573,374.7711 183.7943,374.9274 184.2139,375.1259 184.6121,375.3645 184.9849,375.6411 185.3288,375.9528 185.6406,376.2967 185.9171,376.6695 186.1557,377.0677 186.3542,377.4873 186.5106,377.9243 186.6233,378.3746 186.6914,378.8338 186.7142,379.2974 186.6914,379.761 186.6233,380.2201 186.5106,380.6704 186.3542,381.1075 186.1557,381.5271 185.9171,381.9252 185.6406,382.298 185.3288,382.642 184.9849,382.9537 184.6121,383.2302 184.2139,383.4688 183.7943,383.6673 183.3573,383.8237 182.907,383.9365 182.4479,384.0046 181.9843,384.0273 181.5206,384.0046 181.0615,383.9365 180.6112,383.8237 180.1742,383.6673 179.7546,383.4688 179.3564,383.2302 178.9836,382.9537 178.6397,382.642 178.3279,382.298 178.0514,381.9252 177.8128,381.5271 177.6143,381.1075 177.458,380.6704"/>
    <polygon points="182.4904,370.4491 183.5639,370.718 184.6585,370.8804 185.7638,370.9347 186.8691,370.8804 187.9637,370.718 189.0371,370.4491 190.079,370.0763 191.0794,369.6032 192.0286,369.0343 192.9174,368.3751 193.7373,367.6319 194.4805,366.812 195.1397,365.9231 195.7086,364.974 196.1817,363.9736 196.5545,362.9317 196.8234,361.8583 196.9858,360.7636 197.0401,359.6584 196.9858,358.5531 196.8234,357.4585 196.5545,356.385 196.1817,355.3431 195.7086,354.3428 195.1397,353.3936 194.4805,352.5048 193.7373,351.6848 192.9174,350.9417 192.0286,350.2825 191.0794,349.7136 190.079,349.2404 189.0371,348.8676 187.9637,348.5987 186.8691,348.4364 185.7638,348.3821 184.6585,348.4364 183.5639,348.5987 182.4904,348.8676 181.4485,349.2404 180.4482,349.7136 179.499,350.2825 178.6102,350.9417 177.7902,351.6848 177.0471,352.5048 176.3879,353.3936 175.819,354.3428 175.3458,355.3431 174.973,356.385 174.7041,357.4585 174.5418,358.5531 174.4875,359.6584 174.5418,360.7636 174.7041,361.8583 174.973,362.9317 175.3458,363.9736 175.819,364.974 176.3879,365.9231 177.0471,366.812 177.7902,367.6319 178.6102,368.3751 179.499,369.0343 180.4482,369.6032 181.4485,370.0763"/>
    <polygon points="153.1418,351.8813 153.7107,352.8305 154.3699,353.7193 155.1131,354.5393 155.933,355.2824 156.8218,355.9416 157.771,356.5105 158.7714,356.9836 159.8133,357.3565 160.8867,357.6253 161.9813,357.7877 163.0866,357.842 164.1919,357.7877 165.2865,357.6253 166.36,357.3565 167.4019,356.9836 168.4022,356.5105 169.3514,355.9416 170.2402,355.2824 171.0602,354.5393 171.8033,353.7193 172.4625,352.8305 173.0314,351.8813 173.5046,350.881 173.8774,349.839 174.1462,348.7656 174.3086,347.671 174.3629,346.5657 174.3086,345.4604 174.1462,344.3658 173.8774,343.2924 173.5046,342.2504 173.0314,341.2501 172.4625,340.3009 171.8033,339.4121 171.0602,338.5921 170.2402,337.849 169.3514,337.1898 168.4022,336.6209 167.4019,336.1478 166.36,335.7749 165.2865,335.5061 164.1919,335.3437 163.0866,335.2894 161.9813,335.3437 160.8867,335.5061 159.8133,335.7749 158.7714,336.1478 157.771,336.6209 156.8218,337.1898 155.933,337.849 155.1131,338.5921 154.3699,339.4121 153.7107,340.3009 153.1418,341.2501 152.6687,342.2504 152.2959,343.2924 152.027,344.3658 151.8646,345.4604 151.8103,346.5657 151.8646,347.671 152.027,348.7656 152.2959,349.839 152.6687,350.881"/>
    <polygon points="150.9692,363.3147 151.3131,363.003 151.6248,362.659 151.9013,362.2862 152.14,361.8881 152.3384,361.4684 152.4948,361.0314 152.6076,360.5811 152.6757,360.122 152.6985,359.6584 152.6757,359.1947 152.6076,358.7356 152.4948,358.2853 152.3384,357.8483 152.14,357.4287 151.9013,357.0305 151.6248,356.6577 151.3131,356.3138 150.9692,356.002 150.5963,355.7255 150.1982,355.4869 149.7786,355.2884 149.3415,355.1321 148.8913,355.0193 148.4321,354.9512 147.9685,354.9284 147.5049,354.9512 147.0457,355.0193 146.5955,355.1321 146.1584,355.2884 145.7388,355.4869 145.3407,355.7255 144.9678,356.002 144.6239,356.3138 144.3122,356.6577 144.0357,357.0305 143.797,357.4287 143.5986,357.8483 143.4422,358.2853 143.3294,358.7356 143.2613,359.1947 143.2385,359.6584 143.2613,360.122 143.3294,360.5811 143.4422,361.0314 143.5986,361.4684 143.797,361.8881 144.0357,362.2862 144.3122,362.659 144.6239,363.003 144.9678,363.3147 145.3407,363.5912 145.7388,363.8298 146.1584,364.0283 146.5955,364.1847 147.0457,364.2975 147.5049,364.3656 147.9685,364.3883 148.4321,364.3656 148.8913,364.2975 149.3415,364.1847 149.7786,364.0283 150.1982,363.8298 150.5963,363.5912"/>
    <polygon points="132.9736,369.2054 133.2853,369.5493 133.6293,369.861 134.0021,370.1375 134.4002,370.3762 134.8198,370.5746 135.2569,370.731 135.7071,370.8438 136.1663,370.9119 136.6299,370.9347 137.0935,370.9119 137.5527,370.8438 138.003,370.731 138.44,370.5746 138.8596,370.3762 139.2578,370.1375 139.6306,369.861 139.9745,369.5493 140.2862,369.2054 140.5627,368.8325 140.8014,368.4344 140.9998,368.0148 141.1562,367.5777 141.269,367.1275 141.3371,366.6683 141.3599,366.2047 141.3371,365.7411 141.269,365.2819 141.1562,364.8317 140.9998,364.3946 140.8014,363.975 140.5627,363.5769 140.2862,363.204 139.9745,362.8601 139.6306,362.5484 139.2578,362.2719 138.8596,362.0332 138.44,361.8348 138.003,361.6784 137.5527,361.5656 137.0935,361.4975 136.6299,361.4747 136.1663,361.4975 135.7071,361.5656 135.2569,361.6784 134.8198,361.8348 134.4002,362.0332 134.0021,362.2719 133.6293,362.5484 133.2853,362.8601 132.9736,363.204 132.6971,363.5769 132.4585,363.975 132.26,364.3946 132.1036,364.8317 131.9908,365.2819 131.9227,365.7411 131.8999,366.2047 131.9227,366.6683 131.9908,367.1275 132.1036,367.5777 132.26,368.0148 132.4585,368.4344 132.6971,368.8325"/>
    <polygon points="120.6523,371.8283 120.5841,372.2874 120.5614,372.751 120.5841,373.2147 120.6523,373.6738 120.765,374.1241 120.9214,374.5611 121.1199,374.9807 121.3585,375.3789 121.635,375.7517 121.9467,376.0956 122.2907,376.4074 122.6635,376.6839 123.0616,376.9225 123.4813,377.121 123.9183,377.2773 124.3686,377.3901 124.8277,377.4582 125.2913,377.481 125.755,377.4582 126.2141,377.3901 126.6644,377.2773 127.1014,377.121 127.521,376.9225 127.9192,376.6839 128.292,376.4074 128.6359,376.0956 128.9477,375.7517 129.2242,375.3789 129.4628,374.9807 129.6613,374.5611 129.8176,374.1241 129.9304,373.6738 129.9985,373.2147 130.0213,372.751 129.9985,372.2874 129.9304,371.8283 129.8176,371.378 129.6613,370.941 129.4628,370.5213 129.2242,370.1232 128.9477,369.7504 128.6359,369.4064 128.292,369.0947 127.9192,368.8182 127.521,368.5796 127.1014,368.3811 126.6644,368.2247 126.2141,368.1119 125.755,368.0438 125.2913,368.0211 124.8277,368.0438 124.3686,368.1119 123.9183,368.2247 123.4813,368.3811 123.0616,368.5796 122.6635,368.8182 122.2907,369.0947 121.9467,369.4064 121.635,369.7504 121.3585,370.1232 121.1199,370.5213 120.9214,370.941 120.765,371.378"/>
    <polygon points="132.4585,342.2491 132.26,341.8294 132.1036,341.3924 131.9908,340.9421 131.9227,340.483 131.8999,340.0194 131.9227,339.5557 131.9908,339.0966 132.1036,338.6463 132.26,338.2093 132.4585,337.7897 132.6971,337.3915 132.9736,337.0187 133.2853,336.6748 133.6293,336.363 134.0021,336.0865 134.4002,335.8479 134.8198,335.6494 135.2569,335.4931 135.7071,335.3803 136.1663,335.3122 136.6299,335.2894 137.0935,335.3122 137.5527,335.3803 138.003,335.4931 138.44,335.6494 138.8596,335.8479 139.2578,336.0865 139.6306,336.363 139.9745,336.6748 140.2862,337.0187 140.5627,337.3915 140.8014,337.7897 140.9998,338.2093 141.1562,338.6463 141.269,339.0966 141.3371,339.5557 141.3599,340.0194 141.3371,340.483 141.269,340.9421 141.1562,341.3924 140.9998,341.8294 140.8014,342.2491 140.5627,342.6472 140.2862,343.02 139.9745,343.364 139.6306,343.6757 139.2578,343.9522 138.8596,344.1908 138.44,344.3893 138.003,344.5457 137.5527,344.6585 137.0935,344.7266 136.6299,344.7493 136.1663,344.7266 135.7071,344.6585 135.2569,344.5457 134.8198,344.3893 134.4002,344.1908 134.0021,343.9522 133.6293,343.6757 133.2853,343.364 132.9736,343.02 132.6971,342.6472"/>
    <polygon points="129.9304,321.3031 129.8176,321.7534 129.6613,322.1904 129.4628,322.6101 129.2242,323.0082 128.9477,323.381 128.6359,323.725 128.292,324.0367 127.9192,324.3132 127.521,324.5518 127.1014,324.7503 126.6644,324.9067 126.2141,325.0195 125.755,325.0876 125.2913,325.1103 124.8277,325.0876 124.3686,325.0195 123.9183,324.9067 123.4813,324.7503 123.0616,324.5518 122.6635,324.3132 122.2907,324.0367 121.9467,323.725 121.635,323.381 121.3585,323.0082 121.1199,322.6101 120.9214,322.1904 120.765,321.7534 120.6523,321.3031 120.5841,320.844 120.5614,320.3804 120.5841,319.9167 120.6523,319.4576 120.765,319.0073 120.9214,318.5703 121.1199,318.1507 121.3585,317.7525 121.635,317.3797 121.9467,317.0358 122.2907,316.724 122.6635,316.4475 123.0616,316.2089 123.4813,316.0104 123.9183,315.8541 124.3686,315.7413 124.8277,315.6732 125.2913,315.6504 125.755,315.6732 126.2141,315.7413 126.6644,315.8541 127.1014,316.0104 127.521,316.2089 127.9192,316.4475 128.292,316.724 128.6359,317.0358 128.9477,317.3797 129.2242,317.7525 129.4628,318.1507 129.6613,318.5703 129.8176,319.0073 129.9304,319.4576 129.9985,319.9167 130.0213,320.3804 129.9985,320.844"/>
    <polygon points="134.4002,322.7552 134.8198,322.5568 135.2569,322.4004 135.7071,322.2876 136.1663,322.2195 136.6299,322.1967 137.0935,322.2195 137.5527,322.2876 138.003,322.4004 138.44,322.5568 138.8596,322.7552 139.2578,322.9939 139.6306,323.2704 139.9745,323.5821 140.2862,323.926 140.5627,324.2989 140.8014,324.697 140.9998,325.1166 141.1562,325.5537 141.269,326.0039 141.3371,326.4631 141.3599,326.9267 141.3371,327.3903 141.269,327.8495 141.1562,328.2997 140.9998,328.7368 140.8014,329.1564 140.5627,329.5545 140.2862,329.9274 139.9745,330.2713 139.6306,330.583 139.2578,330.8595 138.8596,331.0982 138.44,331.2966 138.003,331.453 137.5527,331.5658 137.0935,331.6339 136.6299,331.6567 136.1663,331.6339 135.7071,331.5658 135.2569,331.453 134.8198,331.2966 134.4002,331.0982 134.0021,330.8595 133.6293,330.583 133.2853,330.2713 132.9736,329.9274 132.6971,329.5545 132.4585,329.1564 132.26,328.7368 132.1036,328.2997 131.9908,327.8495 131.9227,327.3903 131.8999,326.9267 131.9227,326.4631 131.9908,326.0039 132.1036,325.5537 132.26,325.1166 132.4585,324.697 132.6971,324.2989 132.9736,323.926 133.2853,323.5821 133.6293,323.2704 134.0021,322.9939"/>
    <polygon points="144.3122,330.4724 144.6239,330.1284 144.9678,329.8167 145.3407,329.5402 145.7388,329.3016 146.1584,329.1031 146.5955,328.9467 147.0457,328.8339 147.5049,328.7658 147.9685,328.7431 148.4321,328.7658 148.8913,328.8339 149.3415,328.9467 149.7786,329.1031 150.1982,329.3016 150.5963,329.5402 150.9692,329.8167 151.3131,330.1284 151.6248,330.4724 151.9013,330.8452 152.14,331.2433 152.3384,331.663 152.4948,332.1 152.6076,332.5503 152.6757,333.0094 152.6985,333.473 152.6757,333.9367 152.6076,334.3958 152.4948,334.8461 152.3384,335.2831 152.14,335.7027 151.9013,336.1009 151.6248,336.4737 151.3131,336.8176 150.9692,337.1294 150.5963,337.4059 150.1982,337.6445 149.7786,337.843 149.3415,337.9993 148.8913,338.1121 148.4321,338.1802 147.9685,338.203 147.5049,338.1802 147.0457,338.1121 146.5955,337.9993 146.1584,337.843 145.7388,337.6445 145.3407,337.4059 144.9678,337.1294 144.6239,336.8176 144.3122,336.4737 144.0357,336.1009 143.797,335.7027 143.5986,335.2831 143.4422,334.8461 143.3294,334.3958 143.2613,333.9367 143.2385,333.473 143.2613,333.0094 143.3294,332.5503 143.4422,332.1 143.5986,331.663 143.797,331.2433 144.0357,330.8452"/>
    <polygon points="150.9692,324.0367 150.5963,324.3132 150.1982,324.5518 149.7786,324.7503 149.3415,324.9067 148.8913,325.0195 148.4321,325.0876 147.9685,325.1103 147.5049,325.0876 147.0457,325.0195 146.5955,324.9067 146.1584,324.7503 145.7388,324.5518 145.3407,324.3132 144.9678,324.0367 144.6239,323.725 144.3122,323.381 144.0357,323.0082 143.797,322.6101 143.5986,322.1904 143.4422,321.7534 143.3294,321.3031 143.2613,320.844 143.2385,320.3804 143.2613,319.9167 143.3294,319.4576 143.4422,319.0073 143.5986,318.5703 143.797,318.1507 144.0357,317.7525 144.3122,317.3797 144.6239,317.0358 144.9678,316.724 145.3407,316.4475 145.7388,316.2089 146.1584,316.0104 146.5955,315.8541 147.0457,315.7413 147.5049,315.6732 147.9685,315.6504 148.4321,315.6732 148.8913,315.7413 149.3415,315.8541 149.7786,316.0104 150.1982,316.2089 150.5963,316.4475 150.9692,316.724 151.3131,317.0358 151.6248,317.3797 151.9013,317.7525 152.14,318.1507 152.3384,318.5703 152.4948,319.0073 152.6076,319.4576 152.6757,319.9167 152.6985,320.3804 152.6757,320.844 152.6076,321.3031 152.4948,321.7534 152.3384,322.1904 152.14,322.6101 151.9013,323.0082 151.6248,323.381 151.3131,323.725"/>
    <polygon points="169.0712,317.9918 169.4221,315.6262 170.0032,313.3064 170.8088,311.0548 171.8313,308.8929 173.0608,306.8417 174.4854,304.9209 176.0914,303.1489 177.8633,301.5429 179.7842,300.1183 181.8354,298.8888 183.9972,297.8664 186.2489,297.0607 188.5687,296.4796 190.9343,296.1287 193.3228,296.0114 195.7114,296.1287 198.077,296.4796 200.3968,297.0607 202.6484,297.8664 204.8103,298.8888 206.8615,300.1183 208.7823,301.5429 210.5543,303.1489 212.1603,304.9209 213.5849,306.8417 214.8144,308.8929 215.8368,311.0548 216.6425,313.3064 217.2236,315.6262 217.5745,317.9918 217.6918,320.3804 217.5745,322.7689 217.2236,325.1345 216.6425,327.4543 215.8368,329.706 214.8144,331.8678 213.5849,333.919 212.1603,335.8399 210.5543,337.6118 208.7823,339.2178 206.8615,340.6424 204.8103,341.8719 202.6484,342.8944 200.3968,343.7 198.077,344.2811 195.7114,344.632 193.3228,344.7493 190.9343,344.632 188.5687,344.2811 186.2489,343.7 183.9972,342.8944 181.8354,341.8719 179.7842,340.6424 177.8633,339.2178 176.0914,337.6118 174.4854,335.8399 173.0608,333.919 171.8313,331.8678 170.8088,329.706 170.0032,327.4543 169.4221,325.1345 169.0712,322.7689 168.9539,320.3804"/>
    <polygon points="154.3699,301.3486 153.7107,300.4598 153.1418,299.5106 152.6687,298.5103 152.2959,297.4684 152.027,296.3949 151.8646,295.3003 151.8103,294.195 151.8646,293.0898 152.027,291.9951 152.2959,290.9217 152.6687,289.8798 153.1418,288.8794 153.7107,287.9302 154.3699,287.0414 155.1131,286.2215 155.933,285.4783 156.8218,284.8191 157.771,284.2502 158.7714,283.7771 159.8133,283.4043 160.8867,283.1354 161.9813,282.973 163.0866,282.9187 164.1919,282.973 165.2865,283.1354 166.36,283.4043 167.4019,283.7771 168.4022,284.2502 169.3514,284.8191 170.2402,285.4783 171.0602,286.2215 171.8033,287.0414 172.4625,287.9302 173.0314,288.8794 173.5046,289.8798 173.8774,290.9217 174.1462,291.9951 174.3086,293.0898 174.3629,294.195 174.3086,295.3003 174.1462,296.3949 173.8774,297.4684 173.5046,298.5103 173.0314,299.5106 172.4625,300.4598 171.8033,301.3486 171.0602,302.1686 170.2402,302.9117 169.3514,303.5709 168.4022,304.1398 167.4019,304.613 166.36,304.9858 165.2865,305.2547 164.1919,305.417 163.0866,305.4713 161.9813,305.417 160.8867,305.2547 159.8133,304.9858 158.7714,304.613 157.771,304.1398 156.8218,303.5709 155.933,302.9117 155.1131,302.1686"/>
    <polygon points="144.9678,303.6314 145.3407,303.3549 145.7388,303.1162 146.1584,302.9178 146.5955,302.7614 147.0457,302.6486 147.5049,302.5805 147.9685,302.5577 148.4321,302.5805 148.8913,302.6486 149.3415,302.7614 149.7786,302.9178 150.1982,303.1162 150.5963,303.3549 150.9692,303.6314 151.3131,303.9431 151.6248,304.287 151.9013,304.6599 152.14,305.058 152.3384,305.4776 152.4948,305.9147 152.6076,306.3649 152.6757,306.8241 152.6985,307.2877 152.6757,307.7513 152.6076,308.2105 152.4948,308.6607 152.3384,309.0978 152.14,309.5174 151.9013,309.9155 151.6248,310.2884 151.3131,310.6323 150.9692,310.944 150.5963,311.2205 150.1982,311.4592 149.7786,311.6576 149.3415,311.814 148.8913,311.9268 148.4321,311.9949 147.9685,312.0177 147.5049,311.9949 147.0457,311.9268 146.5955,311.814 146.1584,311.6576 145.7388,311.4592 145.3407,311.2205 144.9678,310.944 144.6239,310.6323 144.3122,310.2884 144.0357,309.9155 143.797,309.5174 143.5986,309.0978 143.4422,308.6607 143.3294,308.2105 143.2613,307.7513 143.2385,307.2877 143.2613,306.8241 143.3294,306.3649 143.4422,305.9147 143.5986,305.4776 143.797,305.058 144.0357,304.6599 144.3122,304.287 144.6239,303.9431"/>
    <polygon points="139.9745,277.9006 139.6306,278.2123 139.2578,278.4889 138.8596,278.7275 138.44,278.926 138.003,279.0823 137.5527,279.1951 137.0935,279.2632 136.6299,279.286 136.1663,279.2632 135.7071,279.1951 135.2569,279.0823 134.8198,278.926 134.4002,278.7275 134.0021,278.4889 133.6293,278.2123 133.2853,277.9006 132.9736,277.5567 132.6971,277.1839 132.4585,276.7857 132.26,276.3661 132.1036,275.9291 131.9908,275.4788 131.9227,275.0196 131.8999,274.556 131.9227,274.0924 131.9908,273.6333 132.1036,273.183 132.26,272.7459 132.4585,272.3263 132.6971,271.9282 132.9736,271.5554 133.2853,271.2114 133.6293,270.8997 134.0021,270.6232 134.4002,270.3846 134.8198,270.1861 135.2569,270.0297 135.7071,269.9169 136.1663,269.8488 136.6299,269.8261 137.0935,269.8488 137.5527,269.9169 138.003,270.0297 138.44,270.1861 138.8596,270.3846 139.2578,270.6232 139.6306,270.8997 139.9745,271.2114 140.2862,271.5554 140.5627,271.9282 140.8014,272.3263 140.9998,272.7459 141.1562,273.183 141.269,273.6333 141.3371,274.0924 141.3599,274.556 141.3371,275.0196 141.269,275.4788 141.1562,275.9291 140.9998,276.3661 140.8014,276.7857 140.5627,277.1839 140.2862,277.5567"/>
    <polygon points="136.1663,256.7562 136.6299,256.7334 137.0935,256.7562 137.5527,256.8243 138.003,256.9371 138.44,257.0934 138.8596,257.2919 139.2578,257.5305 139.6306,257.807 139.9745,258.1188 140.2862,258.4627 140.5627,258.8355 140.8014,259.2337 140.9998,259.6533 141.1562,260.0903 141.269,260.5406 141.3371,260.9997 141.3599,261.4634 141.3371,261.927 141.269,262.3861 141.1562,262.8364 140.9998,263.2734 140.8014,263.6931 140.5627,264.0912 140.2862,264.464 139.9745,264.808 139.6306,265.1197 139.2578,265.3962 138.8596,265.6348 138.44,265.8333 138.003,265.9897 137.5527,266.1024 137.0935,266.1706 136.6299,266.1933 136.1663,266.1706 135.7071,266.1024 135.2569,265.9897 134.8198,265.8333 134.4002,265.6348 134.0021,265.3962 133.6293,265.1197 133.2853,264.808 132.9736,264.464 132.6971,264.0912 132.4585,263.6931 132.26,263.2734 132.1036,262.8364 131.9908,262.3861 131.9227,261.927 131.8999,261.4634 131.9227,260.9997 131.9908,260.5406 132.1036,260.0903 132.26,259.6533 132.4585,259.2337 132.6971,258.8355 132.9736,258.4627 133.2853,258.1188 133.6293,257.807 134.0021,257.5305 134.4002,257.2919 134.8198,257.0934 135.2569,256.9371 135.7071,256.8243"/>
    <polygon points="152.6076,253.9943 152.6757,254.4534 152.6985,254.917 152.6757,255.3806 152.6076,255.8398 152.4948,256.2901 152.3384,256.7271 152.14,257.1467 151.9013,257.5449 151.6248,257.9177 151.3131,258.2616 150.9692,258.5733 150.5963,258.8499 150.1982,259.0885 149.7786,259.287 149.3415,259.4433 148.8913,259.5561 148.4321,259.6242 147.9685,259.647 147.5049,259.6242 147.0457,259.5561 146.5955,259.4433 146.1584,259.287 145.7388,259.0885 145.3407,258.8499 144.9678,258.5733 144.6239,258.2616 144.3122,257.9177 144.0357,257.5449 143.797,257.1467 143.5986,256.7271 143.4422,256.2901 143.3294,255.8398 143.2613,255.3806 143.2385,254.917 143.2613,254.4534 143.3294,253.9943 143.4422,253.544 143.5986,253.1069 143.797,252.6873 144.0357,252.2892 144.3122,251.9164 144.6239,251.5724 144.9678,251.2607 145.3407,250.9842 145.7388,250.7456 146.1584,250.5471 146.5955,250.3907 147.0457,250.2779 147.5049,250.2098 147.9685,250.1871 148.4321,250.2098 148.8913,250.2779 149.3415,250.3907 149.7786,250.5471 150.1982,250.7456 150.5963,250.9842 150.9692,251.2607 151.3131,251.5724 151.6248,251.9164 151.9013,252.2892 152.14,252.6873 152.3384,253.1069 152.4948,253.544"/>
    <polygon points="157.934,226.7117 157.497,226.5553 157.0774,226.3568 156.6793,226.1182 156.3064,225.8417 155.9625,225.53 155.6508,225.186 155.3743,224.8132 155.1356,224.4151 154.9372,223.9954 154.7808,223.5584 154.668,223.1081 154.5999,222.649 154.5771,222.1854 154.5999,221.7217 154.668,221.2626 154.7808,220.8123 154.9372,220.3753 155.1356,219.9557 155.3743,219.5575 155.6508,219.1847 155.9625,218.8408 156.3064,218.529 156.6793,218.2525 157.0774,218.0139 157.497,217.8154 157.934,217.6591 158.3843,217.5463 158.8435,217.4782 159.3071,217.4554 159.7707,217.4782 160.2299,217.5463 160.6801,217.6591 161.1172,217.8154 161.5368,218.0139 161.9349,218.2525 162.3077,218.529 162.6517,218.8408 162.9634,219.1847 163.2399,219.5575 163.4786,219.9557 163.677,220.3753 163.8334,220.8123 163.9462,221.2626 164.0143,221.7217 164.0371,222.1854 164.0143,222.649 163.9462,223.1081 163.8334,223.5584 163.677,223.9954 163.4786,224.4151 163.2399,224.8132 162.9634,225.186 162.6517,225.53 162.3077,225.8417 161.9349,226.1182 161.5368,226.3568 161.1172,226.5553 160.6801,226.7117 160.2299,226.8244 159.7707,226.8926 159.3071,226.9153 158.8435,226.8926 158.3843,226.8244"/>
    <polygon points="173.0314,236.5087 173.5046,237.5091 173.8774,238.551 174.1462,239.6245 174.3086,240.7191 174.3629,241.8244 174.3086,242.9296 174.1462,244.0243 173.8774,245.0977 173.5046,246.1396 173.0314,247.14 172.4625,248.0891 171.8033,248.978 171.0602,249.7979 170.2402,250.5411 169.3514,251.2003 168.4022,251.7692 167.4019,252.2423 166.36,252.6151 165.2865,252.884 164.1919,253.0464 163.0866,253.1007 161.9813,253.0464 160.8867,252.884 159.8133,252.6151 158.7714,252.2423 157.771,251.7692 156.8218,251.2003 155.933,250.5411 155.1131,249.7979 154.3699,248.978 153.7107,248.0891 153.1418,247.14 152.6687,246.1396 152.2959,245.0977 152.027,244.0243 151.8646,242.9296 151.8103,241.8244 151.8646,240.7191 152.027,239.6245 152.2959,238.551 152.6687,237.5091 153.1418,236.5087 153.7107,235.5596 154.3699,234.6707 155.1131,233.8508 155.933,233.1077 156.8218,232.4485 157.771,231.8795 158.7714,231.4064 159.8133,231.0336 160.8867,230.7647 161.9813,230.6024 163.0866,230.5481 164.1919,230.6024 165.2865,230.7647 166.36,231.0336 167.4019,231.4064 168.4022,231.8795 169.3514,232.4485 170.2402,233.1077 171.0602,233.8508 171.8033,234.6707 172.4625,235.5596"/>
    <polygon points="184.6585,243.695 185.7638,243.6407 186.8691,243.695 187.9637,243.8574 189.0371,244.1263 190.079,244.4991 191.0794,244.9722 192.0286,245.5411 192.9174,246.2003 193.7373,246.9435 194.4805,247.7634 195.1397,248.6522 195.7086,249.6014 196.1817,250.6018 196.5545,251.6437 196.8234,252.7171 196.9858,253.8118 197.0401,254.917 196.9858,256.0223 196.8234,257.1169 196.5545,258.1904 196.1817,259.2323 195.7086,260.2326 195.1397,261.1818 194.4805,262.0706 193.7373,262.8906 192.9174,263.6337 192.0286,264.2929 191.0794,264.8618 190.079,265.335 189.0371,265.7078 187.9637,265.9767 186.8691,266.139 185.7638,266.1933 184.6585,266.139 183.5639,265.9767 182.4904,265.7078 181.4485,265.335 180.4482,264.8618 179.499,264.2929 178.6102,263.6337 177.7902,262.8906 177.0471,262.0706 176.3879,261.1818 175.819,260.2326 175.3458,259.2323 174.973,258.1904 174.7041,257.1169 174.5418,256.0223 174.4875,254.917 174.5418,253.8118 174.7041,252.7171 174.973,251.6437 175.3458,250.6018 175.819,249.6014 176.3879,248.6522 177.0471,247.7634 177.7902,246.9435 178.6102,246.2003 179.499,245.5411 180.4482,244.9722 181.4485,244.4991 182.4904,244.1263 183.5639,243.8574"/>
    <polygon points="193.7865,285.8096 194.2456,285.7414 194.6959,285.6287 195.1329,285.4723 195.5525,285.2738 195.9507,285.0352 196.3235,284.7587 196.6674,284.447 196.9792,284.103 197.2557,283.7302 197.4943,283.3321 197.6928,282.9124 197.8491,282.4754 197.9619,282.0251 198.03,281.566 198.0528,281.1024 198.03,280.6387 197.9619,280.1796 197.8491,279.7293 197.6928,279.2923 197.4943,278.8727 197.2557,278.4745 196.9792,278.1017 196.6674,277.7578 196.3235,277.446 195.9507,277.1695 195.5525,276.9309 195.1329,276.7324 194.6959,276.5761 194.2456,276.4633 193.7865,276.3952 193.3228,276.3724 192.8592,276.3952 192.4001,276.4633 191.9498,276.5761 191.5128,276.7324 191.0931,276.9309 190.695,277.1695 190.3222,277.446 189.9782,277.7578 189.6665,278.1017 189.39,278.4745 189.1514,278.8727 188.9529,279.2923 188.7965,279.7293 188.6837,280.1796 188.6156,280.6387 188.5929,281.1024 188.6156,281.566 188.6837,282.0251 188.7965,282.4754 188.9529,282.9124 189.1514,283.3321 189.39,283.7302 189.6665,284.103 189.9782,284.447 190.3222,284.7587 190.695,285.0352 191.0931,285.2738 191.5128,285.4723 191.9498,285.6287 192.4001,285.7414 192.8592,285.8096 193.3228,285.8323"/>
    <polygon points="217.8169,274.2745 218.3858,273.3253 218.8589,272.325 219.2317,271.283 219.5006,270.2096 219.663,269.115 219.7173,268.0097 219.663,266.9044 219.5006,265.8098 219.2317,264.7364 218.8589,263.6944 218.3858,262.6941 217.8169,261.7449 217.1576,260.8561 216.4145,260.0361 215.5946,259.293 214.7057,258.6338 213.7566,258.0649 212.7562,257.5917 211.7143,257.2189 210.6408,256.9501 209.5462,256.7877 208.4409,256.7334 207.3357,256.7877 206.241,256.9501 205.1676,257.2189 204.1257,257.5917 203.1253,258.0649 202.1762,258.6338 201.2873,259.293 200.4674,260.0361 199.7242,260.8561 199.065,261.7449 198.4961,262.6941 198.023,263.6944 197.6502,264.7364 197.3813,265.8098 197.2189,266.9044 197.1646,268.0097 197.2189,269.115 197.3813,270.2096 197.6502,271.283 198.023,272.325 198.4961,273.3253 199.065,274.2745 199.7242,275.1633 200.4674,275.9832 201.2873,276.7264 202.1762,277.3856 203.1253,277.9545 204.1257,278.4276 205.1676,278.8004 206.241,279.0693 207.3357,279.2317 208.4409,279.286 209.5462,279.2317 210.6408,279.0693 211.7143,278.8004 212.7562,278.4276 213.7566,277.9545 214.7057,277.3856 215.5946,276.7264 216.4145,275.9832 217.1576,275.1633"/>
    <polygon points="217.1856,305.6825 216.1632,303.5206 215.3575,301.269 214.7764,298.9492 214.4255,296.5836 214.3082,294.195 214.4255,291.8065 214.7764,289.4409 215.3575,287.1211 216.1632,284.8694 217.1856,282.7076 218.4151,280.6564 219.8397,278.7355 221.4457,276.9636 223.2177,275.3576 225.1385,273.933 227.1897,272.7035 229.3516,271.681 231.6032,270.8754 233.923,270.2943 236.2886,269.9434 238.6772,269.8261 241.0657,269.9434 243.4313,270.2943 245.7511,270.8754 248.0028,271.681 250.1646,272.7035 252.2158,273.933 254.1367,275.3576 255.9086,276.9636 257.5146,278.7355 258.9392,280.6564 260.1687,282.7076 261.1912,284.8694 261.9968,287.1211 262.5779,289.4409 262.9288,291.8065 263.0461,294.195 262.9288,296.5836 262.5779,298.9492 261.9968,301.269 261.1912,303.5206 260.1687,305.6825 258.9392,307.7337 257.5146,309.6545 255.9086,311.4265 254.1367,313.0325 252.2158,314.4571 250.1646,315.6865 248.0028,316.709 245.7511,317.5147 243.4313,318.0958 241.0657,318.4467 238.6772,318.564 236.2886,318.4467 233.923,318.0958 231.6032,317.5147 229.3516,316.709 227.1897,315.6865 225.1385,314.4571 223.2177,313.0325 221.4457,311.4265 219.8397,309.6545 218.4151,307.7337"/>
    <polygon points="221.7422,327.2083 222.4014,326.3194 223.1446,325.4995 223.9645,324.7563 224.8533,324.0971 225.8025,323.5282 226.8029,323.0551 227.8448,322.6823 228.9182,322.4134 230.0128,322.251 231.1181,322.1967 232.2234,322.251 233.318,322.4134 234.3914,322.6823 235.4334,323.0551 236.4337,323.5282 237.3829,324.0971 238.2717,324.7563 239.0917,325.4995 239.8348,326.3194 240.494,327.2083 241.0629,328.1574 241.5361,329.1578 241.9089,330.1997 242.1777,331.2731 242.3401,332.3678 242.3944,333.473 242.3401,334.5783 242.1777,335.6729 241.9089,336.7464 241.5361,337.7883 241.0629,338.7886 240.494,339.7378 239.8348,340.6266 239.0917,341.4466 238.2717,342.1897 237.3829,342.8489 236.4337,343.4178 235.4334,343.891 234.3914,344.2638 233.318,344.5327 232.2234,344.695 231.1181,344.7493 230.0128,344.695 228.9182,344.5327 227.8448,344.2638 226.8029,343.891 225.8025,343.4178 224.8533,342.8489 223.9645,342.1897 223.1446,341.4466 222.4014,340.6266 221.7422,339.7378 221.1733,338.7886 220.7002,337.7883 220.3274,336.7464 220.0585,335.6729 219.8961,334.5783 219.8418,333.473 219.8961,332.3678 220.0585,331.2731 220.3274,330.1997 220.7002,329.1578 221.1733,328.1574"/>
    <polygon points="220.73,346.5657 220.7072,347.0293 220.6391,347.4885 220.5263,347.9387 220.3699,348.3758 220.1715,348.7954 219.9328,349.1935 219.6563,349.5664 219.3446,349.9103 219.0007,350.222 218.6278,350.4985 218.2297,350.7372 217.8101,350.9356 217.373,351.092 216.9228,351.2048 216.4636,351.2729 216.0,351.2957 215.5364,351.2729 215.0772,351.2048 214.627,351.092 214.1899,350.9356 213.7703,350.7372 213.3722,350.4985 212.9993,350.222 212.6554,349.9103 212.3437,349.5664 212.0672,349.1935 211.8285,348.7954 211.6301,348.3758 211.4737,347.9387 211.3609,347.4885 211.2928,347.0293 211.27,346.5657 211.2928,346.1021 211.3609,345.6429 211.4737,345.1927 211.6301,344.7556 211.8285,344.336 212.0672,343.9379 212.3437,343.565 212.6554,343.2211 212.9993,342.9094 213.3722,342.6329 213.7703,342.3942 214.1899,342.1958 214.627,342.0394 215.0772,341.9266 215.5364,341.8585 216.0,341.8357 216.4636,341.8585 216.9228,341.9266 217.373,342.0394 217.8101,342.1958 218.2297,342.3942 218.6278,342.6329 219.0007,342.9094 219.3446,343.2211 219.6563,343.565 219.9328,343.9379 220.1715,344.336 220.3699,344.7556 220.5263,345.1927 220.6391,345.6429 220.7072,346.1021"/>
    <polygon points="223.6823,350.1114 223.994,349.7674 224.3379,349.4557 224.7108,349.1792 225.1089,348.9406 225.5285,348.7421 225.9655,348.5857 226.4158,348.4729 226.875,348.4048 227.3386,348.3821 227.8022,348.4048 228.2614,348.4729 228.7116,348.5857 229.1487,348.7421 229.5683,348.9406 229.9664,349.1792 230.3392,349.4557 230.6832,349.7674 230.9949,350.1114 231.2714,350.4842 231.51,350.8823 231.7085,351.302 231.8649,351.739 231.9777,352.1893 232.0458,352.6484 232.0686,353.112 232.0458,353.5757 231.9777,354.0348 231.8649,354.4851 231.7085,354.9221 231.51,355.3417 231.2714,355.7399 230.9949,356.1127 230.6832,356.4566 230.3392,356.7684 229.9664,357.0449 229.5683,357.2835 229.1487,357.482 228.7116,357.6383 228.2614,357.7511 227.8022,357.8192 227.3386,357.842 226.875,357.8192 226.4158,357.7511 225.9655,357.6383 225.5285,357.482 225.1089,357.2835 224.7108,357.0449 224.3379,356.7684 223.994,356.4566 223.6823,356.1127 223.4058,355.7399 223.1671,355.3417 222.9687,354.9221 222.8123,354.4851 222.6995,354.0348 222.6314,353.5757 222.6086,353.112 222.6314,352.6484 222.6995,352.1893 222.8123,351.739 222.9687,351.302 223.1671,350.8823 223.4058,350.4842"/>
    <polygon points="233.9472,359.6584 233.97,359.1947 234.0381,358.7356 234.1509,358.2853 234.3072,357.8483 234.5057,357.4287 234.7443,357.0305 235.0208,356.6577 235.3326,356.3138 235.6765,356.002 236.0493,355.7255 236.4475,355.4869 236.8671,355.2884 237.3041,355.1321 237.7544,355.0193 238.2135,354.9512 238.6772,354.9284 239.1408,354.9512 239.5999,355.0193 240.0502,355.1321 240.4872,355.2884 240.9069,355.4869 241.305,355.7255 241.6778,356.002 242.0218,356.3138 242.3335,356.6577 242.61,357.0305 242.8486,357.4287 243.0471,357.8483 243.2035,358.2853 243.3163,358.7356 243.3844,359.1947 243.4071,359.6584 243.3844,360.122 243.3163,360.5811 243.2035,361.0314 243.0471,361.4684 242.8486,361.8881 242.61,362.2862 242.3335,362.659 242.0218,363.003 241.6778,363.3147 241.305,363.5912 240.9069,363.8298 240.4872,364.0283 240.0502,364.1847 239.5999,364.2975 239.1408,364.3656 238.6772,364.3883 238.2135,364.3656 237.7544,364.2975 237.3041,364.1847 236.8671,364.0283 236.4475,363.8298 236.0493,363.5912 235.6765,363.3147 235.3326,363.003 235.0208,362.659 234.7443,362.2862 234.5057,361.8881 234.3072,361.4684 234.1509,361.0314 234.0381,360.5811 233.97,360.122"/>
    <polygon points="270.8828,344.3893 270.4632,344.1908 270.0651,343.9522 269.6923,343.6757 269.3483,343.364 269.0366,343.02 268.7601,342.6472 268.5214,342.2491 268.323,341.8294 268.1666,341.3924 268.0538,340.9421 267.9857,340.483 267.9629,340.0194 267.9857,339.5557 268.0538,339.0966 268.1666,338.6463 268.323,338.2093 268.5214,337.7897 268.7601,337.3915 269.0366,337.0187 269.3483,336.6748 269.6923,336.363 270.0651,336.0865 270.4632,335.8479 270.8828,335.6494 271.3199,335.4931 271.7701,335.3803 272.2293,335.3122 272.6929,335.2894 273.1565,335.3122 273.6157,335.3803 274.066,335.4931 274.503,335.6494 274.9226,335.8479 275.3207,336.0865 275.6936,336.363 276.0375,336.6748 276.3492,337.0187 276.6257,337.3915 276.8644,337.7897 277.0628,338.2093 277.2192,338.6463 277.332,339.0966 277.4001,339.5557 277.4229,340.0194 277.4001,340.483 277.332,340.9421 277.2192,341.3924 277.0628,341.8294 276.8644,342.2491 276.6257,342.6472 276.3492,343.02 276.0375,343.364 275.6936,343.6757 275.3207,343.9522 274.9226,344.1908 274.503,344.3893 274.066,344.5457 273.6157,344.6585 273.1565,344.7266 272.6929,344.7493 272.2293,344.7266 271.7701,344.6585 271.3199,344.5457"/>
    <polygon points="277.332,326.0039 277.4001,326.4631 277.4229,326.9267 277.4001,327.3903 277.332,327.8495 277.2192,328.2997 277.0628,328.7368 276.8644,329.1564 276.6257,329.5545 276.3492,329.9274 276.0375,330.2713 275.6936,330.583 275.3207,330.8595 274.9226,331.0982 274.503,331.2966 274.066,331.453 273.6157,331.5658 273.1565,331.6339 272.6929,331.6567 272.2293,331.6339 271.7701,331.5658 271.3199,331.453 270.8828,331.2966 270.4632,331.0982 270.0651,330.8595 269.6923,330.583 269.3483,330.2713 269.0366,329.9274 268.7601,329.5545 268.5214,329.1564 268.323,328.7368 268.1666,328.2997 268.0538,327.8495 267.9857,327.3903 267.9629,326.9267 267.9857,326.4631 268.0538,326.0039 268.1666,325.5537 268.323,325.1166 268.5214,324.697 268.7601,324.2989 269.0366,323.926 269.3483,323.5821 269.6923,323.2704 270.0651,322.9939 270.4632,322.7552 270.8828,322.5568 271.3199,322.4004 271.7701,322.2876 272.2293,322.2195 272.6929,322.1967 273.1565,322.2195 273.6157,322.2876 274.066,322.4004 274.503,322.5568 274.9226,322.7552 275.3207,322.9939 275.6936,323.2704 276.0375,323.5821 276.3492,323.926 276.6257,324.2989 276.8644,324.697 277.0628,325.1166 277.2192,325.5537"/>
    <polygon points="265.6817,310.561 265.4128,309.4876 265.2504,308.393 265.1961,307.2877 265.2504,306.1824 265.4128,305.0878 265.6817,304.0144 266.0545,302.9724 266.5276,301.9721 267.0965,301.0229 267.7557,300.1341 268.4989,299.3141 269.3188,298.571 270.2077,297.9118 271.1568,297.3429 272.1572,296.8697 273.1991,296.4969 274.2725,296.2281 275.3672,296.0657 276.4724,296.0114 277.5777,296.0657 278.6723,296.2281 279.7458,296.4969 280.7877,296.8697 281.7881,297.3429 282.7372,297.9118 283.6261,298.571 284.446,299.3141 285.1891,300.1341 285.8483,301.0229 286.4173,301.9721 286.8904,302.9724 287.2632,304.0144 287.5321,305.0878 287.6944,306.1824 287.7487,307.2877 287.6944,308.393 287.5321,309.4876 287.2632,310.561 286.8904,311.603 286.4173,312.6033 285.8483,313.5525 285.1891,314.4413 284.446,315.2612 283.6261,316.0044 282.7372,316.6636 281.7881,317.2325 280.7877,317.7056 279.7458,318.0784 278.6723,318.3473 277.5777,318.5097 276.4724,318.564 275.3672,318.5097 274.2725,318.3473 273.1991,318.0784 272.1572,317.7056 271.1568,317.2325 270.2077,316.6636 269.3188,316.0044 268.4989,315.2612 267.7557,314.4413 267.0965,313.5525 266.5276,312.6033 266.0545,311.603"/>
    <polygon points="300.0773,313.3704 300.0092,312.9113 299.8964,312.461 299.74,312.0239 299.5415,311.6043 299.3029,311.2062 299.0264,310.8334 298.7147,310.4894 298.3707,310.1777 297.9979,309.9012 297.5998,309.6626 297.1802,309.4641 296.7431,309.3077 296.2929,309.1949 295.8337,309.1268 295.3701,309.1041 294.9065,309.1268 294.4473,309.1949 293.997,309.3077 293.56,309.4641 293.1404,309.6626 292.7422,309.9012 292.3694,310.1777 292.0255,310.4894 291.7138,310.8334 291.4373,311.2062 291.1986,311.6043 291.0002,312.0239 290.8438,312.461 290.731,312.9113 290.6629,313.3704 290.6401,313.834 290.6629,314.2976 290.731,314.7568 290.8438,315.2071 291.0002,315.6441 291.1986,316.0637 291.4373,316.4619 291.7138,316.8347 292.0255,317.1786 292.3694,317.4903 292.7422,317.7669 293.1404,318.0055 293.56,318.204 293.997,318.3603 294.4473,318.4731 294.9065,318.5412 295.3701,318.564 295.8337,318.5412 296.2929,318.4731 296.7431,318.3603 297.1802,318.204 297.5998,318.0055 297.9979,317.7669 298.3707,317.4903 298.7147,317.1786 299.0264,316.8347 299.3029,316.4619 299.5415,316.0637 299.74,315.6441 299.8964,315.2071 300.0092,314.7568 300.0773,314.2976 300.1001,313.834"/>
    <polygon points="293.997,296.2151 293.56,296.3714 293.1404,296.5699 292.7422,296.8085 292.3694,297.085 292.0255,297.3968 291.7138,297.7407 291.4373,298.1135 291.1986,298.5117 291.0002,298.9313 290.8438,299.3683 290.731,299.8186 290.6629,300.2777 290.6401,300.7414 290.6629,301.205 290.731,301.6641 290.8438,302.1144 291.0002,302.5514 291.1986,302.9711 291.4373,303.3692 291.7138,303.742 292.0255,304.086 292.3694,304.3977 292.7422,304.6742 293.1404,304.9128 293.56,305.1113 293.997,305.2677 294.4473,305.3805 294.9065,305.4486 295.3701,305.4713 295.8337,305.4486 296.2929,305.3805 296.7431,305.2677 297.1802,305.1113 297.5998,304.9128 297.9979,304.6742 298.3707,304.3977 298.7147,304.086 299.0264,303.742 299.3029,303.3692 299.5415,302.9711 299.74,302.5514 299.8964,302.1144 300.0092,301.6641 300.0773,301.205 300.1001,300.7414 300.0773,300.2777 300.0092,299.8186 299.8964,299.3683 299.74,298.9313 299.5415,298.5117 299.3029,298.1135 299.0264,297.7407 298.7147,297.3968 298.3707,297.085 297.9979,296.8085 297.5998,296.5699 297.1802,296.3714 296.7431,296.2151 296.2929,296.1023 295.8337,296.0342 295.3701,296.0114 294.9065,296.0342 294.4473,296.1023"/>
    <polygon points="269.3483,284.3041 269.6923,283.9924 270.0651,283.7159 270.4632,283.4772 270.8828,283.2788 271.3199,283.1224 271.7701,283.0096 272.2293,282.9415 272.6929,282.9187 273.1565,282.9415 273.6157,283.0096 274.066,283.1224 274.503,283.2788 274.9226,283.4772 275.3207,283.7159 275.6936,283.9924 276.0375,284.3041 276.3492,284.648 276.6257,285.0209 276.8644,285.419 277.0628,285.8386 277.2192,286.2757 277.332,286.7259 277.4001,287.1851 277.4229,287.6487 277.4001,288.1123 277.332,288.5715 277.2192,289.0217 277.0628,289.4588 276.8644,289.8784 276.6257,290.2765 276.3492,290.6494 276.0375,290.9933 275.6936,291.305 275.3207,291.5815 274.9226,291.8202 274.503,292.0186 274.066,292.175 273.6157,292.2878 273.1565,292.3559 272.6929,292.3787 272.2293,292.3559 271.7701,292.2878 271.3199,292.175 270.8828,292.0186 270.4632,291.8202 270.0651,291.5815 269.6923,291.305 269.3483,290.9933 269.0366,290.6494 268.7601,290.2765 268.5214,289.8784 268.323,289.4588 268.1666,289.0217 268.0538,288.5715 267.9857,288.1123 267.9629,287.6487 267.9857,287.1851 268.0538,286.7259 268.1666,286.2757 268.323,285.8386 268.5214,285.419 268.7601,285.0209 269.0366,284.648"/>
    <polygon points="268.5214,272.3263 268.323,272.7459 268.1666,273.183 268.0538,273.6333 267.9857,274.0924 267.9629,274.556 267.9857,275.0196 268.0538,275.4788 268.1666,275.9291 268.323,276.3661 268.5214,276.7857 268.7601,277.1839 269.0366,277.5567 269.3483,277.9006 269.6923,278.2123 270.0651,278.4889 270.4632,278.7275 270.8828,278.926 271.3199,279.0823 271.7701,279.1951 272.2293,279.2632 272.6929,279.286 273.1565,279.2632 273.6157,279.1951 274.066,279.0823 274.503,278.926 274.9226,278.7275 275.3207,278.4889 275.6936,278.2123 276.0375,277.9006 276.3492,277.5567 276.6257,277.1839 276.8644,276.7857 277.0628,276.3661 277.2192,275.9291 277.332,275.4788 277.4001,275.0196 277.4229,274.556 277.4001,274.0924 277.332,273.6333 277.2192,273.183 277.0628,272.7459 276.8644,272.3263 276.6257,271.9282 276.3492,271.5554 276.0375,271.2114 275.6936,270.8997 275.3207,270.6232 274.9226,270.3846 274.503,270.1861 274.066,270.0297 273.6157,269.9169 273.1565,269.8488 272.6929,269.8261 272.2293,269.8488 271.7701,269.9169 271.3199,270.0297 270.8828,270.1861 270.4632,270.3846 270.0651,270.6232 269.6923,270.8997 269.3483,271.2114 269.0366,271.5554 268.7601,271.9282"/>
    <polygon points="252.2158,262.0864 250.1646,263.3159 248.0028,264.3384 245.7511,265.144 243.4313,265.7251 241.0657,266.076 238.6772,266.1933 236.2886,266.076 233.923,265.7251 231.6032,265.144 229.3516,264.3384 227.1897,263.3159 225.1385,262.0864 223.2177,260.6618 221.4457,259.0558 219.8397,257.2839 218.4151,255.363 217.1856,253.3118 216.1632,251.15 215.3575,248.8983 214.7764,246.5785 214.4255,244.2129 214.3082,241.8244 214.4255,239.4358 214.7764,237.0702 215.3575,234.7504 216.1632,232.4988 217.1856,230.3369 218.4151,228.2857 219.8397,226.3648 221.4457,224.5929 223.2177,222.9869 225.1385,221.5623 227.1897,220.3328 229.3516,219.3104 231.6032,218.5047 233.923,217.9236 236.2886,217.5727 238.6772,217.4554 241.0657,217.5727 243.4313,217.9236 245.7511,218.5047 248.0028,219.3104 250.1646,220.3328 252.2158,221.5623 254.1367,222.9869 255.9086,224.5929 257.5146,226.3648 258.9392,228.2857 260.1687,230.3369 261.1912,232.4988 261.9968,234.7504 262.5779,237.0702 262.9288,239.4358 263.0461,241.8244 262.9288,244.2129 262.5779,246.5785 261.9968,248.8983 261.1912,251.15 260.1687,253.3118 258.9392,255.363 257.5146,257.2839 255.9086,259.0558 254.1367,260.6618"/>
    <polygon points="270.2077,264.2929 269.3188,263.6337 268.4989,262.8906 267.7557,262.0706 267.0965,261.1818 266.5276,260.2326 266.0545,259.2323 265.6817,258.1904 265.4128,257.1169 265.2504,256.0223 265.1961,254.917 265.2504,253.8118 265.4128,252.7171 265.6817,251.6437 266.0545,250.6018 266.5276,249.6014 267.0965,248.6522 267.7557,247.7634 268.4989,246.9435 269.3188,246.2003 270.2077,245.5411 271.1568,244.9722 272.1572,244.4991 273.1991,244.1263 274.2725,243.8574 275.3672,243.695 276.4724,243.6407 277.5777,243.695 278.6723,243.8574 279.7458,244.1263 280.7877,244.4991 281.7881,244.9722 282.7372,245.5411 283.6261,246.2003 284.446,246.9435 285.1891,247.7634 285.8483,248.6522 286.4173,249.6014 286.8904,250.6018 287.2632,251.6437 287.5321,252.7171 287.6944,253.8118 287.7487,254.917 287.6944,256.0223 287.5321,257.1169 287.2632,258.1904 286.8904,259.2323 286.4173,260.2326 285.8483,261.1818 285.1891,262.0706 284.446,262.8906 283.6261,263.6337 282.7372,264.2929 281.7881,264.8618 280.7877,265.335 279.7458,265.7078 278.6723,265.9767 277.5777,266.139 276.4724,266.1933 275.3672,266.139 274.2725,265.9767 273.1991,265.7078 272.1572,265.335 271.1568,264.8618"/>
    <polygon points="310.365,271.0104 310.6415,270.6375 310.8801,270.2394 311.0786,269.8198 311.235,269.3827 311.3477,268.9325 311.4159,268.4733 311.4386,268.0097 311.4159,267.5461 311.3477,267.0869 311.235,266.6367 311.0786,266.1996 310.8801,265.78 310.6415,265.3819 310.365,265.009 310.0533,264.6651 309.7093,264.3534 309.3365,264.0769 308.9384,263.8382 308.5187,263.6398 308.0817,263.4834 307.6314,263.3706 307.1723,263.3025 306.7087,263.2797 306.245,263.3025 305.7859,263.3706 305.3356,263.4834 304.8986,263.6398 304.479,263.8382 304.0808,264.0769 303.708,264.3534 303.3641,264.6651 303.0523,265.009 302.7758,265.3819 302.5372,265.78 302.3387,266.1996 302.1824,266.6367 302.0696,267.0869 302.0015,267.5461 301.9787,268.0097 302.0015,268.4733 302.0696,268.9325 302.1824,269.3827 302.3387,269.8198 302.5372,270.2394 302.7758,270.6375 303.0523,271.0104 303.3641,271.3543 303.708,271.666 304.0808,271.9425 304.479,272.1812 304.8986,272.3796 305.3356,272.536 305.7859,272.6488 306.245,272.7169 306.7087,272.7397 307.1723,272.7169 307.6314,272.6488 308.0817,272.536 308.5187,272.3796 308.9384,272.1812 309.3365,271.9425 309.7093,271.666 310.0533,271.3543"/>
    <polygon points="300.0092,262.3861 300.0773,261.927 300.1001,261.4634 300.0773,260.9997 300.0092,260.5406 299.8964,260.0903 299.74,259.6533 299.5415,259.2337 299.3029,258.8355 299.0264,258.4627 298.7147,258.1188 298.3707,257.807 297.9979,257.5305 297.5998,257.2919 297.1802,257.0934 296.7431,256.9371 296.2929,256.8243 295.8337,256.7562 295.3701,256.7334 294.9065,256.7562 294.4473,256.8243 293.997,256.9371 293.56,257.0934 293.1404,257.2919 292.7422,257.5305 292.3694,257.807 292.0255,258.1188 291.7138,258.4627 291.4373,258.8355 291.1986,259.2337 291.0002,259.6533 290.8438,260.0903 290.731,260.5406 290.6629,260.9997 290.6401,261.4634 290.6629,261.927 290.731,262.3861 290.8438,262.8364 291.0002,263.2734 291.1986,263.6931 291.4373,264.0912 291.7138,264.464 292.0255,264.808 292.3694,265.1197 292.7422,265.3962 293.1404,265.6348 293.56,265.8333 293.997,265.9897 294.4473,266.1024 294.9065,266.1706 295.3701,266.1933 295.8337,266.1706 296.2929,266.1024 296.7431,265.9897 297.1802,265.8333 297.5998,265.6348 297.9979,265.3962 298.3707,265.1197 298.7147,264.808 299.0264,264.464 299.3029,264.0912 299.5415,263.6931 299.74,263.2734 299.8964,262.8364"/>
    <polygon points="285.8483,234.9965 286.4173,234.0473 286.8904,233.0469 287.2632,232.005 287.5321,230.9316 287.6944,229.837 287.7487,228.7317 287.6944,227.6264 287.5321,226.5318 287.2632,225.4584 286.8904,224.4164 286.4173,223.4161 285.8483,222.4669 285.1891,221.5781 284.446,220.7581 283.6261,220.015 282.7372,219.3558 281.7881,218.7869 280.7877,218.3137 279.7458,217.9409 278.6723,217.6721 277.5777,217.5097 276.4724,217.4554 275.3672,217.5097 274.2725,217.6721 273.1991,217.9409 272.1572,218.3137 271.1568,218.7869 270.2077,219.3558 269.3188,220.015 268.4989,220.7581 267.7557,221.5781 267.0965,222.4669 266.5276,223.4161 266.0545,224.4164 265.6817,225.4584 265.4128,226.5318 265.2504,227.6264 265.1961,228.7317 265.2504,229.837 265.4128,230.9316 265.6817,232.005 266.0545,233.0469 266.5276,234.0473 267.0965,234.9965 267.7557,235.8853 268.4989,236.7052 269.3188,237.4484 270.2077,238.1076 271.1568,238.6765 272.1572,239.1496 273.1991,239.5224 274.2725,239.7913 275.3672,239.9537 276.4724,240.008 277.5777,239.9537 278.6723,239.7913 279.7458,239.5224 280.7877,239.1496 281.7881,238.6765 282.7372,238.1076 283.6261,237.4484 284.446,236.7052 285.1891,235.8853"/>
    <polygon points="291.0002,223.9954 291.1986,224.4151 291.4373,224.8132 291.7138,225.186 292.0255,225.53 292.3694,225.8417 292.7422,226.1182 293.1404,226.3568 293.56,226.5553 293.997,226.7117 294.4473,226.8244 294.9065,226.8926 295.3701,226.9153 295.8337,226.8926 296.2929,226.8244 296.7431,226.7117 297.1802,226.5553 297.5998,226.3568 297.9979,226.1182 298.3707,225.8417 298.7147,225.53 299.0264,225.186 299.3029,224.8132 299.5415,224.4151 299.74,223.9954 299.8964,223.5584 300.0092,223.1081 300.0773,222.649 300.1001,222.1854 300.0773,221.7217 300.0092,221.2626 299.8964,220.8123 299.74,220.3753 299.5415,219.9557 299.3029,219.5575 299.0264,219.1847 298.7147,218.8408 298.3707,218.529 297.9979,218.2525 297.5998,218.0139 297.1802,217.8154 296.7431,217.6591 296.2929,217.5463 295.8337,217.4782 295.3701,217.4554 294.9065,217.4782 294.4473,217.5463 293.997,217.6591 293.56,217.8154 293.1404,218.0139 292.7422,218.2525 292.3694,218.529 292.0255,218.8408 291.7138,219.1847 291.4373,219.5575 291.1986,219.9557 291.0002,220.3753 290.8438,220.8123 290.731,221.2626 290.6629,221.7217 290.6401,222.1854 290.6629,222.649 290.731,223.1081 290.8438,223.5584"/>
    <polygon points="277.332,208.1699 277.2192,207.7197 277.0628,207.2826 276.8644,206.863 276.6257,206.4649 276.3492,206.092 276.0375,205.7481 275.6936,205.4364 275.3207,205.1599 274.9226,204.9212 274.503,204.7228 274.066,204.5664 273.6157,204.4536 273.1565,204.3855 272.6929,204.3627 272.2293,204.3855 271.7701,204.4536 271.3199,204.5664 270.8828,204.7228 270.4632,204.9212 270.0651,205.1599 269.6923,205.4364 269.3483,205.7481 269.0366,206.092 268.7601,206.4649 268.5214,206.863 268.323,207.2826 268.1666,207.7197 268.0538,208.1699 267.9857,208.6291 267.9629,209.0927 267.9857,209.5563 268.0538,210.0155 268.1666,210.4657 268.323,210.9028 268.5214,211.3224 268.7601,211.7205 269.0366,212.0934 269.3483,212.4373 269.6923,212.749 270.0651,213.0255 270.4632,213.2642 270.8828,213.4626 271.3199,213.619 271.7701,213.7318 272.2293,213.7999 272.6929,213.8227 273.1565,213.7999 273.6157,213.7318 274.066,213.619 274.503,213.4626 274.9226,213.2642 275.3207,213.0255 275.6936,212.749 276.0375,212.4373 276.3492,212.0934 276.6257,211.7205 276.8644,211.3224 277.0628,210.9028 277.2192,210.4657 277.332,210.0155 277.4001,209.5563 277.4229,209.0927 277.4001,208.6291"/>
    <polygon points="226.8029,212.9643 227.8448,213.3371 228.9182,213.606 230.0128,213.7684 231.1181,213.8227 232.2234,213.7684 233.318,213.606 234.3914,213.3371 235.4334,212.9643 236.4337,212.4912 237.3829,211.9223 238.2717,211.2631 239.0917,210.5199 239.8348,209.7 240.494,208.8111 241.0629,207.862 241.5361,206.8616 241.9089,205.8197 242.1777,204.7463 242.3401,203.6516 242.3944,202.5464 242.3401,201.4411 242.1777,200.3465 241.9089,199.273 241.5361,198.2311 241.0629,197.2307 240.494,196.2816 239.8348,195.3927 239.0917,194.5728 238.2717,193.8297 237.3829,193.1705 236.4337,192.6015 235.4334,192.1284 234.3914,191.7556 233.318,191.4867 232.2234,191.3243 231.1181,191.2701 230.0128,191.3243 228.9182,191.4867 227.8448,191.7556 226.8029,192.1284 225.8025,192.6015 224.8533,193.1705 223.9645,193.8297 223.1446,194.5728 222.4014,195.3927 221.7422,196.2816 221.1733,197.2307 220.7002,198.2311 220.3274,199.273 220.0585,200.3465 219.8961,201.4411 219.8418,202.5464 219.8961,203.6516 220.0585,204.7463 220.3274,205.8197 220.7002,206.8616 221.1733,207.862 221.7422,208.8111 222.4014,209.7 223.1446,210.5199 223.9645,211.2631 224.8533,211.9223 225.8025,212.4912"/>
    <polygon points="203.1253,225.5838 204.1257,226.057 205.1676,226.4298 206.241,226.6987 207.3357,226.861 208.4409,226.9153 209.5462,226.861 210.6408,226.6987 211.7143,226.4298 212.7562,226.057 213.7566,225.5838 214.7057,225.0149 215.5946,224.3557 216.4145,223.6126 217.1576,222.7926 217.8169,221.9038 218.3858,220.9546 218.8589,219.9543 219.2317,218.9124 219.5006,217.8389 219.663,216.7443 219.7173,215.639 219.663,214.5338 219.5006,213.4391 219.2317,212.3657 218.8589,211.3238 218.3858,210.3234 217.8169,209.3742 217.1576,208.4854 216.4145,207.6655 215.5946,206.9223 214.7057,206.2631 213.7566,205.6942 212.7562,205.2211 211.7143,204.8483 210.6408,204.5794 209.5462,204.417 208.4409,204.3627 207.3357,204.417 206.241,204.5794 205.1676,204.8483 204.1257,205.2211 203.1253,205.6942 202.1762,206.2631 201.2873,206.9223 200.4674,207.6655 199.7242,208.4854 199.065,209.3742 198.4961,210.3234 198.023,211.3238 197.6502,212.3657 197.3813,213.4391 197.2189,214.5338 197.1646,215.639 197.2189,216.7443 197.3813,217.8389 197.6502,218.9124 198.023,219.9543 198.4961,220.9546 199.065,221.9038 199.7242,222.7926 200.4674,223.6126 201.2873,224.3557 202.1762,225.0149"/>
    <polygon points="231.9777,183.8301 231.8649,184.2804 231.7085,184.7174 231.51,185.137 231.2714,185.5352 230.9949,185.908 230.6832,186.252 230.3392,186.5637 229.9664,186.8402 229.5683,187.0788 229.1487,187.2773 228.7116,187.4337 228.2614,187.5464 227.8022,187.6146 227.3386,187.6373 226.875,187.6146 226.4158,187.5464 225.9655,187.4337 225.5285,187.2773 225.1089,187.0788 224.7108,186.8402 224.3379,186.5637 223.994,186.252 223.6823,185.908 223.4058,185.5352 223.1671,185.137 222.9687,184.7174 222.8123,184.2804 222.6995,183.8301 222.6314,183.371 222.6086,182.9074 222.6314,182.4437 222.6995,181.9846 222.8123,181.5343 222.9687,181.0973 223.1671,180.6777 223.4058,180.2795 223.6823,179.9067 223.994,179.5628 224.3379,179.251 224.7108,178.9745 225.1089,178.7359 225.5285,178.5374 225.9655,178.3811 226.4158,178.2683 226.875,178.2002 227.3386,178.1774 227.8022,178.2002 228.2614,178.2683 228.7116,178.3811 229.1487,178.5374 229.5683,178.7359 229.9664,178.9745 230.3392,179.251 230.6832,179.5628 230.9949,179.9067 231.2714,180.2795 231.51,180.6777 231.7085,181.0973 231.8649,181.5343 231.9777,181.9846 232.0458,182.4437 232.0686,182.9074 232.0458,183.371"/>
    <polygon points="214.7057,180.0778 213.7566,179.5089 212.7562,179.0357 211.7143,178.6629 210.6408,178.3941 209.5462,178.2317 208.4409,178.1774 207.3357,178.2317 206.241,178.3941 205.1676,178.6629 204.1257,179.0357 203.1253,179.5089 202.1762,180.0778 201.2873,180.737 200.4674,181.4801 199.7242,182.3001 199.065,183.1889 198.4961,184.1381 198.023,185.1384 197.6502,186.1804 197.3813,187.2538 197.2189,188.3484 197.1646,189.4537 197.2189,190.559 197.3813,191.6536 197.6502,192.727 198.023,193.7689 198.4961,194.7693 199.065,195.7185 199.7242,196.6073 200.4674,197.4272 201.2873,198.1704 202.1762,198.8296 203.1253,199.3985 204.1257,199.8716 205.1676,200.2444 206.241,200.5133 207.3357,200.6757 208.4409,200.73 209.5462,200.6757 210.6408,200.5133 211.7143,200.2444 212.7562,199.8716 213.7566,199.3985 214.7057,198.8296 215.5946,198.1704 216.4145,197.4272 217.1576,196.6073 217.8169,195.7185 218.3858,194.7693 218.8589,193.7689 219.2317,192.727 219.5006,191.6536 219.663,190.559 219.7173,189.4537 219.663,188.3484 219.5006,187.2538 219.2317,186.1804 218.8589,185.1384 218.3858,184.1381 217.8169,183.1889 217.1576,182.3001 216.4145,181.4801 215.5946,180.737"/>
    <polygon points="205.5842,165.1756 205.125,165.1075 204.6614,165.0847 204.1978,165.1075 203.7386,165.1756 203.2884,165.2884 202.8513,165.4448 202.4317,165.6432 202.0336,165.8819 201.6608,166.1584 201.3168,166.4701 201.0051,166.814 200.7286,167.1869 200.49,167.585 200.2915,168.0046 200.1351,168.4416 200.0223,168.8919 199.9542,169.3511 199.9314,169.8147 199.9542,170.2783 200.0223,170.7375 200.1351,171.1877 200.2915,171.6248 200.49,172.0444 200.7286,172.4425 201.0051,172.8154 201.3168,173.1593 201.6608,173.471 202.0336,173.7475 202.4317,173.9862 202.8513,174.1846 203.2884,174.341 203.7386,174.4538 204.1978,174.5219 204.6614,174.5447 205.125,174.5219 205.5842,174.4538 206.0345,174.341 206.4715,174.1846 206.8911,173.9862 207.2892,173.7475 207.6621,173.471 208.006,173.1593 208.3177,172.8154 208.5942,172.4425 208.8329,172.0444 209.0313,171.6248 209.1877,171.1877 209.3005,170.7375 209.3686,170.2783 209.3914,169.8147 209.3686,169.3511 209.3005,168.8919 209.1877,168.4416 209.0313,168.0046 208.8329,167.585 208.5942,167.1869 208.3177,166.814 208.006,166.4701 207.6621,166.1584 207.2892,165.8819 206.8911,165.6432 206.4715,165.4448 206.0345,165.2884"/>
  </g>
</svg>
