<?xml version="1.0" encoding="utf-8" ?>
<svg xmlns="http://www.w3.org/2000/svg" xmlns:cc="http://creativecommons.org/ns" xmlns:dc="http://purl.org/dc/elements/1.1/" xmlns:ev="http://www.w3.org/2001/xml-events" xmlns:inkscape="http://www.inkscape.org/namespaces/inkscape" xmlns:rdf="http://www.w3.org/1999/02/22-rdf-syntax-ns" xmlns:sodipodi="http://sodipodi.sourceforge.net/DTD/sodipodi-0.dtd" xmlns:xlink="http://www.w3.org/1999/xlink" baseProfile="tiny" height="15.875cm" version="1.2" viewBox="0 0 432.0 600.0" width="11.43cm">
  <metadata>
    <rdf:RDF>
      <cc:Work>
        <dc:format>image/svg+xml</dc:format>
        <dc:source>vsk save -s 286 -c hex-grid/config/bubble-coasters-2.json /Users/tobin/src/fabian/plotting/fabian-plotting/hex-grid/sketch_hex_grid.py</dc:source>
        <dc:date>2023-11-11T11:30:24.046223</dc:date>
      </cc:Work>
    </rdf:RDF>
  </metadata>
  <defs/>
  <g fill="none" id="layer1" inkscape:groupmode="layer" inkscape:label="1" stroke="#000000" stroke-width="0.7559" style="display:inline">
    <polygon points="192.4001,197.9073 192.8592,197.8392 193.3228,197.8164 193.7865,197.8392 194.2456,197.9073 194.6959,198.0201 195.1329,198.1764 195.5525,198.3749 195.9507,198.6135 196.3235,198.89 196.6674,199.2018 196.9792,199.5457 197.2557,199.9185 197.4943,200.3167 197.6928,200.7363 197.8491,201.1733 197.9619,201.6236 198.03,202.0827 198.0528,202.5464 198.03,203.01 197.9619,203.4691 197.8491,203.9194 197.6928,204.3564 197.4943,204.7761 197.2557,205.1742 196.9792,205.547 196.6674,205.891 196.3235,206.2027 195.9507,206.4792 195.5525,206.7178 195.1329,206.9163 194.6959,207.0727 194.2456,207.1854 193.7865,207.2536 193.3228,207.2763 192.8592,207.2536 192.4001,207.1854 191.9498,207.0727 191.5128,206.9163 191.0931,206.7178 190.695,206.4792 190.3222,206.2027 189.9782,205.891 189.6665,205.547 189.39,205.1742 189.1514,204.7761 188.9529,204.3564 188.7965,203.9194 188.6837,203.4691 188.6156,203.01 188.5929,202.5464 188.6156,202.0827 188.6837,201.6236 188.7965,201.1733 188.9529,200.7363 189.1514,200.3167 189.39,199.9185 189.6665,199.5457 189.9782,199.2018 190.3222,198.89 190.695,198.6135 191.0931,198.3749 191.5128,198.1764 191.9498,198.0201"/>
    <polygon points="180.6112,204.5664 181.0615,204.4536 181.5206,204.3855 181.9843,204.3627 182.4479,204.3855 182.907,204.4536 183.3573,204.5664 183.7943,204.7228 184.2139,204.9212 184.6121,205.1599 184.9849,205.4364 185.3288,205.7481 185.6406,206.092 185.9171,206.4649 186.1557,206.863 186.3542,207.2826 186.5106,207.7197 186.6233,208.1699 186.6914,208.6291 186.7142,209.0927 186.6914,209.5563 186.6233,210.0155 186.5106,210.4657 186.3542,210.9028 186.1557,211.3224 185.9171,211.7205 185.6406,212.0934 185.3288,212.4373 184.9849,212.749 184.6121,213.0255 184.2139,213.2642 183.7943,213.4626 183.3573,213.619 182.907,213.7318 182.4479,213.7999 181.9843,213.8227 181.5206,213.7999 181.0615,213.7318 180.6112,213.619 180.1742,213.4626 179.7546,213.2642 179.3564,213.0255 178.9836,212.749 178.6397,212.4373 178.3279,212.0934 178.0514,211.7205 177.8128,211.3224 177.6143,210.9028 177.458,210.4657 177.3452,210.0155 177.2771,209.5563 177.2543,209.0927 177.2771,208.6291 177.3452,208.1699 177.458,207.7197 177.6143,207.2826 177.8128,206.863 178.0514,206.4649 178.3279,206.092 178.6397,205.7481 178.9836,205.4364 179.3564,205.1599 179.7546,204.9212 180.1742,204.7228"/>
    <polygon points="169.7229,210.9999 170.1821,210.9318 170.6457,210.9091 171.1093,210.9318 171.5684,210.9999 172.0187,211.1127 172.4558,211.2691 172.8754,211.4676 173.2735,211.7062 173.6463,211.9827 173.9903,212.2944 174.302,212.6384 174.5785,213.0112 174.8171,213.4093 175.0156,213.8289 175.172,214.266 175.2848,214.7163 175.3529,215.1754 175.3756,215.639 175.3529,216.1026 175.2848,216.5618 175.172,217.0121 175.0156,217.4491 174.8171,217.8687 174.5785,218.2669 174.302,218.6397 173.9903,218.9836 173.6463,219.2953 173.2735,219.5719 172.8754,219.8105 172.4558,220.0089 172.0187,220.1653 171.5684,220.2781 171.1093,220.3462 170.6457,220.369 170.1821,220.3462 169.7229,220.2781 169.2726,220.1653 168.8356,220.0089 168.416,219.8105 168.0178,219.5719 167.645,219.2953 167.3011,218.9836 166.9894,218.6397 166.7128,218.2669 166.4742,217.8687 166.2757,217.4491 166.1194,217.0121 166.0066,216.5618 165.9385,216.1026 165.9157,215.639 165.9385,215.1754 166.0066,214.7163 166.1194,214.266 166.2757,213.8289 166.4742,213.4093 166.7128,213.0112 166.9894,212.6384 167.3011,212.2944 167.645,211.9827 168.0178,211.7062 168.416,211.4676 168.8356,211.2691 169.2726,211.1127"/>
    <polygon points="163.6344,232.0047 164.0072,230.9628 164.4804,229.9624 165.0493,229.0132 165.7085,228.1244 166.4516,227.3045 167.2716,226.5613 168.1604,225.9021 169.1096,225.3332 170.1099,224.8601 171.1519,224.4873 172.2253,224.2184 173.3199,224.056 174.4252,224.0017 175.5305,224.056 176.6251,224.2184 177.6985,224.4873 178.7405,224.8601 179.7408,225.3332 180.69,225.9021 181.5788,226.5613 182.3987,227.3045 183.1419,228.1244 183.8011,229.0132 184.37,229.9624 184.8431,230.9628 185.2159,232.0047 185.4848,233.0781 185.6472,234.1728 185.7015,235.278 185.6472,236.3833 185.4848,237.4779 185.2159,238.5514 184.8431,239.5933 184.37,240.5936 183.8011,241.5428 183.1419,242.4316 182.3987,243.2516 181.5788,243.9947 180.69,244.6539 179.7408,245.2228 178.7405,245.696 177.6985,246.0688 176.6251,246.3377 175.5305,246.5 174.4252,246.5543 173.3199,246.5 172.2253,246.3377 171.1519,246.0688 170.1099,245.696 169.1096,245.2228 168.1604,244.6539 167.2716,243.9947 166.4516,243.2516 165.7085,242.4316 165.0493,241.5428 164.4804,240.5936 164.0072,239.5933 163.6344,238.5514 163.3656,237.4779 163.2032,236.3833 163.1489,235.278 163.2032,234.1728 163.3656,233.0781"/>
    <polygon points="188.3857,229.339 187.7265,228.4501 187.1575,227.501 186.6844,226.5006 186.3116,225.4587 186.0427,224.3853 185.8804,223.2906 185.8261,222.1854 185.8804,221.0801 186.0427,219.9855 186.3116,218.912 186.6844,217.8701 187.1575,216.8697 187.7265,215.9206 188.3857,215.0317 189.1288,214.2118 189.9487,213.4687 190.8376,212.8095 191.7867,212.2405 192.7871,211.7674 193.829,211.3946 194.9025,211.1257 195.9971,210.9634 197.1024,210.9091 198.2076,210.9634 199.3023,211.1257 200.3757,211.3946 201.4176,211.7674 202.418,212.2405 203.3671,212.8095 204.256,213.4687 205.0759,214.2118 205.8191,215.0317 206.4783,215.9206 207.0472,216.8697 207.5203,217.8701 207.8931,218.912 208.162,219.9855 208.3244,221.0801 208.3787,222.1854 208.3244,223.2906 208.162,224.3853 207.8931,225.4587 207.5203,226.5006 207.0472,227.501 206.4783,228.4501 205.8191,229.339 205.0759,230.1589 204.256,230.9021 203.3671,231.5613 202.418,232.1302 201.4176,232.6033 200.3757,232.9761 199.3023,233.245 198.2076,233.4074 197.1024,233.4617 195.9971,233.4074 194.9025,233.245 193.829,232.9761 192.7871,232.6033 191.7867,232.1302 190.8376,231.5613 189.9487,230.9021 189.1288,230.1589"/>
    <polygon points="204.6614,237.0944 207.05,237.2117 209.4156,237.5626 211.7354,238.1437 213.987,238.9494 216.1489,239.9718 218.2001,241.2013 220.1209,242.6259 221.8929,244.2319 223.4989,246.0038 224.9235,247.9247 226.1529,249.9759 227.1754,252.1378 227.9811,254.3894 228.5621,256.7092 228.913,259.0748 229.0304,261.4634 228.913,263.8519 228.5621,266.2175 227.9811,268.5373 227.1754,270.789 226.1529,272.9508 224.9235,275.002 223.4989,276.9229 221.8929,278.6948 220.1209,280.3008 218.2001,281.7254 216.1489,282.9549 213.987,283.9774 211.7354,284.783 209.4156,285.3641 207.05,285.715 204.6614,285.8323 202.2728,285.715 199.9073,285.3641 197.5875,284.783 195.3358,283.9774 193.174,282.9549 191.1227,281.7254 189.2019,280.3008 187.43,278.6948 185.8239,276.9229 184.3994,275.002 183.1699,272.9508 182.1474,270.789 181.3418,268.5373 180.7607,266.2175 180.4098,263.8519 180.2924,261.4634 180.4098,259.0748 180.7607,256.7092 181.3418,254.3894 182.1474,252.1378 183.1699,249.9759 184.3994,247.9247 185.8239,246.0038 187.43,244.2319 189.2019,242.6259 191.1227,241.2013 193.174,239.9718 195.3358,238.9494 197.5875,238.1437 199.9073,237.5626 202.2728,237.2117"/>
    <polygon points="219.9328,218.2669 220.1715,217.8687 220.3699,217.4491 220.5263,217.0121 220.6391,216.5618 220.7072,216.1026 220.73,215.639 220.7072,215.1754 220.6391,214.7163 220.5263,214.266 220.3699,213.8289 220.1715,213.4093 219.9328,213.0112 219.6563,212.6384 219.3446,212.2944 219.0007,211.9827 218.6278,211.7062 218.2297,211.4676 217.8101,211.2691 217.373,211.1127 216.9228,210.9999 216.4636,210.9318 216.0,210.9091 215.5364,210.9318 215.0772,210.9999 214.627,211.1127 214.1899,211.2691 213.7703,211.4676 213.3722,211.7062 212.9993,211.9827 212.6554,212.2944 212.3437,212.6384 212.0672,213.0112 211.8285,213.4093 211.6301,213.8289 211.4737,214.266 211.3609,214.7163 211.2928,215.1754 211.27,215.639 211.2928,216.1026 211.3609,216.5618 211.4737,217.0121 211.6301,217.4491 211.8285,217.8687 212.0672,218.2669 212.3437,218.6397 212.6554,218.9836 212.9993,219.2953 213.3722,219.5719 213.7703,219.8105 214.1899,220.0089 214.627,220.1653 215.0772,220.2781 215.5364,220.3462 216.0,220.369 216.4636,220.3462 216.9228,220.2781 217.373,220.1653 217.8101,220.0089 218.2297,219.8105 218.6278,219.5719 219.0007,219.2953 219.3446,218.9836 219.6563,218.6397"/>
    <polygon points="228.7116,213.619 229.1487,213.4626 229.5683,213.2642 229.9664,213.0255 230.3392,212.749 230.6832,212.4373 230.9949,212.0934 231.2714,211.7205 231.51,211.3224 231.7085,210.9028 231.8649,210.4657 231.9777,210.0155 232.0458,209.5563 232.0686,209.0927 232.0458,208.6291 231.9777,208.1699 231.8649,207.7197 231.7085,207.2826 231.51,206.863 231.2714,206.4649 230.9949,206.092 230.6832,205.7481 230.3392,205.4364 229.9664,205.1599 229.5683,204.9212 229.1487,204.7228 228.7116,204.5664 228.2614,204.4536 227.8022,204.3855 227.3386,204.3627 226.875,204.3855 226.4158,204.4536 225.9655,204.5664 225.5285,204.7228 225.1089,204.9212 224.7108,205.1599 224.3379,205.4364 223.994,205.7481 223.6823,206.092 223.4058,206.4649 223.1671,206.863 222.9687,207.2826 222.8123,207.7197 222.6995,208.1699 222.6314,208.6291 222.6086,209.0927 222.6314,209.5563 222.6995,210.0155 222.8123,210.4657 222.9687,210.9028 223.1671,211.3224 223.4058,211.7205 223.6823,212.0934 223.994,212.4373 224.3379,212.749 224.7108,213.0255 225.1089,213.2642 225.5285,213.4626 225.9655,213.619 226.4158,213.7318 226.875,213.7999 227.3386,213.8227 227.8022,213.7999 228.2614,213.7318"/>
    <polygon points="234.0381,216.5618 234.1509,217.0121 234.3072,217.4491 234.5057,217.8687 234.7443,218.2669 235.0208,218.6397 235.3326,218.9836 235.6765,219.2953 236.0493,219.5719 236.4475,219.8105 236.8671,220.0089 237.3041,220.1653 237.7544,220.2781 238.2135,220.3462 238.6772,220.369 239.1408,220.3462 239.5999,220.2781 240.0502,220.1653 240.4872,220.0089 240.9069,219.8105 241.305,219.5719 241.6778,219.2953 242.0218,218.9836 242.3335,218.6397 242.61,218.2669 242.8486,217.8687 243.0471,217.4491 243.2035,217.0121 243.3163,216.5618 243.3844,216.1026 243.4071,215.639 243.3844,215.1754 243.3163,214.7163 243.2035,214.266 243.0471,213.8289 242.8486,213.4093 242.61,213.0112 242.3335,212.6384 242.0218,212.2944 241.6778,211.9827 241.305,211.7062 240.9069,211.4676 240.4872,211.2691 240.0502,211.1127 239.5999,210.9999 239.1408,210.9318 238.6772,210.9091 238.2135,210.9318 237.7544,210.9999 237.3041,211.1127 236.8671,211.2691 236.4475,211.4676 236.0493,211.7062 235.6765,211.9827 235.3326,212.2944 235.0208,212.6384 234.7443,213.0112 234.5057,213.4093 234.3072,213.8289 234.1509,214.266 234.0381,214.7163 233.97,215.1754 233.9472,215.639 233.97,216.1026"/>
    <polygon points="240.0502,233.258 240.4872,233.1016 240.9069,232.9032 241.305,232.6645 241.6778,232.388 242.0218,232.0763 242.3335,231.7324 242.61,231.3595 242.8486,230.9614 243.0471,230.5418 243.2035,230.1047 243.3163,229.6545 243.3844,229.1953 243.4071,228.7317 243.3844,228.2681 243.3163,227.8089 243.2035,227.3587 243.0471,226.9216 242.8486,226.502 242.61,226.1039 242.3335,225.731 242.0218,225.3871 241.6778,225.0754 241.305,224.7989 240.9069,224.5602 240.4872,224.3618 240.0502,224.2054 239.5999,224.0926 239.1408,224.0245 238.6772,224.0017 238.2135,224.0245 237.7544,224.0926 237.3041,224.2054 236.8671,224.3618 236.4475,224.5602 236.0493,224.7989 235.6765,225.0754 235.3326,225.3871 235.0208,225.731 234.7443,226.1039 234.5057,226.502 234.3072,226.9216 234.1509,227.3587 234.0381,227.8089 233.97,228.2681 233.9472,228.7317 233.97,229.1953 234.0381,229.6545 234.1509,230.1047 234.3072,230.5418 234.5057,230.9614 234.7443,231.3595 235.0208,231.7324 235.3326,232.0763 235.6765,232.388 236.0493,232.6645 236.4475,232.9032 236.8671,233.1016 237.3041,233.258 237.7544,233.3708 238.2135,233.4389 238.6772,233.4617 239.1408,233.4389 239.5999,233.3708"/>
    <polygon points="239.1834,237.5799 238.1414,237.9527 237.1411,238.4259 236.1919,238.9948 235.3031,239.654 234.4831,240.3971 233.74,241.2171 233.0808,242.1059 232.5119,243.0551 232.0387,244.0554 231.6659,245.0974 231.3971,246.1708 231.2347,247.2654 231.1804,248.3707 231.2347,249.476 231.3971,250.5706 231.6659,251.644 232.0387,252.6859 232.5119,253.6863 233.0808,254.6355 233.74,255.5243 234.4831,256.3442 235.3031,257.0874 236.1919,257.7466 237.1411,258.3155 238.1414,258.7886 239.1834,259.1614 240.2568,259.4303 241.3514,259.5927 242.4567,259.647 243.562,259.5927 244.6566,259.4303 245.73,259.1614 246.7719,258.7886 247.7723,258.3155 248.7215,257.7466 249.6103,257.0874 250.4302,256.3442 251.1734,255.5243 251.8326,254.6355 252.4015,253.6863 252.8746,252.6859 253.2474,251.644 253.5163,250.5706 253.6787,249.476 253.733,248.3707 253.6787,247.2654 253.5163,246.1708 253.2474,245.0974 252.8746,244.0554 252.4015,243.0551 251.8326,242.1059 251.1734,241.2171 250.4302,240.3971 249.6103,239.654 248.7215,238.9948 247.7723,238.4259 246.7719,237.9527 245.73,237.5799 244.6566,237.3111 243.562,237.1487 242.4567,237.0944 241.3514,237.1487 240.2568,237.3111"/>
    <polygon points="262.2771,237.1853 261.8179,237.1172 261.3543,237.0944 260.8907,237.1172 260.4316,237.1853 259.9813,237.2981 259.5442,237.4544 259.1246,237.6529 258.7265,237.8915 258.3537,238.168 258.0097,238.4798 257.698,238.8237 257.4215,239.1965 257.1829,239.5947 256.9844,240.0143 256.828,240.4513 256.7152,240.9016 256.6471,241.3607 256.6244,241.8244 256.6471,242.288 256.7152,242.7471 256.828,243.1974 256.9844,243.6344 257.1829,244.0541 257.4215,244.4522 257.698,244.825 258.0097,245.169 258.3537,245.4807 258.7265,245.7572 259.1246,245.9958 259.5442,246.1943 259.9813,246.3507 260.4316,246.4634 260.8907,246.5316 261.3543,246.5543 261.8179,246.5316 262.2771,246.4634 262.7274,246.3507 263.1644,246.1943 263.584,245.9958 263.9822,245.7572 264.355,245.4807 264.6989,245.169 265.0106,244.825 265.2872,244.4522 265.5258,244.0541 265.7243,243.6344 265.8806,243.1974 265.9934,242.7471 266.0615,242.288 266.0843,241.8244 266.0615,241.3607 265.9934,240.9016 265.8806,240.4513 265.7243,240.0143 265.5258,239.5947 265.2872,239.1965 265.0106,238.8237 264.6989,238.4798 264.355,238.168 263.9822,237.8915 263.584,237.6529 263.1644,237.4544 262.7274,237.2981"/>
    <polygon points="276.3492,284.648 276.6257,285.0209 276.8644,285.419 277.0628,285.8386 277.2192,286.2757 277.332,286.7259 277.4001,287.1851 277.4229,287.6487 277.4001,288.1123 277.332,288.5715 277.2192,289.0217 277.0628,289.4588 276.8644,289.8784 276.6257,290.2765 276.3492,290.6494 276.0375,290.9933 275.6936,291.305 275.3207,291.5815 274.9226,291.8202 274.503,292.0186 274.066,292.175 273.6157,292.2878 273.1565,292.3559 272.6929,292.3787 272.2293,292.3559 271.7701,292.2878 271.3199,292.175 270.8828,292.0186 270.4632,291.8202 270.0651,291.5815 269.6923,291.305 269.3483,290.9933 269.0366,290.6494 268.7601,290.2765 268.5214,289.8784 268.323,289.4588 268.1666,289.0217 268.0538,288.5715 267.9857,288.1123 267.9629,287.6487 267.9857,287.1851 268.0538,286.7259 268.1666,286.2757 268.323,285.8386 268.5214,285.419 268.7601,285.0209 269.0366,284.648 269.3483,284.3041 269.6923,283.9924 270.0651,283.7159 270.4632,283.4772 270.8828,283.2788 271.3199,283.1224 271.7701,283.0096 272.2293,282.9415 272.6929,282.9187 273.1565,282.9415 273.6157,283.0096 274.066,283.1224 274.503,283.2788 274.9226,283.4772 275.3207,283.7159 275.6936,283.9924 276.0375,284.3041"/>
    <polygon points="263.9822,277.1695 264.355,277.446 264.6989,277.7578 265.0106,278.1017 265.2872,278.4745 265.5258,278.8727 265.7243,279.2923 265.8806,279.7293 265.9934,280.1796 266.0615,280.6387 266.0843,281.1024 266.0615,281.566 265.9934,282.0251 265.8806,282.4754 265.7243,282.9124 265.5258,283.3321 265.2872,283.7302 265.0106,284.103 264.6989,284.447 264.355,284.7587 263.9822,285.0352 263.584,285.2738 263.1644,285.4723 262.7274,285.6287 262.2771,285.7414 261.8179,285.8096 261.3543,285.8323 260.8907,285.8096 260.4316,285.7414 259.9813,285.6287 259.5442,285.4723 259.1246,285.2738 258.7265,285.0352 258.3537,284.7587 258.0097,284.447 257.698,284.103 257.4215,283.7302 257.1829,283.3321 256.9844,282.9124 256.828,282.4754 256.7152,282.0251 256.6471,281.566 256.6244,281.1024 256.6471,280.6387 256.7152,280.1796 256.828,279.7293 256.9844,279.2923 257.1829,278.8727 257.4215,278.4745 257.698,278.1017 258.0097,277.7578 258.3537,277.446 258.7265,277.1695 259.1246,276.9309 259.5442,276.7324 259.9813,276.5761 260.4316,276.4633 260.8907,276.3952 261.3543,276.3724 261.8179,276.3952 262.2771,276.4633 262.7274,276.5761 263.1644,276.7324 263.584,276.9309"/>
    <polygon points="242.4567,285.8323 243.562,285.778 244.6566,285.6157 245.73,285.3468 246.7719,284.974 247.7723,284.5008 248.7215,283.9319 249.6103,283.2727 250.4302,282.5296 251.1734,281.7096 251.8326,280.8208 252.4015,279.8716 252.8746,278.8713 253.2474,277.8294 253.5163,276.7559 253.6787,275.6613 253.733,274.556 253.6787,273.4508 253.5163,272.3561 253.2474,271.2827 252.8746,270.2408 252.4015,269.2404 251.8326,268.2912 251.1734,267.4024 250.4302,266.5825 249.6103,265.8393 248.7215,265.1801 247.7723,264.6112 246.7719,264.1381 245.73,263.7653 244.6566,263.4964 243.562,263.334 242.4567,263.2797 241.3514,263.334 240.2568,263.4964 239.1834,263.7653 238.1414,264.1381 237.1411,264.6112 236.1919,265.1801 235.3031,265.8393 234.4831,266.5825 233.74,267.4024 233.0808,268.2912 232.5119,269.2404 232.0387,270.2408 231.6659,271.2827 231.3971,272.3561 231.2347,273.4508 231.1804,274.556 231.2347,275.6613 231.3971,276.7559 231.6659,277.8294 232.0387,278.8713 232.5119,279.8716 233.0808,280.8208 233.74,281.7096 234.4831,282.5296 235.3031,283.2727 236.1919,283.9319 237.1411,284.5008 238.1414,284.974 239.1834,285.3468 240.2568,285.6157 241.3514,285.778"/>
    <polygon points="240.9069,298.3665 241.305,298.1279 241.6778,297.8513 242.0218,297.5396 242.3335,297.1957 242.61,296.8229 242.8486,296.4247 243.0471,296.0051 243.2035,295.5681 243.3163,295.1178 243.3844,294.6586 243.4071,294.195 243.3844,293.7314 243.3163,293.2723 243.2035,292.822 243.0471,292.3849 242.8486,291.9653 242.61,291.5672 242.3335,291.1944 242.0218,290.8504 241.6778,290.5387 241.305,290.2622 240.9069,290.0236 240.4872,289.8251 240.0502,289.6687 239.5999,289.5559 239.1408,289.4878 238.6772,289.4651 238.2135,289.4878 237.7544,289.5559 237.3041,289.6687 236.8671,289.8251 236.4475,290.0236 236.0493,290.2622 235.6765,290.5387 235.3326,290.8504 235.0208,291.1944 234.7443,291.5672 234.5057,291.9653 234.3072,292.3849 234.1509,292.822 234.0381,293.2723 233.97,293.7314 233.9472,294.195 233.97,294.6586 234.0381,295.1178 234.1509,295.5681 234.3072,296.0051 234.5057,296.4247 234.7443,296.8229 235.0208,297.1957 235.3326,297.5396 235.6765,297.8513 236.0493,298.1279 236.4475,298.3665 236.8671,298.565 237.3041,298.7213 237.7544,298.8341 238.2135,298.9022 238.6772,298.925 239.1408,298.9022 239.5999,298.8341 240.0502,298.7213 240.4872,298.565"/>
    <polygon points="225.5285,296.3714 225.1089,296.5699 224.7108,296.8085 224.3379,297.085 223.994,297.3968 223.6823,297.7407 223.4058,298.1135 223.1671,298.5117 222.9687,298.9313 222.8123,299.3683 222.6995,299.8186 222.6314,300.2777 222.6086,300.7414 222.6314,301.205 222.6995,301.6641 222.8123,302.1144 222.9687,302.5514 223.1671,302.9711 223.4058,303.3692 223.6823,303.742 223.994,304.086 224.3379,304.3977 224.7108,304.6742 225.1089,304.9128 225.5285,305.1113 225.9655,305.2677 226.4158,305.3805 226.875,305.4486 227.3386,305.4713 227.8022,305.4486 228.2614,305.3805 228.7116,305.2677 229.1487,305.1113 229.5683,304.9128 229.9664,304.6742 230.3392,304.3977 230.6832,304.086 230.9949,303.742 231.2714,303.3692 231.51,302.9711 231.7085,302.5514 231.8649,302.1144 231.9777,301.6641 232.0458,301.205 232.0686,300.7414 232.0458,300.2777 231.9777,299.8186 231.8649,299.3683 231.7085,298.9313 231.51,298.5117 231.2714,298.1135 230.9949,297.7407 230.6832,297.3968 230.3392,297.085 229.9664,296.8085 229.5683,296.5699 229.1487,296.3714 228.7116,296.2151 228.2614,296.1023 227.8022,296.0342 227.3386,296.0114 226.875,296.0342 226.4158,296.1023 225.9655,296.2151"/>
    <polygon points="220.7072,306.8241 220.6391,306.3649 220.5263,305.9147 220.3699,305.4776 220.1715,305.058 219.9328,304.6599 219.6563,304.287 219.3446,303.9431 219.0007,303.6314 218.6278,303.3549 218.2297,303.1162 217.8101,302.9178 217.373,302.7614 216.9228,302.6486 216.4636,302.5805 216.0,302.5577 215.5364,302.5805 215.0772,302.6486 214.627,302.7614 214.1899,302.9178 213.7703,303.1162 213.3722,303.3549 212.9993,303.6314 212.6554,303.9431 212.3437,304.287 212.0672,304.6599 211.8285,305.058 211.6301,305.4776 211.4737,305.9147 211.3609,306.3649 211.2928,306.8241 211.27,307.2877 211.2928,307.7513 211.3609,308.2105 211.4737,308.6607 211.6301,309.0978 211.8285,309.5174 212.0672,309.9155 212.3437,310.2884 212.6554,310.6323 212.9993,310.944 213.3722,311.2205 213.7703,311.4592 214.1899,311.6576 214.627,311.814 215.0772,311.9268 215.5364,311.9949 216.0,312.0177 216.4636,311.9949 216.9228,311.9268 217.373,311.814 217.8101,311.6576 218.2297,311.4592 218.6278,311.2205 219.0007,310.944 219.3446,310.6323 219.6563,310.2884 219.9328,309.9155 220.1715,309.5174 220.3699,309.0978 220.5263,308.6607 220.6391,308.2105 220.7072,307.7513 220.73,307.2877"/>
    <polygon points="222.6314,314.2976 222.6995,314.7568 222.8123,315.2071 222.9687,315.6441 223.1671,316.0637 223.4058,316.4619 223.6823,316.8347 223.994,317.1786 224.3379,317.4903 224.7108,317.7669 225.1089,318.0055 225.5285,318.204 225.9655,318.3603 226.4158,318.4731 226.875,318.5412 227.3386,318.564 227.8022,318.5412 228.2614,318.4731 228.7116,318.3603 229.1487,318.204 229.5683,318.0055 229.9664,317.7669 230.3392,317.4903 230.6832,317.1786 230.9949,316.8347 231.2714,316.4619 231.51,316.0637 231.7085,315.6441 231.8649,315.2071 231.9777,314.7568 232.0458,314.2976 232.0686,313.834 232.0458,313.3704 231.9777,312.9113 231.8649,312.461 231.7085,312.0239 231.51,311.6043 231.2714,311.2062 230.9949,310.8334 230.6832,310.4894 230.3392,310.1777 229.9664,309.9012 229.5683,309.6626 229.1487,309.4641 228.7116,309.3077 228.2614,309.1949 227.8022,309.1268 227.3386,309.1041 226.875,309.1268 226.4158,309.1949 225.9655,309.3077 225.5285,309.4641 225.1089,309.6626 224.7108,309.9012 224.3379,310.1777 223.994,310.4894 223.6823,310.8334 223.4058,311.2062 223.1671,311.6043 222.9687,312.0239 222.8123,312.461 222.6995,312.9113 222.6314,313.3704 222.6086,313.834"/>
    <polygon points="215.4643,329.6014 214.4639,330.0746 213.5147,330.6435 212.6259,331.3027 211.806,332.0458 211.0628,332.8658 210.4036,333.7546 209.8347,334.7038 209.3616,335.7041 208.9888,336.746 208.7199,337.8195 208.5575,338.9141 208.5032,340.0194 208.5575,341.1246 208.7199,342.2193 208.9888,343.2927 209.3616,344.3346 209.8347,345.335 210.4036,346.2841 211.0628,347.173 211.806,347.9929 212.6259,348.7361 213.5147,349.3953 214.4639,349.9642 215.4643,350.4373 216.5062,350.8101 217.5796,351.079 218.6743,351.2414 219.7795,351.2957 220.8848,351.2414 221.9794,351.079 223.0529,350.8101 224.0948,350.4373 225.0951,349.9642 226.0443,349.3953 226.9331,348.7361 227.7531,347.9929 228.4962,347.173 229.1554,346.2841 229.7243,345.335 230.1975,344.3346 230.5703,343.2927 230.8392,342.2193 231.0015,341.1246 231.0558,340.0194 231.0015,338.9141 230.8392,337.8195 230.5703,336.746 230.1975,335.7041 229.7243,334.7038 229.1554,333.7546 228.4962,332.8658 227.7531,332.0458 226.9331,331.3027 226.0443,330.6435 225.0951,330.0746 224.0948,329.6014 223.0529,329.2286 221.9794,328.9597 220.8848,328.7974 219.7795,328.7431 218.6743,328.7974 217.5796,328.9597 216.5062,329.2286"/>
    <polygon points="198.2076,315.7047 197.1024,315.6504 195.9971,315.7047 194.9025,315.8671 193.829,316.1359 192.7871,316.5087 191.7867,316.9819 190.8376,317.5508 189.9487,318.21 189.1288,318.9531 188.3857,319.7731 187.7265,320.6619 187.1575,321.6111 186.6844,322.6114 186.3116,323.6534 186.0427,324.7268 185.8804,325.8214 185.8261,326.9267 185.8804,328.032 186.0427,329.1266 186.3116,330.2 186.6844,331.242 187.1575,332.2423 187.7265,333.1915 188.3857,334.0803 189.1288,334.9003 189.9487,335.6434 190.8376,336.3026 191.7867,336.8715 192.7871,337.3446 193.829,337.7175 194.9025,337.9863 195.9971,338.1487 197.1024,338.203 198.2076,338.1487 199.3023,337.9863 200.3757,337.7175 201.4176,337.3446 202.418,336.8715 203.3671,336.3026 204.256,335.6434 205.0759,334.9003 205.8191,334.0803 206.4783,333.1915 207.0472,332.2423 207.5203,331.242 207.8931,330.2 208.162,329.1266 208.3244,328.032 208.3787,326.9267 208.3244,325.8214 208.162,324.7268 207.8931,323.6534 207.5203,322.6114 207.0472,321.6111 206.4783,320.6619 205.8191,319.7731 205.0759,318.9531 204.256,318.21 203.3671,317.5508 202.418,316.9819 201.4176,316.5087 200.3757,316.1359 199.3023,315.8671"/>
    <polygon points="184.9849,310.1777 185.3288,310.4894 185.6406,310.8334 185.9171,311.2062 186.1557,311.6043 186.3542,312.0239 186.5106,312.461 186.6233,312.9113 186.6914,313.3704 186.7142,313.834 186.6914,314.2976 186.6233,314.7568 186.5106,315.2071 186.3542,315.6441 186.1557,316.0637 185.9171,316.4619 185.6406,316.8347 185.3288,317.1786 184.9849,317.4903 184.6121,317.7669 184.2139,318.0055 183.7943,318.204 183.3573,318.3603 182.907,318.4731 182.4479,318.5412 181.9843,318.564 181.5206,318.5412 181.0615,318.4731 180.6112,318.3603 180.1742,318.204 179.7546,318.0055 179.3564,317.7669 178.9836,317.4903 178.6397,317.1786 178.3279,316.8347 178.0514,316.4619 177.8128,316.0637 177.6143,315.6441 177.458,315.2071 177.3452,314.7568 177.2771,314.2976 177.2543,313.834 177.2771,313.3704 177.3452,312.9113 177.458,312.461 177.6143,312.0239 177.8128,311.6043 178.0514,311.2062 178.3279,310.8334 178.6397,310.4894 178.9836,310.1777 179.3564,309.9012 179.7546,309.6626 180.1742,309.4641 180.6112,309.3077 181.0615,309.1949 181.5206,309.1268 181.9843,309.1041 182.4479,309.1268 182.907,309.1949 183.3573,309.3077 183.7943,309.4641 184.2139,309.6626 184.6121,309.9012"/>
    <polygon points="203.3671,291.3655 202.418,290.7965 201.4176,290.3234 200.3757,289.9506 199.3023,289.6817 198.2076,289.5194 197.1024,289.4651 195.9971,289.5194 194.9025,289.6817 193.829,289.9506 192.7871,290.3234 191.7867,290.7965 190.8376,291.3655 189.9487,292.0247 189.1288,292.7678 188.3857,293.5878 187.7265,294.4766 187.1575,295.4257 186.6844,296.4261 186.3116,297.468 186.0427,298.5415 185.8804,299.6361 185.8261,300.7414 185.8804,301.8466 186.0427,302.9413 186.3116,304.0147 186.6844,305.0566 187.1575,306.057 187.7265,307.0061 188.3857,307.895 189.1288,308.7149 189.9487,309.4581 190.8376,310.1173 191.7867,310.6862 192.7871,311.1593 193.829,311.5321 194.9025,311.801 195.9971,311.9634 197.1024,312.0177 198.2076,311.9634 199.3023,311.801 200.3757,311.5321 201.4176,311.1593 202.418,310.6862 203.3671,310.1173 204.256,309.4581 205.0759,308.7149 205.8191,307.895 206.4783,307.0061 207.0472,306.057 207.5203,305.0566 207.8931,304.0147 208.162,302.9413 208.3244,301.8466 208.3787,300.7414 208.3244,299.6361 208.162,298.5415 207.8931,297.468 207.5203,296.4261 207.0472,295.4257 206.4783,294.4766 205.8191,293.5878 205.0759,292.7678 204.256,292.0247"/>
    <polygon points="180.69,297.0246 181.5788,296.3654 182.3987,295.6222 183.1419,294.8023 183.8011,293.9135 184.37,292.9643 184.8431,291.964 185.2159,290.922 185.4848,289.8486 185.6472,288.754 185.7015,287.6487 185.6472,286.5434 185.4848,285.4488 185.2159,284.3754 184.8431,283.3334 184.37,282.3331 183.8011,281.3839 183.1419,280.4951 182.3987,279.6751 181.5788,278.932 180.69,278.2728 179.7408,277.7039 178.7405,277.2307 177.6985,276.8579 176.6251,276.5891 175.5305,276.4267 174.4252,276.3724 173.3199,276.4267 172.2253,276.5891 171.1519,276.8579 170.1099,277.2307 169.1096,277.7039 168.1604,278.2728 167.2716,278.932 166.4516,279.6751 165.7085,280.4951 165.0493,281.3839 164.4804,282.3331 164.0072,283.3334 163.6344,284.3754 163.3656,285.4488 163.2032,286.5434 163.1489,287.6487 163.2032,288.754 163.3656,289.8486 163.6344,290.922 164.0072,291.964 164.4804,292.9643 165.0493,293.9135 165.7085,294.8023 166.4516,295.6222 167.2716,296.3654 168.1604,297.0246 169.1096,297.5935 170.1099,298.0666 171.1519,298.4394 172.2253,298.7083 173.3199,298.8707 174.4252,298.925 175.5305,298.8707 176.6251,298.7083 177.6985,298.4394 178.7405,298.0666 179.7408,297.5935"/>
    <polygon points="154.668,301.6641 154.7808,302.1144 154.9372,302.5514 155.1356,302.9711 155.3743,303.3692 155.6508,303.742 155.9625,304.086 156.3064,304.3977 156.6793,304.6742 157.0774,304.9128 157.497,305.1113 157.934,305.2677 158.3843,305.3805 158.8435,305.4486 159.3071,305.4713 159.7707,305.4486 160.2299,305.3805 160.6801,305.2677 161.1172,305.1113 161.5368,304.9128 161.9349,304.6742 162.3077,304.3977 162.6517,304.086 162.9634,303.742 163.2399,303.3692 163.4786,302.9711 163.677,302.5514 163.8334,302.1144 163.9462,301.6641 164.0143,301.205 164.0371,300.7414 164.0143,300.2777 163.9462,299.8186 163.8334,299.3683 163.677,298.9313 163.4786,298.5117 163.2399,298.1135 162.9634,297.7407 162.6517,297.3968 162.3077,297.085 161.9349,296.8085 161.5368,296.5699 161.1172,296.3714 160.6801,296.2151 160.2299,296.1023 159.7707,296.0342 159.3071,296.0114 158.8435,296.0342 158.3843,296.1023 157.934,296.2151 157.497,296.3714 157.0774,296.5699 156.6793,296.8085 156.3064,297.085 155.9625,297.3968 155.6508,297.7407 155.3743,298.1135 155.1356,298.5117 154.9372,298.9313 154.7808,299.3683 154.668,299.8186 154.5999,300.2777 154.5771,300.7414 154.5999,301.205"/>
    <polygon points="165.9385,346.1021 165.9157,346.5657 165.9385,347.0293 166.0066,347.4885 166.1194,347.9387 166.2757,348.3758 166.4742,348.7954 166.7128,349.1935 166.9894,349.5664 167.3011,349.9103 167.645,350.222 168.0178,350.4985 168.416,350.7372 168.8356,350.9356 169.2726,351.092 169.7229,351.2048 170.1821,351.2729 170.6457,351.2957 171.1093,351.2729 171.5684,351.2048 172.0187,351.092 172.4558,350.9356 172.8754,350.7372 173.2735,350.4985 173.6463,350.222 173.9903,349.9103 174.302,349.5664 174.5785,349.1935 174.8171,348.7954 175.0156,348.3758 175.172,347.9387 175.2848,347.4885 175.3529,347.0293 175.3756,346.5657 175.3529,346.1021 175.2848,345.6429 175.172,345.1927 175.0156,344.7556 174.8171,344.336 174.5785,343.9379 174.302,343.565 173.9903,343.2211 173.6463,342.9094 173.2735,342.6329 172.8754,342.3942 172.4558,342.1958 172.0187,342.0394 171.5684,341.9266 171.1093,341.8585 170.6457,341.8357 170.1821,341.8585 169.7229,341.9266 169.2726,342.0394 168.8356,342.1958 168.416,342.3942 168.0178,342.6329 167.645,342.9094 167.3011,343.2211 166.9894,343.565 166.7128,343.9379 166.4742,344.336 166.2757,344.7556 166.1194,345.1927 166.0066,345.6429"/>
    <polygon points="185.9171,342.6472 186.1557,342.2491 186.3542,341.8294 186.5106,341.3924 186.6233,340.9421 186.6914,340.483 186.7142,340.0194 186.6914,339.5557 186.6233,339.0966 186.5106,338.6463 186.3542,338.2093 186.1557,337.7897 185.9171,337.3915 185.6406,337.0187 185.3288,336.6748 184.9849,336.363 184.6121,336.0865 184.2139,335.8479 183.7943,335.6494 183.3573,335.4931 182.907,335.3803 182.4479,335.3122 181.9843,335.2894 181.5206,335.3122 181.0615,335.3803 180.6112,335.4931 180.1742,335.6494 179.7546,335.8479 179.3564,336.0865 178.9836,336.363 178.6397,336.6748 178.3279,337.0187 178.0514,337.3915 177.8128,337.7897 177.6143,338.2093 177.458,338.6463 177.3452,339.0966 177.2771,339.5557 177.2543,340.0194 177.2771,340.483 177.3452,340.9421 177.458,341.3924 177.6143,341.8294 177.8128,342.2491 178.0514,342.6472 178.3279,343.02 178.6397,343.364 178.9836,343.6757 179.3564,343.9522 179.7546,344.1908 180.1742,344.3893 180.6112,344.5457 181.0615,344.6585 181.5206,344.7266 181.9843,344.7493 182.4479,344.7266 182.907,344.6585 183.3573,344.5457 183.7943,344.3893 184.2139,344.1908 184.6121,343.9522 184.9849,343.6757 185.3288,343.364 185.6406,343.02"/>
    <polygon points="186.6233,354.0348 186.6914,353.5757 186.7142,353.112 186.6914,352.6484 186.6233,352.1893 186.5106,351.739 186.3542,351.302 186.1557,350.8823 185.9171,350.4842 185.6406,350.1114 185.3288,349.7674 184.9849,349.4557 184.6121,349.1792 184.2139,348.9406 183.7943,348.7421 183.3573,348.5857 182.907,348.4729 182.4479,348.4048 181.9843,348.3821 181.5206,348.4048 181.0615,348.4729 180.6112,348.5857 180.1742,348.7421 179.7546,348.9406 179.3564,349.1792 178.9836,349.4557 178.6397,349.7674 178.3279,350.1114 178.0514,350.4842 177.8128,350.8823 177.6143,351.302 177.458,351.739 177.3452,352.1893 177.2771,352.6484 177.2543,353.112 177.2771,353.5757 177.3452,354.0348 177.458,354.4851 177.6143,354.9221 177.8128,355.3417 178.0514,355.7399 178.3279,356.1127 178.6397,356.4566 178.9836,356.7684 179.3564,357.0449 179.7546,357.2835 180.1742,357.482 180.6112,357.6383 181.0615,357.7511 181.5206,357.8192 181.9843,357.842 182.4479,357.8192 182.907,357.7511 183.3573,357.6383 183.7943,357.482 184.2139,357.2835 184.6121,357.0449 184.9849,356.7684 185.3288,356.4566 185.6406,356.1127 185.9171,355.7399 186.1557,355.3417 186.3542,354.9221 186.5106,354.4851"/>
    <polygon points="211.4737,358.2853 211.3609,358.7356 211.2928,359.1947 211.27,359.6584 211.2928,360.122 211.3609,360.5811 211.4737,361.0314 211.6301,361.4684 211.8285,361.8881 212.0672,362.2862 212.3437,362.659 212.6554,363.003 212.9993,363.3147 213.3722,363.5912 213.7703,363.8298 214.1899,364.0283 214.627,364.1847 215.0772,364.2975 215.5364,364.3656 216.0,364.3883 216.4636,364.3656 216.9228,364.2975 217.373,364.1847 217.8101,364.0283 218.2297,363.8298 218.6278,363.5912 219.0007,363.3147 219.3446,363.003 219.6563,362.659 219.9328,362.2862 220.1715,361.8881 220.3699,361.4684 220.5263,361.0314 220.6391,360.5811 220.7072,360.122 220.73,359.6584 220.7072,359.1947 220.6391,358.7356 220.5263,358.2853 220.3699,357.8483 220.1715,357.4287 219.9328,357.0305 219.6563,356.6577 219.3446,356.3138 219.0007,356.002 218.6278,355.7255 218.2297,355.4869 217.8101,355.2884 217.373,355.1321 216.9228,355.0193 216.4636,354.9512 216.0,354.9284 215.5364,354.9512 215.0772,355.0193 214.627,355.1321 214.1899,355.2884 213.7703,355.4869 213.3722,355.7255 212.9993,356.002 212.6554,356.3138 212.3437,356.6577 212.0672,357.0305 211.8285,357.4287 211.6301,357.8483"/>
    <polygon points="241.6778,342.9094 241.305,342.6329 240.9069,342.3942 240.4872,342.1958 240.0502,342.0394 239.5999,341.9266 239.1408,341.8585 238.6772,341.8357 238.2135,341.8585 237.7544,341.9266 237.3041,342.0394 236.8671,342.1958 236.4475,342.3942 236.0493,342.6329 235.6765,342.9094 235.3326,343.2211 235.0208,343.565 234.7443,343.9379 234.5057,344.336 234.3072,344.7556 234.1509,345.1927 234.0381,345.6429 233.97,346.1021 233.9472,346.5657 233.97,347.0293 234.0381,347.4885 234.1509,347.9387 234.3072,348.3758 234.5057,348.7954 234.7443,349.1935 235.0208,349.5664 235.3326,349.9103 235.6765,350.222 236.0493,350.4985 236.4475,350.7372 236.8671,350.9356 237.3041,351.092 237.7544,351.2048 238.2135,351.2729 238.6772,351.2957 239.1408,351.2729 239.5999,351.2048 240.0502,351.092 240.4872,350.9356 240.9069,350.7372 241.305,350.4985 241.6778,350.222 242.0218,349.9103 242.3335,349.5664 242.61,349.1935 242.8486,348.7954 243.0471,348.3758 243.2035,347.9387 243.3163,347.4885 243.3844,347.0293 243.4071,346.5657 243.3844,346.1021 243.3163,345.6429 243.2035,345.1927 243.0471,344.7556 242.8486,344.336 242.61,343.9379 242.3335,343.565 242.0218,343.2211"/>
    <polygon points="243.562,338.1487 244.6566,337.9863 245.73,337.7175 246.7719,337.3446 247.7723,336.8715 248.7215,336.3026 249.6103,335.6434 250.4302,334.9003 251.1734,334.0803 251.8326,333.1915 252.4015,332.2423 252.8746,331.242 253.2474,330.2 253.5163,329.1266 253.6787,328.032 253.733,326.9267 253.6787,325.8214 253.5163,324.7268 253.2474,323.6534 252.8746,322.6114 252.4015,321.6111 251.8326,320.6619 251.1734,319.7731 250.4302,318.9531 249.6103,318.21 248.7215,317.5508 247.7723,316.9819 246.7719,316.5087 245.73,316.1359 244.6566,315.8671 243.562,315.7047 242.4567,315.6504 241.3514,315.7047 240.2568,315.8671 239.1834,316.1359 238.1414,316.5087 237.1411,316.9819 236.1919,317.5508 235.3031,318.21 234.4831,318.9531 233.74,319.7731 233.0808,320.6619 232.5119,321.6111 232.0387,322.6114 231.6659,323.6534 231.3971,324.7268 231.2347,325.8214 231.1804,326.9267 231.2347,328.032 231.3971,329.1266 231.6659,330.2 232.0387,331.242 232.5119,332.2423 233.0808,333.1915 233.74,334.0803 234.4831,334.9003 235.3031,335.6434 236.1919,336.3026 237.1411,336.8715 238.1414,337.3446 239.1834,337.7175 240.2568,337.9863 241.3514,338.1487 242.4567,338.203"/>
    <polygon points="253.6721,356.1127 253.9486,355.7399 254.1872,355.3417 254.3857,354.9221 254.542,354.4851 254.6548,354.0348 254.7229,353.5757 254.7457,353.112 254.7229,352.6484 254.6548,352.1893 254.542,351.739 254.3857,351.302 254.1872,350.8823 253.9486,350.4842 253.6721,350.1114 253.3603,349.7674 253.0164,349.4557 252.6436,349.1792 252.2454,348.9406 251.8258,348.7421 251.3888,348.5857 250.9385,348.4729 250.4794,348.4048 250.0157,348.3821 249.5521,348.4048 249.093,348.4729 248.6427,348.5857 248.2057,348.7421 247.7861,348.9406 247.3879,349.1792 247.0151,349.4557 246.6712,349.7674 246.3594,350.1114 246.0829,350.4842 245.8443,350.8823 245.6458,351.302 245.4894,351.739 245.3767,352.1893 245.3086,352.6484 245.2858,353.112 245.3086,353.5757 245.3767,354.0348 245.4894,354.4851 245.6458,354.9221 245.8443,355.3417 246.0829,355.7399 246.3594,356.1127 246.6712,356.4566 247.0151,356.7684 247.3879,357.0449 247.7861,357.2835 248.2057,357.482 248.6427,357.6383 249.093,357.7511 249.5521,357.8192 250.0157,357.842 250.4794,357.8192 250.9385,357.7511 251.3888,357.6383 251.8258,357.482 252.2454,357.2835 252.6436,357.0449 253.0164,356.7684 253.3603,356.4566"/>
    <polygon points="264.355,324.0367 264.6989,323.725 265.0106,323.381 265.2872,323.0082 265.5258,322.6101 265.7243,322.1904 265.8806,321.7534 265.9934,321.3031 266.0615,320.844 266.0843,320.3804 266.0615,319.9167 265.9934,319.4576 265.8806,319.0073 265.7243,318.5703 265.5258,318.1507 265.2872,317.7525 265.0106,317.3797 264.6989,317.0358 264.355,316.724 263.9822,316.4475 263.584,316.2089 263.1644,316.0104 262.7274,315.8541 262.2771,315.7413 261.8179,315.6732 261.3543,315.6504 260.8907,315.6732 260.4316,315.7413 259.9813,315.8541 259.5442,316.0104 259.1246,316.2089 258.7265,316.4475 258.3537,316.724 258.0097,317.0358 257.698,317.3797 257.4215,317.7525 257.1829,318.1507 256.9844,318.5703 256.828,319.0073 256.7152,319.4576 256.6471,319.9167 256.6244,320.3804 256.6471,320.844 256.7152,321.3031 256.828,321.7534 256.9844,322.1904 257.1829,322.6101 257.4215,323.0082 257.698,323.381 258.0097,323.725 258.3537,324.0367 258.7265,324.3132 259.1246,324.5518 259.5442,324.7503 259.9813,324.9067 260.4316,325.0195 260.8907,325.0876 261.3543,325.1103 261.8179,325.0876 262.2771,325.0195 262.7274,324.9067 263.1644,324.7503 263.584,324.5518 263.9822,324.3132"/>
  </g>
</svg>
