<?xml version="1.0" encoding="utf-8" ?>
<svg xmlns="http://www.w3.org/2000/svg" xmlns:cc="http://creativecommons.org/ns" xmlns:dc="http://purl.org/dc/elements/1.1/" xmlns:ev="http://www.w3.org/2001/xml-events" xmlns:inkscape="http://www.inkscape.org/namespaces/inkscape" xmlns:rdf="http://www.w3.org/1999/02/22-rdf-syntax-ns" xmlns:sodipodi="http://sodipodi.sourceforge.net/DTD/sodipodi-0.dtd" xmlns:xlink="http://www.w3.org/1999/xlink" baseProfile="tiny" height="15.875cm" version="1.2" viewBox="0 0 432.0 600.0" width="11.43cm">
  <metadata>
    <rdf:RDF>
      <cc:Work>
        <dc:format>image/svg+xml</dc:format>
        <dc:source>vsk save -s 166 -c hex-grid/config/bubble-coasters-2.json /Users/tobin/src/fabian/plotting/fabian-plotting/hex-grid/sketch_hex_grid.py</dc:source>
        <dc:date>2023-11-04T10:32:59.651488</dc:date>
      </cc:Work>
    </rdf:RDF>
  </metadata>
  <defs/>
  <g fill="none" id="layer1" inkscape:groupmode="layer" inkscape:label="1" stroke="#000000" stroke-width="0.7559" style="display:inline">
    <polygon points="93.592,213.4626 93.155,213.619 92.7047,213.7318 92.2456,213.7999 91.782,213.8227 91.3183,213.7999 90.8592,213.7318 90.4089,213.619 89.9719,213.4626 89.5523,213.2642 89.1541,213.0255 88.7813,212.749 88.4374,212.4373 88.1256,212.0934 87.8491,211.7205 87.6105,211.3224 87.412,210.9028 87.2556,210.4657 87.1429,210.0155 87.0748,209.5563 87.052,209.0927 87.0748,208.6291 87.1429,208.1699 87.2556,207.7197 87.412,207.2826 87.6105,206.863 87.8491,206.4649 88.1256,206.092 88.4374,205.7481 88.7813,205.4364 89.1541,205.1599 89.5523,204.9212 89.9719,204.7228 90.4089,204.5664 90.8592,204.4536 91.3183,204.3855 91.782,204.3627 92.2456,204.3855 92.7047,204.4536 93.155,204.5664 93.592,204.7228 94.0116,204.9212 94.4098,205.1599 94.7826,205.4364 95.1265,205.7481 95.4383,206.092 95.7148,206.4649 95.9534,206.863 96.1519,207.2826 96.3083,207.7197 96.421,208.1699 96.4891,208.6291 96.5119,209.0927 96.4891,209.5563 96.421,210.0155 96.3083,210.4657 96.1519,210.9028 95.9534,211.3224 95.7148,211.7205 95.4383,212.0934 95.1265,212.4373 94.7826,212.749 94.4098,213.0255 94.0116,213.2642"/>
    <polygon points="96.1519,220.3753 96.3083,220.8123 96.421,221.2626 96.4891,221.7217 96.5119,222.1854 96.4891,222.649 96.421,223.1081 96.3083,223.5584 96.1519,223.9954 95.9534,224.4151 95.7148,224.8132 95.4383,225.186 95.1265,225.53 94.7826,225.8417 94.4098,226.1182 94.0116,226.3568 93.592,226.5553 93.155,226.7117 92.7047,226.8244 92.2456,226.8926 91.782,226.9153 91.3183,226.8926 90.8592,226.8244 90.4089,226.7117 89.9719,226.5553 89.5523,226.3568 89.1541,226.1182 88.7813,225.8417 88.4374,225.53 88.1256,225.186 87.8491,224.8132 87.6105,224.4151 87.412,223.9954 87.2556,223.5584 87.1429,223.1081 87.0748,222.649 87.052,222.1854 87.0748,221.7217 87.1429,221.2626 87.2556,220.8123 87.412,220.3753 87.6105,219.9557 87.8491,219.5575 88.1256,219.1847 88.4374,218.8408 88.7813,218.529 89.1541,218.2525 89.5523,218.0139 89.9719,217.8154 90.4089,217.6591 90.8592,217.5463 91.3183,217.4782 91.782,217.4554 92.2456,217.4782 92.7047,217.5463 93.155,217.6591 93.592,217.8154 94.0116,218.0139 94.4098,218.2525 94.7826,218.529 95.1265,218.8408 95.4383,219.1847 95.7148,219.5575 95.9534,219.9557"/>
    <polygon points="104.4936,233.258 104.0433,233.3708 103.5842,233.4389 103.1205,233.4617 102.6569,233.4389 102.1978,233.3708 101.7475,233.258 101.3105,233.1016 100.8908,232.9032 100.4927,232.6645 100.1199,232.388 99.7759,232.0763 99.4642,231.7324 99.1877,231.3595 98.9491,230.9614 98.7506,230.5418 98.5942,230.1047 98.4814,229.6545 98.4133,229.1953 98.3906,228.7317 98.4133,228.2681 98.4814,227.8089 98.5942,227.3587 98.7506,226.9216 98.9491,226.502 99.1877,226.1039 99.4642,225.731 99.7759,225.3871 100.1199,225.0754 100.4927,224.7989 100.8908,224.5602 101.3105,224.3618 101.7475,224.2054 102.1978,224.0926 102.6569,224.0245 103.1205,224.0017 103.5842,224.0245 104.0433,224.0926 104.4936,224.2054 104.9306,224.3618 105.3502,224.5602 105.7484,224.7989 106.1212,225.0754 106.4651,225.3871 106.7769,225.731 107.0534,226.1039 107.292,226.502 107.4905,226.9216 107.6468,227.3587 107.7596,227.8089 107.8277,228.2681 107.8505,228.7317 107.8277,229.1953 107.7596,229.6545 107.6468,230.1047 107.4905,230.5418 107.292,230.9614 107.0534,231.3595 106.7769,231.7324 106.4651,232.0763 106.1212,232.388 105.7484,232.6645 105.3502,232.9032 104.9306,233.1016"/>
    <polygon points="111.1145,238.6226 110.8028,238.2787 110.5263,237.9059 110.2877,237.5077 110.0892,237.0881 109.9328,236.6511 109.82,236.2008 109.7519,235.7416 109.7291,235.278 109.7519,234.8144 109.82,234.3553 109.9328,233.905 110.0892,233.4679 110.2877,233.0483 110.5263,232.6502 110.8028,232.2774 111.1145,231.9334 111.4585,231.6217 111.8313,231.3452 112.2294,231.1066 112.649,230.9081 113.0861,230.7517 113.5363,230.6389 113.9955,230.5708 114.4591,230.5481 114.9227,230.5708 115.3819,230.6389 115.8322,230.7517 116.2692,230.9081 116.6888,231.1066 117.0869,231.3452 117.4598,231.6217 117.8037,231.9334 118.1154,232.2774 118.3919,232.6502 118.6306,233.0483 118.829,233.4679 118.9854,233.905 119.0982,234.3553 119.1663,234.8144 119.1891,235.278 119.1663,235.7416 119.0982,236.2008 118.9854,236.6511 118.829,237.0881 118.6306,237.5077 118.3919,237.9059 118.1154,238.2787 117.8037,238.6226 117.4598,238.9343 117.0869,239.2109 116.6888,239.4495 116.2692,239.648 115.8322,239.8043 115.3819,239.9171 114.9227,239.9852 114.4591,240.008 113.9955,239.9852 113.5363,239.9171 113.0861,239.8043 112.649,239.648 112.2294,239.4495 111.8313,239.2109 111.4585,238.9343"/>
    <polygon points="118.5176,246.1708 118.7865,245.0974 119.1593,244.0554 119.6324,243.0551 120.2013,242.1059 120.8605,241.2171 121.6037,240.3971 122.4236,239.654 123.3124,238.9948 124.2616,238.4259 125.262,237.9527 126.3039,237.5799 127.3773,237.3111 128.472,237.1487 129.5772,237.0944 130.6825,237.1487 131.7771,237.3111 132.8506,237.5799 133.8925,237.9527 134.8928,238.4259 135.842,238.9948 136.7308,239.654 137.5508,240.3971 138.2939,241.2171 138.9531,242.1059 139.522,243.0551 139.9952,244.0554 140.368,245.0974 140.6369,246.1708 140.7992,247.2654 140.8535,248.3707 140.7992,249.476 140.6369,250.5706 140.368,251.644 139.9952,252.6859 139.522,253.6863 138.9531,254.6355 138.2939,255.5243 137.5508,256.3442 136.7308,257.0874 135.842,257.7466 134.8928,258.3155 133.8925,258.7886 132.8506,259.1614 131.7771,259.4303 130.6825,259.5927 129.5772,259.647 128.472,259.5927 127.3773,259.4303 126.3039,259.1614 125.262,258.7886 124.2616,258.3155 123.3124,257.7466 122.4236,257.0874 121.6037,256.3442 120.8605,255.5243 120.2013,254.6355 119.6324,253.6863 119.1593,252.6859 118.7865,251.644 118.5176,250.5706 118.3552,249.476 118.3009,248.3707 118.3552,247.2654"/>
    <polygon points="118.1154,264.464 117.8037,264.808 117.4598,265.1197 117.0869,265.3962 116.6888,265.6348 116.2692,265.8333 115.8322,265.9897 115.3819,266.1024 114.9227,266.1706 114.4591,266.1933 113.9955,266.1706 113.5363,266.1024 113.0861,265.9897 112.649,265.8333 112.2294,265.6348 111.8313,265.3962 111.4585,265.1197 111.1145,264.808 110.8028,264.464 110.5263,264.0912 110.2877,263.6931 110.0892,263.2734 109.9328,262.8364 109.82,262.3861 109.7519,261.927 109.7291,261.4634 109.7519,260.9997 109.82,260.5406 109.9328,260.0903 110.0892,259.6533 110.2877,259.2337 110.5263,258.8355 110.8028,258.4627 111.1145,258.1188 111.4585,257.807 111.8313,257.5305 112.2294,257.2919 112.649,257.0934 113.0861,256.9371 113.5363,256.8243 113.9955,256.7562 114.4591,256.7334 114.9227,256.7562 115.3819,256.8243 115.8322,256.9371 116.2692,257.0934 116.6888,257.2919 117.0869,257.5305 117.4598,257.807 117.8037,258.1188 118.1154,258.4627 118.3919,258.8355 118.6306,259.2337 118.829,259.6533 118.9854,260.0903 119.0982,260.5406 119.1663,260.9997 119.1891,261.4634 119.1663,261.927 119.0982,262.3861 118.9854,262.8364 118.829,263.2734 118.6306,263.6931 118.3919,264.0912"/>
    <polygon points="119.0982,275.4788 118.9854,275.9291 118.829,276.3661 118.6306,276.7857 118.3919,277.1839 118.1154,277.5567 117.8037,277.9006 117.4598,278.2123 117.0869,278.4889 116.6888,278.7275 116.2692,278.926 115.8322,279.0823 115.3819,279.1951 114.9227,279.2632 114.4591,279.286 113.9955,279.2632 113.5363,279.1951 113.0861,279.0823 112.649,278.926 112.2294,278.7275 111.8313,278.4889 111.4585,278.2123 111.1145,277.9006 110.8028,277.5567 110.5263,277.1839 110.2877,276.7857 110.0892,276.3661 109.9328,275.9291 109.82,275.4788 109.7519,275.0196 109.7291,274.556 109.7519,274.0924 109.82,273.6333 109.9328,273.183 110.0892,272.7459 110.2877,272.3263 110.5263,271.9282 110.8028,271.5554 111.1145,271.2114 111.4585,270.8997 111.8313,270.6232 112.2294,270.3846 112.649,270.1861 113.0861,270.0297 113.5363,269.9169 113.9955,269.8488 114.4591,269.8261 114.9227,269.8488 115.3819,269.9169 115.8322,270.0297 116.2692,270.1861 116.6888,270.3846 117.0869,270.6232 117.4598,270.8997 117.8037,271.2114 118.1154,271.5554 118.3919,271.9282 118.6306,272.3263 118.829,272.7459 118.9854,273.183 119.0982,273.6333 119.1663,274.0924 119.1891,274.556 119.1663,275.0196"/>
    <polygon points="113.9955,282.9415 114.4591,282.9187 114.9227,282.9415 115.3819,283.0096 115.8322,283.1224 116.2692,283.2788 116.6888,283.4772 117.0869,283.7159 117.4598,283.9924 117.8037,284.3041 118.1154,284.648 118.3919,285.0209 118.6306,285.419 118.829,285.8386 118.9854,286.2757 119.0982,286.7259 119.1663,287.1851 119.1891,287.6487 119.1663,288.1123 119.0982,288.5715 118.9854,289.0217 118.829,289.4588 118.6306,289.8784 118.3919,290.2765 118.1154,290.6494 117.8037,290.9933 117.4598,291.305 117.0869,291.5815 116.6888,291.8202 116.2692,292.0186 115.8322,292.175 115.3819,292.2878 114.9227,292.3559 114.4591,292.3787 113.9955,292.3559 113.5363,292.2878 113.0861,292.175 112.649,292.0186 112.2294,291.8202 111.8313,291.5815 111.4585,291.305 111.1145,290.9933 110.8028,290.6494 110.5263,290.2765 110.2877,289.8784 110.0892,289.4588 109.9328,289.0217 109.82,288.5715 109.7519,288.1123 109.7291,287.6487 109.7519,287.1851 109.82,286.7259 109.9328,286.2757 110.0892,285.8386 110.2877,285.419 110.5263,285.0209 110.8028,284.648 111.1145,284.3041 111.4585,283.9924 111.8313,283.7159 112.2294,283.4772 112.649,283.2788 113.0861,283.1224 113.5363,283.0096"/>
    <polygon points="88.7813,278.2123 88.4374,277.9006 88.1256,277.5567 87.8491,277.1839 87.6105,276.7857 87.412,276.3661 87.2556,275.9291 87.1429,275.4788 87.0748,275.0196 87.052,274.556 87.0748,274.0924 87.1429,273.6333 87.2556,273.183 87.412,272.7459 87.6105,272.3263 87.8491,271.9282 88.1256,271.5554 88.4374,271.2114 88.7813,270.8997 89.1541,270.6232 89.5523,270.3846 89.9719,270.1861 90.4089,270.0297 90.8592,269.9169 91.3183,269.8488 91.782,269.8261 92.2456,269.8488 92.7047,269.9169 93.155,270.0297 93.592,270.1861 94.0116,270.3846 94.4098,270.6232 94.7826,270.8997 95.1265,271.2114 95.4383,271.5554 95.7148,271.9282 95.9534,272.3263 96.1519,272.7459 96.3083,273.183 96.421,273.6333 96.4891,274.0924 96.5119,274.556 96.4891,275.0196 96.421,275.4788 96.3083,275.9291 96.1519,276.3661 95.9534,276.7857 95.7148,277.1839 95.4383,277.5567 95.1265,277.9006 94.7826,278.2123 94.4098,278.4889 94.0116,278.7275 93.592,278.926 93.155,279.0823 92.7047,279.1951 92.2456,279.2632 91.782,279.286 91.3183,279.2632 90.8592,279.1951 90.4089,279.0823 89.9719,278.926 89.5523,278.7275 89.1541,278.4889"/>
    <polygon points="88.1256,290.6494 87.8491,290.2765 87.6105,289.8784 87.412,289.4588 87.2556,289.0217 87.1429,288.5715 87.0748,288.1123 87.052,287.6487 87.0748,287.1851 87.1429,286.7259 87.2556,286.2757 87.412,285.8386 87.6105,285.419 87.8491,285.0209 88.1256,284.648 88.4374,284.3041 88.7813,283.9924 89.1541,283.7159 89.5523,283.4772 89.9719,283.2788 90.4089,283.1224 90.8592,283.0096 91.3183,282.9415 91.782,282.9187 92.2456,282.9415 92.7047,283.0096 93.155,283.1224 93.592,283.2788 94.0116,283.4772 94.4098,283.7159 94.7826,283.9924 95.1265,284.3041 95.4383,284.648 95.7148,285.0209 95.9534,285.419 96.1519,285.8386 96.3083,286.2757 96.421,286.7259 96.4891,287.1851 96.5119,287.6487 96.4891,288.1123 96.421,288.5715 96.3083,289.0217 96.1519,289.4588 95.9534,289.8784 95.7148,290.2765 95.4383,290.6494 95.1265,290.9933 94.7826,291.305 94.4098,291.5815 94.0116,291.8202 93.592,292.0186 93.155,292.175 92.7047,292.2878 92.2456,292.3559 91.782,292.3787 91.3183,292.3559 90.8592,292.2878 90.4089,292.175 89.9719,292.0186 89.5523,291.8202 89.1541,291.5815 88.7813,291.305 88.4374,290.9933"/>
    <polygon points="98.4814,295.1178 98.4133,294.6586 98.3906,294.195 98.4133,293.7314 98.4814,293.2723 98.5942,292.822 98.7506,292.3849 98.9491,291.9653 99.1877,291.5672 99.4642,291.1944 99.7759,290.8504 100.1199,290.5387 100.4927,290.2622 100.8908,290.0236 101.3105,289.8251 101.7475,289.6687 102.1978,289.5559 102.6569,289.4878 103.1205,289.4651 103.5842,289.4878 104.0433,289.5559 104.4936,289.6687 104.9306,289.8251 105.3502,290.0236 105.7484,290.2622 106.1212,290.5387 106.4651,290.8504 106.7769,291.1944 107.0534,291.5672 107.292,291.9653 107.4905,292.3849 107.6468,292.822 107.7596,293.2723 107.8277,293.7314 107.8505,294.195 107.8277,294.6586 107.7596,295.1178 107.6468,295.5681 107.4905,296.0051 107.292,296.4247 107.0534,296.8229 106.7769,297.1957 106.4651,297.5396 106.1212,297.8513 105.7484,298.1279 105.3502,298.3665 104.9306,298.565 104.4936,298.7213 104.0433,298.8341 103.5842,298.9022 103.1205,298.925 102.6569,298.9022 102.1978,298.8341 101.7475,298.7213 101.3105,298.565 100.8908,298.3665 100.4927,298.1279 100.1199,297.8513 99.7759,297.5396 99.4642,297.1957 99.1877,296.8229 98.9491,296.4247 98.7506,296.0051 98.5942,295.5681"/>
    <polygon points="121.6037,308.7149 120.8605,307.895 120.2013,307.0061 119.6324,306.057 119.1593,305.0566 118.7865,304.0147 118.5176,302.9413 118.3552,301.8466 118.3009,300.7414 118.3552,299.6361 118.5176,298.5415 118.7865,297.468 119.1593,296.4261 119.6324,295.4257 120.2013,294.4766 120.8605,293.5878 121.6037,292.7678 122.4236,292.0247 123.3124,291.3655 124.2616,290.7965 125.262,290.3234 126.3039,289.9506 127.3773,289.6817 128.472,289.5194 129.5772,289.4651 130.6825,289.5194 131.7771,289.6817 132.8506,289.9506 133.8925,290.3234 134.8928,290.7965 135.842,291.3655 136.7308,292.0247 137.5508,292.7678 138.2939,293.5878 138.9531,294.4766 139.522,295.4257 139.9952,296.4261 140.368,297.468 140.6369,298.5415 140.7992,299.6361 140.8535,300.7414 140.7992,301.8466 140.6369,302.9413 140.368,304.0147 139.9952,305.0566 139.522,306.057 138.9531,307.0061 138.2939,307.895 137.5508,308.7149 136.7308,309.4581 135.842,310.1173 134.8928,310.6862 133.8925,311.1593 132.8506,311.5321 131.7771,311.801 130.6825,311.9634 129.5772,312.0177 128.472,311.9634 127.3773,311.801 126.3039,311.5321 125.262,311.1593 124.2616,310.6862 123.3124,310.1173 122.4236,309.4581"/>
    <polygon points="112.2294,318.0055 111.8313,317.7669 111.4585,317.4903 111.1145,317.1786 110.8028,316.8347 110.5263,316.4619 110.2877,316.0637 110.0892,315.6441 109.9328,315.2071 109.82,314.7568 109.7519,314.2976 109.7291,313.834 109.7519,313.3704 109.82,312.9113 109.9328,312.461 110.0892,312.0239 110.2877,311.6043 110.5263,311.2062 110.8028,310.8334 111.1145,310.4894 111.4585,310.1777 111.8313,309.9012 112.2294,309.6626 112.649,309.4641 113.0861,309.3077 113.5363,309.1949 113.9955,309.1268 114.4591,309.1041 114.9227,309.1268 115.3819,309.1949 115.8322,309.3077 116.2692,309.4641 116.6888,309.6626 117.0869,309.9012 117.4598,310.1777 117.8037,310.4894 118.1154,310.8334 118.3919,311.2062 118.6306,311.6043 118.829,312.0239 118.9854,312.461 119.0982,312.9113 119.1663,313.3704 119.1891,313.834 119.1663,314.2976 119.0982,314.7568 118.9854,315.2071 118.829,315.6441 118.6306,316.0637 118.3919,316.4619 118.1154,316.8347 117.8037,317.1786 117.4598,317.4903 117.0869,317.7669 116.6888,318.0055 116.2692,318.204 115.8322,318.3603 115.3819,318.4731 114.9227,318.5412 114.4591,318.564 113.9955,318.5412 113.5363,318.4731 113.0861,318.3603 112.649,318.204"/>
    <polygon points="125.3341,325.0876 124.8749,325.0195 124.4247,324.9067 123.9876,324.7503 123.568,324.5518 123.1699,324.3132 122.797,324.0367 122.4531,323.725 122.1414,323.381 121.8649,323.0082 121.6262,322.6101 121.4278,322.1904 121.2714,321.7534 121.1586,321.3031 121.0905,320.844 121.0677,320.3804 121.0905,319.9167 121.1586,319.4576 121.2714,319.0073 121.4278,318.5703 121.6262,318.1507 121.8649,317.7525 122.1414,317.3797 122.4531,317.0358 122.797,316.724 123.1699,316.4475 123.568,316.2089 123.9876,316.0104 124.4247,315.8541 124.8749,315.7413 125.3341,315.6732 125.7977,315.6504 126.2613,315.6732 126.7205,315.7413 127.1707,315.8541 127.6078,316.0104 128.0274,316.2089 128.4255,316.4475 128.7984,316.724 129.1423,317.0358 129.454,317.3797 129.7305,317.7525 129.9692,318.1507 130.1676,318.5703 130.324,319.0073 130.4368,319.4576 130.5049,319.9167 130.5277,320.3804 130.5049,320.844 130.4368,321.3031 130.324,321.7534 130.1676,322.1904 129.9692,322.6101 129.7305,323.0082 129.454,323.381 129.1423,323.725 128.7984,324.0367 128.4255,324.3132 128.0274,324.5518 127.6078,324.7503 127.1707,324.9067 126.7205,325.0195 126.2613,325.0876 125.7977,325.1103"/>
    <polygon points="136.2135,322.2876 136.6727,322.2195 137.1363,322.1967 137.5999,322.2195 138.0591,322.2876 138.5093,322.4004 138.9464,322.5568 139.366,322.7552 139.7641,322.9939 140.1369,323.2704 140.4809,323.5821 140.7926,323.926 141.0691,324.2989 141.3077,324.697 141.5062,325.1166 141.6626,325.5537 141.7754,326.0039 141.8435,326.4631 141.8663,326.9267 141.8435,327.3903 141.7754,327.8495 141.6626,328.2997 141.5062,328.7368 141.3077,329.1564 141.0691,329.5545 140.7926,329.9274 140.4809,330.2713 140.1369,330.583 139.7641,330.8595 139.366,331.0982 138.9464,331.2966 138.5093,331.453 138.0591,331.5658 137.5999,331.6339 137.1363,331.6567 136.6727,331.6339 136.2135,331.5658 135.7632,331.453 135.3262,331.2966 134.9066,331.0982 134.5084,330.8595 134.1356,330.583 133.7917,330.2713 133.48,329.9274 133.2035,329.5545 132.9648,329.1564 132.7664,328.7368 132.61,328.2997 132.4972,327.8495 132.4291,327.3903 132.4063,326.9267 132.4291,326.4631 132.4972,326.0039 132.61,325.5537 132.7664,325.1166 132.9648,324.697 133.2035,324.2989 133.48,323.926 133.7917,323.5821 134.1356,323.2704 134.5084,322.9939 134.9066,322.7552 135.3262,322.5568 135.7632,322.4004"/>
    <polygon points="147.9391,303.4161 148.9811,303.0433 150.0545,302.7744 151.1491,302.612 152.2544,302.5577 153.3597,302.612 154.4543,302.7744 155.5277,303.0433 156.5696,303.4161 157.57,303.8892 158.5192,304.4581 159.408,305.1173 160.2279,305.8605 160.9711,306.6804 161.6303,307.5693 162.1992,308.5184 162.6723,309.5188 163.0451,310.5607 163.314,311.6341 163.4764,312.7288 163.5307,313.834 163.4764,314.9393 163.314,316.0339 163.0451,317.1074 162.6723,318.1493 162.1992,319.1496 161.6303,320.0988 160.9711,320.9876 160.2279,321.8076 159.408,322.5507 158.5192,323.2099 157.57,323.7788 156.5696,324.252 155.5277,324.6248 154.4543,324.8937 153.3597,325.056 152.2544,325.1103 151.1491,325.056 150.0545,324.8937 148.9811,324.6248 147.9391,324.252 146.9388,323.7788 145.9896,323.2099 145.1008,322.5507 144.2808,321.8076 143.5377,320.9876 142.8785,320.0988 142.3096,319.1496 141.8364,318.1493 141.4636,317.1074 141.1948,316.0339 141.0324,314.9393 140.9781,313.834 141.0324,312.7288 141.1948,311.6341 141.4636,310.5607 141.8364,309.5188 142.3096,308.5184 142.8785,307.5693 143.5377,306.6804 144.2808,305.8605 145.1008,305.1173 145.9896,304.4581 146.9388,303.8892"/>
    <polygon points="153.2048,333.473 153.1821,333.0094 153.114,332.5503 153.0012,332.1 152.8448,331.663 152.6463,331.2433 152.4077,330.8452 152.1312,330.4724 151.8195,330.1284 151.4755,329.8167 151.1027,329.5402 150.7046,329.3016 150.2849,329.1031 149.8479,328.9467 149.3976,328.8339 148.9385,328.7658 148.4749,328.7431 148.0112,328.7658 147.5521,328.8339 147.1018,328.9467 146.6648,329.1031 146.2452,329.3016 145.847,329.5402 145.4742,329.8167 145.1303,330.1284 144.8185,330.4724 144.542,330.8452 144.3034,331.2433 144.1049,331.663 143.9486,332.1 143.8358,332.5503 143.7677,333.0094 143.7449,333.473 143.7677,333.9367 143.8358,334.3958 143.9486,334.8461 144.1049,335.2831 144.3034,335.7027 144.542,336.1009 144.8185,336.4737 145.1303,336.8176 145.4742,337.1294 145.847,337.4059 146.2452,337.6445 146.6648,337.843 147.1018,337.9993 147.5521,338.1121 148.0112,338.1802 148.4749,338.203 148.9385,338.1802 149.3976,338.1121 149.8479,337.9993 150.2849,337.843 150.7046,337.6445 151.1027,337.4059 151.4755,337.1294 151.8195,336.8176 152.1312,336.4737 152.4077,336.1009 152.6463,335.7027 152.8448,335.2831 153.0012,334.8461 153.114,334.3958 153.1821,333.9367"/>
    <polygon points="164.1408,330.2 164.5136,331.242 164.9867,332.2423 165.5557,333.1915 166.2149,334.0803 166.958,334.9003 167.7779,335.6434 168.6668,336.3026 169.6159,336.8715 170.6163,337.3446 171.6582,337.7175 172.7317,337.9863 173.8263,338.1487 174.9316,338.203 176.0368,338.1487 177.1315,337.9863 178.2049,337.7175 179.2468,337.3446 180.2472,336.8715 181.1963,336.3026 182.0852,335.6434 182.9051,334.9003 183.6483,334.0803 184.3075,333.1915 184.8764,332.2423 185.3495,331.242 185.7223,330.2 185.9912,329.1266 186.1536,328.032 186.2079,326.9267 186.1536,325.8214 185.9912,324.7268 185.7223,323.6534 185.3495,322.6114 184.8764,321.6111 184.3075,320.6619 183.6483,319.7731 182.9051,318.9531 182.0852,318.21 181.1963,317.5508 180.2472,316.9819 179.2468,316.5087 178.2049,316.1359 177.1315,315.8671 176.0368,315.7047 174.9316,315.6504 173.8263,315.7047 172.7317,315.8671 171.6582,316.1359 170.6163,316.5087 169.6159,316.9819 168.6668,317.5508 167.7779,318.21 166.958,318.9531 166.2149,319.7731 165.5557,320.6619 164.9867,321.6111 164.5136,322.6114 164.1408,323.6534 163.8719,324.7268 163.7095,325.8214 163.6553,326.9267 163.7095,328.032 163.8719,329.1266"/>
    <polygon points="166.2149,360.2656 166.958,361.0856 167.7779,361.8287 168.6668,362.4879 169.6159,363.0568 170.6163,363.53 171.6582,363.9028 172.7317,364.1717 173.8263,364.334 174.9316,364.3883 176.0368,364.334 177.1315,364.1717 178.2049,363.9028 179.2468,363.53 180.2472,363.0568 181.1963,362.4879 182.0852,361.8287 182.9051,361.0856 183.6483,360.2656 184.3075,359.3768 184.8764,358.4276 185.3495,357.4273 185.7223,356.3854 185.9912,355.3119 186.1536,354.2173 186.2079,353.112 186.1536,352.0068 185.9912,350.9121 185.7223,349.8387 185.3495,348.7968 184.8764,347.7964 184.3075,346.8473 183.6483,345.9584 182.9051,345.1385 182.0852,344.3953 181.1963,343.7361 180.2472,343.1672 179.2468,342.6941 178.2049,342.3213 177.1315,342.0524 176.0368,341.89 174.9316,341.8357 173.8263,341.89 172.7317,342.0524 171.6582,342.3213 170.6163,342.6941 169.6159,343.1672 168.6668,343.7361 167.7779,344.3953 166.958,345.1385 166.2149,345.9584 165.5557,346.8473 164.9867,347.7964 164.5136,348.7968 164.1408,349.8387 163.8719,350.9121 163.7095,352.0068 163.6553,353.112 163.7095,354.2173 163.8719,355.3119 164.1408,356.3854 164.5136,357.4273 164.9867,358.4276 165.5557,359.3768"/>
    <polygon points="156.4689,369.5493 156.8128,369.861 157.1856,370.1375 157.5838,370.3762 158.0034,370.5746 158.4404,370.731 158.8907,370.8438 159.3498,370.9119 159.8134,370.9347 160.2771,370.9119 160.7362,370.8438 161.1865,370.731 161.6235,370.5746 162.0431,370.3762 162.4413,370.1375 162.8141,369.861 163.158,369.5493 163.4698,369.2054 163.7463,368.8325 163.9849,368.4344 164.1834,368.0148 164.3397,367.5777 164.4525,367.1275 164.5206,366.6683 164.5434,366.2047 164.5206,365.7411 164.4525,365.2819 164.3397,364.8317 164.1834,364.3946 163.9849,363.975 163.7463,363.5769 163.4698,363.204 163.158,362.8601 162.8141,362.5484 162.4413,362.2719 162.0431,362.0332 161.6235,361.8348 161.1865,361.6784 160.7362,361.5656 160.2771,361.4975 159.8134,361.4747 159.3498,361.4975 158.8907,361.5656 158.4404,361.6784 158.0034,361.8348 157.5838,362.0332 157.1856,362.2719 156.8128,362.5484 156.4689,362.8601 156.1571,363.204 155.8806,363.5769 155.642,363.975 155.4435,364.3946 155.2871,364.8317 155.1744,365.2819 155.1063,365.7411 155.0835,366.2047 155.1063,366.6683 155.1744,367.1275 155.2871,367.5777 155.4435,368.0148 155.642,368.4344 155.8806,368.8325 156.1571,369.2054"/>
    <polygon points="174.8083,375.7517 174.4966,376.0956 174.1527,376.4074 173.7799,376.6839 173.3817,376.9225 172.9621,377.121 172.5251,377.2773 172.0748,377.3901 171.6156,377.4582 171.152,377.481 170.6884,377.4582 170.2293,377.3901 169.779,377.2773 169.3419,377.121 168.9223,376.9225 168.5242,376.6839 168.1514,376.4074 167.8074,376.0956 167.4957,375.7517 167.2192,375.3789 166.9806,374.9807 166.7821,374.5611 166.6257,374.1241 166.5129,373.6738 166.4448,373.2147 166.4221,372.751 166.4448,372.2874 166.5129,371.8283 166.6257,371.378 166.7821,370.941 166.9806,370.5213 167.2192,370.1232 167.4957,369.7504 167.8074,369.4064 168.1514,369.0947 168.5242,368.8182 168.9223,368.5796 169.3419,368.3811 169.779,368.2247 170.2293,368.1119 170.6884,368.0438 171.152,368.0211 171.6156,368.0438 172.0748,368.1119 172.5251,368.2247 172.9621,368.3811 173.3817,368.5796 173.7799,368.8182 174.1527,369.0947 174.4966,369.4064 174.8083,369.7504 175.0849,370.1232 175.3235,370.5213 175.522,370.941 175.6783,371.378 175.7911,371.8283 175.8592,372.2874 175.882,372.751 175.8592,373.2147 175.7911,373.6738 175.6783,374.1241 175.522,374.5611 175.3235,374.9807 175.0849,375.3789"/>
    <polygon points="187.1978,379.761 187.2206,379.2974 187.1978,378.8338 187.1297,378.3746 187.0169,377.9243 186.8605,377.4873 186.6621,377.0677 186.4234,376.6695 186.1469,376.2967 185.8352,375.9528 185.4913,375.6411 185.1184,375.3645 184.7203,375.1259 184.3007,374.9274 183.8637,374.7711 183.4134,374.6583 182.9542,374.5902 182.4906,374.5674 182.027,374.5902 181.5678,374.6583 181.1176,374.7711 180.6805,374.9274 180.2609,375.1259 179.8628,375.3645 179.4899,375.6411 179.146,375.9528 178.8343,376.2967 178.5578,376.6695 178.3191,377.0677 178.1207,377.4873 177.9643,377.9243 177.8515,378.3746 177.7834,378.8338 177.7606,379.2974 177.7834,379.761 177.8515,380.2201 177.9643,380.6704 178.1207,381.1075 178.3191,381.5271 178.5578,381.9252 178.8343,382.298 179.146,382.642 179.4899,382.9537 179.8628,383.2302 180.2609,383.4688 180.6805,383.6673 181.1176,383.8237 181.5678,383.9365 182.027,384.0046 182.4906,384.0273 182.9542,384.0046 183.4134,383.9365 183.8637,383.8237 184.3007,383.6673 184.7203,383.4688 185.1184,383.2302 185.4913,382.9537 185.8352,382.642 186.1469,382.298 186.4234,381.9252 186.6621,381.5271 186.8605,381.1075 187.0169,380.6704 187.1297,380.2201"/>
    <polygon points="191.5995,381.6722 191.2014,381.9109 190.8285,382.1874 190.4846,382.4991 190.1729,382.843 189.8964,383.2159 189.6577,383.614 189.4593,384.0336 189.3029,384.4707 189.1901,384.9209 189.122,385.3801 189.0992,385.8437 189.122,386.3073 189.1901,386.7665 189.3029,387.2167 189.4593,387.6538 189.6577,388.0734 189.8964,388.4715 190.1729,388.8444 190.4846,389.1883 190.8285,389.5 191.2014,389.7765 191.5995,390.0152 192.0191,390.2136 192.4562,390.37 192.9064,390.4828 193.3656,390.5509 193.8292,390.5737 194.2928,390.5509 194.752,390.4828 195.2022,390.37 195.6393,390.2136 196.0589,390.0152 196.457,389.7765 196.8299,389.5 197.1738,389.1883 197.4855,388.8444 197.762,388.4715 198.0007,388.0734 198.1991,387.6538 198.3555,387.2167 198.4683,386.7665 198.5364,386.3073 198.5592,385.8437 198.5364,385.3801 198.4683,384.9209 198.3555,384.4707 198.1991,384.0336 198.0007,383.614 197.762,383.2159 197.4855,382.843 197.1738,382.4991 196.8299,382.1874 196.457,381.9109 196.0589,381.6722 195.6393,381.4738 195.2022,381.3174 194.752,381.2046 194.2928,381.1365 193.8292,381.1137 193.3656,381.1365 192.9064,381.2046 192.4562,381.3174 192.0191,381.4738"/>
    <polygon points="192.2931,356.2599 193.2935,355.7868 194.3354,355.4139 195.4088,355.1451 196.5035,354.9827 197.6087,354.9284 198.714,354.9827 199.8086,355.1451 200.8821,355.4139 201.924,355.7868 202.9243,356.2599 203.8735,356.8288 204.7623,357.488 205.5823,358.2311 206.3254,359.0511 206.9846,359.9399 207.5535,360.8891 208.0267,361.8894 208.3995,362.9314 208.6684,364.0048 208.8307,365.0994 208.885,366.2047 208.8307,367.31 208.6684,368.4046 208.3995,369.478 208.0267,370.52 207.5535,371.5203 206.9846,372.4695 206.3254,373.3583 205.5823,374.1783 204.7623,374.9214 203.8735,375.5806 202.9243,376.1495 201.924,376.6226 200.8821,376.9955 199.8086,377.2643 198.714,377.4267 197.6087,377.481 196.5035,377.4267 195.4088,377.2643 194.3354,376.9955 193.2935,376.6226 192.2931,376.1495 191.3439,375.5806 190.4551,374.9214 189.6352,374.1783 188.892,373.3583 188.2328,372.4695 187.6639,371.5203 187.1908,370.52 186.818,369.478 186.5491,368.4046 186.3867,367.31 186.3324,366.2047 186.3867,365.0994 186.5491,364.0048 186.818,362.9314 187.1908,361.8894 187.6639,360.8891 188.2328,359.9399 188.892,359.0511 189.6352,358.2311 190.4551,357.488 191.3439,356.8288"/>
    <polygon points="208.3995,343.2927 208.0267,344.3346 207.5535,345.335 206.9846,346.2841 206.3254,347.173 205.5823,347.9929 204.7623,348.7361 203.8735,349.3953 202.9243,349.9642 201.924,350.4373 200.8821,350.8101 199.8086,351.079 198.714,351.2414 197.6087,351.2957 196.5035,351.2414 195.4088,351.079 194.3354,350.8101 193.2935,350.4373 192.2931,349.9642 191.3439,349.3953 190.4551,348.7361 189.6352,347.9929 188.892,347.173 188.2328,346.2841 187.6639,345.335 187.1908,344.3346 186.818,343.2927 186.5491,342.2193 186.3867,341.1246 186.3324,340.0194 186.3867,338.9141 186.5491,337.8195 186.818,336.746 187.1908,335.7041 187.6639,334.7038 188.2328,333.7546 188.892,332.8658 189.6352,332.0458 190.4551,331.3027 191.3439,330.6435 192.2931,330.0746 193.2935,329.6014 194.3354,329.2286 195.4088,328.9597 196.5035,328.7974 197.6087,328.7431 198.714,328.7974 199.8086,328.9597 200.8821,329.2286 201.924,329.6014 202.9243,330.0746 203.8735,330.6435 204.7623,331.3027 205.5823,332.0458 206.3254,332.8658 206.9846,333.7546 207.5535,334.7038 208.0267,335.7041 208.3995,336.746 208.6684,337.8195 208.8307,338.9141 208.885,340.0194 208.8307,341.1246 208.6684,342.2193"/>
    <polygon points="231.0766,382.5707 231.3455,381.4973 231.5079,380.4026 231.5622,379.2974 231.5079,378.1921 231.3455,377.0975 231.0766,376.024 230.7038,374.9821 230.2307,373.9818 229.6618,373.0326 229.0026,372.1438 228.2594,371.3238 227.4395,370.5807 226.5507,369.9215 225.6015,369.3526 224.6011,368.8794 223.5592,368.5066 222.4858,368.2377 221.3912,368.0754 220.2859,368.0211 219.1806,368.0754 218.086,368.2377 217.0125,368.5066 215.9706,368.8794 214.9703,369.3526 214.0211,369.9215 213.1323,370.5807 212.3123,371.3238 211.5692,372.1438 210.91,373.0326 210.3411,373.9818 209.8679,374.9821 209.4951,376.024 209.2263,377.0975 209.0639,378.1921 209.0096,379.2974 209.0639,380.4026 209.2263,381.4973 209.4951,382.5707 209.8679,383.6126 210.3411,384.613 210.91,385.5621 211.5692,386.451 212.3123,387.2709 213.1323,388.0141 214.0211,388.6733 214.9703,389.2422 215.9706,389.7153 217.0125,390.0881 218.086,390.357 219.1806,390.5194 220.2859,390.5737 221.3912,390.5194 222.4858,390.357 223.5592,390.0881 224.6011,389.7153 225.6015,389.2422 226.5507,388.6733 227.4395,388.0141 228.2594,387.2709 229.0026,386.451 229.6618,385.5621 230.2307,384.613 230.7038,383.6126"/>
    <polygon points="242.5281,382.4991 242.1842,382.1874 241.8114,381.9109 241.4132,381.6722 240.9936,381.4738 240.5566,381.3174 240.1063,381.2046 239.6471,381.1365 239.1835,381.1137 238.7199,381.1365 238.2608,381.2046 237.8105,381.3174 237.3734,381.4738 236.9538,381.6722 236.5557,381.9109 236.1829,382.1874 235.8389,382.4991 235.5272,382.843 235.2507,383.2159 235.0121,383.614 234.8136,384.0336 234.6572,384.4707 234.5444,384.9209 234.4763,385.3801 234.4536,385.8437 234.4763,386.3073 234.5444,386.7665 234.6572,387.2167 234.8136,387.6538 235.0121,388.0734 235.2507,388.4715 235.5272,388.8444 235.8389,389.1883 236.1829,389.5 236.5557,389.7765 236.9538,390.0152 237.3734,390.2136 237.8105,390.37 238.2608,390.4828 238.7199,390.5509 239.1835,390.5737 239.6471,390.5509 240.1063,390.4828 240.5566,390.37 240.9936,390.2136 241.4132,390.0152 241.8114,389.7765 242.1842,389.5 242.5281,389.1883 242.8398,388.8444 243.1164,388.4715 243.355,388.0734 243.5535,387.6538 243.7098,387.2167 243.8226,386.7665 243.8907,386.3073 243.9135,385.8437 243.8907,385.3801 243.8226,384.9209 243.7098,384.4707 243.5535,384.0336 243.355,383.614 243.1164,383.2159 242.8398,382.843"/>
    <polygon points="248.712,383.6673 249.1491,383.8237 249.5993,383.9365 250.0585,384.0046 250.5221,384.0273 250.9857,384.0046 251.4449,383.9365 251.8951,383.8237 252.3322,383.6673 252.7518,383.4688 253.1499,383.2302 253.5228,382.9537 253.8667,382.642 254.1784,382.298 254.4549,381.9252 254.6936,381.5271 254.892,381.1075 255.0484,380.6704 255.1612,380.2201 255.2293,379.761 255.2521,379.2974 255.2293,378.8338 255.1612,378.3746 255.0484,377.9243 254.892,377.4873 254.6936,377.0677 254.4549,376.6695 254.1784,376.2967 253.8667,375.9528 253.5228,375.6411 253.1499,375.3645 252.7518,375.1259 252.3322,374.9274 251.8951,374.7711 251.4449,374.6583 250.9857,374.5902 250.5221,374.5674 250.0585,374.5902 249.5993,374.6583 249.1491,374.7711 248.712,374.9274 248.2924,375.1259 247.8943,375.3645 247.5214,375.6411 247.1775,375.9528 246.8658,376.2967 246.5893,376.6695 246.3506,377.0677 246.1522,377.4873 245.9958,377.9243 245.883,378.3746 245.8149,378.8338 245.7921,379.2974 245.8149,379.761 245.883,380.2201 245.9958,380.6704 246.1522,381.1075 246.3506,381.5271 246.5893,381.9252 246.8658,382.298 247.1775,382.642 247.5214,382.9537 247.8943,383.2302 248.2924,383.4688"/>
    <polygon points="243.355,370.5213 243.1164,370.1232 242.8398,369.7504 242.5281,369.4064 242.1842,369.0947 241.8114,368.8182 241.4132,368.5796 240.9936,368.3811 240.5566,368.2247 240.1063,368.1119 239.6471,368.0438 239.1835,368.0211 238.7199,368.0438 238.2608,368.1119 237.8105,368.2247 237.3734,368.3811 236.9538,368.5796 236.5557,368.8182 236.1829,369.0947 235.8389,369.4064 235.5272,369.7504 235.2507,370.1232 235.0121,370.5213 234.8136,370.941 234.6572,371.378 234.5444,371.8283 234.4763,372.2874 234.4536,372.751 234.4763,373.2147 234.5444,373.6738 234.6572,374.1241 234.8136,374.5611 235.0121,374.9807 235.2507,375.3789 235.5272,375.7517 235.8389,376.0956 236.1829,376.4074 236.5557,376.6839 236.9538,376.9225 237.3734,377.121 237.8105,377.2773 238.2608,377.3901 238.7199,377.4582 239.1835,377.481 239.6471,377.4582 240.1063,377.3901 240.5566,377.2773 240.9936,377.121 241.4132,376.9225 241.8114,376.6839 242.1842,376.4074 242.5281,376.0956 242.8398,375.7517 243.1164,375.3789 243.355,374.9807 243.5535,374.5611 243.7098,374.1241 243.8226,373.6738 243.8907,373.2147 243.9135,372.751 243.8907,372.2874 243.8226,371.8283 243.7098,371.378 243.5535,370.941"/>
    <polygon points="222.3992,317.9728 220.6273,319.5788 218.7065,321.0034 216.6552,322.2329 214.4934,323.2554 212.2417,324.061 209.9219,324.6421 207.5564,324.993 205.1678,325.1103 202.7792,324.993 200.4136,324.6421 198.0938,324.061 195.8422,323.2554 193.6803,322.2329 191.6291,321.0034 189.7083,319.5788 187.9363,317.9728 186.3303,316.2009 184.9057,314.28 183.6763,312.2288 182.6538,310.067 181.8481,307.8153 181.267,305.4955 180.9161,303.1299 180.7988,300.7414 180.9161,298.3528 181.267,295.9872 181.8481,293.6674 182.6538,291.4158 183.6763,289.2539 184.9057,287.2027 186.3303,285.2819 187.9363,283.5099 189.7083,281.9039 191.6291,280.4793 193.6803,279.2498 195.8422,278.2274 198.0938,277.4217 200.4136,276.8406 202.7792,276.4897 205.1678,276.3724 207.5564,276.4897 209.9219,276.8406 212.2417,277.4217 214.4934,278.2274 216.6552,279.2498 218.7065,280.4793 220.6273,281.9039 222.3992,283.5099 224.0052,285.2819 225.4298,287.2027 226.6593,289.2539 227.6818,291.4158 228.4874,293.6674 229.0685,295.9872 229.4194,298.3528 229.5368,300.7414 229.4194,303.1299 229.0685,305.4955 228.4874,307.8153 227.6818,310.067 226.6593,312.2288 225.4298,314.28 224.0052,316.2009"/>
    <polygon points="216.6552,269.8622 214.4934,270.8847 212.2417,271.6903 209.9219,272.2714 207.5564,272.6223 205.1678,272.7397 202.7792,272.6223 200.4136,272.2714 198.0938,271.6903 195.8422,270.8847 193.6803,269.8622 191.6291,268.6328 189.7083,267.2082 187.9363,265.6022 186.3303,263.8302 184.9057,261.9094 183.6763,259.8581 182.6538,257.6963 181.8481,255.4446 181.267,253.1248 180.9161,250.7593 180.7988,248.3707 180.9161,245.9821 181.267,243.6165 181.8481,241.2968 182.6538,239.0451 183.6763,236.8832 184.9057,234.832 186.3303,232.9112 187.9363,231.1392 189.7083,229.5332 191.6291,228.1086 193.6803,226.8792 195.8422,225.8567 198.0938,225.051 200.4136,224.47 202.7792,224.1191 205.1678,224.0017 207.5564,224.1191 209.9219,224.47 212.2417,225.051 214.4934,225.8567 216.6552,226.8792 218.7065,228.1086 220.6273,229.5332 222.3992,231.1392 224.0052,232.9112 225.4298,234.832 226.6593,236.8832 227.6818,239.0451 228.4874,241.2968 229.0685,243.6165 229.4194,245.9821 229.5368,248.3707 229.4194,250.7593 229.0685,253.1248 228.4874,255.4446 227.6818,257.6963 226.6593,259.8581 225.4298,261.9094 224.0052,263.8302 222.3992,265.6022 220.6273,267.2082 218.7065,268.6328"/>
    <polygon points="233.2906,291.7875 231.6846,290.0155 230.26,288.0947 229.0306,286.0435 228.0081,283.8816 227.2025,281.63 226.6214,279.3102 226.2705,276.9446 226.1531,274.556 226.2705,272.1675 226.6214,269.8019 227.2025,267.4821 228.0081,265.2304 229.0306,263.0686 230.26,261.0174 231.6846,259.0965 233.2906,257.3246 235.0626,255.7186 236.9834,254.294 239.0347,253.0645 241.1965,252.042 243.4482,251.2364 245.768,250.6553 248.1335,250.3044 250.5221,250.1871 252.9107,250.3044 255.2763,250.6553 257.596,251.2364 259.8477,252.042 262.0096,253.0645 264.0608,254.294 265.9816,255.7186 267.7536,257.3246 269.3596,259.0965 270.7842,261.0174 272.0136,263.0686 273.0361,265.2304 273.8418,267.4821 274.4228,269.8019 274.7737,272.1675 274.8911,274.556 274.7737,276.9446 274.4228,279.3102 273.8418,281.63 273.0361,283.8816 272.0136,286.0435 270.7842,288.0947 269.3596,290.0155 267.7536,291.7875 265.9816,293.3935 264.0608,294.8181 262.0096,296.0475 259.8477,297.07 257.596,297.8757 255.2763,298.4568 252.9107,298.8077 250.5221,298.925 248.1335,298.8077 245.768,298.4568 243.4482,297.8757 241.1965,297.07 239.0347,296.0475 236.9834,294.8181 235.0626,293.3935"/>
    <polygon points="289.0642,308.6607 288.9078,309.0978 288.7093,309.5174 288.4707,309.9155 288.1942,310.2884 287.8825,310.6323 287.5385,310.944 287.1657,311.2205 286.7676,311.4592 286.3479,311.6576 285.9109,311.814 285.4606,311.9268 285.0015,311.9949 284.5379,312.0177 284.0742,311.9949 283.6151,311.9268 283.1648,311.814 282.7278,311.6576 282.3082,311.4592 281.91,311.2205 281.5372,310.944 281.1933,310.6323 280.8815,310.2884 280.605,309.9155 280.3664,309.5174 280.1679,309.0978 280.0116,308.6607 279.8988,308.2105 279.8307,307.7513 279.8079,307.2877 279.8307,306.8241 279.8988,306.3649 280.0116,305.9147 280.1679,305.4776 280.3664,305.058 280.605,304.6599 280.8815,304.287 281.1933,303.9431 281.5372,303.6314 281.91,303.3549 282.3082,303.1162 282.7278,302.9178 283.1648,302.7614 283.6151,302.6486 284.0742,302.5805 284.5379,302.5577 285.0015,302.5805 285.4606,302.6486 285.9109,302.7614 286.3479,302.9178 286.7676,303.1162 287.1657,303.3549 287.5385,303.6314 287.8825,303.9431 288.1942,304.287 288.4707,304.6599 288.7093,305.058 288.9078,305.4776 289.0642,305.9147 289.1769,306.3649 289.2451,306.8241 289.2678,307.2877 289.2451,307.7513 289.1769,308.2105"/>
    <polygon points="277.0954,286.5434 277.2577,285.4488 277.5266,284.3754 277.8994,283.3334 278.3726,282.3331 278.9415,281.3839 279.6007,280.4951 280.3438,279.6751 281.1638,278.932 282.0526,278.2728 283.0018,277.7039 284.0021,277.2307 285.044,276.8579 286.1175,276.5891 287.2121,276.4267 288.3174,276.3724 289.4227,276.4267 290.5173,276.5891 291.5907,276.8579 292.6326,277.2307 293.633,277.7039 294.5822,278.2728 295.471,278.932 296.2909,279.6751 297.0341,280.4951 297.6933,281.3839 298.2622,282.3331 298.7353,283.3334 299.1081,284.3754 299.377,285.4488 299.5394,286.5434 299.5937,287.6487 299.5394,288.754 299.377,289.8486 299.1081,290.922 298.7353,291.964 298.2622,292.9643 297.6933,293.9135 297.0341,294.8023 296.2909,295.6222 295.471,296.3654 294.5822,297.0246 293.633,297.5935 292.6326,298.0666 291.5907,298.4394 290.5173,298.7083 289.4227,298.8707 288.3174,298.925 287.2121,298.8707 286.1175,298.7083 285.044,298.4394 284.0021,298.0666 283.0018,297.5935 282.0526,297.0246 281.1638,296.3654 280.3438,295.6222 279.6007,294.8023 278.9415,293.9135 278.3726,292.9643 277.8994,291.964 277.5266,290.922 277.2577,289.8486 277.0954,288.754 277.0411,287.6487"/>
    <polygon points="284.389,269.8622 282.3378,268.6328 280.4169,267.2082 278.645,265.6022 277.039,263.8302 275.6144,261.9094 274.3849,259.8581 273.3624,257.6963 272.5568,255.4446 271.9757,253.1248 271.6248,250.7593 271.5075,248.3707 271.6248,245.9821 271.9757,243.6165 272.5568,241.2968 273.3624,239.0451 274.3849,236.8832 275.6144,234.832 277.039,232.9112 278.645,231.1392 280.4169,229.5332 282.3378,228.1086 284.389,226.8792 286.5508,225.8567 288.8025,225.051 291.1223,224.47 293.4879,224.1191 295.8764,224.0017 298.265,224.1191 300.6306,224.47 302.9504,225.051 305.202,225.8567 307.3639,226.8792 309.4151,228.1086 311.336,229.5332 313.1079,231.1392 314.7139,232.9112 316.1385,234.832 317.368,236.8832 318.3904,239.0451 319.1961,241.2968 319.7772,243.6165 320.1281,245.9821 320.2454,248.3707 320.1281,250.7593 319.7772,253.1248 319.1961,255.4446 318.3904,257.6963 317.368,259.8581 316.1385,261.9094 314.7139,263.8302 313.1079,265.6022 311.336,267.2082 309.4151,268.6328 307.3639,269.8622 305.202,270.8847 302.9504,271.6903 300.6306,272.2714 298.265,272.6223 295.8764,272.7397 293.4879,272.6223 291.1223,272.2714 288.8025,271.6903 286.5508,270.8847"/>
    <polygon points="327.4069,244.6539 326.5181,243.9947 325.6982,243.2516 324.955,242.4316 324.2958,241.5428 323.7269,240.5936 323.2538,239.5933 322.881,238.5514 322.6121,237.4779 322.4497,236.3833 322.3954,235.278 322.4497,234.1728 322.6121,233.0781 322.881,232.0047 323.2538,230.9628 323.7269,229.9624 324.2958,229.0132 324.955,228.1244 325.6982,227.3045 326.5181,226.5613 327.4069,225.9021 328.3561,225.3332 329.3565,224.8601 330.3984,224.4873 331.4718,224.2184 332.5664,224.056 333.6717,224.0017 334.777,224.056 335.8716,224.2184 336.9451,224.4873 337.987,224.8601 338.9873,225.3332 339.9365,225.9021 340.8253,226.5613 341.6453,227.3045 342.3884,228.1244 343.0476,229.0132 343.6165,229.9624 344.0897,230.9628 344.4625,232.0047 344.7314,233.0781 344.8937,234.1728 344.948,235.278 344.8937,236.3833 344.7314,237.4779 344.4625,238.5514 344.0897,239.5933 343.6165,240.5936 343.0476,241.5428 342.3884,242.4316 341.6453,243.2516 340.8253,243.9947 339.9365,244.6539 338.9873,245.2228 337.987,245.696 336.9451,246.0688 335.8716,246.3377 334.777,246.5 333.6717,246.5543 332.5664,246.5 331.4718,246.3377 330.3984,246.0688 329.3565,245.696 328.3561,245.2228"/>
    <polygon points="330.3984,198.3019 329.3565,198.6747 328.3561,199.1479 327.4069,199.7168 326.5181,200.376 325.6982,201.1191 324.955,201.9391 324.2958,202.8279 323.7269,203.7771 323.2538,204.7774 322.881,205.8194 322.6121,206.8928 322.4497,207.9874 322.3954,209.0927 322.4497,210.198 322.6121,211.2926 322.881,212.366 323.2538,213.4079 323.7269,214.4083 324.2958,215.3575 324.955,216.2463 325.6982,217.0662 326.5181,217.8094 327.4069,218.4686 328.3561,219.0375 329.3565,219.5106 330.3984,219.8834 331.4718,220.1523 332.5664,220.3147 333.6717,220.369 334.777,220.3147 335.8716,220.1523 336.9451,219.8834 337.987,219.5106 338.9873,219.0375 339.9365,218.4686 340.8253,217.8094 341.6453,217.0662 342.3884,216.2463 343.0476,215.3575 343.6165,214.4083 344.0897,213.4079 344.4625,212.366 344.7314,211.2926 344.8937,210.198 344.948,209.0927 344.8937,207.9874 344.7314,206.8928 344.4625,205.8194 344.0897,204.7774 343.6165,203.7771 343.0476,202.8279 342.3884,201.9391 341.6453,201.1191 340.8253,200.376 339.9365,199.7168 338.9873,199.1479 337.987,198.6747 336.9451,198.3019 335.8716,198.0331 334.777,197.8707 333.6717,197.8164 332.5664,197.8707 331.4718,198.0331"/>
    <polygon points="329.8922,194.1837 330.3558,194.1609 330.815,194.0928 331.2652,193.98 331.7023,193.8236 332.1219,193.6252 332.52,193.3865 332.8929,193.11 333.2368,192.7983 333.5485,192.4544 333.825,192.0815 334.0637,191.6834 334.2621,191.2638 334.4185,190.8267 334.5313,190.3765 334.5994,189.9173 334.6222,189.4537 334.5994,188.9901 334.5313,188.5309 334.4185,188.0807 334.2621,187.6436 334.0637,187.224 333.825,186.8259 333.5485,186.453 333.2368,186.1091 332.8929,185.7974 332.52,185.5209 332.1219,185.2822 331.7023,185.0838 331.2652,184.9274 330.815,184.8146 330.3558,184.7465 329.8922,184.7237 329.4286,184.7465 328.9694,184.8146 328.5191,184.9274 328.0821,185.0838 327.6625,185.2822 327.2644,185.5209 326.8915,185.7974 326.5476,186.1091 326.2359,186.453 325.9594,186.8259 325.7207,187.224 325.5223,187.6436 325.3659,188.0807 325.2531,188.5309 325.185,188.9901 325.1622,189.4537 325.185,189.9173 325.2531,190.3765 325.3659,190.8267 325.5223,191.2638 325.7207,191.6834 325.9594,192.0815 326.2359,192.4544 326.5476,192.7983 326.8915,193.11 327.2644,193.3865 327.6625,193.6252 328.0821,193.8236 328.5191,193.98 328.9694,194.0928 329.4286,194.1609"/>
    <polygon points="334.6222,176.361 334.5994,175.8974 334.5313,175.4383 334.4185,174.988 334.2621,174.5509 334.0637,174.1313 333.825,173.7332 333.5485,173.3604 333.2368,173.0164 332.8929,172.7047 332.52,172.4282 332.1219,172.1896 331.7023,171.9911 331.2652,171.8347 330.815,171.7219 330.3558,171.6538 329.8922,171.631 329.4286,171.6538 328.9694,171.7219 328.5191,171.8347 328.0821,171.9911 327.6625,172.1896 327.2644,172.4282 326.8915,172.7047 326.5476,173.0164 326.2359,173.3604 325.9594,173.7332 325.7207,174.1313 325.5223,174.5509 325.3659,174.988 325.2531,175.4383 325.185,175.8974 325.1622,176.361 325.185,176.8246 325.2531,177.2838 325.3659,177.7341 325.5223,178.1711 325.7207,178.5907 325.9594,178.9889 326.2359,179.3617 326.5476,179.7056 326.8915,180.0173 327.2644,180.2939 327.6625,180.5325 328.0821,180.7309 328.5191,180.8873 328.9694,181.0001 329.4286,181.0682 329.8922,181.091 330.3558,181.0682 330.815,181.0001 331.2652,180.8873 331.7023,180.7309 332.1219,180.5325 332.52,180.2939 332.8929,180.0173 333.2368,179.7056 333.5485,179.3617 333.825,178.9889 334.0637,178.5907 334.2621,178.1711 334.4185,177.7341 334.5313,177.2838 334.5994,176.8246"/>
    <polygon points="311.7413,203.9194 311.5849,204.3564 311.3865,204.7761 311.1479,205.1742 310.8713,205.547 310.5596,205.891 310.2157,206.2027 309.8429,206.4792 309.4447,206.7178 309.0251,206.9163 308.5881,207.0727 308.1378,207.1854 307.6786,207.2536 307.215,207.2763 306.7514,207.2536 306.2923,207.1854 305.842,207.0727 305.4049,206.9163 304.9853,206.7178 304.5872,206.4792 304.2144,206.2027 303.8704,205.891 303.5587,205.547 303.2822,205.1742 303.0436,204.7761 302.8451,204.3564 302.6887,203.9194 302.5759,203.4691 302.5078,203.01 302.485,202.5464 302.5078,202.0827 302.5759,201.6236 302.6887,201.1733 302.8451,200.7363 303.0436,200.3167 303.2822,199.9185 303.5587,199.5457 303.8704,199.2018 304.2144,198.89 304.5872,198.6135 304.9853,198.3749 305.4049,198.1764 305.842,198.0201 306.2923,197.9073 306.7514,197.8392 307.215,197.8164 307.6786,197.8392 308.1378,197.9073 308.5881,198.0201 309.0251,198.1764 309.4447,198.3749 309.8429,198.6135 310.2157,198.89 310.5596,199.2018 310.8713,199.5457 311.1479,199.9185 311.3865,200.3167 311.5849,200.7363 311.7413,201.1733 311.8541,201.6236 311.9222,202.0827 311.945,202.5464 311.9222,203.01 311.8541,203.4691"/>
    <polygon points="299.377,206.8928 299.5394,207.9874 299.5937,209.0927 299.5394,210.198 299.377,211.2926 299.1081,212.366 298.7353,213.4079 298.2622,214.4083 297.6933,215.3575 297.0341,216.2463 296.2909,217.0662 295.471,217.8094 294.5822,218.4686 293.633,219.0375 292.6326,219.5106 291.5907,219.8834 290.5173,220.1523 289.4227,220.3147 288.3174,220.369 287.2121,220.3147 286.1175,220.1523 285.044,219.8834 284.0021,219.5106 283.0018,219.0375 282.0526,218.4686 281.1638,217.8094 280.3438,217.0662 279.6007,216.2463 278.9415,215.3575 278.3726,214.4083 277.8994,213.4079 277.5266,212.366 277.2577,211.2926 277.0954,210.198 277.0411,209.0927 277.0954,207.9874 277.2577,206.8928 277.5266,205.8194 277.8994,204.7774 278.3726,203.7771 278.9415,202.8279 279.6007,201.9391 280.3438,201.1191 281.1638,200.376 282.0526,199.7168 283.0018,199.1479 284.0021,198.6747 285.044,198.3019 286.1175,198.0331 287.2121,197.8707 288.3174,197.8164 289.4227,197.8707 290.5173,198.0331 291.5907,198.3019 292.6326,198.6747 293.633,199.1479 294.5822,199.7168 295.471,200.376 296.2909,201.1191 297.0341,201.9391 297.6933,202.8279 298.2622,203.7771 298.7353,204.7774 299.1081,205.8194"/>
    <polygon points="285.4606,194.0928 285.0015,194.1609 284.5379,194.1837 284.0742,194.1609 283.6151,194.0928 283.1648,193.98 282.7278,193.8236 282.3082,193.6252 281.91,193.3865 281.5372,193.11 281.1933,192.7983 280.8815,192.4544 280.605,192.0815 280.3664,191.6834 280.1679,191.2638 280.0116,190.8267 279.8988,190.3765 279.8307,189.9173 279.8079,189.4537 279.8307,188.9901 279.8988,188.5309 280.0116,188.0807 280.1679,187.6436 280.3664,187.224 280.605,186.8259 280.8815,186.453 281.1933,186.1091 281.5372,185.7974 281.91,185.5209 282.3082,185.2822 282.7278,185.0838 283.1648,184.9274 283.6151,184.8146 284.0742,184.7465 284.5379,184.7237 285.0015,184.7465 285.4606,184.8146 285.9109,184.9274 286.3479,185.0838 286.7676,185.2822 287.1657,185.5209 287.5385,185.7974 287.8825,186.1091 288.1942,186.453 288.4707,186.8259 288.7093,187.224 288.9078,187.6436 289.0642,188.0807 289.1769,188.5309 289.2451,188.9901 289.2678,189.4537 289.2451,189.9173 289.1769,190.3765 289.0642,190.8267 288.9078,191.2638 288.7093,191.6834 288.4707,192.0815 288.1942,192.4544 287.8825,192.7983 287.5385,193.11 287.1657,193.3865 286.7676,193.6252 286.3479,193.8236 285.9109,193.98"/>
    <polygon points="277.7256,194.627 277.8384,195.0773 277.9065,195.5364 277.9292,196.0 277.9065,196.4636 277.8384,196.9228 277.7256,197.3731 277.5692,197.8101 277.3707,198.2297 277.1321,198.6279 276.8556,199.0007 276.5439,199.3446 276.1999,199.6563 275.8271,199.9329 275.429,200.1715 275.0094,200.3699 274.5723,200.5263 274.122,200.6391 273.6629,200.7072 273.1993,200.73 272.7357,200.7072 272.2765,200.6391 271.8262,200.5263 271.3892,200.3699 270.9696,200.1715 270.5714,199.9329 270.1986,199.6563 269.8547,199.3446 269.543,199.0007 269.2664,198.6279 269.0278,198.2297 268.8293,197.8101 268.673,197.3731 268.5602,196.9228 268.4921,196.4636 268.4693,196.0 268.4921,195.5364 268.5602,195.0773 268.673,194.627 268.8293,194.1899 269.0278,193.7703 269.2664,193.3722 269.543,192.9994 269.8547,192.6554 270.1986,192.3437 270.5714,192.0672 270.9696,191.8286 271.3892,191.6301 271.8262,191.4737 272.2765,191.3609 272.7357,191.2928 273.1993,191.2701 273.6629,191.2928 274.122,191.3609 274.5723,191.4737 275.0094,191.6301 275.429,191.8286 275.8271,192.0672 276.1999,192.3437 276.5439,192.6554 276.8556,192.9994 277.1321,193.3722 277.3707,193.7703 277.5692,194.1899"/>
    <polygon points="221.1454,203.4691 221.0327,203.9194 220.8763,204.3564 220.6778,204.7761 220.4392,205.1742 220.1627,205.547 219.851,205.891 219.507,206.2027 219.1342,206.4792 218.7361,206.7178 218.3164,206.9163 217.8794,207.0727 217.4291,207.1854 216.97,207.2536 216.5064,207.2763 216.0427,207.2536 215.5836,207.1854 215.1333,207.0727 214.6963,206.9163 214.2767,206.7178 213.8785,206.4792 213.5057,206.2027 213.1618,205.891 212.85,205.547 212.5735,205.1742 212.3349,204.7761 212.1364,204.3564 211.9801,203.9194 211.8673,203.4691 211.7992,203.01 211.7764,202.5464 211.7992,202.0827 211.8673,201.6236 211.9801,201.1733 212.1364,200.7363 212.3349,200.3167 212.5735,199.9185 212.85,199.5457 213.1618,199.2018 213.5057,198.89 213.8785,198.6135 214.2767,198.3749 214.6963,198.1764 215.1333,198.0201 215.5836,197.9073 216.0427,197.8392 216.5064,197.8164 216.97,197.8392 217.4291,197.9073 217.8794,198.0201 218.3164,198.1764 218.7361,198.3749 219.1342,198.6135 219.507,198.89 219.851,199.2018 220.1627,199.5457 220.4392,199.9185 220.6778,200.3167 220.8763,200.7363 221.0327,201.1733 221.1454,201.6236 221.2136,202.0827 221.2363,202.5464 221.2136,203.01"/>
    <polygon points="203.7947,204.5664 204.245,204.4536 204.7042,204.3855 205.1678,204.3627 205.6314,204.3855 206.0905,204.4536 206.5408,204.5664 206.9779,204.7228 207.3975,204.9212 207.7956,205.1599 208.1684,205.4364 208.5124,205.7481 208.8241,206.092 209.1006,206.4649 209.3392,206.863 209.5377,207.2826 209.6941,207.7197 209.8069,208.1699 209.875,208.6291 209.8978,209.0927 209.875,209.5563 209.8069,210.0155 209.6941,210.4657 209.5377,210.9028 209.3392,211.3224 209.1006,211.7205 208.8241,212.0934 208.5124,212.4373 208.1684,212.749 207.7956,213.0255 207.3975,213.2642 206.9779,213.4626 206.5408,213.619 206.0905,213.7318 205.6314,213.7999 205.1678,213.8227 204.7042,213.7999 204.245,213.7318 203.7947,213.619 203.3577,213.4626 202.9381,213.2642 202.5399,213.0255 202.1671,212.749 201.8232,212.4373 201.5115,212.0934 201.2349,211.7205 200.9963,211.3224 200.7979,210.9028 200.6415,210.4657 200.5287,210.0155 200.4606,209.5563 200.4378,209.0927 200.4606,208.6291 200.5287,208.1699 200.6415,207.7197 200.7979,207.2826 200.9963,206.863 201.2349,206.4649 201.5115,206.092 201.8232,205.7481 202.1671,205.4364 202.5399,205.1599 202.9381,204.9212 203.3577,204.7228"/>
    <polygon points="189.3029,217.0121 189.1901,216.5618 189.122,216.1026 189.0992,215.639 189.122,215.1754 189.1901,214.7163 189.3029,214.266 189.4593,213.8289 189.6577,213.4093 189.8964,213.0112 190.1729,212.6384 190.4846,212.2944 190.8285,211.9827 191.2014,211.7062 191.5995,211.4676 192.0191,211.2691 192.4562,211.1127 192.9064,210.9999 193.3656,210.9318 193.8292,210.9091 194.2928,210.9318 194.752,210.9999 195.2022,211.1127 195.6393,211.2691 196.0589,211.4676 196.457,211.7062 196.8299,211.9827 197.1738,212.2944 197.4855,212.6384 197.762,213.0112 198.0007,213.4093 198.1991,213.8289 198.3555,214.266 198.4683,214.7163 198.5364,215.1754 198.5592,215.639 198.5364,216.1026 198.4683,216.5618 198.3555,217.0121 198.1991,217.4491 198.0007,217.8687 197.762,218.2669 197.4855,218.6397 197.1738,218.9836 196.8299,219.2953 196.457,219.5719 196.0589,219.8105 195.6393,220.0089 195.2022,220.1653 194.752,220.2781 194.2928,220.3462 193.8292,220.369 193.3656,220.3462 192.9064,220.2781 192.4562,220.1653 192.0191,220.0089 191.5995,219.8105 191.2014,219.5719 190.8285,219.2953 190.4846,218.9836 190.1729,218.6397 189.8964,218.2669 189.6577,217.8687 189.4593,217.4491"/>
    <polygon points="173.8263,210.9634 172.7317,211.1257 171.6582,211.3946 170.6163,211.7674 169.6159,212.2405 168.6668,212.8095 167.7779,213.4687 166.958,214.2118 166.2149,215.0317 165.5557,215.9206 164.9867,216.8697 164.5136,217.8701 164.1408,218.912 163.8719,219.9855 163.7095,221.0801 163.6553,222.1854 163.7095,223.2906 163.8719,224.3853 164.1408,225.4587 164.5136,226.5006 164.9867,227.501 165.5557,228.4501 166.2149,229.339 166.958,230.1589 167.7779,230.9021 168.6668,231.5613 169.6159,232.1302 170.6163,232.6033 171.6582,232.9761 172.7317,233.245 173.8263,233.4074 174.9316,233.4617 176.0368,233.4074 177.1315,233.245 178.2049,232.9761 179.2468,232.6033 180.2472,232.1302 181.1963,231.5613 182.0852,230.9021 182.9051,230.1589 183.6483,229.339 184.3075,228.4501 184.8764,227.501 185.3495,226.5006 185.7223,225.4587 185.9912,224.3853 186.1536,223.2906 186.2079,222.1854 186.1536,221.0801 185.9912,219.9855 185.7223,218.912 185.3495,217.8701 184.8764,216.8697 184.3075,215.9206 183.6483,215.0317 182.9051,214.2118 182.0852,213.4687 181.1963,212.8095 180.2472,212.2405 179.2468,211.7674 178.2049,211.3946 177.1315,211.1257 176.0368,210.9634 174.9316,210.9091"/>
    <polygon points="166.5129,201.6236 166.4448,202.0827 166.4221,202.5464 166.4448,203.01 166.5129,203.4691 166.6257,203.9194 166.7821,204.3564 166.9806,204.7761 167.2192,205.1742 167.4957,205.547 167.8074,205.891 168.1514,206.2027 168.5242,206.4792 168.9223,206.7178 169.3419,206.9163 169.779,207.0727 170.2293,207.1854 170.6884,207.2536 171.152,207.2763 171.6156,207.2536 172.0748,207.1854 172.5251,207.0727 172.9621,206.9163 173.3817,206.7178 173.7799,206.4792 174.1527,206.2027 174.4966,205.891 174.8083,205.547 175.0849,205.1742 175.3235,204.7761 175.522,204.3564 175.6783,203.9194 175.7911,203.4691 175.8592,203.01 175.882,202.5464 175.8592,202.0827 175.7911,201.6236 175.6783,201.1733 175.522,200.7363 175.3235,200.3167 175.0849,199.9185 174.8083,199.5457 174.4966,199.2018 174.1527,198.89 173.7799,198.6135 173.3817,198.3749 172.9621,198.1764 172.5251,198.0201 172.0748,197.9073 171.6156,197.8392 171.152,197.8164 170.6884,197.8392 170.2293,197.9073 169.779,198.0201 169.3419,198.1764 168.9223,198.3749 168.5242,198.6135 168.1514,198.89 167.8074,199.2018 167.4957,199.5457 167.2192,199.9185 166.9806,200.3167 166.7821,200.7363 166.6257,201.1733"/>
    <polygon points="171.152,184.7237 170.6884,184.7465 170.2293,184.8146 169.779,184.9274 169.3419,185.0838 168.9223,185.2822 168.5242,185.5209 168.1514,185.7974 167.8074,186.1091 167.4957,186.453 167.2192,186.8259 166.9806,187.224 166.7821,187.6436 166.6257,188.0807 166.5129,188.5309 166.4448,188.9901 166.4221,189.4537 166.4448,189.9173 166.5129,190.3765 166.6257,190.8267 166.7821,191.2638 166.9806,191.6834 167.2192,192.0815 167.4957,192.4544 167.8074,192.7983 168.1514,193.11 168.5242,193.3865 168.9223,193.6252 169.3419,193.8236 169.779,193.98 170.2293,194.0928 170.6884,194.1609 171.152,194.1837 171.6156,194.1609 172.0748,194.0928 172.5251,193.98 172.9621,193.8236 173.3817,193.6252 173.7799,193.3865 174.1527,193.11 174.4966,192.7983 174.8083,192.4544 175.0849,192.0815 175.3235,191.6834 175.522,191.2638 175.6783,190.8267 175.7911,190.3765 175.8592,189.9173 175.882,189.4537 175.8592,188.9901 175.7911,188.5309 175.6783,188.0807 175.522,187.6436 175.3235,187.224 175.0849,186.8259 174.8083,186.453 174.4966,186.1091 174.1527,185.7974 173.7799,185.5209 173.3817,185.2822 172.9621,185.0838 172.5251,184.9274 172.0748,184.8146 171.6156,184.7465"/>
    <polygon points="156.1571,185.908 156.4689,186.252 156.8128,186.5637 157.1856,186.8402 157.5838,187.0788 158.0034,187.2773 158.4404,187.4337 158.8907,187.5464 159.3498,187.6146 159.8134,187.6373 160.2771,187.6146 160.7362,187.5464 161.1865,187.4337 161.6235,187.2773 162.0431,187.0788 162.4413,186.8402 162.8141,186.5637 163.158,186.252 163.4698,185.908 163.7463,185.5352 163.9849,185.137 164.1834,184.7174 164.3397,184.2804 164.4525,183.8301 164.5206,183.371 164.5434,182.9074 164.5206,182.4437 164.4525,181.9846 164.3397,181.5343 164.1834,181.0973 163.9849,180.6777 163.7463,180.2795 163.4698,179.9067 163.158,179.5628 162.8141,179.251 162.4413,178.9745 162.0431,178.7359 161.6235,178.5374 161.1865,178.3811 160.7362,178.2683 160.2771,178.2002 159.8134,178.1774 159.3498,178.2002 158.8907,178.2683 158.4404,178.3811 158.0034,178.5374 157.5838,178.7359 157.1856,178.9745 156.8128,179.251 156.4689,179.5628 156.1571,179.9067 155.8806,180.2795 155.642,180.6777 155.4435,181.0973 155.2871,181.5343 155.1744,181.9846 155.1063,182.4437 155.0835,182.9074 155.1063,183.371 155.1744,183.8301 155.2871,184.2804 155.4435,184.7174 155.642,185.137 155.8806,185.5352"/>
    <polygon points="153.114,188.5309 153.0012,188.0807 152.8448,187.6436 152.6463,187.224 152.4077,186.8259 152.1312,186.453 151.8195,186.1091 151.4755,185.7974 151.1027,185.5209 150.7046,185.2822 150.2849,185.0838 149.8479,184.9274 149.3976,184.8146 148.9385,184.7465 148.4749,184.7237 148.0112,184.7465 147.5521,184.8146 147.1018,184.9274 146.6648,185.0838 146.2452,185.2822 145.847,185.5209 145.4742,185.7974 145.1303,186.1091 144.8185,186.453 144.542,186.8259 144.3034,187.224 144.1049,187.6436 143.9486,188.0807 143.8358,188.5309 143.7677,188.9901 143.7449,189.4537 143.7677,189.9173 143.8358,190.3765 143.9486,190.8267 144.1049,191.2638 144.3034,191.6834 144.542,192.0815 144.8185,192.4544 145.1303,192.7983 145.4742,193.11 145.847,193.3865 146.2452,193.6252 146.6648,193.8236 147.1018,193.98 147.5521,194.0928 148.0112,194.1609 148.4749,194.1837 148.9385,194.1609 149.3976,194.0928 149.8479,193.98 150.2849,193.8236 150.7046,193.6252 151.1027,193.3865 151.4755,193.11 151.8195,192.7983 152.1312,192.4544 152.4077,192.0815 152.6463,191.6834 152.8448,191.2638 153.0012,190.8267 153.114,190.3765 153.1821,189.9173 153.2048,189.4537 153.1821,188.9901"/>
    <polygon points="157.57,219.0375 156.5696,219.5106 155.5277,219.8834 154.4543,220.1523 153.3597,220.3147 152.2544,220.369 151.1491,220.3147 150.0545,220.1523 148.9811,219.8834 147.9391,219.5106 146.9388,219.0375 145.9896,218.4686 145.1008,217.8094 144.2808,217.0662 143.5377,216.2463 142.8785,215.3575 142.3096,214.4083 141.8364,213.4079 141.4636,212.366 141.1948,211.2926 141.0324,210.198 140.9781,209.0927 141.0324,207.9874 141.1948,206.8928 141.4636,205.8194 141.8364,204.7774 142.3096,203.7771 142.8785,202.8279 143.5377,201.9391 144.2808,201.1191 145.1008,200.376 145.9896,199.7168 146.9388,199.1479 147.9391,198.6747 148.9811,198.3019 150.0545,198.0331 151.1491,197.8707 152.2544,197.8164 153.3597,197.8707 154.4543,198.0331 155.5277,198.3019 156.5696,198.6747 157.57,199.1479 158.5192,199.7168 159.408,200.376 160.2279,201.1191 160.9711,201.9391 161.6303,202.8279 162.1992,203.7771 162.6723,204.7774 163.0451,205.8194 163.314,206.8928 163.4764,207.9874 163.5307,209.0927 163.4764,210.198 163.314,211.2926 163.0451,212.366 162.6723,213.4079 162.1992,214.4083 161.6303,215.3575 160.9711,216.2463 160.2279,217.0662 159.408,217.8094 158.5192,218.4686"/>
    <polygon points="140.4809,218.8408 140.7926,219.1847 141.0691,219.5575 141.3077,219.9557 141.5062,220.3753 141.6626,220.8123 141.7754,221.2626 141.8435,221.7217 141.8663,222.1854 141.8435,222.649 141.7754,223.1081 141.6626,223.5584 141.5062,223.9954 141.3077,224.4151 141.0691,224.8132 140.7926,225.186 140.4809,225.53 140.1369,225.8417 139.7641,226.1182 139.366,226.3568 138.9464,226.5553 138.5093,226.7117 138.0591,226.8244 137.5999,226.8926 137.1363,226.9153 136.6727,226.8926 136.2135,226.8244 135.7632,226.7117 135.3262,226.5553 134.9066,226.3568 134.5084,226.1182 134.1356,225.8417 133.7917,225.53 133.48,225.186 133.2035,224.8132 132.9648,224.4151 132.7664,223.9954 132.61,223.5584 132.4972,223.1081 132.4291,222.649 132.4063,222.1854 132.4291,221.7217 132.4972,221.2626 132.61,220.8123 132.7664,220.3753 132.9648,219.9557 133.2035,219.5575 133.48,219.1847 133.7917,218.8408 134.1356,218.529 134.5084,218.2525 134.9066,218.0139 135.3262,217.8154 135.7632,217.6591 136.2135,217.5463 136.6727,217.4782 137.1363,217.4554 137.5999,217.4782 138.0591,217.5463 138.5093,217.6591 138.9464,217.8154 139.366,218.0139 139.7641,218.2525 140.1369,218.529"/>
    <polygon points="145.9896,225.9021 146.9388,225.3332 147.9391,224.8601 148.9811,224.4873 150.0545,224.2184 151.1491,224.056 152.2544,224.0017 153.3597,224.056 154.4543,224.2184 155.5277,224.4873 156.5696,224.8601 157.57,225.3332 158.5192,225.9021 159.408,226.5613 160.2279,227.3045 160.9711,228.1244 161.6303,229.0132 162.1992,229.9624 162.6723,230.9628 163.0451,232.0047 163.314,233.0781 163.4764,234.1728 163.5307,235.278 163.4764,236.3833 163.314,237.4779 163.0451,238.5514 162.6723,239.5933 162.1992,240.5936 161.6303,241.5428 160.9711,242.4316 160.2279,243.2516 159.408,243.9947 158.5192,244.6539 157.57,245.2228 156.5696,245.696 155.5277,246.0688 154.4543,246.3377 153.3597,246.5 152.2544,246.5543 151.1491,246.5 150.0545,246.3377 148.9811,246.0688 147.9391,245.696 146.9388,245.2228 145.9896,244.6539 145.1008,243.9947 144.2808,243.2516 143.5377,242.4316 142.8785,241.5428 142.3096,240.5936 141.8364,239.5933 141.4636,238.5514 141.1948,237.4779 141.0324,236.3833 140.9781,235.278 141.0324,234.1728 141.1948,233.0781 141.4636,232.0047 141.8364,230.9628 142.3096,229.9624 142.8785,229.0132 143.5377,228.1244 144.2808,227.3045 145.1008,226.5613"/>
    <polygon points="162.202,250.3044 164.5676,250.6553 166.8874,251.2364 169.139,252.042 171.3009,253.0645 173.3521,254.294 175.273,255.7186 177.0449,257.3246 178.6509,259.0965 180.0755,261.0174 181.305,263.0686 182.3274,265.2304 183.1331,267.4821 183.7142,269.8019 184.0651,272.1675 184.1824,274.556 184.0651,276.9446 183.7142,279.3102 183.1331,281.63 182.3274,283.8816 181.305,286.0435 180.0755,288.0947 178.6509,290.0155 177.0449,291.7875 175.273,293.3935 173.3521,294.8181 171.3009,296.0475 169.139,297.07 166.8874,297.8757 164.5676,298.4568 162.202,298.8077 159.8134,298.925 157.4249,298.8077 155.0593,298.4568 152.7395,297.8757 150.4878,297.07 148.326,296.0475 146.2748,294.8181 144.3539,293.3935 142.582,291.7875 140.976,290.0155 139.5514,288.0947 138.3219,286.0435 137.2995,283.8816 136.4938,281.63 135.9127,279.3102 135.5618,276.9446 135.4445,274.556 135.5618,272.1675 135.9127,269.8019 136.4938,267.4821 137.2995,265.2304 138.3219,263.0686 139.5514,261.0174 140.976,259.0965 142.582,257.3246 144.3539,255.7186 146.2748,254.294 148.326,253.0645 150.4878,252.042 152.7395,251.2364 155.0593,250.6553 157.4249,250.3044 159.8134,250.1871"/>
  </g>
</svg>
