<?xml version="1.0" encoding="utf-8" ?>
<svg xmlns="http://www.w3.org/2000/svg" xmlns:cc="http://creativecommons.org/ns" xmlns:dc="http://purl.org/dc/elements/1.1/" xmlns:ev="http://www.w3.org/2001/xml-events" xmlns:inkscape="http://www.inkscape.org/namespaces/inkscape" xmlns:rdf="http://www.w3.org/1999/02/22-rdf-syntax-ns" xmlns:sodipodi="http://sodipodi.sourceforge.net/DTD/sodipodi-0.dtd" xmlns:xlink="http://www.w3.org/1999/xlink" baseProfile="tiny" height="15.875cm" version="1.2" viewBox="0 0 432.0 600.0" width="11.43cm">
  <metadata>
    <rdf:RDF>
      <cc:Work>
        <dc:format>image/svg+xml</dc:format>
        <dc:source>vsk save -s 153 -c hex-grid/config/bubble-coasters-2.json /Users/tobin/src/fabian/plotting/fabian-plotting/hex-grid/sketch_hex_grid.py</dc:source>
        <dc:date>2023-11-04T10:32:59.485945</dc:date>
      </cc:Work>
    </rdf:RDF>
  </metadata>
  <defs/>
  <g fill="none" id="layer1" inkscape:groupmode="layer" inkscape:label="1" stroke="#000000" stroke-width="0.7559" style="display:inline">
    <polygon points="172.3821,357.0305 172.6586,356.6577 172.9704,356.3138 173.3143,356.002 173.6871,355.7255 174.0853,355.4869 174.5049,355.2884 174.9419,355.1321 175.3922,355.0193 175.8513,354.9512 176.315,354.9284 176.7786,354.9512 177.2377,355.0193 177.688,355.1321 178.125,355.2884 178.5447,355.4869 178.9428,355.7255 179.3156,356.002 179.6596,356.3138 179.9713,356.6577 180.2478,357.0305 180.4864,357.4287 180.6849,357.8483 180.8413,358.2853 180.954,358.7356 181.0222,359.1947 181.0449,359.6584 181.0222,360.122 180.954,360.5811 180.8413,361.0314 180.6849,361.4684 180.4864,361.8881 180.2478,362.2862 179.9713,362.659 179.6596,363.003 179.3156,363.3147 178.9428,363.5912 178.5447,363.8298 178.125,364.0283 177.688,364.1847 177.2377,364.2975 176.7786,364.3656 176.315,364.3883 175.8513,364.3656 175.3922,364.2975 174.9419,364.1847 174.5049,364.0283 174.0853,363.8298 173.6871,363.5912 173.3143,363.3147 172.9704,363.003 172.6586,362.659 172.3821,362.2862 172.1435,361.8881 171.945,361.4684 171.7887,361.0314 171.6759,360.5811 171.6078,360.122 171.585,359.6584 171.6078,359.1947 171.6759,358.7356 171.7887,358.2853 171.945,357.8483 172.1435,357.4287"/>
    <polygon points="170.7186,346.2841 170.1497,345.335 169.6765,344.3346 169.3037,343.2927 169.0349,342.2193 168.8725,341.1246 168.8182,340.0194 168.8725,338.9141 169.0349,337.8195 169.3037,336.746 169.6765,335.7041 170.1497,334.7038 170.7186,333.7546 171.3778,332.8658 172.1209,332.0458 172.9409,331.3027 173.8297,330.6435 174.7789,330.0746 175.7792,329.6014 176.8211,329.2286 177.8946,328.9597 178.9892,328.7974 180.0945,328.7431 181.1998,328.7974 182.2944,328.9597 183.3678,329.2286 184.4097,329.6014 185.4101,330.0746 186.3593,330.6435 187.2481,331.3027 188.068,332.0458 188.8112,332.8658 189.4704,333.7546 190.0393,334.7038 190.5124,335.7041 190.8852,336.746 191.1541,337.8195 191.3165,338.9141 191.3708,340.0194 191.3165,341.1246 191.1541,342.2193 190.8852,343.2927 190.5124,344.3346 190.0393,345.335 189.4704,346.2841 188.8112,347.173 188.068,347.9929 187.2481,348.7361 186.3593,349.3953 185.4101,349.9642 184.4097,350.4373 183.3678,350.8101 182.2944,351.079 181.1998,351.2414 180.0945,351.2957 178.9892,351.2414 177.8946,351.079 176.8211,350.8101 175.7792,350.4373 174.7789,349.9642 173.8297,349.3953 172.9409,348.7361 172.1209,347.9929 171.3778,347.173"/>
    <polygon points="160.6065,325.1166 160.8049,324.697 161.0435,324.2989 161.3201,323.926 161.6318,323.5821 161.9757,323.2704 162.3485,322.9939 162.7467,322.7552 163.1663,322.5568 163.6033,322.4004 164.0536,322.2876 164.5128,322.2195 164.9764,322.1967 165.44,322.2195 165.8991,322.2876 166.3494,322.4004 166.7865,322.5568 167.2061,322.7552 167.6042,322.9939 167.977,323.2704 168.321,323.5821 168.6327,323.926 168.9092,324.2989 169.1478,324.697 169.3463,325.1166 169.5027,325.5537 169.6155,326.0039 169.6836,326.4631 169.7064,326.9267 169.6836,327.3903 169.6155,327.8495 169.5027,328.2997 169.3463,328.7368 169.1478,329.1564 168.9092,329.5545 168.6327,329.9274 168.321,330.2713 167.977,330.583 167.6042,330.8595 167.2061,331.0982 166.7865,331.2966 166.3494,331.453 165.8991,331.5658 165.44,331.6339 164.9764,331.6567 164.5128,331.6339 164.0536,331.5658 163.6033,331.453 163.1663,331.2966 162.7467,331.0982 162.3485,330.8595 161.9757,330.583 161.6318,330.2713 161.3201,329.9274 161.0435,329.5545 160.8049,329.1564 160.6065,328.7368 160.4501,328.2997 160.3373,327.8495 160.2692,327.3903 160.2464,326.9267 160.2692,326.4631 160.3373,326.0039 160.4501,325.5537"/>
    <polygon points="186.43,309.0799 187.0111,306.7601 187.8167,304.5084 188.8392,302.3466 190.0686,300.2954 191.4932,298.3745 193.0992,296.6026 194.8712,294.9966 196.792,293.572 198.8433,292.3425 201.0051,291.32 203.2568,290.5144 205.5766,289.9333 207.9421,289.5824 210.3307,289.4651 212.7193,289.5824 215.0849,289.9333 217.4046,290.5144 219.6563,291.32 221.8182,292.3425 223.8694,293.572 225.7902,294.9966 227.5622,296.6026 229.1682,298.3745 230.5928,300.2954 231.8222,302.3466 232.8447,304.5084 233.6504,306.7601 234.2314,309.0799 234.5823,311.4455 234.6997,313.834 234.5823,316.2226 234.2314,318.5882 233.6504,320.908 232.8447,323.1596 231.8222,325.3215 230.5928,327.3727 229.1682,329.2935 227.5622,331.0655 225.7902,332.6715 223.8694,334.0961 221.8182,335.3255 219.6563,336.348 217.4046,337.1537 215.0849,337.7348 212.7193,338.0857 210.3307,338.203 207.9421,338.0857 205.5766,337.7348 203.2568,337.1537 201.0051,336.348 198.8433,335.3255 196.792,334.0961 194.8712,332.6715 193.0992,331.0655 191.4932,329.2935 190.0686,327.3727 188.8392,325.3215 187.8167,323.1596 187.0111,320.908 186.43,318.5882 186.0791,316.2226 185.9617,313.834 186.0791,311.4455"/>
    <polygon points="173.8297,278.2728 174.7789,277.7039 175.7792,277.2307 176.8211,276.8579 177.8946,276.5891 178.9892,276.4267 180.0945,276.3724 181.1998,276.4267 182.2944,276.5891 183.3678,276.8579 184.4097,277.2307 185.4101,277.7039 186.3593,278.2728 187.2481,278.932 188.068,279.6751 188.8112,280.4951 189.4704,281.3839 190.0393,282.3331 190.5124,283.3334 190.8852,284.3754 191.1541,285.4488 191.3165,286.5434 191.3708,287.6487 191.3165,288.754 191.1541,289.8486 190.8852,290.922 190.5124,291.964 190.0393,292.9643 189.4704,293.9135 188.8112,294.8023 188.068,295.6222 187.2481,296.3654 186.3593,297.0246 185.4101,297.5935 184.4097,298.0666 183.3678,298.4394 182.2944,298.7083 181.1998,298.8707 180.0945,298.925 178.9892,298.8707 177.8946,298.7083 176.8211,298.4394 175.7792,298.0666 174.7789,297.5935 173.8297,297.0246 172.9409,296.3654 172.1209,295.6222 171.3778,294.8023 170.7186,293.9135 170.1497,292.9643 169.6765,291.964 169.3037,290.922 169.0349,289.8486 168.8725,288.754 168.8182,287.6487 168.8725,286.5434 169.0349,285.4488 169.3037,284.3754 169.6765,283.3334 170.1497,282.3331 170.7186,281.3839 171.3778,280.4951 172.1209,279.6751 172.9409,278.932"/>
    <polygon points="201.0051,283.9774 198.8433,282.9549 196.792,281.7254 194.8712,280.3008 193.0992,278.6948 191.4932,276.9229 190.0686,275.002 188.8392,272.9508 187.8167,270.789 187.0111,268.5373 186.43,266.2175 186.0791,263.8519 185.9617,261.4634 186.0791,259.0748 186.43,256.7092 187.0111,254.3894 187.8167,252.1378 188.8392,249.9759 190.0686,247.9247 191.4932,246.0038 193.0992,244.2319 194.8712,242.6259 196.792,241.2013 198.8433,239.9718 201.0051,238.9494 203.2568,238.1437 205.5766,237.5626 207.9421,237.2117 210.3307,237.0944 212.7193,237.2117 215.0849,237.5626 217.4046,238.1437 219.6563,238.9494 221.8182,239.9718 223.8694,241.2013 225.7902,242.6259 227.5622,244.2319 229.1682,246.0038 230.5928,247.9247 231.8222,249.9759 232.8447,252.1378 233.6504,254.3894 234.2314,256.7092 234.5823,259.0748 234.6997,261.4634 234.5823,263.8519 234.2314,266.2175 233.6504,268.5373 232.8447,270.789 231.8222,272.9508 230.5928,275.002 229.1682,276.9229 227.5622,278.6948 225.7902,280.3008 223.8694,281.7254 221.8182,282.9549 219.6563,283.9774 217.4046,284.783 215.0849,285.3641 212.7193,285.715 210.3307,285.8323 207.9421,285.715 205.5766,285.3641 203.2568,284.783"/>
    <polygon points="239.7074,295.1178 239.8202,295.5681 239.9765,296.0051 240.175,296.4247 240.4136,296.8229 240.6901,297.1957 241.0019,297.5396 241.3458,297.8513 241.7186,298.1279 242.1168,298.3665 242.5364,298.565 242.9734,298.7213 243.4237,298.8341 243.8828,298.9022 244.3465,298.925 244.8101,298.9022 245.2692,298.8341 245.7195,298.7213 246.1565,298.565 246.5762,298.3665 246.9743,298.1279 247.3471,297.8513 247.6911,297.5396 248.0028,297.1957 248.2793,296.8229 248.5179,296.4247 248.7164,296.0051 248.8728,295.5681 248.9855,295.1178 249.0537,294.6586 249.0764,294.195 249.0537,293.7314 248.9855,293.2723 248.8728,292.822 248.7164,292.3849 248.5179,291.9653 248.2793,291.5672 248.0028,291.1944 247.6911,290.8504 247.3471,290.5387 246.9743,290.2622 246.5762,290.0236 246.1565,289.8251 245.7195,289.6687 245.2692,289.5559 244.8101,289.4878 244.3465,289.4651 243.8828,289.4878 243.4237,289.5559 242.9734,289.6687 242.5364,289.8251 242.1168,290.0236 241.7186,290.2622 241.3458,290.5387 241.0019,290.8504 240.6901,291.1944 240.4136,291.5672 240.175,291.9653 239.9765,292.3849 239.8202,292.822 239.7074,293.2723 239.6393,293.7314 239.6165,294.195 239.6393,294.6586"/>
    <polygon points="259.348,275.6613 259.4023,274.556 259.348,273.4508 259.1856,272.3561 258.9167,271.2827 258.5439,270.2408 258.0708,269.2404 257.5019,268.2912 256.8427,267.4024 256.0995,266.5825 255.2796,265.8393 254.3908,265.1801 253.4416,264.6112 252.4412,264.1381 251.3993,263.7653 250.3259,263.4964 249.2313,263.334 248.126,263.2797 247.0207,263.334 245.9261,263.4964 244.8526,263.7653 243.8107,264.1381 242.8104,264.6112 241.8612,265.1801 240.9724,265.8393 240.1524,266.5825 239.4093,267.4024 238.7501,268.2912 238.1812,269.2404 237.708,270.2408 237.3352,271.2827 237.0663,272.3561 236.904,273.4508 236.8497,274.556 236.904,275.6613 237.0663,276.7559 237.3352,277.8294 237.708,278.8713 238.1812,279.8716 238.7501,280.8208 239.4093,281.7096 240.1524,282.5296 240.9724,283.2727 241.8612,283.9319 242.8104,284.5008 243.8107,284.974 244.8526,285.3468 245.9261,285.6157 247.0207,285.778 248.126,285.8323 249.2313,285.778 250.3259,285.6157 251.3993,285.3468 252.4412,284.974 253.4416,284.5008 254.3908,283.9319 255.2796,283.2727 256.0995,282.5296 256.8427,281.7096 257.5019,280.8208 258.0708,279.8716 258.5439,278.8713 258.9167,277.8294 259.1856,276.7559"/>
    <polygon points="270.9565,278.4745 270.6799,278.1017 270.3682,277.7578 270.0243,277.446 269.6515,277.1695 269.2533,276.9309 268.8337,276.7324 268.3967,276.5761 267.9464,276.4633 267.4872,276.3952 267.0236,276.3724 266.56,276.3952 266.1009,276.4633 265.6506,276.5761 265.2135,276.7324 264.7939,276.9309 264.3958,277.1695 264.023,277.446 263.679,277.7578 263.3673,278.1017 263.0908,278.4745 262.8522,278.8727 262.6537,279.2923 262.4973,279.7293 262.3845,280.1796 262.3164,280.6387 262.2936,281.1024 262.3164,281.566 262.3845,282.0251 262.4973,282.4754 262.6537,282.9124 262.8522,283.3321 263.0908,283.7302 263.3673,284.103 263.679,284.447 264.023,284.7587 264.3958,285.0352 264.7939,285.2738 265.2135,285.4723 265.6506,285.6287 266.1009,285.7414 266.56,285.8096 267.0236,285.8323 267.4872,285.8096 267.9464,285.7414 268.3967,285.6287 268.8337,285.4723 269.2533,285.2738 269.6515,285.0352 270.0243,284.7587 270.3682,284.447 270.6799,284.103 270.9565,283.7302 271.1951,283.3321 271.3935,282.9124 271.5499,282.4754 271.6627,282.0251 271.7308,281.566 271.7536,281.1024 271.7308,280.6387 271.6627,280.1796 271.5499,279.7293 271.3935,279.2923 271.1951,278.8727"/>
    <polygon points="271.5499,266.6367 271.3935,266.1996 271.1951,265.78 270.9565,265.3819 270.6799,265.009 270.3682,264.6651 270.0243,264.3534 269.6515,264.0769 269.2533,263.8382 268.8337,263.6398 268.3967,263.4834 267.9464,263.3706 267.4872,263.3025 267.0236,263.2797 266.56,263.3025 266.1009,263.3706 265.6506,263.4834 265.2135,263.6398 264.7939,263.8382 264.3958,264.0769 264.023,264.3534 263.679,264.6651 263.3673,265.009 263.0908,265.3819 262.8522,265.78 262.6537,266.1996 262.4973,266.6367 262.3845,267.0869 262.3164,267.5461 262.2936,268.0097 262.3164,268.4733 262.3845,268.9325 262.4973,269.3827 262.6537,269.8198 262.8522,270.2394 263.0908,270.6375 263.3673,271.0104 263.679,271.3543 264.023,271.666 264.3958,271.9425 264.7939,272.1812 265.2135,272.3796 265.6506,272.536 266.1009,272.6488 266.56,272.7169 267.0236,272.7397 267.4872,272.7169 267.9464,272.6488 268.3967,272.536 268.8337,272.3796 269.2533,272.1812 269.6515,271.9425 270.0243,271.666 270.3682,271.3543 270.6799,271.0104 270.9565,270.6375 271.1951,270.2394 271.3935,269.8198 271.5499,269.3827 271.6627,268.9325 271.7308,268.4733 271.7536,268.0097 271.7308,267.5461 271.6627,267.0869"/>
    <polygon points="262.4973,256.2901 262.6537,256.7271 262.8522,257.1467 263.0908,257.5449 263.3673,257.9177 263.679,258.2616 264.023,258.5733 264.3958,258.8499 264.7939,259.0885 265.2135,259.287 265.6506,259.4433 266.1009,259.5561 266.56,259.6242 267.0236,259.647 267.4872,259.6242 267.9464,259.5561 268.3967,259.4433 268.8337,259.287 269.2533,259.0885 269.6515,258.8499 270.0243,258.5733 270.3682,258.2616 270.6799,257.9177 270.9565,257.5449 271.1951,257.1467 271.3935,256.7271 271.5499,256.2901 271.6627,255.8398 271.7308,255.3806 271.7536,254.917 271.7308,254.4534 271.6627,253.9943 271.5499,253.544 271.3935,253.1069 271.1951,252.6873 270.9565,252.2892 270.6799,251.9164 270.3682,251.5724 270.0243,251.2607 269.6515,250.9842 269.2533,250.7456 268.8337,250.5471 268.3967,250.3907 267.9464,250.2779 267.4872,250.2098 267.0236,250.1871 266.56,250.2098 266.1009,250.2779 265.6506,250.3907 265.2135,250.5471 264.7939,250.7456 264.3958,250.9842 264.023,251.2607 263.679,251.5724 263.3673,251.9164 263.0908,252.2892 262.8522,252.6873 262.6537,253.1069 262.4973,253.544 262.3845,253.9943 262.3164,254.4534 262.2936,254.917 262.3164,255.3806 262.3845,255.8398"/>
    <polygon points="241.8612,238.9948 240.9724,239.654 240.1524,240.3971 239.4093,241.2171 238.7501,242.1059 238.1812,243.0551 237.708,244.0554 237.3352,245.0974 237.0663,246.1708 236.904,247.2654 236.8497,248.3707 236.904,249.476 237.0663,250.5706 237.3352,251.644 237.708,252.6859 238.1812,253.6863 238.7501,254.6355 239.4093,255.5243 240.1524,256.3442 240.9724,257.0874 241.8612,257.7466 242.8104,258.3155 243.8107,258.7886 244.8526,259.1614 245.9261,259.4303 247.0207,259.5927 248.126,259.647 249.2313,259.5927 250.3259,259.4303 251.3993,259.1614 252.4412,258.7886 253.4416,258.3155 254.3908,257.7466 255.2796,257.0874 256.0995,256.3442 256.8427,255.5243 257.5019,254.6355 258.0708,253.6863 258.5439,252.6859 258.9167,251.644 259.1856,250.5706 259.348,249.476 259.4023,248.3707 259.348,247.2654 259.1856,246.1708 258.9167,245.0974 258.5439,244.0554 258.0708,243.0551 257.5019,242.1059 256.8427,241.2171 256.0995,240.3971 255.2796,239.654 254.3908,238.9948 253.4416,238.4259 252.4412,237.9527 251.3993,237.5799 250.3259,237.3111 249.2313,237.1487 248.126,237.0944 247.0207,237.1487 245.9261,237.3111 244.8526,237.5799 243.8107,237.9527 242.8104,238.4259"/>
    <polygon points="248.8728,227.3587 248.7164,226.9216 248.5179,226.502 248.2793,226.1039 248.0028,225.731 247.6911,225.3871 247.3471,225.0754 246.9743,224.7989 246.5762,224.5602 246.1565,224.3618 245.7195,224.2054 245.2692,224.0926 244.8101,224.0245 244.3465,224.0017 243.8828,224.0245 243.4237,224.0926 242.9734,224.2054 242.5364,224.3618 242.1168,224.5602 241.7186,224.7989 241.3458,225.0754 241.0019,225.3871 240.6901,225.731 240.4136,226.1039 240.175,226.502 239.9765,226.9216 239.8202,227.3587 239.7074,227.8089 239.6393,228.2681 239.6165,228.7317 239.6393,229.1953 239.7074,229.6545 239.8202,230.1047 239.9765,230.5418 240.175,230.9614 240.4136,231.3595 240.6901,231.7324 241.0019,232.0763 241.3458,232.388 241.7186,232.6645 242.1168,232.9032 242.5364,233.1016 242.9734,233.258 243.4237,233.3708 243.8828,233.4389 244.3465,233.4617 244.8101,233.4389 245.2692,233.3708 245.7195,233.258 246.1565,233.1016 246.5762,232.9032 246.9743,232.6645 247.3471,232.388 247.6911,232.0763 248.0028,231.7324 248.2793,231.3595 248.5179,230.9614 248.7164,230.5418 248.8728,230.1047 248.9855,229.6545 249.0537,229.1953 249.0764,228.7317 249.0537,228.2681 248.9855,227.8089"/>
    <polygon points="200.8022,206.9163 201.2218,206.7178 201.62,206.4792 201.9928,206.2027 202.3367,205.891 202.6484,205.547 202.925,205.1742 203.1636,204.7761 203.3621,204.3564 203.5184,203.9194 203.6312,203.4691 203.6993,203.01 203.7221,202.5464 203.6993,202.0827 203.6312,201.6236 203.5184,201.1733 203.3621,200.7363 203.1636,200.3167 202.925,199.9185 202.6484,199.5457 202.3367,199.2018 201.9928,198.89 201.62,198.6135 201.2218,198.3749 200.8022,198.1764 200.3652,198.0201 199.9149,197.9073 199.4557,197.8392 198.9921,197.8164 198.5285,197.8392 198.0694,197.9073 197.6191,198.0201 197.182,198.1764 196.7624,198.3749 196.3643,198.6135 195.9915,198.89 195.6475,199.2018 195.3358,199.5457 195.0593,199.9185 194.8207,200.3167 194.6222,200.7363 194.4658,201.1733 194.353,201.6236 194.2849,202.0827 194.2622,202.5464 194.2849,203.01 194.353,203.4691 194.4658,203.9194 194.6222,204.3564 194.8207,204.7761 195.0593,205.1742 195.3358,205.547 195.6475,205.891 195.9915,206.2027 196.3643,206.4792 196.7624,206.7178 197.182,206.9163 197.6191,207.0727 198.0694,207.1854 198.5285,207.2536 198.9921,207.2763 199.4557,207.2536 199.9149,207.1854 200.3652,207.0727"/>
    <polygon points="192.1798,207.7197 192.0235,207.2826 191.825,206.863 191.5864,206.4649 191.3099,206.092 190.9981,205.7481 190.6542,205.4364 190.2814,205.1599 189.8832,204.9212 189.4636,204.7228 189.0266,204.5664 188.5763,204.4536 188.1172,204.3855 187.6535,204.3627 187.1899,204.3855 186.7308,204.4536 186.2805,204.5664 185.8435,204.7228 185.4238,204.9212 185.0257,205.1599 184.6529,205.4364 184.3089,205.7481 183.9972,206.092 183.7207,206.4649 183.4821,206.863 183.2836,207.2826 183.1272,207.7197 183.0145,208.1699 182.9463,208.6291 182.9236,209.0927 182.9463,209.5563 183.0145,210.0155 183.1272,210.4657 183.2836,210.9028 183.4821,211.3224 183.7207,211.7205 183.9972,212.0934 184.3089,212.4373 184.6529,212.749 185.0257,213.0255 185.4238,213.2642 185.8435,213.4626 186.2805,213.619 186.7308,213.7318 187.1899,213.7999 187.6535,213.8227 188.1172,213.7999 188.5763,213.7318 189.0266,213.619 189.4636,213.4626 189.8832,213.2642 190.2814,213.0255 190.6542,212.749 190.9981,212.4373 191.3099,212.0934 191.5864,211.7205 191.825,211.3224 192.0235,210.9028 192.1798,210.4657 192.2926,210.0155 192.3607,209.5563 192.3835,209.0927 192.3607,208.6291 192.2926,208.1699"/>
    <polygon points="192.3537,217.8701 191.9809,218.912 191.712,219.9855 191.5496,221.0801 191.4953,222.1854 191.5496,223.2906 191.712,224.3853 191.9809,225.4587 192.3537,226.5006 192.8268,227.501 193.3957,228.4501 194.055,229.339 194.7981,230.1589 195.618,230.9021 196.5069,231.5613 197.456,232.1302 198.4564,232.6033 199.4983,232.9761 200.5718,233.245 201.6664,233.4074 202.7717,233.4617 203.8769,233.4074 204.9716,233.245 206.045,232.9761 207.0869,232.6033 208.0873,232.1302 209.0364,231.5613 209.9253,230.9021 210.7452,230.1589 211.4884,229.339 212.1476,228.4501 212.7165,227.501 213.1896,226.5006 213.5624,225.4587 213.8313,224.3853 213.9937,223.2906 214.048,222.1854 213.9937,221.0801 213.8313,219.9855 213.5624,218.912 213.1896,217.8701 212.7165,216.8697 212.1476,215.9206 211.4884,215.0317 210.7452,214.2118 209.9253,213.4687 209.0364,212.8095 208.0873,212.2405 207.0869,211.7674 206.045,211.3946 204.9716,211.1257 203.8769,210.9634 202.7717,210.9091 201.6664,210.9634 200.5718,211.1257 199.4983,211.3946 198.4564,211.7674 197.456,212.2405 196.5069,212.8095 195.618,213.4687 194.7981,214.2118 194.055,215.0317 193.3957,215.9206 192.8268,216.8697"/>
    <polygon points="188.8112,242.4316 189.4704,241.5428 190.0393,240.5936 190.5124,239.5933 190.8852,238.5514 191.1541,237.4779 191.3165,236.3833 191.3708,235.278 191.3165,234.1728 191.1541,233.0781 190.8852,232.0047 190.5124,230.9628 190.0393,229.9624 189.4704,229.0132 188.8112,228.1244 188.068,227.3045 187.2481,226.5613 186.3593,225.9021 185.4101,225.3332 184.4097,224.8601 183.3678,224.4873 182.2944,224.2184 181.1998,224.056 180.0945,224.0017 178.9892,224.056 177.8946,224.2184 176.8211,224.4873 175.7792,224.8601 174.7789,225.3332 173.8297,225.9021 172.9409,226.5613 172.1209,227.3045 171.3778,228.1244 170.7186,229.0132 170.1497,229.9624 169.6765,230.9628 169.3037,232.0047 169.0349,233.0781 168.8725,234.1728 168.8182,235.278 168.8725,236.3833 169.0349,237.4779 169.3037,238.5514 169.6765,239.5933 170.1497,240.5936 170.7186,241.5428 171.3778,242.4316 172.1209,243.2516 172.9409,243.9947 173.8297,244.6539 174.7789,245.2228 175.7792,245.696 176.8211,246.0688 177.8946,246.3377 178.9892,246.5 180.0945,246.5543 181.1998,246.5 182.2944,246.3377 183.3678,246.0688 184.4097,245.696 185.4101,245.2228 186.3593,244.6539 187.2481,243.9947 188.068,243.2516"/>
    <polygon points="166.3494,226.7117 166.7865,226.5553 167.2061,226.3568 167.6042,226.1182 167.977,225.8417 168.321,225.53 168.6327,225.186 168.9092,224.8132 169.1478,224.4151 169.3463,223.9954 169.5027,223.5584 169.6155,223.1081 169.6836,222.649 169.7064,222.1854 169.6836,221.7217 169.6155,221.2626 169.5027,220.8123 169.3463,220.3753 169.1478,219.9557 168.9092,219.5575 168.6327,219.1847 168.321,218.8408 167.977,218.529 167.6042,218.2525 167.2061,218.0139 166.7865,217.8154 166.3494,217.6591 165.8991,217.5463 165.44,217.4782 164.9764,217.4554 164.5128,217.4782 164.0536,217.5463 163.6033,217.6591 163.1663,217.8154 162.7467,218.0139 162.3485,218.2525 161.9757,218.529 161.6318,218.8408 161.3201,219.1847 161.0435,219.5575 160.8049,219.9557 160.6065,220.3753 160.4501,220.8123 160.3373,221.2626 160.2692,221.7217 160.2464,222.1854 160.2692,222.649 160.3373,223.1081 160.4501,223.5584 160.6065,223.9954 160.8049,224.4151 161.0435,224.8132 161.3201,225.186 161.6318,225.53 161.9757,225.8417 162.3485,226.1182 162.7467,226.3568 163.1663,226.5553 163.6033,226.7117 164.0536,226.8244 164.5128,226.8926 164.9764,226.9153 165.44,226.8926 165.8991,226.8244"/>
  </g>
</svg>
