<?xml version="1.0" encoding="utf-8" ?>
<svg xmlns="http://www.w3.org/2000/svg" xmlns:cc="http://creativecommons.org/ns" xmlns:dc="http://purl.org/dc/elements/1.1/" xmlns:ev="http://www.w3.org/2001/xml-events" xmlns:inkscape="http://www.inkscape.org/namespaces/inkscape" xmlns:rdf="http://www.w3.org/1999/02/22-rdf-syntax-ns" xmlns:sodipodi="http://sodipodi.sourceforge.net/DTD/sodipodi-0.dtd" xmlns:xlink="http://www.w3.org/1999/xlink" baseProfile="tiny" height="15.875cm" version="1.2" viewBox="0 0 432.0 600.0" width="11.43cm">
  <metadata>
    <rdf:RDF>
      <cc:Work>
        <dc:format>image/svg+xml</dc:format>
        <dc:source>vsk save -s 213 -c hex-grid/config/bubble-coasters-2.json /Users/tobin/src/fabian/plotting/fabian-plotting/hex-grid/sketch_hex_grid.py</dc:source>
        <dc:date>2023-11-11T11:30:23.487103</dc:date>
      </cc:Work>
    </rdf:RDF>
  </metadata>
  <defs/>
  <g fill="none" id="layer1" inkscape:groupmode="layer" inkscape:label="1" stroke="#000000" stroke-width="0.7559" style="display:inline">
    <polygon points="275.3207,218.2525 275.6936,218.529 276.0375,218.8408 276.3492,219.1847 276.6257,219.5575 276.8644,219.9557 277.0628,220.3753 277.2192,220.8123 277.332,221.2626 277.4001,221.7217 277.4229,222.1854 277.4001,222.649 277.332,223.1081 277.2192,223.5584 277.0628,223.9954 276.8644,224.4151 276.6257,224.8132 276.3492,225.186 276.0375,225.53 275.6936,225.8417 275.3207,226.1182 274.9226,226.3568 274.503,226.5553 274.066,226.7117 273.6157,226.8244 273.1565,226.8926 272.6929,226.9153 272.2293,226.8926 271.7701,226.8244 271.3199,226.7117 270.8828,226.5553 270.4632,226.3568 270.0651,226.1182 269.6923,225.8417 269.3483,225.53 269.0366,225.186 268.7601,224.8132 268.5214,224.4151 268.323,223.9954 268.1666,223.5584 268.0538,223.1081 267.9857,222.649 267.9629,222.1854 267.9857,221.7217 268.0538,221.2626 268.1666,220.8123 268.323,220.3753 268.5214,219.9557 268.7601,219.5575 269.0366,219.1847 269.3483,218.8408 269.6923,218.529 270.0651,218.2525 270.4632,218.0139 270.8828,217.8154 271.3199,217.6591 271.7701,217.5463 272.2293,217.4782 272.6929,217.4554 273.1565,217.4782 273.6157,217.5463 274.066,217.6591 274.503,217.8154 274.9226,218.0139"/>
    <polygon points="287.9643,265.3819 287.6878,265.009 287.3761,264.6651 287.0322,264.3534 286.6593,264.0769 286.2612,263.8382 285.8416,263.6398 285.4045,263.4834 284.9543,263.3706 284.4951,263.3025 284.0315,263.2797 283.5679,263.3025 283.1087,263.3706 282.6585,263.4834 282.2214,263.6398 281.8018,263.8382 281.4037,264.0769 281.0308,264.3534 280.6869,264.6651 280.3752,265.009 280.0987,265.3819 279.86,265.78 279.6616,266.1996 279.5052,266.6367 279.3924,267.0869 279.3243,267.5461 279.3015,268.0097 279.3243,268.4733 279.3924,268.9325 279.5052,269.3827 279.6616,269.8198 279.86,270.2394 280.0987,270.6375 280.3752,271.0104 280.6869,271.3543 281.0308,271.666 281.4037,271.9425 281.8018,272.1812 282.2214,272.3796 282.6585,272.536 283.1087,272.6488 283.5679,272.7169 284.0315,272.7397 284.4951,272.7169 284.9543,272.6488 285.4045,272.536 285.8416,272.3796 286.2612,272.1812 286.6593,271.9425 287.0322,271.666 287.3761,271.3543 287.6878,271.0104 287.9643,270.6375 288.203,270.2394 288.4014,269.8198 288.5578,269.3827 288.6706,268.9325 288.7387,268.4733 288.7615,268.0097 288.7387,267.5461 288.6706,267.0869 288.5578,266.6367 288.4014,266.1996 288.203,265.78"/>
    <polygon points="286.6593,277.1695 286.2612,276.9309 285.8416,276.7324 285.4045,276.5761 284.9543,276.4633 284.4951,276.3952 284.0315,276.3724 283.5679,276.3952 283.1087,276.4633 282.6585,276.5761 282.2214,276.7324 281.8018,276.9309 281.4037,277.1695 281.0308,277.446 280.6869,277.7578 280.3752,278.1017 280.0987,278.4745 279.86,278.8727 279.6616,279.2923 279.5052,279.7293 279.3924,280.1796 279.3243,280.6387 279.3015,281.1024 279.3243,281.566 279.3924,282.0251 279.5052,282.4754 279.6616,282.9124 279.86,283.3321 280.0987,283.7302 280.3752,284.103 280.6869,284.447 281.0308,284.7587 281.4037,285.0352 281.8018,285.2738 282.2214,285.4723 282.6585,285.6287 283.1087,285.7414 283.5679,285.8096 284.0315,285.8323 284.4951,285.8096 284.9543,285.7414 285.4045,285.6287 285.8416,285.4723 286.2612,285.2738 286.6593,285.0352 287.0322,284.7587 287.3761,284.447 287.6878,284.103 287.9643,283.7302 288.203,283.3321 288.4014,282.9124 288.5578,282.4754 288.6706,282.0251 288.7387,281.566 288.7615,281.1024 288.7387,280.6387 288.6706,280.1796 288.5578,279.7293 288.4014,279.2923 288.203,278.8727 287.9643,278.4745 287.6878,278.1017 287.3761,277.7578 287.0322,277.446"/>
    <polygon points="276.3492,284.648 276.6257,285.0209 276.8644,285.419 277.0628,285.8386 277.2192,286.2757 277.332,286.7259 277.4001,287.1851 277.4229,287.6487 277.4001,288.1123 277.332,288.5715 277.2192,289.0217 277.0628,289.4588 276.8644,289.8784 276.6257,290.2765 276.3492,290.6494 276.0375,290.9933 275.6936,291.305 275.3207,291.5815 274.9226,291.8202 274.503,292.0186 274.066,292.175 273.6157,292.2878 273.1565,292.3559 272.6929,292.3787 272.2293,292.3559 271.7701,292.2878 271.3199,292.175 270.8828,292.0186 270.4632,291.8202 270.0651,291.5815 269.6923,291.305 269.3483,290.9933 269.0366,290.6494 268.7601,290.2765 268.5214,289.8784 268.323,289.4588 268.1666,289.0217 268.0538,288.5715 267.9857,288.1123 267.9629,287.6487 267.9857,287.1851 268.0538,286.7259 268.1666,286.2757 268.323,285.8386 268.5214,285.419 268.7601,285.0209 269.0366,284.648 269.3483,284.3041 269.6923,283.9924 270.0651,283.7159 270.4632,283.4772 270.8828,283.2788 271.3199,283.1224 271.7701,283.0096 272.2293,282.9415 272.6929,282.9187 273.1565,282.9415 273.6157,283.0096 274.066,283.1224 274.503,283.2788 274.9226,283.4772 275.3207,283.7159 275.6936,283.9924 276.0375,284.3041"/>
    <polygon points="277.4229,274.556 277.4001,275.0196 277.332,275.4788 277.2192,275.9291 277.0628,276.3661 276.8644,276.7857 276.6257,277.1839 276.3492,277.5567 276.0375,277.9006 275.6936,278.2123 275.3207,278.4889 274.9226,278.7275 274.503,278.926 274.066,279.0823 273.6157,279.1951 273.1565,279.2632 272.6929,279.286 272.2293,279.2632 271.7701,279.1951 271.3199,279.0823 270.8828,278.926 270.4632,278.7275 270.0651,278.4889 269.6923,278.2123 269.3483,277.9006 269.0366,277.5567 268.7601,277.1839 268.5214,276.7857 268.323,276.3661 268.1666,275.9291 268.0538,275.4788 267.9857,275.0196 267.9629,274.556 267.9857,274.0924 268.0538,273.6333 268.1666,273.183 268.323,272.7459 268.5214,272.3263 268.7601,271.9282 269.0366,271.5554 269.3483,271.2114 269.6923,270.8997 270.0651,270.6232 270.4632,270.3846 270.8828,270.1861 271.3199,270.0297 271.7701,269.9169 272.2293,269.8488 272.6929,269.8261 273.1565,269.8488 273.6157,269.9169 274.066,270.0297 274.503,270.1861 274.9226,270.3846 275.3207,270.6232 275.6936,270.8997 276.0375,271.2114 276.3492,271.5554 276.6257,271.9282 276.8644,272.3263 277.0628,272.7459 277.2192,273.183 277.332,273.6333 277.4001,274.0924"/>
    <polygon points="268.0538,260.5406 268.1666,260.0903 268.323,259.6533 268.5214,259.2337 268.7601,258.8355 269.0366,258.4627 269.3483,258.1188 269.6923,257.807 270.0651,257.5305 270.4632,257.2919 270.8828,257.0934 271.3199,256.9371 271.7701,256.8243 272.2293,256.7562 272.6929,256.7334 273.1565,256.7562 273.6157,256.8243 274.066,256.9371 274.503,257.0934 274.9226,257.2919 275.3207,257.5305 275.6936,257.807 276.0375,258.1188 276.3492,258.4627 276.6257,258.8355 276.8644,259.2337 277.0628,259.6533 277.2192,260.0903 277.332,260.5406 277.4001,260.9997 277.4229,261.4634 277.4001,261.927 277.332,262.3861 277.2192,262.8364 277.0628,263.2734 276.8644,263.6931 276.6257,264.0912 276.3492,264.464 276.0375,264.808 275.6936,265.1197 275.3207,265.3962 274.9226,265.6348 274.503,265.8333 274.066,265.9897 273.6157,266.1024 273.1565,266.1706 272.6929,266.1933 272.2293,266.1706 271.7701,266.1024 271.3199,265.9897 270.8828,265.8333 270.4632,265.6348 270.0651,265.3962 269.6923,265.1197 269.3483,264.808 269.0366,264.464 268.7601,264.0912 268.5214,263.6931 268.323,263.2734 268.1666,262.8364 268.0538,262.3861 267.9857,261.927 267.9629,261.4634 267.9857,260.9997"/>
    <polygon points="268.7601,245.7429 269.0366,245.37 269.3483,245.0261 269.6923,244.7144 270.0651,244.4379 270.4632,244.1992 270.8828,244.0008 271.3199,243.8444 271.7701,243.7316 272.2293,243.6635 272.6929,243.6407 273.1565,243.6635 273.6157,243.7316 274.066,243.8444 274.503,244.0008 274.9226,244.1992 275.3207,244.4379 275.6936,244.7144 276.0375,245.0261 276.3492,245.37 276.6257,245.7429 276.8644,246.141 277.0628,246.5606 277.2192,246.9977 277.332,247.4479 277.4001,247.9071 277.4229,248.3707 277.4001,248.8343 277.332,249.2935 277.2192,249.7437 277.0628,250.1808 276.8644,250.6004 276.6257,250.9985 276.3492,251.3714 276.0375,251.7153 275.6936,252.027 275.3207,252.3035 274.9226,252.5422 274.503,252.7406 274.066,252.897 273.6157,253.0098 273.1565,253.0779 272.6929,253.1007 272.2293,253.0779 271.7701,253.0098 271.3199,252.897 270.8828,252.7406 270.4632,252.5422 270.0651,252.3035 269.6923,252.027 269.3483,251.7153 269.0366,251.3714 268.7601,250.9985 268.5214,250.6004 268.323,250.1808 268.1666,249.7437 268.0538,249.2935 267.9857,248.8343 267.9629,248.3707 267.9857,247.9071 268.0538,247.4479 268.1666,246.9977 268.323,246.5606 268.5214,246.141"/>
    <polygon points="260.4316,233.3708 259.9813,233.258 259.5442,233.1016 259.1246,232.9032 258.7265,232.6645 258.3537,232.388 258.0097,232.0763 257.698,231.7324 257.4215,231.3595 257.1829,230.9614 256.9844,230.5418 256.828,230.1047 256.7152,229.6545 256.6471,229.1953 256.6244,228.7317 256.6471,228.2681 256.7152,227.8089 256.828,227.3587 256.9844,226.9216 257.1829,226.502 257.4215,226.1039 257.698,225.731 258.0097,225.3871 258.3537,225.0754 258.7265,224.7989 259.1246,224.5602 259.5442,224.3618 259.9813,224.2054 260.4316,224.0926 260.8907,224.0245 261.3543,224.0017 261.8179,224.0245 262.2771,224.0926 262.7274,224.2054 263.1644,224.3618 263.584,224.5602 263.9822,224.7989 264.355,225.0754 264.6989,225.3871 265.0106,225.731 265.2872,226.1039 265.5258,226.502 265.7243,226.9216 265.8806,227.3587 265.9934,227.8089 266.0615,228.2681 266.0843,228.7317 266.0615,229.1953 265.9934,229.6545 265.8806,230.1047 265.7243,230.5418 265.5258,230.9614 265.2872,231.3595 265.0106,231.7324 264.6989,232.0763 264.355,232.388 263.9822,232.6645 263.584,232.9032 263.1644,233.1016 262.7274,233.258 262.2771,233.3708 261.8179,233.4389 261.3543,233.4617 260.8907,233.4389"/>
    <polygon points="250.9385,230.6389 251.3888,230.7517 251.8258,230.9081 252.2454,231.1066 252.6436,231.3452 253.0164,231.6217 253.3603,231.9334 253.6721,232.2774 253.9486,232.6502 254.1872,233.0483 254.3857,233.4679 254.542,233.905 254.6548,234.3553 254.7229,234.8144 254.7457,235.278 254.7229,235.7416 254.6548,236.2008 254.542,236.6511 254.3857,237.0881 254.1872,237.5077 253.9486,237.9059 253.6721,238.2787 253.3603,238.6226 253.0164,238.9343 252.6436,239.2109 252.2454,239.4495 251.8258,239.648 251.3888,239.8043 250.9385,239.9171 250.4794,239.9852 250.0157,240.008 249.5521,239.9852 249.093,239.9171 248.6427,239.8043 248.2057,239.648 247.7861,239.4495 247.3879,239.2109 247.0151,238.9343 246.6712,238.6226 246.3594,238.2787 246.0829,237.9059 245.8443,237.5077 245.6458,237.0881 245.4894,236.6511 245.3767,236.2008 245.3086,235.7416 245.2858,235.278 245.3086,234.8144 245.3767,234.3553 245.4894,233.905 245.6458,233.4679 245.8443,233.0483 246.0829,232.6502 246.3594,232.2774 246.6712,231.9334 247.0151,231.6217 247.3879,231.3452 247.7861,231.1066 248.2057,230.9081 248.6427,230.7517 249.093,230.6389 249.5521,230.5708 250.0157,230.5481 250.4794,230.5708"/>
    <polygon points="250.5219,244.1263 251.5954,243.8574 252.69,243.695 253.7953,243.6407 254.9005,243.695 255.9952,243.8574 257.0686,244.1263 258.1105,244.4991 259.1109,244.9722 260.0601,245.5411 260.9489,246.2003 261.7688,246.9435 262.512,247.7634 263.1712,248.6522 263.7401,249.6014 264.2132,250.6018 264.586,251.6437 264.8549,252.7171 265.0173,253.8118 265.0716,254.917 265.0173,256.0223 264.8549,257.1169 264.586,258.1904 264.2132,259.2323 263.7401,260.2326 263.1712,261.1818 262.512,262.0706 261.7688,262.8906 260.9489,263.6337 260.0601,264.2929 259.1109,264.8618 258.1105,265.335 257.0686,265.7078 255.9952,265.9767 254.9005,266.139 253.7953,266.1933 252.69,266.139 251.5954,265.9767 250.5219,265.7078 249.48,265.335 248.4797,264.8618 247.5305,264.2929 246.6417,263.6337 245.8217,262.8906 245.0786,262.0706 244.4194,261.1818 243.8505,260.2326 243.3773,259.2323 243.0045,258.1904 242.7356,257.1169 242.5733,256.0223 242.519,254.917 242.5733,253.8118 242.7356,252.7171 243.0045,251.6437 243.3773,250.6018 243.8505,249.6014 244.4194,248.6522 245.0786,247.7634 245.8217,246.9435 246.6417,246.2003 247.5305,245.5411 248.4797,244.9722 249.48,244.4991"/>
    <polygon points="242.8486,239.5947 243.0471,240.0143 243.2035,240.4513 243.3163,240.9016 243.3844,241.3607 243.4071,241.8244 243.3844,242.288 243.3163,242.7471 243.2035,243.1974 243.0471,243.6344 242.8486,244.0541 242.61,244.4522 242.3335,244.825 242.0218,245.169 241.6778,245.4807 241.305,245.7572 240.9069,245.9958 240.4872,246.1943 240.0502,246.3507 239.5999,246.4634 239.1408,246.5316 238.6772,246.5543 238.2135,246.5316 237.7544,246.4634 237.3041,246.3507 236.8671,246.1943 236.4475,245.9958 236.0493,245.7572 235.6765,245.4807 235.3326,245.169 235.0208,244.825 234.7443,244.4522 234.5057,244.0541 234.3072,243.6344 234.1509,243.1974 234.0381,242.7471 233.97,242.288 233.9472,241.8244 233.97,241.3607 234.0381,240.9016 234.1509,240.4513 234.3072,240.0143 234.5057,239.5947 234.7443,239.1965 235.0208,238.8237 235.3326,238.4798 235.6765,238.168 236.0493,237.8915 236.4475,237.6529 236.8671,237.4544 237.3041,237.2981 237.7544,237.1853 238.2135,237.1172 238.6772,237.0944 239.1408,237.1172 239.5999,237.1853 240.0502,237.2981 240.4872,237.4544 240.9069,237.6529 241.305,237.8915 241.6778,238.168 242.0218,238.4798 242.3335,238.8237 242.61,239.1965"/>
    <polygon points="240.0502,233.258 239.5999,233.3708 239.1408,233.4389 238.6772,233.4617 238.2135,233.4389 237.7544,233.3708 237.3041,233.258 236.8671,233.1016 236.4475,232.9032 236.0493,232.6645 235.6765,232.388 235.3326,232.0763 235.0208,231.7324 234.7443,231.3595 234.5057,230.9614 234.3072,230.5418 234.1509,230.1047 234.0381,229.6545 233.97,229.1953 233.9472,228.7317 233.97,228.2681 234.0381,227.8089 234.1509,227.3587 234.3072,226.9216 234.5057,226.502 234.7443,226.1039 235.0208,225.731 235.3326,225.3871 235.6765,225.0754 236.0493,224.7989 236.4475,224.5602 236.8671,224.3618 237.3041,224.2054 237.7544,224.0926 238.2135,224.0245 238.6772,224.0017 239.1408,224.0245 239.5999,224.0926 240.0502,224.2054 240.4872,224.3618 240.9069,224.5602 241.305,224.7989 241.6778,225.0754 242.0218,225.3871 242.3335,225.731 242.61,226.1039 242.8486,226.502 243.0471,226.9216 243.2035,227.3587 243.3163,227.8089 243.3844,228.2681 243.4071,228.7317 243.3844,229.1953 243.3163,229.6545 243.2035,230.1047 243.0471,230.5418 242.8486,230.9614 242.61,231.3595 242.3335,231.7324 242.0218,232.0763 241.6778,232.388 241.305,232.6645 240.9069,232.9032 240.4872,233.1016"/>
    <polygon points="230.6832,238.6226 230.3392,238.9343 229.9664,239.2109 229.5683,239.4495 229.1487,239.648 228.7116,239.8043 228.2614,239.9171 227.8022,239.9852 227.3386,240.008 226.875,239.9852 226.4158,239.9171 225.9655,239.8043 225.5285,239.648 225.1089,239.4495 224.7108,239.2109 224.3379,238.9343 223.994,238.6226 223.6823,238.2787 223.4058,237.9059 223.1671,237.5077 222.9687,237.0881 222.8123,236.6511 222.6995,236.2008 222.6314,235.7416 222.6086,235.278 222.6314,234.8144 222.6995,234.3553 222.8123,233.905 222.9687,233.4679 223.1671,233.0483 223.4058,232.6502 223.6823,232.2774 223.994,231.9334 224.3379,231.6217 224.7108,231.3452 225.1089,231.1066 225.5285,230.9081 225.9655,230.7517 226.4158,230.6389 226.875,230.5708 227.3386,230.5481 227.8022,230.5708 228.2614,230.6389 228.7116,230.7517 229.1487,230.9081 229.5683,231.1066 229.9664,231.3452 230.3392,231.6217 230.6832,231.9334 230.9949,232.2774 231.2714,232.6502 231.51,233.0483 231.7085,233.4679 231.8649,233.905 231.9777,234.3553 232.0458,234.8144 232.0686,235.278 232.0458,235.7416 231.9777,236.2008 231.8649,236.6511 231.7085,237.0881 231.51,237.5077 231.2714,237.9059 230.9949,238.2787"/>
    <polygon points="232.0686,248.3707 232.0458,248.8343 231.9777,249.2935 231.8649,249.7437 231.7085,250.1808 231.51,250.6004 231.2714,250.9985 230.9949,251.3714 230.6832,251.7153 230.3392,252.027 229.9664,252.3035 229.5683,252.5422 229.1487,252.7406 228.7116,252.897 228.2614,253.0098 227.8022,253.0779 227.3386,253.1007 226.875,253.0779 226.4158,253.0098 225.9655,252.897 225.5285,252.7406 225.1089,252.5422 224.7108,252.3035 224.3379,252.027 223.994,251.7153 223.6823,251.3714 223.4058,250.9985 223.1671,250.6004 222.9687,250.1808 222.8123,249.7437 222.6995,249.2935 222.6314,248.8343 222.6086,248.3707 222.6314,247.9071 222.6995,247.4479 222.8123,246.9977 222.9687,246.5606 223.1671,246.141 223.4058,245.7429 223.6823,245.37 223.994,245.0261 224.3379,244.7144 224.7108,244.4379 225.1089,244.1992 225.5285,244.0008 225.9655,243.8444 226.4158,243.7316 226.875,243.6635 227.3386,243.6407 227.8022,243.6635 228.2614,243.7316 228.7116,243.8444 229.1487,244.0008 229.5683,244.1992 229.9664,244.4379 230.3392,244.7144 230.6832,245.0261 230.9949,245.37 231.2714,245.7429 231.51,246.141 231.7085,246.5606 231.8649,246.9977 231.9777,247.4479 232.0458,247.9071"/>
    <polygon points="195.7114,256.8507 198.077,257.2016 200.3968,257.7827 202.6484,258.5884 204.8103,259.6108 206.8615,260.8403 208.7823,262.2649 210.5543,263.8709 212.1603,265.6428 213.5849,267.5637 214.8144,269.6149 215.8368,271.7768 216.6425,274.0284 217.2236,276.3482 217.5745,278.7138 217.6918,281.1024 217.5745,283.4909 217.2236,285.8565 216.6425,288.1763 215.8368,290.428 214.8144,292.5898 213.5849,294.641 212.1603,296.5619 210.5543,298.3338 208.7823,299.9398 206.8615,301.3644 204.8103,302.5939 202.6484,303.6164 200.3968,304.422 198.077,305.0031 195.7114,305.354 193.3228,305.4713 190.9343,305.354 188.5687,305.0031 186.2489,304.422 183.9972,303.6164 181.8354,302.5939 179.7842,301.3644 177.8633,299.9398 176.0914,298.3338 174.4854,296.5619 173.0608,294.641 171.8313,292.5898 170.8088,290.428 170.0032,288.1763 169.4221,285.8565 169.0712,283.4909 168.9539,281.1024 169.0712,278.7138 169.4221,276.3482 170.0032,274.0284 170.8088,271.7768 171.8313,269.6149 173.0608,267.5637 174.4854,265.6428 176.0914,263.8709 177.8633,262.2649 179.7842,260.8403 181.8354,259.6108 183.9972,258.5884 186.2489,257.7827 188.5687,257.2016 190.9343,256.8507 193.3228,256.7334"/>
    <polygon points="184.6585,230.6024 183.5639,230.7647 182.4904,231.0336 181.4485,231.4064 180.4482,231.8795 179.499,232.4485 178.6102,233.1077 177.7902,233.8508 177.0471,234.6707 176.3879,235.5596 175.819,236.5087 175.3458,237.5091 174.973,238.551 174.7041,239.6245 174.5418,240.7191 174.4875,241.8244 174.5418,242.9296 174.7041,244.0243 174.973,245.0977 175.3458,246.1396 175.819,247.14 176.3879,248.0891 177.0471,248.978 177.7902,249.7979 178.6102,250.5411 179.499,251.2003 180.4482,251.7692 181.4485,252.2423 182.4904,252.6151 183.5639,252.884 184.6585,253.0464 185.7638,253.1007 186.8691,253.0464 187.9637,252.884 189.0371,252.6151 190.079,252.2423 191.0794,251.7692 192.0286,251.2003 192.9174,250.5411 193.7373,249.7979 194.4805,248.978 195.1397,248.0891 195.7086,247.14 196.1817,246.1396 196.5545,245.0977 196.8234,244.0243 196.9858,242.9296 197.0401,241.8244 196.9858,240.7191 196.8234,239.6245 196.5545,238.551 196.1817,237.5091 195.7086,236.5087 195.1397,235.5596 194.4805,234.6707 193.7373,233.8508 192.9174,233.1077 192.0286,232.4485 191.0794,231.8795 190.079,231.4064 189.0371,231.0336 187.9637,230.7647 186.8691,230.6024 185.7638,230.5481"/>
    <polygon points="209.1877,233.905 209.0313,233.4679 208.8329,233.0483 208.5942,232.6502 208.3177,232.2774 208.006,231.9334 207.6621,231.6217 207.2892,231.3452 206.8911,231.1066 206.4715,230.9081 206.0345,230.7517 205.5842,230.6389 205.125,230.5708 204.6614,230.5481 204.1978,230.5708 203.7386,230.6389 203.2884,230.7517 202.8513,230.9081 202.4317,231.1066 202.0336,231.3452 201.6608,231.6217 201.3168,231.9334 201.0051,232.2774 200.7286,232.6502 200.49,233.0483 200.2915,233.4679 200.1351,233.905 200.0223,234.3553 199.9542,234.8144 199.9314,235.278 199.9542,235.7416 200.0223,236.2008 200.1351,236.6511 200.2915,237.0881 200.49,237.5077 200.7286,237.9059 201.0051,238.2787 201.3168,238.6226 201.6608,238.9343 202.0336,239.2109 202.4317,239.4495 202.8513,239.648 203.2884,239.8043 203.7386,239.9171 204.1978,239.9852 204.6614,240.008 205.125,239.9852 205.5842,239.9171 206.0345,239.8043 206.4715,239.648 206.8911,239.4495 207.2892,239.2109 207.6621,238.9343 208.006,238.6226 208.3177,238.2787 208.5942,237.9059 208.8329,237.5077 209.0313,237.0881 209.1877,236.6511 209.3005,236.2008 209.3686,235.7416 209.3914,235.278 209.3686,234.8144 209.3005,234.3553"/>
    <polygon points="211.8285,226.502 211.6301,226.9216 211.4737,227.3587 211.3609,227.8089 211.2928,228.2681 211.27,228.7317 211.2928,229.1953 211.3609,229.6545 211.4737,230.1047 211.6301,230.5418 211.8285,230.9614 212.0672,231.3595 212.3437,231.7324 212.6554,232.0763 212.9993,232.388 213.3722,232.6645 213.7703,232.9032 214.1899,233.1016 214.627,233.258 215.0772,233.3708 215.5364,233.4389 216.0,233.4617 216.4636,233.4389 216.9228,233.3708 217.373,233.258 217.8101,233.1016 218.2297,232.9032 218.6278,232.6645 219.0007,232.388 219.3446,232.0763 219.6563,231.7324 219.9328,231.3595 220.1715,230.9614 220.3699,230.5418 220.5263,230.1047 220.6391,229.6545 220.7072,229.1953 220.73,228.7317 220.7072,228.2681 220.6391,227.8089 220.5263,227.3587 220.3699,226.9216 220.1715,226.502 219.9328,226.1039 219.6563,225.731 219.3446,225.3871 219.0007,225.0754 218.6278,224.7989 218.2297,224.5602 217.8101,224.3618 217.373,224.2054 216.9228,224.0926 216.4636,224.0245 216.0,224.0017 215.5364,224.0245 215.0772,224.0926 214.627,224.2054 214.1899,224.3618 213.7703,224.5602 213.3722,224.7989 212.9993,225.0754 212.6554,225.3871 212.3437,225.731 212.0672,226.1039"/>
    <polygon points="213.3722,219.5719 213.7703,219.8105 214.1899,220.0089 214.627,220.1653 215.0772,220.2781 215.5364,220.3462 216.0,220.369 216.4636,220.3462 216.9228,220.2781 217.373,220.1653 217.8101,220.0089 218.2297,219.8105 218.6278,219.5719 219.0007,219.2953 219.3446,218.9836 219.6563,218.6397 219.9328,218.2669 220.1715,217.8687 220.3699,217.4491 220.5263,217.0121 220.6391,216.5618 220.7072,216.1026 220.73,215.639 220.7072,215.1754 220.6391,214.7163 220.5263,214.266 220.3699,213.8289 220.1715,213.4093 219.9328,213.0112 219.6563,212.6384 219.3446,212.2944 219.0007,211.9827 218.6278,211.7062 218.2297,211.4676 217.8101,211.2691 217.373,211.1127 216.9228,210.9999 216.4636,210.9318 216.0,210.9091 215.5364,210.9318 215.0772,210.9999 214.627,211.1127 214.1899,211.2691 213.7703,211.4676 213.3722,211.7062 212.9993,211.9827 212.6554,212.2944 212.3437,212.6384 212.0672,213.0112 211.8285,213.4093 211.6301,213.8289 211.4737,214.266 211.3609,214.7163 211.2928,215.1754 211.27,215.639 211.2928,216.1026 211.3609,216.5618 211.4737,217.0121 211.6301,217.4491 211.8285,217.8687 212.0672,218.2669 212.3437,218.6397 212.6554,218.9836 212.9993,219.2953"/>
    <polygon points="207.6621,205.4364 207.2892,205.1599 206.8911,204.9212 206.4715,204.7228 206.0345,204.5664 205.5842,204.4536 205.125,204.3855 204.6614,204.3627 204.1978,204.3855 203.7386,204.4536 203.2884,204.5664 202.8513,204.7228 202.4317,204.9212 202.0336,205.1599 201.6608,205.4364 201.3168,205.7481 201.0051,206.092 200.7286,206.4649 200.49,206.863 200.2915,207.2826 200.1351,207.7197 200.0223,208.1699 199.9542,208.6291 199.9314,209.0927 199.9542,209.5563 200.0223,210.0155 200.1351,210.4657 200.2915,210.9028 200.49,211.3224 200.7286,211.7205 201.0051,212.0934 201.3168,212.4373 201.6608,212.749 202.0336,213.0255 202.4317,213.2642 202.8513,213.4626 203.2884,213.619 203.7386,213.7318 204.1978,213.7999 204.6614,213.8227 205.125,213.7999 205.5842,213.7318 206.0345,213.619 206.4715,213.4626 206.8911,213.2642 207.2892,213.0255 207.6621,212.749 208.006,212.4373 208.3177,212.0934 208.5942,211.7205 208.8329,211.3224 209.0313,210.9028 209.1877,210.4657 209.3005,210.0155 209.3686,209.5563 209.3914,209.0927 209.3686,208.6291 209.3005,208.1699 209.1877,207.7197 209.0313,207.2826 208.8329,206.863 208.5942,206.4649 208.3177,206.092 208.006,205.7481"/>
    <polygon points="180.6112,191.4737 180.1742,191.6301 179.7546,191.8286 179.3564,192.0672 178.9836,192.3437 178.6397,192.6554 178.3279,192.9994 178.0514,193.3722 177.8128,193.7703 177.6143,194.1899 177.458,194.627 177.3452,195.0773 177.2771,195.5364 177.2543,196.0 177.2771,196.4636 177.3452,196.9228 177.458,197.3731 177.6143,197.8101 177.8128,198.2297 178.0514,198.6279 178.3279,199.0007 178.6397,199.3446 178.9836,199.6563 179.3564,199.9329 179.7546,200.1715 180.1742,200.3699 180.6112,200.5263 181.0615,200.6391 181.5206,200.7072 181.9843,200.73 182.4479,200.7072 182.907,200.6391 183.3573,200.5263 183.7943,200.3699 184.2139,200.1715 184.6121,199.9329 184.9849,199.6563 185.3288,199.3446 185.6406,199.0007 185.9171,198.6279 186.1557,198.2297 186.3542,197.8101 186.5106,197.3731 186.6233,196.9228 186.6914,196.4636 186.7142,196.0 186.6914,195.5364 186.6233,195.0773 186.5106,194.627 186.3542,194.1899 186.1557,193.7703 185.9171,193.3722 185.6406,192.9994 185.3288,192.6554 184.9849,192.3437 184.6121,192.0672 184.2139,191.8286 183.7943,191.6301 183.3573,191.4737 182.907,191.3609 182.4479,191.2928 181.9843,191.2701 181.5206,191.2928 181.0615,191.3609"/>
    <polygon points="177.7902,207.6655 177.0471,208.4854 176.3879,209.3742 175.819,210.3234 175.3458,211.3238 174.973,212.3657 174.7041,213.4391 174.5418,214.5338 174.4875,215.639 174.5418,216.7443 174.7041,217.8389 174.973,218.9124 175.3458,219.9543 175.819,220.9546 176.3879,221.9038 177.0471,222.7926 177.7902,223.6126 178.6102,224.3557 179.499,225.0149 180.4482,225.5838 181.4485,226.057 182.4904,226.4298 183.5639,226.6987 184.6585,226.861 185.7638,226.9153 186.8691,226.861 187.9637,226.6987 189.0371,226.4298 190.079,226.057 191.0794,225.5838 192.0286,225.0149 192.9174,224.3557 193.7373,223.6126 194.4805,222.7926 195.1397,221.9038 195.7086,220.9546 196.1817,219.9543 196.5545,218.9124 196.8234,217.8389 196.9858,216.7443 197.0401,215.639 196.9858,214.5338 196.8234,213.4391 196.5545,212.3657 196.1817,211.3238 195.7086,210.3234 195.1397,209.3742 194.4805,208.4854 193.7373,207.6655 192.9174,206.9223 192.0286,206.2631 191.0794,205.6942 190.079,205.2211 189.0371,204.8483 187.9637,204.5794 186.8691,204.417 185.7638,204.3627 184.6585,204.417 183.5639,204.5794 182.4904,204.8483 181.4485,205.2211 180.4482,205.6942 179.499,206.2631 178.6102,206.9223"/>
    <polygon points="170.1821,207.2536 170.6457,207.2763 171.1093,207.2536 171.5684,207.1854 172.0187,207.0727 172.4558,206.9163 172.8754,206.7178 173.2735,206.4792 173.6463,206.2027 173.9903,205.891 174.302,205.547 174.5785,205.1742 174.8171,204.7761 175.0156,204.3564 175.172,203.9194 175.2848,203.4691 175.3529,203.01 175.3756,202.5464 175.3529,202.0827 175.2848,201.6236 175.172,201.1733 175.0156,200.7363 174.8171,200.3167 174.5785,199.9185 174.302,199.5457 173.9903,199.2018 173.6463,198.89 173.2735,198.6135 172.8754,198.3749 172.4558,198.1764 172.0187,198.0201 171.5684,197.9073 171.1093,197.8392 170.6457,197.8164 170.1821,197.8392 169.7229,197.9073 169.2726,198.0201 168.8356,198.1764 168.416,198.3749 168.0178,198.6135 167.645,198.89 167.3011,199.2018 166.9894,199.5457 166.7128,199.9185 166.4742,200.3167 166.2757,200.7363 166.1194,201.1733 166.0066,201.6236 165.9385,202.0827 165.9157,202.5464 165.9385,203.01 166.0066,203.4691 166.1194,203.9194 166.2757,204.3564 166.4742,204.7761 166.7128,205.1742 166.9894,205.547 167.3011,205.891 167.645,206.2027 168.0178,206.4792 168.416,206.7178 168.8356,206.9163 169.2726,207.0727 169.7229,207.1854"/>
    <polygon points="154.668,208.1699 154.5999,208.6291 154.5771,209.0927 154.5999,209.5563 154.668,210.0155 154.7808,210.4657 154.9372,210.9028 155.1356,211.3224 155.3743,211.7205 155.6508,212.0934 155.9625,212.4373 156.3064,212.749 156.6793,213.0255 157.0774,213.2642 157.497,213.4626 157.934,213.619 158.3843,213.7318 158.8435,213.7999 159.3071,213.8227 159.7707,213.7999 160.2299,213.7318 160.6801,213.619 161.1172,213.4626 161.5368,213.2642 161.9349,213.0255 162.3077,212.749 162.6517,212.4373 162.9634,212.0934 163.2399,211.7205 163.4786,211.3224 163.677,210.9028 163.8334,210.4657 163.9462,210.0155 164.0143,209.5563 164.0371,209.0927 164.0143,208.6291 163.9462,208.1699 163.8334,207.7197 163.677,207.2826 163.4786,206.863 163.2399,206.4649 162.9634,206.092 162.6517,205.7481 162.3077,205.4364 161.9349,205.1599 161.5368,204.9212 161.1172,204.7228 160.6801,204.5664 160.2299,204.4536 159.7707,204.3855 159.3071,204.3627 158.8435,204.3855 158.3843,204.4536 157.934,204.5664 157.497,204.7228 157.0774,204.9212 156.6793,205.1599 156.3064,205.4364 155.9625,205.7481 155.6508,206.092 155.3743,206.4649 155.1356,206.863 154.9372,207.2826 154.7808,207.7197"/>
    <polygon points="143.5986,213.8289 143.4422,214.266 143.3294,214.7163 143.2613,215.1754 143.2385,215.639 143.2613,216.1026 143.3294,216.5618 143.4422,217.0121 143.5986,217.4491 143.797,217.8687 144.0357,218.2669 144.3122,218.6397 144.6239,218.9836 144.9678,219.2953 145.3407,219.5719 145.7388,219.8105 146.1584,220.0089 146.5955,220.1653 147.0457,220.2781 147.5049,220.3462 147.9685,220.369 148.4321,220.3462 148.8913,220.2781 149.3415,220.1653 149.7786,220.0089 150.1982,219.8105 150.5963,219.5719 150.9692,219.2953 151.3131,218.9836 151.6248,218.6397 151.9013,218.2669 152.14,217.8687 152.3384,217.4491 152.4948,217.0121 152.6076,216.5618 152.6757,216.1026 152.6985,215.639 152.6757,215.1754 152.6076,214.7163 152.4948,214.266 152.3384,213.8289 152.14,213.4093 151.9013,213.0112 151.6248,212.6384 151.3131,212.2944 150.9692,211.9827 150.5963,211.7062 150.1982,211.4676 149.7786,211.2691 149.3415,211.1127 148.8913,210.9999 148.4321,210.9318 147.9685,210.9091 147.5049,210.9318 147.0457,210.9999 146.5955,211.1127 146.1584,211.2691 145.7388,211.4676 145.3407,211.7062 144.9678,211.9827 144.6239,212.2944 144.3122,212.6384 144.0357,213.0112 143.797,213.4093"/>
    <polygon points="152.027,226.5318 151.8646,227.6264 151.8103,228.7317 151.8646,229.837 152.027,230.9316 152.2959,232.005 152.6687,233.0469 153.1418,234.0473 153.7107,234.9965 154.3699,235.8853 155.1131,236.7052 155.933,237.4484 156.8218,238.1076 157.771,238.6765 158.7714,239.1496 159.8133,239.5224 160.8867,239.7913 161.9813,239.9537 163.0866,240.008 164.1919,239.9537 165.2865,239.7913 166.36,239.5224 167.4019,239.1496 168.4022,238.6765 169.3514,238.1076 170.2402,237.4484 171.0602,236.7052 171.8033,235.8853 172.4625,234.9965 173.0314,234.0473 173.5046,233.0469 173.8774,232.005 174.1462,230.9316 174.3086,229.837 174.3629,228.7317 174.3086,227.6264 174.1462,226.5318 173.8774,225.4584 173.5046,224.4164 173.0314,223.4161 172.4625,222.4669 171.8033,221.5781 171.0602,220.7581 170.2402,220.015 169.3514,219.3558 168.4022,218.7869 167.4019,218.3137 166.36,217.9409 165.2865,217.6721 164.1919,217.5097 163.0866,217.4554 161.9813,217.5097 160.8867,217.6721 159.8133,217.9409 158.7714,218.3137 157.771,218.7869 156.8218,219.3558 155.933,220.015 155.1131,220.7581 154.3699,221.5781 153.7107,222.4669 153.1418,223.4161 152.6687,224.4164 152.2959,225.4584"/>
    <polygon points="144.0357,244.4522 144.3122,244.825 144.6239,245.169 144.9678,245.4807 145.3407,245.7572 145.7388,245.9958 146.1584,246.1943 146.5955,246.3507 147.0457,246.4634 147.5049,246.5316 147.9685,246.5543 148.4321,246.5316 148.8913,246.4634 149.3415,246.3507 149.7786,246.1943 150.1982,245.9958 150.5963,245.7572 150.9692,245.4807 151.3131,245.169 151.6248,244.825 151.9013,244.4522 152.14,244.0541 152.3384,243.6344 152.4948,243.1974 152.6076,242.7471 152.6757,242.288 152.6985,241.8244 152.6757,241.3607 152.6076,240.9016 152.4948,240.4513 152.3384,240.0143 152.14,239.5947 151.9013,239.1965 151.6248,238.8237 151.3131,238.4798 150.9692,238.168 150.5963,237.8915 150.1982,237.6529 149.7786,237.4544 149.3415,237.2981 148.8913,237.1853 148.4321,237.1172 147.9685,237.0944 147.5049,237.1172 147.0457,237.1853 146.5955,237.2981 146.1584,237.4544 145.7388,237.6529 145.3407,237.8915 144.9678,238.168 144.6239,238.4798 144.3122,238.8237 144.0357,239.1965 143.797,239.5947 143.5986,240.0143 143.4422,240.4513 143.3294,240.9016 143.2613,241.3607 143.2385,241.8244 143.2613,242.288 143.3294,242.7471 143.4422,243.1974 143.5986,243.6344 143.797,244.0541"/>
    <polygon points="153.1418,260.2326 153.7107,261.1818 154.3699,262.0706 155.1131,262.8906 155.933,263.6337 156.8218,264.2929 157.771,264.8618 158.7714,265.335 159.8133,265.7078 160.8867,265.9767 161.9813,266.139 163.0866,266.1933 164.1919,266.139 165.2865,265.9767 166.36,265.7078 167.4019,265.335 168.4022,264.8618 169.3514,264.2929 170.2402,263.6337 171.0602,262.8906 171.8033,262.0706 172.4625,261.1818 173.0314,260.2326 173.5046,259.2323 173.8774,258.1904 174.1462,257.1169 174.3086,256.0223 174.3629,254.917 174.3086,253.8118 174.1462,252.7171 173.8774,251.6437 173.5046,250.6018 173.0314,249.6014 172.4625,248.6522 171.8033,247.7634 171.0602,246.9435 170.2402,246.2003 169.3514,245.5411 168.4022,244.9722 167.4019,244.4991 166.36,244.1263 165.2865,243.8574 164.1919,243.695 163.0866,243.6407 161.9813,243.695 160.8867,243.8574 159.8133,244.1263 158.7714,244.4991 157.771,244.9722 156.8218,245.5411 155.933,246.2003 155.1131,246.9435 154.3699,247.7634 153.7107,248.6522 153.1418,249.6014 152.6687,250.6018 152.2959,251.6437 152.027,252.7171 151.8646,253.8118 151.8103,254.917 151.8646,256.0223 152.027,257.1169 152.2959,258.1904 152.6687,259.2323"/>
    <polygon points="150.5963,298.1279 150.9692,297.8513 151.3131,297.5396 151.6248,297.1957 151.9013,296.8229 152.14,296.4247 152.3384,296.0051 152.4948,295.5681 152.6076,295.1178 152.6757,294.6586 152.6985,294.195 152.6757,293.7314 152.6076,293.2723 152.4948,292.822 152.3384,292.3849 152.14,291.9653 151.9013,291.5672 151.6248,291.1944 151.3131,290.8504 150.9692,290.5387 150.5963,290.2622 150.1982,290.0236 149.7786,289.8251 149.3415,289.6687 148.8913,289.5559 148.4321,289.4878 147.9685,289.4651 147.5049,289.4878 147.0457,289.5559 146.5955,289.6687 146.1584,289.8251 145.7388,290.0236 145.3407,290.2622 144.9678,290.5387 144.6239,290.8504 144.3122,291.1944 144.0357,291.5672 143.797,291.9653 143.5986,292.3849 143.4422,292.822 143.3294,293.2723 143.2613,293.7314 143.2385,294.195 143.2613,294.6586 143.3294,295.1178 143.4422,295.5681 143.5986,296.0051 143.797,296.4247 144.0357,296.8229 144.3122,297.1957 144.6239,297.5396 144.9678,297.8513 145.3407,298.1279 145.7388,298.3665 146.1584,298.565 146.5955,298.7213 147.0457,298.8341 147.5049,298.9022 147.9685,298.925 148.4321,298.9022 148.8913,298.8341 149.3415,298.7213 149.7786,298.565 150.1982,298.3665"/>
    <polygon points="173.8774,310.561 173.5046,311.603 173.0314,312.6033 172.4625,313.5525 171.8033,314.4413 171.0602,315.2612 170.2402,316.0044 169.3514,316.6636 168.4022,317.2325 167.4019,317.7056 166.36,318.0784 165.2865,318.3473 164.1919,318.5097 163.0866,318.564 161.9813,318.5097 160.8867,318.3473 159.8133,318.0784 158.7714,317.7056 157.771,317.2325 156.8218,316.6636 155.933,316.0044 155.1131,315.2612 154.3699,314.4413 153.7107,313.5525 153.1418,312.6033 152.6687,311.603 152.2959,310.561 152.027,309.4876 151.8646,308.393 151.8103,307.2877 151.8646,306.1824 152.027,305.0878 152.2959,304.0144 152.6687,302.9724 153.1418,301.9721 153.7107,301.0229 154.3699,300.1341 155.1131,299.3141 155.933,298.571 156.8218,297.9118 157.771,297.3429 158.7714,296.8697 159.8133,296.4969 160.8867,296.2281 161.9813,296.0657 163.0866,296.0114 164.1919,296.0657 165.2865,296.2281 166.36,296.4969 167.4019,296.8697 168.4022,297.3429 169.3514,297.9118 170.2402,298.571 171.0602,299.3141 171.8033,300.1341 172.4625,301.0229 173.0314,301.9721 173.5046,302.9724 173.8774,304.0144 174.1462,305.0878 174.3086,306.1824 174.3629,307.2877 174.3086,308.393 174.1462,309.4876"/>
    <polygon points="152.4948,319.0073 152.3384,318.5703 152.14,318.1507 151.9013,317.7525 151.6248,317.3797 151.3131,317.0358 150.9692,316.724 150.5963,316.4475 150.1982,316.2089 149.7786,316.0104 149.3415,315.8541 148.8913,315.7413 148.4321,315.6732 147.9685,315.6504 147.5049,315.6732 147.0457,315.7413 146.5955,315.8541 146.1584,316.0104 145.7388,316.2089 145.3407,316.4475 144.9678,316.724 144.6239,317.0358 144.3122,317.3797 144.0357,317.7525 143.797,318.1507 143.5986,318.5703 143.4422,319.0073 143.3294,319.4576 143.2613,319.9167 143.2385,320.3804 143.2613,320.844 143.3294,321.3031 143.4422,321.7534 143.5986,322.1904 143.797,322.6101 144.0357,323.0082 144.3122,323.381 144.6239,323.725 144.9678,324.0367 145.3407,324.3132 145.7388,324.5518 146.1584,324.7503 146.5955,324.9067 147.0457,325.0195 147.5049,325.0876 147.9685,325.1103 148.4321,325.0876 148.8913,325.0195 149.3415,324.9067 149.7786,324.7503 150.1982,324.5518 150.5963,324.3132 150.9692,324.0367 151.3131,323.725 151.6248,323.381 151.9013,323.0082 152.14,322.6101 152.3384,322.1904 152.4948,321.7534 152.6076,321.3031 152.6757,320.844 152.6985,320.3804 152.6757,319.9167 152.6076,319.4576"/>
    <polygon points="159.3071,322.1967 158.8435,322.2195 158.3843,322.2876 157.934,322.4004 157.497,322.5568 157.0774,322.7552 156.6793,322.9939 156.3064,323.2704 155.9625,323.5821 155.6508,323.926 155.3743,324.2989 155.1356,324.697 154.9372,325.1166 154.7808,325.5537 154.668,326.0039 154.5999,326.4631 154.5771,326.9267 154.5999,327.3903 154.668,327.8495 154.7808,328.2997 154.9372,328.7368 155.1356,329.1564 155.3743,329.5545 155.6508,329.9274 155.9625,330.2713 156.3064,330.583 156.6793,330.8595 157.0774,331.0982 157.497,331.2966 157.934,331.453 158.3843,331.5658 158.8435,331.6339 159.3071,331.6567 159.7707,331.6339 160.2299,331.5658 160.6801,331.453 161.1172,331.2966 161.5368,331.0982 161.9349,330.8595 162.3077,330.583 162.6517,330.2713 162.9634,329.9274 163.2399,329.5545 163.4786,329.1564 163.677,328.7368 163.8334,328.2997 163.9462,327.8495 164.0143,327.3903 164.0371,326.9267 164.0143,326.4631 163.9462,326.0039 163.8334,325.5537 163.677,325.1166 163.4786,324.697 163.2399,324.2989 162.9634,323.926 162.6517,323.5821 162.3077,323.2704 161.9349,322.9939 161.5368,322.7552 161.1172,322.5568 160.6801,322.4004 160.2299,322.2876 159.7707,322.2195"/>
    <polygon points="162.6517,343.364 162.3077,343.6757 161.9349,343.9522 161.5368,344.1908 161.1172,344.3893 160.6801,344.5457 160.2299,344.6585 159.7707,344.7266 159.3071,344.7493 158.8435,344.7266 158.3843,344.6585 157.934,344.5457 157.497,344.3893 157.0774,344.1908 156.6793,343.9522 156.3064,343.6757 155.9625,343.364 155.6508,343.02 155.3743,342.6472 155.1356,342.2491 154.9372,341.8294 154.7808,341.3924 154.668,340.9421 154.5999,340.483 154.5771,340.0194 154.5999,339.5557 154.668,339.0966 154.7808,338.6463 154.9372,338.2093 155.1356,337.7897 155.3743,337.3915 155.6508,337.0187 155.9625,336.6748 156.3064,336.363 156.6793,336.0865 157.0774,335.8479 157.497,335.6494 157.934,335.4931 158.3843,335.3803 158.8435,335.3122 159.3071,335.2894 159.7707,335.3122 160.2299,335.3803 160.6801,335.4931 161.1172,335.6494 161.5368,335.8479 161.9349,336.0865 162.3077,336.363 162.6517,336.6748 162.9634,337.0187 163.2399,337.3915 163.4786,337.7897 163.677,338.2093 163.8334,338.6463 163.9462,339.0966 164.0143,339.5557 164.0371,340.0194 164.0143,340.483 163.9462,340.9421 163.8334,341.3924 163.677,341.8294 163.4786,342.2491 163.2399,342.6472 162.9634,343.02"/>
    <polygon points="170.1821,338.1802 170.6457,338.203 171.1093,338.1802 171.5684,338.1121 172.0187,337.9993 172.4558,337.843 172.8754,337.6445 173.2735,337.4059 173.6463,337.1294 173.9903,336.8176 174.302,336.4737 174.5785,336.1009 174.8171,335.7027 175.0156,335.2831 175.172,334.8461 175.2848,334.3958 175.3529,333.9367 175.3756,333.473 175.3529,333.0094 175.2848,332.5503 175.172,332.1 175.0156,331.663 174.8171,331.2433 174.5785,330.8452 174.302,330.4724 173.9903,330.1284 173.6463,329.8167 173.2735,329.5402 172.8754,329.3016 172.4558,329.1031 172.0187,328.9467 171.5684,328.8339 171.1093,328.7658 170.6457,328.7431 170.1821,328.7658 169.7229,328.8339 169.2726,328.9467 168.8356,329.1031 168.416,329.3016 168.0178,329.5402 167.645,329.8167 167.3011,330.1284 166.9894,330.4724 166.7128,330.8452 166.4742,331.2433 166.2757,331.663 166.1194,332.1 166.0066,332.5503 165.9385,333.0094 165.9157,333.473 165.9385,333.9367 166.0066,334.3958 166.1194,334.8461 166.2757,335.2831 166.4742,335.7027 166.7128,336.1009 166.9894,336.4737 167.3011,336.8176 167.645,337.1294 168.0178,337.4059 168.416,337.6445 168.8356,337.843 169.2726,337.9993 169.7229,338.1121"/>
    <polygon points="177.3452,339.0966 177.2771,339.5557 177.2543,340.0194 177.2771,340.483 177.3452,340.9421 177.458,341.3924 177.6143,341.8294 177.8128,342.2491 178.0514,342.6472 178.3279,343.02 178.6397,343.364 178.9836,343.6757 179.3564,343.9522 179.7546,344.1908 180.1742,344.3893 180.6112,344.5457 181.0615,344.6585 181.5206,344.7266 181.9843,344.7493 182.4479,344.7266 182.907,344.6585 183.3573,344.5457 183.7943,344.3893 184.2139,344.1908 184.6121,343.9522 184.9849,343.6757 185.3288,343.364 185.6406,343.02 185.9171,342.6472 186.1557,342.2491 186.3542,341.8294 186.5106,341.3924 186.6233,340.9421 186.6914,340.483 186.7142,340.0194 186.6914,339.5557 186.6233,339.0966 186.5106,338.6463 186.3542,338.2093 186.1557,337.7897 185.9171,337.3915 185.6406,337.0187 185.3288,336.6748 184.9849,336.363 184.6121,336.0865 184.2139,335.8479 183.7943,335.6494 183.3573,335.4931 182.907,335.3803 182.4479,335.3122 181.9843,335.2894 181.5206,335.3122 181.0615,335.3803 180.6112,335.4931 180.1742,335.6494 179.7546,335.8479 179.3564,336.0865 178.9836,336.363 178.6397,336.6748 178.3279,337.0187 178.0514,337.3915 177.8128,337.7897 177.6143,338.2093 177.458,338.6463"/>
    <polygon points="193.7373,312.4068 192.9174,311.6637 192.0286,311.0045 191.0794,310.4356 190.079,309.9624 189.0371,309.5896 187.9637,309.3207 186.8691,309.1584 185.7638,309.1041 184.6585,309.1584 183.5639,309.3207 182.4904,309.5896 181.4485,309.9624 180.4482,310.4356 179.499,311.0045 178.6102,311.6637 177.7902,312.4068 177.0471,313.2268 176.3879,314.1156 175.819,315.0648 175.3458,316.0651 174.973,317.107 174.7041,318.1805 174.5418,319.2751 174.4875,320.3804 174.5418,321.4856 174.7041,322.5803 174.973,323.6537 175.3458,324.6956 175.819,325.696 176.3879,326.6451 177.0471,327.534 177.7902,328.3539 178.6102,329.0971 179.499,329.7563 180.4482,330.3252 181.4485,330.7983 182.4904,331.1711 183.5639,331.44 184.6585,331.6024 185.7638,331.6567 186.8691,331.6024 187.9637,331.44 189.0371,331.1711 190.079,330.7983 191.0794,330.3252 192.0286,329.7563 192.9174,329.0971 193.7373,328.3539 194.4805,327.534 195.1397,326.6451 195.7086,325.696 196.1817,324.6956 196.5545,323.6537 196.8234,322.5803 196.9858,321.4856 197.0401,320.3804 196.9858,319.2751 196.8234,318.1805 196.5545,317.107 196.1817,316.0651 195.7086,315.0648 195.1397,314.1156 194.4805,313.2268"/>
    <polygon points="220.0585,291.9951 220.3274,290.9217 220.7002,289.8798 221.1733,288.8794 221.7422,287.9302 222.4014,287.0414 223.1446,286.2215 223.9645,285.4783 224.8533,284.8191 225.8025,284.2502 226.8029,283.7771 227.8448,283.4043 228.9182,283.1354 230.0128,282.973 231.1181,282.9187 232.2234,282.973 233.318,283.1354 234.3914,283.4043 235.4334,283.7771 236.4337,284.2502 237.3829,284.8191 238.2717,285.4783 239.0917,286.2215 239.8348,287.0414 240.494,287.9302 241.0629,288.8794 241.5361,289.8798 241.9089,290.9217 242.1777,291.9951 242.3401,293.0898 242.3944,294.195 242.3401,295.3003 242.1777,296.3949 241.9089,297.4684 241.5361,298.5103 241.0629,299.5106 240.494,300.4598 239.8348,301.3486 239.0917,302.1686 238.2717,302.9117 237.3829,303.5709 236.4337,304.1398 235.4334,304.613 234.3914,304.9858 233.318,305.2547 232.2234,305.417 231.1181,305.4713 230.0128,305.417 228.9182,305.2547 227.8448,304.9858 226.8029,304.613 225.8025,304.1398 224.8533,303.5709 223.9645,302.9117 223.1446,302.1686 222.4014,301.3486 221.7422,300.4598 221.1733,299.5106 220.7002,298.5103 220.3274,297.4684 220.0585,296.3949 219.8961,295.3003 219.8418,294.195 219.8961,293.0898"/>
    <polygon points="232.2234,279.2317 231.1181,279.286 230.0128,279.2317 228.9182,279.0693 227.8448,278.8004 226.8029,278.4276 225.8025,277.9545 224.8533,277.3856 223.9645,276.7264 223.1446,275.9832 222.4014,275.1633 221.7422,274.2745 221.1733,273.3253 220.7002,272.325 220.3274,271.283 220.0585,270.2096 219.8961,269.115 219.8418,268.0097 219.8961,266.9044 220.0585,265.8098 220.3274,264.7364 220.7002,263.6944 221.1733,262.6941 221.7422,261.7449 222.4014,260.8561 223.1446,260.0361 223.9645,259.293 224.8533,258.6338 225.8025,258.0649 226.8029,257.5917 227.8448,257.2189 228.9182,256.9501 230.0128,256.7877 231.1181,256.7334 232.2234,256.7877 233.318,256.9501 234.3914,257.2189 235.4334,257.5917 236.4337,258.0649 237.3829,258.6338 238.2717,259.293 239.0917,260.0361 239.8348,260.8561 240.494,261.7449 241.0629,262.6941 241.5361,263.6944 241.9089,264.7364 242.1777,265.8098 242.3401,266.9044 242.3944,268.0097 242.3401,269.115 242.1777,270.2096 241.9089,271.283 241.5361,272.325 241.0629,273.3253 240.494,274.2745 239.8348,275.1633 239.0917,275.9832 238.2717,276.7264 237.3829,277.3856 236.4337,277.9545 235.4334,278.4276 234.3914,278.8004 233.318,279.0693"/>
    <polygon points="243.8505,301.9721 244.4194,301.0229 245.0786,300.1341 245.8217,299.3141 246.6417,298.571 247.5305,297.9118 248.4797,297.3429 249.48,296.8697 250.5219,296.4969 251.5954,296.2281 252.69,296.0657 253.7953,296.0114 254.9005,296.0657 255.9952,296.2281 257.0686,296.4969 258.1105,296.8697 259.1109,297.3429 260.0601,297.9118 260.9489,298.571 261.7688,299.3141 262.512,300.1341 263.1712,301.0229 263.7401,301.9721 264.2132,302.9724 264.586,304.0144 264.8549,305.0878 265.0173,306.1824 265.0716,307.2877 265.0173,308.393 264.8549,309.4876 264.586,310.561 264.2132,311.603 263.7401,312.6033 263.1712,313.5525 262.512,314.4413 261.7688,315.2612 260.9489,316.0044 260.0601,316.6636 259.1109,317.2325 258.1105,317.7056 257.0686,318.0784 255.9952,318.3473 254.9005,318.5097 253.7953,318.564 252.69,318.5097 251.5954,318.3473 250.5219,318.0784 249.48,317.7056 248.4797,317.2325 247.5305,316.6636 246.6417,316.0044 245.8217,315.2612 245.0786,314.4413 244.4194,313.5525 243.8505,312.6033 243.3773,311.603 243.0045,310.561 242.7356,309.4876 242.5733,308.393 242.519,307.2877 242.5733,306.1824 242.7356,305.0878 243.0045,304.0144 243.3773,302.9724"/>
    <polygon points="258.1105,291.5203 257.0686,291.8931 255.9952,292.162 254.9005,292.3244 253.7953,292.3787 252.69,292.3244 251.5954,292.162 250.5219,291.8931 249.48,291.5203 248.4797,291.0472 247.5305,290.4783 246.6417,289.8191 245.8217,289.0759 245.0786,288.256 244.4194,287.3671 243.8505,286.418 243.3773,285.4176 243.0045,284.3757 242.7356,283.3023 242.5733,282.2076 242.519,281.1024 242.5733,279.9971 242.7356,278.9025 243.0045,277.829 243.3773,276.7871 243.8505,275.7867 244.4194,274.8376 245.0786,273.9487 245.8217,273.1288 246.6417,272.3857 247.5305,271.7265 248.4797,271.1575 249.48,270.6844 250.5219,270.3116 251.5954,270.0427 252.69,269.8804 253.7953,269.8261 254.9005,269.8804 255.9952,270.0427 257.0686,270.3116 258.1105,270.6844 259.1109,271.1575 260.0601,271.7265 260.9489,272.3857 261.7688,273.1288 262.512,273.9487 263.1712,274.8376 263.7401,275.7867 264.2132,276.7871 264.586,277.829 264.8549,278.9025 265.0173,279.9971 265.0716,281.1024 265.0173,282.2076 264.8549,283.3023 264.586,284.3757 264.2132,285.4176 263.7401,286.418 263.1712,287.3671 262.512,288.256 261.7688,289.0759 260.9489,289.8191 260.0601,290.4783 259.1109,291.0472"/>
    <polygon points="268.323,298.9313 268.5214,298.5117 268.7601,298.1135 269.0366,297.7407 269.3483,297.3968 269.6923,297.085 270.0651,296.8085 270.4632,296.5699 270.8828,296.3714 271.3199,296.2151 271.7701,296.1023 272.2293,296.0342 272.6929,296.0114 273.1565,296.0342 273.6157,296.1023 274.066,296.2151 274.503,296.3714 274.9226,296.5699 275.3207,296.8085 275.6936,297.085 276.0375,297.3968 276.3492,297.7407 276.6257,298.1135 276.8644,298.5117 277.0628,298.9313 277.2192,299.3683 277.332,299.8186 277.4001,300.2777 277.4229,300.7414 277.4001,301.205 277.332,301.6641 277.2192,302.1144 277.0628,302.5514 276.8644,302.9711 276.6257,303.3692 276.3492,303.742 276.0375,304.086 275.6936,304.3977 275.3207,304.6742 274.9226,304.9128 274.503,305.1113 274.066,305.2677 273.6157,305.3805 273.1565,305.4486 272.6929,305.4713 272.2293,305.4486 271.7701,305.3805 271.3199,305.2677 270.8828,305.1113 270.4632,304.9128 270.0651,304.6742 269.6923,304.3977 269.3483,304.086 269.0366,303.742 268.7601,303.3692 268.5214,302.9711 268.323,302.5514 268.1666,302.1144 268.0538,301.6641 267.9857,301.205 267.9629,300.7414 267.9857,300.2777 268.0538,299.8186 268.1666,299.3683"/>
    <polygon points="281.0308,297.8513 280.6869,297.5396 280.3752,297.1957 280.0987,296.8229 279.86,296.4247 279.6616,296.0051 279.5052,295.5681 279.3924,295.1178 279.3243,294.6586 279.3015,294.195 279.3243,293.7314 279.3924,293.2723 279.5052,292.822 279.6616,292.3849 279.86,291.9653 280.0987,291.5672 280.3752,291.1944 280.6869,290.8504 281.0308,290.5387 281.4037,290.2622 281.8018,290.0236 282.2214,289.8251 282.6585,289.6687 283.1087,289.5559 283.5679,289.4878 284.0315,289.4651 284.4951,289.4878 284.9543,289.5559 285.4045,289.6687 285.8416,289.8251 286.2612,290.0236 286.6593,290.2622 287.0322,290.5387 287.3761,290.8504 287.6878,291.1944 287.9643,291.5672 288.203,291.9653 288.4014,292.3849 288.5578,292.822 288.6706,293.2723 288.7387,293.7314 288.7615,294.195 288.7387,294.6586 288.6706,295.1178 288.5578,295.5681 288.4014,296.0051 288.203,296.4247 287.9643,296.8229 287.6878,297.1957 287.3761,297.5396 287.0322,297.8513 286.6593,298.1279 286.2612,298.3665 285.8416,298.565 285.4045,298.7213 284.9543,298.8341 284.4951,298.9022 284.0315,298.925 283.5679,298.9022 283.1087,298.8341 282.6585,298.7213 282.2214,298.565 281.8018,298.3665 281.4037,298.1279"/>
    <polygon points="281.8018,324.5518 281.4037,324.3132 281.0308,324.0367 280.6869,323.725 280.3752,323.381 280.0987,323.0082 279.86,322.6101 279.6616,322.1904 279.5052,321.7534 279.3924,321.3031 279.3243,320.844 279.3015,320.3804 279.3243,319.9167 279.3924,319.4576 279.5052,319.0073 279.6616,318.5703 279.86,318.1507 280.0987,317.7525 280.3752,317.3797 280.6869,317.0358 281.0308,316.724 281.4037,316.4475 281.8018,316.2089 282.2214,316.0104 282.6585,315.8541 283.1087,315.7413 283.5679,315.6732 284.0315,315.6504 284.4951,315.6732 284.9543,315.7413 285.4045,315.8541 285.8416,316.0104 286.2612,316.2089 286.6593,316.4475 287.0322,316.724 287.3761,317.0358 287.6878,317.3797 287.9643,317.7525 288.203,318.1507 288.4014,318.5703 288.5578,319.0073 288.6706,319.4576 288.7387,319.9167 288.7615,320.3804 288.7387,320.844 288.6706,321.3031 288.5578,321.7534 288.4014,322.1904 288.203,322.6101 287.9643,323.0082 287.6878,323.381 287.3761,323.725 287.0322,324.0367 286.6593,324.3132 286.2612,324.5518 285.8416,324.7503 285.4045,324.9067 284.9543,325.0195 284.4951,325.0876 284.0315,325.1103 283.5679,325.0876 283.1087,325.0195 282.6585,324.9067 282.2214,324.7503"/>
    <polygon points="268.7601,316.4619 268.5214,316.0637 268.323,315.6441 268.1666,315.2071 268.0538,314.7568 267.9857,314.2976 267.9629,313.834 267.9857,313.3704 268.0538,312.9113 268.1666,312.461 268.323,312.0239 268.5214,311.6043 268.7601,311.2062 269.0366,310.8334 269.3483,310.4894 269.6923,310.1777 270.0651,309.9012 270.4632,309.6626 270.8828,309.4641 271.3199,309.3077 271.7701,309.1949 272.2293,309.1268 272.6929,309.1041 273.1565,309.1268 273.6157,309.1949 274.066,309.3077 274.503,309.4641 274.9226,309.6626 275.3207,309.9012 275.6936,310.1777 276.0375,310.4894 276.3492,310.8334 276.6257,311.2062 276.8644,311.6043 277.0628,312.0239 277.2192,312.461 277.332,312.9113 277.4001,313.3704 277.4229,313.834 277.4001,314.2976 277.332,314.7568 277.2192,315.2071 277.0628,315.6441 276.8644,316.0637 276.6257,316.4619 276.3492,316.8347 276.0375,317.1786 275.6936,317.4903 275.3207,317.7669 274.9226,318.0055 274.503,318.204 274.066,318.3603 273.6157,318.4731 273.1565,318.5412 272.6929,318.564 272.2293,318.5412 271.7701,318.4731 271.3199,318.3603 270.8828,318.204 270.4632,318.0055 270.0651,317.7669 269.6923,317.4903 269.3483,317.1786 269.0366,316.8347"/>
    <polygon points="253.9486,324.2989 254.1872,324.697 254.3857,325.1166 254.542,325.5537 254.6548,326.0039 254.7229,326.4631 254.7457,326.9267 254.7229,327.3903 254.6548,327.8495 254.542,328.2997 254.3857,328.7368 254.1872,329.1564 253.9486,329.5545 253.6721,329.9274 253.3603,330.2713 253.0164,330.583 252.6436,330.8595 252.2454,331.0982 251.8258,331.2966 251.3888,331.453 250.9385,331.5658 250.4794,331.6339 250.0157,331.6567 249.5521,331.6339 249.093,331.5658 248.6427,331.453 248.2057,331.2966 247.7861,331.0982 247.3879,330.8595 247.0151,330.583 246.6712,330.2713 246.3594,329.9274 246.0829,329.5545 245.8443,329.1564 245.6458,328.7368 245.4894,328.2997 245.3767,327.8495 245.3086,327.3903 245.2858,326.9267 245.3086,326.4631 245.3767,326.0039 245.4894,325.5537 245.6458,325.1166 245.8443,324.697 246.0829,324.2989 246.3594,323.926 246.6712,323.5821 247.0151,323.2704 247.3879,322.9939 247.7861,322.7552 248.2057,322.5568 248.6427,322.4004 249.093,322.2876 249.5521,322.2195 250.0157,322.1967 250.4794,322.2195 250.9385,322.2876 251.3888,322.4004 251.8258,322.5568 252.2454,322.7552 252.6436,322.9939 253.0164,323.2704 253.3603,323.5821 253.6721,323.926"/>
    <polygon points="246.0829,342.6472 245.8443,342.2491 245.6458,341.8294 245.4894,341.3924 245.3767,340.9421 245.3086,340.483 245.2858,340.0194 245.3086,339.5557 245.3767,339.0966 245.4894,338.6463 245.6458,338.2093 245.8443,337.7897 246.0829,337.3915 246.3594,337.0187 246.6712,336.6748 247.0151,336.363 247.3879,336.0865 247.7861,335.8479 248.2057,335.6494 248.6427,335.4931 249.093,335.3803 249.5521,335.3122 250.0157,335.2894 250.4794,335.3122 250.9385,335.3803 251.3888,335.4931 251.8258,335.6494 252.2454,335.8479 252.6436,336.0865 253.0164,336.363 253.3603,336.6748 253.6721,337.0187 253.9486,337.3915 254.1872,337.7897 254.3857,338.2093 254.542,338.6463 254.6548,339.0966 254.7229,339.5557 254.7457,340.0194 254.7229,340.483 254.6548,340.9421 254.542,341.3924 254.3857,341.8294 254.1872,342.2491 253.9486,342.6472 253.6721,343.02 253.3603,343.364 253.0164,343.6757 252.6436,343.9522 252.2454,344.1908 251.8258,344.3893 251.3888,344.5457 250.9385,344.6585 250.4794,344.7266 250.0157,344.7493 249.5521,344.7266 249.093,344.6585 248.6427,344.5457 248.2057,344.3893 247.7861,344.1908 247.3879,343.9522 247.0151,343.6757 246.6712,343.364 246.3594,343.02"/>
    <polygon points="246.3594,350.1114 246.6712,349.7674 247.0151,349.4557 247.3879,349.1792 247.7861,348.9406 248.2057,348.7421 248.6427,348.5857 249.093,348.4729 249.5521,348.4048 250.0157,348.3821 250.4794,348.4048 250.9385,348.4729 251.3888,348.5857 251.8258,348.7421 252.2454,348.9406 252.6436,349.1792 253.0164,349.4557 253.3603,349.7674 253.6721,350.1114 253.9486,350.4842 254.1872,350.8823 254.3857,351.302 254.542,351.739 254.6548,352.1893 254.7229,352.6484 254.7457,353.112 254.7229,353.5757 254.6548,354.0348 254.542,354.4851 254.3857,354.9221 254.1872,355.3417 253.9486,355.7399 253.6721,356.1127 253.3603,356.4566 253.0164,356.7684 252.6436,357.0449 252.2454,357.2835 251.8258,357.482 251.3888,357.6383 250.9385,357.7511 250.4794,357.8192 250.0157,357.842 249.5521,357.8192 249.093,357.7511 248.6427,357.6383 248.2057,357.482 247.7861,357.2835 247.3879,357.0449 247.0151,356.7684 246.6712,356.4566 246.3594,356.1127 246.0829,355.7399 245.8443,355.3417 245.6458,354.9221 245.4894,354.4851 245.3767,354.0348 245.3086,353.5757 245.2858,353.112 245.3086,352.6484 245.3767,352.1893 245.4894,351.739 245.6458,351.302 245.8443,350.8823 246.0829,350.4842"/>
    <polygon points="243.3163,347.4885 243.2035,347.9387 243.0471,348.3758 242.8486,348.7954 242.61,349.1935 242.3335,349.5664 242.0218,349.9103 241.6778,350.222 241.305,350.4985 240.9069,350.7372 240.4872,350.9356 240.0502,351.092 239.5999,351.2048 239.1408,351.2729 238.6772,351.2957 238.2135,351.2729 237.7544,351.2048 237.3041,351.092 236.8671,350.9356 236.4475,350.7372 236.0493,350.4985 235.6765,350.222 235.3326,349.9103 235.0208,349.5664 234.7443,349.1935 234.5057,348.7954 234.3072,348.3758 234.1509,347.9387 234.0381,347.4885 233.97,347.0293 233.9472,346.5657 233.97,346.1021 234.0381,345.6429 234.1509,345.1927 234.3072,344.7556 234.5057,344.336 234.7443,343.9379 235.0208,343.565 235.3326,343.2211 235.6765,342.9094 236.0493,342.6329 236.4475,342.3942 236.8671,342.1958 237.3041,342.0394 237.7544,341.9266 238.2135,341.8585 238.6772,341.8357 239.1408,341.8585 239.5999,341.9266 240.0502,342.0394 240.4872,342.1958 240.9069,342.3942 241.305,342.6329 241.6778,342.9094 242.0218,343.2211 242.3335,343.565 242.61,343.9379 242.8486,344.336 243.0471,344.7556 243.2035,345.1927 243.3163,345.6429 243.3844,346.1021 243.4071,346.5657 243.3844,347.0293"/>
    <polygon points="226.4158,335.3803 226.875,335.3122 227.3386,335.2894 227.8022,335.3122 228.2614,335.3803 228.7116,335.4931 229.1487,335.6494 229.5683,335.8479 229.9664,336.0865 230.3392,336.363 230.6832,336.6748 230.9949,337.0187 231.2714,337.3915 231.51,337.7897 231.7085,338.2093 231.8649,338.6463 231.9777,339.0966 232.0458,339.5557 232.0686,340.0194 232.0458,340.483 231.9777,340.9421 231.8649,341.3924 231.7085,341.8294 231.51,342.2491 231.2714,342.6472 230.9949,343.02 230.6832,343.364 230.3392,343.6757 229.9664,343.9522 229.5683,344.1908 229.1487,344.3893 228.7116,344.5457 228.2614,344.6585 227.8022,344.7266 227.3386,344.7493 226.875,344.7266 226.4158,344.6585 225.9655,344.5457 225.5285,344.3893 225.1089,344.1908 224.7108,343.9522 224.3379,343.6757 223.994,343.364 223.6823,343.02 223.4058,342.6472 223.1671,342.2491 222.9687,341.8294 222.8123,341.3924 222.6995,340.9421 222.6314,340.483 222.6086,340.0194 222.6314,339.5557 222.6995,339.0966 222.8123,338.6463 222.9687,338.2093 223.1671,337.7897 223.4058,337.3915 223.6823,337.0187 223.994,336.6748 224.3379,336.363 224.7108,336.0865 225.1089,335.8479 225.5285,335.6494 225.9655,335.4931"/>
    <polygon points="220.73,333.473 220.7072,333.9367 220.6391,334.3958 220.5263,334.8461 220.3699,335.2831 220.1715,335.7027 219.9328,336.1009 219.6563,336.4737 219.3446,336.8176 219.0007,337.1294 218.6278,337.4059 218.2297,337.6445 217.8101,337.843 217.373,337.9993 216.9228,338.1121 216.4636,338.1802 216.0,338.203 215.5364,338.1802 215.0772,338.1121 214.627,337.9993 214.1899,337.843 213.7703,337.6445 213.3722,337.4059 212.9993,337.1294 212.6554,336.8176 212.3437,336.4737 212.0672,336.1009 211.8285,335.7027 211.6301,335.2831 211.4737,334.8461 211.3609,334.3958 211.2928,333.9367 211.27,333.473 211.2928,333.0094 211.3609,332.5503 211.4737,332.1 211.6301,331.663 211.8285,331.2433 212.0672,330.8452 212.3437,330.4724 212.6554,330.1284 212.9993,329.8167 213.3722,329.5402 213.7703,329.3016 214.1899,329.1031 214.627,328.9467 215.0772,328.8339 215.5364,328.7658 216.0,328.7431 216.4636,328.7658 216.9228,328.8339 217.373,328.9467 217.8101,329.1031 218.2297,329.3016 218.6278,329.5402 219.0007,329.8167 219.3446,330.1284 219.6563,330.4724 219.9328,330.8452 220.1715,331.2433 220.3699,331.663 220.5263,332.1 220.6391,332.5503 220.7072,333.0094"/>
    <polygon points="200.7286,329.5545 200.49,329.1564 200.2915,328.7368 200.1351,328.2997 200.0223,327.8495 199.9542,327.3903 199.9314,326.9267 199.9542,326.4631 200.0223,326.0039 200.1351,325.5537 200.2915,325.1166 200.49,324.697 200.7286,324.2989 201.0051,323.926 201.3168,323.5821 201.6608,323.2704 202.0336,322.9939 202.4317,322.7552 202.8513,322.5568 203.2884,322.4004 203.7386,322.2876 204.1978,322.2195 204.6614,322.1967 205.125,322.2195 205.5842,322.2876 206.0345,322.4004 206.4715,322.5568 206.8911,322.7552 207.2892,322.9939 207.6621,323.2704 208.006,323.5821 208.3177,323.926 208.5942,324.2989 208.8329,324.697 209.0313,325.1166 209.1877,325.5537 209.3005,326.0039 209.3686,326.4631 209.3914,326.9267 209.3686,327.3903 209.3005,327.8495 209.1877,328.2997 209.0313,328.7368 208.8329,329.1564 208.5942,329.5545 208.3177,329.9274 208.006,330.2713 207.6621,330.583 207.2892,330.8595 206.8911,331.0982 206.4715,331.2966 206.0345,331.453 205.5842,331.5658 205.125,331.6339 204.6614,331.6567 204.1978,331.6339 203.7386,331.5658 203.2884,331.453 202.8513,331.2966 202.4317,331.0982 202.0336,330.8595 201.6608,330.583 201.3168,330.2713 201.0051,329.9274"/>
    <polygon points="235.6765,363.3147 236.0493,363.5912 236.4475,363.8298 236.8671,364.0283 237.3041,364.1847 237.7544,364.2975 238.2135,364.3656 238.6772,364.3883 239.1408,364.3656 239.5999,364.2975 240.0502,364.1847 240.4872,364.0283 240.9069,363.8298 241.305,363.5912 241.6778,363.3147 242.0218,363.003 242.3335,362.659 242.61,362.2862 242.8486,361.8881 243.0471,361.4684 243.2035,361.0314 243.3163,360.5811 243.3844,360.122 243.4071,359.6584 243.3844,359.1947 243.3163,358.7356 243.2035,358.2853 243.0471,357.8483 242.8486,357.4287 242.61,357.0305 242.3335,356.6577 242.0218,356.3138 241.6778,356.002 241.305,355.7255 240.9069,355.4869 240.4872,355.2884 240.0502,355.1321 239.5999,355.0193 239.1408,354.9512 238.6772,354.9284 238.2135,354.9512 237.7544,355.0193 237.3041,355.1321 236.8671,355.2884 236.4475,355.4869 236.0493,355.7255 235.6765,356.002 235.3326,356.3138 235.0208,356.6577 234.7443,357.0305 234.5057,357.4287 234.3072,357.8483 234.1509,358.2853 234.0381,358.7356 233.97,359.1947 233.9472,359.6584 233.97,360.122 234.0381,360.5811 234.1509,361.0314 234.3072,361.4684 234.5057,361.8881 234.7443,362.2862 235.0208,362.659 235.3326,363.003"/>
    <polygon points="248.2057,370.5746 248.6427,370.731 249.093,370.8438 249.5521,370.9119 250.0157,370.9347 250.4794,370.9119 250.9385,370.8438 251.3888,370.731 251.8258,370.5746 252.2454,370.3762 252.6436,370.1375 253.0164,369.861 253.3603,369.5493 253.6721,369.2054 253.9486,368.8325 254.1872,368.4344 254.3857,368.0148 254.542,367.5777 254.6548,367.1275 254.7229,366.6683 254.7457,366.2047 254.7229,365.7411 254.6548,365.2819 254.542,364.8317 254.3857,364.3946 254.1872,363.975 253.9486,363.5769 253.6721,363.204 253.3603,362.8601 253.0164,362.5484 252.6436,362.2719 252.2454,362.0332 251.8258,361.8348 251.3888,361.6784 250.9385,361.5656 250.4794,361.4975 250.0157,361.4747 249.5521,361.4975 249.093,361.5656 248.6427,361.6784 248.2057,361.8348 247.7861,362.0332 247.3879,362.2719 247.0151,362.5484 246.6712,362.8601 246.3594,363.204 246.0829,363.5769 245.8443,363.975 245.6458,364.3946 245.4894,364.8317 245.3767,365.2819 245.3086,365.7411 245.2858,366.2047 245.3086,366.6683 245.3767,367.1275 245.4894,367.5777 245.6458,368.0148 245.8443,368.4344 246.0829,368.8325 246.3594,369.2054 246.6712,369.5493 247.0151,369.861 247.3879,370.1375 247.7861,370.3762"/>
  </g>
</svg>
