<?xml version="1.0" encoding="utf-8" ?>
<svg xmlns="http://www.w3.org/2000/svg" xmlns:cc="http://creativecommons.org/ns" xmlns:dc="http://purl.org/dc/elements/1.1/" xmlns:ev="http://www.w3.org/2001/xml-events" xmlns:inkscape="http://www.inkscape.org/namespaces/inkscape" xmlns:rdf="http://www.w3.org/1999/02/22-rdf-syntax-ns" xmlns:sodipodi="http://sodipodi.sourceforge.net/DTD/sodipodi-0.dtd" xmlns:xlink="http://www.w3.org/1999/xlink" baseProfile="tiny" height="15.875cm" version="1.2" viewBox="0 0 432.0 600.0" width="11.43cm">
  <metadata>
    <rdf:RDF>
      <cc:Work>
        <dc:format>image/svg+xml</dc:format>
        <dc:source>vsk save -s 114 -c hex-grid/config/bubble-coasters-2.json /Users/tobin/src/fabian/plotting/fabian-plotting/hex-grid/sketch_hex_grid.py</dc:source>
        <dc:date>2023-11-04T10:32:59.170798</dc:date>
      </cc:Work>
    </rdf:RDF>
  </metadata>
  <defs/>
  <g fill="none" id="layer1" inkscape:groupmode="layer" inkscape:label="1" stroke="#000000" stroke-width="0.7559" style="display:inline">
    <polygon points="232.514,356.6577 232.7905,357.0305 233.0291,357.4287 233.2276,357.8483 233.384,358.2853 233.4968,358.7356 233.5649,359.1947 233.5876,359.6584 233.5649,360.122 233.4968,360.5811 233.384,361.0314 233.2276,361.4684 233.0291,361.8881 232.7905,362.2862 232.514,362.659 232.2023,363.003 231.8583,363.3147 231.4855,363.5912 231.0874,363.8298 230.6677,364.0283 230.2307,364.1847 229.7804,364.2975 229.3213,364.3656 228.8577,364.3883 228.394,364.3656 227.9349,364.2975 227.4846,364.1847 227.0476,364.0283 226.628,363.8298 226.2298,363.5912 225.857,363.3147 225.5131,363.003 225.2013,362.659 224.9248,362.2862 224.6862,361.8881 224.4877,361.4684 224.3314,361.0314 224.2186,360.5811 224.1505,360.122 224.1277,359.6584 224.1505,359.1947 224.2186,358.7356 224.3314,358.2853 224.4877,357.8483 224.6862,357.4287 224.9248,357.0305 225.2013,356.6577 225.5131,356.3138 225.857,356.002 226.2298,355.7255 226.628,355.4869 227.0476,355.2884 227.4846,355.1321 227.9349,355.0193 228.394,354.9512 228.8577,354.9284 229.3213,354.9512 229.7804,355.0193 230.2307,355.1321 230.6677,355.2884 231.0874,355.4869 231.4855,355.7255 231.8583,356.002 232.2023,356.3138"/>
    <polygon points="209.8368,375.7517 209.5251,376.0956 209.1812,376.4074 208.8083,376.6839 208.4102,376.9225 207.9906,377.121 207.5535,377.2773 207.1033,377.3901 206.6441,377.4582 206.1805,377.481 205.7169,377.4582 205.2577,377.3901 204.8075,377.2773 204.3704,377.121 203.9508,376.9225 203.5527,376.6839 203.1798,376.4074 202.8359,376.0956 202.5242,375.7517 202.2477,375.3789 202.009,374.9807 201.8106,374.5611 201.6542,374.1241 201.5414,373.6738 201.4733,373.2147 201.4505,372.751 201.4733,372.2874 201.5414,371.8283 201.6542,371.378 201.8106,370.941 202.009,370.5213 202.2477,370.1232 202.5242,369.7504 202.8359,369.4064 203.1798,369.0947 203.5527,368.8182 203.9508,368.5796 204.3704,368.3811 204.8075,368.2247 205.2577,368.1119 205.7169,368.0438 206.1805,368.0211 206.6441,368.0438 207.1033,368.1119 207.5535,368.2247 207.9906,368.3811 208.4102,368.5796 208.8083,368.8182 209.1812,369.0947 209.5251,369.4064 209.8368,369.7504 210.1133,370.1232 210.352,370.5213 210.5504,370.941 210.7068,371.378 210.8196,371.8283 210.8877,372.2874 210.9105,372.751 210.8877,373.2147 210.8196,373.6738 210.7068,374.1241 210.5504,374.5611 210.352,374.9807 210.1133,375.3789"/>
    <polygon points="204.6444,363.0568 203.6952,362.4879 202.8064,361.8287 201.9865,361.0856 201.2433,360.2656 200.5841,359.3768 200.0152,358.4276 199.5421,357.4273 199.1693,356.3854 198.9004,355.3119 198.738,354.2173 198.6837,353.112 198.738,352.0068 198.9004,350.9121 199.1693,349.8387 199.5421,348.7968 200.0152,347.7964 200.5841,346.8473 201.2433,345.9584 201.9865,345.1385 202.8064,344.3953 203.6952,343.7361 204.6444,343.1672 205.6448,342.6941 206.6867,342.3213 207.7601,342.0524 208.8548,341.89 209.96,341.8357 211.0653,341.89 212.1599,342.0524 213.2334,342.3213 214.2753,342.6941 215.2756,343.1672 216.2248,343.7361 217.1136,344.3953 217.9336,345.1385 218.6767,345.9584 219.3359,346.8473 219.9048,347.7964 220.378,348.7968 220.7508,349.8387 221.0197,350.9121 221.182,352.0068 221.2363,353.112 221.182,354.2173 221.0197,355.3119 220.7508,356.3854 220.378,357.4273 219.9048,358.4276 219.3359,359.3768 218.6767,360.2656 217.9336,361.0856 217.1136,361.8287 216.2248,362.4879 215.2756,363.0568 214.2753,363.53 213.2334,363.9028 212.1599,364.1717 211.0653,364.334 209.96,364.3883 208.8548,364.334 207.7601,364.1717 206.6867,363.9028 205.6448,363.53"/>
    <polygon points="191.4973,369.5493 191.1856,369.2054 190.9091,368.8325 190.6705,368.4344 190.472,368.0148 190.3156,367.5777 190.2028,367.1275 190.1347,366.6683 190.1119,366.2047 190.1347,365.7411 190.2028,365.2819 190.3156,364.8317 190.472,364.3946 190.6705,363.975 190.9091,363.5769 191.1856,363.204 191.4973,362.8601 191.8413,362.5484 192.2141,362.2719 192.6122,362.0332 193.0318,361.8348 193.4689,361.6784 193.9191,361.5656 194.3783,361.4975 194.8419,361.4747 195.3055,361.4975 195.7647,361.5656 196.215,361.6784 196.652,361.8348 197.0716,362.0332 197.4697,362.2719 197.8426,362.5484 198.1865,362.8601 198.4982,363.204 198.7747,363.5769 199.0134,363.975 199.2118,364.3946 199.3682,364.8317 199.481,365.2819 199.5491,365.7411 199.5719,366.2047 199.5491,366.6683 199.481,367.1275 199.3682,367.5777 199.2118,368.0148 199.0134,368.4344 198.7747,368.8325 198.4982,369.2054 198.1865,369.5493 197.8426,369.861 197.4697,370.1375 197.0716,370.3762 196.652,370.5746 196.215,370.731 195.7647,370.8438 195.3055,370.9119 194.8419,370.9347 194.3783,370.9119 193.9191,370.8438 193.4689,370.731 193.0318,370.5746 192.6122,370.3762 192.2141,370.1375 191.8413,369.861"/>
    <polygon points="178.8642,358.7356 178.977,358.2853 179.1334,357.8483 179.3319,357.4287 179.5705,357.0305 179.847,356.6577 180.1587,356.3138 180.5027,356.002 180.8755,355.7255 181.2736,355.4869 181.6933,355.2884 182.1303,355.1321 182.5806,355.0193 183.0397,354.9512 183.5033,354.9284 183.967,354.9512 184.4261,355.0193 184.8764,355.1321 185.3134,355.2884 185.733,355.4869 186.1312,355.7255 186.504,356.002 186.8479,356.3138 187.1597,356.6577 187.4362,357.0305 187.6748,357.4287 187.8733,357.8483 188.0296,358.2853 188.1424,358.7356 188.2105,359.1947 188.2333,359.6584 188.2105,360.122 188.1424,360.5811 188.0296,361.0314 187.8733,361.4684 187.6748,361.8881 187.4362,362.2862 187.1597,362.659 186.8479,363.003 186.504,363.3147 186.1312,363.5912 185.733,363.8298 185.3134,364.0283 184.8764,364.1847 184.4261,364.2975 183.967,364.3656 183.5033,364.3883 183.0397,364.3656 182.5806,364.2975 182.1303,364.1847 181.6933,364.0283 181.2736,363.8298 180.8755,363.5912 180.5027,363.3147 180.1587,363.003 179.847,362.659 179.5705,362.2862 179.3319,361.8881 179.1334,361.4684 178.977,361.0314 178.8642,360.5811 178.7961,360.122 178.7734,359.6584 178.7961,359.1947"/>
    <polygon points="193.5476,330.6435 192.5985,330.0746 191.5981,329.6014 190.5562,329.2286 189.4828,328.9597 188.3881,328.7974 187.2829,328.7431 186.1776,328.7974 185.083,328.9597 184.0095,329.2286 182.9676,329.6014 181.9672,330.0746 181.0181,330.6435 180.1292,331.3027 179.3093,332.0458 178.5662,332.8658 177.907,333.7546 177.338,334.7038 176.8649,335.7041 176.4921,336.746 176.2232,337.8195 176.0609,338.9141 176.0066,340.0194 176.0609,341.1246 176.2232,342.2193 176.4921,343.2927 176.8649,344.3346 177.338,345.335 177.907,346.2841 178.5662,347.173 179.3093,347.9929 180.1292,348.7361 181.0181,349.3953 181.9672,349.9642 182.9676,350.4373 184.0095,350.8101 185.083,351.079 186.1776,351.2414 187.2829,351.2957 188.3881,351.2414 189.4828,351.079 190.5562,350.8101 191.5981,350.4373 192.5985,349.9642 193.5476,349.3953 194.4365,348.7361 195.2564,347.9929 195.9996,347.173 196.6588,346.2841 197.2277,345.335 197.7008,344.3346 198.0736,343.2927 198.3425,342.2193 198.5049,341.1246 198.5592,340.0194 198.5049,338.9141 198.3425,337.8195 198.0736,336.746 197.7008,335.7041 197.2277,334.7038 196.6588,333.7546 195.9996,332.8658 195.2564,332.0458 194.4365,331.3027"/>
    <polygon points="194.4365,322.5507 195.2564,321.8076 195.9996,320.9876 196.6588,320.0988 197.2277,319.1496 197.7008,318.1493 198.0736,317.1074 198.3425,316.0339 198.5049,314.9393 198.5592,313.834 198.5049,312.7288 198.3425,311.6341 198.0736,310.5607 197.7008,309.5188 197.2277,308.5184 196.6588,307.5693 195.9996,306.6804 195.2564,305.8605 194.4365,305.1173 193.5476,304.4581 192.5985,303.8892 191.5981,303.4161 190.5562,303.0433 189.4828,302.7744 188.3881,302.612 187.2829,302.5577 186.1776,302.612 185.083,302.7744 184.0095,303.0433 182.9676,303.4161 181.9672,303.8892 181.0181,304.4581 180.1292,305.1173 179.3093,305.8605 178.5662,306.6804 177.907,307.5693 177.338,308.5184 176.8649,309.5188 176.4921,310.5607 176.2232,311.6341 176.0609,312.7288 176.0066,313.834 176.0609,314.9393 176.2232,316.0339 176.4921,317.1074 176.8649,318.1493 177.338,319.1496 177.907,320.0988 178.5662,320.9876 179.3093,321.8076 180.1292,322.5507 181.0181,323.2099 181.9672,323.7788 182.9676,324.252 184.0095,324.6248 185.083,324.8937 186.1776,325.056 187.2829,325.1103 188.3881,325.056 189.4828,324.8937 190.5562,324.6248 191.5981,324.252 192.5985,323.7788 193.5476,323.2099"/>
    <polygon points="208.4102,329.3016 208.8083,329.5402 209.1812,329.8167 209.5251,330.1284 209.8368,330.4724 210.1133,330.8452 210.352,331.2433 210.5504,331.663 210.7068,332.1 210.8196,332.5503 210.8877,333.0094 210.9105,333.473 210.8877,333.9367 210.8196,334.3958 210.7068,334.8461 210.5504,335.2831 210.352,335.7027 210.1133,336.1009 209.8368,336.4737 209.5251,336.8176 209.1812,337.1294 208.8083,337.4059 208.4102,337.6445 207.9906,337.843 207.5535,337.9993 207.1033,338.1121 206.6441,338.1802 206.1805,338.203 205.7169,338.1802 205.2577,338.1121 204.8075,337.9993 204.3704,337.843 203.9508,337.6445 203.5527,337.4059 203.1798,337.1294 202.8359,336.8176 202.5242,336.4737 202.2477,336.1009 202.009,335.7027 201.8106,335.2831 201.6542,334.8461 201.5414,334.3958 201.4733,333.9367 201.4505,333.473 201.4733,333.0094 201.5414,332.5503 201.6542,332.1 201.8106,331.663 202.009,331.2433 202.2477,330.8452 202.5242,330.4724 202.8359,330.1284 203.1798,329.8167 203.5527,329.5402 203.9508,329.3016 204.3704,329.1031 204.8075,328.9467 205.2577,328.8339 205.7169,328.7658 206.1805,328.7431 206.6441,328.7658 207.1033,328.8339 207.5535,328.9467 207.9906,329.1031"/>
    <polygon points="209.1812,316.724 209.5251,317.0358 209.8368,317.3797 210.1133,317.7525 210.352,318.1507 210.5504,318.5703 210.7068,319.0073 210.8196,319.4576 210.8877,319.9167 210.9105,320.3804 210.8877,320.844 210.8196,321.3031 210.7068,321.7534 210.5504,322.1904 210.352,322.6101 210.1133,323.0082 209.8368,323.381 209.5251,323.725 209.1812,324.0367 208.8083,324.3132 208.4102,324.5518 207.9906,324.7503 207.5535,324.9067 207.1033,325.0195 206.6441,325.0876 206.1805,325.1103 205.7169,325.0876 205.2577,325.0195 204.8075,324.9067 204.3704,324.7503 203.9508,324.5518 203.5527,324.3132 203.1798,324.0367 202.8359,323.725 202.5242,323.381 202.2477,323.0082 202.009,322.6101 201.8106,322.1904 201.6542,321.7534 201.5414,321.3031 201.4733,320.844 201.4505,320.3804 201.4733,319.9167 201.5414,319.4576 201.6542,319.0073 201.8106,318.5703 202.009,318.1507 202.2477,317.7525 202.5242,317.3797 202.8359,317.0358 203.1798,316.724 203.5527,316.4475 203.9508,316.2089 204.3704,316.0104 204.8075,315.8541 205.2577,315.7413 205.7169,315.6732 206.1805,315.6504 206.6441,315.6732 207.1033,315.7413 207.5535,315.8541 207.9906,316.0104 208.4102,316.2089 208.8083,316.4475"/>
    <polygon points="201.6542,308.6607 201.5414,308.2105 201.4733,307.7513 201.4505,307.2877 201.4733,306.8241 201.5414,306.3649 201.6542,305.9147 201.8106,305.4776 202.009,305.058 202.2477,304.6599 202.5242,304.287 202.8359,303.9431 203.1798,303.6314 203.5527,303.3549 203.9508,303.1162 204.3704,302.9178 204.8075,302.7614 205.2577,302.6486 205.7169,302.5805 206.1805,302.5577 206.6441,302.5805 207.1033,302.6486 207.5535,302.7614 207.9906,302.9178 208.4102,303.1162 208.8083,303.3549 209.1812,303.6314 209.5251,303.9431 209.8368,304.287 210.1133,304.6599 210.352,305.058 210.5504,305.4776 210.7068,305.9147 210.8196,306.3649 210.8877,306.8241 210.9105,307.2877 210.8877,307.7513 210.8196,308.2105 210.7068,308.6607 210.5504,309.0978 210.352,309.5174 210.1133,309.9155 209.8368,310.2884 209.5251,310.6323 209.1812,310.944 208.8083,311.2205 208.4102,311.4592 207.9906,311.6576 207.5535,311.814 207.1033,311.9268 206.6441,311.9949 206.1805,312.0177 205.7169,311.9949 205.2577,311.9268 204.8075,311.814 204.3704,311.6576 203.9508,311.4592 203.5527,311.2205 203.1798,310.944 202.8359,310.6323 202.5242,310.2884 202.2477,309.9155 202.009,309.5174 201.8106,309.0978"/>
    <polygon points="201.5414,293.2723 201.6542,292.822 201.8106,292.3849 202.009,291.9653 202.2477,291.5672 202.5242,291.1944 202.8359,290.8504 203.1798,290.5387 203.5527,290.2622 203.9508,290.0236 204.3704,289.8251 204.8075,289.6687 205.2577,289.5559 205.7169,289.4878 206.1805,289.4651 206.6441,289.4878 207.1033,289.5559 207.5535,289.6687 207.9906,289.8251 208.4102,290.0236 208.8083,290.2622 209.1812,290.5387 209.5251,290.8504 209.8368,291.1944 210.1133,291.5672 210.352,291.9653 210.5504,292.3849 210.7068,292.822 210.8196,293.2723 210.8877,293.7314 210.9105,294.195 210.8877,294.6586 210.8196,295.1178 210.7068,295.5681 210.5504,296.0051 210.352,296.4247 210.1133,296.8229 209.8368,297.1957 209.5251,297.5396 209.1812,297.8513 208.8083,298.1279 208.4102,298.3665 207.9906,298.565 207.5535,298.7213 207.1033,298.8341 206.6441,298.9022 206.1805,298.925 205.7169,298.9022 205.2577,298.8341 204.8075,298.7213 204.3704,298.565 203.9508,298.3665 203.5527,298.1279 203.1798,297.8513 202.8359,297.5396 202.5242,297.1957 202.2477,296.8229 202.009,296.4247 201.8106,296.0051 201.6542,295.5681 201.5414,295.1178 201.4733,294.6586 201.4505,294.195 201.4733,293.7314"/>
    <polygon points="207.7601,285.6157 206.6867,285.3468 205.6448,284.974 204.6444,284.5008 203.6952,283.9319 202.8064,283.2727 201.9865,282.5296 201.2433,281.7096 200.5841,280.8208 200.0152,279.8716 199.5421,278.8713 199.1693,277.8294 198.9004,276.7559 198.738,275.6613 198.6837,274.556 198.738,273.4508 198.9004,272.3561 199.1693,271.2827 199.5421,270.2408 200.0152,269.2404 200.5841,268.2912 201.2433,267.4024 201.9865,266.5825 202.8064,265.8393 203.6952,265.1801 204.6444,264.6112 205.6448,264.1381 206.6867,263.7653 207.7601,263.4964 208.8548,263.334 209.96,263.2797 211.0653,263.334 212.1599,263.4964 213.2334,263.7653 214.2753,264.1381 215.2756,264.6112 216.2248,265.1801 217.1136,265.8393 217.9336,266.5825 218.6767,267.4024 219.3359,268.2912 219.9048,269.2404 220.378,270.2408 220.7508,271.2827 221.0197,272.3561 221.182,273.4508 221.2363,274.556 221.182,275.6613 221.0197,276.7559 220.7508,277.8294 220.378,278.8713 219.9048,279.8716 219.3359,280.8208 218.6767,281.7096 217.9336,282.5296 217.1136,283.2727 216.2248,283.9319 215.2756,284.5008 214.2753,284.974 213.2334,285.3468 212.1599,285.6157 211.0653,285.778 209.96,285.8323 208.8548,285.778"/>
    <polygon points="198.5049,262.5686 198.3425,263.6633 198.0736,264.7367 197.7008,265.7786 197.2277,266.779 196.6588,267.7281 195.9996,268.617 195.2564,269.4369 194.4365,270.1801 193.5476,270.8393 192.5985,271.4082 191.5981,271.8813 190.5562,272.2541 189.4828,272.523 188.3881,272.6854 187.2829,272.7397 186.1776,272.6854 185.083,272.523 184.0095,272.2541 182.9676,271.8813 181.9672,271.4082 181.0181,270.8393 180.1292,270.1801 179.3093,269.4369 178.5662,268.617 177.907,267.7281 177.338,266.779 176.8649,265.7786 176.4921,264.7367 176.2232,263.6633 176.0609,262.5686 176.0066,261.4634 176.0609,260.3581 176.2232,259.2635 176.4921,258.19 176.8649,257.1481 177.338,256.1477 177.907,255.1986 178.5662,254.3097 179.3093,253.4898 180.1292,252.7467 181.0181,252.0875 181.9672,251.5185 182.9676,251.0454 184.0095,250.6726 185.083,250.4037 186.1776,250.2414 187.2829,250.1871 188.3881,250.2414 189.4828,250.4037 190.5562,250.6726 191.5981,251.0454 192.5985,251.5185 193.5476,252.0875 194.4365,252.7467 195.2564,253.4898 195.9996,254.3097 196.6588,255.1986 197.2277,256.1477 197.7008,257.1481 198.0736,258.19 198.3425,259.2635 198.5049,260.3581 198.5592,261.4634"/>
    <polygon points="188.3881,276.4267 189.4828,276.5891 190.5562,276.8579 191.5981,277.2307 192.5985,277.7039 193.5476,278.2728 194.4365,278.932 195.2564,279.6751 195.9996,280.4951 196.6588,281.3839 197.2277,282.3331 197.7008,283.3334 198.0736,284.3754 198.3425,285.4488 198.5049,286.5434 198.5592,287.6487 198.5049,288.754 198.3425,289.8486 198.0736,290.922 197.7008,291.964 197.2277,292.9643 196.6588,293.9135 195.9996,294.8023 195.2564,295.6222 194.4365,296.3654 193.5476,297.0246 192.5985,297.5935 191.5981,298.0666 190.5562,298.4394 189.4828,298.7083 188.3881,298.8707 187.2829,298.925 186.1776,298.8707 185.083,298.7083 184.0095,298.4394 182.9676,298.0666 181.9672,297.5935 181.0181,297.0246 180.1292,296.3654 179.3093,295.6222 178.5662,294.8023 177.907,293.9135 177.338,292.9643 176.8649,291.964 176.4921,290.922 176.2232,289.8486 176.0609,288.754 176.0066,287.6487 176.0609,286.5434 176.2232,285.4488 176.4921,284.3754 176.8649,283.3334 177.338,282.3331 177.907,281.3839 178.5662,280.4951 179.3093,279.6751 180.1292,278.932 181.0181,278.2728 181.9672,277.7039 182.9676,277.2307 184.0095,276.8579 185.083,276.5891 186.1776,276.4267 187.2829,276.3724"/>
    <polygon points="176.8038,299.8186 176.6911,299.3683 176.5347,298.9313 176.3362,298.5117 176.0976,298.1135 175.8211,297.7407 175.5093,297.3968 175.1654,297.085 174.7926,296.8085 174.3944,296.5699 173.9748,296.3714 173.5378,296.2151 173.0875,296.1023 172.6284,296.0342 172.1648,296.0114 171.7011,296.0342 171.242,296.1023 170.7917,296.2151 170.3547,296.3714 169.9351,296.5699 169.5369,296.8085 169.1641,297.085 168.8202,297.3968 168.5084,297.7407 168.2319,298.1135 167.9933,298.5117 167.7948,298.9313 167.6384,299.3683 167.5257,299.8186 167.4576,300.2777 167.4348,300.7414 167.4576,301.205 167.5257,301.6641 167.6384,302.1144 167.7948,302.5514 167.9933,302.9711 168.2319,303.3692 168.5084,303.742 168.8202,304.086 169.1641,304.3977 169.5369,304.6742 169.9351,304.9128 170.3547,305.1113 170.7917,305.2677 171.242,305.3805 171.7011,305.4486 172.1648,305.4713 172.6284,305.4486 173.0875,305.3805 173.5378,305.2677 173.9748,305.1113 174.3944,304.9128 174.7926,304.6742 175.1654,304.3977 175.5093,304.086 175.8211,303.742 176.0976,303.3692 176.3362,302.9711 176.5347,302.5514 176.6911,302.1144 176.8038,301.6641 176.8719,301.205 176.8947,300.7414 176.8719,300.2777"/>
    <polygon points="168.5084,277.5567 168.8202,277.9006 169.1641,278.2123 169.5369,278.4889 169.9351,278.7275 170.3547,278.926 170.7917,279.0823 171.242,279.1951 171.7011,279.2632 172.1648,279.286 172.6284,279.2632 173.0875,279.1951 173.5378,279.0823 173.9748,278.926 174.3944,278.7275 174.7926,278.4889 175.1654,278.2123 175.5093,277.9006 175.8211,277.5567 176.0976,277.1839 176.3362,276.7857 176.5347,276.3661 176.6911,275.9291 176.8038,275.4788 176.8719,275.0196 176.8947,274.556 176.8719,274.0924 176.8038,273.6333 176.6911,273.183 176.5347,272.7459 176.3362,272.3263 176.0976,271.9282 175.8211,271.5554 175.5093,271.2114 175.1654,270.8997 174.7926,270.6232 174.3944,270.3846 173.9748,270.1861 173.5378,270.0297 173.0875,269.9169 172.6284,269.8488 172.1648,269.8261 171.7011,269.8488 171.242,269.9169 170.7917,270.0297 170.3547,270.1861 169.9351,270.3846 169.5369,270.6232 169.1641,270.8997 168.8202,271.2114 168.5084,271.5554 168.2319,271.9282 167.9933,272.3263 167.7948,272.7459 167.6384,273.183 167.5257,273.6333 167.4576,274.0924 167.4348,274.556 167.4576,275.0196 167.5257,275.4788 167.6384,275.9291 167.7948,276.3661 167.9933,276.7857 168.2319,277.1839"/>
    <polygon points="165.1961,269.8198 165.3525,269.3827 165.4653,268.9325 165.5334,268.4733 165.5561,268.0097 165.5334,267.5461 165.4653,267.0869 165.3525,266.6367 165.1961,266.1996 164.9976,265.78 164.759,265.3819 164.4825,265.009 164.1708,264.6651 163.8268,264.3534 163.454,264.0769 163.0559,263.8382 162.6363,263.6398 162.1992,263.4834 161.7489,263.3706 161.2898,263.3025 160.8262,263.2797 160.3626,263.3025 159.9034,263.3706 159.4531,263.4834 159.0161,263.6398 158.5965,263.8382 158.1983,264.0769 157.8255,264.3534 157.4816,264.6651 157.1699,265.009 156.8933,265.3819 156.6547,265.78 156.4562,266.1996 156.2999,266.6367 156.1871,267.0869 156.119,267.5461 156.0962,268.0097 156.119,268.4733 156.1871,268.9325 156.2999,269.3827 156.4562,269.8198 156.6547,270.2394 156.8933,270.6375 157.1699,271.0104 157.4816,271.3543 157.8255,271.666 158.1983,271.9425 158.5965,272.1812 159.0161,272.3796 159.4531,272.536 159.9034,272.6488 160.3626,272.7169 160.8262,272.7397 161.2898,272.7169 161.7489,272.6488 162.1992,272.536 162.6363,272.3796 163.0559,272.1812 163.454,271.9425 163.8268,271.666 164.1708,271.3543 164.4825,271.0104 164.759,270.6375 164.9976,270.2394"/>
    <polygon points="146.8598,270.6232 146.4869,270.8997 146.143,271.2114 145.8313,271.5554 145.5548,271.9282 145.3161,272.3263 145.1177,272.7459 144.9613,273.183 144.8485,273.6333 144.7804,274.0924 144.7576,274.556 144.7804,275.0196 144.8485,275.4788 144.9613,275.9291 145.1177,276.3661 145.3161,276.7857 145.5548,277.1839 145.8313,277.5567 146.143,277.9006 146.4869,278.2123 146.8598,278.4889 147.2579,278.7275 147.6775,278.926 148.1145,279.0823 148.5648,279.1951 149.024,279.2632 149.4876,279.286 149.9512,279.2632 150.4104,279.1951 150.8606,279.0823 151.2977,278.926 151.7173,278.7275 152.1154,278.4889 152.4882,278.2123 152.8322,277.9006 153.1439,277.5567 153.4204,277.1839 153.659,276.7857 153.8575,276.3661 154.0139,275.9291 154.1267,275.4788 154.1948,275.0196 154.2176,274.556 154.1948,274.0924 154.1267,273.6333 154.0139,273.183 153.8575,272.7459 153.659,272.3263 153.4204,271.9282 153.1439,271.5554 152.8322,271.2114 152.4882,270.8997 152.1154,270.6232 151.7173,270.3846 151.2977,270.1861 150.8606,270.0297 150.4104,269.9169 149.9512,269.8488 149.4876,269.8261 149.024,269.8488 148.5648,269.9169 148.1145,270.0297 147.6775,270.1861 147.2579,270.3846"/>
    <polygon points="167.7948,250.1808 167.6384,249.7437 167.5257,249.2935 167.4576,248.8343 167.4348,248.3707 167.4576,247.9071 167.5257,247.4479 167.6384,246.9977 167.7948,246.5606 167.9933,246.141 168.2319,245.7429 168.5084,245.37 168.8202,245.0261 169.1641,244.7144 169.5369,244.4379 169.9351,244.1992 170.3547,244.0008 170.7917,243.8444 171.242,243.7316 171.7011,243.6635 172.1648,243.6407 172.6284,243.6635 173.0875,243.7316 173.5378,243.8444 173.9748,244.0008 174.3944,244.1992 174.7926,244.4379 175.1654,244.7144 175.5093,245.0261 175.8211,245.37 176.0976,245.7429 176.3362,246.141 176.5347,246.5606 176.6911,246.9977 176.8038,247.4479 176.8719,247.9071 176.8947,248.3707 176.8719,248.8343 176.8038,249.2935 176.6911,249.7437 176.5347,250.1808 176.3362,250.6004 176.0976,250.9985 175.8211,251.3714 175.5093,251.7153 175.1654,252.027 174.7926,252.3035 174.3944,252.5422 173.9748,252.7406 173.5378,252.897 173.0875,253.0098 172.6284,253.0779 172.1648,253.1007 171.7011,253.0779 171.242,253.0098 170.7917,252.897 170.3547,252.7406 169.9351,252.5422 169.5369,252.3035 169.1641,252.027 168.8202,251.7153 168.5084,251.3714 168.2319,250.9985 167.9933,250.6004"/>
    <polygon points="176.5347,237.0881 176.3362,237.5077 176.0976,237.9059 175.8211,238.2787 175.5093,238.6226 175.1654,238.9343 174.7926,239.2109 174.3944,239.4495 173.9748,239.648 173.5378,239.8043 173.0875,239.9171 172.6284,239.9852 172.1648,240.008 171.7011,239.9852 171.242,239.9171 170.7917,239.8043 170.3547,239.648 169.9351,239.4495 169.5369,239.2109 169.1641,238.9343 168.8202,238.6226 168.5084,238.2787 168.2319,237.9059 167.9933,237.5077 167.7948,237.0881 167.6384,236.6511 167.5257,236.2008 167.4576,235.7416 167.4348,235.278 167.4576,234.8144 167.5257,234.3553 167.6384,233.905 167.7948,233.4679 167.9933,233.0483 168.2319,232.6502 168.5084,232.2774 168.8202,231.9334 169.1641,231.6217 169.5369,231.3452 169.9351,231.1066 170.3547,230.9081 170.7917,230.7517 171.242,230.6389 171.7011,230.5708 172.1648,230.5481 172.6284,230.5708 173.0875,230.6389 173.5378,230.7517 173.9748,230.9081 174.3944,231.1066 174.7926,231.3452 175.1654,231.6217 175.5093,231.9334 175.8211,232.2774 176.0976,232.6502 176.3362,233.0483 176.5347,233.4679 176.6911,233.905 176.8038,234.3553 176.8719,234.8144 176.8947,235.278 176.8719,235.7416 176.8038,236.2008 176.6911,236.6511"/>
    <polygon points="160.3626,224.0245 160.8262,224.0017 161.2898,224.0245 161.7489,224.0926 162.1992,224.2054 162.6363,224.3618 163.0559,224.5602 163.454,224.7989 163.8268,225.0754 164.1708,225.3871 164.4825,225.731 164.759,226.1039 164.9976,226.502 165.1961,226.9216 165.3525,227.3587 165.4653,227.8089 165.5334,228.2681 165.5561,228.7317 165.5334,229.1953 165.4653,229.6545 165.3525,230.1047 165.1961,230.5418 164.9976,230.9614 164.759,231.3595 164.4825,231.7324 164.1708,232.0763 163.8268,232.388 163.454,232.6645 163.0559,232.9032 162.6363,233.1016 162.1992,233.258 161.7489,233.3708 161.2898,233.4389 160.8262,233.4617 160.3626,233.4389 159.9034,233.3708 159.4531,233.258 159.0161,233.1016 158.5965,232.9032 158.1983,232.6645 157.8255,232.388 157.4816,232.0763 157.1699,231.7324 156.8933,231.3595 156.6547,230.9614 156.4562,230.5418 156.2999,230.1047 156.1871,229.6545 156.119,229.1953 156.0962,228.7317 156.119,228.2681 156.1871,227.8089 156.2999,227.3587 156.4562,226.9216 156.6547,226.502 156.8933,226.1039 157.1699,225.731 157.4816,225.3871 157.8255,225.0754 158.1983,224.7989 158.5965,224.5602 159.0161,224.3618 159.4531,224.2054 159.9034,224.0926"/>
    <polygon points="169.5369,199.9329 169.1641,199.6563 168.8202,199.3446 168.5084,199.0007 168.2319,198.6279 167.9933,198.2297 167.7948,197.8101 167.6384,197.3731 167.5257,196.9228 167.4576,196.4636 167.4348,196.0 167.4576,195.5364 167.5257,195.0773 167.6384,194.627 167.7948,194.1899 167.9933,193.7703 168.2319,193.3722 168.5084,192.9994 168.8202,192.6554 169.1641,192.3437 169.5369,192.0672 169.9351,191.8286 170.3547,191.6301 170.7917,191.4737 171.242,191.3609 171.7011,191.2928 172.1648,191.2701 172.6284,191.2928 173.0875,191.3609 173.5378,191.4737 173.9748,191.6301 174.3944,191.8286 174.7926,192.0672 175.1654,192.3437 175.5093,192.6554 175.8211,192.9994 176.0976,193.3722 176.3362,193.7703 176.5347,194.1899 176.6911,194.627 176.8038,195.0773 176.8719,195.5364 176.8947,196.0 176.8719,196.4636 176.8038,196.9228 176.6911,197.3731 176.5347,197.8101 176.3362,198.2297 176.0976,198.6279 175.8211,199.0007 175.5093,199.3446 175.1654,199.6563 174.7926,199.9329 174.3944,200.1715 173.9748,200.3699 173.5378,200.5263 173.0875,200.6391 172.6284,200.7072 172.1648,200.73 171.7011,200.7072 171.242,200.6391 170.7917,200.5263 170.3547,200.3699 169.9351,200.1715"/>
    <polygon points="194.4365,200.376 195.2564,201.1191 195.9996,201.9391 196.6588,202.8279 197.2277,203.7771 197.7008,204.7774 198.0736,205.8194 198.3425,206.8928 198.5049,207.9874 198.5592,209.0927 198.5049,210.198 198.3425,211.2926 198.0736,212.366 197.7008,213.4079 197.2277,214.4083 196.6588,215.3575 195.9996,216.2463 195.2564,217.0662 194.4365,217.8094 193.5476,218.4686 192.5985,219.0375 191.5981,219.5106 190.5562,219.8834 189.4828,220.1523 188.3881,220.3147 187.2829,220.369 186.1776,220.3147 185.083,220.1523 184.0095,219.8834 182.9676,219.5106 181.9672,219.0375 181.0181,218.4686 180.1292,217.8094 179.3093,217.0662 178.5662,216.2463 177.907,215.3575 177.338,214.4083 176.8649,213.4079 176.4921,212.366 176.2232,211.2926 176.0609,210.198 176.0066,209.0927 176.0609,207.9874 176.2232,206.8928 176.4921,205.8194 176.8649,204.7774 177.338,203.7771 177.907,202.8279 178.5662,201.9391 179.3093,201.1191 180.1292,200.376 181.0181,199.7168 181.9672,199.1479 182.9676,198.6747 184.0095,198.3019 185.083,198.0331 186.1776,197.8707 187.2829,197.8164 188.3881,197.8707 189.4828,198.0331 190.5562,198.3019 191.5981,198.6747 192.5985,199.1479 193.5476,199.7168"/>
    <polygon points="219.9048,190.6844 219.3359,189.7352 218.6767,188.8464 217.9336,188.0265 217.1136,187.2833 216.2248,186.6241 215.2756,186.0552 214.2753,185.5821 213.2334,185.2093 212.1599,184.9404 211.0653,184.778 209.96,184.7237 208.8548,184.778 207.7601,184.9404 206.6867,185.2093 205.6448,185.5821 204.6444,186.0552 203.6952,186.6241 202.8064,187.2833 201.9865,188.0265 201.2433,188.8464 200.5841,189.7352 200.0152,190.6844 199.5421,191.6848 199.1693,192.7267 198.9004,193.8001 198.738,194.8948 198.6837,196.0 198.738,197.1053 198.9004,198.1999 199.1693,199.2734 199.5421,200.3153 200.0152,201.3156 200.5841,202.2648 201.2433,203.1536 201.9865,203.9736 202.8064,204.7167 203.6952,205.3759 204.6444,205.9448 205.6448,206.418 206.6867,206.7908 207.7601,207.0597 208.8548,207.222 209.96,207.2763 211.0653,207.222 212.1599,207.0597 213.2334,206.7908 214.2753,206.418 215.2756,205.9448 216.2248,205.3759 217.1136,204.7167 217.9336,203.9736 218.6767,203.1536 219.3359,202.2648 219.9048,201.3156 220.378,200.3153 220.7508,199.2734 221.0197,198.1999 221.182,197.1053 221.2363,196.0 221.182,194.8948 221.0197,193.8001 220.7508,192.7267 220.378,191.6848"/>
    <polygon points="233.4968,188.5309 233.384,188.0807 233.2276,187.6436 233.0291,187.224 232.7905,186.8259 232.514,186.453 232.2023,186.1091 231.8583,185.7974 231.4855,185.5209 231.0874,185.2822 230.6677,185.0838 230.2307,184.9274 229.7804,184.8146 229.3213,184.7465 228.8577,184.7237 228.394,184.7465 227.9349,184.8146 227.4846,184.9274 227.0476,185.0838 226.628,185.2822 226.2298,185.5209 225.857,185.7974 225.5131,186.1091 225.2013,186.453 224.9248,186.8259 224.6862,187.224 224.4877,187.6436 224.3314,188.0807 224.2186,188.5309 224.1505,188.9901 224.1277,189.4537 224.1505,189.9173 224.2186,190.3765 224.3314,190.8267 224.4877,191.2638 224.6862,191.6834 224.9248,192.0815 225.2013,192.4544 225.5131,192.7983 225.857,193.11 226.2298,193.3865 226.628,193.6252 227.0476,193.8236 227.4846,193.98 227.9349,194.0928 228.394,194.1609 228.8577,194.1837 229.3213,194.1609 229.7804,194.0928 230.2307,193.98 230.6677,193.8236 231.0874,193.6252 231.4855,193.3865 231.8583,193.11 232.2023,192.7983 232.514,192.4544 232.7905,192.0815 233.0291,191.6834 233.2276,191.2638 233.384,190.8267 233.4968,190.3765 233.5649,189.9173 233.5876,189.4537 233.5649,188.9901"/>
    <polygon points="229.0065,213.7865 231.0578,215.016 232.9786,216.4406 234.7505,218.0466 236.3566,219.8185 237.7811,221.7393 239.0106,223.7906 240.0331,225.9524 240.8387,228.2041 241.4198,230.5239 241.7707,232.8894 241.8881,235.278 241.7707,237.6666 241.4198,240.0322 240.8387,242.352 240.0331,244.6036 239.0106,246.7655 237.7811,248.8167 236.3566,250.7375 234.7505,252.5095 232.9786,254.1155 231.0578,255.5401 229.0065,256.7695 226.8447,257.792 224.593,258.5977 222.2732,259.1788 219.9077,259.5297 217.5191,259.647 215.1305,259.5297 212.7649,259.1788 210.4451,258.5977 208.1935,257.792 206.0316,256.7695 203.9804,255.5401 202.0596,254.1155 200.2876,252.5095 198.6816,250.7375 197.257,248.8167 196.0276,246.7655 195.0051,244.6036 194.1994,242.352 193.6184,240.0322 193.2675,237.6666 193.1501,235.278 193.2675,232.8894 193.6184,230.5239 194.1994,228.2041 195.0051,225.9524 196.0276,223.7906 197.257,221.7393 198.6816,219.8185 200.2876,218.0466 202.0596,216.4406 203.9804,215.016 206.0316,213.7865 208.1935,212.764 210.4451,211.9584 212.7649,211.3773 215.1305,211.0264 217.5191,210.9091 219.9077,211.0264 222.2732,211.3773 224.593,211.9584 226.8447,212.764"/>
    <polygon points="255.7995,238.1437 253.5478,238.9494 251.386,239.9718 249.3347,241.2013 247.4139,242.6259 245.6419,244.2319 244.0359,246.0038 242.6114,247.9247 241.3819,249.9759 240.3594,252.1378 239.5538,254.3894 238.9727,256.7092 238.6218,259.0748 238.5044,261.4634 238.6218,263.8519 238.9727,266.2175 239.5538,268.5373 240.3594,270.789 241.3819,272.9508 242.6114,275.002 244.0359,276.9229 245.6419,278.6948 247.4139,280.3008 249.3347,281.7254 251.386,282.9549 253.5478,283.9774 255.7995,284.783 258.1193,285.3641 260.4848,285.715 262.8734,285.8323 265.262,285.715 267.6276,285.3641 269.9474,284.783 272.199,283.9774 274.3609,282.9549 276.4121,281.7254 278.3329,280.3008 280.1049,278.6948 281.7109,276.9229 283.1355,275.002 284.3649,272.9508 285.3874,270.789 286.1931,268.5373 286.7741,266.2175 287.125,263.8519 287.2424,261.4634 287.125,259.0748 286.7741,256.7092 286.1931,254.3894 285.3874,252.1378 284.3649,249.9759 283.1355,247.9247 281.7109,246.0038 280.1049,244.2319 278.3329,242.6259 276.4121,241.2013 274.3609,239.9718 272.199,238.9494 269.9474,238.1437 267.6276,237.5626 265.262,237.2117 262.8734,237.0944 260.4848,237.2117 258.1193,237.5626"/>
    <polygon points="266.1051,225.4587 266.374,224.3853 266.5364,223.2906 266.5907,222.1854 266.5364,221.0801 266.374,219.9855 266.1051,218.912 265.7323,217.8701 265.2592,216.8697 264.6903,215.9206 264.0311,215.0317 263.2879,214.2118 262.468,213.4687 261.5791,212.8095 260.63,212.2405 259.6296,211.7674 258.5877,211.3946 257.5143,211.1257 256.4196,210.9634 255.3144,210.9091 254.2091,210.9634 253.1145,211.1257 252.041,211.3946 250.9991,211.7674 249.9987,212.2405 249.0496,212.8095 248.1607,213.4687 247.3408,214.2118 246.5977,215.0317 245.9385,215.9206 245.3695,216.8697 244.8964,217.8701 244.5236,218.912 244.2547,219.9855 244.0923,221.0801 244.0381,222.1854 244.0923,223.2906 244.2547,224.3853 244.5236,225.4587 244.8964,226.5006 245.3695,227.501 245.9385,228.4501 246.5977,229.339 247.3408,230.1589 248.1607,230.9021 249.0496,231.5613 249.9987,232.1302 250.9991,232.6033 252.041,232.9761 253.1145,233.245 254.2091,233.4074 255.3144,233.4617 256.4196,233.4074 257.5143,233.245 258.5877,232.9761 259.6296,232.6033 260.63,232.1302 261.5791,231.5613 262.468,230.9021 263.2879,230.1589 264.0311,229.339 264.6903,228.4501 265.2592,227.501 265.7323,226.5006"/>
    <polygon points="276.8398,211.7062 276.4417,211.4676 276.0221,211.2691 275.585,211.1127 275.1348,210.9999 274.6756,210.9318 274.212,210.9091 273.7484,210.9318 273.2892,210.9999 272.839,211.1127 272.4019,211.2691 271.9823,211.4676 271.5842,211.7062 271.2113,211.9827 270.8674,212.2944 270.5557,212.6384 270.2792,213.0112 270.0405,213.4093 269.8421,213.8289 269.6857,214.266 269.5729,214.7163 269.5048,215.1754 269.482,215.639 269.5048,216.1026 269.5729,216.5618 269.6857,217.0121 269.8421,217.4491 270.0405,217.8687 270.2792,218.2669 270.5557,218.6397 270.8674,218.9836 271.2113,219.2953 271.5842,219.5719 271.9823,219.8105 272.4019,220.0089 272.839,220.1653 273.2892,220.2781 273.7484,220.3462 274.212,220.369 274.6756,220.3462 275.1348,220.2781 275.585,220.1653 276.0221,220.0089 276.4417,219.8105 276.8398,219.5719 277.2127,219.2953 277.5566,218.9836 277.8683,218.6397 278.1448,218.2669 278.3835,217.8687 278.5819,217.4491 278.7383,217.0121 278.8511,216.5618 278.9192,216.1026 278.942,215.639 278.9192,215.1754 278.8511,214.7163 278.7383,214.266 278.5819,213.8289 278.3835,213.4093 278.1448,213.0112 277.8683,212.6384 277.5566,212.2944 277.2127,211.9827"/>
  </g>
</svg>
