<?xml version="1.0" encoding="utf-8" ?>
<svg xmlns="http://www.w3.org/2000/svg" xmlns:cc="http://creativecommons.org/ns" xmlns:dc="http://purl.org/dc/elements/1.1/" xmlns:ev="http://www.w3.org/2001/xml-events" xmlns:inkscape="http://www.inkscape.org/namespaces/inkscape" xmlns:rdf="http://www.w3.org/1999/02/22-rdf-syntax-ns" xmlns:sodipodi="http://sodipodi.sourceforge.net/DTD/sodipodi-0.dtd" xmlns:xlink="http://www.w3.org/1999/xlink" baseProfile="tiny" height="15.875cm" version="1.2" viewBox="0 0 432.0 600.0" width="11.43cm">
  <metadata>
    <rdf:RDF>
      <cc:Work>
        <dc:format>image/svg+xml</dc:format>
        <dc:source>vsk save -s 182 -c hex-grid/config/bubble-coasters-2.json /Users/tobin/src/fabian/plotting/fabian-plotting/hex-grid/sketch_hex_grid.py</dc:source>
        <dc:date>2023-11-04T10:32:59.790878</dc:date>
      </cc:Work>
    </rdf:RDF>
  </metadata>
  <defs/>
  <g fill="none" id="layer1" inkscape:groupmode="layer" inkscape:label="1" stroke="#000000" stroke-width="0.7559" style="display:inline">
    <polygon points="294.4009,278.8713 294.0281,277.8294 293.7593,276.7559 293.5969,275.6613 293.5426,274.556 293.5969,273.4508 293.7593,272.3561 294.0281,271.2827 294.4009,270.2408 294.8741,269.2404 295.443,268.2912 296.1022,267.4024 296.8453,266.5825 297.6653,265.8393 298.5541,265.1801 299.5033,264.6112 300.5036,264.1381 301.5456,263.7653 302.619,263.4964 303.7136,263.334 304.8189,263.2797 305.9242,263.334 307.0188,263.4964 308.0922,263.7653 309.1342,264.1381 310.1345,264.6112 311.0837,265.1801 311.9725,265.8393 312.7925,266.5825 313.5356,267.4024 314.1948,268.2912 314.7637,269.2404 315.2368,270.2408 315.6097,271.2827 315.8785,272.3561 316.0409,273.4508 316.0952,274.556 316.0409,275.6613 315.8785,276.7559 315.6097,277.8294 315.2368,278.8713 314.7637,279.8716 314.1948,280.8208 313.5356,281.7096 312.7925,282.5296 311.9725,283.2727 311.0837,283.9319 310.1345,284.5008 309.1342,284.974 308.0922,285.3468 307.0188,285.6157 305.9242,285.778 304.8189,285.8323 303.7136,285.778 302.619,285.6157 301.5456,285.3468 300.5036,284.974 299.5033,284.5008 298.5541,283.9319 297.6653,283.2727 296.8453,282.5296 296.1022,281.7096 295.443,280.8208 294.8741,279.8716"/>
    <polygon points="294.0281,304.0147 293.7593,302.9413 293.5969,301.8466 293.5426,300.7414 293.5969,299.6361 293.7593,298.5415 294.0281,297.468 294.4009,296.4261 294.8741,295.4257 295.443,294.4766 296.1022,293.5878 296.8453,292.7678 297.6653,292.0247 298.5541,291.3655 299.5033,290.7965 300.5036,290.3234 301.5456,289.9506 302.619,289.6817 303.7136,289.5194 304.8189,289.4651 305.9242,289.5194 307.0188,289.6817 308.0922,289.9506 309.1342,290.3234 310.1345,290.7965 311.0837,291.3655 311.9725,292.0247 312.7925,292.7678 313.5356,293.5878 314.1948,294.4766 314.7637,295.4257 315.2368,296.4261 315.6097,297.468 315.8785,298.5415 316.0409,299.6361 316.0952,300.7414 316.0409,301.8466 315.8785,302.9413 315.6097,304.0147 315.2368,305.0566 314.7637,306.057 314.1948,307.0061 313.5356,307.895 312.7925,308.7149 311.9725,309.4581 311.0837,310.1173 310.1345,310.6862 309.1342,311.1593 308.0922,311.5321 307.0188,311.801 305.9242,311.9634 304.8189,312.0177 303.7136,311.9634 302.619,311.801 301.5456,311.5321 300.5036,311.1593 299.5033,310.6862 298.5541,310.1173 297.6653,309.4581 296.8453,308.7149 296.1022,307.895 295.443,307.0061 294.8741,306.057 294.4009,305.0566"/>
    <polygon points="282.5337,309.5174 282.295,309.9155 282.0185,310.2884 281.7068,310.6323 281.3629,310.944 280.99,311.2205 280.5919,311.4592 280.1723,311.6576 279.7352,311.814 279.285,311.9268 278.8258,311.9949 278.3622,312.0177 277.8986,311.9949 277.4394,311.9268 276.9892,311.814 276.5521,311.6576 276.1325,311.4592 275.7344,311.2205 275.3615,310.944 275.0176,310.6323 274.7059,310.2884 274.4294,309.9155 274.1907,309.5174 273.9923,309.0978 273.8359,308.6607 273.7231,308.2105 273.655,307.7513 273.6322,307.2877 273.655,306.8241 273.7231,306.3649 273.8359,305.9147 273.9923,305.4776 274.1907,305.058 274.4294,304.6599 274.7059,304.287 275.0176,303.9431 275.3615,303.6314 275.7344,303.3549 276.1325,303.1162 276.5521,302.9178 276.9892,302.7614 277.4394,302.6486 277.8986,302.5805 278.3622,302.5577 278.8258,302.5805 279.285,302.6486 279.7352,302.7614 280.1723,302.9178 280.5919,303.1162 280.99,303.3549 281.3629,303.6314 281.7068,303.9431 282.0185,304.287 282.295,304.6599 282.5337,305.058 282.7321,305.4776 282.8885,305.9147 283.0013,306.3649 283.0694,306.8241 283.0922,307.2877 283.0694,307.7513 283.0013,308.2105 282.8885,308.6607 282.7321,309.0978"/>
    <polygon points="262.7379,311.5321 261.6645,311.801 260.5698,311.9634 259.4646,312.0177 258.3593,311.9634 257.2647,311.801 256.1912,311.5321 255.1493,311.1593 254.149,310.6862 253.1998,310.1173 252.311,309.4581 251.491,308.7149 250.7479,307.895 250.0887,307.0061 249.5198,306.057 249.0466,305.0566 248.6738,304.0147 248.4049,302.9413 248.2426,301.8466 248.1883,300.7414 248.2426,299.6361 248.4049,298.5415 248.6738,297.468 249.0466,296.4261 249.5198,295.4257 250.0887,294.4766 250.7479,293.5878 251.491,292.7678 252.311,292.0247 253.1998,291.3655 254.149,290.7965 255.1493,290.3234 256.1912,289.9506 257.2647,289.6817 258.3593,289.5194 259.4646,289.4651 260.5698,289.5194 261.6645,289.6817 262.7379,289.9506 263.7798,290.3234 264.7802,290.7965 265.7293,291.3655 266.6182,292.0247 267.4381,292.7678 268.1813,293.5878 268.8405,294.4766 269.4094,295.4257 269.8825,296.4261 270.2553,297.468 270.5242,298.5415 270.6866,299.6361 270.7409,300.7414 270.6866,301.8466 270.5242,302.9413 270.2553,304.0147 269.8825,305.0566 269.4094,306.057 268.8405,307.0061 268.1813,307.895 267.4381,308.7149 266.6182,309.4581 265.7293,310.1173 264.7802,310.6862 263.7798,311.1593"/>
    <polygon points="258.6857,324.0367 258.3129,324.3132 257.9147,324.5518 257.4951,324.7503 257.0581,324.9067 256.6078,325.0195 256.1487,325.0876 255.685,325.1103 255.2214,325.0876 254.7623,325.0195 254.312,324.9067 253.875,324.7503 253.4553,324.5518 253.0572,324.3132 252.6844,324.0367 252.3404,323.725 252.0287,323.381 251.7522,323.0082 251.5136,322.6101 251.3151,322.1904 251.1587,321.7534 251.046,321.3031 250.9778,320.844 250.9551,320.3804 250.9778,319.9167 251.046,319.4576 251.1587,319.0073 251.3151,318.5703 251.5136,318.1507 251.7522,317.7525 252.0287,317.3797 252.3404,317.0358 252.6844,316.724 253.0572,316.4475 253.4553,316.2089 253.875,316.0104 254.312,315.8541 254.7623,315.7413 255.2214,315.6732 255.685,315.6504 256.1487,315.6732 256.6078,315.7413 257.0581,315.8541 257.4951,316.0104 257.9147,316.2089 258.3129,316.4475 258.6857,316.724 259.0296,317.0358 259.3414,317.3797 259.6179,317.7525 259.8565,318.1507 260.055,318.5703 260.2113,319.0073 260.3241,319.4576 260.3922,319.9167 260.415,320.3804 260.3922,320.844 260.3241,321.3031 260.2113,321.7534 260.055,322.1904 259.8565,322.6101 259.6179,323.0082 259.3414,323.381 259.0296,323.725"/>
    <polygon points="271.1951,363.975 271.3935,364.3946 271.5499,364.8317 271.6627,365.2819 271.7308,365.7411 271.7536,366.2047 271.7308,366.6683 271.6627,367.1275 271.5499,367.5777 271.3935,368.0148 271.1951,368.4344 270.9565,368.8325 270.6799,369.2054 270.3682,369.5493 270.0243,369.861 269.6515,370.1375 269.2533,370.3762 268.8337,370.5746 268.3967,370.731 267.9464,370.8438 267.4872,370.9119 267.0236,370.9347 266.56,370.9119 266.1009,370.8438 265.6506,370.731 265.2135,370.5746 264.7939,370.3762 264.3958,370.1375 264.023,369.861 263.679,369.5493 263.3673,369.2054 263.0908,368.8325 262.8522,368.4344 262.6537,368.0148 262.4973,367.5777 262.3845,367.1275 262.3164,366.6683 262.2936,366.2047 262.3164,365.7411 262.3845,365.2819 262.4973,364.8317 262.6537,364.3946 262.8522,363.975 263.0908,363.5769 263.3673,363.204 263.679,362.8601 264.023,362.5484 264.3958,362.2719 264.7939,362.0332 265.2135,361.8348 265.6506,361.6784 266.1009,361.5656 266.56,361.4975 267.0236,361.4747 267.4872,361.4975 267.9464,361.5656 268.3967,361.6784 268.8337,361.8348 269.2533,362.0332 269.6515,362.2719 270.0243,362.5484 270.3682,362.8601 270.6799,363.204 270.9565,363.5769"/>
    <polygon points="282.8885,374.1241 283.0013,373.6738 283.0694,373.2147 283.0922,372.751 283.0694,372.2874 283.0013,371.8283 282.8885,371.378 282.7321,370.941 282.5337,370.5213 282.295,370.1232 282.0185,369.7504 281.7068,369.4064 281.3629,369.0947 280.99,368.8182 280.5919,368.5796 280.1723,368.3811 279.7352,368.2247 279.285,368.1119 278.8258,368.0438 278.3622,368.0211 277.8986,368.0438 277.4394,368.1119 276.9892,368.2247 276.5521,368.3811 276.1325,368.5796 275.7344,368.8182 275.3615,369.0947 275.0176,369.4064 274.7059,369.7504 274.4294,370.1232 274.1907,370.5213 273.9923,370.941 273.8359,371.378 273.7231,371.8283 273.655,372.2874 273.6322,372.751 273.655,373.2147 273.7231,373.6738 273.8359,374.1241 273.9923,374.5611 274.1907,374.9807 274.4294,375.3789 274.7059,375.7517 275.0176,376.0956 275.3615,376.4074 275.7344,376.6839 276.1325,376.9225 276.5521,377.121 276.9892,377.2773 277.4394,377.3901 277.8986,377.4582 278.3622,377.481 278.8258,377.4582 279.285,377.3901 279.7352,377.2773 280.1723,377.121 280.5919,376.9225 280.99,376.6839 281.3629,376.4074 281.7068,376.0956 282.0185,375.7517 282.295,375.3789 282.5337,374.9807 282.7321,374.5611"/>
    <polygon points="290.6236,361.5656 290.1644,361.4975 289.7008,361.4747 289.2372,361.4975 288.778,361.5656 288.3277,361.6784 287.8907,361.8348 287.4711,362.0332 287.073,362.2719 286.7001,362.5484 286.3562,362.8601 286.0445,363.204 285.768,363.5769 285.5293,363.975 285.3309,364.3946 285.1745,364.8317 285.0617,365.2819 284.9936,365.7411 284.9708,366.2047 284.9936,366.6683 285.0617,367.1275 285.1745,367.5777 285.3309,368.0148 285.5293,368.4344 285.768,368.8325 286.0445,369.2054 286.3562,369.5493 286.7001,369.861 287.073,370.1375 287.4711,370.3762 287.8907,370.5746 288.3277,370.731 288.778,370.8438 289.2372,370.9119 289.7008,370.9347 290.1644,370.9119 290.6236,370.8438 291.0738,370.731 291.5109,370.5746 291.9305,370.3762 292.3286,370.1375 292.7015,369.861 293.0454,369.5493 293.3571,369.2054 293.6336,368.8325 293.8723,368.4344 294.0707,368.0148 294.2271,367.5777 294.3399,367.1275 294.408,366.6683 294.4308,366.2047 294.408,365.7411 294.3399,365.2819 294.2271,364.8317 294.0707,364.3946 293.8723,363.975 293.6336,363.5769 293.3571,363.204 293.0454,362.8601 292.7015,362.5484 292.3286,362.2719 291.9305,362.0332 291.5109,361.8348 291.0738,361.6784"/>
    <polygon points="300.5758,377.4582 300.1166,377.3901 299.6663,377.2773 299.2293,377.121 298.8097,376.9225 298.4115,376.6839 298.0387,376.4074 297.6948,376.0956 297.3831,375.7517 297.1065,375.3789 296.8679,374.9807 296.6694,374.5611 296.5131,374.1241 296.4003,373.6738 296.3322,373.2147 296.3094,372.751 296.3322,372.2874 296.4003,371.8283 296.5131,371.378 296.6694,370.941 296.8679,370.5213 297.1065,370.1232 297.3831,369.7504 297.6948,369.4064 298.0387,369.0947 298.4115,368.8182 298.8097,368.5796 299.2293,368.3811 299.6663,368.2247 300.1166,368.1119 300.5758,368.0438 301.0394,368.0211 301.503,368.0438 301.9621,368.1119 302.4124,368.2247 302.8495,368.3811 303.2691,368.5796 303.6672,368.8182 304.04,369.0947 304.384,369.4064 304.6957,369.7504 304.9722,370.1232 305.2108,370.5213 305.4093,370.941 305.5657,371.378 305.6785,371.8283 305.7466,372.2874 305.7693,372.751 305.7466,373.2147 305.6785,373.6738 305.5657,374.1241 305.4093,374.5611 305.2108,374.9807 304.9722,375.3789 304.6957,375.7517 304.384,376.0956 304.04,376.4074 303.6672,376.6839 303.2691,376.9225 302.8495,377.121 302.4124,377.2773 301.9621,377.3901 301.503,377.4582 301.0394,377.481"/>
    <polygon points="310.1345,363.0568 309.1342,363.53 308.0922,363.9028 307.0188,364.1717 305.9242,364.334 304.8189,364.3883 303.7136,364.334 302.619,364.1717 301.5456,363.9028 300.5036,363.53 299.5033,363.0568 298.5541,362.4879 297.6653,361.8287 296.8453,361.0856 296.1022,360.2656 295.443,359.3768 294.8741,358.4276 294.4009,357.4273 294.0281,356.3854 293.7593,355.3119 293.5969,354.2173 293.5426,353.112 293.5969,352.0068 293.7593,350.9121 294.0281,349.8387 294.4009,348.7968 294.8741,347.7964 295.443,346.8473 296.1022,345.9584 296.8453,345.1385 297.6653,344.3953 298.5541,343.7361 299.5033,343.1672 300.5036,342.6941 301.5456,342.3213 302.619,342.0524 303.7136,341.89 304.8189,341.8357 305.9242,341.89 307.0188,342.0524 308.0922,342.3213 309.1342,342.6941 310.1345,343.1672 311.0837,343.7361 311.9725,344.3953 312.7925,345.1385 313.5356,345.9584 314.1948,346.8473 314.7637,347.7964 315.2368,348.7968 315.6097,349.8387 315.8785,350.9121 316.0409,352.0068 316.0952,353.112 316.0409,354.2173 315.8785,355.3119 315.6097,356.3854 315.2368,357.4273 314.7637,358.4276 314.1948,359.3768 313.5356,360.2656 312.7925,361.0856 311.9725,361.8287 311.0837,362.4879"/>
    <polygon points="321.4868,363.8298 321.0887,363.5912 320.7159,363.3147 320.3719,363.003 320.0602,362.659 319.7837,362.2862 319.5451,361.8881 319.3466,361.4684 319.1902,361.0314 319.0774,360.5811 319.0093,360.122 318.9866,359.6584 319.0093,359.1947 319.0774,358.7356 319.1902,358.2853 319.3466,357.8483 319.5451,357.4287 319.7837,357.0305 320.0602,356.6577 320.3719,356.3138 320.7159,356.002 321.0887,355.7255 321.4868,355.4869 321.9065,355.2884 322.3435,355.1321 322.7938,355.0193 323.2529,354.9512 323.7165,354.9284 324.1802,354.9512 324.6393,355.0193 325.0896,355.1321 325.5266,355.2884 325.9462,355.4869 326.3444,355.7255 326.7172,356.002 327.0611,356.3138 327.3729,356.6577 327.6494,357.0305 327.888,357.4287 328.0865,357.8483 328.2428,358.2853 328.3556,358.7356 328.4237,359.1947 328.4465,359.6584 328.4237,360.122 328.3556,360.5811 328.2428,361.0314 328.0865,361.4684 327.888,361.8881 327.6494,362.2862 327.3729,362.659 327.0611,363.003 326.7172,363.3147 326.3444,363.5912 325.9462,363.8298 325.5266,364.0283 325.0896,364.1847 324.6393,364.2975 324.1802,364.3656 323.7165,364.3883 323.2529,364.3656 322.7938,364.2975 322.3435,364.1847 321.9065,364.0283"/>
    <polygon points="318.9866,333.473 319.0093,333.0094 319.0774,332.5503 319.1902,332.1 319.3466,331.663 319.5451,331.2433 319.7837,330.8452 320.0602,330.4724 320.3719,330.1284 320.7159,329.8167 321.0887,329.5402 321.4868,329.3016 321.9065,329.1031 322.3435,328.9467 322.7938,328.8339 323.2529,328.7658 323.7165,328.7431 324.1802,328.7658 324.6393,328.8339 325.0896,328.9467 325.5266,329.1031 325.9462,329.3016 326.3444,329.5402 326.7172,329.8167 327.0611,330.1284 327.3729,330.4724 327.6494,330.8452 327.888,331.2433 328.0865,331.663 328.2428,332.1 328.3556,332.5503 328.4237,333.0094 328.4465,333.473 328.4237,333.9367 328.3556,334.3958 328.2428,334.8461 328.0865,335.2831 327.888,335.7027 327.6494,336.1009 327.3729,336.4737 327.0611,336.8176 326.7172,337.1294 326.3444,337.4059 325.9462,337.6445 325.5266,337.843 325.0896,337.9993 324.6393,338.1121 324.1802,338.1802 323.7165,338.203 323.2529,338.1802 322.7938,338.1121 322.3435,337.9993 321.9065,337.843 321.4868,337.6445 321.0887,337.4059 320.7159,337.1294 320.3719,336.8176 320.0602,336.4737 319.7837,336.1009 319.5451,335.7027 319.3466,335.2831 319.1902,334.8461 319.0774,334.3958 319.0093,333.9367"/>
    <polygon points="314.7637,321.6111 315.2368,322.6114 315.6097,323.6534 315.8785,324.7268 316.0409,325.8214 316.0952,326.9267 316.0409,328.032 315.8785,329.1266 315.6097,330.2 315.2368,331.242 314.7637,332.2423 314.1948,333.1915 313.5356,334.0803 312.7925,334.9003 311.9725,335.6434 311.0837,336.3026 310.1345,336.8715 309.1342,337.3446 308.0922,337.7175 307.0188,337.9863 305.9242,338.1487 304.8189,338.203 303.7136,338.1487 302.619,337.9863 301.5456,337.7175 300.5036,337.3446 299.5033,336.8715 298.5541,336.3026 297.6653,335.6434 296.8453,334.9003 296.1022,334.0803 295.443,333.1915 294.8741,332.2423 294.4009,331.242 294.0281,330.2 293.7593,329.1266 293.5969,328.032 293.5426,326.9267 293.5969,325.8214 293.7593,324.7268 294.0281,323.6534 294.4009,322.6114 294.8741,321.6111 295.443,320.6619 296.1022,319.7731 296.8453,318.9531 297.6653,318.21 298.5541,317.5508 299.5033,316.9819 300.5036,316.5087 301.5456,316.1359 302.619,315.8671 303.7136,315.7047 304.8189,315.6504 305.9242,315.7047 307.0188,315.8671 308.0922,316.1359 309.1342,316.5087 310.1345,316.9819 311.0837,317.5508 311.9725,318.21 312.7925,318.9531 313.5356,319.7731 314.1948,320.6619"/>
    <polygon points="319.7837,304.6599 320.0602,304.287 320.3719,303.9431 320.7159,303.6314 321.0887,303.3549 321.4868,303.1162 321.9065,302.9178 322.3435,302.7614 322.7938,302.6486 323.2529,302.5805 323.7165,302.5577 324.1802,302.5805 324.6393,302.6486 325.0896,302.7614 325.5266,302.9178 325.9462,303.1162 326.3444,303.3549 326.7172,303.6314 327.0611,303.9431 327.3729,304.287 327.6494,304.6599 327.888,305.058 328.0865,305.4776 328.2428,305.9147 328.3556,306.3649 328.4237,306.8241 328.4465,307.2877 328.4237,307.7513 328.3556,308.2105 328.2428,308.6607 328.0865,309.0978 327.888,309.5174 327.6494,309.9155 327.3729,310.2884 327.0611,310.6323 326.7172,310.944 326.3444,311.2205 325.9462,311.4592 325.5266,311.6576 325.0896,311.814 324.6393,311.9268 324.1802,311.9949 323.7165,312.0177 323.2529,311.9949 322.7938,311.9268 322.3435,311.814 321.9065,311.6576 321.4868,311.4592 321.0887,311.2205 320.7159,310.944 320.3719,310.6323 320.0602,310.2884 319.7837,309.9155 319.5451,309.5174 319.3466,309.0978 319.1902,308.6607 319.0774,308.2105 319.0093,307.7513 318.9866,307.2877 319.0093,306.8241 319.0774,306.3649 319.1902,305.9147 319.3466,305.4776 319.5451,305.058"/>
    <polygon points="323.7165,276.3724 324.1802,276.3952 324.6393,276.4633 325.0896,276.5761 325.5266,276.7324 325.9462,276.9309 326.3444,277.1695 326.7172,277.446 327.0611,277.7578 327.3729,278.1017 327.6494,278.4745 327.888,278.8727 328.0865,279.2923 328.2428,279.7293 328.3556,280.1796 328.4237,280.6387 328.4465,281.1024 328.4237,281.566 328.3556,282.0251 328.2428,282.4754 328.0865,282.9124 327.888,283.3321 327.6494,283.7302 327.3729,284.103 327.0611,284.447 326.7172,284.7587 326.3444,285.0352 325.9462,285.2738 325.5266,285.4723 325.0896,285.6287 324.6393,285.7414 324.1802,285.8096 323.7165,285.8323 323.2529,285.8096 322.7938,285.7414 322.3435,285.6287 321.9065,285.4723 321.4868,285.2738 321.0887,285.0352 320.7159,284.7587 320.3719,284.447 320.0602,284.103 319.7837,283.7302 319.5451,283.3321 319.3466,282.9124 319.1902,282.4754 319.0774,282.0251 319.0093,281.566 318.9866,281.1024 319.0093,280.6387 319.0774,280.1796 319.1902,279.7293 319.3466,279.2923 319.5451,278.8727 319.7837,278.4745 320.0602,278.1017 320.3719,277.7578 320.7159,277.446 321.0887,277.1695 321.4868,276.9309 321.9065,276.7324 322.3435,276.5761 322.7938,276.4633 323.2529,276.3952"/>
    <polygon points="320.0602,257.9177 319.7837,257.5449 319.5451,257.1467 319.3466,256.7271 319.1902,256.2901 319.0774,255.8398 319.0093,255.3806 318.9866,254.917 319.0093,254.4534 319.0774,253.9943 319.1902,253.544 319.3466,253.1069 319.5451,252.6873 319.7837,252.2892 320.0602,251.9164 320.3719,251.5724 320.7159,251.2607 321.0887,250.9842 321.4868,250.7456 321.9065,250.5471 322.3435,250.3907 322.7938,250.2779 323.2529,250.2098 323.7165,250.1871 324.1802,250.2098 324.6393,250.2779 325.0896,250.3907 325.5266,250.5471 325.9462,250.7456 326.3444,250.9842 326.7172,251.2607 327.0611,251.5724 327.3729,251.9164 327.6494,252.2892 327.888,252.6873 328.0865,253.1069 328.2428,253.544 328.3556,253.9943 328.4237,254.4534 328.4465,254.917 328.4237,255.3806 328.3556,255.8398 328.2428,256.2901 328.0865,256.7271 327.888,257.1467 327.6494,257.5449 327.3729,257.9177 327.0611,258.2616 326.7172,258.5733 326.3444,258.8499 325.9462,259.0885 325.5266,259.287 325.0896,259.4433 324.6393,259.5561 324.1802,259.6242 323.7165,259.647 323.2529,259.6242 322.7938,259.5561 322.3435,259.4433 321.9065,259.287 321.4868,259.0885 321.0887,258.8499 320.7159,258.5733 320.3719,258.2616"/>
    <polygon points="330.3479,234.8144 330.416,234.3553 330.5288,233.905 330.6852,233.4679 330.8837,233.0483 331.1223,232.6502 331.3988,232.2774 331.7105,231.9334 332.0545,231.6217 332.4273,231.3452 332.8254,231.1066 333.245,230.9081 333.6821,230.7517 334.1323,230.6389 334.5915,230.5708 335.0551,230.5481 335.5187,230.5708 335.9779,230.6389 336.4282,230.7517 336.8652,230.9081 337.2848,231.1066 337.683,231.3452 338.0558,231.6217 338.3997,231.9334 338.7114,232.2774 338.9879,232.6502 339.2266,233.0483 339.425,233.4679 339.5814,233.905 339.6942,234.3553 339.7623,234.8144 339.7851,235.278 339.7623,235.7416 339.6942,236.2008 339.5814,236.6511 339.425,237.0881 339.2266,237.5077 338.9879,237.9059 338.7114,238.2787 338.3997,238.6226 338.0558,238.9343 337.683,239.2109 337.2848,239.4495 336.8652,239.648 336.4282,239.8043 335.9779,239.9171 335.5187,239.9852 335.0551,240.008 334.5915,239.9852 334.1323,239.9171 333.6821,239.8043 333.245,239.648 332.8254,239.4495 332.4273,239.2109 332.0545,238.9343 331.7105,238.6226 331.3988,238.2787 331.1223,237.9059 330.8837,237.5077 330.6852,237.0881 330.5288,236.6511 330.416,236.2008 330.3479,235.7416 330.3251,235.278"/>
    <polygon points="325.9462,237.6529 326.3444,237.8915 326.7172,238.168 327.0611,238.4798 327.3729,238.8237 327.6494,239.1965 327.888,239.5947 328.0865,240.0143 328.2428,240.4513 328.3556,240.9016 328.4237,241.3607 328.4465,241.8244 328.4237,242.288 328.3556,242.7471 328.2428,243.1974 328.0865,243.6344 327.888,244.0541 327.6494,244.4522 327.3729,244.825 327.0611,245.169 326.7172,245.4807 326.3444,245.7572 325.9462,245.9958 325.5266,246.1943 325.0896,246.3507 324.6393,246.4634 324.1802,246.5316 323.7165,246.5543 323.2529,246.5316 322.7938,246.4634 322.3435,246.3507 321.9065,246.1943 321.4868,245.9958 321.0887,245.7572 320.7159,245.4807 320.3719,245.169 320.0602,244.825 319.7837,244.4522 319.5451,244.0541 319.3466,243.6344 319.1902,243.1974 319.0774,242.7471 319.0093,242.288 318.9866,241.8244 319.0093,241.3607 319.0774,240.9016 319.1902,240.4513 319.3466,240.0143 319.5451,239.5947 319.7837,239.1965 320.0602,238.8237 320.3719,238.4798 320.7159,238.168 321.0887,237.8915 321.4868,237.6529 321.9065,237.4544 322.3435,237.2981 322.7938,237.1853 323.2529,237.1172 323.7165,237.0944 324.1802,237.1172 324.6393,237.1853 325.0896,237.2981 325.5266,237.4544"/>
    <polygon points="311.9725,239.654 312.7925,240.3971 313.5356,241.2171 314.1948,242.1059 314.7637,243.0551 315.2368,244.0554 315.6097,245.0974 315.8785,246.1708 316.0409,247.2654 316.0952,248.3707 316.0409,249.476 315.8785,250.5706 315.6097,251.644 315.2368,252.6859 314.7637,253.6863 314.1948,254.6355 313.5356,255.5243 312.7925,256.3442 311.9725,257.0874 311.0837,257.7466 310.1345,258.3155 309.1342,258.7886 308.0922,259.1614 307.0188,259.4303 305.9242,259.5927 304.8189,259.647 303.7136,259.5927 302.619,259.4303 301.5456,259.1614 300.5036,258.7886 299.5033,258.3155 298.5541,257.7466 297.6653,257.0874 296.8453,256.3442 296.1022,255.5243 295.443,254.6355 294.8741,253.6863 294.4009,252.6859 294.0281,251.644 293.7593,250.5706 293.5969,249.476 293.5426,248.3707 293.5969,247.2654 293.7593,246.1708 294.0281,245.0974 294.4009,244.0554 294.8741,243.0551 295.443,242.1059 296.1022,241.2171 296.8453,240.3971 297.6653,239.654 298.5541,238.9948 299.5033,238.4259 300.5036,237.9527 301.5456,237.5799 302.619,237.3111 303.7136,237.1487 304.8189,237.0944 305.9242,237.1487 307.0188,237.3111 308.0922,237.5799 309.1342,237.9527 310.1345,238.4259 311.0837,238.9948"/>
    <polygon points="303.6672,232.6645 303.2691,232.9032 302.8495,233.1016 302.4124,233.258 301.9621,233.3708 301.503,233.4389 301.0394,233.4617 300.5758,233.4389 300.1166,233.3708 299.6663,233.258 299.2293,233.1016 298.8097,232.9032 298.4115,232.6645 298.0387,232.388 297.6948,232.0763 297.3831,231.7324 297.1065,231.3595 296.8679,230.9614 296.6694,230.5418 296.5131,230.1047 296.4003,229.6545 296.3322,229.1953 296.3094,228.7317 296.3322,228.2681 296.4003,227.8089 296.5131,227.3587 296.6694,226.9216 296.8679,226.502 297.1065,226.1039 297.3831,225.731 297.6948,225.3871 298.0387,225.0754 298.4115,224.7989 298.8097,224.5602 299.2293,224.3618 299.6663,224.2054 300.1166,224.0926 300.5758,224.0245 301.0394,224.0017 301.503,224.0245 301.9621,224.0926 302.4124,224.2054 302.8495,224.3618 303.2691,224.5602 303.6672,224.7989 304.04,225.0754 304.384,225.3871 304.6957,225.731 304.9722,226.1039 305.2108,226.502 305.4093,226.9216 305.5657,227.3587 305.6785,227.8089 305.7466,228.2681 305.7693,228.7317 305.7466,229.1953 305.6785,229.6545 305.5657,230.1047 305.4093,230.5418 305.2108,230.9614 304.9722,231.3595 304.6957,231.7324 304.384,232.0763 304.04,232.388"/>
    <polygon points="283.0694,215.1754 283.0922,215.639 283.0694,216.1026 283.0013,216.5618 282.8885,217.0121 282.7321,217.4491 282.5337,217.8687 282.295,218.2669 282.0185,218.6397 281.7068,218.9836 281.3629,219.2953 280.99,219.5719 280.5919,219.8105 280.1723,220.0089 279.7352,220.1653 279.285,220.2781 278.8258,220.3462 278.3622,220.369 277.8986,220.3462 277.4394,220.2781 276.9892,220.1653 276.5521,220.0089 276.1325,219.8105 275.7344,219.5719 275.3615,219.2953 275.0176,218.9836 274.7059,218.6397 274.4294,218.2669 274.1907,217.8687 273.9923,217.4491 273.8359,217.0121 273.7231,216.5618 273.655,216.1026 273.6322,215.639 273.655,215.1754 273.7231,214.7163 273.8359,214.266 273.9923,213.8289 274.1907,213.4093 274.4294,213.0112 274.7059,212.6384 275.0176,212.2944 275.3615,211.9827 275.7344,211.7062 276.1325,211.4676 276.5521,211.2691 276.9892,211.1127 277.4394,210.9999 277.8986,210.9318 278.3622,210.9091 278.8258,210.9318 279.285,210.9999 279.7352,211.1127 280.1723,211.2691 280.5919,211.4676 280.99,211.7062 281.3629,211.9827 281.7068,212.2944 282.0185,212.6384 282.295,213.0112 282.5337,213.4093 282.7321,213.8289 282.8885,214.266 283.0013,214.7163"/>
    <polygon points="257.4951,198.1764 257.0581,198.0201 256.6078,197.9073 256.1487,197.8392 255.685,197.8164 255.2214,197.8392 254.7623,197.9073 254.312,198.0201 253.875,198.1764 253.4553,198.3749 253.0572,198.6135 252.6844,198.89 252.3404,199.2018 252.0287,199.5457 251.7522,199.9185 251.5136,200.3167 251.3151,200.7363 251.1587,201.1733 251.046,201.6236 250.9778,202.0827 250.9551,202.5464 250.9778,203.01 251.046,203.4691 251.1587,203.9194 251.3151,204.3564 251.5136,204.7761 251.7522,205.1742 252.0287,205.547 252.3404,205.891 252.6844,206.2027 253.0572,206.4792 253.4553,206.7178 253.875,206.9163 254.312,207.0727 254.7623,207.1854 255.2214,207.2536 255.685,207.2763 256.1487,207.2536 256.6078,207.1854 257.0581,207.0727 257.4951,206.9163 257.9147,206.7178 258.3129,206.4792 258.6857,206.2027 259.0296,205.891 259.3414,205.547 259.6179,205.1742 259.8565,204.7761 260.055,204.3564 260.2113,203.9194 260.3241,203.4691 260.3922,203.01 260.415,202.5464 260.3922,202.0827 260.3241,201.6236 260.2113,201.1733 260.055,200.7363 259.8565,200.3167 259.6179,199.9185 259.3414,199.5457 259.0296,199.2018 258.6857,198.89 258.3129,198.6135 257.9147,198.3749"/>
    <polygon points="229.6633,192.7983 230.0072,193.11 230.38,193.3865 230.7782,193.6252 231.1978,193.8236 231.6348,193.98 232.0851,194.0928 232.5443,194.1609 233.0079,194.1837 233.4715,194.1609 233.9306,194.0928 234.3809,193.98 234.818,193.8236 235.2376,193.6252 235.6357,193.3865 236.0085,193.11 236.3525,192.7983 236.6642,192.4544 236.9407,192.0815 237.1793,191.6834 237.3778,191.2638 237.5342,190.8267 237.647,190.3765 237.7151,189.9173 237.7378,189.4537 237.7151,188.9901 237.647,188.5309 237.5342,188.0807 237.3778,187.6436 237.1793,187.224 236.9407,186.8259 236.6642,186.453 236.3525,186.1091 236.0085,185.7974 235.6357,185.5209 235.2376,185.2822 234.818,185.0838 234.3809,184.9274 233.9306,184.8146 233.4715,184.7465 233.0079,184.7237 232.5443,184.7465 232.0851,184.8146 231.6348,184.9274 231.1978,185.0838 230.7782,185.2822 230.38,185.5209 230.0072,185.7974 229.6633,186.1091 229.3516,186.453 229.075,186.8259 228.8364,187.224 228.6379,187.6436 228.4816,188.0807 228.3688,188.5309 228.3007,188.9901 228.2779,189.4537 228.3007,189.9173 228.3688,190.3765 228.4816,190.8267 228.6379,191.2638 228.8364,191.6834 229.075,192.0815 229.3516,192.4544"/>
    <polygon points="226.8426,203.7771 226.3695,204.7774 225.9966,205.8194 225.7278,206.8928 225.5654,207.9874 225.5111,209.0927 225.5654,210.198 225.7278,211.2926 225.9966,212.366 226.3695,213.4079 226.8426,214.4083 227.4115,215.3575 228.0707,216.2463 228.8138,217.0662 229.6338,217.8094 230.5226,218.4686 231.4718,219.0375 232.4721,219.5106 233.5141,219.8834 234.5875,220.1523 235.6821,220.3147 236.7874,220.369 237.8927,220.3147 238.9873,220.1523 240.0607,219.8834 241.1027,219.5106 242.103,219.0375 243.0522,218.4686 243.941,217.8094 244.761,217.0662 245.5041,216.2463 246.1633,215.3575 246.7322,214.4083 247.2054,213.4079 247.5782,212.366 247.847,211.2926 248.0094,210.198 248.0637,209.0927 248.0094,207.9874 247.847,206.8928 247.5782,205.8194 247.2054,204.7774 246.7322,203.7771 246.1633,202.8279 245.5041,201.9391 244.761,201.1191 243.941,200.376 243.0522,199.7168 242.103,199.1479 241.1027,198.6747 240.0607,198.3019 238.9873,198.0331 237.8927,197.8707 236.7874,197.8164 235.6821,197.8707 234.5875,198.0331 233.5141,198.3019 232.4721,198.6747 231.4718,199.1479 230.5226,199.7168 229.6338,200.376 228.8138,201.1191 228.0707,201.9391 227.4115,202.8279"/>
    <polygon points="225.0139,225.53 225.3256,225.186 225.6021,224.8132 225.8408,224.4151 226.0392,223.9954 226.1956,223.5584 226.3084,223.1081 226.3765,222.649 226.3993,222.1854 226.3765,221.7217 226.3084,221.2626 226.1956,220.8123 226.0392,220.3753 225.8408,219.9557 225.6021,219.5575 225.3256,219.1847 225.0139,218.8408 224.67,218.529 224.2971,218.2525 223.899,218.0139 223.4794,217.8154 223.0423,217.6591 222.5921,217.5463 222.1329,217.4782 221.6693,217.4554 221.2057,217.4782 220.7465,217.5463 220.2963,217.6591 219.8592,217.8154 219.4396,218.0139 219.0415,218.2525 218.6686,218.529 218.3247,218.8408 218.013,219.1847 217.7365,219.5575 217.4978,219.9557 217.2994,220.3753 217.143,220.8123 217.0302,221.2626 216.9621,221.7217 216.9393,222.1854 216.9621,222.649 217.0302,223.1081 217.143,223.5584 217.2994,223.9954 217.4978,224.4151 217.7365,224.8132 218.013,225.186 218.3247,225.53 218.6686,225.8417 219.0415,226.1182 219.4396,226.3568 219.8592,226.5553 220.2963,226.7117 220.7465,226.8244 221.2057,226.8926 221.6693,226.9153 222.1329,226.8926 222.5921,226.8244 223.0423,226.7117 223.4794,226.5553 223.899,226.3568 224.2971,226.1182 224.67,225.8417"/>
    <polygon points="249.0466,217.8701 249.5198,216.8697 250.0887,215.9206 250.7479,215.0317 251.491,214.2118 252.311,213.4687 253.1998,212.8095 254.149,212.2405 255.1493,211.7674 256.1912,211.3946 257.2647,211.1257 258.3593,210.9634 259.4646,210.9091 260.5698,210.9634 261.6645,211.1257 262.7379,211.3946 263.7798,211.7674 264.7802,212.2405 265.7293,212.8095 266.6182,213.4687 267.4381,214.2118 268.1813,215.0317 268.8405,215.9206 269.4094,216.8697 269.8825,217.8701 270.2553,218.912 270.5242,219.9855 270.6866,221.0801 270.7409,222.1854 270.6866,223.2906 270.5242,224.3853 270.2553,225.4587 269.8825,226.5006 269.4094,227.501 268.8405,228.4501 268.1813,229.339 267.4381,230.1589 266.6182,230.9021 265.7293,231.5613 264.7802,232.1302 263.7798,232.6033 262.7379,232.9761 261.6645,233.245 260.5698,233.4074 259.4646,233.4617 258.3593,233.4074 257.2647,233.245 256.1912,232.9761 255.1493,232.6033 254.149,232.1302 253.1998,231.5613 252.311,230.9021 251.491,230.1589 250.7479,229.339 250.0887,228.4501 249.5198,227.501 249.0466,226.5006 248.6738,225.4587 248.4049,224.3853 248.2426,223.2906 248.1883,222.1854 248.2426,221.0801 248.4049,219.9855 248.6738,218.912"/>
    <polygon points="245.5041,242.4316 244.761,243.2516 243.941,243.9947 243.0522,244.6539 242.103,245.2228 241.1027,245.696 240.0607,246.0688 238.9873,246.3377 237.8927,246.5 236.7874,246.5543 235.6821,246.5 234.5875,246.3377 233.5141,246.0688 232.4721,245.696 231.4718,245.2228 230.5226,244.6539 229.6338,243.9947 228.8138,243.2516 228.0707,242.4316 227.4115,241.5428 226.8426,240.5936 226.3695,239.5933 225.9966,238.5514 225.7278,237.4779 225.5654,236.3833 225.5111,235.278 225.5654,234.1728 225.7278,233.0781 225.9966,232.0047 226.3695,230.9628 226.8426,229.9624 227.4115,229.0132 228.0707,228.1244 228.8138,227.3045 229.6338,226.5613 230.5226,225.9021 231.4718,225.3332 232.4721,224.8601 233.5141,224.4873 234.5875,224.2184 235.6821,224.056 236.7874,224.0017 237.8927,224.056 238.9873,224.2184 240.0607,224.4873 241.1027,224.8601 242.103,225.3332 243.0522,225.9021 243.941,226.5613 244.761,227.3045 245.5041,228.1244 246.1633,229.0132 246.7322,229.9624 247.2054,230.9628 247.5782,232.0047 247.847,233.0781 248.0094,234.1728 248.0637,235.278 248.0094,236.3833 247.847,237.4779 247.5782,238.5514 247.2054,239.5933 246.7322,240.5936 246.1633,241.5428"/>
    <polygon points="243.1229,266.2175 243.704,268.5373 244.5096,270.789 245.5321,272.9508 246.7616,275.002 248.1862,276.9229 249.7922,278.6948 251.5641,280.3008 253.4849,281.7254 255.5362,282.9549 257.698,283.9774 259.9497,284.783 262.2695,285.3641 264.635,285.715 267.0236,285.8323 269.4122,285.715 271.7778,285.3641 274.0976,284.783 276.3492,283.9774 278.5111,282.9549 280.5623,281.7254 282.4831,280.3008 284.2551,278.6948 285.8611,276.9229 287.2857,275.002 288.5151,272.9508 289.5376,270.789 290.3433,268.5373 290.9244,266.2175 291.2753,263.8519 291.3926,261.4634 291.2753,259.0748 290.9244,256.7092 290.3433,254.3894 289.5376,252.1378 288.5151,249.9759 287.2857,247.9247 285.8611,246.0038 284.2551,244.2319 282.4831,242.6259 280.5623,241.2013 278.5111,239.9718 276.3492,238.9494 274.0976,238.1437 271.7778,237.5626 269.4122,237.2117 267.0236,237.0944 264.635,237.2117 262.2695,237.5626 259.9497,238.1437 257.698,238.9494 255.5362,239.9718 253.4849,241.2013 251.5641,242.6259 249.7922,244.2319 248.1862,246.0038 246.7616,247.9247 245.5321,249.9759 244.5096,252.1378 243.704,254.3894 243.1229,256.7092 242.772,259.0748 242.6546,261.4634 242.772,263.8519"/>
    <polygon points="224.0579,263.3971 221.6693,263.2797 219.2807,263.3971 216.9151,263.748 214.5954,264.329 212.3437,265.1347 210.1818,266.1572 208.1306,267.3866 206.2098,268.8112 204.4378,270.4172 202.8318,272.1892 201.4072,274.11 200.1778,276.1612 199.1553,278.3231 198.3496,280.5748 197.7686,282.8945 197.4177,285.2601 197.3003,287.6487 197.4177,290.0373 197.7686,292.4028 198.3496,294.7226 199.1553,296.9743 200.1778,299.1362 201.4072,301.1874 202.8318,303.1082 204.4378,304.8802 206.2098,306.4862 208.1306,307.9108 210.1818,309.1402 212.3437,310.1627 214.5954,310.9684 216.9151,311.5494 219.2807,311.9003 221.6693,312.0177 224.0579,311.9003 226.4234,311.5494 228.7432,310.9684 230.9949,310.1627 233.1567,309.1402 235.208,307.9108 237.1288,306.4862 238.9008,304.8802 240.5068,303.1082 241.9314,301.1874 243.1608,299.1362 244.1833,296.9743 244.9889,294.7226 245.57,292.4028 245.9209,290.0373 246.0383,287.6487 245.9209,285.2601 245.57,282.8945 244.9889,280.5748 244.1833,278.3231 243.1608,276.1612 241.9314,274.11 240.5068,272.1892 238.9008,270.4172 237.1288,268.8112 235.208,267.3866 233.1567,266.1572 230.9949,265.1347 228.7432,264.329 226.4234,263.748"/>
    <polygon points="171.7887,286.2757 171.945,285.8386 172.1435,285.419 172.3821,285.0209 172.6586,284.648 172.9704,284.3041 173.3143,283.9924 173.6871,283.7159 174.0853,283.4772 174.5049,283.2788 174.9419,283.1224 175.3922,283.0096 175.8513,282.9415 176.315,282.9187 176.7786,282.9415 177.2377,283.0096 177.688,283.1224 178.125,283.2788 178.5447,283.4772 178.9428,283.7159 179.3156,283.9924 179.6596,284.3041 179.9713,284.648 180.2478,285.0209 180.4864,285.419 180.6849,285.8386 180.8413,286.2757 180.954,286.7259 181.0222,287.1851 181.0449,287.6487 181.0222,288.1123 180.954,288.5715 180.8413,289.0217 180.6849,289.4588 180.4864,289.8784 180.2478,290.2765 179.9713,290.6494 179.6596,290.9933 179.3156,291.305 178.9428,291.5815 178.5447,291.8202 178.125,292.0186 177.688,292.175 177.2377,292.2878 176.7786,292.3559 176.315,292.3787 175.8513,292.3559 175.3922,292.2878 174.9419,292.175 174.5049,292.0186 174.0853,291.8202 173.6871,291.5815 173.3143,291.305 172.9704,290.9933 172.6586,290.6494 172.3821,290.2765 172.1435,289.8784 171.945,289.4588 171.7887,289.0217 171.6759,288.5715 171.6078,288.1123 171.585,287.6487 171.6078,287.1851 171.6759,286.7259"/>
    <polygon points="179.6596,304.086 179.9713,303.742 180.2478,303.3692 180.4864,302.9711 180.6849,302.5514 180.8413,302.1144 180.954,301.6641 181.0222,301.205 181.0449,300.7414 181.0222,300.2777 180.954,299.8186 180.8413,299.3683 180.6849,298.9313 180.4864,298.5117 180.2478,298.1135 179.9713,297.7407 179.6596,297.3968 179.3156,297.085 178.9428,296.8085 178.5447,296.5699 178.125,296.3714 177.688,296.2151 177.2377,296.1023 176.7786,296.0342 176.315,296.0114 175.8513,296.0342 175.3922,296.1023 174.9419,296.2151 174.5049,296.3714 174.0853,296.5699 173.6871,296.8085 173.3143,297.085 172.9704,297.3968 172.6586,297.7407 172.3821,298.1135 172.1435,298.5117 171.945,298.9313 171.7887,299.3683 171.6759,299.8186 171.6078,300.2777 171.585,300.7414 171.6078,301.205 171.6759,301.6641 171.7887,302.1144 171.945,302.5514 172.1435,302.9711 172.3821,303.3692 172.6586,303.742 172.9704,304.086 173.3143,304.3977 173.6871,304.6742 174.0853,304.9128 174.5049,305.1113 174.9419,305.2677 175.3922,305.3805 175.8513,305.4486 176.315,305.4713 176.7786,305.4486 177.2377,305.3805 177.688,305.2677 178.125,305.1113 178.5447,304.9128 178.9428,304.6742 179.3156,304.3977"/>
    <polygon points="180.3734,311.6341 180.2111,312.7288 180.1568,313.834 180.2111,314.9393 180.3734,316.0339 180.6423,317.1074 181.0151,318.1493 181.4883,319.1496 182.0572,320.0988 182.7164,320.9876 183.4595,321.8076 184.2795,322.5507 185.1683,323.2099 186.1175,323.7788 187.1178,324.252 188.1597,324.6248 189.2332,324.8937 190.3278,325.056 191.4331,325.1103 192.5383,325.056 193.633,324.8937 194.7064,324.6248 195.7483,324.252 196.7487,323.7788 197.6979,323.2099 198.5867,322.5507 199.4066,321.8076 200.1498,320.9876 200.809,320.0988 201.3779,319.1496 201.851,318.1493 202.2238,317.1074 202.4927,316.0339 202.6551,314.9393 202.7094,313.834 202.6551,312.7288 202.4927,311.6341 202.2238,310.5607 201.851,309.5188 201.3779,308.5184 200.809,307.5693 200.1498,306.6804 199.4066,305.8605 198.5867,305.1173 197.6979,304.4581 196.7487,303.8892 195.7483,303.4161 194.7064,303.0433 193.633,302.7744 192.5383,302.612 191.4331,302.5577 190.3278,302.612 189.2332,302.7744 188.1597,303.0433 187.1178,303.4161 186.1175,303.8892 185.1683,304.4581 184.2795,305.1173 183.4595,305.8605 182.7164,306.6804 182.0572,307.5693 181.4883,308.5184 181.0151,309.5188 180.6423,310.5607"/>
    <polygon points="179.5467,330.2 179.8155,329.1266 179.9779,328.032 180.0322,326.9267 179.9779,325.8214 179.8155,324.7268 179.5467,323.6534 179.1739,322.6114 178.7007,321.6111 178.1318,320.6619 177.4726,319.7731 176.7295,318.9531 175.9095,318.21 175.0207,317.5508 174.0715,316.9819 173.0712,316.5087 172.0292,316.1359 170.9558,315.8671 169.8612,315.7047 168.7559,315.6504 167.6506,315.7047 166.556,315.8671 165.4826,316.1359 164.4406,316.5087 163.4403,316.9819 162.4911,317.5508 161.6023,318.21 160.7824,318.9531 160.0392,319.7731 159.38,320.6619 158.8111,321.6111 158.338,322.6114 157.9652,323.6534 157.6963,324.7268 157.5339,325.8214 157.4796,326.9267 157.5339,328.032 157.6963,329.1266 157.9652,330.2 158.338,331.242 158.8111,332.2423 159.38,333.1915 160.0392,334.0803 160.7824,334.9003 161.6023,335.6434 162.4911,336.3026 163.4403,336.8715 164.4406,337.3446 165.4826,337.7175 166.556,337.9863 167.6506,338.1487 168.7559,338.203 169.8612,338.1487 170.9558,337.9863 172.0292,337.7175 173.0712,337.3446 174.0715,336.8715 175.0207,336.3026 175.9095,335.6434 176.7295,334.9003 177.4726,334.0803 178.1318,333.1915 178.7007,332.2423 179.1739,331.242"/>
    <polygon points="188.5763,338.1121 189.0266,337.9993 189.4636,337.843 189.8832,337.6445 190.2814,337.4059 190.6542,337.1294 190.9981,336.8176 191.3099,336.4737 191.5864,336.1009 191.825,335.7027 192.0235,335.2831 192.1798,334.8461 192.2926,334.3958 192.3607,333.9367 192.3835,333.473 192.3607,333.0094 192.2926,332.5503 192.1798,332.1 192.0235,331.663 191.825,331.2433 191.5864,330.8452 191.3099,330.4724 190.9981,330.1284 190.6542,329.8167 190.2814,329.5402 189.8832,329.3016 189.4636,329.1031 189.0266,328.9467 188.5763,328.8339 188.1172,328.7658 187.6535,328.7431 187.1899,328.7658 186.7308,328.8339 186.2805,328.9467 185.8435,329.1031 185.4238,329.3016 185.0257,329.5402 184.6529,329.8167 184.3089,330.1284 183.9972,330.4724 183.7207,330.8452 183.4821,331.2433 183.2836,331.663 183.1272,332.1 183.0145,332.5503 182.9463,333.0094 182.9236,333.473 182.9463,333.9367 183.0145,334.3958 183.1272,334.8461 183.2836,335.2831 183.4821,335.7027 183.7207,336.1009 183.9972,336.4737 184.3089,336.8176 184.6529,337.1294 185.0257,337.4059 185.4238,337.6445 185.8435,337.843 186.2805,337.9993 186.7308,338.1121 187.1899,338.1802 187.6535,338.203 188.1172,338.1802"/>
    <polygon points="192.0235,348.3758 192.1798,347.9387 192.2926,347.4885 192.3607,347.0293 192.3835,346.5657 192.3607,346.1021 192.2926,345.6429 192.1798,345.1927 192.0235,344.7556 191.825,344.336 191.5864,343.9379 191.3099,343.565 190.9981,343.2211 190.6542,342.9094 190.2814,342.6329 189.8832,342.3942 189.4636,342.1958 189.0266,342.0394 188.5763,341.9266 188.1172,341.8585 187.6535,341.8357 187.1899,341.8585 186.7308,341.9266 186.2805,342.0394 185.8435,342.1958 185.4238,342.3942 185.0257,342.6329 184.6529,342.9094 184.3089,343.2211 183.9972,343.565 183.7207,343.9379 183.4821,344.336 183.2836,344.7556 183.1272,345.1927 183.0145,345.6429 182.9463,346.1021 182.9236,346.5657 182.9463,347.0293 183.0145,347.4885 183.1272,347.9387 183.2836,348.3758 183.4821,348.7954 183.7207,349.1935 183.9972,349.5664 184.3089,349.9103 184.6529,350.222 185.0257,350.4985 185.4238,350.7372 185.8435,350.9356 186.2805,351.092 186.7308,351.2048 187.1899,351.2729 187.6535,351.2957 188.1172,351.2729 188.5763,351.2048 189.0266,351.092 189.4636,350.9356 189.8832,350.7372 190.2814,350.4985 190.6542,350.222 190.9981,349.9103 191.3099,349.5664 191.5864,349.1935 191.825,348.7954"/>
    <polygon points="139.6714,363.5912 140.0695,363.8298 140.4891,364.0283 140.9262,364.1847 141.3764,364.2975 141.8356,364.3656 142.2992,364.3883 142.7628,364.3656 143.222,364.2975 143.6723,364.1847 144.1093,364.0283 144.5289,363.8298 144.927,363.5912 145.2999,363.3147 145.6438,363.003 145.9555,362.659 146.232,362.2862 146.4707,361.8881 146.6691,361.4684 146.8255,361.0314 146.9383,360.5811 147.0064,360.122 147.0292,359.6584 147.0064,359.1947 146.9383,358.7356 146.8255,358.2853 146.6691,357.8483 146.4707,357.4287 146.232,357.0305 145.9555,356.6577 145.6438,356.3138 145.2999,356.002 144.927,355.7255 144.5289,355.4869 144.1093,355.2884 143.6723,355.1321 143.222,355.0193 142.7628,354.9512 142.2992,354.9284 141.8356,354.9512 141.3764,355.0193 140.9262,355.1321 140.4891,355.2884 140.0695,355.4869 139.6714,355.7255 139.2985,356.002 138.9546,356.3138 138.6429,356.6577 138.3664,357.0305 138.1277,357.4287 137.9293,357.8483 137.7729,358.2853 137.6601,358.7356 137.592,359.1947 137.5692,359.6584 137.592,360.122 137.6601,360.5811 137.7729,361.0314 137.9293,361.4684 138.1277,361.8881 138.3664,362.2862 138.6429,362.659 138.9546,363.003 139.2985,363.3147"/>
    <polygon points="129.5876,357.6383 130.0379,357.7511 130.497,357.8192 130.9606,357.842 131.4242,357.8192 131.8834,357.7511 132.3337,357.6383 132.7707,357.482 133.1903,357.2835 133.5885,357.0449 133.9613,356.7684 134.3052,356.4566 134.6169,356.1127 134.8935,355.7399 135.1321,355.3417 135.3306,354.9221 135.4869,354.4851 135.5997,354.0348 135.6678,353.5757 135.6906,353.112 135.6678,352.6484 135.5997,352.1893 135.4869,351.739 135.3306,351.302 135.1321,350.8823 134.8935,350.4842 134.6169,350.1114 134.3052,349.7674 133.9613,349.4557 133.5885,349.1792 133.1903,348.9406 132.7707,348.7421 132.3337,348.5857 131.8834,348.4729 131.4242,348.4048 130.9606,348.3821 130.497,348.4048 130.0379,348.4729 129.5876,348.5857 129.1505,348.7421 128.7309,348.9406 128.3328,349.1792 127.96,349.4557 127.616,349.7674 127.3043,350.1114 127.0278,350.4842 126.7892,350.8823 126.5907,351.302 126.4343,351.739 126.3215,352.1893 126.2534,352.6484 126.2307,353.112 126.2534,353.5757 126.3215,354.0348 126.4343,354.4851 126.5907,354.9221 126.7892,355.3417 127.0278,355.7399 127.3043,356.1127 127.616,356.4566 127.96,356.7684 128.3328,357.0449 128.7309,357.2835 129.1505,357.482"/>
    <polygon points="115.4506,348.7954 115.6892,349.1935 115.9657,349.5664 116.2775,349.9103 116.6214,350.222 116.9942,350.4985 117.3924,350.7372 117.812,350.9356 118.249,351.092 118.6993,351.2048 119.1584,351.2729 119.622,351.2957 120.0857,351.2729 120.5448,351.2048 120.9951,351.092 121.4321,350.9356 121.8517,350.7372 122.2499,350.4985 122.6227,350.222 122.9666,349.9103 123.2784,349.5664 123.5549,349.1935 123.7935,348.7954 123.992,348.3758 124.1483,347.9387 124.2611,347.4885 124.3292,347.0293 124.352,346.5657 124.3292,346.1021 124.2611,345.6429 124.1483,345.1927 123.992,344.7556 123.7935,344.336 123.5549,343.9379 123.2784,343.565 122.9666,343.2211 122.6227,342.9094 122.2499,342.6329 121.8517,342.3942 121.4321,342.1958 120.9951,342.0394 120.5448,341.9266 120.0857,341.8585 119.622,341.8357 119.1584,341.8585 118.6993,341.9266 118.249,342.0394 117.812,342.1958 117.3924,342.3942 116.9942,342.6329 116.6214,342.9094 116.2775,343.2211 115.9657,343.565 115.6892,343.9379 115.4506,344.336 115.2521,344.7556 115.0957,345.1927 114.983,345.6429 114.9149,346.1021 114.8921,346.5657 114.9149,347.0293 114.983,347.4885 115.0957,347.9387 115.2521,348.3758"/>
    <polygon points="134.8024,340.0194 134.8567,341.1246 135.0191,342.2193 135.288,343.2927 135.6608,344.3346 136.1339,345.335 136.7028,346.2841 137.362,347.173 138.1052,347.9929 138.9251,348.7361 139.814,349.3953 140.7631,349.9642 141.7635,350.4373 142.8054,350.8101 143.8788,351.079 144.9735,351.2414 146.0787,351.2957 147.184,351.2414 148.2786,351.079 149.3521,350.8101 150.394,350.4373 151.3944,349.9642 152.3435,349.3953 153.2324,348.7361 154.0523,347.9929 154.7954,347.173 155.4546,346.2841 156.0236,345.335 156.4967,344.3346 156.8695,343.2927 157.1384,342.2193 157.3007,341.1246 157.355,340.0194 157.3007,338.9141 157.1384,337.8195 156.8695,336.746 156.4967,335.7041 156.0236,334.7038 155.4546,333.7546 154.7954,332.8658 154.0523,332.0458 153.2324,331.3027 152.3435,330.6435 151.3944,330.0746 150.394,329.6014 149.3521,329.2286 148.2786,328.9597 147.184,328.7974 146.0787,328.7431 144.9735,328.7974 143.8788,328.9597 142.8054,329.2286 141.7635,329.6014 140.7631,330.0746 139.814,330.6435 138.9251,331.3027 138.1052,332.0458 137.362,332.8658 136.7028,333.7546 136.1339,334.7038 135.6608,335.7041 135.288,336.746 135.0191,337.8195 134.8567,338.9141"/>
    <polygon points="121.2017,315.8671 120.1282,316.1359 119.0863,316.5087 118.086,316.9819 117.1368,317.5508 116.248,318.21 115.428,318.9531 114.6849,319.7731 114.0257,320.6619 113.4568,321.6111 112.9836,322.6114 112.6108,323.6534 112.3419,324.7268 112.1796,325.8214 112.1253,326.9267 112.1796,328.032 112.3419,329.1266 112.6108,330.2 112.9836,331.242 113.4568,332.2423 114.0257,333.1915 114.6849,334.0803 115.428,334.9003 116.248,335.6434 117.1368,336.3026 118.086,336.8715 119.0863,337.3446 120.1282,337.7175 121.2017,337.9863 122.2963,338.1487 123.4016,338.203 124.5068,338.1487 125.6015,337.9863 126.6749,337.7175 127.7168,337.3446 128.7172,336.8715 129.6664,336.3026 130.5552,335.6434 131.3751,334.9003 132.1183,334.0803 132.7775,333.1915 133.3464,332.2423 133.8195,331.242 134.1923,330.2 134.4612,329.1266 134.6236,328.032 134.6779,326.9267 134.6236,325.8214 134.4612,324.7268 134.1923,323.6534 133.8195,322.6114 133.3464,321.6111 132.7775,320.6619 132.1183,319.7731 131.3751,318.9531 130.5552,318.21 129.6664,317.5508 128.7172,316.9819 127.7168,316.5087 126.6749,316.1359 125.6015,315.8671 124.5068,315.7047 123.4016,315.6504 122.2963,315.7047"/>
    <polygon points="105.6556,317.7669 106.0538,318.0055 106.4734,318.204 106.9104,318.3603 107.3607,318.4731 107.8198,318.5412 108.2835,318.564 108.7471,318.5412 109.2062,318.4731 109.6565,318.3603 110.0935,318.204 110.5132,318.0055 110.9113,317.7669 111.2841,317.4903 111.6281,317.1786 111.9398,316.8347 112.2163,316.4619 112.4549,316.0637 112.6534,315.6441 112.8098,315.2071 112.9226,314.7568 112.9907,314.2976 113.0134,313.834 112.9907,313.3704 112.9226,312.9113 112.8098,312.461 112.6534,312.0239 112.4549,311.6043 112.2163,311.2062 111.9398,310.8334 111.6281,310.4894 111.2841,310.1777 110.9113,309.9012 110.5132,309.6626 110.0935,309.4641 109.6565,309.3077 109.2062,309.1949 108.7471,309.1268 108.2835,309.1041 107.8198,309.1268 107.3607,309.1949 106.9104,309.3077 106.4734,309.4641 106.0538,309.6626 105.6556,309.9012 105.2828,310.1777 104.9389,310.4894 104.6271,310.8334 104.3506,311.2062 104.112,311.6043 103.9135,312.0239 103.7572,312.461 103.6444,312.9113 103.5763,313.3704 103.5535,313.834 103.5763,314.2976 103.6444,314.7568 103.7572,315.2071 103.9135,315.6441 104.112,316.0637 104.3506,316.4619 104.6271,316.8347 104.9389,317.1786 105.2828,317.4903"/>
    <polygon points="100.8777,304.6599 100.6012,304.287 100.2895,303.9431 99.9455,303.6314 99.5727,303.3549 99.1746,303.1162 98.755,302.9178 98.3179,302.7614 97.8677,302.6486 97.4085,302.5805 96.9449,302.5577 96.4813,302.5805 96.0221,302.6486 95.5718,302.7614 95.1348,302.9178 94.7152,303.1162 94.317,303.3549 93.9442,303.6314 93.6003,303.9431 93.2886,304.287 93.0121,304.6599 92.7734,305.058 92.575,305.4776 92.4186,305.9147 92.3058,306.3649 92.2377,306.8241 92.2149,307.2877 92.2377,307.7513 92.3058,308.2105 92.4186,308.6607 92.575,309.0978 92.7734,309.5174 93.0121,309.9155 93.2886,310.2884 93.6003,310.6323 93.9442,310.944 94.317,311.2205 94.7152,311.4592 95.1348,311.6576 95.5718,311.814 96.0221,311.9268 96.4813,311.9949 96.9449,312.0177 97.4085,311.9949 97.8677,311.9268 98.3179,311.814 98.755,311.6576 99.1746,311.4592 99.5727,311.2205 99.9455,310.944 100.2895,310.6323 100.6012,310.2884 100.8777,309.9155 101.1163,309.5174 101.3148,309.0978 101.4712,308.6607 101.584,308.2105 101.6521,307.7513 101.6749,307.2877 101.6521,306.8241 101.584,306.3649 101.4712,305.9147 101.3148,305.4776 101.1163,305.058"/>
    <polygon points="144.927,303.3549 144.5289,303.1162 144.1093,302.9178 143.6723,302.7614 143.222,302.6486 142.7628,302.5805 142.2992,302.5577 141.8356,302.5805 141.3764,302.6486 140.9262,302.7614 140.4891,302.9178 140.0695,303.1162 139.6714,303.3549 139.2985,303.6314 138.9546,303.9431 138.6429,304.287 138.3664,304.6599 138.1277,305.058 137.9293,305.4776 137.7729,305.9147 137.6601,306.3649 137.592,306.8241 137.5692,307.2877 137.592,307.7513 137.6601,308.2105 137.7729,308.6607 137.9293,309.0978 138.1277,309.5174 138.3664,309.9155 138.6429,310.2884 138.9546,310.6323 139.2985,310.944 139.6714,311.2205 140.0695,311.4592 140.4891,311.6576 140.9262,311.814 141.3764,311.9268 141.8356,311.9949 142.2992,312.0177 142.7628,311.9949 143.222,311.9268 143.6723,311.814 144.1093,311.6576 144.5289,311.4592 144.927,311.2205 145.2999,310.944 145.6438,310.6323 145.9555,310.2884 146.232,309.9155 146.4707,309.5174 146.6691,309.0978 146.8255,308.6607 146.9383,308.2105 147.0064,307.7513 147.0292,307.2877 147.0064,306.8241 146.9383,306.3649 146.8255,305.9147 146.6691,305.4776 146.4707,305.058 146.232,304.6599 145.9555,304.287 145.6438,303.9431 145.2999,303.6314"/>
    <polygon points="148.9306,314.2976 148.9987,314.7568 149.1115,315.2071 149.2679,315.6441 149.4663,316.0637 149.705,316.4619 149.9815,316.8347 150.2932,317.1786 150.6371,317.4903 151.01,317.7669 151.4081,318.0055 151.8277,318.204 152.2648,318.3603 152.715,318.4731 153.1742,318.5412 153.6378,318.564 154.1014,318.5412 154.5606,318.4731 155.0108,318.3603 155.4479,318.204 155.8675,318.0055 156.2656,317.7669 156.6385,317.4903 156.9824,317.1786 157.2941,316.8347 157.5706,316.4619 157.8093,316.0637 158.0077,315.6441 158.1641,315.2071 158.2769,314.7568 158.345,314.2976 158.3678,313.834 158.345,313.3704 158.2769,312.9113 158.1641,312.461 158.0077,312.0239 157.8093,311.6043 157.5706,311.2062 157.2941,310.8334 156.9824,310.4894 156.6385,310.1777 156.2656,309.9012 155.8675,309.6626 155.4479,309.4641 155.0108,309.3077 154.5606,309.1949 154.1014,309.1268 153.6378,309.1041 153.1742,309.1268 152.715,309.1949 152.2648,309.3077 151.8277,309.4641 151.4081,309.6626 151.01,309.9012 150.6371,310.1777 150.2932,310.4894 149.9815,310.8334 149.705,311.2062 149.4663,311.6043 149.2679,312.0239 149.1115,312.461 148.9987,312.9113 148.9306,313.3704 148.9078,313.834"/>
  </g>
</svg>
