<?xml version="1.0" encoding="utf-8" ?>
<svg xmlns="http://www.w3.org/2000/svg" xmlns:cc="http://creativecommons.org/ns" xmlns:dc="http://purl.org/dc/elements/1.1/" xmlns:ev="http://www.w3.org/2001/xml-events" xmlns:inkscape="http://www.inkscape.org/namespaces/inkscape" xmlns:rdf="http://www.w3.org/1999/02/22-rdf-syntax-ns" xmlns:sodipodi="http://sodipodi.sourceforge.net/DTD/sodipodi-0.dtd" xmlns:xlink="http://www.w3.org/1999/xlink" baseProfile="tiny" height="22.86cm" version="1.2" viewBox="0 0 576.0 864.0" width="15.24cm">
  <metadata>
    <rdf:RDF>
      <cc:Work>
        <dc:format>image/svg+xml</dc:format>
        <dc:source>vpype 
</dc:source>
        <dc:date>2022-10-03T11:23:41.148975</dc:date>
      </cc:Work>
    </rdf:RDF>
  </metadata>
  <defs/>
  <g fill="none" id="layer1" inkscape:groupmode="layer" inkscape:label="1" stroke="#000000" stroke-width="1.1339" style="display:inline">
    <polygon points="240.5094,384.0921 240.5094,429.4464 241.0763,430.0133 241.6433,429.4464 241.6433,384.0921 241.0763,383.5251"/>
    <polygon points="241.658,385.6903 242.5493,384.9425 242.7513,383.7967 241.9267,382.6191 202.6487,359.942 201.503,359.7399 200.3254,360.5645 200.1234,361.7102 200.9479,362.8878 240.2259,385.565"/>
    <polyline points="258.2605,405.3519 260.7153,406.7692 260.7153,412.4385"/>
    <polyline points="258.2605,413.8558 260.7153,412.4385 265.6251,415.2732 270.5348,412.4385"/>
    <polyline points="265.6251,415.2732 265.6251,418.1078 263.1702,419.5251"/>
    <line x1="260.7153" x2="270.5348" y1="418.1078" y2="423.7771"/>
    <polyline points="268.08,422.3598 268.08,419.5251 265.6251,418.1078"/>
    <polyline points="277.8995,419.5251 280.3543,420.9425 282.8092,419.5251 285.2641,420.9425"/>
    <line x1="285.2641" x2="282.8092" y1="423.7771" y2="425.1944"/>
    <polyline points="285.2641,426.6117 280.3543,423.7771 277.8995,425.1944"/>
    <polygon points="279.8634,429.1629 280.0709,429.9374 299.7099,441.276 300.4843,441.0684 300.2768,440.294 280.6378,428.9554"/>
    <polyline points="280.3543,429.4464 280.3543,418.1078 270.5348,412.4385 270.5348,406.7692 272.9897,405.3519"/>
    <polyline points="277.8995,402.5173 275.4446,403.9346 275.4446,406.7692 277.8995,408.1866"/>
    <polyline points="280.3543,406.7692 280.3543,403.9346 277.8995,402.5173 277.8995,399.6826"/>
    <polyline points="280.3543,403.9346 282.8092,402.5173 285.2641,403.9346"/>
    <polyline points="285.2641,401.0999 287.719,399.6826 285.2641,398.2653 282.8092,399.6826 282.8092,402.5173"/>
    <line x1="285.2641" x2="285.2641" y1="398.2653" y2="395.4306"/>
    <line x1="287.719" x2="290.1738" y1="399.6826" y2="401.0999"/>
    <polyline points="290.1738,403.9346 290.1738,401.0999 295.0836,398.2653 299.9933,401.0999 299.9933,406.7692"/>
    <polyline points="299.9933,412.4385 297.5385,413.8558 297.5385,416.6905 295.0836,415.2732"/>
    <polyline points="299.9933,418.1078 304.9031,415.2732 304.9031,412.4385"/>
    <line x1="309.8128" x2="309.8128" y1="412.4385" y2="423.7771"/>
    <polyline points="309.8128,420.9425 307.358,422.3598 307.358,425.1944 304.9031,426.6117"/>
    <line x1="304.9031" x2="302.4482" y1="429.4464" y2="430.8637"/>
    <polyline points="299.9933,432.281 302.4482,433.6984 304.9031,432.281 307.358,433.6984 307.358,436.533 304.9031,437.9503"/>
    <polyline points="304.9031,443.6196 309.8128,446.4543 312.2677,445.0369 314.7226,446.4543 317.1775,445.0369 319.6323,446.4543 322.0872,445.0369 324.5421,446.4543 326.997,445.0369"/>
    <polyline points="324.5421,449.2889 329.4518,446.4543 329.4518,435.1157 319.6323,429.4464 319.6323,418.1078 314.7226,415.2732"/>
    <polyline points="319.6323,418.1078 324.5421,415.2732 324.5421,409.6039"/>
    <polyline points="324.5421,406.7692 326.997,408.1866 329.4518,406.7692 334.3616,409.6039"/>
    <polyline points="336.8165,408.1866 336.8165,405.3519 334.3616,403.9346"/>
    <line x1="329.4518" x2="329.4518" y1="403.9346" y2="406.7692"/>
    <polyline points="329.4518,412.4385 329.4518,423.7771 324.5421,426.6117 324.5421,432.281"/>
    <polyline points="324.5421,426.6117 322.0872,425.1944 319.6323,426.6117"/>
    <polyline points="314.7226,426.6117 309.8128,423.7771 299.9933,429.4464 299.9933,435.1157 297.5385,433.6984"/>
    <polyline points="297.5385,436.533 299.9933,435.1157 304.9031,437.9503 304.9031,443.6196 299.9933,446.4543 299.9933,452.1236 309.8128,457.7929 314.7226,454.9582 314.7226,449.2889"/>
    <line x1="317.1775" x2="317.1775" y1="445.0369" y2="442.2023"/>
    <polyline points="319.6323,440.785 322.0872,442.2023 322.0872,445.0369"/>
    <polyline points="329.4518,449.2889 331.9067,450.7062 334.3616,449.2889 334.3616,443.6196 339.2713,440.785"/>
    <polyline points="344.1811,440.785 341.7262,442.2023 339.2713,440.785 339.2713,435.1157"/>
    <polyline points="341.7262,430.8637 341.7262,433.6984 339.2713,435.1157 334.3616,432.281"/>
    <polyline points="339.2713,429.4464 341.7262,428.0291 341.7262,425.1944 339.2713,423.7771"/>
    <polyline points="334.3616,426.6117 339.2713,423.7771 339.2713,418.1078 344.1811,415.2732 344.1811,412.4385 346.636,413.8558"/>
    <line x1="344.1811" x2="344.1811" y1="412.4385" y2="409.6039"/>
    <polyline points="341.7262,411.0212 344.1811,412.4385 346.636,411.0212 349.0908,412.4385 349.0908,415.2732 346.636,416.6905"/>
    <polyline points="346.636,419.5251 344.1811,420.9425 341.7262,419.5251 341.7262,416.6905 339.2713,415.2732"/>
    <polyline points="339.2713,418.1078 334.3616,415.2732 331.9067,416.6905 331.9067,419.5251"/>
    <polyline points="329.4518,423.7771 334.3616,426.6117 334.3616,432.281 331.9067,433.6984 331.9067,436.533 334.3616,437.9503 334.3616,440.785"/>
    <polyline points="312.2677,445.0369 312.2677,442.2023 309.8128,440.785"/>
    <polyline points="309.8128,446.4543 309.8128,452.1236 312.2677,453.5409 312.2677,456.3755"/>
    <line x1="309.8128" x2="309.8128" y1="457.7929" y2="463.4621"/>
    <polyline points="307.358,462.0448 307.358,459.2102 304.9031,457.7929 304.9031,454.9582"/>
    <polyline points="309.8128,454.9582 307.358,453.5409 304.9031,454.9582 299.9933,452.1236 290.1738,457.7929 280.3543,452.1236 270.5348,457.7929 260.7153,452.1236 260.7153,440.785"/>
    <polygon points="260.4319,440.294 260.2244,441.0684 260.9988,441.276 280.6378,429.9374 280.8453,429.1629 280.0709,428.9554"/>
    <line x1="258.2605" x2="255.8056" y1="439.3677" y2="437.9503"/>
    <polyline points="255.8056,435.1157 255.8056,437.9503 250.8958,440.785"/>
    <line x1="248.441" x2="248.441" y1="445.0369" y2="447.8716"/>
    <polyline points="245.9861,443.6196 248.441,445.0369 250.8958,443.6196 250.8958,440.785 245.9861,437.9503 241.0763,440.785 241.0763,452.1236 250.8958,457.7929"/>
    <polyline points="253.3507,456.3755 253.3507,459.2102 255.8056,460.6275"/>
    <polyline points="260.7153,460.6275 258.2605,459.2102 255.8056,460.6275 255.8056,463.4621 253.3507,464.8795"/>
    <polyline points="253.3507,467.7141 255.8056,469.1314 255.8056,471.9661 258.2605,473.3834 258.2605,476.218"/>
    <line x1="255.8056" x2="253.3507" y1="474.8007" y2="476.218"/>
    <polyline points="248.441,479.0527 248.441,476.218 250.8958,474.8007 253.3507,476.218 253.3507,479.0527 255.8056,480.47 255.8056,483.3047 258.2605,484.722"/>
    <polyline points="260.7153,483.3047 263.1702,484.722 265.6251,483.3047 268.08,484.722 270.5348,483.3047"/>
    <line x1="265.6251" x2="265.6251" y1="483.3047" y2="480.47"/>
    <polyline points="265.6251,477.6354 268.08,479.0527 270.5348,477.6354 270.5348,474.8007"/>
    <polyline points="270.5348,477.6354 272.9897,479.0527 275.4446,477.6354 280.3543,480.47 280.3543,486.1393"/>
    <line x1="275.4446" x2="275.4446" y1="477.6354" y2="471.9661"/>
    <polyline points="280.3543,469.1314 282.8092,470.5488 282.8092,473.3834"/>
    <polyline points="285.2641,469.1314 285.2641,466.2968 282.8092,464.8795"/>
    <polyline points="280.3543,466.2968 277.8995,464.8795 275.4446,466.2968"/>
    <polyline points="270.5348,469.1314 265.6251,471.9661 265.6251,477.6354 260.7153,480.47 260.7153,483.3047 258.2605,484.722 258.2605,487.5566 260.7153,488.974 260.7153,491.8086 258.2605,493.2259"/>
    <line x1="260.7153" x2="263.1702" y1="488.974" y2="487.5566"/>
    <line x1="260.7153" x2="258.2605" y1="480.47" y2="479.0527"/>
    <polyline points="265.6251,471.9661 263.1702,470.5488 260.7153,471.9661 258.2605,470.5488 258.2605,467.7141"/>
    <polyline points="250.8958,463.4621 253.3507,464.8795 253.3507,467.7141 250.8958,469.1314 248.441,467.7141 248.441,464.8795"/>
    <polyline points="245.9861,466.2968 245.9861,469.1314 243.5312,470.5488 241.0763,469.1314 241.0763,466.2968"/>
    <polyline points="243.5312,464.8795 245.9861,466.2968 250.8958,463.4621 250.8958,457.7929 260.7153,452.1236"/>
    <polyline points="263.1702,445.0369 265.6251,443.6196 265.6251,437.9503"/>
    <polyline points="265.6251,432.281 263.1702,433.6984 263.1702,436.533 265.6251,437.9503 270.5348,435.1157 280.3543,440.785 280.3543,452.1236"/>
    <polyline points="285.2641,454.9582 290.1738,452.1236 290.1738,446.4543 295.0836,443.6196"/>
    <polyline points="297.5385,439.3677 295.0836,437.9503 295.0836,435.1157 297.5385,433.6984 297.5385,430.8637 295.0836,429.4464"/>
    <polyline points="292.6287,430.8637 295.0836,429.4464 295.0836,426.6117"/>
    <polyline points="297.5385,425.1944 299.9933,426.6117 302.4482,425.1944 302.4482,422.3598 304.9031,420.9425 307.358,422.3598"/>
    <polyline points="299.9933,423.7771 299.9933,418.1078 297.5385,416.6905 299.9933,415.2732 302.4482,416.6905"/>
    <polyline points="292.6287,422.3598 292.6287,419.5251 290.1738,418.1078 290.1738,423.7771 285.2641,426.6117 285.2641,429.4464"/>
    <polyline points="287.719,425.1944 285.2641,423.7771 285.2641,420.9425 290.1738,418.1078 290.1738,412.4385 299.9933,406.7692 309.8128,412.4385 319.6323,406.7692 329.4518,412.4385 339.2713,406.7692 339.2713,401.0999 341.7262,399.6826 344.1811,401.0999 346.636,399.6826 349.0908,401.0999 351.5457,399.6826 351.5457,396.848 354.0006,395.4306"/>
    <polyline points="354.0006,398.2653 356.4555,399.6826 356.4555,402.5173 354.0006,403.9346 354.0006,406.7692 351.5457,408.1866 351.5457,411.0212 349.0908,412.4385"/>
    <line x1="351.5457" x2="349.0908" y1="408.1866" y2="406.7692"/>
    <polyline points="349.0908,401.0999 349.0908,406.7692 344.1811,409.6039 339.2713,406.7692"/>
    <polyline points="339.2713,401.0999 334.3616,398.2653 334.3616,395.4306 331.9067,394.0133"/>
    <polyline points="334.3616,395.4306 336.8165,394.0133 336.8165,391.1787"/>
    <line x1="334.3616" x2="331.9067" y1="398.2653" y2="399.6826"/>
    <polygon points="320.1993,406.7692 320.1993,384.0921 319.6323,383.5251 319.0654,384.0921 319.0654,406.7692 319.6323,407.3362"/>
    <line x1="324.5421" x2="326.997" y1="415.2732" y2="416.6905"/>
    <polyline points="334.3616,415.2732 334.3616,409.6039 336.8165,408.1866 339.2713,409.6039 339.2713,412.4385 341.7262,413.8558"/>
    <polyline points="344.1811,415.2732 346.636,416.6905 346.636,419.5251 349.0908,420.9425"/>
    <polyline points="368.7298,395.4306 368.7298,389.7614 378.5493,384.0921"/>
    <polyline points="388.3688,389.7614 388.3688,401.0999 398.1883,406.7692 408.0078,401.0999 408.0078,395.4306 412.9176,392.596 417.8273,395.4306 420.2822,394.0133 422.7371,395.4306"/>
    <line x1="427.6468" x2="437.4663" y1="389.7614" y2="384.0921"/>
    <polyline points="442.3761,398.2653 442.3761,403.9346 437.4663,406.7692 427.6468,401.0999"/>
    <polyline points="417.8273,406.7692 417.8273,418.1078 422.7371,420.9425 425.192,419.5251"/>
    <polyline points="417.8273,418.1078 408.0078,423.7771 403.0981,420.9425 398.1883,423.7771 393.2786,420.9425 388.3688,423.7771"/>
    <polyline points="408.0078,423.7771 408.0078,435.1157 417.8273,440.785"/>
    <polyline points="442.3761,420.9425 442.3761,415.2732 437.4663,412.4385 437.4663,406.7692"/>
    <line x1="442.3761" x2="444.831" y1="403.9346" y2="405.3519"/>
    <line x1="437.4663" x2="435.0115" y1="412.4385" y2="413.8558"/>
    <polyline points="410.4627,405.3519 412.9176,403.9346 417.8273,406.7692 427.6468,401.0999 427.6468,389.7614 417.8273,384.0921 417.8273,372.7535"/>
    <polygon points="418.3183,373.0369 418.1108,372.2625 398.4718,360.9239 397.6974,361.1314 397.9049,361.9059 417.5439,373.2445"/>
    <polygon points="418.1108,373.2445 437.7498,361.9059 437.9573,361.1314 437.1829,360.9239 417.5439,372.2625 417.3364,373.0369"/>
    <polyline points="412.9176,378.4228 410.4627,377.0054 408.0078,378.4228 408.0078,384.0921"/>
    <line x1="403.0981" x2="403.0981" y1="386.9267" y2="389.7614"/>
    <line x1="400.6432" x2="398.1883" y1="385.5094" y2="386.9267"/>
    <polyline points="393.2786,386.9267 388.3688,389.7614 378.5493,384.0921 378.5493,372.7535"/>
    <polyline points="381.0042,365.6669 378.5493,364.2495 378.5493,361.4149 373.6396,358.5803"/>
    <polyline points="378.5493,358.5803 376.0945,357.1629 376.0945,354.3283 373.6396,352.911 368.7298,355.7456 358.9103,350.0763"/>
    <polyline points="366.275,348.659 368.7298,350.0763 371.1847,348.659 373.6396,350.0763 373.6396,358.5803 371.1847,359.9976 371.1847,362.8322"/>
    <line x1="373.6396" x2="368.7298" y1="364.2495" y2="361.4149"/>
    <polyline points="363.8201,364.2495 368.7298,361.4149 368.7298,355.7456"/>
    <polyline points="371.1847,351.4936 373.6396,352.911 378.5493,350.0763 378.5493,338.7377"/>
    <polyline points="381.0042,328.8165 381.0042,325.9818 378.5493,324.5645 378.5493,321.7299"/>
    <polyline points="381.0042,317.4779 381.0042,320.3125 378.5493,321.7299 373.6396,318.8952 368.7298,321.7299 368.7298,333.0684 358.9103,338.7377 358.9103,350.0763 349.0908,355.7456 344.1811,352.911 344.1811,350.0763"/>
    <line x1="339.2713" x2="339.2713" y1="350.0763" y2="338.7377"/>
    <polyline points="334.3616,335.9031 329.4518,338.7377 329.4518,341.5724 326.997,342.9897"/>
    <polyline points="324.5421,347.2417 329.4518,344.407 329.4518,333.0684"/>
    <line x1="326.997" x2="329.4518" y1="337.3204" y2="338.7377"/>
    <polyline points="324.5421,338.7377 324.5421,335.9031 322.0872,334.4858 322.0872,331.6511 324.5421,330.2338 329.4518,333.0684 339.2713,327.3991"/>
    <polygon points="339.5548,326.9082 338.7804,327.1157 338.9879,327.8901 358.6269,339.2287 359.4013,339.0212 359.1938,338.2468"/>
    <line x1="344.1811" x2="349.0908" y1="324.5645" y2="327.3991"/>
    <line x1="351.5457" x2="351.5457" y1="325.9818" y2="323.1472"/>
    <polyline points="356.4555,320.3125 358.9103,318.8952 361.3652,320.3125 363.8201,318.8952"/>
    <polyline points="368.7298,321.7299 363.8201,318.8952 363.8201,313.2259 361.3652,311.8086 361.3652,308.974 363.8201,307.5566 363.8201,304.722 366.275,303.3047"/>
    <line x1="363.8201" x2="361.3652" y1="304.722" y2="303.3047"/>
    <polyline points="358.9103,304.722 358.9103,310.3913 356.4555,311.8086"/>
    <polyline points="358.9103,316.0606 358.9103,321.7299 361.3652,323.1472 361.3652,325.9818 358.9103,327.3991 358.9103,330.2338"/>
    <polyline points="356.4555,325.9818 354.0006,327.3991 351.5457,325.9818 349.0908,327.3991 349.0908,333.0684 358.9103,338.7377"/>
    <polygon points="358.9103,338.1708 358.3434,338.7377 358.3434,361.4149 358.9103,361.9818 359.4773,361.4149 359.4773,338.7377"/>
    <polyline points="368.7298,333.0684 378.5493,338.7377 388.3688,333.0684 393.2786,335.9031 393.2786,338.7377 395.7335,340.1551"/>
    <line x1="393.2786" x2="390.8237" y1="338.7377" y2="340.1551"/>
    <polyline points="393.2786,335.9031 398.1883,333.0684 400.6432,334.4858 403.0981,333.0684"/>
    <polyline points="400.6432,337.3204 403.0981,335.9031 408.0078,338.7377 412.9176,335.9031 417.8273,338.7377 427.6468,333.0684 437.4663,338.7377"/>
    <line x1="442.3761" x2="439.9212" y1="330.2338" y2="328.8165"/>
    <polyline points="442.3761,324.5645 447.2858,327.3991 447.2858,330.2338"/>
    <polyline points="442.3761,318.8952 442.3761,324.5645 439.9212,325.9818 439.9212,328.8165 437.4663,330.2338 435.0115,328.8165"/>
    <polyline points="427.6468,333.0684 427.6468,321.7299 437.4663,316.0606 442.3761,318.8952 447.2858,316.0606 452.1956,318.8952 457.1053,316.0606"/>
    <polyline points="437.4663,316.0606 437.4663,304.722 427.6468,299.0527 417.8273,304.722 408.0078,299.0527 408.0078,293.3834 405.553,291.9661"/>
    <polyline points="405.553,294.8007 403.0981,296.218 398.1883,293.3834"/>
    <line x1="408.0078" x2="410.4627" y1="293.3834" y2="291.9661"/>
    <polyline points="405.553,286.2968 408.0078,284.8795 408.0078,282.0448 403.0981,279.2102 398.1883,282.0448"/>
    <polyline points="393.2786,279.2102 398.1883,282.0448 398.1883,293.3834 388.3688,299.0527"/>
    <polyline points="393.2786,301.8873 398.1883,304.722 398.1883,310.3913 393.2786,313.2259 393.2786,324.5645 398.1883,327.3991"/>
    <polyline points="398.1883,333.0684 398.1883,327.3991 403.0981,324.5645"/>
    <polyline points="400.6432,317.4779 398.1883,318.8952 395.7335,317.4779 393.2786,318.8952 390.8237,317.4779"/>
    <polyline points="393.2786,318.8952 388.3688,321.7299 388.3688,333.0684"/>
    <polygon points="378.8328,327.8901 379.0403,327.1157 378.2659,326.9082 358.6269,338.2468 358.4194,339.0212 359.1938,339.2287"/>
    <polyline points="378.5493,327.3991 378.5493,316.0606 368.7298,310.3913 358.9103,316.0606 349.0908,310.3913"/>
    <polyline points="349.0908,299.0527 349.0908,293.3834 346.636,291.9661 346.636,289.1314 344.1811,287.7141 344.1811,284.8795"/>
    <line x1="349.0908" x2="351.5457" y1="293.3834" y2="291.9661"/>
    <polyline points="358.9103,287.7141 358.9103,282.0448 368.7298,276.3755"/>
    <line x1="368.7298" x2="358.9103" y1="265.0369" y2="259.3677"/>
    <polygon points="339.5548,259.8586 339.7623,259.0842 338.9879,258.8767 319.3489,270.2153 319.1414,270.9897 319.9158,271.1972"/>
    <polygon points="319.9158,270.2153 300.2768,258.8767 299.5024,259.0842 299.7099,259.8586 319.3489,271.1972 320.1233,270.9897"/>
    <polygon points="319.0654,270.7062 319.0654,293.3834 319.6323,293.9503 320.1993,293.3834 320.1993,270.7062 319.6323,270.1393"/>
    <polyline points="307.358,283.4621 309.8128,284.8795 309.8128,287.7141"/>
    <polyline points="312.2677,291.9661 312.2677,289.1314 309.8128,287.7141 304.9031,290.5488 304.9031,296.218 309.8128,299.0527 319.6323,293.3834"/>
    <polygon points="319.1414,293.0999 319.3489,293.8744 338.9879,305.213 339.7623,305.0054 339.5548,304.231 319.9158,292.8924"/>
    <polyline points="309.8128,299.0527 309.8128,310.3913 304.9031,313.2259 304.9031,316.0606 302.4482,317.4779 302.4482,320.3125 299.9933,321.7299 299.9933,324.5645 302.4482,325.9818"/>
    <polyline points="304.9031,324.5645 304.9031,318.8952 309.8128,316.0606 309.8128,313.2259 307.358,311.8086"/>
    <line x1="304.9031" x2="302.4482" y1="313.2259" y2="311.8086"/>
    <polyline points="299.9933,307.5566 297.5385,306.1393 297.5385,303.3047 299.9933,301.8873 299.9933,299.0527"/>
    <polyline points="295.0836,299.0527 292.6287,300.47 292.6287,303.3047"/>
    <line x1="290.1738" x2="290.1738" y1="304.722" y2="307.5566"/>
    <polyline points="297.5385,308.974 295.0836,307.5566 295.0836,304.722 292.6287,303.3047 290.1738,304.722 285.2641,301.8873 280.3543,304.722 280.3543,316.0606"/>
    <polyline points="275.4446,318.8952 275.4446,324.5645 277.8995,325.9818"/>
    <polyline points="275.4446,324.5645 272.9897,325.9818 272.9897,328.8165"/>
    <polyline points="270.5348,327.3991 272.9897,325.9818 275.4446,327.3991 275.4446,330.2338 277.8995,331.6511"/>
    <polyline points="275.4446,330.2338 272.9897,331.6511 272.9897,334.4858"/>
    <polyline points="270.5348,333.0684 270.5348,327.3991 265.6251,324.5645 263.1702,325.9818 263.1702,323.1472 265.6251,321.7299"/>
    <line x1="265.6251" x2="265.6251" y1="318.8952" y2="324.5645"/>
    <polyline points="265.6251,327.3991 260.7153,324.5645 258.2605,325.9818 258.2605,328.8165 255.8056,330.2338 253.3507,328.8165"/>
    <polyline points="253.3507,325.9818 255.8056,324.5645 260.7153,327.3991 260.7153,333.0684 265.6251,335.9031 270.5348,333.0684 280.3543,338.7377 290.1738,333.0684 295.0836,335.9031 299.9933,333.0684 302.4482,334.4858 302.4482,337.3204 299.9933,338.7377"/>
    <polyline points="299.9933,341.5724 297.5385,342.9897 295.0836,341.5724"/>
    <polyline points="292.6287,342.9897 290.1738,341.5724 287.719,342.9897"/>
    <line x1="287.719" x2="290.1738" y1="345.8243" y2="347.2417"/>
    <polyline points="287.719,351.4936 290.1738,350.0763 290.1738,347.2417 292.6287,345.8243 292.6287,342.9897 295.0836,341.5724 295.0836,335.9031"/>
    <polyline points="290.1738,333.0684 290.1738,321.7299 299.9933,316.0606 299.9933,304.722 295.0836,301.8873"/>
    <polyline points="299.9933,304.722 304.9031,301.8873 307.358,303.3047 307.358,306.1393"/>
    <line x1="309.8128" x2="314.7226" y1="310.3913" y2="313.2259"/>
    <line x1="312.2677" x2="309.8128" y1="311.8086" y2="313.2259"/>
    <line x1="304.9031" x2="299.9933" y1="318.8952" y2="316.0606"/>
    <line x1="297.5385" x2="299.9933" y1="325.9818" y2="327.3991"/>
    <polyline points="299.9933,333.0684 299.9933,327.3991 304.9031,324.5645 307.358,325.9818 309.8128,324.5645"/>
    <polyline points="307.358,325.9818 307.358,328.8165 309.8128,330.2338"/>
    <polyline points="307.358,328.8165 304.9031,330.2338 304.9031,333.0684 307.358,334.4858 307.358,337.3204 309.8128,338.7377 309.8128,341.5724"/>
    <line x1="304.9031" x2="302.4482" y1="338.7377" y2="337.3204"/>
    <polyline points="290.1738,321.7299 280.3543,316.0606 275.4446,318.8952 270.5348,316.0606 270.5348,310.3913 275.4446,307.5566 275.4446,301.8873"/>
    <polyline points="270.5348,299.0527 270.5348,293.3834 265.6251,290.5488 265.6251,284.8795"/>
    <polyline points="263.1702,300.47 265.6251,301.8873 265.6251,307.5566"/>
    <polyline points="263.1702,308.974 265.6251,307.5566 270.5348,310.3913"/>
    <polyline points="265.6251,313.2259 260.7153,310.3913 260.7153,304.722 270.5348,299.0527 280.3543,304.722"/>
    <polyline points="285.2641,301.8873 285.2641,299.0527 287.719,297.6354"/>
    <polyline points="282.8092,297.6354 285.2641,296.218 290.1738,299.0527 295.0836,296.218"/>
    <polyline points="297.5385,289.1314 297.5385,291.9661 295.0836,293.3834 295.0836,296.218 299.9933,299.0527 304.9031,296.218"/>
    <line x1="324.5421" x2="324.5421" y1="324.5645" y2="330.2338"/>
    <polyline points="326.997,328.8165 329.4518,330.2338 331.9067,328.8165 334.3616,330.2338"/>
    <polyline points="331.9067,325.9818 334.3616,324.5645 336.8165,325.9818 336.8165,328.8165 334.3616,330.2338 334.3616,335.9031 339.2713,338.7377 349.0908,333.0684"/>
    <line x1="361.3652" x2="363.8201" y1="325.9818" y2="327.3991"/>
    <polyline points="373.6396,318.8952 373.6396,313.2259 371.1847,311.8086"/>
    <polyline points="373.6396,313.2259 376.0945,311.8086 378.5493,313.2259"/>
    <polyline points="378.5493,316.0606 383.4591,313.2259 388.3688,316.0606 388.3688,318.8952"/>
    <polyline points="388.3688,321.7299 383.4591,318.8952 383.4591,316.0606 381.0042,314.6432 381.0042,311.8086"/>
    <line x1="383.4591" x2="383.4591" y1="313.2259" y2="310.3913"/>
    <polyline points="388.3688,310.3913 390.8237,311.8086 390.8237,314.6432 388.3688,316.0606"/>
    <polyline points="395.7335,317.4779 395.7335,314.6432 398.1883,313.2259"/>
    <line x1="398.1883" x2="403.0981" y1="304.722" y2="301.8873"/>
    <polyline points="408.0078,310.3913 412.9176,313.2259 412.9176,318.8952 408.0078,321.7299 408.0078,333.0684 398.1883,338.7377"/>
    <line x1="383.4591" x2="378.5493" y1="352.911" y2="350.0763"/>
    <polyline points="381.0042,357.1629 381.0042,359.9976 378.5493,361.4149"/>
    <polygon points="360.5853,361.7102 360.3833,360.5645 359.492,359.8167 358.0599,359.942 318.7819,382.6191 318.0341,383.5104 318.1594,384.9425 319.0506,385.6903 320.4827,385.565 359.7607,362.8878"/>
    <polygon points="358.6269,360.9239 319.3489,383.6011 319.1414,384.3755 319.9158,384.583 359.1938,361.9059 359.4013,361.1314"/>
    <polygon points="358.4194,361.1314 358.6269,361.9059 378.2659,373.2445 379.0403,373.0369 378.8328,372.2625 359.1938,360.9239"/>
    <polygon points="378.0584,327.1157 378.2659,327.8901 397.9049,339.2287 398.6793,339.0212 398.4718,338.2468 378.8328,326.9082"/>
    <polyline points="368.7298,310.3913 368.7298,299.0527 378.5493,293.3834 388.3688,299.0527 388.3688,304.722"/>
    <polyline points="378.5493,293.3834 378.5493,282.0448 388.3688,276.3755"/>
    <polyline points="378.5493,282.0448 368.7298,276.3755 368.7298,265.0369 378.5493,259.3677 378.5493,253.6984 383.4591,250.8637"/>
    <polyline points="410.4627,277.7929 410.4627,280.6275 408.0078,282.0448"/>
    <line x1="417.8273" x2="427.6468" y1="316.0606" y2="321.7299"/>
    <polyline points="422.7371,318.8952 417.8273,321.7299 412.9176,318.8952"/>
    <polygon points="398.6793,361.1314 397.9049,360.9239 378.2659,372.2625 378.0584,373.0369 378.8328,373.2445 398.4718,361.9059"/>
    <polygon points="398.1883,361.9818 398.7553,361.4149 398.7553,338.7377 398.1883,338.1708 397.6214,338.7377 397.6214,361.4149"/>
    <line x1="403.0981" x2="408.0078" y1="375.5881" y2="378.4228"/>
    <polyline points="412.9176,386.9267 412.9176,389.7614 410.4627,391.1787"/>
    <line x1="412.9176" x2="415.3725" y1="389.7614" y2="391.1787"/>
    <polyline points="417.8273,384.0921 412.9176,386.9267 408.0078,384.0921 403.0981,386.9267 400.6432,385.5094 400.6432,382.6747 398.1883,381.2574"/>
    <line x1="405.553" x2="408.0078" y1="394.0133" y2="395.4306"/>
    <polygon points="437.4663,361.9818 438.0333,361.4149 438.0333,338.7377 437.4663,338.1708 436.8994,338.7377 436.8994,361.4149"/>
    <polygon points="456.8219,372.2625 456.6144,373.0369 457.3888,373.2445 477.0278,361.9059 477.2353,361.1314 476.4609,360.9239"/>
    <polygon points="457.3888,372.2625 437.7498,360.9239 436.9754,361.1314 437.1829,361.9059 456.8219,373.2445 457.5963,373.0369"/>
    <line x1="366.275" x2="363.8201" y1="311.8086" y2="313.2259"/>
    <polyline points="363.8201,299.0527 363.8201,301.8873 358.9103,304.722 349.0908,299.0527 339.2713,304.722"/>
    <polygon points="338.7044,304.722 338.7044,327.3991 339.2713,327.9661 339.8383,327.3991 339.8383,304.722 339.2713,304.1551"/>
    <line x1="334.3616" x2="334.3616" y1="321.7299" y2="324.5645"/>
    <line x1="361.3652" x2="363.8201" y1="297.6354" y2="296.218"/>
    <polyline points="368.7298,299.0527 363.8201,296.218 363.8201,293.3834 366.275,291.9661 368.7298,293.3834"/>
    <polygon points="339.7623,236.974 339.5548,236.1995 319.9158,224.8609 319.1414,225.0684 319.3489,225.8429 338.9879,237.1815"/>
    <polygon points="339.2713,236.1236 338.7044,236.6905 338.7044,259.3677 339.2713,259.9346 339.8383,259.3677 339.8383,236.6905"/>
    <polyline points="260.7153,316.0606 255.8056,318.8952 255.8056,324.5645"/>
    <polyline points="260.7153,327.3991 263.1702,325.9818 263.1702,328.8165 260.7153,330.2338"/>
    <line x1="260.7153" x2="258.2605" y1="333.0684" y2="334.4858"/>
    <polyline points="265.6251,335.9031 265.6251,341.5724 260.7153,344.407"/>
    <line x1="265.6251" x2="268.08" y1="341.5724" y2="342.9897"/>
    <polygon points="280.9213,338.7377 280.3543,338.1708 279.7874,338.7377 279.7874,361.4149 280.3543,361.9818 280.9213,361.4149"/>
    <polygon points="281.8273,360.5645 280.6497,359.7399 279.5039,359.942 240.2259,382.6191 239.4014,383.7967 239.6034,384.9425 240.4946,385.6903 241.9267,385.565 281.2047,362.8878 282.0293,361.7102"/>
    <polygon points="280.6378,361.9059 280.8453,361.1314 280.0709,360.9239 240.7929,383.6011 240.5854,384.3755 241.3598,384.583"/>
    <polygon points="278.8814,360.5645 278.7561,361.9966 279.5039,362.8878 318.7819,385.565 320.214,385.6903 321.1053,384.9425 321.3073,383.7967 320.4827,382.6191 281.2047,359.942 280.059,359.7399"/>
    <polyline points="250.8958,350.0763 248.441,348.659 245.9861,350.0763 243.5312,348.659 243.5312,345.8243 241.0763,344.407 236.1666,347.2417 231.2568,344.407 226.3471,347.2417"/>
    <polyline points="226.3471,350.0763 226.3471,347.2417 221.4373,344.407"/>
    <polyline points="218.9825,348.659 218.9825,345.8243 221.4373,344.407 221.4373,338.7377 211.6178,333.0684 201.7983,338.7377"/>
    <polygon points="201.7983,338.1708 201.2314,338.7377 201.2314,361.4149 201.7983,361.9818 202.3653,361.4149 202.3653,338.7377"/>
    <polyline points="211.6178,333.0684 211.6178,321.7299 216.5276,318.8952 218.9825,320.3125 218.9825,323.1472"/>
    <polyline points="221.4373,321.7299 218.9825,320.3125 218.9825,317.4779 221.4373,316.0606"/>
    <polyline points="218.9825,317.4779 216.5276,316.0606 214.0727,317.4779 211.6178,316.0606"/>
    <polyline points="211.6178,313.2259 209.163,311.8086 206.7081,313.2259 206.7081,318.8952 211.6178,321.7299"/>
    <line x1="216.5276" x2="216.5276" y1="318.8952" y2="316.0606"/>
    <polyline points="206.7081,318.8952 201.7983,321.7299 201.7983,324.5645 199.3435,325.9818"/>
    <line x1="201.7983" x2="204.2532" y1="324.5645" y2="325.9818"/>
    <line x1="201.7983" x2="199.3435" y1="321.7299" y2="320.3125"/>
    <line x1="199.3435" x2="199.3435" y1="314.6432" y2="311.8086"/>
    <polyline points="201.7983,310.3913 199.3435,311.8086 196.8886,310.3913 196.8886,307.5566"/>
    <line x1="201.7983" x2="206.7081" y1="304.722" y2="301.8873"/>
    <polyline points="199.3435,300.47 199.3435,303.3047 201.7983,304.722 201.7983,310.3913 206.7081,313.2259"/>
    <polyline points="211.6178,327.3991 216.5276,330.2338 221.4373,327.3991 226.3471,330.2338"/>
    <polyline points="228.802,325.9818 228.802,328.8165 226.3471,330.2338 226.3471,335.9031 221.4373,338.7377"/>
    <polyline points="226.3471,335.9031 231.2568,338.7377 236.1666,335.9031 241.0763,338.7377 243.5312,337.3204 243.5312,334.4858"/>
    <polyline points="243.5312,337.3204 245.9861,338.7377 248.441,337.3204"/>
    <line x1="241.0763" x2="241.0763" y1="338.7377" y2="341.5724"/>
    <polyline points="241.0763,344.407 241.0763,341.5724 238.6215,342.9897 238.6215,345.8243"/>
    <polyline points="236.1666,347.2417 236.1666,350.0763 238.6215,351.4936 238.6215,354.3283 241.0763,355.7456 243.5312,354.3283"/>
    <polyline points="233.7117,342.9897 231.2568,341.5724 231.2568,338.7377"/>
    <line x1="236.1666" x2="236.1666" y1="335.9031" y2="333.0684"/>
    <polyline points="228.802,320.3125 226.3471,318.8952 221.4373,321.7299 221.4373,327.3991"/>
    <line x1="216.5276" x2="216.5276" y1="330.2338" y2="333.0684"/>
    <polygon points="202.0818,360.9239 201.3074,361.1314 201.5149,361.9059 240.7929,384.583 241.5673,384.3755 241.3598,383.6011"/>
    <polyline points="196.8886,378.4228 194.4337,379.8401 194.4337,382.6747 196.8886,384.0921 196.8886,386.9267"/>
    <line x1="196.8886" x2="199.3435" y1="384.0921" y2="382.6747"/>
    <polyline points="196.8886,381.2574 191.9788,384.0921 187.0691,381.2574 177.2496,386.9267 177.2496,392.596 179.7045,394.0133 182.1593,392.596"/>
    <polyline points="182.1593,395.4306 182.1593,384.0921 187.0691,386.9267 189.524,385.5094 191.9788,386.9267"/>
    <line x1="191.9788" x2="191.9788" y1="389.7614" y2="392.596"/>
    <line x1="189.524" x2="187.0691" y1="394.0133" y2="392.596"/>
    <polyline points="189.524,388.344 191.9788,389.7614 196.8886,386.9267 201.7983,389.7614"/>
    <line x1="201.7983" x2="206.7081" y1="395.4306" y2="398.2653"/>
    <line x1="206.7081" x2="206.7081" y1="409.6039" y2="415.2732"/>
    <polyline points="209.163,416.6905 206.7081,415.2732 201.7983,418.1078"/>
    <line x1="201.7983" x2="206.7081" y1="423.7771" y2="426.6117"/>
    <polyline points="194.4337,425.1944 196.8886,426.6117 201.7983,423.7771 201.7983,418.1078 191.9788,412.4385"/>
    <polyline points="191.9788,401.0999 182.1593,395.4306 172.3398,401.0999 162.5203,395.4306"/>
    <polyline points="167.4301,395.4306 169.885,394.0133 172.3398,395.4306"/>
    <polyline points="172.3398,398.2653 172.3398,395.4306 177.2496,392.596"/>
    <polyline points="177.2496,386.9267 174.7947,385.5094 174.7947,382.6747 177.2496,381.2574"/>
    <polyline points="174.7947,385.5094 172.3398,386.9267 169.885,385.5094"/>
    <polyline points="172.3398,386.9267 172.3398,389.7614 169.885,391.1787"/>
    <polyline points="172.3398,389.7614 174.7947,391.1787 177.2496,389.7614 179.7045,391.1787 182.1593,389.7614 182.1593,386.9267 184.6142,385.5094"/>
    <polyline points="187.0691,386.9267 187.0691,392.596 184.6142,394.0133 184.6142,396.848 187.0691,398.2653 189.524,396.848"/>
    <line x1="177.2496" x2="172.3398" y1="403.9346" y2="406.7692"/>
    <polyline points="169.885,405.3519 172.3398,406.7692 172.3398,412.4385"/>
    <polyline points="162.5203,418.1078 162.5203,423.7771 160.0655,425.1944 160.0655,428.0291"/>
    <polyline points="160.0655,425.1944 157.6106,423.7771 157.6106,420.9425"/>
    <polyline points="152.7008,412.4385 162.5203,418.1078 172.3398,412.4385 182.1593,418.1078 191.9788,412.4385 191.9788,401.0999 201.7983,395.4306 201.7983,389.7614 206.7081,386.9267 206.7081,381.2574"/>
    <line x1="194.4337" x2="191.9788" y1="379.8401" y2="378.4228"/>
    <polyline points="189.524,374.1708 187.0691,375.5881 187.0691,381.2574"/>
    <polyline points="187.0691,375.5881 182.1593,372.7535 182.1593,367.0842 177.2496,364.2495 174.7947,365.6669"/>
    <polyline points="177.2496,364.2495 177.2496,361.4149 174.7947,359.9976"/>
    <polyline points="172.3398,352.911 174.7947,354.3283 177.2496,352.911"/>
    <polyline points="172.3398,350.0763 172.3398,352.911 169.885,354.3283"/>
    <polyline points="167.4301,347.2417 172.3398,350.0763 177.2496,347.2417"/>
    <polyline points="177.2496,341.5724 172.3398,338.7377 172.3398,333.0684"/>
    <polyline points="167.4301,330.2338 162.5203,333.0684 162.5203,338.7377 157.6106,341.5724 157.6106,347.2417 155.1557,348.659 155.1557,351.4936"/>
    <polyline points="155.1557,348.659 152.7008,347.2417 152.7008,344.407"/>
    <polyline points="150.246,342.9897 152.7008,344.407 155.1557,342.9897 157.6106,344.407"/>
    <polyline points="157.6106,347.2417 162.5203,350.0763 162.5203,361.4149"/>
    <polyline points="167.4301,364.2495 172.3398,367.0842 172.3398,378.4228 182.1593,384.0921 182.1593,372.7535"/>
    <polygon points="181.6684,373.0369 182.4428,373.2445 202.0818,361.9059 202.2893,361.1314 201.5149,360.9239 181.8759,372.2625"/>
    <polygon points="182.4428,372.2625 162.8038,360.9239 162.0294,361.1314 162.2369,361.9059 181.8759,373.2445 182.6503,373.0369"/>
    <polyline points="162.5203,350.0763 167.4301,347.2417 167.4301,344.407"/>
    <line x1="167.4301" x2="172.3398" y1="341.5724" y2="338.7377"/>
    <polyline points="162.5203,333.0684 157.6106,330.2338 152.7008,333.0684 150.246,331.6511"/>
    <line x1="152.7008" x2="152.7008" y1="333.0684" y2="335.9031"/>
    <line x1="152.7008" x2="155.1557" y1="338.7377" y2="340.1551"/>
    <polyline points="157.6106,338.7377 155.1557,340.1551 155.1557,342.9897"/>
    <polyline points="160.0655,340.1551 160.0655,342.9897 157.6106,344.407 157.6106,347.2417 160.0655,348.659"/>
    <polyline points="167.4301,327.3991 167.4301,330.2338 172.3398,333.0684 182.1593,327.3991"/>
    <polygon points="181.8759,327.8901 201.5149,339.2287 202.2893,339.0212 202.0818,338.2468 182.4428,326.9082 181.6684,327.1157"/>
    <polygon points="181.8759,305.213 182.6503,305.0054 182.4428,304.231 162.8038,292.8924 162.0294,293.0999 162.2369,293.8744"/>
    <polygon points="181.8759,304.231 181.6684,305.0054 182.4428,305.213 202.0818,293.8744 202.2893,293.0999 201.5149,292.8924"/>
    <polygon points="182.7263,304.722 182.1593,304.1551 181.5924,304.722 181.5924,327.3991 182.1593,327.9661 182.7263,327.3991"/>
    <polyline points="187.0691,287.7141 184.6142,289.1314 182.1593,287.7141 182.1593,282.0448 172.3398,276.3755 162.5203,282.0448"/>
    <polyline points="157.6106,279.2102 157.6106,273.5409 155.1557,272.1236"/>
    <polyline points="152.7008,265.0369 162.5203,259.3677 172.3398,265.0369 172.3398,276.3755"/>
    <polyline points="152.7008,282.0448 152.7008,287.7141 155.1557,289.1314 155.1557,291.9661"/>
    <line x1="152.7008" x2="150.246" y1="287.7141" y2="289.1314"/>
    <polyline points="145.3362,280.6275 147.7911,279.2102 152.7008,282.0448 157.6106,279.2102 162.5203,282.0448 162.5203,293.3834 152.7008,299.0527 152.7008,304.722 157.6106,307.5566"/>
    <line x1="147.7911" x2="147.7911" y1="279.2102" y2="276.3755"/>
    <polyline points="115.8777,323.1472 115.8777,325.9818 113.4228,327.3991 113.4228,333.0684 123.2423,338.7377 133.0618,333.0684"/>
    <polyline points="113.4228,327.3991 108.5131,324.5645 103.6033,327.3991 103.6033,333.0684"/>
    <line x1="103.6033" x2="98.6936" y1="327.3991" y2="324.5645"/>
    <polygon points="122.6754,361.4149 123.2423,361.9818 123.8093,361.4149 123.8093,338.7377 123.2423,338.1708 122.6754,338.7377"/>
    <line x1="123.2423" x2="113.4228" y1="361.4149" y2="367.0842"/>
    <polyline points="123.2423,384.0921 123.2423,395.4306 133.0618,401.0999 142.8813,395.4306"/>
    <polygon points="142.3144,395.4306 142.8813,395.9976 143.4483,395.4306 143.4483,372.7535 142.8813,372.1866 142.3144,372.7535"/>
    <polygon points="143.1648,394.9397 142.3904,395.1472 142.5979,395.9216 162.2369,407.2602 163.0113,407.0527 162.8038,406.2783"/>
    <polyline points="133.0618,401.0999 133.0618,412.4385 142.8813,418.1078 147.7911,415.2732"/>
    <polyline points="147.7911,432.281 152.7008,435.1157 152.7008,440.785"/>
    <line x1="157.6106" x2="157.6106" y1="443.6196" y2="446.4543"/>
    <polyline points="162.5203,440.785 157.6106,443.6196 152.7008,440.785 147.7911,443.6196"/>
    <line x1="152.7008" x2="157.6106" y1="435.1157" y2="432.281"/>
    <polyline points="162.5203,435.1157 162.5203,440.785 172.3398,446.4543 182.1593,440.785"/>
    <polygon points="182.1593,441.3519 182.7263,440.785 182.7263,418.1078 182.1593,417.5409 181.5924,418.1078 181.5924,440.785"/>
    <polyline points="172.3398,446.4543 172.3398,457.7929 182.1593,463.4621 187.0691,460.6275 187.0691,457.7929"/>
    <line x1="187.0691" x2="191.9788" y1="460.6275" y2="463.4621"/>
    <line x1="187.0691" x2="182.1593" y1="471.9661" y2="469.1314"/>
    <line x1="179.7045" x2="179.7045" y1="470.5488" y2="473.3834"/>
    <polyline points="177.2496,469.1314 179.7045,470.5488 182.1593,469.1314 182.1593,463.4621"/>
    <polyline points="172.3398,463.4621 172.3398,469.1314 162.5203,474.8007 152.7008,469.1314 152.7008,463.4621 150.246,462.0448"/>
    <line x1="152.7008" x2="157.6106" y1="463.4621" y2="460.6275"/>
    <polyline points="152.7008,457.7929 162.5203,463.4621 172.3398,457.7929"/>
    <polyline points="172.3398,469.1314 177.2496,471.9661 177.2496,477.6354 179.7045,479.0527"/>
    <polygon points="161.9534,474.8007 161.9534,497.4779 162.5203,498.0448 163.0873,497.4779 163.0873,474.8007 162.5203,474.2338"/>
    <polygon points="143.1648,509.3074 162.8038,497.9689 163.0113,497.1944 162.2369,496.9869 142.5979,508.3255 142.3904,509.0999"/>
    <polyline points="142.8813,520.1551 142.8813,508.8165 133.0618,503.1472 123.2423,508.8165 123.2423,514.4858 118.3326,517.3204 118.3326,520.1551"/>
    <line x1="123.2423" x2="113.4228" y1="508.8165" y2="503.1472"/>
    <polyline points="182.1593,508.8165 182.1593,520.1551 191.9788,525.8243"/>
    <polygon points="182.6503,509.0999 182.4428,508.3255 162.8038,496.9869 162.0294,497.1944 162.2369,497.9689 181.8759,509.3074"/>
    <polygon points="201.7983,499.1787 203.1012,498.5711 203.4991,497.4779 203.4991,452.1236 203.1012,451.0303 201.7983,450.4228 200.7051,450.8207 200.0975,452.1236 200.0975,497.4779 200.7051,498.7808"/>
    <polygon points="201.5149,497.9689 240.7929,520.646 241.5673,520.4385 241.3598,519.6641 202.0818,496.9869 201.3074,497.1944"/>
    <polygon points="202.2893,497.1944 201.5149,496.9869 181.8759,508.3255 181.6684,509.0999 182.4428,509.3074 202.0818,497.9689"/>
    <polyline points="231.2568,480.47 226.3471,477.6354 226.3471,471.9661 231.2568,469.1314 231.2568,457.7929"/>
    <polyline points="221.4373,460.6275 218.9825,462.0448 216.5276,460.6275"/>
    <polyline points="214.0727,464.8795 214.0727,462.0448 216.5276,460.6275 216.5276,454.9582 221.4373,452.1236"/>
    <polyline points="216.5276,454.9582 211.6178,452.1236 206.7081,454.9582 206.7081,457.7929"/>
    <polygon points="202.0818,452.6145 241.3598,429.9374 241.5673,429.1629 240.7929,428.9554 201.5149,451.6326 201.3074,452.407"/>
    <polygon points="201.5149,452.6145 202.2893,452.407 202.0818,451.6326 182.4428,440.294 181.6684,440.5015 181.8759,441.276"/>
    <polygon points="201.7983,451.5566 201.2314,452.1236 201.2314,497.4779 201.7983,498.0448 202.3653,497.4779 202.3653,452.1236"/>
    <polyline points="216.5276,446.4543 214.0727,445.0369 214.0727,442.2023 216.5276,440.785 218.9825,442.2023 218.9825,445.0369 221.4373,446.4543 221.4373,452.1236 231.2568,457.7929 241.0763,452.1236"/>
    <polyline points="241.0763,440.785 231.2568,435.1157 231.2568,423.7771 221.4373,418.1078 221.4373,412.4385 223.8922,411.0212 226.3471,412.4385"/>
    <polygon points="241.3717,427.7714 240.2259,427.9735 200.9479,450.6506 200.1234,451.8282 200.3254,452.974 201.503,453.7985 202.6487,453.5965 241.9267,430.9193 242.6745,430.0281 242.5493,428.596"/>
    <polygon points="241.3598,428.9554 240.5854,429.1629 240.7929,429.9374 260.4319,441.276 261.2063,441.0684 260.9988,440.294"/>
    <polygon points="239.9831,430.7493 241.0763,431.1472 242.1696,430.7493 242.7771,429.4464 242.7771,384.0921 242.3792,382.9988 241.0763,382.3913 239.9831,382.7892 239.3755,384.0921 239.3755,429.4464"/>
    <line x1="245.9861" x2="250.8958" y1="432.281" y2="429.4464"/>
    <polyline points="245.9861,426.6117 243.5312,428.0291 243.5312,430.8637 245.9861,432.281 245.9861,437.9503"/>
    <polyline points="231.2568,435.1157 221.4373,440.785 221.4373,446.4543 223.8922,445.0369"/>
    <polyline points="231.2568,469.1314 241.0763,474.8007 241.0763,480.47 236.1666,483.3047 236.1666,488.974 241.0763,491.8086 243.5312,490.3913"/>
    <polyline points="241.0763,491.8086 241.0763,497.4779 243.5312,498.8952 245.9861,497.4779"/>
    <polyline points="236.1666,497.4779 236.1666,494.6432 233.7117,493.2259 233.7117,490.3913 236.1666,488.974"/>
    <line x1="241.0763" x2="245.9861" y1="474.8007" y2="471.9661"/>
    <polyline points="270.5348,457.7929 270.5348,469.1314 275.4446,471.9661 280.3543,469.1314 280.3543,466.2968 282.8092,464.8795 282.8092,462.0448 285.2641,460.6275 287.719,462.0448 287.719,464.8795 290.1738,466.2968 290.1738,469.1314"/>
    <polyline points="287.719,464.8795 290.1738,463.4621 290.1738,457.7929"/>
    <polyline points="292.6287,456.3755 292.6287,453.5409 290.1738,452.1236"/>
    <line x1="290.1738" x2="285.2641" y1="446.4543" y2="443.6196"/>
    <polyline points="287.719,439.3677 285.2641,437.9503 280.3543,440.785"/>
    <polyline points="285.2641,437.9503 285.2641,432.281 290.1738,429.4464"/>
    <polyline points="290.1738,435.1157 292.6287,436.533 292.6287,439.3677 295.0836,440.785 295.0836,443.6196 299.9933,446.4543"/>
    <polygon points="299.5024,441.0684 300.2768,441.276 319.9158,429.9374 320.1233,429.1629 319.3489,428.9554 299.7099,440.294"/>
    <line x1="299.9933" x2="299.9933" y1="440.785" y2="452.1236"/>
    <polyline points="297.5385,464.8795 295.0836,466.2968 290.1738,463.4621"/>
    <polyline points="295.0836,466.2968 295.0836,469.1314 297.5385,470.5488"/>
    <polyline points="317.1775,459.2102 317.1775,456.3755 314.7226,454.9582"/>
    <polyline points="309.8128,429.4464 307.358,430.8637 304.9031,429.4464 304.9031,426.6117 299.9933,423.7771 295.0836,426.6117 290.1738,423.7771"/>
    <polyline points="285.2641,415.2732 290.1738,418.1078 295.0836,415.2732 295.0836,412.4385 292.6287,411.0212 292.6287,408.1866 290.1738,406.7692 287.719,408.1866"/>
    <polyline points="285.2641,406.7692 285.2641,409.6039 290.1738,412.4385"/>
    <polyline points="282.8092,411.0212 285.2641,409.6039 280.3543,406.7692 277.8995,408.1866 277.8995,411.0212 280.3543,412.4385 280.3543,415.2732 277.8995,416.6905"/>
    <polyline points="287.719,405.3519 287.719,408.1866 285.2641,409.6039 285.2641,415.2732 270.5348,423.7771 270.5348,435.1157"/>
    <line x1="295.0836" x2="295.0836" y1="398.2653" y2="395.4306"/>
    <polyline points="299.9933,401.0999 304.9031,398.2653 307.358,399.6826"/>
    <line x1="304.9031" x2="304.9031" y1="398.2653" y2="392.596"/>
    <polygon points="319.9158,383.6011 280.6378,360.9239 279.8634,361.1314 280.0709,361.9059 319.3489,384.583 320.1233,384.3755"/>
    <polygon points="299.5024,508.533 299.7099,509.3074 319.3489,520.646 320.1233,520.4385 319.9158,519.6641 300.2768,508.3255"/>
    <polygon points="280.6378,520.646 300.2768,509.3074 300.4843,508.533 299.7099,508.3255 280.0709,519.6641 279.8634,520.4385"/>
    <polygon points="260.9988,509.3074 261.2063,508.533 260.4319,508.3255 240.7929,519.6641 240.5854,520.4385 241.3598,520.646"/>
    <line x1="260.7153" x2="260.7153" y1="508.8165" y2="497.4779"/>
    <polygon points="260.9988,508.3255 260.2244,508.533 260.4319,509.3074 280.0709,520.646 280.8453,520.4385 280.6378,519.6641"/>
    <polygon points="240.2259,521.628 241.3717,521.83 242.5493,521.0054 242.6745,519.5734 241.9267,518.6821 202.6487,496.005 201.503,495.8029 200.3254,496.6275 200.1234,497.7732 200.9479,498.9508"/>
    <polyline points="120.7874,405.3519 120.7874,402.5173 118.3326,401.0999 118.3326,398.2653"/>
    <polyline points="118.3326,401.0999 115.8777,402.5173 115.8777,405.3519"/>
    <polyline points="115.8777,402.5173 113.4228,401.0999 113.4228,398.2653 110.9679,396.848 110.9679,394.0133 108.5131,392.596"/>
    <polyline points="103.6033,395.4306 108.5131,398.2653 113.4228,395.4306 118.3326,398.2653 123.2423,395.4306"/>
    <polygon points="143.3723,373.0369 143.1648,372.2625 123.5258,360.9239 122.7513,361.1314 122.9589,361.9059 142.5979,373.2445"/>
    <polygon points="142.5979,372.2625 142.3904,373.0369 143.1648,373.2445 162.8038,361.9059 163.0113,361.1314 162.2369,360.9239"/>
    <polygon points="202.3653,293.3834 202.3653,270.7062 201.7983,270.1393 201.2314,270.7062 201.2314,293.3834 201.7983,293.9503"/>
    <polygon points="202.0818,292.8924 201.3074,293.0999 201.5149,293.8744 221.1539,305.213 221.9283,305.0054 221.7208,304.231"/>
  </g>
  <g fill="none" id="layer2" inkscape:groupmode="layer" inkscape:label="2" stroke="#000000" stroke-width="1.1339" style="display:inline">
    <polygon points="199.7939,420.1122 200.7136,420.7267 201.7983,420.9425 202.8831,420.7267 203.8027,420.1122 204.4172,419.1926 204.633,418.1078 204.4172,417.023 203.8027,416.1034 202.8831,415.4889 201.7983,415.2732 200.7136,415.4889 199.7939,416.1034 199.1795,417.023 198.9637,418.1078 199.1795,419.1926"/>
    <polygon points="219.1708,440.785 219.8347,442.3876 221.4373,443.0515 223.04,442.3876 223.7038,440.785 223.04,439.1823 221.4373,438.5185 219.8347,439.1823"/>
    <polyline points="220.1776,441.9188 222.6971,441.9188 223.1357,440.785 219.739,440.785 220.1776,439.6511 222.6971,439.6511"/>
    <polygon points="220.3526,443.4038 221.4373,443.6196 222.5221,443.4038 223.4417,442.7894 224.0562,441.8697 224.272,440.785 224.0562,439.7002 223.4417,438.7806 222.5221,438.1661 221.4373,437.9503 220.3526,438.1661 219.4329,438.7806 218.8185,439.7002 218.6027,440.785 218.8185,441.8697 219.4329,442.7894"/>
    <polygon points="259.6306,449.5047 258.7109,450.1192 258.0965,451.0388 257.8807,452.1236 258.0965,453.2083 258.7109,454.128 259.6306,454.7424 260.7153,454.9582 261.8001,454.7424 262.7197,454.128 263.3342,453.2083 263.55,452.1236 263.3342,451.0388 262.7197,450.1192 261.8001,449.5047 260.7153,449.2889"/>
    <polygon points="336.6525,405.6845 336.4367,406.7692 336.6525,407.854 337.2669,408.7736 338.1866,409.3881 339.2713,409.6039 340.3561,409.3881 341.2757,408.7736 341.8902,407.854 342.106,406.7692 341.8902,405.6845 341.2757,404.7648 340.3561,404.1504 339.2713,403.9346 338.1866,404.1504 337.2669,404.7648"/>
    <polygon points="356.4226,344.4559 358.826,344.9731 361.2425,344.5212 363.2966,343.1703 364.6544,341.1652 365.1463,338.7565 364.6689,336.3448 363.2966,334.3051 361.2425,332.9543 358.826,332.5024 356.4226,333.0195 354.4058,334.4254 353.0891,336.5015 352.6772,338.5503 353.0891,340.9739 354.4058,343.0501"/>
    <polygon points="355.2143,342.2548 354.1421,340.553 353.8111,338.569 354.2725,336.6113 355.4548,334.984 357.1741,333.9402 358.826,333.6364 360.8042,334.0002 362.4881,335.1003 363.6159,336.7658 364.0124,338.7377 363.6159,340.7097 362.4881,342.3751 360.8042,343.4753 358.826,343.8391 356.8609,343.4101"/>
    <polyline points="340.5311,337.6039 338.0116,337.6039 337.573,338.7377 340.9697,338.7377 340.5311,339.8716 338.0116,339.8716"/>
    <polygon points="338.1866,341.3566 339.2713,341.5724 340.3561,341.3566 341.2757,340.7421 341.8902,339.8225 342.106,338.7377 341.8902,337.653 341.2757,336.7333 340.3561,336.1189 339.2713,335.9031 338.1866,336.1189 337.2669,336.7333 336.6525,337.653 336.4367,338.7377 336.6525,339.8225 337.2669,340.7421"/>
    <polygon points="337.0048,338.7377 337.6687,340.3404 339.2713,341.0042 340.874,340.3404 341.5378,338.7377 340.874,337.1351 339.2713,336.4712 337.6687,337.1351"/>
    <polygon points="332.0707,331.9837 331.4562,331.064 330.5366,330.4496 329.4518,330.2338 328.3671,330.4496 327.4474,331.064 326.833,331.9837 326.6172,333.0684 326.833,334.1532 327.4474,335.0728 328.3671,335.6873 329.4518,335.9031 330.5366,335.6873 331.4562,335.0728 332.0707,334.1532 332.2865,333.0684"/>
    <polygon points="346.472,311.476 347.0864,312.3957 348.0061,313.0101 349.0908,313.2259 350.1756,313.0101 351.0952,312.3957 351.7097,311.476 351.9255,310.3913 351.7097,309.3065 351.0952,308.3869 350.1756,307.7724 349.0908,307.5566 348.0061,307.7724 347.0864,308.3869 346.472,309.3065 346.2562,310.3913"/>
    <polyline points="317.5913,296.785 321.6705,296.785 322.8863,295.6511 316.3789,295.6511 315.8312,294.5173 323.4323,294.5173 323.5999,293.3834 315.6669,293.3834 315.8312,292.2495 323.4323,292.2495 322.8863,291.1157 316.3789,291.1157 317.5913,289.9818 321.6705,289.9818"/>
    <polygon points="315.5102,291.4934 315.1,293.2335 315.3943,294.9969 316.3472,296.5095 317.8107,297.5363 319.5574,297.9176 321.3156,297.5942 322.8123,296.6164 323.8147,295.1361 324.1672,293.3834 323.8147,291.6307 322.8123,290.1504 321.3156,289.1726 319.5574,288.8492 317.8107,289.2305 316.561,290.047"/>
    <polygon points="315.1278,289.0711 313.8111,291.1472 313.3992,293.196 313.8111,295.6196 315.1278,297.6957 317.1446,299.1016 319.548,299.6188 321.9645,299.1668 324.0186,297.816 325.3909,295.7763 325.8682,293.4021 325.3909,290.9905 324.0186,288.9508 321.9645,287.6 319.548,287.148 317.1446,287.6652"/>
    <polygon points="315.9363,296.9005 314.8641,295.1987 314.5331,293.2147 314.8641,291.5681 315.9363,289.8663 317.5829,288.7111 319.548,288.282 321.5262,288.6459 323.2101,289.746 324.3379,291.4115 324.7344,293.3834 324.3379,295.3553 323.2101,297.0208 321.5262,298.1209 319.548,298.4848 317.5829,298.0557"/>
    <polygon points="386.1023,276.3755 386.7662,277.9782 388.3688,278.642 389.9715,277.9782 390.6353,276.3755 389.9715,274.7729 388.3688,274.109 386.7662,274.7729"/>
    <polyline points="387.1091,277.5094 389.6286,277.5094 390.0672,276.3755 386.6705,276.3755 387.1091,275.2417 389.6286,275.2417"/>
    <polygon points="387.2841,273.7567 386.3644,274.3711 385.75,275.2908 385.5342,276.3755 385.75,277.4603 386.3644,278.3799 387.2841,278.9944 388.3688,279.2102 389.4536,278.9944 390.3732,278.3799 390.9877,277.4603 391.2035,276.3755 390.9877,275.2908 390.3732,274.3711 389.4536,273.7567 388.3688,273.5409"/>
    <polygon points="395.9218,293.3834 396.5857,294.9861 398.1883,295.6499 399.791,294.9861 400.4548,293.3834 399.791,291.7807 398.1883,291.1169 396.5857,291.7807"/>
    <polyline points="396.9286,294.5173 399.4481,294.5173 399.8867,293.3834 396.49,293.3834 396.9286,292.2495 399.4481,292.2495"/>
    <polygon points="399.2731,296.0023 400.1927,295.3878 400.8072,294.4682 401.023,293.3834 400.8072,292.2986 400.1927,291.379 399.2731,290.7645 398.1883,290.5488 397.1036,290.7645 396.1839,291.379 395.5695,292.2986 395.3537,293.3834 395.5695,294.4682 396.1839,295.3878 397.1036,296.0023 398.1883,296.218"/>
    <polygon points="405.389,331.9837 405.1732,333.0684 405.389,334.1532 406.0034,335.0728 406.9231,335.6873 408.0078,335.9031 409.0926,335.6873 410.0122,335.0728 410.6267,334.1532 410.8425,333.0684 410.6267,331.9837 410.0122,331.064 409.0926,330.4496 408.0078,330.2338 406.9231,330.4496 406.0034,331.064"/>
    <polyline points="406.7481,334.2023 409.2676,334.2023 409.7062,333.0684 406.3095,333.0684 406.7481,331.9346 409.2676,331.9346"/>
    <polygon points="406.4052,334.6711 408.0078,335.3349 409.6105,334.6711 410.2743,333.0684 409.6105,331.4658 408.0078,330.8019 406.4052,331.4658 405.7413,333.0684"/>
    <polyline points="379.8091,337.6039 377.2896,337.6039 376.851,338.7377 380.2477,338.7377 379.8091,339.8716 377.2896,339.8716"/>
    <polygon points="379.6341,341.3566 380.5537,340.7421 381.1682,339.8225 381.384,338.7377 381.1682,337.653 380.5537,336.7333 379.6341,336.1189 378.5493,335.9031 377.4646,336.1189 376.5449,336.7333 375.9305,337.653 375.7147,338.7377 375.9305,339.8225 376.5449,340.7421 377.4646,341.3566 378.5493,341.5724"/>
    <polygon points="380.152,340.3404 380.8158,338.7377 380.152,337.1351 378.5493,336.4712 376.9467,337.1351 376.2828,338.7377 376.9467,340.3404 378.5493,341.0042"/>
    <polygon points="410.6267,422.6923 410.0122,421.7727 409.0926,421.1582 408.0078,420.9425 406.9231,421.1582 406.0034,421.7727 405.389,422.6923 405.1732,423.7771 405.389,424.8619 406.0034,425.7815 406.9231,426.396 408.0078,426.6117 409.0926,426.396 410.0122,425.7815 410.6267,424.8619 410.8425,423.7771"/>
    <polygon points="221.353,310.9574 223.7695,310.5054 225.8235,309.1546 227.1959,307.1149 227.6732,304.7407 227.1959,302.3291 225.8235,300.2894 223.7695,298.9386 221.353,298.4866 218.9496,299.0038 216.9328,300.4097 215.6161,302.4858 215.2042,304.5345 215.6161,306.9582 216.9328,309.0343 218.9496,310.4402"/>
    <polygon points="219.7011,309.5195 217.9818,308.4757 216.7995,306.8484 216.3381,304.8907 216.6691,302.9067 217.7413,301.2049 219.3879,300.0497 221.353,299.6206 223.3312,299.9845 225.0151,301.0846 226.1429,302.75 226.5394,304.722 226.1429,306.6939 225.0151,308.3594 223.6402,309.324 221.6903,309.8178"/>
    <polygon points="203.4816,297.5942 204.9783,296.6164 205.9807,295.1361 206.3331,293.3834 205.9807,291.6307 204.9783,290.1504 203.4816,289.1726 201.7234,288.8492 200.2552,289.1192 198.727,290.047 197.6762,291.4934 197.266,293.2335 197.5603,294.9969 198.5132,296.5095 199.9767,297.5363 201.7234,297.9176"/>
    <polyline points="199.7573,296.785 203.8365,296.785 205.0522,295.6511 198.5449,295.6511 197.9972,294.5173 205.5983,294.5173 205.7659,293.3834 197.8329,293.3834 197.9972,292.2495 205.5983,292.2495 205.0522,291.1157 198.5449,291.1157 199.7573,289.9818 203.8365,289.9818"/>
    <polygon points="203.6922,288.6459 205.3761,289.746 206.5039,291.4115 206.9004,293.3834 206.5039,295.3553 205.3761,297.0208 203.6922,298.1209 201.714,298.4848 200.0621,298.181 198.3428,297.1371 197.1605,295.5098 196.6991,293.5521 197.0301,291.5681 198.1023,289.8663 199.7489,288.7111 201.714,288.282"/>
    <polygon points="204.1305,287.6 201.714,287.148 199.3106,287.6652 197.2938,289.0711 195.9771,291.1472 195.5652,293.196 195.9638,295.5846 197.268,297.6686 199.2762,299.0866 201.6765,299.6181 204.0957,299.1807 206.1578,297.8423 207.5424,295.8109 208.0342,293.4021 207.5569,290.9905 206.1845,288.9508"/>
    <polygon points="195.9771,336.5015 195.5652,338.5503 195.9771,340.9739 197.2938,343.0501 199.3106,344.4559 201.714,344.9731 204.0957,344.5351 206.1578,343.1966 207.5424,341.1652 208.0342,338.7565 207.5569,336.3448 206.1845,334.3051 204.1305,332.9543 201.714,332.5024 199.3106,333.0195 197.2938,334.4254"/>
    <polygon points="203.6922,343.4753 201.714,343.8391 199.7489,343.4101 198.1023,342.2548 197.0301,340.553 196.6991,338.569 197.1605,336.6113 198.3428,334.984 199.7489,334.0654 201.714,333.6364 203.6922,334.0002 205.3761,335.1003 206.5039,336.7658 206.9004,338.7377 206.5039,340.7097 205.3761,342.3751"/>
    <polygon points="184.1637,386.0965 184.7782,385.1768 184.994,384.0921 184.7782,383.0073 184.1637,382.0877 183.2441,381.4732 182.1593,381.2574 181.0746,381.4732 180.1549,382.0877 179.5405,383.0073 179.3247,384.0921 179.5405,385.1768 180.1549,386.0965 181.0746,386.7109 182.1593,386.9267 183.2441,386.7109"/>
    <polygon points="135.6807,334.1532 135.8965,333.0684 135.6807,331.9837 135.0662,331.064 134.1466,330.4496 133.0618,330.2338 131.9771,330.4496 131.0574,331.064 130.443,331.9837 130.2272,333.0684 130.443,334.1532 131.0574,335.0728 131.9771,335.6873 133.0618,335.9031 134.1466,335.6873 135.0662,335.0728"/>
    <polyline points="134.3216,331.9346 131.8021,331.9346 131.3635,333.0684 134.7602,333.0684 134.3216,334.2023 131.8021,334.2023"/>
    <polygon points="133.0618,335.3349 134.6645,334.6711 135.3283,333.0684 134.6645,331.4658 133.0618,330.8019 131.4592,331.4658 130.7953,333.0684 131.4592,334.6711"/>
    <polygon points="110.5882,367.0842 110.804,368.169 111.4184,369.0886 112.3381,369.7031 113.4228,369.9188 114.5076,369.7031 115.4272,369.0886 116.0417,368.169 116.2575,367.0842 116.0417,365.9994 115.4272,365.0798 114.5076,364.4653 113.4228,364.2495 112.3381,364.4653 111.4184,365.0798 110.804,365.9994"/>
    <polygon points="143.9661,517.5362 142.8813,517.3204 141.7966,517.5362 140.8769,518.1507 140.2625,519.0703 140.0467,520.1551 140.2625,521.2398 140.8769,522.1595 141.7966,522.7739 142.8813,522.9897 143.9661,522.7739 144.8857,522.1595 145.5002,521.2398 145.716,520.1551 145.5002,519.0703 144.8857,518.1507"/>
  </g>
</svg>
