  0
SECTION
  2
HEADER
  9
$ACADVER
  1
AC1015
  9
$ACADMAINTVER
 70
     6
  9
$DWGCODEPAGE
  3
ANSI_1252
  9
$INSBASE
 10
0.0
 20
0.0
 30
0.0
  9
$EXTMIN
 10
1.000000E+20
 20
1.000000E+20
 30
1.000000E+20
  9
$EXTMAX
 10
-1.000000E+20
 20
-1.000000E+20
 30
-1.000000E+20
  9
$LIMMIN
 10
0.0
 20
0.0
  9
$LIMMAX
 10
420.0
 20
297.0
  9
$ORTHOMODE
 70
     0
  9
$REGENMODE
 70
     1
  9
$FILLMODE
 70
     1
  9
$QTEXTMODE
 70
     0
  9
$MIRRTEXT
 70
     1
  9
$LTSCALE
 40
1.0
  9
$ATTMODE
 70
     1
  9
$TEXTSIZE
 40
2.5
  9
$TRACEWID
 40
1.0
  9
$TEXTSTYLE
  7
Standard
  9
$CLAYER
  8
0
  9
$CELTYPE
  6
ByLayer
  9
$CECOLOR
 62
   256
  9
$CELTSCALE
 40
1.0
  9
$DISPSILH
 70
     0
  9
$DIMSCALE
 40
1.0
  9
$DIMASZ
 40
2.5
  9
$DIMEXO
 40
0.625
  9
$DIMDLI
 40
3.75
  9
$DIMRND
 40
0.0
  9
$DIMDLE
 40
0.0
  9
$DIMEXE
 40
1.25
  9
$DIMTP
 40
0.0
  9
$DIMTM
 40
0.0
  9
$DIMTXT
 40
2.5
  9
$DIMCEN
 40
2.5
  9
$DIMTSZ
 40
0.0
  9
$DIMTOL
 70
     0
  9
$DIMLIM
 70
     0
  9
$DIMTIH
 70
     0
  9
$DIMTOH
 70
     0
  9
$DIMSE1
 70
     0
  9
$DIMSE2
 70
     0
  9
$DIMTAD
 70
     1
  9
$DIMZIN
 70
     8
  9
$DIMBLK
  1

  9
$DIMASO
 70
     1
  9
$DIMSHO
 70
     1
  9
$DIMPOST
  1

  9
$DIMAPOST
  1

  9
$DIMALT
 70
     0
  9
$DIMALTD
 70
     3
  9
$DIMALTF
 40
0.03937
  9
$DIMLFAC
 40
1.0
  9
$DIMTOFL
 70
     1
  9
$DIMTVP
 40
0.0
  9
$DIMTIX
 70
     0
  9
$DIMSOXD
 70
     0
  9
$DIMSAH
 70
     0
  9
$DIMBLK1
  1

  9
$DIMBLK2
  1

  9
$DIMSTYLE
  2
ISO-25
  9
$DIMCLRD
 70
     0
  9
$DIMCLRE
 70
     0
  9
$DIMCLRT
 70
     0
  9
$DIMTFAC
 40
1.0
  9
$DIMGAP
 40
0.625
  9
$DIMJUST
 70
     0
  9
$DIMSD1
 70
     0
  9
$DIMSD2
 70
     0
  9
$DIMTOLJ
 70
     0
  9
$DIMTZIN
 70
     8
  9
$DIMALTZ
 70
     0
  9
$DIMALTTZ
 70
     0
  9
$DIMUPT
 70
     0
  9
$DIMDEC
 70
     2
  9
$DIMTDEC
 70
     2
  9
$DIMALTU
 70
     2
  9
$DIMALTTD
 70
     3
  9
$DIMTXSTY
  7
Standard
  9
$DIMAUNIT
 70
     0
  9
$DIMADEC
 70
     0
  9
$DIMALTRND
 40
0.0
  9
$DIMAZIN
 70
     0
  9
$DIMDSEP
 70
    44
  9
$DIMATFIT
 70
     3
  9
$DIMFRAC
 70
     0
  9
$DIMLDRBLK
  1

  9
$DIMLUNIT
 70
     2
  9
$DIMLWD
 70
    -2
  9
$DIMLWE
 70
    -2
  9
$DIMTMOVE
 70
     0
  9
$LUNITS
 70
     2
  9
$LUPREC
 70
     4
  9
$SKETCHINC
 40
1.0
  9
$FILLETRAD
 40
10.0
  9
$AUNITS
 70
     0
  9
$AUPREC
 70
     0
  9
$MENU
  1
.
  9
$ELEVATION
 40
0.0
  9
$PELEVATION
 40
0.0
  9
$THICKNESS
 40
0.0
  9
$LIMCHECK
 70
     0
  9
$CHAMFERA
 40
10.0
  9
$CHAMFERB
 40
10.0
  9
$CHAMFERC
 40
20.0
  9
$CHAMFERD
 40
0.0
  9
$SKPOLY
 70
     0
  9
$TDCREATE
 40
2455596.926794479
  9
$TDUCREATE
 40
2455597.135127813
  9
$TDUPDATE
 40
2455596.926794491
  9
$TDUUPDATE
 40
2455597.135127824
  9
$TDINDWG
 40
0.0000000116
  9
$TDUSRTIMER
 40
0.0000000116
  9
$USRTIMER
 70
     1
  9
$ANGBASE
 50
0.0
  9
$ANGDIR
 70
     0
  9
$PDMODE
 70
     3
  9
$PDSIZE
 40
-0.7
  9
$PLINEWID
 40
0.0
  9
$SPLFRAME
 70
     0
  9
$SPLINETYPE
 70
     6
  9
$SPLINESEGS
 70
     8
  9
$HANDSEED
  5
2F
  9
$SURFTAB1
 70
     6
  9
$SURFTAB2
 70
     6
  9
$SURFTYPE
 70
     6
  9
$SURFU
 70
     6
  9
$SURFV
 70
     6
  9
$UCSBASE
  2

  9
$UCSNAME
  2

  9
$UCSORG
 10
0.0
 20
0.0
 30
0.0
  9
$UCSXDIR
 10
1.0
 20
0.0
 30
0.0
  9
$UCSYDIR
 10
0.0
 20
1.0
 30
0.0
  9
$UCSORTHOREF
  2

  9
$UCSORTHOVIEW
 70
     0
  9
$UCSORGTOP
 10
0.0
 20
0.0
 30
0.0
  9
$UCSORGBOTTOM
 10
0.0
 20
0.0
 30
0.0
  9
$UCSORGLEFT
 10
0.0
 20
0.0
 30
0.0
  9
$UCSORGRIGHT
 10
0.0
 20
0.0
 30
0.0
  9
$UCSORGFRONT
 10
0.0
 20
0.0
 30
0.0
  9
$UCSORGBACK
 10
0.0
 20
0.0
 30
0.0
  9
$PUCSBASE
  2

  9
$PUCSNAME
  2

  9
$PUCSORG
 10
0.0
 20
0.0
 30
0.0
  9
$PUCSXDIR
 10
1.0
 20
0.0
 30
0.0
  9
$PUCSYDIR
 10
0.0
 20
1.0
 30
0.0
  9
$PUCSORTHOREF
  2

  9
$PUCSORTHOVIEW
 70
     0
  9
$PUCSORGTOP
 10
0.0
 20
0.0
 30
0.0
  9
$PUCSORGBOTTOM
 10
0.0
 20
0.0
 30
0.0
  9
$PUCSORGLEFT
 10
0.0
 20
0.0
 30
0.0
  9
$PUCSORGRIGHT
 10
0.0
 20
0.0
 30
0.0
  9
$PUCSORGFRONT
 10
0.0
 20
0.0
 30
0.0
  9
$PUCSORGBACK
 10
0.0
 20
0.0
 30
0.0
  9
$USERI1
 70
     0
  9
$USERI2
 70
     0
  9
$USERI3
 70
     0
  9
$USERI4
 70
     0
  9
$USERI5
 70
     0
  9
$USERR1
 40
0.0
  9
$USERR2
 40
0.0
  9
$USERR3
 40
0.0
  9
$USERR4
 40
0.0
  9
$USERR5
 40
0.0
  9
$WORLDVIEW
 70
     1
  9
$SHADEDGE
 70
     3
  9
$SHADEDIF
 70
    70
  9
$TILEMODE
 70
     1
  9
$MAXACTVP
 70
    64
  9
$PINSBASE
 10
0.0
 20
0.0
 30
0.0
  9
$PLIMCHECK
 70
     0
  9
$PEXTMIN
 10
1.000000E+20
 20
1.000000E+20
 30
1.000000E+20
  9
$PEXTMAX
 10
-1.000000E+20
 20
-1.000000E+20
 30
-1.000000E+20
  9
$PLIMMIN
 10
0.0
 20
0.0
  9
$PLIMMAX
 10
420.0
 20
297.0
  9
$UNITMODE
 70
     0
  9
$VISRETAIN
 70
     1
  9
$PLINEGEN
 70
     0
  9
$PSLTSCALE
 70
     1
  9
$TREEDEPTH
 70
  3020
  9
$CMLSTYLE
  2
Standard
  9
$CMLJUST
 70
     1
  9
$CMLSCALE
 40
1.0
  9
$PROXYGRAPHICS
 70
     1
  9
$MEASUREMENT
 70
     1
  9
$CELWEIGHT
370
    -1
  9
$ENDCAPS
280
     0
  9
$JOINSTYLE
280
     0
  9
$LWDISPLAY
290
     0
  9
$INSUNITS
 70
     4
  9
$HYPERLINKBASE
  1

  9
$STYLESHEET
  1

  9
$XEDIT
290
     1
  9
$CEPSNTYPE
380
     0
  9
$PSTYLEMODE
290
     1
  9
$FINGERPRINTGUID
  2
{FAEB1C30-E019-11D5-929B-00C0DF256EC4}
  9
$VERSIONGUID
  2
{FAEB1C32-E019-11D5-929B-00C0DF256EC4}
  9
$EXTNAMES
290
     1
  9
$PSVPSCALE
 40
0.0
  9
$OLESTARTUP
290
     0
  0
ENDSEC
  0
SECTION
  2
CLASSES
  0
CLASS
  1
ACDBDICTIONARYWDFLT
  2
AcDbDictionaryWithDefault
  3
ObjectDBX Classes
 90
        0
280
     0
281
     0
  0
CLASS
  1
ACDBPLACEHOLDER
  2
AcDbPlaceHolder
  3
ObjectDBX Classes
 90
        0
280
     0
281
     0
  0
CLASS
  1
LAYOUT
  2
AcDbLayout
  3
ObjectDBX Classes
 90
        0
280
     0
281
     0
  0
ENDSEC
  0
SECTION
  2
TABLES
  0
TABLE
  2
VPORT
  5
8
330
0
100
AcDbSymbolTable
 70
     2
  0
VPORT
  5
29
330
8
100
AcDbSymbolTableRecord
100
AcDbViewportTableRecord
  2
*Active
 70
     0
 10
0.0
 20
0.0
 11
1.0
 21
1.0
 12
50.0
 22
50.0
 13
0.0
 23
0.0
 14
10.0
 24
10.0
 15
10.0
 25
10.0
 16
0.0
 26
0.0
 36
1.0
 17
0.0
 27
0.0
 37
0.0
 40
103.921569
 41
1.0
 42
50.0
 43
0.0
 44
0.0
 50
0.0
 51
0.0
 71
     0
 72
   100
 73
     1
 74
     3
 75
     0
 76
     0
 77
     0
 78
     0
281
     0
 65
     1
110
0.0
120
0.0
130
0.0
111
1.0
121
0.0
131
0.0
112
0.0
122
1.0
132
0.0
 79
     0
146
0.0
  0
ENDTAB
  0
TABLE
  2
LTYPE
  5
5
330
0
100
AcDbSymbolTable
 70
     1
  0
LTYPE
  5
14
330
5
100
AcDbSymbolTableRecord
100
AcDbLinetypeTableRecord
  2
ByBlock
 70
     0
  3

 72
    65
 73
     0
 40
0.0
  0
LTYPE
  5
15
330
5
100
AcDbSymbolTableRecord
100
AcDbLinetypeTableRecord
  2
ByLayer
 70
     0
  3

 72
    65
 73
     0
 40
0.0
  0
LTYPE
  5
16
330
5
100
AcDbSymbolTableRecord
100
AcDbLinetypeTableRecord
  2
Continuous
 70
     0
  3

 72
    65
 73
     0
 40
0.0
  0
ENDTAB
  0
TABLE
  2
LAYER
  5
2
330
0
100
AcDbSymbolTable
 70
     1
  0
LAYER
  5
10
330
2
100
AcDbSymbolTableRecord
100
AcDbLayerTableRecord
  2
0
 70
     0
 62
     7
  6
Continuous
370
    -3
390
F
  0
ENDTAB
  0
TABLE
  2
STYLE
  5
3
330
0
100
AcDbSymbolTable
 70
     1
  0
STYLE
  5
11
330
3
100
AcDbSymbolTableRecord
100
AcDbTextStyleTableRecord
  2
Standard
 70
     0
 40
1.0
 41
1.0
 50
0.0
 71
     0
 42
2.5
  3
RomanS
  4

  0
ENDTAB
  0
TABLE
  2
VIEW
  5
6
330
0
100
AcDbSymbolTable
 70
     0
  0
ENDTAB
  0
TABLE
  2
UCS
  5
7
330
0
100
AcDbSymbolTable
 70
     0
  0
ENDTAB
  0
TABLE
  2
APPID
  5
9
330
0
100
AcDbSymbolTable
 70
     1
  0
APPID
  5
12
330
9
100
AcDbSymbolTableRecord
100
AcDbRegAppTableRecord
  2
ACAD
 70
     0
  0
ENDTAB
  0
TABLE
  2
DIMSTYLE
  5
A
330
0
100
AcDbSymbolTable
 70
     1
100
AcDbDimStyleTable
  0
DIMSTYLE
105
27
330
A
100
AcDbSymbolTableRecord
100
AcDbDimStyleTableRecord
  2
ISO-25
 70
     0
 41
2.5
 42
0.625
 44
1.25
 73
     0
 74
     0
 77
     1
 78
     8
 79
     2
140
2.5
141
2.5
146
0.0
147
0.625
271
     2
272
     0
273
     0
274
     0
278
    44
283
     0
289
     0
340
11
  0
ENDTAB
  0
TABLE
  2
BLOCK_RECORD
  5
1
330
0
100
AcDbSymbolTable
 70
     1
  0
BLOCK_RECORD
  5
1F
330
1
100
AcDbSymbolTableRecord
100
AcDbBlockTableRecord
  2
*Model_Space
340
22
  0
BLOCK_RECORD
  5
1B
330
1
100
AcDbSymbolTableRecord
100
AcDbBlockTableRecord
  2
*Paper_Space
340
1E
  0
BLOCK_RECORD
  5
23
330
1
100
AcDbSymbolTableRecord
100
AcDbBlockTableRecord
  2
*Paper_Space0
340
26
  0
ENDTAB
  0
ENDSEC
  0
SECTION
  2
BLOCKS
  0
BLOCK
  5
20
330
1F
100
AcDbEntity
  8
0
100
AcDbBlockBegin
  2
*Model_Space
 70
     0
 71
     0
 10
0.0
 20
0.0
 30
0.0
  3
*Model_Space
  1

  0
ENDBLK
  5
21
330
1F
100
AcDbEntity
  8
0
100
AcDbBlockEnd
  0
BLOCK
  5
1C
330
1B
100
AcDbEntity
 67
     1
  8
0
100
AcDbBlockBegin
  2
*Paper_Space
 70
     0
 71
     0
 10
0.0
 20
0.0
 30
0.0
  3
*Paper_Space
  1

  0
ENDBLK
  5
1D
330
1B
100
AcDbEntity
 67
     1
  8
0
100
AcDbBlockEnd
  0
BLOCK
  5
24
330
23
100
AcDbEntity
  8
0
100
AcDbBlockBegin
  2
*Paper_Space0
 70
     0
 71
     0
 10
0.0
 20
0.0
 30
0.0
  3
*Paper_Space0
  1

  0
ENDBLK
  5
25
330
23
100
AcDbEntity
  8
0
100
AcDbBlockEnd
  0
ENDSEC
  0
SECTION
  2
ENTITIES
  0
LWPOLYLINE
  5
2A
330
1F
100
AcDbEntity
  8
0
100
AcDbPolyline
 90
     1087
 70
   128
 43
0.0
 10
1.078819
 20
1.934028
 10
1.081034
 20
1.914787
 10
1.082863
 20
1.895333
 10
1.084339
 20
1.875755
 10
1.085493
 20
1.856144
 10
1.086956
 20
1.817182
 10
1.0875
 20
1.779167
 10
1.057657
 20
1.780086
 10
1.030348
 20
1.781319
 10
0.985023
 20
1.784193
 10
0.954913
 20
1.786724
 10
0.943403
 20
1.787847
 10
0.943403
 20
1.708333
 10
0.954977
 20
1.70976
 10
0.985195
 20
1.712954
 10
1.006197
 20
1.71478
 10
1.030541
 20
1.716528
 10
1.057789
 20
1.718025
 10
1.0875
 20
1.719097
 10
1.085335
 20
1.664123
 10
1.082576
 20
1.614056
 10
1.078819
 20
1.557639
 10
1.06837
 20
1.553887
 10
1.058298
 20
1.549348
 10
1.048645
 20
1.544061
 10
1.039451
 20
1.538065
 10
1.030758
 20
1.531397
 10
1.022606
 20
1.524095
 10
1.015037
 20
1.516198
 10
1.00809
 20
1.507745
 10
1.001808
 20
1.498772
 10
0.996231
 20
1.48932
 10
0.991399
 20
1.479424
 10
0.987355
 20
1.469125
 10
0.984138
 20
1.45846
 10
0.981789
 20
1.447468
 10
0.98035
 20
1.436186
 10
0.979861
 20
1.424653
 10
0.980137
 20
1.420255
 10
0.9808
 20
1.415894
 10
0.982292
 20
1.407292
 10
0.966671
 20
1.41835
 10
0.950786
 20
1.428997
 10
0.934508
 20
1.439034
 10
0.917708
 20
1.448264
 10
0.925637
 20
1.451453
 10
0.932947
 20
1.45563
 10
0.936328
 20
1.458067
 10
0.939504
 20
1.460726
 10
0.942457
 20
1.463597
 10
0.945172
 20
1.466672
 10
0.94763
 20
1.469942
 10
0.949816
 20
1.473398
 10
0.951711
 20
1.477033
 10
0.9533
 20
1.480836
 10
0.954565
 20
1.4848
 10
0.95549
 20
1.488916
 10
0.956057
 20
1.493176
 10
0.95625
 20
1.497569
 10
0.955949
 20
1.503083
 10
0.95507
 20
1.508435
 10
0.953644
 20
1.513599
 10
0.951705
 20
1.518547
 10
0.949285
 20
1.523253
 10
0.946417
 20
1.52769
 10
0.943135
 20
1.531832
 10
0.93947
 20
1.535651
 10
0.935457
 20
1.539121
 10
0.931127
 20
1.542215
 10
0.926514
 20
1.544907
 10
0.92165
 20
1.547169
 10
0.916569
 20
1.548975
 10
0.911303
 20
1.550298
 10
0.905885
 20
1.551112
 10
0.900347
 20
1.551389
 10
0.894837
 20
1.551112
 10
0.889496
 20
1.550298
 10
0.88435
 20
1.548975
 10
0.879424
 20
1.547169
 10
0.874744
 20
1.544907
 10
0.870336
 20
1.542215
 10
0.866226
 20
1.539121
 10
0.862439
 20
1.535651
 10
0.859002
 20
1.531832
 10
0.855939
 20
1.52769
 10
0.853276
 20
1.523253
 10
0.851041
 20
1.518547
 10
0.849257
 20
1.513599
 10
0.847951
 20
1.508435
 10
0.847148
 20
1.503083
 10
0.846875
 20
1.497569
 10
0.847145
 20
1.491969
 10
0.847943
 20
1.486425
 10
0.849248
 20
1.481071
 10
0.851042
 20
1.476042
 10
0.833671
 20
1.481448
 10
0.816141
 20
1.486009
 10
0.798352
 20
1.489926
 10
0.780208
 20
1.493403
 10
0.78485
 20
1.497518
 10
0.789033
 20
1.502046
 10
0.792708
 20
1.506961
 10
0.795826
 20
1.512238
 10
0.798338
 20
1.517851
 10
0.800193
 20
1.523776
 10
0.801342
 20
1.529987
 10
0.801736
 20
1.536458
 10
0.801459
 20
1.541968
 10
0.800645
 20
1.547309
 10
0.799322
 20
1.552456
 10
0.797516
 20
1.557382
 10
0.795254
 20
1.562061
 10
0.792563
 20
1.566469
 10
0.789468
 20
1.57058
 10
0.785998
 20
1.574366
 10
0.782179
 20
1.577804
 10
0.778038
 20
1.580867
 10
0.7736
 20
1.583529
 10
0.768894
 20
1.585765
 10
0.763946
 20
1.587549
 10
0.758783
 20
1.588855
 10
0.753431
 20
1.589657
 10
0.747917
 20
1.589931
 10
0.742379
 20
1.589657
 10
0.736961
 20
1.588855
 10
0.731695
 20
1.587549
 10
0.726613
 20
1.585765
 10
0.72175
 20
1.583529
 10
0.717137
 20
1.580867
 10
0.712807
 20
1.577804
 10
0.708793
 20
1.574366
 10
0.705129
 20
1.57058
 10
0.701847
 20
1.566469
 10
0.698979
 20
1.562061
 10
0.696559
 20
1.557382
 10
0.69462
 20
1.552456
 10
0.693194
 20
1.547309
 10
0.692314
 20
1.541968
 10
0.692014
 20
1.536458
 10
0.692313
 20
1.531576
 10
0.693171
 20
1.526872
 10
0.694533
 20
1.522342
 10
0.696344
 20
1.517979
 10
0.698546
 20
1.513778
 10
0.701084
 20
1.509732
 10
0.706944
 20
1.502083
 10
0.689931
 20
1.502083
 10
0.678378
 20
1.501905
 10
0.667174
 20
1.501405
 10
0.644792
 20
1.499653
 10
0.648246
 20
1.506039
 10
0.650997
 20
1.512913
 10
0.652815
 20
1.520188
 10
0.653303
 20
1.523949
 10
0.653472
 20
1.527778
 10
0.653195
 20
1.533292
 10
0.652382
 20
1.538644
 10
0.651058
 20
1.543807
 10
0.649252
 20
1.548755
 10
0.64699
 20
1.553461
 10
0.644299
 20
1.557899
 10
0.641204
 20
1.56204
 10
0.637734
 20
1.565859
 10
0.633915
 20
1.569329
 10
0.629774
 20
1.572424
 10
0.625336
 20
1.575115
 10
0.62063
 20
1.577377
 10
0.615682
 20
1.579183
 10
0.610519
 20
1.580507
 10
0.605167
 20
1.58132
 10
0.599653
 20
1.581597
 10
0.594115
 20
1.58132
 10
0.588697
 20
1.580507
 10
0.583431
 20
1.579183
 10
0.57835
 20
1.577377
 10
0.573486
 20
1.575115
 10
0.568873
 20
1.572424
 10
0.564543
 20
1.569329
 10
0.56053
 20
1.565859
 10
0.556865
 20
1.56204
 10
0.553583
 20
1.557899
 10
0.550715
 20
1.553461
 10
0.548295
 20
1.548755
 10
0.546356
 20
1.543807
 10
0.54493
 20
1.538644
 10
0.544051
 20
1.533292
 10
0.54375
 20
1.527778
 10
0.544167
 20
1.521639
 10
0.545372
 20
1.515733
 10
0.547295
 20
1.510089
 10
0.549868
 20
1.504734
 10
0.553022
 20
1.4997
 10
0.556688
 20
1.495014
 10
0.560796
 20
1.490706
 10
0.565278
 20
1.486806
 10
0.551554
 20
1.482724
 10
0.537988
 20
1.478028
 10
0.511458
 20
1.467708
 10
0.513042
 20
1.475007
 10
0.513542
 20
1.482639
 10
0.513241
 20
1.488153
 10
0.512362
 20
1.493505
 10
0.510936
 20
1.498668
 10
0.508996
 20
1.503617
 10
0.506576
 20
1.508323
 10
0.503709
 20
1.51276
 10
0.500427
 20
1.516901
 10
0.496762
 20
1.52072
 10
0.492749
 20
1.524191
 10
0.488419
 20
1.527285
 10
0.483806
 20
1.529976
 10
0.478942
 20
1.532238
 10
0.473861
 20
1.534045
 10
0.468594
 20
1.535368
 10
0.463176
 20
1.536181
 10
0.457639
 20
1.536458
 10
0.452129
 20
1.536181
 10
0.446788
 20
1.535368
 10
0.441641
 20
1.534045
 10
0.436715
 20
1.532238
 10
0.432036
 20
1.529976
 10
0.427628
 20
1.527285
 10
0.423518
 20
1.524191
 10
0.419731
 20
1.52072
 10
0.416293
 20
1.516901
 10
0.41323
 20
1.51276
 10
0.410568
 20
1.508323
 10
0.408332
 20
1.503617
 10
0.406548
 20
1.498668
 10
0.405242
 20
1.493505
 10
0.40444
 20
1.488153
 10
0.404167
 20
1.482639
 10
0.404342
 20
1.478241
 10
0.404859
 20
1.473971
 10
0.405705
 20
1.469838
 10
0.406867
 20
1.465851
 10
0.408331
 20
1.462022
 10
0.410085
 20
1.458358
 10
0.412114
 20
1.45487
 10
0.414406
 20
1.451568
 10
0.416948
 20
1.448461
 10
0.419727
 20
1.445558
 10
0.422728
 20
1.44287
 10
0.42594
 20
1.440406
 10
0.429349
 20
1.438177
 10
0.432941
 20
1.43619
 10
0.436705
 20
1.434457
 10
0.440625
 20
1.432986
 10
0.429442
 20
1.425577
 10
0.418665
 20
1.417618
 10
0.397569
 20
1.401042
 10
0.397569
 20
1.405208
 10
0.397292
 20
1.410722
 10
0.396479
 20
1.416074
 10
0.395156
 20
1.421238
 10
0.39335
 20
1.426186
 10
0.391087
 20
1.430892
 10
0.388396
 20
1.435329
 10
0.385302
 20
1.439471
 10
0.381832
 20
1.44329
 10
0.378012
 20
1.44676
 10
0.373871
 20
1.449854
 10
0.369434
 20
1.452546
 10
0.364728
 20
1.454808
 10
0.35978
 20
1.456614
 10
0.354616
 20
1.457937
 10
0.349264
 20
1.458751
 10
0.34375
 20
1.459028
 10
0.33824
 20
1.458751
 10
0.332899
 20
1.457937
 10
0.327753
 20
1.456614
 10
0.322827
 20
1.454808
 10
0.318147
 20
1.452546
 10
0.313739
 20
1.449854
 10
0.309629
 20
1.44676
 10
0.305842
 20
1.44329
 10
0.302404
 20
1.439471
 10
0.299341
 20
1.435329
 10
0.296679
 20
1.430892
 10
0.294443
 20
1.426186
 10
0.29266
 20
1.421238
 10
0.291353
 20
1.416074
 10
0.290551
 20
1.410722
 10
0.290278
 20
1.405208
 10
0.290539
 20
1.399826
 10
0.291305
 20
1.394595
 10
0.292553
 20
1.389542
 10
0.294258
 20
1.384692
 10
0.296397
 20
1.380068
 10
0.298946
 20
1.375698
 10
0.30188
 20
1.371605
 10
0.305175
 20
1.367814
 10
0.308808
 20
1.364351
 10
0.312754
 20
1.361241
 10
0.31699
 20
1.358509
 10
0.321491
 20
1.356179
 10
0.326233
 20
1.354277
 10
0.331192
 20
1.352828
 10
0.336345
 20
1.351857
 10
0.341667
 20
1.351389
 10
0.329083
 20
1.337577
 10
0.317071
 20
1.323328
 10
0.305551
 20
1.308613
 10
0.294444
 20
1.293403
 10
0.294444
 20
1.297917
 10
0.294167
 20
1.303427
 10
0.293354
 20
1.308768
 10
0.292031
 20
1.313914
 10
0.290225
 20
1.31884
 10
0.287962
 20
1.32352
 10
0.285271
 20
1.327928
 10
0.282177
 20
1.332038
 10
0.278707
 20
1.335825
 10
0.274887
 20
1.339262
 10
0.270746
 20
1.342325
 10
0.266309
 20
1.344987
 10
0.261603
 20
1.347223
 10
0.256655
 20
1.349007
 10
0.251491
 20
1.350313
 10
0.246139
 20
1.351116
 10
0.240625
 20
1.351389
 10
0.235111
 20
1.351116
 10
0.229759
 20
1.350313
 10
0.224595
 20
1.349007
 10
0.219647
 20
1.347223
 10
0.214941
 20
1.344987
 10
0.210504
 20
1.342325
 10
0.206363
 20
1.339262
 10
0.202543
 20
1.335825
 10
0.199073
 20
1.332038
 10
0.195979
 20
1.327928
 10
0.193288
 20
1.32352
 10
0.191025
 20
1.31884
 10
0.189219
 20
1.313914
 10
0.187896
 20
1.308768
 10
0.187083
 20
1.303427
 10
0.186806
 20
1.297917
 10
0.187083
 20
1.292403
 10
0.187896
 20
1.287051
 10
0.189219
 20
1.281887
 10
0.191025
 20
1.276939
 10
0.193288
 20
1.272233
 10
0.195979
 20
1.267796
 10
0.199073
 20
1.263654
 10
0.202543
 20
1.259835
 10
0.206363
 20
1.256365
 10
0.210504
 20
1.253271
 10
0.214941
 20
1.250579
 10
0.219647
 20
1.248317
 10
0.224595
 20
1.246511
 10
0.229759
 20
1.245188
 10
0.235111
 20
1.244374
 10
0.240625
 20
1.244097
 10
0.247516
 20
1.244505
 10
0.254266
 20
1.245707
 10
0.260705
 20
1.247666
 10
0.266667
 20
1.250347
 10
0.256385
 20
1.231692
 10
0.246858
 20
1.212707
 10
0.238034
 20
1.193271
 10
0.229861
 20
1.173264
 10
0.229588
 20
1.178774
 10
0.228785
 20
1.184115
 10
0.227479
 20
1.189261
 10
0.225696
 20
1.194187
 10
0.22346
 20
1.198867
 10
0.220797
 20
1.203275
 10
0.217735
 20
1.207385
 10
0.214297
 20
1.211172
 10
0.21051
 20
1.21461
 10
0.2064
 20
1.217672
 10
0.201992
 20
1.220335
 10
0.197312
 20
1.222571
 10
0.192386
 20
1.224354
 10
0.18724
 20
1.22566
 10
0.181899
 20
1.226463
 10
0.176389
 20
1.226736
 10
0.170875
 20
1.226463
 10
0.165523
 20
1.22566
 10
0.160359
 20
1.224354
 10
0.155411
 20
1.222571
 10
0.150705
 20
1.220335
 10
0.146268
 20
1.217672
 10
0.142126
 20
1.21461
 10
0.138307
 20
1.211172
 10
0.134837
 20
1.207385
 10
0.131743
 20
1.203275
 10
0.129051
 20
1.198867
 10
0.126789
 20
1.194187
 10
0.124983
 20
1.189261
 10
0.12366
 20
1.184115
 10
0.122847
 20
1.178774
 10
0.122569
 20
1.173264
 10
0.122847
 20
1.167727
 10
0.12366
 20
1.162308
 10
0.124983
 20
1.157042
 10
0.126789
 20
1.151961
 10
0.129051
 20
1.147097
 10
0.131743
 20
1.142484
 10
0.134837
 20
1.138154
 10
0.138307
 20
1.134141
 10
0.142126
 20
1.130476
 10
0.146268
 20
1.127194
 10
0.150705
 20
1.124326
 10
0.155411
 20
1.121906
 10
0.160359
 20
1.119967
 10
0.165523
 20
1.118541
 10
0.170875
 20
1.117662
 10
0.176389
 20
1.117361
 10
0.181922
 20
1.117672
 10
0.187327
 20
1.118578
 10
0.192567
 20
1.120042
 10
0.197602
 20
1.122024
 10
0.202395
 20
1.124487
 10
0.206906
 20
1.127392
 10
0.211098
 20
1.130701
 10
0.214931
 20
1.134375
 10
0.208658
 20
1.111817
 10
0.203427
 20
1.088908
 10
0.199087
 20
1.065643
 10
0.195486
 20
1.042014
 10
0.191643
 20
1.047548
 10
0.187203
 20
1.052538
 10
0.182207
 20
1.056925
 10
0.176698
 20
1.060648
 10
0.170716
 20
1.063647
 10
0.164303
 20
1.065863
 10
0.157499
 20
1.067237
 10
0.150347
 20
1.067708
 10
0.144837
 20
1.067435
 10
0.139496
 20
1.066633
 10
0.13435
 20
1.065327
 10
0.129424
 20
1.063543
 10
0.124744
 20
1.061307
 10
0.120336
 20
1.058645
 10
0.116226
 20
1.055582
 10
0.112439
 20
1.052144
 10
0.109002
 20
1.048357
 10
0.105939
 20
1.044247
 10
0.103276
 20
1.039839
 10
0.101041
 20
1.03516
 10
0.099257
 20
1.030234
 10
0.097951
 20
1.025087
 10
0.097148
 20
1.019746
 10
0.096875
 20
1.014236
 10
0.097148
 20
1.008722
 10
0.097951
 20
1.00337
 10
0.099257
 20
0.998207
 10
0.101041
 20
0.993258
 10
0.103276
 20
0.988552
 10
0.105939
 20
0.984115
 10
0.109002
 20
0.979974
 10
0.112439
 20
0.976155
 10
0.116226
 20
0.972684
 10
0.120336
 20
0.96959
 10
0.124744
 20
0.966899
 10
0.129424
 20
0.964637
 10
0.13435
 20
0.96283
 10
0.139496
 20
0.961507
 10
0.144837
 20
0.960694
 10
0.150347
 20
0.960417
 10
0.155895
 20
0.96066
 10
0.16134
 20
0.961384
 10
0.166635
 20
0.962581
 10
0.171734
 20
0.964241
 10
0.176591
 20
0.966357
 10
0.181158
 20
0.968919
 10
0.185388
 20
0.971918
 10
0.189236
 20
0.975347
 10
0.188026
 20
0.960035
 10
0.186806
 20
0.945139
 10
0.183748
 20
0.946448
 10
0.180556
 20
0.947569
 10
0.169989
 20
0.950701
 10
0.160307
 20
0.952458
 10
0.151298
 20
0.953118
 10
0.142754
 20
0.952958
 10
0.126217
 20
0.951291
 10
0.117805
 20
0.950339
 10
0.109017
 20
0.949679
 10
0.099644
 20
0.949587
 10
0.089475
 20
0.950342
 10
0.078301
 20
0.95222
 10
0.065911
 20
0.955501
 10
0.059195
 20
0.957754
 10
0.052096
 20
0.960461
 10
0.044588
 20
0.963658
 10
0.036646
 20
0.967378
 10
0.028242
 20
0.971658
 10
0.01935
 20
0.97653
 10
0.0
 20
0.988194
 10
0.022464
 20
0.95709
 10
0.045156
 20
0.924662
 10
0.0679
 20
0.891018
 10
0.090517
 20
0.856266
 10
0.112833
 20
0.820513
 10
0.134669
 20
0.783867
 10
0.15585
 20
0.746436
 10
0.1762
 20
0.708328
 10
0.186007
 20
0.689054
 10
0.19554
 20
0.669651
 10
0.204777
 20
0.650132
 10
0.213696
 20
0.630511
 10
0.222274
 20
0.610802
 10
0.230489
 20
0.591018
 10
0.23832
 20
0.571172
 10
0.245744
 20
0.551278
 10
0.25274
 20
0.53135
 10
0.259284
 20
0.511401
 10
0.265356
 20
0.491443
 10
0.270932
 20
0.471492
 10
0.275992
 20
0.45156
 10
0.280512
 20
0.43166
 10
0.284471
 20
0.411807
 10
0.287847
 20
0.392014
 10
0.288294
 20
0.385864
 10
0.289493
 20
0.380391
 10
0.291377
 20
0.375465
 10
0.293878
 20
0.370957
 10
0.296928
 20
0.366737
 10
0.300457
 20
0.362676
 10
0.308681
 20
0.354514
 10
0.316473
 20
0.349255
 10
0.325733
 20
0.344133
 10
0.336425
 20
0.339149
 10
0.348514
 20
0.334306
 10
0.361964
 20
0.329607
 10
0.376742
 20
0.325051
 10
0.39281
 20
0.320643
 10
0.410135
 20
0.316383
 10
0.42868
 20
0.312274
 10
0.448411
 20
0.308317
 10
0.469292
 20
0.304515
 10
0.491288
 20
0.30087
 10
0.514364
 20
0.297383
 10
0.538485
 20
0.294057
 10
0.589719
 20
0.287894
 10
0.644708
 20
0.282397
 10
0.703172
 20
0.277582
 10
0.764827
 20
0.273464
 10
0.829391
 20
0.270059
 10
0.896584
 20
0.267383
 10
0.966123
 20
0.265452
 10
1.037726
 20
0.264282
 10
1.111111
 20
0.263889
 10
1.184496
 20
0.264282
 10
1.256099
 20
0.265452
 10
1.325638
 20
0.267383
 10
1.392831
 20
0.270059
 10
1.457396
 20
0.273464
 10
1.519051
 20
0.277582
 10
1.577514
 20
0.282397
 10
1.632503
 20
0.287894
 10
1.683738
 20
0.294057
 10
1.707858
 20
0.297383
 10
1.730934
 20
0.30087
 10
1.75293
 20
0.304515
 10
1.773812
 20
0.308317
 10
1.793542
 20
0.312274
 10
1.812088
 20
0.316383
 10
1.829412
 20
0.320643
 10
1.845481
 20
0.325051
 10
1.860258
 20
0.329607
 10
1.873709
 20
0.334306
 10
1.885798
 20
0.339149
 10
1.89649
 20
0.344133
 10
1.905749
 20
0.349255
 10
1.913542
 20
0.354514
 10
1.921766
 20
0.362676
 10
1.925295
 20
0.366737
 10
1.928344
 20
0.370957
 10
1.930845
 20
0.375465
 10
1.932729
 20
0.380391
 10
1.933929
 20
0.385864
 10
1.934375
 20
0.392014
 10
1.937751
 20
0.411807
 10
1.94171
 20
0.43166
 10
1.94623
 20
0.45156
 10
1.95129
 20
0.471492
 10
1.956867
 20
0.491443
 10
1.962938
 20
0.511401
 10
1.969483
 20
0.53135
 10
1.976478
 20
0.551278
 10
1.983902
 20
0.571172
 10
1.991733
 20
0.591018
 10
1.999949
 20
0.610802
 10
2.008527
 20
0.630511
 10
2.017445
 20
0.650132
 10
2.026682
 20
0.669651
 10
2.046023
 20
0.708328
 10
2.066372
 20
0.746436
 10
2.087553
 20
0.783867
 10
2.10939
 20
0.820513
 10
2.131705
 20
0.856266
 10
2.154323
 20
0.891018
 10
2.177066
 20
0.924662
 10
2.199758
 20
0.95709
 10
2.222222
 20
0.988194
 10
2.202872
 20
0.97653
 10
2.185576
 20
0.967378
 10
2.170126
 20
0.960461
 10
2.156311
 20
0.955501
 10
2.143921
 20
0.95222
 10
2.132747
 20
0.950342
 10
2.122578
 20
0.949587
 10
2.113205
 20
0.949679
 10
2.096005
 20
0.951291
 10
2.087759
 20
0.952257
 10
2.079468
 20
0.952958
 10
2.070924
 20
0.953118
 10
2.061915
 20
0.952458
 10
2.052233
 20
0.950701
 10
2.047073
 20
0.949324
 10
2.041667
 20
0.947569
 10
2.038474
 20
0.946448
 10
2.035417
 20
0.945139
 10
2.034196
 20
0.960035
 10
2.032986
 20
0.975347
 10
2.036834
 20
0.971918
 10
2.041064
 20
0.968919
 10
2.045631
 20
0.966357
 10
2.050488
 20
0.964241
 10
2.055587
 20
0.962581
 10
2.060883
 20
0.961384
 10
2.066327
 20
0.96066
 10
2.071875
 20
0.960417
 10
2.077385
 20
0.960694
 10
2.082726
 20
0.961507
 10
2.087872
 20
0.96283
 10
2.092798
 20
0.964637
 10
2.097478
 20
0.966899
 10
2.101886
 20
0.96959
 10
2.105996
 20
0.972684
 10
2.109783
 20
0.976155
 10
2.113221
 20
0.979974
 10
2.116284
 20
0.984115
 10
2.118946
 20
0.988552
 10
2.121182
 20
0.993258
 10
2.122965
 20
0.998207
 10
2.124272
 20
1.00337
 10
2.125074
 20
1.008722
 10
2.125347
 20
1.014236
 10
2.125074
 20
1.019746
 10
2.124272
 20
1.025087
 10
2.122965
 20
1.030234
 10
2.121182
 20
1.03516
 10
2.118946
 20
1.039839
 10
2.116284
 20
1.044247
 10
2.113221
 20
1.048357
 10
2.109783
 20
1.052144
 10
2.105996
 20
1.055582
 10
2.101886
 20
1.058645
 10
2.097478
 20
1.061307
 10
2.092798
 20
1.063543
 10
2.087872
 20
1.065327
 10
2.082726
 20
1.066633
 10
2.077385
 20
1.067435
 10
2.071875
 20
1.067708
 10
2.064723
 20
1.067237
 10
2.05792
 20
1.065863
 10
2.051506
 20
1.063647
 10
2.045524
 20
1.060648
 10
2.040015
 20
1.056925
 10
2.03502
 20
1.052538
 10
2.030579
 20
1.047548
 10
2.026736
 20
1.042014
 10
2.023135
 20
1.065643
 10
2.018795
 20
1.088908
 10
2.013564
 20
1.111817
 10
2.007292
 20
1.134375
 10
2.011124
 20
1.130701
 10
2.015316
 20
1.127392
 10
2.019827
 20
1.124487
 10
2.02462
 20
1.122024
 10
2.029655
 20
1.120042
 10
2.034895
 20
1.118578
 10
2.040301
 20
1.117672
 10
2.045833
 20
1.117361
 10
2.051347
 20
1.117662
 10
2.056699
 20
1.118541
 10
2.061863
 20
1.119967
 10
2.066811
 20
1.121906
 10
2.071517
 20
1.124326
 10
2.075954
 20
1.127194
 10
2.080096
 20
1.130476
 10
2.083915
 20
1.134141
 10
2.087385
 20
1.138154
 10
2.090479
 20
1.142484
 10
2.093171
 20
1.147097
 10
2.095433
 20
1.151961
 10
2.097239
 20
1.157042
 10
2.098562
 20
1.162308
 10
2.099376
 20
1.167727
 10
2.099653
 20
1.173264
 10
2.099376
 20
1.178774
 10
2.098562
 20
1.184115
 10
2.097239
 20
1.189261
 10
2.095433
 20
1.194187
 10
2.093171
 20
1.198867
 10
2.090479
 20
1.203275
 10
2.087385
 20
1.207385
 10
2.083915
 20
1.211172
 10
2.080096
 20
1.21461
 10
2.075954
 20
1.217672
 10
2.071517
 20
1.220335
 10
2.066811
 20
1.222571
 10
2.061863
 20
1.224354
 10
2.056699
 20
1.22566
 10
2.051347
 20
1.226463
 10
2.045833
 20
1.226736
 10
2.040323
 20
1.226463
 10
2.034982
 20
1.22566
 10
2.029836
 20
1.224354
 10
2.02491
 20
1.222571
 10
2.02023
 20
1.220335
 10
2.015822
 20
1.217672
 10
2.011712
 20
1.21461
 10
2.007925
 20
1.211172
 10
2.004488
 20
1.207385
 10
2.001425
 20
1.203275
 10
1.998763
 20
1.198867
 10
1.996527
 20
1.194187
 10
1.994743
 20
1.189261
 10
1.993437
 20
1.184115
 10
1.992634
 20
1.178774
 10
1.992361
 20
1.173264
 10
1.984188
 20
1.193271
 10
1.975365
 20
1.212707
 10
1.965838
 20
1.231692
 10
1.955556
 20
1.250347
 10
1.961517
 20
1.247666
 10
1.967957
 20
1.245707
 10
1.974706
 20
1.244505
 10
1.981597
 20
1.244097
 10
1.987111
 20
1.244374
 10
1.992463
 20
1.245188
 10
1.997627
 20
1.246511
 10
2.002575
 20
1.248317
 10
2.007281
 20
1.250579
 10
2.011718
 20
1.253271
 10
2.01586
 20
1.256365
 10
2.019679
 20
1.259835
 10
2.023149
 20
1.263654
 10
2.026243
 20
1.267796
 10
2.028935
 20
1.272233
 10
2.031197
 20
1.276939
 10
2.033003
 20
1.281887
 10
2.034326
 20
1.287051
 10
2.03514
 20
1.292403
 10
2.035417
 20
1.297917
 10
2.03514
 20
1.303427
 10
2.034326
 20
1.308768
 10
2.033003
 20
1.313914
 10
2.031197
 20
1.31884
 10
2.028935
 20
1.32352
 10
2.026243
 20
1.327928
 10
2.023149
 20
1.332038
 10
2.019679
 20
1.335825
 10
2.01586
 20
1.339262
 10
2.011718
 20
1.342325
 10
2.007281
 20
1.344987
 10
2.002575
 20
1.347223
 10
1.997627
 20
1.349007
 10
1.992463
 20
1.350313
 10
1.987111
 20
1.351116
 10
1.981597
 20
1.351389
 10
1.976083
 20
1.351116
 10
1.970731
 20
1.350313
 10
1.965568
 20
1.349007
 10
1.96062
 20
1.347223
 10
1.955914
 20
1.344987
 10
1.951476
 20
1.342325
 10
1.947335
 20
1.339262
 10
1.943516
 20
1.335825
 10
1.940046
 20
1.332038
 10
1.936951
 20
1.327928
 10
1.93426
 20
1.32352
 10
1.931998
 20
1.31884
 10
1.930192
 20
1.313914
 10
1.928868
 20
1.308768
 10
1.928055
 20
1.303427
 10
1.927778
 20
1.297917
 10
1.927778
 20
1.293403
 10
1.916671
 20
1.308613
 10
1.905151
 20
1.323328
 10
1.893139
 20
1.337577
 10
1.880556
 20
1.351389
 10
1.885877
 20
1.351857
 10
1.89103
 20
1.352828
 10
1.895989
 20
1.354277
 10
1.900732
 20
1.356179
 10
1.905232
 20
1.358509
 10
1.909468
 20
1.361241
 10
1.913414
 20
1.364351
 10
1.917047
 20
1.367814
 10
1.920342
 20
1.371605
 10
1.923276
 20
1.375698
 10
1.925825
 20
1.380068
 10
1.927964
 20
1.384692
 10
1.929669
 20
1.389542
 10
1.930917
 20
1.394595
 10
1.931684
 20
1.399826
 10
1.931944
 20
1.405208
 10
1.931671
 20
1.410722
 10
1.930869
 20
1.416074
 10
1.929563
 20
1.421238
 10
1.927779
 20
1.426186
 10
1.925543
 20
1.430892
 10
1.922881
 20
1.435329
 10
1.919818
 20
1.439471
 10
1.91638
 20
1.44329
 10
1.912593
 20
1.44676
 10
1.908483
 20
1.449854
 10
1.904075
 20
1.452546
 10
1.899396
 20
1.454808
 10
1.89447
 20
1.456614
 10
1.889323
 20
1.457937
 10
1.883982
 20
1.458751
 10
1.878472
 20
1.459028
 10
1.872958
 20
1.458751
 10
1.867606
 20
1.457937
 10
1.862443
 20
1.456614
 10
1.857495
 20
1.454808
 10
1.852789
 20
1.452546
 10
1.848351
 20
1.449854
 10
1.84421
 20
1.44676
 10
1.840391
 20
1.44329
 10
1.836921
 20
1.439471
 10
1.833826
 20
1.435329
 10
1.831135
 20
1.430892
 10
1.828873
 20
1.426186
 10
1.827067
 20
1.421238
 10
1.825743
 20
1.416074
 10
1.82493
 20
1.410722
 10
1.824653
 20
1.405208
 10
1.824653
 20
1.401042
 10
1.803557
 20
1.417618
 10
1.79278
 20
1.425577
 10
1.781597
 20
1.432986
 10
1.785518
 20
1.434457
 10
1.789281
 20
1.43619
 10
1.792873
 20
1.438177
 10
1.796282
 20
1.440406
 10
1.799494
 20
1.44287
 10
1.802496
 20
1.445558
 10
1.805274
 20
1.448461
 10
1.807816
 20
1.451568
 10
1.810108
 20
1.45487
 10
1.812138
 20
1.458358
 10
1.813891
 20
1.462022
 10
1.815355
 20
1.465851
 10
1.816517
 20
1.469838
 10
1.817363
 20
1.473971
 10
1.81788
 20
1.478241
 10
1.818056
 20
1.482639
 10
1.817782
 20
1.488153
 10
1.81698
 20
1.493505
 10
1.815674
 20
1.498668
 10
1.81389
 20
1.503617
 10
1.811654
 20
1.508323
 10
1.808992
 20
1.51276
 10
1.805929
 20
1.516901
 10
1.802491
 20
1.52072
 10
1.798705
 20
1.524191
 10
1.794594
 20
1.527285
 10
1.790186
 20
1.529976
 10
1.785507
 20
1.532238
 10
1.780581
 20
1.534045
 10
1.775434
 20
1.535368
 10
1.770093
 20
1.536181
 10
1.764583
 20
1.536458
 10
1.759046
 20
1.536181
 10
1.753628
 20
1.535368
 10
1.748362
 20
1.534045
 10
1.74328
 20
1.532238
 10
1.738416
 20
1.529976
 10
1.733803
 20
1.527285
 10
1.729474
 20
1.524191
 10
1.72546
 20
1.52072
 10
1.721796
 20
1.516901
 10
1.718513
 20
1.51276
 10
1.715646
 20
1.508323
 10
1.713226
 20
1.503617
 10
1.711287
 20
1.498668
 10
1.709861
 20
1.493505
 10
1.708981
 20
1.488153
 10
1.708681
 20
1.482639
 10
1.709181
 20
1.475007
 10
1.709829
 20
1.471303
 10
1.710764
 20
1.467708
 10
1.684234
 20
1.478028
 10
1.670668
 20
1.482724
 10
1.656944
 20
1.486806
 10
1.661426
 20
1.490706
 10
1.665535
 20
1.495014
 10
1.6692
 20
1.4997
 10
1.672354
 20
1.504734
 10
1.674927
 20
1.510089
 10
1.676851
 20
1.515733
 10
1.678055
 20
1.521639
 10
1.678472
 20
1.527778
 10
1.678172
 20
1.533292
 10
1.677292
 20
1.538644
 10
1.675866
 20
1.543807
 10
1.673927
 20
1.548755
 10
1.671507
 20
1.553461
 10
1.668639
 20
1.557899
 10
1.665357
 20
1.56204
 10
1.661693
 20
1.565859
 10
1.657679
 20
1.569329
 10
1.653349
 20
1.572424
 10
1.648736
 20
1.575115
 10
1.643873
 20
1.577377
 10
1.638791
 20
1.579183
 10
1.633525
 20
1.580507
 10
1.628107
 20
1.58132
 10
1.622569
 20
1.581597
 10
1.617056
 20
1.58132
 10
1.611703
 20
1.580507
 10
1.60654
 20
1.579183
 10
1.601592
 20
1.577377
 10
1.596886
 20
1.575115
 10
1.592449
 20
1.572424
 10
1.588307
 20
1.569329
 10
1.584488
 20
1.565859
 10
1.581018
 20
1.56204
 10
1.577924
 20
1.557899
 10
1.575232
 20
1.553461
 10
1.57297
 20
1.548755
 10
1.571164
 20
1.543807
 10
1.569841
 20
1.538644
 10
1.569027
 20
1.533292
 10
1.56875
 20
1.527778
 10
1.568919
 20
1.523949
 10
1.569407
 20
1.520188
 10
1.571226
 20
1.512913
 10
1.573977
 20
1.506039
 10
1.577431
 20
1.499653
 10
1.555049
 20
1.501405
 10
1.543845
 20
1.501905
 10
1.532292
 20
1.502083
 10
1.515278
 20
1.502083
 10
1.521138
 20
1.509732
 10
1.523676
 20
1.513778
 10
1.525878
 20
1.517979
 10
1.527689
 20
1.522342
 10
1.529051
 20
1.526872
 10
1.52991
 20
1.531576
 10
1.530208
 20
1.536458
 10
1.529908
 20
1.541968
 10
1.529028
 20
1.547309
 10
1.527602
 20
1.552456
 10
1.525663
 20
1.557382
 10
1.523243
 20
1.562061
 10
1.520376
 20
1.566469
 10
1.517093
 20
1.57058
 10
1.513429
 20
1.574366
 10
1.509415
 20
1.577804
 10
1.505086
 20
1.580867
 10
1.500472
 20
1.583529
 10
1.495609
 20
1.585765
 10
1.490527
 20
1.587549
 10
1.485261
 20
1.588855
 10
1.479843
 20
1.589657
 10
1.474306
 20
1.589931
 10
1.468792
 20
1.589657
 10
1.46344
 20
1.588855
 10
1.458276
 20
1.587549
 10
1.453328
 20
1.585765
 10
1.448622
 20
1.583529
 10
1.444185
 20
1.580867
 10
1.440043
 20
1.577804
 10
1.436224
 20
1.574366
 10
1.432754
 20
1.57058
 10
1.42966
 20
1.566469
 10
1.426968
 20
1.562061
 10
1.424706
 20
1.557382
 10
1.4229
 20
1.552456
 10
1.421577
 20
1.547309
 10
1.420763
 20
1.541968
 10
1.420486
 20
1.536458
 10
1.42088
 20
1.529987
 10
1.42203
 20
1.523776
 10
1.423885
 20
1.517851
 10
1.426396
 20
1.512238
 10
1.429514
 20
1.506961
 10
1.433189
 20
1.502046
 10
1.437372
 20
1.497518
 10
1.442014
 20
1.493403
 10
1.42387
 20
1.489926
 10
1.406082
 20
1.486009
 10
1.388551
 20
1.481448
 10
1.371181
 20
1.476042
 10
1.372974
 20
1.481071
 10
1.37428
 20
1.486425
 10
1.375077
 20
1.491969
 10
1.375347
 20
1.497569
 10
1.375074
 20
1.503083
 10
1.374272
 20
1.508435
 10
1.372965
 20
1.513599
 10
1.371182
 20
1.518547
 10
1.368946
 20
1.523253
 10
1.366284
 20
1.52769
 10
1.363221
 20
1.531832
 10
1.359783
 20
1.535651
 10
1.355996
 20
1.539121
 10
1.351886
 20
1.542215
 10
1.347478
 20
1.544907
 10
1.342798
 20
1.547169
 10
1.337872
 20
1.548975
 10
1.332726
 20
1.550298
 10
1.327385
 20
1.551112
 10
1.321875
 20
1.551389
 10
1.316338
 20
1.551112
 10
1.310919
 20
1.550298
 10
1.305653
 20
1.548975
 10
1.300572
 20
1.547169
 10
1.295708
 20
1.544907
 10
1.291095
 20
1.542215
 10
1.286765
 20
1.539121
 10
1.282752
 20
1.535651
 10
1.279087
 20
1.531832
 10
1.275805
 20
1.52769
 10
1.272937
 20
1.523253
 10
1.270518
 20
1.518547
 10
1.268578
 20
1.513599
 10
1.267152
 20
1.508435
 10
1.266273
 20
1.503083
 10
1.265972
 20
1.497569
 10
1.266165
 20
1.493176
 10
1.266732
 20
1.488916
 10
1.267657
 20
1.4848
 10
1.268922
 20
1.480836
 10
1.270511
 20
1.477033
 10
1.272407
 20
1.473398
 10
1.274592
 20
1.469942
 10
1.27705
 20
1.466672
 10
1.279765
 20
1.463597
 10
1.282718
 20
1.460726
 10
1.289275
 20
1.45563
 10
1.296585
 20
1.451453
 10
1.304514
 20
1.448264
 10
1.287714
 20
1.439034
 10
1.271436
 20
1.428997
 10
1.255551
 20
1.41835
 10
1.239931
 20
1.407292
 10
1.241422
 20
1.415894
 10
1.242085
 20
1.420255
 10
1.242361
 20
1.424653
 10
1.241872
 20
1.436186
 10
1.240433
 20
1.447468
 10
1.238085
 20
1.45846
 10
1.234868
 20
1.469125
 10
1.230823
 20
1.479424
 10
1.225991
 20
1.48932
 10
1.220414
 20
1.498772
 10
1.214132
 20
1.507745
 10
1.207186
 20
1.516198
 10
1.199616
 20
1.524095
 10
1.191464
 20
1.531397
 10
1.182771
 20
1.538065
 10
1.173578
 20
1.544061
 10
1.163924
 20
1.549348
 10
1.153853
 20
1.553887
 10
1.143403
 20
1.557639
 10
1.139646
 20
1.614056
 10
1.136887
 20
1.664123
 10
1.134722
 20
1.719097
 10
1.164434
 20
1.718025
 10
1.191681
 20
1.716528
 10
1.237027
 20
1.712954
 10
1.267245
 20
1.70976
 10
1.278819
 20
1.708333
 10
1.278819
 20
1.787847
 10
1.26731
 20
1.786724
 10
1.237199
 20
1.784193
 10
1.191875
 20
1.781319
 10
1.164565
 20
1.780086
 10
1.134722
 20
1.779167
 10
1.135266
 20
1.817182
 10
1.136729
 20
1.856144
 10
1.137883
 20
1.875755
 10
1.139359
 20
1.895333
 10
1.141189
 20
1.914787
 10
1.143403
 20
1.934028
 10
1.111111
 20
1.934028
 10
1.078819
 20
1.934028
  0
LWPOLYLINE
  5
2B
330
1F
100
AcDbEntity
  8
0
100
AcDbPolyline
 90
       65
 70
   128
 43
0.0
 10
1.111111
 20
1.516319
 10
1.119748
 20
1.515083
 10
1.128117
 20
1.513065
 10
1.136178
 20
1.510306
 10
1.143891
 20
1.506844
 10
1.151217
 20
1.502718
 10
1.158114
 20
1.497967
 10
1.164544
 20
1.49263
 10
1.170467
 20
1.486747
 10
1.175842
 20
1.480354
 10
1.18063
 20
1.473493
 10
1.184791
 20
1.466202
 10
1.188285
 20
1.458519
 10
1.191072
 20
1.450483
 10
1.193112
 20
1.442135
 10
1.194365
 20
1.433512
 10
1.194792
 20
1.424653
 10
1.194365
 20
1.415811
 10
1.193112
 20
1.407236
 10
1.191072
 20
1.398963
 10
1.188285
 20
1.391027
 10
1.184791
 20
1.383462
 10
1.18063
 20
1.376303
 10
1.175842
 20
1.369586
 10
1.170467
 20
1.363344
 10
1.164544
 20
1.357613
 10
1.158114
 20
1.352427
 10
1.151217
 20
1.347822
 10
1.143891
 20
1.343832
 10
1.136178
 20
1.340493
 10
1.128117
 20
1.337838
 10
1.119748
 20
1.335903
 10
1.111111
 20
1.334722
 10
1.102474
 20
1.335903
 10
1.094105
 20
1.337838
 10
1.086044
 20
1.340493
 10
1.078331
 20
1.343832
 10
1.071006
 20
1.347822
 10
1.064108
 20
1.352427
 10
1.057678
 20
1.357613
 10
1.051755
 20
1.363344
 10
1.04638
 20
1.369586
 10
1.041592
 20
1.376303
 10
1.037431
 20
1.383462
 10
1.033937
 20
1.391027
 10
1.03115
 20
1.398963
 10
1.02911
 20
1.407236
 10
1.027857
 20
1.415811
 10
1.027431
 20
1.424653
 10
1.027857
 20
1.433512
 10
1.02911
 20
1.442135
 10
1.03115
 20
1.450483
 10
1.033937
 20
1.458519
 10
1.037431
 20
1.466202
 10
1.041592
 20
1.473493
 10
1.04638
 20
1.480354
 10
1.051755
 20
1.486747
 10
1.057678
 20
1.49263
 10
1.064108
 20
1.497967
 10
1.071006
 20
1.502718
 10
1.078331
 20
1.506844
 10
1.086044
 20
1.510306
 10
1.094105
 20
1.513065
 10
1.102474
 20
1.515083
 10
1.111111
 20
1.516319
  0
LWPOLYLINE
  5
2C
330
1F
100
AcDbEntity
  8
0
100
AcDbPolyline
 90
      655
 70
   128
 43
0.0
 10
0.696181
 20
1.44375
 10
0.711131
 20
1.4435
 10
0.725956
 20
1.442757
 10
0.740646
 20
1.441528
 10
0.755195
 20
1.439821
 10
0.769595
 20
1.437645
 10
0.783838
 20
1.435008
 10
0.797917
 20
1.431918
 10
0.811825
 20
1.428383
 10
0.825553
 20
1.424411
 10
0.839095
 20
1.42001
 10
0.852443
 20
1.415189
 10
0.86559
 20
1.409956
 10
0.878527
 20
1.404319
 10
0.891248
 20
1.398285
 10
0.903745
 20
1.391864
 10
0.91601
 20
1.385063
 10
0.928037
 20
1.37789
 10
0.939817
 20
1.370354
 10
0.951343
 20
1.362462
 10
0.962607
 20
1.354224
 10
0.973602
 20
1.345646
 10
0.984321
 20
1.336738
 10
0.994756
 20
1.327507
 10
1.004899
 20
1.317961
 10
1.014744
 20
1.308109
 10
1.024282
 20
1.297959
 10
1.033505
 20
1.287518
 10
1.042408
 20
1.276796
 10
1.050981
 20
1.2658
 10
1.059218
 20
1.254538
 10
1.067111
 20
1.243019
 10
1.074653
 20
1.23125
 10
1.061934
 20
1.219033
 10
1.049264
 20
1.207441
 10
1.025
 20
1.186111
 10
1.020942
 20
1.182064
 10
1.017127
 20
1.177361
 10
1.013646
 20
1.172089
 10
1.01059
 20
1.166335
 10
1.00805
 20
1.160186
 10
1.006118
 20
1.153728
 10
1.004885
 20
1.147049
 10
1.004441
 20
1.140236
 10
1.004879
 20
1.133375
 10
1.006289
 20
1.126554
 10
1.008762
 20
1.119859
 10
1.012391
 20
1.113377
 10
1.014666
 20
1.110243
 10
1.017265
 20
1.107195
 10
1.020198
 20
1.104244
 10
1.023477
 20
1.1014
 10
1.027113
 20
1.098675
 10
1.031118
 20
1.096079
 10
1.035502
 20
1.093624
 10
1.040278
 20
1.091319
 10
1.033816
 20
1.090635
 10
1.028116
 20
1.089609
 10
1.023216
 20
1.088053
 10
1.019158
 20
1.085774
 10
1.017457
 20
1.084305
 10
1.015982
 20
1.082583
 10
1.014738
 20
1.080585
 10
1.013729
 20
1.078288
 10
1.012961
 20
1.075667
 10
1.012439
 20
1.072699
 10
1.012153
 20
1.065625
 10
1.008518
 20
1.071196
 10
1.004803
 20
1.076037
 10
0.997384
 20
1.085179
 10
0.993807
 20
1.090304
 10
0.990405
 20
1.09635
 10
0.987239
 20
1.103726
 10
0.984375
 20
1.112847
 10
0.980097
 20
1.116829
 10
0.975968
 20
1.120112
 10
0.971966
 20
1.122775
 10
0.96807
 20
1.124896
 10
0.96426
 20
1.126552
 10
0.960513
 20
1.127823
 10
0.953125
 20
1.129517
 10
0.945737
 20
1.130604
 10
0.93818
 20
1.131707
 10
0.930282
 20
1.13345
 10
0.926153
 20
1.134757
 10
0.921875
 20
1.136458
 10
0.924664
 20
1.127773
 10
0.926533
 20
1.118964
 10
0.928046
 20
1.110107
 10
0.929766
 20
1.101276
 10
0.932257
 20
1.092546
 10
0.933968
 20
1.088242
 10
0.936084
 20
1.083992
 10
0.938674
 20
1.079804
 10
0.94181
 20
1.075687
 10
0.945562
 20
1.071653
 10
0.95
 20
1.067708
 10
0.956782
 20
1.065993
 10
0.962872
 20
1.063927
 10
0.968334
 20
1.061511
 10
0.973234
 20
1.058741
 10
0.97764
 20
1.055617
 10
0.981615
 20
1.052136
 10
0.985227
 20
1.048297
 10
0.988542
 20
1.044097
 10
0.97935
 20
1.042163
 10
0.971776
 20
1.039627
 10
0.968561
 20
1.038121
 10
0.96571
 20
1.036452
 10
0.963208
 20
1.034614
 10
0.961042
 20
1.032602
 10
0.959198
 20
1.030413
 10
0.957663
 20
1.028041
 10
0.956423
 20
1.025482
 10
0.955464
 20
1.022732
 10
0.954335
 20
1.016638
 10
0.954167
 20
1.009722
 10
0.950615
 20
1.019404
 10
0.946095
 20
1.029927
 10
0.943517
 20
1.035122
 10
0.940751
 20
1.04007
 10
0.937813
 20
1.044617
 10
0.934722
 20
1.048611
 10
0.930114
 20
1.051186
 10
0.925128
 20
1.053226
 10
0.919828
 20
1.054746
 10
0.914276
 20
1.055759
 10
0.908536
 20
1.056279
 10
0.902671
 20
1.056319
 10
0.896745
 20
1.055892
 10
0.890819
 20
1.055014
 10
0.884959
 20
1.053696
 10
0.879225
 20
1.051954
 10
0.873683
 20
1.0498
 10
0.868394
 20
1.047248
 10
0.863423
 20
1.044312
 10
0.858831
 20
1.041005
 10
0.854683
 20
1.037341
 10
0.851042
 20
1.033333
 10
0.838133
 20
1.010537
 10
0.830923
 20
0.998724
 10
0.823262
 20
0.986955
 10
0.815189
 20
0.975471
 10
0.806743
 20
0.964513
 10
0.797963
 20
0.954322
 10
0.788889
 20
0.945139
 10
0.794706
 20
0.940486
 10
0.800085
 20
0.935767
 10
0.809701
 20
0.926169
 10
0.818075
 20
0.916421
 10
0.825543
 20
0.906597
 10
0.839117
 20
0.887026
 10
0.845898
 20
0.877428
 10
0.853125
 20
0.868056
 10
0.856739
 20
0.864385
 10
0.860931
 20
0.861207
 10
0.865624
 20
0.858504
 10
0.870741
 20
0.856262
 10
0.876204
 20
0.854463
 10
0.881937
 20
0.853092
 10
0.887863
 20
0.852133
 10
0.893905
 20
0.851569
 10
0.899985
 20
0.851385
 10
0.906026
 20
0.851565
 10
0.911952
 20
0.852092
 10
0.917686
 20
0.85295
 10
0.923149
 20
0.854124
 10
0.928267
 20
0.855596
 10
0.93296
 20
0.857352
 10
0.937153
 20
0.859375
 10
0.955382
 20
0.892708
 10
0.973611
 20
0.926042
 10
0.974502
 20
0.918925
 10
0.975924
 20
0.913196
 10
0.976892
 20
0.910821
 10
0.978061
 20
0.908757
 10
0.979454
 20
0.906989
 10
0.981095
 20
0.905507
 10
0.983007
 20
0.904298
 10
0.985213
 20
0.903349
 10
0.990597
 20
0.902182
 10
0.997433
 20
0.901909
 10
1.005903
 20
0.902431
 10
0.996814
 20
0.890766
 10
0.987997
 20
0.880372
 10
0.980059
 20
0.871806
 10
0.973611
 20
0.865625
 10
0.969945
 20
0.863437
 10
0.966641
 20
0.86105
 10
0.963692
 20
0.85846
 10
0.961089
 20
0.855667
 10
0.958825
 20
0.852668
 10
0.956892
 20
0.849462
 10
0.955284
 20
0.846046
 10
0.953993
 20
0.842418
 10
0.953011
 20
0.838578
 10
0.952331
 20
0.834522
 10
0.951845
 20
0.825756
 10
0.952477
 20
0.816106
 10
0.954167
 20
0.805556
 10
0.961236
 20
0.806736
 10
0.967598
 20
0.808112
 10
0.973295
 20
0.809684
 10
0.978368
 20
0.811455
 10
0.982859
 20
0.813424
 10
0.986811
 20
0.815595
 10
0.990265
 20
0.817967
 10
0.993264
 20
0.820542
 10
0.995849
 20
0.823321
 10
0.998063
 20
0.826306
 10
0.999948
 20
0.829499
 10
1.001546
 20
0.832899
 10
1.004047
 20
0.840331
 10
1.005903
 20
0.848611
 10
1.01102
 20
0.865058
 10
1.014299
 20
0.874145
 10
1.017917
 20
0.882727
 10
1.021769
 20
0.889997
 10
1.02375
 20
0.892887
 10
1.02575
 20
0.895144
 10
1.027757
 20
0.896669
 10
1.029756
 20
0.89736
 10
1.031735
 20
0.897115
 10
1.033681
 20
0.895833
 10
1.034837
 20
0.88913
 10
1.035951
 20
0.884295
 10
1.037227
 20
0.881086
 10
1.038866
 20
0.879259
 10
1.041073
 20
0.87857
 10
1.04405
 20
0.878777
 10
1.053125
 20
0.880903
 10
1.052859
 20
0.870965
 10
1.05177
 20
0.860907
 10
1.049907
 20
0.850774
 10
1.047321
 20
0.84061
 10
1.04406
 20
0.83046
 10
1.040173
 20
0.820369
 10
1.035711
 20
0.810383
 10
1.030722
 20
0.800547
 10
1.025256
 20
0.790905
 10
1.019362
 20
0.781502
 10
1.01309
 20
0.772384
 10
1.006488
 20
0.763596
 10
0.999607
 20
0.755182
 10
0.992495
 20
0.747188
 10
0.985202
 20
0.739659
 10
0.977778
 20
0.732639
 10
0.970131
 20
0.727428
 10
0.962357
 20
0.722657
 10
0.954466
 20
0.718321
 10
0.946468
 20
0.714417
 10
0.938373
 20
0.710942
 10
0.93019
 20
0.707893
 10
0.921931
 20
0.705265
 10
0.913606
 20
0.703057
 10
0.905224
 20
0.701264
 10
0.896795
 20
0.699883
 10
0.88833
 20
0.698911
 10
0.87984
 20
0.698344
 10
0.871333
 20
0.69818
 10
0.86282
 20
0.698414
 10
0.854312
 20
0.699044
 10
0.845818
 20
0.700066
 10
0.837348
 20
0.701477
 10
0.828913
 20
0.703273
 10
0.820524
 20
0.705451
 10
0.812188
 20
0.708008
 10
0.803918
 20
0.71094
 10
0.795724
 20
0.714244
 10
0.787614
 20
0.717917
 10
0.7796
 20
0.721955
 10
0.771692
 20
0.726356
 10
0.763899
 20
0.731115
 10
0.756232
 20
0.736229
 10
0.748701
 20
0.741695
 10
0.741316
 20
0.74751
 10
0.734087
 20
0.753671
 10
0.727025
 20
0.760173
 10
0.720139
 20
0.767014
 10
0.690401
 20
0.797646
 10
0.668403
 20
0.820486
 10
0.672996
 20
0.818704
 10
0.67775
 20
0.817398
 10
0.682692
 20
0.816594
 10
0.687847
 20
0.816319
 10
0.692832
 20
0.816555
 10
0.697686
 20
0.817247
 10
0.702382
 20
0.818376
 10
0.706895
 20
0.819921
 10
0.711198
 20
0.821862
 10
0.715264
 20
0.824178
 10
0.719068
 20
0.82685
 10
0.722583
 20
0.829858
 10
0.725783
 20
0.83318
 10
0.728642
 20
0.836796
 10
0.731133
 20
0.840687
 10
0.73323
 20
0.844831
 10
0.734907
 20
0.849209
 10
0.736137
 20
0.853801
 10
0.736894
 20
0.858585
 10
0.737153
 20
0.863542
 10
0.736894
 20
0.868526
 10
0.736137
 20
0.873387
 10
0.734907
 20
0.878098
 10
0.73323
 20
0.882632
 10
0.731133
 20
0.88696
 10
0.728642
 20
0.891056
 10
0.725783
 20
0.894892
 10
0.722583
 20
0.898441
 10
0.719068
 20
0.901675
 10
0.715264
 20
0.904567
 10
0.711198
 20
0.907089
 10
0.706895
 20
0.909214
 10
0.702382
 20
0.910914
 10
0.697686
 20
0.912163
 10
0.692832
 20
0.912932
 10
0.687847
 20
0.913194
 10
0.68285
 20
0.912817
 10
0.677807
 20
0.911813
 10
0.672923
 20
0.91037
 10
0.668403
 20
0.908681
 10
0.66983
 20
0.914984
 10
0.670305
 20
0.91828
 10
0.670486
 20
0.921528
 10
0.670251
 20
0.926489
 10
0.66956
 20
0.931284
 10
0.668432
 20
0.935892
 10
0.666889
 20
0.940293
 10
0.66495
 20
0.944463
 10
0.662635
 20
0.948383
 10
0.659964
 20
0.952031
 10
0.656958
 20
0.955385
 10
0.653637
 20
0.958425
 10
0.650022
 20
0.961128
 10
0.646131
 20
0.963475
 10
0.641986
 20
0.965442
 10
0.637607
 20
0.967009
 10
0.633013
 20
0.968155
 10
0.628225
 20
0.968858
 10
0.623264
 20
0.969097
 10
0.618279
 20
0.968858
 10
0.613425
 20
0.968155
 10
0.608729
 20
0.967009
 10
0.604216
 20
0.965442
 10
0.599913
 20
0.963475
 10
0.595847
 20
0.961128
 10
0.592043
 20
0.958425
 10
0.588528
 20
0.955385
 10
0.585328
 20
0.952031
 10
0.582469
 20
0.948383
 10
0.579978
 20
0.944463
 10
0.577881
 20
0.940293
 10
0.576204
 20
0.935892
 10
0.574974
 20
0.931284
 10
0.574217
 20
0.926489
 10
0.573958
 20
0.921528
 10
0.574136
 20
0.917216
 10
0.574664
 20
0.913087
 10
0.575533
 20
0.909132
 10
0.576736
 20
0.905342
 10
0.578265
 20
0.901709
 10
0.580111
 20
0.898225
 10
0.582266
 20
0.89488
 10
0.584722
 20
0.891667
 10
0.580176
 20
0.890993
 10
0.575794
 20
0.889883
 10
0.571594
 20
0.888362
 10
0.567594
 20
0.886453
 10
0.563812
 20
0.884181
 10
0.560265
 20
0.881568
 10
0.556972
 20
0.878639
 10
0.55395
 20
0.875418
 10
0.551216
 20
0.87193
 10
0.548789
 20
0.868197
 10
0.546687
 20
0.864244
 10
0.544927
 20
0.860094
 10
0.543527
 20
0.855773
 10
0.542506
 20
0.851303
 10
0.541879
 20
0.846709
 10
0.541667
 20
0.842014
 10
0.541902
 20
0.837034
 10
0.542593
 20
0.832183
 10
0.54372
 20
0.827489
 10
0.545264
 20
0.822978
 10
0.547203
 20
0.818676
 10
0.549518
 20
0.814609
 10
0.552189
 20
0.810804
 10
0.555194
 20
0.807288
 10
0.558515
 20
0.804087
 10
0.562131
 20
0.801226
 10
0.566022
 20
0.798734
 10
0.570167
 20
0.796635
 10
0.574546
 20
0.794957
 10
0.57914
 20
0.793725
 10
0.583927
 20
0.792967
 10
0.588889
 20
0.792708
 10
0.594237
 20
0.793044
 10
0.599425
 20
0.794015
 10
0.604421
 20
0.795565
 10
0.609191
 20
0.797639
 10
0.613702
 20
0.800182
 10
0.61792
 20
0.803138
 10
0.621813
 20
0.806452
 10
0.625347
 20
0.810069
 10
0.620976
 20
0.779922
 10
0.618234
 20
0.760864
 10
0.614583
 20
0.738889
 10
0.612433
 20
0.728721
 10
0.609799
 20
0.718922
 10
0.606699
 20
0.709489
 10
0.603149
 20
0.700418
 10
0.599167
 20
0.691705
 10
0.594768
 20
0.683347
 10
0.589969
 20
0.675338
 10
0.584787
 20
0.667676
 10
0.579239
 20
0.660357
 10
0.573342
 20
0.653377
 10
0.567111
 20
0.646731
 10
0.560565
 20
0.640417
 10
0.553718
 20
0.63443
 10
0.546589
 20
0.628767
 10
0.539194
 20
0.623424
 10
0.531549
 20
0.618396
 10
0.523671
 20
0.61368
 10
0.515576
 20
0.609273
 10
0.507283
 20
0.605169
 10
0.498806
 20
0.601367
 10
0.490163
 20
0.597861
 10
0.481371
 20
0.594647
 10
0.472445
 20
0.591723
 10
0.463404
 20
0.589084
 10
0.445039
 20
0.584646
 10
0.426409
 20
0.581303
 10
0.407648
 20
0.579024
 10
0.388889
 20
0.577778
 10
0.377304
 20
0.57743
 10
0.365676
 20
0.578035
 10
0.354121
 20
0.579524
 10
0.342758
 20
0.58183
 10
0.331704
 20
0.584885
 10
0.321078
 20
0.588623
 10
0.310996
 20
0.592974
 10
0.301578
 20
0.597872
 10
0.292941
 20
0.603248
 10
0.285202
 20
0.609036
 10
0.278479
 20
0.615167
 10
0.272891
 20
0.621575
 10
0.270559
 20
0.624861
 10
0.268555
 20
0.62819
 10
0.266893
 20
0.631555
 10
0.265588
 20
0.634947
 10
0.264655
 20
0.638357
 10
0.264109
 20
0.641776
 10
0.263965
 20
0.645197
 10
0.264236
 20
0.648611
 10
0.265452
 20
0.652435
 10
0.267138
 20
0.655451
 10
0.269259
 20
0.657708
 10
0.27178
 20
0.659254
 10
0.274663
 20
0.66014
 10
0.277874
 20
0.660413
 10
0.281377
 20
0.660123
 10
0.285135
 20
0.659319
 10
0.289115
 20
0.658051
 10
0.293279
 20
0.656367
 10
0.302017
 20
0.651947
 10
0.311066
 20
0.646453
 10
0.320139
 20
0.640278
 10
0.325901
 20
0.638299
 10
0.332852
 20
0.636553
 10
0.340689
 20
0.635126
 10
0.349113
 20
0.634104
 10
0.357821
 20
0.633572
 10
0.366512
 20
0.633614
 10
0.374885
 20
0.634316
 10
0.382639
 20
0.635764
 10
0.381872
 20
0.64014
 10
0.38074
 20
0.644474
 10
0.379254
 20
0.648738
 10
0.377426
 20
0.652905
 10
0.375267
 20
0.656948
 10
0.372789
 20
0.66084
 10
0.370004
 20
0.664552
 10
0.366922
 20
0.668059
 10
0.363556
 20
0.671332
 10
0.359916
 20
0.674345
 10
0.356015
 20
0.677069
 10
0.351863
 20
0.679479
 10
0.347473
 20
0.681545
 10
0.342856
 20
0.683242
 10
0.338023
 20
0.684542
 10
0.332986
 20
0.685417
 10
0.324088
 20
0.685903
 10
0.315127
 20
0.685505
 10
0.30645
 20
0.684782
 10
0.298406
 20
0.684292
 10
0.29473
 20
0.684309
 10
0.291343
 20
0.684593
 10
0.288287
 20
0.685215
 10
0.285607
 20
0.686245
 10
0.283346
 20
0.687752
 10
0.281548
 20
0.689805
 10
0.280256
 20
0.692476
 10
0.279514
 20
0.695833
 10
0.279419
 20
0.701865
 10
0.279811
 20
0.707225
 10
0.280666
 20
0.711948
 10
0.281958
 20
0.716066
 10
0.283662
 20
0.719612
 10
0.285754
 20
0.72262
 10
0.288207
 20
0.725122
 10
0.290997
 20
0.727151
 10
0.294098
 20
0.72874
 10
0.297485
 20
0.729923
 10
0.301133
 20
0.730732
 10
0.305017
 20
0.7312
 10
0.313391
 20
0.731245
 10
0.322406
 20
0.730323
 10
0.33186
 20
0.728697
 10
0.341552
 20
0.726632
 10
0.360842
 20
0.72224
 10
0.370037
 20
0.720439
 10
0.378663
 20
0.719256
 10
0.386519
 20
0.718952
 10
0.390095
 20
0.719212
 10
0.393403
 20
0.719792
 10
0.399472
 20
0.722053
 10
0.404964
 20
0.72453
 10
0.409912
 20
0.727212
 10
0.414349
 20
0.730085
 10
0.41831
 20
0.733138
 10
0.421828
 20
0.736358
 10
0.424937
 20
0.739732
 10
0.42767
 20
0.743248
 10
0.430062
 20
0.746893
 10
0.432146
 20
0.750656
 10
0.435526
 20
0.758482
 10
0.438078
 20
0.766627
 10
0.440075
 20
0.774991
 10
0.443477
 20
0.791979
 10
0.445423
 20
0.800404
 10
0.447893
 20
0.808649
 10
0.451156
 20
0.816616
 10
0.453169
 20
0.820463
 10
0.455482
 20
0.824204
 10
0.458128
 20
0.827825
 10
0.461141
 20
0.831314
 10
0.464554
 20
0.834659
 10
0.468403
 20
0.837847
 10
0.464723
 20
0.836234
 10
0.460857
 20
0.835176
 10
0.456818
 20
0.834628
 10
0.452617
 20
0.834545
 10
0.448267
 20
0.834882
 10
0.443779
 20
0.835594
 10
0.434438
 20
0.837962
 10
0.424691
 20
0.841289
 10
0.414633
 20
0.845212
 10
0.393969
 20
0.853405
 10
0.383554
 20
0.856952
 10
0.373212
 20
0.859653
 10
0.368098
 20
0.860572
 10
0.363038
 20
0.861145
 10
0.358045
 20
0.861325
 10
0.353129
 20
0.861068
 10
0.348304
 20
0.860328
 10
0.343581
 20
0.859061
 10
0.338971
 20
0.85722
 10
0.334488
 20
0.854762
 10
0.330143
 20
0.851641
 10
0.325948
 20
0.847811
 10
0.321915
 20
0.843229
 10
0.318056
 20
0.837847
 10
0.303872
 20
0.81205
 10
0.299104
 20
0.804229
 10
0.295033
 20
0.798441
 10
0.291018
 20
0.793672
 10
0.286421
 20
0.78891
 10
0.272917
 20
0.775347
 10
0.268016
 20
0.772429
 10
0.263048
 20
0.770451
 10
0.258095
 20
0.76936
 10
0.25324
 20
0.769102
 10
0.248565
 20
0.769626
 10
0.244155
 20
0.770877
 10
0.240092
 20
0.772801
 10
0.236458
 20
0.775347
 10
0.236427
 20
0.783043
 10
0.236458
 20
0.790625
 10
0.237432
 20
0.801332
 10
0.238542
 20
0.812153
 10
0.245667
 20
0.812331
 10
0.252373
 20
0.813423
 10
0.258659
 20
0.815366
 10
0.264522
 20
0.818097
 10
0.26996
 20
0.821554
 10
0.27497
 20
0.825675
 10
0.27955
 20
0.830395
 10
0.283698
 20
0.835655
 10
0.287411
 20
0.841389
 10
0.290688
 20
0.847536
 10
0.293525
 20
0.854034
 10
0.295921
 20
0.860819
 10
0.297872
 20
0.867829
 10
0.299378
 20
0.875001
 10
0.300435
 20
0.882274
 10
0.301042
 20
0.889583
 10
0.292812
 20
0.889083
 10
0.284488
 20
0.887848
 10
0.276215
 20
0.885777
 10
0.268135
 20
0.882771
 10
0.260393
 20
0.878728
 10
0.256693
 20
0.876287
 10
0.253132
 20
0.873548
 10
0.249726
 20
0.8705
 10
0.246494
 20
0.867131
 10
0.243455
 20
0.863426
 10
0.240625
 20
0.859375
 10
0.243575
 20
0.892854
 10
0.246382
 20
0.926984
 10
0.24848
 20
0.961686
 10
0.249088
 20
0.979224
 10
0.249306
 20
0.996875
 10
0.249888
 20
1.019827
 10
0.251618
 20
1.042484
 10
0.254466
 20
1.064815
 10
0.258405
 20
1.086793
 10
0.263405
 20
1.10839
 10
0.269439
 20
1.129578
 10
0.276478
 20
1.150327
 10
0.284493
 20
1.170609
 10
0.293457
 20
1.190397
 10
0.303341
 20
1.209662
 10
0.314117
 20
1.228375
 10
0.325756
 20
1.246509
 10
0.33823
 20
1.264034
 10
0.351511
 20
1.280923
 10
0.36557
 20
1.297147
 10
0.380378
 20
1.312677
 10
0.395909
 20
1.327486
 10
0.412133
 20
1.341545
 10
0.429022
 20
1.354826
 10
0.446547
 20
1.3673
 10
0.46468
 20
1.378939
 10
0.483393
 20
1.389715
 10
0.502658
 20
1.399599
 10
0.522446
 20
1.408562
 10
0.542729
 20
1.416578
 10
0.563478
 20
1.423617
 10
0.584665
 20
1.42965
 10
0.606262
 20
1.434651
 10
0.628241
 20
1.438589
 10
0.650572
 20
1.441437
 10
0.673228
 20
1.443167
 10
0.696181
 20
1.44375
  0
LWPOLYLINE
  5
2D
330
1F
100
AcDbEntity
  8
0
100
AcDbPolyline
 90
      655
 70
   128
 43
0.0
 10
1.526042
 20
1.44375
 10
1.548994
 20
1.443167
 10
1.57165
 20
1.441437
 10
1.593982
 20
1.438589
 10
1.61596
 20
1.434651
 10
1.637557
 20
1.42965
 10
1.658744
 20
1.423617
 10
1.679493
 20
1.416578
 10
1.699776
 20
1.408562
 10
1.719564
 20
1.399599
 10
1.738829
 20
1.389715
 10
1.757542
 20
1.378939
 10
1.775675
 20
1.3673
 10
1.793201
 20
1.354826
 10
1.810089
 20
1.341545
 10
1.826313
 20
1.327486
 10
1.841844
 20
1.312677
 10
1.856653
 20
1.297147
 10
1.870712
 20
1.280923
 10
1.883992
 20
1.264034
 10
1.896466
 20
1.246509
 10
1.908106
 20
1.228375
 10
1.918881
 20
1.209662
 10
1.928765
 20
1.190397
 10
1.937729
 20
1.170609
 10
1.945745
 20
1.150327
 10
1.952783
 20
1.129578
 10
1.958817
 20
1.10839
 10
1.963817
 20
1.086793
 10
1.967756
 20
1.064815
 10
1.970604
 20
1.042484
 10
1.972334
 20
1.019827
 10
1.972917
 20
0.996875
 10
1.973135
 20
0.979224
 10
1.973742
 20
0.961686
 10
1.97584
 20
0.926984
 10
1.978647
 20
0.892854
 10
1.981597
 20
0.859375
 10
1.978768
 20
0.863426
 10
1.975728
 20
0.867131
 10
1.972496
 20
0.8705
 10
1.969091
 20
0.873548
 10
1.965529
 20
0.876287
 10
1.961829
 20
0.878728
 10
1.954087
 20
0.882771
 10
1.946007
 20
0.885777
 10
1.937734
 20
0.887848
 10
1.929411
 20
0.889083
 10
1.921181
 20
0.889583
 10
1.921787
 20
0.882274
 10
1.922844
 20
0.875001
 10
1.92435
 20
0.867829
 10
1.926302
 20
0.860819
 10
1.928697
 20
0.854034
 10
1.931535
 20
0.847536
 10
1.934811
 20
0.841389
 10
1.938524
 20
0.835655
 10
1.942672
 20
0.830395
 10
1.947252
 20
0.825675
 10
1.952262
 20
0.821554
 10
1.9577
 20
0.818097
 10
1.963563
 20
0.815366
 10
1.969849
 20
0.813423
 10
1.976556
 20
0.812331
 10
1.983681
 20
0.812153
 10
1.98479
 20
0.801332
 10
1.985401
 20
0.79592
 10
1.985764
 20
0.790625
 10
1.985795
 20
0.783043
 10
1.985764
 20
0.775347
 10
1.982131
 20
0.772801
 10
1.978067
 20
0.770877
 10
1.973657
 20
0.769626
 10
1.968983
 20
0.769102
 10
1.964127
 20
0.76936
 10
1.959174
 20
0.770451
 10
1.954206
 20
0.772429
 10
1.949306
 20
0.775347
 10
1.935801
 20
0.78891
 10
1.931204
 20
0.793672
 10
1.927189
 20
0.798441
 10
1.923118
 20
0.804229
 10
1.91835
 20
0.81205
 10
1.904167
 20
0.837847
 10
1.900307
 20
0.843229
 10
1.896274
 20
0.847811
 10
1.892079
 20
0.851641
 10
1.887734
 20
0.854762
 10
1.883251
 20
0.85722
 10
1.878642
 20
0.859061
 10
1.873918
 20
0.860328
 10
1.869093
 20
0.861068
 10
1.864177
 20
0.861325
 10
1.859184
 20
0.861145
 10
1.854124
 20
0.860572
 10
1.84901
 20
0.859653
 10
1.838668
 20
0.856952
 10
1.828253
 20
0.853405
 10
1.807589
 20
0.845212
 10
1.797531
 20
0.841289
 10
1.787784
 20
0.837962
 10
1.778443
 20
0.835594
 10
1.773955
 20
0.834882
 10
1.769605
 20
0.834545
 10
1.765404
 20
0.834628
 10
1.761365
 20
0.835176
 10
1.7575
 20
0.836234
 10
1.753819
 20
0.837847
 10
1.757668
 20
0.834659
 10
1.761082
 20
0.831314
 10
1.764095
 20
0.827825
 10
1.766741
 20
0.824204
 10
1.769053
 20
0.820463
 10
1.771066
 20
0.816616
 10
1.774329
 20
0.808649
 10
1.776799
 20
0.800404
 10
1.778745
 20
0.791979
 10
1.782148
 20
0.774991
 10
1.784144
 20
0.766627
 10
1.786697
 20
0.758482
 10
1.790076
 20
0.750656
 10
1.79216
 20
0.746893
 10
1.794552
 20
0.743248
 10
1.797285
 20
0.739732
 10
1.800394
 20
0.736358
 10
1.803912
 20
0.733138
 10
1.807873
 20
0.730085
 10
1.81231
 20
0.727212
 10
1.817258
 20
0.72453
 10
1.82275
 20
0.722053
 10
1.828819
 20
0.719792
 10
1.832127
 20
0.719212
 10
1.835703
 20
0.718952
 10
1.843559
 20
0.719256
 10
1.852185
 20
0.720439
 10
1.86138
 20
0.72224
 10
1.88067
 20
0.726632
 10
1.890362
 20
0.728697
 10
1.899816
 20
0.730323
 10
1.908831
 20
0.731245
 10
1.917205
 20
0.7312
 10
1.921089
 20
0.730732
 10
1.924737
 20
0.729923
 10
1.928125
 20
0.72874
 10
1.931226
 20
0.727151
 10
1.934015
 20
0.725122
 10
1.936468
 20
0.72262
 10
1.93856
 20
0.719612
 10
1.940264
 20
0.716066
 10
1.941556
 20
0.711948
 10
1.942411
 20
0.707225
 10
1.942804
 20
0.701865
 10
1.942708
 20
0.695833
 10
1.941966
 20
0.692476
 10
1.940674
 20
0.689805
 10
1.938876
 20
0.687752
 10
1.936615
 20
0.686245
 10
1.933935
 20
0.685215
 10
1.93088
 20
0.684593
 10
1.923816
 20
0.684292
 10
1.915772
 20
0.684782
 10
1.907095
 20
0.685505
 10
1.898134
 20
0.685903
 10
1.893655
 20
0.685805
 10
1.889236
 20
0.685417
 10
1.884199
 20
0.684542
 10
1.879366
 20
0.683242
 10
1.874749
 20
0.681545
 10
1.870359
 20
0.679479
 10
1.866207
 20
0.677069
 10
1.862306
 20
0.674345
 10
1.858667
 20
0.671332
 10
1.8553
 20
0.668059
 10
1.852219
 20
0.664552
 10
1.849433
 20
0.66084
 10
1.846955
 20
0.656948
 10
1.844797
 20
0.652905
 10
1.842969
 20
0.648738
 10
1.841483
 20
0.644474
 10
1.84035
 20
0.64014
 10
1.839583
 20
0.635764
 10
1.847337
 20
0.634316
 10
1.85571
 20
0.633614
 10
1.864401
 20
0.633572
 10
1.873109
 20
0.634104
 10
1.881533
 20
0.635126
 10
1.88937
 20
0.636553
 10
1.896321
 20
0.638299
 10
1.902083
 20
0.640278
 10
1.911156
 20
0.646453
 10
1.920205
 20
0.651947
 10
1.928944
 20
0.656367
 10
1.933108
 20
0.658051
 10
1.937087
 20
0.659319
 10
1.940846
 20
0.660123
 10
1.944348
 20
0.660413
 10
1.947559
 20
0.66014
 10
1.950443
 20
0.659254
 10
1.952963
 20
0.657708
 10
1.955084
 20
0.655451
 10
1.95677
 20
0.652435
 10
1.957986
 20
0.648611
 10
1.958258
 20
0.645197
 10
1.958113
 20
0.641776
 10
1.957567
 20
0.638357
 10
1.956634
 20
0.634947
 10
1.955329
 20
0.631555
 10
1.953668
 20
0.62819
 10
1.949331
 20
0.621575
 10
1.943743
 20
0.615167
 10
1.937021
 20
0.609036
 10
1.929282
 20
0.603248
 10
1.920644
 20
0.597872
 10
1.911226
 20
0.592974
 10
1.901145
 20
0.588623
 10
1.890518
 20
0.584885
 10
1.879465
 20
0.58183
 10
1.868101
 20
0.579524
 10
1.856547
 20
0.578035
 10
1.844918
 20
0.57743
 10
1.833333
 20
0.577778
 10
1.814574
 20
0.579024
 10
1.795813
 20
0.581303
 10
1.777184
 20
0.584646
 10
1.758819
 20
0.589084
 10
1.749777
 20
0.591723
 10
1.740852
 20
0.594647
 10
1.732059
 20
0.597861
 10
1.723416
 20
0.601367
 10
1.71494
 20
0.605169
 10
1.706646
 20
0.609273
 10
1.698552
 20
0.61368
 10
1.690674
 20
0.618396
 10
1.683029
 20
0.623424
 10
1.675633
 20
0.628767
 10
1.668504
 20
0.63443
 10
1.661657
 20
0.640417
 10
1.655111
 20
0.646731
 10
1.64888
 20
0.653377
 10
1.642983
 20
0.660357
 10
1.637435
 20
0.667676
 10
1.632253
 20
0.675338
 10
1.627455
 20
0.683347
 10
1.623056
 20
0.691705
 10
1.619073
 20
0.700418
 10
1.615523
 20
0.709489
 10
1.612423
 20
0.718922
 10
1.60979
 20
0.728721
 10
1.607639
 20
0.738889
 10
1.603988
 20
0.760864
 10
1.601247
 20
0.779922
 10
1.59901
 20
0.796258
 10
1.596875
 20
0.810069
 10
1.600409
 20
0.806452
 10
1.604302
 20
0.803138
 10
1.608521
 20
0.800182
 10
1.613031
 20
0.797639
 10
1.617801
 20
0.795565
 10
1.622797
 20
0.794015
 10
1.627985
 20
0.793044
 10
1.633333
 20
0.792708
 10
1.638295
 20
0.792967
 10
1.643082
 20
0.793725
 10
1.647676
 20
0.794957
 10
1.652056
 20
0.796635
 10
1.656201
 20
0.798734
 10
1.660091
 20
0.801226
 10
1.663707
 20
0.804087
 10
1.667028
 20
0.807288
 10
1.670034
 20
0.810804
 10
1.672704
 20
0.814609
 10
1.675019
 20
0.818676
 10
1.676958
 20
0.822978
 10
1.678502
 20
0.827489
 10
1.679629
 20
0.832183
 10
1.680321
 20
0.837034
 10
1.680556
 20
0.842014
 10
1.680343
 20
0.846709
 10
1.679717
 20
0.851303
 10
1.678695
 20
0.855773
 10
1.677295
 20
0.860094
 10
1.675535
 20
0.864244
 10
1.673433
 20
0.868197
 10
1.671006
 20
0.87193
 10
1.668273
 20
0.875418
 10
1.66525
 20
0.878639
 10
1.661957
 20
0.881568
 10
1.65841
 20
0.884181
 10
1.654628
 20
0.886453
 10
1.650628
 20
0.888362
 10
1.646428
 20
0.889883
 10
1.642046
 20
0.890993
 10
1.6375
 20
0.891667
 10
1.639956
 20
0.89488
 10
1.642112
 20
0.898225
 10
1.643958
 20
0.901709
 10
1.645486
 20
0.905342
 10
1.646689
 20
0.909132
 10
1.647559
 20
0.913087
 10
1.648086
 20
0.917216
 10
1.648264
 20
0.921528
 10
1.648006
 20
0.926489
 10
1.647248
 20
0.931284
 10
1.646018
 20
0.935892
 10
1.644341
 20
0.940293
 10
1.642244
 20
0.944463
 10
1.639753
 20
0.948383
 10
1.636894
 20
0.952031
 10
1.633694
 20
0.955385
 10
1.630179
 20
0.958425
 10
1.626375
 20
0.961128
 10
1.622309
 20
0.963475
 10
1.618006
 20
0.965442
 10
1.613493
 20
0.967009
 10
1.608797
 20
0.968155
 10
1.603943
 20
0.968858
 10
1.598958
 20
0.969097
 10
1.593997
 20
0.968858
 10
1.589209
 20
0.968155
 10
1.584616
 20
0.967009
 10
1.580236
 20
0.965442
 10
1.576091
 20
0.963475
 10
1.572201
 20
0.961128
 10
1.568585
 20
0.958425
 10
1.565264
 20
0.955385
 10
1.562258
 20
0.952031
 10
1.559588
 20
0.948383
 10
1.557273
 20
0.944463
 10
1.555333
 20
0.940293
 10
1.55379
 20
0.935892
 10
1.552662
 20
0.931284
 10
1.551971
 20
0.926489
 10
1.551736
 20
0.921528
 10
1.552392
 20
0.914984
 10
1.553819
 20
0.908681
 10
1.549299
 20
0.91037
 10
1.544415
 20
0.911813
 10
1.539372
 20
0.912817
 10
1.534375
 20
0.913194
 10
1.52939
 20
0.912932
 10
1.524536
 20
0.912163
 10
1.51984
 20
0.910914
 10
1.515327
 20
0.909214
 10
1.511025
 20
0.907089
 10
1.506958
 20
0.904567
 10
1.503154
 20
0.901675
 10
1.499639
 20
0.898441
 10
1.496439
 20
0.894892
 10
1.49358
 20
0.891056
 10
1.491089
 20
0.88696
 10
1.488992
 20
0.882632
 10
1.487315
 20
0.878098
 10
1.486085
 20
0.873387
 10
1.485328
 20
0.868526
 10
1.485069
 20
0.863542
 10
1.485328
 20
0.858585
 10
1.486085
 20
0.853801
 10
1.487315
 20
0.849209
 10
1.488992
 20
0.844831
 10
1.491089
 20
0.840687
 10
1.49358
 20
0.836796
 10
1.496439
 20
0.83318
 10
1.499639
 20
0.829858
 10
1.503154
 20
0.82685
 10
1.506958
 20
0.824178
 10
1.511025
 20
0.821862
 10
1.515327
 20
0.819921
 10
1.51984
 20
0.818376
 10
1.524536
 20
0.817247
 10
1.52939
 20
0.816555
 10
1.534375
 20
0.816319
 10
1.53953
 20
0.816594
 10
1.544472
 20
0.817398
 10
1.549227
 20
0.818704
 10
1.553819
 20
0.820486
 10
1.531821
 20
0.797646
 10
1.502083
 20
0.767014
 10
1.495197
 20
0.760173
 10
1.488135
 20
0.753671
 10
1.480906
 20
0.74751
 10
1.473521
 20
0.741695
 10
1.46599
 20
0.736229
 10
1.458323
 20
0.731115
 10
1.450531
 20
0.726356
 10
1.442622
 20
0.721955
 10
1.434608
 20
0.717917
 10
1.426499
 20
0.714244
 10
1.418304
 20
0.71094
 10
1.410034
 20
0.708008
 10
1.401699
 20
0.705451
 10
1.393309
 20
0.703273
 10
1.384874
 20
0.701477
 10
1.376405
 20
0.700066
 10
1.367911
 20
0.699044
 10
1.359402
 20
0.698414
 10
1.350889
 20
0.69818
 10
1.342383
 20
0.698344
 10
1.333892
 20
0.698911
 10
1.325427
 20
0.699883
 10
1.316999
 20
0.701264
 10
1.308617
 20
0.703057
 10
1.300291
 20
0.705265
 10
1.292032
 20
0.707893
 10
1.28385
 20
0.710942
 10
1.275754
 20
0.714417
 10
1.267756
 20
0.718321
 10
1.259865
 20
0.722657
 10
1.252091
 20
0.727428
 10
1.244444
 20
0.732639
 10
1.23702
 20
0.739659
 10
1.229727
 20
0.747188
 10
1.222615
 20
0.755182
 10
1.215734
 20
0.763596
 10
1.209132
 20
0.772384
 10
1.20286
 20
0.781502
 10
1.196966
 20
0.790905
 10
1.1915
 20
0.800547
 10
1.186511
 20
0.810383
 10
1.182049
 20
0.820369
 10
1.178163
 20
0.83046
 10
1.174901
 20
0.84061
 10
1.172315
 20
0.850774
 10
1.170453
 20
0.860907
 10
1.169364
 20
0.870965
 10
1.169097
 20
0.880903
 10
1.178173
 20
0.878777
 10
1.181149
 20
0.87857
 10
1.183356
 20
0.879259
 10
1.184996
 20
0.881086
 10
1.186271
 20
0.884295
 10
1.188542
 20
0.895833
 10
1.190487
 20
0.897115
 10
1.192466
 20
0.89736
 10
1.194465
 20
0.896669
 10
1.196472
 20
0.895144
 10
1.198472
 20
0.892887
 10
1.200453
 20
0.889997
 10
1.204306
 20
0.882727
 10
1.207923
 20
0.874145
 10
1.211202
 20
0.865058
 10
1.216319
 20
0.848611
 10
1.218176
 20
0.840331
 10
1.220677
 20
0.832899
 10
1.222274
 20
0.829499
 10
1.224159
 20
0.826306
 10
1.226373
 20
0.823321
 10
1.228958
 20
0.820542
 10
1.231957
 20
0.817967
 10
1.235412
 20
0.815595
 10
1.239363
 20
0.813424
 10
1.243855
 20
0.811455
 10
1.248927
 20
0.809684
 10
1.254624
 20
0.808112
 10
1.260986
 20
0.806736
 10
1.268056
 20
0.805556
 10
1.269745
 20
0.816106
 10
1.270377
 20
0.825756
 10
1.270278
 20
0.830248
 10
1.269891
 20
0.834522
 10
1.269211
 20
0.838578
 10
1.268229
 20
0.842418
 10
1.266938
 20
0.846046
 10
1.26533
 20
0.849462
 10
1.263398
 20
0.852668
 10
1.261134
 20
0.855667
 10
1.258531
 20
0.85846
 10
1.255581
 20
0.86105
 10
1.252277
 20
0.863437
 10
1.248611
 20
0.865625
 10
1.242163
 20
0.871806
 10
1.234226
 20
0.880372
 10
1.225408
 20
0.890766
 10
1.216319
 20
0.902431
 10
1.22479
 20
0.901909
 10
1.231625
 20
0.902182
 10
1.234487
 20
0.902648
 10
1.237009
 20
0.903349
 10
1.239215
 20
0.904298
 10
1.241127
 20
0.905507
 10
1.242768
 20
0.906989
 10
1.244162
 20
0.908757
 10
1.245331
 20
0.910821
 10
1.246298
 20
0.913196
 10
1.24772
 20
0.918925
 10
1.248611
 20
0.926042
 10
1.26684
 20
0.892708
 10
1.285069
 20
0.859375
 10
1.289262
 20
0.857352
 10
1.293956
 20
0.855596
 10
1.299073
 20
0.854124
 10
1.304537
 20
0.85295
 10
1.31027
 20
0.852092
 10
1.316196
 20
0.851565
 10
1.322238
 20
0.851385
 10
1.328318
 20
0.851569
 10
1.334359
 20
0.852133
 10
1.340285
 20
0.853092
 10
1.346018
 20
0.854463
 10
1.351482
 20
0.856262
 10
1.356598
 20
0.858504
 10
1.361291
 20
0.861207
 10
1.365483
 20
0.864385
 10
1.369097
 20
0.868056
 10
1.376324
 20
0.877428
 10
1.383105
 20
0.887026
 10
1.396679
 20
0.906597
 10
1.404148
 20
0.916421
 10
1.412521
 20
0.926169
 10
1.422137
 20
0.935767
 10
1.427517
 20
0.940486
 10
1.433333
 20
0.945139
 10
1.424259
 20
0.954322
 10
1.415479
 20
0.964513
 10
1.407033
 20
0.975471
 10
1.39896
 20
0.986955
 10
1.391299
 20
0.998724
 10
1.384089
 20
1.010537
 10
1.371181
 20
1.033333
 10
1.367539
 20
1.037341
 10
1.363391
 20
1.041005
 10
1.3588
 20
1.044312
 10
1.353828
 20
1.047248
 10
1.348539
 20
1.0498
 10
1.342997
 20
1.051954
 10
1.337264
 20
1.053696
 10
1.331403
 20
1.055014
 10
1.325477
 20
1.055892
 10
1.319551
 20
1.056319
 10
1.313686
 20
1.056279
 10
1.307946
 20
1.055759
 10
1.302395
 20
1.054746
 10
1.297094
 20
1.053226
 10
1.292108
 20
1.051186
 10
1.2875
 20
1.048611
 10
1.284409
 20
1.044617
 10
1.281472
 20
1.04007
 10
1.276127
 20
1.029927
 10
1.271607
 20
1.019404
 10
1.268056
 20
1.009722
 10
1.267888
 20
1.016638
 10
1.266759
 20
1.022732
 10
1.2658
 20
1.025482
 10
1.264559
 20
1.028041
 10
1.263024
 20
1.030413
 10
1.261181
 20
1.032602
 10
1.259015
 20
1.034614
 10
1.256513
 20
1.036452
 10
1.253661
 20
1.038121
 10
1.250446
 20
1.039627
 10
1.242872
 20
1.042163
 10
1.233681
 20
1.044097
 10
1.236995
 20
1.048297
 10
1.240607
 20
1.052136
 10
1.244583
 20
1.055617
 10
1.248988
 20
1.058741
 10
1.253888
 20
1.061511
 10
1.25935
 20
1.063927
 10
1.26544
 20
1.065993
 10
1.272222
 20
1.067708
 10
1.27666
 20
1.071653
 10
1.280412
 20
1.075687
 10
1.283548
 20
1.079804
 10
1.286138
 20
1.083992
 10
1.288254
 20
1.088242
 10
1.289965
 20
1.092546
 10
1.292457
 20
1.101276
 10
1.294177
 20
1.110107
 10
1.295689
 20
1.118964
 10
1.297558
 20
1.127773
 10
1.298802
 20
1.132136
 10
1.300347
 20
1.136458
 10
1.29194
 20
1.13345
 10
1.284043
 20
1.131707
 10
1.276485
 20
1.130604
 10
1.269097
 20
1.129517
 10
1.26171
 20
1.127823
 10
1.257963
 20
1.126552
 10
1.254152
 20
1.124896
 10
1.250256
 20
1.122775
 10
1.246254
 20
1.120112
 10
1.242125
 20
1.116829
 10
1.237847
 20
1.112847
 10
1.234983
 20
1.103726
 10
1.231817
 20
1.09635
 10
1.228415
 20
1.090304
 10
1.224839
 20
1.085179
 10
1.217419
 20
1.076037
 10
1.213704
 20
1.071196
 10
1.210069
 20
1.065625
 10
1.209783
 20
1.072699
 10
1.209261
 20
1.075667
 10
1.208493
 20
1.078288
 10
1.207485
 20
1.080585
 10
1.20624
 20
1.082583
 10
1.204765
 20
1.084305
 10
1.203064
 20
1.085774
 10
1.199006
 20
1.088053
 10
1.194107
 20
1.089609
 10
1.188406
 20
1.090635
 10
1.181944
 20
1.091319
 10
1.18672
 20
1.093624
 10
1.191105
 20
1.096079
 10
1.195109
 20
1.098675
 10
1.198745
 20
1.1014
 10
1.202024
 20
1.104244
 10
1.204957
 20
1.107195
 10
1.207556
 20
1.110243
 10
1.209832
 20
1.113377
 10
1.21346
 20
1.119859
 10
1.215934
 20
1.126554
 10
1.217344
 20
1.133375
 10
1.217781
 20
1.140236
 10
1.217338
 20
1.147049
 10
1.216104
 20
1.153728
 10
1.214172
 20
1.160186
 10
1.211632
 20
1.166335
 10
1.208576
 20
1.172089
 10
1.205095
 20
1.177361
 10
1.20128
 20
1.182064
 10
1.197222
 20
1.186111
 10
1.172958
 20
1.207441
 10
1.160289
 20
1.219033
 10
1.147569
 20
1.23125
 10
1.155111
 20
1.243019
 10
1.163004
 20
1.254538
 10
1.171241
 20
1.2658
 10
1.179814
 20
1.276796
 10
1.188717
 20
1.287518
 10
1.197941
 20
1.297959
 10
1.207479
 20
1.308109
 10
1.217323
 20
1.317961
 10
1.227466
 20
1.327507
 10
1.237901
 20
1.336738
 10
1.24862
 20
1.345646
 10
1.259615
 20
1.354224
 10
1.27088
 20
1.362462
 10
1.282406
 20
1.370354
 10
1.294185
 20
1.37789
 10
1.306212
 20
1.385063
 10
1.318477
 20
1.391864
 10
1.330974
 20
1.398285
 10
1.343695
 20
1.404319
 10
1.356632
 20
1.409956
 10
1.369779
 20
1.415189
 10
1.383127
 20
1.42001
 10
1.396669
 20
1.424411
 10
1.410398
 20
1.428383
 10
1.424305
 20
1.431918
 10
1.438384
 20
1.435008
 10
1.452628
 20
1.437645
 10
1.467027
 20
1.439821
 10
1.481576
 20
1.441528
 10
1.496266
 20
1.442757
 10
1.511091
 20
1.4435
 10
1.526042
 20
1.44375
  0
LWPOLYLINE
  5
2E
330
1F
100
AcDbEntity
  8
0
100
AcDbPolyline
 90
       67
 70
   128
 43
0.0
 10
1.111111
 20
0.498264
 10
1.17279
 20
0.49774
 10
1.232119
 20
0.496225
 10
1.28909
 20
0.493798
 10
1.343696
 20
0.490544
 10
1.39593
 20
0.486542
 10
1.445784
 20
0.481876
 10
1.493251
 20
0.476627
 10
1.538323
 20
0.470877
 10
1.580993
 20
0.464708
 10
1.621254
 20
0.458201
 10
1.659098
 20
0.451439
 10
1.694517
 20
0.444504
 10
1.727505
 20
0.437477
 10
1.758054
 20
0.430441
 10
1.786157
 20
0.423477
 10
1.811806
 20
0.416667
 10
1.801042
 20
0.380208
 10
1.775713
 20
0.386881
 10
1.74802
 20
0.393694
 10
1.717959
 20
0.400569
 10
1.685529
 20
0.407427
 10
1.65073
 20
0.41419
 10
1.613559
 20
0.420778
 10
1.574015
 20
0.427113
 10
1.532097
 20
0.433116
 10
1.487804
 20
0.438708
 10
1.441133
 20
0.44381
 10
1.392084
 20
0.448344
 10
1.340655
 20
0.45223
 10
1.286845
 20
0.455389
 10
1.230651
 20
0.457744
 10
1.172074
 20
0.459215
 10
1.111111
 20
0.459722
 10
1.050148
 20
0.459215
 10
0.991571
 20
0.457744
 10
0.935378
 20
0.455389
 10
0.881567
 20
0.45223
 10
0.830138
 20
0.448344
 10
0.781089
 20
0.44381
 10
0.734419
 20
0.438708
 10
0.690125
 20
0.433116
 10
0.648207
 20
0.427113
 10
0.608663
 20
0.420778
 10
0.571493
 20
0.41419
 10
0.536693
 20
0.407427
 10
0.504264
 20
0.400569
 10
0.474203
 20
0.393694
 10
0.446509
 20
0.386881
 10
0.421181
 20
0.380208
 10
0.410417
 20
0.416667
 10
0.436065
 20
0.423477
 10
0.464168
 20
0.430441
 10
0.494717
 20
0.437477
 10
0.527705
 20
0.444504
 10
0.563125
 20
0.451439
 10
0.600968
 20
0.458201
 10
0.641229
 20
0.464708
 10
0.683899
 20
0.470877
 10
0.728971
 20
0.476627
 10
0.776438
 20
0.481876
 10
0.826292
 20
0.486542
 10
0.878526
 20
0.490544
 10
0.933132
 20
0.493798
 10
0.990103
 20
0.496225
 10
1.049432
 20
0.49774
 10
1.111111
 20
0.498264
  0
ENDSEC
  0
SECTION
  2
OBJECTS
  0
DICTIONARY
  5
C
330
0
100
AcDbDictionary
281
     1
  3
ACAD_GROUP
350
D
  3
ACAD_LAYOUT
350
1A
  3
ACAD_MLINESTYLE
350
17
  3
ACAD_PLOTSETTINGS
350
19
  3
ACAD_PLOTSTYLENAME
350
E
  0
DICTIONARY
  5
D
102
{ACAD_REACTORS
330
C
102
}
330
C
100
AcDbDictionary
281
     1
  0
DICTIONARY
  5
1A
102
{ACAD_REACTORS
330
C
102
}
330
C
100
AcDbDictionary
281
     1
  3
Layout1
350
1E
  3
Layout2
350
26
  3
Model
350
22
  0
DICTIONARY
  5
17
102
{ACAD_REACTORS
330
C
102
}
330
C
100
AcDbDictionary
281
     1
  3
Standard
350
18
  0
DICTIONARY
  5
19
102
{ACAD_REACTORS
330
C
102
}
330
C
100
AcDbDictionary
281
     1
  0
ACDBDICTIONARYWDFLT
  5
E
102
{ACAD_REACTORS
330
C
102
}
330
C
100
AcDbDictionary
281
     1
  3
Normal
350
F
100
AcDbDictionaryWithDefault
340
F
  0
LAYOUT
  5
1E
102
{ACAD_REACTORS
330
1A
102
}
330
1A
100
AcDbPlotSettings
  1

  2

  4

  6

 40
0.0
 41
0.0
 42
0.0
 43
0.0
 44
0.0
 45
0.0
 46
0.0
 47
0.0
 48
0.0
 49
0.0
140
0.0
141
0.0
142
1.0
143
1.0
 70
   688
 72
     0
 73
     0
 74
     5
  7

 75
    16
147
1.0
148
0.0
149
0.0
100
AcDbLayout
  1
Layout1
 70
     1
 71
     1
 10
0.0
 20
0.0
 11
420.0
 21
297.0
 12
0.0
 22
0.0
 32
0.0
 14
1.000000E+20
 24
1.000000E+20
 34
1.000000E+20
 15
-1.000000E+20
 25
-1.000000E+20
 35
-1.000000E+20
146
0.0
 13
0.0
 23
0.0
 33
0.0
 16
1.0
 26
0.0
 36
0.0
 17
0.0
 27
1.0
 37
0.0
 76
     0
330
1B
  0
LAYOUT
  5
26
102
{ACAD_REACTORS
330
1A
102
}
330
1A
100
AcDbPlotSettings
  1

  2

  4

  6

 40
0.0
 41
0.0
 42
0.0
 43
0.0
 44
0.0
 45
0.0
 46
0.0
 47
0.0
 48
0.0
 49
0.0
140
0.0
141
0.0
142
1.0
143
1.0
 70
   688
 72
     0
 73
     0
 74
     5
  7

 75
    16
147
1.0
148
0.0
149
0.0
100
AcDbLayout
  1
Layout2
 70
     1
 71
     2
 10
0.0
 20
0.0
 11
0.0
 21
0.0
 12
0.0
 22
0.0
 32
0.0
 14
0.0
 24
0.0
 34
0.0
 15
0.0
 25
0.0
 35
0.0
146
0.0
 13
0.0
 23
0.0
 33
0.0
 16
1.0
 26
0.0
 36
0.0
 17
0.0
 27
1.0
 37
0.0
 76
     0
330
23
  0
LAYOUT
  5
22
102
{ACAD_REACTORS
330
1A
102
}
330
1A
100
AcDbPlotSettings
  1

  2

  4

  6

 40
0.0
 41
0.0
 42
0.0
 43
0.0
 44
0.0
 45
0.0
 46
0.0
 47
0.0
 48
0.0
 49
0.0
140
0.0
141
0.0
142
1.0
143
1.0
 70
  1712
 72
     0
 73
     0
 74
     0
  7

 75
     0
147
1.0
148
0.0
149
0.0
100
AcDbLayout
  1
Model
 70
     1
 71
     0
 10
0.0
 20
0.0
 11
0.0
 21
0.0
 12
0.0
 22
0.0
 32
0.0
 14
0.0
 24
0.0
 34
0.0
 15
0.0
 25
0.0
 35
0.0
146
0.0
 13
0.0
 23
0.0
 33
0.0
 16
1.0
 26
0.0
 36
0.0
 17
0.0
 27
1.0
 37
0.0
 76
     0
330
1F
  0
MLINESTYLE
  5
18
102
{ACAD_REACTORS
330
17
102
}
330
17
100
AcDbMlineStyle
  2
Standard
 70
     0
  3

 62
   256
 51
90.0
 52
90.0
 71
     2
 49
1.0
 62
   256
  6
BYLAYER
 49
-1.0
 62
   256
  6
BYLAYER
  0
ACDBPLACEHOLDER
  5
F
102
{ACAD_REACTORS
330
E
102
}
330
E
  0
ENDSEC
  0
EOF
