<?xml version="1.0" encoding="utf-8" ?>
<svg xmlns="http://www.w3.org/2000/svg" xmlns:cc="http://creativecommons.org/ns" xmlns:dc="http://purl.org/dc/elements/1.1/" xmlns:ev="http://www.w3.org/2001/xml-events" xmlns:inkscape="http://www.inkscape.org/namespaces/inkscape" xmlns:rdf="http://www.w3.org/1999/02/22-rdf-syntax-ns" xmlns:sodipodi="http://sodipodi.sourceforge.net/DTD/sodipodi-0.dtd" xmlns:xlink="http://www.w3.org/1999/xlink" baseProfile="tiny" height="15.875cm" version="1.2" viewBox="0 0 432.0 600.0" width="11.43cm">
  <metadata>
    <rdf:RDF>
      <cc:Work>
        <dc:format>image/svg+xml</dc:format>
        <dc:source/>
        <dc:date>2022-10-26T23:37:44.669305</dc:date>
      </cc:Work>
    </rdf:RDF>
  </metadata>
  <defs/>
  <g fill="none" id="layer1" inkscape:groupmode="layer" inkscape:label="1" stroke="#000000" stroke-width="0.7559" style="display:inline">
    <polygon points="182.2205,442.5461 184.4775,444.8031 182.2205,447.0602 179.9634,444.8031"/>
    <polygon points="182.2205,442.5461 184.4775,444.8031 182.2205,447.0602 179.9634,444.8031"/>
    <polygon points="177.0236,437.3492 174.7666,439.6063 177.0236,441.8634 179.2807,439.6063"/>
    <polygon points="174.7666,439.6063 177.0236,441.8634 179.2807,439.6063 177.0236,437.3492"/>
    <polygon points="169.5697,444.8031 171.8268,447.0602 174.0838,444.8031 171.8268,442.5461"/>
    <polygon points="164.3729,439.6063 166.6299,441.8634 168.887,439.6063 166.6299,437.3492"/>
    <polygon points="164.3729,439.6063 166.6299,441.8634 168.887,439.6063 166.6299,437.3492"/>
    <polygon points="142.9027,444.8031 140.6457,447.0602 138.3886,444.8031 140.6457,442.5461"/>
    <polygon points="148.0996,439.6063 145.8425,441.8634 143.5855,439.6063 145.8425,437.3492"/>
    <polygon points="151.0394,432.1524 153.2964,434.4094 151.0394,436.6665 148.7823,434.4094"/>
    <polygon points="159.176,434.4094 161.4331,432.1524 163.6901,434.4094 161.4331,436.6665"/>
    <polygon points="166.6299,431.4697 168.887,429.2126 166.6299,426.9555 164.3729,429.2126"/>
    <polygon points="166.6299,431.4697 168.887,429.2126 166.6299,426.9555 164.3729,429.2126"/>
    <polygon points="171.8268,432.1524 169.5697,434.4094 171.8268,436.6665 174.0838,434.4094"/>
    <polygon points="174.7666,429.2126 177.0236,431.4697 179.2807,429.2126 177.0236,426.9555"/>
    <polygon points="179.2807,429.2126 177.0236,426.9555 174.7666,429.2126 177.0236,431.4697"/>
    <polygon points="182.2205,432.1524 179.9634,434.4094 182.2205,436.6665 184.4775,434.4094"/>
    <polygon points="187.4173,426.9555 189.6744,429.2126 187.4173,431.4697 185.1603,429.2126"/>
    <polygon points="252.7193,424.0157 270.5669,406.1681 288.4145,424.0157 270.5669,441.8634"/>
    <polygon points="267.6271,403.2283 249.7795,421.076 231.9319,403.2283 249.7795,385.3807"/>
    <polygon points="267.6271,403.2283 249.7795,421.076 231.9319,403.2283 249.7795,385.3807"/>
    <polygon points="287.8266,424.0157 270.5669,441.2754 253.3073,424.0157 270.5669,406.7561"/>
    <polygon points="309.2019,403.2283 301.748,395.7744 294.2941,403.2283 301.748,410.6823"/>
    <polygon points="317.3386,405.4854 319.5957,403.2283 317.3386,400.9713 315.0815,403.2283"/>
    <polygon points="324.7925,387.6378 322.5354,389.8949 320.2784,387.6378 322.5354,385.3807"/>
    <polygon points="322.5354,385.3807 324.7925,387.6378 322.5354,389.8949 320.2784,387.6378"/>
    <polygon points="304.6878,392.8346 312.1417,385.3807 319.5957,392.8346 312.1417,400.2886"/>
    <polygon points="291.3543,406.1681 298.8082,413.622 291.3543,421.076 283.9004,413.622"/>
    <polygon points="288.4145,403.2283 280.9606,410.6823 273.5067,403.2283 280.9606,395.7744"/>
    <polygon points="280.9606,395.7744 288.4145,403.2283 280.9606,410.6823 273.5067,403.2283"/>
    <polygon points="275.7638,390.5776 278.0208,392.8346 275.7638,395.0917 273.5067,392.8346"/>
    <polygon points="270.5669,389.8949 268.3099,387.6378 270.5669,385.3807 272.824,387.6378"/>
    <polygon points="267.6271,382.4409 265.3701,384.698 263.113,382.4409 265.3701,380.1839"/>
    <polygon points="265.3701,384.698 263.113,382.4409 265.3701,380.1839 267.6271,382.4409"/>
    <polygon points="246.8397,382.4409 228.9921,400.2886 211.1445,382.4409 228.9921,364.5933"/>
    <polygon points="246.2518,382.4409 228.9921,399.7006 211.7325,382.4409 228.9921,365.1813"/>
    <polygon points="232.5199,403.2283 249.7795,385.9687 267.0392,403.2283 249.7795,420.488"/>
    <polygon points="211.1445,382.4409 228.9921,364.5933 246.8397,382.4409 228.9921,400.2886"/>
    <polygon points="208.2047,379.5012 169.5697,340.8661 208.2047,302.2311 246.8397,340.8661"/>
    <polygon points="205.2649,382.4409 187.4173,400.2886 169.5697,382.4409 187.4173,364.5933"/>
    <polygon points="187.4173,399.7006 170.1577,382.4409 187.4173,365.1813 204.677,382.4409"/>
    <polygon points="184.4775,403.2283 177.0236,410.6823 169.5697,403.2283 177.0236,395.7744"/>
    <polygon points="174.0838,413.622 166.6299,421.076 159.176,413.622 166.6299,406.1681"/>
    <polygon points="174.0838,424.0157 171.8268,426.2728 169.5697,424.0157 171.8268,421.7587"/>
    <polygon points="161.4331,421.7587 163.6901,424.0157 161.4331,426.2728 159.176,424.0157"/>
    <polygon points="156.2362,426.9555 158.4933,429.2126 156.2362,431.4697 153.9792,429.2126"/>
    <polygon points="153.2964,424.0157 151.0394,426.2728 148.7823,424.0157 151.0394,421.7587"/>
    <polygon points="148.7823,424.0157 151.0394,421.7587 153.2964,424.0157 151.0394,426.2728"/>
    <polygon points="143.5855,418.8189 145.8425,416.5618 148.0996,418.8189 145.8425,421.076"/>
    <polygon points="119.8583,363.9106 122.1153,361.6535 119.8583,359.3965 117.6012,361.6535"/>
    <polygon points="117.6012,361.6535 119.8583,363.9106 122.1153,361.6535 119.8583,359.3965"/>
    <polygon points="117.6012,351.2598 125.0551,358.7138 132.509,351.2598 125.0551,343.8059"/>
    <polygon points="117.6012,351.2598 125.0551,358.7138 132.509,351.2598 125.0551,343.8059"/>
    <polygon points="145.8425,358.7138 127.9949,340.8661 145.8425,323.0185 163.6901,340.8661"/>
    <polygon points="163.1022,340.8661 145.8425,323.6065 128.5829,340.8661 145.8425,358.1258"/>
    <polygon points="163.6901,340.8661 145.8425,323.0185 127.9949,340.8661 145.8425,358.7138"/>
    <polygon points="170.7456,340.8661 208.2047,378.3252 245.6638,340.8661 208.2047,303.407"/>
    <polygon points="129.7588,299.2913 166.6299,262.4202 203.5011,299.2913 166.6299,336.1625"/>
    <polygon points="127.9949,299.2913 166.6299,260.6563 205.2649,299.2913 166.6299,337.9264"/>
    <polygon points="125.0551,296.3516 122.7981,294.0945 125.0551,291.8374 127.3122,294.0945"/>
    <polygon points="127.3122,294.0945 125.0551,296.3516 122.7981,294.0945 125.0551,291.8374"/>
    <polygon points="130.252,286.6406 127.9949,288.8976 130.252,291.1547 132.509,288.8976"/>
    <polygon points="135.4488,285.9579 142.9027,278.5039 135.4488,271.05 127.9949,278.5039"/>
    <polygon points="135.4488,285.9579 142.9027,278.5039 135.4488,271.05 127.9949,278.5039"/>
    <polygon points="130.252,270.3673 132.509,268.1102 130.252,265.8532 127.9949,268.1102"/>
    <polygon points="130.252,270.3673 132.509,268.1102 130.252,265.8532 127.9949,268.1102"/>
    <polygon points="127.3122,262.9134 125.0551,260.6563 122.7981,262.9134 125.0551,265.1705"/>
    <polygon points="145.8425,240.4569 128.5829,257.7165 145.8425,274.9762 163.1022,257.7165"/>
    <polygon points="142.9027,236.9291 135.4488,229.4752 127.9949,236.9291 135.4488,244.3831"/>
    <polygon points="145.8425,233.9894 148.0996,231.7323 145.8425,229.4752 143.5855,231.7323"/>
    <polygon points="151.0394,224.2784 148.7823,226.5354 151.0394,228.7925 153.2964,226.5354"/>
    <polygon points="135.4488,229.4752 127.9949,236.9291 135.4488,244.3831 142.9027,236.9291"/>
    <polygon points="125.0551,219.0815 117.6012,226.5354 125.0551,233.9894 132.509,226.5354"/>
    <polygon points="117.6012,226.5354 125.0551,233.9894 132.509,226.5354 125.0551,219.0815"/>
    <polygon points="114.6614,223.5957 122.1153,216.1417 114.6614,208.6878 107.2075,216.1417"/>
    <polygon points="93.874,223.5957 91.6169,221.3386 93.874,219.0815 96.1311,221.3386"/>
    <polygon points="93.874,223.5957 91.6169,221.3386 93.874,219.0815 96.1311,221.3386"/>
    <polygon points="91.6169,210.9449 93.874,208.6878 96.1311,210.9449 93.874,213.2019"/>
    <polygon points="99.0709,213.8847 101.3279,216.1417 99.0709,218.3988 96.8138,216.1417"/>
    <polygon points="104.2677,208.6878 106.5248,210.9449 104.2677,213.2019 102.0106,210.9449"/>
    <polygon points="114.6614,208.6878 122.1153,216.1417 114.6614,223.5957 107.2075,216.1417"/>
    <polygon points="133.1918,210.9449 135.4488,213.2019 137.7059,210.9449 135.4488,208.6878"/>
    <polygon points="132.509,205.748 125.0551,198.2941 117.6012,205.748 125.0551,213.2019"/>
    <polygon points="135.4488,202.8082 142.9027,195.3543 135.4488,187.9004 127.9949,195.3543"/>
    <polygon points="149.3703,195.3543 166.6299,212.614 183.8896,195.3543 166.6299,178.0947"/>
    <polygon points="127.9949,174.5669 145.8425,192.4145 163.6901,174.5669 145.8425,156.7193"/>
    <polygon points="114.6614,171.6271 116.9185,169.3701 114.6614,167.113 112.4043,169.3701"/>
    <polygon points="96.8138,174.5669 99.0709,172.3099 101.3279,174.5669 99.0709,176.824"/>
    <polygon points="96.8138,164.1732 104.2677,156.7193 111.7216,164.1732 104.2677,171.6271"/>
    <polygon points="111.7216,164.1732 104.2677,156.7193 96.8138,164.1732 104.2677,171.6271"/>
    <polygon points="107.2075,153.7795 125.0551,171.6271 142.9027,153.7795 125.0551,135.9319"/>
    <polygon points="125.0551,136.5199 107.7955,153.7795 125.0551,171.0392 142.3148,153.7795"/>
    <polygon points="142.9027,132.9921 135.4488,140.446 127.9949,132.9921 135.4488,125.5382"/>
    <polygon points="145.8425,135.9319 153.2964,143.3858 145.8425,150.8397 138.3886,143.3858"/>
    <polygon points="138.3886,143.3858 145.8425,135.9319 153.2964,143.3858 145.8425,150.8397"/>
    <polygon points="145.8425,156.7193 127.9949,174.5669 145.8425,192.4145 163.6901,174.5669"/>
    <polygon points="145.8425,157.3073 128.5829,174.5669 145.8425,191.8266 163.1022,174.5669"/>
    <polygon points="148.7823,153.7795 156.2362,146.3256 163.6901,153.7795 156.2362,161.2334"/>
    <polygon points="163.6901,153.7795 156.2362,146.3256 148.7823,153.7795 156.2362,161.2334"/>
    <polygon points="166.6299,146.3256 168.887,148.5827 166.6299,150.8397 164.3729,148.5827"/>
    <polygon points="168.887,148.5827 166.6299,150.8397 164.3729,148.5827 166.6299,146.3256"/>
    <polygon points="171.8268,145.6429 174.0838,143.3858 171.8268,141.1288 169.5697,143.3858"/>
    <polygon points="174.0838,143.3858 171.8268,141.1288 169.5697,143.3858 171.8268,145.6429"/>
    <polygon points="187.4173,157.3073 170.1577,174.5669 187.4173,191.8266 204.677,174.5669"/>
    <polygon points="197.811,146.3256 190.3571,153.7795 197.811,161.2334 205.2649,153.7795"/>
    <polygon points="208.2047,156.7193 210.4618,158.9764 208.2047,161.2334 205.9477,158.9764"/>
    <polygon points="208.2047,156.7193 210.4618,158.9764 208.2047,161.2334 205.9477,158.9764"/>
    <polygon points="208.2047,150.8397 200.7508,143.3858 208.2047,135.9319 215.6586,143.3858"/>
    <polygon points="215.6586,143.3858 208.2047,135.9319 200.7508,143.3858 208.2047,150.8397"/>
    <polygon points="218.5984,125.5382 211.1445,132.9921 218.5984,140.446 226.0523,132.9921"/>
    <polygon points="218.5984,125.5382 211.1445,132.9921 218.5984,140.446 226.0523,132.9921"/>
    <polygon points="221.5382,122.5984 228.9921,130.0523 236.446,122.5984 228.9921,115.1445"/>
    <polygon points="228.9921,130.0523 236.446,122.5984 228.9921,115.1445 221.5382,122.5984"/>
    <polygon points="231.9319,132.9921 239.3858,140.446 246.8397,132.9921 239.3858,125.5382"/>
    <polygon points="249.7795,135.9319 242.3256,143.3858 249.7795,150.8397 257.2334,143.3858"/>
    <polygon points="257.2334,143.3858 249.7795,135.9319 242.3256,143.3858 249.7795,150.8397"/>
    <polygon points="270.5669,146.3256 272.824,148.5827 270.5669,150.8397 268.3099,148.5827"/>
    <polygon points="291.3543,135.9319 273.5067,153.7795 291.3543,171.6271 309.2019,153.7795"/>
    <polygon points="304.6878,122.5984 312.1417,115.1445 319.5957,122.5984 312.1417,130.0523"/>
    <polygon points="325.4752,122.5984 327.7323,120.3414 329.9894,122.5984 327.7323,124.8555"/>
    <polygon points="327.7323,124.8555 325.4752,122.5984 327.7323,120.3414 329.9894,122.5984"/>
    <polygon points="329.9894,132.9921 322.5354,140.446 315.0815,132.9921 322.5354,125.5382"/>
    <polygon points="335.1862,148.5827 332.9291,150.8397 330.6721,148.5827 332.9291,146.3256"/>
    <polygon points="330.6721,148.5827 332.9291,146.3256 335.1862,148.5827 332.9291,150.8397"/>
    <polygon points="322.5354,146.3256 329.9894,153.7795 322.5354,161.2334 315.0815,153.7795"/>
    <polygon points="304.6878,143.3858 312.1417,135.9319 319.5957,143.3858 312.1417,150.8397"/>
    <polygon points="319.5957,164.1732 312.1417,156.7193 304.6878,164.1732 312.1417,171.6271"/>
    <polygon points="325.4752,164.1732 332.9291,171.6271 340.3831,164.1732 332.9291,156.7193"/>
    <polygon points="332.9291,171.6271 340.3831,164.1732 332.9291,156.7193 325.4752,164.1732"/>
    <polygon points="324.7925,179.7638 322.5354,177.5067 320.2784,179.7638 322.5354,182.0208"/>
    <polygon points="322.5354,182.0208 324.7925,179.7638 322.5354,177.5067 320.2784,179.7638"/>
    <polygon points="319.5957,184.9606 312.1417,177.5067 304.6878,184.9606 312.1417,192.4145"/>
    <polygon points="315.0815,195.3543 322.5354,202.8082 329.9894,195.3543 322.5354,187.9004"/>
    <polygon points="312.1417,213.2019 319.5957,205.748 312.1417,198.2941 304.6878,205.748"/>
    <polygon points="288.4145,216.1417 249.7795,254.7768 211.1445,216.1417 249.7795,177.5067"/>
    <polygon points="287.2386,216.1417 249.7795,253.6008 212.3204,216.1417 249.7795,178.6826"/>
    <polygon points="273.5067,195.3543 275.7638,193.0973 278.0208,195.3543 275.7638,197.6114"/>
    <polygon points="278.7036,190.1575 280.9606,187.9004 283.2177,190.1575 280.9606,192.4145"/>
    <polygon points="280.9606,192.4145 278.7036,190.1575 280.9606,187.9004 283.2177,190.1575"/>
    <polygon points="294.2941,195.3543 301.748,187.9004 309.2019,195.3543 301.748,202.8082"/>
    <polygon points="291.3543,177.5067 283.9004,184.9606 291.3543,192.4145 298.8082,184.9606"/>
    <polygon points="294.2941,174.5669 301.748,182.0208 309.2019,174.5669 301.748,167.113"/>
    <polygon points="291.3543,171.0392 308.614,153.7795 291.3543,136.5199 274.0947,153.7795"/>
    <polygon points="270.5669,156.7193 252.7193,174.5669 270.5669,192.4145 288.4145,174.5669"/>
    <polygon points="260.1732,161.2334 267.6271,153.7795 260.1732,146.3256 252.7193,153.7795"/>
    <polygon points="253.3073,174.5669 270.5669,157.3073 287.8266,174.5669 270.5669,191.8266"/>
    <polygon points="249.7795,171.6271 242.3256,164.1732 249.7795,156.7193 257.2334,164.1732"/>
    <polygon points="252.7193,153.7795 260.1732,161.2334 267.6271,153.7795 260.1732,146.3256"/>
    <polygon points="249.7795,156.7193 242.3256,164.1732 249.7795,171.6271 257.2334,164.1732"/>
    <polygon points="244.5827,156.0366 246.8397,153.7795 244.5827,151.5225 242.3256,153.7795"/>
    <polygon points="228.9921,157.3073 211.7325,174.5669 228.9921,191.8266 246.2518,174.5669"/>
    <polygon points="211.1445,174.5669 228.9921,192.4145 246.8397,174.5669 228.9921,156.7193"/>
    <polygon points="211.1445,174.5669 228.9921,192.4145 246.8397,174.5669 228.9921,156.7193"/>
    <polygon points="208.2047,178.0947 190.9451,195.3543 208.2047,212.614 225.4644,195.3543"/>
    <polygon points="187.4173,192.4145 205.2649,174.5669 187.4173,156.7193 169.5697,174.5669"/>
    <polygon points="184.4775,195.3543 166.6299,177.5067 148.7823,195.3543 166.6299,213.2019"/>
    <polygon points="166.6299,233.9894 174.0838,226.5354 166.6299,219.0815 159.176,226.5354"/>
    <polygon points="163.6901,236.9291 156.2362,229.4752 148.7823,236.9291 156.2362,244.3831"/>
    <polygon points="156.2362,244.3831 163.6901,236.9291 156.2362,229.4752 148.7823,236.9291"/>
    <polygon points="163.6901,257.7165 145.8425,275.5642 127.9949,257.7165 145.8425,239.8689"/>
    <polygon points="163.6901,257.7165 145.8425,275.5642 127.9949,257.7165 145.8425,239.8689"/>
    <polygon points="166.6299,261.8322 204.089,299.2913 166.6299,336.7504 129.1708,299.2913"/>
    <polygon points="166.6299,261.2443 204.677,299.2913 166.6299,337.3384 128.5829,299.2913"/>
    <polygon points="169.5697,257.7165 208.2047,219.0815 246.8397,257.7165 208.2047,296.3516"/>
    <polygon points="187.4173,233.9894 169.5697,216.1417 187.4173,198.2941 205.2649,216.1417"/>
    <polygon points="187.4173,233.4014 170.1577,216.1417 187.4173,198.8821 204.677,216.1417"/>
    <polygon points="205.2649,216.1417 187.4173,233.9894 169.5697,216.1417 187.4173,198.2941"/>
    <polygon points="208.2047,213.2019 190.3571,195.3543 208.2047,177.5067 226.0523,195.3543"/>
    <polygon points="211.1445,216.1417 249.7795,177.5067 288.4145,216.1417 249.7795,254.7768"/>
    <polygon points="212.9084,216.1417 249.7795,179.2706 286.6507,216.1417 249.7795,253.0129"/>
    <polygon points="249.7795,254.1888 211.7325,216.1417 249.7795,178.0947 287.8266,216.1417"/>
    <polygon points="244.5827,265.8532 246.8397,268.1102 244.5827,270.3673 242.3256,268.1102"/>
    <polygon points="242.3256,268.1102 244.5827,265.8532 246.8397,268.1102 244.5827,270.3673"/>
    <polygon points="239.3858,271.05 246.8397,278.5039 239.3858,285.9579 231.9319,278.5039"/>
    <polygon points="231.9319,278.5039 239.3858,271.05 246.8397,278.5039 239.3858,285.9579"/>
    <polygon points="208.2047,294.5877 171.3336,257.7165 208.2047,220.8454 245.0759,257.7165"/>
    <polygon points="208.2047,295.1756 170.7456,257.7165 208.2047,220.2574 245.6638,257.7165"/>
    <polygon points="208.2047,295.7636 170.1577,257.7165 208.2047,219.6695 246.2518,257.7165"/>
    <polygon points="211.7325,299.2913 228.9921,282.0317 246.2518,299.2913 228.9921,316.551"/>
    <polygon points="211.1445,299.2913 228.9921,281.4437 246.8397,299.2913 228.9921,317.139"/>
    <polygon points="208.2047,302.2311 169.5697,340.8661 208.2047,379.5012 246.8397,340.8661"/>
    <polygon points="208.2047,302.8191 170.1577,340.8661 208.2047,378.9132 246.2518,340.8661"/>
    <polygon points="231.9319,320.0787 239.3858,312.6248 246.8397,320.0787 239.3858,327.5327"/>
    <polygon points="239.3858,327.5327 231.9319,320.0787 239.3858,312.6248 246.8397,320.0787"/>
    <polygon points="249.7795,323.0185 257.2334,330.4724 249.7795,337.9264 242.3256,330.4724"/>
    <polygon points="257.9162,335.6693 260.1732,333.4122 262.4303,335.6693 260.1732,337.9264"/>
    <polygon points="245.0759,340.8661 208.2047,377.7373 171.3336,340.8661 208.2047,303.995"/>
  </g>
  <g fill="none" id="layer2" inkscape:groupmode="layer" inkscape:label="2" stroke="#000000" stroke-width="0.7559" style="display:inline">
    <line x1="183.8863" x2="184.3794" y1="444.512" y2="444.9013"/>
    <line x1="184.4368" x2="183.8863" y1="444.8439" y2="444.512"/>
    <polyline points="183.4539,444.1708 183.6574,444.3741 183.8863,444.512"/>
    <line x1="183.8863" x2="183.4539" y1="444.512" y2="444.1708"/>
    <line x1="181.8565" x2="183.4539" y1="442.91" y2="444.1708"/>
    <line x1="183.4539" x2="182.0241" y1="444.1708" y2="442.7424"/>
    <line x1="179.2184" x2="178.8665" y1="439.6686" y2="439.1921"/>
    <polyline points="179.1485,439.7384 178.2273,438.6079 178.0758,438.4015"/>
    <line x1="167.301" x2="165.3321" y1="430.7986" y2="428.2533"/>
    <polyline points="176.1894,427.7897 176.6348,428.4386 178.0353,430.458"/>
    <polyline points="178.1271,430.3662 178.0404,430.2411 176.2744,427.7048"/>
    <polyline points="213.0334,384.3299 213.3584,384.4172 218.1165,386.5073 222.7912,388.7776 227.6235,390.6897 232.5753,392.2666 236.0379,393.2428"/>
    <polyline points="233.1355,396.1452 231.8279,395.7136 226.9094,394.0357 222.0553,392.1795 219.8821,391.1786"/>
    <polyline points="224.2794,395.5759 228.2638,397.0632 231.1292,398.1515"/>
    <polyline points="230.8086,398.4721 229.4732,397.9441 224.9396,396.2361"/>
    <polyline points="225.9367,397.2331 228.3294,398.155 230.3166,398.9641"/>
    <line x1="229.8433" x2="226.9756" y1="399.4374" y2="398.2721"/>
    <line x1="227.1427" x2="229.7555" y1="398.4391" y2="399.5252"/>
    <line x1="229.6813" x2="227.3156" y1="399.5994" y2="398.612"/>
    <line x1="228.5259" x2="229.1782" y1="399.8224" y2="400.1025"/>
    <line x1="229.1097" x2="228.6909" y1="400.171" y2="399.9873"/>
    <line x1="228.9521" x2="228.9521" y1="400.2047" y2="400.2047"/>
    <polyline points="232.1019,403.3983 235.2095,405.3006 239.2608,408.5555 242.9021,412.2634 246.3854,416.12 249.8305,420.0108 250.3028,420.5527"/>
    <polyline points="253.1725,417.683 250.1438,414.8085 246.2853,411.3273 242.3192,407.9691 238.0829,404.959 233.5591,402.4011 233.0174,402.1429"/>
    <polyline points="233.0973,402.063 235.564,403.3077 240.0077,406.0022 244.1411,409.1522 248.0753,412.5476 251.9225,416.0414 253.415,417.4405"/>
    <polyline points="253.5748,417.2807 251.4816,415.3266 247.606,411.8644 243.6327,408.5147 239.4341,405.4521 234.9357,402.85 233.1717,401.9886"/>
    <polyline points="233.746,401.4143 235.9372,402.4316 240.5141,404.8931 244.8171,407.8071 248.9012,411.0207 252.8451,414.405 254.7514,416.104"/>
    <polyline points="254.9097,415.9458 253.041,414.288 249.0914,410.9105 244.9954,407.712 240.6804,404.8158 236.0938,402.3724 233.8305,401.3297"/>
    <polyline points="233.9262,401.2341 235.2644,401.8319 239.9047,404.1718 244.2923,406.9567 248.4381,410.0903"/>
    <polyline points="255.5825,407.2733 259.4983,410.69 259.8534,411.0021"/>
    <polyline points="259.8089,411.0466 258.9761,410.3123 255.0446,406.9137 250.8953,403.7847 246.4375,401.1135 241.6834,399.0146 237.5502,397.6101"/>
    <line x1="235.3744" x2="237.9644" y1="399.7858" y2="400.7948"/>
    <line x1="237.9077" x2="234.4686" y1="402.1885" y2="400.6917"/>
    <polyline points="235.0143,400.146 239.1124,401.8314 243.7554,404.1659 248.1291,406.9727 252.2671,410.1165 256.2298,413.4787 256.848,414.0075"/>
    <polyline points="260.2433,410.6122 256.7768,407.5327 252.7281,404.2746 248.3754,401.4353 243.7062,399.1536 238.8147,397.3985"/>
    <polyline points="240.6001,394.5602 242.5654,395.1345 247.4169,396.9973 251.9925,399.4613 256.2022,402.5086 260.0853,405.9624 262.5543,408.3012"/>
    <line x1="262.4606" x2="262.9541" y1="407.4379" y2="407.9014"/>
    <line x1="280.3154" x2="281.1218" y1="410.0371" y2="410.5211"/>
    <line x1="281.1413" x2="280.2044" y1="410.5016" y2="409.926"/>
    <polyline points="279.3687,409.0903 280.7211,409.9484 281.3442,410.2987"/>
    <polyline points="282.6146,409.0283 279.375,407.0262 275.1266,404.0331 273.8294,402.9057"/>
    <polyline points="275.5174,401.2176 278.1599,403.2488 282.4621,406.164 284.2909,407.352"/>
    <polyline points="284.6325,407.0104 280.445,404.2063 276.216,401.186 275.8518,400.8833"/>
    <polyline points="277.6522,399.0828 278.5826,399.7828 282.826,402.7829 286.3341,405.3088"/>
    <polyline points="287.804,403.8389 285.9949,402.4252 281.826,399.3225 279.2427,397.4924"/>
    <polyline points="266.4203,404.4352 265.3254,403.3216 261.7036,399.5947 257.7903,396.1751 253.4294,393.3484 248.7047,391.1841 245.1658,389.9944"/>
    <polyline points="245.5503,389.61 249.6994,391.0649 254.3839,393.315 258.6797,396.2396"/>
    <polyline points="259.6673,395.2685 258.0314,393.9172 253.5714,391.2498 248.7832,389.2297 246.6196,388.5406"/>
    <polyline points="247.3086,387.8517 249.9166,388.7056 254.6813,390.7805 255.9929,391.5941"/>
    <polyline points="254.723,390.5497 249.9516,388.4902 247.476,387.6842"/>
    <polyline points="248.2149,386.9453 248.5659,387.05 253.1949,388.7961"/>
    <polyline points="253.1569,388.7581 252.7353,388.5474 248.2396,386.9207"/>
    <line x1="249.0739" x2="251.1656" y1="386.0864" y2="386.7668"/>
    <polyline points="250.3977,385.9989 250.1881,385.9189 249.4609,385.6994"/>
    <line x1="263.1374" x2="266.1783" y1="382.4654" y2="383.8898"/>
    <line x1="267.2579" x2="264.7958" y1="382.8102" y2="381.568"/>
    <polyline points="264.5353,381.0186 267.0892,382.0172 267.3556,382.1694"/>
    <polyline points="267.5274,382.5407 264.6578,381.153 264.4641,381.0899"/>
    <polyline points="243.1841,378.7853 240.8594,378.1511 235.8057,376.9398 230.6949,375.9979 225.5215,375.5052 220.326,375.3848 218.2732,375.3123"/>
    <polyline points="215.9662,371.7397 212.3208,372.2212 207.1337,372.5382 201.9405,372.7342 201.464,372.7604"/>
    <polyline points="200.9499,372.2464 204.2737,372.0206 209.4573,371.6494 214.6109,370.9808 217.3305,370.3754"/>
    <polyline points="214.2541,361.2748 218.764,358.6924 223.1967,355.9798 227.6996,353.3854 232.4198,351.2111 237.4456,349.8888 237.8352,349.8707"/>
    <polyline points="237.5886,350.1172 234.4293,350.6855 229.5867,352.5713 225.017,355.0462 220.5551,357.7106 216.0961,360.3798 211.4516,362.7112 206.613,364.6073 201.675,366.2271 196.7095,367.7602 196.5202,367.8166"/>
    <polyline points="197.7613,369.0577 202.5046,367.8855 207.5251,366.5433 212.4573,364.9061 217.2367,362.8653 221.913,360.5983"/>
    <polyline points="221.5955,366.1104 218.4284,367.2727 213.4581,368.7901 208.3728,369.8611 203.2305,370.612 199.7779,371.0743"/>
    <polyline points="199.6525,370.9489 201.3876,370.6961 206.5309,369.9524 211.6351,368.9752"/>
    <polyline points="207.8688,371.2918 202.6906,371.7308 200.6217,371.9181"/>
    <polyline points="200.0628,371.3593 202.1282,371.1085 207.2882,370.4909 212.411,369.6167 217.4373,368.2965 220.4307,367.2752"/>
    <polyline points="220.7115,366.9944 219.6948,367.3554 214.7325,368.8988 209.6536,369.9998 204.5083,370.7304"/>
    <polyline points="205.8272,374.1632 211.0235,374.2433 213.4708,374.235"/>
    <polyline points="212.8036,374.9023 211.9428,374.8774 206.7489,374.7024 203.3003,374.5968"/>
    <polyline points="204.5662,375.8627 204.711,375.8718 209.8952,376.2344 211.3271,376.3788"/>
    <polyline points="210.7571,376.9488 206.086,376.5233 205.1548,376.4513"/>
    <line x1="207.496" x2="210.3517" y1="377.0279" y2="377.3542"/>
    <polyline points="209.9511,377.7548 209.8625,377.7401 206.0555,377.3519"/>
    <line x1="206.206" x2="209.8213" y1="377.5025" y2="377.8845"/>
    <line x1="208.9857" x2="207.2049" y1="378.7202" y2="378.5013"/>
    <line x1="207.4796" x2="208.7735" y1="378.776" y2="378.9324"/>
    <line x1="209.946" x2="209.946" y1="377.6628" y2="377.6628"/>
    <line x1="209.9399" x2="212.6079" y1="374.9889" y2="375.098"/>
    <polyline points="213.7105,379.875 214.148,379.9603 219.0623,381.6504 223.8524,383.6659 228.7287,385.4628 233.7253,386.8917 238.7618,388.1726 240.609,388.6717"/>
    <polyline points="240.9903,388.2903 239.7874,387.9568 234.75,386.6795 229.7349,385.3169 224.824,383.6168 220.0085,381.6629 215.1128,379.9194 213.9177,379.6677"/>
    <polyline points="218.9492,380.2402 223.8346,382.0123 228.7548,383.685 233.7676,385.056 238.8089,386.318 242.0906,387.1901"/>
    <polyline points="242.5203,386.7604 240.0598,386.0892 235.0191,384.8246 229.9869,383.5269 225.03,381.9659 220.1197,380.2642 215.1339,378.7981 214.8388,378.7467"/>
    <polyline points="214.9947,378.5908 219.9939,379.9906 224.9221,381.6398 229.8862,383.1777 234.9202,384.4684 239.9618,385.7291 242.7861,386.4945"/>
    <polyline points="242.9553,386.3254 239.9936,385.5241 234.9516,384.265 229.9155,382.9823 224.9451,381.4649 220.0057,379.8496 215.081,378.5044"/>
    <polyline points="215.4234,378.1621 217.7582,378.6218 222.7626,380.023 227.7478,381.4912 232.774,382.8119 237.8242,384.0379 242.8576,385.3307 243.7043,385.5764"/>
    <polyline points="243.6858,385.5949 243.5857,385.5651 238.5562,384.257"/>
    <polyline points="238.0643,380.9267 243.0984,382.217 246.2069,383.0738"/>
    <polyline points="245.94,383.3407 245.5471,383.2257 240.5238,381.8941 235.4773,380.6528 230.4058,379.5184 225.3187,378.4561 220.2029,377.5417 216.5956,376.9899"/>
    <polyline points="215.9033,377.6821 216.4022,377.756 221.471,378.9023 226.5063,380.1883 231.5452,381.4598 236.6019,382.6583 241.642,383.9251 244.5566,384.7241"/>
    <polyline points="244.9367,384.344 240.1891,383.0875 235.143,381.8451 230.0836,380.6575"/>
    <polyline points="226.8229,372.536 232.019,372.621 237.1594,373.3854 237.9729,373.5741"/>
    <polyline points="239.9446,375.5458 236.9149,374.8194 231.7903,373.9556 226.6001,373.6932 221.4119,373.9934 219.5068,374.0787"/>
    <polyline points="218.5474,375.0381 222.3342,375.0663 227.5299,375.1749 232.6899,375.7932 237.7825,376.829 242.4079,378.0091"/>
    <line x1="235.547" x2="234.6216" y1="371.1482" y2="371.0012"/>
    <polyline points="234.744,370.3452 232.693,370.1308 227.4997,370.3225 222.3832,371.2331"/>
    <polyline points="223.2964,370.289 227.6429,369.3961 232.8287,369.0577 233.5084,369.1096"/>
    <polyline points="231.6311,367.2323 229.7698,367.3673 225.2728,368.3127"/>
    <polyline points="228.0802,359.6257 225.105,360.9037 220.3401,362.978 215.5708,365.0423 210.6681,366.7659 205.6446,368.0968 200.5691,369.2134 198.3852,369.6816"/>
    <polyline points="193.5115,364.808 196.3861,363.6105 201.1086,361.4413 205.7009,359.0086 209.9287,355.9865 213.4383,352.1538 216.3918,347.8778 219.5961,343.7864 223.4823,340.3361 228.0251,337.8121 232.998,336.303 238.165,335.747 242.1247,336.1511"/>
    <polyline points="242.3041,324.6144 237.3303,325.3708 237.2518,325.3987"/>
    <line x1="238.2884" x2="240.7734" y1="326.4353" y2="326.145"/>
    <line x1="240.7676" x2="238.3198" y1="326.1509" y2="326.4666"/>
    <polyline points="238.2895,332.3159 235.3876,332.718 230.4214,334.2492 225.7086,336.4392 221.477,339.456 217.9274,343.2518 215.1003,347.6123 212.3602,352.0281 208.9015,355.9069 204.6833,358.9423 200.1059,361.403"/>
    <polyline points="193.7623,351.9843 189.6961,355.2205 185.9833,357.2797"/>
    <polyline points="188.5528,359.8493 191.9752,358.1111 196.1451,355.0096 199.6232,351.1482 202.0844,346.5712 203.7265,341.6406 205.4873,336.7511 208.2125,332.3261 211.8929,328.657"/>
    <polyline points="194.68,333.5183 190.938,337.1246 186.7404,340.1884 181.9834,342.2809 176.8728,343.224 171.8875,343.1839"/>
    <polyline points="173.2369,344.5334 177.3601,344.3983 182.438,343.2925 187.1502,341.1011 191.2946,337.9657 194.9622,334.2838 198.5306,330.5058 202.5063,327.1589 206.9227,324.4198 211.5633,322.0807 216.2953,319.9323 221.1001,317.9519 223.2073,317.2337"/>
    <polyline points="221.8816,315.908 218.5167,317.0729 213.6643,318.9332 208.8451,320.8782 204.0993,322.9957 199.5472,325.503 195.309,328.5104 191.2777,331.79 187.0564,334.8212 182.4216,337.172 177.3674,338.381 172.1709,338.4436 172.0193,338.4166"/>
    <polyline points="174.5999,335.836 174.7732,335.8403 179.8725,334.8382 184.6329,332.7536 189.074,330.0547 193.3754,327.1383 197.7645,324.3556 202.3857,321.9783 207.1856,319.9863 212.0599,318.1839 216.957,316.4445 221.0559,315.0823"/>
    <polyline points="220.8199,314.8463 217.4965,315.9079 212.5812,317.5954 207.6847,319.3365 202.8478,321.237 198.1655,323.4916 193.698,326.1465 189.3317,328.9648 184.8784,331.6435 180.1719,333.8471"/>
    <polyline points="183.832,326.6038 183.9377,326.5535 188.623,324.3051 193.29,322.019 198.0097,319.8437 202.8758,318.0193 207.8435,316.4934 212.8466,315.0873"/>
    <line x1="208.6247" x2="207.8776" y1="302.6511" y2="302.5582"/>
    <line x1="207.7472" x2="208.8039" y1="302.6887" y2="302.8303"/>
    <line x1="209.5043" x2="207.1735" y1="303.5307" y2="303.2624"/>
    <line x1="206.6203" x2="206.9489" y1="303.8156" y2="303.8496"/>
    <line x1="206.9234" x2="206.5476" y1="303.9266" y2="303.8883"/>
    <polyline points="204.737,305.6989 207.0583,305.8413 212.0958,306.1222"/>
    <polyline points="212.8584,306.8848 210.5165,306.8321 205.3229,306.6469 203.8488,306.587"/>
    <polyline points="200.2829,310.1529 204.0298,309.8693 209.2196,309.5972 214.4054,309.2589 215.1666,309.193"/>
    <polyline points="215.806,309.8324 214.1886,310.0168 209.015,310.5079 203.8382,310.9636 198.8618,311.574"/>
    <polyline points="195.8224,314.6135 200.5574,313.4352 205.6738,312.5245 210.8151,311.7665 215.9528,310.9849 216.8193,310.8457"/>
    <polyline points="219.603,313.6294 219.0358,313.7771 214.0408,315.2112 209.0548,316.6766 204.0954,318.2296 199.2258,320.0446 194.509,322.2262 189.8895,324.6068 185.245,326.9383 181.7583,328.6775"/>
    <polyline points="162.9578,340.1338 162.4691,339.9477 158.0323,337.2418 153.7414,334.31 149.3319,331.5598 144.8557,328.9195 141.8757,326.9853"/>
    <line x1="147.375" x2="145.0604" y1="324.551" y2="323.8006"/>
    <polyline points="144.8222,324.0388 145.8873,324.4625 147.9989,325.1749"/>
    <polyline points="151.1014,328.2774 150.3947,327.9498 145.6011,325.9426 143.7786,325.0825"/>
    <polyline points="143.1182,325.7429 143.7625,326.1103 148.4508,328.3524 153.1074,330.6597 153.9739,331.1499"/>
    <polyline points="159.4765,336.6525 156.428,334.7077 152.0196,331.9557 147.4776,329.4304 142.9357,326.9047 142.3451,326.5159"/>
    <polyline points="141.9406,326.9204 143.3883,327.9083 147.8604,330.5556 152.3188,333.2257 156.6466,336.1027"/>
    <line x1="139.8691" x2="139.8691" y1="338.9562" y2="338.9562"/>
    <polyline points="139.8256,338.8858 137.1825,334.6045 136.1255,332.7355"/>
    <polyline points="129.5406,339.3205 130.8524,343.1101 131.364,344.2352"/>
    <line x1="132.4299" x2="132.4299" y1="351.2097" y2="351.2097"/>
    <polyline points="130.8828,352.8861 129.1214,350.2503 126.9934,345.7442"/>
    <polyline points="126.422,347.6293 128.8534,352.2223 130.0023,353.7666"/>
    <polyline points="129.5669,354.2019 127.6375,351.3581 125.3367,346.6983 124.4592,344.4018"/>
    <polyline points="122.3435,346.5175 122.6112,347.2249 124.9094,351.886 127.6723,356.0966"/>
    <polyline points="127.4997,356.2692 125.4447,353.4053 122.974,348.8333 122.1183,346.7427"/>
    <polyline points="119.3858,349.4753 119.5791,349.9751 122.0637,354.5396 125.0649,358.704"/>
    <polyline points="118.8523,360.4025 119.1304,360.7857 120.9897,362.7792"/>
    <line x1="120.0542" x2="117.8881" y1="363.7146" y2="361.3667"/>
    <line x1="117.657" x2="117.657" y1="351.2897" y2="351.2897"/>
    <polyline points="118.1998,350.6613 118.5017,351.4196 119.5084,353.1671"/>
    <line x1="125.841" x2="128.2265" y1="351.9909" y2="355.5424"/>
    <polyline points="144.5368,357.408 144.7463,357.4998 146.6094,357.9469"/>
    <polyline points="148.974,355.5823 146.5161,354.8427 141.8261,352.6041 137.8799,349.2226 134.9797,344.9102 132.9098,340.1434 131.8037,337.0573"/>
    <polyline points="133.9007,334.9604 135.6484,339.0757 138.0884,343.6641 141.4277,347.6461 145.6648,350.6552 150.3883,352.822"/>
    <polyline points="152.1571,352.3992 151.459,352.1407 146.7561,349.9294 142.4776,346.9795 139.0192,343.1005 136.44,338.5888 134.5086,334.3525"/>
    <polyline points="136.0876,332.7734 136.4478,333.404 139.07,337.8908 139.8256,338.8858"/>
    <polyline points="139.8256,338.8858 142.2129,342.0295 146.09,345.4901 150.4774,348.2754 154.3419,350.2144"/>
    <polyline points="155.0755,349.4808 154.9341,349.4192 150.3757,346.9236 146.081,343.9973 142.2785,340.4549 139.1332,336.318 136.6143,332.2467"/>
    <polyline points="141.6848,327.1762 144.2915,328.9547 148.727,331.6628 153.1199,334.4395 157.3934,337.3965 161.7722,340.1953 163.6065,340.9498"/>
    <line x1="169.7025" x2="170.5679" y1="340.7334" y2="340.9535"/>
    <polyline points="171.1775,342.474 172.4441,342.6964 177.6406,342.6367 182.7209,341.5424"/>
    <polyline points="184.74,348.5934 179.9723,350.6613 179.513,350.8095"/>
    <polyline points="181.3154,352.6119 181.4615,352.5514 186.0916,350.1914 190.3703,347.2419 194.0828,343.6053 197.1747,339.4283 199.978,335.0523 203.1839,330.9621 207.0927,327.5375 211.4588,324.7189"/>
    <polyline points="220.6852,329.9811 223.0627,328.2643 227.6711,325.8623 230.5885,324.6149"/>
    <polyline points="230.6512,324.6775 229.4115,325.1598 224.7358,327.428 220.6852,329.9811"/>
    <line x1="220.1853" x2="220.6852" y1="330.3421" y2="329.9811"/>
    <polyline points="220.6852,329.9811 220.3394,330.1991 220.1853,330.3421"/>
    <line x1="216.8427" x2="220.1853" y1="333.4448" y2="330.3421"/>
    <polyline points="220.1853,330.3421 218.8495,331.3067 216.8427,333.4448"/>
    <line x1="216.4105" x2="216.8427" y1="333.9053" y2="333.4448"/>
    <polyline points="216.8427,333.4448 216.5306,333.7346 216.4105,333.9053"/>
    <line x1="215.293" x2="216.4105" y1="335.096" y2="333.9053"/>
    <polyline points="216.4105,333.9053 213.5417,337.986 211.6,342.8065 210.0535,347.7678 207.7335,352.4181 204.2178,356.2452 199.9642,359.231 195.4097,361.7337 192.0103,363.3067"/>
    <polyline points="191.9655,363.262 195.9334,361.379 200.4558,358.8188 204.6321,355.7259 207.9835,351.7541 210.0374,347.1996"/>
    <line x1="210.0374" x2="209.8921" y1="347.1996" y2="347.6768"/>
    <polyline points="211.983,349.3913 212.0162,349.3397 213.3362,346.4366"/>
    <line x1="213.3362" x2="211.983" y1="346.4366" y2="349.3913"/>
    <line x1="210.5245" x2="211.983" y1="351.6565" y2="349.3913"/>
    <polyline points="211.983,349.3913 211.8924,349.5891 210.5245,351.6565"/>
    <polyline points="209.1084,353.797 209.0249,353.9232 206.9551,355.7958"/>
    <line x1="206.9551" x2="205.261" y1="355.7958" y2="357.3285"/>
    <line x1="205.261" x2="202.5587" y1="357.3285" y2="359.0281"/>
    <polyline points="202.5587,359.0281 200.995,360.0115 200.8564,360.0825"/>
    <polyline points="200.8564,360.0825 200.7533,360.1464 197.9519,361.5708"/>
    <line x1="197.9519" x2="196.2659" y1="361.5708" y2="362.4281"/>
    <line x1="196.2659" x2="193.595" y1="362.4281" y2="363.6261"/>
    <line x1="193.595" x2="192.7194" y1="363.6261" y2="364.0159"/>
    <line x1="192.7215" x2="193.595" y1="364.018" y2="363.6261"/>
    <polyline points="193.595,363.6261 196.1209,362.5019 196.2659,362.4281"/>
    <polyline points="196.2659,362.4281 196.37,362.3815 197.9519,361.5708"/>
    <line x1="197.9519" x2="200.8564" y1="361.5708" y2="360.0825"/>
    <line x1="200.8564" x2="202.5587" y1="360.0825" y2="359.0281"/>
    <polyline points="202.5587,359.0281 205.1712,357.4098 205.261,357.3285"/>
    <polyline points="205.261,357.3285 205.3941,357.2448 206.9551,355.7958"/>
    <line x1="206.9551" x2="209.1084" y1="355.7958" y2="353.797"/>
    <line x1="209.1084" x2="210.5245" y1="353.797" y2="351.6565"/>
    <polyline points="210.5245,351.6565 209.2029,353.7092 209.1084,353.797"/>
    <polyline points="209.1759,354.7424 212.3027,350.5914 214.7382,346.0006 217.3963,341.535 220.8551,337.6564 225.007,334.5307 229.601,332.1013 234.4066,330.1231 235.7402,329.7665"/>
    <polyline points="233.0907,328.1801 233.3055,328.08 233.867,327.8934"/>
    <line x1="233.8829" x2="233.0907" y1="327.9093" y2="328.1801"/>
    <polyline points="234.6966,328.723 230.7756,330.3197 226.1433,332.6753 221.8388,335.5871 218.1572,339.2549 215.3035,343.5982 213.0324,348.2725 210.3931,352.7493 206.7938,356.4979 202.4877,359.4073 197.8936,361.8366 193.1772,364.0191 192.8521,364.1485"/>
    <polyline points="193.3652,364.6616 196.2039,363.4683 200.9136,361.2715 205.4846,358.7991 209.6705,355.7191 213.0997,351.8143 215.9288,347.455"/>
    <polyline points="219.8987,336.2022 220.0061,336.075 222.4701,334.1237"/>
    <line x1="222.4701" x2="219.8987" y1="334.1237" y2="336.2022"/>
    <line x1="219.8987" x2="218.6038" y1="336.2022" y2="337.7348"/>
    <polyline points="218.6038,337.7348 216.6521,340.0447 216.5682,340.1988"/>
    <polyline points="216.5682,340.1988 216.5021,340.2788 215.4135,342.3197"/>
    <polyline points="215.4135,342.3197 214.0564,344.8642 213.3362,346.4366"/>
    <polyline points="213.3362,346.4366 214.1672,344.6089 215.4135,342.3197"/>
    <line x1="215.4135" x2="216.5682" y1="342.3197" y2="340.1988"/>
    <line x1="216.5682" x2="218.6038" y1="340.1988" y2="337.7348"/>
    <polyline points="218.6038,337.7348 219.8119,336.2723 219.8987,336.2022"/>
    <polyline points="222.4701,334.1237 223.8536,333.0055 223.9594,332.9443"/>
    <line x1="223.9594" x2="222.4701" y1="332.9443" y2="334.1237"/>
    <line x1="223.9594" x2="227.4537" y1="332.9443" y2="330.9252"/>
    <polyline points="227.4537,330.9252 224.0802,332.8487 223.9594,332.9443"/>
    <line x1="227.4537" x2="228.4226" y1="330.9252" y2="330.3728"/>
    <polyline points="228.4226,330.3728 228.3533,330.4054 227.4537,330.9252"/>
    <polyline points="228.4226,330.3728 228.5947,330.2746 232.1454,328.6205"/>
    <line x1="232.1454" x2="228.4226" y1="328.6205" y2="330.3728"/>
    <line x1="232.1454" x2="233.0907" y1="328.6205" y2="328.1801"/>
    <polyline points="233.0907,328.1801 233.0553,328.1922 232.1454,328.6205"/>
    <line x1="232.4339" x2="232.9148" y1="327.1123" y2="326.9412"/>
    <polyline points="231.7487,325.7751 228.0761,327.4385 223.5276,329.9522 219.3851,333.0902 215.939,336.9801 213.437,341.5351 211.661,346.419 209.5504,351.168 207.2982,354.0398"/>
    <polygon points="207.2333,354.1385 207.2455,354.107"/>
    <polyline points="207.1927,354.1743 206.3434,355.2573 202.2371,358.4425 197.7339,361.0365 193.0627,363.3141 192.322,363.6184"/>
    <polyline points="192.2541,363.5505 194.2855,362.6694 198.9146,360.3074 203.3357,357.5758 207.1927,354.1743"/>
    <line x1="207.2455" x2="207.2455" y1="354.107" y2="354.107"/>
    <polyline points="207.2982,354.0398 210.0879,349.7958 211.9522,344.9449 213.8028,340.0887 216.5548,335.6803 220.1943,331.9707 224.4745,329.0233 229.0828,326.621 231.5476,325.574"/>
    <polyline points="230.4671,324.4935 229.8026,324.7411 225.1036,326.9607 220.6556,329.6483 216.7675,333.0965 213.6605,337.2622 211.6147,342.0395 210.1198,347.0167 210.0374,347.1996"/>
    <line x1="210.0374" x2="211.4051" y1="347.1996" y2="342.7051"/>
    <polyline points="209.1016,345.8224 207.2815,350.6901 204.2036,354.8774 200.1727,358.1576 195.7142,360.8276 191.5614,362.8578"/>
    <polyline points="191.0398,362.3363 192.8126,361.5527 197.3507,359.0203 201.5464,355.9538 204.9983,352.069 207.1856,347.3549 208.4617,342.3171 210.048,337.3683 212.7804,332.9478 216.447,329.2649 220.6886,326.2622 225.3348,323.9341 228.5876,322.614"/>
    <polyline points="233.0103,321.1572 235.1446,320.5432 240.2989,319.8801 245.4928,320.0566 246.6697,320.2488"/>
    <polyline points="244.229,321.9507 244.5162,321.9405 244.9239,321.9946"/>
    <line x1="244.9149" x2="244.229" y1="322.0036" y2="321.9507"/>
    <polygon points="242.6051,321.8313 242.6074,321.8256"/>
    <line x1="242.6051" x2="242.6051" y1="321.8313" y2="321.8313"/>
    <line x1="243.687" x2="242.4193" y1="323.2315" y2="323.1901"/>
    <line x1="242.4193" x2="239.193" y1="323.1901" y2="323.5641"/>
    <polyline points="239.193,323.5641 237.7656,323.7295 237.2327,323.8978"/>
    <line x1="237.2327" x2="236.1066" y1="323.8978" y2="324.2534"/>
    <line x1="236.4322" x2="237.2327" y1="324.0341" y2="323.8978"/>
    <line x1="237.2327" x2="239.193" y1="323.8978" y2="323.5641"/>
    <polyline points="239.193,323.5641 241.5554,323.1619 242.4193,323.1901"/>
    <polyline points="242.4193,323.1901 242.9279,323.1312 243.7227,323.1958"/>
    <polyline points="244.0239,322.8946 238.8847,323.24 235.8965,324.0434"/>
    <line x1="234.967" x2="238.9748" y1="323.1139" y2="322.2039"/>
    <line x1="238.9748" x2="239.9456" y1="322.2039" y2="322.1028"/>
    <line x1="239.9456" x2="242.5423" y1="322.1028" y2="321.8324"/>
    <polyline points="242.5423,321.8324 239.7626,321.879 234.7618,322.9087"/>
    <polyline points="234.9446,323.0914 237.4385,322.3639 238.9748,322.2039"/>
    <polyline points="238.9748,322.2039 239.3227,322.1249 239.9456,322.1028"/>
    <line x1="239.9456" x2="244.229" y1="322.1028" y2="321.9507"/>
    <line x1="244.229" x2="242.6679" y1="321.9507" y2="321.8303"/>
    <polyline points="242.6679,321.8303 244.9587,321.7919 245.1054,321.8131"/>
    <polyline points="245.7175,321.201 245.6949,321.1973 240.499,321.0976 235.3672,321.9171"/>
    <polyline points="236.9616,315.0491 241.4955,315.3048 242.169,315.408"/>
    <line x1="240.1008" x2="238.841" y1="313.3397" y2="313.1697"/>
    <line x1="244.7487" x2="242.3515" y1="270.2013" y2="268.0843"/>
    <polyline points="242.9587,267.4771 244.0684,268.6248 245.3556,269.5944"/>
    <polyline points="244.6258,276.29 242.829,275.3282 238.3929,272.6211 238.0836,272.3523"/>
    <polyline points="187.9726,233.434 186.166,232.5516 185.6181,232.1901"/>
    <line x1="188.2154" x2="184.7604" y1="233.1913" y2="231.3324"/>
    <line x1="158.811" x2="160.0147" y1="232.6526" y2="233.2537"/>
    <polyline points="160.9202,234.1592 160.149,233.723 155.2833,231.8975 154.0532,231.6583"/>
    <polyline points="153.2627,232.4488 154.5233,232.6591 159.4066,234.4367 163.5999,236.8389"/>
    <polyline points="161.9291,238.6902 159.8318,237.2376 155.0812,235.1305 151.2988,234.4127"/>
    <polyline points="149.7031,236.0083 153.0363,236.4039 157.9049,238.2218 160.5995,240.0197"/>
    <polyline points="159.7932,240.8261 159.1209,240.282 154.4517,238.0002 149.3569,236.9756 148.8141,236.9609"/>
    <polyline points="147.9646,241.991 144.9687,241.5993 144.1723,241.5391"/>
    <polyline points="138.7059,241.126 134.6045,240.8172 131.6442,240.5784"/>
    <polyline points="136.5879,249.1235 137.8001,249.662 142.6935,251.4119 147.6548,252.9588 152.368,255.1479 156.5074,258.29 159.929,261.4777"/>
    <polyline points="159.8448,261.5619 158.8814,260.6677 155.0059,257.2053 150.6533,254.3659 145.803,252.5 140.8448,250.9432 136.5057,249.2058"/>
    <polyline points="134.8367,250.8747 137.8259,252.4026 142.6154,254.4196 147.3972,256.4546 151.85,259.1342 155.8747,262.4219 157.5362,263.8705"/>
    <polyline points="156.7794,264.6272 153.8476,262.0888 149.7222,258.9284 145.1726,256.4168"/>
    <polyline points="146.1211,258.7809 150.3833,261.7543 154.3468,265.1156 155.3932,266.0135"/>
    <polyline points="152.6939,266.0729 148.7525,262.6858 144.5511,259.6271 140.0131,257.0946 135.403,254.6958 132.5959,253.1155"/>
    <polyline points="132.1393,253.5722 134.4031,254.8445 138.9881,257.291 143.5188,259.8365 147.7171,262.8995 151.6548,266.2908 153.4915,267.9151"/>
    <polyline points="151.9892,269.4175 148.614,266.3396 144.6613,262.9657 140.3749,260.0273 135.8244,257.5173 131.2679,255.0181 130.892,254.8195"/>
    <polyline points="130.4786,255.2329 132.654,256.4045 137.2283,258.871 141.7046,261.511 145.8248,264.6782 149.7095,268.1303 151.56,269.8466"/>
    <polyline points="149.5243,271.8824 149.3737,271.7356 145.6285,268.1327 141.6548,264.7836 137.3091,261.9337 132.711,259.512 128.3801,257.3313"/>
    <line x1="128.2139" x2="128.6082" y1="267.8913" y2="268.1059"/>
    <line x1="128.9308" x2="131.8276" y1="267.1743" y2="268.7917"/>
    <line x1="130.8843" x2="133.2784" y1="275.6145" y2="277.2812"/>
    <polyline points="141.7399,279.6668 140.4358,278.412 136.4576,275.0681 133.4968,273.002"/>
    <line x1="135.4123" x2="135.6226" y1="271.0865" y2="271.2238"/>
    <polyline points="137.2755,266.9971 138.3573,267.6581 142.4063,270.9158 146.0944,274.5772 146.4528,274.9539"/>
    <polyline points="146.8287,274.578 145.8604,273.5609 142.1252,269.9477 138.0169,266.765 135.6725,265.3941"/>
    <polyline points="134.1115,263.8331 137.7659,265.8896 141.9265,269.0035 145.7085,272.5678 147.2408,274.1658"/>
    <polyline points="148.1897,273.2169 147.179,272.1839 143.4333,268.5816 139.3546,265.3612 134.8916,262.6987 131.1103,260.8319"/>
    <polyline points="130.2038,255.5076 130.4025,255.6096 134.9755,258.0785 139.5277,260.5853 143.815,263.5224 147.7613,266.9038"/>
    <polyline points="147.8407,264.3646 143.764,261.1416 139.322,258.4442 134.7438,255.9851 131.5252,254.1862"/>
    <polyline points="131.4682,254.2432 133.3107,255.2612 137.8785,257.7396 142.3943,260.3115 146.5793,263.3925 150.5057,266.7971 152.6641,268.7426"/>
    <polyline points="153.069,268.3377 149.896,265.508 145.9153,262.1672 141.6086,259.2586 137.0408,256.7801 132.4873,254.2757 131.8067,253.9047"/>
    <polyline points="128.7231,237.6574 133.1055,237.6768 138.3015,237.5837 142.2983,237.5336"/>
    <polyline points="142.8345,236.8609 138.9661,236.9379 133.7714,237.0861 128.5748,237.1382 128.1466,237.0808"/>
    <polyline points="128.6858,236.2382 129.5955,236.3152 134.7908,236.187 139.9835,235.9793"/>
    <polyline points="141.8058,235.8322 137.4855,235.9915 132.2922,236.1825 128.7461,236.178"/>
    <line x1="129.3795" x2="129.8589" y1="235.5446" y2="235.5776"/>
    <polyline points="130.3749,234.5491 134.3956,234.4032 139.5859,234.1412 140.1014,234.1278"/>
    <polyline points="137.5247,231.5511 133.8219,231.7269 133.1704,231.7537"/>
    <polyline points="136.3124,230.3388 134.6207,230.3932 134.5263,230.3977"/>
    <polyline points="127.2308,231.8137 123.4537,231.4722 122.1511,231.0854"/>
    <polyline points="128.4572,230.5873 124.2401,230.3632 120.5421,229.4763"/>
    <polyline points="119.5424,224.5942 121.5296,224.9597 126.7078,225.3994 131.3333,225.3597"/>
    <polyline points="129.9249,223.9512 124.8036,223.8493 120.7306,223.4061"/>
    <polyline points="122.2379,221.8987 124.0352,222.1061 128.2069,222.2333"/>
    <line x1="127.4008" x2="125.8101" y1="221.4272" y2="221.4178"/>
    <line x1="125.9261" x2="124.2829" y1="219.9525" y2="219.8537"/>
    <line x1="114.654" x2="114.654" y1="223.5669" y2="223.5669"/>
    <polyline points="115.7347,222.5224 114.5374,222.2877 112.8997,221.8339"/>
    <line x1="112.5798" x2="115.9295" y1="221.514" y2="222.3276"/>
    <polyline points="117.1075,221.1496 113.781,220.4696 110.5973,219.5315"/>
    <line x1="94.378" x2="91.9986" y1="223.0917" y2="220.9569"/>
    <line x1="92.5643" x2="93.2605" y1="220.3912" y2="220.9672"/>
    <line x1="93.2605" x2="92.6023" y1="220.9672" y2="220.3532"/>
    <polyline points="93.2605,220.9672 94.0008,221.6577 94.6186,222.0906"/>
    <line x1="94.6186" x2="93.2605" y1="222.0906" y2="220.9672"/>
    <line x1="94.6186" x2="95.0348" y1="222.0906" y2="222.4349"/>
    <line x1="95.0658" x2="94.6186" y1="222.4039" y2="222.0906"/>
    <line x1="95.2429" x2="92.8268" y1="222.2268" y2="220.1288"/>
    <polyline points="93.2484,219.7071 95.5388,221.6591 95.707,221.7627"/>
    <polyline points="95.697,221.7727 94.5156,220.978 93.1833,219.7722"/>
    <line x1="92.8568" x2="95.3395" y1="220.0987" y2="222.1302"/>
    <polyline points="107.3559,215.9933 107.4403,216.036 112.3423,217.7615 117.3936,218.9828 119.0304,219.2267"/>
    <polyline points="120.3359,217.9212 119.352,217.7974 114.2758,216.684"/>
    <line x1="117.0445" x2="121.1673" y1="216.3556" y2="217.0897"/>
    <polyline points="121.3538,216.9033 119.6847,216.6827 114.6158,215.5363 109.6923,213.873 109.5487,213.8005"/>
    <line x1="113.599" x2="116.6382" y1="209.7503" y2="210.8124"/>
    <line x1="106.1426" x2="102.7634" y1="169.7523" y2="170.1228"/>
    <polyline points="100.9445,168.3039 103.7565,167.3634 108.9011,166.629 109.2538,166.641"/>
    <line x1="110.0441" x2="110.8324" y1="165.158" y2="165.0624"/>
    <line x1="110.7924" x2="110.0441" y1="165.1025" y2="165.158"/>
    <polyline points="110.3069,163.8165 110.2506,163.8174 109.0685,164.0344"/>
    <line x1="109.0685" x2="110.3069" y1="164.0344" y2="163.8165"/>
    <line x1="110.3069" x2="111.3489" y1="163.8165" y2="163.8005"/>
    <polyline points="111.3284,163.78 110.467,163.7883 110.3069,163.8165"/>
    <polyline points="110.4065,165.4884 107.0735,165.7071 102.0379,166.9914 100.3689,167.7283"/>
    <polyline points="99.4099,166.7694 103.2755,164.9196 108.2881,163.5479 110.8685,163.3201"/>
    <line x1="110.2048" x2="109.722" y1="162.6564" y2="162.7504"/>
    <line x1="109.722" x2="110.233" y1="162.7504" y2="162.6846"/>
    <polyline points="110.2926,162.7441 109.817,162.7712 108.5946,163.05"/>
    <line x1="108.5946" x2="110.4147" y1="163.05" y2="162.8663"/>
    <polyline points="110.5882,163.0398 109.6824,163.0878 104.6133,164.2327 99.8438,166.2967 99.2792,166.6386"/>
    <polyline points="97.965,165.3244 101.57,162.9387 106.3355,160.8656 108.0258,160.4774"/>
    <polyline points="106.3494,158.801 102.3108,160.6214 98.0162,163.5478 97.0489,164.4083"/>
    <polyline points="99.1321,166.4915 100.8611,165.4649 105.6866,163.5359 109.722,162.7504"/>
    <line x1="109.722" x2="107.5756" y1="162.7504" y2="163.0268"/>
    <polyline points="107.6029,163.2761 108.2819,163.0815 108.5946,163.05"/>
    <line x1="108.5946" x2="107.6029" y1="163.05" y2="163.2761"/>
    <polyline points="107.6029,163.2761 104.7502,163.9267 103.6354,164.4132"/>
    <line x1="103.6354" x2="102.3975" y1="164.4132" y2="164.9534"/>
    <polyline points="102.3975,164.9534 99.9872,166.0053 99.1568,166.5162"/>
    <line x1="99.185" x2="102.3975" y1="166.5444" y2="164.9534"/>
    <polyline points="102.3975,164.9534 103.2862,164.5133 103.6354,164.4132"/>
    <line x1="103.6354" x2="107.6029" y1="164.4132" y2="163.2761"/>
    <polyline points="106.2116,165.6227 107.1604,165.3722 110.0441,165.158"/>
    <line x1="110.0441" x2="106.2116" y1="165.158" y2="165.6227"/>
    <line x1="106.2116" x2="104.5896" y1="165.6227" y2="166.0511"/>
    <polyline points="104.5896,166.0511 102.1358,166.6991 101.1935,167.1256"/>
    <polyline points="101.1935,167.1256 100.822,167.2431 100.1928,167.5523"/>
    <line x1="100.2109" x2="101.1935" y1="167.5704" y2="167.1256"/>
    <line x1="101.1935" x2="104.5896" y1="167.1256" y2="166.0511"/>
    <polyline points="104.5896,166.0511 105.7767,165.6754 106.2116,165.6227"/>
    <line x1="105.3488" x2="109.0685" y1="164.689" y2="164.0344"/>
    <polyline points="109.0685,164.0344 105.1392,164.7559 100.2898,166.6241 99.6323,166.9918"/>
    <polyline points="99.8274,167.1869 103.9659,165.4621 109.0449,164.3616 111.6317,164.2632"/>
    <polyline points="132.808,169.7538 137.6296,171.6511 142.0965,174.307 146.0196,177.7153 149.4303,181.6364 152.5423,185.7148"/>
    <polyline points="151.2067,187.0504 148.8893,183.8757 145.6387,179.8209"/>
    <polyline points="147.4122,182.4021 150.4766,186.5994 150.9982,187.2589"/>
    <polyline points="150.3318,187.9252 149.2131,186.4293 146.1202,182.253 142.5713,178.4567 138.4859,175.2447 133.9554,172.6988 131.0671,171.4947"/>
    <polyline points="130.759,171.8028 133.0738,172.7671 137.634,175.2595 141.778,178.3956 145.3971,182.125 148.5268,186.2738 149.9885,188.2686"/>
    <line x1="149.3879" x2="148.1199" y1="188.8691" y2="187.1544"/>
    <polyline points="147.0752,191.1819 146.5138,190.512 143.234,186.4809 139.5099,182.8562 135.3005,179.8085 130.8013,177.2077 130.4727,177.0447"/>
    <polyline points="128.2485,174.3134 130.2093,175.2252 134.7522,177.7488 139.0149,180.7215 142.8225,184.2584 146.1209,188.2743 147.7917,190.4654"/>
    <line x1="151.5163" x2="153.7231" y1="181.8726" y2="184.534"/>
    <polyline points="153.6458,184.6113 152.2294,182.9616 148.9329,178.9441 145.2585,175.2689 141.0451,172.2269 136.326,170.0502 133.4234,169.1385"/>
    <polyline points="133.5123,169.0495 137.6542,170.4453 142.2756,172.8223 146.3462,176.053 149.9077,179.8376 153.183,183.8724 153.7594,184.4976"/>
    <polyline points="155.3666,182.8905 154.4933,182.0342 151.0336,178.1563 147.37,174.5473"/>
    <polyline points="147.37,174.5473 143.6277,171.744 138.9257,169.5308"/>
    <polyline points="134.6455,167.9164 135.4362,168.099 140.3925,169.662 145.0231,172.0209 149.0848,175.2628 152.7183,178.9783 155.8927,182.3643"/>
    <polyline points="155.3888,182.8683 154.9145,182.4196 151.4508,178.5453 147.787,174.8596 147.37,174.5473"/>
    <line x1="147.3507" x2="147.3507" y1="174.5283" y2="174.5283"/>
    <polyline points="146.8833,171.8652 150.9243,175.1329 154.6302,178.7762 157.1248,181.1322"/>
    <polyline points="157.8819,180.3752 155.3084,178.0849 151.5171,174.5306 147.3985,171.3613"/>
    <line x1="147.9545" x2="148.1522" y1="170.2551" y2="170.3882"/>
    <line x1="148.1522" x2="144.0192" y1="170.3882" y2="168.4936"/>
    <polyline points="144.0192,168.4936 143.8229,168.4036 143.6824,168.365"/>
    <polyline points="143.6824,168.365 142.23,167.8107 137.1678,166.6355 136.1056,166.4562"/>
    <polyline points="135.9939,166.5679 137.9471,166.9183 142.9792,168.2164 147.7561,170.263 152.0671,173.1651 156.0267,176.5309 159.165,179.092"/>
    <polyline points="158.4394,179.8177 158.096,179.5692 154.2309,176.0952 150.289,172.7087 145.8916,169.9392 141.043,168.0688 135.9878,166.8637 135.7424,166.8194"/>
    <polyline points="135.7586,166.8033 136.2025,166.8834 141.2545,168.1016 146.0933,169.9971 150.4757,172.7904 154.4127,176.1827 158.2895,179.6434 158.4789,179.7782"/>
    <polyline points="159.293,178.9641 156.2375,176.5083 152.4172,173.2842"/>
    <polyline points="152.4172,173.2842 152.2659,173.1566 151.5122,172.6494"/>
    <line x1="151.5122" x2="148.1522" y1="172.6494" y2="170.3882"/>
    <polyline points="148.1522,170.3882 148.5471,170.5692 151.5122,172.6494"/>
    <line x1="151.5122" x2="152.4172" y1="172.6494" y2="173.2842"/>
    <polyline points="152.4172,173.2842 152.8014,173.5538 156.7617,176.9189 159.3296,178.9274"/>
    <polyline points="159.4192,178.8378 155.544,175.6647 151.5128,172.3849 147.0852,169.6639 144.0192,168.4936"/>
    <line x1="144.0192" x2="143.6824" y1="168.4936" y2="168.365"/>
    <line x1="143.6824" x2="138.8115" y1="168.365" y2="167.0277"/>
    <polyline points="148.4966,159.3734 144.8955,159.2357 143.3251,159.2368"/>
    <polyline points="143.0037,159.5581 147.7575,159.6522 148.8429,159.7197"/>
    <polyline points="152.0504,162.9272 151.0928,162.7825 145.9193,162.2911 140.7269,162.0757 140.491,162.0708"/>
    <polyline points="138.1815,164.3803 138.6169,164.4178 143.7801,165.0082 148.8824,165.9951 153.8457,167.5356 158.5734,169.4502"/>
    <polyline points="156.7669,170.5227 161.3601,172.9536 162.6293,173.5061"/>
    <polyline points="161.3251,176.932 159.3046,175.687 155.0815,172.6584"/>
    <polyline points="154.8446,174.5826 158.8717,177.8672 159.7811,178.476"/>
    <polyline points="160.5829,177.6742 159.9915,177.3194 155.8429,174.1894 151.6256,171.1528 147.028,168.73 142.083,167.132 136.9854,166.1211 136.5115,166.0503"/>
    <polyline points="136.7762,165.7856 139.2501,166.1525 144.3277,167.2597 149.2092,169.0423 153.5033,171.458"/>
    <polyline points="153.5033,171.458 153.7385,171.5903 153.9978,171.7717"/>
    <polyline points="153.9978,171.7717 157.9969,174.5692 161.4262,176.8309"/>
    <line x1="161.5009" x2="161.2377" y1="176.7562" y2="176.5885"/>
    <line x1="161.2377" x2="158.8382" y1="176.5885" y2="175.0605"/>
    <polyline points="158.8382,175.0605 159.8848,175.7957 161.2377,176.5885"/>
    <line x1="161.2377" x2="161.5093" y1="176.5885" y2="176.7477"/>
    <polyline points="161.8907,176.3664 160.9135,175.8498 156.5921,172.9632 152.2004,170.1846"/>
    <line x1="151.244" x2="153.5033" y1="170.0247" y2="171.458"/>
    <line x1="153.5033" x2="153.9978" y1="171.458" y2="171.7717"/>
    <polyline points="153.9978,171.7717 155.6323,172.8086 158.8382,175.0605"/>
    <line x1="158.8382" x2="158.6054" y1="175.0605" y2="174.9123"/>
    <line x1="157.8634" x2="162.032" y1="173.5832" y2="176.2251"/>
    <polyline points="162.1241,176.133 157.8767,173.4632 153.5009,170.6596 148.8517,168.3376"/>
    <polyline points="148.8987,167.3006 153.706,169.2747 158.2915,171.7203 162.8777,174.1644 163.5466,174.4234"/>
    <polyline points="163.454,174.8031 163.1237,174.6762 158.5574,172.1951 154.0149,169.6706 149.2512,167.5936 144.2459,166.1957 139.1196,165.3421 137.4193,165.1426"/>
    <polyline points="137.7584,164.8035 139.3128,164.9648 144.4546,165.7192 149.499,166.9688 154.3474,168.8397 159.0172,171.1199 161.3382,172.215"/>
    <polyline points="160.3956,171.2724 155.8286,169.1209 151.0076,167.1804 145.9934,165.8147 140.8626,164.9893 137.8854,164.6764"/>
    <polyline points="138.1094,164.4524 141.8462,164.83 146.9767,165.6579 151.9919,167.0199 156.8391,168.8939"/>
    <line x1="157.1571" x2="155.1548" y1="160.3126" y2="160.152"/>
    <polyline points="154.7765,159.7738 155.2719,159.8096 157.5229,159.9467"/>
    <polyline points="151.4849,145.1974 150.3571,145.2043 145.1631,145.032 140.1284,145.1257"/>
    <polyline points="141.3223,146.3196 145.0175,146.3856 149.9234,146.7589"/>
    <polyline points="149.5502,147.1321 144.8904,146.7419 141.6669,146.6641"/>
    <polyline points="139.9779,144.9752 141.5032,144.8489 146.7,144.8144 151.7534,144.9289"/>
    <line x1="150.9071" x2="152.1094" y1="142.3768" y2="142.1988"/>
    <line x1="152.1715" x2="150.9071" y1="142.2608" y2="142.3768"/>
    <line x1="149.9156" x2="150.9071" y1="142.4678" y2="142.3768"/>
    <polyline points="150.9071,142.3768 150.7787,142.3958 149.9156,142.4678"/>
    <polyline points="143.877,144.0915 146.2896,143.9892 151.4859,143.9133 152.8874,143.7949"/>
    <polyline points="152.81,143.8722 148.9006,144.0022 143.877,144.0915"/>
    <line x1="143.5652" x2="143.877" y1="144.1048" y2="144.0915"/>
    <polyline points="143.877,144.0915 143.7046,144.0946 143.5652,144.1048"/>
    <line x1="142.8035" x2="141.7759" y1="143.1087" y2="143.212"/>
    <polyline points="141.7759,143.212 140.4291,143.3474 138.6253,143.6225"/>
    <line x1="138.6348" x2="141.7759" y1="143.632" y2="143.212"/>
    <polyline points="141.7759,143.212 142.0391,143.1768 142.8035,143.1087"/>
    <polyline points="142.8035,143.1087 147.2154,142.7155 149.9156,142.4678"/>
    <polyline points="149.9156,142.4678 145.5998,142.8275 142.8035,143.1087"/>
    <polyline points="141.3194,140.4551 145.041,139.3773 148.142,138.2314"/>
    <polyline points="149.3719,139.4613 146.8974,140.1671 141.8317,141.3272 140.0635,141.7109"/>
    <line x1="139.4102" x2="143.5652" y1="144.4075" y2="144.1048"/>
    <polyline points="143.5652,144.1048 141.0974,144.2094 139.4001,144.3973"/>
    <polyline points="139.3094,144.3067 141.3536,144.0799 146.5451,143.844 151.7406,143.7252 153.0912,143.5911"/>
    <polyline points="215.918,137.7656 216.3418,134.9009 216.6384,129.7125 216.7067,127.4299"/>
    <polyline points="224.7548,134.2897 224.7213,133.6016 224.5517,131.4914"/>
    <polyline points="232.4894,118.6418 231.6734,122.029 231.0129,127.1837 230.958,128.0865"/>
    <polyline points="230.5377,128.5067 230.6732,126.1494 231.4079,121.0047 232.1096,118.262"/>
    <polyline points="225.1114,119.0253 224.4634,123.227 224.3954,125.4556"/>
    <polyline points="220.5093,127.4491 220.5957,131.4183 220.8748,136.6076 220.7541,138.2904"/>
    <polyline points="219.3762,139.6683 219.6417,137.8767 219.5795,132.6802 219.4626,127.4847 219.5181,126.4579"/>
    <polyline points="217.906,126.2307 217.8237,129.5678 217.7394,134.764 217.3315,139.1791"/>
    <line x1="214.8498" x2="214.194" y1="142.577" y2="144.8505"/>
    <polyline points="208.5723,157.0868 207.3423,158.9994 206.6704,159.6991"/>
    <polyline points="207.2927,160.3214 208.7575,158.7655 209.3431,157.8577"/>
    <polyline points="209.9427,158.4573 209.2359,159.4635 207.8369,160.8656"/>
    <polyline points="208.1331,161.1618 208.4533,160.8744 210.1898,158.7044"/>
    <polyline points="215.9859,169.7256 217.0925,169.0265 221.3474,166.0427 225.6161,163.0788 229.9522,160.2142 231.5369,159.264"/>
    <polyline points="231.3019,159.0291 229.3856,160.2233 225.0881,163.1454"/>
    <polyline points="223.3003,162.4111 226.0621,160.2214 229.7232,157.4504"/>
    <polyline points="229.768,157.4952 226.8154,159.7064 223.0413,162.6702"/>
    <polyline points="221.1806,164.5309 223.1312,163.0322 227.2595,159.8756 230.0942,157.8214"/>
    <polyline points="230.0766,157.8038 228.6627,158.8173 224.509,161.9404 221.204,164.5074"/>
    <polyline points="222.5379,163.1735 225.3979,160.9156 229.544,157.7823 229.8389,157.5661"/>
    <line x1="229.7938" x2="225.6739" y1="157.521" y2="160.6345"/>
    <line x1="226.4917" x2="229.2897" y1="159.2197" y2="157.0169"/>
    <polyline points="229.2562,156.9834 228.2181,157.7959 226.7129,158.9986"/>
    <polyline points="233.4157,161.1429 229.195,163.2575 224.6892,165.8469 220.2936,168.6191 215.9435,171.4623 212.1296,173.5818"/>
    <line x1="212.9463" x2="215.5591" y1="174.3716" y2="172.9943"/>
    <line x1="215.5591" x2="217.9897" y1="172.9943" y2="171.5142"/>
    <polyline points="217.9897,171.5142 218.9252,170.9446 222.031,169.0311"/>
    <polyline points="222.031,169.0311 223.3497,168.2187 223.9317,167.9058"/>
    <polyline points="223.9317,167.9058 224.9094,167.327 226.713,166.4108"/>
    <polyline points="226.713,166.4108 227.9272,165.7581 228.5301,165.4877"/>
    <polyline points="228.5301,165.4877 229.5427,164.9733 231.34,164.2275"/>
    <polyline points="231.34,164.2275 232.669,163.6315 233.2828,163.4213"/>
    <polyline points="233.2828,163.4213 234.3427,162.9815 235.0428,162.7699"/>
    <polyline points="234.6399,162.3671 230.8479,163.9037 226.1977,166.2239 221.6997,168.8268 217.3171,171.6196 212.8144,174.2145 211.3889,174.8113"/>
    <line x1="211.5879" x2="212.9463" y1="175.0104" y2="174.3716"/>
    <line x1="212.9463" x2="214.2852" y1="174.3716" y2="173.7421"/>
    <polyline points="214.2852,173.7421 212.3643,174.8078 211.6618,175.0842"/>
    <line x1="211.6386" x2="212.9463" y1="175.061" y2="174.3716"/>
    <polyline points="213.0645,174.8861 217.5878,172.3274 222.0025,169.5855 226.5576,167.0839 231.292,164.9409 235.6902,163.4174"/>
    <polyline points="235.9408,163.668 233.3345,164.4157 228.5132,166.3554 223.8731,168.6956 219.4087,171.3558 214.9616,174.0447 212.0117,175.4341"/>
    <polyline points="212.1817,175.6041 214.5456,174.5442 219.0171,171.8961 223.4784,169.2306 228.1176,166.8888 232.9452,164.9648 236.2944,164.0216"/>
    <polyline points="236.4112,164.1384 235.6618,164.2941 230.7289,165.9294 225.9783,168.0362 221.4224,170.5364 216.9938,173.2558 212.4113,175.7068 212.3186,175.7411"/>
    <polyline points="212.348,175.7704 215.1937,174.4431 219.6527,171.7739 224.1437,169.1588 226.1577,168.1886"/>
    <line x1="226.1577" x2="225.3307" y1="168.1886" y2="168.563"/>
    <polyline points="224.8075,169.4942 226.9571,168.3919 228.2636,167.8766"/>
    <line x1="228.2636" x2="224.8075" y1="167.8766" y2="169.4942"/>
    <line x1="224.8075" x2="223.5203" y1="169.4942" y2="170.1543"/>
    <polyline points="223.5203,170.1543 219.5536,172.4355 219.0857,172.7099"/>
    <polyline points="219.0857,172.7099 217.8756,173.4354 217.4789,173.6525"/>
    <line x1="217.4789" x2="214.1177" y1="173.6525" y2="175.4916"/>
    <polyline points="214.1177,175.4916 213.3166,175.93 212.7316,176.154"/>
    <line x1="212.7026" x2="214.1177" y1="176.125" y2="175.4916"/>
    <polyline points="214.1177,175.4916 215.071,175.0649 217.4789,173.6525"/>
    <line x1="217.4789" x2="219.0857" y1="173.6525" y2="172.7099"/>
    <polyline points="219.0857,172.7099 222.3328,170.7632 223.5203,170.1543"/>
    <polyline points="223.5203,170.1543 224.0586,169.8447 224.8075,169.4942"/>
    <line x1="224.5411" x2="226.5741" y1="170.234" y2="169.3385"/>
    <polyline points="226.5741,169.3385 223.7896,170.623 219.278,173.2023 214.764,175.7775 213.0695,176.4919"/>
    <polyline points="212.975,176.3974 215.3587,175.3298 219.8474,172.7109 224.376,170.1617 229.1177,168.0348 233.9106,166.494"/>
    <line x1="233.9106" x2="231.9666" y1="166.494" y2="166.9779"/>
    <polyline points="232.1125,166.8111 237.1553,165.5551 237.7575,165.4847"/>
    <line x1="237.3854" x2="234.4443" y1="165.1125" y2="165.7642"/>
    <line x1="233.1648" x2="229.5569" y1="166.1119" y2="167.3665"/>
    <polyline points="229.5569,167.3665 228.7654,167.6417 228.2636,167.8766"/>
    <line x1="228.2636" x2="229.5569" y1="167.8766" y2="167.3665"/>
    <polyline points="229.5569,167.3665 231.7915,166.4851 233.1648,166.1119"/>
    <line x1="233.1648" x2="234.4443" y1="166.1119" y2="165.7642"/>
    <polyline points="234.4443,165.7642 233.6739,165.9348 233.1648,166.1119"/>
    <line x1="233.2828" x2="231.34" y1="163.4213" y2="164.2275"/>
    <line x1="231.34" x2="228.5301" y1="164.2275" y2="165.4877"/>
    <line x1="228.5301" x2="226.713" y1="165.4877" y2="166.4108"/>
    <line x1="226.713" x2="223.9317" y1="166.4108" y2="167.9058"/>
    <line x1="223.9317" x2="222.031" y1="167.9058" y2="169.0311"/>
    <polyline points="222.031,169.0311 220.4375,169.9746 217.9897,171.5142"/>
    <polyline points="217.9897,171.5142 216.0385,172.7416 215.5591,172.9943"/>
    <line x1="215.5591" x2="214.8011" y1="172.9943" y2="173.4559"/>
    <polyline points="214.8011,173.4559 214.4865,173.6474 214.2852,173.7421"/>
    <line x1="214.2852" x2="214.8011" y1="173.7421" y2="173.4559"/>
    <polyline points="214.8011,173.4559 216.9086,172.2866 221.3043,169.5144 225.8103,166.9254 230.4817,164.6482 235.1139,162.8411"/>
    <line x1="235.0791" x2="233.2828" y1="162.8062" y2="163.4213"/>
    <polyline points="235.835,164.5666 234.9861,164.7493 234.6701,164.8566"/>
    <line x1="234.6701" x2="230.857" y1="164.8566" y2="166.151"/>
    <polyline points="230.857,166.151 230.065,166.4199 229.7673,166.5546"/>
    <line x1="229.7673" x2="230.857" y1="166.5546" y2="166.151"/>
    <polyline points="230.857,166.151 233.6989,165.0984 234.6701,164.8566"/>
    <line x1="234.6701" x2="235.835" y1="164.8566" y2="164.5666"/>
    <line x1="235.835" x2="236.6392" y1="164.5666" y2="164.3663"/>
    <line x1="236.6615" x2="235.835" y1="164.3886" y2="164.5666"/>
    <polyline points="234.4443,165.7642 236.8065,165.1222 237.3218,165.0489"/>
    <polyline points="237.1104,164.8376 236.5861,164.9193 231.5874,166.3405 226.7703,168.2905"/>
    <polyline points="226.6152,168.1847 231.4167,166.1964 236.4001,164.7226 236.9096,164.6368"/>
    <polyline points="236.7535,164.4807 234.0134,165.1289 229.1229,166.8867 224.424,169.1066 219.9204,171.6998 215.4658,174.3765 212.4061,175.8285"/>
    <polyline points="212.5315,175.954 213.8446,175.4171 218.3661,172.8552 222.8253,170.1862"/>
    <polyline points="222.8818,168.7261 227.4547,166.2572 232.1977,164.1332 235.3342,163.0614"/>
    <polyline points="235.2005,162.9277 234.898,163.0125 230.0659,164.925 225.404,167.2216"/>
    <polyline points="226.1577,168.1886 228.8256,166.9035 229.7673,166.5546"/>
    <line x1="229.7673" x2="226.1577" y1="166.5546" y2="168.1886"/>
    <line x1="226.5741" x2="228.8804" y1="169.3385" y2="168.3227"/>
    <polyline points="228.8804,168.3227 228.5086,168.4462 226.5741,169.3385"/>
    <polyline points="228.4096,169.3224 223.6699,171.4537 219.1439,174.0076 214.5971,176.5242 213.5273,176.9497"/>
    <polyline points="213.2901,176.7125 216.4716,175.1912 220.9535,172.5606 225.5434,170.1234 230.3629,168.1793 235.3805,166.8261 238.6566,166.3837"/>
    <line x1="238.1643" x2="236.4791" y1="165.8914" y2="166.1948"/>
    <line x1="236.4791" x2="238.1338" y1="166.1948" y2="165.861"/>
    <polyline points="237.8927,165.6199 237.0096,165.7225 233.9106,166.494"/>
    <line x1="233.9879" x2="233.9879" y1="166.4691" y2="166.4691"/>
    <line x1="233.8189" x2="236.4791" y1="166.7315" y2="166.1948"/>
    <polyline points="236.4791,166.1948 234.259,166.5944 233.8189,166.7315"/>
    <line x1="233.8189" x2="231.4556" y1="166.7315" y2="167.4672"/>
    <polyline points="231.4556,167.4672 229.2971,168.1392 228.8804,168.3227"/>
    <line x1="228.8804" x2="231.4556" y1="168.3227" y2="167.4672"/>
    <polyline points="231.4556,167.4672 233.4404,166.8078 233.8189,166.7315"/>
    <line x1="233.4981" x2="234.0295" y1="169.9121" y2="169.8522"/>
    <line x1="234.0295" x2="234.6524" y1="169.8522" y2="169.7818"/>
    <polyline points="234.6524,169.7818 238.6621,169.3293 239.1637,169.3535"/>
    <polyline points="239.1637,169.3535 239.2802,169.3425 240.021,169.395"/>
    <line x1="240.021" x2="241.7515" y1="169.395" y2="169.4787"/>
    <line x1="241.7934" x2="240.021" y1="169.5206" y2="169.395"/>
    <line x1="240.021" x2="239.1637" y1="169.395" y2="169.3535"/>
    <line x1="239.1637" x2="234.6524" y1="169.3535" y2="169.7818"/>
    <polyline points="234.6524,169.7818 234.1066,169.8337 234.0295,169.8522"/>
    <polyline points="234.0295,169.8522 229.053,171.0457 224.2284,172.9769 219.6401,175.4173 215.0468,177.848 214.5944,178.0169"/>
    <polyline points="213.6182,177.0406 218.0007,174.7595 222.4993,172.1577 227.1798,169.8992 232.0949,168.2114 237.185,167.1635 239.2978,167.025"/>
    <polyline points="243.1176,164.9652 247.5131,165.0409 252.6409,165.8849 254.8597,166.547"/>
    <polyline points="255.5667,165.84 254.2298,165.4623 249.6412,164.6346"/>
    <polyline points="249.6412,164.6346 252.3046,164.9677 255.6251,165.7816"/>
    <polyline points="256.0254,165.3813 252.0839,164.5118 246.9156,163.9679 242.4002,164.0987"/>
    <polyline points="242.6906,163.8082 246.7167,163.634 251.8937,164.0878 256.4171,164.9896"/>
    <polyline points="257.0126,164.394 254.2514,163.8496 250.7698,163.409"/>
    <polyline points="250.7698,163.409 250.4356,163.3577 250.3378,163.3544"/>
    <line x1="250.3378" x2="250.7698" y1="163.3544" y2="163.409"/>
    <polyline points="250.7698,163.409 255.5722,164.147 256.9686,164.4381"/>
    <polyline points="256.7883,164.6183 254.5777,164.1514 249.4318,163.4257 244.2354,163.356 243.0055,163.4933"/>
    <line x1="243.1231" x2="245.0426" y1="163.3757" y2="163.2"/>
    <line x1="245.0426" x2="245.7653" y1="163.2" y2="163.1995"/>
    <polyline points="245.7653,163.1995 245.2417,163.1817 245.0426,163.2"/>
    <polyline points="245.0426,163.2 243.8988,163.2008 243.2126,163.2862"/>
    <polyline points="243.4975,163.0014 245.9279,162.7929 251.1208,162.9935 256.2618,163.7538 256.9402,163.88"/>
    <polyline points="256.6078,163.5476 255.1665,163.3009 250.9633,162.7845"/>
    <line x1="250.9633" x2="249.6045" y1="162.7845" y2="162.6651"/>
    <polyline points="249.6045,162.6651 250.0084,162.6672 250.9633,162.7845"/>
    <polyline points="250.9633,162.7845 253.4503,163.003 256.5653,163.5051"/>
    <line x1="256.4468" x2="254.3172" y1="163.3866" y2="163.0402"/>
    <line x1="255.265" x2="256.2032" y1="162.9944" y2="163.143"/>
    <line x1="256.1116" x2="256.432" y1="163.3181" y2="163.3718"/>
    <line x1="256.3461" x2="255.7653" y1="163.2859" y2="163.1906"/>
    <polyline points="259.8988,160.959 259.9821,160.9665 260.4123,160.9944"/>
    <line x1="260.1689" x2="260.1689" y1="161.1859" y2="161.1859"/>
    <polyline points="263.9648,157.4419 259.1988,157.1804 255.9185,156.9787"/>
    <polyline points="255.2645,151.2344 258.4749,151.415 263.643,151.9603 265.9959,152.1482"/>
    <line x1="261.7097" x2="258.8643" y1="147.8621" y2="147.6346"/>
    <line x1="260.3802" x2="259.9902" y1="146.5326" y2="146.5087"/>
    <polyline points="255.5076,145.1117 255.2352,145.1166 250.1007,145.919"/>
    <polygon points="252.0445,144.4411 252.0847,144.4395"/>
    <line x1="252.0847" x2="252.0847" y1="144.4395" y2="144.4395"/>
    <line x1="255.1296" x2="255.1296" y1="145.4129" y2="145.4129"/>
    <line x1="254.695" x2="254.695" y1="145.8321" y2="145.8321"/>
    <line x1="254.8077" x2="254.6021" y1="145.8115" y2="145.8328"/>
    <line x1="254.5826" x2="254.5826" y1="145.8348" y2="145.8348"/>
    <polygon points="254.5826,145.8348 254.588,145.8329"/>
    <polyline points="254.1002,146.5191 252.4509,146.5909 247.3732,147.6975 246.8576,147.9178"/>
    <line x1="246.6032" x2="248.874" y1="147.6634" y2="146.8495"/>
    <polyline points="248.874,146.8495 249.4544,146.6414 249.7447,146.5957"/>
    <line x1="249.7447" x2="254.5631" y1="146.5957" y2="145.8368"/>
    <polyline points="254.5631,145.8368 251.1335,146.1909 249.7447,146.5957"/>
    <line x1="249.7447" x2="248.874" y1="146.5957" y2="146.8495"/>
    <line x1="248.874" x2="246.4854" y1="146.8495" y2="147.5457"/>
    <line x1="245.702" x2="247.1919" y1="146.7623" y2="145.9986"/>
    <line x1="247.1919" x2="246.8304" y1="145.9986" y2="146.1349"/>
    <polyline points="246.8304,146.1349 247.0872,146.0005 247.689,145.8112"/>
    <line x1="247.689" x2="249.9466" y1="145.8112" y2="144.9601"/>
    <line x1="249.9466" x2="251.2277" y1="144.9601" y2="144.5969"/>
    <line x1="251.2277" x2="250.756" y1="144.5969" y2="144.6835"/>
    <line x1="250.756" x2="250.4892" y1="144.6835" y2="144.7555"/>
    <polyline points="250.4892,144.7555 248.3707,145.3269 246.0953,146.412"/>
    <line x1="246.0953" x2="246.3736" y1="146.412" y2="146.3071"/>
    <line x1="246.3736" x2="246.8304" y1="146.3071" y2="146.1349"/>
    <line x1="246.8304" x2="245.6779" y1="146.1349" y2="146.7381"/>
    <line x1="245.6182" x2="246.3736" y1="146.6784" y2="146.3071"/>
    <polyline points="246.3736,146.3071 247.9791,145.5178 249.9466,144.9601"/>
    <line x1="249.9466" x2="250.4892" y1="144.9601" y2="144.7555"/>
    <polyline points="250.4892,144.7555 250.6079,144.7107 250.756,144.6835"/>
    <polyline points="250.756,144.6835 253.3882,143.9736 257.0622,143.5571"/>
    <polyline points="257.0521,143.2045 252.3591,143.9071 247.41,145.4924 245.4612,146.5214"/>
    <line x1="245.5919" x2="246.0953" y1="146.6521" y2="146.412"/>
    <polyline points="246.0953,146.412 245.7452,146.544 245.5798,146.6401"/>
    <polyline points="242.3937,143.4539 242.9304,142.9095 246.7099,139.3427 250.2281,136.3805"/>
    <polyline points="251.4482,137.6005 249.161,138.9916 245.039,142.1564 242.9537,144.014"/>
    <polyline points="244.0444,145.1046 244.4391,144.8008 248.8846,142.1091 253.6866,140.1222 253.9007,140.0531"/>
    <polyline points="254.1326,140.285 250.43,141.5878 245.8424,144.0295 244.1646,145.2248"/>
    <polyline points="245.326,146.3862 248.1938,144.9342 253.1718,143.4421 256.7683,142.9207"/>
    <line x1="256.8359" x2="252.1692" y1="143.7834" y2="144.4239"/>
    <polyline points="252.1692,144.4239 255.7193,143.7718 256.928,143.6913"/>
    <polyline points="257.0026,143.6167 252.9789,144.1004 251.2277,144.5969"/>
    <line x1="251.2277" x2="252.0003" y1="144.5969" y2="144.455"/>
    <line x1="252.0003" x2="247.689" y1="144.455" y2="145.8112"/>
    <line x1="247.6079" x2="247.6079" y1="145.8418" y2="145.8418"/>
    <line x1="247.5269" x2="247.1919" y1="145.8723" y2="145.9986"/>
    <polyline points="247.1919,145.9986 247.3096,145.9383 247.5269,145.8723"/>
    <polyline points="247.5269,145.8723 252.2823,144.4286 256.7708,143.8485"/>
    <polyline points="256.477,144.1423 251.7971,144.7637 246.839,146.3205 245.8025,146.8627"/>
    <polyline points="247.495,148.5552 251.9601,147.6462 253.0029,147.6164"/>
    <polyline points="254.5669,151.9319 259.2895,152.2667 264.4606,152.7835 266.7806,152.933"/>
    <polyline points="266.7253,154.6814 262.5061,154.4228 257.3275,153.9874 252.7258,153.786"/>
    <line x1="249.9343" x2="249.6238" y1="156.8741" y2="156.8751"/>
    <line x1="250.9696" x2="246.9185" y1="159.4055" y2="159.5803"/>
    <line x1="248.5218" x2="252.2392" y1="160.2939" y2="160.3662"/>
    <polyline points="252.2392,160.3662 249.6165,160.2277 248.5218,160.2939"/>
    <line x1="248.5218" x2="246.5084" y1="160.2939" y2="160.4156"/>
    <line x1="246.5084" x2="246.0558" y1="160.4156" y2="160.443"/>
    <line x1="246.0345" x2="246.5084" y1="160.4643" y2="160.4156"/>
    <polyline points="246.5084,160.4156 247.8262,160.2803 248.5218,160.2939"/>
    <polyline points="248.7758,164.5263 249.1156,164.5397 249.6412,164.6346"/>
    <line x1="249.6412" x2="248.7758" y1="164.6346" y2="164.5263"/>
    <polyline points="252.2392,160.3662 253.0221,160.3815 253.4815,160.4213"/>
    <line x1="253.4927" x2="252.2392" y1="160.4324" y2="160.3662"/>
    <polyline points="253.6978,160.6376 250.6649,160.423 245.9232,160.5757"/>
    <polyline points="245.7451,160.7537 250.2252,160.5778 253.889,160.8288"/>
    <polyline points="254.0979,161.0377 252.5534,160.8906 247.3575,160.7916 245.5184,160.9805"/>
    <polyline points="244.7808,161.718 246.4388,161.5409 251.6351,161.6171 255.045,161.9848"/>
    <polyline points="255.5843,162.5241 253.8301,162.2857 248.648,161.8945 244.4106,162.0882"/>
    <line x1="245.6794" x2="249.6045" y1="162.645" y2="162.6651"/>
    <polyline points="249.6045,162.6651 248.2734,162.5481 245.6794,162.645"/>
    <polyline points="245.6794,162.645 244.8116,162.6406 244.3508,162.6946"/>
    <line x1="244.3508" x2="243.7316" y1="162.6946" y2="162.7673"/>
    <line x1="243.783" x2="244.3508" y1="162.7158" y2="162.6946"/>
    <line x1="244.3508" x2="245.6794" y1="162.6946" y2="162.645"/>
    <polyline points="245.7653,163.1995 249.0957,163.1972 250.3378,163.3544"/>
    <line x1="250.3378" x2="245.7653" y1="163.3544" y2="163.1995"/>
    <polyline points="247.1362,163.707 252.3067,164.2294 256.3356,165.0711"/>
    <polyline points="254.6525,166.7542 252.4921,166.0871 247.3676,165.2229 243.2968,165.1444"/>
    <line x1="243.6582" x2="243.6582" y1="165.4398" y2="165.4398"/>
    <line x1="244.4968" x2="248.7758" y1="164.3573" y2="164.5263"/>
    <polyline points="248.7758,164.5263 247.148,164.3227 244.4968,164.3573"/>
    <line x1="244.4968" x2="243.5405" y1="164.3573" y2="164.3698"/>
    <line x1="243.5405" x2="242.5353" y1="164.3698" y2="164.383"/>
    <line x1="242.608" x2="243.5405" y1="164.4556" y2="164.3698"/>
    <polyline points="243.5405,164.3698 243.9228,164.3347 244.4968,164.3573"/>
    <polyline points="245.6485,165.2202 250.8074,165.8469 254.5396,166.867"/>
    <line x1="253.6957" x2="254.2666" y1="166.9916" y2="167.1401"/>
    <line x1="254.237" x2="253.6957" y1="167.1696" y2="166.9916"/>
    <line x1="253.6957" x2="250.909" y1="166.9916" y2="166.2671"/>
    <polyline points="250.909,166.2671 249.7364,165.9622 248.4402,165.8324"/>
    <polyline points="248.4402,165.8324 247.0468,165.587 245.6832,165.5562"/>
    <line x1="245.6832" x2="243.6629" y1="165.5562" y2="165.5105"/>
    <polyline points="243.6376,165.4853 244.5655,165.4442 245.6832,165.5562"/>
    <line x1="245.6832" x2="248.4402" y1="165.5562" y2="165.8324"/>
    <line x1="248.4402" x2="250.909" y1="165.8324" y2="166.2671"/>
    <polyline points="250.909,166.2671 252.1649,166.4882 253.6957,166.9916"/>
    <polyline points="253.5021,167.9046 250.8554,167.0084 245.7273,166.1655 244.3084,166.156"/>
    <polyline points="245.2312,167.0788 247.547,167.2853 252.5627,168.6458 252.6973,168.7094"/>
    <polyline points="252.307,169.0997 248.716,167.8915 245.6052,167.4528"/>
    <polyline points="246.9074,168.755 250.2384,169.5722 251.3232,170.0835"/>
    <polyline points="250.0181,171.3886 249.4711,171.1016 249.3759,171.0752"/>
    <line x1="249.3759" x2="249.1704" y1="171.0752" y2="171.0181"/>
    <line x1="249.0838" x2="249.3759" y1="170.9315" y2="171.0752"/>
    <line x1="249.3759" x2="250.0163" y1="171.0752" y2="171.3903"/>
    <polyline points="244.8993,176.5074 242.8279,175.7555 237.6735,175.0924 232.4807,175.2974 227.3889,176.3371 222.5384,178.2025 217.8222,180.3854 217.1963,180.6188"/>
    <polyline points="218.2376,181.66 219.1845,181.306 223.9832,179.311 228.9587,177.8105 234.1193,177.1978 239.3145,177.3309 243.2271,178.1796"/>
    <polyline points="241.5769,179.8298 240.6049,179.5486 235.4265,179.1113 230.2368,179.3843 225.1684,180.5325 220.2859,182.3126 219.261,182.6834"/>
    <polyline points="219.4627,182.8851 219.7376,182.7905 224.6175,181.0034 229.6712,179.7921 234.8574,179.4586 240.0412,179.8265 241.2557,180.1509"/>
    <polyline points="238.3417,183.065 233.847,182.6238 228.6536,182.8117 223.5734,183.9071 221.2321,184.6545"/>
    <polyline points="222.928,186.3504 226.8772,185.4931 232.0702,185.2925 235.6656,185.7411"/>
    <line x1="234.855" x2="232.8494" y1="194.8218" y2="194.4369"/>
    <polyline points="232.6593,194.627 234.2525,194.9114 239.3256,196.0388 244.3857,197.2234"/>
    <polyline points="249.7244,207.4603 244.5597,206.8826 239.3738,206.5459 234.1856,206.2463 229.0339,205.5629 224.0615,204.052 223.4608,203.8255"/>
    <polyline points="223.0398,204.2464 223.9805,204.6247 228.9264,206.22 234.0692,206.9675 239.2549,207.3085 244.4397,207.6616"/>
    <polyline points="239.5588,214.0125 244.6319,215.1399 249.74,216.096 254.8519,217.0317 259.9089,218.2295 264.9086,219.6471 269.9769,220.7959 275.1602,221.1711 280.3544,221.0034 283.5243,221.032"/>
    <polyline points="286.1995,213.9267 283.799,213.5991 278.6254,213.1082 273.4518,212.6177 268.2996,211.9377 263.1893,210.9932 258.1132,209.8795 253.0086,208.9046 247.8625,208.1803 242.6877,207.7014 237.5014,207.3713 232.3208,206.9606 227.2292,205.9199 222.9663,204.3199"/>
    <polyline points="221.2483,206.0379 221.3512,206.085 226.0627,208.2779 231.0158,209.8508 236.1286,210.7817 241.2698,211.5404 246.4185,212.2463 251.5638,212.9762"/>
    <polyline points="253.89,217.8524 248.7824,216.8936 243.6949,215.833 238.659,214.5498 233.6582,213.1358 228.7208,211.5143 223.9838,209.377 220.4516,207.4974"/>
    <line x1="220.4516" x2="220.019" y1="207.4974" y2="207.2672"/>
    <line x1="220.0045" x2="220.4516" y1="207.2817" y2="207.4974"/>
    <line x1="220.4706" x2="220.4706" y1="207.5066" y2="207.5066"/>
    <line x1="218.891" x2="214.9611" y1="214.7112" y2="212.3252"/>
    <polyline points="214.6166,212.6697 216.3027,213.5434 220.6396,216.4068 224.9295,219.3399 229.3041,222.1453 233.8066,224.7405 238.3367,227.2873 242.9068,229.7613 247.5373,232.1206 252.1973,234.4209 257.0151,236.3692 262.1282,237.2987 267.1058,237.4504"/>
    <polyline points="266.3876,238.1687 262.9213,238.0526 257.7906,237.2259 252.9438,235.351 248.3172,232.9841 243.7144,230.5714 239.1643,228.0606 234.6509,225.4844 230.1452,222.8948 225.7428,220.1334 221.4481,217.207 217.1417,214.298 214.4794,212.8068"/>
    <polyline points="214.02,213.2663 218.3673,215.9805 222.6382,218.9414 226.9469,221.847 231.3845,224.5517 235.8409,227.2251 240.2571,229.9646"/>
    <polyline points="242.615,226.7683 247.4637,228.6383 252.3572,230.388 257.3253,231.9128 262.4658,232.6758 267.6604,232.8306 271.8235,232.7328"/>
    <polyline points="272.7053,231.851 268.8856,231.9422 263.6916,231.7684 258.5354,231.1199 253.5122,229.7876 248.574,228.1687 243.6673,226.4565 238.8689,224.4607 234.1965,222.1856 229.6511,219.6665 225.2331,216.93 220.8848,214.084 216.4759,211.3328 216.1185,211.1678"/>
    <polyline points="215.5371,211.7491 216.1316,212.0285 220.5223,214.8086 224.8422,217.6975 229.2279,220.4854 233.7538,223.0395 238.3779,225.4112 243.0984,227.5848 247.916,229.5336 252.7662,231.3998 257.729,232.9417 262.8834,233.6052 268.0798,233.6677 270.9885,233.5678"/>
    <polyline points="271.2793,233.277 269.477,233.351 264.2802,233.3464 259.1035,232.8896 254.0769,231.5703"/>
    <polyline points="249.2709,234.1021 253.8709,236.5201 258.7574,238.2893 263.9041,239.0093 265.4826,239.0737"/>
    <polyline points="262.2081,242.3482 259.3549,241.8033 254.5546,239.8124 250.1075,237.1233 245.7234,234.3329 241.3869,231.4689 237.0482,228.6083 232.6543,225.8333 228.2047,223.1484 223.8589,220.2987 219.5954,217.3271 215.2665,214.4517 213.6653,213.6209"/>
    <polyline points="213.0202,214.2661 217.2546,216.9144 221.5123,219.8942 225.8001,222.8306"/>
    <polyline points="221.2655,219.8782 225.5486,222.8214 229.9553,225.5761 234.3214,228.3948 238.5074,231.4744 242.584,234.6976 246.6562,237.9263 250.7497,241.1279 254.8852,244.2751 258.3832,246.1731"/>
    <polyline points="259.1858,245.3705 255.4477,243.6037 251.195,240.6167 247.0259,237.5142 242.8867,234.3717 238.753,231.2222 234.5292,228.1946 230.1503,225.3959 225.7413,222.6449 221.4564,219.7043 217.1963,216.728 213.0998,214.1865"/>
    <polyline points="213.5275,213.7588 217.8981,216.5002 222.1603,219.4735 226.4582,222.395 229.8651,224.4968"/>
    <polyline points="229.8651,224.4968 232.4613,226.0748 234.2235,227.2131"/>
    <polyline points="234.2235,227.2131 235.2877,227.8784 236.0625,228.401"/>
    <line x1="236.0625" x2="238.8781" y1="228.401" y2="230.3002"/>
    <polyline points="238.8781,230.3002 239.5961,230.7845 240.3426,231.3036"/>
    <polyline points="240.3426,231.3036 243.8628,233.7514 244.7163,234.3332"/>
    <polyline points="244.7163,234.3332 245.3826,234.7958 246.1315,235.2979"/>
    <polyline points="246.1315,235.2979 249.6993,237.6895 252.9385,239.7947"/>
    <line x1="252.9385" x2="255.3288" y1="239.7947" y2="241.1268"/>
    <line x1="255.3288" x2="257.8916" y1="241.1268" y2="242.3463"/>
    <line x1="257.8916" x2="260.5792" y1="242.3463" y2="243.1925"/>
    <line x1="260.5792" x2="261.2123" y1="243.1925" y2="243.344"/>
    <line x1="261.176" x2="260.5792" y1="243.3803" y2="243.1925"/>
    <polyline points="260.5792,243.1925 258.7493,242.7544 257.8916,242.3463"/>
    <polyline points="257.8916,242.3463 257.0309,242.0753 255.3288,241.1268"/>
    <polyline points="255.3288,241.1268 254.0567,240.5214 252.9385,239.7947"/>
    <polyline points="252.9385,239.7947 252.4914,239.5455 248.1569,236.6784 246.1315,235.2979"/>
    <line x1="246.1315" x2="244.7163" y1="235.2979" y2="234.3332"/>
    <polyline points="244.7163,234.3332 241.1137,231.8319 240.3426,231.3036"/>
    <line x1="240.3426" x2="238.8781" y1="231.3036" y2="230.3002"/>
    <polyline points="238.8781,230.3002 236.8266,228.8946 236.0625,228.401"/>
    <line x1="236.0625" x2="234.2235" y1="228.401" y2="227.2131"/>
    <polyline points="234.2235,227.2131 230.8811,225.1236 229.8651,224.4968"/>
    <line x1="229.8651" x2="228.0204" y1="224.4968" y2="223.3756"/>
    <polyline points="226.7175,222.9736 231.1424,225.699 235.5104,228.5146 239.7546,231.5136 243.9404,234.5935 248.1555,237.6333 252.3962,240.6373 256.8306,243.3472 260.0427,244.5136"/>
    <line x1="260.1404" x2="256.9261" y1="244.4159" y2="243.2756"/>
    <polyline points="250.5526,243.2705 254.4321,246.7283 256.4676,248.0887"/>
    <polyline points="255.4515,249.1048 252.6043,246.6678 248.9041,243.0187 245.1193,239.4575 241.3186,235.9132 237.4735,232.4171 233.4362,229.1449 229.1088,226.2673 224.7039,223.5096 220.4219,220.5648 216.1658,217.5829 212.1834,215.1028"/>
    <polyline points="212.5252,214.761 216.6261,217.3205 220.8819,220.303 225.1649,223.2463 229.57,226.0036 233.9089,228.8638 238.0089,232.0571 241.9564,235.4372 245.8786,238.8465 249.7992,242.2577 253.6833,245.7103 256.7055,247.8508"/>
    <polyline points="256.9417,247.6146 254.1721,245.7808 250.2427,242.3797 246.3026,238.9911 242.3569,235.609 238.399,232.2411 234.3012,229.045"/>
    <polyline points="228.7785,228.3617 232.9799,231.4204 236.6772,235.0725 240.0937,238.9884 243.516,242.8993 246.8685,246.8701 250.061,250.9708 251.6732,252.8831"/>
    <polyline points="251.8188,252.7375 250.2022,250.8357 246.9947,246.7468"/>
    <polyline points="247.1399,242.6003 250.728,246.3596 254.3498,250.0865 254.4177,250.1386"/>
    <polyline points="251.9549,252.6014 250.7598,251.2483 247.5438,247.166 244.1886,243.1974 240.738,239.3115 237.3001,235.4143 233.6354,231.7295 229.4889,228.5969 225.0614,225.8758 220.6876,223.0691 216.4309,220.0879 212.391,217.3883"/>
    <polyline points="212.0988,217.096 213.9162,218.1961 218.192,221.1499 222.4743,224.0943 226.8928,226.83 231.255,229.6547 235.2169,233.0178 238.7799,236.8009 242.2359,240.6821 245.6924,244.5628 248.9975,248.5732 252.12,252.4363"/>
    <polyline points="253.324,251.2323 252.0456,249.9446 248.6565,246.0049 245.1591,242.1611 241.5727,238.4001 237.9848,234.6406"/>
    <polyline points="239.824,235.1278 243.5489,238.7517 247.2759,242.3733 250.9003,246.0977 254.571,249.7765 254.6911,249.8652"/>
    <polyline points="255.2612,249.295 253.2331,247.6276 249.5595,243.9518 245.8187,240.3443 242.0342,236.7827 238.2351,233.2367 234.26,229.8893 229.9914,226.9251 225.5784,224.1805 221.2672,221.2786 217.0199,218.2839 212.6603,215.4554 212.1069,215.1793"/>
    <polyline points="203.8483,217.5583 200.6414,215.6979 196.1215,213.1332 191.6622,210.4645 187.0963,207.9825 182.181,206.2954 179.7384,205.973"/>
    <polyline points="178.0985,207.6129 179.6228,207.7572 184.641,209.108 189.2809,211.4487 193.6689,214.2329 198.0361,217.0499 201.8884,219.5182"/>
    <polyline points="200.6991,220.7076 197.3388,218.4794 193.031,215.5724 188.6797,212.731 184.0618,210.3473 179.0574,208.9464 176.9933,208.7182"/>
    <polyline points="175.671,210.0405 175.744,210.0485 180.8357,211.0883 185.624,213.1083 190.0428,215.8434 194.3149,218.8025"/>
    <polyline points="198.7312,222.6755 196.108,220.9317 191.8539,217.9468 187.545,215.0415 182.9727,212.5715 178.0155,211.0115 175.1488,210.5627"/>
    <polyline points="173.867,211.8444 176.1627,212.2561 181.1254,213.7984 185.7344,216.1993 190.0601,219.0796 194.3051,222.0773 197.3357,224.0709"/>
    <polyline points="194.3933,227.0134 190.9257,224.971 186.5889,222.1076"/>
    <line x1="188.2313" x2="192.6216" y1="226.3719" y2="228.7851"/>
    <polyline points="191.9265,229.4802 190.3228,228.7111 185.8118,226.1307 181.3963,223.3903 176.8304,220.9083 172.2975,218.8695"/>
    <polyline points="171.2684,215.5388 176.1621,217.2878 180.8063,219.62 185.2432,222.3259 189.6006,225.1578 193.797,227.6097"/>
    <polyline points="194.0749,227.3318 193.0188,226.7686 188.5977,224.0372 184.2505,221.1895 179.7726,218.5522 175.0461,216.3918 170.6727,215.0388"/>
    <polyline points="171.5733,214.1382 171.9073,214.2043 176.8617,215.7731"/>
    <polyline points="181.8728,203.8386 183.8397,204.1573 188.7287,205.9192 193.3457,208.3049 197.9883,210.6401 201.0363,211.9131"/>
    <polyline points="200.8971,211.7739 199.9311,211.388 195.2154,209.2041"/>
    <line x1="191.6119" x2="193.7518" y1="203.7112" y2="204.6286"/>
    <polyline points="194.7069,205.5837 189.9781,203.4826 185.0225,201.9177 183.9724,201.739"/>
    <polyline points="183.7985,201.9129 187.178,202.6815 192.0099,204.5948 195.1046,205.9814"/>
    <polyline points="195.2884,206.1652 192.943,205.1439 188.1639,203.1025 183.7622,201.9492"/>
    <line x1="184.2363" x2="185.9548" y1="201.4752" y2="201.7918"/>
    <line x1="186.238" x2="185.0839" y1="200.9131" y2="200.6276"/>
    <polyline points="185.6677,200.0437 186.5333,200.182 190.2028,201.0796"/>
    <line x1="188.591" x2="186.5654" y1="199.4678" y2="199.146"/>
    <line x1="186.5677" x2="188.5602" y1="199.1438" y2="199.437"/>
    <line x1="188.0674" x2="186.9212" y1="198.9442" y2="198.7903"/>
    <line x1="187.2358" x2="187.6491" y1="198.4757" y2="198.5259"/>
    <polyline points="184.6471,201.0643 187.7609,201.7246 192.5315,203.4083"/>
    <polyline points="192.059,202.9358 187.6715,201.4594 184.8288,200.8826"/>
    <line x1="185.0108" x2="186.238" y1="200.7006" y2="200.9131"/>
    <line x1="186.238" x2="186.4365" y1="200.9131" y2="200.9622"/>
    <polyline points="186.4365,200.9622 186.3082,200.9252 186.238,200.9131"/>
    <polyline points="186.4365,200.9622 191.3021,202.3633 191.5978,202.4746"/>
    <polyline points="191.5284,202.4051 189.9465,201.8304 186.4365,200.9622"/>
    <polyline points="189.3557,204.2682 194.0487,206.5006 196.8127,207.6895"/>
    <polyline points="196.0722,206.949 194.4154,206.2692 189.7082,204.067 184.7758,202.4304 183.499,202.2124"/>
    <polyline points="182.4367,203.2747 182.7855,203.3208 187.7645,204.8098 192.4462,207.0657 197.098,209.3826 199.4393,210.3161"/>
    <polyline points="198.971,209.8478 198.243,209.581 193.5418,207.3661 188.8877,205.0539 183.9699,203.3737 182.5627,203.1487"/>
    <polyline points="183.0791,202.6323 183.7621,202.736 188.7208,204.291 193.4139,206.5231 197.4997,208.3765"/>
    <line x1="197.6779" x2="198.3567" y1="208.9868" y2="209.2335"/>
    <polyline points="216.9466,210.3396 217.7167,210.7125 222.1318,213.4537 226.5448,216.1982 231.0456,218.7964 235.6487,221.2085 240.4006,223.3124 245.3088,225.0203 250.3161,226.411 255.3413,227.7356 260.4081,228.8912 265.5541,229.6162 270.7419,229.9236 274.7122,229.8441"/>
    <polyline points="274.6176,229.9387 269.4882,229.9593 264.3068,229.5584"/>
    <polyline points="263.8234,229.156 258.707,228.2453 253.6613,227.001 248.6302,225.6991 243.6397,224.2492 238.7763,222.4174 234.0761,220.2004 229.5068,217.7249 225.0277,215.0895 220.6286,212.3227 217.059,210.2273"/>
    <polyline points="217.1266,210.1597 219.4383,211.4228 223.8395,214.1863 228.3013,216.8508 232.8529,219.3589 237.5137,221.6575"/>
    <polyline points="239.8975,223.5765 235.1685,221.4216 230.5848,218.9727 226.1095,216.3309 221.7168,213.554 217.302,210.8124 216.7401,210.5461"/>
    <polyline points="216.3626,210.9237 217.2914,211.3768 221.6858,214.1511 226.0569,216.962 230.5073,219.6455 235.0843,222.1068 239.7949,224.3017 244.644,226.1707 249.5943,227.7525"/>
    <polyline points="254.8209,223.7955 249.7385,222.7111 244.6866,221.4922 239.763,219.8293 234.9907,217.7718 230.279,215.5794 225.6571,213.2035 221.1662,210.5882 218.2986,208.9876"/>
    <polyline points="220.6694,206.6169 224.9738,208.782 229.8214,210.6549 234.8627,211.9169 239.9513,212.972 245.0618,213.9155 250.1893,214.7616 255.3093,215.652"/>
    <polyline points="277.3852,205.1123 274.0811,204.2277 269.1481,202.593 264.4558,200.3593 260.1561,197.4403 256.051,194.2535 251.7897,191.279 247.1716,188.8955 242.2868,187.1219 240.5673,186.7189"/>
    <line x1="243.1143" x2="244.0558" y1="184.172" y2="184.4112"/>
    <polyline points="245.7716,181.5146 249.7308,183.45 253.9979,186.4164 257.8335,189.9229 261.3746,193.7265"/>
    <line x1="259.648" x2="259.2874" y1="187.4046" y2="187.0146"/>
    <polyline points="254.4698,182.1969 252.1472,180.2387 248.982,178.3043"/>
    <polyline points="246.057,181.2292 250.2197,183.3673 254.4332,186.4093 258.2146,189.9742 261.7245,193.8067 265.5018,197.3759 269.8945,200.1529 274.1526,201.8798"/>
    <polyline points="278.9791,189.8819 282.3136,190.9961 282.3668,191.0084"/>
    <polyline points="282.7156,190.6596 282.715,190.6595 279.32,189.541"/>
    <line x1="280.5823" x2="281.6626" y1="188.2787" y2="188.6024"/>
    <line x1="325.6371" x2="326.3192" y1="164.3351" y2="163.3292"/>
    <polyline points="327.1595,162.489 327.1124,162.5587 325.7586,164.4566"/>
    <polyline points="326.4171,165.1152 328.5587,162.1052 331.2789,158.3696"/>
    <polyline points="337.3728,161.163 337.3712,161.164 335.7831,162.4971"/>
    <line x1="335.7831" x2="333.4225" y1="162.4971" y2="164.4788"/>
    <polyline points="333.4225,164.4788 333.6441,164.2617 335.7831,162.4971"/>
    <line x1="335.7831" x2="337.3852" y1="162.4971" y2="161.1754"/>
    <polyline points="339.0254,164.2506 334.6427,167.0435 330.9941,169.6921"/>
    <polyline points="329.9202,167.9066 333.3909,164.5053 333.4225,164.4788"/>
    <polyline points="333.4225,164.4788 329.931,167.8977 329.9202,167.9066"/>
    <polyline points="329.5499,168.2479 329.6793,168.1427 329.9202,167.9066"/>
    <line x1="329.9202" x2="329.5319" y1="167.9066" y2="168.2299"/>
    <polyline points="328.8238,167.5218 330.4765,165.8214 334.0354,162.0344 336.3247,160.1149"/>
    <line x1="335.3827" x2="333.4706" y1="159.1729" y2="160.9566"/>
    <polyline points="333.4706,160.9566 333.0524,161.3467 332.7443,161.7066"/>
    <polyline points="332.7443,161.7066 329.6732,165.2949 329.0743,165.9608"/>
    <polyline points="329.0743,165.9608 328.498,166.6534 328.2263,166.9243"/>
    <line x1="328.2165" x2="329.0743" y1="166.9145" y2="165.9608"/>
    <polyline points="329.0743,165.9608 331.8223,162.6588 332.7443,161.7066"/>
    <line x1="332.7443" x2="333.4706" y1="161.7066" y2="160.9566"/>
    <line x1="333.4706" x2="335.2887" y1="160.9566" y2="159.0789"/>
    <polyline points="335.2371,159.0273 332.5519,161.6488 329.2178,165.6351 328.1274,166.8254"/>
    <polyline points="327.9855,166.6835 328.7486,165.8595 332.0319,161.8312 334.9997,158.7899"/>
    <polyline points="334.8398,158.63 331.7851,161.8357 328.5302,165.887 327.8858,166.5838"/>
    <polyline points="327.4127,166.1107 330.2018,162.4425 333.5228,158.4452 334.1142,157.9043"/>
    <polyline points="334.0785,157.8687 333.22,158.6753 329.9356,162.7027 327.3727,166.0708"/>
    <polyline points="327.0319,165.7299 328.6613,163.6105 331.7855,159.4575 333.6596,157.4498"/>
    <polyline points="331.8756,149.7862 332.1897,149.3111 333.5856,146.9821"/>
    <line x1="327.5261" x2="328.409" y1="124.6494" y2="121.018"/>
    <line x1="327.9867" x2="327.1266" y1="120.5958" y2="124.2498"/>
  </g>
</svg>
