<?xml version="1.0" encoding="utf-8" ?>
<svg xmlns="http://www.w3.org/2000/svg" xmlns:cc="http://creativecommons.org/ns" xmlns:dc="http://purl.org/dc/elements/1.1/" xmlns:ev="http://www.w3.org/2001/xml-events" xmlns:inkscape="http://www.inkscape.org/namespaces/inkscape" xmlns:rdf="http://www.w3.org/1999/02/22-rdf-syntax-ns" xmlns:sodipodi="http://sodipodi.sourceforge.net/DTD/sodipodi-0.dtd" xmlns:xlink="http://www.w3.org/1999/xlink" baseProfile="tiny" height="22.86cm" version="1.2" viewBox="0 0 576.0 864.0" width="15.24cm">
  <metadata>
    <rdf:RDF>
      <cc:Work>
        <dc:format>image/svg+xml</dc:format>
        <dc:source/>
        <dc:date>2022-10-19T12:09:19.957074</dc:date>
      </cc:Work>
    </rdf:RDF>
  </metadata>
  <defs/>
  <g fill="none" id="layer1" inkscape:groupmode="layer" inkscape:label="1" stroke="#004080" stroke-width="1.1339" style="display:inline">
    <polygon points="252.4885,452.7106 254.2788,459.971 260.1694,458.307 262.6105,455.285 264.4065,451.0944 254.9923,448.8895"/>
    <polygon points="252.5773,443.9893 252.5374,446.5769 252.8794,447.8604 255.1048,444.3633"/>
    <polygon points="257.0787,443.6982 256.9218,441.3382 255.8875,442.1599"/>
    <polygon points="261.1312,443.4206 259.2648,444.5217 261.3877,445.0913 262.103,443.7623"/>
    <polygon points="264.3777,444.5226 262.8391,443.9232 262.2226,444.9277 262.7669,446.4981 264.7642,445.0463"/>
    <polygon points="269.2988,456.3869 268.4291,458.2201 268.4527,459.2509 271.0831,457.936"/>
    <polygon points="266.1046,459.3434 264.4682,457.1543 266.1603,459.9602"/>
    <polygon points="271.1702,460.602 272.0647,458.5512 269.6139,459.4519 269.0248,461.1362 269.4855,462.3792"/>
    <polygon points="272.8208,460.8037 271.2313,463.4632 272.5685,463.0986 274.7527,461.4551"/>
    <polygon points="273.7673,456.9308 276.1647,455.4023 274.8507,454.9495"/>
    <polygon points="276.3542,467.2493 275.5404,466.6399 274.4047,468.6084 276.0984,469.3434 276.4821,467.9461"/>
    <polygon points="275.9516,470.137 277.0909,473.4482 277.3898,471.7029"/>
    <polygon points="266.9522,472.7858 264.4502,470.801 262.8489,470.4525 257.9024,470.9489 261.8461,481.025 264.3471,482.6588 267.347,479.563 268.4617,475.2632"/>
    <polygon points="292.6797,460.3385 288.058,458.4929 286.7729,460.7898 286.5932,466.9613 288.1798,468.6317 293.4715,472.7412 297.1825,465.432 293.9633,461.4586"/>
    <polygon points="305.4721,454.2356 305.7265,455.6135 306.859,456.5988 308.1587,455.0464"/>
    <polygon points="306.1284,452.2471 308.5407,453.1155 309.0625,452.1562 308.192,450.3559 306.0494,451.8866"/>
    <polygon points="309.9637,455.8835 309.4533,454.8311 308.7689,456.1833 309.7419,458.3023"/>
    <polygon points="310.9995,460.2653 311.547,461.489 314.8254,462.2385 311.9063,458.3675"/>
    <polygon points="308.9465,464.5988 309.3518,468.776 311.0677,470.5046 315.2602,472.2363 318.8283,469.079 319.5971,467.8581 319.8049,466.6815 316.9352,464.6191 311.3948,462.5435"/>
    <polygon points="306.79,463.4994 297.4628,465.9898 296.7937,467.7832 296.3396,471.0612 298.0476,475.4509 300.0099,476.5562 305.5733,473.8018 307.3277,470.0851 307.2624,466.1718"/>
    <polygon points="309.6209,472.0722 308.1631,473.2302 304.4817,479.3656 305.1499,480.1658 311.1347,484.478 315.5258,478.3659 316.004,474.2749"/>
    <polygon points="305.4989,484.3696 304.0467,481.1313 302.1002,482.2983 301.6237,486.7436 303.5277,487.4129 305.1632,487.1763"/>
    <polygon points="304.3132,494.5046 306.2163,491.5371 300.0286,489.6785 299.7348,492.746 302.4668,494.9582"/>
    <polygon points="294.7494,491.0459 292.8865,494.6707 297.3722,495.4965 296.4862,491.8232"/>
    <polygon points="289.5062,491.1916 291.5732,489.6627 297.2523,482.4438 299.0185,478.2688 297.2399,475.8574 287.9354,469.792 285.9561,468.7976 283.3299,471.3954 280.5355,475.9825 282.0874,482.6374 283.3407,486.1683 286.3775,491.692"/>
    <polygon points="276.4072,501.1589 276.7159,502.1002 281.1972,508.1323 285.2527,511.9023 286.9578,513.048 288.4116,513.9719 290.0658,513.9763 297.7171,505.1521 299.3895,502.7508 294.2895,497.2326 291.6546,495.4996 287.4408,494.6604 283.6709,495.6005 281.9041,496.3621 279.3704,498.2228"/>
    <polygon points="316.2118,458.9782 315.9009,456.8361 314.4105,456.6246 314.2248,458.2447 315.7793,461.0124"/>
    <polygon points="314.7828,454.1997 319.4213,456.4511 318.4865,453.5454"/>
    <polygon points="311.5072,449.2412 311.2719,450.3738 313.0403,449.3497"/>
    <polygon points="322.28,450.218 324.1746,449.2502 325.2068,438.0952 314.242,437.2202 313.7978,438.0544 312.2679,443.9821 315.2414,447.5256"/>
    <polygon points="316.0464,428.772 314.7352,431.7956 315.2693,434.6861 315.8641,435.4945 324.0401,436.5219 324.6107,432.4111 323.6735,430.5843"/>
    <polygon points="316.0412,427.6896 317.9474,425.6827 317.4205,424.5239 315.3789,424.0392 314.1005,424.2489"/>
    <polygon points="322.8875,424.3913 322.7528,421.5712 321.7563,421.7575 318.9012,423.786 319.8701,424.926 321.1021,425.5187 321.9093,425.5639"/>
    <polygon points="315.6498,418.2351 316.6444,418.3088 323.2082,416.8544 323.8784,416.401 323.1484,407.878 322.7295,406.1176 317.4734,407.7191 312.2005,412.0388 311.7603,416.8905"/>
    <polygon points="309.264,405.1435 304.3682,403.2272 301.6018,404.8175 301.7961,407.5676 302.4474,408.7093 307.5747,413.2403 311.0653,411.3999 311.7136,409.7626"/>
    <polygon points="303.1757,400.5737 307.5706,400.0427 307.8842,392.4668 306.8194,389.7779 300.4515,392.3925 298.5047,394.7978 301.4776,398.8953"/>
    <polygon points="311.945,396.2271 309.1919,398.8913 308.858,400.2033 310.611,402.84 314.5031,406.3517 316.6276,406.6537 319.9303,405.1005 320.1893,403.9754 319.321,402.2586 314.4652,396.3408"/>
    <polygon points="318.017,392.8291 317.5585,391.1088 314.0761,382.9948 311.8559,384.4542 309.9914,386.5487 309.1099,388.3964 308.7869,389.8764 310.3785,394.8558 316.7824,395.2642"/>
    <polygon points="312.0734,377.5465 308.4731,380.901 312.3787,382.9249 313.7618,381.0134"/>
    <polygon points="302.1101,378.9297 302.616,376.7003 301.0992,376.2229 298.7124,376.1207 298.8757,377.8175"/>
    <polygon points="291.5003,398.1169 296.9603,393.8076 297.0651,390.4528 290.9393,378.4216 289.2913,377.5609 286.613,377.8381 285.2299,378.6666 278.6363,385.8357 277.7965,388.434 290.1035,398.7839"/>
    <polygon points="291.6722,405.339 299.6923,404.9281 300.466,404.392 300.3014,399.7314 295.7515,396.0368 291.5134,398.7966"/>
    <polygon points="276.0716,407.9187 276.5185,406.4234 275.8699,403.7588 273.356,400.8776 268.0261,400.9945 264.5662,402.9581 265.3699,409.2375 266.6237,413.3683 269.791,411.8782"/>
    <polygon points="272.1235,398.837 273.9957,399.2278 274.3084,395.5069 273.2048,395.7817 272.2338,397.9461"/>
    <polygon points="269.9957,393.0766 268.5788,393.8191 269.6302,395.8664 270.9199,395.9948"/>
    <polygon points="266.4951,393.916 265.1375,392.2773 262.6512,391.4256 258.7075,392.1423 257.2902,394.9185 256.0039,401.5399 261.5351,403.3797 266.6945,400.3415 267.8051,398.3601"/>
    <polygon points="263.3835,385.1033 265.5032,385.328 266.167,383.6688 266.2763,381.9259 263.7568,381.8543 263.07,382.3699 262.628,383.804"/>
    <polygon points="261.4967,385.039 260.704,384.3952 259.3911,387.092 261.7123,388.7107 262.8341,388.2165"/>
    <polygon points="263.7397,405.4961 255.2077,402.4962 252.5268,412.4859 255.3274,415.7816 265.3452,416.9391"/>
    <polygon points="251.7277,420.4483 250.7152,422.2392 252.4771,430.0096 261.2798,429.2984 263.5821,417.9946 255.4767,418.9837"/>
    <polygon points="296.4663,355.7221 294.862,354.1154 288.0486,348.7707 277.7802,357.7568 277.0734,359.6135 277.4426,362.9604 279.2203,365.1185 283.6997,368.2396 286.8698,368.7861 292.5201,363.4449 296.7369,357.9072"/>
  </g>
  <g fill="none" id="layer2" inkscape:groupmode="layer" inkscape:label="2" stroke="#004080" stroke-width="1.1339" style="display:inline">
    <polygon points="255.7565,446.1545 258.7686,447.4537 258.6113,446.7065 257.1204,444.4639"/>
    <polygon points="256.2115,446.042 258.3785,446.9768 257.0984,444.9427"/>
    <line x1="256.7364" x2="257.4341" y1="445.9598" y2="445.9598"/>
    <polygon points="260.9332,441.9681 261.6517,441.3856 260.7605,440.9299"/>
    <polygon points="262.1685,441.3315 260.3885,440.4213 260.7335,442.495"/>
    <line x1="262.9017" x2="262.9017" y1="448.9227" y2="448.9227"/>
    <polygon points="262.1888,449.2626 263.8608,449.1392 263.2722,448.0158"/>
    <polygon points="264.3123,449.3902 263.3306,447.5165 261.5236,449.5959"/>
    <polygon points="267.1682,451.961 267.4903,453.9023 268.3301,450.8665 267.6516,450.6094"/>
    <polyline points="267.5985,452.8228 267.5665,451.6889 267.8606,451.6889 267.7693,451.122 267.9842,451.122"/>
    <polygon points="269.9128,453.9175 270.3234,455.4285 271.9914,453.7832"/>
    <polygon points="271.2513,454.1151 270.2773,454.178 270.4697,454.886"/>
    <polygon points="267.3369,454.7092 268.0363,453.5431 268.6592,450.6881 267.482,450.242 266.8765,451.9348"/>
    <polyline points="263.5584,458.6398 262.9592,458.6398 261.8545,459.2067 264.0662,459.2067 264.574,459.7737 260.7498,459.7737 259.6451,460.3406 265.0819,460.3406 265.5897,460.9075 258.5404,460.9075 257.4357,461.4745 266.0975,461.4745 266.6054,462.0414 256.331,462.0414 256.0978,462.6083 267.1132,462.6083 267.621,463.1752 255.8881,463.1752 255.8482,463.7422 267.9903,463.7422 268.1183,464.3091 256.0036,464.3091 256.159,464.876 267.8906,464.876 267.5673,465.443 256.3144,465.443 256.4698,466.0099 267.2439,466.0099 266.9206,466.5768 257.0176,466.5768 258.8916,467.1438 266.5972,467.1438 265.3622,467.7107 261.3297,467.7107"/>
    <polygon points="263.5465,468.557 266.7639,467.9959 268.5958,464.784 268.7547,464.0479 268.3238,463.1101 263.5,457.725 255.8469,461.6526 255.181,463.4528 256.1258,466.8993 259.8035,468.0119"/>
    <polygon points="269.0434,468.1695 269.6789,471.6104 270.5834,469.455"/>
    <polygon points="269.4648,468.8905 269.7851,470.6247 270.241,469.5384"/>
    <polyline points="272.4428,470.1689 273.0017,470.7358 272.2406,470.7358"/>
    <polygon points="273.3807,470.8086 272.4485,469.3092 271.8565,470.9689 273.0302,471.5956"/>
    <polygon points="273.1653,471.9891 273.7008,470.7866 272.379,468.6604 271.5074,471.1038"/>
    <polyline points="271.0868,475.2534 271.7633,475.2534 271.4808,475.8203 272.4417,475.8203"/>
    <polygon points="271.7174,477.1542 273.4371,475.7332 270.9027,473.9588 270.2314,475.016"/>
    <polygon points="270.562,474.9949 271.7744,476.7395 272.9695,475.7518 270.9447,474.3342"/>
    <polygon points="269.2323,480.1255 265.3842,486.7484 266.7686,489.5263 273.8745,499.4326 280.9223,494.5072 283.1475,488.954 277.7457,476.5458 276.6399,475.1673"/>
    <polygon points="265.0623,486.7381 266.525,489.6731 273.8021,499.8179 281.155,494.6886 283.4539,488.9514 277.9889,476.3959 276.6983,474.7871 269.0202,479.9264"/>
    <polyline points="273.8571,498.922 275.0109,498.355 273.4504,498.355 273.0438,497.7881 275.8822,497.7881 276.6972,497.2212 272.6371,497.2212 272.2304,496.6542 277.4789,496.6542 278.2607,496.0873 271.8238,496.0873 271.4171,495.5204 279.0424,495.5204 279.8241,494.9535 271.0104,494.9535 270.6038,494.3865 280.6059,494.3865 280.8925,493.8196 270.1971,493.8196 269.7905,493.2527 281.1196,493.2527 281.3468,492.6857 269.3838,492.6857 268.9771,492.1188 281.574,492.1188 281.8011,491.5519 268.5705,491.5519 268.1638,490.985 282.0283,490.985 282.2555,490.418 267.7571,490.418 267.3505,489.8511 282.4827,489.8511 282.7098,489.2842 266.9647,489.2842 266.6821,488.7172 282.7403,488.7172 282.5016,488.1503 266.3996,488.1503 266.117,487.5834 282.263,487.5834 282.0243,487.0165 265.8345,487.0165 265.8857,486.4495 281.7857,486.4495 281.547,485.8826 266.2151,485.8826 266.5445,485.3157 281.3084,485.3157 281.0698,484.7487 266.8739,484.7487 267.2033,484.1818 280.8311,484.1818 280.5925,483.6149 267.5327,483.6149 267.8621,483.0479 280.3538,483.0479 280.1152,482.481 268.1915,482.481 268.5209,481.9141 279.8766,481.9141 279.6292,481.3472 268.8503,481.3472 269.1797,480.7802 279.37,480.7802 279.1108,480.2133 269.6107,480.2133 270.4577,479.6464 278.8516,479.6464 278.5924,479.0794 271.3047,479.0794 272.1517,478.5125 278.3332,478.5125 278.074,477.9456 272.9987,477.9456 273.8457,477.3787 277.8149,477.3787 277.5557,476.8117 274.6927,476.8117 275.5397,476.2448 277.1409,476.2448 276.3867,475.6779 276.6861,475.6779"/>
    <polyline points="279.6595,470.5542 281.1003,469.9873 279.3978,469.9873 279.1361,469.4204 282.1474,469.4204 282.9905,468.8534 278.8744,468.8534 278.6127,468.2865 283.5844,468.2865 284.1784,467.7196 278.351,467.7196 278.0893,467.1526 284.682,467.1526 285.1759,466.5857 277.8276,466.5857 277.5659,466.0188 285.311,466.0188 285.2693,465.4519 277.3042,465.4519 277.0425,464.8849 285.2275,464.8849 285.1857,464.318 276.7808,464.318 276.5191,463.7511 285.1439,463.7511 285.1021,463.1841 276.2574,463.1841 276.1696,462.6172 285.0604,462.6172 285.0186,462.0503 276.6302,462.0503 277.0908,461.4834 284.9768,461.4834 284.935,460.9164 277.5514,460.9164 279.4744,460.3495 284.8933,460.3495 283.2494,459.7826 284.8515,459.7826"/>
    <polygon points="285.6304,466.4956 285.0942,459.2189 277.658,460.3356 275.7273,462.7121 279.6075,471.1179 282.8914,469.3399"/>
    <polygon points="277.5073,460.0716 275.3959,462.6705 279.4768,471.511 283.0597,469.5711 285.9218,466.5927 285.3544,458.8931"/>
    <line x1="276.8474" x2="277.9477" y1="458.5022" y2="457.3689"/>
    <polyline points="272.134,465.4137 271.1678,465.4137 271.0572,465.9806 271.3957,465.9806"/>
    <polygon points="270.9777,464.9081 270.6698,466.4862 272.9102,465.8368 273.2003,465.3255"/>
    <polygon points="273.0999,466.077 273.6427,465.1202 270.7533,464.5776 270.3026,466.8877"/>
    <polygon points="268.4577,464.0805 268.0841,463.2673 263.4349,458.0771 256.0745,461.8544 255.4784,463.4657 256.3578,466.6734 259.8735,467.7369 263.5634,468.2734 266.5808,467.7446"/>
    <polyline points="251.7184,440.4616 254.1236,440.4616 256.5479,439.8947 251.647,439.8947 251.5756,439.3277 258.733,439.3277 260.1084,438.7608 251.5042,438.7608 251.4327,438.1939 260.8933,438.1939 260.8872,437.6269 251.5876,437.6269 251.8128,437.06 260.8811,437.06 260.8751,436.4931 252.038,436.4931 252.2632,435.9262 260.869,435.9262 260.8629,435.3592 252.4884,435.3592 252.7136,434.7923 260.8569,434.7923 260.8508,434.2254 252.9388,434.2254 253.164,433.6584 260.8447,433.6584 260.8386,433.0915 253.3892,433.0915 253.6144,432.5246 260.8107,432.5246 259.0483,431.9577 256.7134,431.9577"/>
    <polygon points="256.9889,431.3609 253.3235,431.7212 250.8351,437.9856 251.3015,441.6877 258.6683,439.9676 261.4669,438.814 261.1976,431.4217"/>
    <polygon points="253.5231,431.9864 251.1254,438.0225 251.5436,441.3416 258.5806,439.6971 261.1814,438.6251 260.9578,431.7017 257.0007,431.6446"/>
    <polygon points="278.2378,403.9024 279.5444,401.8785 279.4299,401.2706 278.298,400.0342 277.5751,401.1401"/>
    <polyline points="278.4085,403.3856 278.2693,402.8187 278.7146,402.8187 279.0208,402.2518 278.1333,402.2518 277.9973,401.6848 279.2195,401.6848 278.9058,401.1179 277.9282,401.1179 278.3868,400.551"/>
    <polygon points="278.2605,399.5734 277.2709,401.0873 278.0562,404.3606 278.7843,403.8829 279.8416,401.9248 279.6935,401.1387"/>
    <polygon points="278.4188,397.826 279.0407,397.0125 276.4881,396.9643 275.9944,399.1956"/>
    <line x1="277.5669" x2="276.8762" y1="397.705" y2="397.705"/>
    <polygon points="276.3089,398.7251 278.4753,397.2853 276.7044,397.2519"/>
    <polygon points="276.0364,393.3236 279.0795,393.6069 277.3149,390.2896 276.2219,390.4595"/>
    <polyline points="276.5002,393.0821 278.4793,393.0821 278.1777,392.5151 276.3728,392.5151 276.4095,391.9482 277.8761,391.9482 277.5745,391.3813 276.4462,391.3813 276.4829,390.8144 277.273,390.8144"/>
    <polygon points="274.9971,390.4435 272.6348,387.3851 269.8823,389.5585 272.833,392.7964"/>
    <polyline points="272.417,391.4982 273.2568,391.4982 273.7783,390.9313 271.9003,390.9313 271.3837,390.3643 274.2196,390.3643 273.7817,389.7974 270.8671,389.7974 271.2126,389.2305 273.3438,389.2305 272.9059,388.6636 271.9306,388.6636"/>
    <polyline points="274.9184,386.6611 275.3444,386.6611 275.9738,386.0942 274.0399,386.0942 273.3117,385.5273 276.6032,385.5273 277.2289,384.9603 272.5835,384.9603 271.8553,384.3934 277.8467,384.3934 278.4644,383.8265 271.1271,383.8265 270.3989,383.2595 279.0822,383.2595 279.6999,382.6926 269.746,382.6926 269.1434,382.1257 280.3177,382.1257 280.923,381.5588 268.5409,381.5588 267.9537,380.9918 281.4653,380.9918 282.0077,380.4249 267.4436,380.4249 266.9334,379.858 282.55,379.858 283.0923,379.291 266.4232,379.291 265.9131,378.7241 283.6346,378.7241 284.177,378.1572 265.8249,378.1572 266.0618,377.5903 284.7193,377.5903 285.2616,377.0233 266.2986,377.0233 266.5355,376.4564 285.544,376.4564 285.4886,375.8895 266.7723,375.8895 267.0092,375.3225 285.4332,375.3225 285.3778,374.7556 267.246,374.7556 267.4829,374.1887 285.3223,374.1887 285.2669,373.6218 267.7197,373.6218 267.9566,373.0548 285.1437,373.0548 284.6777,372.4879 268.1934,372.4879 268.4303,371.921 284.2118,371.921 283.7458,371.354 268.6671,371.354 269.0076,370.7871 283.2798,370.7871 282.8138,370.2202 269.4289,370.2202 269.8503,369.6533 282.3478,369.6533 281.8818,369.0863 270.2716,369.0863 270.6929,368.5194 281.3286,368.5194 280.4519,367.9525 271.1142,367.9525 271.5356,367.3855 279.5752,367.3855 278.6985,366.8186 271.9569,366.8186 272.3834,366.2517 277.8217,366.2517 276.945,365.6847 272.8414,365.6847 273.2994,365.1178 274.8883,365.1178"/>
    <polygon points="285.7681,372.9216 281.8967,368.2116 276.6182,364.7983 273.2297,364.3019 268.2745,370.8231 265.0297,378.59 269.7377,383.4632 275.2298,387.5273 281.2309,382.0571 286.1577,376.9067"/>
    <polyline points="290.1808,375.3447 297.5028,375.3447 299.1316,374.7778 289.7635,374.7778 289.3462,374.2108 300.7604,374.2108 302.3892,373.6439 288.929,373.6439 288.5117,373.077 304.018,373.077 305.6467,372.5101 288.0944,372.5101 287.6771,371.9431 306.8213,371.9431 306.4441,371.3762 287.7499,371.3762 288.161,370.8093 306.0669,370.8093 305.6896,370.2423 288.5721,370.2423 288.9832,369.6754 305.3124,369.6754 304.9352,369.1085 289.3943,369.1085 289.8055,368.5416 304.558,368.5416 304.1808,367.9746 290.2787,367.9746 290.7616,367.4077 303.8036,367.4077 303.4263,366.8408 291.2445,366.8408 291.7274,366.2738 303.0378,366.2738 302.6143,365.7069 292.2103,365.7069 292.6932,365.14 302.1908,365.14 301.7673,364.573 293.1761,364.573 293.6589,364.0061 301.3438,364.0061 300.9203,363.4392 294.1418,363.4392 294.6247,362.8723 300.4968,362.8723 300.0733,362.3053 295.1076,362.3053 295.5905,361.7384 299.6498,361.7384 299.2263,361.1715 296.0734,361.1715 296.5563,360.6045 298.8028,360.6045 298.0257,360.0376 298.3793,360.0376"/>
    <polygon points="303.3729,366.2487 298.4748,359.6918 296.7677,359.9192 289.6377,368.29 287.1556,371.7128 290.3288,376.0239 295.7429,376.2574 307.3453,372.219"/>
    <polygon points="307.2348,373.5422 304.6748,374.1517 304.1997,374.5916 304.7906,377.6931 309.6681,375.7715"/>
    <polyline points="304.8868,374.728 307.6899,374.728 308.3087,375.2949 304.9108,375.2949 305.0188,375.8618 307.8921,375.8618 306.4532,376.4288 305.1268,376.4288"/>
    <polygon points="304.5075,374.6928 305.005,377.304 309.1422,375.674 307.1542,373.8528"/>
    <polygon points="296.6778,377.1426 295.4291,377.6938 294.9228,378.8854 294.8157,380.8896 295.6691,381.7553 297.2051,379.451"/>
    <polyline points="295.5936,378.0316 296.5901,378.0316 296.7196,378.5986 295.3527,378.5986 295.1917,379.1655 296.8491,379.1655 296.6768,379.7324 295.1614,379.7324 295.1311,380.2993 296.2989,380.2993 295.921,380.8663 295.1907,380.8663"/>
    <polygon points="297.5086,379.5068 296.8777,376.7446 295.2121,377.4798 294.6424,378.8204 294.5259,380.9995 295.7118,382.2023"/>
    <line x1="299.2453" x2="299.2453" y1="381.5656" y2="381.5656"/>
    <polygon points="299.5082,381.8944 299.7546,381.211 298.226,381.4668 298.2138,382.4872"/>
    <polygon points="299.7345,382.1026 300.1603,380.9215 297.9453,381.2345 297.925,382.9312"/>
    <line x1="302.2891" x2="302.8934" y1="382.9079" y2="382.9079"/>
    <polygon points="303.0408,383.7979 303.2875,382.225 302.1381,382.0179 301.9579,383.1994"/>
    <polygon points="303.2581,384.2419 303.6105,381.9952 301.9018,381.6873 301.6479,383.3519"/>
    <polygon points="305.3987,383.8462 304.1996,386.5328 306.6124,384.9258 307.5368,383.2966 307.2876,380.9209"/>
    <polyline points="305.5555,384.8859 305.8085,384.319 306.3049,384.319 306.1343,383.752 306.6266,383.752 306.5004,383.1851 306.9482,383.1851 306.8665,382.6182"/>
    <polygon points="307.2454,383.2358 307.0895,381.7501 304.8576,385.7539 306.3991,384.7272"/>
    <polyline points="301.5554,387.4885 302.3287,387.4885 302.1494,388.0554 301.0721,388.0554 300.5887,388.6223 301.9541,388.6223 301.7588,389.1893 300.2099,389.1893 299.8513,389.7562 301.5636,389.7562 301.3286,390.3231"/>
    <polygon points="300.2811,388.5462 299.2625,390.1746 301.5519,390.6603 302.6497,387.4734 302.1201,386.5844"/>
    <polygon points="300.0523,388.3777 298.8327,390.3732 301.7383,390.9896 302.9605,387.4414 302.1862,386.1414"/>
    <polyline points="297.9904,387.2008 297.1559,387.2008 296.8423,386.6339 298.9012,386.6339 298.8541,386.067 296.5287,386.067 296.2151,385.5 298.6105,385.5"/>
    <polygon points="299.3545,385.2411 298.7405,384.9305 295.0899,384.6372 296.9642,388.0255 299.5146,387.1716"/>
    <polygon points="297.1296,387.7389 299.2152,386.9905 299.0851,385.4225 295.5936,384.962"/>
    <line x1="295.874" x2="294.3041" y1="375.9116" y2="375.9116"/>
    <polygon points="290.1809,376.3013 295.7849,376.5429 307.7839,372.3665 303.6046,366.0852 298.6023,359.3889 296.6225,359.6525 289.4147,368.1146 286.8046,371.7141"/>
    <polygon points="284.5863,395.3556 283.7041,395.4898 282.7299,396.0861 281.9725,399.5816 283.9979,400.0819 286.8407,398.6443"/>
    <polyline points="284.3553,396.0213 283.9799,396.0213 284.7439,396.5882 283.2012,396.5882 283.0783,397.1551 285.1326,397.1551 285.5212,397.7221 282.9555,397.7221 282.8327,398.289 285.9098,398.289 285.166,398.8559 282.7099,398.8559 284.0449,399.4229"/>
    <polygon points="282.3079,399.3725 283.9638,399.7815 286.4238,398.5375 284.4531,395.6626 282.9813,396.2646"/>
    <polyline points="281.887,403.0825 282.728,403.0825 283.527,403.6495 281.6906,403.6495 281.4942,404.2164 283.8381,404.2164 282.2547,404.7833"/>
    <polygon points="281.1413,404.3691 282.2829,405.1453 284.2395,404.3609 284.169,403.7575 281.9087,402.1536"/>
    <polygon points="284.5462,404.5433 284.4359,403.5993 281.7646,401.7038 280.8024,404.4815 282.2483,405.4646"/>
    <polyline points="288.0805,403.7474 289.159,403.7474 288.8681,403.1805 287.4652,403.1805 286.9914,402.6136 288.5311,402.6136 288.194,402.0466 286.5527,402.0466 286.423,401.4797 287.857,401.4797 287.5199,400.9128 286.7997,400.9128"/>
    <polygon points="286.8769,400.2844 285.9316,401.7071 288.588,404.6004 289.5491,403.7891 287.3426,400.0597"/>
    <polygon points="288.5799,404.9783 289.8806,403.8802 287.4535,399.6915 286.6838,400.0628 285.5829,401.7197"/>
    <polygon points="279.5767,393.9378 277.4705,389.9785 275.9537,390.2143 275.7357,393.5803"/>
    <polygon points="272.834,392.3766 274.6267,390.4276 272.5856,387.7851 270.2968,389.5925"/>
    <polygon points="266.5191,388.8589 265.2867,387.5138 264.9582,387.85"/>
    <polygon points="265.2933,387.1014 264.5156,387.8973 267.598,389.6168"/>
    <polygon points="270.3429,385.4112 270.6259,385.6947 270.9098,385.4112 270.6269,385.1278"/>
    <polygon points="265.3604,378.5337 269.9223,383.2477 275.1995,387.1732 281.0324,381.8545 285.8629,376.8048 285.4944,373.035 281.7057,368.4257 276.5161,365.0698 273.3486,364.6058 268.5227,370.9644"/>
    <polygon points="317.1187,419.781 319.0997,421.2926 322.4751,419.2069"/>
    <line x1="319.1391" x2="319.1391" y1="420.5688" y2="420.5688"/>
    <polygon points="319.1166,420.949 321.2645,419.6217 317.856,419.9871"/>
    <polygon points="322.6222,426.7146 325.5898,428.812 325.1461,424.7098 323.4362,425.691"/>
    <polyline points="323.8041,426.1392 324.7305,426.1392 324.7918,426.7061 323.5606,426.7061 324.3227,427.273 324.8531,427.273"/>
    <polygon points="324.911,425.1716 323.6243,425.9098 323.0263,426.6619 325.2428,428.2406"/>
    <line x1="319.7629" x2="318.9895" y1="428.4093" y2="428.1442"/>
    <line x1="311.7353" x2="310.3774" y1="446.0024" y2="446.3935"/>
    <polygon points="314.8978,449.7301 313.4397,451.5679 313.5257,451.8078 315.8341,450.8178"/>
    <polyline points="314.93,450.202 315.2289,450.7689 314.4355,450.7689"/>
    <polygon points="316.3012,450.9259 314.8565,449.326 313.1196,451.5153 313.3607,452.187"/>
    <polygon points="322.7031,452.9038 322.8553,454.008 323.1616,452.8877"/>
    <polygon points="320.4001,459.2472 318.2237,458.4902 317.9766,460.186 319.8302,461.4892"/>
    <polygon points="320.0613,459.4295 318.4547,458.8707 318.2729,460.1186 319.6467,461.0601"/>
    <polyline points="319.1093,459.3985 318.6643,459.3985 318.5816,459.9654 319.6325,459.9654 319.2885,460.5324"/>
    <polygon points="303.5733,461.8401 307.4893,460.7481 302.7502,454.6298 295.8588,457.5747 295.3628,459.848 296.7836,461.1404 299.9838,462.1975"/>
    <polyline points="300.962,461.8152 299.7303,461.8152 298.0141,461.2483 304.6403,461.2483 306.6733,460.6814 296.7003,460.6814 296.077,460.1144 306.64,460.1144 306.2008,459.5475 295.7185,459.5475 295.8422,458.9806 305.7617,458.9806 305.3226,458.4137 295.9659,458.4137 296.0896,457.8467 304.8834,457.8467 304.4443,457.2798 297.2704,457.2798 298.597,456.7129 304.0052,456.7129 303.566,456.1459 299.9237,456.1459 301.2504,455.579 303.1269,455.579 302.6878,455.0121"/>
    <polygon points="299.952,462.4855 303.6258,462.1198 307.9716,460.9079 302.8402,454.2831 295.613,457.3715 295.051,459.9475 296.6375,461.3906"/>
    <polyline points="299.427,483.0713 299.1392,483.0713 299.476,483.6382 298.0945,483.6382 297.1798,484.2051 299.525,484.2051 299.574,484.7721 296.7482,484.7721 296.3166,485.339 299.623,485.339 299.672,485.9059 296.4439,485.9059 297.1036,486.4728 299.721,486.4728 299.77,487.0398 297.7634,487.0398 298.4231,487.6067 299.819,487.6067 299.4143,488.1736"/>
    <polygon points="298.2602,487.8405 299.6052,488.6092 300.1367,487.9904 299.6739,482.6357 297.0579,483.8973 295.7187,485.6564"/>
    <polygon points="296.8678,483.6791 295.3313,485.6973 298.096,488.0731 299.6677,488.9715 300.4294,488.0847 299.9272,482.2749"/>
    <polyline points="308.0623,484.2949 307.8508,484.8618 308.6465,484.8618 308.8569,485.4288 307.7243,485.4288 307.5977,485.9957 309.0673,485.9957 309.2711,486.5626 307.4711,486.5626 307.3562,487.1296 309.2666,487.1296 309.2249,487.6965 307.3092,487.6965 307.4458,488.2634 308.9254,488.2634 308.6259,488.8303 307.9074,488.8303"/>
    <polygon points="309.5456,487.6963 309.5551,486.4954 308.7663,484.3702 307.794,483.8155 306.9872,488.1492 308.3937,489.8766"/>
    <polygon points="308.9963,484.175 307.601,483.3791 306.6953,488.2396 308.4443,490.3877 309.8285,487.7676 309.8389,486.4456"/>
    <polyline points="299.2366,495.5849 298.7205,496.1519 300.3859,496.1519 301.014,496.7188 298.4493,496.7188 298.1782,497.2857 301.5846,497.2857 302.1552,497.8527 297.907,497.8527 298.106,498.4196 302.0069,498.4196 301.7722,498.9865 298.4029,498.9865 301.5375,499.5534"/>
    <polygon points="302.5511,497.8464 300.6671,495.9745 298.9065,495.106 297.5433,497.9562 298.347,499.4909 301.646,500.0324"/>
    <polygon points="297.2263,497.9619 298.1615,499.7477 301.8219,500.3485 302.8857,497.7792 300.834,495.7407 298.7746,494.7249"/>
  </g>
  <g fill="none" id="layer3" inkscape:groupmode="layer" inkscape:label="3" stroke="#000000" stroke-width="1.1339" style="display:inline">
    <polygon points="304.9411,417.6437 301.9032,414.6058 298.331,412.2189 294.3618,410.5748 290.1481,409.7367 285.8519,409.7367 281.6382,410.5748 277.669,412.2189 274.0968,414.6058 271.0589,417.6437 268.672,421.2159 267.0279,425.1851 266.1897,429.3988 266.1897,433.695 267.0279,437.9087 268.672,441.878 271.0589,445.4501 274.0968,448.4881 277.669,450.8749 281.6382,452.519 285.8519,453.3572 290.1481,453.3572 294.3618,452.519 298.331,450.8749 301.9032,448.4881 304.9411,445.4501 307.328,441.878 308.9721,437.9087 309.8103,433.695 309.8103,429.3988 308.9721,425.1851 307.328,421.2159"/>
    <polygon points="294.2794,410.8464 290.1203,410.0191 285.8797,410.0191 281.7206,410.8464 277.8028,412.4692 274.2768,414.8252 271.2783,417.8237 268.9223,421.3497 267.2995,425.2675 266.4722,429.4266 266.4722,433.6672 267.2995,437.8264 268.9223,441.7442 271.2783,445.2701 274.2768,448.2687 277.8028,450.6246 281.7206,452.2474 285.8797,453.0747 290.1203,453.0747 294.2794,452.2474 298.1972,450.6246 301.7232,448.2687 304.7217,445.2701 307.0777,441.7442 308.7005,437.8264 309.5278,433.6672 309.5278,429.4266 308.7005,425.2675 307.0777,421.3497 304.7217,417.8237 301.7232,414.8252 298.1972,412.4692"/>
    <line x1="289.7981" x2="286.2019" y1="410.2871" y2="410.2871"/>
    <polyline points="282.8568,410.854 293.1432,410.854 295.0437,411.4209 280.9563,411.4209 279.4835,411.9879 296.5165,411.9879 297.7152,412.5548 278.2848,412.5548 277.2655,413.1217 298.7345,413.1217 299.6804,413.6887 276.3196,413.6887 275.5207,414.2556 300.4793,414.2556 301.2437,414.8225 274.7563,414.8225 274.0763,415.3894 301.9237,415.3894 302.5492,415.9564 273.4508,415.9564 272.8395,416.5233 303.1605,416.5233 303.6744,417.0902 272.3256,417.0902 271.8118,417.6572 304.1882,417.6572 304.6658,418.2241 271.3342,418.2241 270.9138,418.791 305.0862,418.791 305.5067,419.3579 270.4933,419.3579 270.1068,419.9249 305.8932,419.9249 306.233,420.4918 269.767,420.4918 269.4272,421.0587 306.5728,421.0587 306.8947,421.6257 269.1053,421.6257 268.8372,422.1926 307.1628,422.1926 307.4309,422.7595 268.5691,422.7595 268.3009,423.3264 307.6991,423.3264 307.9078,423.8934 268.0922,423.8934 267.8894,424.4603 308.1106,424.4603 308.3135,425.0272 267.6865,425.0272 267.5099,425.5942 308.4901,425.5942 308.6321,426.1611 267.3679,426.1611 267.2259,426.728 308.7741,426.728 308.9161,427.2949 267.0839,427.2949 266.9909,427.8619 309.0091,427.8619 309.0932,428.4288 266.9068,428.4288 266.8227,428.9957 309.1773,428.9957 309.2507,429.5627 266.7493,429.5627 266.7215,430.1296 309.2785,430.1296 309.3064,430.6965 266.6936,430.6965 266.6657,431.2635 309.3343,431.2635 309.3343,431.8304 266.6657,431.8304 266.6936,432.3973 309.3064,432.3973 309.2785,432.9642 266.7215,432.9642 266.7493,433.5312 309.2507,433.5312 309.1773,434.0981 266.8227,434.0981 266.9068,434.665 309.0932,434.665 309.0091,435.232 266.9909,435.232 267.0839,435.7989 308.9161,435.7989 308.7741,436.3658 267.2259,436.3658 267.3679,436.9327 308.6321,436.9327 308.4901,437.4997 267.5099,437.4997 267.6865,438.0666 308.3135,438.0666 308.1106,438.6335 267.8894,438.6335 268.0922,439.2005 307.9078,439.2005 307.6991,439.7674 268.3009,439.7674 268.5691,440.3343 307.4309,440.3343 307.1628,440.9012 268.8372,440.9012 269.1053,441.4682 306.8947,441.4682 306.5728,442.0351 269.4272,442.0351 269.767,442.602 306.233,442.602 305.8932,443.169 270.1068,443.169 270.4933,443.7359 305.5067,443.7359 305.0862,444.3028 270.9138,444.3028 271.3342,444.8698 304.6658,444.8698 304.1882,445.4367 271.8118,445.4367 272.3256,446.0036 303.6744,446.0036 303.1605,446.5705 272.8395,446.5705 273.4508,447.1375 302.5492,447.1375 301.9237,447.7044 274.0763,447.7044 274.7563,448.2713 301.2437,448.2713 300.4793,448.8383 275.5207,448.8383 276.3196,449.4052 299.6804,449.4052 298.7345,449.9721 277.2655,449.9721 278.2848,450.539 297.7152,450.539 296.5165,451.106 279.4835,451.106 280.9563,451.6729 295.0437,451.6729 293.1432,452.2398 282.8568,452.2398"/>
    <line x1="286.2019" x2="289.7981" y1="452.8068" y2="452.8068"/>
  </g>
  <g fill="none" id="layer4" inkscape:groupmode="layer" inkscape:label="4" stroke="#ffd700" stroke-width="3.7795" style="display:inline">
    <polygon points="290.2134,529.4529 291.3071,528.6518 292.3706,527.0728 292.7177,525.1202 299.6861,518.8017 307.8183,509.827 315.0317,500.0983 321.2422,489.7367 326.4335,478.7605 330.5202,467.327 333.4535,455.6083 335.222,443.6895 335.8218,431.5624 335.2261,419.435 333.4405,407.4251 330.4933,395.6781 326.4335,384.3333 321.2704,373.4121 315.0317,362.9955 307.7987,353.243 299.6643,344.2703 288.6345,334.2728 288.0366,334.0288 287.3655,334.2728 276.3357,344.2703 268.2013,353.243 260.9683,362.9955 254.7296,373.4121 249.5556,384.3623 245.4878,395.737 242.5595,407.4251 240.7739,419.435 240.1782,431.5315 240.7709,443.6281 242.5525,455.6386 245.4967,467.3864 249.591,478.8172 254.7578,489.7367 261.0035,500.1492 268.2217,509.8741 276.3139,518.8017 283.2823,525.1202 283.4747,526.6358 284.0633,527.891 284.991,528.9213 286.1778,529.638 287.5216,529.9792 288.9065,529.9157"/>
    <polygon points="253.0672,477.3272 249.1122,466.2735 246.2596,454.8855 244.537,443.2727 243.961,431.5469 244.537,419.8212 246.2596,408.2083 249.1122,396.8203 253.0672,385.7667 258.0867,375.1539 264.1222,365.0843 271.1156,355.6547 278.9997,346.956 288.0,338.7986 297.0003,346.956 304.8844,355.6547 311.8778,365.0843 317.9133,375.1539 322.9328,385.7667 326.8878,396.8203 329.7404,408.2083 331.463,419.8212 332.039,431.5469 331.463,443.2727 329.7404,454.8855 326.8878,466.2735 322.9328,477.3272 317.9133,487.9399 311.8778,498.0095 304.8844,507.4391 297.0003,516.1378 289.6454,522.8204 289.0092,523.9592 288.8303,525.723 288.3603,526.149 287.7267,526.1801 287.1302,525.6395 287.0104,524.0318 286.4292,522.9051 278.9997,516.1378 271.1156,507.4391 264.1222,498.0095 258.0867,487.9399"/>
    <polygon points="335.2736,406.9659 332.322,395.1926 328.2237,383.7256 322.9615,372.5683 316.6055,361.9493 309.2311,352.0103 300.94,342.8758 289.8193,332.7992 288.1118,332.1405 286.2094,332.7754 275.06,342.8758 266.7689,352.0103 259.4166,361.9162 253.0563,372.5327 247.8188,383.6142 243.6466,395.3077 240.6921,407.1212 238.9087,419.1271 238.29,431.4475 238.8898,443.8089 240.6921,455.9727 243.6896,467.9393 247.866,479.5892 253.0932,490.6315 259.4622,501.2428 266.795,511.1135 274.9745,520.1349 281.4241,525.9866 281.8818,527.7919 282.8016,529.3655 283.8819,530.4537 285.4873,531.3974 287.3319,531.8595 289.1533,531.7901 290.6583,531.3335 292.2417,530.3537 293.8425,528.3795 294.5759,525.9866 301.0255,520.1349 309.3311,510.9599 316.5834,501.1776 322.8476,490.7351 328.1812,479.4796 332.3534,467.7862 335.3079,455.9727 337.0913,443.9668 337.71,431.6463 337.1063,419.2454"/>
    <polygon points="328.6984,396.2711 331.5961,407.8392 333.3459,419.6357 333.9311,431.5469 333.3459,443.4581 331.5961,455.2546 328.6984,466.8228 324.6808,478.0512 319.5819,488.8318 313.451,499.0607 306.3469,508.6394 298.3382,517.4757 291.026,524.1113 290.7115,526.1017 290.0036,527.2828 288.5528,528.0583 286.9157,527.897 285.5011,526.6149 284.9971,524.1385 277.6618,517.4757 269.6531,508.6394 262.549,499.0607 256.4181,488.8318 251.3192,478.0512 247.3016,466.8228 244.4039,455.2546 242.6541,443.4581 242.0689,431.5469 242.6541,419.6357 244.4039,407.8392 247.3016,396.2711 251.3192,385.0426 256.4181,374.262 262.549,364.0331 269.6531,354.4544 277.6618,345.6182 288.0,336.2482 298.3382,345.6182 306.3469,354.4544 313.451,364.0331 319.5819,374.262 324.6808,385.0426"/>
  </g>
</svg>
