<?xml version="1.0" encoding="utf-8" ?>
<svg xmlns="http://www.w3.org/2000/svg" xmlns:cc="http://creativecommons.org/ns" xmlns:dc="http://purl.org/dc/elements/1.1/" xmlns:ev="http://www.w3.org/2001/xml-events" xmlns:inkscape="http://www.inkscape.org/namespaces/inkscape" xmlns:rdf="http://www.w3.org/1999/02/22-rdf-syntax-ns" xmlns:sodipodi="http://sodipodi.sourceforge.net/DTD/sodipodi-0.dtd" xmlns:xlink="http://www.w3.org/1999/xlink" baseProfile="tiny" height="29.7cm" version="1.2" viewBox="0 0 793.7007874015749 1122.5196850393702" width="21.0cm">
  <metadata>
    <rdf:RDF>
      <cc:Work>
        <dc:format>image/svg+xml</dc:format>
        <dc:source>vsk save -s 9 /home/tobin/src/fabian/plotting/generation/stones/sketch_stones.py</dc:source>
        <dc:date>2022-10-11T23:35:02.190686</dc:date>
      </cc:Work>
    </rdf:RDF>
  </metadata>
  <defs/>
  <g fill="none" id="layer1" inkscape:groupmode="layer" inkscape:label="1" stroke="#0000ff" style="display:inline">
    <polygon points="463.2829,685.5097 529.4506,560.2452 530.2731,549.437 529.725,544.8462 513.714,526.8536 500.1388,513.4285 441.9416,457.1933 402.0035,424.6395 394.3458,429.1547 297.3826,490.5841 293.7742,510.9879 293.8556,674.963 385.0321,727.8935 405.4154,737.413 416.237,737.6649 429.2149,734.3568 440.7661,727.4559"/>
    <polygon points="486.4032,763.9057 581.4609,823.3545 611.5958,840.9113 624.2345,845.8364 631.3162,845.5799 649.0853,809.8676 653.3396,799.9269 664.9008,770.1199 672.7727,745.8283 679.1614,723.5138 681.5205,713.8792 686.86,688.1961 691.0929,658.3911 697.8753,604.0757 698.9373,573.2178 698.7431,550.1817 698.2527,546.6748 695.5588,539.4577 686.6853,538.6362 598.8584,545.7012 542.2736,552.0218 533.4715,556.4983 453.9871,704.7968 443.1802,726.2009 444.4137,736.1663"/>
    <polygon points="439.9037,843.449 441.8186,848.066 457.1696,875.3652 461.9557,882.8797 468.5088,887.7658 492.5773,883.9938 500.4594,882.0086 509.3591,878.6024 521.3722,869.6232 545.6522,815.0164 548.2662,805.192 531.7214,794.3143 502.3862,776.2404 486.0248,777.7333 451.9686,818.8705 444.1885,830.2788"/>
    <polygon points="436.5074,841.8555 425.7027,838.821 417.9407,845.1366 420.3451,851.2089"/>
    <polygon points="437.4101,851.2838 434.8647,856.8294 438.9603,859.9832 442.56,861.9852 443.6465,858.7687"/>
    <polygon points="430.093,859.6607 429.0865,863.6451 433.583,871.596 439.1827,864.2071"/>
    <polygon points="415.2325,867.5495 415.837,878.639 427.4913,874.416 426.1475,869.4257 423.5913,865.9748 418.3987,865.7049"/>
    <polygon points="399.8949,863.5422 401.2887,866.9421 404.3539,871.7604 409.4751,871.9564 410.3135,868.8948 407.7888,863.5662 403.5819,861.6621"/>
    <polygon points="394.5373,868.8545 402.8908,839.6399 397.9263,827.7918 395.0563,827.4091 387.1139,827.4103 375.9905,828.8311 366.7075,833.7963 355.6805,862.4803 359.1535,865.4858 369.6309,869.9981 390.5597,873.8806"/>
    <polygon points="394.5544,875.4713 406.8746,882.3355 403.1854,874.7534 401.3762,874.08"/>
    <polygon points="397.5988,878.2938 386.8756,881.7913 383.8826,886.3259 375.5464,912.0115 374.0548,919.1553 386.2851,926.587 397.5068,927.4981 417.7914,919.8763 420.3148,916.0858 418.3204,905.8934 412.0964,891.1655 409.1738,887.0589"/>
    <polygon points="379.3157,894.5507 376.7539,893.3175 371.2284,900.5998 372.7261,903.8398 377.5775,900.8891"/>
    <polygon points="371.4593,887.0666 380.9307,889.7327 374.065,874.9683 370.5384,882.9074"/>
    <polygon points="360.2175,895.307 366.8852,896.9776 365.8208,886.9627 354.2925,890.7308"/>
    <polygon points="347.3172,886.2237 353.6461,886.0615 357.1852,884.4816 358.0696,881.8323 353.707,874.8269 352.2587,875.7476"/>
    <polygon points="359.2909,874.8147 364.0522,875.3591 365.3646,871.7728"/>
    <polygon points="341.5207,905.7697 352.7627,912.0545 354.4947,906.5401 354.7869,904.7567 349.7296,893.1517 341.0494,900.5387"/>
    <polygon points="373.1892,908.4267 364.6901,903.6951 359.136,912.2738 366.8762,915.9653"/>
    <polygon points="416.5103,897.7677 423.2653,912.4041 425.0079,913.9441 427.8413,915.4447 437.0282,910.9793 457.6439,899.4643 459.6427,888.3139 451.9878,869.8718 444.8645,869.2689 428.7325,876.1187 424.4593,879.4721 417.6114,887.9103"/>
    <polygon points="402.7251,846.5279 402.3398,847.7302 402.5454,853.5427 407.568,857.1974 414.1029,860.7103 416.2725,852.7566 409.5781,847.8078"/>
    <polygon points="417.4088,841.2431 420.3252,836.3436 416.0171,835.2297 413.1888,835.0726 405.442,836.1461"/>
    <polygon points="399.1021,827.2753 433.6593,835.0973 438.8089,833.6271 447.2877,823.3706 489.3889,767.745 471.0215,754.5415 468.4983,753.0917 442.8542,739.2069 433.335,736.1857 406.5625,741.3186 389.7634,777.3874 380.3,799.5437 377.1784,815.266 380.9098,817.719"/>
    <polygon points="522.5963,883.4768 506.2955,882.162 502.219,882.3829 480.9979,888.7309 461.8105,898.2985 460.7189,903.6485 463.2025,915.2156 474.9832,943.3979 488.0629,971.249 496.2176,987.1759 501.4793,985.2264 516.9117,977.1041 537.8003,962.1262 564.9712,938.6096 568.9974,932.5264 566.7249,927.3169 565.1416,925.143 556.9159,916.2035"/>
    <polygon points="586.3725,913.9474 594.6476,903.5292 604.0159,890.7956 625.3331,856.551 613.5907,844.3784 597.6678,834.8662 555.3717,812.327 547.4499,817.2592 544.2967,821.9517 536.6961,836.9219 524.8226,867.4466 526.4718,881.0478 539.5575,897.0864 565.1128,922.2682 569.7725,925.1993 579.0455,921.3041 582.7209,918.0606"/>
    <polygon points="481.4258,995.9802 489.4771,990.5336 484.7948,972.2613 460.6286,915.3437 454.7717,906.9423 453.2916,905.8719 421.3029,919.1388 411.0969,923.7814 398.6251,929.9348 396.8986,933.7217 398.1871,962.4394 402.9184,1003.6534 405.5974,1012.8227 424.8707,1011.4928 454.4966,1005.6207"/>
    <polygon points="368.9219,1012.0908 396.4355,1012.7561 401.3486,1003.5934 395.126,943.5507 392.9095,939.3653 384.1579,929.0553 373.4299,922.7192 357.6122,915.9584 342.0249,915.1871 331.5586,924.3645 311.9812,969.5635 303.9047,991.6337 317.3871,997.047 339.7136,1005.4629 351.9196,1009.4224 360.8437,1011.3735"/>
    <polygon points="294.3265,986.0361 303.4854,985.921 307.0964,979.5767 317.6347,955.405 400.2865,747.3926 402.4639,740.3669 353.2002,710.6589 302.911,682.0401 290.0793,677.4341 282.1876,679.1843 206.5264,704.2457 128.936,730.9227 120.6356,734.4249 119.4181,738.481 146.5407,814.2786 173.0459,864.2173 181.8727,879.1242 191.2978,892.9948 220.8594,929.0407 231.819,939.8125 247.8179,954.0432 269.5082,971.62 287.4014,982.5433"/>
    <polygon points="102.8199,654.6185 108.1958,692.1348 113.7113,713.2793 117.0992,723.4482 120.0948,727.8047 123.3987,728.0051 133.1425,726.8979 144.0865,724.0465 283.1568,677.1552 286.8545,675.585 292.9019,661.5658 293.4543,494.3129 289.11,491.5483 283.6299,489.3402 117.5079,437.532 110.1107,437.3284 109.2861,437.3593 102.8913,459.7939 98.2245,501.9168 94.7634,561.8814 96.4711,602.9256"/>
    <polygon points="118.525,389.562 114.4539,407.3574 112.3532,420.8322 111.4402,428.7898 115.9156,434.2476 150.4124,446.7132 172.4562,454.1744 193.3799,460.832 263.5572,481.9875 296.9855,490.1717 395.7115,428.0386 405.2746,421.0222 411.0648,387.8235 411.2352,383.2683 408.9835,377.1972 405.8145,371.2996 385.012,342.2412 248.7876,174.1863 246.6562,172.5744 222.9182,193.7202 209.4596,206.8068 190.9181,231.0422 170.9401,263.0408 149.7675,304.1918 133.7697,340.3874"/>
    <polygon points="450.6541,464.902 453.688,465.4482 454.8153,464.9932 477.4581,453.8659 548.1598,403.5519 550.139,395.6336 532.9138,359.3085 509.979,318.6342 505.8431,317.774 493.2485,319.4381 477.0235,329.6913 441.3287,357.0453 415.4375,377.4012 410.0527,397.0599 407.1795,415.8374 407.1086,420.6545 415.8601,430.3986 438.1226,453.3579"/>
    <polygon points="528.2589,418.7671 457.0427,469.8807 457.8869,472.0117 524.8391,536.3031 541.4245,546.1458 549.7035,546.8479 578.9336,544.2257 592.0439,541.0851 592.4411,531.3949 592.4987,517.5345 584.5113,430.4816 581.7511,413.4423 574.1546,407.8955 554.6705,400.8612"/>
    <polygon points="553.8865,395.4807 556.3492,400.1709 562.1391,401.0578 570.0819,385.6117 559.431,380.2392 558.1974,381.7727"/>
    <polygon points="548.5031,387.0854 558.1907,377.1792 558.7486,366.6474 554.0454,364.6458 545.1407,366.477 542.8478,369.5544 542.2166,372.6105 545.2004,380.4457"/>
    <polygon points="565.4024,398.3138 574.6249,405.4552 577.8376,406.9454 582.8818,399.9598 578.3748,392.7276 570.9272,394.237"/>
    <polygon points="570.9525,385.459 577.5606,388.5373 580.6131,389.3651 583.6502,387.9702 587.3248,384.5725 591.1007,378.8553 588.6855,377.6398 579.9823,379.0691 573.8956,382.675"/>
    <polygon points="567.6125,367.6871 562.064,373.3661 571.1128,379.2285 577.9999,372.5505 578.9545,371.165 574.0547,365.3195"/>
    <polygon points="566.1327,360.8278 570.2611,351.8125 566.0348,348.8437 559.4642,346.207 551.8642,347.8504 551.7903,350.5383 552.5505,354.4102 559.1649,361.4325"/>
    <polygon points="578.7661,362.8963 582.567,365.5118 590.8346,369.1457 584.4418,347.3537 578.4783,362.2788"/>
    <polygon points="593.4758,371.8273 599.2012,380.6852 604.5071,380.3325 609.0966,379.3058 611.7898,377.5153 612.6089,371.3532 610.6319,368.653 604.9127,369.2361"/>
    <polygon points="602.9346,361.0246 602.2933,355.7112 590.9862,347.7743 589.625,356.4168 598.0534,365.3664"/>
    <polygon points="613.0234,353.4866 606.7832,335.1998 603.5349,333.1358 600.0104,331.6888 587.7919,343.2102 588.8336,344.8259 596.9658,348.7248"/>
    <polygon points="609.3959,336.552 620.7774,333.0763 622.642,322.9485 615.155,317.3149 607.5691,320.9755 608.4258,334.0375"/>
    <polygon points="614.8683,313.6221 612.9389,309.5719 605.339,299.8099 594.9246,304.8147 592.5151,307.85 597.4118,314.6906 603.969,318.6182 609.392,316.7973"/>
    <polygon points="636.926,336.8211 625.789,332.4181 619.0005,340.6593 619.9601,347.6802 629.9888,342.7346"/>
    <polygon points="651.5256,317.6586 646.7229,313.7008 641.6026,312.3915 636.7951,313.2389 630.8476,321.1872 632.0266,327.1713 633.4249,329.651 639.8435,333.5321 654.1904,326.2118"/>
    <polygon points="638.2147,290.5911 617.958,296.0391 623.0589,314.2537 632.4301,312.3976 639.6314,308.5686"/>
    <polygon points="606.4332,238.1346 597.952,242.8416 570.151,261.8174 560.4657,269.1628 573.5198,292.6129 580.136,302.1354 584.6853,305.0272 592.0634,303.8369 613.2975,296.314 632.6774,287.8843 629.7767,275.2286 625.1566,265.207 612.2974,244.3848"/>
    <polygon points="554.3939,275.9102 551.8776,284.1765 552.8636,289.1497 561.9577,297.9922 570.1716,297.0424 569.7715,290.0228 562.1189,276.2395"/>
    <polygon points="532.4775,290.3366 538.33,299.7977 550.3145,300.3497 554.2579,298.0757 551.0378,288.8778 541.6831,286.9572 537.8809,287.2106"/>
    <polygon points="508.5776,309.7549 511.7665,310.4889 522.0242,311.4647 528.634,308.5175 532.8967,300.4584 527.9631,294.5942 514.2963,302.6682"/>
    <polygon points="500.5082,312.2263 582.7719,251.7076 600.6885,237.5389 602.0686,234.6718 602.5134,231.5395 584.2261,206.7693 570.1574,190.3149 540.9828,163.906 512.8616,143.6256 468.8041,121.9188 455.6585,117.3266 426.4085,110.3867 386.7087,109.697 337.8475,117.4413 308.2796,129.7619 285.2093,142.0171 251.4073,167.467 250.4235,175.2031 368.3135,320.8294 407.1951,367.6345 413.4318,373.8879 417.0683,372.8007"/>
    <polygon points="535.7549,329.1226 528.1593,313.1738 524.7148,312.8825 517.9316,314.1442 515.6902,320.4084 516.1851,324.0944 525.1401,329.5958"/>
    <polygon points="542.5233,327.4798 544.5738,327.2934 551.2329,309.2102 550.5298,308.3286 535.6303,304.0859 534.3841,314.9065"/>
    <polygon points="556.1636,327.6447 545.315,328.8948 547.9026,333.568 555.288,339.6586 564.1597,340.4923 565.2954,331.3319 562.5384,327.7999"/>
    <polygon points="567.955,328.8636 569.1309,336.5397 577.2748,348.0872 582.158,339.264 577.6587,330.7643 571.6716,326.2951"/>
    <polygon points="582.8868,331.9574 587.3765,334.6346 592.1141,331.5663 598.3477,321.1707 597.9326,317.1178 597.3734,316.2914 588.1752,308.7822 583.9391,310.893 580.3142,323.876 579.9891,329.7231"/>
    <polygon points="566.2015,301.0555 561.6393,300.7278 556.1719,317.2325 558.1328,322.7875 566.927,325.5996 575.5531,322.1322 578.8566,310.652 571.1012,303.8468"/>
    <polygon points="526.3452,343.8511 529.7633,346.1535 535.8384,345.7869 539.6274,341.563 542.4939,331.7179 527.6124,331.3639 523.7546,333.3848 523.4539,340.3551"/>
    <polygon points="552.0626,359.9927 547.5777,347.7827 541.519,345.5586 531.1216,353.0475 533.7772,358.4249 540.7337,366.096"/>
    <polygon points="583.7967,409.5256 589.8132,407.5374 593.013,406.17 596.9826,404.2455 600.3125,402.0943 591.6566,394.7768"/>
    <polygon points="606.7051,382.6562 596.5791,387.4389 602.6344,394.5639 609.5969,401.6861 613.2318,400.363 614.2679,399.1832 612.6484,382.2635"/>
    <polygon points="670.2201,375.1455 662.7134,348.576 657.7549,335.3085 655.9024,334.8962 649.3653,336.1076 612.4656,355.1491 615.2731,374.5163 620.1919,395.9251 632.6885,393.513 662.5926,381.5537"/>
    <polygon points="692.255,535.4983 696.2853,532.9597 694.2224,495.6382 692.5365,477.9318 687.1723,437.5715 674.2202,383.3953 656.67,385.2638 593.6357,409.1231 589.5341,413.4989 587.0506,417.4568 589.1561,466.1692 592.5202,507.4087 596.379,542.1313 613.7836,542.5338 629.0916,542.0418"/>
  </g>
</svg>
