<?xml version="1.0" encoding="utf-8" ?>
<svg xmlns="http://www.w3.org/2000/svg" xmlns:cc="http://creativecommons.org/ns" xmlns:dc="http://purl.org/dc/elements/1.1/" xmlns:ev="http://www.w3.org/2001/xml-events" xmlns:inkscape="http://www.inkscape.org/namespaces/inkscape" xmlns:rdf="http://www.w3.org/1999/02/22-rdf-syntax-ns" xmlns:sodipodi="http://sodipodi.sourceforge.net/DTD/sodipodi-0.dtd" xmlns:xlink="http://www.w3.org/1999/xlink" baseProfile="tiny" height="29.7cm" version="1.2" viewBox="0 0 793.7007874015749 1122.5196850393702" width="21.0cm">
  <metadata>
    <rdf:RDF>
      <cc:Work>
        <dc:format>image/svg+xml</dc:format>
        <dc:source/>
        <dc:date>2022-10-12T22:26:18.989700</dc:date>
      </cc:Work>
    </rdf:RDF>
  </metadata>
  <defs/>
  <g fill="none" id="layer1" inkscape:groupmode="layer" inkscape:label="1" stroke="#0000ff" style="display:inline">
    <polygon points="56.8659,973.5508 59.715,976.859 61.193,977.9485 73.8841,978.9258 90.7857,971.7656 94.4689,967.617 89.4093,954.8755 87.2676,950.3334 80.5639,943.5118 64.4739,947.9224 59.5909,951.4951"/>
    <polygon points="85.9974,941.7434 95.9768,954.6274 115.4275,940.5741 112.8133,908.2179 110.9205,908.2119 95.9718,908.2703 90.8246,915.8843 81.8583,934.6373"/>
    <polygon points="80.5232,937.3954 87.6651,908.2172 62.7452,904.2394 57.7067,905.0461 57.4776,910.2207 59.133,934.4721 62.7624,939.6065 65.7263,941.5141 74.3223,940.6124"/>
    <polygon points="122.42,941.873 148.329,945.5824 149.7801,941.7374 149.9644,926.5669 148.7925,916.9115 145.6549,912.2059 124.4027,909.3832 117.3726,910.2832 118.7865,940.0381"/>
    <polygon points="151.5917,954.3595 154.0238,981.2948 163.6031,980.6024 169.7105,979.5797 179.3649,977.1836 184.451,966.7177 180.5625,959.3633 165.3019,944.6968"/>
    <polygon points="179.8609,949.5116 186.4575,960.4758 189.2695,963.832 210.6901,957.552 213.4566,944.0339 206.3198,940.9727 194.9704,938.674 183.4753,938.3948 181.9449,939.3759"/>
    <polygon points="213.0317,961.0371 193.7892,964.7093 183.8268,978.6288 192.2466,996.8884 217.2471,981.015 215.4264,968.182"/>
    <polygon points="226.7338,975.8145 236.5341,981.124 240.6096,979.3809 244.0791,973.5346 249.3909,950.9998 246.2631,946.7181 235.9259,944.8339 222.0312,943.9708 218.2416,945.5214 214.5683,959.6525 220.2633,968.4681"/>
    <polygon points="222.0306,983.3895 197.7904,1000.3358 195.2162,1011.016 204.7351,1014.2105 229.083,1012.6823 234.8932,1003.522 237.7744,992.2531"/>
    <polygon points="236.9769,1001.5598 235.8703,1012.3687 241.2973,1014.7694 295.5723,1014.1255 316.0318,1009.7245 331.0223,1003.8853 332.8146,999.5793 332.1005,981.3333 325.9808,954.1247 305.157,944.741 272.2586,934.9672 260.1132,932.0721 255.666,937.3508 243.7224,977.4885"/>
    <polygon points="235.5333,942.4117 247.5562,942.6722 251.4071,936.5431 254.0988,930.6944 254.0413,928.5116 248.7222,914.0834 241.5651,913.3331 225.1697,913.6075 221.6385,929.5541 223.52,939.7966"/>
    <polygon points="236.602,902.5673 230.063,875.7821 217.3712,873.9912 207.5587,876.3185 204.8231,881.4343 194.1576,904.7532 228.9772,910.1166 234.6684,910.4166"/>
    <polygon points="264.7261,903.9369 273.3253,874.8835 274.7651,865.4324 260.8753,865.8966 248.1158,869.0416 239.927,875.4086 238.8057,881.1628 241.3948,904.582 244.9769,908.3289 253.1357,912.415"/>
    <polygon points="213.4239,867.0748 224.8004,869.6789 235.5305,868.9131 238.5076,864.2168 228.6459,843.5595 226.8796,840.6375 222.2486,836.955 202.6277,836.0172 192.1305,850.2543 199.6816,858.8333"/>
    <polygon points="191.4453,899.9186 202.4964,872.1017 189.9012,851.033 169.5872,849.8813 168.5008,852.3491 163.0123,869.9529 163.5997,893.6963 166.7145,898.674 177.1875,901.8311 186.9722,903.4552"/>
    <polygon points="187.9047,905.2264 185.6282,923.7198 195.9209,933.6233 207.4813,937.3598 216.2575,939.2966 220.2869,921.2991 221.6637,913.7824 208.8169,909.2527"/>
    <polygon points="160.0706,904.4122 154.2838,907.3647 152.6899,908.7115 150.3996,917.0079 151.2503,935.0078 152.667,939.645 156.8067,942.0082 174.7635,940.4897 181.0414,927.7171 183.6124,906.1856 161.9137,904.1861"/>
    <polygon points="149.2747,908.2934 158.4456,899.0592 161.2229,887.6236 154.5747,881.1141 142.5204,875.2758 135.7456,873.7693 133.15,874.1645 126.2527,878.7088 106.2837,905.7835 117.1501,907.9195 144.7837,909.35"/>
    <polygon points="150.3818,875.8306 161.805,873.5238 161.5577,856.6932 154.2461,840.4357 151.9918,839.5562 136.231,835.9412 130.3117,839.9551 122.7116,848.707 134.1908,870.2859 138.2331,872.9877"/>
    <polygon points="129.9954,871.9031 126.0169,861.497 116.6574,851.1462 114.8413,850.6988 92.9847,850.3116 88.9686,853.9398 88.6042,859.3754 100.036,892.3776 111.7574,891.3084 119.2479,884.2487"/>
    <polygon points="118.9426,843.592 125.0769,833.3188 126.5815,824.2733 125.5864,820.4063 121.6812,811.4029 117.6919,806.466 115.6622,804.8426 102.4864,798.2206 94.8885,798.9371 91.6511,801.9145 85.1077,811.7176 93.8593,838.1116 96.2525,843.0418 104.5708,846.3061 117.3558,844.7303"/>
    <polygon points="85.9134,853.8695 90.1341,842.125 90.0555,838.8376 81.0847,804.1473 62.4461,803.3441 57.21,807.0537 57.5683,857.2108"/>
    <polygon points="85.4946,858.1866 78.043,857.7249 71.8759,858.1558 60.8504,861.2878 57.1866,874.3873 56.734,877.5633 57.4461,902.6969 99.9022,903.758 96.3108,889.5242 88.9504,865.3153"/>
    <polygon points="68.9669,798.3743 79.5692,797.7326 85.1053,790.1443 85.121,785.9372 83.1382,768.1947 77.5829,762.8461 57.645,762.5603 58.0858,792.8567"/>
    <polygon points="88.0378,768.6527 86.8228,771.0225 89.0997,794.4992 90.1585,795.0893 97.8974,797.2873 99.4873,797.381 115.1075,791.2388 110.6625,774.8884 107.1077,768.6028"/>
    <polygon points="107.984,766.9218 113.8869,766.7701 119.3171,758.9225 119.9528,746.8988 105.4283,737.1286 98.3418,736.7965 85.8715,746.8249 83.4733,757.6598 85.5925,761.7807"/>
    <polygon points="136.2229,752.3261 125.2422,755.2133 118.476,763.011 116.2938,770.5898 117.1636,781.8666 120.4745,790.5258 125.2941,792.7537 133.5654,793.1996 144.9258,792.0149 146.7426,783.8717 143.6271,757.4708"/>
    <polygon points="143.6905,733.416 146.4701,766.2811 147.6893,767.0556 175.3688,760.8086 182.5771,747.8238 182.6618,741.0513 176.0678,731.7271 175.1154,730.8081 167.5579,725.7419"/>
    <polygon points="138.7005,709.0622 135.2266,690.0578 121.5943,687.2717 107.3114,688.3905 108.5037,697.3616 111.349,703.8551 122.9603,712.99 127.7509,714.1918 136.8953,714.815"/>
    <polygon points="128.6954,681.8874 136.2339,683.6603 140.7974,680.9845 139.9935,670.0027 133.703,664.0048 126.8154,664.9878 122.9579,668.8394 124.0469,672.0256"/>
    <polygon points="136.8034,662.5858 147.4569,673.824 151.0366,666.7611 154.7152,655.2662 149.0226,651.2689 143.8987,648.5974 136.3041,661.4142"/>
    <polygon points="125.983,660.7226 130.1269,660.4789 138.3191,651.7983 134.6399,641.1837 132.9372,637.5503 126.6864,637.5402 123.4497,641.7426 123.0593,642.8252 123.2352,659.7762"/>
    <polygon points="124.5578,628.6185 132.6791,632.327 141.0044,626.9493 145.6933,618.6702 144.2509,612.3035 135.9838,615.6162 125.9759,621.8063"/>
    <polygon points="117.6788,624.5472 123.4278,616.0918 112.3692,603.0731 102.5289,609.874 98.3052,613.1887 100.8992,619.5964 106.4223,624.2639"/>
    <polygon points="143.1701,631.364 140.1917,636.6064 142.0725,640.8237 146.0039,643.7582 149.6207,645.1209 153.5556,642.8218 159.6777,633.5149 145.5948,628.8524"/>
    <polygon points="161.9004,638.8306 152.447,647.2468 161.6583,656.3836 165.7528,656.4083 177.0096,645.7744 166.6427,638.0343"/>
    <polygon points="162.3351,658.3666 156.6443,661.3835 153.174,669.5644 152.6634,680.6255 171.7929,677.336 172.1395,676.1326 171.4569,669.2036 170.4395,664.1875 168.5482,661.2709"/>
    <polygon points="158.9501,680.664 143.1129,684.8687 139.5384,686.8772 139.1557,695.3837 142.0165,726.0221 143.1097,727.032 146.1289,727.6323 152.3727,726.1357 164.1078,721.553 165.7103,720.3169 167.8156,711.4799 165.4569,684.7787"/>
    <polygon points="190.9047,680.3916 185.8366,679.0591 168.5246,683.8514 172.6071,725.084 182.2111,726.7294 194.6952,716.7997 200.0352,706.9825 192.1358,681.8841"/>
    <polygon points="188.7257,661.2021 188.4652,658.7944 185.486,655.55 184.2513,655.1813 177.3041,656.9222 178.3451,670.9677 186.1359,673.8516"/>
    <polygon points="201.2238,663.6832 195.0557,658.1189 192.6614,660.0616 192.8538,669.839 199.5903,671.8385 203.6113,669.9532"/>
    <polygon points="232.1991,707.7862 238.6948,697.5833 237.3556,690.7603 222.9345,678.1794 217.1049,673.6392 196.1626,678.4549 197.1986,685.223 200.9975,701.3947 206.443,708.0322 215.3429,712.6035"/>
    <polygon points="242.8209,698.1742 234.9493,714.0466 234.3589,715.8884 240.4623,726.977 245.2677,729.3121 252.4826,729.791 258.8037,726.0386 265.213,718.8826 255.8255,703.762 248.9712,698.0912"/>
    <polygon points="225.1739,721.1732 218.5295,717.0433 202.5327,710.9209 188.873,722.8999 184.8685,729.3929 184.6905,735.6075 192.2407,741.3072 219.0687,751.0601 226.0981,731.3997 227.5331,726.6344"/>
    <polygon points="238.4376,729.25 231.085,729.7411 229.0552,730.3203 220.0713,758.2728 245.3184,764.4902 248.2032,763.3286 258.1859,751.5095 253.3282,737.4546"/>
    <polygon points="233.3201,765.5768 217.8603,764.5077 213.7775,768.4366 211.3924,786.1679 215.1498,795.0191 217.8769,798.0757 238.8173,808.5588 244.4377,797.8812 246.6058,788.2564 241.8878,768.0751"/>
    <polygon points="259.2808,791.5982 265.6842,791.0314 274.7385,789.0305 278.7514,787.0178 287.674,779.7736 272.4736,760.7467 268.0986,757.4348 256.2746,758.7334 249.0216,766.4697 247.3415,773.9558 248.1432,783.9557 250.2534,789.0258"/>
    <polygon points="251.1731,799.1594 248.7089,806.037 250.933,813.928 285.5023,830.6803 294.1295,803.3968 293.932,791.8584 292.401,784.4574 265.8074,793.2038"/>
    <polygon points="245.8404,814.0258 223.8438,802.7705 199.3589,795.693 199.5856,803.9629 200.2584,812.8174 201.9375,823.0004 205.0919,831.1308 210.1713,833.2472 225.016,834.4645 237.7377,828.1254 244.055,817.5577"/>
    <polygon points="254.2254,820.2683 244.3779,825.9774 232.9514,835.1855 238.2879,850.3969 241.8748,857.5277 244.2454,861.3534 251.3557,863.539 256.335,863.8227 272.2142,858.1483 279.4507,843.2609 279.8958,831.5291 263.9824,823.765"/>
    <polygon points="316.4299,821.1499 317.0499,823.813 329.5052,827.1254 335.2145,826.7352 337.5988,825.2461 343.7535,812.4411 343.82,807.591 335.7707,803.3336 322.8182,804.4139 316.4489,817.9812"/>
    <polygon points="317.8676,834.2573 308.9042,819.3969 296.703,816.4133 295.3334,816.3297 291.5176,819.2327 288.7511,826.6848 287.7579,832.5119 289.1121,849.1206 289.905,849.9277 302.7714,852.3782 306.9657,852.6845 312.1679,851.6401"/>
    <polygon points="352.4635,839.8129 342.5032,828.9965 341.4987,828.3459 326.6946,830.9474 317.2154,847.6428 320.6922,852.7058 323.7563,854.5263 339.9427,853.1805 352.5602,846.4106 352.7728,841.2313"/>
    <polygon points="366.3889,831.2875 382.8963,817.7321 379.7683,816.0868 353.1627,806.4833 349.9826,805.8499 346.533,827.7313 350.3803,832.6476"/>
    <polygon points="383.2849,822.5497 374.5073,828.6008 364.7015,838.2604 361.2622,842.8109 362.6801,845.3436 371.6982,853.4139 384.0296,850.4073 397.971,828.5749 389.2246,820.9582"/>
    <polygon points="413.7833,830.515 410.7103,809.5436 409.7356,805.5092 389.4993,801.6098 387.8471,813.3773 394.5755,822.6948 408.2139,835.8809"/>
    <polygon points="437.3338,804.4919 424.1371,795.0293 416.7835,795.1611 413.9043,795.6692 409.0792,801.0121 416.4324,818.3312 425.9638,825.4802 436.9374,816.2501"/>
    <polygon points="454.8568,810.1512 446.6242,806.2797 444.8913,806.7134 436.8289,818.8644 435.5849,826.4125 439.8077,833.3954 447.2428,836.4999 455.6373,834.5862 464.4171,825.973 466.4736,823.1936 462.6209,816.6017"/>
    <polygon points="460.9741,790.6113 455.4886,800.9675 466.6035,812.6212 479.0055,819.8878 481.9258,817.2502 480.4076,803.0033 478.6408,798.0329 471.6345,787.9089"/>
    <polygon points="451.9726,787.1107 446.2289,774.6266 443.6534,772.3386 434.2167,777.7339 422.2416,787.5354 435.425,799.9595 442.8826,800.9985 451.974,801.151"/>
    <polygon points="449.3689,774.3069 467.1269,784.2398 473.6126,781.4295 472.7181,764.8449 469.6728,754.0713 462.5077,756.9664 455.467,762.5447 447.6105,771.8556"/>
    <polygon points="482.3763,770.8349 480.1318,777.222 479.303,781.8365 479.8082,789.2971 495.0093,797.8299 508.761,793.9313 512.9272,786.3179 516.5626,774.3879 513.0084,763.925 498.7752,766.1681 488.1433,768.7484"/>
    <polygon points="487.4419,739.053 472.5186,752.1553 472.4229,759.796 479.7958,766.033 485.8563,766.9936 499.8488,762.6137 508.6117,757.0382 504.1859,733.0748"/>
    <polygon points="506.0113,731.6309 515.43,745.7405 549.896,736.2403 549.4922,719.349 548.2352,716.2742 540.0741,701.3065 527.9776,709.0577 509.0045,723.0527"/>
    <polygon points="544.435,697.088 550.1464,717.6054 573.9475,792.3677 578.7496,801.3841 605.5029,812.5022 614.9016,814.7443 623.0724,813.151 627.335,810.9953 636.0928,804.1911 642.962,776.751 657.7329,712.3291 632.357,704.6856 587.7456,693.4278 557.6627,689.2271"/>
    <polygon points="570.5133,678.0708 558.7617,687.1982 561.3085,688.0129 580.3416,691.6654 588.0464,687.7169 588.9745,674.0367 587.3482,665.7772"/>
    <polygon points="592.3216,680.7239 591.0584,689.7435 592.6653,692.3859 595.3034,694.0693 607.2038,696.7236 614.2847,680.2806 611.7457,678.0141 603.2066,673.2166 598.0906,671.2236 594.6012,673.5659"/>
    <polygon points="617.0807,649.9773 602.0547,655.3581 597.8426,663.4471 607.3323,671.9625 616.5597,674.5006 623.6547,651.0492"/>
    <polygon points="645.5073,634.2026 639.0297,634.1904 632.076,635.8045 632.8607,653.2842 651.644,649.5476 652.3103,647.3182 653.3437,640.8513 653.2425,637.7842 651.8136,634.6498"/>
    <polygon points="656.9323,626.2777 652.6573,631.6035 660.4042,640.3227 667.6767,642.5936 680.8744,642.6439 682.7075,640.7968 680.1905,629.6693 670.4858,623.1695"/>
    <polygon points="648.1236,613.2353 649.0753,621.7525 652.5192,624.9667 670.7946,619.3973 672.6651,612.0092 670.2913,604.1146 666.2538,601.4008 657.7401,598.4522 647.8485,601.2197"/>
    <polygon points="674.3162,609.1994 684.0495,614.9606 695.906,608.8827 700.403,605.5016 701.5508,602.068 693.1314,584.8386 669.4703,592.2535 670.9948,599.727"/>
    <polygon points="669.0662,583.6689 673.7271,589.2124 690.3663,583.3609 695.9878,573.8959 696.3264,568.3232 679.0904,562.9666 663.963,567.4146 663.9694,570.0087"/>
    <polygon points="658.0249,568.7469 638.0204,580.9202 637.1896,582.2175 644.2652,594.9505 646.8173,597.8724 666.5949,592.5037 662.2079,574.3711"/>
    <polygon points="633.3269,567.4049 642.3419,568.1333 661.1116,563.3049 666.182,561.2066 672.5497,549.2079 681.1507,516.5354 682.165,491.818 681.4736,488.9097 679.2413,486.9861 666.1831,477.6079 656.4136,478.1241 645.4278,481.1234 634.649,484.6009 612.2339,493.1896 612.7622,500.661 614.4916,515.7434 621.182,534.8377"/>
    <polygon points="689.541,564.3701 694.0518,558.7084 698.2992,550.1709 695.916,541.1109 687.327,537.4221 678.5739,535.5706 672.159,558.1321"/>
    <polygon points="698.5865,535.8897 700.6172,529.3074 702.5799,515.8139 700.7446,513.9953 692.7601,512.9534 684.6225,513.0652 683.8226,524.1652 686.5561,532.0035"/>
    <polygon points="710.6695,541.8332 726.8993,537.9223 730.4748,530.5832 730.7428,525.8994 726.7995,521.5735 713.8631,515.3068 710.4423,517.2957 707.4455,521.5803 703.8812,529.6902 702.5543,535.8628 709.0599,541.0601"/>
    <polygon points="717.352,546.6484 712.9665,545.8729 700.7526,547.9386 698.845,553.1138 698.6256,566.6119 705.812,570.0774 713.59,572.6362 718.6915,567.0221 719.9608,551.169"/>
    <polygon points="736.1025,574.7713 736.7617,567.474 736.9888,560.2589 735.686,538.5166 723.2193,548.1005 724.3124,565.4462 731.1757,575.013 734.117,575.7086"/>
    <polygon points="730.3143,596.5656 715.3676,598.3908 711.2466,599.7804 708.7795,604.8796 707.7838,611.2855 708.8736,614.3754 715.47,616.5118 731.3947,620.2401 736.4106,612.1885 734.9063,598.0883"/>
    <polygon points="710.2611,598.5718 715.9215,597.4545 733.2167,584.9593 734.0813,582.484 720.2412,576.0904 701.1631,574.4617 697.5617,585.2672 702.8862,595.3277 706.1107,598.6815"/>
    <polygon points="706.3185,635.1935 712.8178,636.098 718.8543,636.2763 732.2596,633.6701 727.5421,627.937 714.2996,621.1608 709.6791,620.5798 706.9658,628.4095"/>
    <polygon points="693.8838,639.6897 703.0934,638.7151 706.0229,624.9877 700.71,609.8793 690.476,613.54 681.0146,621.7619 680.0261,623.3716"/>
    <polygon points="664.3316,648.821 660.5881,647.7379 647.333,656.4349 646.3562,665.3505 648.4712,668.1821 660.3159,674.8691 663.9564,666.3059"/>
    <polygon points="663.1559,682.3365 658.0896,676.7441 653.2771,678.5732 646.5308,686.1756 645.6134,689.359 645.159,697.8317 647.4094,704.496 660.6247,699.3521"/>
    <polygon points="638.285,679.3986 644.6715,676.4328 643.1102,663.2289 639.0351,659.2792 634.4043,657.1312 629.8589,659.479 623.8697,663.3765 620.7764,674.034 632.0084,680.2929"/>
    <polygon points="635.7773,693.7584 634.1891,683.5613 627.5586,681.869 622.3331,681.6943 617.502,682.5667 615.4144,686.8397 614.0143,698.1293 621.6745,699.6099 629.0667,700.2864 634.8291,698.8254"/>
    <polygon points="561.4958,756.6188 554.251,739.6845 541.7516,740.774 526.356,745.1988 518.4081,748.4644 517.739,761.4872 526.2451,777.1114 544.2118,777.8463 555.8713,770.3382"/>
    <polygon points="522.131,781.0091 510.4568,797.2701 510.9424,801.1804 523.9838,821.5249 532.7127,819.6963 539.9968,817.4164 545.3816,806.2673 544.8846,797.7482 538.4453,787.36 532.7949,780.3401 528.5584,779.3722"/>
    <polygon points="557.4381,809.6984 565.1712,806.6417 572.045,803.5269 574.9512,798.6597 561.9842,768.8496 555.257,771.8358 543.7565,788.5979 546.9686,802.9612 549.4239,810.4931"/>
    <polygon points="584.3684,805.5387 575.9177,805.547 566.2123,807.8005 544.3193,816.522 522.0402,825.985 515.404,830.4929 495.5449,845.4943 494.8534,850.5618 499.1512,872.1669 508.3995,911.2941 513.4193,918.7754 613.9209,903.1128 618.1393,893.9233 622.2856,832.4023 617.9791,822.7896 601.8597,811.7237 594.8773,808.9005"/>
    <polygon points="642.9854,802.6504 648.5946,809.0117 659.5189,811.796 690.481,818.0776 724.1969,820.933 730.5986,820.9848 736.6207,800.4873 736.881,730.5055 734.523,724.7322 729.3894,722.0384 681.5318,712.9024 672.2273,712.1101 658.3929,712.4911 639.4905,797.7659"/>
    <polygon points="635.2932,845.2037 656.6871,845.7887 658.9028,843.4786 659.0192,842.8269 660.1962,824.3304 655.1137,816.6019 646.768,813.3536 633.6344,812.5916 626.6517,820.344 623.9234,841.3443 629.7848,843.7877"/>
    <polygon points="638.6349,848.3021 623.0651,845.1144 621.3111,861.2306 620.6174,879.7834 622.4887,882.3521 629.8829,882.4192 641.4422,880.9567 652.099,876.6982 655.3555,855.8555 651.4635,851.8198"/>
    <polygon points="657.615,851.2945 657.0018,853.7587 656.0254,880.3146 665.5253,890.2347 684.1365,881.9617 690.442,878.2938 692.1781,875.2998 693.627,871.2689 692.9527,863.4567 684.4845,856.2441 673.2888,851.1027 659.6433,849.1495"/>
    <polygon points="704.379,835.1645 706.2512,851.4284 725.0064,856.0097 735.6756,855.4386 736.6778,845.3984 733.4658,831.3914 730.9387,825.189 714.979,822.9372 708.2666,822.6124"/>
    <polygon points="703.9018,821.6173 672.0614,816.9542 664.9502,820.0876 664.7343,835.6451 668.2178,845.2529 677.2407,851.1698 689.72,852.6986 698.8747,849.9084"/>
    <polygon points="717.0029,885.4023 719.7892,884.5032 733.8484,875.2263 736.4146,862.1932 725.1394,857.4724 707.5358,854.0648 696.259,869.1389 702.1625,884.8421 712.4292,885.5494"/>
    <polygon points="704.7009,907.9875 714.6539,912.2874 725.0443,912.6864 731.3581,911.9999 737.0006,906.8283 736.0537,892.4887 734.5996,884.9619 711.0656,887.7908 706.7971,890.1467 704.5345,892.4435"/>
    <polygon points="698.6214,913.6547 702.9377,911.6655 702.3848,891.79 701.2784,888.2052 693.2079,883.0806 674.0805,889.1054 667.4111,894.0178 665.0675,910.4645 682.8686,914.423"/>
    <polygon points="661.444,913.6394 662.3803,897.2212 655.9705,883.0092 648.0795,881.7447 626.5305,886.2841 621.2297,891.9509 619.7875,898.3419 627.1988,912.684 633.6275,915.3916 654.0728,914.9675"/>
    <polygon points="584.8096,912.3605 595.777,932.7996 605.2006,934.5358 619.84,928.5989 626.8231,925.4169 630.1591,921.5199 618.6794,910.0539 612.3537,904.874 599.3914,907.0454 590.7345,909.2611 584.6739,911.3719"/>
    <polygon points="552.119,924.2289 553.6519,944.6036 554.8559,948.9628 557.7511,950.591 584.5051,948.5841 589.4087,946.0991 590.6389,941.7596 588.5549,928.3022 579.5909,910.1554 551.9041,914.5929"/>
    <polygon points="529.1635,952.6969 519.9405,957.5892 520.399,963.8951 527.8867,995.0722 531.0278,995.9643 539.5493,990.9065 547.6984,984.6474 555.8042,974.8626 558.2817,959.8805 556.836,956.9544 550.4981,950.979 538.8026,951.5633"/>
    <polygon points="521.2122,951.749 543.2951,948.4563 546.9381,947.1942 548.9506,938.3559 548.9537,928.5687 547.6705,915.598 545.1304,915.1742 510.5588,920.5662 511.5841,924.8417"/>
    <polygon points="491.7233,939.8214 473.8855,944.6238 470.6387,950.4865 471.7387,955.9267 481.7509,962.8983 492.105,968.0084 499.3905,958.2359 506.6295,946.8653 510.1671,938.6346"/>
    <polygon points="482.5633,925.2968 472.6693,914.0182 466.7737,919.0519 460.6547,926.997 458.8917,933.2996 465.0448,940.6909 470.9198,941.4374 475.271,940.8548 483.6276,935.8141 484.1968,928.9313"/>
    <polygon points="490.6756,906.2205 494.008,903.2776 499.501,895.5571 499.9759,887.1568 492.8957,878.424 471.6083,882.1708 470.053,890.0247 477.0257,907.1958"/>
    <polygon points="508.7071,920.7036 504.361,911.5504 499.8709,909.1262 481.4973,911.3729 481.9454,915.9208 490.6645,938.8436 498.1931,936.5597 501.4814,935.0007 509.7457,926.6431"/>
    <polygon points="498.395,977.6832 512.8027,981.0367 523.096,980.3052 517.1463,956.0256 512.6567,945.0658 498.4057,961.5691"/>
    <polygon points="524.4681,989.7629 520.0487,987.9352 513.0576,985.9761 506.2802,986.7342 503.3466,987.9934 502.8419,991.9628 503.0779,1009.32 513.6166,1012.7818 521.3987,1013.791 525.2011,1013.7496 530.4951,1012.6247 527.3559,999.5967"/>
    <polygon points="554.0383,981.7531 547.827,986.7927 542.8382,994.5306 537.2547,1006.0543 535.576,1014.4891 561.6166,1014.6673 583.1188,1013.5861 587.0424,998.4522 569.7986,984.5295 557.6646,981.2228"/>
    <polygon points="591.7757,996.5172 591.1147,1001.2106 602.1541,1011.9389 626.7544,1014.5748 628.3162,1010.436 630.2315,974.0294 624.8152,973.3472 612.1741,974.1896 607.035,975.1122 605.0725,975.97 598.1746,983.1005"/>
    <polygon points="610.6105,971.7311 618.8789,971.6567 621.7927,970.6702 628.2429,962.5432 631.0973,940.8673 628.1542,935.643 624.0233,935.8435 601.8879,938.6501 596.3853,941.0671 592.9099,949.312 597.6553,961.8977 601.5352,970.3157"/>
    <polygon points="594.0059,958.6816 592.7652,957.8271 577.6048,950.9594 572.2086,952.8022 564.774,956.9688 559.1692,973.2071 565.3472,979.5023 574.4009,986.6616 588.4153,992.7611 595.2548,983.2133 597.7626,970.757"/>
    <polygon points="496.4536,1009.2482 501.3793,1001.2424 496.7058,988.822 493.8928,986.8728 476.0383,993.9633 473.7981,996.2543 473.9873,1002.3346 475.8781,1014.5746 490.9795,1014.0821"/>
    <polygon points="457.8594,1014.5511 465.1529,1014.1522 470.9035,1011.4098 470.0012,1007.7626 466.5874,997.3469 458.1212,992.607 434.8698,1000.0931 432.4026,1005.6577 432.2677,1009.3065 433.4314,1011.2349 437.8009,1013.9838"/>
    <polygon points="438.2426,987.7023 442.5239,989.1327 459.56,990.3746 462.0019,985.7262 459.269,975.6341 433.5701,973.0303 433.1469,985.0876"/>
    <polygon points="433.05,966.8097 460.618,969.9989 463.9024,960.4536 462.9244,955.8324 460.2953,949.5162 454.5209,948.9814 440.6999,953.1103 433.1848,963.8152"/>
    <polygon points="431.901,951.1229 424.3686,947.0405 406.3418,957.2846 404.3558,964.5432 408.204,973.9668 412.571,983.0469 417.7119,983.2289 429.2917,982.087 431.8194,969.3476"/>
    <polygon points="452.4765,947.5047 456.4907,936.8901 455.658,930.9916 454.4847,928.6837 451.6817,925.9348 445.906,921.6315 440.0587,921.8949 426.3428,935.85 427.4706,939.6513 442.3853,950.6149"/>
    <polygon points="463.351,977.0962 464.3765,991.1555 466.0219,993.2266 468.1453,993.8071 470.5465,993.9466 482.0109,988.9471 489.8417,978.8536 490.7245,975.6467 487.6236,968.7467 483.442,965.657 481.1101,965.0297 474.9254,965.5495 469.8532,967.571 464.0914,970.6018"/>
    <polygon points="402.2463,993.2456 398.547,998.1104 399.5181,1004.6602 404.4521,1012.422 416.4621,1013.5412 425.411,1011.5097 428.9941,987.2712 413.988,986.7171"/>
    <polygon points="399.3736,993.4925 405.9335,987.3102 405.7804,982.2579 404.0787,975.2409 398.1862,962.155 396.9806,960.7692 393.9755,959.7734 382.2626,976.0054 380.741,984.0398 389.7842,990.0111"/>
    <polygon points="367.4263,1003.6134 369.185,1008.3266 377.998,1012.9079 383.4009,1014.3711 386.0052,1014.4413 388.7354,1011.6733 392.5821,1000.5705 378.8349,983.7468 374.0334,984.0444 370.5804,985.6498 366.1139,995.752"/>
    <polygon points="335.8366,995.6243 341.1701,1010.5342 347.7613,1014.6257 362.1449,1013.3709 363.4764,1006.0981 364.8521,995.7676 365.0164,985.4435 355.6572,981.5989 347.0084,983.6439"/>
    <polygon points="334.4197,972.3738 336.2861,978.6158 338.1118,982.1666 344.848,981.3916 357.6258,973.9628 352.1025,952.693 342.2902,948.1589 340.9552,948.4871 337.5671,953.035 332.4715,962.3195"/>
    <polygon points="362.0125,957.6264 359.2448,960.8732 359.1895,970.9327 360.7749,979.9722 372.8819,979.9993 383.4098,968.5015 390.2311,958.702 386.7524,954.4948 378.5774,951.1374 370.4637,951.6442"/>
    <polygon points="367.276,950.1276 370.6062,949.6225 377.6226,943.3842 379.1358,938.898 378.9418,931.9142 377.6295,928.4765 376.2821,926.254 372.6365,923.9096 363.444,922.1663 345.0729,937.1818 342.7225,940.5789 355.8464,950.0894"/>
    <polygon points="382.8435,940.4737 382.7736,941.6852 391.4491,956.3235 399.5195,957.8675 415.6405,948.495 416.4593,941.3714 416.5755,931.0897 402.325,923.8044 392.7009,926.0997 386.8115,931.7209"/>
    <polygon points="401.4673,921.1537 406.8739,921.8963 410.1061,918.389 417.9131,900.9699 418.3273,893.0745 417.571,892.3301 396.0202,888.5139 393.2312,916.9016"/>
    <polygon points="419.9717,900.6143 412.8166,922.838 423.3087,933.9426 443.2982,917.6434 437.5095,898.7062 434.6602,894.6565 426.1524,896.5791"/>
    <polygon points="399.8759,884.26 413.8027,889.5729 421.6625,889.8755 425.5785,883.2433 428.2422,857.7503 426.4452,855.3745 410.793,862.9547 403.9853,868.1286 399.687,875.4174"/>
    <polygon points="380.9121,882.8954 388.8245,888.3493 393.8232,881.1903 397.0652,870.5624 396.0254,867.7091 390.4924,860.5454 373.4924,857.8424 366.7925,858.0931 366.3684,860.1369 367.964,867.2421"/>
    <polygon points="364.771,876.8141 364.2744,854.7194 351.1125,854.3173 345.085,854.6872 343.8495,856.7219 342.0659,860.8162 340.006,867.17 343.7126,881.5177 350.6707,890.8972 361.6212,881.3834"/>
    <polygon points="341.7661,878.1483 322.8996,861.1817 302.8239,854.0206 287.2727,850.1625 282.9007,849.8138 267.8451,894.0658 263.0589,914.41 260.9314,927.1385 305.8205,943.9381 313.7944,946.6736 329.8344,948.7312 343.788,937.1375 349.0163,931.7337 353.5122,925.6975 353.0573,909.6845"/>
    <polygon points="355.71,901.0394 355.5817,907.6739 358.991,915.6131 381.4167,921.8915 386.9736,920.442 389.8125,892.86 384.3381,888.0434 368.2472,885.5345 357.7462,893.6605"/>
    <polygon points="403.8332,865.5595 413.977,854.65 415.1716,852.9855 412.515,843.4896 404.9002,836.0927 396.9684,835.4398 386.5399,850.4833 395.4579,865.2555 399.6048,868.3605"/>
    <polygon points="430.8962,875.4347 430.1192,879.2042 439.7076,888.382 442.8318,890.3322 460.5205,887.1574 469.88,882.9911 468.0398,875.3689 462.4261,860.9732 460.9175,859.1067 444.4071,863.3174"/>
    <polygon points="451.4828,855.7149 441.5058,837.6788 430.2696,827.4125 413.2544,834.8179 414.8253,840.0077 419.7394,848.3667 432.2594,858.19 438.0904,861.6057 451.9207,858.1653"/>
    <polygon points="468.6494,869.1233 490.9136,876.3873 493.7441,874.3951 496.5121,870.2925 492.6386,856.2984 485.0027,854.3334 467.9091,857.4826 467.2391,863.8346"/>
    <polygon points="477.6174,854.1262 487.1806,850.2623 491.6831,848.101 486.7027,822.214 476.3694,824.292 468.4129,827.398 458.6101,841.8662 456.7468,847.4659 456.8378,858.2437"/>
    <polygon points="454.6,891.8127 442.5483,904.3386 444.6419,915.8529 451.5253,919.9543 456.1366,919.6886 469.7214,911.0066 470.2623,905.9177 468.1508,893.6969 466.1262,891.8282"/>
    <polygon points="515.8918,827.7127 522.3422,822.9263 512.1586,804.4155 496.7555,799.8171 493.3535,799.4536 483.2423,805.9114 492.153,837.3305 496.8777,835.6392"/>
    <polygon points="354.4329,801.4942 360.7219,806.5229 385.0908,812.6514 386.0228,804.0334 385.7599,800.6729 379.3999,792.7693 364.1403,782.4799 355.4176,790.2037 352.6702,793.1004"/>
    <polygon points="350.0406,770.3934 327.6181,781.5757 325.9432,785.8175 325.5731,798.9012 343.0005,802.723 352.6855,786.4794 352.4128,776.8201"/>
    <polygon points="335.8032,769.9913 338.6118,763.8148 331.253,757.4715 320.8971,749.2574 314.5489,747.7391 309.4043,753.7251 303.3719,774.5203 312.0779,780.1774 333.9823,772.8085"/>
    <polygon points="317.8694,784.2151 301.8316,780.8686 298.4868,796.6986 303.5159,808.5904 309.084,817.1454 319.4359,805.6031 322.6909,799.9022"/>
    <polygon points="304.9703,766.7358 308.4227,746.1746 307.4108,740.6877 297.0576,737.3928 281.3047,751.7265 285.3381,771.5839 290.4159,779.7292 296.3557,776.9235 301.5192,773.9078 302.5591,772.258"/>
    <polygon points="284.9042,723.7821 277.9744,718.4777 273.8133,718.714 269.9559,719.7463 255.062,735.6427 256.9081,743.1425 264.3622,751.8045 271.1861,755.7101 273.837,756.5245 285.6417,745.0005 289.1374,739.6981 291.5783,730.7061"/>
    <polygon points="198.1343,748.5685 185.7828,746.37 182.4891,752.9211 177.3228,767.022 179.511,771.0329 190.4498,785.9003 194.2767,787.0844 202.1698,788.0361 207.5024,780.5516 212.0242,770.7109 213.5683,761.7447 213.2774,753.8778"/>
    <polygon points="183.8785,779.3222 173.9421,763.8559 163.3563,767.2401 156.0634,773.2631 148.195,786.1757 159.1265,798.6842 163.3068,801.2227 184.1352,797.6193 189.673,793.4283"/>
    <polygon points="191.9612,797.9644 163.3945,806.873 163.7456,834.4616 166.2346,846.5245 188.6655,848.7202 196.6815,837.8126 200.8928,830.7416 195.3348,803.9288"/>
    <polygon points="160.6541,828.125 162.271,807.728 156.5945,799.8178 148.9921,797.0328 129.9135,797.7842 122.9449,804.8795 129.8236,833.9345 158.5243,833.0895"/>
    <polygon points="105.1378,730.679 126.3687,749.6358 138.2558,745.6715 141.1776,740.8422 137.3535,716.3616 126.7501,715.8609 116.3793,717.1083"/>
    <polygon points="87.0242,725.5738 94.9029,731.2325 100.6467,729.4735 104.0037,727.567 109.2894,707.9047 109.7838,704.8343 106.309,701.0146 98.1221,693.5033 94.2778,690.8104 88.5985,692.9004 86.2319,700.1884 84.1425,714.5132 83.9345,719.287"/>
    <polygon points="78.8609,722.6226 63.0086,723.8902 57.7814,726.5688 57.209,741.9505 58.3456,754.5133 77.5067,755.6457 88.7199,734.8981 88.19,733.3208 81.3203,723.4723"/>
    <polygon points="75.9948,692.4397 62.247,694.8297 57.8582,713.3046 57.1999,718.6223 76.1184,718.5494 82.5134,706.1526 85.0087,696.6021 81.885,693.1914"/>
    <polygon points="56.9181,684.6103 62.7791,691.3145 80.5987,690.775 95.5985,689.3337 122.35,684.1598 122.8865,681.0765 121.8305,641.2893 119.4161,628.9328 118.1128,628.3638 105.2446,626.5613 60.0741,625.367 59.1589,629.9594"/>
    <polygon points="95.0561,609.4505 77.1817,608.1447 68.8852,617.3931 68.4145,621.1159 94.7443,623.8358"/>
    <polygon points="101.2233,588.6468 102.5876,592.0049 104.8136,595.7721 107.2844,598.1682 108.8041,597.8607 111.5579,595.7495 121.4675,585.2496 116.4406,578.7017 107.2866,574.933 101.8707,585.0111"/>
    <polygon points="79.7255,591.1773 81.8521,597.3898 88.4037,601.3018 96.5487,603.8672 100.8468,600.2512 98.6138,587.9773 92.7699,580.9706 88.6137,579.7276 80.1984,582.3372"/>
    <polygon points="83.0865,574.618 96.4886,574.0079 101.4613,573.2137 105.2653,566.3636 104.7344,560.6515 90.3702,557.6195 80.3533,563.7409"/>
    <polygon points="80.0195,570.7973 71.8127,558.0506 62.5877,557.1176 58.2534,560.1409 57.8157,581.0348 71.6627,584.1914 77.5059,578.9667"/>
    <polygon points="61.5927,590.3891 56.8679,595.036 60.2752,611.1782 61.302,614.5769 63.136,616.6477 70.354,609.5303 78.8849,600.0513 75.7362,594.864 68.8366,587.343 66.3356,587.739"/>
    <polygon points="59.6134,546.8625 66.6591,551.8612 72.1756,554.2253 77.3227,539.7514 77.441,534.7668 70.8908,530.8719 58.8616,534.2337"/>
    <polygon points="57.1427,512.0941 56.7002,522.5245 69.9801,527.3811 77.182,508.9175 63.6935,505.4851"/>
    <polygon points="88.799,513.2389 85.5368,510.996 76.1254,519.431 75.3735,521.6542 88.4222,532.8987 90.4011,529.1181"/>
    <polygon points="101.8149,509.8159 111.3583,491.7999 108.4902,488.519 94.3645,487.5711 89.6983,489.0813 83.5604,501.0955 96.1865,510.3314"/>
    <polygon points="117.7017,519.7697 106.8076,519.8334 104.2729,521.1037 98.8961,525.1809 96.8104,529.1883 102.626,535.6798 110.437,541.2293 124.4173,528.4888"/>
    <polygon points="128.8785,521.2587 132.5322,515.4281 127.5099,503.4087 118.8782,491.192 107.3193,504.0032 105.4528,507.9798 107.6761,513.6485"/>
    <polygon points="132.6054,519.2349 122.732,533.7071 129.9139,540.6241 145.613,538.9101 146.8839,536.9802 149.0965,524.5289 146.8746,518.4879"/>
    <polygon points="139.3414,496.8252 135.2177,513.9571 150.3612,517.1908 152.0998,507.8626 150.3646,496.2182 144.279,494.5708"/>
    <polygon points="148.8632,486.6184 141.2047,474.8703 132.2955,466.6217 127.1597,472.1533 124.2561,478.7756 123.8284,480.467 127.7449,498.4941"/>
    <polygon points="154.4446,481.6762 171.2947,476.0529 160.3443,464.3364 155.2771,460.6447 150.2746,461.9207 149.1834,463.2762 147.3084,470.9394"/>
    <polygon points="179.0812,476.7592 184.8237,478.7994 191.1307,474.2755 192.9589,472.6011 196.8259,459.65 192.0229,456.882 186.5262,455.5009 183.4936,461.5392"/>
    <polygon points="184.8848,493.4081 184.435,483.5109 178.381,480.6779 172.3361,494.0402 175.5143,500.5265 180.7519,509.6961"/>
    <polygon points="170.6985,504.9526 170.8975,501.4564 168.174,485.2048 154.2992,490.6545 151.1353,495.4558 156.9296,505.4933"/>
    <polygon points="163.2314,521.578 167.1073,522.0694 173.58,520.5227 169.7329,508.5968 159.9204,513.0874"/>
    <polygon points="161.986,523.1822 158.0553,521.7161 151.457,526.4787 151.4848,531.0399 153.3839,538.0124 161.106,541.4404 168.6537,541.3325 173.1359,529.1534"/>
    <polygon points="146.4774,542.5984 148.0214,553.6048 152.5002,562.4336 160.969,568.0068 166.2891,554.0959 161.536,544.0871 154.0321,541.8221"/>
    <polygon points="128.0407,558.4007 127.8622,561.2056 130.9649,566.0796 145.2025,574.9702 153.1094,567.4112 139.2167,547.6435 135.8719,550.3565"/>
    <polygon points="127.383,569.2791 122.7917,568.4336 122.3216,579.1083 127.2539,590.0822 136.0499,583.1074 140.7023,576.9458"/>
    <polygon points="144.5523,579.4747 137.7218,585.762 132.1411,594.0709 138.9437,604.4747 142.4487,606.3979 146.7017,605.7824 152.1556,599.3058 156.5893,585.6756 154.7075,580.7099 148.7367,576.2396"/>
    <polygon points="127.4677,593.2618 120.3913,592.022 116.4208,604.3689 122.6095,608.8284 134.4916,607.2023 132.6074,602.1719"/>
    <polygon points="105.6391,557.6829 109.433,561.1919 114.8362,562.7962 119.1542,563.3015 128.14,553.9746 128.3581,547.8993 123.2445,542.1903 121.6979,542.4749 112.2474,546.8167"/>
    <polygon points="102.1903,548.569 103.8375,545.118 99.3235,536.8919 85.6908,536.3896 80.309,541.6815 79.2772,553.4487 81.6712,554.4683 94.2559,554.6595"/>
    <polygon points="83.2698,489.8548 82.774,487.3347 66.7086,486.4456 61.5081,491.3267 58.9208,498.2472 74.7651,504.7336 76.2329,505.008"/>
    <polygon points="72.1567,469.7076 66.0889,464.1273 58.2988,465.9837 57.0573,473.7932 57.5011,480.6561 66.832,483.9245 83.5544,482.5864"/>
    <polygon points="62.2835,460.7107 72.282,464.2435 75.5591,461.4001 77.5449,452.3253 76.0262,445.2624 67.8575,444.854 57.6644,450.6301 58.4467,455.0283"/>
    <polygon points="68.2516,440.9979 73.7333,433.0551 71.1348,430.9285 60.3113,428.6445 57.9433,431.8759 60.8062,442.4816"/>
    <polygon points="77.9407,427.932 78.8188,440.3122 87.2796,448.0949 98.8652,439.2615 100.2336,432.0848 93.725,429.4604 82.3554,427.4447"/>
    <polygon points="90.1127,421.4516 91.3139,425.6034 95.9053,426.5513 102.7974,427.1128 109.4907,422.1302 102.6203,410.2828 101.2514,410.0021 98.1275,411.4587 89.8379,418.6885"/>
    <polygon points="90.4066,413.9574 96.4824,409.3768 99.7224,396.0067 94.6014,394.3113 88.4172,395.929 83.0281,403.2925"/>
    <polygon points="82.5466,413.4846 76.1833,406.1494 60.6641,418.4805 64.4708,421.4538 71.4776,424.1674 77.7162,426.0124 83.7273,425.0865 84.8903,421.7748"/>
    <polygon points="77.2949,392.8687 81.3444,391.2172 80.902,380.9062 58.8421,373.5429 65.0378,388.1791"/>
    <polygon points="66.7409,393.7928 59.1566,394.7276 57.2299,397.9306 57.9367,413.9552 73.6559,406.0445 75.6081,397.8833 69.5134,394.0351"/>
    <polygon points="63.9838,365.2839 65.8855,368.3954 75.679,370.3631 85.4069,370.6646 87.6813,369.0084 89.5905,355.6402 87.5197,346.556 69.2924,346.9013 66.4943,349.3273 61.7936,355.1263 60.8016,358.2267"/>
    <polygon points="101.3042,343.849 94.2657,346.1823 92.264,370.7588 93.8707,372.7967 100.3389,372.3138 109.0491,366.9539 118.9001,358.6655 120.0995,352.1379 119.0097,344.0167 113.7965,342.0608"/>
    <polygon points="112.9892,331.4715 117.9288,320.0396 101.2727,313.9221 93.3671,318.9192 90.4525,333.0611 94.7052,341.0045 96.8332,342.3924 105.2065,337.1732"/>
    <polygon points="126.4297,353.1617 119.3349,362.6453 114.7611,374.0294 115.422,376.5 129.5596,380.2269 139.2932,380.8715 139.9307,380.2006 144.2069,361.261 137.3033,353.894"/>
    <polygon points="108.1617,380.4844 105.8056,398.2721 115.7012,399.6039 132.814,398.1892 137.0221,383.6581 110.1164,378.4203"/>
    <polygon points="103.0779,391.9181 104.7339,384.2497 99.4448,375.588 81.1972,372.9456 87.3353,390.4104"/>
    <polygon points="113.6355,401.6001 107.1325,402.9579 107.4037,406.2378 111.1957,419.2023 116.9712,424.5617 123.9923,427.5776 128.1916,416.7173 127.6077,410.0724 126.6679,408.351 120.4339,401.0626"/>
    <polygon points="123.5541,448.0554 121.3064,468.0159 125.6115,465.244 131.2869,453.8589 133.9121,443.8894 125.3965,444.0657"/>
    <polygon points="109.574,449.3704 116.8185,446.7235 123.7169,440.0839 125.3289,435.0483 123.5442,431.428 112.7322,429.9007 103.236,429.5072 101.4803,437.3888 103.8476,443.7259"/>
    <polygon points="113.357,461.704 110.5183,455.153 106.6532,451.324 105.7743,450.7692 100.358,449.5828 97.691,451.1784 95.8273,465.3227 97.2291,470.127 109.7236,465.8703"/>
    <polygon points="121.133,478.7996 122.4245,472.1288 112.3393,467.981 95.387,478.0241 96.0893,483.0489 101.9033,484.2549 117.1256,485.4353 120.2606,481.4234"/>
    <polygon points="152.2171,454.9094 150.3314,449.7734 142.7464,447.4105 135.7808,447.1033 132.56,455.926 132.1737,458.5406 141.7361,467.8361"/>
    <polygon points="160.3262,455.5566 163.6585,462.4195 173.0423,471.0282 174.7351,470.8133 179.921,453.923 171.8415,452.8888"/>
    <polygon points="140.1398,444.4712 142.8927,445.7711 150.4538,447.4459 174.18,450.8003 195.6437,453.3803 201.1684,443.4459 212.209,410.2377 216.4791,395.6071 166.1886,386.8593 159.2504,385.9028 138.7897,384.6091 138.3563,384.8059 134.2702,399.8265 127.9906,426.6065 132.4727,435.9419"/>
    <polygon points="85.4946,450.7851 81.6478,454.6833 77.2024,465.0842 84.406,473.9397 93.0591,471.0598 94.6215,467.0027 93.8653,460.8187 91.999,451.8826"/>
    <polygon points="175.2297,365.2494 157.9749,357.4783 151.9987,358.5448 146.6541,361.8445 145.7799,372.2211 153.9241,379.3331 162.3163,385.7495 167.9526,386.8081 170.2105,386.1982 174.9214,371.4335"/>
    <polygon points="188.7241,369.0269 195.1249,367.3177 199.6622,362.773 201.8461,349.7222 194.0298,334.9463 190.4542,334.6214 177.099,349.999 176.1576,361.0353 180.3015,369.8752"/>
    <polygon points="216.3954,367.0294 208.0305,362.3904 191.6485,372.6467 188.5194,382.2517 189.123,387.0249 194.8767,389.9922 212.5947,392.8874 217.0608,393.1444 223.0275,374.9345"/>
    <polygon points="203.9995,337.6314 201.3842,342.0925 207.555,357.7871 221.5932,366.1586 230.4662,356.758 233.8184,343.7134 216.7262,333.0896 212.7585,333.9119"/>
    <polygon points="188.2361,327.4445 198.2396,331.044 212.4334,323.7117 214.7594,312.2837 211.0183,298.5637 202.4953,291.8493 183.5508,307.4328 184.069,320.4278 184.8942,324.0895"/>
    <polygon points="179.7366,331.8267 177.387,326.6364 176.5294,325.4392 151.7128,326.5841 149.7724,342.2614 150.1635,349.8691 159.556,353.1711 170.2495,354.1558 177.7809,342.1188"/>
    <polygon points="155.1265,318.2674 172.5172,321.5439 179.5539,318.3758 182.3415,307.7129 168.6125,298.7021 164.1333,298.7957 158.3246,300.0368 152.7714,312.0341"/>
    <polygon points="147.7945,325.354 143.125,320.4872 136.3307,319.3079 121.0505,327.4492 117.554,339.514 122.1136,346.1664 124.7544,348.0076 135.5606,346.1428 138.7919,344.7743 140.9174,342.8761"/>
    <polygon points="162.6432,295.4458 165.1332,292.9943 165.5446,290.3856 163.4657,269.8715 157.2888,267.3574 144.7056,265.7118 139.8753,266.5908 132.5742,275.9051 133.1485,282.4667 135.7133,285.4006 146.9631,294.5097 152.4322,297.6778"/>
    <polygon points="168.1226,274.7261 172.1127,291.6 174.4687,293.4209 192.8053,292.0923 207.837,288.394 206.493,274.8417 183.0875,253.8775 176.6391,255.6447 170.1196,263.8879"/>
    <polygon points="167.955,252.9814 159.6971,233.551 150.6824,227.7862 142.5789,237.09 135.949,252.1813 136.1327,259.9762 142.8252,263.0496 164.5301,265.1934 167.5173,256.5681"/>
    <polygon points="190.1767,251.3104 195.2093,261.1878 204.5976,269.4469 211.9336,272.7906 220.138,240.2635 219.9614,235.3938 212.099,234.8458 198.6775,238.5893 189.4716,248.0709"/>
    <polygon points="196.6526,237.5496 194.5429,230.8687 188.0562,218.002 176.6497,216.828 161.8832,230.2796 170.1075,244.9031 174.0182,250.886 180.9185,249.5288 187.1357,247.2421"/>
    <polygon points="217.2447,252.446 212.7084,273.4333 219.4322,269.3893 227.8252,261.4358 236.6259,245.7608 233.1141,243.9259 221.0934,239.2775"/>
    <polygon points="238.271,240.6534 249.9914,237.072 256.5891,229.4128 254.4627,218.3293 251.6039,211.1047 229.6853,214.4031 224.2536,230.4 235.8055,240.5915"/>
    <polygon points="253.0696,239.0004 254.9239,246.3816 256.9293,252.7533 262.9885,258.0692 282.0149,254.4105 284.8483,251.9679 282.4937,233.1772 263.4066,234.7954"/>
    <polygon points="275.8927,229.5075 282.9748,224.0456 279.6868,203.7647 278.6212,202.7732 266.9,204.2696 263.404,205.7664 257.2604,212.779 256.4905,214.1227 259.6447,225.3306 265.1494,229.2042"/>
    <polygon points="283.2616,218.2806 284.9588,229.5389 310.0964,221.1177 306.4068,211.4694 293.4711,207.1004 284.0501,212.2169"/>
    <polygon points="307.056,197.4274 308.9411,199.0792 310.1905,199.0329 329.4514,194.1397 323.2641,178.4899 319.991,175.3144 313.9603,176.824 307.3792,179.9294 305.7132,194.0172"/>
    <polygon points="295.7343,183.3127 284.2888,182.2417 282.6438,190.9711 285.3098,202.144 286.2563,204.7028 297.2181,205.5896 304.6861,201.506 305.57,200.6949 300.2982,186.0318"/>
    <polygon points="277.4567,172.0287 282.1003,181.5453 297.8155,178.832 299.7726,168.6319 290.0566,155.833 279.7529,165.1338"/>
    <polygon points="259.9657,172.9672 274.4675,168.7783 274.6062,152.1502 271.7117,147.6967 261.7227,146.2757 254.8464,146.1728 241.9746,146.5862 239.9677,151.4819 238.2298,166.8704 243.311,170.5585"/>
    <polygon points="242.7798,141.9985 255.9357,142.4069 271.7339,138.582 269.2673,121.6579 262.0749,108.8892 250.2855,108.5344 245.5434,109.0888 244.0639,114.9936 239.4348,138.005 240.2753,140.754"/>
    <polygon points="239.3066,122.9826 237.1658,111.9893 228.83,108.6578 217.4366,108.0939 209.7222,112.5158 204.7224,123.0893 205.7464,130.4441 209.7297,134.5668 234.4079,136.7374"/>
    <polygon points="273.8547,125.1446 276.79,128.1494 282.246,129.3459 288.9869,127.0753 290.6299,124.8626 292.8536,113.7534 289.8742,111.4847 272.4006,111.5646 270.632,113.761"/>
    <polygon points="280.005,131.7182 274.6368,134.2953 273.6963,138.1623 274.6165,147.5934 279.1557,154.1185 289.6591,146.7291 291.5461,138.4832 290.8524,135.5432 288.9206,132.842 287.0768,131.6137"/>
    <polygon points="295.3007,126.6008 297.549,135.3289 301.5331,143.238 306.1414,144.3833 314.0795,137.1052 304.866,119.3599 302.5156,119.1955 295.5242,122.745"/>
    <polygon points="314.0617,127.6271 319.5057,133.1563 326.5241,134.4773 330.6977,129.3467 329.7182,122.3794 327.8614,115.678 316.9682,108.0319 305.1738,108.1335 302.6814,112.209"/>
    <polygon points="331.651,112.5484 331.6855,117.0982 332.6973,125.3636 335.9184,131.6733 350.6986,133.0956 355.4278,116.0863 354.0199,108.5854 341.4817,108.7233"/>
    <polygon points="352.1754,141.7561 337.1658,134.7259 323.6481,142.7759 323.3867,149.3199 325.6226,155.4486 332.6048,168.791 340.3012,169.6771 348.9341,168.304 352.2296,166.0945"/>
    <polygon points="382.3675,136.391 393.2346,154.2714 403.9883,153.6383 407.1447,140.0338 403.4958,135.8204 397.054,133.0261 391.9882,132.0555 387.6013,133.2939"/>
    <polygon points="381.618,130.7831 382.1908,127.5577 382.3561,114.3081 378.0747,111.5523 357.9637,109.8904 356.486,121.6363 356.6896,134.0227 367.8233,135.7344 374.9458,134.5535"/>
    <polygon points="400.4883,130.183 410.3125,125.0114 412.3242,122.1726 411.9741,116.4186 411.1207,110.6886 385.7431,107.8427 383.9157,121.1583 384.4201,126.0362"/>
    <polygon points="411.0417,131.7612 409.4738,141.2927 409.6039,148.1344 412.2735,151.4266 422.7464,153.1012 426.4392,152.0419 434.171,146.235 431.16,138.4503 421.5456,131.0841 413.3867,130.1089"/>
    <polygon points="415.1768,125.3601 420.3993,127.9763 431.0183,132.0372 441.3335,133.628 442.3223,127.5789 436.5295,110.4973 431.9127,108.0042 419.7576,108.4207 415.3883,110.1846"/>
    <polygon points="448.2989,148.4969 447.4241,151.011 445.3003,161.1652 448.9724,168.4968 458.3406,171.0344 478.5034,169.4242 468.8702,146.4144"/>
    <polygon points="462.2968,118.5792 457.4442,112.1337 453.4953,109.1486 449.3541,108.7073 447.1127,111.0078 444.3586,117.978 443.0101,129.4803 444.9476,138.8516 455.8797,141.9672 463.6215,142.3205 467.6757,139.7178 469.4946,135.8717 463.9935,121.945"/>
    <polygon points="490.4762,128.9807 490.312,117.4581 483.4635,109.9536 471.6756,111.7285 469.718,121.8105 478.5811,132.9004"/>
    <polygon points="498.357,125.5754 505.95,126.8171 512.2451,120.5638 512.461,109.6469 501.5833,108.2658 491.9427,112.1853"/>
    <polygon points="496.0691,135.6291 488.6469,132.6719 472.4037,138.2558 471.7116,147.0497 484.4688,171.4991 494.8903,162.3648 502.5623,145.9777"/>
    <polygon points="510.0984,131.2487 505.6174,140.8127 507.3143,145.7881 517.5471,150.8191 526.9956,150.9347 532.2115,138.0325 523.9766,129.8816 513.0303,128.9812"/>
    <polygon points="516.3395,127.1735 520.8955,128.2026 527.9892,125.0201 534.5308,117.3355 532.1911,109.7649 528.2552,108.4192 516.9109,108.6482 513.5375,114.5796 514.0265,125.4168"/>
    <polygon points="526.7202,157.4771 524.5426,155.336 506.8787,152.1893 496.6652,168.9135 500.1862,175.2278 518.8385,174.9351 526.9292,163.9283"/>
    <polygon points="532.325,175.383 534.2147,177.5011 548.2338,180.2742 550.1352,178.9385 553.1255,172.8078 550.9863,164.8103 541.0498,156.4264 536.7138,155.449 533.4146,155.1617 531.3226,171.4141"/>
    <polygon points="528.1991,181.4523 525.4105,183.1277 521.9289,206.0725 528.0464,208.0703 537.6486,208.6098 540.2829,208.3995 541.3754,205.2944 543.0969,189.4412 539.2506,185.2942 534.0934,181.6529"/>
    <polygon points="516.8107,177.9762 513.8103,177.4738 505.6569,184.4241 505.7787,200.4256 507.1484,208.3902 514.3658,214.4444 519.8025,209.432 520.5509,207.9889 523.8465,182.8482"/>
    <polygon points="553.7033,180.655 544.7417,191.8351 544.8971,205.7938 547.5441,210.2632 552.0275,209.6535 557.8947,206.3514 561.778,203.1689 563.1586,193.0301 563.1147,188.1172"/>
    <polygon points="566.4453,193.2524 567.2536,208.1264 582.3329,214.3056 585.1242,205.6455 583.2728,195.3594 574.136,187.4553"/>
    <polygon points="594.0214,182.2992 586.0026,173.0683 574.9371,184.2746 580.8831,187.5003 587.386,188.593 591.5342,187.0114"/>
    <polygon points="595.771,181.411 614.8304,177.0725 608.9368,163.0654 595.4112,154.1577 585.3941,151.24 579.2918,160.4128 582.0885,166.6981"/>
    <polygon points="616.1177,173.7132 622.6123,173.1406 645.6004,169.7125 644.788,161.9278 642.0715,146.4028 627.9688,141.7132 623.8296,141.2067 616.0125,156.2099"/>
    <polygon points="613.9021,196.2831 625.9567,186.862 626.1934,184.0218 622.9191,177.8671 620.9398,177.4366 601.2823,181.2642 602.227,187.3762"/>
    <polygon points="627.9297,193.5898 611.8501,200.9526 610.5456,207.2781 611.1824,219.0537 623.7794,222.5695 631.1606,220.4439 633.2489,218.3134 635.609,204.764 635.7886,201.0268"/>
    <polygon points="653.4885,198.4342 647.7671,201.8346 640.9522,207.4147 639.8431,213.4778 640.9187,216.47 641.5258,217.5925 652.3377,229.4079 660.3367,228.7632 662.1364,228.331 663.529,226.7737 666.8493,219.5292 670.2329,207.3154 663.0028,194.3016"/>
    <polygon points="654.2843,186.1678 653.0818,183.0609 641.6283,172.4847 632.7625,174.7871 634.4329,186.2371 637.2137,196.1199 642.2758,196.3307 648.7084,195.5306"/>
    <polygon points="678.1006,173.6944 669.8646,192.3294 676.0221,197.7825 692.4979,197.5982 702.9567,191.8165 704.5282,174.9826 699.0764,171.9454 683.3257,166.8048"/>
    <polygon points="677.2273,147.2754 676.2888,140.1154 673.2185,136.2967 667.8046,130.3787 659.7783,122.5463 657.2197,121.0821 654.5517,135.7623 654.8598,147.1288 656.111,150.6298 670.6494,148.5631"/>
    <polygon points="649.4711,159.4637 649.0042,168.6375 650.3069,173.4003 652.9451,176.4642 664.3914,186.4444 670.9918,178.4813 678.1072,167.4847 673.2292,153.8716 663.8806,154.121 653.8268,155.3469"/>
    <polygon points="627.7907,139.7795 633.0195,139.997 646.5865,136.3068 650.6909,132.846 652.3904,115.1752 651.5462,110.8345 636.3786,108.1117 626.6887,107.8665 617.9221,118.7579 619.4258,130.967 624.6933,138.6399"/>
    <polygon points="619.8237,142.3554 617.6467,136.1078 613.1454,131.3138 591.3967,136.4574 590.2916,138.3448 588.9706,146.9681 597.038,154.3987 605.4554,156.3691 609.1642,156.8409 617.1129,148.0188"/>
    <polygon points="591.5802,132.9991 601.7915,131.3603 616.2551,126.2096 614.5063,115.5751 606.8447,112.3504 594.5235,108.7836 589.5038,108.7474 580.4043,112.1416 580.961,114.8683 589.4738,131.7132"/>
    <polygon points="582.7323,132.6824 575.1171,119.9266 561.4651,134.0076 561.0406,135.5489 568.1808,148.749 586.5265,142.7919 586.4716,140.958"/>
    <polygon points="556.8493,146.2277 555.3597,138.5301 548.3708,133.6011 536.3512,127.1752 533.1758,137.8915 533.5351,148.9524 535.7258,149.761 556.2027,153.6735"/>
    <polygon points="558.2294,154.242 553.3348,159.3496 557.1578,179.304 570.8468,178.3701 578.5692,171.8047 580.2872,169.5947 572.7581,158.2198 568.8632,153.3374 563.5799,149.9199"/>
    <polygon points="549.8402,109.1487 540.3376,111.0781 537.3605,113.6481 541.8131,120.5041 549.8089,130.274 560.6105,129.9429 574.1863,116.1155 571.0053,110.4918 563.0237,108.3752"/>
    <polygon points="541.3788,213.3242 521.2995,212.7066 517.9081,231.1793 527.4176,231.6449 541.728,231.6231 547.4967,225.2629"/>
    <polygon points="537.0744,239.041 523.8716,235.1257 518.5802,234.6355 516.369,236.5393 512.3893,258.9298 514.8465,262.7407 525.8388,262.14 534.9169,258.1201 536.5459,255.7297"/>
    <polygon points="567.3507,233.1419 578.3263,218.4663 567.3728,209.5294 559.186,209.4358 554.6217,211.6948 549.359,215.1372 550.5879,222.5696 560.3287,234.0085"/>
    <polygon points="566.792,262.0032 570.1258,257.5013 574.1899,242.5427 562.5239,237.4865 544.5259,235.2565 541.4562,242.96 538.2379,260.3619 543.0075,266.3737 554.988,267.1387 565.0799,263.553"/>
    <polygon points="591.8822,262.992 583.1197,250.6607 581.3132,251.0257 569.5463,263.0706 569.0309,272.4215 571.9959,283.8209 582.0266,293.9585 589.064,293.9061 591.6026,274.6419"/>
    <polygon points="595.7029,266.1639 592.6107,284.0043 604.8641,283.0794 624.6277,273.0191 623.0536,262.6231 608.0932,261.273 602.4574,262.0851 600.2163,262.8958"/>
    <polygon points="622.9488,252.7964 632.0407,256.6741 652.5986,250.0396 654.3477,245.4343 653.6489,238.9329 645.9769,229.5165 639.1732,221.7973 615.6403,228.2609"/>
    <polygon points="613.5177,231.3041 610.0526,231.6538 597.7248,240.2693 595.8893,241.8421 588.3315,252.7078 592.1804,256.9859 598.2319,259.0342 614.6465,254.8162 620.7498,251.2936"/>
    <polygon points="601.0826,219.968 588.4879,220.3003 582.0974,220.7823 576.724,230.3698 574.0248,235.7923 586.4443,245.814 596.3806,238.3377 606.5005,222.9106 605.921,221.3115"/>
    <polygon points="595.3636,212.6145 600.6328,213.5727 609.4761,200.1742 595.4929,184.4767 588.6672,200.7193 588.7383,209.1371"/>
    <polygon points="625.4995,276.8302 611.0345,286.9995 613.6475,298.7626 616.3525,304.4426 620.106,305.2976 630.2443,290.7936 633.1248,283.8397 630.9642,279.434 628.0619,276.1569"/>
    <polygon points="643.0814,282.2778 648.9722,278.6922 658.0056,272.1662 661.5902,265.531 651.5221,257.5233 644.5752,257.3354 633.2306,257.9161 629.8567,275.5141 635.8982,281.2388"/>
    <polygon points="645.4692,292.9012 642.2763,291.0467 636.5125,291.5632 634.4869,292.1171 624.2063,303.7455 624.1979,309.7852 625.1541,312.2074 626.4866,313.8127 632.2752,315.2391 648.1051,308.9491 651.8613,302.7613"/>
    <polygon points="626.5047,318.8949 623.1675,315.7055 618.0327,313.71 604.643,319.1038 601.109,322.7685 601.7328,329.2273 621.2891,335.6259 624.2755,335.9921 629.257,323.7653"/>
    <polygon points="597.1692,324.3599 607.4595,313.1752 612.5844,306.4384 610.2296,301.4163 601.0094,288.533 593.9983,290.8598 590.0656,294.7465 586.2547,308.4024 589.1695,321.2068 590.1867,323.6969"/>
    <polygon points="577.2162,324.7503 578.3158,323.7824 579.8268,321.461 585.7498,307.625 584.5619,301.2337 572.475,297.5384 556.7244,300.7675 549.9824,307.7243 545.9739,312.6886 545.854,319.4546 555.2577,329.0055 564.7865,331.2212"/>
    <polygon points="592.1686,353.2904 597.3801,337.9426 596.5531,332.5792 582.6987,324.0398 560.2565,343.4056 559.7952,347.9956 565.5146,355.9858 571.6782,358.6219 587.9765,355.0462"/>
    <polygon points="614.6136,364.0675 622.6082,362.3384 624.5899,360.4184 630.8862,343.0272 627.16,338.3049 607.1329,331.8084 599.9078,332.0299 603.681,362.8245"/>
    <polygon points="599.3557,385.3056 620.2138,402.4771 625.4157,394.9088 628.8542,373.157 624.9968,369.5673 606.9949,365.4526 603.596,368.5946"/>
    <polygon points="578.1451,404.6691 583.1011,414.9938 609.3182,409.6025 613.9682,406.3276 609.3886,396.8503 602.2506,389.9934 592.382,389.9675 586.5677,390.1868"/>
    <polygon points="569.9853,376.729 573.5518,383.9763 576.321,386.8808 585.812,384.869 594.5489,382.3943 600.9697,369.0567 596.1591,361.5223 588.0771,360.6708 565.9251,361.0365 565.3567,362.5648"/>
    <polygon points="631.5391,387.4035 623.5509,404.9603 652.448,405.4696 654.7893,402.7987 657.0229,388.8121 654.1909,377.7171 640.9982,380.2871"/>
    <polygon points="667.6503,401.3964 684.8775,374.1811 683.6427,372.0448 677.5224,364.204 670.8984,363.1228 657.1836,364.8143 656.3815,367.3904 663.7811,396.8443"/>
    <polygon points="672.4518,403.1019 670.8002,404.4539 666.2714,414.4566 664.9502,424.6252 679.4863,430.0094 684.8483,430.5868 690.0496,427.7875 693.2111,424.5977 697.1871,408.901 696.3106,405.1561 688.7187,403.0804"/>
    <polygon points="662.7771,426.7066 662.8359,414.7941 658.5303,407.4755 646.9958,408.7793 636.8652,412.5463 630.7267,417.2366 641.9435,426.235 652.7626,431.5612"/>
    <polygon points="662.6803,448.4508 659.6739,434.4215 644.8577,437.784 638.9369,454.1085 655.2568,455.2923 662.0428,452.2719"/>
    <polygon points="677.3076,460.2319 684.1889,448.7618 686.0627,438.8333 680.2994,432.868 672.3298,430.5167 664.6069,433.4175 664.1556,462.0136"/>
    <polygon points="690.5702,470.2084 703.8111,463.9219 702.1646,454.2692 689.4252,449.3935 685.5612,459.5018"/>
    <polygon points="689.9955,471.2729 683.0801,466.3062 670.1422,469.0531 666.0616,471.4339 678.2467,483.8581 687.0228,490.8822 689.2829,489.3132 693.4288,485.5364 693.7049,484.2399"/>
    <polygon points="708.3588,453.2301 710.7692,453.3205 713.8092,440.4725 712.3472,434.0626 709.2123,430.0438 696.7358,429.9305 692.8413,432.2217 689.5193,440.8809 691.0227,444.8477 693.4822,447.7958 701.6942,451.1904"/>
    <polygon points="733.6509,457.7024 734.6689,454.6528 735.4806,429.0389 716.3624,435.676 712.0119,453.1702 711.5033,457.2567 721.56,458.864"/>
    <polygon points="720.1448,479.3421 726.326,482.3878 735.7871,475.69 736.1997,470.0489 723.2081,460.9878 719.9503,470.7933"/>
    <polygon points="714.8986,481.2225 718.4038,476.2291 716.8311,467.0157 711.5922,458.7766 694.7627,473.6169 696.5532,485.7984 703.9326,486.2974 704.7897,486.0301"/>
    <polygon points="710.5684,502.8374 712.0661,492.0717 710.9779,490.1845 698.5801,490.9512 691.9853,492.5718 690.3808,494.8171 685.906,505.723 705.3158,510.6004"/>
    <polygon points="736.5494,506.7929 735.8268,491.583 734.5553,489.675 727.4503,489.4094 714.8936,492.9787 713.4718,506.856 716.8662,512.115 735.5976,523.2514"/>
    <polygon points="726.0164,403.087 717.3548,397.1234 711.0856,399.1926 705.6497,401.7929 699.3459,410.791 705.4415,425.9895 715.0225,429.3715 723.345,428.6905 734.7013,425.4543 736.653,421.7108 733.0559,411.0191"/>
    <polygon points="713.8376,393.4528 735.448,394.0939 736.4121,388.2304 735.7461,376.7685 733.4592,368.827 731.5088,365.2988 724.5096,362.516 714.8651,363.453 710.7347,367.8766"/>
    <polygon points="699.8479,398.2111 708.2562,391.0904 702.8061,372.1541 686.9225,372.285 682.8953,384.2984 683.3529,401.2492"/>
    <polygon points="708.8114,349.7132 702.8698,336.7501 689.515,337.0225 682.9287,354.9341 688.813,365.3874 700.6221,368.9561 708.2938,368.336 710.8423,362.5701 711.5529,358.4857"/>
    <polygon points="713.8311,329.5693 736.8104,326.7666 735.6478,304.0401 726.6368,302.1323 714.9869,301.8747 712.8318,302.7774 709.7998,328.9882"/>
    <polygon points="736.9479,346.0599 736.9931,335.4532 733.5029,333.636 705.8777,334.8311 715.1186,358.0933 734.109,359.2457"/>
    <polygon points="713.4341,296.2479 727.4936,298.7761 733.0337,296.8311 735.8835,286.8813 732.7248,270.0594 727.8567,266.2479 714.2046,267.3146 709.8472,278.7891 709.1022,281.9465"/>
    <polygon points="683.0225,295.1747 667.5683,275.9704 665.9262,275.1948 655.6041,279.3876 647.0449,285.7786 659.7541,296.2997 671.9495,298.5987"/>
    <polygon points="682.0072,309.0794 676.967,317.1746 693.0076,333.8588 704.2629,332.3975 708.5729,321.6031 708.7579,300.2182 697.2517,300.1367"/>
    <polygon points="658.3692,327.5401 661.3464,329.7784 679.7654,307.9284 676.262,304.7527 673.0917,303.0129 665.7211,300.9786 656.4416,305.4446 651.5122,310.2817 651.9652,314.7667"/>
    <polygon points="656.8315,332.3183 653.7982,323.1936 653.0304,322.3567 639.5767,318.0206 631.8625,319.1787 628.4904,335.9413 628.4893,337.6513 635.4509,340.1742 637.8467,340.6837 644.0546,340.5071 655.3425,338.4974"/>
    <polygon points="648.0497,346.7225 641.86,342.6493 636.5079,341.5209 631.0783,349.5232 625.0784,362.4728 634.8115,376.9005 641.712,375.9999 655.2316,368.0796 649.8832,351.5755"/>
    <polygon points="656.2357,354.3455 660.1115,357.7117 680.3043,353.4025 683.3413,347.9434 688.0551,333.9132 668.2233,323.8082 661.7234,332.5536 653.9924,348.0797"/>
    <polygon points="616.9572,429.4106 621.6501,416.9221 623.1418,410.5116 587.2681,414.9418 583.4245,418.6197 586.7521,425.0901 594.8139,433.0145 603.2378,434.0596 609.3923,433.2284"/>
    <polygon points="617.6961,456.2005 618.7597,451.49 619.0523,448.6957 617.7688,445.5388 605.2243,438.546 594.286,438.6685 591.9545,441.9569 592.1329,447.9858 596.8921,459.3507 601.7677,465.3228 604.453,465.3011"/>
    <polygon points="635.9595,461.5626 636.4976,471.7248 637.9522,479.2737 640.0799,479.6527 662.9086,475.2332 663.4804,465.3222 663.0103,464.5539 653.6281,461.0157 643.7228,457.9545 640.5378,459.1409"/>
    <polygon points="642.2454,439.8117 641.4937,433.2576 636.1002,427.7456 632.1646,425.3471 619.3527,432.5831 616.2801,435.6814 624.5858,454.6358 638.4969,450.2424 641.6468,442.7918"/>
    <polygon points="607.3586,489.0063 620.5082,486.9017 631.0565,482.6856 634.4963,473.2501 633.7902,464.8793 630.6871,460.6307 622.7335,457.9698 601.352,469.8502"/>
    <polygon points="502.4763,322.1512 519.6906,325.1143 529.7334,324.9818 541.556,320.9315 543.6605,313.7716 531.1887,297.418 518.7602,296.211 507.8688,297.9837 504.2241,306.2576"/>
    <polygon points="498.2827,321.934 498.5056,311.1898 494.4692,305.2732 487.7218,303.0506 481.7525,304.6105 470.2542,315.6568 470.7409,325.4355 497.1126,325.1813"/>
    <polygon points="482.3753,298.4619 480.6681,282.5324 466.9848,274.9377 455.928,284.5062 457.7865,298.5023 459.4413,301.8516 472.9471,304.7665 480.0532,302.3096"/>
    <polygon points="493.526,274.4392 488.5823,275.4119 482.9329,287.7187 484.7875,295.7437 488.4103,299.1888 491.2088,301.1071 496.5825,303.5457 502.2249,304.2538 505.4282,290.6584 504.9722,279.7043 502.9949,276.6727"/>
    <polygon points="508.091,282.647 506.2809,294.1417 522.1658,295.583 536.8697,294.7555 538.162,272.6151 535.7845,270.2416 522.629,264.8149 510.0812,274.8622"/>
    <polygon points="540.2828,273.3649 541.7461,279.0139 544.985,288.1844 557.3008,297.6362 569.139,293.6491 566.1182,267.9185 541.6346,270.5445"/>
    <polygon points="490.3224,232.4686 485.7099,236.506 496.1915,249.2892 502.0313,253.8961 508.7901,252.3926 509.9693,249.6824 514.1495,227.2909 512.7056,221.9138 509.5734,220.993"/>
    <polygon points="477.1395,221.9628 478.1508,222.805 486.4521,225.8401 491.1354,227.1554 504.1299,222.2762 507.1556,213.1069 493.519,201.3306 486.0603,203.8816 479.4502,207.8625"/>
    <polygon points="450.448,232.1369 450.43,241.7059 463.1576,245.8036 482.3636,245.3837 482.9604,240.0015 482.5193,238.1497 478.4294,227.4056 468.8099,222.9516"/>
    <polygon points="433.09,252.7675 434.1737,249.9337 434.2859,246.0715 430.7064,242.3628 412.4048,236.2069 408.2315,242.9466 406.4291,253.3408 411.7793,260.0893 418.6625,261.1539 422.7987,260.2379 427.6364,257.1499"/>
    <polygon points="446.2118,263.5637 462.519,272.6182 467.335,268.8477 470.2891,251.9991 466.4006,247.0206 444.7309,245.6488 441.2994,248.2644 437.4747,253.8294"/>
    <polygon points="453.8997,275.1788 454.2443,271.5639 438.6368,261.2362 431.634,261.5379 429.9535,263.7046 429.137,265.5849 424.9779,280.7398 449.8781,285.8421"/>
    <polygon points="472.9269,251.4807 468.9778,267.2937 470.6594,271.252 481.8076,276.7615 506.104,263.5271 510.5687,260.3553 509.4989,256.3333 482.5031,251.1501"/>
    <polygon points="443.5058,202.2259 442.1951,211.5864 447.1755,229.541 455.3371,226.5639 460.4932,223.7392 472.3988,213.3362 464.9771,199.4542 454.5069,200.2696"/>
    <polygon points="442.4649,197.499 456.1893,197.5194 466.9872,195.5212 465.404,177.2508 451.0241,171.1781 439.8471,178.2863 440.6483,194.1957"/>
    <polygon points="433.5015,180.0748 441.9948,163.375 444.0262,153.2539 426.3818,157.9562 421.4628,168.0882"/>
    <polygon points="416.0585,169.2005 411.3055,163.5321 404.4011,160.7849 397.1757,169.432 392.5853,176.4215 392.0328,178.2031 392.8516,181.6407 420.8068,178.6122"/>
    <polygon points="383.0961,150.8281 378.4037,139.7569 377.0736,137.5552 361.8871,139.5345 355.005,142.5046 353.4627,162.9735 371.7592,158.6902 383.5509,155.5197"/>
    <polygon points="378.4805,184.1718 386.1994,178.7759 388.394,171.4517 387.7514,165.4732 383.8405,160.3349 379.9938,161.1409 366.9054,164.8034 353.4956,169.4992 368.7705,184.2732"/>
    <polygon points="368.7984,186.1108 368.7747,195.1498 374.7199,205.8033 378.1103,209.9462 389.0194,208.4885 402.0886,194.551 401.4209,188.6408 382.149,184.3647"/>
    <polygon points="364.7273,190.2425 351.3822,189.6559 348.5417,190.5333 336.3051,198.6264 336.4943,204.335 339.2581,206.5464 340.3542,206.961 346.5367,208.8465 350.6482,208.8577 363.3083,201.3587"/>
    <polygon points="360.4685,181.8093 352.9793,169.8564 340.8654,171.1508 330.0474,174.6332 327.6887,175.6589 332.6623,185.9807 334.9336,189.2234 340.3549,189.2842 353.5151,185.2636"/>
    <polygon points="335.2518,210.1045 333.3066,200.0217 329.3941,198.3084 313.0058,201.9807 311.0762,203.1824 314.0181,221.3372 327.4009,225.521 332.1888,221.0349 334.9964,213.9224"/>
    <polygon points="346.033,233.5131 330.8262,229.6047 327.52,238.6949 325.7789,245.2524 336.6458,248.6782 358.596,249.3027 359.8796,246.3369 356.0751,238.6504 351.8377,235.9571"/>
    <polygon points="355.6037,230.51 361.4293,225.8062 362.985,216.3343 359.4684,215.1426 342.1553,214.9989 339.5008,217.4087 334.9503,225.9887 348.6931,231.7368"/>
    <polygon points="362.8763,244.5718 379.5437,237.8551 385.9866,223.9518 381.7641,213.5642 378.6248,212.3549 373.1974,212.6364 363.6056,221.4085"/>
    <polygon points="378.0006,245.0758 379.8509,253.3161 394.7579,256.9075 401.4509,254.3068 405.5577,244.361 405.5587,238.1046 393.8071,230.4134 384.2483,235.3608 380.7781,238.992"/>
    <polygon points="380.522,274.7601 380.5456,278.0944 386.3719,288.015 395.5574,290.6661 401.1239,279.2261 399.9531,263.2368 394.7489,258.5079 385.8458,264.6785"/>
    <polygon points="377.2459,275.4212 380.779,263.167 382.352,255.6221 377.1299,255.2045 359.8175,257.3872 356.9991,269.9496 360.0401,275.829 369.6244,277.0842 374.6045,277.1642"/>
    <polygon points="372.5036,279.1272 357.5244,280.6627 356.3227,282.4672 359.3124,297.9018 362.7356,299.9757 376.3259,303.2603 388.0768,295.674 382.8837,288.6547 374.751,279.2128"/>
    <polygon points="354.2771,282.8383 345.6702,283.2755 324.0467,292.2182 322.5719,294.637 349.3898,309.899 353.1805,291.9543"/>
    <polygon points="329.1666,301.2586 322.6136,299.0871 320.3523,306.3972 318.8416,314.8131 320.8473,324.544 349.0268,325.0055 347.1015,318.6337 342.0847,307.2956"/>
    <polygon points="318.2043,277.9181 328.7376,277.7629 334.8199,276.483 332.5381,259.8227 324.7005,249.8114 317.6981,249.9661 311.8032,268.33"/>
    <polygon points="296.952,295.8954 304.1866,296.2546 313.2308,290.4112 318.3072,284.1592 314.0961,279.2149 309.4566,275.547 290.6143,282.8017 293.4175,294.1066"/>
    <polygon points="297.6827,299.3155 294.0658,309.9136 294.6118,316.3732 296.5327,325.1578 303.0394,324.9078 313.2338,320.6733 318.3233,298.0237"/>
    <polygon points="290.2872,322.8734 291.9025,309.8227 290.9656,298.5818 287.1277,294.3306 279.8804,294.6759 268.6152,298.2305 274.2481,325.1297 287.2241,325.401"/>
    <polygon points="242.3281,301.5182 248.0038,290.8477 248.5168,289.403 248.0221,287.7459 237.9904,276.8005 230.3576,273.3691 226.0051,273.4863 210.8721,283.6957 209.537,289.7724 210.9928,291.8046 236.2271,307.5788"/>
    <polygon points="238.4053,310.583 245.4126,319.8431 250.9611,323.6981 266.9155,322.9487 268.2678,315.6715 266.0298,308.0071 260.9533,300.1346 254.6915,300.305 252.8031,300.6304"/>
    <polygon points="214.3675,321.8979 218.9618,330.4825 231.2644,340.2808 235.8457,339.9836 246.4318,322.6342 243.3347,319.2137 228.6959,307.898 226.804,307.621 218.5781,315.0721"/>
    <polygon points="234.2141,270.9364 244.8817,279.4239 253.4792,278.5236 255.9863,274.0044 259.4124,264.3531 252.8682,250.2871 246.4938,247.0276 235.609,261.5847"/>
    <polygon points="274.4612,261.9305 264.8226,266.4489 263.4997,268.9217 261.1043,285.9185 266.1631,290.8505 272.487,290.2629 287.7747,285.7064 287.19,265.0852 276.3714,261.4266"/>
    <polygon points="288.3708,252.5204 289.9663,270.7475 293.7425,272.0431 305.7602,270.5768 310.5286,269.4532 311.0295,265.2427 311.7198,248.7173 290.6116,250.6663"/>
    <polygon points="320.1677,243.7502 324.3065,238.5119 318.0095,228.4048 307.5946,227.9959 296.1483,232.143 292.8863,242.9961 293.0049,245.8774 300.0894,245.917"/>
    <polygon points="340.5693,249.9954 332.7706,251.4936 334.8483,268.2231 351.4786,276.0327 354.4069,271.1647 351.7059,253.0768 349.8053,252.0688"/>
    <polygon points="387.5398,215.4197 397.5305,227.3812 402.9922,230.0839 409.4035,231.6173 416.6447,211.0843 408.1845,202.8497 403.2393,201.0964 401.1538,201.5104 392.4704,207.6731"/>
    <polygon points="412.1355,231.8143 412.3889,232.4885 419.1396,236.6333 431.9451,240.8111 439.357,241.187 443.0234,238.1367 440.9479,221.8683 428.1966,215.8478 419.1305,217.1385 415.8223,223.1785"/>
    <polygon points="417.6206,210.1964 435.9055,205.3438 438.2194,189.7752 437.4613,187.0932 430.3133,181.8339 413.6246,184.2356 404.9745,186.159 403.8122,188.5425 409.3895,200.2035"/>
    <polygon points="469.3288,178.6153 469.1768,185.8352 470.354,202.3932 479.6058,203.9638 496.8099,196.2202 499.3364,176.7834 471.5765,173.538"/>
    <polygon points="420.811,286.6329 422.6036,280.7077 421.9367,267.3814 414.7931,262.1468 403.031,280.0847 410.2995,292.0108"/>
    <polygon points="401.3696,304.9102 402.3019,319.7648 410.2503,321.5971 417.4772,322.6563 429.0675,322.1858 426.0964,298.667 417.9739,296.0537 412.2837,294.9154"/>
    <polygon points="389.1237,325.1854 396.5756,320.4089 398.6382,302.2219 388.1188,299.8636 382.781,303.7741 377.6023,310.539 375.9335,314.4404 376.9665,324.5389"/>
    <polygon points="357.598,319.2035 372.2298,322.2926 372.8825,315.3119 372.5266,308.9466 371.0051,307.3779 359.6849,300.1759 354.5341,302.1608 352.2876,311.7848 351.4351,316.8852"/>
    <polygon points="434.9331,313.2904 449.7972,301.8525 449.8275,299.5308 441.2929,292.3919 434.4055,289.5969 432.2302,289.1285 430.7537,289.2184 429.9076,299.9227 430.1282,313.2055"/>
    <polygon points="462.4655,324.2242 465.2465,320.8027 465.3386,313.084 458.0819,306.2533 448.27,310.161 432.3631,324.8906"/>
    <polygon points="317.5977,170.7141 324.1913,158.7425 320.7171,151.7266 313.1934,144.6421 303.27,146.7328 300.3384,150.7705 298.1871,161.934 309.9242,174.2411 310.7296,174.709"/>
    <polygon points="238.72,203.7571 240.9539,206.5772 272.1523,200.213 277.5166,198.8049 278.8464,196.5566 274.0863,174.3357 271.9353,173.7017 245.8566,175.4607 239.4896,188.9748"/>
    <polygon points="234.98,204.4705 236.8592,193.0611 236.6188,173.6394 233.2528,173.0519 204.8543,172.4336 197.1831,191.901 200.0778,196.1583 205.8316,199.3836 214.5898,203.555 226.7587,207.8259"/>
    <polygon points="186.6294,208.6713 195.6431,225.2601 207.6187,231.6966 217.077,228.9285 221.3634,222.3446 217.5194,209.1276 216.5728,208.4245 195.0809,197.7438 185.4973,198.2559 185.3343,200.9031"/>
    <polygon points="177.469,212.5767 180.3646,206.4942 184.6358,197.2392 179.7274,190.4951 167.5951,183.5802 155.5364,190.4089 141.912,201.3448 140.6861,216.506 141.4011,220.5754 148.2826,224.7832 163.4839,224.0366"/>
    <polygon points="138.0164,201.7476 111.5542,195.3606 108.7424,196.5732 107.6175,201.8717 107.8243,208.6441 113.7697,219.6412 123.9117,230.6576 126.1281,231.0388 136.6891,229.8043"/>
    <polygon points="103.7593,218.5126 99.9215,214.1964 92.7673,218.6856 90.422,220.7611 88.9488,247.7132 104.649,244.3093 108.0336,243.2284 114.7147,239.8769 114.7682,232.7297"/>
    <polygon points="88.4888,220.6484 85.1115,217.1685 57.824,210.6825 57.444,229.4803 58.3215,234.2177 62.8691,240.9236 71.4002,243.1613 83.4427,241.5378 86.2879,236.9967"/>
    <polygon points="106.1879,250.935 106.9532,257.3833 113.7852,271.9245 120.2201,275.4714 131.5085,273.2366 131.8455,265.6262 131.916,240.2658 129.4699,238.2469 122.5604,239.8639 112.8493,244.5405 107.1398,248.063"/>
    <polygon points="105.6856,282.4272 109.6039,280.7746 105.0803,258.001 97.2341,252.1942 84.7171,256.5423 83.1887,265.2439 83.8439,284.5573 102.4704,283.3311"/>
    <polygon points="133.4305,284.6282 126.6949,285.7884 119.1292,291.1888 116.5654,297.7502 115.4223,301.5708 116.0113,308.7335 119.3116,316.3791 133.9571,315.9804 149.8486,314.3948 143.1282,298.2929"/>
    <polygon points="84.589,311.977 89.005,312.9444 109.0737,310.0568 110.6191,305.1301 110.2997,291.9285 109.0056,286.0598 79.8331,285.6052 81.2192,297.7379"/>
    <polygon points="82.7038,313.9609 76.302,297.6111 71.3082,295.2121 58.2604,293.7808 57.1764,298.6242 58.9443,315.2943 63.5089,319.3604 75.7693,317.3972"/>
    <polygon points="84.1168,324.5881 82.7438,322.3142 79.2577,318.2377 62.915,321.8 59.7887,335.3828 63.2703,341.9221 70.5616,342.1171 86.5378,341.0461 86.4219,333.0438 86.0653,330.8631"/>
    <polygon points="59.3646,281.0831 72.228,284.3525 77.0009,280.3573 79.1204,258.303 73.098,245.3681 65.3929,245.2801 58.8045,250.5384 57.8774,260.3291 58.8226,276.1811"/>
    <polygon points="57.0668,188.6236 57.7264,195.2507 59.8952,204.0785 60.9561,205.4618 62.9014,206.2546 85.5046,211.3235 97.0709,210.7735 100.2702,206.8275 98.1262,193.8006 62.6285,188.7447"/>
    <polygon points="81.6669,173.0395 79.5838,186.8505 101.3853,192.8154 107.2294,193.2979 108.6775,179.2735 109.0182,163.3667 91.9816,167.5825"/>
    <polygon points="75.7533,157.1913 72.8011,153.6973 69.7592,151.0191 58.3811,155.4043 57.0394,180.3102 60.2146,184.2353 69.9383,183.2807 78.4766,180.1248 80.44,166.3772"/>
    <polygon points="57.3234,143.0505 64.6268,145.3075 72.6884,142.3641 79.9545,133.8882 85.3046,126.9193 83.2936,114.5015 66.4214,109.6319 60.3931,108.3034 57.3387,108.1041 56.7528,124.3765"/>
    <polygon points="104.7662,138.4342 109.5927,135.4903 114.4509,120.56 115.581,113.0398 107.2749,110.4396 97.0281,108.1554 92.6186,107.7992 88.2023,110.7621 87.2807,121.7538 88.0442,125.4835 97.5452,135.4322"/>
    <polygon points="106.4106,147.8544 92.8125,135.174 85.0182,133.738 69.6377,148.9001 77.7032,157.8643 80.6761,160.5341 86.6618,163.0488 99.7182,161.5369 110.7152,154.0106"/>
    <polygon points="113.9344,135.1831 113.5114,137.4339 113.7626,148.772 123.0096,151.0088 137.2276,148.1088 136.2667,108.2875 124.9515,108.9084 117.0034,124.5993"/>
    <polygon points="113.671,163.648 110.7525,181.1466 113.0384,187.2696 122.4337,196.2187 144.2927,197.8465 141.0899,183.4325 129.9772,158.6048 118.3386,159.3763"/>
    <polygon points="136.3608,157.2582 139.1833,170.0435 145.2901,187.1666 148.4628,187.4325 158.9421,186.7183 165.8994,176.0118 166.1554,169.4602 155.3214,153.2336 146.7735,151.4576 138.8968,153.5417"/>
    <polygon points="166.6769,120.4378 159.5697,111.5646 144.1591,112.5267 140.2767,126.4199 141.0555,137.5809 142.9373,144.4344 149.5013,148.8166 166.9076,149.2578"/>
    <polygon points="171.1875,112.165 169.4183,117.6255 168.5314,126.8526 168.7414,139.464 169.6153,144.295 194.0713,148.4386 196.3784,145.7706 204.596,133.8834 198.8633,116.9084 192.0972,109.7694 178.3877,108.5205"/>
    <polygon points="186.9587,150.6243 179.2039,150.5726 167.9883,151.1366 167.4005,175.6814 172.7164,184.6584 182.5805,187.271 188.232,188.0281 198.8557,179.398 201.2656,166.0998 193.5289,151.3999"/>
    <polygon points="206.4692,137.5571 204.6447,138.2305 200.5666,152.6466 202.2751,157.7841 206.3878,164.278 211.162,170.359 234.746,170.9306 237.5595,159.7496 236.5036,147.839 235.0098,139.9435 233.0549,138.9582"/>
    <polygon points="660.6959,118.044 681.0735,136.23 697.527,122.7159 698.8313,112.0683 697.072,107.7244 657.1076,107.7293"/>
    <polygon points="710.3324,130.1002 727.7517,136.0701 732.5472,135.218 734.5684,133.5578 736.0085,120.9247 731.6278,108.5668 720.1795,108.0759 703.792,116.3141 704.8493,126.4076"/>
    <polygon points="713.8555,135.9133 709.5597,141.3482 708.8759,147.9848 712.4816,160.752 722.3593,159.8637 735.6917,157.2891 736.2585,140.3011"/>
    <polygon points="707.1506,162.2207 706.5284,140.1451 702.0754,137.6146 690.9244,135.8651 683.2072,140.7618 680.1361,148.9761 680.4147,159.9766 701.0787,165.1233"/>
    <polygon points="707.5376,187.109 718.214,195.8398 719.2299,195.9776 734.2413,194.8585 735.7664,184.7481 736.749,171.3946 732.8221,163.1846 712.8489,165.6525 707.9115,172.1612"/>
    <polygon points="709.3923,216.8381 716.8472,222.1379 727.4529,227.2364 736.1891,228.0376 736.3272,220.3174 733.6816,202.0257 730.5662,200.0397 713.2435,197.6521 705.1603,198.8812 704.1311,199.359"/>
    <polygon points="714.9044,242.1992 707.7135,261.6627 712.5891,263.0812 733.9881,265.9336 735.7958,264.1528 736.3048,259.3198 736.512,233.6587 722.4205,231.6142"/>
    <polygon points="705.4035,263.3593 703.298,262.282 688.2371,262.2248 672.2356,274.4721 682.1446,291.0282 685.0812,293.5998 700.2393,298.8772 703.3959,296.5691 707.6014,281.959 707.9015,276.0946"/>
    <polygon points="686.9896,238.5716 696.376,257.9862 710.4355,249.0411 715.1824,228.1194 707.7659,223.7187 703.8271,224.4094 688.1351,234.0522"/>
    <polygon points="674.4219,266.7433 679.6087,264.5578 689.4041,259.0642 685.0087,240.0425 679.8579,231.6991 672.474,229.9 666.8915,231.0254 661.7866,241.5135 657.2062,258.34 667.8446,268.7637"/>
    <polygon points="671.2131,210.3415 667.1027,222.0589 668.1779,226.023 685.0617,229.929 700.3775,221.4291 704.263,218.6574 704.3072,209.3824 699.6717,202.7455 691.9075,200.81 678.3249,201.482 672.3779,208.2763"/>
    <polygon points="731.2069,720.1746 736.251,719.0414 736.9309,716.9883 736.7203,649.5431 735.2011,644.5385 727.4934,635.9908 677.4584,644.7765 667.5322,646.8962 663.3854,687.1409 665.1224,698.4265 668.6985,705.8646 673.232,708.655 694.3046,713.9902 711.7184,717.3675"/>
    <polygon points="736.9418,941.159 736.0689,923.2148 733.963,917.2968 731.1497,914.9244 697.7662,915.0114 684.1528,915.5235 635.6911,918.3818 630.6627,964.4368 629.6883,1009.5276 635.4928,1012.1099 647.7207,1014.3957 715.9494,1014.7009 734.0716,1012.1419 736.7443,969.9278"/>
    <polygon points="152.2588,1006.7053 155.5108,1012.97 156.792,1014.2149 181.0166,1014.364 187.1826,1010.0462 190.2932,1000.0574 183.1086,985.913 176.7168,984.3879 167.0568,982.9288 160.8261,982.9357 155.5607,983.7289 154.0054,991.335 152.7315,1000.5421"/>
    <polygon points="149.9154,984.9763 148.6874,975.038 135.6546,976.8272 121.5759,980.363 120.9841,984.5552 120.875,1014.2589 142.6678,1013.9192 146.5831,1008.0316 148.9665,996.0298"/>
    <polygon points="121.5767,978.7249 144.9199,969.0803 150.4705,962.687 149.462,953.1459 132.9988,946.3965 126.51,944.9645 113.7647,944.4343 100.9141,957.9885 106.7001,968.4237"/>
    <polygon points="119.4129,1006.5899 115.0559,990.3978 111.744,980.0816 99.9088,971.3258 96.5561,969.3215 85.2556,981.4063 88.9818,1010.4951 89.7364,1013.0047 96.3323,1014.6207 107.0129,1013.0067 112.1716,1011.8729 113.9181,1010.9263"/>
    <polygon points="73.4305,1014.3542 82.1811,1008.3585 84.7338,993.1382 83.6426,990.386 81.7117,987.7034 75.7648,981.25 60.5036,984.0224 57.6682,987.2613 57.0941,1002.1525 59.2653,1006.3217 70.5205,1014.682 71.4579,1014.7953"/>
  </g>
</svg>
