<?xml version="1.0" encoding="utf-8" ?>
<svg xmlns="http://www.w3.org/2000/svg" xmlns:cc="http://creativecommons.org/ns" xmlns:dc="http://purl.org/dc/elements/1.1/" xmlns:ev="http://www.w3.org/2001/xml-events" xmlns:inkscape="http://www.inkscape.org/namespaces/inkscape" xmlns:rdf="http://www.w3.org/1999/02/22-rdf-syntax-ns" xmlns:sodipodi="http://sodipodi.sourceforge.net/DTD/sodipodi-0.dtd" xmlns:xlink="http://www.w3.org/1999/xlink" baseProfile="tiny" height="29.7cm" version="1.2" viewBox="0 0 793.7007874015749 1122.5196850393702" width="21.0cm">
  <metadata>
    <rdf:RDF>
      <cc:Work>
        <dc:format>image/svg+xml</dc:format>
        <dc:source>vsk save -s 6 /home/tobin/src/fabian/plotting/generation/stones/sketch_stones.py</dc:source>
        <dc:date>2022-10-11T23:34:51.080073</dc:date>
      </cc:Work>
    </rdf:RDF>
  </metadata>
  <defs/>
  <g fill="none" id="layer1" inkscape:groupmode="layer" inkscape:label="1" stroke="#0000ff" style="display:inline">
    <polygon points="581.2528,785.3338 560.4219,803.4055 539.5238,823.5386 540.2644,835.637 541.2826,839.9193 564.0682,863.367 601.5332,892.0803 610.9744,880.3916 622.447,861.4558 649.3981,805.3841 608.2786,788.7368 585.6785,781.8082"/>
    <polygon points="578.8679,762.5249 583.6115,779.1655 585.2008,780.6364 633.6735,795.3452 642.1197,796.3214 651.706,794.3921 658.4763,784.8567 660.0465,781.0524 674.5017,739.4086 673.5921,725.384 659.585,717.0807 589.7453,698.1452 583.3075,698.4203 581.7036,699.2399 572.0492,725.2135 573.1604,735.7026"/>
    <polygon points="558.1881,712.9411 565.0474,711.2143 580.5539,699.0145 583.8807,686.9694 586.5871,653.1183 580.0639,648.5352 560.8923,636.3428 508.8557,604.5611 504.4905,608.281 482.9523,632.3657 471.0414,650.4269 471.981,652.3165 507.5723,701.5558 515.2953,711.5435 519.303,714.4554 546.8276,714.2704"/>
    <polygon points="504.5614,718.1515 509.9492,714.9568 508.8507,708.3952"/>
    <polygon points="492.8795,723.6378 492.127,720.2008 487.4049,712.9793 484.2681,716.5301 484.1276,723.2433"/>
    <polygon points="493.4362,731.2489 494.7906,728.6556 487.6084,728.7774 483.9973,729.5282 486.5222,732.2342"/>
    <polygon points="499.5446,734.9818 502.2488,731.2493 505.3912,723.9303 500.5092,721.0122 499.4193,721.028 495.2694,726.2304"/>
    <polygon points="497.3815,742.6273 480.3489,772.8198 478.3677,778.4533 484.4881,790.5067 487.6134,794.0365 522.2722,825.0486 539.5859,819.2355 552.0353,809.8149 572.1471,788.5063 575.4466,784.6297 578.6286,777.4349 579.0524,765.44 575.1305,749.7458 569.9298,731.2948 567.3939,723.962 564.3676,716.8019 528.163,716.1505 521.1365,720.8958 508.1472,731.1814 503.1545,735.6517"/>
    <polygon points="492.707,741.287 470.678,724.4745 460.6242,729.0539 444.128,752.02 446.4042,755.7457 461.9668,771.3353 469.5832,771.5148 473.676,769.8703 486.0387,753.5752"/>
    <polygon points="489.8132,709.603 498.6741,715.2925 503.7572,702.6713 504.1586,699.0849"/>
    <polygon points="482.2887,699.4868 476.8184,698.5701 475.4696,706.5528 479.337,706.4984 487.5012,702.0717 487.1933,700.8938"/>
    <polygon points="475.5602,710.811 471.0006,709.9043 467.449,720.8408 473.4164,722.0927 477.8218,719.5749 479.1719,715.3524"/>
    <polygon points="463.1203,699.2128 463.3071,708.828 465.1731,708.7934 468.3003,705.0923 470.4281,697.0158"/>
    <polygon points="458.4317,703.6888 453.3129,693.6819 445.1127,699.6627 442.9849,706.4941 455.7725,712.4812"/>
    <polygon points="459.6416,691.0704 465.9564,690.8362 465.7692,689.0196 459.3086,683.9059 459.1813,687.0916"/>
    <polygon points="446.151,690.8656 449.4595,690.146 454.3747,685.4527 452.1206,678.5679 444.2002,676.5776 441.2357,682.6068 441.4402,684.963"/>
    <polygon points="439.7853,689.842 436.6139,690.9959 429.8248,700.7264 432.2676,703.2351 437.2891,694.6965"/>
    <polygon points="450.4453,673.0731 456.8466,680.9884 471.2953,689.4722 487.5882,685.9171 486.7736,677.2178 467.7749,652.4601 465.5375,653.4534 449.5129,670.8941"/>
    <polygon points="498.9966,697.7788 495.5729,690.217 486.8734,687.3184 487.1671,693.2536 493.2411,699.7171"/>
    <polygon points="430.7324,742.1802 442.681,751.203 450.8686,739.5533 463.7136,719.5862 446.4737,710.883 423.0273,701.8449 419.7917,704.0825 407.5279,721.8733"/>
    <polygon points="588.5686,657.7393 590.6921,658.957 615.1332,669.4951 621.971,664.2764 627.4853,647.5101 627.4364,642.9957 626.2141,639.0534 618.899,632.1122 613.6428,631.7897 587.6389,655.1394"/>
    <polygon points="625.4911,670.1079 626.808,670.9275 631.9034,671.7294 633.4794,664.0262 632.8221,658.1781 626.4163,662.2166 624.1088,666.0167 624.0116,667.9521"/>
    <polygon points="636.0721,678.1856 630.4886,675.7006 623.5706,681.5337 629.7137,683.2924 636.3327,682.9308"/>
    <polygon points="640.1122,676.8682 645.5434,669.404 642.262,660.6323 636.5014,661.8739"/>
    <polygon points="652.5374,670.6737 650.6932,671.6013 647.1264,675.0064 645.2072,677.3142 651.6541,682.8509 656.3029,672.5241"/>
    <polygon points="660.9956,676.7256 663.459,677.2425 671.161,669.0355 662.5076,658.4797 658.6213,661.4817 657.4717,664.9311"/>
    <polygon points="667.5162,687.223 660.4113,683.8315 657.9371,691.5018"/>
    <polygon points="667.9062,692.3037 666.5109,694.7715 670.9247,695.2066 673.9872,693.7238 673.7248,690.6831"/>
    <polygon points="674.8801,697.2867 669.6948,701.6884 672.3358,704.563 679.0257,701.1043"/>
    <polygon points="680.9123,693.8133 684.4937,697.2453 685.8685,685.8228"/>
    <polygon points="676.7097,684.3844 668.1902,685.2808 678.7911,687.3058"/>
    <polygon points="673.2962,670.9745 674.1931,675.0033 683.0226,678.6983 684.6946,679.0741 687.9218,672.4808 688.0103,669.7154 681.0301,668.1174"/>
    <polygon points="690.5137,664.6168 686.2538,659.4027 678.4139,654.7984 674.9213,656.5234 672.958,662.5065 679.1887,665.5996 685.3206,665.9476"/>
    <polygon points="691.866,648.3477 691.6552,646.1108 687.871,639.8759 680.7605,639.0034 679.64,651.6077 687.7666,653.2021"/>
    <polygon points="665.3631,643.4354 665.8724,637.1205 638.9459,631.2607 631.4128,631.2662 627.3438,633.6764 630.9166,650.3598 638.1133,655.3114 649.4313,659.9873 660.4637,653.2129"/>
    <polygon points="664.2665,650.1127 667.9477,655.0194 674.2888,654.5072 675.1853,644.4728 673.458,640.6311 670.0044,640.8027"/>
    <polygon points="644.9846,632.1297 686.4449,637.5328 690.6834,637.7514 692.3789,633.7676 697.3019,608.3062 698.7442,563.7877 695.6085,556.0126 632.2218,554.7911 626.1742,556.1993 615.0916,567.0131 613.9525,619.5747 641.0869,630.9056"/>
    <polygon points="652.3483,686.3901 641.7697,686.167 640.6043,692.6943 641.4566,694.2269 648.7533,697.6768 652.4555,697.7978 655.3262,693.6084"/>
    <polygon points="642.6963,700.611 640.6379,707.169 644.7584,711.4162 651.466,711.9515 653.6134,702.0627"/>
    <polygon points="657.7104,712.2897 660.4677,710.8799 665.0129,704.2188 658.7548,697.4985"/>
    <polygon points="668.4405,716.593 665.0151,716.2479 669.4199,717.4791"/>
    <polygon points="681.0405,708.2278 678.744,708.3624 675.8787,720.1333 680.3687,717.1646"/>
    <polygon points="622.0326,701.5753 632.5287,707.7997 633.4029,702.6782"/>
    <polygon points="623.5556,690.338 627.4737,697.2371 636.9354,691.0564 632.2256,687.5673"/>
    <polygon points="621.4448,684.5812 617.2653,671.9437 596.9066,666.7004 587.8733,671.6433 586.1658,693.4723 608.0413,701.969 617.5807,702.2314 618.9349,698.6431"/>
    <polygon points="609.3828,557.8856 606.5376,554.4709 553.6931,554.7688 550.7183,555.7259 524.0993,584.4816 516.3018,605.9169 528.6926,615.5442 582.0082,647.8796 593.2478,646.0042 611.3683,625.887 611.1907,569.2695"/>
    <polygon points="616.5506,526.1074 610.9833,530.7409 613.2007,532.3608 621.9375,537.5469 621.4698,530.9276"/>
    <polygon points="622.5274,520.9399 622.5069,519.0217 621.5533,515.2031 620.5538,514.5973 612.6497,515.4973 611.333,517.7588 619.2125,523.3623"/>
    <polygon points="612.4156,506.9499 608.94,503.5583 604.9048,506.5512 605.7139,508.2501 609.1295,511.3031"/>
    <polygon points="619.4334,501.7786 613.6496,503.8691 616.9064,510.7456 618.8268,509.077 619.837,502.9632"/>
    <polygon points="623.3338,492.8166 623.7414,490.8197 622.0197,484.6996 619.4967,484.9196 616.81,488.5523 618.9406,493.3328 622.5477,494.1168"/>
    <polygon points="613.8682,487.279 611.9448,483.8016 606.8496,482.9519 606.8879,485.4689 609.6669,491.5961 610.9723,491.8858"/>
    <polygon points="621.4275,479.5403 623.4106,478.8367 616.1742,473.9429 615.2141,473.9516 618.408,479.4487"/>
    <polygon points="610.5245,473.0462 611.9645,470.6813 605.578,473.0601"/>
    <polygon points="604.5655,464.1779 596.6615,464.6045 604.5763,465.4084"/>
    <polygon points="597.9563,473.4923 603.518,475.8018 601.4621,471.1389 595.5094,469.5498"/>
    <polygon points="591.599,485.7584 597.2176,478.3155"/>
    <polygon points="594.3323,492.1916 596.6227,494.0917 599.918,491.8892 601.1539,490.2009"/>
    <polygon points="584.7201,490.2207 583.8164,501.1812 592.6474,503.2666 590.9138,489.4866"/>
    <polygon points="582.6505,503.1574 578.677,502.4154 578.2724,502.8972 581.3569,510.7651 586.6914,518.246 590.4342,509.3927 591.1599,506.9155"/>
    <polygon points="573.4914,518.2517 577.8786,519.8374 577.2842,517.4699 572.0268,506.15 568.0339,504.6413 565.4626,512.458"/>
    <polygon points="565.5964,493.8515 569.2875,497.8168 575.3299,501.1095 576.2821,496.6045 575.9958,489.5234 570.2106,488.4587"/>
    <polygon points="553.966,488.4291 566.3986,488.9741 568.1058,480.7089 564.8641,474.1424"/>
    <polygon points="548.7453,499.6643 558.0387,507.0491 559.0182,507.3047 562.4305,499.967"/>
    <polygon points="567.9332,474.5846 579.5415,481.3216 582.4727,482.4004 581.4483,474.3542 571.8626,465.7302"/>
    <polygon points="583.8668,462.6769 590.8682,457.8467 584.8725,452.0929 575.7004,459.7272 577.2856,461.2368 583.0476,462.9664"/>
    <polygon points="586.365,465.9551 585.6889,470.9424 587.5319,475.2435 589.3199,476.0821"/>
    <polygon points="593.3482,450.9735 592.86,453.301 594.4084,458.1155 604.8462,449.1835 600.2864,443.7452 597.0375,444.2644"/>
    <polygon points="589.5319,448.9993 591.7158,443.3755 591.6899,440.855 589.6941,438.0378 581.852,440.8617 580.6685,445.0887 585.0744,450.8129 587.6984,450.4394"/>
    <polygon points="578.7723,432.6243 572.8532,432.2501 567.8139,438.8107 567.9035,441.0785 579.2589,439.2358"/>
    <line x1="566.6474" x2="562.6206" y1="428.6118" y2="428.5855"/>
    <polygon points="558.4009,434.0364 562.9095,439.0816 563.8412,436.3656"/>
    <polygon points="554.4729,435.1149 548.3575,434.6779 549.0493,436.6566 550.9309,436.4051"/>
    <line x1="552.9035" x2="554.6956" y1="429.5855" y2="425.5207"/>
    <polygon points="558.0437,420.7138 558.3297,420.4304 558.0537,420.147 557.7628,420.4254"/>
    <polygon points="552.3281,415.613 545.9371,414.5357 545.3889,419.0509 549.676,421.3208 550.9779,420.8095"/>
    <polygon points="554.5214,412.4204 567.524,424.5956 571.3254,426.1408 579.5683,421.8168 583.3709,412.318 584.1078,406.6195 583.8178,404.0679 581.3324,400.2618 576.2898,395.585 564.8018,396.4585 554.5564,405.8926"/>
    <polygon points="545.0393,423.9826 538.473,426.8626 542.7361,433.2105"/>
    <polygon points="532.424,425.4335 532.1331,425.7119 532.4141,426.0003 532.7,425.7169"/>
    <polygon points="523.3945,412.0608 523.5051,413.7506 526.0326,419.4243 543.0732,415.1428 547.9009,411.2363 551.6209,404.4968 552.3495,402.5743 553.4179,396.3674 549.2439,387.5058 542.9955,383.4259 536.5599,381.9309 529.5022,384.4608"/>
    <polygon points="523.1882,408.328 525.7196,389.6688 519.8719,377.7821 517.2676,373.0995 496.3635,355.2757 472.4607,335.9367 435.415,377.9077 430.0574,384.3639 425.8844,396.0876 465.613,445.6103 502.1693,427.3562 521.8307,412.4365"/>
    <polygon points="533.5657,378.7594 555.618,369.0 569.3534,356.6371 567.638,351.5296 544.9173,342.2307 542.1913,347.0114 535.0465,363.5564"/>
    <polygon points="549.5036,377.048 555.0139,389.8544 579.0156,389.2152 583.039,379.4593 578.7165,371.9821 571.6449,367.6947 554.4295,370.9572"/>
    <polygon points="531.2545,356.165 532.5596,357.6446 532.6355,352.5107 530.7074,351.4897"/>
    <polygon points="521.5926,361.471 523.3926,371.6123 527.7322,362.1827 527.3979,358.0222 522.9432,357.7654"/>
    <polygon points="512.5925,353.1393 512.0277,359.5829 517.6509,357.0995"/>
    <polygon points="513.7424,342.3625 519.3596,348.7073 523.8821,344.2365 517.006,341.7061"/>
    <polygon points="526.5609,340.005 526.0297,342.099 526.115,345.2609 527.5803,347.8367 533.9862,345.8779 533.399,344.2294 529.5972,338.4473"/>
    <polygon points="525.9339,335.9955 530.3075,335.5035 530.7055,325.9777 519.0452,330.6998"/>
    <polygon points="539.9522,335.2809 540.3113,346.0147 541.5159,341.6191"/>
    <polygon points="546.246,337.6912 552.5741,342.7237 552.9478,341.1706 552.3067,336.7742 546.7512,336.8367"/>
    <polygon points="557.3832,333.597 560.1192,333.1693 551.947,329.9212"/>
    <polygon points="562.1259,342.7782 559.7672,337.4797 558.2795,343.806"/>
    <line x1="571.4498" x2="573.715" y1="343.2827" y2="350.0932"/>
    <polygon points="575.8279,334.0964 568.3714,329.4942 566.1894,329.2749 564.3493,334.3666 565.2663,336.2228 567.5068,338.5947"/>
    <polygon points="576.1304,320.3311 570.2459,311.5379 560.1602,309.1066 567.907,322.124 574.3865,322.6351"/>
    <polygon points="579.556,314.2333 585.0881,314.677 585.4648,304.2163 583.234,292.4434 581.452,289.2264 574.3373,282.0789 573.6155,282.1011 565.2246,287.9983 557.6424,298.8947 574.3523,311.2423"/>
    <polygon points="555.1643,318.9863 551.9359,320.2152 555.3817,324.9957 561.7581,326.0849 564.9466,322.4539 562.7664,321.2978"/>
    <polygon points="548.3761,311.241 555.7362,306.6798 558.1304,300.4746 552.6926,300.0739 550.1086,301.8685 547.0939,305.6623"/>
    <polygon points="545.6701,313.3588 539.2765,313.0308 535.0737,316.3326 534.9056,323.2528 540.4032,321.6168 542.3472,320.326 547.5598,315.3613"/>
    <polygon points="541.5892,326.2637 541.074,329.7713 547.607,324.454 544.9765,323.8021"/>
    <polygon points="520.9965,318.0519 528.4967,320.4316 525.4673,310.1761 522.2696,308.9876 515.3323,310.8751"/>
    <polygon points="519.263,302.5752 524.1298,306.3924 529.3801,305.0912 524.4724,293.5854"/>
    <polygon points="511.7311,301.4704 517.608,296.1645 521.3918,290.2693 515.8887,288.0665"/>
    <polygon points="516.3802,285.7295 525.4892,268.0997 520.1357,259.9283 507.0398,255.2673 490.5589,270.0565 490.576,273.9118 492.3097,283.1125 504.1353,292.4034 506.1215,293.5318"/>
    <polygon points="526.8918,288.4682 536.8239,287.1245 529.0026,275.8572 524.8742,277.8226 524.7033,280.3122"/>
    <polygon points="547.6277,292.1268 538.0596,294.2679 536.4677,307.0217 541.4803,307.1847 543.5568,304.0102"/>
    <polygon points="564.2681,280.077 551.5938,266.4894 536.221,264.9483 535.059,274.4722 536.3426,277.1625 538.6235,281.0707 548.5442,288.8938 555.0663,287.3809"/>
    <polygon points="565.9289,269.3892 564.509,269.3512 567.6433,274.8163 569.6128,273.0915"/>
    <polygon points="558.2924,260.967 561.1407,266.0894 563.104,265.0783 565.9066,259.1794 562.4728,257.0147"/>
    <polygon points="552.0167,259.7736 549.5649,263.3133 553.508,264.9201"/>
    <polygon points="548.0386,256.3874 544.3345,256.8816 545.6052,257.5888"/>
    <polygon points="555.3911,252.2538 556.5605,254.6841 559.2622,252.4529 559.3217,251.6345"/>
    <polygon points="555.3017,245.3134 552.2793,248.1674 551.0414,252.4159 551.5375,253.1126 553.5067,251.3982"/>
    <line x1="564.8599" x2="566.4966" y1="245.9125" y2="250.8117"/>
    <polygon points="567.3854,257.4708 566.5377,260.4387 572.4282,264.2759 576.3302,258.754"/>
    <polygon points="574.3,248.7044 569.3878,251.8436 572.2192,251.9488 580.0239,251.4158"/>
    <polygon points="586.4711,256.9984 584.9249,251.9169 578.7792,257.4614 582.1076,266.5498 588.3136,265.5903"/>
    <polygon points="591.1672,253.0281 596.8969,247.9334 592.9632,242.865 589.5445,247.2233"/>
    <polygon points="602.9604,248.4521 605.4332,253.7658 606.4471,248.9189 606.3786,247.8718"/>
    <polygon points="604.0732,244.255 604.6956,245.5684 606.8828,245.3638 609.5819,243.487 609.8165,241.4869 605.0443,240.8977"/>
    <polygon points="615.5735,249.4374 609.2979,248.8522 608.3577,252.1909 612.2456,251.5414"/>
    <polygon points="625.7201,265.9759 624.981,264.222 623.7374,268.5092"/>
    <polygon points="629.6498,272.2402 625.9343,272.8331 623.7871,276.4106 626.6103,279.356"/>
    <polygon points="621.6898,275.3348 613.1467,278.1662 622.4392,278.1269"/>
    <polygon points="618.8694,283.5093 618.9517,284.8341 623.0425,286.733"/>
    <line x1="618.3586" x2="614.3833" y1="291.569" y2="295.9108"/>
    <polygon points="610.2966,289.8767 611.1476,286.2234 608.9502,282.2945 608.3587,283.3988"/>
    <polygon points="606.4089,280.9268 617.3306,269.2296 622.0896,258.6563 609.6741,254.4894 602.318,255.1259 591.4761,264.2729 592.254,270.403 602.3707,280.9875"/>
    <polygon points="589.6477,279.7988 586.8868,288.0138 586.8198,291.1449 587.9355,308.5052 594.7679,311.6598 610.327,301.8529 609.2134,291.4104 599.7881,282.2702"/>
    <polygon points="579.7859,271.0677 573.9666,268.5778 572.8318,278.3809 580.5811,280.0392"/>
    <polygon points="595.1941,234.3653 591.1534,235.2582 590.0533,237.8966"/>
    <polygon points="597.2612,229.858 600.7361,227.6325 597.363,221.9063"/>
    <polygon points="602.5129,231.3059 601.3528,232.4431 597.6033,240.2131 601.4167,239.4897"/>
    <polygon points="586.0069,209.0014 579.9459,214.7591 561.566,236.3799 574.5732,244.8636 592.7629,222.514"/>
    <line x1="622.3473" x2="628.7149" y1="297.8716" y2="295.9961"/>
    <polygon points="632.9347,293.4899 634.2791,287.127 625.7792,289.0553"/>
    <polygon points="585.3201,371.6468 596.7317,380.7305 614.3407,393.738 645.4625,385.4619 668.5549,371.4317 667.2312,363.0022 655.3674,327.1035 643.8983,299.6716 639.8222,292.2348 611.883,304.8325 591.9124,314.198 587.2129,318.0227 583.0581,324.5938 578.2395,334.056 575.9523,349.6675 575.3792,361.0266"/>
    <polygon points="590.4653,380.9575 586.691,380.5646 580.7898,390.7086 585.6511,404.371 606.4277,406.7562 615.0601,398.433 604.0234,387.2713 601.1083,384.7147"/>
    <polygon points="609.4379,408.5816 606.3402,408.2082 597.2702,410.109 594.5565,411.2331 587.6644,415.4646 583.7527,420.6073 583.7084,424.0012 589.0312,431.3933 591.6033,434.16 598.9252,440.8865 600.4874,441.0731 602.1778,440.4742 609.1094,421.3145 611.7232,413.2999"/>
    <polygon points="561.9082,453.2922 565.272,459.4906 569.7207,462.3495 574.7419,454.23 575.9053,447.0459 570.1037,444.6289 564.8122,445.807"/>
    <polygon points="549.076,440.8281 552.2129,443.8612 554.8534,444.0841"/>
    <polygon points="499.5207,430.7373 472.4849,446.2957 471.6812,450.6727 493.3827,481.0568 507.8009,497.0715 520.0374,509.6742 521.6288,510.536 530.3802,513.1442 531.597,513.1165 536.4887,510.2109 541.9898,503.3706 559.9675,477.2688 567.8441,462.5445 526.702,423.5207 523.7204,421.865 511.5376,425.3843"/>
    <polygon points="497.8229,352.6017 503.4173,348.8433 506.63,345.9964 513.9052,335.9569 520.3368,324.705 520.4241,322.7377 511.514,311.5406 501.8857,304.7939 496.966,308.5918 476.0724,332.7747 480.1698,337.7703"/>
    <polygon points="458.2698,336.6389 465.8214,339.7032 478.8392,327.3238 480.6708,319.6719 480.9496,315.2781 468.2848,307.288 449.7242,301.4486 435.7985,317.9992 444.1468,325.6061"/>
    <polygon points="448.9699,333.0936 446.4366,330.3607 408.6096,298.1512 393.4849,294.3862 376.9619,306.7365 338.7798,338.0643 333.9835,344.384 328.8209,354.341 363.6914,388.7713 383.0976,392.2265 414.2314,391.0134 421.5606,389.0652 443.4606,366.6955 460.3354,348.7728 452.8104,338.1745"/>
    <polygon points="467.265,292.5319 461.6099,291.9315 461.0569,294.5237 461.0936,296.7035 462.9708,298.2449"/>
    <polygon points="468.9437,279.7652 466.3775,281.8865 465.5702,284.7622 468.2277,284.5536 472.7864,278.5706"/>
    <polygon points="484.2195,287.5614 487.7533,286.6276 488.7929,279.4402 479.9525,273.4119 476.4678,278.4412 482.0153,285.428"/>
    <polygon points="485.7591,292.4082 478.2445,288.0385 473.9857,292.0434 471.7042,297.9672 475.8219,301.3644 484.4056,296.8803"/>
    <polygon points="486.0127,300.8422 480.2572,305.8886 477.7655,310.7228 484.7416,314.4373 491.0343,313.8231 491.6984,307.1874"/>
    <polygon points="495.1434,294.6532 495.4735,297.8607 497.3007,296.8565 495.5242,290.5345"/>
    <polygon points="485.1407,270.425 491.2384,266.0097 503.706,255.6929 506.0662,250.9334 485.4732,235.4449 481.5326,232.8586 469.9353,244.384 468.2521,256.6578 475.9911,270.101"/>
    <polygon points="436.6465,278.5785 446.2581,291.4585 451.6222,295.6957 458.3554,289.0819 466.4881,277.0502 469.8155,267.2057 467.3506,264.2217 455.3234,251.8332 441.2499,254.0107 434.9148,268.6991 435.5642,273.8114"/>
    <polygon points="435.5822,280.389 412.7496,281.1382 408.0676,281.816 399.7407,287.2498 399.0341,288.8012 429.6911,314.0943 446.1568,298.248 437.1074,282.2365"/>
    <polygon points="407.0252,279.49 428.7443,272.5537 435.4111,260.578 438.7299,251.3935 425.9519,247.9653 410.2292,250.6083 396.6805,256.2438 396.0706,268.8431 400.7851,275.4259"/>
    <polygon points="397.3463,237.3477 395.8438,250.3646 409.3464,249.1632 420.2771,247.5328 433.2899,241.542 430.7555,225.0678 424.5814,220.3137 421.8805,219.5767 412.1619,225.0583 402.4698,231.4291 398.8852,234.547"/>
    <polygon points="433.4436,225.4038 434.0465,230.3564 435.0176,234.4431 437.6649,240.893 445.9739,248.7885 466.7597,242.13 472.4618,234.0521 460.7966,220.8024 449.4518,211.1643 434.6744,215.1617"/>
    <polygon points="442.7647,195.859 458.3486,137.0267 458.2233,126.8671 449.2852,118.7766 414.652,109.0385 389.0071,108.6759 381.7543,109.2284 343.1972,115.6876 309.3626,126.4776 310.3189,133.6496 340.0443,205.1806 355.2361,218.3943 357.1751,219.5473 387.2179,232.1926 396.7392,233.1883 422.1368,216.2489 430.2135,209.3536"/>
    <polygon points="487.9046,128.6707 469.5776,121.2827 463.7245,123.2897 445.6218,192.4275 444.0433,203.1147 471.0785,224.4826 518.1149,257.5876 533.5214,266.4414 580.765,211.2296 583.6366,207.3709 558.3633,179.4216 534.0773,157.7006"/>
    <polygon points="301.0162,329.8836 282.9752,317.6655 278.3225,317.2745 256.1933,342.424 254.9383,354.3248 274.1718,360.8451 279.0103,361.8099 289.3732,356.5015 302.0087,338.808"/>
    <polygon points="258.8434,335.4097 266.8675,326.7418 264.1807,320.7038 260.9341,318.0744 255.9651,320.4221 244.4399,332.9667 251.4325,335.8426 256.1829,336.8725"/>
    <polygon points="246.6803,322.1796 249.7101,317.2301 252.1845,310.9955 242.9732,311.2025 233.6861,314.9711 237.2573,326.3423"/>
    <polygon points="229.3542,316.6001 227.9011,309.1196 224.7255,306.463 216.3669,305.8845 218.7326,315.5006"/>
    <polygon points="226.3139,325.1129 230.168,337.9105 234.8841,329.7152 231.9874,325.8427"/>
    <polygon points="216.6049,321.7846 214.4786,323.8871 217.6979,331.2735 222.7367,319.8246"/>
    <polygon points="215.6573,333.3808 203.8811,335.415 202.9636,337.5762 203.3882,339.4823 207.9082,345.697 214.2732,343.2541 216.7406,341.7857 220.3931,337.3225"/>
    <polygon points="203.9014,319.8888 200.4101,319.8891 195.4475,321.9275 192.5501,329.0771 192.0398,332.9073 199.1875,332.9995 204.0849,330.0124"/>
    <polygon points="200.9586,305.0924 198.5676,305.2372 195.9537,309.2928 195.6177,316.5191 200.2188,317.9692 202.1645,306.9587"/>
    <polygon points="211.658,303.7781 206.708,310.8435 207.6637,313.5634 212.4639,318.8251 214.1771,318.3215"/>
    <polygon points="211.3519,285.5191 201.6536,286.6829 198.825,293.6539 205.1197,301.6127 208.2837,301.7809 211.3724,292.6356"/>
    <polygon points="221.641,282.9723 218.5842,287.4279 230.8107,288.597 239.1664,288.7914 240.1666,285.4982 233.5965,280.6872 227.1057,278.7285"/>
    <polygon points="215.681,272.9344 209.3997,280.6614 218.0267,278.4367 224.4009,275.0994 222.1369,269.1085"/>
    <polygon points="240.0847,275.3359 235.9427,265.4504 228.7535,265.2017 235.4275,276.9862 237.3735,278.4546"/>
    <polygon points="243.1751,285.4259 237.8136,300.4599 250.9139,302.9191 255.0702,297.1011 259.1513,289.6591 253.4017,283.9294 248.2243,280.4705 246.0859,280.6957"/>
    <polygon points="259.6601,285.6431 291.6565,318.948 319.0109,345.1691 327.971,342.1497 339.0446,336.1395 348.7662,329.245 358.9966,320.7652 383.7261,298.8603 394.8831,287.7487 394.377,241.4444 383.8255,234.6237 354.8591,220.2943 349.3551,219.2716 328.5188,227.5256 287.9432,261.4256"/>
    <polygon points="266.3157,295.0306 262.5278,303.1105 261.6616,307.2183 264.1605,316.3334 268.9158,319.154 276.7236,314.9691 278.3906,312.687 277.1771,308.9635"/>
    <polygon points="233.4679,301.4782 235.0359,294.7674 225.4844,292.2525 223.0962,293.1121 221.2146,298.865 223.8989,302.1567 229.2828,304.9414"/>
    <polygon points="189.5446,307.2194 199.5112,301.61 199.8679,299.7452 196.7949,293.717 183.3298,294.996"/>
    <polygon points="185.5206,301.143 173.7671,303.6714 171.6665,308.108 173.0637,315.6304 174.7173,319.3958 180.5563,323.2272 192.3912,319.7656 188.9351,309.5303"/>
    <polygon points="166.6545,304.8752 172.691,301.5953 174.5409,292.3182 158.3542,287.8518 153.0986,293.9838 152.3438,298.129 154.5589,302.1777"/>
    <polygon points="156.0878,325.1032 162.4979,338.7931 173.7852,327.3395 175.7875,324.1848 167.9492,311.8067 163.5977,313.6669"/>
    <polygon points="144.5514,312.0762 144.1085,317.86 144.1338,322.3926 155.3136,320.8353 158.6161,309.7287 153.2606,308.0539"/>
    <polygon points="137.7863,330.9235 141.8313,336.0963 146.0972,340.1027 157.562,340.6306 156.9318,335.164 152.6026,331.4866 143.6232,325.3584 140.4517,324.7456 138.8827,325.7897"/>
    <polygon points="174.3391,330.5414 170.5335,344.2326 176.898,350.4301 180.6991,351.598 189.2567,331.02 181.7941,325.521"/>
    <polygon points="191.0169,355.4635 201.2462,350.8211 203.6117,345.7404 202.2335,343.5482 200.1417,341.4945 190.5015,339.0568 183.0687,354.2264"/>
    <polygon points="203.106,361.6775 215.5982,365.512 218.2713,363.5827 213.0391,356.7241 205.9791,350.3753 201.8139,353.6219"/>
    <polygon points="231.612,355.8326 224.1546,368.6014 232.386,364.6025 238.7117,357.8781 235.4708,354.6663"/>
    <polygon points="231.7665,349.1829 225.6519,343.2821 221.7896,340.4849 214.7721,351.3722 222.3243,357.8723"/>
    <polygon points="233.3619,348.1771 242.6171,351.3967 244.517,350.6307 247.2821,347.8724 240.8935,337.843 236.9175,339.5039"/>
    <polygon points="273.9289,371.2956 263.9206,361.1451 259.726,359.0561 244.4979,354.7447 242.9568,355.5748 235.1469,364.759 232.907,367.8942 229.1842,376.522 228.7979,379.4612 230.1712,393.1563 232.3236,408.9623 238.5137,418.2585 243.2792,422.0519 252.5302,423.4329 276.1677,401.8974 280.1821,394.3771 282.3336,389.5832"/>
    <polygon points="300.9601,414.8358 305.8326,405.8222 286.7957,397.6335 281.9572,408.1687 282.2555,416.2184 283.1884,421.5311 295.8576,419.4901"/>
    <polygon points="285.6015,427.5043 284.1057,439.8003 285.2871,444.2375 291.8169,448.3644 293.4242,448.6897 304.0499,441.3769 306.4045,435.8238 309.0256,426.5152 308.5165,425.6592 303.8499,424.6125 291.2652,423.443"/>
    <polygon points="306.8414,446.1151 304.883,451.214 312.0981,456.2047 321.863,460.2969 322.9118,459.9258 328.4557,445.3377 316.5735,435.3525 311.2381,437.6557"/>
    <polygon points="344.8252,428.3408 272.488,534.3236 254.3495,562.7467 254.9837,566.6143 260.7296,575.8327 391.4827,712.0083 401.5051,717.8438 415.2462,706.024 424.4627,696.8903 503.3013,607.5899 524.9368,582.6144 546.8896,554.1188 545.8752,548.5326 538.3659,537.7125 472.7834,455.336 434.8188,410.1036 422.6877,396.3336 411.1207,392.7107 376.2276,394.3293 366.2569,399.8151 363.5346,402.8475"/>
    <polygon points="349.6697,420.3849 366.5048,395.1925 361.8934,388.1636 352.2352,377.9443 344.9097,372.1804 329.0279,383.8944 311.5533,400.6573 310.1357,408.4255 322.9963,432.5435 335.2209,441.3119"/>
    <polygon points="334.5908,366.0238 331.8926,361.8571 324.6202,352.9335 313.7171,343.5271 308.1325,345.4474 302.8201,349.0487 280.1955,366.5229 283.2123,386.4994 285.1203,395.247 302.3806,399.997 305.1613,399.1166 312.5694,395.3533 326.4282,383.2273 334.0267,372.4292"/>
    <polygon points="254.5838,428.7545 257.323,432.5341 259.5903,434.2891 270.2069,440.0028 273.4895,439.2985 277.6052,426.7061 276.4986,415.711 275.5576,412.2558 263.7813,416.0101 261.675,418.4512"/>
    <polygon points="208.0659,447.6241 219.7589,436.3062 229.447,425.823 229.82,416.0635 228.6665,395.5905 225.6254,373.0523 178.0814,353.878 152.5499,343.944 140.3311,340.3934 135.2161,343.753 132.0849,347.048 124.1509,368.0006 118.1705,386.6248 106.502,436.8154 106.666,441.2523 109.413,450.0393 126.443,454.6511 150.9123,459.2406 171.8211,460.8878 191.3966,461.9623"/>
    <polygon points="196.0315,511.8584 195.2088,500.9272 189.0173,471.5503 180.3305,476.5878 168.2971,484.222 165.8052,487.7179 161.8762,495.1434 161.863,495.7797 169.7433,501.4493 187.8994,511.5464 194.8349,513.5597"/>
    <polygon points="188.5753,527.9949 193.7463,531.6985 195.8227,531.8747 199.6958,530.7859 200.3052,527.2551 198.3065,522.441 194.0958,520.4378"/>
    <polygon points="198.3612,541.261 192.9578,533.9361 190.3618,536.0412 191.6594,538.5366"/>
    <polygon points="192.397,550.2008 198.9119,554.2984 200.1982,553.9077 204.7732,546.0844 203.5994,544.5706 196.2002,546.9183"/>
    <polygon points="179.7202,554.1549 175.5631,563.4485 183.7283,556.0946 187.606,551.2905"/>
    <polygon points="164.8484,558.3683 169.8739,544.9191 157.8652,547.6477 157.6706,552.9104 158.0733,556.7549"/>
    <polygon points="157.3826,570.2869 115.3525,573.0049 95.4,576.5176 98.4423,627.3838 101.3166,647.5965 102.8952,657.4744 110.495,696.4446 121.5039,745.7368 130.3104,769.9506 142.7523,801.6317 153.8133,828.6349 164.7627,849.8226 184.5654,882.4202 195.5346,895.1692 206.6222,907.3688 242.2445,876.7688 373.5079,744.3866 394.4907,722.2671 386.1287,707.6176 274.5275,590.8359 256.7453,572.9093 242.4101,566.4088"/>
    <polygon points="150.1032,565.7128 163.0126,569.8951 166.4793,567.8984 159.9802,560.9529 154.912,560.6604 152.1315,560.8628"/>
    <polygon points="144.3543,570.6111 145.651,566.042 143.9936,558.6989 135.2896,556.4214 132.9088,560.6326 131.8905,564.8231 136.0102,571.1694"/>
    <polygon points="137.9656,554.2204 148.904,549.751 150.7229,548.1399 151.2187,544.3223 142.7845,543.5276 138.4244,546.0677"/>
    <polygon points="131.0479,555.9697 130.8686,552.1985 125.7566,547.7046 115.6788,546.8452 115.026,552.5039 116.9184,554.4162 124.2501,556.3858"/>
    <polygon points="144.4328,539.069 148.7942,534.31 145.5668,530.4352 137.1028,530.0313 136.5741,531.1509 136.0856,539.2347 136.9142,540.5395"/>
    <polygon points="155.9878,537.4967 154.3772,544.6942 164.7375,540.6076 164.219,537.9337 157.1691,536.1636"/>
    <polygon points="170.7434,540.4739 179.3659,547.7616 186.0395,541.6699 179.7205,536.4387"/>
    <polygon points="143.6695,521.429 149.8492,530.4201 166.9204,537.4869 180.9973,527.4326 188.3838,518.3779 188.0963,517.888 163.7086,499.9838 159.4199,498.6591 151.1183,501.4283 148.2825,505.0655 143.5932,515.9511"/>
    <polygon points="135.3327,523.8524 121.3914,515.8126 116.6624,525.3651 120.2176,526.9721 123.9201,527.3949 133.8964,526.6439"/>
    <polygon points="126.1326,531.5227 117.6715,535.8353 118.965,542.5104 129.5785,543.1591 129.893,532.2893"/>
    <polygon points="111.032,527.1531 100.2693,525.1362 96.6774,534.0116 96.4635,541.3432 101.0052,546.0607 110.3428,543.0747"/>
    <polygon points="105.8809,522.5998 114.383,522.6054 118.8132,511.9027 99.1375,511.7733 97.5655,519.6196"/>
    <polygon points="118.4211,505.0557 115.9034,493.503 111.9708,491.4493 103.4337,492.2672 99.4059,504.2728 115.6547,506.9902"/>
    <polygon points="135.8397,494.1929 127.2334,490.5155 118.9969,490.1918 119.9059,505.774 124.2713,508.1159 133.6443,500.6756"/>
    <polygon points="144.2386,503.5074 129.4664,508.0154 127.6677,509.9058 131.948,514.7974 136.4074,518.3565 138.7987,515.8882"/>
    <polygon points="135.6336,468.0805 134.5284,476.249 134.6755,481.991 141.7618,496.4554 159.5705,492.9252 177.5949,465.1455 162.1869,461.8046 146.8733,462.032 143.7156,462.8156"/>
    <polygon points="108.6646,454.3555 104.3826,461.9796 100.2253,476.6241 104.9783,485.8605 111.778,489.9521 130.2369,486.1354 130.1985,466.5035 127.362,455.847 114.6183,454.3441"/>
    <polygon points="98.5605,548.6512 94.9566,555.208 95.2321,573.0758 106.2503,557.9368 102.7079,553.0262"/>
    <polygon points="107.4048,571.4019 118.7061,570.7013 126.5607,564.3717 114.6095,562.7547 105.5602,569.349"/>
    <polygon points="189.9223,567.8059 194.159,566.6315 187.4884,563.2342"/>
    <polygon points="202.5473,565.2638 207.0587,562.5831 207.876,559.4209 199.9824,559.1658 196.4772,562.0682"/>
    <polygon points="298.7166,495.7381 318.1579,465.8379 317.8009,463.8111 236.1356,426.2106 228.4036,430.714 215.6134,442.2544 207.6056,449.9689 198.9173,460.6552 191.5472,471.0466 199.8744,516.9535 210.9411,564.3005 251.5383,564.1344"/>
    <polygon points="162.4613,281.0313 166.6486,283.9398 179.88,289.0223 190.3343,285.1154 198.4885,281.1544 219.9529,266.4828 223.1327,260.7606 210.8952,244.0262 200.6927,233.9859 194.3547,235.705 180.776,246.2711 168.567,264.2813 162.5872,278.7335"/>
    <polygon points="195.8116,224.109 199.6055,228.7004 229.5953,258.6036 250.727,278.1297 257.2878,278.5683 263.4942,278.3958 273.9989,271.0987 288.5797,259.5174 308.4286,242.3401 337.3169,210.2151 333.2598,193.2013 323.9136,170.1432 311.5293,142.466 304.387,132.8999 282.7078,141.9591 274.8087,146.6102 258.3695,157.961 244.3822,169.6312 213.2254,202.211"/>
    <polygon points="553.0682,551.3665 565.217,549.3031 574.4194,524.8457 558.3185,510.3355 547.1471,503.646 539.1902,510.498 537.079,517.303 534.7814,528.9514 535.1022,531.1004 549.2042,549.8164"/>
    <polygon points="576.6192,553.2187 617.781,554.4708 619.6865,549.0685 615.6557,542.0252 610.2263,534.9864 608.4258,533.3368 591.4447,522.3471 581.2445,521.3281 576.4957,528.9282 570.0161,544.3764 570.3518,549.1079"/>
    <polygon points="599.6017,514.7248 599.3272,510.8467 597.8773,507.2586 596.7626,505.9952 592.2372,516.8014 598.3702,515.3157"/>
    <polygon points="604.4739,516.943 596.7396,523.8637 604.7105,526.1977 609.7775,524.7541"/>
    <polygon points="698.0187,540.9778 697.6409,522.2324 696.7923,505.3721 691.0809,468.7925 669.0582,471.6544 632.5806,477.6714 625.5312,484.1493 622.8171,543.6803 627.0747,553.727 694.3832,554.0508 695.7739,550.236"/>
    <polygon points="688.3348,451.0576 678.5279,397.229 676.3871,388.1323 673.4992,377.842 643.1878,387.476 619.6873,396.6765 612.4328,419.3041 606.5914,448.5207 607.9759,463.0819 616.2574,470.2334 620.6609,473.1002 626.5842,476.2296 627.5125,476.5969 649.6098,473.3899 687.8426,466.7024 688.5236,453.3272"/>
    <polygon points="242.1669,948.4484 263.712,965.9338 275.1721,973.3517 308.6967,992.4418 314.0299,995.2473 331.605,1001.0431 351.8383,1007.0572 370.5984,1010.8363 389.875,1013.3003 396.3896,1013.8438 432.8357,1010.1917 466.5798,1000.8134 484.4122,993.7957 506.86,982.233 545.2937,954.3531 555.7042,945.7398 558.8874,942.7622 569.4017,930.9638 597.3786,896.1949 589.3746,886.4402 449.8041,760.4152 419.5135,733.4906 402.0745,723.2046 399.9691,723.5061 388.0741,730.5979 371.3501,746.9805 211.0534,909.1918 214.1406,919.7067 220.2802,926.3147"/>
  </g>
</svg>
