<?xml version="1.0" encoding="utf-8" ?>
<svg xmlns="http://www.w3.org/2000/svg" xmlns:cc="http://creativecommons.org/ns" xmlns:dc="http://purl.org/dc/elements/1.1/" xmlns:ev="http://www.w3.org/2001/xml-events" xmlns:inkscape="http://www.inkscape.org/namespaces/inkscape" xmlns:rdf="http://www.w3.org/1999/02/22-rdf-syntax-ns" xmlns:sodipodi="http://sodipodi.sourceforge.net/DTD/sodipodi-0.dtd" xmlns:xlink="http://www.w3.org/1999/xlink" baseProfile="tiny" height="29.7cm" version="1.2" viewBox="0 0 793.7007874015749 1122.5196850393702" width="21.0cm">
  <metadata>
    <rdf:RDF>
      <cc:Work>
        <dc:format>image/svg+xml</dc:format>
        <dc:source/>
        <dc:date>2022-10-11T23:30:38.144425</dc:date>
      </cc:Work>
    </rdf:RDF>
  </metadata>
  <defs/>
  <g fill="none" id="layer1" inkscape:groupmode="layer" inkscape:label="1" stroke="#0000ff" style="display:inline">
    <polygon points="426.7428,144.4482 429.6325,149.4777 433.5394,152.6489 436.5331,154.4913 468.1162,154.3166 471.4177,150.7489 482.8273,130.7739 479.7641,126.914 450.1301,116.0696 434.498,113.1167 431.9739,120.68"/>
    <polygon points="429.0664,116.3455 427.2976,112.1009 422.732,110.2064 399.615,108.7659 375.6423,112.6419 378.1605,127.5841 382.5008,148.5627 402.2132,150.0853 422.0119,146.4141 424.8255,143.2291 426.6936,137.2188"/>
    <polygon points="480.7457,137.9387 474.4471,150.0332 474.0995,158.0543 474.3154,163.7862 482.2564,180.2212 485.6515,183.9268 508.8583,178.1114 516.9717,157.0513 517.3646,148.6555 516.4336,145.8176 497.6237,135.5861 486.0338,132.144"/>
    <polygon points="490.8183,189.6158 483.8174,187.7541 482.743,189.908 483.0165,195.528"/>
    <polygon points="496.3569,199.8803 493.556,196.73 489.9404,196.7414 484.0404,200.5509 483.5257,202.8161 487.1955,213.208 499.3892,205.5738"/>
    <polygon points="501.6486,195.8092 503.6771,187.658 500.5988,185.5036 496.0683,184.5531 492.0737,192.0856"/>
    <polygon points="509.645,195.3786 502.2592,203.7698 511.0791,204.6233 516.5922,202.4374 517.2963,196.8122"/>
    <polygon points="501.5243,211.9441 499.0972,211.5198 490.1084,214.6057 497.2235,234.8936 505.4881,216.8627"/>
    <polygon points="507.132,222.041 509.305,228.9969 518.1558,222.1562 515.8411,215.2984 514.1304,213.2399 509.0315,212.797"/>
    <polygon points="506.4148,240.4154 505.8678,238.6974 503.4628,235.9544 499.3942,241.3907 497.2522,244.8921 501.6501,244.5085 504.4888,243.465"/>
    <polygon points="505.2006,248.9689 504.1453,251.7861 509.9612,252.9094 514.0782,252.8146 513.192,248.642 510.5906,247.9163"/>
    <polygon points="514.851,255.093 515.2271,257.5795 519.9715,264.3097 527.7401,260.597 524.186,255.9521 517.8615,251.8184"/>
    <polygon points="512.299,272.4706 522.1817,272.598 520.8276,265.8333 512.3336,265.5819 511.7224,267.9211"/>
    <polygon points="502.8204,270.898 507.51,262.8031 503.9851,256.131 501.4914,258.6614 500.0975,264.1968"/>
    <polygon points="497.2009,274.5206 493.9979,265.8811 489.9167,264.7946 485.2718,275.8085 492.0786,284.8692"/>
    <polygon points="510.2339,284.1959 516.921,282.2412 502.8887,274.1889 499.8789,277.7396 499.3323,284.6295"/>
    <polygon points="522.3335,278.9961 521.7783,280.2204 524.3011,280.673 526.7925,280.5858 535.9591,274.784 530.9481,268.8176"/>
    <polygon points="541.1777,273.5599 537.6165,277.5144 540.8021,280.4976 555.616,279.4684 560.9513,273.5184 564.6707,266.7086 562.2105,261.6949"/>
    <polygon points="544.4556,268.5473 560.5415,260.37 562.1636,255.5177 555.4202,241.7718 547.1852,228.0039 537.5539,215.0335 530.7611,212.8722 523.3431,218.2974 512.4306,227.7564 510.2557,235.001 511.281,236.7674 520.7098,249.255 533.7423,264.4798 538.44,267.9953"/>
    <polygon points="548.7142,288.4219 555.4291,303.3475 563.7732,297.0517 560.8696,289.1333 554.96,285.8537 549.5888,284.4234"/>
    <polygon points="537.1182,297.3862 542.0905,315.2906 543.122,317.0064 549.7334,316.9701 552.7515,304.9944 537.4342,292.6528"/>
    <polygon points="557.8863,305.4847 554.7219,311.5951 554.0738,321.759 557.503,321.0334 575.367,313.6771 568.7307,307.1597 564.4129,303.3844"/>
    <polygon points="567.9387,288.1466 567.3964,281.6041 559.0339,279.0445 556.2381,283.4488"/>
    <polygon points="577.4991,275.8227 570.1951,292.8469 573.6191,292.538 584.0874,287.8316 585.265,285.8858"/>
    <polygon points="571.3861,266.5447 583.8524,278.7839 596.4306,264.7866 592.3603,258.3802 589.2515,255.9708 586.5008,257.0012"/>
    <polygon points="594.5963,271.8895 588.8713,283.2756 594.5564,288.5351 609.8197,275.8329 603.7104,269.6901"/>
    <polygon points="587.1643,247.9755 581.0989,241.9561 575.3063,243.3405 571.7604,246.4055 568.0007,254.5562 567.53,259.5848 587.4769,253.893"/>
    <polygon points="606.9784,237.1945 602.6898,233.6985 600.2777,232.9161 587.0686,232.5602 591.9813,246.5634 597.0863,251.5567 602.4402,253.1257 610.5522,244.932 610.6394,242.3663"/>
    <polygon points="591.6997,223.0682 572.1266,195.8658 564.4239,188.5318 559.0056,189.5216 542.4336,201.54 536.9675,207.1087 567.1084,245.3326 568.45,245.5042 582.0244,233.6008 591.4914,223.7055"/>
    <polygon points="619.7248,256.7401 614.1157,247.6599 609.3395,250.2926 607.4621,252.0307 603.1613,257.745 607.5081,268.954 609.5151,271.2614 618.6936,276.0672 624.5651,265.9836"/>
    <polygon points="595.6812,303.0164 598.4974,310.9178 604.943,319.1946 612.3574,327.8649 621.7981,337.336 640.591,328.2063 648.95,320.2756 647.5342,308.8211 638.6214,293.9496 626.0364,275.2928 618.8874,277.9742 595.3586,290.563"/>
    <polygon points="586.0366,302.8319 588.9771,297.3071 589.5407,294.7015 586.5332,293.0182 582.3182,293.6514 580.3958,297.1488 579.9871,308.3159 583.6728,306.0823"/>
    <polygon points="566.961,348.6433 573.7304,365.7954 576.7981,365.0252 607.4774,346.54 609.3368,345.3255 616.5916,338.2387 597.4872,312.2104 590.9505,307.4988 582.499,310.528 559.8819,324.5231 559.7931,327.9362"/>
    <polygon points="545.1629,354.2754 555.5027,361.9921 569.9743,368.2239 562.4402,339.8297 552.922,338.9953 544.9869,344.3919 542.7861,351.9355"/>
    <polygon points="534.6326,336.6317 542.6321,339.2537 547.5129,339.1605 555.3521,327.0609 551.3937,321.8458 541.0498,318.3082 532.5587,324.7653 528.4974,330.9157"/>
    <polygon points="524.2946,359.4445 527.7042,357.2415 535.7548,349.5582 533.2523,344.8969 524.8764,331.4772 521.2334,331.4289 510.0022,343.7384"/>
    <polygon points="512.2368,349.3891 477.7083,369.7374 457.5348,383.7408 455.5088,398.9178 457.5302,405.4332 462.1132,417.9293 464.1174,420.6238 469.1443,424.1822 479.9354,421.6014 482.5442,420.218 533.86,390.0987 542.3427,383.4451 515.268,352.1702"/>
    <polygon points="494.406,352.6346 496.4302,353.7335 501.3438,353.0378 508.9423,346.679 499.3522,342.9241"/>
    <polygon points="484.1144,326.4797 481.6025,334.7391 480.1752,343.737 483.4086,346.8343 490.8859,342.7748 495.7749,330.3172"/>
    <polygon points="486.619,320.0403 477.4588,314.2939 466.6121,318.9593 471.2511,323.5695 478.7995,323.9078"/>
    <polygon points="491.6042,322.5548 502.8253,335.4987 514.5515,335.4143 535.5929,313.077 537.0239,304.5968 535.6119,299.7166 529.8287,288.1966 515.9597,286.0812 502.3351,286.7867 487.5106,289.48 482.6525,293.9319 483.5229,311.6793"/>
    <polygon points="459.6801,346.5721 467.3195,347.4606 471.3775,345.5826 474.8279,343.1423 474.9793,341.6574 472.3809,330.3035 471.129,330.493 462.3976,334.8942 458.508,342.7604"/>
    <polygon points="456.2539,348.7608 443.0473,352.6137 442.1777,356.1869 442.3912,358.3991 447.4687,363.0149 449.237,364.1919 451.2354,363.4628 453.8401,360.6856 456.5165,352.2869"/>
    <polygon points="454.5353,345.9977 455.1368,344.9206 448.795,338.0324 431.7192,335.7542 432.0658,336.9152 438.4587,348.6886 446.135,348.4482"/>
    <polygon points="462.5459,356.1206 473.0956,367.9525 487.7531,360.7572 474.2784,350.4891 470.3974,349.3041 460.7955,351.2208"/>
    <polygon points="469.0739,371.3676 470.5396,368.6028 460.0982,361.0419 451.0468,372.1162 450.0916,374.1833 454.705,378.8317 467.1426,374.0595"/>
    <polygon points="451.1745,333.0992 462.794,330.6236 465.919,325.0351 457.1593,321.8035 449.5095,326.3469"/>
    <polygon points="390.2234,374.2536 391.8113,400.5478 392.1719,400.9242 405.1607,400.5838 437.8576,398.7323 443.0474,397.6706 452.4602,388.2365 448.9816,377.957 439.4082,355.2979 425.447,334.3297 392.0185,347.9015"/>
    <polygon points="387.7176,370.8575 386.8663,370.1218 382.5502,377.0646 385.9072,378.8124"/>
    <polygon points="381.1933,369.9061 384.4496,367.3174 387.125,364.4291 379.477,360.6767 372.0861,366.8579 374.5568,370.9615"/>
    <polygon points="367.2883,371.6514 364.8323,365.5397 363.8888,364.937 359.0961,366.9433 356.9741,372.79"/>
    <polygon points="369.4858,380.2466 370.1704,387.3657 374.5351,384.7149 376.9485,375.165 370.6909,377.7099"/>
    <polygon points="357.2765,389.3873 362.4602,389.8343 363.0723,385.4664 362.4044,382.3661 360.2324,383.1014"/>
    <polygon points="352.4255,398.0503 363.793,407.5376 362.1126,394.6702"/>
    <polygon points="366.2795,409.4813 358.1177,413.3372 360.5097,417.0702 368.5032,419.0914 369.1784,410.6054"/>
    <polygon points="374.9288,408.1384 385.4613,405.3373 385.6316,397.156 374.2811,400.8666"/>
    <polygon points="379.047,394.3845 382.1294,392.9605 385.182,389.648 384.3655,382.6639 379.5781,383.5066 374.5811,387.8748"/>
    <polygon points="353.9125,377.4674 351.1858,380.1922 345.8817,389.9519 351.2653,393.5718 354.244,390.25"/>
    <polygon points="329.6766,389.3707 320.1183,405.9119 312.5069,422.2083 342.0134,438.9255 347.12,428.3484 353.4529,414.2155 355.2201,404.3139 347.4405,393.3881"/>
    <polygon points="313.8041,358.3171 315.819,373.3948 322.6269,377.5469 342.2386,383.888 352.6635,366.7423 354.4018,363.3718 337.5143,341.8527 333.4426,340.6271 320.1146,342.0268 313.6262,353.0441"/>
    <polygon points="305.5079,353.5241 300.9486,355.5921 300.6084,360.0085 308.1749,364.7604 310.799,355.9992"/>
    <polygon points="296.7115,346.9186 295.4098,350.099 296.2864,350.7839 304.0941,349.7123 302.0462,346.221 301.7047,346.1447"/>
    <polygon points="291.1446,350.199 293.3783,346.6317 291.1363,342.3661 290.0233,342.0106 284.4324,342.5953"/>
    <polygon points="290.3742,355.3955 287.7686,354.7208 283.2457,357.1584 281.131,362.0646 286.7511,366.7523 293.7806,362.3671 293.4452,357.6351"/>
    <polygon points="281.536,364.4402 279.5118,363.6655 279.7404,369.8269 281.7072,370.4202 282.323,369.597"/>
    <polygon points="291.3549,369.2168 297.7807,371.8323 306.222,368.1034 298.5814,368.4092"/>
    <polygon points="281.8492,380.3003 283.4596,380.148 289.9754,376.0996 291.3553,373.8763 288.6423,370.0222"/>
    <polygon points="272.3104,374.9416 276.1112,379.3143 276.2919,371.0671 273.1457,369.7522"/>
    <polygon points="266.4423,377.3019 264.758,379.9557 263.8738,382.2077 263.1902,387.2812 268.8298,387.0499 269.2775,383.1854"/>
    <polygon points="260.6388,369.855 260.928,363.3783 259.8402,362.4289 255.4834,364.4038 253.1657,366.9485"/>
    <polygon points="269.2222,363.2154 272.0089,358.3311 271.2093,356.53 263.907,351.6021 266.3937,357.5505"/>
    <polygon points="276.3127,353.8235 280.4689,345.5748 272.9804,340.9048 273.1759,352.364"/>
    <polygon points="292.1056,331.5071 288.9217,324.682 283.7113,328.8107 282.1533,335.6936 282.1075,339.6564 284.1914,339.7352"/>
    <polygon points="300.1411,332.3175 296.5584,336.408 297.1371,338.7111 309.2493,341.0608 308.0481,336.5423 307.4674,335.5044"/>
    <polygon points="339.6298,334.0171 338.9614,338.5555 343.9724,339.6391 348.1843,338.3377 347.7459,335.4984 346.7723,333.803"/>
    <polygon points="355.9633,345.3843 344.7392,347.9321 350.4495,356.7289 354.9509,358.5165 362.2724,358.7502"/>
    <polygon points="363.7955,340.4489 374.1645,359.4879 385.3678,354.791 384.9979,342.0877 381.4218,338.2728 373.734,332.703 367.2769,335.5277"/>
    <polygon points="353.1476,317.9494 350.5993,319.547 353.458,334.0069 358.501,339.9891 360.8707,337.7367 360.9524,323.8405"/>
    <polygon points="318.9396,290.581 313.0346,294.3311 310.3665,298.212 301.9872,316.1206 300.8199,320.924 307.1957,328.2677 320.6991,339.7797 332.2375,337.4043 344.6802,318.9718 348.2626,311.7385 338.8051,304.5182"/>
    <polygon points="329.0508,277.5471 323.8867,291.5629 349.0657,311.9443 388.668,342.7791 395.3658,341.4602 441.454,327.1673 460.7404,319.5156 478.8331,311.5391 480.6032,309.6664 484.4051,263.291 477.4197,251.1246 467.1903,243.405 437.9724,228.4116 400.371,210.8967 387.3501,212.3999 364.8391,231.6353 352.3378,245.8395 332.3015,270.9069"/>
    <polygon points="435.9069,224.2365 444.323,209.4548 442.8055,205.5878 437.7629,197.7039 428.686,184.7204 399.7545,190.5182 387.5937,196.7714 388.6092,199.6176 393.2352,206.3996 401.8,210.7809 424.1235,221.4123"/>
    <polygon points="451.7054,215.794 449.3038,209.7745 442.9309,216.0849 444.6495,228.2815 452.1298,227.1479"/>
    <polygon points="463.1383,213.5806 469.0126,215.1586 467.7911,205.111 456.2227,202.5985 454.1313,207.5802"/>
    <polygon points="471.9766,217.0117 470.7042,219.3449 473.5894,227.4989 477.5761,229.5415 484.8667,229.4343 489.8944,224.9639 487.5006,221.4049 478.7377,214.625"/>
    <polygon points="462.9441,223.4117 459.269,221.1508 457.2153,231.9676 461.2015,236.5014 469.5524,237.5906 471.6495,236.4563 474.1771,231.9724"/>
    <polygon points="480.2279,204.9489 479.2622,200.9052 476.9833,204.6492 474.7387,212.6604"/>
    <polygon points="488.5138,231.7808 476.0209,235.3137 471.6385,241.0359 485.3142,248.9455 489.427,247.2948 491.9856,243.2939"/>
    <polygon points="490.1064,247.3375 485.4881,254.7796 493.7202,255.1477 494.2054,247.7558"/>
    <polygon points="527.1182,203.2518 517.6612,203.6906 517.4285,209.204 517.6369,211.6685 523.9606,215.5675 526.4404,207.9558"/>
    <polygon points="542.804,198.2709 548.9188,194.3158 559.392,183.5071 542.917,166.0937 523.4835,150.7766 518.976,160.1494 512.2791,181.9213 512.6817,185.9874 518.2748,192.2016 536.0652,200.1818"/>
    <polygon points="436.0994,188.1378 442.8396,199.7452 447.2444,203.3915 449.1041,203.5419 467.2301,197.762 477.2812,188.4271 478.0278,180.0989 476.0235,175.2566 466.1799,162.3759 460.225,157.6235 434.8153,160.9677 432.8885,177.0303"/>
    <polygon points="382.1925,154.4822 383.3964,164.7223 388.5685,181.8826 391.0115,188.6832 409.8277,187.1626 428.8282,180.0821 432.8876,164.1352 430.3504,156.4637 421.9917,149.1436"/>
    <polygon points="334.3831,118.4837 305.8397,129.7529 265.1998,155.0324 237.8443,177.5791 226.4556,188.0822 225.2845,197.9945 227.6588,202.2565 240.2906,216.0275 286.5427,256.6294 303.0777,270.0781 317.8144,274.4482 327.1784,270.9932 339.8989,257.9163 363.3348,232.4707 380.7876,212.9684 381.8111,210.6752 383.1951,180.6798 376.9877,135.172 373.9631,117.3958 349.7443,114.4379"/>
    <polygon points="148.8675,303.8379 145.6097,319.6344 149.3874,323.8652 164.757,335.673 196.4815,353.9131 236.807,376.048 249.6281,368.1472 285.7303,324.5043 309.8044,294.5972 315.2472,287.2813 303.1874,272.7997 243.5811,219.5469 225.616,208.8448 210.3414,205.0077 178.5454,249.0068 165.1637,272.3022"/>
    <polygon points="249.1951,374.3578 246.5705,377.7221 246.3572,383.3437 256.5435,387.7066 254.3807,378.8683 253.7091,377.3421 251.119,373.8083"/>
    <polygon points="277.267,393.9763 282.7446,388.9369 276.9451,384.7741 271.9209,387.0381 271.2619,392.9821 275.0888,395.4198"/>
    <polygon points="284.0977,404.6904 296.4077,411.3232 304.6186,414.629 311.1303,415.213 320.1197,399.1198 324.2468,389.3641 321.5614,383.3038 305.114,374.805 292.1261,375.729 286.2786,385.9055 279.1187,400.2156"/>
    <polygon points="347.5106,433.1947 346.4654,441.3883 352.3503,443.3311 354.3141,434.2539"/>
    <polygon points="355.9704,431.3505 361.7887,431.6562 364.1515,425.6174 353.9626,420.4482 352.2881,426.7592"/>
    <polygon points="366.1118,437.9085 372.051,436.0858 371.9219,432.5986 366.7806,429.4135"/>
    <polygon points="367.5897,443.8998 366.6409,448.6734 368.6544,454.8575 381.9788,457.5767 369.9684,444.2094"/>
    <polygon points="362.9598,444.0894 365.3694,441.3283 361.0889,437.423 360.3857,437.6243 354.6502,445.8911"/>
    <polygon points="383.18,439.5411 377.9618,432.8848 374.1697,434.8648 373.8617,435.3538 374.31,439.9767"/>
    <polygon points="382.0942,427.1048 374.388,421.3773 370.4371,424.3959 369.7491,426.5791 374.7045,430.0196"/>
    <polygon points="384.9097,425.7094 384.898,411.8379 380.5357,412.6827 373.7744,417.3272"/>
    <polygon points="408.5761,402.0263 399.8682,406.2958 388.1896,414.0418 387.3209,415.6068 386.4863,419.591 384.6858,439.4973 385.5529,452.2361 394.2259,469.6165 427.6725,452.0174 461.3813,430.4548 464.126,424.7854 453.1703,406.4044 446.0523,398.9739 420.5799,400.1683"/>
    <polygon points="545.2915,378.397 553.8043,376.2069 563.2347,368.906 539.493,351.7374 532.2851,358.8858 530.8398,363.6503 531.2855,366.6359 538.0642,373.8982"/>
    <polygon points="690.7152,458.635 685.6557,429.4876 673.0236,381.0973 667.5617,363.314 655.7126,330.1166 652.0973,325.9248 650.1464,325.295 641.9846,328.5823 634.6931,332.3544 421.8558,455.9034 411.3427,462.133 398.968,470.2086 396.146,474.2389 397.1081,642.6276 398.5299,653.9747 434.8801,677.0962 644.2791,801.6488 648.4006,803.0546 651.9297,800.8027 662.6355,777.1033 670.1153,753.0741 676.9521,729.3107 680.7839,714.9455 683.5031,701.9681 686.7301,683.577 697.0024,605.2456 698.1398,546.8814 697.5925,533.5568 695.2401,501.9829"/>
    <polygon points="393.6247,650.2282 396.2585,639.4222 396.2988,597.0735 395.5081,503.8895 394.525,499.1677 386.328,473.5834 380.9393,467.6459 368.5252,455.3935 356.5628,448.0658 141.3081,322.7507 130.0683,348.5864 109.8964,423.1502 107.5797,432.7718 102.9964,465.0048 95.8508,535.4659 95.561,558.0448 98.377,632.2387 105.7295,673.7221 116.8098,732.544 127.1258,764.5336 129.2833,769.7673 134.7656,781.1941 142.5586,790.8302 157.0355,792.9646 165.0662,789.7913 190.4882,776.7615 343.2212,687.1409 379.3273,665.6656 390.9598,656.9094"/>
    <polygon points="648.355,812.59 648.8488,806.993 640.7854,800.7346 634.7087,796.5163 405.3005,660.7173 393.406,658.0587 186.3197,779.5956 150.2489,801.6333 147.3543,805.3242 145.2012,812.0677 162.3792,845.7319 175.786,870.3039 188.1232,889.3888 193.7694,897.1898 212.4918,920.0652 233.3424,942.2311 245.8076,954.091 269.7426,971.7963 287.9169,983.5125 304.436,991.8534 360.4894,1010.0237 372.684,1012.8447 411.7775,1013.7538 429.3454,1012.3353 469.632,1000.143 507.2974,981.2306 540.003,960.9255 557.2288,943.2377 586.4475,911.8336 607.1063,886.8996 615.3378,874.0831"/>
  </g>
</svg>
