<?xml version="1.0" encoding="utf-8" ?>
<svg xmlns="http://www.w3.org/2000/svg" xmlns:cc="http://creativecommons.org/ns" xmlns:dc="http://purl.org/dc/elements/1.1/" xmlns:ev="http://www.w3.org/2001/xml-events" xmlns:inkscape="http://www.inkscape.org/namespaces/inkscape" xmlns:rdf="http://www.w3.org/1999/02/22-rdf-syntax-ns" xmlns:sodipodi="http://sodipodi.sourceforge.net/DTD/sodipodi-0.dtd" xmlns:xlink="http://www.w3.org/1999/xlink" baseProfile="tiny" height="29.7cm" version="1.2" viewBox="0 0 793.7007874015749 1122.5196850393702" width="21.0cm">
  <metadata>
    <rdf:RDF>
      <cc:Work>
        <dc:format>image/svg+xml</dc:format>
        <dc:source>vsk save -s 16 /home/tobin/src/fabian/plotting/generation/stones/sketch_stones.py</dc:source>
        <dc:date>2022-10-11T23:35:27.987872</dc:date>
      </cc:Work>
    </rdf:RDF>
  </metadata>
  <defs/>
  <g fill="none" id="layer1" inkscape:groupmode="layer" inkscape:label="1" stroke="#0000ff" style="display:inline">
    <polygon points="313.0012,467.7793 309.9552,470.2989 306.5571,513.7327 303.2209,562.1326 306.8864,569.2245 313.2781,571.8714 325.4733,574.1282 383.137,576.1973 397.9958,556.7493 408.7516,540.5843 409.1162,530.9144 402.487,446.1854 396.0964,443.4326 343.6249,458.5343"/>
    <polygon points="307.6894,467.7305 274.5382,448.8349 268.3275,458.9714 254.0928,508.3907 255.098,510.5137 259.9374,512.4106 296.9179,516.1211 300.7629,509.5648 307.004,485.1608 308.8445,473.5121"/>
    <polygon points="321.1568,462.1512 352.7825,455.6405 400.091,440.4664 400.6078,424.9954 394.8444,394.1308 383.3127,381.2932 373.1358,374.0137 316.4436,336.9401 295.07,329.7738 294.2208,330.2292 279.9719,348.5788 257.9704,378.3873 250.5278,390.4554 247.9941,398.3886 250.3446,424.1621 258.7882,434.6459 280.3933,449.6108 292.6547,457.3357 306.8066,463.9049"/>
    <polygon points="253.1756,535.6639 252.5072,515.0053 240.6033,511.9505 211.4459,507.0027 207.9686,510.5502 205.8585,530.0163 209.9735,566.3543 211.9254,569.4422 241.4548,570.3305 248.5346,566.8196 251.8762,549.6576"/>
    <polygon points="254.876,563.9843 261.9514,571.9178 297.8323,572.6555 301.4,568.7357 305.3128,529.1782 300.4876,519.2252 299.4159,518.2829 256.7374,512.5829 254.5016,523.3443"/>
    <polygon points="210.2745,504.9657 235.0504,507.3843 248.2092,508.108 251.2238,505.6758 259.9399,479.7014 269.9272,447.1498 256.6422,436.1736 252.7226,435.1944 206.3499,469.9537 205.6955,473.2455 203.0157,494.0887 203.9795,500.9602"/>
    <polygon points="105.4423,447.1851 115.6691,452.3552 131.3261,457.1368 158.8495,464.4552 186.6933,470.2277 192.4188,470.377 207.2371,468.183 232.8391,443.6168 242.4671,433.492 247.6347,424.9611 247.9277,420.9234 246.4011,396.1452 236.861,389.4917 231.4963,386.4809 193.1833,369.0958 138.544,344.8266 132.9287,345.402 131.6588,345.9558 125.5986,366.7198 110.189,426.2975"/>
    <polygon points="95.2251,557.19 97.6411,561.8205 105.757,563.8115 117.9632,565.6898 127.1168,566.3728 155.7288,567.5027 193.253,567.5972 194.2298,567.3354 205.1892,556.8681 206.1486,554.6528 206.0211,542.1733 201.3786,485.3013 198.8346,476.6981 158.0812,464.7701 138.0319,459.8848 111.9078,454.9838 102.9884,460.7575 100.4528,477.6886 98.786,492.6262 95.9034,533.3169"/>
    <polygon points="206.3016,373.4199 204.25,367.7247"/>
    <polygon points="214.9879,378.7138 219.0871,379.2138 222.8586,376.0461 216.1342,374.866"/>
    <polygon points="210.9516,364.3562 216.1116,371.1081 219.0387,364.1864"/>
    <polygon points="211.5719,358.7584 221.9738,347.1548 224.1687,342.6925 224.91,331.1447 218.1185,326.3667 203.402,321.9016 195.5411,320.8237 187.5278,323.6318 183.1852,326.3865 178.9015,356.4445 178.7391,359.5998 183.5677,364.222 196.1152,366.5436"/>
    <polygon points="222.6481,350.0535 215.7647,358.0156 221.0938,355.011"/>
    <polygon points="231.2173,355.9961 234.799,359.3584 235.5514,358.3349"/>
    <polygon points="227.8366,369.804 227.2691,364.1844 219.9527,370.6752 224.1569,371.9825"/>
    <polygon points="230.8108,384.4152 238.3866,381.826 240.4869,379.2828 235.825,377.4081 230.912,376.0215"/>
    <polygon points="245.4791,384.6185 236.3512,388.0851 240.9194,389.8255 246.1513,389.5317"/>
    <polygon points="247.4066,375.5624 241.8471,367.2914 240.842,367.9584 238.1994,371.1696 244.1995,378.9463"/>
    <polygon points="260.3818,371.9906 265.1341,367.311 271.3147,358.7652 258.1782,335.8448 255.3702,332.595 251.5484,330.3726 229.0536,334.5624 227.4462,340.6121 228.6544,344.967 236.8704,358.8274 246.9146,367.7957"/>
    <polygon points="274.6594,354.03 293.0424,327.3089 291.2692,323.1431 288.2145,318.5821 280.8628,313.5384 274.6657,310.8549 261.3401,322.0583 258.2961,333.9022 265.6795,344.1202 272.6985,352.9236"/>
    <polygon points="253.5299,328.9175 247.2189,313.8979 244.7155,314.4282 244.9714,324.4106 245.6442,325.7346 248.9117,329.2933"/>
    <polygon points="261.1425,320.4441 263.4512,317.8526 256.3849,317.1681 259.4042,320.306"/>
    <polygon points="266.4103,305.1423 260.3849,300.2168 254.501,304.0535 256.88,307.0348 267.1448,307.2736"/>
    <polygon points="249.7266,294.2474 245.496,295.7987 242.5099,298.8966 240.5408,306.154 246.0767,307.9379 251.5763,304.7834 253.3557,297.606"/>
    <polygon points="236.6511,289.5585 230.6087,298.8824 238.3931,298.0392 242.6736,293.0702"/>
    <polygon points="229.3098,280.3046 220.3625,275.9429 209.8006,271.5738 196.9618,284.7308 189.1013,296.1948 189.5683,302.6604 192.7416,310.3798 198.144,313.9641 209.2884,318.1804 218.7334,318.9416 227.4369,298.1677 230.9557,288.6357"/>
    <polygon points="236.8609,317.492 227.5381,324.5851 237.8758,327.8783 238.923,319.7607"/>
    <polygon points="225.1289,318.5637 232.2664,307.7878"/>
    <polygon points="187.127,319.891 186.5803,310.0541 184.5041,299.2909 176.2134,291.3694 162.7933,285.4531 160.8115,285.253 153.4222,295.2898 145.594,310.9988 148.7716,314.7569 167.4804,323.8336 178.2835,324.2863"/>
    <polygon points="187.9129,289.308 194.4561,285.4677 205.6796,265.2605 198.1588,259.1173 181.4367,247.9384 169.5129,265.2977 169.8422,284.263 181.9195,291.1623"/>
    <polygon points="135.7498,336.0012 135.1196,339.691 140.4032,345.2214 160.9605,354.0052 168.3861,353.3993 176.5688,351.0303 177.3861,345.1631 175.126,328.4084 164.5882,324.1898 144.7351,321.5206"/>
    <polygon points="412.3875,539.8668 440.5765,542.9694 496.1524,544.819 497.462,543.5532 500.0814,533.8254 501.7639,516.2682 503.3346,442.1352 472.3141,429.3071 454.1134,422.6443 414.1038,408.7744 404.7136,409.0394 403.8445,409.4615 403.8106,450.7339 407.8242,506.0898"/>
    <polygon points="427.2659,543.2327 415.5338,545.1933 408.0148,546.9221 391.7152,566.4752 385.649,574.6197 384.5876,584.0429 388.6913,648.5469 394.6466,717.1252 399.1876,732.8898 415.2072,743.8321 612.5062,870.8573 620.0423,864.8044 624.2747,858.1809 641.9327,825.5615 651.1377,807.1186 659.0371,785.5942 674.8697,738.3832 683.757,704.3235 692.9162,654.7865 695.0253,632.3101 698.4757,562.7726 696.2798,555.5288 694.4377,553.4439 684.0414,552.4885 611.388,549.6768"/>
    <polygon points="597.7715,505.6181 606.3569,454.8468 563.015,420.3021 552.7213,414.3161 543.0795,417.0977 533.955,422.2491 513.6348,434.6564 509.1503,442.406 504.4588,454.2708 503.6153,458.9394 502.3552,514.3147 504.1245,533.2017 505.2187,541.4098 514.87,545.3261 539.7471,546.6 567.3019,546.0379 589.182,540.8742"/>
    <polygon points="610.5015,491.8646 614.9223,475.3617 613.2332,473.8337 604.0573,481.6544 600.879,492.3827"/>
    <polygon points="628.6738,496.1461 634.6397,496.0402 631.5684,485.6045 626.4885,476.6487 621.868,481.014 617.7882,491.1068 626.0522,495.5484"/>
    <polygon points="647.3072,501.8119 643.333,499.8484 629.5006,497.5464 613.0643,497.7945 599.0513,505.1565 595.9141,521.3329 595.7493,547.0107 629.5764,548.9523 637.1327,547.8715 645.1547,540.9907 646.1127,536.924 647.7831,521.3378"/>
    <polygon points="659.4261,496.0527 686.2839,493.5644 694.2501,491.828 694.8867,490.9642 692.0173,471.9408 687.3466,447.0939 682.6117,439.1835 675.7841,435.6227 655.6042,441.1016 653.5393,442.4989 651.6394,445.1894 648.8009,459.9883 649.9808,475.6152 652.4074,490.8153 654.9866,494.6669"/>
    <polygon points="641.0702,479.5832 637.8253,480.5877 637.1276,484.9492 640.2647,492.1312 645.2658,498.4659 648.9711,497.4118 647.6281,480.0862 647.0596,479.4724"/>
    <polygon points="627.8757,471.6692 641.2695,476.6617 647.7456,472.7322 647.9783,470.3604 647.1342,460.052 645.3033,458.3273 629.0891,463.6994"/>
    <polygon points="628.0092,457.1093 639.4138,455.7612 640.9182,455.199 644.4516,447.0821 639.0431,446.2654 626.5704,447.7895 625.7913,449.6157"/>
    <polygon points="606.8654,467.3903 622.0513,463.6361 620.701,457.3359 611.6504,453.8542 606.4053,459.3928 605.6899,467.4335"/>
    <polygon points="696.83,515.7643 695.2169,495.4123 664.1988,497.3136 652.267,499.7032 650.1072,503.3502 648.7956,532.6419 650.7494,547.4646 655.4805,551.2499 688.2403,552.2472 694.7818,551.434 698.4589,550.2839"/>
    <polygon points="568.5155,356.7527 560.4365,365.74 555.0155,397.8972 553.3199,409.9019 600.8246,448.1165 609.5419,451.7554 667.8558,436.1134 678.1696,429.9878 684.9196,423.0999 664.9114,351.4896 653.2233,323.5642 649.8292,322.3897"/>
    <polygon points="514.0346,314.2941 505.0712,308.4047 493.9021,305.949 398.4676,390.0371 418.5886,405.8906 424.7115,408.9367 442.862,416.6473 479.3936,430.8514 496.4997,434.6631 504.8295,435.9021 508.635,435.5053 535.4231,420.7507 544.7258,413.7518 550.4288,403.7132 552.5001,398.2425 554.9767,385.7089 557.0504,364.111 555.0221,360.744 553.2379,358.5417 537.337,339.9618 519.2891,319.1587"/>
    <polygon points="628.5471,271.4264 623.6556,263.8043 596.2297,223.8097 583.1346,227.8035 513.3945,289.4379 510.3671,292.6593 509.4763,294.8822 513.5288,310.4556 519.8573,317.9929 547.4346,345.8062 556.5747,351.1929 583.949,347.6631 591.0763,346.1572 645.4324,323.4996 648.5496,318.2854 642.7292,299.6509 633.8557,281.0986"/>
    <polygon points="531.7692,156.0912 506.4035,139.5915 479.5605,127.191 473.3239,124.8946 445.816,116.1033 416.9131,109.5986 399.96,108.6847 392.2286,108.6297 365.4447,111.1084 334.4472,118.3167 293.0023,136.7578 266.7757,153.4052 262.8031,156.2291 244.9291,170.8109 221.9969,193.0247 203.7405,214.4753 187.4888,237.8877 187.1674,240.5545 188.7316,249.6715 198.124,257.5371 289.1869,318.4817 364.9058,367.7014 382.361,377.8112 399.4259,384.2053 404.9238,381.798 448.9581,345.2114 520.7927,281.9874 560.0961,246.2205 589.7182,217.9569 580.9897,203.082 543.919,166.5241"/>
    <polygon points="165.0711,851.7268 173.9781,866.1459 184.2045,880.2532 199.041,899.1033 200.7973,899.7194 351.9774,768.1733 381.1143,742.5132 389.9237,732.734 393.2673,723.6493 393.3464,713.4537 388.4454,648.4969 381.5221,580.9996 367.7581,576.9617 357.8609,575.998 109.3706,565.9353 95.9768,565.9688 95.3489,568.1578 98.9773,626.6426 101.8627,654.2783 110.7709,703.351 122.5264,749.4576 131.8911,777.1605 139.6371,797.3839"/>
    <polygon points="254.5617,960.4159 284.5441,981.9219 299.3715,989.6603 316.4416,997.8618 348.534,1007.2327 359.3276,1009.1171 383.1148,1012.5444 410.7971,1013.89 421.4806,1013.2856 449.1882,1007.7178 487.9961,993.5478 505.2006,984.6082 521.596,972.3165 575.4832,926.8219 579.2758,923.0679 592.7387,907.0936 614.5288,876.1475 602.7896,865.406 422.7885,749.2223 394.7908,733.6117 362.7266,759.8551 324.0164,792.8605 268.9353,840.8155 199.3989,902.5819 207.5331,914.3271 223.0541,931.4884 241.4695,948.7076"/>
  </g>
</svg>
