<?xml version="1.0" encoding="utf-8" ?>
<svg xmlns="http://www.w3.org/2000/svg" xmlns:cc="http://creativecommons.org/ns" xmlns:dc="http://purl.org/dc/elements/1.1/" xmlns:ev="http://www.w3.org/2001/xml-events" xmlns:inkscape="http://www.inkscape.org/namespaces/inkscape" xmlns:rdf="http://www.w3.org/1999/02/22-rdf-syntax-ns" xmlns:sodipodi="http://sodipodi.sourceforge.net/DTD/sodipodi-0.dtd" xmlns:xlink="http://www.w3.org/1999/xlink" baseProfile="tiny" height="29.7cm" version="1.2" viewBox="0 0 793.7007874015749 1122.5196850393702" width="21.0cm">
  <metadata>
    <rdf:RDF>
      <cc:Work>
        <dc:format>image/svg+xml</dc:format>
        <dc:source>vsk save -s 15 /home/tobin/src/fabian/plotting/generation/stones/sketch_stones.py</dc:source>
        <dc:date>2022-10-11T23:35:25.033565</dc:date>
      </cc:Work>
    </rdf:RDF>
  </metadata>
  <defs/>
  <g fill="none" id="layer1" inkscape:groupmode="layer" inkscape:label="1" stroke="#0000ff" style="display:inline">
    <polygon points="567.2295,202.8383 543.146,225.5774 522.3829,245.5511 484.1317,283.97 479.1838,294.8467 540.1756,366.7627 542.5236,368.6501 549.8814,367.7113 559.2114,365.9708 626.1675,331.9767 644.4519,320.7632 644.6937,307.3013 642.1493,298.9047 635.722,284.9979 628.4663,272.2379 615.0357,249.8765 594.2,220.2445 580.9308,204.6209 573.6313,198.9123"/>
    <polygon points="419.3726,109.875 385.3414,109.0897 359.1189,112.198 347.0539,114.8935 333.0293,119.3249 281.0247,143.864 256.354,161.1158 231.6025,184.2124 222.6468,193.8802 211.6938,206.4928 217.21,215.3149 383.0333,359.5834 396.1006,364.0544 423.6357,339.8391 552.4238,216.4317 569.2944,199.8693 570.5399,193.4671 560.1721,181.3479 539.5999,163.2278 518.1055,147.2239 483.9142,127.9623 469.3382,122.2788 453.646,116.8827"/>
    <polygon points="324.1372,327.2742 330.5525,315.7426 315.3293,301.8759 301.6709,320.1722 301.2868,324.5232 313.1133,333.4291"/>
    <polygon points="325.601,329.3738 323.9235,338.8838 331.4703,345.353 333.3888,346.5487 340.4633,346.6275 351.5844,339.6962 349.6944,336.0121 343.8573,326.4314 335.336,321.5816 330.9854,324.0181"/>
    <polygon points="324.3794,341.8993 312.3155,344.3335 307.7572,361.0814 323.1791,367.1709 330.8101,363.5486 333.2924,357.8552 326.6963,343.1897"/>
    <polygon points="303.513,353.9613 309.2908,347.3597 312.2134,341.1461 305.7304,332.1337 297.8959,327.9456 292.3457,329.3381 279.3387,345.3132 297.0759,353.6972"/>
    <polygon points="336.1283,372.7248 341.5328,369.2361 349.8667,358.4882 347.6522,357.0143 340.158,356.1132 338.8552,356.8941 337.7177,358.75 328.9806,375.7845"/>
    <polygon points="346.2405,377.2619 348.1006,379.5882 351.3813,379.5384 353.736,378.5349 362.9684,368.3363 360.7104,365.465 351.3235,361.8309 347.8078,369.9701"/>
    <polygon points="356.3397,395.891 362.2304,400.3509 370.9129,387.8362 371.9578,382.5682 368.8847,377.5476 358.9884,381.629"/>
    <polygon points="361.0894,403.9736 354.0791,401.956 347.2211,405.4788 342.344,408.5249 350.7084,420.4479 355.6831,420.8973 358.2229,420.6226 362.8827,417.4641 366.2635,412.9085"/>
    <polygon points="371.3928,407.4841 370.5011,409.3528 371.2054,418.6279 378.4412,423.401 392.6783,412.0069 387.312,407.6734"/>
    <polygon points="374.2878,394.5707 380.1586,405.013 389.8094,400.3034 392.7432,395.3831 392.6622,391.7679 377.5934,389.6544"/>
    <polygon points="373.018,374.3777 384.0102,380.7929 389.4099,369.7311 389.7034,368.5476 384.2059,362.4745 380.2435,360.2166 374.4937,359.0375 364.896,363.4455 368.9921,371.48"/>
    <polygon points="357.5448,358.1634 362.849,359.4977 366.6516,357.0395 370.5204,350.2601 356.0865,338.6347 352.4786,341.0862 346.4152,347.9558"/>
    <polygon points="338.358,398.0118 352.1939,398.4063 352.4194,389.6451 351.1429,386.7434 348.3014,382.0394 332.3891,380.6563 334.1415,388.4326"/>
    <polygon points="337.1695,421.1731 341.0138,418.5763 338.9085,407.619 331.7612,400.8694 316.694,418.2629 318.0265,420.1005 322.9465,424.2775 325.8078,424.1647"/>
    <polygon points="327.3797,429.6966 326.1949,429.1797 309.0132,433.6734 311.2685,438.1335 319.9369,447.767 323.1656,448.5277 327.0066,447.7887 330.0864,446.437"/>
    <polygon points="335.3696,440.6074 346.5711,447.1031 355.9475,432.1992 350.9149,425.136 348.6524,424.3302 335.4141,427.9547 334.0096,439.1487"/>
    <polygon points="348.149,449.5159 350.0509,454.0664 355.7147,463.3242 370.2728,451.2731 371.1941,449.4699 368.8161,447.2968 361.9212,441.9843 354.268,440.5311 351.4302,442.7789"/>
    <polygon points="346.2339,457.6242 340.2689,448.4622 332.4822,454.2245 330.1356,458.8386 345.495,471.2754"/>
    <polygon points="362.461,439.3497 377.9792,444.6554 380.018,444.1614 376.7029,427.1535 369.4685,427.8859 358.3807,434.4691"/>
    <polygon points="381.4363,433.3877 391.6735,435.8189 393.4134,432.9183 391.9306,422.8258 384.6715,423.7938 383.3393,425.5542 381.3665,432.4967"/>
    <polygon points="273.4608,399.3564 252.8507,377.8353 241.1334,380.1377 230.8334,382.7086 225.9683,389.9053 224.1184,394.7141 194.3258,492.3912 194.4133,506.1472 199.5277,508.7626 211.3459,512.3891 249.5961,519.1232 260.6109,520.4061 271.7084,517.9189 288.6562,510.6709 306.7346,498.5181 326.2808,483.6775 340.4862,472.0667"/>
    <polygon points="257.2832,374.018 264.3913,388.2388 292.9126,418.9967 302.6611,428.8909 307.9425,424.995 324.2748,406.5356 328.7775,400.6429 329.8718,396.0086 330.0245,393.0706 328.1021,386.3298 320.298,372.7524 308.7225,364.8621 294.3846,356.5462 290.52,354.7982 281.5312,352.3001 275.3294,351.4715"/>
    <polygon points="209.5259,374.8218 161.488,351.0203 136.2406,343.4226 120.8837,378.2724 109.9763,423.0788 105.6423,443.64 100.7775,469.9251 99.0106,485.2802 101.1138,488.2257 136.5219,498.3899 158.9856,502.7466 179.8416,505.8609 190.8094,494.6778 193.3756,489.052 205.1168,454.3496 221.3142,399.3984 222.9847,385.673 218.3263,380.6971"/>
    <polygon points="172.1289,260.6296 164.4931,273.0505 158.7095,282.7837 148.6372,303.2142 136.8657,332.7508 138.1534,337.5558 219.8992,377.8167 226.8163,379.5535 250.6744,376.6693 253.2077,375.2375 311.1558,301.7912 308.7156,296.5976 293.3227,282.6345 263.5004,255.9952 210.0444,210.6943 200.2983,219.1199 193.148,229.025"/>
    <polygon points="156.5804,502.5932 132.1152,498.2594 104.3054,494.718 98.5496,507.6465 95.4671,529.9628 94.9031,564.9864 95.7418,591.9717 100.9435,646.6831 103.5078,665.6991 117.6767,730.5012 126.5838,763.1611 145.6991,803.0927 151.8777,802.4943 159.686,799.698 219.5093,769.8035 269.625,744.2822 310.203,721.1553 313.9383,718.575 314.9472,715.0774 315.2685,708.0011 288.7671,591.0331 275.6722,534.9219 271.0743,530.5659 260.9883,523.3229 255.7148,521.4322 249.8894,520.0924"/>
    <polygon points="423.9448,732.0411 414.2062,735.7789 414.2646,737.0612 422.8833,734.1305"/>
    <polygon points="431.0074,736.625 431.3032,741.6863 435.7189,738.2727 433.7098,736.7599"/>
    <polygon points="421.1801,743.8575 427.3369,752.9649 426.574,743.7731 425.6954,743.5341"/>
    <polygon points="418.1922,749.5133 416.9717,748.1322 410.0613,742.6864 402.7835,747.6349 398.7088,753.0199 401.3413,769.262 404.1114,777.6316 407.3719,777.8324 426.4097,767.8718 425.6112,760.521"/>
    <polygon points="439.7066,753.1345 444.181,749.8564 445.682,745.8252 440.9804,742.0882 438.2051,747.5999"/>
    <polygon points="440.4194,755.009 441.0208,762.3694 444.6124,766.5377 446.1195,758.9561"/>
    <polygon points="433.3588,767.0403 429.66,767.6137"/>
    <polygon points="437.5503,770.4527 434.9617,770.8762 436.62,774.645 443.1451,771.1151"/>
    <polygon points="441.4913,779.39 433.3513,776.1826 437.0872,783.136"/>
    <polygon points="452.8172,776.1855 447.0418,771.1093 449.942,778.1425"/>
    <polygon points="462.8757,769.8597 454.6044,766.5007 454.9341,769.9024 459.0888,773.3812 460.212,773.9888"/>
    <polygon points="457.2772,761.6579 455.4551,756.5695 447.5079,755.47 451.3435,764.5102"/>
    <polygon points="449.8967,737.8744 448.7948,740.2493 450.81,743.3784 451.4009,743.4645 451.7789,740.155"/>
    <polygon points="446.2802,731.8203 442.066,734.1833 442.021,736.5629 447.7119,736.9722"/>
    <polygon points="449.3544,725.1675 449.5999,723.374 449.1931,721.543 445.5862,722.3326"/>
    <polygon points="440.3095,726.1535 435.8245,730.905"/>
    <polygon points="454.4464,716.2019 449.6257,718.3494 455.0539,720.5932"/>
    <line x1="457.6051" x2="460.5973" y1="714.0356" y2="715.3904"/>
    <polygon points="471.3129,719.5375 468.3306,715.6465 465.9912,717.3969 468.4738,720.0459"/>
    <line x1="474.227" x2="475.1291" y1="715.7626" y2="714.9509"/>
    <polygon points="476.4036,710.2427 483.3189,708.3002 478.7033,709.2231"/>
    <polygon points="471.911,706.9815 471.6201,707.2599 471.901,707.5483 472.187,707.2648"/>
    <polygon points="478.7262,701.333 490.4359,691.8217 495.353,662.6863 504.0027,527.4869 503.677,510.0665 424.7392,455.5504 398.1981,438.5344 387.6479,440.379 307.8982,499.1759 274.8648,527.0958 297.2466,626.4918 314.3646,697.4765 317.493,705.5711 324.123,719.0174 325.9665,721.7577 393.7053,743.226 417.5805,733.4917 431.163,726.8927 452.6786,715.6588"/>
    <polygon points="489.4985,703.7583 489.4929,700.1757 487.2714,701.0936 485.3547,703.0919"/>
    <polygon points="491.8908,701.5701 494.204,705.2049 494.1445,700.3148"/>
    <line x1="503.7784" x2="505.248" y1="700.9639" y2="701.8547"/>
    <polygon points="498.1935,712.0858 499.761,717.3798 501.8243,711.6084"/>
    <polygon points="489.5172,722.4486 489.3443,717.9183 488.2994,715.5775 484.7407,714.3706 488.6215,721.7074"/>
    <polygon points="486.2618,728.9515 485.9709,729.2299 486.2518,729.5183 486.5378,729.2348"/>
    <line x1="481.4569" x2="479.8765" y1="724.3182" y2="721.0271"/>
    <polygon points="473.58,726.0831 477.1384,728.8968 471.9986,722.5675"/>
    <line x1="469.303" x2="466.2389" y1="732.0547" y2="727.5119"/>
    <polygon points="457.7281,729.7982 454.2659,727.5965 453.011,728.6359 454.5855,735.07"/>
    <polygon points="490.2479,739.8704 496.0374,739.8662 497.5851,730.6939 493.6927,729.6818 487.1248,734.9602"/>
    <polygon points="498.3296,743.1419 494.6401,742.2266 491.6413,746.0926 491.0417,748.5467 490.7316,756.4554 499.4502,748.0886"/>
    <polygon points="486.8672,751.509 482.2547,734.9577 457.4916,743.5709 457.1587,747.801 460.8525,761.0339 468.9031,766.0622 489.1385,765.7473"/>
    <polygon points="497.8226,759.4926 499.0995,759.6581 504.9912,757.7095 513.2078,751.6998 509.7324,750.8553 505.3203,752.0824"/>
    <polygon points="508.1477,756.7633 504.2531,763.7631 510.5873,764.1964 513.1702,761.22 514.9689,757.4655"/>
    <polygon points="508.3775,773.7403 511.4813,773.8024 514.8224,769.0665 513.6572,766.6719 512.105,767.7596 508.6778,771.6904"/>
    <polygon points="513.8253,783.9681 514.1033,784.209 525.6646,781.3607 520.8961,776.757 518.6411,775.8217"/>
    <polygon points="520.6987,792.0671 513.3269,800.7185 526.8395,799.9945"/>
    <polygon points="530.4424,790.4393 530.1664,790.1559 529.8755,790.4343 530.1564,790.7227"/>
    <polygon points="522.4706,770.9152 530.266,776.4939 530.9984,775.1931 529.4184,766.5978 527.6799,764.6446"/>
    <polygon points="524.0158,764.0824 522.8644,760.2034 518.1525,759.382 521.5136,762.418"/>
    <polygon points="532.7035,763.2088 543.4283,749.6552 539.9409,740.5421 535.9327,732.6717 533.1375,730.7762 528.5851,730.1344 519.6391,735.0445 517.5857,736.9521 518.015,744.6172 519.1121,754.2559 530.6215,762.5514"/>
    <polygon points="548.6147,751.1388 549.8512,746.435 545.0603,744.9324"/>
    <polygon points="547.4575,738.8744 546.9696,733.9485 543.2345,737.395 542.4147,738.5688 544.3664,741.6755"/>
    <line x1="554.2396" x2="554.2825" y1="737.9037" y2="737.4944"/>
    <polygon points="546.3513,729.2479 548.9152,727.2566 549.2584,725.1372 546.8936,720.802"/>
    <polygon points="542.2038,729.2864 536.5118,725.0304 536.0429,729.7427 537.7276,732.8092"/>
    <polygon points="541.1863,719.0698 541.7949,717.2116 538.8021,720.9994"/>
    <polygon points="528.8512,724.2303 532.421,713.125 514.5739,704.3632 502.8788,716.717 500.2386,724.4185 509.2944,729.0961 517.9292,729.2545 521.4449,728.5227"/>
    <polygon points="514.2374,739.8797 507.8497,734.8226 502.8116,738.0374 507.3348,744.3351 512.4977,744.9838 514.444,742.6708"/>
    <polygon points="497.8134,779.5839 503.6037,780.9473 504.8394,773.7502 499.5806,766.5471 494.3094,774.1734"/>
    <polygon points="480.6227,803.2364 481.4663,802.8606 495.3789,783.09 490.9227,772.6305 480.3677,768.7597 470.1162,769.4351 465.6041,772.1306 458.0987,784.2536 461.6092,788.3109"/>
    <polygon points="476.4834,817.2214 470.0957,815.3411 416.4377,819.3147 410.5807,823.7777 410.1305,832.5728 420.8914,905.3702 424.088,916.3832 449.1619,909.8164 497.0937,895.7227 503.4657,884.8379 493.7673,851.342"/>
    <polygon points="459.5827,790.5803 452.8531,786.9247 444.0586,796.0041 436.2733,814.1821 437.6653,814.8516 441.6707,815.188 466.1043,813.9858 475.8494,812.3734 470.9972,801.0574"/>
    <polygon points="437.2964,799.2813 436.9938,793.4084 434.433,782.6173 429.4813,777.7642 424.6955,777.4591 418.0802,777.9951 404.0338,782.4924 404.2139,786.6734 407.6999,806.0356 415.4915,816.8012 435.965,801.4754"/>
    <polygon points="504.8944,833.5975 487.7793,838.2124 500.0481,861.8872 507.6731,874.3756 510.7872,873.2302 524.8855,866.7667 526.4517,863.6503 519.1979,846.4381"/>
    <polygon points="507.2502,831.4111 511.1453,817.0463 510.7904,791.113 506.1092,788.7898 492.7735,791.8682 484.8066,802.0139 481.1843,809.771 480.3824,822.4897 492.2108,835.176"/>
    <polygon points="514.7099,830.79 520.5646,829.1781 519.2394,825.6658 514.5555,825.1847"/>
    <polygon points="527.6445,819.8647 526.879,818.3587 521.5974,816.359 515.9695,819.1935 523.9117,821.2978 524.9934,821.232"/>
    <polygon points="529.8665,814.2751 532.8547,813.1855 532.3812,811.8552 529.2837,806.8193 527.4744,810.6702 527.6539,813.628"/>
    <polygon points="522.6406,812.2273 523.4025,806.8534 520.8571,807.1647 512.5029,809.5839 514.9734,812.4364"/>
    <polygon points="539.7826,811.3523 536.711,804.8856 534.6986,805.5231 535.1493,814.7442 541.2112,815.7512"/>
    <polygon points="536.4468,824.4094 538.7902,825.4852 542.2243,820.654 542.3893,819.555 532.3218,819.3935 531.7508,820.5601"/>
    <polygon points="547.5228,823.4627 550.1061,825.0364 547.8677,821.6844"/>
    <polygon points="555.4068,820.1421 555.8607,825.6517 557.4432,827.3622 563.0651,822.3564 562.3968,818.3541 556.6963,818.0593"/>
    <polygon points="563.4851,813.2523 564.5198,812.4321 565.5235,809.3379 564.6841,802.8339 561.4595,791.6987 552.4989,787.5185 542.0977,786.7526 534.6258,786.8642 533.4801,791.8785 545.5971,816.8453"/>
    <polygon points="570.3192,814.3945 569.7018,812.4878 563.4228,815.6028 568.6919,821.1181"/>
    <polygon points="570.4761,809.8982 572.8793,811.5478 577.2,810.0581 568.8714,803.0232"/>
    <polygon points="582.9566,807.1746 575.9976,813.2251 578.8135,822.8548 587.5657,814.8942"/>
    <polygon points="581.9717,794.1755 578.5915,793.2393 576.6985,799.9785 583.7296,803.7142"/>
    <polygon points="592.7417,793.9732 589.1777,786.6026 587.4315,786.4967 581.3758,791.4747 588.3214,799.1079"/>
    <polygon points="600.4377,803.64 600.4757,801.5179 587.6841,808.0792 592.1925,811.1147"/>
    <polygon points="597.4289,780.3381 593.5503,777.8679 591.2952,779.5607 598.5488,789.5211"/>
    <polygon points="590.7131,770.2862 592.774,768.8392 595.9872,763.4255 584.5711,749.5792 580.0414,761.0241 581.7295,765.1336"/>
    <polygon points="579.1008,777.2263 586.541,775.3327 585.3421,771.8383 583.6721,768.1958 574.9288,763.6717 573.429,776.7153"/>
    <polygon points="568.2242,777.1476 570.0718,784.1041 572.5814,790.8099 581.0959,784.525 581.5463,783.4831"/>
    <polygon points="566.8319,770.4599 564.3742,762.2105 551.5575,752.139 544.5911,755.8165 534.5725,785.2281 546.6374,785.3927 558.4945,783.14 564.8553,778.3734"/>
    <polygon points="566.8663,784.0926 563.0111,788.1613 565.8188,796.2355 568.6294,786.0371"/>
    <polygon points="601.7987,758.4196 597.2891,766.2487 596.5542,774.7486 608.7051,784.3219 612.49,782.1918 616.0388,767.1046"/>
    <polygon points="611.1757,748.1303 610.087,745.1432 604.3751,741.2698 592.7348,736.1413 586.5161,743.8492 589.6069,748.689 598.0493,753.2398 604.4785,753.0589"/>
    <polygon points="627.286,757.9986 626.1577,748.6433 616.1952,747.5936 614.9313,748.7537 613.0829,761.5082 622.7784,767.2537 626.4127,761.7351"/>
    <polygon points="632.3541,756.2948 624.9731,765.719 618.5214,777.1676 611.2507,792.0523 624.3233,803.1066 631.7423,807.9405 638.1665,811.0211 647.3826,812.1797 660.5516,780.1667 663.8718,766.1204 636.6779,753.9815 635.2656,754.2463"/>
    <polygon points="571.283,727.0847 555.6137,749.8579 561.8317,757.4653 574.2421,763.5199 586.81,737.8641 584.464,733.8666"/>
    <polygon points="564.6719,727.8464 557.4675,728.1631 556.3793,729.6509 561.1082,734.5329 563.7746,730.0835"/>
    <polygon points="561.5121,724.7583 561.7823,723.6657 556.825,721.5876 555.0706,725.9352"/>
    <polygon points="571.592,829.4317 566.8674,827.7708 565.5776,829.0294 572.4878,831.5529"/>
    <polygon points="560.7936,835.7536 556.2017,834.3932 555.8191,839.7242"/>
    <polygon points="559.218,842.2317 555.2753,842.2839 551.6027,844.5353 554.9937,852.986 560.3834,848.15 562.0571,846.1741"/>
    <polygon points="549.0574,835.7344 554.6546,831.8196 550.5347,829.425"/>
    <polygon points="537.794,858.9074 547.372,856.0808 551.0013,851.8822 540.8391,830.0062 532.6304,829.0575 519.9598,833.2436 518.0031,834.9831 516.1971,837.518 524.1998,854.3775"/>
    <polygon points="574.7401,844.2799 576.8249,837.706 572.3294,838.7794 565.5065,842.1469 571.739,844.1683"/>
    <polygon points="621.3091,860.1849 632.425,844.623 639.7121,825.967 638.0145,813.8816 615.2358,802.4849 609.4061,800.4399 607.4294,800.455 590.5034,816.5796 583.7319,825.3262 586.0577,841.2895 593.8444,846.8411"/>
    <polygon points="545.3601,954.5159 572.6417,929.2778 602.256,893.1668 617.3223,867.0474 603.5558,853.8096 595.7195,849.8502 572.6481,847.0834 519.8946,870.01 506.2197,876.302 502.1779,891.7567 504.4591,898.7027 517.2143,919.7236"/>
    <polygon points="476.6557,996.91 488.7693,991.3622 509.9073,980.3286 524.0254,969.193 537.5713,956.2035 536.429,949.0444 508.7833,908.6282 500.0732,897.8705 494.1777,898.0977 438.3725,914.5445 426.4146,921.6602 425.8012,923.3527 424.7569,928.8766 433.5513,986.886 436.0219,1000.2332 442.6986,1002.7602 448.972,1003.8168 469.6271,998.9086"/>
    <polygon points="253.9399,961.2213 281.0235,980.2636 301.5407,991.3611 325.0018,1000.3817 351.4306,1009.0427 372.8981,1013.43 398.8411,1012.3834 433.6208,1008.2022 432.2221,991.9183 414.724,865.5168 398.4292,760.0298 393.6875,746.7035 390.1992,742.4608 327.4254,722.7823 311.5831,725.2285 303.1921,727.6569 192.6394,784.0503 165.8965,798.3262 149.0448,807.7147 149.5294,817.4369 161.1469,844.9398 166.868,854.6792 194.8433,894.9224 210.9864,917.5863"/>
    <polygon points="600.9236,484.9368 599.0114,478.3665 584.2009,441.5254 561.4651,392.466 554.2105,377.7103 544.7324,370.3948 527.5573,382.3705 449.8065,461.2601 451.0428,471.1566 465.8609,483.3444 503.7514,508.4669 511.5609,507.6476 556.6608,498.3035 600.4762,486.6353"/>
    <polygon points="655.7256,473.4927 533.64,505.0327 514.4595,510.7464 510.6246,512.8136 506.4914,515.9874 499.5759,610.2809 493.9881,691.9472 514.1184,703.0893 586.3308,732.5121 600.8569,738.3511 654.2541,758.3766 666.199,761.693 677.7957,727.6175 687.746,681.5137 693.4476,648.3252 697.3936,607.5522 698.7977,554.6058 697.6442,517.9911 694.7233,488.4275 690.6127,466.5204 686.9745,466.0732"/>
    <polygon points="673.218,380.1559 662.3961,346.3387 655.9562,330.2191 652.7264,324.6521 648.0099,321.687 587.9868,352.7432 570.0146,363.7139 565.4299,368.735 559.0647,378.1279 557.6769,380.977 587.2441,447.9105 601.3375,474.45 608.2908,482.6111 611.5751,484.6137 628.0699,480.485 666.0471,468.9275 680.0511,463.5343 688.5052,450.3238 687.5437,444.3521 677.344,395.2946"/>
    <polygon points="520.3993,388.9899 537.1549,371.2118 532.6624,360.9411 526.8061,353.1157 515.6476,339.6208 490.7834,311.167 474.7284,293.963 470.4266,295.8607 438.9254,325.5406 418.7462,346.4833 412.6246,353.278 396.5836,372.927 393.8204,385.2847 394.7069,412.5327 396.4391,432.0504 402.3993,437.9105 418.7094,450.4284 431.6408,456.4775 446.4285,460.2363 463.5564,445.0547"/>
  </g>
</svg>
