<?xml version="1.0" encoding="utf-8" ?>
<svg xmlns="http://www.w3.org/2000/svg" xmlns:cc="http://creativecommons.org/ns" xmlns:dc="http://purl.org/dc/elements/1.1/" xmlns:ev="http://www.w3.org/2001/xml-events" xmlns:inkscape="http://www.inkscape.org/namespaces/inkscape" xmlns:rdf="http://www.w3.org/1999/02/22-rdf-syntax-ns" xmlns:sodipodi="http://sodipodi.sourceforge.net/DTD/sodipodi-0.dtd" xmlns:xlink="http://www.w3.org/1999/xlink" baseProfile="tiny" height="29.7cm" version="1.2" viewBox="0 0 793.7007874015749 1122.5196850393702" width="21.0cm">
  <metadata>
    <rdf:RDF>
      <cc:Work>
        <dc:format>image/svg+xml</dc:format>
        <dc:source>vsk save -s 11 /home/tobin/src/fabian/plotting/generation/stones/sketch_stones.py</dc:source>
        <dc:date>2022-10-11T23:35:07.823244</dc:date>
      </cc:Work>
    </rdf:RDF>
  </metadata>
  <defs/>
  <g fill="none" id="layer1" inkscape:groupmode="layer" inkscape:label="1" stroke="#0000ff" style="display:inline">
    <polygon points="406.9052,667.7726 408.6666,659.221 401.7253,640.9031 372.7759,573.9437 363.0258,566.9715 126.1909,555.7256 105.5448,555.2463 95.6169,558.4626 96.0281,579.6975 100.0012,639.2043 102.1755,659.9824 107.5415,691.4676 124.072,755.0873 128.5365,768.7963 147.2674,816.6304 163.9929,850.1243 168.8151,856.5836 174.0413,855.0992 219.9283,831.5967 289.1392,793.28 355.874,755.3454 376.2452,740.5707 382.7169,735.3016 387.7267,727.8957"/>
    <polygon points="402.3145,480.3915 414.8308,441.6175 389.588,381.358 372.8182,370.0689 360.097,362.6328 321.5491,345.6725 168.4933,280.69 159.714,281.8651 148.0675,306.3896 136.8184,334.7952 125.2397,367.2118 122.4941,375.3052 113.1479,407.6657 109.2454,426.5769 99.7637,483.3766 96.6439,520.7608 97.0694,550.0232 97.8476,552.9739 132.8669,555.6621 350.1245,566.0457 369.2131,561.8468 373.7627,557.7709"/>
    <polygon points="414.0595,313.7954 417.6829,309.6785 419.9662,301.1632 409.6519,302.9026 412.7042,313.7173"/>
    <polygon points="402.6325,308.1615 384.1302,292.8566 328.8703,248.5629 311.1645,258.1809 305.8636,261.9361 298.9543,269.2623 291.8346,281.8121 272.6753,321.3524 277.6022,324.764 326.5182,347.4368 372.7812,365.2066 380.628,367.4433 386.5736,367.8426 400.3888,345.732 404.7811,334.4893 408.265,323.9529 407.4433,314.128 405.9315,311.0909"/>
    <polygon points="405.5234,291.2756 402.1897,299.8618 410.4578,299.0352 414.517,297.1062 412.5738,291.4145"/>
    <polygon points="395.0409,288.8067 391.6957,296.6431 391.3146,298.2911 400.5586,297.8985 402.8223,289.3134 399.0678,286.5918 396.3758,287.2587"/>
    <polygon points="386.8048,278.1275 391.9081,277.7413 402.8217,269.2153 397.8358,263.1619 388.5567,261.0807 383.9934,262.3355 381.9514,270.178"/>
    <polygon points="371.5124,280.1086 378.5541,286.0568 383.6336,288.8223 389.9181,285.9062 384.8309,276.7346 376.2227,269.6422 369.1629,271.3235 368.0856,271.7412 365.7358,273.4055"/>
    <polygon points="361.6939,260.75 357.5586,252.5431 355.7292,252.18 348.3357,256.4462 347.3309,258.9466 354.5453,266.5714"/>
    <polygon points="358.5083,249.9525 363.9894,250.7288 370.393,244.9738 360.2887,237.2322 358.7337,237.6497"/>
    <polygon points="346.4175,240.2149 347.8203,249.3986 354.6012,246.0923 353.6735,244.4083 348.617,239.8125"/>
    <polygon points="343.4834,227.985 340.6769,229.8255 341.9633,235.2242 351.5922,232.5915 355.3694,228.4901"/>
    <polygon points="334.2585,246.2862 335.0394,249.4969 342.8936,249.8764 342.9895,239.1646 334.7181,240.1018"/>
    <polygon points="363.6861,212.125 351.298,211.1821 352.5753,213.9005 356.3679,217.9108 364.2098,213.681"/>
    <polygon points="372.4314,219.0963 364.0875,219.5588 361.9927,223.5949 361.9323,229.0121 363.0442,229.5536 372.6916,227.8412 373.2014,221.6707"/>
    <polygon points="378.4135,218.0429 377.0794,226.9006 380.824,226.577 385.7714,223.9481 389.7755,220.5351 389.8885,217.28 388.9699,213.3817"/>
    <polygon points="374.3889,204.1998 367.2287,207.4105 374.9429,215.3385 387.231,206.1572 384.1844,200.8995"/>
    <polygon points="385.6184,238.3279 388.2882,234.6957 378.8168,230.7075 373.0498,240.7069 378.583,240.9112 381.7232,239.8677"/>
    <polygon points="393.7249,239.6032 397.1198,243.1073 408.2019,245.1809 424.6215,224.7263 420.0353,211.3134 418.6089,209.1377 408.0574,198.7975 402.2362,195.7202 393.8221,199.1292 391.7774,233.8985"/>
    <polygon points="388.8519,254.5144 401.1928,259.2135 407.9402,258.8978 403.794,247.4093 397.0958,245.0637 388.5895,244.1029"/>
    <polygon points="382.9995,254.117 378.7122,243.9545 370.373,249.944 362.0616,266.5757 380.3473,264.0093"/>
    <polygon points="405.9112,270.1383 409.7291,267.678 411.2799,265.5995 412.3033,261.5324"/>
    <polygon points="405.6925,278.7095 404.5082,280.4031 408.2247,279.0495"/>
    <polygon points="413.3098,275.5157 413.7864,286.0204 417.632,285.3189 418.0984,276.1378"/>
    <polygon points="421.1873,281.2488 425.9524,284.3358 427.9749,281.562"/>
    <polygon points="433.5414,270.7349 424.1453,265.16 418.6917,262.7846 423.0727,271.2299"/>
    <polygon points="455.0673,234.1404 455.4345,231.5691 436.5516,216.6921 428.5424,220.5713 414.5139,239.4097 414.7308,252.9818 416.7501,258.5291 426.6515,265.3636 432.385,267.1321 439.0223,265.6446 441.01,263.325 447.5566,251.0627 450.6752,244.3504"/>
    <polygon points="463.4007,217.6772 471.5757,201.043 474.3343,194.2691 467.5033,190.4137 450.897,185.0917 437.8964,202.0525 438.6868,214.9294 444.0093,220.4964 453.6787,225.5747 457.0841,225.89"/>
    <polygon points="432.517,199.9926 416.6096,201.3671 428.7552,209.8365"/>
    <polygon points="426.2418,191.524 422.2013,185.1884 409.3366,186.1547 415.3786,198.9861 418.9919,197.4502"/>
    <polygon points="431.2685,177.1953 437.3071,175.47 432.8064,172.3788 427.5725,170.9869 423.5116,172.6964 422.1692,173.8515 425.9236,177.2789"/>
    <polygon points="420.1644,175.2946 417.0466,170.5521 413.2158,168.7558 407.6388,176.7123 407.201,181.2406 414.7293,180.4465"/>
    <polygon points="409.2067,163.8576 412.2215,143.0195 416.4509,109.6636 398.3153,108.9756 382.5534,110.9749 341.576,117.3634 330.0209,120.2667 313.1282,132.5489 349.4868,202.2858 356.1452,204.7691 371.9891,201.5039 401.2109,192.5601"/>
    <polygon points="415.2869,134.6165 414.0428,137.6555 413.0699,152.6143 414.1463,162.1122 418.055,167.4299 435.1261,171.5975 446.106,164.0971 446.9051,160.7781 448.6928,149.7201 443.0452,145.5748 425.8091,136.8417"/>
    <polygon points="419.5561,130.0079 434.1545,133.5267 434.3848,118.126 423.9055,112.0047 419.1364,125.7619"/>
    <polygon points="450.0963,127.7889 456.3688,135.0122 460.6298,136.7298 462.2825,119.3125 458.0182,120.1095"/>
    <polygon points="454.6693,136.9163 449.5561,131.8024 440.4039,131.1632 445.4254,143.6145 447.9844,146.1564 452.1585,147.084 457.3715,141.4918"/>
    <polygon points="464.0773,139.5411 465.0825,142.6561 471.8898,151.0139 479.1476,157.634 487.5662,161.1756 491.1018,162.2643 502.9909,139.9731 491.954,131.6575 480.8514,128.3631 472.4289,127.2937"/>
    <polygon points="467.0636,151.5693 458.1723,147.37 454.7998,148.4559 446.0243,174.0723 452.9064,182.2364 477.1212,189.6336 488.5951,169.1864 486.3609,164.0692"/>
    <polygon points="456.2715,117.9854 444.3574,115.4037 438.522,116.1311 446.9795,123.2006"/>
    <polygon points="446.8183,181.7196 443.44,177.6196 430.5967,183.3907 428.7882,189.7933 437.2307,195.5526"/>
    <polygon points="516.2449,146.6758 509.6029,144.6955 504.0639,145.6467 496.1796,157.0944 397.3274,352.4401 390.1796,366.7196 387.4184,374.3021 410.157,428.2422 413.4343,434.7283 418.6055,440.0648 447.5172,442.1577 669.8495,428.8823 679.4525,423.9028 682.7852,418.6374 674.4524,383.7556 672.4675,376.6225 662.3681,344.9155 645.6969,304.6994 642.318,297.7055 623.8119,263.6694 608.6356,239.5645 582.0692,204.6153 565.5074,185.2535 554.5118,175.1545 530.5114,155.5876"/>
    <polygon points="276.9758,146.015 245.4871,170.1227 241.2992,173.6498 230.9178,184.3147 233.0582,189.5753 245.4389,206.378 254.7604,215.36 273.2578,231.0706 283.8352,239.1623 295.6251,245.5782 306.3011,247.6875 319.0101,249.4593 322.3544,248.2445 330.4922,244.2897 347.7813,214.2028 347.1282,199.8407 333.5137,173.0077 320.0063,147.6273 313.6197,136.4677 305.5246,129.7813"/>
    <polygon points="229.2749,198.0674 229.0562,209.499 230.7257,210.0778 244.122,206.3191 230.1913,194.7824"/>
    <polygon points="221.0235,218.8979 215.9091,222.812 217.4576,234.5512 224.7622,230.3323 227.7217,226.2558 228.6115,223.6816 224.8799,217.3044"/>
    <polygon points="207.8195,218.7251 199.9832,229.0708 205.9728,234.0517 213.4836,239.2917 213.3489,226.6001"/>
    <polygon points="206.0395,215.3508 214.8237,216.0602 223.0415,210.5436 222.821,200.6134 219.1304,198.644 214.1388,201.2507 208.7044,208.4197 207.076,211.1024"/>
    <polygon points="218.9281,241.7806 229.5483,249.4544 236.4043,237.0302 235.431,233.8561 223.6056,238.1225 219.9351,240.0518"/>
    <polygon points="214.5581,246.3932 210.9353,243.2326 201.6529,237.9838 196.0339,255.5919 212.6546,260.2049"/>
    <polygon points="217.123,261.9426 211.5073,269.1931 205.664,278.143 202.4621,288.3246 205.0869,293.8748 222.543,301.7233 234.7847,300.8169 245.4992,280.2598 249.2274,270.4662 239.2844,254.7904 226.22,251.4574"/>
    <polygon points="196.2786,261.0646 190.048,265.9623 188.6699,272.8967 187.0489,286.9708 196.689,282.8031 202.1692,276.6171 207.5922,269.7842 208.3341,266.4651 204.9062,264.6719"/>
    <polygon points="184.9793,241.6271 178.4127,253.484 183.9555,255.3291 189.0529,253.0116 194.0226,248.6529 200.7329,235.828 196.7895,229.8472 189.3978,234.4827"/>
    <polygon points="180.8446,284.0393 185.2069,275.4615 176.4262,257.6254 169.6447,264.5672 165.6191,272.9151 171.4236,279.5534"/>
    <polygon points="242.283,294.8273 235.6902,308.7324 241.4694,310.4776 251.3182,309.3607 254.8556,303.7177 251.3736,300.0123"/>
    <polygon points="243.8425,287.7427 243.0043,293.2194 250.9266,295.5767 256.1842,292.6028 254.9577,283.2375 248.9992,278.8568"/>
    <polygon points="265.1935,300.6359 261.2774,298.6109 256.9566,304.1129 258.7544,315.6918 262.956,318.8145 267.5188,318.0683 271.8382,315.1056 276.0936,308.42"/>
    <polygon points="274.0208,280.086 273.3358,278.2285 254.0665,272.3003 258.894,283.8022 263.135,292.3188"/>
    <polygon points="278.8132,280.3841 275.9781,280.2533 266.7265,292.0196 272.5437,298.6378 278.2482,297.612 286.1269,292.092 286.3893,286.0604"/>
    <polygon points="261.3725,226.4556 242.759,253.0173 252.8447,267.4321 255.7348,270.0025 277.6343,277.5189 294.1518,276.8703 299.2101,266.0972 300.9279,258.4347 300.7487,256.2011 292.7418,248.9099 265.2165,225.6145"/>
    <polygon points="249.4401,225.5512 244.5009,231.2364 245.3278,245.2265 258.5534,226.5678 253.8956,221.4475"/>
    <polygon points="250.8168,215.5286 247.9041,212.8658 240.7779,209.9496 232.1502,217.6863 232.5994,219.1776 235.5051,222.3414 241.2601,224.1454"/>
    <polygon points="687.2984,436.7509 674.4969,430.7978 649.5881,430.3449 421.8156,444.1774 415.4228,448.1303 388.5769,521.1267 374.1304,561.9376 374.8084,568.2618 380.1699,583.707 400.2276,634.4795 413.6993,653.173 426.9568,658.9109 685.978,666.2535 689.9454,662.9093 694.4782,632.3459 697.5529,586.2351 698.0839,561.5257 697.1609,521.0064 695.8416,498.9899 691.5598,462.6801"/>
    <polygon points="538.2317,957.7206 546.5183,952.1555 570.2547,930.2744 590.7175,906.0663 612.0679,879.4461 613.649,877.3784 619.894,866.5287 642.1403,825.9176 660.9652,781.9716 670.8135,750.9065 680.1587,718.0078 688.0779,680.01 681.6221,673.3522 668.3514,668.7187 610.0611,665.4779 554.6764,663.4053 446.9814,660.3892 415.8247,660.1816 413.2946,661.094 405.7495,674.539 391.4005,719.901 385.6803,739.3703 401.2616,763.7353 470.194,866.7839 504.8293,917.0778 525.1282,943.8352"/>
    <polygon points="471.4342,999.4064 484.6624,993.7669 506.5888,983.1222 519.8153,975.2144 528.1892,969.5212 534.8035,963.5409 427.4023,804.9485 388.2408,750.5225 383.248,745.3685 376.2598,747.2451 369.4602,749.6541 306.5889,783.7396 211.8662,836.3581 178.5364,855.8722 179.0441,867.41 192.9311,893.8948 203.7423,909.7796 206.7754,913.795 218.2438,925.6307 238.0944,944.937 268.4724,969.873 290.2011,985.2199 313.8253,996.9684 332.1541,1002.9044 360.382,1010.5834 381.3537,1013.5441 421.8973,1012.7627"/>
  </g>
</svg>
