<?xml version="1.0" encoding="utf-8" ?>
<svg xmlns="http://www.w3.org/2000/svg" xmlns:cc="http://creativecommons.org/ns" xmlns:dc="http://purl.org/dc/elements/1.1/" xmlns:ev="http://www.w3.org/2001/xml-events" xmlns:inkscape="http://www.inkscape.org/namespaces/inkscape" xmlns:rdf="http://www.w3.org/1999/02/22-rdf-syntax-ns" xmlns:sodipodi="http://sodipodi.sourceforge.net/DTD/sodipodi-0.dtd" xmlns:xlink="http://www.w3.org/1999/xlink" baseProfile="tiny" height="29.7cm" version="1.2" viewBox="0 0 793.7007874015749 1122.5196850393702" width="21.0cm">
  <metadata>
    <rdf:RDF>
      <cc:Work>
        <dc:format>image/svg+xml</dc:format>
        <dc:source>vsk save -s 13 /home/tobin/src/fabian/plotting/generation/stones/sketch_stones.py</dc:source>
        <dc:date>2022-10-11T23:35:17.597085</dc:date>
      </cc:Work>
    </rdf:RDF>
  </metadata>
  <defs/>
  <g fill="none" id="layer1" inkscape:groupmode="layer" inkscape:label="1" stroke="#0000ff" style="display:inline">
    <polygon points="307.6319,817.1791 360.7163,758.2847 344.3341,739.7734 336.2947,731.4792 309.1127,705.1029 291.2332,689.6753 284.1697,686.8017 252.2021,697.8884 241.46,705.1712 238.1331,718.3926 237.7887,728.8413 241.056,782.4744 243.073,790.1324 247.4856,795.6333 264.4916,810.5671 281.1419,823.7416 288.5401,827.6662 302.7403,821.7513"/>
    <polygon points="266.7767,844.4415 282.0154,842.2381 289.3677,831.843 283.2615,825.8518 261.4744,810.6918 255.7143,818.2062 254.853,821.3433 262.8675,841.7033"/>
    <polygon points="238.7088,849.5459 238.0285,854.0361 247.2647,870.2068 253.5204,870.7324 266.6275,861.0234 269.4446,856.0827 246.3445,837.6538 243.6386,837.4376"/>
    <polygon points="225.483,847.6422 225.2608,849.9091 234.0159,860.8993 234.6713,858.8722 238.7874,839.0234 234.9735,840.5648 229.4534,843.9164"/>
    <polygon points="229.7517,836.3419 228.9559,832.6082 227.6162,831.3295 218.1955,830.1457 222.1114,841.0935"/>
    <polygon points="206.7409,838.3999 204.088,842.4932 204.7279,849.2503 218.5763,846.5398 219.0877,844.9573 210.4016,834.9627"/>
    <polygon points="210.1414,822.0414 203.0475,828.3896 207.8858,831.4262"/>
    <polygon points="206.4907,813.6348 213.4124,816.5395 207.5238,803.7342"/>
    <polygon points="194.1068,816.7889 195.2697,817.0888 201.3892,810.4918 195.6375,811.1712 193.8085,811.8685"/>
    <line x1="190.4767" x2="192.4391" y1="807.9452" y2="806.3322"/>
    <polygon points="198.3548,801.2624 199.2078,801.5432 201.5283,798.203 199.4546,791.2861 195.4106,797.5467"/>
    <polygon points="190.6556,793.0313 187.3136,790.7856 185.047,794.1848 187.2295,798.8219 191.5705,797.6773"/>
    <polygon points="187.1923,788.9956 186.1869,787.0075 181.9289,787.3246 182.0746,790.2579"/>
    <polygon points="178.7712,795.3249 175.4246,791.4097 169.3225,797.6628 176.4243,797.0903"/>
    <polygon points="177.5888,804.056 179.5457,803.1969 179.7343,800.7449 177.8566,800.6867"/>
    <polygon points="171.1573,802.6143 173.4279,806.496 175.5781,805.016"/>
    <polygon points="173.8927,812.7507 176.5401,812.1325 174.683,810.5093"/>
    <polygon points="165.5389,814.3122 168.7931,815.8245 169.6366,813.981"/>
    <polygon points="169.4555,825.9976 173.7843,823.439 171.5477,818.1935 166.4563,824.4952"/>
    <polygon points="174.2697,828.3512 172.5364,836.8346 176.7212,838.3728 180.8927,833.6148 175.0265,827.0496"/>
    <polygon points="183.5968,827.7788 187.3271,828.0009 194.9328,824.471 190.1357,821.5966 186.6761,822.7645 180.7244,826.6284"/>
    <polygon points="183.1691,833.0399 183.786,838.6253 189.558,842.5551 196.9158,837.2332 193.524,831.3467 192.0215,830.8413 187.2379,830.8927"/>
    <polygon points="183.3714,818.5129 184.6387,820.847 188.7186,816.8765 182.9944,814.1793"/>
    <polygon points="156.5265,828.883 155.4667,831.5624 158.5979,834.0613 161.7429,834.4302 164.1216,830.1072"/>
    <polygon points="153.6454,821.5029 155.0343,825.9186 161.4475,819.6999 156.4218,820.3075"/>
    <polygon points="164.3486,842.4722 166.4174,841.2757 167.8394,834.2882 165.9175,832.8431 158.2368,838.5095 159.2571,841.0133"/>
    <polygon points="172.0892,845.08 167.3133,849.3718 166.7142,850.4434 176.2167,844.0736"/>
    <polygon points="171.4959,862.5205 185.8221,882.3057 202.2656,868.3597 200.3899,859.3865 194.258,847.1095 186.3592,843.8088 183.6937,843.3146 172.5978,851.2589"/>
    <polygon points="200.2529,873.818 187.2919,883.5572 188.5441,887.6763 193.9082,895.8443 212.4249,916.0423 215.1308,916.809 219.821,903.8657 220.9187,898.9104 215.6053,884.2802 208.8544,875.0812 206.4422,873.4911 202.7898,872.5543"/>
    <polygon points="217.1061,882.1745 221.5963,882.1843 217.9198,879.9085"/>
    <polygon points="220.7439,875.405 226.103,874.3934 222.3,870.8402 217.2166,869.3043"/>
    <polygon points="219.0163,867.2738 226.5913,862.2327 219.2442,850.277 211.7287,855.1911 209.6543,858.1855 208.8239,866.5001"/>
    <polygon points="231.5272,869.2966 228.6057,869.2449 231.659,873.1222"/>
    <line x1="238.3191" x2="241.0535" y1="870.844" y2="872.9905"/>
    <polygon points="242.5799,885.1047 244.3352,883.8083 249.5493,878.8045 239.2334,879.2633 239.7737,884.0929"/>
    <polygon points="234.2013,893.9834 235.504,897.1221 238.9768,890.5768 237.2165,887.4174 234.2118,891.383"/>
    <polygon points="223.0106,897.5794 227.6915,896.1124 227.2025,892.3241 221.1108,888.901 221.2039,895.3378"/>
    <line x1="223.5349" x2="226.9959" y1="902.7099" y2="904.9003"/>
    <polygon points="229.6621,881.1283 225.2193,886.4614 228.926,889.1995 230.59,884.2105"/>
    <polygon points="239.27,793.1606 211.6776,802.6835 219.4215,824.6697 238.3704,834.5773 240.0253,834.6213 242.4967,833.1932 250.0166,825.4621 255.6065,808.9661"/>
    <polygon points="232.9985,764.9019 237.7859,761.9011 235.2114,744.5992 232.0842,736.6486 219.1919,735.6076 208.251,736.803 206.3745,741.1582 207.0226,753.5064 208.6966,762.8902"/>
    <polygon points="206.9869,768.9229 203.9043,775.5896 201.44,787.4266 208.9269,802.5047 236.2959,792.6828 238.6872,783.5025 238.6026,768.5946 218.0196,766.5931"/>
    <polygon points="202.5245,770.1763 203.2441,760.8916 201.5072,757.9093 195.3067,751.7485 184.5952,753.5176 166.9342,769.1283 165.5111,774.5201 175.1247,782.9888 190.3206,784.0205 196.9368,784.1754 200.4347,778.1741"/>
    <polygon points="193.8615,749.8781 199.8714,748.3064 201.5537,740.1848 191.95,744.722 184.9861,749.1845"/>
    <polygon points="178.5576,731.3243 176.6144,733.1391 177.4682,736.0467 182.0253,738.2985 187.1128,739.2886 186.6158,737.0292 182.1299,729.5204"/>
    <polygon points="194.0812,720.2023 190.7143,727.3786 195.4133,736.0358 198.056,737.3767 202.8447,735.7807 205.9748,734.0404 200.4623,723.1005 196.884,720.369"/>
    <polygon points="190.6964,713.6271 191.3284,711.6683 182.1287,714.6938 167.1471,723.6984 182.5065,726.1223 186.8774,721.8857"/>
    <polygon points="197.3439,708.4258 204.749,724.6842 210.568,733.6626 233.9848,729.4063 234.7778,706.256 230.6042,703.5521 218.9062,699.3525"/>
    <polygon points="246.5891,694.7502 247.3108,689.6969 248.0799,678.3083 247.6232,669.3297 244.8381,663.4285 230.1072,650.1088 218.3367,658.259 207.4352,667.5435 220.4406,686.8542 228.4835,696.6228 231.6737,698.9841 242.6312,696.7671"/>
    <polygon points="266.281,691.6028 280.5448,686.7644 292.083,675.3935 288.8915,670.6259 267.3262,655.5937 263.2017,654.5332 252.249,660.5193 249.6836,669.7775 250.3709,687.8377 262.7754,691.6584"/>
    <polygon points="254.6003,654.7701 260.3783,652.2696 266.129,644.3226 259.6003,642.3953 252.0769,645.0802"/>
    <polygon points="246.444,654.9405 237.2975,653.1476 242.1926,654.953"/>
    <polygon points="241.7626,638.57 240.3654,638.088 236.5081,639.258 231.3817,642.2717 230.934,644.8794 233.1165,648.9043 238.6261,646.8489"/>
    <polygon points="250.4856,636.2955 253.7201,633.8852 246.9925,628.9864 245.0271,628.8513 245.4478,633.3454"/>
    <polygon points="247.6184,626.3308 255.0504,627.0847 255.7238,622.9176 246.47,616.7798 242.4496,620.1599"/>
    <polygon points="240.0125,623.8049 233.9929,625.7377 233.3693,628.0284 236.9111,632.3302 239.57,626.3761"/>
    <polygon points="231.2068,619.8301 235.4389,620.428 234.3434,616.0239 227.8464,613.6629 227.7033,617.6743"/>
    <polygon points="233.8445,608.6797 237.0313,610.9076 239.4516,612.1115 245.4059,610.4833 243.0521,603.2301 240.9018,602.5728 231.589,605.7749"/>
    <polygon points="221.5681,602.8901 217.3264,612.9872 218.669,617.6437 229.7586,607.5204"/>
    <polygon points="216.8691,599.0838 208.37,595.4454 206.6352,596.2102 200.6624,606.7273 207.264,611.8229 211.6667,611.5316"/>
    <polygon points="216.8674,594.2655 223.4035,593.639 224.39,587.1806 216.3198,579.5086 213.2529,580.9187 214.0623,585.9746"/>
    <polygon points="238.5315,592.0619 230.617,587.6901 226.0708,593.8824 236.2574,600.0803 241.2437,597.9858"/>
    <polygon points="248.8203,611.2365 259.4871,621.2495 270.6022,628.9647 286.5479,620.643 282.3842,600.5425 279.4742,595.3843 264.9019,597.5586 252.1245,606.6143"/>
    <polygon points="265.9191,634.6822 261.0331,628.6962 257.8057,637.4355 260.3655,639.5793 265.5049,642.3804"/>
    <polygon points="289.8442,624.6188 288.6489,623.8294 283.2657,624.4639 270.5467,634.1882 266.3059,647.354 267.8185,653.3285 292.778,664.9905 297.1189,665.1489 299.018,642.5909"/>
    <polygon points="260.5294,562.3601 248.3432,572.589 243.7562,583.0186 241.6635,588.9154 245.698,597.208 256.1656,598.8753 272.9948,589.8296 275.2256,584.4422 269.1841,566.2323"/>
    <polygon points="250.2217,548.9737 234.8801,548.4824 226.5157,550.6624 220.4619,562.0172 217.0214,575.4928 228.8008,579.1588 236.4568,578.0655 244.1968,572.4684 260.7713,555.3713 260.6096,549.9641"/>
    <polygon points="194.8922,595.3676 199.0266,596.3465 204.3135,590.5022 212.6007,575.4627 219.2523,560.4023 219.9515,549.992 215.142,548.3319 184.7825,551.4399 179.5821,559.1692 183.9365,589.7026"/>
    <polygon points="211.233,617.5964 199.3053,616.2945 196.6388,616.8142 194.157,623.4292 193.3015,627.0472 195.892,644.5433 200.0155,652.1052 206.4531,659.7444 228.2065,648.5548 227.214,631.2042 217.3955,620.0145 214.5469,618.6127"/>
    <polygon points="160.2572,632.3447 181.9499,631.4171 189.8983,628.4811 196.8658,610.0555 189.6029,596.5002 177.6103,587.9761 148.2712,599.3491 148.166,628.1347 150.8756,631.2218"/>
    <polygon points="144.7408,602.8237 144.2111,599.0129 143.3241,597.3578 127.6384,587.9971 97.5824,595.5091 96.1701,601.4182 98.8151,624.6665 99.2235,626.1295 111.6981,631.1711 124.0026,631.2892 126.0959,630.8103 144.7853,624.5251 145.271,611.1632"/>
    <polygon points="126.7257,581.9888 131.9429,564.7992 129.6366,557.3955 120.9925,546.3963 105.677,546.3267 95.9149,547.0837 95.4865,555.1257 95.0471,579.9656 95.831,589.7432 99.4886,589.9755 107.1935,589.3639 124.2773,585.5995"/>
    <polygon points="135.659,571.1067 139.105,586.2636 144.1536,593.0197 161.3401,589.6771 168.2157,587.8905 174.7774,577.8243 178.8345,559.3031 175.7381,550.6893 168.1534,549.4808 147.4997,547.0402 136.2858,551.4583"/>
    <polygon points="95.2787,540.3044 104.7655,544.9953 176.6702,546.7002 315.0024,548.2066 370.0968,547.2483 377.2214,535.1301 402.6894,488.2545 421.9731,451.863 423.6932,444.1263 405.0167,412.5965 385.7889,382.0484 344.0478,318.8217 248.7206,177.3446 247.0965,175.3948 239.8942,177.2667 235.8796,179.3353 224.6625,190.286 204.1457,211.7598 182.364,243.0544 176.6746,251.7214 159.1018,282.2176 152.3144,295.8626 145.163,311.7288 131.7624,343.4257 114.6358,401.2668 109.0965,423.1584 105.1033,447.8226 98.4087,500.8964"/>
    <polygon points="116.8853,730.306 121.3585,737.0406 129.4216,736.5266 219.5399,696.883 220.8178,695.5024 194.7051,646.459 186.2074,633.317 117.7591,632.4312 100.9582,637.4331 102.7961,663.8051 109.4097,701.5139"/>
    <polygon points="123.2674,742.9562 120.3375,744.3112 124.6015,747.5385 125.7464,742.711"/>
    <polygon points="122.4834,750.5239 125.1,758.8271 128.9588,753.6445"/>
    <line x1="137.4399" x2="138.6738" y1="752.1646" y2="753.4453"/>
    <polygon points="135.9764,742.1865 133.8723,743.3265 140.4507,745.315"/>
    <polygon points="137.1266,735.6393 135.7187,737.4241 137.4238,738.9924 140.5549,738.1605"/>
    <polygon points="139.5644,765.9992 142.1903,764.3863 141.1824,762.6205 137.2851,762.8477"/>
    <polygon points="145.3386,764.9784 144.2576,773.543 145.9245,765.0969"/>
    <polygon points="131.6986,768.1829 128.211,761.6176 128.114,767.1115 128.7515,767.9583"/>
    <polygon points="129.9649,774.1622 135.5222,778.2229 134.1919,771.1438 133.4351,770.4031"/>
    <polygon points="140.2253,793.3739 145.8993,810.3676 151.2248,816.9905 155.6966,818.7262 156.0649,818.3927 161.4199,806.2553 165.9828,787.8832 164.5824,778.9891 162.7809,777.8352 152.9806,772.9976 138.8962,779.1937"/>
    <polygon points="161.2776,771.1207 182.2468,750.6321 175.8049,739.8309 172.9751,737.099 158.6931,725.7313 148.7125,738.5658 148.7447,742.5411 154.4432,764.5986 156.6726,770.1296"/>
    <polygon points="339.3395,712.6295 332.7138,708.8593 328.7138,712.4473 324.9201,716.6718 332.7604,725.7915 343.2078,718.25"/>
    <polygon points="352.7219,699.3541 345.8679,694.1416 336.4997,705.5511 346.8987,715.2701 354.5985,712.8493"/>
    <polygon points="342.6347,689.5903 351.2833,692.1943 356.2612,691.8137 358.2619,690.772 370.3563,682.592 373.8505,677.5361 376.3694,665.4786 361.4184,634.9873 337.2123,642.8552 332.339,644.9903 331.7403,655.6861"/>
    <polygon points="338.3144,680.998 332.0821,662.9584 321.8096,651.0132 320.1306,649.7028 302.9081,660.2719 291.9236,683.2309 299.7176,693.0523 308.9334,702.9308 318.5044,709.0272 327.2624,705.948 330.83,703.6827 340.5788,694.9587"/>
    <polygon points="372.5305,698.4078 376.5486,701.1294 378.2074,701.7284 381.4785,700.2703 381.8077,696.0794 367.9628,692.0375"/>
    <polygon points="373.8416,704.659 371.7311,698.7075 365.8571,694.0342 364.2399,693.9947 357.2119,701.6917 356.7998,712.3519 364.3958,711.1188 374.1002,707.84"/>
    <polygon points="369.2017,714.5296 364.4433,718.6206 361.9339,725.1747 366.7396,729.5124 376.4512,735.1081 383.6608,721.7186 381.7518,719.259"/>
    <polygon points="358.8106,718.9651 355.6746,718.5775 352.528,718.6152 343.309,721.9747 340.387,727.2476 347.9731,741.7834 352.6542,739.418 358.9109,730.4245 359.0687,721.7892"/>
    <polygon points="386.092,700.604 389.6893,706.1922 394.3791,705.7556 395.0989,702.9675 388.6267,697.7535"/>
    <polygon points="391.0406,710.6596 379.5271,708.7422 388.0267,720.8149 389.551,719.7924"/>
    <polygon points="408.5803,703.3258 399.4675,702.9371 398.7273,716.8136 405.0337,709.2322"/>
    <polygon points="403.8927,688.3326 395.2579,686.5374 394.5328,692.2951 401.3317,692.5424 402.4736,691.583"/>
    <polygon points="398.8482,675.7427 386.3887,677.4505 399.5206,680.4392"/>
    <polygon points="406.8087,673.0872 406.1512,676.4313 407.5987,683.804 412.5444,678.7217 411.0016,673.7044"/>
    <polygon points="419.355,689.3874 419.2022,683.9422 412.6616,683.9639 411.0889,691.077 411.152,699.4971 415.5976,696.3698"/>
    <polygon points="386.5843,684.7678 377.002,685.3855 379.9045,690.5919 383.7012,690.6266 387.869,689.425"/>
    <polygon points="369.3176,645.5401 377.3007,665.9182 383.8427,670.6699 397.0473,671.3055 411.1814,665.8635 408.7158,649.9204 396.762,621.7841 393.2521,622.7468 368.3124,631.206 368.0845,636.1537"/>
    <polygon points="373.2011,628.9708 396.1754,619.3757 390.2336,600.5903 368.9257,552.8209 364.2298,550.4589 324.2595,548.7096 276.1442,548.6702 267.9652,551.884 270.3015,563.7216 272.1729,570.1881 280.8424,593.9473 292.6774,621.9928 304.3847,646.6833 307.6799,649.014 322.9632,645.6908"/>
    <polygon points="359.4458,754.0946 364.4861,754.0519 374.9963,742.9723 375.8369,739.1113 368.7545,735.1409 364.2918,734.7556 354.1258,740.0783"/>
    <polygon points="658.9874,784.4099 514.9028,725.2804 424.3325,688.6515 286.6433,840.732 227.5604,906.5378 216.3257,922.7829 227.2753,936.8126 245.8948,953.274 279.6976,978.5788 296.8189,988.7505 334.0791,1004.6868 352.0092,1008.3838 384.6895,1012.1266 416.8008,1013.378 449.5689,1007.1812 484.519,994.7852 488.1112,993.1924 516.9336,976.9931 521.2404,974.1045 541.5976,957.9591 564.2414,937.0822 582.1762,917.8929 595.484,901.2785 629.3107,848.6168 643.4961,822.5706 658.1041,787.6419"/>
    <polygon points="690.6227,458.1045 676.7403,392.2625 672.5041,381.0096 669.8818,377.1554 661.0597,370.1047 649.461,372.1941 516.2533,415.044 449.6099,437.0823 420.1676,458.8314 415.821,466.2149 399.6508,496.03 378.5173,535.6469 373.23,546.5356 376.1671,563.5764 400.0795,625.1601 424.2968,684.8187 429.6834,689.3842 434.4492,692.1929 595.4203,757.8655 644.8538,777.6048 658.6986,782.7087 660.1498,780.8738 664.0149,771.2095 683.9549,701.3189 688.2388,678.0236 697.0975,603.3886 698.3848,575.919 698.6537,557.7321 697.3424,524.1352 696.3807,509.1399 693.4064,480.3802"/>
    <polygon points="572.3103,374.3435 571.6721,373.1027 556.0007,371.8455 539.597,379.9051 531.253,388.5378 531.1917,402.04 539.401,403.0328 550.4727,403.249 571.3456,396.4222 574.2608,385.5049"/>
    <polygon points="534.1244,344.0576 521.5878,363.5519 535.7232,373.1457 549.6974,369.8321 556.5481,366.6892 564.8945,360.9709 566.6935,358.2681 559.3601,337.3236 553.3699,330.056 551.1995,329.5324"/>
    <polygon points="504.7883,348.3746 505.0786,347.9637 503.4234,346.3862 496.0245,345.6031 495.2061,349.9617"/>
    <polygon points="501.0727,359.8258 501.285,355.7685 493.0187,358.9944 500.0229,360.5132"/>
    <polygon points="488.4683,353.8953 479.5019,355.8857 482.6851,365.4953 484.3683,366.482 490.1014,354.915"/>
    <polygon points="475.1031,344.9471 468.5758,342.9017 472.9579,352.4576"/>
    <polygon points="474.3066,335.2059 478.1218,344.3789 484.2058,346.4177 485.1071,338.5567 478.3901,333.0908"/>
    <polygon points="468.0853,324.4742 463.473,326.1324 468.541,334.8325 476.0358,331.7682 475.8547,328.1793"/>
    <polygon points="489.4808,337.1706 486.9429,344.7632 493.9602,344.1987 496.6596,342.0663 497.1323,338.0202 494.2832,336.9493"/>
    <polygon points="496.2785,327.2061 494.6286,323.813 488.1049,327.3615"/>
    <polygon points="515.7618,315.5171 510.1055,316.3526 505.0489,318.0763 505.4034,342.8642 512.8281,353.7631 520.0572,354.4153 532.2207,345.2521 539.4747,336.7929 546.4132,326.5224 535.3129,320.752"/>
    <polygon points="521.2854,308.5526 516.9934,303.4024 507.9963,307.6037 508.5788,311.155 521.8732,312.3942"/>
    <polygon points="533.4523,301.4352 535.2322,306.0254 541.3733,303.848 545.304,295.4742 538.9121,288.5716 537.4365,288.442 533.3889,298.7275"/>
    <polygon points="529.7327,293.3297 527.9593,290.3716 520.805,295.7506 521.3146,298.0666 524.2554,303.7175 530.0252,313.4396 531.6332,299.0777"/>
    <polygon points="512.3826,288.128 510.5247,289.1061 507.7887,292.2098 511.4046,297.6447 512.3,297.2493 517.0264,291.7748"/>
    <polygon points="501.4451,287.2209 476.6271,285.1393 466.5286,294.5689 461.1103,303.341 462.0398,314.8129 464.8133,318.5007 467.0412,320.8956 480.6177,321.7241 493.6314,321.9546 499.8091,319.8251 502.218,311.6925 505.2992,297.0511 505.2205,289.9538"/>
    <polygon points="552.8843,312.9329 545.6778,303.5218 538.0399,307.2849 537.3325,313.2292 544.2421,315.8177 552.6861,316.2587"/>
    <polygon points="578.7114,260.3699 603.4766,232.5607 592.2599,216.7885 584.6583,207.3349 550.5735,174.1466 536.6903,162.3433 521.5099,150.0613 513.6604,150.7112 453.8337,229.9419 452.0197,237.8449 467.2423,281.9389 475.8741,284.6697 479.6726,285.0719 537.2838,287.0696 542.0251,285.6639 552.9939,278.7222"/>
    <polygon points="604.613,243.3767 599.9049,243.3005 551.7944,285.2056 549.9001,294.7584 549.8361,299.6638 552.4536,308.0305 578.2369,384.4404 584.653,388.6683 598.3515,387.0587 646.7974,371.4502 664.0383,365.5223 661.1116,346.6879 659.4548,341.1549 650.1827,317.1971 623.0018,262.0025 607.3392,243.7283"/>
    <polygon points="467.0511,210.4192 470.2197,203.6888 463.7237,192.9396 457.3168,192.0079 450.9176,192.4576 448.139,194.1755 447.6599,198.8544 457.0698,208.5954"/>
    <polygon points="469.7042,197.9422 473.3368,200.1573 479.4088,195.0301 480.7202,189.5464 480.6578,186.2997 476.8018,180.4656 465.2129,190.9255"/>
    <polygon points="466.9758,175.9322 455.1586,171.3913 452.3291,174.9801 453.0015,182.7052 455.1621,189.3677 461.0767,188.9779 465.7133,186.7328 468.3732,180.1126"/>
    <polygon points="439.9305,168.7235 435.6717,159.5798 434.8792,159.1629 421.2371,157.4908 400.4387,160.6611 388.4781,163.8563 382.3539,168.5904 386.6073,199.6326 410.419,216.7408 420.109,222.2629"/>
    <polygon points="438.2601,180.524 443.9743,191.6092 449.0299,180.6394 448.4266,178.0231 443.1118,172.8134 439.7973,173.9632"/>
    <polygon points="440.1336,207.6733 434.3179,190.9119 431.5518,200.4547 429.932,209.4728 432.1396,211.0032 439.4425,211.6756"/>
    <polygon points="442.9476,222.4804 449.8632,227.6951 451.5613,227.3286 457.4739,223.8508 462.3077,213.4686 450.8144,209.3464 446.8501,214.7175"/>
    <polygon points="441.0183,223.8979 436.5685,214.6483 426.9501,215.9911 424.1302,221.7988 438.4467,227.2686 440.4524,224.9928"/>
    <polygon points="445.8729,234.3905 435.4167,229.6319 414.6649,221.4264 382.4555,213.2293 380.4895,213.5384 349.1388,234.1203 326.3512,249.833 308.8821,263.0818 315.7196,276.1096 350.3872,327.5427 358.0173,338.3183 363.4863,340.9851 371.7731,342.0938 429.9347,318.2951 450.4715,309.2432 453.0535,307.5618 458.998,296.8737 463.3934,286.9995 466.0034,280.0478 451.8959,245.4698"/>
    <polygon points="380.9092,209.0327 382.7503,202.0011 376.0626,156.3497 370.4111,121.9474 366.6541,110.3446 346.8544,114.7612 339.6983,116.9692 304.9535,129.8021 264.282,154.9024 258.058,160.0894 251.9021,168.1736 249.7294,175.0638 264.9272,199.3629 301.7113,254.6239 310.3649,254.9364 318.1021,251.5425 339.1473,240.1377 377.1048,213.4535"/>
    <polygon points="387.1404,143.8292 385.7075,144.576 380.2834,153.5852 379.3102,157.7147 379.3217,160.637 398.6437,158.4227 393.1728,147.7263"/>
    <polygon points="379.0163,142.5936 390.2105,140.926 391.2516,138.9609 392.0438,132.3054 387.7246,130.0867 378.6241,128.6369 375.6058,130.9236 374.3223,136.0205"/>
    <polygon points="372.5617,126.1296 380.2634,124.97 388.7737,121.8363 387.8368,112.9895 375.5493,110.1031 372.8624,111.2704"/>
    <polygon points="389.9229,119.4517 391.6454,128.253 393.3914,131.5197 397.6158,134.1866 407.0324,128.0959 402.845,114.8115 394.3548,109.1417"/>
    <polygon points="403.3942,135.1812 396.9193,138.4371 396.246,146.6744 400.861,155.2187 406.8248,151.8587 411.6106,147.8816 412.6801,146.1235 413.2917,136.9552 410.6896,135.78"/>
    <polygon points="415.1705,127.1496 419.5058,113.1189 406.4358,110.0618 405.6261,111.002 409.0408,124.4251"/>
    <polygon points="423.3191,142.0946 415.9777,150.5281 421.0499,154.1119 431.4198,148.4362 434.1895,145.9759 426.3716,142.0509"/>
    <polygon points="430.8589,135.6273 435.9466,134.0908 434.3188,126.348 429.5637,127.1946 417.708,130.2079 424.1404,136.4631"/>
    <polygon points="442.3067,116.9346 437.8255,135.8107 434.4407,151.9138 437.5205,159.4961 445.1371,166.8147 457.0991,171.8375 486.3145,179.1097 490.923,177.4565 507.8023,156.5857 500.035,136.7219 484.9561,128.4481 466.1588,121.5316 452.5041,117.2792 443.328,115.6247"/>
    <polygon points="425.8205,110.0361 424.733,118.727 440.9608,119.9887 436.5914,114.0367"/>
    <polygon points="368.6269,348.859 378.4564,369.1116 399.6065,401.4795 422.4609,434.4149 430.5925,442.5695 441.6101,439.2656 489.1942,423.3756 488.583,403.418 457.1691,310.9854 451.7048,311.5266 440.482,315.0777 408.356,327.8338 377.246,342.2749 372.4672,344.9215"/>
    <polygon points="500.1818,417.4837 516.9463,412.8931 527.5359,409.6135 530.3947,384.9099 514.6403,360.5696 485.0379,371.9225 482.2293,375.6132 490.6052,403.3169"/>
  </g>
</svg>
