<?xml version="1.0" encoding="utf-8" ?>
<svg xmlns="http://www.w3.org/2000/svg" xmlns:cc="http://creativecommons.org/ns" xmlns:dc="http://purl.org/dc/elements/1.1/" xmlns:ev="http://www.w3.org/2001/xml-events" xmlns:inkscape="http://www.inkscape.org/namespaces/inkscape" xmlns:rdf="http://www.w3.org/1999/02/22-rdf-syntax-ns" xmlns:sodipodi="http://sodipodi.sourceforge.net/DTD/sodipodi-0.dtd" xmlns:xlink="http://www.w3.org/1999/xlink" baseProfile="tiny" height="29.7cm" version="1.2" viewBox="0 0 793.7007874015749 1122.5196850393702" width="21.0cm">
  <metadata>
    <rdf:RDF>
      <cc:Work>
        <dc:format>image/svg+xml</dc:format>
        <dc:source/>
        <dc:date>2022-10-12T21:58:36.500799</dc:date>
      </cc:Work>
    </rdf:RDF>
  </metadata>
  <defs/>
  <g fill="none" id="layer1" inkscape:groupmode="layer" inkscape:label="1" stroke="#0000ff" style="display:inline">
    <polygon points="657.7954,573.2771 652.5297,572.6496 651.9192,577.4675 651.9009,587.4471 655.8659,593.7069 663.5429,594.7448 673.308,584.9115 670.272,579.9863 667.6212,578.3444"/>
    <polygon points="651.3535,579.7609 651.7531,566.7562 644.8474,555.7818 642.3678,552.5952 636.3808,549.1075 629.303,557.3904 626.1939,571.4651 635.888,581.5059 646.2707,589.5531 647.9798,587.4743"/>
    <polygon points="641.2948,594.6927 636.7765,595.233 622.0618,608.5073 628.5756,620.4929 629.8209,621.8332 639.4845,619.109 641.2906,616.3343 649.0681,594.8841"/>
    <polygon points="669.0137,598.9871 663.0178,599.0585 657.8349,601.4923 650.29,613.3617 665.4255,621.4264 668.1908,620.1915 671.8803,615.1905 674.6596,606.4497"/>
    <polygon points="681.742,585.3963 673.2709,599.3721 682.9162,608.2763 689.3743,600.5783 693.3535,593.4884"/>
    <polygon points="681.3796,578.5362 692.0934,580.3044 700.484,563.8371 696.8162,556.9896 691.5067,557.26 686.2044,560.2757 679.104,577.4609"/>
    <polygon points="676.7816,565.3957 672.8624,553.9451 653.9945,552.9022 657.9066,569.3117 667.1698,571.6468 675.4176,572.9194"/>
    <polygon points="675.9398,551.4058 682.6464,551.278 682.9206,549.6597 682.6719,544.0007 679.6081,528.6594 670.9879,512.5192 665.4087,510.1005 663.3468,510.7487 660.3829,515.5335 662.1775,550.4915"/>
    <polygon points="688.6828,526.5272 700.9599,523.446 712.5852,519.9959 713.2299,513.0372 705.6703,500.3185 701.3472,497.7642 673.4376,509.1486 677.4684,517.0456"/>
    <polygon points="718.2827,519.0281 728.2414,520.1509 742.6412,519.717 762.5558,515.4583 765.2019,511.619 766.313,508.3551 762.4705,483.0856 755.4342,471.1397 748.9836,470.4348 716.8023,476.8966 706.7808,483.1907 710.3577,504.1104"/>
    <polygon points="728.4192,523.6676 719.5211,531.0061 714.1349,553.7321 719.3637,556.2362 723.2223,557.3961 734.9911,556.6888 740.7683,547.4721 741.946,543.9693 740.1144,536.3823 737.2778,531.2788"/>
    <polygon points="745.3961,520.3389 744.855,521.0721 744.5242,542.0408 756.3151,542.9577 767.927,539.5085 770.1482,532.8977 769.9964,529.6548 765.1451,518.0206 758.3734,518.3603"/>
    <polygon points="713.6879,546.8086 717.4884,534.74 718.7993,528.6246 714.9803,525.1135 703.1486,524.8051 697.7679,525.8187 688.0282,530.5392 688.6384,540.5946 690.6852,554.3748 700.0387,555.9004 705.608,555.4216"/>
    <polygon points="702.1603,564.9023 710.4834,566.6181 719.3211,562.9161 715.9473,560.4632 714.2118,559.6592 704.3823,557.8441"/>
    <polygon points="710.7251,592.6881 712.4133,588.5989 714.1948,579.1445 712.3331,574.508 704.1179,573.2154 694.2329,583.5732"/>
    <polygon points="709.633,596.9956 709.6809,595.3016 702.2646,591.0658 701.4043,591.723 700.2327,593.5092 697.3461,599.1131 699.5335,612.573 702.2034,610.4683"/>
    <polygon points="699.6725,624.6856 692.928,611.1275 681.9374,613.7795 679.6944,617.6881 679.8096,623.6682 693.8234,630.7019 697.6926,631.2548"/>
    <polygon points="690.1285,647.0616 687.6252,646.5601 678.3543,647.9077 671.421,652.6244 671.5937,656.0967 674.3824,666.896 677.0915,670.4531 685.3312,664.2204"/>
    <polygon points="668.0325,658.3771 662.019,646.6531 653.7631,648.892 645.4138,657.1803 646.0894,661.8779 650.9252,668.4687 656.1944,674.0959 662.7211,674.6077 667.3674,665.5409"/>
    <polygon points="676.4567,677.6134 664.8138,676.9156 655.6369,690.4173 669.2491,704.0211 674.6006,701.0197 676.474,697.3801 680.2594,682.5663"/>
    <polygon points="642.6675,664.7034 639.2073,653.5762 636.2015,650.6744 623.91,640.5713 620.4478,662.4984 620.117,672.4724 620.4939,675.521 621.7045,675.4493"/>
    <polygon points="635.1904,688.5315 648.3124,690.5816 654.4585,679.3235 647.3542,670.4118 642.0415,668.6246 628.1982,675.039 625.7242,676.7923 619.118,685.2607"/>
    <polygon points="593.236,675.1901 611.4727,681.5757 613.579,677.689 617.1206,665.5754 626.6065,626.9715 608.0763,615.4121 598.2064,623.9215 576.6836,661.5348 576.2271,668.0942"/>
    <polygon points="551.0408,667.0034 553.5681,663.1629 552.1886,650.6757 546.002,630.7468 540.0753,628.3297 527.9664,624.2914 514.9736,645.6017 509.9123,657.6964 516.6308,663.675"/>
    <polygon points="543.8554,670.0796 525.2619,667.7457 510.3154,667.9775 507.6462,671.9836 506.5184,681.9866 511.2354,703.485 526.5247,708.7566 533.0703,703.9598 545.6493,677.5949"/>
    <polygon points="554.3604,656.3778 555.6573,660.0739 559.1826,661.9246 569.6184,665.4713 572.4005,664.6154 596.7628,624.8229 599.7496,617.5676 599.9354,612.7795 592.6019,607.8531 574.881,598.3589 568.6858,599.5659 549.2513,633.4117"/>
    <polygon points="511.8242,637.7414 519.4235,622.3537 504.4358,613.4428 495.0293,610.9455 492.0249,610.4712 481.7997,622.3265 474.8089,635.312 505.1694,650.1851"/>
    <polygon points="472.5161,670.3937 488.4036,674.9234 503.5788,669.7409 505.2147,668.8718 507.3522,666.2667 507.1009,657.9451 486.0761,642.3934 471.6898,635.9984 464.1614,646.6597 462.9561,649.2904 462.6203,652.6284 462.5561,658.8296"/>
    <polygon points="472.6937,691.8608 470.7118,706.2058 472.6644,708.2179 491.1752,714.0148 506.3778,700.4922 506.7532,688.4909 502.0133,677.7582 488.1039,676.7574 483.5015,676.7873 475.0841,679.4253"/>
    <polygon points="449.9539,709.9061 447.2971,708.0844 439.7181,706.3661 431.0516,704.9475 410.3971,706.394 402.059,713.8047 411.7926,732.9852 430.9258,737.3507 437.4256,734.2271 450.2873,724.7101 452.3579,713.7608"/>
    <polygon points="434.7051,702.8088 445.2439,701.6207 446.1897,700.7534 446.9182,697.1063 441.7716,684.3586 437.0836,678.8118 434.002,676.7036 418.6053,673.8861 414.1439,684.93 413.3654,689.5816 412.8417,701.5476"/>
    <polygon points="440.5953,677.5472 453.1905,712.8887 468.1397,699.8222 470.7261,680.3079 468.8716,675.0184 459.8303,665.5225 451.12,668.748 448.1415,670.7866"/>
    <polygon points="437.5385,674.2674 444.369,671.3785 446.6366,669.0497 471.2663,635.477 489.687,609.0819 488.4588,607.1239 465.2094,597.1755 435.8934,585.3741 429.7953,585.9564 424.9157,600.2318 413.8919,662.5458 418.207,671.012 426.6964,673.5797"/>
    <polygon points="406.3547,671.1629 388.5227,668.981 379.6001,671.1502 378.7097,684.0498 379.3618,688.5246 387.4703,700.9907 404.2586,705.7086 406.1862,705.7821 408.02,703.0021 409.1622,696.2736 409.7531,677.9876"/>
    <polygon points="376.7661,670.3053 377.7033,665.9156 358.2015,660.676 352.6981,661.5651 350.0178,662.5269 346.9819,666.7758 338.1996,687.854 335.1483,698.4966 346.8488,700.7933 370.0047,691.9468"/>
    <polygon points="375.5896,693.1498 354.578,701.7791 361.9376,720.0151 370.3997,728.9262 383.4941,722.9132 388.2305,711.8424 384.6883,706.0777"/>
    <polygon points="359.6343,654.1777 362.2556,657.1008 373.8526,660.7561 405.0515,667.6265 409.5113,664.1559 411.4006,657.9566 419.4348,624.3197 426.1015,585.5046 425.9392,583.7869 402.8174,572.5897 400.4681,573.5159 388.3977,580.2762 362.3382,634.4752 358.2022,645.1613 357.4805,648.0278"/>
    <polygon points="367.1968,737.3345 368.915,748.4027 393.4891,760.4857 399.9604,753.5008 405.0176,746.178 409.1936,733.401 397.6003,717.8429 389.0263,721.3487"/>
    <polygon points="363.1939,743.1429 364.3068,733.3588 363.5809,728.3239 357.2116,716.4008 346.9303,703.7286 324.2458,713.8495 324.63,718.65 325.7114,720.7693 336.1195,730.5367"/>
    <polygon points="364.2031,753.7618 364.4839,749.2335 363.3552,747.0423 352.1619,741.2455 347.052,739.9848 345.0891,745.5134 343.3496,753.9489 344.1524,757.961 350.116,767.3409 353.6438,769.6351 360.3147,760.0512"/>
    <polygon points="388.6174,761.9138 375.5852,753.78 366.2575,767.6726 372.7097,771.2608 380.1872,771.8883"/>
    <polygon points="406.2424,772.3986 396.7324,766.4442 387.0673,774.9161 379.9969,784.7657 389.6383,791.4266 396.5242,790.776 399.2129,790.2075 406.7224,787.3533 407.7491,783.8559"/>
    <polygon points="401.5768,793.8952 398.1282,809.1245 418.9811,818.862 419.2986,810.1272 419.0846,795.4146 417.2716,781.5088 403.7625,791.024"/>
    <polygon points="377.8848,785.1486 370.4438,795.2779 368.0696,805.7751 371.4725,811.3366 382.2015,818.2698 386.7402,815.9491 393.1171,803.8556 393.6298,800.6851"/>
    <polygon points="374.4133,782.3737 373.7145,780.2163 370.1858,775.2369 358.0368,774.1143 350.5996,778.772 351.8491,784.3241 356.7389,789.2696 371.2943,786.6801"/>
    <polygon points="351.2011,814.9351 353.8845,833.3164 360.7214,831.587 366.2356,826.9368 365.6262,812.9282 363.9337,809.938 359.258,804.6128 355.0303,805.1274"/>
    <polygon points="348.087,830.2839 347.3731,813.731 337.5404,808.5613 326.8936,821.7512 331.7057,826.0675"/>
    <polygon points="350.6805,844.3553 349.699,839.9989 344.8066,832.0253 328.5313,828.9951 325.6724,840.6337 330.8329,844.7463 349.5728,846.5047"/>
    <polygon points="355.5122,848.6738 359.4903,854.7383 380.4428,858.5933 384.0758,854.9499 385.3519,851.57 386.3962,847.5984 385.7432,842.21 383.9745,837.6603 380.5376,832.0117 368.3568,829.3411 354.873,837.3372"/>
    <polygon points="350.2103,860.0189 341.9701,865.5482 339.5165,870.3865 332.2093,911.5468 333.5312,924.2959 336.2926,927.9114 373.1905,935.0185 389.5812,936.6493 406.0846,937.6481 418.8487,932.1754 419.4178,896.7588 419.3528,868.2646 391.8227,862.1899 360.8229,856.0948"/>
    <polygon points="335.6913,866.3913 339.8618,859.9472 332.6671,853.5304 324.7814,850.1547 323.1403,863.7857 333.6884,867.5098"/>
    <polygon points="312.0151,859.9662 320.4842,858.6496 323.7356,849.233 318.6616,842.4526 312.1857,842.4407 301.7005,845.236 301.5578,856.2456"/>
    <polygon points="296.032,838.4067 312.4842,838.672 319.4388,837.6247 322.5205,831.2391 320.3435,823.8667 303.8349,826.1318 297.0757,828.1396 296.5318,829.2288"/>
    <polygon points="303.7729,816.3926 304.699,793.5898 299.7204,789.6974 289.6797,785.7665 281.6037,803.0797 278.3225,815.6943 291.863,820.7139 294.1477,820.3671"/>
    <polygon points="308.4667,804.1179 314.7921,815.3687 324.1579,816.7902 334.3628,804.4632 324.3142,798.2173 318.3126,798.2008 309.7068,798.3605"/>
    <polygon points="318.6174,790.6364 326.6621,797.6873 331.8632,795.8104 345.3645,778.1108 333.5784,775.9594 324.8939,777.4585"/>
    <polygon points="311.7009,771.3263 293.2478,778.9112 294.2448,781.7122 310.4793,786.4856 317.7206,785.7797 315.884,773.8798"/>
    <polygon points="302.3001,765.0705 317.0334,769.4829 319.7746,767.3351 320.8687,765.8012 318.6933,751.7101 308.0189,749.2952 300.9362,763.4576"/>
    <polygon points="315.5938,745.5527 318.6529,745.5988 337.3727,743.8737 341.3683,737.9767 330.7677,727.6957 319.8544,725.1071 313.6846,743.0114"/>
    <polygon points="327.2505,767.243 330.8553,769.8446 345.8229,774.4927 339.965,753.0417 336.4669,750.7373 329.5035,750.2826"/>
    <polygon points="335.4388,802.5119 345.805,806.7557 354.001,802.9566 355.9981,797.8734 356.6951,795.2116 349.4338,793.0262 345.3756,793.0159"/>
    <polygon points="390.5183,851.467 397.5416,861.3088 400.0743,862.0546 408.2299,863.4434 413.6253,863.8205 416.5509,862.8147 418.6114,845.8175 418.8841,840.6579 417.1163,837.8642 389.7597,845.5804"/>
    <polygon points="410.6059,820.433 407.5452,818.8716 403.4289,816.9885 392.0866,814.8633 389.4878,817.1354 383.2941,829.2288 394.8738,841.4697 395.9534,841.5505 410.2297,837.9833 419.609,828.1193 414.8377,823.2972"/>
    <polygon points="426.6186,859.6311 420.0468,861.9326 420.7851,881.4578 423.1131,882.8952 434.5832,885.0044 435.5958,875.1625 433.8686,866.372 429.984,859.1921"/>
    <polygon points="446.5749,881.631 453.7977,877.9552 450.029,863.2901 445.1753,855.476 441.3404,856.2956 436.9837,859.7978 442.5812,882.576"/>
    <polygon points="457.4855,882.8287 457.1013,886.3273 458.0538,888.9853 459.6978,891.9003 472.2082,900.9978 480.0002,900.3698 477.2787,879.2771 466.8409,877.7455"/>
    <polygon points="466.2913,856.3066 463.6952,854.9322 456.06,860.1322 456.946,869.6221 458.4538,876.1924 472.02,873.7275 473.7105,862.1522"/>
    <polygon points="489.9933,840.4722 474.8025,853.545 478.2753,865.9664 482.7236,865.7401 497.5731,862.7674 496.5459,847.1975"/>
    <polygon points="486.6039,830.0881 473.1461,791.2605 460.0533,764.7388 435.3721,772.8262 422.8399,779.8697 420.3781,809.9776 420.1697,845.6147 421.2349,851.7346 430.3276,852.9751 448.9625,854.1259 463.3171,851.6491 482.5965,844.9325 483.9984,841.6908"/>
    <polygon points="527.3764,825.8513 546.5202,835.9066 563.3598,826.9544 564.8744,825.0023 565.4427,821.5175 562.8006,812.6054 561.8536,811.3025 556.1789,808.1849 550.6039,809.2725"/>
    <polygon points="541.062,837.3728 527.8174,827.5672 524.5065,830.2747 522.9344,832.3965 518.8796,847.869 532.6647,866.3097 536.58,869.1277 538.7788,866.6755 543.1412,854.2325 545.4336,846.6081 545.4521,844.7348 543.838,840.1644"/>
    <polygon points="517.0261,862.8023 519.7913,851.6736 515.7571,847.6303 502.0489,840.0783 499.5815,861.5765 502.0711,862.6458 513.1089,866.1738 516.3457,864.0727"/>
    <polygon points="516.51,875.3743 515.7173,869.3688 498.4556,871.619 502.6568,886.5706 506.6836,887.2081 510.9304,885.3139 514.7485,882.1243 516.6132,879.4652"/>
    <polygon points="538.7697,880.3557 538.1945,876.892 534.9843,871.6316 527.0214,862.6926 518.9809,867.341 519.9548,880.127 520.9786,882.2946 526.4897,886.3343 532.8326,884.9327"/>
    <polygon points="534.0263,890.1488 532.6547,891.5414 530.8925,904.9329 539.1469,905.691 550.8977,900.9644 549.6511,894.6788 539.1795,888.8978"/>
    <polygon points="528.4839,902.8072 523.6549,890.6471 521.0629,890.3566 518.4337,890.9623 505.4729,897.3517 507.8382,909.5898 511.4544,918.4876 515.6717,919.4108 519.6366,914.9601"/>
    <polygon points="503.6694,900.5113 491.0002,897.5592 486.8916,898.9398 484.1343,902.1387 485.6769,916.7573 488.0008,924.2338 501.483,917.9447 503.7962,907.6942"/>
    <polygon points="484.8044,893.1673 485.6752,894.0115 496.9719,892.3178 498.1222,891.7009 498.1306,886.024 494.3489,873.6386 488.9804,871.3225 477.771,874.4033"/>
    <polygon points="480.3496,917.4889 479.2944,908.7847 475.5317,907.9568 466.5424,907.9752 462.8097,908.8271 461.0822,919.4478 466.2999,927.4388 474.4387,926.7932"/>
    <polygon points="453.1588,910.6171 462.4442,905.0463 464.9337,902.8559 453.0275,891.7613 451.6111,890.9243 445.4869,893.9428 445.2542,903.931 446.0003,907.6085"/>
    <polygon points="446.49,910.1312 437.8404,913.505 436.2785,917.7092 439.0665,925.9167 448.486,929.3662 452.3281,929.8284 457.1498,927.0699 457.8197,923.6044 450.9522,912.1315"/>
    <polygon points="438.9909,909.4128 440.4371,908.2873 437.9719,897.1314 434.5468,892.4407 427.7728,887.4673 421.6266,889.2632 420.4019,900.5324 421.2182,902.354 432.1402,909.8932"/>
    <polygon points="433.0587,927.8595 436.2873,924.2478 427.9076,912.4576 421.7588,914.6071 421.3928,934.5989 427.1469,931.871"/>
    <polygon points="307.8241,889.833 315.1901,894.5987 332.4108,900.1025 335.3029,878.0902 334.95,872.8881 317.4404,862.7465"/>
    <polygon points="303.4809,899.3435 300.1635,906.3916 304.3778,921.2201 312.3897,924.5566 317.1672,925.1982 322.4747,922.7683 329.7973,917.449 329.0076,900.2016 313.6248,897.3522"/>
    <polygon points="288.0756,894.9496 274.2132,896.2755 264.373,910.8575 269.1976,914.2381 276.4827,918.0678 297.0781,919.7227 298.1029,911.3697 293.7696,901.2309"/>
    <polygon points="282.7082,873.0854 281.5008,885.3233 284.3058,887.6531 299.1005,893.5751 304.9257,890.9612 312.1541,870.114 312.654,867.5524 312.888,861.5206 295.6654,857.5363 288.6602,861.2541"/>
    <polygon points="256.3598,862.417 266.6554,875.0249 268.272,875.1685 280.2829,868.4223 286.7136,861.0442 284.6997,855.2516 278.3745,850.5573 262.9998,846.5823 256.5441,857.3428"/>
    <polygon points="246.172,878.2353 241.4812,897.8043 243.2232,899.3809 250.0013,902.289 257.9482,904.0868 270.017,897.3007 273.201,886.0895 271.7302,883.0018 260.8529,874.2619"/>
    <polygon points="265.3592,838.44 262.316,843.8789 278.7731,848.8633 288.4772,850.9556 293.1569,847.5325 288.0852,830.155 284.75,825.6736 278.9638,820.746"/>
    <polygon points="429.6023,771.021 435.9453,757.8044 433.5822,751.3653 428.1648,739.3911 412.7301,736.1416 402.8193,753.4382 402.5241,757.6788 405.1767,763.8615 408.426,767.4956 418.513,776.1226 424.8431,774.539"/>
    <polygon points="465.1701,757.479 466.1502,753.1017 456.6215,730.1073 454.4084,727.1372 436.964,744.2883 437.2873,758.7207 444.7364,768.2547 456.3569,764.6936"/>
    <polygon points="488.7052,718.6449 482.841,713.723 475.9992,711.1547 466.5463,711.2653 463.4313,711.863 458.6912,714.8337 460.0728,723.2115 470.5367,755.9504 473.7768,759.4306 490.6112,746.08 490.5258,737.7859"/>
    <polygon points="500.7191,709.6962 497.8087,713.3766 493.9169,721.5865 491.2385,729.6605 494.5641,748.7235 500.6602,749.0383 509.2229,747.6465 511.7684,746.2792 516.8555,739.5413 525.6359,723.003 524.4263,718.6483 516.6434,708.6631 509.6161,707.6716"/>
    <polygon points="533.4107,772.0387 509.9121,750.0898 505.5822,749.7824 483.7314,757.0498 471.7552,762.0125 471.09,779.4388 480.8451,804.3794 525.189,783.8442 531.7468,777.3455"/>
    <polygon points="540.182,783.3139 532.1346,784.78 516.9435,788.6707 486.2667,803.732 487.0433,818.0386 490.9734,831.112 494.4439,834.7171 504.7972,836.741 511.1658,837.1173 541.267,813.5266 550.3105,800.345 541.813,784.7295"/>
    <polygon points="571.1371,859.7205 580.7599,845.6901 579.1812,837.1623 569.3764,830.9661 552.7331,840.1334 548.9619,856.9541 549.8701,858.5074 557.0292,862.8854 562.2549,863.666"/>
    <polygon points="570.0543,863.821 570.0781,872.2304 574.9429,888.7506 593.1572,880.3745 605.1325,873.3036 592.3845,854.516 584.1735,854.7438"/>
    <polygon points="572.413,886.9663 569.1199,875.4375 566.4185,868.9275 549.4703,865.3729 538.0454,871.2932 539.8059,877.2847 552.6347,892.2247 558.4576,897.9881"/>
    <polygon points="665.4569,820.4513 699.7761,783.6801 702.9566,779.8326 712.2626,764.0209 730.2554,729.742 723.0735,725.5415 674.2216,706.6897 606.2411,681.3482 561.7324,665.1327 554.4083,667.9516 550.3557,672.7945 544.0104,685.5392 523.665,730.9577 519.0419,742.2682 519.4521,746.8186 523.3263,755.1899 534.9528,772.6652 588.3344,847.9471 607.6946,866.9814 620.4473,866.1863"/>
    <polygon points="660.712,635.2722 661.3924,626.9531 658.2345,621.6077 655.7514,618.9709 644.2085,619.5084 626.048,632.4518 636.3119,644.2244 644.9843,647.0956"/>
    <polygon points="666.6756,625.7564 660.9965,643.9263 670.775,647.1647 677.6457,646.4082 693.6765,640.8716 686.1147,631.1263 682.9935,629.076"/>
    <polygon points="615.5386,614.7667 618.504,613.8563 619.0851,605.8839 617.3731,602.0266 604.5491,595.3713 600.7576,596.7526 591.267,603.2515 607.5214,613.0561"/>
    <polygon points="608.7625,581.8534 608.4916,584.1373 610.5839,589.389 612.7198,593.2883 620.6782,602.1527 629.0857,597.8262 633.6544,587.1358 633.6375,585.2646 623.6205,574.0596 612.7826,576.858"/>
    <polygon points="624.0123,550.8744 621.9412,547.3475 605.9943,547.5885 600.2794,551.3897 598.4814,554.1888 598.8515,566.0484 602.8225,569.8554 609.4571,574.128 617.2702,572.9462 619.5188,571.5762 620.8136,569.7292 625.3068,556.308"/>
    <polygon points="611.7357,545.5759 618.4161,538.7926 609.7028,526.1142 600.6983,525.5132 601.9909,535.1391 605.6597,540.8311 608.4857,543.93"/>
    <polygon points="618.2918,531.4627 624.0588,535.3264 627.8159,535.2321 630.7705,531.9017 631.2638,530.4047 631.8906,520.2349 617.3057,515.7568 611.749,525.3307"/>
    <polygon points="625.6291,513.3381 638.5356,511.8767 641.1523,502.7263 640.6924,502.145 629.5902,497.0838 625.6463,497.3483 621.0992,512.3794"/>
    <polygon points="642.4148,508.8894 642.1013,509.1915 635.844,524.493 646.8182,528.0939 658.4046,521.5607 655.4832,510.5321 649.0211,508.7757"/>
    <polygon points="656.5997,503.5844 667.0609,507.0013 690.9851,496.9131 703.0907,491.2027 705.0477,478.1576 697.0508,466.5094 688.8869,458.0436 676.869,455.3403 666.2999,455.6812 645.3347,460.0035 642.5737,492.3824 644.2904,494.8073 646.3264,496.5669"/>
    <polygon points="646.5704,529.7478 646.6951,531.2009 650.7959,546.863 657.7097,547.9002 659.0175,538.5654 659.388,533.2009 657.9292,525.1154"/>
    <polygon points="639.9346,534.7835 633.1523,532.9829 627.0052,545.3837 631.6006,547.9071 643.4554,548.5912 647.5573,544.3854"/>
    <polygon points="598.5561,521.3056 608.2506,520.3091 613.3817,500.8945 611.6688,499.7634 599.14,503.848 596.666,513.4549"/>
    <polygon points="610.7175,497.1884 609.3913,488.6236 602.6826,478.3158 597.9668,483.0508 592.3695,489.8078 591.6729,491.888 593.5346,500.154 598.9365,499.5863"/>
    <polygon points="613.4772,493.0223 615.4913,493.417 617.9765,493.5829 631.5801,492.1293 628.7887,483.7723 626.0186,477.8731 622.7167,473.0055 616.7314,468.2291 610.6884,472.9276 609.4441,474.3366 610.7288,489.2127"/>
    <polygon points="634.069,479.9844 637.4627,483.2983 643.1214,467.6595 643.0066,460.3406 621.4504,465.1826"/>
    <polygon points="625.3287,462.4133 639.3083,456.6702 637.9331,448.7514 631.5102,444.7146 627.1556,444.7934 622.7779,451.0607"/>
    <polygon points="642.0208,449.5579 644.2557,433.1363 631.5624,429.1201 627.7791,429.0711 635.7151,443.9483 637.7826,446.6106 641.0827,449.8751"/>
    <polygon points="662.9126,445.8186 659.5453,442.3421 650.4928,438.9038 646.2129,451.6168 658.4558,454.1859 661.8653,454.163"/>
    <polygon points="674.4277,435.5053 671.7107,428.612 656.1485,425.9925 653.1789,430.0983 653.3557,434.3326 662.2392,441.0082 673.3462,440.5612"/>
    <polygon points="693.3473,438.5603 676.4301,440.9242 677.8583,451.0851 687.3258,449.3032 689.9842,448.4519 693.9942,440.5015"/>
    <polygon points="697.3158,440.8315 700.9637,452.7435 707.9778,451.8531 709.8867,448.1939 712.9701,440.9671 707.429,432.7739"/>
    <polygon points="710.9225,427.295 728.7221,435.9405 730.9248,423.0824 728.7054,417.4681"/>
    <polygon points="716.9839,455.2595 724.3918,453.9261 728.7898,449.6868 729.5415,444.9738 723.7179,436.2966 716.6801,436.0288 714.3534,444.0145 713.2269,452.9454"/>
    <polygon points="712.7529,456.4693 701.5204,458.7818 707.655,474.4474 722.2418,471.3001 718.0064,462.8982"/>
    <polygon points="747.151,469.8869 739.6808,454.7077 737.8606,454.6979 733.1439,456.1206 727.473,468.1562 728.3206,469.6936 740.2133,470.5077"/>
    <polygon points="753.9003,448.1401 750.34,448.0709 743.9226,454.8917 753.7971,467.212 758.8292,464.6986 758.4668,457.2404 755.601,451.0576"/>
    <polygon points="749.6464,439.6558 747.9678,437.037 744.2893,433.7111 738.7647,434.3004 732.4995,442.2697 734.3928,449.634 740.7287,450.899 745.3786,446.0618"/>
    <polygon points="741.4557,416.1519 739.2129,412.6676 734.6745,416.1868 737.6918,427.4419 742.1136,429.6311 747.1881,428.5001"/>
    <polygon points="733.8937,400.2263 720.0846,383.8563 704.529,397.5041 687.7218,413.7335 690.5862,417.9254 697.9404,423.9579 718.6332,419.1967 721.3017,417.3187 731.4486,406.3794"/>
    <polygon points="710.9287,359.0277 673.6909,386.2596 668.9258,390.7767 674.359,400.2234 684.3644,405.9413 687.3372,407.0187 694.6028,404.4046 716.8024,383.5626 720.3915,377.6997"/>
    <polygon points="697.5525,335.3516 689.7206,328.6546 686.3551,329.8617 668.3762,348.0515 668.2347,352.5166 688.5889,367.8008 693.5266,366.3186 703.7756,360.8076 705.3553,351.1359"/>
    <polygon points="640.9661,328.1052 642.0632,333.4633 649.8485,339.823 664.853,345.3349 668.1323,343.1947 677.0949,331.634 682.7535,322.8038 669.9684,308.8313 664.8235,306.6266 662.3357,308.5063 641.1652,327.1078"/>
    <polygon points="615.4183,347.1768 606.0539,347.3712 596.4119,361.8628 612.9242,375.6437 619.1475,377.0797 636.0603,366.4513 628.4208,350.7586"/>
    <polygon points="638.8002,364.14 645.7583,372.1703 655.2781,363.5349 666.7835,352.0823 666.6481,348.7795 635.3954,335.758 629.5017,338.0845 629.2801,339.3062 632.0152,347.207"/>
    <polygon points="630.2977,374.6143 623.3085,379.6182 622.3367,383.4773 627.8482,393.418 638.9397,407.8053 653.7996,397.4647 651.4862,389.8248 647.7795,379.3764 645.1403,376.4644 640.3299,372.2702"/>
    <polygon points="615.4469,383.7304 609.7075,374.2178 598.7943,366.4537 585.6587,374.8711 583.1786,379.3843 587.9645,386.8141 602.006,398.5152 614.912,386.674"/>
    <polygon points="618.9759,388.223 607.9955,397.6175 602.6596,403.7539 602.3319,408.2649 616.8313,424.6541 636.8501,408.9618 634.9465,405.6078 627.3827,395.6089"/>
    <polygon points="649.2417,375.1968 650.2718,378.216 658.5937,389.4748 671.8544,384.5879 676.6298,382.1473 685.2187,373.5932 678.7808,364.0843 669.1199,354.5056 650.2559,371.2612"/>
    <polygon points="650.3362,402.058 656.0921,410.9578 675.6961,407.1465 665.6514,399.3517"/>
    <polygon points="643.9602,410.3408 639.9947,410.9044 638.7735,423.323 639.6844,425.7306 642.5989,429.6817 647.7733,430.8726 654.9791,421.3371 651.3959,417.2315"/>
    <polygon points="666.6655,412.5976 660.8804,415.6378 660.0403,418.6733 660.6456,421.2466 662.7775,425.2447 672.0216,424.8165 675.6287,419.5432 671.4336,414.5725"/>
    <polygon points="682.0091,416.5695 675.4723,426.911 684.0786,436.0237 687.3185,435.5925 691.2374,432.2345 688.5758,422.3319"/>
    <polygon points="618.4948,427.6659 614.67,428.6116 604.4369,436.5147 599.8047,443.0559 608.9161,451.6678 612.2603,451.9353 624.9704,441.436 626.8771,438.8173"/>
    <polygon points="598.4106,435.2853 602.4861,434.3843 607.5818,431.8122 605.6232,420.3209 602.4481,412.0997 592.2637,399.7521 586.6286,402.0585 577.9251,411.7562 586.6452,424.2051 591.1827,429.2676"/>
    <polygon points="578.8297,420.3807 572.3312,416.9311 561.0683,430.5782 560.0588,438.4376 575.0301,446.5861 576.7815,447.1511 587.2088,445.0422 592.4317,438.966 591.7625,437.1943"/>
    <polygon points="584.3768,384.8145 577.7515,374.1875 558.8471,381.0719 551.1423,386.5318 551.6427,394.2806 553.0804,396.4357 556.5316,400.2807 560.9408,402.4641 566.1228,403.5015 578.8771,404.0986 587.3556,395.1691"/>
    <polygon points="586.3001,363.6307 588.4938,355.7037 576.2304,351.6372 565.9854,353.2358 560.7255,356.8581 553.2597,368.6631 555.7215,375.1341 570.4199,373.808 575.2252,372.9407 583.3442,367.3965"/>
    <polygon points="561.2815,350.3708 563.0111,346.18 563.935,340.0159 563.2545,337.8806 542.3829,335.8712 533.2462,338.7213 531.7561,340.0169 538.8937,359.1188 544.9863,363.093 549.0509,363.6309 551.2453,362.0907"/>
    <polygon points="566.373,336.5315 573.3536,328.7733 581.5773,310.4003 582.1744,308.4831 581.3376,306.7199 573.55,305.1876 559.525,304.2842 551.2027,309.746 548.8321,321.1422 551.1846,327.1068 552.2762,329.0095 562.3621,334.6974"/>
    <polygon points="595.7156,325.9916 588.1429,320.2317 584.6017,321.3705 575.1995,328.9657 568.3206,341.9984 575.6232,348.6442 585.6931,352.0302 587.3395,351.9723 597.5969,349.1932 599.9044,345.8651 600.4614,334.3597"/>
    <polygon points="581.2317,283.5692 572.7262,282.616 570.673,289.2304 570.7324,290.5927 577.5175,302.195 582.2166,304.4043 585.7492,294.0931 586.8472,289.3828"/>
    <polygon points="583.5479,281.4611 592.4531,284.5802 598.3018,271.6882 595.0089,268.3177 581.9075,263.0019 569.3509,270.1458 570.4484,275.2853"/>
    <polygon points="564.045,265.8583 554.9509,256.4986 551.47,254.4792 544.3636,255.1087 537.4123,269.2596 537.3337,271.0242 544.4278,277.4011 558.9427,274.7545"/>
    <polygon points="560.9056,255.7138 571.148,264.7413 573.3782,265.2891 585.4992,247.9613 582.0924,239.0523 575.5929,239.3773 564.395,250.6211"/>
    <polygon points="564.8012,230.575 557.757,227.8146 556.6825,228.8277 549.1173,242.4554 559.0665,249.9626 567.7778,241.7021"/>
    <polygon points="604.2341,263.6873 605.9176,252.9795 604.4566,249.8538 592.4589,247.2631 588.3494,248.0901 587.3854,258.4351 592.9497,264.8239 596.424,266.0618"/>
    <polygon points="604.1019,267.1422 590.7971,291.4699 588.1148,306.5184 596.5121,325.163 608.2454,338.2475 610.9306,340.2729 616.8342,341.002 619.6692,339.6639 636.5358,328.1373 661.391,307.8083 663.8735,305.6228 664.9818,301.5838 635.2203,271.4405 625.3682,262.268 611.6544,257.1098"/>
    <polygon points="546.9305,298.0263 552.6408,301.7379 564.1437,300.6487 565.2154,299.9218 566.2572,285.8415 555.1152,285.1996 549.4698,285.6272"/>
    <polygon points="534.8711,275.2495 531.5574,280.3528 529.5179,290.1715 530.3988,296.7147 541.4538,301.7939 545.6756,290.6546 544.4829,287.1085 540.0864,280.7985"/>
    <polygon points="527.7465,338.8175 546.6345,327.1365 547.192,311.9112 545.0923,304.0969 544.3149,303.199 521.124,303.1152 508.941,327.6117"/>
    <polygon points="532.951,357.0876 518.2121,372.9354 518.0342,376.3643 539.462,395.7032 543.2061,393.6408 552.5984,379.0358 553.0824,377.9083"/>
    <polygon points="514.1225,380.8568 514.237,379.0331 512.5094,376.8008 498.9177,371.6019 487.1235,378.5446 480.3144,390.1203 478.3525,400.2842 496.3695,408.4903 505.9122,400.7932 511.3221,393.1769 513.084,386.8105"/>
    <polygon points="498.3174,368.7686 510.148,371.7142 516.7853,371.6865 527.3219,360.3271 525.7656,354.6251 522.2347,344.111 506.08,334.652 491.2127,365.4283"/>
    <polygon points="534.6587,395.6944 525.4445,391.6833 515.8961,389.5929 502.1895,409.6078 504.7894,414.0177 506.7883,415.141 518.9741,418.8211 526.2142,418.1942 528.8501,416.7418 535.5131,409.613 537.0131,405.3375"/>
    <polygon points="541.3041,402.2935 531.3821,419.1779 531.6819,425.0946 533.6737,427.5048 540.4801,430.4635 557.0774,430.9867 563.898,423.3206 568.3361,414.4918 564.2325,409.1096 553.8983,400.7658 547.4078,399.0398"/>
    <polygon points="588.8257,473.6916 593.8879,476.7157 599.2741,474.7203 608.8563,465.2993 612.0912,461.3357 610.4721,456.8628 601.9646,450.2107 593.4435,444.4669 584.6738,459.0899 586.4294,470.5567"/>
    <polygon points="574.2052,592.8332 583.0023,599.6772 602.7406,587.0777 605.7363,581.473 597.1329,569.4509 589.8425,568.2757 581.203,580.9649"/>
    <polygon points="561.7902,608.7903 590.1004,565.3849 599.9121,546.2139 599.2976,533.8297 596.8596,515.089 591.7786,494.9508 583.7546,468.0235 572.1423,448.8386 546.0358,434.6732 502.1908,414.2881 478.5073,405.0969 474.5588,406.3614 468.4492,414.5268 454.6094,440.6272 426.0724,500.138 410.8994,533.2767 402.0774,553.8965 397.5988,568.6768 398.7073,569.7999 532.3625,624.0429 548.1502,627.2795"/>
    <polygon points="733.4802,619.3522 730.016,614.8085 719.0937,608.3733 707.2689,615.8019 703.1594,631.1662 730.6609,640.4417 732.3286,635.4011"/>
    <polygon points="736.9817,611.8638 734.9899,627.8797 735.9141,639.3503 753.7646,645.8851 759.2994,647.5451 760.2588,647.3226 764.5862,624.8226 763.4713,610.381 761.3326,607.7852 746.1891,604.584"/>
    <polygon points="740.1566,596.1846 741.2672,588.9517 735.3599,575.3487 725.2747,566.6684 720.5669,574.0239 712.8402,602.3711 713.274,605.1474 731.5951,608.0057 738.5679,603.749"/>
    <polygon points="755.4557,601.1955 768.622,598.2499 769.9371,593.5084 771.4268,579.313 771.8712,571.5586 764.1124,566.0403 761.7865,565.5554 734.6537,564.006 743.5533,587.3607 749.5843,599.1953"/>
    <polygon points="772.5482,559.0299 770.1598,554.7463 761.4367,545.4344 756.8225,545.5603 748.4411,549.7747 741.306,554.0806 742.9554,560.7771 765.938,563.0286"/>
    <polygon points="758.8256,659.2564 751.3116,650.7774 745.0874,646.9904 718.6162,638.3317 699.2147,635.9283 696.8975,637.8917 686.1121,671.6578 679.9945,697.5686 685.3468,708.1472 695.2606,713.3521 720.1585,723.094 726.7309,723.3549 746.0578,699.137 754.3453,682.1588 757.8799,670.193"/>
    <polygon points="35.3689,660.7762 36.895,668.8834 49.3863,699.4978 91.3869,782.7905 175.3316,867.1067 227.6211,893.6123 229.9926,893.6303 233.4543,892.8085 241.1398,885.5687 263.6832,839.2557 321.0306,719.7117 543.5391,253.8218 549.6235,241.0556 555.0673,228.6882 552.8041,222.6223 550.6255,220.9897 525.9269,208.1833 521.9206,206.2877 513.1812,202.8891 499.0157,200.0252 396.048,184.8716 373.8466,187.3037 321.1297,195.5776 279.2911,203.9767 257.626,213.7494 193.4852,246.7122 181.6029,254.1385 160.2377,271.5208 132.9894,297.8269 99.3783,333.9013 84.8447,353.803 67.9854,386.0038 43.6968,433.6288 39.6621,443.4243 36.7679,457.4257 31.952,485.231 22.5259,542.5687 21.1526,559.8076 21.456,569.9333 24.482,592.7001"/>
  </g>
</svg>
